<?xml version="1.0" encoding="utf-8"?>
<!DOCTYPE svg PUBLIC "-//W3C//DTD SVG 1.1//EN" "http://www.w3.org/Graphics/SVG/1.1/DTD/svg11.dtd">
<svg version="1.1" xmlns="http://www.w3.org/2000/svg" xmlns:xlink="http://www.w3.org/1999/xlink" xml:space="preserve">
<g class="level" id="level1">
            <g class="shadow">
                <path d="M313.688,66.212 L313.688,65.761 L288.188,59.42 L288.228,56.259 L325.525,29.66 L410.523,50.841 L410.523,54.001 L373.226,80.62 L371.97,80.306 L371.97,81.523 L371.047,82.17 L363.509,82.936 L357.031,81.346 L355.108,82.74 L358.582,83.604 L361.331,87.942 L361.292,91.102 L359.427,92.417 L348.866,89.787 L348.846,90.886 L341.995,95.774 L320.323,90.376 L319.656,90.847 L345.468,97.266 L345.428,100.426 L333.081,109.28 L311.861,103.96 L311.704,104.078 L317.515,105.492 L317.475,108.377 L327.565,110.91 L330.588,108.731 L341.208,111.401 L344.741,108.829 L348.903,109.87 L348.863,113.031 L332.983,124.377 L322.402,121.727 L319.104,124.063 L295.685,118.233 L293.016,120.137 L292.486,120 L292.466,120.51 L288.815,123.12 L288.775,125.24 L314.628,131.698 L316.179,130.579 L321.773,131.973 L321.773,132.346 L327.878,133.877 L328.467,134.839 L328.467,136.586 L329.782,138.667 L331.45,139.079 L332.039,140.06 L332.039,143.181 L327.112,146.715 L324.619,146.95 L317.709,151.877 L317.709,153.408 L312.232,157.295 L309.347,157.609 L307.993,157.255 L301.024,158.021 L299.768,158.924 L296.273,159.297 L284.652,156.392 L284.691,155.116 L274.798,152.642 L271.048,155.312 L271.009,155.94 L265.67,159.748 L248.572,155.488 L248.572,156.469 L237.265,164.517 L225.663,161.631 L224.21,162.632 L218.694,161.238 L213.944,164.654 L217.065,165.419 L217.065,168.56 L214.906,170.091 L217.89,170.857 L217.87,174.018 L191.978,192.47 L189.858,191.96 L188.641,192.784 L189.956,193.138 L189.936,196.298 L174.173,207.527 L174.153,210.688 L166.694,215.988 L163.416,215.202 L158.116,218.971 L149.793,216.89 L146.985,218.872 L128.513,214.259 L128.513,211.59 L123.802,210.412 L121.034,212.414 L102.543,207.801 L102.563,205.131 L90.294,202.089 L90.314,198.929 L97.322,193.923 L94.967,193.334 L94.967,192.726 L96.773,191.391 L93.278,190.527 L93.278,189.899 L95.535,188.27 L99.854,189.35 L101.974,187.858 L104.82,188.545 L119.562,178.043 L131.36,180.988 L131.36,180.438 L130.889,180.301 L130.889,177.14 L134.56,174.529 L130.359,173.469 L130.399,170.348 L142.746,161.534 L144.16,161.868 L147.182,159.728 L158.215,162.496 L158.568,162.261 L158.568,160.415 L166.165,154.998 L157.528,152.858 L157.214,152.74 L152.503,151.562 L152.503,148.441 L152.66,148.304 L149.382,148.481 L135.111,144.908 L135.111,144.221 L134.385,144.731 L101.799,136.624 L101.799,136.055 L95.733,140.393 L90.256,139.039 L83.071,144.182 L80.539,143.554 L80.539,142.926 L82.404,141.611 L73.904,139.491 L73.59,139.393 L66.739,137.685 L22.14,142.298 L22.179,139.157 L22.866,138.666 L22.729,138.45 L18.646,137.409 L17.252,135.19 L11.952,135.779 L10.912,134.189 L10.912,131.029 L14.308,130.656 L8.93,122.49 L3.767,123.04 L2.726,121.45 L2.746,118.29 L5.906,117.956 L5.494,117.328 L5.533,114.168 L14.936,113.128 L14.818,112.951 L14.818,109.79 L19.156,109.319 L21.354,112.637 L42.967,110.183 L42.653,109.653 L42.653,106.532 L46.579,106.119 L48.837,109.653 L60.733,108.416 L68.506,120.724 L70.587,120.489 L66.563,114.07 L66.583,110.949 L73.395,106.042 L75.241,105.767 L77.832,103.941 L86.783,106.159 L92.967,101.742 L102.743,104.176 L103.607,105.57 L103.646,104.255 L103.783,104.137 L90.16,100.741 L90.18,97.58 L111.341,82.485 L108.652,81.798 L108.672,78.637 L118.506,71.629 L118.663,71.531 L120.096,70.49 L125.062,71.727 L129.734,68.41 L138.096,70.491 L138.135,67.704 L136.114,67.193 L136.114,65.662 L124.258,62.718 L122.275,64.112 L115.267,62.365 L115.267,59.204 L118.506,56.927 L142.671,54.317 C142.75,54.094 142.867,53.879 143.025,53.669 C143.47,53.067 144.249,52.498 145.361,51.961 L135.389,43.501 L134.918,43.56 L134.761,43.56 L134.427,43.599 L134.251,43.599 L133.976,43.638 L133.387,43.638 L133.073,43.599 L132.994,43.599 L131.266,43.422 L131.226,43.422 L130.598,43.324 L129.008,44.541 L128.282,44.286 L127.281,43.776 L126.751,43.285 L126.516,42.912 L126.437,42.696 L126.417,42.637 L126.417,41.695 C126.417,40.739 127.294,39.608 129.047,38.299 C129.95,37.606 130.931,36.965 131.991,36.376 L136.682,36.376 L136.682,35.866 L136.702,35.905 C136.689,35.735 136.747,35.526 136.878,35.277 L136.878,35.237 L140.258,35 L141.338,36.453 L158.043,40.654 L158.043,42.931 L158.612,42.558 L160.28,42.931 L160.28,41.341 L168.152,35.766 L172.726,35.197 L175.042,33.528 L175.081,30.799 L181.363,26.323 L187.605,27.854 L187.585,30.995 L168.485,44.638 L171.469,45.364 L171.469,45.757 L177.868,47.347 L177.868,48.152 L190.352,51.273 L190.352,51.469 L193.513,52.235 L193.788,52.333 L208.491,55.984 L208.47,59.144 L200.343,64.935 L204.603,66.015 L205.133,65.622 L205.27,65.661 L205.27,63.345 L213.73,57.299 L248.711,66.015 L249.202,65.661 L251.656,66.289 L255.19,63.757 L263.945,65.936 L263.906,69.057 L262.63,70.863 L266.792,71.491 L266.812,68.644 L268.893,67.152 L272.505,68.055 L272.505,68.507 L275.881,69.331 L275.881,70.411 L282.221,72.02 L282.221,72.707 L283.163,72.02 L291.761,74.16 L291.761,77.321 L290.898,77.91 L297.101,79.48 L297.101,77.556 L313.178,66.112 L313.688,66.212 M273.369,97.306 L282.752,90.612 L235.031,78.991 L235.031,77.597 L233.579,78.638 L230.399,77.853 L230.105,77.735 L223.176,76.047 L222.862,75.929 L211.967,73.22 L211.967,72.298 L211.005,72.985 L202.565,70.904 L202.251,70.806 L194.966,69 L194.24,69.51 L201.169,71.257 L201.169,74.418 L182.363,87.806 L169.741,84.645 L168.328,85.686 L178.025,88.12 L178.005,91.28 L165.049,100.506 L166.522,102.548 L166.542,99.525 L169.526,99.211 L179.36,92.164 L184.739,93.518 L185.661,92.87 L202.327,97.032 L202.288,100.192 L199.402,102.234 L202.151,102.921 L202.878,102.411 L206.862,103.412 L207.569,102.921 L212.947,104.275 L222.546,97.385 L231.085,99.525 L231.046,102.647 L223.213,108.28 L243.785,113.404 L245.198,112.364 L245.375,112.266 L248.398,110.067 L238.131,107.535 L238.151,104.394 L250.655,95.462 L269.382,100.114 L272.778,97.68 L273.367,97.857 L273.367,97.306 M271.641,73.612 L271.15,73.75 L271.641,74.064 L271.641,73.612 M286.56,128.773 L285.618,129.44 L288.778,130.225 L289.721,129.577 L286.56,128.773 M205.763,123.257 L207.137,123.61 L207.392,123.434 L205.998,123.159 L205.9,123.159 L205.763,123.257 M199.893,134.328 L203.191,131.992 L207.117,132.973 L207.117,134.602 L208.805,133.385 L208.884,133.326 L208.923,131.265 L208.295,131.717 L191.845,128.145 L191.806,128.145 L184.484,126.338 L183.561,125.062 L183.561,124.571 L171.92,121.666 L170.291,122.844 L154.332,118.859 L154.018,118.741 L151.349,118.093 L151.349,117.74 L148.895,117.112 L143.379,117.367 L143.339,118.957 L137.725,119.546 L137.725,116.385 L138.058,116.149 L137.685,115.482 L132.621,116.031 L132.621,116.345 L129.107,118.819 L129.107,118.878 L129.048,118.878 L128.871,119.015 L128.792,118.917 L122.079,120.095 L121.372,119.054 L121.333,120.095 L116.386,123.667 L152.368,132.658 L152.368,133.207 L152.466,133.247 L152.427,136.408 L151.328,137.174 L154.998,138.116 L155.037,135.191 L163.046,129.44 L189.546,136.055 L189.526,138.175 L191.666,138.705 L191.745,138.666 L191.745,137.449 L196.378,134.112 L199.891,134.976 L199.891,134.328 M150.112,73.789 L150.073,76.066 L152.428,74.378 L150.112,73.789 M129.088,86.902 L130.541,89.022 L131.13,88.983 L129.952,87.098 L129.088,86.902 M105.493,111.106 L105.827,110.91 L105.493,110.36 L105.493,111.106 M182.364,144.634 L182.364,144.32 L182.03,144.555 L182.364,144.634 M175.474,155.431 L175.847,155.529 L178.281,153.781 L178.458,153.683 L179.597,152.858 L179.224,152.74 L175.474,155.431" class="shadow"/>
            </g>
            <g class="outline">
                <path d="M326.405,3.375 L287.61,31.037 L287.578,36.255 L311.113,42.12 L296.584,52.47 L296.577,53.204 L294.302,52.637 L294.326,48.645 L283.746,46.006 L283.551,46.153 L278.343,44.875 L278.362,43.798 L275.04,42.977 L275.079,42.558 L269.401,41.1 L266.276,43.349 L266.295,40.362 L255.581,37.69 L252.027,40.223 L249.586,39.618 L249.076,39.971 L213.866,31.193 L210.467,33.619 L210.488,30.349 L202.926,28.475 L203.339,28.076 L203.22,24.783 L204.863,23.14 L195.908,20.852 L191.077,25.312 L179.681,22.49 L179.721,21.669 L173.222,20.044 L173.222,19.648 L172.323,19.426 L189.437,7.219 L189.437,2.019 L181.259,0 L173.723,5.376 L173.684,8.13 L172.314,9.12 L167.706,9.689 L159.727,15.377 L159.735,14.884 L142.2,10.521 L140.962,8.801 L136.726,9.123 L136.126,9.186 L135.573,9.739 L135.471,9.912 C135.4,10.033 135.338,10.154 135.285,10.276 L131.535,10.276 L131.195,10.452 C130.063,11.039 128.979,11.72 127.962,12.482 C125.733,14.183 124.694,15.677 124.694,17.186 L124.694,17.814 L124.749,18.31 L124.901,18.95 L125.036,19.221 L125.436,19.814 L125.528,19.906 L125.749,20.214 L126.156,20.476 L126.244,20.564 L127.1,21.053 L129.172,21.827 L130.917,20.465 L131.698,20.582 L133.926,20.702 L134.777,20.63 L142.687,27.317 C142.314,27.615 142.003,27.917 141.752,28.227 L141.648,28.354 L141.606,28.435 L117.739,30.999 L113.514,33.995 L113.45,39.243 L122.454,41.438 L124.432,40.008 L134.489,42.535 L134.489,43.645 L129.298,42.338 L124.569,45.733 L119.614,44.48 L106.856,53.571 L106.824,58.797 L107.445,58.948 L88.233,72.669 L88.168,77.869 L89.201,78.126 L87.188,79.565 L79.044,76.706 L77.236,78.106 L77.108,78.058 L74.146,80.213 L72.287,80.487 L64.481,86.079 L64.454,88.24 L60.963,82.678 L48.963,83.915 L46.704,80.36 L40.421,81.02 L40.375,84.759 L21.283,86.93 L19.085,83.574 L12.429,84.33 L12.387,87.698 L3.017,88.746 L2.994,92.61 L0.259,92.895 L0.197,97.937 L2.075,100.771 L7.252,100.183 L10.709,105.463 L8.477,105.695 L8.445,110.758 L10.294,113.565 L15.603,112.999 L16.792,114.918 L19.755,115.666 L19.755,120.2 L66.087,115.417 L78.527,118.516 L78.527,120.966 L82.976,122.061 L90.179,116.899 L95.737,118.274 L101.234,114.316 L134.622,122.633 L134.636,122.623 L149.235,126.263 L150.972,126.181 L150.954,129.05 L162.594,131.944 L157.086,135.891 L157.086,136.881 L146.869,134.331 L143.842,136.494 L142.389,136.14 L128.725,145.897 L128.692,151.097 L130.794,151.618 L129.22,152.748 L129.188,155.31 L119.052,152.785 L104.234,163.363 L101.377,162.639 L99.211,164.156 L94.865,163.094 L91.363,165.591 L91.363,168.279 L93.071,168.699 L93.071,171.071 L93.335,171.139 L88.39,174.652 L88.326,179.853 L100.689,182.938 L100.689,185.667 L121.197,190.772 L121.788,190.345 C122.529,189.81 123.266,189.279 123.998,188.752 L126.835,189.47 L126.835,192.164 L147.336,197.268 L150.122,195.286 L158.525,197.387 L163.863,193.579 L167.143,194.404 L175.904,188.136 L175.924,184.976 L191.78,173.634 L191.819,170.49 L192.624,170.689 L219.939,151.21 L219.939,146.002 L219.084,145.783 L219.115,145.762 L219.115,140.538 L218.07,140.277 L219.48,139.263 L225.073,140.657 L226.524,139.618 L238.202,142.562 L250.592,133.718 L266.825,137.73 L273.47,132.994 L273.47,132.381 L275.994,130.568 L284.051,132.586 L284.051,133.903 L297.191,137.172 L301.354,136.728 L302.651,135.843 L308.995,135.15 L310.364,135.482 L313.931,135.118 L320.464,130.461 L320.464,128.946 L326.424,124.67 L328.91,124.396 L334.848,120.203 L334.875,115.755 L333.688,113.879 L332.023,113.449 L331.279,112.261 L331.279,110.518 L330.098,108.612 L324.546,107.242 L324.546,106.877 L317,104.957 L315.446,106.078 L291.334,100.073 L291.334,99.97 L294.347,97.823 L294.348,97.823 L297.016,95.914 L320.612,101.823 L323.931,99.447 L334.589,102.097 L351.81,89.805 L351.842,84.607 L345.76,83.094 L342.206,85.626 L337.953,84.571 L348.349,77.126 L348.414,71.928 L346.33,71.409 L351.712,67.597 L361.216,69.964 L364.339,67.687 L364.339,63.276 L362.035,59.606 L364.855,60.314 L373.165,59.436 L375.076,58.054 L375.097,58.059 L413.856,30.368 L413.92,25.169 L326.405,3.375 L326.405,3.375 Z M199.729,109.104 L196.907,108.395 L191.91,111.97 L191.921,110.815 L163.339,103.686 L154.549,109.958 L154.563,107.642 L154.475,107.642 L154.475,107.396 L120.341,98.89 L122.14,97.599 L128.38,96.532 L128.86,97.331 L130.005,96.314 L131.077,96.314 L131.077,95.496 L134.018,93.409 L136.587,93.134 L136.562,97.148 L145.406,96.263 L145.406,94.732 L149.237,94.556 L150.313,94.819 L150.313,95.186 L171.31,100.408 L172.919,99.251 L177.634,100.43 L177.836,100.502 L182.95,101.76 L184.27,103.626 L192.02,105.558 L194.206,106.266 L194.206,106.036 L201.745,107.673 L199.729,109.104 L199.729,109.104 Z M273.325,71.872 L269.926,74.317 L251.046,69.607 L237.195,79.467 L237.195,84.682 L245.392,86.735 L245.016,87 L244.919,87.097 L244.125,87.67 L227.414,83.52 L233.211,79.377 L233.211,74.182 L222.74,71.57 L213.041,78.481 L207.654,77.148 L206.948,77.638 L204.108,76.931 L204.232,76.842 L204.264,71.651 L185.602,66.997 L184.659,67.665 L179.798,66.463 L179.798,64.506 L182.947,65.289 L203.088,50.941 L203.122,48.238 L211.757,50.394 L211.761,50.391 L234.497,56.065 L234.502,56.061 L276.907,66.415 L276.907,66.466 L279.922,67.174 L273.325,71.872 L273.325,71.872 Z M273.325,71.872" class="outline"/>
            </g>
            <g class="label">
                <path d="M23.8,26.639 C22.439,26.111 21.559,25.695 21.559,24.574 C21.559,23.502 22.455,22.877 23.608,22.877 C24.28,22.877 24.84,23.021 25.289,23.181 C25.465,23.229 25.625,23.293 25.801,23.293 C26.089,23.293 26.361,23.053 26.361,22.701 C26.361,22.477 26.265,22.253 25.881,22.093 C25.337,21.869 24.488,21.677 23.736,21.677 C21.559,21.677 20.279,23.005 20.279,24.638 C20.279,26.255 21.383,27.007 22.984,27.631 C25.081,28.447 25.657,29.007 25.657,30.08 C25.657,31.216 24.761,31.969 23.368,31.969 C22.504,31.969 21.687,31.649 21.127,31.249 C20.871,31.073 20.727,30.977 20.487,30.977 C20.183,30.977 19.926,31.217 19.911,31.521 C19.895,31.825 20.055,32.017 20.263,32.161 C20.999,32.658 22.055,33.121 23.304,33.121 C25.497,33.121 26.906,31.825 26.906,30 C26.905,28.335 25.673,27.359 23.8,26.639 L23.8,26.639 Z M14.568,21.677 C13.56,21.677 12.807,21.789 12.295,21.949 C11.895,22.077 11.783,22.317 11.783,22.717 L11.783,32.417 C11.783,32.817 12.039,33.057 12.391,33.057 C12.743,33.057 13.015,32.817 13.015,32.417 L13.015,28.799 C13.543,28.831 13.848,28.847 14.488,28.847 C17.369,28.847 18.89,27.454 18.89,25.181 C18.89,23.165 17.562,21.677 14.568,21.677 L14.568,21.677 Z M14.424,27.679 C13.832,27.679 13.544,27.679 13.015,27.647 L13.015,22.973 C13.463,22.909 14.008,22.845 14.536,22.845 C16.809,22.845 17.625,23.933 17.625,25.214 C17.625,26.526 16.921,27.679 14.424,27.679 L14.424,27.679 Z M8.874,21.741 C8.506,21.741 8.25,21.997 8.25,22.397 L8.25,31.152 C7.417,31.696 6.233,31.921 5.513,31.921 C3.656,31.921 2.52,31.008 2.52,28.943 L2.52,22.397 C2.52,21.997 2.264,21.741 1.912,21.741 C1.56,21.741 1.288,21.997 1.288,22.397 L1.288,29.184 C1.288,31.521 2.745,33.122 5.273,33.122 C7.082,33.122 8.122,32.642 9.051,32.114 C9.403,31.906 9.483,31.634 9.483,31.25 L9.483,22.398 C9.482,21.997 9.226,21.741 8.874,21.741 L8.874,21.741 Z M41.161,23.213 C40.537,21.964 40.041,21.596 39.48,21.596 C38.92,21.596 38.424,21.964 37.799,23.213 C36.903,25.022 36.215,27.295 35.046,31.921 C34.982,32.145 34.95,32.321 34.95,32.433 C34.95,32.817 35.206,33.057 35.558,33.057 C35.846,33.057 36.054,32.881 36.134,32.545 C36.438,31.169 36.742,29.936 37.047,28.879 L41.913,28.879 C42.201,29.936 42.505,31.168 42.826,32.545 C42.906,32.881 43.114,33.057 43.402,33.057 C43.754,33.057 44.01,32.817 44.01,32.433 C44.01,32.321 43.962,32.145 43.914,31.921 C42.777,27.295 42.057,25.022 41.161,23.213 L41.161,23.213 Z M37.367,27.759 C38.103,25.31 38.76,23.789 39.272,22.989 C39.32,22.925 39.368,22.861 39.48,22.861 C39.592,22.861 39.64,22.925 39.688,22.989 C40.2,23.789 40.84,25.31 41.577,27.759 L37.367,27.759 L37.367,27.759 Z M35.562,22.413 C35.562,22.093 35.338,21.805 34.986,21.805 L28.135,21.805 C27.783,21.805 27.543,22.109 27.543,22.413 C27.543,22.717 27.735,23.005 28.135,23.005 L30.888,23.005 L30.888,32.417 C30.888,32.817 31.16,33.057 31.512,33.057 C31.848,33.057 32.12,32.817 32.12,32.417 L32.12,23.005 L34.985,23.005 C35.354,23.005 35.562,22.701 35.562,22.413 L35.562,22.413 Z M55.017,28.879 C54.729,28.463 54.409,28.143 54.04,27.903 C55.465,27.406 56.393,26.414 56.393,24.894 C56.393,22.957 55.081,21.677 52.184,21.677 C51.08,21.677 50.327,21.789 49.815,21.949 C49.415,22.077 49.303,22.317 49.303,22.717 L49.303,32.417 C49.303,32.817 49.575,33.057 49.928,33.057 C50.28,33.057 50.552,32.817 50.552,32.417 L50.552,28.239 L51.8,28.239 C52.968,28.239 53.433,28.718 54.009,29.648 C54.409,30.288 54.825,31.216 55.321,32.609 C55.417,32.865 55.593,33.057 55.929,33.057 C56.265,33.057 56.554,32.817 56.554,32.433 C56.554,32.321 56.522,32.161 56.458,32.001 C56.025,30.848 55.513,29.648 55.017,28.879 L55.017,28.879 Z M51.992,27.023 L50.552,27.023 L50.552,22.989 C51,22.925 51.432,22.861 52.121,22.861 C54.41,22.861 55.13,23.757 55.13,24.942 C55.129,26.591 53.577,27.071 51.992,27.023 L51.992,27.023 Z M61.624,26.639 C60.264,26.111 59.383,25.695 59.383,24.574 C59.383,23.502 60.279,22.877 61.432,22.877 C62.104,22.877 62.664,23.021 63.113,23.181 C63.289,23.229 63.449,23.293 63.625,23.293 C63.913,23.293 64.186,23.053 64.186,22.701 C64.186,22.477 64.09,22.253 63.706,22.093 C63.162,21.869 62.313,21.677 61.561,21.677 C59.384,21.677 58.104,23.005 58.104,24.638 C58.104,26.255 59.208,27.007 60.809,27.631 C62.906,28.447 63.482,29.007 63.482,30.08 C63.482,31.216 62.586,31.969 61.193,31.969 C60.329,31.969 59.512,31.649 58.952,31.249 C58.696,31.073 58.552,30.977 58.312,30.977 C58.008,30.977 57.751,31.217 57.736,31.521 C57.72,31.825 57.88,32.017 58.088,32.161 C58.824,32.658 59.88,33.121 61.129,33.121 C63.322,33.121 64.731,31.825 64.731,30 C64.729,28.335 63.497,27.359 61.624,26.639 L61.624,26.639 Z M46.359,21.741 C46.006,21.741 45.734,21.997 45.734,22.397 L45.734,32.417 C45.734,32.817 45.99,33.057 46.342,33.057 C46.694,33.057 46.966,32.817 46.966,32.417 L46.966,22.397 C46.967,21.997 46.711,21.741 46.359,21.741 L46.359,21.741 Z M46.359,21.741" class="Shape"/>
            </g>
            <g class="background">
                <path d="M328.277,43.574 L323.4,47.058 L318.644,47.573 L315.463,49.876 L315.463,50.481 L317.523,53.723 L307.011,61.236 L294.591,62.599 L273.81,57.419 L276.173,55.631 L276.173,54.995 L273.083,54.207 L273.114,54.207 L273.114,54.177 L273.266,53.874 L273.356,53.753 L273.72,52.844 L273.749,52.693 L273.84,52.39 L273.901,51.996 L273.931,51.118 C273.931,50.633 273.8,50.199 273.537,49.815 C273.033,49.149 271.912,48.351 270.175,47.422 C268.782,46.695 267.904,46.28 267.539,46.179 L262.843,45.452 L262.268,46.179 L255.452,45.725 L251.817,46.058 L249.393,46.391 L248.604,45.906 L247.787,46.239 L247.787,46.875 L248.453,47.269 L246.575,47.966 L240.456,46.451 L239.816,47.091 L232.087,45.159 L233.576,44.065 L233.576,43.427 L222.458,41.027 L221.365,40.48 L217.811,39.6 L210.611,40.329 L207.969,42.152 L193.328,38.477 L189.926,33.131 L181.27,30.944 L180.419,29.638 L182.211,28.362 L187.284,29.577 L190.564,27.238 L190.564,26.6 L175.438,22.834 L175.013,22.075 L172.887,22.196 L171.065,21.74 L171.642,21.315 L171.642,20.677 L168.088,19.797 L166.387,21.012 L157.791,18.794 C155.827,19.847 153.974,20.495 152.232,20.738 L149.377,21.012 L146.674,20.738 L145.246,20.313 C144.051,19.868 142.583,19.027 140.842,17.792 L138.138,15.696 L137.44,15.058 L136.802,14.268 L136.893,14.086 L138.26,12.324 L138.26,11.686 L132.064,11.686 C131.132,12.152 130.14,12.78 129.087,13.569 C127.346,14.905 126.464,16.05 126.444,17.002 L126.444,17.64 L126.474,17.913 L126.565,18.217 L126.626,18.338 L126.808,18.611 L126.96,18.763 L127.051,18.884 L127.324,19.066 L127.385,19.127 L127.932,19.431 L128.266,19.552 L128.327,19.582 L129.056,19.856 L130.666,18.61 L131.304,18.731 L131.334,18.731 L132.094,18.853 L132.124,18.853 L134.038,18.944 L135.435,18.822 L145.428,27.266 C144.294,27.853 143.514,28.431 143.089,28.997 C142.785,29.422 142.633,29.868 142.633,30.334 L142.633,30.971 C142.633,31.721 143.008,32.419 143.757,33.067 L144.061,33.067 L144.122,33.036 L151.018,32.338 L158.794,34.282 L163.714,30.789 L163.714,30.151 L157.457,28.602 L154.906,24.076 L158.581,21.464 L176.958,26.02 L172.736,29.058 L172.736,29.665 L174.285,32.064 L172.523,32.246 L167.208,36.013 L167.208,36.651 L168.362,38.474 L145.945,54.482 L140.113,55.241 L136.468,57.853 L136.468,58.46 L139.232,62.956 L142.907,63.867 L149.195,72.706 L147.596,73.849 L144.699,73.151 L139.352,76.938 L139.352,77.563 L139.262,77.627 L139.368,77.653 L139.783,78.1 L136.794,80.259 L108.696,83.215 L108.298,82.684 L107.301,83.215 L99.862,83.979 L96.441,86.437 L95.378,86.171 L91.957,88.628 L90.695,88.296 L87.341,90.72 L86.178,90.421 L82.757,92.813 L81.76,92.547 L74.786,97.528 L71.93,96.797 L69.805,93.211 L64.956,93.809 L64.956,94.506 L71.831,105.4 L71.931,105.433 L71.931,105.466 L72.163,105.566 L72.396,105.632 L72.528,105.698 L72.562,105.731 L73.392,106.03 L73.558,106.063 L74.122,106.262 L74.156,106.262 L74.388,106.362 L76.945,107.026 L77.078,107.026 L77.144,107.059 L78.339,107.292 L78.406,107.292 L78.505,107.325 L79.568,107.491 L79.734,107.491 L80.896,107.657 L80.962,107.657 L81.161,107.69 L82.058,107.756 L82.257,107.79 L82.788,107.823 L84.88,107.923 L85.445,107.957 L86.574,107.957 L86.806,107.99 L88.633,107.99 L88.866,107.957 L89.929,107.957 L90.46,107.923 L90.66,107.89 L92.121,107.791 L92.254,107.791 L92.354,107.757 L92.586,107.724 L92.752,107.724 L93.117,107.658 L93.15,107.658 L91.489,109.95 L80.396,117.854 L80.396,118.552 L83.186,119.216 L94.113,111.411 L96.903,107.425 L98.265,106.728 L100.889,104.802 L117.96,108.821 L117.562,109.086 L117.562,109.784 L125.699,111.777 L126.363,111.312 L144.331,115.729 L146.456,115.996 L149.264,116.704 L148.174,117.944 L167.256,122.707 L173.472,122.119 L174.771,121.16 L196.853,126.697 L197.843,128.089 L189.245,134.275 L180.586,134.738 L177.617,136.84 L177.617,137.49 L179.472,137.985 L182.132,142.068 L154.7,161.613 L149.814,162.138 L127.145,156.51 L126.187,157.19 L118.022,155.148 L104.786,164.582 L101.322,163.716 L99.127,165.261 L94.735,164.179 L92.446,165.818 L92.446,166.466 L96.002,167.333 L94.178,168.663 L94.178,169.311 L100.363,170.858 L119.166,157.404 L165.495,168.909 L177.896,160.064 L177.896,159.414 L177.556,158.455 L194.844,146.147 L194.844,145.497 L194.72,145.126 L203.813,138.631 L203.813,138.013 L203.689,137.826 L239.441,112.281 L261.862,109.961 L263.099,110.27 L266.687,107.704 L265.081,107.364 L267.777,105.426 L267.808,104.79 L266.323,104.427 L266.142,104.184 L305.189,76.375 L309.309,75.708 L315.308,71.376 L315.308,70.74 L314.884,69.437 L331.121,57.804 L339.391,56.926 L344.147,53.533 L344.147,52.897 L342.965,51.534 L343.813,50.928 L349.691,52.382 L352.659,50.261 L352.659,49.625 L328.277,43.574 L328.277,43.574 Z M206.011,122.09 L203.847,122.339 L202.177,123.575 L199.64,123.884 L158.074,113.583 L159.512,111.946 L157.287,111.381 L153.7,112.112 L148.254,110.75 L143.305,111.248 L139.386,110.286 L138.888,108.957 L139.719,108.359 L139.752,107.662 L138.158,107.197 L138.158,106.832 L136.464,106.4 L135.102,107.429 L132.412,107.363 C131.793,107.208 131.383,107.03 131.183,106.832 L121.85,104.474 L114.576,104.241 L106.273,102.182 L105.808,101.584 L116.17,94.178 L116.17,93.514 L114.343,93.015 L113.281,91.919 L114.775,90.856 L122.48,90.225 L123.876,89.86 L147.49,87.369 L149.085,86.24 L166.633,84.382 L163.415,88.24 L163.482,88.24 L193.931,95.852 L195.453,97.848 L204.046,99.945 L209.121,99.404 L213.417,100.521 L219.169,101.57 L229.656,104.202 L229.268,104.524 L229.67,105.205 L206.011,122.09 L206.011,122.09 Z M292.683,69.232 L290.593,70.686 L290.593,71.322 L291.623,72.716 L258.967,96.011 L240.095,97.95 L236.943,97.162 L236.923,97.179 L220.455,93.078 L219.779,92.198 L207.26,89.052 L204.554,89.289 L171.94,81.237 L171.632,80.793 L172.432,79.83 L167.001,78.523 L164.019,74.259 L165.052,73.56 L165.052,72.922 L158.156,61.927 L160.252,60.531 L160.252,59.893 L159.28,58.314 L181.545,42.428 L190.232,41.456 L204.568,45.04 L205.115,44.645 L207.909,45.344 L208.396,44.979 L211.068,45.647 L211.494,45.374 L218.177,47.045 L218.177,47.379 L226.408,49.383 L228.444,47.955 L237.161,50.112 L237.808,49.465 L244.879,51.24 L254.725,50.665 L257.967,48.332 L258.33,48.332 L258.481,48.362 L258.602,48.362 L260.723,48.817 L260.753,48.847 L262.965,49.605 L264.54,49.393 L264.57,49.393 L264.631,49.423 L264.661,49.423 L264.752,49.484 L264.783,49.484 L264.903,49.545 L264.935,49.575 L265.085,49.606 L265.146,49.666 L265.267,49.727 L265.389,49.757 L265.753,49.939 L265.873,50.03 L266.147,50.151 L266.662,50.484 L266.753,50.575 L266.995,50.726 L267.117,50.848 L267.208,50.909 L267.298,51.03 L267.36,51.091 L267.48,51.242 L267.602,51.485 L267.663,51.727 C267.441,52.898 266.391,54.12 264.512,55.393 L264.512,56.029 L265.269,57.423 L264.057,58.271 L264.027,58.907 L291.291,65.633 L292.867,67.723 L292.683,69.232 L292.683,69.232 Z M292.683,69.232" class="walkway"/>
                <path d="M412.236,29.556 C399.761,38.48 387.278,47.395 374.782,56.3 L373.535,55.996 L373.535,57.183 L372.622,57.852 L365.016,58.643 L358.535,57.03 L356.589,58.43 L360.088,59.282 L362.826,63.633 L362.826,66.797 L360.94,68.166 L350.321,65.519 L350.321,66.615 L343.415,71.513 L321.265,66.006 L321.296,62.841 L331.944,55.235 L340.189,54.383 L343.353,52.132 L343.383,49.241 L344.204,48.663 L339.762,47.567 L336.932,48.024 L336.141,46.686 L329.174,44.921 L325.919,47.233 L325.402,47.111 L325.402,47.598 L324.338,48.389 L319.622,48.876 L317.827,50.154 L318.801,51.675 L318.771,54.84 L307.878,62.598 L306.235,62.781 L306.387,63.055 L306.356,66.219 L304.957,67.254 L296.073,68.318 L294.582,66.067 L294.582,63.845 L292.026,63.206 L293.882,65.306 L293.852,68.47 L293.456,70.631 L292.817,71.087 L292.787,73.856 L285.607,78.998 L285.029,78.846 L285.029,79.393 L259.594,97.527 L253.235,98.196 L253.145,98.226 L242.192,99.352 L242.161,102.029 L242.131,102.06 L242.131,102.122 L242.101,102.212 L242.01,102.303 L241.98,102.364 L241.889,102.455 L241.858,102.455 L241.828,102.485 L241.858,102.515 L241.95,102.819 L241.95,106.014 L241.92,106.075 L241.92,106.136 L241.89,106.227 L241.859,106.227 L241.798,106.349 L241.768,106.349 L241.645,106.471 L241.615,106.471 L241.493,106.532 L241.432,106.593 L241.28,106.654 L241.25,106.685 L240.976,106.775 L240.945,106.775 L240.702,106.867 L240.672,106.867 L240.398,106.928 L240.368,106.959 L240.276,106.959 L240.215,106.989 L240.184,106.959 L240.184,106.989 L235.986,107.446 L233.582,103.642 L233.613,100.478 L235.256,99.322 L238.421,98.987 L213.411,92.75 L212.742,91.959 L200.602,88.947 L198.716,89.038 L198.686,89.099 L198.595,89.069 L198.29,89.069 L198.29,88.978 L169.478,81.797 L169.295,81.553 L169.295,83.074 L166.678,85.265 L163.119,84.322 L163.089,82.04 L166.496,82.892 L168.838,80.853 L167.165,78.48 L167.196,75.316 L170.177,74.951 L180.065,67.923 L185.451,69.262 L186.394,68.592 L203.127,72.76 L203.097,75.924 L200.207,78.024 L202.975,78.693 L203.675,78.206 L207.691,79.21 L208.391,78.724 L213.776,80.063 L223.452,73.156 L232.001,75.286 L232.001,78.45 L224.121,84.078 L244.78,89.22 L246.21,88.216 L246.362,88.064 L249.435,85.904 L239.121,83.318 L239.121,80.153 L251.687,71.208 L270.52,75.894 L273.927,73.46 L274.505,73.612 L274.505,73.034 L283.906,66.341 L278.734,65.124 L278.734,65.094 L235.987,54.658 L235.987,53.258 L234.526,54.293 L212.802,48.877 L212.802,47.934 L211.829,48.634 L195.764,44.618 L195.035,45.135 L202.002,46.9 L201.972,50.064 L183.104,63.51 L170.417,60.346 L168.957,61.381 L178.723,63.815 L178.723,66.979 L165.64,76.289 L164.302,74.311 L164.302,71.725 L158.247,62.019 L158.277,58.855 L159.342,58.063 L159.372,55.325 L182.13,39.078 L190.953,38.135 L193.752,38.835 L190.527,33.724 L181.796,31.534 L180.639,29.709 L180.67,26.544 L182.891,24.962 L209.331,31.564 L209.3,34.729 L200.994,40.662 L205.284,41.727 L205.953,41.24 L206.075,41.27 L206.105,38.928 C208.945,36.919 211.774,34.902 214.594,32.873 L249.704,41.635 L250.221,41.27 L252.655,41.879 L256.215,39.353 L265.009,41.544 L264.978,44.709 L263.396,46.93 L263.548,46.991 L263.609,47.052 L265.161,46.839 L265.313,46.9 C267.382,47.752 268.406,48.624 268.386,49.516 L268.356,52.833 L268.325,53.015 L268.325,53.076 L268.295,53.137 L268.204,53.411 L268.204,53.472 L268.173,53.502 L267.961,53.898 L267.961,53.959 L267.931,53.99 L267.565,54.507 L267.565,54.537 L266.957,55.237 L266.927,55.237 L266.562,55.602 L266.289,55.815 L266.289,56.758 L273.469,58.552 L273.469,55.54 L273.134,55.449 L273.164,52.285 L273.195,52.224 L273.774,51.281 L273.896,51.007 L273.135,50.215 L272.891,50.063 L272.739,49.941 L272.739,49.272 L272.01,49.455 L271.919,49.394 L269.911,48.299 L269.82,48.269 L269.029,47.904 L268.937,47.873 L268.664,47.752 L268.634,47.721 L268.116,47.508 L267.904,47.447 L267.904,44.283 L270.003,42.762 L273.653,43.705 L273.623,44.131 L277.031,44.983 L276.999,46.048 L283.389,47.63 L283.389,48.36 L284.333,47.66 L292.973,49.82 L292.942,52.984 L292.121,53.592 L298.328,55.144 L298.358,53.227 L314.483,41.727 L315,41.849 L315,41.393 L289.382,35.003 L289.412,31.839 L326.865,5.126 L412.269,26.394 L412.236,29.556 M346.884,76.197 L334.47,85.081 L313.142,79.757 L312.99,79.848 L318.831,81.308 L318.801,84.198 L328.933,86.723 L331.975,84.533 L342.623,87.18 L346.183,84.655 L350.351,85.69 L350.32,88.854 L334.378,100.233 L323.759,97.586 L320.443,99.96 L296.894,94.057 L294.217,95.974 L293.699,95.852 L293.669,96.369 L289.987,98.985 L289.987,101.115 L315.939,107.596 L317.492,106.47 L323.12,107.9 L323.12,108.265 L329.235,109.786 L329.843,110.76 L329.843,112.494 L331.151,114.593 L332.824,115.02 L333.432,115.993 L333.402,119.158 L328.473,122.657 L325.978,122.931 L319.042,127.89 L319.042,129.411 L313.535,133.336 L310.644,133.64 L309.275,133.306 L302.277,134.067 L300.999,134.95 L297.499,135.314 L285.847,132.424 L285.847,131.115 L275.928,128.62 L272.156,131.328 L272.156,131.937 L266.771,135.77 L249.581,131.51 L249.581,132.484 L238.233,140.577 L226.58,137.656 L225.119,138.691 L219.552,137.292 L214.805,140.699 L217.939,141.491 L217.939,144.655 L215.778,146.176 L218.76,146.937 L218.76,150.101 L192.747,168.661 L190.617,168.114 L189.4,168.966 L190.708,169.3 L190.678,172.465 L174.857,183.783 L174.827,186.947 L167.342,192.302 L164.056,191.481 L158.732,195.284 L150.365,193.184 L147.566,195.162 L129.007,190.537 L129.007,187.859 L124.291,186.673 L121.491,188.681 L102.931,184.056 L102.931,181.349 L90.609,178.275 L90.64,175.111 L120,154.179 L131.866,157.129 L131.866,156.551 L131.349,156.43 L131.379,153.265 L135.061,150.619 L130.862,149.585 L130.892,146.42 C135.03,143.479 139.158,140.528 143.275,137.566 L144.735,137.931 L147.747,135.771 L158.822,138.54 L159.187,138.297 L159.187,136.441 L166.793,130.995 L153.071,127.587 L153.101,124.423 L153.284,124.302 L149.937,124.454 L135.637,120.893 L135.637,120.163 L134.877,120.711 L102.17,112.557 L102.17,111.98 L96.085,116.361 L90.213,114.901 L90.213,112.772 L83.306,117.7 L66.937,113.623 L22.182,118.248 L22.182,115.083 L22.882,114.596 L22.76,114.383 L18.653,113.349 L17.254,111.128 L11.93,111.707 L10.865,110.093 L10.895,106.929 L14.272,106.564 L8.89,98.347 L3.718,98.925 L2.653,97.313 L2.683,94.149 L5.877,93.814 L5.421,93.175 L5.452,90.011 L14.914,88.946 L14.792,88.763 L14.822,85.598 L19.173,85.112 L21.364,88.459 L43.057,85.994 L42.753,85.477 L42.783,82.312 L46.708,81.887 L48.959,85.446 L60.916,84.198 L73.329,103.914 L77.163,105.192 L82.457,106.044 L82.579,106.044 C85.297,106.308 88.177,106.328 91.22,106.105 L93.349,105.861 L93.319,109.026 L92.651,110 L93.442,109.422 L95.937,106.409 L95.937,105.801 L97.246,105.132 L99.741,103.337 L104.092,104.433 L103.635,103.794 L103.665,100.629 L110.937,95.426 L110.571,95 L110.571,91.836 L112.397,90.558 L119.608,89.797 L120.46,90.922 L120.46,89.705 L132.904,88.366 L133.148,89.005 L133.117,92.169 L129.618,94.664 L129.618,94.725 L129.526,94.725 L129.344,94.877 L129.283,94.786 L122.529,95.942 L121.829,94.908 L121.799,95.972 L116.809,99.562 L152.955,108.567 L152.955,109.146 L153.046,109.146 L153.015,112.34 L151.707,113.253 L148.147,113.983 L143.036,112.705 L138.898,113.223 L139.78,113.435 L139.78,114.774 L141.423,113.587 L158.796,117.938 L158.796,120.342 L161.321,118.547 L167.528,120.099 L173.43,119.49 L174.251,118.912 L155.6,114.257 L155.631,111.092 L156.088,111.214 L156.088,111.031 L163.816,105.554 L175.378,108.414 L175.378,108.719 L175.865,108.384 L190.317,111.975 L190.286,114.104 L192.416,114.651 L192.508,114.59 L192.508,113.373 L197.194,110.026 L200.693,110.909 L200.693,110.24 L204.01,107.897 L207.965,108.871 L207.934,110.514 L209.729,109.237 L209.729,107.168 L209.121,107.624 L192.6,104.034 L192.6,104.065 L192.417,104.004 L185.207,102.209 L184.294,100.931 L184.294,100.445 L178.361,98.984 L178.087,98.893 L172.61,97.524 L170.998,98.68 L151.952,93.934 L151.952,93.57 L149.457,92.962 L143.92,93.206 L143.92,94.819 L138.23,95.397 L138.26,92.233 L138.595,91.989 L137.955,90.924 L137.986,87.76 L140.998,87.425 L142.185,89.464 L142.215,87.456 L143.767,86.33 L143.828,86.33 L162.083,84.413 L189.8,91.32 L191.139,93.084 L198.593,94.94 L203.096,94.484 L207.234,95.487 L207.234,98.682 L206.595,99.108 L207.964,99.473 L212.314,96.37 L227.527,100.173 L229.535,103.367 L229.505,106.531 L205.835,123.448 L203.523,123.6 L201.789,124.848 L199.143,125.122 L197.196,124.635 L198.017,125.913 L197.987,129.078 L189.468,135.132 L189.468,135.436 L189.042,135.436 L189.012,135.466 L180.645,135.831 L180.28,136.105 L182.501,139.573 L182.593,139.603 L182.593,139.695 L182.623,139.786 L182.593,142.95 L182.379,142.889 L155.175,162.3 L153.41,162.483 L165.611,165.525 L177.173,157.279 L177.173,155.454 L191.047,145.597 L191.199,145.444 L194.059,143.405 L194.09,142.311 L195.672,141.185 L197.345,141.581 L197.345,139.999 L202.791,136.104 L202.791,135.191 L221.046,122.17 L222.05,122.443 L222.05,121.47 L228.074,117.15 L228.5,117.271 L228.5,116.876 L238.327,109.848 L260.537,107.535 L261.664,107.809 L266.227,104.524 L266.257,102.121 L282.625,90.437 L283.143,90.559 L283.143,90.041 L285.82,88.155 L286.003,88.003 L301.489,76.989 L302.889,77.324 L302.889,75.955 L305.84,73.886 L309.886,73.247 C311.712,71.969 313.527,70.681 315.332,69.383 L315.332,67.1 L317.34,65.67 L346.913,73.033 L346.884,76.197 M173.399,10.661 L175.742,8.988 L175.772,6.25 L182.07,1.747 L188.338,3.298 L188.338,6.463 L168.835,20.367 L168.774,20.428 L178.571,22.892 L178.541,26.056 L175.042,28.551 L175.59,29.434 L175.56,32.598 L173.308,32.811 L169.475,35.58 L169.536,35.671 L169.506,38.835 L153.593,50.184 L150.672,49.423 L150.642,52.283 L146.717,55.082 L140.844,55.874 L138.654,57.425 L139.475,58.734 L139.475,58.764 L140.054,59.677 L143.705,60.59 L150.368,69.93 L150.338,73.094 L148.269,74.554 L144.374,75.162 L135.946,81.186 L135.915,82.525 L132.781,84.776 L106.707,87.514 L105.855,86.175 L105.855,87.483 L98.948,88.213 L95.754,90.495 L94.78,90.252 L91.646,92.473 L90.49,92.199 L87.417,94.39 L86.352,94.147 L83.583,96.094 L86.534,96.246 C87.812,96.55 88.441,97.118 88.421,97.95 L88.421,98.102 L88.39,98.193 L88.39,98.223 L88.421,98.101 L88.421,101.143 L88.39,101.234 L88.39,101.356 L88.36,101.387 L88.36,101.478 L88.299,101.63 L88.299,101.66 L88.117,101.994 L87.995,102.147 L87.934,102.268 L87.782,102.421 L87.721,102.511 L87.387,102.815 L87.357,102.815 L87.022,103.089 L85.592,103.881 L84.132,104.399 L83.98,104.429 L83.462,104.581 L82.124,104.793 L81.181,104.855 L80.542,104.855 L80.055,104.793 L80.025,104.793 L79.325,104.702 L79.142,104.641 L79.081,104.641 L78.655,104.489 L78.533,104.459 L78.015,104.186 L77.985,104.156 L77.742,103.973 L77.468,103.699 L77.376,103.547 L77.285,103.273 L77.255,103.212 L77.255,99.774 L77.285,99.866 L77.285,99.683 L75.916,100.626 L73.086,99.926 L66.758,89.916 L66.788,86.752 L73.634,81.854 L75.49,81.58 L78.076,79.694 L87.082,81.945 L93.289,77.503 L103.116,79.968 L104,81.37 L104.03,80.031 L104.152,79.94 L90.46,76.532 L90.491,73.368 L111.788,58.156 L109.05,57.487 L109.081,54.322 L118.938,47.294 L119.121,47.142 L120.551,46.138 L125.51,47.386 L130.226,44.009 L138.623,46.108 L138.653,43.339 L136.645,42.821 L136.645,41.269 L124.718,38.287 L122.74,39.717 L115.682,37.983 L115.712,34.789 L118.937,32.507 L151.735,28.978 L159.433,30.895 L160.863,29.861 L157.973,29.131 L155.143,24.141 L155.143,20.946 L155.661,20.612 L153.47,21.221 L153.379,21.251 L151.614,21.525 L151.584,21.525 L150.854,21.586 L150.702,21.586 L150.52,21.616 L149.029,21.586 L148.755,21.556 L148.664,21.556 L147.842,21.434 L147.781,21.403 L147.751,21.403 L147.447,21.342 L147.416,21.342 L147.112,21.281 L146.472,21.098 L146.259,21.007 L145.772,20.855 L145.164,20.581 L145.072,20.551 L144.981,20.49 L144.859,20.46 L144.098,20.095 L141.725,18.696 L141.664,18.635 L141.572,18.574 L141.511,18.544 L139.016,16.597 L137.678,15.441 C137.354,15.096 137.191,14.781 137.191,14.498 L137.222,11.364 C137.222,11.161 137.283,10.958 137.404,10.755 L137.434,10.725 L140.781,10.482 L141.846,11.942 L158.671,16.141 L158.64,18.453 L159.218,18.057 L160.891,18.483 L160.891,16.87 L168.802,11.242 L173.399,10.661 M82.793,96.217 L82.306,96.095 L81.85,96.43 L82.793,96.217 M77.286,100.05 L77.316,100.08 L77.316,100.142 L77.316,100.112 L77.316,100.081 L77.286,100.02 L77.286,100.05 M202.425,27.122 L198.956,30.469 L193.479,28.34 L193.357,25.784 L202.302,23.654 L202.425,27.122" class="wall"/>
            </g>
            <g class="ceilings">
                <path class="unit" d="M274.715,102.271 L278.305,99.807 M268.539,100.75 L273.041,97.556" id="2001"/>
                <path class="unit" d="M164.211,84.899 L179.971,88.824 L171.087,95.182 L155.327,91.258 L164.211,84.899 L164.211,84.899 Z M164.211,84.899" id="2002"/>
                <path class="unit" d="M185.752,90.284 L178.48,95.456 L173.004,94.087 L180.275,88.915 L185.752,90.284 L185.752,90.284 Z M185.752,90.284" id="2003"/>
                <path class="unit" d="M189.707,91.258 L191.045,92.962 L185.204,97.13 L178.785,95.548 L186.056,90.345 L189.707,91.258 L189.707,91.258 Z M189.707,91.258" id="2004"/>
                <path class="unit" d="M195.092,94.026 L187.698,99.29 L185.751,98.803 L184.899,97.647 L191.288,93.083 L195.092,94.026 L195.092,94.026 Z M195.092,94.026" id="2005"/>
                <path class="unit" d="M198.622,94.909 L199.23,95.882 L192.688,100.537 L188.002,99.381 L195.396,94.117 L198.622,94.909 L198.622,94.909 Z M198.622,94.909" id="2006"/>
                <path class="unit" d="M206.988,95.396 L198.165,101.694 L192.993,100.599 L199.596,95.883 L198.988,94.91 L203.248,94.484 L206.988,95.396 L206.988,95.396 Z M206.988,95.396" id="2007"/>
                <path class="unit" d="M224.179,99.29 L221.927,100.903 L216.573,101.481 L215.143,102.485 L212.739,101.877 L218.398,97.861 L224.179,99.29 L224.179,99.29 Z M224.179,99.29" id="2008"/>
                <path class="unit" d="M218.093,97.769 L209.209,104.098 L198.499,101.754 L203.337,98.286 L208.327,99.503 L212.647,96.43 L218.093,97.769 L218.093,97.769 Z M218.093,97.769" id="2009"/>
                <path class="unit" d="M170.63,74.919 L180.396,67.951 L185.508,69.229 L171.969,78.874 L169.991,78.387 L167.831,75.253 L170.63,74.919 L170.63,74.919 Z M170.63,74.919" id="2010"/>
                <path class="unit" d="M194.301,70.538 L179.85,80.852 L172.274,78.966 L186.726,68.652 L194.301,70.538 L194.301,70.538 Z M194.301,70.538" id="2011"/>
                <path class="unit" d="M194.605,70.599 L202.88,72.668 L188.428,82.982 L180.153,80.913 L194.605,70.599 L194.605,70.599 Z M194.605,70.599" id="2012"/>
                <path class="unit" d="M196.979,77.171 L201.908,78.388 L193.663,84.291 L188.704,83.043 L196.979,77.171 L196.979,77.171 Z M196.979,77.171" id="2013"/>
                <path class="unit" d="M193.967,84.351 L202.212,78.479 L203.307,78.753 L204.007,78.236 L207.748,79.179 L198.773,85.568 L193.967,84.351 L193.967,84.351 Z M193.967,84.351" id="2014"/>
                <path class="unit" d="M213.834,80.031 L204.828,86.451 L200.903,85.477 L199.199,85.568 L208.752,78.753 L213.834,80.031 L213.834,80.031 Z M213.834,80.031" id="2015"/>
                <path class="unit" d="M223.813,73.185 L231.754,75.163 L213.073,88.489 L205.132,86.51 L223.813,73.185 L223.813,73.185 Z M223.813,73.185" id="2016"/>
                <path class="unit" d="M220.893,83.225 L234.523,86.603 L226.339,92.444 L213.925,89.34 L213.317,88.61 L220.893,83.225 L220.893,83.225 Z M220.893,83.225" id="2017"/>
                <path class="unit" d="M239.483,87.85 L231.329,93.692 L226.643,92.505 C229.382,90.578 232.11,88.641 234.828,86.693 L239.483,87.85 L239.483,87.85 Z M239.483,87.85" id="2018"/>
                <path class="unit" d="M244.807,89.189 L236.653,95 L231.632,93.753 L239.786,87.941 L244.807,89.189 L244.807,89.189 Z M244.807,89.189" id="2019"/>
                <path class="unit" d="M139.566,13.187 L138.014,11.818 C137.75,11.453 137.72,11.078 137.923,10.693 L140.753,10.48 L141.788,11.879 L145.226,12.762 L141.971,15.074 L139.566,13.187 L139.566,13.187 Z M139.566,13.187" id="2020"/>
                <path class="unit" d="M145.529,12.822 L152.527,14.587 L147.872,17.903 L147.537,17.842 L145.712,17.173 C144.637,16.768 143.461,16.118 142.183,15.226 L145.529,12.822 L145.529,12.822 Z M145.529,12.822" id="2021"/>
                <path class="unit" d="M158.369,16.017 C157.293,16.605 156.057,17.101 154.657,17.508 C152.304,18.177 150.144,18.329 148.177,17.964 L152.832,14.648 L158.369,16.017 L158.369,16.017 Z M158.369,16.017" id="2022"/>
                <path class="unit" d="M188.094,3.207 L178.632,9.931 L178.784,9.992 L175.65,9.201 L175.802,9.231 L177.536,8.014 L176.349,6.128 L182.404,1.807 L188.094,3.207 L188.094,3.207 Z M188.094,3.207" id="2023"/>
                <path class="unit" d="M175.711,9.292 L178.541,10.022 L174.738,12.73 L169.079,11.3 L169.231,11.209 L173.856,10.631 L175.711,9.292 L175.711,9.292 Z M175.711,9.292" id="2024"/>
                <path class="unit" d="M174.586,12.852 L168.927,16.868 L163.268,15.438 L168.927,11.421 L174.586,12.852 L174.586,12.852 Z M174.586,12.852" id="2025"/>
                <path class="unit" d="M168.774,16.99 L167.253,18.055 L161.594,16.656 L163.115,15.561 L168.774,16.99 L168.774,16.99 Z M168.774,16.99" id="2026"/>
                <path class="unit" d="M161.929,29.434 L170.326,31.502 L167.953,33.206 L169.383,35.488 L167.223,37.009 L143.248,31.046 L127.823,32.658 L122.833,36.218 L116.414,34.606 L119.395,32.477 L151.889,28.978 L159.769,30.956 L161.929,29.434 L161.929,29.434 Z M161.929,29.434" id="2027"/>
                <path class="unit" d="M159.556,18.085 L178.328,22.77 L173.491,26.239 L175.377,29.159 L173.308,29.372 L170.509,31.381 L162.082,29.281 L164.851,27.302 L158.523,25.719 L155.724,20.823 L159.556,18.085 L159.556,18.085 Z M159.556,18.085" id="2028"/>
                <path class="unit" d="M163.176,39.9 L136.554,33.267 L128.218,34.028 L126.575,35.215 L125.206,34.881 L128.096,32.782 L143.217,31.23 L167.04,37.163 L163.176,39.9 L163.176,39.9 Z M163.176,39.9" id="2029"/>
                <path class="unit" d="M160.195,42.03 L148.055,39.018 L143.309,39.383 L141.148,38.866 L139.536,39.992 L137.376,39.474 L138.988,38.318 L126.879,35.276 L128.461,34.15 L136.494,33.42 L162.994,40.023 L160.195,42.03 L160.195,42.03 Z M160.195,42.03" id="2030"/>
                <path class="unit" d="M156.939,44.342 L139.84,40.083 L141.3,39.048 L143.247,39.535 L147.994,39.17 L160.012,42.151 L156.939,44.342 L156.939,44.342 Z M156.939,44.342" id="2031"/>
                <path class="unit" d="M153.714,46.654 L139.354,43.064 L142.396,40.873 L156.787,44.463 L153.714,46.654 L153.714,46.654 Z M153.714,46.654" id="2032"/>
                <path class="unit" d="M150.397,49.028 L146.716,51.644 L140.996,52.405 L119.638,47.081 L120.886,46.198 L125.845,47.415 L130.561,44.068 L150.397,49.028 L150.397,49.028 Z M150.397,49.028" id="2033"/>
                <path class="unit" d="M130.834,59.372 L109.78,54.108 L119.455,47.202 L140.723,52.496 L137.133,55.082 L139.263,58.49 L130.834,59.372 L130.834,59.372 Z M130.834,59.372" id="2034"/>
                <path class="unit" d="M139.354,58.642 L139.901,59.524 L131.595,60.345 L131.047,59.524 L139.354,58.642 L139.354,58.642 Z M139.354,58.642" id="2035"/>
                <path class="unit" d="M143.644,60.528 L150.186,69.747 L149.699,70.112 L135.429,66.552 L131.686,60.467 L140.083,59.646 L143.644,60.528 L143.644,60.528 Z M143.644,60.528" id="2036"/>
                <path class="unit" d="M133.725,64.483 L135.125,66.643 L149.516,70.233 L148.269,71.115 L144.496,71.693 L134.334,69.168 L131.322,64.726 L133.725,64.483 L133.725,64.483 Z M133.725,64.483" id="2037"/>
                <path class="unit" d="M194.301,27.791 L190.832,30.255 L182.313,28.125 L181.248,26.421 L183.226,25.022 L194.301,27.791 L194.301,27.791 Z M194.301,27.791" id="2038"/>
                <path class="unit" d="M194.605,27.852 L209.057,31.473 L200.933,37.285 L194.423,35.642 L191.107,30.348 L194.605,27.852 L194.605,27.852 Z M194.605,27.852" id="2039"/>
                <path class="unit" d="M230.263,36.736 L227.038,39.048 L223.691,38.227 L226.916,35.915 L230.263,36.736 L230.263,36.736 Z M230.263,36.736" id="2040"/>
                <path class="unit" d="M222.383,34.789 L219.463,36.888 L218.854,36.706 L216.085,37.01 L215.385,35.823 L218.275,33.754 L222.383,34.789 L222.383,34.789 Z M222.383,34.789" id="2041"/>
                <path class="unit" d="M222.688,34.85 L225.244,35.489 L222.323,37.588 L219.767,36.949 L222.688,34.85 L222.688,34.85 Z M222.688,34.85" id="2042"/>
                <path class="unit" d="M226.643,35.854 L223.449,38.105 L222.597,37.679 L225.548,35.579 L226.643,35.854 L226.643,35.854 Z M226.643,35.854" id="2043"/>
                <path class="unit" d="M217.972,33.693 L215.021,35.793 L215.751,37.04 L211.4,37.497 L208.936,39.261 L206.776,38.744 L214.929,32.933 L217.972,33.693 L217.972,33.693 Z M217.972,33.693" id="2044"/>
                <path class="unit" d="M233.489,37.558 L230.63,39.596 L227.739,38.866 L230.568,36.827 L233.489,37.558 L233.489,37.558 Z M233.489,37.558" id="2045"/>
                <path class="unit" d="M237.444,38.531 L234.585,40.57 L230.934,39.657 L233.793,37.618 L237.444,38.531 L237.444,38.531 Z M237.444,38.531" id="2046"/>
                <path class="unit" d="M241.125,39.444 L236.075,43.034 L232.698,42.213 L237.748,38.623 L241.125,39.444 L241.125,39.444 Z M241.125,39.444" id="2047"/>
                <path class="unit" d="M245.233,40.478 L240.212,44.068 L236.378,43.125 L241.429,39.535 L245.233,40.478 L245.233,40.478 Z M245.233,40.478" id="2048"/>
                <path class="unit" d="M249.25,41.482 L244.229,45.072 L240.518,44.159 L245.538,40.569 L249.25,41.482 L249.25,41.482 Z M249.25,41.482" id="2049"/>
                <path class="unit" d="M218.915,39.292 L226.339,41.147 L224.057,42.82 L214.23,40.386 L215.689,39.324 L218.915,39.292 L218.915,39.292 Z M218.915,39.292" id="2050"/>
                <path class="unit" d="M166.706,59.555 L165.55,60.377 L160.226,60.863 L158.857,58.734 L160.012,57.882 L166.706,59.555 L166.706,59.555 Z M166.706,59.555" id="2051"/>
                <path class="unit" d="M168.257,61.167 L167.131,61.958 L161.259,62.567 L160.315,60.984 L160.498,60.984 L165.731,60.558 L168.257,61.167 L168.257,61.167 Z M168.257,61.167" id="2052"/>
                <path class="unit" d="M173.43,62.476 L176.138,63.145 L175.438,63.632 L172.76,62.932 L173.43,62.476 L173.43,62.476 Z M173.43,62.476" id="2053"/>
                <path class="unit" d="M166.857,62.141 L163.998,64.209 L162.385,64.392 L161.35,62.718 L166.857,62.141 L166.857,62.141 Z M166.857,62.141" id="2054"/>
                <path class="unit" d="M164.241,64.332 L168.531,61.259 L173.126,62.385 L168.227,65.884 L163.542,66.219 L162.477,64.515 L164.241,64.332 L164.241,64.332 Z M164.241,64.332" id="2055"/>
                <path class="unit" d="M167.983,66.066 L165.367,67.921 L164.637,67.983 L163.633,66.34 L167.983,66.066 L167.983,66.066 Z M167.983,66.066" id="2056"/>
                <path class="unit" d="M172.578,63.084 L175.56,63.814 L176.412,63.205 L178.481,63.723 L169.506,70.112 L168.471,69.869 L165.976,70.112 L164.728,68.134 L165.611,68.043 L172.578,63.084 L172.578,63.084 Z M172.578,63.084" id="2057"/>
                <path class="unit" d="M169.322,70.234 L166.006,72.608 L164.911,71.025 L165.976,70.265 L168.41,70.021 L169.322,70.234 L169.322,70.234 Z M169.322,70.234" id="2058"/>
                <path class="unit" d="M200.386,40.478 L198.53,41.786 L195.853,41.117 L194.696,41.938 L185.174,39.565 L184.444,38.865 L191.108,38.165 L200.386,40.478 L200.386,40.478 Z M200.386,40.478" id="2059"/>
                <path class="unit" d="M185.965,45.742 L179.728,50.184 L170.266,47.841 L176.503,43.399 L185.965,45.742 L185.965,45.742 Z M185.965,45.742" id="2060"/>
                <path class="unit" d="M205.315,41.695 L203.49,43.003 L198.835,41.847 L200.661,40.539 L205.315,41.695 L205.315,41.695 Z M205.315,41.695" id="2061"/>
                <path class="unit" d="M208.692,41.878 L206.197,43.673 L203.794,43.095 L206.289,41.3 L208.692,41.878 L208.692,41.878 Z M208.692,41.878" id="2062"/>
                <path class="unit" d="M211.887,42.273 L208.966,44.373 L206.502,43.765 L209.423,41.666 L211.887,42.273 L211.887,42.273 Z M211.887,42.273" id="2063"/>
                <path class="unit" d="M215.294,42.73 L211.948,45.133 L209.27,44.433 L212.617,42.06 L215.294,42.73 L215.294,42.73 Z M215.294,42.73" id="2064"/>
                <path class="unit" d="M184.109,38.896 L184.87,39.657 L191.99,41.452 L186.118,45.62 L176.656,43.277 L182.589,39.048 L184.109,38.896 L184.109,38.896 Z M184.109,38.896" id="2065"/>
                <path class="unit" d="M170.356,56.969 L167.405,59.068 L160.712,57.395 L161.138,57.091 L159.951,55.205 L160.803,54.566 L170.356,56.969 L170.356,56.969 Z M170.356,56.969" id="2066"/>
                <path class="unit" d="M191.715,44.281 L201.725,46.776 L186.391,57.729 L164.18,52.191 L170.083,47.962 L182.313,51.004 L191.715,44.281 L191.715,44.281 Z M191.715,44.281" id="2067"/>
                <path class="unit" d="M183.227,59.981 L160.986,54.443 L163.998,52.314 L186.239,57.851 L183.227,59.981 L183.227,59.981 Z M183.227,59.981" id="2068"/>
                <path class="unit" d="M219.341,43.734 L215.995,46.137 L213.53,45.498 L216.877,43.125 L219.341,43.734 L219.341,43.734 Z M219.341,43.734" id="2069"/>
                <path class="unit" d="M221.775,44.738 L218.824,46.837 L216.299,46.198 L219.221,44.099 L221.775,44.738 L221.775,44.738 Z M221.775,44.738" id="2070"/>
                <path class="unit" d="M224.453,45.407 L221.502,47.506 L219.129,46.898 L222.08,44.798 L224.453,45.407 L224.453,45.407 Z M224.453,45.407" id="2071"/>
                <path class="unit" d="M224.727,45.468 L227.1,46.076 L224.18,48.175 L221.807,47.567 L224.727,45.468 L224.727,45.468 Z M224.727,45.468" id="2072"/>
                <path class="unit" d="M233.184,45.529 L228.134,49.15 L224.483,48.237 L229.533,44.617 L233.184,45.529 L233.184,45.529 Z M233.184,45.529" id="2073"/>
                <path class="unit" d="M236.5,46.381 L231.45,49.971 L228.437,49.241 L233.488,45.621 L236.5,46.381 L236.5,46.381 Z M236.5,46.381" id="2074"/>
                <path class="unit" d="M239.726,47.171 L234.645,50.792 L231.754,50.062 L236.805,46.441 L239.726,47.171 L239.726,47.171 Z M239.726,47.171" id="2075"/>
                <path class="unit" d="M108.411,77.445 L91.191,73.155 L112.58,57.882 L129.131,61.989 L133.999,69.23 L144.253,71.816 L135.186,78.266 L124.963,75.71 L108.411,77.445 L108.411,77.445 Z M108.411,77.445" id="2076"/>
                <path class="unit" d="M124.901,75.893 L135.124,78.418 L135.793,79.209 L132.781,81.339 L112.61,83.439 L110.054,79.423 L111.575,79.271 L110.388,77.416 L124.901,75.893 L124.901,75.893 Z M124.901,75.893" id="2077"/>
                <path class="unit" d="M109.689,79.422 L112.275,83.468 L107.193,84.016 L104.607,79.909 L106.006,78.905 L109.689,79.422 L109.689,79.422 Z M109.689,79.422" id="2078"/>
                <path class="unit" d="M88.604,81.065 L98.918,84.716 L98.888,84.746 L105.581,84.107 L103.025,79.787 L93.532,77.475 L88.604,81.065" id="2079"/>
                <path class="unit" d="M89.924,88.516 L91.019,88.912 L94.217,86.63 L76.719,80.363 L75.229,81.427 L73.495,81.61 L72.491,82.34 L89.924,88.516 L89.924,88.516 Z M89.924,88.516" id="2080"/>
                <path class="unit" d="M81.404,92.607 L81.709,92.364 L82.744,92.668 L85.6,90.534 L69.195,84.77 L66.748,86.481 L67.379,87.496 L81.404,92.607 L81.404,92.607 Z M81.404,92.607" id="2081"/>
                <path class="unit" d="M73.008,96.396 L67.411,87.579 L81.405,92.683 L75.381,96.973 L73.008,96.396 L73.008,96.396 Z M73.008,96.396" id="2082"/>
                <path class="unit" d="M86.566,96.217 C87.641,96.501 88.219,96.977 88.3,97.647 C88.381,98.316 87.935,98.996 86.961,99.686 C86.008,100.376 84.811,100.873 83.371,101.177 C81.911,101.461 80.643,101.47 79.568,101.207 C78.493,100.943 77.915,100.477 77.834,99.808 C77.753,99.118 78.189,98.428 79.143,97.739 C80.117,97.05 81.323,96.551 82.764,96.248 C84.223,95.963 85.491,95.953 86.566,96.217 L86.566,96.217 Z M86.566,96.217" id="2083"/>
                <path class="unit" d="M93.046,105.923 L91.16,108.661 L83.432,114.199 L74.548,111.978 L82.854,106.075 C85.836,106.298 88.726,106.308 91.525,106.105 L93.046,105.923 L93.046,105.923 Z M93.046,105.923" id="2084"/>
                <path class="unit" d="M21.334,88.489 L45.583,85.72 L43.423,82.252 L46.679,81.917 L48.9,85.477 L60.857,84.229 L73.24,103.823 L75.369,104.614 C75.957,104.837 76.576,105.02 77.225,105.162 C78.625,105.527 80.379,105.821 82.489,106.044 L74.274,111.916 L67.215,110.151 L23.129,114.715 L24.863,113.467 L23.281,110.972 L19.204,109.938 L17.744,107.626 L12.389,108.204 L11.537,106.896 L16.861,106.287 L9.377,94.848 L4.174,95.426 L3.322,94.118 L8.494,93.54 L6.09,89.95 L17.5,88.702 L15.461,85.538 L19.143,85.142 L21.334,88.489 L21.334,88.489 Z M21.334,88.489" id="2085"/>
                <path class="unit" d="M104.76,106.714 L97.823,105.01 L100.074,103.397 L106.981,105.132 L104.76,106.714 L104.76,106.714 Z M104.76,106.714" id="2086"/>
                <path class="unit" d="M97.64,105.101 L104.577,106.836 L96.18,112.829 L90.916,111.521 L93.958,109.33 L96.818,105.892 L96.574,105.679 L97.64,105.101 L97.64,105.101 Z M97.64,105.101" id="2087"/>
                <path class="unit" d="M112.458,105.861 L112.458,106.226 L116.079,107.109 L110.511,111.064 L102.905,109.178 L108.169,105.405 L109.446,105.74 L112.458,105.861 L112.458,105.861 Z M112.458,105.861" id="2088"/>
                <path class="unit" d="M124.993,109.696 L119.821,113.407 L110.815,111.156 L115.349,107.931 L122.773,109.787 L123.412,109.3 L124.993,109.696 L124.993,109.696 Z M124.993,109.696" id="2089"/>
                <path class="unit" d="M128.644,110.182 C129.131,110.304 129.354,110.487 129.314,110.729 L129.283,110.79 L134.759,112.129 L129.587,115.81 L120.125,113.467 L125.297,109.786 L127.062,110.212 L127.184,110.212 L128.644,110.182 L128.644,110.182 Z M128.644,110.182" id="2090"/>
                <path class="unit" d="M139.506,113.315 L136.464,115.506 L137.103,115.688 L135.003,117.179 L129.892,115.901 L135.034,112.22 L139.506,113.315 L139.506,113.315 Z M139.506,113.315" id="2091"/>
                <path class="unit" d="M154.414,120.801 L150.246,120.983 L136.342,117.515 L141.758,113.651 L158.553,117.849 L154.414,120.801 L154.414,120.801 Z M154.414,120.801" id="2092"/>
                <path class="unit" d="M132.812,88.397 L132.994,88.823 L129.708,91.166 L128.309,88.884 L132.812,88.397 L132.812,88.397 Z M132.812,88.397" id="2093"/>
                <path class="unit" d="M129.435,91.319 L126.149,91.897 L124.445,89.281 L127.944,88.916 L129.435,91.319 L129.435,91.319 Z M129.435,91.319" id="2094"/>
                <path class="unit" d="M124.11,89.341 L125.814,91.927 L122.984,92.444 L121.098,89.645 L124.11,89.341 L124.11,89.341 Z M124.11,89.341" id="2095"/>
                <path class="unit" d="M119.607,89.828 L121.676,92.627 L118.847,94.635 L112.427,93.023 L111.179,91.714 L112.822,90.558 L119.607,89.828 L119.607,89.828 Z M119.607,89.828" id="2096"/>
                <path class="unit" d="M118.695,94.757 L114.527,97.738 L109.781,96.551 L113.949,93.569 L118.695,94.757 L118.695,94.757 Z M118.695,94.757" id="2097"/>
                <path class="unit" d="M154.17,86.238 L149.606,89.493 L144.312,89.737 L142.791,87.303 L144.19,86.299 L153.653,85.325 L154.17,86.238 L154.17,86.238 Z M154.17,86.238" id="2098"/>
                <path class="unit" d="M162.233,84.412 L163.906,84.838 L158.155,88.945 L155.478,88.276 L152.74,90.223 L149.971,89.523 L154.566,86.268 L153.987,85.264 L162.233,84.412 M166.736,82.769 L163.298,81.887 L166.097,79.696 L169.475,80.548 L166.736,82.769" id="2099"/>
                <path class="unit" d="M158.004,89.067 L155.023,91.167 L152.65,90.589 L155.631,88.46 L158.004,89.067 L158.004,89.067 Z M158.004,89.067" id="2100"/>
                <path class="unit" d="M140.966,87.455 L142.792,90.589 L143.644,91.41 L139.202,91.867 L140.51,90.924 L138.624,87.699 L140.966,87.455 L140.966,87.455 Z M140.966,87.455" id="2101"/>
                <path class="unit" d="M111.91,97.251 L110.815,98.042 L114.466,98.924 L113.797,99.411 L110.755,98.65 L110.664,98.984 L107.499,98.193 L109.598,96.672 L111.91,97.251 L111.91,97.251 Z M111.91,97.251" id="2102"/>
                <path class="unit" d="M113.614,99.534 L109.446,102.515 L104.883,101.359 L104.244,100.507 L107.317,98.317 L110.938,99.23 L111.029,98.896 L113.614,99.534 L113.614,99.534 Z M113.614,99.534" id="2103"/>
                <path class="unit" d="M114.77,99.016 L117.539,99.686 L112.518,103.276 L109.749,102.577 L114.77,99.016 L114.77,99.016 Z M114.77,99.016" id="2104"/>
                <path class="unit" d="M122.741,100.993 L119.182,103.549 L112.884,103.306 L117.843,99.776 L122.741,100.993 L122.741,100.993 Z M122.741,100.993" id="2105"/>
                <path class="unit" d="M123.045,101.085 L127.882,102.272 L124.323,104.797 L119.485,103.611 L123.045,101.085 L123.045,101.085 Z M123.045,101.085" id="2106"/>
                <path class="unit" d="M127.975,105.709 L124.628,104.888 L128.188,102.363 L137.864,104.766 L135.582,106.409 L134.121,106.044 L134.486,105.74 L132.599,105.283 L131.23,106.256 L128.857,106.165 L128.187,105.892 L128.005,105.74 L127.975,105.709 L127.975,105.709 Z M127.975,105.709" id="2107"/>
                <path class="unit" d="M138.167,104.858 L147.568,107.201 L144.312,109.483 L143.309,109.24 L139.018,109.758 L135.398,108.845 L134.88,107.202 L138.167,104.858 L138.167,104.858 Z M138.167,104.858" id="2108"/>
                <path class="unit" d="M151.736,109.817 L148.389,110.517 L144.616,109.574 L147.841,107.262 L152.74,108.479 L152.253,108.936 L152.801,109.057 L151.736,109.817 L151.736,109.817 Z M151.736,109.817" id="2109"/>
                <path class="unit" d="M241.978,98.833 C241.876,99.097 241.451,99.32 240.7,99.502 L239.117,99.775 L238.143,99.867 L237.961,99.867 L239.116,101.845 L239.846,101.815 L240.911,101.906 L240.941,101.906 C241.287,101.987 241.549,102.15 241.733,102.393 C242.077,102.939 241.6,103.315 240.302,103.518 L236.469,103.944 L234.187,100.354 L235.678,99.29 L242.067,98.621 L241.978,98.833 L241.978,98.833 Z M241.978,98.833" id="2110"/>
                <path class="unit" d="M230.842,117.819 L228.378,119.552 L225.974,118.974 L228.438,117.209 L230.842,117.819 L230.842,117.819 Z M230.842,117.819" id="2111"/>
                <path class="unit" d="M234.706,112.738 L238.783,109.817 L240.274,109.665 L243.438,114.685 M234.706,112.738 L243.437,114.684" id="2112"/>
                <path class="unit" d="M216.451,125.76 L227.191,128.438 L222.962,131.45 L212.223,128.772 L216.451,125.76 L216.451,125.76 Z M216.451,125.76" id="2113"/>
                <path class="unit" d="M222.779,131.571 L220.953,132.88 L226.521,134.279 L225.243,135.161 L219.676,133.792 L218.428,134.675 L207.718,131.997 L212.038,128.894 L222.779,131.571 L222.779,131.571 Z M222.779,131.571" id="2114"/>
                <path class="unit" d="M206.624,134.827 L205.041,135.952 L203.733,135.617 L203.398,135.069 L204.493,134.309 L206.624,134.827 L206.624,134.827 Z M206.624,134.827" id="2115"/>
                <path class="unit" d="M221.379,122.23 L249.34,129.198 L238.356,137.047 L221.41,132.818 L227.647,128.376 L216.633,125.637 L221.379,122.23 L221.379,122.23 Z M221.379,122.23" id="2116"/>
                <path class="unit" d="M218.276,134.796 L213.621,138.111 L205.345,136.042 L207.11,134.795 L204.646,134.155 L207.536,132.117 L218.276,134.796 L218.276,134.796 Z M218.276,134.796" id="2117"/>
                <path class="unit" d="M210.396,137.96 L208.722,139.147 L201.451,137.352 L203.124,136.135 L210.396,137.96 L210.396,137.96 Z M210.396,137.96" id="2118"/>
                <path class="unit" d="M217.698,141.368 L214.26,143.833 L202.212,140.821 L203.368,140 L199.2,138.966 L201.3,137.474 L213.865,140.608 L214.048,140.456 L217.698,141.368 L217.698,141.368 Z M217.698,141.368" id="2119"/>
                <path class="unit" d="M215.721,148.822 L194.362,143.497 L194.94,143.071 L194.636,142.188 L196.005,141.215 L218.52,146.844 L215.721,148.822 L215.721,148.822 Z M215.721,148.822" id="2120"/>
                <path class="unit" d="M213.073,150.708 L191.715,145.383 L194.18,143.619 L215.569,148.943 L213.073,150.708 L213.073,150.708 Z M213.073,150.708" id="2121"/>
                <path class="unit" d="M191.533,145.506 L212.921,150.83 L207.841,154.451 L186.451,149.126 L191.533,145.506 L191.533,145.506 Z M191.533,145.506" id="2122"/>
                <path class="unit" d="M178.967,154.481 L186.3,149.248 L207.659,154.573 L200.326,159.805 L178.967,154.481 L178.967,154.481 Z M178.967,154.481" id="2123"/>
                <path class="unit" d="M200.143,159.928 L194.362,164.065 L174.86,159.197 L178.267,156.762 L177.75,155.332 L178.785,154.603 L200.143,159.928 L200.143,159.928 Z M200.143,159.928" id="2124"/>
                <path class="unit" d="M189.038,165.799 L171.696,161.448 L174.708,159.318 L194.18,164.186 L192.871,165.128 L190.711,164.581 L189.038,165.799 L189.038,165.799 Z M189.038,165.799" id="2125"/>
                <path class="unit" d="M185.874,168.051 L190.468,169.207 L188.064,170.911 L166.128,165.465 L168.562,163.731" id="2126"/>
                <path class="unit" d="M168.562,163.73 L171.513,161.601 L188.886,165.921 L185.905,168.051 M168.562,163.73 L185.904,168.05" id="2127"/>
                <path class="unit" d="M185.904,168.051 L185.874,168.051" id="2128"/>
                <path class="unit" d="M158.856,191.752 L150.459,189.653 L147.689,191.66 L129.708,187.188 L132.507,185.181 L124.383,183.172 L121.615,185.15 L103.634,180.678 L106.433,178.7 L91.342,174.927 L120.367,154.208 L187.881,171.033 L171.33,182.868 L174.585,183.66 L167.435,188.77 L164.18,187.949 L158.856,191.752 L158.856,191.752 Z M158.856,191.752" id="2129"/>
                <path class="unit" d="M157.517,139.481 L175.924,144.075 L167.253,150.251 L136.615,142.614 L143.613,137.624 L145.073,137.958 L148.085,135.798 L158.886,138.506 L157.517,139.481 L157.517,139.481 Z M157.517,139.481" id="2130"/>
                <path class="unit" d="M166.827,150.313 L136.432,142.737 L131.595,146.205 L138.866,148.182 L132.082,153.05 L134.364,153.598 L132.569,154.876 L150.52,159.348 L155.175,158.862 L166.827,150.313 Z M166.827,150.313" id="2131"/>
                <path class="unit" d="M166.097,119.705 L158.248,125.333 L153.806,124.208 L161.655,118.609 L166.097,119.705 L166.097,119.705 Z M166.097,119.705" id="2133"/>
                <path class="unit" d="M177.233,120.192 L174.007,119.37 L175.103,118.579 L178.328,119.4 L177.233,120.192 L177.233,120.192 Z M177.233,120.192" id="2134"/>
                <path class="unit" d="M185.66,121.227 L184.565,122.019 L177.506,120.254 L178.632,119.463 L185.66,121.227 L185.66,121.227 Z M185.66,121.227" id="2135"/>
                <path class="unit" d="M184.474,122.139 L180.032,125.243 L180.032,125.273" id="2136"/>
                <path class="unit" d="M180.032,125.273 L174.312,129.32 L158.552,125.395 L166.402,119.797 L167.71,120.131 L173.734,119.492 L184.474,122.139" id="2137"/>
                <path class="unit" d="M184.474,122.139 L184.687,122.2 L185.965,121.287 L196.736,123.964 L197.831,125.729 L191.472,130.263 L182.04,127.92 L184.291,126.308 L180.032,125.243" id="2138"/>
                <path class="unit" d="M191.289,130.385 L189.099,131.967 L179.667,129.593 L181.857,128.041 L191.289,130.385 L191.289,130.385 Z M191.289,130.385" id="2139"/>
                <path class="unit" d="M188.642,132.027 L180.792,132.393 L177.08,131.45 L179.483,129.745 L188.642,132.027 L188.642,132.027 Z M188.642,132.027" id="2140"/>
                <path class="unit" d="M169.14,129.655 L180.519,132.484 L177.781,134.462 L173.704,133.428 L173.278,133.732 L165.945,131.907 L169.14,129.655 L169.14,129.655 Z M169.14,129.655" id="2141"/>
                <path class="unit" d="M173.825,133.64 L179.576,135.07 L182.284,139.299 L177.477,138.112 L174.861,139.969 L159.861,136.226 L165.763,132.027 L173.4,133.944 L173.825,133.64 L173.825,133.64 Z M173.825,133.64" id="2142"/>
                <path class="unit" d="M182.314,139.481 L179.88,141.215 L175.164,140.059 L177.598,138.325 L182.314,139.481 L182.314,139.481 Z M182.314,139.481" id="2143"/>
                <path class="unit" d="M161.594,136.834 L179.697,141.367 L176.076,143.923 L157.973,139.421 C159.19,138.569 160.397,137.707 161.594,136.834 L161.594,136.834 Z M161.594,136.834" id="2144"/>
                <path class="unit" d="M155.844,110.943 L163.907,105.193 L176.077,108.235 L168.014,113.985 L155.844,110.943 L155.844,110.943 Z M155.844,110.943" id="2145"/>
                <path class="unit" d="M180.275,109.452 L172.547,114.959 L168.166,113.863 L175.894,108.356 L180.275,109.452 L180.275,109.452 Z M180.275,109.452" id="2146"/>
                <path class="unit" d="M185.63,110.791 L177.902,116.268 L172.851,115.021 L180.548,109.513 L185.63,110.791 L185.63,110.791 Z M185.63,110.791" id="2147"/>
                <path class="unit" d="M190.042,111.886 L182.314,117.392 L178.206,116.358 L185.934,110.851 L190.042,111.886 L190.042,111.886 Z M190.042,111.886" id="2148"/>
                <path class="unit" d="M229.381,103.214 L224.665,106.561 L213.651,103.823 L216.785,101.602 L222.17,101.055 L224.482,99.382 L227.433,100.112 L229.381,103.214 L229.381,103.214 Z M229.381,103.214" id="2149"/>
                <path class="unit" d="M210.427,106.136 L213.5,103.945 L224.483,106.684 L221.441,108.874 L210.427,106.136 L210.427,106.136 Z M210.427,106.136" id="2150"/>
                <path class="unit" d="M207.688,108.782 L204.737,110.881 L201.39,110.06 L204.341,107.931 L207.688,108.782 L207.688,108.782 Z M207.688,108.782" id="2151"/>
                <path class="unit" d="M221.258,108.996 L218.154,111.217 L210.153,109.209 L213.256,107.018 L221.258,108.996 L221.258,108.996 Z M221.258,108.996" id="2152"/>
                <path class="unit" d="M217.972,111.338 L215.021,113.468 L207.019,111.46 L209.971,109.36 L217.972,111.338 L217.972,111.338 Z M217.972,111.338" id="2153"/>
                <path class="unit" d="M214.838,113.589 L211.948,115.628 L195.488,111.521 L197.526,110.09 L205.984,112.19 L206.836,111.581 L214.838,113.589 L214.838,113.589 Z M214.838,113.589" id="2154"/>
                <path class="unit" d="M208.844,117.849 L193.632,114.076 L194.301,113.62 L193.175,113.194 L195.305,111.642 L211.796,115.749 L208.844,117.849 L208.844,117.849 Z M208.844,117.849" id="2155"/>
                <path class="unit" d="M195.184,114.624 L188.977,119.036 L183.805,117.758 L189.312,113.833 L192.781,114.685 L193.48,114.199 L195.184,114.624 L195.184,114.624 Z M195.184,114.624" id="2156"/>
                <path class="unit" d="M201.816,121.409 L199.443,121.653 L189.251,119.128 L195.457,114.686 L208.662,117.972 L205.833,120.011 L203.551,120.163 L201.816,121.409 L201.816,121.409 Z M201.816,121.409" id="2157"/>
                <path class="unit" d="M261.207,40.569 L259.502,43.703 L256.856,43.581 L256.856,41.695 L259.168,40.052 L261.207,40.569 L261.207,40.569 Z M261.207,40.569" id="2158"/>
                <path class="unit" d="M262.94,44.038 L259.837,43.734 L261.51,40.63 L264.826,41.452 L262.94,44.038 L262.94,44.038 Z M262.94,44.038" id="2159"/>
                <path class="unit" d="M248.367,44.16 L248.336,44.16 L249.553,44.951 L247.241,45.833 L244.533,45.133 L246.602,43.673 L248.367,44.16 L248.367,44.16 Z M248.367,44.16" id="2160"/>
                <path class="unit" d="M270.364,42.821 L273.285,43.582 L270.303,44.83 L268.57,44.1 L270.364,42.821 L270.364,42.821 Z M270.364,42.821" id="2161"/>
                <path class="unit" d="M272.95,43.916 L276.571,44.829 L272.342,45.954 L270.516,44.95 L272.95,43.916 L272.95,43.916 Z M272.95,43.916" id="2162"/>
                <path class="unit" d="M280.222,46.807 L278.884,47.75 L274.685,47.993 C274.482,47.547 274.147,47.151 273.681,46.806 L273.468,46.684 L276.784,45.954 L280.222,46.807 L280.222,46.807 Z M280.222,46.807" id="2163"/>
                <path class="unit" d="M283.112,47.537 L279.948,49.788 L274.806,49.788 C274.928,49.18 274.897,48.632 274.715,48.145 L279.096,47.902 L280.526,46.898 L283.112,47.537 L283.112,47.537 Z M283.112,47.537" id="2164"/>
                <path class="unit" d="M279.766,49.94 L277.91,51.279 L274.381,51.096 L274.715,50.213 L274.776,49.909 L279.766,49.94 L279.766,49.94 Z M279.766,49.94" id="2165"/>
                <path class="unit" d="M278.792,51.644 L277.028,52.861 L273.802,52.07 L274.289,51.217 L277.939,51.43 L278.792,51.644 L278.792,51.644 Z M278.792,51.644" id="2166"/>
                <path class="unit" d="M326.042,43.703 L315.697,41.147 L318.77,38.956 L329.115,41.542 L326.042,43.703 L326.042,43.703 Z M326.042,43.703" id="2167"/>
                <path class="unit" d="M374.905,52.77 L340.007,44.068 L337.421,44.524 L336.691,43.247 L290.11,31.625 L327.198,5.155 L412.023,26.3 L374.905,52.77 L374.905,52.77 Z M374.905,52.77" id="2168"/>
                <path class="unit" d="M324.339,44.951 L319.623,45.438 L316.307,47.811 L317.31,49.393 L307.543,46.959 L314.815,41.756 L325.16,44.342 L324.339,44.951 L324.339,44.951 Z M324.339,44.951" id="2169"/>
                <path class="unit" d="M317.431,49.605 L318.618,51.491 L317.645,52.191 L317.797,52.252 L304.562,48.935 L304.714,48.966 L307.361,47.08 L317.431,49.605 L317.431,49.605 Z M317.431,49.605" id="2170"/>
                <path class="unit" d="M317.554,52.253 L309.795,57.79 L302.949,56.086 L304.714,54.443 L299.025,53.013 L304.623,49.058 L317.554,52.253 L317.554,52.253 Z M317.554,52.253" id="2171"/>
                <path class="unit" d="M292.696,49.728 L288.589,52.679 L309.613,57.912 L307.878,59.16 L295.556,60.559 L274.167,55.205 L284.664,47.72 L292.696,49.728 L292.696,49.728 Z M292.696,49.728" id="2172"/>
                <path class="unit" d="M295.982,61.989 L303.315,61.168 L305.536,61.685 L306.236,62.872 L304.958,63.815 L296.561,64.819 L295.192,62.75 L295.982,61.989 L295.982,61.989 Z M295.982,61.989" id="2173"/>
                <path class="unit" d="M353.79,52.283 L352.755,53.013 L345.149,51.127 L345.484,50.883 L343.963,49.119 L345.027,48.358 L350.93,49.818 L352.451,48.723 L373.292,53.926 L372.623,54.412 L365.321,55.173 L353.79,52.283 L353.79,52.283 Z M353.79,52.283" id="2174"/>
                <path class="unit" d="M358.476,53.652 L353.06,57.485 L359.997,59.219 L362.675,63.478 L361.062,64.634 L348.77,61.561 L349.835,60.8 L344.206,59.401 L348.679,56.236 L340.769,54.258 L344.967,51.246 L352.878,53.224 L353.913,52.494 L358.476,53.652 L358.476,53.652 Z M358.476,53.652" id="2175"/>
                <path class="unit" d="M348.191,56.299 L343.749,59.463 L346.943,60.254 L344.57,61.958 L350.077,63.327 L343.536,68.012 L321.994,62.627 L332.4,55.204 L340.493,54.352 L348.191,56.299 L348.191,56.299 Z M348.191,56.299" id="2176"/>
                <path class="unit" d="M313.081,76.35 L311.225,77.658 L303.588,75.771 L305.413,74.463 L313.081,76.35 L313.081,76.35 Z M313.081,76.35" id="2177"/>
                <path class="unit" d="M343.262,75.406 L334.591,81.552 L305.596,74.342 L306.296,73.855 L310.342,73.216 C312.411,71.755 314.469,70.284 316.518,68.804 L316.518,68.773 M343.262,75.406 L316.519,68.773" id="2178"/>
                <path class="unit" d="M318.558,81.187 L317.249,82.13 L310.982,80.578 L303.376,86.024 L292.879,83.408 L301.824,77.018 L318.558,81.187 L318.558,81.187 Z M318.558,81.187" id="2179"/>
                <path class="unit" d="M292.696,83.53 L305.991,86.846 L312.106,82.495 L329.266,86.754 L332.308,84.594 L342.957,87.241 L346.517,84.685 L350.077,85.597 L334.47,96.704 L323.852,94.057 L320.566,96.431 L286.521,87.942 L292.696,83.53 L292.696,83.53 Z M292.696,83.53" id="2180"/>
                <path class="unit" d="M296.834,90.68 L294.338,92.475 L283.841,89.858 L286.336,88.063 L296.834,90.68 L296.834,90.68 Z M296.834,90.68" id="2181"/>
                <path class="unit" d="M279.918,92.657 L282.96,90.497 L293.425,93.083 L290.414,95.274 L279.918,92.657 L279.918,92.657 Z M279.918,92.657" id="2182"/>
                <path class="unit" d="M290.231,95.396 L287.28,97.495 L276.814,94.879 L279.734,92.779 L290.231,95.396 L290.231,95.396 Z M290.231,95.396" id="2183"/>
                <path class="unit" d="M286.824,101.876 L272.129,98.194 L276.632,95 L289.745,98.255 L286.885,100.294 L295.221,102.394 L294.613,102.819 L287.859,101.146 L286.824,101.876 L286.824,101.876 Z M286.824,101.876" id="2184"/>
                <path class="unit" d="M240.638,109.634 L260.689,107.534 L261.998,107.838 L268.843,102.97 L267.201,102.545 L266.836,101.997 L268.57,100.75 L290.323,106.166 L295.526,102.454 L316.276,107.626 L317.827,106.53 L322.848,107.778 L322.482,108.052 L329.146,109.726 L329.694,110.577 L328.934,111.125 L331.063,114.533 L332.767,114.959 L333.284,115.811 L328.477,119.218 L325.982,119.492 L318.254,125.029 L318.893,126.063 L313.538,129.897 L310.952,130.171 L309.583,129.806 L302.281,130.597 L301.033,131.51 L297.778,131.844 L286.551,129.046 L287.92,128.071 L245.598,117.514 L240.638,109.634 L240.638,109.634 Z M240.638,109.634" id="2185"/>
                <path class="unit" d="M291.905,63.114 L293.731,65.153 L293.366,67.252 L291.419,68.651 L284.787,66.978 L286.034,66.096 L285,65.852 L287.951,63.753 L285.395,63.144 L287.129,61.927 L291.905,63.114 L291.905,63.114 Z M291.905,63.114" id="2186"/>
                <path class="unit" d="M292.635,70.538 L291.266,71.512 L281.744,69.139 L282.504,68.622 L281.469,68.348 L284.816,65.975 L285.546,66.158 L284.298,67.04 L291.326,68.774 L292.635,70.538 L292.635,70.538 Z M292.635,70.538" id="2187"/>
                <path class="unit" d="M291.083,71.634 L288.679,73.368 L278.152,70.721 L279.703,69.626 L280.707,69.9 L281.59,69.261 L291.083,71.634 L291.083,71.634 Z M291.083,71.634" id="2188"/>
                <path class="unit" d="M282.017,68.683 L280.587,69.687 L279.857,69.504 L281.287,68.5 L282.017,68.683 L282.017,68.683 Z M282.017,68.683" id="2189"/>
                <path class="unit" d="M288.498,73.489 L285.729,75.467 L275.202,72.851 L277.97,70.843 L288.498,73.489 L288.498,73.489 Z M288.498,73.489" id="2190"/>
                <path class="unit" d="M274.258,73.52 L284.785,76.136 L281.559,78.448 L271.002,75.831 L274.258,73.52 L274.258,73.52 Z M274.258,73.52" id="2191"/>
                <path class="unit" d="M253.965,82.647 L246.328,80.761 L247.241,80.092 L241.582,78.693 L252.018,71.239 L281.378,78.572 L273.62,84.109 L257.556,80.093 L253.965,82.647 L253.965,82.647 Z M253.965,82.647" id="2192"/>
                <path class="unit" d="M246.754,80.152 L245.171,81.278 L239.816,79.97 L241.399,78.814 L246.754,80.152 L246.754,80.152 Z M246.754,80.152" id="2193"/>
                <path class="unit" d="M273.437,84.229 L269.178,87.271 L245.476,81.369 L246.145,80.882 L254.086,82.86 L257.675,80.304 L273.437,84.229 L273.437,84.229 Z M273.437,84.229" id="2194"/>
                <path class="unit" d="M268.996,87.394 L266.165,89.402 L250.405,85.477 L253.234,83.469 L268.996,87.394 L268.996,87.394 Z M268.996,87.394" id="2195"/>
                <path class="unit" d="M266.013,89.554 L259.624,94.087 L253.508,94.726 L250.678,90.254 L252.017,89.28 L246.875,88.002 L250.222,85.598 L266.013,89.554 L266.013,89.554 Z M266.013,89.554" id="2196"/>
                <path class="unit" d="M250.314,90.223 L253.174,94.757 L240.882,96.065 L236.957,95.091 L246.693,88.124 L251.53,89.341 L250.314,90.223 L250.314,90.223 Z M250.314,90.223" id="2197"/>
                <path class="unit" d="M245.538,48.632 L246.176,50.914 L243.346,52.953 L236.683,51.28 L241.765,47.69 L245.538,48.632 L245.538,48.632 Z M245.538,48.632" id="2198"/>
                <path class="unit" d="M251.5,51.705 L248.123,54.139 L243.651,53.013 L246.511,50.974 L245.871,48.631 L250.557,48.358 L251.5,51.705 L251.5,51.705 Z M251.5,51.705" id="2199"/>
                <path class="unit" d="M255.334,48.115 L256.703,52.04 L252.322,55.174 L248.428,54.201 C249.584,53.389 250.73,52.568 251.866,51.736 L250.892,48.328 L255.334,48.115 L255.334,48.115 Z M255.334,48.115" id="2200"/>
                <path class="unit" d="M261.023,46.167 L261.601,46.289 L263.731,47.05 L265.283,46.837 C267.27,47.709 268.264,48.551 268.264,49.362 C268.244,49.95 267.899,50.64 267.23,51.431 L266.561,52.161 L266.165,52.466 L262.879,52.891 L257.768,56.542 L252.626,55.264 L257.067,52.07 L255.668,48.054 L258.893,45.772 L261.023,46.167 L261.023,46.167 Z M261.023,46.167" id="2201"/>
                <path class="unit" d="M265.892,52.648 L264.949,53.348 L266.136,55.204 L264.615,56.299 L265.101,56.421 L263.093,57.881 L258.073,56.603 L263.093,53.013 L265.892,52.648 L265.892,52.648 Z M265.892,52.648" id="2202"/>
                <path class="unit" d="M270.394,57.76 L268.477,59.129 L263.396,57.942 L265.404,56.512 L270.394,57.76 L270.394,57.76 Z M270.394,57.76" id="2203"/>
                <path class="unit" d="M270.699,57.82 L275.811,59.098 L273.955,60.437 L268.752,59.22 L270.699,57.82 L270.699,57.82 Z M270.699,57.82" id="2204"/>
                <path class="unit" d="M280.952,60.376 L279.157,61.654 L274.258,60.497 L276.114,59.189 L280.952,60.376 L280.952,60.376 Z M280.952,60.376" id="2205"/>
                <path class="unit" d="M279.461,61.745 L281.256,60.467 L285.819,61.593 L284.085,62.84 L279.461,61.745 L279.461,61.745 Z M279.461,61.745" id="2206"/>
                <path class="unit" d="M197.009,22.588 L202.272,23.926 L198.591,27.151 L193.206,26.056 L197.009,22.588 L197.009,22.588 Z M197.009,22.588" id="2207"/>
                <path class="unit" d="M87.946,80.939 L98.23,84.62 L87.946,80.939 L79.64,77.988 L76.688,80.3 L95.065,86.842 L98.23,84.621" id="2208"/>
                <path class="unit" d="M243.438,114.685 L245.294,117.606 L275.871,125.243 L271.277,128.529 L271.916,128.681 L266.895,132.271 L222.749,121.257 L225.791,119.097 L231.298,120.466 L234.675,118.032 L229.198,116.663 L234.705,112.739 L243.438,114.685 L243.438,114.685 Z M243.438,114.685" id="2209"/>
                <path class="unit" d="M315.91,66.979 L317.675,65.701 L346.67,72.942 L343.262,75.406 L316.519,68.773 L315.91,66.979" id="2210"/>
                <path class="unit" d="M246.602,43.673 L249.553,41.574 L250.07,41.696 L250.557,41.331 L252.991,41.939 L254.147,41.178 L254.147,41.148 L256.49,39.444 L258.802,40.022 L256.521,41.726 L256.49,43.582 L250.161,44.251 L249.37,43.734 L248.366,44.16 L246.602,43.673 L246.602,43.673 Z M246.602,43.673" id="2211"/>
                <path class="unit" d="M86.791,90.858 L89.867,88.61 L72.491,82.4 L69.296,84.712 L86.791,90.858 L86.791,90.858 Z M86.791,90.858" id="2212"/>
        </g>
    </g>
</svg>