<?xml version="1.0" encoding="utf-8"?>
<!DOCTYPE svg PUBLIC "-//W3C//DTD SVG 1.1//EN" "http://www.w3.org/Graphics/SVG/1.1/DTD/svg11.dtd">
<svg version="1.1" xmlns="http://www.w3.org/2000/svg" xmlns:xlink="http://www.w3.org/1999/xlink" xml:space="preserve">
<g class="level" id="level0">
            <g class="shadow">
                <path d="M416.899,54.639 L402.785,64.748 L404.748,67.32 L404.748,70.539 L393.382,71.442 L378.444,82.121 L373.027,80.786 L373.302,81.159 L373.262,84.378 L373.066,84.398 L373.694,85.419 L373.694,86.106 L368.1,90.07 L367.138,90.188 L367.138,92.092 L364.822,93.741 L359.071,92.327 L359.071,91.13 L357.422,90.718 L357.422,91.798 L352.731,95.154 L364.116,98.001 L364.077,101.161 L359.64,104.341 L348.962,101.691 L348.962,103.281 L340.58,109.268 L340.56,111.781 L339.363,112.625 L337.518,112.763 L304.423,104.519 L302.755,105.638 L347.883,116.906 L347.843,120.086 L338.617,126.662 L327.841,123.993 L324.524,126.348 L312.098,123.247 L310.783,124.208 L310.763,125.759 L307.976,127.722 L295.197,124.562 L293.038,126.073 L293.038,126.289 L292.684,126.328 L300.576,128.291 L300.536,129.41 L319.694,134.2 L321.598,132.826 L327.31,134.279 L327.31,134.672 L333.474,136.183 L334.102,137.164 L334.063,138.931 L335.417,141.032 L337.125,141.464 L337.733,142.445 L337.694,145.665 L317.613,159.995 L314.708,160.269 L313.177,159.916 L312.196,158.365 L306.327,158.974 L306.327,160.662 L304.953,161.604 L301.42,161.997 L289.623,159.072 L289.623,157.285 L277.747,154.321 L277.158,154.733 L277.119,157.462 L269.346,163.018 L263.908,161.683 L263.908,160.761 L253.288,158.091 L253.288,158.857 L242.296,166.689 L231.539,164 L231.519,166.885 L225.983,170.83 L223.863,170.3 L220.035,173.048 L224.039,174.049 L224.019,177.249 L198.697,195.308 L197.284,194.954 L192.318,198.527 L194.143,198.978 L194.928,198.409 L196.125,198.703 L197.067,198.016 L197.833,198.841 L197.833,199.469 L192.729,203.101 L190.687,203.14 L190.51,202.807 L179.027,211.032 L179.007,214.232 L171.43,219.61 L168.112,218.805 L162.734,222.652 L154.274,220.532 L151.467,222.534 L132.682,217.862 L132.682,215.133 L127.932,213.936 L125.085,215.957 L106.299,211.266 L106.339,208.558 L93.913,205.456 L93.913,202.295 L101.451,196.897 L98.31,196.092 L98.349,192.892 L105.396,187.887 L111.834,189.496 L123.592,181.075 L128.775,182.39 L131.739,180.27 L131.916,180.172 L137.255,176.324 L126.655,173.694 L126.695,170.475 L143.105,158.756 L163.893,163.938 L163.893,161.779 L169.095,158.049 L167.662,157.696 L164.384,160.032 L160.164,158.972 L160.184,155.831 L154.354,154.378 L152.823,155.438 L145.619,153.651 L145.619,152.199 L143.322,151.649 L140.574,153.573 L134.587,152.101 L134.587,148.901 L136.982,147.173 L135.196,146.741 L135.216,143.541 L151.528,131.882 L156.671,133.158 L162.736,128.819 L190.021,135.651 L195.969,131.391 L177.989,126.915 L177.695,126.817 L155.965,121.419 L155.965,119.515 L153.963,119.024 L153.963,117.551 L153.472,117.65 L151.136,117.061 L150.056,117.866 L149.585,117.728 L149.585,118.18 L147.701,119.554 L142.264,118.18 L140.752,115.824 L136.885,116.217 L137.12,116.571 L137.081,119.771 L133.823,118.966 L131.742,120.438 L131.742,120.477 L131.624,120.477 L131.447,120.615 L131.388,120.497 L124.066,121.282 L123.634,120.654 L123.634,121.321 L119.414,121.773 L118.275,122.578 L115.645,121.911 L115.645,124.482 L110.993,127.76 L110.385,127.622 L110.385,128.211 L104.614,132.334 L103.633,132.099 L103.633,133.041 L102.259,134.022 L105.576,134.847 L105.537,138.046 L100.845,141.383 L98.745,140.873 L97.92,141.462 L93.13,140.265 L91.226,141.639 L87.889,140.795 L85.396,142.582 L80.096,141.286 L80.136,138.087 L80.705,137.655 L79.586,135.869 L79.586,136.281 L78.879,136.36 L78.879,136.596 L78.76,136.596 L78.74,137.42 L77.386,137.557 L77.386,139.677 L76.405,140.365 L72.145,139.324 L70.692,137.028 L70.496,137.165 L70.005,137.205 L70.005,137.951 L69.181,138.01 L69.181,138.638 L50.729,140.542 L50.69,141.209 L35.968,142.799 L35.732,143.093 L30.197,144.31 L27.527,143.643 L25.014,143.898 L24.15,144.487 L20.401,143.584 L18.674,140.875 L18.674,140.228 L20.617,138.854 L20.578,138.854 L19.773,137.598 L11.313,138.501 L10.272,136.852 L10.292,133.672 L16.75,132.985 L11.293,124.662 L3.009,125.584 L1.949,123.955 L1.988,120.755 L4.972,120.441 L3.225,117.732 L3.264,114.513 L16.612,113.08 L16.612,110.725 L21.009,110.234 L23.227,113.61 L40.796,111.706 L43.367,115.651 L57.422,114.14 L58.188,115.298 L63.017,114.768 L66.904,120.716 L66.904,122.05 L68.632,121.874 L65.216,116.495 L65.236,113.295 L66.119,113.177 L66.119,110.684 L75.306,104.128 L78.8,105.011 L85.357,100.319 L93.738,102.439 L93.778,99.416 L115.292,84.046 L108.677,82.437 L108.697,79.237 L114.978,74.722 L115.155,74.624 L121.633,70.031 L135.256,73.427 L135.256,70.678 L138.436,68.46 L119.238,63.67 L119.278,60.451 L122.516,58.134 L146.248,55.563 C146.418,54.948 146.909,54.339 147.72,53.738 L149.31,52.894 L147.936,51.795 L147.936,51.167 L155.258,49.086 L156.534,48.203 L156.534,47.143 L160.362,44.395 L161.284,44.65 L161.284,43.767 L164.17,41.686 L164.347,41.588 L177.126,32.46 L177.303,32.362 L180.875,29.791 L181.896,30.026 L181.896,29.045 L183.506,27.926 L253.78,45.416 L253.74,48.635 L238.311,59.647 L219.467,54.936 L212.675,59.785 L212.066,59.647 L212.066,60.491 L210.692,61.453 L212.537,61.904 L212.498,65.104 L202.879,71.935 L198.521,70.855 L196.715,72.111 L194.32,71.522 L194.359,70.069 L193.378,69.834 L191.847,70.914 L190.316,70.541 L190.277,71.738 L200.269,74.231 L200.229,77.431 L193.692,82.122 L191.218,81.474 L181.58,88.384 L180.383,88.07 L180.383,88.149 L182.738,88.738 L182.699,91.937 L182.385,92.192 L184.525,92.722 L184.525,95.922 L175.692,102.184 L179.009,101.87 L190.806,93.469 L207.216,97.552 L207.177,100.752 L204.154,102.892 L205.764,103.324 L212.143,98.77 L224.706,101.911 L228.161,99.457 L235.031,101.145 L235.031,104.345 L230.673,107.446 L230.85,107.505 L237.288,109.095 L237.288,110.921 L246.789,113.316 L249.753,111.216 L247.496,110.647 L247.496,108.959 L243.982,108.036 L243.982,104.876 L254.994,96.985 L264.298,99.301 L264.337,98.006 L265.986,96.808 L229.004,87.621 L229.044,84.402 L257.153,64.34 L280.217,70.072 L281.807,68.992 L291.033,71.269 L291.033,72.781 L299.906,74.999 L299.866,78.218 L298.845,78.944 L301.102,79.513 L305.636,76.235 L305.813,76.137 L308.738,74.056 L301.063,72.113 L301.063,68.953 L307.403,64.399 L279.097,57.352 L279.117,54.153 L287.126,48.46 L293.348,49.991 L296.489,47.773 L296.489,45.77 L299.336,43.728 L301.456,44.258 L323.853,28.26 L416.936,51.482 L416.899,54.639" class="shadow"/>
            </g>
            <g class="outline">
                <path d="M163.409,201.419 L154.9,199.301 L152.092,201.343 L131.29,196.153 L131.329,193.416 L128.433,192.719 L125.601,194.725 L104.837,189.561 L104.857,186.832 L92.347,183.709 L92.411,178.474 L97.877,174.555 L96.81,174.282 L96.842,169.055 L105.129,163.122 L111.628,164.732 L123.445,156.291 L128.665,157.586 L133.813,153.9 L125.3,151.776 L125.3,146.522 L143.056,133.833 L162.693,138.747 L162.7,137.942 L158.925,137.02 L158.925,133.852 L154.96,132.858 L153.487,133.938 L144.32,131.634 L144.32,130.217 L143.893,130.109 L141.147,132.07 L133.213,130.08 L133.277,124.848 L133.837,124.445 L133.837,119.47 L151.532,106.885 L156.657,108.141 L162.745,103.821 L190.148,110.632 L192.778,108.767 L154.69,99.264 L154.71,97.367 L152.681,96.841 L152.681,95.618 L151.745,95.38 L151.409,95.609 L151.408,95.642 L148.267,97.853 L141.517,96.172 L139.038,92.21 L139.038,90.678 L137.706,90.819 L138.9,92.744 L138.9,98.402 L134.357,97.266 L133.523,97.864 L133.523,98.687 L132.33,98.687 L131.18,99.453 L130.789,98.804 L125.376,99.38 L125.376,99.4 L120.122,99.933 L118.757,100.915 L117.347,100.57 L117.347,101.932 L111.409,106.148 L105.998,110.019 L107.198,110.326 L107.198,115.551 L101.242,119.819 L99.1,119.289 L98.274,119.879 L93.484,118.681 L91.563,120.054 L88.221,119.228 L85.685,121.017 L78.491,119.205 L78.501,117.493 L76.682,118.802 L71.12,117.393 L70.665,116.699 L70.665,116.79 L52.135,118.694 L52.135,119.375 L34.419,121.269 L33.801,119.416 L33.801,118.277 L29.931,119.146 L27.127,118.435 L25.299,118.621 L24.188,119.404 L19.116,118.162 L17.753,116.04 L10.205,116.883 L8.337,114.03 L8.368,108.958 L13.677,108.377 L10.163,102.985 L1.868,103.906 L0,101.076 L0.062,95.986 L1.915,95.778 L1.279,94.785 L1.31,89.7 L14.731,88.246 L14.771,85.862 L21.526,85.172 L23.74,88.562 L41.364,86.639 L43.974,90.603 L58.094,89.052 L58.86,90.23 L63.567,89.715 L63.575,88.436 L64.461,88.357 L64.476,86.45 L74.925,78.987 L78.441,79.871 L85.035,75.181 L92.233,76.976 L92.257,75.142 L111.722,61.233 L107.169,60.105 L107.233,54.844 L121.466,44.718 L133.92,47.805 L133.92,46.249 L134.954,45.521 L117.816,41.263 L117.848,36.009 L122.111,32.945 L144.948,30.478 C144.878,30.165 144.853,29.872 144.853,29.614 L144.872,28.95 C144.867,27.692 145.517,26.528 146.805,25.488 L146.639,25.359 L146.639,22.777 L154.859,20.425 L183.494,0 L197.107,3.375 L197.107,5.802 L256.094,20.473 L256.094,25.729 L239.34,37.669 L220.379,32.978 L214.637,37.077 L214.637,42.299 L203.731,50.035 L202.349,49.694 L202.349,54.685 L194.478,60.267 L192.027,59.64 L184.743,64.834 L184.726,67.544 L186.573,67.989 L186.552,71.375 L190.913,68.25 L209.351,72.849 L209.315,75.812 L212.387,73.609 L225.014,76.751 L228.508,74.278 L237.304,76.458 L237.239,81.719 L234.987,83.322 L239.579,84.442 L239.559,86.277 L246.652,88.065 L246.652,86.756 L243.099,85.853 L243.099,80.603 L255.15,72.038 L228.094,65.307 L228.126,60.07 L257.595,39.004 L280.786,44.777 L282.354,43.679 L293.507,46.42 L293.507,47.973 L300.442,49.692 L300.505,44.524 L304.754,41.468 L278.397,34.92 L278.461,29.664 L287.686,23.046 L293.991,24.617 L295.878,23.276 L295.917,21.235 L300.018,18.314 L302.117,18.843 L324.61,2.768 L420,26.539 L420,31.794 L406.458,41.445 L407.793,43.173 L407.762,48.393 L395.316,49.396 L380.104,60.262 L376.6,59.392 L376.6,60.023 L376.129,60.317 L376.129,62.235 L372.836,62.626 L372.346,62.983 C371.704,63.762 370.912,64.39 369.98,64.861 L370.033,64.944 L369.951,69.409 L366.404,71.963 L358.859,70.07 L357.632,70.953 L366.923,73.276 L366.923,78.506 L361.202,82.621 L351.729,80.245 L351.729,80.652 L343.283,86.657 L343.205,89.167 L341.935,90.114 L350.645,92.28 L350.581,97.516 L340.08,105.059 L329.243,102.33 L325.928,104.704 L313.44,101.587 L313.375,101.636 L313.375,103.205 L309.32,106.098 L303.089,104.543 L303.089,104.88 L320.463,109.195 L322.348,107.82 L329.962,109.73 L329.962,110.12 L335.632,111.528 L336.827,113.457 L336.768,115.201 L337.554,116.396 L339.245,116.828 L340.468,118.702 L340.413,123.195 L319.222,138.332 L315.609,138.672 L313.247,138.081 L312.451,136.823 L308.898,137.199 L308.898,138.293 L306.521,139.957 L302.271,140.4 L288.974,137.114 L288.974,135.304 L279.591,132.954 L279.56,135.094 L270.489,141.528 L263.161,139.702 L263.161,138.779 L255.172,136.785 L243.305,145.238 L233.737,142.859 L233.737,144.523 L226.941,149.398 L224.837,148.887 L224.36,149.226 L226.266,149.688 L226.234,154.952 L199.916,173.722 L199.916,173.872 L193.74,178.273 L192.976,178.29 L192.961,180.314 L181.012,188.849 L181.012,192.07 L172.128,198.396 L168.829,197.572 L163.409,201.419 L163.409,201.419 Z M163.409,201.419" class="outline"/>
            </g>
            <g class="label">
                <path d="M80.818,40.386 C80.53,39.97 80.21,39.65 79.841,39.41 C81.266,38.913 82.194,37.921 82.194,36.401 C82.194,34.464 80.882,33.184 77.985,33.184 C76.881,33.184 76.128,33.296 75.616,33.456 C75.216,33.584 75.104,33.824 75.104,34.224 L75.104,43.924 C75.104,44.324 75.376,44.564 75.729,44.564 C76.081,44.564 76.353,44.324 76.353,43.924 L76.353,39.746 L77.602,39.746 C78.77,39.746 79.235,40.226 79.811,41.155 C80.211,41.795 80.627,42.723 81.123,44.116 C81.219,44.372 81.395,44.564 81.731,44.564 C82.067,44.564 82.356,44.324 82.356,43.94 C82.356,43.828 82.324,43.668 82.26,43.508 C81.827,42.355 81.314,41.155 80.818,40.386 L80.818,40.386 Z M77.793,38.53 L76.353,38.53 L76.353,34.496 C76.801,34.432 77.233,34.368 77.922,34.368 C80.211,34.368 80.931,35.264 80.931,36.449 C80.93,38.098 79.378,38.578 77.793,38.53 L77.793,38.53 Z M33.221,33.248 C32.885,33.248 32.677,33.504 32.629,33.824 C32.181,36.881 31.605,39.97 30.868,43.044 L30.836,43.044 C29.972,40.227 29.284,36.865 28.531,34.512 C28.227,33.552 27.955,33.248 27.459,33.248 C27.026,33.248 26.707,33.584 26.435,34.448 C25.699,36.769 24.882,40.403 24.018,43.044 L23.986,43.044 C23.234,39.987 22.785,36.898 22.385,33.888 C22.305,33.456 22.081,33.248 21.729,33.248 C21.345,33.248 21.121,33.552 21.121,33.888 C21.121,34 21.153,34.192 21.169,34.256 C21.602,37.345 22.21,40.514 22.834,43.284 C23.058,44.244 23.394,44.564 23.938,44.564 C24.418,44.564 24.738,44.292 25.042,43.428 C25.906,40.931 26.514,38.178 27.443,35.009 L27.475,35.009 C28.435,38.178 28.996,40.947 29.764,43.428 C30.036,44.308 30.372,44.564 30.901,44.564 C31.381,44.564 31.701,44.228 31.893,43.492 C32.645,40.499 33.286,37.377 33.798,34.176 C33.83,34 33.83,33.888 33.83,33.808 C33.829,33.52 33.589,33.248 33.221,33.248 L33.221,33.248 Z M15.234,33.184 C12.353,33.184 10.528,35.521 10.528,39.122 C10.528,42.515 12.32,44.628 15.186,44.628 C18.067,44.628 19.892,42.275 19.892,38.674 C19.892,35.28 18.083,33.184 15.234,33.184 L15.234,33.184 Z M15.218,43.443 C13.073,43.443 11.824,41.698 11.824,39.186 C11.824,36.225 13.056,34.368 15.201,34.368 C17.394,34.368 18.595,36.113 18.595,38.61 C18.596,41.571 17.363,43.443 15.218,43.443 L15.218,43.443 Z M87.425,38.146 C86.065,37.618 85.184,37.202 85.184,36.081 C85.184,35.009 86.08,34.384 87.233,34.384 C87.905,34.384 88.465,34.528 88.914,34.688 C89.09,34.736 89.25,34.8 89.426,34.8 C89.714,34.8 89.987,34.56 89.987,34.208 C89.987,33.984 89.891,33.76 89.507,33.6 C88.963,33.376 88.114,33.184 87.362,33.184 C85.185,33.184 83.905,34.512 83.905,36.145 C83.905,37.762 85.009,38.514 86.61,39.138 C88.707,39.954 89.283,40.514 89.283,41.587 C89.283,42.723 88.387,43.476 86.994,43.476 C86.13,43.476 85.313,43.156 84.753,42.756 C84.497,42.58 84.353,42.484 84.113,42.484 C83.809,42.484 83.552,42.724 83.537,43.028 C83.521,43.332 83.681,43.524 83.889,43.668 C84.625,44.165 85.681,44.628 86.93,44.628 C89.123,44.628 90.532,43.332 90.532,41.507 C90.53,39.842 89.298,38.866 87.425,38.146 L87.425,38.146 Z M3.954,33.184 C3.346,33.184 2.385,33.232 1.745,33.392 C1.329,33.504 1.169,33.792 1.169,34.176 L1.169,43.652 C1.169,44.036 1.313,44.356 1.873,44.452 C2.385,44.548 3.026,44.628 4.114,44.628 C7.651,44.628 9.188,42.083 9.188,38.914 C9.188,35.601 7.635,33.184 3.954,33.184 L3.954,33.184 Z M4.146,43.443 C3.49,43.443 2.914,43.427 2.401,43.347 L2.401,34.463 C2.865,34.399 3.489,34.367 3.97,34.367 C6.835,34.367 7.94,36.24 7.94,38.801 C7.939,41.587 6.819,43.443 4.146,43.443 L4.146,43.443 Z M61.363,33.92 C61.363,33.6 61.139,33.312 60.787,33.312 L53.936,33.312 C53.584,33.312 53.344,33.616 53.344,33.92 C53.344,34.224 53.536,34.512 53.936,34.512 L56.689,34.512 L56.689,43.924 C56.689,44.324 56.961,44.564 57.313,44.564 C57.649,44.564 57.921,44.324 57.921,43.924 L57.921,34.512 L60.786,34.512 C61.155,34.512 61.363,34.208 61.363,33.92 L61.363,33.92 Z M66.962,34.72 C66.338,33.471 65.842,33.103 65.281,33.103 C64.721,33.103 64.225,33.471 63.6,34.72 C62.704,36.529 62.016,38.802 60.847,43.428 C60.783,43.652 60.751,43.828 60.751,43.94 C60.751,44.324 61.007,44.564 61.359,44.564 C61.647,44.564 61.855,44.388 61.935,44.052 C62.239,42.676 62.543,41.443 62.848,40.386 L67.714,40.386 C68.002,41.443 68.306,42.675 68.627,44.052 C68.707,44.388 68.915,44.564 69.203,44.564 C69.555,44.564 69.811,44.324 69.811,43.94 C69.811,43.828 69.763,43.652 69.715,43.428 C68.579,38.802 67.858,36.529 66.962,34.72 L66.962,34.72 Z M63.168,39.266 C63.904,36.817 64.561,35.296 65.073,34.496 C65.121,34.432 65.169,34.368 65.281,34.368 C65.393,34.368 65.441,34.432 65.489,34.496 C66.001,35.296 66.641,36.817 67.378,39.266 L63.168,39.266 L63.168,39.266 Z M43.508,33.248 C43.155,33.248 42.947,33.504 42.947,33.904 L42.947,42.467 L42.915,42.467 L37.345,33.727 C37.137,33.391 36.865,33.247 36.512,33.247 C36.032,33.247 35.712,33.583 35.712,34.159 L35.712,43.923 C35.712,44.323 35.968,44.563 36.304,44.563 C36.656,44.563 36.896,44.323 36.896,43.923 L36.896,35.263 L36.928,35.263 L42.434,44.019 C42.642,44.339 42.898,44.563 43.267,44.563 C43.795,44.563 44.083,44.147 44.083,43.715 L44.083,33.903 C44.084,33.503 43.86,33.248 43.508,33.248 L43.508,33.248 Z M72.16,33.248 C71.807,33.248 71.535,33.504 71.535,33.904 L71.535,43.924 C71.535,44.324 71.791,44.564 72.143,44.564 C72.495,44.564 72.767,44.324 72.767,43.924 L72.767,33.904 C72.768,33.503 72.512,33.248 72.16,33.248 L72.16,33.248 Z M49.602,38.146 C48.241,37.618 47.361,37.202 47.361,36.081 C47.361,35.009 48.257,34.384 49.41,34.384 C50.082,34.384 50.642,34.528 51.091,34.688 C51.267,34.736 51.427,34.8 51.603,34.8 C51.891,34.8 52.163,34.56 52.163,34.208 C52.163,33.984 52.067,33.76 51.683,33.6 C51.139,33.376 50.29,33.184 49.538,33.184 C47.361,33.184 46.081,34.512 46.081,36.145 C46.081,37.762 47.185,38.514 48.786,39.138 C50.883,39.954 51.459,40.514 51.459,41.587 C51.459,42.723 50.563,43.476 49.17,43.476 C48.306,43.476 47.489,43.156 46.929,42.756 C46.673,42.58 46.529,42.484 46.289,42.484 C45.985,42.484 45.728,42.724 45.713,43.028 C45.697,43.332 45.857,43.524 46.065,43.668 C46.801,44.165 47.857,44.628 49.106,44.628 C51.299,44.628 52.708,43.332 52.708,41.507 C52.707,39.842 51.474,38.866 49.602,38.146 L49.602,38.146 Z M49.602,38.146" class="Shape"/>
            </g>
            <g class="background">
                <path d="M372.929,57.191 L369.061,57.623 L348.588,52.519 L347.803,51.263 L349,50.438 L351.395,51.046 L353.692,49.397 L353.692,48.75 L333.277,43.666 L331.471,44.176 L323.128,50.124 L323.128,50.752 L323.422,51.145 L325.483,54.364 L307.444,67.221 L302.654,67.712 L301.574,67.477 L298.669,69.558 L298.629,70.166 L299.532,70.421 L300.454,72.188 L265.28,97.294 L261.59,97.687 L258.743,97 L238.132,98.865 L215.48,93.192 L214.773,92.211 L215.814,91.465 L215.814,90.817 L203.82,87.853 L196.91,88.579 L172.02,82.356 L171.451,81.434 L170.627,82.148 L158.73,63.25 L162.128,60.859 L162.128,60.198 L160.272,57.24 L182.957,41.067 L191.169,40.186 L195.071,37.983 L195.858,37.417 L195.858,36.756 L192.114,30.778 L194,30.778 L196.108,29.268 L196.108,28.607 L183.994,25.586 L176.694,30.777 L173.359,31.154 L158.981,27.567 L156.652,23.886 L183.837,4.473 L193.339,6.864 L195.667,5.197 L195.667,4.538 L183.773,1.581 L154.984,22.126 L147.496,24.266 L147.496,24.895 L148.88,25.996 C148.209,26.31 147.674,26.615 147.276,26.908 C146.186,27.705 145.651,28.523 145.672,29.362 L145.641,30.023 C145.641,30.967 146.197,31.816 147.308,32.571 L155.268,31.722 L168.609,35.057 L170.497,37.889 L172.448,38.392 L173.141,39.461 L151.777,54.69 L143.943,55.477 L140.167,58.152 L140.167,58.812 L142.433,62.399 L142.558,62.838 L148.631,64.349 L154.106,73.033 L151.62,74.795 L147.561,75.424 L144.105,77.915 L143.715,77.816 L138.363,81.63 L138.363,82.246 L139.101,83.445 L136.487,85.322 L113.572,87.659 L108.958,86.521 L100.377,87.413 L97.209,89.658 L97.209,90.304 L99.085,93.442 L96.287,95.442 L96.287,96.088 L96.656,96.519 L94.811,97.841 L92.688,98.057 L89.92,100.025 L89.92,100.671 L90.289,101.224 L89.12,102.085 L86.69,102.393 L84.567,103.9 L54.36,107.1 L52.637,106.731 L40.949,107.962 L26.492,111.96 L25.108,112.944 L22.74,113.191 L20.31,112.606 L18.311,114.021 L18.311,114.668 L20.033,117.374 L23.786,118.297 L24.647,117.681 L27.139,117.436 L29.846,118.112 L35.352,116.882 L36.429,115.806 L41.504,115.284 L44.241,113.315 L70.14,110.946 L70.693,110.577 L77.491,109.838 L77.737,110.238 L79.214,110.084 L79.214,109.653 L85.888,108.915 L86.996,109.192 L88.473,109.039 L91.456,109.808 L93.148,109.561 L95.116,110.054 L97.146,108.116 L102.56,104.24 L103.514,104.087 L103.514,103.564 L105.667,102.026 L106.62,101.873 L106.62,101.35 L108.957,99.689 L109.911,99.535 L109.911,98.98 L110.895,98.272 L111.848,98.149 L114.525,96.088 L114.525,95.442 L113.664,94.088 L116.462,92.089 L165.491,86.983 L166.679,85.952 L166.72,85.948 L192.866,92.446 L194.397,95.057 L201.582,96.843 L208.766,96.136 L234.069,102.456 L235.364,103.987 L233.794,105.126 L233.794,105.773 L234.402,106.617 L224.313,113.841 L220.976,113.016 L220.936,113.644 L221.368,114.233 L222.565,114.547 L222.84,114.88 L196.673,133.568 L187.055,134.608 L183.777,136.944 L183.777,137.592 L187.605,143.323 L156.904,165.23 L156.904,165.878 L189.94,174.142 L190.981,175.752 L193.023,175.732 L198.107,172.1 L198.107,171.472 L197.341,170.667 L196.418,171.334 L195.201,171.04 L194.416,171.589 L173,166.25 L172.509,164.66 L181.362,158.319 L181.362,157.711 L180.027,155.591 L196.634,143.794 L198.106,144.148 L200.56,142.401 L200.56,141.753 L200.187,141.243 L205.075,137.749 L205.075,137.102 L204.152,136.081 L238.268,111.721 L242.606,111.191 L245.57,111.937 L266.927,109.7 L274.112,104.576 L274.112,103.929 L271.992,100.788 L271.698,100.709 L306.992,75.505 L310.879,75.112 L317.2,70.597 L317.239,69.95 L316.258,68.419 L332.413,56.877 L341.541,55.935 L364.331,61.647 L365.352,63.237 L368.021,62.923 L373.635,58.938 L373.635,58.33 L372.929,57.191 L372.929,57.191 Z M372.929,57.191" class="walkway"/>
                <path d="M242.46,110.603 L242.617,110.623 L242.735,110.839 L242.735,110.662 L245.189,111.369 L249.292,110.937 L249.292,110.996 L266.821,109.151 L273.319,104.499 L273.319,104.087 L271.945,104.185 L270.787,103.91 L270.787,100.71 L298.798,81.356 L347.735,93.016 L347.715,96.216 L338.509,102.812 L327.732,100.103 L324.454,102.478 L312.048,99.376 L310.733,100.318 L310.733,101.849 L307.945,103.851 L295.166,100.651 L293.046,102.163 L293.046,102.399 L292.693,102.438 L300.545,104.401 L300.545,105.54 L311.734,108.327 L311.773,108.327 L319.664,110.29 L321.568,108.936 L327.241,110.349 L327.241,110.761 L333.405,112.292 L334.013,113.273 L333.993,115.02 L335.347,117.14 L337.035,117.572 L337.643,118.514 L337.604,121.714 L317.562,136.044 L314.657,136.319 L313.145,135.946 L312.164,134.415 L306.275,135.023 L306.275,136.711 L304.921,137.672 L301.368,138.026 L289.61,135.121 L289.649,133.335 L277.774,130.351 L277.185,130.783 L277.165,133.512 L269.392,139.047 L263.974,137.693 L263.974,136.77 L253.354,134.14 L253.354,134.906 L242.361,142.718 L231.663,140.049 L231.624,142.915 L226.128,146.861 L224.008,146.351 L220.18,149.08 L224.204,150.061 L224.165,153.26 L198.882,171.3 L197.508,170.927 L192.444,174.539 L190.383,174.029 L191.188,175.246 L191.149,178.446 L179.253,186.946 L179.253,190.146 L171.676,195.544 L168.378,194.7 L163.019,198.548 L154.539,196.428 L151.752,198.45 L133.005,193.798 L133.045,191.05 L128.255,189.892 L125.448,191.894 L106.702,187.222 L106.741,184.514 L94.316,181.432 L94.336,178.233 L101.854,172.854 L98.733,172.069 L98.753,168.869 L105.761,163.864 L112.199,165.474 L123.957,157.092 L129.139,158.388 L137.58,152.342 L127.019,149.692 L127.019,146.512 L143.429,134.793 L164.158,139.975 L164.178,137.816 L167.77,135.245 L168.084,135.343 L168.261,135.363 L168.261,135.186 L169.675,134.205 L167.928,133.734 L164.67,136.07 L160.429,135.029 L160.429,131.908 L154.599,130.435 L153.127,131.495 L145.923,129.689 L145.923,128.276 L143.626,127.687 L140.897,129.669 L134.91,128.157 L134.93,124.958 L137.325,123.25 L135.519,122.818 L135.519,119.618 L151.851,107.997 L156.935,109.253 L162.981,104.954 L190.227,111.746 L196.195,107.506 L156.229,97.534 L156.268,95.669 L154.246,95.139 L154.246,93.686 L153.755,93.784 L151.439,93.195 L150.34,93.98 L149.908,93.882 L149.888,94.314 L147.984,95.668 L142.586,94.314 L140.682,91.311 L140.682,88.111 L166.75,85.343 L169.302,85.991 L169.302,85.108 L170.774,84.067 L169.616,82.222 L169.636,80.907 L168.87,80.966 L158.82,65.028 L158.84,61.848 L161.019,60.278 L160.352,59.198 L160.254,59.198 L160.254,59.08 L160.234,59.021 L160.254,55.841 L160.47,55.9 L179.275,42.454 L181.022,42.886 L181.022,42.14 L176.998,41.218 L176.998,37.175 L181.768,38.274 L185.34,35.742 L185.301,39.452 L184.947,39.727 L190.816,39.118 L193.702,37.057 L192.171,34.662 L192.072,34.544 L191.189,33.131 L191.209,30.677 L183.083,28.615 L183.083,29.479 L176.919,33.896 L173.503,34.229 L159.37,30.735 L156.779,26.652 L156.819,23.453 L160.647,20.704 L161.55,20.92 L161.55,20.056 L177.372,8.788 L177.529,8.631 L181.121,6.099 L182.142,6.373 L182.142,5.391 L183.732,4.253 L253.849,21.704 L253.849,24.904 L238.44,35.877 L219.595,31.225 L212.843,36.034 L212.235,35.877 L212.235,36.741 L210.881,37.703 L212.668,38.155 L212.668,41.354 L203.069,48.166 L198.711,47.086 L196.925,48.342 L194.53,47.753 L194.569,46.32 L193.588,46.065 L192.076,47.145 L190.506,46.752 L190.506,47.969 L200.458,50.462 L200.458,53.662 L193.882,58.314 L191.428,57.706 L181.79,64.576 L180.593,64.262 L180.593,64.36 L182.968,64.949 L182.929,68.129 L182.595,68.384 L184.774,68.894 L184.754,72.094 L175.94,78.375 L179.219,78.042 L190.996,69.64 L207.387,73.723 L207.367,76.903 L204.344,79.062 L205.973,79.494 L212.294,74.94 L224.857,78.081 L228.312,75.627 L235.163,77.315 L235.124,80.495 L230.805,83.597 L230.962,83.656 L237.42,85.266 L237.4,87.072 L246.9,89.467 L249.864,87.347 L247.587,86.797 L247.607,85.109 L244.093,84.206 L244.093,81.026 L255.105,73.174 L264.37,75.51 L264.37,74.175 L266.058,72.978 L229.134,63.811 L229.174,60.611 L257.225,40.589 L280.231,46.321 L281.821,45.222 L291.027,47.479 L291.027,49.03 L299.9,51.229 L299.88,54.428 L298.82,55.156 L301.058,55.705 L308.714,50.288 L301.039,48.384 L301.059,45.185 L307.38,40.65 L279.133,33.623 L279.153,30.423 L287.103,24.711 L293.365,26.281 L296.466,24.082 L296.506,22.04 L299.352,20.018 L301.433,20.548 L323.772,4.589 L416.698,27.732 L416.659,30.912 L402.545,40.982 L404.527,43.554 L404.507,46.773 L393.161,47.695 L378.262,58.315 L372.845,56.961 L373.119,57.393 L373.119,60.593 L369.036,61.044 L348.405,55.921 L347.305,54.174 L347.345,50.994 L347.718,50.7 L343.203,49.581 L340.278,49.934 L339.512,48.658 L331.699,46.715 L331.699,47.481 L324.731,52.467 L325.948,54.332 L325.928,57.532 L307.515,70.664 L302.607,71.155 L301.626,70.9 L300.605,71.646 L300.879,72.215 L300.859,75.415 L294.323,80.047 L293.184,79.772 L293.184,80.872 L265.389,100.717 L261.541,101.129 L258.655,100.324 L246.386,101.678 L245.581,101.501 L238.063,102.267 L215.292,96.575 L214.232,95.142 L214.252,93.886 L203.77,91.275 L196.861,91.982 L194.191,91.334 L193.917,91.236 L175.543,86.682 L175.543,87.565 L193.034,91.923 L194.565,94.534 L201.612,96.281 L208.758,95.574 L209.052,95.652 L209.052,94.553 L212.134,95.378 L213.548,94.337 L213.548,96.143 L212.37,97.046 L211.957,96.869 L211.957,99.558 L206.402,103.523 L207.226,103.7 L213.056,99.558 L214.017,99.774 L217.02,97.635 L234.196,101.914 L235.884,103.916 L235.864,107.116 L234.902,107.783 L234.902,109.746 L224.361,117.304 L223.38,117.049 L223.38,118.011 L196.742,136.973 L190.598,137.68 L190.539,137.68 L187.123,138.034 L185.415,139.271 L188.104,143.255 L188.084,146.475 L186.573,147.555 L185.317,147.241 L185.317,148.438 L160.426,166.183 L172.675,169.245 L172.126,167.459 L172.165,164.279 L179.762,158.842 L179.586,158.567 L179.488,158.527 L179.488,158.409 L179.468,158.35 L179.488,155.17 L179.704,155.229 L186.122,150.656 L186.299,150.499 L196.546,143.197 L199.687,143.963 L199.687,140.96 L202.298,139.115 L202.475,138.958 L203.574,138.193 L203.574,135.838 L206.617,133.679 L206.794,133.522 L220.77,123.589 L221.536,123.766 L221.556,123.039 L232.705,115.089 L232.862,114.932 L237.848,111.399 L237.848,111.222 L238.162,111.202 L238.221,111.123 L238.28,111.162 L242.304,110.671 L242.304,110.553 L242.46,110.603 M242.46,110.603 L242.303,110.544 M366.971,68.635 L364.635,70.303 L358.903,68.85 L358.942,67.692 L357.313,67.26 L357.274,68.32 L352.622,71.676 L363.928,74.503 L363.928,77.683 L359.492,80.883 L348.833,78.213 L348.833,79.803 L340.471,85.751 L340.431,88.283 L339.234,89.127 L337.428,89.264 L303.606,80.823 L303.646,77.623 L306.865,75.327 L310.752,74.895 L315.679,71.42 L315.699,68.318 L315.915,68.397 L322,64.039 L323.747,64.491 L323.747,62.803 L332.306,56.699 L341.532,55.718 L364.498,61.43 L367.011,65.454 L366.971,68.635 M138.738,45.001 L119.599,40.251 L119.619,37.071 L122.878,34.735 L155.934,31.163 L159.801,32.164 L159.801,34.146 L161.921,32.615 L169.145,34.421 L170.931,37.209 L172.835,37.7 L173.777,39.251 L173.777,42.431 L155.561,55.446 L152.99,54.798 L152.95,57.527 L144.98,58.293 L142.762,59.863 L143.626,61.217 L143.626,61.511 L149.574,63.023 L155.247,71.993 L155.227,75.173 L152.459,77.175 L148.494,77.744 L140.308,83.613 L140.269,85.968 L137.325,88.088 L114.417,90.483 L109.588,89.286 L108.528,87.637 L108.528,89.404 L101.285,90.17 L99.557,91.407 L100.382,92.781 L100.362,95.981 L97.987,97.669 L97.987,98.984 L95.749,100.574 L93.629,100.829 L91.587,102.262 L91.587,103.735 L90.056,104.815 L87.622,105.148 L85.541,106.659 L55.566,109.82 L55.566,109.918 L55.272,109.839 L55.154,109.878 L55.134,109.819 L53.524,109.485 L41.962,110.682 L27.593,114.667 L26.199,115.648 L23.706,115.923 L21.154,115.276 L20.33,114.019 L11.928,114.942 L10.848,113.313 L10.888,110.133 L17.287,109.426 L11.889,101.142 L3.644,102.045 L2.564,100.435 L2.604,97.236 L5.568,96.902 L3.821,94.193 L3.861,91.013 L17.17,89.56 L17.209,87.205 L21.587,86.734 L23.805,90.11 L41.315,88.206 L43.906,92.151 L57.922,90.601 L58.688,91.779 L63.498,91.249 L67.365,97.177 L67.365,98.551 L69.093,98.335 L65.677,92.976 L65.716,89.776 L66.58,89.678 L66.6,87.165 L75.747,80.628 L79.241,81.531 L85.778,76.859 L94.16,78.94 L94.199,75.937 L115.635,60.626 L109.04,58.977 L109.079,55.777 L121.996,46.61 L135.579,49.986 L135.579,47.257 L138.738,45.001 M70.839,109.759 L71.486,109.327 L78.514,108.581 L79.338,109.837 L79.299,113.036 L79.181,113.076 L79.181,113.842 L77.866,113.979 L77.827,116.099 L76.845,116.806 L72.625,115.746 L70.799,112.978 L70.839,109.759 M65.382,110.034 L68.562,109.72 L69.485,109.916 L70.506,111.192 L70.467,114.391 L69.643,114.47 L69.643,115.098 L51.23,117.002 L51.23,117.669 L36.292,119.259 L36.135,118.866 L36.174,115.666 L37.273,114.566 L42.337,114.016 L45.105,112.053 L57.432,110.797 L58.04,110.954 L58.59,110.699 L64.341,110.051 L65.068,110.247 L65.382,110.034 M87.897,107.953 L89.369,107.796 L92.353,108.562 L94.001,108.307 L97.711,109.23 L97.751,106.973 L100.146,105.245 L100.873,105.127 L100.873,104.715 L103.268,103.027 L103.975,102.909 L104.015,102.516 L106.37,100.788 L107.077,100.709 L107.116,100.277 L109.648,98.471 L110.355,98.373 L110.355,97.941 L111.592,97.077 L112.691,96.92 L114.634,97.391 L113.947,96.351 L113.986,93.151 L117.147,90.913 L121.348,90.461 L121.741,91.089 L121.741,90.422 L134.932,89.048 L137.425,93.052 L137.425,96.252 L134.147,95.427 L132.086,96.899 L132.086,96.958 L131.988,96.958 L131.811,97.076 L131.752,96.978 L124.411,97.763 L123.979,97.135 L123.979,97.823 L119.759,98.255 L118.64,99.04 L116.01,98.392 L116.01,100.944 L111.377,104.222 L110.769,104.084 L110.769,104.653 L105.018,108.775 L104.037,108.52 L104.037,109.482 L102.663,110.463 L105.941,111.288 L105.941,114.468 L101.25,117.825 L99.13,117.295 L98.305,117.884 L93.555,116.686 L91.651,118.061 L88.334,117.236 L85.821,119.022 L80.541,117.707 L80.581,114.507 L81.15,114.114 L79.6,111.621 L79.62,108.441 L86.647,107.656 L86.706,107.635 L86.804,107.656 L87.138,107.597 L87.138,107.734 L87.897,107.953 M161.724,74.661 L161.724,76.565 L159.388,76.565 L159.388,74.661 L161.724,74.661 M159.408,74.622 L159.408,76.624 L158.211,74.229 L158.211,72.227 L159.408,74.622 M223.027,96.705 L223.027,98.511 L221.653,99.649 L221.653,97.843 L223.027,96.705 M218.826,97.176 L221.653,97.942 L221.653,99.571 L218.826,98.806 L218.826,97.176 M232.547,114.823 L231.094,115.824 L231.094,114.195 L232.547,113.174 L232.547,114.823 M231.115,115.844 L228.465,115.197 L228.465,113.568 L231.115,114.235 L231.115,115.844 M199.727,138.889 L199.707,137.005 L201.101,135.945 L201.101,137.751 L199.727,138.889 M197.136,138.222 L197.097,136.357 L199.727,137.005 L199.766,138.85 L197.136,138.222 M309.201,73.385 L307.356,74.975 L307.356,72.875 L309.221,71.363 L309.201,73.385 M307.376,72.934 L307.376,74.996 L305.256,74.25 L305.256,72.189 L307.376,72.934 M346.281,55.817 L344.181,57.25 L344.181,55.268 L346.379,53.796 L346.281,55.817 M344.397,57.112 L342.532,56.778 L342.532,54.717 L344.416,55.11 L344.397,57.112 M330.008,57.583 L327.908,59.232 L327.908,57.092 L330.008,55.757 L330.008,57.583 M327.947,57.171 L327.947,59.233 L326.2,58.86 L326.2,56.799 L327.947,57.171 M283.977,91.778 L281.935,93.25 L281.935,91.248 L283.996,89.756 L283.977,91.778 M281.936,93.27 L279.993,92.779 L279.993,90.718 L281.936,91.209 L281.936,93.27" class="wall"/>
            </g>
            <g class="ceilings">
                <path class="unit" d="M368.79,57.979 L356.613,54.942 L360.232,52.366 L370.691,54.942 L372.378,57.549 L368.79,57.979" id="1001"/>
                <path class="unit" d="M359.926,52.274 L356.307,54.85 L351.246,53.593 L354.865,51.017 L359.926,52.274" id="1002"/>
                <path class="unit" d="M360.355,64.665 L347.474,61.444 L351.737,58.438 L363.882,61.475 L366.336,65.339 L364.25,66.812 L359.129,65.523 L360.355,64.665" id="1003"/>
                <path class="unit" d="M359.098,77.393 L344.437,73.743 L342.628,75.031 L315.915,68.375 L321.833,64.174 L363.177,74.479 L359.098,77.393" id="1004"/>
                <path class="unit" d="M377.837,55.218 L342.965,46.508 L340.267,46.845 L339.561,45.649 L297.482,35.16 L289.661,33.258 L279.355,30.652 L286.992,25.223 L293.219,26.787 L298.77,22.8 L296.684,22.279 L299.199,20.5 L301.284,21.021 L323.613,5.073 L415.868,28.075 L400.288,39.208 L403.753,43.748 L392.712,44.637 L377.837,55.218" id="1005"/>
                <path class="unit" d="M322.815,41.662 L329.961,43.441 L328.979,44.146 L330.943,44.637 L322.662,50.526 L322.846,50.771 L301.254,45.404 L309.474,39.546 L321.558,42.551 L322.815,41.662" id="1006"/>
                <path class="unit" d="M302.941,54.758 L319.319,58.837 L316.098,61.107 L299.751,57.028 L302.941,54.758" id="1007"/>
                <path class="unit" d="M299.261,57.089 L315.945,61.229 L309.934,65.523 L293.096,61.321 L290.765,57.825 L295.09,54.728 L300.641,56.107 L299.261,57.089" id="1008"/>
                <path class="unit" d="M288.71,48.961 L299.138,51.538 L290.366,57.794 L292.789,61.414 L309.78,65.646 L307.051,67.578 L302.389,68.069 L301.224,67.793 L298.126,70.001 L299.107,70.247 L300.242,72.455 L297.175,74.632 L296.193,73.007 L281.84,69.418 L277.178,72.731 L229.395,60.831 L257.089,41.08 L280.092,46.815 L281.687,45.68 L290.274,47.827 L288.71,48.961" id="1009"/>
                <path class="unit" d="M279.111,73.222 L277.485,72.823 L278.742,71.903 L280.368,72.332 L279.111,73.222" id="1010"/>
                <path class="unit" d="M281.042,71.872 L280.552,72.209 L278.927,71.78 L281.962,69.603 L295.887,73.099 L296.899,74.816 L293.955,76.933 L283.128,74.233 L285.029,72.854 L281.042,71.872" id="1011"/>
                <path class="unit" d="M275.645,74.264 L280.398,75.46 L281.595,74.602 L286.839,75.92 L287.054,76.289 L284.876,77.853 L274.326,75.215 L275.645,74.264" id="1012"/>
                <path class="unit" d="M268.314,76.81 L265.83,76.196 L266.505,75.706 L268.99,76.319 L268.314,76.81" id="1013"/>
                <path class="unit" d="M268.867,74.019 L269.879,74.264 L268.376,75.338 L267.364,75.092 L268.867,74.019" id="1014"/>
                <path class="unit" d="M266.659,75.583 L267.18,75.215 L272.455,76.534 L274.142,75.338 L290.458,79.417 L287.453,81.564 L268.621,76.872 L269.45,76.289 L266.659,75.583" id="1015"/>
                <path class="unit" d="M267.057,75.031 L264.603,74.418 L266.106,73.344 L268.56,73.958 L267.057,75.031" id="1016"/>
                <path class="unit" d="M270.155,74.356 L273.835,75.276 L272.333,76.319 L268.652,75.43 L270.155,74.356" id="1017"/>
                <path class="unit" d="M258.285,76.043 L253.348,74.786 L254.973,73.651 L259.911,74.878 L258.285,76.043" id="1018"/>
                <path class="unit" d="M257.948,80.337 L251.722,84.784 L247.857,83.803 L249.422,82.667 L250.955,83.066 L255.586,79.754 L257.948,80.337" id="1019"/>
                <path class="unit" d="M260.218,74.939 L287.269,81.686 L281.257,85.98 L255.433,79.539 L250.832,82.852 L244.331,81.226 L253.164,74.939 L258.408,76.227 L260.218,74.939" id="1020"/>
                <path class="unit" d="M258.255,80.429 L281.074,86.103 L278.129,88.219 L255.279,82.545 L258.255,80.429" id="1021"/>
                <path class="unit" d="M258.531,97.297 L255.372,97.635 L253.194,94.169 L257.672,90.979 L248.501,88.679 L250.158,87.514 L271.627,92.85 L264.91,97.635 L261.383,98.034 L258.531,97.297" id="1022"/>
                <path class="unit" d="M277.976,95.948 L291.838,99.414 L271.78,101.101 L271.014,100.917 L277.976,95.948" id="1023"/>
                <path class="unit" d="M271.811,92.728 L250.342,87.36 L253.225,85.306 L274.694,90.673 L271.811,92.728" id="1024"/>
                <path class="unit" d="M277.945,88.342 L274.877,90.55 L252.029,84.845 L255.096,82.667 L277.945,88.342" id="1025"/>
                <path class="unit" d="M292.543,77.914 L290.642,79.294 L285.183,77.914 L287.361,76.35 L288.219,76.258 L292.115,77.239 L292.543,77.914" id="1026"/>
                <path class="unit" d="M286.226,90.06 L311.498,96.377 L308.584,98.463 L283.282,92.145 L286.226,90.06" id="1027"/>
                <path class="unit" d="M283.128,92.298 L309.995,98.984 L307.572,100.702 L292.666,96.991 L292.176,97.359 L280.184,94.384 L283.128,92.298" id="1028"/>
                <path class="unit" d="M294.629,97.666 L292.268,99.321 L278.16,95.825 L280.03,94.507 L292.298,97.574 L292.82,97.206 L294.629,97.666" id="1029"/>
                <path class="unit" d="M291.716,104.076 L271.474,106.192 L274.05,104.352 L273.528,103.524 L289.508,101.837 L291.747,102.695 L299.782,104.689 L299.414,104.965 L292.789,103.309 L291.716,104.076" id="1030"/>
                <path class="unit" d="M352.013,50.311 L354.559,50.924 L350.939,53.531 L348.455,52.887 L347.413,51.292 L348.762,50.342 L351.155,50.924 L352.013,50.311" id="1031"/>
                <path class="unit" d="M351.43,58.347 L347.167,61.383 L346.094,61.107 L344.805,62.027 L330.022,58.347 L332.23,56.751 L341.217,55.801 L351.43,58.347" id="1032"/>
                <path class="unit" d="M325.269,54.574 L322.202,56.783 L305.824,52.703 L311.467,48.686 L323.336,51.629 L325.269,54.574" id="1033"/>
                <path class="unit" d="M319.472,58.715 L303.125,54.636 L305.671,52.826 L322.018,56.905 L319.472,58.715" id="1034"/>
                <path class="unit" d="M315.976,68.56 L348.087,76.565 L339.53,82.667 L334.899,81.533 L333.09,82.821 L308.737,76.718 L308.677,75.154 L310.731,74.939 L317.111,70.4 L315.976,68.56" id="1035"/>
                <path class="unit" d="M321.865,81.993 L303.831,77.485 L306.836,75.368 L308.339,75.215 L308.37,76.81 L323.735,80.644 L321.865,81.993" id="1036"/>
                <path class="unit" d="M324.042,80.736 L337.567,84.079 L337.107,84.416 L339.714,85.029 L338.764,85.704 L337.23,85.827 L322.171,82.054 L324.042,80.736" id="1037"/>
                <path class="unit" d="M330.605,96.899 L337.66,98.678 L338.12,98.31 L339.5,98.678 L338.12,99.659 L329.686,97.574 L330.605,96.899" id="1038"/>
                <path class="unit" d="M329.839,58.469 L356.521,65.125 L350.633,69.326 L323.919,62.671 L329.839,58.469" id="1039"/>
                <path class="unit" d="M206.883,37.215 L211.974,38.473 L208.784,40.742 L194.768,37.246 L195.473,36.724 L192.314,31.725 L195.841,31.357 L197.283,30.345 L211.544,33.872 L206.883,37.215" id="1040"/>
                <path class="unit" d="M212.495,32.952 L165.355,21.174 L168.269,19.12 L164.711,18.23 L167.932,15.96 L173.084,17.249 L177.01,14.427 L171.857,13.139 L172.133,12.955 L177.286,14.243 L181.488,11.237 L180.169,10.931 L180.874,10.409 L177.041,9.428 L177.47,9.152 L180.261,9.857 L181.089,9.274 L181.58,9.397 L180.782,9.98 L182.592,10.44 L185.383,8.477 L184.371,8.201 L186.548,6.667 L182.408,5.625 L183.634,4.735 L253.132,22.064 L238.074,32.798 L219.273,28.106 L212.495,32.952" id="1041"/>
                <path class="unit" d="M184.892,8.508 L182.469,10.225 L181.273,9.949 L182.07,9.366 L180.966,9.09 L180.138,9.643 L177.623,9.029 L181.028,6.606 L184.861,7.557 L183.88,8.262 L184.892,8.508" id="1042"/>
                <path class="unit" d="M179.678,10.961 L180.997,11.299 L177.163,14.028 L172.317,12.832 L176.887,9.582 L180.414,10.44 L179.678,10.961" id="1043"/>
                <path class="unit" d="M171.673,13.262 L176.52,14.488 L172.961,17.034 L168.116,15.838 L171.673,13.262" id="1044"/>
                <path class="unit" d="M164.558,18.384 L167.778,19.181 L165.049,21.113 L161.828,20.316 L164.558,18.384" id="1045"/>
                <path class="unit" d="M160.571,21.205 L167.932,23.015 L160.877,28.075 L159.498,27.707 L156.982,23.751 L160.571,21.205" id="1046"/>
                <path class="unit" d="M159.099,32.124 L153.456,36.172 L150.849,35.528 L141.341,42.306 L136.25,41.018 L137.783,39.945 L132.048,38.503 L130.545,39.607 L124.963,38.196 L130.974,33.933 L155.694,31.265 L159.099,32.124" id="1047"/>
                <path class="unit" d="M160.816,38.258 L170.937,40.773 L167.932,42.919 L150.572,38.595 L152.781,37.033 L158.608,38.475 L160.816,38.258" id="1048"/>
                <path class="unit" d="M160.387,36.233 L169.619,35.988 L170.416,37.246 L172.317,37.736 L173.207,39.147 L171.121,40.65 L160.847,38.104 L158.608,38.319 L155.234,37.46 L155.939,36.97 L158.455,37.583 L160.387,36.233" id="1049"/>
                <path class="unit" d="M158.332,37.399 L156.124,36.847 L161.828,32.737 L168.637,34.455 L169.526,35.866 L160.172,36.08 L158.332,37.399" id="1050"/>
                <path class="unit" d="M173.36,31.173 L161.184,28.137 L168.238,23.106 L182.408,26.634 L176.488,30.866 L173.36,31.173" id="1051"/>
                <path class="unit" d="M185.414,40.067 L186.242,41.386 L193.081,43.074 L191.762,44.024 L181.304,41.418 L182.807,40.344 L185.414,40.067" id="1052"/>
                <path class="unit" d="M190.842,39.515 L194.032,37.246 L208.6,40.865 L202.742,45.066 L198.387,43.962 L196.608,45.25 L194.829,44.791 L196.332,43.717 L186.518,41.294 L185.751,40.037 L190.842,39.515" id="1053"/>
                <path class="unit" d="M180.567,34.547 L176.949,37.123 L181.764,38.227 L185.26,35.681 L180.567,34.547" id="1054"/>
                <path class="unit" d="M195.626,31.234 L192.222,31.572 L191.456,30.343 L193.572,30.343 L194.522,29.668 L196.976,30.251 L195.626,31.234" id="1055"/>
                <path class="unit" d="M193.572,55.188 L170.17,49.36 L173.33,47.122 L196.7,52.949 L193.572,55.188" id="1056"/>
                <path class="unit" d="M196.884,52.826 L173.483,46.999 L176.366,44.944 L199.767,50.771 L196.884,52.826" id="1057"/>
                <path class="unit" d="M187.192,47.458 L176.55,44.821 L179.187,42.919 L189.83,45.588 L187.192,47.458" id="1058"/>
                <path class="unit" d="M187.806,56.936 L166.858,51.722 L170.017,49.483 L190.934,54.697 L187.806,56.936" id="1059"/>
                <path class="unit" d="M182.254,65.247 L178.605,67.854 L184.064,69.234 L172.471,77.485 L168.913,77.883 L166.766,74.418 L170.293,74.05 L178.359,68.284 L177.01,67.946 L181.15,64.971 L182.254,65.247" id="1060"/>
                <path class="unit" d="M181.488,61.444 L160.54,56.23 L163.484,54.145 L184.401,59.358 L181.488,61.444" id="1061"/>
                <path class="unit" d="M198.632,72.056 L180.629,84.907 L172.9,82.975 L190.904,70.124 L198.632,72.056" id="1062"/>
                <path class="unit" d="M184.585,59.236 L163.668,54.022 L166.674,51.845 L187.622,57.089 L184.585,59.236" id="1063"/>
                <path class="unit" d="M158.271,49.82 L140.911,45.496 L144.224,43.134 L161.583,47.458 L158.271,49.82" id="1064"/>
                <path class="unit" d="M155.265,51.967 L135.881,47.152 L138.734,45.128 L158.086,49.943 L155.265,51.967" id="1065"/>
                <path class="unit" d="M161.828,66.627 L164.619,66.321 L169.342,62.947 L170.845,63.346 L172.195,62.364 L174.74,63.008 L167.195,68.406 L163.208,68.805 L161.828,66.627" id="1066"/>
                <path class="unit" d="M163.3,68.958 L167.441,68.529 L175.047,63.101 L177.316,63.652 L167.809,70.431 L164.466,70.798 L163.3,68.958" id="1067"/>
                <path class="unit" d="M159.007,62.15 L162.472,59.665 L169.986,61.537 L168.33,62.702 L169.036,62.886 L164.374,66.198 L161.736,66.474 L159.007,62.15" id="1068"/>
                <path class="unit" d="M170.845,60.892 L162.043,58.715 L160.602,56.415 L172.839,59.451 L170.845,60.892" id="1069"/>
                <path class="unit" d="M177.899,68.345 L170.048,73.927 L166.674,74.295 L164.558,70.921 L168.054,70.584 L177.623,63.744 L179.924,64.296 L179.525,64.572 L180.844,64.91 L176.52,68.008 L177.899,68.345" id="1070"/>
                <path class="unit" d="M169.587,85.306 L171.612,83.864 L174.863,84.661 L172.839,86.134 L169.587,85.306" id="1071"/>
                <path class="unit" d="M171.98,82.729 L169.864,79.386 L178.758,78.497 L172.593,82.882 L171.98,82.729" id="1072"/>
                <path class="unit" d="M176.887,88.373 L165.202,96.715 L160.847,95.641 L156.553,94.568 L168.238,86.226 L176.887,88.373" id="1073"/>
                <path class="unit" d="M166.49,85.796 L167.932,86.134 L159.804,91.93 L154.498,90.611 L160.356,86.44 L166.49,85.796" id="1074"/>
                <path class="unit" d="M158.209,93.096 L154.529,92.175 L155.97,91.164 L159.62,92.053 L158.209,93.096" id="1075"/>
                <path class="unit" d="M172.655,98.555 L184.309,90.244 L189.584,91.532 L177.899,99.874 L172.655,98.555" id="1076"/>
                <path class="unit" d="M177.194,88.464 L184.003,90.151 L172.348,98.494 L165.509,96.776 L177.194,88.464" id="1077"/>
                <path class="unit" d="M196.7,88.894 L194.185,88.281 L212.188,75.43 L224.732,78.558 L228.198,76.074 L234.424,77.638 L215.531,91.133 L203.631,88.188 L196.7,88.894" id="1078"/>
                <path class="unit" d="M180.936,84.968 L198.939,72.118 L206.667,74.05 L188.665,86.9 L180.936,84.968" id="1079"/>
                <path class="unit" d="M184.861,101.622 L194.246,94.936 L201.117,96.653 L191.731,103.339 L184.861,101.622" id="1080"/>
                <path class="unit" d="M194.001,94.813 L184.555,101.53 L178.206,99.966 L189.892,91.624 L192.498,92.268 L194.001,94.813" id="1081"/>
                <path class="unit" d="M201.454,96.684 L208.508,95.979 L211.268,96.653 L202.405,102.971 L204.98,103.615 L201.853,105.854 L192.038,103.401 L201.454,96.684" id="1082"/>
                <path class="unit" d="M188.971,86.962 L200.656,78.65 L205.564,79.877 L193.878,88.188 L188.971,86.962" id="1083"/>
                <path class="unit" d="M227.738,85.152 L229.64,83.803 L230.56,84.048 L228.658,85.397 L232.829,86.44 L220.929,94.936 L215.378,93.556 L214.427,92.207 L225.192,84.539 L227.738,85.152" id="1084"/>
                <path class="unit" d="M213.385,94.261 L210.41,93.433 L208.937,94.507 L212.035,95.304 L213.385,94.261" id="1085"/>
                <path class="unit" d="M207.127,104.168 L212.955,99.996 L213.906,100.242 L216.911,98.095 L221.727,99.26 L209.735,107.817 L202.159,105.916 L205.288,103.708 L207.127,104.168" id="1086"/>
                <path class="unit" d="M221.144,102.941 L229.824,102.051 L230.622,101.499 L233.688,102.266 L235.283,104.137 L233.443,105.456 L227.738,106.069 L219.611,104.045 L221.144,102.941" id="1087"/>
                <path class="unit" d="M218.844,103.002 L215.93,105.087 L214.488,104.72 L222.034,99.353 L230.314,101.407 L229.579,101.929 L220.929,102.818 L220.193,103.339 L218.844,103.002" id="1088"/>
                <path class="unit" d="M218.967,103.186 L216.207,105.149 L217.28,105.425 L220.04,103.462 L218.967,103.186" id="1089"/>
                <path class="unit" d="M236.693,85.582 L234.977,86.808 L229.149,85.336 L230.866,84.109 L236.693,85.582" id="1090"/>
                <path class="unit" d="M232.216,97.758 L244.146,89.262 L250.342,90.795 L244.76,94.782 L247.091,98.494 L246.232,98.586 L245.435,98.401 L237.92,99.168 L232.216,97.758" id="1091"/>
                <path class="unit" d="M250.832,90.734 L246.968,89.783 L248.317,88.802 L257.212,91.01 L252.826,94.138 L255.035,97.666 L247.459,98.463 L245.128,94.813 L250.832,90.734" id="1092"/>
                <path class="unit" d="M231.909,97.666 L221.236,95.028 L233.136,86.501 L243.84,89.17 L231.909,97.666" id="1093"/>
                <path class="unit" d="M161.767,47.336 L144.408,43.012 L150.388,38.718 L167.748,43.042 L161.767,47.336" id="1094"/>
                <path class="unit" d="M245.312,111.773 L266.781,109.535 L271.228,106.376 L291.93,104.198 L292.912,103.524 L299.23,105.087 L298.586,105.548 L311.007,108.646 L308.124,110.669 L311.284,111.467 L312.387,110.7 L317.693,112.05 L321.405,109.412 L326.465,110.669 L326.066,110.946 L332.813,112.632 L333.334,113.492 L332.568,114.043 L334.746,117.479 L336.433,117.907 L336.954,118.736 L317.08,132.936 L314.442,133.212 L313.185,132.905 L312.172,131.28 L304.597,132.078 L305.64,133.734 L304.444,134.592 L301.193,134.929 L289.875,132.108 L291.716,130.789 L277.424,127.231 L275.737,128.428 L268.314,126.557 L271.535,124.287 L265.554,122.784 L264.021,123.888 L248.195,119.932 L242.613,111.099 L245.312,111.773" id="1095"/>
                <path class="unit" d="M234.302,106.805 L230.284,109.658 L216.544,106.253 L219.427,104.168 L227.677,106.223 L233.443,105.609 L234.302,106.805" id="1096"/>
                <path class="unit" d="M234.946,115.945 L232.338,117.816 L230.161,117.264 L232.769,115.393 L234.946,115.945" id="1097"/>
                <path class="unit" d="M232.922,115.27 L235.712,113.307 L237.89,113.829 L235.13,115.822 L232.922,115.27" id="1098"/>
                <path class="unit" d="M235.866,113.154 L238.104,111.589 L240.282,112.142 L238.074,113.706 L235.866,113.154" id="1099"/>
                <path class="unit" d="M222.187,114.35 L222.769,115.025 L221.328,116.037 L211.33,113.552 L210.717,113.982 L204.367,112.387 L204.98,111.958 L207.925,112.694 L209.581,111.528 L220.837,114.319 L221.175,114.105 L222.187,114.35" id="1100"/>
                <path class="unit" d="M223.996,114.136 L212.557,111.283 L212.986,110.976 L210.686,110.394 L213.108,108.676 L226.849,112.111 L223.996,114.136" id="1101"/>
                <path class="unit" d="M216.36,106.376 L230.1,109.78 L227.033,111.989 L213.293,108.553 L216.36,106.376" id="1102"/>
                <path class="unit" d="M211.453,113.767 L221.144,116.16 L214.213,121.128 L192.958,115.822 L199.307,111.283 L202.497,112.08 L201.638,112.725 L203.325,113.123 L204.184,112.51 L210.87,114.166 L211.453,113.767" id="1103"/>
                <path class="unit" d="M209.49,131.985 L221.666,135.021 L221.052,135.481 L217.095,134.5 L215.133,135.911 L206.883,133.856 L209.49,131.985" id="1104"/>
                <path class="unit" d="M211.575,130.513 L225.652,134.009 L222.954,135.942 L221.359,135.574 L222.156,134.991 L209.674,131.862 L211.575,130.513" id="1105"/>
                <path class="unit" d="M215.838,127.477 L247.796,135.451 L242.03,139.561 L224.456,135.175 L226.143,133.948 L211.759,130.36 L215.838,127.477" id="1106"/>
                <path class="unit" d="M220.684,124.011 L252.642,131.985 L247.98,135.297 L216.022,127.354 L220.684,124.011" id="1107"/>
                <path class="unit" d="M218.813,146.676 L200.472,142.106 L199.859,141.217 L202.374,139.408 L222.095,144.315 L218.813,146.676" id="1108"/>
                <path class="unit" d="M225.775,143.702 L223.689,143.18 L222.279,144.192 L202.558,139.285 L204.92,137.598 L226.726,143.026 L225.775,143.702" id="1109"/>
                <path class="unit" d="M226.91,142.904 L205.012,137.444 L203.754,136.095 L204.736,135.389 L228.965,141.432 L226.91,142.904" id="1110"/>
                <path class="unit" d="M206.791,162.257 L179.801,155.51 L186.211,150.939 L213.201,157.687 L206.791,162.257" id="1111"/>
                <path class="unit" d="M218.691,153.761 L191.67,147.044 L194.154,145.265 L221.175,151.982 L218.691,153.761" id="1112"/>
                <path class="unit" d="M221.359,151.86 L194.338,145.143 L196.455,143.609 L223.475,150.357 L221.359,151.86" id="1113"/>
                <path class="unit" d="M204.92,135.267 L206.699,133.979 L230.958,140.021 L229.149,141.309 L204.92,135.267" id="1114"/>
                <path class="unit" d="M213.385,157.564 L186.395,150.816 L191.517,147.167 L218.507,153.884 L213.385,157.564" id="1115"/>
                <path class="unit" d="M202.006,109.075 L192.498,115.853 L214.06,121.25 L202.251,129.654 L185.689,125.514 L180.537,129.194 L181.794,129.501 L177.01,132.936 L167.625,130.605 L164.343,132.936 L160.724,132.016 L164.006,129.685 L154.314,127.293 L152.811,128.335 L146.217,126.71 L147.72,125.637 L143.334,124.533 L140.604,126.495 L135.207,125.146 L140.942,121.097 L135.82,119.81 L151.769,108.431 L156.86,109.719 L162.902,105.395 L190.137,112.203 L196.455,107.695 L202.006,109.075" id="1116"/>
                <path class="unit" d="M184.892,130.36 L194.982,132.875 L195.626,133.979 L190.352,134.562 L190.137,134.194 L182.254,132.231 L184.892,130.36" id="1117"/>
                <path class="unit" d="M185.812,125.728 L202.067,129.777 L199.951,131.311 L183.696,127.262 L185.812,125.728" id="1118"/>
                <path class="unit" d="M187.622,128.397 L199.767,131.434 L196.332,133.887 L195.964,133.948 L195.289,132.783 L185.045,130.237 L187.622,128.397" id="1119"/>
                <path class="unit" d="M159.743,163.299 L132.354,156.46 L135.268,154.375 L162.687,161.214 L159.743,163.299" id="1120"/>
                <path class="unit" d="M179.157,159.65 L202.343,165.416 L198.571,168.115 L175.384,162.349 L179.157,159.65" id="1121"/>
                <path class="unit" d="M168.606,156.981 L127.324,146.676 L132.692,142.842 L173.974,153.147 L168.606,156.981" id="1122"/>
                <path class="unit" d="M174.127,153.025 L132.875,142.72 L138.151,138.947 L179.433,149.252 L174.127,153.025" id="1123"/>
                <path class="unit" d="M162.84,161.091 L135.452,154.251 L141.034,150.264 L168.422,157.104 L162.84,161.091" id="1124"/>
                <path class="unit" d="M184.003,142.597 L186.763,142.352 L187.53,143.486 L186.242,144.376 L182.745,143.517 L184.003,142.597" id="1125"/>
                <path class="unit" d="M179.832,155.693 L206.637,162.379 L202.527,165.292 L179.341,159.527 L181.334,158.085 L179.832,155.693" id="1126"/>
                <path class="unit" d="M179.617,149.13 L138.335,138.825 L143.365,135.236 L184.647,145.542 L179.617,149.13" id="1127"/>
                <path class="unit" d="M190.597,175.476 L175.262,186.394 L178.574,187.222 L171.367,192.344 L168.054,191.547 L162.687,195.349 L154.253,193.264 L151.431,195.257 L133.336,190.749 L136.127,188.755 L127.969,186.701 L125.147,188.725 L107.052,184.186 L109.843,182.192 L94.63,178.389 L105.487,170.66 L99.047,169.035 L105.702,164.281 L112.143,165.906 L123.89,157.503 L189.584,173.912 L190.597,175.476" id="1128"/>
                <path class="unit" d="M156.645,165.508 L129.257,158.668 L132.17,156.583 L159.559,163.422 L156.645,165.508" id="1129"/>
                <path class="unit" d="M317.571,111.835 L312.234,110.516 L311.161,111.283 L308.615,110.639 L311.314,108.707 L319.196,110.669 L317.571,111.835" id="1130"/>
                <path class="unit" d="M265.677,122.968 L271.074,124.318 L269.695,125.299 L264.327,123.95 L265.677,122.968" id="1131"/>
                <path class="unit" d="M119.902,36.939 L124.687,38.135 L126.251,37 L125.484,36.816 L125.085,37.092 L121.099,36.111 L119.902,36.939" id="1132"/>
                <path class="unit" d="M124.963,36.877 L121.282,35.958 L122.908,34.792 L130.483,33.995 L126.435,36.877 L125.361,36.602 L124.963,36.877" id="1133"/>
                <path class="unit" d="M132.201,38.718 L137.292,39.975 L135.943,40.957 L130.852,39.668 L132.201,38.718" id="1134"/>
                <path class="unit" d="M79.203,81.625 L85.736,76.963 L105.365,81.871 L107.941,86.011 L100.979,86.778 L97.697,89.078 L99.844,92.667 L96.9,94.752 L94.538,94.169 L90.704,96.899 L93.127,97.481 L90.551,99.321 L87.975,98.678 L84.509,101.162 L87.147,101.806 L86.288,102.419 L71.628,98.77 L65.984,89.814 L68.223,89.569 L66.812,87.115 L75.738,80.766 L79.203,81.625 L79.203,81.625 Z M79.203,81.625" id="1135"/>
                <path class="unit" d="M58.409,92.237 L63.224,91.715 L66.905,97.359 L62.12,97.88 L63.04,99.291 L55.035,100.181 L52.091,102.266 L55.004,106.713 L53.563,106.406 L41.816,107.633 L27.371,111.62 L25.96,112.602 L23.752,112.847 L21.482,112.265 L20.593,110.915 L12.189,111.835 L11.3,110.486 L19.704,109.565 L12.128,98.064 L3.877,98.954 L3.019,97.604 L7.987,97.052 L4.276,91.409 L19.059,89.783 L17.618,87.606 L21.329,87.176 L23.537,90.581 L41.05,88.648 L43.626,92.605 L57.642,91.072 L58.409,92.237 L58.409,92.237 Z M58.409,92.237" id="1136"/>
                <path class="unit" d="M71.352,99.015 L86.104,102.695 L85.153,103.371 L68.837,105.118 L64.85,99.015 L70.892,98.34 L71.352,99.015" id="1137"/>
                <path class="unit" d="M89.662,101.407 L87.392,101.714 L85,101.101 L88.098,98.893 L90.459,99.475 L91.072,100.426 L89.662,101.407" id="1138"/>
                <path class="unit" d="M97.452,95.672 L95.366,97.175 L93.404,97.39 L91.195,96.837 L94.661,94.354 L96.808,94.905 L97.452,95.672" id="1139"/>
                <path class="unit" d="M144.561,54.912 L140.942,57.488 L115.639,51.201 L121.927,46.753 L152.597,54.145 L144.561,54.912" id="1140"/>
                <path class="unit" d="M137.262,65.861 L135.237,62.395 L143.58,61.537 L149.346,62.978 L153.486,69.541 L138.304,65.738 L137.262,65.861" id="1141"/>
                <path class="unit" d="M138.243,65.891 L153.609,69.725 L154.928,71.811 L153.762,72.669 L139.378,69.081 L137.354,65.983 L138.243,65.891" id="1142"/>
                <path class="unit" d="M139.071,69.173 L153.578,72.792 L152.32,73.712 L148.517,74.295 L138.243,71.718 L135.237,67.271 L137.661,66.996 L139.071,69.173" id="1143"/>
                <path class="unit" d="M137.998,71.903 L148.425,74.51 L139.439,80.951 L129.257,78.405 L111.928,80.245 L94.385,75.859 L116.191,60.401 L132.999,64.572 L137.998,71.903" id="1144"/>
                <path class="unit" d="M142.997,61.045 L134.471,61.935 L109.382,55.648 L115.455,51.323 L140.85,57.641 L142.997,61.045" id="1145"/>
                <path class="unit" d="M118.553,83.803 L126.649,85.766 L136.709,84.784 L122.271,81.083 L118.553,83.803 L118.553,83.803 Z M118.553,83.803" id="1146"/>
                <path class="unit" d="M126.159,85.796 L114.136,86.992 L118.492,83.864 L126.159,85.796" id="1147"/>
                <path class="unit" d="M117.02,90.795 L121.252,90.366 L123.951,94.292 L119.381,94.875 L118.461,95.549 L115.057,94.721 L113.953,92.973 L117.02,90.795" id="1148"/>
                <path class="unit" d="M110.548,97.88 L111.652,97.113 L112.48,96.991 L115.363,97.696 L113.584,98.954 L110.701,98.248 L110.548,97.88" id="1149"/>
                <path class="unit" d="M110.518,98.371 L113.4,99.107 L111.1,100.732 L110.119,100.487 L109.321,101.07 L107.419,100.579 L107.266,100.211 L109.689,98.494 L110.518,98.371" id="1150"/>
                <path class="unit" d="M125.699,89.906 L130.054,89.416 L131.618,91.838 L130.79,92.237 L131.526,93.463 L128.245,93.801 L125.699,89.906" id="1151"/>
                <path class="unit" d="M127.907,93.832 L124.38,94.2 L121.896,90.305 L125.361,89.937 L127.907,93.832" id="1152"/>
                <path class="unit" d="M130.392,89.385 L134.532,88.955 L136.771,92.543 L133.888,91.838 L131.802,93.341 L131.189,92.268 L132.017,91.9 L130.392,89.385" id="1153"/>
                <path class="unit" d="M150.419,89.446 L149.162,87.606 L159.865,86.471 L154.13,90.581 L153.578,90.673 L151.462,90.151 L151.922,89.814 L150.419,89.446" id="1154"/>
                <path class="unit" d="M149.284,90.673 L148.487,91.225 L149.223,91.439 L147.689,92.543 L142.721,91.286 L140.911,88.464 L148.824,87.636 L150.112,89.538 L151.431,89.875 L150.051,90.857 L149.284,90.673" id="1155"/>
                <path class="unit" d="M55.25,100.211 L64.635,99.168 L68.622,105.271 L55.403,106.683 L52.459,102.205 L55.25,100.211" id="1156"/>
                <path class="unit" d="M43.258,115.055 L42.552,113.982 L45.19,112.111 L57.244,110.854 L57.765,110.976 L58.93,112.755 L50.526,113.614 L50.711,114.258 L43.258,115.055" id="1157"/>
                <path class="unit" d="M36.449,115.792 L42.92,115.086 L42.185,114.074 L37.37,114.595 L36.357,115.607 L36.449,115.792" id="1158"/>
                <path class="unit" d="M102.42,106.008 L103.402,106.253 L101.408,107.664 L98.035,106.805 L100.212,105.271 L101.04,105.149 L102.942,105.609 L102.42,106.008" id="1159"/>
                <path class="unit" d="M98.096,114.657 L93.342,113.492 L91.44,114.84 L88.128,114.013 L85.613,115.822 L84.57,115.546 L87.729,113.307 L85.092,109.167 L86.717,108.001 L87.729,108.277 L89.202,108.124 L92.177,108.891 L93.864,108.646 L105.365,111.528 L101.04,114.595 L98.924,114.074 L98.096,114.657" id="1160"/>
                <path class="unit" d="M84.724,109.136 L87.361,113.276 L84.264,115.485 L80.951,114.657 L82.853,113.276 L79.939,108.737 L86.288,108.032 L84.724,109.136" id="1161"/>
                <path class="unit" d="M78.222,109.995 L78.682,110.731 L75.676,111.038 L74.633,109.32 L78.161,108.952 L78.805,109.933 L78.222,109.995" id="1162"/>
                <path class="unit" d="M76.259,111.129 L77.394,113.062 L76.627,113.583 L72.854,112.632 L71.106,109.964 L71.628,109.626 L74.296,109.351 L75.4,111.222 L76.259,111.129" id="1163"/>
                <path class="unit" d="M69.051,109.903 L69.879,110.976 L68.775,111.099 L69.082,111.682 L64.972,112.111 L63.684,110.179 L64.144,110.148 L65.034,110.333 L65.433,110.056 L68.376,109.78 L69.051,109.903" id="1164"/>
                <path class="unit" d="M58.562,110.731 L63.347,110.209 L64.635,112.142 L59.268,112.694 L58.102,110.946 L58.562,110.731" id="1165"/>
                <path class="unit" d="M281.901,88.87 L283.772,89.33 L281.809,90.771 L279.908,90.28 L281.901,88.87" id="1166"/>
                <path class="unit" d="M346.186,53.354 L344.407,52.894 L342.444,54.273 L344.284,54.764 L346.186,53.354" id="1167"/>
                <path class="unit" d="M327.753,56.697 L329.839,55.286 L328.06,54.948 L326.097,56.297 L327.753,56.697" id="1168"/>
                <path class="unit" d="M307.296,70.406 L309.075,70.866 L307.174,72.43 L305.211,71.755 L307.296,70.406" id="1169"/>
                <path class="unit" d="M160.295,72.277 L161.552,74.455 L159.313,74.546 L158.148,72.215 L160.295,72.277" id="1170"/>
                <path class="unit" d="M221.389,97.672 L218.66,97.028 L220.163,95.923 L222.678,96.598 L221.389,97.672" id="1171"/>
                <path class="unit" d="M230.958,113.712 L228.413,113.099 L229.793,112.056 L232.369,112.7 L230.958,113.712" id="1172"/>
                <path class="unit" d="M201.025,135.457 L199.583,136.53 L197.038,135.917 L198.479,134.813 L201.025,135.457" id="1173"/>
                <path class="unit" d="M118.89,83.165 L118.553,83.41" id="1176"/>
                <path class="unit" d="M136.709,84.392 L134.011,83.687" id="1177"/>
                <path class="unit" d="M184.8,139.015 L186.671,141.806 L183.788,142.082 L182.438,143.033 L172.195,140.487 L173.176,139.782 L164.466,137.604 L167.87,135.182 L168.392,135.303 L168.882,135.426 L183.788,139.137 L184.033,139.106 L184.77,138.984 L184.8,139.015 L184.033,139.106" id="1178"/>
                <path class="unit" d="M109.994,101.445 L107.11,100.709 L106.282,100.833 L104.043,102.427 L104.174,102.754 L106.97,103.632 L109.994,101.445 Z M109.994,101.445" id="1179"/>
                <path class="unit" d="M103.185,103.041 L100.946,104.667 L101.068,104.972 L103.032,105.463 L103.614,105.065 L104.596,105.311 L106.792,103.759 L104.009,102.919 L103.185,103.041 Z M103.185,103.041" id="1180"/>
                <path class="unit" d="M134.011,83.687 L134.011,83.687 L136.863,84.361 L139.807,82.122 L138.979,80.803 L138.949,80.803 L129.073,78.166 L112.112,79.944 L112.818,80.926 L107.174,81.54 L109.843,85.587 L114.014,86.569 L118.89,83.165 L122.233,80.772 L134.011,83.687 L134.011,83.687 Z M134.011,83.687" id="1182"/>
                <path class="unit" d="M235.927,98.285 L247.858,89.789" id="1183"/>
                <path class="unit" d="M175.568,162.257 L197.006,167.507 L194.799,169.072 L190.29,167.937 L187.745,169.899 L173.33,166.367 L172.686,164.312 L175.568,162.257 L175.568,162.257 Z M175.568,162.257" id="1184"/>
                <path class="unit" d="M187.745,169.899 L190.29,167.937 L194.799,169.072 L192.13,170.973 L187.745,169.899 L187.745,169.899 Z M187.745,169.899" id="1185"/>
                <path class="unit" d="M319.564,97.825 L322.846,95.433 L327.354,96.598 L324.042,98.929 L319.564,97.825 L319.564,97.825 Z M319.564,97.825" id="1186"/>
                <path class="unit" d="M298.556,80.895 L286.41,89.544 L319.564,97.825 L322.846,95.433 L327.354,96.598 L329.379,97.089 L330.482,96.322 L337.537,98.07 L337.997,97.733 L339.684,98.132 L346.983,92.948 L298.556,80.895 L298.556,80.895 Z M298.556,80.895" id="1187"/>
                <path class="unit" d="M240.773,111.688 L238.473,111.105 L242.214,110.645 L242.705,111.32 L240.773,111.688 L240.773,111.688 Z M240.773,111.688" id="1188"/>
                <path class="unit" d="M260.218,126.164 L263.837,123.618 L247.888,119.631 L242.705,111.32 L240.773,111.688 L232.462,117.607 L229.977,116.994 L221.788,122.821 L265.156,133.617 L264.205,134.322 L269.05,135.519 L276.442,130.212 L260.218,126.164 L260.218,126.164 Z M260.218,126.164" id="1189"/>
                <path class="unit" d="M182.07,131.961 L177.409,135.303 L170.232,133.495 L168.054,135.028 L183.819,138.984 L184.677,138.862 L183.358,136.929 L186.732,134.537 L189.983,134.2 L189.83,133.893 L182.07,131.961 L182.07,131.961 Z M182.07,131.961" id="1190"/>
        </g>
    </g>
</svg>