<?xml version="1.0" encoding="utf-8"?>
<!DOCTYPE svg PUBLIC "-//W3C//DTD SVG 1.1//EN" "http://www.w3.org/Graphics/SVG/1.1/DTD/svg11.dtd">
<svg version="1.1" xmlns="http://www.w3.org/2000/svg" xmlns:xlink="http://www.w3.org/1999/xlink" xml:space="preserve">
<g class="level" id="level0">
            <g class="outline">
                <path d="M407.715,136.509 L407.031,133.798 L406.824,132.981 L406.171,132.447 L396.4,124.466 L396.98,123.973 L396.588,122.434 L395.903,119.722 L395.692,118.886 L395.018,118.349 L392.413,116.276 L390.599,114.829 L388.991,116.502 L388.26,117.261 L365.32,97.99 L363.668,96.602 L362.023,98 L360.211,99.542 L297.66,46.486 L297.501,46.351 L297.321,46.244 L295.537,45.175 L295.132,44.931 L294.666,44.849 L247.908,36.664 L251.362,26.187 L251.659,25.29 L251.3,24.416 L250.035,21.346 L249.501,20.048 L248.118,19.804 L193.774,10.221 L191.603,9.839 L190.909,11.932 L186.247,25.994 L144.795,18.516 L144.389,18.442 L143.981,18.501 L142.377,18.73 L142.205,18.754 L142.038,18.802 L2.705,58.595 L0.094,59.341 L1,61.901 L20.504,117.011 L21.323,119.325 L23.667,118.596 L114.13,90.469 C125.531,108.774 141.324,134.261 145.852,141.887 L143.94,142.79 L143.54,142.978 L143.47,143.047 C141.48,144.245 140.529,146.143 140.97,148.08 C141.13,148.82 143.452,153.215 148.559,157.842 C153.269,162.112 161.623,167.68 174.666,169.98 C175.067,170.051 175.487,170.126 175.953,170.202 C176.748,170.342 179.032,170.68 182.423,170.68 C184.302,170.68 186.252,170.577 188.219,170.374 C195.076,169.671 205.843,167.353 218.193,160.311 L218.19,160.306 C218.941,159.885 219.869,159.009 220.254,157.836 C220.659,156.613 220.438,155.325 219.628,154.211 L219.614,154.191 L219.596,154.17 C219.518,154.066 219.114,153.601 218.526,153.019 C218.805,152.752 219.092,152.468 219.428,152.134 L219.667,151.899 L273.146,116.475 L281.99,123.927 L282.159,124.567 L282.891,127.339 L283.078,128.041 L283.607,128.541 L285.788,130.6 L287.507,132.225 L289.257,130.632 L289.43,130.475 L310.235,148.336 L309.708,148.803 L310.164,150.359 L311.12,153.617 L311.35,154.409 L312.003,154.915 L351.725,185.717 L353.411,187.021 L354.996,185.601 L406.946,139.037 L408.092,138.008 L407.715,136.509 L407.715,136.509 Z M182.422,168.127 C182.408,168.127 182.397,168.126 182.382,168.126 C182.477,168.127 182.579,168.125 182.676,168.124 C182.593,168.125 182.503,168.127 182.422,168.127 L182.422,168.127 L182.422,168.127 Z M112.883,156.674 L112.484,155.088 L110.876,154.789 L86.155,150.184 L92.547,131.703 L92.796,130.983 L92.61,130.245 L91.927,127.534 L91.526,125.944 L89.914,125.648 L59.38,120.036 L57.268,119.647 L56.525,121.661 L47.474,146.178 L47.071,147.271 L47.633,148.292 L49.291,151.304 L49.877,152.369 L51.073,152.585 L80.207,157.847 L79.248,160.715 L79.009,161.427 L79.195,162.156 L80.152,165.916 L80.559,167.513 L82.182,167.799 L107.399,172.245 L109.565,172.627 L110.263,170.542 L113.515,160.823 L113.751,160.115 L113.569,159.388 L112.883,156.674 L112.883,156.674 Z M143.391,153.314 L142.845,152.055 L141.495,151.819 L123.144,148.584 L120.978,148.202 L120.28,150.287 L116.68,161.046 L116.434,161.782 L116.639,162.53 L117.637,166.169 L118.064,167.728 L119.655,168.008 L138.006,171.243 L140.245,171.638 L140.895,169.459 L144.5,157.366 L144.766,156.472 L144.394,155.618 L143.391,153.314 L143.391,153.314 Z M143.391,153.314" class="outline"/>
            </g>
            <g class="label">
                <path d="M24.67,0.521 C21.789,0.521 19.964,2.858 19.964,6.459 C19.964,9.853 21.756,11.965 24.622,11.965 C27.503,11.965 29.328,9.612 29.328,6.011 C29.328,2.618 27.52,0.521 24.67,0.521 L24.67,0.521 L24.67,0.521 Z M24.654,10.781 C22.509,10.781 21.26,9.036 21.26,6.524 C21.26,3.563 22.492,1.706 24.637,1.706 C26.83,1.706 28.031,3.451 28.031,5.948 C28.032,8.908 26.799,10.781 24.654,10.781 L24.654,10.781 L24.654,10.781 Z M8.367,5.611 L5.374,5.611 C4.974,5.611 4.749,5.915 4.749,6.187 C4.749,6.507 4.957,6.748 5.374,6.748 L7.855,6.748 L7.855,10.397 C7.295,10.621 6.606,10.781 5.678,10.781 C3.453,10.781 2.029,9.26 2.029,6.38 C2.029,3.227 3.486,1.738 5.726,1.738 C6.51,1.738 7.102,1.882 7.823,2.138 C8.031,2.218 8.223,2.298 8.384,2.298 C8.688,2.298 8.944,2.074 8.944,1.722 C8.944,1.466 8.8,1.29 8.56,1.162 C7.92,0.826 6.943,0.522 5.823,0.522 C2.974,0.522 0.765,2.475 0.765,6.444 C0.765,9.981 2.734,11.966 5.679,11.966 C7.023,11.966 7.856,11.662 8.528,11.358 C8.848,11.214 9.056,11.005 9.056,10.606 L9.056,6.3 C9.056,5.867 8.783,5.611 8.367,5.611 L8.367,5.611 L8.367,5.611 Z M17.039,7.724 C16.751,7.308 16.431,6.988 16.062,6.748 C17.487,6.251 18.415,5.259 18.415,3.739 C18.415,1.801 17.103,0.522 14.206,0.522 C13.102,0.522 12.349,0.634 11.837,0.794 C11.437,0.922 11.325,1.162 11.325,1.562 L11.325,11.262 C11.325,11.662 11.597,11.902 11.949,11.902 C12.302,11.902 12.574,11.662 12.574,11.262 L12.574,7.084 L13.823,7.084 C14.991,7.084 15.456,7.564 16.032,8.493 C16.432,9.133 16.848,10.061 17.344,11.454 C17.44,11.71 17.616,11.902 17.952,11.902 C18.288,11.902 18.577,11.662 18.577,11.278 C18.577,11.166 18.545,11.006 18.481,10.846 C18.047,9.692 17.535,8.492 17.039,7.724 L17.039,7.724 L17.039,7.724 Z M14.013,5.867 L12.573,5.867 L12.573,1.833 C13.021,1.769 13.453,1.705 14.142,1.705 C16.431,1.705 17.151,2.601 17.151,3.786 C17.15,5.435 15.598,5.915 14.013,5.867 L14.013,5.867 L14.013,5.867 Z M38.703,0.585 C38.335,0.585 38.079,0.841 38.079,1.241 L38.079,9.996 C37.246,10.54 36.062,10.765 35.342,10.765 C33.485,10.765 32.349,9.852 32.349,7.787 L32.349,1.241 C32.349,0.841 32.093,0.585 31.741,0.585 C31.389,0.585 31.117,0.841 31.117,1.241 L31.117,8.028 C31.117,10.365 32.574,11.966 35.102,11.966 C36.911,11.966 37.951,11.486 38.88,10.958 C39.232,10.75 39.312,10.478 39.312,10.094 L39.312,1.242 C39.312,0.841 39.055,0.585 38.703,0.585 L38.703,0.585 L38.703,0.585 Z M109.262,10.845 C108.83,9.692 108.318,8.492 107.822,7.723 C107.534,7.307 107.214,6.987 106.845,6.747 C108.27,6.25 109.198,5.258 109.198,3.738 C109.198,1.801 107.886,0.521 104.989,0.521 C103.885,0.521 103.132,0.633 102.62,0.793 C102.22,0.921 102.108,1.161 102.108,1.561 L102.108,11.261 C102.108,11.661 102.38,11.901 102.732,11.901 C103.085,11.901 103.357,11.661 103.357,11.261 L103.357,7.083 L104.606,7.083 C105.774,7.083 106.239,7.563 106.815,8.492 C107.215,9.132 107.631,10.06 108.127,11.453 C108.223,11.709 108.399,11.901 108.735,11.901 C109.071,11.901 109.36,11.661 109.36,11.277 C109.358,11.165 109.326,11.005 109.262,10.845 L109.262,10.845 L109.262,10.845 Z M104.796,5.867 L103.356,5.867 L103.356,1.833 C103.804,1.769 104.236,1.705 104.925,1.705 C107.214,1.705 107.934,2.601 107.934,3.786 C107.934,5.435 106.381,5.915 104.796,5.867 L104.796,5.867 L104.796,5.867 Z M79.182,10.653 L74.876,10.653 L74.876,1.241 C74.876,0.841 74.62,0.585 74.268,0.585 C73.916,0.585 73.644,0.841 73.644,1.241 L73.644,10.877 C73.644,11.469 74.012,11.837 74.701,11.837 L79.182,11.837 C79.582,11.837 79.838,11.565 79.838,11.229 C79.838,10.925 79.598,10.653 79.182,10.653 L79.182,10.653 L79.182,10.653 Z M84.909,0.521 C82.028,0.521 80.203,2.858 80.203,6.459 C80.203,9.853 81.995,11.965 84.861,11.965 C87.742,11.965 89.567,9.612 89.567,6.011 C89.567,2.618 87.759,0.521 84.909,0.521 L84.909,0.521 L84.909,0.521 Z M84.894,10.781 C82.749,10.781 81.5,9.036 81.5,6.524 C81.5,3.563 82.732,1.706 84.877,1.706 C87.07,1.706 88.271,3.451 88.271,5.948 C88.271,8.908 87.038,10.781 84.894,10.781 L84.894,10.781 L84.894,10.781 Z M95.613,0.521 C92.732,0.521 90.907,2.858 90.907,6.459 C90.907,9.853 92.699,11.965 95.565,11.965 C98.446,11.965 100.271,9.612 100.271,6.011 C100.271,2.618 98.463,0.521 95.613,0.521 L95.613,0.521 L95.613,0.521 Z M95.598,10.781 C93.453,10.781 92.204,9.036 92.204,6.524 C92.204,3.563 93.436,1.706 95.581,1.706 C97.774,1.706 98.975,3.451 98.975,5.948 C98.975,8.908 97.742,10.781 95.598,10.781 L95.598,10.781 L95.598,10.781 Z M49.407,0.585 C49.054,0.585 48.846,0.841 48.846,1.241 L48.846,9.804 L48.814,9.804 L43.244,1.064 C43.036,0.728 42.764,0.584 42.411,0.584 C41.931,0.584 41.611,0.92 41.611,1.496 L41.611,11.26 C41.611,11.66 41.867,11.9 42.203,11.9 C42.555,11.9 42.795,11.66 42.795,11.26 L42.795,2.6 L42.827,2.6 L48.333,11.356 C48.541,11.676 48.797,11.9 49.166,11.9 C49.694,11.9 49.982,11.484 49.982,11.052 L49.982,1.24 C49.983,0.841 49.759,0.585 49.407,0.585 L49.407,0.585 L49.407,0.585 Z M71.438,0.649 L66.748,0.649 C66.06,0.649 65.691,1.017 65.691,1.609 L65.691,11.261 C65.691,11.661 65.963,11.901 66.316,11.901 C66.668,11.901 66.924,11.661 66.924,11.261 L66.924,6.971 L70.846,6.971 C71.198,6.971 71.438,6.682 71.438,6.379 C71.438,6.091 71.198,5.802 70.846,5.802 L66.924,5.802 L66.924,1.864 L71.422,1.864 C71.87,1.864 72.078,1.56 72.078,1.272 C72.079,0.969 71.871,0.649 71.438,0.649 L71.438,0.649 L71.438,0.649 Z M55.101,0.521 C54.493,0.521 53.532,0.569 52.892,0.729 C52.476,0.841 52.316,1.129 52.316,1.513 L52.316,10.989 C52.316,11.373 52.46,11.693 53.02,11.789 C53.532,11.885 54.173,11.965 55.261,11.965 C58.798,11.965 60.335,9.42 60.335,6.251 C60.335,2.938 58.783,0.521 55.101,0.521 L55.101,0.521 L55.101,0.521 Z M55.293,10.781 C54.637,10.781 54.061,10.765 53.548,10.685 L53.548,1.801 C54.012,1.737 54.636,1.705 55.117,1.705 C57.982,1.705 59.087,3.578 59.087,6.139 C59.087,8.924 57.966,10.781 55.293,10.781 L55.293,10.781 L55.293,10.781 Z M55.293,10.781" class="Shape"/>
                <path d="M274.47,199.236 C274.843,199.301 275.203,199.301 275.552,199.237 C275.902,199.171 276.278,199.017 276.682,198.782 C276.664,199.051 276.686,199.294 276.75,199.508 L277.744,199.683 C277.662,199.448 277.623,199.208 277.623,198.967 C277.624,198.725 277.701,198.161 277.857,197.278 L278.082,196.007 C278.156,195.583 278.192,195.288 278.189,195.121 C278.177,194.85 278.119,194.616 278.006,194.421 C277.895,194.224 277.699,194.043 277.42,193.878 C277.14,193.712 276.76,193.587 276.281,193.503 C275.797,193.417 275.361,193.409 274.968,193.476 C274.577,193.544 274.265,193.683 274.028,193.894 C273.791,194.106 273.595,194.403 273.441,194.788 L274.349,195.079 C274.522,194.698 274.728,194.448 274.968,194.328 C275.208,194.209 275.553,194.187 276.001,194.266 C276.481,194.351 276.823,194.524 277.028,194.782 C277.179,194.971 277.22,195.261 277.153,195.649 C277.147,195.683 277.131,195.765 277.104,195.897 C276.718,195.959 276.132,195.968 275.348,195.924 C274.962,195.903 274.671,195.903 274.477,195.917 C274.209,195.943 273.962,196.007 273.737,196.108 C273.509,196.211 273.313,196.364 273.148,196.569 C272.983,196.775 272.876,197.013 272.828,197.29 C272.745,197.759 272.843,198.173 273.122,198.534 C273.405,198.894 273.854,199.128 274.47,199.236 L274.47,199.236 L274.47,199.236 Z M274.064,197.014 C274.176,196.894 274.32,196.814 274.496,196.772 C274.67,196.729 274.959,196.714 275.359,196.726 C276.068,196.75 276.607,196.721 276.978,196.641 L276.916,196.992 C276.842,197.412 276.734,197.72 276.595,197.918 C276.412,198.173 276.162,198.355 275.85,198.465 C275.537,198.574 275.197,198.597 274.829,198.532 C274.46,198.467 274.192,198.333 274.03,198.13 C273.868,197.927 273.808,197.698 273.853,197.444 C273.883,197.276 273.953,197.134 274.064,197.014 L274.064,197.014 L274.064,197.014 Z M165.602,178.999 C165.536,178.939 165.492,178.868 165.471,178.784 C165.451,178.701 165.465,178.523 165.513,178.252 L166.092,174.967 L167.05,175.136 L167.181,174.397 L166.223,174.227 L166.57,172.264 L165.522,172.668 L165.277,174.06 L164.579,173.937 L164.448,174.677 L165.145,174.8 L164.576,178.032 C164.474,178.602 164.449,178.984 164.494,179.177 C164.54,179.368 164.649,179.536 164.82,179.678 C164.991,179.824 165.249,179.924 165.594,179.986 C165.805,180.022 166.051,180.038 166.328,180.028 L166.339,179.163 C166.162,179.157 166.02,179.144 165.914,179.127 C165.774,179.1 165.669,179.058 165.602,178.999 L165.602,178.999 L165.602,178.999 Z M165.145,187.484 C164.866,187.318 164.486,187.193 164.006,187.108 C163.524,187.023 163.086,187.013 162.696,187.082 C162.305,187.15 161.993,187.289 161.756,187.5 C161.519,187.711 161.322,188.008 161.168,188.393 L162.077,188.684 C162.25,188.302 162.456,188.052 162.697,187.933 C162.937,187.815 163.283,187.793 163.729,187.872 C164.208,187.956 164.552,188.128 164.757,188.387 C164.909,188.577 164.95,188.866 164.882,189.253 C164.876,189.289 164.86,189.371 164.833,189.501 C164.447,189.564 163.862,189.574 163.077,189.53 C162.691,189.509 162.401,189.507 162.205,189.523 C161.937,189.548 161.692,189.613 161.465,189.714 C161.238,189.816 161.042,189.969 160.876,190.173 C160.71,190.38 160.604,190.619 160.555,190.895 C160.472,191.366 160.572,191.78 160.848,192.138 C161.126,192.497 161.576,192.734 162.192,192.841 C162.566,192.907 162.925,192.907 163.273,192.842 C163.623,192.776 164,192.623 164.405,192.387 C164.385,192.658 164.409,192.899 164.472,193.116 L165.467,193.292 C165.384,193.056 165.344,192.817 165.345,192.575 C165.345,192.333 165.424,191.768 165.58,190.884 L165.804,189.614 C165.879,189.191 165.915,188.895 165.911,188.728 C165.901,188.457 165.84,188.223 165.728,188.028 C165.62,187.831 165.424,187.649 165.145,187.484 L165.145,187.484 L165.145,187.484 Z M164.64,190.597 C164.567,191.017 164.458,191.326 164.319,191.524 C164.135,191.778 163.886,191.961 163.573,192.071 C163.259,192.18 162.919,192.203 162.552,192.137 C162.182,192.074 161.916,191.938 161.754,191.736 C161.591,191.533 161.532,191.303 161.577,191.049 C161.606,190.884 161.678,190.739 161.789,190.62 C161.901,190.5 162.045,190.419 162.219,190.376 C162.393,190.335 162.681,190.32 163.083,190.332 C163.791,190.355 164.331,190.327 164.702,190.247 L164.64,190.597 L164.64,190.597 Z M168.564,189.251 C168.923,188.961 169.343,188.857 169.824,188.941 C170.14,188.997 170.394,189.139 170.586,189.37 C170.776,189.599 170.882,189.911 170.903,190.306 L171.853,190.327 C171.844,189.74 171.672,189.258 171.339,188.881 C171.005,188.504 170.534,188.262 169.923,188.154 C169.441,188.069 168.973,188.103 168.523,188.258 C168.072,188.413 167.706,188.7 167.423,189.12 C167.142,189.539 166.948,190.053 166.841,190.659 C166.676,191.597 166.782,192.358 167.161,192.943 C167.539,193.528 168.113,193.887 168.882,194.022 C169.496,194.13 170.045,194.04 170.531,193.75 C171.015,193.459 171.367,193 171.583,192.373 L170.668,192.086 C170.517,192.552 170.296,192.875 170.005,193.06 C169.714,193.248 169.381,193.305 169.007,193.241 C168.542,193.159 168.195,192.922 167.966,192.528 C167.737,192.134 167.69,191.561 167.822,190.805 C167.958,190.06 168.204,189.542 168.564,189.251 L168.564,189.251 L168.564,189.251 Z M176.433,175.896 C175.739,175.773 175.114,175.876 174.556,176.208 C173.889,176.606 173.465,177.326 173.282,178.367 C173.115,179.315 173.228,180.084 173.625,180.674 C174.021,181.264 174.612,181.628 175.399,181.767 C175.888,181.853 176.361,181.82 176.816,181.663 C177.27,181.508 177.642,181.242 177.932,180.866 C178.223,180.489 178.431,179.94 178.558,179.217 C178.715,178.324 178.593,177.582 178.194,176.99 C177.792,176.396 177.205,176.032 176.433,175.896 L176.433,175.896 L176.433,175.896 Z M177.571,179.091 C177.441,179.828 177.187,180.349 176.809,180.653 C176.432,180.957 176.007,181.067 175.536,180.984 C175.059,180.9 174.696,180.652 174.446,180.239 C174.195,179.826 174.133,179.26 174.259,178.54 C174.386,177.821 174.638,177.311 175.014,177.01 C175.39,176.709 175.818,176.6 176.293,176.684 C176.762,176.767 177.122,177.016 177.375,177.429 C177.629,177.843 177.694,178.396 177.571,179.091 L177.571,179.091 L177.571,179.091 Z M187.11,192.394 L183.079,191.683 L183.641,188.499 L182.617,188.317 L181.25,196.072 L182.275,196.253 L182.919,192.599 L186.95,193.309 L186.305,196.964 L187.33,197.145 L188.697,189.39 L187.672,189.209 L187.11,192.394 L187.11,192.394 Z M176.747,189.609 C176.469,189.389 176.122,189.245 175.706,189.171 C175.029,189.052 174.423,189.21 173.888,189.648 L174.379,186.866 L173.427,186.698 L172.06,194.453 L173.012,194.621 L173.554,191.547 C173.632,191.108 173.745,190.771 173.895,190.538 C174.045,190.307 174.257,190.141 174.532,190.037 C174.806,189.934 175.085,189.909 175.367,189.959 C175.744,190.025 176.016,190.185 176.184,190.438 C176.352,190.69 176.394,191.055 176.31,191.531 L175.683,195.092 L176.635,195.26 L177.262,191.699 C177.36,191.149 177.366,190.719 177.285,190.406 C177.204,190.093 177.025,189.827 176.747,189.609 L176.747,189.609 L176.747,189.609 Z M285.826,200.857 C286.158,201.169 286.549,201.366 286.995,201.445 C287.687,201.567 288.26,201.381 288.715,200.885 L288.59,201.594 L289.473,201.749 L290.84,193.995 L289.893,193.828 L289.404,196.61 C289.279,196.352 289.096,196.128 288.856,195.938 C288.618,195.749 288.328,195.624 287.99,195.564 C287.529,195.483 287.09,195.532 286.673,195.708 C286.256,195.887 285.914,196.187 285.647,196.61 C285.38,197.033 285.198,197.526 285.098,198.087 C284.996,198.662 285.009,199.191 285.138,199.668 C285.264,200.148 285.494,200.544 285.826,200.857 L285.826,200.857 L285.826,200.857 Z M286.074,198.262 C286.205,197.517 286.443,196.998 286.787,196.702 C287.133,196.406 287.516,196.296 287.939,196.37 C288.373,196.446 288.707,196.691 288.939,197.102 C289.17,197.514 289.219,198.105 289.085,198.873 C288.961,199.571 288.725,200.064 288.375,200.352 C288.023,200.641 287.641,200.749 287.225,200.676 C286.812,200.604 286.486,200.364 286.246,199.951 C286.004,199.545 285.947,198.98 286.074,198.262 L286.074,198.262 L286.074,198.262 Z M170.595,179.094 C170.494,179.665 170.468,180.046 170.513,180.24 C170.559,180.43 170.668,180.598 170.839,180.741 C171.01,180.885 171.268,180.987 171.613,181.048 C171.825,181.085 172.07,181.1 172.347,181.09 L172.359,180.224 C172.181,180.219 172.04,180.207 171.933,180.189 C171.792,180.165 171.687,180.123 171.621,180.063 C171.554,180.003 171.51,179.932 171.49,179.848 C171.469,179.765 171.484,179.587 171.532,179.317 L172.111,176.032 L173.069,176.201 L173.2,175.461 L172.242,175.292 L172.588,173.329 L171.54,173.732 L171.295,175.125 L170.597,175 L170.466,175.74 L171.164,175.863 L170.595,179.094 L170.595,179.094 Z M235.852,192.162 C236.207,192.136 236.514,192.058 236.77,191.929 C237.026,191.799 237.256,191.593 237.465,191.308 C237.674,191.022 237.81,190.7 237.873,190.334 C237.953,189.884 237.894,189.47 237.701,189.094 C237.508,188.718 237.189,188.42 236.744,188.2 C237.139,188.084 237.453,187.894 237.683,187.635 C237.914,187.374 238.06,187.077 238.119,186.746 C238.181,186.39 238.14,186.03 237.996,185.669 C237.85,185.307 237.611,185.016 237.281,184.796 C236.951,184.576 236.49,184.413 235.897,184.309 L232.988,183.796 L231.621,191.55 L234.578,192.071 C235.072,192.159 235.496,192.189 235.852,192.162 L235.852,192.162 L235.852,192.162 Z M233.854,184.892 L235.406,185.165 C235.963,185.263 236.348,185.369 236.566,185.481 C236.781,185.592 236.934,185.758 237.022,185.975 C237.112,186.194 237.132,186.43 237.086,186.689 C237.039,186.96 236.934,187.173 236.77,187.331 C236.607,187.488 236.386,187.582 236.113,187.614 C235.906,187.635 235.574,187.61 235.119,187.531 L233.442,187.235 L233.854,184.892 L233.854,184.892 Z M233.279,188.149 L235.072,188.464 C235.566,188.551 235.935,188.661 236.182,188.794 C236.429,188.927 236.61,189.113 236.719,189.353 C236.829,189.593 236.861,189.858 236.809,190.145 C236.765,190.393 236.676,190.602 236.539,190.774 C236.404,190.944 236.248,191.064 236.072,191.134 C235.893,191.205 235.684,191.24 235.443,191.241 C235.302,191.242 235.068,191.213 234.738,191.154 L232.805,190.812 L233.279,188.149 L233.279,188.149 Z M155.153,177.123 L150.391,176.283 L150.857,173.643 L155.147,174.401 L155.306,173.491 L151.016,172.734 L151.435,170.359 L156.016,171.167 L156.177,170.252 L150.571,169.264 L149.204,177.018 L154.991,178.039 L155.153,177.123 L155.153,177.123 Z M183.996,179.521 L187.635,180.163 L187.796,179.249 L184.157,178.607 L184.58,176.204 L188.786,176.945 L188.947,176.031 L183.716,175.108 L182.349,182.863 L183.375,183.044 L183.996,179.521 L183.996,179.521 Z M155.653,178.155 L156.805,178.358 L158.671,176.402 L158.896,176.926 L159.742,178.874 L160.911,179.08 L159.346,175.739 L161.754,173.435 L160.617,173.236 L159.434,174.397 C159.273,174.551 159.093,174.735 158.898,174.94 C158.829,174.752 158.735,174.519 158.617,174.241 L157.988,172.772 L156.798,172.561 L158.221,175.594 L155.653,178.155 L155.653,178.155 Z M162.662,179.391 L163.653,173.775 L162.701,173.607 L161.71,179.223 L162.662,179.391 L162.662,179.391 Z M164.029,171.637 L163.077,171.469 L162.884,172.566 L163.836,172.734 L164.029,171.637 L164.029,171.637 Z M246.284,190.973 C246.411,190.253 246.644,189.791 246.984,189.585 C247.324,189.38 247.697,189.314 248.103,189.385 C248.357,189.43 248.568,189.528 248.736,189.674 C248.904,189.821 249.007,189.997 249.048,190.203 C249.087,190.408 249.073,190.705 249.005,191.093 L248.402,194.51 L249.354,194.678 L249.961,191.223 C250.039,190.784 250.076,190.471 250.072,190.289 C250.062,190.007 250.006,189.756 249.9,189.532 C249.793,189.309 249.609,189.113 249.344,188.942 C249.082,188.768 248.782,188.654 248.445,188.593 C247.666,188.455 247.014,188.659 246.494,189.204 L246.636,188.404 L245.779,188.253 L244.789,193.87 L245.741,194.038 L246.284,190.973 L246.284,190.973 Z M263.115,191.257 L263.281,191.673 C263.629,191.585 263.901,191.411 264.103,191.153 C264.249,190.965 264.365,190.632 264.448,190.161 L264.6,189.288 L263.579,189.108 L263.385,190.212 L263.882,190.3 C263.82,190.591 263.729,190.813 263.606,190.963 C263.483,191.115 263.318,191.213 263.115,191.257 L263.115,191.257 L263.115,191.257 Z M157.886,186.029 C157.192,185.907 156.567,186.009 156.01,186.341 C155.343,186.74 154.918,187.46 154.736,188.5 C154.569,189.448 154.682,190.218 155.079,190.808 C155.475,191.399 156.067,191.762 156.852,191.902 C157.342,191.988 157.815,191.953 158.269,191.797 C158.724,191.641 159.096,191.376 159.385,190.999 C159.676,190.623 159.884,190.073 160.012,189.351 C160.169,188.458 160.047,187.716 159.646,187.123 C159.245,186.53 158.658,186.166 157.886,186.029 L157.886,186.029 L157.886,186.029 Z M159.024,189.224 C158.893,189.962 158.64,190.484 158.262,190.786 C157.885,191.091 157.46,191.201 156.989,191.118 C156.511,191.034 156.15,190.786 155.899,190.372 C155.648,189.96 155.586,189.393 155.712,188.674 C155.838,187.955 156.09,187.445 156.468,187.143 C156.844,186.843 157.272,186.735 157.746,186.819 C158.215,186.901 158.576,187.151 158.829,187.563 C159.082,187.976 159.146,188.529 159.024,189.224 L159.024,189.224 L159.024,189.224 Z M190.252,181.224 C190.323,180.823 190.44,180.46 190.606,180.141 C190.715,179.931 190.865,179.779 191.052,179.682 C191.24,179.586 191.439,179.557 191.646,179.593 C191.878,179.634 192.099,179.745 192.308,179.922 L192.791,179.097 C192.496,178.834 192.187,178.675 191.867,178.618 C191.642,178.578 191.429,178.606 191.221,178.7 C191.014,178.795 190.766,179.021 190.476,179.381 L190.626,178.53 L189.771,178.379 L188.78,183.996 L189.732,184.164 L190.252,181.224 L190.252,181.224 Z M257.832,198.296 C258.076,198.19 258.311,197.993 258.535,197.708 C258.703,197.498 258.957,197.105 259.295,196.528 L262.441,191.192 L261.488,191.024 L259.71,194.086 C259.486,194.475 259.279,194.879 259.094,195.297 C259.054,194.821 258.995,194.363 258.916,193.925 L258.32,190.465 L257.295,190.284 L258.434,196.288 C258.377,196.383 258.334,196.455 258.308,196.506 C258.109,196.86 257.969,197.078 257.893,197.163 C257.789,197.275 257.667,197.356 257.529,197.404 C257.389,197.452 257.215,197.458 257.003,197.421 C256.848,197.394 256.672,197.333 256.473,197.239 L256.421,198.152 C256.633,198.268 256.831,198.342 257.014,198.376 C257.314,198.431 257.588,198.404 257.832,198.296 L257.832,198.296 L257.832,198.296 Z M148.854,184.761 C149.101,184.309 149.451,183.976 149.901,183.76 C150.351,183.545 150.876,183.489 151.47,183.595 C151.989,183.686 152.397,183.891 152.693,184.209 C152.989,184.526 153.177,184.983 153.257,185.579 L154.309,185.518 C154.227,184.765 153.957,184.146 153.497,183.658 C153.038,183.17 152.421,182.858 151.643,182.72 C150.959,182.599 150.305,182.644 149.681,182.856 C149.056,183.069 148.536,183.448 148.121,183.995 C147.707,184.542 147.429,185.219 147.286,186.026 C147.155,186.765 147.169,187.483 147.329,188.176 C147.489,188.868 147.801,189.432 148.264,189.865 C148.728,190.298 149.378,190.588 150.214,190.735 C151.022,190.878 151.744,190.776 152.381,190.431 C153.017,190.086 153.518,189.513 153.881,188.706 L152.902,188.267 C152.645,188.895 152.29,189.339 151.832,189.601 C151.375,189.863 150.859,189.942 150.285,189.839 C149.811,189.756 149.394,189.558 149.033,189.243 C148.67,188.928 148.435,188.508 148.331,187.981 C148.225,187.456 148.23,186.863 148.347,186.203 C148.438,185.696 148.607,185.215 148.854,184.761 L148.854,184.761 L148.854,184.761 Z M196.255,185.314 L197.25,185.489 C197.168,185.253 197.127,185.013 197.128,184.773 C197.129,184.531 197.207,183.966 197.363,183.082 L197.587,181.811 C197.661,181.388 197.697,181.093 197.694,180.926 C197.682,180.655 197.623,180.421 197.51,180.225 C197.4,180.03 197.204,179.848 196.925,179.683 C196.646,179.517 196.265,179.392 195.785,179.307 C195.303,179.222 194.865,179.214 194.474,179.282 C194.084,179.349 193.772,179.489 193.534,179.7 C193.297,179.911 193.101,180.208 192.947,180.593 L193.856,180.884 C194.028,180.503 194.235,180.253 194.475,180.133 C194.716,180.014 195.06,179.993 195.508,180.072 C195.987,180.157 196.33,180.329 196.534,180.587 C196.687,180.777 196.727,181.066 196.66,181.454 C196.654,181.489 196.638,181.571 196.611,181.702 C196.224,181.764 195.638,181.774 194.855,181.73 C194.469,181.709 194.177,181.707 193.982,181.722 C193.715,181.748 193.47,181.812 193.243,181.913 C193.014,182.014 192.819,182.169 192.654,182.374 C192.488,182.58 192.382,182.819 192.333,183.095 C192.25,183.565 192.348,183.978 192.626,184.339 C192.905,184.698 193.352,184.933 193.97,185.041 C194.343,185.106 194.704,185.107 195.052,185.042 C195.401,184.975 195.778,184.823 196.182,184.587 C196.169,184.856 196.191,185.101 196.255,185.314 L196.255,185.314 L196.255,185.314 Z M195.355,184.27 C195.041,184.379 194.7,184.403 194.334,184.337 C193.963,184.272 193.697,184.138 193.535,183.935 C193.373,183.733 193.314,183.503 193.359,183.249 C193.387,183.083 193.459,182.94 193.57,182.819 C193.681,182.7 193.825,182.619 194.001,182.576 C194.176,182.535 194.464,182.519 194.864,182.532 C195.573,182.555 196.113,182.527 196.484,182.447 L196.422,182.797 C196.348,183.217 196.24,183.526 196.1,183.722 C195.917,183.977 195.668,184.159 195.355,184.27 L195.355,184.27 L195.355,184.27 Z M259.434,203.936 C259.211,203.898 258.997,203.924 258.789,204.018 C258.582,204.114 258.334,204.34 258.045,204.7 L258.194,203.848 L257.338,203.698 L256.348,209.316 L257.301,209.484 L257.82,206.543 C257.89,206.141 258.008,205.78 258.174,205.46 C258.285,205.251 258.434,205.098 258.621,205.001 C258.809,204.905 259.007,204.876 259.215,204.913 C259.447,204.954 259.668,205.063 259.877,205.242 L260.359,204.417 C260.062,204.151 259.754,203.992 259.434,203.936 L259.434,203.936 L259.434,203.936 Z M261.781,205.38 C261.992,205.269 262.318,205.251 262.756,205.328 C263.125,205.392 263.397,205.524 263.572,205.724 C263.746,205.922 263.83,206.168 263.82,206.465 L264.773,206.502 C264.777,206.128 264.718,205.819 264.596,205.574 C264.477,205.33 264.262,205.114 263.95,204.928 C263.638,204.742 263.262,204.611 262.823,204.532 C262.53,204.48 262.251,204.469 261.981,204.501 C261.71,204.531 261.493,204.588 261.326,204.672 C261.103,204.778 260.917,204.928 260.764,205.121 C260.612,205.314 260.514,205.536 260.469,205.786 C260.421,206.06 260.447,206.324 260.545,206.577 C260.645,206.828 260.816,207.042 261.066,207.219 C261.311,207.396 261.768,207.634 262.436,207.933 C262.932,208.157 263.238,208.32 263.352,208.427 C263.518,208.584 263.581,208.77 263.543,208.986 C263.5,209.225 263.356,209.416 263.115,209.555 C262.872,209.697 262.531,209.728 262.094,209.652 C261.66,209.576 261.34,209.417 261.135,209.172 C260.929,208.93 260.832,208.613 260.847,208.227 L259.878,208.209 C259.879,208.823 260.043,209.315 260.373,209.688 C260.702,210.058 261.23,210.308 261.963,210.437 C262.402,210.515 262.811,210.507 263.188,210.416 C263.563,210.323 263.871,210.154 264.104,209.906 C264.338,209.658 264.485,209.376 264.541,209.057 C264.599,208.734 264.57,208.449 264.457,208.203 C264.344,207.957 264.164,207.754 263.918,207.592 C263.672,207.431 263.229,207.201 262.588,206.904 C262.145,206.694 261.877,206.563 261.789,206.511 C261.635,206.414 261.527,206.308 261.469,206.194 C261.408,206.081 261.389,205.964 261.41,205.84 C261.444,205.645 261.568,205.492 261.781,205.38 L261.781,205.38 L261.781,205.38 Z M255.375,190.005 C255.113,189.832 254.813,189.717 254.475,189.657 C253.697,189.518 253.045,189.722 252.525,190.267 L252.667,189.467 L251.809,189.317 L250.82,194.933 L251.772,195.101 L252.313,192.035 C252.44,191.315 252.672,190.851 253.012,190.647 C253.353,190.442 253.726,190.376 254.131,190.447 C254.385,190.492 254.596,190.589 254.764,190.736 C254.932,190.882 255.036,191.058 255.076,191.264 C255.116,191.469 255.102,191.766 255.034,192.155 L254.43,195.572 L255.382,195.74 L255.99,192.285 C256.068,191.845 256.105,191.533 256.101,191.35 C256.09,191.069 256.035,190.818 255.928,190.593 C255.822,190.373 255.639,190.176 255.375,190.005 L255.375,190.005 L255.375,190.005 Z M269.045,196.447 C269.102,196.124 269.074,195.838 268.961,195.593 C268.847,195.348 268.668,195.144 268.422,194.984 C268.176,194.823 267.734,194.591 267.09,194.294 C266.649,194.085 266.381,193.955 266.291,193.902 C266.139,193.804 266.031,193.7 265.973,193.585 C265.912,193.472 265.893,193.355 265.914,193.23 C265.947,193.038 266.072,192.884 266.284,192.773 C266.496,192.662 266.821,192.644 267.259,192.721 C267.629,192.785 267.902,192.917 268.074,193.117 C268.249,193.314 268.332,193.561 268.324,193.859 L269.277,193.895 C269.281,193.521 269.221,193.212 269.1,192.966 C268.982,192.722 268.764,192.507 268.454,192.32 C268.142,192.133 267.766,192.003 267.327,191.924 C267.034,191.872 266.753,191.862 266.483,191.892 C266.213,191.923 265.997,191.981 265.829,192.063 C265.607,192.17 265.419,192.321 265.267,192.513 C265.117,192.706 265.018,192.928 264.974,193.178 C264.925,193.452 264.952,193.716 265.05,193.968 C265.15,194.22 265.321,194.434 265.571,194.612 C265.816,194.788 266.273,195.026 266.941,195.326 C267.435,195.548 267.743,195.712 267.857,195.819 C268.021,195.975 268.086,196.162 268.047,196.377 C268.005,196.617 267.862,196.808 267.618,196.948 C267.376,197.089 267.036,197.121 266.597,197.044 C266.163,196.968 265.843,196.808 265.638,196.565 C265.431,196.322 265.334,196.005 265.349,195.62 L264.38,195.6 C264.38,196.215 264.546,196.708 264.876,197.079 C265.204,197.449 265.732,197.699 266.464,197.828 C266.905,197.906 267.313,197.898 267.69,197.807 C268.067,197.714 268.372,197.545 268.606,197.297 C268.84,197.049 268.988,196.765 269.045,196.447 L269.045,196.447 L269.045,196.447 Z M249.6,202.332 L248.066,205.41 L247.551,206.438 L247.459,205.314 L247.193,201.908 L246.214,201.735 L244.739,204.867 C244.435,205.549 244.269,205.917 244.245,205.973 L244.125,204.708 L243.802,201.308 L242.82,201.135 L243.549,207.056 L244.543,207.232 L246.443,203.11 L246.49,204.107 L246.791,207.628 L247.78,207.803 L250.526,202.494 L249.6,202.332 L249.6,202.332 Z M253.651,202.916 C252.876,202.779 252.199,202.929 251.621,203.364 C251.042,203.802 250.668,204.491 250.502,205.435 C250.341,206.349 250.457,207.101 250.849,207.693 C251.243,208.284 251.848,208.651 252.67,208.797 C253.322,208.912 253.886,208.848 254.361,208.606 C254.837,208.362 255.203,207.965 255.459,207.418 L254.497,207.123 C254.282,207.499 254.034,207.757 253.755,207.896 C253.477,208.037 253.162,208.076 252.813,208.013 C252.344,207.93 251.981,207.699 251.725,207.314 C251.469,206.931 251.378,206.427 251.454,205.804 L255.642,206.542 C255.665,206.43 255.683,206.346 255.694,206.289 C255.857,205.362 255.747,204.601 255.36,204.005 C254.973,203.412 254.403,203.048 253.651,202.916 L253.651,202.916 L253.651,202.916 Z M251.643,205.032 C251.762,204.548 251.996,204.184 252.344,203.946 C252.695,203.705 253.087,203.623 253.527,203.7 C254.008,203.786 254.371,204.039 254.609,204.459 C254.762,204.73 254.822,205.105 254.781,205.585 L251.643,205.032 L251.643,205.032 Z M295.082,211.012 C294.697,210.417 294.129,210.053 293.377,209.921 C292.602,209.784 291.925,209.934 291.346,210.369 C290.768,210.806 290.394,211.496 290.227,212.441 C290.068,213.353 290.182,214.107 290.576,214.698 C290.969,215.289 291.574,215.656 292.395,215.802 C293.047,215.917 293.613,215.853 294.088,215.611 C294.563,215.367 294.928,214.97 295.185,214.423 L294.223,214.128 C294.008,214.504 293.76,214.762 293.481,214.901 C293.203,215.042 292.887,215.081 292.539,215.018 C292.07,214.935 291.707,214.704 291.452,214.32 C291.197,213.936 291.104,213.432 291.18,212.809 L295.369,213.547 C295.39,213.435 295.408,213.351 295.418,213.294 C295.58,212.368 295.469,211.607 295.082,211.012 L295.082,211.012 L295.082,211.012 Z M291.367,212.036 C291.486,211.553 291.72,211.19 292.07,210.95 C292.42,210.71 292.812,210.628 293.25,210.705 C293.732,210.79 294.094,211.044 294.332,211.464 C294.487,211.735 294.545,212.11 294.504,212.59 L291.367,212.036 L291.367,212.036 Z M289.525,209.241 C289.301,209.202 289.087,209.228 288.879,209.324 C288.672,209.418 288.424,209.644 288.134,210.005 L288.283,209.153 L287.428,209.003 L286.439,214.62 L287.39,214.788 L287.91,211.848 C287.98,211.447 288.098,211.084 288.264,210.765 C288.374,210.555 288.525,210.403 288.711,210.306 C288.899,210.21 289.097,210.181 289.305,210.217 C289.537,210.258 289.758,210.368 289.967,210.546 L290.449,209.721 C290.154,209.457 289.846,209.298 289.525,209.241 L289.525,209.241 L289.525,209.241 Z M285.679,208.694 L283.902,211.756 C283.676,212.145 283.469,212.549 283.286,212.966 C283.246,212.491 283.186,212.032 283.106,211.594 L282.51,208.134 L281.486,207.953 L282.625,213.957 C282.567,214.053 282.526,214.125 282.5,214.175 C282.299,214.529 282.16,214.748 282.084,214.833 C281.98,214.945 281.857,215.026 281.719,215.074 C281.58,215.121 281.406,215.127 281.195,215.09 C281.04,215.063 280.863,215.003 280.664,214.909 L280.611,215.822 C280.824,215.939 281.022,216.01 281.205,216.046 C281.51,216.1 281.783,216.072 282.027,215.965 C282.27,215.859 282.506,215.662 282.731,215.377 C282.9,215.167 283.152,214.773 283.49,214.197 L286.635,208.861 L285.679,208.694 L285.679,208.694 Z M243.893,191.976 L242.931,191.68 C242.716,192.056 242.469,192.315 242.19,192.454 C241.912,192.594 241.596,192.633 241.248,192.571 C240.779,192.488 240.416,192.256 240.161,191.872 C239.905,191.489 239.813,190.985 239.889,190.362 L244.077,191.099 C244.098,190.989 244.117,190.904 244.127,190.846 C244.29,189.919 244.18,189.158 243.793,188.563 C243.408,187.968 242.84,187.605 242.088,187.471 C241.314,187.334 240.635,187.485 240.057,187.92 C239.478,188.358 239.105,189.046 238.939,189.991 C238.778,190.905 238.893,191.657 239.286,192.248 C239.68,192.839 240.285,193.206 241.107,193.352 C241.758,193.465 242.324,193.403 242.797,193.16 C243.271,192.917 243.637,192.522 243.893,191.976 L243.893,191.976 L243.893,191.976 Z M240.777,188.502 C241.128,188.262 241.521,188.181 241.959,188.257 C242.441,188.343 242.803,188.596 243.041,189.016 C243.196,189.287 243.254,189.662 243.213,190.142 L240.076,189.588 C240.195,189.104 240.428,188.742 240.777,188.502 L240.777,188.502 L240.777,188.502 Z M270.799,204.81 L275.004,205.552 L275.166,204.637 L269.934,203.715 L268.568,211.469 L269.593,211.651 L270.214,208.129 L273.854,208.771 L274.014,207.858 L270.375,207.214 L270.799,204.81 L270.799,204.81 Z M281.113,195.603 C281.453,195.399 281.826,195.332 282.23,195.404 C282.484,195.449 282.696,195.546 282.864,195.693 C283.033,195.839 283.135,196.015 283.176,196.221 C283.215,196.426 283.201,196.724 283.133,197.112 L282.53,200.529 L283.481,200.697 L284.09,197.242 C284.168,196.802 284.205,196.49 284.2,196.307 C284.191,196.027 284.135,195.775 284.027,195.55 C283.921,195.328 283.736,195.131 283.473,194.96 C283.211,194.788 282.911,194.672 282.572,194.612 C281.793,194.474 281.141,194.677 280.623,195.222 L280.764,194.423 L279.908,194.273 L278.917,199.889 L279.869,200.056 L280.41,196.99 C280.539,196.271 280.773,195.809 281.113,195.603 L281.113,195.603 L281.113,195.603 Z M192.209,192.082 C191.515,191.959 190.888,192.062 190.333,192.394 C189.666,192.793 189.241,193.512 189.058,194.553 C188.891,195.501 189.005,196.27 189.402,196.862 C189.798,197.451 190.388,197.815 191.175,197.954 C191.665,198.041 192.137,198.006 192.592,197.85 C193.047,197.695 193.419,197.428 193.709,197.052 C193.999,196.675 194.207,196.126 194.335,195.404 C194.492,194.51 194.371,193.768 193.97,193.176 C193.568,192.582 192.98,192.218 192.209,192.082 L192.209,192.082 L192.209,192.082 Z M193.348,195.276 C193.218,196.012 192.964,196.534 192.587,196.838 C192.209,197.143 191.784,197.252 191.313,197.169 C190.836,197.085 190.472,196.837 190.222,196.424 C189.972,196.011 189.91,195.445 190.037,194.725 C190.164,194.006 190.415,193.496 190.792,193.196 C191.168,192.894 191.595,192.786 192.071,192.87 C192.54,192.953 192.901,193.202 193.153,193.615 C193.405,194.028 193.47,194.582 193.348,195.276 L193.348,195.276 L193.348,195.276 Z M279.536,207.654 C279.256,207.489 278.877,207.363 278.396,207.279 C277.914,207.194 277.475,207.184 277.084,207.253 C276.695,207.32 276.381,207.46 276.146,207.671 C275.908,207.882 275.711,208.179 275.557,208.563 L276.465,208.854 C276.637,208.473 276.844,208.223 277.086,208.104 C277.326,207.986 277.67,207.964 278.119,208.042 C278.598,208.127 278.941,208.299 279.143,208.557 C279.297,208.747 279.338,209.036 279.271,209.424 C279.263,209.459 279.248,209.542 279.221,209.672 C278.834,209.734 278.248,209.745 277.465,209.7 C277.079,209.679 276.788,209.678 276.592,209.693 C276.326,209.718 276.08,209.784 275.854,209.884 C275.626,209.986 275.43,210.139 275.264,210.344 C275.1,210.55 274.993,210.79 274.945,211.067 C274.863,211.536 274.96,211.95 275.238,212.309 C275.516,212.668 275.965,212.905 276.582,213.012 C276.955,213.077 277.316,213.077 277.664,213.012 C278.012,212.948 278.389,212.794 278.795,212.557 C278.775,212.827 278.799,213.07 278.863,213.285 L279.857,213.46 C279.775,213.224 279.734,212.985 279.736,212.743 C279.736,212.501 279.814,211.937 279.969,211.053 L280.194,209.783 C280.269,209.36 280.303,209.064 280.3,208.896 C280.289,208.625 280.23,208.392 280.117,208.197 C280.011,208.001 279.815,207.819 279.536,207.654 L279.536,207.654 L279.536,207.654 Z M279.031,210.768 C278.957,211.188 278.848,211.497 278.709,211.694 C278.526,211.949 278.277,212.131 277.965,212.241 C277.651,212.35 277.309,212.374 276.944,212.307 C276.573,212.243 276.306,212.109 276.144,211.906 C275.982,211.703 275.921,211.473 275.966,211.218 C275.995,211.053 276.069,210.909 276.179,210.789 C276.29,210.669 276.435,210.588 276.61,210.546 C276.786,210.504 277.073,210.49 277.472,210.502 C278.181,210.525 278.721,210.496 279.092,210.416 L279.031,210.768 L279.031,210.768 Z M209.869,187.715 L210.822,187.883 L211.812,182.266 L210.86,182.098 L209.869,187.715 L209.869,187.715 Z M207.934,187.374 L209.109,187.581 L207.369,183.631 L209.883,181.925 L208.653,181.708 L205.996,183.596 L206.776,179.173 L205.824,179.005 L204.457,186.76 L205.409,186.928 L205.803,184.7 L206.587,184.175 L207.934,187.374 L207.934,187.374 Z M209.701,195.166 C208.926,195.029 208.25,195.179 207.67,195.615 C207.092,196.052 206.719,196.741 206.552,197.685 C206.391,198.599 206.508,199.351 206.899,199.943 C207.293,200.534 207.899,200.902 208.721,201.047 C209.372,201.162 209.936,201.098 210.412,200.856 C210.887,200.613 211.254,200.216 211.51,199.669 L210.547,199.373 C210.332,199.749 210.084,200.008 209.805,200.147 C209.527,200.288 209.211,200.326 208.865,200.263 C208.393,200.181 208.033,199.95 207.776,199.565 C207.52,199.181 207.428,198.677 207.504,198.054 L211.692,198.793 C211.715,198.681 211.731,198.597 211.743,198.54 C211.906,197.612 211.795,196.852 211.408,196.255 C211.021,195.663 210.453,195.299 209.701,195.166 L209.701,195.166 L209.701,195.166 Z M207.691,197.282 C207.809,196.798 208.045,196.434 208.394,196.196 C208.744,195.955 209.135,195.874 209.574,195.951 C210.056,196.036 210.418,196.289 210.657,196.709 C210.812,196.98 210.871,197.355 210.829,197.835 L207.691,197.282 L207.691,197.282 Z M239.805,200.474 C239.031,200.337 238.353,200.489 237.775,200.923 C237.197,201.361 236.823,202.05 236.656,202.995 C236.496,203.908 236.611,204.661 237.004,205.252 C237.398,205.843 238.003,206.21 238.825,206.356 C239.475,206.469 240.041,206.407 240.516,206.164 C240.992,205.92 241.359,205.524 241.615,204.976 L240.652,204.68 C240.436,205.057 240.188,205.316 239.91,205.454 C239.631,205.595 239.316,205.634 238.969,205.572 C238.498,205.489 238.137,205.257 237.881,204.873 C237.625,204.49 237.533,203.986 237.609,203.363 L241.797,204.1 C241.819,203.989 241.836,203.905 241.846,203.847 C242.01,202.919 241.9,202.159 241.512,201.564 C241.125,200.971 240.557,200.606 239.805,200.474 L239.805,200.474 L239.805,200.474 Z M237.795,202.591 C237.914,202.108 238.149,201.744 238.498,201.504 C238.847,201.264 239.24,201.182 239.678,201.259 C240.16,201.344 240.522,201.598 240.76,202.017 C240.916,202.289 240.973,202.663 240.932,203.144 L237.795,202.591 L237.795,202.591 Z M201.736,181.209 C201.99,181.253 202.201,181.351 202.369,181.497 C202.537,181.644 202.64,181.821 202.681,182.027 C202.721,182.232 202.707,182.529 202.639,182.917 L202.036,186.334 L202.988,186.501 L203.596,183.047 C203.674,182.608 203.71,182.295 203.706,182.112 C203.697,181.831 203.64,181.579 203.534,181.356 C203.427,181.132 203.243,180.936 202.981,180.764 C202.717,180.592 202.418,180.477 202.079,180.417 C201.301,180.279 200.65,180.483 200.129,181.028 L200.27,180.227 L199.413,180.077 L198.422,185.694 L199.374,185.862 L199.915,182.795 C200.042,182.075 200.276,181.612 200.616,181.407 C200.956,181.202 201.33,181.137 201.736,181.209 L201.736,181.209 L201.736,181.209 Z M198.982,196.51 C198.896,196.989 198.781,197.347 198.631,197.58 C198.484,197.813 198.271,197.981 197.994,198.084 C197.718,198.188 197.436,198.213 197.152,198.163 C196.866,198.112 196.638,197.998 196.469,197.821 C196.3,197.642 196.208,197.425 196.193,197.165 C196.184,196.984 196.223,196.646 196.311,196.148 L196.861,193.033 L195.909,192.865 L195.295,196.344 C195.224,196.749 195.192,197.05 195.197,197.243 C195.205,197.531 195.26,197.783 195.366,198.001 C195.471,198.218 195.657,198.415 195.923,198.593 C196.189,198.772 196.485,198.888 196.819,198.947 C197.57,199.08 198.219,198.867 198.767,198.308 L198.622,199.133 L199.474,199.283 L200.464,193.665 L199.512,193.497 L198.982,196.51 L198.982,196.51 Z M202.781,194.977 C202.993,194.867 203.319,194.848 203.756,194.925 C204.125,194.99 204.399,195.122 204.572,195.321 C204.746,195.518 204.83,195.764 204.821,196.061 L205.775,196.098 C205.777,195.724 205.719,195.415 205.598,195.17 C205.478,194.926 205.262,194.71 204.952,194.524 C204.641,194.337 204.264,194.207 203.825,194.128 C203.533,194.076 203.252,194.066 202.983,194.097 C202.713,194.127 202.495,194.185 202.328,194.268 C202.106,194.374 201.918,194.525 201.766,194.717 C201.615,194.91 201.516,195.132 201.472,195.382 C201.423,195.657 201.45,195.92 201.548,196.173 C201.647,196.425 201.82,196.638 202.068,196.816 C202.315,196.993 202.772,197.23 203.438,197.53 C203.935,197.753 204.241,197.917 204.356,198.023 C204.52,198.18 204.585,198.367 204.545,198.582 C204.504,198.822 204.36,199.013 204.118,199.152 C203.875,199.293 203.535,199.325 203.097,199.248 C202.663,199.172 202.343,199.013 202.138,198.768 C201.931,198.527 201.834,198.21 201.849,197.824 L200.88,197.805 C200.881,198.419 201.046,198.913 201.375,199.284 C201.705,199.654 202.234,199.904 202.964,200.033 C203.405,200.111 203.812,200.102 204.19,200.012 C204.565,199.919 204.872,199.75 205.106,199.502 C205.339,199.254 205.487,198.972 205.544,198.654 C205.601,198.33 205.572,198.045 205.459,197.8 C205.345,197.554 205.166,197.351 204.92,197.189 C204.674,197.029 204.232,196.798 203.589,196.501 C203.146,196.292 202.88,196.161 202.791,196.109 C202.637,196.011 202.53,195.906 202.471,195.791 C202.41,195.678 202.39,195.561 202.412,195.437 C202.445,195.241 202.569,195.089 202.781,194.977 L202.781,194.977 L202.781,194.977 Z M231.393,197.161 C231.063,196.941 230.602,196.779 230.009,196.675 L227.1,196.161 L225.734,203.916 L228.691,204.437 C229.184,204.524 229.609,204.553 229.963,204.528 C230.318,204.502 230.623,204.424 230.879,204.294 C231.135,204.164 231.367,203.958 231.574,203.673 C231.783,203.388 231.92,203.065 231.984,202.7 C232.064,202.249 232.005,201.835 231.812,201.46 C231.619,201.083 231.298,200.785 230.855,200.565 C231.25,200.449 231.564,200.259 231.793,200 C232.025,199.739 232.17,199.442 232.23,199.112 C232.292,198.755 232.251,198.394 232.105,198.034 C231.961,197.673 231.723,197.381 231.393,197.161 L231.393,197.161 L231.393,197.161 Z M230.922,202.513 C230.877,202.76 230.787,202.969 230.652,203.14 C230.516,203.31 230.361,203.431 230.184,203.501 C230.006,203.572 229.797,203.607 229.553,203.608 C229.414,203.609 229.18,203.58 228.85,203.522 L226.918,203.18 L227.389,200.514 L229.181,200.829 C229.675,200.917 230.045,201.026 230.293,201.159 C230.54,201.292 230.719,201.477 230.83,201.719 C230.941,201.96 230.973,202.224 230.922,202.513 L230.922,202.513 L230.922,202.513 Z M231.197,199.055 C231.15,199.326 231.045,199.54 230.88,199.699 C230.717,199.854 230.496,199.949 230.223,199.981 C230.015,200.005 229.682,199.977 229.229,199.898 L227.551,199.601 L227.965,197.257 L229.516,197.53 C230.074,197.629 230.459,197.734 230.674,197.844 C230.891,197.957 231.044,198.122 231.133,198.34 C231.221,198.56 231.243,198.797 231.197,199.055 L231.197,199.055 L231.197,199.055 Z M226.896,190.903 L227.668,190.257 C227.273,189.859 226.939,189.389 226.668,188.855 C227.033,188.467 227.361,187.953 227.65,187.304 L226.698,186.918 C226.537,187.312 226.35,187.648 226.136,187.932 L225.058,185.914 C226.127,185.564 226.726,185.02 226.858,184.284 C226.937,183.829 226.837,183.41 226.556,183.026 C226.278,182.64 225.873,182.403 225.344,182.309 C224.79,182.211 224.301,182.302 223.875,182.581 C223.45,182.86 223.196,183.233 223.114,183.698 C223.073,183.93 223.087,184.181 223.161,184.454 C223.231,184.725 223.407,185.092 223.686,185.556 C223.02,185.742 222.498,185.998 222.123,186.33 C221.746,186.661 221.517,187.067 221.432,187.547 C221.337,188.087 221.44,188.609 221.741,189.112 C222.111,189.73 222.694,190.109 223.487,190.249 C223.917,190.325 224.334,190.309 224.734,190.198 C225.134,190.09 225.523,189.886 225.899,189.594 C226.225,190.153 226.557,190.588 226.896,190.903 L226.896,190.903 L226.896,190.903 Z M224.475,183.222 C224.675,183.087 224.906,183.042 225.162,183.087 C225.414,183.132 225.607,183.252 225.746,183.448 C225.883,183.644 225.93,183.877 225.883,184.138 C225.844,184.363 225.746,184.553 225.594,184.715 C225.441,184.877 225.135,185.044 224.678,185.213 L224.342,184.648 C224.245,184.478 224.178,184.322 224.139,184.178 C224.101,184.034 224.092,183.907 224.115,183.783 C224.154,183.545 224.274,183.357 224.475,183.222 L224.475,183.222 L224.475,183.222 Z M224.58,189.303 C224.244,189.427 223.934,189.464 223.646,189.414 C223.189,189.333 222.865,189.101 222.672,188.719 C222.483,188.335 222.414,187.99 222.469,187.674 C222.515,187.416 222.652,187.171 222.877,186.942 C223.102,186.712 223.5,186.488 224.068,186.271 L225.432,188.744 C225.201,188.991 224.917,189.179 224.58,189.303 L224.58,189.303 L224.58,189.303 Z M235.953,199.795 C235.73,199.756 235.515,199.783 235.307,199.878 C235.1,199.972 234.853,200.199 234.562,200.559 L234.711,199.707 L233.857,199.557 L232.867,205.174 L233.819,205.342 L234.338,202.403 C234.408,202.001 234.526,201.638 234.692,201.32 C234.801,201.11 234.952,200.957 235.138,200.861 C235.326,200.764 235.525,200.735 235.733,200.772 C235.964,200.813 236.185,200.922 236.394,201.1 L236.876,200.276 C236.582,200.011 236.273,199.852 235.953,199.795 L235.953,199.795 L235.953,199.795 Z M217.398,187.304 L216.434,187.008 C216.219,187.384 215.971,187.643 215.693,187.782 C215.415,187.923 215.1,187.961 214.752,187.899 C214.283,187.816 213.92,187.584 213.664,187.2 C213.408,186.817 213.316,186.312 213.391,185.69 L217.58,186.427 C217.602,186.317 217.62,186.232 217.63,186.174 C217.793,185.247 217.683,184.486 217.297,183.89 C216.911,183.296 216.342,182.932 215.59,182.799 C214.815,182.662 214.139,182.812 213.56,183.248 C212.981,183.684 212.608,184.374 212.442,185.319 C212.281,186.233 212.397,186.985 212.789,187.576 C213.182,188.167 213.789,188.534 214.611,188.68 C215.261,188.794 215.826,188.732 216.301,188.489 C216.776,188.245 217.143,187.851 217.398,187.304 L217.398,187.304 L217.398,187.304 Z M214.283,183.831 C214.633,183.59 215.026,183.509 215.464,183.586 C215.947,183.671 216.309,183.924 216.546,184.344 C216.701,184.615 216.76,184.99 216.719,185.47 L213.582,184.917 C213.7,184.433 213.934,184.07 214.283,183.831 L214.283,183.831 L214.283,183.831 Z M221.762,199.671 L220.813,199.285 C220.652,199.678 220.464,200.015 220.251,200.299 L219.173,198.281 C220.241,197.93 220.841,197.385 220.972,196.651 C221.052,196.196 220.951,195.777 220.671,195.392 C220.391,195.008 219.987,194.771 219.458,194.677 C218.905,194.579 218.416,194.669 217.989,194.949 C217.563,195.227 217.309,195.599 217.227,196.065 C217.186,196.297 217.202,196.548 217.275,196.821 C217.345,197.092 217.522,197.459 217.8,197.923 C217.134,198.109 216.612,198.365 216.237,198.697 C215.861,199.028 215.632,199.433 215.546,199.914 C215.452,200.454 215.554,200.976 215.855,201.479 C216.224,202.096 216.808,202.476 217.601,202.617 C218.032,202.692 218.448,202.676 218.847,202.565 C219.249,202.457 219.637,202.254 220.013,201.961 C220.337,202.516 220.668,202.95 221.009,203.266 L221.782,202.621 C221.386,202.222 221.053,201.753 220.78,201.219 C221.146,200.834 221.475,200.318 221.762,199.671 L221.762,199.671 L221.762,199.671 Z M218.586,195.587 C218.785,195.452 219.016,195.407 219.272,195.452 C219.525,195.497 219.717,195.617 219.856,195.812 C219.994,196.009 220.041,196.242 219.994,196.504 C219.955,196.728 219.857,196.918 219.705,197.08 C219.549,197.243 219.246,197.409 218.789,197.578 L218.453,197.013 C218.354,196.843 218.288,196.686 218.25,196.543 C218.212,196.399 218.203,196.269 218.225,196.148 C218.265,195.911 218.385,195.723 218.586,195.587 L218.586,195.587 L218.586,195.587 Z M218.691,201.668 C218.355,201.792 218.045,201.829 217.756,201.779 C217.297,201.698 216.974,201.466 216.783,201.084 C216.592,200.701 216.524,200.353 216.58,200.039 C216.625,199.781 216.76,199.537 216.988,199.307 C217.213,199.077 217.611,198.852 218.178,198.636 L219.542,201.109 C219.312,201.356 219.027,201.544 218.691,201.668 L218.691,201.668 L218.691,201.668 Z M211.044,181.056 L211.996,181.224 L212.189,180.128 L211.236,179.96 L211.044,181.056 L211.044,181.056 Z M211.044,181.056" class="Shape"/>
            </g>
            <g class="background">
                <path d="M214.212,152.785 L214.059,152.9 L213.74,152.863 C203.883,159.924 190.104,163.283 176.495,160.884 C163.432,158.58 156.287,153.525 151.462,145.1 L151.033,145.044 L150.95,144.902 L146.45,147.217 C146.439,147.23 144.734,148.038 145.075,149.532 C145.103,149.672 150.967,163.543 175.026,167.785 C175.419,167.854 175.827,167.927 176.28,168 C176.79,168.09 181.1,168.85 187.874,168.152 C194.486,167.472 204.883,165.233 216.843,158.41 C216.861,158.406 218.503,157.437 217.479,156.025 C217.418,155.949 215.174,153.735 214.212,152.785 L214.212,152.785 L214.212,152.785 Z M363.551,106.093 L360.362,103.093 L342.297,117.613 L278.037,65.34 L238.871,58.238 L246.301,33.288 L191.663,24.583 L183.36,48.45 L149.8,41.14 L57.084,68.292 L51.525,48.125 L43.032,50.266 L58.192,104.602 L115.357,86.9 L147.716,137.971 L148.882,139.813 L180.365,151.666 L218.052,149.91 L221.304,147.765 L273.332,113.293 L294.204,93.918 L333.489,126.128 L333.957,127.752 L312.376,146.811 L316.501,150.054 L337.164,131.86 L342.779,136.028 L355.168,125.065 L348.234,119.649 L363.551,106.093 L363.551,106.093 Z M363.551,106.093" class="walkway"/>
                <path d="M204.87,137.299 L204.291,136.84 C201.639,138.843 196.937,141.717 190.786,142.792 C187.805,143.316 184.477,143.417 180.881,142.782 C180.058,142.636 179.282,142.467 178.537,142.275 C170.701,140.295 167.109,136.073 165.49,132.96 C165.044,132.1 164.747,131.331 164.55,130.713 L164.876,130.63 L164.609,129.568 C164.6,129.526 164.591,129.494 164.585,129.448 C164.579,129.412 164.574,129.364 164.568,129.325 C164.553,129.227 164.54,129.133 164.527,129.021 C164.526,129.01 164.526,129 164.525,128.994 C164.509,128.858 164.497,128.711 164.484,128.555 C164.481,128.508 164.476,128.458 164.473,128.409 C164.464,128.279 164.455,128.142 164.45,128.001 C164.447,127.947 164.444,127.895 164.442,127.839 C164.433,127.651 164.425,127.454 164.421,127.246 L164.421,127.225 C164.416,127.007 164.414,126.779 164.413,126.542 L164.413,126.351 C164.413,126.172 164.414,125.989 164.417,125.798 C164.418,125.721 164.419,125.644 164.42,125.566 C164.424,125.358 164.43,125.144 164.438,124.927 C164.44,124.872 164.441,124.823 164.443,124.767 C164.452,124.496 164.464,124.215 164.479,123.928 C164.483,123.866 164.488,123.799 164.491,123.735 C164.504,123.508 164.517,123.279 164.533,123.045 C164.539,122.955 164.546,122.863 164.553,122.773 C164.571,122.541 164.588,122.304 164.61,122.068 C164.616,121.992 164.622,121.918 164.629,121.841 C164.657,121.526 164.688,121.205 164.722,120.88 C164.726,120.844 164.73,120.807 164.735,120.771 C164.764,120.487 164.798,120.199 164.835,119.908 C164.847,119.814 164.858,119.721 164.871,119.628 C164.903,119.379 164.935,119.128 164.972,118.874 C164.986,118.784 164.997,118.695 165.011,118.604 C165.031,118.476 165.051,118.346 165.072,118.217 C165.134,117.816 165.201,117.408 165.273,117.003 C165.294,116.886 165.314,116.771 165.335,116.655 C165.425,116.169 165.523,115.68 165.628,115.196 C165.65,115.092 165.675,114.987 165.699,114.884 C165.792,114.47 165.891,114.058 165.998,113.646 C166.026,113.536 166.054,113.423 166.084,113.312 C166.212,112.83 166.349,112.351 166.496,111.877 C166.526,111.78 166.558,111.687 166.589,111.591 C166.717,111.191 166.853,110.795 166.995,110.403 C167.034,110.299 167.071,110.19 167.111,110.086 C167.282,109.632 167.463,109.189 167.654,108.756 C167.693,108.67 167.733,108.587 167.771,108.503 C167.938,108.137 168.114,107.78 168.296,107.435 C168.347,107.338 168.396,107.243 168.448,107.148 C168.667,106.749 168.895,106.365 169.136,105.997 C169.186,105.92 169.24,105.85 169.29,105.771 C169.485,105.486 169.688,105.209 169.898,104.947 C169.965,104.859 170.034,104.773 170.103,104.691 C170.367,104.377 170.638,104.076 170.924,103.8 C170.954,103.773 170.986,103.747 171.015,103.719 C171.29,103.461 171.578,103.228 171.875,103.008 C171.968,102.941 172.061,102.871 172.156,102.806 C172.313,102.701 172.473,102.605 172.635,102.509 C172.795,102.416 172.953,102.318 173.119,102.238 C173.503,102.05 173.882,101.877 174.26,101.713 C174.383,101.658 174.503,101.611 174.624,101.563 C174.864,101.461 175.103,101.364 175.34,101.274 C175.807,101.093 176.269,100.926 176.723,100.78 C176.774,100.763 176.821,100.753 176.869,100.737 C177.278,100.608 177.681,100.491 178.078,100.385 C178.193,100.356 178.307,100.328 178.421,100.3 C178.971,100.163 179.514,100.041 180.038,99.946 C180.072,99.94 180.104,99.936 180.138,99.93 C180.644,99.84 181.132,99.774 181.61,99.718 C181.71,99.706 181.812,99.694 181.91,99.683 C182.071,99.666 182.226,99.655 182.383,99.641 C182.547,99.628 182.711,99.614 182.871,99.604 C183.03,99.593 183.183,99.588 183.337,99.583 C183.488,99.575 183.64,99.567 183.787,99.563 C183.94,99.561 184.087,99.561 184.236,99.559 C184.376,99.559 184.517,99.556 184.653,99.558 C184.8,99.561 184.942,99.567 185.085,99.571 C185.211,99.575 185.342,99.577 185.464,99.584 C185.609,99.591 185.742,99.603 185.88,99.61 C185.994,99.618 186.111,99.624 186.22,99.631 C186.356,99.643 186.483,99.656 186.612,99.669 C186.714,99.679 186.82,99.69 186.918,99.699 C187.046,99.714 187.164,99.73 187.285,99.747 C187.373,99.759 187.467,99.769 187.551,99.781 C187.75,99.81 187.939,99.841 188.115,99.873 C188.477,99.935 188.793,100.003 189.055,100.064 L200.383,66.066 L199.699,63.355 C198.074,62.113 196.894,60.501 196.256,58.694 L195.818,56.955 L195.505,56.9 L178.186,53.812 L177.342,53.658 L176.01,53.423 L152.52,49.234 L149.79,50.066 L143.892,51.859 L123.095,58.175 L99.12,65.459 L97.198,66.042 L66.595,75.341 L57.85,77.993 L58.534,80.704 L65.633,102.541 L66.676,102.233 L74.456,99.862 L105.129,90.466 L107.08,89.935 L114.128,87.791 L115.803,87.275 L116.218,88.921 L147.295,139.004 L147.92,138.699 L148.462,140.845 C149.246,142.741 150.102,144.493 151.042,146.133 C155.865,154.557 163.011,159.613 176.075,161.917 C176.835,162.051 177.596,162.161 178.357,162.259 C178.566,162.286 178.775,162.311 178.984,162.335 C179.602,162.407 180.219,162.469 180.838,162.518 C180.995,162.532 181.152,162.546 181.309,162.558 C182.062,162.612 182.812,162.646 183.562,162.665 C183.738,162.669 183.913,162.669 184.088,162.672 C184.687,162.682 185.285,162.681 185.881,162.669 C186.088,162.665 186.295,162.663 186.501,162.656 C187.244,162.633 187.985,162.597 188.722,162.544 C188.79,162.539 188.858,162.53 188.925,162.525 C189.435,162.486 189.943,162.44 190.448,162.385 C190.61,162.367 190.77,162.343 190.93,162.324 C191.16,162.297 191.388,162.266 191.618,162.237 C192.18,162.163 192.738,162.08 193.294,161.989 C193.483,161.957 193.673,161.926 193.861,161.894 C194.589,161.765 195.313,161.624 196.029,161.465 C196.149,161.44 196.266,161.407 196.385,161.38 C196.823,161.279 197.262,161.18 197.697,161.068 C197.809,161.039 197.919,161.001 198.031,160.969 C198.753,160.781 199.466,160.573 200.173,160.35 C200.346,160.296 200.525,160.248 200.696,160.194 C201.565,159.912 202.421,159.603 203.263,159.278 C203.323,159.256 203.382,159.237 203.441,159.215 C203.656,159.131 203.862,159.032 204.075,158.946 C204.605,158.728 205.134,158.508 205.653,158.274 C205.954,158.137 206.25,157.997 206.546,157.855 C207.028,157.625 207.507,157.389 207.98,157.144 C208.128,157.068 208.286,156.998 208.433,156.918 C208.579,156.84 208.719,156.751 208.866,156.671 C209.328,156.418 209.782,156.156 210.232,155.889 C210.511,155.723 210.794,155.558 211.069,155.387 C211.546,155.089 212.008,154.783 212.469,154.465 C212.649,154.344 212.837,154.233 213.013,154.11 C213.117,154.038 213.218,153.964 213.321,153.891 C213.983,153.416 214.621,152.92 215.246,152.412 C215.346,152.33 215.448,152.249 215.548,152.166 C216.137,151.678 216.708,151.174 217.262,150.656 C217.313,150.609 217.366,150.566 217.416,150.518 C217.633,150.315 217.847,150.108 218.059,149.9 L217.374,147.189 L204.87,137.299 L204.87,137.299 Z M171.641,99.975 C171.584,100.01 171.533,100.055 171.476,100.092 C171.474,100.093 171.472,100.094 171.47,100.096 C171.528,100.057 171.582,100.011 171.641,99.975 L171.641,99.975 L171.641,99.975 Z M169.532,101.835 C169.494,101.879 169.46,101.927 169.423,101.973 C169.416,101.979 169.409,101.985 169.402,101.994 C169.446,101.939 169.488,101.887 169.532,101.835 L169.532,101.835 L169.532,101.835 Z M167.812,104.338 C167.794,104.367 167.78,104.4 167.762,104.432 C167.752,104.451 167.741,104.466 167.732,104.485 C167.757,104.436 167.785,104.386 167.812,104.338 L167.812,104.338 L167.812,104.338 Z M167.624,104.691 C167.618,104.704 167.613,104.714 167.607,104.726 C167.594,104.747 167.584,104.769 167.572,104.79 C167.589,104.76 167.606,104.727 167.624,104.691 L167.624,104.691 L167.624,104.691 Z M166.446,107.309 C166.438,107.33 166.43,107.352 166.423,107.373 C166.411,107.402 166.399,107.432 166.387,107.462 C166.405,107.409 166.426,107.359 166.446,107.309 L166.446,107.309 L166.446,107.309 Z M166.349,107.566 C166.333,107.607 166.321,107.65 166.306,107.693 C166.289,107.738 166.274,107.784 166.256,107.829 C166.287,107.741 166.317,107.652 166.349,107.566 L166.349,107.566 L166.349,107.566 Z M166.062,108.374 C166.006,108.54 165.954,108.709 165.9,108.878 C165.899,108.881 165.897,108.886 165.896,108.891 C165.951,108.717 166.005,108.544 166.062,108.374 L166.062,108.374 L166.062,108.374 Z M165.4,110.578 C165.398,110.584 165.397,110.591 165.394,110.598 C165.39,110.614 165.385,110.628 165.381,110.643 C165.387,110.621 165.394,110.6 165.4,110.578 L165.4,110.578 L165.4,110.578 Z M165.358,110.727 C165.339,110.796 165.325,110.869 165.306,110.938 C165.289,111.003 165.273,111.069 165.256,111.133 C165.292,110.997 165.323,110.859 165.358,110.727 L165.358,110.727 L165.358,110.727 Z M165.117,111.703 C165.08,111.857 165.046,112.012 165.012,112.166 C165.009,112.182 165.005,112.193 165.002,112.208 C165.039,112.039 165.077,111.871 165.117,111.703 L165.117,111.703 L165.117,111.703 Z M164.613,114.113 C164.6,114.175 164.592,114.234 164.582,114.297 C164.567,114.378 164.553,114.459 164.539,114.539 C164.564,114.396 164.587,114.255 164.613,114.113 L164.613,114.113 L164.613,114.113 Z M164.371,115.572 C164.394,115.414 164.419,115.257 164.445,115.099 C164.424,115.23 164.404,115.361 164.383,115.493 C164.38,115.52 164.375,115.546 164.371,115.572 L164.371,115.572 L164.371,115.572 Z M63.257,101.16 L63.017,100.426 L57.034,82.029 L55.944,78.788 L50.455,62.58 L45.998,49.421 L3.913,61.394 L4.596,64.106 L22.908,116.159 L63.941,103.873 L63.257,101.16 L63.257,101.16 Z M85.191,152.851 L81.939,162.572 L82.623,165.283 L107.84,169.729 L111.091,160.009 L110.408,157.298 L85.191,152.851 L85.191,152.851 Z M89.451,128.156 L58.917,122.543 L50.375,147.405 L51.058,150.116 L81.613,155.505 L90.134,130.867 L89.451,128.156 L89.451,128.156 Z M334.544,127.838 L333.859,125.126 L324.652,117.356 L314.61,108.974 L314.094,108.506 L305.285,101.203 L268.101,70.177 L254.395,67.673 L224.866,62.264 L224.422,63.593 L224.051,62.121 L219.192,61.23 C217.13,63.425 214.268,64.994 211.145,65.641 L205.944,81.21 L206.471,83.309 L205.311,83.104 L199.946,99.345 L200.63,102.056 C200.986,102.07 202.346,102.138 204.148,102.454 C208.044,103.142 213.995,104.999 216.317,109.951 C216.874,117.867 208.613,131.801 206.926,134.555 L207.611,137.268 L209.948,139.227 L220.751,148.126 L271.674,114.393 L270.99,111.682 L268.388,109.453 L246.534,90.957 L247.232,91.08 L270.503,110.862 L274.732,114.495 L285.442,123.693 L285.211,123.896 L284.76,124.3 L285.444,127.012 L287.541,128.741 L287.959,128.37 L288.594,127.808 L288.88,127.556 L289.382,127.067 L293.691,130.767 L312.712,147.093 L333.54,128.774 L334.544,127.838 L334.544,127.838 Z M217.882,85.322 L218.012,84.935 L218.12,85.364 L217.882,85.322 L217.882,85.322 Z M404.557,134.421 L392.637,124.365 L394.118,123.052 L393.433,120.341 L391.333,118.612 L390.013,119.772 L389.773,119.992 L389.206,120.491 L388.676,121.016 L383.991,117.06 L364.189,100.346 L362.418,101.899 L361.795,102.45 L360.965,103.179 L360.281,103.782 L359.902,102.279 L341.381,86.668 L294.732,47.705 L258.38,41.295 L244.779,39.079 L244.586,39.047 L248.937,25.385 L248.254,22.674 L193.502,13.019 L188.761,28.09 L188.726,28.353 L188.906,29.064 L186.602,28.638 L142.735,21.253 L134.169,23.762 L126.723,25.943 L121.969,27.339 L109.924,30.863 L89.559,36.831 L73.169,41.635 L48.434,49.048 L49.117,51.759 L55.427,71.161 L56.594,70.808 L129.253,49.301 L140.435,45.935 L141.189,45.71 L148.234,43.62 L179.082,48.985 L194.717,51.277 L195.219,49.775 L195.729,51.798 L198.31,52.267 C198.346,52.214 198.387,52.165 198.423,52.113 C198.636,51.804 198.866,51.505 199.109,51.215 C199.188,51.119 199.27,51.025 199.352,50.931 C199.581,50.672 199.82,50.421 200.069,50.179 C200.136,50.112 200.202,50.042 200.271,49.977 C200.394,49.862 200.523,49.754 200.65,49.644 C200.787,49.526 200.921,49.406 201.06,49.293 C201.191,49.188 201.328,49.09 201.461,48.989 C201.599,48.885 201.736,48.781 201.878,48.681 C202.325,48.37 202.793,48.087 203.276,47.823 C203.401,47.754 203.526,47.684 203.653,47.619 C203.767,47.56 203.883,47.502 204.002,47.446 C204.193,47.354 204.386,47.267 204.581,47.183 C204.7,47.132 204.817,47.08 204.936,47.031 C205.134,46.951 205.336,46.878 205.54,46.805 C205.662,46.761 205.784,46.715 205.909,46.674 C206.151,46.594 206.397,46.522 206.644,46.454 C206.731,46.43 206.815,46.402 206.902,46.38 C207.05,46.341 207.204,46.312 207.354,46.278 C207.57,46.228 207.785,46.176 208,46.136 C208.158,46.107 208.318,46.087 208.479,46.063 C208.69,46.03 208.901,45.995 209.114,45.971 C209.325,45.948 209.536,45.934 209.747,45.919 C209.895,45.908 210.045,45.892 210.194,45.886 C210.421,45.876 210.647,45.878 210.876,45.878 C211.014,45.878 211.149,45.872 211.287,45.876 C211.542,45.883 211.797,45.903 212.051,45.923 C212.162,45.932 212.275,45.934 212.386,45.945 C212.753,45.982 213.119,46.032 213.486,46.096 C217.789,46.855 220.969,49.381 222.339,52.636 C222.386,53.094 222.411,53.557 222.39,54.029 L223.075,56.74 L226.401,57.327 L226.841,56.011 L227.208,57.469 L239.486,59.634 L276.7,66.21 L338.124,117.114 L342.562,120.839 L343.904,119.66 L344.283,121.162 L344.594,121.412 L350.207,125.974 L341.674,134.347 L336.059,130.179 L315.83,147.642 L314.963,148.391 L314.365,148.912 L313.128,149.98 L312.892,150.18 L313.578,152.891 L322.996,160.283 L331.125,166.663 L336.352,170.756 L353.087,183.885 L405.251,137.129 L404.557,134.421 L404.557,134.421 Z M198.27,40.659 L198.358,40.4 L198.429,40.687 L198.27,40.659 L198.27,40.659 Z M228.953,47.746 L228.92,47.612 L228.995,47.625 L228.953,47.746 L228.953,47.746 Z M123.208,151.442 L119.414,162.783 L120.098,165.495 L138.449,168.73 L142.243,157.388 L141.56,154.676 L123.208,151.442 L123.208,151.442 Z M123.208,151.442" class="wall"/>
            </g>
            <g class="ceilings">
                <path class="unit" d="M203.783,136.494 L203.863,136.555 L204.362,136.953 L216.859,146.849 C215.408,148.284 213.827,149.62 212.123,150.841 C210.239,152.185 208.214,153.397 206.078,154.461 L196.695,140.554 C199.733,139.287 202.151,137.728 203.783,136.494 L203.783,136.494 L203.783,136.494 Z M203.783,136.494" id="1001"/>
                <path class="unit" d="M196.454,140.655 L205.848,154.569 C200.33,157.278 194.071,159.003 187.538,159.487 L187.622,142.779 C188.534,142.704 189.425,142.598 190.278,142.446 C192.548,142.046 194.613,141.406 196.454,140.655 L196.454,140.655 L196.454,140.655 Z M196.454,140.655" id="1002"/>
                <path class="unit" d="M163.231,124.362 C163.273,125.621 163.376,126.535 163.513,126.903 L163.682,127.572 L163.581,127.413 L162.831,127.786 L160.648,128.848 L156.372,130.935 L146.096,135.95 L142.649,130.393 L139.363,125.095 L139.207,124.846 L135.914,119.546 L163.231,124.362 L163.231,124.362 Z M163.231,124.362" id="1003"/>
                <path class="unit" d="M168.599,137.198 C170.249,138.673 172.459,140.066 175.389,141.128 L166.221,156.637 C159.782,154.336 155.283,150.911 151.871,146.217 L168.599,137.198 L168.599,137.198 Z M168.599,137.198" id="1004"/>
                <path class="unit" d="M141.051,154.332 L137.256,165.674 L118.906,162.438 L122.7,151.097 L141.051,154.332 L141.051,154.332 Z M141.051,154.332" id="1005"/>
                <path class="unit" d="M163.807,129.533 C163.854,129.736 163.919,129.984 164.008,130.267 C164.205,130.901 164.512,131.709 164.982,132.614 C165.693,133.968 166.77,135.542 168.42,137.044 L151.746,146.04 C151.073,145.1 150.438,144.113 149.845,143.079 C148.906,141.439 148.049,139.685 147.265,137.79 L149,136.844 L149.179,136.749 L162.776,130.038 L163.807,129.533 L163.807,129.533 Z M163.807,129.533" id="1006"/>
                <path class="unit" d="M212.596,150.765 C213.558,151.715 215.802,153.929 215.862,154.007 C216.884,155.419 215.243,156.387 215.225,156.392 C203.264,163.215 192.869,165.455 186.256,166.134 C179.484,166.831 175.172,166.072 174.662,165.982 C174.208,165.909 173.801,165.836 173.408,165.767 C149.348,161.525 143.487,147.655 143.456,147.514 C143.115,146.021 144.821,145.209 144.832,145.199 L149.332,142.883 L149.415,143.028 L149.844,143.083 C154.668,151.506 161.814,156.562 174.877,158.866 C174.998,158.887 175.119,158.908 175.24,158.928 C175.427,158.959 175.519,158.974 175.613,158.991 C175.801,159.019 175.901,159.036 176,159.052 C189.289,161.068 202.553,157.7 212.122,150.847 L212.441,150.883 L212.596,150.765 L212.596,150.765 Z M212.596,150.765" id="1007"/>
                <path class="unit" d="M187.369,142.796 L187.286,159.503 C183.596,159.759 179.832,159.627 176.071,159.059 C176.047,159.055 176.024,159.051 176,159.048 C175.902,159.032 175.802,159.017 175.704,159.001 C175.674,158.997 175.643,158.992 175.614,158.987 C175.521,158.97 175.426,158.957 175.334,158.941 C175.303,158.934 175.272,158.93 175.241,158.924 C175.119,158.903 174.999,158.882 174.878,158.862 C171.739,158.308 168.957,157.59 166.452,156.711 L175.62,141.201 C176.379,141.471 177.174,141.718 178.03,141.93 C178.775,142.122 179.551,142.292 180.374,142.438 C182.84,142.872 185.181,142.955 187.369,142.796 L187.369,142.796 L187.369,142.796 Z M187.369,142.796" id="1008"/>
                <path class="unit" d="M296.002,47.969 L302.664,53.594 L284.037,69.696 L277.374,64.072 L296.002,47.969 L296.002,47.969 Z M296.002,47.969" id="1009"/>
                <path class="unit" d="M302.821,53.723 L309.484,59.347 L290.856,75.449 L284.193,69.825 L302.821,53.723 L302.821,53.723 Z M302.821,53.723" id="1010"/>
                <path class="unit" d="M309.639,59.482 L316.305,65.1 L297.677,81.203 L291.014,75.578 L309.639,59.482 L309.639,59.482 Z M309.639,59.482" id="1011"/>
                <path class="unit" d="M269.336,70.739 L274.062,74.75 L278.938,78.895 L256.996,97.645 L252.118,93.506 L247.394,89.489 L269.336,70.739 L269.336,70.739 Z M269.336,70.739" id="1012"/>
                <path class="unit" d="M329.941,76.613 L316.459,65.235 L297.834,81.332 L311.316,92.709 L329.941,76.613 L329.941,76.613 Z M329.941,76.613" id="1013"/>
                <path class="unit" d="M279.083,79.015 L283.808,83.032 L261.864,101.788 L257.138,97.771 L279.083,79.015 L279.083,79.015 Z M279.083,79.015" id="1014"/>
                <path class="unit" d="M283.959,83.16 L288.686,87.17 L266.74,105.927 L262.017,101.909 L283.959,83.16 L283.959,83.16 Z M283.959,83.16" id="1016"/>
                <path class="unit" d="M288.829,87.297 L293.553,91.314 L271.61,110.062 L266.884,106.052 L288.829,87.297 L288.829,87.297 Z M288.829,87.297" id="1017"/>
                <path class="unit" d="M330.857,78 L330.921,78.058 L340.107,86.079 L322.3,101.641 L312.88,93.726 L330.857,78 L330.857,78 Z M330.857,78" id="1018"/>
                <path class="unit" d="M293.703,91.441 L298.43,95.452 L276.484,114.208 L271.761,110.191 L293.703,91.441 L293.703,91.441 Z M293.703,91.441" id="1019"/>
                <path class="unit" d="M340.742,86.326 L345.347,90.1 L327.493,105.915 L322.892,102.143 L340.742,86.326 L340.742,86.326 Z M340.742,86.326" id="1020"/>
                <path class="unit" d="M301.597,98.104 L298.573,95.578 L276.631,114.328 L279.985,117.019 L301.597,98.104 Z M301.597,98.104" id="1021"/>
                <path class="unit" d="M345.48,90.211 L350.081,93.978 L332.234,109.794 L327.627,106.025 L345.48,90.211 L345.48,90.211 Z M345.48,90.211" id="1022"/>
                <path class="unit" d="M350.213,94.089 L354.818,97.862 L336.964,113.678 L332.36,109.902 L350.213,94.089 L350.213,94.089 Z M350.213,94.089" id="1023"/>
                <path class="unit" d="M304.836,100.811 L313.588,108.162 L292.265,126.993 L288.418,123.858 L287.686,124.503 L287.541,124.632 L287.4,124.755 L286.766,125.317 L286.348,125.688 L284.25,123.958 L284.702,123.554 L285.347,122.987 L285.49,122.857 L285.633,122.734 L286.273,122.107 L283.178,119.582 L304.836,100.811 L304.836,100.811 Z M304.836,100.811" id="1024"/>
                <path class="unit" d="M314.391,108.688 L319.077,112.684 L303.358,126.129 L298.68,122.134 L314.391,108.688 L314.391,108.688 Z M314.391,108.688" id="1025"/>
                <path class="unit" d="M354.954,97.967 L359.552,101.739 L341.707,117.557 L337.102,113.782 L354.954,97.967 L354.954,97.967 Z M354.954,97.967" id="1026"/>
                <path class="unit" d="M319.194,112.793 L323.88,116.789 L308.161,130.234 L303.483,126.238 L319.194,112.793 L319.194,112.793 Z M319.194,112.793" id="1027"/>
                <path class="unit" d="M323.997,116.897 L328.684,120.895 L312.965,134.339 L308.288,130.337 L323.997,116.897 L323.997,116.897 Z M323.997,116.897" id="1028"/>
                <path class="unit" d="M321.141,127.554 L313.092,134.442 L315.333,136.356 L323.417,129.466 L321.141,127.554 Z M321.141,127.554" id="1029"/>
                <path class="unit" d="M298.485,122.302 L317.576,138.605 L311.394,143.897 L292.296,127.592 L298.485,122.302 L298.485,122.302 Z M298.485,122.302" id="1030"/>
                <path class="unit" d="M363.682,100.004 L383.485,116.717 L388.169,120.673 L388.7,120.146 L389.266,119.647 L389.509,119.429 L390.829,118.268 L392.928,119.997 L391.339,121.4 L390.858,121.826 L390.201,122.391 L404.052,134.075 L351.888,180.831 L335.152,167.702 L329.926,163.61 L321.797,157.229 L312.378,149.84 L312.614,149.639 L313.85,148.571 L314.45,148.051 L315.315,147.302 L335.547,129.839 L341.163,134.007 L350.897,124.454 L343.397,118.358 L343.087,118.109 L360.457,102.835 L361.287,102.105 L361.911,101.557 L363.682,100.004 L363.682,100.004 Z M363.682,100.004" id="1031"/>
                <path class="unit" d="M267.662,69.637 L258.475,77.528 L261.479,68.546 L267.662,69.637 L267.662,69.637 Z M267.662,69.637" id="1032"/>
                <path class="unit" d="M241.972,65.107 L234.958,86.071 L228.782,84.982 L235.796,64.018 L241.972,65.107 L241.972,65.107 Z M241.972,65.107" id="1033"/>
                <path class="unit" d="M248.394,66.239 L241.38,87.204 L235.205,86.115 L242.219,65.15 L248.394,66.239 L248.394,66.239 Z M248.394,66.239" id="1034"/>
                <path class="unit" d="M254.817,67.372 L252.82,67.02 L245.837,87.951 L246.04,88.025 L258.12,77.829 L261.239,68.504 L254.817,67.372 Z M254.817,67.372" id="1035"/>
                <path class="unit" d="M244.896,89.83 L244.78,90.18 L214.842,106.32 C214.122,105.015 213.14,103.939 212.01,103.054 L218.02,85.09 L244.896,89.83 L244.896,89.83 Z M244.896,89.83" id="1036"/>
                <path class="unit" d="M244.727,90.338 L235.813,116.985 L215.541,113.411 C215.975,111.01 215.979,108.844 215.279,107.205 C215.163,106.935 215.035,106.671 214.903,106.418 L244.727,90.338 L244.727,90.338 Z M244.727,90.338" id="1037"/>
                <path class="unit" d="M245.32,90.019 L267.881,109.109 L270.481,111.338 L256.463,120.627 L235.936,117.007 L244.887,90.252 L245.32,90.019 L245.32,90.019 Z M245.32,90.019" id="1038"/>
                <path class="unit" d="M256.324,120.717 L219.557,145.072 L205.461,133.983 C207.769,130.129 212.251,123.117 215.515,113.521 L235.775,117.092 L235.898,117.113 L256.324,120.717 L256.324,120.717 Z M256.324,120.717" id="1039"/>
                <path class="unit" d="M234.787,63.577 L227.561,85.178 L222.5,84.285 L229.727,62.685 L234.787,63.577 L234.787,63.577 Z M234.787,63.577" id="1040"/>
                <path class="unit" d="M217.474,62.012 L210.848,81.819 L205.438,80.865 L210.638,65.296 C213.191,64.764 215.566,63.615 217.474,62.012 L217.474,62.012 L217.474,62.012 Z M217.474,62.012" id="1041"/>
                <path class="unit" d="M218.685,60.886 L223.545,61.777 L216.506,82.818 L211.088,81.863 L217.829,61.713 C218.126,61.447 218.41,61.174 218.685,60.886 L218.685,60.886 L218.685,60.886 Z M218.685,60.886" id="1042"/>
                <path class="unit" d="M229.479,62.641 L222.253,84.242 L217.19,83.349 L224.417,61.749 L229.479,62.641 L229.479,62.641 Z M229.479,62.641" id="1043"/>
                <path class="unit" d="M195.308,56.609 L194.996,56.553 L180.072,53.888 L172.962,75.138 L190.082,78.157 L196.296,59.583 C195.805,58.649 195.467,57.653 195.308,56.609 L195.308,56.609 L195.308,56.609 Z M195.308,56.609" id="1045"/>
                <path class="unit" d="M196.451,59.874 C197.118,61.062 198.039,62.133 199.187,63.009 L193.916,78.834 L190.319,78.2 L196.451,59.874 L196.451,59.874 Z M196.451,59.874" id="1047"/>
                <path class="unit" d="M196.41,30.227 L190.515,47.693 L193.524,48.223 L199.371,30.749 L196.41,30.227 Z M196.41,30.227" id="1048"/>
                <path class="unit" d="M247.675,22.316 L243.162,36.727 L242.869,37.645 L242.562,37.591 L231.635,35.684 L231.561,35.906 L228.302,44.655 L197.71,39.26 L200.374,30.171 L188.22,28.007 L188.254,27.744 L192.996,12.673 L193.33,12.732 L247.675,22.316 L247.675,22.316 Z M247.675,22.316" id="1049"/>
                <path class="unit" d="M213.474,43.084 L228.041,45.801 L225.206,54.275 L221.879,53.688 C222.095,48.731 218.496,44.367 212.795,43.154 L212.856,42.976 L213.474,43.084 L213.474,43.084 Z M213.474,43.084" id="1050"/>
                <path class="unit" d="M235.213,37.298 L229.292,54.995 L226.015,54.417 L231.936,36.72 L235.213,37.298 L235.213,37.298 Z M235.213,37.298" id="1051"/>
                <path class="unit" d="M212.615,42.933 L212.558,43.098 C212.463,43.081 212.377,43.059 212.29,43.045 C206.341,41.996 200.159,44.662 197.116,49.214 L194.535,48.745 L197.378,40.246 L212.615,42.933 L212.615,42.933 Z M212.615,42.933" id="1052"/>
                <path class="unit" d="M238.729,37.918 L232.809,55.615 L229.532,55.037 L235.454,37.34 L238.729,37.918 L238.729,37.918 Z M238.729,37.918" id="1053"/>
                <path class="unit" d="M242.246,38.538 L236.326,56.235 L233.049,55.657 L238.971,37.96 L242.246,38.538 L242.246,38.538 Z M242.246,38.538" id="1054"/>
                <path class="unit" d="M272.735,43.57 L266.702,61.604 L259.783,60.385 L265.817,42.351 L272.735,43.57 L272.735,43.57 Z M272.735,43.57" id="1056"/>
                <path class="unit" d="M265.57,42.307 L259.537,60.341 L252.618,59.122 L258.653,41.087 L265.57,42.307 L265.57,42.307 Z M265.57,42.307" id="1057"/>
                <path class="unit" d="M294.225,47.359 L276.416,63.317 L274.107,62.91 L280.142,44.876 L285.683,45.854 L287.059,46.096 L294.225,47.359 L294.225,47.359 Z M294.225,47.359" id="1058"/>
                <path class="unit" d="M279.901,44.834 L273.867,62.868 L266.942,61.647 L272.977,43.613 L279.901,44.834 L279.901,44.834 Z M279.901,44.834" id="1059"/>
                <path class="unit" d="M177.691,53.416 L170.564,74.717 L161.935,73.195 L169.062,51.894 L177.691,53.416 L177.691,53.416 Z M177.691,53.416" id="1060"/>
                <path class="unit" d="M142.229,20.909 L147.042,40.566 L139.997,42.656 L133.663,23.417 L142.229,20.909 L142.229,20.909 Z M142.229,20.909" id="1061"/>
                <path class="unit" d="M132.962,23.806 L139.243,42.88 L139.33,43.15 L128.061,46.246 L121.462,26.994 L121.417,26.872 L126.216,25.598 L132.962,23.806 L132.962,23.806 Z M132.962,23.806" id="1062"/>
                <path class="unit" d="M120.898,27.043 L127.057,46.48 L120.891,48.314 L114.734,28.871 L120.898,27.043 L120.898,27.043 Z M120.898,27.043" id="1063"/>
                <path class="unit" d="M114.52,28.934 L120.677,48.378 L115.616,49.882 L108.134,52.103 L101.974,32.667 L108.92,30.599 L114.52,28.934 L114.52,28.934 Z M114.52,28.934" id="1064"/>
                <path class="unit" d="M101.76,32.729 L107.91,52.171 L101.746,53.999 L95.587,34.563 L101.76,32.729 L101.76,32.729 Z M101.76,32.729" id="1065"/>
                <path class="unit" d="M95.373,34.626 L101.532,54.062 L95.367,55.896 L89.209,36.454 L95.373,34.626 L95.373,34.626 Z M95.373,34.626" id="1066"/>
                <path class="unit" d="M81.57,38.682 L87.971,58.087 L55.402,67.753 L54.236,68.106 L47.926,48.703 L72.662,41.291 L81.57,38.682 L81.57,38.682 Z M81.57,38.682" id="1067"/>
                <path class="unit" d="M185.44,79.346 L179.611,96.77 C179.075,96.851 178.517,96.948 177.953,97.07 L171.8,95.985 L177.818,78.002 L185.44,79.346 L185.44,79.346 Z M185.44,79.346" id="1068"/>
                <path class="unit" d="M164.996,109.844 C164.583,111.332 164.253,112.871 163.993,114.386 L128.872,108.194 L125.579,102.895 L164.996,109.844 L164.996,109.844 Z M164.996,109.844" id="1069"/>
                <path class="unit" d="M163.959,114.604 C163.695,116.2 163.509,117.768 163.393,119.221 L132.314,113.742 L129.027,108.443 L163.959,114.604 L163.959,114.604 Z M163.959,114.604" id="1070"/>
                <path class="unit" d="M58.208,86.793 L59.677,91.348 L40.294,97.192 L38.645,92.257 L58.208,86.793 L58.208,86.793 Z M58.208,86.793" id="1071"/>
                <path class="unit" d="M142.236,51.842 L149.345,73.58 L143.335,75.409 L136.226,53.67 L142.236,51.842 L142.236,51.842 Z M142.236,51.842" id="1072"/>
                <path class="unit" d="M135.977,53.748 L143.085,75.486 L137.076,77.314 L129.967,55.576 L135.977,53.748 L135.977,53.748 Z M135.977,53.748" id="1073"/>
                <path class="unit" d="M129.72,55.646 L136.826,77.392 L130.817,79.22 L123.71,57.475 L129.72,55.646 L129.72,55.646 Z M129.72,55.646" id="1074"/>
                <path class="unit" d="M123.46,57.552 L130.569,79.29 L124.56,81.119 L117.451,59.38 L123.46,57.552 L123.46,57.552 Z M123.46,57.552" id="1075"/>
                <path class="unit" d="M110.942,61.363 L118.051,83.101 L112.042,84.929 L104.935,63.185 L110.942,61.363 L110.942,61.363 Z M110.942,61.363" id="1076"/>
                <path class="unit" d="M104.686,63.262 L111.794,85 L105.784,86.829 L98.683,65.092 L104.686,63.262 L104.686,63.262 Z M104.686,63.262" id="1077"/>
                <path class="unit" d="M97.025,65.458 L104.385,87.208 L100.646,88.38 L93.289,66.624 L97.025,65.458 L97.025,65.458 Z M97.025,65.458" id="1078"/>
                <path class="unit" d="M168.822,51.852 L161.695,73.153 L156.874,72.303 L151.209,49.129 L152.008,48.887 L168.822,51.852 L168.822,51.852 Z M168.822,51.852" id="1079"/>
                <path class="unit" d="M93.082,66.689 L100.449,88.439 L96.712,89.604 L89.345,67.854 L93.082,66.689 L93.082,66.689 Z M93.082,66.689" id="1080"/>
                <path class="unit" d="M89.146,67.92 L96.513,89.67 L92.776,90.835 L85.409,69.085 L89.146,67.92 L89.146,67.92 Z M89.146,67.92" id="1081"/>
                <path class="unit" d="M85.212,69.145 L92.57,90.9 L88.833,92.065 L81.473,70.317 L85.212,69.145 L85.212,69.145 Z M85.212,69.145" id="1082"/>
                <path class="unit" d="M81.276,70.376 L88.636,92.125 L84.899,93.291 L77.54,71.542 L81.276,70.376 L81.276,70.376 Z M81.276,70.376" id="1083"/>
                <path class="unit" d="M84.699,93.356 L77.333,71.606 L73.649,72.757 L80.843,94.561 L84.699,93.356 L84.699,93.356 Z M84.699,93.356" id="1084"/>
                <path class="unit" d="M69.463,74.062 L76.822,95.812 L73.083,96.983 L65.726,75.228 L69.463,74.062 L69.463,74.062 Z M69.463,74.062" id="1085"/>
                <path class="unit" d="M62.512,76.075 L69.678,97.896 L65.479,99.176 L64.436,99.482 L57.336,77.646 L62.512,76.075 L62.512,76.075 Z M62.512,76.075" id="1086"/>
                <path class="unit" d="M59.724,91.484 L61.562,97.167 L62.708,100.727 L43.325,106.573 L42.208,103.111 L40.341,97.329 L59.724,91.484 L59.724,91.484 Z M59.724,91.484" id="1087"/>
                <path class="unit" d="M58.147,86.655 L55.435,78.442 L49.946,62.233 L46.399,51.763 L4.356,63.757 L21.715,113.102 L43.132,106.686 L38.529,92.209 L58.147,86.655 Z M58.147,86.655" id="1088"/>
                <path class="unit" d="M154.033,73.996 L148.075,91.802 L115.096,85.986 L115.021,85.865 L154.033,73.996 L154.033,73.996 Z M154.033,73.996" id="1089"/>
                <path class="unit" d="M161.84,75.185 L155.823,93.167 L148.207,91.824 L154.188,73.949 L154.427,73.877 L161.84,75.185 L161.84,75.185 Z M161.84,75.185" id="1090"/>
                <path class="unit" d="M169.712,76.572 L163.695,94.556 L156.071,93.211 L162.088,75.228 L169.712,76.572 L169.712,76.572 Z M169.712,76.572" id="1091"/>
                <path class="unit" d="M177.577,77.959 L171.56,95.942 L163.936,94.598 L169.952,76.615 L177.577,77.959 L177.577,77.959 Z M177.577,77.959" id="1092"/>
                <path class="unit" d="M177.395,97.193 C175.675,97.61 173.838,98.235 171.927,99.177 C171.193,99.531 170.52,100.02 169.898,100.59 L118.539,91.534 L115.253,86.235 L148.006,92.01 L177.395,97.193 L177.395,97.193 Z M177.395,97.193" id="1093"/>
                <path class="unit" d="M122.166,97.188 L166.703,104.99 L166.785,104.99 C167.582,103.344 168.536,101.899 169.687,100.783 L169.687,100.783 L118.693,91.791 L122.071,97.229 L122.166,97.188 L122.166,97.188 Z M122.166,97.188" id="1094"/>
                <path class="unit" d="M166.547,105.172 L122.166,97.382 L122.166,97.467 L123.694,99.841 L125.426,102.638 L165.062,109.625 C165.476,108.157 166.035,106.505 166.703,105.156 L166.547,105.172 L166.547,105.172 Z M166.547,105.172" id="1110"/>
                <path class="unit" d="M193.553,29.723 L187.707,47.197 L182.128,46.214 L187.975,28.739 L193.553,29.723 L193.553,29.723 Z M193.553,29.723" id="1095"/>
                <path class="unit" d="M186.096,28.293 L180.124,46.144 L175.246,45.283 L181.217,27.433 L186.096,28.293 L186.096,28.293 Z M186.096,28.293" id="1096"/>
                <path class="unit" d="M180.854,27.369 L174.881,45.219 L170.002,44.358 L175.974,26.509 L180.854,27.369 L180.854,27.369 Z M180.854,27.369" id="1097"/>
                <path class="unit" d="M175.61,26.445 L160.253,23.736 L154.281,41.586 L169.639,44.294 L175.61,26.445 L175.61,26.445 Z M175.61,26.445" id="1098"/>
                <path class="unit" d="M159.881,23.671 L153.909,41.521 L149.038,40.662 L144.341,21.025 L159.881,23.671 L159.881,23.671 Z M159.881,23.671" id="1099"/>
                <path class="unit" d="M69.66,74.003 L77.027,95.753 L80.605,94.635 L73.411,72.832 L69.66,74.003 L69.66,74.003 Z M69.66,74.003" id="1100"/>
                <path class="unit" d="M149.277,49.718 L154.67,72.231 L149.592,73.51 L142.485,51.765 L149.277,49.718 L149.277,49.718 Z M149.277,49.718" id="1102"/>
                <path class="unit" d="M117.202,59.458 L124.31,81.196 L118.3,83.024 L111.191,61.286 L117.202,59.458 L117.202,59.458 Z M117.202,59.458" id="1103"/>
                <path class="unit" d="M87.111,37.054 L93.586,56.424 L88.229,58.052 L81.793,38.613 L87.111,37.054 L87.111,37.054 Z M87.111,37.054" id="1104"/>
                <path class="unit" d="M193.283,80.729 L187.861,97.006 C187.611,96.947 187.314,96.885 186.973,96.825 C185.406,96.549 182.917,96.32 179.876,96.735 L185.68,79.388 L193.283,80.729 L193.283,80.729 Z M193.283,80.729" id="1105"/>
                <path class="unit" d="M163.374,119.44 C163.24,121.247 163.203,122.856 163.23,124.132 L135.763,119.289 L132.477,113.99 L163.374,119.44 L163.374,119.44 Z M163.374,119.44" id="1106"/>
                <path class="unit" d="M109.899,156.952 L106.647,166.671 L81.43,162.225 L84.682,152.505 L109.899,156.952 L109.899,156.952 Z M109.899,156.952" id="1107"/>
                <path class="unit" d="M58.409,122.197 L88.942,127.811 L80.421,152.447 L49.867,147.06 L58.409,122.197 L58.409,122.197 Z M58.409,122.197" id="1108"/>
                <path class="unit" d="M205.684,100.022 L210.385,83.931 L210.458,83.681 L217.896,85.068 L211.907,102.968 C209.838,101.382 207.927,100.595 205.684,100.022" id="1109"/>
                <path class="unit" d="M210.027,83.813 L205.107,99.739 L204.985,99.891 C204.237,99.7 203.607,99.517 202.95,99.401 C201.153,99.085 199.796,99.014 199.44,99.001 L199.376,98.989 L204.805,82.76 L210.028,83.681 L210.027,83.813 L210.027,83.813 Z M210.027,83.813" id="1044"/>
                <path class="unit" d="M250.755,39.562 L244.722,57.596 L237.803,56.377 L243.838,38.342 L250.755,39.562 L250.755,39.562 Z M250.755,39.562" id="1055"/>
                <path class="unit" d="M258.16,40.963 L252.127,58.997 L245.208,57.778 L251.243,39.743 L258.16,40.963 L258.16,40.963 Z M258.16,40.963" id="1111"/>
                <path class="unit" d="M45.489,49.075 L3.403,61.048 L4.264,63.495 L46.304,51.482 L45.489,49.075 Z M45.489,49.075" id="1112"/>
                <path class="unit" d="M301.674,98.17 L280.059,117.078 L283.078,119.5 L304.748,100.737 L301.674,98.17 Z M301.674,98.17" id="1113"/>
                <path class="unit" d="M331.078,122.937 L328.805,120.996 L321.213,127.493 L323.492,129.402 L331.078,122.937 Z M331.078,122.937" id="1114"/>
                <path class="unit" d="M331.152,123 L323.557,129.463 L325.938,131.484 L333.488,124.993 L331.152,123 Z M331.152,123" id="1116"/>
                <path class="unit" d="M323.479,129.528 L315.394,136.407 L317.772,138.438 L325.846,131.563 L323.479,129.528 Z M323.479,129.528" id="1117"/>
                <path class="unit" d="M248.642,66.283 L241.628,87.247 L245.618,87.951 L252.633,66.987 L248.642,66.283 Z M248.642,66.283" id="1118"/>
                <path class="unit" d="M193.793,29.766 L187.947,47.24 L190.423,47.677 L196.34,30.215 L193.793,29.766 Z M193.793,29.766" id="1119"/>
        </g>
    </g>
</svg>