<?xml version="1.0" encoding="utf-8"?>
<!DOCTYPE svg PUBLIC "-//W3C//DTD SVG 1.1//EN" "http://www.w3.org/Graphics/SVG/1.1/DTD/svg11.dtd">
<svg version="1.1" xmlns="http://www.w3.org/2000/svg" xmlns:xlink="http://www.w3.org/1999/xlink" xml:space="preserve">
<g class="level" id="level2">
            <g class="outline">
                <path d="M182.658,108.547 C182.567,108.547 182.475,108.536 182.386,108.515 L123.292,93.852 L122.159,96.542 C121.972,96.986 121.517,97.26 121.042,97.232 L86.575,94.97 C85.985,94.931 85.524,94.444 85.518,93.853 L85.442,86.461 C85.441,86.3 85.473,86.14 85.538,85.993 L86.125,84.662 L42.937,74.048 C42.435,73.924 42.081,73.477 42.076,72.961 L42,65.758 C41.996,65.392 42.17,65.046 42.467,64.83 L95.713,26.215 C95.985,26.018 96.332,25.951 96.657,26.035 L154.957,40.931 C155.56,41.085 155.925,41.696 155.775,42.299 L155.557,43.176 L157.089,42.027 C157.361,41.823 157.707,41.752 158.039,41.834 L198.879,51.902 C199.394,52.029 199.751,52.497 199.739,53.027 L199.551,61.173 C199.543,61.522 199.374,61.847 199.094,62.055 L190.759,68.24 C190.483,68.445 190.127,68.512 189.795,68.425 L148.92,57.563 C148.413,57.429 148.066,56.963 148.079,56.439 L148.096,55.785 L145.315,57.627 L147.206,60.225 L189.723,70.948 C190.268,71.085 190.63,71.603 190.572,72.161 L189.818,79.402 C189.813,79.443 189.807,79.482 189.798,79.522 L183.765,107.654 C183.701,107.954 183.517,108.215 183.258,108.377 C183.076,108.489 182.868,108.547 182.658,108.547 L182.658,108.547 Z M182.658,108.547" class="outline"/>
            </g>
            <g class="label">
                <path d="M25.373,11.5 L30.319,11.5 C30.703,11.5 30.927,11.164 30.927,10.892 C30.927,10.556 30.703,10.284 30.319,10.284 L25.549,10.284 L25.549,6.426 L29.423,6.426 C29.807,6.426 30.015,6.106 30.015,5.834 C30.015,5.546 29.807,5.258 29.423,5.258 L25.549,5.258 L25.549,1.529 L30.159,1.529 C30.576,1.529 30.799,1.257 30.799,0.953 C30.799,0.617 30.575,0.313 30.159,0.313 L25.373,0.313 C24.685,0.313 24.316,0.681 24.316,1.273 L24.316,10.541 C24.316,11.132 24.685,11.5 25.373,11.5 L25.373,11.5 Z M13.375,29.516 L9.069,29.516 L9.069,20.104 C9.069,19.704 8.813,19.448 8.461,19.448 C8.108,19.448 7.836,19.704 7.836,20.104 L7.836,29.74 C7.836,30.332 8.204,30.7 8.893,30.7 L13.374,30.7 C13.774,30.7 14.03,30.428 14.03,30.092 C14.031,29.788 13.791,29.516 13.375,29.516 L13.375,29.516 Z M21.168,11.564 C21.696,11.564 21.984,11.148 21.984,10.716 L21.984,0.904 C21.984,0.504 21.76,0.248 21.408,0.248 C21.055,0.248 20.847,0.504 20.847,0.904 L20.847,9.467 L20.815,9.467 L15.245,0.727 C15.037,0.391 14.765,0.247 14.412,0.247 C13.932,0.247 13.612,0.583 13.612,1.159 L13.612,10.923 C13.612,11.323 13.868,11.563 14.204,11.563 C14.556,11.563 14.796,11.323 14.796,10.923 L14.796,2.263 L14.828,2.263 L20.334,11.019 C20.543,11.34 20.8,11.564 21.168,11.564 L21.168,11.564 Z M8.432,10.604 C8.432,10.3 8.224,10.044 7.904,10.044 C7.808,10.044 7.68,10.06 7.536,10.108 C7.088,10.3 6.608,10.444 5.839,10.444 C3.47,10.444 2.03,8.796 2.03,5.93 C2.03,3.209 3.342,1.384 5.599,1.384 C6.047,1.384 6.655,1.432 7.183,1.64 C7.391,1.72 7.567,1.784 7.759,1.784 C8.079,1.784 8.32,1.544 8.32,1.192 C8.32,0.968 8.176,0.744 7.872,0.616 C7.231,0.328 6.431,0.184 5.727,0.184 C2.926,0.184 0.765,2.184 0.765,6.074 C0.765,9.74 2.862,11.628 5.759,11.628 C6.511,11.628 7.119,11.532 7.823,11.26 C8.191,11.116 8.432,10.924 8.432,10.604 L8.432,10.604 Z M10.653,11.564 C11.005,11.564 11.277,11.324 11.277,10.924 L11.277,0.904 C11.277,0.504 11.021,0.248 10.669,0.248 C10.316,0.248 10.044,0.504 10.044,0.904 L10.044,10.924 C10.044,11.324 10.301,11.564 10.653,11.564 L10.653,11.564 Z M21.455,29.484 L16.685,29.484 L16.685,25.626 L20.559,25.626 C20.943,25.626 21.151,25.306 21.151,25.034 C21.151,24.746 20.943,24.458 20.559,24.458 L16.685,24.458 L16.685,20.729 L21.295,20.729 C21.711,20.729 21.935,20.457 21.935,20.153 C21.935,19.817 21.711,19.513 21.295,19.513 L16.509,19.513 C15.821,19.513 15.452,19.881 15.452,20.473 L15.452,29.74 C15.452,30.332 15.82,30.7 16.509,30.7 L21.455,30.7 C21.839,30.7 22.063,30.364 22.063,30.092 C22.063,29.756 21.839,29.484 21.455,29.484 L21.455,29.484 Z M54.255,10.428 C53.118,5.802 52.398,3.529 51.502,1.72 C50.878,0.471 50.382,0.103 49.821,0.103 C49.261,0.103 48.765,0.471 48.14,1.72 C47.244,3.529 46.556,5.802 45.387,10.428 C45.323,10.652 45.291,10.828 45.291,10.94 C45.291,11.324 45.547,11.564 45.899,11.564 C46.187,11.564 46.395,11.388 46.475,11.052 C46.779,9.676 47.083,8.443 47.388,7.386 L52.254,7.386 C52.542,8.443 52.846,9.675 53.167,11.052 C53.247,11.388 53.455,11.564 53.743,11.564 C54.095,11.564 54.351,11.324 54.351,10.94 C54.352,10.828 54.303,10.652 54.255,10.428 L54.255,10.428 Z M47.708,6.266 C48.444,3.817 49.101,2.296 49.613,1.496 C49.661,1.432 49.709,1.368 49.821,1.368 C49.933,1.368 49.981,1.432 50.029,1.496 C50.541,2.296 51.181,3.817 51.918,6.266 L47.708,6.266 L47.708,6.266 Z M47.422,29.516 L43.117,29.516 L43.117,20.104 C43.117,19.704 42.861,19.448 42.509,19.448 C42.156,19.448 41.884,19.704 41.884,20.104 L41.884,29.74 C41.884,30.332 42.252,30.7 42.941,30.7 L47.422,30.7 C47.822,30.7 48.078,30.428 48.078,30.092 C48.079,29.788 47.839,29.516 47.422,29.516 L47.422,29.516 Z M39.551,29.484 L34.781,29.484 L34.781,25.626 L38.655,25.626 C39.039,25.626 39.247,25.306 39.247,25.034 C39.247,24.746 39.039,24.458 38.655,24.458 L34.781,24.458 L34.781,20.729 L39.391,20.729 C39.807,20.729 40.031,20.457 40.031,20.153 C40.031,19.817 39.807,19.513 39.391,19.513 L34.605,19.513 C33.917,19.513 33.548,19.881 33.548,20.473 L33.548,29.74 C33.548,30.332 33.916,30.7 34.605,30.7 L39.551,30.7 C39.935,30.7 40.159,30.364 40.159,30.092 C40.159,29.756 39.935,29.484 39.551,29.484 L39.551,29.484 Z M31.231,19.448 C30.943,19.448 30.719,19.624 30.639,19.96 C29.359,25.834 28.254,28.443 27.518,29.564 C26.782,28.443 25.693,25.834 24.381,19.96 C24.301,19.624 24.077,19.448 23.789,19.448 C23.437,19.448 23.181,19.688 23.181,20.072 C23.181,20.184 23.229,20.36 23.277,20.584 C24.334,25.05 25.102,27.355 25.982,29.164 C26.59,30.413 26.942,30.781 27.503,30.781 C28.064,30.781 28.416,30.413 29.024,29.164 C29.904,27.355 30.657,25.066 31.745,20.584 C31.793,20.36 31.841,20.184 31.841,20.072 C31.84,19.688 31.584,19.448 31.231,19.448 L31.231,19.448 Z M43.073,11.564 C43.425,11.564 43.649,11.276 43.649,10.892 C43.649,10.764 43.633,10.524 43.633,10.412 C43.601,7.37 43.345,4.313 42.945,1.544 C42.833,0.711 42.545,0.248 41.889,0.248 C41.264,0.248 40.993,0.616 40.816,1.08 C40,3.289 39.103,6.122 38.126,8.747 L38.11,8.747 C37.102,6.266 36.318,3.657 35.293,1.224 C35.069,0.616 34.797,0.248 34.172,0.248 C33.516,0.248 33.212,0.696 33.116,1.577 C32.764,4.506 32.572,7.675 32.588,10.925 C32.572,11.309 32.812,11.565 33.164,11.565 C33.516,11.565 33.789,11.341 33.789,10.909 C33.773,7.836 33.965,4.859 34.301,1.866 L34.317,1.866 C35.294,4.491 36.238,7.132 37.278,9.757 C37.406,10.093 37.678,10.333 38.094,10.333 C38.494,10.333 38.798,10.093 38.926,9.757 C39.95,7.212 40.831,4.507 41.759,1.866 L41.775,1.866 C42.192,4.891 42.351,7.868 42.431,10.845 C42.432,11.292 42.656,11.564 43.073,11.564 L43.073,11.564 Z M43.073,11.564" class="Shape"/>
            </g>
            <g class="background">
                <path d="M197.504,54.855 L158.652,45.198 L154.535,48.148 L154.564,43.271 L153.637,43.935 L95.909,29.217 C78.804,41.528 61.687,53.827 44.557,66.113 L44.3,66.048 L44.297,66.299 C44.248,66.334 44.198,66.37 44.149,66.405 L44.295,66.442 L44.225,72.345 L89.126,83.571 L87.593,87.117 L87.778,87.129 L87.742,93.161 L120.361,95.01 L121.681,91.917 L181.79,106.624 L187.823,78.077 L187.738,76.068 L188.212,74.072 L187.648,73.925 L187.635,73.628 L187.571,73.904 L145.493,62.896 L141.814,58.631 L150.114,52.735 L150.077,55.978 L190.54,66.122 L198.346,60.503 L198.421,54.205 L197.504,54.855 L197.504,54.855 Z M197.504,54.855" class="wall"/>
            </g>
            <g class="ceilings">
                <path class="unit" d="M190.271,59.739 L151.1,49.937 L158.766,44.444 L198.51,54.323 L190.271,59.739 L190.271,59.739 Z M190.271,59.739" id="3001"/>
                <path class="unit" d="M138.853,54.094 L145.795,62.142 L188.513,73.318 L182.031,100.666 L121.46,85.295 L120.087,88.423 L87.895,86.362 L91.671,77.628 L44.451,65.651 C61.717,53.268 78.97,40.872 96.21,28.462 L153.957,43.185 L138.853,54.094 L138.853,54.094 Z M138.853,54.094" id="3002"/>
        </g>
    </g>
</svg>