<?xml version="1.0" encoding="utf-8"?>
<!DOCTYPE svg PUBLIC "-//W3C//DTD SVG 1.1//EN" "http://www.w3.org/Graphics/SVG/1.1/DTD/svg11.dtd">
<svg version="1.1" xmlns="http://www.w3.org/2000/svg" xmlns:xlink="http://www.w3.org/1999/xlink" xml:space="preserve">
<g class="level" id="level0">
            <g class="outline">
                    <path d="M314.618,182.029 L207.871,179.91 L207.488,181.598 C207.419,181.902 200.641,212.3 202.072,225.945 C203.155,236.248 207.269,245.435 207.31,245.519 L208.079,247.115 L237.23,239.135 L240.988,213.821 L276.516,214.622 L275.192,226.266 L276.725,232.195 L297.191,232.773 L294.271,261.388 L295.844,267.138 L307.373,267.425 L312.324,278.622 L327.738,272.632 L331.842,236.911 L340.586,229.88 L342.371,211.395 L341.218,206.823 L314.618,182.029 L314.618,182.029 Z M344.718,128.665 L344.681,128.45 C344.532,127.586 340.998,107.238 340.449,103.179 L340.396,102.916 C339.275,98.727 337.761,93.513 336.246,88.611 C334.884,84.206 334.222,82.092 333.695,81.041 L332.049,76.188 L330.526,76.188 C330.392,76.188 330.311,76.188 330.133,76.223 C328.619,72.345 328.443,72.026 328.255,71.783 C327.164,70.274 324.754,68.122 323.181,68.122 L322.698,68.132 L319.739,67.939 L316.395,62.001 L315.463,58.308 L301.256,37.25 L244.029,36.664 L216.625,31.831 L218.537,25.24 L217.15,19.739 L188.287,14.649 L187.594,16.804 L166.494,13.614 L165.827,10.69 L106.291,0.193 L96.74,28.04 L95.567,34.766 L87.034,58.638 L67.117,54.585 L60.882,53.148 L54.48,50.857 L39.57,45.74 L31.077,71.126 L6.028,66.709 L4.372,70.558 L1.197,81.274 L3.009,86.956 L19.374,89.701 L0.36,113.53 L2.139,119.134 L29.598,138.509 L32.493,141.95 L42.192,148.277 L50.501,139.099 L65.954,120.3 L94.095,125.414 L93.762,126.41 L95.333,132.152 L102.249,133.477 L92.828,159.321 L94.199,165.706 L120.95,167.807 L132.357,168.238 L242.699,171.744 L251.378,173.274 L252.071,173.552 L260.473,173.956 L267.37,174.005 L291.432,174.659 L291.487,174.661 L314.117,174.139 C319.666,174.069 327.437,171.65 332.144,168.546 C337.943,164.964 340.123,160.675 340.814,158.927 C345.636,148.779 344.641,138.195 344.458,136.612 L344.713,128.893 L344.718,128.665 L344.718,128.665 Z M344.718,128.665" class="outline"/>
                </g>
                <g class="label">
                    <path d="M14.497,18.095 L9.727,18.095 L9.727,14.238 L13.601,14.238 C13.985,14.238 14.193,13.918 14.193,13.646 C14.193,13.358 13.985,13.07 13.601,13.07 L9.727,13.07 L9.727,9.34 L14.336,9.34 C14.752,9.34 14.977,9.068 14.977,8.764 C14.977,8.428 14.752,8.124 14.336,8.124 L9.55,8.124 C8.862,8.124 8.493,8.492 8.493,9.084 L8.493,18.352 C8.493,18.944 8.861,19.312 9.55,19.312 L14.496,19.312 C14.88,19.312 15.104,18.976 15.104,18.704 C15.105,18.367 14.881,18.095 14.497,18.095 L14.497,18.095 Z M6.416,18.127 L2.11,18.127 L2.11,8.715 C2.11,8.315 1.854,8.059 1.502,8.059 C1.15,8.059 0.877,8.315 0.877,8.715 L0.877,18.351 C0.877,18.943 1.245,19.311 1.935,19.311 L6.415,19.311 C6.815,19.311 7.071,19.039 7.071,18.703 C7.072,18.399 6.833,18.127 6.416,18.127 L6.416,18.127 Z M24.273,8.059 C23.985,8.059 23.761,8.235 23.681,8.571 C22.401,14.445 21.295,17.054 20.56,18.175 C19.824,17.055 18.735,14.446 17.422,8.571 C17.342,8.235 17.118,8.059 16.83,8.059 C16.478,8.059 16.223,8.299 16.223,8.683 C16.223,8.795 16.271,8.971 16.319,9.195 C17.376,13.661 18.144,15.966 19.024,17.774 C19.631,19.023 19.984,19.391 20.545,19.391 C21.107,19.391 21.458,19.023 22.066,17.774 C22.946,15.965 23.699,13.676 24.787,9.195 C24.835,8.971 24.883,8.795 24.883,8.683 C24.881,8.299 24.625,8.059 24.273,8.059 L24.273,8.059 Z M32.592,18.095 L27.822,18.095 L27.822,14.238 L31.696,14.238 C32.08,14.238 32.288,13.918 32.288,13.646 C32.288,13.358 32.08,13.07 31.696,13.07 L27.822,13.07 L27.822,9.34 L32.432,9.34 C32.848,9.34 33.072,9.068 33.072,8.764 C33.072,8.428 32.848,8.124 32.432,8.124 L27.646,8.124 C26.958,8.124 26.588,8.492 26.588,9.084 L26.588,18.352 C26.588,18.944 26.956,19.312 27.646,19.312 L32.591,19.312 C32.976,19.312 33.199,18.976 33.199,18.704 C33.201,18.367 32.977,18.095 32.592,18.095 L32.592,18.095 Z M48.542,8.059 C48.351,8.059 48.158,8.107 47.838,8.347 C47.006,8.955 46.767,9.131 45.949,9.451 C45.484,9.627 45.373,9.851 45.373,10.107 C45.373,10.443 45.629,10.683 45.997,10.683 C46.109,10.683 46.301,10.651 46.493,10.571 C47.006,10.363 47.565,10.043 48.11,9.643 L48.11,18.735 C48.11,19.135 48.366,19.376 48.716,19.376 C49.07,19.376 49.341,19.136 49.341,18.735 L49.341,9.003 C49.343,8.299 48.911,8.059 48.542,8.059 L48.542,8.059 Z M40.464,18.127 L36.158,18.127 L36.158,8.715 C36.158,8.315 35.902,8.059 35.55,8.059 C35.198,8.059 34.925,8.315 34.925,8.715 L34.925,18.351 C34.925,18.943 35.293,19.311 35.983,19.311 L40.463,19.311 C40.863,19.311 41.119,19.039 41.119,18.703 C41.12,18.399 40.88,18.127 40.464,18.127 L40.464,18.127 Z M40.464,18.127" class="Shape"/>
                </g>
                <g class="background">
                    <path d="M286.806,149.333 L274.375,146.958 C273.938,147.056 265.618,148.886 262.957,158.272 C261.892,162.006 266.498,170.467 267.429,171.877 L291.491,172.533 C291.996,165.172 291.945,164.447 290.799,158.193 C289.882,153.207 286.96,149.526 286.806,149.333 L286.806,149.333 Z M282.993,120.025 L282.406,118.803 L292.582,88.792 L305.825,77.841 L307.887,79.849 L317.214,73.432 L317.092,71.766 L319.134,70.782 L314.404,62.796 L285.908,85.229 L176.426,65.924 L175.215,63.916 L190.258,18.952 L164.737,15.461 L161.813,23.191 L169.892,24.615 L165.696,37.161 L160.298,42.035 L98.751,29.385 L97.632,35.303 L154.49,47.126 L148.358,65.457 L146.579,65.144 L138.094,89.477 L140.198,89.848 L135.813,102.952 L87.85,94.495 L88.886,91.399 L79.841,89.805 L72.203,86.061 L67.103,80.841 L61.919,76.939 L48.989,74.659 L39.866,77.673 L32.557,77.287 L28.348,76.545 L14.723,73.841 L14.347,74.968 L6.461,71.63 L4.764,76.705 L9.586,77.418 L43.015,83.312 L69.066,92.377 L60.862,102.582 L58.758,102.211 L30.752,136.418 L33.767,140.504 L55.926,111.708 L57.61,112.307 L71.035,97.207 L139.823,109.336 L121.9,162.906 L119.974,166.002 L132.423,166.111 L130.326,159.771 L137.537,134.16 L139.818,134.41 L145.684,117.388 L152.834,115.962 L169.706,124.312 L169.539,125.325 L171.997,125.157 L182.773,129.744 L241.939,141.519 L244.917,141.302 L261.021,144.292 L243.424,165.675 L242.913,169.622 L251.96,171.216 L251.813,167.278 L251.043,166.416 C251.505,165.932 260.277,156.705 265.373,149.682 C270.454,142.666 278.904,128.564 279.349,127.822 L280.467,124.514 L281.6,124.187 L342.326,136.704 L342.489,131.446 L282.993,120.025 L282.993,120.025 Z M271.96,124.519 L267.87,131.665 L248.867,132.894 L192.567,122.967 L155.224,106.429 L152.737,103.303 L162.328,74.64 L164.807,73.378 L265.579,91.147 L281.078,97.266 L271.96,124.519 L271.96,124.519 Z M271.96,124.519" class="walkway"/>
                    <path d="M160.638,65.738 L159.728,62.13 L154.358,61.182 L153.351,64.186 L153.455,64.603 L153.225,64.562 L152.217,67.576 L152.321,67.993 L152.091,67.952 L151.086,70.956 L151.995,74.563 L157.367,75.511 L158.372,72.507 L158.267,72.09 L158.498,72.131 L159.506,69.117 L159.402,68.7 L159.632,68.741 L160.638,65.738 L160.638,65.738 Z M140.521,102.533 L141.429,106.141 L146.801,107.088 L147.806,104.084 L146.899,100.476 L141.526,99.529 L140.521,102.533 L140.521,102.533 Z M151.958,91.681 L151.048,88.073 L145.676,87.125 L144.671,90.129 L145.581,93.737 L150.952,94.685 L151.958,91.681 L151.958,91.681 Z M160.54,43.728 L165.938,38.854 L170.134,26.309 L169.225,22.701 L163.143,21.629 L164.978,16.145 L164.069,12.537 L107.712,2.6 L98.751,29.386 L99.66,32.993 L160.54,43.728 L160.54,43.728 Z M178.33,37.406 L179.335,34.401 L178.425,30.793 L173.042,29.844 L172.036,32.849 L172.946,36.457 L178.33,37.406 L178.33,37.406 Z M167.54,50.372 L166.536,53.377 L167.445,56.984 L172.828,57.934 L173.833,54.929 L172.925,51.321 L167.54,50.372 L167.54,50.372 Z M313.763,184.138 L209.559,182.069 C209.224,183.552 202.83,211.754 204.189,224.731 C204.567,228.387 205.214,231.53 205.887,234.052 C205.824,233.813 205.759,233.571 205.697,233.319 L206.607,236.927 C207.79,241.62 209.123,244.384 209.225,244.596 L235.331,237.45 L239.16,211.652 L279.063,212.518 L277.471,226.502 L278.38,230.11 L299.698,230.673 L296.565,261.439 L297.474,265.046 L308.769,265.327 L313.445,275.901 L325.772,271.11 L329.83,235.796 L338.557,228.777 L340.221,211.549 L339.311,207.942 L313.763,184.138 L313.763,184.138 Z M280.937,122.272 L279.804,122.6 L278.687,125.907 C278.242,126.649 269.791,140.751 264.71,147.767 C259.614,154.788 250.842,164.016 250.38,164.501 L249.956,165.771 L250.866,169.378 L251.529,169.495 L251.963,171.216 L267.307,171.944 L266.398,168.336 C266.236,168.098 264.273,165.217 263.059,162.057 C262.995,161.313 263.021,160.601 263.203,159.967 C265.863,150.58 274.182,148.748 274.621,148.653 L287.052,151.028 C287.175,151.182 289.048,153.546 290.272,157.017 C291.307,162.584 291.097,161.032 290.584,168.926 L291.492,172.533 C292.625,172.521 314.141,172.291 320.316,171.101 C324.117,170.374 326.72,169.436 330.993,166.535 C338.826,161.231 338.908,157.906 338.913,157.731 L341.975,148.576 L342.353,136.551 L341.445,132.943 L280.937,122.272 L280.937,122.272 Z M341.678,125.211 L341.116,125.112 C340.28,119.282 338.665,107.967 338.126,103.847 C338.011,102.974 337.77,101.846 337.446,100.564 C337.371,100.264 337.294,99.962 337.217,99.662 C337.203,99.608 337.185,99.536 337.172,99.482 C337.144,99.373 337.109,99.229 337.08,99.121 C336.913,98.459 336.747,97.799 336.581,97.138 C334.893,90.358 330.779,79.011 330.525,78.314 L328.837,78.759 C328.787,78.631 327.812,76.192 327.019,73.967 C326.229,71.731 323.271,70.362 323.116,70.29 L316.428,69.852 L316.549,71.518 L307.222,77.935 L305.161,75.927 L291.917,86.878 L281.741,116.889 L281.511,117.58 L282.421,121.188 L283.238,121.718 L342.492,132.166 L342.589,128.819 L341.678,125.211 L341.678,125.211 Z M163.498,53.107 L162.588,49.499 L157.204,48.549 L156.199,51.554 L157.108,55.162 L162.492,56.112 L163.498,53.107 L163.498,53.107 Z M243.671,167.369 L261.267,145.985 L260.428,142.655 L261.402,142.826 L262.41,139.811 L261.502,136.205 L255.481,135.143 L254.47,138.159 L255.297,141.438 L244.258,139.388 L243.861,140.059 L241.548,139.652 L241.354,138.876 L240.761,138.766 L241.635,136.151 L240.876,133.136 L249.115,134.589 L268.118,133.36 L272.208,126.214 L281.326,98.961 L280.417,95.353 L264.917,89.235 L254.639,87.423 L255.498,84.853 L254.619,81.366 L286.154,86.926 L314.406,62.801 L313.497,59.193 L300.123,39.367 L244.78,39.165 L213.512,33.652 L216.338,25.205 L215.428,21.597 L189.594,17.041 L174.549,62.006 L175.458,65.613 L176.592,67.492 L174.267,67.082 L173.258,70.097 L174.043,73.213 L164.144,71.467 L161.665,72.729 L152.076,101.393 L152.984,105.001 L155.471,108.127 L192.814,124.665 L213.954,128.392 L213.125,130.871 L213.851,133.75 L182.117,127.832 L171.339,123.245 L170.939,123.927 L169.334,123.526 L169.05,122.401 L162.24,119.031 L164.623,116.749 L163.713,113.141 L159.676,110.118 L157.192,112.506 L158.101,116.114 L161.562,118.695 L152.179,114.052 L145.03,115.479 L139.162,132.502 L136.881,132.25 L128.298,157.908 L129.206,161.516 L132.433,166.117 L242.926,169.627 L243.671,167.369 L243.671,167.369 Z M186.958,75.486 L179.697,74.206 L180.556,71.635 L179.677,68.148 L187.146,69.465 L186.171,72.37 L186.958,75.486 L186.958,75.486 Z M201.179,77.994 L192.616,76.484 L193.474,73.914 L192.597,70.427 L201.366,71.973 L200.394,74.879 L201.179,77.994 L201.179,77.994 Z M210.213,79.587 L206.836,78.992 L207.695,76.421 L206.815,72.934 L210.399,73.566 L209.427,76.471 L210.213,79.587 L210.213,79.587 Z M215.85,74.527 L224.621,76.073 L223.647,78.979 L224.432,82.095 L215.869,80.585 L216.73,78.014 L215.85,74.527 L215.85,74.527 Z M227.347,136.263 L219.617,134.821 L220.424,132.408 L219.664,129.394 L227.417,130.759 L226.587,133.239 L227.347,136.263 L227.347,136.263 Z M230.071,77.034 L234.958,77.896 L233.984,80.802 L234.769,83.917 L230.087,83.092 L230.947,80.521 L230.071,77.034 L230.071,77.034 Z M235.437,137.772 L233.037,137.324 L233.887,134.783 L233.127,131.768 L235.484,132.183 L234.655,134.662 L235.437,137.772 L235.437,137.772 Z M240.396,78.855 L249.164,80.401 L248.193,83.307 L248.978,86.422 L240.415,84.912 L241.275,82.342 L240.396,78.855 L240.396,78.855 Z M61.109,104.275 L69.313,94.07 L68.404,90.463 L42.354,81.398 L14.645,76.512 L14.972,75.535 L28.598,78.238 L32.806,78.98 L40.114,79.366 L49.237,76.353 L62.167,78.633 L67.352,82.535 L72.452,87.755 L80.089,91.499 L87.235,92.758 L88.099,96.189 L136.061,104.646 L140.447,91.542 L139.537,87.934 L139.475,87.923 L146.829,66.838 L148.608,67.152 L154.74,48.821 L153.832,45.213 L97.638,35.304 L88.911,61.389 L61.534,55.81 L40.911,48.443 L32.516,73.534 L7.32,69.091 L6.47,71.628 L7.379,75.236 L8.847,75.525 L4.773,76.702 L3.424,81.248 L4.333,84.856 L23.581,88.25 L2.734,113.964 L3.644,117.572 L31.416,136.873 L59.009,103.902 L61.109,104.275 L61.109,104.275 Z M139.158,107.42 L70.371,95.292 L56.947,110.391 L55.261,109.793 L32.859,136.896 L33.769,140.503 L41.835,145.505 L64.817,118.213 L97.106,123.765 L96.124,126.703 L97.033,130.311 L105.14,131.741 L95.034,160.1 L95.944,163.707 L119.975,166 L122.143,164.599 L140.068,111.027 L139.158,107.42 L139.158,107.42 Z M139.158,107.42" class="wall"/>
                    <path d="M267.126,158.505 C268.742,153.673 274.57,150.532 280.103,151.509 C285.647,152.487 288.839,157.218 287.224,162.048 C286.097,165.415 282.942,167.95 279.264,168.861 L279.409,169.323 C283.283,168.361 286.592,165.687 287.776,162.144 C289.483,157.041 286.121,152.057 280.266,151.025 C274.42,149.995 268.271,153.301 266.567,158.404 C265.81,160.657 266.052,162.89 267.052,164.766 C267.254,164.736 267.459,164.698 267.662,164.661 C266.65,162.858 266.393,160.696 267.126,158.505 L267.126,158.505 Z M277.972,169.86 L275.91,166.265 L275.574,165.648 L274.303,163.427 L274.369,163.458 L273.595,162.05 C273.096,161.321 272.936,160.402 273.249,159.462 C273.865,157.622 276.084,156.425 278.193,156.796 C280.312,157.171 281.527,158.973 280.912,160.814 C280.461,162.164 279.161,163.151 277.668,163.455 L277.716,163.946 C279.437,163.609 280.945,162.465 281.464,160.912 C282.171,158.799 280.778,156.733 278.36,156.308 C275.938,155.881 273.395,157.25 272.687,159.365 C272.393,160.243 272.483,161.093 272.827,161.843 L272.754,161.874 L277.511,170.225 L277.775,170.105 L277.748,170.35 L289.143,170.716 L289.215,170.216 L277.972,169.86 L277.972,169.86 Z M270.281,158.903 C271.371,155.641 275.29,153.528 279.025,154.187 C282.751,154.845 284.899,158.026 283.808,161.289 C283.038,163.586 280.856,165.31 278.322,165.893 L278.482,166.368 C281.198,165.722 283.535,163.86 284.361,161.389 C285.54,157.864 283.214,154.417 279.187,153.706 C275.15,152.995 270.896,155.28 269.716,158.806 C268.891,161.27 269.792,163.694 271.779,165.167 C271.924,165.044 272.063,164.919 272.199,164.794 C270.35,163.427 269.517,161.182 270.281,158.903 L270.281,158.903 Z M270.281,158.903" class="Shape"/>
                </g>
                <g class="ceilings">
                    <path class="unit" d="M159.299,27.61 L166.908,28.974 L165.019,34.617 L157.387,33.249 L159.299,27.61 Z M159.299,27.61" id="1001"/>
                    <path class="unit" d="M157.201,33.808 L164.727,35.157 L159.488,39.887 L155.384,39.163 L157.201,33.808 Z M157.201,33.808" id="1002"/>
                    <path class="unit" d="M158.455,65.276 L157.447,68.291 L152.076,67.343 L153.084,64.329 L158.455,65.276 Z M158.455,65.276" id="1003"/>
                    <path class="unit" d="M159.587,61.896 L158.581,64.9 L153.21,63.953 L154.215,60.948 L159.587,61.896 Z M159.587,61.896" id="1004"/>
                    <path class="unit" d="M115.348,3.737 L106.294,30.507 L98.608,29.152 L107.57,2.366 L115.348,3.737 Z M115.348,3.737" id="1005"/>
                    <path class="unit" d="M124.394,5.333 L115.329,32.1 L106.932,30.62 L116,3.853 L124.394,5.333 Z M124.394,5.333" id="1006"/>
                    <path class="unit" d="M130.848,6.471 L121.793,33.239 L115.978,32.214 L125.034,5.445 L130.848,6.471 Z M130.848,6.471" id="1007"/>
                    <path class="unit" d="M143.777,8.75 L134.711,35.518 L122.445,33.355 L131.499,6.585 L143.777,8.75 Z M143.777,8.75" id="1008"/>
                    <path class="unit" d="M56.209,86.028 L68.262,90.229 L63.877,95.679 L53.533,91.598 L56.209,86.028 Z M56.209,86.028" id="1009"/>
                    <path class="unit" d="M47.153,119.204 L55.835,123.798 L53.574,126.475 L44.922,121.896 L47.153,119.204 Z M47.153,119.204" id="1010"/>
                    <path class="unit" d="M51.006,114.531 L59.741,119.156 L56.245,123.312 L47.55,118.715 L51.006,114.531 Z M51.006,114.531" id="1011"/>
                    <path class="unit" d="M80.31,96.835 L76.874,107.73 L65.001,100.929 L70.229,95.058 L80.31,96.835 Z M80.31,96.835" id="1012"/>
                    <path class="unit" d="M64.581,101.414 L76.682,108.341 L75.698,111.468 L62.412,103.848 L64.581,101.414 Z M64.581,101.414" id="1013"/>
                    <path class="unit" d="M61.98,104.33 L75.505,112.079 L74.209,116.171 L66.166,114.785 L57.001,109.935 L61.98,104.33 Z M61.98,104.33" id="1014"/>
                    <path class="unit" d="M133.596,87.356 L139.169,88.36 L135.006,100.804 L129.379,99.812 L133.596,87.356 Z M133.596,87.356" id="1015"/>
                    <path class="unit" d="M90.997,79.727 L100.687,81.457 L96.439,94.003 L87.044,92.347 L88.08,89.251 L87.801,89.202 L90.997,79.727 Z M90.997,79.727" id="1016"/>
                    <path class="unit" d="M157.321,68.666 L156.316,71.67 L150.944,70.723 L151.95,67.719 L157.321,68.666 Z M157.321,68.666" id="1017"/>
                    <path class="unit" d="M163.799,12.28 L154.732,39.048 L148.606,37.968 L157.661,11.198 L163.799,12.28 Z M163.799,12.28" id="1018"/>
                    <path class="unit" d="M132.754,41.289 L126.628,59.417 L120.822,58.372 L126.941,40.263 L132.754,41.289 Z M132.754,41.289" id="1019"/>
                    <path class="unit" d="M139.219,42.429 L133.078,60.564 L127.268,59.529 L133.407,41.403 L139.219,42.429 Z M139.219,42.429" id="1020"/>
                    <path class="unit" d="M145.673,43.567 L139.536,61.725 L133.728,60.679 L139.872,42.543 L145.673,43.567 Z M145.673,43.567" id="1021"/>
                    <path class="unit" d="M153.684,44.979 L147.598,63.168 L140.176,61.837 L146.325,43.681 L153.684,44.979 Z M153.684,44.979" id="1022"/>
                    <path class="unit" d="M101.326,81.569 L105.519,82.319 L101.276,94.857 L97.079,94.116 L101.326,81.569 Z M101.326,81.569" id="1023"/>
                    <path class="unit" d="M126.302,40.151 L120.171,58.257 L119.983,58.815 L145.633,63.413 L137.287,87.33 L90.547,79.044 L90.455,79.318 L87.15,89.087 L79.395,87.719 L88.417,61.085 L88.762,61.156 L91.268,53.665 L107.715,56.619 L107.81,56.335 L114.023,37.986 L126.302,40.151 Z M126.302,40.151" id="1024"/>
                    <path class="unit" d="M106.168,82.444 L114.556,83.945 L110.322,96.452 L101.927,94.972 L106.168,82.444 Z M106.168,82.444" id="1025"/>
                    <path class="unit" d="M115.207,84.06 L119.076,84.753 L114.844,97.249 L110.973,96.566 L115.207,84.06 Z M115.207,84.06" id="1026"/>
                    <path class="unit" d="M119.725,84.868 L123.917,85.628 L119.694,98.104 L115.496,97.364 L119.725,84.868 Z M119.725,84.868" id="1027"/>
                    <path class="unit" d="M150.907,87.839 L149.902,90.843 L144.529,89.896 L145.534,86.892 L150.907,87.839 Z M150.907,87.839" id="1028"/>
                    <path class="unit" d="M169.084,22.467 L167.094,28.415 L159.486,27.052 L161.491,21.128 L169.084,22.467 Z M169.084,22.467" id="1029"/>
                    <path class="unit" d="M157.01,11.083 L147.954,37.853 L135.362,35.632 L144.416,8.863 L157.01,11.083 Z M157.01,11.083" id="1030"/>
                    <path class="unit" d="M299.975,39.129 L313.353,58.955 L285.098,83.082 L272.507,80.86 L286.484,39.083 L299.975,39.129 Z M299.975,39.129" id="1031"/>
                    <path class="unit" d="M288.294,115.45 L287.187,118.759 L282.187,117.877 L281.367,117.346 L281.597,116.656 L282.363,114.404 L288.294,115.45 Z M288.294,115.45" id="1032"/>
                    <path class="unit" d="M262.002,156.937 C261.589,161.261 266.023,167.761 266.256,168.104 L250.912,167.375 L251.433,165.824 L249.817,165.539 L250.241,164.269 C250.416,164.085 253.72,160.605 257.585,156.16 L262.002,156.937 L262.002,156.937 Z M262.002,156.937" id="1033"/>
                    <path class="unit" d="M269.469,125.309 L267.062,129.518 L253.535,130.389 L256.027,122.939 L269.469,125.309 Z M269.469,125.309" id="1034"/>
                    <path class="unit" d="M272.19,145.253 C270.556,145.858 267.794,147.241 265.462,149.937 L263.067,149.515 C263.588,148.843 264.095,148.169 264.567,147.533 C265.253,146.59 266.014,145.488 266.802,144.304 L272.19,145.253 L272.19,145.253 Z M272.19,145.253" id="1035"/>
                    <path class="unit" d="M265.021,150.451 C263.833,151.94 262.803,153.801 262.149,156.125 L262.107,156.365 L258.026,155.645 C259.61,153.818 261.213,151.896 262.672,150.037 L265.021,150.451 L265.021,150.451 Z M265.021,150.451" id="1036"/>
                    <path class="unit" d="M341.302,132.708 L340.923,144.733 L337.861,153.889 C337.857,154.064 337.774,157.388 329.941,162.693 C325.67,165.595 323.067,166.532 319.263,167.258 C313.09,168.449 291.573,168.678 290.442,168.691 C290.975,160.465 291.182,162.501 289.992,156.047 C289.075,151.059 286.155,147.377 286.002,147.185 L279.322,145.911 L273.571,144.81 L267.172,143.768 C272.193,136.269 278.522,125.711 278.545,125.673 L285.173,126.842 L285.363,126.274 L286.446,123.036 L341.302,132.708 L341.302,132.708 Z M341.302,132.708" id="1037"/>
                    <path class="unit" d="M322.973,70.057 C323.128,70.129 326.085,71.498 326.875,73.734 C327.672,75.959 328.646,78.398 328.695,78.526 L330.383,78.082 C330.682,78.904 336.341,94.503 337.072,100.007 C337.792,105.508 340.429,123.844 340.57,124.808 L341.535,124.979 L341.436,128.326 L287.833,118.875 L290.734,110.207 L297.838,111.46 L297.934,111.175 L298.031,110.892 L299.143,107.562 L299.238,107.278 L299.334,106.994 L285.696,104.589 L291.772,86.646 L305.014,75.695 L307.077,77.703 L316.402,71.286 L316.28,69.62 L322.973,70.057 L322.973,70.057 Z M322.973,70.057" id="1038"/>
                    <path class="unit" d="M221.72,59.867 L217.917,71.235 L212.103,70.21 L215.906,58.842 L221.72,59.867 Z M221.72,59.867" id="1039"/>
                    <path class="unit" d="M228.185,61.007 L224.381,72.375 L218.567,71.35 L222.372,59.982 L228.185,61.007 Z M228.185,61.007" id="1040"/>
                    <path class="unit" d="M182.967,53.034 L179.164,64.402 L175.617,63.776 L174.405,61.768 L177.641,52.095 L182.967,53.034 Z M182.967,53.034" id="1041"/>
                    <path class="unit" d="M202.348,56.452 L198.546,67.82 L192.731,66.795 L196.536,55.426 L202.348,56.452 Z M202.348,56.452" id="1042"/>
                    <path class="unit" d="M195.885,55.312 L192.081,66.68 L186.267,65.655 L190.071,54.286 L195.885,55.312 Z M195.885,55.312" id="1043"/>
                    <path class="unit" d="M189.43,54.174 L185.629,65.542 L179.814,64.517 L183.617,53.148 L189.43,54.174 Z M189.43,54.174" id="1044"/>
                    <path class="unit" d="M208.802,57.59 L204.998,68.958 L199.185,67.933 L202.99,56.564 L208.802,57.59 Z M208.802,57.59" id="1045"/>
                    <path class="unit" d="M212.248,30.433 L211.368,33.062 L243.832,38.786 L236.131,61.807 L177.831,51.526 L186.413,25.877 L212.248,30.433 Z M212.248,30.433" id="1046"/>
                    <path class="unit" d="M215.266,58.729 L211.463,70.097 L205.65,69.072 L209.453,57.704 L215.266,58.729 Z M215.266,58.729" id="1047"/>
                    <path class="unit" d="M235.939,62.374 L232.136,73.743 L225.032,72.49 L228.836,61.122 L235.939,62.374 Z M235.939,62.374" id="1048"/>
                    <path class="unit" d="M256.085,38.969 L243.763,75.793 L232.776,73.855 L244.471,38.899 L244.635,38.927 L256.085,38.969 Z M256.085,38.969" id="1049"/>
                    <path class="unit" d="M262.911,38.99 L250.217,76.931 L244.404,75.906 L256.761,38.97 L262.911,38.99 Z M262.911,38.99" id="1050"/>
                    <path class="unit" d="M269.75,39.013 L256.681,78.07 L250.868,77.045 L263.599,38.993 L269.75,39.013 Z M269.75,39.013" id="1051"/>
                    <path class="unit" d="M276.573,39.045 L263.135,79.208 L257.322,78.184 L270.426,39.014 L276.573,39.045 Z M276.573,39.045" id="1052"/>
                    <path class="unit" d="M285.799,39.07 L271.855,80.746 L263.786,79.324 L277.261,39.048 L285.799,39.07 Z M285.799,39.07" id="1053"/>
                    <path class="unit" d="M215.284,21.359 L212.439,29.865 L186.603,25.309 L186.668,25.116 L189.449,16.803 L215.284,21.359 Z M215.284,21.359" id="1054"/>
                    <path class="unit" d="M290.087,110.091 L288.484,114.882 L282.554,113.836 L284.179,109.049 L290.087,110.091 Z M290.087,110.091" id="1055"/>
                    <path class="unit" d="M298.495,107.446 L297.381,110.775 L284.37,108.481 L285.495,105.153 L298.495,107.446 Z M298.495,107.446" id="1056"/>
                    <path class="unit" d="M285.795,122.92 L284.711,126.159 L278.735,125.105 L279.663,122.366 L280.795,122.039 L285.795,122.92 Z M285.795,122.92" id="1057"/>
                    <path class="unit" d="M229.824,157.649 L227.26,165.312 L215.758,164.949 L218.351,157.195 L229.824,157.649 Z M229.824,157.649" id="1058"/>
                    <path class="unit" d="M130.516,105.688 L124.304,124.252 L116.562,122.887 L122.772,104.322 L130.516,105.688 Z M130.516,105.688" id="1059"/>
                    <path class="unit" d="M122.122,104.208 L115.91,122.772 L107.514,121.292 L113.726,102.727 L122.122,104.208 Z M122.122,104.208" id="1060"/>
                    <path class="unit" d="M94.32,99.305 L87.891,118.52 L74.865,116.276 L80.961,96.95 L94.32,99.305 Z M94.32,99.305" id="1061"/>
                    <path class="unit" d="M99.169,100.16 L92.748,119.354 L88.543,118.634 L94.971,99.42 L99.169,100.16 Z M99.169,100.16" id="1062"/>
                    <path class="unit" d="M103.226,100.876 L96.812,120.049 L93.387,119.467 L99.808,100.273 L103.226,100.876 Z M103.226,100.876" id="1063"/>
                    <path class="unit" d="M113.076,102.612 L104.586,127.988 L95.982,126.47 L98.055,120.269 L97.463,120.164 L103.878,100.991 L113.076,102.612 Z M113.076,102.612" id="1064"/>
                    <path class="unit" d="M132.618,126.309 L130.672,132.125 L105.383,127.666 L107.329,121.85 L132.618,126.309 Z M132.618,126.309" id="1065"/>
                    <path class="unit" d="M113.591,129.705 L103.233,160.662 L94.892,159.869 L106.103,128.384 L113.591,129.705 Z M113.591,129.705" id="1066"/>
                    <path class="unit" d="M122.636,131.298 L112.513,161.557 L103.901,160.727 L114.242,129.819 L122.636,131.298 Z M122.636,131.298" id="1067"/>
                    <path class="unit" d="M130.485,132.684 L121.093,160.757 L118.924,162.16 L113.17,161.619 L123.277,131.412 L130.485,132.684 Z M130.485,132.684" id="1068"/>
                    <path class="unit" d="M211.536,133.109 L219.74,134.641 L212.48,156.341 L212.805,156.399 L203.858,156.058 L211.536,133.109 Z M211.536,133.109" id="1069"/>
                    <path class="unit" d="M152.03,113.813 L155.506,115.533 L151.359,127.926 L141.127,126.122 L144.879,115.239 L152.03,113.813 Z M152.03,113.813" id="1070"/>
                    <path class="unit" d="M156.088,115.818 L161.368,118.437 L157.812,129.064 L156.999,128.921 L151.999,128.039 L156.088,115.818 Z M156.088,115.818" id="1071"/>
                    <path class="unit" d="M157.598,129.628 L155.924,134.707 L139.192,131.757 L140.937,126.69 L156.808,129.49 L157.598,129.628 Z M157.598,129.628" id="1072"/>
                    <path class="unit" d="M161.961,118.724 L168.417,121.916 L163.679,136.076 L156.576,134.822 L161.961,118.724 Z M161.961,118.724" id="1073"/>
                    <path class="unit" d="M171.191,123.007 L180.716,127.073 L170.417,157.857 L157.824,155.637 L168.792,122.853 L168.734,123.175 L170.791,123.688 L171.191,123.007 Z M171.191,123.007" id="1074"/>
                    <path class="unit" d="M163.493,136.632 L154.668,163.013 L131.372,162.27 L128.146,157.669 L136.731,132.011 L138.227,132.177 L163.493,136.632 Z M163.493,136.632" id="1075"/>
                    <path class="unit" d="M181.323,127.319 L181.969,127.594 L191.566,129.382 L181.391,159.792 L171.066,157.972 L181.323,127.319 Z M181.323,127.319" id="1076"/>
                    <path class="unit" d="M181.203,160.361 L180.047,163.812 L155.348,163.037 L157.634,156.205 L181.203,160.361 Z M181.203,160.361" id="1077"/>
                    <path class="unit" d="M192.215,129.507 L210.885,132.994 L200.358,164.458 L180.728,163.835 L181.853,160.476 L182.044,159.908 L192.215,129.507 Z M192.215,129.507" id="1078"/>
                    <path class="unit" d="M217.671,157.171 L215.076,164.925 L201.038,164.482 L203.667,156.626 L217.671,157.171 Z M217.671,157.171" id="1079"/>
                    <path class="unit" d="M220.391,134.755 L228.76,136.318 L224.646,148.609 L224.491,149.076 L224.456,149.177 L228.003,149.802 L225.629,156.898 L213.144,156.416 L220.391,134.755 Z M220.391,134.755" id="1080"/>
                    <path class="unit" d="M229.396,136.441 L233.905,137.279 L229.809,149.52 L225.287,148.722 L229.396,136.441 Z M229.396,136.441" id="1081"/>
                    <path class="unit" d="M249.689,140.19 L260.216,142.144 L247.105,158.072 L243.896,157.507 L249.689,140.19 Z M249.689,140.19" id="1082"/>
                    <path class="unit" d="M234.552,137.404 L240.672,138.546 L234.416,157.244 L226.308,156.932 L228.654,149.917 L230.269,150.203 L230.304,150.102 L230.461,149.634 L234.552,137.404 Z M234.552,137.404" id="1083"/>
                    <path class="unit" d="M244.113,139.154 L249.052,140.068 L243.192,157.585 L235.083,157.274 L241.151,139.137 L241.135,139.371 L243.716,139.826 L244.113,139.154 Z M244.113,139.154" id="1084"/>
                    <path class="unit" d="M246.685,158.589 L242.62,163.527 L241.867,165.78 L234.715,165.55 L237.261,157.939 L244.068,158.205 L244.08,158.13 L246.685,158.589 Z M246.685,158.589" id="1085"/>
                    <path class="unit" d="M236.583,157.905 L234.034,165.527 L227.941,165.335 L230.495,157.703 L230.251,157.66 L236.583,157.905 Z M236.583,157.905" id="1086"/>
                    <path class="unit" d="M139.015,107.187 L132.804,125.75 L124.957,124.367 L131.167,105.803 L139.015,107.187 Z M139.015,107.187" id="1087"/>
                    <path class="unit" d="M47.73,101.764 L53.79,105.036 L46.277,114.02 L40.699,111.004 L40.816,111.058 L47.73,101.764 Z M47.73,101.764" id="1088"/>
                    <path class="unit" d="M55.077,109.616 L64.186,114.447 L63.767,114.373 L60.15,118.668 L51.417,114.043 L55.077,109.616 Z M55.077,109.616" id="1089"/>
                    <path class="unit" d="M37.599,110.038 L40.841,111.792 L25.147,129.405 L22.18,127.344 L37.599,110.038 Z M37.599,110.038" id="1090"/>
                    <path class="unit" d="M53.272,92.154 L63.476,96.178 L60.058,100.433 L58.279,100.12 L51.274,96.327 L53.272,92.154 Z M53.272,92.154" id="1091"/>
                    <path class="unit" d="M51.002,96.881 L57.621,100.466 L54.199,104.549 L48.108,101.261 L50.547,97.982 L50.493,97.962 L51.002,96.881 Z M51.002,96.881" id="1092"/>
                    <path class="unit" d="M40.763,48.21 L54.18,53.005 L47.506,72.735 L39.062,75.524 L31.754,75.138 L30.998,75.005 L31.612,73.168 L32.368,73.301 L40.763,48.21 Z M40.763,48.21" id="1093"/>
                    <path class="unit" d="M20.724,77.375 L18.578,83.714 L13.404,82.802 L15.55,76.462 L20.724,77.375 Z M20.724,77.375" id="1094"/>
                    <path class="unit" d="M42.211,81.164 L55.6,85.825 L49.877,97.779 L40.26,110.766 L30.014,105.218 L29.612,105.717 L29.75,105.785 L14.986,122.346 L2.588,113.732 L25.88,85.002 L24.926,84.833 L29.305,78.888 L42.211,81.164 Z M42.211,81.164" id="1095"/>
                    <path class="unit" d="M30.29,106.084 L33.304,107.712 L18.244,124.608 L15.498,122.695 L30.29,106.084 Z M30.29,106.084" id="1096"/>
                    <path class="unit" d="M41.396,112.084 L45.869,114.506 L41.299,119.956 L36.642,117.426 L41.396,112.084 Z M41.396,112.084" id="1097"/>
                    <path class="unit" d="M33.859,108.003 L37.058,109.738 L21.68,126.999 L18.744,124.954 L33.859,108.003 Z M33.859,108.003" id="1098"/>
                    <path class="unit" d="M36.252,117.852 L36.209,117.909 L40.89,120.443 L36.27,125.97 L31.381,123.323 L36.252,117.852 Z M36.252,117.852" id="1099"/>
                    <path class="unit" d="M30.964,123.798 L35.861,126.457 L30.361,133.033 L25.647,129.751 L30.964,123.798 Z M30.964,123.798" id="1100"/>
                    <path class="unit" d="M44.513,122.382 L47.809,124.125 L35.683,138.507 L32.717,136.662 L44.513,122.382 Z M44.513,122.382" id="1101"/>
                    <path class="unit" d="M48.364,124.416 L53.165,126.96 L40.784,141.664 L36.205,138.826 L48.364,124.416 Z M48.364,124.416" id="1102"/>
                    <path class="unit" d="M28.619,78.767 L24.252,84.715 L19.217,83.827 L21.364,77.487 L28.619,78.767 Z M28.619,78.767" id="1103"/>
                    <path class="unit" d="M14.91,76.35 L12.765,82.688 L8.242,81.892 L10.387,75.552 L14.91,76.35 Z M14.91,76.35" id="1104"/>
                    <path class="unit" d="M9.736,75.437 L7.59,81.776 L3.277,81.017 L4.625,76.471 L8.783,75.269 L9.736,75.437 Z M9.736,75.437" id="1105"/>
                    <path class="unit" d="M80.404,59.457 L87.773,60.95 L78.783,87.526 L72.019,84.227 L80.404,59.457 Z M80.404,59.457" id="1106"/>
                    <path class="unit" d="M124.556,85.74 L132.956,87.243 L128.74,99.699 L120.334,98.217 L124.556,85.74 Z M124.556,85.74" id="1107"/>
                    <path class="unit" d="M30.973,73.055 L30.347,74.89 L27.545,74.396 L20.387,72.973 L20.961,71.29 L30.973,73.055 Z M30.973,73.055" id="1108"/>
                    <path class="unit" d="M113.385,37.874 L107.266,55.938 L91.455,53.107 L97.49,35.07 L113.385,37.874 Z M113.385,37.874" id="1109"/>
                    <path class="unit" d="M54.798,53.221 L60.284,55.188 L54.08,73.55 L48.266,72.525 L54.798,53.221 Z M54.798,53.221" id="1110"/>
                    <path class="unit" d="M73.361,58.021 L79.771,59.324 L71.437,83.942 L66.353,78.745 L73.361,58.021 Z M73.361,58.021" id="1111"/>
                    <path class="unit" d="M67.276,56.776 L72.728,57.888 L65.807,78.315 L61.173,74.833 L67.276,56.776 Z M67.276,56.776" id="1112"/>
                    <path class="unit" d="M60.901,55.404 L61.385,55.576 L66.64,56.653 L60.533,74.688 L54.719,73.663 L60.901,55.404 Z M60.901,55.404" id="1113"/>
                    <path class="unit" d="M20.31,71.175 L19.751,72.85 L13.919,71.693 L13.542,72.819 L6.323,71.396 L7.172,68.858 L20.31,71.175 Z M20.31,71.175" id="1114"/>
                    <path class="unit" d="M260.132,88.181 L255.525,101.955 L249.712,100.929 L254.319,87.156 L260.132,88.181 Z M260.132,88.181" id="1115"/>
                    <path class="unit" d="M264.771,89 L266.478,89.676 L261.989,103.095 L256.176,102.069 L260.784,88.296 L264.771,89 Z M264.771,89" id="1116"/>
                    <path class="unit" d="M277.3,103.999 L274.658,111.896 L260.553,109.409 L263.196,101.512 L277.3,103.999 Z M277.3,103.999" id="1117"/>
                    <path class="unit" d="M274.469,112.464 L272.392,118.666 L258.289,116.179 L260.364,109.977 L274.469,112.464 Z M274.469,112.464" id="1118"/>
                    <path class="unit" d="M272.206,119.224 L271.154,122.371 L269.783,124.773 L256.214,122.38 L258.101,116.737 L272.206,119.224 Z M272.206,119.224" id="1119"/>
                    <path class="unit" d="M181.896,98.151 L176.564,114.087 L171.202,111.712 L176.083,97.126 L181.896,98.151 Z M181.896,98.151" id="1120"/>
                    <path class="unit" d="M175.808,95.885 L170.602,111.445 L165.24,109.07 L169.995,94.859 L175.808,95.885 Z M175.808,95.885" id="1121"/>
                    <path class="unit" d="M169.355,94.747 L164.649,108.814 L159.287,106.439 L163.542,93.722 L169.355,94.747 Z M169.355,94.747" id="1122"/>
                    <path class="unit" d="M214.915,80.208 L207.594,102.091 L201.779,101.066 L209.1,79.183 L214.915,80.208 Z M214.915,80.208" id="1123"/>
                    <path class="unit" d="M213.871,103.789 L207.259,123.551 L201.445,122.526 L208.057,102.764 L213.871,103.789 Z M213.871,103.789" id="1124"/>
                    <path class="unit" d="M197.394,100.884 L190.858,120.423 L177.165,114.354 L182.547,98.266 L197.394,100.884 Z M197.394,100.884" id="1125"/>
                    <path class="unit" d="M202.568,101.797 L195.957,121.559 L191.76,120.818 L191.462,120.681 L198.047,100.999 L202.568,101.797 Z M202.568,101.797" id="1126"/>
                    <path class="unit" d="M207.407,102.649 L200.794,122.411 L196.597,121.671 L203.21,101.91 L207.407,102.649 Z M207.407,102.649" id="1127"/>
                    <path class="unit" d="M202.648,78.045 L195.326,99.928 L189.187,98.846 L196.51,76.963 L202.648,78.045 Z M202.648,78.045" id="1128"/>
                    <path class="unit" d="M195.87,76.85 L188.547,98.733 L182.734,97.708 L190.055,75.825 L195.87,76.85 Z M195.87,76.85" id="1129"/>
                    <path class="unit" d="M189.404,75.71 L182.083,97.593 L176.271,96.567 L183.591,74.685 L189.404,75.71 Z M189.404,75.71" id="1130"/>
                    <path class="unit" d="M162.89,93.607 L158.687,106.173 L154.419,104.281 L151.931,101.155 L154.926,92.202 L162.89,93.607 Z M162.89,93.607" id="1131"/>
                    <path class="unit" d="M171.241,89.113 L169.542,94.188 L155.113,91.644 L156.81,86.57 L171.241,89.113 Z M171.241,89.113" id="1132"/>
                    <path class="unit" d="M182.94,74.57 L175.996,95.326 L170.182,94.301 L177.127,73.544 L182.94,74.57 Z M182.94,74.57" id="1133"/>
                    <path class="unit" d="M170.021,72.292 L166.853,81.762 L158.889,80.357 L161.521,72.491 L163.999,71.23 L170.021,72.292 Z M170.021,72.292" id="1134"/>
                    <path class="unit" d="M176.486,73.432 L173.319,82.901 L167.505,81.877 L170.673,72.407 L176.486,73.432 Z M176.486,73.432" id="1135"/>
                    <path class="unit" d="M173.128,83.47 L171.429,88.545 L157,86 L158.699,80.926 L173.128,83.47 Z M173.128,83.47" id="1136"/>
                    <path class="unit" d="M253.679,87.043 L249.071,100.817 L243.259,99.791 L247.865,86.018 L253.679,87.043 Z M253.679,87.043" id="1137"/>
                    <path class="unit" d="M247.216,85.903 L242.606,99.677 L236.794,98.651 L241.401,84.878 L247.216,85.903 Z M247.216,85.903" id="1138"/>
                    <path class="unit" d="M261.8,103.663 L252.841,130.438 L248.059,130.746 L244.083,130.044 L253.404,102.183 L255.335,102.523 L255.985,102.638 L261.8,103.663 Z M261.8,103.663" id="1139"/>
                    <path class="unit" d="M221.379,81.348 L214.058,103.231 L208.244,102.206 L215.566,80.323 L221.379,81.348 Z M221.379,81.348" id="1140"/>
                    <path class="unit" d="M227.844,82.488 L220.521,104.371 L214.709,103.346 L222.031,81.463 L227.844,82.488 Z M227.844,82.488" id="1141"/>
                    <path class="unit" d="M234.298,83.625 L226.975,105.509 L221.162,104.483 L228.483,82.601 L234.298,83.625 Z M234.298,83.625" id="1142"/>
                    <path class="unit" d="M240.762,84.765 L233.441,106.648 L227.627,105.624 L234.949,83.74 L240.762,84.765 Z M240.762,84.765" id="1143"/>
                    <path class="unit" d="M220.336,104.929 L213.724,124.691 L207.909,123.666 L214.521,103.904 L220.336,104.929 Z M220.336,104.929" id="1144"/>
                    <path class="unit" d="M226.79,106.067 L220.177,125.829 L214.363,124.804 L220.974,105.042 L226.79,106.067 Z M226.79,106.067" id="1145"/>
                    <path class="unit" d="M233.254,107.207 L226.642,126.969 L220.828,125.944 L227.439,106.182 L233.254,107.207 Z M233.254,107.207" id="1146"/>
                    <path class="unit" d="M252.753,102.068 L243.431,129.929 L227.282,127.082 L236.603,99.22 L242.418,100.245 L243.068,100.36 L248.882,101.385 L249.521,101.498 L252.753,102.068 Z M252.753,102.068" id="1147"/>
                    <path class="unit" d="M208.462,79.07 L201.14,100.953 L195.967,100.041 L203.288,78.158 L208.462,79.07 Z M208.462,79.07" id="1148"/>
                    <path class="unit" d="M273.125,92.299 L280.271,95.118 L277.486,103.44 L269.847,102.094 L273.125,92.299 Z M273.125,92.299" id="1149"/>
                    <path class="unit" d="M267.078,89.91 L272.514,92.062 L269.196,101.979 L263.383,100.954 L267.078,89.91 Z M267.078,89.91" id="1150"/>
                    <path class="unit" d="M261.358,135.971 L260.348,138.986 L254.326,137.923 L255.334,134.91 L261.358,135.971 Z M261.358,135.971" id="1151"/>
                    <path class="unit" d="M240.581,132.308 L239.571,135.322 L234.513,134.43 L235.521,131.416 L240.581,132.308 Z M240.581,132.308" id="1152"/>
                    <path class="unit" d="M232.836,130.942 L231.826,133.957 L226.444,133.007 L227.453,129.994 L232.836,130.942 Z M232.836,130.942" id="1153"/>
                    <path class="unit" d="M219.372,128.568 L218.363,131.583 L212.98,130.632 L213.988,127.619 L219.372,128.568 Z M219.372,128.568" id="1154"/>
                    <path class="unit" d="M159.526,109.879 L163.564,112.902 L161.082,115.28 L157.042,112.267 L159.526,109.879 Z M159.526,109.879" id="1155"/>
                    <path class="unit" d="M146.758,100.242 L145.753,103.247 L140.379,102.3 L141.385,99.295 L146.758,100.242 Z M146.758,100.242" id="1156"/>
                    <path class="unit" d="M162.446,49.265 L161.441,52.269 L156.056,51.32 L157.062,48.315 L162.446,49.265 Z M162.446,49.265" id="1157"/>
                    <path class="unit" d="M172.781,51.087 L171.778,54.092 L166.394,53.143 L167.398,50.139 L172.781,51.087 Z M172.781,51.087" id="1158"/>
                    <path class="unit" d="M178.283,30.561 L177.278,33.564 L171.894,32.615 L172.9,29.611 L178.283,30.561 Z M178.283,30.561" id="1159"/>
                    <path class="unit" d="M179.506,67.794 L178.496,70.809 L173.114,69.86 L174.123,66.845 L179.506,67.794 Z M179.506,67.794" id="1160"/>
                    <path class="unit" d="M192.425,70.072 L191.415,73.086 L186.031,72.138 L187.041,69.123 L192.425,70.072 Z M192.425,70.072" id="1161"/>
                    <path class="unit" d="M206.643,72.58 L205.635,75.594 L200.252,74.645 L201.26,71.63 L206.643,72.58 Z M206.643,72.58" id="1162"/>
                    <path class="unit" d="M215.678,74.173 L214.67,77.188 L209.287,76.238 L210.295,73.223 L215.678,74.173 Z M215.678,74.173" id="1163"/>
                    <path class="unit" d="M229.898,76.68 L228.888,79.694 L223.506,78.745 L224.515,75.73 L229.898,76.68 Z M229.898,76.68" id="1164"/>
                    <path class="unit" d="M240.223,78.5 L239.215,81.515 L233.843,80.568 L234.85,77.553 L240.223,78.5 Z M240.223,78.5" id="1165"/>
                    <path class="unit" d="M254.443,81.008 L253.434,84.022 L248.052,83.073 L249.058,80.059 L254.443,81.008 Z M254.443,81.008" id="1166"/>
                    <path class="unit" d="M292.691,183.492 L289.476,209.184 L279.314,208.865 L279.33,208.707 L254.7,208.167 L257.869,182.8 L292.691,183.492 Z M292.691,183.492" id="1167"/>
                    <path class="unit" d="M313.622,183.904 L339.172,207.714 L337.508,224.941 L334.392,227.444 L277.347,226.115 L279.247,209.434 L290.065,209.783 L293.353,183.501 L313.622,183.904 Z M313.622,183.904" id="1168"/>
                    <path class="unit" d="M327.296,244.832 L324.723,267.273 L312.396,272.064 L307.72,261.492 L296.427,261.208 L298.197,243.882 L327.296,244.832 Z M327.296,244.832" id="1169"/>
                    <path class="unit" d="M333.699,228.009 L328.782,231.958 L327.364,244.251 L298.253,243.311 L299.892,227.218 L333.699,228.009 Z M333.699,228.009" id="1170"/>
                    <path class="unit" d="M257.194,182.791 L254.026,208.158 L238.306,207.814 L241.464,182.478 L257.194,182.791 Z M257.194,182.791" id="1171"/>
                    <path class="unit" d="M240.867,182.458 L239.064,196.898 L229.232,196.583 L231.018,182.269 L240.867,182.458 Z M240.867,182.458" id="1172"/>
                    <path class="unit" d="M230.348,182.248 L228.492,197.108 L228.677,197.109 L238.985,197.475 L239.054,196.972 L237.658,208.097 L238.076,208.107 L234.282,233.611 L208.177,240.756 C208.022,240.435 205.066,234.307 204.049,224.498 C202.692,211.52 209.083,183.32 209.42,181.836 L230.348,182.248 L230.348,182.248 Z M230.348,182.248" id="1173"/>
                </g>
            </g>
</svg>