<?xml version="1.0" encoding="utf-8"?>
<!DOCTYPE svg PUBLIC "-//W3C//DTD SVG 1.1//EN" "http://www.w3.org/Graphics/SVG/1.1/DTD/svg11.dtd">
<svg version="1.1" xmlns="http://www.w3.org/2000/svg" xmlns:xlink="http://www.w3.org/1999/xlink" xml:space="preserve">
<g class="level" id="level1">
            <g class="outline">
                <path d="M336.833,94.365 C328.415,72.892 320.367,61.472 311.507,58.427 C310.873,58.207 310.209,58.036 309.534,57.918 C309.108,57.842 308.648,57.804 308.167,57.804 C305.282,57.804 301.765,59.173 299.004,60.319 L297.392,56.173 L302.522,50.954 L300.834,44.516 L300.764,44.258 L300.643,44.033 C299.837,42.546 292.571,29.224 285.379,19.753 C278.002,10.056 266.317,1.686 265.009,0.763 L264.448,0.368 L189.306,1.126 L186.535,9.41 L187.158,11.956 L162.665,7.637 L159.789,16.226 L147.604,14.077 L134.911,20.922 L105.443,15.726 L101.89,26.346 L98.149,25.685 L96.504,30.599 L72.115,26.299 L70.698,30.87 L43.911,26.321 L36.002,49.96 L16.19,46.436 L5.475,78.459 L6.812,83.545 L1.071,100.467 L2.963,107.674 L15.941,109.926 L6.295,138.754 L9.859,139.442 L9.56,140.335 L11.448,147.531 L37.75,152.17 L39.913,144.758 L79.896,152.512 L66.9,193.141 L68.838,200.537 L197.585,205.1 L269.118,207.955 C271.569,208.132 284.426,209.012 296.831,209.012 C309.05,209.012 316.694,208.18 320.202,206.468 C331.113,201.13 338.461,193.446 342.037,183.627 C346.526,171.362 346.939,120.193 336.833,94.365 L336.833,94.365 Z M336.833,94.365" class="outline"/>
            </g>
            <g class="label">
                <path d="M24.317,0.432 C24.029,0.432 23.805,0.608 23.725,0.944 C22.445,6.818 21.34,9.427 20.604,10.548 C19.868,9.428 18.779,6.819 17.467,0.944 C17.387,0.608 17.163,0.432 16.875,0.432 C16.523,0.432 16.267,0.672 16.267,1.056 C16.267,1.168 16.315,1.344 16.363,1.568 C17.42,6.034 18.188,8.339 19.068,10.147 C19.676,11.396 20.028,11.764 20.589,11.764 C21.15,11.764 21.502,11.396 22.11,10.147 C22.99,8.338 23.743,6.049 24.831,1.568 C24.879,1.344 24.927,1.168 24.927,1.056 C24.925,0.672 24.669,0.432 24.317,0.432 L24.317,0.432 Z M6.46,10.5 L2.154,10.5 L2.154,1.088 C2.154,0.688 1.898,0.432 1.546,0.432 C1.193,0.432 0.921,0.688 0.921,1.088 L0.921,10.724 C0.921,11.316 1.289,11.684 1.978,11.684 L6.459,11.684 C6.859,11.684 7.115,11.412 7.115,11.076 C7.116,10.772 6.876,10.5 6.46,10.5 L6.46,10.5 Z M14.541,10.468 L9.771,10.468 L9.771,6.611 L13.645,6.611 C14.029,6.611 14.237,6.291 14.237,6.019 C14.237,5.731 14.029,5.443 13.645,5.443 L9.771,5.443 L9.771,1.713 L14.381,1.713 C14.797,1.713 15.021,1.441 15.021,1.137 C15.021,0.801 14.797,0.497 14.381,0.497 L9.595,0.497 C8.907,0.497 8.538,0.865 8.538,1.457 L8.538,10.725 C8.538,11.317 8.906,11.685 9.595,11.685 L14.541,11.685 C14.925,11.685 15.149,11.349 15.149,11.077 C15.149,10.74 14.925,10.468 14.541,10.468 L14.541,10.468 Z M51.868,10.468 L46.763,10.468 C46.634,9.588 47.387,8.644 49.613,7.171 C51.87,5.683 52.349,4.834 52.349,3.586 C52.349,1.745 50.956,0.369 48.828,0.369 C47.819,0.369 46.843,0.801 46.299,1.185 C46.075,1.345 45.995,1.553 45.995,1.713 C45.995,2.033 46.219,2.274 46.523,2.274 C46.633,2.274 46.762,2.258 46.97,2.146 C47.594,1.794 48.218,1.554 48.812,1.554 C50.333,1.554 51.051,2.514 51.051,3.635 C51.051,4.643 50.667,5.156 48.78,6.388 C46.171,8.1 45.579,9.253 45.579,10.566 C45.579,11.158 45.85,11.686 46.427,11.686 L51.869,11.686 C52.237,11.686 52.51,11.414 52.51,11.062 C52.508,10.676 52.236,10.468 51.868,10.468 L51.868,10.468 Z M40.508,10.5 L36.202,10.5 L36.202,1.088 C36.202,0.688 35.946,0.432 35.594,0.432 C35.241,0.432 34.969,0.688 34.969,1.088 L34.969,10.724 C34.969,11.316 35.337,11.684 36.026,11.684 L40.507,11.684 C40.907,11.684 41.163,11.412 41.163,11.076 C41.164,10.772 40.924,10.5 40.508,10.5 L40.508,10.5 Z M32.636,10.468 L27.866,10.468 L27.866,6.611 L31.74,6.611 C32.124,6.611 32.332,6.291 32.332,6.019 C32.332,5.731 32.124,5.443 31.74,5.443 L27.866,5.443 L27.866,1.713 L32.476,1.713 C32.892,1.713 33.116,1.441 33.116,1.137 C33.116,0.801 32.892,0.497 32.476,0.497 L27.69,0.497 C27.002,0.497 26.633,0.865 26.633,1.457 L26.633,10.725 C26.633,11.317 27.001,11.685 27.69,11.685 L32.636,11.685 C33.02,11.685 33.244,11.349 33.244,11.077 C33.245,10.74 33.021,10.468 32.636,10.468 L32.636,10.468 Z M32.636,10.468" class="Shape"/>
            </g>
            <g class="background">
                <path d="M261.344,175.252 C261.6,175.453 266.426,179.263 268.623,189.449 C270.829,199.652 269.078,205.439 268.985,205.745 L195.583,202.893 L205.664,192.552 L208.461,193.046 L226.232,174.542 L230.047,176.945 L233.011,174.007 L114.437,153.101 L64.916,130.24 L55.244,128.536 L50.053,144.054 L38.417,142.299 L44.525,124.044 L27.979,121.126 L25.153,129.57 L18.615,128.416 L15.332,138.228 L9.081,137.124 L18.743,108.252 L35.873,57.049 L45.352,28.718 L74.688,33.891 L70.268,42.557 L74.268,48.421 L265.661,81.952 L295.411,59.827 L300.804,66.597 C296.077,68.504 292.628,71.27 292.447,71.415 L273.75,84.849 C273.242,86.321 263.588,114.258 256.706,135.787 L268.57,137.878 L272.466,126.229 L276.747,126.984 L272.849,138.632 L342.995,151.002 L342.891,155.953 L255.084,140.47 C247.973,159.482 237.143,169.765 236.571,170.307 L261.344,175.252 L261.344,175.252 Z M238.354,138.315 L250.108,103.187 L235.506,97.436 L77.926,69.651 L66.715,103.16 L89.938,107.83 L87.089,117.233 L103.387,124.994 L111.665,102.144 L120.825,103.882 L113.509,128.611 L131.077,134.573 L220.648,150.711 L231.709,150.428 L238.354,138.315 L238.354,138.315 Z M238.354,138.315" class="walkway"/>
                <path d="M85.983,130.152 L87.3,135.381 L93.233,136.426 L95.605,129.336 L94.286,124.107 L88.355,123.062 L85.983,130.152 L85.983,130.152 Z M164.309,150.88 L165.625,156.109 L171.556,157.155 L173.924,150.081 L172.607,144.852 L166.674,143.806 L164.309,150.88 L164.309,150.88 Z M62.683,61.817 L65.055,54.725 L63.74,49.497 L57.807,48.451 L55.435,55.54 L56.751,60.769 L62.683,61.817 L62.683,61.817 Z M58.312,74.88 L60.679,67.804 L59.361,62.575 L53.429,61.529 L51.064,68.605 L52.379,73.834 L58.312,74.88 L58.312,74.88 Z M216.45,83.934 L217.768,89.163 L223.7,90.209 L226.072,83.119 L224.754,77.89 L218.823,76.843 L216.45,83.934 L216.45,83.934 Z M87.491,107.37 L85.839,112.822 L87.158,118.05 L103.312,126.086 L111.954,102.235 L118.258,103.431 L111.424,124.246 L112.742,129.475 L131.171,135.622 L221.048,151.469 L231.984,151.373 L238.641,138.403 L250.395,103.276 L249.077,98.047 L234.477,92.297 L95.2,67.741 L97.439,61.05 L96.12,55.821 L90.19,54.776 L87.818,61.864 L89.025,66.652 L76.897,64.512 L65.685,98.019 L67.004,103.248 L87.491,107.37 L87.491,107.37 Z M73.673,48.756 L266.2,82.702 L296.515,61.208 L295.2,55.98 L294.913,55.66 L300.159,50.323 L298.841,45.095 C298.452,44.375 291.084,30.734 283.751,21.076 C276.401,11.416 264.475,2.98 263.848,2.536 L190.907,3.272 L188.809,9.538 L190.082,14.589 L190.061,14.651 L164.163,10.085 L161.289,18.674 L148.03,16.337 L135.336,23.179 L106.944,18.174 L103.389,28.793 L99.65,28.133 L98.005,33.046 L73.657,28.753 L69.74,40.461 L71.056,45.69 L73.673,48.756 L73.673,48.756 Z M141.554,70.728 L142.871,75.957 L148.804,77.003 L151.175,69.914 L149.858,64.685 L143.925,63.637 L141.554,70.728 L141.554,70.728 Z M26.949,115.989 L24.123,124.431 L17.585,123.279 L11.842,140.445 L13.159,145.674 L36.245,149.744 L44.81,124.135 L43.495,118.907 L26.949,115.989 L26.949,115.989 Z M48.427,95.259 L42.496,94.213 L40.124,101.304 L41.443,106.533 L47.374,107.579 L49.746,100.49 L48.427,95.259 L48.427,95.259 Z M113.411,147.965 L63.888,125.104 L54.214,123.401 L49.024,138.92 L50.341,144.149 L83.196,150.472 L69.177,193.239 L70.493,198.468 L195.869,202.989 L205.949,192.645 L208.746,193.139 L226.517,174.635 L230.334,177.038 L233.297,174.103 L231.98,168.874 L113.411,147.965 L113.411,147.965 Z M25.145,98.66 L26.463,103.889 L32.394,104.935 L34.766,97.845 L33.447,92.616 L27.517,91.571 L25.145,98.66 L25.145,98.66 Z M17.138,108.775 L18.456,114.004 L30.621,116.15 L32.444,110.706 L31.125,105.477 L23.964,104.214 L23.054,106.936 L19.698,106.343 L36.161,57.138 L34.845,51.909 L17.691,48.886 L7.76,78.569 L9.032,83.621 L3.357,100.583 L4.674,105.812 L17.381,108.051 L17.138,108.775 L17.138,108.775 Z M37.402,71.19 L43.333,72.238 L45.699,65.162 L44.383,59.933 L38.451,58.887 L36.083,65.962 L37.402,71.19 L37.402,71.19 Z M339.136,109.62 L337.819,104.391 C337.964,104.968 338.1,105.556 338.238,106.144 C337.329,102.245 336.236,98.547 334.923,95.178 C326.17,72.857 318.499,63.093 310.882,60.472 C310.34,60.287 309.792,60.15 309.236,60.051 C300.962,58.59 291.895,65.892 291.418,66.278 L272.721,79.712 C272.213,81.182 262.561,109.12 255.678,130.65 L256.99,135.849 L254.058,135.331 C246.947,154.345 236.117,164.628 235.546,165.17 L236.862,170.399 L261.634,175.343 C261.853,175.515 265.471,178.389 267.871,185.706 C269.632,195.034 268.048,200.314 267.96,200.602 L269.276,205.831 C271.34,205.98 310.594,208.786 319.272,204.554 C327.959,200.306 335.681,195.033 339.626,184.201 C341.282,179.679 342.767,168.944 343.176,156.042 L341.867,150.841 L343.279,151.09 C343.416,137.561 342.342,122.346 339.136,109.62 L339.136,109.62 Z M273.128,138.696 L268.863,137.944 L272.751,126.32 L274.136,126.564 L271.818,133.495 L273.128,138.696 L273.128,138.696 Z M117.398,141.613 L118.715,146.842 L124.648,147.888 L127.019,140.798 L125.701,135.569 L119.771,134.524 L117.398,141.613 L117.398,141.613 Z M117.398,141.613" class="wall"/>
                <path d="M252.74,189.234 L252.485,189.914 L264.971,192.6 L265.242,191.919 L263.832,191.552 C266.143,184.648 261.583,177.908 253.672,176.515 C245.774,175.119 237.466,179.59 235.153,186.495 C232.841,193.401 237.396,200.153 245.296,201.547 C251.224,202.592 257.366,200.318 261.049,196.217 L261.935,196.738 L262.443,196.151 L254.746,191.579 L254.074,191.225 L252.515,190.315 L252.022,190.893 L253.568,191.801 C252.094,193.26 249.819,194.042 247.611,193.654 C244.486,193.101 242.678,190.427 243.593,187.699 C244.505,184.971 247.797,183.197 250.924,183.75 C254.049,184.299 255.853,186.973 254.935,189.712 L252.74,189.234 L252.74,189.234 Z M260.391,195.827 C256.908,199.687 251.13,201.847 245.529,200.856 C238.051,199.538 233.749,193.159 235.929,186.632 C238.114,180.106 245.972,175.868 253.448,177.189 C260.925,178.506 265.229,184.886 263.033,191.45 L259.291,190.646 L259.345,190.526 C260.967,185.683 257.774,180.969 252.241,179.993 C246.71,179.019 240.89,182.146 239.271,186.989 C237.657,191.817 240.846,196.532 246.381,197.509 C250.434,198.224 254.622,196.709 257.213,193.952 L260.391,195.827 L260.391,195.827 Z M251.151,183.07 C247.588,182.442 243.858,184.452 242.821,187.56 C241.779,190.668 243.822,193.699 247.382,194.325 C249.933,194.777 252.533,193.868 254.203,192.171 L256.564,193.576 C254.171,196.096 250.334,197.489 246.604,196.832 C241.496,195.931 238.552,191.571 240.042,187.124 C241.535,182.663 246.901,179.77 252.01,180.67 C257.109,181.569 260.046,185.929 258.555,190.388 L258.528,190.474 L255.714,189.835 C256.756,186.726 254.713,183.697 251.151,183.07 L251.151,183.07 Z M251.151,183.07" class="Shape"/>
            </g>
            <g class="ceilings">
                <path class="unit" d="M277.556,114.265 L275.096,121.621 L271.506,120.988 L270.959,122.621 L258.997,120.513 C259.976,117.536 260.969,114.504 261.969,111.517 L277.556,114.265 L277.556,114.265 Z M277.556,114.265" id="2001"/>
                <path class="unit" d="M270.685,123.443 L267.584,132.711 L255.722,130.617 C256.664,127.638 257.675,124.514 258.723,121.335 L270.685,123.443 L270.685,123.443 Z M270.685,123.443" id="2002"/>
                <path class="unit" d="M256.2,29.454 L241.525,73.316 L225.298,70.454 L239.975,26.592 L256.2,29.454 Z M256.2,29.454" id="2003"/>
                <path class="unit" d="M221.606,2.932 L200.479,66.078 L175.204,61.621 L192.466,10.132 L191.652,10.003 L188.856,9.509 L190.953,3.244 L221.606,2.932 Z M221.606,2.932" id="2004"/>
                <path class="unit" d="M263.895,2.507 C264.524,2.951 276.45,11.386 283.797,21.049 C291.129,30.705 298.5,44.346 298.889,45.065 L291.881,52.195 L295.246,55.951 L264.931,77.444 L242.452,73.482 L257.127,29.619 L257.266,29.205 L257.405,28.794 L234.942,24.835 L242.339,2.726 L263.895,2.507 L263.895,2.507 Z M263.895,2.507" id="2005"/>
                <path class="unit" d="M309.28,60.022 C309.837,60.12 310.385,60.257 310.926,60.442 C318.543,63.064 326.214,72.828 334.967,95.151 C340.444,109.184 342.183,128.838 342.009,145.835 L272.1,133.507 L278.754,113.619 L278.298,113.539 L277.827,113.457 L262.239,110.707 C267.665,94.437 272.509,80.419 272.763,79.681 L291.46,66.249 C291.938,65.865 301.005,58.562 309.28,60.022 L309.28,60.022 Z M309.28,60.022" id="2006"/>
                <path class="unit" d="M261.649,136.634 L259.891,141.885 L251.954,140.487 C252.688,138.825 253.423,137.116 254.098,135.302 L261.649,136.634 L261.649,136.634 Z M261.649,136.634" id="2007"/>
                <path class="unit" d="M238.192,130.69 L237.37,133.147 L234.718,138.303 L218.121,135.375 L220.72,127.61 L238.192,130.69 Z M238.192,130.69" id="2008"/>
                <path class="unit" d="M234.307,139.102 L230.712,146.118 L219.775,146.213 L214.788,145.333 L217.844,136.2 L234.307,139.102 Z M234.307,139.102" id="2009"/>
                <path class="unit" d="M188.658,161.193 L176.651,197.085 L167.837,196.761 L180.234,159.71 L188.658,161.193 Z M188.658,161.193" id="2010"/>
                <path class="unit" d="M179.29,159.543 L166.85,196.729 L158.036,196.403 L170.866,158.057 L179.29,159.543 Z M179.29,159.543" id="2011"/>
                <path class="unit" d="M198.026,162.847 L186.457,197.428 L177.64,197.118 L189.602,161.361 L198.026,162.847 Z M198.026,162.847" id="2012"/>
                <path class="unit" d="M232.031,168.841 L229.066,171.778 L225.25,169.376 L207.479,187.879 L204.68,187.385 L194.602,197.726 L187.424,197.474 L198.955,163.01 L232.031,168.841 Z M232.031,168.841" id="2013"/>
                <path class="unit" d="M341.905,150.784 C341.496,163.687 340.009,174.424 338.355,178.945 C334.409,189.776 326.683,195.049 318.001,199.298 C309.323,203.53 270.069,200.725 268.003,200.576 C268.096,200.269 269.847,194.483 267.641,184.281 C265.445,174.093 260.617,170.284 260.363,170.083 L235.591,165.14 C236.042,164.711 244.603,156.556 251.604,141.281 L259.625,142.696 L260.553,142.86 L262.579,136.798 L341.905,150.784 L341.905,150.784 Z M341.905,150.784" id="2014"/>
                <path class="unit" d="M86.341,30.953 L81.604,45.116 L72.402,43.494 L69.787,40.434 L73.704,28.724 L86.341,30.953 Z M86.341,30.953" id="2015"/>
                <path class="unit" d="M97.581,32.936 L92.841,47.1 L82.53,45.279 L87.27,31.117 L97.581,32.936 Z M97.581,32.936" id="2016"/>
                <path class="unit" d="M116.342,19.794 L106.405,49.491 L93.768,47.264 L100.151,28.186 L103.438,28.764 L106.989,18.145 L116.342,19.794 Z M116.342,19.794" id="2017"/>
                <path class="unit" d="M161.808,18.729 L149.003,57.002 L135.423,54.607 L148.227,16.334 L158.993,18.233 L161.335,18.645 L161.808,18.729 Z M161.808,18.729" id="2018"/>
                <path class="unit" d="M189.955,14.595 L174.277,61.458 L149.93,57.166 L163.099,17.803 L162.459,17.691 L162.171,17.64 L161.7,17.557 L164.21,10.055 L189.955,14.595 Z M189.955,14.595" id="2019"/>
                <path class="unit" d="M147.073,16.848 L134.493,54.444 L116.702,51.306 L126.636,21.608 L135.382,23.15 L147.073,16.848 Z M147.073,16.848" id="2020"/>
                <path class="unit" d="M125.71,21.445 L115.775,51.142 L107.349,49.657 L117.286,19.959 L125.71,21.445 Z M125.71,21.445" id="2021"/>
                <path class="unit" d="M241.335,2.736 L233.999,24.666 L233.86,25.077 L233.722,25.491 L239.031,26.427 L224.354,70.289 L201.423,66.245 L222.608,2.922 L241.335,2.736 Z M241.335,2.736" id="2022"/>
                <path class="unit" d="M22.863,87.83 L20.402,95.186 L6.214,92.683 L8.675,85.329 L22.863,87.83 Z M22.863,87.83" id="2023"/>
                <path class="unit" d="M20.131,95.994 L17.759,103.083 L3.572,100.583 L5.943,93.492 L20.131,95.994 Z M20.131,95.994" id="2024"/>
                <path class="unit" d="M34.89,51.882 L32.021,60.456 L14.868,57.433 L17.737,48.856 L34.89,51.882 Z M34.89,51.882" id="2025"/>
                <path class="unit" d="M31.75,61.266 L28.744,70.253 L11.59,67.229 L14.598,58.242 L31.75,61.266 Z M31.75,61.266" id="2026"/>
                <path class="unit" d="M28.468,71.078 L26.007,78.432 L11.82,75.931 L11.348,75.846 L10.876,75.764 L9.828,78.896 L7.806,78.541 L11.314,68.052 L28.468,71.078 Z M28.468,71.078" id="2027"/>
                <path class="unit" d="M25.737,79.24 L23.138,87.007 L8.951,84.505 L11.549,76.74 L25.737,79.24 Z M25.737,79.24" id="2028"/>
                <path class="unit" d="M127.932,104.192 L120.255,127.14 L112.223,124.478 L119.508,102.706 L127.932,104.192 Z M127.932,104.192" id="2029"/>
                <path class="unit" d="M109.548,70.232 L105.812,81.396 L97.387,79.911 L101.124,68.748 L109.548,70.232 Z M109.548,70.232" id="2030"/>
                <path class="unit" d="M118.915,71.885 L115.181,83.05 L106.757,81.564 L110.491,70.398 L118.915,71.885 Z M118.915,71.885" id="2031"/>
                <path class="unit" d="M128.268,73.534 L124.533,84.697 L116.107,83.214 L119.844,72.048 L128.268,73.534 Z M128.268,73.534" id="2032"/>
                <path class="unit" d="M100.195,68.583 L96.46,79.748 L96.293,79.719 L96.021,80.528 L124.263,85.508 L122.484,90.817 L71.161,81.768 L76.942,64.482 L100.195,68.583 Z M100.195,68.583" id="2033"/>
                <path class="unit" d="M122.21,91.642 L120.113,97.907 L68.789,88.856 L70.886,82.59 L122.21,91.642 Z M122.21,91.642" id="2034"/>
                <path class="unit" d="M110.643,97.094 L107.4,106.039 L88.915,102.779 L88.955,102.662 L65.733,97.991 L68.518,89.666 L110.643,97.094 Z M110.643,97.094" id="2035"/>
                <path class="unit" d="M137.637,75.185 L128.207,103.368 L119.782,101.884 L129.212,73.699 L137.637,75.185 Z M137.637,75.185" id="2036"/>
                <path class="unit" d="M205.154,117.808 L196.996,142.196 L190.441,141.041 L198.602,116.652 L205.154,117.808 Z M205.154,117.808" id="2037"/>
                <path class="unit" d="M212.653,119.13 L204.494,143.519 L197.939,142.361 L206.099,117.975 L212.653,119.13 Z M212.653,119.13" id="2038"/>
                <path class="unit" d="M222.357,90.125 L212.93,118.308 L204.503,116.821 L213.933,88.639 L222.357,90.125 Z M222.357,90.125" id="2039"/>
                <path class="unit" d="M231.71,91.774 L227.291,104.982 L227.02,105.791 L223.328,116.823 L223.053,117.646 L222.28,119.957 L213.856,118.471 L223.285,90.288 L231.71,91.774 Z M231.71,91.774" id="2040"/>
                <path class="unit" d="M245.438,109.037 L241.744,120.07 L224.271,116.988 L227.964,105.959 L245.438,109.037 Z M245.438,109.037" id="2041"/>
                <path class="unit" d="M241.47,120.895 L238.464,129.882 L220.991,126.801 L223.997,117.812 L241.47,120.895 Z M241.47,120.895" id="2042"/>
                <path class="unit" d="M222.006,120.779 L220.047,126.634 L219.775,127.442 L213.847,145.168 L205.42,143.683 L213.579,119.294 L222.006,120.779 Z M222.006,120.779" id="2043"/>
                <path class="unit" d="M203.622,86.821 L197.2,106.016 L188.773,104.53 L195.197,85.335 L203.622,86.821 Z M203.622,86.821" id="2044"/>
                <path class="unit" d="M197.673,116.489 L189.514,140.878 L177.331,138.729 L185.491,114.343 L197.673,116.489 Z M197.673,116.489" id="2045"/>
                <path class="unit" d="M212.989,88.472 L203.561,116.655 L185.768,113.518 L188.498,105.355 L197.867,107.006 L198.006,106.595 L204.564,86.986 L212.989,88.472 Z M212.989,88.472" id="2046"/>
                <path class="unit" d="M184.564,114.177 L176.405,138.565 L167.508,136.998 L175.667,112.608 L184.564,114.177 Z M184.564,114.177" id="2047"/>
                <path class="unit" d="M174.74,112.445 L166.582,136.834 L158.156,135.349 L166.316,110.96 L174.74,112.445 Z M174.74,112.445" id="2048"/>
                <path class="unit" d="M165.373,110.795 L157.214,135.181 L148.787,133.695 L156.946,109.309 L165.373,110.795 Z M165.373,110.795" id="2049"/>
                <path class="unit" d="M175.077,81.787 L165.648,109.97 L157.224,108.483 L166.653,80.302 L175.077,81.787 Z M175.077,81.787" id="2050"/>
                <path class="unit" d="M194.269,85.172 L184.84,113.354 L166.592,110.137 L176.021,81.954 L194.269,85.172 Z M194.269,85.172" id="2051"/>
                <path class="unit" d="M156.005,109.141 L147.844,133.529 L139.42,132.045 L147.579,107.655 L156.005,109.141 Z M156.005,109.141" id="2052"/>
                <path class="unit" d="M165.709,80.136 L156.279,108.318 L147.854,106.833 L157.283,78.65 L165.709,80.136 Z M165.709,80.136" id="2053"/>
                <path class="unit" d="M146.652,107.492 L138.494,131.881 L130.066,130.396 L138.229,106.007 L146.652,107.492 Z M146.652,107.492" id="2054"/>
                <path class="unit" d="M137.284,105.842 L129.164,130.11 L121.138,127.436 L128.858,104.355 L137.284,105.842 Z M137.284,105.842" id="2055"/>
                <path class="unit" d="M146.988,76.834 L137.559,105.017 L129.136,103.533 L138.562,75.349 L146.988,76.834 Z M146.988,76.834" id="2056"/>
                <path class="unit" d="M156.357,78.487 L146.928,106.67 L138.503,105.184 L147.933,77.001 L156.357,78.487 Z M156.357,78.487" id="2057"/>
                <path class="unit" d="M234.523,92.27 L249.123,98.021 L245.708,108.23 L228.235,105.147 L232.653,91.939 L234.523,92.27 Z M234.523,92.27" id="2058"/>
                <path class="unit" d="M107.091,106.858 L102.042,120.827 L94.821,117.233 L98.785,105.394 L107.091,106.858 Z M107.091,106.858" id="2059"/>
                <path class="unit" d="M97.841,105.227 L93.962,116.816 L85.888,112.791 L88.657,103.606 L97.841,105.227 Z M97.841,105.227" id="2060"/>
                <path class="unit" d="M43.541,118.876 L34.975,144.485 L11.889,140.414 L17.632,123.249 L24.171,124.402 L26.996,115.958 L43.541,118.876 Z M43.541,118.876" id="2061"/>
                <path class="unit" d="M88.836,136.568 L113.457,147.934 L113.778,147.991 L106.307,170.319 L106.169,170.731 L106.032,171.144 L115.383,172.791 L108.085,194.605 L69.873,193.241 L88.836,136.568 Z M88.836,136.568" id="2062"/>
                <path class="unit" d="M153.089,154.922 L139.432,195.74 L109.067,194.654 L124.072,149.806 L153.089,154.922 Z M153.089,154.922" id="2063"/>
                <path class="unit" d="M169.938,157.894 L157.064,196.372 L140.403,195.771 L154.016,155.086 L169.938,157.894 Z M169.938,157.894" id="2064"/>
                <path class="unit" d="M81.109,132.993 L87.986,136.169 L84.685,146.039 L84.778,145.76 L77.315,144.334 L81.109,132.993 Z M81.109,132.993" id="2065"/>
                <path class="unit" d="M63.934,125.072 L80.256,132.609 L76.393,144.154 L58.237,140.659 L63.479,124.994 L63.934,125.072 Z M63.934,125.072" id="2066"/>
                <path class="unit" d="M62.535,124.827 L57.299,140.479 L49.071,138.887 L54.262,123.368 L62.535,124.827 Z M62.535,124.827" id="2067"/>
                <path class="unit" d="M123.129,149.641 L115.66,171.969 L107.233,170.483 L114.704,148.154 L123.129,149.641 Z M123.129,149.641" id="2068"/>
                <path class="unit" d="M31.172,105.449 L29.351,110.893 L17.185,108.748 L18.096,106.025 L23.101,106.908 L24.011,104.188 L31.172,105.449 Z M31.172,105.449" id="2069"/>
                <path class="unit" d="M63.784,49.469 L61.412,56.558 L55.48,55.513 L57.854,48.423 L63.784,49.469 Z M63.784,49.469" id="2070"/>
                <path class="unit" d="M59.41,62.544 L57.042,69.62 L51.11,68.575 L53.479,61.498 L59.41,62.544 Z M59.41,62.544" id="2071"/>
                <path class="unit" d="M44.429,59.902 L42.062,66.979 L36.132,65.933 L38.498,58.857 L44.429,59.902 Z M44.429,59.902" id="2072"/>
                <path class="unit" d="M48.474,95.229 L46.102,102.317 L40.17,101.272 L42.544,94.183 L48.474,95.229 Z M48.474,95.229" id="2073"/>
                <path class="unit" d="M33.495,92.587 L31.123,99.678 L25.192,98.632 L27.564,91.541 L33.495,92.587 Z M33.495,92.587" id="2074"/>
                <path class="unit" d="M94.335,124.079 L91.963,131.168 L86.032,130.122 L88.403,123.034 L94.335,124.079 Z M94.335,124.079" id="2075"/>
                <path class="unit" d="M172.654,144.82 L170.286,151.896 L164.354,150.85 L166.723,143.774 L172.654,144.82 Z M172.654,144.82" id="2076"/>
                <path class="unit" d="M224.802,77.86 L222.431,84.948 L216.499,83.903 L218.871,76.814 L224.802,77.86 Z M224.802,77.86" id="2077"/>
                <path class="unit" d="M149.904,64.654 L147.532,71.743 L141.602,70.697 L143.973,63.608 L149.904,64.654 Z M149.904,64.654" id="2078"/>
                <path class="unit" d="M96.016,55.836 L93.645,62.925 L87.713,61.879 L90.084,54.79 L96.016,55.836 Z M96.016,55.836" id="2079"/>
                <path class="unit" d="M125.703,135.571 L123.331,142.66 L117.4,141.614 L119.771,134.525 L125.703,135.571 Z M125.703,135.571" id="2080"/>
        </g>
    </g>
</svg>