<svg
  xmlns="http://www.w3.org/2000/svg"
  xmlns:xlink="http://www.w3.org/1999/xlink"
  id="centre-map"
  version="1.1"
  >

  <!-- Icons -->
  <g class="baby_changing base-icon" transform="scale(0.7)">
    <path d="M22,11c0,6.075-4.925,11-11,11S0,17.075,0,11S4.925,0,11,0S22,4.925,22,11z" class="black" stroke="none" fill="#808285" stroke-width="0.5"/>
    <path d="M21,11c0,5.523-4.477,10-10,10C5.477,21,1,16.523,1,11C1,5.477,5.477,1,11,1C16.523,1,21,5.477,21,11z" class="white" stroke="none" fill="white" stroke-width="0.5"/>
    <path d="M10.991,5.092c-0.304,0-0.566,0.121-0.691,0.297l0,0C9.678,5.653,9.243,6.254,9.243,6.956l0,0 c0,0.944,0.787,1.708,1.758,1.708l0,0c0.972,0,1.757-0.764,1.757-1.708l0,0c0-0.702-0.438-1.304-1.058-1.567l0,0 c0.173-0.237,0.021-0.658,0.021-0.658l0,0C11.618,4.939,11.33,5.092,10.991,5.092L10.991,5.092z M7.062,8.973 c-0.439,0-0.723,0.274-0.723,0.635l0,0c0,0.377,0.283,0.651,0.723,0.651l0,0h2.146v1.812c0.204-0.154,0.594-0.358,1.086-0.17l0,0 c0.683,0.263,1.435,0.841,2.47,0.455l0,0v-2.097h2.172c0.426,0,0.727-0.274,0.727-0.651l0,0c0-0.361-0.301-0.635-0.727-0.635l0,0 H7.062z M11.641,13.884l1.063,1.027l-0.638,1.399c-0.172,0.377-0.034,0.754,0.305,0.898l0,0c0.355,0.15,0.734-0.004,0.906-0.38l0,0 l0.81-1.779c-0.001,0-0.001,0-0.001,0l0,0c0.123-0.249,0.07-0.549-0.168-0.78l0,0l-1.152-1.113L11.641,13.884z M8.09,14.271 c-0.24,0.23-0.293,0.53-0.167,0.779l0,0H7.921l0.81,1.779c0.17,0.376,0.549,0.531,0.905,0.38l0,0 c0.339-0.146,0.477-0.522,0.305-0.897l0,0l-0.637-1.4l1.065-1.027h0.024l-1.184-0.693L8.09,14.271z" class="black" stroke="none" fill="#808285" stroke-width="0.5"/>
  </g>
  <g class="cash_machine base-icon" transform="scale(0.7)">
    <path d="M22,11c0,6.075-4.925,11-11,11S0,17.075,0,11S4.925,0,11,0S22,4.925,22,11z" class="black" stroke="none" fill="#808285" stroke-width="0.5"/>
    <path d="M21,11c0,5.523-4.477,10-10,10C5.477,21,1,16.523,1,11C1,5.477,5.477,1,11,1C16.523,1,21,5.477,21,11z" class="white" stroke="none" fill="white" stroke-width="0.5"/>
    <path d="M17.625,6.652H4.375v4.488H7.42l1.668-3.366h4.729l-0.709,1.402h0.988l-0.957,1.964h4.486V6.652z" class="black" stroke="none" fill="#808285" stroke-width="0.5"/>
    <path d="M13.252,8.896l-0.145,0.268l-0.151,0.293h0.663l-2.693,5.33H6.854l0.599-1.121H7.087h-0.29L5.9,15.349h5.385l3.289-6.451 L13.252,8.896L13.252,8.896z" class="black" stroke="none" fill="#808285" stroke-width="0.5"/>
    <path d="M11.005,13.945H5.62l3.29-6.452h5.386L11.005,13.945L11.005,13.945z M6.574,13.384h4.073l2.694-5.329H9.268L6.574,13.384 L6.574,13.384z" class="black" stroke="none" fill="#808285" stroke-width="0.5"/>
    <path d="M10.282,10.618L9.75,10.504c-0.005-0.138-0.01-0.273,0.015-0.393c0.043-0.204,0.202-0.289,0.384-0.25 c0.128,0.027,0.195,0.068,0.257,0.101c0.038,0.02,0.088,0.049,0.132,0.059c0.116,0.025,0.23-0.062,0.255-0.178 c0.014-0.065,0.005-0.113-0.033-0.167c-0.079-0.112-0.316-0.235-0.553-0.285C9.782,9.299,9.395,9.488,9.301,9.929 c-0.033,0.156-0.009,0.314,0.005,0.481l-0.15-0.032c-0.109-0.024-0.196,0.027-0.219,0.136c-0.023,0.109,0.036,0.19,0.145,0.214 l0.215,0.045c-0.004,0.019-0.004,0.038-0.007,0.052c-0.053,0.251-0.159,0.374-0.262,0.5c-0.108,0.127-0.159,0.207-0.174,0.276 c-0.022,0.105,0.019,0.252,0.234,0.297l1.071,0.229c0.135,0.027,0.254-0.029,0.284-0.172c0.03-0.143-0.062-0.246-0.189-0.273 l-0.835-0.177c0.139-0.15,0.267-0.325,0.319-0.569c0.005-0.022,0.01-0.043,0.011-0.066l0.459,0.098 c0.109,0.023,0.196-0.027,0.219-0.136C10.451,10.722,10.406,10.644,10.282,10.618z" class="black" stroke="none" fill="#808285" stroke-width="0.5"/>
  </g>
  <g class="click_and_collect base-icon" transform="scale(0.7)">
    <path d="M22,11c0,6.075-4.925,11-11,11S0,17.075,0,11S4.925,0,11,0S22,4.925,22,11z" class="black" stroke="none" fill="#808285" stroke-width="0.5"/>
    <path d="M21,11c0,5.523-4.477,10-10,10C5.477,21,1,16.523,1,11C1,5.477,5.477,1,11,1C16.523,1,21,5.477,21,11z" class="white" stroke="none" fill="white" stroke-width="0.5"/>
    <path d="M11.394,4.638h-0.085v1.486c0.81,0.132,1.423,0.765,1.423,1.53v2.012c0,0.861-0.774,1.559-1.731,1.559 c-0.958,0-1.733-0.698-1.733-1.559V7.654c0-0.729,0.56-1.336,1.312-1.506v-1.51C8.665,4.653,7.116,6.2,7.116,8.109v5.782 c0,1.918,1.562,3.473,3.491,3.473h0.787c1.928,0,3.49-1.555,3.49-3.473V8.109C14.884,6.19,13.32,4.638,11.394,4.638L11.394,4.638z" id="Shape" class="black" stroke="none" fill="#808285" stroke-width="0.5"/>
    <path d="M9.94,7.979V9.34c0,0.583,0.475,1.055,1.06,1.055s1.061-0.472,1.061-1.055V7.979 c0-0.582-0.476-1.054-1.061-1.054S9.94,7.397,9.94,7.979L9.94,7.979z" id="Shape_1_" class="black" stroke="none" fill="#808285" stroke-width="0.5"/>
  </g>
  <g class="customer_services base-icon" transform="scale(0.7)">
    <path class="black" fill="#808285" d="M22,11c0,6.075-4.925,11-11,11S0,17.075,0,11S4.925,0,11,0S22,4.925,22,11z"/>
    <path class="white" fill="#FFFFFF" d="M21,11c0,5.523-4.477,10-10,10C5.477,21,1,16.523,1,11C1,5.477,5.477,1,11,1C16.523,1,21,5.477,21,11z"/>
    <path class="black" fill="#808285" d="M15.946,8.218C15.1,6.283,13.203,4.93,11,4.93S6.9,6.283,6.054,8.218C4.924,8.389,4.062,9.274,4.062,10.35 c0,1.057,0.834,1.935,1.936,2.126c0.376,1.044,1.068,2.215,2.252,3.062c-0.033,0.109-0.068,0.219-0.068,0.339 c0,0.658,0.534,1.192,1.192,1.192s1.192-0.534,1.192-1.192s-0.534-1.192-1.192-1.192c-0.328,0-0.625,0.133-0.84,0.348 c-1.136-0.828-1.769-1.988-2.087-2.973V8.827c0.667-1.923,2.446-3.312,4.552-3.312c2.107,0,3.887,1.391,4.554,3.315v3.687 c1.317,0,2.385-0.971,2.385-2.167C17.938,9.274,17.076,8.389,15.946,8.218z"/>
    <path class="black" fill="#808285" d="M13.255,10.448c-1.425,0-2.644-0.841-3.22-2.05c-0.474,0.999-1.387,1.748-2.497,1.977 c0,0.025-0.007,0.048-0.007,0.074c0,1.98,1.601,3.587,3.577,3.587s3.578-1.606,3.578-3.587c0-0.099-0.021-0.191-0.028-0.288 C14.227,10.345,13.753,10.448,13.255,10.448L13.255,10.448z"/>
  </g>
  <g class="disabled_toilets base-icon" transform="scale(0.7)">
    <path class="black" fill="#808285" d="M22,11c0,6.075-4.925,11-11,11S0,17.075,0,11S4.925,0,11,0S22,4.925,22,11z"/>
    <path class="white" fill="#FFFFFF" d="M21,11c0,5.523-4.477,10-10,10C5.477,21,1,16.523,1,11C1,5.477,5.477,1,11,1C16.523,1,21,5.477,21,11z"/>
    <path class="black" fill="#808285" d="M15.819,15.12l0.003,0.005l-0.752,0.478l-0.465,0.3l-0.002-0.003L14.6,15.902l-2.346-3.657H8.486V7.633 c-0.384-0.24-0.64-0.665-0.64-1.149c0-0.75,0.611-1.359,1.365-1.359c0.754,0,1.365,0.608,1.365,1.359 c0,0.484-0.255,0.909-0.639,1.149v1.299h3.483v1.444H9.937V10.8h3.112l1.99,3.103l0.798-0.515l0.762,1.229L15.819,15.12z M9.382,15.672c-1.528,0-2.771-1.238-2.771-2.76c0-1.021,0.562-1.913,1.392-2.39V9.194c-1.519,0.559-2.601,2.012-2.601,3.718 c0,2.188,1.782,3.963,3.98,3.963c1.679,0,3.114-1.035,3.699-2.499l-0.928-1.448C12.145,14.442,10.905,15.672,9.382,15.672z"/>
  </g>
  <g class="elevator base-icon" transform="scale(0.7)">
    <path d="M22,11c0,6.075-4.925,11-11,11S0,17.075,0,11S4.925,0,11,0S22,4.925,22,11z" class="black" stroke="none" fill="#808285" stroke-width="0.5"/>
    <path d="M21,11c0,5.523-4.477,10-10,10C5.477,21,1,16.523,1,11C1,5.477,5.477,1,11,1C16.523,1,21,5.477,21,11z" class="white" stroke="none" fill="white" stroke-width="0.5"/>
    <path d="M15.307,9.513H6.693c-0.728,0-1.318,0.416-1.318,0.93v5.577c0,0.515,0.59,0.932,1.318,0.932h8.614 c0.729,0,1.317-0.417,1.317-0.932v-5.577C16.625,9.929,16.034,9.513,15.307,9.513L15.307,9.513z M15.758,16.02 c0,0.104-0.122,0.188-0.273,0.188H6.517c-0.152,0-0.275-0.083-0.275-0.188v-5.577c0-0.103,0.123-0.186,0.275-0.186h8.965 c0.151,0,0.273,0.083,0.273,0.186L15.758,16.02L15.758,16.02z" class="black" stroke="none" fill="#808285" stroke-width="0.5"/>
    <path d="M8.298,11c0.216,0,0.391,0.167,0.391,0.372c0,0.206-0.175,0.372-0.391,0.372c-0.216,0-0.391-0.166-0.391-0.372 C7.907,11.167,8.082,11,8.298,11z" class="black" stroke="none" fill="#808285" stroke-width="0.5"/>
    <path d="M10.873,11c0.216,0,0.391,0.167,0.391,0.372c0,0.206-0.175,0.372-0.391,0.372s-0.391-0.166-0.391-0.372 C10.482,11.167,10.657,11,10.873,11z" class="black" stroke="none" fill="#808285" stroke-width="0.5"/>
    <path d="M13.635,11c0.217,0,0.391,0.167,0.391,0.372c0,0.206-0.174,0.372-0.391,0.372c-0.216,0-0.391-0.166-0.391-0.372 C13.244,11.167,13.419,11,13.635,11z" class="black" stroke="none" fill="#808285" stroke-width="0.5"/>
    <path d="M8.805,11.867H7.762c-0.144,0-0.261,0.119-0.261,0.266v1.328c0,0.124,0.083,0.229,0.196,0.257v1.62 c0,0.137,0.117,0.248,0.26,0.248c0.145,0,0.261-0.111,0.261-0.248v-1.611h0.13v1.611c0,0.137,0.117,0.248,0.261,0.248 s0.261-0.111,0.261-0.248v-1.62c0.112-0.028,0.196-0.133,0.196-0.257v-1.328C9.066,11.986,8.949,11.867,8.805,11.867L8.805,11.867z" class="black" stroke="none" fill="#808285" stroke-width="0.5"/>
    <path d="M11.379,11.867h-1.042c-0.144,0-0.261,0.119-0.261,0.266v1.328c0,0.124,0.083,0.229,0.196,0.257v1.62 c0,0.137,0.117,0.248,0.26,0.248c0.145,0,0.261-0.111,0.261-0.248v-1.611h0.13v1.611c0,0.137,0.117,0.248,0.261,0.248 s0.26-0.111,0.26-0.248v-1.62c0.113-0.028,0.197-0.133,0.197-0.257v-1.328C11.641,11.986,11.523,11.867,11.379,11.867L11.379,11.867 z" class="black" stroke="none" fill="#808285" stroke-width="0.5"/>
    <path d="M14.143,11.867H13.1c-0.145,0-0.261,0.119-0.261,0.266v1.328c0,0.124,0.082,0.229,0.194,0.257v1.62 c0,0.137,0.117,0.248,0.262,0.248s0.262-0.111,0.262-0.248v-1.611h0.129v1.611c0,0.137,0.117,0.248,0.263,0.248 c0.144,0,0.261-0.111,0.261-0.248v-1.62c0.111-0.028,0.193-0.133,0.193-0.257v-1.328C14.402,11.986,14.286,11.867,14.143,11.867 L14.143,11.867z" class="black" stroke="none" fill="#808285" stroke-width="0.5"/>
    <path d="M10.257,6.436l-1.303-1.24c-0.204-0.194-0.534-0.194-0.737,0l0,0l-1.304,1.24 c-0.203,0.194-0.203,0.508,0,0.701c0.204,0.193,0.534,0.193,0.738,0l0.413-0.393v1.777c0,0.274,0.233,0.496,0.521,0.496 s0.521-0.222,0.521-0.496V6.744L9.52,7.137c0.204,0.193,0.534,0.193,0.737,0C10.46,6.944,10.461,6.629,10.257,6.436L10.257,6.436z" class="black" stroke="none" fill="#808285" stroke-width="0.5"/>
    <path d="M14.99,6.931c-0.203-0.193-0.533-0.193-0.737,0L13.84,7.324V5.547c0-0.274-0.232-0.496-0.521-0.496 c-0.285,0-0.521,0.222-0.521,0.496v1.777l-0.414-0.393c-0.202-0.193-0.532-0.193-0.737,0c-0.203,0.194-0.203,0.508,0,0.702 l1.306,1.239l0,0c0.038,0.037,0.081,0.066,0.126,0.089c0.195,0.098,0.443,0.069,0.609-0.089l0,0l1.305-1.239 C15.193,7.439,15.193,7.125,14.99,6.931L14.99,6.931z" class="black" stroke="none" fill="#808285" stroke-width="0.5"/>
  </g>
  <g class="lift base-icon" transform="scale(0.7)">
    <path d="M22,11c0,6.075-4.925,11-11,11S0,17.075,0,11S4.925,0,11,0S22,4.925,22,11z" class="black" stroke="none" fill="#808285" stroke-width="0.5"/>
    <path d="M21,11c0,5.523-4.477,10-10,10C5.477,21,1,16.523,1,11C1,5.477,5.477,1,11,1C16.523,1,21,5.477,21,11z" class="white" stroke="none" fill="white" stroke-width="0.5"/>
    <path d="M15.307,9.513H6.693c-0.728,0-1.318,0.416-1.318,0.93v5.577c0,0.515,0.59,0.932,1.318,0.932h8.614 c0.729,0,1.317-0.417,1.317-0.932v-5.577C16.625,9.929,16.034,9.513,15.307,9.513L15.307,9.513z M15.758,16.02 c0,0.104-0.122,0.188-0.273,0.188H6.517c-0.152,0-0.275-0.083-0.275-0.188v-5.577c0-0.103,0.123-0.186,0.275-0.186h8.965 c0.151,0,0.273,0.083,0.273,0.186L15.758,16.02L15.758,16.02z" class="black" stroke="none" fill="#808285" stroke-width="0.5"/>
    <path d="M8.298,11c0.216,0,0.391,0.167,0.391,0.372c0,0.206-0.175,0.372-0.391,0.372c-0.216,0-0.391-0.166-0.391-0.372 C7.907,11.167,8.082,11,8.298,11z" class="black" stroke="none" fill="#808285" stroke-width="0.5"/>
    <path d="M10.873,11c0.216,0,0.391,0.167,0.391,0.372c0,0.206-0.175,0.372-0.391,0.372s-0.391-0.166-0.391-0.372 C10.482,11.167,10.657,11,10.873,11z" class="black" stroke="none" fill="#808285" stroke-width="0.5"/>
    <path d="M13.635,11c0.217,0,0.391,0.167,0.391,0.372c0,0.206-0.174,0.372-0.391,0.372c-0.216,0-0.391-0.166-0.391-0.372 C13.244,11.167,13.419,11,13.635,11z" class="black" stroke="none" fill="#808285" stroke-width="0.5"/>
    <path d="M8.805,11.867H7.762c-0.144,0-0.261,0.119-0.261,0.266v1.328c0,0.124,0.083,0.229,0.196,0.257v1.62 c0,0.137,0.117,0.248,0.26,0.248c0.145,0,0.261-0.111,0.261-0.248v-1.611h0.13v1.611c0,0.137,0.117,0.248,0.261,0.248 s0.261-0.111,0.261-0.248v-1.62c0.112-0.028,0.196-0.133,0.196-0.257v-1.328C9.066,11.986,8.949,11.867,8.805,11.867L8.805,11.867z" class="black" stroke="none" fill="#808285" stroke-width="0.5"/>
    <path d="M11.379,11.867h-1.042c-0.144,0-0.261,0.119-0.261,0.266v1.328c0,0.124,0.083,0.229,0.196,0.257v1.62 c0,0.137,0.117,0.248,0.26,0.248c0.145,0,0.261-0.111,0.261-0.248v-1.611h0.13v1.611c0,0.137,0.117,0.248,0.261,0.248 s0.26-0.111,0.26-0.248v-1.62c0.113-0.028,0.197-0.133,0.197-0.257v-1.328C11.641,11.986,11.523,11.867,11.379,11.867L11.379,11.867 z" class="black" stroke="none" fill="#808285" stroke-width="0.5"/>
    <path d="M14.143,11.867H13.1c-0.145,0-0.261,0.119-0.261,0.266v1.328c0,0.124,0.082,0.229,0.194,0.257v1.62 c0,0.137,0.117,0.248,0.262,0.248s0.262-0.111,0.262-0.248v-1.611h0.129v1.611c0,0.137,0.117,0.248,0.263,0.248 c0.144,0,0.261-0.111,0.261-0.248v-1.62c0.111-0.028,0.193-0.133,0.193-0.257v-1.328C14.402,11.986,14.286,11.867,14.143,11.867 L14.143,11.867z" class="black" stroke="none" fill="#808285" stroke-width="0.5"/>
    <path d="M10.257,6.436l-1.303-1.24c-0.204-0.194-0.534-0.194-0.737,0l0,0l-1.304,1.24 c-0.203,0.194-0.203,0.508,0,0.701c0.204,0.193,0.534,0.193,0.738,0l0.413-0.393v1.777c0,0.274,0.233,0.496,0.521,0.496 s0.521-0.222,0.521-0.496V6.744L9.52,7.137c0.204,0.193,0.534,0.193,0.737,0C10.46,6.944,10.461,6.629,10.257,6.436L10.257,6.436z" class="black" stroke="none" fill="#808285" stroke-width="0.5"/>
    <path d="M14.99,6.931c-0.203-0.193-0.533-0.193-0.737,0L13.84,7.324V5.547c0-0.274-0.232-0.496-0.521-0.496 c-0.285,0-0.521,0.222-0.521,0.496v1.777l-0.414-0.393c-0.202-0.193-0.532-0.193-0.737,0c-0.203,0.194-0.203,0.508,0,0.702 l1.306,1.239l0,0c0.038,0.037,0.081,0.066,0.126,0.089c0.195,0.098,0.443,0.069,0.609-0.089l0,0l1.305-1.239 C15.193,7.439,15.193,7.125,14.99,6.931L14.99,6.931z" class="black" stroke="none" fill="#808285" stroke-width="0.5"/>
  </g>
  <g class="escalator base-icon" transform="scale(0.7)">
    <path d="M22,11c0,6.075-4.925,11-11,11S0,17.075,0,11S4.925,0,11,0S22,4.925,22,11z" class="black" stroke="none" fill="#808285" stroke-width="0.5"/>
    <path d="M21,11c0,5.523-4.477,10-10,10C5.477,21,1,16.523,1,11C1,5.477,5.477,1,11,1C16.523,1,21,5.477,21,11z" class="white" stroke="none" fill="white" stroke-width="0.5"/>
    <path d="M10.045,7.51c0.464,0,0.849-0.413,0.849-0.952c0-0.521-0.384-0.953-0.849-0.953 c-0.465,0-0.849,0.432-0.849,0.953C9.196,7.097,9.58,7.51,10.045,7.51 M8.523,15.356c-0.1,0.104-0.352,0.191-0.501,0.191H6.014 c-0.468,0-0.853-0.401-0.853-0.892c0-0.491,0.385-0.895,0.853-0.895h1.154c0.335,0,0.687-0.192,0.871-0.385 c0.3-0.314,5.354-5.569,5.438-5.673c0.101-0.106,0.352-0.193,0.502-0.193h2.007c0.468,0,0.854,0.403,0.854,0.893 c0,0.49-0.386,0.894-0.854,0.894h-1.153c-0.336,0-0.687,0.192-0.889,0.386C13.659,9.997,8.607,15.268,8.523,15.356 M14.579,10.33 c0.115-0.104,0.2-0.139,0.366-0.139h1.054c0.936,0,1.688-0.782,1.688-1.772c0-0.973-0.753-1.755-1.688-1.755h-1.973 c-0.485,0-0.937,0.209-1.204,0.486l-1.956,2.034V8.609c0-0.504-0.402-0.921-0.887-0.921S9.094,8.105,9.094,8.609v2.381l-1.655,1.72 c-0.101,0.104-0.201,0.14-0.369,0.14H6.017c-0.936,0-1.705,0.799-1.705,1.774c0,0.972,0.752,1.771,1.705,1.771H7.99 c0.485,0,0.937-0.226,1.205-0.486C9.511,15.579,14.495,10.434,14.579,10.33" id="Shape" class="black" stroke="none" fill="#808285" stroke-width="0.5"/>
  </g>
  <g class="parking base-icon" transform="scale(0.7)">
    <path d="M22,11c0,6.075-4.925,11-11,11S0,17.075,0,11S4.925,0,11,0S22,4.925,22,11z" class="black" stroke="none" fill="#808285" stroke-width="0.5"/>
    <path d="M21,11c0,5.523-4.477,10-10,10C5.477,21,1,16.523,1,11C1,5.477,5.477,1,11,1C16.523,1,21,5.477,21,11z" class="white" stroke="none" fill="white" stroke-width="0.5"/>
    <path d="M12.096,6.256H7.95v9.848h2.098v-3.318h2.048c1.588,0,2.931-1.316,2.931-2.872 l0.004-0.791C15.03,7.571,13.686,6.259,12.096,6.256L12.096,6.256z M12.933,9.919c0,0.413-0.414,0.819-0.837,0.819h-2.048V8.308 h2.048l0.072-0.001c0.373,0.038,0.722,0.377,0.765,0.741V9.919L12.933,9.919z" id="Shape_1_" class="black" stroke="none" fill="#808285" stroke-width="0.5"/>
  </g>
  <g class="public_telephone base-icon" transform="scale(0.7)">
    <path d="M22,11c0,6.075-4.925,11-11,11S0,17.075,0,11S4.925,0,11,0S22,4.925,22,11z" class="black" stroke="none" fill="#808285" stroke-width="0.5"/>
    <path d="M21,11c0,5.523-4.477,10-10,10C5.477,21,1,16.523,1,11C1,5.477,5.477,1,11,1C16.523,1,21,5.477,21,11z" class="white" stroke="none" fill="white" stroke-width="0.5"/>
    <path d="M16.509,16.453c-1.022,1.599-2.764,1.604-3.314,1.506 c-0.162-0.028-2.707-0.339-5.724-4.416c-2.429-3.28-2.26-6.317-2.192-6.887C5.346,6.1,5.747,4.746,7.828,4.055 c0.258-0.085,0.734-0.06,0.833,0.083C8.706,4.2,9.837,7.105,9.864,7.2s0.032,0.184,0.018,0.267C9.86,7.587,9.749,7.721,9.546,7.871 S9.129,8.152,8.902,8.267C8.674,8.381,8.46,8.508,8.26,8.645c-0.2,0.138-0.31,0.261-0.329,0.369 c-0.038,0.282,0.015,1.325,1.491,3.168c1.476,1.843,2.241,2.424,2.318,2.469c0.075,0.044,0.14,0.07,0.193,0.08 c0.108,0.02,0.262-0.043,0.459-0.184c0.198-0.141,0.898-0.814,1.108-0.954c0.209-0.139,0.374-0.198,0.495-0.177 c0.084,0.015,0.165,0.051,0.244,0.108c0.08,0.057,2.436,2.058,2.477,2.118C16.828,15.806,16.656,16.225,16.509,16.453" id="Shape" class="black" stroke="none" fill="#808285" stroke-width="0.5"/>
  </g>
  <g class="public_transport base-icon" transform="scale(0.7)">
    <path fill="#808285" d="M22,11c0,6.075-4.925,11-11,11S0,17.075,0,11S4.925,0,11,0S22,4.925,22,11z" class="black"/>
    <path fill="#FFF" d="M21,11c0,5.523-4.477,10-10,10C5.477,21,1,16.523,1,11C1,5.477,5.477,1,11,1C16.523,1,21,5.477,21,11z" class="white"/>
    <path fill="#808285" d="M8.948,14.255c-0.231,0-0.418,0.188-0.418,0.422c0,0.234,0.187,0.423,0.418,0.423 c0.231,0,0.418-0.188,0.418-0.423C9.366,14.443,9.18,14.255,8.948,14.255" class="black"/>
    <path fill="#808285" d="M7.924,14.346c-0.183,0-0.33,0.147-0.33,0.33c0,0.186,0.147,0.333,0.33,0.333 c0.182,0,0.329-0.147,0.329-0.333C8.253,14.493,8.106,14.346,7.924,14.346" class="black"/>
    <path fill="#808285" d="M13.052,15.1c0.231,0,0.419-0.188,0.419-0.424c0-0.232-0.188-0.421-0.419-0.421 c-0.229,0-0.419,0.188-0.419,0.421C12.633,14.91,12.82,15.1,13.052,15.1" class="black"/>
    <path fill="#808285" d="M14.076,15.009c0.183,0,0.33-0.147,0.33-0.332c0-0.184-0.147-0.331-0.33-0.331  c-0.184,0-0.329,0.147-0.329,0.331C13.747,14.861,13.895,15.009,14.076,15.009" class="black"/>
    <path fill="#808285" d="M16.297,7.144c-0.078-0.283-0.32-0.48-0.587-0.48c-0.024,0-0.047,0.004-0.071,0.007 c-0.004-0.038-0.009-0.075-0.014-0.112c-0.023-0.177-0.159-0.317-0.335-0.346c-0.147-0.024-0.298-0.046-0.446-0.068 C14.201,5.69,12.695,5.235,11,5.235h-0.014h-0.012c-1.695,0-3.201,0.456-3.843,0.909c-0.15,0.022-0.299,0.045-0.447,0.068 C6.508,6.241,6.373,6.381,6.349,6.558C6.344,6.595,6.34,6.631,6.335,6.668C6.32,6.667,6.306,6.664,6.291,6.664  c-0.267,0-0.509,0.198-0.587,0.48C5.458,8.03,5.334,8.95,5.336,9.878c0,0.382,0.276,0.692,0.614,0.692h0.008  c0.04,0,0.081-0.002,0.12-0.002c-0.002,1.569,0.116,3.138,0.356,4.698c0.026,0.168,0.155,0.305,0.323,0.336 C6.879,15.623,7,15.645,7.122,15.665v0.722c0,0.209,0.168,0.379,0.375,0.379h0.657c0.207,0,0.375-0.17,0.375-0.379v-0.523 c0.82,0.089,1.642,0.136,2.458,0.136c0.824,0,1.654-0.048,2.484-0.14v0.527c0,0.209,0.168,0.379,0.375,0.379h0.656  c0.207,0,0.375-0.17,0.375-0.379V15.66c0.113-0.02,0.227-0.038,0.338-0.061c0.168-0.031,0.299-0.166,0.324-0.336  c0.238-1.559,0.357-3.128,0.355-4.697c0.049,0,0.098,0.002,0.146,0.002h0.009c0.338,0,0.614-0.31,0.614-0.692 C16.666,8.95,16.543,8.03,16.297,7.144L16.297,7.144z M6.747,6.613c0.181-0.03,0.362-0.056,0.543-0.082 C7.771,6.133,9.249,5.64,10.974,5.64h0.014H11c1.725,0,3.204,0.493,3.684,0.891c0.183,0.026,0.362,0.053,0.543,0.082  c0.01,0.061,0.017,0.122,0.023,0.182c-0.072,0.025-0.143,0.051-0.215,0.077c-0.109,0.039-0.201,0.107-0.27,0.192  c-1.099-0.428-2.392-0.676-3.779-0.676c-1.378,0-2.664,0.246-3.758,0.668C7.161,6.975,7.071,6.91,6.965,6.872 c-0.081-0.028-0.16-0.057-0.239-0.086C6.733,6.728,6.739,6.67,6.747,6.613L6.747,6.613z M7.223,8.025h7.554l0.049,0.3 c-0.012,0.003-0.021,0.004-0.033,0.004H7.207c-0.01,0-0.021-0.001-0.031-0.003L7.223,8.025L7.223,8.025z M6.466,10.155  c-0.17,0.005-0.341,0.008-0.513,0.01H5.95c-0.1,0-0.212-0.123-0.212-0.288c-0.002-0.89,0.116-1.773,0.353-2.624 c0.03-0.108,0.112-0.184,0.2-0.184c0.018,0,0.036,0.003,0.055,0.01C6.508,7.14,6.67,7.198,6.832,7.253  c0.11,0.04,0.171,0.162,0.14,0.277C6.76,8.304,6.656,9.107,6.662,9.917C6.663,10.044,6.574,10.152,6.466,10.155L6.466,10.155z M15.143,15.202c-1.385,0.26-2.771,0.391-4.155,0.391c-1.386,0-2.771-0.131-4.156-0.391c-0.092-0.593-0.164-1.183-0.22-1.775h0.759 c0.19,0,0.43-0.122,0.505-0.303c0.168-0.401-0.15-0.995-0.331-1.34c-0.236-0.453-0.508-0.888-0.717-1.355 c0.121-0.099,0.205-0.245,0.228-0.413c0.791,1.835,2.4,3.411,3.959,3.411c1.885,0,3.793-0.813,4.43-1.112 C15.393,13.277,15.291,14.24,15.143,15.202L15.143,15.202z M16.05,10.165h-0.002c-0.173-0.001-0.344-0.004-0.514-0.009  c-0.108-0.003-0.196-0.111-0.196-0.238c0.008-0.81-0.098-1.613-0.309-2.387c-0.031-0.116,0.027-0.238,0.139-0.277 c0.162-0.056,0.324-0.114,0.488-0.174c0.018-0.007,0.035-0.01,0.054-0.01c0.088,0,0.17,0.076,0.199,0.184 c0.235,0.851,0.354,1.734,0.353,2.624C16.262,10.042,16.148,10.165,16.05,10.165L16.05,10.165z" class="black"/>
  </g>
  <g class="shop_mobility base-icon" transform="scale(0.7)">
    <path d="M22,11c0,6.075-4.925,11-11,11S0,17.075,0,11S4.925,0,11,0S22,4.925,22,11z" class="black" stroke="none" fill="#808285" stroke-width="0.5"/>
    <path d="M21,11c0,5.523-4.477,10-10,10C5.477,21,1,16.523,1,11C1,5.477,5.477,1,11,1C16.523,1,21,5.477,21,11z" class="white" stroke="none" fill="white" stroke-width="0.5"/>
    <path d="M12.418,14.014l-0.498-2.541H8.462l-0.127-0.819h2.036V9.81H8.205L7.956,8.207 c0.57-0.003,1.033-0.477,1.033-1.059c0-0.583-0.466-1.059-1.039-1.059c-0.573,0-1.039,0.475-1.039,1.059 c0,0.056,0.008,0.109,0.016,0.162L6.925,7.312l0.83,5.004h3.487l0.554,2.824l1.61-0.597l-0.283-0.793L12.418,14.014z" class="black" stroke="none" fill="#808285" stroke-width="0.5"/>
    <path d="M11.173,13.498c-0.21-0.091-0.453,0.009-0.542,0.223c-0.43,1.032-0.909,1.348-2.049,1.348 c-1.281,0-2.322-1.062-2.322-2.367c0-0.871,0.223-1.369,0.852-1.903c0.175-0.149,0.199-0.415,0.053-0.594 C7.018,10.024,6.757,10,6.582,10.149c-0.817,0.693-1.15,1.432-1.15,2.551c0,1.771,1.413,3.212,3.15,3.212 c1.465,0,2.253-0.521,2.811-1.861C11.482,13.837,11.384,13.589,11.173,13.498" class="black" stroke="none" fill="#808285" stroke-width="0.5"/>
    <path d="M14.955,15.348c-0.421,0-0.764-0.35-0.764-0.777s0.343-0.777,0.764-0.777s0.763,0.35,0.763,0.777 S15.376,15.348,14.955,15.348 M14.955,13.255c-0.711,0-1.29,0.591-1.29,1.313c0,0.725,0.579,1.314,1.29,1.314 s1.289-0.59,1.289-1.314C16.244,13.846,15.666,13.255,14.955,13.255" class="black" stroke="none" fill="#808285" stroke-width="0.5"/>
    <path d="M14.441,10.106l0.068,0.735h-0.428l-0.145-0.735H14.441z M14.593,11.7h-0.341l-0.113-0.585h0.399L14.593,11.7z M14.678,12.59h-0.252l-0.119-0.615h0.312L14.678,12.59z M15.492,10.106L15.4,10.841h-0.619l-0.07-0.735H15.492z M15.848,11.975 c0.019,0,0.035-0.004,0.051-0.011l-0.125,0.626H15.45l0.077-0.615H15.848z M15.637,11.115h0.43h0.002l-0.125,0.626 c-0.025-0.025-0.06-0.041-0.096-0.041h-0.285L15.637,11.115z M15.76,10.136c0.002-0.01,0.002-0.02,0.001-0.03h0.509l-0.149,0.747 c-0.017-0.007-0.034-0.011-0.054-0.011H15.67L15.76,10.136z M15.292,11.7h-0.429l-0.057-0.585h0.56L15.292,11.7z M15.18,12.59h-0.23 l-0.059-0.615h0.366L15.18,12.59z M13.666,13.02l0.757-0.154h0.362c0.017,0.006,0.035,0.009,0.055,0.007 c0.012-0.002,0.021-0.003,0.029-0.007h0.386c0.009,0.004,0.017,0.005,0.024,0.006c0.006,0.001,0.012,0.001,0.018,0.001 c0.016,0,0.029-0.002,0.042-0.007h0.544c0.064,0,0.119-0.047,0.133-0.109l0.551-2.758c0.008-0.041-0.004-0.083-0.028-0.114 c-0.024-0.032-0.063-0.051-0.104-0.051h-2.549h-0.111h-2.771v0.844h2.205L13.666,13.02z" class="black" stroke="none" fill="#808285" stroke-width="0.5"/>
  </g>
  <g class="toilets base-icon" transform="scale(0.7)">
    <path d="M22,11c0,6.075-4.925,11-11,11S0,17.075,0,11S4.925,0,11,0S22,4.925,22,11z" class="black" stroke="none" fill="#808285" stroke-width="0.5"/>
    <path d="M21,11c0,5.523-4.477,10-10,10C5.477,21,1,16.523,1,11C1,5.477,5.477,1,11,1C16.523,1,21,5.477,21,11z" class="white" stroke="none" fill="white" stroke-width="0.5"/>
    <path d="M7.3,12.711v3.176c0,0.124-0.041,0.229-0.118,0.303c-0.078,0.078-0.179,0.115-0.303,0.115 c-0.125,0-0.232-0.037-0.316-0.115c-0.089-0.074-0.13-0.179-0.13-0.303v-3.176H5.239l1.242-4.182H6.268 c-0.136,0.47-0.251,0.847-0.34,1.145c-0.082,0.298-0.171,0.58-0.249,0.853c-0.089,0.268-0.148,0.438-0.155,0.497 c-0.054,0.177-0.171,0.263-0.356,0.263l-0.094-0.023c-0.173-0.062-0.256-0.175-0.256-0.333c0-0.043,0.006-0.079,0.024-0.114 c0.012-0.031,0.047-0.136,0.089-0.314c0.048-0.177,0.112-0.397,0.19-0.652c0.077-0.26,0.16-0.541,0.249-0.843 c0.089-0.303,0.172-0.595,0.273-0.876c0.06-0.215,0.19-0.411,0.392-0.581c0.202-0.177,0.411-0.256,0.629-0.256h1.461 c0.226,0,0.445,0.08,0.642,0.256C8.958,7.72,9.095,7.916,9.171,8.132C9.253,8.414,9.337,8.706,9.42,9.008 C9.504,9.31,9.594,9.591,9.665,9.851c0.076,0.255,0.143,0.475,0.189,0.652c0.047,0.178,0.078,0.283,0.095,0.314l0.023,0.094 c0,0.19-0.089,0.303-0.261,0.353l-0.09,0.023c-0.188,0-0.309-0.085-0.355-0.263c-0.013-0.059-0.065-0.229-0.136-0.497 c-0.083-0.272-0.167-0.554-0.262-0.853C8.773,9.375,8.661,8.999,8.524,8.529H8.31l1.24,4.182H8.375v3.176 c0,0.124-0.036,0.229-0.131,0.303c-0.083,0.078-0.185,0.115-0.309,0.115c-0.131,0-0.227-0.037-0.309-0.115 c-0.078-0.074-0.113-0.179-0.113-0.303v-3.176H7.3L7.3,12.711z" class="black" stroke="none" fill="#808285" stroke-width="0.5"/>
    <path d="M7.418,7.033c0.25,0,0.465-0.081,0.631-0.252C8.221,6.605,8.31,6.388,8.31,6.126 c0-0.249-0.089-0.463-0.261-0.64c-0.166-0.181-0.38-0.272-0.631-0.272c-0.266,0-0.487,0.091-0.67,0.272 c-0.179,0.177-0.267,0.391-0.267,0.64c0,0.262,0.088,0.479,0.267,0.654C6.931,6.952,7.152,7.033,7.418,7.033L7.418,7.033z" class="black" stroke="none" fill="#808285" stroke-width="0.5"/>
    <path d="M13.977,7.268c-0.32,0-0.595,0.118-0.826,0.346c-0.231,0.238-0.352,0.515-0.352,0.823v2.85 c0,0.107,0.037,0.205,0.119,0.281c0.077,0.078,0.172,0.113,0.28,0.113c0.124,0,0.22-0.035,0.296-0.113 c0.066-0.076,0.102-0.174,0.102-0.281V8.739h0.209v7.056c0,0.137,0.06,0.262,0.172,0.357c0.105,0.106,0.23,0.152,0.373,0.152 c0.154,0,0.279-0.046,0.381-0.152c0.105-0.098,0.154-0.223,0.154-0.357v-4.091h0.23v4.091c0,0.137,0.054,0.262,0.154,0.357 c0.102,0.106,0.231,0.152,0.394,0.152c0.136,0,0.254-0.046,0.362-0.152c0.1-0.098,0.146-0.223,0.146-0.357V8.739h0.215v2.548 c0,0.107,0.035,0.205,0.106,0.281c0.084,0.078,0.184,0.113,0.291,0.113c0.125,0,0.221-0.035,0.292-0.113 c0.063-0.076,0.106-0.174,0.106-0.281v-2.85c0-0.308-0.113-0.585-0.346-0.823c-0.227-0.229-0.499-0.346-0.831-0.346H13.977 L13.977,7.268z" class="black" stroke="none" fill="#808285" stroke-width="0.5"/>
    <path d="M14.997,7.033c0.25,0,0.469-0.081,0.647-0.252c0.176-0.175,0.267-0.392,0.267-0.654 c0-0.249-0.091-0.463-0.267-0.64c-0.18-0.181-0.397-0.272-0.647-0.272c-0.261,0-0.481,0.091-0.647,0.272 c-0.178,0.177-0.261,0.391-0.261,0.64c0,0.262,0.083,0.479,0.261,0.654C14.516,6.952,14.736,7.033,14.997,7.033L14.997,7.033z" class="black" stroke="none" fill="#808285" stroke-width="0.5"/>
    <path d="M10.961,4.485h0.902v13.029h-0.902V4.485z" class="black" stroke="none" fill="#808285" stroke-width="0.5"/>
  </g>

  <!-- Areas -->
  <g transform="translate(33,0)">
    <path fill="none" stroke-width=".5" d="M224.522 179.78l-31.66-9.073v.002l-3.237-.91-10.827-3.107v-.021l-65.154-18.68 1.868-12.22 4.424-2.215-9.745 1.169-25.158-7.229 1.839-12.218 21.353-10.677 11.708 3.375.42.84 4.407 5.509c1.35-2.772 3.155-5.578 5.398-8.383 4.287-5.353 10.062-10.5 17.163-15.302 16.671-11.302 40.26-20.567 70.212-27.59l-23.668-6.786 1.868-12.22 27.799-13.912 106.859 30.647-1.868 12.22-17.595 8.797-33.75 18.542-.115.823-15.43 7.704-17.907 9.244-15.791-5.581-11.938 5.982 30.361 8.699-.866 5.711 31.828 9.136-1.839 12.219-23.328 11.675-.229-.083-1.745.877-.021.193-25.636 12.843zm0 0" class="shadow"/>
    <path fill="#f68b1f" stroke-width=".5" d="M224.522 150.171l-31.66-9.075v.002l-3.237-.909-10.827-3.107v-.021l-65.154-18.68 1.868-12.219 4.424-2.215-9.745 1.169-25.158-7.229 1.839-12.218 21.353-10.677 11.708 3.374.42.84 4.407 5.509c1.35-2.771 3.155-5.578 5.398-8.383 4.287-5.353 10.062-10.5 17.163-15.302 16.671-11.303 40.26-20.568 70.212-27.591l-23.668-6.785 1.868-12.22L223.532.523l106.859 30.646-1.868 12.22-17.595 8.797-33.75 18.542-.115.823-15.43 7.704-17.907 9.245-15.791-5.581-11.938 5.982 30.361 8.699-.866 5.711 31.828 9.136-1.839 12.219-23.328 11.675-.229-.083-1.745.876-.021.193-25.636 12.844zm0 0" class="outline"/>
    <path fill="#f68b1f" stroke-width=".5" d="M24.921 7.248c-.353 0-.625.256-.625.656v10.02c0 .4.256.64.608.64s.624-.24.624-.64V7.904c.001-.401-.255-.656-.607-.656zm20.754 5.025h-2.993c-.4 0-.625.304-.625.576 0 .32.208.561.625.561h2.481v3.649c-.56.224-1.249.384-2.177.384-2.225 0-3.649-1.521-3.649-4.401 0-3.153 1.457-4.642 3.697-4.642.784 0 1.376.144 2.097.4.208.08.4.16.561.16a.55.55 0 0 0 .56-.576c0-.256-.144-.432-.384-.56-.64-.336-1.617-.64-2.737-.64-2.849 0-5.058 1.953-5.058 5.922 0 3.537 1.969 5.522 4.914 5.522 1.344 0 2.177-.304 2.849-.608.32-.144.528-.353.528-.752v-4.306c-.001-.432-.273-.689-.689-.689zM35.659 7.248c-.353 0-.561.256-.561.656v8.563h-.032l-5.57-8.74c-.208-.336-.48-.48-.833-.48-.48 0-.8.336-.8.912v9.764c0 .4.256.64.592.64.352 0 .592-.24.592-.64v-8.66h.032l5.506 8.756c.208.32.464.544.833.544.528 0 .816-.416.816-.848V7.903c.001-.4-.223-.655-.575-.655zm-14.271 0c-.353 0-.561.256-.561.656v8.563h-.032l-5.57-8.74c-.208-.336-.48-.48-.833-.48-.48 0-.8.336-.8.912v9.764c0 .4.256.64.592.64.352 0 .592-.24.592-.64v-8.66h.032l5.506 8.756c.208.32.464.544.833.544.528 0 .816-.416.816-.848V7.903c.001-.4-.223-.655-.575-.655zm-10.74 0c-.352 0-.624.256-.624.656v10.02c0 .4.256.64.608.64s.624-.24.624-.64V7.904c.001-.401-.255-.656-.608-.656zm-7.694-.064c-.608 0-1.569.048-2.209.208-.416.112-.576.4-.576.784v9.476c0 .384.144.704.704.8.512.096 1.153.176 2.241.176 3.537 0 5.074-2.545 5.074-5.714 0-3.313-1.553-5.73-5.234-5.73zm.192 10.259c-.656 0-1.232-.016-1.745-.096V8.463a12.7 12.7 0 0 1 1.569-.096c2.865 0 3.97 1.873 3.97 4.434-.001 2.786-1.121 4.642-3.794 4.642zM92.602 8.72c-.624-1.249-1.12-1.617-1.681-1.617-.56 0-1.056.368-1.681 1.617-.896 1.809-1.584 4.082-2.753 8.708-.064.224-.096.4-.096.512 0 .384.256.624.608.624.288 0 .496-.176.576-.512.304-1.376.608-2.609.913-3.666h4.866c.288 1.057.592 2.289.913 3.666.08.336.288.512.576.512.352 0 .608-.24.608-.624 0-.112-.048-.288-.096-.512-1.137-4.626-1.857-6.899-2.753-8.708zm-3.794 4.546c.736-2.449 1.393-3.97 1.905-4.77.048-.064.096-.128.208-.128.112 0 .16.064.208.128.512.8 1.152 2.321 1.889 4.77h-4.21zm14.77 3.777c-.096 0-.224.016-.368.064-.448.192-.928.336-1.697.336-2.369 0-3.809-1.648-3.809-4.514 0-2.721 1.312-4.546 3.569-4.546.448 0 1.056.048 1.584.256.208.08.384.144.576.144.32 0 .561-.24.561-.592 0-.224-.144-.448-.448-.576-.641-.288-1.441-.432-2.145-.432-2.801 0-4.962 2-4.962 5.89 0 3.666 2.097 5.554 4.994 5.554.752 0 1.36-.096 2.064-.368.368-.144.608-.336.608-.656.001-.304-.207-.56-.527-.56zm8.144.241h-4.77v-3.858h3.874c.384 0 .592-.32.592-.592a.567.567 0 0 0-.592-.576h-3.874V8.529h4.61c.416 0 .64-.272.64-.576 0-.336-.224-.64-.64-.64h-4.786c-.688 0-1.057.368-1.057.96v9.268c0 .592.368.96 1.057.96h4.946c.384 0 .608-.336.608-.608 0-.337-.224-.609-.608-.609zm-45.328 0h-4.77v-3.858h3.874c.384 0 .592-.32.592-.592a.567.567 0 0 0-.592-.576h-3.874V8.529h4.61c.417 0 .64-.272.64-.576 0-.336-.224-.64-.64-.64h-4.786c-.688 0-1.057.368-1.057.96v9.268c0 .592.368.96 1.057.96h4.946c.384 0 .608-.336.608-.608 0-.337-.224-.609-.608-.609zm17.184-2.898a3.527 3.527 0 0 0-.977-.976c1.425-.497 2.353-1.489 2.353-3.009 0-1.937-1.312-3.217-4.209-3.217-1.104 0-1.857.112-2.369.272-.4.128-.512.368-.512.768v9.7c0 .4.272.64.625.64.352 0 .624-.24.624-.64v-4.178h1.249c1.168 0 1.633.48 2.209 1.409.4.64.816 1.568 1.312 2.961.096.256.272.448.608.448.336 0 .625-.24.625-.624a1.25 1.25 0 0 0-.096-.432c-.434-1.153-.946-2.353-1.442-3.122zm-3.025-1.856h-1.44V8.496c.448-.064.88-.128 1.569-.128 2.289 0 3.009.896 3.009 2.081-.001 1.649-1.553 2.129-3.138 2.081zM58.539 7.312h-6.851c-.352 0-.592.304-.592.608s.192.592.592.592h2.753v9.412c0 .4.272.64.624.64.336 0 .608-.24.608-.64V8.512h2.865c.368 0 .576-.304.576-.592.001-.32-.223-.608-.575-.608zm15.903 7.074a3.527 3.527 0 0 0-.977-.976c1.425-.497 2.353-1.489 2.353-3.009 0-1.937-1.312-3.217-4.209-3.217-1.104 0-1.857.112-2.369.272-.4.128-.512.368-.512.768v9.7c0 .4.272.64.624.64.353 0 .625-.24.625-.64v-4.178h1.249c1.168 0 1.633.48 2.209 1.409.4.64.816 1.568 1.312 2.961.096.256.272.448.608.448.336 0 .625-.24.625-.624a1.25 1.25 0 0 0-.096-.432c-.434-1.153-.946-2.353-1.442-3.122zm-3.025-1.856h-1.44V8.496c.448-.064.88-.128 1.569-.128 2.289 0 3.009.896 3.009 2.081-.001 1.649-1.554 2.129-3.138 2.081zm0 0" class="Shape"/>
    <path fill="#808285" stroke-width=".5" d="M243.665 85.489l-35.828-12.668-28.468 16.813-6.811 3.405-.698-.105-.062-.021-2.094-.274h-.148l-1.82-.169-.338-.021-1.798-.106-2.136.021-1.459.104-1.819.275h-.021l-.825.232-.423.169c1.917 1.564 5.76 3.179 11.526 4.843l22.08 10.215 23.963 6.705 23.944 10.915 12.626 3.617-.529 3.49-4.632 2.326-13.853-3.976-24.979-3.299-18.21 9.094-.401.423-8.989-2.581.528-3.49.443.127 15.122-7.995-33.056-9.475-4.02 1.988.529-3.49 4.019-1.988-1.798.571-49.406-14.17 9.667-.275-2.454-3.087.528-3.49 3.808.063c1.084-3.793 3.165-7.692 6.238-11.696 4.019-5.23 9.462-10.229 16.329-14.995 18.26-12.676 44.937-22.68 80.032-30.012l80.835 16.771-48.179 26.459-16.963 8.757" class="walkway"/>
    <path fill="#989898" stroke-width=".5" d="M326.425 41.497l-25.74 12.88-103.761-29.758 1.333-8.714 25.739-12.88 103.762 29.758-1.333 8.714m-95.661 17.618l14.234-7.128 31.259 8.968-1.311 8.714-14.234 7.106-31.28-8.968 1.332-8.692m-1.481 12.14l-1.332 8.714-18.697 9.37 34.475 9.877-.867 5.71 31.831 9.137-1.312 8.714-21.171 10.596-3.723-1.079-.486 3.172-23.52 11.781-34.75-9.962 1.058-6.958-9.222 4.611-64.865-18.591 1.333-8.713 16.031-8.016 27.031 7.741 3.997-1.988L202.91 116.2l-1.058 6.958 7.741-3.87 9.729 1.29-4.23-1.924-23.815-6.641-22.228-10.279-3.151-.973-.085-.042-5.182-1.988-1.798-.952-.974-.634-.804-.677-.189-.19-.317-.402-.19-.38-.062-.233-.042-.127v-.359l1.333-8.693v.063c.042-.55.451-1.022 1.227-1.417 1.594-.79 4.202-1.121 7.826-.994l-1.988-.571 1.333-8.693 27.113-13.578 36.184 10.361m-110.91 9.031l.042.084 9.095 11.378-1.333 8.714-15.566 1.861-22.525-6.47 1.312-8.714 19.289-9.644 9.686 2.791" class="wall"/>
    <path id="unit-3001" fill="#fff" stroke="#ddd" stroke-width=".5" d="M173.277 84.707l-5.436-.592c-3.877-.225-6.627.062-8.249.867-1.62.818-1.592 1.896.086 3.236 1.89 1.522 5.619 3.081 11.188 4.674l14.424 6.662 21.276-10.66-26.226-7.508-6.747 3.363-.316-.042" class="unit"/>
    <path id="unit-3002" fill="#fff" stroke="#ddd" stroke-width=".5" d="M228.014 71.255l-34.537-9.898-26.311 13.155 34.538 9.919 26.31-13.176" class="unit"/>
    <path id="unit-3003" fill="#fff" stroke="#ddd" stroke-width=".5" d="M245.356 52.453l-13.408 6.704 29.632 8.503 13.407-6.726-29.631-8.481" class="unit"/>
    <path id="unit-3004" fill="#fff" stroke="#ddd" stroke-width=".5" d="M301.553 45.241l24.957-12.48-102.114-29.27-24.957 12.478 102.114 29.272" class="unit"/>
    <path id="unit-3005" fill="#fff" stroke="#ddd" stroke-width=".5" d="M253.056 124.236l20.388-10.195-37.731-10.808-15.841 7.932 21.107 9.623 12.077 3.448" class="unit"/>
    <path id="unit-3006" fill="#fff" stroke="#ddd" stroke-width=".5" d="M219.174 110.848l23.286-11.654-35.088-10.067-21.426 10.723 7.15 3.32 23.794 6.642 2.284 1.036" class="unit"/>
    <path id="unit-3007" fill="#fff" stroke="#ddd" stroke-width=".5" d="M210.122 119.667l-17.893 8.968 33.099 9.475 22.715-11.357-13.347-3.829-24.574-3.257" class="unit"/>
    <path id="unit-3008" fill="#fff" stroke="#ddd" stroke-width=".5" d="M183.917 111.102l-19.247 9.623 17.724 5.097 19.246-9.645-17.723-5.075" class="unit"/>
    <path id="unit-3009" fill="#fff" stroke="#ddd" stroke-width=".5" d="M109.066 77.939l-18.463 9.263 21.149 6.092 14.678-1.756-8.862-11.125-8.502-2.474" class="unit"/>
    <path id="unit-3010" fill="#fff" stroke="#ddd" stroke-width=".5" d="M160.63 107.569l-26.184-7.507-15.227 7.634 26.162 7.509 15.249-7.636" class="unit"/>
    <path id="unit-3011" fill="#fff" stroke="#ddd" stroke-width=".5" d="M163.761 120.471l19.246-9.624-17.533-5.034a7654.57 7654.57 0 0 1-19.225 9.623l17.512 5.035" class="unit"/>
  </g>
  <g transform="translate(0,200)">
    <path fill="none" stroke-width=".5" d="M325.1 141l2.7-1.4h.1L411.3 98l1.8-11.8L220.6 31l-.9.4-148 74-1.2.6-.4 2.5-2.9-.8-.9.4c-7.9 4-15.9 8-23.9 11.9l-1.2.6-1.8 11.8 78.6 22.5-8.4 4.2-1.8 11.8 54.1 15.5 13.2-6.6-1.5 9.8 54.9 15.7 21.4-10.7-1.2 8.2 43.9 12.6-30.4 15.2-1.8 11.8 86.1 24.7 42.3-21.2v-.1l10.9-5.4 1-6.8-10.2-2.9 14.5-7.3 1-6.3-24.1-14.8-4.9-1.3 13.8-6.9 1.8-11.8-78.9-22.6-7.1 3.6.4-3-3.1-.9.3-2.3-7.2-2.1 28.1-14zm-33 35.7l-3.2-.9 3.6-1.8-.4 2.7zm0 0" class="shadow"/>
    <path fill="#f68b1f" stroke-width=".5" d="M325.1 111l2.7-1.4h.1L411.3 68l1.8-11.8L220.6 1l-.9.4-148 74-1.2.6-.4 2.5-2.9-.8-.9.4c-7.9 4-15.9 8-23.9 11.9l-1.2.6-1.8 11.8 78.6 22.5-8.4 4.2-1.8 11.8 54.1 15.5 13.2-6.6-1.5 9.9 54.9 15.7 21.4-10.7-1.2 8.2 43.9 12.6-30.4 15.2-1.8 11.8 86.1 24.7 42.3-21.2v-.1l10.9-5.4 1-6.8-10.2-2.9 14.5-7.3 1-6.3-5.5-3-.1-8.1-13-3.2-3.6 1.4-2.1-1.8-4.7-1.5 13.8-6.9 1.8-11.8-78.9-22.6-7.1 3.6.4-3-3.1-.9.3-2.3-7.2-2.1 28.1-14zm-33 35.7l-3.2-.9 3.6-1.8-.4 2.7zm0 0" class="outline"/>
    <path fill="#f68b1f" stroke-width=".5" d="M23.4 21.9c-1 0-1.8.1-2.3.3-.4.1-.5.4-.5.8v9.7c0 .4.3.6.6.6s.6-.2.6-.6V29h1.5c2.9 0 4.4-1.4 4.4-3.7 0-2-1.3-3.4-4.3-3.4zm-.1 6h-1.4v-4.7c.4-.1 1-.1 1.5-.1 2.3 0 3.1 1.1 3.1 2.4 0 1.2-.7 2.4-3.2 2.4zm81-6c-.6 0-1.6 0-2.2.2-.4.1-.6.4-.6.8v9.5c0 .4.1.7.7.8.5.1 1.2.2 2.2.2 3.5 0 5.1-2.5 5.1-5.7 0-3.4-1.5-5.8-5.2-5.8zm.2 10.2c-.7 0-1.2 0-1.7-.1v-8.9c.5-.1 1.1-.1 1.6-.1 2.9 0 4 1.9 4 4.4-.1 2.9-1.3 4.7-3.9 4.7zM8.9 21.9c-.4 0-.6.3-.6.7v8.8c-.8.5-2 .8-2.7.8-1.9 0-3-.9-3-3v-6.5c0-.4-.3-.7-.6-.7s-.6.3-.6.7v6.8c0 2.3 1.5 3.9 4 3.9 1.8 0 2.8-.5 3.8-1 .4-.2.4-.5.4-.9v-8.9c-.1-.4-.4-.7-.7-.7zm64.9 0c-2.9 0-4.7 2.3-4.7 5.9 0 3.4 1.8 5.5 4.7 5.5 2.9 0 4.7-2.4 4.7-6 0-3.4-1.8-5.4-4.7-5.4zm0 10.2c-2.1 0-3.4-1.7-3.4-4.3 0-3 1.2-4.8 3.4-4.8s3.4 1.7 3.4 4.2c0 3-1.2 4.9-3.4 4.9zM14.6 21.9c-1 0-1.8.1-2.3.3-.4.1-.5.4-.5.8v9.7c0 .4.3.6.6.6s.6-.3.6-.7V29h1.5c2.9 0 4.4-1.4 4.4-3.7 0-2-1.3-3.4-4.3-3.4zm-.2 6H13v-4.7c.4-.1 1-.1 1.5-.1 2.3 0 3.1 1.1 3.1 2.4 0 1.2-.7 2.4-3.2 2.4zm21 4.1h-4.8v-3.9h3.9c.4 0 .6-.3.6-.6s-.2-.6-.6-.6h-3.9v-3.7h4.6c.4 0 .6-.3.6-.6s-.2-.6-.6-.6h-4.8c-.7 0-1.1.4-1.1 1v9.3c0 .6.4 1 1.1 1h4.9c.4 0 .6-.3.6-.6.2-.5-.1-.7-.5-.7zm30.8-2.9c-.3-.4-.6-.7-1-1 1.4-.5 2.4-1.5 2.4-3 0-1.9-1.3-3.2-4.2-3.2-1.1 0-1.9.1-2.4.3-.4.1-.5.4-.5.8v9.7c0 .4.3.6.6.6.4 0 .6-.2.6-.6v-4.2H63c1.2 0 1.6.5 2.2 1.4.4.6.8 1.6 1.3 3 .1.3.3.4.6.4s.6-.2.6-.6c0-.1 0-.3-.1-.4-.4-1.3-.9-2.5-1.4-3.2zm-3-1.9h-1.4v-4c.4-.1.9-.1 1.6-.1 2.3 0 3 .9 3 2.1-.1 1.6-1.6 2-3.2 2zm24.7-5.3c-.4 0-.6.3-.6.7v8.8c-.8.5-2 .8-2.7.8-1.9 0-3-.9-3-3v-6.5c0-.4-.3-.7-.6-.7s-.6.3-.6.7v6.8c0 2.3 1.5 3.9 4 3.9 1.8 0 2.8-.5 3.8-1 .4-.2.4-.5.4-.9v-8.9c-.1-.4-.4-.7-.7-.7zm10.7 0c-.4 0-.6.3-.6.7v8.6l-5.6-8.7c-.2-.3-.5-.5-.8-.5-.5 0-.8.3-.8.9v9.8c0 .4.3.6.6.6.4 0 .6-.2.6-.6V24l5.5 8.8c.2.3.5.5.8.5.5 0 .8-.4.8-.8v-9.8c.1-.5-.2-.8-.5-.8zm-55.1 7.2c-.3-.4-.6-.7-1-1 1.4-.5 2.4-1.5 2.4-3 0-1.9-1.3-3.2-4.2-3.2-1.1 0-1.9.1-2.4.3-.4.1-.5.4-.5.8v9.7c0 .4.3.6.6.6.4 0 .6-.2.6-.6v-4.2h1.2c1.2 0 1.6.5 2.2 1.4.4.6.8 1.6 1.3 3 .1.3.3.4.6.4s.7-.3.7-.7c0-.1 0-.3-.1-.4-.4-1.2-.9-2.4-1.4-3.1zm-3-1.9H39v-4c.4-.1.9-.1 1.6-.1 2.3 0 3 .9 3 2.1 0 1.6-1.5 2-3.1 2zm17-.3h-3c-.4 0-.6.3-.6.6s.2.6.6.6H57v3.6c-.6.2-1.2.4-2.2.4-2.2 0-3.6-1.5-3.6-4.4 0-3.2 1.5-4.6 3.7-4.6.8 0 1.4.1 2.1.4.2.1.4.2.6.2.3 0 .6-.2.6-.6 0-.3-.1-.4-.4-.6-.6-.3-1.6-.6-2.7-.6-2.8 0-5.1 2-5.1 5.9 0 3.5 2 5.5 4.9 5.5 1.3 0 2.2-.3 2.8-.6.3-.1.5-.4.5-.8v-4.3c0-.4-.2-.7-.7-.7zm0 0" class="Shape"/>
    <path fill="#808285" stroke-width=".5" d="M404.3 188.7l-5.2-2.9v-8l-11.3-2.7-3.6 1.4-2.2-1.5-112.7-32.3-10-2.5-31.1-8.9-31.2-13.4c-5.8-2.5-9.1-4-10-4.5l-3-1.7.6-.3h.1l1.9-.4 1.8-.1h2.3l2.1.1h.1l3 .3h.1l.9.1 4.9-2.5 99 28.4 3.6-1.8.5-3.3-100.7-28.8 9-4.5 36.6-10.7 73.9 21.2 5.1-2.5.5-3.3-69.1-19.8 9.8-4.9L284.5 66l.5-3.3-29.6-8.5L174 95l-15.7 1.4-12.7 7L74 82.9l-5.7 2.8-.5 3.3 78.5 22.5 6.9 7.5 97.9 28.1 4.2 8.7L356 184.7l10.3 8.1-15.6 7.8-.5 3.3 37.1 10.6 11.1-5.6.5-3.3-14.3-4.1 19.2-9.6.5-3.2zm0 0" class="walkway"/>
    <path fill="#989898" stroke-width=".5" d="M376.2 168.5l12.2-6.1 1.3-8.3-75.8-21.7-18.5 9.3-1.3 8.3 50.7 14.6 6.3-3.2 25.1 7.1zm-8.3 26.2l1.3-8.3-12.8-10.1-82.6-23.7-20.8 10.3-1.2 8.3 48.1 13.8-35 17.5-1.3 8.3 83 23.8 40.1-20.1 1.3-8.3-27.4-7.9 7.3-3.6zm10.5-16v11.7l11.6 3 9.1-3.6v-11.9l-11.3-2.7-9.4 3.5zM220.9 3.7c-49.3 24.7-98.6 49.4-148 74l-.6 4-4.7-1.4c-8 4-15.9 8-23.9 11.9l-1.3 8.3 82.8 23.7-13.1 6.6-1.2 8.3 51 14.6 20.4-10.2 4.9 1.4-9.3 4.7-1.2 8.3 51.8 14.8 31.3-15.6 1.3-8.3-5.2-1.5-3.4-5.1 5.1 1.2 13-.3 11.4 3.3 18.3-9.2 1.3-8.3-11.3-3.2 32.9-16.5.6-3.6 4.1 1.2 81.3-40.7 1.2-8.3L220.9 3.7zm48.6 66.6l-14.4 7.2-.6 3.6-4.9-1.4-36.8 10.8-13.6 6.8-.7 4.7-1.8.9-5.9-.5c-3.4-.1-5.8.2-7.2.8-1.2.6-1.8 1.1-1.8 1.7v-.1l-1.3 8.3v.4l.2.4.3.3.4.4.8.5 3 1.6 19.2 8.4-50.9-14.6-5.5-6.1 4.9-2.7-.8 5.2 20.7 5.9c2.4-1.2 4.8-2.4 7.3-3.6l1.2-8.3-9.6-2.8.7-.1.2-.1L236.4 66l-1 7.1 9.7 2.8 7-3.4 1.1-8.2-8.7-2.2 9.3-4.7 22.7 6.5-7 6.4zm0 0" class="wall"/>
    <path id="unit-2001" fill="#fff" stroke="#ddd" stroke-width=".5" d="M284 57.8l-4.4 3.8 26.2 7.5 6.5-3.2-28.3-8.1zm0 0" class="unit"/>
    <path id="unit-2002" fill="#fff" stroke="#ddd" stroke-width=".5" d="M262.2 74.1l-6.7 3.4 72.2 20.7 6.7-3.4-72.2-20.7zm0 0" class="unit"/>
    <path id="unit-2003" fill="#fff" stroke="#ddd" stroke-width=".5" d="M212.1 90.9l-12.5 6.3 82.8 23.7 12.5-6.3-82.8-23.7zm0 0" class="unit"/>
    <path id="unit-2004" fill="#fff" stroke="#ddd" stroke-width=".5" d="M231.2 85.2l-9.1 2.7 80.3 23 6.7-3.4-77.9-22.3zm0 0" class="unit"/>
    <path id="unit-2005" fill="#fff" stroke="#ddd" stroke-width=".5" d="M221.5 88.1l-8.7 2.6-.3.1 82.8 23.7c2.2-1.1 4.5-2.2 6.7-3.4l-80.5-23zm0 0" class="unit"/>
    <path id="unit-2006" fill="#fff" stroke="#ddd" stroke-width=".5" d="M313.5 132.8l-17.8 8.9 24.2 6.9 17.8-8.9-24.2-6.9zm0 0" class="unit"/>
    <path id="unit-2007" fill="#fff" stroke="#ddd" stroke-width=".5" d="M269.3 70.6l-6.7 3.4 72.2 20.7 6.7-3.4-72.2-20.7zm0 0" class="unit"/>
    <path id="unit-2008" fill="#fff" stroke="#ddd" stroke-width=".5" d="M313.1 66.1l-6.9 3.4-26.9-7.7-9.7 8.5L341.9 91l21.2-10.6-50-14.3zm0 0" class="unit"/>
    <path id="unit-2009" fill="#fff" stroke="#ddd" stroke-width=".5" d="M338.6 140l-17.8 8.9 24.2 6.9 17.8-8.9-24.2-6.9zm0 0" class="unit"/>
    <path id="unit-2010" fill="#fff" stroke="#ddd" stroke-width=".5" d="M363.6 147.1l-11.4 5.7 24.2 6.9 11.4-5.7-24.2-6.9zm0 0" class="unit"/>
    <path id="unit-2011" fill="#fff" stroke="#ddd" stroke-width=".5" d="M304.5 182.8l-39.3 19.7 81.4 23.3 39.3-19.7-81.4-23.3zm0 0" class="unit"/>
    <path id="unit-2012" fill="#fff" stroke="#ddd" stroke-width=".5" d="M273.3 152.9l-19.9 10 29.5 8.5 19.9-10-29.5-8.5zm0 0" class="unit"/>
    <path id="unit-2014" fill="#fff" stroke="#ddd" stroke-width=".5" d="M220.5 4.1l-44.7 22.4 187.7 53.8 44.7-22.4L220.5 4.1zm0 0" class="unit"/>
    <path id="unit-2015" fill="#fff" stroke="#ddd" stroke-width=".5" d="M175.4 26.7l-12.8 6.4 78.1 22.4 12.8-6.4-78.1-22.4zm0 0" class="unit"/>
    <path id="unit-2016" fill="#fff" stroke="#ddd" stroke-width=".5" d="M162.2 33.3l-13.1 6.6 78.1 22.4 13.1-6.6-78.1-22.4zm0 0" class="unit"/>
    <path id="unit-2017" fill="#fff" stroke="#ddd" stroke-width=".5" d="M148.8 40l-13.9 7L213 69.4l13.9-6.9L148.8 40zm0 0" class="unit"/>
    <path id="unit-2018" fill="#fff" stroke="#ddd" stroke-width=".5" d="M115.5 56.7l-6.7 3.4 78.1 22.4 6.7-3.4-78.1-22.4zm0 0" class="unit"/>
    <path id="unit-2019" fill="#fff" stroke="#ddd" stroke-width=".5" d="M160.3 95.6l-6.5 3.2 19.1 5.5c2.2-1.1 4.3-2.1 6.5-3.2l-19.1-5.5zm0 0" class="unit"/>
    <path id="unit-2020" fill="#fff" stroke="#ddd" stroke-width=".5" d="M201.2 100.7l-4.8 2.4h-.3l-5.1-.5c-3.6-.2-6.1.1-7.6.7-1.6.7-2.1 1.5-1.5 2.3.3.5 1.4 1.2 3.3 2.2l.7.4c.6.4 3.8 1.8 9.6 4.3l17-8.5-11.3-3.3zm0 0" class="unit"/>
    <path id="unit-2021" fill="#fff" stroke="#ddd" stroke-width=".5" d="M101.4 63.7l-6.8 3.4 78.1 22.4 6.8-3.4-78.1-22.4zm0 0" class="unit"/>
    <path id="unit-2022" fill="#fff" stroke="#ddd" stroke-width=".5" d="M108.4 60.2l-6.6 3.3 78.1 22.4 6.6-3.3-78.1-22.4zm0 0" class="unit"/>
    <path id="unit-2023" fill="#fff" stroke="#ddd" stroke-width=".5" d="M87.2 70.8l-6.7 3.4 70.3 20.2 5.8-3.2 1.1-.1-70.5-20.3zm0 0" class="unit"/>
    <path id="unit-2024" fill="#fff" stroke="#ddd" stroke-width=".5" d="M80.1 74.4l-6.8 3.4L144 98.1l6.4-3.5-70.3-20.2zm0 0" class="unit"/>
    <path id="unit-2025" fill="#fff" stroke="#ddd" stroke-width=".5" d="M145.7 114.3l24.3 7 6.9-3.5-24.3-7-6.9 3.5" class="unit"/>
    <path id="unit-2026" fill="#fff" stroke="#ddd" stroke-width=".5" d="M145.2 103.2l-78-22.4-23.1 11.6 91.7 26.3 16.2-8.1-6.8-7.4zm0 0" class="unit"/>
    <path id="unit-2027" fill="#fff" stroke="#ddd" stroke-width=".5" d="M177.7 118l-7.3 3.7-25.1-7.2-32.8 16.4 49.4 14.2L202 125l-24.3-7zm0 0" class="unit"/>
    <path id="unit-2028" fill="#fff" stroke="#ddd" stroke-width=".5" d="M202.8 125.3l-19.7 9.9 14.6 4.2 19.7-9.9-14.6-4.2zm0 0" class="unit"/>
    <path id="unit-2029" fill="#fff" stroke="#ddd" stroke-width=".5" d="M94.2 67.3l-6.7 3.4 71 20.3 13.9-1.3-78.2-22.4zm0 0" class="unit"/>
    <path id="unit-2030" fill="#fff" stroke="#ddd" stroke-width=".5" d="M134.5 47.1L123 52.9l78.1 22.4 11.4-5.7-78-22.5zm0 0" class="unit"/>
    <path id="unit-2031" fill="#fff" stroke="#ddd" stroke-width=".5" d="M213.4 104.2l-17.1 8.6 10.3 4.4 19-9.5-12.2-3.5zm0 0" class="unit"/>
    <path id="unit-2032" fill="#fff" stroke="#ddd" stroke-width=".5" d="M239.7 111.7l-21.2 10.6 8.6 3.7 1.9.5 22.7-11.4-12-3.4zm0 0" class="unit"/>
    <path id="unit-2033" fill="#fff" stroke="#ddd" stroke-width=".5" d="M218.2 129.7l-19.7 9.9 14.7 4.2 19.7-9.9-14.7-4.2zm0 0" class="unit"/>
    <path id="unit-2034" fill="#fff" stroke="#ddd" stroke-width=".5" d="M255.8 147.5l-5.9-8.7-28.6 16-34.1-9.6-9 4.5 50.3 14.4 31.3-15.2-4-1.4zm0 0" class="unit"/>
    <path id="unit-2035" fill="#fff" stroke="#ddd" stroke-width=".5" d="M226.3 107.9l-19.2 9.6 10.6 4.6 21.1-10.6-12.5-3.6zm0 0" class="unit"/>
    <path id="unit-2036" fill="#fff" stroke="#ddd" stroke-width=".5" d="M252.4 115.4l-22.7 11.4 12.3 3.5 22.8-11.4-12.4-3.5zm0 0" class="unit"/>
    <path id="unit-2037" fill="#fff" stroke="#ddd" stroke-width=".5" d="M233.8 133.9l-20.7 10.3-15.4-4.4-10 5 33.7 9.3 27.9-15.5-15.5-4.7zm0 0" class="unit"/>
    <path id="unit-2038" fill="#fff" stroke="#ddd" stroke-width=".5" d="M122.7 53.1l-6.8 3.4L194 78.9l6.8-3.4-78.1-22.4zm0 0" class="unit"/>
    <path id="unit-2039" fill="#fff" stroke="#ddd" stroke-width=".5" d="M240.3 82.5l-8.6 2.5 17.4 5 7-2.6-15.8-4.9zm0 0" class="unit"/>
    <path id="unit-2040" fill="#fff" stroke="#ddd" stroke-width=".5" d="M259 122.4l-16.2 8.1 15 4.3 12.7-.5 9.7-5.8-21.2-6.1zm0 0" class="unit"/>
    <path id="unit-2041" fill="#fff" stroke="#ddd" stroke-width=".5" d="M265.6 119.2l-6.2 3.1 21.5 6.3-10 5.9 11 3.2 18.4-8.9-34.7-9.6zm0 0" class="unit"/>
    <path id="unit-2042" fill="#fff" stroke="#ddd" stroke-width=".5" d="M354.9 176.3l-5.6-1.6-19.8 9.9-.2.1 26.2 7.5 11.9-6-12.5-9.9zm0 0" class="unit"/>
    <path id="unit-2043" fill="#fff" stroke="#ddd" stroke-width=".5" d="M325.5 168l-.2-.1-19.9 10 .4.1 22.9 6.3 19.9-9.9-23.1-6.4zm0 0" class="unit"/>
    <path id="unit-2044" fill="#fff" stroke="#ddd" stroke-width=".5" d="M303.6 161.6l-19.9 10 21.2 6.2 19.8-10-21.1-6.2zm0 0" class="unit"/>
    <path id="unit-2045" fill="#fff" stroke="#ddd" stroke-width=".5" d="M249.1 79.9l-8.8 2.6 15.9 5-7 2.6 60.3 17.3 12.8-6.4-73.2-21.1zm0 0" class="unit"/>
    <path id="unit-2046" fill="#fff" stroke="#ddd" stroke-width=".5" d="M388.1 175.1l-9.7 3.6v5.5l12.1 3.2 8.9-3v-6.6l-11.3-2.7zm0 0" class="unit"/>
    <path id="unit-2047" fill="#fff" stroke="#ddd" stroke-width=".5" d="M243.6 61.8l-6.5 3.2 9 2.6 6.5-3.2-9-2.6zm0 0" class="unit"/>
  </g>
  <g transform="translate(23,460)">
    <path fill="#f68b1f" stroke-width=".5" d="M121.3 198.7L87.5 189 76 185.9l-26.2-7.7 2-12.9 49.4-25.2-85.1-24.4 2-12.9L216.6 1.3l219.6 63-2 12.9-93.4 47.8h-.1l-10.4 5.3v.1l-44.9 23h-.1l-3.4 1.7v.1L201 196.5l-48.1-13.8-31.6 16zm0 0" class="outline"/>
    <path fill="#f68b1f" stroke-width=".5" d="M38.9 13.8h-4.8V9.9H38c.4 0 .6-.3.6-.6s-.2-.6-.6-.6h-3.9V5h4.6c.4 0 .6-.3.6-.6s-.2-.6-.6-.6H34c-.7 0-1.1.4-1.1 1V14c0 .6.4 1 1.1 1h4.9c.4 0 .6-.3.6-.6s-.2-.6-.6-.6zM30.4 3.7c-.3 0-.5.3-.6.6-.4 3.1-1 6.1-1.8 9.2-.9-2.8-1.6-6.2-2.3-8.5-.3-1-.6-1.3-1.1-1.3-.4 0-.8.3-1 1.2-.7 2.3-1.6 6-2.4 8.6-.8-3.1-1.2-6.1-1.6-9.2-.1-.4-.3-.6-.7-.6-.4 0-.6.3-.6.6v.4c.4 3.1 1 6.3 1.7 9 .2 1 .6 1.3 1.1 1.3.5 0 .8-.3 1.1-1.1.9-2.5 1.5-5.3 2.4-8.4 1 3.2 1.5 5.9 2.3 8.4.3.9.6 1.1 1.1 1.1.5 0 .8-.3 1-1.1.8-3 1.4-6.1 1.9-9.3v-.4c.1-.2-.1-.5-.5-.5zm-18 0C9.6 3.7 7.7 6 7.7 9.6c0 3.4 1.8 5.5 4.7 5.5 2.9 0 4.7-2.4 4.7-6 0-3.3-1.8-5.4-4.7-5.4zm0 10.2c-2.1 0-3.4-1.7-3.4-4.2 0-3 1.2-4.8 3.4-4.8s3.4 1.7 3.4 4.2c0 3-1.2 4.8-3.4 4.8zm-5.7-.1H2.4V4.4c0-.4-.3-.7-.6-.7-.4 0-.6.3-.6.7V14c0 .6.4 1 1.1 1h4.5c.4 0 .7-.3.7-.6-.1-.3-.4-.6-.8-.6zm95.4-10.1c-.4 0-.6.3-.6.7V13l-5.6-8.7c-.2-.3-.5-.5-.8-.5-.5 0-.8.3-.8.9v9.8c0 .4.3.6.6.6.4 0 .6-.2.6-.6V5.8l5.5 8.8c.2.3.5.5.8.5.5 0 .8-.4.8-.8V4.4c0-.4-.2-.7-.5-.7zM47 10.9c-.3-.4-.6-.7-1-1 1.4-.5 2.4-1.5 2.4-3 0-1.9-1.3-3.2-4.2-3.2-1.1 0-1.9.1-2.4.3-.4.1-.5.4-.5.8v9.7c0 .4.3.6.6.6.4 0 .6-.2.6-.6v-4.3h1.2c1.2 0 1.6.5 2.2 1.4.4.6.8 1.6 1.3 3 .1.3.3.4.6.4s.6-.2.6-.6c0-.1 0-.3-.1-.4-.3-1.1-.8-2.3-1.3-3.1zM43.9 9h-1.4V5c.4-.1.9-.1 1.6-.1 2.3 0 3 .9 3 2.1 0 1.6-1.6 2.1-3.2 2zm47.4-5.3c-.4 0-.6.3-.6.7v8.8c-.8.5-2 .8-2.7.8-1.9 0-3-.9-3-3V4.4c0-.4-.3-.7-.6-.7-.4 0-.6.3-.6.7v6.8c0 2.3 1.5 3.9 4 3.9 1.8 0 2.8-.5 3.8-1 .4-.2.4-.5.4-.9V4.4c0-.4-.3-.7-.7-.7zm16.4 0c-.6 0-1.6 0-2.2.2-.4.1-.5.4-.5.8v9.5c0 .4.1.7.7.8.5.1 1.2.2 2.2.2 3.5 0 5.1-2.5 5.1-5.7 0-3.4-1.6-5.8-5.3-5.8zm.2 10.2c-.7 0-1.2 0-1.7-.1V5c.5-.1 1.1-.1 1.6-.1 2.9 0 4 1.9 4 4.4-.1 2.8-1.2 4.6-3.9 4.6zM77.3 3.7c-2.9 0-4.7 2.3-4.7 5.9 0 3.4 1.8 5.5 4.7 5.5 2.9 0 4.7-2.4 4.7-6 0-3.3-1.8-5.4-4.7-5.4zm0 10.2c-2.1 0-3.4-1.7-3.4-4.3 0-3 1.2-4.8 3.4-4.8s3.4 1.7 3.4 4.2c0 3.1-1.3 4.9-3.4 4.9zM61 8.8h-3c-.4 0-.6.3-.6.6s.2.6.6.6h2.5v3.6c-.6.2-1.2.4-2.2.4-2.2 0-3.6-1.5-3.6-4.4 0-3.2 1.5-4.6 3.7-4.6.8 0 1.4.1 2.1.4.2.1.4.2.6.2.3 0 .6-.2.6-.6 0-.3-.1-.4-.4-.6-.6-.3-1.6-.6-2.7-.6-2.8 0-5.1 2-5.1 5.9 0 3.5 2 5.5 4.9 5.5 1.3 0 2.2-.3 2.8-.6.3-.1.5-.4.5-.8V9.5c0-.5-.3-.7-.7-.7zm8.7 2.1c-.3-.4-.6-.7-1-1 1.4-.5 2.4-1.5 2.4-3 0-1.9-1.3-3.2-4.2-3.2-1.1 0-1.9.1-2.4.3-.4.1-.5.3-.5.7v9.7c0 .4.3.6.6.6.4 0 .6-.2.6-.6v-4.2h1.2c1.2 0 1.6.5 2.2 1.4.4.6.8 1.6 1.3 3 .1.3.3.4.6.4s.6-.2.6-.6c0-.1 0-.3-.1-.4-.3-1.1-.8-2.3-1.3-3.1zm-3-1.9h-1.4V5c.4-.1.9-.1 1.6-.1 2.3 0 3 .9 3 2.1-.1 1.6-1.7 2.1-3.2 2zm0 0M69.5 196.1c-.3.3-.5.6-.8.7-.3.1-.6.1-.9 0-.5-.1-.8-.4-1-.8-.2-.4-.2-.9-.1-1.5l4 1.3c0-.1.1-.2.1-.2.3-.9.3-1.7 0-2.3-.3-.6-.8-1.1-1.5-1.3-.7-.2-1.4-.2-2.1.2-.6.4-1.1 1-1.4 1.9-.3.9-.3 1.6 0 2.3.3.6.9 1.1 1.6 1.3.6.2 1.2.2 1.7 0s.9-.5 1.3-1l-.9-.6zm-1.7-3.4c.4-.2.8-.2 1.2-.1.5.2.8.5 1 .9.1.3.1.7 0 1.1l-3-1c.2-.4.5-.8.8-.9zm13.4 3c-.7-.2-1.3-.1-1.9.2l.9-2.7-.9-.3-2.4 7.5.9.3 1-3c.1-.4.3-.7.5-1 .2-.2.4-.3.7-.4.3-.1.6-.1.8 0 .4.1.6.3.7.6.1.3.1.6 0 1.1l-1.1 3.4.9.3 1.1-3.4c.2-.5.2-1 .2-1.3 0-.3-.2-.6-.4-.9-.2-.1-.6-.3-1-.4zm-16.3-4.4l.9.3.2-.7-.9-.3.6-1.9-1.1.3-.4 1.3-.7-.2-.2.7.7.2-1 3.1c-.2.6-.3.9-.2 1.1 0 .2.1.4.3.5.1.2.4.3.7.4.2.1.4.1.7.1l.1-.9c-.2 0-.3-.1-.4-.1-.1 0-.2-.1-.3-.2-.1-.1-.1-.1-.1-.2s0-.3.1-.5l1-3zm-15.8-8c-.4-.3-.8-.6-1.4-.7-.5-.2-1-.2-1.5-.2s-.9.2-1.2.4c-.3.3-.5.6-.7 1-.1.3-.1.7 0 1 .1.3.3.7.6 1 .2.2.7.5 1.3.9.6.4 1 .7 1.2.8.3.2.5.4.5.7.1.2.1.4 0 .7-.1.2-.2.4-.4.6-.2.1-.5.2-.8.3-.3.1-.7 0-1.1-.2-.4-.1-.8-.3-1.1-.6-.3-.3-.5-.5-.6-.8-.1-.3-.1-.6 0-1l-1-.2c-.1.5-.2 1 0 1.5.1.5.4.9.8 1.2.4.3.9.6 1.6.8.5.2 1 .2 1.5.2.5-.1.9-.2 1.2-.5.3-.3.6-.6.7-1 .1-.4.1-.8 0-1.2-.1-.4-.3-.7-.7-1.1-.3-.2-.8-.6-1.5-1s-1.2-.8-1.3-1c-.1-.2-.2-.5-.1-.8.1-.3.3-.5.7-.7.3-.1.8-.1 1.4.1.6.2 1 .4 1.2.8.2.3.3.8.2 1.2l1 .2c.1-.4.1-.9 0-1.3.1-.4-.1-.8-.5-1.1zm3.9 1.3l-1.1.3-.4 1.3-.7-.2-.2.7.7.2-1 3.1c-.2.6-.3.9-.2 1.1 0 .2.1.4.3.5.1.2.4.3.7.4.2.1.4.1.7.1l.1-.9c-.2 0-.3-.1-.4-.1-.1 0-.2-.1-.3-.2-.1-.1-.1-.1-.1-.2s0-.3.1-.5l1-3.2.9.3.2-.7-.9-.3.6-1.7zm8.9 2.8c-.4-.3-.8-.6-1.4-.7-.5-.2-1-.2-1.5-.2s-.9.2-1.2.4c-.3.3-.5.6-.7 1-.1.3-.1.7 0 1 .1.3.3.7.6 1 .2.2.7.5 1.3.9.6.4 1 .7 1.2.8.3.2.5.4.5.7.1.2.1.4 0 .7-.1.2-.2.4-.4.6-.2.1-.5.2-.8.3-.3 0-.7 0-1.1-.2-.4-.1-.8-.3-1.1-.6-.3-.3-.5-.5-.6-.8-.1-.3-.1-.6 0-1l-1-.2c-.1.5-.2 1 0 1.5.1.5.4.9.8 1.2.4.3.9.6 1.6.9.5.2 1 .2 1.5.2.5-.1.9-.2 1.2-.5.3-.3.6-.6.7-1 .1-.4.1-.8 0-1.2-.1-.4-.3-.7-.7-1.1-.3-.2-.8-.6-1.5-1s-1.2-.8-1.3-1c-.1-.2-.2-.5-.1-.8.1-.3.3-.5.7-.7.3-.1.8-.1 1.4.1.6.2 1 .4 1.2.8.2.3.3.8.2 1.2l1 .2c.1-.4.1-.9 0-1.3s-.1-.8-.5-1.2zm13.4 6.4c-.4-.1-.7-.1-1-.1-.3.1-.6.2-.9.4l.2-.7-.8-.3-2.4 7.5.9.3.9-2.6c.1.2.2.5.4.7.2.2.5.4.8.5.4.1.9.1 1.3 0 .5-.1.9-.4 1.2-.7.3-.4.6-.8.8-1.4.2-.5.2-1 .2-1.5s-.2-.9-.5-1.3-.7-.7-1.1-.8zm.4 3.2c-.2.7-.6 1.2-1 1.5-.4.2-.8.3-1.2.2-.4-.1-.7-.4-.9-.8-.2-.4-.1-1 .1-1.7s.6-1.2 1-1.4c.4-.3.8-.3 1.2-.2.4.1.7.4.9.8.2.4.2.9-.1 1.6zm44.2 11.3c-.7-.2-1.4-.2-2.1.2-.6.4-1.1 1-1.4 1.9-.3.9-.3 1.6 0 2.3.3.6.9 1.1 1.6 1.3.6.2 1.2.2 1.7 0s.9-.5 1.3-1l-.9-.4c-.3.3-.5.6-.8.7-.3.1-.6.1-.9 0-.5-.1-.8-.4-1-.8-.2-.4-.2-.9-.1-1.5l4 1.3c0-.1.1-.2.1-.2.3-.9.3-1.7 0-2.3-.3-.9-.8-1.3-1.5-1.5zm.7 2.8l-3-1c.2-.5.5-.8.8-1 .4-.2.8-.2 1.2-.1.5.2.8.5 1 .9.1.3.1.7 0 1.2zm-3.6-3.4c-.3-.3-.5-.5-.8-.6-.2-.1-.4-.1-.7 0-.2.1-.5.3-.8.6l.3-.8-.8-.3-1.8 5.4.9.3.9-2.8c.1-.4.3-.7.5-1 .1-.2.3-.3.5-.4.2-.1.4-.1.6 0 .2.1.4.2.6.4l.6-.8zm-30.3-10.2c-.7-.2-1.4-.2-2.1.2-.6.4-1.1 1-1.4 1.9-.3.9-.3 1.6 0 2.3.3.6.9 1.1 1.6 1.3.6.2 1.2.2 1.7 0s.9-.5 1.3-1l-.9-.4c-.3.3-.5.6-.8.7-.3.1-.6.1-1 0-.5-.1-.8-.4-1-.8-.2-.4-.2-.9-.1-1.5l4 1.3c0-.1.1-.2.1-.2.3-.9.3-1.7 0-2.3-.1-.8-.6-1.3-1.4-1.5zm.8 2.8l-3-1c.2-.5.5-.8.8-1 .3-.2.8-.2 1.2-.1.5.2.8.5 1 .9.1.3.1.7 0 1.2zm42.8 11.5l.6-1.9-1.1.3-.4 1.3-.7-.2-.2.7.7.2-1 3.1c-.2.6-.3.9-.2 1.1 0 .2.1.4.3.5.2.2.4.3.7.4.2.1.4.1.7.1l.1-.9c-.2 0-.3-.1-.4-.1-.1 0-.2-.1-.3-.2-.1-.1-.1-.1-.1-.2s0-.3.1-.5l1-3.2.9.3.2-.7-.9-.1zm-4.6-1.7c-.7-.2-1.4-.2-2.1.2-.6.4-1.1 1-1.4 1.9-.3.9-.3 1.6 0 2.3.3.6.9 1.1 1.6 1.3.6.2 1.2.2 1.7 0s.9-.5 1.3-1l-.9-.4c-.3.3-.5.6-.8.7-.3.1-.6.1-1 0-.5-.1-.8-.4-1-.8-.2-.4-.2-.9-.1-1.5l4 1.3c0-.1.1-.2.1-.2.3-.9.3-1.7 0-2.3-.2-.8-.7-1.2-1.4-1.5zm.7 2.8l-3-1c.2-.5.5-.8.8-1 .4-.2.8-.2 1.2-.1.5.2.8.5 1 .9.1.4.1.8 0 1.2zm-14.3-6.3l.9.3.2-.7-.9-.3.6-1.9-1.1.3-.4 1.3-.7-.2-.2.7.7.2-1 3.1c-.2.6-.3.9-.2 1.1 0 .2.1.4.3.5.1.2.4.3.7.4.2.1.4.1.7.1l.1-.9c-.2 0-.3-.1-.4-.1-.1 0-.2-.1-.3-.2-.1-.1-.1-.1-.1-.2s0-.3.1-.5l1-3zM93.7 200c-.2-.2-.5-.4-.8-.5-.8-.2-1.4-.1-2 .3l.3-.8-.8-.3-1.8 5.4.9.3 1-3c.2-.7.5-1.1.9-1.3.4-.2.7-.2 1.1 0 .2.1.4.2.6.4.1.2.2.4.2.6 0 .2 0 .5-.2.9l-1.1 3.3.9.3 1.1-3.3c.1-.4.2-.7.2-.9 0-.3 0-.5-.1-.8-.1-.3-.1-.4-.4-.6zm5.3 1.7c-.3-.2-.6-.4-1.1-.5-.3-.1-.6-.1-.8-.1-.3 0-.5 0-.7.1-.2.1-.4.2-.6.4-.2.2-.3.4-.4.6-.1.3-.1.5 0 .8.1.3.2.5.4.7.2.2.6.5 1.3.9.5.3.7.5.8.6.1.2.2.4.1.6-.1.2-.2.4-.5.5-.3.1-.6.1-1 0s-.7-.3-.9-.6c-.2-.3-.2-.6-.2-1l-1-.2c-.1.6 0 1.1.3 1.5.3.4.8.7 1.5 1 .4.1.8.2 1.2.1.4 0 .7-.2 1-.4.3-.2.4-.5.5-.8.1-.3.1-.6 0-.9-.1-.3-.2-.5-.4-.7-.2-.2-.6-.5-1.2-.9-.4-.3-.7-.4-.7-.5-.1-.1-.2-.2-.3-.4v-.4c.1-.2.2-.3.4-.4.2-.1.6-.1 1 .1.4.1.6.3.8.5.1.2.2.5.1.8l.9.2c.1-.4 0-.7 0-.9-.1-.3-.2-.5-.5-.7zm10 1c-.4-.3-.8-.6-1.4-.7-.5-.2-1-.2-1.5-.2s-.9.2-1.2.4c-.3.3-.5.6-.7 1-.1.3-.1.7 0 1 .1.3.3.7.6 1 .2.2.7.5 1.3.9.6.4 1 .7 1.2.8.3.2.5.4.5.7.1.2.1.4 0 .7-.1.2-.2.4-.4.6-.2.2-.5.2-.8.3-.3 0-.7 0-1.1-.2-.4-.1-.8-.3-1.1-.6-.3-.3-.5-.5-.6-.8-.1-.3-.1-.6 0-1l-1-.2c-.1.5-.2 1 0 1.5.1.5.4.9.8 1.2.4.3.9.6 1.6.8.5.2 1 .2 1.5.2.5-.1.9-.2 1.3-.5.3-.3.6-.6.7-1 .1-.4.1-.8 0-1.2-.1-.4-.3-.7-.7-1.1-.3-.2-.8-.6-1.5-1s-1.2-.8-1.3-1c-.1-.2-.2-.5-.1-.8.1-.3.3-.5.7-.7.3-.1.8-.1 1.4.1.6.2 1 .4 1.2.8.2.3.3.8.2 1.2l1 .2c.1-.4.1-.9 0-1.3 0-.4-.2-.7-.6-1.1zm0 0" class="Shape"/>
    <path fill="#808285" stroke-width=".5" d="M295.6 72.8l-40.7 20.4 86.3 28.6-13.3 6.8-86.2-28.8-43.2 21.6L286 150l-6.2 3.1-87.4-28.6-20.2 10.1 21.4 9.5-9.4 2-13.6-3.4-8.1 10.7-1.1 1.4c-.8.9-2.3 2.1-4.3 3.4-2.1 1.4-4.5 2.8-7.2 4.3-2.5 1.3-5.2 2.6-8.3 4-2.9 1.3-6 2.5-9.2 3.7-3 1.1-6.4 2.3-10 3.5-3.7 1.2-7.3 2.3-10.8 3.3l-11.6 3.1c-1.2.3-3.1 1.4-5.6 3.2-2.5 1.8-4.5 2.8-6 3.1L77 183.3l-12.7-3.8 9.8-3.2c7.8-2.6 14.5-4.7 20.1-6.5l10.1-3.4c3.6-1.3 6.8-2.5 9.5-3.6 2.9-1.2 5.8-2.5 8.7-4 2.3-1.2 4.3-2.3 6-3.4l1.3-.8 6.7-4.5c2.5-1.8 4.5-3.3 6-4.6 1.5-1.4 2.6-2.6 3.4-3.8.8-1.2 1.2-2.4 1.2-3.6.1-1.1-.2-2.2-.7-3.4-.5-1.1-1.2-2.4-2.3-3.8-1.3-1.7-2.3-3.2-2.9-4.4-.8-1.5-1.3-2.8-1.4-3.9-.1-2.2 1.1-4 3.8-5.4 2.4-1.3 6.1-2.4 11.1-3.2 3.8-.6 8.4-1.2 13.7-1.6l96.3-48.2 30.9 8.6" class="walkway"/>
		<path fill="#989898" stroke-width=".5" d="M217.1 3.8L20.8 104.3l-1.5 9.4 89.1 25.6-53.9 27.6-1.5 9.4 15.8 4.7 3.5-.9c8.8-2.2 16.4-4.4 22.9-6.4l.4-.1 9.4-3.2.5-.2c2.5-.9 4.7-1.8 6.7-2.6l2.1-.9 8.6-4 .2-.1.3-.1c1.8-1 3.7-2.1 5.6-3.3l3.1-2.1 4.6-3.2.2-.1v-.1c2.5-1.8 4.4-3.2 5.6-4.4l.2-.1c1.1-1 2-2.1 2.7-3l-.3 2.1 9.7 2.8 7-3.4 1.1-8.2-9.6-2.4-5.8 2.6 1-6.4v.1l.1-.5v-.6c.1-2.1-1-4.5-3.1-7.2-1.2-1.5-2.1-2.9-2.8-4l.5-.3c.6-.3 1.2-.6 1.9-.9.9-.4 1.9-.7 3.2-1.1l-1 6.4 21.4 6.1 3.4-1.7-1.1 7.3-3.8 5.3v.1l-3.9 5.3-.1.1-1 1.3c-1 1-2.3 2.1-4.2 3.4h-.1c-2 1.3-4.2 2.7-6.8 4.1l-.2.1c-.1 0-.1.1-.2.1-2.1 1.2-4.8 2.5-7.9 3.9l-.3.1c-2.9 1.3-5.9 2.5-8.8 3.6-3.1 1.2-6.3 2.3-9.6 3.4l-.2.1c-3.3 1.1-6.8 2.2-10.4 3.2l-.2.1c-3.5 1-7.2 2-11.4 3.1l-.4.1-.1.5-9.9 2.4v.3L90 177l-1.5 9.4 32.9 9.4 8.1-4.1 7.5-3.8 15.9-8.1 48.1 13.8 78.9-40.3.7-4.4 5 1.4 42.9-21.9 1.5-9.4-89-25.6-26.6 13.4-16.3 8.4-.7 4.3-5-1.4-16.2 8.3 1.4-8.7-1.4.7 1.6-.8-9-2.6 10.9-5.5-1.1 7.3 9.7 2.8 7-3.4.2-1.1 1.2.3 7-3.4.2-1.1 1.2.3 7-3.4.2-1.1 1.2.3 7-3.4.2-1.1 1.2.3 7-3.4 1.1-8.2-9.6-2.4-.7.3 16.6-8.5-1 7 9.7 2.8 7-3.4.2-1.1 1.2.3 7-3.4.1-1.1 1.2.3 7-3.4.2-1.1 1.2.3 7-3.4.4-3 4.2 1.2L254 86.8l-1.5 9.4 89 25.6 91-46.5 1.5-9.4L217.1 3.8zm43.3 64.4l.7-.4-.1.5-.6-.1zm-7.7 4.3l-.5-.1.6-.3-.1.4zm-49 24.7l1.1-.5-.1.8-1-.3zm-7.4 4.4l-.8-.2.9-.5-.1.7zm-8.3 3.6l-.1.6-.7-.2.8-.4zm24.9-12l-1.1-.3 1.2-.6-.1.9zm31.5-16.8v.3l-.4-.1.4-.2z" class="wall"/>
    <path id="unit-1000" fill="#fff" stroke="#ddd" stroke-width=".5" d="M270.7 78.8l87.2 25 23.5-12L309.2 71l-16.4 8.4-15-4.3-7.1 3.7" class="unit"/>
    <path id="unit-1001" fill="#fff" stroke="#ddd" stroke-width=".5" d="M277.9 75l15 4.4 16.3-8.3-15-4.3-16.3 8.2" class="unit"/>
    <path id="unit-1002" fill="#fff" stroke="#ddd" stroke-width=".5" d="M349.6 108l-87.2-25-7.8 4 87.2 25 7.8-4" class="unit"/>
    <path id="unit-1003" fill="#fff" stroke="#ddd" stroke-width=".5" d="M357.4 104l-87.2-25-7.4 3.8 87.2 25 7.4-3.8" class="unit"/>
    <path id="unit-1004" fill="#fff" stroke="#ddd" stroke-width=".5" d="M309.7 128.4l-87.2-25-7.5 3.8 87.2 25 7.5-3.8" class="unit"/>
    <path id="unit-1005" fill="#fff" stroke="#ddd" stroke-width=".5" d="M293.9 136.5l-87.2-25-7.6 3.9 87.2 25 7.6-3.9" class="unit"/>
    <path id="unit-1006" fill="#fff" stroke="#ddd" stroke-width=".5" d="M279.7 143.7l-87.1-25-7.5 3.8 87.1 25 7.5-3.8" class="unit"/>
    <path id="unit-1007" fill="#fff" stroke="#ddd" stroke-width=".5" d="M301.7 132.5l-87.2-25-7.5 3.8 87.2 25 7.5-3.8" class="unit"/>
    <path id="unit-1008" fill="#fff" stroke="#ddd" stroke-width=".5" d="M328.3 118.9l-87.2-25-18.2 9.3 87.2 25 18.2-9.3" class="unit"/>
    <path id="unit-1009" fill="#fff" stroke="#ddd" stroke-width=".5" d="M143.3 110.9L57.1 86.2l-7.7 4 90.4 25.9c-.1-2.1 1.1-3.8 3.5-5.2" class="unit"/>
    <path id="unit-1010" fill="#fff" stroke="#ddd" stroke-width=".5" d="M141.2 120.2c-.8-1.4-1.3-2.7-1.4-3.8L49 90.3l-27.3 13.9 61 17.5 10.9-5.6 53.8 15.5c0-2-1.1-4.3-3.1-7-1.4-1.7-2.4-3.2-3.1-4.4" class="unit"/>
    <path id="unit-1011" fill="#fff" stroke="#ddd" stroke-width=".5" d="M149.8 115.5l19.6 5.6 7.4-3.7-20.4-5.3-6.6 3.4" class="unit"/>
    <path id="unit-1012" fill="#fff" stroke="#ddd" stroke-width=".5" d="M154 107.6L65 82.1 57.4 86l86.1 24.7c2.5-1.3 6-2.3 10.5-3.1" class="unit"/>
    <path id="unit-1013" fill="#fff" stroke="#ddd" stroke-width=".5" d="M192.8 93.3L96.9 65.8l-7.6 3.9 95.9 27.5 7.6-3.9" class="unit"/>
    <path id="unit-1014" fill="#fff" stroke="#ddd" stroke-width=".5" d="M168.9 105.5L73 78l-7.5 3.8 89.2 25.6c3.6-.6 8-1.1 13.3-1.5l.9-.4" class="unit"/>
    <path id="unit-1015" fill="#fff" stroke="#ddd" stroke-width=".5" d="M176.8 101.5L80.9 74l-7.5 3.8 95.8 27.5 7.6-3.8" class="unit"/>
    <path id="unit-1016" fill="#fff" stroke="#ddd" stroke-width=".5" d="M184.8 97.4L88.9 69.9l-7.5 3.8 95.9 27.5 7.5-3.8" class="unit"/>
    <path id="unit-1017" fill="#fff" stroke="#ddd" stroke-width=".5" d="M238.8 69.8l-21.6-6.2-7.8 4 21.6 6.2 7.8-4" class="unit"/>
    <path id="unit-1018" fill="#fff" stroke="#ddd" stroke-width=".5" d="M201.2 71.7l21.6 6.2 7.8-4-21.6-6.2-7.8 4" class="unit"/>
    <path id="unit-1019" fill="#fff" stroke="#ddd" stroke-width=".5" d="M199.9 71.7l16.4-8.4L143 42.2l-37.8 19.4L201 89.1l21.4-10.9-22.5-6.5" class="unit"/>
    <path id="unit-1020" fill="#fff" stroke="#ddd" stroke-width=".5" d="M200.6 89.3l-95.9-27.5-7.4 3.8 95.9 27.5c2.5-1.3 4.9-2.5 7.4-3.8" class="unit"/>
    <path id="unit-1021" fill="#fff" stroke="#ddd" stroke-width=".5" d="M83.6 122l59.7 17.1c1.4-1.3 2.5-2.6 3.1-3.7.7-1.2 1-2.3 1.1-3.5l-53.3-15.3-10.6 5.4" class="unit"/>
    <path id="unit-1022" fill="#fff" stroke="#ddd" stroke-width=".5" d="M113.7 137l23.7 6.8c2.3-1.6 4.1-3.1 5.6-4.4l-21.7-6.2-7.6 3.8" class="unit"/>
    <path id="unit-1023" fill="#fff" stroke="#ddd" stroke-width=".5" d="M97.8 145.2l25.9 7.4c2.2-1.2 4.1-2.3 5.6-3.3l1.1-.7-25.2-7.2c-2.4 1.2-4.9 2.5-7.4 3.8" class="unit"/>
    <path id="unit-1024" fill="#fff" stroke="#ddd" stroke-width=".5" d="M105.2 160.5l-23.9-6.9-7.4 3.8 21.8 6.3c3.4-1.1 6.6-2.2 9.5-3.2" class="unit"/>
    <path id="unit-1025" fill="#fff" stroke="#ddd" stroke-width=".5" d="M123.2 152.8l-25.9-7.4-7.7 3.9 25.4 7.3c3.2-1.3 5.9-2.6 8.2-3.8" class="unit"/>
    <path id="unit-1026" fill="#fff" stroke="#ddd" stroke-width=".5" d="M114.6 156.8l-25.4-7.3-7.5 3.8 24 6.9c3.1-1 6.1-2.2 8.9-3.4" class="unit"/>
    <path id="unit-1027" fill="#fff" stroke="#ddd" stroke-width=".5" d="M105.7 141.1l25.1 7.2 6.3-4.3-23.7-6.8-7.7 3.9" class="unit"/>
    <path id="unit-1028" fill="#fff" stroke="#ddd" stroke-width=".5" d="M102.7 174.3l27 7.8 7.5-3.8-23.7-6.8-10.8 2.8" class="unit"/>
    <path id="unit-1029" fill="#fff" stroke="#ddd" stroke-width=".5" d="M95.2 163.8l-21.7-6.2-18.1 9.3 14.1 4.1c10.3-2.7 18.8-5 25.7-7.2" class="unit"/>
    <path id="unit-1030" fill="#fff" stroke="#ddd" stroke-width=".5" d="M91.1 177.1L122 186l7.3-3.7-27.2-7.8-11 2.6" class="unit"/>
    <path id="unit-1031" fill="#fff" stroke="#ddd" stroke-width=".5" d="M114 171.2l23.6 6.8 7.5-3.8-21-6-10.1 3" class="unit"/>
    <path id="unit-1032" fill="#fff" stroke="#ddd" stroke-width=".5" d="M240.9 163.6l-73.4-21.1-3.6 5 69.4 19.9 7.6-3.8" class="unit"/>
    <path id="unit-1033" fill="#fff" stroke="#ddd" stroke-width=".5" d="M225 171.7l-66.6-19.1c-2 1.4-4.2 2.7-6.7 4l65.8 18.9 7.5-3.8" class="unit"/>
    <path id="unit-1034" fill="#fff" stroke="#ddd" stroke-width=".5" d="M209.2 179.8l-66.1-19c-2.6 1.1-5.4 2.3-8.6 3.6l67.1 19.3 7.6-3.9" class="unit"/>
    <path id="unit-1035" fill="#fff" stroke="#ddd" stroke-width=".5" d="M217.1 175.7l-65.8-18.9c-2.5 1.3-5 2.6-7.7 3.8l66 19 7.5-3.9" class="unit"/>
    <path id="unit-1036" fill="#fff" stroke="#ddd" stroke-width=".5" d="M233 167.6l-69.2-19.9-1 1.2c-.8.9-2.1 2-4 3.3l66.7 19.1 7.5-3.7" class="unit"/>
    <path id="unit-1037" fill="#fff" stroke="#ddd" stroke-width=".5" d="M254.4 156.7l4.8-2.4v-.1l12.6-6.4-87.2-25-10.7 5.5 20.1 11.1 60.4 17.3zm0 0" class="unit"/>
    <path id="unit-1038" fill="#fff" stroke="#ddd" stroke-width=".5" d="M153.1 170.1l-19.1-5.5c-3 1.2-6.1 2.3-9.4 3.3l20.9 6 7.6-3.8" class="unit"/>
    <path id="unit-1039" fill="#fff" stroke="#ddd" stroke-width=".5" d="M167 29.8L143.4 42l95.9 27.5 23.5-12.2L167 29.8zm0 0" class="unit"/>
    <path id="unit-1040" fill="#fff" stroke="#ddd" stroke-width=".5" d="M431.9 65.9l-50.1 25.6-214.7-61.6 50.1-25.6 214.7 61.6zm0 0" class="unit"/>
    <path id="unit-1041" fill="#fff" stroke="#ddd" stroke-width=".5" d="M170.6 138.3l-2.8 3.9 73.6 21.2 6-3.1-76.8-22zm0 0" class="unit"/>
    <path id="unit-1042" fill="#fff" stroke="#ddd" stroke-width=".5" d="M170.8 138l77 22.1 1.6-.8 4.6-2.4-60.4-17.3-20-11.1-.8.5-1.3 7.9-.7 1.1zm0 0" class="unit"/>
    <path id="unit-1043" fill="#fff" stroke="#ddd" stroke-width=".5" d="M268.2 63.9l-6.5 3.2 9 2.6 6.5-3.2-9-2.6zm0 0" class="unit"/>
    <path id="unit-1044" fill="#fff" stroke="#ddd" stroke-width=".5" d="M259.9 68l-6.5 3.2 9 2.6 6.5-3.2-9-2.6zm0 0" class="unit"/>
    <path id="unit-1045" fill="#fff" stroke="#ddd" stroke-width=".5" d="M251.6 72.2l-6.5 3.2 9 2.6 6.5-3.2-9-2.6zm0 0" class="unit"/>
    <path id="unit-1046" fill="#fff" stroke="#ddd" stroke-width=".5" d="M243.2 76.4l-6.5 3.2 9 2.6 6.5-3.2-9-2.6zm0 0" class="unit"/>
    <path id="unit-1047" fill="#fff" stroke="#ddd" stroke-width=".5" d="M220.2 88.8l-6.5 3.2 9 2.6 6.5-3.2-9-2.6zm0 0" class="unit"/>
    <path id="unit-1048" fill="#fff" stroke="#ddd" stroke-width=".5" d="M211.8 93l-6.5 3.2 9 2.6 6.5-3.2-9-2.6zm0 0" class="unit"/>
    <path id="unit-1049" fill="#fff" stroke="#ddd" stroke-width=".5" d="M203.5 97.1l-6.5 3.2 9 2.6 6.5-3.2-9-2.6zm0 0" class="unit"/>
    <path id="unit-1050" fill="#fff" stroke="#ddd" stroke-width=".5" d="M195.1 101.3l-6.5 3.2 9 2.6 6.5-3.2-9-2.6zm0 0" class="unit"/>
    <path id="unit-1051" fill="#fff" stroke="#ddd" stroke-width=".5" d="M186.8 105.5l-6.5 3.2 9 2.6 6.5-3.2-9-2.6zm0 0" class="unit"/>
    <path id="unit-1052" fill="#fff" stroke="#ddd" stroke-width=".5" d="M153.3 137l-6.5 3.2 9 2.6 6.5-3.2-9-2.6zm0 0" class="unit"/>
  </g>
</svg>
