<svg width="504" height="715" id="svg-map" class="map">
	

	<g class="assets">
		
	</g>

	
		<g transform="translate(45,20) scale(1)">
		
		
			<path d="M224.522,179.78 L192.862,170.707 L192.862,170.709 L189.625,169.799 L178.798,166.692 L178.798,166.671 L113.644,147.991 L115.512,135.771 L119.936,133.556 L110.191,134.725 L85.033,127.496 L86.872,115.278 L108.225,104.601 L119.933,107.976 L120.353,108.816 L124.76,114.325 C126.11,111.553 127.915,108.747 130.158,105.942 C134.445,100.589 140.22,95.442 147.321,90.64 C163.992,79.338 187.581,70.073 217.533,63.05 L193.865,56.264 L195.733,44.044 L223.532,30.132 L330.391,60.779 L328.523,72.999 L310.928,81.796 L277.178,100.338 L277.063,101.161 L261.633,108.865 L243.726,118.109 L227.935,112.528 L215.997,118.51 L246.358,127.209 L245.492,132.92 L277.32,142.056 L275.481,154.275 L252.153,165.95 L251.924,165.867 L250.179,166.744 L250.158,166.937 L224.522,179.78 L224.522,179.78 Z M224.522,179.78" class="shadow"
		stroke="none"
		fill="none"
		stroke-width="0.5"
		/>
		
			<path d="M224.522,150.171 L192.862,141.096 L192.862,141.098 L189.625,140.189 L178.798,137.082 L178.798,137.061 L113.644,118.381 L115.512,106.162 L119.936,103.947 L110.191,105.116 L85.033,97.887 L86.872,85.669 L108.225,74.992 L119.933,78.366 L120.353,79.206 L124.76,84.715 C126.11,81.944 127.915,79.137 130.158,76.332 C134.445,70.979 140.22,65.832 147.321,61.03 C163.992,49.727 187.581,40.462 217.533,33.439 L193.865,26.654 L195.733,14.434 L223.532,0.523 L330.391,31.169 L328.523,43.389 L310.928,52.186 L277.178,70.728 L277.063,71.551 L261.633,79.255 L243.726,88.5 L227.935,82.919 L215.997,88.901 L246.358,97.6 L245.492,103.311 L277.32,112.447 L275.481,124.666 L252.153,136.341 L251.924,136.258 L250.179,137.134 L250.158,137.327 L224.522,150.171 L224.522,150.171 Z M224.522,150.171" class="outline"
		stroke="none"
		fill="#f68b1f"
		stroke-width="0.5"
		/>
		
			<path d="M24.921,7.248 C24.568,7.248 24.296,7.504 24.296,7.904 L24.296,17.924 C24.296,18.324 24.552,18.564 24.904,18.564 C25.256,18.564 25.528,18.324 25.528,17.924 L25.528,7.904 C25.529,7.503 25.273,7.248 24.921,7.248 L24.921,7.248 Z M45.675,12.273 L42.682,12.273 C42.282,12.273 42.057,12.577 42.057,12.849 C42.057,13.169 42.265,13.41 42.682,13.41 L45.163,13.41 L45.163,17.059 C44.603,17.283 43.914,17.443 42.986,17.443 C40.761,17.443 39.337,15.922 39.337,13.042 C39.337,9.889 40.794,8.4 43.034,8.4 C43.818,8.4 44.41,8.544 45.131,8.8 C45.339,8.88 45.531,8.96 45.692,8.96 C45.996,8.96 46.252,8.736 46.252,8.384 C46.252,8.128 46.108,7.952 45.868,7.824 C45.228,7.488 44.251,7.184 43.131,7.184 C40.282,7.184 38.073,9.137 38.073,13.106 C38.073,16.643 40.042,18.628 42.987,18.628 C44.331,18.628 45.164,18.324 45.836,18.02 C46.156,17.876 46.364,17.667 46.364,17.268 L46.364,12.962 C46.363,12.53 46.091,12.273 45.675,12.273 L45.675,12.273 Z M35.659,7.248 C35.306,7.248 35.098,7.504 35.098,7.904 L35.098,16.467 L35.066,16.467 L29.496,7.727 C29.288,7.391 29.016,7.247 28.663,7.247 C28.183,7.247 27.863,7.583 27.863,8.159 L27.863,17.923 C27.863,18.323 28.119,18.563 28.455,18.563 C28.807,18.563 29.047,18.323 29.047,17.923 L29.047,9.263 L29.079,9.263 L34.585,18.019 C34.793,18.339 35.049,18.563 35.418,18.563 C35.946,18.563 36.234,18.147 36.234,17.715 L36.234,7.903 C36.235,7.503 36.011,7.248 35.659,7.248 L35.659,7.248 Z M21.388,7.248 C21.035,7.248 20.827,7.504 20.827,7.904 L20.827,16.467 L20.795,16.467 L15.225,7.727 C15.017,7.391 14.745,7.247 14.392,7.247 C13.912,7.247 13.592,7.583 13.592,8.159 L13.592,17.923 C13.592,18.323 13.848,18.563 14.184,18.563 C14.536,18.563 14.776,18.323 14.776,17.923 L14.776,9.263 L14.808,9.263 L20.314,18.019 C20.522,18.339 20.778,18.563 21.147,18.563 C21.675,18.563 21.963,18.147 21.963,17.715 L21.963,7.903 C21.964,7.503 21.74,7.248 21.388,7.248 L21.388,7.248 Z M10.648,7.248 C10.296,7.248 10.024,7.504 10.024,7.904 L10.024,17.924 C10.024,18.324 10.28,18.564 10.632,18.564 C10.984,18.564 11.256,18.324 11.256,17.924 L11.256,7.904 C11.257,7.503 11.001,7.248 10.648,7.248 L10.648,7.248 Z M2.954,7.184 C2.346,7.184 1.385,7.232 0.745,7.392 C0.329,7.504 0.169,7.792 0.169,8.176 L0.169,17.652 C0.169,18.036 0.313,18.356 0.873,18.452 C1.385,18.548 2.026,18.628 3.114,18.628 C6.651,18.628 8.188,16.083 8.188,12.914 C8.188,9.601 6.635,7.184 2.954,7.184 L2.954,7.184 Z M3.146,17.443 C2.49,17.443 1.914,17.427 1.401,17.347 L1.401,8.463 C1.865,8.399 2.489,8.367 2.97,8.367 C5.835,8.367 6.94,10.24 6.94,12.801 C6.939,15.587 5.819,17.443 3.146,17.443 L3.146,17.443 Z M92.602,8.72 C91.978,7.471 91.482,7.103 90.921,7.103 C90.361,7.103 89.865,7.471 89.24,8.72 C88.344,10.529 87.656,12.802 86.487,17.428 C86.423,17.652 86.391,17.828 86.391,17.94 C86.391,18.324 86.647,18.564 86.999,18.564 C87.287,18.564 87.495,18.388 87.575,18.052 C87.879,16.676 88.183,15.443 88.488,14.386 L93.354,14.386 C93.642,15.443 93.946,16.675 94.267,18.052 C94.347,18.388 94.555,18.564 94.843,18.564 C95.195,18.564 95.451,18.324 95.451,17.94 C95.451,17.828 95.403,17.652 95.355,17.428 C94.218,12.802 93.498,10.529 92.602,8.72 L92.602,8.72 Z M88.808,13.266 C89.544,10.817 90.201,9.296 90.713,8.496 C90.761,8.432 90.809,8.368 90.921,8.368 C91.033,8.368 91.081,8.432 91.129,8.496 C91.641,9.296 92.281,10.817 93.018,13.266 L88.808,13.266 L88.808,13.266 Z M103.578,17.043 C103.482,17.043 103.354,17.059 103.21,17.107 C102.762,17.299 102.282,17.443 101.513,17.443 C99.144,17.443 97.704,15.795 97.704,12.929 C97.704,10.208 99.016,8.383 101.273,8.383 C101.721,8.383 102.329,8.431 102.857,8.639 C103.065,8.719 103.241,8.783 103.433,8.783 C103.753,8.783 103.994,8.543 103.994,8.191 C103.994,7.967 103.85,7.743 103.546,7.615 C102.905,7.327 102.105,7.183 101.401,7.183 C98.6,7.183 96.439,9.183 96.439,13.073 C96.439,16.739 98.536,18.627 101.433,18.627 C102.185,18.627 102.793,18.531 103.497,18.259 C103.865,18.115 104.105,17.923 104.105,17.603 C104.106,17.299 103.898,17.043 103.578,17.043 L103.578,17.043 Z M111.722,17.284 L106.952,17.284 L106.952,13.426 L110.826,13.426 C111.21,13.426 111.418,13.106 111.418,12.834 C111.418,12.546 111.21,12.258 110.826,12.258 L106.952,12.258 L106.952,8.529 L111.562,8.529 C111.978,8.529 112.202,8.257 112.202,7.953 C112.202,7.617 111.978,7.313 111.562,7.313 L106.776,7.313 C106.088,7.313 105.719,7.681 105.719,8.273 L105.719,17.541 C105.719,18.133 106.087,18.501 106.776,18.501 L111.722,18.501 C112.106,18.501 112.33,18.165 112.33,17.893 C112.33,17.556 112.106,17.284 111.722,17.284 L111.722,17.284 Z M66.394,17.284 L61.624,17.284 L61.624,13.426 L65.498,13.426 C65.882,13.426 66.09,13.106 66.09,12.834 C66.09,12.546 65.882,12.258 65.498,12.258 L61.624,12.258 L61.624,8.529 L66.234,8.529 C66.651,8.529 66.874,8.257 66.874,7.953 C66.874,7.617 66.65,7.313 66.234,7.313 L61.448,7.313 C60.76,7.313 60.391,7.681 60.391,8.273 L60.391,17.541 C60.391,18.133 60.759,18.501 61.448,18.501 L66.394,18.501 C66.778,18.501 67.002,18.165 67.002,17.893 C67.002,17.556 66.778,17.284 66.394,17.284 L66.394,17.284 Z M83.578,14.386 C83.29,13.97 82.97,13.65 82.601,13.41 C84.026,12.913 84.954,11.921 84.954,10.401 C84.954,8.464 83.642,7.184 80.745,7.184 C79.641,7.184 78.888,7.296 78.376,7.456 C77.976,7.584 77.864,7.824 77.864,8.224 L77.864,17.924 C77.864,18.324 78.136,18.564 78.489,18.564 C78.841,18.564 79.113,18.324 79.113,17.924 L79.113,13.746 L80.362,13.746 C81.53,13.746 81.995,14.226 82.571,15.155 C82.971,15.795 83.387,16.723 83.883,18.116 C83.979,18.372 84.155,18.564 84.491,18.564 C84.827,18.564 85.116,18.324 85.116,17.94 C85.116,17.828 85.084,17.668 85.02,17.508 C84.586,16.355 84.074,15.155 83.578,14.386 L83.578,14.386 Z M80.553,12.53 L79.113,12.53 L79.113,8.496 C79.561,8.432 79.993,8.368 80.682,8.368 C82.971,8.368 83.691,9.264 83.691,10.449 C83.69,12.098 82.138,12.578 80.553,12.53 L80.553,12.53 Z M58.539,7.312 L51.688,7.312 C51.336,7.312 51.096,7.616 51.096,7.92 C51.096,8.224 51.288,8.512 51.688,8.512 L54.441,8.512 L54.441,17.924 C54.441,18.324 54.713,18.564 55.065,18.564 C55.401,18.564 55.673,18.324 55.673,17.924 L55.673,8.512 L58.538,8.512 C58.906,8.512 59.114,8.208 59.114,7.92 C59.115,7.6 58.891,7.312 58.539,7.312 L58.539,7.312 Z M74.442,14.386 C74.154,13.97 73.834,13.65 73.465,13.41 C74.89,12.913 75.818,11.921 75.818,10.401 C75.818,8.464 74.506,7.184 71.609,7.184 C70.505,7.184 69.752,7.296 69.24,7.456 C68.84,7.584 68.728,7.824 68.728,8.224 L68.728,17.924 C68.728,18.324 69,18.564 69.352,18.564 C69.705,18.564 69.977,18.324 69.977,17.924 L69.977,13.746 L71.226,13.746 C72.394,13.746 72.859,14.226 73.435,15.155 C73.835,15.795 74.251,16.723 74.747,18.116 C74.843,18.372 75.019,18.564 75.355,18.564 C75.691,18.564 75.98,18.324 75.98,17.94 C75.98,17.828 75.948,17.668 75.884,17.508 C75.45,16.355 74.938,15.155 74.442,14.386 L74.442,14.386 Z M71.417,12.53 L69.977,12.53 L69.977,8.496 C70.425,8.432 70.857,8.368 71.546,8.368 C73.835,8.368 74.555,9.264 74.555,10.449 C74.554,12.098 73.001,12.578 71.417,12.53 L71.417,12.53 Z M71.417,12.53" class="Shape"
		stroke="none"
		fill="#f68b1f"
		stroke-width="0.5"
		/>
		
			<path d="M243.665,85.489 L207.837,72.821 L179.369,89.634 L172.558,93.039 L171.86,92.934 L171.798,92.913 L169.704,92.639 L169.556,92.639 L167.736,92.47 L167.398,92.449 L165.6,92.343 L163.464,92.364 L162.005,92.468 L160.186,92.743 L160.165,92.743 L159.34,92.975 L158.917,93.144 C160.834,94.708 164.677,96.323 170.443,97.987 L192.523,108.202 L216.486,114.907 L240.43,125.822 L253.056,129.439 L252.527,132.929 L247.895,135.255 L234.042,131.279 L209.063,127.98 L190.853,137.074 L190.452,137.497 L181.463,134.916 L181.991,131.426 L182.434,131.553 L197.556,123.558 L164.5,114.083 L160.48,116.071 L161.009,112.581 L165.028,110.593 L163.23,111.164 L113.824,96.994 L123.491,96.719 L121.037,93.632 L121.565,90.142 L125.373,90.205 C126.457,86.412 128.538,82.513 131.611,78.509 C135.63,73.279 141.073,68.28 147.94,63.514 C166.2,50.838 192.877,40.834 227.972,33.502 L308.807,50.273 L260.628,76.732 L243.665,85.489" class="walkway"
		stroke="none"
		fill="#808285"
		stroke-width="0.5"
		/>
		
			<path d="M326.425,41.497 L300.685,54.377 L196.924,24.619 L198.257,15.905 L223.996,3.025 L327.758,32.783 L326.425,41.497 M230.764,59.115 L244.998,51.987 L276.257,60.955 L274.946,69.669 L260.712,76.775 L229.432,67.807 L230.764,59.115 M229.283,71.255 L227.951,79.969 L209.254,89.339 L243.729,99.216 L242.862,104.926 L274.693,114.063 L273.381,122.777 L252.21,133.373 L248.487,132.294 L248.001,135.466 L224.481,147.247 L189.731,137.285 L190.789,130.327 L181.567,134.938 L116.702,116.347 L118.035,107.634 L134.066,99.618 L161.097,107.359 L165.094,105.371 L202.91,116.2 L201.852,123.158 L209.593,119.288 L219.322,120.578 L215.092,118.654 L191.277,112.013 L169.049,101.734 L165.898,100.761 L165.813,100.719 L160.631,98.731 L158.833,97.779 L157.859,97.145 L157.055,96.468 L156.866,96.278 L156.549,95.876 L156.359,95.496 L156.297,95.263 L156.255,95.136 L156.255,94.777 L157.588,86.084 L157.588,86.147 C157.63,85.597 158.039,85.125 158.815,84.73 C160.409,83.94 163.017,83.609 166.641,83.736 L164.653,83.165 L165.986,74.472 L193.099,60.894 L229.283,71.255 M118.373,80.286 L118.415,80.37 L127.51,91.748 L126.177,100.462 L110.611,102.323 L88.086,95.853 L89.398,87.139 L108.687,77.495 L118.373,80.286" class="wall"
		stroke="none"
		fill="#989898"
		stroke-width="0.5"
		/>
		
			<path d="M173.277,84.707 L167.841,84.115 C163.964,83.89 161.214,84.177 159.592,84.982 C157.972,85.8 158,86.878 159.678,88.218 C161.568,89.74 165.297,91.299 170.866,92.892 L185.29,99.554 L206.566,88.894 L180.34,81.386 L173.593,84.749 L173.277,84.707" id="3001" class="unit"
		stroke="#dddddd"
		fill="white"
		stroke-width="0.5"
		/>
		
			<path d="M228.014,71.255 L193.477,61.357 L167.166,74.512 L201.704,84.431 L228.014,71.255" id="3002" class="unit"
		stroke="#dddddd"
		fill="white"
		stroke-width="0.5"
		/>
		
			<path d="M245.356,52.453 L231.948,59.157 L261.58,67.66 L274.987,60.934 L245.356,52.453" id="3003" class="unit"
		stroke="#dddddd"
		fill="white"
		stroke-width="0.5"
		/>
		
			<path d="M301.553,45.241 L326.51,32.761 L224.396,3.491 L199.439,15.969 L301.553,45.241" id="3004" class="unit"
		stroke="#dddddd"
		fill="white"
		stroke-width="0.5"
		/>
		
			<path d="M253.056,124.236 L273.444,114.041 L235.713,103.233 L219.872,111.165 L240.979,120.788 L253.056,124.236" id="3005" class="unit"
		stroke="#dddddd"
		fill="white"
		stroke-width="0.5"
		/>
		
			<path d="M219.174,110.848 L242.46,99.194 L207.372,89.127 L185.946,99.85 L193.096,103.17 L216.89,109.812 L219.174,110.848" id="3006" class="unit"
		stroke="#dddddd"
		fill="white"
		stroke-width="0.5"
		/>
		
			<path d="M210.122,119.667 L192.229,128.635 L225.328,138.11 L248.043,126.753 L234.696,122.924 L210.122,119.667" id="3007" class="unit"
		stroke="#dddddd"
		fill="white"
		stroke-width="0.5"
		/>
		
			<path d="M183.917,111.102 L164.67,120.725 L182.394,125.822 L201.64,116.177 L183.917,111.102" id="3008" class="unit"
		stroke="#dddddd"
		fill="white"
		stroke-width="0.5"
		/>
		
			<path d="M109.066,77.939 L90.603,87.202 L111.752,93.294 L126.43,91.538 L117.568,80.413 L109.066,77.939" id="3009" class="unit"
		stroke="#dddddd"
		fill="white"
		stroke-width="0.5"
		/>
		
			<path d="M160.63,107.569 L134.446,100.062 L119.219,107.696 L145.381,115.205 L160.63,107.569" id="3010" class="unit"
		stroke="#dddddd"
		fill="white"
		stroke-width="0.5"
		/>
		
			<path d="M163.761,120.471 L183.007,110.847 L165.474,105.813 C159.074,109.028 152.664,112.236 146.249,115.436 L163.761,120.471" id="3011" class="unit"
		stroke="#dddddd"
		fill="white"
		stroke-width="0.5"
		/>
		
		</g>
	
		
 		
			<g class="disabled_toilet"
				transform="translate(229.3,143.3) scale(0.7)"
				style="display: none"
				>
			
			</g>
		
			<g class="baby_changing"
				transform="translate(238.3,137.3) scale(0.7)"
				style="display: none"
				>
			
			</g>
		
			<g class="toilets"
				transform="translate(246.3,132.3) scale(0.7)"
				style="display: none"
				>
			
			</g>
		
			<g class="cash_machine"
				transform="translate(172.3,108.3) scale(0.7)"
				style="display: none"
				>
			
			</g>
		
			<g class="escalator"
				transform="translate(192.3,84.3) scale(0.7)"
				style="display: none"
				>
			
			</g>
		
			<g class="elevator"
				transform="translate(228.3,97.3) scale(0.7)"
				style="display: none"
				>
			
			</g>
		
			<g class="dining_terrace"
				transform="translate(262.3,53.3) scale(0.7)"
				style="display: none"
				>
			
			</g>
		
			<g class="elevator"
				transform="translate(297.3,84.3) scale(0.7)"
				style="display: none"
				>
			
			</g>
		
	
		<g transform="translate(12,220) scale(1)">
		
		
			<path d="M324.084,140.042 L326.811,138.679 L326.874,138.7 L410.252,96.969 L412.027,85.193 L219.64,30.035 L218.756,30.478 C169.747,55.009 119.958,79.922 70.771,104.523 L69.596,105.111 L69.221,107.572 L66.347,106.744 L65.459,107.189 C57.545,111.16 49.513,115.179 41.585,119.136 L40.409,119.723 L38.603,131.522 L117.251,154.053 L108.805,158.284 L107.029,170.058 L161.115,185.579 L174.267,178.99 L172.785,188.839 L227.716,204.57 L249.144,193.859 L247.911,202.056 L291.847,214.664 L261.493,229.849 L259.684,241.648 L345.795,266.331 L388.141,245.135 L388.141,245.073 L399.017,239.625 L400.062,232.799 L389.836,229.873 L404.366,222.601 L405.329,216.34 L381.24,201.528 L375.969,200.018 L389.73,193.137 L391.536,181.341 L312.678,158.731 L305.578,162.293 L306.014,159.321 L302.933,158.434 L303.272,156.168 L296.082,154.112 L324.062,140.104 L324.084,140.042 L324.084,140.042 Z M291.104,175.695 L287.883,174.766 L291.522,172.946 L291.104,175.695 L291.104,175.695 Z M291.104,175.695" class="shadow"
		stroke="none"
		fill="none"
		stroke-width="0.5"
		/>
		
			<path d="M324.084,110.042 L326.811,108.679 L326.874,108.7 L410.252,66.969 L412.027,55.193 L219.641,0.035 L218.757,0.478 C169.748,25.01 119.959,49.922 70.772,74.523 L69.597,75.111 L69.222,77.572 L66.348,76.744 L65.46,77.189 C57.546,81.16 49.514,85.178 41.586,89.136 L40.41,89.723 L38.604,101.522 L117.252,124.054 L108.806,128.284 L107.03,140.058 L161.116,155.581 L174.268,148.991 L172.786,158.841 L227.717,174.572 L249.145,163.86 L247.912,172.058 L291.848,184.667 L261.494,199.852 L259.685,211.65 L345.796,236.335 L388.142,215.138 L388.142,215.076 L399.02,209.626 L400.064,202.8 L389.839,199.875 L404.367,192.603 L405.33,186.342 L399.869,183.312 L399.786,175.166 L386.827,171.937 L383.214,173.356 L381.138,171.546 L375.972,170.021 L389.733,163.14 L391.539,151.343 L312.681,128.734 L305.581,132.296 L306.018,129.325 L302.936,128.438 L303.275,126.172 L296.085,124.116 L324.065,110.108 L324.084,110.042 L324.084,110.042 Z M291.104,145.695 L287.883,144.766 L291.522,142.946 L291.104,145.695 L291.104,145.695 Z M291.104,145.695" class="outline"
		stroke="none"
		fill="#f68b1f"
		stroke-width="0.5"
		/>
		
			<path d="M22.399,20.85 C21.391,20.85 20.638,20.962 20.126,21.122 C19.726,21.25 19.614,21.49 19.614,21.89 L19.614,31.59 C19.614,31.99 19.87,32.23 20.222,32.23 C20.574,32.23 20.846,31.99 20.846,31.59 L20.846,27.972 C21.374,28.004 21.679,28.02 22.319,28.02 C25.2,28.02 26.721,26.627 26.721,24.354 C26.721,22.338 25.393,20.85 22.399,20.85 L22.399,20.85 Z M22.255,26.853 C21.663,26.853 21.375,26.853 20.846,26.821 L20.846,22.147 C21.294,22.083 21.839,22.019 22.367,22.019 C24.64,22.019 25.456,23.107 25.456,24.388 C25.457,25.7 24.752,26.853 22.255,26.853 L22.255,26.853 Z M103.279,20.85 C102.671,20.85 101.71,20.898 101.07,21.058 C100.654,21.17 100.494,21.458 100.494,21.842 L100.494,31.318 C100.494,31.702 100.638,32.022 101.198,32.118 C101.71,32.214 102.351,32.294 103.439,32.294 C106.976,32.294 108.513,29.749 108.513,26.58 C108.513,23.267 106.96,20.85 103.279,20.85 L103.279,20.85 Z M103.471,31.11 C102.815,31.11 102.239,31.094 101.726,31.014 L101.726,22.13 C102.19,22.066 102.814,22.034 103.295,22.034 C106.16,22.034 107.265,23.907 107.265,26.468 C107.265,29.253 106.144,31.11 103.471,31.11 L103.471,31.11 Z M7.874,20.914 C7.506,20.914 7.25,21.17 7.25,21.57 L7.25,30.325 C6.417,30.869 5.233,31.094 4.513,31.094 C2.656,31.094 1.52,30.181 1.52,28.116 L1.52,21.57 C1.52,21.17 1.264,20.914 0.912,20.914 C0.56,20.914 0.288,21.17 0.288,21.57 L0.288,28.357 C0.288,30.694 1.745,32.295 4.273,32.295 C6.082,32.295 7.122,31.815 8.051,31.287 C8.403,31.079 8.483,30.807 8.483,30.423 L8.483,21.571 C8.482,21.17 8.226,20.914 7.874,20.914 L7.874,20.914 Z M72.848,20.85 C69.967,20.85 68.142,23.187 68.142,26.788 C68.142,30.182 69.934,32.294 72.8,32.294 C75.681,32.294 77.506,29.941 77.506,26.34 C77.505,22.947 75.697,20.85 72.848,20.85 L72.848,20.85 Z M72.832,31.11 C70.687,31.11 69.438,29.365 69.438,26.853 C69.438,23.892 70.67,22.035 72.815,22.035 C75.008,22.035 76.209,23.78 76.209,26.277 C76.209,29.237 74.976,31.11 72.832,31.11 L72.832,31.11 Z M13.568,20.85 C12.56,20.85 11.807,20.962 11.295,21.122 C10.895,21.25 10.783,21.49 10.783,21.89 L10.783,31.59 C10.783,31.99 11.039,32.23 11.391,32.23 C11.743,32.23 12.015,31.99 12.015,31.59 L12.015,27.972 C12.543,28.004 12.848,28.02 13.488,28.02 C16.369,28.02 17.89,26.627 17.89,24.354 C17.89,22.338 16.561,20.85 13.568,20.85 L13.568,20.85 Z M13.424,26.853 C12.832,26.853 12.544,26.853 12.015,26.821 L12.015,22.147 C12.463,22.083 13.008,22.019 13.536,22.019 C15.809,22.019 16.625,23.107 16.625,24.388 C16.625,25.7 15.921,26.853 13.424,26.853 L13.424,26.853 Z M34.448,30.95 L29.677,30.95 L29.677,27.092 L33.551,27.092 C33.935,27.092 34.143,26.772 34.143,26.5 C34.143,26.212 33.935,25.924 33.551,25.924 L29.677,25.924 L29.677,22.195 L34.287,22.195 C34.703,22.195 34.927,21.923 34.927,21.619 C34.927,21.283 34.703,20.979 34.287,20.979 L29.501,20.979 C28.813,20.979 28.444,21.347 28.444,21.939 L28.444,31.207 C28.444,31.799 28.812,32.167 29.501,32.167 L34.447,32.167 C34.831,32.167 35.055,31.831 35.055,31.559 C35.057,31.222 34.833,30.95 34.448,30.95 L34.448,30.95 Z M65.216,28.053 C64.928,27.637 64.608,27.317 64.239,27.077 C65.664,26.58 66.592,25.588 66.592,24.068 C66.592,22.131 65.28,20.851 62.383,20.851 C61.279,20.851 60.526,20.963 60.014,21.123 C59.614,21.251 59.502,21.491 59.502,21.891 L59.502,31.591 C59.502,31.991 59.774,32.231 60.127,32.231 C60.479,32.231 60.751,31.991 60.751,31.591 L60.751,27.413 L62,27.413 C63.168,27.413 63.633,27.893 64.209,28.822 C64.609,29.462 65.025,30.39 65.521,31.783 C65.617,32.039 65.793,32.231 66.129,32.231 C66.465,32.231 66.754,31.991 66.754,31.607 C66.754,31.495 66.722,31.335 66.658,31.175 C66.224,30.021 65.712,28.821 65.216,28.053 L65.216,28.053 Z M62.19,26.196 L60.75,26.196 L60.75,22.162 C61.198,22.098 61.63,22.034 62.319,22.034 C64.608,22.034 65.328,22.93 65.328,24.115 C65.328,25.764 63.775,26.244 62.19,26.196 L62.19,26.196 Z M86.88,20.914 C86.512,20.914 86.256,21.17 86.256,21.57 L86.256,30.325 C85.423,30.869 84.239,31.094 83.519,31.094 C81.662,31.094 80.526,30.181 80.526,28.116 L80.526,21.57 C80.526,21.17 80.27,20.914 79.918,20.914 C79.566,20.914 79.294,21.17 79.294,21.57 L79.294,28.357 C79.294,30.694 80.751,32.295 83.279,32.295 C85.088,32.295 86.128,31.815 87.057,31.287 C87.409,31.079 87.489,30.807 87.489,30.423 L87.489,21.571 C87.489,21.17 87.232,20.914 86.88,20.914 L86.88,20.914 Z M97.585,20.914 C97.232,20.914 97.024,21.17 97.024,21.57 L97.024,30.133 L96.992,30.133 L91.422,21.393 C91.214,21.057 90.942,20.913 90.589,20.913 C90.109,20.913 89.789,21.249 89.789,21.825 L89.789,31.589 C89.789,31.989 90.045,32.229 90.381,32.229 C90.733,32.229 90.973,31.989 90.973,31.589 L90.973,22.929 L91.005,22.929 L96.511,31.685 C96.719,32.005 96.975,32.229 97.344,32.229 C97.872,32.229 98.16,31.813 98.16,31.381 L98.16,21.569 C98.161,21.17 97.937,20.914 97.585,20.914 L97.585,20.914 Z M42.496,28.053 C42.208,27.637 41.888,27.317 41.519,27.077 C42.944,26.58 43.872,25.588 43.872,24.068 C43.872,22.131 42.56,20.851 39.663,20.851 C38.559,20.851 37.806,20.963 37.294,21.123 C36.894,21.251 36.782,21.491 36.782,21.891 L36.782,31.591 C36.782,31.991 37.054,32.231 37.407,32.231 C37.759,32.231 38.031,31.991 38.031,31.591 L38.031,27.413 L39.28,27.413 C40.448,27.413 40.913,27.893 41.489,28.822 C41.889,29.462 42.305,30.39 42.801,31.783 C42.897,32.039 43.073,32.231 43.409,32.231 C43.745,32.231 44.034,31.991 44.034,31.607 C44.034,31.495 44.002,31.335 43.938,31.175 C43.504,30.021 42.992,28.821 42.496,28.053 L42.496,28.053 Z M39.471,26.196 L38.031,26.196 L38.031,22.162 C38.479,22.098 38.911,22.034 39.6,22.034 C41.889,22.034 42.609,22.93 42.609,24.115 C42.608,25.764 41.056,26.244 39.471,26.196 L39.471,26.196 Z M56.545,25.94 L53.552,25.94 C53.152,25.94 52.927,26.244 52.927,26.516 C52.927,26.836 53.135,27.077 53.552,27.077 L56.033,27.077 L56.033,30.726 C55.473,30.95 54.784,31.11 53.856,31.11 C51.631,31.11 50.207,29.589 50.207,26.709 C50.207,23.556 51.664,22.067 53.904,22.067 C54.688,22.067 55.28,22.211 56.001,22.467 C56.209,22.547 56.401,22.627 56.562,22.627 C56.866,22.627 57.122,22.403 57.122,22.051 C57.122,21.795 56.978,21.619 56.738,21.491 C56.098,21.155 55.121,20.851 54.001,20.851 C51.152,20.851 48.943,22.804 48.943,26.773 C48.943,30.31 50.912,32.295 53.857,32.295 C55.201,32.295 56.034,31.991 56.706,31.687 C57.026,31.543 57.234,31.334 57.234,30.935 L57.234,26.629 C57.233,26.196 56.961,25.94 56.545,25.94 L56.545,25.94 Z M56.545,25.94" class="Shape"
		stroke="none"
		fill="#f68b1f"
		stroke-width="0.5"
		/>
		
			<path d="M403.284,187.724 L398.087,184.824 L398.087,176.791 L386.788,174.088 L383.143,175.475 L380.927,173.978 L268.24,141.661 L258.193,139.123 L227.082,130.198 L195.991,116.851 C190.211,114.313 186.868,112.811 185.967,112.346 L182.984,110.676 L183.619,110.424 L183.724,110.382 L185.65,110.001 L187.49,109.853 L189.774,109.853 L191.825,109.959 L191.951,109.959 L194.997,110.275 L195.081,110.275 L195.969,110.403 L200.855,107.949 L299.859,136.354 L303.411,134.576 L303.898,131.257 L203.245,102.408 L212.212,97.903 L248.78,87.179 L322.658,108.372 L327.756,105.834 L328.241,102.514 L259.1,82.696 L268.914,77.789 L283.548,65.013 L284.056,61.692 L254.424,53.19 L172.997,93.967 L157.261,95.384 L144.551,102.384 L73,81.868 L67.312,84.702 L66.804,88.023 L145.334,110.546 L152.208,118.076 L250.111,146.142 L254.34,154.836 L355,183.704 L365.298,191.846 L349.67,199.673 L349.162,202.993 L386.278,213.631 L397.424,208.049 L397.932,204.729 L383.593,200.626 L402.778,191.024 L403.284,187.724 L403.284,187.724 Z M403.284,187.724" class="walkway"
		stroke="none"
		fill="#808285"
		stroke-width="0.5"
		/>
		
			<path d="M366.886,193.71 L368.157,185.418 L355.32,175.29 L272.708,151.582 L252,161.945 L250.751,170.236 L298.804,184.025 L263.801,201.536 L262.532,209.83 L345.547,233.624 L385.606,213.571 L386.874,205.3 L359.465,197.433 L366.886,193.71 L366.886,193.71 Z M375.24,167.548 L387.421,161.456 L388.692,153.165 L312.932,131.444 L294.426,140.729 L293.155,148.999 L343.893,163.55 L350.24,160.378 L375.24,167.548 L375.24,167.548 Z M377.373,177.67 L377.373,189.355 L388.952,192.33 L398.087,188.718 L398.087,176.79 L386.788,174.087 L377.373,177.67 L377.373,177.67 Z M219.893,2.746 C170.57,27.436 121.244,52.117 71.905,76.793 L71.293,80.811 L66.598,79.457 C58.646,83.448 50.686,87.431 42.72,91.407 L41.451,99.698 L124.21,123.405 L111.119,129.962 L109.871,138.232 L160.864,152.867 L181.253,142.652 L186.181,144.069 L176.875,148.721 L175.627,157.012 L227.465,171.861 L258.725,156.231 L259.996,147.94 L254.749,146.438 L251.382,141.299 L256.441,142.505 L269.449,142.188 L280.829,145.466 L299.165,136.288 L300.435,127.997 L289.121,124.761 L321.987,108.305 L322.539,104.753 L326.685,105.959 L407.943,65.288 L409.19,57.018 L219.893,2.746 L219.893,2.746 Z M268.518,69.306 L254.136,76.498 L253.586,80.051 L248.637,78.634 L211.816,89.42 L198.237,96.232 L197.518,100.948 L195.677,101.858 L189.755,101.372 C186.371,101.274 183.967,101.548 182.543,102.197 C181.358,102.747 180.745,103.311 180.703,103.889 L180.703,103.827 L179.434,112.118 L179.476,112.499 L179.666,112.879 L179.772,113.026 L179.983,113.259 L180.426,113.639 L181.21,114.167 L184.233,115.796 L184.254,115.817 L203.481,124.256 L152.572,109.662 L147.031,103.592 L151.938,100.884 L151.155,106.13 L171.84,112.051 C174.265,110.853 176.684,109.647 179.095,108.434 L180.341,100.164 L170.76,97.393 L171.479,97.33 L171.669,97.246 L171.691,97.267 L252.864,56.637 L275.579,63.151 L268.518,69.306 L268.518,69.306 Z M268.518,69.306" class="wall"
		stroke="none"
		fill="#989898"
		stroke-width="0.5"
		/>
		
			<path d="M283.025,56.806 L278.648,60.634 L304.854,68.143 L311.305,64.906 L283.025,56.806 Z M283.025,56.806" id="2001" class="unit"
		stroke="#dddddd"
		fill="white"
		stroke-width="0.5"
		/>
		
			<path d="M261.2,73.112 L254.495,76.476 L326.743,97.203 L333.449,93.839 L261.2,73.112 Z M261.2,73.112" id="2002" class="unit"
		stroke="#dddddd"
		fill="white"
		stroke-width="0.5"
		/>
		
			<path d="M211.096,89.926 L198.595,96.188 L281.354,119.917 L293.855,113.657 L211.096,89.926 Z M211.096,89.926" id="2003" class="unit"
		stroke="#dddddd"
		fill="white"
		stroke-width="0.5"
		/>
		
			<path d="M230.151,84.216 L221.014,86.881 L301.321,109.914 L308.067,106.55 L230.151,84.216 Z M230.151,84.216" id="2004" class="unit"
		stroke="#dddddd"
		fill="white"
		stroke-width="0.5"
		/>
		
			<path d="M220.484,87.05 L211.75,89.609 L211.476,89.735 L294.236,113.465 C296.479,112.353 298.715,111.232 300.942,110.104 L220.484,87.05 L220.484,87.05 Z M220.484,87.05" id="2005" class="unit"
		stroke="#dddddd"
		fill="white"
		stroke-width="0.5"
		/>
		
			<path d="M312.53,131.783 L294.764,140.688 L318.94,147.625 L336.704,138.719 L312.53,131.783 Z M312.53,131.783" id="2006" class="unit"
		stroke="#dddddd"
		fill="white"
		stroke-width="0.5"
		/>
		
			<path d="M268.308,69.56 L261.581,72.922 L333.83,93.649 L340.554,90.287 L268.308,69.56 Z M268.308,69.56" id="2007" class="unit"
		stroke="#dddddd"
		fill="white"
		stroke-width="0.5"
		/>
		
			<path d="M312.086,65.139 L305.233,68.565 L278.373,60.845 L268.645,69.348 L340.936,90.096 L362.126,79.478 L312.086,65.139 Z M312.086,65.139" id="2008" class="unit"
		stroke="#dddddd"
		fill="white"
		stroke-width="0.5"
		/>
		
			<path d="M337.551,138.973 L319.765,147.857 L343.938,154.794 L361.726,145.889 L337.551,138.973 Z M337.551,138.973" id="2009" class="unit"
		stroke="#dddddd"
		fill="white"
		stroke-width="0.5"
		/>
		
			<path d="M362.551,146.123 L351.108,151.854 L375.282,158.79 L386.727,153.06 L362.551,146.123 Z M362.551,146.123" id="2010" class="unit"
		stroke="#dddddd"
		fill="white"
		stroke-width="0.5"
		/>
		
			<path d="M303.458,181.845 L264.14,201.514 L345.588,224.863 L384.884,205.193 L303.458,181.845 Z M303.458,181.845" id="2011" class="unit"
		stroke="#dddddd"
		fill="white"
		stroke-width="0.5"
		/>
		
			<path d="M287.51,156.296 L267.587,166.278 L281.905,170.382 L301.827,160.421 L287.51,156.296 Z M287.51,156.296" id="2012" class="unit"
		stroke="#dddddd"
		fill="white"
		stroke-width="0.5"
		/>
		
			<path d="M272.282,151.938 L252.358,161.921 L266.74,166.046 L286.686,156.062 L272.282,151.938 Z M272.282,151.938" id="2013" class="unit"
		stroke="#dddddd"
		fill="white"
		stroke-width="0.5"
		/>
		
			<path d="M219.513,3.106 L174.78,25.483 L362.508,79.309 L407.239,56.912 L219.513,3.106 Z M219.513,3.106" id="2014" class="unit"
		stroke="#dddddd"
		fill="white"
		stroke-width="0.5"
		/>
		
			<path d="M174.399,25.674 L161.604,32.081 L239.732,54.479 L252.549,48.07 L174.399,25.674 Z M174.399,25.674" id="2015" class="unit"
		stroke="#dddddd"
		fill="white"
		stroke-width="0.5"
		/>
		
			<path d="M161.223,32.272 L148.11,38.829 L226.26,61.227 L239.373,54.649 L161.223,32.272 Z M161.223,32.272" id="2016" class="unit"
		stroke="#dddddd"
		fill="white"
		stroke-width="0.5"
		/>
		
			<path d="M147.751,39.019 L133.855,45.956 L211.983,68.354 L225.879,61.417 L147.751,39.019 Z M147.751,39.019" id="2017" class="unit"
		stroke="#dddddd"
		fill="white"
		stroke-width="0.5"
		/>
		
			<path d="M114.459,55.664 L107.734,59.027 L185.883,81.424 L192.587,78.062 L114.459,55.664 Z M114.459,55.664" id="2018" class="unit"
		stroke="#dddddd"
		fill="white"
		stroke-width="0.5"
		/>
		
			<path d="M159.255,94.58 L152.784,97.816 L171.881,103.294 C174.054,102.222 176.217,101.145 178.375,100.058 L159.255,94.58 L159.255,94.58 Z M159.255,94.58" id="2019" class="unit"
		stroke="#dddddd"
		fill="white"
		stroke-width="0.5"
		/>
		
			<path d="M200.246,99.74 L195.424,102.151 L195.147,102.109 L190.093,101.623 C186.483,101.44 183.96,101.686 182.521,102.363 C180.928,103.095 180.42,103.858 181,104.647 C181.338,105.112 182.423,105.832 184.256,106.805 L184.996,107.185 C185.631,107.538 188.817,108.969 194.557,111.479 L211.56,102.977 L200.246,99.74 L200.246,99.74 Z M200.246,99.74" id="2020" class="unit"
		stroke="#dddddd"
		fill="white"
		stroke-width="0.5"
		/>
		
			<path d="M100.396,62.685 L93.627,66.09 L171.777,88.488 L178.545,85.104 L100.396,62.685 Z M100.396,62.685" id="2021" class="unit"
		stroke="#dddddd"
		fill="white"
		stroke-width="0.5"
		/>
		
			<path d="M107.354,59.216 L100.776,62.496 L178.925,84.915 L185.482,81.614 L107.354,59.216 Z M107.354,59.216" id="2022" class="unit"
		stroke="#dddddd"
		fill="white"
		stroke-width="0.5"
		/>
		
			<path d="M86.163,69.813 L79.458,73.175 L149.78,93.333 L155.597,90.117 L156.654,90.032 L86.163,69.813 Z M86.163,69.813" id="2023" class="unit"
		stroke="#dddddd"
		fill="white"
		stroke-width="0.5"
		/>
		
			<path d="M79.077,73.366 L72.267,76.771 L143.034,97.054 L149.421,93.543 L79.077,73.366 Z M79.077,73.366" id="2024" class="unit"
		stroke="#dddddd"
		fill="white"
		stroke-width="0.5"
		/>
		
			<path d="M144.684,113.318 L168.963,120.299 L175.901,116.808 L151.6,109.851 L144.684,113.318" id="2025" class="unit"
		stroke="#dddddd"
		fill="white"
		stroke-width="0.5"
		/>
		
			<path d="M144.176,102.151 L66.217,79.796 L43.08,91.386 L134.743,117.676 L150.922,109.576 L144.176,102.151 Z M144.176,102.151" id="2026" class="unit"
		stroke="#dddddd"
		fill="white"
		stroke-width="0.5"
		/>
		
			<path d="M176.684,117.042 L169.366,120.7 L144.282,113.51 L111.479,129.942 L160.906,144.113 L201.027,124.021 L176.684,117.042 Z M176.684,117.042" id="2027" class="unit"
		stroke="#dddddd"
		fill="white"
		stroke-width="0.5"
		/>
		
			<path d="M201.81,124.253 L182.098,134.13 L196.734,138.318 L216.467,128.44 L201.81,124.253 Z M201.81,124.253" id="2028" class="unit"
		stroke="#dddddd"
		fill="white"
		stroke-width="0.5"
		/>
		
			<path d="M93.248,66.259 L86.542,69.624 L157.459,89.969 L171.396,88.678 L93.248,66.259 Z M93.248,66.259" id="2029" class="unit"
		stroke="#dddddd"
		fill="white"
		stroke-width="0.5"
		/>
		
			<path d="M133.474,46.146 L122.033,51.856 L200.181,74.275 C204.003,72.373 207.816,70.462 211.624,68.545 L133.474,46.146 L133.474,46.146 Z M133.474,46.146" id="2030" class="unit"
		stroke="#dddddd"
		fill="white"
		stroke-width="0.5"
		/>
		
			<path d="M212.384,103.209 L195.253,111.775 L205.511,116.217 L224.546,106.698 L212.384,103.209 Z M212.384,103.209" id="2031" class="unit"
		stroke="#dddddd"
		fill="white"
		stroke-width="0.5"
		/>
		
			<path d="M238.654,110.738 L217.461,121.355 L226.07,125.036 L227.93,125.564 L250.667,114.187 L238.654,110.738 Z M238.654,110.738" id="2032" class="unit"
		stroke="#dddddd"
		fill="white"
		stroke-width="0.5"
		/>
		
			<path d="M217.25,128.673 L197.538,138.55 L212.195,142.759 L231.927,132.881 L217.25,128.673 Z M217.25,128.673" id="2033" class="unit"
		stroke="#dddddd"
		fill="white"
		stroke-width="0.5"
		/>
		
			<path d="M254.841,146.461 L248.911,137.747 L220.277,153.772 L186.211,144.219 L177.255,148.703 L227.529,163.106 L258.877,147.857 L254.841,146.461 Z M254.841,146.461" id="2034" class="unit"
		stroke="#dddddd"
		fill="white"
		stroke-width="0.5"
		/>
		
			<path d="M225.33,106.931 L206.167,116.512 L216.784,121.082 L237.871,110.527 L225.33,106.931 Z M225.33,106.931" id="2035" class="unit"
		stroke="#dddddd"
		fill="white"
		stroke-width="0.5"
		/>
		
			<path d="M251.449,114.419 L228.713,125.797 L241.043,129.329 L263.801,117.951 L251.449,114.419 Z M251.449,114.419" id="2036" class="unit"
		stroke="#dddddd"
		fill="white"
		stroke-width="0.5"
		/>
		
			<path d="M232.777,132.881 L212.091,143.162 L196.652,138.741 L186.686,143.787 L220.357,153.135 L248.304,137.591 L232.777,132.881 Z M232.777,132.881" id="2037" class="unit"
		stroke="#dddddd"
		fill="white"
		stroke-width="0.5"
		/>
		
			<path d="M121.652,52.068 L114.841,55.473 L192.991,77.871 L199.801,74.466 L121.652,52.068 Z M121.652,52.068" id="2038" class="unit"
		stroke="#dddddd"
		fill="white"
		stroke-width="0.5"
		/>
		
			<path d="M239.309,81.53 L230.68,84.068 L248.128,89.081 L248.15,89.081 L255.17,86.522 L239.309,81.53 Z M239.309,81.53" id="2039" class="unit"
		stroke="#dddddd"
		fill="white"
		stroke-width="0.5"
		/>
		
			<path d="M258.026,121.427 L241.827,129.562 L256.863,133.877 L269.594,133.409 L279.26,127.651 L258.026,121.427 Z M258.026,121.427" id="2040" class="unit"
		stroke="#dddddd"
		fill="white"
		stroke-width="0.5"
		/>
		
			<path d="M264.561,118.184 L258.343,121.292 L279.845,127.641 L269.892,133.539 L280.89,136.71 L299.312,127.85 L264.561,118.184 Z M264.561,118.184" id="2041" class="unit"
		stroke="#dddddd"
		fill="white"
		stroke-width="0.5"
		/>
		
			<path d="M353.878,175.331 L348.231,173.724 L328.479,183.602 L328.287,183.686 L354.451,191.194 L366.379,185.229 L353.878,175.331 Z M353.878,175.331" id="2042" class="unit"
		stroke="#dddddd"
		fill="white"
		stroke-width="0.5"
		/>
		
			<path d="M324.521,167.019 L324.312,166.956 L304.388,176.939 L304.769,177.044 L327.632,183.368 L347.491,173.427 L324.521,167.019 Z M324.521,167.019" id="2043" class="unit"
		stroke="#dddddd"
		fill="white"
		stroke-width="0.5"
		/>
		
			<path d="M302.632,160.632 L282.688,170.614 L303.901,176.79 L323.72,166.786 L302.632,160.632 Z M302.632,160.632" id="2044" class="unit"
		stroke="#dddddd"
		fill="white"
		stroke-width="0.5"
		/>
		
			<path d="M248.107,78.949 L239.309,81.53 L255.17,86.522 L248.15,89.081 L308.449,106.361 L321.286,99.93 L248.107,78.949 Z M248.107,78.949" id="2045" class="unit"
		stroke="#dddddd"
		fill="white"
		stroke-width="0.5"
		/>
		
			<path d="M387.054,174.087 L377.373,177.67 L377.373,183.209 L389.43,186.38 L398.354,183.368 L398.354,176.79 L387.054,174.087 Z M387.054,174.087" id="2046" class="unit"
		stroke="#dddddd"
		fill="white"
		stroke-width="0.5"
		/>
		
		</g>
	
		
 		
			<g class="main_entrances"
				transform="translate(410.3,402.3) scale(0.7)"
				style="display: none"
				>
			
			</g>
		
			<g class="escalator"
				transform="translate(185.3,326.3) scale(0.7)"
				style="display: none"
				>
			
			</g>
		
			<g class="escalator"
				transform="translate(191.3,311.3) scale(0.7)"
				style="display: none"
				>
			
			</g>
		
			<g class="elevator"
				transform="translate(219.3,301.3) scale(0.7)"
				style="display: none"
				>
			
			</g>
		
			<g class="escalator"
				transform="translate(260.3,275.3) scale(0.7)"
				style="display: none"
				>
			
			</g>
		
			<g class="elevator"
				transform="translate(278.3,300.3) scale(0.7)"
				style="display: none"
				>
			
			</g>
		
			<g class="parking"
				transform="translate(314.3,308.3) scale(0.7)"
				style="display: none"
				>
			
			</g>
		
	
		<g transform="translate(35,480) scale(1)">
		
		
			<path d="M430.397,118.512 L339.376,165.058 L339.291,165.037 L326.783,171.418 L326.762,171.503 L283.893,193.413 L283.851,193.392 L278.231,196.224 L278.21,196.329 L199.274,236.683 L151.144,222.865 L135.234,230.957 L135.234,230.979 L135.213,230.979 L127.734,234.824 L127.713,234.824 L119.6,238.986 L86.725,229.522 L86.702,229.522 L75.292,226.395 L51.248,219.358 L52.727,209.913 L106.647,182.339 L17.549,156.776 L19.007,147.332 L215.396,46.929 L431.856,109.089 L430.397,118.512" class="shadow"
		stroke="none"
		fill="none"
		stroke-width="0.5"
		/>
		
			<path d="M120.284,197.732 L86.455,188.02 L75.004,184.88 L48.823,177.219 L50.846,164.298 L100.201,139.059 L15.125,114.629 L17.123,101.717 L215.556,0.269 L435.125,63.3 L433.127,76.232 L339.81,123.955 L339.726,123.913 L329.285,129.256 L329.264,129.319 L284.331,152.306 L284.279,152.281 L280.899,153.983 L280.879,154.08 L199.959,195.452 L151.829,181.612 L120.284,197.732 L120.284,197.732 Z M120.284,197.732" class="outline"
		stroke="none"
		fill="#f68b1f"
		stroke-width="0.5"
		/>
		
			<path d="M37.915,12.784 L33.145,12.784 L33.145,8.926 L37.019,8.926 C37.403,8.926 37.611,8.606 37.611,8.334 C37.611,8.046 37.403,7.758 37.019,7.758 L33.145,7.758 L33.145,4.028 L37.755,4.028 C38.171,4.028 38.395,3.756 38.395,3.452 C38.395,3.116 38.171,2.812 37.755,2.812 L32.969,2.812 C32.281,2.812 31.912,3.18 31.912,3.772 L31.912,13.04 C31.912,13.632 32.28,14 32.969,14 L37.915,14 C38.299,14 38.523,13.664 38.523,13.392 C38.523,13.056 38.299,12.784 37.915,12.784 L37.915,12.784 Z M29.421,2.748 C29.085,2.748 28.877,3.004 28.829,3.324 C28.381,6.381 27.805,9.47 27.068,12.544 L27.036,12.544 C26.172,9.727 25.484,6.365 24.731,4.012 C24.427,3.052 24.155,2.748 23.659,2.748 C23.226,2.748 22.907,3.084 22.635,3.948 C21.899,6.269 21.082,9.903 20.218,12.544 L20.186,12.544 C19.434,9.487 18.985,6.398 18.585,3.388 C18.505,2.956 18.281,2.748 17.929,2.748 C17.545,2.748 17.321,3.052 17.321,3.388 C17.321,3.5 17.353,3.692 17.369,3.756 C17.802,6.845 18.41,10.014 19.034,12.784 C19.258,13.744 19.594,14.064 20.138,14.064 C20.618,14.064 20.938,13.792 21.242,12.928 C22.106,10.431 22.714,7.678 23.643,4.509 L23.675,4.509 C24.635,7.678 25.196,10.447 25.964,12.928 C26.236,13.808 26.572,14.064 27.101,14.064 C27.581,14.064 27.901,13.728 28.093,12.992 C28.845,9.999 29.486,6.877 29.998,3.676 C30.03,3.5 30.03,3.388 30.03,3.308 C30.029,3.02 29.79,2.748 29.421,2.748 L29.421,2.748 Z M11.435,2.684 C8.554,2.684 6.729,5.021 6.729,8.622 C6.729,12.015 8.521,14.128 11.387,14.128 C14.268,14.128 16.093,11.775 16.093,8.174 C16.092,4.78 14.284,2.684 11.435,2.684 L11.435,2.684 Z M11.418,12.943 C9.273,12.943 8.024,11.198 8.024,8.686 C8.024,5.725 9.256,3.868 11.401,3.868 C13.594,3.868 14.795,5.613 14.795,8.11 C14.796,11.071 13.563,12.943 11.418,12.943 L11.418,12.943 Z M5.707,12.815 L1.401,12.815 L1.401,3.404 C1.401,3.004 1.145,2.748 0.793,2.748 C0.44,2.748 0.168,3.004 0.168,3.404 L0.168,13.04 C0.168,13.632 0.536,14 1.225,14 L5.706,14 C6.106,14 6.362,13.728 6.362,13.392 C6.363,13.087 6.123,12.815 5.707,12.815 L5.707,12.815 Z M101.051,2.748 C100.699,2.748 100.491,3.004 100.491,3.404 L100.491,11.967 L100.459,11.967 L94.889,3.227 C94.681,2.891 94.409,2.747 94.056,2.747 C93.576,2.747 93.256,3.083 93.256,3.659 L93.256,13.423 C93.256,13.823 93.512,14.063 93.848,14.063 C94.2,14.063 94.44,13.823 94.44,13.423 L94.44,4.763 L94.472,4.763 L99.978,13.519 C100.186,13.839 100.442,14.063 100.811,14.063 C101.339,14.063 101.627,13.647 101.627,13.215 L101.627,3.404 C101.627,3.003 101.403,2.748 101.051,2.748 L101.051,2.748 Z M45.963,9.886 C45.675,9.47 45.355,9.15 44.986,8.91 C46.411,8.413 47.339,7.421 47.339,5.901 C47.339,3.964 46.027,2.684 43.13,2.684 C42.026,2.684 41.273,2.796 40.761,2.956 C40.361,3.084 40.249,3.324 40.249,3.724 L40.249,13.424 C40.249,13.824 40.521,14.064 40.874,14.064 C41.226,14.064 41.498,13.824 41.498,13.424 L41.498,9.246 L42.747,9.246 C43.915,9.246 44.38,9.726 44.956,10.655 C45.356,11.295 45.772,12.223 46.268,13.616 C46.364,13.872 46.54,14.064 46.876,14.064 C47.212,14.064 47.501,13.824 47.501,13.44 C47.501,13.328 47.469,13.168 47.405,13.008 C46.971,11.855 46.459,10.655 45.963,9.886 L45.963,9.886 Z M42.938,8.03 L41.498,8.03 L41.498,3.996 C41.946,3.932 42.378,3.868 43.067,3.868 C45.356,3.868 46.076,4.764 46.076,5.949 C46.075,7.598 44.522,8.078 42.938,8.03 L42.938,8.03 Z M90.347,2.748 C89.979,2.748 89.723,3.004 89.723,3.404 L89.723,12.159 C88.89,12.703 87.706,12.928 86.986,12.928 C85.129,12.928 83.993,12.015 83.993,9.95 L83.993,3.404 C83.993,3.004 83.737,2.748 83.385,2.748 C83.033,2.748 82.76,3.003 82.76,3.404 L82.76,10.191 C82.76,12.528 84.217,14.129 86.745,14.129 C88.554,14.129 89.594,13.649 90.523,13.121 C90.875,12.913 90.955,12.641 90.955,12.257 L90.955,3.404 C90.956,3.003 90.699,2.748 90.347,2.748 L90.347,2.748 Z M106.745,2.684 C106.137,2.684 105.176,2.732 104.536,2.892 C104.12,3.004 103.96,3.292 103.96,3.676 L103.96,13.152 C103.96,13.536 104.104,13.856 104.664,13.952 C105.176,14.048 105.817,14.128 106.905,14.128 C110.442,14.128 111.979,11.583 111.979,8.414 C111.979,5.101 110.426,2.684 106.745,2.684 L106.745,2.684 Z M106.937,12.943 C106.281,12.943 105.705,12.927 105.192,12.847 L105.192,3.964 C105.656,3.9 106.28,3.868 106.761,3.868 C109.626,3.868 110.731,5.741 110.731,8.302 C110.73,11.087 109.61,12.943 106.937,12.943 L106.937,12.943 Z M76.313,2.684 C73.432,2.684 71.607,5.021 71.607,8.622 C71.607,12.015 73.399,14.128 76.265,14.128 C79.146,14.128 80.971,11.775 80.971,8.174 C80.972,4.78 79.163,2.684 76.313,2.684 L76.313,2.684 Z M76.298,12.943 C74.153,12.943 72.904,11.198 72.904,8.686 C72.904,5.725 74.136,3.868 76.281,3.868 C78.474,3.868 79.675,5.613 79.675,8.11 C79.675,11.071 78.442,12.943 76.298,12.943 L76.298,12.943 Z M60.011,7.773 L57.018,7.773 C56.618,7.773 56.393,8.077 56.393,8.349 C56.393,8.669 56.601,8.91 57.018,8.91 L59.499,8.91 L59.499,12.559 C58.939,12.783 58.25,12.943 57.322,12.943 C55.097,12.943 53.673,11.422 53.673,8.542 C53.673,5.389 55.13,3.9 57.37,3.9 C58.154,3.9 58.746,4.044 59.467,4.3 C59.675,4.38 59.867,4.46 60.028,4.46 C60.332,4.46 60.588,4.236 60.588,3.884 C60.588,3.628 60.444,3.452 60.204,3.324 C59.564,2.988 58.587,2.684 57.467,2.684 C54.618,2.684 52.409,4.637 52.409,8.606 C52.409,12.143 54.378,14.128 57.323,14.128 C58.667,14.128 59.5,13.824 60.172,13.52 C60.492,13.376 60.7,13.167 60.7,12.768 L60.7,8.462 C60.699,8.03 60.427,7.773 60.011,7.773 L60.011,7.773 Z M68.683,9.886 C68.395,9.47 68.075,9.15 67.706,8.91 C69.131,8.413 70.059,7.421 70.059,5.901 C70.059,3.964 68.747,2.684 65.85,2.684 C64.746,2.684 63.993,2.796 63.481,2.956 C63.081,3.084 62.969,3.324 62.969,3.724 L62.969,13.424 C62.969,13.824 63.241,14.064 63.594,14.064 C63.946,14.064 64.218,13.824 64.218,13.424 L64.218,9.246 L65.467,9.246 C66.635,9.246 67.1,9.726 67.676,10.655 C68.076,11.295 68.492,12.223 68.988,13.616 C69.084,13.872 69.26,14.064 69.596,14.064 C69.932,14.064 70.221,13.824 70.221,13.44 C70.221,13.328 70.189,13.168 70.125,13.008 C69.691,11.855 69.179,10.655 68.683,9.886 L68.683,9.886 Z M65.657,8.03 L64.217,8.03 L64.217,3.996 C64.665,3.932 65.097,3.868 65.786,3.868 C68.075,3.868 68.795,4.764 68.795,5.949 C68.794,7.598 67.242,8.078 65.657,8.03 L65.657,8.03 Z M65.657,8.03" class="Shape"
		stroke="none"
		fill="#f68b1f"
		stroke-width="0.5"
		/>
		
			<path d="M68.524,195.102 C68.258,195.446 67.977,195.666 67.682,195.766 C67.386,195.866 67.069,195.861 66.732,195.751 C66.279,195.604 65.953,195.322 65.753,194.907 C65.552,194.492 65.532,193.98 65.691,193.374 L69.737,194.688 C69.776,194.58 69.804,194.5 69.822,194.445 C70.113,193.549 70.109,192.779 69.809,192.136 C69.51,191.493 68.997,191.054 68.273,190.818 C67.524,190.575 66.832,190.629 66.198,190.98 C65.565,191.331 65.099,191.963 64.803,192.876 C64.516,193.758 64.526,194.52 64.832,195.159 C65.139,195.799 65.688,196.247 66.481,196.505 C67.111,196.71 67.678,196.725 68.184,196.55 C68.689,196.375 69.106,196.035 69.436,195.529 L68.524,195.102 L68.524,195.102 Z M66.834,191.656 C67.213,191.467 67.614,191.44 68.036,191.578 C68.503,191.729 68.825,192.029 69.003,192.478 C69.12,192.769 69.124,193.148 69.017,193.619 L65.988,192.635 C66.172,192.172 66.455,191.846 66.834,191.656 L66.834,191.656 Z M80.226,194.702 C79.572,194.49 78.95,194.562 78.359,194.92 L79.232,192.233 L78.313,191.934 L75.88,199.422 L76.799,199.721 L77.764,196.753 C77.902,196.327 78.062,196.011 78.243,195.802 C78.424,195.593 78.657,195.457 78.943,195.394 C79.23,195.332 79.509,195.344 79.781,195.432 C80.145,195.551 80.393,195.747 80.524,196.021 C80.656,196.294 80.647,196.662 80.497,197.123 L79.38,200.561 L80.299,200.86 L81.416,197.422 C81.589,196.891 81.656,196.464 81.62,196.144 C81.582,195.823 81.442,195.535 81.197,195.281 C80.951,195.025 80.627,194.833 80.226,194.702 L80.226,194.702 Z M63.949,190.34 L64.874,190.641 L65.106,189.926 L64.181,189.625 L64.797,187.729 L63.703,187.984 L63.266,189.328 L62.592,189.108 L62.36,189.824 L63.034,190.043 L62.02,193.164 C61.841,193.716 61.761,194.09 61.78,194.285 C61.799,194.482 61.883,194.664 62.033,194.828 C62.182,194.994 62.424,195.131 62.758,195.239 C62.963,195.305 63.203,195.353 63.48,195.383 L63.611,194.528 C63.437,194.499 63.298,194.466 63.196,194.433 C63.06,194.389 62.962,194.332 62.903,194.264 C62.844,194.197 62.811,194.119 62.803,194.034 C62.795,193.949 62.833,193.775 62.918,193.513 L63.949,190.34 L63.949,190.34 Z M48.125,182.281 C47.76,181.966 47.299,181.717 46.744,181.536 C46.24,181.373 45.754,181.308 45.287,181.346 C44.82,181.382 44.425,181.53 44.104,181.788 C43.783,182.046 43.561,182.365 43.438,182.744 C43.326,183.088 43.313,183.427 43.398,183.761 C43.483,184.096 43.674,184.415 43.971,184.719 C44.199,184.954 44.63,185.267 45.265,185.657 C45.899,186.046 46.303,186.311 46.479,186.456 C46.754,186.677 46.931,186.897 47.01,187.116 C47.089,187.336 47.091,187.563 47.014,187.799 C46.939,188.03 46.799,188.221 46.594,188.371 C46.389,188.52 46.123,188.604 45.797,188.623 C45.471,188.642 45.119,188.59 44.741,188.467 C44.315,188.328 43.956,188.13 43.664,187.871 C43.372,187.612 43.184,187.337 43.1,187.043 C43.016,186.752 43.013,186.41 43.091,186.022 L42.13,185.799 C41.981,186.305 41.972,186.797 42.104,187.279 C42.235,187.759 42.498,188.174 42.892,188.52 C43.287,188.866 43.822,189.15 44.499,189.37 C45.033,189.544 45.547,189.602 46.038,189.545 C46.529,189.488 46.946,189.32 47.288,189.043 C47.631,188.764 47.867,188.426 47.996,188.027 C48.126,187.626 48.138,187.236 48.031,186.86 C47.924,186.485 47.684,186.127 47.313,185.783 C47.058,185.55 46.557,185.211 45.811,184.767 C45.064,184.323 44.624,183.983 44.49,183.747 C44.352,183.511 44.327,183.257 44.414,182.989 C44.515,182.678 44.738,182.458 45.083,182.328 C45.429,182.196 45.901,182.229 46.501,182.424 C47.076,182.612 47.472,182.873 47.688,183.211 C47.905,183.548 47.961,183.962 47.859,184.452 L48.832,184.689 C48.957,184.245 48.962,183.811 48.847,183.389 C48.732,182.966 48.492,182.599 48.125,182.281 L48.125,182.281 Z M52.006,183.574 L50.912,183.828 L50.475,185.172 L49.801,184.953 L49.569,185.668 L50.243,185.887 L49.229,189.008 C49.05,189.56 48.97,189.934 48.989,190.13 C49.008,190.326 49.092,190.508 49.242,190.672 C49.391,190.838 49.633,190.975 49.967,191.083 C50.172,191.149 50.412,191.197 50.689,191.227 L50.82,190.373 C50.646,190.343 50.507,190.311 50.405,190.277 C50.269,190.233 50.171,190.176 50.112,190.108 C50.053,190.041 50.02,189.963 50.012,189.879 C50.004,189.794 50.042,189.62 50.127,189.357 L51.158,186.185 L52.083,186.486 L52.315,185.771 L51.39,185.47 L52.006,183.574 L52.006,183.574 Z M60.917,186.438 C60.552,186.122 60.091,185.874 59.536,185.693 C59.032,185.529 58.546,185.465 58.079,185.502 C57.612,185.539 57.217,185.687 56.896,185.944 C56.575,186.204 56.353,186.522 56.23,186.901 C56.118,187.245 56.105,187.584 56.19,187.918 C56.275,188.253 56.466,188.572 56.763,188.876 C56.991,189.111 57.422,189.424 58.057,189.813 C58.691,190.202 59.095,190.467 59.271,190.611 C59.546,190.833 59.723,191.053 59.802,191.272 C59.881,191.492 59.883,191.719 59.806,191.955 C59.731,192.186 59.591,192.377 59.386,192.527 C59.181,192.676 58.915,192.76 58.589,192.779 C58.263,192.797 57.911,192.746 57.533,192.623 C57.107,192.484 56.748,192.285 56.456,192.026 C56.164,191.768 55.976,191.492 55.892,191.199 C55.808,190.907 55.805,190.566 55.883,190.178 L54.922,189.955 C54.773,190.46 54.764,190.953 54.896,191.435 C55.027,191.915 55.29,192.33 55.684,192.676 C56.079,193.022 56.614,193.306 57.291,193.526 C57.825,193.7 58.339,193.757 58.83,193.701 C59.321,193.645 59.738,193.476 60.08,193.198 C60.423,192.92 60.659,192.582 60.788,192.183 C60.918,191.782 60.93,191.392 60.823,191.016 C60.716,190.641 60.476,190.283 60.105,189.939 C59.85,189.706 59.349,189.367 58.603,188.923 C57.856,188.479 57.416,188.139 57.282,187.903 C57.144,187.667 57.119,187.413 57.206,187.144 C57.307,186.834 57.53,186.614 57.875,186.483 C58.221,186.352 58.693,186.385 59.293,186.58 C59.868,186.767 60.264,187.029 60.48,187.367 C60.697,187.704 60.753,188.118 60.651,188.608 L61.624,188.844 C61.749,188.4 61.754,187.967 61.639,187.545 C61.524,187.123 61.283,186.755 60.917,186.438 L60.917,186.438 Z M74.275,192.769 C73.921,192.654 73.596,192.625 73.303,192.682 C73.01,192.74 72.719,192.873 72.432,193.085 L72.661,192.38 L71.823,192.108 L69.385,199.612 L70.304,199.911 L71.162,197.27 C71.255,197.518 71.402,197.747 71.603,197.956 C71.804,198.165 72.058,198.318 72.365,198.418 C72.784,198.554 73.222,198.565 73.678,198.453 C74.135,198.339 74.534,198.093 74.878,197.713 C75.221,197.333 75.483,196.866 75.664,196.312 C75.832,195.793 75.896,195.289 75.857,194.795 C75.817,194.303 75.66,193.879 75.383,193.525 C75.106,193.171 74.738,192.919 74.275,192.769 L74.275,192.769 Z M74.727,195.999 C74.492,196.725 74.172,197.213 73.768,197.465 C73.365,197.715 72.958,197.775 72.55,197.642 C72.149,197.511 71.861,197.234 71.686,196.807 C71.511,196.381 71.538,195.82 71.765,195.121 C71.992,194.424 72.315,193.94 72.736,193.672 C73.156,193.404 73.562,193.334 73.954,193.461 C74.35,193.589 74.633,193.871 74.806,194.308 C74.979,194.745 74.952,195.308 74.727,195.999 L74.727,195.999 Z M118.87,207.259 C118.121,207.016 117.43,207.07 116.795,207.42 C116.162,207.772 115.696,208.404 115.399,209.316 C115.112,210.198 115.123,210.959 115.428,211.599 C115.734,212.238 116.284,212.687 117.077,212.945 C117.707,213.15 118.274,213.165 118.779,212.99 C119.284,212.815 119.701,212.474 120.032,211.969 L119.12,211.542 C118.854,211.885 118.573,212.106 118.277,212.206 C117.982,212.305 117.665,212.301 117.327,212.191 C116.874,212.044 116.548,211.762 116.348,211.347 C116.148,210.932 116.128,210.42 116.287,209.814 L120.333,211.128 C120.371,211.02 120.399,210.939 120.417,210.884 C120.708,209.988 120.705,209.219 120.405,208.576 C120.107,207.934 119.595,207.494 118.87,207.259 L118.87,207.259 Z M119.615,210.059 L116.586,209.075 C116.771,208.612 117.052,208.286 117.432,208.096 C117.812,207.906 118.213,207.881 118.635,208.018 C119.102,208.17 119.424,208.47 119.601,208.919 C119.717,209.209 119.722,209.589 119.615,210.059 L119.615,210.059 Z M116,206.654 C115.744,206.352 115.461,206.15 115.151,206.05 C114.936,205.98 114.72,205.978 114.501,206.042 C114.283,206.106 114.006,206.296 113.669,206.612 L113.937,205.79 L113.109,205.521 L111.346,210.946 L112.266,211.245 L113.189,208.405 C113.315,208.016 113.482,207.676 113.691,207.382 C113.829,207.19 113.997,207.059 114.197,206.989 C114.396,206.921 114.596,206.919 114.797,206.984 C115.022,207.057 115.225,207.197 115.407,207.403 L116,206.654 L116,206.654 Z M85.727,196.49 C84.978,196.246 84.287,196.301 83.653,196.651 C83.019,197.003 82.554,197.635 82.257,198.547 C81.971,199.429 81.981,200.19 82.286,200.83 C82.593,201.47 83.141,201.918 83.935,202.176 C84.565,202.38 85.132,202.396 85.637,202.221 C86.142,202.046 86.559,201.705 86.889,201.199 L85.977,200.773 C85.711,201.116 85.431,201.337 85.135,201.437 C84.839,201.537 84.523,201.531 84.185,201.421 C83.732,201.275 83.406,200.993 83.206,200.577 C83.005,200.163 82.985,199.651 83.144,199.044 L87.19,200.358 C87.229,200.251 87.257,200.17 87.275,200.115 C87.566,199.219 87.562,198.45 87.262,197.807 C86.965,197.165 86.453,196.726 85.727,196.49 L85.727,196.49 Z M86.472,199.29 L83.443,198.306 C83.628,197.843 83.91,197.517 84.289,197.327 C84.668,197.137 85.069,197.112 85.492,197.249 C85.959,197.4 86.281,197.701 86.459,198.15 C86.575,198.44 86.58,198.82 86.472,199.29 L86.472,199.29 Z M129.322,210.79 L129.938,208.895 L128.844,209.15 L128.407,210.493 L127.732,210.274 L127.5,210.989 L128.174,211.209 L127.16,214.33 C126.981,214.881 126.901,215.256 126.919,215.451 C126.938,215.647 127.023,215.829 127.172,215.994 C127.322,216.159 127.564,216.296 127.897,216.404 C128.102,216.47 128.342,216.519 128.618,216.549 L128.749,215.694 C128.575,215.664 128.436,215.632 128.334,215.598 C128.198,215.554 128.1,215.498 128.042,215.43 C127.982,215.362 127.949,215.284 127.941,215.2 C127.933,215.116 127.972,214.941 128.057,214.679 L129.088,211.507 L130.012,211.808 L130.244,211.092 L129.322,210.79 L129.322,210.79 Z M124.688,209.149 C123.939,208.906 123.247,208.959 122.613,209.31 C121.979,209.662 121.514,210.294 121.217,211.206 C120.93,212.088 120.941,212.849 121.246,213.489 C121.552,214.128 122.101,214.577 122.895,214.835 C123.525,215.039 124.092,215.055 124.597,214.88 C125.102,214.705 125.519,214.364 125.849,213.858 L124.937,213.432 C124.671,213.775 124.39,213.996 124.095,214.095 C123.799,214.195 123.483,214.191 123.145,214.08 C122.692,213.934 122.366,213.652 122.166,213.237 C121.966,212.822 121.945,212.31 122.105,211.703 L126.151,213.017 C126.189,212.91 126.217,212.829 126.235,212.774 C126.526,211.878 126.522,211.109 126.223,210.465 C125.925,209.824 125.414,209.385 124.688,209.149 L124.688,209.149 Z M125.432,211.949 L122.404,210.965 C122.588,210.502 122.87,210.176 123.25,209.986 C123.63,209.796 124.031,209.771 124.453,209.908 C124.92,210.059 125.242,210.36 125.419,210.809 C125.536,211.1 125.54,211.479 125.432,211.949 L125.432,211.949 Z M111.062,205.648 L111.987,205.949 L112.219,205.233 L111.294,204.932 L111.91,203.037 L110.816,203.292 L110.379,204.635 L109.705,204.416 L109.473,205.131 L110.147,205.351 L109.133,208.472 C108.954,209.024 108.874,209.398 108.893,209.593 C108.912,209.79 108.996,209.971 109.146,210.136 C109.295,210.301 109.537,210.439 109.871,210.546 C110.076,210.612 110.316,210.661 110.593,210.691 L110.724,209.836 C110.549,209.806 110.411,209.774 110.308,209.74 C110.172,209.696 110.075,209.64 110.016,209.572 C109.957,209.504 109.924,209.426 109.916,209.342 C109.908,209.257 109.946,209.083 110.031,208.821 L111.062,205.648 L111.062,205.648 Z M92.716,198.956 C92.481,198.749 92.199,198.593 91.872,198.486 C91.119,198.242 90.447,198.353 89.854,198.82 L90.105,198.049 L89.278,197.779 L87.515,203.204 L88.434,203.503 L89.397,200.541 C89.623,199.846 89.918,199.42 90.284,199.264 C90.649,199.108 91.027,199.094 91.419,199.221 C91.664,199.3 91.86,199.425 92.006,199.595 C92.152,199.765 92.231,199.954 92.242,200.163 C92.254,200.371 92.198,200.664 92.076,201.038 L91.004,204.338 L91.924,204.637 L93.008,201.301 C93.146,200.875 93.226,200.572 93.247,200.391 C93.278,200.111 93.256,199.854 93.182,199.619 C93.108,199.384 92.953,199.162 92.716,198.956 L92.716,198.956 Z M97.98,200.675 C97.698,200.448 97.345,200.265 96.919,200.127 C96.636,200.035 96.359,199.985 96.089,199.978 C95.818,199.972 95.594,199.998 95.417,200.057 C95.182,200.131 94.976,200.253 94.798,200.423 C94.62,200.593 94.492,200.799 94.414,201.041 C94.328,201.307 94.316,201.57 94.379,201.835 C94.442,202.098 94.584,202.334 94.804,202.543 C95.024,202.752 95.444,203.051 96.063,203.44 C96.523,203.728 96.802,203.934 96.902,204.056 C97.044,204.235 97.081,204.427 97.013,204.635 C96.938,204.866 96.77,205.034 96.51,205.14 C96.25,205.246 95.908,205.23 95.486,205.093 C95.067,204.956 94.773,204.753 94.603,204.484 C94.433,204.215 94.381,203.889 94.448,203.507 L93.493,203.355 C93.408,203.964 93.503,204.475 93.777,204.888 C94.051,205.301 94.541,205.621 95.246,205.851 C95.672,205.989 96.077,206.039 96.462,206 C96.847,205.961 97.173,205.836 97.441,205.623 C97.707,205.411 97.89,205.151 97.99,204.845 C98.092,204.531 98.103,204.245 98.026,203.987 C97.948,203.728 97.798,203.502 97.577,203.307 C97.356,203.113 96.949,202.824 96.355,202.439 C95.945,202.169 95.7,202.003 95.619,201.94 C95.48,201.824 95.389,201.703 95.347,201.581 C95.302,201.461 95.3,201.342 95.338,201.223 C95.399,201.035 95.543,200.902 95.769,200.82 C95.995,200.739 96.319,200.767 96.741,200.905 C97.098,201.021 97.35,201.189 97.494,201.41 C97.639,201.63 97.686,201.887 97.637,202.179 L98.576,202.349 C98.632,201.98 98.617,201.665 98.532,201.406 C98.446,201.146 98.263,200.902 97.98,200.675 L97.98,200.675 Z M108.03,201.746 C107.665,201.43 107.204,201.181 106.649,201 C106.145,200.837 105.659,200.772 105.192,200.81 C104.725,200.846 104.33,200.995 104.009,201.252 C103.688,201.512 103.466,201.83 103.343,202.208 C103.231,202.552 103.218,202.892 103.303,203.225 C103.388,203.56 103.579,203.879 103.876,204.183 C104.104,204.418 104.535,204.732 105.17,205.12 C105.804,205.509 106.208,205.775 106.384,205.919 C106.659,206.14 106.836,206.36 106.915,206.579 C106.994,206.8 106.995,207.026 106.919,207.263 C106.844,207.493 106.704,207.685 106.499,207.834 C106.294,207.983 106.028,208.068 105.702,208.087 C105.376,208.105 105.024,208.053 104.646,207.93 C104.22,207.792 103.861,207.593 103.569,207.334 C103.276,207.075 103.089,206.8 103.005,206.507 C102.921,206.215 102.918,205.874 102.995,205.485 L102.034,205.263 C101.885,205.768 101.876,206.261 102.008,206.742 C102.139,207.223 102.402,207.638 102.796,207.983 C103.191,208.33 103.726,208.613 104.403,208.833 C104.937,209.007 105.451,209.065 105.941,209.009 C106.432,208.952 106.85,208.784 107.192,208.506 C107.535,208.228 107.771,207.889 107.9,207.49 C108.03,207.089 108.042,206.7 107.935,206.323 C107.827,205.948 107.588,205.59 107.217,205.247 C106.962,205.014 106.461,204.675 105.715,204.231 C104.968,203.786 104.528,203.447 104.394,203.211 C104.256,202.974 104.231,202.721 104.318,202.452 C104.419,202.141 104.642,201.922 104.987,201.791 C105.333,201.66 105.805,201.692 106.405,201.887 C106.98,202.075 107.376,202.336 107.592,202.674 C107.809,203.012 107.865,203.426 107.763,203.915 L108.736,204.152 C108.862,203.708 108.867,203.274 108.752,202.853 C108.636,202.432 108.396,202.062 108.03,201.746 L108.03,201.746 Z M108.03,201.746" class="Shape"
		stroke="none"
		fill="#f68b1f"
		stroke-width="0.5"
		/>
		
			<path d="M294.584,71.839 L253.849,92.25 L340.117,120.879 L326.806,127.662 L240.623,98.885 L197.457,120.5 L284.929,149.129 L278.696,152.234 L191.267,123.605 L171.09,133.705 L192.45,143.234 L183.09,145.22 L169.483,141.818 L161.433,152.488 L160.314,153.883 C159.469,154.799 158.046,155.939 156.045,157.305 C153.976,158.714 151.566,160.137 148.818,161.573 C146.367,162.869 143.599,164.201 140.514,165.566 C137.627,166.819 134.556,168.059 131.302,169.286 C128.26,170.426 124.922,171.588 121.287,172.772 C117.568,173.969 113.97,175.061 110.49,176.047 L98.996,179.11 C97.813,179.404 95.939,180.461 93.376,182.279 C90.841,184.067 88.855,185.117 87.418,185.426 L76.008,182.3 L63.331,178.476 L73.177,175.263 C80.98,172.686 87.678,170.531 93.27,168.798 L103.391,165.438 C106.968,164.17 110.145,162.959 112.92,161.804 C115.836,160.621 118.744,159.296 121.646,157.832 C123.913,156.677 125.906,155.543 127.625,154.431 L128.957,153.586 L135.696,149.086 C138.232,147.325 140.239,145.784 141.717,144.459 C143.21,143.107 144.331,141.84 145.076,140.655 C145.838,139.446 146.246,138.234 146.302,137.022 C146.358,135.952 146.133,134.825 145.626,133.642 C145.146,132.501 144.385,131.226 143.344,129.818 C142.02,128.071 141.041,126.613 140.407,125.444 C139.591,123.965 139.139,122.654 139.055,121.514 C138.914,119.316 140.168,117.507 142.816,116.083 C145.225,114.787 148.908,113.709 153.866,112.85 C157.682,112.216 162.246,111.696 167.556,111.287 L263.901,63.072 L294.584,71.839" class="walkway"
		stroke="none"
		fill="#808285"
		stroke-width="0.5"
		/>
		
			<path d="M431.117,74.417 L340.096,120.963 L251.103,95.398 L252.582,85.975 L280.281,71.819 L261.309,66.368 L167.857,114.139 L176.857,116.737 L175.231,117.561 L175.231,117.582 L176.667,116.843 L175.316,125.527 L191.479,117.265 L196.465,118.681 L197.141,114.35 L213.431,105.983 L213.453,106.004 L240.01,92.418 L328.96,117.962 L327.481,127.384 L284.611,149.315 L279.604,147.878 L278.927,152.23 L199.991,192.585 L151.863,178.748 L135.953,186.861 L135.953,186.882 L135.932,186.882 L128.453,190.706 L128.432,190.706 L128.432,190.728 L120.318,194.869 L87.443,185.424 L88.901,176.001 L90.422,176.423 L90.464,176.106 L100.394,173.697 L100.478,173.169 L100.858,173.086 C105.013,172.028 108.802,171 112.225,170 L112.458,169.938 L112.479,169.938 C116.099,168.909 119.564,167.839 122.874,166.726 L123.106,166.642 C126.389,165.573 129.6,164.431 132.741,163.219 C135.657,162.12 138.601,160.916 141.573,159.607 L141.827,159.502 C144.969,158.079 147.616,156.783 149.771,155.614 C149.841,155.587 149.904,155.551 149.961,155.509 L149.982,155.509 L150.172,155.404 C152.735,154.009 155.003,152.63 156.975,151.263 L157.038,151.221 C158.896,149.939 160.285,148.798 161.2,147.797 L162.193,146.508 L162.256,146.403 L166.144,141.058 L166.186,140.974 L166.186,140.995 L166.207,140.974 L170.01,135.692 L170.032,135.671 L171.171,128.339 L167.77,130.071 L146.409,123.944 L147.402,117.522 C146.134,117.874 145.057,118.233 144.171,118.6 C143.453,118.882 142.825,119.177 142.291,119.487 L141.826,119.762 C142.488,120.875 143.425,122.213 144.636,123.776 C146.763,126.524 147.805,128.91 147.763,130.939 L147.763,131.277 L147.72,131.594 L147.658,132.058 L147.7,131.932 L146.221,141.376 C146.053,142.405 145.622,143.468 144.932,144.567 C144.242,145.61 143.242,146.75 141.932,147.99 L141.763,148.138 L141.742,148.117 C140.516,149.271 138.664,150.744 136.185,152.533 L136.058,152.616 L136.227,151.58 L136.185,151.602 L136.037,152.637 L135.847,152.764 L131.22,155.954 L128.136,158.024 C126.248,159.235 124.368,160.327 122.495,161.299 L122.241,161.426 L122.22,161.426 L122.009,161.553 L113.389,165.546 L113.368,165.546 L111.234,166.413 C109.248,167.23 107.008,168.081 104.515,168.97 L104.515,168.991 L103.987,169.181 L94.542,172.35 L94.141,172.476 C87.676,174.518 80.041,176.652 71.238,178.877 L67.689,179.766 L51.969,175.266 L53.448,165.822 L107.368,138.249 L18.268,112.66 L19.726,103.237 L216.113,2.835 L432.574,64.973 L431.117,74.417" class="wall"
		stroke="none"
		fill="#989898"
		stroke-width="0.5"
		/>
		
			<path d="M269.652,77.756 L356.85,102.793 L380.345,90.771 L308.19,70.044 L291.774,78.453 L276.751,74.122 L269.652,77.756" id="1000" class="unit"
		stroke="#dddddd"
		fill="white"
		stroke-width="0.5"
		/>
		
			<path d="M276.92,73.974 L291.921,78.347 L308.19,70.002 L293.168,65.734 L276.92,73.974" id="1001" class="unit"
		stroke="#dddddd"
		fill="white"
		stroke-width="0.5"
		/>
		
			<path d="M348.567,107.018 L261.371,82.003 L253.553,85.996 L340.729,111.033 L348.567,107.018" id="1002" class="unit"
		stroke="#dddddd"
		fill="white"
		stroke-width="0.5"
		/>
		
			<path d="M356.384,103.025 L269.188,77.988 L261.792,81.77 L348.99,106.807 L356.384,103.025" id="1003" class="unit"
		stroke="#dddddd"
		fill="white"
		stroke-width="0.5"
		/>
		
			<path d="M308.655,127.428 L221.48,102.413 L213.979,106.237 L301.155,131.253 L308.655,127.428" id="1004" class="unit"
		stroke="#dddddd"
		fill="white"
		stroke-width="0.5"
		/>
		
			<path d="M292.852,135.521 L205.676,110.484 L198.09,114.371 L285.267,139.387 L292.852,135.521" id="1005" class="unit"
		stroke="#dddddd"
		fill="white"
		stroke-width="0.5"
		/>
		
			<path d="M278.716,142.725 L191.604,117.709 L184.083,121.555 L271.195,146.571 L278.716,142.725" id="1006" class="unit"
		stroke="#dddddd"
		fill="white"
		stroke-width="0.5"
		/>
		
			<path d="M300.732,131.485 L213.557,106.448 L206.078,110.271 L293.274,135.288 L300.732,131.485" id="1007" class="unit"
		stroke="#dddddd"
		fill="white"
		stroke-width="0.5"
		/>
		
			<path d="M327.292,117.9 L240.115,92.883 L221.902,102.18 L309.079,127.217 L327.292,117.9" id="1008" class="unit"
		stroke="#dddddd"
		fill="white"
		stroke-width="0.5"
		/>
		
			<path d="M142.27,109.892 L56.108,85.151 L48.375,89.102 L138.783,115.047 C138.7,112.991 139.861,111.273 142.27,109.892" id="1009" class="unit"
		stroke="#dddddd"
		fill="white"
		stroke-width="0.5"
		/>
		
			<path d="M140.242,119.21 C139.425,117.787 138.953,116.52 138.826,115.407 L47.953,89.313 L20.697,103.258 L81.674,120.773 L92.576,115.174 L146.411,130.641 C146.397,128.655 145.361,126.337 143.305,123.689 C141.924,121.885 140.903,120.393 140.242,119.21" id="1010" class="unit"
		stroke="#dddddd"
		fill="white"
		stroke-width="0.5"
		/>
		
			<path d="M148.819,114.54 L168.384,120.16 L175.8,116.432 L155.412,111.159 L148.819,114.54" id="1011" class="unit"
		stroke="#dddddd"
		fill="white"
		stroke-width="0.5"
		/>
		
			<path d="M153.044,106.596 L64.094,81.052 L56.53,84.939 L142.67,109.659 C145.023,108.434 148.481,107.413 153.044,106.596" id="1012" class="unit"
		stroke="#dddddd"
		fill="white"
		stroke-width="0.5"
		/>
		
			<path d="M191.773,92.313 L95.915,64.782 L88.33,68.671 L184.188,96.18 L191.773,92.313" id="1013" class="unit"
		stroke="#dddddd"
		fill="white"
		stroke-width="0.5"
		/>
		
			<path d="M167.856,104.547 L71.996,77.038 L64.517,80.84 L153.764,106.469 C157.369,105.863 161.8,105.356 167.053,104.948 L167.856,104.547" id="1014" class="unit"
		stroke="#dddddd"
		fill="white"
		stroke-width="0.5"
		/>
		
			<path d="M175.8,100.49 L79.941,72.96 L72.44,76.805 L168.278,104.314 L175.8,100.49" id="1015" class="unit"
		stroke="#dddddd"
		fill="white"
		stroke-width="0.5"
		/>
		
			<path d="M183.766,96.412 L87.906,68.882 L80.384,72.727 L176.245,100.257 L183.766,96.412" id="1016" class="unit"
		stroke="#dddddd"
		fill="white"
		stroke-width="0.5"
		/>
		
			<path d="M237.833,68.755 L216.22,62.543 L208.423,66.537 L230.059,72.748 L237.833,68.755" id="1017" class="unit"
		stroke="#dddddd"
		fill="white"
		stroke-width="0.5"
		/>
		
			<path d="M200.205,70.741 L221.839,76.953 L229.636,72.96 L208,66.748 L200.205,70.741" id="1018" class="unit"
		stroke="#dddddd"
		fill="white"
		stroke-width="0.5"
		/>
		
			<path d="M198.873,70.699 L215.269,62.311 L141.953,41.246 L104.133,60.6 L199.993,88.109 L221.417,77.164 L198.873,70.699" id="1019" class="unit"
		stroke="#dddddd"
		fill="white"
		stroke-width="0.5"
		/>
		
			<path d="M199.569,88.32 L103.71,60.811 L96.336,64.572 L192.195,92.102 C194.662,90.848 197.12,89.588 199.569,88.32" id="1020" class="unit"
		stroke="#dddddd"
		fill="white"
		stroke-width="0.5"
		/>
		
			<path d="M82.561,121.027 L142.228,138.141 C143.637,136.817 144.679,135.584 145.355,134.443 C146.031,133.288 146.383,132.133 146.411,130.978 L93.062,115.66 L82.561,121.027" id="1021" class="unit"
		stroke="#dddddd"
		fill="white"
		stroke-width="0.5"
		/>
		
			<path d="M112.732,136.028 L136.396,142.81 C138.678,141.19 140.53,139.726 141.953,138.415 L120.254,132.182 L112.732,136.028" id="1022" class="unit"
		stroke="#dddddd"
		fill="white"
		stroke-width="0.5"
		/>
		
			<path d="M96.759,144.183 L122.662,151.62 C124.888,150.452 126.768,149.354 128.303,148.324 L129.423,147.585 L104.259,140.359 C101.767,141.64 99.267,142.916 96.759,144.183" id="1023" class="unit"
		stroke="#dddddd"
		fill="white"
		stroke-width="0.5"
		/>
		
			<path d="M104.196,159.459 L80.3,152.592 L72.926,156.374 L94.731,162.628 C98.14,161.558 101.294,160.502 104.196,159.459" id="1024" class="unit"
		stroke="#dddddd"
		fill="white"
		stroke-width="0.5"
		/>
		
			<path d="M122.241,151.832 L96.338,144.395 L88.647,148.325 L114.064,155.636 C117.19,154.297 119.917,153.029 122.241,151.832" id="1025" class="unit"
		stroke="#dddddd"
		fill="white"
		stroke-width="0.5"
		/>
		
			<path d="M113.599,155.825 L88.245,148.557 L80.745,152.382 L104.725,159.27 C107.81,158.156 110.768,157.008 113.599,155.825" id="1026" class="unit"
		stroke="#dddddd"
		fill="white"
		stroke-width="0.5"
		/>
		
			<path d="M104.683,140.127 L129.783,147.332 L136.037,143.063 L112.311,136.239 L104.683,140.127" id="1027" class="unit"
		stroke="#dddddd"
		fill="white"
		stroke-width="0.5"
		/>
		
			<path d="M101.662,173.256 L128.664,181.011 L136.186,177.165 L112.437,170.361 L101.662,173.256" id="1028" class="unit"
		stroke="#dddddd"
		fill="white"
		stroke-width="0.5"
		/>
		
			<path d="M94.182,162.819 L72.505,156.586 L54.397,165.84 L68.511,169.896 C78.779,167.333 87.336,164.974 94.182,162.819" id="1029" class="unit"
		stroke="#dddddd"
		fill="white"
		stroke-width="0.5"
		/>
		
			<path d="M90.104,176.087 L120.952,184.961 L128.241,181.242 L101.027,173.425 L90.104,176.087" id="1030" class="unit"
		stroke="#dddddd"
		fill="white"
		stroke-width="0.5"
		/>
		
			<path d="M113.027,170.171 L136.606,176.953 L144.128,173.108 L123.106,167.066 L113.027,170.171" id="1031" class="unit"
		stroke="#dddddd"
		fill="white"
		stroke-width="0.5"
		/>
		
			<path d="M239.924,162.565 L166.567,141.5 L162.955,146.465 L232.403,166.41 L239.924,162.565" id="1032" class="unit"
		stroke="#dddddd"
		fill="white"
		stroke-width="0.5"
		/>
		
			<path d="M223.995,170.72 L157.378,151.599 C155.378,152.965 153.159,154.31 150.722,155.635 L216.537,174.524 L223.995,170.72" id="1033" class="unit"
		stroke="#dddddd"
		fill="white"
		stroke-width="0.5"
		/>
		
			<path d="M208.168,178.813 L142.1,159.84 C139.537,160.981 136.678,162.164 133.522,163.39 L200.626,182.659 L208.168,178.813" id="1034" class="unit"
		stroke="#dddddd"
		fill="white"
		stroke-width="0.5"
		/>
		
			<path d="M216.113,174.735 L150.298,155.846 C147.847,157.157 145.27,158.417 142.565,159.628 L208.591,178.602 L216.113,174.735" id="1035" class="unit"
		stroke="#dddddd"
		fill="white"
		stroke-width="0.5"
		/>
		
			<path d="M231.981,166.621 L162.764,146.74 L161.813,147.987 C161.039,148.86 159.692,149.973 157.777,151.325 L224.48,170.467 L231.981,166.621" id="1036" class="unit"
		stroke="#dddddd"
		fill="white"
		stroke-width="0.5"
		/>
		
			<path d="M183.936,139.366 L170.498,136.028 L166.757,141.205 L240.369,162.354 L270.75,146.804 L183.639,121.788 L172.125,127.661 L193.696,137.253 L183.936,139.366" id="1037" class="unit"
		stroke="#dddddd"
		fill="white"
		stroke-width="0.5"
		/>
		
			<path d="M152.074,169.051 L132.995,163.579 C129.967,164.733 126.846,165.84 123.635,166.896 L144.552,172.896 L152.074,169.051" id="1038" class="unit"
		stroke="#dddddd"
		fill="white"
		stroke-width="0.5"
		/>
		
			<path d="M165.977,28.78 L142.396,41.034 L238.255,68.544 L261.708,56.374 L165.977,28.78 Z M165.977,28.78" id="1039" class="unit"
		stroke="#dddddd"
		fill="white"
		stroke-width="0.5"
		/>
		
			<path d="M430.904,64.931 L380.767,90.559 L166.082,28.907 L216.219,3.278 L430.904,64.931 Z M430.904,64.931" id="1040" class="unit"
		stroke="#dddddd"
		fill="white"
		stroke-width="0.5"
		/>
		
			<path d="M183.936,139.013 L170.574,135.777 L172.125,128.013 L192.979,137.174 L183.936,139.013 Z M183.936,139.013" id="1041" class="unit"
		stroke="#dddddd"
		fill="white"
		stroke-width="0.5"
		/>
		
		</g>
	
		
 		
			<g class="public_transport"
				transform="translate(99.3,683.3) scale(0.7)"
				style="display: none"
				>
			
			</g>
		
			<g class="main_entrances"
				transform="translate(105.3,662.3) scale(0.7)"
				style="display: none"
				>
			
			</g>
		
			<g class="cash_machine"
				transform="translate(167.3,628.3) scale(0.7)"
				style="display: none"
				>
			
			</g>
		
			<g class="escalator"
				transform="translate(204.3,588.3) scale(0.7)"
				style="display: none"
				>
			
			</g>
		
			<g class="elevator"
				transform="translate(216.3,591.3) scale(0.7)"
				style="display: none"
				>
			
			</g>
		
			<g class="escalator"
				transform="translate(291.3,540.3) scale(0.7)"
				style="display: none"
				>
			
			</g>
		
			<g class="customer_services"
				transform="translate(287.3,551.3) scale(0.7)"
				style="display: none"
				>
			
			</g>
		
			<g class="cash_machine"
				transform="translate(281.3,564.3) scale(0.7)"
				style="display: none"
				>
			
			</g>
		
			<g class="elevator"
				transform="translate(297.3,568.3) scale(0.7)"
				style="display: none"
				>
			
			</g>
		
			<g class="escalator"
				transform="translate(312.3,572.3) scale(0.7)"
				style="display: none"
				>
			
			</g>
		
			<g class="shopmobility"
				transform="translate(327.3,576.3) scale(0.7)"
				style="display: none"
				>
			
			</g>
		
			<g class="toilets"
				transform="translate(336.3,580.3) scale(0.7)"
				style="display: none"
				>
			
			</g>
		
			<g class="disabled_toilet"
				transform="translate(349.3,583.3) scale(0.7)"
				style="display: none"
				>
			
			</g>
		
			<g class="baby_changing"
				transform="translate(366.3,590.3) scale(0.7)"
				style="display: none"
				>
			
			</g>
		
			<g class="click_and_collect"
				transform="translate(269.3,544.3) scale(0.7)"
				style="display: none"
				>
			
			</g>
		
	
</svg>