<svg
  xmlns="http://www.w3.org/2000/svg"
  xmlns:xlink="http://www.w3.org/1999/xlink"
  id="centre-map"
  version="1.1"
  >

  <!-- Icons -->
  <g class="baby_changing base-icon" transform="scale(0.7)">
    <path d="M22,11c0,6.075-4.925,11-11,11S0,17.075,0,11S4.925,0,11,0S22,4.925,22,11z" class="black" stroke="none" fill="#808285" stroke-width="0.5"/>
    <path d="M21,11c0,5.523-4.477,10-10,10C5.477,21,1,16.523,1,11C1,5.477,5.477,1,11,1C16.523,1,21,5.477,21,11z" class="white" stroke="none" fill="white" stroke-width="0.5"/>
    <path d="M10.991,5.092c-0.304,0-0.566,0.121-0.691,0.297l0,0C9.678,5.653,9.243,6.254,9.243,6.956l0,0 c0,0.944,0.787,1.708,1.758,1.708l0,0c0.972,0,1.757-0.764,1.757-1.708l0,0c0-0.702-0.438-1.304-1.058-1.567l0,0 c0.173-0.237,0.021-0.658,0.021-0.658l0,0C11.618,4.939,11.33,5.092,10.991,5.092L10.991,5.092z M7.062,8.973 c-0.439,0-0.723,0.274-0.723,0.635l0,0c0,0.377,0.283,0.651,0.723,0.651l0,0h2.146v1.812c0.204-0.154,0.594-0.358,1.086-0.17l0,0 c0.683,0.263,1.435,0.841,2.47,0.455l0,0v-2.097h2.172c0.426,0,0.727-0.274,0.727-0.651l0,0c0-0.361-0.301-0.635-0.727-0.635l0,0 H7.062z M11.641,13.884l1.063,1.027l-0.638,1.399c-0.172,0.377-0.034,0.754,0.305,0.898l0,0c0.355,0.15,0.734-0.004,0.906-0.38l0,0 l0.81-1.779c-0.001,0-0.001,0-0.001,0l0,0c0.123-0.249,0.07-0.549-0.168-0.78l0,0l-1.152-1.113L11.641,13.884z M8.09,14.271 c-0.24,0.23-0.293,0.53-0.167,0.779l0,0H7.921l0.81,1.779c0.17,0.376,0.549,0.531,0.905,0.38l0,0 c0.339-0.146,0.477-0.522,0.305-0.897l0,0l-0.637-1.4l1.065-1.027h0.024l-1.184-0.693L8.09,14.271z" class="black" stroke="none" fill="#808285" stroke-width="0.5"/>
  </g>
  <g class="cash_machine base-icon" transform="scale(0.7)">
    <path d="M22,11c0,6.075-4.925,11-11,11S0,17.075,0,11S4.925,0,11,0S22,4.925,22,11z" class="black" stroke="none" fill="#808285" stroke-width="0.5"/>
    <path d="M21,11c0,5.523-4.477,10-10,10C5.477,21,1,16.523,1,11C1,5.477,5.477,1,11,1C16.523,1,21,5.477,21,11z" class="white" stroke="none" fill="white" stroke-width="0.5"/>
    <path d="M17.625,6.652H4.375v4.488H7.42l1.668-3.366h4.729l-0.709,1.402h0.988l-0.957,1.964h4.486V6.652z" class="black" stroke="none" fill="#808285" stroke-width="0.5"/>
    <path d="M13.252,8.896l-0.145,0.268l-0.151,0.293h0.663l-2.693,5.33H6.854l0.599-1.121H7.087h-0.29L5.9,15.349h5.385l3.289-6.451 L13.252,8.896L13.252,8.896z" class="black" stroke="none" fill="#808285" stroke-width="0.5"/>
    <path d="M11.005,13.945H5.62l3.29-6.452h5.386L11.005,13.945L11.005,13.945z M6.574,13.384h4.073l2.694-5.329H9.268L6.574,13.384 L6.574,13.384z" class="black" stroke="none" fill="#808285" stroke-width="0.5"/>
    <path d="M10.282,10.618L9.75,10.504c-0.005-0.138-0.01-0.273,0.015-0.393c0.043-0.204,0.202-0.289,0.384-0.25 c0.128,0.027,0.195,0.068,0.257,0.101c0.038,0.02,0.088,0.049,0.132,0.059c0.116,0.025,0.23-0.062,0.255-0.178 c0.014-0.065,0.005-0.113-0.033-0.167c-0.079-0.112-0.316-0.235-0.553-0.285C9.782,9.299,9.395,9.488,9.301,9.929 c-0.033,0.156-0.009,0.314,0.005,0.481l-0.15-0.032c-0.109-0.024-0.196,0.027-0.219,0.136c-0.023,0.109,0.036,0.19,0.145,0.214 l0.215,0.045c-0.004,0.019-0.004,0.038-0.007,0.052c-0.053,0.251-0.159,0.374-0.262,0.5c-0.108,0.127-0.159,0.207-0.174,0.276 c-0.022,0.105,0.019,0.252,0.234,0.297l1.071,0.229c0.135,0.027,0.254-0.029,0.284-0.172c0.03-0.143-0.062-0.246-0.189-0.273 l-0.835-0.177c0.139-0.15,0.267-0.325,0.319-0.569c0.005-0.022,0.01-0.043,0.011-0.066l0.459,0.098 c0.109,0.023,0.196-0.027,0.219-0.136C10.451,10.722,10.406,10.644,10.282,10.618z" class="black" stroke="none" fill="#808285" stroke-width="0.5"/>
  </g>
  <g class="click_and_collect base-icon" transform="scale(0.7)">
    <path d="M22,11c0,6.075-4.925,11-11,11S0,17.075,0,11S4.925,0,11,0S22,4.925,22,11z" class="black" stroke="none" fill="#808285" stroke-width="0.5"/>
    <path d="M21,11c0,5.523-4.477,10-10,10C5.477,21,1,16.523,1,11C1,5.477,5.477,1,11,1C16.523,1,21,5.477,21,11z" class="white" stroke="none" fill="white" stroke-width="0.5"/>
    <path d="M11.394,4.638h-0.085v1.486c0.81,0.132,1.423,0.765,1.423,1.53v2.012c0,0.861-0.774,1.559-1.731,1.559 c-0.958,0-1.733-0.698-1.733-1.559V7.654c0-0.729,0.56-1.336,1.312-1.506v-1.51C8.665,4.653,7.116,6.2,7.116,8.109v5.782 c0,1.918,1.562,3.473,3.491,3.473h0.787c1.928,0,3.49-1.555,3.49-3.473V8.109C14.884,6.19,13.32,4.638,11.394,4.638L11.394,4.638z" id="Shape" class="black" stroke="none" fill="#808285" stroke-width="0.5"/>
    <path d="M9.94,7.979V9.34c0,0.583,0.475,1.055,1.06,1.055s1.061-0.472,1.061-1.055V7.979 c0-0.582-0.476-1.054-1.061-1.054S9.94,7.397,9.94,7.979L9.94,7.979z" id="Shape_1_" class="black" stroke="none" fill="#808285" stroke-width="0.5"/>
  </g>
  <g class="customer_services base-icon" transform="scale(0.7)">
    <path class="black" fill="#808285" d="M22,11c0,6.075-4.925,11-11,11S0,17.075,0,11S4.925,0,11,0S22,4.925,22,11z"/>
    <path class="white" fill="#FFFFFF" d="M21,11c0,5.523-4.477,10-10,10C5.477,21,1,16.523,1,11C1,5.477,5.477,1,11,1C16.523,1,21,5.477,21,11z"/>
    <path class="black" fill="#808285" d="M15.946,8.218C15.1,6.283,13.203,4.93,11,4.93S6.9,6.283,6.054,8.218C4.924,8.389,4.062,9.274,4.062,10.35 c0,1.057,0.834,1.935,1.936,2.126c0.376,1.044,1.068,2.215,2.252,3.062c-0.033,0.109-0.068,0.219-0.068,0.339 c0,0.658,0.534,1.192,1.192,1.192s1.192-0.534,1.192-1.192s-0.534-1.192-1.192-1.192c-0.328,0-0.625,0.133-0.84,0.348 c-1.136-0.828-1.769-1.988-2.087-2.973V8.827c0.667-1.923,2.446-3.312,4.552-3.312c2.107,0,3.887,1.391,4.554,3.315v3.687 c1.317,0,2.385-0.971,2.385-2.167C17.938,9.274,17.076,8.389,15.946,8.218z"/>
    <path class="black" fill="#808285" d="M13.255,10.448c-1.425,0-2.644-0.841-3.22-2.05c-0.474,0.999-1.387,1.748-2.497,1.977 c0,0.025-0.007,0.048-0.007,0.074c0,1.98,1.601,3.587,3.577,3.587s3.578-1.606,3.578-3.587c0-0.099-0.021-0.191-0.028-0.288 C14.227,10.345,13.753,10.448,13.255,10.448L13.255,10.448z"/>
  </g>
  <g class="disabled_toilets base-icon" transform="scale(0.7)">
    <path class="black" fill="#808285" d="M22,11c0,6.075-4.925,11-11,11S0,17.075,0,11S4.925,0,11,0S22,4.925,22,11z"/>
    <path class="white" fill="#FFFFFF" d="M21,11c0,5.523-4.477,10-10,10C5.477,21,1,16.523,1,11C1,5.477,5.477,1,11,1C16.523,1,21,5.477,21,11z"/>
    <path class="black" fill="#808285" d="M15.819,15.12l0.003,0.005l-0.752,0.478l-0.465,0.3l-0.002-0.003L14.6,15.902l-2.346-3.657H8.486V7.633 c-0.384-0.24-0.64-0.665-0.64-1.149c0-0.75,0.611-1.359,1.365-1.359c0.754,0,1.365,0.608,1.365,1.359 c0,0.484-0.255,0.909-0.639,1.149v1.299h3.483v1.444H9.937V10.8h3.112l1.99,3.103l0.798-0.515l0.762,1.229L15.819,15.12z M9.382,15.672c-1.528,0-2.771-1.238-2.771-2.76c0-1.021,0.562-1.913,1.392-2.39V9.194c-1.519,0.559-2.601,2.012-2.601,3.718 c0,2.188,1.782,3.963,3.98,3.963c1.679,0,3.114-1.035,3.699-2.499l-0.928-1.448C12.145,14.442,10.905,15.672,9.382,15.672z"/>
  </g>
  <g class="elevator base-icon" transform="scale(0.7)">
    <path d="M22,11c0,6.075-4.925,11-11,11S0,17.075,0,11S4.925,0,11,0S22,4.925,22,11z" class="black" stroke="none" fill="#808285" stroke-width="0.5"/>
    <path d="M21,11c0,5.523-4.477,10-10,10C5.477,21,1,16.523,1,11C1,5.477,5.477,1,11,1C16.523,1,21,5.477,21,11z" class="white" stroke="none" fill="white" stroke-width="0.5"/>
    <path d="M15.307,9.513H6.693c-0.728,0-1.318,0.416-1.318,0.93v5.577c0,0.515,0.59,0.932,1.318,0.932h8.614 c0.729,0,1.317-0.417,1.317-0.932v-5.577C16.625,9.929,16.034,9.513,15.307,9.513L15.307,9.513z M15.758,16.02 c0,0.104-0.122,0.188-0.273,0.188H6.517c-0.152,0-0.275-0.083-0.275-0.188v-5.577c0-0.103,0.123-0.186,0.275-0.186h8.965 c0.151,0,0.273,0.083,0.273,0.186L15.758,16.02L15.758,16.02z" class="black" stroke="none" fill="#808285" stroke-width="0.5"/>
    <path d="M8.298,11c0.216,0,0.391,0.167,0.391,0.372c0,0.206-0.175,0.372-0.391,0.372c-0.216,0-0.391-0.166-0.391-0.372 C7.907,11.167,8.082,11,8.298,11z" class="black" stroke="none" fill="#808285" stroke-width="0.5"/>
    <path d="M10.873,11c0.216,0,0.391,0.167,0.391,0.372c0,0.206-0.175,0.372-0.391,0.372s-0.391-0.166-0.391-0.372 C10.482,11.167,10.657,11,10.873,11z" class="black" stroke="none" fill="#808285" stroke-width="0.5"/>
    <path d="M13.635,11c0.217,0,0.391,0.167,0.391,0.372c0,0.206-0.174,0.372-0.391,0.372c-0.216,0-0.391-0.166-0.391-0.372 C13.244,11.167,13.419,11,13.635,11z" class="black" stroke="none" fill="#808285" stroke-width="0.5"/>
    <path d="M8.805,11.867H7.762c-0.144,0-0.261,0.119-0.261,0.266v1.328c0,0.124,0.083,0.229,0.196,0.257v1.62 c0,0.137,0.117,0.248,0.26,0.248c0.145,0,0.261-0.111,0.261-0.248v-1.611h0.13v1.611c0,0.137,0.117,0.248,0.261,0.248 s0.261-0.111,0.261-0.248v-1.62c0.112-0.028,0.196-0.133,0.196-0.257v-1.328C9.066,11.986,8.949,11.867,8.805,11.867L8.805,11.867z" class="black" stroke="none" fill="#808285" stroke-width="0.5"/>
    <path d="M11.379,11.867h-1.042c-0.144,0-0.261,0.119-0.261,0.266v1.328c0,0.124,0.083,0.229,0.196,0.257v1.62 c0,0.137,0.117,0.248,0.26,0.248c0.145,0,0.261-0.111,0.261-0.248v-1.611h0.13v1.611c0,0.137,0.117,0.248,0.261,0.248 s0.26-0.111,0.26-0.248v-1.62c0.113-0.028,0.197-0.133,0.197-0.257v-1.328C11.641,11.986,11.523,11.867,11.379,11.867L11.379,11.867 z" class="black" stroke="none" fill="#808285" stroke-width="0.5"/>
    <path d="M14.143,11.867H13.1c-0.145,0-0.261,0.119-0.261,0.266v1.328c0,0.124,0.082,0.229,0.194,0.257v1.62 c0,0.137,0.117,0.248,0.262,0.248s0.262-0.111,0.262-0.248v-1.611h0.129v1.611c0,0.137,0.117,0.248,0.263,0.248 c0.144,0,0.261-0.111,0.261-0.248v-1.62c0.111-0.028,0.193-0.133,0.193-0.257v-1.328C14.402,11.986,14.286,11.867,14.143,11.867 L14.143,11.867z" class="black" stroke="none" fill="#808285" stroke-width="0.5"/>
    <path d="M10.257,6.436l-1.303-1.24c-0.204-0.194-0.534-0.194-0.737,0l0,0l-1.304,1.24 c-0.203,0.194-0.203,0.508,0,0.701c0.204,0.193,0.534,0.193,0.738,0l0.413-0.393v1.777c0,0.274,0.233,0.496,0.521,0.496 s0.521-0.222,0.521-0.496V6.744L9.52,7.137c0.204,0.193,0.534,0.193,0.737,0C10.46,6.944,10.461,6.629,10.257,6.436L10.257,6.436z" class="black" stroke="none" fill="#808285" stroke-width="0.5"/>
    <path d="M14.99,6.931c-0.203-0.193-0.533-0.193-0.737,0L13.84,7.324V5.547c0-0.274-0.232-0.496-0.521-0.496 c-0.285,0-0.521,0.222-0.521,0.496v1.777l-0.414-0.393c-0.202-0.193-0.532-0.193-0.737,0c-0.203,0.194-0.203,0.508,0,0.702 l1.306,1.239l0,0c0.038,0.037,0.081,0.066,0.126,0.089c0.195,0.098,0.443,0.069,0.609-0.089l0,0l1.305-1.239 C15.193,7.439,15.193,7.125,14.99,6.931L14.99,6.931z" class="black" stroke="none" fill="#808285" stroke-width="0.5"/>
  </g>
  <g class="lift base-icon" transform="scale(0.7)">
    <path d="M22,11c0,6.075-4.925,11-11,11S0,17.075,0,11S4.925,0,11,0S22,4.925,22,11z" class="black" stroke="none" fill="#808285" stroke-width="0.5"/>
    <path d="M21,11c0,5.523-4.477,10-10,10C5.477,21,1,16.523,1,11C1,5.477,5.477,1,11,1C16.523,1,21,5.477,21,11z" class="white" stroke="none" fill="white" stroke-width="0.5"/>
    <path d="M15.307,9.513H6.693c-0.728,0-1.318,0.416-1.318,0.93v5.577c0,0.515,0.59,0.932,1.318,0.932h8.614 c0.729,0,1.317-0.417,1.317-0.932v-5.577C16.625,9.929,16.034,9.513,15.307,9.513L15.307,9.513z M15.758,16.02 c0,0.104-0.122,0.188-0.273,0.188H6.517c-0.152,0-0.275-0.083-0.275-0.188v-5.577c0-0.103,0.123-0.186,0.275-0.186h8.965 c0.151,0,0.273,0.083,0.273,0.186L15.758,16.02L15.758,16.02z" class="black" stroke="none" fill="#808285" stroke-width="0.5"/>
    <path d="M8.298,11c0.216,0,0.391,0.167,0.391,0.372c0,0.206-0.175,0.372-0.391,0.372c-0.216,0-0.391-0.166-0.391-0.372 C7.907,11.167,8.082,11,8.298,11z" class="black" stroke="none" fill="#808285" stroke-width="0.5"/>
    <path d="M10.873,11c0.216,0,0.391,0.167,0.391,0.372c0,0.206-0.175,0.372-0.391,0.372s-0.391-0.166-0.391-0.372 C10.482,11.167,10.657,11,10.873,11z" class="black" stroke="none" fill="#808285" stroke-width="0.5"/>
    <path d="M13.635,11c0.217,0,0.391,0.167,0.391,0.372c0,0.206-0.174,0.372-0.391,0.372c-0.216,0-0.391-0.166-0.391-0.372 C13.244,11.167,13.419,11,13.635,11z" class="black" stroke="none" fill="#808285" stroke-width="0.5"/>
    <path d="M8.805,11.867H7.762c-0.144,0-0.261,0.119-0.261,0.266v1.328c0,0.124,0.083,0.229,0.196,0.257v1.62 c0,0.137,0.117,0.248,0.26,0.248c0.145,0,0.261-0.111,0.261-0.248v-1.611h0.13v1.611c0,0.137,0.117,0.248,0.261,0.248 s0.261-0.111,0.261-0.248v-1.62c0.112-0.028,0.196-0.133,0.196-0.257v-1.328C9.066,11.986,8.949,11.867,8.805,11.867L8.805,11.867z" class="black" stroke="none" fill="#808285" stroke-width="0.5"/>
    <path d="M11.379,11.867h-1.042c-0.144,0-0.261,0.119-0.261,0.266v1.328c0,0.124,0.083,0.229,0.196,0.257v1.62 c0,0.137,0.117,0.248,0.26,0.248c0.145,0,0.261-0.111,0.261-0.248v-1.611h0.13v1.611c0,0.137,0.117,0.248,0.261,0.248 s0.26-0.111,0.26-0.248v-1.62c0.113-0.028,0.197-0.133,0.197-0.257v-1.328C11.641,11.986,11.523,11.867,11.379,11.867L11.379,11.867 z" class="black" stroke="none" fill="#808285" stroke-width="0.5"/>
    <path d="M14.143,11.867H13.1c-0.145,0-0.261,0.119-0.261,0.266v1.328c0,0.124,0.082,0.229,0.194,0.257v1.62 c0,0.137,0.117,0.248,0.262,0.248s0.262-0.111,0.262-0.248v-1.611h0.129v1.611c0,0.137,0.117,0.248,0.263,0.248 c0.144,0,0.261-0.111,0.261-0.248v-1.62c0.111-0.028,0.193-0.133,0.193-0.257v-1.328C14.402,11.986,14.286,11.867,14.143,11.867 L14.143,11.867z" class="black" stroke="none" fill="#808285" stroke-width="0.5"/>
    <path d="M10.257,6.436l-1.303-1.24c-0.204-0.194-0.534-0.194-0.737,0l0,0l-1.304,1.24 c-0.203,0.194-0.203,0.508,0,0.701c0.204,0.193,0.534,0.193,0.738,0l0.413-0.393v1.777c0,0.274,0.233,0.496,0.521,0.496 s0.521-0.222,0.521-0.496V6.744L9.52,7.137c0.204,0.193,0.534,0.193,0.737,0C10.46,6.944,10.461,6.629,10.257,6.436L10.257,6.436z" class="black" stroke="none" fill="#808285" stroke-width="0.5"/>
    <path d="M14.99,6.931c-0.203-0.193-0.533-0.193-0.737,0L13.84,7.324V5.547c0-0.274-0.232-0.496-0.521-0.496 c-0.285,0-0.521,0.222-0.521,0.496v1.777l-0.414-0.393c-0.202-0.193-0.532-0.193-0.737,0c-0.203,0.194-0.203,0.508,0,0.702 l1.306,1.239l0,0c0.038,0.037,0.081,0.066,0.126,0.089c0.195,0.098,0.443,0.069,0.609-0.089l0,0l1.305-1.239 C15.193,7.439,15.193,7.125,14.99,6.931L14.99,6.931z" class="black" stroke="none" fill="#808285" stroke-width="0.5"/>
  </g>
  <g class="escalator base-icon" transform="scale(0.7)">
    <path d="M22,11c0,6.075-4.925,11-11,11S0,17.075,0,11S4.925,0,11,0S22,4.925,22,11z" class="black" stroke="none" fill="#808285" stroke-width="0.5"/>
    <path d="M21,11c0,5.523-4.477,10-10,10C5.477,21,1,16.523,1,11C1,5.477,5.477,1,11,1C16.523,1,21,5.477,21,11z" class="white" stroke="none" fill="white" stroke-width="0.5"/>
    <path d="M10.045,7.51c0.464,0,0.849-0.413,0.849-0.952c0-0.521-0.384-0.953-0.849-0.953 c-0.465,0-0.849,0.432-0.849,0.953C9.196,7.097,9.58,7.51,10.045,7.51 M8.523,15.356c-0.1,0.104-0.352,0.191-0.501,0.191H6.014 c-0.468,0-0.853-0.401-0.853-0.892c0-0.491,0.385-0.895,0.853-0.895h1.154c0.335,0,0.687-0.192,0.871-0.385 c0.3-0.314,5.354-5.569,5.438-5.673c0.101-0.106,0.352-0.193,0.502-0.193h2.007c0.468,0,0.854,0.403,0.854,0.893 c0,0.49-0.386,0.894-0.854,0.894h-1.153c-0.336,0-0.687,0.192-0.889,0.386C13.659,9.997,8.607,15.268,8.523,15.356 M14.579,10.33 c0.115-0.104,0.2-0.139,0.366-0.139h1.054c0.936,0,1.688-0.782,1.688-1.772c0-0.973-0.753-1.755-1.688-1.755h-1.973 c-0.485,0-0.937,0.209-1.204,0.486l-1.956,2.034V8.609c0-0.504-0.402-0.921-0.887-0.921S9.094,8.105,9.094,8.609v2.381l-1.655,1.72 c-0.101,0.104-0.201,0.14-0.369,0.14H6.017c-0.936,0-1.705,0.799-1.705,1.774c0,0.972,0.752,1.771,1.705,1.771H7.99 c0.485,0,0.937-0.226,1.205-0.486C9.511,15.579,14.495,10.434,14.579,10.33" id="Shape" class="black" stroke="none" fill="#808285" stroke-width="0.5"/>
  </g>
  <g class="parking base-icon" transform="scale(0.7)">
    <path d="M22,11c0,6.075-4.925,11-11,11S0,17.075,0,11S4.925,0,11,0S22,4.925,22,11z" class="black" stroke="none" fill="#808285" stroke-width="0.5"/>
    <path d="M21,11c0,5.523-4.477,10-10,10C5.477,21,1,16.523,1,11C1,5.477,5.477,1,11,1C16.523,1,21,5.477,21,11z" class="white" stroke="none" fill="white" stroke-width="0.5"/>
    <path d="M12.096,6.256H7.95v9.848h2.098v-3.318h2.048c1.588,0,2.931-1.316,2.931-2.872 l0.004-0.791C15.03,7.571,13.686,6.259,12.096,6.256L12.096,6.256z M12.933,9.919c0,0.413-0.414,0.819-0.837,0.819h-2.048V8.308 h2.048l0.072-0.001c0.373,0.038,0.722,0.377,0.765,0.741V9.919L12.933,9.919z" id="Shape_1_" class="black" stroke="none" fill="#808285" stroke-width="0.5"/>
  </g>
  <g class="public_telephone base-icon" transform="scale(0.7)">
    <path d="M22,11c0,6.075-4.925,11-11,11S0,17.075,0,11S4.925,0,11,0S22,4.925,22,11z" class="black" stroke="none" fill="#808285" stroke-width="0.5"/>
    <path d="M21,11c0,5.523-4.477,10-10,10C5.477,21,1,16.523,1,11C1,5.477,5.477,1,11,1C16.523,1,21,5.477,21,11z" class="white" stroke="none" fill="white" stroke-width="0.5"/>
    <path d="M16.509,16.453c-1.022,1.599-2.764,1.604-3.314,1.506 c-0.162-0.028-2.707-0.339-5.724-4.416c-2.429-3.28-2.26-6.317-2.192-6.887C5.346,6.1,5.747,4.746,7.828,4.055 c0.258-0.085,0.734-0.06,0.833,0.083C8.706,4.2,9.837,7.105,9.864,7.2s0.032,0.184,0.018,0.267C9.86,7.587,9.749,7.721,9.546,7.871 S9.129,8.152,8.902,8.267C8.674,8.381,8.46,8.508,8.26,8.645c-0.2,0.138-0.31,0.261-0.329,0.369 c-0.038,0.282,0.015,1.325,1.491,3.168c1.476,1.843,2.241,2.424,2.318,2.469c0.075,0.044,0.14,0.07,0.193,0.08 c0.108,0.02,0.262-0.043,0.459-0.184c0.198-0.141,0.898-0.814,1.108-0.954c0.209-0.139,0.374-0.198,0.495-0.177 c0.084,0.015,0.165,0.051,0.244,0.108c0.08,0.057,2.436,2.058,2.477,2.118C16.828,15.806,16.656,16.225,16.509,16.453" id="Shape" class="black" stroke="none" fill="#808285" stroke-width="0.5"/>
  </g>
  <g class="public_transport base-icon" transform="scale(0.7)">
    <path fill="#808285" d="M22,11c0,6.075-4.925,11-11,11S0,17.075,0,11S4.925,0,11,0S22,4.925,22,11z" class="black"/>
    <path fill="#FFF" d="M21,11c0,5.523-4.477,10-10,10C5.477,21,1,16.523,1,11C1,5.477,5.477,1,11,1C16.523,1,21,5.477,21,11z" class="white"/>
    <path fill="#808285" d="M8.948,14.255c-0.231,0-0.418,0.188-0.418,0.422c0,0.234,0.187,0.423,0.418,0.423 c0.231,0,0.418-0.188,0.418-0.423C9.366,14.443,9.18,14.255,8.948,14.255" class="black"/>
    <path fill="#808285" d="M7.924,14.346c-0.183,0-0.33,0.147-0.33,0.33c0,0.186,0.147,0.333,0.33,0.333 c0.182,0,0.329-0.147,0.329-0.333C8.253,14.493,8.106,14.346,7.924,14.346" class="black"/>
    <path fill="#808285" d="M13.052,15.1c0.231,0,0.419-0.188,0.419-0.424c0-0.232-0.188-0.421-0.419-0.421 c-0.229,0-0.419,0.188-0.419,0.421C12.633,14.91,12.82,15.1,13.052,15.1" class="black"/>
    <path fill="#808285" d="M14.076,15.009c0.183,0,0.33-0.147,0.33-0.332c0-0.184-0.147-0.331-0.33-0.331  c-0.184,0-0.329,0.147-0.329,0.331C13.747,14.861,13.895,15.009,14.076,15.009" class="black"/>
    <path fill="#808285" d="M16.297,7.144c-0.078-0.283-0.32-0.48-0.587-0.48c-0.024,0-0.047,0.004-0.071,0.007 c-0.004-0.038-0.009-0.075-0.014-0.112c-0.023-0.177-0.159-0.317-0.335-0.346c-0.147-0.024-0.298-0.046-0.446-0.068 C14.201,5.69,12.695,5.235,11,5.235h-0.014h-0.012c-1.695,0-3.201,0.456-3.843,0.909c-0.15,0.022-0.299,0.045-0.447,0.068 C6.508,6.241,6.373,6.381,6.349,6.558C6.344,6.595,6.34,6.631,6.335,6.668C6.32,6.667,6.306,6.664,6.291,6.664  c-0.267,0-0.509,0.198-0.587,0.48C5.458,8.03,5.334,8.95,5.336,9.878c0,0.382,0.276,0.692,0.614,0.692h0.008  c0.04,0,0.081-0.002,0.12-0.002c-0.002,1.569,0.116,3.138,0.356,4.698c0.026,0.168,0.155,0.305,0.323,0.336 C6.879,15.623,7,15.645,7.122,15.665v0.722c0,0.209,0.168,0.379,0.375,0.379h0.657c0.207,0,0.375-0.17,0.375-0.379v-0.523 c0.82,0.089,1.642,0.136,2.458,0.136c0.824,0,1.654-0.048,2.484-0.14v0.527c0,0.209,0.168,0.379,0.375,0.379h0.656  c0.207,0,0.375-0.17,0.375-0.379V15.66c0.113-0.02,0.227-0.038,0.338-0.061c0.168-0.031,0.299-0.166,0.324-0.336  c0.238-1.559,0.357-3.128,0.355-4.697c0.049,0,0.098,0.002,0.146,0.002h0.009c0.338,0,0.614-0.31,0.614-0.692 C16.666,8.95,16.543,8.03,16.297,7.144L16.297,7.144z M6.747,6.613c0.181-0.03,0.362-0.056,0.543-0.082 C7.771,6.133,9.249,5.64,10.974,5.64h0.014H11c1.725,0,3.204,0.493,3.684,0.891c0.183,0.026,0.362,0.053,0.543,0.082  c0.01,0.061,0.017,0.122,0.023,0.182c-0.072,0.025-0.143,0.051-0.215,0.077c-0.109,0.039-0.201,0.107-0.27,0.192  c-1.099-0.428-2.392-0.676-3.779-0.676c-1.378,0-2.664,0.246-3.758,0.668C7.161,6.975,7.071,6.91,6.965,6.872 c-0.081-0.028-0.16-0.057-0.239-0.086C6.733,6.728,6.739,6.67,6.747,6.613L6.747,6.613z M7.223,8.025h7.554l0.049,0.3 c-0.012,0.003-0.021,0.004-0.033,0.004H7.207c-0.01,0-0.021-0.001-0.031-0.003L7.223,8.025L7.223,8.025z M6.466,10.155  c-0.17,0.005-0.341,0.008-0.513,0.01H5.95c-0.1,0-0.212-0.123-0.212-0.288c-0.002-0.89,0.116-1.773,0.353-2.624 c0.03-0.108,0.112-0.184,0.2-0.184c0.018,0,0.036,0.003,0.055,0.01C6.508,7.14,6.67,7.198,6.832,7.253  c0.11,0.04,0.171,0.162,0.14,0.277C6.76,8.304,6.656,9.107,6.662,9.917C6.663,10.044,6.574,10.152,6.466,10.155L6.466,10.155z M15.143,15.202c-1.385,0.26-2.771,0.391-4.155,0.391c-1.386,0-2.771-0.131-4.156-0.391c-0.092-0.593-0.164-1.183-0.22-1.775h0.759 c0.19,0,0.43-0.122,0.505-0.303c0.168-0.401-0.15-0.995-0.331-1.34c-0.236-0.453-0.508-0.888-0.717-1.355 c0.121-0.099,0.205-0.245,0.228-0.413c0.791,1.835,2.4,3.411,3.959,3.411c1.885,0,3.793-0.813,4.43-1.112 C15.393,13.277,15.291,14.24,15.143,15.202L15.143,15.202z M16.05,10.165h-0.002c-0.173-0.001-0.344-0.004-0.514-0.009  c-0.108-0.003-0.196-0.111-0.196-0.238c0.008-0.81-0.098-1.613-0.309-2.387c-0.031-0.116,0.027-0.238,0.139-0.277 c0.162-0.056,0.324-0.114,0.488-0.174c0.018-0.007,0.035-0.01,0.054-0.01c0.088,0,0.17,0.076,0.199,0.184 c0.235,0.851,0.354,1.734,0.353,2.624C16.262,10.042,16.148,10.165,16.05,10.165L16.05,10.165z" class="black"/>
  </g>
  <g class="shop_mobility base-icon" transform="scale(0.7)">
    <path d="M22,11c0,6.075-4.925,11-11,11S0,17.075,0,11S4.925,0,11,0S22,4.925,22,11z" class="black" stroke="none" fill="#808285" stroke-width="0.5"/>
    <path d="M21,11c0,5.523-4.477,10-10,10C5.477,21,1,16.523,1,11C1,5.477,5.477,1,11,1C16.523,1,21,5.477,21,11z" class="white" stroke="none" fill="white" stroke-width="0.5"/>
    <path d="M12.418,14.014l-0.498-2.541H8.462l-0.127-0.819h2.036V9.81H8.205L7.956,8.207 c0.57-0.003,1.033-0.477,1.033-1.059c0-0.583-0.466-1.059-1.039-1.059c-0.573,0-1.039,0.475-1.039,1.059 c0,0.056,0.008,0.109,0.016,0.162L6.925,7.312l0.83,5.004h3.487l0.554,2.824l1.61-0.597l-0.283-0.793L12.418,14.014z" class="black" stroke="none" fill="#808285" stroke-width="0.5"/>
    <path d="M11.173,13.498c-0.21-0.091-0.453,0.009-0.542,0.223c-0.43,1.032-0.909,1.348-2.049,1.348 c-1.281,0-2.322-1.062-2.322-2.367c0-0.871,0.223-1.369,0.852-1.903c0.175-0.149,0.199-0.415,0.053-0.594 C7.018,10.024,6.757,10,6.582,10.149c-0.817,0.693-1.15,1.432-1.15,2.551c0,1.771,1.413,3.212,3.15,3.212 c1.465,0,2.253-0.521,2.811-1.861C11.482,13.837,11.384,13.589,11.173,13.498" class="black" stroke="none" fill="#808285" stroke-width="0.5"/>
    <path d="M14.955,15.348c-0.421,0-0.764-0.35-0.764-0.777s0.343-0.777,0.764-0.777s0.763,0.35,0.763,0.777 S15.376,15.348,14.955,15.348 M14.955,13.255c-0.711,0-1.29,0.591-1.29,1.313c0,0.725,0.579,1.314,1.29,1.314 s1.289-0.59,1.289-1.314C16.244,13.846,15.666,13.255,14.955,13.255" class="black" stroke="none" fill="#808285" stroke-width="0.5"/>
    <path d="M14.441,10.106l0.068,0.735h-0.428l-0.145-0.735H14.441z M14.593,11.7h-0.341l-0.113-0.585h0.399L14.593,11.7z M14.678,12.59h-0.252l-0.119-0.615h0.312L14.678,12.59z M15.492,10.106L15.4,10.841h-0.619l-0.07-0.735H15.492z M15.848,11.975 c0.019,0,0.035-0.004,0.051-0.011l-0.125,0.626H15.45l0.077-0.615H15.848z M15.637,11.115h0.43h0.002l-0.125,0.626 c-0.025-0.025-0.06-0.041-0.096-0.041h-0.285L15.637,11.115z M15.76,10.136c0.002-0.01,0.002-0.02,0.001-0.03h0.509l-0.149,0.747 c-0.017-0.007-0.034-0.011-0.054-0.011H15.67L15.76,10.136z M15.292,11.7h-0.429l-0.057-0.585h0.56L15.292,11.7z M15.18,12.59h-0.23 l-0.059-0.615h0.366L15.18,12.59z M13.666,13.02l0.757-0.154h0.362c0.017,0.006,0.035,0.009,0.055,0.007 c0.012-0.002,0.021-0.003,0.029-0.007h0.386c0.009,0.004,0.017,0.005,0.024,0.006c0.006,0.001,0.012,0.001,0.018,0.001 c0.016,0,0.029-0.002,0.042-0.007h0.544c0.064,0,0.119-0.047,0.133-0.109l0.551-2.758c0.008-0.041-0.004-0.083-0.028-0.114 c-0.024-0.032-0.063-0.051-0.104-0.051h-2.549h-0.111h-2.771v0.844h2.205L13.666,13.02z" class="black" stroke="none" fill="#808285" stroke-width="0.5"/>
  </g>
  <g class="toilets base-icon" transform="scale(0.7)">
    <path d="M22,11c0,6.075-4.925,11-11,11S0,17.075,0,11S4.925,0,11,0S22,4.925,22,11z" class="black" stroke="none" fill="#808285" stroke-width="0.5"/>
    <path d="M21,11c0,5.523-4.477,10-10,10C5.477,21,1,16.523,1,11C1,5.477,5.477,1,11,1C16.523,1,21,5.477,21,11z" class="white" stroke="none" fill="white" stroke-width="0.5"/>
    <path d="M7.3,12.711v3.176c0,0.124-0.041,0.229-0.118,0.303c-0.078,0.078-0.179,0.115-0.303,0.115 c-0.125,0-0.232-0.037-0.316-0.115c-0.089-0.074-0.13-0.179-0.13-0.303v-3.176H5.239l1.242-4.182H6.268 c-0.136,0.47-0.251,0.847-0.34,1.145c-0.082,0.298-0.171,0.58-0.249,0.853c-0.089,0.268-0.148,0.438-0.155,0.497 c-0.054,0.177-0.171,0.263-0.356,0.263l-0.094-0.023c-0.173-0.062-0.256-0.175-0.256-0.333c0-0.043,0.006-0.079,0.024-0.114 c0.012-0.031,0.047-0.136,0.089-0.314c0.048-0.177,0.112-0.397,0.19-0.652c0.077-0.26,0.16-0.541,0.249-0.843 c0.089-0.303,0.172-0.595,0.273-0.876c0.06-0.215,0.19-0.411,0.392-0.581c0.202-0.177,0.411-0.256,0.629-0.256h1.461 c0.226,0,0.445,0.08,0.642,0.256C8.958,7.72,9.095,7.916,9.171,8.132C9.253,8.414,9.337,8.706,9.42,9.008 C9.504,9.31,9.594,9.591,9.665,9.851c0.076,0.255,0.143,0.475,0.189,0.652c0.047,0.178,0.078,0.283,0.095,0.314l0.023,0.094 c0,0.19-0.089,0.303-0.261,0.353l-0.09,0.023c-0.188,0-0.309-0.085-0.355-0.263c-0.013-0.059-0.065-0.229-0.136-0.497 c-0.083-0.272-0.167-0.554-0.262-0.853C8.773,9.375,8.661,8.999,8.524,8.529H8.31l1.24,4.182H8.375v3.176 c0,0.124-0.036,0.229-0.131,0.303c-0.083,0.078-0.185,0.115-0.309,0.115c-0.131,0-0.227-0.037-0.309-0.115 c-0.078-0.074-0.113-0.179-0.113-0.303v-3.176H7.3L7.3,12.711z" class="black" stroke="none" fill="#808285" stroke-width="0.5"/>
    <path d="M7.418,7.033c0.25,0,0.465-0.081,0.631-0.252C8.221,6.605,8.31,6.388,8.31,6.126 c0-0.249-0.089-0.463-0.261-0.64c-0.166-0.181-0.38-0.272-0.631-0.272c-0.266,0-0.487,0.091-0.67,0.272 c-0.179,0.177-0.267,0.391-0.267,0.64c0,0.262,0.088,0.479,0.267,0.654C6.931,6.952,7.152,7.033,7.418,7.033L7.418,7.033z" class="black" stroke="none" fill="#808285" stroke-width="0.5"/>
    <path d="M13.977,7.268c-0.32,0-0.595,0.118-0.826,0.346c-0.231,0.238-0.352,0.515-0.352,0.823v2.85 c0,0.107,0.037,0.205,0.119,0.281c0.077,0.078,0.172,0.113,0.28,0.113c0.124,0,0.22-0.035,0.296-0.113 c0.066-0.076,0.102-0.174,0.102-0.281V8.739h0.209v7.056c0,0.137,0.06,0.262,0.172,0.357c0.105,0.106,0.23,0.152,0.373,0.152 c0.154,0,0.279-0.046,0.381-0.152c0.105-0.098,0.154-0.223,0.154-0.357v-4.091h0.23v4.091c0,0.137,0.054,0.262,0.154,0.357 c0.102,0.106,0.231,0.152,0.394,0.152c0.136,0,0.254-0.046,0.362-0.152c0.1-0.098,0.146-0.223,0.146-0.357V8.739h0.215v2.548 c0,0.107,0.035,0.205,0.106,0.281c0.084,0.078,0.184,0.113,0.291,0.113c0.125,0,0.221-0.035,0.292-0.113 c0.063-0.076,0.106-0.174,0.106-0.281v-2.85c0-0.308-0.113-0.585-0.346-0.823c-0.227-0.229-0.499-0.346-0.831-0.346H13.977 L13.977,7.268z" class="black" stroke="none" fill="#808285" stroke-width="0.5"/>
    <path d="M14.997,7.033c0.25,0,0.469-0.081,0.647-0.252c0.176-0.175,0.267-0.392,0.267-0.654 c0-0.249-0.091-0.463-0.267-0.64c-0.18-0.181-0.397-0.272-0.647-0.272c-0.261,0-0.481,0.091-0.647,0.272 c-0.178,0.177-0.261,0.391-0.261,0.64c0,0.262,0.083,0.479,0.261,0.654C14.516,6.952,14.736,7.033,14.997,7.033L14.997,7.033z" class="black" stroke="none" fill="#808285" stroke-width="0.5"/>
    <path d="M10.961,4.485h0.902v13.029h-0.902V4.485z" class="black" stroke="none" fill="#808285" stroke-width="0.5"/>
  </g>

  <!-- Areas -->
  <g transform="translate(280,0)">
    <path fill="#f68b1f" stroke-width=".5" d="M85.818 40.936L15.935 28.611.232 75.544l2.028 8.227 31.82 5.611 4.877-1.65 7.702-23.022 10.903 1.924.645-1.93 5.052.891 1.297-3.873 18.025 3.176 5.266-15.736-2.029-8.226zm0 0" class="outline"/>
    <path fill="#f68b1f" stroke-width=".5" d="M23.627.543c-.288 0-.512.176-.592.513-1.28 5.874-2.385 8.483-3.121 9.604-.736-1.12-1.825-3.729-3.137-9.604-.08-.337-.304-.513-.592-.513-.352 0-.608.24-.608.625 0 .111.048.287.096.512 1.057 4.467 1.825 6.771 2.705 8.579.608 1.249.96 1.617 1.521 1.617.561 0 .913-.368 1.521-1.617.88-1.809 1.633-4.098 2.721-8.579.048-.225.096-.399.096-.512-.001-.385-.257-.625-.61-.625zM5.771 10.611H1.465V1.199c0-.4-.256-.656-.608-.656-.353 0-.625.256-.625.656v9.637c0 .592.368.96 1.057.96H5.77c.4 0 .656-.271.656-.608.001-.304-.239-.577-.655-.577zm8.08-.032h-4.77V6.722h3.874a.588.588 0 0 0 .592-.592.567.567 0 0 0-.592-.576H9.081V1.825h4.61c.416 0 .64-.272.64-.576 0-.336-.224-.641-.64-.641H8.905c-.688 0-1.057.367-1.057.961v9.268c0 .592.368.96 1.057.96h4.946c.384 0 .608-.336.608-.607 0-.338-.224-.611-.608-.611zm18.096 0h-4.77V6.722h3.874a.588.588 0 0 0 .592-.592.567.567 0 0 0-.592-.576h-3.874V1.825h4.61c.416 0 .64-.272.64-.576 0-.336-.224-.641-.64-.641h-4.786c-.688 0-1.057.367-1.057.961v9.268c0 .592.368.96 1.057.96h4.946c.384 0 .608-.336.608-.607 0-.338-.224-.611-.608-.611zm7.871.032h-4.306V1.199c0-.4-.256-.656-.608-.656-.353 0-.625.256-.625.656v9.637c0 .592.368.96 1.057.96h4.481c.4 0 .656-.271.656-.608.002-.304-.238-.577-.655-.577zm10.88-5.074c-.433 0-.624.271-.624.673v1.809h-3.953v-.017c.848-2.337 2.593-4.625 4.722-6.45a.613.613 0 0 0 .192-.448c0-.305-.24-.561-.593-.561-.225 0-.416.16-.561.305-1.602 1.424-3.698 3.683-4.931 6.866-.144.385-.128.496-.128.688 0 .465.368.735.816.735h4.434v2.049c0 .4.191.674.624.674s.607-.288.607-.674V6.208c.003-.383-.173-.671-.605-.671zm0 0" class="Shape"/>
    <path fill="#989898" stroke-width=".5" d="M84.779 42.047L16.795 30.058 1.559 75.598l1.78 7.061 30.68 5.41 3.968-1.341 7.85-23.465 10.903 1.925.645-1.93 5.053.89 1.295-3.873 18.027 3.18 4.799-14.347-1.78-7.061zm0 0" class="wall"/>
    <path id="unit-4001" fill="#fff" stroke="#ddd" stroke-width=".5" d="M43.135 58.961l-6.927 20.702-3.968 1.343-30.681-5.41 7.572-22.632 34.004 5.997zm0 0" class="unit"/>
    <path id="unit-4002" fill="#fff" stroke="#ddd" stroke-width=".5" d="M84.779 42.044L79.98 56.388l-18.025-3.177-1.297 3.874-5.053-.892-.645 1.93-10.902-1.924-.552 1.649-34.003-5.995 7.292-21.795 67.984 11.986zm0 0" class="unit"/>
  </g>
  <g transform="translate(0,0)">
    <path fill="#f68b1f" stroke-width=".5" d="M247.3 68.2L236.8 64l-13.6-2.4-1.2 3.8-30.9-5.5-1.4 4.1L88.6 46.9 87 40.7 16.8 28.4 1 75.5 3.1 84l25.3 4.4-.1.1 47.3 7.9 1.1 4.3 7.4 1.3-.9 2.8 2 8 136 24 7.7-15 2.8-8.1 4.7.9L249.3 76l-2-7.8zm0 0" class="outline"/>
    <path fill="#f68b1f" stroke-width=".5" d="M14.9 10.6h-4.8V6.7H14c.4 0 .6-.3.6-.6s-.2-.6-.6-.6h-3.9V1.8h4.6c.4 0 .6-.3.6-.6s-.2-.6-.6-.6H9.9c-.7 0-1.1.4-1.1 1v9.3c0 .6.4 1 1.1 1h4.9c.4 0 .6-.3.6-.6.1-.4-.2-.7-.5-.7zm-8.1 0H2.5V1.2c0-.4-.3-.7-.6-.7-.4 0-.6.3-.6.7v9.6c0 .6.4 1 1.1 1h4.5c.4 0 .7-.3.7-.6-.2-.3-.4-.6-.8-.6zM24.6.5c-.3 0-.5.2-.6.5-1.3 5.9-2.4 8.5-3.1 9.6-.7-1.1-1.8-3.7-3.1-9.6-.1-.3-.3-.5-.6-.5-.4 0-.6.2-.6.6 0 .1 0 .3.1.5 1.1 4.5 1.8 6.8 2.7 8.6.6 1.2 1 1.6 1.5 1.6.6 0 .9-.4 1.5-1.6.9-1.8 1.6-4.1 2.7-8.6 0-.2.1-.4.1-.5 0-.3-.2-.6-.6-.6zm25.5 4.8c1.4-1.2 2.1-2.7 2.1-3.8 0-.4-.3-.8-.9-.8h-4.5c-.4 0-.6.3-.6.6 0 .4.2.6.6.6H51c-.3 1.4-1.4 2.6-2.3 3.1-.3.1-.6.3-.6.7 0 .4.3.6.7.6 1.7 0 2.6 1 2.6 2.3 0 1.4-1 2.3-2.6 2.3-1 0-1.6-.3-2.1-.7-.2-.1-.4-.2-.5-.2-.3 0-.6.2-.6.6 0 .3.2.4.3.5.5.4 1.4.9 2.9.9 2.3 0 3.8-1.4 3.8-3.5.1-1.6-.9-2.9-2.5-3.2zm-9.3 5.3h-4.3V1.2c0-.4-.3-.7-.6-.7-.4 0-.6.3-.6.7v9.6c0 .6.4 1 1.1 1h4.5c.4 0 .7-.3.7-.6-.1-.3-.4-.6-.8-.6zm-7.9 0h-4.8V6.7H32c.4 0 .6-.3.6-.6s-.2-.6-.6-.6h-3.9V1.8h4.6c.4 0 .6-.3.6-.6s-.2-.6-.6-.6H28c-.7 0-1.1.4-1.1 1v9.3c0 .6.4 1 1.1 1h4.9c.4 0 .6-.3.6-.6.1-.4-.2-.7-.6-.7zm0 0" class="Shape"/>
    <path fill="#808285" stroke-width=".5" d="M197 115L30.3 87.3l16-46L222 71l-25 44zm0 0" class="walkway"/>
    <path fill="#989898" stroke-width=".5" d="M85.8 42l-68-12L2.6 75.6l1.8 7.1L35 88.1l4-1.3 7.9-23.5 10.9 1.9.6-1.9 5.1.9 1.3-3.9 18 3.2 4.8-14.3-1.8-7.2zm0 0M246.1 69.3l-9.8-3.9-12-2.1-1.3 3.8-30.8-5.4-2.4 7.2L108 54.5l-9 5-3.5 10.3c0 .1-.2 2.7-4.2 5.2-3.4 2.1-7.8 1.5-9.1 1.3-.2 0-.4-.1-.4-.1l-5.5 16.6 1.7 6.6 8.2 1.4-1.3 4 1.7 6.6 134 23.6 7.2-14 3-9.1 4.7.8 12.4-36.9-1.8-6.5zm0 0" class="wall"/>
    <path id="unit-3001" fill="#fff" stroke="#ddd" stroke-width=".5" d="M44.1 59l-6.9 20.7-4 1.3-30.6-5.4L10.1 53l34 6zm0 0" class="unit"/>
    <path id="unit-3002" fill="#fff" stroke="#ddd" stroke-width=".5" d="M85.8 42L81 56.4l-18-3.2-1.3 3.9-5.1-.9-.6 1.9-10.9-1.9-.6 1.6-34-6L17.8 30l68 12zm0 0" class="unit"/>
    <path id="unit-3003" fill="#fff" stroke="#ddd" stroke-width=".5" d="M189.1 68.9l-17.2 51.4-87-15.3 3.3-10-11.8-2.1L82 76.4s.1 0 .4.1c1.3.2 5.8.8 9.1-1.3 3.9-2.5 4.2-5 4.2-5.2l3.5-10.3 9-5 80.9 14.2zm0 0" class="unit"/>
    <path id="unit-3004" fill="#fff" stroke="#ddd" stroke-width=".5" d="M236.4 65.6l9.9 3.9-12.4 36.9-4.7-.8-3 9.1-7.2 14-46.4-8.2 17.2-51.4 2.5-7.3 30.9 5.5 1.2-3.8 12 2.1zm0 0" class="unit"/>
  </g>
  <g transform="translate(0,170)">
    <path fill="#f68b1f" stroke-width=".5" d="M336.833 94.365c-8.418-21.473-16.466-32.893-25.326-35.938a12.716 12.716 0 0 0-1.973-.509 7.82 7.82 0 0 0-1.367-.114c-2.885 0-6.402 1.369-9.163 2.515l-1.612-4.146 5.13-5.219-1.688-6.438-.07-.258-.121-.225c-.806-1.487-8.072-14.809-15.264-24.28-7.377-9.697-19.062-18.067-20.37-18.99l-.561-.395-75.142.758-2.771 8.284.623 2.546-24.493-4.319-2.876 8.589-12.185-2.149-12.693 6.845-29.468-5.196-3.553 10.62-3.741-.661-1.645 4.914-24.389-4.3-1.417 4.571-26.787-4.549-7.909 23.639-19.812-3.524L5.475 78.459l1.337 5.086-5.741 16.922 1.892 7.207 12.978 2.252-9.646 28.828 3.564.688-.299.893 1.888 7.196 26.302 4.639 2.163-7.412 39.983 7.754L66.9 193.141l1.938 7.396 128.747 4.563 71.533 2.855c2.451.177 15.308 1.057 27.713 1.057 12.219 0 19.863-.832 23.371-2.544 10.911-5.338 18.259-13.022 21.835-22.841 4.489-12.265 4.902-63.434-5.204-89.262zm0 0" class="outline"/>
    <path fill="#f68b1f" stroke-width=".5" d="M24.317.432c-.288 0-.512.176-.592.512-1.28 5.874-2.385 8.483-3.121 9.604-.736-1.12-1.825-3.729-3.137-9.604-.08-.336-.304-.512-.592-.512-.352 0-.608.24-.608.624 0 .112.048.288.096.512 1.057 4.466 1.825 6.771 2.705 8.579.608 1.249.96 1.617 1.521 1.617.561 0 .913-.368 1.521-1.617.88-1.809 1.633-4.098 2.721-8.579.048-.224.096-.4.096-.512-.002-.384-.258-.624-.61-.624zM6.46 10.5H2.154V1.088c0-.4-.256-.656-.608-.656-.353 0-.625.256-.625.656v9.636c0 .592.368.96 1.057.96h4.481c.4 0 .656-.272.656-.608.001-.304-.239-.576-.655-.576zm8.081-.032h-4.77V6.611h3.874c.384 0 .592-.32.592-.592a.567.567 0 0 0-.592-.576H9.771v-3.73h4.61c.416 0 .64-.272.64-.576 0-.336-.224-.64-.64-.64H9.595c-.688 0-1.057.368-1.057.96v9.268c0 .592.368.96 1.057.96h4.946c.384 0 .608-.336.608-.608 0-.337-.224-.609-.608-.609zm37.327 0h-5.105c-.129-.88.624-1.824 2.85-3.297 2.257-1.488 2.736-2.337 2.736-3.585 0-1.841-1.393-3.217-3.521-3.217-1.009 0-1.985.432-2.529.816-.224.16-.304.368-.304.528 0 .32.224.561.528.561.11 0 .239-.016.447-.128.624-.352 1.248-.592 1.842-.592 1.521 0 2.239.96 2.239 2.081 0 1.008-.384 1.521-2.271 2.753-2.609 1.712-3.201 2.865-3.201 4.178 0 .592.271 1.12.848 1.12h5.442a.62.62 0 0 0 .641-.624c-.002-.386-.274-.594-.642-.594zm-11.36.032h-4.306V1.088c0-.4-.256-.656-.608-.656-.353 0-.625.256-.625.656v9.636c0 .592.368.96 1.057.96h4.481c.4 0 .656-.272.656-.608.001-.304-.239-.576-.655-.576zm-7.872-.032h-4.77V6.611h3.874c.384 0 .592-.32.592-.592a.567.567 0 0 0-.592-.576h-3.874v-3.73h4.61c.416 0 .64-.272.64-.576 0-.336-.224-.64-.64-.64H27.69c-.688 0-1.057.368-1.057.96v9.268c0 .592.368.96 1.057.96h4.946c.384 0 .608-.336.608-.608.001-.337-.223-.609-.608-.609zm0 0" class="Shape"/>
    <path fill="#808285" stroke-width=".5" d="M261.344 175.252c.256.201 5.082 4.011 7.279 14.197 2.206 10.203.455 15.99.362 16.296l-73.402-2.852 10.081-10.341 2.797.494 17.771-18.504 3.815 2.403 2.964-2.938-118.574-20.906-49.521-22.861-9.672-1.704-5.191 15.518-11.636-1.755 6.108-18.255-16.546-2.918-2.826 8.444-6.538-1.154-3.283 9.812-6.251-1.104 9.662-28.872 17.13-51.203 9.479-28.331 29.336 5.173-4.42 8.666 4 5.864 191.393 33.531 29.75-22.125 5.393 6.77c-4.727 1.907-8.176 4.673-8.357 4.818L273.75 84.849c-.508 1.472-10.162 29.409-17.044 50.938l11.864 2.091 3.896-11.649 4.281.755-3.898 11.648 70.146 12.37-.104 4.951-87.807-15.483c-7.111 19.012-17.941 29.295-18.513 29.837l24.773 4.945zm-22.99-36.937l11.754-35.128-14.602-5.751-157.58-27.785-11.211 33.509 23.223 4.67-2.849 9.403 16.298 7.761 8.278-22.85 9.16 1.738-7.316 24.729 17.568 5.962 89.571 16.138 11.061-.283 6.645-12.113zm0 0" class="walkway"/>
    <path fill="#989898" stroke-width=".5" d="M85.983 130.152l1.317 5.229 5.933 1.045 2.372-7.09-1.319-5.229-5.931-1.045-2.372 7.09zm78.326 20.728l1.316 5.229 5.931 1.046 2.368-7.074-1.317-5.229-5.933-1.046-2.365 7.074zM62.683 61.817l2.372-7.092-1.315-5.228-5.933-1.046-2.372 7.089 1.316 5.229 5.932 1.048zM58.312 74.88l2.367-7.076-1.318-5.229-5.932-1.046-2.365 7.076 1.315 5.229 5.933 1.046zm158.138 9.054l1.318 5.229 5.932 1.046 2.372-7.09-1.318-5.229-5.931-1.047-2.373 7.091zM87.491 107.37l-1.652 5.452 1.319 5.228 16.154 8.036 8.642-23.851 6.304 1.196-6.834 20.815 1.318 5.229 18.429 6.147 89.877 15.847 10.936-.096 6.657-12.97 11.754-35.127-1.318-5.229-14.6-5.75L95.2 67.741l2.239-6.691-1.319-5.229-5.93-1.045-2.372 7.088 1.207 4.788-12.128-2.14-11.212 33.507 1.319 5.229 20.487 4.122zM73.673 48.756L266.2 82.702l30.315-21.494-1.315-5.228-.287-.32 5.246-5.337-1.318-5.228c-.389-.72-7.757-14.361-15.09-24.019-7.35-9.66-19.276-18.096-19.903-18.54l-72.941.736-2.098 6.266 1.273 5.051-.021.062-25.898-4.566-2.874 8.589-13.259-2.337-12.694 6.842-28.392-5.005-3.555 10.619-3.739-.66-1.645 4.913-24.348-4.293-3.917 11.708 1.316 5.229 2.617 3.066zm67.881 21.972l1.317 5.229 5.933 1.046 2.371-7.089-1.317-5.229-5.933-1.048-2.371 7.091zM26.949 115.989l-2.826 8.442-6.538-1.152-5.743 17.166 1.317 5.229 23.086 4.07 8.565-25.609-1.315-5.228-16.546-2.918zm21.478-20.73l-5.931-1.046-2.372 7.091 1.319 5.229 5.931 1.046 2.372-7.089-1.319-5.231zm64.984 52.706l-49.523-22.861-9.674-1.703-5.19 15.519 1.317 5.229 32.855 6.323-14.019 42.767 1.316 5.229 125.376 4.521 10.08-10.344 2.797.494 17.771-18.504 3.817 2.403 2.963-2.935-1.317-5.229-118.569-20.909zM25.145 98.66l1.318 5.229 5.931 1.046 2.372-7.09-1.319-5.229-5.93-1.045-2.372 7.089zm-8.007 10.115l1.318 5.229 12.165 2.146 1.823-5.444-1.319-5.229-7.161-1.263-.91 2.722-3.356-.593 16.463-49.205-1.316-5.229-17.154-3.023L7.76 78.569l1.272 5.052-5.675 16.962 1.317 5.229 12.707 2.239-.243.724zM37.402 71.19l5.931 1.048 2.366-7.076-1.316-5.229-5.932-1.046-2.368 7.075 1.319 5.228zm301.734 38.43l-1.317-5.229c.145.577.281 1.165.419 1.753-.909-3.899-2.002-7.597-3.315-10.966-8.753-22.321-16.424-32.085-24.041-34.706a11.103 11.103 0 0 0-1.646-.421c-8.274-1.461-17.341 5.841-17.818 6.227l-18.697 13.434c-.508 1.47-10.16 29.408-17.043 50.938l1.312 5.199-2.932-.518c-7.111 19.014-17.941 29.297-18.512 29.839l1.316 5.229 24.772 4.944c.219.172 3.837 3.046 6.237 10.363 1.761 9.328.177 14.608.089 14.896l1.316 5.229c2.064.149 41.318 2.955 49.996-1.277 8.687-4.248 16.409-9.521 20.354-20.353 1.656-4.522 3.141-15.257 3.55-28.159l-1.309-5.201 1.412.249c.137-13.529-.937-28.744-4.143-41.47zm-66.008 29.076l-4.265-.752 3.888-11.624 1.385.244-2.318 6.931 1.31 5.201zm-155.73 2.917l1.317 5.229 5.933 1.046 2.371-7.09-1.318-5.229-5.93-1.045-2.373 7.089zm0 0" class="wall"/>
    <path fill="#f68b1f" stroke-width=".5" d="M252.74 189.234l-.255.68 12.486 2.686.271-.681-1.41-.367c2.311-6.904-2.249-13.644-10.16-15.037-7.898-1.396-16.206 3.075-18.519 9.98-2.312 6.906 2.243 13.658 10.143 15.052 5.928 1.045 12.07-1.229 15.753-5.33l.886.521.508-.587-7.697-4.572-.672-.354-1.559-.91-.493.578 1.546.908c-1.474 1.459-3.749 2.241-5.957 1.853-3.125-.553-4.933-3.227-4.018-5.955.912-2.728 4.204-4.502 7.331-3.949 3.125.549 4.929 3.223 4.011 5.962l-2.195-.478zm7.651 6.593c-3.483 3.86-9.261 6.02-14.862 5.029-7.478-1.318-11.78-7.697-9.6-14.224 2.185-6.526 10.043-10.764 17.519-9.443 7.477 1.317 11.781 7.697 9.585 14.261l-3.742-.804.054-.12c1.622-4.843-1.571-9.557-7.104-10.533-5.531-.974-11.351 2.153-12.97 6.996-1.614 4.828 1.575 9.543 7.11 10.52 4.053.715 8.241-.8 10.832-3.557l3.178 1.875zm-9.24-12.757c-3.563-.628-7.293 1.382-8.33 4.49-1.042 3.108 1.001 6.139 4.561 6.765 2.551.452 5.151-.457 6.821-2.154l2.361 1.405c-2.393 2.52-6.23 3.913-9.96 3.256-5.108-.901-8.052-5.261-6.562-9.708 1.493-4.461 6.859-7.354 11.968-6.454 5.099.899 8.036 5.259 6.545 9.718l-.027.086-2.814-.639c1.042-3.109-1.001-6.138-4.563-6.765zm0 0" class="Shape"/>
    <path id="unit-2001" fill="#fff" stroke="#ddd" stroke-width=".5" d="M277.556 114.265l-2.46 7.356-3.59-.633-.547 1.633-11.962-2.108c.979-2.977 1.972-6.009 2.972-8.996l15.587 2.748zm0 0" class="unit"/>
    <path id="unit-2002" fill="#fff" stroke="#ddd" stroke-width=".5" d="M270.685 123.443l-3.101 9.268-11.862-2.094a806.24 806.24 0 0 1 3.001-9.282l11.962 2.108zm0 0" class="unit"/>
    <path id="unit-2003" fill="#fff" stroke="#ddd" stroke-width=".5" d="M256.2 29.454l-14.675 43.862-16.227-2.862 14.677-43.862 16.225 2.862zm0 0" class="unit"/>
    <path id="unit-2004" fill="#fff" stroke="#ddd" stroke-width=".5" d="M221.606 2.932l-21.127 63.146-25.275-4.457 17.262-51.489-.814-.129-2.796-.494 2.097-6.265 30.653-.312zm0 0" class="unit"/>
    <path id="unit-2005" fill="#fff" stroke="#ddd" stroke-width=".5" d="M263.895 2.507c.629.444 12.555 8.879 19.902 18.542 7.332 9.656 14.703 23.297 15.092 24.016l-7.008 7.13 3.365 3.756-30.315 21.493-22.479-3.962 14.675-43.863.139-.414.139-.411-22.463-3.959 7.397-22.109 21.556-.219zm0 0" class="unit"/>
    <path id="unit-2006" fill="#fff" stroke="#ddd" stroke-width=".5" d="M309.28 60.022c.557.098 1.105.235 1.646.42 7.617 2.622 15.288 12.386 24.041 34.709 5.477 14.033 7.216 33.687 7.042 50.684L272.1 133.507l6.654-19.888-.456-.08-.471-.082-15.588-2.75c5.426-16.27 10.27-30.288 10.524-31.026l18.697-13.432c.478-.384 9.545-7.687 17.82-6.227zm0 0" class="unit"/>
    <path id="unit-2007" fill="#fff" stroke="#ddd" stroke-width=".5" d="M261.649 136.634l-1.758 5.251-7.937-1.398c.734-1.662 1.469-3.371 2.144-5.185l7.551 1.332zm0 0" class="unit"/>
    <path id="unit-2008" fill="#fff" stroke="#ddd" stroke-width=".5" d="M238.192 130.69l-.822 2.457-2.652 5.156-16.597-2.928 2.599-7.765 17.472 3.08zm0 0" class="unit"/>
    <path id="unit-2009" fill="#fff" stroke="#ddd" stroke-width=".5" d="M234.307 139.102l-3.595 7.016-10.937.095-4.987-.88 3.056-9.133 16.463 2.902zm0 0" class="unit"/>
    <path id="unit-2010" fill="#fff" stroke="#ddd" stroke-width=".5" d="M188.658 161.193l-12.007 35.892-8.814-.324 12.397-37.051 8.424 1.483zm0 0" class="unit"/>
    <path id="unit-2011" fill="#fff" stroke="#ddd" stroke-width=".5" d="M179.29 159.543l-12.44 37.186-8.814-.326 12.83-38.346 8.424 1.486zm0 0" class="unit"/>
    <path id="unit-2012" fill="#fff" stroke="#ddd" stroke-width=".5" d="M198.026 162.847l-11.569 34.581-8.817-.31 11.962-35.757 8.424 1.486zm0 0" class="unit"/>
    <path id="unit-2013" fill="#fff" stroke="#ddd" stroke-width=".5" d="M232.031 168.841l-2.965 2.937-3.816-2.402-17.771 18.503-2.799-.494-10.078 10.341-7.178-.252 11.531-34.464 33.076 5.831zm0 0" class="unit"/>
    <path id="unit-2014" fill="#fff" stroke="#ddd" stroke-width=".5" d="M341.905 150.784c-.409 12.903-1.896 23.64-3.55 28.161-3.946 10.831-11.672 16.104-20.354 20.353-8.678 4.232-47.932 1.427-49.998 1.278.093-.307 1.844-6.093-.362-16.295-2.196-10.188-7.024-13.997-7.278-14.198l-24.772-4.943c.451-.429 9.012-8.584 16.013-23.859l8.021 1.415.928.164 2.026-6.062 79.326 13.986zm0 0" class="unit"/>
    <path id="unit-2015" fill="#fff" stroke="#ddd" stroke-width=".5" d="M86.341 30.953l-4.737 14.163-9.202-1.622-2.615-3.06 3.917-11.71 12.637 2.229zm0 0" class="unit"/>
    <path id="unit-2016" fill="#fff" stroke="#ddd" stroke-width=".5" d="M97.581 32.936L92.841 47.1 82.53 45.279l4.74-14.162 10.311 1.819zm0 0" class="unit"/>
    <path id="unit-2017" fill="#fff" stroke="#ddd" stroke-width=".5" d="M116.342 19.794l-9.937 29.697-12.637-2.227 6.383-19.078 3.287.578 3.551-10.619 9.353 1.649zm0 0" class="unit"/>
    <path id="unit-2018" fill="#fff" stroke="#ddd" stroke-width=".5" d="M161.808 18.729l-12.805 38.273-13.58-2.395 12.804-38.273 10.766 1.899 2.342.412.473.084zm0 0" class="unit"/>
    <path id="unit-2019" fill="#fff" stroke="#ddd" stroke-width=".5" d="M189.955 14.595l-15.678 46.863-24.347-4.292 13.169-39.363-.64-.112-.288-.051-.471-.083 2.51-7.502 25.745 4.54zm0 0" class="unit"/>
    <path id="unit-2020" fill="#fff" stroke="#ddd" stroke-width=".5" d="M147.073 16.848l-12.58 37.596-17.791-3.138 9.934-29.698 8.746 1.542 11.691-6.302zm0 0" class="unit"/>
    <path id="unit-2021" fill="#fff" stroke="#ddd" stroke-width=".5" d="M125.71 21.445l-9.935 29.697-8.426-1.485 9.937-29.698 8.424 1.486zm0 0" class="unit"/>
    <path id="unit-2022" fill="#fff" stroke="#ddd" stroke-width=".5" d="M241.335 2.736l-7.336 21.93-.139.411-.138.414 5.309.936-14.677 43.862-22.931-4.044 21.185-63.323 18.727-.186zm0 0" class="unit"/>
    <path id="unit-2023" fill="#fff" stroke="#ddd" stroke-width=".5" d="M22.863 87.83l-2.461 7.356-14.188-2.503 2.461-7.354 14.188 2.501zm0 0" class="unit"/>
    <path id="unit-2024" fill="#fff" stroke="#ddd" stroke-width=".5" d="M20.131 95.994l-2.372 7.089-14.187-2.5 2.371-7.091 14.188 2.502zm0 0" class="unit"/>
    <path id="unit-2025" fill="#fff" stroke="#ddd" stroke-width=".5" d="M34.89 51.882l-2.869 8.574-17.153-3.023 2.869-8.577 17.153 3.026zm0 0" class="unit"/>
    <path id="unit-2026" fill="#fff" stroke="#ddd" stroke-width=".5" d="M31.75 61.266l-3.006 8.987-17.154-3.024 3.008-8.987 17.152 3.024zm0 0" class="unit"/>
    <path id="unit-2027" fill="#fff" stroke="#ddd" stroke-width=".5" d="M28.468 71.078l-2.461 7.354-14.187-2.501-.472-.085-.472-.082-1.048 3.132-2.022-.355 3.508-10.489 17.154 3.026zm0 0" class="unit"/>
    <path id="unit-2028" fill="#fff" stroke="#ddd" stroke-width=".5" d="M25.737 79.24l-2.599 7.767-14.187-2.502 2.598-7.765 14.188 2.5zm0 0" class="unit"/>
    <path id="unit-2029" fill="#fff" stroke="#ddd" stroke-width=".5" d="M127.932 104.192l-7.677 22.948-8.032-2.662 7.285-21.772 8.424 1.486zm0 0" class="unit"/>
    <path id="unit-2030" fill="#fff" stroke="#ddd" stroke-width=".5" d="M109.548 70.232l-3.736 11.164-8.425-1.485 3.737-11.163 8.424 1.484zm0 0" class="unit"/>
    <path id="unit-2031" fill="#fff" stroke="#ddd" stroke-width=".5" d="M118.915 71.885l-3.734 11.165-8.424-1.486 3.734-11.166 8.424 1.487zm0 0" class="unit"/>
    <path id="unit-2032" fill="#fff" stroke="#ddd" stroke-width=".5" d="M128.268 73.534l-3.735 11.163-8.426-1.483 3.737-11.166 8.424 1.486zm0 0" class="unit"/>
    <path id="unit-2033" fill="#fff" stroke="#ddd" stroke-width=".5" d="M100.195 68.583L96.46 79.748l-.167-.029-.272.809 28.242 4.98-1.779 5.309-51.323-9.049 5.781-17.286 23.253 4.101zm0 0" class="unit"/>
    <path id="unit-2034" fill="#fff" stroke="#ddd" stroke-width=".5" d="M122.21 91.642l-2.097 6.265-51.324-9.051 2.097-6.266 51.324 9.052zm0 0" class="unit"/>
    <path id="unit-2035" fill="#fff" stroke="#ddd" stroke-width=".5" d="M110.643 97.094l-3.243 8.945-18.485-3.26.04-.117-23.222-4.671 2.785-8.325 42.125 7.428zm0 0" class="unit"/>
    <path id="unit-2036" fill="#fff" stroke="#ddd" stroke-width=".5" d="M137.637 75.185l-9.43 28.183-8.425-1.484 9.43-28.185 8.425 1.486zm0 0" class="unit"/>
    <path id="unit-2037" fill="#fff" stroke="#ddd" stroke-width=".5" d="M205.154 117.808l-8.158 24.388-6.555-1.155 8.161-24.389 6.552 1.156zm0 0" class="unit"/>
    <path id="unit-2038" fill="#fff" stroke="#ddd" stroke-width=".5" d="M212.653 119.13l-8.159 24.389-6.555-1.158 8.16-24.386 6.554 1.155zm0 0" class="unit"/>
    <path id="unit-2039" fill="#fff" stroke="#ddd" stroke-width=".5" d="M222.357 90.125l-9.427 28.183-8.427-1.487 9.43-28.182 8.424 1.486zm0 0" class="unit"/>
    <path id="unit-2040" fill="#fff" stroke="#ddd" stroke-width=".5" d="M231.71 91.774l-4.419 13.208-.271.809-3.692 11.032-.275.823-.773 2.311-8.424-1.486 9.429-28.183 8.425 1.486zm0 0" class="unit"/>
    <path id="unit-2041" fill="#fff" stroke="#ddd" stroke-width=".5" d="M245.438 109.037l-3.694 11.033-17.473-3.082 3.693-11.029 17.474 3.078zm0 0" class="unit"/>
    <path id="unit-2042" fill="#fff" stroke="#ddd" stroke-width=".5" d="M241.47 120.895l-3.006 8.987-17.473-3.081 3.006-8.989 17.473 3.083zm0 0" class="unit"/>
    <path id="unit-2043" fill="#fff" stroke="#ddd" stroke-width=".5" d="M222.006 120.779l-1.959 5.855-.272.808-5.928 17.726-8.427-1.485 8.159-24.389 8.427 1.485zm0 0" class="unit"/>
    <path id="unit-2044" fill="#fff" stroke="#ddd" stroke-width=".5" d="M203.622 86.821l-6.422 19.195-8.427-1.486 6.424-19.195 8.425 1.486zm0 0" class="unit"/>
    <path id="unit-2045" fill="#fff" stroke="#ddd" stroke-width=".5" d="M197.673 116.489l-8.159 24.389-12.183-2.149 8.16-24.386 12.182 2.146zm0 0" class="unit"/>
    <path id="unit-2046" fill="#fff" stroke="#ddd" stroke-width=".5" d="M212.989 88.472l-9.428 28.183-17.793-3.137 2.73-8.163 9.369 1.651.139-.411 6.558-19.609 8.425 1.486zm0 0" class="unit"/>
    <path id="unit-2047" fill="#fff" stroke="#ddd" stroke-width=".5" d="M184.564 114.177l-8.159 24.388-8.897-1.567 8.159-24.39 8.897 1.569zm0 0" class="unit"/>
    <path id="unit-2048" fill="#fff" stroke="#ddd" stroke-width=".5" d="M174.74 112.445l-8.158 24.389-8.426-1.485 8.16-24.389 8.424 1.485zm0 0" class="unit"/>
    <path id="unit-2049" fill="#fff" stroke="#ddd" stroke-width=".5" d="M165.373 110.795l-8.159 24.386-8.427-1.486 8.159-24.386 8.427 1.486zm0 0" class="unit"/>
    <path id="unit-2050" fill="#fff" stroke="#ddd" stroke-width=".5" d="M175.077 81.787l-9.429 28.183-8.424-1.487 9.429-28.181 8.424 1.485zm0 0" class="unit"/>
    <path id="unit-2051" fill="#fff" stroke="#ddd" stroke-width=".5" d="M194.269 85.172l-9.429 28.182-18.248-3.217 9.429-28.183 18.248 3.218zm0 0" class="unit"/>
    <path id="unit-2052" fill="#fff" stroke="#ddd" stroke-width=".5" d="M156.005 109.141l-8.161 24.388-8.424-1.484 8.159-24.39 8.426 1.486zm0 0" class="unit"/>
    <path id="unit-2053" fill="#fff" stroke="#ddd" stroke-width=".5" d="M165.709 80.136l-9.43 28.182-8.425-1.485 9.429-28.183 8.426 1.486zm0 0" class="unit"/>
    <path id="unit-2054" fill="#fff" stroke="#ddd" stroke-width=".5" d="M146.652 107.492l-8.158 24.389-8.428-1.485 8.163-24.389 8.423 1.485zm0 0" class="unit"/>
    <path id="unit-2055" fill="#fff" stroke="#ddd" stroke-width=".5" d="M137.284 105.842l-8.12 24.268-8.026-2.674 7.72-23.081 8.426 1.487zm0 0" class="unit"/>
    <path id="unit-2056" fill="#fff" stroke="#ddd" stroke-width=".5" d="M146.988 76.834l-9.429 28.183-8.423-1.484 9.426-28.184 8.426 1.485zm0 0" class="unit"/>
    <path id="unit-2057" fill="#fff" stroke="#ddd" stroke-width=".5" d="M156.357 78.487l-9.429 28.183-8.425-1.486 9.43-28.183 8.424 1.486zm0 0" class="unit"/>
    <path id="unit-2058" fill="#fff" stroke="#ddd" stroke-width=".5" d="M234.523 92.27l14.6 5.751-3.415 10.209-17.473-3.083 4.418-13.208 1.87.331zm0 0" class="unit"/>
    <path id="unit-2059" fill="#fff" stroke="#ddd" stroke-width=".5" d="M107.091 106.858l-5.049 13.969-7.221-3.594 3.964-11.839 8.306 1.464zm0 0" class="unit"/>
    <path id="unit-2060" fill="#fff" stroke="#ddd" stroke-width=".5" d="M97.841 105.227l-3.879 11.589-8.074-4.025 2.769-9.185 9.184 1.621zm0 0" class="unit"/>
    <path id="unit-2061" fill="#fff" stroke="#ddd" stroke-width=".5" d="M43.541 118.876l-8.566 25.609-23.086-4.071 5.743-17.165 6.539 1.153 2.825-8.444 16.545 2.918zm0 0" class="unit"/>
    <path id="unit-2062" fill="#fff" stroke="#ddd" stroke-width=".5" d="M88.836 136.568l24.621 11.366.321.057-7.471 22.328-.138.412-.137.413 9.351 1.647-7.298 21.814-38.212-1.364 18.963-56.673zm0 0" class="unit"/>
    <path id="unit-2063" fill="#fff" stroke="#ddd" stroke-width=".5" d="M153.089 154.922l-13.657 40.818-30.365-1.086 15.005-44.848 29.017 5.116zm0 0" class="unit"/>
    <path id="unit-2064" fill="#fff" stroke="#ddd" stroke-width=".5" d="M169.938 157.894l-12.874 38.478-16.661-.601 13.613-40.685 15.922 2.808zm0 0" class="unit"/>
    <path id="unit-2065" fill="#fff" stroke="#ddd" stroke-width=".5" d="M81.109 132.993l6.877 3.176-3.301 9.87.093-.279-7.463-1.426 3.794-11.341zm0 0" class="unit"/>
    <path id="unit-2066" fill="#fff" stroke="#ddd" stroke-width=".5" d="M63.934 125.072l16.322 7.537-3.863 11.545-18.156-3.495 5.242-15.665.455.078zm0 0" class="unit"/>
    <path id="unit-2067" fill="#fff" stroke="#ddd" stroke-width=".5" d="M62.535 124.827l-5.236 15.652-8.228-1.592 5.191-15.519 8.273 1.459zm0 0" class="unit"/>
    <path id="unit-2068" fill="#fff" stroke="#ddd" stroke-width=".5" d="M123.129 149.641l-7.469 22.328-8.427-1.486 7.471-22.329 8.425 1.487zm0 0" class="unit"/>
    <path id="unit-2069" fill="#fff" stroke="#ddd" stroke-width=".5" d="M31.172 105.449l-1.821 5.444-12.166-2.145.911-2.723 5.005.883.91-2.72 7.161 1.261zm0 0" class="unit"/>
    <path id="unit-2070" fill="#fff" stroke="#ddd" stroke-width=".5" d="M63.784 49.469l-2.372 7.089-5.932-1.045 2.374-7.09 5.93 1.046zm0 0" class="unit"/>
    <path id="unit-2071" fill="#fff" stroke="#ddd" stroke-width=".5" d="M59.41 62.544l-2.368 7.076-5.932-1.045 2.369-7.077 5.931 1.046zm0 0" class="unit"/>
    <path id="unit-2072" fill="#fff" stroke="#ddd" stroke-width=".5" d="M44.429 59.902l-2.367 7.077-5.93-1.046 2.366-7.076 5.931 1.045zm0 0" class="unit"/>
    <path id="unit-2073" fill="#fff" stroke="#ddd" stroke-width=".5" d="M48.474 95.229l-2.372 7.088-5.932-1.045 2.374-7.089 5.93 1.046zm0 0" class="unit"/>
    <path id="unit-2074" fill="#fff" stroke="#ddd" stroke-width=".5" d="M33.495 92.587l-2.372 7.091-5.931-1.046 2.372-7.091 5.931 1.046zm0 0" class="unit"/>
    <path id="unit-2075" fill="#fff" stroke="#ddd" stroke-width=".5" d="M94.335 124.079l-2.372 7.089-5.931-1.046 2.371-7.088 5.932 1.045zm0 0" class="unit"/>
    <path id="unit-2076" fill="#fff" stroke="#ddd" stroke-width=".5" d="M172.654 144.82l-2.368 7.076-5.932-1.046 2.369-7.076 5.931 1.046zm0 0" class="unit"/>
    <path id="unit-2077" fill="#fff" stroke="#ddd" stroke-width=".5" d="M224.802 77.86l-2.371 7.088-5.932-1.045 2.372-7.089 5.931 1.046zm0 0" class="unit"/>
    <path id="unit-2078" fill="#fff" stroke="#ddd" stroke-width=".5" d="M149.904 64.654l-2.372 7.089-5.93-1.046 2.371-7.089 5.931 1.046zm0 0" class="unit"/>
    <path id="unit-2079" fill="#fff" stroke="#ddd" stroke-width=".5" d="M96.016 55.836l-2.371 7.089-5.932-1.046 2.371-7.089 5.932 1.046zm0 0" class="unit"/>
    <path id="unit-2080" fill="#fff" stroke="#ddd" stroke-width=".5" d="M125.703 135.571l-2.372 7.089-5.931-1.046 2.371-7.089 5.932 1.046zm0 0" class="unit"/>
  </g>
  <g transform="translate(0,405)">
    <path fill="#f68b1f" stroke-width=".5" d="M314.618 182.029l-106.747-2.119-.383 1.688c-.069.304-6.847 30.702-5.416 44.347 1.083 10.303 5.197 19.49 5.238 19.574l.769 1.596 29.151-7.98 3.758-25.314 35.528.801-1.324 11.644 1.533 5.929 20.466.578-2.92 28.615 1.573 5.75 11.529.287 4.951 11.197 15.414-5.99 4.104-35.721 8.744-7.031 1.785-18.485-1.153-4.572-26.6-24.794zm30.1-53.364l-.037-.215c-.149-.864-3.683-21.212-4.232-25.271l-.053-.263c-1.121-4.189-2.635-9.403-4.15-14.305-1.362-4.405-2.024-6.519-2.551-7.57l-1.646-4.853h-1.523c-.134 0-.215 0-.393.035-1.514-3.878-1.69-4.197-1.878-4.44-1.091-1.509-3.501-3.661-5.074-3.661l-.483.01-2.959-.193-3.344-5.938-.932-3.693-14.207-21.058-57.227-.586-27.404-4.833 1.912-6.591-1.387-5.501-28.863-5.09-.693 2.155-21.1-3.19-.667-2.924L106.291.193 96.74 28.04l-1.173 6.726-8.533 23.872-19.917-4.053-6.235-1.437-6.402-2.291-14.91-5.117-8.493 25.386-25.049-4.417-1.656 3.849-3.175 10.716 1.812 5.682 16.365 2.745L.36 113.53l1.779 5.604 27.459 19.375 2.895 3.441 9.699 6.327 8.309-9.178L65.954 120.3l28.141 5.114-.333.996 1.571 5.742 6.916 1.325-9.421 25.844 1.371 6.385 26.751 2.101 11.407.431 110.342 3.506 8.679 1.53.693.278 8.402.404 6.897.049 24.062.654.055.002 22.63-.522c5.549-.07 13.32-2.489 18.027-5.593 5.799-3.582 7.979-7.871 8.67-9.619 4.822-10.148 3.827-20.732 3.644-22.315l.255-7.719.005-.228zm0 0" class="outline"/>
    <path fill="#f68b1f" stroke-width=".5" d="M14.497 18.095h-4.77v-3.857h3.874c.384 0 .592-.32.592-.592a.567.567 0 0 0-.592-.576H9.727V9.34h4.609c.416 0 .641-.272.641-.576 0-.336-.225-.64-.641-.64H9.55c-.688 0-1.057.368-1.057.96v9.268c0 .592.368.96 1.057.96h4.946c.384 0 .608-.336.608-.608.001-.337-.223-.609-.607-.609zm-8.081.032H2.11V8.715c0-.4-.256-.656-.608-.656s-.625.256-.625.656v9.636c0 .592.368.96 1.058.96h4.48c.4 0 .656-.272.656-.608.001-.304-.238-.576-.655-.576zM24.273 8.059c-.288 0-.512.176-.592.512-1.28 5.874-2.386 8.483-3.121 9.604-.736-1.12-1.825-3.729-3.138-9.604-.08-.336-.304-.512-.592-.512-.352 0-.607.24-.607.624 0 .112.048.288.096.512 1.057 4.466 1.825 6.771 2.705 8.579.607 1.249.96 1.617 1.521 1.617.562 0 .913-.368 1.521-1.617.88-1.809 1.633-4.098 2.721-8.579.048-.224.096-.4.096-.512-.002-.384-.258-.624-.61-.624zm8.319 10.036h-4.77v-3.857h3.874c.384 0 .592-.32.592-.592a.567.567 0 0 0-.592-.576h-3.874V9.34h4.61c.416 0 .64-.272.64-.576 0-.336-.224-.64-.64-.64h-4.786c-.688 0-1.058.368-1.058.96v9.268c0 .592.368.96 1.058.96h4.945c.385 0 .608-.336.608-.608.002-.337-.222-.609-.607-.609zm15.95-10.036c-.191 0-.384.048-.704.288-.832.608-1.071.784-1.889 1.104-.465.176-.576.4-.576.656 0 .336.256.576.624.576.112 0 .304-.032.496-.112a7.703 7.703 0 0 0 1.617-.928v9.092c0 .4.256.641.606.641.354 0 .625-.24.625-.641V9.003c.002-.704-.43-.944-.799-.944zm-8.078 10.068h-4.306V8.715c0-.4-.256-.656-.608-.656s-.625.256-.625.656v9.636c0 .592.368.96 1.058.96h4.48c.4 0 .656-.272.656-.608.001-.304-.239-.576-.655-.576zm0 0M186.107 177.667c-.705 0-1.304.211-1.793.635-.589.509-.882 1.291-.882 2.348 0 .963.246 1.7.738 2.213.492.512 1.137.768 1.937.768.497 0 .956-.115 1.379-.35a2.35 2.35 0 0 0 .961-.979c.221-.42.33-.998.33-1.732 0-.906-.248-1.615-.746-2.13-.498-.515-1.139-.773-1.924-.773zm1.199 4.62a1.527 1.527 0 0 1-1.198.549c-.482 0-.886-.183-1.203-.545-.318-.363-.478-.91-.478-1.642 0-.732.158-1.276.478-1.64a1.539 1.539 0 0 1 1.203-.543c.477 0 .875.184 1.194.547.32.363.48.896.48 1.604.001.748-.157 1.304-.476 1.67zm12.358-6.661v2.826a1.912 1.912 0 0 0-1.574-.785c-.469 0-.893.125-1.271.371-.381.248-.664.603-.855 1.065a4.087 4.087 0 0 0-.283 1.55c0 .584.104 1.102.314 1.551.209.448.504.799.885 1.049.383.252.801.377 1.254.377.703 0 1.234-.283 1.597-.85v.721h.896v-7.875h-.963zm-.362 6.69c-.297.346-.653.52-1.078.52-.418 0-.78-.182-1.09-.543-.309-.361-.463-.908-.463-1.639 0-.756.146-1.309.434-1.658.287-.353.646-.527 1.076-.527.441 0 .812.184 1.111.549.299.365.451.938.451 1.719.001.707-.146 1.234-.441 1.579zm-46.699-3.977c-.144-.2-.358-.362-.647-.485a2.368 2.368 0 0 0-.947-.187c-.791 0-1.396.313-1.814.94v-.812h-.87v5.703h.967v-3.115c0-.729.149-1.227.449-1.487a1.566 1.566 0 0 1 1.064-.392c.258 0 .482.059.676.175.19.116.323.271.398.467.075.196.112.49.112.884v3.471h.967v-3.508c0-.447-.018-.762-.053-.939a1.91 1.91 0 0 0-.302-.715zm-8.084-.672c-.704 0-1.303.211-1.794.635-.587.509-.881 1.291-.881 2.348 0 .963.246 1.7.738 2.213.493.512 1.138.768 1.937.768.498 0 .957-.115 1.379-.35.421-.232.74-.559.961-.979.221-.422.33-.998.33-1.732 0-.906-.25-1.615-.746-2.13-.497-.515-1.14-.773-1.924-.773zm1.198 4.62a1.521 1.521 0 0 1-1.197.549c-.482 0-.885-.183-1.202-.545-.318-.363-.479-.91-.479-1.642 0-.732.16-1.276.479-1.64.318-.361.72-.543 1.202-.543.478 0 .875.184 1.195.547.32.363.48.896.48 1.604 0 .748-.159 1.304-.478 1.67zm-8.508-6.661h-1.042v7.875h4.92v-.931h-3.878v-6.944zm57.32 5.484v-1.289c0-.43-.017-.728-.047-.891a1.535 1.535 0 0 0-.302-.658c-.145-.174-.366-.317-.672-.433-.305-.115-.699-.172-1.188-.172-.49 0-.922.066-1.295.201-.371.135-.656.325-.854.574-.198.249-.338.575-.424.98l.945.129c.104-.405.264-.688.479-.848.216-.158.553-.238 1.008-.238.486 0 .854.109 1.101.328.184.16.274.438.274.832l-.006.252c-.369.129-.942.24-1.725.334a6.99 6.99 0 0 0-.859.145 2.401 2.401 0 0 0-.694.316 1.602 1.602 0 0 0-.5.557c-.128.23-.189.486-.189.766 0 .478.168.867.504 1.174.338.307.818.459 1.445.459.379 0 .733-.062 1.065-.188.33-.126.677-.341 1.033-.645.029.268.094.502.193.703h1.01a2.177 2.177 0 0 1-.244-.686c-.041-.239-.058-.803-.058-1.702zm-.977-.116c0 .426-.053.748-.156.967-.135.281-.35.504-.639.668a2.006 2.006 0 0 1-.994.244c-.375 0-.66-.086-.854-.258a.828.828 0 0 1-.293-.646.84.84 0 0 1 .133-.459.846.846 0 0 1 .383-.313c.164-.071.445-.136.842-.192.703-.101 1.229-.223 1.58-.365l-.002.354zm-12.859-.683a2.687 2.687 0 0 0-.629-.392c.756-.104 1.313-.349 1.676-.73.36-.384.543-.854.543-1.413 0-.435-.109-.829-.328-1.187a1.757 1.757 0 0 0-.875-.75c-.365-.143-.898-.213-1.602-.213h-3.49v7.875h1.043v-3.496h1.208c.269 0 .462.012.579.037.162.039.319.108.477.209.154.101.332.275.527.526.197.25.449.611.752 1.084l1.043 1.64h1.311l-1.369-2.144a5.41 5.41 0 0 0-.866-1.046zm-1.424-1.208h-2.237v-2.605h2.49c.584 0 1.012.121 1.28.359.271.24.406.547.406.919 0 .254-.07.489-.209.706a1.196 1.196 0 0 1-.613.473c-.267.097-.64.148-1.117.148zm-21.193-.65a1.907 1.907 0 0 0-1.574-.785c-.469 0-.893.125-1.271.371-.381.248-.664.603-.854 1.065a4.087 4.087 0 0 0-.284 1.55c0 .584.104 1.102.314 1.551.209.448.505.799.886 1.049.382.252.8.377 1.254.377.702 0 1.234-.283 1.596-.85v.721h.896v-7.875h-.961l-.002 2.826zm-.362 3.863c-.296.346-.655.52-1.077.52-.419 0-.781-.182-1.09-.543-.309-.361-.463-.908-.463-1.639 0-.756.145-1.309.433-1.658.288-.353.647-.527 1.077-.527.44 0 .812.184 1.111.549.299.365.451.938.451 1.719 0 .707-.147 1.234-.442 1.579zm5.159-4.649c-.706 0-1.304.211-1.795.635-.587.509-.881 1.291-.881 2.348 0 .963.246 1.7.737 2.213.493.512 1.14.768 1.938.768.497 0 .957-.115 1.377-.35.421-.232.742-.559.961-.979.221-.422.331-.998.331-1.732 0-.906-.249-1.615-.747-2.13-.496-.515-1.138-.773-1.921-.773zm1.197 4.62a1.525 1.525 0 0 1-1.197.549c-.484 0-.885-.183-1.203-.545-.319-.363-.479-.91-.479-1.642 0-.732.158-1.276.479-1.64a1.54 1.54 0 0 1 1.203-.543c.476 0 .874.184 1.195.547.319.363.479.896.479 1.604.002.748-.159 1.304-.477 1.67zm6.886-3.948c-.144-.2-.358-.362-.647-.485a2.366 2.366 0 0 0-.946-.187c-.792 0-1.396.313-1.816.94v-.812h-.869v5.703h.968v-3.115c0-.729.147-1.227.447-1.487a1.567 1.567 0 0 1 1.065-.392c.258 0 .481.059.675.175a.912.912 0 0 1 .398.467c.076.194.113.49.113.884v3.471h.967v-3.508c0-.447-.018-.762-.054-.939a1.892 1.892 0 0 0-.301-.715zm0 0" class="Shape"/>
    <path fill="#808285" stroke-width=".5" d="M286.806 149.333l-12.431-2.375c-.437.098-8.757 1.928-11.418 11.314-1.065 3.734 3.541 12.195 4.472 13.605l24.062.656c.505-7.361.454-8.086-.692-14.34-.917-4.986-3.839-8.667-3.993-8.86zm-3.813-29.308l-.587-1.222 10.176-30.011 13.243-10.951 2.062 2.008 9.327-6.417-.122-1.666 2.042-.984-4.73-7.986-28.496 22.433-109.482-19.305-1.211-2.008 15.043-44.964-25.521-3.491-2.924 7.73 8.08 1.424-4.197 12.546-5.398 4.874-61.547-12.65-1.119 5.918 56.858 11.823-6.132 18.331-1.779-.313-8.485 24.333 2.104.371-4.385 13.104-47.963-8.457 1.036-3.096-9.045-1.594-7.638-3.744-5.1-5.22-5.184-3.902-12.93-2.28-9.123 3.014-7.309-.386-4.209-.742-13.625-2.704-.376 1.127-7.886-3.338-1.697 5.075 4.822.713 33.429 5.894 26.051 9.065-8.204 10.205-2.104-.371-28.006 34.207 3.015 4.086 22.159-28.796 1.684.599 13.425-15.1 68.788 12.129-17.923 53.57-1.926 3.096 12.449.109-2.097-6.34 7.211-25.611 2.281.25 5.866-17.022 7.15-1.426 16.872 8.35-.167 1.013 2.458-.168 10.776 4.587 59.166 11.775 2.978-.217 16.104 2.99-17.597 21.383-.511 3.947 9.047 1.594-.147-3.938-.77-.862c.462-.484 9.234-9.711 14.33-16.734 5.081-7.016 13.531-21.118 13.976-21.86l1.118-3.308 1.133-.327 60.726 12.517.163-5.258-59.496-11.421zm-11.033 4.494l-4.09 7.146-19.003 1.229-56.3-9.927-37.343-16.538-2.487-3.126 9.591-28.663 2.479-1.262 100.772 17.769 15.499 6.119-9.118 27.253zm0 0" class="walkway"/>
    <path fill="#989898" stroke-width=".5" d="M61.109 104.275l8.204-10.205-.909-3.607-26.05-9.065-27.709-4.886.327-.977 13.626 2.703 4.208.742 7.308.386 9.123-3.013 12.93 2.28 5.185 3.902 5.1 5.22 7.637 3.744 7.146 1.259.864 3.431 47.962 8.457 4.386-13.104-.91-3.608-.062-.011 7.354-21.085 1.778.314 6.133-18.331-.908-3.608-56.194-9.909-8.727 26.085-27.377-5.579-20.623-7.367-8.395 25.091L7.32 69.091l-.85 2.537.909 3.608 1.468.289-4.074 1.177-1.349 4.546.909 3.608 19.248 3.394-20.847 25.714.91 3.608 27.772 19.3 27.593-32.971 2.1.374zm99.431-60.547l5.397-4.874 4.197-12.545-.909-3.608-6.081-1.072 1.834-5.484-.909-3.608L107.712 2.6l-8.961 26.786.909 3.607 60.88 10.735zm17.79-6.322l1.005-3.005-.91-3.608-5.383-.949-1.006 3.005.91 3.608 5.384.949zm-37.809 65.127l.908 3.608 5.372.947 1.005-3.004-.907-3.608-5.373-.947-1.005 3.004zm33.312-47.604l-.908-3.608-5.385-.949-1.004 3.005.909 3.607 5.383.95 1.005-3.005zm-21.875 36.752l-.91-3.608-5.372-.948-1.005 3.004.399 1.584-.95-.167-1.005 3.004.908 3.608 5.373.947 1.005-3.004-.398-1.584.949.167 1.006-3.003zm91.713 75.688l17.596-21.384-.839-3.33.974.171 1.008-3.015-.908-3.606-6.021-1.062-1.011 3.016.827 3.279-4.4-.816.831-2.486-.908-3.608-.204-.036 17.502-1.131 4.09-7.146 9.118-27.253-.909-3.608-15.5-6.118-10.278-1.812.859-2.57-.879-3.487 31.535 5.56 28.252-24.125-.909-3.608-13.374-19.826-55.343-.202-31.268-5.513 2.826-8.447-.91-3.608-25.834-4.556-15.045 44.965.909 3.607 1.134 1.879-2.325-.41-1.009 3.015.785 3.116-9.899-1.746-2.479 1.262-9.589 28.664.908 3.608 2.473 3.107-2.577-1.93-2.484 2.388.909 3.608 4.141 2.917 1.929-1.847.724 2.869 3.46 2.581-9.382-4.643-7.149 1.427-5.868 17.022-2.281-.252-8.583 25.66.908 3.607 3.227 4.6 110.493 3.512.747-2.259zm-33.272-93.803l-.972 2.905.784 3.116-3.377-.595.859-2.571-.88-3.487 3.586.632zm-9.034-1.593l-.972 2.906.785 3.116-8.563-1.51.858-2.57-.877-3.487 8.769 1.545zm-14.219-2.508l-.975 2.905.785 3.116-7.261-1.28.859-2.571-.879-3.487 7.471 1.317zm26.701 64.281l-31.734-5.917-10.778-4.587-.401.682-1.604-.401-.284-1.125-6.81-3.37 2.383-2.282-.91-3.608-4.037-3.023-2.031 1.952-.724-2.869-1.419-1.062 37.315 16.527 21.141 3.727-.829 2.479.722 2.877zm2.003-59.219l8.771 1.546-.974 2.906.785 3.116-8.563-1.51.861-2.571-.88-3.487zm11.497 61.736l-7.73-1.442.807-2.413-.76-3.014 7.753 1.365-.83 2.48.76 3.024zm2.724-59.229l4.887.862-.974 2.906.785 3.115-4.682-.825.86-2.571-.876-3.487zm5.366 60.738l-2.4-.448.85-2.541-.76-3.015 2.357.415-.829 2.479.782 3.11zm4.959-58.917l8.768 1.546-.971 2.906.785 3.115-8.563-1.51.86-2.57-.879-3.487zm.952 60.02l-.592-.11.874-2.615-.759-3.015 4.457.785-.891 2.664.75 2.979-.934-.173-.397.671-2.313-.407-.195-.779zm-102.19-31.455L70.371 95.292l-13.424 15.099-1.686-.598-22.402 27.103.91 3.607 8.066 5.002 22.982-27.292 32.289 5.552-.982 2.938.909 3.608 8.107 1.43L95.034 160.1l.91 3.607L119.975 166l2.168-1.401 17.925-53.572-.91-3.607zm141.779 14.852l-1.133.328-1.117 3.307c-.445.742-8.896 14.844-13.977 21.86-5.096 7.021-13.868 16.249-14.33 16.734l-.424 1.27.91 3.607.663.117.434 1.721 15.344.728-.909-3.608c-.162-.238-2.125-3.119-3.339-6.279-.064-.744-.038-1.456.144-2.09 2.66-9.387 10.979-11.219 11.418-11.314l12.431 2.375c.123.154 1.996 2.518 3.22 5.989 1.035 5.567.825 4.015.312 11.909l.908 3.607c1.133-.012 22.649-.242 28.824-1.432 3.801-.727 6.404-1.665 10.677-4.566 7.833-5.304 7.915-8.629 7.92-8.804l3.062-9.155.378-12.025-.908-3.608-60.508-10.671zm32.826 61.866l-104.204-2.069c-.335 1.483-6.729 29.685-5.37 42.662a60.3 60.3 0 0 0 1.698 9.321c-.063-.239-.128-.481-.19-.733l.91 3.608c1.183 4.693 2.516 7.457 2.618 7.669l26.106-7.146 3.829-25.798 39.903.866-1.592 13.984.909 3.608 21.318.563-3.133 30.766.909 3.607 11.295.281 4.676 10.574 12.327-4.791 4.058-35.314 8.727-7.019 1.664-17.228-.91-3.607-25.548-23.804zm27.915-58.927l-.562-.099c-.836-5.83-2.451-17.145-2.99-21.265-.115-.873-.356-2.001-.68-3.283a148.92 148.92 0 0 0-.274-1.082c-.028-.109-.063-.253-.092-.361l-.499-1.983c-1.688-6.78-5.802-18.127-6.056-18.824l-1.688.445c-.05-.128-1.025-2.567-1.818-4.792-.79-2.236-3.748-3.605-3.903-3.677l-6.688-.438.121 1.666-9.327 6.417-2.061-2.008-13.244 10.951-10.176 30.011-.23.691.91 3.608.817.53 59.254 10.448.097-3.347-.911-3.608zM158.23 72.406l-.908-3.608-5.373-.947-1.005 3.004.909 3.608 5.371.947 1.006-3.004zm10.803-1.104l1.005-3.004-.908-3.608-5.373-.947-1.005 3.004.909 3.608 5.372.947zm-7.98-8.068l-.907-3.608-5.373-.947-1.006 3.004.909 3.608 5.372.947 1.005-3.004zm2.077-7.333l-.908-3.608-5.373-.947-1.005 3.004.909 3.608 5.372.947 1.005-3.004zm4.539 58.211l-2.485 2.388.91 3.608 4.141 2.917 2.383-2.282-.91-3.608-4.039-3.023zm0 0" class="wall"/>
    <path fill="#f68b1f" stroke-width=".5" d="M267.126 158.505c1.616-4.832 7.444-7.973 12.977-6.996 5.544.978 8.736 5.709 7.121 10.539-1.127 3.367-4.282 5.902-7.96 6.813l.145.462c3.874-.962 7.183-3.636 8.367-7.179 1.707-5.103-1.655-10.087-7.51-11.119-5.846-1.03-11.995 2.276-13.699 7.379-.757 2.253-.515 4.486.485 6.362.202-.03.407-.068.61-.105-1.012-1.803-1.269-3.965-.536-6.156zm10.846 11.355l-2.062-3.595-.336-.617-1.271-2.221.066.031-.774-1.408c-.499-.729-.659-1.648-.346-2.588.616-1.84 2.835-3.037 4.944-2.666 2.119.375 3.334 2.177 2.719 4.018-.451 1.35-1.751 2.337-3.244 2.641l.048.491c1.721-.337 3.229-1.481 3.748-3.034.707-2.113-.686-4.179-3.104-4.604-2.422-.427-4.965.942-5.673 3.057a3.306 3.306 0 0 0 .14 2.478l-.073.031 4.757 8.351.264-.12-.027.245 11.395.366.072-.5-11.243-.356zm-7.691-10.957c1.09-3.262 5.009-5.375 8.744-4.716 3.726.658 5.874 3.839 4.783 7.102-.77 2.297-2.952 4.021-5.486 4.604l.16.475c2.716-.646 5.053-2.508 5.879-4.979 1.179-3.525-1.147-6.972-5.174-7.683-4.037-.711-8.291 1.574-9.471 5.1-.825 2.464.076 4.888 2.063 6.361.145-.123.284-.248.42-.373-1.849-1.367-2.682-3.612-1.918-5.891zm0 0" class="Shape"/>
    <path id="unit-1001" fill="#fff" stroke="#ddd" stroke-width=".5" d="M159.299 27.61l7.609 1.364-1.889 5.643-7.632-1.368 1.912-5.639zm0 0" class="unit"/>
    <path id="unit-1002" fill="#fff" stroke="#ddd" stroke-width=".5" d="M157.201 33.808l7.527 1.349-5.24 4.73-4.104-.724 1.817-5.355zm0 0" class="unit"/>
    <path id="unit-1003" fill="#fff" stroke="#ddd" stroke-width=".5" d="M169.131 64.508l-1.008 3.014-5.371-.947 1.008-3.014 5.371.947zm0 0" class="unit"/>
    <path id="unit-1004" fill="#fff" stroke="#ddd" stroke-width=".5" d="M160.187 59.455l-1.005 3.004-5.37-.947 1.004-3.005 5.371.948zm0 0" class="unit"/>
    <path id="unit-1005" fill="#fff" stroke="#ddd" stroke-width=".5" d="M115.348 3.737l-9.054 26.77-7.686-1.355 8.962-26.786 7.778 1.371zm0 0" class="unit"/>
    <path id="unit-1006" fill="#fff" stroke="#ddd" stroke-width=".5" d="M124.394 5.333L115.329 32.1l-8.397-1.48L116 3.853l8.394 1.48zm0 0" class="unit"/>
    <path id="unit-1007" fill="#fff" stroke="#ddd" stroke-width=".5" d="M130.848 6.471l-9.055 26.768-5.815-1.025 9.056-26.769 5.814 1.026zm0 0" class="unit"/>
    <path id="unit-1008" fill="#fff" stroke="#ddd" stroke-width=".5" d="M143.777 8.75l-9.066 26.768-12.266-2.163 9.054-26.77 12.278 2.165zm0 0" class="unit"/>
    <path id="unit-1009" fill="#fff" stroke="#ddd" stroke-width=".5" d="M56.209 86.028l12.053 4.201-4.385 5.45-10.344-4.081 2.676-5.57zm0 0" class="unit"/>
    <path id="unit-1010" fill="#fff" stroke="#ddd" stroke-width=".5" d="M47.153 119.204l8.682 4.594-2.261 2.677-8.652-4.579 2.231-2.692zm0 0" class="unit"/>
    <path id="unit-1011" fill="#fff" stroke="#ddd" stroke-width=".5" d="M51.006 114.531l8.735 4.625-3.496 4.156-8.695-4.597 3.456-4.184zm0 0" class="unit"/>
    <path id="unit-1012" fill="#fff" stroke="#ddd" stroke-width=".5" d="M80.31 96.835l-3.436 10.895-11.873-6.801 5.228-5.871 10.081 1.777zm0 0" class="unit"/>
    <path id="unit-1013" fill="#fff" stroke="#ddd" stroke-width=".5" d="M64.581 101.414l12.101 6.927-.984 3.127-13.286-7.62 2.169-2.434zm0 0" class="unit"/>
    <path id="unit-1014" fill="#fff" stroke="#ddd" stroke-width=".5" d="M61.98 104.33l13.525 7.749-1.296 4.092-8.043-1.386-9.165-4.85 4.979-5.605zm0 0" class="unit"/>
    <path id="unit-1015" fill="#fff" stroke="#ddd" stroke-width=".5" d="M133.596 87.356l5.573 1.004-4.163 12.444-5.627-.992 4.217-12.456zm0 0" class="unit"/>
    <path id="unit-1016" fill="#fff" stroke="#ddd" stroke-width=".5" d="M90.997 79.727l9.69 1.73-4.248 12.546-9.395-1.656 1.036-3.096-.279-.049 3.196-9.475zm0 0" class="unit"/>
    <path id="unit-1017" fill="#fff" stroke="#ddd" stroke-width=".5" d="M157.321 68.666l-1.005 3.004-5.372-.947 1.006-3.004 5.371.947zm0 0" class="unit"/>
    <path id="unit-1018" fill="#fff" stroke="#ddd" stroke-width=".5" d="M163.799 12.28l-9.067 26.768-6.127-1.08 9.056-26.77 6.138 1.082zm0 0" class="unit"/>
    <path id="unit-1019" fill="#fff" stroke="#ddd" stroke-width=".5" d="M132.754 41.289l-6.126 18.128-5.806-1.045 6.119-18.109 5.813 1.026zm0 0" class="unit"/>
    <path id="unit-1020" fill="#fff" stroke="#ddd" stroke-width=".5" d="M139.219 42.429l-6.141 18.135-5.809-1.035 6.138-18.126 5.812 1.026zm0 0" class="unit"/>
    <path id="unit-1021" fill="#fff" stroke="#ddd" stroke-width=".5" d="M145.673 43.567l-6.137 18.158-5.808-1.046 6.144-18.136 5.801 1.024zm0 0" class="unit"/>
    <path id="unit-1022" fill="#fff" stroke="#ddd" stroke-width=".5" d="M153.684 44.979l-6.086 18.189-7.422-1.331 6.149-18.156 7.359 1.298zm0 0" class="unit"/>
    <path id="unit-1023" fill="#fff" stroke="#ddd" stroke-width=".5" d="M101.326 81.569l4.193.75-4.243 12.538-4.197-.741 4.247-12.547zm0 0" class="unit"/>
    <path id="unit-1024" fill="#fff" stroke="#ddd" stroke-width=".5" d="M126.302 40.151l-6.131 18.106-.188.558 25.65 4.598-8.346 23.917-46.74-8.286-.092.274-3.305 9.769-7.755-1.368 9.022-26.634.345.071 2.507-7.491 16.446 2.954.095-.284 6.213-18.349 12.279 2.165zm0 0" class="unit"/>
    <path id="unit-1025" fill="#fff" stroke="#ddd" stroke-width=".5" d="M106.168 82.444l8.388 1.501-4.234 12.507-8.395-1.48 4.241-12.528zm0 0" class="unit"/>
    <path id="unit-1026" fill="#fff" stroke="#ddd" stroke-width=".5" d="M115.207 84.06l3.869.693-4.232 12.496-3.871-.683 4.234-12.506zm0 0" class="unit"/>
    <path id="unit-1027" fill="#fff" stroke="#ddd" stroke-width=".5" d="M119.725 84.868l4.192.76-4.223 12.476-4.198-.74 4.229-12.496zm0 0" class="unit"/>
    <path id="unit-1028" fill="#fff" stroke="#ddd" stroke-width=".5" d="M150.907 87.839l-1.005 3.004-5.373-.947 1.005-3.004 5.373.947zm0 0" class="unit"/>
    <path id="unit-1029" fill="#fff" stroke="#ddd" stroke-width=".5" d="M169.084 22.467l-1.99 5.948-7.608-1.363 2.005-5.924 7.593 1.339zm0 0" class="unit"/>
    <path id="unit-1030" fill="#fff" stroke="#ddd" stroke-width=".5" d="M157.01 11.083l-9.056 26.77-12.592-2.221 9.054-26.769 12.594 2.22zm0 0" class="unit"/>
    <path id="unit-1031" fill="#fff" stroke="#ddd" stroke-width=".5" d="M299.975 39.129l13.378 19.826-28.255 24.127-12.591-2.222 13.977-41.777 13.491.046zm0 0" class="unit"/>
    <path id="unit-1032" fill="#fff" stroke="#ddd" stroke-width=".5" d="M288.294 115.45l-1.107 3.309-5-.882-.82-.531.23-.69.766-2.252 5.931 1.046zm0 0" class="unit"/>
    <path id="unit-1033" fill="#fff" stroke="#ddd" stroke-width=".5" d="M262.002 156.937c-.413 4.324 4.021 10.824 4.254 11.167l-15.344-.729.521-1.551-1.616-.285.424-1.27a270.97 270.97 0 0 0 7.344-8.109l4.417.777zm0 0" class="unit"/>
    <path id="unit-1034" fill="#fff" stroke="#ddd" stroke-width=".5" d="M269.469 125.309l-2.407 4.209-13.527.871 2.492-7.45 13.442 2.37zm0 0" class="unit"/>
    <path id="unit-1035" fill="#fff" stroke="#ddd" stroke-width=".5" d="M272.19 145.253a16.822 16.822 0 0 0-6.728 4.684l-2.395-.422c.521-.672 1.028-1.346 1.5-1.982a96.24 96.24 0 0 0 2.235-3.229l5.388.949zm0 0" class="unit"/>
    <path id="unit-1036" fill="#fff" stroke="#ddd" stroke-width=".5" d="M265.021 150.451c-1.188 1.489-2.218 3.35-2.872 5.674l-.042.24-4.081-.72a151.537 151.537 0 0 0 4.646-5.608l2.349.414zm0 0" class="unit"/>
    <path id="unit-1037" fill="#fff" stroke="#ddd" stroke-width=".5" d="M341.302 132.708l-.379 12.025-3.062 9.156c-.004.175-.087 3.499-7.92 8.804-4.271 2.902-6.874 3.839-10.678 4.565-6.173 1.191-27.69 1.42-28.821 1.433.533-8.226.74-6.19-.45-12.644-.917-4.988-3.837-8.67-3.99-8.862l-6.68-1.274-5.751-1.101-6.399-1.042c5.021-7.499 11.35-18.057 11.373-18.095l6.628 1.169.19-.568 1.083-3.238 54.856 9.672zm0 0" class="unit"/>
    <path id="unit-1038" fill="#fff" stroke="#ddd" stroke-width=".5" d="M322.973 70.057c.155.072 3.112 1.441 3.902 3.677.797 2.225 1.771 4.664 1.82 4.792l1.688-.444c.299.822 5.958 16.421 6.689 21.925.72 5.501 3.357 23.837 3.498 24.801l.965.171-.099 3.347-53.603-9.451 2.901-8.668 7.104 1.253.096-.285.097-.283 1.112-3.33.095-.284.096-.284-13.638-2.405 6.076-17.943 13.242-10.951 2.063 2.008 9.325-6.417-.122-1.666 6.693.437zm0 0" class="unit"/>
    <path id="unit-1039" fill="#fff" stroke="#ddd" stroke-width=".5" d="M221.72 59.867l-3.803 11.368-5.814-1.025 3.803-11.368 5.814 1.025zm0 0" class="unit"/>
    <path id="unit-1040" fill="#fff" stroke="#ddd" stroke-width=".5" d="M228.185 61.007l-3.804 11.368-5.814-1.025 3.805-11.368 5.813 1.025zm0 0" class="unit"/>
    <path id="unit-1041" fill="#fff" stroke="#ddd" stroke-width=".5" d="M182.967 53.034l-3.803 11.368-3.547-.626-1.212-2.008 3.236-9.673 5.326.939zm0 0" class="unit"/>
    <path id="unit-1042" fill="#fff" stroke="#ddd" stroke-width=".5" d="M202.348 56.452l-3.802 11.368-5.815-1.025 3.805-11.369 5.812 1.026zm0 0" class="unit"/>
    <path id="unit-1043" fill="#fff" stroke="#ddd" stroke-width=".5" d="M195.885 55.312l-3.804 11.368-5.814-1.025 3.804-11.369 5.814 1.026zm0 0" class="unit"/>
    <path id="unit-1044" fill="#fff" stroke="#ddd" stroke-width=".5" d="M189.43 54.174l-3.801 11.368-5.815-1.025 3.803-11.369 5.813 1.026zm0 0" class="unit"/>
    <path id="unit-1045" fill="#fff" stroke="#ddd" stroke-width=".5" d="M208.802 57.59l-3.804 11.368-5.813-1.025 3.805-11.369 5.812 1.026zm0 0" class="unit"/>
    <path id="unit-1046" fill="#fff" stroke="#ddd" stroke-width=".5" d="M212.248 30.433l-.88 2.629 32.464 5.724-7.701 23.021-58.3-10.281 8.582-25.649 25.835 4.556zm0 0" class="unit"/>
    <path id="unit-1047" fill="#fff" stroke="#ddd" stroke-width=".5" d="M215.266 58.729l-3.803 11.368-5.813-1.025 3.803-11.368 5.813 1.025zm0 0" class="unit"/>
    <path id="unit-1048" fill="#fff" stroke="#ddd" stroke-width=".5" d="M235.939 62.374l-3.803 11.369-7.104-1.253 3.804-11.368 7.103 1.252zm0 0" class="unit"/>
    <path id="unit-1049" fill="#fff" stroke="#ddd" stroke-width=".5" d="M256.085 38.969l-12.322 36.824-10.987-1.938 11.695-34.956.164.028 11.45.042zm0 0" class="unit"/>
    <path id="unit-1050" fill="#fff" stroke="#ddd" stroke-width=".5" d="M262.911 38.99l-12.694 37.941-5.813-1.025 12.357-36.936 6.15.02zm0 0" class="unit"/>
    <path id="unit-1051" fill="#fff" stroke="#ddd" stroke-width=".5" d="M269.75 39.013L256.681 78.07l-5.813-1.025 12.731-38.052 6.151.02zm0 0" class="unit"/>
    <path id="unit-1052" fill="#fff" stroke="#ddd" stroke-width=".5" d="M276.573 39.045l-13.438 40.163-5.813-1.024 13.104-39.17 6.147.031zm0 0" class="unit"/>
    <path id="unit-1053" fill="#fff" stroke="#ddd" stroke-width=".5" d="M285.799 39.07l-13.944 41.676-8.069-1.422 13.475-40.276 8.538.022zm0 0" class="unit"/>
    <path id="unit-1054" fill="#fff" stroke="#ddd" stroke-width=".5" d="M215.284 21.359l-2.845 8.506-25.836-4.556.065-.193 2.781-8.313 25.835 4.556zm0 0" class="unit"/>
    <path id="unit-1055" fill="#fff" stroke="#ddd" stroke-width=".5" d="M290.087 110.091l-1.603 4.791-5.93-1.046 1.625-4.787 5.908 1.042zm0 0" class="unit"/>
    <path id="unit-1056" fill="#fff" stroke="#ddd" stroke-width=".5" d="M298.495 107.446l-1.114 3.329-13.011-2.294 1.125-3.328 13 2.293zm0 0" class="unit"/>
    <path id="unit-1057" fill="#fff" stroke="#ddd" stroke-width=".5" d="M285.795 122.92l-1.084 3.239-5.976-1.054.928-2.739 1.132-.327 5 .881zm0 0" class="unit"/>
    <path id="unit-1058" fill="#fff" stroke="#ddd" stroke-width=".5" d="M229.824 157.649l-2.564 7.663-11.502-.363 2.593-7.754 11.473.454zm0 0" class="unit"/>
    <path id="unit-1059" fill="#fff" stroke="#ddd" stroke-width=".5" d="M130.516 105.688l-6.212 18.564-7.742-1.365 6.209-18.565 7.745 1.366zm0 0" class="unit"/>
    <path id="unit-1060" fill="#fff" stroke="#ddd" stroke-width=".5" d="M122.122 104.208l-6.212 18.564-8.396-1.48 6.212-18.565 8.396 1.481zm0 0" class="unit"/>
    <path id="unit-1061" fill="#fff" stroke="#ddd" stroke-width=".5" d="M94.32 99.305l-6.429 19.215-13.026-2.244 6.096-19.326 13.359 2.355zm0 0" class="unit"/>
    <path id="unit-1062" fill="#fff" stroke="#ddd" stroke-width=".5" d="M99.169 100.16l-6.421 19.194-4.205-.72 6.428-19.214 4.198.74zm0 0" class="unit"/>
    <path id="unit-1063" fill="#fff" stroke="#ddd" stroke-width=".5" d="M103.226 100.876l-6.414 19.173-3.425-.582 6.421-19.194 3.418.603zm0 0" class="unit"/>
    <path id="unit-1064" fill="#fff" stroke="#ddd" stroke-width=".5" d="M113.076 102.612l-8.49 25.376-8.604-1.518 2.073-6.201-.592-.105 6.415-19.173 9.198 1.621zm0 0" class="unit"/>
    <path id="unit-1065" fill="#fff" stroke="#ddd" stroke-width=".5" d="M132.618 126.309l-1.946 5.816-25.289-4.459 1.946-5.816 25.289 4.459zm0 0" class="unit"/>
    <path id="unit-1066" fill="#fff" stroke="#ddd" stroke-width=".5" d="M113.591 129.705l-10.358 30.957-8.341-.793 11.211-31.485 7.488 1.321zm0 0" class="unit"/>
    <path id="unit-1067" fill="#fff" stroke="#ddd" stroke-width=".5" d="M122.636 131.298l-10.123 30.259-8.612-.83 10.341-30.908 8.394 1.479zm0 0" class="unit"/>
    <path id="unit-1068" fill="#fff" stroke="#ddd" stroke-width=".5" d="M130.485 132.684l-9.392 28.073-2.169 1.403-5.754-.541 10.107-30.207 7.208 1.272zm0 0" class="unit"/>
    <path id="unit-1069" fill="#fff" stroke="#ddd" stroke-width=".5" d="M211.536 133.109l8.204 1.532-7.26 21.7.325.058-8.947-.341 7.678-22.949zm0 0" class="unit"/>
    <path id="unit-1070" fill="#fff" stroke="#ddd" stroke-width=".5" d="M152.03 113.813l3.476 1.72-4.147 12.393-10.232-1.804 3.752-10.883 7.151-1.426zm0 0" class="unit"/>
    <path id="unit-1071" fill="#fff" stroke="#ddd" stroke-width=".5" d="M156.088 115.818l5.28 2.619-3.556 10.627-.813-.143-5-.882 4.089-12.221zm0 0" class="unit"/>
    <path id="unit-1072" fill="#fff" stroke="#ddd" stroke-width=".5" d="M157.598 129.628l-1.674 5.079-16.732-2.95 1.745-5.067 15.871 2.8.79.138zm0 0" class="unit"/>
    <path id="unit-1073" fill="#fff" stroke="#ddd" stroke-width=".5" d="M161.961 118.724l6.456 3.192-4.738 14.16-7.103-1.254 5.385-16.098zm0 0" class="unit"/>
    <path id="unit-1074" fill="#fff" stroke="#ddd" stroke-width=".5" d="M171.191 123.007l9.525 4.066-10.299 30.784-12.593-2.22 10.968-32.784-.058.322 2.057.513.4-.681zm0 0" class="unit"/>
    <path id="unit-1075" fill="#fff" stroke="#ddd" stroke-width=".5" d="M163.493 136.632l-8.825 26.381-23.296-.743-3.226-4.601 8.584-25.658 1.498.166 25.265 4.455zm0 0" class="unit"/>
    <path id="unit-1076" fill="#fff" stroke="#ddd" stroke-width=".5" d="M181.323 127.319l.646.275 9.597 1.788-10.175 30.41-10.325-1.82 10.257-30.653zm0 0" class="unit"/>
    <path id="unit-1077" fill="#fff" stroke="#ddd" stroke-width=".5" d="M181.203 160.361l-1.156 3.451-24.699-.775 2.286-6.832 23.569 4.156zm0 0" class="unit"/>
    <path id="unit-1078" fill="#fff" stroke="#ddd" stroke-width=".5" d="M192.215 129.507l18.67 3.487-10.527 31.464-19.63-.623 1.125-3.359.191-.568 10.171-30.401zm0 0" class="unit"/>
    <path id="unit-1079" fill="#fff" stroke="#ddd" stroke-width=".5" d="M217.671 157.171l-2.595 7.754-14.038-.443 2.629-7.856 14.004.545zm0 0" class="unit"/>
    <path id="unit-1080" fill="#fff" stroke="#ddd" stroke-width=".5" d="M220.391 134.755l8.369 1.563-4.114 12.291-.155.467-.035.101 3.547.625-2.374 7.096-12.485-.482 7.247-21.661zm0 0" class="unit"/>
    <path id="unit-1081" fill="#fff" stroke="#ddd" stroke-width=".5" d="M229.396 136.441l4.509.838-4.096 12.241-4.522-.798 4.109-12.281zm0 0" class="unit"/>
    <path id="unit-1082" fill="#fff" stroke="#ddd" stroke-width=".5" d="M249.689 140.19l10.527 1.954-13.111 15.928-3.209-.565 5.793-17.317zm0 0" class="unit"/>
    <path id="unit-1083" fill="#fff" stroke="#ddd" stroke-width=".5" d="M234.552 137.404l6.12 1.142-6.256 18.698-8.108-.312 2.346-7.015 1.615.286.035-.101.157-.468 4.091-12.23zm0 0" class="unit"/>
    <path id="unit-1084" fill="#fff" stroke="#ddd" stroke-width=".5" d="M244.113 139.154l4.939.914-5.86 17.517-8.109-.311 6.068-18.137-.016.234 2.581.455.397-.672zm0 0" class="unit"/>
    <path id="unit-1085" fill="#fff" stroke="#ddd" stroke-width=".5" d="M246.685 158.589l-4.065 4.938-.753 2.253-7.152-.23 2.546-7.611 6.807.266.012-.075 2.605.459zm0 0" class="unit"/>
    <path id="unit-1086" fill="#fff" stroke="#ddd" stroke-width=".5" d="M236.583 157.905l-2.549 7.622-6.093-.192 2.554-7.632-.244-.043 6.332.245zm0 0" class="unit"/>
    <path id="unit-1087" fill="#fff" stroke="#ddd" stroke-width=".5" d="M139.015 107.187l-6.211 18.563-7.847-1.383 6.21-18.564 7.848 1.384zm0 0" class="unit"/>
    <path id="unit-1088" fill="#fff" stroke="#ddd" stroke-width=".5" d="M47.73 101.764l6.06 3.272-7.513 8.984-5.578-3.016.117.054 6.914-9.294zm0 0" class="unit"/>
    <path id="unit-1089" fill="#fff" stroke="#ddd" stroke-width=".5" d="M55.077 109.616l9.109 4.831-.419-.074-3.617 4.295-8.733-4.625 3.66-4.427zm0 0" class="unit"/>
    <path id="unit-1090" fill="#fff" stroke="#ddd" stroke-width=".5" d="M37.599 110.038l3.242 1.754-15.694 17.614-2.967-2.062 15.419-17.306zm0 0" class="unit"/>
    <path id="unit-1091" fill="#fff" stroke="#ddd" stroke-width=".5" d="M53.272 92.154l10.204 4.024-3.418 4.255-1.779-.313-7.005-3.793 1.998-4.173zm0 0" class="unit"/>
    <path id="unit-1092" fill="#fff" stroke="#ddd" stroke-width=".5" d="M51.002 96.881l6.619 3.585-3.422 4.083-6.091-3.288 2.439-3.279-.054-.02.509-1.081zm0 0" class="unit"/>
    <path id="unit-1093" fill="#fff" stroke="#ddd" stroke-width=".5" d="M40.763 48.21l13.417 4.795-6.674 19.73-8.444 2.789-7.308-.386-.756-.133.614-1.837.756.133 8.395-25.091zm0 0" class="unit"/>
    <path id="unit-1094" fill="#fff" stroke="#ddd" stroke-width=".5" d="M20.724 77.375l-2.146 6.339-5.174-.912 2.146-6.34 5.174.913zm0 0" class="unit"/>
    <path id="unit-1095" fill="#fff" stroke="#ddd" stroke-width=".5" d="M42.211 81.164L55.6 85.825l-5.723 11.954-9.617 12.987-10.246-5.548-.402.499.138.068-14.764 16.561-12.398-8.614 23.292-28.73-.954-.169 4.379-5.945 12.906 2.276zm0 0" class="unit"/>
    <path id="unit-1096" fill="#fff" stroke="#ddd" stroke-width=".5" d="M30.29 106.084l3.014 1.628-15.06 16.896-2.746-1.913 14.792-16.611zm0 0" class="unit"/>
    <path id="unit-1097" fill="#fff" stroke="#ddd" stroke-width=".5" d="M41.396 112.084l4.473 2.422-4.57 5.45-4.657-2.53 4.754-5.342zm0 0" class="unit"/>
    <path id="unit-1098" fill="#fff" stroke="#ddd" stroke-width=".5" d="M33.859 108.003l3.199 1.735-15.378 17.261-2.936-2.045 15.115-16.951zm0 0" class="unit"/>
    <path id="unit-1099" fill="#fff" stroke="#ddd" stroke-width=".5" d="M36.252 117.852l-.043.057 4.681 2.534-4.62 5.527-4.889-2.647 4.871-5.471zm0 0" class="unit"/>
    <path id="unit-1100" fill="#fff" stroke="#ddd" stroke-width=".5" d="M30.964 123.798l4.897 2.659-5.5 6.576-4.714-3.282 5.317-5.953zm0 0" class="unit"/>
    <path id="unit-1101" fill="#fff" stroke="#ddd" stroke-width=".5" d="M44.513 122.382l3.296 1.743-12.126 14.382-2.966-1.845 11.796-14.28zm0 0" class="unit"/>
    <path id="unit-1102" fill="#fff" stroke="#ddd" stroke-width=".5" d="M48.364 124.416l4.801 2.544-12.381 14.704-4.579-2.838 12.159-14.41zm0 0" class="unit"/>
    <path id="unit-1103" fill="#fff" stroke="#ddd" stroke-width=".5" d="M28.619 78.767l-4.367 5.948-5.035-.888 2.147-6.34 7.255 1.28zm0 0" class="unit"/>
    <path id="unit-1104" fill="#fff" stroke="#ddd" stroke-width=".5" d="M14.91 76.35l-2.145 6.338-4.523-.796 2.145-6.34 4.523.798zm0 0" class="unit"/>
    <path id="unit-1105" fill="#fff" stroke="#ddd" stroke-width=".5" d="M9.736 75.437L7.59 81.776l-4.313-.759 1.348-4.546 4.158-1.202.953.168zm0 0" class="unit"/>
    <path id="unit-1106" fill="#fff" stroke="#ddd" stroke-width=".5" d="M80.404 59.457l7.369 1.493-8.99 26.576-6.764-3.299 8.385-24.77zm0 0" class="unit"/>
    <path id="unit-1107" fill="#fff" stroke="#ddd" stroke-width=".5" d="M124.556 85.74l8.4 1.503-4.216 12.456-8.406-1.482 4.222-12.477zm0 0" class="unit"/>
    <path id="unit-1108" fill="#fff" stroke="#ddd" stroke-width=".5" d="M30.973 73.055l-.626 1.835-2.802-.494-7.158-1.423.574-1.683 10.012 1.765zm0 0" class="unit"/>
    <path id="unit-1109" fill="#fff" stroke="#ddd" stroke-width=".5" d="M113.385 37.874l-6.119 18.064-15.811-2.831L97.49 35.07l15.895 2.804zm0 0" class="unit"/>
    <path id="unit-1110" fill="#fff" stroke="#ddd" stroke-width=".5" d="M54.798 53.221l5.486 1.967L54.08 73.55l-5.814-1.025 6.532-19.304zm0 0" class="unit"/>
    <path id="unit-1111" fill="#fff" stroke="#ddd" stroke-width=".5" d="M73.361 58.021l6.41 1.303-8.334 24.618-5.084-5.197 7.008-20.724zm0 0" class="unit"/>
    <path id="unit-1112" fill="#fff" stroke="#ddd" stroke-width=".5" d="M67.276 56.776l5.452 1.112-6.921 20.427-4.634-3.482 6.103-18.057zm0 0" class="unit"/>
    <path id="unit-1113" fill="#fff" stroke="#ddd" stroke-width=".5" d="M60.901 55.404l.484.172 5.255 1.077-6.107 18.035-5.814-1.025 6.182-18.259zm0 0" class="unit"/>
    <path id="unit-1114" fill="#fff" stroke="#ddd" stroke-width=".5" d="M20.31 71.175l-.559 1.675-5.832-1.157-.377 1.126-7.219-1.423.849-2.538 13.138 2.317zm0 0" class="unit"/>
    <path id="unit-1115" fill="#fff" stroke="#ddd" stroke-width=".5" d="M260.132 88.181l-4.607 13.774-5.813-1.026 4.607-13.773 5.813 1.025zm0 0" class="unit"/>
    <path id="unit-1116" fill="#fff" stroke="#ddd" stroke-width=".5" d="M264.771 89l1.707.676-4.489 13.419-5.813-1.026 4.608-13.773 3.987.704zm0 0" class="unit"/>
    <path id="unit-1117" fill="#fff" stroke="#ddd" stroke-width=".5" d="M277.3 103.999l-2.642 7.897-14.105-2.487 2.643-7.897 14.104 2.487zm0 0" class="unit"/>
    <path id="unit-1118" fill="#fff" stroke="#ddd" stroke-width=".5" d="M274.469 112.464l-2.077 6.202-14.103-2.487 2.075-6.202 14.105 2.487zm0 0" class="unit"/>
    <path id="unit-1119" fill="#fff" stroke="#ddd" stroke-width=".5" d="M272.206 119.224l-1.052 3.147-1.371 2.402-13.569-2.393 1.887-5.643 14.105 2.487zm0 0" class="unit"/>
    <path id="unit-1120" fill="#fff" stroke="#ddd" stroke-width=".5" d="M181.896 98.151l-5.332 15.936-5.362-2.375 4.881-14.586 5.813 1.025zm0 0" class="unit"/>
    <path id="unit-1121" fill="#fff" stroke="#ddd" stroke-width=".5" d="M175.808 95.885l-5.205 15.56-5.363-2.375 4.755-14.211 5.813 1.026zm0 0" class="unit"/>
    <path id="unit-1122" fill="#fff" stroke="#ddd" stroke-width=".5" d="M169.355 94.747l-4.706 14.067-5.362-2.375 4.255-12.717 5.813 1.025zm0 0" class="unit"/>
    <path id="unit-1123" fill="#fff" stroke="#ddd" stroke-width=".5" d="M214.915 80.208l-7.321 21.883-5.815-1.025 7.321-21.883 5.815 1.025zm0 0" class="unit"/>
    <path id="unit-1124" fill="#fff" stroke="#ddd" stroke-width=".5" d="M213.871 103.789l-6.612 19.762-5.814-1.025 6.612-19.762 5.814 1.025zm0 0" class="unit"/>
    <path id="unit-1125" fill="#fff" stroke="#ddd" stroke-width=".5" d="M197.394 100.884l-14.847-2.618-3.878 11.592 3.958.636.501.08-.168.479-1.78 5.081 9.678 4.289 6.536-19.539zm0 0" class="unit"/>
    <path id="unit-1126" fill="#fff" stroke="#ddd" stroke-width=".5" d="M202.568 101.797l-6.611 19.762-4.197-.741-.298-.137 6.585-19.682 4.521.798zm0 0" class="unit"/>
    <path id="unit-1127" fill="#fff" stroke="#ddd" stroke-width=".5" d="M207.407 102.649l-6.613 19.762-4.197-.74 6.613-19.761 4.197.739zm0 0" class="unit"/>
    <path id="unit-1128" fill="#fff" stroke="#ddd" stroke-width=".5" d="M202.648 78.045l-7.322 21.883-6.139-1.082 7.323-21.883 6.138 1.082zm0 0" class="unit"/>
    <path id="unit-1129" fill="#fff" stroke="#ddd" stroke-width=".5" d="M195.87 76.85l-7.323 21.883-5.813-1.025 7.321-21.883 5.815 1.025zm0 0" class="unit"/>
    <path id="unit-1130" fill="#fff" stroke="#ddd" stroke-width=".5" d="M189.404 75.71l-7.321 21.883-5.812-1.026 7.32-21.882 5.813 1.025zm0 0" class="unit"/>
    <path id="unit-1131" fill="#fff" stroke="#ddd" stroke-width=".5" d="M162.89 93.607l-4.203 12.566-4.268-1.892-2.488-3.126 2.995-8.953 7.964 1.405zm0 0" class="unit"/>
    <path id="unit-1132" fill="#fff" stroke="#ddd" stroke-width=".5" d="M171.241 89.113l-1.699 5.075-14.429-2.544 1.697-5.074 14.431 2.543zm0 0" class="unit"/>
    <path id="unit-1133" fill="#fff" stroke="#ddd" stroke-width=".5" d="M182.94 74.57l-6.944 20.756-5.814-1.025 6.945-20.757 5.813 1.026zm0 0" class="unit"/>
    <path id="unit-1134" fill="#fff" stroke="#ddd" stroke-width=".5" d="M170.021 72.292l-3.168 9.47-7.964-1.405 2.632-7.866 2.478-1.261 6.022 1.062zm0 0" class="unit"/>
    <path id="unit-1135" fill="#fff" stroke="#ddd" stroke-width=".5" d="M176.486 73.432l-3.167 9.469-5.814-1.024 3.168-9.47 5.813 1.025zm0 0" class="unit"/>
    <path id="unit-1136" fill="#fff" stroke="#ddd" stroke-width=".5" d="M173.128 83.47l-1.699 5.075L157 86l1.699-5.074 14.429 2.544zm0 0" class="unit"/>
    <path id="unit-1137" fill="#fff" stroke="#ddd" stroke-width=".5" d="M253.679 87.043l-4.608 13.774-5.812-1.026 4.606-13.773 5.814 1.025zm0 0" class="unit"/>
    <path id="unit-1138" fill="#fff" stroke="#ddd" stroke-width=".5" d="M247.216 85.903l-4.61 13.774-5.812-1.026 4.607-13.773 5.815 1.025zm0 0" class="unit"/>
    <path id="unit-1139" fill="#fff" stroke="#ddd" stroke-width=".5" d="M261.8 103.663l-8.959 26.775-4.782.308-3.976-.702 9.321-27.861 1.931.34.65.115 5.815 1.025zm0 0" class="unit"/>
    <path id="unit-1140" fill="#fff" stroke="#ddd" stroke-width=".5" d="M221.379 81.348l-7.321 21.883-5.814-1.025 7.322-21.883 5.813 1.025zm0 0" class="unit"/>
    <path id="unit-1141" fill="#fff" stroke="#ddd" stroke-width=".5" d="M227.844 82.488l-7.323 21.883-5.812-1.025 7.322-21.883 5.813 1.025zm0 0" class="unit"/>
    <path id="unit-1142" fill="#fff" stroke="#ddd" stroke-width=".5" d="M234.298 83.625l-7.323 21.884-5.813-1.026 7.321-21.882 5.815 1.024zm0 0" class="unit"/>
    <path id="unit-1143" fill="#fff" stroke="#ddd" stroke-width=".5" d="M240.762 84.765l-7.321 21.883-5.814-1.024 7.322-21.884 5.813 1.025zm0 0" class="unit"/>
    <path id="unit-1144" fill="#fff" stroke="#ddd" stroke-width=".5" d="M220.336 104.929l-6.612 19.762-5.815-1.025 6.612-19.762 5.815 1.025zm0 0" class="unit"/>
    <path id="unit-1145" fill="#fff" stroke="#ddd" stroke-width=".5" d="M226.79 106.067l-6.613 19.762-5.814-1.025 6.611-19.762 5.816 1.025zm0 0" class="unit"/>
    <path id="unit-1146" fill="#fff" stroke="#ddd" stroke-width=".5" d="M233.254 107.207l-6.612 19.762-5.814-1.025 6.611-19.762 5.815 1.025zm0 0" class="unit"/>
    <path id="unit-1147" fill="#fff" stroke="#ddd" stroke-width=".5" d="M252.753 102.068l-9.322 27.861-16.149-2.847 9.321-27.862 5.815 1.025.65.115 5.814 1.025.639.113 3.232.57zm0 0" class="unit"/>
    <path id="unit-1148" fill="#fff" stroke="#ddd" stroke-width=".5" d="M208.462 79.07l-7.322 21.883-5.173-.912 7.321-21.883 5.174.912zm0 0" class="unit"/>
    <path id="unit-1149" fill="#fff" stroke="#ddd" stroke-width=".5" d="M273.125 92.299l7.146 2.819-2.785 8.322-7.639-1.346 3.278-9.795zm0 0" class="unit"/>
    <path id="unit-1150" fill="#fff" stroke="#ddd" stroke-width=".5" d="M267.078 89.91l5.436 2.152-3.318 9.917-5.813-1.025 3.695-11.044zm0 0" class="unit"/>
    <path id="unit-1151" fill="#fff" stroke="#ddd" stroke-width=".5" d="M261.358 135.971l-1.01 3.015-6.022-1.063 1.008-3.013 6.024 1.061zm0 0" class="unit"/>
    <path id="unit-1152" fill="#fff" stroke="#ddd" stroke-width=".5" d="M240.581 132.308l-1.01 3.014-5.058-.892 1.008-3.014 5.06.892zm0 0" class="unit"/>
    <path id="unit-1153" fill="#fff" stroke="#ddd" stroke-width=".5" d="M232.836 130.942l-1.01 3.015-5.382-.95 1.009-3.013 5.383.948zm0 0" class="unit"/>
    <path id="unit-1154" fill="#fff" stroke="#ddd" stroke-width=".5" d="M219.372 128.568l-1.009 3.015-5.383-.951 1.008-3.013 5.384.949zm0 0" class="unit"/>
    <path id="unit-1155" fill="#fff" stroke="#ddd" stroke-width=".5" d="M159.526 109.879l4.038 3.023-2.482 2.378-4.04-3.013 2.484-2.388zm0 0" class="unit"/>
    <path id="unit-1156" fill="#fff" stroke="#ddd" stroke-width=".5" d="M146.758 100.242l-1.005 3.005-5.374-.947 1.006-3.005 5.373.947zm0 0" class="unit"/>
    <path id="unit-1157" fill="#fff" stroke="#ddd" stroke-width=".5" d="M162.085 52.122l-1.005 3.003-5.385-.949 1.006-3.004 5.384.95zm0 0" class="unit"/>
    <path id="unit-1158" fill="#fff" stroke="#ddd" stroke-width=".5" d="M172.781 51.087l-1.003 3.005-5.384-.949 1.004-3.004 5.383.948zm0 0" class="unit"/>
    <path id="unit-1159" fill="#fff" stroke="#ddd" stroke-width=".5" d="M178.283 30.561l-1.005 3.003-5.384-.949 1.006-3.004 5.383.95zm0 0" class="unit"/>
    <path id="unit-1160" fill="#fff" stroke="#ddd" stroke-width=".5" d="M179.506 67.794l-1.01 3.015-5.382-.949 1.009-3.015 5.383.949zm0 0" class="unit"/>
    <path id="unit-1161" fill="#fff" stroke="#ddd" stroke-width=".5" d="M192.425 70.072l-1.01 3.014-5.384-.948 1.01-3.015 5.384.949zm0 0" class="unit"/>
    <path id="unit-1162" fill="#fff" stroke="#ddd" stroke-width=".5" d="M206.643 72.58l-1.008 3.014-5.383-.949 1.008-3.015 5.383.95zm0 0" class="unit"/>
    <path id="unit-1163" fill="#fff" stroke="#ddd" stroke-width=".5" d="M215.678 74.173l-1.008 3.015-5.383-.95 1.008-3.015 5.383.95zm0 0" class="unit"/>
    <path id="unit-1164" fill="#fff" stroke="#ddd" stroke-width=".5" d="M229.898 76.68l-1.01 3.014-5.382-.949 1.009-3.015 5.383.95zm0 0" class="unit"/>
    <path id="unit-1165" fill="#fff" stroke="#ddd" stroke-width=".5" d="M240.223 78.5l-1.008 3.015-5.372-.947 1.007-3.015 5.373.947zm0 0" class="unit"/>
    <path id="unit-1166" fill="#fff" stroke="#ddd" stroke-width=".5" d="M254.443 81.008l-1.009 3.014-5.382-.949 1.006-3.014 5.385.949zm0 0" class="unit"/>
    <path id="unit-1167" fill="#fff" stroke="#ddd" stroke-width=".5" d="M292.691 183.492l-3.215 25.692-10.162-.319.016-.158-24.63-.54 3.169-25.367 34.822.692zm0 0" class="unit"/>
    <path id="unit-1168" fill="#fff" stroke="#ddd" stroke-width=".5" d="M313.622 183.904l25.55 23.81-1.664 17.227-3.116 2.503-57.045-1.329 1.9-16.681 10.818.349 3.288-26.282 20.269.403zm0 0" class="unit"/>
    <path id="unit-1169" fill="#fff" stroke="#ddd" stroke-width=".5" d="M327.296 244.832l-2.573 22.441-12.327 4.791-4.676-10.572-11.293-.284 1.77-17.326 29.099.95zm0 0" class="unit"/>
    <path id="unit-1170" fill="#fff" stroke="#ddd" stroke-width=".5" d="M333.699 228.009l-4.917 3.949-1.418 12.293-29.111-.94 1.639-16.093 33.807.791zm0 0" class="unit"/>
    <path id="unit-1171" fill="#fff" stroke="#ddd" stroke-width=".5" d="M257.194 182.791l-3.168 25.367-15.72-.344 3.158-25.336 15.73.313zm0 0" class="unit"/>
    <path id="unit-1172" fill="#fff" stroke="#ddd" stroke-width=".5" d="M240.867 182.458l-1.803 14.44-9.832-.315 1.786-14.314 9.849.189zm0 0" class="unit"/>
    <path id="unit-1173" fill="#fff" stroke="#ddd" stroke-width=".5" d="M230.348 182.248l-1.856 14.86.185.001 10.308.366.069-.503-1.396 11.125.418.01-3.794 25.504-26.105 7.145c-.155-.321-3.111-6.449-4.128-16.258-1.357-12.978 5.034-41.178 5.371-42.662l20.928.412zm0 0" class="unit"/>
    <path id="unit-1174" fill="#fff" stroke="#ddd" stroke-width=".5" d="M178.509 110.338l-1.344 4.016 3.557 1.577 1.738-4.958-3.951-.635zm0 0" class="unit"/>
    <path id="unit-1175" fill="#fff" stroke="#ddd" stroke-width=".5" d="M149.494 92.433l-1.005 3.005-5.374-.947 1.006-3.005 5.373.947zm0 0" class="unit"/>
    <path id="unit-1176" fill="#fff" stroke="#ddd" stroke-width=".5" d="M152.876 106.114l4.038 3.023-2.483 2.378-4.04-3.013 2.485-2.388zm0 0" class="unit"/>
    <path id="unit-1177" fill="#fff" stroke="#ddd" stroke-width=".5" d="M167.639 114.112l4.038 3.023-2.482 2.378-4.04-3.013 2.484-2.388zm0 0" class="unit"/>
    <path id="unit-1178" fill="#fff" stroke="#ddd" stroke-width=".5" d="M250.817 134.292l-1.005 3.004-5.375-.945 1.007-3.005 5.373.946zm0 0" class="unit"/>
  </g>
</svg>