<svg width="504" height="715" id="svg-map" class="map">
	

	<g class="assets">
		
	</g>

	
		<g transform="translate(140,10) scale(1)">
		
		
			<path d="M282.143,150.05 L295.625,142.781 L264.252,96.29 L253.02,102.347 L233.307,73.123 L247.284,65.591 L249.741,69.242 L263.852,61.634 L254.637,47.979 L241.161,55.249 L204.247,0.535 L151.293,27.772 L154.397,32.361 L148.776,35.391 L176.471,76.44 L171.485,79.128 L168.413,74.564 L154.305,82.171 L157.377,86.734 L138.11,97.123 L125.942,94.978 L108.768,104.235 L105.073,98.758 L64.573,120.599 L75.278,136.475 L72.438,144.97 L52.325,155.816 L55.407,160.376 L45.297,165.826 L48.989,171.296 L36.631,177.959 L48.325,195.291 L42.604,198.377 L31.133,232.654 L81.317,241.502 L89.952,215.695 L94.342,216.47 L105.405,210.505 L100.481,203.208 L120.075,192.645 L131.114,209.007 L130.795,209.956 L116.881,207.503 L104.159,245.529 L119.807,248.289 L111.709,272.494 L104.754,271.268 L92.032,309.296 L98.985,310.521 L89.338,339.356 L139.522,348.203 L172.528,249.547 L177.749,250.468 L181.811,238.327 L195.719,240.779 L204.354,214.972 L218.262,217.424 L220.801,209.834 L260.793,216.886 L273.17,179.895 L269.418,174.326 L290.764,162.819 L282.143,150.05 Z M282.143,150.05" class="outline"
		stroke="none"
		fill="#f68b1f"
		stroke-width="0.5"
		/>
		
			<path d="M14.167,75.209 C13.159,75.209 12.405,75.321 11.894,75.481 C11.494,75.609 11.382,75.849 11.382,76.249 L11.382,85.949 C11.382,86.349 11.638,86.59 11.989,86.59 C12.34,86.59 12.614,86.35 12.614,85.949 L12.614,82.332 C13.141,82.363 13.446,82.38 14.087,82.38 C16.968,82.38 18.489,80.987 18.489,78.714 C18.487,76.697 17.159,75.209 14.167,75.209 L14.167,75.209 Z M14.022,81.211 C13.428,81.211 13.141,81.211 12.612,81.18 L12.612,76.506 C13.059,76.442 13.606,76.378 14.133,76.378 C16.406,76.378 17.221,77.466 17.221,78.747 C17.223,80.059 16.52,81.211 14.022,81.211 L14.022,81.211 Z M35.045,85.309 L30.275,85.309 L30.275,81.452 L34.15,81.452 C34.533,81.452 34.742,81.132 34.742,80.86 C34.742,80.572 34.533,80.284 34.15,80.284 L30.275,80.284 L30.275,76.554 L34.884,76.554 C35.3,76.554 35.525,76.282 35.525,75.978 C35.525,75.642 35.3,75.338 34.884,75.338 L30.1,75.338 C29.412,75.338 29.043,75.706 29.043,76.298 L29.043,85.566 C29.043,86.158 29.41,86.526 30.1,86.526 L35.045,86.526 C35.43,86.526 35.654,86.19 35.654,85.918 C35.655,85.581 35.43,85.309 35.045,85.309 L35.045,85.309 Z M22.997,75.209 C21.989,75.209 21.237,75.321 20.724,75.481 C20.326,75.609 20.212,75.849 20.212,76.249 L20.212,85.949 C20.212,86.349 20.468,86.59 20.821,86.59 C21.173,86.59 21.444,86.35 21.444,85.949 L21.444,82.332 C21.971,82.363 22.278,82.38 22.917,82.38 C25.798,82.38 27.319,80.987 27.319,78.714 C27.319,76.697 25.991,75.209 22.997,75.209 L22.997,75.209 Z M22.854,81.211 C22.26,81.211 21.973,81.211 21.444,81.18 L21.444,76.506 C21.891,76.442 22.438,76.378 22.965,76.378 C25.238,76.378 26.053,77.466 26.053,78.747 C26.053,80.059 25.35,81.211 22.854,81.211 L22.854,81.211 Z M8.471,75.273 C8.104,75.273 7.846,75.529 7.846,75.929 L7.846,84.684 C7.014,85.228 5.83,85.453 5.11,85.453 C3.253,85.453 2.118,84.541 2.118,82.475 L2.118,75.929 C2.118,75.529 1.862,75.273 1.509,75.273 C1.157,75.273 0.886,75.529 0.886,75.929 L0.886,82.716 C0.886,85.053 2.343,86.654 4.87,86.654 C6.679,86.654 7.72,86.174 8.649,85.646 C9.001,85.437 9.081,85.166 9.081,84.781 L9.081,75.93 C9.081,75.529 8.823,75.273 8.471,75.273 L8.471,75.273 Z M78.999,85.341 L74.692,85.341 L74.692,75.929 C74.692,75.529 74.434,75.273 74.085,75.273 C73.731,75.273 73.46,75.529 73.46,75.929 L73.46,85.565 C73.46,86.157 73.829,86.525 74.517,86.525 L78.999,86.525 C79.397,86.525 79.655,86.253 79.655,85.917 C79.655,85.613 79.415,85.341 78.999,85.341 L78.999,85.341 Z M86.614,85.341 L82.307,85.341 L82.307,75.929 C82.307,75.529 82.049,75.273 81.7,75.273 C81.348,75.273 81.075,75.529 81.075,75.929 L81.075,85.565 C81.075,86.157 81.444,86.525 82.132,86.525 L86.614,86.525 C87.012,86.525 87.268,86.253 87.268,85.917 C87.27,85.613 87.03,85.341 86.614,85.341 L86.614,85.341 Z M68.885,76.746 C68.262,75.497 67.766,75.129 67.205,75.129 C66.644,75.129 66.148,75.497 65.523,76.746 C64.627,78.554 63.939,80.828 62.771,85.454 C62.707,85.678 62.673,85.854 62.673,85.966 C62.673,86.351 62.929,86.591 63.282,86.591 C63.569,86.591 63.778,86.414 63.858,86.078 C64.161,84.701 64.463,83.469 64.77,82.413 L69.635,82.413 C69.922,83.469 70.227,84.701 70.547,86.078 C70.627,86.414 70.834,86.591 71.123,86.591 C71.475,86.591 71.73,86.351 71.73,85.966 C71.73,85.855 71.681,85.678 71.632,85.454 C70.502,80.827 69.782,78.554 68.885,76.746 L68.885,76.746 Z M65.092,81.291 C65.828,78.842 66.487,77.322 66.996,76.521 C67.045,76.457 67.092,76.393 67.205,76.393 C67.316,76.393 67.365,76.457 67.412,76.521 C67.926,77.321 68.564,78.841 69.301,81.291 L65.092,81.291 L65.092,81.291 Z M43.094,82.412 C42.805,81.995 42.487,81.676 42.117,81.435 C43.541,80.939 44.471,79.946 44.471,78.426 C44.471,76.489 43.159,75.209 40.26,75.209 C39.156,75.209 38.405,75.321 37.891,75.481 C37.493,75.609 37.379,75.849 37.379,76.249 L37.379,85.949 C37.379,86.349 37.652,86.59 38.004,86.59 C38.358,86.59 38.629,86.35 38.629,85.949 L38.629,81.771 L39.877,81.771 C41.045,81.771 41.51,82.251 42.086,83.179 C42.486,83.82 42.902,84.748 43.398,86.141 C43.496,86.397 43.669,86.589 44.005,86.589 C44.341,86.589 44.63,86.349 44.63,85.964 C44.63,85.853 44.599,85.693 44.534,85.532 C44.104,84.381 43.59,83.18 43.094,82.412 L43.094,82.412 Z M40.069,80.555 L38.628,80.555 L38.628,76.522 C39.077,76.458 39.509,76.394 40.198,76.394 C42.487,76.394 43.206,77.29 43.206,78.475 C43.206,80.123 41.653,80.603 40.069,80.555 L40.069,80.555 Z M60.329,76.569 C60.216,75.736 59.929,75.273 59.272,75.273 C58.647,75.273 58.376,75.641 58.2,76.105 C57.384,78.314 56.487,81.147 55.511,83.772 L55.495,83.772 C54.485,81.291 53.702,78.682 52.677,76.249 C52.454,75.641 52.181,75.273 51.558,75.273 C50.902,75.273 50.597,75.721 50.501,76.602 C50.147,79.531 49.956,82.701 49.972,85.95 C49.956,86.334 50.197,86.591 50.548,86.591 C50.902,86.591 51.173,86.366 51.173,85.935 C51.157,82.862 51.349,79.884 51.685,76.891 L51.703,76.891 C52.68,79.516 53.623,82.157 54.664,84.782 C54.793,85.119 55.064,85.358 55.48,85.358 C55.878,85.358 56.183,85.119 56.312,84.782 C57.335,82.237 58.216,79.532 59.146,76.891 L59.162,76.891 C59.578,79.916 59.738,82.893 59.818,85.87 C59.818,86.318 60.043,86.591 60.459,86.591 C60.811,86.591 61.035,86.303 61.035,85.918 C61.035,85.79 61.017,85.55 61.017,85.438 C60.985,82.396 60.729,79.339 60.329,76.569 L60.329,76.569 Z M60.329,76.569" class="Shape"
		stroke="none"
		fill="#f68b1f"
		stroke-width="0.5"
		/>
		
			<path d="M279.792,149.471 L293.274,142.202 L263.729,98.419 L252.495,104.476 L230.956,72.544 L247.809,63.462 L250.266,67.113 L261.5,61.056 L254.114,50.107 L240.637,57.377 L203.708,2.64 L153.665,28.379 L156.747,32.938 L151.125,35.969 L178.823,77.019 L170.961,81.258 L167.887,76.694 L156.655,82.75 L159.729,87.314 L138.383,98.821 L126.215,96.676 L108.245,106.365 L104.549,100.888 L66.924,121.178 L77.073,136.23 L73.774,146.094 L54.676,156.395 L57.758,160.954 L47.649,166.404 L51.34,171.875 L38.983,178.538 L50.676,195.87 L43.94,199.503 L33.274,231.382 L80.219,239.658 L88.854,213.852 L94.069,214.771 L103.055,209.926 L98.131,202.629 L120.598,190.517 L132.909,208.762 L131.893,211.8 L117.979,209.346 L106.297,244.257 L121.946,247.017 L112.805,274.338 L105.85,273.11 L94.17,308.022 L101.125,309.248 L91.479,338.083 L138.424,346.36 L171.432,247.703 L176.651,248.625 L180.713,236.484 L194.622,238.936 L203.256,213.129 L217.165,215.581 L219.704,207.991 L259.696,215.042 L271.374,180.138 L267.069,173.747 L288.413,162.24 L279.792,149.471 Z M279.792,149.471" class="walkway"
		stroke="none"
		fill="#808285"
		stroke-width="0.5"
		/>
		
			<path d="M113.407,167.996 L112.917,166.053 L111.175,163.478 L107.999,165.186 L108.487,167.128 L110.229,169.709 L113.407,167.996 L113.407,167.996 Z M143.426,161.762 L142.938,159.821 L141.202,157.241 L138.024,158.956 L138.512,160.898 L140.252,163.478 L143.426,161.762 L143.426,161.762 Z M171.391,194.518 L171.881,196.459 L174.492,200.327 L178.137,198.367 L177.649,196.424 L175.034,192.554 L171.391,194.518 L171.391,194.518 Z M158.344,187.593 L155.172,189.302 L155.662,191.244 L157.398,193.824 L160.576,192.111 L160.086,190.168 L158.344,187.593 L158.344,187.593 Z M153.241,248.018 L154.255,244.987 L153.765,243.044 L150.286,242.431 L149.272,245.463 L149.758,247.405 L153.241,248.018 L153.241,248.018 Z M149.799,175.743 L149.309,173.802 L147.567,171.226 L144.389,172.934 L144.877,174.876 L146.619,177.457 L149.799,175.743 L149.799,175.743 Z M153.704,215.707 L150.768,211.358 L154.049,201.547 L153.561,199.606 L128.948,163.117 L87.386,185.524 L87.874,187.466 L97.106,201.148 L122.944,187.22 L132.79,201.816 L137.284,199.397 L139.596,202.826 L139.362,203.532 L139.85,205.472 L145.729,206.509 L144.791,209.309 L136.098,207.777 L134.573,212.334 L120.667,209.882 L110.003,241.755 L110.491,243.697 L128.544,246.88 L125.577,255.75 L126.065,257.693 L128.463,258.115 L121.94,277.613 L108.032,275.161 L100.923,296.41 L101.413,298.351 L127.497,302.952 L129.526,296.882 L129.038,294.939 L128.374,294.823 L154.192,217.651 L153.704,215.707 L153.704,215.707 Z M188.739,75.859 L198.157,80.737 L223.991,66.803 L223.503,64.861 L219.669,59.181 L233.675,51.631 L233.185,49.689 L202.41,4.08 L157.478,28.308 L157.968,30.25 L188.739,75.859 L188.739,75.859 Z M282.909,159.723 L275.386,148.574 L288.267,141.63 L287.779,139.689 L261.308,100.463 L251.199,105.913 L242.586,93.145 L240.338,94.352 L223.104,68.815 L202.885,79.716 L200.746,83.355 L201.234,85.297 L224.761,120.17 L221.993,121.659 L219.454,129.249 L219.944,131.191 L250.86,177.006 L234.606,185.769 L232.766,183.034 L231.641,183.638 L222.405,169.955 L215.669,173.587 L216.159,175.53 L227.235,191.949 L237.671,193.789 L240.21,186.199 L251.304,188.156 L249.351,193.993 L249.839,195.933 L262.015,198.08 L268.109,179.868 L267.619,177.925 L263.783,172.24 L283.4,161.663 L282.909,159.723 L282.909,159.723 Z M224.809,146.267 L216.196,133.495 L156.405,166.349 L155.134,170.149 L155.624,172.09 L167.317,189.422 L185.213,190.969 L206.555,179.461 L206.069,177.519 L204.219,174.782 L196.682,163.639 L225.299,148.209 L224.809,146.267 L224.809,146.267 Z M197.063,89.519 L198.803,92.101 L201.975,90.386 L201.487,88.444 L199.751,85.863 L196.573,87.577 L197.063,89.519 L197.063,89.519 Z M131.838,141.376 L138.793,142.602 L146.791,154.457 L149.4,154.917 L198.265,128.57 L205.247,107.703 L204.757,105.761 L192.605,87.745 L179.988,82.106 L177.523,78.455 L171.908,81.486 L172.398,83.429 L184.234,100.964 L182.588,101.851 L183.078,103.794 L189.373,113.124 L176.494,120.064 L166.648,105.468 L150.918,113.949 L151.408,115.89 L158.937,127.041 L155.041,129.14 L155.531,131.083 L159.361,136.762 L148.73,142.494 L149.218,144.436 L149.357,144.64 L145.472,146.739 L141.634,141.057 L146.654,138.353 L146.166,136.412 L139.393,126.382 L132.53,116.114 L144.239,109.8 L143.749,107.859 L138.21,99.648 L126.911,97.657 L109.499,107.045 L109.989,108.986 L131.838,141.376 L131.838,141.376 Z M159.235,80.854 L159.723,82.796 L162.18,86.447 L167.801,83.417 L167.313,81.474 L164.846,77.828 L159.235,80.854 L159.235,80.854 Z M230.842,65.6 L233.916,70.163 L250.764,61.08 L251.381,61.988 L257,58.963 L256.512,57.021 L252.815,51.549 L230.354,63.658 L230.842,65.6 L230.842,65.6 Z M206.2,95.038 L203.02,96.751 L203.51,98.693 L205.25,101.275 L208.43,99.562 L207.942,97.62 L206.2,95.038 L206.2,95.038 Z M155.208,249.726 L138.45,299.817 L138.938,301.757 L141.403,305.404 L148.358,306.63 L166.131,253.508 L165.643,251.566 L155.208,249.726 L155.208,249.726 Z M51.969,175.727 L54.973,180.326 L69.95,172.256 L72.411,175.902 L81.104,177.434 L112.555,160.476 L115.602,151.372 L122.34,147.734 L121.852,145.793 L116.791,138.293 L119.557,136.799 L119.067,134.857 L111.686,123.911 L108.315,125.728 L99.696,112.954 L89.266,111.116 L71.293,120.808 L71.783,122.75 L79.637,134.389 L75.846,145.718 L58.998,154.807 L59.486,156.749 L62.086,160.602 L52.578,165.728 L53.068,167.671 L55.668,171.524 L51.48,173.788 L51.969,175.727 L51.969,175.727 Z M122.063,308.175 L122.493,306.89 L122.003,304.949 L101.142,301.269 L100.124,304.307 L100.614,306.249 L104.753,306.978 L95.691,334.066 L96.179,336.007 L136.171,343.059 L145.819,314.218 L145.331,312.277 L122.063,308.175 L122.063,308.175 Z M184.924,146.854 L184.438,144.913 L182.694,142.332 L179.524,144.047 L180.012,145.989 L181.746,148.568 L184.924,146.854 L184.924,146.854 Z M90.278,198.894 L84.739,190.684 L75.499,196.288 L57.239,193.068 L47.13,198.518 L37.482,227.359 L37.972,229.3 L78.833,236.505 L88.229,208.424 L87.739,206.484 L85.755,203.543 L90.769,200.836 L90.278,198.894 L90.278,198.894 Z M247.319,200.062 L244.78,207.653 L245.268,209.594 L257.444,211.74 L259.983,204.15 L259.493,202.209 L247.319,200.062 L247.319,200.062 Z M219.629,200.046 L215.096,199.245 L209.922,198.332 L192.947,195.335 L187.455,194.365 L179.055,198.926 L177.616,203.328 L176.966,205.343 L173.032,217.102 L170.221,218.621 L162.352,242.143 L156.731,245.174 L156.223,246.688 L156.713,248.63 L167.149,250.47 L169.178,244.4 L176.133,245.627 L180.195,233.485 L192.365,235.631 L201.025,209.814 L215.107,212.285 L217.632,204.806 L231.277,207.176 L232.293,204.138 L231.805,202.196 L219.629,200.046 L219.629,200.046 Z M155.252,213.044 L158.732,213.658 L159.746,210.626 L159.258,208.683 L155.778,208.071 L154.764,211.102 L155.252,213.044 L155.252,213.044 Z M157.481,206.321 L160.961,206.934 L161.975,203.903 L161.487,201.96 L158.007,201.347 L156.993,204.379 L157.481,206.321 L157.481,206.321 Z M160.176,227.291 L161.192,224.259 L160.702,222.317 L157.222,221.704 L156.208,224.736 L156.696,226.677 L160.176,227.291 L160.176,227.291 Z M163.42,217.536 L162.93,215.593 L159.451,214.981 L158.437,218.012 L158.923,219.954 L162.405,220.568 L163.42,217.536 L163.42,217.536 Z M201.569,134.698 L203.309,137.279 L206.483,135.562 L205.995,133.621 L204.259,131.041 L201.081,132.756 L201.569,134.698 L201.569,134.698 Z M208.014,127.969 L207.526,126.028 L205.79,123.448 L202.612,125.163 L203.1,127.104 L204.84,129.685 L208.014,127.969 L208.014,127.969 Z M168.417,155.553 L167.929,153.612 L166.195,151.032 L163.015,152.747 L163.503,154.689 L165.245,157.269 L168.417,155.553 L168.417,155.553 Z M156.374,162.146 L159.548,160.429 L159.06,158.488 L157.324,155.908 L154.144,157.623 L154.634,159.565 L156.374,162.146 L156.374,162.146 Z M156.374,162.146" class="wall"
		stroke="none"
		fill="#989898"
		stroke-width="0.5"
		/>
		
			<path d="M164.731,77.552 L167.196,81.199 L161.575,84.229 L159.118,80.578 L164.731,77.552 Z M164.731,77.552" id="2001" class="unit"
		stroke="#dddddd"
		fill="white"
		stroke-width="0.5"
		/>
		
			<path d="M222.29,169.68 L225.014,173.719 L218.276,177.352 L218.018,176.958 L215.551,173.312 L222.29,169.68 Z M222.29,169.68" id="2002" class="unit"
		stroke="#dddddd"
		fill="white"
		stroke-width="0.5"
		/>
		
			<path d="M227.301,177.103 L229.588,180.492 L222.85,184.13 L220.563,180.74 L227.301,177.103 Z M227.301,177.103" id="2003" class="unit"
		stroke="#dddddd"
		fill="white"
		stroke-width="0.5"
		/>
		
			<path d="M237.702,183.762 L239.024,185.714 L237.065,191.572 L226.629,189.731 L224.87,187.124 L232.731,182.886 L234.319,185.231 L234.491,185.493 L237.702,183.762 Z M237.702,183.762" id="2004" class="unit"
		stroke="#dddddd"
		fill="white"
		stroke-width="0.5"
		/>
		
			<path d="M189.26,165.137 L199.69,180.619 L192.493,184.499 L182.014,169.027 L189.26,165.137 Z M189.26,165.137" id="2005" class="unit"
		stroke="#dddddd"
		fill="white"
		stroke-width="0.5"
		/>
		
			<path d="M195.45,161.814 L205.95,177.244 L200.014,180.444 L189.538,164.988 L195.45,161.814 Z M195.45,161.814" id="2006" class="unit"
		stroke="#dddddd"
		fill="white"
		stroke-width="0.5"
		/>
		
			<path d="M187.979,148.66 L196.295,160.988 L191.959,163.325 L183.665,151.03 L187.979,148.66 Z M187.979,148.66" id="2007" class="unit"
		stroke="#dddddd"
		fill="white"
		stroke-width="0.5"
		/>
		
			<path d="M191.645,163.495 L183.348,151.205 L175.903,155.295 L184.176,167.522 L191.645,163.495 Z M191.645,163.495" id="2008" class="unit"
		stroke="#dddddd"
		fill="white"
		stroke-width="0.5"
		/>
		
			<path d="M147.997,191.248 L150.897,195.555 L139.667,201.606 L136.762,197.305 L147.997,191.248 Z M147.997,191.248" id="2009" class="unit"
		stroke="#dddddd"
		fill="white"
		stroke-width="0.5"
		/>
		
			<path d="M151.313,205.702 L149.991,209.653 L144.778,208.734 L146.098,204.783 L151.313,205.702 Z M151.313,205.702" id="2010" class="unit"
		stroke="#dddddd"
		fill="white"
		stroke-width="0.5"
		/>
		
			<path d="M99.334,112.632 L121.581,145.603 L114.997,149.152 L111.95,158.256 L106.417,161.244 L101.36,153.749 L101.043,153.925 L95.821,156.736 L95.504,156.906 L80.096,165.219 L69.147,148.99 L75.729,145.44 L79.792,133.299 L71.176,120.53 L89.149,110.836 L99.334,112.632 Z M99.334,112.632" id="2011" class="unit"
		stroke="#dddddd"
		fill="white"
		stroke-width="0.5"
		/>
		
			<path d="M55.879,171.069 L58.959,175.634 L54.368,178.106 L51.364,173.509 L55.879,171.069 Z M55.879,171.069" id="2012" class="unit"
		stroke="#dddddd"
		fill="white"
		stroke-width="0.5"
		/>
		
			<path d="M84.442,163.226 L89.327,170.458 L85.147,172.707 L80.268,165.476 L84.442,163.226 Z M84.442,163.226" id="2013" class="unit"
		stroke="#dddddd"
		fill="white"
		stroke-width="0.5"
		/>
		
			<path d="M111.057,163.202 L112.801,165.778 L109.624,167.492 L107.881,164.91 L111.057,163.202 Z M111.057,163.202" id="2014" class="unit"
		stroke="#dddddd"
		fill="white"
		stroke-width="0.5"
		/>
		
			<path d="M68.831,149.16 L84.833,172.877 L80.497,175.214 L71.803,173.681 L69.344,170.036 L59.274,175.465 L52.502,165.429 L62.573,160 L58.881,154.528 L68.831,149.16 Z M68.831,149.16" id="2015" class="unit"
		stroke="#dddddd"
		fill="white"
		stroke-width="0.5"
		/>
		
			<path d="M128.831,162.841 L131.223,166.389 L112.928,176.256 L110.536,172.705 L128.831,162.841 Z M128.831,162.841" id="2016" class="unit"
		stroke="#dddddd"
		fill="white"
		stroke-width="0.5"
		/>
		
			<path d="M131.395,166.649 L134.02,170.532 L115.719,180.394 L113.1,176.513 L131.395,166.649 Z M131.395,166.649" id="2017" class="unit"
		stroke="#dddddd"
		fill="white"
		stroke-width="0.5"
		/>
		
			<path d="M134.192,170.788 L136.479,174.184 L118.184,184.047 L115.899,180.651 L134.192,170.788 Z M134.192,170.788" id="2018" class="unit"
		stroke="#dddddd"
		fill="white"
		stroke-width="0.5"
		/>
		
			<path d="M136.657,174.439 L139.204,178.223 L123.481,186.699 L122.336,185.004 L119.764,186.391 L118.356,184.303 L136.657,174.439 Z M136.657,174.439" id="2019" class="unit"
		stroke="#dddddd"
		fill="white"
		stroke-width="0.5"
		/>
		
			<path d="M110.213,172.879 L119.45,186.562 L113.506,189.761 L104.276,176.08 L110.213,172.879 Z M110.213,172.879" id="2020" class="unit"
		stroke="#dddddd"
		fill="white"
		stroke-width="0.5"
		/>
		
			<path d="M103.961,176.25 L113.19,189.938 L108.854,192.273 L99.618,178.591 L103.961,176.25 Z M103.961,176.25" id="2021" class="unit"
		stroke="#dddddd"
		fill="white"
		stroke-width="0.5"
		/>
		
			<path d="M99.303,178.762 L108.54,192.443 L103.397,195.212 L94.167,181.53 L99.303,178.762 Z M99.303,178.762" id="2022" class="unit"
		stroke="#dddddd"
		fill="white"
		stroke-width="0.5"
		/>
		
			<path d="M84.622,190.408 L90.161,198.617 L84.764,201.531 L79.397,193.578 L84.622,190.408 Z M84.622,190.408" id="2023" class="unit"
		stroke="#dddddd"
		fill="white"
		stroke-width="0.5"
		/>
		
			<path d="M93.852,181.701 L103.081,195.387 L96.499,198.931 L87.268,185.25 L93.852,181.701 Z M93.852,181.701" id="2024" class="unit"
		stroke="#dddddd"
		fill="white"
		stroke-width="0.5"
		/>
		
			<path d="M142.458,183.037 L145.358,187.345 L129.635,195.822 L126.733,191.52 L142.458,183.037 Z M142.458,183.037" id="2025" class="unit"
		stroke="#dddddd"
		fill="white"
		stroke-width="0.5"
		/>
		
			<path d="M145.536,187.603 L147.823,190.991 L132.094,199.473 L129.807,196.077 L145.536,187.603 Z M145.536,187.603" id="2026" class="unit"
		stroke="#dddddd"
		fill="white"
		stroke-width="0.5"
		/>
		
			<path d="M151.075,195.812 L153.446,199.331 L151.413,205.402 L146.2,204.483 L144.459,204.176 L139.245,203.256 L139.682,201.95 L151.075,195.812 Z M151.075,195.812" id="2027" class="unit"
		stroke="#dddddd"
		fill="white"
		stroke-width="0.5"
		/>
		
			<path d="M79.088,193.767 L87.575,206.344 L78.225,234.288 L37.364,227.083 L47.014,198.242 L57.124,192.792 L75.381,196.012 L79.088,193.767 Z M79.088,193.767" id="2028" class="unit"
		stroke="#dddddd"
		fill="white"
		stroke-width="0.5"
		/>
		
			<path d="M111.569,123.632 L118.95,134.579 L115.739,136.311 L108.354,125.361 L111.569,123.632 Z M111.569,123.632" id="2029" class="unit"
		stroke="#dddddd"
		fill="white"
		stroke-width="0.5"
		/>
		
			<path d="M122.907,126.814 L126.758,132.524 L139.133,125.878 L135.276,120.175 L122.907,126.814 Z M122.907,126.814" id="2030" class="unit"
		stroke="#dddddd"
		fill="white"
		stroke-width="0.5"
		/>
		
			<path d="M202.29,3.805 L233.045,49.381 L188.11,73.608 L157.362,28.033 L202.29,3.805 Z M202.29,3.805" id="2031" class="unit"
		stroke="#dddddd"
		fill="white"
		stroke-width="0.5"
		/>
		
			<path d="M177.407,78.179 L179.393,81.122 L173.778,84.153 L171.792,81.21 L177.407,78.179 Z M177.407,78.179" id="2032" class="unit"
		stroke="#dddddd"
		fill="white"
		stroke-width="0.5"
		/>
		
			<path d="M218.612,57.513 L223.383,64.586 L197.551,78.519 L188.42,73.791 L218.612,57.513 Z M218.612,57.513" id="2033" class="unit"
		stroke="#dddddd"
		fill="white"
		stroke-width="0.5"
		/>
		
			<path d="M179.571,81.378 L179.872,81.831 L184.276,83.799 L176.401,88.042 L173.95,84.409 L179.571,81.378 Z M179.571,81.378" id="2034" class="unit"
		stroke="#dddddd"
		fill="white"
		stroke-width="0.5"
		/>
		
			<path d="M184.635,83.955 L188.059,85.491 L178.249,90.78 L176.581,88.298 L184.635,83.955 Z M184.635,83.955" id="2035" class="unit"
		stroke="#dddddd"
		fill="white"
		stroke-width="0.5"
		/>
		
			<path d="M188.417,85.652 L192.309,87.392 L180.325,93.848 L178.42,91.036 L188.417,85.652 Z M188.417,85.652" id="2036" class="unit"
		stroke="#dddddd"
		fill="white"
		stroke-width="0.5"
		/>
		
			<path d="M199.633,85.587 L201.37,88.167 L198.198,89.882 L196.456,87.301 L199.633,85.587 Z M199.633,85.587" id="2037" class="unit"
		stroke="#dddddd"
		fill="white"
		stroke-width="0.5"
		/>
		
			<path d="M192.571,87.6 L194.782,90.877 L182.708,97.388 L180.497,94.11 L192.571,87.6 Z M192.571,87.6" id="2038" class="unit"
		stroke="#dddddd"
		fill="white"
		stroke-width="0.5"
		/>
		
			<path d="M222.983,68.537 L230.282,79.354 L206.7,92.07 L200.625,83.078 L202.764,79.438 L222.983,68.537 Z M222.983,68.537" id="2039" class="unit"
		stroke="#dddddd"
		fill="white"
		stroke-width="0.5"
		/>
		
			<path d="M194.956,91.133 L196.706,93.728 L184.631,100.237 L182.879,97.644 L194.956,91.133 Z M194.956,91.133" id="2040" class="unit"
		stroke="#dddddd"
		fill="white"
		stroke-width="0.5"
		/>
		
			<path d="M206.083,94.762 L207.825,97.343 L204.647,99.057 L202.905,96.476 L206.083,94.762 Z M206.083,94.762" id="2041" class="unit"
		stroke="#dddddd"
		fill="white"
		stroke-width="0.5"
		/>
		
			<path d="M230.461,79.612 L235.645,87.302 L212.059,100.018 L206.87,92.332 L230.461,79.612 Z M230.461,79.612" id="2042" class="unit"
		stroke="#dddddd"
		fill="white"
		stroke-width="0.5"
		/>
		
			<path d="M196.877,93.983 L204.182,104.804 L189.86,112.524 L182.561,101.707 L196.877,93.983 Z M196.877,93.983" id="2043" class="unit"
		stroke="#dddddd"
		fill="white"
		stroke-width="0.5"
		/>
		
			<path d="M189.577,112.677 L189.579,112.672 L189.86,112.524 L189.577,112.677 Z M189.577,112.677" id="2044" class="unit"
		stroke="#dddddd"
		fill="white"
		stroke-width="0.5"
		/>
		
			<path d="M235.825,87.559 L240.198,94.042 L216.606,106.761 L212.233,100.278 L235.825,87.559 Z M235.825,87.559" id="2045" class="unit"
		stroke="#dddddd"
		fill="white"
		stroke-width="0.5"
		/>
		
			<path d="M204.356,105.06 L204.643,105.485 L201.288,115.518 L196.93,109.062 L204.356,105.06 Z M204.356,105.06" id="2046" class="unit"
		stroke="#dddddd"
		fill="white"
		stroke-width="0.5"
		/>
		
			<path d="M242.618,93.085 L247.301,100.033 L221.467,113.967 L216.778,107.019 L242.618,93.085 Z M242.618,93.085" id="2047" class="unit"
		stroke="#dddddd"
		fill="white"
		stroke-width="0.5"
		/>
		
			<path d="M196.614,109.237 L201.143,115.943 L198.042,125.217 L189.749,112.934 L196.614,109.237 Z M196.614,109.237" id="2048" class="unit"
		stroke="#dddddd"
		fill="white"
		stroke-width="0.5"
		/>
		
			<path d="M139.286,126.123 L146.004,136.08 L138.069,140.363 L131.233,139.157 L126.934,132.787 L139.286,126.123 Z M139.286,126.123" id="2049" class="unit"
		stroke="#dddddd"
		fill="white"
		stroke-width="0.5"
		/>
		
			<path d="M247.479,100.291 L250.999,105.506 L225.159,119.438 L221.639,114.223 L247.479,100.291 Z M247.479,100.291" id="2050" class="unit"
		stroke="#dddddd"
		fill="white"
		stroke-width="0.5"
		/>
		
			<path d="M189.26,112.848 L197.897,125.648 L197.661,126.353 L192.922,128.908 L183.997,115.681 L189.26,112.848 Z M189.26,112.848" id="2051" class="unit"
		stroke="#dddddd"
		fill="white"
		stroke-width="0.5"
		/>
		
			<path d="M183.68,115.855 L192.606,129.078 L185.458,132.934 L176.538,119.707 L183.68,115.855 Z M183.68,115.855" id="2052" class="unit"
		stroke="#dddddd"
		fill="white"
		stroke-width="0.5"
		/>
		
			<path d="M140.563,139.368 L145.27,146.337 L143.022,147.55 L138.323,140.575 L140.563,139.368 Z M140.563,139.368" id="2053" class="unit"
		stroke="#dddddd"
		fill="white"
		stroke-width="0.5"
		/>
		
			<path d="M166.37,105.281 L185.141,133.104 L169.776,141.389 L151.004,113.566 L166.37,105.281 Z M166.37,105.281" id="2054" class="unit"
		stroke="#dddddd"
		fill="white"
		stroke-width="0.5"
		/>
		
			<path d="M159.301,126.511 L169.459,141.559 L165.286,143.809 L155.127,128.76 L159.301,126.511 Z M159.301,126.511" id="2055" class="unit"
		stroke="#dddddd"
		fill="white"
		stroke-width="0.5"
		/>
		
			<path d="M149.573,144.197 L153.575,150.122 L148.795,152.699 L146.186,152.239 L143.2,147.807 L149.657,144.322 L149.573,144.197 Z M149.573,144.197" id="2056" class="unit"
		stroke="#dddddd"
		fill="white"
		stroke-width="0.5"
		/>
		
			<path d="M216.079,133.218 L224.538,145.76 L213.182,151.883 L204.782,139.425 L216.079,133.218 Z M216.079,133.218" id="2057" class="unit"
		stroke="#dddddd"
		fill="white"
		stroke-width="0.5"
		/>
		
			<path d="M204.465,139.602 L212.868,152.054 L207.844,154.761 L199.469,142.348 L204.465,139.602 Z M204.465,139.602" id="2058" class="unit"
		stroke="#dddddd"
		fill="white"
		stroke-width="0.5"
		/>
		
			<path d="M199.155,142.518 L207.528,154.932 L202.233,157.787 L193.883,145.414 L199.155,142.518 Z M199.155,142.518" id="2059" class="unit"
		stroke="#dddddd"
		fill="white"
		stroke-width="0.5"
		/>
		
			<path d="M193.565,145.589 L201.917,157.958 L196.61,160.818 L188.293,148.484 L193.565,145.589 Z M193.565,145.589" id="2060" class="unit"
		stroke="#dddddd"
		fill="white"
		stroke-width="0.5"
		/>
		
			<path d="M225.192,173.976 L227.129,176.847 L220.387,180.479 L218.456,177.608 L225.192,173.976 Z M225.192,173.976" id="2061" class="unit"
		stroke="#dddddd"
		fill="white"
		stroke-width="0.5"
		/>
		
			<path d="M261.278,100.316 L287.659,139.41 L274.178,146.679 L282.62,159.19 L251.167,176.149 L219.336,128.972 L221.803,121.601 L261.278,100.316 Z M261.278,100.316" id="2062" class="unit"
		stroke="#dddddd"
		fill="white"
		stroke-width="0.5"
		/>
		
			<path d="M229.766,180.754 L231.438,183.23 L224.698,186.868 L223.022,184.385 L229.766,180.754 Z M229.766,180.754" id="2063" class="unit"
		stroke="#dddddd"
		fill="white"
		stroke-width="0.5"
		/>
		
			<path d="M252.698,51.272 L256.393,56.745 L250.889,59.709 L247.198,54.238 L252.698,51.272 Z M252.698,51.272" id="2064" class="unit"
		stroke="#dddddd"
		fill="white"
		stroke-width="0.5"
		/>
		
			<path d="M246.879,54.413 L249.956,58.971 L233.313,67.945 L230.237,63.382 L246.879,54.413 Z M246.879,54.413" id="2065" class="unit"
		stroke="#dddddd"
		fill="white"
		stroke-width="0.5"
		/>
		
			<path d="M262.573,170.349 L267.5,177.652 L264.963,185.236 L256.266,183.708 L251.772,186.128 L239.604,183.982 L239.167,185.288 L238.018,183.587 L262.573,170.349 Z M262.573,170.349" id="2066" class="unit"
		stroke="#dddddd"
		fill="white"
		stroke-width="0.5"
		/>
		
			<path d="M264.86,185.543 L261.407,195.864 L249.233,193.718 L251.627,186.56 L256.305,184.033 L264.86,185.543 Z M264.86,185.543" id="2067" class="unit"
		stroke="#dddddd"
		fill="white"
		stroke-width="0.5"
		/>
		
			<path d="M259.375,201.935 L256.836,209.524 L244.663,207.378 L247.202,199.788 L259.375,201.935 Z M259.375,201.935" id="2068" class="unit"
		stroke="#dddddd"
		fill="white"
		stroke-width="0.5"
		/>
		
			<path d="M231.758,202.152 L230.743,205.19 L216.946,202.722 L217.92,199.744 L231.758,202.152 Z M231.758,202.152" id="2069" class="unit"
		stroke="#dddddd"
		fill="white"
		stroke-width="0.5"
		/>
		
			<path d="M181.766,169.208 L184.096,172.652 L164.118,183.362 L161.811,179.935 L181.766,169.208 Z M181.766,169.208" id="2070" class="unit"
		stroke="#dddddd"
		fill="white"
		stroke-width="0.5"
		/>
		
			<path d="M169.374,158.883 L177.612,171.061 L183.911,167.665 L175.641,155.439 L169.374,158.883 Z M169.374,158.883" id="2071" class="unit"
		stroke="#dddddd"
		fill="white"
		stroke-width="0.5"
		/>
		
			<path d="M162.434,162.695 L170.618,174.832 L177.348,171.203 L169.11,159.027 L162.434,162.695 Z M162.434,162.695" id="2072" class="unit"
		stroke="#dddddd"
		fill="white"
		stroke-width="0.5"
		/>
		
			<path d="M162.116,162.872 L170.301,175.003 L165.004,177.858 L156.846,165.768 L162.116,162.872 Z M162.116,162.872" id="2073" class="unit"
		stroke="#dddddd"
		fill="white"
		stroke-width="0.5"
		/>
		
			<path d="M156.286,166.074 L156.528,165.942 L164.688,178.029 L161.631,179.678 L155.016,169.871 L156.286,166.074 Z M156.286,166.074" id="2074" class="unit"
		stroke="#dddddd"
		fill="white"
		stroke-width="0.5"
		/>
		
			<path d="M174.409,187.87 L184.608,188.752 L184.719,188.692 L181.565,184.028 L174.409,187.87 Z M174.409,187.87" id="2075" class="unit"
		stroke="#dddddd"
		fill="white"
		stroke-width="0.5"
		/>
		
			<path d="M195.729,195.844 L192.424,205.943 L200.454,207.36 L203.752,197.279 L195.729,195.844 Z M195.729,195.844" id="2077" class="unit"
		stroke="#dddddd"
		fill="white"
		stroke-width="0.5"
		/>
		
			<path d="M217.602,199.757 L211.149,198.603 L207.856,208.668 L214.313,209.808 L217.602,199.757 Z M217.602,199.757" id="2078" class="unit"
		stroke="#dddddd"
		fill="white"
		stroke-width="0.5"
		/>
		
			<path d="M204.049,197.332 L200.752,207.413 L207.559,208.615 L210.852,198.549 L204.049,197.332 Z M204.049,197.332" id="2079" class="unit"
		stroke="#dddddd"
		fill="white"
		stroke-width="0.5"
		/>
		
			<path d="M196.917,206.997 L200.397,207.654 L191.86,233.105 L166.655,228.66 L170.106,218.344 L172.913,216.826 L177.272,203.624 L183.008,204.545 L196.917,206.997 Z M196.917,206.997" id="2080" class="unit"
		stroke="#dddddd"
		fill="white"
		stroke-width="0.5"
		/>
		
			<path d="M178.737,199.042 L177.348,203.281 L184.139,204.48 L187.446,194.369 L178.737,199.042 Z M178.737,199.042" id="2081" class="unit"
		stroke="#dddddd"
		fill="white"
		stroke-width="0.5"
		/>
		
			<path d="M174.915,192.278 L177.532,196.148 L173.885,198.11 L171.276,194.241 L174.915,192.278 Z M174.915,192.278" id="2082" class="unit"
		stroke="#dddddd"
		fill="white"
		stroke-width="0.5"
		/>
		
			<path d="M167.456,245.52 L166.543,248.252 L156.108,246.412 L156.614,244.898 L158.411,243.926 L167.456,245.52 Z M167.456,245.52" id="2083" class="unit"
		stroke="#dddddd"
		fill="white"
		stroke-width="0.5"
		/>
		
			<path d="M179.59,231.266 L175.528,243.407 L168.573,242.182 L162.489,241.108 L166.551,228.967 L179.59,231.266 Z M179.59,231.266" id="2084" class="unit"
		stroke="#dddddd"
		fill="white"
		stroke-width="0.5"
		/>
		
			<path d="M168.471,242.487 L167.557,245.219 L158.864,243.688 L162.235,241.867 L162.387,241.414 L168.471,242.487 Z M168.471,242.487" id="2085" class="unit"
		stroke="#dddddd"
		fill="white"
		stroke-width="0.5"
		/>
		
			<path d="M150.188,297.129 L147.752,304.413 L140.797,303.188 L138.333,299.54 L139.754,295.289 L150.188,297.129 Z M150.188,297.129" id="2086" class="unit"
		stroke="#dddddd"
		fill="white"
		stroke-width="0.5"
		/>
		
			<path d="M151.713,292.572 L150.292,296.823 L139.858,294.983 L141.28,290.732 L151.713,292.572 Z M151.713,292.572" id="2087" class="unit"
		stroke="#dddddd"
		fill="white"
		stroke-width="0.5"
		/>
		
			<path d="M164.409,254.629 L163.495,257.361 L153.059,255.521 L153.973,252.789 L164.409,254.629 Z M164.409,254.629" id="2088" class="unit"
		stroke="#dddddd"
		fill="white"
		stroke-width="0.5"
		/>
		
			<path d="M163.393,257.667 L161.971,261.912 L151.538,260.072 L152.958,255.827 L163.393,257.667 Z M163.393,257.667" id="2089" class="unit"
		stroke="#dddddd"
		fill="white"
		stroke-width="0.5"
		/>
		
			<path d="M154.252,284.988 L152.932,288.933 L142.497,287.094 L143.817,283.147 L154.252,284.988 Z M154.252,284.988" id="2090" class="unit"
		stroke="#dddddd"
		fill="white"
		stroke-width="0.5"
		/>
		
			<path d="M155.37,281.644 L154.354,284.682 L143.918,282.842 L144.936,279.804 L155.37,281.644 Z M155.37,281.644" id="2091" class="unit"
		stroke="#dddddd"
		fill="white"
		stroke-width="0.5"
		/>
		
			<path d="M156.792,277.398 L155.471,281.343 L145.036,279.504 L146.356,275.558 L156.792,277.398 Z M156.792,277.398" id="2092" class="unit"
		stroke="#dddddd"
		fill="white"
		stroke-width="0.5"
		/>
		
			<path d="M159.331,269.808 L156.893,277.092 L146.458,275.252 L148.897,267.969 L159.331,269.808 Z M159.331,269.808" id="2093" class="unit"
		stroke="#dddddd"
		fill="white"
		stroke-width="0.5"
		/>
		
			<path d="M160.448,266.469 L159.432,269.502 L148.999,267.662 L150.012,264.63 L160.448,266.469 Z M160.448,266.469" id="2094" class="unit"
		stroke="#dddddd"
		fill="white"
		stroke-width="0.5"
		/>
		
			<path d="M161.87,262.218 L160.549,266.164 L150.114,264.323 L151.434,260.379 L161.87,262.218 Z M161.87,262.218" id="2095" class="unit"
		stroke="#dddddd"
		fill="white"
		stroke-width="0.5"
		/>
		
			<path d="M152.831,289.233 L151.815,292.271 L141.379,290.432 L142.397,287.394 L152.831,289.233 Z M152.831,289.233" id="2096" class="unit"
		stroke="#dddddd"
		fill="white"
		stroke-width="0.5"
		/>
		
			<path d="M165.526,251.29 L164.51,254.322 L154.077,252.482 L155.09,249.45 L165.526,251.29 Z M165.526,251.29" id="2097" class="unit"
		stroke="#dddddd"
		fill="white"
		stroke-width="0.5"
		/>
		
			<path d="M121.887,304.673 L120.87,307.711 L105.221,304.951 L100.006,304.032 L101.024,300.994 L121.887,304.673 Z M121.887,304.673" id="2098" class="unit"
		stroke="#dddddd"
		fill="white"
		stroke-width="0.5"
		/>
		
			<path d="M145.11,312.309 L135.563,340.844 L95.573,333.791 L105.12,305.257 L145.11,312.309 Z M145.11,312.309" id="2099" class="unit"
		stroke="#dddddd"
		fill="white"
		stroke-width="0.5"
		/>
		
			<path d="M132.233,279.253 L127.18,294.357 L128.92,294.664 L126.889,300.734 L100.807,296.136 L107.891,274.962 L132.233,279.253 Z M132.233,279.253" id="2100" class="unit"
		stroke="#dddddd"
		fill="white"
		stroke-width="0.5"
		/>
		
			<path d="M142.922,247.305 L140.891,253.375 L126.983,250.923 L129.014,244.853 L142.922,247.305 Z M142.922,247.305" id="2101" class="unit"
		stroke="#dddddd"
		fill="white"
		stroke-width="0.5"
		/>
		
			<path d="M140.79,253.682 L139.37,257.927 L128.934,256.087 L125.459,255.475 L126.879,251.229 L140.79,253.682 Z M140.79,253.682" id="2102" class="unit"
		stroke="#dddddd"
		fill="white"
		stroke-width="0.5"
		/>
		
			<path d="M139.266,258.232 L135.915,268.248 L125.481,266.409 L128.831,256.393 L139.266,258.232 Z M139.266,258.232" id="2103" class="unit"
		stroke="#dddddd"
		fill="white"
		stroke-width="0.5"
		/>
		
			<path d="M135.813,268.555 L134.391,272.806 L123.956,270.966 L125.379,266.715 L135.813,268.555 Z M135.813,268.555" id="2104" class="unit"
		stroke="#dddddd"
		fill="white"
		stroke-width="0.5"
		/>
		
			<path d="M134.29,273.106 L132.334,278.953 L121.899,277.113 L123.856,271.267 L134.29,273.106 Z M134.29,273.106" id="2105" class="unit"
		stroke="#dddddd"
		fill="white"
		stroke-width="0.5"
		/>
		
			<path d="M139.381,178.479 L142.284,182.781 L126.553,191.263 L123.653,186.955 L139.381,178.479 Z M139.381,178.479" id="2106" class="unit"
		stroke="#dddddd"
		fill="white"
		stroke-width="0.5"
		/>
		
			<path d="M153.649,242.767 L152.633,245.799 L149.153,245.186 L150.168,242.153 L153.649,242.767 Z M153.649,242.767" id="2107" class="unit"
		stroke="#dddddd"
		fill="white"
		stroke-width="0.5"
		/>
		
			<path d="M149.891,209.953 L153.586,215.432 L143.026,246.998 L109.987,241.173 L120.549,209.606 L134.458,212.059 L135.983,207.502 L144.676,209.035 L149.891,209.953 Z M149.891,209.953" id="2108" class="unit"
		stroke="#dddddd"
		fill="white"
		stroke-width="0.5"
		/>
		
			<path d="M90.145,160.151 L95.022,167.388 L89.643,170.288 L84.766,163.051 L90.145,160.151 Z M90.145,160.151" id="2109" class="unit"
		stroke="#dddddd"
		fill="white"
		stroke-width="0.5"
		/>
		
			<path d="M101.215,154.182 L106.094,161.413 L100.875,164.231 L95.999,156.994 L101.215,154.182 Z M101.215,154.182" id="2110" class="unit"
		stroke="#dddddd"
		fill="white"
		stroke-width="0.5"
		/>
		
			<path d="M95.676,157.168 L100.561,164.4 L95.338,167.213 L90.459,159.981 L95.676,157.168 Z M95.676,157.168" id="2111" class="unit"
		stroke="#dddddd"
		fill="white"
		stroke-width="0.5"
		/>
		
			<path d="M159.735,136.228 L164.963,143.982 L158.5,147.467 L153.274,139.712 L159.735,136.228 Z M159.735,136.228" id="2112" class="unit"
		stroke="#dddddd"
		fill="white"
		stroke-width="0.5"
		/>
		
			<path d="M152.95,139.886 L158.186,147.637 L153.891,149.952 L148.657,142.201 L152.95,139.886 Z M152.95,139.886" id="2113" class="unit"
		stroke="#dddddd"
		fill="white"
		stroke-width="0.5"
		/>
		
			<path d="M138.094,99.375 L143.547,107.461 L118.834,120.781 L109.381,106.771 L126.795,97.383 L138.094,99.375 Z M138.094,99.375" id="2114" class="unit"
		stroke="#dddddd"
		fill="white"
		stroke-width="0.5"
		/>
		
			<path d="M141.084,156.964 L142.819,159.544 L139.647,161.26 L137.907,158.679 L141.084,156.964 Z M141.084,156.964" id="2115" class="unit"
		stroke="#dddddd"
		fill="white"
		stroke-width="0.5"
		/>
		
			<path d="M182.579,142.054 L184.321,144.636 L181.141,146.35 L179.405,143.769 L182.579,142.054 Z M182.579,142.054" id="2116" class="unit"
		stroke="#dddddd"
		fill="white"
		stroke-width="0.5"
		/>
		
			<path d="M147.45,170.949 L149.192,173.526 L146.014,175.239 L144.272,172.658 L147.45,170.949 Z M147.45,170.949" id="2117" class="unit"
		stroke="#dddddd"
		fill="white"
		stroke-width="0.5"
		/>
		
			<path d="M158.229,187.317 L159.969,189.893 L156.792,191.606 L155.055,189.026 L158.229,187.317 Z M158.229,187.317" id="2118" class="unit"
		stroke="#dddddd"
		fill="white"
		stroke-width="0.5"
		/>
		
			<path d="M131.411,114.463 L119.012,121.043 L122.737,126.565 L135.106,119.925 L131.411,114.463 Z M131.411,114.463" id="2119" class="unit"
		stroke="#dddddd"
		fill="white"
		stroke-width="0.5"
		/>
		
			<path d="M159.125,208.683 L158.112,211.715 L154.631,211.102 L155.647,208.069 L159.125,208.683 Z M159.125,208.683" id="2120" class="unit"
		stroke="#dddddd"
		fill="white"
		stroke-width="0.5"
		/>
		
			<path d="M161.356,201.96 L160.34,204.992 L156.86,204.379 L157.875,201.347 L161.356,201.96 Z M161.356,201.96" id="2121" class="unit"
		stroke="#dddddd"
		fill="white"
		stroke-width="0.5"
		/>
		
			<path d="M160.569,222.315 L159.555,225.348 L156.075,224.734 L157.088,221.702 L160.569,222.315 Z M160.569,222.315" id="2122" class="unit"
		stroke="#dddddd"
		fill="white"
		stroke-width="0.5"
		/>
		
			<path d="M162.799,215.593 L161.784,218.625 L158.303,218.012 L159.319,214.979 L162.799,215.593 Z M162.799,215.593" id="2123" class="unit"
		stroke="#dddddd"
		fill="white"
		stroke-width="0.5"
		/>
		
			<path d="M204.252,131.073 L205.995,133.648 L202.817,135.362 L201.081,132.782 L204.252,131.073 Z M204.252,131.073" id="2125" class="unit"
		stroke="#dddddd"
		fill="white"
		stroke-width="0.5"
		/>
		
			<path d="M205.782,123.335 L207.524,125.91 L204.346,127.624 L202.61,125.044 L205.782,123.335 Z M205.782,123.335" id="2124" class="unit"
		stroke="#dddddd"
		fill="white"
		stroke-width="0.5"
		/>
		
			<path d="M166.186,151.03 L167.928,153.605 L164.75,155.319 L163.014,152.739 L166.186,151.03 Z M166.186,151.03" id="2126" class="unit"
		stroke="#dddddd"
		fill="white"
		stroke-width="0.5"
		/>
		
			<path d="M157.315,155.908 L159.057,158.483 L155.879,160.197 L154.143,157.617 L157.315,155.908 Z M157.315,155.908" id="2127" class="unit"
		stroke="#dddddd"
		fill="white"
		stroke-width="0.5"
		/>
		
			<path d="M184.983,188.549 L192.168,184.674 L189.03,180.021 L181.829,183.886 L184.983,188.549 Z M184.983,188.549" id="2128" class="unit"
		stroke="#dddddd"
		fill="white"
		stroke-width="0.5"
		/>
		
			<path d="M184.209,172.877 L164.297,183.619 L166.526,186.93 L186.469,176.225 L184.209,172.877 Z M184.209,172.877" id="2129" class="unit"
		stroke="#dddddd"
		fill="white"
		stroke-width="0.5"
		/>
		
			<path d="M186.637,176.474 L166.694,187.18 L166.709,187.204 L173.862,187.822 L188.862,179.771 L186.637,176.474 Z M186.637,176.474" id="2130" class="unit"
		stroke="#dddddd"
		fill="white"
		stroke-width="0.5"
		/>
		
			<path d="M187.747,194.415 L184.438,204.532 L192.127,205.891 L195.432,195.79 L187.747,194.415 Z M187.747,194.415" id="2131" class="unit"
		stroke="#dddddd"
		fill="white"
		stroke-width="0.5"
		/>
		
		</g>
	
		
 		
			<g class="parking"
				transform="translate(374.3,19.3) scale(0.7)"
				style="display: none"
				>
			
			</g>
		
			<g class="parking"
				transform="translate(264.3,64.3) scale(0.7)"
				style="display: none"
				>
			
			</g>
		
			<g class="parking"
				transform="translate(154.3,204.3) scale(0.7)"
				style="display: none"
				>
			
			</g>
		
			<g class="parking"
				transform="translate(214.3,264.3) scale(0.7)"
				style="display: none"
				>
			
			</g>
		
			<g class="shopmobility"
				transform="translate(179.3,184.3) scale(0.7)"
				style="display: none"
				>
			
			</g>
		
			<g class="customer_services"
				transform="translate(184.3,189.3) scale(0.7)"
				style="display: none"
				>
			
			</g>
		
			<g class="customer_services"
				transform="translate(289.3,159.3) scale(0.7)"
				style="display: none"
				>
			
			</g>
		
	
		<g transform="translate(140,310) scale(1)">
		
		
			<path d="M264.866,104.267 L277.685,96.856 L251.645,57.348 L257.38,54.502 L240.18,28.545 L245.357,13.075 L236.971,0.649 L177.624,31.073 L182.609,38.031 L165.963,46.281 L172.274,56.082 L156.794,64.03 L151.109,56.805 L127.608,70.309 L128.469,72.023 L106.558,83.613 L99.318,73.333 L30.032,110.95 L35.488,119.951 L19.574,128.783 L33.016,147.805 L25.223,151.786 L13.459,186.949 L63.234,195.725 L74.526,161.973 L104.798,146.119 L115.255,160.812 L112.412,169.309 L97.827,166.738 L86.437,200.782 L98.941,202.987 L91.159,226.247 L89.421,225.941 L79.488,255.629 L75.999,258.489 L75.842,258.848 C73.516,264.183 66.081,282.01 68.11,287.37 C69.054,289.871 72.485,291.562 78.903,292.693 C82.95,293.408 86.471,293.588 86.62,293.595 L87.85,293.656 L88.708,291.087 L98.626,292.837 L97.185,303.819 L120.822,307.985 L119.301,312.532 L221.872,330.618 L240.058,276.266 L227.553,274.061 L234.858,252.231 L215.758,248.863 L218.802,239.765 L148.637,227.393 L160.578,191.701 L177.602,194.702 L186.437,168.297 L186.214,167.641 L217.364,173.133 L219.798,165.859 L242.548,169.871 L254.899,132.958 L252.53,129.074 L272.922,117.583 L264.866,104.267 L264.866,104.267 Z M264.866,104.267" class="outline"
		stroke="none"
		fill="#f68b1f"
		stroke-width="0.5"
		/>
		
			<path d="M29.404,45.926 C29.068,45.926 28.86,46.182 28.812,46.502 C28.364,49.559 27.789,52.648 27.051,55.721 L27.019,55.721 C26.155,52.905 25.467,49.543 24.714,47.19 C24.41,46.23 24.138,45.926 23.642,45.926 C23.209,45.926 22.89,46.262 22.619,47.126 C21.883,49.447 21.065,53.081 20.202,55.721 L20.17,55.721 C19.418,52.664 18.969,49.575 18.568,46.566 C18.488,46.134 18.264,45.926 17.913,45.926 C17.528,45.926 17.305,46.23 17.305,46.566 C17.305,46.678 17.337,46.87 17.353,46.934 C17.787,50.023 18.394,53.193 19.018,55.961 C19.243,56.922 19.579,57.242 20.122,57.242 C20.601,57.242 20.922,56.97 21.226,56.105 C22.09,53.608 22.698,50.855 23.627,47.686 L23.659,47.686 C24.619,50.855 25.18,53.624 25.948,56.105 C26.219,56.985 26.555,57.242 27.085,57.242 C27.564,57.242 27.885,56.905 28.077,56.169 C28.829,53.176 29.47,50.055 29.981,46.854 C30.013,46.678 30.013,46.566 30.013,46.486 C30.012,46.198 29.772,45.926 29.404,45.926 L29.404,45.926 Z M5.689,55.994 L1.383,55.994 L1.383,46.582 C1.383,46.182 1.127,45.926 0.775,45.926 C0.423,45.926 0.15,46.182 0.15,46.582 L0.15,56.218 C0.15,56.81 0.518,57.178 1.208,57.178 L5.688,57.178 C6.088,57.178 6.344,56.907 6.344,56.57 C6.346,56.266 6.106,55.994 5.689,55.994 L5.689,55.994 Z M37.898,55.961 L33.128,55.961 L33.128,52.104 L37.002,52.104 C37.386,52.104 37.594,51.784 37.594,51.512 C37.594,51.224 37.386,50.936 37.002,50.936 L33.128,50.936 L33.128,47.206 L37.737,47.206 C38.153,47.206 38.378,46.934 38.378,46.63 C38.378,46.294 38.153,45.99 37.737,45.99 L32.952,45.99 C32.264,45.99 31.894,46.358 31.894,46.95 L31.894,56.218 C31.894,56.81 32.262,57.178 32.952,57.178 L37.897,57.178 C38.282,57.178 38.505,56.842 38.505,56.57 C38.506,56.234 38.282,55.961 37.898,55.961 L37.898,55.961 Z M11.417,45.862 C8.536,45.862 6.711,48.199 6.711,51.8 C6.711,55.194 8.503,57.306 11.369,57.306 C14.25,57.306 16.075,54.953 16.075,51.352 C16.075,47.958 14.267,45.862 11.417,45.862 L11.417,45.862 Z M11.401,56.122 C9.256,56.122 8.007,54.378 8.007,51.864 C8.007,48.903 9.238,47.046 11.384,47.046 C13.577,47.046 14.778,48.791 14.778,51.288 C14.779,54.25 13.546,56.122 11.401,56.122 L11.401,56.122 Z M89.465,55.994 L85.159,55.994 L85.159,46.582 C85.159,46.182 84.902,45.926 84.551,45.926 C84.198,45.926 83.927,46.182 83.927,46.582 L83.927,56.218 C83.927,56.81 84.295,57.178 84.984,57.178 L89.465,57.178 C89.864,57.178 90.121,56.907 90.121,56.57 C90.122,56.266 89.881,55.994 89.465,55.994 L89.465,55.994 Z M81.849,55.994 L77.543,55.994 L77.543,46.582 C77.543,46.182 77.286,45.926 76.935,45.926 C76.582,45.926 76.311,46.182 76.311,46.582 L76.311,56.218 C76.311,56.81 76.678,57.178 77.368,57.178 L81.849,57.178 C82.248,57.178 82.505,56.907 82.505,56.57 C82.505,56.266 82.265,55.994 81.849,55.994 L81.849,55.994 Z M45.946,53.065 C45.659,52.648 45.339,52.329 44.969,52.088 C46.394,51.592 47.323,50.599 47.323,49.079 C47.323,47.142 46.011,45.862 43.113,45.862 C42.009,45.862 41.256,45.974 40.744,46.134 C40.344,46.262 40.231,46.502 40.231,46.902 L40.231,56.602 C40.231,57.002 40.503,57.243 40.856,57.243 C41.209,57.243 41.48,57.003 41.48,56.602 L41.48,52.424 L42.728,52.424 C43.897,52.424 44.361,52.904 44.937,53.832 C45.337,54.473 45.753,55.401 46.249,56.794 C46.346,57.05 46.52,57.242 46.856,57.242 C47.192,57.242 47.48,57.002 47.48,56.617 C47.48,56.506 47.45,56.346 47.384,56.185 C46.955,55.034 46.442,53.833 45.946,53.065 L45.946,53.065 Z M42.92,51.208 L41.48,51.208 L41.48,47.175 C41.928,47.111 42.36,47.047 43.048,47.047 C45.337,47.047 46.058,47.943 46.058,49.128 C46.058,50.776 44.505,51.255 42.92,51.208 L42.92,51.208 Z M71.738,47.398 C71.114,46.149 70.618,45.781 70.056,45.781 C69.496,45.781 68.999,46.149 68.375,47.398 C67.479,49.206 66.791,51.48 65.622,56.106 C65.558,56.33 65.526,56.506 65.526,56.618 C65.526,57.003 65.782,57.243 66.133,57.243 C66.421,57.243 66.629,57.066 66.709,56.73 C67.013,55.353 67.316,54.121 67.621,53.065 L72.487,53.065 C72.775,54.121 73.079,55.353 73.399,56.73 C73.479,57.066 73.686,57.243 73.974,57.243 C74.328,57.243 74.582,57.003 74.582,56.618 C74.582,56.507 74.534,56.33 74.485,56.106 C73.354,51.48 72.633,49.207 71.738,47.398 L71.738,47.398 Z M67.945,51.944 C68.68,49.495 69.338,47.975 69.848,47.174 C69.897,47.11 69.945,47.046 70.056,47.046 C70.168,47.046 70.216,47.11 70.264,47.174 C70.778,47.974 71.416,49.494 72.154,51.944 L67.945,51.944 L67.945,51.944 Z M63.179,47.222 C63.068,46.389 62.78,45.926 62.122,45.926 C61.498,45.926 61.226,46.294 61.05,46.758 C60.235,48.967 59.337,51.8 58.361,54.425 L58.345,54.425 C57.336,51.944 56.552,49.335 55.528,46.902 C55.303,46.294 55.033,45.926 54.409,45.926 C53.753,45.926 53.448,46.374 53.351,47.255 C52.998,50.184 52.807,53.354 52.824,56.603 C52.807,56.987 53.048,57.244 53.399,57.244 C53.752,57.244 54.023,57.019 54.023,56.588 C54.007,53.515 54.201,50.537 54.537,47.544 L54.553,47.544 C55.53,50.169 56.474,52.81 57.514,55.435 C57.643,55.772 57.914,56.011 58.33,56.011 C58.729,56.011 59.035,55.772 59.163,55.435 C60.186,52.89 61.067,50.185 61.996,47.544 L62.012,47.544 C62.428,50.569 62.588,53.546 62.668,56.523 C62.668,56.971 62.893,57.244 63.309,57.244 C63.662,57.244 63.885,56.956 63.885,56.571 C63.885,56.443 63.868,56.203 63.868,56.091 C63.835,53.048 63.579,49.992 63.179,47.222 L63.179,47.222 Z M63.179,47.222" class="Shape"
		stroke="none"
		fill="#f68b1f"
		stroke-width="0.5"
		/>
		
			<path d="M236.432,2.751 L243.563,13.319 L238.39,28.78 L255.01,53.863 L249.28,56.707 L275.382,96.31 L262.619,103.688 L270.668,116.99 L250.271,128.484 L253.125,133.159 L241.459,168.028 L218.709,164.016 L216.274,171.29 L183.802,165.565 L184.727,168.3 L176.51,192.859 L159.487,189.857 L146.502,228.667 L216.666,241.039 L213.623,250.137 L232.721,253.504 L225.417,275.334 L237.921,277.539 L220.779,328.774 L121.444,311.258 L122.965,306.713 L99.003,302.486 L100.445,291.506 L87.616,289.243 L86.703,291.972 C86.523,291.963 83.098,291.783 79.187,291.093 C75.009,290.357 70.484,289.05 69.632,286.795 C67.678,281.63 76.854,260.6 77.336,259.493 L80.883,256.588 L90.521,227.783 L92.259,228.089 L101.083,201.713 L88.58,199.508 L98.927,168.58 L113.513,171.152 L117.062,160.543 L105.304,144.021 L73.197,160.835 L62.14,193.88 L15.602,185.674 L26.557,152.929 L35.43,148.396 L21.95,129.322 L37.756,120.55 L32.308,111.562 L98.827,75.449 L106.056,85.716 L130.639,72.713 L129.752,70.95 L150.702,58.912 L156.346,66.086 L174.614,56.708 L168.318,46.928 L185.047,38.637 L180.046,31.658 L236.432,2.751 L236.432,2.751 Z M236.432,2.751" class="walkway"
		stroke="none"
		fill="#808285"
		stroke-width="0.5"
		/>
		
			<path d="M148.636,167.635 L152.114,168.248 L153.129,165.214 L152.641,163.274 L148.15,165.695 L148.636,167.635 L148.636,167.635 Z M136.192,140.897 L136.679,142.837 L138.411,145.414 L141.587,143.702 L141.098,141.762 L139.36,139.183 L136.192,140.897 L136.192,140.897 Z M160.313,98.568 L157.136,100.279 L157.625,102.219 L159.365,104.797 L162.533,103.084 L162.044,101.145 L160.313,98.568 L160.313,98.568 Z M149.369,157.646 L146.194,159.358 L146.682,161.298 L148.422,163.876 L151.596,162.165 L151.109,160.225 L149.369,157.646 L149.369,157.646 Z M193.683,82.465 L193.195,80.525 L187.988,79.607 L185.96,85.67 L186.448,87.61 L193.177,83.982 L193.683,82.465 L193.683,82.465 Z M149.535,104.377 L146.361,106.089 L146.848,108.028 L148.588,110.601 L151.761,108.895 L151.274,106.955 L149.535,104.377 L149.535,104.377 Z M146.113,176.288 L145.624,174.348 L142.147,173.735 L141.132,176.764 L141.621,178.704 L145.098,179.317 L146.113,176.288 L146.113,176.288 Z M154.923,101.472 L151.748,103.184 L152.237,105.124 L153.975,107.702 L157.15,105.99 L156.662,104.05 L154.923,101.472 L154.923,101.472 Z M164.746,101.891 L167.918,100.185 L167.429,98.246 L165.692,95.667 L162.517,97.379 L163.005,99.319 L164.746,101.891 L164.746,101.891 Z M155.003,131.822 L170.802,123.505 L175.583,130.648 L177.452,130.978 L190.918,123.717 L191.425,122.201 L212.126,109.801 L211.637,107.861 L196.881,85.99 L136.805,117.136 L135.5,126.539 L135.989,128.479 L158.094,163.443 L156.323,168.742 L149.594,172.37 L140.971,198.141 L141.46,200.081 L153.613,202.224 L158.685,187.063 L176.051,190.125 L182.646,170.418 L182.157,168.478 L172.181,153.694 L182.798,147.974 L182.311,146.034 L168.9,125.967 L153.058,134.467 L144.939,122.41 L147.68,120.976 L155.003,131.822 L155.003,131.822 Z M208.849,64.444 L209.338,66.384 L211.078,68.963 L214.246,67.25 L213.757,65.31 L212.024,62.739 L208.849,64.444 L208.849,64.444 Z M129.798,222.854 L129.308,220.914 L125.832,220.301 L124.816,223.336 L125.304,225.275 L128.782,225.888 L129.798,222.854 L129.798,222.854 Z M109.028,88.512 L117.053,100.418 L123.768,101.602 L132.206,112.296 L180.903,86.206 L183.347,77.431 L189.469,73.8 L191.566,67.535 L195.891,64.876 L204.224,66.345 L215.361,60.172 L214.872,58.232 L203.171,41.188 L193.905,39.554 L191.951,37.081 L193.398,32.753 L203.405,27.027 L209.193,28.048 L228.039,17.887 L239.617,19.929 L241.578,14.067 L241.089,12.128 L235.221,4.024 L185.491,30.574 L185.979,32.514 L188.541,36.618 L172.081,44.692 L172.569,46.632 L176.254,52.102 L180.745,49.68 L183.383,53.172 L155.13,68.248 L150.376,61.203 L135.05,69.631 L135.538,71.571 L135.982,72.428 L108.539,86.571 L109.028,88.512 L109.028,88.512 Z M137.887,186.467 L138.376,188.407 L141.852,189.02 L142.867,185.992 L142.379,184.052 L138.902,183.439 L137.887,186.467 L137.887,186.467 Z M141.242,190.843 L140.753,188.903 L137.277,188.29 L136.262,191.318 L136.751,193.258 L140.228,193.871 L141.242,190.843 L141.242,190.843 Z M138.606,198.724 L139.621,195.689 L139.133,193.75 L135.656,193.137 L134.639,196.172 L135.129,198.112 L138.606,198.724 L138.606,198.724 Z M135.072,207.093 L134.583,205.153 L131.106,204.54 L130.091,207.568 L130.58,209.508 L134.057,210.121 L135.072,207.093 L135.072,207.093 Z M180.489,93.408 L179.999,91.469 L178.261,88.89 L175.086,90.602 L175.574,92.541 L177.313,95.12 L180.489,93.408 L180.489,93.408 Z M201.667,289.473 L205.137,290.085 L206.154,287.05 L205.665,285.11 L202.195,284.498 L201.178,287.533 L201.667,289.473 L201.667,289.473 Z M198.984,274.304 L197.969,277.333 L198.458,279.273 L201.928,279.885 L202.943,276.856 L202.454,274.917 L198.984,274.304 L198.984,274.304 Z M197.749,308.762 L194.279,308.153 L193.265,311.18 L193.754,313.119 L197.223,313.73 L198.238,310.703 L197.749,308.762 L197.749,308.762 Z M200.489,284.093 L196.801,278.628 L194.401,278.205 L195.301,275.508 L194.813,273.568 L191.343,272.957 L190.329,275.985 L190.725,277.557 L187.454,276.98 L188.356,274.283 L187.867,272.343 L184.39,271.73 L183.376,274.759 L183.772,276.331 L179.812,275.633 L180.713,272.936 L180.225,270.997 L176.748,270.384 L175.734,273.412 L176.13,274.985 L172.171,274.287 L173.073,271.59 L172.583,269.65 L169.107,269.037 L168.092,272.065 L168.488,273.638 L164.521,272.938 L165.422,270.24 L164.933,268.301 L161.464,267.689 L160.451,270.718 L160.847,272.29 L157.576,271.713 L158.477,269.017 L157.988,267.077 L154.519,266.465 L153.504,269.493 L153.9,271.065 L141.6,268.897 L142.502,266.2 L142.013,264.26 L138.536,263.647 L137.523,266.675 L138.01,268.615 L139.367,268.854 L127.814,303.385 L128.302,305.324 L190.821,316.347 L200.964,286.031 L200.489,284.093 L200.489,284.093 Z M229.708,152.786 L226.666,161.879 L227.156,163.819 L241.047,166.269 L244.089,157.176 L243.6,155.236 L229.708,152.786 L229.708,152.786 Z M266.486,114.318 L258.967,103.175 L271.829,96.244 L271.34,94.304 L245.384,55.832 L251.535,52.516 L251.048,50.576 L246.123,43.287 L234.21,49.67 L227.979,40.365 L236.982,35.512 L236.493,33.572 L231.576,26.284 L222.891,24.752 L211.67,30.802 L210.149,35.348 L207.904,36.558 L208.392,38.498 L227.418,64.559 L205.645,76.3 L203.618,82.363 L204.106,84.302 L236.21,131.885 L232.322,133.977 L232.809,135.917 L234.039,137.74 L240.791,134.18 L243.692,138.453 L242.871,138.316 L240.95,135.567 L232.738,140.008 L232.146,139.58 L229.999,146.415 L230.487,148.355 L246.117,151.11 L249.411,141.265 L249.185,140.373 L249.68,140.457 L251.697,134.432 L251.208,132.492 L247.381,126.82 L266.975,116.257 L266.486,114.318 L266.486,114.318 Z M131.533,135.208 L134.707,133.497 L134.218,131.557 L132.481,128.98 L129.305,130.691 L129.793,132.631 L131.533,135.208 L131.533,135.208 Z M222.745,275.725 L229.503,255.745 L229.014,253.805 L210.984,250.626 L213.442,243.278 L212.954,241.338 L143.782,229.21 L151.443,206.663 L150.954,204.723 L137.713,202.388 L120.469,253.928 L120.957,255.868 L125.15,259.822 L212.643,275.249 L197.505,320.493 L197.994,322.432 L218.832,326.108 L234.357,279.627 L233.868,277.687 L222.745,275.725 L222.745,275.725 Z M134.283,267.605 L104.755,262.398 L103.234,266.944 L103.722,268.883 L106.124,269.307 L101.131,284.229 L101.62,286.168 L127.672,290.762 L134.772,269.544 L134.283,267.605 L134.283,267.605 Z M88.147,119.583 L88.635,121.523 L90.375,124.101 L93.55,122.39 L93.061,120.45 L91.323,117.871 L88.147,119.583 L88.147,119.583 Z M140.169,170.958 L139.68,169.018 L139.21,168.322 L141.473,161.559 L140.986,159.619 L138.06,155.278 L139.309,151.543 L138.822,149.604 L126.527,131.38 L117.842,129.849 L110.469,118.915 L103.517,117.69 L74.347,133.421 L62.331,147.352 L55.601,150.985 L39.972,148.229 L28.752,154.279 L19.623,181.567 L20.111,183.507 L61.792,190.856 L71.429,162.051 L84.17,151.456 L107.466,138.936 L126.786,166.992 L132.64,168.024 L131.524,171.261 L117.681,168.82 L116.188,173.187 L100.589,170.437 L92.562,194.428 L93.051,196.368 L107.606,198.934 L97.034,230.534 L91.821,229.615 L85.992,247.035 L86.481,248.975 L97.563,250.94 L95.359,257.53 L95.847,259.469 L109.74,261.919 L140.169,170.958 L140.169,170.958 Z M80.503,129.424 L83.677,127.712 L83.188,125.772 L81.451,123.194 L78.276,124.905 L78.764,126.844 L80.503,129.424 L80.503,129.424 Z M125.709,116.226 L119.932,119.346 L120.42,121.286 L123.585,125.976 L129.36,122.862 L128.871,120.923 L125.709,116.226 L125.709,116.226 Z M27.441,128.604 L38.505,145.004 L99.088,112.34 L102.13,103.248 L108.866,99.616 L108.377,97.677 L96.081,79.458 L37.743,110.911 L38.231,112.851 L42.058,118.523 L26.951,126.665 L27.441,128.604 L27.441,128.604 Z M76.063,126.099 L72.887,127.811 L73.376,129.751 L75.118,132.323 L78.29,130.617 L77.801,128.677 L76.063,126.099 L76.063,126.099 Z M89.169,260.541 C87.882,260.314 86.476,260.243 85.151,260.543 C83.367,260.945 81.963,264.596 81.889,264.788 L78.847,273.88 C78.653,273.985 75.411,275.738 76.177,278.584 C76.172,278.565 76.164,278.546 76.16,278.528 C76.323,279.174 76.486,279.821 76.649,280.468 C76.76,280.913 76.971,281.386 77.307,281.883 C77.717,282.491 78.432,282.796 79.203,282.932 C80.746,283.205 82.426,282.822 82.514,282.802 L87.729,283.721 L94.322,264.014 L93.833,262.074 C93.731,262.02 91.742,260.994 89.169,260.541 L89.169,260.541 Z M47.771,146.637 L53.792,147.699 L55.516,142.547 L55.027,140.607 L47.283,144.698 L47.771,146.637 L47.771,146.637 Z M121.446,233.403 L121.934,235.342 L125.412,235.955 L126.428,232.92 L125.939,230.98 L122.462,230.367 L121.446,233.403 L121.446,233.403 Z M132.347,215.355 L131.858,213.415 L128.381,212.802 L127.365,215.837 L127.853,217.776 L131.331,218.389 L132.347,215.355 L132.347,215.355 Z M132.347,215.355" class="wall"
		stroke="none"
		fill="#989898"
		stroke-width="0.5"
		/>
		
			<path d="M209.639,17.688 L213.556,23.493 L208.715,26.107 L202.926,25.087 L201.093,26.133 L199.167,23.279 L209.639,17.688 Z M209.639,17.688" id="1001" class="unit"
		stroke="#dddddd"
		fill="white"
		stroke-width="0.5"
		/>
		
			<path d="M198.844,23.454 L200.772,26.319 L195.941,29.085 L193.913,26.081 L198.844,23.454 Z M198.844,23.454" id="1002" class="unit"
		stroke="#dddddd"
		fill="white"
		stroke-width="0.5"
		/>
		
			<path d="M193.582,26.259 L195.616,29.265 L192.92,30.812 L191.618,34.704 L188.969,36.132 L185.499,30.573 L193.582,26.259 Z M193.582,26.259" id="1003" class="unit"
		stroke="#dddddd"
		fill="white"
		stroke-width="0.5"
		/>
		
			<path d="M149.551,104.378 L151.285,106.95 L148.117,108.663 L146.378,106.085 L149.551,104.378 Z M149.551,104.378" id="1004" class="unit"
		stroke="#dddddd"
		fill="white"
		stroke-width="0.5"
		/>
		
			<path d="M241.012,135.509 L242.859,138.245 L248.936,139.316 L245.639,149.167 L230.009,146.411 L232.292,139.589 L232.604,140.048 L241.012,135.509 Z M241.012,135.509" id="1005" class="unit"
		stroke="#dddddd"
		fill="white"
		stroke-width="0.5"
		/>
		
			<path d="M246.613,125.66 L251.217,132.495 L249.19,138.558 L243.981,137.639 L240.295,132.175 L233.56,135.802 L232.336,133.979 L236.819,131.562 L236.516,131.104 L246.613,125.66 Z M246.613,125.66" id="1006" class="unit"
		stroke="#dddddd"
		fill="white"
		stroke-width="0.5"
		/>
		
			<path d="M47.98,105.396 L63.962,129.084 L38.033,143.064 L26.968,126.665 L42.671,118.198 L37.754,110.91 L47.98,105.396 Z M47.98,105.396" id="1007" class="unit"
		stroke="#dddddd"
		fill="white"
		stroke-width="0.5"
		/>
		
			<path d="M123.053,218.74 L121.548,223.237 L100.711,219.563 L102.216,215.066 L123.053,218.74 Z M123.053,218.74" id="1008" class="unit"
		stroke="#dddddd"
		fill="white"
		stroke-width="0.5"
		/>
		
			<path d="M124.693,213.839 L123.154,218.44 L102.317,214.766 L103.856,210.166 L124.693,213.839 Z M124.693,213.839" id="1009" class="unit"
		stroke="#dddddd"
		fill="white"
		stroke-width="0.5"
		/>
		
			<path d="M119.823,228.395 L118.235,233.143 L97.397,229.469 L98.986,224.721 L119.823,228.395 Z M119.823,228.395" id="1010" class="unit"
		stroke="#dddddd"
		fill="white"
		stroke-width="0.5"
		/>
		
			<path d="M128.531,202.368 L107.694,198.694 L103.956,209.865 L124.793,213.539 L128.531,202.368 Z M128.531,202.368" id="1011" class="unit"
		stroke="#dddddd"
		fill="white"
		stroke-width="0.5"
		/>
		
			<path d="M137.069,176.849 L128.631,202.067 L107.793,198.394 L108.201,197.176 L92.573,194.42 L100.602,170.418 L137.069,176.849 Z M137.069,176.849" id="1012" class="unit"
		stroke="#dddddd"
		fill="white"
		stroke-width="0.5"
		/>
		
			<path d="M139.198,168.289 L139.69,169.017 L138.624,172.199 L131.66,170.971 L131.729,170.826 L132.947,167.187 L139.198,168.289 Z M139.198,168.289" id="1013" class="unit"
		stroke="#dddddd"
		fill="white"
		stroke-width="0.5"
		/>
		
			<path d="M134.841,143.692 L137.606,147.78 L120.522,156.991 L117.759,152.898 L134.841,143.692 Z M134.841,143.692" id="1014" class="unit"
		stroke="#dddddd"
		fill="white"
		stroke-width="0.5"
		/>
		
			<path d="M137.776,148.041 L138.829,149.603 L137.308,154.148 L137.37,154.24 L123.768,161.575 L121.762,158.822 L120.693,157.247 L137.776,148.041 Z M137.776,148.041" id="1015" class="unit"
		stroke="#dddddd"
		fill="white"
		stroke-width="0.5"
		/>
		
			<path d="M137.542,154.496 L139.472,157.356 L125.99,164.625 L123.954,161.827 L137.542,154.496 Z M137.542,154.496" id="1016" class="unit"
		stroke="#dddddd"
		fill="white"
		stroke-width="0.5"
		/>
		
			<path d="M139.645,157.612 L141.001,159.614 L138.465,167.194 L138.956,167.923 L133.048,166.881 L133.25,166.275 L126.305,165.051 L126.177,164.877 L139.645,157.612 Z M139.645,157.612" id="1017" class="unit"
		stroke="#dddddd"
		fill="white"
		stroke-width="0.5"
		/>
		
			<path d="M191.47,35.146 L191.161,36.068 L193.914,39.553 L195.133,39.768 L180.265,47.74 L175.781,50.157 L172.089,44.691 L189.02,36.396 L189.055,36.448 L191.47,35.146 Z M191.47,35.146" id="1018" class="unit"
		stroke="#dddddd"
		fill="white"
		stroke-width="0.5"
		/>
		
			<path d="M203.18,41.187 L203.604,41.805 L183.82,52.47 L180.293,48.132 L195.641,39.857 L203.18,41.187 Z M203.18,41.187" id="1019" class="unit"
		stroke="#dddddd"
		fill="white"
		stroke-width="0.5"
		/>
		
			<path d="M203.785,42.068 L206.252,45.659 L186.131,56.507 L183.747,52.983 L184.094,52.802 L184.029,52.721 L203.785,42.068 Z M203.785,42.068" id="1020" class="unit"
		stroke="#dddddd"
		fill="white"
		stroke-width="0.5"
		/>
		
			<path d="M206.435,45.922 L210.112,51.28 L197.906,57.861 L194.272,52.475 L206.435,45.922 Z M206.435,45.922" id="1021" class="unit"
		stroke="#dddddd"
		fill="white"
		stroke-width="0.5"
		/>
		
			<path d="M210.295,51.544 L212.53,54.798 L208.803,56.812 L206.595,53.538 L210.295,51.544 Z M210.295,51.544" id="1022" class="unit"
		stroke="#dddddd"
		fill="white"
		stroke-width="0.5"
		/>
		
			<path d="M212.713,55.062 L214.89,58.231 L211.157,60.302 L208.981,57.074 L212.713,55.062 Z M212.713,55.062" id="1023" class="unit"
		stroke="#dddddd"
		fill="white"
		stroke-width="0.5"
		/>
		
			<path d="M206.272,53.713 L210.835,60.476 L206.918,62.646 L202.322,55.842 L206.272,53.713 Z M206.272,53.713" id="1024" class="unit"
		stroke="#dddddd"
		fill="white"
		stroke-width="0.5"
		/>
		
			<path d="M193.948,52.655 L201.615,64.029 L195.414,62.935 L191.914,65.086 L186.308,56.77 L193.948,52.655 Z M193.948,52.655" id="1025" class="unit"
		stroke="#dddddd"
		fill="white"
		stroke-width="0.5"
		/>
		
			<path d="M201.998,56.016 L206.593,62.826 L203.747,64.405 L202.121,64.118 L198.08,58.129 L201.998,56.016 Z M201.998,56.016" id="1026" class="unit"
		stroke="#dddddd"
		fill="white"
		stroke-width="0.5"
		/>
		
			<path d="M183.424,53.157 L191.604,65.28 L191.088,65.594 L188.991,71.859 L187.867,72.528 L177.082,56.542 L183.424,53.157 Z M183.424,53.157" id="1027" class="unit"
		stroke="#dddddd"
		fill="white"
		stroke-width="0.5"
		/>
		
			<path d="M176.752,56.714 L187.547,72.714 L182.877,75.491 L171.909,59.299 L176.752,56.714 Z M176.752,56.714" id="1028" class="unit"
		stroke="#dddddd"
		fill="white"
		stroke-width="0.5"
		/>
		
			<path d="M171.585,59.474 L182.735,75.998 L180.67,83.396 L166.397,62.24 L171.585,59.474 Z M171.585,59.474" id="1029" class="unit"
		stroke="#dddddd"
		fill="white"
		stroke-width="0.5"
		/>
		
			<path d="M112.772,84.398 L123.045,99.618 L116.581,98.479 L108.548,86.572 L112.772,84.398 Z M112.772,84.398" id="1030" class="unit"
		stroke="#dddddd"
		fill="white"
		stroke-width="0.5"
		/>
		
			<path d="M166.067,62.413 L180.54,83.864 L180.432,84.267 L175.61,86.843 L160.965,65.137 L166.067,62.413 Z M166.067,62.413" id="1031" class="unit"
		stroke="#dddddd"
		fill="white"
		stroke-width="0.5"
		/>
		
			<path d="M193.203,80.525 L192.697,82.037 L185.967,85.67 L187.995,79.607 L193.203,80.525 Z M193.203,80.525" id="1032" class="unit"
		stroke="#dddddd"
		fill="white"
		stroke-width="0.5"
		/>
		
			<path d="M160.636,65.31 L175.285,87.023 L170.02,89.84 L155.364,68.126 L160.636,65.31 Z M160.636,65.31" id="1033" class="unit"
		stroke="#dddddd"
		fill="white"
		stroke-width="0.5"
		/>
		
			<path d="M150.287,61.254 L169.695,90.02 L153.604,98.637 L135.94,72.457 L136.397,72.219 L135.06,69.625 L150.287,61.254 Z M150.287,61.254" id="1034" class="unit"
		stroke="#dddddd"
		fill="white"
		stroke-width="0.5"
		/>
		
			<path d="M135.604,72.629 L153.274,98.811 L148.424,101.412 L130.708,75.152 L135.604,72.629 Z M135.604,72.629" id="1035" class="unit"
		stroke="#dddddd"
		fill="white"
		stroke-width="0.5"
		/>
		
			<path d="M96.093,79.452 L108.388,97.675 L101.658,101.309 L98.616,110.401 L71.967,124.769 L68.882,120.196 L68.558,120.376 L61.229,124.372 L48.305,105.217 L96.093,79.452 Z M96.093,79.452" id="1036" class="unit"
		stroke="#dddddd"
		fill="white"
		stroke-width="0.5"
		/>
		
			<path d="M130.378,75.326 L148.095,101.584 L131.734,110.357 L124.833,101.615 L113.1,84.225 L130.378,75.326 Z M130.378,75.326" id="1037" class="unit"
		stroke="#dddddd"
		fill="white"
		stroke-width="0.5"
		/>
		
			<path d="M91.329,117.872 L93.07,120.45 L89.897,122.156 L88.161,119.584 L91.329,117.872 Z M91.329,117.872" id="1038" class="unit"
		stroke="#dddddd"
		fill="white"
		stroke-width="0.5"
		/>
		
			<path d="M68.761,120.678 L71.638,124.942 L64.287,128.905 L61.41,124.641 L68.761,120.678 Z M68.761,120.678" id="1039" class="unit"
		stroke="#dddddd"
		fill="white"
		stroke-width="0.5"
		/>
		
			<path d="M81.458,123.194 L83.198,125.772 L80.024,127.483 L78.284,124.905 L81.458,123.194 Z M81.458,123.194" id="1040" class="unit"
		stroke="#dddddd"
		fill="white"
		stroke-width="0.5"
		/>
		
			<path d="M76.077,126.1 L77.813,128.671 L74.643,130.384 L72.905,127.807 L76.077,126.1 Z M76.077,126.1" id="1041" class="unit"
		stroke="#dddddd"
		fill="white"
		stroke-width="0.5"
		/>
		
			<path d="M110.479,118.914 L114.321,124.607 L102.848,130.797 L96.545,121.456 L103.533,117.689 L110.479,118.914 Z M110.479,118.914" id="1042" class="unit"
		stroke="#dddddd"
		fill="white"
		stroke-width="0.5"
		/>
		
			<path d="M196.897,85.991 L211.647,107.855 L206.697,110.819 L191.746,88.661 L196.897,85.991 Z M196.897,85.991" id="1043" class="unit"
		stroke="#dddddd"
		fill="white"
		stroke-width="0.5"
		/>
		
			<path d="M96.231,121.626 L102.527,130.966 L102.698,131.228 L106.688,137.133 L106.129,137.416 L101.43,139.944 L90.981,124.457 L96.231,121.626 Z M96.231,121.626" id="1044" class="unit"
		stroke="#dddddd"
		fill="white"
		stroke-width="0.5"
		/>
		
			<path d="M114.491,124.869 L117.856,129.849 L124.627,131.043 L108.779,139.588 L103.02,131.053 L114.491,124.869 Z M114.491,124.869" id="1045" class="unit"
		stroke="#dddddd"
		fill="white"
		stroke-width="0.5"
		/>
		
			<path d="M90.665,124.626 L101.115,140.114 L96.196,142.767 L85.746,127.279 L90.665,124.626 Z M90.665,124.626" id="1046" class="unit"
		stroke="#dddddd"
		fill="white"
		stroke-width="0.5"
		/>
		
			<path d="M85.431,127.449 L95.88,142.937 L90.791,145.681 L80.342,130.192 L85.431,127.449 Z M85.431,127.449" id="1047" class="unit"
		stroke="#dddddd"
		fill="white"
		stroke-width="0.5"
		/>
		
			<path d="M80.027,130.363 L90.476,145.85 L84.935,148.838 L74.486,133.35 L80.027,130.363 Z M80.027,130.363" id="1048" class="unit"
		stroke="#dddddd"
		fill="white"
		stroke-width="0.5"
		/>
		
			<path d="M126.534,131.379 L130.531,137.302 L113.455,146.509 L108.951,139.843 L125.115,131.129 L126.534,131.379 Z M126.534,131.379" id="1049" class="unit"
		stroke="#dddddd"
		fill="white"
		stroke-width="0.5"
		/>
		
			<path d="M73.707,134.172 L83.964,149.366 L83.691,149.508 L70.948,160.109 L62.34,147.351 L73.707,134.172 Z M73.707,134.172" id="1050" class="unit"
		stroke="#dddddd"
		fill="white"
		stroke-width="0.5"
		/>
		
			<path d="M244.78,54.914 L271.35,94.305 L257.893,101.561 L266.494,114.318 L246.301,125.207 L246.43,125.396 L236.332,130.841 L203.625,82.363 L205.654,76.3 L228.094,64.201 L227.944,63.996 L244.78,54.914 Z M244.78,54.914" id="1052" class="unit"
		stroke="#dddddd"
		fill="white"
		stroke-width="0.5"
		/>
		
			<path d="M235.231,4.023 L241.102,12.121 L239.141,17.983 L227.563,15.941 L213.885,23.32 L209.968,17.514 L235.231,4.023 Z M235.231,4.023" id="1053" class="unit"
		stroke="#dddddd"
		fill="white"
		stroke-width="0.5"
		/>
		
			<path d="M218.852,26.935 L223.255,33.462 L210.61,40.254 L207.912,36.56 L210.157,35.349 L211.679,30.803 L218.852,26.935 Z M218.852,26.935" id="1054" class="unit"
		stroke="#dddddd"
		fill="white"
		stroke-width="0.5"
		/>
		
			<path d="M231.583,26.285 L236.5,33.573 L228.01,38.149 L227.17,38.603 L219.182,26.762 L222.9,24.753 L231.583,26.285 Z M231.583,26.285" id="1055" class="unit"
		stroke="#dddddd"
		fill="white"
		stroke-width="0.5"
		/>
		
			<path d="M223.424,33.711 L227.703,40.055 L215.337,46.723 L210.801,40.514 L223.424,33.711 Z M223.424,33.711" id="1056" class="unit"
		stroke="#dddddd"
		fill="white"
		stroke-width="0.5"
		/>
		
			<path d="M227.885,40.324 L230.669,44.45 L218.475,51.021 L215.52,46.986 L227.885,40.324 Z M227.885,40.324" id="1057" class="unit"
		stroke="#dddddd"
		fill="white"
		stroke-width="0.5"
		/>
		
			<path d="M230.847,44.713 L233.604,48.799 L221.583,55.285 L218.665,51.28 L230.847,44.713 Z M230.847,44.713" id="1058" class="unit"
		stroke="#dddddd"
		fill="white"
		stroke-width="0.5"
		/>
		
			<path d="M246.124,43.297 L248.379,46.648 L224.63,59.452 L221.774,55.544 L234.464,48.703 L234.905,49.347 L246.124,43.297 Z M246.124,43.297" id="1059" class="unit"
		stroke="#dddddd"
		fill="white"
		stroke-width="0.5"
		/>
		
			<path d="M248.563,46.912 L251.041,50.585 L244.304,54.217 L244.604,54.651 L227.752,63.736 L224.816,59.71 L248.563,46.912 Z M248.563,46.912" id="1060" class="unit"
		stroke="#dddddd"
		fill="white"
		stroke-width="0.5"
		/>
		
			<path d="M243.61,155.235 L240.567,164.328 L226.675,161.879 L229.717,152.786 L243.61,155.235 Z M243.61,155.235" id="1061" class="unit"
		stroke="#dddddd"
		fill="white"
		stroke-width="0.5"
		/>
		
			<path d="M186.026,91.628 L201.198,114.115 L191.02,120.215 L175.43,97.117 L186.026,91.628 Z M186.026,91.628" id="1062" class="unit"
		stroke="#dddddd"
		fill="white"
		stroke-width="0.5"
		/>
		
			<path d="M158.072,185.528 L156.313,190.784 L144.159,188.641 L145.918,183.385 L158.072,185.528 Z M158.072,185.528" id="1063" class="unit"
		stroke="#dddddd"
		fill="white"
		stroke-width="0.5"
		/>
		
			<path d="M139.375,139.186 L141.115,141.764 L137.94,143.476 L136.2,140.897 L139.375,139.186 Z M139.375,139.186" id="1064" class="unit"
		stroke="#dddddd"
		fill="white"
		stroke-width="0.5"
		/>
		
			<path d="M142.131,114.386 L145.765,119.772 L143.874,120.792 L143.998,120.975 L135.662,125.47 L136.821,117.137 L142.131,114.386 Z M142.131,114.386" id="1065" class="unit"
		stroke="#dddddd"
		fill="white"
		stroke-width="0.5"
		/>
		
			<path d="M165.706,95.668 L167.441,98.24 L164.272,99.952 L162.533,97.374 L165.706,95.668 Z M165.706,95.668" id="1066" class="unit"
		stroke="#dddddd"
		fill="white"
		stroke-width="0.5"
		/>
		
			<path d="M160.32,98.568 L162.059,101.146 L158.885,102.857 L157.147,100.279 L160.32,98.568 Z M160.32,98.568" id="1067" class="unit"
		stroke="#dddddd"
		fill="white"
		stroke-width="0.5"
		/>
		
			<path d="M178.27,88.89 L180.008,91.469 L176.834,93.18 L175.094,90.602 L178.27,88.89 Z M178.27,88.89" id="1068" class="unit"
		stroke="#dddddd"
		fill="white"
		stroke-width="0.5"
		/>
		
			<path d="M154.932,101.472 L156.672,104.051 L153.496,105.762 L151.758,103.184 L154.932,101.472 Z M154.932,101.472" id="1069" class="unit"
		stroke="#dddddd"
		fill="white"
		stroke-width="0.5"
		/>
		
			<path d="M191.417,88.833 L206.38,111.012 L201.512,113.928 L186.354,91.455 L191.417,88.833 Z M191.417,88.833" id="1070" class="unit"
		stroke="#dddddd"
		fill="white"
		stroke-width="0.5"
		/>
		
			<path d="M144.174,121.237 L146.899,125.284 L137.813,130.183 L135.515,126.542 L135.604,125.858 L144.174,121.237 Z M144.174,121.237" id="1071" class="unit"
		stroke="#dddddd"
		fill="white"
		stroke-width="0.5"
		/>
		
			<path d="M158.696,105.794 L169.533,121.865 L165.897,123.825 L155.02,107.701 L158.696,105.794 Z M158.696,105.794" id="1072" class="unit"
		stroke="#dddddd"
		fill="white"
		stroke-width="0.5"
		/>
		
			<path d="M154.69,107.874 L165.568,124.003 L159.048,127.518 L148.099,111.289 L154.69,107.874 Z M154.69,107.874" id="1073" class="unit"
		stroke="#dddddd"
		fill="white"
		stroke-width="0.5"
		/>
		
			<path d="M147.77,111.462 L158.717,127.697 L154.614,129.909 L147.236,118.974 L146.089,119.592 L142.46,114.213 L147.77,111.462 Z M147.77,111.462" id="1074" class="unit"
		stroke="#dddddd"
		fill="white"
		stroke-width="0.5"
		/>
		
			<path d="M147.083,125.547 L150.039,129.929 L140.805,134.913 L137.987,130.451 L147.083,125.547 Z M147.083,125.547" id="1075" class="unit"
		stroke="#dddddd"
		fill="white"
		stroke-width="0.5"
		/>
		
			<path d="M163.991,103.047 L180.317,127.234 L176.972,129.037 L175.24,128.732 L170.324,121.438 L169.865,121.687 L159.024,105.627 L163.991,103.047 Z M163.991,103.047" id="1077" class="unit"
		stroke="#dddddd"
		fill="white"
		stroke-width="0.5"
		/>
		
			<path d="M150.214,130.197 L152.783,133.996 L143.421,139.043 L140.973,135.179 L150.214,130.197 Z M150.214,130.197" id="1078" class="unit"
		stroke="#dddddd"
		fill="white"
		stroke-width="0.5"
		/>
		
			<path d="M168.908,125.928 L171.307,129.604 L171.488,129.978 L146.277,143.57 L143.588,139.316 L152.96,134.259 L153.092,134.456 L168.908,125.928 Z M168.908,125.928" id="1079" class="unit"
		stroke="#dddddd"
		fill="white"
		stroke-width="0.5"
		/>
		
			<path d="M171.67,130.241 L174.365,134.236 L149.024,147.903 L146.452,143.838 L171.67,130.241 Z M171.67,130.241" id="1080" class="unit"
		stroke="#dddddd"
		fill="white"
		stroke-width="0.5"
		/>
		
			<path d="M174.541,134.503 L178.563,140.455 L153.02,154.226 L149.193,148.17 L174.541,134.503 Z M174.541,134.503" id="1081" class="unit"
		stroke="#dddddd"
		fill="white"
		stroke-width="0.5"
		/>
		
			<path d="M149.378,157.646 L151.118,160.225 L147.944,161.936 L146.205,159.358 L149.378,157.646 Z M149.378,157.646" id="1082" class="unit"
		stroke="#dddddd"
		fill="white"
		stroke-width="0.5"
		/>
		
			<path d="M178.737,140.722 L182.323,146.03 L171.104,152.08 L171.529,152.709 L157.011,160.541 L153.186,154.498 L178.737,140.722 Z M178.737,140.722" id="1083" class="unit"
		stroke="#dddddd"
		fill="white"
		stroke-width="0.5"
		/>
		
			<path d="M152.647,163.274 L151.631,166.309 L148.156,165.695 L152.647,163.274 Z M152.647,163.274" id="1084" class="unit"
		stroke="#dddddd"
		fill="white"
		stroke-width="0.5"
		/>
		
			<path d="M171.703,152.978 L182.168,168.479 L175.574,188.187 L158.207,185.125 L158.172,185.228 L146.02,183.084 L149.604,172.372 L156.331,168.744 L158.362,162.675 L157.18,160.808 L171.703,152.978 Z M171.703,152.978" id="1085" class="unit"
		stroke="#dddddd"
		fill="white"
		stroke-width="0.5"
		/>
		
			<path d="M175.101,97.29 L164.325,102.88 L180.639,127.06 L190.438,121.777 L190.832,120.599 L175.101,97.29 Z M175.101,97.29" id="1086" class="unit"
		stroke="#dddddd"
		fill="white"
		stroke-width="0.5"
		/>
		
			<path d="M156.211,191.089 L154.758,195.434 L142.604,193.291 L144.058,188.946 L156.211,191.089 Z M156.211,191.089" id="1087" class="unit"
		stroke="#dddddd"
		fill="white"
		stroke-width="0.5"
		/>
		
			<path d="M154.656,195.739 L153.134,200.285 L140.981,198.142 L142.502,193.596 L154.656,195.739 Z M154.656,195.739" id="1088" class="unit"
		stroke="#dddddd"
		fill="white"
		stroke-width="0.5"
		/>
		
			<path d="M111.945,251.944 L110.676,255.732 L108.858,255.411 L110.125,251.623 L111.945,251.944 Z M111.945,251.944" id="1089" class="unit"
		stroke="#dddddd"
		fill="white"
		stroke-width="0.5"
		/>
		
			<path d="M109.775,251.562 L108.507,255.35 L108.456,255.502 L108.406,255.649 L110.576,256.032 L109.256,259.978 L95.365,257.528 L97.901,249.947 L98.084,249.5 L109.775,251.562 Z M109.775,251.562" id="1090" class="unit"
		stroke="#dddddd"
		fill="white"
		stroke-width="0.5"
		/>
		
			<path d="M118.132,233.448 L112.046,251.638 L86.001,247.046 L91.833,229.615 L97.041,230.533 L97.294,229.774 L118.132,233.448 Z M118.132,233.448" id="1091" class="unit"
		stroke="#dddddd"
		fill="white"
		stroke-width="0.5"
		/>
		
			<path d="M138.522,172.504 L137.169,176.548 L116.332,172.874 L117.685,168.83 L138.522,172.504 Z M138.522,172.504" id="1093" class="unit"
		stroke="#dddddd"
		fill="white"
		stroke-width="0.5"
		/>
		
			<path d="M121.446,223.543 L119.925,228.089 L99.088,224.415 L100.61,219.869 L121.446,223.543 Z M121.446,223.543" id="1094" class="unit"
		stroke="#dddddd"
		fill="white"
		stroke-width="0.5"
		/>
		
			<path d="M130.702,137.558 L134.67,143.431 L117.586,152.642 L113.625,146.771 L130.702,137.558 Z M130.702,137.558" id="1095" class="unit"
		stroke="#dddddd"
		fill="white"
		stroke-width="0.5"
		/>
		
			<path d="M62.024,147.526 L69.867,159.145 L70.806,160.535 L70.641,161.026 L61.313,188.909 L19.632,181.56 L28.762,154.272 L39.979,148.228 L55.609,150.983 L62.024,147.526 Z M62.024,147.526" id="1096" class="unit"
		stroke="#dddddd"
		fill="white"
		stroke-width="0.5"
		/>
		
			<path d="M197.767,308.758 L196.751,311.792 L193.275,311.18 L194.289,308.147 L197.767,308.758 Z M197.767,308.758" id="1097" class="unit"
		stroke="#dddddd"
		fill="white"
		stroke-width="0.5"
		/>
		
			<path d="M197.514,320.493 L218.359,324.168 L220.706,317.153 L199.845,313.526 L197.514,320.493 Z M197.514,320.493" id="1098" class="unit"
		stroke="#dddddd"
		fill="white"
		stroke-width="0.5"
		/>
		
			<path d="M233.879,277.779 L230.938,286.571 L210.094,282.896 L213.035,274.104 L233.879,277.779 Z M233.879,277.779" id="1099" class="unit"
		stroke="#dddddd"
		fill="white"
		stroke-width="0.5"
		/>
		
			<path d="M150.919,204.709 L149.718,208.3 L136.522,205.973 L137.721,202.382 L150.919,204.709 Z M150.919,204.709" id="1100" class="unit"
		stroke="#dddddd"
		fill="white"
		stroke-width="0.5"
		/>
		
			<path d="M148.01,213.403 L146.201,218.811 L133.004,216.484 L134.813,211.076 L148.01,213.403 Z M148.01,213.403" id="1101" class="unit"
		stroke="#dddddd"
		fill="white"
		stroke-width="0.5"
		/>
		
			<path d="M149.615,208.605 L148.112,213.103 L134.913,210.776 L136.418,206.279 L149.615,208.605 Z M149.615,208.605" id="1102" class="unit"
		stroke="#dddddd"
		fill="white"
		stroke-width="0.5"
		/>
		
			<path d="M229.022,253.805 L222.083,274.544 L221.924,275.023 L221.821,275.33 L213.137,273.798 L213.24,273.493 L203.925,271.85 L211.024,250.631 L229.022,253.805 Z M229.022,253.805" id="1103" class="unit"
		stroke="#dddddd"
		fill="white"
		stroke-width="0.5"
		/>
		
			<path d="M226.373,300.215 L205.529,296.54 L202.859,304.52 L223.72,308.147 L226.373,300.215 Z M226.373,300.215" id="1104" class="unit"
		stroke="#dddddd"
		fill="white"
		stroke-width="0.5"
		/>
		
			<path d="M228.604,293.546 L226.475,299.911 L205.63,296.234 L207.76,289.871 L228.604,293.546 Z M228.604,293.546" id="1105" class="unit"
		stroke="#dddddd"
		fill="white"
		stroke-width="0.5"
		/>
		
			<path d="M230.837,286.871 L228.706,293.241 L207.863,289.565 L209.992,283.196 L230.837,286.871 Z M230.837,286.871" id="1106" class="unit"
		stroke="#dddddd"
		fill="white"
		stroke-width="0.5"
		/>
		
			<path d="M125.056,240.239 L138.264,242.536 L139.453,238.98 L126.245,236.684 L125.056,240.239 Z M125.056,240.239" id="1107" class="unit"
		stroke="#dddddd"
		fill="white"
		stroke-width="0.5"
		/>
		
			<path d="M141.924,231.598 L128.726,229.271 L127.6,232.636 L140.808,234.933 L141.924,231.598 Z M141.924,231.598" id="1108" class="unit"
		stroke="#dddddd"
		fill="white"
		stroke-width="0.5"
		/>
		
			<path d="M143.327,227.401 L142.026,231.292 L128.827,228.965 L130.129,225.074 L143.327,227.401 Z M143.327,227.401" id="1109" class="unit"
		stroke="#dddddd"
		fill="white"
		stroke-width="0.5"
		/>
		
			<path d="M146.099,219.117 L143.429,227.096 L130.231,224.769 L132.902,216.79 L146.099,219.117 Z M146.099,219.117" id="1110" class="unit"
		stroke="#dddddd"
		fill="white"
		stroke-width="0.5"
		/>
		
			<path d="M123.688,244.329 L136.885,246.655 L136.996,246.322 L138.167,242.824 L124.959,240.527 L123.688,244.329 Z M123.688,244.329" id="1111" class="unit"
		stroke="#dddddd"
		fill="white"
		stroke-width="0.5"
		/>
		
			<path d="M140.723,247.656 L136.599,259.979 L124.677,257.877 L120.476,253.927 L123.586,244.634 L140.723,247.656 Z M140.723,247.656" id="1112" class="unit"
		stroke="#dddddd"
		fill="white"
		stroke-width="0.5"
		/>
		
			<path d="M89.182,260.539 C91.754,260.992 93.74,262.02 93.843,262.075 L87.249,281.781 L82.041,280.863 C81.953,280.884 80.27,281.265 78.727,280.993 C77.955,280.857 77.239,280.552 76.829,279.944 C74.372,276.303 78.633,274.003 78.857,273.882 L81.901,264.784 C81.974,264.591 83.382,260.947 85.16,260.544 C86.489,260.241 87.897,260.312 89.182,260.539 L89.182,260.539 Z M89.182,260.539" id="1113" class="unit"
		stroke="#dddddd"
		fill="white"
		stroke-width="0.5"
		/>
		
			<path d="M107.667,262.904 L106.145,267.457 L103.25,266.946 L104.774,262.395 L107.667,262.904 Z M107.667,262.904" id="1114" class="unit"
		stroke="#dddddd"
		fill="white"
		stroke-width="0.5"
		/>
		
			<path d="M127.813,266.457 L120.71,287.682 L114.801,286.639 L121.903,265.415 L127.813,266.457 Z M127.813,266.457" id="1115" class="unit"
		stroke="#dddddd"
		fill="white"
		stroke-width="0.5"
		/>
		
			<path d="M121.56,265.355 L114.906,264.182 L107.816,285.408 L114.458,286.579 L121.56,265.355 Z M121.56,265.355" id="1116" class="unit"
		stroke="#dddddd"
		fill="white"
		stroke-width="0.5"
		/>
		
			<path d="M139.563,295.825 L144.078,282.326 L135.41,280.746 L127.835,303.385 L136.54,304.92 L139.579,295.828 L139.563,295.825 Z M139.563,295.825" id="1117" class="unit"
		stroke="#dddddd"
		fill="white"
		stroke-width="0.5"
		/>
		
			<path d="M158.014,267.072 L156.998,270.107 L153.522,269.494 L154.537,266.459 L158.014,267.072 Z M158.014,267.072" id="1118" class="unit"
		stroke="#dddddd"
		fill="white"
		stroke-width="0.5"
		/>
		
			<path d="M142.034,264.255 L141.02,267.289 L137.542,266.675 L138.558,263.642 L142.034,264.255 Z M142.034,264.255" id="1119" class="unit"
		stroke="#dddddd"
		fill="white"
		stroke-width="0.5"
		/>
		
			<path d="M152.124,270.745 L148.065,282.876 L144.477,282.243 L148.536,270.111 L152.124,270.745 Z M152.124,270.745" id="1120" class="unit"
		stroke="#dddddd"
		fill="white"
		stroke-width="0.5"
		/>
		
			<path d="M134.293,267.6 L127.194,288.823 L121.054,287.741 L128.155,266.517 L134.293,267.6 Z M134.293,267.6" id="1121" class="unit"
		stroke="#dddddd"
		fill="white"
		stroke-width="0.5"
		/>
		
			<path d="M148.186,270.05 L139.502,268.518 L135.507,280.457 L144.175,282.037 L148.186,270.05 Z M148.186,270.05" id="1122" class="unit"
		stroke="#dddddd"
		fill="white"
		stroke-width="0.5"
		/>
		
			<path d="M156.406,271.499 L152.348,283.63 L148.408,282.936 L152.468,270.805 L156.406,271.499 Z M156.406,271.499" id="1123" class="unit"
		stroke="#dddddd"
		fill="white"
		stroke-width="0.5"
		/>
		
			<path d="M212.967,241.339 L209.923,250.438 L210.673,250.569 L203.573,271.789 L136.949,260.041 L141.073,247.717 L141.174,247.412 L140.824,247.35 L137.236,246.717 L137.348,246.384 L143.154,229.029 L143.497,229.09 L144.43,229.254 L212.967,241.339 Z M212.967,241.339" id="1124" class="unit"
		stroke="#dddddd"
		fill="white"
		stroke-width="0.5"
		/>
		
			<path d="M161.845,272.458 L157.786,284.591 L152.698,283.692 L156.757,271.561 L161.845,272.458 Z M161.845,272.458" id="1125" class="unit"
		stroke="#dddddd"
		fill="white"
		stroke-width="0.5"
		/>
		
			<path d="M166.016,273.194 L161.957,285.325 L158.137,284.652 L162.196,272.521 L166.016,273.194 Z M166.016,273.194" id="1126" class="unit"
		stroke="#dddddd"
		fill="white"
		stroke-width="0.5"
		/>
		
			<path d="M180.176,294.699 L178.295,300.327 L194.102,303.208 L195.986,297.579 L180.176,294.699 Z M180.176,294.699" id="1127" class="unit"
		stroke="#dddddd"
		fill="white"
		stroke-width="0.5"
		/>
		
			<path d="M176.319,306.247 L192.121,309.127 L194.006,303.495 L178.199,300.616 L176.319,306.247 Z M176.319,306.247" id="1128" class="unit"
		stroke="#dddddd"
		fill="white"
		stroke-width="0.5"
		/>
		
			<path d="M196.813,278.624 L192.753,290.755 L184.07,289.225 L183.199,289.07 L182.1,288.876 L186.158,276.745 L196.813,278.624 Z M196.813,278.624" id="1129" class="unit"
		stroke="#dddddd"
		fill="white"
		stroke-width="0.5"
		/>
		
			<path d="M197.861,291.975 L193.003,291.117 L192.653,291.056 L182.005,289.223 L180.272,294.411 L196.081,297.293 L197.861,291.975 Z M197.861,291.975" id="1130" class="unit"
		stroke="#dddddd"
		fill="white"
		stroke-width="0.5"
		/>
		
			<path d="M205.678,285.111 L204.664,288.145 L201.188,287.533 L202.202,284.498 L205.678,285.111 Z M205.678,285.111" id="1131" class="unit"
		stroke="#dddddd"
		fill="white"
		stroke-width="0.5"
		/>
		
			<path d="M197.061,278.991 L200.496,284.093 L197.96,291.674 L193.104,290.817 L197.061,278.991 Z M197.061,278.991" id="1132" class="unit"
		stroke="#dddddd"
		fill="white"
		stroke-width="0.5"
		/>
		
			<path d="M166.543,310.217 L174.221,311.573 L181.703,289.182 L174.037,287.784 L166.543,310.217 Z M166.543,310.217" id="1133" class="unit"
		stroke="#dddddd"
		fill="white"
		stroke-width="0.5"
		/>
		
			<path d="M174.522,311.627 L190.354,314.409 L192.026,309.413 L176.222,306.536 L174.522,311.627 Z M174.522,311.627" id="1134" class="unit"
		stroke="#dddddd"
		fill="white"
		stroke-width="0.5"
		/>
		
			<path d="M144.118,306.258 L151.259,307.52 L158.741,285.129 L151.592,283.888 L144.118,306.258 Z M144.118,306.258" id="1135" class="unit"
		stroke="#dddddd"
		fill="white"
		stroke-width="0.5"
		/>
		
			<path d="M151.558,307.573 L158.693,308.833 L166.183,286.42 L159.038,285.18 L151.558,307.573 Z M151.558,307.573" id="1136" class="unit"
		stroke="#dddddd"
		fill="white"
		stroke-width="0.5"
		/>
		
			<path d="M158.992,308.885 L166.243,310.165 L173.74,287.73 L166.481,286.471 L158.992,308.885 Z M158.992,308.885" id="1137" class="unit"
		stroke="#dddddd"
		fill="white"
		stroke-width="0.5"
		/>
		
			<path d="M185.816,276.685 L181.756,288.816 L175.504,287.714 L179.563,275.583 L185.816,276.685 Z M185.816,276.685" id="1138" class="unit"
		stroke="#dddddd"
		fill="white"
		stroke-width="0.5"
		/>
		
			<path d="M173.543,274.521 L169.485,286.653 L162.307,285.387 L166.365,273.255 L173.543,274.521 Z M173.543,274.521" id="1139" class="unit"
		stroke="#dddddd"
		fill="white"
		stroke-width="0.5"
		/>
		
			<path d="M179.213,275.521 L175.154,287.653 L169.827,286.713 L173.887,274.582 L179.213,275.521 Z M179.213,275.521" id="1140" class="unit"
		stroke="#dddddd"
		fill="white"
		stroke-width="0.5"
		/>
		
			<path d="M144.484,282.417 L136.943,304.993 L143.819,306.206 L151.294,283.836 L144.448,282.649 L144.484,282.417 Z M144.484,282.417" id="1141" class="unit"
		stroke="#dddddd"
		fill="white"
		stroke-width="0.5"
		/>
		
			<path d="M202.471,274.911 L201.455,277.946 L197.979,277.333 L198.993,274.298 L202.471,274.911 Z M202.471,274.911" id="1142" class="unit"
		stroke="#dddddd"
		fill="white"
		stroke-width="0.5"
		/>
		
			<path d="M194.823,273.562 L193.809,276.597 L190.34,275.986 L191.354,272.951 L194.823,273.562 Z M194.823,273.562" id="1143" class="unit"
		stroke="#dddddd"
		fill="white"
		stroke-width="0.5"
		/>
		
			<path d="M187.878,272.337 L186.864,275.373 L183.394,274.761 L184.409,271.726 L187.878,272.337 Z M187.878,272.337" id="1144" class="unit"
		stroke="#dddddd"
		fill="white"
		stroke-width="0.5"
		/>
		
			<path d="M180.24,270.991 L179.224,274.024 L175.754,273.414 L176.769,270.379 L180.24,270.991 Z M180.24,270.991" id="1145" class="unit"
		stroke="#dddddd"
		fill="white"
		stroke-width="0.5"
		/>
		
			<path d="M172.599,269.644 L171.584,272.678 L168.107,272.065 L169.122,269.032 L172.599,269.644 Z M172.599,269.644" id="1146" class="unit"
		stroke="#dddddd"
		fill="white"
		stroke-width="0.5"
		/>
		
			<path d="M164.96,268.297 L163.945,271.331 L160.468,270.719 L161.484,267.684 L164.96,268.297 Z M164.96,268.297" id="1147" class="unit"
		stroke="#dddddd"
		fill="white"
		stroke-width="0.5"
		/>
		
			<path d="M129.318,220.915 L128.302,223.949 L124.825,223.335 L125.841,220.301 L129.318,220.915 Z M129.318,220.915" id="1148" class="unit"
		stroke="#dddddd"
		fill="white"
		stroke-width="0.5"
		/>
		
			<path d="M134.593,205.147 L133.577,208.182 L130.101,207.569 L131.116,204.535 L134.593,205.147 Z M134.593,205.147" id="1149" class="unit"
		stroke="#dddddd"
		fill="white"
		stroke-width="0.5"
		/>
		
			<path d="M139.14,193.749 L138.125,196.783 L134.65,196.17 L135.664,193.136 L139.14,193.749 Z M139.14,193.749" id="1150" class="unit"
		stroke="#dddddd"
		fill="white"
		stroke-width="0.5"
		/>
		
			<path d="M140.764,188.897 L139.748,191.932 L136.272,191.318 L137.287,188.285 L140.764,188.897 Z M140.764,188.897" id="1151" class="unit"
		stroke="#dddddd"
		fill="white"
		stroke-width="0.5"
		/>
		
			<path d="M142.385,184.051 L141.371,187.08 L137.897,186.467 L138.909,183.438 L142.385,184.051 Z M142.385,184.051" id="1152" class="unit"
		stroke="#dddddd"
		fill="white"
		stroke-width="0.5"
		/>
		
			<path d="M145.632,174.348 L144.618,177.376 L141.143,176.764 L142.156,173.734 L145.632,174.348 Z M145.632,174.348" id="1153" class="unit"
		stroke="#dddddd"
		fill="white"
		stroke-width="0.5"
		/>
		
			<path d="M132.488,128.978 L134.227,131.557 L131.053,133.268 L129.313,130.69 L132.488,128.978 Z M132.488,128.978" id="1154" class="unit"
		stroke="#dddddd"
		fill="white"
		stroke-width="0.5"
		/>
		
			<path d="M125.725,116.227 L128.883,120.916 L123.114,124.031 L119.948,119.341 L125.725,116.227 Z M125.725,116.227" id="1155" class="unit"
		stroke="#dddddd"
		fill="white"
		stroke-width="0.5"
		/>
		
			<path d="M55.036,140.607 L53.312,145.759 L47.292,144.697 L55.036,140.607 Z M55.036,140.607" id="1156" class="unit"
		stroke="#dddddd"
		fill="white"
		stroke-width="0.5"
		/>
		
			<path d="M212.033,62.733 L213.772,65.311 L210.598,67.023 L208.859,64.445 L212.033,62.733 Z M212.033,62.733" id="1157" class="unit"
		stroke="#dddddd"
		fill="white"
		stroke-width="0.5"
		/>
		
			<path d="M201.572,308.366 L199.942,313.239 L220.802,316.866 L222.5,311.792 L223.623,308.436 L202.762,304.807 L201.572,308.366 Z M201.572,308.366" id="1158" class="unit"
		stroke="#dddddd"
		fill="white"
		stroke-width="0.5"
		/>
		
			<path d="M127.503,232.924 L126.342,236.396 L139.55,238.692 L140.712,235.221 L127.503,232.924 Z M127.503,232.924" id="1159" class="unit"
		stroke="#dddddd"
		fill="white"
		stroke-width="0.5"
		/>
		
			<path d="M108.011,262.966 L106.489,267.517 L106.72,267.558 L101.141,284.231 L107.515,285.354 L114.609,264.129 L108.011,262.966 Z M108.011,262.966" id="1160" class="unit"
		stroke="#dddddd"
		fill="white"
		stroke-width="0.5"
		/>
		
			<path d="M131.858,213.416 L130.842,216.45 L127.365,215.837 L128.381,212.803 L131.858,213.416 Z M131.858,213.416" id="1161" class="unit"
		stroke="#dddddd"
		fill="white"
		stroke-width="0.5"
		/>
		
			<path d="M125.938,230.944 L124.922,233.979 L121.446,233.365 L122.461,230.331 L125.938,230.944 Z M125.938,230.944" id="1162" class="unit"
		stroke="#dddddd"
		fill="white"
		stroke-width="0.5"
		/>
		
		</g>
	
		
 		
			<g class="parking"
				transform="translate(194.3,524.3) scale(0.7)"
				style="display: none"
				>
			
			</g>
		
			<g class="parking"
				transform="translate(294.3,639.3) scale(0.7)"
				style="display: none"
				>
			
			</g>
		
			<g class="parking"
				transform="translate(384.3,539.3) scale(0.7)"
				style="display: none"
				>
			
			</g>
		
			<g class="parking"
				transform="translate(414.3,349.3) scale(0.7)"
				style="display: none"
				>
			
			</g>
		
	
</svg>