<svg
  xmlns="http://www.w3.org/2000/svg"
  xmlns:xlink="http://www.w3.org/1999/xlink"
  id="centre-map"
  version="1.1"
  >

  <!-- Icons -->
  <g class="baby_changing base-icon" transform="scale(0.7)">
    <path d="M22,11c0,6.075-4.925,11-11,11S0,17.075,0,11S4.925,0,11,0S22,4.925,22,11z" class="black" stroke="none" fill="#808285" stroke-width="0.5"/>
    <path d="M21,11c0,5.523-4.477,10-10,10C5.477,21,1,16.523,1,11C1,5.477,5.477,1,11,1C16.523,1,21,5.477,21,11z" class="white" stroke="none" fill="white" stroke-width="0.5"/>
    <path d="M10.991,5.092c-0.304,0-0.566,0.121-0.691,0.297l0,0C9.678,5.653,9.243,6.254,9.243,6.956l0,0 c0,0.944,0.787,1.708,1.758,1.708l0,0c0.972,0,1.757-0.764,1.757-1.708l0,0c0-0.702-0.438-1.304-1.058-1.567l0,0 c0.173-0.237,0.021-0.658,0.021-0.658l0,0C11.618,4.939,11.33,5.092,10.991,5.092L10.991,5.092z M7.062,8.973 c-0.439,0-0.723,0.274-0.723,0.635l0,0c0,0.377,0.283,0.651,0.723,0.651l0,0h2.146v1.812c0.204-0.154,0.594-0.358,1.086-0.17l0,0 c0.683,0.263,1.435,0.841,2.47,0.455l0,0v-2.097h2.172c0.426,0,0.727-0.274,0.727-0.651l0,0c0-0.361-0.301-0.635-0.727-0.635l0,0 H7.062z M11.641,13.884l1.063,1.027l-0.638,1.399c-0.172,0.377-0.034,0.754,0.305,0.898l0,0c0.355,0.15,0.734-0.004,0.906-0.38l0,0 l0.81-1.779c-0.001,0-0.001,0-0.001,0l0,0c0.123-0.249,0.07-0.549-0.168-0.78l0,0l-1.152-1.113L11.641,13.884z M8.09,14.271 c-0.24,0.23-0.293,0.53-0.167,0.779l0,0H7.921l0.81,1.779c0.17,0.376,0.549,0.531,0.905,0.38l0,0 c0.339-0.146,0.477-0.522,0.305-0.897l0,0l-0.637-1.4l1.065-1.027h0.024l-1.184-0.693L8.09,14.271z" class="black" stroke="none" fill="#808285" stroke-width="0.5"/>
  </g>
  <g class="cash_machine base-icon" transform="scale(0.7)">
    <path d="M22,11c0,6.075-4.925,11-11,11S0,17.075,0,11S4.925,0,11,0S22,4.925,22,11z" class="black" stroke="none" fill="#808285" stroke-width="0.5"/>
    <path d="M21,11c0,5.523-4.477,10-10,10C5.477,21,1,16.523,1,11C1,5.477,5.477,1,11,1C16.523,1,21,5.477,21,11z" class="white" stroke="none" fill="white" stroke-width="0.5"/>
    <path d="M17.625,6.652H4.375v4.488H7.42l1.668-3.366h4.729l-0.709,1.402h0.988l-0.957,1.964h4.486V6.652z" class="black" stroke="none" fill="#808285" stroke-width="0.5"/>
    <path d="M13.252,8.896l-0.145,0.268l-0.151,0.293h0.663l-2.693,5.33H6.854l0.599-1.121H7.087h-0.29L5.9,15.349h5.385l3.289-6.451 L13.252,8.896L13.252,8.896z" class="black" stroke="none" fill="#808285" stroke-width="0.5"/>
    <path d="M11.005,13.945H5.62l3.29-6.452h5.386L11.005,13.945L11.005,13.945z M6.574,13.384h4.073l2.694-5.329H9.268L6.574,13.384 L6.574,13.384z" class="black" stroke="none" fill="#808285" stroke-width="0.5"/>
    <path d="M10.282,10.618L9.75,10.504c-0.005-0.138-0.01-0.273,0.015-0.393c0.043-0.204,0.202-0.289,0.384-0.25 c0.128,0.027,0.195,0.068,0.257,0.101c0.038,0.02,0.088,0.049,0.132,0.059c0.116,0.025,0.23-0.062,0.255-0.178 c0.014-0.065,0.005-0.113-0.033-0.167c-0.079-0.112-0.316-0.235-0.553-0.285C9.782,9.299,9.395,9.488,9.301,9.929 c-0.033,0.156-0.009,0.314,0.005,0.481l-0.15-0.032c-0.109-0.024-0.196,0.027-0.219,0.136c-0.023,0.109,0.036,0.19,0.145,0.214 l0.215,0.045c-0.004,0.019-0.004,0.038-0.007,0.052c-0.053,0.251-0.159,0.374-0.262,0.5c-0.108,0.127-0.159,0.207-0.174,0.276 c-0.022,0.105,0.019,0.252,0.234,0.297l1.071,0.229c0.135,0.027,0.254-0.029,0.284-0.172c0.03-0.143-0.062-0.246-0.189-0.273 l-0.835-0.177c0.139-0.15,0.267-0.325,0.319-0.569c0.005-0.022,0.01-0.043,0.011-0.066l0.459,0.098 c0.109,0.023,0.196-0.027,0.219-0.136C10.451,10.722,10.406,10.644,10.282,10.618z" class="black" stroke="none" fill="#808285" stroke-width="0.5"/>
  </g>
  <g class="click_and_collect base-icon" transform="scale(0.7)">
    <path d="M22,11c0,6.075-4.925,11-11,11S0,17.075,0,11S4.925,0,11,0S22,4.925,22,11z" class="black" stroke="none" fill="#808285" stroke-width="0.5"/>
    <path d="M21,11c0,5.523-4.477,10-10,10C5.477,21,1,16.523,1,11C1,5.477,5.477,1,11,1C16.523,1,21,5.477,21,11z" class="white" stroke="none" fill="white" stroke-width="0.5"/>
    <path d="M11.394,4.638h-0.085v1.486c0.81,0.132,1.423,0.765,1.423,1.53v2.012c0,0.861-0.774,1.559-1.731,1.559 c-0.958,0-1.733-0.698-1.733-1.559V7.654c0-0.729,0.56-1.336,1.312-1.506v-1.51C8.665,4.653,7.116,6.2,7.116,8.109v5.782 c0,1.918,1.562,3.473,3.491,3.473h0.787c1.928,0,3.49-1.555,3.49-3.473V8.109C14.884,6.19,13.32,4.638,11.394,4.638L11.394,4.638z" id="Shape" class="black" stroke="none" fill="#808285" stroke-width="0.5"/>
    <path d="M9.94,7.979V9.34c0,0.583,0.475,1.055,1.06,1.055s1.061-0.472,1.061-1.055V7.979 c0-0.582-0.476-1.054-1.061-1.054S9.94,7.397,9.94,7.979L9.94,7.979z" id="Shape_1_" class="black" stroke="none" fill="#808285" stroke-width="0.5"/>
  </g>
  <g class="customer_services base-icon" transform="scale(0.7)">
    <path class="black" fill="#808285" d="M22,11c0,6.075-4.925,11-11,11S0,17.075,0,11S4.925,0,11,0S22,4.925,22,11z"/>
    <path class="white" fill="#FFFFFF" d="M21,11c0,5.523-4.477,10-10,10C5.477,21,1,16.523,1,11C1,5.477,5.477,1,11,1C16.523,1,21,5.477,21,11z"/>
    <path class="black" fill="#808285" d="M15.946,8.218C15.1,6.283,13.203,4.93,11,4.93S6.9,6.283,6.054,8.218C4.924,8.389,4.062,9.274,4.062,10.35 c0,1.057,0.834,1.935,1.936,2.126c0.376,1.044,1.068,2.215,2.252,3.062c-0.033,0.109-0.068,0.219-0.068,0.339 c0,0.658,0.534,1.192,1.192,1.192s1.192-0.534,1.192-1.192s-0.534-1.192-1.192-1.192c-0.328,0-0.625,0.133-0.84,0.348 c-1.136-0.828-1.769-1.988-2.087-2.973V8.827c0.667-1.923,2.446-3.312,4.552-3.312c2.107,0,3.887,1.391,4.554,3.315v3.687 c1.317,0,2.385-0.971,2.385-2.167C17.938,9.274,17.076,8.389,15.946,8.218z"/>
    <path class="black" fill="#808285" d="M13.255,10.448c-1.425,0-2.644-0.841-3.22-2.05c-0.474,0.999-1.387,1.748-2.497,1.977 c0,0.025-0.007,0.048-0.007,0.074c0,1.98,1.601,3.587,3.577,3.587s3.578-1.606,3.578-3.587c0-0.099-0.021-0.191-0.028-0.288 C14.227,10.345,13.753,10.448,13.255,10.448L13.255,10.448z"/>
  </g>
  <g class="disabled_toilets base-icon" transform="scale(0.7)">
    <path class="black" fill="#808285" d="M22,11c0,6.075-4.925,11-11,11S0,17.075,0,11S4.925,0,11,0S22,4.925,22,11z"/>
    <path class="white" fill="#FFFFFF" d="M21,11c0,5.523-4.477,10-10,10C5.477,21,1,16.523,1,11C1,5.477,5.477,1,11,1C16.523,1,21,5.477,21,11z"/>
    <path class="black" fill="#808285" d="M15.819,15.12l0.003,0.005l-0.752,0.478l-0.465,0.3l-0.002-0.003L14.6,15.902l-2.346-3.657H8.486V7.633 c-0.384-0.24-0.64-0.665-0.64-1.149c0-0.75,0.611-1.359,1.365-1.359c0.754,0,1.365,0.608,1.365,1.359 c0,0.484-0.255,0.909-0.639,1.149v1.299h3.483v1.444H9.937V10.8h3.112l1.99,3.103l0.798-0.515l0.762,1.229L15.819,15.12z M9.382,15.672c-1.528,0-2.771-1.238-2.771-2.76c0-1.021,0.562-1.913,1.392-2.39V9.194c-1.519,0.559-2.601,2.012-2.601,3.718 c0,2.188,1.782,3.963,3.98,3.963c1.679,0,3.114-1.035,3.699-2.499l-0.928-1.448C12.145,14.442,10.905,15.672,9.382,15.672z"/>
  </g>
  <g class="elevator base-icon" transform="scale(0.7)">
    <path d="M22,11c0,6.075-4.925,11-11,11S0,17.075,0,11S4.925,0,11,0S22,4.925,22,11z" class="black" stroke="none" fill="#808285" stroke-width="0.5"/>
    <path d="M21,11c0,5.523-4.477,10-10,10C5.477,21,1,16.523,1,11C1,5.477,5.477,1,11,1C16.523,1,21,5.477,21,11z" class="white" stroke="none" fill="white" stroke-width="0.5"/>
    <path d="M15.307,9.513H6.693c-0.728,0-1.318,0.416-1.318,0.93v5.577c0,0.515,0.59,0.932,1.318,0.932h8.614 c0.729,0,1.317-0.417,1.317-0.932v-5.577C16.625,9.929,16.034,9.513,15.307,9.513L15.307,9.513z M15.758,16.02 c0,0.104-0.122,0.188-0.273,0.188H6.517c-0.152,0-0.275-0.083-0.275-0.188v-5.577c0-0.103,0.123-0.186,0.275-0.186h8.965 c0.151,0,0.273,0.083,0.273,0.186L15.758,16.02L15.758,16.02z" class="black" stroke="none" fill="#808285" stroke-width="0.5"/>
    <path d="M8.298,11c0.216,0,0.391,0.167,0.391,0.372c0,0.206-0.175,0.372-0.391,0.372c-0.216,0-0.391-0.166-0.391-0.372 C7.907,11.167,8.082,11,8.298,11z" class="black" stroke="none" fill="#808285" stroke-width="0.5"/>
    <path d="M10.873,11c0.216,0,0.391,0.167,0.391,0.372c0,0.206-0.175,0.372-0.391,0.372s-0.391-0.166-0.391-0.372 C10.482,11.167,10.657,11,10.873,11z" class="black" stroke="none" fill="#808285" stroke-width="0.5"/>
    <path d="M13.635,11c0.217,0,0.391,0.167,0.391,0.372c0,0.206-0.174,0.372-0.391,0.372c-0.216,0-0.391-0.166-0.391-0.372 C13.244,11.167,13.419,11,13.635,11z" class="black" stroke="none" fill="#808285" stroke-width="0.5"/>
    <path d="M8.805,11.867H7.762c-0.144,0-0.261,0.119-0.261,0.266v1.328c0,0.124,0.083,0.229,0.196,0.257v1.62 c0,0.137,0.117,0.248,0.26,0.248c0.145,0,0.261-0.111,0.261-0.248v-1.611h0.13v1.611c0,0.137,0.117,0.248,0.261,0.248 s0.261-0.111,0.261-0.248v-1.62c0.112-0.028,0.196-0.133,0.196-0.257v-1.328C9.066,11.986,8.949,11.867,8.805,11.867L8.805,11.867z" class="black" stroke="none" fill="#808285" stroke-width="0.5"/>
    <path d="M11.379,11.867h-1.042c-0.144,0-0.261,0.119-0.261,0.266v1.328c0,0.124,0.083,0.229,0.196,0.257v1.62 c0,0.137,0.117,0.248,0.26,0.248c0.145,0,0.261-0.111,0.261-0.248v-1.611h0.13v1.611c0,0.137,0.117,0.248,0.261,0.248 s0.26-0.111,0.26-0.248v-1.62c0.113-0.028,0.197-0.133,0.197-0.257v-1.328C11.641,11.986,11.523,11.867,11.379,11.867L11.379,11.867 z" class="black" stroke="none" fill="#808285" stroke-width="0.5"/>
    <path d="M14.143,11.867H13.1c-0.145,0-0.261,0.119-0.261,0.266v1.328c0,0.124,0.082,0.229,0.194,0.257v1.62 c0,0.137,0.117,0.248,0.262,0.248s0.262-0.111,0.262-0.248v-1.611h0.129v1.611c0,0.137,0.117,0.248,0.263,0.248 c0.144,0,0.261-0.111,0.261-0.248v-1.62c0.111-0.028,0.193-0.133,0.193-0.257v-1.328C14.402,11.986,14.286,11.867,14.143,11.867 L14.143,11.867z" class="black" stroke="none" fill="#808285" stroke-width="0.5"/>
    <path d="M10.257,6.436l-1.303-1.24c-0.204-0.194-0.534-0.194-0.737,0l0,0l-1.304,1.24 c-0.203,0.194-0.203,0.508,0,0.701c0.204,0.193,0.534,0.193,0.738,0l0.413-0.393v1.777c0,0.274,0.233,0.496,0.521,0.496 s0.521-0.222,0.521-0.496V6.744L9.52,7.137c0.204,0.193,0.534,0.193,0.737,0C10.46,6.944,10.461,6.629,10.257,6.436L10.257,6.436z" class="black" stroke="none" fill="#808285" stroke-width="0.5"/>
    <path d="M14.99,6.931c-0.203-0.193-0.533-0.193-0.737,0L13.84,7.324V5.547c0-0.274-0.232-0.496-0.521-0.496 c-0.285,0-0.521,0.222-0.521,0.496v1.777l-0.414-0.393c-0.202-0.193-0.532-0.193-0.737,0c-0.203,0.194-0.203,0.508,0,0.702 l1.306,1.239l0,0c0.038,0.037,0.081,0.066,0.126,0.089c0.195,0.098,0.443,0.069,0.609-0.089l0,0l1.305-1.239 C15.193,7.439,15.193,7.125,14.99,6.931L14.99,6.931z" class="black" stroke="none" fill="#808285" stroke-width="0.5"/>
  </g>
  <g class="lift base-icon" transform="scale(0.7)">
    <path d="M22,11c0,6.075-4.925,11-11,11S0,17.075,0,11S4.925,0,11,0S22,4.925,22,11z" class="black" stroke="none" fill="#808285" stroke-width="0.5"/>
    <path d="M21,11c0,5.523-4.477,10-10,10C5.477,21,1,16.523,1,11C1,5.477,5.477,1,11,1C16.523,1,21,5.477,21,11z" class="white" stroke="none" fill="white" stroke-width="0.5"/>
    <path d="M15.307,9.513H6.693c-0.728,0-1.318,0.416-1.318,0.93v5.577c0,0.515,0.59,0.932,1.318,0.932h8.614 c0.729,0,1.317-0.417,1.317-0.932v-5.577C16.625,9.929,16.034,9.513,15.307,9.513L15.307,9.513z M15.758,16.02 c0,0.104-0.122,0.188-0.273,0.188H6.517c-0.152,0-0.275-0.083-0.275-0.188v-5.577c0-0.103,0.123-0.186,0.275-0.186h8.965 c0.151,0,0.273,0.083,0.273,0.186L15.758,16.02L15.758,16.02z" class="black" stroke="none" fill="#808285" stroke-width="0.5"/>
    <path d="M8.298,11c0.216,0,0.391,0.167,0.391,0.372c0,0.206-0.175,0.372-0.391,0.372c-0.216,0-0.391-0.166-0.391-0.372 C7.907,11.167,8.082,11,8.298,11z" class="black" stroke="none" fill="#808285" stroke-width="0.5"/>
    <path d="M10.873,11c0.216,0,0.391,0.167,0.391,0.372c0,0.206-0.175,0.372-0.391,0.372s-0.391-0.166-0.391-0.372 C10.482,11.167,10.657,11,10.873,11z" class="black" stroke="none" fill="#808285" stroke-width="0.5"/>
    <path d="M13.635,11c0.217,0,0.391,0.167,0.391,0.372c0,0.206-0.174,0.372-0.391,0.372c-0.216,0-0.391-0.166-0.391-0.372 C13.244,11.167,13.419,11,13.635,11z" class="black" stroke="none" fill="#808285" stroke-width="0.5"/>
    <path d="M8.805,11.867H7.762c-0.144,0-0.261,0.119-0.261,0.266v1.328c0,0.124,0.083,0.229,0.196,0.257v1.62 c0,0.137,0.117,0.248,0.26,0.248c0.145,0,0.261-0.111,0.261-0.248v-1.611h0.13v1.611c0,0.137,0.117,0.248,0.261,0.248 s0.261-0.111,0.261-0.248v-1.62c0.112-0.028,0.196-0.133,0.196-0.257v-1.328C9.066,11.986,8.949,11.867,8.805,11.867L8.805,11.867z" class="black" stroke="none" fill="#808285" stroke-width="0.5"/>
    <path d="M11.379,11.867h-1.042c-0.144,0-0.261,0.119-0.261,0.266v1.328c0,0.124,0.083,0.229,0.196,0.257v1.62 c0,0.137,0.117,0.248,0.26,0.248c0.145,0,0.261-0.111,0.261-0.248v-1.611h0.13v1.611c0,0.137,0.117,0.248,0.261,0.248 s0.26-0.111,0.26-0.248v-1.62c0.113-0.028,0.197-0.133,0.197-0.257v-1.328C11.641,11.986,11.523,11.867,11.379,11.867L11.379,11.867 z" class="black" stroke="none" fill="#808285" stroke-width="0.5"/>
    <path d="M14.143,11.867H13.1c-0.145,0-0.261,0.119-0.261,0.266v1.328c0,0.124,0.082,0.229,0.194,0.257v1.62 c0,0.137,0.117,0.248,0.262,0.248s0.262-0.111,0.262-0.248v-1.611h0.129v1.611c0,0.137,0.117,0.248,0.263,0.248 c0.144,0,0.261-0.111,0.261-0.248v-1.62c0.111-0.028,0.193-0.133,0.193-0.257v-1.328C14.402,11.986,14.286,11.867,14.143,11.867 L14.143,11.867z" class="black" stroke="none" fill="#808285" stroke-width="0.5"/>
    <path d="M10.257,6.436l-1.303-1.24c-0.204-0.194-0.534-0.194-0.737,0l0,0l-1.304,1.24 c-0.203,0.194-0.203,0.508,0,0.701c0.204,0.193,0.534,0.193,0.738,0l0.413-0.393v1.777c0,0.274,0.233,0.496,0.521,0.496 s0.521-0.222,0.521-0.496V6.744L9.52,7.137c0.204,0.193,0.534,0.193,0.737,0C10.46,6.944,10.461,6.629,10.257,6.436L10.257,6.436z" class="black" stroke="none" fill="#808285" stroke-width="0.5"/>
    <path d="M14.99,6.931c-0.203-0.193-0.533-0.193-0.737,0L13.84,7.324V5.547c0-0.274-0.232-0.496-0.521-0.496 c-0.285,0-0.521,0.222-0.521,0.496v1.777l-0.414-0.393c-0.202-0.193-0.532-0.193-0.737,0c-0.203,0.194-0.203,0.508,0,0.702 l1.306,1.239l0,0c0.038,0.037,0.081,0.066,0.126,0.089c0.195,0.098,0.443,0.069,0.609-0.089l0,0l1.305-1.239 C15.193,7.439,15.193,7.125,14.99,6.931L14.99,6.931z" class="black" stroke="none" fill="#808285" stroke-width="0.5"/>
  </g>
  <g class="escalator base-icon" transform="scale(0.7)">
    <path d="M22,11c0,6.075-4.925,11-11,11S0,17.075,0,11S4.925,0,11,0S22,4.925,22,11z" class="black" stroke="none" fill="#808285" stroke-width="0.5"/>
    <path d="M21,11c0,5.523-4.477,10-10,10C5.477,21,1,16.523,1,11C1,5.477,5.477,1,11,1C16.523,1,21,5.477,21,11z" class="white" stroke="none" fill="white" stroke-width="0.5"/>
    <path d="M10.045,7.51c0.464,0,0.849-0.413,0.849-0.952c0-0.521-0.384-0.953-0.849-0.953 c-0.465,0-0.849,0.432-0.849,0.953C9.196,7.097,9.58,7.51,10.045,7.51 M8.523,15.356c-0.1,0.104-0.352,0.191-0.501,0.191H6.014 c-0.468,0-0.853-0.401-0.853-0.892c0-0.491,0.385-0.895,0.853-0.895h1.154c0.335,0,0.687-0.192,0.871-0.385 c0.3-0.314,5.354-5.569,5.438-5.673c0.101-0.106,0.352-0.193,0.502-0.193h2.007c0.468,0,0.854,0.403,0.854,0.893 c0,0.49-0.386,0.894-0.854,0.894h-1.153c-0.336,0-0.687,0.192-0.889,0.386C13.659,9.997,8.607,15.268,8.523,15.356 M14.579,10.33 c0.115-0.104,0.2-0.139,0.366-0.139h1.054c0.936,0,1.688-0.782,1.688-1.772c0-0.973-0.753-1.755-1.688-1.755h-1.973 c-0.485,0-0.937,0.209-1.204,0.486l-1.956,2.034V8.609c0-0.504-0.402-0.921-0.887-0.921S9.094,8.105,9.094,8.609v2.381l-1.655,1.72 c-0.101,0.104-0.201,0.14-0.369,0.14H6.017c-0.936,0-1.705,0.799-1.705,1.774c0,0.972,0.752,1.771,1.705,1.771H7.99 c0.485,0,0.937-0.226,1.205-0.486C9.511,15.579,14.495,10.434,14.579,10.33" id="Shape" class="black" stroke="none" fill="#808285" stroke-width="0.5"/>
  </g>
  <g class="parking base-icon" transform="scale(0.7)">
    <path d="M22,11c0,6.075-4.925,11-11,11S0,17.075,0,11S4.925,0,11,0S22,4.925,22,11z" class="black" stroke="none" fill="#808285" stroke-width="0.5"/>
    <path d="M21,11c0,5.523-4.477,10-10,10C5.477,21,1,16.523,1,11C1,5.477,5.477,1,11,1C16.523,1,21,5.477,21,11z" class="white" stroke="none" fill="white" stroke-width="0.5"/>
    <path d="M12.096,6.256H7.95v9.848h2.098v-3.318h2.048c1.588,0,2.931-1.316,2.931-2.872 l0.004-0.791C15.03,7.571,13.686,6.259,12.096,6.256L12.096,6.256z M12.933,9.919c0,0.413-0.414,0.819-0.837,0.819h-2.048V8.308 h2.048l0.072-0.001c0.373,0.038,0.722,0.377,0.765,0.741V9.919L12.933,9.919z" id="Shape_1_" class="black" stroke="none" fill="#808285" stroke-width="0.5"/>
  </g>
  <g class="public_telephone base-icon" transform="scale(0.7)">
    <path d="M22,11c0,6.075-4.925,11-11,11S0,17.075,0,11S4.925,0,11,0S22,4.925,22,11z" class="black" stroke="none" fill="#808285" stroke-width="0.5"/>
    <path d="M21,11c0,5.523-4.477,10-10,10C5.477,21,1,16.523,1,11C1,5.477,5.477,1,11,1C16.523,1,21,5.477,21,11z" class="white" stroke="none" fill="white" stroke-width="0.5"/>
    <path d="M16.509,16.453c-1.022,1.599-2.764,1.604-3.314,1.506 c-0.162-0.028-2.707-0.339-5.724-4.416c-2.429-3.28-2.26-6.317-2.192-6.887C5.346,6.1,5.747,4.746,7.828,4.055 c0.258-0.085,0.734-0.06,0.833,0.083C8.706,4.2,9.837,7.105,9.864,7.2s0.032,0.184,0.018,0.267C9.86,7.587,9.749,7.721,9.546,7.871 S9.129,8.152,8.902,8.267C8.674,8.381,8.46,8.508,8.26,8.645c-0.2,0.138-0.31,0.261-0.329,0.369 c-0.038,0.282,0.015,1.325,1.491,3.168c1.476,1.843,2.241,2.424,2.318,2.469c0.075,0.044,0.14,0.07,0.193,0.08 c0.108,0.02,0.262-0.043,0.459-0.184c0.198-0.141,0.898-0.814,1.108-0.954c0.209-0.139,0.374-0.198,0.495-0.177 c0.084,0.015,0.165,0.051,0.244,0.108c0.08,0.057,2.436,2.058,2.477,2.118C16.828,15.806,16.656,16.225,16.509,16.453" id="Shape" class="black" stroke="none" fill="#808285" stroke-width="0.5"/>
  </g>
  <g class="public_transport base-icon" transform="scale(0.7)">
    <path fill="#808285" d="M22,11c0,6.075-4.925,11-11,11S0,17.075,0,11S4.925,0,11,0S22,4.925,22,11z" class="black"/>
    <path fill="#FFF" d="M21,11c0,5.523-4.477,10-10,10C5.477,21,1,16.523,1,11C1,5.477,5.477,1,11,1C16.523,1,21,5.477,21,11z" class="white"/>
    <path fill="#808285" d="M8.948,14.255c-0.231,0-0.418,0.188-0.418,0.422c0,0.234,0.187,0.423,0.418,0.423 c0.231,0,0.418-0.188,0.418-0.423C9.366,14.443,9.18,14.255,8.948,14.255" class="black"/>
    <path fill="#808285" d="M7.924,14.346c-0.183,0-0.33,0.147-0.33,0.33c0,0.186,0.147,0.333,0.33,0.333 c0.182,0,0.329-0.147,0.329-0.333C8.253,14.493,8.106,14.346,7.924,14.346" class="black"/>
    <path fill="#808285" d="M13.052,15.1c0.231,0,0.419-0.188,0.419-0.424c0-0.232-0.188-0.421-0.419-0.421 c-0.229,0-0.419,0.188-0.419,0.421C12.633,14.91,12.82,15.1,13.052,15.1" class="black"/>
    <path fill="#808285" d="M14.076,15.009c0.183,0,0.33-0.147,0.33-0.332c0-0.184-0.147-0.331-0.33-0.331  c-0.184,0-0.329,0.147-0.329,0.331C13.747,14.861,13.895,15.009,14.076,15.009" class="black"/>
    <path fill="#808285" d="M16.297,7.144c-0.078-0.283-0.32-0.48-0.587-0.48c-0.024,0-0.047,0.004-0.071,0.007 c-0.004-0.038-0.009-0.075-0.014-0.112c-0.023-0.177-0.159-0.317-0.335-0.346c-0.147-0.024-0.298-0.046-0.446-0.068 C14.201,5.69,12.695,5.235,11,5.235h-0.014h-0.012c-1.695,0-3.201,0.456-3.843,0.909c-0.15,0.022-0.299,0.045-0.447,0.068 C6.508,6.241,6.373,6.381,6.349,6.558C6.344,6.595,6.34,6.631,6.335,6.668C6.32,6.667,6.306,6.664,6.291,6.664  c-0.267,0-0.509,0.198-0.587,0.48C5.458,8.03,5.334,8.95,5.336,9.878c0,0.382,0.276,0.692,0.614,0.692h0.008  c0.04,0,0.081-0.002,0.12-0.002c-0.002,1.569,0.116,3.138,0.356,4.698c0.026,0.168,0.155,0.305,0.323,0.336 C6.879,15.623,7,15.645,7.122,15.665v0.722c0,0.209,0.168,0.379,0.375,0.379h0.657c0.207,0,0.375-0.17,0.375-0.379v-0.523 c0.82,0.089,1.642,0.136,2.458,0.136c0.824,0,1.654-0.048,2.484-0.14v0.527c0,0.209,0.168,0.379,0.375,0.379h0.656  c0.207,0,0.375-0.17,0.375-0.379V15.66c0.113-0.02,0.227-0.038,0.338-0.061c0.168-0.031,0.299-0.166,0.324-0.336  c0.238-1.559,0.357-3.128,0.355-4.697c0.049,0,0.098,0.002,0.146,0.002h0.009c0.338,0,0.614-0.31,0.614-0.692 C16.666,8.95,16.543,8.03,16.297,7.144L16.297,7.144z M6.747,6.613c0.181-0.03,0.362-0.056,0.543-0.082 C7.771,6.133,9.249,5.64,10.974,5.64h0.014H11c1.725,0,3.204,0.493,3.684,0.891c0.183,0.026,0.362,0.053,0.543,0.082  c0.01,0.061,0.017,0.122,0.023,0.182c-0.072,0.025-0.143,0.051-0.215,0.077c-0.109,0.039-0.201,0.107-0.27,0.192  c-1.099-0.428-2.392-0.676-3.779-0.676c-1.378,0-2.664,0.246-3.758,0.668C7.161,6.975,7.071,6.91,6.965,6.872 c-0.081-0.028-0.16-0.057-0.239-0.086C6.733,6.728,6.739,6.67,6.747,6.613L6.747,6.613z M7.223,8.025h7.554l0.049,0.3 c-0.012,0.003-0.021,0.004-0.033,0.004H7.207c-0.01,0-0.021-0.001-0.031-0.003L7.223,8.025L7.223,8.025z M6.466,10.155  c-0.17,0.005-0.341,0.008-0.513,0.01H5.95c-0.1,0-0.212-0.123-0.212-0.288c-0.002-0.89,0.116-1.773,0.353-2.624 c0.03-0.108,0.112-0.184,0.2-0.184c0.018,0,0.036,0.003,0.055,0.01C6.508,7.14,6.67,7.198,6.832,7.253  c0.11,0.04,0.171,0.162,0.14,0.277C6.76,8.304,6.656,9.107,6.662,9.917C6.663,10.044,6.574,10.152,6.466,10.155L6.466,10.155z M15.143,15.202c-1.385,0.26-2.771,0.391-4.155,0.391c-1.386,0-2.771-0.131-4.156-0.391c-0.092-0.593-0.164-1.183-0.22-1.775h0.759 c0.19,0,0.43-0.122,0.505-0.303c0.168-0.401-0.15-0.995-0.331-1.34c-0.236-0.453-0.508-0.888-0.717-1.355 c0.121-0.099,0.205-0.245,0.228-0.413c0.791,1.835,2.4,3.411,3.959,3.411c1.885,0,3.793-0.813,4.43-1.112 C15.393,13.277,15.291,14.24,15.143,15.202L15.143,15.202z M16.05,10.165h-0.002c-0.173-0.001-0.344-0.004-0.514-0.009  c-0.108-0.003-0.196-0.111-0.196-0.238c0.008-0.81-0.098-1.613-0.309-2.387c-0.031-0.116,0.027-0.238,0.139-0.277 c0.162-0.056,0.324-0.114,0.488-0.174c0.018-0.007,0.035-0.01,0.054-0.01c0.088,0,0.17,0.076,0.199,0.184 c0.235,0.851,0.354,1.734,0.353,2.624C16.262,10.042,16.148,10.165,16.05,10.165L16.05,10.165z" class="black"/>
  </g>
  <g class="shop_mobility base-icon" transform="scale(0.7)">
    <path d="M22,11c0,6.075-4.925,11-11,11S0,17.075,0,11S4.925,0,11,0S22,4.925,22,11z" class="black" stroke="none" fill="#808285" stroke-width="0.5"/>
    <path d="M21,11c0,5.523-4.477,10-10,10C5.477,21,1,16.523,1,11C1,5.477,5.477,1,11,1C16.523,1,21,5.477,21,11z" class="white" stroke="none" fill="white" stroke-width="0.5"/>
    <path d="M12.418,14.014l-0.498-2.541H8.462l-0.127-0.819h2.036V9.81H8.205L7.956,8.207 c0.57-0.003,1.033-0.477,1.033-1.059c0-0.583-0.466-1.059-1.039-1.059c-0.573,0-1.039,0.475-1.039,1.059 c0,0.056,0.008,0.109,0.016,0.162L6.925,7.312l0.83,5.004h3.487l0.554,2.824l1.61-0.597l-0.283-0.793L12.418,14.014z" class="black" stroke="none" fill="#808285" stroke-width="0.5"/>
    <path d="M11.173,13.498c-0.21-0.091-0.453,0.009-0.542,0.223c-0.43,1.032-0.909,1.348-2.049,1.348 c-1.281,0-2.322-1.062-2.322-2.367c0-0.871,0.223-1.369,0.852-1.903c0.175-0.149,0.199-0.415,0.053-0.594 C7.018,10.024,6.757,10,6.582,10.149c-0.817,0.693-1.15,1.432-1.15,2.551c0,1.771,1.413,3.212,3.15,3.212 c1.465,0,2.253-0.521,2.811-1.861C11.482,13.837,11.384,13.589,11.173,13.498" class="black" stroke="none" fill="#808285" stroke-width="0.5"/>
    <path d="M14.955,15.348c-0.421,0-0.764-0.35-0.764-0.777s0.343-0.777,0.764-0.777s0.763,0.35,0.763,0.777 S15.376,15.348,14.955,15.348 M14.955,13.255c-0.711,0-1.29,0.591-1.29,1.313c0,0.725,0.579,1.314,1.29,1.314 s1.289-0.59,1.289-1.314C16.244,13.846,15.666,13.255,14.955,13.255" class="black" stroke="none" fill="#808285" stroke-width="0.5"/>
    <path d="M14.441,10.106l0.068,0.735h-0.428l-0.145-0.735H14.441z M14.593,11.7h-0.341l-0.113-0.585h0.399L14.593,11.7z M14.678,12.59h-0.252l-0.119-0.615h0.312L14.678,12.59z M15.492,10.106L15.4,10.841h-0.619l-0.07-0.735H15.492z M15.848,11.975 c0.019,0,0.035-0.004,0.051-0.011l-0.125,0.626H15.45l0.077-0.615H15.848z M15.637,11.115h0.43h0.002l-0.125,0.626 c-0.025-0.025-0.06-0.041-0.096-0.041h-0.285L15.637,11.115z M15.76,10.136c0.002-0.01,0.002-0.02,0.001-0.03h0.509l-0.149,0.747 c-0.017-0.007-0.034-0.011-0.054-0.011H15.67L15.76,10.136z M15.292,11.7h-0.429l-0.057-0.585h0.56L15.292,11.7z M15.18,12.59h-0.23 l-0.059-0.615h0.366L15.18,12.59z M13.666,13.02l0.757-0.154h0.362c0.017,0.006,0.035,0.009,0.055,0.007 c0.012-0.002,0.021-0.003,0.029-0.007h0.386c0.009,0.004,0.017,0.005,0.024,0.006c0.006,0.001,0.012,0.001,0.018,0.001 c0.016,0,0.029-0.002,0.042-0.007h0.544c0.064,0,0.119-0.047,0.133-0.109l0.551-2.758c0.008-0.041-0.004-0.083-0.028-0.114 c-0.024-0.032-0.063-0.051-0.104-0.051h-2.549h-0.111h-2.771v0.844h2.205L13.666,13.02z" class="black" stroke="none" fill="#808285" stroke-width="0.5"/>
  </g>
  <g class="toilets base-icon" transform="scale(0.7)">
    <path d="M22,11c0,6.075-4.925,11-11,11S0,17.075,0,11S4.925,0,11,0S22,4.925,22,11z" class="black" stroke="none" fill="#808285" stroke-width="0.5"/>
    <path d="M21,11c0,5.523-4.477,10-10,10C5.477,21,1,16.523,1,11C1,5.477,5.477,1,11,1C16.523,1,21,5.477,21,11z" class="white" stroke="none" fill="white" stroke-width="0.5"/>
    <path d="M7.3,12.711v3.176c0,0.124-0.041,0.229-0.118,0.303c-0.078,0.078-0.179,0.115-0.303,0.115 c-0.125,0-0.232-0.037-0.316-0.115c-0.089-0.074-0.13-0.179-0.13-0.303v-3.176H5.239l1.242-4.182H6.268 c-0.136,0.47-0.251,0.847-0.34,1.145c-0.082,0.298-0.171,0.58-0.249,0.853c-0.089,0.268-0.148,0.438-0.155,0.497 c-0.054,0.177-0.171,0.263-0.356,0.263l-0.094-0.023c-0.173-0.062-0.256-0.175-0.256-0.333c0-0.043,0.006-0.079,0.024-0.114 c0.012-0.031,0.047-0.136,0.089-0.314c0.048-0.177,0.112-0.397,0.19-0.652c0.077-0.26,0.16-0.541,0.249-0.843 c0.089-0.303,0.172-0.595,0.273-0.876c0.06-0.215,0.19-0.411,0.392-0.581c0.202-0.177,0.411-0.256,0.629-0.256h1.461 c0.226,0,0.445,0.08,0.642,0.256C8.958,7.72,9.095,7.916,9.171,8.132C9.253,8.414,9.337,8.706,9.42,9.008 C9.504,9.31,9.594,9.591,9.665,9.851c0.076,0.255,0.143,0.475,0.189,0.652c0.047,0.178,0.078,0.283,0.095,0.314l0.023,0.094 c0,0.19-0.089,0.303-0.261,0.353l-0.09,0.023c-0.188,0-0.309-0.085-0.355-0.263c-0.013-0.059-0.065-0.229-0.136-0.497 c-0.083-0.272-0.167-0.554-0.262-0.853C8.773,9.375,8.661,8.999,8.524,8.529H8.31l1.24,4.182H8.375v3.176 c0,0.124-0.036,0.229-0.131,0.303c-0.083,0.078-0.185,0.115-0.309,0.115c-0.131,0-0.227-0.037-0.309-0.115 c-0.078-0.074-0.113-0.179-0.113-0.303v-3.176H7.3L7.3,12.711z" class="black" stroke="none" fill="#808285" stroke-width="0.5"/>
    <path d="M7.418,7.033c0.25,0,0.465-0.081,0.631-0.252C8.221,6.605,8.31,6.388,8.31,6.126 c0-0.249-0.089-0.463-0.261-0.64c-0.166-0.181-0.38-0.272-0.631-0.272c-0.266,0-0.487,0.091-0.67,0.272 c-0.179,0.177-0.267,0.391-0.267,0.64c0,0.262,0.088,0.479,0.267,0.654C6.931,6.952,7.152,7.033,7.418,7.033L7.418,7.033z" class="black" stroke="none" fill="#808285" stroke-width="0.5"/>
    <path d="M13.977,7.268c-0.32,0-0.595,0.118-0.826,0.346c-0.231,0.238-0.352,0.515-0.352,0.823v2.85 c0,0.107,0.037,0.205,0.119,0.281c0.077,0.078,0.172,0.113,0.28,0.113c0.124,0,0.22-0.035,0.296-0.113 c0.066-0.076,0.102-0.174,0.102-0.281V8.739h0.209v7.056c0,0.137,0.06,0.262,0.172,0.357c0.105,0.106,0.23,0.152,0.373,0.152 c0.154,0,0.279-0.046,0.381-0.152c0.105-0.098,0.154-0.223,0.154-0.357v-4.091h0.23v4.091c0,0.137,0.054,0.262,0.154,0.357 c0.102,0.106,0.231,0.152,0.394,0.152c0.136,0,0.254-0.046,0.362-0.152c0.1-0.098,0.146-0.223,0.146-0.357V8.739h0.215v2.548 c0,0.107,0.035,0.205,0.106,0.281c0.084,0.078,0.184,0.113,0.291,0.113c0.125,0,0.221-0.035,0.292-0.113 c0.063-0.076,0.106-0.174,0.106-0.281v-2.85c0-0.308-0.113-0.585-0.346-0.823c-0.227-0.229-0.499-0.346-0.831-0.346H13.977 L13.977,7.268z" class="black" stroke="none" fill="#808285" stroke-width="0.5"/>
    <path d="M14.997,7.033c0.25,0,0.469-0.081,0.647-0.252c0.176-0.175,0.267-0.392,0.267-0.654 c0-0.249-0.091-0.463-0.267-0.64c-0.18-0.181-0.397-0.272-0.647-0.272c-0.261,0-0.481,0.091-0.647,0.272 c-0.178,0.177-0.261,0.391-0.261,0.64c0,0.262,0.083,0.479,0.261,0.654C14.516,6.952,14.736,7.033,14.997,7.033L14.997,7.033z" class="black" stroke="none" fill="#808285" stroke-width="0.5"/>
    <path d="M10.961,4.485h0.902v13.029h-0.902V4.485z" class="black" stroke="none" fill="#808285" stroke-width="0.5"/>
  </g>

  <!-- Areas -->
  <g transform="translate(24,0)">
    <path fill="#f68b1f" stroke-width=".5" d="M161.203 26.767L78.634 5.981a1.466 1.466 0 0 0-1.222.234L56.599 21.211a1.474 1.474 0 0 0-.612 1.196v2.064L39.933 36l-2.177-.569a1.473 1.473 0 0 0-1.232.229L9.869 54.816a1.468 1.468 0 0 0-.42.467L.759 70.529c-.125.218-.19.465-.193.716l-.049 5.642a1.472 1.472 0 0 0 1.117 1.442l50.128 12.502c.144.1.306.175.483.219l24.889 6.187a1.487 1.487 0 0 0 1.215-.233l23.86-17.126c.386-.277.614-.723.614-1.199v-2.406l2.815-2.002.49.109c.407.095.842.004 1.184-.242l54.341-39.104c.381-.273.608-.714.612-1.183l.05-5.643a1.471 1.471 0 0 0-1.112-1.441zm0 0" class="outline"/>
    <path fill="#f68b1f" stroke-width=".5" d="M176.221 1.029c-2.881 0-4.706 2.337-4.706 5.938 0 3.393 1.792 5.506 4.658 5.506 2.881 0 4.706-2.353 4.706-5.954 0-3.393-1.808-5.49-4.658-5.49zm-.015 10.26c-2.145 0-3.394-1.745-3.394-4.257 0-2.961 1.232-4.818 3.377-4.818 2.193 0 3.394 1.745 3.394 4.242 0 2.96-1.233 4.833-3.377 4.833zm65.263-.128h-4.306V1.749c0-.4-.256-.656-.608-.656s-.624.256-.624.656v9.636c0 .592.368.96 1.057.96h4.481c.4 0 .656-.271.656-.608 0-.304-.24-.576-.656-.576zM168.59 8.232a3.527 3.527 0 0 0-.977-.976c1.425-.497 2.353-1.489 2.353-3.009 0-1.937-1.312-3.217-4.209-3.217-1.104 0-1.857.112-2.369.271-.4.128-.512.368-.512.768v9.7c0 .4.272.64.625.64.352 0 .624-.24.624-.64V7.592h1.249c1.168 0 1.633.48 2.209 1.409.4.64.816 1.568 1.312 2.961.096.256.272.448.608.448.336 0 .625-.24.625-.624a1.25 1.25 0 0 0-.096-.432c-.433-1.154-.946-2.354-1.442-3.122zm-3.025-1.857h-1.44V2.342c.448-.064.88-.128 1.569-.128 2.289 0 3.009.896 3.009 2.081-.001 1.648-1.553 2.128-3.138 2.08zm58.176-3.809c-.624-1.249-1.12-1.617-1.681-1.617-.561 0-1.057.368-1.681 1.617-.896 1.809-1.585 4.082-2.753 8.708-.064.224-.096.4-.096.512 0 .384.256.624.607.624.289 0 .496-.176.576-.512a62.28 62.28 0 0 1 .913-3.666h4.866c.287 1.057.592 2.289.912 3.666.08.336.288.512.576.512.352 0 .608-.24.608-.624 0-.112-.048-.288-.097-.512-1.134-4.627-1.853-6.9-2.75-8.708zm-3.794 4.546c.736-2.449 1.393-3.97 1.905-4.77.048-.064.097-.128.208-.128.112 0 .16.064.209.128.512.8 1.152 2.321 1.889 4.77h-4.211zm13.907 4.049h-4.307V1.749c0-.4-.256-.656-.607-.656-.353 0-.625.256-.625.656v9.636c0 .592.369.96 1.057.96h4.482c.4 0 .656-.271.656-.608 0-.304-.24-.576-.656-.576zM199.167 1.157h-4.69c-.688 0-1.057.368-1.057.96v9.652c0 .4.272.64.625.64.352 0 .608-.24.608-.64v-4.29h3.922a.59.59 0 0 0 .592-.592.588.588 0 0 0-.592-.577h-3.922V2.373h4.498c.448 0 .656-.304.656-.592a.608.608 0 0 0-.64-.624zm16.017 1.232c-.111-.833-.4-1.296-1.057-1.296-.624 0-.896.368-1.072.832-.816 2.209-1.713 5.042-2.689 7.667h-.016c-1.008-2.481-1.793-5.09-2.816-7.523-.225-.608-.496-.976-1.121-.976-.656 0-.961.448-1.057 1.329a75.636 75.636 0 0 0-.527 9.348c-.017.384.224.64.576.64s.623-.224.623-.656c-.016-3.073.177-6.05.514-9.043h.016c.977 2.625 1.92 5.266 2.961 7.891.128.336.4.576.816.576.4 0 .704-.24.832-.576 1.024-2.545 1.904-5.25 2.834-7.891h.016c.416 3.025.576 6.002.656 8.979 0 .448.224.72.641.72.352 0 .576-.288.576-.672 0-.128-.017-.368-.017-.48a68.197 68.197 0 0 0-.689-8.869zm-28.259-1.36c-2.881 0-4.706 2.337-4.706 5.938 0 3.393 1.792 5.506 4.658 5.506 2.881 0 4.706-2.353 4.706-5.954 0-3.393-1.808-5.49-4.658-5.49zm-.015 10.26c-2.145 0-3.394-1.745-3.394-4.257 0-2.961 1.232-4.818 3.377-4.818 2.193 0 3.394 1.745 3.394 4.242 0 2.96-1.233 4.833-3.377 4.833zm0 0" class="Shape"/>
    <path fill="#808285" stroke-width=".5" d="M101.577 75.015l-23.88 16.952L2.322 73.195l8.549-15.132L78.482 9.86l82.598 20.588-54.442 38.817-1.082-.246-7.026 5.013 3.047.983" class="walkway"/>
    <path fill="#989898" stroke-width=".5" d="M115.335 15.511l-.246 5.503-10.564 8.746-11.694 1.179-10.564-2.653-5.602 4.029-19.016-4.766v-5.602l19.064 4.767 5.602-3.932 10.564 2.604 11.694-1.228 10.762-8.647m45.746 17.787l-54.394 38.818-1.13-.246-3.98 2.801v3.145L76.861 95.505 2.125 76.046l.049-5.601 50.66 12.53 2.85-1.966L8.808 69.216l-.049-5.749L43.94 38.359v5.798L30.625 54.672l33.511 8.402 4.914-4.128-.05 5.602-4.864 4.129-36.656-9.189V56.93l-11.94 8.453 45.893 11.448 14.199-10.22 4.521.393 4.078-2.849-6.633-.099v-6.534l-2.604-4.913-.344-8.107 11.99 3.685-1.327-1.769.049-5.503 1.327 1.67.737.147v-.54l-.246-.049.05-5.602 1.77.786v1.475l29.727 7.469 1.574-1.179 12.137 3.096 28.694-20.933-.051 6.043M62.268 85.383l15.478 3.832 5.013-3.489-.836-.195-1.081.787-14.791-3.685-3.783 2.75m18.574-4.668l1.179-.786 5.945 1.424 7.076-5.013-14.938-3.686-8.256 5.847 8.994 2.214m45.745-28.401l-6.29-1.622-.343.197 6.388 1.573.245-.148M108.21 65.483l12.333-8.795-13.364-3.391-12.384 8.845 13.415 3.341" class="wall"/>
    <path id="unit-4001" fill="#fff" stroke="#ddd" stroke-width=".5" d="M93.138 25.968l-10.624-2.594-6.216 3.915-18.601-4.6L78.794 7.711l35.977 8.957-10.964 8.321-10.669.979zm0 0" class="unit"/>
    <path id="unit-4002" fill="#fff" stroke="#ddd" stroke-width=".5" d="M160.197 28.17l-27.51 20.509-11.403-2.644-2.008 1.42-31.228-8.027 1.273-1.126-2.104-1.077 28.73-20.313 44.25 11.258zm0 0" class="unit"/>
    <path id="unit-4003" fill="#fff" stroke="#ddd" stroke-width=".5" d="M87.705 39.674l31.522 8.077.245.098 2.057-1.467 10.82 2.545a417.699 417.699 0 0 1-6.218 4.16l-18.991-4.649-.245-.098-18.896 13.656-1.225 1.174-3.132 2.153-4.209 3.28-5.629-1.419 9.642-7.294.197-.098-6.02-1.518 3.278-2.35-6.413-10.769 4.014-2.839 8.909 2.203-2.104-3.329 2.398-1.516zm0 0" class="unit"/>
    <path id="unit-4004" fill="#fff" stroke="#ddd" stroke-width=".5" d="M62.398 64.344l-36.956-9.2L46.343 39.92l11.796 2.937 10.378 16.79-6.119 4.697zm0 0" class="unit"/>
    <path id="unit-4005" fill="#fff" stroke="#ddd" stroke-width=".5" d="M125.787 53.33L107.43 66.497l-18.551-4.602 18.209-13.167 18.699 4.602zm0 0" class="unit"/>
    <path id="unit-4006" fill="#fff" stroke="#ddd" stroke-width=".5" d="M87.117 63.414l15.662 3.72-3.035 2.153-15.418-3.915 2.791-1.958zm0 0" class="unit"/>
    <path id="unit-4007" fill="#fff" stroke="#ddd" stroke-width=".5" d="M88.585 62.141l18.159 4.845-1.125.54-18.209-4.357 1.175-1.028zm0 0" class="unit"/>
    <path id="unit-4008" fill="#fff" stroke="#ddd" stroke-width=".5" d="M81.439 67.624l2.594-2.007 3.426.88-2.743 2.057-3.277-.93zm0 0" class="unit"/>
    <path id="unit-4009" fill="#fff" stroke="#ddd" stroke-width=".5" d="M87.263 66.595l12.286 3.082-3.868 2.938-15.711-3.916 1.173-.88" class="unit"/>
    <path id="unit-4010" fill="#fff" stroke="#ddd" stroke-width=".5" d="M79.628 68.945l19.628 5.092-13.021 8.811-5.239-1.273-1.42 1.028-14.636-3.672 14.688-9.986zm0 0" class="unit"/>
    <path id="unit-4011" fill="#fff" stroke="#ddd" stroke-width=".5" d="M75.859 68.013l3.23.785-15.076 10.228 15.81 3.916 1.42-1.028 4.65 1.176-9.937 7.831-24.229-5.874 24.132-17.034zm0 0" class="unit"/>
    <path id="unit-4012" fill="#fff" stroke="#ddd" stroke-width=".5" d="M61.174 78.048L14.086 66.447l-.245-.635-4.846-1.224 13.706-9.79 52.619 13.07-14.146 10.18zm0 0" class="unit"/>
    <path id="unit-4013" fill="#fff" stroke="#ddd" stroke-width=".5" d="M51.188 84.901L1.702 71.931l8.321-15.173L36.7 37.668l7.097 1.469-35.634 25.55 5.14 1.273.195.637L60.88 78.246l-9.692 6.655zm0 0" class="unit"/>
  </g>
  <g transform="translate(33,72)">
    <path fill="#f68b1f" stroke-width=".5" d="M408.5 122.4L354.7 109c-.4-.1-.8 0-1.1.2l-1.4 1-15.4-3.8c-.4-.1-.8 0-1.1.2l-7.9 5.7-14.9-3.7c-.4-.1-.7 0-1.1.2l-1.1.8-2.5-.6 5.4-3.9c.3-.2.5-.6.5-1v-.8c0-.3-.1-.6-.3-.9l52-37.1c.3-.2.5-.6.5-1v-3.9c0-.6-.4-1.1-1-1.2l-42.5-10.6c-.4-.1-.7 0-1 .2l-7.9 5.6-26.2-6.5 31.4-22.4 14.3 3.6c.4.1.7 0 1.1-.2l5.8-4.1 14.1 3.5c.4.1.8 0 1.1-.2l3-2.1c.3-.2.5-.6.5-1v-1c0-.6-.3-1.1-.9-1.3h-.1l-11.2-2.8 3.6-2.6c.3-.2.5-.6.5-1v-.8c0-.6-.4-1.1-1-1.2L296.6.9c-.4-.1-.7 0-1.1.2L281.7 11l-1-.3c-.4-.1-.8 0-1.1.2l-2.9 2.1L243 4.6c-.4-.1-.8 0-1.1.2l-5.5 4-3.2-.8c-.4-.1-.7 0-1.1.2l-43.7 31.2-11.9-3c-.4-.1-.8 0-1.1.2l-6 4.3-7.1-1.8c-.4-.1-.8 0-1.1.2l-4.3 3.1c-.3.2-.5.6-.5 1v3.8c0 .6.4 1.1 1 1.2l3.5.9-6.3 4.5c-.3.2-.5.6-.5 1v3.9c0 .6.4 1.1 1 1.3l7 1.8-.7.5c-.2-.2-.4-.4-.7-.5l-22.5-5.6 3.7-2.7c.3-.2.5-.6.5-1v-3.9c0-.6-.4-1.1-1-1.3l-6.9-1.7c-.3-.1-.7 0-1 .2l-4 2.6-.5-.1c-.4-.1-.7 0-1.1.2L97.7 70.1c-.3.2-.5.6-.5 1v.8l-.9-.2c-.4-.1-.7 0-1 .2l-2.1 1.5c-.3.2-.4.5-.5.8l-1.2 5.3v1.7h-.2c-.4-.1-.8 0-1.1.2L87 83.5l-5.2-1.3c-.2 0-.4-.1-.5 0l-10 1.9c-.6.1-1 .6-1 1.3v.9l-2.7.5-1.5-1.3c-.3-.3-.7-.4-1.1-.3l-14.2 2.5c-.2 0-.4.1-.5.2l-1 .7-4.1-1c-.4-.1-.8 0-1.1.2L32 96.4c-.3.2-.5.6-.5 1v3.9c0 .6.4 1.1 1 1.2l4.5 1.1-3.8 2.7c-.3.2-.5.6-.5 1v3.9c0 .1 0 .3.1.4l-2.4-.6c-.4-.1-.7 0-1 .2l-2 1.4-15.7-3.9c-.4-.1-.7 0-1 .2l-4.1 2.9c-.3.2-.5.5-.5.9L.9 160.3v3.9c0 .5.3 1 .8 1.2l18.6 8.5c.1 0 .2.1.3.1l51.3 10.4.9 1c.2.2.4.3.7.4l121.9 24.9h.6l11.8-2.9c.4-.1.7-.4.9-.7l3.5-8.1 3.4.3-2.1 4.5c-.1.2-.1.4-.1.5v3.8c0 .6.4 1.1 1 1.2l12.1 3c.4.1.7 0 1.1-.2l3.6-2.6 16.7 4.2c.4.1.8 0 1.1-.2l3.2-2.3 23.1 5.8h.4l6.4-.7c.2 0 .4-.1.6-.2l51.6-36.8c.3-.2.5-.6.5-1v-3.9c0-.3-.1-.5-.2-.7l8 2c.4.1.7 0 1.1-.2l23.3-16.6c.3-.2.5-.6.5-1v-.9l5.8-4.1 1.1.2c.4.1.7 0 1-.2l34-24.3c.3-.2.5-.6.5-1v-3.9c-.4-.7-.8-1.2-1.4-1.3zm-186.7 57.2l5.1 1.3c.4.1.7 0 1-.2l1.5-1.1 2.1.5-2.4 1.7-8.9-2.2.6-1.3c0 .6.4 1.1 1 1.3zm3.4-11.3l1-2.2v1.5l-1 .7zm15.4-41.8l-.4-.2 2.2.6-1.2 3.4c0 .1-.1.3-.1.4v2l-.6.4.5-1.1c.1-.2.1-.3.1-.5v-3.9c.1-.4-.2-.8-.5-1.1zM64.4 116.1l10.4 2.6-3.6 2.6-19.2-4.8 12.4-.4zm0 0" class="outline"/>
    <path fill="#f68b1f" stroke-width=".5" d="M28.4 31c-.4 0-.6.3-.6.7v8.8c-.8.5-2 .8-2.7.8-1.9 0-3-.9-3-3v-6.5c0-.4-.3-.7-.6-.7s-.6.3-.6.7v6.8c0 2.3 1.5 3.9 4 3.9 1.8 0 2.8-.5 3.8-1 .4-.2.4-.5.4-.9v-8.9c-.1-.4-.4-.7-.7-.7zm14.5-.1c-1 0-1.8.1-2.3.3-.4.1-.5.4-.5.8v9.7c0 .4.3.6.6.6s.6-.2.6-.6v-3.6h1.5c2.9 0 4.4-1.4 4.4-3.7 0-2-1.3-3.5-4.3-3.5zm-.1 6h-1.4v-4.7c.4-.1 1-.1 1.5-.1 2.3 0 3.1 1.1 3.1 2.4 0 1.3-.7 2.4-3.2 2.4zm-8.7-6c-1 0-1.8.1-2.3.3-.4.1-.5.4-.5.8v9.7c0 .4.3.6.6.6s.6-.2.6-.6v-3.6H34c2.9 0 4.4-1.4 4.4-3.7 0-2-1.3-3.5-4.3-3.5zm-.2 6h-1.4v-4.7c.4-.1 1-.1 1.5-.1 2.3 0 3.1 1.1 3.1 2.4 0 1.3-.7 2.4-3.2 2.4zm54.9-4.4c-.6-1.2-1.1-1.6-1.7-1.6-.6 0-1.1.4-1.7 1.6-.9 1.8-1.6 4.1-2.8 8.7-.1.2-.1.4-.1.5 0 .4.3.6.6.6s.5-.2.6-.5c.3-1.4.6-2.6.9-3.7h4.9c.3 1.1.6 2.3.9 3.7.1.3.3.5.6.5.4 0 .6-.2.6-.6 0-.1 0-.3-.1-.5-1.1-4.6-1.8-6.9-2.7-8.7zM85 37c.7-2.4 1.4-4 1.9-4.8 0-.1.1-.1.2-.1s.2.1.2.1c.5.8 1.2 2.3 1.9 4.8H85zm13.9 4.1h-4.3v-9.4c0-.4-.3-.7-.6-.7s-.6.3-.6.7v9.6c0 .6.4 1 1.1 1H99c.4 0 .7-.3.7-.6-.1-.4-.4-.6-.8-.6zm-44-.1h-4.8v-3.9H54c.4 0 .6-.3.6-.6s-.2-.6-.6-.6h-3.9v-3.7h4.6c.4 0 .6-.3.6-.6s-.2-.6-.6-.6H50c-.7 0-1.1.4-1.1 1v9.3c0 .6.4 1 1.1 1h4.9c.4 0 .6-.3.6-.6.1-.4-.2-.7-.6-.7zm51.6.1h-4.3v-9.4c0-.4-.3-.7-.6-.7-.4 0-.6.3-.6.7v9.6c0 .6.4 1 1.1 1h4.5c.4 0 .7-.3.7-.6-.1-.4-.4-.6-.8-.6zm-43.5-3c-.3-.4-.6-.7-1-1 1.4-.5 2.4-1.5 2.4-3 0-1.9-1.3-3.2-4.2-3.2-1.1 0-1.9.1-2.4.3-.4.1-.5.4-.5.8v9.7c0 .4.3.6.6.6.4 0 .6-.2.6-.6v-4.2h1.2c1.2 0 1.6.5 2.2 1.4.4.6.8 1.6 1.3 3 .1.3.3.4.6.4s.6-.2.6-.6c0-.1 0-.3-.1-.4-.3-1.2-.8-2.4-1.3-3.2zm-3-1.8h-1.4v-4c.4-.1.9-.1 1.6-.1 2.3 0 3 .9 3 2.1-.1 1.6-1.6 2-3.2 2zm20.2-4c-.1-.8-.4-1.3-1.1-1.3-.6 0-.9.4-1.1.8-.8 2.2-1.7 5-2.7 7.7-1-2.5-1.8-5.1-2.8-7.5-.2-.6-.5-1-1.1-1-.7 0-1 .4-1.1 1.3-.4 2.9-.5 6.1-.5 9.3 0 .4.2.6.6.6.4 0 .6-.2.6-.7 0-3.1.2-6 .5-9 1 2.6 1.9 5.3 3 7.9.1.3.4.6.8.6s.7-.2.8-.6c1-2.5 1.9-5.2 2.8-7.9.4 3 .6 6 .7 9 0 .4.2.7.6.7.4 0 .6-.3.6-.7V41c.1-2.9-.2-5.9-.6-8.7zm0 0" class="Shape"/>
    <path fill="#808285" stroke-width=".5" d="M357.8 24.7l-3 2.1-14.7-3.7-6.3 4.5-14.9-3.7-64.4 45.9 4.7 7.4 13.8 3.5 8.9 14.1 8.2 2.1 4.6 7.3 8.2 2.1 5.6-4 4.2 1.1v.8l-7.6 5.5 7.4 1.8v.8l-1.7 1.2-20.8-5.2-2.1 1.5 14.6 22.1 71.5 17.8v.8l-8.4 6-21.3-5.3-23.7 16.9 1.4 2.2v.8l-30.8 3.2-.4-1.5v-.8l8.4-6-36.4-57-2.5-.6-13.2-20.5-32.8-8.2-18.5 2-5 3.5-16.7 1.8-17.8 12.7 8.6 2.2v.8l-5.1 3.6-17.8 1-34.7 24.7-29.9-7.4v-.8l89.8-64 23.5 5.9 19.3-1.8 18 4.5 14.7-1.5 63.9-45.6-26.4-6.6v-.8l15.9-11.4 53.4 13.3v.8l-5.9 4.2 13.9 3.5.3.4" class="walkway"/>
    <path fill="#989898" stroke-width=".5" d="M163.7 76.9l16 4 9.9-7V70l-9.8 7-16-4-.1 3.9zm4.2-31l-10.2-2.5v3.8l10.2 2.6v-3.9zm146.3 9.7l-38.6 27.6-2.5-4-13.9-3.5-5-7.9v3.9l5 7.9L273 83l8.9 14.1 8.2 2 4.6 7.3 8.3 2 62-44.2v-3.9l-62 44.3-8.2-2.1 60.6-44.3-9.5-2.8-55.7 39.8-8.2-2-4.7-7.4 36.9-26.3v-3.9zm-173-7l-10 7.1v3.9l10-7.1v-3.9zm69 17.3l17.9 4.5 14.7-1.5 64.7-46.2v-3.9L242.8 65l-14.7 1.5-14-3.5L277 18.3v-3.9L210.3 62 191 63.8l-35.6-8.9v3.9l35.6 8.9 19.2-1.8zm17 109.8l-5.1-1.3v3.9l5.1 1.3 2-1.4 9.4 2.3v-3.9l-9.4-2.3-2 1.4zm64.4-.1v-2l8.1-5.8v-3.9l-6.9-10.6-29.9 21.3-11.9-2.9 13.6-9.7v-3.9l-4.6-7.4 19.7-14.1v-3.8L258.3 148v3.9l4.6 7.3-16 11.4-16.2-4.1v-.8l-3.4-.8v3.9l2.6.6v.8l33 8.2 28.7-2.8zM100.9 71.7l-2.4-.6V75l2.5.6-.1-3.9zM267.2 113l-24.7 17.6v3.9l24.7-17.6V113zm-48.3 81.4l-6.3-.5 27.3-62.4v-3.9L207 202.7l-11.8 2.9-119.6-24.5 11.8-7.2 71 3.4 10-42.2v-3.9l-15.7-.8v-2.8l-7.1-1.8 3.9-2.8v-1.8l1.9.5 4.9-3.5v-1.7l1.7.4 6.5-4.7v-2.8l2.6-1.8v-3.4l27.7 6.9v1.7l51 13.5v-3.9l-2.6-.6 17.1-12.2v-3.9l-21.1 15-12.2-3.2.3-.3 2.5.6 24.5-17.5v-3.9L230 114.1l-2.5-.6-4.3 3.1-12.4-3.3 34.5-24.6v-3.9l-38.4 27.4-8-2.1 34.3-24.4v-3.9l-36.5 26.1-9.7-2.4 32.5-23.2v-3.8l-36.5 26-9.1-2.3 18.3-13.1v-3.9l-1.3-2.6v3.5l-21.1 15-14.2-3.5v3.9l11 2.8-4.9 3.5v2.8l-3.7 2.6-3.9-1-1.8 1.3v3.8l-.9.6-20.6-5.2v3.9l16.5 4.1-4 2.8-2.7-.6v.2l-1.5 1.1v2.4l-1.8 1.3-2.6-.6-1.6 1.2v2.7l-3 2.2-16.1-4-1.8 1.2-4.6-1.2v3.9l2.8.7v3.4l3.5-2.5v-1.6l16.1 4 5.9-4.2v-1.5l1.4.3 4.3-3v-1.7l1.8.4v1.7l5.7 1.4v3.6l.1-.1v.1l18.4.9-9.1 38.3-71-3.4-15.3 9.4L20.5 169l-18.6-8.4v3.8l18.6 8.5 51.7 10.5 1.2 1.2 121.9 24.9 11.8-2.9 3.9-9 7.9.7v-3.9zm56.3 17.5l-23.7-5.9-3.7 2.6-17.3-4.3-4.1 2.9-12.2-3v3.8l12.1 3 4.1-2.9 17.3 4.3 3.7-2.6 23.7 5.9 6.4-.7 51.6-36.8v-3.9l-51.6 36.8-6.3.8zm63.3-59v3.9l17.3 4.3-1.6 1.1-21.3-5.3v3.9l17.3 4.3-7.7 5.5-16.5-4.1-4.8.3-.6-1.1v3.9l.7 1.1 4.8-.3 16.5 4.1 23.3-16.6V154l-5.9 4.2-21.5-5.3zm-223.9-17.2v3.9l1.2-.9v-3.9l-1.2.9zM96.4 80.6l-3.7-.9v3.8l3.7.9v-3.8zm277.8 67.3l-71.5-17.8-4.2-6.4 12.5-8.9v-3.9L296.7 121l-9-13.5v3.9l15 22.6 71.5 17.9 34-24.3v-3.9l-34 24.2zm-309.6-37l-15 .5-15.7-4v3.9l15.7 4 15-.5 13.3 3.3v3.7l-.1.1v3.9l4.1-2.9v-3.8l4 1L160.4 67v-3.9l-14.7 10.5-37.5-9.4v3.9l33.4 8.3-37.8 27-54.1-13.6v3.8l50.1 12.6-14 10-21.2-5.3zM73 87l-1.5-1.7v3.9l1.5 1.7V87zm-29.1 13.3l-11.2-2.8v3.9l11.1 2.8.1-3.9zm233.7 21.3v3.7l5.1 1.3 3.7-2.6v-3.9l-3.9 2.7-4.9-1.2zm0 0" class="wall"/>
    <path id="unit-3001" fill="#fff" stroke="#ddd" stroke-width=".5" d="M242.8 6.1l34 8.5-66.6 47.5-19.2 1.7-35.3-8.8 12.6-9-10.2-2.5 4.1-2.9 7.6 1.9 6.4-4.6 12.5 3.1 44.2-31.6 3.8 1 6.1-4.3zm0 0" class="unit"/>
    <path id="unit-3002" fill="#fff" stroke="#ddd" stroke-width=".5" d="M228.3 66.5l-17.7-4.4 69.9-49.9 26.9 6.7-64.6 46-14.5 1.6zm0 0" class="unit"/>
    <path id="unit-3003" fill="#fff" stroke="#ddd" stroke-width=".5" d="M164 73.1l9.6-6.9 15.6 3.9-9.6 6.8-15.6-3.8zm0 0" class="unit"/>
    <path id="unit-3004" fill="#fff" stroke="#ddd" stroke-width=".5" d="M259.4 75.8l-5-7.9 28-20 31.5 7.9L275.7 83l-2.4-3.8-13.9-3.4zm0 0" class="unit"/>
    <path id="unit-3005" fill="#fff" stroke="#ddd" stroke-width=".5" d="M275.8 83.3l46.8-33.4 23 5.8-55.5 39.6-7.9-2-6.4-10zm0 0" class="unit"/>
    <path id="unit-3006" fill="#fff" stroke="#ddd" stroke-width=".5" d="M355.4 58.1l-9.5-2.3-55.5 39.6 4.2 7 60.8-44.3zm0 0" class="unit"/>
    <path id="unit-3007" fill="#fff" stroke="#ddd" stroke-width=".5" d="M290.3 106l20.4 5.1-13.8 9.9-8.9-13.3 2.3-1.7zm0 0" class="unit"/>
    <path id="unit-3008" fill="#fff" stroke="#ddd" stroke-width=".5" d="M354.5 110.5l53.4 13.3-33.8 24.1-71.3-17.8-5.9-8.9 15.8-11.2 15.5 3.8 8.4-6 16 4 1.9-1.3zm0 0" class="unit"/>
    <path id="unit-3009" fill="#fff" stroke="#ddd" stroke-width=".5" d="M338.8 153l5.7-4.1 20.9 5.2-5.7 4.1-20.9-5.2zm0 0" class="unit"/>
    <path id="unit-3010" fill="#fff" stroke="#ddd" stroke-width=".5" d="M359.5 158.3l-5.4 3.8-21-5.2 5.4-3.8 21 5.2zm0 0" class="unit"/>
    <path id="unit-3011" fill="#fff" stroke="#ddd" stroke-width=".5" d="M320.7 165.9l12.3-8.8 21 5.3-11.5 8.2-16.4-4.1-4.7.4-.7-1zm0 0" class="unit"/>
    <path id="unit-3012" fill="#fff" stroke="#ddd" stroke-width=".5" d="M174.4 84.5l16.4-1.7 1.2 2.5-22.2 15.8-13.8-3.4 18.4-13.2zm0 0" class="unit"/>
    <path id="unit-3013" fill="#fff" stroke="#ddd" stroke-width=".5" d="M170.2 101.2l22.3-15.9-1.3-2.6 5-3.5 18.3-1.9 4.8 1.2-36.4 25.9-12.7-3.2zm0 0" class="unit"/>
    <path id="unit-3014" fill="#fff" stroke="#ddd" stroke-width=".5" d="M219.6 78.6l13.3 3.3-36.4 25.9-13.2-3.3 36.3-25.9zm0 0" class="unit"/>
    <path id="unit-3015" fill="#fff" stroke="#ddd" stroke-width=".5" d="M245 85l-38.2 27.3-11.6-3.1 38-27.1L245 85zm0 0" class="unit"/>
    <path id="unit-3016" fill="#fff" stroke="#ddd" stroke-width=".5" d="M247.1 85.4l7.3 11.3-24.4 17.4-2.5-.6-4.3 3.1-16-4.3L245.4 85l1.7.4zm0 0" class="unit"/>
    <path id="unit-3017" fill="#fff" stroke="#ddd" stroke-width=".5" d="M260.2 105.9l-20.9 15-15.8-4.2 4.1-2.9 2.5.6L254.5 97l5.7 8.9zm0 0" class="unit"/>
    <path id="unit-3018" fill="#fff" stroke="#ddd" stroke-width=".5" d="M262.8 106.7l4.2 6.4c-8 5.8-16.1 11.5-24.1 17.2l2.4-7 .9-.7-6.5-1.7 20.8-14.9 2.3.7zm0 0" class="unit"/>
    <path id="unit-3019" fill="#fff" stroke="#ddd" stroke-width=".5" d="M258.2 148.1l6.2 10.1-17.5 12.5-16.7-4.1.8-.6-3.4-.9 13.5-30.5 27.2-19.4 11.3 17.7-21.4 15.2zm0 0" class="unit"/>
    <path id="unit-3020" fill="#fff" stroke="#ddd" stroke-width=".5" d="M263.4 174.7l29.3-20.9 6.8 10.4-8.7 6.2.6 1.5-28 2.8zm0 0" class="unit"/>
    <path id="unit-3021" fill="#fff" stroke="#ddd" stroke-width=".5" d="M279.8 133.1l12.8 20.3-29.7 21.2-15.5-3.9 17.6-12.6-6.3-10 21.1-15zm0 0" class="unit"/>
    <path id="unit-3022" fill="#fff" stroke="#ddd" stroke-width=".5" d="M230.1 166.7l32.8 8.2 59.2-6.1 2.4 3.8 8.4 2.1-51.4 36.7-6.2.6-23.7-5.9-3.7 2.6-17.3-4.3-4.1 2.9-11.9-2.9 4.6-9.8-7.9-.7 5.9-13.5 12.4 3.1 9.4-6.7-9.7-2.4-2 1.4-4.8-1.2 2.4-4.1 5.2-3.8zm0 0" class="unit"/>
    <path id="unit-3023" fill="#fff" stroke="#ddd" stroke-width=".5" d="M140.9 48.8l-10 7.1 29.2 7.3-14.5 10.3-37-9.3 20.3-14.5 1 .3 4.5-2.9 6.5 1.7zm0 0" class="unit"/>
    <path id="unit-3024" fill="#fff" stroke="#ddd" stroke-width=".5" d="M98.8 71.2l9.6-6.8 37 9.2-41.6 29.7L50 89.9l1.2-.9 14-2.5 2 1.8 6.1-1.2-1.4-1.7 9.7-1.8 5.9 1.5 3.6-2.5 2.3.6 3.4-2.4-3.8-.9 1.2-5.2 2-1.4 2.4.6 2.7-2-2.5-.7zm0 0" class="unit"/>
    <path id="unit-3025" fill="#fff" stroke="#ddd" stroke-width=".5" d="M45.1 88.9l58.5 14.6-17.8 12.7-21-5.2-15.1.4-15.5-3.8 10.1-7.2L33 97.6l12.1-8.7zm0 0" class="unit"/>
    <path id="unit-3026" fill="#fff" stroke="#ddd" stroke-width=".5" d="M166.9 104l-5.5 3.9 2.9.7-6.4 4.5-3.9-1-2 1.4 4 1-4.7 3.4-20.3-5 11.3-8.1 17.8-1 1.5-1.1 5.3 1.3zm0 0" class="unit"/>
    <path id="unit-3027" fill="#fff" stroke="#ddd" stroke-width=".5" d="M168.2 131.5l-19.5-1 3.8-2.6-8.9-2.2-18.2 13-11-2.8 1.2-.9-5.6-1.4 3.5-2.5-36.2-9 4.1-2.9-3.5-.9c-2.2 1.5-4.4 3.1-6.6 4.6l-41.4-10.3-2.5 1.8-16.3-4.1-3.9 2.8L2 160.6l18.5 8.4L72 179.4l15.5-9.4 70.7 3.4 10-41.9zm0 0" class="unit"/>
    <path id="unit-3028" fill="#fff" stroke="#ddd" stroke-width=".5" d="M147.1 118.8l2.2.6-5.9 4.2-2.5-.6h-.1l-1.8 1.4 2.5.6-4.1 2.9-2.6-.6-1.8 1.3 2.8.7-5.7 4-16.1-4-1.8 1.2-4.2-1.1 23-16.4 18 4.5-1.9 1.3zm0 0" class="unit"/>
    <path id="unit-3029" fill="#fff" stroke="#ddd" stroke-width=".5" d="M168.7 131.3l-19.3-1 3.7-2.6-9.4-2.4 28.2-20.1 57 15.5 10.8 7-32.8 75-11.6 2.9-121.8-24.9-1.1-1.2 15.2-9.3 70.8 3.4 10.3-42.3zm0 0" class="unit"/>
    <path id="unit-3030" fill="#fff" stroke="#ddd" stroke-width=".5" d="M355.6 58.2L295 102.6l8 2 61.9-44.1-9.3-2.3zm0 0" class="unit"/>
    <path id="unit-3031" fill="#fff" stroke="#ddd" stroke-width=".5" d="M286.4 120.1l-3.9 2.7-4.9-1.2 3.9-2.8 4.9 1.3zm0 0" class="unit"/>
  </g>
  <g transform="translate(0,272)">
    <path d="M491.5,164.8 L480.3,162 L484,159.3 C484.3,159.1 484.6,158.7 484.6,158.2 L484.6,154.2 C484.6,153.6 484.2,153 483.6,152.9 L429.2,139.3 C428.8,139.2 428.4,139.3 428.1,139.5 L423.7,142.6 L414,140.2 L414,136.8 C414,136.2 413.6,135.6 413,135.5 L405.4,133.6 L449.9,105.1 L452,105.6 C452.4,105.7 452.8,105.6 453.1,105.4 L467.6,95.1 C468,94.9 468.2,94.4 468.2,94 L468.2,90 C468.2,89.4 467.8,88.9 467.2,88.7 L418.4,76.5 C418,76.4 417.6,76.5 417.3,76.7 L410.7,81.4 L385.1,75 C385.3,74.8 385.4,74.5 385.4,74.2 L385.4,70.2 C385.4,69.6 385,69.1 384.4,68.9 L363.1,63.6 L363.9,63 L369.3,63.8 L398.6,71.1 L398.9,71.1 C399.2,71.1 399.4,71 399.6,70.9 L436.6,44.5 C436.9,44.3 437.1,43.9 437.1,43.5 L437.1,39.4 C437.1,38.8 436.7,38.3 436.1,38.2 L399.4,29.2 L413.9,18.9 C414.2,18.7 414.4,18.3 414.4,17.9 L414.4,13.9 C414.4,13.3 414,12.8 413.5,12.7 L366.7,1 C366.3,0.9 366,1 365.7,1.2 L335.5,22.7 C335.2,22.9 335,23.3 335,23.8 L335.1,27.6 C335.1,28.2 335.5,28.6 336.1,28.8 L341.1,30 L337.7,32.5 L337.7,30.9 L337.7,30.7 C337.7,30.6 337.7,30.5 337.6,30.4 L337.6,30.4 C337.5,30.2 337.5,30.1 337.4,29.9 L337.4,29.9 L337.1,29.6 C337,29.5 336.9,29.5 336.7,29.4 C336.6,29.4 336.6,29.4 336.5,29.3 L324.4,26.3 C323.9,26.2 323.3,26.3 322.9,26.7 L313.6,36.6 C313.3,36.9 313.2,37.3 313.2,37.7 L313.2,38.5 L312.4,39.1 C312.1,39.3 311.8,39.7 311.8,40.1 L306.8,38.8 C306.4,38.7 305.9,38.8 305.6,39 L294.4,47 C294,47.3 293.8,47.7 293.8,48.2 L293.8,51.9 C293.8,52.6 294.3,53.2 294.9,53.4 L307.3,56.5 L307.7,56.5 C308,56.5 308.3,56.4 308.6,56.2 L314.5,52 L351.3,61.2 L347.7,63.9 L341.2,68.6 C341,68.4 340.8,68.2 340.4,68.1 L315.9,62 C315.5,61.9 315.1,62 314.8,62.2 L308.9,66.4 L287.7,61.1 C287.3,61 286.9,61.1 286.6,61.3 L278.9,66.8 L266.5,63.7 C266.1,63.6 265.7,63.7 265.4,63.9 L259.2,68.3 L251.8,66.5 C251.4,66.4 251,66.5 250.7,66.7 L246.3,69.9 C246,70.1 245.7,70.5 245.7,71 L245.7,75 C245.7,75.6 246.1,76.2 246.7,76.3 L250.3,77.2 L246.2,80.1 L244.7,79.7 C244.3,79.6 243.9,79.7 243.6,79.9 L238.8,83.4 C238.5,83.6 238.3,84 238.2,84.5 L238.2,87.3 L233.9,86.2 L233.9,83.2 C233.9,82.6 233.5,82.1 232.9,81.9 L228.2,80.7 C227.8,80.6 227.4,80.7 227.1,80.9 L223.5,83.5 L219.7,82.5 C219.3,82.4 218.9,82.5 218.6,82.7 L210.8,88.2 L208.5,87.6 C208.1,87.5 207.7,87.6 207.4,87.8 L200.8,92.5 L197.3,91.6 C196.9,91.5 196.5,91.6 196.2,91.8 L183.6,100.8 C183.2,101 183,101.5 183,101.9 L183,104.4 L178.6,107.5 C178.3,107.7 178,108.1 178,108.6 L178,110.1 L177.8,110.1 C177.4,110 177,110.1 176.7,110.3 L173.5,112.6 L168.1,111.2 C167.9,111.2 167.7,111.1 167.5,111.2 L157.2,113.2 C156.6,113.3 156.1,113.9 156.1,114.5 L156.1,115.4 L153.3,115.9 L151.8,114.5 C151.5,114.2 151.1,114.1 150.7,114.2 L135.9,116.8 C135.7,116.8 135.5,116.9 135.4,117 L134.4,117.7 L130.1,116.7 C129.7,116.6 129.3,116.7 129,116.9 L116.3,126 C116,126.2 115.7,126.6 115.7,127.1 L115.7,131.1 C115.7,131.7 116.1,132.3 116.7,132.4 L121.4,133.6 L117.5,136.4 C117.1,136.6 116.9,137.1 116.9,137.5 L116.9,141.5 L116.9,141.9 L114.4,141.3 C114,141.2 113.6,141.3 113.3,141.5 L111.2,143 L94.8,138.9 C94.4,138.8 94,138.9 93.7,139.1 L89.5,142.1 C89.2,142.3 89,142.7 89,143 L83.6,192.4 L83.6,192.5 L83.6,196.5 C83.6,197 83.9,197.5 84.4,197.7 L103.7,206.5 C103.8,206.5 103.9,206.6 104,206.6 L128.7,211.6 C128.9,211.7 129,211.8 129.2,211.8 L157.3,217.4 L158.3,218.4 C158.5,218.6 158.7,218.7 159,218.8 L285.6,245 L286.2,245 L298.5,242 C298.9,241.9 299.2,241.6 299.4,241.2 L304.9,228.7 L311.5,230.3 L308.1,230.1 C307.5,230.1 307,230.4 306.8,230.9 L303.5,239.2 C303.4,239.4 303.4,239.5 303.4,239.7 L303.4,243.7 C303.4,244.3 303.8,244.9 304.4,245 L316.5,248 C316.9,248.1 317.3,248 317.6,247.8 L321.9,244.7 L339.2,249 L339.5,249 C339.8,249 340.1,248.9 340.3,248.7 L345,245.2 L354.6,247.6 C354.8,247.6 354.9,247.7 355.1,247.6 L381.5,244.8 C381.7,244.8 381.9,244.7 382.1,244.6 L384.6,242.8 L385.7,243.1 C386.1,243.2 386.5,243.1 386.8,242.9 L401.7,232.2 C402,232 402.3,231.6 402.3,231.1 L402.3,227.1 C402.3,226.5 401.9,225.9 401.3,225.8 L396.3,224.6 L396.9,224.2 L400.7,223.7 L401.2,223.7 L409.1,222.5 C409.3,222.5 409.5,222.4 409.7,222.3 L416.8,217.2 L419,218.8 C419.1,218.9 419.2,218.9 419.3,219 L419.4,219 C419.8,219.1 420.2,219.1 420.6,218.8 L434.5,208.9 L437,209.5 C437.4,209.6 437.8,209.5 438.1,209.3 L455.1,197.2 C455.4,197 455.6,196.6 455.7,196.2 L455.7,195.3 L470.5,184.8 L471.6,185.1 C472,185.2 472.4,185.1 472.7,184.9 L492,171.1 C492.3,170.9 492.6,170.5 492.6,170 L492.6,166 C492.5,165.5 492.1,165 491.5,164.8 L491.5,164.8 L491.5,164.8 Z M491.5,164.8" class="outline" fill="#f68b1f" stroke-width=".5"/>
    <path d="M30.6,112.5 C30,112.5 29,112.5 28.4,112.7 C28,112.8 27.8,113.1 27.8,113.5 L27.8,123 C27.8,123.4 27.9,123.7 28.5,123.8 C29,123.9 29.7,124 30.7,124 C34.2,124 35.8,121.5 35.8,118.3 C35.9,114.9 34.3,112.5 30.6,112.5 L30.6,112.5 L30.6,112.5 Z M30.8,122.7 C30.1,122.7 29.6,122.7 29.1,122.6 L29.1,113.7 C29.6,113.6 30.2,113.6 30.7,113.6 C33.6,113.6 34.7,115.5 34.7,118 C34.6,120.9 33.5,122.7 30.8,122.7 L30.8,122.7 L30.8,122.7 Z M15,112.5 C14.6,112.5 14.4,112.8 14.4,113.2 L14.4,123.2 C14.4,123.6 14.7,123.8 15,123.8 C15.3,123.8 15.6,123.6 15.6,123.2 L15.6,113.2 C15.6,112.8 15.4,112.5 15,112.5 L15,112.5 L15,112.5 Z M20.8,112.5 C20.2,112.5 19.2,112.5 18.6,112.7 C18.2,112.8 18,113.1 18,113.5 L18,123 C18,123.4 18.1,123.7 18.7,123.8 C19.2,123.9 19.9,124 20.9,124 C24.4,124 26,121.5 26,118.3 C26,114.9 24.5,112.5 20.8,112.5 L20.8,112.5 L20.8,112.5 Z M21,122.7 C20.3,122.7 19.8,122.7 19.3,122.6 L19.3,113.7 C19.8,113.6 20.4,113.6 20.9,113.6 C23.8,113.6 24.9,115.5 24.9,118 C24.8,120.9 23.6,122.7 21,122.7 L21,122.7 L21,122.7 Z M11.5,113.8 C11.4,113 11.1,112.5 10.4,112.5 C9.8,112.5 9.5,112.9 9.3,113.3 C8.5,115.5 7.6,118.3 6.6,121 L6.6,121 C5.6,118.5 4.8,115.9 3.8,113.5 C3.6,112.9 3.3,112.5 2.7,112.5 C2,112.5 1.7,112.9 1.6,113.8 C1.2,116.7 1.1,119.9 1.1,123.1 C1.1,123.5 1.3,123.7 1.7,123.7 C2.1,123.7 2.3,123.5 2.3,123 C2.3,119.9 2.5,116.9 2.8,114 L2.8,114 C3.8,116.6 4.7,119.3 5.8,121.9 C5.9,122.2 6.2,122.5 6.6,122.5 C7,122.5 7.3,122.3 7.4,121.9 C8.4,119.4 9.3,116.7 10.2,114 L10.2,114 C10.6,117 10.8,120 10.9,123 C10.9,123.4 11.1,123.7 11.5,123.7 C11.9,123.7 12.1,123.4 12.1,123 L12.1,122.5 C12.1,119.7 11.9,116.6 11.5,113.8 L11.5,113.8 L11.5,113.8 Z M86.1,122.6 L81.8,122.6 L81.8,113.2 C81.8,112.8 81.5,112.5 81.2,112.5 C80.8,112.5 80.6,112.8 80.6,113.2 L80.6,122.8 C80.6,123.4 81,123.8 81.7,123.8 L86.2,123.8 C86.6,123.8 86.9,123.5 86.9,123.2 C86.8,122.9 86.5,122.6 86.1,122.6 L86.1,122.6 L86.1,122.6 Z M93.7,122.6 L89.4,122.6 L89.4,113.2 C89.4,112.8 89.1,112.5 88.8,112.5 C88.4,112.5 88.2,112.8 88.2,113.2 L88.2,122.8 C88.2,123.4 88.6,123.8 89.3,123.8 L93.8,123.8 C94.2,123.8 94.5,123.5 94.5,123.2 C94.4,122.9 94.2,122.6 93.7,122.6 L93.7,122.6 L93.7,122.6 Z M43.2,122.6 L38.9,122.6 L38.9,113.2 C38.9,112.8 38.6,112.5 38.3,112.5 C37.9,112.5 37.7,112.8 37.7,113.2 L37.7,122.8 C37.7,123.4 38.1,123.8 38.8,123.8 L43.3,123.8 C43.7,123.8 44,123.5 44,123.2 C43.9,122.9 43.7,122.6 43.2,122.6 L43.2,122.6 L43.2,122.6 Z M76,114 C75.4,112.8 74.9,112.4 74.3,112.4 C73.7,112.4 73.2,112.8 72.6,114 C71.7,115.8 71,118.1 69.8,122.7 C69.7,122.9 69.7,123.1 69.7,123.2 C69.7,123.6 70,123.8 70.3,123.8 C70.6,123.8 70.8,123.6 70.9,123.3 C71.2,121.9 71.5,120.7 71.8,119.6 L76.7,119.6 C77,120.7 77.3,121.9 77.6,123.3 C77.7,123.6 77.9,123.8 78.2,123.8 C78.6,123.8 78.8,123.6 78.8,123.2 C78.8,123.1 78.8,122.9 78.7,122.7 C77.6,118.1 76.9,115.8 76,114 L76,114 L76,114 Z M72.2,118.5 C72.9,116.1 73.6,114.5 74.1,113.7 C74.1,113.6 74.2,113.6 74.3,113.6 C74.4,113.6 74.5,113.7 74.5,113.7 C75,114.5 75.7,116 76.4,118.5 L72.2,118.5 L72.2,118.5 Z M51.3,122.6 L46.5,122.6 L46.5,118.7 L50.4,118.7 C50.8,118.7 51,118.4 51,118.1 C51,117.8 50.8,117.5 50.4,117.5 L46.5,117.5 L46.5,113.8 L51.1,113.8 C51.5,113.8 51.7,113.5 51.7,113.2 C51.7,112.9 51.5,112.6 51.1,112.6 L46.3,112.6 C45.6,112.6 45.2,113 45.2,113.6 L45.2,122.9 C45.2,123.5 45.6,123.9 46.3,123.9 L51.2,123.9 C51.6,123.9 51.8,123.6 51.8,123.3 C51.9,122.8 51.7,122.6 51.3,122.6 L51.3,122.6 L51.3,122.6 Z M67.5,113.8 C67.4,113 67.1,112.5 66.4,112.5 C65.8,112.5 65.5,112.9 65.3,113.3 C64.5,115.5 63.6,118.3 62.6,121 L62.6,121 C61.6,118.5 60.8,115.9 59.8,113.5 C59.6,112.9 59.3,112.5 58.7,112.5 C58,112.5 57.7,112.9 57.6,113.8 C57.2,116.7 57.1,119.9 57.1,123.1 C57.1,123.5 57.3,123.7 57.7,123.7 C58.1,123.7 58.3,123.5 58.3,123 C58.3,119.9 58.5,116.9 58.8,114 L58.8,114 C59.8,116.6 60.7,119.3 61.8,121.9 C61.9,122.2 62.2,122.5 62.6,122.5 C63,122.5 63.3,122.3 63.4,121.9 C64.4,119.4 65.3,116.7 66.2,114 L66.2,114 C66.6,117 66.8,120 66.9,123 C66.9,123.4 67.1,123.7 67.5,123.7 C67.9,123.7 68.1,123.4 68.1,123 L68.1,122.5 C68.1,119.7 67.9,116.6 67.5,113.8 L67.5,113.8 L67.5,113.8 Z M67.5,113.8" class="Shape" fill="#f68b1f" stroke-width=".5"/>
    <path d="M397.5,162.7 L384.9,142.7 L395.9,134.8 L404.1,131.1 L404.1,130.3 L373.4,123.2 L372.2,121.1 L309.3,105.4 L314.8,101.5 L314.8,100.7 L313.7,99.2 L357.5,67.9 L357.5,67.1 L356.4,66.9 L363.6,61.8 L369.6,62.7 L399,70 L435.9,43.6 L435.9,39.6 L396.6,30 L413.4,18.1 L413.3,14.1 L366.4,2.2 L336.2,23.7 L336.3,27.5 L343.8,29.3 L336.1,34.8 L328.6,31.9 L304.8,47.8 L314.3,50.4 L313.9,50.7 L324.7,53.3 L354.4,60.5 L348.4,64.8 L348.3,64.8 L296.1,102.1 L278.7,97.8 L272.8,98.5 L257.5,94.7 L256,92.1 L252.1,91.1 L163.7,154.1 L163.7,154.9 L194.6,162.7 L230.7,136.9 L249.3,135.9 L250.9,134.7 L252.8,135.2 L259.1,130.7 L259.2,129.9 L257,129.3 L255.8,130.2 L253.9,129.7 L252,131.1 L245.7,129.5 L271.4,111.1 L279.5,110.3 L326.6,122 L327.9,124.1 L350.5,129.7 L391.7,194.5 L341.9,230 L341.9,230.8 L347.2,239.6 L343,242.7 L342.9,243.5 L354.9,246.4 L381.3,243.6 L385.9,240.3 L385.9,239.5 L375.4,236.9 L370.7,229.3 L409.7,201.5 L414.7,200.9 L431.7,188.9 L454.2,194.6 L471.9,182 L471.9,181.2 L397.5,162.7 L397.5,162.7 Z M397.5,162.7" class="walkway" fill="#808285" stroke-width=".5"/>
    <path d="M388.8,154.5 L384.9,157.2 L380,156 L380,159.7 L385.1,161 L388.8,158.4 L388.8,154.5 L388.8,154.5 Z M388.8,164.5 L384.9,167.2 L380,166 L380,169.7 L385.1,171 L388.8,168.4 L388.8,164.5 L388.8,164.5 Z M313.3,97.1 L313.3,101.1 L314.8,103.1 L314.8,99.1 L313.3,97.1 L313.3,97.1 Z M363.7,48.6 L363.7,52.6 L366.3,53.2 L366.3,54.5 L366.8,54.6 L366.8,56.5 L370.9,57.5 L369.6,58.4 L369.6,62.7 L399,70 L436,43.6 L436,39.5 L421.7,49.7 L388.2,41 L363.7,48.6 L363.7,48.6 Z M377.9,74.4 L377.9,78.4 L378.3,78.1 L378.3,78.3 L384.5,73.9 L384.5,69.9 L384.1,70.2 L384.1,70 L377.9,74.4 L377.9,74.4 Z M347.1,156.1 L337.2,153.7 L337.2,157.7 L347,160.1 L355.7,153.8 L364.2,152.9 L364.2,148.9 L355.7,149.8 L347.1,156.1 L347.1,156.1 Z M354.2,31.9 L330.7,48.7 L330.7,52.4 L351.4,57.6 L356.4,54 L359.3,51.9 L359.3,50.6 L377.1,38 L383,39.6 L413.4,18.1 L413.4,14.1 L383.2,35.5 L377.3,34 L336.4,23.7 L336.5,27.5 L354.2,31.9 L354.2,31.9 Z M373.4,121.6 L372.2,119.5 L366.9,118.2 L411,86.7 L411,82.7 L362.8,117.1 L342.2,112 L386.2,80.6 L386.2,76.6 L338,111 L308.5,103.6 L308.5,107.6 L321.3,110.8 L317.9,113.2 L313,112 L313,115.7 L318.1,117 L321.8,114.4 L321.8,111 L372.2,123.6 L373.4,125.7 L404.1,132.8 L449.7,103.6 L452.4,104.3 L466.9,94 L466.9,90 L452.4,100.3 L449.7,99.6 L404.1,128.7 L389.9,125.4 L442.6,87.8 L442.6,83.9 L442.5,83.9 C423.5,97.5 404.6,111 385.6,124.5 L373.4,121.6 L373.4,121.6 Z M483.3,154 L473,161.3 L473,165.3 L483.3,158 L483.3,154 L483.3,154 Z M385.7,186.6 L385.7,182.6 L336.1,170.3 L336.1,167.8 L332.5,166.9 L332.5,170.9 L333.5,171.2 L333.5,173.6 L385.7,186.6 L385.7,186.6 Z M355.5,154.6 L355.5,158.2 L351.8,157.3 L351.8,161.3 L373,166.6 L373,162.6 L370.2,161.9 L370.2,158.3 L355.5,154.6 L355.5,154.6 Z M338,167.1 L379.9,177.6 L379.9,173.6 L338,163.1 L338,167.1 L338,167.1 Z M343.9,152.9 L343.9,149.2 L348.8,145.6 L359.1,145.1 L359.2,145 L359.2,141 L359.1,141.1 L348.8,141.6 L340,147.9 L339,147.6 L354,136.9 L354,132.9 L334.8,146.6 L327.7,144.8 L347.7,130.6 L347.7,126.6 L315.4,149.6 L315.4,153.6 L323.5,147.8 L343.9,152.9 L343.9,152.9 Z M296.7,146.2 L312.4,138.5 L329.6,126.2 L329.6,122.2 L312.4,134.5 L296.7,142.2 L294.3,141.6 L294.3,138.3 L292.6,137.8 L316,121 L316,117 L288.6,136.6 L275.9,133 L298.8,116.7 L298.8,112.7 L271.9,131.9 L257,127.7 L255.8,128.6 L254,128.1 L252,129.5 L244.9,127.7 L244.9,131.7 L252,133.5 L253.9,132.1 L255.8,132.5 L257,131.7 L290.9,141.2 L290.9,144.7 L296.7,146.2 L296.7,146.2 Z M318.7,47.3 L318.7,44 L323.6,43.8 L336.1,34.7 L336.1,30.7 L323.4,39.8 L316.5,38.1 L314.8,37.7 L314.9,40.3 L313.4,40.4 L313.5,44.3 L318.1,44.1 L307.7,51.3 L295.5,48.3 L295.5,52 L307.9,55.1 L318.7,47.3 L318.7,47.3 Z M321.5,239.1 L316.7,242.5 L304.6,239.5 L304.6,243.5 L316.7,246.5 L321.5,243.1 L339.4,247.6 L347.6,241.7 L347.6,237.7 L339.4,243.6 L321.5,239.1 L321.5,239.1 Z M311.9,234.4 L311.9,238.4 L345.5,238.2 L345.5,234.2 L312.8,234.4 L312.8,231.6 L311.9,234.4 L311.9,234.4 Z M257.5,73.5 L246.9,70.8 L246.9,74.8 L257.5,77.5 L257.5,73.5 L257.5,73.5 Z M377.6,213.8 L382.7,215.1 L386.4,212.5 L386.4,208.6 L382.5,211.3 L377.6,210.1 L377.6,213.8 L377.6,213.8 Z M471.9,179.6 L442.4,172.3 L467.8,154.2 L467.8,150.2 L438.2,171.3 L401.7,162.2 L418.6,150.1 L423.5,151.3 L432,145.2 L432,141.2 L423.5,147.2 L418.7,146 L397.6,161 L393.4,154.3 L412.7,140.5 L412.7,136.5 L391.6,151.5 L384.5,140.3 L384.5,144.3 L397.5,164.9 L471.8,183.5 L491.1,169.7 L491.1,165.7 L471.9,179.6 L471.9,179.6 Z M423.9,192 L423.9,196 L442.4,200.6 L437.5,204.1 L414.9,198.5 L414.9,202.5 L430.3,206.3 L428.6,207.5 L405.9,201.9 L405.9,205.9 L424.4,210.5 L423.7,211 L401,205.3 L401,209.3 L415,212.8 L412.8,214.4 L394.7,209.9 L394.7,213.9 L408.1,217.2 L401.5,218.2 L401.5,218.1 L396.9,218.8 L385.9,216.1 L385.9,220.1 L392.5,221.7 L389.2,224.1 L389.2,228.1 L396.6,222.8 L401.2,222.1 L401.2,222.2 L409.1,221 L417,215.4 L420,217.5 L420.1,217.5 L434.5,207.2 L437.6,208 L454.6,195.9 L454.6,191.9 L446.7,197.5 L423.9,192 L423.9,192 Z M375.5,235.3 L370.4,227.2 L370.4,231.2 L375.5,239.3 L386,241.9 L400.9,231.2 L400.9,227.2 L386,237.9 L375.5,235.3 L375.5,235.3 Z M235.9,213.7 L235.9,209.7 L231.7,213.4 L231.7,217.4 L235.9,213.7 L235.9,213.7 Z M150.1,141.1 L134.5,141.6 L118.1,137.5 L118.1,141.5 L134.5,145.6 L150.1,145.1 L164,148.6 L164,152.5 L163.9,152.6 L163.9,156.6 L168.2,153.6 L168.2,149.6 L172.3,150.6 L249.8,95.3 L249.8,93 L256.3,94.5 L257.8,97.1 L273.1,100.9 L279,100.2 L296.4,104.5 L340.3,73.2 L340.3,69.2 L296.4,100.5 L284.9,97.7 L324.5,69.4 L324.5,65.4 L280.6,96.7 L278.9,96.3 L272.9,97 L257.7,93.2 L256.2,90.6 L251.1,89.4 L251.1,88 L247,86.9 L246.2,87.5 L245.9,87.5 L245.9,86 L239.7,84.5 L239.7,88.5 L244.4,89.7 L244.4,91 L246.2,91.4 L247,90.8 L249.6,91.5 L221.9,111.3 L184.5,102 L184.5,106 L217.7,114.3 L206.6,122.2 L173.9,114.1 L173.9,118.1 L202.4,125.2 L191.1,133.3 L134.8,119.2 L134.8,123.2 L186.9,136.3 L172.3,146.6 L150.1,141.1 L150.1,141.1 Z M158.8,116.2 L157.3,114.4 L157.3,118.4 L158.8,120.2 L158.8,116.2 L158.8,116.2 Z M183.1,109.6 L179.3,108.6 L179.3,112.6 L183.1,113.6 L183.1,109.6 L183.1,109.6 Z M232.6,83.1 L230.3,84.7 L230.3,88.7 L232.6,87.1 L232.6,83.1 L232.6,83.1 Z M202.1,166.8 L202.1,170.8 L203.3,169.9 L203.3,165.9 L202.1,166.8 L202.1,166.8 Z M128.6,130 L117,127.1 L117,131.1 L128.6,134 L128.6,130 L128.6,130 Z M341.9,232.4 L392.1,196.6 L392.1,192.6 L388.5,195.2 L327,179.8 L327,183.8 L384.4,198.1 L374.9,204.8 L321.9,191.6 L321.9,195.6 L370.8,207.8 L366,211.2 L323,200.5 L323,198 L319.4,197.1 L319.4,201.1 L320.4,201.4 L320.4,203.8 L361.8,214.1 L358.9,216.1 L318.9,206.1 L316.6,202.5 L316.6,206.5 L318.6,209.7 L317.7,209.5 L317.7,213.5 L327.4,215.9 L327.4,212.3 L354.8,219.1 L349.6,222.8 L321.7,215.9 L321.7,219.9 L345.4,225.8 L342.2,228.2 L323.9,227.6 L305.9,223.1 L332.5,162.2 L332.5,158.2 L298.4,236.2 L286.1,239.2 L228,227.3 L238.1,218.4 L238.1,214.4 L224.3,226.6 L159.4,213.3 L158.2,212 L135.4,207.5 L147.9,201.2 L174.1,206.3 L254.8,210.2 L254.8,206.2 L248.9,205.9 L258.2,166.1 L258.3,166.1 L258.3,162.1 L242,161.3 L242,158.4 L234.5,156.5 L238.5,153.6 L238.5,151.7 L240.5,152.2 L245.6,148.6 L245.6,147 L247.3,147.4 L254.1,142.6 L254.1,139.7 L256.8,137.7 L256.8,133.7 L251.1,137.7 L251.1,140.6 L247.3,143.3 L243.3,142.3 L241.4,143.6 L241.4,147.6 L240.4,148.3 L219,142.9 L219,146.9 L236.2,151.2 L232.1,154.1 L229.3,153.4 L229.3,153.6 L227.7,154.8 L227.7,157.3 L225.8,158.6 L223.1,157.9 L221.4,159.1 L202.8,154.4 L202.8,158.4 L220,163 L218.1,164.4 L201.4,160.2 L199.6,161.5 L194.8,160.3 L194.8,164.3 L197.7,165 L197.7,168.5 L201.3,165.9 L201.3,164.2 L218,168.4 L224.1,164 L224.1,162.4 L225.6,162.8 L230.1,159.6 L230.1,157.9 L231.9,158.3 L231.9,160.1 L238,161.6 L238,165.3 L257.1,166.2 L247.7,206 L173.9,202.4 L147.7,197.3 L129.7,206.4 L104.2,201.2 L84.8,192.4 L84.8,196.4 L104.1,205.2 L129.4,210.3 L129.4,210.4 L157.9,216 L159.1,217.3 L285.8,243.2 L298.1,240.2 L304,226.7 L323.6,231.6 L341.9,232.4 L341.9,232.4 Z M370.3,137 L370.3,140.8 L375.4,142.1 L379.1,139.5 L379.1,135.5 L374.2,134.2 L370.3,137 L370.3,137 Z M370.3,137" class="wall" fill="#989898" stroke-width=".5"/>
    <path class="unit" fill="#fff" stroke="#ddd" stroke-width=".5" d="M371.5,37.7 L366.4,41.4 L347.7,36.6 L352.9,32.9 L371.5,37.7 L371.5,37.7 Z M371.5,37.7" id="unit-2001"/>
    <path class="unit" fill="#fff" stroke="#ddd" stroke-width=".5" d="M342.1,40.5 L360.8,45.3 L357.5,47.7 L338.5,43.1 L342.1,40.5 L342.1,40.5 Z M342.1,40.5" id="unit-2002"/>
    <path class="unit" fill="#fff" stroke="#ddd" stroke-width=".5" d="M382.7,35.8 L376.5,34.2 L336.2,23.7 L366.4,2.2 L413.3,14.1 L382.7,35.8 L382.7,35.8 Z M382.7,35.8" id="unit-2003"/>
    <path class="unit" fill="#fff" stroke="#ddd" stroke-width=".5" d="M338.1,43.4 L358.7,48.5 L356.2,50.3 L351.2,53.9 L330.6,48.8 L338.1,43.4 L338.1,43.4 Z M338.1,43.4" id="unit-2004"/>
    <path class="unit" fill="#fff" stroke="#ddd" stroke-width=".5" d="M309.3,68 L315.7,63.4 L324.2,65.5 L280.7,96.6 L279.1,96.2 L273,97 L257.5,93.2 L256,90.6 L249.9,89.2 L251.5,88.1 L247,86.9 L246.2,87.5 L244.8,87.1 L246.4,86 L240.2,84.4 L244.8,81.1 L246.8,81.6 L258.2,73.5 L247.5,71 L251.8,68 L259.7,70 L266.4,65.2 L279.4,68.4 C282.2,66.4 284.9,64.5 287.6,62.5 L309.3,68 L309.3,68 Z M309.3,68" id="unit-2005"/>
    <path class="unit" fill="#fff" stroke="#ddd" stroke-width=".5" d="M280.7,96.7 L324.2,65.6 L339.4,69.4 L296,100.5 L280.7,96.7 L280.7,96.7 Z M280.7,96.7" id="unit-2006"/>
    <path class="unit" fill="#fff" stroke="#ddd" stroke-width=".5" d="M314.8,99.3 L313.3,97.1 L360,64.3 L383.9,70.3 L377.7,74.7 L386,76.8 L338,111 L309,103.7 L315.2,99.3 L314.8,99.3 L314.8,99.3 Z M314.8,99.3" id="unit-2007"/>
    <path class="unit" fill="#fff" stroke="#ddd" stroke-width=".5" d="M386.5,77 L410.8,83.1 L362.9,117.3 L338.5,111.2 L386.5,77 L386.5,77 Z M386.5,77" id="unit-2008"/>
    <path class="unit" fill="#fff" stroke="#ddd" stroke-width=".5" d="M442.4,84.2 L385.8,124.6 L373.9,121.8 L372.7,119.7 L363.3,117.4 L418.3,78.2 L442.4,84.2 L442.4,84.2 Z M442.4,84.2" id="unit-2009"/>
    <path class="unit" fill="#fff" stroke="#ddd" stroke-width=".5" d="M452.9,86.8 L442.6,84.3 L386,124.6 L395.4,126.7 L452.9,86.8 L452.9,86.8 Z M452.9,86.8" id="unit-2010"/>
    <path class="unit" fill="#fff" stroke="#ddd" stroke-width=".5" d="M368.7,51.1 L366.3,50.5 L367.6,49.6 L363.6,48.6 L377.8,38.5 L391.8,42.1 L374.6,54.3 L366.7,52.4 L368.7,51.1 L368.7,51.1 Z M368.7,51.1" id="unit-2011"/>
    <path class="unit" fill="#fff" stroke="#ddd" stroke-width=".5" d="M412.4,137.2 L391.6,152 L384.8,141.1 L395.9,133.2 L412.4,137.2 L412.4,137.2 Z M412.4,137.2" id="unit-2012"/>
    <path class="unit" fill="#fff" stroke="#ddd" stroke-width=".5" d="M431.6,141.8 L423.3,147.7 L418.5,146.5 L397.6,161.4 L391.8,152.3 L408.1,140.7 L424,144.7 L428.9,141.2 L431.6,141.8 L431.6,141.8 Z M431.6,141.8" id="unit-2013"/>
    <path class="unit" fill="#fff" stroke="#ddd" stroke-width=".5" d="M418.6,146.7 L423.5,147.9 L432,141.8 L467.4,150.6 L438.1,171.5 L397.8,161.5 L418.6,146.7 L418.6,146.7 Z M418.6,146.7" id="unit-2014"/>
    <path class="unit" fill="#fff" stroke="#ddd" stroke-width=".5" d="M482.8,154.5 L472.5,161.9 L490.6,166.4 L471.6,179.9 L438.4,171.6 L467.7,150.7 L482.8,154.5 L482.8,154.5 Z M482.8,154.5" id="unit-2015"/>
    <path class="unit" fill="#fff" stroke="#ddd" stroke-width=".5" d="M232.1,83.5 L230,85.1 L231.3,87.3 L249.1,91.7 L221.4,111.5 L184.4,102.3 L196.8,93.5 L200.9,94.5 L208,89.4 L211,90.1 L219.2,84.2 L223.6,85.3 L227.7,82.4 L232.1,83.5 L232.1,83.5 Z M232.1,83.5" id="unit-2016"/>
    <path class="unit" fill="#fff" stroke="#ddd" stroke-width=".5" d="M187.6,103.1 L221.3,111.5 L206.3,122.2 L174.1,114.2 L177.6,111.7 L179.9,112.3 L183.5,109.8 L179.6,108.8 L187.6,103.1 L187.6,103.1 Z M187.6,103.1" id="unit-2017"/>
    <path class="unit" fill="#fff" stroke="#ddd" stroke-width=".5" d="M271.5,108.9 L279.4,108.1 L298.4,112.9 L271.7,131.9 L256.9,127.7 L255.7,128.6 L253.9,128.1 L251.9,129.5 L245.2,127.8 L271.5,108.9 L271.5,108.9 Z M271.5,108.9" id="unit-2018"/>
    <path class="unit" fill="#fff" stroke="#ddd" stroke-width=".5" d="M150.8,115.9 L152.8,117.7 L159.1,116.5 L157.6,114.7 L167.6,112.8 L206,122.4 L190.8,133.2 L135,119.4 L136.3,118.5 L150.8,115.9 L150.8,115.9 Z M150.8,115.9" id="unit-2019"/>
    <path class="unit" fill="#fff" stroke="#ddd" stroke-width=".5" d="M298.7,112.9 L315.6,117.1 L288.4,136.5 L272.1,131.9 L298.7,112.9 L298.7,112.9 Z M298.7,112.9" id="unit-2020"/>
    <path class="unit" fill="#fff" stroke="#ddd" stroke-width=".5" d="M288.8,136.7 L316,117.3 L326.3,119.9 L327.6,121.9 L329.3,122.3 L312.2,134.5 L296.6,142.1 L291.1,140.7 L294.6,138.3 L288.8,136.7 L288.8,136.7 Z M288.8,136.7" id="unit-2021"/>
    <path class="unit" fill="#fff" stroke="#ddd" stroke-width=".5" d="M350.2,127.6 L353.8,133.2 L334.8,146.8 L323.9,144.1 L347.8,127 L350.2,127.6 L350.2,127.6 Z M350.2,127.6" id="unit-2022"/>
    <path class="unit" fill="#fff" stroke="#ddd" stroke-width=".5" d="M129.9,118.4 L190.6,133.5 L172.1,146.7 L150.3,141.3 L134.6,141.7 L118.5,137.7 L129,130.2 L117.4,127.3 L129.9,118.4 L129.9,118.4 Z M129.9,118.4" id="unit-2023"/>
    <path class="unit" fill="#fff" stroke="#ddd" stroke-width=".5" d="M359.3,141.3 L349,141.8 L340.3,148.1 L335.5,146.9 L354.3,133.5 L359.3,141.3 L359.3,141.3 Z M359.3,141.3" id="unit-2024"/>
    <path class="unit" fill="#fff" stroke="#ddd" stroke-width=".5" d="M219.3,143 L231,134.7 L249.4,133.6 L249.5,133.6 L251.1,132.5 L256.6,133.8 L250.9,137.9 L253.8,138.6 L247.2,143.3 L243.1,142.3 L241.1,143.8 L245.2,144.8 L240.3,148.3 L219.3,143 L219.3,143 Z M219.3,143" id="unit-2025"/>
    <path class="unit" fill="#fff" stroke="#ddd" stroke-width=".5" d="M235.6,210.1 L231.4,213.8 L237.6,215 L224,227 L159.4,213.8 L158.2,212.5 L129.9,207 L147.9,198 L174,203 L209.6,204.7 L235.6,210.1 L235.6,210.1 Z M235.6,210.1" id="unit-2026"/>
    <path class="unit" fill="#fff" stroke="#ddd" stroke-width=".5" d="M247.5,206.1 L174.1,202.5 L147.9,197.4 L129.7,206.5 L104.4,201.4 L85.2,192.7 L90.6,143.4 L94.7,140.5 L111.6,144.7 L114.2,142.9 L157.2,153.6 L164,148.8 L167.7,149.7 L163.4,152.7 L200.9,162.1 L197.3,164.7 L203,166.1 L201.7,167 L213.1,169.9 L232,156.5 L241.4,158.8 L237.5,161.6 L257.7,162.6 L247.5,206.1 L247.5,206.1 Z M247.5,206.1" id="unit-2027"/>
    <path class="unit" fill="#fff" stroke="#ddd" stroke-width=".5" d="M213.3,169.9 L201.4,178.6 L178.7,171.6 L194.7,160.5" id="unit-2028"/>
    <path class="unit" fill="#fff" stroke="#ddd" stroke-width=".5" d="M355.9,150 L347.2,156.1 L337.7,153.7 L344.4,149 L340.5,148 L349.2,141.8 L359.3,141.3 L364.1,149 L355.9,150 L355.9,150 Z M355.9,150" id="unit-2029"/>
    <path class="unit" fill="#fff" stroke="#ddd" stroke-width=".5" d="M365.6,151.6 L369.9,158.3 L355.9,154.8 L359.6,152.2 L365.6,151.6 L365.6,151.6 Z M365.6,151.6" id="unit-2030"/>
    <path class="unit" fill="#fff" stroke="#ddd" stroke-width=".5" d="M203.2,154.7 L219.2,143.3 L237.9,148 L235.9,149.4 L238.2,150 L232,154.3 L229.4,153.6 L227.4,155.1 L230,155.7 L225.8,158.7 L223,158 L221.3,159.2" id="unit-2031"/>
    <path class="unit" fill="#fff" stroke="#ddd" stroke-width=".5" d="M372.9,162.8 L379.6,173.4 L338.4,163.1 L341.5,160.9 L345.9,162 L349.5,159.5 L351.7,160 L354.3,158.2 L372.9,162.8 L372.9,162.8 Z M372.9,162.8" id="unit-2032"/>
    <path class="unit" fill="#fff" stroke="#ddd" stroke-width=".5" d="M352.1,157.5 L372.7,162.6 L370.1,158.5 L355.7,154.9 L352.1,157.5 L352.1,157.5 Z M352.1,157.5" id="unit-2033"/>
    <path class="unit" fill="#fff" stroke="#ddd" stroke-width=".5" d="M222,158.7 L220.9,159.4" id="unit-2034"/>
    <path class="unit" fill="#fff" stroke="#ddd" stroke-width=".5" d="M221,159.5 L220.8,159.6 L223.9,160.4 L218,164.6 L201.3,160.4 L199.5,161.7 L195.1,160.6 L202.8,155.1 L203.1,154.9 L221,159.5 L221,159.5 Z M221,159.5" id="unit-2035"/>
    <path class="unit" fill="#fff" stroke="#ddd" stroke-width=".5" d="M203,154.8 L203.9,154.1" id="unit-2036"/>
    <path class="unit" fill="#fff" stroke="#ddd" stroke-width=".5" d="M385.5,182.5 L334.1,169.7 L336.6,167.8 L333.1,167 L338.2,163.3 L379.8,173.7 L385.5,182.5 L385.5,182.5 Z M385.5,182.5" id="unit-2037"/>
    <path class="unit" fill="#fff" stroke="#ddd" stroke-width=".5" d="M333.9,169.9 L385.7,182.8 L392,192.7 L388.5,195.2 L327.5,179.9 L331,172 L333.9,169.9 L333.9,169.9 Z M333.9,169.9" id="unit-2038"/>
    <path class="unit" fill="#fff" stroke="#ddd" stroke-width=".5" d="M327.2,180.4 L388.1,195.6 L374.7,205.1 L322.1,192 L327.2,180.4 L327.2,180.4 Z M327.2,180.4" id="unit-2039"/>
    <path class="unit" fill="#fff" stroke="#ddd" stroke-width=".5" d="M322.2,192 L374.7,205.1 L365.9,211.4 L320.8,200.2 L323.4,198.3 L319.8,197.4 L322.2,192 L322.2,192 Z M322.2,192" id="unit-2040"/>
    <path class="unit" fill="#fff" stroke="#ddd" stroke-width=".5" d="M232.2,156.3 L261.5,135.4 L293.2,144.1 L312.5,134.8 L329.6,122.6 L347.3,127 L315.1,150 L320.7,151.5 L332.2,158.9 L298.3,236.5 L286,239.5 L224.5,227 L238.1,215 L244.1,216.2 L255,206.6 L248.1,206.2 L258.4,162.6 L238.5,161.5 L242.2,158.8 L232.2,156.3 L232.2,156.3 Z M232.2,156.3" id="unit-2041"/>
    <path class="unit" fill="#fff" stroke="#ddd" stroke-width=".5" d="M320.5,200.2 L365.6,211.4 L358.8,216.3 L318.8,206.3 L316.5,202.7 L320.5,200.2 L320.5,200.2 Z M320.5,200.2" id="unit-2042"/>
    <path class="unit" fill="#fff" stroke="#ddd" stroke-width=".5" d="M321,207.3 L358.2,216.6 L349.1,223.1 L321.7,216.3 L327.3,212.3 L317.6,209.9 L321,207.3 L321,207.3 Z M321,207.3" id="unit-2043"/>
    <path class="unit" fill="#fff" stroke="#ddd" stroke-width=".5" d="M323.5,227.9 L304.1,223.1 L308.4,213.2 L348.8,223.3 L341.5,228.5 L323.5,227.9 L323.5,227.9 Z M323.5,227.9" id="unit-2044"/>
    <path class="unit" fill="#fff" stroke="#ddd" stroke-width=".5" d="M341.6,228.7 L345.1,234.2 L312.1,234.4 L315.2,225.9 L323.6,228 L341.6,228.7 L341.6,228.7 Z M341.6,228.7" id="unit-2045"/>
    <path class="unit" fill="#fff" stroke="#ddd" stroke-width=".5" d="M311.7,234.5 L345.3,234.3 L347.4,237.7 L339.4,243.6 L321.6,239.1 L316.8,242.5 L305.1,239.6 L308.3,231.5 L312.8,231.8 L311.7,234.5 L311.7,234.5 Z M311.7,234.5" id="unit-2046"/>
    <path class="unit" fill="#fff" stroke="#ddd" stroke-width=".5" d="M454.1,192.3 L446.5,197.7 L424.3,192.2 L431.9,186.8 L454.1,192.3 L454.1,192.3 Z M454.1,192.3" id="unit-2047"/>
    <path class="unit" fill="#fff" stroke="#ddd" stroke-width=".5" d="M446.2,197.9 L437.4,204.2 L415.1,198.7 L424,192.4 L446.2,197.9 L446.2,197.9 Z M446.2,197.9" id="unit-2048"/>
    <path class="unit" fill="#fff" stroke="#ddd" stroke-width=".5" d="M414.8,198.8 L434.1,203.6 L428.4,207.6 L406.1,202.1 L410,199.3 L414.8,198.8 L414.8,198.8 Z M414.8,198.8" id="unit-2049"/>
    <path class="unit" fill="#fff" stroke="#ddd" stroke-width=".5" d="M423.2,211.3 L419.9,213.7 L416.7,211.5 L412.5,214.5 L394.7,210.1 L400.8,205.8 L423.2,211.3 L423.2,211.3 Z M423.2,211.3" id="unit-2050"/>
    <path class="unit" fill="#fff" stroke="#ddd" stroke-width=".5" d="M412.4,214.7 L408.8,217.3 L401.3,218.5 L396.8,219.2 L386.2,216.5 L394.7,210.4 L412.4,214.7 L412.4,214.7 Z M412.4,214.7" id="unit-2051"/>
    <path class="unit" fill="#fff" stroke="#ddd" stroke-width=".5" d="M385.9,216.5 L396.2,219.1 L388.7,224.5 L400.6,227.5 L386,237.9 L375.5,235.3 L370.4,227.2 L385.9,216.5 L385.9,216.5 Z M385.9,216.5" id="unit-2052"/>
    <path class="unit" fill="#fff" stroke="#ddd" stroke-width=".5" d="M406,202 L428.5,207.7 L423.5,211.3 L400.9,205.8 L406,202 L406,202 Z M406,202" id="unit-2053"/>
    <path class="unit" fill="#fff" stroke="#ddd" stroke-width=".5" d="M442.6,84.2 L453,86.8 L395.6,126.8 L386,124.6 L404.1,128.7 L449.6,99.6 L452.3,100.3 L466.6,90.1 L442.6,84.2 L442.6,84.2 Z M442.6,84.2" id="unit-2054"/>
    <path class="unit" fill="#fff" stroke="#ddd" stroke-width=".5" d="M376.2,34.4 L371.9,37.5 L353.1,32.7 L357.4,29.6 L376.2,34.4 L376.2,34.4 Z M376.2,34.4" id="unit-2055"/>
    <path class="unit" fill="#fff" stroke="#ddd" stroke-width=".5" d="M347.3,36.8 L366,41.6 L361.1,45.1 L342.4,40.3 L347.3,36.8 L347.3,36.8 Z M347.3,36.8" id="unit-2056"/>
    <path class="unit" fill="#fff" stroke="#ddd" stroke-width=".5" d="M435.9,39.6 L398.8,66.1 L369.2,58.6 L400.3,36.6 L403.5,37.4 L409.5,33.2 L435.9,39.6 L435.9,39.6 Z M435.9,39.6" id="unit-2057"/>
    <path class="unit" fill="#fff" stroke="#ddd" stroke-width=".5" d="M336.1,30.8 L323.4,39.8 L313.3,40.3 L316.5,38.1 L314.7,37.6 L324,27.7 L336.1,30.8 L336.1,30.8 Z M336.1,30.8" id="unit-2058"/>
    <path class="unit" fill="#fff" stroke="#ddd" stroke-width=".5" d="M318.7,43.5 L307.4,51.3 L295.3,48.3 L306.4,40.3 L318.7,43.5 L318.7,43.5 Z M318.7,43.5" id="unit-2059"/>
    <path class="unit" fill="#fff" stroke="#ddd" stroke-width=".5" d="M321.8,110.4 L317.9,113.1 L313,111.9 L316.9,109.1 L321.8,110.4 L321.8,110.4 Z M321.8,110.4" id="unit-2060"/>
    <path class="unit" fill="#fff" stroke="#ddd" stroke-width=".5" d="M388.8,154.4 L384.9,157.1 L380,155.9 L383.9,153.1 L388.8,154.4 L388.8,154.4 Z M388.8,154.4" id="unit-2061"/>
    <path class="unit" fill="#fff" stroke="#ddd" stroke-width=".5" d="M388.8,164.4 L384.9,167.1 L380,165.9 L383.9,163.1 L388.8,164.4 L388.8,164.4 Z M388.8,164.4" id="unit-2062"/>
    <path class="unit" fill="#fff" stroke="#ddd" stroke-width=".5" d="M386.4,208.5 L382.5,211.2 L377.6,210 L381.5,207.2 L386.4,208.5 L386.4,208.5 Z M386.4,208.5" id="unit-2063"/>
    <path class="unit" fill="#fff" stroke="#ddd" stroke-width=".5" d="M375.2,138.2 L370.3,137 L374.2,134.2 L379.1,135.5 L375.2,138.2 Z M375.2,138.2" id="unit-2064"/>
  </g>
  <g transform="translate(38,542)">
    <path fill="#f68b1f" stroke-width=".5" d="M298.187 62.803L231.522 46.18a1.438 1.438 0 0 0-.834.04l-2.158.758-25.4-5.259-.482-.91a1.445 1.445 0 0 0-.936-.73l-40.343-10.056.942-.658c.39-.273.622-.72.622-1.195v-.847c0-.176-.031-.349-.091-.509l29.027-20.719c.36-.258.584-.666.606-1.108l.045-.803a1.46 1.46 0 0 0-1.121-1.498L183.065.725a1.454 1.454 0 0 0-1.174.229l-5.481 3.875a1.455 1.455 0 0 0-.619 1.191v.804c0 .108.015.215.035.319L148.475 26.68l-12.246-3.062.542-.062a1.48 1.48 0 0 0 .687-.262l9.936-7.084c.385-.273.612-.716.612-1.188v-.802c0-.67-.456-1.253-1.106-1.415l-11.451-2.852a1.45 1.45 0 0 0-1.199.228l-4.088 2.909-5.322-1.312a1.457 1.457 0 0 0-1.198.23l-2.674 1.916a1.457 1.457 0 0 0-.608 1.186v.804c0 .271.076.54.221.771l1.413 2.266-2.784 1.976-1.546-.398-.761-1.203a1.464 1.464 0 0 0-.874-.635l-2.807-.714a1.463 1.463 0 0 0-1.208.229L85.29 37.309l-1.204.102a1.457 1.457 0 0 0-1.337 1.454v.846c0 .387.154.758.427 1.031l3.02 3.021a1.456 1.456 0 0 0-.639 1.206v.805c0 .063.004.126.012.189l-.832.589-2.303.267a1.46 1.46 0 0 0-1.29 1.449v.802c0 .066.004.13.012.192l-2.522 1.79-2.39.27a1.59 1.59 0 0 0-.21.039l-1.198-1.871v-1.222c0-.668-.455-1.251-1.104-1.414l-36.94-9.27a1.461 1.461 0 0 0-1.202.228L24.672 45.61a1.46 1.46 0 0 0-.61 1.165l-.032 2.16L9.21 59.51a1.459 1.459 0 0 0-.604 1.046L6.988 77.015l-3.445-.848a1.461 1.461 0 0 0-1.798 1.263L.319 90.664a1.624 1.624 0 0 0-.009.138l-.044 4.012a1.46 1.46 0 0 0 .85 1.344l3.298 1.518c.236.107.499.15.758.125l4.367-.445c.068-.008.136-.02.202-.037l2.872-.709v3.838c0 .582.342 1.104.873 1.337l1.114.49c.095.042.193.073.295.096l15.506 3.164c.398.075.812-.009 1.142-.244l6.71-4.815 3.483.897c.445.116.92.014 1.279-.275l1.493-1.204 2.471-.265c.247-.024.483-.113.686-.258l3.03-2.143c.046-.032.089-.066.131-.105l5.8-4.129c.354-.255.576-.648.607-1.08l17.676.924v.481l-1.788 1.261a1.46 1.46 0 0 0-.619 1.192v1.054l-8.498-.414a1.482 1.482 0 0 0-.524.068 1.472 1.472 0 0 0-.691.358l-10.471 6.496a1.54 1.54 0 0 1-.083.025 1.456 1.456 0 0 0-.943 1.352l-.044 4.01c-.005.38.139.744.4 1.021l.846.894c.205.216.472.364.765.424l88.008 18.004c.224.047.455.038.673-.02l8.057-2.176 58.188 14.523a1.47 1.47 0 0 0 1.204-.227l19.562-13.992c.379-.271.604-.706.608-1.17l.041-3.691 19.135-13.675c.38-.27.605-.705.609-1.17l.033-3.103.096-.011c.248-.025.48-.117.687-.262l48.526-34.623a1.46 1.46 0 0 0 .611-1.188v-4.062a1.468 1.468 0 0 0-1.11-1.414zM97.55 97.962l2.027-.795c.42-.166.741-.515.867-.946l1.954-6.626 11.886.363c.722.045 1.327-.465 1.472-1.155l.58-2.763c.021-.1.031-.198.031-.299v-4.058c0-.109-.013-.221-.038-.328l.371-.163c.457-.2.779-.623.854-1.114l.712-4.68a1.22 1.22 0 0 0 .015-.161l1.396.066-5.596 23.535-16.541-.8.01-.076zm24.133-48.835l-20.311 14.478a1.457 1.457 0 0 0-1.11 1.4l-.045 4.055c-.003.293.081.569.229.804l-5.864-1.442a1.452 1.452 0 0 0-1.184.222l-.343.24-1.023-.261 5.898-4.191c.38-.27.608-.706.614-1.172l.044-4.056a1.46 1.46 0 0 0-1.112-1.434l-3.054-.746.021-1.062a1.453 1.453 0 0 0-1.107-1.442l-1.49-.369 10.766-7.955 5.749 1.438c.415.104.853.021 1.2-.227l17.555-12.521 4.62-.471 37.059 9.243.578.927c.199.318.517.55.884.642l15.156 3.79 7.092 10.17-18.453 6.282-7.121-4.485a1.461 1.461 0 0 0-.394-.174l-43.626-11.899a1.444 1.444 0 0 0-1.228.216zm-30.186 8.324l-.001.08-.598.426-.001.064-.15-.038.75-.532zm-55.83 29.812l.001-.045.629-.075a1.43 1.43 0 0 0 .675-.261l2.496-1.784c.377-.268.603-.701.61-1.164l.832-.087a1.458 1.458 0 0 0 1.308-1.434l.044-4.057a1.46 1.46 0 0 0-.426-1.048l-.708-.707 3.039-2.39 4.866-3.37 2.341-.229c.254-.024.497-.116.705-.265l4.188-2.986c.384-.272.612-.716.612-1.187v-.77l2.385.58c.159.041.324.052.487.037l5.481-.533c.257-.026.504-.118.713-.271l4.777-3.456 2.259-.618-3.199 2.278a1.476 1.476 0 0 0-.256.152L37.99 86.876a1.494 1.494 0 0 0-.369.388 1.463 1.463 0 0 0-.226.625H35.5a1.43 1.43 0 0 0 .167-.626zm18.375-23.496l-2.375 1.68-2.659.266-6.602 4.816 6.644-4.879 2.659-.265 2.35-1.661a.296.296 0 0 1-.017.043zm18.803-8.692l-.088.021 1.025-.732a.433.433 0 0 0 .007.035l-.944.676zm3.822 40.883v.074l-.527-.019.107-.076.42.021zm0 0" class="outline"/>
    <path fill="#f68b1f" stroke-width=".5" d="M12.435 1.692c-2.881 0-4.706 2.337-4.706 5.938 0 3.393 1.792 5.506 4.658 5.506 2.881 0 4.706-2.353 4.706-5.954-.001-3.393-1.809-5.49-4.658-5.49zm-.017 10.26c-2.145 0-3.394-1.745-3.394-4.258 0-2.961 1.232-4.817 3.377-4.817 2.193 0 3.394 1.745 3.394 4.242.001 2.96-1.232 4.833-3.377 4.833zm26.497-.16h-4.77V7.934h3.874a.588.588 0 0 0 .592-.592.567.567 0 0 0-.592-.576h-3.874V3.037h4.61c.416 0 .64-.272.64-.576 0-.336-.224-.641-.64-.641h-4.786c-.688 0-1.057.368-1.057.961v9.268c0 .592.368.96 1.057.96h4.946c.384 0 .608-.336.608-.608 0-.337-.224-.609-.608-.609zM30.421 1.756c-.336 0-.544.256-.592.576a104.688 104.688 0 0 1-1.761 9.22h-.032c-.864-2.817-1.552-6.179-2.305-8.532-.304-.96-.576-1.264-1.072-1.264-.433 0-.752.336-1.024 1.2-.736 2.32-1.553 5.955-2.417 8.596h-.032c-.752-3.057-1.201-6.146-1.601-9.156-.08-.432-.304-.64-.656-.64-.384 0-.608.304-.608.64 0 .112.032.305.048.368a114.328 114.328 0 0 0 1.665 9.028c.224.96.56 1.28 1.104 1.28.48 0 .8-.272 1.104-1.137.864-2.497 1.472-5.25 2.401-8.419h.032c.96 3.169 1.521 5.938 2.289 8.419.272.88.608 1.137 1.137 1.137.48 0 .8-.337.992-1.072a108.917 108.917 0 0 0 1.905-9.316c.032-.176.032-.288.032-.368-.001-.288-.24-.56-.609-.56zM6.707 11.824H2.401V2.412c0-.4-.256-.656-.608-.656-.353 0-.625.256-.625.656v9.636c0 .592.368.96 1.057.96h4.481c.4 0 .656-.272.656-.608.001-.304-.239-.576-.655-.576zm40.256-2.929a3.54 3.54 0 0 0-.977-.976c1.425-.497 2.353-1.489 2.353-3.009 0-1.938-1.312-3.218-4.209-3.218-1.104 0-1.857.112-2.369.272-.4.128-.512.368-.512.768v9.7c0 .4.272.641.625.641.352 0 .624-.24.624-.641V8.254h1.249c1.168 0 1.633.479 2.209 1.409.4.64.816 1.567 1.312 2.961.096.256.272.448.608.448.336 0 .625-.24.625-.624a1.26 1.26 0 0 0-.096-.433c-.434-1.15-.946-2.352-1.442-3.12zm-3.025-1.857h-1.44V3.004c.448-.064.88-.128 1.569-.128 2.289 0 3.009.896 3.009 2.081-.001 1.649-1.554 2.129-3.138 2.081zm38.928 4.786H78.56V2.412c0-.4-.256-.656-.608-.656-.353 0-.625.256-.625.656v9.636c0 .592.368.96 1.057.96h4.481c.4 0 .656-.272.656-.608.001-.304-.239-.576-.655-.576zm7.616 0h-4.306V2.412c0-.4-.256-.656-.608-.656-.353 0-.625.256-.625.656v9.636c0 .592.368.96 1.057.96h4.481c.4 0 .656-.272.656-.608.001-.304-.239-.576-.655-.576zM72.754 3.229c-.624-1.249-1.12-1.617-1.681-1.617-.56 0-1.056.368-1.681 1.617-.896 1.81-1.584 4.082-2.753 8.708-.064.225-.096.4-.096.513 0 .384.256.624.608.624.288 0 .496-.177.576-.513.304-1.376.608-2.608.913-3.666h4.866c.288 1.058.592 2.289.913 3.666.08.336.288.513.576.513.352 0 .608-.24.608-.624 0-.112-.048-.288-.096-.513-1.136-4.627-1.857-6.9-2.753-8.708zM68.96 7.775c.736-2.448 1.393-3.97 1.905-4.77.048-.064.096-.128.208-.128.112 0 .16.063.208.128.512.8 1.152 2.321 1.889 4.77h-4.21zm-4.764-4.723c-.112-.833-.4-1.296-1.056-1.296-.625 0-.896.368-1.073.832-.816 2.209-1.712 5.042-2.689 7.667h-.016c-1.008-2.481-1.792-5.09-2.817-7.523-.224-.607-.496-.976-1.121-.976-.656 0-.96.448-1.056 1.329a75.631 75.631 0 0 0-.528 9.348c-.016.384.224.641.576.641s.624-.225.624-.656c-.016-3.073.176-6.05.513-9.043h.016C56.546 6 57.49 8.641 58.53 11.266c.128.336.4.576.816.576.4 0 .704-.24.832-.576 1.024-2.545 1.905-5.25 2.833-7.891h.016c.417 3.024.576 6.002.656 8.979 0 .448.224.721.641.721.352 0 .576-.288.576-.673 0-.128-.016-.367-.016-.479a68.057 68.057 0 0 0-.688-8.871zm0 0" class="Shape"/>
    <path fill="#808285" stroke-width=".5" d="M191.349 4.642l-30.055 21.452.665.843v.842l-3.545 2.479 43.218 10.771.801 1.507 21.941 4.344 6.779 1.687v.798l-34.84 11.836-9.662-13.963-15.603-3.898-.887-1.419-37.676-9.396-5.23.532-17.775 12.678-6.382-1.596-13.964 10.326.31.665v.798h-4.123L65.11 61.512l-.888 1.418-8.997-4.08.044-.798 4.3-.441 17.862-4.39-.134-.177.045-.798 2.749-.311 3.813-2.705-.399-.665v-.797l2.659-.312 2.128-1.503-.398-.666v-.799l2.172-.267-4.965-4.966v-.84l1.597-.137L113.6 19.044l2.793.712 1.063 1.685 2.749.708 4.433-3.144-2.127-3.413v-.8l2.659-1.904 5.94 1.463 4.609-3.279 11.393 2.836v.799l-9.884 7.047-3.99.443-2.083 1.462.976-.089 17.197 4.301 29.479-21.055-1.152-.266v-.798l5.453-3.856 8.287 1.951-.046.795" class="walkway"/>
    <path fill="#989898" stroke-width=".5" d="M296.958 67.866l-48.268 34.439-3.633.397-3.724 2.657v-4.03l3.769-2.657 3.635-.4 48.225-34.439v4.034m-49.69 38.96l-24.246 17.331.045-4.033 24.244-17.333-.043 4.035m-19.636 14.449l-.045 3.988-19.457 13.919-58.244-14.538-8.376 2.262L53.975 109l-.842-.888.045-3.989.798.888 17.243 3.502 5.407-4.562-12.543-2.57.045-4.033 61.255 12.502-.045 4.028-5.363 4.61 21.586 4.39 8.377-2.262 23.581-53.899-.043 3.991-21.985 50.307 56.692 14.144 19.453-13.883M9.207 78.459l.045-3.191 24.777 6.206.932-.133-25.31-6.296v-4.031l28.722 7.182 2.925-.311-.044 4.033-2.127.222v1.286L36.645 85.2l-1.862.223-.044 1.285-4.168 2.97-2.217.223v.932l-18.305 4.521-4.344.44-3.279-1.506.045-3.989 3.279 1.464 4.344-.442 11.614-2.881-8.822-2.172v-2.841L8.897 82.41l-.265-.089v-4.036l.575.174m.975-12.678l25.442 6.337 4.21-.441 9.174-6.694 2.66-.265 3.324-2.351.045-.798-29.962-7.49.044-4.031.93.264.045-3.811 1.152 2.039-.044 2.04 30.85 7.712v1.374l1.948.488 5.453-.53 10.062-7.183-.046 4.035-10.016 7.183-5.453.529-3.458-.842-.708.487v1.952l-4.166 2.968-2.704.267-5.186 3.591-3.945 3.104-4.255.444-25.442-6.342.046-4.036m63.516-17.816v4.033l-.709.53v-4.031l.709-.532m-2.97 16.4h.045l13.917 3.456 12.632-8.997-.044 4.03-12.633 8.998-13.918-3.501.001-3.986m20.124-3.104l.045-4.033 2.305-1.64-.045 3.989-2.305 1.684m17.507 9.042l-6.517-1.64.045-4.031 9.174 2.304-.045 2.039 11.302.532-.044 4.033-5.363-.269v1.463l-.708 4.654-2.217.978-.532 3.59v-3.99l.576-3.633 2.217-.977.311-2.083-8.2-.397.001-2.573m6.073 17.684l-12.943-.396-2.261 7.67-2.837 1.106-.399 3.856-21.763-.975.045-4.035 2.394.09v-3.812l2.083.53v3.414l17.286.752.399-3.856 2.838-1.106 2.26-7.669 11.924.397h.976l.576-2.748v4.031l-.578 2.751m-31.736 3.239L56.19 89.85v1.415l-5.851 4.17h-.044v.045l-3.014 2.127-2.881.312-1.817 1.463-4.122-1.063-7.225 5.188-15.424-3.146-1.109-.485v-4.033l1.109.486 15.424 3.144 7.225-5.142 4.122 1.021 1.772-1.377-4.433-1.105-.576-1.287V87.55l.622 1.287 10.372 2.61 2.792-1.989.045-2.971 1.064-.757 28.5 1.464-.045 4.032m6.516 15.289l-8.776-1.816-5.407 4.609 8.864 1.816 5.319-4.609m5.895 6.871l5.274-4.606-7.401-1.507-5.319 4.609 7.446 1.504m14.493 2.971l6.605 1.329 5.362-4.564-6.604-1.377-5.363 4.612m-5.496-6.782l-5.274 4.563 7.003 1.462 5.362-4.604-7.091-1.421m-72.425-24.69l-15.824-3.899v1.95l11.968 3.015 2.792-.312 1.064-.754" class="wall"/>
    <path id="unit-1001" fill="#fff" stroke="#ddd" stroke-width=".5" d="M37.22 38.912l36.378 9.128-.665.44 2.481 3.988-9.926 7.09-5.273.53-3.145-.796 1.462-1.021-32.922-8.24 2.039-1.462-1.154-1.994 10.725-7.663zm0 0" class="unit"/>
    <path id="unit-1002" fill="#fff" stroke="#ddd" stroke-width=".5" d="M88.487 54.465l4.564 1.151-2.304 1.641 6.426 1.593-12.408 8.864-13.515-3.368 12.807-9.127 3.987-.442.443-.312zm0 0" class="unit"/>
    <path id="unit-1003" fill="#fff" stroke="#ddd" stroke-width=".5" d="M11.121 60.359L25.39 50.211l32.523 8.108-2.969 2.127.842 1.328-4.076 2.88-2.659.266-9.172 6.736-4.031.398-25.256-6.292.529-5.403zm0 0" class="unit"/>
    <path id="unit-1004" fill="#fff" stroke="#ddd" stroke-width=".5" d="M38.594 78.082l-28.535-7.09.487-5.007 25.081 6.248 5.537 5.583-2.57.266zm0 0" class="unit"/>
    <path id="unit-1005" fill="#fff" stroke="#ddd" stroke-width=".5" d="M34.207 81.361L9.66 75.246l.398-4.03 28.313 7.045.754 1.151-2.437 1.686-2.481.263zm0 0" class="unit"/>
    <path id="unit-1006" fill="#fff" stroke="#ddd" stroke-width=".5" d="M28.047 85.839l-14.622-3.636 2.925-2.08-7.002-1.775.311-2.88 24.325 6.069.755 1.151-4.077 2.88-2.615.271zm0 0" class="unit"/>
    <path id="unit-1007" fill="#fff" stroke="#ddd" stroke-width=".5" d="M28.312 86.766l-18.078 4.479-4.209.438-3.146-1.418 1.418-12.982 11.474 2.881-2.968 2.127 15.021 3.722.488.753zm0 0" class="unit"/>
    <path id="unit-1008" fill="#fff" stroke="#ddd" stroke-width=".5" d="M116.18 75.334l-2.216.977-.576 3.681 1.595 1.238-.576 2.659-12.939-.4L99.21 91.2l-2.836 1.106-.399 3.81-21.178-.973 4.431-3.146-2.083-.53 6.115-4.345-28.979-1.461-1.24.885 3.057.753-5.671 4.032-10.102-2.524-.532-1.239 31.239-23.084 22.774 5.717.887-.666 9.17 2.305 1.995-1.416 10.989.396-.667 4.514zm0 0" class="unit"/>
    <path id="unit-1009" fill="#fff" stroke="#ddd" stroke-width=".5" d="M40.054 88.939h-3.987l-9.933 2.746 12.459 2.524 4.121 1.021 1.773-1.417 2.879-.311 2.835-2.038-10.147-2.525zm0 0" class="unit"/>
    <path id="unit-1010" fill="#fff" stroke="#ddd" stroke-width=".5" d="M80.333 100.726l-9.039 7.663-16.925-3.454-.754-.801 10.768-6.688 15.95 3.28zm0 0" class="unit"/>
    <path id="unit-1011" fill="#fff" stroke="#ddd" stroke-width=".5" d="M122.649 50.168l43.159 11.786 7.623 4.785-23.528 53.838-8.199 2.217-25.082-5.142 9.217-7.846-60.305-12.314 49.937 2.391 7.224-30.354-13.781-.754 2.569-1.861-9.171-2.261 20.337-14.485zm0 0" class="unit"/>
    <path id="unit-1012" fill="#fff" stroke="#ddd" stroke-width=".5" d="M80.733 100.814l12.141 2.479-8.907 7.709-12.273-2.527 9.039-7.661zm0 0" class="unit"/>
    <path id="unit-1013" fill="#fff" stroke="#ddd" stroke-width=".5" d="M103.994 105.599l-8.861 7.666-10.768-2.172 8.907-7.709 10.722 2.215zm0 0" class="unit"/>
    <path id="unit-1014" fill="#fff" stroke="#ddd" stroke-width=".5" d="M114.852 107.769l-8.952 7.709-10.369-2.125 8.862-7.666 10.459 2.082zm0 0" class="unit"/>
    <path id="unit-1015" fill="#fff" stroke="#ddd" stroke-width=".5" d="M125.22 109.896l-8.95 7.71-9.97-2.038 8.951-7.713 9.969 2.041zm0 0" class="unit"/>
    <path id="unit-1016" fill="#fff" stroke="#ddd" stroke-width=".5" d="M230.812 47.464l65.933 16.439L248.667 98.2l-3.635.396-3.854 2.749 5.938 1.507-24.234 17.325 4.562 1.105-19.229 13.735-57.871-14.442 23.529-53.793 56.939-19.318zm0 0" class="unit"/>
    <path id="unit-1017" fill="#fff" stroke="#ddd" stroke-width=".5" d="M16.038 94.476l-.885 1.33.974.489 15.198 3.054 7.135-5.021-12.551-2.58-9.871 2.728zm0 0" class="unit"/>
  </g>
</svg>
