<svg
  xmlns="http://www.w3.org/2000/svg"
  xmlns:xlink="http://www.w3.org/1999/xlink"
  id="centre-map"
  version="1.1"
  >

  <!-- Icons -->
  <g class="baby_changing base-icon" transform="scale(0.7)">
    <path d="M22,11c0,6.075-4.925,11-11,11S0,17.075,0,11S4.925,0,11,0S22,4.925,22,11z" class="black" stroke="none" fill="#808285" stroke-width="0.5"/>
    <path d="M21,11c0,5.523-4.477,10-10,10C5.477,21,1,16.523,1,11C1,5.477,5.477,1,11,1C16.523,1,21,5.477,21,11z" class="white" stroke="none" fill="white" stroke-width="0.5"/>
    <path d="M10.991,5.092c-0.304,0-0.566,0.121-0.691,0.297l0,0C9.678,5.653,9.243,6.254,9.243,6.956l0,0 c0,0.944,0.787,1.708,1.758,1.708l0,0c0.972,0,1.757-0.764,1.757-1.708l0,0c0-0.702-0.438-1.304-1.058-1.567l0,0 c0.173-0.237,0.021-0.658,0.021-0.658l0,0C11.618,4.939,11.33,5.092,10.991,5.092L10.991,5.092z M7.062,8.973 c-0.439,0-0.723,0.274-0.723,0.635l0,0c0,0.377,0.283,0.651,0.723,0.651l0,0h2.146v1.812c0.204-0.154,0.594-0.358,1.086-0.17l0,0 c0.683,0.263,1.435,0.841,2.47,0.455l0,0v-2.097h2.172c0.426,0,0.727-0.274,0.727-0.651l0,0c0-0.361-0.301-0.635-0.727-0.635l0,0 H7.062z M11.641,13.884l1.063,1.027l-0.638,1.399c-0.172,0.377-0.034,0.754,0.305,0.898l0,0c0.355,0.15,0.734-0.004,0.906-0.38l0,0 l0.81-1.779c-0.001,0-0.001,0-0.001,0l0,0c0.123-0.249,0.07-0.549-0.168-0.78l0,0l-1.152-1.113L11.641,13.884z M8.09,14.271 c-0.24,0.23-0.293,0.53-0.167,0.779l0,0H7.921l0.81,1.779c0.17,0.376,0.549,0.531,0.905,0.38l0,0 c0.339-0.146,0.477-0.522,0.305-0.897l0,0l-0.637-1.4l1.065-1.027h0.024l-1.184-0.693L8.09,14.271z" class="black" stroke="none" fill="#808285" stroke-width="0.5"/>
  </g>
  <g class="cash_machine base-icon" transform="scale(0.7)">
    <path d="M22,11c0,6.075-4.925,11-11,11S0,17.075,0,11S4.925,0,11,0S22,4.925,22,11z" class="black" stroke="none" fill="#808285" stroke-width="0.5"/>
    <path d="M21,11c0,5.523-4.477,10-10,10C5.477,21,1,16.523,1,11C1,5.477,5.477,1,11,1C16.523,1,21,5.477,21,11z" class="white" stroke="none" fill="white" stroke-width="0.5"/>
    <path d="M17.625,6.652H4.375v4.488H7.42l1.668-3.366h4.729l-0.709,1.402h0.988l-0.957,1.964h4.486V6.652z" class="black" stroke="none" fill="#808285" stroke-width="0.5"/>
    <path d="M13.252,8.896l-0.145,0.268l-0.151,0.293h0.663l-2.693,5.33H6.854l0.599-1.121H7.087h-0.29L5.9,15.349h5.385l3.289-6.451 L13.252,8.896L13.252,8.896z" class="black" stroke="none" fill="#808285" stroke-width="0.5"/>
    <path d="M11.005,13.945H5.62l3.29-6.452h5.386L11.005,13.945L11.005,13.945z M6.574,13.384h4.073l2.694-5.329H9.268L6.574,13.384 L6.574,13.384z" class="black" stroke="none" fill="#808285" stroke-width="0.5"/>
    <path d="M10.282,10.618L9.75,10.504c-0.005-0.138-0.01-0.273,0.015-0.393c0.043-0.204,0.202-0.289,0.384-0.25 c0.128,0.027,0.195,0.068,0.257,0.101c0.038,0.02,0.088,0.049,0.132,0.059c0.116,0.025,0.23-0.062,0.255-0.178 c0.014-0.065,0.005-0.113-0.033-0.167c-0.079-0.112-0.316-0.235-0.553-0.285C9.782,9.299,9.395,9.488,9.301,9.929 c-0.033,0.156-0.009,0.314,0.005,0.481l-0.15-0.032c-0.109-0.024-0.196,0.027-0.219,0.136c-0.023,0.109,0.036,0.19,0.145,0.214 l0.215,0.045c-0.004,0.019-0.004,0.038-0.007,0.052c-0.053,0.251-0.159,0.374-0.262,0.5c-0.108,0.127-0.159,0.207-0.174,0.276 c-0.022,0.105,0.019,0.252,0.234,0.297l1.071,0.229c0.135,0.027,0.254-0.029,0.284-0.172c0.03-0.143-0.062-0.246-0.189-0.273 l-0.835-0.177c0.139-0.15,0.267-0.325,0.319-0.569c0.005-0.022,0.01-0.043,0.011-0.066l0.459,0.098 c0.109,0.023,0.196-0.027,0.219-0.136C10.451,10.722,10.406,10.644,10.282,10.618z" class="black" stroke="none" fill="#808285" stroke-width="0.5"/>
  </g>
  <g class="click_and_collect base-icon" transform="scale(0.7)">
    <path d="M22,11c0,6.075-4.925,11-11,11S0,17.075,0,11S4.925,0,11,0S22,4.925,22,11z" class="black" stroke="none" fill="#808285" stroke-width="0.5"/>
    <path d="M21,11c0,5.523-4.477,10-10,10C5.477,21,1,16.523,1,11C1,5.477,5.477,1,11,1C16.523,1,21,5.477,21,11z" class="white" stroke="none" fill="white" stroke-width="0.5"/>
    <path d="M11.394,4.638h-0.085v1.486c0.81,0.132,1.423,0.765,1.423,1.53v2.012c0,0.861-0.774,1.559-1.731,1.559 c-0.958,0-1.733-0.698-1.733-1.559V7.654c0-0.729,0.56-1.336,1.312-1.506v-1.51C8.665,4.653,7.116,6.2,7.116,8.109v5.782 c0,1.918,1.562,3.473,3.491,3.473h0.787c1.928,0,3.49-1.555,3.49-3.473V8.109C14.884,6.19,13.32,4.638,11.394,4.638L11.394,4.638z" id="Shape" class="black" stroke="none" fill="#808285" stroke-width="0.5"/>
    <path d="M9.94,7.979V9.34c0,0.583,0.475,1.055,1.06,1.055s1.061-0.472,1.061-1.055V7.979 c0-0.582-0.476-1.054-1.061-1.054S9.94,7.397,9.94,7.979L9.94,7.979z" id="Shape_1_" class="black" stroke="none" fill="#808285" stroke-width="0.5"/>
  </g>
  <g class="customer_services base-icon" transform="scale(0.7)">
    <path class="black" fill="#808285" d="M22,11c0,6.075-4.925,11-11,11S0,17.075,0,11S4.925,0,11,0S22,4.925,22,11z"/>
    <path class="white" fill="#FFFFFF" d="M21,11c0,5.523-4.477,10-10,10C5.477,21,1,16.523,1,11C1,5.477,5.477,1,11,1C16.523,1,21,5.477,21,11z"/>
    <path class="black" fill="#808285" d="M15.946,8.218C15.1,6.283,13.203,4.93,11,4.93S6.9,6.283,6.054,8.218C4.924,8.389,4.062,9.274,4.062,10.35 c0,1.057,0.834,1.935,1.936,2.126c0.376,1.044,1.068,2.215,2.252,3.062c-0.033,0.109-0.068,0.219-0.068,0.339 c0,0.658,0.534,1.192,1.192,1.192s1.192-0.534,1.192-1.192s-0.534-1.192-1.192-1.192c-0.328,0-0.625,0.133-0.84,0.348 c-1.136-0.828-1.769-1.988-2.087-2.973V8.827c0.667-1.923,2.446-3.312,4.552-3.312c2.107,0,3.887,1.391,4.554,3.315v3.687 c1.317,0,2.385-0.971,2.385-2.167C17.938,9.274,17.076,8.389,15.946,8.218z"/>
    <path class="black" fill="#808285" d="M13.255,10.448c-1.425,0-2.644-0.841-3.22-2.05c-0.474,0.999-1.387,1.748-2.497,1.977 c0,0.025-0.007,0.048-0.007,0.074c0,1.98,1.601,3.587,3.577,3.587s3.578-1.606,3.578-3.587c0-0.099-0.021-0.191-0.028-0.288 C14.227,10.345,13.753,10.448,13.255,10.448L13.255,10.448z"/>
  </g>
  <g class="disabled_toilets base-icon" transform="scale(0.7)">
    <path class="black" fill="#808285" d="M22,11c0,6.075-4.925,11-11,11S0,17.075,0,11S4.925,0,11,0S22,4.925,22,11z"/>
    <path class="white" fill="#FFFFFF" d="M21,11c0,5.523-4.477,10-10,10C5.477,21,1,16.523,1,11C1,5.477,5.477,1,11,1C16.523,1,21,5.477,21,11z"/>
    <path class="black" fill="#808285" d="M15.819,15.12l0.003,0.005l-0.752,0.478l-0.465,0.3l-0.002-0.003L14.6,15.902l-2.346-3.657H8.486V7.633 c-0.384-0.24-0.64-0.665-0.64-1.149c0-0.75,0.611-1.359,1.365-1.359c0.754,0,1.365,0.608,1.365,1.359 c0,0.484-0.255,0.909-0.639,1.149v1.299h3.483v1.444H9.937V10.8h3.112l1.99,3.103l0.798-0.515l0.762,1.229L15.819,15.12z M9.382,15.672c-1.528,0-2.771-1.238-2.771-2.76c0-1.021,0.562-1.913,1.392-2.39V9.194c-1.519,0.559-2.601,2.012-2.601,3.718 c0,2.188,1.782,3.963,3.98,3.963c1.679,0,3.114-1.035,3.699-2.499l-0.928-1.448C12.145,14.442,10.905,15.672,9.382,15.672z"/>
  </g>
  <g class="elevator base-icon" transform="scale(0.7)">
    <path d="M22,11c0,6.075-4.925,11-11,11S0,17.075,0,11S4.925,0,11,0S22,4.925,22,11z" class="black" stroke="none" fill="#808285" stroke-width="0.5"/>
    <path d="M21,11c0,5.523-4.477,10-10,10C5.477,21,1,16.523,1,11C1,5.477,5.477,1,11,1C16.523,1,21,5.477,21,11z" class="white" stroke="none" fill="white" stroke-width="0.5"/>
    <path d="M15.307,9.513H6.693c-0.728,0-1.318,0.416-1.318,0.93v5.577c0,0.515,0.59,0.932,1.318,0.932h8.614 c0.729,0,1.317-0.417,1.317-0.932v-5.577C16.625,9.929,16.034,9.513,15.307,9.513L15.307,9.513z M15.758,16.02 c0,0.104-0.122,0.188-0.273,0.188H6.517c-0.152,0-0.275-0.083-0.275-0.188v-5.577c0-0.103,0.123-0.186,0.275-0.186h8.965 c0.151,0,0.273,0.083,0.273,0.186L15.758,16.02L15.758,16.02z" class="black" stroke="none" fill="#808285" stroke-width="0.5"/>
    <path d="M8.298,11c0.216,0,0.391,0.167,0.391,0.372c0,0.206-0.175,0.372-0.391,0.372c-0.216,0-0.391-0.166-0.391-0.372 C7.907,11.167,8.082,11,8.298,11z" class="black" stroke="none" fill="#808285" stroke-width="0.5"/>
    <path d="M10.873,11c0.216,0,0.391,0.167,0.391,0.372c0,0.206-0.175,0.372-0.391,0.372s-0.391-0.166-0.391-0.372 C10.482,11.167,10.657,11,10.873,11z" class="black" stroke="none" fill="#808285" stroke-width="0.5"/>
    <path d="M13.635,11c0.217,0,0.391,0.167,0.391,0.372c0,0.206-0.174,0.372-0.391,0.372c-0.216,0-0.391-0.166-0.391-0.372 C13.244,11.167,13.419,11,13.635,11z" class="black" stroke="none" fill="#808285" stroke-width="0.5"/>
    <path d="M8.805,11.867H7.762c-0.144,0-0.261,0.119-0.261,0.266v1.328c0,0.124,0.083,0.229,0.196,0.257v1.62 c0,0.137,0.117,0.248,0.26,0.248c0.145,0,0.261-0.111,0.261-0.248v-1.611h0.13v1.611c0,0.137,0.117,0.248,0.261,0.248 s0.261-0.111,0.261-0.248v-1.62c0.112-0.028,0.196-0.133,0.196-0.257v-1.328C9.066,11.986,8.949,11.867,8.805,11.867L8.805,11.867z" class="black" stroke="none" fill="#808285" stroke-width="0.5"/>
    <path d="M11.379,11.867h-1.042c-0.144,0-0.261,0.119-0.261,0.266v1.328c0,0.124,0.083,0.229,0.196,0.257v1.62 c0,0.137,0.117,0.248,0.26,0.248c0.145,0,0.261-0.111,0.261-0.248v-1.611h0.13v1.611c0,0.137,0.117,0.248,0.261,0.248 s0.26-0.111,0.26-0.248v-1.62c0.113-0.028,0.197-0.133,0.197-0.257v-1.328C11.641,11.986,11.523,11.867,11.379,11.867L11.379,11.867 z" class="black" stroke="none" fill="#808285" stroke-width="0.5"/>
    <path d="M14.143,11.867H13.1c-0.145,0-0.261,0.119-0.261,0.266v1.328c0,0.124,0.082,0.229,0.194,0.257v1.62 c0,0.137,0.117,0.248,0.262,0.248s0.262-0.111,0.262-0.248v-1.611h0.129v1.611c0,0.137,0.117,0.248,0.263,0.248 c0.144,0,0.261-0.111,0.261-0.248v-1.62c0.111-0.028,0.193-0.133,0.193-0.257v-1.328C14.402,11.986,14.286,11.867,14.143,11.867 L14.143,11.867z" class="black" stroke="none" fill="#808285" stroke-width="0.5"/>
    <path d="M10.257,6.436l-1.303-1.24c-0.204-0.194-0.534-0.194-0.737,0l0,0l-1.304,1.24 c-0.203,0.194-0.203,0.508,0,0.701c0.204,0.193,0.534,0.193,0.738,0l0.413-0.393v1.777c0,0.274,0.233,0.496,0.521,0.496 s0.521-0.222,0.521-0.496V6.744L9.52,7.137c0.204,0.193,0.534,0.193,0.737,0C10.46,6.944,10.461,6.629,10.257,6.436L10.257,6.436z" class="black" stroke="none" fill="#808285" stroke-width="0.5"/>
    <path d="M14.99,6.931c-0.203-0.193-0.533-0.193-0.737,0L13.84,7.324V5.547c0-0.274-0.232-0.496-0.521-0.496 c-0.285,0-0.521,0.222-0.521,0.496v1.777l-0.414-0.393c-0.202-0.193-0.532-0.193-0.737,0c-0.203,0.194-0.203,0.508,0,0.702 l1.306,1.239l0,0c0.038,0.037,0.081,0.066,0.126,0.089c0.195,0.098,0.443,0.069,0.609-0.089l0,0l1.305-1.239 C15.193,7.439,15.193,7.125,14.99,6.931L14.99,6.931z" class="black" stroke="none" fill="#808285" stroke-width="0.5"/>
  </g>
  <g class="lift base-icon" transform="scale(0.7)">
    <path d="M22,11c0,6.075-4.925,11-11,11S0,17.075,0,11S4.925,0,11,0S22,4.925,22,11z" class="black" stroke="none" fill="#808285" stroke-width="0.5"/>
    <path d="M21,11c0,5.523-4.477,10-10,10C5.477,21,1,16.523,1,11C1,5.477,5.477,1,11,1C16.523,1,21,5.477,21,11z" class="white" stroke="none" fill="white" stroke-width="0.5"/>
    <path d="M15.307,9.513H6.693c-0.728,0-1.318,0.416-1.318,0.93v5.577c0,0.515,0.59,0.932,1.318,0.932h8.614 c0.729,0,1.317-0.417,1.317-0.932v-5.577C16.625,9.929,16.034,9.513,15.307,9.513L15.307,9.513z M15.758,16.02 c0,0.104-0.122,0.188-0.273,0.188H6.517c-0.152,0-0.275-0.083-0.275-0.188v-5.577c0-0.103,0.123-0.186,0.275-0.186h8.965 c0.151,0,0.273,0.083,0.273,0.186L15.758,16.02L15.758,16.02z" class="black" stroke="none" fill="#808285" stroke-width="0.5"/>
    <path d="M8.298,11c0.216,0,0.391,0.167,0.391,0.372c0,0.206-0.175,0.372-0.391,0.372c-0.216,0-0.391-0.166-0.391-0.372 C7.907,11.167,8.082,11,8.298,11z" class="black" stroke="none" fill="#808285" stroke-width="0.5"/>
    <path d="M10.873,11c0.216,0,0.391,0.167,0.391,0.372c0,0.206-0.175,0.372-0.391,0.372s-0.391-0.166-0.391-0.372 C10.482,11.167,10.657,11,10.873,11z" class="black" stroke="none" fill="#808285" stroke-width="0.5"/>
    <path d="M13.635,11c0.217,0,0.391,0.167,0.391,0.372c0,0.206-0.174,0.372-0.391,0.372c-0.216,0-0.391-0.166-0.391-0.372 C13.244,11.167,13.419,11,13.635,11z" class="black" stroke="none" fill="#808285" stroke-width="0.5"/>
    <path d="M8.805,11.867H7.762c-0.144,0-0.261,0.119-0.261,0.266v1.328c0,0.124,0.083,0.229,0.196,0.257v1.62 c0,0.137,0.117,0.248,0.26,0.248c0.145,0,0.261-0.111,0.261-0.248v-1.611h0.13v1.611c0,0.137,0.117,0.248,0.261,0.248 s0.261-0.111,0.261-0.248v-1.62c0.112-0.028,0.196-0.133,0.196-0.257v-1.328C9.066,11.986,8.949,11.867,8.805,11.867L8.805,11.867z" class="black" stroke="none" fill="#808285" stroke-width="0.5"/>
    <path d="M11.379,11.867h-1.042c-0.144,0-0.261,0.119-0.261,0.266v1.328c0,0.124,0.083,0.229,0.196,0.257v1.62 c0,0.137,0.117,0.248,0.26,0.248c0.145,0,0.261-0.111,0.261-0.248v-1.611h0.13v1.611c0,0.137,0.117,0.248,0.261,0.248 s0.26-0.111,0.26-0.248v-1.62c0.113-0.028,0.197-0.133,0.197-0.257v-1.328C11.641,11.986,11.523,11.867,11.379,11.867L11.379,11.867 z" class="black" stroke="none" fill="#808285" stroke-width="0.5"/>
    <path d="M14.143,11.867H13.1c-0.145,0-0.261,0.119-0.261,0.266v1.328c0,0.124,0.082,0.229,0.194,0.257v1.62 c0,0.137,0.117,0.248,0.262,0.248s0.262-0.111,0.262-0.248v-1.611h0.129v1.611c0,0.137,0.117,0.248,0.263,0.248 c0.144,0,0.261-0.111,0.261-0.248v-1.62c0.111-0.028,0.193-0.133,0.193-0.257v-1.328C14.402,11.986,14.286,11.867,14.143,11.867 L14.143,11.867z" class="black" stroke="none" fill="#808285" stroke-width="0.5"/>
    <path d="M10.257,6.436l-1.303-1.24c-0.204-0.194-0.534-0.194-0.737,0l0,0l-1.304,1.24 c-0.203,0.194-0.203,0.508,0,0.701c0.204,0.193,0.534,0.193,0.738,0l0.413-0.393v1.777c0,0.274,0.233,0.496,0.521,0.496 s0.521-0.222,0.521-0.496V6.744L9.52,7.137c0.204,0.193,0.534,0.193,0.737,0C10.46,6.944,10.461,6.629,10.257,6.436L10.257,6.436z" class="black" stroke="none" fill="#808285" stroke-width="0.5"/>
    <path d="M14.99,6.931c-0.203-0.193-0.533-0.193-0.737,0L13.84,7.324V5.547c0-0.274-0.232-0.496-0.521-0.496 c-0.285,0-0.521,0.222-0.521,0.496v1.777l-0.414-0.393c-0.202-0.193-0.532-0.193-0.737,0c-0.203,0.194-0.203,0.508,0,0.702 l1.306,1.239l0,0c0.038,0.037,0.081,0.066,0.126,0.089c0.195,0.098,0.443,0.069,0.609-0.089l0,0l1.305-1.239 C15.193,7.439,15.193,7.125,14.99,6.931L14.99,6.931z" class="black" stroke="none" fill="#808285" stroke-width="0.5"/>
  </g>
  <g class="escalator base-icon" transform="scale(0.7)">
    <path d="M22,11c0,6.075-4.925,11-11,11S0,17.075,0,11S4.925,0,11,0S22,4.925,22,11z" class="black" stroke="none" fill="#808285" stroke-width="0.5"/>
    <path d="M21,11c0,5.523-4.477,10-10,10C5.477,21,1,16.523,1,11C1,5.477,5.477,1,11,1C16.523,1,21,5.477,21,11z" class="white" stroke="none" fill="white" stroke-width="0.5"/>
    <path d="M10.045,7.51c0.464,0,0.849-0.413,0.849-0.952c0-0.521-0.384-0.953-0.849-0.953 c-0.465,0-0.849,0.432-0.849,0.953C9.196,7.097,9.58,7.51,10.045,7.51 M8.523,15.356c-0.1,0.104-0.352,0.191-0.501,0.191H6.014 c-0.468,0-0.853-0.401-0.853-0.892c0-0.491,0.385-0.895,0.853-0.895h1.154c0.335,0,0.687-0.192,0.871-0.385 c0.3-0.314,5.354-5.569,5.438-5.673c0.101-0.106,0.352-0.193,0.502-0.193h2.007c0.468,0,0.854,0.403,0.854,0.893 c0,0.49-0.386,0.894-0.854,0.894h-1.153c-0.336,0-0.687,0.192-0.889,0.386C13.659,9.997,8.607,15.268,8.523,15.356 M14.579,10.33 c0.115-0.104,0.2-0.139,0.366-0.139h1.054c0.936,0,1.688-0.782,1.688-1.772c0-0.973-0.753-1.755-1.688-1.755h-1.973 c-0.485,0-0.937,0.209-1.204,0.486l-1.956,2.034V8.609c0-0.504-0.402-0.921-0.887-0.921S9.094,8.105,9.094,8.609v2.381l-1.655,1.72 c-0.101,0.104-0.201,0.14-0.369,0.14H6.017c-0.936,0-1.705,0.799-1.705,1.774c0,0.972,0.752,1.771,1.705,1.771H7.99 c0.485,0,0.937-0.226,1.205-0.486C9.511,15.579,14.495,10.434,14.579,10.33" id="Shape" class="black" stroke="none" fill="#808285" stroke-width="0.5"/>
  </g>
  <g class="parking base-icon" transform="scale(0.7)">
    <path d="M22,11c0,6.075-4.925,11-11,11S0,17.075,0,11S4.925,0,11,0S22,4.925,22,11z" class="black" stroke="none" fill="#808285" stroke-width="0.5"/>
    <path d="M21,11c0,5.523-4.477,10-10,10C5.477,21,1,16.523,1,11C1,5.477,5.477,1,11,1C16.523,1,21,5.477,21,11z" class="white" stroke="none" fill="white" stroke-width="0.5"/>
    <path d="M12.096,6.256H7.95v9.848h2.098v-3.318h2.048c1.588,0,2.931-1.316,2.931-2.872 l0.004-0.791C15.03,7.571,13.686,6.259,12.096,6.256L12.096,6.256z M12.933,9.919c0,0.413-0.414,0.819-0.837,0.819h-2.048V8.308 h2.048l0.072-0.001c0.373,0.038,0.722,0.377,0.765,0.741V9.919L12.933,9.919z" id="Shape_1_" class="black" stroke="none" fill="#808285" stroke-width="0.5"/>
  </g>
  <g class="public_telephone base-icon" transform="scale(0.7)">
    <path d="M22,11c0,6.075-4.925,11-11,11S0,17.075,0,11S4.925,0,11,0S22,4.925,22,11z" class="black" stroke="none" fill="#808285" stroke-width="0.5"/>
    <path d="M21,11c0,5.523-4.477,10-10,10C5.477,21,1,16.523,1,11C1,5.477,5.477,1,11,1C16.523,1,21,5.477,21,11z" class="white" stroke="none" fill="white" stroke-width="0.5"/>
    <path d="M16.509,16.453c-1.022,1.599-2.764,1.604-3.314,1.506 c-0.162-0.028-2.707-0.339-5.724-4.416c-2.429-3.28-2.26-6.317-2.192-6.887C5.346,6.1,5.747,4.746,7.828,4.055 c0.258-0.085,0.734-0.06,0.833,0.083C8.706,4.2,9.837,7.105,9.864,7.2s0.032,0.184,0.018,0.267C9.86,7.587,9.749,7.721,9.546,7.871 S9.129,8.152,8.902,8.267C8.674,8.381,8.46,8.508,8.26,8.645c-0.2,0.138-0.31,0.261-0.329,0.369 c-0.038,0.282,0.015,1.325,1.491,3.168c1.476,1.843,2.241,2.424,2.318,2.469c0.075,0.044,0.14,0.07,0.193,0.08 c0.108,0.02,0.262-0.043,0.459-0.184c0.198-0.141,0.898-0.814,1.108-0.954c0.209-0.139,0.374-0.198,0.495-0.177 c0.084,0.015,0.165,0.051,0.244,0.108c0.08,0.057,2.436,2.058,2.477,2.118C16.828,15.806,16.656,16.225,16.509,16.453" id="Shape" class="black" stroke="none" fill="#808285" stroke-width="0.5"/>
  </g>
  <g class="public_transport base-icon" transform="scale(0.7)">
    <path fill="#808285" d="M22,11c0,6.075-4.925,11-11,11S0,17.075,0,11S4.925,0,11,0S22,4.925,22,11z" class="black"/>
    <path fill="#FFF" d="M21,11c0,5.523-4.477,10-10,10C5.477,21,1,16.523,1,11C1,5.477,5.477,1,11,1C16.523,1,21,5.477,21,11z" class="white"/>
    <path fill="#808285" d="M8.948,14.255c-0.231,0-0.418,0.188-0.418,0.422c0,0.234,0.187,0.423,0.418,0.423 c0.231,0,0.418-0.188,0.418-0.423C9.366,14.443,9.18,14.255,8.948,14.255" class="black"/>
    <path fill="#808285" d="M7.924,14.346c-0.183,0-0.33,0.147-0.33,0.33c0,0.186,0.147,0.333,0.33,0.333 c0.182,0,0.329-0.147,0.329-0.333C8.253,14.493,8.106,14.346,7.924,14.346" class="black"/>
    <path fill="#808285" d="M13.052,15.1c0.231,0,0.419-0.188,0.419-0.424c0-0.232-0.188-0.421-0.419-0.421 c-0.229,0-0.419,0.188-0.419,0.421C12.633,14.91,12.82,15.1,13.052,15.1" class="black"/>
    <path fill="#808285" d="M14.076,15.009c0.183,0,0.33-0.147,0.33-0.332c0-0.184-0.147-0.331-0.33-0.331  c-0.184,0-0.329,0.147-0.329,0.331C13.747,14.861,13.895,15.009,14.076,15.009" class="black"/>
    <path fill="#808285" d="M16.297,7.144c-0.078-0.283-0.32-0.48-0.587-0.48c-0.024,0-0.047,0.004-0.071,0.007 c-0.004-0.038-0.009-0.075-0.014-0.112c-0.023-0.177-0.159-0.317-0.335-0.346c-0.147-0.024-0.298-0.046-0.446-0.068 C14.201,5.69,12.695,5.235,11,5.235h-0.014h-0.012c-1.695,0-3.201,0.456-3.843,0.909c-0.15,0.022-0.299,0.045-0.447,0.068 C6.508,6.241,6.373,6.381,6.349,6.558C6.344,6.595,6.34,6.631,6.335,6.668C6.32,6.667,6.306,6.664,6.291,6.664  c-0.267,0-0.509,0.198-0.587,0.48C5.458,8.03,5.334,8.95,5.336,9.878c0,0.382,0.276,0.692,0.614,0.692h0.008  c0.04,0,0.081-0.002,0.12-0.002c-0.002,1.569,0.116,3.138,0.356,4.698c0.026,0.168,0.155,0.305,0.323,0.336 C6.879,15.623,7,15.645,7.122,15.665v0.722c0,0.209,0.168,0.379,0.375,0.379h0.657c0.207,0,0.375-0.17,0.375-0.379v-0.523 c0.82,0.089,1.642,0.136,2.458,0.136c0.824,0,1.654-0.048,2.484-0.14v0.527c0,0.209,0.168,0.379,0.375,0.379h0.656  c0.207,0,0.375-0.17,0.375-0.379V15.66c0.113-0.02,0.227-0.038,0.338-0.061c0.168-0.031,0.299-0.166,0.324-0.336  c0.238-1.559,0.357-3.128,0.355-4.697c0.049,0,0.098,0.002,0.146,0.002h0.009c0.338,0,0.614-0.31,0.614-0.692 C16.666,8.95,16.543,8.03,16.297,7.144L16.297,7.144z M6.747,6.613c0.181-0.03,0.362-0.056,0.543-0.082 C7.771,6.133,9.249,5.64,10.974,5.64h0.014H11c1.725,0,3.204,0.493,3.684,0.891c0.183,0.026,0.362,0.053,0.543,0.082  c0.01,0.061,0.017,0.122,0.023,0.182c-0.072,0.025-0.143,0.051-0.215,0.077c-0.109,0.039-0.201,0.107-0.27,0.192  c-1.099-0.428-2.392-0.676-3.779-0.676c-1.378,0-2.664,0.246-3.758,0.668C7.161,6.975,7.071,6.91,6.965,6.872 c-0.081-0.028-0.16-0.057-0.239-0.086C6.733,6.728,6.739,6.67,6.747,6.613L6.747,6.613z M7.223,8.025h7.554l0.049,0.3 c-0.012,0.003-0.021,0.004-0.033,0.004H7.207c-0.01,0-0.021-0.001-0.031-0.003L7.223,8.025L7.223,8.025z M6.466,10.155  c-0.17,0.005-0.341,0.008-0.513,0.01H5.95c-0.1,0-0.212-0.123-0.212-0.288c-0.002-0.89,0.116-1.773,0.353-2.624 c0.03-0.108,0.112-0.184,0.2-0.184c0.018,0,0.036,0.003,0.055,0.01C6.508,7.14,6.67,7.198,6.832,7.253  c0.11,0.04,0.171,0.162,0.14,0.277C6.76,8.304,6.656,9.107,6.662,9.917C6.663,10.044,6.574,10.152,6.466,10.155L6.466,10.155z M15.143,15.202c-1.385,0.26-2.771,0.391-4.155,0.391c-1.386,0-2.771-0.131-4.156-0.391c-0.092-0.593-0.164-1.183-0.22-1.775h0.759 c0.19,0,0.43-0.122,0.505-0.303c0.168-0.401-0.15-0.995-0.331-1.34c-0.236-0.453-0.508-0.888-0.717-1.355 c0.121-0.099,0.205-0.245,0.228-0.413c0.791,1.835,2.4,3.411,3.959,3.411c1.885,0,3.793-0.813,4.43-1.112 C15.393,13.277,15.291,14.24,15.143,15.202L15.143,15.202z M16.05,10.165h-0.002c-0.173-0.001-0.344-0.004-0.514-0.009  c-0.108-0.003-0.196-0.111-0.196-0.238c0.008-0.81-0.098-1.613-0.309-2.387c-0.031-0.116,0.027-0.238,0.139-0.277 c0.162-0.056,0.324-0.114,0.488-0.174c0.018-0.007,0.035-0.01,0.054-0.01c0.088,0,0.17,0.076,0.199,0.184 c0.235,0.851,0.354,1.734,0.353,2.624C16.262,10.042,16.148,10.165,16.05,10.165L16.05,10.165z" class="black"/>
  </g>
  <g class="shop_mobility base-icon" transform="scale(0.7)">
    <path d="M22,11c0,6.075-4.925,11-11,11S0,17.075,0,11S4.925,0,11,0S22,4.925,22,11z" class="black" stroke="none" fill="#808285" stroke-width="0.5"/>
    <path d="M21,11c0,5.523-4.477,10-10,10C5.477,21,1,16.523,1,11C1,5.477,5.477,1,11,1C16.523,1,21,5.477,21,11z" class="white" stroke="none" fill="white" stroke-width="0.5"/>
    <path d="M12.418,14.014l-0.498-2.541H8.462l-0.127-0.819h2.036V9.81H8.205L7.956,8.207 c0.57-0.003,1.033-0.477,1.033-1.059c0-0.583-0.466-1.059-1.039-1.059c-0.573,0-1.039,0.475-1.039,1.059 c0,0.056,0.008,0.109,0.016,0.162L6.925,7.312l0.83,5.004h3.487l0.554,2.824l1.61-0.597l-0.283-0.793L12.418,14.014z" class="black" stroke="none" fill="#808285" stroke-width="0.5"/>
    <path d="M11.173,13.498c-0.21-0.091-0.453,0.009-0.542,0.223c-0.43,1.032-0.909,1.348-2.049,1.348 c-1.281,0-2.322-1.062-2.322-2.367c0-0.871,0.223-1.369,0.852-1.903c0.175-0.149,0.199-0.415,0.053-0.594 C7.018,10.024,6.757,10,6.582,10.149c-0.817,0.693-1.15,1.432-1.15,2.551c0,1.771,1.413,3.212,3.15,3.212 c1.465,0,2.253-0.521,2.811-1.861C11.482,13.837,11.384,13.589,11.173,13.498" class="black" stroke="none" fill="#808285" stroke-width="0.5"/>
    <path d="M14.955,15.348c-0.421,0-0.764-0.35-0.764-0.777s0.343-0.777,0.764-0.777s0.763,0.35,0.763,0.777 S15.376,15.348,14.955,15.348 M14.955,13.255c-0.711,0-1.29,0.591-1.29,1.313c0,0.725,0.579,1.314,1.29,1.314 s1.289-0.59,1.289-1.314C16.244,13.846,15.666,13.255,14.955,13.255" class="black" stroke="none" fill="#808285" stroke-width="0.5"/>
    <path d="M14.441,10.106l0.068,0.735h-0.428l-0.145-0.735H14.441z M14.593,11.7h-0.341l-0.113-0.585h0.399L14.593,11.7z M14.678,12.59h-0.252l-0.119-0.615h0.312L14.678,12.59z M15.492,10.106L15.4,10.841h-0.619l-0.07-0.735H15.492z M15.848,11.975 c0.019,0,0.035-0.004,0.051-0.011l-0.125,0.626H15.45l0.077-0.615H15.848z M15.637,11.115h0.43h0.002l-0.125,0.626 c-0.025-0.025-0.06-0.041-0.096-0.041h-0.285L15.637,11.115z M15.76,10.136c0.002-0.01,0.002-0.02,0.001-0.03h0.509l-0.149,0.747 c-0.017-0.007-0.034-0.011-0.054-0.011H15.67L15.76,10.136z M15.292,11.7h-0.429l-0.057-0.585h0.56L15.292,11.7z M15.18,12.59h-0.23 l-0.059-0.615h0.366L15.18,12.59z M13.666,13.02l0.757-0.154h0.362c0.017,0.006,0.035,0.009,0.055,0.007 c0.012-0.002,0.021-0.003,0.029-0.007h0.386c0.009,0.004,0.017,0.005,0.024,0.006c0.006,0.001,0.012,0.001,0.018,0.001 c0.016,0,0.029-0.002,0.042-0.007h0.544c0.064,0,0.119-0.047,0.133-0.109l0.551-2.758c0.008-0.041-0.004-0.083-0.028-0.114 c-0.024-0.032-0.063-0.051-0.104-0.051h-2.549h-0.111h-2.771v0.844h2.205L13.666,13.02z" class="black" stroke="none" fill="#808285" stroke-width="0.5"/>
  </g>
  <g class="toilets base-icon" transform="scale(0.7)">
    <path d="M22,11c0,6.075-4.925,11-11,11S0,17.075,0,11S4.925,0,11,0S22,4.925,22,11z" class="black" stroke="none" fill="#808285" stroke-width="0.5"/>
    <path d="M21,11c0,5.523-4.477,10-10,10C5.477,21,1,16.523,1,11C1,5.477,5.477,1,11,1C16.523,1,21,5.477,21,11z" class="white" stroke="none" fill="white" stroke-width="0.5"/>
    <path d="M7.3,12.711v3.176c0,0.124-0.041,0.229-0.118,0.303c-0.078,0.078-0.179,0.115-0.303,0.115 c-0.125,0-0.232-0.037-0.316-0.115c-0.089-0.074-0.13-0.179-0.13-0.303v-3.176H5.239l1.242-4.182H6.268 c-0.136,0.47-0.251,0.847-0.34,1.145c-0.082,0.298-0.171,0.58-0.249,0.853c-0.089,0.268-0.148,0.438-0.155,0.497 c-0.054,0.177-0.171,0.263-0.356,0.263l-0.094-0.023c-0.173-0.062-0.256-0.175-0.256-0.333c0-0.043,0.006-0.079,0.024-0.114 c0.012-0.031,0.047-0.136,0.089-0.314c0.048-0.177,0.112-0.397,0.19-0.652c0.077-0.26,0.16-0.541,0.249-0.843 c0.089-0.303,0.172-0.595,0.273-0.876c0.06-0.215,0.19-0.411,0.392-0.581c0.202-0.177,0.411-0.256,0.629-0.256h1.461 c0.226,0,0.445,0.08,0.642,0.256C8.958,7.72,9.095,7.916,9.171,8.132C9.253,8.414,9.337,8.706,9.42,9.008 C9.504,9.31,9.594,9.591,9.665,9.851c0.076,0.255,0.143,0.475,0.189,0.652c0.047,0.178,0.078,0.283,0.095,0.314l0.023,0.094 c0,0.19-0.089,0.303-0.261,0.353l-0.09,0.023c-0.188,0-0.309-0.085-0.355-0.263c-0.013-0.059-0.065-0.229-0.136-0.497 c-0.083-0.272-0.167-0.554-0.262-0.853C8.773,9.375,8.661,8.999,8.524,8.529H8.31l1.24,4.182H8.375v3.176 c0,0.124-0.036,0.229-0.131,0.303c-0.083,0.078-0.185,0.115-0.309,0.115c-0.131,0-0.227-0.037-0.309-0.115 c-0.078-0.074-0.113-0.179-0.113-0.303v-3.176H7.3L7.3,12.711z" class="black" stroke="none" fill="#808285" stroke-width="0.5"/>
    <path d="M7.418,7.033c0.25,0,0.465-0.081,0.631-0.252C8.221,6.605,8.31,6.388,8.31,6.126 c0-0.249-0.089-0.463-0.261-0.64c-0.166-0.181-0.38-0.272-0.631-0.272c-0.266,0-0.487,0.091-0.67,0.272 c-0.179,0.177-0.267,0.391-0.267,0.64c0,0.262,0.088,0.479,0.267,0.654C6.931,6.952,7.152,7.033,7.418,7.033L7.418,7.033z" class="black" stroke="none" fill="#808285" stroke-width="0.5"/>
    <path d="M13.977,7.268c-0.32,0-0.595,0.118-0.826,0.346c-0.231,0.238-0.352,0.515-0.352,0.823v2.85 c0,0.107,0.037,0.205,0.119,0.281c0.077,0.078,0.172,0.113,0.28,0.113c0.124,0,0.22-0.035,0.296-0.113 c0.066-0.076,0.102-0.174,0.102-0.281V8.739h0.209v7.056c0,0.137,0.06,0.262,0.172,0.357c0.105,0.106,0.23,0.152,0.373,0.152 c0.154,0,0.279-0.046,0.381-0.152c0.105-0.098,0.154-0.223,0.154-0.357v-4.091h0.23v4.091c0,0.137,0.054,0.262,0.154,0.357 c0.102,0.106,0.231,0.152,0.394,0.152c0.136,0,0.254-0.046,0.362-0.152c0.1-0.098,0.146-0.223,0.146-0.357V8.739h0.215v2.548 c0,0.107,0.035,0.205,0.106,0.281c0.084,0.078,0.184,0.113,0.291,0.113c0.125,0,0.221-0.035,0.292-0.113 c0.063-0.076,0.106-0.174,0.106-0.281v-2.85c0-0.308-0.113-0.585-0.346-0.823c-0.227-0.229-0.499-0.346-0.831-0.346H13.977 L13.977,7.268z" class="black" stroke="none" fill="#808285" stroke-width="0.5"/>
    <path d="M14.997,7.033c0.25,0,0.469-0.081,0.647-0.252c0.176-0.175,0.267-0.392,0.267-0.654 c0-0.249-0.091-0.463-0.267-0.64c-0.18-0.181-0.397-0.272-0.647-0.272c-0.261,0-0.481,0.091-0.647,0.272 c-0.178,0.177-0.261,0.391-0.261,0.64c0,0.262,0.083,0.479,0.261,0.654C14.516,6.952,14.736,7.033,14.997,7.033L14.997,7.033z" class="black" stroke="none" fill="#808285" stroke-width="0.5"/>
    <path d="M10.961,4.485h0.902v13.029h-0.902V4.485z" class="black" stroke="none" fill="#808285" stroke-width="0.5"/>
  </g>

  <!-- Areas -->
  <g transform="translate(0,42)">
  </g>
</svg>
