<svg
  xmlns="http://www.w3.org/2000/svg"
  xmlns:xlink="http://www.w3.org/1999/xlink"
  id="centre-map"
  version="1.1"
  >

  <!-- Icons -->
  <g class="baby_changing base-icon" transform="scale(0.7)">
    <path d="M22,11c0,6.075-4.925,11-11,11S0,17.075,0,11S4.925,0,11,0S22,4.925,22,11z" class="black" stroke="none" fill="#808285" stroke-width="0.5"/>
    <path d="M21,11c0,5.523-4.477,10-10,10C5.477,21,1,16.523,1,11C1,5.477,5.477,1,11,1C16.523,1,21,5.477,21,11z" class="white" stroke="none" fill="white" stroke-width="0.5"/>
    <path d="M10.991,5.092c-0.304,0-0.566,0.121-0.691,0.297l0,0C9.678,5.653,9.243,6.254,9.243,6.956l0,0 c0,0.944,0.787,1.708,1.758,1.708l0,0c0.972,0,1.757-0.764,1.757-1.708l0,0c0-0.702-0.438-1.304-1.058-1.567l0,0 c0.173-0.237,0.021-0.658,0.021-0.658l0,0C11.618,4.939,11.33,5.092,10.991,5.092L10.991,5.092z M7.062,8.973 c-0.439,0-0.723,0.274-0.723,0.635l0,0c0,0.377,0.283,0.651,0.723,0.651l0,0h2.146v1.812c0.204-0.154,0.594-0.358,1.086-0.17l0,0 c0.683,0.263,1.435,0.841,2.47,0.455l0,0v-2.097h2.172c0.426,0,0.727-0.274,0.727-0.651l0,0c0-0.361-0.301-0.635-0.727-0.635l0,0 H7.062z M11.641,13.884l1.063,1.027l-0.638,1.399c-0.172,0.377-0.034,0.754,0.305,0.898l0,0c0.355,0.15,0.734-0.004,0.906-0.38l0,0 l0.81-1.779c-0.001,0-0.001,0-0.001,0l0,0c0.123-0.249,0.07-0.549-0.168-0.78l0,0l-1.152-1.113L11.641,13.884z M8.09,14.271 c-0.24,0.23-0.293,0.53-0.167,0.779l0,0H7.921l0.81,1.779c0.17,0.376,0.549,0.531,0.905,0.38l0,0 c0.339-0.146,0.477-0.522,0.305-0.897l0,0l-0.637-1.4l1.065-1.027h0.024l-1.184-0.693L8.09,14.271z" class="black" stroke="none" fill="#808285" stroke-width="0.5"/>
  </g>
  <g class="cash_machine base-icon" transform="scale(0.7)">
    <path d="M22,11c0,6.075-4.925,11-11,11S0,17.075,0,11S4.925,0,11,0S22,4.925,22,11z" class="black" stroke="none" fill="#808285" stroke-width="0.5"/>
    <path d="M21,11c0,5.523-4.477,10-10,10C5.477,21,1,16.523,1,11C1,5.477,5.477,1,11,1C16.523,1,21,5.477,21,11z" class="white" stroke="none" fill="white" stroke-width="0.5"/>
    <path d="M17.625,6.652H4.375v4.488H7.42l1.668-3.366h4.729l-0.709,1.402h0.988l-0.957,1.964h4.486V6.652z" class="black" stroke="none" fill="#808285" stroke-width="0.5"/>
    <path d="M13.252,8.896l-0.145,0.268l-0.151,0.293h0.663l-2.693,5.33H6.854l0.599-1.121H7.087h-0.29L5.9,15.349h5.385l3.289-6.451 L13.252,8.896L13.252,8.896z" class="black" stroke="none" fill="#808285" stroke-width="0.5"/>
    <path d="M11.005,13.945H5.62l3.29-6.452h5.386L11.005,13.945L11.005,13.945z M6.574,13.384h4.073l2.694-5.329H9.268L6.574,13.384 L6.574,13.384z" class="black" stroke="none" fill="#808285" stroke-width="0.5"/>
    <path d="M10.282,10.618L9.75,10.504c-0.005-0.138-0.01-0.273,0.015-0.393c0.043-0.204,0.202-0.289,0.384-0.25 c0.128,0.027,0.195,0.068,0.257,0.101c0.038,0.02,0.088,0.049,0.132,0.059c0.116,0.025,0.23-0.062,0.255-0.178 c0.014-0.065,0.005-0.113-0.033-0.167c-0.079-0.112-0.316-0.235-0.553-0.285C9.782,9.299,9.395,9.488,9.301,9.929 c-0.033,0.156-0.009,0.314,0.005,0.481l-0.15-0.032c-0.109-0.024-0.196,0.027-0.219,0.136c-0.023,0.109,0.036,0.19,0.145,0.214 l0.215,0.045c-0.004,0.019-0.004,0.038-0.007,0.052c-0.053,0.251-0.159,0.374-0.262,0.5c-0.108,0.127-0.159,0.207-0.174,0.276 c-0.022,0.105,0.019,0.252,0.234,0.297l1.071,0.229c0.135,0.027,0.254-0.029,0.284-0.172c0.03-0.143-0.062-0.246-0.189-0.273 l-0.835-0.177c0.139-0.15,0.267-0.325,0.319-0.569c0.005-0.022,0.01-0.043,0.011-0.066l0.459,0.098 c0.109,0.023,0.196-0.027,0.219-0.136C10.451,10.722,10.406,10.644,10.282,10.618z" class="black" stroke="none" fill="#808285" stroke-width="0.5"/>
  </g>
  <g class="click_and_collect base-icon" transform="scale(0.7)">
    <path d="M22,11c0,6.075-4.925,11-11,11S0,17.075,0,11S4.925,0,11,0S22,4.925,22,11z" class="black" stroke="none" fill="#808285" stroke-width="0.5"/>
    <path d="M21,11c0,5.523-4.477,10-10,10C5.477,21,1,16.523,1,11C1,5.477,5.477,1,11,1C16.523,1,21,5.477,21,11z" class="white" stroke="none" fill="white" stroke-width="0.5"/>
    <path d="M11.394,4.638h-0.085v1.486c0.81,0.132,1.423,0.765,1.423,1.53v2.012c0,0.861-0.774,1.559-1.731,1.559 c-0.958,0-1.733-0.698-1.733-1.559V7.654c0-0.729,0.56-1.336,1.312-1.506v-1.51C8.665,4.653,7.116,6.2,7.116,8.109v5.782 c0,1.918,1.562,3.473,3.491,3.473h0.787c1.928,0,3.49-1.555,3.49-3.473V8.109C14.884,6.19,13.32,4.638,11.394,4.638L11.394,4.638z" id="Shape" class="black" stroke="none" fill="#808285" stroke-width="0.5"/>
    <path d="M9.94,7.979V9.34c0,0.583,0.475,1.055,1.06,1.055s1.061-0.472,1.061-1.055V7.979 c0-0.582-0.476-1.054-1.061-1.054S9.94,7.397,9.94,7.979L9.94,7.979z" id="Shape_1_" class="black" stroke="none" fill="#808285" stroke-width="0.5"/>
  </g>
  <g class="customer_services base-icon" transform="scale(0.7)">
    <path class="black" fill="#808285" d="M22,11c0,6.075-4.925,11-11,11S0,17.075,0,11S4.925,0,11,0S22,4.925,22,11z"/>
    <path class="white" fill="#FFFFFF" d="M21,11c0,5.523-4.477,10-10,10C5.477,21,1,16.523,1,11C1,5.477,5.477,1,11,1C16.523,1,21,5.477,21,11z"/>
    <path class="black" fill="#808285" d="M15.946,8.218C15.1,6.283,13.203,4.93,11,4.93S6.9,6.283,6.054,8.218C4.924,8.389,4.062,9.274,4.062,10.35 c0,1.057,0.834,1.935,1.936,2.126c0.376,1.044,1.068,2.215,2.252,3.062c-0.033,0.109-0.068,0.219-0.068,0.339 c0,0.658,0.534,1.192,1.192,1.192s1.192-0.534,1.192-1.192s-0.534-1.192-1.192-1.192c-0.328,0-0.625,0.133-0.84,0.348 c-1.136-0.828-1.769-1.988-2.087-2.973V8.827c0.667-1.923,2.446-3.312,4.552-3.312c2.107,0,3.887,1.391,4.554,3.315v3.687 c1.317,0,2.385-0.971,2.385-2.167C17.938,9.274,17.076,8.389,15.946,8.218z"/>
    <path class="black" fill="#808285" d="M13.255,10.448c-1.425,0-2.644-0.841-3.22-2.05c-0.474,0.999-1.387,1.748-2.497,1.977 c0,0.025-0.007,0.048-0.007,0.074c0,1.98,1.601,3.587,3.577,3.587s3.578-1.606,3.578-3.587c0-0.099-0.021-0.191-0.028-0.288 C14.227,10.345,13.753,10.448,13.255,10.448L13.255,10.448z"/>
  </g>
  <g class="disabled_toilets base-icon" transform="scale(0.7)">
    <path class="black" fill="#808285" d="M22,11c0,6.075-4.925,11-11,11S0,17.075,0,11S4.925,0,11,0S22,4.925,22,11z"/>
    <path class="white" fill="#FFFFFF" d="M21,11c0,5.523-4.477,10-10,10C5.477,21,1,16.523,1,11C1,5.477,5.477,1,11,1C16.523,1,21,5.477,21,11z"/>
    <path class="black" fill="#808285" d="M15.819,15.12l0.003,0.005l-0.752,0.478l-0.465,0.3l-0.002-0.003L14.6,15.902l-2.346-3.657H8.486V7.633 c-0.384-0.24-0.64-0.665-0.64-1.149c0-0.75,0.611-1.359,1.365-1.359c0.754,0,1.365,0.608,1.365,1.359 c0,0.484-0.255,0.909-0.639,1.149v1.299h3.483v1.444H9.937V10.8h3.112l1.99,3.103l0.798-0.515l0.762,1.229L15.819,15.12z M9.382,15.672c-1.528,0-2.771-1.238-2.771-2.76c0-1.021,0.562-1.913,1.392-2.39V9.194c-1.519,0.559-2.601,2.012-2.601,3.718 c0,2.188,1.782,3.963,3.98,3.963c1.679,0,3.114-1.035,3.699-2.499l-0.928-1.448C12.145,14.442,10.905,15.672,9.382,15.672z"/>
  </g>
  <g class="elevator base-icon" transform="scale(0.7)">
    <path d="M22,11c0,6.075-4.925,11-11,11S0,17.075,0,11S4.925,0,11,0S22,4.925,22,11z" class="black" stroke="none" fill="#808285" stroke-width="0.5"/>
    <path d="M21,11c0,5.523-4.477,10-10,10C5.477,21,1,16.523,1,11C1,5.477,5.477,1,11,1C16.523,1,21,5.477,21,11z" class="white" stroke="none" fill="white" stroke-width="0.5"/>
    <path d="M15.307,9.513H6.693c-0.728,0-1.318,0.416-1.318,0.93v5.577c0,0.515,0.59,0.932,1.318,0.932h8.614 c0.729,0,1.317-0.417,1.317-0.932v-5.577C16.625,9.929,16.034,9.513,15.307,9.513L15.307,9.513z M15.758,16.02 c0,0.104-0.122,0.188-0.273,0.188H6.517c-0.152,0-0.275-0.083-0.275-0.188v-5.577c0-0.103,0.123-0.186,0.275-0.186h8.965 c0.151,0,0.273,0.083,0.273,0.186L15.758,16.02L15.758,16.02z" class="black" stroke="none" fill="#808285" stroke-width="0.5"/>
    <path d="M8.298,11c0.216,0,0.391,0.167,0.391,0.372c0,0.206-0.175,0.372-0.391,0.372c-0.216,0-0.391-0.166-0.391-0.372 C7.907,11.167,8.082,11,8.298,11z" class="black" stroke="none" fill="#808285" stroke-width="0.5"/>
    <path d="M10.873,11c0.216,0,0.391,0.167,0.391,0.372c0,0.206-0.175,0.372-0.391,0.372s-0.391-0.166-0.391-0.372 C10.482,11.167,10.657,11,10.873,11z" class="black" stroke="none" fill="#808285" stroke-width="0.5"/>
    <path d="M13.635,11c0.217,0,0.391,0.167,0.391,0.372c0,0.206-0.174,0.372-0.391,0.372c-0.216,0-0.391-0.166-0.391-0.372 C13.244,11.167,13.419,11,13.635,11z" class="black" stroke="none" fill="#808285" stroke-width="0.5"/>
    <path d="M8.805,11.867H7.762c-0.144,0-0.261,0.119-0.261,0.266v1.328c0,0.124,0.083,0.229,0.196,0.257v1.62 c0,0.137,0.117,0.248,0.26,0.248c0.145,0,0.261-0.111,0.261-0.248v-1.611h0.13v1.611c0,0.137,0.117,0.248,0.261,0.248 s0.261-0.111,0.261-0.248v-1.62c0.112-0.028,0.196-0.133,0.196-0.257v-1.328C9.066,11.986,8.949,11.867,8.805,11.867L8.805,11.867z" class="black" stroke="none" fill="#808285" stroke-width="0.5"/>
    <path d="M11.379,11.867h-1.042c-0.144,0-0.261,0.119-0.261,0.266v1.328c0,0.124,0.083,0.229,0.196,0.257v1.62 c0,0.137,0.117,0.248,0.26,0.248c0.145,0,0.261-0.111,0.261-0.248v-1.611h0.13v1.611c0,0.137,0.117,0.248,0.261,0.248 s0.26-0.111,0.26-0.248v-1.62c0.113-0.028,0.197-0.133,0.197-0.257v-1.328C11.641,11.986,11.523,11.867,11.379,11.867L11.379,11.867 z" class="black" stroke="none" fill="#808285" stroke-width="0.5"/>
    <path d="M14.143,11.867H13.1c-0.145,0-0.261,0.119-0.261,0.266v1.328c0,0.124,0.082,0.229,0.194,0.257v1.62 c0,0.137,0.117,0.248,0.262,0.248s0.262-0.111,0.262-0.248v-1.611h0.129v1.611c0,0.137,0.117,0.248,0.263,0.248 c0.144,0,0.261-0.111,0.261-0.248v-1.62c0.111-0.028,0.193-0.133,0.193-0.257v-1.328C14.402,11.986,14.286,11.867,14.143,11.867 L14.143,11.867z" class="black" stroke="none" fill="#808285" stroke-width="0.5"/>
    <path d="M10.257,6.436l-1.303-1.24c-0.204-0.194-0.534-0.194-0.737,0l0,0l-1.304,1.24 c-0.203,0.194-0.203,0.508,0,0.701c0.204,0.193,0.534,0.193,0.738,0l0.413-0.393v1.777c0,0.274,0.233,0.496,0.521,0.496 s0.521-0.222,0.521-0.496V6.744L9.52,7.137c0.204,0.193,0.534,0.193,0.737,0C10.46,6.944,10.461,6.629,10.257,6.436L10.257,6.436z" class="black" stroke="none" fill="#808285" stroke-width="0.5"/>
    <path d="M14.99,6.931c-0.203-0.193-0.533-0.193-0.737,0L13.84,7.324V5.547c0-0.274-0.232-0.496-0.521-0.496 c-0.285,0-0.521,0.222-0.521,0.496v1.777l-0.414-0.393c-0.202-0.193-0.532-0.193-0.737,0c-0.203,0.194-0.203,0.508,0,0.702 l1.306,1.239l0,0c0.038,0.037,0.081,0.066,0.126,0.089c0.195,0.098,0.443,0.069,0.609-0.089l0,0l1.305-1.239 C15.193,7.439,15.193,7.125,14.99,6.931L14.99,6.931z" class="black" stroke="none" fill="#808285" stroke-width="0.5"/>
  </g>
  <g class="lift base-icon" transform="scale(0.7)">
    <path d="M22,11c0,6.075-4.925,11-11,11S0,17.075,0,11S4.925,0,11,0S22,4.925,22,11z" class="black" stroke="none" fill="#808285" stroke-width="0.5"/>
    <path d="M21,11c0,5.523-4.477,10-10,10C5.477,21,1,16.523,1,11C1,5.477,5.477,1,11,1C16.523,1,21,5.477,21,11z" class="white" stroke="none" fill="white" stroke-width="0.5"/>
    <path d="M15.307,9.513H6.693c-0.728,0-1.318,0.416-1.318,0.93v5.577c0,0.515,0.59,0.932,1.318,0.932h8.614 c0.729,0,1.317-0.417,1.317-0.932v-5.577C16.625,9.929,16.034,9.513,15.307,9.513L15.307,9.513z M15.758,16.02 c0,0.104-0.122,0.188-0.273,0.188H6.517c-0.152,0-0.275-0.083-0.275-0.188v-5.577c0-0.103,0.123-0.186,0.275-0.186h8.965 c0.151,0,0.273,0.083,0.273,0.186L15.758,16.02L15.758,16.02z" class="black" stroke="none" fill="#808285" stroke-width="0.5"/>
    <path d="M8.298,11c0.216,0,0.391,0.167,0.391,0.372c0,0.206-0.175,0.372-0.391,0.372c-0.216,0-0.391-0.166-0.391-0.372 C7.907,11.167,8.082,11,8.298,11z" class="black" stroke="none" fill="#808285" stroke-width="0.5"/>
    <path d="M10.873,11c0.216,0,0.391,0.167,0.391,0.372c0,0.206-0.175,0.372-0.391,0.372s-0.391-0.166-0.391-0.372 C10.482,11.167,10.657,11,10.873,11z" class="black" stroke="none" fill="#808285" stroke-width="0.5"/>
    <path d="M13.635,11c0.217,0,0.391,0.167,0.391,0.372c0,0.206-0.174,0.372-0.391,0.372c-0.216,0-0.391-0.166-0.391-0.372 C13.244,11.167,13.419,11,13.635,11z" class="black" stroke="none" fill="#808285" stroke-width="0.5"/>
    <path d="M8.805,11.867H7.762c-0.144,0-0.261,0.119-0.261,0.266v1.328c0,0.124,0.083,0.229,0.196,0.257v1.62 c0,0.137,0.117,0.248,0.26,0.248c0.145,0,0.261-0.111,0.261-0.248v-1.611h0.13v1.611c0,0.137,0.117,0.248,0.261,0.248 s0.261-0.111,0.261-0.248v-1.62c0.112-0.028,0.196-0.133,0.196-0.257v-1.328C9.066,11.986,8.949,11.867,8.805,11.867L8.805,11.867z" class="black" stroke="none" fill="#808285" stroke-width="0.5"/>
    <path d="M11.379,11.867h-1.042c-0.144,0-0.261,0.119-0.261,0.266v1.328c0,0.124,0.083,0.229,0.196,0.257v1.62 c0,0.137,0.117,0.248,0.26,0.248c0.145,0,0.261-0.111,0.261-0.248v-1.611h0.13v1.611c0,0.137,0.117,0.248,0.261,0.248 s0.26-0.111,0.26-0.248v-1.62c0.113-0.028,0.197-0.133,0.197-0.257v-1.328C11.641,11.986,11.523,11.867,11.379,11.867L11.379,11.867 z" class="black" stroke="none" fill="#808285" stroke-width="0.5"/>
    <path d="M14.143,11.867H13.1c-0.145,0-0.261,0.119-0.261,0.266v1.328c0,0.124,0.082,0.229,0.194,0.257v1.62 c0,0.137,0.117,0.248,0.262,0.248s0.262-0.111,0.262-0.248v-1.611h0.129v1.611c0,0.137,0.117,0.248,0.263,0.248 c0.144,0,0.261-0.111,0.261-0.248v-1.62c0.111-0.028,0.193-0.133,0.193-0.257v-1.328C14.402,11.986,14.286,11.867,14.143,11.867 L14.143,11.867z" class="black" stroke="none" fill="#808285" stroke-width="0.5"/>
    <path d="M10.257,6.436l-1.303-1.24c-0.204-0.194-0.534-0.194-0.737,0l0,0l-1.304,1.24 c-0.203,0.194-0.203,0.508,0,0.701c0.204,0.193,0.534,0.193,0.738,0l0.413-0.393v1.777c0,0.274,0.233,0.496,0.521,0.496 s0.521-0.222,0.521-0.496V6.744L9.52,7.137c0.204,0.193,0.534,0.193,0.737,0C10.46,6.944,10.461,6.629,10.257,6.436L10.257,6.436z" class="black" stroke="none" fill="#808285" stroke-width="0.5"/>
    <path d="M14.99,6.931c-0.203-0.193-0.533-0.193-0.737,0L13.84,7.324V5.547c0-0.274-0.232-0.496-0.521-0.496 c-0.285,0-0.521,0.222-0.521,0.496v1.777l-0.414-0.393c-0.202-0.193-0.532-0.193-0.737,0c-0.203,0.194-0.203,0.508,0,0.702 l1.306,1.239l0,0c0.038,0.037,0.081,0.066,0.126,0.089c0.195,0.098,0.443,0.069,0.609-0.089l0,0l1.305-1.239 C15.193,7.439,15.193,7.125,14.99,6.931L14.99,6.931z" class="black" stroke="none" fill="#808285" stroke-width="0.5"/>
  </g>
  <g class="escalator base-icon" transform="scale(0.7)">
    <path d="M22,11c0,6.075-4.925,11-11,11S0,17.075,0,11S4.925,0,11,0S22,4.925,22,11z" class="black" stroke="none" fill="#808285" stroke-width="0.5"/>
    <path d="M21,11c0,5.523-4.477,10-10,10C5.477,21,1,16.523,1,11C1,5.477,5.477,1,11,1C16.523,1,21,5.477,21,11z" class="white" stroke="none" fill="white" stroke-width="0.5"/>
    <path d="M10.045,7.51c0.464,0,0.849-0.413,0.849-0.952c0-0.521-0.384-0.953-0.849-0.953 c-0.465,0-0.849,0.432-0.849,0.953C9.196,7.097,9.58,7.51,10.045,7.51 M8.523,15.356c-0.1,0.104-0.352,0.191-0.501,0.191H6.014 c-0.468,0-0.853-0.401-0.853-0.892c0-0.491,0.385-0.895,0.853-0.895h1.154c0.335,0,0.687-0.192,0.871-0.385 c0.3-0.314,5.354-5.569,5.438-5.673c0.101-0.106,0.352-0.193,0.502-0.193h2.007c0.468,0,0.854,0.403,0.854,0.893 c0,0.49-0.386,0.894-0.854,0.894h-1.153c-0.336,0-0.687,0.192-0.889,0.386C13.659,9.997,8.607,15.268,8.523,15.356 M14.579,10.33 c0.115-0.104,0.2-0.139,0.366-0.139h1.054c0.936,0,1.688-0.782,1.688-1.772c0-0.973-0.753-1.755-1.688-1.755h-1.973 c-0.485,0-0.937,0.209-1.204,0.486l-1.956,2.034V8.609c0-0.504-0.402-0.921-0.887-0.921S9.094,8.105,9.094,8.609v2.381l-1.655,1.72 c-0.101,0.104-0.201,0.14-0.369,0.14H6.017c-0.936,0-1.705,0.799-1.705,1.774c0,0.972,0.752,1.771,1.705,1.771H7.99 c0.485,0,0.937-0.226,1.205-0.486C9.511,15.579,14.495,10.434,14.579,10.33" id="Shape" class="black" stroke="none" fill="#808285" stroke-width="0.5"/>
  </g>
  <g class="parking base-icon" transform="scale(0.7)">
    <path d="M22,11c0,6.075-4.925,11-11,11S0,17.075,0,11S4.925,0,11,0S22,4.925,22,11z" class="black" stroke="none" fill="#808285" stroke-width="0.5"/>
    <path d="M21,11c0,5.523-4.477,10-10,10C5.477,21,1,16.523,1,11C1,5.477,5.477,1,11,1C16.523,1,21,5.477,21,11z" class="white" stroke="none" fill="white" stroke-width="0.5"/>
    <path d="M12.096,6.256H7.95v9.848h2.098v-3.318h2.048c1.588,0,2.931-1.316,2.931-2.872 l0.004-0.791C15.03,7.571,13.686,6.259,12.096,6.256L12.096,6.256z M12.933,9.919c0,0.413-0.414,0.819-0.837,0.819h-2.048V8.308 h2.048l0.072-0.001c0.373,0.038,0.722,0.377,0.765,0.741V9.919L12.933,9.919z" id="Shape_1_" class="black" stroke="none" fill="#808285" stroke-width="0.5"/>
  </g>
  <g class="public_telephone base-icon" transform="scale(0.7)">
    <path d="M22,11c0,6.075-4.925,11-11,11S0,17.075,0,11S4.925,0,11,0S22,4.925,22,11z" class="black" stroke="none" fill="#808285" stroke-width="0.5"/>
    <path d="M21,11c0,5.523-4.477,10-10,10C5.477,21,1,16.523,1,11C1,5.477,5.477,1,11,1C16.523,1,21,5.477,21,11z" class="white" stroke="none" fill="white" stroke-width="0.5"/>
    <path d="M16.509,16.453c-1.022,1.599-2.764,1.604-3.314,1.506 c-0.162-0.028-2.707-0.339-5.724-4.416c-2.429-3.28-2.26-6.317-2.192-6.887C5.346,6.1,5.747,4.746,7.828,4.055 c0.258-0.085,0.734-0.06,0.833,0.083C8.706,4.2,9.837,7.105,9.864,7.2s0.032,0.184,0.018,0.267C9.86,7.587,9.749,7.721,9.546,7.871 S9.129,8.152,8.902,8.267C8.674,8.381,8.46,8.508,8.26,8.645c-0.2,0.138-0.31,0.261-0.329,0.369 c-0.038,0.282,0.015,1.325,1.491,3.168c1.476,1.843,2.241,2.424,2.318,2.469c0.075,0.044,0.14,0.07,0.193,0.08 c0.108,0.02,0.262-0.043,0.459-0.184c0.198-0.141,0.898-0.814,1.108-0.954c0.209-0.139,0.374-0.198,0.495-0.177 c0.084,0.015,0.165,0.051,0.244,0.108c0.08,0.057,2.436,2.058,2.477,2.118C16.828,15.806,16.656,16.225,16.509,16.453" id="Shape" class="black" stroke="none" fill="#808285" stroke-width="0.5"/>
  </g>
  <g class="public_transport base-icon" transform="scale(0.7)">
    <path fill="#808285" d="M22,11c0,6.075-4.925,11-11,11S0,17.075,0,11S4.925,0,11,0S22,4.925,22,11z" class="black"/>
    <path fill="#FFF" d="M21,11c0,5.523-4.477,10-10,10C5.477,21,1,16.523,1,11C1,5.477,5.477,1,11,1C16.523,1,21,5.477,21,11z" class="white"/>
    <path fill="#808285" d="M8.948,14.255c-0.231,0-0.418,0.188-0.418,0.422c0,0.234,0.187,0.423,0.418,0.423 c0.231,0,0.418-0.188,0.418-0.423C9.366,14.443,9.18,14.255,8.948,14.255" class="black"/>
    <path fill="#808285" d="M7.924,14.346c-0.183,0-0.33,0.147-0.33,0.33c0,0.186,0.147,0.333,0.33,0.333 c0.182,0,0.329-0.147,0.329-0.333C8.253,14.493,8.106,14.346,7.924,14.346" class="black"/>
    <path fill="#808285" d="M13.052,15.1c0.231,0,0.419-0.188,0.419-0.424c0-0.232-0.188-0.421-0.419-0.421 c-0.229,0-0.419,0.188-0.419,0.421C12.633,14.91,12.82,15.1,13.052,15.1" class="black"/>
    <path fill="#808285" d="M14.076,15.009c0.183,0,0.33-0.147,0.33-0.332c0-0.184-0.147-0.331-0.33-0.331  c-0.184,0-0.329,0.147-0.329,0.331C13.747,14.861,13.895,15.009,14.076,15.009" class="black"/>
    <path fill="#808285" d="M16.297,7.144c-0.078-0.283-0.32-0.48-0.587-0.48c-0.024,0-0.047,0.004-0.071,0.007 c-0.004-0.038-0.009-0.075-0.014-0.112c-0.023-0.177-0.159-0.317-0.335-0.346c-0.147-0.024-0.298-0.046-0.446-0.068 C14.201,5.69,12.695,5.235,11,5.235h-0.014h-0.012c-1.695,0-3.201,0.456-3.843,0.909c-0.15,0.022-0.299,0.045-0.447,0.068 C6.508,6.241,6.373,6.381,6.349,6.558C6.344,6.595,6.34,6.631,6.335,6.668C6.32,6.667,6.306,6.664,6.291,6.664  c-0.267,0-0.509,0.198-0.587,0.48C5.458,8.03,5.334,8.95,5.336,9.878c0,0.382,0.276,0.692,0.614,0.692h0.008  c0.04,0,0.081-0.002,0.12-0.002c-0.002,1.569,0.116,3.138,0.356,4.698c0.026,0.168,0.155,0.305,0.323,0.336 C6.879,15.623,7,15.645,7.122,15.665v0.722c0,0.209,0.168,0.379,0.375,0.379h0.657c0.207,0,0.375-0.17,0.375-0.379v-0.523 c0.82,0.089,1.642,0.136,2.458,0.136c0.824,0,1.654-0.048,2.484-0.14v0.527c0,0.209,0.168,0.379,0.375,0.379h0.656  c0.207,0,0.375-0.17,0.375-0.379V15.66c0.113-0.02,0.227-0.038,0.338-0.061c0.168-0.031,0.299-0.166,0.324-0.336  c0.238-1.559,0.357-3.128,0.355-4.697c0.049,0,0.098,0.002,0.146,0.002h0.009c0.338,0,0.614-0.31,0.614-0.692 C16.666,8.95,16.543,8.03,16.297,7.144L16.297,7.144z M6.747,6.613c0.181-0.03,0.362-0.056,0.543-0.082 C7.771,6.133,9.249,5.64,10.974,5.64h0.014H11c1.725,0,3.204,0.493,3.684,0.891c0.183,0.026,0.362,0.053,0.543,0.082  c0.01,0.061,0.017,0.122,0.023,0.182c-0.072,0.025-0.143,0.051-0.215,0.077c-0.109,0.039-0.201,0.107-0.27,0.192  c-1.099-0.428-2.392-0.676-3.779-0.676c-1.378,0-2.664,0.246-3.758,0.668C7.161,6.975,7.071,6.91,6.965,6.872 c-0.081-0.028-0.16-0.057-0.239-0.086C6.733,6.728,6.739,6.67,6.747,6.613L6.747,6.613z M7.223,8.025h7.554l0.049,0.3 c-0.012,0.003-0.021,0.004-0.033,0.004H7.207c-0.01,0-0.021-0.001-0.031-0.003L7.223,8.025L7.223,8.025z M6.466,10.155  c-0.17,0.005-0.341,0.008-0.513,0.01H5.95c-0.1,0-0.212-0.123-0.212-0.288c-0.002-0.89,0.116-1.773,0.353-2.624 c0.03-0.108,0.112-0.184,0.2-0.184c0.018,0,0.036,0.003,0.055,0.01C6.508,7.14,6.67,7.198,6.832,7.253  c0.11,0.04,0.171,0.162,0.14,0.277C6.76,8.304,6.656,9.107,6.662,9.917C6.663,10.044,6.574,10.152,6.466,10.155L6.466,10.155z M15.143,15.202c-1.385,0.26-2.771,0.391-4.155,0.391c-1.386,0-2.771-0.131-4.156-0.391c-0.092-0.593-0.164-1.183-0.22-1.775h0.759 c0.19,0,0.43-0.122,0.505-0.303c0.168-0.401-0.15-0.995-0.331-1.34c-0.236-0.453-0.508-0.888-0.717-1.355 c0.121-0.099,0.205-0.245,0.228-0.413c0.791,1.835,2.4,3.411,3.959,3.411c1.885,0,3.793-0.813,4.43-1.112 C15.393,13.277,15.291,14.24,15.143,15.202L15.143,15.202z M16.05,10.165h-0.002c-0.173-0.001-0.344-0.004-0.514-0.009  c-0.108-0.003-0.196-0.111-0.196-0.238c0.008-0.81-0.098-1.613-0.309-2.387c-0.031-0.116,0.027-0.238,0.139-0.277 c0.162-0.056,0.324-0.114,0.488-0.174c0.018-0.007,0.035-0.01,0.054-0.01c0.088,0,0.17,0.076,0.199,0.184 c0.235,0.851,0.354,1.734,0.353,2.624C16.262,10.042,16.148,10.165,16.05,10.165L16.05,10.165z" class="black"/>
  </g>
  <g class="shop_mobility base-icon" transform="scale(0.7)">
    <path d="M22,11c0,6.075-4.925,11-11,11S0,17.075,0,11S4.925,0,11,0S22,4.925,22,11z" class="black" stroke="none" fill="#808285" stroke-width="0.5"/>
    <path d="M21,11c0,5.523-4.477,10-10,10C5.477,21,1,16.523,1,11C1,5.477,5.477,1,11,1C16.523,1,21,5.477,21,11z" class="white" stroke="none" fill="white" stroke-width="0.5"/>
    <path d="M12.418,14.014l-0.498-2.541H8.462l-0.127-0.819h2.036V9.81H8.205L7.956,8.207 c0.57-0.003,1.033-0.477,1.033-1.059c0-0.583-0.466-1.059-1.039-1.059c-0.573,0-1.039,0.475-1.039,1.059 c0,0.056,0.008,0.109,0.016,0.162L6.925,7.312l0.83,5.004h3.487l0.554,2.824l1.61-0.597l-0.283-0.793L12.418,14.014z" class="black" stroke="none" fill="#808285" stroke-width="0.5"/>
    <path d="M11.173,13.498c-0.21-0.091-0.453,0.009-0.542,0.223c-0.43,1.032-0.909,1.348-2.049,1.348 c-1.281,0-2.322-1.062-2.322-2.367c0-0.871,0.223-1.369,0.852-1.903c0.175-0.149,0.199-0.415,0.053-0.594 C7.018,10.024,6.757,10,6.582,10.149c-0.817,0.693-1.15,1.432-1.15,2.551c0,1.771,1.413,3.212,3.15,3.212 c1.465,0,2.253-0.521,2.811-1.861C11.482,13.837,11.384,13.589,11.173,13.498" class="black" stroke="none" fill="#808285" stroke-width="0.5"/>
    <path d="M14.955,15.348c-0.421,0-0.764-0.35-0.764-0.777s0.343-0.777,0.764-0.777s0.763,0.35,0.763,0.777 S15.376,15.348,14.955,15.348 M14.955,13.255c-0.711,0-1.29,0.591-1.29,1.313c0,0.725,0.579,1.314,1.29,1.314 s1.289-0.59,1.289-1.314C16.244,13.846,15.666,13.255,14.955,13.255" class="black" stroke="none" fill="#808285" stroke-width="0.5"/>
    <path d="M14.441,10.106l0.068,0.735h-0.428l-0.145-0.735H14.441z M14.593,11.7h-0.341l-0.113-0.585h0.399L14.593,11.7z M14.678,12.59h-0.252l-0.119-0.615h0.312L14.678,12.59z M15.492,10.106L15.4,10.841h-0.619l-0.07-0.735H15.492z M15.848,11.975 c0.019,0,0.035-0.004,0.051-0.011l-0.125,0.626H15.45l0.077-0.615H15.848z M15.637,11.115h0.43h0.002l-0.125,0.626 c-0.025-0.025-0.06-0.041-0.096-0.041h-0.285L15.637,11.115z M15.76,10.136c0.002-0.01,0.002-0.02,0.001-0.03h0.509l-0.149,0.747 c-0.017-0.007-0.034-0.011-0.054-0.011H15.67L15.76,10.136z M15.292,11.7h-0.429l-0.057-0.585h0.56L15.292,11.7z M15.18,12.59h-0.23 l-0.059-0.615h0.366L15.18,12.59z M13.666,13.02l0.757-0.154h0.362c0.017,0.006,0.035,0.009,0.055,0.007 c0.012-0.002,0.021-0.003,0.029-0.007h0.386c0.009,0.004,0.017,0.005,0.024,0.006c0.006,0.001,0.012,0.001,0.018,0.001 c0.016,0,0.029-0.002,0.042-0.007h0.544c0.064,0,0.119-0.047,0.133-0.109l0.551-2.758c0.008-0.041-0.004-0.083-0.028-0.114 c-0.024-0.032-0.063-0.051-0.104-0.051h-2.549h-0.111h-2.771v0.844h2.205L13.666,13.02z" class="black" stroke="none" fill="#808285" stroke-width="0.5"/>
  </g>
  <g class="toilets base-icon" transform="scale(0.7)">
    <path d="M22,11c0,6.075-4.925,11-11,11S0,17.075,0,11S4.925,0,11,0S22,4.925,22,11z" class="black" stroke="none" fill="#808285" stroke-width="0.5"/>
    <path d="M21,11c0,5.523-4.477,10-10,10C5.477,21,1,16.523,1,11C1,5.477,5.477,1,11,1C16.523,1,21,5.477,21,11z" class="white" stroke="none" fill="white" stroke-width="0.5"/>
    <path d="M7.3,12.711v3.176c0,0.124-0.041,0.229-0.118,0.303c-0.078,0.078-0.179,0.115-0.303,0.115 c-0.125,0-0.232-0.037-0.316-0.115c-0.089-0.074-0.13-0.179-0.13-0.303v-3.176H5.239l1.242-4.182H6.268 c-0.136,0.47-0.251,0.847-0.34,1.145c-0.082,0.298-0.171,0.58-0.249,0.853c-0.089,0.268-0.148,0.438-0.155,0.497 c-0.054,0.177-0.171,0.263-0.356,0.263l-0.094-0.023c-0.173-0.062-0.256-0.175-0.256-0.333c0-0.043,0.006-0.079,0.024-0.114 c0.012-0.031,0.047-0.136,0.089-0.314c0.048-0.177,0.112-0.397,0.19-0.652c0.077-0.26,0.16-0.541,0.249-0.843 c0.089-0.303,0.172-0.595,0.273-0.876c0.06-0.215,0.19-0.411,0.392-0.581c0.202-0.177,0.411-0.256,0.629-0.256h1.461 c0.226,0,0.445,0.08,0.642,0.256C8.958,7.72,9.095,7.916,9.171,8.132C9.253,8.414,9.337,8.706,9.42,9.008 C9.504,9.31,9.594,9.591,9.665,9.851c0.076,0.255,0.143,0.475,0.189,0.652c0.047,0.178,0.078,0.283,0.095,0.314l0.023,0.094 c0,0.19-0.089,0.303-0.261,0.353l-0.09,0.023c-0.188,0-0.309-0.085-0.355-0.263c-0.013-0.059-0.065-0.229-0.136-0.497 c-0.083-0.272-0.167-0.554-0.262-0.853C8.773,9.375,8.661,8.999,8.524,8.529H8.31l1.24,4.182H8.375v3.176 c0,0.124-0.036,0.229-0.131,0.303c-0.083,0.078-0.185,0.115-0.309,0.115c-0.131,0-0.227-0.037-0.309-0.115 c-0.078-0.074-0.113-0.179-0.113-0.303v-3.176H7.3L7.3,12.711z" class="black" stroke="none" fill="#808285" stroke-width="0.5"/>
    <path d="M7.418,7.033c0.25,0,0.465-0.081,0.631-0.252C8.221,6.605,8.31,6.388,8.31,6.126 c0-0.249-0.089-0.463-0.261-0.64c-0.166-0.181-0.38-0.272-0.631-0.272c-0.266,0-0.487,0.091-0.67,0.272 c-0.179,0.177-0.267,0.391-0.267,0.64c0,0.262,0.088,0.479,0.267,0.654C6.931,6.952,7.152,7.033,7.418,7.033L7.418,7.033z" class="black" stroke="none" fill="#808285" stroke-width="0.5"/>
    <path d="M13.977,7.268c-0.32,0-0.595,0.118-0.826,0.346c-0.231,0.238-0.352,0.515-0.352,0.823v2.85 c0,0.107,0.037,0.205,0.119,0.281c0.077,0.078,0.172,0.113,0.28,0.113c0.124,0,0.22-0.035,0.296-0.113 c0.066-0.076,0.102-0.174,0.102-0.281V8.739h0.209v7.056c0,0.137,0.06,0.262,0.172,0.357c0.105,0.106,0.23,0.152,0.373,0.152 c0.154,0,0.279-0.046,0.381-0.152c0.105-0.098,0.154-0.223,0.154-0.357v-4.091h0.23v4.091c0,0.137,0.054,0.262,0.154,0.357 c0.102,0.106,0.231,0.152,0.394,0.152c0.136,0,0.254-0.046,0.362-0.152c0.1-0.098,0.146-0.223,0.146-0.357V8.739h0.215v2.548 c0,0.107,0.035,0.205,0.106,0.281c0.084,0.078,0.184,0.113,0.291,0.113c0.125,0,0.221-0.035,0.292-0.113 c0.063-0.076,0.106-0.174,0.106-0.281v-2.85c0-0.308-0.113-0.585-0.346-0.823c-0.227-0.229-0.499-0.346-0.831-0.346H13.977 L13.977,7.268z" class="black" stroke="none" fill="#808285" stroke-width="0.5"/>
    <path d="M14.997,7.033c0.25,0,0.469-0.081,0.647-0.252c0.176-0.175,0.267-0.392,0.267-0.654 c0-0.249-0.091-0.463-0.267-0.64c-0.18-0.181-0.397-0.272-0.647-0.272c-0.261,0-0.481,0.091-0.647,0.272 c-0.178,0.177-0.261,0.391-0.261,0.64c0,0.262,0.083,0.479,0.261,0.654C14.516,6.952,14.736,7.033,14.997,7.033L14.997,7.033z" class="black" stroke="none" fill="#808285" stroke-width="0.5"/>
    <path d="M10.961,4.485h0.902v13.029h-0.902V4.485z" class="black" stroke="none" fill="#808285" stroke-width="0.5"/>
  </g>

  <!-- Areas -->
  <g transform="translate(68,0)">
    <path fill="#f68b1f" stroke-width=".5" d="M182.658 108.547a1.19 1.19 0 0 1-.272-.032l-59.094-14.663-1.133 2.69a1.143 1.143 0 0 1-1.117.69L86.575 94.97a1.132 1.132 0 0 1-1.057-1.117l-.076-7.392a1.14 1.14 0 0 1 .096-.468l.587-1.331-43.188-10.614a1.131 1.131 0 0 1-.861-1.087L42 65.758c-.004-.366.17-.712.467-.928l53.246-38.615a1.13 1.13 0 0 1 .944-.18l58.3 14.896c.603.154.968.765.818 1.368l-.218.877 1.532-1.149c.272-.204.618-.275.95-.193l40.84 10.068c.515.127.872.595.86 1.125l-.188 8.146a1.131 1.131 0 0 1-.457.882l-8.335 6.185a1.136 1.136 0 0 1-.964.185L148.92 57.563a1.132 1.132 0 0 1-.841-1.124l.017-.654-2.781 1.842 1.891 2.598 42.517 10.723c.545.137.907.655.849 1.213l-.754 7.241c-.005.041-.011.08-.02.12l-6.033 28.132a1.133 1.133 0 0 1-1.107.893zm0 0" class="outline"/>
    <path fill="#f68b1f" stroke-width=".5" d="M25.373 11.5h4.946c.384 0 .608-.336.608-.608 0-.336-.224-.608-.608-.608h-4.77V6.426h3.874c.384 0 .592-.32.592-.592a.567.567 0 0 0-.592-.576h-3.874V1.529h4.61c.417 0 .64-.272.64-.576 0-.336-.224-.64-.64-.64h-4.786c-.688 0-1.057.368-1.057.96v9.268c0 .591.369.959 1.057.959zM13.375 29.516H9.069v-9.412c0-.4-.256-.656-.608-.656-.353 0-.625.256-.625.656v9.636c0 .592.368.96 1.057.96h4.481c.4 0 .656-.272.656-.608.001-.304-.239-.576-.655-.576zm7.793-17.952c.528 0 .816-.416.816-.848V.904c0-.4-.224-.656-.576-.656-.353 0-.561.256-.561.656v8.563h-.032l-5.57-8.74c-.208-.336-.48-.48-.833-.48-.48 0-.8.336-.8.912v9.764c0 .4.256.64.592.64.352 0 .592-.24.592-.64v-8.66h.032l5.506 8.756c.209.321.466.545.834.545zm-12.736-.96c0-.304-.208-.56-.528-.56-.096 0-.224.016-.368.064-.448.192-.928.336-1.697.336-2.369 0-3.809-1.648-3.809-4.514 0-2.721 1.312-4.546 3.569-4.546.448 0 1.056.048 1.584.256.208.08.384.144.576.144.32 0 .561-.24.561-.592 0-.224-.144-.448-.448-.576C7.231.328 6.431.184 5.727.184c-2.801 0-4.962 2-4.962 5.89 0 3.666 2.097 5.554 4.994 5.554.752 0 1.36-.096 2.064-.368.368-.144.609-.336.609-.656zm2.221.96c.352 0 .624-.24.624-.64V.904c0-.4-.256-.656-.608-.656-.353 0-.625.256-.625.656v10.02c0 .4.257.64.609.64zm10.802 17.92h-4.77v-3.858h3.874c.384 0 .592-.32.592-.592a.567.567 0 0 0-.592-.576h-3.874v-3.729h4.61c.416 0 .64-.272.64-.576 0-.336-.224-.64-.64-.64h-4.786c-.688 0-1.057.368-1.057.96v9.267c0 .592.368.96 1.057.96h4.946c.384 0 .608-.336.608-.608 0-.336-.224-.608-.608-.608zm32.8-19.056c-1.137-4.626-1.857-6.899-2.753-8.708C50.878.471 50.382.103 49.821.103c-.56 0-1.056.368-1.681 1.617-.896 1.809-1.584 4.082-2.753 8.708-.064.224-.096.4-.096.512 0 .384.256.624.608.624.288 0 .496-.176.576-.512.304-1.376.608-2.609.913-3.666h4.866c.288 1.057.592 2.289.913 3.666.08.336.288.512.576.512.352 0 .608-.24.608-.624.001-.112-.048-.288-.096-.512zm-6.547-4.162c.736-2.449 1.393-3.97 1.905-4.77.048-.064.096-.128.208-.128.112 0 .16.064.208.128.512.8 1.152 2.321 1.889 4.77h-4.21zm-.286 23.25h-4.305v-9.412c0-.4-.256-.656-.608-.656-.353 0-.625.256-.625.656v9.636c0 .592.368.96 1.057.96h4.481c.4 0 .656-.272.656-.608.001-.304-.239-.576-.656-.576zm-7.871-.032h-4.77v-3.858h3.874c.384 0 .592-.32.592-.592a.567.567 0 0 0-.592-.576h-3.874v-3.729h4.61c.416 0 .64-.272.64-.576 0-.336-.224-.64-.64-.64h-4.786c-.688 0-1.057.368-1.057.96v9.267c0 .592.368.96 1.057.96h4.946c.384 0 .608-.336.608-.608 0-.336-.224-.608-.608-.608zm-8.32-10.036c-.288 0-.512.176-.592.512-1.28 5.874-2.385 8.483-3.121 9.604-.736-1.121-1.825-3.73-3.137-9.604-.08-.336-.304-.512-.592-.512-.352 0-.608.24-.608.624 0 .112.048.288.096.512 1.057 4.466 1.825 6.771 2.705 8.58.608 1.249.96 1.617 1.521 1.617.561 0 .913-.368 1.521-1.617.88-1.809 1.633-4.098 2.721-8.58.048-.224.096-.4.096-.512-.001-.384-.257-.624-.61-.624zm11.842-7.884c.352 0 .576-.288.576-.672 0-.128-.016-.368-.016-.48a68.01 68.01 0 0 0-.688-8.868c-.112-.833-.4-1.296-1.056-1.296-.625 0-.896.368-1.073.832-.816 2.209-1.713 5.042-2.69 7.667h-.016c-1.008-2.481-1.792-5.09-2.817-7.523-.224-.608-.496-.976-1.121-.976-.656 0-.96.448-1.056 1.329a75.826 75.826 0 0 0-.528 9.348c-.016.384.224.64.576.64s.625-.224.625-.656c-.016-3.073.176-6.05.512-9.043h.016c.977 2.625 1.921 5.266 2.961 7.891.128.336.4.576.816.576.4 0 .704-.24.832-.576 1.024-2.545 1.905-5.25 2.833-7.891h.016c.417 3.025.576 6.002.656 8.979.001.447.225.719.642.719zm0 0" class="Shape"/>
    <path fill="#989898" stroke-width=".5" d="M197.504 54.855l-38.852-9.657-4.117 2.95.029-4.877-.927.664-57.728-14.718a38199.173 38199.173 0 0 1-51.352 36.896l-.257-.065-.003.251-.148.106.146.037-.07 5.903 44.901 11.226-1.533 3.546.185.012-.036 6.032 32.619 1.849 1.32-3.093 60.109 14.707 6.033-28.547-.085-2.009.474-1.996-.564-.147-.013-.297-.064.276-42.078-11.008-3.679-4.265 8.3-5.896-.037 3.243 40.463 10.144 7.806-5.619.075-6.298-.917.65zm0 0" class="wall"/>
    <path id="unit-3001" fill="#fff" stroke="#ddd" stroke-width=".5" d="M190.271 59.739L151.1 49.937l7.666-5.493 39.744 9.879-8.239 5.416zm0 0" class="unit"/>
    <path id="unit-3002" fill="#fff" stroke="#ddd" stroke-width=".5" d="M138.853 54.094l6.942 8.048 42.718 11.176-6.482 27.348-60.571-15.371-1.373 3.128-32.192-2.061 3.776-8.734-47.22-11.977A36497.995 36497.995 0 0 0 96.21 28.462l57.747 14.723-15.104 10.909zm0 0" class="unit"/>
  </g>
  <g transform="translate(20,116)">
    <path fill="#f68b1f" stroke-width=".5" d="M205.7 257.5h-.3L89.5 228.3l-.3.3-3.5 2.5-.3.2c-.2.2-.5.2-.8.2l-23.2-2.6c-.5-.1-.8-.4-.9-.8-19.8-1.1-38.4-4.9-55.4-11.5-.4-.2-.7-.6-.7-1.1l.2-4.9-2.6-.3c-.6-.1-1-.6-1-1.2l.3-6.9c0-.3.2-.7.5-.9L49.4 167c.3-.2.6-.3.9-.2l21.2 5.4.7-.8c.3-.3.7-.5 1.1-.4 3.9 1 7.5 1.3 10.8 1 1.6-.2 2.8-.4 3.8-.8l4.5-3.2c.3-.2.6-.3 1-.2l9 2.5 98.8-70.5-33.2-8.3c-.5-.1-.9-.6-.9-1.1l.2-6.4c0-.4.2-.7.5-.9l24.4-17.6c.3-.2.6-.3.9-.2l21.8 5.5 35.3-25-24.6-6.5c-.5-.1-.9-.6-.8-1.1l.1-6.4c0-.4.2-.7.5-.9l23.1-16.7c.3-.2.6-.3 1-.2l5.7 1.6-.1-5.4c0-.4.2-.7.5-.9l11.2-8.2c.3-.2.7-.3 1-.2L282 5.5l6 .7 16.2.8c.2 0 .4.1.6.2l83 59.6c.3.2.5.5.5.9l.2 7.9c0 .4-.2.7-.5.9l-62.8 44.9c-.3.2-.8.3-1.2.1l-4-2-1.5.9 55.8 24.7c.4.2.7.6.7 1l-.1 6.9c0 .4-.2.7-.5.9l-29.7 21.5c-.3.2-.6.3-.9.2l-24.3-6.1-19.4 13.9 29.5 7.3c.5.1.9.6.9 1.1v6.4c0 .4-.3.9-.7 1l-44.3 19c-.2.1-.5.1-.7.1l-4.5-1.1-6.5 4.1v3.8c0 .4-.3.8-.7 1l-66.9 31.1c-.2.2-.4.3-.5.3zm0 0" class="outline"/>
    <path fill="#f68b1f" stroke-width=".5" d="M21.5 138.2c-.1-.8-.4-1.3-1.1-1.3-.6 0-.9.4-1.1.8-.8 2.2-1.7 5-2.7 7.7-1-2.5-1.8-5.1-2.8-7.5-.2-.6-.5-1-1.1-1-.7 0-1 .4-1.1 1.3-.4 2.9-.5 6.1-.5 9.3 0 .4.2.6.6.6.4 0 .6-.2.6-.7 0-3.1.2-6.1.5-9 1 2.6 1.9 5.3 3 7.9.1.3.4.6.8.6s.7-.2.8-.6c1-2.5 1.9-5.2 2.8-7.9.4 3 .6 6 .7 9 0 .4.2.7.6.7.4 0 .6-.3.6-.7v-.5c.1-2.8-.2-5.9-.6-8.7zm-6-10.1c.4-.2.4-.5.4-.9v-8.9c0-.4-.3-.7-.6-.7-.4 0-.6.3-.6.7v8.8c-.8.5-2 .8-2.7.8-1.9 0-3-.9-3-3v-6.5c0-.4-.3-.7-.6-.7-.4 0-.6.3-.6.7v6.8c0 2.3 1.5 3.9 4 3.9 1.7 0 2.8-.5 3.7-1zm27 .3c0-.3-.2-.6-.6-.6h-4.8v-3.9H41c.4 0 .6-.3.6-.6s-.2-.6-.6-.6h-3.9V119h4.6c.4 0 .6-.3.6-.6s-.2-.6-.6-.6h-4.8c-.7 0-1.1.4-1.1 1v9.3c0 .6.4 1 1.1 1h4.9c.5-.1.7-.5.7-.7zm8.9-.4c-.4-1.2-.9-2.4-1.4-3.1-.3-.4-.6-.7-1-1 1.4-.5 2.4-1.5 2.4-3 0-1.9-1.3-3.2-4.2-3.2-1.1 0-1.9.1-2.4.3-.4.1-.5.4-.5.8v9.7c0 .4.3.6.6.6.4 0 .6-.2.6-.6v-4.2h1.2c1.2 0 1.6.5 2.2 1.4.4.6.8 1.6 1.3 3 .1.3.3.4.6.4s.6-.2.6-.6c.1-.2 0-.4 0-.5zm-4.5-5h-1.4v-4c.4-.1.9-.1 1.6-.1 2.3 0 3 .9 3 2.1 0 1.6-1.6 2.1-3.2 2zm-28.1 6c.4 0 .6-.2.6-.6v-3.6h1.5c2.9 0 4.4-1.4 4.4-3.7 0-2-1.3-3.5-4.3-3.5-1 0-1.8.1-2.3.3-.4.1-.5.4-.5.8v9.7c0 .4.3.6.6.6zm.7-10c.4-.1 1-.1 1.5-.1 2.3 0 3.1 1.1 3.1 2.4 0 1.3-.7 2.5-3.2 2.5h-1.4V119zm10.3-1.3c-1 0-1.8.1-2.3.3-.4.1-.5.4-.5.8v9.7c0 .4.3.6.6.6.4 0 .6-.2.6-.6v-3.6h1.5c2.9 0 4.4-1.4 4.4-3.7.1-2-1.3-3.5-4.3-3.5zm-.1 6h-1.4V119c.4-.1 1-.1 1.5-.1 2.3 0 3.1 1.1 3.1 2.4 0 1.2-.7 2.4-3.2 2.4zm.4 14.7c-.6-1.2-1.1-1.6-1.7-1.6-.6 0-1.1.4-1.7 1.6-.9 1.8-1.6 4.1-2.8 8.7-.1.2-.1.4-.1.5 0 .4.3.6.6.6s.5-.2.6-.5c.3-1.4.6-2.6.9-3.7h4.9c.3 1.1.6 2.3.9 3.7.1.3.3.5.6.5.4 0 .6-.2.6-.6 0-.1 0-.3-.1-.5-1.1-4.6-1.8-6.9-2.7-8.7zm-3.8 4.5c.7-2.4 1.4-4 1.9-4.8 0-.1.1-.1.2-.1s.2.1.2.1c.5.8 1.2 2.3 1.9 4.8h-4.2zm13.9 4.1h-4.3v-9.4c0-.4-.3-.7-.6-.7-.4 0-.6.3-.6.7v9.6c0 .6.4 1 1.1 1h4.5c.4 0 .7-.3.7-.6-.1-.3-.4-.6-.8-.6zm7.6 0h-4.3v-9.4c0-.4-.3-.7-.6-.7-.4 0-.6.3-.6.7v9.6c0 .6.4 1 1.1 1h4.5c.4 0 .7-.3.7-.6-.1-.3-.4-.6-.8-.6zm0 0M327.7 261.8c-.2.6-.3 1-.4 1.3l-.4-1.2-1.9-5.6h-1.6v7.9h1v-6.7l2.3 6.7h.9l2.3-6.6v6.6h1v-7.9h-1.4l-1.8 5.5zm31.6-12.5c0 .6 0 1 .1 1.1.1.1.2.3.4.4.2.1.5.2.8.2.2 0 .5 0 .7-.1l-.1-.9h-.4c-.1 0-.3 0-.3-.1s-.1-.1-.2-.2-.1-.3-.1-.5V246h1v-.8h-1v-2l-1 .6v1.4h-.7v.8h.7l.1 3.3zm-22.2 12.5v-2.2c-.1-.3-.2-.5-.3-.7-.1-.2-.4-.3-.7-.4-.3-.1-.7-.2-1.2-.2s-.9.1-1.3.2-.7.3-.9.6c-.2.2-.3.6-.4 1l.9.1c.1-.4.3-.7.5-.8.2-.2.6-.2 1-.2.5 0 .9.1 1.1.3.2.2.3.4.3.8v.3c-.4.1-.9.2-1.7.3-.4 0-.7.1-.9.1-.3.1-.5.2-.7.3-.2.1-.4.3-.5.6-.1.2-.2.5-.2.8 0 .5.2.9.5 1.2.3.3.8.5 1.4.5.4 0 .7-.1 1.1-.2.3-.1.7-.3 1-.6 0 .3.1.5.2.7h1c-.1-.2-.2-.4-.2-.7.1-.3 0-.9 0-1.8zm-.9-.1c0 .4-.1.7-.2 1-.1.3-.4.5-.6.7-.3.2-.6.2-1 .2s-.7-.1-.9-.3c-.2-.2-.3-.4-.3-.6 0-.2 0-.3.1-.5.1-.1.2-.2.4-.3.2-.1.4-.1.8-.2.7-.1 1.2-.2 1.6-.4l.1.4zm4.2-11.1c.5.3 1.2.5 2.1.5.8 0 1.5-.2 2.1-.7.6-.4 1-1.1 1.2-2l-1-.3c-.1.7-.4 1.2-.8 1.5-.4.3-.9.5-1.5.5-.5 0-.9-.1-1.3-.4-.4-.2-.7-.6-.9-1.1-.2-.5-.3-1.1-.3-1.8 0-.5.1-1 .2-1.5.2-.5.5-.9.9-1.2.4-.3.9-.4 1.5-.4.5 0 1 .1 1.3.4.3.3.6.7.8 1.3l1-.2c-.2-.7-.6-1.3-1.1-1.7-.5-.4-1.2-.6-2-.6-.7 0-1.3.2-1.9.5-.6.3-1 .8-1.3 1.4-.3.6-.5 1.3-.5 2.1s.1 1.5.4 2.1c.2.8.6 1.3 1.1 1.6zm27.8.5c.7 0 1.2-.2 1.6-.5.4-.3.7-.8.9-1.4l-1-.1c-.1.4-.3.7-.6.9-.2.2-.6.3-.9.3-.5 0-.9-.2-1.2-.5-.3-.3-.5-.8-.5-1.4h4.3v-.3c0-.9-.2-1.7-.7-2.2-.5-.5-1.1-.8-1.9-.8-.8 0-1.4.3-1.9.8s-.7 1.3-.7 2.2c0 .9.2 1.6.7 2.2.4.6 1.1.8 1.9.8zm-1.1-4.7c.3-.3.7-.4 1.1-.4.5 0 .9.2 1.2.6.2.2.3.6.4 1.1h-3.2c0-.6.2-1 .5-1.3zm-17.8 4.7c.7 0 1.2-.2 1.6-.5.4-.3.7-.8.9-1.4l-1-.1c-.1.4-.3.7-.6.9-.2.2-.6.3-.9.3-.5 0-.9-.2-1.2-.5-.3-.3-.5-.8-.5-1.4h4.3v-.3c0-.9-.2-1.7-.7-2.2-.5-.5-1.1-.8-1.9-.8-.8 0-1.4.3-1.9.8s-.7 1.3-.7 2.2c0 .9.2 1.6.7 2.2.4.6 1.1.8 1.9.8zm-1.2-4.7c.3-.3.7-.4 1.1-.4.5 0 .9.2 1.2.6.2.2.3.6.4 1.1h-3.2c.1-.6.2-1 .5-1.3zm38.5 16.9h-.4c-.1 0-.3 0-.3-.1s-.1-.1-.2-.2c0-.1-.1-.3-.1-.5v-3.3h1v-.8h-1v-2l-1 .6v1.4h-.6v.8h.7v3.3c0 .6 0 1 .1 1.1.1.1.2.3.4.4.2.1.5.2.8.2.2 0 .5 0 .7-.1l-.1-.8zm-17.5-4.9c-.7 0-1.3.3-1.8 1-.1-.3-.3-.6-.6-.7-.3-.2-.6-.3-1-.3s-.7.1-1 .3c-.3.2-.5.4-.7.7v-.8h-.9v5.7h1v-3c0-.5.1-.9.2-1.2.1-.3.3-.5.5-.6.2-.1.5-.2.8-.2.4 0 .6.1.8.3.2.2.2.5.2 1v3.7h1V261c0-.6.1-1 .4-1.3.3-.3.6-.4 1-.4.2 0 .4.1.6.2.2.1.3.2.3.4.1.2.1.4.1.8v3.6h1v-3.9c0-.7-.2-1.1-.5-1.4-.4-.5-.9-.6-1.4-.6zm5.5 0c-.8 0-1.4.3-1.9.8s-.7 1.3-.7 2.2c0 .9.2 1.6.7 2.2.5.5 1.1.8 2 .8.7 0 1.2-.2 1.6-.5.4-.3.7-.8.9-1.4l-1-.1c-.1.4-.3.7-.6.9-.2.2-.6.3-.9.3-.5 0-.9-.2-1.2-.5-.3-.3-.5-.8-.5-1.4h4.3v-.3c0-.9-.2-1.7-.7-2.2-.6-.6-1.2-.8-2-.8zm-1.6 2.4c0-.5.2-.9.5-1.2.3-.3.7-.4 1.1-.4.5 0 .9.2 1.2.6.2.2.3.6.4 1.1l-3.2-.1zm9.7-1.8c-.1-.2-.4-.4-.6-.5-.3-.1-.6-.2-.9-.2-.8 0-1.4.3-1.8.9v-.8h-.9v5.7h1V261c0-.7.1-1.2.4-1.5.3-.3.7-.4 1.1-.4.3 0 .5.1.7.2.2.1.3.3.4.5.1.2.1.5.1.9v3.5h1v-3.5c0-.4 0-.8-.1-.9-.2-.3-.3-.6-.4-.8zm-19.6-11c0-.4.1-.8.2-1.1.1-.2.2-.4.4-.5.2-.1.4-.2.6-.2.2 0 .5.1.7.2l.3-.9c-.3-.2-.7-.3-1-.3-.2 0-.4.1-.6.2-.2.1-.4.4-.6.8v-.9h-.9v5.7h1v-3h-.1zm-13.7 13.8v-2.2c-.1-.3-.2-.5-.3-.7-.1-.2-.4-.3-.7-.4-.3-.1-.7-.2-1.2-.2s-.9.1-1.3.2-.7.3-.9.6c-.2.2-.3.6-.4 1l.9.1c.1-.4.3-.7.5-.8.2-.2.6-.2 1-.2.5 0 .9.1 1.1.3.2.2.3.4.3.8v.3c-.4.1-.9.2-1.7.3-.4 0-.7.1-.9.1-.3.1-.5.2-.7.3-.2.1-.4.3-.5.6-.1.2-.2.5-.2.8 0 .5.2.9.5 1.2.3.3.8.5 1.4.5.4 0 .7-.1 1.1-.2.3-.1.7-.3 1-.6 0 .3.1.5.2.7h1c-.1-.2-.2-.4-.2-.7v-1.8zm-1-.1c0 .4-.1.7-.2 1-.1.3-.4.5-.6.7-.3.2-.6.2-1 .2s-.7-.1-.9-.3c-.2-.2-.3-.4-.3-.6 0-.2 0-.3.1-.5.1-.1.2-.2.4-.3.2-.1.4-.1.8-.2.7-.1 1.2-.2 1.6-.4l.1.4zm6.2-2.5c-.4-.5-1-.8-1.7-.8-.5 0-.9.1-1.3.4-.4.3-.7.6-.9 1.1-.2.5-.3 1-.3 1.5 0 .8.2 1.5.6 2 .4.6 1 .8 1.8.8.6 0 1.2-.2 1.6-.7 0 .6 0 1-.1 1.2-.1.3-.3.6-.5.8-.2.2-.6.3-1 .3s-.7-.1-1-.3c-.2-.1-.3-.3-.3-.6l-.9-.1c0 .6.2 1.1.6 1.4.4.3 1 .5 1.6.5.6 0 1.1-.1 1.4-.3.4-.2.7-.5.9-.9.2-.4.3-1 .3-1.9v-4.9h-.9v.5h.1zm-.4 3.7c-.3.3-.7.5-1.1.5-.4 0-.8-.2-1.1-.5-.3-.3-.4-.9-.4-1.6 0-.7.1-1.2.5-1.6.3-.4.7-.5 1.1-.5.4 0 .8.2 1.1.5.3.4.5.9.5 1.6-.2.7-.3 1.2-.6 1.6zm-11.3-3.9c-.1-.2-.4-.4-.6-.5-.3-.1-.6-.2-.9-.2-.8 0-1.4.3-1.8.9v-.8h-.9v5.7h1V261c0-.7.2-1.2.4-1.5.3-.3.7-.4 1.1-.4.3 0 .5.1.7.2.2.1.3.3.4.5.1.2.1.5.1.9v3.5h1v-3.5c0-.4 0-.8-.1-.9-.1-.3-.2-.6-.4-.8zm13.8-8h1v-3.5c0-.4 0-.8-.1-.9-.1-.3-.2-.5-.3-.7-.1-.2-.4-.4-.6-.5-.3-.1-.6-.2-.9-.2-.8 0-1.4.3-1.8.9v-.8h-1v5.7h1v-3.1c0-.7.2-1.2.4-1.5.3-.3.7-.4 1.1-.4.3 0 .5.1.7.2.2.1.3.3.4.5.1.2.1.5.1.9v3.4zm2.6 7.4c-.8 0-1.4.3-1.9.8s-.7 1.3-.7 2.2c0 .9.2 1.6.7 2.2.5.5 1.1.8 2 .8.7 0 1.2-.2 1.6-.5.4-.3.7-.8.9-1.4l-1-.1c-.1.4-.3.7-.6.9-.2.2-.6.3-.9.3-.5 0-.9-.2-1.2-.5-.3-.3-.5-.8-.5-1.4h4.3v-.3c0-.9-.2-1.7-.7-2.2-.6-.6-1.2-.8-2-.8zm-1.6 2.4c0-.5.2-.9.5-1.2.3-.3.7-.4 1.1-.4.5 0 .9.2 1.2.6.2.2.3.6.4 1.1l-3.2-.1zm0 0M325.3 210.9l17.5 4.1-3.2 3.2 21 15.7-5 .5.5 5-20.6-16.9-2.2 3.9-8-15.5zm0 0" class="Shape"/>
    <path fill="#808285" stroke-width=".5" d="M323 103.1v1.5l-.1.7v.1l-.3.9-.3.8v.1l-1.3 1.6-.9.9-1.8 1.3-.8.5v.1l6.7 2.5v1.3l-6.9 4.9-10.4-5-3.4.6-5.2.5-2.7.1H291l-79 56.3 3 9.2v1.3l-10.9 7.8 81.4 20.3v1.2l-12.4 7.9-72.3-18v-1.3l2.8-2-55.2-13.9V184l19.4-13.8 22.8-3.7 78.4-55.8c-3-2.1-4.6-4.3-4.6-6.6v-1.3c0-2.1 1.3-4.2 4-6.1 2.2-1.6 5-2.8 8.6-3.8 3.4-1 7.2-1.6 11.3-1.9l-6.5-82.5V6.9l22 2 5.6 83.6c6.1 1.7 10.3 3.9 12.4 6.8.8 1.2 1.2 2.5 1.2 3.8" class="walkway"/>
    <path fill="#989898" stroke-width=".5" d="M281.7 23.5v-5.7h.4l-.5-8.8-.4.2v-.1l.4-.2V7.1l-13.3-4.2-3.6 2.5-.5-.1v.4l-7 5.3-.7-.2v6.4l20.9 6.4 4.3-.1zm0 0M303.6 8.8l-.5-.3v6.3l5.6 82.4-3.4-1.2-3.6 2.6-.5 6.3 5.8 2.1 3.6-2.7.4-5.2 3.7 1.3 3 1.7.3.1 2.1 1.8 1 1.1.7 1c-.7.9-1.5 1.7-2.5 2.4-.9.6-2 1.2-3.4 1.9l-.3-.1-.1 6.4 8.1 3.1 63-44.9v-5.6l.6-.4-83.6-60.1zm0 0M316.9 118.9l.6-.3-10.9-5.2c-6.1 1.2-11.6 1.7-16.6 1.5l-78.6 56.4v-.1.1l-.2.1.2.5v5.5l1.7 5.4-10.6 7.3h-.1v.1l-.5.3.5.1v5.8l82.8 20.6 44-18.9v-6.3l-.5.2-31.8-7.7 22.3-15.9 24.7 6.2 29.1-20.9.1-6.1.3-.2-56.3-25.3-.2-3.2zm0 0M284.7 50.9L248 49.4v.3l-9.7 6.9 47.3 1.9-.5-7.5-.4-.1zm0 0M237.8 57h-.4v.3l-8.4 6.1 57.4 2.2-.7-6.7-47.5-2.1-.4.2zm0 0" class="wall"/>
    <path fill="#989898" stroke-width=".5" d="M272.5 218.7l-.2.1-68.1-16.7v-3.9l.2-.2-.2-.1v-.2l-.2.2-49.9-12.6 13-9.3 22.8-3.7 79.2-56.5.1-5.8.2-.1c-.1 0-.1-.1-.2-.1v-.3l-.2.2c-2-1.3-3.4-2.6-4.3-4l.3-.5.3-.3.4-.5.3-.3 1.8-1.5 1.8-1.2c.8-.4 1.5-.7 2.1-1l.8-.3 4.2-1.4 1.8-.5 9.2-1.4v-.1h.1l.1-6.3-.6-.2v-.5l1.2.3-2.1-24.2-57.4-2.4-.7.5h-.3v.2l-6.4 4.6-.9.6h-.4v.3l-3 2.1 3 .7v1.1l-4.3-1.1v.3L193.2 67l-23.4 16.9 42.4 10.8-1 .7V95l-42.5-10.6v6.3l36.2 9-101.7 72.7-9.6-2.3-4.1 3.3c-1.1.4-2.5.7-4.3.9-3.6.4-7.5.1-11.5-.8l-1.1 1-21.7-5.7-47 34-.6-.2v6.3l3.2.8v5.2l4.3 2 .3.2h.2l4.5 1.6 4.1 1.1.2.1 5.2 1.2 5.4 1 .1.1 6.1.9H37.2l3.3.5h.2l3.2.4H44.2l5.1.5h.4l1.2.1h.2l6.1.3 3.4-2.4.1-5.6.9-.6-3.9-.8v-3.4l.9-.5-.9-.2-28.6-6.9 2.7-1.9 41.1 10.2-11.3 7.7-.3.2h.3l-.1 6 22.6 2.8 4.3-3 55.7 13.9.4.1 61.6 15.4 66.6-31 .1-5.7.7-.3-.7-.2h-.3zm0 0M248.6 49.3l36.4 1.5-2-27-6.2.3-26.3-8.3c-7.7 5.5-15.5 11.1-23.2 16.6h-1.2v6.3l27.8 6.9-5.3 3.7zm0 0" class="wall"/>
    <path id="unit-2001" fill="#fff" stroke="#ddd" stroke-width=".5" d="M281.6 9l.5 8.8h-4.3l-20.6-6.9 7-5.3 15.6 4.1 1.8-.7zm0 0" class="unit"/>
    <path id="unit-2002" fill="#fff" stroke="#ddd" stroke-width=".5" d="M303.6 8.8l32.9 23.7-30.8-1.1-2.1-22.6zm0 0" class="unit"/>
    <path id="unit-2003" fill="#fff" stroke="#ddd" stroke-width=".5" d="M250.5 15.7l26.3 8.3 6.2-.3 1 13.3-43.2-1.3-13.4-3.4c7.7-5.5 15.4-11.1 23.1-16.6zm0 0" class="unit"/>
    <path id="unit-2004" fill="#fff" stroke="#ddd" stroke-width=".5" d="M346.8 40.1l-40.5-1.8-.4-6.5 30.9 1 10 7.3zm0 0" class="unit"/>
    <path id="unit-2005" fill="#fff" stroke="#ddd" stroke-width=".5" d="M240.5 35.8l43.6 1.5.4 6.6-27.2-.9 3.1-2.3-19.9-4.9zm0 0" class="unit"/>
    <path id="unit-2006" fill="#fff" stroke="#ddd" stroke-width=".5" d="M356.9 47.2l-50.1-2-.5-6.7 40.8 1.7 9.8 7zm0 0" class="unit"/>
    <path id="unit-2007" fill="#fff" stroke="#ddd" stroke-width=".5" d="M257.5 43l27 1 .5 6.8-36.4-1.5 8.9-6.3zm0 0" class="unit"/>
    <path id="unit-2008" fill="#fff" stroke="#ddd" stroke-width=".5" d="M367.4 54.7l-60.1-2.2-.5-7 50.3 1.8 10.3 7.4zm0 0" class="unit"/>
    <path id="unit-2009" fill="#fff" stroke="#ddd" stroke-width=".5" d="M248.4 49.5l36.7 1.5.5 7.5-47.3-1.9 10.1-7.1zm0 0" class="unit"/>
    <path id="unit-2010" fill="#fff" stroke="#ddd" stroke-width=".5" d="M378.6 63l-70.8-2.5-.5-7.6 60.3 2 11 8.1zm0 0" class="unit"/>
    <path id="unit-2011" fill="#fff" stroke="#ddd" stroke-width=".5" d="M238.2 56.7l47.5 2.1.7 6.7-57.4-2.2 9.2-6.6zm0 0" class="unit"/>
    <path id="unit-2012" fill="#fff" stroke="#ddd" stroke-width=".5" d="M385.3 70.4L308.2 67l-.4-6.3 71.1 2.3 8.3 6-1.9 1.4zm0 0" class="unit"/>
    <path id="unit-2013" fill="#fff" stroke="#ddd" stroke-width=".5" d="M228.9 63.3l57.4 2.4.5 5.7-65.3-2.7 7.4-5.4zm0 0" class="unit"/>
    <path id="unit-2014" fill="#fff" stroke="#ddd" stroke-width=".5" d="M287.3 79.1l-47.9-2-22.2-5.5 4.3-3 65.3 3 .5 7.5zm0 0" class="unit"/>
    <path id="unit-2015" fill="#fff" stroke="#ddd" stroke-width=".5" d="M365 84.3l-55.9-2.2-.9-14.8 77 3.1L365 84.3zm0 0" class="unit"/>
    <path id="unit-2016" fill="#fff" stroke="#ddd" stroke-width=".5" d="M334.8 105.9l-12.2-.6c1.1-2.2 1-4.3-.4-6.3l20.6 1.1-8 5.8zm0 0" class="unit"/>
    <path id="unit-2017" fill="#fff" stroke="#ddd" stroke-width=".5" d="M319.4 108.7c1.3-.9 2.3-2.1 3.1-3.4l11.9.8-10.3 7.5-8.1-3c1.4-.7 2.6-1.3 3.4-1.9zm0 0" class="unit"/>
    <path id="unit-2018" fill="#fff" stroke="#ddd" stroke-width=".5" d="M263.2 83.1l-22.4-5.5 46.5 1.9.3 4.5-24.4-.9zm0 0" class="unit"/>
    <path id="unit-2019" fill="#fff" stroke="#ddd" stroke-width=".5" d="M287.8 84.3l.8 5.7-25.1-6.6 24.3.9zm0 0" class="unit"/>
    <path id="unit-2020" fill="#fff" stroke="#ddd" stroke-width=".5" d="M343.2 99.8l-21.1-.9c-2.2-2.8-6.3-5.1-12.3-6.7l-.7-9.8 55.4 2.2-21.3 15.2zm0 0" class="unit"/>
    <path id="unit-2021" fill="#fff" stroke="#ddd" stroke-width=".5" d="M263.8 103.2c.4 2.4 2.3 4.6 5.7 6.6l-7.6 4.9-58.2-14.3 8.5-5.8-42.4-10.8L193.2 67l94.6 24c-4.3.4-8.2 1-11.6 1.9-3.8 1-6.7 2.2-8.7 3.6-2.9 1.9-4.1 4.2-3.7 6.7zm0 0" class="unit"/>
    <path id="unit-2022" fill="#fff" stroke="#ddd" stroke-width=".5" d="M174.8 121l58 14.5-14.5 10.3-58-14.5 14.5-10.3zm0 0" class="unit"/>
    <path id="unit-2023" fill="#fff" stroke="#ddd" stroke-width=".5" d="M160.1 131.6L218 146l-14.5 10.3-57.9-14.5 14.5-10.2zm0 0" class="unit"/>
    <path id="unit-2024" fill="#fff" stroke="#ddd" stroke-width=".5" d="M138 147.5l57.7 14.5-5.8 4.2-22.5 3.7-44.8-11.4 15.4-11zm0 0" class="unit"/>
    <path id="unit-2025" fill="#fff" stroke="#ddd" stroke-width=".5" d="M261.6 115l-58-14.5-6.6 4.7 58 14.5 6.6-4.7zm0 0" class="unit"/>
    <path id="unit-2026" fill="#fff" stroke="#ddd" stroke-width=".5" d="M189.9 110.3l58 14.5-7.2 5.1-58-14.5 7.2-5.1zm0 0" class="unit"/>
    <path id="unit-2027" fill="#fff" stroke="#ddd" stroke-width=".5" d="M182.3 115.7l58.1 14.4-7.2 5.1-58.1-14.4 7.2-5.1zm0 0" class="unit"/>
    <path id="unit-2028" fill="#fff" stroke="#ddd" stroke-width=".5" d="M247 201.6l58.9-42 11.9 3-28.2 20.2 39.2 9.5-44.5 18.7-37.3-9.4zm0 0" class="unit"/>
    <path id="unit-2029" fill="#fff" stroke="#ddd" stroke-width=".5" d="M373.2 147.5l-59.7-26.8 4-2.1-10.9-5.2c-6.1 1.2-11.6 1.7-16.6 1.5l-41.8 29.8 48 12-7.5 5.4 10 2.5 7.5-5.4 36.9 9.2 13-9.3.1-.1 17-11.5zm0 0" class="unit"/>
    <path id="unit-2030" fill="#fff" stroke="#ddd" stroke-width=".5" d="M240.5 150.4l58.1 14.5-7.2 5.2-58-14.6 7.1-5.1zm0 0" class="unit"/>
    <path id="unit-2031" fill="#fff" stroke="#ddd" stroke-width=".5" d="M288.7 162.1l-47.9-12 7.2-5.1 47.9 12-7.2 5.1zm0 0" class="unit"/>
    <path id="unit-2032" fill="#fff" stroke="#ddd" stroke-width=".5" d="M145.4 142.1l57.8 14.5-7.2 5.2-57.8-14.5 7.2-5.2zm0 0" class="unit"/>
    <path id="unit-2033" fill="#fff" stroke="#ddd" stroke-width=".5" d="M233.1 155.8l57.9 14.5-7.2 5.1-57.9-14.5 7.2-5.1zm0 0" class="unit"/>
    <path id="unit-2034" fill="#fff" stroke="#ddd" stroke-width=".5" d="M225.6 161.1l57.9 14.6-7.2 5.1-57.9-14.6 7.2-5.1zm0 0" class="unit"/>
    <path id="unit-2035" fill="#fff" stroke="#ddd" stroke-width=".5" d="M122.2 158.7l44.6 11.3-19 13.6-44.6-11.3 19-13.6zm0 0" class="unit"/>
    <path id="unit-2036" fill="#fff" stroke="#ddd" stroke-width=".5" d="M93.6 169.9l111 28.1-4.8 2.9 73.5 18-67.3 30.6-117.7-29.2-4.3 3.1-23-2.6 18.5-12.6-59.7-14.7-1.4-1.7 32.3-23.2 21.7 5.7 1.1-1c4 1 7.9 1.2 11.5.8 1.8-.2 3.3-.5 4.3-.9l4.3-3.3zm0 0" class="unit"/>
    <path id="unit-2037" fill="#fff" stroke="#ddd" stroke-width=".5" d="M22.4 203l35.9 8.6-5.3 3 8.3 1.7-4 2.5-13.1-1.1c-8.8-1-16.5-2.3-23-4-5.9-1.4-10.6-3.1-14.2-5.1l5.9-4.3-9.2-1.7 14.6-10.8 1.5 1.9 11.6 2.9-9 6.4zm0 0" class="unit"/>
    <path id="unit-2038" fill="#fff" stroke="#ddd" stroke-width=".5" d="M218.1 166.3l57.8 14.8-28.6 20.4-45.6-10.9 12.9-8.9-3.7-10.2 7.2-5.2zm0 0" class="unit"/>
    <path id="unit-2039" fill="#fff" stroke="#ddd" stroke-width=".5" d="M268.3 2.8L281.6 7v1.8l-1.8.8-15.5-4 4-2.8zm0 0" class="unit"/>
    <path id="unit-2040" fill="#fff" stroke="#ddd" stroke-width=".5" d="M190.3 110l58 14.4 6.5-4.6-58-14.4-6.5 4.6zm0 0" class="unit"/>
    <path id="unit-2041" fill="#fff" stroke="#ddd" stroke-width=".5" d="M311.1 98.1l-3.5 2.6-5.9-2.1 3.6-2.6 5.8 2.1zm0 0" class="unit"/>
  </g>
  <g transform="translate(0,384)">
    <path fill="#f68b1f" stroke-width=".5" d="M183.3 316.7h-.3l-144.6-43c-.4-.1-.7-.5-.8-.9-.1-.4.1-.8.4-1.1l20.7-16.9-56.9-17.7c-.4-.1-.7-.5-.8-.9-.1-.4.1-.9.5-1.1l102-71.7.5-.3L302 18.2c.3-.2.6-.3.9-.2l15.8 3.8 22.2 5.5c.5.1.9.6.9 1.1v6.3c0 .4-.2.7-.5.9l-7.9 5.7c-.3.2-.6.3-.9.2l-1.5-.4v1.4c0 .4-.2.7-.5.9l-2.7 1.9 3.6.9c.5.1.9.6.9 1.1V57l19.1.8-2.6-31V20.4c0-.4.2-.8.6-1 .4-.2.8-.2 1.2.1l52.6 38.1c.3.2.5.5.5.9.3 0 .5.1.7.3l9.9 8.8c.2.2.4.5.4.9v6.3c0 .2-.1.4-.2.6l-13 20.5c-.1.2-.4.4-.6.5v.4c0 .1 0 .2-.1.4l-6.3 19.2c-.1.2-.2.4-.4.6l-22.9 16.3c-.1.1-.2.1-.3.1 0 .4-.2.7-.5.9l-1.3.9 51.3 23.7c.4.2.7.6.7 1v6.4c0 .4-.2.7-.5.9l-19.6 14-.3.3-9.4 6.7c-.3.2-.6.3-.9.2l-36.5-9.1L308 212l24.2 6c.5.1.9.6.9 1.1v6.3c0 .4-.2.7-.5.9l-4.6 3.3c-.4.3-1 .3-1.4-.1h-.3l-31-7.8c-.2-.1-.4-.2-.5-.3-.1 0-.1.1-.2.1 0 .4-.2.7-.5.9l-1.5 1.1 27.1 6.7c.5.1.9.6.9 1.1l-.1 6.3c0 .4-.2.8-.6 1l-61.6 30.9c-.1.1-.2.1-.4.1l-3.1.3-70.8 46.6c-.2.1-.4.2-.7.2zm0 0" class="outline"/>
    <path fill="#f68b1f" stroke-width=".5" d="M66.3 99.6c2.9 0 4.7-2.4 4.7-6 0-3.4-1.8-5.5-4.7-5.5-2.9 0-4.7 2.3-4.7 5.9 0 3.5 1.8 5.6 4.7 5.6zm0-10.2c2.2 0 3.4 1.7 3.4 4.2 0 3-1.2 4.8-3.4 4.8-2.1 0-3.4-1.7-3.4-4.3 0-2.9 1.2-4.7 3.4-4.7zm30.6 28.1h-4.3v-9.4c0-.4-.3-.7-.6-.7-.4 0-.6.3-.6.7v9.6c0 .6.4 1 1.1 1H97c.4 0 .7-.3.7-.6-.1-.3-.4-.6-.8-.6zm5.4-19c-.4-1.2-.9-2.4-1.4-3.1-.3-.4-.6-.7-1-1 1.4-.5 2.4-1.5 2.4-3 0-1.9-1.3-3.2-4.2-3.2-1.1 0-1.9.1-2.4.3-.4.1-.5.4-.5.8V99c0 .4.3.6.6.6.4 0 .6-.2.6-.6v-4.2h1.2c1.2 0 1.6.5 2.2 1.4.4.6.8 1.6 1.3 3 .1.3.3.4.6.4s.6-.2.6-.6c.1-.2.1-.3 0-.5zm-4.5-5h-1.4v-4c.4-.1.9-.1 1.6-.1 2.3 0 3 .9 3 2.1 0 1.6-1.6 2.1-3.2 2zm-36.5 5.4c0-.3-.2-.6-.7-.6h-4.3v-9.4c0-.4-.3-.7-.6-.7-.4 0-.6.3-.6.7v9.6c0 .6.4 1 1.1 1h4.5c.3 0 .6-.3.6-.6zm26.6.6h4.9c.4 0 .6-.3.6-.6s-.2-.6-.6-.6H88v-3.9h3.9c.4 0 .6-.3.6-.6s-.2-.6-.6-.6H88v-3.7h4.6c.4 0 .6-.3.6-.6s-.2-.6-.6-.6h-4.8c-.7 0-1.1.4-1.1 1v9.3c.1.5.5.9 1.2.9zm-3-10.7c0-.3-.2-.6-.6-.6-.3 0-.5.3-.6.6-.4 3.1-1 6.1-1.8 9.2-.9-2.8-1.6-6.2-2.3-8.5-.3-1-.6-1.3-1.1-1.3-.4 0-.8.3-1 1.2-.7 2.3-1.6 6-2.4 8.6-.8-3.1-1.2-6.1-1.6-9.2-.1-.4-.3-.6-.7-.6-.4 0-.6.3-.6.6v.4c.4 3.1 1 6.3 1.7 9 .2 1 .6 1.3 1.1 1.3.5 0 .8-.3 1.1-1.1.9-2.5 1.5-5.2 2.4-8.4 1 3.2 1.5 5.9 2.3 8.4.3.9.6 1.1 1.1 1.1.5 0 .8-.3 1-1.1.8-3 1.4-6.1 1.9-9.3.1-.1.1-.2.1-.3zm4.4 28.7H85v-9.4c0-.4-.3-.7-.6-.7-.4 0-.6.3-.6.7v9.6c0 .6.4 1 1.1 1h4.5c.4 0 .7-.3.7-.6-.1-.3-.4-.6-.8-.6zm-18.7-8.8c-.1-.8-.4-1.3-1.1-1.3-.6 0-.9.4-1.1.8-.8 2.2-1.7 5-2.7 7.7-1-2.5-1.8-5.1-2.8-7.5-.2-.6-.5-1-1.1-1-.7 0-1 .4-1.1 1.3-.4 2.9-.5 6.1-.5 9.3 0 .4.2.6.6.6.4 0 .6-.2.6-.7 0-3.1.2-6.1.5-9 1 2.6 1.9 5.3 3 7.9.1.3.4.6.8.6s.7-.2.8-.6c1-2.5 1.9-5.2 2.8-7.9.4 3 .6 6 .7 9 0 .4.2.7.6.7.4 0 .6-.3.6-.7v-.5c.1-2.8-.2-5.9-.6-8.7zm8.6.2c-.6-1.2-1.1-1.6-1.7-1.6-.6 0-1.1.4-1.7 1.6-.9 1.8-1.6 4.1-2.8 8.7-.1.2-.1.4-.1.5 0 .4.3.6.6.6s.5-.2.6-.5c.3-1.4.6-2.6.9-3.7h4.9c.3 1.1.6 2.3.9 3.7.1.3.3.5.6.5.4 0 .6-.2.6-.6 0-.1 0-.3-.1-.5-1.1-4.6-1.8-6.9-2.7-8.7zm-3.8 4.6c.7-2.4 1.4-4 1.9-4.8 0-.1.1-.1.2-.1s.2.1.2.1c.5.8 1.2 2.3 1.9 4.8h-4.2zm0 0M416.3 134.8l-1.5 2.3c-.3.5-.6 1-.9 1.4-.2-.4-.5-.9-.8-1.3l-1.6-2.4h-1.3l3 4.5v3.3h1v-3.3l3.1-4.5h-1zm-4.5-5.3v-7.9h-1v6.2l-4.1-6.2h-1.1v7.9h1v-6.2l4.1 6.2h1.1zm3.6-3.3c-.4 0-.7.1-.9.1-.3.1-.5.2-.7.3-.2.1-.4.3-.5.6-.1.2-.2.5-.2.8 0 .5.2.9.5 1.2.3.3.8.5 1.4.5.4 0 .7-.1 1.1-.2.3-.1.7-.3 1-.6 0 .3.1.5.2.7h1c-.1-.2-.2-.4-.2-.7 0-.2-.1-.8-.1-1.7V125c-.1-.3-.2-.5-.3-.7-.1-.2-.4-.3-.7-.4-.3-.1-.7-.2-1.2-.2s-.9.1-1.3.2-.7.3-.9.6c-.2.2-.3.6-.4 1l.9.1c.1-.4.3-.7.5-.8.2-.2.6-.2 1-.2.5 0 .9.1 1.1.3.2.2.3.4.3.8v.3c-.3 0-.8.1-1.6.2zm1.7.8c0 .4-.1.7-.2 1-.1.3-.4.5-.6.7-.3.2-.6.2-1 .2s-.7-.1-.9-.3c-.2-.2-.3-.4-.3-.6 0-.2 0-.3.1-.5.1-.1.2-.2.4-.3.2-.1.4-.1.8-.2.7-.1 1.2-.2 1.6-.4l.1.4zm8.9-.6c0-.4.1-.8.2-1.1.1-.3.3-.5.5-.6.3-.1.5-.2.8-.2.4 0 .7.1.9.3.2.2.3.6.3 1.1v3.6h1v-3.6c0-.6-.1-1-.2-1.3-.1-.3-.4-.5-.7-.7-.3-.2-.7-.2-1.1-.2-.7 0-1.3.3-1.7.8v-2.8h-1v7.9h1v-3.2zm-3.8 13.9v-2.2c-.1-.3-.2-.5-.3-.7-.1-.2-.4-.3-.7-.4-.3-.1-.7-.2-1.2-.2s-.9.1-1.3.2-.7.3-.9.6c-.2.2-.3.6-.4 1l.9.1c.1-.4.3-.7.5-.8.2-.2.6-.2 1-.2.5 0 .9.1 1.1.3.2.2.3.4.3.8v.3c-.4.1-.9.2-1.7.3-.4 0-.7.1-.9.1-.3.1-.5.2-.7.3-.2.1-.4.3-.5.6-.1.2-.2.5-.2.8 0 .5.2.9.5 1.2.3.3.8.5 1.4.5.4 0 .7-.1 1.1-.2.3-.1.7-.3 1-.6 0 .3.1.5.2.7h1c-.1-.2-.2-.4-.2-.7v-1.8zm-1-.1c0 .4-.1.7-.2 1-.1.3-.4.5-.6.7-.3.2-.6.2-1 .2s-.7-.1-.9-.3c-.2-.2-.3-.4-.3-.6 0-.2 0-.3.1-.5.1-.1.2-.2.4-.3.2-.1.4-.1.8-.2.7-.1 1.2-.2 1.6-.4l.1.4zm9.9-17.5h.5c0 .3-.1.5-.2.7-.1.2-.2.3-.4.4l.2.4c.3-.1.6-.4.7-.7.1-.2.2-.6.2-1v-.9h-1v1.1zm6.5 4.3c-.2-.2-.4-.4-.6-.5-.3-.1-.7-.3-1.4-.4-.5-.1-.8-.2-.9-.2-.2-.1-.3-.2-.4-.3-.1-.1-.1-.2-.1-.3 0-.2.1-.4.3-.5.2-.1.5-.2 1-.2.4 0 .7.1.9.2.2.1.3.4.4.7l.9-.1c-.1-.4-.2-.7-.3-.9-.2-.2-.4-.4-.7-.5-.3-.1-.7-.2-1.2-.2-.3 0-.6 0-.8.1-.3.1-.5.2-.6.3-.2.1-.4.3-.5.5-.1.2-.2.5-.2.7 0 .3.1.5.2.8.1.2.4.4.6.5.3.1.8.3 1.5.5.5.1.9.2 1 .3.2.1.3.3.3.5s-.1.5-.3.6c-.2.2-.5.3-1 .3-.4 0-.8-.1-1-.3-.2-.2-.4-.5-.4-.9l-1 .1c.1.6.4 1.1.7 1.4.4.3 1 .5 1.7.5.4 0 .8-.1 1.2-.2.4-.2.6-.4.8-.7.2-.3.3-.6.3-.9-.2-.4-.3-.7-.4-.9zm-6.6 10.7c-.2-.2-.4-.4-.7-.6-.3-.1-.6-.2-.9-.2-.5 0-.9.1-1.3.4-.4.2-.7.6-.9 1.1-.2.5-.3 1-.3 1.6 0 .6.1 1.1.3 1.6.2.4.5.8.9 1 .4.2.8.4 1.3.4.7 0 1.2-.3 1.6-.8v.7h.9V135h-1l.1 2.7zm-.4 3.8c-.3.3-.7.5-1.1.5-.4 0-.8-.2-1.1-.5-.3-.4-.5-.9-.5-1.6 0-.8.1-1.3.4-1.7.3-.4.6-.5 1.1-.5.4 0 .8.2 1.1.5.3.4.5.9.5 1.7 0 .7-.1 1.3-.4 1.6zm-5.5-4.4c-.2.1-.4.4-.6.8v-.9h-.9v5.7h1v-3c0-.4.1-.8.2-1.1.1-.2.2-.4.4-.5.2-.1.4-.2.6-.2.2 0 .5.1.7.2l.3-.9c-.3-.2-.7-.3-1-.3-.3 0-.5 0-.7.2zm-1.4-10.1c-.2-.2-.4-.4-.6-.5-.3-.1-.7-.3-1.4-.4-.5-.1-.8-.2-.9-.2-.2-.1-.3-.2-.4-.3-.1-.1-.1-.2-.1-.3 0-.2.1-.4.3-.5.2-.1.5-.2 1-.2.4 0 .7.1.9.2.2.2.3.4.4.7l.9-.1c-.1-.4-.2-.7-.3-.9-.2-.2-.4-.4-.7-.5-.3-.1-.7-.2-1.2-.2-.3 0-.6 0-.8.1-.3.1-.5.2-.6.3-.2.1-.4.3-.5.5-.1.2-.2.5-.2.7 0 .3.1.5.2.8.1.2.3.4.6.5.3.1.8.3 1.5.5.5.1.9.2 1 .3.2.1.3.3.3.5s-.1.5-.3.6c-.2.2-.5.3-1 .3-.4 0-.8-.1-1-.3-.2-.2-.4-.5-.4-.9l-1 .1c.1.6.4 1.1.7 1.4.3.3 1 .5 1.7.5.4 0 .8-.1 1.2-.2.4-.2.6-.4.8-.7.2-.3.3-.6.3-.9-.2-.4-.3-.7-.4-.9zm0 0M374 9.9l5.9-3.8-4.1 5.2.8.6 4.8-6.2-1.1-.9-4.8 3.2c-.5.3-.9.6-1.1.7l.4-1.2 2-5.5-1.2-1-4.8 6.2.8.6 4.1-5.3-2.3 6.7.6.7zm9.4 7.3l1.8-2.4c.3-.3.5-.6.8-.8.2-.1.4-.2.6-.2.2 0 .4.1.6.2.2.1.3.3.4.6l.8-.5c-.1-.4-.3-.7-.6-.9-.2-.1-.4-.2-.6-.2-.2 0-.6.1-1 .3l.5-.7-.7-.5-3.5 4.5.9.6zm12.5 7.6c-.4.5-.6.8-.6 1 0 .2 0 .4.1.6.1.2.3.4.5.6.2.1.4.3.6.4l.4-.8c-.2-.1-.3-.2-.4-.2-.1-.1-.2-.2-.2-.3v-.2s.1-.2.3-.5l2.1-2.6.8.6.5-.6-.8-.6 1.2-1.6-1.1-.1-.9 1.1-.6-.4-.5.6.6.4-2 2.6zM380.3 9.6l.7.7c.3-.3.6-.4.9-.4.3 0 .6.2.9.4.4.3.6.6.7.9 0 .2-.1.5-.3.8l-.2.2c-.4-.1-.9-.4-1.6-.8-.3-.2-.6-.3-.8-.4-.2-.1-.5-.2-.7-.2-.2 0-.5 0-.7.1-.2.1-.4.3-.6.5-.3.4-.4.8-.3 1.2.1.4.4.9.9 1.3.3.2.6.4 1 .5.3.1.7.1 1.2.1-.1.2-.2.5-.3.7l.8.6c0-.2.1-.5.2-.7.1-.2.4-.7 1-1.4l.8-1c.3-.3.4-.6.5-.7.1-.2.2-.5.2-.7 0-.2-.1-.5-.3-.8-.2-.3-.4-.6-.8-.9-.4-.3-.8-.5-1.1-.6-.4-.1-.7-.1-1-.1-.5.2-.8.4-1.1.7zm2 3.5c-.3.3-.5.6-.7.7-.3.1-.6.2-.9.1-.3-.1-.6-.2-.9-.4-.3-.2-.5-.5-.5-.7 0-.3 0-.5.2-.7.1-.1.2-.2.4-.3.2-.1.3-.1.5 0 .2 0 .4.2.8.4.6.4 1.1.6 1.5.7l-.4.2zm4 6.4l1.4-1.8.9-.1-.3 3.5.9.7.3-4.3 3-.3-1-.8-3.2.4 2.8-3.5-.8-.6-4.8 6.2.8.6zm5.1.4c-.6.7-.8 1.4-.8 2.2.1.7.4 1.3 1.1 1.8.5.4 1 .6 1.6.6.5 0 1-.2 1.5-.5l-.7-.7c-.4.2-.7.3-1 .3-.3 0-.6-.1-.9-.3-.4-.3-.6-.7-.6-1.1 0-.5.1-.9.5-1.5l3.4 2.6c.1-.1.1-.2.2-.2.6-.7.8-1.5.8-2.2-.1-.7-.4-1.3-1-1.8s-1.3-.7-2-.6c-.9.2-1.5.6-2.1 1.4zm2.3-.5c.4 0 .8.1 1.2.3.4.3.6.7.6 1.2 0 .3-.1.7-.4 1.1l-2.5-2c.3-.3.7-.5 1.1-.6zm13.2 12.4c-.6.7-.8 1.5-.8 2.2 0 .7.3 1.3.9 1.7.2.2.5.3.8.4.3.1.6 0 .8 0l-1.7 2.2.8.6 4.9-6.2-.7-.5-.5.6c0-.7-.2-1.3-.8-1.7-.4-.3-.8-.4-1.2-.5-.4 0-.9 0-1.3.3-.5.1-.9.5-1.2.9zm3.3-.2c.3.3.5.6.5 1.1 0 .5-.2 1-.7 1.6-.4.6-.9.9-1.3 1-.4.1-.8 0-1.2-.2-.3-.3-.5-.6-.5-1.1 0-.5.2-1 .7-1.6.5-.6.9-.9 1.4-1 .3-.1.7 0 1.1.2zm-8.3.2c.4.3.9.6 1.4.7.5.1.9.1 1.3 0s.8-.4 1-.7c.3-.3.4-.7.4-1.1 0-.4-.1-.8-.3-1.3-.2-.3-.5-.8-1.1-1.5-.5-.7-.8-1.1-.9-1.4 0-.3 0-.5.2-.7.2-.3.5-.4.9-.4s.8.2 1.3.6c.5.4.8.8.8 1.1 0 .3 0 .8-.3 1.2l.8.6c.3-.4.4-.8.5-1.2 0-.4-.1-.9-.3-1.3-.2-.4-.6-.8-1-1.2-.4-.3-.9-.6-1.3-.7-.5-.1-.9-.1-1.3 0s-.7.4-1 .7c-.2.3-.4.6-.4.9 0 .3 0 .7.2 1.1.1.3.4.7.9 1.3.5.6.8 1 .9 1.2.2.3.3.6.3.8 0 .2-.1.4-.2.6-.1.2-.3.3-.6.4-.2.1-.5.1-.8 0-.3-.1-.6-.3-.9-.5-.4-.3-.6-.6-.8-.9-.2-.3-.3-.7-.2-1 0-.3.1-.6.3-1l-.8-.5c-.3.4-.5.9-.5 1.4 0 .5.1 1 .3 1.4.3.5.7 1 1.2 1.4zm-6.5 6.8c.3-.3.4-.6.5-.7.1-.2.2-.5.2-.7 0-.2-.1-.5-.3-.8-.2-.3-.4-.6-.8-.9-.4-.3-.8-.5-1.1-.6-.4-.1-.7-.1-1-.1-.3.1-.6.2-.9.5l.7.7c.3-.3.6-.4.9-.4.3 0 .6.2.9.4.4.3.6.6.7.9 0 .2-.1.5-.3.8l-.2.2c-.4-.1-.9-.4-1.6-.8-.3-.2-.6-.3-.8-.4-.2-.1-.5-.2-.7-.2-.2 0-.5 0-.7.1-.2.1-.4.3-.6.5-.3.4-.4.8-.3 1.2.1.4.4.9.9 1.3.3.2.6.4 1 .5.3.1.7.1 1.2.1-.1.2-.2.5-.3.7l.8.6c0-.2.1-.5.2-.7.1-.2.4-.7 1-1.4l.6-.8zm-1.5.4c-.3.3-.5.6-.7.7-.3.1-.6.2-.9.1-.3-.1-.6-.2-.9-.4-.3-.2-.5-.5-.5-.7 0-.3 0-.5.2-.7.1-.1.2-.2.4-.3.2-.1.3-.1.5 0 .2 0 .4.2.8.4.6.4 1.1.6 1.5.7l-.4.2zm27 2.8c.3-.3.4-.6.5-.7.1-.2.2-.5.2-.7 0-.2-.1-.5-.3-.8-.2-.3-.4-.6-.8-.9-.4-.3-.8-.5-1.1-.6-.4-.1-.7-.1-1-.1-.3.1-.6.2-.9.5l.7.7c.3-.3.6-.4.9-.4.3 0 .6.2.9.4.4.3.6.6.7.9 0 .2-.1.5-.3.8l-.2.2c-.4-.1-.9-.4-1.6-.8-.3-.2-.6-.3-.8-.4-.2-.1-.5-.2-.7-.2-.2 0-.5 0-.7.1-.2.1-.4.3-.6.5-.3.4-.4.8-.3 1.2.1.4.4.9.9 1.3.3.2.6.4 1 .5.3.1.7.1 1.2.1-.1.2-.2.5-.3.7l.8.6c0-.2.1-.5.2-.7.1-.2.4-.7 1-1.4l.6-.8zm-1.5.3c-.3.3-.5.6-.7.7-.3.1-.6.2-.9.1-.3-.1-.6-.2-.9-.4-.3-.2-.5-.5-.5-.7 0-.3 0-.5.2-.7.1-.1.2-.2.4-.3.2-.1.3-.1.5 0 .2 0 .4.2.8.4.6.4 1.1.6 1.5.7l-.4.2zm-2.9-6.3l-1.9 2.4c-.3.4-.6.6-.8.8-.2.1-.5.2-.8.1-.3 0-.6-.1-.8-.3-.2-.2-.4-.4-.4-.6-.1-.2 0-.5.1-.7.1-.2.3-.4.6-.8l1.9-2.5-.8-.6-2.2 2.8c-.3.3-.4.6-.5.7-.1.3-.2.5-.2.7 0 .2.1.5.2.8.1.3.4.5.6.7.6.5 1.3.6 2 .4l-.5.7.7.5 3.5-4.5-.7-.6zm7.9 7.3c.2.1.3.3.4.6l.8-.5c-.1-.4-.3-.7-.6-.9-.2-.1-.4-.2-.6-.2-.2 0-.6.1-1 .3l.5-.7-.7-.5-3.5 4.5.8.6 1.8-2.4c.3-.3.5-.6.8-.8.2-.1.4-.2.6-.2.3 0 .5 0 .7.2zm3.7 1.6c-.6-.5-1.3-.7-2-.6-.7.1-1.4.5-2 1.3-.6.7-.8 1.4-.8 2.2.1.7.4 1.3 1.1 1.8.5.4 1 .6 1.6.6.5 0 1-.2 1.5-.5l-.7-.7c-.4.2-.7.3-1 .3-.3 0-.6-.1-.9-.3-.4-.3-.6-.7-.6-1.1 0-.5.1-.9.5-1.5l3.4 2.6c.1-.1.1-.2.2-.2.6-.7.8-1.5.8-2.2-.1-.6-.5-1.2-1.1-1.7zm-.2 2.9l-2.5-2c.3-.4.7-.6 1.1-.6.4 0 .8.1 1.2.3.4.3.6.7.6 1.2-.1.3-.2.7-.4 1.1zm-19-1.1c-.6-.5-1.3-.7-2-.6-.7.1-1.4.5-2 1.3-.6.7-.8 1.4-.8 2.2.1.7.4 1.3 1.1 1.8.5.4 1 .6 1.6.6.5 0 1-.2 1.5-.5l-.7-.7c-.4.2-.7.3-1 .3-.3 0-.6-.1-.9-.3-.4-.3-.6-.7-.6-1.1 0-.5.1-.9.5-1.5l3.4 2.6c.1-.1.1-.2.2-.2.6-.7.8-1.5.8-2.2-.2-.7-.5-1.3-1.1-1.7zm-.2 2.8l-2.5-2c.3-.4.7-.6 1.1-.6.4 0 .8.1 1.2.3.4.3.6.7.6 1.2-.1.4-.2.7-.4 1.1zm-8-7.5c.1-.3.2-.5.2-.7 0-.2-.1-.5-.2-.8-.2-.3-.4-.5-.6-.7-.6-.5-1.3-.6-2-.4l.5-.6-.7-.5-3.5 4.5.8.6 1.9-2.5c.5-.6.9-.9 1.3-.9s.8.1 1.1.3c.2.2.3.3.4.6.1.2.1.4 0 .6-.1.2-.2.5-.5.8l-2.1 2.7.8.6 2.2-2.8c.1-.4.3-.7.4-.8zm-14.9-7.1v-.2c0-.1.1-.2.3-.5l2.1-2.6.8.6.5-.6-.8-.6 1.2-1.6-1.1-.1-.9 1.1-.6-.4-.5.6.6.4-2 2.6c-.4.5-.6.8-.6 1 0 .2 0 .4.1.6.1.2.3.4.5.6.2.1.4.3.6.4l.4-.8c-.2-.1-.3-.2-.4-.2-.1-.1-.1-.2-.2-.3zm-.1-4.6c.1-.3.2-.5.2-.7 0-.2-.1-.5-.2-.8-.1-.3-.4-.5-.6-.7-.6-.5-1.3-.6-2-.4l.5-.6-.7-.5-3.5 4.5.8.6 1.9-2.5c.5-.6.9-.9 1.3-.9s.8.1 1.1.3c.2.2.3.3.4.6.1.2.1.4 0 .6-.1.2-.2.5-.5.8l-2.1 2.7.8.6 2.2-2.8c.2-.4.4-.6.4-.8zm4.9 3.6c.2 0 .4.1.6.2.2.1.3.3.4.6l.8-.5c-.1-.4-.3-.7-.6-.9-.2-.1-.4-.2-.6-.2-.2 0-.6.1-1 .3l.5-.7-.7-.5-3.5 4.5.8.6 1.8-2.4c.3-.3.5-.6.8-.8.3-.1.5-.2.7-.2zm12.2 9.7c.5-.1.9 0 1.3.3.3.2.4.4.5.7.1.3 0 .6-.2 1l.8.5c.3-.5.3-1 .2-1.5-.1-.5-.4-.9-.9-1.3-.4-.3-.8-.5-1.3-.6-.5-.1-.9 0-1.4.2-.4.2-.9.6-1.2 1.1-.6.8-.9 1.5-.8 2.2.1.7.4 1.3 1 1.8.5.4 1 .6 1.6.5.6 0 1.1-.3 1.6-.7l-.7-.7c-.4.3-.7.5-1 .5-.3 0-.7-.1-1-.3-.4-.3-.6-.7-.6-1.1 0-.5.2-1 .7-1.6.5-.6 1-.9 1.4-1zm-26-19.2l3.4 2.7.6-.7-3.4-2.7 1.5-1.9 3.7 2.9.6-.7-4.5-3.5-4.8 6.2 4.6 3.6.6-.7-3.8-3 1.5-2.2zm0 0M38.5 150.5c-.3-.2-.7-.3-1-.3-.2 0-.4.1-.6.2-.2.1-.4.4-.6.8v-.9h-.9v5.7h1v-3c0-.4.1-.8.2-1.1.1-.2.2-.4.4-.5.2-.1.4-.2.6-.2.2 0 .5.1.7.2l.2-.9zm-2.8 11.9h1v-1.1h-1v1.1zm31.5-10h3.7v-.9h-3.7v-2.4h4.3v-.9h-5.3v7.9h1v-3.7zm-25.3 11.8c-.4-.5-1-.8-1.7-.8-.5 0-.9.1-1.3.4-.4.3-.7.6-.9 1.1-.2.5-.3 1-.3 1.5 0 .8.2 1.5.6 2 .4.6 1 .8 1.8.8.6 0 1.2-.2 1.6-.7 0 .6 0 1-.1 1.2-.1.3-.3.6-.5.8-.2.2-.6.3-1 .3s-.7-.1-1-.3c-.2-.1-.3-.3-.3-.6l-.9-.1c0 .6.2 1.1.6 1.4.4.3 1 .5 1.6.5.6 0 1.1-.1 1.4-.3.4-.2.7-.5.9-.9.2-.4.3-1 .3-1.9v-4.9h-.9v.5h.1zm-.5 3.7c-.3.3-.7.5-1.1.5-.4 0-.8-.2-1.1-.5-.3-.3-.4-.9-.4-1.6 0-.7.2-1.2.5-1.6.3-.3.7-.5 1.1-.5.4 0 .8.2 1.1.5.3.4.5.9.5 1.6-.1.7-.3 1.2-.6 1.6zm17.8-11.8c.7 0 1.2-.2 1.6-.5.4-.3.7-.8.9-1.4l-1-.1c-.1.4-.3.7-.6.9-.2.2-.6.3-.9.3-.5 0-.9-.2-1.2-.5-.3-.3-.5-.8-.5-1.4h4.3v-.3c0-.9-.2-1.7-.7-2.2-.5-.5-1.1-.8-1.9-.8-.8 0-1.4.3-1.9.8s-.7 1.3-.7 2.2c0 .9.2 1.6.7 2.2.4.6 1 .8 1.9.8zm-1.2-4.7c.3-.3.7-.4 1.1-.4.5 0 .9.2 1.2.6.2.2.3.6.4 1.1h-3.2c0-.6.2-1 .5-1.3zm-24 3.8c-.1 0-.3 0-.3-.1-.1 0-.1-.1-.2-.2 0-.1-.1-.3-.1-.5V151h1v-.8h-1v-2l-1 .6v1.4h-.7v.8h.7v3.3c0 .6 0 1 .1 1.1.1.2.2.3.4.4.2.1.5.2.8.2.2 0 .5 0 .7-.1l-.1-.9c-.1.2-.2.2-.3.2zm1.7 14h1v-5.7h-1v5.7zM20 152.4h4.4v-.9H20v-2.4h4.7v-.9H19v7.9h5.9v-.9H20v-2.8zm13 12.2h-4.1v-3.2h-1v7.9h1v-3.7H33v3.7h1v-7.9h-1v3.2zm-3.7-13.4c.2.1.3.3.4.5.1.2.1.5.1.9v3.5h1v-3.5c0-.4 0-.8-.1-.9-.1-.3-.2-.5-.3-.7-.1-.2-.4-.4-.6-.5-.3-.1-.6-.2-.9-.2-.8 0-1.4.3-1.8.9v-.8h-.9v5.7h1V153c0-.7.1-1.2.4-1.5.3-.3.7-.4 1.1-.4.2-.1.5 0 .6.1zm25.8 4.4c.4-.4.7-.9.8-1.5l-1-.1c-.1.5-.2.8-.5 1.1-.3.2-.6.3-1 .3-.5 0-.9-.2-1.1-.5-.3-.3-.4-.9-.4-1.7 0-.8.2-1.3.5-1.7.3-.4.7-.5 1.2-.5.3 0 .6.1.8.3.2.2.4.5.5.9l.9-.1c-.1-.6-.4-1-.8-1.3-.4-.3-.9-.5-1.5-.5-.5 0-.9.1-1.4.3-.4.2-.7.6-.9 1-.2.5-.3 1-.3 1.6 0 1 .2 1.7.7 2.2.5.5 1.1.8 1.9.8.7-.1 1.2-.3 1.6-.6zm25.9-.8c.2-.4.3-1 .3-1.7 0-.9-.2-1.6-.7-2.1-.5-.5-1.1-.8-1.9-.8-.7 0-1.3.2-1.8.6-.6.5-.9 1.3-.9 2.3 0 1 .2 1.7.7 2.2.5.5 1.1.8 1.9.8.5 0 1-.1 1.4-.3.4-.3.8-.6 1-1zm-2.4.5c-.5 0-.9-.2-1.2-.5-.3-.4-.5-.9-.5-1.6 0-.7.2-1.3.5-1.6.3-.3.7-.5 1.2-.5s.9.2 1.2.5c.3.3.5.9.5 1.6 0 .7-.2 1.3-.5 1.7-.3.3-.7.4-1.2.4zm-35-1.7v-2.2c-.1-.3-.2-.5-.3-.7-.1-.2-.4-.3-.7-.4-.3-.1-.7-.2-1.2-.2s-.9.1-1.3.2-.7.3-.9.6c-.2.2-.3.6-.4 1l.9.1c.1-.4.3-.7.5-.8.2-.2.6-.2 1-.2.5 0 .9.1 1.1.3.2.2.3.4.3.8v.3c-.4.1-.9.2-1.7.3-.4 0-.7.1-.9.1-.3.1-.5.2-.7.3-.2.1-.4.3-.5.6-.1.2-.2.5-.2.8 0 .5.2.9.5 1.2.3.3.8.5 1.4.5.4 0 .7-.1 1.1-.2.3-.1.7-.3 1-.6 0 .3.1.5.2.7h1c-.1-.2-.2-.4-.2-.7.1-.3 0-.9 0-1.8zm-.9-.1c0 .4-.1.7-.2 1-.1.3-.4.5-.6.7-.3.2-.6.2-1 .2s-.7-.1-.9-.3c-.2-.2-.3-.4-.3-.6 0-.2 0-.3.1-.5.1-.1.2-.2.4-.3.2-.1.4-.1.8-.2.7-.1 1.2-.2 1.6-.4l.1.4zm30.9-.5c0-.4.1-.8.2-1.1.1-.2.2-.4.4-.5.2-.1.4-.2.6-.2.2 0 .5.1.7.2l.3-.9c-.3-.2-.7-.3-1-.3-.2 0-.4.1-.6.2-.2.1-.4.4-.6.8v-.9h-.9v5.7h1l-.1-3zm-3.8 10.4c-.8 0-1.4.3-1.9.8s-.7 1.3-.7 2.2c0 .9.2 1.6.7 2.2.5.5 1.2.8 2 .8.7 0 1.2-.2 1.6-.5.4-.3.7-.8.9-1.4l-1-.1c-.1.4-.3.7-.6.9-.2.2-.6.3-.9.3-.5 0-.9-.2-1.2-.5-.3-.3-.5-.8-.5-1.4h4.3v-.3c0-.9-.2-1.7-.7-2.2-.6-.6-1.2-.8-2-.8zm-1.6 2.4c0-.5.2-.9.5-1.2.3-.3.7-.4 1.1-.4.5 0 .9.2 1.2.6.2.2.3.6.4 1.1l-3.2-.1zm21.5-15.2c-.3-.3-.7-.5-1.3-.5-.7 0-1.3.3-1.8 1-.1-.3-.3-.6-.6-.7-.3-.2-.6-.3-1-.3s-.7.1-1 .3c-.3.2-.5.4-.7.7v-.8h-.9v5.7h1v-3c0-.5.1-.9.2-1.2.1-.3.3-.5.5-.6.2-.1.5-.2.8-.2.4 0 .6.1.8.3.2.2.2.5.2 1v3.7h1v-3.3c0-.6.1-1 .4-1.3.3-.3.6-.4 1-.4.2 0 .4.1.6.2.2.1.3.2.3.4.1.2.1.4.1.8v3.6h1v-3.9c-.1-.7-.3-1.2-.6-1.5zm-8.3 17.8c-.1 0-.3 0-.3-.1-.1 0-.1-.1-.2-.2 0-.1-.1-.3-.1-.5v-3.3h1v-.8h-1v-2l-1 .6v1.4h-.7v.8h.7v3.3c0 .6 0 1 .1 1.1.1.2.2.3.4.4.2.1.5.2.8.2.2 0 .5 0 .7-.1l-.1-.9c-.1.1-.2.1-.3.1zm-5.5-5c-.8 0-1.4.3-1.9.8s-.7 1.3-.7 2.2c0 .9.2 1.6.7 2.2.5.5 1.2.8 2 .8.7 0 1.2-.2 1.6-.5.4-.3.7-.8.9-1.4l-1-.1c-.1.4-.3.7-.6.9-.2.2-.6.3-.9.3-.5 0-.9-.2-1.2-.5-.3-.3-.5-.8-.5-1.4h4.3v-.3c0-.9-.2-1.7-.7-2.2-.6-.6-1.2-.8-2-.8zm-1.6 2.4c0-.5.2-.9.5-1.2.3-.3.7-.4 1.1-.4.5 0 .9.2 1.2.6.2.2.3.6.4 1.1l-3.2-.1zm-24.9-15c-.1-.2-.4-.4-.6-.5-.3-.1-.6-.2-.9-.2-.8 0-1.4.3-1.8.9v-.8h-.9v5.7h1v-3.1c0-.7.2-1.2.4-1.5.2-.3.7-.4 1.1-.4.3 0 .5.1.7.2.2.1.3.3.4.5.1.2.1.5.1.9v3.5h1v-3.5c0-.4 0-.8-.1-.9-.1-.3-.2-.6-.4-.8zm15.9 12.8c-.2.1-.4.4-.6.8v-.9h-.9v5.7h1v-3c0-.4.1-.8.2-1.1.1-.2.2-.4.4-.5.2-.1.4-.2.6-.2.2 0 .5.1.7.2l.3-.9c-.3-.2-.7-.3-1-.3-.3 0-.6 0-.7.2zm-17.3 0c-.3-.2-.7-.2-1.1-.2-.7 0-1.3.3-1.7.8v-2.8h-1v7.9h1v-3.1c0-.4.1-.8.2-1.1.1-.3.3-.5.5-.6.3-.1.5-.2.8-.2.4 0 .7.1.9.3.2.2.3.6.3 1.1v3.6h1v-3.6c0-.6-.1-1-.2-1.3-.2-.4-.4-.6-.7-.8zm14.4 4.8c-.1 0-.3 0-.3-.1-.1 0-.1-.1-.2-.2 0-.1-.1-.3-.1-.5v-3.3h1v-.8h-1v-2l-1 .6v1.4h-.7v.8h.7v3.3c0 .6 0 1 .1 1.1.1.2.2.3.4.4.2.1.5.2.8.2.2 0 .5 0 .7-.1l-.1-.9c0 .1-.2.1-.3.1zm-4.3-3.3c-.3-.1-.9-.3-1.7-.5-.8-.2-1.4-.4-1.6-.6-.2-.2-.3-.4-.3-.7 0-.3.1-.6.4-.8.3-.2.7-.3 1.4-.3.6 0 1.1.1 1.4.4.3.3.5.6.5 1.1l1-.1c0-.5-.1-.9-.4-1.2-.2-.4-.6-.6-1-.8-.4-.2-1-.3-1.5-.3s-1 .1-1.4.3c-.4.2-.8.4-1 .8-.2.3-.3.7-.3 1.1 0 .4.1.7.3 1 .2.3.5.5.8.7.3.2.8.3 1.5.5s1.2.3 1.4.4c.3.1.6.3.7.5.1.2.2.4.2.6 0 .2-.1.5-.2.7-.1.2-.4.4-.7.5-.3.1-.7.2-1.1.2-.4 0-.9-.1-1.2-.2-.4-.2-.6-.4-.8-.6-.2-.3-.3-.6-.3-1l-1 .1c0 .5.2 1 .4 1.4.3.4.7.7 1.1.9.5.2 1.1.3 1.8.3.6 0 1.1-.1 1.5-.3.4-.2.8-.5 1-.9.2-.4.4-.8.4-1.2 0-.4-.1-.8-.3-1.1-.2-.5-.6-.7-1-.9zm0 0M152.9 110.8c-.3-.2-.6-.2-.9-.2-.4 0-.7.2-1.1.4-.6.4-.9.9-1 1.6l-1.6-2.3-.8.5 4.4 6.5.8-.5-1.7-2.6c-.3-.4-.4-.7-.5-1-.1-.3 0-.5.1-.8.1-.3.3-.5.5-.6.3-.2.6-.3.9-.2.3.1.6.3.9.7l2 3 .8-.5-2-3c-.2-.6-.5-.9-.8-1zm-11 5.1l-.6-.9-.8.5.6.9.8-.5zm-3.6 1.1l1.8 2.7-3.4 2.3-1.8-2.7-.9.6 4.4 6.5.9-.6-2.1-3.1 3.4-2.3 2.1 3.1.9-.6-4.4-6.5-.9.6zm3.4.3l3.2 4.7.8-.5-3.2-4.7-.8.5zm5.9-3.9l-.7.5.4.6c-.7-.2-1.3-.1-1.8.3-.4.3-.7.6-.9 1-.2.4-.2.9-.1 1.4.1.5.3 1 .6 1.4.4.7 1 1.1 1.7 1.3.7.2 1.3.1 2-.3.5-.4.8-.9.9-1.5.4.5.6.9.6 1.1.1.3.1.6 0 .9-.1.3-.3.6-.7.8-.3.2-.7.3-1 .3-.2 0-.4-.1-.6-.3l-.9.4c.3.5.8.8 1.3.8s1.1-.2 1.6-.5.8-.7 1-1.1c.2-.4.3-.8.2-1.2-.1-.4-.3-1-.8-1.7l-2.8-4.2zm1.3 4.4c-.1.5-.3.8-.6 1.1-.4.2-.8.3-1.2.2-.4-.1-.9-.5-1.3-1.1-.4-.6-.6-1.1-.5-1.5.1-.5.3-.8.6-1 .4-.2.8-.3 1.2-.2.5.1.9.5 1.3 1s.6 1 .5 1.5zm24.5-17.2c.1.4.1.8 0 1.1-.1.3-.3.5-.6.7-.4.3-.8.4-1.3.3-.4-.1-.9-.4-1.2-.9l3.5-2.4c-.1-.1-.1-.2-.1-.2-.5-.8-1.1-1.3-1.8-1.4-.7-.2-1.4 0-2 .4-.7.4-1 1-1.1 1.7-.1.7.1 1.5.6 2.3.5.8 1.1 1.2 1.8 1.4.7.2 1.4 0 2.1-.5.5-.4.9-.8 1.1-1.3.2-.5.2-1 0-1.6l-1 .4zm-3.7-.8c.1-.4.3-.7.7-1 .4-.3.8-.3 1.3-.2.3.1.6.3.9.7l-2.6 1.8c-.3-.5-.4-.9-.3-1.3zm8.8-2.6c.1.4.1.8 0 1.1-.1.3-.3.5-.6.7-.4.3-.8.4-1.3.3-.4-.1-.9-.4-1.2-.9l3.5-2.4c-.1-.1-.1-.2-.1-.2-.5-.8-1.1-1.3-1.8-1.4-.7-.2-1.4 0-2 .4-.7.4-1 1-1.1 1.7-.1.7.1 1.5.6 2.3.5.8 1.1 1.2 1.8 1.4.7.2 1.4 0 2.1-.5.5-.4.9-.8 1.1-1.3.2-.5.2-1 0-1.6l-1 .4zm-3.7-.8c.1-.4.3-.7.7-1 .4-.3.8-.3 1.3-.2.3.1.6.3.9.7l-2.6 1.8c-.3-.5-.4-.9-.3-1.3zm7.8-.8l-.3.3c-.1.1-.2.1-.3.1-.1 0-.2 0-.2-.1-.1 0-.2-.2-.3-.4l-1.9-2.8.8-.5-.4-.6-.8.5-1.1-1.7-.5 1 .8 1.2-.6.4.4.6.6-.4 1.8 2.7c.3.5.6.8.7.9.2.1.4.2.6.1.2 0 .5-.1.8-.3.2-.1.4-.3.6-.5l-.7-.5zm-16 10.8c-.1.1-.2.1-.3.1-.1 0-.2 0-.2-.1-.1 0-.2-.2-.3-.4l-1.9-2.8.8-.5-.4-.6-.8.5-1.1-1.7-.5 1 .8 1.2-.6.4.4.6.6-.4 1.8 2.7c.3.5.6.8.7.9.2.1.4.2.6.1.2 0 .5-.1.8-.3.2-.1.4-.3.6-.5l-.6-.6c-.2.3-.3.4-.4.4zm-4.2-.2c-.4-.1-.8-.2-1.3-.1-.3.1-.9.2-1.7.6-.8.3-1.4.5-1.6.4-.3 0-.5-.2-.6-.4-.2-.3-.2-.6-.1-.9.1-.4.4-.7.9-1.1.5-.3 1-.5 1.4-.5.4 0 .8.2 1.1.6l.8-.6c-.3-.4-.6-.6-1-.8-.4-.2-.8-.2-1.3-.1s-1 .3-1.4.6c-.4.3-.8.6-1 1-.3.4-.4.8-.4 1.2 0 .4.1.8.3 1.1.2.3.5.5.8.7.3.1.7.2 1.1.1.3 0 .8-.2 1.5-.4.7-.3 1.2-.4 1.4-.5.3-.1.6-.1.8 0 .2.1.4.2.5.4.1.2.2.4.2.7 0 .3-.1.5-.3.8-.2.3-.4.5-.8.7-.4.2-.7.4-1.1.5-.4.1-.7 0-1-.1-.3-.1-.6-.3-.8-.6l-.8.6c.3.4.7.7 1.1.9.5.2.9.2 1.5.1.5-.1 1.1-.3 1.7-.7.5-.3.8-.7 1.1-1.1.3-.4.4-.9.4-1.3s-.1-.8-.4-1.2c-.3-.2-.6-.5-1-.6zm4.4-3.9c-.1-.2-.1-.4 0-.6.1-.2.2-.4.4-.5.2-.1.4-.2.7-.2l-.2-.9c-.4 0-.7.1-1 .3-.2.1-.3.3-.4.5-.1.2-.1.5-.1 1l-.5-.7-.7.5 3.2 4.7.8-.5-1.7-2.5c-.2-.4-.4-.7-.5-1.1zm0 0" class="Shape"/>
    <path fill="#757473" stroke-width=".5" d="M369.2 120.7v1.4l-.1.8v.1l-.3.9-.3.7-.6 1.1-.8.8-.1.1-.8.8h-.1l-.9.7-.1.1-1.4.9-.1.1 6.7 2.5v1.2l-6.9 5-10.4-5.1-.3.1-8 1-7.8.1-72.6 51.7-2 14.1-12.7 9.1 43 11.5-4.1 4-1.1 1.4-5.1 3.6-36-9V219l2.8-2-109.9-27.6-4.3 3.1-.4.1-.3.1h-.1l-.3.1h-.1l-.6.2h-.1l-.7.2h-.1l-1.9.3H128.8l-4.8-.1h-.1l-1.1-.1-3.8-.7-1.2.8L96 188v-1.2c2.3-1.6 4.6-3.2 6.8-4.9l-5.1-.8L44 219.8l-.2 4.4 30.1 8.4 11.1 2.9 3.5-2.5 18.9 2.7.1 3.6 22.7 2.9 4.4-3.1 61.5 15.2 56.1 14.2-69.2 46.3-142.8-42.7 21.7-18L3.8 236 86 177.5 302.5 19.3l16.9 4-7.6 5.5 5.1 1.4-17.2 12.2 17.2 4.5-6.1 5.1-18.6-4.3-44.8 31.9 40.1 10 41.6 19.2 12.6-.7c4.5.2 8.7.8 12.6 1.7l.8.2c4.5 1.2 8 2.8 10.4 4.8 2.4 1.9 3.5 4 3.4 6.1l.3-.2m-130-35.5l-113.5 80.7 31.7 7.9 14.8-14.4 31.1-17.6 15.3-10.9-7.4-2.1 6.7-5.2 7.6 2.4 21.7-15.4 4.8 1.2-33.8 30.6 56.3 14.1 40-28.8c-2.9-2-4.4-4.2-4.3-6.5V120c0-2.2 1.4-4.2 4-6.1.5-.3 1-.7 1.7-1.1l-37.2-17.3-39.4-9.8-.1-.5m24.7 78.9l-57-14.2v-1.3l6.2-4.5-3.8-.9-45.3 32.3 3.8.9v1.2l-11 7.9 43.9 10.9 14-10L243 179l20.9-14.9" class="road"/>
    <path fill="#808285" stroke-width=".5" d="M161.7 177c-.5 0-.9-.2-1.2-.6-.5-.7-.3-1.6.4-2.1l45.7-32.5c.7-.5 1.6-.3 2.1.4s.3 1.6-.4 2.1l-45.7 32.5c-.3.1-.6.2-.9.2zm0 0M43.5 225.8l41 10.2 22.5 4 22.7 2.8 61.7 14.7-12.7 8.1-8.8-2-11.9 9.7-4.5-.9-60.4-15.1-2.8 1.8-8.3-1.9 5.3-4.5 5.1 1.2 11.5-8.6-23.8-4-42.4-10.9 5.8-4.6" class="walkway"/>
    <path fill="#989898" stroke-width=".5" d="M174.4 164.1v-4.7l4.9 1.2 43.1-30.7v-2.6l2.7.7 23.6-16.9 60.8 15.2-.8.5-58.4-14.6v6.3l51.8 13-1.7 1.2-58.4-14.6v6.3l51.8 12.9-1.8 1.3-58.4-14.6v6.3l51.9 12.9-4.7 3.3-21-5.2-5.8 4.2-37.4-9.4v6.3l29.3 12.6-5.4 3.8-.1 6.3 10.6 2.6-5.8 4.1-30.6-7.6-8 5.7-27.7-6.9v6.3l40.4 10.1-4 1.1-14 10-45.2-11.3v6.3l45.1 11.3 14-10 28.2-7.5 22.2-15.9 50.4-35.9v-6.4l-.2.2v-.2l-5.3-1.3v-.5l.2-.9.6-1.1.6-.8.5-.5.2-.3.9-.8 2.5-1.7 1.5-.8.1-6.4-3.1 1.8-1.8 1.5-.6.8-.1.1-.6.9-.4.8v.2l-.2.7v.2l-.1.6v6.2L215.2 96v6.4l27.1 6.8-.6.4-33.6-8.4-.2.2v6.4l.2-.2 27 6.7-1.7 1.3-33.6-8.4v6.4l27.1 6.7-1.5 1.1-33.6-8.4v6.4l27.1 6.7-8.1 5.8-33.6-8.4v6.3l27.1 6.8-5.4 3.8-33.6-8.4v5.8l-6-1.5v6.3l27 6.8-6.5 4.6-33.6-8.4v6.3l27.1 6.8-13.4 9.5-33.6-8.4v6.3l33.6 8.4 14.5-10.4zm186.5-25.3l2.9-1.7v-6.3l-2.9 1.7v6.3zm-31-96.2v-2.8l2.9.7 7.9-5.7v-6.3l-7.9 5.7-22.7-5.7v6.3l16.1 4-4.2 3-22.7-5.7v6.3l22.6 5.7 8-5.5zm-40.4 46.9v1.1l40.2 18.6 4.9-.6 1.2-.1h6.8l5.9.5 9.1 2 2.8 1 .2.1c.5.2 1.1.5 1.7.8l.3.2 3.2 2h.1l1.2 1 1.1 1.2.1.2.6.9.1.2.4 1.1.1.2.1 1.1v-6.4l-.1-1.1v-.2l-.4-1.1-.1-.2-.6-.9-.1-.2-.9-1.1-1.4-1.2-.1-.1-1.3-.9-.1-.1 33-10.4-4 12.2-22.9 16.3-8.1-3.1v6.3l8.1 3.1 22.9-16.3 6.3-19.2v-1.5h.8l13-20.5v-6.3l-13 20.5-84.4-5.5-32.2-8 20.6-14.7V59l9.9 2.5 16.6.8V56l-16.6-.8-29.1-7.2v6.4l14.1 3.5-.8.6-22.6-5.7v5.3l-5.5-1.4v5.6l-5.7-1.5v6.4l16 4-4.5 3.2v6.3l3.6-2.6v2.5l9.8 2.4-1.6.6-11.8-2.9-29.2-7.3-.1 6.4 41 10.2 1.4-.5zm113.1-24.8v-6.3L350 20.3v6.3l3 36.4 49.6 1.7zM250.9 210.2l-4.1 2.9v6.3l4.1-2.9v-6.3zm-116.5 22.6l-4.3 3.1-22.7-2.8-.1 6.3 22.7 2.9 4.3-3.1 55.9 14 .4.1.4.1 61.5 15.3 66.8-31.1.1-6.3-66.8 31.1-118.2-29.6zm31.9 55.1l6.1-4.3v-1.9l5.2 1.3v-6.3l-22.4-5.1.1 5.9 12.5 3.1-9.4 6.7-22.3-5.5v6.3l22.3 5.5 4.6-3.3v3.1l20.9 5.2 29.2-20.9.1-6.4-29.3 20.9-17.6-4.3zm-76.1-70l-.3.2v6.3l6.9-4.9 28.4 7.1v-6.4l-19-4.9-12.9-2.9-26.7-6.8-1.5-1.5v6.3l1.2 1.4 23.9 6.1zM400.1 174l-95.5-23.8-.1 6.4 89.1 22.2-2.8 2-95.6-23.9v6.4l52 12.9-7.1 5.1-58.5-14.6-.1 6.3 52 12.9-1.8 1.4-58.7-14.6v6.3l52 13-1.6 1.1-58.5-14.6v6.4l52 12.9-22.7 16.2-45.4-11.4v6.3l45.4 11.4 1.4-1v1.3l31.8 7.9 4.6-3.3v-6.3l-4.6 3.3-26.6-6.6 52.9-37.8 37 9.2 9.4-6.7v-.1L420 166v-6.4L400.1 174zM97.3 220.2L85 229l-41.4-10.3v6.4L85 235.4l12.3-8.7v-6.5zm47.6 55.3l-57.8-14.4-.1 6.4 57.8 14.4.1-6.4zm109.3-96.6l6.9 1.7 4.1-3v-6l-6.9-1.7-4.2 3.1.1 5.9zm0 0" class="wall"/>
    <path id="unit-1001" fill="#fff" stroke="#ddd" stroke-width=".5" d="M319.6 44.8l11.8 3.2v8.7l-16.7-1.1-29.3-7.1 7.7-5.7 21.6 5.4 4.9-3.4zm0 0" class="unit"/>
    <path id="unit-1002" fill="#fff" stroke="#ddd" stroke-width=".5" d="M350.3 20.8L403 58.9 353.5 57l-3.2-36.2zm0 0" class="unit"/>
    <path id="unit-1003" fill="#fff" stroke="#ddd" stroke-width=".5" d="M282.1 49.1l23 5.8-6.7 4.3-22.2-5.9 5.9-4.2zm0 0" class="unit"/>
    <path id="unit-1004" fill="#fff" stroke="#ddd" stroke-width=".5" d="M270.7 57.3l5.4-3.9 22.2 5.7-5.1 3.6-22.5-5.4zm0 0" class="unit"/>
    <path id="unit-1005" fill="#fff" stroke="#ddd" stroke-width=".5" d="M287.5 66.8L265 61.3l5.6-3.9 22.3 5.6-5.4 3.8zm0 0" class="unit"/>
    <path id="unit-1006" fill="#fff" stroke="#ddd" stroke-width=".5" d="M299.9 89.3l-10.4-4.5 10.8-3.8 14.5 3.7-14.9 4.6zm0 0" class="unit"/>
    <path id="unit-1007" fill="#fff" stroke="#ddd" stroke-width=".5" d="M276.1 74.9l22.6 5.4-10.4 4L247.2 74 265 61.4l22.1 5.7-11 7.8zm0 0" class="unit"/>
    <path id="unit-1008" fill="#fff" stroke="#ddd" stroke-width=".5" d="M413.7 69l-13.2 20.4-84-5.6-35.7-8.9 26.6-19 7.1 1.8 89.1 2.5 10.1 8.8zm0 0" class="unit"/>
    <path id="unit-1009" fill="#fff" stroke="#ddd" stroke-width=".5" d="M314.8 84.6l13.9 1.2-21.2 7.3-7.7-3.8 15-4.7zm0 0" class="unit"/>
    <path id="unit-1010" fill="#fff" stroke="#ddd" stroke-width=".5" d="M316.1 107.6c-.9.3-1.5.6-1.8.8-2.7 1.9-3.8 4.1-3.4 6.6.4 2.4 2.1 4.6 5.1 6.6l-100.4-25 24.5-17.5 39.3 9.8 38.6 17.9-1.9.8zm0 0" class="unit"/>
    <path id="unit-1011" fill="#fff" stroke="#ddd" stroke-width=".5" d="M372.2 88.8l-42.4 14.6L307.5 93l21.2-7.2 43.5 3zm0 0" class="unit"/>
    <path id="unit-1012" fill="#fff" stroke="#ddd" stroke-width=".5" d="M355.1 104.3c-3.5-.9-7.6-1.4-12.4-1.5l-12.9.6L372.3 89l27.2 1.7-44.1 14-.3-.4zm0 0" class="unit"/>
    <path id="unit-1013" fill="#fff" stroke="#ddd" stroke-width=".5" d="M199.9 107.5l33.2 8.4-7.5 5.8-33.8-8.4 8.1-5.8zm0 0" class="unit"/>
    <path id="unit-1014" fill="#fff" stroke="#ddd" stroke-width=".5" d="M241.3 109.9l-8 5.7-33.2-8.3 8.1-5.8 33.1 8.4zm0 0" class="unit"/>
    <path id="unit-1015" fill="#fff" stroke="#ddd" stroke-width=".5" d="M362.1 123.1c1.3-.6 2.4-1.3 3.4-2 4-2.8 5.1-5.8 3.2-9-1.9-3.1-6.2-5.6-12.9-7.4l44.5-14.1-6.8 19.4-22.7 16.3-8.7-3.2zm0 0" class="unit"/>
    <path id="unit-1016" fill="#fff" stroke="#ddd" stroke-width=".5" d="M258.4 107.5l58 14.3-7.5 4.9-57.9-14.4 7.4-4.8zm0 0" class="unit"/>
    <path id="unit-1017" fill="#fff" stroke="#ddd" stroke-width=".5" d="M250.8 112.5l57.7 14.5-7.9 5.7-57.9-14.5 8.1-5.7zm0 0" class="unit"/>
    <path id="unit-1018" fill="#fff" stroke="#ddd" stroke-width=".5" d="M318.1 23.1l22.8 5.8-8 5.5-22.7-5.7 7.9-5.6zm0 0" class="unit"/>
    <path id="unit-1019" fill="#fff" stroke="#ddd" stroke-width=".5" d="M299.2 36.9l8-5.8 22.2 5.8-7.5 5.4-22.7-5.4zm0 0" class="unit"/>
    <path id="unit-1020" fill="#fff" stroke="#ddd" stroke-width=".5" d="M183.3 119.4l5.9-4.2 33.1 8.6-5.6 4.1-6 4.1-33.4-8.3 6-4.3 33.4 8.5" class="unit"/>
    <path id="unit-1021" fill="#fff" stroke="#ddd" stroke-width=".5" d="M198.9 140.5l-33.2-8.3 11.6-8.3 33.1 8.4-11.5 8.2zm0 0" class="unit"/>
    <path id="unit-1022" fill="#fff" stroke="#ddd" stroke-width=".5" d="M165.4 132.3l33.1 8.4-5.7 4.1-33.3-8.4 5.9-4.1zm0 0" class="unit"/>
    <path id="unit-1023" fill="#fff" stroke="#ddd" stroke-width=".5" d="M159.2 136.8l33.1 8.4-12.7 9.1-33.6-8 13.2-9.5zm0 0" class="unit"/>
    <path id="unit-1024" fill="#fff" stroke="#ddd" stroke-width=".5" d="M242.7 118.2l57.6 14.7-8 5.7-57.9-14.4 8.3-6zm0 0" class="unit"/>
    <path id="unit-1025" fill="#fff" stroke="#ddd" stroke-width=".5" d="M254.4 145.5l-37.4-9 17.3-12.3 57.7 14.6-10.9 7.8-20.9-5.2-5.8 4.1zm0 0" class="unit"/>
    <path id="unit-1026" fill="#fff" stroke="#ddd" stroke-width=".5" d="M260.3 141.6l20.5 5.3-5.4 3.9-20.7-5.1 5.6-4.1zm0 0" class="unit"/>
    <path id="unit-1027" fill="#fff" stroke="#ddd" stroke-width=".5" d="M141 149.4l33.8 8.7-15 10.3-33.9-8.1 15.1-10.9zm0 0" class="unit"/>
    <path id="unit-1028" fill="#fff" stroke="#ddd" stroke-width=".5" d="M262.2 160.5l-16.5-4.4 4-2.9 17 4.3-4.5 3zm0 0" class="unit"/>
    <path id="unit-1029" fill="#fff" stroke="#ddd" stroke-width=".5" d="M243.9 173.2l-11.6 3.1-24.4-6.1 7.6-5.4 29.8 7.4-1.4 1zm0 0" class="unit"/>
    <path id="unit-1030" fill="#fff" stroke="#ddd" stroke-width=".5" d="M257.8 163.5l-16.2-4.5 3.7-2.6 16.8 4.2-4.3 2.9zm0 0" class="unit"/>
    <path id="unit-1031" fill="#fff" stroke="#ddd" stroke-width=".5" d="M241.4 159.3l16.6 4.2-12.3 8.5-30.1-7.4-7.9 5.7-27.9-6.9 28.5-20.4 41.4 10.4-8.3 5.9zm0 0" class="unit"/>
    <path id="unit-1032" fill="#fff" stroke="#ddd" stroke-width=".5" d="M215.7 180.7l-13.9 9.9-45.1-10.8 22.8-16.3 52.3 13.1-16.1 4.1zm0 0" class="unit"/>
    <path id="unit-1033" fill="#fff" stroke="#ddd" stroke-width=".5" d="M353.3 125.9l11 5.2-3.4 1.7 59.4 27.2-20.6 13.9-95.1-23.6 32.8-23.3c5.6.3 10.9-.1 15.9-1.1zm0 0" class="unit"/>
    <path id="unit-1034" fill="#fff" stroke="#ddd" stroke-width=".5" d="M390.5 180.8l-95.3-23.9 9.5-6.8 94.9 23.9-9.1 6.8zm0 0" class="unit"/>
    <path id="unit-1035" fill="#fff" stroke="#ddd" stroke-width=".5" d="M340.1 181.2l-58.2-14.5 13.4-9.5 58 14.6-13.2 9.4zm0 0" class="unit"/>
    <path id="unit-1036" fill="#fff" stroke="#ddd" stroke-width=".5" d="M331.6 187.3l-58.2-14.5 8.3-5.8 58 14.6-8.1 5.7zm0 0" class="unit"/>
    <path id="unit-1037" fill="#fff" stroke="#ddd" stroke-width=".5" d="M265.2 178.6l8.2-5.8 57.8 14.6-7.8 5.6-58.2-14.4zm0 0" class="unit"/>
    <path id="unit-1038" fill="#fff" stroke="#ddd" stroke-width=".5" d="M294.7 214L249 202.6l14.1-10 2-14.1 58.3 14.6-28.7 20.9zm0 0" class="unit"/>
    <path id="unit-1039" fill="#fff" stroke="#ddd" stroke-width=".5" d="M295.4 214.2l4.8-3.5 32.1 8-4.9 3.4-32-7.9zm0 0" class="unit"/>
    <path id="unit-1040" fill="#fff" stroke="#ddd" stroke-width=".5" d="M66.3 205.9l31.1 7.8-7.8 4.9 8.4 1.7-12.7 8.6L44 218.8l20.6-14.6 1.7 1.7zm0 0" class="unit"/>
    <path id="unit-1041" fill="#fff" stroke="#ddd" stroke-width=".5" d="M87.2 261.3l57.7 14.3-8.8 6.2 22.6 5.5 14-10.2-79.9-20-5.6 4.2zm0 0" class="unit"/>
    <path id="unit-1042" fill="#fff" stroke="#ddd" stroke-width=".5" d="M170.9 260.1l42.2 11.2-29.3 21.1-20.3-5c4.7-3.4 9.4-6.9 14.1-10.3l-22.2-5.2 15.5-11.8zm0 0" class="unit"/>
    <path id="unit-1043" fill="#fff" stroke="#ddd" stroke-width=".5" d="M65.3 204.1L98 180.8l21.9 5.4 1-.7c4.1 1.1 7.9 1.4 11.5.8 1.8-.3 3.2-.6 4.2-1.1l4.2-3 110.9 28-3.9 2.8 72.1 18-67.2 31.5L135.4 233l-4.6 3-23.1-2.9 17.6-12.6-58.7-15-1.3-1.4zm0 0" class="unit"/>
    <path id="unit-1044" fill="#fff" stroke="#ddd" stroke-width=".5" d="M212.9 98.2l-4.6 3.3 33.4 8.2 6.8-4.9-29.3-7.4-2.3 1.7-4-.9zm0 0" class="unit"/>
    <path id="unit-1045" fill="#fff" stroke="#ddd" stroke-width=".5" d="M208.3 142.9l8.6-6.4 58.5 14.3-8.8 6.7-58.3-14.6zm0 0" class="unit"/>
    <path id="unit-1046" fill="#fff" stroke="#ddd" stroke-width=".5" d="M219.2 97.4l-3.8-1-2.5 1.7 4 .9 2.3-1.6zm0 0" class="unit"/>
    <path id="unit-1047" fill="#fff" stroke="#ddd" stroke-width=".5" d="M265.2 171.6l-4.1 3.1-6.9-1.8 4.2-3 6.8 1.7zm0 0" class="unit"/>
  </g>
</svg>