<svg
  xmlns="http://www.w3.org/2000/svg"
  xmlns:xlink="http://www.w3.org/1999/xlink"
  id="centre-map"
  version="1.1"
  >

  <!-- Icons -->
  <g class="baby_changing base-icon" transform="scale(0.7)">
    <path d="M22,11c0,6.075-4.925,11-11,11S0,17.075,0,11S4.925,0,11,0S22,4.925,22,11z" class="black" stroke="none" fill="#808285" stroke-width="0.5"/>
    <path d="M21,11c0,5.523-4.477,10-10,10C5.477,21,1,16.523,1,11C1,5.477,5.477,1,11,1C16.523,1,21,5.477,21,11z" class="white" stroke="none" fill="white" stroke-width="0.5"/>
    <path d="M10.991,5.092c-0.304,0-0.566,0.121-0.691,0.297l0,0C9.678,5.653,9.243,6.254,9.243,6.956l0,0 c0,0.944,0.787,1.708,1.758,1.708l0,0c0.972,0,1.757-0.764,1.757-1.708l0,0c0-0.702-0.438-1.304-1.058-1.567l0,0 c0.173-0.237,0.021-0.658,0.021-0.658l0,0C11.618,4.939,11.33,5.092,10.991,5.092L10.991,5.092z M7.062,8.973 c-0.439,0-0.723,0.274-0.723,0.635l0,0c0,0.377,0.283,0.651,0.723,0.651l0,0h2.146v1.812c0.204-0.154,0.594-0.358,1.086-0.17l0,0 c0.683,0.263,1.435,0.841,2.47,0.455l0,0v-2.097h2.172c0.426,0,0.727-0.274,0.727-0.651l0,0c0-0.361-0.301-0.635-0.727-0.635l0,0 H7.062z M11.641,13.884l1.063,1.027l-0.638,1.399c-0.172,0.377-0.034,0.754,0.305,0.898l0,0c0.355,0.15,0.734-0.004,0.906-0.38l0,0 l0.81-1.779c-0.001,0-0.001,0-0.001,0l0,0c0.123-0.249,0.07-0.549-0.168-0.78l0,0l-1.152-1.113L11.641,13.884z M8.09,14.271 c-0.24,0.23-0.293,0.53-0.167,0.779l0,0H7.921l0.81,1.779c0.17,0.376,0.549,0.531,0.905,0.38l0,0 c0.339-0.146,0.477-0.522,0.305-0.897l0,0l-0.637-1.4l1.065-1.027h0.024l-1.184-0.693L8.09,14.271z" class="black" stroke="none" fill="#808285" stroke-width="0.5"/>
  </g>
  <g class="cash_machine base-icon" transform="scale(0.7)">
    <path d="M22,11c0,6.075-4.925,11-11,11S0,17.075,0,11S4.925,0,11,0S22,4.925,22,11z" class="black" stroke="none" fill="#808285" stroke-width="0.5"/>
    <path d="M21,11c0,5.523-4.477,10-10,10C5.477,21,1,16.523,1,11C1,5.477,5.477,1,11,1C16.523,1,21,5.477,21,11z" class="white" stroke="none" fill="white" stroke-width="0.5"/>
    <path d="M17.625,6.652H4.375v4.488H7.42l1.668-3.366h4.729l-0.709,1.402h0.988l-0.957,1.964h4.486V6.652z" class="black" stroke="none" fill="#808285" stroke-width="0.5"/>
    <path d="M13.252,8.896l-0.145,0.268l-0.151,0.293h0.663l-2.693,5.33H6.854l0.599-1.121H7.087h-0.29L5.9,15.349h5.385l3.289-6.451 L13.252,8.896L13.252,8.896z" class="black" stroke="none" fill="#808285" stroke-width="0.5"/>
    <path d="M11.005,13.945H5.62l3.29-6.452h5.386L11.005,13.945L11.005,13.945z M6.574,13.384h4.073l2.694-5.329H9.268L6.574,13.384 L6.574,13.384z" class="black" stroke="none" fill="#808285" stroke-width="0.5"/>
    <path d="M10.282,10.618L9.75,10.504c-0.005-0.138-0.01-0.273,0.015-0.393c0.043-0.204,0.202-0.289,0.384-0.25 c0.128,0.027,0.195,0.068,0.257,0.101c0.038,0.02,0.088,0.049,0.132,0.059c0.116,0.025,0.23-0.062,0.255-0.178 c0.014-0.065,0.005-0.113-0.033-0.167c-0.079-0.112-0.316-0.235-0.553-0.285C9.782,9.299,9.395,9.488,9.301,9.929 c-0.033,0.156-0.009,0.314,0.005,0.481l-0.15-0.032c-0.109-0.024-0.196,0.027-0.219,0.136c-0.023,0.109,0.036,0.19,0.145,0.214 l0.215,0.045c-0.004,0.019-0.004,0.038-0.007,0.052c-0.053,0.251-0.159,0.374-0.262,0.5c-0.108,0.127-0.159,0.207-0.174,0.276 c-0.022,0.105,0.019,0.252,0.234,0.297l1.071,0.229c0.135,0.027,0.254-0.029,0.284-0.172c0.03-0.143-0.062-0.246-0.189-0.273 l-0.835-0.177c0.139-0.15,0.267-0.325,0.319-0.569c0.005-0.022,0.01-0.043,0.011-0.066l0.459,0.098 c0.109,0.023,0.196-0.027,0.219-0.136C10.451,10.722,10.406,10.644,10.282,10.618z" class="black" stroke="none" fill="#808285" stroke-width="0.5"/>
  </g>
  <g class="click_and_collect base-icon" transform="scale(0.7)">
    <path d="M22,11c0,6.075-4.925,11-11,11S0,17.075,0,11S4.925,0,11,0S22,4.925,22,11z" class="black" stroke="none" fill="#808285" stroke-width="0.5"/>
    <path d="M21,11c0,5.523-4.477,10-10,10C5.477,21,1,16.523,1,11C1,5.477,5.477,1,11,1C16.523,1,21,5.477,21,11z" class="white" stroke="none" fill="white" stroke-width="0.5"/>
    <path d="M11.394,4.638h-0.085v1.486c0.81,0.132,1.423,0.765,1.423,1.53v2.012c0,0.861-0.774,1.559-1.731,1.559 c-0.958,0-1.733-0.698-1.733-1.559V7.654c0-0.729,0.56-1.336,1.312-1.506v-1.51C8.665,4.653,7.116,6.2,7.116,8.109v5.782 c0,1.918,1.562,3.473,3.491,3.473h0.787c1.928,0,3.49-1.555,3.49-3.473V8.109C14.884,6.19,13.32,4.638,11.394,4.638L11.394,4.638z" id="Shape" class="black" stroke="none" fill="#808285" stroke-width="0.5"/>
    <path d="M9.94,7.979V9.34c0,0.583,0.475,1.055,1.06,1.055s1.061-0.472,1.061-1.055V7.979 c0-0.582-0.476-1.054-1.061-1.054S9.94,7.397,9.94,7.979L9.94,7.979z" id="Shape_1_" class="black" stroke="none" fill="#808285" stroke-width="0.5"/>
  </g>
  <g class="customer_services base-icon" transform="scale(0.7)">
    <path class="black" fill="#808285" d="M22,11c0,6.075-4.925,11-11,11S0,17.075,0,11S4.925,0,11,0S22,4.925,22,11z"/>
    <path class="white" fill="#FFFFFF" d="M21,11c0,5.523-4.477,10-10,10C5.477,21,1,16.523,1,11C1,5.477,5.477,1,11,1C16.523,1,21,5.477,21,11z"/>
    <path class="black" fill="#808285" d="M15.946,8.218C15.1,6.283,13.203,4.93,11,4.93S6.9,6.283,6.054,8.218C4.924,8.389,4.062,9.274,4.062,10.35 c0,1.057,0.834,1.935,1.936,2.126c0.376,1.044,1.068,2.215,2.252,3.062c-0.033,0.109-0.068,0.219-0.068,0.339 c0,0.658,0.534,1.192,1.192,1.192s1.192-0.534,1.192-1.192s-0.534-1.192-1.192-1.192c-0.328,0-0.625,0.133-0.84,0.348 c-1.136-0.828-1.769-1.988-2.087-2.973V8.827c0.667-1.923,2.446-3.312,4.552-3.312c2.107,0,3.887,1.391,4.554,3.315v3.687 c1.317,0,2.385-0.971,2.385-2.167C17.938,9.274,17.076,8.389,15.946,8.218z"/>
    <path class="black" fill="#808285" d="M13.255,10.448c-1.425,0-2.644-0.841-3.22-2.05c-0.474,0.999-1.387,1.748-2.497,1.977 c0,0.025-0.007,0.048-0.007,0.074c0,1.98,1.601,3.587,3.577,3.587s3.578-1.606,3.578-3.587c0-0.099-0.021-0.191-0.028-0.288 C14.227,10.345,13.753,10.448,13.255,10.448L13.255,10.448z"/>
  </g>
  <g class="disabled_toilets base-icon" transform="scale(0.7)">
    <path class="black" fill="#808285" d="M22,11c0,6.075-4.925,11-11,11S0,17.075,0,11S4.925,0,11,0S22,4.925,22,11z"/>
    <path class="white" fill="#FFFFFF" d="M21,11c0,5.523-4.477,10-10,10C5.477,21,1,16.523,1,11C1,5.477,5.477,1,11,1C16.523,1,21,5.477,21,11z"/>
    <path class="black" fill="#808285" d="M15.819,15.12l0.003,0.005l-0.752,0.478l-0.465,0.3l-0.002-0.003L14.6,15.902l-2.346-3.657H8.486V7.633 c-0.384-0.24-0.64-0.665-0.64-1.149c0-0.75,0.611-1.359,1.365-1.359c0.754,0,1.365,0.608,1.365,1.359 c0,0.484-0.255,0.909-0.639,1.149v1.299h3.483v1.444H9.937V10.8h3.112l1.99,3.103l0.798-0.515l0.762,1.229L15.819,15.12z M9.382,15.672c-1.528,0-2.771-1.238-2.771-2.76c0-1.021,0.562-1.913,1.392-2.39V9.194c-1.519,0.559-2.601,2.012-2.601,3.718 c0,2.188,1.782,3.963,3.98,3.963c1.679,0,3.114-1.035,3.699-2.499l-0.928-1.448C12.145,14.442,10.905,15.672,9.382,15.672z"/>
  </g>
  <g class="elevator base-icon" transform="scale(0.7)">
    <path d="M22,11c0,6.075-4.925,11-11,11S0,17.075,0,11S4.925,0,11,0S22,4.925,22,11z" class="black" stroke="none" fill="#808285" stroke-width="0.5"/>
    <path d="M21,11c0,5.523-4.477,10-10,10C5.477,21,1,16.523,1,11C1,5.477,5.477,1,11,1C16.523,1,21,5.477,21,11z" class="white" stroke="none" fill="white" stroke-width="0.5"/>
    <path d="M15.307,9.513H6.693c-0.728,0-1.318,0.416-1.318,0.93v5.577c0,0.515,0.59,0.932,1.318,0.932h8.614 c0.729,0,1.317-0.417,1.317-0.932v-5.577C16.625,9.929,16.034,9.513,15.307,9.513L15.307,9.513z M15.758,16.02 c0,0.104-0.122,0.188-0.273,0.188H6.517c-0.152,0-0.275-0.083-0.275-0.188v-5.577c0-0.103,0.123-0.186,0.275-0.186h8.965 c0.151,0,0.273,0.083,0.273,0.186L15.758,16.02L15.758,16.02z" class="black" stroke="none" fill="#808285" stroke-width="0.5"/>
    <path d="M8.298,11c0.216,0,0.391,0.167,0.391,0.372c0,0.206-0.175,0.372-0.391,0.372c-0.216,0-0.391-0.166-0.391-0.372 C7.907,11.167,8.082,11,8.298,11z" class="black" stroke="none" fill="#808285" stroke-width="0.5"/>
    <path d="M10.873,11c0.216,0,0.391,0.167,0.391,0.372c0,0.206-0.175,0.372-0.391,0.372s-0.391-0.166-0.391-0.372 C10.482,11.167,10.657,11,10.873,11z" class="black" stroke="none" fill="#808285" stroke-width="0.5"/>
    <path d="M13.635,11c0.217,0,0.391,0.167,0.391,0.372c0,0.206-0.174,0.372-0.391,0.372c-0.216,0-0.391-0.166-0.391-0.372 C13.244,11.167,13.419,11,13.635,11z" class="black" stroke="none" fill="#808285" stroke-width="0.5"/>
    <path d="M8.805,11.867H7.762c-0.144,0-0.261,0.119-0.261,0.266v1.328c0,0.124,0.083,0.229,0.196,0.257v1.62 c0,0.137,0.117,0.248,0.26,0.248c0.145,0,0.261-0.111,0.261-0.248v-1.611h0.13v1.611c0,0.137,0.117,0.248,0.261,0.248 s0.261-0.111,0.261-0.248v-1.62c0.112-0.028,0.196-0.133,0.196-0.257v-1.328C9.066,11.986,8.949,11.867,8.805,11.867L8.805,11.867z" class="black" stroke="none" fill="#808285" stroke-width="0.5"/>
    <path d="M11.379,11.867h-1.042c-0.144,0-0.261,0.119-0.261,0.266v1.328c0,0.124,0.083,0.229,0.196,0.257v1.62 c0,0.137,0.117,0.248,0.26,0.248c0.145,0,0.261-0.111,0.261-0.248v-1.611h0.13v1.611c0,0.137,0.117,0.248,0.261,0.248 s0.26-0.111,0.26-0.248v-1.62c0.113-0.028,0.197-0.133,0.197-0.257v-1.328C11.641,11.986,11.523,11.867,11.379,11.867L11.379,11.867 z" class="black" stroke="none" fill="#808285" stroke-width="0.5"/>
    <path d="M14.143,11.867H13.1c-0.145,0-0.261,0.119-0.261,0.266v1.328c0,0.124,0.082,0.229,0.194,0.257v1.62 c0,0.137,0.117,0.248,0.262,0.248s0.262-0.111,0.262-0.248v-1.611h0.129v1.611c0,0.137,0.117,0.248,0.263,0.248 c0.144,0,0.261-0.111,0.261-0.248v-1.62c0.111-0.028,0.193-0.133,0.193-0.257v-1.328C14.402,11.986,14.286,11.867,14.143,11.867 L14.143,11.867z" class="black" stroke="none" fill="#808285" stroke-width="0.5"/>
    <path d="M10.257,6.436l-1.303-1.24c-0.204-0.194-0.534-0.194-0.737,0l0,0l-1.304,1.24 c-0.203,0.194-0.203,0.508,0,0.701c0.204,0.193,0.534,0.193,0.738,0l0.413-0.393v1.777c0,0.274,0.233,0.496,0.521,0.496 s0.521-0.222,0.521-0.496V6.744L9.52,7.137c0.204,0.193,0.534,0.193,0.737,0C10.46,6.944,10.461,6.629,10.257,6.436L10.257,6.436z" class="black" stroke="none" fill="#808285" stroke-width="0.5"/>
    <path d="M14.99,6.931c-0.203-0.193-0.533-0.193-0.737,0L13.84,7.324V5.547c0-0.274-0.232-0.496-0.521-0.496 c-0.285,0-0.521,0.222-0.521,0.496v1.777l-0.414-0.393c-0.202-0.193-0.532-0.193-0.737,0c-0.203,0.194-0.203,0.508,0,0.702 l1.306,1.239l0,0c0.038,0.037,0.081,0.066,0.126,0.089c0.195,0.098,0.443,0.069,0.609-0.089l0,0l1.305-1.239 C15.193,7.439,15.193,7.125,14.99,6.931L14.99,6.931z" class="black" stroke="none" fill="#808285" stroke-width="0.5"/>
  </g>
  <g class="lift base-icon" transform="scale(0.7)">
    <path d="M22,11c0,6.075-4.925,11-11,11S0,17.075,0,11S4.925,0,11,0S22,4.925,22,11z" class="black" stroke="none" fill="#808285" stroke-width="0.5"/>
    <path d="M21,11c0,5.523-4.477,10-10,10C5.477,21,1,16.523,1,11C1,5.477,5.477,1,11,1C16.523,1,21,5.477,21,11z" class="white" stroke="none" fill="white" stroke-width="0.5"/>
    <path d="M15.307,9.513H6.693c-0.728,0-1.318,0.416-1.318,0.93v5.577c0,0.515,0.59,0.932,1.318,0.932h8.614 c0.729,0,1.317-0.417,1.317-0.932v-5.577C16.625,9.929,16.034,9.513,15.307,9.513L15.307,9.513z M15.758,16.02 c0,0.104-0.122,0.188-0.273,0.188H6.517c-0.152,0-0.275-0.083-0.275-0.188v-5.577c0-0.103,0.123-0.186,0.275-0.186h8.965 c0.151,0,0.273,0.083,0.273,0.186L15.758,16.02L15.758,16.02z" class="black" stroke="none" fill="#808285" stroke-width="0.5"/>
    <path d="M8.298,11c0.216,0,0.391,0.167,0.391,0.372c0,0.206-0.175,0.372-0.391,0.372c-0.216,0-0.391-0.166-0.391-0.372 C7.907,11.167,8.082,11,8.298,11z" class="black" stroke="none" fill="#808285" stroke-width="0.5"/>
    <path d="M10.873,11c0.216,0,0.391,0.167,0.391,0.372c0,0.206-0.175,0.372-0.391,0.372s-0.391-0.166-0.391-0.372 C10.482,11.167,10.657,11,10.873,11z" class="black" stroke="none" fill="#808285" stroke-width="0.5"/>
    <path d="M13.635,11c0.217,0,0.391,0.167,0.391,0.372c0,0.206-0.174,0.372-0.391,0.372c-0.216,0-0.391-0.166-0.391-0.372 C13.244,11.167,13.419,11,13.635,11z" class="black" stroke="none" fill="#808285" stroke-width="0.5"/>
    <path d="M8.805,11.867H7.762c-0.144,0-0.261,0.119-0.261,0.266v1.328c0,0.124,0.083,0.229,0.196,0.257v1.62 c0,0.137,0.117,0.248,0.26,0.248c0.145,0,0.261-0.111,0.261-0.248v-1.611h0.13v1.611c0,0.137,0.117,0.248,0.261,0.248 s0.261-0.111,0.261-0.248v-1.62c0.112-0.028,0.196-0.133,0.196-0.257v-1.328C9.066,11.986,8.949,11.867,8.805,11.867L8.805,11.867z" class="black" stroke="none" fill="#808285" stroke-width="0.5"/>
    <path d="M11.379,11.867h-1.042c-0.144,0-0.261,0.119-0.261,0.266v1.328c0,0.124,0.083,0.229,0.196,0.257v1.62 c0,0.137,0.117,0.248,0.26,0.248c0.145,0,0.261-0.111,0.261-0.248v-1.611h0.13v1.611c0,0.137,0.117,0.248,0.261,0.248 s0.26-0.111,0.26-0.248v-1.62c0.113-0.028,0.197-0.133,0.197-0.257v-1.328C11.641,11.986,11.523,11.867,11.379,11.867L11.379,11.867 z" class="black" stroke="none" fill="#808285" stroke-width="0.5"/>
    <path d="M14.143,11.867H13.1c-0.145,0-0.261,0.119-0.261,0.266v1.328c0,0.124,0.082,0.229,0.194,0.257v1.62 c0,0.137,0.117,0.248,0.262,0.248s0.262-0.111,0.262-0.248v-1.611h0.129v1.611c0,0.137,0.117,0.248,0.263,0.248 c0.144,0,0.261-0.111,0.261-0.248v-1.62c0.111-0.028,0.193-0.133,0.193-0.257v-1.328C14.402,11.986,14.286,11.867,14.143,11.867 L14.143,11.867z" class="black" stroke="none" fill="#808285" stroke-width="0.5"/>
    <path d="M10.257,6.436l-1.303-1.24c-0.204-0.194-0.534-0.194-0.737,0l0,0l-1.304,1.24 c-0.203,0.194-0.203,0.508,0,0.701c0.204,0.193,0.534,0.193,0.738,0l0.413-0.393v1.777c0,0.274,0.233,0.496,0.521,0.496 s0.521-0.222,0.521-0.496V6.744L9.52,7.137c0.204,0.193,0.534,0.193,0.737,0C10.46,6.944,10.461,6.629,10.257,6.436L10.257,6.436z" class="black" stroke="none" fill="#808285" stroke-width="0.5"/>
    <path d="M14.99,6.931c-0.203-0.193-0.533-0.193-0.737,0L13.84,7.324V5.547c0-0.274-0.232-0.496-0.521-0.496 c-0.285,0-0.521,0.222-0.521,0.496v1.777l-0.414-0.393c-0.202-0.193-0.532-0.193-0.737,0c-0.203,0.194-0.203,0.508,0,0.702 l1.306,1.239l0,0c0.038,0.037,0.081,0.066,0.126,0.089c0.195,0.098,0.443,0.069,0.609-0.089l0,0l1.305-1.239 C15.193,7.439,15.193,7.125,14.99,6.931L14.99,6.931z" class="black" stroke="none" fill="#808285" stroke-width="0.5"/>
  </g>
  <g class="escalator base-icon" transform="scale(0.7)">
    <path d="M22,11c0,6.075-4.925,11-11,11S0,17.075,0,11S4.925,0,11,0S22,4.925,22,11z" class="black" stroke="none" fill="#808285" stroke-width="0.5"/>
    <path d="M21,11c0,5.523-4.477,10-10,10C5.477,21,1,16.523,1,11C1,5.477,5.477,1,11,1C16.523,1,21,5.477,21,11z" class="white" stroke="none" fill="white" stroke-width="0.5"/>
    <path d="M10.045,7.51c0.464,0,0.849-0.413,0.849-0.952c0-0.521-0.384-0.953-0.849-0.953 c-0.465,0-0.849,0.432-0.849,0.953C9.196,7.097,9.58,7.51,10.045,7.51 M8.523,15.356c-0.1,0.104-0.352,0.191-0.501,0.191H6.014 c-0.468,0-0.853-0.401-0.853-0.892c0-0.491,0.385-0.895,0.853-0.895h1.154c0.335,0,0.687-0.192,0.871-0.385 c0.3-0.314,5.354-5.569,5.438-5.673c0.101-0.106,0.352-0.193,0.502-0.193h2.007c0.468,0,0.854,0.403,0.854,0.893 c0,0.49-0.386,0.894-0.854,0.894h-1.153c-0.336,0-0.687,0.192-0.889,0.386C13.659,9.997,8.607,15.268,8.523,15.356 M14.579,10.33 c0.115-0.104,0.2-0.139,0.366-0.139h1.054c0.936,0,1.688-0.782,1.688-1.772c0-0.973-0.753-1.755-1.688-1.755h-1.973 c-0.485,0-0.937,0.209-1.204,0.486l-1.956,2.034V8.609c0-0.504-0.402-0.921-0.887-0.921S9.094,8.105,9.094,8.609v2.381l-1.655,1.72 c-0.101,0.104-0.201,0.14-0.369,0.14H6.017c-0.936,0-1.705,0.799-1.705,1.774c0,0.972,0.752,1.771,1.705,1.771H7.99 c0.485,0,0.937-0.226,1.205-0.486C9.511,15.579,14.495,10.434,14.579,10.33" id="Shape" class="black" stroke="none" fill="#808285" stroke-width="0.5"/>
  </g>
  <g class="parking base-icon" transform="scale(0.7)">
    <path d="M22,11c0,6.075-4.925,11-11,11S0,17.075,0,11S4.925,0,11,0S22,4.925,22,11z" class="black" stroke="none" fill="#808285" stroke-width="0.5"/>
    <path d="M21,11c0,5.523-4.477,10-10,10C5.477,21,1,16.523,1,11C1,5.477,5.477,1,11,1C16.523,1,21,5.477,21,11z" class="white" stroke="none" fill="white" stroke-width="0.5"/>
    <path d="M12.096,6.256H7.95v9.848h2.098v-3.318h2.048c1.588,0,2.931-1.316,2.931-2.872 l0.004-0.791C15.03,7.571,13.686,6.259,12.096,6.256L12.096,6.256z M12.933,9.919c0,0.413-0.414,0.819-0.837,0.819h-2.048V8.308 h2.048l0.072-0.001c0.373,0.038,0.722,0.377,0.765,0.741V9.919L12.933,9.919z" id="Shape_1_" class="black" stroke="none" fill="#808285" stroke-width="0.5"/>
  </g>
  <g class="public_telephone base-icon" transform="scale(0.7)">
    <path d="M22,11c0,6.075-4.925,11-11,11S0,17.075,0,11S4.925,0,11,0S22,4.925,22,11z" class="black" stroke="none" fill="#808285" stroke-width="0.5"/>
    <path d="M21,11c0,5.523-4.477,10-10,10C5.477,21,1,16.523,1,11C1,5.477,5.477,1,11,1C16.523,1,21,5.477,21,11z" class="white" stroke="none" fill="white" stroke-width="0.5"/>
    <path d="M16.509,16.453c-1.022,1.599-2.764,1.604-3.314,1.506 c-0.162-0.028-2.707-0.339-5.724-4.416c-2.429-3.28-2.26-6.317-2.192-6.887C5.346,6.1,5.747,4.746,7.828,4.055 c0.258-0.085,0.734-0.06,0.833,0.083C8.706,4.2,9.837,7.105,9.864,7.2s0.032,0.184,0.018,0.267C9.86,7.587,9.749,7.721,9.546,7.871 S9.129,8.152,8.902,8.267C8.674,8.381,8.46,8.508,8.26,8.645c-0.2,0.138-0.31,0.261-0.329,0.369 c-0.038,0.282,0.015,1.325,1.491,3.168c1.476,1.843,2.241,2.424,2.318,2.469c0.075,0.044,0.14,0.07,0.193,0.08 c0.108,0.02,0.262-0.043,0.459-0.184c0.198-0.141,0.898-0.814,1.108-0.954c0.209-0.139,0.374-0.198,0.495-0.177 c0.084,0.015,0.165,0.051,0.244,0.108c0.08,0.057,2.436,2.058,2.477,2.118C16.828,15.806,16.656,16.225,16.509,16.453" id="Shape" class="black" stroke="none" fill="#808285" stroke-width="0.5"/>
  </g>
  <g class="public_transport base-icon" transform="scale(0.7)">
    <path fill="#808285" d="M22,11c0,6.075-4.925,11-11,11S0,17.075,0,11S4.925,0,11,0S22,4.925,22,11z" class="black"/>
    <path fill="#FFF" d="M21,11c0,5.523-4.477,10-10,10C5.477,21,1,16.523,1,11C1,5.477,5.477,1,11,1C16.523,1,21,5.477,21,11z" class="white"/>
    <path fill="#808285" d="M8.948,14.255c-0.231,0-0.418,0.188-0.418,0.422c0,0.234,0.187,0.423,0.418,0.423 c0.231,0,0.418-0.188,0.418-0.423C9.366,14.443,9.18,14.255,8.948,14.255" class="black"/>
    <path fill="#808285" d="M7.924,14.346c-0.183,0-0.33,0.147-0.33,0.33c0,0.186,0.147,0.333,0.33,0.333 c0.182,0,0.329-0.147,0.329-0.333C8.253,14.493,8.106,14.346,7.924,14.346" class="black"/>
    <path fill="#808285" d="M13.052,15.1c0.231,0,0.419-0.188,0.419-0.424c0-0.232-0.188-0.421-0.419-0.421 c-0.229,0-0.419,0.188-0.419,0.421C12.633,14.91,12.82,15.1,13.052,15.1" class="black"/>
    <path fill="#808285" d="M14.076,15.009c0.183,0,0.33-0.147,0.33-0.332c0-0.184-0.147-0.331-0.33-0.331  c-0.184,0-0.329,0.147-0.329,0.331C13.747,14.861,13.895,15.009,14.076,15.009" class="black"/>
    <path fill="#808285" d="M16.297,7.144c-0.078-0.283-0.32-0.48-0.587-0.48c-0.024,0-0.047,0.004-0.071,0.007 c-0.004-0.038-0.009-0.075-0.014-0.112c-0.023-0.177-0.159-0.317-0.335-0.346c-0.147-0.024-0.298-0.046-0.446-0.068 C14.201,5.69,12.695,5.235,11,5.235h-0.014h-0.012c-1.695,0-3.201,0.456-3.843,0.909c-0.15,0.022-0.299,0.045-0.447,0.068 C6.508,6.241,6.373,6.381,6.349,6.558C6.344,6.595,6.34,6.631,6.335,6.668C6.32,6.667,6.306,6.664,6.291,6.664  c-0.267,0-0.509,0.198-0.587,0.48C5.458,8.03,5.334,8.95,5.336,9.878c0,0.382,0.276,0.692,0.614,0.692h0.008  c0.04,0,0.081-0.002,0.12-0.002c-0.002,1.569,0.116,3.138,0.356,4.698c0.026,0.168,0.155,0.305,0.323,0.336 C6.879,15.623,7,15.645,7.122,15.665v0.722c0,0.209,0.168,0.379,0.375,0.379h0.657c0.207,0,0.375-0.17,0.375-0.379v-0.523 c0.82,0.089,1.642,0.136,2.458,0.136c0.824,0,1.654-0.048,2.484-0.14v0.527c0,0.209,0.168,0.379,0.375,0.379h0.656  c0.207,0,0.375-0.17,0.375-0.379V15.66c0.113-0.02,0.227-0.038,0.338-0.061c0.168-0.031,0.299-0.166,0.324-0.336  c0.238-1.559,0.357-3.128,0.355-4.697c0.049,0,0.098,0.002,0.146,0.002h0.009c0.338,0,0.614-0.31,0.614-0.692 C16.666,8.95,16.543,8.03,16.297,7.144L16.297,7.144z M6.747,6.613c0.181-0.03,0.362-0.056,0.543-0.082 C7.771,6.133,9.249,5.64,10.974,5.64h0.014H11c1.725,0,3.204,0.493,3.684,0.891c0.183,0.026,0.362,0.053,0.543,0.082  c0.01,0.061,0.017,0.122,0.023,0.182c-0.072,0.025-0.143,0.051-0.215,0.077c-0.109,0.039-0.201,0.107-0.27,0.192  c-1.099-0.428-2.392-0.676-3.779-0.676c-1.378,0-2.664,0.246-3.758,0.668C7.161,6.975,7.071,6.91,6.965,6.872 c-0.081-0.028-0.16-0.057-0.239-0.086C6.733,6.728,6.739,6.67,6.747,6.613L6.747,6.613z M7.223,8.025h7.554l0.049,0.3 c-0.012,0.003-0.021,0.004-0.033,0.004H7.207c-0.01,0-0.021-0.001-0.031-0.003L7.223,8.025L7.223,8.025z M6.466,10.155  c-0.17,0.005-0.341,0.008-0.513,0.01H5.95c-0.1,0-0.212-0.123-0.212-0.288c-0.002-0.89,0.116-1.773,0.353-2.624 c0.03-0.108,0.112-0.184,0.2-0.184c0.018,0,0.036,0.003,0.055,0.01C6.508,7.14,6.67,7.198,6.832,7.253  c0.11,0.04,0.171,0.162,0.14,0.277C6.76,8.304,6.656,9.107,6.662,9.917C6.663,10.044,6.574,10.152,6.466,10.155L6.466,10.155z M15.143,15.202c-1.385,0.26-2.771,0.391-4.155,0.391c-1.386,0-2.771-0.131-4.156-0.391c-0.092-0.593-0.164-1.183-0.22-1.775h0.759 c0.19,0,0.43-0.122,0.505-0.303c0.168-0.401-0.15-0.995-0.331-1.34c-0.236-0.453-0.508-0.888-0.717-1.355 c0.121-0.099,0.205-0.245,0.228-0.413c0.791,1.835,2.4,3.411,3.959,3.411c1.885,0,3.793-0.813,4.43-1.112 C15.393,13.277,15.291,14.24,15.143,15.202L15.143,15.202z M16.05,10.165h-0.002c-0.173-0.001-0.344-0.004-0.514-0.009  c-0.108-0.003-0.196-0.111-0.196-0.238c0.008-0.81-0.098-1.613-0.309-2.387c-0.031-0.116,0.027-0.238,0.139-0.277 c0.162-0.056,0.324-0.114,0.488-0.174c0.018-0.007,0.035-0.01,0.054-0.01c0.088,0,0.17,0.076,0.199,0.184 c0.235,0.851,0.354,1.734,0.353,2.624C16.262,10.042,16.148,10.165,16.05,10.165L16.05,10.165z" class="black"/>
  </g>
  <g class="shop_mobility base-icon" transform="scale(0.7)">
    <path d="M22,11c0,6.075-4.925,11-11,11S0,17.075,0,11S4.925,0,11,0S22,4.925,22,11z" class="black" stroke="none" fill="#808285" stroke-width="0.5"/>
    <path d="M21,11c0,5.523-4.477,10-10,10C5.477,21,1,16.523,1,11C1,5.477,5.477,1,11,1C16.523,1,21,5.477,21,11z" class="white" stroke="none" fill="white" stroke-width="0.5"/>
    <path d="M12.418,14.014l-0.498-2.541H8.462l-0.127-0.819h2.036V9.81H8.205L7.956,8.207 c0.57-0.003,1.033-0.477,1.033-1.059c0-0.583-0.466-1.059-1.039-1.059c-0.573,0-1.039,0.475-1.039,1.059 c0,0.056,0.008,0.109,0.016,0.162L6.925,7.312l0.83,5.004h3.487l0.554,2.824l1.61-0.597l-0.283-0.793L12.418,14.014z" class="black" stroke="none" fill="#808285" stroke-width="0.5"/>
    <path d="M11.173,13.498c-0.21-0.091-0.453,0.009-0.542,0.223c-0.43,1.032-0.909,1.348-2.049,1.348 c-1.281,0-2.322-1.062-2.322-2.367c0-0.871,0.223-1.369,0.852-1.903c0.175-0.149,0.199-0.415,0.053-0.594 C7.018,10.024,6.757,10,6.582,10.149c-0.817,0.693-1.15,1.432-1.15,2.551c0,1.771,1.413,3.212,3.15,3.212 c1.465,0,2.253-0.521,2.811-1.861C11.482,13.837,11.384,13.589,11.173,13.498" class="black" stroke="none" fill="#808285" stroke-width="0.5"/>
    <path d="M14.955,15.348c-0.421,0-0.764-0.35-0.764-0.777s0.343-0.777,0.764-0.777s0.763,0.35,0.763,0.777 S15.376,15.348,14.955,15.348 M14.955,13.255c-0.711,0-1.29,0.591-1.29,1.313c0,0.725,0.579,1.314,1.29,1.314 s1.289-0.59,1.289-1.314C16.244,13.846,15.666,13.255,14.955,13.255" class="black" stroke="none" fill="#808285" stroke-width="0.5"/>
    <path d="M14.441,10.106l0.068,0.735h-0.428l-0.145-0.735H14.441z M14.593,11.7h-0.341l-0.113-0.585h0.399L14.593,11.7z M14.678,12.59h-0.252l-0.119-0.615h0.312L14.678,12.59z M15.492,10.106L15.4,10.841h-0.619l-0.07-0.735H15.492z M15.848,11.975 c0.019,0,0.035-0.004,0.051-0.011l-0.125,0.626H15.45l0.077-0.615H15.848z M15.637,11.115h0.43h0.002l-0.125,0.626 c-0.025-0.025-0.06-0.041-0.096-0.041h-0.285L15.637,11.115z M15.76,10.136c0.002-0.01,0.002-0.02,0.001-0.03h0.509l-0.149,0.747 c-0.017-0.007-0.034-0.011-0.054-0.011H15.67L15.76,10.136z M15.292,11.7h-0.429l-0.057-0.585h0.56L15.292,11.7z M15.18,12.59h-0.23 l-0.059-0.615h0.366L15.18,12.59z M13.666,13.02l0.757-0.154h0.362c0.017,0.006,0.035,0.009,0.055,0.007 c0.012-0.002,0.021-0.003,0.029-0.007h0.386c0.009,0.004,0.017,0.005,0.024,0.006c0.006,0.001,0.012,0.001,0.018,0.001 c0.016,0,0.029-0.002,0.042-0.007h0.544c0.064,0,0.119-0.047,0.133-0.109l0.551-2.758c0.008-0.041-0.004-0.083-0.028-0.114 c-0.024-0.032-0.063-0.051-0.104-0.051h-2.549h-0.111h-2.771v0.844h2.205L13.666,13.02z" class="black" stroke="none" fill="#808285" stroke-width="0.5"/>
  </g>
  <g class="toilets base-icon" transform="scale(0.7)">
    <path d="M22,11c0,6.075-4.925,11-11,11S0,17.075,0,11S4.925,0,11,0S22,4.925,22,11z" class="black" stroke="none" fill="#808285" stroke-width="0.5"/>
    <path d="M21,11c0,5.523-4.477,10-10,10C5.477,21,1,16.523,1,11C1,5.477,5.477,1,11,1C16.523,1,21,5.477,21,11z" class="white" stroke="none" fill="white" stroke-width="0.5"/>
    <path d="M7.3,12.711v3.176c0,0.124-0.041,0.229-0.118,0.303c-0.078,0.078-0.179,0.115-0.303,0.115 c-0.125,0-0.232-0.037-0.316-0.115c-0.089-0.074-0.13-0.179-0.13-0.303v-3.176H5.239l1.242-4.182H6.268 c-0.136,0.47-0.251,0.847-0.34,1.145c-0.082,0.298-0.171,0.58-0.249,0.853c-0.089,0.268-0.148,0.438-0.155,0.497 c-0.054,0.177-0.171,0.263-0.356,0.263l-0.094-0.023c-0.173-0.062-0.256-0.175-0.256-0.333c0-0.043,0.006-0.079,0.024-0.114 c0.012-0.031,0.047-0.136,0.089-0.314c0.048-0.177,0.112-0.397,0.19-0.652c0.077-0.26,0.16-0.541,0.249-0.843 c0.089-0.303,0.172-0.595,0.273-0.876c0.06-0.215,0.19-0.411,0.392-0.581c0.202-0.177,0.411-0.256,0.629-0.256h1.461 c0.226,0,0.445,0.08,0.642,0.256C8.958,7.72,9.095,7.916,9.171,8.132C9.253,8.414,9.337,8.706,9.42,9.008 C9.504,9.31,9.594,9.591,9.665,9.851c0.076,0.255,0.143,0.475,0.189,0.652c0.047,0.178,0.078,0.283,0.095,0.314l0.023,0.094 c0,0.19-0.089,0.303-0.261,0.353l-0.09,0.023c-0.188,0-0.309-0.085-0.355-0.263c-0.013-0.059-0.065-0.229-0.136-0.497 c-0.083-0.272-0.167-0.554-0.262-0.853C8.773,9.375,8.661,8.999,8.524,8.529H8.31l1.24,4.182H8.375v3.176 c0,0.124-0.036,0.229-0.131,0.303c-0.083,0.078-0.185,0.115-0.309,0.115c-0.131,0-0.227-0.037-0.309-0.115 c-0.078-0.074-0.113-0.179-0.113-0.303v-3.176H7.3L7.3,12.711z" class="black" stroke="none" fill="#808285" stroke-width="0.5"/>
    <path d="M7.418,7.033c0.25,0,0.465-0.081,0.631-0.252C8.221,6.605,8.31,6.388,8.31,6.126 c0-0.249-0.089-0.463-0.261-0.64c-0.166-0.181-0.38-0.272-0.631-0.272c-0.266,0-0.487,0.091-0.67,0.272 c-0.179,0.177-0.267,0.391-0.267,0.64c0,0.262,0.088,0.479,0.267,0.654C6.931,6.952,7.152,7.033,7.418,7.033L7.418,7.033z" class="black" stroke="none" fill="#808285" stroke-width="0.5"/>
    <path d="M13.977,7.268c-0.32,0-0.595,0.118-0.826,0.346c-0.231,0.238-0.352,0.515-0.352,0.823v2.85 c0,0.107,0.037,0.205,0.119,0.281c0.077,0.078,0.172,0.113,0.28,0.113c0.124,0,0.22-0.035,0.296-0.113 c0.066-0.076,0.102-0.174,0.102-0.281V8.739h0.209v7.056c0,0.137,0.06,0.262,0.172,0.357c0.105,0.106,0.23,0.152,0.373,0.152 c0.154,0,0.279-0.046,0.381-0.152c0.105-0.098,0.154-0.223,0.154-0.357v-4.091h0.23v4.091c0,0.137,0.054,0.262,0.154,0.357 c0.102,0.106,0.231,0.152,0.394,0.152c0.136,0,0.254-0.046,0.362-0.152c0.1-0.098,0.146-0.223,0.146-0.357V8.739h0.215v2.548 c0,0.107,0.035,0.205,0.106,0.281c0.084,0.078,0.184,0.113,0.291,0.113c0.125,0,0.221-0.035,0.292-0.113 c0.063-0.076,0.106-0.174,0.106-0.281v-2.85c0-0.308-0.113-0.585-0.346-0.823c-0.227-0.229-0.499-0.346-0.831-0.346H13.977 L13.977,7.268z" class="black" stroke="none" fill="#808285" stroke-width="0.5"/>
    <path d="M14.997,7.033c0.25,0,0.469-0.081,0.647-0.252c0.176-0.175,0.267-0.392,0.267-0.654 c0-0.249-0.091-0.463-0.267-0.64c-0.18-0.181-0.397-0.272-0.647-0.272c-0.261,0-0.481,0.091-0.647,0.272 c-0.178,0.177-0.261,0.391-0.261,0.64c0,0.262,0.083,0.479,0.261,0.654C14.516,6.952,14.736,7.033,14.997,7.033L14.997,7.033z" class="black" stroke="none" fill="#808285" stroke-width="0.5"/>
    <path d="M10.961,4.485h0.902v13.029h-0.902V4.485z" class="black" stroke="none" fill="#808285" stroke-width="0.5"/>
  </g>

  <!-- Areas -->
  <g transform="translate(6,0)">
    <path fill="#f68b1f" stroke-width=".5" d="M427.5 45.8l-3.1-4.9-36.3-9.1v-3.2l-26.7-7.4-1.9 1.4-4.7-1.2v-1.8l-52-15.5-9-3L272.9 16l-7.1 1.7-17.1 12.2-56.1-14-20.8 14.8-.1 5.4 19.4 4.8-18.3 13-11.7-2.9-1.4-.2-1.3-.1-.2-.1H157l-.8.1-1.9.4-.2.1c-1.3.5-2.3 1.2-3 2.1l-.3.4-.6 1.3-3.8 24.7v4.8l20.8 5.2v2.6h.2L128 120.4l-.1 5.4 20.9 5.2-3.2 2.3-3.8-.9-1.9 1.4-6.3-1.6-5.7 4v.4l-12.5-3-5 3.6 17.4 4.3v.1l.7.2-5.6 4-4.4-1.1v-3.9l-17.9-4.5-10 7.1v5.4l3.1.8-6.9 4.9-4.1-1-10.2 7.5v.6l-.6-.1-51.4 36.7v4.2l-2 1.4v4.7l1.9 3.1.6.6L64.3 223l7.4-.8 6-4.3 5.7 1.4v1.8l31.5 7.8 10.2-7.3v-1.9l8.3-5.9 3.9 1 69.1 8.7.7.2 33.1-23.6v-5.5l-6.1-.9v-2.2l-14.8-2.2-8.5-2.1v-1l-1.3-.3V184l.6-.4v-3.7l24.6 5.6 22.2-15.9-9.6-2.4 9.3-6.8 18.8-13.5v-4.7l-18.2-4.5.9-.7.1-5.3-8.5-2.1 27.5-19.6v-1.9l1.9.5 10.1-7.2V96l5.9-4.2 9.3 2.3 1.1-.8 2 .5-2.7 1.9v5.4l51.4 12.8 3-2.1 2.7.7 31.9-22.7.1-5.4-2.4-.6 34-24.3.1-5.4-2.5-.6 4-2.8v-4.9h.4zm0 0" class="outline"/>
    <path fill="#f68b1f" stroke-width=".5" d="M8.2 117.6c-.4 0-.6.3-.6.7v8.8c-.8.5-2 .8-2.7.8-1.9 0-3-.9-3-3v-6.5c0-.4-.3-.7-.6-.7s-.6.3-.6.7v6.8c0 2.3 1.5 3.9 4 3.9 1.8 0 2.8-.5 3.8-1 .4-.2.4-.5.4-.9v-8.9c-.1-.5-.3-.7-.7-.7zm14.5-.1c-1 0-1.8.1-2.3.3-.4.1-.5.4-.5.8v9.7c0 .4.3.6.6.6s.6-.2.6-.6v-3.6h1.5c2.9 0 4.4-1.4 4.4-3.7.1-2-1.3-3.5-4.3-3.5zm-.1 6h-1.4v-4.7c.4-.1 1-.1 1.5-.1 2.3 0 3.1 1.1 3.1 2.4 0 1.2-.7 2.4-3.2 2.4zm-8.7-6c-1 0-1.8.1-2.3.3-.4.1-.5.4-.5.8v9.7c0 .4.3.6.6.6s.6-.2.6-.6v-3.6h1.5c2.9 0 4.4-1.4 4.4-3.7 0-2-1.3-3.5-4.3-3.5zm-.1 6h-1.4v-4.7c.4-.1 1-.1 1.5-.1 2.3 0 3.1 1.1 3.1 2.4 0 1.2-.7 2.4-3.2 2.4zm64.9 4.1h-4.3v-9.4c0-.4-.3-.7-.6-.7s-.6.3-.6.7v9.6c0 .6.4 1 1.1 1h4.5c.4 0 .7-.3.7-.6-.1-.3-.4-.6-.8-.6zM68.6 119c-.6-1.2-1.1-1.6-1.7-1.6-.6 0-1.1.4-1.7 1.6-.9 1.8-1.6 4.1-2.8 8.7-.1.2-.1.4-.1.5 0 .4.3.6.6.6s.5-.2.6-.5c.3-1.4.6-2.6.9-3.7h4.9c.3 1.1.6 2.3.9 3.7.1.3.3.5.6.5.4 0 .6-.2.6-.6 0-.1 0-.3-.1-.5-1.1-4.6-1.8-6.9-2.7-8.7zm-3.8 4.6c.7-2.4 1.4-4 1.9-4.8 0-.1.1-.1.2-.1s.2.1.2.1c.5.8 1.2 2.3 1.9 4.8h-4.2zm21.5 4H82v-9.4c0-.4-.3-.7-.6-.7-.4 0-.6.3-.6.7v9.6c0 .6.4 1 1.1 1h4.5c.4 0 .7-.3.7-.6-.1-.3-.3-.6-.8-.6zm-43.5-2.9c-.3-.4-.6-.7-1-1 1.4-.5 2.4-1.5 2.4-3 0-1.9-1.3-3.2-4.2-3.2-1.1 0-1.9.1-2.4.3-.4.1-.5.4-.5.8v9.7c0 .4.3.6.6.6.4 0 .6-.2.6-.6v-4.2h1.2c1.2 0 1.6.5 2.2 1.4.4.6.8 1.6 1.3 3 .1.3.3.4.6.4s.6-.2.6-.6c0-.1 0-.3-.1-.4-.3-1.2-.8-2.4-1.3-3.2zm-3-1.9h-1.4v-4c.4-.1.9-.1 1.6-.1 2.3 0 3 .9 3 2.1-.1 1.6-1.6 2.1-3.2 2zm-5 4.8H30v-3.9h3.9c.4 0 .6-.3.6-.6s-.2-.6-.6-.6H30v-3.7h4.6c.4 0 .6-.3.6-.6s-.2-.6-.6-.6h-4.8c-.7 0-1.1.4-1.1 1v9.3c0 .6.4 1 1.1 1h4.9c.4 0 .6-.3.6-.6.1-.4-.1-.7-.5-.7zm25.3-8.7c-.1-.8-.4-1.3-1.1-1.3-.6 0-.9.4-1.1.8-.8 2.2-1.7 5-2.7 7.7-1-2.5-1.8-5.1-2.8-7.5-.2-.6-.5-1-1.1-1-.7 0-1 .4-1.1 1.3-.4 2.9-.5 6.1-.5 9.3 0 .4.2.6.6.6.4 0 .6-.2.6-.7 0-3.1.2-6.1.5-9 1 2.6 1.9 5.3 3 7.9.1.3.4.6.8.6s.7-.2.8-.6c1-2.5 1.9-5.2 2.8-7.9.4 3 .6 6 .7 9 0 .4.2.7.6.7.4 0 .6-.3.6-.7v-.5c0-2.9-.2-6-.6-8.7zm0 0" class="Shape"/>
    <path fill="#808285" stroke-width=".5" d="M337.1 43.9l-47.4 33.8-1.6-.4-69.5 49.3 38.4 9.5-5.6 4.2 22.8 5.7-18.2 13-11.9 8.7 9.6 2.4-19 13.6-26.8-6.1-7.6 6.1-25.6-6.3 12.1-8.5-20.7-5.2-22.4 16.4-4.9-1.2-2.9 2.1-11.4 1.2-17 12.1 3.3 5.1-4.2 3 1.2.3-1.1.8 12.5 3.1 5.3-3.8 7.7 1.9-5.3 3.9 8.3 2-11.7 8.3-4.1-1 10.2-7.3-25.2-6.3-19.1 13.6-9.8-2.5 23.2-16.5-3.6-5.6 64.2-45.8-45.3-11.3 1.8-1.3 46.9 11.4 57.2-40.8-27.6-7.4 3.3-2.6 28 7.2 46.9-33.5-7.3-1.8 4.2-3-2.8-.7 4.4-3.1-3.6-.9L288.8 43l26.2 6.5 38.1-27.2 8.7 2.2-23.8 17-.9 2.4" class="walkway"/>
    <path fill="#989898" stroke-width=".5" d="M222.9 163.9l-15 10.4v3.4l26.8 6.1 14-10-.1-3.5-25.7-6.4zM423.5 42.1L386.6 33v-3.2l-24.9-6.9L337.8 40l-.9 2.2L289.6 76l-1.7-.4L271.8 87v1.8l-1.9-.5-27 19.2-.2.1-3.9 2.8-.2.1-13.8 9.9-.2.1-2.9 2v1.3l-1.3-.3-6.2 4.4-.2.1.2 4.1 9.5 6.2 19.9 7.3-7.4 5.4v2.9l19.7 4.9 18.2-13V143l-20-5 2.8-2.1v-3.4l-10.5-2.6 29.5-21.1v-3l3.1.8 8.9-6.4V97l-10.6-2.6.7-.5v-1.8l10.5 2.6L295 90l9.4 2.3 1.1-.8 5.8 1.4-4.7 3.3v3.4l49.5 12.4 3-2.1 2.7.7 30.7-21.9v-3.4l-4.4-1.1 36.1-25.7v-3.4l-4.5-1.1 6-4.2v-3.6h.3l-2.5-4.1zM270 92l4.1 1-.5.3-4.1-1 .5-.3zm-25.9 36.1l-12.5-3.1v-2.7l-3-.8 1.4-.9 18.2 4.5-4.1 3zm8-5.7l-18.2-4.5 5.1-3.7 18.2 4.5-5.1 3.7zm8.8-6.3l-18.2-4.5.3-.2 18.2 4.5-.3.2zm4.1-3l-18.2-4.5 2.8-2 18.2 4.5-2.8 2zm6.6-4.6l-18.2-4.5.3-.2 18.2 4.5-.3.2zm7.4-5.3l-18.2-4.5 1-.7 18.2 4.5-1 .7zm5-3.5l-.2.1-18.2-4.5.2-.1 18.2 4.5zm4.5-8.7l-12.6-3.1 2.7-2 12.7 3.1-2.8 2zm127.4-37.9v3.4l4.5 1.1-36.1 25.7v3.4l4.4 1.1L362 107l-2.7-.7-3 2.2L311 97.2l4.7-3.3v-3.4l-10-2.5-1.1.8-22-5.5 5.7-4.1 1.7.4 47.5-33.9.9-2.2 23.7-16.9 20.9 5.8v3.3l40.3 10 1 1.6-8.4 5.8zM232.8 192.8l-13.6-2-9.7-2.4v-1.1l-1.3-.3v-2.1l-1.8-.5 2.4-1.7v-3.4l-8.1-2 1.6-1.1v-1.6l3.6.9 13-9.3v-3.4l-9.3-2.3 5.8-4.2c1.2-.9 1.9-1.5 2.1-2.5v-3.7c-.2 1-.8 2-2.1 2.9l-3.1 2.1-4.4-3-19.9-5.3-6.4 4.6-4.6 3.3-24.4 17.5-.2.1-8.8 6.3-4.9-1.2-3 2.2-11.4 1.2-17 12.2v3.4l1.8 2.8-2.8 2v2.3l-2-.5-10.2 7-.2.1-8.9 6.3v3.4l29.7 7.4 9.1-6.4v-3.4l-.6-.2 6.6-4.7v-1.2l8.1 2 68.9 8.7h.2l31.9-22.8v-3.4l-6.1-.9v-2.1zm-38.2-32.5c-.3-.1-.5-.1-.8-.2l-1-.3 1.8.5zm-17.3-2l3.3-.4c.4 1.5 1.9 2.8 4.7 3.5l8 2.1c3.6.9 8.2.6 11.9-.6l9.8 2.4-4.8 3.4-35.1-8.8 2.2-1.6zm-6.2 4.4l35.1 8.7-.5.3-15.9-4-1.9 1.3-19.3-4.8 2.5-1.5zm19.3 8.8l-8 5.8-1.6-.4 5.4-3.9 1.2.3 2.7-1.9.3.1zM165 167l18.1 4.5-2.3 1.6-18.1-4.5 2.3-1.6zm-6 4.3l18.1 4.5-2.5 1.8-18.1-4.5 2.5-1.8zm-6.3 4.5l18.1 4.5-2.3 1.6-18.1-4.5 2.3-1.6zm-6 4.3l20.3 5-2.1 1.5-20.2-5 2-1.5zm-32.1 43.5l-25.5-6.3 5.1-3.6 25.2 6.3.2.1-5 3.5zm4.7-7.3L98 211l6.4-4.6 21.4 5.3-6.5 4.6zm-10.1-13.7l1.6-1.1 9.9 2.5-1.6 1.1-9.9-2.5zm17.5 4.5v1.2l-5.1-1.3 3.1-2.2 3.8.9-1.8 1.4zm107.6-8.2l-27.5 19.6-68.8-8.7-7.3-1.8 4.5-3.2v-3.4l-8-2-2.7 1.9-13.5-3.4-1.7-2.7 15.3-10.9 11.2-1.2 29.1 7.3 14.4-10.3 3.3.8 8.1-5.8 3.9 1 1.8-1.3 1.9.5-1.6 1.1v3.4l8.1 2-2.4 1.7v3.4l3.1.8v2.2l2.4.6v1.1l11.1 2.8 11.5 1.7v2.2l3.8.6zm0 0" class="wall"/>
    <path fill="#989898" stroke-width=".5" d="M353.4 24.2l-38.3 27.3-26.2-6.5-19.4 13.9-.2.1h.1v3.4l-1.5 1.1v2.8l-.6.5 3.8.9v3.4L224 104.7l-27.4-6.8V99l1-.7 22.9 5.7v3.4l-57.4 41-3.2-.8v1.9l-38.5 27.4-1.8-.4v1.7l-22.4 16 2.1 3.2v3.4l-27.7 19.8-6.8.7-42.7-10.7-.1-.1-2-2.5v-3.4l2.8-2-.8-.2V199l50.2-35.8 1.8.4v-1.7l9.2-6.6 4.1 1 10.1-7.2-5.2-1.3v-3.4l8.8-6.3 16.1 4v3.4l-.5.3 6.6 1.6 8.8-6.3-2.7-.6v-3.4l4.5-3.2 6.3 1.6 1.9-1.4 3.8.9 2-1.4.2-.1 4.2-3-23-5.7v-3.4l25.6-18.3h.1L171 91.6l-2.2-.5v-2.6L148 83.3v-3.4l3.7-24.2.1-.3.2-.5v-.1l.3-.5c.5-.7 1.3-1.2 2.3-1.6l1.1-.3.4-.1h.1l.8-.1h1.1l1.3.1.8.2h.2l.3.1h.1l12.4 3.1 21.5-15.3-21.4-5.3v-3.4l19.6-14 56.1 14 17.5-12.5 7.1-1.7L294 2.7l8.3 2.8 51.1 15.3v3.4M294.1 6.4l-20.3 14.5-7.1 1.7-13.8 9.9 22.6 5.6 39.5 9.8 34.4-24.5-47.3-14.3-8-2.7m-9 37.7l-9.9-2.5-1.2.8 9.8 2.5 1.3-.8m-13.7-3.5L193 21.1l-15.6 11.2 92.1 23 10.7-7.6-10.3-2.7v-3.4l1.5-1m-5.8 17.3l-67.1-16.7-25.3 18-13.9-3.4H157l-1.2.2h-.1l-.8.2-1.3.7-.4.3-.1.1-.4.5-.5 1-.2.6-3.1 20.6 23.2 5.8v2.6l51.7 12.9 43.1-30.8-3.7-.9v-3.4l1.4-1v-2.7l.8-.6h-.1v-3.4l.3-.6m-80.2 45.7l6.9-4.9-19.2-4.8-14.1 10 45.1 11.3 3.6-2.5-22.4-5.6.1-3.5m11.6-1.3l18.7 4.7.5-.3-18.7-4.7-.5.3m-4.2 3l18.7 4.7.4-.3-18.7-4.7-.4.3m-42.5 4.8l45.1 11.3 4.9-3.5-45.2-11.2-4.8 3.4m9.7 18.5l18.7 4.7.5-.3-18.7-4.7-.5.3m4.3-3l18.7 4.7.5-.3-18.7-4.7-.5.3m-12.2 8.7l18.7 4.7.2-.1-18.7-4.7-.2.1m-11.8 4.7l-6.2-1.6-.5.4 2.6.6h1.2l25.3 6.3.4-.3-2.2-.5v-3.4l.3-.2-13-3.3-2.2 1.6-3.8-.9-1.9 1.3m15.7-7.5l18.7 4.7.2-.1-18.7-4.7-.2.1m9 9.8l1.9.5.1-.1-1.8-.5-.2.1m-3.7-20.5l25.9 6.5 4.5-3.2-45.2-11.3c-4.3 3.1-8.6 6.2-13 9.3l19.2 4.8 8.6-6.1m-64.9 24.3l47.5 11.9.8-.6-32.1-8V145l.5-.3-11.9-3-4.8 3.4m30.8 3.3l21.2 5.3 7-5-21.2-5.3-7 5m8.4 14.5l-38.8-9.7-5.5 3.9 38.8 9.7 5.5-3.9m-9.4 6.6l-42.9-10.7-5.3 3.8 42.9 10.7 5.3-3.8m-11 7.9l-42.9-10.7-3.5 2.5 42.9 10.7 3.5-2.5m-14.6-26.9l38.8 9.7.8-.5-38.8-9.7-.8.5m7.3 32.1L65 171.9l-3 2.2 42.9 10.7 3-2.2m-6.7 4.8l-42.9-10.7-3 2.2 42.9 10.7 3-2.2m-6.2 5l-43.5-10.8-6.9 4.9L96 199.3l1-.8-2.1-3.2.1-2.9m-2.8 9.6l-51.3-12.8-7.9 5.6 25.6 6.4 3.8-2.7 25.7 6.4 4.1-2.9m-7.9 5.6l-21.8-5.5h-.1l5.3 1.3v2.5l4.7 1.2 2.6-1.8 9.3 2.3m-57.5-4.2l-4.9 3.5.2.3 42.5 10.6 6.4-.7 9.5-6.8-5.5-1.4-2.6 1.8-7.9-2v-2.5L29 197.4l-3.1 2.2.8.2.1 3.6" class="wall"/>
    <path fill="#989898" stroke-width=".5" d="M158.7 154v3.5l6.4 1.6 5.3-3.8v-3.6l-6.4-1.6-5.3 3.9zm0 0" class="wall"/>
    <path id="unit-2001" fill="#fff" stroke="#ddd" stroke-width=".5" d="M111.7 180.1l-46.5-11.6 7.1-5 46.5 11.6-7.1 5zm0 0" class="unit"/>
    <path id="unit-2002" fill="#fff" stroke="#ddd" stroke-width=".5" d="M58.1 173.5l46.6 11.6-6.6 4.7-46.5-11.6 6.5-4.7zm0 0" class="unit"/>
    <path id="unit-2003" fill="#fff" stroke="#ddd" stroke-width=".5" d="M104.9 184.9l-46.6-11.6 6.6-4.7 46.6 11.6-6.6 4.7zm0 0" class="unit"/>
    <path id="unit-2004" fill="#fff" stroke="#ddd" stroke-width=".5" d="M51.3 178.3l46.6 11.6-3 2.1 3.6 5.6-2.5 1.8-55-13.7 10.3-7.4zm0 0" class="unit"/>
    <path id="unit-2005" fill="#fff" stroke="#ddd" stroke-width=".5" d="M58.4 201.4l-29.3-7.3 11.5-8.2 55 13.7-7.7 5.5-25.7-6.4-3.8 2.7zm0 0" class="unit"/>
    <path id="unit-2006" fill="#fff" stroke="#ddd" stroke-width=".5" d="M62.4 198.9l25.4 6.3-3.6 2.6-9.3-2.3-2.6 1.8-7.3-1.8 2.6-1.8-8.8-2.2 3.6-2.6zm0 0" class="unit"/>
    <path id="unit-2007" fill="#fff" stroke="#ddd" stroke-width=".5" d="M75 205.8l9 2.2-13.2 9.4-6.5.7-42.5-10.6-1.7-2.7 6.5-4.6-4.4-1.1 6.7-4.8 38.1 9.5-2.5 1.8 7.9 2 2.6-1.8zm0 0" class="unit"/>
    <path id="unit-2008" fill="#fff" stroke="#ddd" stroke-width=".5" d="M119.1 205.3l-12.2-3.1 1.1-.8-1.3-.3 4.1-2.9 13.5 3.3-5.2 3.8zm0 0" class="unit"/>
    <path id="unit-2009" fill="#fff" stroke="#ddd" stroke-width=".5" d="M135.8 179.8l29.1 7.3 14.4-10.2 3.3.8 8.1-5.8 3.9 1 1.9-1.3 5.5 1.4-5.2 3.7 11.7 2.9-6 4.2 5.4 1.3-2.2 1.6 3.6.9-1.1.8 11.2 2.8 13.3 2-1.8 2 7.8 1.1-31.6 22.5-68.8-8.7-10.9-2.7 8-5.8-8-2-2.7 1.9-13.5-3.4-3.3-5 16.9-12.1 11-1.2zm0 0" class="unit"/>
    <path id="unit-2010" fill="#fff" stroke="#ddd" stroke-width=".5" d="M127.2 199.8l7.4 1.8-2.7 1.9-7.4-1.9 2.7-1.8zm0 0" class="unit"/>
    <path id="unit-2011" fill="#fff" stroke="#ddd" stroke-width=".5" d="M114.5 224l-29.1-7.2 8.7-6.2 29.1 7.2-8.7 6.2zm0 0" class="unit"/>
    <path id="unit-2012" fill="#fff" stroke="#ddd" stroke-width=".5" d="M119.3 216.6l-25-6.2 10-7.1 25 6.2-10 7.1zm0 0" class="unit"/>
    <path id="unit-2013" fill="#fff" stroke="#ddd" stroke-width=".5" d="M218.5 162.9l-8.4 6-39.1-9.8 6-4.3 2.3-1.7 39.2 9.8zm0 0" class="unit"/>
    <path id="unit-2014" fill="#fff" stroke="#ddd" stroke-width=".5" d="M209.9 169.1l-4 2.9-15.9-4-1.9 1.4-23.4-5.8 6-4.3 39.2 9.8zm0 0" class="unit"/>
    <path id="unit-2015" fill="#fff" stroke="#ddd" stroke-width=".5" d="M187.8 169.4l-.5.4-1.2-.3-5.3 3.8-22-5.5 5.8-4.2 23.2 5.8zm0 0" class="unit"/>
    <path id="unit-2016" fill="#fff" stroke="#ddd" stroke-width=".5" d="M180.7 173.4l-6.1 4.3-21.9-5.5 6-4.3 22 5.5zm0 0" class="unit"/>
    <path id="unit-2017" fill="#fff" stroke="#ddd" stroke-width=".5" d="M222.9 163.9l25.9 6.4-14.1 10.1-26.8-6.1 15-10.4zm0 0" class="unit"/>
    <path id="unit-2018" fill="#fff" stroke="#ddd" stroke-width=".5" d="M174.4 177.9l-5.8 4.2-22-5.5 5.8-4.2 22 5.5zm0 0" class="unit"/>
    <path id="unit-2019" fill="#fff" stroke="#ddd" stroke-width=".5" d="M138.8 177.7l4.7 1.2 2.9-2.2 24.1 6.1-5.7 4.1-28.8-7.2 2.8-2zm0 0" class="unit"/>
    <path id="unit-2020" fill="#fff" stroke="#ddd" stroke-width=".5" d="M271.8 108.6l-21.8-5.4 3.9-2.8 21.8 5.5-3.9 2.7zm0 0" class="unit"/>
    <path id="unit-2021" fill="#fff" stroke="#ddd" stroke-width=".5" d="M259.2 101.6l-5.3-1.3 3.5-2.5 5.3 1.3-3.5 2.5zm0 0" class="unit"/>
    <path id="unit-2022" fill="#fff" stroke="#ddd" stroke-width=".5" d="M265.2 113.2l-21.8-5.4 6.4-4.6 21.8 5.5-6.4 4.5zm0 0" class="unit"/>
    <path id="unit-2023" fill="#fff" stroke="#ddd" stroke-width=".5" d="M243.2 107.9l21.8 5.4-3.9 2.8-21.8-5.5 3.9-2.7zm0 0" class="unit"/>
    <path id="unit-2024" fill="#fff" stroke="#ddd" stroke-width=".5" d="M252.2 122.5l-21.8-5.4 8.7-6.2 21.8 5.4-8.7 6.2zm0 0" class="unit"/>
    <path id="unit-2025" fill="#fff" stroke="#ddd" stroke-width=".5" d="M231.3 122.4l-2.7 1.9-6.1-1.6 2.7-1.9 6.1 1.6zm0 0" class="unit"/>
    <path id="unit-2026" fill="#fff" stroke="#ddd" stroke-width=".5" d="M244.2 128.2l-15.3-3.8 2.9-2.1-6.5-1.6 4.9-3.5 21.8 5.4-7.8 5.6zm0 0" class="unit"/>
    <path id="unit-2027" fill="#fff" stroke="#ddd" stroke-width=".5" d="M223.6 134.6l-9.4-6 6.2-4.5 13.3 3.2-10.1 7.3zm0 0" class="unit"/>
    <path id="unit-2028" fill="#fff" stroke="#ddd" stroke-width=".5" d="M243.7 142.2l-19.9-7.5 10.2-7.4 22.6 5.6-6 4.3-6.9 5zm0 0" class="unit"/>
    <path id="unit-2029" fill="#fff" stroke="#ddd" stroke-width=".5" d="M274.2 143.3L256 156.2l-19.7-4.9 17.9-12.9 20 4.9zm0 0" class="unit"/>
    <path id="unit-2030" fill="#fff" stroke="#ddd" stroke-width=".5" d="M212.7 145.5l-8-2.1c-4.3-1.1-10.2-.4-14 1.5l-5.3 3.8-5.9 4.2 1.7.4 11.8 2.9.3.1 12.4 3.1.6.1 1.1-.8 7.4-5.3.6-.5c3.6-2.7 2.4-6.1-2.7-7.4zm0 0" class="unit"/>
    <path id="unit-2034" fill="#fff" stroke="#ddd" stroke-width=".5" d="M295.1 86.5l-6.3 4.5-16.2-4 6.3-4.5 16.2 4zm0 0" class="unit"/>
    <path id="unit-2035" fill="#fff" stroke="#ddd" stroke-width=".5" d="M383.2 32.2l40.4 10.1 2.5 3.9-9.7 6.9 8 2-39.7 28.3 8 2-30.4 21.7-2.7-.7-3 2.1-49-12.2 8.3-5.9-10.1-2.5-1.1.8-25.6-6.4 9.3-6.6 1.6.4 47.6-34 .8-2.2 23.8-17 24.3 6.8-3.3 2.5zm0 0" class="unit"/>
    <path id="unit-2036" fill="#fff" stroke="#ddd" stroke-width=".5" d="M277.9 90.6l-4.1 2.9-7.6-1.9 4.1-2.9 7.6 1.9zm0 0" class="unit"/>
    <path id="unit-2037" fill="#fff" stroke="#ddd" stroke-width=".5" d="M287.8 97.2l-3.8 2.7-21.8-5.5 3.8-2.7 21.8 5.5zm0 0" class="unit"/>
    <path id="unit-2038" fill="#fff" stroke="#ddd" stroke-width=".5" d="M279.2 103.3l-21.8-5.5 4.6-3.3 21.8 5.4-4.6 3.4zm0 0" class="unit"/>
    <path id="unit-2039" fill="#fff" stroke="#ddd" stroke-width=".5" d="M270.7 41.5l4.8-3.4 13.4 3.4-4.8 3.4-13.4-3.4zm0 0" class="unit"/>
    <path id="unit-2040" fill="#fff" stroke="#ddd" stroke-width=".5" d="M294.4 2.8l8 2.7 50.9 15.2-37.9 27.1-65.8-16.4L266.9 19l7.1-1.6 20.4-14.6zm0 0" class="unit"/>
    <path id="unit-2041" fill="#fff" stroke="#ddd" stroke-width=".5" d="M193.1 17.6l82 20.5-5 3.6 13.7 3.4-14.3 10.2-95.8-23.9 19.4-13.8zm0 0" class="unit"/>
    <path id="unit-2042" fill="#fff" stroke="#ddd" stroke-width=".5" d="M162 52.9l11.3 2.8 25.3-18 70.8 17.6-4 2.8 3.6.9-4.4 3.1 2.8.7-4.2 3 7.3 1.8-46.8 33.4-54.4-13.5 2.7-1.9-23.6-5.9 3.6-23.5c.1-.9.4-1.6.8-2.2.5-.7 1.3-1.2 2.3-1.6l1.4-.3c1.2 0 3.1.2 5.5.8zm0 0" class="unit"/>
    <path id="unit-2043" fill="#fff" stroke="#ddd" stroke-width=".5" d="M197.5 98.6l22.3 5.5-4 2.9-22.3-5.5 4-2.9zm0 0" class="unit"/>
    <path id="unit-2044" fill="#fff" stroke="#ddd" stroke-width=".5" d="M215.6 107.1l-22.3-5.5-3.6-1 6.2-4.4-22.8-5.7-17.7 12.6 48.8 12.2 6.7-4.8 4.7-3.4zm0 0" class="unit"/>
    <path id="unit-2046" fill="#fff" stroke="#ddd" stroke-width=".5" d="M155.2 103.2l48.8 12.1-8.5 6.1-48.8-12.2 8.5-6zm0 0" class="unit"/>
    <path id="unit-2047" fill="#fff" stroke="#ddd" stroke-width=".5" d="M187.3 127.3l-26-6.5-8.6 6.1-22.8-5.7 16.6-11.8 48.8 12.2-8 5.7zm0 0" class="unit"/>
    <path id="unit-2048" fill="#fff" stroke="#ddd" stroke-width=".5" d="M183 130.4l-22.3-5.5 4.1-2.9 22.3 5.6-4.1 2.8zm0 0" class="unit"/>
    <path id="unit-2049" fill="#fff" stroke="#ddd" stroke-width=".5" d="M178.7 133.4l-22.3-5.6 4.1-2.9 22.3 5.5-4.1 3zm0 0" class="unit"/>
    <path id="unit-2050" fill="#fff" stroke="#ddd" stroke-width=".5" d="M174.8 136.3l-22.3-5.6 3.8-2.7 22.3 5.5-3.8 2.8zm0 0" class="unit"/>
    <path id="unit-2051" fill="#fff" stroke="#ddd" stroke-width=".5" d="M148.5 133.6l3.8-2.7 22.3 5.5-3.8 2.7-22.3-5.5zm0 0" class="unit"/>
    <path id="unit-2052" fill="#fff" stroke="#ddd" stroke-width=".5" d="M170.6 139.2l-3.7 2.7-5.4-1.3 3.7-2.7 5.4 1.3zm0 0" class="unit"/>
    <path id="unit-2053" fill="#fff" stroke="#ddd" stroke-width=".5" d="M140.3 135.7l2-1.4 3.8.9 2.2-1.6 16.5 4.1-3.9 2.8 5.7 1.4-4 2.9-25.3-6.3h-1.2L130 137l4.1-2.9 6.2 1.6zm0 0" class="unit"/>
    <path id="unit-2054" fill="#fff" stroke="#ddd" stroke-width=".5" d="M134.2 140l24.9 6.2-10.7 7.6-24.9-6.2 10.7-7.6zm0 0" class="unit"/>
    <path id="unit-2055" fill="#fff" stroke="#ddd" stroke-width=".5" d="M112.6 145.1l35.7 8.9-4.4 3.1-51.2-12.8 8.4-6 15.5 3.9-4 2.9zm0 0" class="unit"/>
    <path id="unit-2056" fill="#fff" stroke="#ddd" stroke-width=".5" d="M101.2 146.7l42.5 10.5-4.4 3.1-42.4-10.6 4.3-3zm0 0" class="unit"/>
    <path id="unit-2057" fill="#fff" stroke="#ddd" stroke-width=".5" d="M130 167l-42.4-10.6 9.1-6.5 42.4 10.6-9.1 6.5zm0 0" class="unit"/>
    <path id="unit-2058" fill="#fff" stroke="#ddd" stroke-width=".5" d="M120.9 173.5l-46.5-11.6 8.8-6.3 46.6 11.6-8.9 6.3zm0 0" class="unit"/>
    <path id="unit-2059" fill="#fff" stroke="#ddd" stroke-width=".5" d="M152.5 110.9H152.8l.1.2-.1.1-.1.1-.2-.1V110.9m1.4.5l-.2.2-.2-.1v-.2h.2l.2.1m0 .8h.1l.1.1-.1.1-.1.1-.2-.1v-.2h.2m-1.1.6H153.1l.1.2-.1.1-.1.1-.2-.1V112.8m1.9-1.3H155l.1.2-.1.1-.1.1-.2-.1V111.5m-4-1.1l-.2.2-.2-.1V110.2H150.6l.1.2m.8.2H151.8l.1.1-.1.1-.1.1-.2-.1v-.2m-2.3-.6H149.5l.1.1-.1.1-.1.1-.2-.1v-.2m2.7 3.5H152.2l.1.1-.1.1-.1.1-.2-.1v-.2m-.9.7H151.3l.1.2-.1.1-.1.1-.2-.1V114.2m-.6.9h-.3v-.2H150.4l.1.1-.1.1m-1.3.6l.2-.1h.1l.1.1-.1.1-.1.1-.2-.2m-.6.5l.1.2-.1.1-.1.1-.2-.1V116.2H148.5m-.2-6.5l.1.1-.1.1-.1.1h-.2v-.2l.3-.1m-1.4-.3H147.2l.1.2-.1.1-.1.1-.2-.1V109.4m-.7.2l.1.1-.1.1-.1.1-.2-.1v-.2h.3m-1.2.7H145.3l.1.2-.1.1-.1.1-.2-.1V110.3m-.6.6l.1.1-.1.1-.1.1-.2-.1v-.2h.3m-3 2.1H141.7l.1.1-.1.1-.1.1-.2-.1v-.2m1-.4l-.2-.1V112.2H142.5l.1.2-.1.1-.1.1m.8-1H143.5l.1.1-.1.1-.1.1-.2-.1v-.2m-2.4 4H141.1l.1.2-.1.1-.1.1-.2-.1V115.6m-.1-1.7h-.3V113.6H140.7l.1.2-.1.1m1.1 2H142.1l.1.1-.1.1-.1.1-.2-.1v-.2m2.3.6H144.4l.1.1-.1.1-.1.1-.2-.1v-.2m-.9-.3l.1.2-.1.1-.1.1-.2-.1V116.2h.3m2 .6H145.5l.1.1-.1.1-.1.1-.2-.1v-.2m1.2.3H146.7l.1.2-.1.1-.1.1-.2-.1V117.1m1.2-.2v.2l-.1.1-.2-.1v-.2H147.6m-7.7-2.4l-.2.2-.2-.1v-.2h.2l.2.1m-.2.8H140l.1.1-.1.1-.1.1-.2-.1v-.2m-.8-.2l-.2.2-.2-.1V114.9H138.8l.1.2" class="unit"/>
    <path id="unit-2060" fill="#fff" stroke="#ddd" stroke-width=".5" d="M169.7 151.6l-4.9 3.5-5.7-1.4 4.9-3.5 5.7 1.4zm0 0" class="unit"/>
  </g>
  <g transform="translate(0,250)">
    <path d="M433.2,59.1 L432.1,57.8 L433.9,56.5 L422,46.1 L412.4,43 L412.4,41.1 L382,31.1 L357.2,23.9 L304.8,8.3 L295.5,5.2 L281,15.4 L223.4,0.7 L195.1,21.9 L178.1,34.1 L178,39.4 L179,39.8 L200,45.1 L177.4,61.2 L159.4,56.7 L158.1,56.4 L156,56.1 L154.1,56.1 L152.1,56.5 L151.9,56.6 C150.5,57.1 149.5,57.9 148.8,58.8 C148.3,59.5 147.9,60.4 147.8,61.3 L144.7,81.6 L143.4,90.5 L143.4,95.4 L148.2,96.6 L141.8,101.1 L141.3,106.6 L78,151.3 L66.2,166.3 L56.4,173.7 L24.9,196.2 L24.8,201.7 L110.9,223.1 L111.8,223.1 L113.4,221.9 L116.3,222.6 L121.8,218.7 L122,218.8 L122,221.8 L134.8,225 L206.7,234.1 L240.6,209.9 L240.7,204.3 L216.2,200.8 L209.4,199.1 L209.4,194.9 L205.7,194 L205.7,189.8 L241.1,198.6 L259.2,185.6 L259.3,180.1 L253.2,178.6 L260.9,173 L262.9,173.5 L283,159.1 L283,155 L283,153.6 L258.3,147.5 L256.9,148.5 L237.4,143.8 L240,142 L240,141.8 L241.3,142.1 L274.6,118.3 L274.6,115.4 L277.5,116.1 L288.4,108.4 L288.4,105.3 L291.5,106.1 L301.6,98.9 L301.6,98.1 L310,100.2 L307.2,102.2 L307.2,107.7 L362.9,121.6 L399,96.2 L399.1,90.7 L396.5,90.1 L433.2,63.9 L433.2,59.1 L433.2,59.1 Z M433.2,59.1" class="outline" fill="#f68b1f" stroke-width=".5"/>
    <path d="M11.9,105.2 C9,105.2 7.2,107.5 7.2,111.1 C7.2,114.5 9,116.6 11.9,116.6 C14.8,116.6 16.6,114.2 16.6,110.6 C16.6,107.3 14.8,105.2 11.9,105.2 L11.9,105.2 L11.9,105.2 Z M11.9,115.5 C9.8,115.5 8.5,113.8 8.5,111.2 C8.5,108.2 9.7,106.4 11.9,106.4 C14.1,106.4 15.3,108.1 15.3,110.6 C15.3,113.6 14.1,115.5 11.9,115.5 L11.9,115.5 L11.9,115.5 Z M38.4,115.3 L33.6,115.3 L33.6,111.4 L37.5,111.4 C37.9,111.4 38.1,111.1 38.1,110.8 C38.1,110.5 37.9,110.2 37.5,110.2 L33.6,110.2 L33.6,106.5 L38.2,106.5 C38.6,106.5 38.8,106.2 38.8,105.9 C38.8,105.6 38.6,105.3 38.2,105.3 L33.4,105.3 C32.7,105.3 32.3,105.7 32.3,106.3 L32.3,115.6 C32.3,116.2 32.7,116.6 33.4,116.6 L38.3,116.6 C38.7,116.6 38.9,116.3 38.9,116 C39,115.6 38.8,115.3 38.4,115.3 L38.4,115.3 L38.4,115.3 Z M29.9,105.3 C29.6,105.3 29.4,105.6 29.3,105.9 C28.9,109 28.3,112 27.5,115.1 L27.5,115.1 C26.6,112.3 25.9,108.9 25.2,106.6 C24.9,105.6 24.6,105.3 24.1,105.3 C23.7,105.3 23.3,105.6 23.1,106.5 C22.4,108.8 21.5,112.5 20.7,115.1 L20.7,115.1 C19.9,112 19.5,109 19.1,105.9 C19,105.5 18.8,105.3 18.4,105.3 C18,105.3 17.8,105.6 17.8,105.9 L17.8,106.3 C18.2,109.4 18.8,112.6 19.5,115.3 C19.7,116.3 20.1,116.6 20.6,116.6 C21.1,116.6 21.4,116.3 21.7,115.5 C22.6,113 23.2,110.3 24.1,107.1 L24.1,107.1 C25.1,110.3 25.6,113 26.4,115.5 C26.7,116.4 27,116.6 27.5,116.6 C28,116.6 28.3,116.3 28.5,115.5 C29.3,112.5 29.9,109.4 30.4,106.2 L30.4,105.8 C30.5,105.6 30.3,105.3 29.9,105.3 L29.9,105.3 L29.9,105.3 Z M6.2,115.4 L1.9,115.4 L1.9,106 C1.9,105.6 1.6,105.3 1.3,105.3 C0.9,105.3 0.7,105.6 0.7,106 L0.7,115.6 C0.7,116.2 1.1,116.6 1.8,116.6 L6.3,116.6 C6.7,116.6 7,116.3 7,116 C6.9,115.6 6.6,115.4 6.2,115.4 L6.2,115.4 L6.2,115.4 Z M72.3,106.8 C71.7,105.6 71.2,105.2 70.6,105.2 C70,105.2 69.5,105.6 68.9,106.8 C68,108.6 67.3,110.9 66.1,115.5 C66,115.7 66,115.9 66,116 C66,116.4 66.3,116.6 66.6,116.6 C66.9,116.6 67.1,116.4 67.2,116.1 C67.5,114.7 67.8,113.5 68.1,112.4 L73,112.4 C73.3,113.5 73.6,114.7 73.9,116.1 C74,116.4 74.2,116.6 74.5,116.6 C74.9,116.6 75.1,116.4 75.1,116 C75.1,115.9 75.1,115.7 75,115.5 C73.9,110.9 73.1,108.6 72.3,106.8 L72.3,106.8 L72.3,106.8 Z M68.5,111.3 C69.2,108.9 69.9,107.3 70.4,106.5 C70.4,106.4 70.5,106.4 70.6,106.4 C70.7,106.4 70.8,106.5 70.8,106.5 C71.3,107.3 72,108.8 72.7,111.3 L68.5,111.3 L68.5,111.3 Z M90,115.4 L85.7,115.4 L85.7,106 C85.7,105.6 85.4,105.3 85.1,105.3 C84.7,105.3 84.5,105.6 84.5,106 L84.5,115.6 C84.5,116.2 84.9,116.6 85.6,116.6 L90,116.6 C90.4,116.6 90.7,116.3 90.7,116 C90.6,115.6 90.4,115.4 90,115.4 L90,115.4 L90,115.4 Z M63.7,106.6 C63.6,105.8 63.3,105.3 62.6,105.3 C62,105.3 61.7,105.7 61.5,106.1 C60.7,108.3 59.8,111.1 58.8,113.8 L58.8,113.8 C57.8,111.3 57,108.7 56,106.3 C55.8,105.7 55.5,105.3 54.9,105.3 C54.2,105.3 53.9,105.7 53.8,106.6 C53.4,109.5 53.3,112.7 53.3,115.9 C53.3,116.3 53.5,116.5 53.9,116.5 C54.3,116.5 54.5,116.3 54.5,115.8 C54.5,112.7 54.7,109.8 55,106.8 L55,106.8 C56,109.4 56.9,112.1 58,114.7 C58.1,115 58.4,115.3 58.8,115.3 C59.2,115.3 59.5,115.1 59.6,114.7 C60.6,112.2 61.5,109.5 62.4,106.8 L62.4,106.8 C62.8,109.8 63,112.8 63.1,115.8 C63.1,116.2 63.3,116.5 63.7,116.5 C64.1,116.5 64.3,116.2 64.3,115.8 L64.3,115.3 C64.4,112.4 64.1,109.4 63.7,106.6 L63.7,106.6 L63.7,106.6 Z M82.4,115.4 L78.1,115.4 L78.1,106 C78.1,105.6 77.8,105.3 77.5,105.3 C77.1,105.3 76.9,105.6 76.9,106 L76.9,115.6 C76.9,116.2 77.3,116.6 78,116.6 L82.5,116.6 C82.9,116.6 83.2,116.3 83.2,116 C83,115.6 82.8,115.4 82.4,115.4 L82.4,115.4 L82.4,115.4 Z M46.5,112.4 C46.2,112 45.9,111.7 45.5,111.4 C46.9,110.9 47.9,109.9 47.9,108.4 C47.9,106.5 46.6,105.2 43.7,105.2 C42.6,105.2 41.8,105.3 41.3,105.5 C40.9,105.6 40.8,105.9 40.8,106.3 L40.8,116 C40.8,116.4 41.1,116.6 41.4,116.6 C41.8,116.6 42,116.4 42,116 L42,111.8 L43.2,111.8 C44.4,111.8 44.8,112.3 45.4,113.2 C45.8,113.8 46.2,114.8 46.7,116.2 C46.8,116.5 47,116.6 47.3,116.6 C47.6,116.6 47.9,116.4 47.9,116 C47.9,115.9 47.9,115.7 47.8,115.6 C47.5,114.4 47,113.2 46.5,112.4 L46.5,112.4 L46.5,112.4 Z M43.4,110.6 L42,110.6 L42,106.6 C42.4,106.5 42.9,106.5 43.6,106.5 C45.9,106.5 46.6,107.4 46.6,108.6 C46.6,110.1 45,110.6 43.4,110.6 L43.4,110.6 L43.4,110.6 Z M43.4,110.6" class="Shape" fill="#f68b1f" stroke-width=".5"/>
    <path d="M421.2,47.4 L410.7,43.9 L406.9,46.6 L332.1,58.9 L289.2,48.2 L264.9,65.5 L275.2,68.1 L260.4,78.7 L262.7,82 L223.4,110 L219.3,110.4 L153.9,94.5 L143.1,102.1 L142.6,107.6 L78.9,152.6 L67.2,167.6 L56.7,175 L123.3,191.2 L136.2,197.3 L116.5,211.3 L107,218.2 L110.6,220 L116,221.3 L150.7,196.5 L143.5,186.3 L180.9,159.6 L185.8,158.9 L197.8,162.2 L187,170.2 L197.4,172.8 L186.7,180.4 L198.6,183.5 L201,187.3 L241,197 L257.7,185.1 L257.8,181.5 L251.1,180 L249.6,179.6 L260.7,171.6 L262.7,172.1 L281.6,158.6 L281.6,156.5 L255.7,150 L234,144.7 L209,138.3 L301.7,73.4 L342.6,67.4 L348.8,62.9 L398.1,54.6 L410.1,57.6 L421,56.3 L428.8,58.3 L431.5,56.4 L421.2,47.4 L421.2,47.4 Z M421.2,47.4" class="walkway" fill="#808285" stroke-width=".5"/>
    <path d="M431.7,59.6 L429,56.4 L421,54.4 L410.2,55.7 L407.2,54.9 L405.9,55.8 L405.9,54.6 L398.2,52.7 L386.2,54.7 L386,54.7 L348.9,61.3 L343.2,65.5 L301.7,71.5 L279,87.6 L279,89.5 L277,89 L233.1,120.4 L232.9,120.5 L217.8,131.3 L217.8,132.6 L216.5,132.3 L207.6,138.7 L207.4,138.8 L194.8,147.8 L194.6,147.9 L194.6,151.3 L194.7,151.2 L219.1,157.4 L228.4,150.6 L231,148.7 L230.9,144.5 L223.5,142.6 L224,142.2 L234,144.7 L238.6,141.4 L238.6,140.1 L241,140.7 L273.1,117.8 L273.1,114.2 L265.9,112.4 L266.4,112.1 L277.3,114.8 L287,107.9 L287,104.3 L277.3,101.9 L278,101.4 L291.3,104.7 L300.3,98.3 L300.3,96.4 L313.7,99.8 L308.9,103.2 L308.9,106.8 L362.8,120.2 L397.5,95.4 L397.5,91.8 L392.9,90.7 L431.6,63.1 L431.7,59.6 L431.7,59.6 Z M207,200.4 L207.7,199.9 L207.7,196.4 L202.3,195 L203.7,194 L203.6,190.2 L199.3,183.1 L191.6,181.3 L197.5,176.9 L197.4,172.8 L190.6,171.1 L192.6,169.8 L197.9,171.1 L201.8,168.3 L205.3,165.8 L205.3,162.1 L196.9,159.9 L211.1,163.3 L222.3,155.2 L195.4,147.5 L190.9,150.7 L188.4,152.5 L188.4,156.1 L190.3,158.3 L185.9,157.2 L180.8,157.9 L174.4,162.5 L174.2,162.6 L153.4,177.5 L153.2,177.6 L143.4,184.5 L143.4,188.1 L147.6,194.3 L148.5,194.2 L148.5,195.6 L148.9,196.1 L123.2,214.4 L123.2,217.9 L123.6,218 L123.6,221 L135.2,223.9 L206.1,232.9 L206.3,232.9 L239.1,209.5 L239.1,206 L215.9,202.7 L207,200.4 L207,200.4 Z M207,200.4" class="wall" fill="#989898" stroke-width=".5"/>
    <path d="M381.4,32.5 L381.4,32.5 L356.8,25.4 L356.6,25.4 L304.3,9.7 L295.8,6.8 L281.4,17 L223.7,2.3 L196,23.1 L179.6,34.8 L179.6,38.3 L179.8,38.4 L203.6,44.3 L184.6,57.8 L184.4,57.9 L177.7,62.7 L159,58.1 L157.8,57.9 L157.4,57.8 L155.9,57.6 L154.1,57.6 L152.5,58 C151.4,58.4 150.6,59 150.1,59.7 C149.7,60.2 149.5,60.8 149.4,61.6 L146.1,82 L146.1,82.1 L144.8,90.7 L144.8,94.3 L167.1,99.8 L145.6,115.1 L141.9,114.2 L111.8,135.7 L111.8,139.7 L135.3,145.2 L135.4,149.1 L158.7,154.8 L163.4,151.5 L169.4,150.6 L187.7,137.6 L187.7,136.4 L218.9,114.1 L218.9,112 L223.5,111.8 L262.8,83.7 L262.8,80.2 L262.2,79.3 L278,68.1 L278,64.4 L268.9,64.7 L289.2,50 L317.3,57 L317.5,57.1 L332,60.7 L351.3,57.5 L351.3,56 L354.3,57 L368.7,54.6 L368.8,54.6 L378.6,52.9 L378.7,52.9 L406.9,48.4 L410.8,45.6 L410.8,42 L381.4,32.5 L381.4,32.5 Z M381.4,32.5" class="wall" fill="#989898" stroke-width=".5"/>
    <path d="M161.9,160.4 L161.9,155.9 L114.7,144 L78,170.3 L77.9,173.4 L64.3,170 L26.3,197.1 L26.3,197.2 L26.2,197.2 L26.2,200.8 L111.2,221.9 L111.3,221.9 L120.3,215.5 L120.3,213.2 L136.2,201.9 L136.2,197.4 L131.9,191 L122.4,188.6 L161.9,160.4 L161.9,160.4 Z M161.9,160.4" class="wall" fill="#989898" stroke-width=".5"/>
    <path d="M184.5,142.8 L184.5,146.3 L190.9,147.9 L196.2,144.1 L196.2,140.5 L189.8,138.9 L184.5,142.8 L184.5,142.8 Z M229.4,120.3 L229.4,116.7 L223,115.1 L217.7,119 L217.7,122.5 L224.1,124.1 L229.4,120.3 L229.4,120.3 Z M203.8,129.2 L203.8,132.7 L210.2,134.3 L215.5,130.5 L215.5,126.9 L209.1,125.3 L203.8,129.2 L203.8,129.2 Z M246.1,99.2 L246.1,102.9 L251.8,104.4 L256.6,101 L256.6,97.2 L250.9,95.8 L246.1,99.2 L246.1,99.2 Z M272.1,79 L267.3,82.4 L267.3,85.6 L273,87 L277.8,83.6 L277.8,80.4 L272.1,79 L272.1,79 Z M222.5,168.4 L222.5,171.9 L228.9,173.5 L234.2,169.7 L234.2,166.1 L227.8,164.5 L222.5,168.4 L222.5,168.4 Z M222.5,168.4" class="wall" fill="#989898" stroke-width=".5"/>
    <path d="M216.4,171.4 L206.6,169 L190,180.9 L190,184.6 L240.8,197.2 L257.7,185 L257.7,181.4 L233.9,175.6 L216.4,171.4 L216.4,171.4 Z M275.3,153.5 L258.8,149.4 L255,152 L232.9,146.5 L217.7,157.4 L217.7,160.9 L262.7,172 L281.6,158.4 L281.6,154.8 L275.3,153.5 L275.3,153.5 Z M147.8,169.2 L147.8,172.7 L154.2,174.3 L159.5,170.5 L159.5,166.9 L153.1,165.4 L147.8,169.2 L147.8,169.2 Z M147.8,169.2" class="wall" fill="#989898" stroke-width=".5"/>
    <path class="unit" fill="#fff" stroke="#ddd" stroke-width=".5" d="M190.8,158.5 L182.5,164.4 L174.5,162.4 L180.8,157.9 L185.6,157.2 L190.8,158.5 L190.8,158.5 Z M190.8,158.5" id="unit-1006"/>
    <path class="unit" fill="#fff" stroke="#ddd" stroke-width=".5" d="M199.6,160.7 L191.3,166.6 L182.8,164.5 L191.1,158.6 L199.6,160.7 L199.6,160.7 Z M199.6,160.7" id="unit-1007"/>
    <path class="unit" fill="#fff" stroke="#ddd" stroke-width=".5" d="M205.2,162.1 L197.9,167.3 L192.7,166 L199.9,160.8 L205.2,162.1 L205.2,162.1 Z M205.2,162.1" id="unit-1008"/>
    <path class="unit" fill="#fff" stroke="#ddd" stroke-width=".5" d="M174.3,162.5 L191.2,166.7 L186.8,169.8 L169.9,165.6 L174.3,162.5 L174.3,162.5 Z M174.3,162.5" id="unit-1010"/>
    <path class="unit" fill="#fff" stroke="#ddd" stroke-width=".5" d="M187.4,180 L159.6,173.1 L169.7,165.9 L197.5,172.8 L187.4,180 L187.4,180 Z M187.4,180" id="unit-1011"/>
    <path class="unit" fill="#fff" stroke="#ddd" stroke-width=".5" d="M159.4,173.2 L179.3,178.2 L173.3,182.5 L153.4,177.5 L159.4,173.2 L159.4,173.2 Z M159.4,173.2" id="unit-1012"/>
    <path class="unit" fill="#fff" stroke="#ddd" stroke-width=".5" d="M167.1,181.1 L163.4,183.8 L162.7,183.6 L162,184.1 L148.7,180.8 L153.1,177.7 L167.1,181.1 L167.1,181.1 Z M167.1,181.1" id="unit-1015"/>
    <path class="unit" fill="#fff" stroke="#ddd" stroke-width=".5" d="M155.7,182.7 L150.2,186.6 L155.1,187.8 L152.1,189.9 L147.4,190.4 L143.4,184.5 L148.5,180.9 L155.7,182.7 L155.7,182.7 Z M155.7,182.7" id="unit-1017"/>
    <path class="unit" fill="#fff" stroke="#ddd" stroke-width=".5" d="M238.4,206 L205.9,229.2 L134.9,220.2 L123.6,217.4 L126.7,215.2 L123.2,214.3 L150.5,194.8 L148.5,192.1 L154.3,191.5 L159.5,187.8 L164.5,189.1 L179.6,178.3 L199.2,183.2 L203.6,190.2 L198,194.2 L207.1,196.5 L202.7,199.7 L215.5,202.9 L238.4,206 L238.4,206 Z M238.4,206" id="unit-1018"/>
    <path class="unit" fill="#fff" stroke="#ddd" stroke-width=".5" d="M193.9,104.5 L218.2,110.6 L213,114.3 L188.6,108.2 L193.9,104.5 L193.9,104.5 Z M193.9,104.5" id="unit-1019"/>
    <path class="unit" fill="#fff" stroke="#ddd" stroke-width=".5" d="M188.5,108.3 L212.9,114.4 L207.7,118.1 L183.3,112 L188.5,108.3 L188.5,108.3 Z M188.5,108.3" id="unit-1020"/>
    <path class="unit" fill="#fff" stroke="#ddd" stroke-width=".5" d="M169.3,98.3 L191,103.7 L180.2,111.4 L207.5,118.2 L194.7,127.3 L145.7,115.1 L169.3,98.3 L169.3,98.3 Z M169.3,98.3" id="unit-1021"/>
    <path class="unit" fill="#fff" stroke="#ddd" stroke-width=".5" d="M141.7,114.3 L194.5,127.5 L185.9,133.6 L133.1,120.4 L141.7,114.3 L141.7,114.3 Z M141.7,114.3" id="unit-1022"/>
    <path class="unit" fill="#fff" stroke="#ddd" stroke-width=".5" d="M132.9,120.6 L186.9,134.1 L176,141.8 L122,128.3 L132.9,120.6 L132.9,120.6 Z M132.9,120.6" id="unit-1023"/>
    <path class="unit" fill="#fff" stroke="#ddd" stroke-width=".5" d="M121.8,128.5 L115.6,132.9 L111.9,135.5 L138.8,142.3 L135.3,145.2 L158.3,151 L162.8,147.7 L168.9,146.9 L169.9,146.2 L175.8,141.9 L121.8,128.5 L121.8,128.5 Z M121.8,128.5" id="unit-1024"/>
    <path class="unit" fill="#fff" stroke="#ddd" stroke-width=".5" d="M228.8,116.6 L223.9,120.1 L218.2,118.7 L223.1,115.2 L228.8,116.6 L228.8,116.6 Z M228.8,116.6" id="unit-1027"/>
    <path class="unit" fill="#fff" stroke="#ddd" stroke-width=".5" d="M92.7,159.3 L121.1,166.4 L124.5,164 L143.8,168.9 L150.5,164.1 L102.7,152.1 L92.7,159.3 L92.7,159.3 Z M92.7,159.3" id="unit-1028"/>
    <path class="unit" fill="#fff" stroke="#ddd" stroke-width=".5" d="M121.2,166.6 L121.2,166.6 L92.4,159.4 L88.8,161.9 L136.6,173.9 L143.6,168.9 L124.5,164.1 L121.2,166.6 L121.2,166.6 Z M121.2,166.6" id="unit-1029"/>
    <path class="unit" fill="#fff" stroke="#ddd" stroke-width=".5" d="M77.7,170 L125.4,182 L136.4,174.2 L88.6,162.2 L77.7,170 L77.7,170 Z M77.7,170" id="unit-1030"/>
    <path class="unit" fill="#fff" stroke="#ddd" stroke-width=".5" d="M95.9,175.8 L93.7,177.3 L89.7,180.1 L118,187.2 L125.2,182.1 L97,175 L95.9,175.8 L95.9,175.8 Z M95.9,175.8" id="unit-1031"/>
    <path class="unit" fill="#fff" stroke="#ddd" stroke-width=".5" d="M63.8,169.9 L93.4,177.3 L89.2,180.3 L122.2,188.6 L131.9,191 L136.2,197.4 L116.5,211.4 L118.9,212 L110.2,218.3 L25.7,197.2 L63.8,169.9 L63.8,169.9 Z M63.8,169.9" id="unit-1032"/>
    <path class="unit" fill="#fff" stroke="#ddd" stroke-width=".5" d="M275.2,21.5 L296,6.6 L304.1,9.3 L284,23.7 L275.2,21.5 L275.2,21.5 Z M275.2,21.5" id="unit-1033"/>
    <path class="unit" fill="#fff" stroke="#ddd" stroke-width=".5" d="M348.3,41.3 L366.8,28.1 L381.1,32.2 L368,41.5 L356.2,38.5 L351.3,42 L348.3,41.3 L348.3,41.3 Z M348.3,41.3" id="unit-1034"/>
    <path class="unit" fill="#fff" stroke="#ddd" stroke-width=".5" d="M407.1,44.5 L390.5,47.2 L368.4,41.7 L381.5,32.4 L410.8,42 L407.1,44.5 L407.1,44.5 Z M407.1,44.5" id="unit-1035"/>
    <path class="unit" fill="#fff" stroke="#ddd" stroke-width=".5" d="M369.1,50.7 L333.6,41.9 L337.8,38.9 L378.6,49 L369.1,50.7 L369.1,50.7 Z M369.1,50.7" id="unit-1036"/>
    <path class="unit" fill="#fff" stroke="#ddd" stroke-width=".5" d="M317.6,53 L249.8,36.1 L267.8,23.2 L275,21.5 L284.2,23.8 L304.5,9.4 L356.7,25 L317.6,53 L317.6,53 Z M317.6,53" id="unit-1037"/>
    <path class="unit" fill="#fff" stroke="#ddd" stroke-width=".5" d="M357,25.2 L366.5,28 L348,41.2 L338.1,38.7 L357,25.2 L357,25.2 Z M357,25.2" id="unit-1038"/>
    <path class="unit" fill="#fff" stroke="#ddd" stroke-width=".5" d="M356.3,38.8 L390,47.2 L379,49 L351.6,42.2 L356.3,38.8 L356.3,38.8 Z M356.3,38.8" id="unit-1039"/>
    <path class="unit" fill="#fff" stroke="#ddd" stroke-width=".5" d="M351.4,53.5 L332.3,56.7" id="unit-1040"/>
    <path class="unit" fill="#fff" stroke="#ddd" stroke-width=".5" d="M332.3,56.7 L317.9,53.1 L326.1,47.2 L351.4,53.4 L332.3,56.7 L332.3,56.7 Z M332.3,56.7" id="unit-1041"/>
    <path class="unit" fill="#fff" stroke="#ddd" stroke-width=".5" d="M327.3,46.3 L333.4,41.9 L369,50.7 L354.3,53.1 L327.3,46.3 L327.3,46.3 Z M327.3,46.3" id="unit-1042"/>
    <path class="unit" fill="#fff" stroke="#ddd" stroke-width=".5" d="M405.7,54.5 L400.9,57.9 L387.3,54.5 L398.6,52.6 L405.7,54.5 L405.7,54.5 Z M405.7,54.5" id="unit-1043"/>
    <path class="unit" fill="#fff" stroke="#ddd" stroke-width=".5" d="M396,61.3 L391.4,64.6 L365.7,58.2 L376.5,56.4 L396,61.3 L396,61.3 Z M396,61.3" id="unit-1044"/>
    <path class="unit" fill="#fff" stroke="#ddd" stroke-width=".5" d="M386.7,54.6 L400.5,58.1 C399.1,59.1 397.6,60.2 396.2,61.2 L376.8,56.4 L386.7,54.6 L386.7,54.6 Z M386.7,54.6" id="unit-1045"/>
    <path class="unit" fill="#fff" stroke="#ddd" stroke-width=".5" d="M425,64.1 L420.7,67.2 L398.3,61.6 L402.6,58.5 L425,64.1 L425,64.1 Z M425,64.1" id="unit-1046"/>
    <path class="unit" fill="#fff" stroke="#ddd" stroke-width=".5" d="M429.1,56.3 L431.7,59.4 L425.2,64.1 L402.8,58.5 L407.6,55 L410.4,55.7 L421.3,54.4 L429.1,56.3 L429.1,56.3 Z M429.1,56.3" id="unit-1047"/>
    <path class="unit" fill="#fff" stroke="#ddd" stroke-width=".5" d="M420.4,67.4 L415.8,70.7 L393.4,65.1 L398,61.9 L420.4,67.4 L420.4,67.4 Z M420.4,67.4" id="unit-1048"/>
    <path class="unit" fill="#fff" stroke="#ddd" stroke-width=".5" d="M259.6,67.7 L193.7,51.3 L207.6,41.4 L179.9,34.5 L196,23 L289,46 L259.6,67.7 L259.6,67.7 Z M259.6,67.7" id="unit-1049"/>
    <path class="unit" fill="#fff" stroke="#ddd" stroke-width=".5" d="M281.4,17 L275.2,21.5 L267.4,23.4 L249.4,36.3 L196,23 L223.8,2.4 L281.4,17 L281.4,17 Z M281.4,17" id="unit-1050"/>
    <path class="unit" fill="#fff" stroke="#ddd" stroke-width=".5" d="M193.5,51.3 L269.2,70.2 L260.3,76.5 L184.6,57.6 L193.5,51.3 L193.5,51.3 Z M193.5,51.3" id="unit-1051"/>
    <path class="unit" fill="#fff" stroke="#ddd" stroke-width=".5" d="M345.4,63.6 L349.1,60.9 L365.2,58.2 L415.6,70.8 L402.5,80.1 L367.9,71.5 L354.5,81.1 L352.1,80.5 L365.5,70.9 L343.1,65.3 L343.4,65.1" id="unit-1052"/>
    <path class="unit" fill="#fff" stroke="#ddd" stroke-width=".5" d="M225.8,68.2 L260.3,76.8 L262.5,80.1 L257.2,83.9 L217.7,74 L225.8,68.2 L225.8,68.2 Z M225.8,68.2" id="unit-1053"/>
    <path class="unit" fill="#fff" stroke="#ddd" stroke-width=".5" d="M184.4,57.8 L225.5,68 L217.2,73.9 L257,83.8 L237.5,97.8 L147.3,75.3 L149.3,61.7 C149.4,60.8 149.7,60.1 150.1,59.5 C150.5,58.8 151.3,58.3 152.4,57.9 L153.9,57.5 C155.2,57.3 157.2,57.5 159.7,58.2 L177.6,62.7 L184.4,57.8 L184.4,57.8 Z M184.4,57.8" id="unit-1054"/>
    <path class="unit" fill="#fff" stroke="#ddd" stroke-width=".5" d="M300,94.6 L286.3,91.2 L277.3,89 L272.9,92.1 L280.1,94 L276,96.9 L291.4,100.8 L295.4,97.9 L300,94.6 L300,94.6 Z M300,94.6" id="unit-1055"/>
    <path class="unit" fill="#fff" stroke="#ddd" stroke-width=".5" d="M147.2,75.6 L237.2,98 L230.4,102.9 L146.2,81.9 L147.2,75.6 L147.2,75.6 Z M147.2,75.6" id="unit-1056"/>
    <path class="unit" fill="#fff" stroke="#ddd" stroke-width=".5" d="M277.3,110.9 L254.6,105.3 L263.9,98.7 L287.1,104.3 L277.3,110.9 L277.3,110.9 Z M277.3,110.9" id="unit-1057"/>
    <path class="unit" fill="#fff" stroke="#ddd" stroke-width=".5" d="M263.9,98.6 L268.4,95.4 L277.7,97.7 L273.2,100.9 L273.5,101 L263.9,98.6 L263.9,98.6 Z M263.9,98.6" id="unit-1058"/>
    <path class="unit" fill="#fff" stroke="#ddd" stroke-width=".5" d="M266.2,108.3 L262,111.3 L250.2,108.3 L254.3,105.3 L266.2,108.3 L266.2,108.3 Z M266.2,108.3" id="unit-1059"/>
    <path class="unit" fill="#fff" stroke="#ddd" stroke-width=".5" d="M354.7,81.3 L368.1,71.7 L402.4,80.3 L389.1,89.8 L397.3,91.8 L362.9,116.4 L309.6,103 L318.1,96.9 L279.6,87.3 L301.9,71.3 L342.7,65.3 L364.9,70.8 L351.5,80.4 L354.7,81.3 L354.7,81.3 Z M354.7,81.3" id="unit-1060"/>
    <path class="unit" fill="#fff" stroke="#ddd" stroke-width=".5" d="M250,108.5 L272.7,114.2 L268.6,117.1 L245.9,111.4 L250,108.5 L250,108.5 Z M250,108.5" id="unit-1061"/>
    <path class="unit" fill="#fff" stroke="#ddd" stroke-width=".5" d="M268.4,117.2 L260.6,122.8 L237.9,117.1 L245.7,111.5 L268.4,117.2 L268.4,117.2 Z M268.4,117.2" id="unit-1062"/>
    <path class="unit" fill="#fff" stroke="#ddd" stroke-width=".5" d="M146.1,82.1 L230.2,103 L223.2,108 L216.3,108.3 L144.9,90.5 L146.1,82.1 L146.1,82.1 Z M146.1,82.1" id="unit-1063"/>
    <path class="unit" fill="#fff" stroke="#ddd" stroke-width=".5" d="M237.7,117.2 L260.4,122.9 L256.1,126 L233.4,120.3 L237.7,117.2 L237.7,117.2 Z M237.7,117.2" id="unit-1064"/>
    <path class="unit" fill="#fff" stroke="#ddd" stroke-width=".5" d="M233.2,120.5 L255.9,126.1 L250.9,129.7 L228.2,124 L233.2,120.5 L233.2,120.5 Z M233.2,120.5" id="unit-1065"/>
    <path class="unit" fill="#fff" stroke="#ddd" stroke-width=".5" d="M250.7,129.8 L237.6,126.5 L228,124.1 L222.5,128 L232.1,130.5 L227.9,133.5 L241,136.8 L245.1,133.8 L250.7,129.8 L250.7,129.8 Z M250.7,129.8" id="unit-1066"/>
    <path class="unit" fill="#fff" stroke="#ddd" stroke-width=".5" d="M217.7,153.4 L195,147.7 L199.4,144.6 L222.1,150.3 L217.7,153.4 L217.7,153.4 Z M217.7,153.4" id="unit-1067"/>
    <path class="unit" fill="#fff" stroke="#ddd" stroke-width=".5" d="M238.1,137.8 L233.8,140.8 L223.8,138.3 L219.3,141.5 L207.7,138.6 L216.4,132.4 L238.1,137.8 L238.1,137.8 Z M238.1,137.8" id="unit-1068"/>
    <path class="unit" fill="#fff" stroke="#ddd" stroke-width=".5" d="M222.3,150.1 L199.6,144.4 L207.6,138.7 L230.3,144.4 L222.3,150.1 L222.3,150.1 Z M222.3,150.1" id="unit-1069"/>
    <path class="unit" fill="#fff" stroke="#ddd" stroke-width=".5" d="M200.8,153.2 L196.5,156.3 L190.6,154.9 L188.4,152.5 L190.8,150.8 L200.8,153.2 L200.8,153.2 Z M200.8,153.2" id="unit-1071"/>
    <path class="unit" fill="#fff" stroke="#ddd" stroke-width=".5" d="M256.5,97.3 L251.6,100.8 L245.9,99.4 L250.8,95.9 L256.5,97.3 L256.5,97.3 Z M256.5,97.3" id="unit-1074"/>
    <path class="unit" fill="#fff" stroke="#ddd" stroke-width=".5" d="M345.4,63.6 L370,69.9" id="unit-1075"/>
    <path class="unit" fill="#fff" stroke="#ddd" stroke-width=".5" d="M370,69.9 L368,71.5" id="unit-1076"/>
    <path class="unit" fill="#fff" stroke="#ddd" stroke-width=".5" d="M327.5,46 L354.4,53.1" id="unit-1077"/>
    <path class="unit" fill="#fff" stroke="#ddd" stroke-width=".5" d="M267,82.6 L271.9,79.1 L277.6,80.5 L272.7,84 L267,82.6 L267,82.6 Z M267,82.6" id="unit-1078"/>
    <path class="unit" fill="#fff" stroke="#ddd" stroke-width=".5" d="M267.9,61.4 L278,63.9 L269.3,70.1 L259.2,67.5 L267.9,61.4 L267.9,61.4 Z M267.9,61.4" id="unit-1079"/>
    <path class="unit" fill="#fff" stroke="#ddd" stroke-width=".5" d="M213.5,72.5 L213.7,72.6 L213.8,72.8 L213.7,73 L213.5,73.1 L213.3,73 L213.2,72.8 L213.3,72.6 L213.5,72.5 M217.4,73.7 L217.5,73.9 L217.4,74.1 L217.2,74.2 L217,74.1 L216.9,73.9 L217,73.7 L217.2,73.6 L217.4,73.7 M216.3,73.5 L216.2,73.7 L216,73.8 L215.8,73.7 L215.7,73.5 L215.8,73.3 L216,73.2 L216.2,73.3 L216.3,73.5 M214.9,72.9 L215,73.1 L214.9,73.3 L214.7,73.4 L214.5,73.3 L214.4,73.1 L214.5,72.9 L214.7,72.8 L214.9,72.9 M178.4,62.7 L178.6,62.8 L178.7,63 L178.6,63.2 L178.4,63.3 L178.2,63.2 L178.1,63 L178.2,62.8 L178.4,62.7 M181.1,63.5 L181.2,63.7 L181.1,63.9 L180.9,64 L180.7,63.9 L180.6,63.7 L180.7,63.5 L180.9,63.4 L181.1,63.5 M179.9,63.4 L179.8,63.6 L179.6,63.7 L179.4,63.6 L179.3,63.4 L179.4,63.2 L179.6,63.1 L179.8,63.2 L179.9,63.4 M193.7,67.1 L193.6,67.3 L193.4,67.4 L193.2,67.3 L193.1,67.1 L193.2,66.9 L193.4,66.8 L193.6,66.9 L193.7,67.1 M194.5,67.3 L194.7,67.2 L194.9,67.3 L195,67.5 L194.9,67.7 L194.7,67.8 L194.5,67.7 L194.4,67.5 L194.5,67.3 M196.2,67.7 L196.3,67.9 L196.2,68.1 L196,68.2 L195.8,68.1 L195.7,67.9 L195.8,67.7 L196,67.6 L196.2,67.7 M191.2,66.2 L191.3,66.4 L191.2,66.6 L191,66.7 L190.8,66.6 L190.7,66.4 L190.8,66.2 L191,66.1 L191.2,66.2 M189.5,65.9 L189.7,65.8 L189.9,65.9 L190,66.1 L189.9,66.3 L189.7,66.4 L189.5,66.3 L189.4,66.1 L189.5,65.9 M192,66.6 L192.2,66.5 L192.4,66.6 L192.5,66.8 L192.4,67 L192.2,67.1 L192,67 L191.9,66.8 L192,66.6 M197,68 L197.2,67.9 L197.4,68 L197.5,68.2 L197.4,68.4 L197.2,68.5 L197,68.4 L196.9,68.2 L197,68 M185.8,64.9 L186,64.8 L186.2,64.9 L186.3,65.1 L186.2,65.3 L186,65.4 L185.8,65.3 L185.7,65.1 L185.8,64.9 M187.2,65.1 L187.4,65.2 L187.5,65.4 L187.4,65.6 L187.2,65.7 L187,65.6 L186.9,65.4 L187,65.2 L187.2,65.1 M188.7,65.6 L188.8,65.8 L188.7,66 L188.5,66.1 L188.3,66 L188.2,65.8 L188.3,65.6 L188.5,65.5 L188.7,65.6 M183.7,64.4 L183.6,64.6 L183.4,64.7 L183.2,64.6 L183.1,64.4 L183.2,64.2 L183.4,64.1 L183.6,64.2 L183.7,64.4 M184.5,64.5 L184.7,64.4 L184.9,64.5 L185,64.7 L184.9,64.9 L184.7,65 L184.5,64.9 L184.4,64.7 L184.5,64.5 M182,63.8 C182.1,63.7 182.1,63.7 182.2,63.7 L182.4,63.8 L182.5,64 L182.4,64.2 L182.2,64.3 L182,64.2 L181.9,64 L182,63.8 M207,70.9 L207.1,70.7 L207.3,70.6 L207.5,70.7 L207.6,70.9 L207.5,71.1 L207.3,71.2 L207.1,71.1 L207,70.9 M206.2,70.8 L206,70.9 L205.8,70.8 L205.7,70.6 L205.8,70.4 L206,70.3 L206.2,70.4 L206.3,70.6 L206.2,70.8 M208.3,71.1 L208.5,71 L208.7,71.1 L208.8,71.3 L208.7,71.5 L208.5,71.6 L208.3,71.5 L208.2,71.3 L208.3,71.1 M209.5,71.4 L209.7,71.3 L209.9,71.4 L210,71.6 L209.9,71.8 L209.7,71.9 L209.5,71.8 L209.4,71.6 L209.5,71.4 M211,71.7 L211.2,71.8 L211.3,72 L211.2,72.2 L211,72.3 L210.8,72.2 L210.7,72 L210.8,71.8 L211,71.7 M212,72.1 L212.2,72 L212.4,72.1 L212.5,72.3 L212.4,72.5 L212.2,72.6 L212,72.5 L211.9,72.3 L212,72.1 M199.5,68.7 L199.7,68.6 L199.9,68.7 L200,68.9 L199.9,69.1 L199.7,69.2 L199.5,69.1 L199.4,68.9 L199.5,68.7 M200.8,69.1 L201,69 L201.2,69.1 L201.3,69.3 L201.2,69.5 L201,69.6 L200.8,69.5 L200.7,69.3 L200.8,69.1 M198.7,68.4 L198.8,68.6 L198.7,68.8 L198.5,68.9 L198.3,68.8 L198.2,68.6 L198.3,68.4 L198.5,68.3 L198.7,68.4 M203.3,69.7 L203.5,69.6 L203.7,69.7 L203.8,69.9 L203.7,70.1 L203.5,70.2 L203.3,70.1 L203.2,69.9 L203.3,69.7 M204.9,70.1 L205,70.3 L204.9,70.5 L204.7,70.6 L204.5,70.5 L204.4,70.3 L204.5,70.1 L204.7,70 L204.9,70.1 M202,69.4 L202.2,69.3 L202.4,69.4 L202.5,69.6 L202.4,69.8 L202.2,69.9 L202,69.8 L201.9,69.6 L202,69.4" id="unit-1080"/>
    <path class="unit" fill="#fff" stroke="#ddd" stroke-width=".5" d="M125.5,151.7 L130.6,148.1 L114.1,144 L102.9,152 L150.7,164 L156.6,159.8 L125.3,151.9 L125.5,151.7 L125.5,151.7 Z M125.5,151.7" id="unit-1081"/>
    <path class="unit" fill="#fff" stroke="#ddd" stroke-width=".5" d="M156.9,159.6 L162,155.9 L157.2,154.7 L130.9,148.1 L125.8,151.7 L156.9,159.6 L156.9,159.6 Z M156.9,159.6" id="unit-1082"/>
    <path class="unit" fill="#fff" stroke="#ddd" stroke-width=".5" d="M194.8,147.9 L217.6,153.6 L209.4,159.4 L196.8,156.3 L201.4,153 L191.2,150.5 L194.8,147.9 L194.8,147.9 Z M194.8,147.9" id="unit-1083"/>
    <path class="unit" fill="#fff" stroke="#ddd" stroke-width=".5" d="M258.8,149.4 L281.7,155.1 L263,168.5 L239.1,162.6 L248,156.2 L226.7,151 L232.9,146.6 L255,152 L258.8,149.4 L258.8,149.4 Z M258.8,149.4" id="unit-1084"/>
    <path class="unit" fill="#fff" stroke="#ddd" stroke-width=".5" d="M228,160 L238.6,162.6 L247.3,156.3 L236.8,153.7 L228,160 L228,160 Z M228,160" id="unit-1085"/>
    <path class="unit" fill="#fff" stroke="#ddd" stroke-width=".5" d="M240.5,177.4 L224,173.4 L207.7,185.1 L223.9,189.3 L240.5,177.4 L240.5,177.4 Z M240.5,177.4" id="unit-1086"/>
    <path class="unit" fill="#fff" stroke="#ddd" stroke-width=".5" d="M206.6,169 L223.8,173.3 L207.4,185 L190.2,180.8 L206.6,169 L206.6,169 Z M206.6,169" id="unit-1087"/>
    <path class="unit" fill="#fff" stroke="#ddd" stroke-width=".5" d="M195.5,140.4 L190.6,143.9 L184.9,142.5 L189.8,139 L195.5,140.4 L195.5,140.4 Z M195.5,140.4" id="unit-1088"/>
    <path class="unit" fill="#fff" stroke="#ddd" stroke-width=".5" d="M214.8,126.9 L209.9,130.4 L204.2,129 L209.1,125.5 L214.8,126.9 L214.8,126.9 Z M214.8,126.9" id="unit-1089"/>
    <path class="unit" fill="#fff" stroke="#ddd" stroke-width=".5" d="M272.7,92.3 L279.6,94.1 L275.7,96.9 L268.7,95.1 L272.7,92.3 L272.7,92.3 Z M272.7,92.3" id="unit-1090"/>
    <path class="unit" fill="#fff" stroke="#ddd" stroke-width=".5" d="M222.3,128.2 L218.3,131.1 L227.6,133.4 L231.6,130.6 L222.3,128.2 L222.3,128.2 Z M222.3,128.2" id="unit-1091"/>
    <path class="unit" fill="#fff" stroke="#ddd" stroke-width=".5" d="M236.5,153.6 L226.4,151.1 L217.7,157.4 L227.8,159.9 L236.5,153.6 L236.5,153.6 Z M236.5,153.6" id="unit-1092"/>
    <path class="unit" fill="#fff" stroke="#ddd" stroke-width=".5" d="M224.2,189.3 L240.7,193.6 L257.8,181.5 L240.8,177.4 L224.2,189.3 L224.2,189.3 Z M224.2,189.3" id="unit-1093"/>
    <path class="unit" fill="#fff" stroke="#ddd" stroke-width=".5" d="M233.5,166 L228.6,169.5 L222.9,168.1 L227.8,164.6 L233.5,166 L233.5,166 Z M233.5,166" id="unit-1094"/>
    <path class="unit" fill="#fff" stroke="#ddd" stroke-width=".5" d="M153.9,170.2 L148.1,168.9 L153.1,165.4 L158.8,166.8 L153.9,170.2 Z M153.9,170.2" id="unit-1095"/>
  </g>
</svg>
