<svg width="504" height="715" id="svg-map" class="map">
	

	<g class="assets">
		
	</g>

	
		<g transform="translate(32,100) scale(1)">
		
		
			<path d="m 427.271,44.46 -2.538,-4.052 c -0.183,-0.283 -0.443,-0.496 -0.755,-0.608 -0.147,-0.104 -0.315,-0.181 -0.493,-0.225 l -35.365,-8.833 0.021,-1.95 c 0.011,-0.675 -0.438,-1.271 -1.09,-1.451 l -0.131,-0.035 c -0.125,-0.08 -0.26,-0.142 -0.404,-0.183 L 362.275,20.38 c -0.426,-0.117 -0.875,-0.042 -1.237,0.205 -0.045,0.024 -0.088,0.054 -0.131,0.083 l -1.322,0.943 -4.707,-1.171 0.006,-0.629 c 0.008,-0.663 -0.424,-1.25 -1.059,-1.439 l -0.072,-0.021 c -0.137,-0.104 -0.293,-0.183 -0.463,-0.232 L 302.581,2.944 294.589,0.256 c -0.242,-0.08 -0.512,-0.088 -0.771,-0.032 -0.229,0.034 -0.444,0.121 -0.639,0.258 l -20.099,14.305 -6.686,1.527 c -0.191,0.044 -0.375,0.126 -0.535,0.24 l -0.146,0.104 c -0.039,0.021 -0.074,0.047 -0.111,0.073 l -16.812,12 -55.408,-13.813 c -0.348,-0.086 -0.709,-0.044 -1.022,0.111 -0.125,0.046 -0.243,0.106 -0.354,0.188 l -19.582,13.979 c -0.387,0.274 -0.616,0.72 -0.623,1.194 l -0.036,3.445 c -0.011,0.688 0.457,1.292 1.125,1.459 l 18.271,4.56 -18.185,12.956 -10.611,-2.625 c -2.613,-0.662 -4.62,-0.882 -6.165,-0.677 -0.053,0.008 -0.104,0.017 -0.156,0.029 l -1.401,0.341 c -0.051,0.013 -0.101,0.027 -0.15,0.045 -0.397,0.144 -0.775,0.319 -1.118,0.518 -0.93,0.468 -1.667,1.062 -2.192,1.77 -0.059,0.079 -0.109,0.167 -0.15,0.26 l -0.196,0.292 c -0.074,0.11 -0.132,0.23 -0.174,0.356 l -0.222,0.529 c -0.035,0.082 -0.062,0.174 -0.082,0.271 l -0.075,0.225 c -0.026,0.079 -0.046,0.16 -0.059,0.243 l -3.711,24.243 c -0.011,0.075 -0.017,0.149 -0.017,0.226 l 0,3.446 c 0,0.684 0.465,1.278 1.127,1.443 l 19.707,4.907 0,1.414 c 0,0.403 0.164,0.778 0.436,1.052 l -13.061,9.327 -0.186,0.134 c -0.111,0.043 -0.218,0.103 -0.316,0.172 l -8.368,5.965 c -0.031,0.008 -0.062,0.015 -0.093,0.021 l -0.152,0.037 c -0.395,0.098 -0.727,0.35 -0.928,0.688 -0.387,0.102 -0.711,0.351 -0.909,0.684 -0.387,0.102 -0.712,0.348 -0.91,0.682 -0.381,0.102 -0.702,0.344 -0.9,0.67 l -0.022,0.017 c -0.352,0.095 -0.651,0.312 -0.849,0.604 l -0.143,0.104 c -0.287,0.096 -0.535,0.271 -0.714,0.51 l -0.306,0.217 c -0.177,0.08 -0.339,0.197 -0.476,0.342 l -0.576,0.41 c -0.092,0.053 -0.179,0.113 -0.258,0.184 l -0.432,0.31 c -0.291,0.097 -0.541,0.276 -0.721,0.517 l -8.851,6.312 c -0.386,0.274 -0.618,0.722 -0.624,1.192 l -0.038,3.445 c -0.007,0.688 0.459,1.293 1.127,1.459 l 19.821,4.938 -1.527,1.088 -0.142,0.087 c -0.033,0.02 -0.065,0.04 -0.096,0.062 l -1.336,0.957 -3.078,-0.771 c -0.355,-0.09 -0.729,-0.042 -1.05,0.125 -0.12,0.047 -0.234,0.105 -0.34,0.188 l -1.268,0.918 -5.563,-1.383 c -0.359,-0.088 -0.735,-0.041 -1.057,0.133 -0.112,0.043 -0.22,0.103 -0.32,0.172 l -4.47,3.183 c -0.294,0.21 -0.499,0.517 -0.583,0.858 l -11.841,-2.873 c -0.421,-0.104 -0.87,-0.016 -1.222,0.24 l -1.78,1.287 c -0.469,0.34 -0.698,0.92 -0.588,1.485 0.11,0.567 0.539,1.021 1.1,1.16 l 14.882,3.713 c 0.034,0.022 0.068,0.046 0.103,0.065 l -5.584,4.002 -4.477,-1.114 0.028,-2.599 c 0.007,-0.688 -0.458,-1.293 -1.127,-1.459 l -0.053,-0.016 c -0.141,-0.097 -0.3,-0.168 -0.471,-0.21 l -15.454,-3.864 c -0.407,-0.104 -0.836,-0.025 -1.184,0.204 -0.055,0.029 -0.107,0.062 -0.159,0.101 l -8.826,6.287 c -0.392,0.277 -0.624,0.729 -0.624,1.211 l 0,3.447 c 0,0.684 0.464,1.276 1.126,1.441 l 2.028,0.508 -6.785,4.846 -3.418,-0.85 c -0.409,-0.102 -0.837,-0.023 -1.186,0.207 -0.054,0.027 -0.106,0.062 -0.157,0.098 l -9.243,6.592 c -0.32,0.229 -0.534,0.57 -0.601,0.951 -0.307,-0.041 -0.619,0.018 -0.893,0.161 -0.114,0.046 -0.223,0.104 -0.324,0.177 l -50.229,35.834 c -0.391,0.278 -0.623,0.729 -0.623,1.211 l 0,3.408 0,0.026 -1.346,0.958 c -0.392,0.277 -0.625,0.729 -0.625,1.211 l 0,3.447 c 0,0.279 0.079,0.554 0.227,0.789 l 1.706,2.726 c 0.056,0.091 0.122,0.173 0.196,0.249 l 0.075,0.077 c 0.192,0.196 0.437,0.338 0.704,0.403 l 42.688,10.683 c 0.17,0.044 0.344,0.058 0.518,0.035 l 6.78,-0.718 c 0.256,-0.026 0.5,-0.121 0.709,-0.271 l 5.719,-4.1 5.723,1.438 -0.007,0.639 c -0.007,0.688 0.459,1.293 1.128,1.461 l 29.697,7.388 c 0.118,0.026 0.239,0.043 0.359,0.043 0.306,0 0.607,-0.097 0.862,-0.274 l 9.052,-6.438 c 0.393,-0.278 0.625,-0.73 0.625,-1.213 l 0,-1.125 8.323,-5.918 3.96,0.984 c 0.057,0.016 0.114,0.024 0.173,0.031 l 68.885,8.711 0.021,0.006 c 0.424,0.107 0.877,0.024 1.231,-0.229 l 31.896,-22.768 c 0.394,-0.279 0.623,-0.729 0.623,-1.211 l 0,-3.445 c 0,-0.74 -0.543,-1.367 -1.274,-1.474 l -0.037,-0.005 c -0.162,-0.095 -0.344,-0.156 -0.532,-0.186 l -4.253,-0.598 0,-0.81 c 0,-0.718 -0.51,-1.328 -1.207,-1.462 -0.168,-0.102 -0.354,-0.17 -0.553,-0.197 l -13.188,-1.96 -8.322,-2.063 c -0.075,-0.596 -0.506,-1.094 -1.096,-1.248 l -0.02,-0.006 c -0.053,-0.035 -0.105,-0.068 -0.162,-0.1 l 0,-0.92 c 0,-0.289 -0.084,-0.562 -0.23,-0.797 l 0.215,-0.151 c 0.388,-0.274 0.617,-0.72 0.623,-1.192 l 0.033,-2.914 24.969,5.675 c 0.41,0.093 0.853,0.007 1.197,-0.242 l 2.688,-1.935 c 0.391,-0.276 0.619,-0.729 0.619,-1.207 l 0,-0.221 14.684,-10.504 c 0.387,-0.273 0.615,-0.718 0.621,-1.191 l 0.039,-3.41 c 0.008,-0.682 -0.453,-1.281 -1.111,-1.453 -0.16,-0.123 -0.348,-0.217 -0.551,-0.266 L 235,159.467 258.574,142.642 c 0.387,-0.274 0.617,-0.72 0.623,-1.192 l 0.039,-3.443 c 0.008,-0.688 -0.455,-1.291 -1.121,-1.459 l -0.072,-0.02 c -0.062,-0.042 -0.127,-0.078 -0.194,-0.107 0.347,-0.277 0.551,-0.698 0.558,-1.146 l 0.036,-3.443 c 0.009,-0.688 -0.461,-1.291 -1.129,-1.459 l -0.062,-0.017 c -0.143,-0.095 -0.299,-0.165 -0.469,-0.207 l -6.768,-1.688 26.816,-19.147 c 0.387,-0.272 0.617,-0.72 0.623,-1.188 l 0.016,-1.127 1.291,0.313 c 0.418,0.104 0.861,0.017 1.215,-0.233 l 8.938,-6.361 c 0.393,-0.276 0.625,-0.729 0.625,-1.211 l 0,-3.446 c 0,-0.361 -0.131,-0.698 -0.353,-0.96 0.117,-0.045 0.229,-0.104 0.334,-0.182 l 5.959,-4.261 8.69,2.146 c 0.414,0.104 0.856,0.021 1.209,-0.227 l 0.582,-0.406 2.029,0.5 -2.055,1.455 c -0.393,0.279 -0.625,0.73 -0.625,1.213 l 0,3.443 c 0,0.684 0.467,1.278 1.127,1.442 l 49.547,12.353 c 0.422,0.104 0.867,0.02 1.221,-0.23 l 2.437,-1.729 2.063,0.518 c 0.422,0.105 0.869,0.021 1.224,-0.229 l 30.72,-21.896 c 0.389,-0.273 0.618,-0.718 0.625,-1.192 l 0.039,-3.446 c 0.008,-0.689 -0.459,-1.294 -1.13,-1.46 L 393.1,82.892 c -0.139,-0.089 -0.286,-0.156 -0.452,-0.197 l -0.67,-0.169 33.34,-23.778 c 0.387,-0.275 0.619,-0.72 0.623,-1.193 l 0.037,-3.446 c 0.008,-0.687 -0.455,-1.288 -1.119,-1.457 l -0.099,-0.023 c -0.135,-0.09 -0.285,-0.157 -0.448,-0.198 l -0.726,-0.182 3.277,-2.323 c 0.393,-0.278 0.627,-0.729 0.627,-1.213 l 0,-3.46 c 0.01,-0.283 -0.068,-0.556 -0.219,-0.793 l 0,0 z m -220.919,131.561 -0.715,-0.181 c 0.242,0.043 0.484,0.025 0.717,-0.047 l -0.002,0.228 0,0 z m 0,0" id="path3447" class="outline"
		stroke="none"
		fill="#f68b1f"
		stroke-width="0.5"
		/>
		
			<path d="m 8.206,116.556 c -0.368,0 -0.624,0.257 -0.624,0.656 l 0,8.756 c -0.833,0.544 -2.017,0.769 -2.737,0.769 -1.857,0 -2.993,-0.912 -2.993,-2.978 l 0,-6.547 c 0,-0.399 -0.256,-0.656 -0.608,-0.656 -0.352,0 -0.624,0.257 -0.624,0.656 l 0,6.788 c 0,2.337 1.457,3.938 3.985,3.938 1.809,0 2.849,-0.48 3.778,-1.008 0.352,-0.209 0.432,-0.48 0.432,-0.865 l 0,-8.852 c -10e-4,-0.4 -0.257,-0.657 -0.609,-0.657 l 0,0 z m 14.526,-0.063 c -1.008,0 -1.761,0.112 -2.273,0.271 -0.4,0.129 -0.512,0.368 -0.512,0.769 l 0,9.7 c 0,0.4 0.256,0.641 0.608,0.641 0.352,0 0.624,-0.24 0.624,-0.641 l 0,-3.617 c 0.528,0.031 0.833,0.048 1.473,0.048 2.881,0 4.402,-1.393 4.402,-3.666 0,-2.017 -1.329,-3.505 -4.322,-3.505 l 0,0 z m -0.144,6.002 c -0.592,0 -0.88,0 -1.409,-0.031 l 0,-4.675 c 0.448,-0.063 0.993,-0.128 1.521,-0.128 2.273,0 3.089,1.089 3.089,2.369 0,1.312 -0.704,2.465 -3.201,2.465 l 0,0 z M 13.9,116.493 c -1.008,0 -1.761,0.112 -2.273,0.271 -0.4,0.129 -0.512,0.368 -0.512,0.769 l 0,9.7 c 0,0.4 0.256,0.641 0.608,0.641 0.352,0 0.624,-0.24 0.624,-0.641 l 0,-3.617 c 0.528,0.031 0.833,0.048 1.473,0.048 2.881,0 4.402,-1.393 4.402,-3.666 0,-2.017 -1.328,-3.505 -4.322,-3.505 l 0,0 z m -0.144,6.002 c -0.592,0 -0.88,0 -1.409,-0.031 l 0,-4.675 c 0.448,-0.063 0.993,-0.128 1.521,-0.128 2.273,0 3.089,1.089 3.089,2.369 10e-4,1.312 -0.704,2.465 -3.201,2.465 l 0,0 z m 64.976,4.13 -4.306,0 0,-9.412 c 0,-0.399 -0.256,-0.656 -0.608,-0.656 -0.352,0 -0.624,0.257 -0.624,0.656 l 0,9.637 c 0,0.592 0.368,0.96 1.057,0.96 l 4.481,0 c 0.4,0 0.656,-0.272 0.656,-0.608 0,-0.305 -0.24,-0.577 -0.656,-0.577 l 0,0 z M 68.62,118.029 c -0.624,-1.248 -1.12,-1.616 -1.681,-1.616 -0.56,0 -1.056,0.368 -1.681,1.616 -0.896,1.809 -1.584,4.082 -2.753,8.708 -0.064,0.224 -0.096,0.4 -0.096,0.512 0,0.385 0.256,0.625 0.608,0.625 0.288,0 0.496,-0.177 0.576,-0.513 0.304,-1.377 0.608,-2.609 0.913,-3.665 l 4.866,0 c 0.288,1.056 0.592,2.288 0.913,3.665 0.08,0.336 0.288,0.513 0.576,0.513 0.352,0 0.608,-0.24 0.608,-0.625 0,-0.111 -0.048,-0.288 -0.096,-0.512 -1.136,-4.626 -1.856,-6.9 -2.753,-8.708 l 0,0 z m -3.793,4.546 c 0.736,-2.449 1.393,-3.97 1.905,-4.77 0.048,-0.064 0.096,-0.128 0.208,-0.128 0.112,0 0.16,0.063 0.208,0.128 0.512,0.8 1.152,2.32 1.889,4.77 l -4.21,0 0,0 z m 21.521,4.05 -4.306,0 0,-9.412 c 0,-0.399 -0.256,-0.656 -0.608,-0.656 -0.353,0 -0.625,0.257 -0.625,0.656 l 0,9.637 c 0,0.592 0.368,0.96 1.057,0.96 l 4.481,0 c 0.4,0 0.656,-0.272 0.656,-0.608 0.001,-0.305 -0.239,-0.577 -0.655,-0.577 l 0,0 z m -43.519,-2.929 c -0.288,-0.417 -0.608,-0.736 -0.977,-0.977 1.425,-0.496 2.353,-1.489 2.353,-3.01 0,-1.937 -1.312,-3.217 -4.209,-3.217 -1.104,0 -1.857,0.112 -2.369,0.271 -0.4,0.129 -0.512,0.368 -0.512,0.769 l 0,9.7 c 0,0.4 0.272,0.641 0.625,0.641 0.352,0 0.624,-0.24 0.624,-0.641 l 0,-4.178 1.249,0 c 1.168,0 1.633,0.48 2.209,1.408 0.4,0.641 0.816,1.569 1.312,2.962 0.096,0.256 0.272,0.448 0.608,0.448 0.336,0 0.625,-0.24 0.625,-0.625 0,-0.111 -0.032,-0.271 -0.096,-0.432 -0.434,-1.15 -0.946,-2.352 -1.442,-3.119 l 0,0 z m -3.026,-1.858 -1.44,0 0,-4.033 c 0.448,-0.064 0.88,-0.128 1.569,-0.128 2.289,0 3.009,0.896 3.009,2.081 -0.001,1.649 -1.553,2.128 -3.138,2.08 l 0,0 z m -5.022,4.754 -4.77,0 0,-3.857 3.874,0 c 0.384,0 0.592,-0.32 0.592,-0.592 0,-0.288 -0.208,-0.576 -0.592,-0.576 l -3.874,0 0,-3.729 4.61,0 c 0.416,0 0.64,-0.272 0.64,-0.576 0,-0.337 -0.224,-0.641 -0.64,-0.641 l -4.786,0 c -0.688,0 -1.057,0.368 -1.057,0.96 l 0,9.269 c 0,0.592 0.368,0.96 1.057,0.96 l 4.946,0 c 0.384,0 0.608,-0.336 0.608,-0.608 0,-0.337 -0.224,-0.61 -0.608,-0.61 l 0,0 z m 25.281,-8.739 c -0.112,-0.832 -0.4,-1.297 -1.056,-1.297 -0.625,0 -0.896,0.368 -1.073,0.833 -0.816,2.209 -1.712,5.042 -2.689,7.667 l -0.016,0 c -1.008,-2.481 -1.792,-5.09 -2.817,-7.523 -0.224,-0.608 -0.496,-0.977 -1.121,-0.977 -0.656,0 -0.96,0.448 -1.056,1.329 -0.353,2.929 -0.544,6.099 -0.528,9.348 -0.016,0.384 0.224,0.641 0.576,0.641 0.352,0 0.624,-0.225 0.624,-0.656 -0.016,-3.073 0.176,-6.051 0.513,-9.044 l 0.016,0 c 0.977,2.625 1.921,5.266 2.961,7.891 0.128,0.337 0.4,0.576 0.816,0.576 0.4,0 0.704,-0.239 0.832,-0.576 1.024,-2.545 1.905,-5.25 2.833,-7.891 l 0.016,0 c 0.417,3.025 0.576,6.002 0.656,8.979 0,0.448 0.224,0.721 0.641,0.721 0.352,0 0.576,-0.288 0.576,-0.673 0,-0.128 -0.016,-0.368 -0.016,-0.48 -0.031,-3.042 -0.287,-6.098 -0.688,-8.868 l 0,0 z m 0,0" id="path3451" class="Shape"
		stroke="none"
		fill="#f68b1f"
		stroke-width="0.5"
		/>
		
			<path d="m 337.109,42.94 -47.424,33.826 -1.629,-0.417 -106.177,75.72 21.742,5.417 2.461,-1.78 21.479,5.381 -4.733,3.369 -39.32,-9.811 -6.361,0.833 -33.485,23.864 -4.924,-1.213 -2.917,2.082 -11.364,1.211 -16.97,12.084 3.296,5.113 -4.243,3.029 1.25,0.342 -1.099,0.799 12.5,3.104 5.341,-3.826 7.729,1.896 -5.342,3.861 8.258,2.047 -11.667,8.295 -4.091,-1.021 10.19,-7.271 -25.228,-6.289 -19.053,13.602 -9.812,-2.463 23.182,-16.518 -3.56,-5.605 64.205,-45.794 -45.265,-11.288 1.78,-1.287 46.856,11.363 57.236,-40.834 -16.971,-4.242 3.9,-2.805 16.854,4.205 46.935,-33.485 -7.312,-1.816 4.244,-3.031 -2.845,-0.719 4.355,-3.104 -3.6,-0.909 23.371,-16.667 26.174,6.516 38.068,-27.159 8.676,2.159 -23.822,17.006 -0.868,2.23" id="path3459" class="walkway"
		stroke="none"
		fill="#808285"
		stroke-width="0.5"
		/>
		
			<path d="m 386.618,31.993 36.854,9.205 2.541,4.052 0,3.446 -5.981,4.243 4.469,1.138 -0.037,3.445 -36.061,25.72 4.432,1.1 -0.039,3.446 -30.719,21.895 -2.73,-0.683 -2.992,2.121 -49.547,-12.353 0,-3.442 4.697,-3.334 -5.834,-1.441 -1.137,0.798 -9.354,-2.312 -6.518,4.657 -10.492,-2.612 -0.035,1.816 -0.684,0.494 10.604,2.648 0,3.449 -8.938,6.36 -3.104,-0.759 -0.039,2.994 -29.547,21.098 10.529,2.613 -0.035,3.445 -2.613,1.855 3.445,0.873 -0.039,3.443 -26.324,18.787 22.312,5.568 -0.039,3.408 -15.306,10.947 0,0.984 -2.688,1.934 -27.84,-6.328 0.037,-3.445 15.868,-11.364 -17.571,-4.392 -0.984,0.718 13.75,3.446 -0.037,3.41 -12.992,9.286 -3.562,-0.871 0,1.631 -1.553,1.138 8.104,2.006 -0.039,3.449 -2.388,1.702 1.781,0.455 0,2.119 1.287,0.342 0,1.062 9.658,2.425 13.6,2.01 0,2.194 6.099,0.871 0,3.445 -31.894,22.769 -0.152,-0.037 0,-0.039 -0.038,0.039 -68.901,-8.713 -8.068,-2.01 0,1.213 -6.629,4.696 0.568,0.151 0,3.445 -9.053,6.438 -29.697,-7.387 0.038,-3.445 8.863,-6.324 0.19,-0.111 10.19,-7.273 1.969,0.455 0,-2.272 2.803,-1.969 -1.818,-2.767 0.038,-3.447 17.045,-12.158 11.364,-1.176 2.992,-2.157 4.924,1.249 8.788,-6.288 0.189,-0.11 24.396,-17.466 4.619,-0.567 0.039,-2.727 14.203,-10.152 0.188,-0.111 17.992,-12.842 0.188,-0.112 6.211,-4.433 1.325,0.303 0,-1.285 2.88,-2.049 0.19,-0.112 13.825,-9.888 0.188,-0.112 3.898,-2.804 0.19,-0.112 26.97,-19.242 1.895,0.454 0,-1.817 16.176,-11.553 1.668,0.417 47.271,-33.75 0.909,-2.197 23.94,-17.084 24.886,6.896 -0.027,3.218 m 36.476,12.727 -40.34,-10.038 0.037,-3.334 -20.943,-5.832 -23.715,16.933 -0.908,2.233 -47.463,33.899 -1.666,-0.415 -5.684,4.052 22.008,5.493 1.139,-0.833 10.037,2.501 -0.037,3.445 -4.66,3.334 45.344,11.322 2.99,-2.156 2.729,0.682 26.742,-19.052 -4.396,-1.099 0.039,-3.447 36.062,-25.721 -4.474,-1.137 0,-3.446 8.187,-5.796 -1.028,-1.588 m -131.817,43.332 -12.651,-3.142 -2.728,1.969 12.647,3.146 2.732,-1.973 m -21.743,3.372 4.055,0.984 0.492,-0.342 -4.054,-1.021 -0.493,0.379 m 2.386,15.832 -18.219,-4.543 -0.341,0.226 18.218,4.546 0.342,-0.229 m -6.363,-12.99 18.221,4.505 0.188,-0.11 -18.219,-4.545 -0.19,0.15 m 14.432,7.195 -18.22,-4.506 -0.985,0.719 18.182,4.508 1.023,-0.721 m -12.158,8.713 -18.224,-4.545 -2.801,1.97 18.219,4.545 2.806,-1.97 m -72.163,33.942 39.319,9.811 0.494,-0.381 -39.319,-9.812 -0.494,0.382 m 47.047,-33.602 18.221,4.546 0.344,-0.228 -18.223,-4.547 -0.342,0.229 m -14.013,10.001 2.955,0.759 -0.041,2.726 12.465,3.106 4.203,-2.991 -18.222,-4.548 -1.36,0.948 m -10.608,7.577 32.312,8.066 2.424,-1.74 -32.273,-8.069 -2.463,1.743 m -10.19,7.31 22.767,5.685 -0.037,3.406 -4.355,3.146 12.992,3.218 14.396,-10.267 -39.317,-9.812 -6.446,4.624 m 18.677,8.296 -22.465,-5.607 -4.166,2.955 22.428,5.605 4.203,-2.953 m 30.605,-25.949 -18.221,-4.543 -5.111,3.672 18.221,4.547 5.111,-3.676 m -132.615,65.457 -15.341,10.906 1.742,2.729 13.523,3.371 2.689,-1.933 8.03,2.009 0,3.444 -4.47,3.224 7.349,1.816 68.75,8.711 27.465,-19.619 -3.826,-0.531 0.039,-2.232 -11.518,-1.706 -11.101,-2.765 0,-1.062 -2.424,-0.604 0,-2.155 -3.106,-0.761 0,-3.448 2.424,-1.704 -8.104,-2.01 0,-3.446 1.594,-1.137 -1.934,-0.455 -1.816,1.29 -3.939,-0.986 -8.067,5.761 -3.334,-0.834 -14.354,10.264 -29.054,-7.311 -11.217,1.174 m -26.592,26.779 21.365,5.344 6.439,-4.584 -21.363,-5.341 -6.441,4.581 m -8.825,6.327 25.456,6.326 5.076,-3.601 -0.228,-0.076 -25.227,-6.289 -5.077,3.64 m 35.455,-12.424 -3.068,2.157 5.113,1.287 0,-1.213 1.78,-1.287 -3.825,-0.944 m -13.75,-3.448 -1.629,1.139 9.887,2.461 1.592,-1.137 -9.85,-2.463 m 125.948,-22.953 12.803,-9.13 -21.971,-5.456 -15.643,11.139 23.562,5.342 1.248,-0.871 10e-4,-1.024 m -21.932,-24.964 -19.584,-4.885 0,1.815 13.065,3.258 6.519,-0.188 m -10.794,2.765 -11.213,-2.805 0.039,-1.816 -4.775,-1.176 -2.422,1.704 17.838,4.472 0.533,-0.379 m 2.157,15.114 -35.149,-8.749 -2.312,1.629 19.281,4.812 1.855,-1.325 15.871,3.978 0.454,-0.345 m 8.598,-6.136 -31.363,-7.805 -6.213,0.795 -2.422,1.705 35.15,8.75 4.848,-3.445 m -37.763,10.531 -18.107,-4.51 -2.501,1.779 18.107,4.51 2.501,-1.779 m 6.021,-4.281 -18.104,-4.546 -2.236,1.628 18.07,4.51 2.27,-1.592 m -0.681,5.758 7.994,-5.758 -0.38,-0.075 -2.653,1.854 -1.174,-0.303 -5.377,3.861 1.59,0.421 m -31.971,0.111 18.072,4.511 2.271,-1.63 -18.069,-4.51 -2.274,1.629 m -5.87,4.207 20.228,5.037 2.121,-1.518 -20.266,-5.035 -2.083,1.516" id="path3461" class="wall"
		stroke="none"
		fill="#989898"
		stroke-width="0.5"
		/>
		
			<path d="M 353.359,23.242 315.103,50.514 288.928,44 l -19.395,13.862 -0.188,0.113 0.073,0.038 -0.039,3.446 -1.514,1.062 -0.039,2.766 -0.646,0.455 3.75,0.946 -0.039,3.446 -47.119,33.6 -27.424,-6.815 0,1.097 0.981,-0.72 22.881,5.721 -0.039,3.408 -57.423,40.982 -3.181,-0.756 0,1.854 -38.486,27.428 -1.779,-0.418 -0.038,1.705 -22.425,16.021 2.083,3.219 -0.038,3.447 -27.652,19.811 -6.78,0.72 -42.689,-10.683 -0.075,-0.078 -1.706,-2.725 0,-3.447 2.765,-1.969 -0.795,-0.229 0,-3.41 50.228,-35.834 1.817,0.418 0,-1.706 9.244,-6.591 4.091,1.021 10.076,-7.197 -5.152,-1.286 0,-3.448 8.826,-6.285 16.098,4.016 -0.038,3.447 -0.454,0.34 6.627,1.629 8.827,-6.324 -2.69,-0.646 0.038,-3.445 4.471,-3.183 6.288,1.554 1.932,-1.4 3.788,0.945 2.009,-1.438 0.188,-0.112 4.205,-2.994 -22.956,-5.719 0.038,-3.447 25.606,-18.258 0.076,0 15.909,-11.363 -2.233,-0.528 0,-2.576 -20.833,-5.188 0,-3.446 3.711,-24.243 0.113,-0.341 0,-0.038 0.227,-0.531 0.038,-0.112 0.304,-0.455 0,-0.04 c 0.505,-0.681 1.289,-1.226 2.349,-1.628 l 1.136,-0.268 0.417,-0.074 0.075,0 0.758,-0.076 0.984,0 0.113,0.038 1.251,0.112 0.038,0 0.758,0.152 0.151,0 0.303,0.074 0.077,0 12.386,3.069 21.478,-15.305 -21.399,-5.341 0.039,-3.445 19.582,-13.979 56.139,13.978 17.463,-12.462 7.086,-1.667 20.488,-14.583 8.297,2.804 51.06,15.302 -0.041,3.448 m -59.241,-17.877 -20.304,14.47 -7.121,1.667 -13.825,9.887 22.575,5.605 0,0.038 39.545,9.811 34.435,-24.545 -47.351,-14.242 -7.954,-2.691 m -9.054,37.688 -9.851,-2.462 -1.176,0.833 9.812,2.463 1.215,-0.834 m -13.712,-3.447 -78.369,-19.544 -15.645,11.173 92.084,22.956 10.682,-7.612 -10.188,-2.538 0.039,-3.447 1.397,-0.988 m -5.719,17.272 -67.086,-16.742 -25.262,18.03 -13.905,-3.371 -0.151,0 -0.038,-0.038 -0.644,-0.038 -0.114,-0.038 -1.401,-0.038 -1.25,0.151 -0.076,0.038 -0.757,0.189 -1.327,0.682 -0.038,0.038 -0.417,0.341 -0.075,0.075 -0.378,0.454 -0.53,1.022 -0.19,0.606 -3.144,20.644 23.183,5.758 -0.039,2.574 51.668,12.882 43.145,-30.797 -3.748,-0.947 0.037,-3.446 1.4,-0.985 0,-2.728 0.795,-0.567 -0.076,-0.038 0.039,-3.445 0.379,-0.266 m -80.267,45.721 6.896,-4.925 -19.166,-4.812 -14.092,10.038 45.112,11.252 3.6,-2.539 -22.385,-5.604 0.035,-3.41 m 11.629,-1.326 18.676,4.658 0.455,-0.343 -18.676,-4.656 -0.455,0.341 m -4.203,2.991 18.713,4.658 0.416,-0.303 -18.674,-4.658 -0.455,0.303 m -42.501,4.811 45.15,11.287 4.927,-3.523 -45.191,-11.248 -4.886,3.484 m 9.735,18.56 18.674,4.66 0.491,-0.342 -18.673,-4.66 -0.492,0.342 m 4.244,-3.029 18.713,4.66 0.49,-0.342 -18.711,-4.659 -0.492,0.341 m -12.2,8.713 18.677,4.66 0.188,-0.15 -18.673,-4.66 -0.192,0.15 m -11.741,4.697 -6.25,-1.555 -0.493,0.379 2.576,0.645 1.174,-0.035 25.303,6.324 0.417,-0.302 -2.16,-0.533 0.038,-3.444 0.303,-0.229 -12.955,-3.26 -2.196,1.593 -3.789,-0.946 -1.968,1.363 m 15.719,-7.54 18.675,4.659 0.189,-0.149 -18.676,-4.659 -0.188,0.149 m 8.94,9.851 1.857,0.452 0.11,-0.11 -1.817,-0.457 -0.15,0.115 m -3.712,-20.571 25.949,6.479 4.471,-3.183 -45.19,-11.288 c -4.318,3.106 -8.649,6.198 -12.993,9.278 l 19.244,4.812 8.519,-6.098 m -64.924,24.36 47.539,11.854 0.795,-0.604 -32.083,-7.992 0.038,-3.408 0.455,-0.344 -11.933,-2.951 -4.811,3.445 m 30.833,3.291 21.249,5.268 7.047,-5 -21.213,-5.303 -7.083,5.035 m 8.371,14.472 -38.787,-9.66 -5.531,3.941 38.788,9.693 5.53,-3.974 m -9.318,6.668 -42.879,-10.721 -5.266,3.75 42.879,10.719 5.266,-3.748 m -11.023,7.877 -42.917,-10.721 -3.484,2.5 42.915,10.684 3.486,-2.463 m -14.659,-26.894 38.788,9.662 0.757,-0.531 -38.787,-9.697 -0.758,0.566 m 7.386,32.045 -42.879,-10.683 -3.03,2.159 42.916,10.684 2.993,-2.16 m -6.78,4.847 -42.917,-10.68 -3.03,2.158 42.917,10.684 3.03,-2.162 m -6.212,5.002 -43.485,-10.832 -6.856,4.888 51.363,12.804 1.023,-0.761 -2.083,-3.218 0.038,-2.881 m -2.765,9.546 -51.326,-12.804 -7.917,5.644 25.645,6.401 3.826,-2.729 25.719,6.402 4.053,-2.914 m -7.842,5.607 -21.818,-5.455 -0.075,0.037 5.264,1.325 0,2.461 4.697,1.175 2.576,-1.814 9.28,2.311 0.076,-0.04 m -57.5,-4.205 -4.923,3.521 0.188,0.343 42.462,10.566 6.44,-0.682 9.545,-6.82 -5.455,-1.361 -2.575,1.816 -7.918,-1.969 0.039,-2.463 -35.492,-8.823 -3.106,2.23 0.833,0.189 -0.038,3.453" id="path3463" class="wall"
		stroke="none"
		fill="#989898"
		stroke-width="0.5"
		/>
		
			<path d="m 111.653,179.083 -46.524,-11.576 7.058,-5.047 46.523,11.576 -7.057,5.047 0,0 z m 0,0" id="2001" class="unit"
		stroke="#dddddd"
		fill="white"
		stroke-width="0.5"
		/>
		
			<path d="m 58.108,172.479 46.562,11.611 -6.641,4.742 -46.524,-11.61 6.603,-4.743 0,0 z m 0,0" id="2002" class="unit"
		stroke="#dddddd"
		fill="white"
		stroke-width="0.5"
		/>
		
			<path d="m 104.861,183.941 -46.562,-11.573 6.603,-4.744 46.561,11.611 -6.602,4.706 0,0 z m 0,0" id="2003" class="unit"
		stroke="#dddddd"
		fill="white"
		stroke-width="0.5"
		/>
		
			<path d="m 51.279,177.336 46.562,11.61 -2.998,2.124 3.567,5.617 -2.543,1.82 -55.024,-13.699 10.436,-7.472 0,0 z m 0,0" id="2004" class="unit"
		stroke="#dddddd"
		fill="white"
		stroke-width="0.5"
		/>
		
			<path d="m 58.413,200.447 -29.257,-7.284 11.498,-8.236 55.024,13.738 -7.703,5.465 -25.729,-6.412 -3.833,2.729 0,0 z m 0,0" id="2005" class="unit"
		stroke="#dddddd"
		fill="white"
		stroke-width="0.5"
		/>
		
			<path d="m 62.397,197.943 25.387,6.336 -3.643,2.581 -9.296,-2.314 -2.581,1.822 -7.287,-1.822 2.581,-1.819 -8.803,-2.201 3.642,-2.583 0,0 z m 0,0" id="2006" class="unit"
		stroke="#dddddd"
		fill="white"
		stroke-width="0.5"
		/>
		
			<path d="m 74.958,204.774 9.069,2.236 -13.168,9.41 -6.489,0.686 -42.501,-10.625 -1.708,-2.693 6.451,-4.629 -4.364,-1.062 6.717,-4.82 38.062,9.521 -2.542,1.824 7.931,1.975 2.542,-1.823 0,0 z m 0,0" id="2007" class="unit"
		stroke="#dddddd"
		fill="white"
		stroke-width="0.5"
		/>
		
			<path d="m 119.053,204.317 -12.181,-3.07 1.101,-0.763 -1.253,-0.341 4.061,-2.885 13.471,3.34 -5.199,3.719 0,0 z m 0,0" id="2008" class="unit"
		stroke="#dddddd"
		fill="white"
		stroke-width="0.5"
		/>
		
			<path d="m 135.75,178.779 29.143,7.324 14.383,-10.246 3.305,0.836 8.082,-5.771 3.945,0.986 1.857,-1.328 5.467,1.367 -5.16,3.68 11.688,2.922 -5.996,4.25 5.354,1.328 -2.24,1.596 3.566,0.908 -1.139,0.799 11.156,2.771 13.28,1.971 -1.782,1.978 7.815,1.101 -31.572,22.504 -68.835,-8.729 -10.93,-2.692 8.045,-5.771 -8.045,-2.012 -2.694,1.896 -13.548,-3.377 -3.263,-5.048 16.886,-12.065 11.232,-1.178 0,0 z m 0,0" id="2009" class="unit"
		stroke="#dddddd"
		fill="white"
		stroke-width="0.5"
		/>
		
			<path d="m 127.25,198.777 7.438,1.821 -2.694,1.938 -7.399,-1.861 2.655,-1.898 0,0 z m 0,0" id="2010" class="unit"
		stroke="#dddddd"
		fill="white"
		stroke-width="0.5"
		/>
		
			<path d="m 114.537,222.95 -29.068,-7.248 8.653,-6.188 29.105,7.246 -8.69,6.19 0,0 z m 0,0" id="2011" class="unit"
		stroke="#dddddd"
		fill="white"
		stroke-width="0.5"
		/>
		
			<path d="m 119.28,215.588 -24.969,-6.226 10.018,-7.136 24.969,6.227 -10.018,7.135 0,0 z m 0,0" id="2012" class="unit"
		stroke="#dddddd"
		fill="white"
		stroke-width="0.5"
		/>
		
			<path d="m 183.525,153.165 34.985,8.729 -8.424,6.031 -38.746,-9.678 5.959,-4.285 6.226,-0.797 0,0 z m 0,0" id="2013" class="unit"
		stroke="#dddddd"
		fill="white"
		stroke-width="0.5"
		/>
		
			<path d="m 171.118,158.363 38.78,9.679 -4.021,2.883 -15.9,-3.983 -1.857,1.367 -22.885,-5.729 5.883,-4.217 0,0 z m 0,0" id="2014" class="unit"
		stroke="#dddddd"
		fill="white"
		stroke-width="0.5"
		/>
		
			<path d="m 165.045,162.727 22.846,5.689 -0.531,0.418 -1.215,-0.304 -5.271,3.757 -21.669,-5.39 5.84,-4.17 0,0 z m 0,0" id="2015" class="unit"
		stroke="#dddddd"
		fill="white"
		stroke-width="0.5"
		/>
		
			<path d="m 159.012,167.016 21.667,5.425 -6.072,4.327 -21.708,-5.391 6.113,-4.361 0,0 z m 0,0" id="2016" class="unit"
		stroke="#dddddd"
		fill="white"
		stroke-width="0.5"
		/>
		
			<path d="m 227.771,159.616 25.576,6.375 -16.394,11.688 1.062,0.266 -2.313,1.67 -27.246,-6.185 19.315,-13.814 0,0 z m 0,0" id="2017" class="unit"
		stroke="#dddddd"
		fill="white"
		stroke-width="0.5"
		/>
		
			<path d="m 152.712,171.53 21.667,5.391 -5.842,4.174 -21.668,-5.389 5.843,-4.176 0,0 z m 0,0" id="2018" class="unit"
		stroke="#dddddd"
		fill="white"
		stroke-width="0.5"
		/>
		
			<path d="m 138.785,176.693 4.934,1.25 2.96,-2.124 23.831,5.958 -5.691,4.062 -28.763,-7.172 2.729,-1.974 0,0 z m 0,0" id="2019" class="unit"
		stroke="#dddddd"
		fill="white"
		stroke-width="0.5"
		/>
		
			<path d="m 271.791,107.551 -21.818,-5.428 3.908,-2.809 21.818,5.464 -3.908,2.773 0,0 z m 0,0" id="2020" class="unit"
		stroke="#dddddd"
		fill="white"
		stroke-width="0.5"
		/>
		
			<path d="m 259.23,100.607 -5.28,-1.339 3.459,-2.456 5.254,1.317 -3.433,2.478 z m 0,0" id="2021" class="unit"
		stroke="#dddddd"
		fill="white"
		stroke-width="0.5"
		/>
		
			<path d="m 265.227,112.217 -21.816,-5.426 6.373,-4.555 21.82,5.465 -6.377,4.516 0,0 z m 0,0" id="2022" class="unit"
		stroke="#dddddd"
		fill="white"
		stroke-width="0.5"
		/>
		
			<path d="m 243.217,106.945 21.82,5.427 -3.908,2.81 -21.82,-5.466 3.908,-2.771 0,0 z m 0,0" id="2023" class="unit"
		stroke="#dddddd"
		fill="white"
		stroke-width="0.5"
		/>
		
			<path d="m 252.249,121.516 -21.818,-5.428 8.689,-6.225 21.819,5.426 -8.69,6.227 0,0 z m 0,0" id="2024" class="unit"
		stroke="#dddddd"
		fill="white"
		stroke-width="0.5"
		/>
		
			<path d="m 231.266,121.402 -2.697,1.937 -6.146,-1.555 2.656,-1.898 6.187,1.516 0,0 z m 0,0" id="2025" class="unit"
		stroke="#dddddd"
		fill="white"
		stroke-width="0.5"
		/>
		
			<path d="m 244.204,127.245 -15.293,-3.832 2.883,-2.051 -6.488,-1.631 4.934,-3.527 21.822,5.426 -7.858,5.615 0,0 z m 0,0" id="2026" class="unit"
		stroke="#dddddd"
		fill="white"
		stroke-width="0.5"
		/>
		
			<path d="m 230.275,141.249 -7.776,5.539 -26.033,-6.488 7.779,-5.541 26.03,6.49 0,0 z m 0,0" id="2027" class="unit"
		stroke="#dddddd"
		fill="white"
		stroke-width="0.5"
		/>
		
			<path d="m 250.579,136.277 -35.896,-8.956 5.994,-4.285 35.936,8.953 -6.034,4.288 0,0 z m 0,0" id="2028" class="unit"
		stroke="#dddddd"
		fill="white"
		stroke-width="0.5"
		/>
		
			<path d="m 214.454,127.473 42.955,10.701 -17.986,12.826 -16.584,-4.1 7.969,-5.691 -26.371,-6.564 10.017,-7.172 0,0 z m 0,0" id="2029" class="unit"
		stroke="#dddddd"
		fill="white"
		stroke-width="0.5"
		/>
		
			<path d="m 192.178,143.372 4.1,-2.92 42.955,10.699 -4.098,2.924 -42.957,-10.703 0,0 z m 0,0" id="2030" class="unit"
		stroke="#dddddd"
		fill="white"
		stroke-width="0.5"
		/>
		
			<path d="m 234.943,154.19 -3.565,2.579 -16.316,-4.062 -6.604,0.149 -14.951,-3.718 1.857,-1.366 -6.943,-1.745 3.568,-2.543 42.954,10.706 0,0 z m 0,0" id="2031" class="unit"
		stroke="#dddddd"
		fill="white"
		stroke-width="0.5"
		/>
		
			<path d="m 227.471,152.176 0.188,-0.075 0.19,0.075 0.073,0.191 -0.073,0.188 -0.19,0.074 -0.188,-0.074 -0.076,-0.188 0.076,-0.191 m -1.976,-0.416 -0.076,0.189 -0.188,0.073 -0.188,-0.073 -0.076,-0.189 0.076,-0.189 0.188,-0.074 0.188,0.074 0.076,0.189 m 1.14,0.114 0.074,0.188 -0.074,0.19 -0.189,0.074 -0.188,-0.074 -0.073,-0.19 0.073,-0.188 c 0.052,-0.051 0.113,-0.076 0.188,-0.076 l 0.189,0.076 m 2.427,0.608 0.076,0.188 -0.076,0.188 -0.188,0.076 -0.189,-0.076 -0.076,-0.188 0.076,-0.188 0.189,-0.073 0.188,0.073 m 0.834,0.302 0.188,-0.076 0.188,0.076 0.076,0.188 -0.076,0.188 -0.188,0.074 -0.188,-0.074 -0.074,-0.188 0.074,-0.188 m 2.81,0.609 0.078,0.188 -0.078,0.188 -0.188,0.077 -0.189,-0.077 -0.076,-0.188 0.076,-0.188 c 0.051,-0.053 0.113,-0.077 0.189,-0.077 l 0.188,0.077 m -1.595,-0.307 0.188,-0.074 0.188,0.074 0.074,0.189 -0.074,0.188 -0.188,0.076 -0.188,-0.076 -0.075,-0.188 0.075,-0.189 m -13.357,-3.337 0.188,-0.076 0.188,0.076 0.074,0.188 -0.074,0.188 -0.188,0.076 -0.188,-0.076 -0.074,-0.188 0.074,-0.188 m 2.885,0.796 -0.076,0.188 -0.188,0.076 -0.191,-0.076 -0.074,-0.188 0.074,-0.188 c 0.051,-0.051 0.113,-0.073 0.191,-0.073 l 0.188,0.073 0.076,0.188 m 0.757,0.114 0.188,-0.076 0.188,0.076 0.074,0.188 -0.074,0.188 -0.188,0.074 -0.188,-0.074 -0.076,-0.188 0.076,-0.188 m -2.427,-0.608 0.189,-0.074 0.188,0.074 0.073,0.191 -0.073,0.188 -0.188,0.074 -0.189,-0.074 -0.076,-0.188 0.076,-0.191 m 4.856,1.216 0.19,-0.076 0.188,0.076 0.074,0.188 -0.074,0.188 -0.188,0.076 -0.19,-0.076 -0.076,-0.188 0.076,-0.188 m -0.834,-0.304 0.075,0.188 -0.075,0.188 -0.189,0.076 -0.188,-0.076 -0.078,-0.188 0.078,-0.188 0.188,-0.074 0.189,0.074 m -8.5,-2.127 0.075,0.189 -0.075,0.189 -0.189,0.074 -0.189,-0.074 -0.074,-0.189 0.074,-0.189 c 0.053,-0.049 0.115,-0.072 0.189,-0.072 l 0.189,0.072 m 1.025,0.229 0.189,0.077 0.075,0.188 -0.075,0.188 -0.189,0.074 -0.188,-0.074 -0.076,-0.188 0.076,-0.188 0.188,-0.077 m 1.024,0.381 0.19,-0.074 0.188,0.074 0.076,0.188 -0.076,0.191 -0.188,0.073 -0.19,-0.073 -0.076,-0.191 0.076,-0.188 m -4.933,-1.026 0.076,-0.188 0.188,-0.076 0.188,0.076 0.076,0.188 -0.076,0.188 -0.188,0.077 -0.188,-0.077 -0.076,-0.188 m -0.759,-0.114 -0.188,0.075 -0.189,-0.075 -0.074,-0.188 0.074,-0.188 0.189,-0.076 0.188,0.076 0.076,0.188 -0.076,0.188 m 2.048,0.228 0.188,-0.076 0.188,0.076 0.074,0.189 -0.074,0.188 -0.188,0.075 -0.188,-0.075 -0.076,-0.188 0.076,-0.189 m -4.856,-1.214 c 0.051,-0.051 0.112,-0.073 0.188,-0.073 l 0.188,0.073 0.076,0.188 -0.076,0.191 -0.188,0.073 -0.188,-0.073 -0.076,-0.191 0.076,-0.188 m 1.403,0.227 0.188,0.076 0.074,0.188 -0.074,0.188 -0.188,0.076 -0.188,-0.076 -0.074,-0.188 0.074,-0.188 0.188,-0.076 m -2.616,-0.529 0.188,-0.077 0.188,0.077 0.073,0.188 -0.073,0.188 -0.188,0.077 -0.188,-0.077 -0.076,-0.188 0.076,-0.188 m -2.315,-0.684 0.189,0.074 0.073,0.188 -0.073,0.188 -0.189,0.074 -0.191,-0.074 -0.072,-0.188 0.072,-0.188 0.191,-0.074 m 1.099,0.377 0.188,-0.076 0.188,0.076 0.076,0.19 -0.076,0.188 -0.188,0.076 -0.188,-0.076 -0.077,-0.188 0.077,-0.19 m -2.202,-0.605 0.077,0.188 -0.077,0.189 -0.188,0.075 -0.188,-0.075 -0.078,-0.189 0.078,-0.188 0.188,-0.075 0.188,0.075 m -1.138,-0.113 -0.076,0.188 -0.188,0.074 -0.189,-0.074 -0.074,-0.188 0.074,-0.191 0.189,-0.075 0.188,0.075 0.076,0.191 m 31.27,7.702 0.188,-0.073 0.188,0.073 0.076,0.188 -0.076,0.191 -0.188,0.074 -0.188,-0.074 -0.078,-0.191 0.078,-0.188 m 1.139,0.495 0.074,-0.189 0.188,-0.074 0.188,0.074 0.076,0.189 -0.076,0.188 -0.188,0.076 -0.188,-0.076 -0.074,-0.188 m -42.883,-10.893 0.191,-0.074 0.188,0.074 0.076,0.188 -0.076,0.188 -0.188,0.076 -0.191,-0.076 -0.074,-0.188 0.074,-0.188 m 2.696,0.609 0.19,0.075 0.073,0.188 -0.073,0.19 -0.19,0.076 -0.188,-0.076 -0.076,-0.19 0.076,-0.188 0.188,-0.075 m -1.405,-0.23 0.188,-0.075 0.188,0.075 0.078,0.191 -0.078,0.188 -0.188,0.074 -0.188,-0.074 -0.074,-0.188 0.074,-0.191 m 2.885,0.608 0.074,0.188 -0.074,0.188 -0.188,0.074 -0.19,-0.074 -0.074,-0.188 0.074,-0.188 0.19,-0.076 0.188,0.076 m 0.836,0.302 0.188,-0.074 0.19,0.074 0.074,0.189 -0.074,0.188 -0.19,0.076 -0.188,-0.076 -0.076,-0.188 0.076,-0.189 m 1.402,0.229 0.188,0.076 0.076,0.188 -0.076,0.189 -0.188,0.074 -0.189,-0.074 -0.076,-0.189 0.076,-0.188 0.189,-0.076 m 1.48,0.381 0.076,0.188 -0.076,0.191 -0.188,0.072 -0.189,-0.072 -0.076,-0.191 0.076,-0.188 c 0.053,-0.051 0.113,-0.076 0.189,-0.076 l 0.188,0.076 m 0.913,0.303 0.188,-0.074 0.188,0.074 0.076,0.188 -0.076,0.188 -0.188,0.076 -0.188,-0.076 -0.078,-0.188 0.078,-0.188" id="2032" class="unit"
		stroke="#dddddd"
		fill="white"
		stroke-width="0.5"
		/>
		
			<path d="m 189.18,152.215 -6.98,-1.746 6.033,-4.286 6.643,1.67 -1.896,1.328 -3.8,3.034 0,0 z m 0,0" id="2033" class="unit"
		stroke="#dddddd"
		fill="white"
		stroke-width="0.5"
		/>
		
			<path d="m 295.127,85.541 -6.336,4.517 -16.24,-4.021 c 2.127,-1.492 4.238,-2.997 6.338,-4.517 l 16.238,4.021 0,0 z m 0,0" id="2034" class="unit"
		stroke="#dddddd"
		fill="white"
		stroke-width="0.5"
		/>
		
			<path d="m 383.206,31.163 40.414,10.094 2.467,3.946 -9.676,6.907 8.045,2.011 -39.732,28.31 8.009,2.013 -30.397,21.666 -2.73,-0.684 -2.998,2.125 -48.99,-12.221 8.273,-5.881 -10.057,-2.505 -1.14,0.798 -25.614,-6.375 9.297,-6.643 1.633,0.417 47.623,-33.963 0.836,-2.2 23.793,-16.963 24.287,6.754 -3.343,2.394 0,0 z m 0,0" id="2035" class="unit"
		stroke="#dddddd"
		fill="white"
		stroke-width="0.5"
		/>
		
			<path d="m 277.863,89.565 -4.062,2.921 -7.627,-1.896 4.1,-2.921 7.589,1.896 0,0 z m 0,0" id="2036" class="unit"
		stroke="#dddddd"
		fill="white"
		stroke-width="0.5"
		/>
		
			<path d="m 287.768,96.166 -3.756,2.693 -21.82,-5.465 3.795,-2.691 21.781,5.463 0,0 z m 0,0" id="2037" class="unit"
		stroke="#dddddd"
		fill="white"
		stroke-width="0.5"
		/>
		
			<path d="m 279.191,102.277 -21.782,-5.465 4.592,-3.265 21.783,5.428 -4.593,3.302 0,0 z m 0,0" id="2038" class="unit"
		stroke="#dddddd"
		fill="white"
		stroke-width="0.5"
		/>
		
			<path d="m 270.652,40.498 4.82,-3.415 13.396,3.376 -4.781,3.416 -13.435,-3.377 0,0 z m 0,0" id="2039" class="unit"
		stroke="#dddddd"
		fill="white"
		stroke-width="0.5"
		/>
		
			<path d="m 294.37,1.83 8.008,2.692 50.852,15.218 -37.949,27.095 -65.762,-16.394 17.418,-12.485 7.133,-1.631 20.3,-14.495 0,0 z m 0,0" id="2040" class="unit"
		stroke="#dddddd"
		fill="white"
		stroke-width="0.5"
		/>
		
			<path d="m 193.088,16.552 82.043,20.454 -4.971,3.567 13.735,3.414 -14.269,10.171 -95.817,-23.869 19.279,-13.737 0,0 z m 0,0" id="2041" class="unit"
		stroke="#dddddd"
		fill="white"
		stroke-width="0.5"
		/>
		
			<path d="m 162.009,51.883 11.349,2.808 25.271,-18.024 70.812,17.646 -3.983,2.846 3.643,0.91 -4.398,3.112 2.846,0.721 -4.25,3.036 7.324,1.819 -46.828,33.396 -54.416,-13.547 2.656,-1.937 -23.642,-5.882 3.566,-23.49 c 0.126,-0.911 0.379,-1.632 0.759,-2.163 0.531,-0.683 1.29,-1.201 2.277,-1.556 l 1.404,-0.342 c 1.335,-0.176 3.207,0.04 5.61,0.647 l 0,0 z m 0,0" id="2042" class="unit"
		stroke="#dddddd"
		fill="white"
		stroke-width="0.5"
		/>
		
			<path d="m 197.529,97.571 22.271,5.54 -4.021,2.886 -22.272,-5.539 4.022,-2.887 0,0 z m 0,0" id="2043" class="unit"
		stroke="#dddddd"
		fill="white"
		stroke-width="0.5"
		/>
		
			<path d="m 195.936,95.18 -10.514,7.476 25.955,6.489 -7.172,5.123 -48.761,-12.182 17.685,-12.601 22.807,5.695 0,0 z m 0,0" id="2044" class="unit"
		stroke="#dddddd"
		fill="white"
		stroke-width="0.5"
		/>
		
			<path d="m 193.316,100.57 22.272,5.578 -4.021,2.847 -22.236,-5.541 3.985,-2.884 0,0 z m 0,0" id="2045" class="unit"
		stroke="#dddddd"
		fill="white"
		stroke-width="0.5"
		/>
		
			<path d="m 155.217,102.239 48.801,12.145 -8.502,6.07 -48.8,-12.183 8.501,-6.032 0,0 z m 0,0" id="2046" class="unit"
		stroke="#dddddd"
		fill="white"
		stroke-width="0.5"
		/>
		
			<path d="m 187.284,126.334 -25.958,-6.487 -8.576,6.108 -22.844,-5.691 16.621,-11.842 48.8,12.183 -8.043,5.729 0,0 z m 0,0" id="2047" class="unit"
		stroke="#dddddd"
		fill="white"
		stroke-width="0.5"
		/>
		
			<path d="m 182.995,129.37 -22.275,-5.539 4.097,-2.922 22.274,5.577 -4.096,2.884 0,0 z m 0,0" id="2048" class="unit"
		stroke="#dddddd"
		fill="white"
		stroke-width="0.5"
		/>
		
			<path d="m 178.745,132.444 -22.276,-5.576 4.062,-2.886 22.273,5.541 -4.059,2.921 0,0 z m 0,0" id="2049" class="unit"
		stroke="#dddddd"
		fill="white"
		stroke-width="0.5"
		/>
		
			<path d="m 174.76,135.29 -22.275,-5.576 3.796,-2.693 22.275,5.539 -3.796,2.73 0,0 z m 0,0" id="2050" class="unit"
		stroke="#dddddd"
		fill="white"
		stroke-width="0.5"
		/>
		
			<path d="m 148.5,132.558 3.795,-2.692 22.275,5.54 -3.795,2.729 -22.275,-5.577 0,0 z m 0,0" id="2051" class="unit"
		stroke="#dddddd"
		fill="white"
		stroke-width="0.5"
		/>
		
			<path d="m 170.586,138.25 -3.719,2.654 -5.428,-1.328 3.719,-2.654 5.428,1.328 0,0 z m 0,0" id="2052" class="unit"
		stroke="#dddddd"
		fill="white"
		stroke-width="0.5"
		/>
		
			<path d="m 140.341,134.721 1.974,-1.403 3.795,0.948 2.201,-1.557 16.544,4.138 -3.907,2.771 5.728,1.44 -4.021,2.851 -25.311,-6.303 -1.215,0 -6.146,-1.52 4.098,-2.922 6.26,1.557 0,0 z m 0,0" id="2053" class="unit"
		stroke="#dddddd"
		fill="white"
		stroke-width="0.5"
		/>
		
			<path d="m 134.231,139.047 24.855,6.225 -10.663,7.589 -24.856,-6.187 10.664,-7.627 0,0 z m 0,0" id="2054" class="unit"
		stroke="#dddddd"
		fill="white"
		stroke-width="0.5"
		/>
		
			<path d="m 112.564,144.092 35.671,8.882 -4.402,3.147 -51.154,-12.75 8.425,-6.033 15.482,3.871 -4.022,2.883 0,0 z m 0,0" id="2055" class="unit"
		stroke="#dddddd"
		fill="white"
		stroke-width="0.5"
		/>
		
			<path d="m 101.217,145.688 42.463,10.55 -4.364,3.111 -42.425,-10.586 4.326,-3.075 0,0 z m 0,0" id="2056" class="unit"
		stroke="#dddddd"
		fill="white"
		stroke-width="0.5"
		/>
		
			<path d="m 129.982,166.028 -42.426,-10.587 9.146,-6.526 42.425,10.588 -9.145,6.525 0,0 z m 0,0" id="2057" class="unit"
		stroke="#dddddd"
		fill="white"
		stroke-width="0.5"
		/>
		
			<path d="m 120.912,172.479 -46.523,-11.609 8.841,-6.302 46.562,11.574 -8.88,6.337 0,0 z m 0,0" id="2058" class="unit"
		stroke="#dddddd"
		fill="white"
		stroke-width="0.5"
		/>
		
			<path d="m 152.522,109.903 0.152,-0.035 0.114,0.035 0.076,0.153 -0.076,0.112 -0.114,0.076 -0.152,-0.076 -0.038,-0.112 0.038,-0.153 m 1.405,0.457 -0.076,0.112 -0.114,0.075 -0.151,-0.075 -0.038,-0.112 0.038,-0.15 0.151,-0.037 0.114,0.037 0.076,0.15 m 0,0.796 0.113,0.037 0.076,0.149 -0.076,0.115 -0.113,0.074 -0.152,-0.074 -0.038,-0.115 0.038,-0.149 0.152,-0.037 m -1.101,0.645 0.152,-0.036 0.114,0.036 0.075,0.152 -0.075,0.111 -0.114,0.076 -0.152,-0.076 -0.038,-0.111 0.038,-0.152 m 1.86,-1.291 0.151,-0.038 0.114,0.038 0.076,0.15 -0.076,0.113 -0.114,0.077 -0.151,-0.075 -0.038,-0.112 0.038,-0.153 m -4.023,-1.062 -0.075,0.112 -0.114,0.073 -0.152,-0.073 -0.038,-0.112 0.038,-0.15 0.152,-0.039 0.114,0.039 0.075,0.15 m 0.797,0.152 0.152,-0.038 0.114,0.038 0.077,0.15 -0.077,0.113 -0.114,0.075 -0.152,-0.075 -0.038,-0.113 0.038,-0.15 m -2.276,-0.607 0.151,-0.039 0.114,0.039 0.076,0.15 -0.076,0.113 -0.114,0.074 -0.151,-0.074 -0.038,-0.113 0.038,-0.15 m 2.732,3.492 0.151,-0.038 0.114,0.038 0.076,0.15 -0.076,0.113 -0.114,0.076 -0.151,-0.076 -0.038,-0.113 0.038,-0.15 m -0.911,0.681 0.151,-0.037 0.114,0.037 0.076,0.151 -0.076,0.113 -0.114,0.073 -0.151,-0.073 -0.038,-0.113 0.038,-0.151 m -0.646,0.95 -0.113,0.075 -0.152,-0.075 -0.038,-0.113 0.038,-0.15 0.152,-0.038 0.113,0.038 0.076,0.15 -0.076,0.113 m -1.213,0.569 0.038,-0.149 0.151,-0.039 0.114,0.039 0.076,0.149 -0.076,0.112 -0.114,0.076 -0.151,-0.076 -0.038,-0.112 m -0.608,0.53 0.077,0.152 -0.077,0.113 -0.113,0.075 -0.152,-0.075 -0.038,-0.113 0.038,-0.152 0.152,-0.037 0.113,0.037 m -0.227,-6.524 0.076,0.147 -0.076,0.113 -0.114,0.076 -0.152,-0.076 -0.038,-0.113 0.038,-0.147 0.152,-0.038 0.114,0.038 m -1.405,-0.269 0.152,-0.037 0.114,0.037 0.076,0.154 -0.076,0.112 -0.114,0.075 -0.152,-0.075 -0.038,-0.112 0.038,-0.154 m -0.721,0.155 0.077,0.149 -0.077,0.11 -0.113,0.078 -0.152,-0.078 -0.038,-0.11 0.038,-0.149 0.152,-0.037 0.113,0.037 m -1.176,0.681 0.152,-0.036 0.114,0.036 0.076,0.152 -0.076,0.111 -0.114,0.076 -0.152,-0.076 -0.037,-0.111 0.037,-0.152 m -0.646,0.684 0.077,0.15 -0.077,0.115 -0.113,0.076 -0.151,-0.076 -0.039,-0.115 0.039,-0.15 0.151,-0.039 0.113,0.039 m -2.996,2.049 0.151,-0.037 0.114,0.037 0.076,0.15 -0.076,0.113 -0.114,0.076 -0.151,-0.076 -0.039,-0.113 0.039,-0.15 m 1.062,-0.342 -0.152,-0.074 -0.038,-0.113 0.038,-0.151 0.152,-0.037 0.114,0.037 0.076,0.151 -0.076,0.113 -0.114,0.074 m 0.758,-1.024 0.152,-0.039 0.113,0.039 0.076,0.149 -0.076,0.114 -0.113,0.074 -0.152,-0.074 -0.038,-0.114 0.038,-0.149 m -2.428,3.946 0.152,-0.035 0.114,0.035 0.075,0.152 -0.075,0.113 -0.114,0.076 -0.152,-0.076 -0.038,-0.113 0.038,-0.152 m -0.038,-1.631 -0.113,0.075 -0.152,-0.075 -0.038,-0.113 0.038,-0.15 0.152,-0.037 0.113,0.037 0.076,0.15 -0.076,0.113 m 1.101,1.935 0.151,-0.039 0.114,0.039 0.076,0.15 -0.076,0.112 -0.114,0.073 -0.151,-0.073 -0.038,-0.112 0.038,-0.15 m 2.277,0.608 0.151,-0.038 0.113,0.038 0.077,0.15 -0.077,0.113 -0.113,0.076 -0.151,-0.076 -0.039,-0.113 0.039,-0.15 m -0.874,-0.307 0.077,0.15 -0.077,0.115 -0.114,0.076 -0.152,-0.076 -0.038,-0.115 0.038,-0.15 0.152,-0.036 0.114,0.036 m 2.011,0.61 0.152,-0.037 0.114,0.037 0.076,0.15 -0.076,0.111 -0.114,0.076 -0.152,-0.076 -0.038,-0.111 0.038,-0.15 m 1.139,0.265 0.153,-0.037 0.113,0.037 0.076,0.152 -0.076,0.111 -0.113,0.076 -0.153,-0.076 -0.038,-0.111 0.038,-0.152 m 1.253,-0.151 0.075,0.149 -0.075,0.115 -0.114,0.074 -0.152,-0.074 -0.038,-0.115 0.038,-0.149 0.152,-0.038 0.114,0.038 m -7.742,-2.392 -0.075,0.113 -0.114,0.076 -0.153,-0.076 -0.038,-0.113 0.038,-0.149 0.153,-0.038 0.114,0.038 0.075,0.149 m -0.189,0.76 0.151,-0.038 0.114,0.038 0.076,0.15 -0.076,0.113 -0.114,0.074 -0.151,-0.074 -0.038,-0.113 0.038,-0.15 m -0.76,-0.152 -0.076,0.112 -0.114,0.076 -0.152,-0.076 -0.038,-0.112 0.038,-0.15 0.152,-0.039 0.114,0.039 0.076,0.15" id="2059" class="unit"
		stroke="#dddddd"
		fill="white"
		stroke-width="0.5"
		/>
		
		</g>
	
		
 		
			<g class="public_transport"
				transform="translate(91.3,314.3) scale(0.7)"
				style="display: none"
				>
			
			</g>
		
			<g class="shopmobility"
				transform="translate(114.3,319.3) scale(0.7)"
				style="display: none"
				>
			
			</g>
		
			<g class="elevator"
				transform="translate(155.3,293.3) scale(0.7)"
				style="display: none"
				>
			
			</g>
		
			<g class="elevator"
				transform="translate(188.3,253.3) scale(0.7)"
				style="display: none"
				>
			
			</g>
		
			<g class=""
				transform="translate(194.3,248.3) scale(0.7)"
				style="display: none"
				>
			
			</g>
		
			<g class="disabled_toilet"
				transform="translate(141.3,218.3) scale(0.7)"
				style="display: none"
				>
			
			</g>
		
			<g class="toilets"
				transform="translate(154.3,222.3) scale(0.7)"
				style="display: none"
				>
			
			</g>
		
			<g class="baby_changing"
				transform="translate(169.3,226.3) scale(0.7)"
				style="display: none"
				>
			
			</g>
		
			<g class="escalator"
				transform="translate(209.3,233.3) scale(0.7)"
				style="display: none"
				>
			
			</g>
		
			<g class="escalator"
				transform="translate(230.3,214.3) scale(0.7)"
				style="display: none"
				>
			
			</g>
		
			<g class="cash_machine"
				transform="translate(258.3,192.3) scale(0.7)"
				style="display: none"
				>
			
			</g>
		
			<g class="elevator"
				transform="translate(269.3,191.3) scale(0.7)"
				style="display: none"
				>
			
			</g>
		
			<g class="escalator"
				transform="translate(279.3,183.3) scale(0.7)"
				style="display: none"
				>
			
			</g>
		
			<g class="elevator"
				transform="translate(297.3,170.3) scale(0.7)"
				style="display: none"
				>
			
			</g>
		
			<g class="elevator"
				transform="translate(312.3,157.3) scale(0.7)"
				style="display: none"
				>
			
			</g>
		
			<g class="public_telephone"
				transform="translate(338.3,142.3) scale(0.7)"
				style="display: none"
				>
			
			</g>
		
	
		<g transform="translate(26,350) scale(1)">
		
		
			<path d="M433.196,59.481 C433.239,59.071 433.112,58.659 432.845,58.342 L432.294,57.691 L432.368,57.639 C432.747,57.37 432.983,56.942 433.009,56.478 C433.032,56.015 432.844,55.565 432.495,55.258 L422.235,46.249 C422.082,46.112 421.9,46.011 421.708,45.947 L412.439,42.901 L412.448,42.137 C412.451,41.862 412.381,41.596 412.251,41.368 C412.101,40.914 411.743,40.552 411.279,40.399 L381.955,30.819 C381.873,30.791 381.79,30.772 381.707,30.758 C381.67,30.744 381.633,30.732 381.594,30.72 L367.244,26.613 C367.151,26.586 367.059,26.57 366.967,26.561 C366.945,26.553 366.921,26.544 366.899,26.539 L357.398,23.763 C357.306,23.738 357.215,23.72 357.125,23.71 C357.103,23.702 357.079,23.695 357.058,23.689 L304.822,8.045 C304.802,8.04 304.785,8.033 304.765,8.029 C304.702,7.995 304.63,7.967 304.561,7.942 L296.506,5.206 C296.043,5.049 295.534,5.123 295.137,5.408 L294.96,5.533 C294.94,5.545 294.923,5.557 294.904,5.572 L281.142,15.388 L224.102,0.83 C223.659,0.719 223.19,0.81 222.822,1.084 L195.059,21.732 C195.049,21.741 195.038,21.749 195.03,21.756 L179.019,33.173 C178.843,33.298 178.7,33.455 178.594,33.635 C178.24,33.917 178.03,34.346 178.025,34.802 L177.985,38.316 C177.978,38.943 178.36,39.512 178.943,39.743 L179.137,39.819 C179.199,39.844 179.263,39.865 179.329,39.883 L199.822,44.997 L192.831,49.979 C192.759,50.014 192.688,50.058 192.623,50.105 L183.747,56.44 C183.689,56.481 183.635,56.525 183.585,56.574 C183.573,56.582 183.562,56.59 183.55,56.597 L177.282,61.075 L160.014,56.748 C157.264,56.067 155.199,55.837 153.656,56.052 C153.606,56.058 153.558,56.068 153.511,56.078 L152.024,56.432 C151.95,56.451 151.878,56.473 151.806,56.502 C150.432,57.057 149.424,57.797 148.847,58.648 C148.802,58.71 148.76,58.775 148.737,58.818 C148.73,58.827 148.723,58.836 148.716,58.844 C148.659,58.919 148.61,59.001 148.567,59.086 C148.487,59.218 148.414,59.347 148.381,59.419 C148.014,60.073 147.789,60.723 147.694,61.393 L144.594,81.665 C144.559,81.769 144.536,81.894 144.525,82.014 L143.245,90.584 C143.234,90.66 143.228,90.734 143.228,90.809 L143.228,94.36 C143.228,95.057 143.703,95.666 144.38,95.834 L163.454,100.578 L145.254,113.553 L142.192,112.786 C141.802,112.686 141.393,112.75 141.051,112.951 C140.958,112.993 140.867,113.043 140.783,113.104 L132.219,119.206 C132.162,119.248 132.11,119.291 132.061,119.337 C132.048,119.346 132.035,119.355 132.021,119.364 L121.191,127.106 C121.163,127.127 121.136,127.147 121.11,127.169 C121.058,127.197 121.006,127.229 120.958,127.264 L116.306,130.586 C116.252,130.623 116.203,130.663 116.156,130.708 L111.033,134.337 C110.959,134.39 110.89,134.447 110.828,134.512 C110.451,134.799 110.23,135.246 110.23,135.719 L110.23,138.706 L107.3,140.735 L76.702,168.835 C76.648,168.872 76.598,168.913 76.552,168.958 C76.177,169.239 75.953,169.68 75.947,170.15 L75.933,171.081 L64.529,168.229 C64.099,168.122 63.643,168.208 63.282,168.464 L63.182,168.535 C63.097,168.574 63.016,168.622 62.938,168.677 L24.818,195.859 C24.353,196.191 24.132,196.761 24.216,197.326 L24.181,200.625 C24.174,201.329 24.651,201.945 25.333,202.117 L110.29,223.224 C110.411,223.253 110.612,223.268 110.736,223.268 C111.051,223.268 111.361,223.17 111.618,222.986 L112.883,222.082 L115.596,222.757 C116.028,222.862 116.483,222.778 116.845,222.52 L121.934,218.888 L121.934,220.894 C121.934,221.592 122.41,222.2 123.087,222.368 L134.711,225.256 C134.769,225.27 134.827,225.28 134.885,225.288 L205.799,234.299 C205.876,234.308 205.953,234.312 206.03,234.312 L206.186,234.312 C206.502,234.312 206.81,234.212 207.067,234.031 L239.91,210.621 C240.306,210.341 240.544,209.886 240.55,209.401 L240.587,205.85 C240.595,205.087 240.036,204.439 239.283,204.33 L216.11,201.063 L209.307,199.371 L209.341,196.33 C209.349,195.627 208.875,195.013 208.194,194.84 L205.616,194.192 C205.676,194.027 205.708,193.854 205.71,193.674 L205.749,190.125 C205.751,190.013 205.739,189.901 205.717,189.792 L209.286,190.665 L209.517,190.75 C209.571,190.771 209.625,190.787 209.682,190.802 L240.612,198.487 C241.041,198.594 241.497,198.509 241.859,198.252 L258.596,186.313 C258.992,186.033 259.228,185.58 259.233,185.094 L259.271,181.542 C259.279,180.84 258.802,180.222 258.12,180.053 L253.264,178.845 L261.043,173.282 L262.302,173.594 C262.732,173.703 263.189,173.615 263.549,173.358 L282.742,159.663 C283.141,159.379 283.378,158.919 283.378,158.428 L283.378,154.878 C283.378,154.182 282.901,153.574 282.226,153.405 L259.643,147.785 C259.21,147.681 258.755,147.765 258.394,148.024 L255.7,149.95 C255.604,149.36 255.166,148.872 254.57,148.722 L237.12,144.357 L239.562,142.613 C239.795,142.449 239.97,142.224 240.081,141.968 L240.757,142.142 C241.191,142.255 241.656,142.167 242.02,141.909 L274.083,119.005 C274.482,118.72 274.718,118.261 274.718,117.77 L274.718,115.714 L276.967,116.278 C277.4,116.387 277.857,116.299 278.217,116.04 L287.893,109.135 C288.288,108.853 288.522,108.402 288.529,107.917 L288.554,105.64 L291.011,106.252 C291.445,106.358 291.9,106.273 292.259,106.015 L301.231,99.615 C301.622,99.337 301.858,98.891 301.87,98.411 L301.87,98.405 L310.201,100.494 L308.057,102.019 C307.656,102.303 307.416,102.765 307.416,103.257 L307.416,106.807 C307.416,107.504 307.891,108.112 308.567,108.281 L362.435,121.704 C362.865,121.812 363.324,121.725 363.683,121.466 L398.362,96.69 C398.757,96.408 398.99,95.955 398.996,95.471 L399.037,91.921 C399.045,91.339 398.722,90.818 398.221,90.557 C398.066,90.442 397.885,90.355 397.687,90.305 L396.599,90.036 L432.569,64.383 C432.969,64.098 433.206,63.637 433.206,63.146 L433.206,59.634 C433.204,59.586 433.201,59.532 433.196,59.481 L433.196,59.481 L433.196,59.481 Z M433.196,59.481" class="outline"
		stroke="none"
		fill="#f68b1f"
		stroke-width="0.5"
		/>
		
			<path d="M11.935,105.231 C9.054,105.231 7.229,107.568 7.229,111.169 C7.229,114.562 9.021,116.675 11.887,116.675 C14.768,116.675 16.593,114.322 16.593,110.721 C16.592,107.328 14.784,105.231 11.935,105.231 L11.935,105.231 Z M11.918,115.491 C9.773,115.491 8.524,113.746 8.524,111.234 C8.524,108.273 9.756,106.416 11.901,106.416 C14.094,106.416 15.295,108.161 15.295,110.658 C15.296,113.619 14.063,115.491 11.918,115.491 L11.918,115.491 Z M38.415,115.332 L33.645,115.332 L33.645,111.474 L37.519,111.474 C37.903,111.474 38.111,111.154 38.111,110.882 C38.111,110.594 37.903,110.306 37.519,110.306 L33.645,110.306 L33.645,106.577 L38.255,106.577 C38.671,106.577 38.895,106.305 38.895,106.001 C38.895,105.665 38.671,105.361 38.255,105.361 L33.469,105.361 C32.781,105.361 32.412,105.729 32.412,106.321 L32.412,115.589 C32.412,116.181 32.78,116.549 33.469,116.549 L38.415,116.549 C38.799,116.549 39.023,116.213 39.023,115.941 C39.023,115.604 38.799,115.332 38.415,115.332 L38.415,115.332 Z M29.921,105.295 C29.585,105.295 29.377,105.551 29.329,105.871 C28.881,108.928 28.305,112.017 27.568,115.091 L27.536,115.091 C26.672,112.274 25.984,108.912 25.231,106.559 C24.927,105.599 24.655,105.295 24.159,105.295 C23.726,105.295 23.407,105.631 23.135,106.495 C22.399,108.816 21.582,112.45 20.718,115.091 L20.686,115.091 C19.934,112.034 19.485,108.945 19.085,105.935 C19.005,105.503 18.781,105.295 18.429,105.295 C18.045,105.295 17.821,105.599 17.821,105.935 C17.821,106.047 17.853,106.239 17.869,106.303 C18.302,109.392 18.91,112.561 19.534,115.331 C19.758,116.291 20.094,116.611 20.638,116.611 C21.118,116.611 21.438,116.339 21.742,115.475 C22.606,112.978 23.214,110.225 24.143,107.056 L24.175,107.056 C25.135,110.225 25.696,112.994 26.464,115.475 C26.736,116.355 27.072,116.611 27.601,116.611 C28.081,116.611 28.401,116.275 28.593,115.539 C29.345,112.546 29.986,109.424 30.498,106.223 C30.53,106.047 30.53,105.935 30.53,105.855 C30.529,105.567 30.29,105.295 29.921,105.295 L29.921,105.295 Z M6.207,115.363 L1.901,115.363 L1.901,105.951 C1.901,105.551 1.645,105.295 1.293,105.295 C0.94,105.295 0.668,105.551 0.668,105.951 L0.668,115.587 C0.668,116.179 1.036,116.547 1.725,116.547 L6.206,116.547 C6.606,116.547 6.862,116.275 6.862,115.939 C6.863,115.635 6.623,115.363 6.207,115.363 L6.207,115.363 Z M72.254,106.768 C71.63,105.519 71.134,105.151 70.573,105.151 C70.013,105.151 69.517,105.519 68.892,106.768 C67.996,108.577 67.308,110.85 66.139,115.476 C66.075,115.7 66.043,115.876 66.043,115.988 C66.043,116.372 66.299,116.612 66.651,116.612 C66.939,116.612 67.147,116.436 67.227,116.1 C67.531,114.724 67.835,113.491 68.14,112.434 L73.006,112.434 C73.294,113.491 73.598,114.723 73.919,116.1 C73.999,116.436 74.207,116.612 74.495,116.612 C74.847,116.612 75.103,116.372 75.103,115.988 C75.103,115.876 75.055,115.7 75.007,115.476 C73.871,110.85 73.15,108.577 72.254,106.768 L72.254,106.768 Z M68.46,111.314 C69.196,108.865 69.853,107.344 70.365,106.544 C70.413,106.48 70.461,106.416 70.573,106.416 C70.685,106.416 70.733,106.48 70.781,106.544 C71.293,107.344 71.933,108.865 72.67,111.314 L68.46,111.314 L68.46,111.314 Z M89.982,115.363 L85.676,115.363 L85.676,105.951 C85.676,105.551 85.42,105.295 85.068,105.295 C84.715,105.295 84.443,105.551 84.443,105.951 L84.443,115.587 C84.443,116.179 84.811,116.547 85.5,116.547 L89.981,116.547 C90.381,116.547 90.637,116.275 90.637,115.939 C90.638,115.635 90.398,115.363 89.982,115.363 L89.982,115.363 Z M63.696,106.592 C63.584,105.759 63.296,105.296 62.64,105.296 C62.015,105.296 61.744,105.664 61.567,106.128 C60.751,108.337 59.855,111.17 58.878,113.795 L58.862,113.795 C57.854,111.314 57.07,108.705 56.045,106.272 C55.821,105.664 55.549,105.296 54.924,105.296 C54.268,105.296 53.964,105.744 53.868,106.625 C53.515,109.554 53.324,112.723 53.34,115.973 C53.324,116.357 53.564,116.613 53.916,116.613 C54.268,116.613 54.54,116.389 54.54,115.957 C54.524,112.884 54.716,109.907 55.053,106.914 L55.069,106.914 C56.046,109.539 56.99,112.18 58.03,114.805 C58.158,115.141 58.43,115.381 58.846,115.381 C59.246,115.381 59.55,115.141 59.678,114.805 C60.702,112.26 61.583,109.555 62.511,106.914 L62.527,106.914 C62.944,109.939 63.103,112.916 63.183,115.893 C63.183,116.341 63.407,116.613 63.824,116.613 C64.176,116.613 64.4,116.325 64.4,115.941 C64.4,115.813 64.384,115.573 64.384,115.461 C64.352,112.418 64.096,109.361 63.696,106.592 L63.696,106.592 Z M82.366,115.363 L78.06,115.363 L78.06,105.951 C78.06,105.551 77.804,105.295 77.452,105.295 C77.099,105.295 76.827,105.551 76.827,105.951 L76.827,115.587 C76.827,116.179 77.195,116.547 77.884,116.547 L82.365,116.547 C82.765,116.547 83.021,116.275 83.021,115.939 C83.022,115.635 82.782,115.363 82.366,115.363 L82.366,115.363 Z M46.463,112.434 C46.175,112.018 45.855,111.698 45.486,111.458 C46.911,110.961 47.839,109.969 47.839,108.449 C47.839,106.512 46.527,105.232 43.63,105.232 C42.526,105.232 41.773,105.344 41.261,105.504 C40.861,105.632 40.749,105.872 40.749,106.272 L40.749,115.972 C40.749,116.372 41.021,116.612 41.374,116.612 C41.726,116.612 41.998,116.372 41.998,115.972 L41.998,111.794 L43.247,111.794 C44.415,111.794 44.88,112.274 45.456,113.203 C45.856,113.843 46.272,114.771 46.768,116.164 C46.864,116.42 47.04,116.612 47.376,116.612 C47.712,116.612 48.001,116.372 48.001,115.988 C48.001,115.876 47.969,115.716 47.905,115.556 C47.471,114.403 46.959,113.203 46.463,112.434 L46.463,112.434 Z M43.438,110.578 L41.998,110.578 L41.998,106.544 C42.446,106.48 42.878,106.416 43.567,106.416 C45.856,106.416 46.576,107.312 46.576,108.497 C46.575,110.146 45.022,110.625 43.438,110.578 L43.438,110.578 Z M43.438,110.578" class="Shape"
		stroke="none"
		fill="#f68b1f"
		stroke-width="0.5"
		/>
		
			<path d="M410.664,43.913 L421.234,47.389 L431.494,56.398 L428.839,58.274 L420.998,56.323 L410.116,57.65 L398.101,54.646 L348.798,62.917 L342.556,67.366 L301.674,73.376 L188.474,154.22 L190.656,156.678 L215.192,162.766 L219.717,159.568 L262.665,170.257 L250.613,178.882 L211.451,169.125 L212.853,168.111 L210.942,165.222 L185.822,158.941 L180.867,159.641 L143.535,186.251 L150.676,196.51 L115.959,221.289 L110.614,219.961 L119.508,213.603 L117.129,213.017 L136.712,199.05 L128.09,186.212 L161.208,162.606 L156.994,156.597 L105.071,144.729 L108.009,142.094 L113.773,138.1 L135.267,143.172 L131.56,146.683 L158.553,153.004 L163.157,149.728 L169.203,148.871 L187.341,135.915 L186.132,135.601 L218.627,112.426 L214.802,111.489 L216.364,110.358 L223.427,110.044 L262.664,82.03 L260.404,78.676 L275.226,68.101 L264.888,65.526 L289.154,48.204 L332.101,58.853 L406.917,46.602 L410.664,43.913" class="walkway"
		stroke="none"
		fill="#808285"
		stroke-width="0.5"
		/>
		
			<path d="M381.368,32.482 L381.293,32.442 L356.756,25.379 L356.561,25.34 L304.33,9.693 L295.788,6.803 L274.725,21.827 L267.39,23.502 L249.368,36.382 L195.966,23.076 L179.544,34.821 L179.504,38.334 L179.698,38.41 L203.454,44.338 L184.497,57.878 L184.303,57.995 L177.633,62.754 L158.947,58.111 L158.909,58.111 L157.7,57.877 L157.661,57.877 L157.31,57.801 L155.827,57.645 L153.994,57.684 L152.355,58.076 C151.263,58.492 150.456,59.05 149.937,59.752 C149.547,60.274 149.3,60.898 149.195,61.626 L146.074,82.033 L146.034,82.15 L146.034,82.188 L144.747,90.813 L144.747,94.364 L167.02,99.905 L145.566,115.199 L141.823,114.261 L111.747,135.723 L111.747,139.703 L131.446,144.385 L131.407,148.207 L158.595,154.88 L163.277,151.564 L169.322,150.707 L187.616,137.675 L187.616,136.464 L218.863,114.186 L218.902,112.079 L223.507,111.885 L262.827,83.791 L262.865,80.241 L262.239,79.303 L277.962,68.106 L277.962,64.363 L268.833,64.637 L289.232,50.044 L317.319,57.025 L317.513,57.104 L332.062,60.731 L351.372,57.571 L351.372,56.088 L354.376,57.064 L368.808,54.683 L368.808,54.644 L368.887,54.683 L378.714,52.966 L378.794,52.966 L407.032,48.439 L410.892,45.671 L410.931,42.119 L381.368,32.482 L381.368,32.482 Z M381.368,32.482" class="wall"
		stroke="none"
		fill="#989898"
		stroke-width="0.5"
		/>
		
			<path d="M161.405,164.362 L161.405,160.85 L157.192,154.763 L107.687,142.319 L77.461,170.176 L77.421,173.024 L64.159,169.707 L25.814,197.058 L25.814,197.136 L25.737,197.098 L25.698,200.648 L110.655,221.757 L110.735,221.757 L119.745,215.318 L119.785,213.016 L136.908,200.803 L136.908,197.252 L129.887,186.837 L133.476,184.261 L133.515,184.261 L133.515,184.3 L161.405,164.362 L161.405,164.362 Z M161.405,164.362" class="wall"
		stroke="none"
		fill="#989898"
		stroke-width="0.5"
		/>
		
			<path d="M431.687,59.638 L428.997,56.438 L420.999,54.449 L410.154,55.777 L407.151,54.996 L405.826,55.93 L405.867,54.684 L398.143,52.77 L386.127,54.762 L385.975,54.801 L348.835,61.354 L343.101,65.53 L301.557,71.538 L279.014,87.614 L279.014,89.486 L277.062,89.018 L233.138,120.388 L232.947,120.507 L217.81,131.313 L217.81,132.6 L216.48,132.291 L207.59,138.65 L207.392,138.766 L194.832,147.741 L194.638,147.858 L190.896,150.55 L190.698,150.669 L188.244,152.422 L188.244,155.975 L190.19,158.158 L185.823,157.064 L180.715,157.807 L174.316,162.372 L174.121,162.491 L153.291,177.395 L153.097,177.51 L143.344,184.456 L143.307,188.008 L147.479,194.171 L148.377,194.054 L148.377,195.421 L148.768,195.966 L123.06,214.304 L123.06,217.817 L123.451,217.933 L123.451,220.899 L135.075,223.787 L205.991,232.798 L206.029,232.76 L206.029,232.798 L206.186,232.798 L239.03,209.388 L239.067,205.839 L215.823,202.56 L207.043,200.374 L207.784,199.829 L207.825,196.317 L202.402,194.952 L204.193,193.662 L204.232,190.114 L202.558,187.462 L209.733,189.217 L210.048,189.333 L240.979,197.02 L257.716,185.082 L257.754,181.53 L250.849,179.814 L250.889,177.082 L213.05,167.64 L213.05,166.353 L211.295,163.66 L215.275,164.636 L219.799,161.434 L262.669,172.126 L281.86,158.43 L281.86,154.881 L259.276,149.263 L254.2,152.89 L254.2,150.198 L235.166,145.437 L218.395,157.379 L217.891,157.26 L217.965,157.221 L230.88,148.015 L230.92,144.463 L223.504,142.59 L224.05,142.2 L234.038,144.697 L238.68,141.383 L238.719,140.054 L241.134,140.677 L273.2,117.775 L273.2,114.224 L265.984,112.428 L266.451,112.08 L277.335,114.808 L287.008,107.904 L287.05,104.352 L277.335,101.933 L278.039,101.465 L291.376,104.783 L300.35,98.383 L300.389,96.472 L313.768,99.827 L308.934,103.26 L308.934,106.81 L362.801,120.233 L397.479,95.457 L397.52,91.906 L392.953,90.775 L431.687,63.15 L431.687,59.638 L431.687,59.638 Z M431.687,59.638" class="wall"
		stroke="none"
		fill="#989898"
		stroke-width="0.5"
		/>
		
			<path d="M217.692,118.983 L217.653,122.497 L224.01,124.096 L229.318,120.313 L229.357,116.761 L222.999,115.2 L217.692,118.983 L217.692,118.983 Z M272.067,79.029 L267.31,82.425 L267.27,85.584 L273.002,87.029 L277.762,83.634 L277.803,80.434 L272.067,79.029 L272.067,79.029 Z M246.129,99.202 L246.09,102.909 L251.746,104.43 L256.581,100.996 L256.62,97.212 L250.887,95.808 L246.129,99.202 L246.129,99.202 Z M246.129,99.202" class="wall"
		stroke="none"
		fill="#989898"
		stroke-width="0.5"
		/>
		
			<path d="M268.922,95.182 L272.834,92.286 L277.838,93.657 L273.967,96.549 L273.927,96.549 L268.922,95.182 L268.922,95.182 Z M268.922,95.182" id="1001" class="unit"
		stroke="#dddddd"
		fill="white"
		stroke-width="0.5"
		/>
		
			<path d="M275.259,159.28 L253.285,153.805 L259.423,149.424 L281.395,154.898 L275.259,159.28 L275.259,159.28 Z M275.259,159.28" id="1002" class="unit"
		stroke="#dddddd"
		fill="white"
		stroke-width="0.5"
		/>
		
			<path d="M253.677,150.168 L249.651,153.064 L252.78,153.844 L240.268,162.76 L229.631,160.14 L246.21,148.33 L253.677,150.168 L253.677,150.168 Z M253.677,150.168" id="1003" class="unit"
		stroke="#dddddd"
		fill="white"
		stroke-width="0.5"
		/>
		
			<path d="M253.089,153.922 L275.062,159.398 C270.917,162.396 266.761,165.382 262.59,168.355 L240.617,162.84 L253.089,153.922 L253.089,153.922 Z M253.089,153.922" id="1004" class="unit"
		stroke="#dddddd"
		fill="white"
		stroke-width="0.5"
		/>
		
			<path d="M235.222,145.593 L245.858,148.213 L229.323,160.024 L218.688,157.403 L235.222,145.593 L235.222,145.593 Z M235.222,145.593" id="1005" class="unit"
		stroke="#dddddd"
		fill="white"
		stroke-width="0.5"
		/>
		
			<path d="M190.767,158.497 L182.478,164.402 L174.464,162.409 L180.799,157.874 L185.607,157.209 L190.767,158.497 L190.767,158.497 Z M190.767,158.497" id="1006" class="unit"
		stroke="#dddddd"
		fill="white"
		stroke-width="0.5"
		/>
		
			<path d="M199.645,160.688 L191.355,166.632 L182.832,164.482 L191.121,158.577 L199.645,160.688 L199.645,160.688 Z M199.645,160.688" id="1007" class="unit"
		stroke="#dddddd"
		fill="white"
		stroke-width="0.5"
		/>
		
			<path d="M205.196,162.098 L197.923,167.26 L192.723,165.972 L199.956,160.768 L205.196,162.098 L205.196,162.098 Z M205.196,162.098" id="1008" class="unit"
		stroke="#dddddd"
		fill="white"
		stroke-width="0.5"
		/>
		
			<path d="M211.255,167.18 L206.838,166.084 L203.359,168.589 L198.317,167.299 L205.511,162.176 L210.672,163.465 L212.508,166.282 L211.255,167.18 L211.255,167.18 Z M211.255,167.18" id="1009" class="unit"
		stroke="#dddddd"
		fill="white"
		stroke-width="0.5"
		/>
		
			<path d="M174.269,162.526 L191.16,166.751 L186.778,169.879 L169.889,165.655 L174.269,162.526 L174.269,162.526 Z M174.269,162.526" id="1010" class="unit"
		stroke="#dddddd"
		fill="white"
		stroke-width="0.5"
		/>
		
			<path d="M187.367,179.969 L159.569,173.044 L169.694,165.811 L186.937,170.112 L192.528,166.085 L203.162,168.706 L187.367,179.969 L187.367,179.969 Z M187.367,179.969" id="1011" class="unit"
		stroke="#dddddd"
		fill="white"
		stroke-width="0.5"
		/>
		
			<path d="M159.373,173.166 L179.311,178.17 L173.29,182.435 L153.35,177.469 L159.373,173.166 L159.373,173.166 Z M159.373,173.166" id="1012" class="unit"
		stroke="#dddddd"
		fill="white"
		stroke-width="0.5"
		/>
		
			<path d="M187.719,180.047 L206.993,166.321 L217.864,169.019 L198.588,182.787 L187.719,180.047 L187.719,180.047 Z M187.719,180.047" id="1013" class="unit"
		stroke="#dddddd"
		fill="white"
		stroke-width="0.5"
		/>
		
			<path d="M229.434,171.911 L250.352,177.116 L247.498,179.149 L257.234,181.575 L240.811,193.304 L210.159,185.642 L229.434,171.911 L229.434,171.911 Z M229.434,171.911" id="1014" class="unit"
		stroke="#dddddd"
		fill="white"
		stroke-width="0.5"
		/>
		
			<path d="M167.076,181.061 L163.361,183.723 L162.696,183.567 L161.993,184.075 L148.739,180.752 L153.156,177.622 L167.076,181.061 L167.076,181.061 Z M167.076,181.061" id="1015" class="unit"
		stroke="#dddddd"
		fill="white"
		stroke-width="0.5"
		/>
		
			<path d="M229.084,171.837 L209.81,185.564 L198.941,182.865 L218.217,169.099 L229.084,171.837 L229.084,171.837 Z M229.084,171.837" id="1016" class="unit"
		stroke="#dddddd"
		fill="white"
		stroke-width="0.5"
		/>
		
			<path d="M155.735,182.706 L150.262,186.617 L155.188,187.831 L152.215,189.942 L147.486,190.449 L143.459,184.505 L148.542,180.906 L155.735,182.706 L155.735,182.706 Z M155.735,182.706" id="1017" class="unit"
		stroke="#dddddd"
		fill="white"
		stroke-width="0.5"
		/>
		
			<path d="M238.388,205.976 L205.897,229.205 L134.935,220.21 L123.675,217.394 L126.764,215.206 L123.283,214.305 L150.613,194.79 L148.619,192.053 L154.445,191.467 L159.605,187.75 L164.57,189.003 L179.662,178.247 L199.289,183.138 L203.669,190.097 L198.041,194.124 L207.15,196.394 L202.731,199.562 L215.554,202.767 L238.388,205.976 L238.388,205.976 Z M238.388,205.976" id="1018" class="unit"
		stroke="#dddddd"
		fill="white"
		stroke-width="0.5"
		/>
		
			<path d="M193.937,104.451 L218.256,110.513 L213.056,114.228 L188.698,108.166 L193.937,104.451 L193.937,104.451 Z M193.937,104.451" id="1019" class="unit"
		stroke="#dddddd"
		fill="white"
		stroke-width="0.5"
		/>
		
			<path d="M188.5,108.324 L212.856,114.384 L207.657,118.098 L183.3,112.037 L188.5,108.324 L188.5,108.324 Z M188.5,108.324" id="1020" class="unit"
		stroke="#dddddd"
		fill="white"
		stroke-width="0.5"
		/>
		
			<path d="M169.265,98.311 L191.003,103.708 L180.173,111.45 L207.464,118.257 L194.639,127.368 L145.65,115.168 L169.265,98.311 L169.265,98.311 Z M169.265,98.311" id="1021" class="unit"
		stroke="#dddddd"
		fill="white"
		stroke-width="0.5"
		/>
		
			<path d="M141.663,114.344 L194.441,127.523 L185.881,133.627 L133.099,120.447 L141.663,114.344 L141.663,114.344 Z M141.663,114.344" id="1022" class="unit"
		stroke="#dddddd"
		fill="white"
		stroke-width="0.5"
		/>
		
			<path d="M132.903,120.603 L186.937,134.057 L176.067,141.798 L122.072,128.344 L132.903,120.603 L132.903,120.603 Z M132.903,120.603" id="1023" class="unit"
		stroke="#dddddd"
		fill="white"
		stroke-width="0.5"
		/>
		
			<path d="M175.834,141.957 L121.84,128.505 L115.623,132.949 L115.624,132.949 L111.908,135.579 L159.724,147.511 L158.201,148.567 L160.819,149.231 L162.813,147.783 L168.874,146.963 L169.889,146.229 L175.834,141.957 Z M175.834,141.957" id="1024" class="unit"
		stroke="#dddddd"
		fill="white"
		stroke-width="0.5"
		/>
		
			<path d="M158.278,151.068 L135.249,145.241 L138.769,142.347 L159.177,147.549 L157.691,148.644 L160.624,149.347 L158.278,151.068 L158.278,151.068 Z M158.278,151.068" id="1026" class="unit"
		stroke="#dddddd"
		fill="white"
		stroke-width="0.5"
		/>
		
			<path d="M228.729,116.692 L223.805,120.213 L218.093,118.764 L223.022,115.244 L228.729,116.692 L228.729,116.692 Z M228.729,116.692" id="1027" class="unit"
		stroke="#dddddd"
		fill="white"
		stroke-width="0.5"
		/>
		
			<path d="M90.017,158.607 L121.125,166.43 L124.513,164.012 L148.138,169.953 L155.036,165.22 L98.316,150.957 L90.017,158.607 Z M90.017,158.607" id="1028" class="unit"
		stroke="#dddddd"
		fill="white"
		stroke-width="0.5"
		/>
		
			<path d="M121.199,166.622 L121.192,166.653 L121.166,166.646 L121.156,166.653 L121.148,166.642 L89.841,158.769 L86.9,161.479 L140.76,175.024 L141.046,174.819 L147.918,170.104 L124.554,164.229 L121.199,166.622 Z M121.199,166.622" id="1029" class="unit"
		stroke="#dddddd"
		fill="white"
		stroke-width="0.5"
		/>
		
			<path d="M77.698,169.967 L129.565,183.01 L133.096,180.516 L133.099,180.517 L133.399,180.302 L133.449,180.267 L140.547,175.177 L86.725,161.642 L77.698,169.967 Z M77.698,169.967" id="1030" class="unit"
		stroke="#dddddd"
		fill="white"
		stroke-width="0.5"
		/>
		
			<path d="M95.889,175.809 L93.648,177.355 L89.669,180.16 L122.132,188.258 L127.546,184.429 L128.441,183.798 L128.448,183.8 L129.35,183.163 L96.979,175.022 L95.889,175.809 Z M95.889,175.809" id="1031" class="unit"
		stroke="#dddddd"
		fill="white"
		stroke-width="0.5"
		/>
		
			<path d="M63.818,169.92 L93.37,177.274 L89.195,180.245 L122.208,188.502 L127.667,184.608 L136.188,197.295 L116.52,211.337 L118.904,211.924 L110.185,218.182 L25.697,197.103 L63.818,169.92 L63.818,169.92 Z M63.818,169.92" id="1032" class="unit"
		stroke="#dddddd"
		fill="white"
		stroke-width="0.5"
		/>
		
			<path d="M275.181,21.503 L296.017,6.641 L304.072,9.377 L284.014,23.694 L275.181,21.503 L275.181,21.503 Z M275.181,21.503" id="1033" class="unit"
		stroke="#dddddd"
		fill="white"
		stroke-width="0.5"
		/>
		
			<path d="M348.294,41.292 L366.826,28.072 L381.176,32.179 L368.078,41.526 L356.232,38.554 L351.343,42.033 L348.294,41.292 L348.294,41.292 Z M348.294,41.292" id="1034" class="unit"
		stroke="#dddddd"
		fill="white"
		stroke-width="0.5"
		/>
		
			<path d="M407.135,44.46 L390.558,47.117 L368.43,41.605 L381.486,32.26 L410.809,41.841 L407.135,44.46 L407.135,44.46 Z M407.135,44.46" id="1035" class="unit"
		stroke="#dddddd"
		fill="white"
		stroke-width="0.5"
		/>
		
			<path d="M369.131,50.678 L333.668,41.84 L337.853,38.866 L378.633,49.034 L369.131,50.678 L369.131,50.678 Z M369.131,50.678" id="1036" class="unit"
		stroke="#dddddd"
		fill="white"
		stroke-width="0.5"
		/>
		
			<path d="M317.563,53.024 L249.729,36.17 L267.714,23.304 L274.907,21.623 L284.134,23.928 L304.385,9.498 L356.621,25.142 L317.563,53.024 L317.563,53.024 Z M317.563,53.024" id="1037" class="unit"
		stroke="#dddddd"
		fill="white"
		stroke-width="0.5"
		/>
		
			<path d="M356.971,25.219 L366.473,27.996 L347.982,41.214 L338.051,38.713 L356.971,25.219 L356.971,25.219 Z M356.971,25.219" id="1038" class="unit"
		stroke="#dddddd"
		fill="white"
		stroke-width="0.5"
		/>
		
			<path d="M356.348,38.789 L390.089,47.198 L379.062,48.957 L351.694,42.114 L356.348,38.789 L356.348,38.789 Z M356.348,38.789" id="1039" class="unit"
		stroke="#dddddd"
		fill="white"
		stroke-width="0.5"
		/>
		
			<path d="M351.42,53.455 L332.301,56.702" id="1040" class="unit"
		stroke="#dddddd"
		fill="white"
		stroke-width="0.5"
		/>
		
			<path d="M332.301,56.701 L317.874,53.101 L326.082,47.235 L351.422,53.455 L332.301,56.701 L332.301,56.701 Z M332.301,56.701" id="1041" class="unit"
		stroke="#dddddd"
		fill="white"
		stroke-width="0.5"
		/>
		
			<path d="M326.084,47.237 L333.477,41.957 L369.054,50.718 L354.394,53.103 L326.084,47.237 L326.084,47.237 Z M326.084,47.237" id="1042" class="unit"
		stroke="#dddddd"
		fill="white"
		stroke-width="0.5"
		/>
		
			<path d="M405.688,54.472 L400.84,57.912 L387.197,54.547 L398.454,52.672 L405.688,54.472 L405.688,54.472 Z M405.688,54.472" id="1043" class="unit"
		stroke="#dddddd"
		fill="white"
		stroke-width="0.5"
		/>
		
			<path d="M395.992,61.276 L391.378,64.561 L365.692,58.147 L376.444,56.388 L395.992,61.276 L395.992,61.276 Z M395.992,61.276" id="1044" class="unit"
		stroke="#dddddd"
		fill="white"
		stroke-width="0.5"
		/>
		
			<path d="M386.724,54.589 L400.568,58.069 C399.137,59.112 397.687,60.143 396.227,61.159 L376.876,56.31 L386.724,54.589 L386.724,54.589 Z M386.724,54.589" id="1045" class="unit"
		stroke="#dddddd"
		fill="white"
		stroke-width="0.5"
		/>
		
			<path d="M424.964,64.132 L420.624,67.261 L398.258,61.669 L402.598,58.58 L424.964,64.132 L424.964,64.132 Z M424.964,64.132" id="1046" class="unit"
		stroke="#dddddd"
		fill="white"
		stroke-width="0.5"
		/>
		
			<path d="M429.107,56.27 L431.686,59.322 L425.161,64.016 L402.797,58.424 L407.645,54.944 L410.457,55.649 L421.367,54.359 L429.107,56.27 L429.107,56.27 Z M429.107,56.27" id="1047" class="unit"
		stroke="#dddddd"
		fill="white"
		stroke-width="0.5"
		/>
		
			<path d="M420.426,67.378 L415.814,70.664 L393.448,65.072 L398.064,61.826 L420.426,67.378 L420.426,67.378 Z M420.426,67.378" id="1048" class="unit"
		stroke="#dddddd"
		fill="white"
		stroke-width="0.5"
		/>
		
			<path d="M259.647,67.674 L193.701,51.227 L207.582,41.332 L179.899,34.411 L195.968,22.952 L288.92,45.91 L259.647,67.674 L259.647,67.674 Z M259.647,67.674" id="1049" class="unit"
		stroke="#dddddd"
		fill="white"
		stroke-width="0.5"
		/>
		
			<path d="M281.356,17.006 L275.181,21.503 L267.387,23.428 L249.367,36.305 L195.967,22.951 L223.728,2.303 L281.356,17.006 L281.356,17.006 Z M281.356,17.006" id="1050" class="unit"
		stroke="#dddddd"
		fill="white"
		stroke-width="0.5"
		/>
		
			<path d="M193.505,51.342 L269.236,70.232 L260.36,76.571 L184.627,57.679 L193.505,51.342 L193.505,51.342 Z M193.505,51.342" id="1051" class="unit"
		stroke="#dddddd"
		fill="white"
		stroke-width="0.5"
		/>
		
			<path d="M345.439,63.624 L349.152,60.924 L365.223,58.226 L415.617,70.818 L402.557,80.124 L367.918,71.483 L354.509,81.065 L352.085,80.478 L365.494,70.896 L343.053,65.306 L343.365,65.109" id="1052" class="unit"
		stroke="#dddddd"
		fill="white"
		stroke-width="0.5"
		/>
		
			<path d="M225.8,68.159 L260.284,76.723 L262.472,80.007 L257.156,83.802 L217.666,73.949 L225.8,68.159 L225.8,68.159 Z M225.8,68.159" id="1053" class="unit"
		stroke="#dddddd"
		fill="white"
		stroke-width="0.5"
		/>
		
			<path d="M184.433,57.835 L225.487,68.04 L217.158,73.986 L256.96,83.917 L237.412,97.88 L147.253,75.393 L149.247,61.745 C149.352,60.884 149.625,60.155 150.07,59.555 C150.513,58.903 151.283,58.355 152.377,57.912 L153.863,57.559 C155.192,57.376 157.121,57.599 159.649,58.224 L177.594,62.72 L184.433,57.835 L184.433,57.835 Z M184.433,57.835" id="1054" class="unit"
		stroke="#dddddd"
		fill="white"
		stroke-width="0.5"
		/>
		
			<path d="M277.292,89.042 L299.967,94.673 L291.365,100.851 L268.649,95.18 L277.292,89.042 L277.292,89.042 Z M277.292,89.042" id="1055" class="unit"
		stroke="#dddddd"
		fill="white"
		stroke-width="0.5"
		/>
		
			<path d="M147.213,75.59 L237.216,98.039 L230.374,102.927 L146.159,81.926 L147.213,75.59 L147.213,75.59 Z M147.213,75.59" id="1056" class="unit"
		stroke="#dddddd"
		fill="white"
		stroke-width="0.5"
		/>
		
			<path d="M277.292,110.865 L254.576,105.234 L263.88,98.626 L287.048,104.275 L277.292,110.865 L277.292,110.865 Z M277.292,110.865" id="1057" class="unit"
		stroke="#dddddd"
		fill="white"
		stroke-width="0.5"
		/>
		
			<path d="M263.88,98.625 L268.376,95.38 L277.685,97.686 L273.188,100.93 L273.459,101.01 L263.88,98.625 L263.88,98.625 Z M263.88,98.625" id="1058" class="unit"
		stroke="#dddddd"
		fill="white"
		stroke-width="0.5"
		/>
		
			<path d="M266.188,108.284 L262.003,111.297 L250.232,108.324 L254.38,105.35 L266.188,108.284 L266.188,108.284 Z M266.188,108.284" id="1059" class="unit"
		stroke="#dddddd"
		fill="white"
		stroke-width="0.5"
		/>
		
			<path d="M354.666,81.3 L368.076,71.72 L402.366,80.285 L389.11,89.75 L397.32,91.782 L362.913,116.343 L309.623,103.044 L318.147,96.944 L279.632,87.363 L301.959,71.406 L342.777,65.422 L364.944,70.936 L351.534,80.519 L354.666,81.3 L354.666,81.3 Z M354.666,81.3" id="1060" class="unit"
		stroke="#dddddd"
		fill="white"
		stroke-width="0.5"
		/>
		
			<path d="M250.041,108.479 L272.717,114.152 L268.611,117.083 L245.935,111.411 L250.041,108.479 L250.041,108.479 Z M250.041,108.479" id="1061" class="unit"
		stroke="#dddddd"
		fill="white"
		stroke-width="0.5"
		/>
		
			<path d="M268.416,117.201 L260.635,122.753 L237.96,117.082 L245.741,111.528 L268.416,117.201 L268.416,117.201 Z M268.416,117.201" id="1062" class="unit"
		stroke="#dddddd"
		fill="white"
		stroke-width="0.5"
		/>
		
			<path d="M146.121,82.119 L230.182,103.041 L223.221,108.008 L216.303,108.323 L144.91,90.531 L146.121,82.119 L146.121,82.119 Z M146.121,82.119" id="1063" class="unit"
		stroke="#dddddd"
		fill="white"
		stroke-width="0.5"
		/>
		
			<path d="M237.726,117.239 L260.441,122.912 L256.101,126.002 L233.426,120.33 L237.726,117.239 L237.726,117.239 Z M237.726,117.239" id="1064" class="unit"
		stroke="#dddddd"
		fill="white"
		stroke-width="0.5"
		/>
		
			<path d="M233.228,120.485 L255.906,126.116 L250.9,129.716 L228.188,124.043 L233.228,120.485 L233.228,120.485 Z M233.228,120.485" id="1065" class="unit"
		stroke="#dddddd"
		fill="white"
		stroke-width="0.5"
		/>
		
			<path d="M240.971,136.834 L218.256,131.163 L227.991,124.201 L250.704,129.872 L240.971,136.834 L240.971,136.834 Z M240.971,136.834" id="1066" class="unit"
		stroke="#dddddd"
		fill="white"
		stroke-width="0.5"
		/>
		
			<path d="M217.705,153.415 L195.029,147.742 L199.408,144.614 L222.083,150.287 L217.705,153.415 L217.705,153.415 Z M217.705,153.415" id="1067" class="unit"
		stroke="#dddddd"
		fill="white"
		stroke-width="0.5"
		/>
		
			<path d="M238.116,137.809 L233.854,140.822 L223.844,138.318 L219.387,141.527 L207.774,138.632 L216.491,132.415 L238.116,137.809 L238.116,137.809 Z M238.116,137.809" id="1068" class="unit"
		stroke="#dddddd"
		fill="white"
		stroke-width="0.5"
		/>
		
			<path d="M222.28,150.13 L199.603,144.458 L207.58,138.748 L230.293,144.421 L222.28,150.13 L222.28,150.13 Z M222.28,150.13" id="1069" class="unit"
		stroke="#dddddd"
		fill="white"
		stroke-width="0.5"
		/>
		
			<path d="M213.76,156.231 L191.082,150.558 L194.836,147.861 L217.513,153.533 L213.76,156.231 L213.76,156.231 Z M213.76,156.231" id="1070" class="unit"
		stroke="#dddddd"
		fill="white"
		stroke-width="0.5"
		/>
		
			<path d="M200.816,153.18 L196.513,156.232 L190.649,154.784 L188.498,152.4 L190.882,150.681 L200.816,153.18 L200.816,153.18 Z M200.816,153.18" id="1071" class="unit"
		stroke="#dddddd"
		fill="white"
		stroke-width="0.5"
		/>
		
			<path d="M219.307,157.796 L215.049,160.845 L205.742,158.538 L210.005,155.488 L219.307,157.796 L219.307,157.796 Z M219.307,157.796" id="1072" class="unit"
		stroke="#dddddd"
		fill="white"
		stroke-width="0.5"
		/>
		
			<path d="M201.169,153.26 L209.692,155.372 L205.39,158.462 L196.869,156.312 L201.169,153.26 L201.169,153.26 Z M201.169,153.26" id="1073" class="unit"
		stroke="#dddddd"
		fill="white"
		stroke-width="0.5"
		/>
		
			<path d="M256.492,97.333 L251.566,100.853 L245.855,99.405 L250.784,95.884 L256.492,97.333 L256.492,97.333 Z M256.492,97.333" id="1074" class="unit"
		stroke="#dddddd"
		fill="white"
		stroke-width="0.5"
		/>
		
			<path d="M345.361,63.585 L369.953,69.921" id="1075" class="unit"
		stroke="#dddddd"
		fill="white"
		stroke-width="0.5"
		/>
		
			<path d="M369.953,69.92 L367.921,71.484" id="1076" class="unit"
		stroke="#dddddd"
		fill="white"
		stroke-width="0.5"
		/>
		
			<path d="M327.453,46.025 L354.311,53.103" id="1077" class="unit"
		stroke="#dddddd"
		fill="white"
		stroke-width="0.5"
		/>
		
			<path d="M267.008,82.629 L271.936,79.108 L277.643,80.555 L272.717,84.077 L267.008,82.629 L267.008,82.629 Z M267.008,82.629" id="1078" class="unit"
		stroke="#dddddd"
		fill="white"
		stroke-width="0.5"
		/>
		
			<path d="M267.868,61.395 L277.956,63.936 L269.275,70.157 L259.187,67.574 L267.868,61.395 L267.868,61.395 Z M267.868,61.395" id="1079" class="unit"
		stroke="#dddddd"
		fill="white"
		stroke-width="0.5"
		/>
		
			<path d="M213.486,72.461 L213.678,72.539 L213.757,72.735 L213.678,72.929 L213.486,73.008 L213.289,72.929 L213.213,72.735 L213.289,72.539 L213.486,72.461 M217.433,73.712 L217.509,73.907 L217.433,74.101 L217.238,74.18 L217.046,74.101 L216.966,73.907 L217.046,73.712 L217.238,73.635 L217.433,73.712 M216.263,73.517 L216.183,73.711 L215.989,73.791 L215.795,73.711 L215.716,73.517 L215.795,73.323 L215.989,73.244 L216.183,73.323 L216.263,73.517 M214.929,72.93 L215.01,73.125 L214.929,73.321 L214.734,73.4 L214.541,73.321 L214.461,73.125 L214.541,72.93 L214.734,72.852 L214.929,72.93 M178.414,62.723 L178.609,62.802 L178.687,62.998 L178.609,63.191 L178.414,63.27 L178.217,63.19 L178.139,62.997 L178.217,62.801 L178.414,62.723 M181.109,63.506 L181.188,63.701 L181.109,63.895 L180.915,63.973 L180.72,63.895 L180.641,63.701 L180.72,63.506 L180.915,63.428 L181.109,63.506 M179.939,63.388 L179.861,63.584 L179.666,63.662 L179.471,63.584 L179.392,63.388 L179.471,63.193 L179.666,63.115 L179.861,63.193 L179.939,63.388 M193.741,67.142 L193.661,67.336 L193.468,67.415 L193.271,67.336 L193.196,67.142 L193.271,66.949 L193.468,66.87 L193.661,66.949 L193.741,67.142 M194.523,67.338 L194.717,67.261 L194.91,67.338 L194.988,67.532 L194.91,67.729 L194.717,67.807 L194.523,67.729 L194.444,67.532 L194.523,67.338 M196.162,67.652 L196.241,67.846 L196.162,68.039 L195.969,68.12 L195.774,68.039 L195.696,67.846 L195.774,67.652 L195.969,67.573 L196.162,67.652 M191.157,66.244 L191.236,66.438 L191.157,66.633 L190.964,66.711 L190.767,66.633 L190.691,66.438 L190.767,66.244 L190.964,66.165 L191.157,66.244 M189.516,65.929 L189.711,65.853 L189.906,65.929 L189.983,66.125 L189.906,66.32 L189.711,66.398 L189.516,66.32 L189.438,66.125 L189.516,65.929 M192.021,66.634 L192.214,66.557 L192.408,66.634 L192.485,66.829 L192.408,67.023 L192.214,67.101 L192.021,67.023 L191.942,66.829 L192.021,66.634 M197.022,67.965 L197.216,67.887 L197.411,67.965 L197.488,68.159 L197.411,68.352 L197.216,68.433 L197.022,68.352 L196.944,68.159 L197.022,67.965 M185.762,64.913 L185.958,64.834 L186.155,64.913 L186.232,65.107 L186.155,65.304 L185.958,65.381 L185.762,65.304 L185.685,65.107 L185.762,64.913 M187.209,65.149 L187.405,65.228 L187.484,65.421 L187.405,65.616 L187.209,65.694 L187.014,65.616 L186.937,65.421 L187.014,65.228 L187.209,65.149 M188.656,65.618 L188.735,65.814 L188.656,66.007 L188.462,66.086 L188.267,66.007 L188.189,65.814 L188.267,65.618 L188.462,65.539 L188.656,65.618 M183.693,64.405 L183.614,64.6 L183.418,64.679 L183.223,64.6 L183.145,64.405 L183.223,64.213 L183.418,64.133 L183.614,64.213 L183.693,64.405 M184.515,64.522 L184.71,64.445 L184.905,64.522 L184.983,64.717 L184.905,64.912 L184.71,64.99 L184.515,64.912 L184.435,64.717 L184.515,64.522 M181.97,63.819 C182.022,63.768 182.088,63.74 182.166,63.74 L182.361,63.819 L182.44,64.013 L182.361,64.21 L182.166,64.286 L181.97,64.21 L181.891,64.013 L181.97,63.819 M206.953,70.897 L207.032,70.704 L207.225,70.626 L207.42,70.704 L207.498,70.897 L207.42,71.092 L207.225,71.172 L207.032,71.092 L206.953,70.897 M206.17,70.78 L205.978,70.858 L205.783,70.78 L205.704,70.586 L205.783,70.391 L205.978,70.312 L206.17,70.391 L206.249,70.586 L206.17,70.78 M208.282,71.093 L208.475,71.018 L208.671,71.093 L208.748,71.287 L208.671,71.484 L208.475,71.56 L208.282,71.484 L208.204,71.287 L208.282,71.093 M209.537,71.406 L209.73,71.326 L209.926,71.406 L210.002,71.6 L209.926,71.793 L209.73,71.872 L209.537,71.793 L209.458,71.6 L209.537,71.406 M210.979,71.719 L211.177,71.796 L211.253,71.993 L211.177,72.188 L210.979,72.265 L210.787,72.188 L210.71,71.993 L210.787,71.796 L210.979,71.719 M212.035,72.149 L212.229,72.072 L212.425,72.149 L212.502,72.343 L212.425,72.538 L212.229,72.617 L212.035,72.538 L211.959,72.343 L212.035,72.149 M199.526,68.668 L199.719,68.59 L199.913,68.668 L199.992,68.862 L199.913,69.059 L199.719,69.137 L199.526,69.059 L199.447,68.862 L199.526,68.668 M200.776,69.059 L200.968,68.979 L201.164,69.059 L201.242,69.253 L201.164,69.448 L200.968,69.526 L200.776,69.448 L200.698,69.253 L200.776,69.059 M198.664,68.354 L198.741,68.55 L198.664,68.745 L198.472,68.824 L198.275,68.745 L198.198,68.55 L198.275,68.354 L198.471,68.277 L198.664,68.354 M203.28,69.683 L203.473,69.607 L203.668,69.683 L203.745,69.88 L203.668,70.075 L203.473,70.153 L203.28,70.075 L203.203,69.88 L203.28,69.683 M204.921,70.077 L205,70.27 L204.921,70.466 L204.728,70.545 L204.532,70.466 L204.456,70.27 L204.532,70.077 L204.728,69.998 L204.921,70.077 M202.031,69.372 L202.224,69.293 L202.42,69.372 L202.496,69.567 L202.42,69.761 L202.224,69.84 L202.031,69.761 L201.952,69.567 L202.031,69.372" id="1080" class="unit"
		stroke="#dddddd"
		fill="white"
		stroke-width="0.5"
		/>
		
			<path d="M113.572,148.929 L113.621,148.735 L113.661,148.745 L118.766,145.104 L107.687,142.319 L98.492,150.794 L155.256,165.069 L161.29,160.929 L113.572,148.929 Z M113.572,148.929" id="1081" class="unit"
		stroke="#dddddd"
		fill="white"
		stroke-width="0.5"
		/>
		
			<path d="M161.322,160.73 L157.192,154.763 L119.021,145.168 L113.917,148.809 L161.322,160.73 Z M161.322,160.73" id="1082" class="unit"
		stroke="#dddddd"
		fill="white"
		stroke-width="0.5"
		/>
		
		</g>
	
		
 		
			<g class="parking"
				transform="translate(143.3,578.3) scale(0.7)"
				style="display: none"
				>
			
			</g>
		
			<g class="public_transport"
				transform="translate(126.3,561.3) scale(0.7)"
				style="display: none"
				>
			
			</g>
		
			<g class="elevator"
				transform="translate(133.3,549.3) scale(0.7)"
				style="display: none"
				>
			
			</g>
		
			<g class="elevator"
				transform="translate(155.3,548.3) scale(0.7)"
				style="display: none"
				>
			
			</g>
		
			<g class="elevator"
				transform="translate(169.3,520.3) scale(0.7)"
				style="display: none"
				>
			
			</g>
		
			<g class="cash_machine"
				transform="translate(188.3,503.3) scale(0.7)"
				style="display: none"
				>
			
			</g>
		
			<g class="escalator"
				transform="translate(203.3,495.3) scale(0.7)"
				style="display: none"
				>
			
			</g>
		
			<g class="escalator"
				transform="translate(223.3,477.3) scale(0.7)"
				style="display: none"
				>
			
			</g>
		
			<g class="escalator"
				transform="translate(238.3,461.3) scale(0.7)"
				style="display: none"
				>
			
			</g>
		
			<g class="elevator"
				transform="translate(258.3,445.3) scale(0.7)"
				style="display: none"
				>
			
			</g>
		
			<g class="escalator"
				transform="translate(267.3,440.3) scale(0.7)"
				style="display: none"
				>
			
			</g>
		
			<g class="elevator"
				transform="translate(285.3,425.3) scale(0.7)"
				style="display: none"
				>
			
			</g>
		
			<g class="escalator"
				transform="translate(302.3,408.3) scale(0.7)"
				style="display: none"
				>
			
			</g>
		
			<g class="customer_services"
				transform="translate(304.3,399.3) scale(0.7)"
				style="display: none"
				>
			
			</g>
		
			<g class="toilets"
				transform="translate(314.3,388.3) scale(0.7)"
				style="display: none"
				>
			
			</g>
		
			<g class="cash_machine"
				transform="translate(319.3,395.3) scale(0.7)"
				style="display: none"
				>
			
			</g>
		
			<g class="baby_changing"
				transform="translate(334.3,389.3) scale(0.7)"
				style="display: none"
				>
			
			</g>
		
			<g class="disabled_toilet"
				transform="translate(337.3,400.3) scale(0.7)"
				style="display: none"
				>
			
			</g>
		
			<g class="parking"
				transform="translate(142.3,410.3) scale(0.7)"
				style="display: none"
				>
			
			</g>
		
			<g class="click_and_collect"
				transform="translate(304.3,399.3) scale(0.7)"
				style="display: none"
				>
			
			</g>
		
	
</svg>