<?xml version="1.0" encoding="utf-8"?>
<!-- Generator: Adobe Illustrator 16.0.0, SVG Export Plug-In . SVG Version: 6.00 Build 0)  -->
<!DOCTYPE svg PUBLIC "-//W3C//DTD SVG 1.1//EN" "http://www.w3.org/Graphics/SVG/1.1/DTD/svg11.dtd">
<svg version="1.1"
	 id="Layer_1" xmlns:rdf="http://www.w3.org/1999/02/22-rdf-syntax-ns#" xmlns:cc="http://creativecommons.org/ns#" xmlns:dc="http://purl.org/dc/elements/1.1/"
	 xmlns="http://www.w3.org/2000/svg" xmlns:xlink="http://www.w3.org/1999/xlink" x="0px" y="0px" width="22px" height="22px"
	 viewBox="0 0 22 22" enable-background="new 0 0 22 22" xml:space="preserve">
<path class="black" d="M22,11c0,6.075-4.925,11-11,11S0,17.075,0,11S4.925,0,11,0S22,4.925,22,11z"/>
<path class="white" fill="#FFFFFF" d="M21,11c0,5.523-4.477,10-10,10C5.477,21,1,16.523,1,11C1,5.477,5.477,1,11,1C16.523,1,21,5.477,21,11z"/>
<path class="black" d="M10.991,5.092c-0.304,0-0.566,0.121-0.691,0.297l0,0C9.678,5.653,9.243,6.254,9.243,6.956l0,0
	c0,0.944,0.787,1.708,1.758,1.708l0,0c0.972,0,1.757-0.764,1.757-1.708l0,0c0-0.702-0.438-1.304-1.058-1.567l0,0
	c0.173-0.237,0.021-0.658,0.021-0.658l0,0C11.618,4.939,11.33,5.092,10.991,5.092L10.991,5.092z M7.062,8.973
	c-0.439,0-0.723,0.274-0.723,0.635l0,0c0,0.377,0.283,0.651,0.723,0.651l0,0h2.146v1.812c0.204-0.154,0.594-0.358,1.086-0.17l0,0
	c0.683,0.263,1.435,0.841,2.47,0.455l0,0v-2.097h2.172c0.426,0,0.727-0.274,0.727-0.651l0,0c0-0.361-0.301-0.635-0.727-0.635l0,0
	H7.062z M11.641,13.884l1.063,1.027l-0.638,1.399c-0.172,0.377-0.034,0.754,0.305,0.898l0,0c0.355,0.15,0.734-0.004,0.906-0.38l0,0
	l0.81-1.779c-0.001,0-0.001,0-0.001,0l0,0c0.123-0.249,0.07-0.549-0.168-0.78l0,0l-1.152-1.113L11.641,13.884z M8.09,14.271
	c-0.24,0.23-0.293,0.53-0.167,0.779l0,0H7.921l0.81,1.779c0.17,0.376,0.549,0.531,0.905,0.38l0,0
	c0.339-0.146,0.477-0.522,0.305-0.897l0,0l-0.637-1.4l1.065-1.027h0.024l-1.184-0.693L8.09,14.271z"/>
</svg>
