<?xml version="1.0" encoding="utf-8"?>
<!DOCTYPE svg PUBLIC "-//W3C//DTD SVG 1.1//EN" "http://www.w3.org/Graphics/SVG/1.1/DTD/svg11.dtd">
<svg version="1.1"
	 id="Layer_1" xmlns:rdf="http://www.w3.org/1999/02/22-rdf-syntax-ns#" xmlns:cc="http://creativecommons.org/ns#" xmlns:dc="http://purl.org/dc/elements/1.1/"
	 xmlns="http://www.w3.org/2000/svg" xmlns:xlink="http://www.w3.org/1999/xlink" x="0px" y="0px" width="22px" height="22px"
	 viewBox="0 0 22 22" enable-background="new 0 0 22 22" xml:space="preserve">
<path class="black" d="M22,11c0,6.075-4.925,11-11,11S0,17.075,0,11S4.925,0,11,0S22,4.925,22,11z"/>
<path class="white" fill="#FFFFFF" d="M21,11c0,5.523-4.477,10-10,10C5.477,21,1,16.523,1,11C1,5.477,5.477,1,11,1
	C16.523,1,21,5.477,21,11z"/>
<path class="black" d="M15.452,7.901c-1.466,0.001-2.935,0.001-4.401,0.001c-1.601,0-3.202-0.009-4.802,0.006
	C5.731,7.911,5.308,8.13,5.292,8.71C5.275,9.317,5.649,9.612,6.24,9.633c0.434,0.013,0.868,0.008,1.301,0.008
	c1.378,0.003,1.404,0.002,1.413,1.341c0.003,0.62,0.179,0.939,0.849,0.92c0.866-0.025,1.734-0.012,2.601-0.002
	c0.427,0.002,0.672-0.131,0.727-0.613c0.061-0.535-0.305-1.27,0.241-1.56c0.448-0.239,1.108-0.078,1.675-0.093
	c0.133-0.004,0.266-0.004,0.398,0c0.658,0.017,1.287-0.111,1.264-0.913C16.686,7.978,16.057,7.9,15.452,7.901z"/>
<path class="black" d="M10.985,7.66c1.187,0.01,2.103-0.873,2.125-2.046c0.022-1.138-0.92-2.097-2.072-2.113
	c-1.165-0.018-2.1,0.901-2.1,2.063C8.938,6.776,9.792,7.651,10.985,7.66z"/>
<path class="black" d="M8.814,13.277c-0.574,0.1-1.634,1.505-1.639,2.117c-0.002,0.506,0.922,2.549,1.302,2.877
	c0.506,0.438,1.132,0.211,1.266-0.47c0.104-0.524-0.106-0.985-0.364-1.424c-0.369-0.621-0.391-1.147,0.284-1.604
	c0.245-0.166,0.626-0.445,0.29-0.812C9.653,13.641,9.364,13.186,8.814,13.277z"/>
<path class="black" d="M13.542,13.402c-0.534-0.444-0.834,0.104-1.176,0.367c-0.245,0.188-0.494,0.515-0.146,0.736
	c1.12,0.719,0.822,1.521,0.262,2.4c-0.119,0.185-0.115,0.441-0.143,0.551c-0.002,0.521,0.133,0.857,0.528,0.996
	c0.405,0.14,0.735-0.067,0.94-0.389c0.271-0.416,0.463-0.879,0.707-1.312C15.507,14.992,14.707,14.374,13.542,13.402z"/>
</svg>
