<?xml version="1.0" encoding="utf-8"?>
<!-- Generator: Adobe Illustrator 16.0.4, SVG Export Plug-In . SVG Version: 6.00 Build 0)  -->
<!DOCTYPE svg PUBLIC "-//W3C//DTD SVG 1.1//EN" "http://www.w3.org/Graphics/SVG/1.1/DTD/svg11.dtd">
<svg version="1.1"
	 id="Layer_1" xmlns:rdf="http://www.w3.org/1999/02/22-rdf-syntax-ns#" xmlns:cc="http://creativecommons.org/ns#" xmlns:dc="http://purl.org/dc/elements/1.1/" xmlns:svg="http://www.w3.org/2000/svg"
	 xmlns="http://www.w3.org/2000/svg" xmlns:xlink="http://www.w3.org/1999/xlink" x="0px" y="0px" width="22px" height="22px"
	 viewBox="0 0 22 22" enable-background="new 0 0 22 22" xml:space="preserve">
<path class="black" d="M22,11c0,6.075-4.925,11-11,11S0,17.075,0,11S4.925,0,11,0S22,4.925,22,11z"/>
<path class="white" fill="#FFFFFF" d="M21,11c0,5.523-4.477,10-10,10C5.477,21,1,16.523,1,11C1,5.477,5.477,1,11,1
	C16.523,1,21,5.477,21,11z"/>
<path class="black" d="M4.996,5.382V7.6h1.438l0.104-1.151h8.821L15.464,7.6h1.54V5.382H13c0,0-1.031,0-1.375,0s-1.375,0-1.375,0
	H4.996z"/>
<path class="black" d="M6.93,6.89l-0.88,9.728h9.796L14.968,6.89h-1.822c0,0-1,0-1.333,0c-0.724,0-2.896,0-2.896,0h1.812H6.93z"/>
<path class="white" fill="#FFFFFF" d="M6.582,16.132l0.792-8.756c0,0,1.813,0,2.417,0c0.63,0,2.521,0,2.521,0h2.211l0.791,8.756
	H6.582z"/>
<path class="black" d="M13.055,13.913c-0.168,0.06-0.336,0.093-0.505,0.104c-0.168,0.014-0.335,0.014-0.495,0
	c-0.162-0.016-0.328-0.037-0.494-0.062c-0.166-0.021-0.334-0.041-0.499-0.062c-0.164-0.021-0.328-0.033-0.495-0.035
	c-0.117-0.002-0.238,0.008-0.365,0.026c-0.127,0.021-0.293,0.072-0.501,0.153c-0.01-0.008-0.014-0.012-0.023-0.021
	c0.288-0.144,0.535-0.318,0.741-0.521c0.207-0.202,0.308-0.45,0.311-0.742c0.001-0.104-0.004-0.204-0.014-0.297
	c-0.011-0.093-0.035-0.187-0.072-0.276c0.485,0.006,0.729,0.002,1.215-0.021c-0.017-0.314-0.022-0.474-0.036-0.788
	c-0.591,0.026-0.886,0.027-1.477,0.009c-0.106-0.171-0.186-0.316-0.242-0.437c-0.056-0.121-0.094-0.227-0.113-0.318
	c-0.021-0.091-0.032-0.17-0.036-0.238c-0.004-0.068-0.003-0.141,0.001-0.215c0.015-0.26,0.118-0.459,0.301-0.607
	c0.185-0.147,0.422-0.219,0.721-0.219c0.251,0,0.45,0.043,0.596,0.133c0.146,0.092,0.26,0.2,0.338,0.326
	c0.079,0.126,0.134,0.258,0.162,0.395c0.029,0.139,0.052,0.252,0.064,0.345c0.573-0.036,0.859-0.065,1.434-0.146
	c-0.107-0.748-0.407-1.283-0.858-1.636c-0.452-0.352-1.013-0.504-1.728-0.503c-0.392,0.001-0.736,0.036-1.043,0.116
	c-0.306,0.08-0.571,0.191-0.794,0.338c-0.224,0.148-0.406,0.324-0.545,0.53s-0.23,0.429-0.266,0.674
	c-0.041,0.275-0.026,0.533,0.05,0.775c0.076,0.242,0.163,0.43,0.259,0.56c-0.283-0.034-0.425-0.054-0.706-0.099
	c-0.049,0.312-0.074,0.467-0.124,0.78c0.455,0.071,0.682,0.101,1.139,0.146c0.051,0.109,0.094,0.222,0.127,0.327
	c0.034,0.104,0.046,0.21,0.037,0.313c-0.016,0.166-0.068,0.322-0.163,0.467c-0.096,0.145-0.215,0.271-0.357,0.388
	c-0.142,0.114-0.306,0.217-0.491,0.302c-0.187,0.085-0.375,0.153-0.565,0.207c0.263,0.389,0.4,0.578,0.688,0.956
	c0.272-0.104,0.537-0.171,0.799-0.192c0.262-0.025,0.508-0.031,0.745-0.021c0.288,0.016,0.527,0.043,0.72,0.084
	c0.191,0.041,0.385,0.088,0.578,0.134c0.183,0.044,0.39,0.075,0.611,0.101c0.221,0.024,0.502,0.027,0.838,0.006
	c0.336-0.022,0.685-0.096,1.035-0.224s0.666-0.323,0.938-0.588c-0.367-0.319-0.544-0.485-0.888-0.821
	C13.41,13.721,13.223,13.854,13.055,13.913z"/>
</svg>
