<?xml version="1.0" encoding="utf-8"?>
<!-- Generator: Adobe Illustrator 16.0.0, SVG Export Plug-In . SVG Version: 6.00 Build 0)  -->
<!DOCTYPE svg PUBLIC "-//W3C//DTD SVG 1.1//EN" "http://www.w3.org/Graphics/SVG/1.1/DTD/svg11.dtd">
<svg version="1.1"
	 id="Layer_1" xmlns:svg="http://www.w3.org/2000/svg" xmlns:rdf="http://www.w3.org/1999/02/22-rdf-syntax-ns#" xmlns:cc="http://creativecommons.org/ns#" xmlns:dc="http://purl.org/dc/elements/1.1/"
	 xmlns="http://www.w3.org/2000/svg" xmlns:xlink="http://www.w3.org/1999/xlink" x="0px" y="0px" width="22px" height="22px"
	 viewBox="0 0 22 22" enable-background="new 0 0 22 22" xml:space="preserve">
<path class="black" d="M22,11c0,6.075-4.925,11-11,11S0,17.075,0,11S4.925,0,11,0S22,4.925,22,11z"/>
<path class="white" fill="#FFFFFF" d="M21,11c0,5.523-4.477,10-10,10C5.477,21,1,16.523,1,11C1,5.477,5.477,1,11,1C16.523,1,21,5.477,21,11z"/>
<path class="black" d="M17.625,6.652H4.375v4.488H7.42l1.668-3.366h4.729l-0.709,1.402h0.988l-0.957,1.964h4.486V6.652z"/>
<path class="black" d="M13.252,8.896l-0.145,0.268l-0.151,0.293h0.663l-2.693,5.33H6.854l0.599-1.121H7.087h-0.29L5.9,15.349h5.385l3.289-6.451
	L13.252,8.896L13.252,8.896z"/>
<path class="black" d="M11.005,13.945H5.62l3.29-6.452h5.386L11.005,13.945L11.005,13.945z M6.574,13.384h4.073l2.694-5.329H9.268L6.574,13.384
	L6.574,13.384z"/>
<path class="black" d="M10.282,10.618L9.75,10.504c-0.005-0.138-0.01-0.273,0.015-0.393c0.043-0.204,0.202-0.289,0.384-0.25
	c0.128,0.027,0.195,0.068,0.257,0.101c0.038,0.02,0.088,0.049,0.132,0.059c0.116,0.025,0.23-0.062,0.255-0.178
	c0.014-0.065,0.005-0.113-0.033-0.167c-0.079-0.112-0.316-0.235-0.553-0.285C9.782,9.299,9.395,9.488,9.301,9.929
	c-0.033,0.156-0.009,0.314,0.005,0.481l-0.15-0.032c-0.109-0.024-0.196,0.027-0.219,0.136c-0.023,0.109,0.036,0.19,0.145,0.214
	l0.215,0.045c-0.004,0.019-0.004,0.038-0.007,0.052c-0.053,0.251-0.159,0.374-0.262,0.5c-0.108,0.127-0.159,0.207-0.174,0.276
	c-0.022,0.105,0.019,0.252,0.234,0.297l1.071,0.229c0.135,0.027,0.254-0.029,0.284-0.172c0.03-0.143-0.062-0.246-0.189-0.273
	l-0.835-0.177c0.139-0.15,0.267-0.325,0.319-0.569c0.005-0.022,0.01-0.043,0.011-0.066l0.459,0.098
	c0.109,0.023,0.196-0.027,0.219-0.136C10.451,10.722,10.406,10.644,10.282,10.618z"/>
</svg>
