<?xml version="1.0" encoding="utf-8"?>
<!-- Generator: Adobe Illustrator 16.2.1, SVG Export Plug-In . SVG Version: 6.00 Build 0)  -->
<!DOCTYPE svg PUBLIC "-//W3C//DTD SVG 1.1//EN" "http://www.w3.org/Graphics/SVG/1.1/DTD/svg11.dtd">
<svg version="1.1" id="Layer_1" xmlns="http://www.w3.org/2000/svg" xmlns:xlink="http://www.w3.org/1999/xlink" x="0px" y="0px"
	 width="22px" height="22px" viewBox="0 0 22 22" enable-background="new 0 0 22 22" xml:space="preserve">
<path fill="#010202" class="black"  d="M22,11c0,6.075-4.925,11-11,11S0,17.075,0,11S4.925,0,11,0S22,4.925,22,11z"/>
<path fill="#FFFFFF" class="white"  d="M21,11c0,5.523-4.477,10-10,10S1,16.523,1,11C1,5.477,5.477,1,11,1S21,5.477,21,11z"/>
<g>
	<path fill="#010202" class="black" d="M10.294,5.139c-0.236-1.253,0.319-1.856,0.826-2.278c1.145-0.955,3.106-1.034,4.34-0.56l-0.318,0.827
		c-0.975-0.374-2.572-0.324-3.456,0.414c-0.473,0.394-0.649,0.933-0.523,1.598H10.294z"/>
	<g>
		<path fill="#010202" class="black" d="M11.415,9.111h3.226V8.898c0-1.913-1.398-3.485-3.226-3.781V9.111z"/>
		<path fill="#010202" class="black" d="M10.087,9.111V5.127C8.306,5.459,6.955,7.02,6.955,8.898v0.212H10.087z"/>
		<path fill="#010202" class="black" d="M6.955,10.438v3.753c0,2.122,1.72,3.843,3.843,3.843c2.124,0,3.842-1.721,3.842-3.843v-3.753H6.955z"/>
	</g>
</g>
</svg>
