<?xml version="1.0" encoding="utf-8"?>
<!-- Generator: Adobe Illustrator 16.0.0, SVG Export Plug-In . SVG Version: 6.00 Build 0)  -->
<!DOCTYPE svg PUBLIC "-//W3C//DTD SVG 1.1//EN" "http://www.w3.org/Graphics/SVG/1.1/DTD/svg11.dtd">
<svg version="1.1"
	 id="Layer_1" xmlns:svg="http://www.w3.org/2000/svg" xmlns:rdf="http://www.w3.org/1999/02/22-rdf-syntax-ns#" xmlns:cc="http://creativecommons.org/ns#" xmlns:dc="http://purl.org/dc/elements/1.1/"
	 xmlns="http://www.w3.org/2000/svg" xmlns:xlink="http://www.w3.org/1999/xlink" x="0px" y="0px" width="22px" height="22px"
	 viewBox="0 0 22 22" enable-background="new 0 0 22 22" xml:space="preserve">
<path class="black" d="M22,11c0,6.075-4.925,11-11,11S0,17.075,0,11S4.925,0,11,0S22,4.925,22,11z"/>
<path class="white" fill="#FFFFFF" d="M21,11c0,5.523-4.477,10-10,10C5.477,21,1,16.523,1,11C1,5.477,5.477,1,11,1C16.523,1,21,5.477,21,11z"/>
<path class="black" d="M15.946,8.218C15.1,6.283,13.203,4.93,11,4.93S6.9,6.283,6.054,8.218C4.924,8.389,4.062,9.274,4.062,10.35
	c0,1.057,0.834,1.935,1.936,2.126c0.376,1.044,1.068,2.215,2.252,3.062c-0.033,0.109-0.068,0.219-0.068,0.339
	c0,0.658,0.534,1.192,1.192,1.192s1.192-0.534,1.192-1.192s-0.534-1.192-1.192-1.192c-0.328,0-0.625,0.133-0.84,0.348
	c-1.136-0.828-1.769-1.988-2.087-2.973V8.827c0.667-1.923,2.446-3.312,4.552-3.312c2.107,0,3.887,1.391,4.554,3.315v3.687
	c1.317,0,2.385-0.971,2.385-2.167C17.938,9.274,17.076,8.389,15.946,8.218z"/>
<path class="black" id="Shape_3_" d="M13.255,10.448c-1.425,0-2.644-0.841-3.22-2.05c-0.474,0.999-1.387,1.748-2.497,1.977
	c0,0.025-0.007,0.048-0.007,0.074c0,1.98,1.601,3.587,3.577,3.587s3.578-1.606,3.578-3.587c0-0.099-0.021-0.191-0.028-0.288
	C14.227,10.345,13.753,10.448,13.255,10.448L13.255,10.448z"/>
</svg>
