<?xml version="1.0" encoding="utf-8"?>
<!-- Generator: Adobe Illustrator 16.0.4, SVG Export Plug-In . SVG Version: 6.00 Build 0)  -->
<!DOCTYPE svg PUBLIC "-//W3C//DTD SVG 1.1//EN" "http://www.w3.org/Graphics/SVG/1.1/DTD/svg11.dtd">
<svg version="1.1"
	 id="Layer_1" xmlns:rdf="http://www.w3.org/1999/02/22-rdf-syntax-ns#" xmlns:cc="http://creativecommons.org/ns#" xmlns:dc="http://purl.org/dc/elements/1.1/" xmlns:svg="http://www.w3.org/2000/svg"
	 xmlns="http://www.w3.org/2000/svg" xmlns:xlink="http://www.w3.org/1999/xlink" x="0px" y="0px" width="22px" height="22px"
	 viewBox="0 0 22 22" enable-background="new 0 0 22 22" xml:space="preserve">
<path class="black" d="M22,11c0,6.075-4.925,11-11,11S0,17.075,0,11S4.925,0,11,0S22,4.925,22,11z"/>
<path class="white" fill="#FFFFFF" d="M21,11c0,5.523-4.477,10-10,10C5.477,21,1,16.523,1,11C1,5.477,5.477,1,11,1
	C16.523,1,21,5.477,21,11z"/>
<path class="black" d="M18.784,3.219c-4.3-4.302-11.269-4.302-15.568,0c-4.299,4.297-4.299,11.268,0,15.563
	c4.3,4.302,11.271,4.302,15.568,0C23.083,14.484,23.083,7.516,18.784,3.219z"/>
<path class="white" fill="#FFFFFF" d="M17.355,17.355c-3.51,3.511-9.205,3.511-12.711,0c-3.512-3.514-3.512-9.199,0-12.711
	c3.508-3.511,9.202-3.511,12.711,0C20.867,8.156,20.867,13.844,17.355,17.355z"/>
<path class="black" d="M9.777,16.18h2.448V9.312c0,0-1.2,0-1.601,0c-0.212,0-0.847,0-0.847,0V16.18z"/>
<path class="black" d="M9.777,7.549h2.448V5.103h-0.6c0,0-0.422,0-0.562,0c-0.164,0-0.657,0-0.657,0H9.777V7.549z"/>
</svg>
