<?xml version="1.0" encoding="utf-8"?>
<!-- Generator: Adobe Illustrator 16.0.0, SVG Export Plug-In . SVG Version: 6.00 Build 0)  -->
<!DOCTYPE svg PUBLIC "-//W3C//DTD SVG 1.1//EN" "http://www.w3.org/Graphics/SVG/1.1/DTD/svg11.dtd">
<svg version="1.1"
	 id="Layer_1" xmlns:svg="http://www.w3.org/2000/svg" xmlns:rdf="http://www.w3.org/1999/02/22-rdf-syntax-ns#" xmlns:cc="http://creativecommons.org/ns#" xmlns:dc="http://purl.org/dc/elements/1.1/"
	 xmlns="http://www.w3.org/2000/svg" xmlns:xlink="http://www.w3.org/1999/xlink" x="0px" y="0px" width="22px" height="22px"
	 viewBox="0 0 22 22" enable-background="new 0 0 22 22" xml:space="preserve">
<path class="black" d="M22,11c0,6.075-4.925,11-11,11S0,17.075,0,11S4.925,0,11,0S22,4.925,22,11z"/>
<path class="white" fill="#FFFFFF" d="M21,11c0,5.523-4.477,10-10,10C5.477,21,1,16.523,1,11C1,5.477,5.477,1,11,1C16.523,1,21,5.477,21,11z"/>
<path class="black" d="M15.819,15.12l0.003,0.005l-0.752,0.478l-0.465,0.3l-0.002-0.003L14.6,15.902l-2.346-3.657H8.486V7.633
	c-0.384-0.24-0.64-0.665-0.64-1.149c0-0.75,0.611-1.359,1.365-1.359c0.754,0,1.365,0.608,1.365,1.359
	c0,0.484-0.255,0.909-0.639,1.149v1.299h3.483v1.444H9.937V10.8h3.112l1.99,3.103l0.798-0.515l0.762,1.229L15.819,15.12z
	 M9.382,15.672c-1.528,0-2.771-1.238-2.771-2.76c0-1.021,0.562-1.913,1.392-2.39V9.194c-1.519,0.559-2.601,2.012-2.601,3.718
	c0,2.188,1.782,3.963,3.98,3.963c1.679,0,3.114-1.035,3.699-2.499l-0.928-1.448C12.145,14.442,10.905,15.672,9.382,15.672z"/>
</svg>
