<?xml version="1.0" encoding="utf-8"?>
<!-- Generator: Adobe Illustrator 15.0.0, SVG Export Plug-In . SVG Version: 6.00 Build 0)  -->
<!DOCTYPE svg PUBLIC "-//W3C//DTD SVG 1.0//EN" "http://www.w3.org/TR/2001/REC-SVG-20010904/DTD/svg10.dtd">
<svg version="1.0"
	 id="Layer_1" xmlns:dc="http://purl.org/dc/elements/1.1/" xmlns:rdf="http://www.w3.org/1999/02/22-rdf-syntax-ns#" xmlns:cc="http://creativecommons.org/ns#" xmlns:svg="http://www.w3.org/2000/svg"
	 xmlns="http://www.w3.org/2000/svg" xmlns:xlink="http://www.w3.org/1999/xlink" x="0px" y="0px" width="22px" height="22px"
	 viewBox="0 0 22 22" enable-background="new 0 0 22 22" xml:space="preserve">
<g id="g3146">
	<path d="M22,11c0,6.075-4.925,11-11,11S0,17.075,0,11S4.925,0,11,0S22,4.925,22,11z" class="black"/>
</g>
<g id="g3150">
	<path class="white" d="M21,11c0,5.523-4.477,10-10,10C5.477,21,1,16.523,1,11C1,5.477,5.477,1,11,1C16.523,1,21,5.477,21,11z"/>
</g>
<g id="g3154">
	<path d="M16.021,14.676c-0.457-0.002-0.767-0.197-0.875-0.576c-0.586-2.009-2.017-2.438-3.865-2.143
		c-0.155,0.025-0.319-0.014-0.475,0.008c-0.626,0.083-0.643-0.314-0.64-0.767c0.003-0.466-0.036-0.914,0.659-0.869
		c0.505,0.033,1.016,0.016,1.522,0.003c0.438-0.011,0.883-0.109,0.861-0.654c-0.018-0.486-0.422-0.572-0.837-0.562
		c-0.159,0.005-0.315-0.002-0.478-0.002c-1.555-0.009-1.562-0.008-1.722-1.492C10.135,7.236,10.023,6.9,9.6,6.877
		C9.1,6.849,8.969,7.228,8.963,7.644C8.953,8.469,8.96,9.294,8.96,10.12c0,0.793,0.015,1.587-0.006,2.381
		c-0.012,0.487,0.174,0.683,0.672,0.658c0.729-0.035,1.47,0.055,2.188-0.042c1.062-0.146,1.698,0.232,2.111,1.217
		c0.34,0.809,0.735,1.623,1.887,1.539c0.444-0.033,0.974,0.138,1.08-0.45C17.002,14.818,16.473,14.68,16.021,14.676z M13.439,15.104
		c-0.14,0.199-0.263,0.377-0.381,0.558c-0.979,1.472-2.484,2.136-4.079,1.8c-1.456-0.311-2.636-1.558-2.895-3.063
		c-0.273-1.582,0.405-3.046,1.89-3.934c0.412-0.245,0.729-0.524,0.486-0.956c-0.25-0.444-0.635-0.055-0.907,0.079
		c-1.758,0.867-2.677,2.774-2.42,4.951c0.21,1.777,1.744,3.411,3.622,3.851c1.827,0.429,3.885-0.397,4.936-1.921
		C14.084,15.898,14.01,15.507,13.439,15.104z M9.595,6.6c0.794-0.021,1.495-0.751,1.493-1.552c-0.004-0.869-0.747-1.594-1.583-1.544
		C8.706,3.55,8.011,4.301,8.037,5.092C8.061,5.855,8.852,6.62,9.595,6.6z" class="black"/>
</g>
</svg>
