<?xml version="1.0" encoding="utf-8"?>
<!DOCTYPE svg PUBLIC "-//W3C//DTD SVG 1.1//EN" "http://www.w3.org/Graphics/SVG/1.1/DTD/svg11.dtd">
<svg version="1.1"
	 id="Layer_1" xmlns:rdf="http://www.w3.org/1999/02/22-rdf-syntax-ns#" xmlns:cc="http://creativecommons.org/ns#" xmlns:dc="http://purl.org/dc/elements/1.1/" xmlns:svg="http://www.w3.org/2000/svg"
	 xmlns="http://www.w3.org/2000/svg" xmlns:xlink="http://www.w3.org/1999/xlink" x="0px" y="0px" width="22px" height="22px"
	 viewBox="0 0 22 22" enable-background="new 0 0 22 22" xml:space="preserve">
<path class="black" d="M22,11c0,6.075-4.925,11-11,11S0,17.075,0,11S4.925,0,11,0S22,4.925,22,11z"/>
<path class="white" fill="#FFFFFF" d="M21,11c0,5.523-4.477,10-10,10C5.477,21,1,16.523,1,11C1,5.477,5.477,1,11,1
	C16.523,1,21,5.477,21,11z"/>
<path class="black" d="M13.605,3.989h-5.21c-1.56,0-2.828,1.27-2.828,2.828v8.365c0,1.562,1.268,2.828,2.828,2.828h5.21
	c1.56,0,2.828-1.269,2.828-2.828V6.817C16.434,5.259,15.164,3.989,13.605,3.989z"/>
<path class="white" fill="#FFFFFF" d="M15.302,15.184c0,0.937-0.761,1.696-1.696,1.696H8.396c-0.936,0-1.697-0.762-1.697-1.696
	V6.817c0-0.936,0.761-1.696,1.697-1.696h5.209c0.938,0,1.696,0.761,1.696,1.696V15.184z"/>
<path class="black" d="M9.336,8.356C9.712,8.355,10,8.073,9.994,7.712C9.99,7.369,9.694,7.073,9.35,7.064
	C9,7.055,8.698,7.364,8.703,7.726C8.706,8.091,8.974,8.357,9.336,8.356z"/>
<path class="black" d="M12.848,8.357c0.358-0.006,0.621-0.28,0.617-0.647c-0.002-0.355-0.287-0.646-0.634-0.646
	c-0.351-0.001-0.666,0.315-0.659,0.662C12.178,8.09,12.471,8.364,12.848,8.357z"/>
<path class="black" d="M10.387,8.967c-0.104-0.27-0.327-0.395-0.617-0.395c-0.243,0-0.486-0.002-0.729,0
	C8.621,8.573,8.418,8.7,8.274,9.088c-0.241,0.645-0.459,1.297-0.707,1.938c-0.082,0.213,0.034,0.278,0.183,0.322
	c0.14,0.042,0.284,0.081,0.352-0.138c0.151-0.488,0.324-0.969,0.489-1.452C8.62,9.677,8.656,9.597,8.689,9.517
	C8.72,9.521,8.753,9.525,8.784,9.53C8.779,9.609,8.791,9.693,8.768,9.768c-0.196,0.62-0.399,1.239-0.598,1.858
	C8.095,11.861,8.026,12.1,7.941,12.38h0.72c0,0.819,0.006,1.603-0.004,2.388c-0.003,0.241,0.113,0.308,0.324,0.308
	c0.213,0,0.289-0.099,0.286-0.312c-0.011-0.682-0.006-1.363-0.002-2.045c0-0.095,0.034-0.189,0.052-0.283
	c0.033,0.002,0.066,0.004,0.1,0.004c0.016,0.11,0.045,0.224,0.046,0.336c0.004,0.681,0.005,1.36-0.001,2.043
	c-0.002,0.205,0.111,0.259,0.282,0.256c0.167-0.004,0.313-0.02,0.31-0.254c-0.01-0.532-0.002-1.064-0.002-1.598v-0.85h0.737
	c-0.293-0.908-0.572-1.763-0.844-2.622c-0.02-0.062,0.012-0.144,0.019-0.216c0.048,0.055,0.12,0.102,0.143,0.165
	c0.174,0.499,0.346,1.001,0.505,1.506c0.065,0.206,0.202,0.191,0.352,0.146c0.137-0.041,0.273-0.1,0.202-0.293
	C10.906,10.361,10.655,9.661,10.387,8.967z"/>
<path class="black" d="M13.666,8.573c-0.551-0.007-1.104-0.007-1.654,0c-0.453,0.007-0.729,0.282-0.735,0.739
	c-0.008,0.664,0.004,1.326-0.006,1.989c-0.004,0.215,0.099,0.291,0.282,0.291c0.178,0,0.297-0.057,0.288-0.279
	c-0.013-0.42-0.003-0.841-0.003-1.261c0-0.121-0.013-0.245,0.006-0.362c0.008-0.058,0.075-0.104,0.116-0.157
	c0.031,0.049,0.078,0.093,0.092,0.146c0.017,0.061,0.005,0.13,0.005,0.195c0,1.606,0.006,3.214-0.005,4.819
	c-0.001,0.252,0.054,0.39,0.331,0.381c0.301-0.008,0.342-0.047,0.342-0.396c0-0.887,0-1.772,0-2.662
	c0-0.074-0.002-0.148,0.016-0.223c0.009-0.033,0.062-0.083,0.09-0.079c0.044,0.007,0.104,0.044,0.115,0.081
	c0.021,0.07,0.017,0.148,0.017,0.223c0,0.905,0.011,1.812-0.006,2.717c-0.005,0.272,0.11,0.345,0.351,0.341
	c0.223-0.005,0.334-0.065,0.328-0.323c-0.017-0.82-0.006-1.646-0.006-2.467c0.001-0.831-0.003-1.662,0.005-2.493
	c0.001-0.087,0.062-0.172,0.095-0.258c0.041,0.089,0.112,0.178,0.113,0.269c0.014,0.504,0.016,1.009,0.004,1.513
	c-0.006,0.221,0.115,0.282,0.293,0.276c0.159-0.004,0.279-0.057,0.276-0.266c-0.011-0.673,0.003-1.345-0.005-2.019
	C14.402,8.854,14.122,8.58,13.666,8.573z"/>
</svg>
