<?xml version="1.0" encoding="utf-8"?>
<!DOCTYPE svg PUBLIC "-//W3C//DTD SVG 1.1//EN" "http://www.w3.org/Graphics/SVG/1.1/DTD/svg11.dtd">
<svg version="1.1"
	 id="Layer_1" xmlns:rdf="http://www.w3.org/1999/02/22-rdf-syntax-ns#" xmlns:cc="http://creativecommons.org/ns#" xmlns:dc="http://purl.org/dc/elements/1.1/" xmlns:svg="http://www.w3.org/2000/svg"
	 xmlns="http://www.w3.org/2000/svg" xmlns:xlink="http://www.w3.org/1999/xlink" x="0px" y="0px" width="22px" height="22px"
	 viewBox="0 0 22 22" enable-background="new 0 0 22 22" xml:space="preserve">
<path class="black" d="M22,11c0,6.075-4.925,11-11,11S0,17.075,0,11S4.925,0,11,0S22,4.925,22,11z"/>
<path class="white" fill="#FFFFFF" d="M21,11c0,5.523-4.477,10-10,10C5.477,21,1,16.523,1,11C1,5.477,5.477,1,11,1
	C16.523,1,21,5.477,21,11z"/>
<path class="black" d="M18.439,7.83c-0.147-0.855-0.957-1.542-1.824-1.545c-0.747-0.002-1.493-0.011-2.238,0.003
	c-0.559,0.013-1.059,0.195-1.462,0.595c-0.565,0.56-1.13,1.12-1.69,1.686c-0.113,0.113-0.21,0.245-0.314,0.368
	c-0.027-0.02-0.055-0.04-0.082-0.06c0-0.193,0.008-0.388-0.001-0.582c-0.023-0.45-0.277-0.776-0.684-0.892
	c-0.7-0.197-1.284,0.235-1.297,0.978c-0.014,0.756,0.004,1.513-0.012,2.27c-0.002,0.138-0.065,0.308-0.16,0.406
	c-0.537,0.561-1.081,1.113-1.646,1.645c-0.135,0.126-0.353,0.207-0.54,0.224c-0.399,0.033-0.804,0.002-1.206,0.014
	c-1.148,0.029-2.011,1.187-1.73,2.305c0.202,0.806,0.721,1.3,1.501,1.539h2.771c0.156-0.057,0.332-0.083,0.461-0.176
	c0.396-0.282,0.807-0.559,1.152-0.896c1.771-1.742,3.527-3.502,5.281-5.264c0.231-0.232,0.477-0.349,0.809-0.33
	c0.383,0.021,0.768-0.007,1.148,0.007c0.442,0.016,0.797-0.164,1.118-0.445c0.455-0.399,0.642-0.923,0.702-1.507v-0.06
	C18.479,8.018,18.455,7.925,18.439,7.83z"/>
<path class="white" fill="#FFFFFF" d="M16.572,9.126c-0.215-0.019-0.434-0.004-0.648-0.004c-0.892-0.165-1.515,0.236-2.119,0.862
	c-1.758,1.814-3.567,3.577-5.35,5.364c-0.287,0.287-0.611,0.443-1.021,0.438c-0.688-0.009-1.376,0.004-2.064-0.009
	c-0.463-0.008-0.807-0.361-0.883-0.87c-0.06-0.409,0.166-0.798,0.564-0.921c0.146-0.045,0.309-0.039,0.464-0.045
	c0.47-0.016,0.945,0.013,1.41-0.049c0.233-0.029,0.491-0.166,0.661-0.334c1.979-1.953,3.947-3.917,5.909-5.888
	c0.269-0.271,0.56-0.405,0.938-0.397c0.707,0.013,1.416,0.03,2.121-0.005c0.475-0.024,0.932,0.458,0.912,0.927
	C17.445,8.766,17.048,9.166,16.572,9.126z"/>
<path class="black" d="M9.852,7.203c0.548-0.01,0.982-0.454,0.98-1.004C10.83,5.649,10.394,5.22,9.836,5.22
	C9.29,5.219,8.845,5.655,8.835,6.202C8.827,6.745,9.3,7.212,9.852,7.203z"/>
</svg>
