<?xml version="1.0" encoding="utf-8"?>
<!DOCTYPE svg PUBLIC "-//W3C//DTD SVG 1.1//EN" "http://www.w3.org/Graphics/SVG/1.1/DTD/svg11.dtd">
<svg version="1.1"
	 id="Layer_1" xmlns:rdf="http://www.w3.org/1999/02/22-rdf-syntax-ns#" xmlns:cc="http://creativecommons.org/ns#" xmlns:dc="http://purl.org/dc/elements/1.1/" xmlns:svg="http://www.w3.org/2000/svg"
	 xmlns="http://www.w3.org/2000/svg" xmlns:xlink="http://www.w3.org/1999/xlink" x="0px" y="0px" width="22px" height="22px"
	 viewBox="0 0 22 22" enable-background="new 0 0 22 22" xml:space="preserve">
<path class="black" d="M22,11c0,6.075-4.925,11-11,11S0,17.075,0,11S4.925,0,11,0S22,4.925,22,11z"/>
<path class="white" fill="#FFFFFF" d="M21,11c0,5.523-4.477,10-10,10C5.477,21,1,16.523,1,11C1,5.477,5.477,1,11,1
	C16.523,1,21,5.477,21,11z"/>
<path class="black" d="M15.967,16.241c-0.154-0.179-0.238-0.394-0.296-0.607c-0.272-1.021-0.729-1.977-1.183-2.915
	c-0.414-0.854-0.768-1.765-1.371-2.519c-0.387-0.483-0.424-0.986-0.249-1.54c0.333-1.058,0.562-2.135,0.61-3.249
	c0.016-0.329,0.113-0.654,0.188-0.98c0.041-0.183,0.143-0.383-0.172-0.406C13.282,4.01,13.07,3.97,13.059,4.313
	c-0.012,0.289-0.096,0.576-0.158,0.863c-0.055,0.253-0.209,0.379-0.481,0.378C11.945,5.551,11.473,5.551,11,5.552
	c-0.473-0.001-0.945-0.001-1.417,0.002C9.308,5.555,9.155,5.429,9.1,5.176C9.037,4.889,8.952,4.602,8.941,4.312
	C8.929,3.97,8.717,4.01,8.505,4.024C8.192,4.047,8.294,4.248,8.335,4.43c0.071,0.326,0.171,0.651,0.186,0.98
	c0.05,1.114,0.277,2.191,0.611,3.249c0.175,0.554,0.138,1.057-0.25,1.54c-0.604,0.754-0.957,1.662-1.371,2.519
	c-0.454,0.938-0.908,1.896-1.182,2.915c-0.058,0.215-0.143,0.43-0.295,0.607c-0.047,0.054-0.148,0.166-0.06,0.189
	c0.327,0.09,0.296,0.456,0.534,0.622c0.348,0.241,0.716,0.418,1.126,0.483c0.801,0.133,1.604,0.252,2.402,0.396
	c0.24,0.045,1.687,0.045,1.927,0c0.799-0.146,1.602-0.266,2.4-0.396c0.41-0.065,0.779-0.242,1.128-0.483
	c0.237-0.166,0.207-0.532,0.532-0.622C16.113,16.407,16.014,16.295,15.967,16.241z"/>
</svg>
