<?xml version="1.0" encoding="utf-8"?>
<!-- Generator: Adobe Illustrator 16.0.0, SVG Export Plug-In . SVG Version: 6.00 Build 0)  -->
<!DOCTYPE svg PUBLIC "-//W3C//DTD SVG 1.1//EN" "http://www.w3.org/Graphics/SVG/1.1/DTD/svg11.dtd">
<svg version="1.1"
	 id="Layer_1" xmlns:svg="http://www.w3.org/2000/svg" xmlns:rdf="http://www.w3.org/1999/02/22-rdf-syntax-ns#" xmlns:cc="http://creativecommons.org/ns#" xmlns:dc="http://purl.org/dc/elements/1.1/"
	 xmlns="http://www.w3.org/2000/svg" xmlns:xlink="http://www.w3.org/1999/xlink" x="0px" y="0px" width="22px" height="22px"
	 viewBox="0 0 22 22" enable-background="new 0 0 22 22" xml:space="preserve">
<path class="black" d="M22,11c0,6.075-4.925,11-11,11S0,17.075,0,11S4.925,0,11,0S22,4.925,22,11z"/>
<path class="white" fill="#FFFFFF" d="M21,11c0,5.523-4.477,10-10,10C5.477,21,1,16.523,1,11C1,5.477,5.477,1,11,1C16.523,1,21,5.477,21,11z"/>
<path class="black" id="shape" d="M16.311,15.925c-0.398-0.114-0.84-0.032-1.248-0.065c0,0,0.021-0.401-0.041-0.713
	c0.004,0.021,0.006,0.041,0.006,0.062c0.002,0.045,0.01,0.091,0.006,0.134c-0.002,0.043-0.008,0.087-0.012,0.13l-0.006,0.064
	c-0.002,0.021-0.009,0.042-0.013,0.062c-0.019,0.084-0.039,0.168-0.065,0.248c-0.017-0.086-0.027-0.168-0.037-0.25
	c-0.008-0.082-0.026-0.162-0.036-0.242c-0.005-0.039-0.019-0.076-0.027-0.113c-0.008-0.038-0.017-0.075-0.032-0.106l-0.018-0.049
	l-0.023-0.037c-0.009-0.015-0.017-0.021-0.022-0.026c-0.002-0.004-0.007-0.008-0.007-0.006c0,0-0.006-0.002,0.016,0.004l0.045,0.013
	l-0.078-0.024c-0.008-0.002-0.014-0.005-0.021-0.008c-0.004,0.001-0.01-0.003-0.012-0.002c-0.008,0.001-0.009-0.001-0.015,0.004
	c-0.006,0.003-0.017,0.012-0.026,0.023c-0.013,0.015-0.021,0.031-0.033,0.051c-0.043,0.08-0.078,0.183-0.104,0.287
	c-0.06,0.209-0.101,0.429-0.163,0.652c-0.027-0.113-0.039-0.229-0.046-0.344c-0.006-0.115-0.002-0.23,0.011-0.349
	c0.019-0.116,0.036-0.235,0.094-0.357c0.017-0.03,0.035-0.061,0.059-0.092c0.023-0.03,0.055-0.062,0.098-0.086
	c0.035-0.021,0.08-0.028,0.123-0.029c-0.193-0.071-0.229-0.206-0.229-0.206c-0.007-0.025-0.907,0.495-0.978,0.508
	c-0.108,0.019-0.244-0.012-0.355-0.016c-0.354-0.011-0.667-0.117-0.856-0.439c-0.204-0.344-0.104-0.729,0.087-1.06
	c0,0,0.979-1.166,0.454-2.292c0,0-0.216-1.307-0.754-1.525c0.101,0.04,0.205-0.209,0.22-0.267c0.034-0.136-0.062-0.68-0.115-0.808
	C11.934,8.112,11.887,7.9,11.38,7.53c-0.174-0.126-0.334-0.199-0.518-0.311C10.41,6.944,9.948,6.689,9.535,6.36
	C9.17,6.07,8.846,5.732,8.496,5.425L8.245,5.583l0.311,0.423L8.352,6.03l1.303,0.895c0,0,1.318,0.721,1.327,0.726
	c0.459,0.251,0.841,0.666,0.849,1.233c0.007,0.454-0.293,0.5-0.641,0.413c-0.342-0.087-0.698-0.208-1.021-0.353
	c0,0-2.821-1.451-2.964-1.838L7.109,7.203c0,0-2.056,1.396-1.554,2.813c0.435,1.228,0.672,2.479,0.735,3.781
	c0.041,0.848,0.004,1.691,0.003,2.539c0,0.074,0,0.148,0,0.225h0.506c-0.023,0-0.119-2.412-0.125-2.613
	c-0.007-0.305-0.007-0.608,0.004-0.912c0.012-0.335,0.035-0.672,0.107-0.999c0.042-0.194,0.108-0.526,0.324-0.602
	c0.388-0.136,0.782,0.311,1,0.576c0.279,0.34,0.49,0.727,0.694,1.113c0.281,0.531,0.583,1.057,0.82,1.609
	c0.331,0.772,0.826,1.627,1.719,1.783c0.49,0.086,1.006,0.049,1.504,0.053c0.535,0.005,1.072,0.013,1.609,0
	c0.304-0.006,0.607-0.019,0.91-0.041c0.312-0.023,0.658,0.021,0.947-0.125C16.561,16.277,16.627,16.016,16.311,15.925L16.311,15.925
	z M12.669,11.531l0.033,0.14c0.004,0.015,0.321,1.455-1.312,2.116l-0.143,0.057l0.085-0.129c0.011-0.018,1.15-1.757,1.279-2.052
	L12.669,11.531L12.669,11.531z M7.723,7.989l0.019,0.006l1.422,0.798l1.878,0.841L10.94,9.678c-0.176,0.076-1.746,0.423-1.813,0.438
	c-0.16,0.026-0.303,0.048-0.463,0.048l0,0c-0.365,0-0.763-0.121-1.289-0.391C6.453,9.301,6.59,8.738,6.596,8.714
	c0.051-0.675,0.792-0.729,1.018-0.729C7.682,7.985,7.723,7.989,7.723,7.989L7.723,7.989z M6.963,11.221
	c-0.154-0.063-0.347-0.168-0.529-0.29S6.08,10.673,5.96,10.555c-0.121-0.114-0.19-0.208-0.19-0.208s0.113,0.026,0.266,0.093
	c0.154,0.063,0.347,0.168,0.529,0.289s0.354,0.258,0.473,0.375c0.121,0.115,0.19,0.209,0.19,0.209S7.115,11.287,6.963,11.221
	L6.963,11.221z M7.447,9.93c0.064,0.026,0.126,0.051,0.188,0.075c0.128,0.035,0.248,0.077,0.362,0.103
	c0.115,0.021,0.22,0.051,0.315,0.059c0.047,0.007,0.092,0.013,0.133,0.019c0.042,0.003,0.08,0.006,0.114,0.009
	c0.139,0.011,0.219,0.006,0.219,0.006s-0.019,0.006-0.056,0.014c-0.037,0.007-0.091,0.021-0.162,0.027
	c-0.035,0.004-0.074,0.008-0.116,0.013c-0.042,0.001-0.089,0.002-0.138,0.004c-0.099,0.007-0.21-0.006-0.332-0.015
	c-0.122-0.011-0.251-0.04-0.389-0.066C7.451,10.136,7.299,10.1,7.161,10.04c-0.069-0.03-0.138-0.061-0.208-0.092
	c-0.035-0.015-0.07-0.031-0.106-0.046C6.801,9.879,6.773,9.861,6.734,9.84c-0.141-0.084-0.279-0.185-0.4-0.309
	C6.215,9.405,6.109,9.252,6.065,9.07C6.04,8.981,6.038,8.886,6.049,8.795C6.06,8.706,6.088,8.621,6.126,8.539
	c0.018-0.039,0.038-0.066,0.056-0.1C6.205,8.395,6.231,8.373,6.255,8.34C6.281,8.31,6.304,8.278,6.33,8.25
	C6.358,8.225,6.385,8.2,6.413,8.175c0.053-0.053,0.113-0.09,0.171-0.127C6.64,8.008,6.703,7.986,6.76,7.959
	C6.815,7.929,6.875,7.916,6.929,7.9c0.028-0.007,0.054-0.016,0.08-0.021c0.027-0.003,0.053-0.006,0.078-0.01
	C7.186,7.851,7.275,7.86,7.346,7.863c0.071,0.003,0.123,0.023,0.161,0.029C7.543,7.9,7.563,7.904,7.563,7.904s-0.02,0-0.058,0
	C7.468,7.907,7.412,7.901,7.344,7.911C7.276,7.921,7.196,7.929,7.105,7.96C7.083,7.966,7.06,7.973,7.036,7.979
	C7.013,7.988,6.99,8,6.966,8.01C6.918,8.033,6.867,8.049,6.819,8.083C6.771,8.114,6.718,8.139,6.673,8.181
	C6.627,8.22,6.576,8.256,6.535,8.306c-0.022,0.023-0.044,0.047-0.066,0.07C6.45,8.403,6.432,8.431,6.413,8.458
	C6.397,8.484,6.371,8.515,6.361,8.539C6.346,8.57,6.325,8.606,6.313,8.636c-0.008,0.03-0.021,0.057-0.028,0.088
	C6.281,8.756,6.269,8.788,6.27,8.82c0,0.032-0.004,0.064,0.002,0.096C6.273,8.948,6.279,8.98,6.289,9.012
	c0.032,0.127,0.115,0.247,0.216,0.351C6.606,9.469,6.726,9.561,6.853,9.64c0.03,0.017,0.069,0.041,0.092,0.053l0.104,0.053
	L7.447,9.93z M9.646,13.926c-0.047-0.08-0.089-0.173-0.146-0.264c-0.057-0.092-0.118-0.188-0.176-0.287
	c-0.058-0.1-0.123-0.202-0.182-0.311c-0.067-0.102-0.136-0.203-0.205-0.308c-0.068-0.104-0.13-0.211-0.202-0.309
	c-0.073-0.099-0.141-0.197-0.208-0.291c-0.034-0.048-0.066-0.095-0.099-0.142c-0.034-0.043-0.067-0.086-0.1-0.129
	c-0.065-0.085-0.126-0.166-0.183-0.24c-0.061-0.069-0.113-0.138-0.162-0.196c-0.047-0.061-0.091-0.109-0.126-0.151
	c-0.07-0.085-0.114-0.132-0.114-0.132s0.055,0.03,0.145,0.096c0.044,0.032,0.102,0.07,0.159,0.121
	c0.06,0.049,0.126,0.105,0.198,0.168c0.069,0.065,0.142,0.138,0.217,0.218c0.038,0.039,0.077,0.078,0.117,0.119
	c0.04,0.043,0.074,0.09,0.113,0.135c0.074,0.094,0.154,0.188,0.23,0.287c0.076,0.099,0.143,0.207,0.215,0.312
	c0.068,0.106,0.136,0.215,0.203,0.319c0.061,0.109,0.114,0.222,0.168,0.326c0.055,0.106,0.104,0.211,0.151,0.31
	c0.049,0.098,0.078,0.198,0.112,0.286c0.13,0.359,0.195,0.604,0.195,0.604S9.825,14.255,9.646,13.926L9.646,13.926z M10.38,14.158
	l-0.027-0.055c-1.345-2.663-1.751-2.861-1.769-2.869l-0.105-0.033l0.098-0.055c0.648-0.375,1.662-0.699,1.672-0.703l1.705-0.354
	c-0.005-0.003-0.009-0.006-0.015-0.01c-0.027-0.021-0.074-0.042-0.135-0.061c-0.125-0.033-0.309-0.031-0.527,0.007
	c-0.109,0.019-0.227,0.047-0.354,0.075c-0.129,0.027-0.257,0.068-0.394,0.1c-0.136,0.033-0.276,0.071-0.419,0.102
	c-0.144,0.034-0.289,0.082-0.434,0.123c-0.146,0.04-0.291,0.079-0.434,0.118c-0.141,0.044-0.284,0.077-0.417,0.12
	c-0.131,0.046-0.266,0.078-0.383,0.124c-0.117,0.047-0.231,0.082-0.334,0.127c-0.103,0.05-0.197,0.095-0.281,0.134
	c-0.08,0.038-0.152,0.078-0.205,0.112c-0.053,0.037-0.088,0.073-0.108,0.102c-0.018,0.031-0.025,0.049-0.025,0.049
	s0.002-0.02,0.013-0.054c0.013-0.035,0.041-0.084,0.09-0.134c0.05-0.049,0.11-0.102,0.191-0.156
	c0.076-0.052,0.163-0.112,0.258-0.174c0.097-0.06,0.213-0.114,0.334-0.174s0.25-0.106,0.385-0.159
	c0.135-0.05,0.275-0.096,0.418-0.142c0.144-0.042,0.29-0.084,0.436-0.127c0.146-0.038,0.291-0.083,0.438-0.115
	c0.147-0.032,0.294-0.057,0.435-0.085c0.141-0.026,0.279-0.054,0.406-0.069c0.128-0.018,0.254-0.031,0.371-0.035
	c0.116-0.005,0.224-0.001,0.319,0.014c0.096,0.014,0.176,0.042,0.238,0.071c0.062,0.033,0.103,0.069,0.127,0.096
	c0.007,0.008,0.01,0.012,0.015,0.018l0.136-0.028l0.019,0.023c0.78,0.961,0.221,1.652,0.215,1.66c0.001,0-0.431,0.811-0.776,1.256
	c-0.345,0.445-1.098,1.092-1.13,1.119L10.38,14.158L10.38,14.158z M12.08,15.297c0.049,0.004,0.098,0.008,0.146,0.012
	c0.097,0.002,0.19,0.004,0.28,0.002c0.091-0.004,0.175-0.009,0.254-0.015c0.158-0.015,0.29-0.032,0.382-0.047
	c0.094-0.015,0.146-0.03,0.146-0.03s-0.044,0.034-0.131,0.076c-0.086,0.042-0.213,0.096-0.372,0.139
	c-0.08,0.021-0.167,0.041-0.261,0.057s-0.194,0.027-0.299,0.031c-0.104,0.002-0.213,0.004-0.324-0.012
	c-0.111-0.017-0.223-0.035-0.336-0.074c-0.056-0.021-0.117-0.043-0.162-0.067l-0.071-0.037c-0.036-0.019-0.053-0.035-0.08-0.054
	c-0.024-0.019-0.05-0.033-0.073-0.055l-0.062-0.068c-0.044-0.041-0.068-0.102-0.101-0.149c-0.047-0.108-0.075-0.221-0.072-0.323
	c-0.005-0.104,0.014-0.197,0.034-0.279c0.043-0.166,0.108-0.291,0.157-0.375c0.05-0.082,0.085-0.125,0.085-0.125
	s-0.018,0.054-0.042,0.145c-0.012,0.046-0.024,0.104-0.038,0.165c-0.012,0.063-0.021,0.136-0.029,0.213
	c-0.003,0.077-0.004,0.161,0.009,0.243c0.008,0.085,0.044,0.162,0.08,0.236c0.048,0.07,0.103,0.137,0.182,0.183
	c0.017,0.011,0.041,0.029,0.052,0.034l0.072,0.035c0.051,0.027,0.092,0.035,0.137,0.053L12.08,15.297z M16.34,16.104
	c-0.013,0.008-0.033,0.024-0.061,0.035c-0.055,0.024-0.137,0.055-0.233,0.076c-0.05,0.012-0.103,0.024-0.159,0.031
	c-0.056,0.009-0.115,0.02-0.178,0.023c-0.061,0.004-0.125,0.014-0.189,0.016c-0.063,0.004-0.129,0.005-0.195,0.005
	c-0.131,0.001-0.262-0.006-0.385-0.017c-0.123-0.012-0.236-0.026-0.334-0.045c-0.195-0.033-0.324-0.08-0.324-0.08
	s0.132-0.034,0.328-0.059c0.098-0.013,0.211-0.023,0.332-0.029c0.123-0.008,0.252-0.013,0.383-0.014c0.129,0,0.259,0.004,0.38,0.01
	c0.121,0.004,0.233,0.012,0.331,0.02c0.097,0.007,0.178,0.013,0.234,0.015c0.056,0.001,0.092-0.002,0.092-0.002
	S16.354,16.094,16.34,16.104L16.34,16.104z"/>
</svg>
