<?xml version="1.0" encoding="utf-8"?>
<!DOCTYPE svg PUBLIC "-//W3C//DTD SVG 1.1//EN" "http://www.w3.org/Graphics/SVG/1.1/DTD/svg11.dtd">
<svg version="1.1"
	 id="Layer_1" xmlns:rdf="http://www.w3.org/1999/02/22-rdf-syntax-ns#" xmlns:cc="http://creativecommons.org/ns#" xmlns:dc="http://purl.org/dc/elements/1.1/" xmlns:svg="http://www.w3.org/2000/svg"
	 xmlns="http://www.w3.org/2000/svg" xmlns:xlink="http://www.w3.org/1999/xlink" x="0px" y="0px" width="22px" height="22px"
	 viewBox="0 0 22 22" enable-background="new 0 0 22 22" xml:space="preserve">
<path class="black" d="M22,11c0,6.075-4.925,11-11,11S0,17.075,0,11S4.925,0,11,0S22,4.925,22,11z"/>
<path class="white" fill="#FFFFFF" d="M21,11c0,5.523-4.477,10-10,10C5.477,21,1,16.523,1,11C1,5.477,5.477,1,11,1
	C16.523,1,21,5.477,21,11z"/>
<path class="black" d="M16.65,6.366c-0.004-1.461-0.871-2.349-2.336-2.362c-2.199-0.02-4.4-0.019-6.604-0.001
	C6.232,4.016,5.361,4.915,5.35,6.402c-0.007,1.396,0,2.791,0,4.187c0,1.45,0.003,2.899-0.002,4.349c0,0.433,0.034,0.922,0.461,1.062
	c0.708,0.234,0.856,0.686,0.876,1.352c0.015,0.463,0.454,0.711,0.943,0.657c0.47-0.051,0.747-0.312,0.789-0.793
	c0.012-0.143,0.023-0.289,0.004-0.43c-0.052-0.39,0.079-0.528,0.496-0.519c1.198,0.028,2.398,0.004,3.597,0.016
	c0.334,0.003,0.733-0.139,0.985,0.074c0.196,0.166,0.033,0.543,0.073,0.822c0.08,0.553,0.41,0.848,0.933,0.831
	c0.521-0.015,0.798-0.276,0.856-0.835c0.021-0.193,0.012-0.394,0.009-0.59c-0.003-0.172,0.014-0.271,0.237-0.322
	c0.812-0.195,1.043-0.496,1.045-1.31C16.658,12.093,16.661,9.229,16.65,6.366z"/>
<path class="white" fill="#FFFFFF" d="M9.497,4.392c1.001-0.004,2.002-0.005,3.004,0.002c0.298,0.003,0.533,0.117,0.521,0.471
	c-0.015,0.336-0.258,0.397-0.523,0.4c-0.501,0.006-1.002,0.002-1.502,0.002c-0.501-0.001-1.001-0.002-1.502-0.001
	C9.199,5.267,8.991,5.141,8.996,4.833C9,4.533,9.208,4.392,9.497,4.392z"/>
<path class="white" fill="#FFFFFF" d="M7.372,14.35c-0.531,0.002-0.99-0.451-0.996-0.981c-0.006-0.554,0.412-0.972,0.979-0.978
	c0.546-0.007,1.002,0.428,1.01,0.959C8.371,13.839,7.867,14.346,7.372,14.35z"/>
<path class="white" fill="#FFFFFF" d="M12.654,14.016c-1.086,0-2.172,0.002-3.258,0c-0.171,0-0.345-0.039-0.334-0.25
	c0.011-0.188,0.191-0.186,0.331-0.187c0.552-0.004,1.104-0.002,1.656-0.002c0.534,0.001,1.068-0.001,1.604,0.002
	c0.146,0,0.312,0.019,0.309,0.208C12.956,13.96,12.811,14.014,12.654,14.016z"/>
<path class="white" fill="#FFFFFF" d="M12.652,13.102c-1.09,0.004-2.177,0.006-3.269,0c-0.156,0-0.352-0.013-0.329-0.248
	c0.022-0.211,0.196-0.223,0.364-0.223h3.212c0.18,0,0.342,0.049,0.335,0.253C12.963,13.061,12.803,13.102,12.652,13.102z"/>
<path class="white" fill="#FFFFFF" d="M14.648,14.35c-0.527-0.002-0.986-0.463-0.987-0.99c0-0.558,0.412-0.965,0.981-0.969
	c0.569-0.002,0.977,0.396,0.979,0.965C15.624,13.891,15.174,14.35,14.648,14.35z"/>
<path class="white" fill="#FFFFFF" d="M14.736,10.059c-1.254,0.005-2.506,0.001-3.758,0.001c-1.216,0-2.434,0.004-3.65-0.001
	c-0.753-0.003-1.067-0.32-1.074-1.082C6.249,8.368,6.244,7.76,6.256,7.151c0.018-0.889,0.559-1.435,1.45-1.438l6.603,0.001
	c0.877,0.004,1.408,0.513,1.447,1.386c0.03,0.661,0.025,1.325,0.003,1.985C15.738,9.742,15.396,10.055,14.736,10.059z"/>
</svg>
