<?xml version="1.0" encoding="utf-8"?>
<!-- Generator: Adobe Illustrator 16.0.4, SVG Export Plug-In . SVG Version: 6.00 Build 0)  -->
<!DOCTYPE svg PUBLIC "-//W3C//DTD SVG 1.1//EN" "http://www.w3.org/Graphics/SVG/1.1/DTD/svg11.dtd">
<svg version="1.1"
	 id="Layer_1" xmlns:rdf="http://www.w3.org/1999/02/22-rdf-syntax-ns#" xmlns:cc="http://creativecommons.org/ns#" xmlns:dc="http://purl.org/dc/elements/1.1/" xmlns:svg="http://www.w3.org/2000/svg"
	 xmlns="http://www.w3.org/2000/svg" xmlns:xlink="http://www.w3.org/1999/xlink" x="0px" y="0px" width="22px" height="22px"
	 viewBox="0 0 22 22" enable-background="new 0 0 22 22" xml:space="preserve">
<path class="black" d="M22,11c0,6.075-4.925,11-11,11S0,17.075,0,11S4.925,0,11,0S22,4.925,22,11z"/>
<path class="white" fill="#FFFFFF" d="M21,11c0,5.523-4.477,10-10,10C5.477,21,1,16.523,1,11C1,5.477,5.477,1,11,1
	C16.523,1,21,5.477,21,11z"/>
<path class="black" d="M11.18,14.777c-0.127,0.187-0.241,0.349-0.351,0.514c-0.901,1.355-2.288,1.968-3.755,1.658
	c-1.341-0.284-2.428-1.436-2.667-2.821c-0.251-1.458,0.373-2.807,1.741-3.622c0.379-0.225,0.671-0.483,0.448-0.882
	C6.365,9.216,6.01,9.575,5.76,9.698c-1.619,0.799-2.465,2.556-2.229,4.559c0.194,1.64,1.606,3.144,3.335,3.548
	c1.683,0.396,3.577-0.367,4.545-1.77C11.771,15.514,11.704,15.15,11.18,14.777z"/>
<path class="black" d="M7.639,6.948C8.37,6.927,9.016,6.257,9.013,5.52C9.01,4.718,8.326,4.052,7.556,4.095
	C6.819,4.138,6.18,4.83,6.203,5.559C6.226,6.262,6.954,6.967,7.639,6.948z"/>
<path class="black" d="M18.073,9.834c-1.54-0.037-3.08-0.074-4.62-0.113c-0.758-0.018-1.516-0.04-2.273-0.053l-0.22,0.047
	c-0.051-0.385-0.4-0.458-0.761-0.449c-0.147,0.004-0.294-0.002-0.44-0.003C8.328,9.255,8.321,9.257,8.174,7.889
	C8.136,7.534,8.033,7.225,7.643,7.203C7.182,7.178,7.061,7.524,7.057,7.908c-0.01,0.761-0.002,1.521-0.002,2.281
	c0,0.73,0.013,1.463-0.005,2.192c-0.011,0.45,0.16,0.63,0.619,0.607c0.671-0.032,1.354,0.05,2.016-0.04
	c0.977-0.132,1.566,0.215,1.946,1.122c0.312,0.744,0.678,1.494,1.736,1.418c0.05-0.006,0.101-0.006,0.152-0.006
	c-0.101,0.216-0.152,0.453-0.152,0.705c0,0.946,0.77,1.719,1.719,1.719c0.95,0,1.719-0.771,1.719-1.719
	c0-0.951-0.769-1.722-1.719-1.722c-0.286,0-0.555,0.07-0.792,0.194c-0.142-0.212-0.453-0.276-0.733-0.277
	c-0.326-0.002-0.565-0.107-0.709-0.318c1.562-0.123,3.121-0.242,4.682-0.363c0.07-0.006,0.144-0.01,0.215-0.018
	c0.253-0.027,0.348-0.115,0.38-0.369c0.097-0.748,0.188-1.494,0.276-2.239c0.031-0.249,0.062-0.498,0.096-0.747
	C18.539,9.967,18.436,9.844,18.073,9.834z"/>
<path class="white" fill="#FFFFFF" d="M9.192,11.882c-0.143,0.022-0.294-0.011-0.438,0.007c-0.578,0.076-0.593-0.289-0.59-0.706
	c0.003-0.429-0.032-0.842,0.607-0.8c0.466,0.03,0.935,0.014,1.403,0.002c0.167-0.003,0.333-0.023,0.47-0.078
	c0.113,0.477,0.248,0.86,0.577,1.686C10.647,11.773,9.959,11.759,9.192,11.882z"/>
<path class="white" fill="#FFFFFF" d="M12.029,12.209c-0.084-0.211-0.176-0.42-0.25-0.634c-0.021-0.048,0.02-0.115,0.031-0.174
	c0.097,0.025,0.271,0.041,0.272,0.074c0.021,0.236,0.015,0.478,0.015,0.716C12.075,12.197,12.053,12.202,12.029,12.209z"/>
<path class="white" fill="#FFFFFF" d="M12.105,10.975c-0.002,0.049-0.017,0.114-0.047,0.145c-0.115,0.102-0.459,0.012-0.521-0.131
	c-0.06-0.143-0.116-0.287-0.174-0.43c-0.175-0.442-0.207-0.407,0.278-0.392c0.09,0,0.178,0.005,0.269,0
	c0.146-0.008,0.204,0.054,0.196,0.2C12.102,10.569,12.109,10.773,12.105,10.975z"/>
<path fill="#FFFFFF" d="M15.596,15.428c-0.146-0.099-0.322-0.156-0.512-0.156c-0.277,0-0.526,0.123-0.695,0.318
	c-0.138,0.16-0.222,0.369-0.222,0.598c0,0.507,0.411,0.918,0.917,0.918s0.917-0.411,0.917-0.918
	C16.001,15.871,15.84,15.592,15.596,15.428z"/>
<path class="white" fill="#FFFFFF" d="M12.857,10.192c0.533,0.015,0.459-0.059,0.463,0.475c0.004,0.48,0,0.483-0.485,0.48
	c-0.543-0.005-0.467,0.073-0.474-0.477C12.361,10.182,12.361,10.179,12.857,10.192z"/>
<path class="white" fill="#FFFFFF" d="M13.137,13.436c-0.154,0.006-0.31,0.03-0.465,0.03c-0.018,0-0.039-0.004-0.061-0.011
	c-0.068-0.17-0.146-0.326-0.229-0.467c-0.007-0.034-0.013-0.07-0.015-0.105c-0.026-0.371-0.014-0.373,0.354-0.373h0.146
	c0.522,0.008,0.446-0.062,0.454,0.457c0,0.09-0.006,0.18,0.003,0.27C13.332,13.372,13.271,13.432,13.137,13.436z"/>
<path class="white" fill="#FFFFFF" d="M13.322,12.092c0.002,0.119-0.045,0.176-0.168,0.172c-0.137-0.004-0.273,0-0.41,0
	c-0.42-0.003-0.385,0.038-0.383-0.384c0.005-0.56-0.073-0.477,0.479-0.484c0.096,0,0.189,0.005,0.286-0.002
	c0.146-0.011,0.203,0.056,0.196,0.199C13.314,11.759,13.316,11.926,13.322,12.092z"/>
<path class="white" fill="#FFFFFF" d="M14.787,10.573c0-0.336,0-0.336,0.326-0.326c0.078,0.004,0.156,0.005,0.232,0.006
	c0.441,0.014,0.401-0.04,0.398,0.41c-0.004,0.56,0.076,0.477-0.479,0.484c-0.106,0-0.216-0.003-0.32,0
	c-0.115,0.003-0.161-0.052-0.158-0.164C14.79,10.847,14.787,10.71,14.787,10.573z"/>
<path class="white" fill="#FFFFFF" d="M13.762,10.213c0.202,0.011,0.404,0.013,0.606,0.016c0.108,0,0.168,0.041,0.166,0.157
	c-0.002,0.203-0.002,0.405,0,0.607c0.001,0.104-0.044,0.156-0.149,0.154c-0.119-0.002-0.238,0.003-0.357,0
	c-0.518-0.005-0.444,0.065-0.45-0.459c0-0.096,0.005-0.191-0.001-0.286C13.564,10.266,13.62,10.206,13.762,10.213z"/>
<path class="white" fill="#FFFFFF" d="M13.573,11.566c-0.003-0.117,0.046-0.176,0.169-0.173c0.136,0.005,0.271,0,0.41,0.002
	c0.42,0.001,0.381-0.035,0.382,0.384c0.002,0.484,0.001,0.484-0.478,0.484c-0.104,0-0.203-0.008-0.307,0
	c-0.13,0.006-0.186-0.053-0.182-0.181C13.579,11.912,13.578,11.741,13.573,11.566z"/>
<path class="white" fill="#FFFFFF" d="M14.004,13.367c-0.488,0.037-0.424,0.072-0.43-0.401c0-0.088,0.005-0.18-0.001-0.269
	c-0.009-0.139,0.052-0.194,0.188-0.188c0.158,0.007,0.319,0,0.48,0c0.289,0.001,0.289,0.001,0.29,0.284
	C14.536,13.324,14.536,13.326,14.004,13.367z"/>
<path class="white" fill="#FFFFFF" d="M15.748,13.073c0.003,0.11-0.044,0.165-0.155,0.171c-0.179,0.011-0.356,0.027-0.532,0.041
	c-0.271,0.021-0.271,0.021-0.271-0.246v-0.053c0.008-0.547-0.073-0.469,0.472-0.479c0.106,0,0.215,0.006,0.32-0.001
	c0.121-0.004,0.173,0.054,0.169,0.173C15.744,12.812,15.744,12.941,15.748,13.073z"/>
<path class="white" fill="#FFFFFF" d="M15.312,12.264c-0.146,0-0.254-0.004-0.36,0c-0.108,0.004-0.166-0.037-0.165-0.154
	c0.003-0.185,0.003-0.365,0-0.553c-0.001-0.114,0.05-0.164,0.162-0.161c0.131,0.002,0.262-0.002,0.393,0
	c0.447,0.002,0.408-0.046,0.405,0.397C15.743,12.338,15.82,12.256,15.312,12.264z"/>
<path class="white" fill="#FFFFFF" d="M16,10.453c-0.007-0.144,0.059-0.191,0.191-0.182c0.132,0.01,0.263,0.008,0.394,0.013
	c0.401,0.013,0.379-0.04,0.376,0.378c-0.005,0.561,0.075,0.478-0.479,0.485c-0.104,0-0.203-0.004-0.303,0.002
	c-0.132,0.005-0.187-0.05-0.183-0.18C16.005,10.797,16.007,10.624,16,10.453z"/>
<path class="white" fill="#FFFFFF" d="M16.479,12.264c-0.102,0-0.201-0.004-0.304,0c-0.118,0.006-0.178-0.041-0.174-0.164
	c0.004-0.186,0.003-0.369,0-0.554c-0.001-0.104,0.05-0.152,0.151-0.15c0.138,0.002,0.271-0.002,0.412,0
	c0.433,0.002,0.396-0.044,0.396,0.388C16.956,12.34,17.036,12.256,16.479,12.264z"/>
<path class="white" fill="#FFFFFF" d="M16.541,13.17c-0.036,0.003-0.07,0.007-0.107,0.01c-0.496,0.039-0.427,0.071-0.433-0.396
	c0-0.043-0.015-0.095,0.004-0.124c0.034-0.057,0.087-0.139,0.138-0.143c0.227-0.017,0.451-0.015,0.676,0
	c0.053,0.002,0.127,0.069,0.139,0.117C17.033,13.082,16.984,13.139,16.541,13.17z"/>
<path class="white" fill="#FFFFFF" d="M17.701,12.812c-0.008,0.047,0.001,0.103-0.021,0.14c-0.033,0.054-0.08,0.122-0.135,0.136
	c-0.285,0.07-0.331,0.029-0.331-0.27c0-0.305,0-0.305,0.228-0.311C17.738,12.509,17.738,12.509,17.701,12.812z"/>
<path class="white" fill="#FFFFFF" d="M17.795,12.068c-0.01,0.156-0.086,0.197-0.23,0.197c-0.351-0.002-0.351,0.004-0.351-0.351
	v-0.071c0.011-0.509-0.083-0.448,0.476-0.451h0.021c0.13-0.008,0.166,0.06,0.146,0.179C17.832,11.738,17.807,11.902,17.795,12.068z"
	/>
<path class="white" fill="#FFFFFF" d="M17.941,10.878c-0.033,0.27-0.033,0.271-0.309,0.27c-0.476-0.003-0.417,0.05-0.422-0.419
	c0-0.077,0.005-0.155,0-0.231c-0.012-0.146,0.047-0.208,0.195-0.196c0.146,0.012,0.298,0.009,0.443,0.012
	c0.107,0.001,0.152,0.051,0.139,0.158C17.975,10.605,17.958,10.743,17.941,10.878z"/>
</svg>
