<?xml version="1.0" encoding="utf-8"?>
<!-- Generator: Adobe Illustrator 16.0.4, SVG Export Plug-In . SVG Version: 6.00 Build 0)  -->
<!DOCTYPE svg PUBLIC "-//W3C//DTD SVG 1.1//EN" "http://www.w3.org/Graphics/SVG/1.1/DTD/svg11.dtd">
<svg version="1.1"
	 id="Layer_1" xmlns:rdf="http://www.w3.org/1999/02/22-rdf-syntax-ns#" xmlns:cc="http://creativecommons.org/ns#" xmlns:dc="http://purl.org/dc/elements/1.1/" xmlns:svg="http://www.w3.org/2000/svg"
	 xmlns="http://www.w3.org/2000/svg" xmlns:xlink="http://www.w3.org/1999/xlink" x="0px" y="0px" width="22px" height="22px"
	 viewBox="0 0 22 22" enable-background="new 0 0 22 22" xml:space="preserve">
<path class="black" d="M22,11c0,6.075-4.925,11-11,11S0,17.075,0,11S4.925,0,11,0S22,4.925,22,11z"/>
<path class="white" fill="#FFFFFF" d="M21,11c0,5.523-4.477,10-10,10C5.477,21,1,16.523,1,11C1,5.477,5.477,1,11,1
	C16.523,1,21,5.477,21,11z"/>
<path class="black" d="M18.504,8.503c-0.009-0.717-0.452-1.152-1.176-1.162c-0.872-0.012-1.745-0.012-2.617,0
	c-0.718,0.01-1.156,0.446-1.165,1.171c-0.014,1.049,0.006,2.099-0.01,3.149c-0.007,0.337,0.155,0.459,0.448,0.459
	c0.277,0,0.469-0.089,0.455-0.44c-0.021-0.665-0.006-1.331-0.006-1.997c0-0.192-0.021-0.387,0.01-0.575
	c0.014-0.09,0.119-0.165,0.184-0.247c0.051,0.076,0.124,0.146,0.146,0.23c0.024,0.097,0.009,0.206,0.009,0.31
	c0,2.542,0.008,5.087-0.009,7.63c-0.002,0.398,0.082,0.615,0.521,0.604c0.478-0.013,0.541-0.074,0.541-0.627
	c0-1.404-0.001-2.81,0-4.215c0-0.118-0.004-0.238,0.021-0.352c0.015-0.057,0.102-0.133,0.144-0.127
	c0.067,0.012,0.167,0.067,0.188,0.129c0.033,0.106,0.021,0.231,0.021,0.353c0,1.435,0.017,2.868-0.008,4.304
	c-0.009,0.432,0.177,0.541,0.554,0.534c0.352-0.006,0.527-0.104,0.521-0.514c-0.024-1.3-0.01-2.603-0.01-3.903
	c0.002-1.316-0.007-2.633,0.008-3.948c0-0.137,0.097-0.271,0.146-0.407c0.062,0.141,0.183,0.282,0.187,0.425
	c0.017,0.798,0.02,1.597,0.002,2.396c-0.008,0.35,0.186,0.441,0.463,0.438c0.255-0.007,0.445-0.094,0.438-0.422
	C18.497,10.633,18.518,9.567,18.504,8.503z"/>
<path class="black" d="M16.034,6.999c0.567-0.01,0.983-0.445,0.979-1.025c-0.009-0.562-0.459-1.022-1.009-1.023
	c-0.555,0-1.053,0.501-1.044,1.051C14.973,6.574,15.438,7.009,16.034,6.999z"/>
<path class="black" d="M8,7.964C7.836,7.536,7.483,7.337,7.022,7.338c-0.385,0-0.768-0.002-1.152,0
	C5.204,7.34,4.883,7.541,4.654,8.155c-0.381,1.02-0.727,2.052-1.118,3.068c-0.13,0.337,0.052,0.441,0.288,0.511
	c0.222,0.064,0.451,0.129,0.558-0.219C4.62,10.743,4.895,9.98,5.156,9.215C5.202,9.085,5.26,8.96,5.311,8.832
	C5.362,8.84,5.412,8.847,5.462,8.854c-0.006,0.127,0.011,0.26-0.026,0.377c-0.31,0.982-0.631,1.961-0.945,2.942
	c-0.119,0.372-0.227,0.748-0.362,1.194h1.14c0,1.296,0.011,2.535-0.007,3.775c-0.005,0.385,0.179,0.485,0.512,0.485
	c0.338-0.001,0.458-0.151,0.452-0.493C6.21,16.061,6.217,14.98,6.223,13.9c0.001-0.149,0.053-0.301,0.083-0.45
	c0.053,0.003,0.105,0.005,0.158,0.008c0.025,0.177,0.072,0.354,0.073,0.53c0.006,1.078,0.007,2.156-0.001,3.234
	c-0.003,0.322,0.175,0.408,0.446,0.402c0.265-0.006,0.497-0.025,0.491-0.398c-0.016-0.845-0.005-1.688-0.005-2.527
	c0-0.438,0-0.877,0-1.346h1.168C8.172,11.918,7.73,10.562,7.3,9.204c-0.031-0.1,0.017-0.227,0.029-0.342
	C7.406,8.947,7.52,9.02,7.555,9.122c0.276,0.791,0.548,1.585,0.8,2.385c0.103,0.327,0.32,0.304,0.555,0.233
	c0.219-0.065,0.435-0.158,0.32-0.465C8.821,10.171,8.424,9.062,8,7.964z"/>
<path class="black" d="M6.337,6.998c0.595-0.002,1.051-0.449,1.042-1.022C7.37,5.435,6.902,4.964,6.358,4.95
	C5.806,4.938,5.327,5.426,5.333,5.997C5.339,6.576,5.764,6.999,6.337,6.998z"/>
<path class="black" d="M11.046,4.365v3.697c0,0,0,1.664,0,2.219c0,0.758,0,3.031,0,3.031v4.322h0.835V4.365H11.046z"/>
</svg>
