<?xml version="1.0" encoding="utf-8"?>
<!DOCTYPE svg PUBLIC "-//W3C//DTD SVG 1.1//EN" "http://www.w3.org/Graphics/SVG/1.1/DTD/svg11.dtd">
<svg version="1.1" xmlns="http://www.w3.org/2000/svg" xmlns:xlink="http://www.w3.org/1999/xlink" xml:space="preserve">
<g class="level" id="level0">
            <g class="outline">
                    <path d="M433.196,59.481 C433.239,59.071 433.112,58.659 432.844,58.342 L432.293,57.691 L432.367,57.639 C432.746,57.37 432.982,56.942 433.008,56.478 C433.031,56.015 432.843,55.565 432.494,55.258 L422.234,46.249 C422.081,46.112 421.899,46.011 421.707,45.947 L412.438,42.901 L412.447,42.137 C412.45,41.862 412.38,41.596 412.25,41.368 C412.1,40.914 411.742,40.552 411.278,40.399 L381.954,30.819 C381.872,30.791 381.789,30.772 381.706,30.758 C381.669,30.744 381.632,30.732 381.593,30.72 L367.243,26.614 C367.15,26.587 367.057,26.571 366.966,26.562 C366.945,26.554 366.92,26.545 366.899,26.54 L357.398,23.764 C357.305,23.74 357.214,23.721 357.125,23.711 C357.103,23.703 357.079,23.696 357.058,23.69 L304.822,8.045 C304.801,8.04 304.785,8.033 304.765,8.029 C304.702,7.995 304.63,7.967 304.561,7.942 L296.506,5.206 C296.043,5.049 295.534,5.123 295.137,5.408 L294.96,5.533 C294.94,5.545 294.923,5.557 294.904,5.572 L281.142,15.387 L224.102,0.83 C223.659,0.719 223.19,0.81 222.822,1.084 L195.059,21.732 C195.049,21.741 195.038,21.749 195.03,21.756 L179.019,33.173 C178.843,33.298 178.7,33.455 178.594,33.635 C178.24,33.917 178.03,34.346 178.025,34.802 L177.985,38.316 C177.978,38.943 178.36,39.512 178.943,39.743 L179.137,39.819 C179.199,39.844 179.263,39.865 179.329,39.883 L199.822,44.997 L192.831,49.979 C192.759,50.014 192.688,50.058 192.623,50.105 L183.747,56.44 C183.689,56.481 183.635,56.525 183.585,56.574 C183.573,56.582 183.562,56.59 183.55,56.597 L177.282,61.075 L160.014,56.748 C157.264,56.067 155.199,55.837 153.656,56.052 C153.606,56.058 153.558,56.068 153.511,56.078 L152.024,56.432 C151.95,56.451 151.878,56.473 151.806,56.502 C150.432,57.057 149.424,57.797 148.847,58.648 C148.802,58.71 148.76,58.775 148.737,58.818 C148.73,58.827 148.723,58.836 148.716,58.844 C148.659,58.919 148.61,59.001 148.567,59.086 C148.487,59.218 148.414,59.347 148.381,59.419 C148.014,60.073 147.789,60.723 147.694,61.393 L144.594,81.665 C144.559,81.769 144.536,81.894 144.525,82.014 L143.245,90.584 C143.234,90.66 143.228,90.734 143.228,90.809 L143.228,94.36 C143.228,95.057 143.703,95.666 144.38,95.834 L147.918,96.714 C147.918,96.714 141.841,100.947 141.757,101.008 L141.272,106.412 L77.698,151.556 L66.047,166.585 C66.047,166.585 62.953,168.666 62.938,168.676 L24.818,195.858 C24.353,196.19 24.132,196.76 24.216,197.325 L24.181,200.624 C24.174,201.328 24.651,201.944 25.333,202.116 L110.29,223.223 C110.411,223.252 110.612,223.267 110.736,223.267 C111.051,223.267 111.361,223.169 111.618,222.985 L112.883,222.081 L115.596,222.756 C116.028,222.861 116.483,222.777 116.845,222.519 L121.934,218.887 L121.934,220.893 C121.934,221.591 122.41,222.199 123.087,222.367 L134.711,225.255 C134.769,225.269 134.827,225.279 134.885,225.287 L205.799,234.298 C205.876,234.307 205.953,234.311 206.03,234.311 L206.186,234.311 C206.502,234.311 206.81,234.211 207.067,234.03 L239.91,210.62 C240.306,210.34 240.544,209.885 240.55,209.4 L240.587,205.849 C240.595,205.086 240.036,204.438 239.283,204.329 L216.11,201.062 L209.307,199.37 L209.341,196.329 C209.349,195.626 208.875,195.012 208.194,194.839 L205.616,194.191 C205.676,194.026 205.708,193.853 205.71,193.673 L205.749,190.124 C205.751,190.012 205.739,189.9 205.717,189.791 L209.286,190.664 L209.517,190.749 C209.571,190.77 209.625,190.786 209.682,190.801 L240.612,198.486 C241.041,198.593 241.497,198.508 241.859,198.251 L258.596,186.312 C258.992,186.032 259.228,185.579 259.233,185.093 L259.271,181.541 C259.279,180.839 258.802,180.221 258.12,180.052 L253.264,178.844 L261.043,173.282 L262.302,173.594 C262.732,173.703 263.189,173.615 263.549,173.358 L282.742,159.663 C283.141,159.379 283.378,158.919 283.378,158.428 L283.378,154.878 C283.378,154.182 282.901,153.574 282.226,153.405 L259.643,147.785 C259.21,147.681 258.755,147.765 258.394,148.024 L255.7,149.95 C255.604,149.36 255.166,148.872 254.57,148.722 L237.12,144.357 L239.562,142.613 C239.795,142.449 239.97,142.224 240.081,141.969 L240.757,142.143 C241.191,142.256 241.656,142.168 242.02,141.91 L274.083,119.006 C274.482,118.721 274.718,118.262 274.718,117.771 L274.718,115.715 L276.967,116.279 C277.4,116.388 277.857,116.3 278.217,116.041 L287.893,109.136 C288.288,108.854 288.522,108.403 288.529,107.918 L288.554,105.641 L291.011,106.253 C291.445,106.359 291.9,106.274 292.259,106.016 L301.231,99.616 C301.622,99.338 301.858,98.892 301.87,98.412 L301.87,98.406 L310.201,100.495 L308.056,102.02 C307.655,102.304 307.415,102.766 307.415,103.258 L307.415,106.808 C307.415,107.505 307.89,108.113 308.566,108.282 L362.434,121.705 C362.865,121.813 363.324,121.726 363.682,121.467 L398.362,96.691 C398.757,96.409 398.99,95.956 398.996,95.472 L399.037,91.922 C399.045,91.34 398.722,90.819 398.221,90.558 C398.066,90.443 397.885,90.356 397.687,90.306 L396.599,90.037 L432.569,64.384 C432.969,64.099 433.207,63.638 433.207,63.147 L433.207,59.635 C433.204,59.586 433.201,59.532 433.196,59.481 L433.196,59.481 L433.196,59.481 Z M433.196,59.481" class="outline"/>
                </g>
                <g class="label">
                    <path d="M11.935,105.231 C9.054,105.231 7.229,107.568 7.229,111.169 C7.229,114.562 9.021,116.675 11.887,116.675 C14.768,116.675 16.593,114.322 16.593,110.721 C16.592,107.328 14.784,105.231 11.935,105.231 L11.935,105.231 Z M11.918,115.491 C9.773,115.491 8.524,113.746 8.524,111.234 C8.524,108.273 9.756,106.416 11.901,106.416 C14.094,106.416 15.295,108.161 15.295,110.658 C15.296,113.619 14.063,115.491 11.918,115.491 L11.918,115.491 Z M38.415,115.332 L33.645,115.332 L33.645,111.474 L37.519,111.474 C37.903,111.474 38.111,111.154 38.111,110.882 C38.111,110.594 37.903,110.306 37.519,110.306 L33.645,110.306 L33.645,106.577 L38.255,106.577 C38.671,106.577 38.895,106.305 38.895,106.001 C38.895,105.665 38.671,105.361 38.255,105.361 L33.469,105.361 C32.781,105.361 32.412,105.729 32.412,106.321 L32.412,115.589 C32.412,116.181 32.78,116.549 33.469,116.549 L38.415,116.549 C38.799,116.549 39.023,116.213 39.023,115.941 C39.023,115.604 38.799,115.332 38.415,115.332 L38.415,115.332 Z M29.921,105.295 C29.585,105.295 29.377,105.551 29.329,105.871 C28.881,108.928 28.305,112.017 27.568,115.091 L27.536,115.091 C26.672,112.274 25.984,108.912 25.231,106.559 C24.927,105.599 24.655,105.295 24.159,105.295 C23.726,105.295 23.407,105.631 23.135,106.495 C22.399,108.816 21.582,112.45 20.718,115.091 L20.686,115.091 C19.934,112.034 19.485,108.945 19.085,105.935 C19.005,105.503 18.781,105.295 18.429,105.295 C18.045,105.295 17.821,105.599 17.821,105.935 C17.821,106.047 17.853,106.239 17.869,106.303 C18.302,109.392 18.91,112.561 19.534,115.331 C19.758,116.291 20.094,116.611 20.638,116.611 C21.118,116.611 21.438,116.339 21.742,115.475 C22.606,112.978 23.214,110.225 24.143,107.056 L24.175,107.056 C25.135,110.225 25.696,112.994 26.464,115.475 C26.736,116.355 27.072,116.611 27.601,116.611 C28.081,116.611 28.401,116.275 28.593,115.539 C29.345,112.546 29.986,109.424 30.498,106.223 C30.53,106.047 30.53,105.935 30.53,105.855 C30.529,105.567 30.29,105.295 29.921,105.295 L29.921,105.295 Z M6.207,115.363 L1.901,115.363 L1.901,105.951 C1.901,105.551 1.645,105.295 1.293,105.295 C0.94,105.295 0.668,105.551 0.668,105.951 L0.668,115.587 C0.668,116.179 1.036,116.547 1.725,116.547 L6.206,116.547 C6.606,116.547 6.862,116.275 6.862,115.939 C6.863,115.635 6.623,115.363 6.207,115.363 L6.207,115.363 Z M72.254,106.768 C71.63,105.519 71.134,105.151 70.573,105.151 C70.013,105.151 69.517,105.519 68.892,106.768 C67.996,108.577 67.308,110.85 66.139,115.476 C66.075,115.7 66.043,115.876 66.043,115.988 C66.043,116.372 66.299,116.612 66.651,116.612 C66.939,116.612 67.147,116.436 67.227,116.1 C67.531,114.724 67.835,113.491 68.14,112.434 L73.006,112.434 C73.294,113.491 73.598,114.723 73.919,116.1 C73.999,116.436 74.207,116.612 74.495,116.612 C74.847,116.612 75.103,116.372 75.103,115.988 C75.103,115.876 75.055,115.7 75.007,115.476 C73.871,110.85 73.15,108.577 72.254,106.768 L72.254,106.768 Z M68.46,111.314 C69.196,108.865 69.853,107.344 70.365,106.544 C70.413,106.48 70.461,106.416 70.573,106.416 C70.685,106.416 70.733,106.48 70.781,106.544 C71.293,107.344 71.933,108.865 72.67,111.314 L68.46,111.314 L68.46,111.314 Z M89.982,115.363 L85.676,115.363 L85.676,105.951 C85.676,105.551 85.42,105.295 85.068,105.295 C84.715,105.295 84.443,105.551 84.443,105.951 L84.443,115.587 C84.443,116.179 84.811,116.547 85.5,116.547 L89.981,116.547 C90.381,116.547 90.637,116.275 90.637,115.939 C90.638,115.635 90.398,115.363 89.982,115.363 L89.982,115.363 Z M63.696,106.592 C63.584,105.759 63.296,105.296 62.64,105.296 C62.015,105.296 61.744,105.664 61.567,106.128 C60.751,108.337 59.855,111.17 58.878,113.795 L58.862,113.795 C57.854,111.314 57.07,108.705 56.045,106.272 C55.821,105.664 55.549,105.296 54.924,105.296 C54.268,105.296 53.964,105.744 53.868,106.625 C53.515,109.554 53.324,112.723 53.34,115.973 C53.324,116.357 53.564,116.613 53.916,116.613 C54.268,116.613 54.54,116.389 54.54,115.957 C54.524,112.884 54.716,109.907 55.053,106.914 L55.069,106.914 C56.046,109.539 56.99,112.18 58.03,114.805 C58.158,115.141 58.43,115.381 58.846,115.381 C59.246,115.381 59.55,115.141 59.678,114.805 C60.702,112.26 61.583,109.555 62.511,106.914 L62.527,106.914 C62.944,109.939 63.103,112.916 63.183,115.893 C63.183,116.341 63.407,116.613 63.824,116.613 C64.176,116.613 64.4,116.325 64.4,115.941 C64.4,115.813 64.384,115.573 64.384,115.461 C64.352,112.418 64.096,109.361 63.696,106.592 L63.696,106.592 Z M82.366,115.363 L78.06,115.363 L78.06,105.951 C78.06,105.551 77.804,105.295 77.452,105.295 C77.099,105.295 76.827,105.551 76.827,105.951 L76.827,115.587 C76.827,116.179 77.195,116.547 77.884,116.547 L82.365,116.547 C82.765,116.547 83.021,116.275 83.021,115.939 C83.022,115.635 82.782,115.363 82.366,115.363 L82.366,115.363 Z M46.463,112.434 C46.175,112.018 45.855,111.698 45.486,111.458 C46.911,110.961 47.839,109.969 47.839,108.449 C47.839,106.512 46.527,105.232 43.63,105.232 C42.526,105.232 41.773,105.344 41.261,105.504 C40.861,105.632 40.749,105.872 40.749,106.272 L40.749,115.972 C40.749,116.372 41.021,116.612 41.374,116.612 C41.726,116.612 41.998,116.372 41.998,115.972 L41.998,111.794 L43.247,111.794 C44.415,111.794 44.88,112.274 45.456,113.203 C45.856,113.843 46.272,114.771 46.768,116.164 C46.864,116.42 47.04,116.612 47.376,116.612 C47.712,116.612 48.001,116.372 48.001,115.988 C48.001,115.876 47.969,115.716 47.905,115.556 C47.471,114.403 46.959,113.203 46.463,112.434 L46.463,112.434 Z M43.438,110.578 L41.998,110.578 L41.998,106.544 C42.446,106.48 42.878,106.416 43.567,106.416 C45.856,106.416 46.576,107.312 46.576,108.497 C46.575,110.146 45.022,110.625 43.438,110.578 L43.438,110.578 Z M43.438,110.578" class="Shape"/>
                </g>
                <g class="background">
                    <path d="M410.664,43.913 L421.234,47.389 L431.494,56.398 L428.839,58.274 L420.998,56.323 L410.116,57.65 L398.1,54.646 L348.797,62.917 L342.555,67.366 L301.673,73.376 L188.473,154.22 L190.655,156.678 L215.191,162.766 L219.716,159.568 L262.664,170.257 L250.612,178.882 L211.45,169.125 L212.852,168.111 L210.941,165.222 L185.821,158.941 L180.866,159.641 L143.534,186.251 L150.675,196.51 L115.958,221.289 L110.613,219.961 L107,218.182 L116.52,211.337 L136.187,197.295 L123.283,191.22 L56.708,175.022 L67.16,167.601 L78.93,152.572 L142.616,107.568 L143.107,102.072 L153.853,94.46 L219.308,110.414 L223.428,110.045 L262.665,82.031 L260.405,78.677 L275.227,68.102 L264.889,65.527 L289.155,48.205 L332.101,58.854 L406.917,46.603 L410.664,43.913" class="walkway"/>
                    <path d="M381.368,32.482 L381.293,32.442 L356.756,25.379 L356.561,25.34 L304.33,9.693 L295.788,6.803 L274.725,21.827 L267.39,23.502 L249.368,36.382 L195.966,23.076 L179.544,34.821 L179.504,38.334 L179.698,38.41 L203.454,44.338 L184.497,57.878 L184.303,57.995 L177.633,62.754 L158.947,58.111 L158.909,58.111 L157.7,57.877 L157.661,57.877 L157.31,57.801 L155.827,57.645 L153.994,57.684 L152.355,58.076 C151.263,58.492 150.456,59.05 149.937,59.752 C149.547,60.274 149.3,60.898 149.195,61.626 L146.074,82.033 L146.034,82.15 L146.034,82.188 L144.747,90.813 L144.747,94.364 L167.02,99.905 L145.566,115.199 L141.823,114.261 L111.747,135.723 L111.747,139.703 L135.249,145.241 L135.3,149.162 L158.595,154.879 L163.277,151.563 L169.322,150.706 L187.616,137.674 L187.616,136.463 L218.863,114.185 L218.902,112.078 L223.507,111.884 L262.827,83.79 L262.865,80.24 L262.239,79.302 L277.962,68.105 L277.962,64.362 L268.833,64.636 L289.232,50.043 L317.319,57.024 L317.513,57.103 L332.062,60.73 L351.373,57.57 L351.373,56.087 L354.377,57.063 L368.809,54.682 L368.809,54.643 L368.888,54.682 L378.715,52.965 L378.795,52.965 L407.033,48.438 L410.892,45.67 L410.931,42.118 L381.368,32.482 L381.368,32.482 Z M381.368,32.482" class="wall"/>
                    <path d="M161.909,160.44 L161.938,155.935 L114.655,144.034 L77.976,170.268 L77.919,173.415 L64.333,170.012 L26.33,197.15 L26.33,197.228 L26.253,197.19 L26.214,200.74 L111.171,221.849 L111.251,221.849 L120.261,215.41 L120.301,213.108 L136.156,201.799 L136.187,197.295 L131.922,190.945 L122.43,188.521 L161.909,160.44 L161.909,160.44 Z M161.909,160.44" class="wall"/>
                    <path d="M431.688,59.638 L428.998,56.438 L421,54.449 L410.155,55.777 L407.152,54.996 L405.827,55.93 L405.868,54.684 L398.143,52.77 L386.127,54.762 L385.975,54.801 L348.835,61.354 L343.101,65.53 L301.558,71.538 L279.015,87.614 L279.015,89.486 L277.063,89.018 L233.139,120.388 L232.948,120.507 L217.811,131.313 L217.811,132.6 L216.481,132.291 L207.591,138.65 L207.393,138.766 L194.833,147.741 L194.639,147.858 L190.897,150.55 L190.699,150.669 L188.245,152.422 L188.245,155.975 L190.191,158.158 L185.824,157.064 L180.716,157.807 L174.317,162.372 L174.122,162.491 L153.292,177.395 L153.098,177.51 L143.345,184.456 L143.308,188.008 L147.48,194.171 L148.378,194.054 L148.378,195.421 L148.769,195.966 L123.06,214.304 L123.06,217.817 L123.451,217.933 L123.451,220.899 L135.075,223.787 L205.991,232.798 L206.029,232.76 L206.029,232.798 L206.186,232.798 L239.03,209.388 L239.067,205.839 L215.823,202.56 L207.043,200.374 L207.784,199.829 L207.825,196.317 L202.402,194.952 L204.193,193.662 L204.232,190.114 L202.558,187.462 L209.733,189.217 L210.048,189.333 L240.979,197.02 L257.716,185.082 L257.754,181.53 L250.849,179.814 L250.889,177.082 L213.05,167.64 L213.05,166.353 L211.295,163.66 L215.275,164.636 L219.799,161.434 L262.669,172.126 L281.86,158.43 L281.86,154.881 L259.276,149.263 L254.2,152.89 L254.2,150.198 L235.166,145.437 L218.395,157.379 L217.891,157.26 L217.965,157.221 L230.88,148.015 L230.92,144.463 L223.504,142.59 L224.05,142.2 L234.038,144.697 L238.68,141.383 L238.719,140.054 L241.134,140.677 L273.2,117.775 L273.2,114.224 L265.984,112.428 L266.451,112.08 L277.335,114.808 L287.008,107.904 L287.05,104.352 L277.335,101.933 L278.039,101.465 L291.376,104.783 L300.35,98.383 L300.389,96.472 L313.768,99.827 L308.934,103.26 L308.934,106.81 L362.801,120.233 L397.479,95.457 L397.52,91.906 L392.954,90.775 L431.687,63.15 L431.688,59.638 L431.688,59.638 Z M431.688,59.638" class="wall"/>
                    <path d="M217.692,118.983 L217.653,122.497 L224.01,124.096 L229.318,120.313 L229.357,116.761 L222.999,115.2 L217.692,118.983 L217.692,118.983 Z M272.067,79.029 L267.31,82.425 L267.27,85.584 L273.002,87.029 L277.762,83.634 L277.803,80.434 L272.067,79.029 L272.067,79.029 Z M246.129,99.202 L246.09,102.909 L251.746,104.43 L256.581,100.996 L256.62,97.212 L250.887,95.808 L246.129,99.202 L246.129,99.202 Z M246.129,99.202" class="wall"/>
                </g>
                <g class="ceilings">
                    <path class="unit" d="M268.922,95.182 L272.834,92.286 L277.838,93.657 L273.967,96.549 L273.927,96.549 L268.922,95.182 L268.922,95.182 Z M268.922,95.182" id="1001"/>
                    <path class="unit" d="M275.259,159.28 L253.285,153.805 L259.423,149.424 L281.395,154.898 L275.259,159.28 L275.259,159.28 Z M275.259,159.28" id="1002"/>
                    <path class="unit" d="M253.677,150.168 L249.651,153.064 L252.78,153.844 L240.268,162.76 L229.631,160.14 L246.21,148.33 L253.677,150.168 L253.677,150.168 Z M253.677,150.168" id="1003"/>
                    <path class="unit" d="M253.089,153.922 L275.062,159.398 C270.917,162.396 266.761,165.382 262.59,168.355 L240.617,162.84 L253.089,153.922 L253.089,153.922 Z M253.089,153.922" id="1004"/>
                    <path class="unit" d="M235.222,145.593 L245.858,148.213 L229.323,160.024 L218.688,157.403 L235.222,145.593 L235.222,145.593 Z M235.222,145.593" id="1005"/>
                    <path class="unit" d="M190.767,158.497 L182.478,164.402 L174.464,162.409 L180.799,157.874 L185.607,157.209 L190.767,158.497 L190.767,158.497 Z M190.767,158.497" id="1006"/>
                    <path class="unit" d="M199.645,160.688 L191.355,166.632 L182.832,164.482 L191.121,158.577 L199.645,160.688 L199.645,160.688 Z M199.645,160.688" id="1007"/>
                    <path class="unit" d="M205.196,162.098 L197.923,167.26 L192.723,165.972 L199.956,160.768 L205.196,162.098 L205.196,162.098 Z M205.196,162.098" id="1008"/>
                    <path class="unit" d="M211.255,167.18 L206.838,166.084 L203.359,168.589 L198.317,167.299 L205.511,162.176 L210.672,163.465 L212.508,166.282 L211.255,167.18 L211.255,167.18 Z M211.255,167.18" id="1009"/>
                    <path class="unit" d="M174.269,162.526 L191.16,166.751 L186.778,169.879 L169.889,165.655 L174.269,162.526 L174.269,162.526 Z M174.269,162.526" id="1010"/>
                    <path class="unit" d="M187.367,179.969 L159.569,173.044 L169.694,165.811 L186.937,170.112 L192.528,166.085 L203.162,168.706 L187.367,179.969 L187.367,179.969 Z M187.367,179.969" id="1011"/>
                    <path class="unit" d="M159.373,173.166 L179.311,178.17 L173.29,182.435 L153.35,177.469 L159.373,173.166 L159.373,173.166 Z M159.373,173.166" id="1012"/>
                    <path class="unit" d="M187.719,180.047 L206.993,166.321 L217.864,169.019 L198.588,182.787 L187.719,180.047 L187.719,180.047 Z M187.719,180.047" id="1013"/>
                    <path class="unit" d="M229.434,171.911 L250.352,177.116 L247.498,179.149 L257.234,181.575 L240.811,193.304 L210.159,185.642 L229.434,171.911 L229.434,171.911 Z M229.434,171.911" id="1014"/>
                    <path class="unit" d="M167.076,181.061 L163.361,183.723 L162.696,183.567 L161.993,184.075 L148.739,180.752 L153.156,177.622 L167.076,181.061 L167.076,181.061 Z M167.076,181.061" id="1015"/>
                    <path class="unit" d="M229.084,171.837 L209.81,185.564 L198.941,182.865 L218.217,169.099 L229.084,171.837 L229.084,171.837 Z M229.084,171.837" id="1016"/>
                    <path class="unit" d="M155.735,182.706 L150.262,186.617 L155.188,187.831 L152.215,189.942 L147.486,190.449 L143.459,184.505 L148.542,180.906 L155.735,182.706 L155.735,182.706 Z M155.735,182.706" id="1017"/>
                    <path class="unit" d="M238.388,205.976 L205.897,229.205 L134.935,220.21 L123.675,217.394 L126.764,215.206 L123.283,214.305 L150.613,194.79 L148.619,192.053 L154.445,191.467 L159.605,187.75 L164.57,189.003 L179.662,178.247 L199.289,183.138 L203.669,190.097 L198.041,194.124 L207.15,196.394 L202.731,199.562 L215.554,202.767 L238.388,205.976 L238.388,205.976 Z M238.388,205.976" id="1018"/>
                    <path class="unit" d="M193.937,104.451 L218.256,110.513 L213.056,114.228 L188.698,108.166 L193.937,104.451 L193.937,104.451 Z M193.937,104.451" id="1019"/>
                    <path class="unit" d="M188.5,108.324 L212.856,114.384 L207.657,118.098 L183.3,112.037 L188.5,108.324 L188.5,108.324 Z M188.5,108.324" id="1020"/>
                    <path class="unit" d="M169.265,98.311 L191.003,103.708 L180.173,111.45 L207.464,118.257 L194.639,127.368 L145.65,115.168 L169.265,98.311 L169.265,98.311 Z M169.265,98.311" id="1021"/>
                    <path class="unit" d="M141.663,114.344 L194.441,127.523 L185.881,133.627 L133.099,120.447 L141.663,114.344 L141.663,114.344 Z M141.663,114.344" id="1022"/>
                    <path class="unit" d="M132.903,120.603 L186.937,134.057 L176.067,141.798 L122.072,128.344 L132.903,120.603 L132.903,120.603 Z M132.903,120.603" id="1023"/>
                    <path class="unit" d="M121.84,128.505 L115.623,132.949 L115.624,132.949 L111.908,135.579 L138.769,142.347 L135.249,145.241 L158.278,151.068 L162.813,147.783 L168.874,146.963 L169.889,146.229 L175.834,141.957 L121.84,128.505 Z M121.84,128.505" id="1024"/>
                    <path class="unit" d="M228.729,116.692 L223.805,120.213 L218.093,118.764 L223.022,115.244 L228.729,116.692 L228.729,116.692 Z M228.729,116.692" id="1027"/>
                    <path class="unit" d="M92.694,159.28 L121.125,166.43 L124.513,164.012 L143.822,168.868 L150.548,164.091 L102.722,152.064 L92.694,159.28 Z M92.694,159.28" id="1028"/>
                    <path class="unit" d="M121.199,166.622 L121.192,166.653 L121.166,166.646 L121.156,166.653 L121.148,166.642 L92.38,159.408 L88.792,161.955 L136.619,173.982 L143.607,169.02 L124.554,164.229 L121.199,166.622 Z M121.199,166.622" id="1029"/>
                    <path class="unit" d="M77.698,169.967 L125.385,181.959 L136.404,174.135 L88.578,162.107 L77.698,169.967 Z M77.698,169.967" id="1030"/>
                    <path class="unit" d="M95.889,175.809 L93.648,177.355 L89.669,180.16 L117.976,187.221 L125.171,182.112 L96.979,175.022 L95.889,175.809 Z M95.889,175.809" id="1031"/>
                    <path class="unit" d="M63.818,169.92 L93.37,177.274 L89.195,180.245 L122.208,188.502 L131.923,190.945 L136.188,197.295 L116.52,211.337 L118.904,211.924 L110.185,218.182 L25.697,197.103 L63.818,169.92 L63.818,169.92 Z M63.818,169.92" id="1032"/>
                    <path class="unit" d="M275.181,21.503 L296.017,6.641 L304.072,9.377 L284.014,23.694 L275.181,21.503 L275.181,21.503 Z M275.181,21.503" id="1033"/>
                    <path class="unit" d="M348.294,41.292 L366.826,28.072 L381.176,32.178 L368.078,41.525 L356.232,38.553 L351.342,42.032 L348.294,41.292 L348.294,41.292 Z M348.294,41.292" id="1034"/>
                    <path class="unit" d="M407.135,44.46 L390.558,47.117 L368.43,41.605 L381.487,32.26 L410.809,41.841 L407.135,44.46 L407.135,44.46 Z M407.135,44.46" id="1035"/>
                    <path class="unit" d="M369.131,50.678 L333.668,41.84 L337.854,38.866 L378.633,49.034 L369.131,50.678 L369.131,50.678 Z M369.131,50.678" id="1036"/>
                    <path class="unit" d="M317.563,53.024 L249.729,36.17 L267.714,23.304 L274.907,21.623 L284.134,23.928 L304.385,9.498 L356.621,25.142 L317.563,53.024 L317.563,53.024 Z M317.563,53.024" id="1037"/>
                    <path class="unit" d="M356.971,25.219 L366.473,27.996 L347.983,41.214 L338.051,38.713 L356.971,25.219 L356.971,25.219 Z M356.971,25.219" id="1038"/>
                    <path class="unit" d="M356.348,38.789 L390.089,47.198 L379.063,48.957 L351.695,42.114 L356.348,38.789 L356.348,38.789 Z M356.348,38.789" id="1039"/>
                    <path class="unit" d="M351.42,53.455 L332.301,56.702" id="1040"/>
                    <path class="unit" d="M332.301,56.701 L317.874,53.101 L326.082,47.235 L351.422,53.455 L332.301,56.701 L332.301,56.701 Z M332.301,56.701" id="1041"/>
                    <path class="unit" d="M327.343,46.338 L333.477,41.957 L369.054,50.718 L354.394,53.103 L327.343,46.338 L327.343,46.338 Z M327.343,46.338" id="1042"/>
                    <path class="unit" d="M405.688,54.472 L400.84,57.912 L387.197,54.547 L398.454,52.672 L405.688,54.472 L405.688,54.472 Z M405.688,54.472" id="1043"/>
                    <path class="unit" d="M395.992,61.276 L391.378,64.561 L365.692,58.147 L376.444,56.388 L395.992,61.276 L395.992,61.276 Z M395.992,61.276" id="1044"/>
                    <path class="unit" d="M386.724,54.589 L400.569,58.069 C399.137,59.112 397.688,60.143 396.227,61.159 L376.876,56.31 L386.724,54.589 L386.724,54.589 Z M386.724,54.589" id="1045"/>
                    <path class="unit" d="M424.964,64.132 L420.624,67.261 L398.258,61.669 L402.598,58.58 L424.964,64.132 L424.964,64.132 Z M424.964,64.132" id="1046"/>
                    <path class="unit" d="M429.107,56.27 L431.685,59.322 L425.161,64.016 L402.797,58.424 L407.645,54.944 L410.457,55.649 L421.367,54.359 L429.107,56.27 L429.107,56.27 Z M429.107,56.27" id="1047"/>
                    <path class="unit" d="M420.426,67.378 L415.815,70.664 L393.449,65.072 L398.065,61.826 L420.426,67.378 L420.426,67.378 Z M420.426,67.378" id="1048"/>
                    <path class="unit" d="M259.647,67.674 L193.701,51.227 L207.582,41.332 L179.899,34.411 L195.968,22.952 L288.92,45.91 L259.647,67.674 L259.647,67.674 Z M259.647,67.674" id="1049"/>
                    <path class="unit" d="M281.356,17.006 L275.181,21.503 L267.387,23.428 L249.367,36.305 L195.967,22.951 L223.728,2.303 L281.356,17.006 L281.356,17.006 Z M281.356,17.006" id="1050"/>
                    <path class="unit" d="M193.505,51.342 L269.236,70.232 L260.36,76.571 L184.627,57.679 L193.505,51.342 L193.505,51.342 Z M193.505,51.342" id="1051"/>
                    <path class="unit" d="M345.439,63.624 L349.152,60.924 L365.222,58.226 L415.617,70.818 L402.556,80.124 L367.917,71.483 L354.508,81.065 L352.084,80.478 L365.493,70.896 L343.052,65.306 L343.364,65.109" id="1052"/>
                    <path class="unit" d="M225.8,68.159 L260.284,76.723 L262.472,80.007 L257.156,83.802 L217.666,73.949 L225.8,68.159 L225.8,68.159 Z M225.8,68.159" id="1053"/>
                    <path class="unit" d="M184.433,57.835 L225.487,68.04 L217.158,73.986 L256.96,83.917 L237.412,97.88 L147.253,75.393 L149.247,61.745 C149.352,60.884 149.625,60.155 150.07,59.555 C150.513,58.903 151.283,58.355 152.377,57.912 L153.863,57.559 C155.192,57.376 157.121,57.599 159.649,58.224 L177.594,62.72 L184.433,57.835 L184.433,57.835 Z M184.433,57.835" id="1054"/>
                    <path class="unit" d="M277.292,89.042 L299.967,94.673 L291.365,100.851 L268.649,95.18 L277.292,89.042 L277.292,89.042 Z M277.292,89.042" id="1055"/>
                    <path class="unit" d="M147.213,75.59 L237.216,98.039 L230.374,102.927 L146.159,81.926 L147.213,75.59 L147.213,75.59 Z M147.213,75.59" id="1056"/>
                    <path class="unit" d="M277.292,110.865 L254.576,105.234 L263.88,98.626 L287.048,104.275 L277.292,110.865 L277.292,110.865 Z M277.292,110.865" id="1057"/>
                    <path class="unit" d="M263.88,98.625 L268.376,95.38 L277.685,97.686 L273.188,100.93 L273.459,101.01 L263.88,98.625 L263.88,98.625 Z M263.88,98.625" id="1058"/>
                    <path class="unit" d="M266.188,108.284 L262.003,111.297 L250.232,108.324 L254.38,105.35 L266.188,108.284 L266.188,108.284 Z M266.188,108.284" id="1059"/>
                    <path class="unit" d="M354.666,81.3 L368.076,71.72 L402.366,80.285 L389.11,89.75 L397.32,91.782 L362.913,116.343 L309.623,103.044 L318.147,96.944 L279.632,87.363 L301.959,71.406 L342.777,65.422 L364.944,70.936 L351.534,80.519 L354.666,81.3 L354.666,81.3 Z M354.666,81.3" id="1060"/>
                    <path class="unit" d="M250.041,108.479 L272.717,114.152 L268.611,117.083 L245.935,111.411 L250.041,108.479 L250.041,108.479 Z M250.041,108.479" id="1061"/>
                    <path class="unit" d="M268.416,117.201 L260.635,122.753 L237.96,117.082 L245.741,111.528 L268.416,117.201 L268.416,117.201 Z M268.416,117.201" id="1062"/>
                    <path class="unit" d="M146.121,82.119 L230.182,103.041 L223.221,108.008 L216.303,108.323 L144.91,90.531 L146.121,82.119 L146.121,82.119 Z M146.121,82.119" id="1063"/>
                    <path class="unit" d="M237.726,117.239 L260.441,122.912 L256.101,126.002 L233.426,120.33 L237.726,117.239 L237.726,117.239 Z M237.726,117.239" id="1064"/>
                    <path class="unit" d="M233.228,120.485 L255.906,126.116 L250.9,129.716 L228.188,124.043 L233.228,120.485 L233.228,120.485 Z M233.228,120.485" id="1065"/>
                    <path class="unit" d="M240.971,136.834 L218.256,131.163 L227.991,124.201 L250.704,129.872 L240.971,136.834 L240.971,136.834 Z M240.971,136.834" id="1066"/>
                    <path class="unit" d="M217.705,153.415 L195.029,147.742 L199.408,144.614 L222.083,150.287 L217.705,153.415 L217.705,153.415 Z M217.705,153.415" id="1067"/>
                    <path class="unit" d="M238.116,137.809 L233.854,140.822 L223.844,138.318 L219.387,141.527 L207.774,138.632 L216.491,132.415 L238.116,137.809 L238.116,137.809 Z M238.116,137.809" id="1068"/>
                    <path class="unit" d="M222.28,150.13 L199.603,144.458 L207.58,138.748 L230.293,144.421 L222.28,150.13 L222.28,150.13 Z M222.28,150.13" id="1069"/>
                    <path class="unit" d="M213.76,156.231 L191.082,150.558 L194.836,147.861 L217.513,153.533 L213.76,156.231 L213.76,156.231 Z M213.76,156.231" id="1070"/>
                    <path class="unit" d="M200.816,153.18 L196.513,156.232 L190.649,154.784 L188.498,152.4 L190.882,150.681 L200.816,153.18 L200.816,153.18 Z M200.816,153.18" id="1071"/>
                    <path class="unit" d="M219.307,157.796 L215.049,160.845 L205.742,158.538 L210.005,155.488 L219.307,157.796 L219.307,157.796 Z M219.307,157.796" id="1072"/>
                    <path class="unit" d="M201.169,153.26 L209.692,155.372 L205.39,158.462 L196.869,156.312 L201.169,153.26 L201.169,153.26 Z M201.169,153.26" id="1073"/>
                    <path class="unit" d="M256.492,97.333 L251.566,100.853 L245.855,99.405 L250.784,95.884 L256.492,97.333 L256.492,97.333 Z M256.492,97.333" id="1074"/>
                    <path class="unit" d="M345.361,63.585 L369.953,69.921" id="1075"/>
                    <path class="unit" d="M369.953,69.92 L367.921,71.484" id="1076"/>
                    <path class="unit" d="M327.453,46.025 L354.31,53.103" id="1077"/>
                    <path class="unit" d="M267.008,82.629 L271.936,79.108 L277.643,80.555 L272.717,84.077 L267.008,82.629 L267.008,82.629 Z M267.008,82.629" id="1078"/>
                    <path class="unit" d="M267.868,61.395 L277.956,63.936 L269.275,70.157 L259.187,67.574 L267.868,61.395 L267.868,61.395 Z M267.868,61.395" id="1079"/>
                    <path class="unit" d="M213.486,72.461 L213.678,72.539 L213.757,72.735 L213.678,72.929 L213.486,73.008 L213.289,72.929 L213.213,72.735 L213.289,72.539 L213.486,72.461 M217.433,73.712 L217.509,73.907 L217.433,74.101 L217.238,74.18 L217.046,74.101 L216.966,73.907 L217.046,73.712 L217.238,73.635 L217.433,73.712 M216.263,73.517 L216.183,73.711 L215.989,73.791 L215.795,73.711 L215.716,73.517 L215.795,73.323 L215.989,73.244 L216.183,73.323 L216.263,73.517 M214.929,72.93 L215.01,73.125 L214.929,73.321 L214.734,73.4 L214.541,73.321 L214.461,73.125 L214.541,72.93 L214.734,72.852 L214.929,72.93 M178.414,62.723 L178.609,62.802 L178.687,62.998 L178.609,63.191 L178.414,63.27 L178.217,63.19 L178.139,62.997 L178.217,62.801 L178.414,62.723 M181.109,63.506 L181.188,63.701 L181.109,63.895 L180.915,63.973 L180.72,63.895 L180.641,63.701 L180.72,63.506 L180.915,63.428 L181.109,63.506 M179.939,63.388 L179.861,63.584 L179.666,63.662 L179.471,63.584 L179.392,63.388 L179.471,63.193 L179.666,63.115 L179.861,63.193 L179.939,63.388 M193.741,67.142 L193.661,67.336 L193.468,67.415 L193.271,67.336 L193.196,67.142 L193.271,66.949 L193.468,66.87 L193.661,66.949 L193.741,67.142 M194.523,67.338 L194.717,67.261 L194.91,67.338 L194.988,67.532 L194.91,67.729 L194.717,67.807 L194.523,67.729 L194.444,67.532 L194.523,67.338 M196.162,67.652 L196.241,67.846 L196.162,68.039 L195.969,68.12 L195.774,68.039 L195.696,67.846 L195.774,67.652 L195.969,67.573 L196.162,67.652 M191.157,66.244 L191.236,66.438 L191.157,66.633 L190.964,66.711 L190.767,66.633 L190.691,66.438 L190.767,66.244 L190.964,66.165 L191.157,66.244 M189.516,65.929 L189.711,65.853 L189.906,65.929 L189.983,66.125 L189.906,66.32 L189.711,66.398 L189.516,66.32 L189.438,66.125 L189.516,65.929 M192.021,66.634 L192.214,66.557 L192.408,66.634 L192.485,66.829 L192.408,67.023 L192.214,67.101 L192.021,67.023 L191.942,66.829 L192.021,66.634 M197.022,67.965 L197.216,67.887 L197.411,67.965 L197.488,68.159 L197.411,68.352 L197.216,68.433 L197.022,68.352 L196.944,68.159 L197.022,67.965 M185.762,64.913 L185.958,64.834 L186.155,64.913 L186.232,65.107 L186.155,65.304 L185.958,65.381 L185.762,65.304 L185.685,65.107 L185.762,64.913 M187.209,65.149 L187.405,65.228 L187.484,65.421 L187.405,65.616 L187.209,65.694 L187.014,65.616 L186.937,65.421 L187.014,65.228 L187.209,65.149 M188.656,65.618 L188.735,65.814 L188.656,66.007 L188.462,66.086 L188.267,66.007 L188.189,65.814 L188.267,65.618 L188.462,65.539 L188.656,65.618 M183.693,64.405 L183.614,64.6 L183.418,64.679 L183.223,64.6 L183.145,64.405 L183.223,64.213 L183.418,64.133 L183.614,64.213 L183.693,64.405 M184.515,64.522 L184.71,64.445 L184.905,64.522 L184.983,64.717 L184.905,64.912 L184.71,64.99 L184.515,64.912 L184.435,64.717 L184.515,64.522 M181.97,63.819 C182.022,63.768 182.088,63.74 182.166,63.74 L182.361,63.819 L182.44,64.013 L182.361,64.21 L182.166,64.286 L181.97,64.21 L181.891,64.013 L181.97,63.819 M206.953,70.897 L207.032,70.704 L207.225,70.626 L207.42,70.704 L207.498,70.897 L207.42,71.092 L207.225,71.172 L207.032,71.092 L206.953,70.897 M206.17,70.78 L205.978,70.858 L205.783,70.78 L205.704,70.586 L205.783,70.391 L205.978,70.312 L206.17,70.391 L206.249,70.586 L206.17,70.78 M208.282,71.093 L208.475,71.018 L208.671,71.093 L208.748,71.287 L208.671,71.484 L208.475,71.56 L208.282,71.484 L208.204,71.287 L208.282,71.093 M209.537,71.406 L209.73,71.326 L209.926,71.406 L210.002,71.6 L209.926,71.793 L209.73,71.872 L209.537,71.793 L209.458,71.6 L209.537,71.406 M210.979,71.719 L211.177,71.796 L211.253,71.993 L211.177,72.188 L210.979,72.265 L210.787,72.188 L210.71,71.993 L210.787,71.796 L210.979,71.719 M212.035,72.149 L212.229,72.072 L212.425,72.149 L212.502,72.343 L212.425,72.538 L212.229,72.617 L212.035,72.538 L211.959,72.343 L212.035,72.149 M199.526,68.668 L199.719,68.59 L199.913,68.668 L199.992,68.862 L199.913,69.059 L199.719,69.137 L199.526,69.059 L199.447,68.862 L199.526,68.668 M200.776,69.059 L200.968,68.979 L201.164,69.059 L201.242,69.253 L201.164,69.448 L200.968,69.526 L200.776,69.448 L200.698,69.253 L200.776,69.059 M198.664,68.354 L198.741,68.55 L198.664,68.745 L198.472,68.824 L198.275,68.745 L198.198,68.55 L198.275,68.354 L198.471,68.277 L198.664,68.354 M203.28,69.683 L203.473,69.607 L203.668,69.683 L203.745,69.88 L203.668,70.075 L203.473,70.153 L203.28,70.075 L203.203,69.88 L203.28,69.683 M204.921,70.077 L205,70.27 L204.921,70.466 L204.728,70.545 L204.532,70.466 L204.456,70.27 L204.532,70.077 L204.728,69.998 L204.921,70.077 M202.031,69.372 L202.224,69.293 L202.42,69.372 L202.496,69.567 L202.42,69.761 L202.224,69.84 L202.031,69.761 L201.952,69.567 L202.031,69.372" id="1080"/>
                    <path class="unit" d="M125.521,151.729 L130.649,148.091 L114.14,143.941 L102.936,151.912 L150.763,163.939 L156.646,159.761 L125.314,151.882 L125.521,151.729 Z M125.521,151.729" id="1081"/>
                    <path class="unit" d="M156.861,159.608 L162.009,155.953 L157.192,154.763 L130.905,148.155 L125.782,151.793 L156.861,159.608 Z M156.861,159.608" id="1082"/>
          </g>
      </g>
</svg>