<?xml version="1.0" encoding="utf-8"?>
<!DOCTYPE svg PUBLIC "-//W3C//DTD SVG 1.1//EN" "http://www.w3.org/Graphics/SVG/1.1/DTD/svg11.dtd">
<svg version="1.1" xmlns="http://www.w3.org/2000/svg" xmlns:xlink="http://www.w3.org/1999/xlink" xml:space="preserve">
<g class="level" id="level0">
            <g class="outline">
                    <path d="M264.866,104.267 L277.685,96.856 L251.645,57.348 L257.38,54.502 L240.18,28.545 L245.357,13.075 L236.971,0.649 L177.624,31.073 L182.609,38.031 L165.963,46.281 L172.274,56.082 L156.794,64.03 L151.109,56.805 L127.608,70.309 L128.469,72.023 L106.558,83.613 L99.318,73.333 L30.032,110.95 L35.488,119.951 L19.574,128.783 L33.016,147.805 L25.223,151.786 L13.459,186.949 L63.234,195.725 L74.526,161.973 L104.798,146.119 L115.255,160.812 L112.412,169.309 L97.827,166.738 L86.437,200.782 L98.941,202.987 L91.159,226.247 L89.421,225.941 L79.488,255.629 L75.999,258.489 L75.842,258.848 C73.515,264.183 66.081,282.01 68.11,287.37 C69.054,289.871 72.485,291.562 78.903,292.693 C82.95,293.408 86.471,293.588 86.62,293.595 L87.85,293.656 L88.708,291.087 L98.626,292.837 L97.185,303.819 L120.822,307.985 L119.301,312.532 L221.872,330.618 L240.058,276.266 L227.553,274.061 L234.858,252.231 L215.758,248.863 L218.802,239.765 L148.637,227.393 L160.578,191.701 L177.602,194.702 L186.437,168.297 L186.214,167.641 L217.364,173.133 L219.798,165.859 L242.548,169.871 L254.899,132.958 L252.53,129.074 L272.922,117.583 L264.866,104.267 L264.866,104.267 Z M264.866,104.267" class="outline"/>
                </g>
                <g class="label">
                    <path d="M29.404,45.926 C29.068,45.926 28.86,46.182 28.812,46.502 C28.364,49.559 27.789,52.648 27.051,55.721 L27.019,55.721 C26.155,52.905 25.467,49.543 24.714,47.19 C24.41,46.23 24.138,45.926 23.642,45.926 C23.209,45.926 22.89,46.262 22.619,47.126 C21.883,49.447 21.065,53.081 20.202,55.721 L20.17,55.721 C19.418,52.664 18.969,49.575 18.568,46.566 C18.488,46.134 18.264,45.926 17.913,45.926 C17.528,45.926 17.305,46.23 17.305,46.566 C17.305,46.678 17.337,46.87 17.353,46.934 C17.787,50.023 18.394,53.193 19.018,55.961 C19.243,56.922 19.579,57.242 20.122,57.242 C20.601,57.242 20.922,56.97 21.226,56.105 C22.09,53.608 22.698,50.855 23.627,47.686 L23.659,47.686 C24.619,50.855 25.18,53.624 25.948,56.105 C26.219,56.985 26.555,57.242 27.085,57.242 C27.564,57.242 27.885,56.905 28.077,56.169 C28.829,53.176 29.47,50.055 29.981,46.854 C30.013,46.678 30.013,46.566 30.013,46.486 C30.012,46.198 29.772,45.926 29.404,45.926 L29.404,45.926 Z M5.689,55.994 L1.383,55.994 L1.383,46.582 C1.383,46.182 1.127,45.926 0.775,45.926 C0.423,45.926 0.15,46.182 0.15,46.582 L0.15,56.218 C0.15,56.81 0.518,57.178 1.208,57.178 L5.688,57.178 C6.088,57.178 6.344,56.906 6.344,56.57 C6.346,56.266 6.106,55.994 5.689,55.994 L5.689,55.994 Z M37.898,55.961 L33.128,55.961 L33.128,52.104 L37.002,52.104 C37.386,52.104 37.594,51.784 37.594,51.512 C37.594,51.224 37.386,50.936 37.002,50.936 L33.128,50.936 L33.128,47.206 L37.737,47.206 C38.153,47.206 38.378,46.934 38.378,46.63 C38.378,46.294 38.153,45.99 37.737,45.99 L32.952,45.99 C32.264,45.99 31.894,46.358 31.894,46.95 L31.894,56.218 C31.894,56.81 32.262,57.178 32.952,57.178 L37.897,57.178 C38.282,57.178 38.505,56.842 38.505,56.57 C38.506,56.234 38.282,55.961 37.898,55.961 L37.898,55.961 Z M11.417,45.862 C8.536,45.862 6.711,48.199 6.711,51.8 C6.711,55.194 8.503,57.306 11.369,57.306 C14.25,57.306 16.075,54.953 16.075,51.352 C16.075,47.958 14.267,45.862 11.417,45.862 L11.417,45.862 Z M11.401,56.122 C9.256,56.122 8.007,54.378 8.007,51.864 C8.007,48.903 9.238,47.046 11.384,47.046 C13.577,47.046 14.778,48.791 14.778,51.288 C14.779,54.25 13.546,56.122 11.401,56.122 L11.401,56.122 Z M89.465,55.994 L85.159,55.994 L85.159,46.582 C85.159,46.182 84.902,45.926 84.551,45.926 C84.198,45.926 83.927,46.182 83.927,46.582 L83.927,56.218 C83.927,56.81 84.295,57.178 84.984,57.178 L89.465,57.178 C89.864,57.178 90.121,56.906 90.121,56.57 C90.122,56.266 89.881,55.994 89.465,55.994 L89.465,55.994 Z M81.849,55.994 L77.543,55.994 L77.543,46.582 C77.543,46.182 77.286,45.926 76.935,45.926 C76.582,45.926 76.311,46.182 76.311,46.582 L76.311,56.218 C76.311,56.81 76.678,57.178 77.368,57.178 L81.849,57.178 C82.248,57.178 82.505,56.906 82.505,56.57 C82.505,56.266 82.265,55.994 81.849,55.994 L81.849,55.994 Z M45.946,53.065 C45.659,52.648 45.339,52.329 44.969,52.088 C46.394,51.592 47.323,50.599 47.323,49.079 C47.323,47.142 46.011,45.862 43.113,45.862 C42.009,45.862 41.256,45.974 40.744,46.134 C40.344,46.262 40.231,46.502 40.231,46.902 L40.231,56.602 C40.231,57.002 40.503,57.243 40.856,57.243 C41.209,57.243 41.48,57.003 41.48,56.602 L41.48,52.424 L42.728,52.424 C43.897,52.424 44.361,52.904 44.937,53.832 C45.337,54.473 45.753,55.401 46.249,56.794 C46.346,57.05 46.52,57.242 46.856,57.242 C47.192,57.242 47.48,57.002 47.48,56.617 C47.48,56.506 47.45,56.346 47.384,56.185 C46.955,55.034 46.442,53.833 45.946,53.065 L45.946,53.065 Z M42.92,51.208 L41.48,51.208 L41.48,47.175 C41.928,47.111 42.36,47.047 43.048,47.047 C45.337,47.047 46.058,47.943 46.058,49.128 C46.058,50.776 44.505,51.255 42.92,51.208 L42.92,51.208 Z M71.738,47.398 C71.114,46.149 70.618,45.781 70.056,45.781 C69.496,45.781 68.999,46.149 68.375,47.398 C67.479,49.206 66.791,51.48 65.622,56.106 C65.558,56.33 65.526,56.506 65.526,56.618 C65.526,57.003 65.782,57.243 66.133,57.243 C66.421,57.243 66.629,57.066 66.709,56.73 C67.013,55.353 67.316,54.121 67.621,53.065 L72.487,53.065 C72.775,54.121 73.079,55.353 73.399,56.73 C73.478,57.066 73.686,57.243 73.974,57.243 C74.328,57.243 74.582,57.003 74.582,56.618 C74.582,56.507 74.534,56.33 74.485,56.106 C73.354,51.48 72.633,49.207 71.738,47.398 L71.738,47.398 Z M67.945,51.944 C68.68,49.495 69.338,47.975 69.848,47.174 C69.897,47.11 69.945,47.046 70.056,47.046 C70.168,47.046 70.216,47.11 70.264,47.174 C70.778,47.974 71.416,49.494 72.154,51.944 L67.945,51.944 L67.945,51.944 Z M63.179,47.222 C63.068,46.389 62.78,45.926 62.122,45.926 C61.498,45.926 61.226,46.294 61.05,46.758 C60.235,48.967 59.337,51.8 58.361,54.425 L58.345,54.425 C57.336,51.944 56.552,49.335 55.528,46.902 C55.303,46.294 55.033,45.926 54.409,45.926 C53.753,45.926 53.448,46.374 53.351,47.255 C52.998,50.184 52.807,53.354 52.824,56.603 C52.807,56.987 53.048,57.244 53.399,57.244 C53.752,57.244 54.023,57.019 54.023,56.588 C54.007,53.515 54.201,50.537 54.537,47.544 L54.553,47.544 C55.53,50.169 56.474,52.81 57.514,55.435 C57.643,55.772 57.914,56.011 58.33,56.011 C58.729,56.011 59.035,55.772 59.163,55.435 C60.186,52.89 61.067,50.185 61.996,47.544 L62.012,47.544 C62.428,50.569 62.588,53.546 62.668,56.523 C62.668,56.971 62.893,57.244 63.309,57.244 C63.662,57.244 63.885,56.956 63.885,56.571 C63.885,56.443 63.868,56.203 63.868,56.091 C63.835,53.048 63.579,49.992 63.179,47.222 L63.179,47.222 Z M63.179,47.222" class="Shape"/>
                </g>
                <g class="background">
                    <path d="M236.432,2.751 L243.563,13.319 L238.39,28.78 L255.01,53.863 L249.28,56.707 L275.382,96.31 L262.619,103.688 L270.668,116.99 L250.271,128.484 L253.125,133.159 L241.459,168.028 L218.709,164.016 L216.274,171.29 L183.802,165.565 L184.727,168.3 L176.51,192.859 L159.487,189.857 L146.502,228.667 L216.666,241.039 L213.623,250.137 L232.721,253.504 L225.417,275.334 L237.921,277.539 L220.779,328.774 L121.444,311.258 L122.965,306.713 L99.003,302.486 L100.445,291.506 L87.616,289.243 L86.703,291.972 C86.522,291.963 83.098,291.783 79.187,291.093 C75.009,290.357 70.485,289.05 69.632,286.795 C67.678,281.63 76.854,260.6 77.336,259.493 L80.883,256.588 L90.521,227.783 L92.259,228.089 L101.083,201.713 L88.58,199.508 L98.927,168.58 L113.513,171.152 L117.062,160.543 L105.304,144.021 L73.197,160.835 L62.14,193.88 L15.602,185.674 L26.557,152.929 L35.43,148.396 L21.95,129.322 L37.756,120.55 L32.308,111.562 L98.827,75.449 L106.056,85.716 L130.639,72.713 L129.752,70.95 L150.702,58.912 L156.346,66.086 L174.614,56.708 L168.318,46.928 L185.047,38.637 L180.046,31.658 L236.432,2.751 L236.432,2.751 Z M236.432,2.751" id="walkway"/>
                    <path d="M193.683,82.465 L193.195,80.525 L187.988,79.607 L185.96,85.67 L186.448,87.61 L193.177,83.982 L193.683,82.465 L193.683,82.465 Z M164.746,101.891 L167.918,100.185 L167.429,98.246 L165.692,95.667 L162.517,97.379 L163.005,99.319 L164.746,101.891 L164.746,101.891 Z M160.313,98.568 L157.136,100.279 L157.625,102.219 L159.365,104.797 L162.533,103.084 L162.044,101.145 L160.313,98.568 L160.313,98.568 Z M148.636,167.635 L152.114,168.248 L153.129,165.214 L152.641,163.274 L148.15,165.695 L148.636,167.635 L148.636,167.635 Z M180.489,93.408 L179.999,91.469 L178.261,88.89 L175.086,90.602 L175.574,92.541 L177.313,95.12 L180.489,93.408 L180.489,93.408 Z M149.369,157.646 L146.194,159.358 L146.682,161.298 L148.422,163.876 L151.596,162.165 L151.109,160.225 L149.369,157.646 L149.369,157.646 Z M149.535,104.377 L146.361,106.089 L146.848,108.028 L148.588,110.601 L151.761,108.895 L151.274,106.955 L149.535,104.377 L149.535,104.377 Z M154.923,101.472 L151.748,103.184 L152.237,105.124 L153.975,107.702 L157.15,105.99 L156.662,104.05 L154.923,101.472 L154.923,101.472 Z M136.192,140.897 L136.679,142.837 L138.411,145.414 L141.587,143.702 L141.098,141.762 L139.36,139.183 L136.192,140.897 L136.192,140.897 Z M208.849,64.444 L209.338,66.384 L211.078,68.963 L214.246,67.25 L213.757,65.31 L212.024,62.739 L208.849,64.444 L208.849,64.444 Z M138.607,198.724 L139.621,195.689 L139.133,193.75 L135.656,193.137 L134.639,196.172 L135.129,198.112 L138.607,198.724 L138.607,198.724 Z M155.003,131.822 L170.802,123.505 L175.583,130.648 L177.452,130.978 L190.918,123.717 L191.425,122.201 L212.126,109.801 L211.637,107.861 L196.881,85.99 L136.805,117.137 L135.5,126.54 L135.989,128.48 L158.094,163.444 L156.323,168.743 L149.594,172.371 L140.971,198.142 L141.46,200.082 L153.613,202.225 L158.685,187.064 L176.051,190.126 L182.646,170.419 L182.157,168.479 L172.181,153.695 L182.798,147.975 L182.311,146.035 L168.9,125.968 L153.058,134.468 L144.939,122.411 L147.68,120.977 L155.003,131.822 L155.003,131.822 Z M109.028,88.512 L117.053,100.418 L123.768,101.602 L132.206,112.296 L180.903,86.206 L183.347,77.431 L189.469,73.8 L191.566,67.535 L195.891,64.876 L204.224,66.345 L215.361,60.172 L214.872,58.232 L203.171,41.188 L193.905,39.554 L191.951,37.081 L193.398,32.753 L203.405,27.027 L209.193,28.048 L228.039,17.887 L239.617,19.929 L241.578,14.067 L241.089,12.128 L235.221,4.024 L185.491,30.574 L185.979,32.514 L188.541,36.618 L172.081,44.692 L172.569,46.632 L176.254,52.102 L180.745,49.68 L183.383,53.172 L155.13,68.248 L150.376,61.203 L135.05,69.631 L135.538,71.571 L135.982,72.428 L108.539,86.571 L109.028,88.512 L109.028,88.512 Z M141.242,190.843 L140.753,188.903 L137.277,188.29 L136.262,191.318 L136.751,193.258 L140.228,193.871 L141.242,190.843 L141.242,190.843 Z M131.106,204.541 L130.091,207.569 L130.58,209.509 L134.057,210.122 L135.072,207.094 L134.583,205.154 L131.106,204.541 L131.106,204.541 Z M137.887,186.467 L138.376,188.407 L141.852,189.02 L142.867,185.992 L142.379,184.052 L138.902,183.439 L137.887,186.467 L137.887,186.467 Z M146.113,176.288 L145.624,174.348 L142.147,173.735 L141.132,176.764 L141.621,178.704 L145.098,179.317 L146.113,176.288 L146.113,176.288 Z M27.441,128.604 L38.505,145.004 L99.088,112.34 L102.13,103.248 L108.866,99.616 L108.377,97.677 L96.081,79.458 L37.743,110.911 L38.231,112.851 L42.058,118.523 L26.951,126.665 L27.441,128.604 L27.441,128.604 Z M197.749,308.762 L194.279,308.153 L193.265,311.18 L193.754,313.119 L197.223,313.73 L198.238,310.703 L197.749,308.762 L197.749,308.762 Z M198.984,274.304 L197.969,277.333 L198.458,279.273 L201.928,279.885 L202.943,276.856 L202.454,274.917 L198.984,274.304 L198.984,274.304 Z M201.667,289.473 L205.137,290.085 L206.154,287.05 L205.665,285.11 L202.195,284.498 L201.178,287.533 L201.667,289.473 L201.667,289.473 Z M200.489,284.093 L196.801,278.628 L194.401,278.205 L195.301,275.508 L194.813,273.568 L191.343,272.957 L190.329,275.985 L190.725,277.557 L187.454,276.98 L188.356,274.283 L187.867,272.343 L184.39,271.73 L183.376,274.759 L183.772,276.331 L179.812,275.633 L180.713,272.936 L180.225,270.997 L176.748,270.384 L175.734,273.412 L176.13,274.985 L172.171,274.287 L173.073,271.59 L172.583,269.65 L169.107,269.037 L168.092,272.065 L168.488,273.638 L164.521,272.938 L165.422,270.24 L164.933,268.301 L161.464,267.689 L160.451,270.718 L160.847,272.29 L157.576,271.713 L158.477,269.017 L157.988,267.077 L154.519,266.465 L153.504,269.493 L153.9,271.065 L141.6,268.897 L142.502,266.2 L142.013,264.26 L138.536,263.647 L137.523,266.675 L138.01,268.615 L139.367,268.854 L127.814,303.385 L128.301,305.324 L140.454,307.467 L143.497,298.375 L143.008,296.436 L140.612,296.014 L144.591,284.12 L183.46,290.974 L178.975,304.385 L152.922,299.791 L150.388,307.365 L150.877,309.304 L190.819,316.347 L200.962,286.031 L200.489,284.093 L200.489,284.093 Z M134.283,267.605 L104.755,262.398 L103.234,266.944 L103.722,268.883 L106.124,269.307 L101.131,284.229 L101.62,286.168 L127.672,290.762 L134.772,269.544 L134.283,267.605 L134.283,267.605 Z M266.486,114.318 L258.967,103.175 L271.829,96.244 L271.34,94.304 L245.384,55.832 L251.535,52.516 L251.048,50.576 L246.123,43.287 L234.21,49.67 L227.979,40.365 L236.982,35.512 L236.493,33.572 L231.576,26.284 L222.891,24.752 L211.67,30.802 L210.149,35.348 L207.904,36.558 L208.392,38.498 L227.418,64.559 L205.645,76.3 L203.618,82.363 L204.106,84.303 L236.21,131.886 L232.322,133.978 L232.809,135.918 L234.039,137.741 L240.791,134.181 L243.692,138.454 L242.871,138.317 L240.95,135.568 L232.738,140.009 L232.146,139.581 L229.999,146.416 L230.487,148.356 L246.117,151.111 L249.411,141.266 L249.185,140.374 L249.68,140.458 L251.697,134.433 L251.208,132.493 L247.381,126.821 L266.975,116.258 L266.486,114.318 L266.486,114.318 Z M131.533,135.208 L134.707,133.497 L134.218,131.557 L132.481,128.98 L129.305,130.691 L129.793,132.631 L131.533,135.208 L131.533,135.208 Z M229.708,152.786 L226.666,161.879 L227.156,163.819 L241.047,166.269 L244.089,157.176 L243.6,155.236 L229.708,152.786 L229.708,152.786 Z M222.745,275.725 L229.503,255.745 L229.014,253.805 L210.984,250.626 L213.442,243.278 L212.954,241.338 L143.782,229.21 L151.443,206.663 L150.954,204.723 L137.713,202.388 L120.469,253.928 L120.957,255.868 L125.15,259.822 L212.643,275.249 L197.505,320.493 L197.994,322.432 L218.832,326.108 L234.357,279.627 L233.868,277.687 L222.745,275.725 L222.745,275.725 Z M80.503,129.424 L83.677,127.712 L83.188,125.772 L81.451,123.194 L78.276,124.905 L78.764,126.845 L80.503,129.424 L80.503,129.424 Z M124.817,223.336 L125.305,225.275 L128.783,225.888 L129.799,222.853 L129.309,220.913 L125.833,220.3 L124.817,223.336 L124.817,223.336 Z M76.063,126.099 L72.887,127.811 L73.376,129.751 L75.118,132.323 L78.29,130.617 L77.801,128.677 L76.063,126.099 L76.063,126.099 Z M125.709,116.226 L119.932,119.346 L120.42,121.286 L123.585,125.976 L129.36,122.862 L128.871,120.923 L125.709,116.226 L125.709,116.226 Z M88.147,119.583 L88.635,121.523 L90.375,124.101 L93.55,122.39 L93.061,120.45 L91.323,117.871 L88.147,119.583 L88.147,119.583 Z M140.169,170.958 L139.68,169.018 L139.21,168.322 L141.473,161.559 L140.986,159.619 L138.06,155.278 L139.309,151.543 L138.822,149.604 L126.527,131.38 L117.842,129.849 L110.469,118.915 L103.517,117.69 L74.347,133.421 L62.331,147.352 L55.601,150.985 L39.972,148.229 L28.752,154.279 L19.623,181.567 L20.111,183.507 L61.792,190.856 L71.429,162.051 L84.17,151.456 L107.466,138.936 L126.786,166.992 L132.64,168.024 L131.524,171.261 L117.681,168.82 L116.188,173.187 L100.589,170.437 L92.562,194.428 L93.051,196.368 L107.606,198.934 L97.034,230.534 L91.821,229.615 L85.992,247.035 L86.48,248.975 L97.563,250.94 L95.359,257.53 L95.847,259.469 L109.74,261.919 L140.169,170.958 L140.169,170.958 Z M89.169,260.541 C87.882,260.314 86.476,260.243 85.151,260.543 C83.367,260.945 81.963,264.596 81.889,264.788 L78.847,273.88 C78.653,273.985 75.411,275.738 76.177,278.584 C76.172,278.565 76.164,278.546 76.16,278.528 C76.323,279.174 76.486,279.821 76.649,280.468 C76.76,280.913 76.971,281.386 77.307,281.883 C77.717,282.491 78.432,282.796 79.203,282.932 C80.746,283.205 82.426,282.822 82.514,282.802 L87.729,283.721 L94.322,264.014 L93.833,262.074 C93.731,262.02 91.742,260.994 89.169,260.541 L89.169,260.541 Z M47.771,146.637 L53.792,147.699 L55.516,142.547 L55.027,140.607 L47.283,144.698 L47.771,146.637 L47.771,146.637 Z M47.771,146.637" class="wall"/>
                </g>
                <g class="ceilings">
                    <path class="unit" d="M209.639,17.688 L213.556,23.493 L208.715,26.107 L202.926,25.087 L201.093,26.133 L199.167,23.279 L209.639,17.688 Z M209.639,17.688" id="1001"/>
                    <path class="unit" d="M198.844,23.454 L200.772,26.319 L195.941,29.085 L193.913,26.081 L198.844,23.454 Z M198.844,23.454" id="1002"/>
                    <path class="unit" d="M193.582,26.259 L195.616,29.265 L192.92,30.812 L191.618,34.704 L188.969,36.132 L185.499,30.573 L193.582,26.259 Z M193.582,26.259" id="1003"/>
                    <path class="unit" d="M149.551,104.378 L151.285,106.95 L148.117,108.663 L146.378,106.085 L149.551,104.378 Z M149.551,104.378" id="1004"/>
                    <path class="unit" d="M241.012,135.509 L242.859,138.245 L248.936,139.316 L245.639,149.167 L230.009,146.411 L232.292,139.589 L232.604,140.048 L241.012,135.509 Z M241.012,135.509" id="1005"/>
                    <path class="unit" d="M246.613,125.66 L251.217,132.495 L249.19,138.558 L243.981,137.639 L240.295,132.175 L233.56,135.802 L232.336,133.979 L236.819,131.562 L236.516,131.104 L246.613,125.66 Z M246.613,125.66" id="1006"/>
                    <path class="unit" d="M47.98,105.396 L63.962,129.084 L38.033,143.064 L26.968,126.665 L42.671,118.198 L37.754,110.91 L47.98,105.396 Z M47.98,105.396" id="1007"/>
                    <path class="unit" d="M123.053,218.74 L121.548,223.237 L100.711,219.563 L102.216,215.066 L123.053,218.74 Z M123.053,218.74" id="1008"/>
                    <path class="unit" d="M124.693,213.839 L123.154,218.44 L102.317,214.766 L103.856,210.166 L124.693,213.839 Z M124.693,213.839" id="1009"/>
                    <path class="unit" d="M126.332,208.939 L124.793,213.539 L103.956,209.865 L105.495,205.264 L126.332,208.939 Z M126.332,208.939" id="1010"/>
                    <path class="unit" d="M128.531,202.368 L126.435,208.633 L105.597,204.959 L107.694,198.694 L128.531,202.368 Z M128.531,202.368" id="1011"/>
                    <path class="unit" d="M137.069,176.849 L128.631,202.067 L107.793,198.394 L108.201,197.176 L92.573,194.42 L100.602,170.418 L137.069,176.849 Z M137.069,176.849" id="1012"/>
                    <path class="unit" d="M139.198,168.289 L139.69,169.017 L138.624,172.199 L131.66,170.971 L131.728,170.826 L132.947,167.187 L139.198,168.289 Z M139.198,168.289" id="1013"/>
                    <path class="unit" d="M134.841,143.692 L137.606,147.78 L120.522,156.991 L117.759,152.898 L134.841,143.692 Z M134.841,143.692" id="1014"/>
                    <path class="unit" d="M137.776,148.041 L138.829,149.603 L137.308,154.148 L137.37,154.24 L123.768,161.575 L121.762,158.822 L120.693,157.247 L137.776,148.041 Z M137.776,148.041" id="1015"/>
                    <path class="unit" d="M137.542,154.496 L139.472,157.356 L125.99,164.625 L123.954,161.827 L137.542,154.496 Z M137.542,154.496" id="1016"/>
                    <path class="unit" d="M139.645,157.612 L141.001,159.614 L138.465,167.194 L138.956,167.923 L133.048,166.881 L133.25,166.275 L126.305,165.051 L126.177,164.877 L139.645,157.612 Z M139.645,157.612" id="1017"/>
                    <path class="unit" d="M191.47,35.146 L191.161,36.068 L193.914,39.553 L195.133,39.768 L180.265,47.74 L175.781,50.157 L172.089,44.691 L189.02,36.396 L189.055,36.448 L191.47,35.146 Z M191.47,35.146" id="1018"/>
                    <path class="unit" d="M203.18,41.187 L203.604,41.805 L183.82,52.47 L180.293,48.132 L195.641,39.857 L203.18,41.187 Z M203.18,41.187" id="1019"/>
                    <path class="unit" d="M203.785,42.068 L206.252,45.659 L186.131,56.507 L183.747,52.983 L184.094,52.802 L184.029,52.721 L203.785,42.068 Z M203.785,42.068" id="1020"/>
                    <path class="unit" d="M206.435,45.922 L210.112,51.28 L197.906,57.861 L194.272,52.475 L206.435,45.922 Z M206.435,45.922" id="1021"/>
                    <path class="unit" d="M210.295,51.544 L212.53,54.798 L208.803,56.812 L206.595,53.538 L210.295,51.544 Z M210.295,51.544" id="1022"/>
                    <path class="unit" d="M212.713,55.062 L214.89,58.231 L211.157,60.302 L208.981,57.074 L212.713,55.062 Z M212.713,55.062" id="1023"/>
                    <path class="unit" d="M206.272,53.713 L210.835,60.476 L206.918,62.646 L202.322,55.842 L206.272,53.713 Z M206.272,53.713" id="1024"/>
                    <path class="unit" d="M193.948,52.655 L201.615,64.029 L195.414,62.935 L191.914,65.086 L186.308,56.77 L193.948,52.655 Z M193.948,52.655" id="1025"/>
                    <path class="unit" d="M201.998,56.016 L206.593,62.826 L203.747,64.405 L202.121,64.118 L198.08,58.129 L201.998,56.016 Z M201.998,56.016" id="1026"/>
                    <path class="unit" d="M183.424,53.157 L191.604,65.28 L191.088,65.594 L188.991,71.859 L187.867,72.528 L177.082,56.542 L183.424,53.157 Z M183.424,53.157" id="1027"/>
                    <path class="unit" d="M176.752,56.714 L187.547,72.714 L182.877,75.491 L171.909,59.299 L176.752,56.714 Z M176.752,56.714" id="1028"/>
                    <path class="unit" d="M171.585,59.474 L182.735,75.998 L180.67,83.396 L166.397,62.24 L171.585,59.474 Z M171.585,59.474" id="1029"/>
                    <path class="unit" d="M112.772,84.398 L123.045,99.618 L116.581,98.479 L108.548,86.572 L112.772,84.398 Z M112.772,84.398" id="1030"/>
                    <path class="unit" d="M166.067,62.413 L180.54,83.864 L180.432,84.267 L175.61,86.843 L160.965,65.137 L166.067,62.413 Z M166.067,62.413" id="1031"/>
                    <path class="unit" d="M193.203,80.525 L192.697,82.037 L185.967,85.67 L187.995,79.607 L193.203,80.525 Z M193.203,80.525" id="1032"/>
                    <path class="unit" d="M160.636,65.31 L175.285,87.023 L170.02,89.84 L155.364,68.126 L160.636,65.31 Z M160.636,65.31" id="1033"/>
                    <path class="unit" d="M150.287,61.254 L169.695,90.02 L153.604,98.637 L135.94,72.457 L136.397,72.219 L135.06,69.625 L150.287,61.254 Z M150.287,61.254" id="1034"/>
                    <path class="unit" d="M135.604,72.629 L153.274,98.811 L148.424,101.412 L130.708,75.152 L135.604,72.629 Z M135.604,72.629" id="1035"/>
                    <path class="unit" d="M96.093,79.452 L108.388,97.675 L101.658,101.309 L98.616,110.401 L71.967,124.769 L68.882,120.196 L68.558,120.376 L61.229,124.372 L48.305,105.217 L96.093,79.452 Z M96.093,79.452" id="1036"/>
                    <path class="unit" d="M130.378,75.326 L148.095,101.584 L131.734,110.357 L124.833,101.615 L113.1,84.225 L130.378,75.326 Z M130.378,75.326" id="1037"/>
                    <path class="unit" d="M91.329,117.872 L93.07,120.45 L89.897,122.156 L88.161,119.584 L91.329,117.872 Z M91.329,117.872" id="1038"/>
                    <path class="unit" d="M68.761,120.678 L71.638,124.942 L64.287,128.905 L61.41,124.641 L68.761,120.678 Z M68.761,120.678" id="1039"/>
                    <path class="unit" d="M81.458,123.194 L83.198,125.772 L80.024,127.483 L78.284,124.905 L81.458,123.194 Z M81.458,123.194" id="1040"/>
                    <path class="unit" d="M76.077,126.1 L77.813,128.671 L74.643,130.384 L72.905,127.807 L76.077,126.1 Z M76.077,126.1" id="1041"/>
                    <path class="unit" d="M110.479,118.914 L114.321,124.607 L102.848,130.797 L96.545,121.456 L103.533,117.689 L110.479,118.914 Z M110.479,118.914" id="1042"/>
                    <path class="unit" d="M196.897,85.991 L211.647,107.855 L206.697,110.819 L191.746,88.661 L196.897,85.991 Z M196.897,85.991" id="1043"/>
                    <path class="unit" d="M96.231,121.626 L102.527,130.966 L102.698,131.228 L106.688,137.133 L106.129,137.416 L101.43,139.944 L90.981,124.457 L96.231,121.626 Z M96.231,121.626" id="1044"/>
                    <path class="unit" d="M114.491,124.869 L117.857,129.849 L124.627,131.043 L108.779,139.588 L103.02,131.053 L114.491,124.869 Z M114.491,124.869" id="1045"/>
                    <path class="unit" d="M90.665,124.626 L101.115,140.114 L96.196,142.767 L85.746,127.279 L90.665,124.626 Z M90.665,124.626" id="1046"/>
                    <path class="unit" d="M85.431,127.449 L95.88,142.937 L90.791,145.681 L80.342,130.192 L85.431,127.449 Z M85.431,127.449" id="1047"/>
                    <path class="unit" d="M80.027,130.363 L90.476,145.85 L84.935,148.838 L74.486,133.35 L80.027,130.363 Z M80.027,130.363" id="1048"/>
                    <path class="unit" d="M126.534,131.379 L130.531,137.302 L113.455,146.509 L108.951,139.843 L125.115,131.129 L126.534,131.379 Z M126.534,131.379" id="1049"/>
                    <path class="unit" d="M73.707,134.172 L83.964,149.366 L83.691,149.508 L70.948,160.109 L62.34,147.351 L73.707,134.172 Z M73.707,134.172" id="1050"/>
                    <path class="unit" d="M62.024,147.526 L70.806,160.535 L70.786,160.595 L65.688,163.343 L56.879,150.295 L62.024,147.526 Z M62.024,147.526" id="1051"/>
                    <path class="unit" d="M244.78,54.914 L271.35,94.305 L257.893,101.561 L266.494,114.318 L246.301,125.207 L246.43,125.396 L236.332,130.841 L203.625,82.363 L205.654,76.3 L228.094,64.201 L227.944,63.996 L244.78,54.914 Z M244.78,54.914" id="1052"/>
                    <path class="unit" d="M235.231,4.023 L241.102,12.121 L239.141,17.983 L227.563,15.941 L213.885,23.32 L209.968,17.514 L235.231,4.023 Z M235.231,4.023" id="1053"/>
                    <path class="unit" d="M218.852,26.935 L223.255,33.462 L210.61,40.254 L207.912,36.56 L210.157,35.349 L211.679,30.803 L218.852,26.935 Z M218.852,26.935" id="1054"/>
                    <path class="unit" d="M231.583,26.285 L236.5,33.573 L228.01,38.149 L227.17,38.603 L219.182,26.762 L222.9,24.753 L231.583,26.285 Z M231.583,26.285" id="1055"/>
                    <path class="unit" d="M223.424,33.711 L227.703,40.055 L215.337,46.723 L210.801,40.514 L223.424,33.711 Z M223.424,33.711" id="1056"/>
                    <path class="unit" d="M227.885,40.324 L230.669,44.45 L218.475,51.021 L215.52,46.986 L227.885,40.324 Z M227.885,40.324" id="1057"/>
                    <path class="unit" d="M230.847,44.713 L233.604,48.799 L221.583,55.285 L218.665,51.28 L230.847,44.713 Z M230.847,44.713" id="1058"/>
                    <path class="unit" d="M246.124,43.297 L248.379,46.648 L224.63,59.452 L221.774,55.544 L234.464,48.703 L234.905,49.347 L246.124,43.297 Z M246.124,43.297" id="1059"/>
                    <path class="unit" d="M248.563,46.912 L251.041,50.585 L244.304,54.217 L244.604,54.651 L227.752,63.736 L224.816,59.71 L248.563,46.912 Z M248.563,46.912" id="1060"/>
                    <path class="unit" d="M243.61,155.235 L240.567,164.328 L226.675,161.879 L229.717,152.786 L243.61,155.235 Z M243.61,155.235" id="1061"/>
                    <path class="unit" d="M186.026,91.628 L201.198,114.115 L191.02,120.215 L175.43,97.117 L186.026,91.628 Z M186.026,91.628" id="1062"/>
                    <path class="unit" d="M158.072,185.528 L156.313,190.784 L144.159,188.641 L145.918,183.385 L158.072,185.528 Z M158.072,185.528" id="1063"/>
                    <path class="unit" d="M139.375,139.186 L141.115,141.764 L137.94,143.476 L136.2,140.897 L139.375,139.186 Z M139.375,139.186" id="1064"/>
                    <path class="unit" d="M142.131,114.386 L145.765,119.772 L143.874,120.792 L143.998,120.975 L135.662,125.47 L136.821,117.137 L142.131,114.386 Z M142.131,114.386" id="1065"/>
                    <path class="unit" d="M165.706,95.668 L167.441,98.24 L164.272,99.952 L162.533,97.374 L165.706,95.668 Z M165.706,95.668" id="1066"/>
                    <path class="unit" d="M160.32,98.568 L162.059,101.146 L158.885,102.857 L157.147,100.279 L160.32,98.568 Z M160.32,98.568" id="1067"/>
                    <path class="unit" d="M178.27,88.89 L180.008,91.469 L176.834,93.18 L175.094,90.602 L178.27,88.89 Z M178.27,88.89" id="1068"/>
                    <path class="unit" d="M154.932,101.472 L156.672,104.051 L153.496,105.762 L151.758,103.184 L154.932,101.472 Z M154.932,101.472" id="1069"/>
                    <path class="unit" d="M191.417,88.833 L206.38,111.012 L201.512,113.928 L186.354,91.455 L191.417,88.833 Z M191.417,88.833" id="1070"/>
                    <path class="unit" d="M144.174,121.237 L146.899,125.284 L137.813,130.183 L135.515,126.542 L135.604,125.858 L144.174,121.237 Z M144.174,121.237" id="1071"/>
                    <path class="unit" d="M158.696,105.794 L169.533,121.865 L165.897,123.825 L155.02,107.701 L158.696,105.794 Z M158.696,105.794" id="1072"/>
                    <path class="unit" d="M154.69,107.874 L165.568,124.003 L159.048,127.518 L148.099,111.289 L154.69,107.874 Z M154.69,107.874" id="1073"/>
                    <path class="unit" d="M147.77,111.462 L158.717,127.697 L154.614,129.909 L147.236,118.974 L146.089,119.592 L142.46,114.213 L147.77,111.462 Z M147.77,111.462" id="1074"/>
                    <path class="unit" d="M147.083,125.547 L150.039,129.929 L140.805,134.913 L137.987,130.451 L147.083,125.547 Z M147.083,125.547" id="1075"/>
                    <path class="unit" d="M175.101,97.29 L190.832,120.599 L190.438,121.777 L186.593,123.851 L170.334,99.761 L175.101,97.29 Z M175.101,97.29" id="1076"/>
                    <path class="unit" d="M163.991,103.047 L180.317,127.234 L176.972,129.037 L175.24,128.732 L170.324,121.438 L169.865,121.687 L159.024,105.627 L163.991,103.047 Z M163.991,103.047" id="1077"/>
                    <path class="unit" d="M150.214,130.197 L152.783,133.996 L143.421,139.043 L140.973,135.179 L150.214,130.197 Z M150.214,130.197" id="1078"/>
                    <path class="unit" d="M168.908,125.928 L171.307,129.604 L171.488,129.978 L146.277,143.57 L143.588,139.316 L152.96,134.259 L153.092,134.456 L168.908,125.928 Z M168.908,125.928" id="1079"/>
                    <path class="unit" d="M171.67,130.241 L174.365,134.236 L149.024,147.903 L146.452,143.838 L171.67,130.241 Z M171.67,130.241" id="1080"/>
                    <path class="unit" d="M174.541,134.503 L178.563,140.455 L153.02,154.226 L149.193,148.17 L174.541,134.503 Z M174.541,134.503" id="1081"/>
                    <path class="unit" d="M149.378,157.646 L151.118,160.225 L147.944,161.936 L146.205,159.358 L149.378,157.646 Z M149.378,157.646" id="1082"/>
                    <path class="unit" d="M178.737,140.722 L182.323,146.03 L171.104,152.08 L171.529,152.709 L157.011,160.541 L153.186,154.498 L178.737,140.722 Z M178.737,140.722" id="1083"/>
                    <path class="unit" d="M152.647,163.274 L151.631,166.309 L148.156,165.695 L152.647,163.274 Z M152.647,163.274" id="1084"/>
                    <path class="unit" d="M171.703,152.978 L182.168,168.479 L175.574,188.187 L158.207,185.125 L158.172,185.228 L146.019,183.084 L149.603,172.372 L156.331,168.744 L158.362,162.675 L157.18,160.808 L171.703,152.978 Z M171.703,152.978" id="1085"/>
                    <path class="unit" d="M170.007,99.929 L186.262,124.029 L180.639,127.06 L164.325,102.88 L170.007,99.929 Z M170.007,99.929" id="1086"/>
                    <path class="unit" d="M156.211,191.089 L154.758,195.434 L142.604,193.291 L144.058,188.946 L156.211,191.089 Z M156.211,191.089" id="1087"/>
                    <path class="unit" d="M154.656,195.739 L153.134,200.285 L140.981,198.142 L142.502,193.596 L154.656,195.739 Z M154.656,195.739" id="1088"/>
                    <path class="unit" d="M111.945,251.944 L110.676,255.732 L108.858,255.411 L110.125,251.623 L111.945,251.944 Z M111.945,251.944" id="1089"/>
                    <path class="unit" d="M109.775,251.562 L108.507,255.35 L108.456,255.502 L108.406,255.649 L110.576,256.032 L109.256,259.978 L95.365,257.528 L97.901,249.947 L98.084,249.5 L109.775,251.562 Z M109.775,251.562" id="1090"/>
                    <path class="unit" d="M118.132,233.448 L112.046,251.638 L86.001,247.046 L91.833,229.615 L97.041,230.533 L97.294,229.774 L118.132,233.448 Z M118.132,233.448" id="1091"/>
                    <path class="unit" d="M119.823,228.395 L118.235,233.143 L97.398,229.469 L98.986,224.721 L119.823,228.395 Z M119.823,228.395" id="1092"/>
                    <path class="unit" d="M138.522,172.504 L137.169,176.548 L116.332,172.874 L117.685,168.83 L138.522,172.504 Z M138.522,172.504" id="1093"/>
                    <path class="unit" d="M121.446,223.543 L119.925,228.089 L99.088,224.415 L100.61,219.869 L121.446,223.543 Z M121.446,223.543" id="1094"/>
                    <path class="unit" d="M130.702,137.558 L134.67,143.431 L117.586,152.642 L113.625,146.771 L130.702,137.558 Z M130.702,137.558" id="1095"/>
                    <path class="unit" d="M56.562,150.47 L65.365,163.518 L65.505,163.791 L65.877,163.631 L70.641,161.026 L61.313,188.909 L19.632,181.56 L28.762,154.272 L39.979,148.228 L55.609,150.983 L56.562,150.47 Z M56.562,150.47" id="1096"/>
                    <path class="unit" d="M197.767,308.758 L196.751,311.792 L193.275,311.18 L194.289,308.147 L197.767,308.758 Z M197.767,308.758" id="1097"/>
                    <path class="unit" d="M222.316,312.34 L218.359,324.168 L197.514,320.493 L201.472,308.667 L222.316,312.34 Z M222.316,312.34" id="1098"/>
                    <path class="unit" d="M233.879,277.779 L230.938,286.571 L210.094,282.896 L213.035,274.104 L233.879,277.779 Z M233.879,277.779" id="1099"/>
                    <path class="unit" d="M150.919,204.709 L149.718,208.3 L136.522,205.973 L137.721,202.382 L150.919,204.709 Z M150.919,204.709" id="1100"/>
                    <path class="unit" d="M148.01,213.403 L146.201,218.811 L133.004,216.484 L134.813,211.076 L148.01,213.403 Z M148.01,213.403" id="1101"/>
                    <path class="unit" d="M149.615,208.605 L148.112,213.103 L134.913,210.776 L136.418,206.279 L149.615,208.605 Z M149.615,208.605" id="1102"/>
                    <path class="unit" d="M229.022,253.805 L222.083,274.544 L221.924,275.023 L221.821,275.33 L213.137,273.798 L213.24,273.493 L203.925,271.85 L211.024,250.631 L229.022,253.805 Z M229.022,253.805" id="1103"/>
                    <path class="unit" d="M226.373,300.215 L222.416,312.042 L201.572,308.366 L205.529,296.54 L226.373,300.215 Z M226.373,300.215" id="1104"/>
                    <path class="unit" d="M228.604,293.546 L226.475,299.911 L205.63,296.234 L207.76,289.871 L228.604,293.546 Z M228.604,293.546" id="1105"/>
                    <path class="unit" d="M230.837,286.871 L228.706,293.241 L207.863,289.565 L209.992,283.196 L230.837,286.871 Z M230.837,286.871" id="1106"/>
                    <path class="unit" d="M140.706,235.233 L138.779,240.996 L125.581,238.669 L127.51,232.906 L140.706,235.233 Z M140.706,235.233" id="1107"/>
                    <path class="unit" d="M141.924,231.598 L140.81,234.928 L127.612,232.6 L128.726,229.271 L141.924,231.598 Z M141.924,231.598" id="1108"/>
                    <path class="unit" d="M143.327,227.401 L142.026,231.292 L128.827,228.965 L130.129,225.074 L143.327,227.401 Z M143.327,227.401" id="1109"/>
                    <path class="unit" d="M146.099,219.117 L143.429,227.096 L130.232,224.769 L132.902,216.79 L146.099,219.117 Z M146.099,219.117" id="1110"/>
                    <path class="unit" d="M138.679,241.296 L136.996,246.322 L136.885,246.655 L123.688,244.329 L125.481,238.969 L138.679,241.296 Z M138.679,241.296" id="1111"/>
                    <path class="unit" d="M140.723,247.656 L136.599,259.979 L124.677,257.877 L120.476,253.927 L123.586,244.634 L140.723,247.656 Z M140.723,247.656" id="1112"/>
                    <path class="unit" d="M89.182,260.539 C91.754,260.992 93.74,262.02 93.843,262.075 L87.249,281.781 L82.041,280.863 C81.953,280.884 80.27,281.265 78.727,280.993 C77.955,280.857 77.239,280.552 76.829,279.944 C74.372,276.303 78.633,274.003 78.857,273.882 L81.901,264.784 C81.974,264.591 83.382,260.947 85.16,260.544 C86.489,260.241 87.897,260.312 89.182,260.539 L89.182,260.539 Z M89.182,260.539" id="1113"/>
                    <path class="unit" d="M107.667,262.904 L106.145,267.457 L103.25,266.946 L104.774,262.395 L107.667,262.904 Z M107.667,262.904" id="1114"/>
                    <path class="unit" d="M127.813,266.457 L120.71,287.682 L114.801,286.639 L121.903,265.415 L127.813,266.457 Z M127.813,266.457" id="1115"/>
                    <path class="unit" d="M121.56,265.355 L114.458,286.579 L101.141,284.231 L106.72,267.558 L106.489,267.517 L108.011,262.966 L121.56,265.355 Z M121.56,265.355" id="1116"/>
                    <path class="unit" d="M142.74,286.323 L139.563,295.825 L139.969,295.896 L136.927,304.989 L127.835,303.385 L134.057,284.793 L142.74,286.323 Z M142.74,286.323" id="1117"/>
                    <path class="unit" d="M158.014,267.072 L156.998,270.107 L153.522,269.494 L154.537,266.459 L158.014,267.072 Z M158.014,267.072" id="1118"/>
                    <path class="unit" d="M142.034,264.255 L141.019,267.289 L137.542,266.675 L138.558,263.642 L142.034,264.255 Z M142.034,264.255" id="1119"/>
                    <path class="unit" d="M152.124,270.745 L148.065,282.876 L144.477,282.243 L148.536,270.111 L152.124,270.745 Z M152.124,270.745" id="1120"/>
                    <path class="unit" d="M134.293,267.6 L127.194,288.823 L121.054,287.741 L128.155,266.517 L134.293,267.6 Z M134.293,267.6" id="1121"/>
                    <path class="unit" d="M148.186,270.05 L144.126,282.182 L143.45,284.201 L142.843,286.019 L134.159,284.486 L139.502,268.518 L148.186,270.05 Z M148.186,270.05" id="1122"/>
                    <path class="unit" d="M156.406,271.499 L152.348,283.63 L148.408,282.936 L152.468,270.805 L156.406,271.499 Z M156.406,271.499" id="1123"/>
                    <path class="unit" d="M212.967,241.339 L209.923,250.438 L210.673,250.569 L203.573,271.789 L136.949,260.041 L141.073,247.717 L141.174,247.412 L140.824,247.35 L137.236,246.717 L137.348,246.384 L143.154,229.029 L143.497,229.09 L144.43,229.254 L212.967,241.339 Z M212.967,241.339" id="1124"/>
                    <path class="unit" d="M161.845,272.458 L157.786,284.591 L152.698,283.692 L156.757,271.561 L161.845,272.458 Z M161.845,272.458" id="1125"/>
                    <path class="unit" d="M166.016,273.194 L161.957,285.325 L158.137,284.652 L162.196,272.521 L166.016,273.194 Z M166.016,273.194" id="1126"/>
                    <path class="unit" d="M195.359,299.452 L194.446,302.178 L180.554,299.73 L181.467,297.002 L195.359,299.452 Z M195.359,299.452" id="1127"/>
                    <path class="unit" d="M194.343,302.485 L193.465,305.11 L179.573,302.661 L180.451,300.036 L194.343,302.485 Z M194.343,302.485" id="1128"/>
                    <path class="unit" d="M196.813,278.624 L192.753,290.755 L184.07,289.225 L183.199,289.07 L182.1,288.876 L186.158,276.745 L196.813,278.624 Z M196.813,278.624" id="1129"/>
                    <path class="unit" d="M197.861,291.975 L195.459,299.151 L181.568,296.701 L183.969,289.524 L192.653,291.056 L193.003,291.117 L197.861,291.975 Z M197.861,291.975" id="1130"/>
                    <path class="unit" d="M205.678,285.111 L204.664,288.145 L201.188,287.533 L202.202,284.498 L205.678,285.111 Z M205.678,285.111" id="1131"/>
                    <path class="unit" d="M197.061,278.991 L200.496,284.093 L197.96,291.674 L193.104,290.817 L197.061,278.991 Z M197.061,278.991" id="1132"/>
                    <path class="unit" d="M174.198,303.534 L171.661,311.114 L167.834,310.438 L170.37,302.858 L174.198,303.534 Z M174.198,303.534" id="1133"/>
                    <path class="unit" d="M193.364,305.417 L190.354,314.409 L172.004,311.174 L174.541,303.594 L178.998,304.379 L179.471,302.967 L193.364,305.417 Z M193.364,305.417" id="1134"/>
                    <path class="unit" d="M160.993,301.206 L158.457,308.786 L150.411,307.366 L152.947,299.786 L160.993,301.206 Z M160.993,301.206" id="1135"/>
                    <path class="unit" d="M165.858,302.063 L163.321,309.643 L158.809,308.848 L161.344,301.267 L165.858,302.063 Z M165.858,302.063" id="1136"/>
                    <path class="unit" d="M170.028,302.797 L167.491,310.379 L163.672,309.706 L166.207,302.125 L170.028,302.797 Z M170.028,302.797" id="1137"/>
                    <path class="unit" d="M185.816,276.685 L181.756,288.816 L175.504,287.714 L179.563,275.583 L185.816,276.685 Z M185.816,276.685" id="1138"/>
                    <path class="unit" d="M173.543,274.521 L169.485,286.653 L162.307,285.387 L166.365,273.255 L173.543,274.521 Z M173.543,274.521" id="1139"/>
                    <path class="unit" d="M179.213,275.521 L175.154,287.653 L169.827,286.713 L173.887,274.582 L179.213,275.521 Z M179.213,275.521" id="1140"/>
                    <path class="unit" d="M143.038,296.438 L139.995,305.532 L137.277,305.049 L140.319,295.96 L143.038,296.438 Z M143.038,296.438" id="1141"/>
                    <path class="unit" d="M202.471,274.911 L201.455,277.946 L197.979,277.333 L198.993,274.298 L202.471,274.911 Z M202.471,274.911" id="1142"/>
                    <path class="unit" d="M194.823,273.562 L193.809,276.597 L190.34,275.986 L191.354,272.951 L194.823,273.562 Z M194.823,273.562" id="1143"/>
                    <path class="unit" d="M187.878,272.337 L186.864,275.373 L183.394,274.761 L184.409,271.726 L187.878,272.337 Z M187.878,272.337" id="1144"/>
                    <path class="unit" d="M180.24,270.991 L179.224,274.024 L175.754,273.414 L176.769,270.379 L180.24,270.991 Z M180.24,270.991" id="1145"/>
                    <path class="unit" d="M172.599,269.644 L171.584,272.678 L168.107,272.065 L169.122,269.032 L172.599,269.644 Z M172.599,269.644" id="1146"/>
                    <path class="unit" d="M164.96,268.297 L163.945,271.331 L160.468,270.719 L161.484,267.684 L164.96,268.297 Z M164.96,268.297" id="1147"/>
                    <path class="unit" d="M129.318,220.915 L128.302,223.949 L124.825,223.335 L125.841,220.301 L129.318,220.915 Z M129.318,220.915" id="1148"/>
                    <path class="unit" d="M134.593,205.147 L133.577,208.182 L130.101,207.569 L131.116,204.535 L134.593,205.147 Z M134.593,205.147" id="1149"/>
                    <path class="unit" d="M139.14,193.749 L138.125,196.783 L134.65,196.17 L135.664,193.136 L139.14,193.749 Z M139.14,193.749" id="1150"/>
                    <path class="unit" d="M140.764,188.897 L139.748,191.932 L136.273,191.318 L137.287,188.285 L140.764,188.897 Z M140.764,188.897" id="1151"/>
                    <path class="unit" d="M142.385,184.051 L141.371,187.08 L137.897,186.467 L138.909,183.438 L142.385,184.051 Z M142.385,184.051" id="1152"/>
                    <path class="unit" d="M145.632,174.348 L144.618,177.376 L141.143,176.764 L142.156,173.734 L145.632,174.348 Z M145.632,174.348" id="1153"/>
                    <path class="unit" d="M132.488,128.978 L134.227,131.557 L131.053,133.268 L129.313,130.69 L132.488,128.978 Z M132.488,128.978" id="1154"/>
                    <path class="unit" d="M125.725,116.227 L128.883,120.916 L123.114,124.031 L119.948,119.341 L125.725,116.227 Z M125.725,116.227" id="1155"/>
                    <path class="unit" d="M55.036,140.607 L53.312,145.759 L47.292,144.697 L55.036,140.607 Z M55.036,140.607" id="1156"/>
                    <path class="unit" d="M212.033,62.733 L213.772,65.311 L210.598,67.023 L208.859,64.445 L212.033,62.733 Z M212.033,62.733" id="1157"/>
                </g>
            </g>
</svg>