<?xml version="1.0" encoding="utf-8"?>
<!DOCTYPE svg PUBLIC "-//W3C//DTD SVG 1.1//EN" "http://www.w3.org/Graphics/SVG/1.1/DTD/svg11.dtd">
<svg version="1.1" xmlns="http://www.w3.org/2000/svg" xmlns:xlink="http://www.w3.org/1999/xlink" xml:space="preserve">
<g class="level" id="level1">
            <g class="outline">
                    <path d="M408.457,15.719 L408.22,14.952 L407.317,12.032 L406.876,10.609 L405.408,10.353 L350.401,0.738 L348.336,0.377 L347.671,2.366 L344.818,10.891 L321.52,6.499 L319.431,6.105 L318.757,8.121 L311.308,30.386 L311.063,31.119 L311.286,31.859 L312.179,34.835 L312.613,36.278 L314.096,36.536 L335.023,40.174 L333.056,46.051 L330.243,45.554 L328.176,45.19 L327.509,47.181 L326.166,51.194 L325.915,51.944 L326.151,52.698 L327.014,55.447 L327.45,56.83 L328.873,57.108 L329.267,57.185 L315.608,98.207 L315.374,98.912 L315.572,99.628 L316.362,102.482 L316.771,103.962 L318.286,104.23 L325.485,105.505 L323.593,111.364 L323.375,111.555 L293.409,86.534 L293.263,86.411 L293.098,86.313 L292.061,85.693 L291.675,85.462 L291.233,85.384 L243.244,76.952 L247.528,64.028 L247.774,63.284 L247.542,62.535 L246.63,59.613 L246.188,58.196 L244.727,57.938 L190.972,48.459 L188.906,48.095 L188.239,50.086 L182.55,67.07 L141.255,59.728 L140.797,59.646 L140.341,59.739 L138.451,60.126 L138.348,60.147 L138.249,60.176 L2.893,100.03 L0.457,100.748 L1.273,103.15 L19.952,158.173 L20.712,160.413 L22.974,159.72 L110.805,132.806 L139.139,178.14 C143.222,188.705 153.534,201.912 169.341,204.7 C172.299,205.222 175.359,205.486 178.429,205.486 C192.15,205.486 205.39,200.267 213.919,191.509 L266.775,157.724 L301.592,187.15 L301.526,187.23 L301.778,188.4 L302.453,191.521 L302.625,192.318 L303.242,192.851 L338.794,223.556 L340.407,224.951 L342.003,223.537 L396.371,175.361 L397.48,174.38 L397.118,172.942 L396.466,170.352 L396.279,169.612 L395.703,169.112 L360.207,138.184 L358.599,136.783 L356.996,138.192 L356.142,138.942 L335.248,121.438 L335.327,121.196 L339.46,108.503 L372.927,114.464 L375,114.834 L375.666,112.837 L390.686,67.852 L392.371,68.161 L394.451,68.541 L395.121,66.537 L396.367,62.815 L396.616,62.07 L396.384,61.32 L395.48,58.401 L395.042,56.986 L394.117,56.819 L408.195,16.478 L408.457,15.719 L408.457,15.719 Z M178.429,203.05 C177.578,203.05 176.727,203.022 175.877,202.981 C176.748,203.024 177.621,203.049 178.493,203.048 C178.472,203.048 178.45,203.05 178.429,203.05 L178.429,203.05 Z M178.429,203.05" class="outline"/>
                </g>
                <g class="label">
                    <path d="M18.859,42.546 C18.571,42.13 18.251,41.81 17.882,41.57 C19.307,41.073 20.235,40.081 20.235,38.561 C20.235,36.624 18.923,35.344 16.026,35.344 C14.922,35.344 14.169,35.456 13.657,35.616 C13.257,35.744 13.145,35.984 13.145,36.384 L13.145,46.084 C13.145,46.484 13.417,46.724 13.77,46.724 C14.122,46.724 14.394,46.484 14.394,46.084 L14.394,41.906 L15.643,41.906 C16.811,41.906 17.276,42.385 17.852,43.315 C18.252,43.955 18.668,44.883 19.164,46.276 C19.26,46.532 19.436,46.724 19.772,46.724 C20.108,46.724 20.397,46.484 20.397,46.1 C20.397,45.988 20.365,45.828 20.301,45.668 C19.868,44.515 19.355,43.314 18.859,42.546 L18.859,42.546 Z M15.834,40.689 L14.394,40.689 L14.394,36.655 C14.842,36.591 15.274,36.527 15.963,36.527 C18.252,36.527 18.972,37.423 18.972,38.608 C18.971,40.257 17.419,40.737 15.834,40.689 L15.834,40.689 Z M10.202,35.407 C9.849,35.407 9.577,35.663 9.577,36.063 L9.577,46.083 C9.577,46.483 9.833,46.723 10.185,46.723 C10.537,46.723 10.809,46.483 10.809,46.083 L10.809,36.063 C10.81,35.663 10.554,35.407 10.202,35.407 L10.202,35.407 Z M7.372,35.471 L2.682,35.471 C1.994,35.471 1.625,35.839 1.625,36.431 L1.625,46.083 C1.625,46.483 1.897,46.723 2.25,46.723 C2.602,46.723 2.858,46.483 2.858,46.083 L2.858,41.793 L6.78,41.793 C7.132,41.793 7.372,41.504 7.372,41.201 C7.372,40.913 7.132,40.624 6.78,40.624 L2.858,40.624 L2.858,36.686 L7.356,36.686 C7.804,36.686 8.012,36.382 8.012,36.094 C8.012,35.792 7.804,35.471 7.372,35.471 L7.372,35.471 Z M36.652,35.471 L29.8,35.471 C29.448,35.471 29.208,35.775 29.208,36.079 C29.208,36.383 29.4,36.671 29.8,36.671 L32.553,36.671 L32.553,46.083 C32.553,46.483 32.825,46.723 33.177,46.723 C33.513,46.723 33.785,46.483 33.785,46.083 L33.785,36.671 L36.65,36.671 C37.017,36.671 37.225,36.367 37.225,36.079 C37.228,35.759 37.004,35.471 36.652,35.471 L36.652,35.471 Z M25.467,40.305 C24.106,39.777 23.226,39.361 23.226,38.24 C23.226,37.168 24.122,36.543 25.275,36.543 C25.947,36.543 26.507,36.687 26.956,36.847 C27.132,36.895 27.292,36.959 27.468,36.959 C27.756,36.959 28.028,36.719 28.028,36.367 C28.028,36.143 27.932,35.919 27.548,35.759 C27.004,35.535 26.155,35.343 25.403,35.343 C23.226,35.343 21.946,36.672 21.946,38.304 C21.946,39.921 23.05,40.673 24.651,41.297 C26.748,42.113 27.324,42.673 27.324,43.746 C27.324,44.882 26.428,45.635 25.035,45.635 C24.171,45.635 23.354,45.315 22.794,44.915 C22.538,44.739 22.394,44.643 22.154,44.643 C21.85,44.643 21.593,44.883 21.578,45.187 C21.562,45.491 21.722,45.683 21.93,45.827 C22.666,46.324 23.722,46.787 24.971,46.787 C27.164,46.787 28.573,45.491 28.573,43.666 C28.572,42.002 27.339,41.025 25.467,40.305 L25.467,40.305 Z M71.946,35.343 C69.065,35.343 67.24,37.68 67.24,41.281 C67.24,44.675 69.032,46.787 71.898,46.787 C74.779,46.787 76.603,44.434 76.603,40.833 C76.604,37.44 74.796,35.343 71.946,35.343 L71.946,35.343 Z M71.931,45.603 C69.786,45.603 68.537,43.858 68.537,41.346 C68.537,38.385 69.768,36.528 71.914,36.528 C74.107,36.528 75.308,38.273 75.308,40.77 C75.308,43.73 74.075,45.603 71.931,45.603 L71.931,45.603 Z M85.596,45.667 C85.164,44.514 84.653,43.314 84.157,42.545 C83.869,42.129 83.549,41.809 83.179,41.569 C84.604,41.072 85.533,40.08 85.533,38.56 C85.533,36.623 84.221,35.343 81.324,35.343 C80.22,35.343 79.467,35.455 78.955,35.615 C78.555,35.743 78.443,35.983 78.443,36.383 L78.443,46.083 C78.443,46.483 78.714,46.723 79.068,46.723 C79.42,46.723 79.692,46.483 79.692,46.083 L79.692,41.905 L80.941,41.905 C82.109,41.905 82.574,42.384 83.15,43.314 C83.549,43.954 83.965,44.882 84.462,46.275 C84.558,46.531 84.734,46.723 85.07,46.723 C85.406,46.723 85.695,46.483 85.695,46.099 C85.692,45.987 85.66,45.827 85.596,45.667 L85.596,45.667 Z M81.13,40.689 L79.691,40.689 L79.691,36.655 C80.138,36.591 80.571,36.527 81.259,36.527 C83.548,36.527 84.268,37.423 84.268,38.608 C84.267,40.257 82.715,40.737 81.13,40.689 L81.13,40.689 Z M55.515,45.475 L51.209,45.475 L51.209,36.063 C51.209,35.663 50.953,35.407 50.601,35.407 C50.249,35.407 49.976,35.663 49.976,36.063 L49.976,45.699 C49.976,46.291 50.344,46.659 51.034,46.659 L55.514,46.659 C55.914,46.659 56.17,46.387 56.17,46.051 C56.171,45.747 55.932,45.475 55.515,45.475 L55.515,45.475 Z M61.242,35.343 C58.361,35.343 56.536,37.68 56.536,41.281 C56.536,44.675 58.328,46.787 61.194,46.787 C64.075,46.787 65.9,44.434 65.9,40.833 C65.9,37.44 64.092,35.343 61.242,35.343 L61.242,35.343 Z M61.227,45.603 C59.082,45.603 57.833,43.858 57.833,41.346 C57.833,38.385 59.065,36.528 61.21,36.528 C63.403,36.528 64.604,38.273 64.604,40.77 C64.604,43.73 63.371,45.603 61.227,45.603 L61.227,45.603 Z M47.771,35.471 L43.081,35.471 C42.393,35.471 42.024,35.839 42.024,36.431 L42.024,46.083 C42.024,46.483 42.295,46.723 42.649,46.723 C43.001,46.723 43.256,46.483 43.256,46.083 L43.256,41.793 L47.178,41.793 C47.531,41.793 47.771,41.504 47.771,41.201 C47.771,40.913 47.531,40.624 47.178,40.624 L43.256,40.624 L43.256,36.686 L47.754,36.686 C48.202,36.686 48.41,36.382 48.41,36.094 C48.412,35.792 48.204,35.471 47.771,35.471 L47.771,35.471 Z M47.771,35.471" class="Shape"/>
                    <path d="M410.619,121.95 C410.738,121.558 410.9,121.216 411.101,120.919 C411.238,120.725 411.403,120.591 411.6,120.52 C411.798,120.448 411.998,120.442 412.201,120.503 C412.428,120.57 412.633,120.708 412.818,120.909 L413.399,120.148 C413.137,119.851 412.85,119.657 412.541,119.56 C412.324,119.495 412.107,119.497 411.891,119.564 C411.674,119.632 411.4,119.828 411.07,120.148 L411.322,119.323 L410.49,119.068 L408.822,124.523 L409.748,124.806 L410.619,121.95 L410.619,121.95 Z M407.043,95.821 C407.065,96.015 407.152,96.196 407.306,96.357 C407.457,96.521 407.702,96.654 408.037,96.755 C408.242,96.817 408.484,96.862 408.762,96.888 L408.877,96.03 C408.703,96.003 408.563,95.974 408.461,95.941 C408.324,95.9 408.225,95.845 408.164,95.78 C408.105,95.712 408.07,95.635 408.06,95.551 C408.05,95.466 408.086,95.292 408.167,95.028 L409.142,91.84 L410.073,92.124 L410.294,91.405 L409.364,91.12 L409.946,89.215 L408.856,89.487 L408.444,90.839 L407.765,90.632 L407.544,91.353 L408.222,91.56 L407.263,94.699 C407.094,95.25 407.021,95.625 407.043,95.821 L407.043,95.821 Z M410.6,110.53 C410.549,110.794 410.543,111.038 410.58,111.259 L411.545,111.555 C411.492,111.311 411.483,111.069 411.512,110.828 C411.541,110.587 411.69,110.038 411.951,109.18 L412.328,107.948 C412.453,107.536 412.525,107.248 412.543,107.082 C412.565,106.811 412.533,106.572 412.447,106.364 C412.361,106.156 412.189,105.952 411.93,105.755 C411.672,105.556 411.312,105.386 410.845,105.243 C410.375,105.098 409.945,105.038 409.549,105.057 C409.153,105.076 408.824,105.175 408.565,105.356 C408.304,105.538 408.074,105.807 407.873,106.169 L408.738,106.568 C408.957,106.212 409.193,105.988 409.447,105.898 C409.7,105.81 410.045,105.832 410.478,105.963 C410.945,106.107 411.262,106.317 411.434,106.599 C411.564,106.806 411.57,107.099 411.455,107.476 C411.445,107.509 411.418,107.589 411.376,107.715 C410.986,107.732 410.404,107.669 409.631,107.528 C409.25,107.462 408.961,107.424 408.766,107.416 C408.498,107.41 408.246,107.442 408.008,107.517 C407.77,107.592 407.557,107.719 407.367,107.902 C407.178,108.088 407.043,108.312 406.961,108.58 C406.822,109.036 406.869,109.459 407.102,109.851 C407.334,110.242 407.75,110.529 408.349,110.711 C408.711,110.821 409.072,110.866 409.423,110.843 C409.777,110.82 410.17,110.716 410.6,110.53 L410.6,110.53 Z M408.791,110.055 C408.432,109.946 408.184,109.781 408.047,109.559 C407.91,109.336 407.881,109.104 407.955,108.856 C408.004,108.696 408.092,108.563 408.219,108.458 C408.344,108.353 408.496,108.289 408.675,108.269 C408.854,108.249 409.141,108.269 409.538,108.331 C410.238,108.44 410.777,108.477 411.154,108.442 L411.05,108.783 C410.925,109.19 410.782,109.483 410.618,109.663 C410.405,109.892 410.136,110.043 409.81,110.114 C409.487,110.184 409.146,110.163 408.791,110.055 L408.791,110.055 Z M424.208,87.561 C424.5,87.914 424.863,88.156 425.297,88.289 C425.969,88.494 426.561,88.379 427.071,87.942 L426.861,88.63 L427.717,88.893 L430.019,81.363 L429.1,81.082 L428.275,83.784 C428.18,83.513 428.029,83.267 427.814,83.051 C427.598,82.833 427.328,82.674 427,82.574 C426.551,82.436 426.109,82.431 425.674,82.554 C425.238,82.68 424.863,82.936 424.545,83.325 C424.229,83.714 423.986,84.179 423.82,84.724 C423.648,85.283 423.596,85.807 423.668,86.298 C423.736,86.788 423.918,87.209 424.208,87.561 L424.208,87.561 Z M424.77,85.015 C424.994,84.291 425.291,83.805 425.668,83.554 C426.047,83.302 426.441,83.239 426.854,83.365 C427.276,83.494 427.576,83.778 427.756,84.215 C427.938,84.653 427.913,85.243 427.685,85.991 C427.477,86.669 427.182,87.129 426.799,87.373 C426.414,87.617 426.023,87.678 425.617,87.555 C425.217,87.432 424.922,87.153 424.733,86.716 C424.545,86.28 424.557,85.712 424.77,85.015 L424.77,85.015 Z M402.932,95.252 C403.409,95.398 403.881,95.421 404.352,95.321 C404.824,95.22 405.224,95.003 405.557,94.665 C405.891,94.327 406.164,93.809 406.379,93.103 C406.645,92.238 406.613,91.486 406.289,90.849 C405.963,90.211 405.425,89.78 404.675,89.549 C404,89.343 403.367,89.369 402.775,89.63 C402.063,89.944 401.555,90.609 401.246,91.618 C400.965,92.539 400.984,93.315 401.307,93.95 C401.625,94.585 402.168,95.02 402.932,95.252 L402.932,95.252 Z M402.195,91.91 C402.408,91.212 402.719,90.734 403.132,90.482 C403.542,90.23 403.979,90.172 404.443,90.314 C404.898,90.454 405.225,90.746 405.424,91.185 C405.625,91.626 405.621,92.185 405.416,92.859 C405.196,93.576 404.881,94.06 404.47,94.318 C404.059,94.574 403.623,94.63 403.164,94.491 C402.701,94.349 402.371,94.058 402.173,93.619 C401.975,93.18 401.981,92.609 402.195,91.91 L402.195,91.91 Z M411.826,89.604 L409.523,97.133 L410.379,97.397 L410.588,96.712 C410.791,97.361 411.213,97.784 411.859,97.983 C412.505,98.179 413.137,98.094 413.756,97.725 C414.373,97.358 414.826,96.704 415.111,95.772 C415.231,95.376 415.289,94.991 415.285,94.612 C415.281,94.231 415.221,93.889 415.1,93.587 C414.983,93.282 414.793,93.017 414.537,92.79 C414.281,92.563 413.982,92.399 413.645,92.296 C413.04,92.11 412.465,92.203 411.924,92.574 L412.746,89.886 L411.826,89.604 L411.826,89.604 Z M412.125,93.234 C412.527,92.974 412.93,92.906 413.334,93.029 C413.734,93.15 414.023,93.425 414.203,93.851 C414.381,94.275 414.361,94.843 414.143,95.556 C413.93,96.251 413.623,96.73 413.221,96.991 C412.82,97.253 412.416,97.32 412.012,97.197 C411.516,97.046 411.196,96.687 411.049,96.123 C410.96,95.777 411.016,95.277 411.215,94.624 C411.42,93.959 411.723,93.497 412.125,93.234 L412.125,93.234 Z M390.75,126.702 C390.074,126.496 389.441,126.521 388.849,126.784 C388.139,127.097 387.629,127.761 387.322,128.771 C387.041,129.691 387.059,130.468 387.381,131.103 C387.703,131.736 388.244,132.169 389.008,132.404 C389.486,132.55 389.957,132.572 390.428,132.472 C390.9,132.371 391.301,132.154 391.633,131.816 C391.969,131.478 392.242,130.959 392.457,130.255 C392.721,129.388 392.691,128.636 392.365,127.999 C392.039,127.362 391.5,126.932 390.75,126.702 L390.75,126.702 Z M391.49,130.012 C391.271,130.729 390.956,131.214 390.545,131.471 C390.133,131.727 389.697,131.784 389.238,131.645 C388.777,131.503 388.446,131.212 388.248,130.772 C388.049,130.332 388.057,129.762 388.269,129.063 C388.485,128.365 388.795,127.889 389.207,127.635 C389.617,127.382 390.053,127.326 390.516,127.468 C390.971,127.608 391.299,127.899 391.5,128.339 C391.699,128.779 391.696,129.338 391.49,130.012 L391.49,130.012 Z M401.533,122.296 L403.2,116.841 L402.275,116.559 L401.381,119.481 C401.238,119.948 401.078,120.288 400.902,120.502 C400.725,120.715 400.496,120.856 400.209,120.923 C399.922,120.99 399.641,120.983 399.363,120.899 C399.085,120.815 398.875,120.672 398.727,120.477 C398.581,120.282 398.516,120.053 398.533,119.791 C398.547,119.611 398.627,119.281 398.775,118.797 L399.7,115.772 L398.775,115.491 L397.742,118.871 C397.622,119.267 397.553,119.559 397.535,119.751 C397.508,120.039 397.533,120.296 397.611,120.522 C397.689,120.751 397.848,120.969 398.09,121.178 C398.332,121.387 398.613,121.539 398.937,121.639 C399.666,121.862 400.336,121.729 400.951,121.243 L400.705,122.045 L401.533,122.296 L401.533,122.296 Z M414.473,109.326 C414.592,108.935 414.754,108.593 414.957,108.295 C415.092,108.102 415.258,107.966 415.455,107.895 C415.654,107.824 415.853,107.817 416.057,107.878 C416.283,107.947 416.488,108.084 416.672,108.286 L417.254,107.525 C416.992,107.226 416.705,107.032 416.395,106.937 C416.178,106.871 415.962,106.872 415.746,106.939 C415.529,107.007 415.255,107.204 414.924,107.525 L415.178,106.699 L414.346,106.443 L412.678,111.898 L413.602,112.181 L414.473,109.326 L414.473,109.326 Z M395.043,122.598 L397.35,115.052 L396.518,114.798 L396.295,115.527 C396.082,114.839 395.639,114.394 394.963,114.187 C394.531,114.056 394.102,114.045 393.672,114.161 C393.242,114.273 392.865,114.519 392.541,114.896 C392.219,115.273 391.975,115.736 391.807,116.284 C391.533,117.183 391.548,117.965 391.859,118.626 C392.168,119.285 392.646,119.714 393.295,119.912 C393.586,120.001 393.881,120.017 394.18,119.964 C394.48,119.908 394.734,119.803 394.939,119.645 L394.123,122.317 L395.043,122.598 L395.043,122.598 Z M394.771,118.984 C394.383,119.23 393.996,119.294 393.6,119.172 C393.191,119.046 392.891,118.765 392.704,118.321 C392.516,117.881 392.53,117.309 392.745,116.606 C392.966,115.883 393.268,115.395 393.651,115.139 C394.034,114.883 394.425,114.819 394.827,114.94 C395.231,115.065 395.526,115.354 395.715,115.813 C395.903,116.272 395.884,116.864 395.663,117.588 C395.455,118.273 395.158,118.736 394.771,118.984 L394.771,118.984 Z M408.098,121.802 L408.475,120.571 C408.6,120.161 408.672,119.872 408.691,119.706 C408.712,119.435 408.68,119.196 408.594,118.987 C408.508,118.78 408.335,118.577 408.078,118.378 C407.82,118.181 407.459,118.01 406.992,117.867 C406.523,117.723 406.092,117.662 405.696,117.68 C405.3,117.7 404.971,117.799 404.711,117.981 C404.451,118.162 404.219,118.432 404.021,118.793 L404.885,119.191 C405.105,118.835 405.339,118.611 405.592,118.523 C405.846,118.433 406.193,118.456 406.625,118.587 C407.092,118.73 407.41,118.941 407.582,119.224 C407.709,119.431 407.717,119.722 407.602,120.099 C407.59,120.134 407.566,120.213 407.523,120.339 C407.132,120.355 406.549,120.293 405.777,120.153 C405.397,120.087 405.109,120.048 404.914,120.04 C404.646,120.034 404.393,120.067 404.156,120.142 C403.918,120.214 403.705,120.343 403.514,120.527 C403.325,120.712 403.191,120.935 403.109,121.204 C402.969,121.659 403.016,122.083 403.25,122.475 C403.482,122.867 403.898,123.153 404.496,123.336 C404.859,123.445 405.218,123.491 405.57,123.468 C405.924,123.446 406.317,123.34 406.748,123.155 C406.697,123.421 406.688,123.664 406.727,123.884 L407.695,124.18 C407.641,123.934 407.631,123.694 407.662,123.452 C407.688,123.212 407.834,122.663 408.098,121.802 L408.098,121.802 Z M407.197,121.404 C407.072,121.81 406.926,122.103 406.764,122.283 C406.551,122.513 406.283,122.664 405.957,122.734 C405.632,122.806 405.291,122.788 404.936,122.677 C404.576,122.568 404.329,122.402 404.192,122.181 C404.054,121.958 404.025,121.726 404.099,121.478 C404.149,121.318 404.237,121.185 404.364,121.08 C404.489,120.975 404.64,120.911 404.819,120.891 C404.999,120.87 405.286,120.893 405.681,120.953 C406.381,121.062 406.92,121.099 407.298,121.066 L407.197,121.404 L407.197,121.404 Z M393.222,106.087 C393.699,106.233 394.172,106.256 394.643,106.155 C395.113,106.054 395.514,105.838 395.848,105.5 C396.182,105.162 396.455,104.643 396.67,103.939 C396.936,103.073 396.904,102.32 396.578,101.683 C396.253,101.046 395.715,100.615 394.965,100.384 C394.291,100.178 393.656,100.204 393.066,100.466 C392.355,100.78 391.844,101.443 391.537,102.453 C391.256,103.374 391.275,104.149 391.596,104.785 C391.916,105.42 392.459,105.854 393.222,106.087 L393.222,106.087 Z M392.486,102.745 C392.699,102.047 393.01,101.57 393.422,101.316 C393.832,101.064 394.27,101.007 394.732,101.15 C395.188,101.29 395.514,101.581 395.715,102.021 C395.914,102.461 395.912,103.019 395.705,103.695 C395.486,104.411 395.172,104.896 394.76,105.152 C394.348,105.409 393.913,105.465 393.454,105.327 C392.992,105.185 392.662,104.894 392.463,104.454 C392.264,104.014 392.271,103.443 392.486,102.745 L392.486,102.745 Z M421.717,97.884 C421.547,98.444 421.496,98.967 421.566,99.458 C421.634,99.949 421.816,100.369 422.107,100.721 C422.398,101.075 422.76,101.315 423.197,101.449 C423.867,101.653 424.459,101.539 424.969,101.104 L424.758,101.792 L425.615,102.055 L427.918,94.525 L426.998,94.245 L426.172,96.947 C426.08,96.676 425.926,96.429 425.711,96.214 C425.498,95.996 425.227,95.838 424.898,95.736 C424.45,95.599 424.006,95.593 423.573,95.717 C423.137,95.844 422.761,96.099 422.445,96.488 C422.125,96.873 421.885,97.34 421.717,97.884 L421.717,97.884 Z M422.668,98.175 C422.889,97.452 423.189,96.966 423.566,96.714 C423.945,96.463 424.338,96.401 424.75,96.526 C425.172,96.655 425.473,96.938 425.652,97.377 C425.834,97.814 425.81,98.405 425.582,99.151 C425.375,99.83 425.08,100.29 424.695,100.535 C424.312,100.778 423.918,100.839 423.513,100.716 C423.113,100.593 422.819,100.316 422.629,99.878 C422.441,99.439 422.455,98.873 422.668,98.175 L422.668,98.175 Z M418.725,108.571 L419.656,108.855 L419.877,108.134 L418.947,107.851 L419.529,105.945 L418.44,106.218 L418.027,107.57 L417.348,107.363 L417.127,108.083 L417.807,108.29 L416.846,111.43 C416.676,111.985 416.604,112.36 416.625,112.555 C416.648,112.75 416.735,112.93 416.889,113.092 C417.041,113.255 417.285,113.389 417.62,113.49 C417.826,113.552 418.066,113.595 418.344,113.622 L418.46,112.764 C418.285,112.737 418.147,112.708 418.043,112.676 C417.906,112.634 417.809,112.579 417.748,112.514 C417.687,112.446 417.652,112.37 417.644,112.285 C417.634,112.198 417.67,112.024 417.75,111.761 L418.725,108.571 L418.725,108.571 Z M402.768,108.87 C403.247,109.016 403.664,109.099 404.02,109.115 C404.377,109.133 404.691,109.093 404.959,108.995 C405.229,108.896 405.484,108.721 405.725,108.464 C405.967,108.206 406.141,107.901 406.249,107.548 C406.383,107.11 406.377,106.694 406.23,106.296 C406.083,105.899 405.801,105.565 405.387,105.291 C405.793,105.225 406.127,105.075 406.389,104.845 C406.652,104.616 406.83,104.337 406.928,104.018 C407.035,103.669 407.037,103.309 406.939,102.932 C406.838,102.555 406.637,102.239 406.336,101.979 C406.034,101.72 405.596,101.502 405.023,101.328 L402.197,100.464 L399.895,107.995 L402.768,108.87 L402.768,108.87 Z M402.923,101.655 L404.428,102.115 C404.969,102.281 405.34,102.431 405.541,102.57 C405.742,102.71 405.873,102.892 405.936,103.118 C405.998,103.346 405.992,103.583 405.915,103.834 C405.834,104.098 405.703,104.297 405.52,104.434 C405.338,104.569 405.111,104.635 404.832,104.633 C404.623,104.632 404.297,104.565 403.855,104.429 L402.225,103.932 L402.923,101.655 L402.923,101.655 Z M403.697,105.352 C404.176,105.498 404.531,105.653 404.759,105.815 C404.988,105.977 405.145,106.184 405.224,106.436 C405.304,106.688 405.302,106.954 405.216,107.233 C405.143,107.473 405.028,107.671 404.872,107.823 C404.718,107.975 404.548,108.076 404.364,108.125 C404.179,108.175 403.968,108.185 403.726,108.155 C403.587,108.139 403.36,108.082 403.038,107.983 L401.163,107.41 L401.954,104.821 L403.697,105.352 L403.697,105.352 Z M398.502,93.532 C398.971,93.431 399.373,93.215 399.707,92.876 C400.041,92.538 400.314,92.02 400.529,91.316 C400.795,90.449 400.762,89.698 400.437,89.06 C400.112,88.423 399.574,87.991 398.824,87.761 C398.15,87.554 397.514,87.581 396.924,87.842 C396.213,88.157 395.703,88.82 395.396,89.829 C395.115,90.75 395.133,91.526 395.455,92.161 C395.777,92.795 396.32,93.227 397.083,93.462 C397.557,93.607 398.031,93.632 398.502,93.532 L398.502,93.532 Z M397.312,92.703 C396.85,92.56 396.521,92.271 396.322,91.83 C396.124,91.391 396.131,90.82 396.344,90.122 C396.557,89.423 396.869,88.946 397.281,88.693 C397.691,88.441 398.129,88.384 398.59,88.525 C399.046,88.666 399.373,88.957 399.574,89.398 C399.773,89.838 399.771,90.396 399.564,91.071 C399.344,91.788 399.031,92.273 398.619,92.529 C398.207,92.786 397.771,92.844 397.312,92.703 L397.312,92.703 Z M422.113,92.748 L421.189,92.466 L420.864,93.529 L421.789,93.81 L422.113,92.748 L422.113,92.748 Z M415.326,134.216 C414.574,133.987 413.884,134.052 413.256,134.415 C412.629,134.777 412.174,135.417 411.895,136.335 C411.624,137.223 411.647,137.982 411.963,138.616 C412.28,139.251 412.838,139.689 413.635,139.933 C414.27,140.126 414.837,140.131 415.338,139.949 C415.84,139.763 416.252,139.417 416.572,138.904 L415.654,138.495 C415.393,138.843 415.117,139.068 414.822,139.173 C414.528,139.277 414.211,139.277 413.873,139.175 C413.418,139.036 413.086,138.762 412.879,138.35 C412.672,137.938 412.643,137.428 412.791,136.817 L416.859,138.061 C416.895,137.954 416.922,137.872 416.939,137.817 C417.214,136.917 417.197,136.147 416.885,135.507 C416.576,134.87 416.057,134.439 415.326,134.216 L415.326,134.216 Z M416.121,137.003 L413.074,136.072 C413.252,135.605 413.527,135.273 413.904,135.079 C414.279,134.883 414.68,134.85 415.105,134.978 C415.574,135.123 415.902,135.417 416.085,135.863 C416.209,136.152 416.22,136.532 416.121,137.003 L416.121,137.003 Z M410.127,146.432 C409.375,146.202 408.684,146.266 408.057,146.628 C407.429,146.991 406.975,147.63 406.695,148.548 C406.424,149.436 406.447,150.195 406.763,150.83 C407.08,151.465 407.637,151.902 408.436,152.146 C409.07,152.339 409.637,152.345 410.138,152.162 C410.641,151.978 411.052,151.631 411.373,151.119 L410.453,150.709 C410.194,151.057 409.916,151.282 409.623,151.389 C409.328,151.493 409.012,151.493 408.674,151.389 C408.219,151.25 407.887,150.975 407.68,150.563 C407.471,150.153 407.443,149.641 407.592,149.032 L411.66,150.274 C411.695,150.167 411.722,150.086 411.74,150.03 C412.014,149.131 411.998,148.36 411.687,147.721 C411.375,147.084 410.857,146.652 410.127,146.432 L410.127,146.432 Z M410.92,149.217 L407.875,148.285 C408.051,147.818 408.328,147.488 408.704,147.293 C409.08,147.098 409.48,147.064 409.904,147.193 C410.375,147.337 410.701,147.631 410.885,148.078 C411.008,148.366 411.02,148.745 410.92,149.217 L410.92,149.217 Z M417.037,93.465 L415.369,98.92 L416.293,99.202 L417.166,96.348 C417.285,95.956 417.447,95.614 417.65,95.317 C417.785,95.122 417.951,94.987 418.148,94.916 C418.346,94.844 418.545,94.839 418.75,94.899 C418.975,94.968 419.18,95.104 419.365,95.307 L419.947,94.546 C419.684,94.249 419.397,94.053 419.088,93.957 C418.872,93.893 418.655,93.893 418.438,93.961 C418.221,94.029 417.948,94.225 417.617,94.546 L417.871,93.72 L417.037,93.465 L417.037,93.465 Z M410.76,134.846 C411.303,134.528 411.672,134.047 411.868,133.408 C411.982,133.034 412.01,132.669 411.953,132.311 C411.896,131.952 411.768,131.649 411.572,131.399 C411.375,131.149 411.1,130.938 410.75,130.762 C410.501,130.635 410.127,130.492 409.627,130.34 L406.787,129.473 L404.484,137.001 L405.48,137.307 L406.416,134.245 L408.348,134.835 C409.412,135.161 410.217,135.165 410.76,134.846 L410.76,134.846 Z M407.512,130.664 L409.439,131.253 C409.889,131.393 410.195,131.509 410.346,131.606 C410.584,131.756 410.748,131.968 410.84,132.243 C410.93,132.514 410.928,132.809 410.832,133.125 C410.698,133.562 410.46,133.856 410.115,134.015 C409.772,134.169 409.279,134.15 408.635,133.953 L406.69,133.357 L407.512,130.664 L407.512,130.664 Z M399.607,143.408 C399.367,143.205 399.084,143.054 398.754,142.953 C397.996,142.723 397.326,142.846 396.742,143.322 L396.979,142.546 L396.147,142.292 L394.48,147.746 L395.404,148.029 L396.314,145.05 C396.529,144.352 396.816,143.921 397.178,143.758 C397.539,143.596 397.918,143.575 398.311,143.696 C398.559,143.772 398.756,143.893 398.906,144.061 C399.055,144.227 399.137,144.415 399.152,144.623 C399.168,144.831 399.117,145.124 399.002,145.501 L397.988,148.818 L398.912,149.101 L399.936,145.747 C400.068,145.318 400.141,145.016 400.162,144.833 C400.186,144.553 400.16,144.296 400.082,144.062 C400.006,143.828 399.848,143.609 399.607,143.408 L399.607,143.408 Z M392.576,141.064 C391.822,140.834 391.133,140.898 390.506,141.261 C389.877,141.623 389.424,142.263 389.143,143.181 C388.872,144.068 388.895,144.829 389.211,145.462 C389.529,146.097 390.086,146.536 390.885,146.778 C391.518,146.973 392.086,146.977 392.588,146.795 C393.09,146.61 393.5,146.263 393.821,145.751 L392.902,145.341 C392.641,145.689 392.365,145.914 392.072,146.021 C391.777,146.125 391.461,146.125 391.121,146.021 C390.666,145.882 390.335,145.607 390.128,145.195 C389.92,144.785 389.891,144.273 390.041,143.664 L394.107,144.907 C394.143,144.8 394.17,144.718 394.187,144.663 C394.462,143.764 394.446,142.993 394.134,142.353 C393.826,141.718 393.305,141.287 392.576,141.064 L392.576,141.064 Z M393.369,143.852 L390.324,142.919 C390.5,142.454 390.777,142.122 391.152,141.927 C391.529,141.731 391.928,141.698 392.353,141.827 C392.824,141.973 393.15,142.265 393.334,142.712 C393.457,143 393.469,143.38 393.369,143.852 L393.369,143.852 Z M388.531,139.963 L386.302,142.921 C386.031,143.28 385.81,143.591 385.64,143.854 C385.651,143.442 385.647,143.04 385.626,142.649 L385.454,139.024 L384.478,138.725 L384.884,144.815 L385.747,145.079 L389.479,140.255 L388.531,139.963 L388.531,139.963 Z M395.632,129.296 C395.895,129.227 396.156,129.233 396.416,129.313 C396.758,129.417 396.975,129.595 397.062,129.846 C397.149,130.098 397.129,130.428 397.004,130.839 L395.92,134.383 L396.844,134.666 L397.816,131.496 C397.986,130.934 398.238,130.564 398.57,130.389 C398.9,130.211 399.258,130.18 399.642,130.298 C399.855,130.361 400.023,130.469 400.152,130.615 C400.278,130.763 400.346,130.927 400.357,131.107 C400.367,131.289 400.316,131.564 400.203,131.933 L399.152,135.371 L400.072,135.652 L401.217,131.907 C401.408,131.284 401.404,130.777 401.203,130.388 C401.002,129.999 400.635,129.724 400.092,129.558 C399.402,129.347 398.742,129.494 398.115,129.997 C398.101,129.663 397.991,129.373 397.783,129.126 C397.576,128.88 397.271,128.694 396.867,128.569 C396.504,128.46 396.156,128.442 395.822,128.518 C395.488,128.591 395.195,128.737 394.941,128.953 L395.174,128.188 L394.347,127.934 L392.678,133.389 L393.605,133.671 L394.469,130.841 C394.621,130.346 394.785,129.981 394.967,129.746 C395.148,129.518 395.369,129.366 395.632,129.296 L395.632,129.296 Z M432.137,98.801 C431.877,98.153 431.426,97.731 430.783,97.533 C430.3,97.386 429.844,97.376 429.412,97.507 C428.98,97.639 428.603,97.895 428.281,98.278 C427.958,98.661 427.717,99.112 427.557,99.632 C427.326,100.39 427.332,101.101 427.578,101.769 C427.824,102.435 428.322,102.882 429.072,103.113 C429.675,103.298 430.252,103.213 430.8,102.861 C430.619,103.465 430.478,103.851 430.371,104.027 C430.195,104.31 429.963,104.502 429.679,104.601 C429.395,104.7 429.037,104.685 428.611,104.554 C428.213,104.432 427.925,104.25 427.749,104.009 C427.617,103.83 427.574,103.597 427.621,103.308 L426.764,102.9 C426.57,103.484 426.629,103.986 426.941,104.4 C427.252,104.816 427.732,105.123 428.383,105.322 C428.93,105.488 429.422,105.527 429.861,105.435 C430.299,105.345 430.66,105.15 430.941,104.847 C431.219,104.546 431.492,103.97 431.752,103.12 L433.193,98.405 L432.34,98.143 L432.137,98.801 L432.137,98.801 Z M431.514,100.8 C431.301,101.499 431,101.968 430.613,102.206 C430.225,102.445 429.82,102.501 429.393,102.37 C428.965,102.239 428.662,101.966 428.477,101.551 C428.293,101.135 428.309,100.571 428.529,99.854 C428.729,99.198 429.026,98.746 429.416,98.5 C429.807,98.254 430.206,98.193 430.617,98.318 C431.035,98.447 431.34,98.724 431.533,99.155 C431.723,99.584 431.718,100.133 431.514,100.8 L431.514,100.8 Z M415.775,125.661 C415.48,125.765 415.164,125.765 414.826,125.663 C414.369,125.523 414.039,125.249 413.831,124.836 C413.623,124.426 413.594,123.914 413.744,123.305 L417.811,124.548 C417.846,124.44 417.873,124.36 417.89,124.303 C418.165,123.403 418.149,122.634 417.838,121.995 C417.527,121.357 417.008,120.928 416.277,120.704 C415.523,120.475 414.834,120.54 414.207,120.902 C413.578,121.263 413.125,121.904 412.844,122.822 C412.573,123.71 412.597,124.47 412.913,125.103 C413.23,125.738 413.787,126.177 414.586,126.42 C415.219,126.613 415.787,126.618 416.289,126.435 C416.791,126.252 417.201,125.905 417.523,125.392 L416.603,124.982 C416.346,125.33 416.068,125.557 415.775,125.661 L415.775,125.661 Z M414.855,121.566 C415.232,121.37 415.631,121.337 416.055,121.466 C416.527,121.611 416.852,121.904 417.037,122.351 C417.159,122.64 417.17,123.019 417.071,123.491 L414.025,122.558 C414.203,122.094 414.48,121.764 414.855,121.566 L414.855,121.566 Z M438.424,100.684 C438.115,100.046 437.595,99.617 436.864,99.393 C436.111,99.164 435.422,99.229 434.794,99.591 C434.166,99.953 433.711,100.593 433.431,101.512 C433.16,102.399 433.184,103.158 433.5,103.792 C433.818,104.428 434.375,104.865 435.174,105.109 C435.807,105.301 436.373,105.306 436.877,105.125 C437.377,104.939 437.789,104.593 438.11,104.081 L437.191,103.671 C436.93,104.02 436.654,104.244 436.359,104.35 C436.066,104.454 435.75,104.454 435.41,104.352 C434.955,104.211 434.623,103.938 434.416,103.526 C434.209,103.115 434.18,102.604 434.329,101.994 L438.396,103.237 C438.432,103.129 438.459,103.048 438.476,102.993 C438.752,102.091 438.734,101.321 438.424,100.684 L438.424,100.684 Z M437.658,102.179 L434.611,101.247 C434.789,100.782 435.064,100.45 435.441,100.255 C435.818,100.059 436.217,100.026 436.641,100.154 C437.111,100.299 437.439,100.593 437.623,101.04 C437.746,101.328 437.758,101.708 437.658,102.179 L437.658,102.179 Z M430.088,111.316 C429.848,111.113 429.565,110.962 429.234,110.863 C428.478,110.632 427.806,110.755 427.223,111.23 L427.459,110.456 L426.627,110.201 L424.959,115.656 L425.884,115.937 L426.795,112.958 C427.008,112.26 427.297,111.829 427.658,111.667 C428.02,111.505 428.399,111.483 428.793,111.605 C429.04,111.681 429.238,111.801 429.387,111.968 C429.536,112.136 429.617,112.322 429.633,112.531 C429.648,112.74 429.598,113.033 429.484,113.409 L428.468,116.727 L429.393,117.009 L430.418,113.655 C430.549,113.226 430.623,112.923 430.641,112.741 C430.666,112.46 430.641,112.204 430.564,111.97 C430.486,111.738 430.326,111.52 430.088,111.316 L430.088,111.316 Z M421.178,136.005 C420.424,135.776 419.736,135.841 419.109,136.203 C418.481,136.566 418.026,137.205 417.746,138.123 C417.475,139.012 417.498,139.771 417.813,140.405 C418.131,141.04 418.688,141.478 419.488,141.722 C420.121,141.914 420.688,141.919 421.191,141.736 C421.692,141.552 422.102,141.206 422.424,140.693 L421.504,140.284 C421.244,140.631 420.967,140.857 420.672,140.962 C420.379,141.066 420.064,141.066 419.723,140.964 C419.268,140.824 418.937,140.55 418.731,140.139 C418.523,139.727 418.494,139.215 418.644,138.606 L422.711,139.85 C422.746,139.743 422.773,139.661 422.79,139.606 C423.065,138.706 423.049,137.936 422.736,137.296 C422.428,136.659 421.908,136.229 421.178,136.005 L421.178,136.005 Z M421.971,138.792 L418.926,137.859 C419.102,137.394 419.379,137.062 419.754,136.868 C420.131,136.672 420.531,136.639 420.955,136.767 C421.426,136.912 421.752,137.205 421.937,137.652 C422.059,137.941 422.07,138.32 421.971,138.792 L421.971,138.792 Z M423.062,142.682 L423.986,142.964 L426.289,135.434 L425.365,135.153 L423.062,142.682 L423.062,142.682 Z M404.584,148.064 C404.441,148.532 404.282,148.872 404.105,149.085 C403.928,149.3 403.699,149.439 403.412,149.508 C403.125,149.577 402.844,149.569 402.566,149.485 C402.289,149.399 402.078,149.257 401.93,149.063 C401.784,148.866 401.719,148.637 401.736,148.376 C401.75,148.195 401.831,147.865 401.977,147.382 L402.904,144.358 L401.977,144.076 L400.945,147.456 C400.825,147.851 400.756,148.144 400.738,148.336 C400.711,148.623 400.736,148.88 400.814,149.108 C400.891,149.336 401.051,149.553 401.293,149.762 C401.535,149.971 401.816,150.124 402.139,150.223 C402.868,150.446 403.539,150.315 404.154,149.827 L403.908,150.628 L404.736,150.881 L406.403,145.427 L405.477,145.145 L404.584,148.064 L404.584,148.064 Z M416.645,80.327 L411.955,83.252 L411.726,84.002 L416.554,85.478 L416.797,84.683 L414.276,83.912 C413.913,83.802 413.518,83.697 413.095,83.601 L413.86,83.143 L417.872,80.585 L418.058,79.974 L413.601,78.611 L413.372,79.36 L415.597,80.041 C415.893,80.132 416.244,80.228 416.645,80.327 L416.645,80.327 Z M404.928,81.925 L407.231,74.395 L406.306,74.113 L404.004,81.642 L404.928,81.925 L404.928,81.925 Z M408.973,78.147 C409.227,78.058 409.572,78.08 410.006,78.213 C410.471,78.355 410.791,78.567 410.963,78.848 C411.09,79.056 411.096,79.348 410.982,79.725 C410.971,79.758 410.947,79.838 410.904,79.965 C410.512,79.98 409.93,79.918 409.158,79.778 C408.777,79.711 408.49,79.674 408.294,79.666 C408.025,79.659 407.773,79.692 407.536,79.766 C407.299,79.84 407.085,79.968 406.895,80.152 C406.707,80.336 406.571,80.561 406.49,80.829 C406.348,81.284 406.395,81.707 406.629,82.099 C406.861,82.49 407.277,82.778 407.877,82.96 C408.24,83.071 408.598,83.115 408.951,83.093 C409.305,83.07 409.697,82.964 410.129,82.779 C410.078,83.044 410.07,83.287 410.108,83.508 L411.074,83.804 C411.021,83.559 411.011,83.318 411.041,83.077 C411.071,82.838 411.218,82.288 411.479,81.428 L411.856,80.197 C411.984,79.786 412.053,79.497 412.072,79.331 C412.094,79.06 412.062,78.822 411.976,78.613 C411.889,78.406 411.717,78.202 411.46,78.004 C411.203,77.806 410.84,77.635 410.375,77.492 C409.906,77.348 409.473,77.287 409.078,77.306 C408.682,77.326 408.353,77.425 408.094,77.607 C407.832,77.787 407.602,78.057 407.402,78.419 L408.268,78.819 C408.482,78.46 408.719,78.237 408.973,78.147 L408.973,78.147 Z M410.577,81.028 C410.453,81.436 410.307,81.729 410.144,81.908 C409.931,82.137 409.664,82.289 409.337,82.36 C409.011,82.431 408.672,82.411 408.316,82.302 C407.957,82.192 407.708,82.027 407.573,81.805 C407.436,81.584 407.405,81.35 407.481,81.103 C407.53,80.943 407.618,80.809 407.743,80.704 C407.87,80.599 408.021,80.536 408.2,80.515 C408.378,80.495 408.667,80.516 409.063,80.577 C409.761,80.686 410.3,80.723 410.679,80.688 L410.577,81.028 L410.577,81.028 Z M418.051,85.266 C418.369,85.901 418.926,86.339 419.725,86.583 C420.359,86.775 420.926,86.781 421.428,86.6 C421.93,86.415 422.34,86.067 422.662,85.555 L421.742,85.144 C421.482,85.492 421.206,85.718 420.912,85.824 C420.617,85.928 420.301,85.928 419.962,85.825 C419.507,85.686 419.176,85.411 418.969,84.998 C418.76,84.588 418.732,84.076 418.881,83.467 L422.949,84.71 C422.984,84.602 423.011,84.521 423.029,84.465 C423.303,83.566 423.287,82.796 422.976,82.157 C422.664,81.52 422.145,81.09 421.414,80.867 C420.661,80.637 419.971,80.702 419.344,81.064 C418.715,81.427 418.262,82.066 417.982,82.984 C417.711,83.871 417.734,84.632 418.051,85.266 L418.051,85.266 Z M419.992,81.729 C420.369,81.533 420.768,81.5 421.194,81.629 C421.664,81.773 421.99,82.067 422.174,82.514 C422.295,82.802 422.307,83.181 422.209,83.653 L419.162,82.721 C419.34,82.255 419.617,81.924 419.992,81.729 L419.992,81.729 Z M385.599,126.925 C385.734,126.731 385.9,126.598 386.098,126.526 C386.295,126.454 386.495,126.448 386.699,126.509 C386.926,126.577 387.131,126.714 387.316,126.915 L387.895,126.154 C387.635,125.857 387.348,125.662 387.037,125.566 C386.822,125.501 386.604,125.503 386.389,125.57 C386.17,125.638 385.898,125.834 385.568,126.154 L385.82,125.329 L384.988,125.075 L383.32,130.529 L384.246,130.812 L385.119,127.957 C385.234,127.566 385.395,127.223 385.599,126.925 L385.599,126.925 Z M421.287,114.667 C421.764,114.813 422.236,114.836 422.707,114.734 C423.178,114.635 423.578,114.418 423.913,114.08 C424.247,113.742 424.518,113.223 424.734,112.519 C425,111.652 424.969,110.902 424.643,110.265 C424.318,109.626 423.781,109.195 423.029,108.964 C422.354,108.758 421.721,108.785 421.129,109.046 C420.418,109.36 419.91,110.023 419.602,111.033 C419.321,111.954 419.34,112.731 419.662,113.365 C419.984,113.999 420.523,114.434 421.287,114.667 L421.287,114.667 Z M420.551,111.325 C420.765,110.627 421.076,110.15 421.489,109.898 C421.899,109.646 422.336,109.588 422.798,109.73 C423.254,109.87 423.582,110.161 423.781,110.601 C423.982,111.042 423.977,111.599 423.77,112.275 C423.551,112.991 423.24,113.476 422.828,113.732 C422.416,113.989 421.979,114.046 421.52,113.907 C421.058,113.765 420.727,113.474 420.53,113.034 C420.33,112.594 420.338,112.023 420.551,111.325 L420.551,111.325 Z M418.887,99.995 L419.813,100.277 L421.479,94.823 L420.555,94.54 L418.887,99.995 L418.887,99.995 Z M381.031,135.4 L375.836,142.046 L376.895,142.369 L378.418,140.342 L381.566,141.305 L381.748,143.854 L382.883,144.202 L382.105,135.729 L381.031,135.4 L381.031,135.4 Z M378.955,139.618 L380.457,137.662 C380.777,137.239 381.059,136.803 381.303,136.35 C381.294,136.791 381.314,137.368 381.361,138.075 L381.508,140.399 L378.955,139.618 L378.955,139.618 Z M397.645,79.319 C398.155,79.82 398.779,80.184 399.516,80.411 C400.066,80.578 400.629,80.642 401.209,80.604 C401.79,80.566 402.385,80.427 402.994,80.187 L403.848,77.393 L400.658,76.422 L400.387,77.306 L402.6,77.983 L402.172,79.385 C401.902,79.508 401.536,79.59 401.074,79.631 C400.613,79.671 400.166,79.625 399.734,79.493 C399.238,79.342 398.801,79.088 398.426,78.734 C398.051,78.379 397.818,77.941 397.725,77.419 C397.631,76.896 397.689,76.3 397.893,75.628 C398.059,75.084 398.309,74.607 398.646,74.2 C398.84,73.965 399.075,73.764 399.346,73.601 C399.619,73.437 399.945,73.336 400.32,73.299 C400.693,73.262 401.109,73.313 401.564,73.452 C401.945,73.567 402.269,73.74 402.541,73.967 C402.812,74.195 403,74.443 403.1,74.714 C403.201,74.985 403.248,75.327 403.246,75.746 L404.221,75.774 C404.246,75.227 404.181,74.758 404.029,74.367 C403.875,73.975 403.605,73.625 403.219,73.314 C402.832,73.002 402.366,72.764 401.823,72.598 C401.073,72.369 400.363,72.319 399.694,72.452 C399.024,72.585 398.438,72.922 397.938,73.464 C397.436,74.005 397.075,74.642 396.85,75.374 C396.624,76.114 396.575,76.831 396.7,77.524 C396.825,78.217 397.139,78.817 397.645,79.319 L397.645,79.319 Z M384.275,124.857 L383.213,124.533 L383.367,124.029 C383.467,123.701 383.594,123.495 383.746,123.411 C383.9,123.325 384.117,123.327 384.397,123.413 C384.568,123.465 384.744,123.537 384.924,123.63 L385.312,122.866 C385.014,122.708 384.736,122.59 384.476,122.512 C384.072,122.387 383.736,122.366 383.465,122.446 C383.194,122.526 382.98,122.674 382.818,122.885 C382.698,123.043 382.582,123.305 382.469,123.672 L382.291,124.252 L381.476,124.003 L381.255,124.723 L382.071,124.971 L380.623,129.706 L381.543,129.986 L382.99,125.252 L384.053,125.577 L384.275,124.857 L384.275,124.857 Z M385.592,117.234 C385.992,117.576 386.533,117.849 387.214,118.058 C387.752,118.222 388.266,118.271 388.756,118.204 C389.246,118.14 389.659,117.964 389.997,117.681 C390.335,117.396 390.564,117.054 390.687,116.654 C390.809,116.25 390.816,115.861 390.701,115.486 C390.588,115.113 390.342,114.757 389.965,114.423 C389.707,114.194 389.199,113.863 388.445,113.434 C387.691,113.005 387.246,112.67 387.107,112.438 C386.963,112.204 386.934,111.952 387.018,111.68 C387.113,111.368 387.332,111.145 387.674,111.008 C388.018,110.871 388.49,110.895 389.094,111.079 C389.672,111.256 390.073,111.511 390.294,111.845 C390.515,112.179 390.58,112.591 390.485,113.083 L391.463,113.303 C391.58,112.858 391.578,112.423 391.456,112.004 C391.334,111.584 391.086,111.22 390.715,110.909 C390.344,110.599 389.879,110.359 389.32,110.187 C388.813,110.034 388.326,109.976 387.861,110.021 C387.393,110.066 387.002,110.22 386.684,110.484 C386.369,110.751 386.151,111.072 386.035,111.453 C385.93,111.799 385.924,112.139 386.014,112.471 C386.106,112.805 386.301,113.119 386.604,113.418 C386.836,113.65 387.274,113.954 387.916,114.332 C388.557,114.71 388.965,114.969 389.143,115.107 C389.422,115.326 389.604,115.542 389.686,115.759 C389.769,115.978 389.774,116.205 389.703,116.443 C389.633,116.674 389.496,116.868 389.294,117.021 C389.092,117.174 388.826,117.263 388.502,117.288 C388.176,117.312 387.823,117.266 387.442,117.148 C387.014,117.017 386.651,116.827 386.354,116.573 C386.057,116.32 385.865,116.048 385.776,115.756 C385.686,115.466 385.678,115.124 385.75,114.735 L384.785,114.53 C384.643,115.037 384.643,115.531 384.785,116.009 C384.922,116.488 385.192,116.896 385.592,117.234 L385.592,117.234 Z M393.123,92.118 L394.57,87.383 L395.633,87.708 L395.853,86.988 L394.791,86.663 L394.944,86.16 C395.045,85.831 395.172,85.625 395.324,85.541 C395.478,85.456 395.695,85.457 395.973,85.543 C396.146,85.596 396.322,85.668 396.502,85.761 L396.888,84.997 C396.592,84.839 396.314,84.721 396.053,84.641 C395.65,84.518 395.314,84.495 395.043,84.577 C394.772,84.657 394.557,84.803 394.396,85.015 C394.275,85.174 394.16,85.436 394.047,85.803 L393.869,86.382 L393.053,86.133 L392.832,86.854 L393.648,87.102 L392.201,91.837 L393.123,92.118 L393.123,92.118 Z M389.555,104.909 C389.76,104.972 390.002,105.015 390.281,105.041 L390.395,104.184 C390.22,104.158 390.082,104.127 389.979,104.096 C389.842,104.054 389.744,103.999 389.682,103.934 C389.623,103.867 389.588,103.789 389.578,103.705 C389.568,103.619 389.602,103.444 389.684,103.181 L390.66,99.993 L391.59,100.277 L391.809,99.558 L390.879,99.273 L391.463,97.368 L390.373,97.642 L389.961,98.993 L389.283,98.786 L389.061,99.505 L389.74,99.713 L388.781,102.852 C388.611,103.408 388.538,103.782 388.559,103.977 C388.581,104.172 388.668,104.354 388.822,104.514 C388.975,104.675 389.219,104.809 389.555,104.909 L389.555,104.909 Z M389.555,104.909" class="Shape"/>
                </g>
                <g class="background">
                    <path d="M396.344,41.632 L398.01,37.997 L379.416,34.661 L380.47,31.51 L376.783,30.86 L383.183,11.729 L360.955,7.893 L374.358,10.256 L367.983,29.309 L362.545,28.35 L361.377,31.841 L342.932,28.589 L342.011,31.339 L360.457,34.591 L356.063,47.717 C352.068,49.295 348.87,52.202 347.64,55.877 C346.412,59.544 347.417,63.193 349.971,65.925 L345.032,80.691 L326.53,77.608 L325.099,81.882 L343.675,84.739 L343.123,86.391 L347.964,87.245 L341.693,105.986 L337.534,105.254 L337.366,105.777 L351.006,108.181 L357.451,88.916 L361.047,89.55 L363.293,82.834 L381.627,86.067 L382.547,83.317 L364.235,80.024 L367.797,69.375 C372.068,67.859 375.524,64.86 376.809,61.018 C378.095,57.175 376.921,53.354 374.084,50.584 L378.038,38.763 L396.344,41.632 L396.344,41.632 Z M321.926,115.9 L301.654,131.507 L274.961,109.956 L293.311,92.11 L291.088,90.651 L269.313,107.239 L234.911,100.895 L241.266,81.897 L180.851,72.221 L175.371,90.099 L146.316,85.007 L141.319,65.03 L109.496,74.155 L115.572,93.641 L96.576,99.364 L89.035,80.36 L84.398,81.536 L91.49,100.917 L57.726,110.955 L50.788,91.715 L44.356,93.461 L51.404,112.836 L55.609,123.429 L94.33,111.423 L101.838,132.685 L106.766,131.427 L99.517,109.812 L129.102,100.638 L140.912,118.46 L111.569,129.442 L113.987,133.033 L143.066,121.708 L158.673,145.24 L159.162,145.802 C159.455,146.183 159.737,146.638 159.982,147.116 C160.31,147.741 160.61,148.473 160.851,149.251 C161.716,151.995 161.994,158.517 160.726,166.949 C160.671,167.311 141.874,175.333 140.86,175.764 L142.608,179.059 C143.455,178.682 159.251,172.018 160.034,172.167 C160.113,172.592 160.231,173.186 160.539,174.243 C160.769,174.985 161.084,175.831 161.652,176.992 C163.534,180.745 167.459,185.262 175.617,186.701 C187.294,188.76 195.956,182.751 199.058,180.167 L210.81,190.566 L214.971,187.905 L201.845,177.23 C208.834,163.277 220.313,156.865 220.431,156.795 L245.83,142.164 L262.48,157.336 L266.946,154.671 L281.407,166.968 L302.105,148.537 L325.404,168.765 L304.777,186.695 L307.176,188.571 L328.056,170.212 L337.018,162.335 L356.659,145.068 L350.244,139.739 L321.926,115.9 L321.926,115.9 Z M214.167,150.801 L198.732,147.106 L203.083,132.485 L185.16,129.323 L180.299,143.764 L171.054,141.835 L155.847,119.925 L240.399,135.996 L214.167,150.801 L214.167,150.801 Z M214.167,150.801" class="walkway"/>
                    <path d="M146.076,82.438 L146.728,85.028 L178.266,90.557 L178.858,90.661 L179.319,89.285 L179.701,90.804 L190.839,92.761 L190.908,92.774 L191.686,90.446 L192.335,93.02 L195.355,93.552 C198.4,90.571 203.106,88.99 207.654,89.791 C212.029,90.562 215.133,93.348 216.099,96.814 L216.245,97.394 L221.172,98.301 L221.949,95.982 L222.599,98.566 L232.619,100.41 L233.376,100.551 L238.91,83.569 L238.561,82.19 L238.783,82.229 L238.852,82.022 L245.208,63.263 L244.556,60.673 L190.792,51.194 L184.442,70.173 L184.789,71.552 L184.631,71.524 L184.534,71.814 L184.151,70.295 L183.562,70.185 L141.077,62.462 L141.278,63.269 L146.076,82.438 L146.076,82.438 Z M225.191,86.268 L224.776,87.508 L224.429,86.133 L225.191,86.268 L225.191,86.268 Z M196.897,74.843 L196.485,76.072 L196.141,74.709 L196.897,74.843 L196.897,74.843 Z M195.649,78.6 L195.994,79.969 L195.236,79.835 L195.649,78.6 L195.649,78.6 Z M337.732,38.17 L345.18,15.905 L344.528,13.315 L321.325,9.224 L313.877,31.489 L314.529,34.079 L337.732,38.17 L337.732,38.17 Z M241.819,133.492 L242.715,133.65 L243.618,134.427 L245.127,133.573 L268.151,120.583 L267.499,117.992 L262.681,113.348 L261.312,114.462 L260.861,112.672 L230.938,107.338 L230.138,109.727 L229.487,107.141 L218.833,105.262 L218.082,107.505 L217.433,104.932 L212.326,104.018 C209.276,106.903 204.642,108.425 200.163,107.634 C195.671,106.843 192.505,103.93 191.633,100.33 L188.491,99.769 L187.816,101.787 L187.253,99.553 L187.058,99.518 L175.905,97.526 L175.461,98.852 L175.091,97.382 L149.533,92.823 L148.739,93.082 L153.833,113.456 L154.225,115.035 L153.504,115.21 L153.986,117.122 L153.866,117.101 L154.519,119.689 L171.207,143.118 L180.411,144.755 L185.571,129.333 L202.06,132.24 L197.677,145.337 L198.33,147.928 L214.577,150.813 L241.508,135.617 L240.856,133.026 L240.28,132.542 L241.362,131.663 L241.819,133.492 L241.819,133.492 Z M169.111,119.793 L169.34,119.109 L169.531,119.867 L169.111,119.793 L169.111,119.793 Z M181.282,121.939 L181.711,120.656 L182.069,122.078 L181.282,121.939 L181.282,121.939 Z M211.482,127.264 L212.012,125.676 L212.456,127.438 L211.482,127.264 L211.482,127.264 Z M223.562,129.395 L224.096,127.795 L224.542,129.566 L223.562,129.395 L223.562,129.395 Z M50.265,92.928 L56.348,111.49 L92.434,100.782 L91.783,98.191 L85.578,79.642 L85.287,78.773 L49.303,89.395 L49.955,91.987 L50.265,92.928 L50.265,92.928 Z M201.092,177.396 L200.87,177.202 L200.662,177.011 L200.526,176.893 L200.063,176.469 C200.041,176.491 199.625,176.918 198.816,177.6 C195.718,180.186 187.05,186.192 175.373,184.132 C167.222,182.695 163.29,178.177 161.409,174.424 C161.366,174.333 161.321,174.247 161.277,174.156 C160.914,173.404 160.645,172.7 160.426,172.048 C160.367,171.679 160.35,171.465 160.349,171.453 L159.697,168.861 L158.705,169.318 L145.434,175.433 L142.274,176.886 L142.082,176.976 L142.734,179.564 C147.351,190.707 155.874,199.777 170.778,202.404 C186.816,205.232 203.09,199.697 212.279,189.468 L211.626,186.878 L201.092,177.396 L201.092,177.396 Z M247.532,138.648 L220.193,154.228 C220.067,154.295 208.589,160.707 201.6,174.664 L201.571,174.818 L202.223,177.409 L214.705,187.806 L265.429,155.755 L264.778,153.164 L247.532,138.648 L247.532,138.648 Z M405.892,15.674 L405.24,13.084 L382.949,9.153 L376.549,28.284 L377.202,30.874 L379.452,31.271 L373.85,48.011 L374.502,50.601 C375.622,51.696 376.481,52.956 377.031,54.316 C377.175,55.656 377.036,57.048 376.569,58.443 C375.283,62.286 371.826,65.284 367.561,66.801 L363.832,77.948 L364.356,80.028 L363.204,79.825 L360.81,86.976 L357.207,86.341 L350.762,105.605 L351.414,108.195 L373.352,112.064 L382.19,85.647 L381.667,83.567 L382.673,83.745 L388.919,65.075 L392.808,65.76 L394.053,62.038 L393.4,59.448 L390.948,59.015 L405.892,15.674 L405.892,15.674 Z M146.899,93.693 L139.029,96.279 L139.681,98.87 L151.944,116.09 L152.812,117.305 L152.28,115.192 L147.551,96.286 L146.899,93.693 L146.899,93.693 Z M161.75,150.965 C161.533,150.102 161.315,149.238 161.097,148.375 C161.112,148.43 161.124,148.488 161.137,148.543 C160.97,147.857 160.789,147.24 160.614,146.682 C160.373,145.907 160.067,145.171 159.745,144.548 C159.494,144.067 159.211,143.611 158.918,143.233 L158.429,142.671 L142.903,119.248 L142.371,119.421 L141.975,117.858 L141.153,116.621 L128.858,98.069 L97.076,107.928 L97.728,110.52 L104.484,130.704 L104.917,132.008 L112.582,129.704 L113.091,131.725 L114.493,133.787 L141.428,176.76 L161.323,168.021 C163.117,159.137 162.57,154.217 161.75,150.965 L161.75,150.965 Z M390.248,167.605 L369.404,149.509 L358.856,140.351 L358.583,140.599 L356.416,142.498 L355.852,142.997 L355.496,141.576 L340.335,128.906 L340.121,129.08 L339.681,129.452 L339.414,128.395 L331.635,121.697 L332.369,121.063 L333.012,120.438 L337.169,107.662 L337.342,107.145 L337.475,106.725 L337.642,106.203 L337.783,105.79 L337.95,105.267 L342.109,105.999 L348.38,87.258 L347.727,84.668 L344.223,84.05 L343.748,82.165 L344.894,82.368 L350.391,65.938 L349.74,63.348 C348.8,62.345 348.072,61.218 347.585,60.013 C347.443,58.674 347.588,57.283 348.054,55.888 C349.283,52.215 352.482,49.306 356.487,47.73 L361.046,34.105 L360.522,32.026 L361.673,32.229 L362.967,28.362 L368.4,29.32 L374.774,10.267 L374.123,7.677 L350.245,3.467 L342.577,26.387 L343.1,28.466 L341.949,28.263 L334.964,49.143 L330.074,48.281 L328.731,52.295 L329.383,54.885 L332.837,55.494 L325.8,76.526 L326.323,78.598 L325.077,78.379 L318.082,99.289 L318.733,101.879 L329.105,103.708 L325.959,113.08 L325.582,113.413 L323.736,115.036 L323.412,115.319 L322.808,115.852 L322.298,113.831 L292.601,89.022 L292.035,89.481 L291.519,89.922 L291.063,88.113 L240.294,79.193 L240.103,79.763 L240.096,79.981 L234.157,98.223 L234.809,100.813 L271.074,107.491 L272.572,106.272 L273.202,108.772 L303.261,133.425 L303.989,132.796 L304.563,135.081 L306.407,136.641 L307.368,137.448 L307.712,137.74 L310.41,140.022 L310.737,139.751 L312.069,138.598 L312.679,141.028 L320.588,147.42 L320.677,147.345 L320.945,148.402 L335.603,160.808 L326.597,168.724 L326.136,166.89 L304.666,147.892 L298.83,142.921 L297.768,143.853 L297.176,141.505 L275.275,122.849 L251.033,136.661 L249.586,137.486 L250.239,140.077 L276.568,162.555 L277.585,161.68 L277.724,161.559 L278.352,164.052 L305.673,187.118 L305.303,187.443 L304.191,188.419 L304.842,191.009 L340.381,221.696 L394.762,173.542 L394.111,170.951 L390.248,167.605 L390.248,167.605 Z M126.623,70.206 L133.011,88.738 L144.794,85.241 L140.038,66.212 L139.385,63.622 L139.188,62.848 L125.704,66.829 L126.357,69.419 L126.623,70.206 L126.623,70.206 Z M121.523,91.854 L132.277,88.903 L135.371,88.038 L128.226,66.085 L114.583,70.084 L121.523,91.854 L121.523,91.854 Z M88.073,81.674 L94.282,100.233 L120.884,92.335 L120.232,89.745 L114.349,71.071 L114.097,70.261 L87.134,78.225 L87.787,80.815 L88.073,81.674 L88.073,81.674 Z M101.99,128.68 L95.235,108.496 L55.369,120.857 L55.015,120.968 L54.497,121.127 L51.361,110.203 L45.268,91.627 L44.949,90.646 L3.832,102.698 L4.485,105.289 L22.259,157.393 L62.4,144.565 L65.461,143.869 L103.073,132.563 L102.42,129.971 L101.99,128.68 L101.99,128.68 Z M101.99,128.68" class="wall"/>
                    <path d="M178.958,149.512 L169.698,147.879 L167.442,154.622 L168.094,157.209 L177.354,158.843 L179.61,152.1 L178.958,149.512 Z M178.958,149.512" class="wall"/>
                    <path d="M204.924,154.381 L195.664,152.747 L193.408,159.49 L194.061,162.077 L203.32,163.711 L205.576,156.968 L204.924,154.381 Z M204.924,154.381" class="wall"/>
                    <path d="M184.391,169.416 L175.131,167.783 L172.875,174.525 L173.526,177.113 L182.787,178.747 L185.042,172.004 L184.391,169.416 Z M184.391,169.416" class="wall"/>
                </g>
                <g class="ceilings">
                    <path class="unit" d="M142.642,118.916 L142.877,119.271 L146.707,125.04 L117.849,137.723 L114.21,131.867 L113.581,130.861 L112.186,128.803 L142.642,118.916 Z M142.642,118.916" id="2001"/>
                    <path class="unit" d="M196.312,106.088 C197.382,106.65 198.582,107.074 199.911,107.309 C200.196,107.36 200.485,107.397 200.777,107.428 L195.733,122.504 L191.093,121.686 L196.312,106.088 L196.312,106.088 Z M196.312,106.088" id="2002"/>
                    <path class="unit" d="M206.066,107.004 L200.593,123.359 L195.961,122.544 L201.011,107.45 C202.726,107.611 204.446,107.445 206.066,107.004 L206.066,107.004 Z M206.066,107.004" id="2003"/>
                    <path class="unit" d="M212.316,103.734 L205.462,124.217 L200.83,123.402 L206.341,106.929 C208.505,106.295 210.5,105.174 212.066,103.689 L212.316,103.734 L212.316,103.734 Z M212.316,103.734" id="2004"/>
                    <path class="unit" d="M349.096,136.281 L351.167,138.062 L355.056,141.408 L335.442,158.377 L335.352,158.45 L332.211,155.795 L329.182,153.229 L349.096,136.281 Z M349.096,136.281" id="2005"/>
                    <path class="unit" d="M94.929,108.35 L101.843,129.775 L95.889,131.568 L88.975,110.141 L94.929,108.35 Z M94.929,108.35" id="2006"/>
                    <path class="unit" d="M157.945,94.025 L159.72,94.357 L153.392,113.27 L151.82,106.718 L151.721,106.289 L150.15,99.734 L148.486,92.756 L149.279,92.497 L157.945,94.025 Z M157.945,94.025" id="2007"/>
                    <path class="unit" d="M146.646,93.364 L151.559,113.004 L151.9,114.383 L151.032,113.169 L138.777,95.949 L146.646,93.364 Z M146.646,93.364" id="2008"/>
                    <path class="unit" d="M128.52,97.747 L140.778,116.145 L141.414,117.086 L141.515,117.398 L132.085,120.443 L129.205,121.305 L121.915,99.791 L126.811,98.275 L127.271,98.132 L127.986,97.911 L128.52,97.747 Z M128.52,97.747" id="2009"/>
                    <path class="unit" d="M121.724,99.854 L129.058,121.479 L122.979,123.355 L115.645,101.732 L121.724,99.854 Z M121.724,99.854" id="2010"/>
                    <path class="unit" d="M115.456,101.79 L122.79,123.414 L116.718,125.295 L109.384,103.671 L115.456,101.79 Z M115.456,101.79" id="2011"/>
                    <path class="unit" d="M159.949,94.396 L163.494,95.029 L156.641,115.516 L153.803,115.014 L153.492,113.698 L159.949,94.396 Z M159.949,94.396" id="2012"/>
                    <path class="unit" d="M109.195,103.729 L116.522,125.352 L110.45,127.23 L103.116,105.607 L109.195,103.729 Z M109.195,103.729" id="2013"/>
                    <path class="unit" d="M102.926,105.67 L110.26,127.293 L104.19,129.168 L96.855,107.545 L102.926,105.67 Z M102.926,105.67" id="2014"/>
                    <path class="unit" d="M88.803,110.193 L95.716,131.622 L89.762,133.414 L82.849,111.986 L88.803,110.193 Z M88.803,110.193" id="2015"/>
                    <path class="unit" d="M163.731,95.07 L167.276,95.702 L160.426,116.176 L156.877,115.557 L163.731,95.07 Z M163.731,95.07" id="2016"/>
                    <path class="unit" d="M167.503,95.749 L171.055,96.381 L164.209,116.842 L160.656,116.216 L167.503,95.749 Z M167.503,95.749" id="2017"/>
                    <path class="unit" d="M171.285,96.422 L174.83,97.054 L168.567,115.771 L167.987,117.508 L164.439,116.883 L171.285,96.422 Z M171.285,96.422" id="2018"/>
                    <path class="unit" d="M181.215,98.18 L174.369,118.641 L168.805,117.66 L175.651,97.198 L181.215,98.18 Z M181.215,98.18" id="2019"/>
                    <path class="unit" d="M187.008,99.201 L180.163,119.662 L174.599,118.682 L181.444,98.221 L187.008,99.201 Z M187.008,99.201" id="2020"/>
                    <path class="unit" d="M188.231,99.441 L191.378,100.003 C191.562,100.756 191.856,101.482 192.232,102.165 C192.282,102.258 192.334,102.345 192.383,102.436 C193.237,103.867 194.507,105.092 196.103,105.979 L190.864,121.643 L186.232,120.827 L186.003,120.787 L181.364,119.97 L181.403,119.855 L181.978,118.136 L188.231,99.441 L188.231,99.441 Z M188.231,99.441" id="2021"/>
                    <path class="unit" d="M291.843,88.405 L300.246,95.414 L280.594,112.781 L272.068,105.814 L291.843,88.405 Z M291.843,88.405" id="2022"/>
                    <path class="unit" d="M221.975,105.533 L215.151,125.928 L211.757,125.329 L218.58,104.936 L221.975,105.533 Z M221.975,105.533" id="2023"/>
                    <path class="unit" d="M203.661,125.6 L202.344,129.534 L184.88,126.454 L186.196,122.52 L203.661,125.6 Z M203.661,125.6" id="2024"/>
                    <path class="unit" d="M146.808,125.199 L150.636,130.973 L150.745,131.134 L154.575,136.9 L125.33,149.748 L121.691,143.893 L121.59,143.732 L117.95,137.882 L146.808,125.199 Z M146.808,125.199" id="2025"/>
                    <path class="unit" d="M225.605,106.174 L218.782,126.568 L215.388,125.971 L222.211,105.575 L225.605,106.174 Z M225.605,106.174" id="2026"/>
                    <path class="unit" d="M176.649,120.982 L170.242,140.133 L162.17,128.795 L176.649,120.982 Z M176.649,120.982" id="2027"/>
                    <path class="unit" d="M229.235,106.812 L222.412,127.208 L219.011,126.607 L225.835,106.214 L229.235,106.812 Z M229.235,106.812" id="2028"/>
                    <path class="unit" d="M304.66,99.102 L308.829,102.585 L289.226,119.848 L285.009,116.402 L304.66,99.102 Z M304.66,99.102" id="2029"/>
                    <path class="unit" d="M230.68,107.011 L236.483,108.047 L229.646,128.482 L223.838,127.459 L224.451,125.626 L230.68,107.011 Z M230.68,107.011" id="2030"/>
                    <path class="unit" d="M185.967,122.479 L179.491,141.835 L170.453,140.229 L176.925,120.885 L185.967,122.479 Z M185.967,122.479" id="2031"/>
                    <path class="unit" d="M248.771,110.239 L254.577,111.27 L254.807,111.311 L260.61,112.346 L252.162,119.215 L251.827,119.49 L243.378,126.357 L248.771,110.239 Z M248.771,110.239" id="2032"/>
                    <path class="unit" d="M154.676,137.062 L158.176,142.339 L158.574,142.802 L129.072,155.757 L125.431,149.907 L154.676,137.062 Z M154.676,137.062" id="2033"/>
                    <path class="unit" d="M236.712,108.087 L242.51,109.122 L235.676,129.547 L229.874,128.523 L236.712,108.087 Z M236.712,108.087" id="2034"/>
                    <path class="unit" d="M242.746,109.164 L248.542,110.199 L243.043,126.634 L240.747,128.499 L238.784,130.096 L235.912,129.589 L242.746,109.164 Z M242.746,109.164" id="2035"/>
                    <path class="unit" d="M262.432,113.021 L267.243,117.663 L244.225,130.654 L242.716,131.509 L241.812,130.73 L240.915,130.573 L242.538,129.2 L262.432,113.021 Z M262.432,113.021" id="2036"/>
                    <path class="unit" d="M308.972,102.704 L289.364,119.961 L293.584,123.398 L313.141,106.188 L308.972,102.704 Z M308.972,102.704" id="2037"/>
                    <path class="unit" d="M239.723,131.957 L240.604,132.697 L237.969,134.182 L231.471,137.846 L225.848,129.512 L236.029,131.307 L238.721,131.781 L239.723,131.957 Z M239.723,131.957" id="2038"/>
                    <path class="unit" d="M211.861,127.045 L205.375,146.432 L197.404,145.025 L203.89,125.641 L211.861,127.045 Z M211.861,127.045" id="2039"/>
                    <path class="unit" d="M225.521,129.454 L231.26,137.969 L224.767,141.633 L218.844,132.854 L220.29,128.531 L225.521,129.454 Z M225.521,129.454" id="2040"/>
                    <path class="unit" d="M218.748,133.141 L224.559,141.751 L218.058,145.42 L213.845,147.796 L215.772,142.034 L218.748,133.141 Z M218.748,133.141" id="2041"/>
                    <path class="unit" d="M220.061,128.49 L213.574,147.877 L205.604,146.473 L212.09,127.086 L220.061,128.49 Z M220.061,128.49" id="2042"/>
                    <path class="unit" d="M313.34,106.354 L293.786,123.566 L298.004,127.009 L317.509,109.836 L313.34,106.354 Z M313.34,106.354" id="2043"/>
                    <path class="unit" d="M161.061,149.566 C161.328,151.478 161.447,153.898 161.256,156.931 L136.561,167.783 L132.915,161.929 L161.061,149.566 L161.061,149.566 Z M161.061,149.566" id="2044"/>
                    <path class="unit" d="M317.663,109.964 L298.229,127.15 L300.246,128.797 L319.636,111.611 L317.663,109.964 Z M317.663,109.964" id="2045"/>
                    <path class="unit" d="M275.016,122.52 L277.373,124.521 L255.873,142.6 L249.326,137.154 L250.773,136.33 L275.016,122.52 Z M275.016,122.52" id="2046"/>
                    <path class="unit" d="M161.244,157.143 C161.093,159.423 160.765,162.055 160.194,165.059 L140.299,173.798 L136.653,167.947 L161.244,157.143 L161.244,157.143 Z M161.244,157.143" id="2047"/>
                    <path class="unit" d="M277.48,124.618 L279.831,126.621 L258.306,144.725 L255.98,142.693 L277.48,124.618 Z M277.48,124.618" id="2048"/>
                    <path class="unit" d="M279.945,126.718 L282.295,128.721 L260.741,146.846 L258.416,144.814 L279.945,126.718 Z M279.945,126.718" id="2049"/>
                    <path class="unit" d="M341.201,103.082 L347.472,84.339 L342.631,83.486 L343.356,81.318 L324.812,78.049 L317.915,98.977 L341.201,103.082 Z M341.201,103.082" id="2050"/>
                    <path class="unit" d="M282.403,128.816 L284.76,130.82 L263.178,148.965 L260.852,146.936 L282.403,128.816 Z M282.403,128.816" id="2051"/>
                    <path class="unit" d="M284.868,130.916 L287.217,132.919 L265.633,151.07 L263.73,149.448 L263.285,149.062 L284.868,130.916 Z M284.868,130.916" id="2052"/>
                    <path class="unit" d="M287.327,133.009 L287.791,133.406 L289.662,135.034 L268.089,153.175 L265.74,151.166 L287.327,133.009 Z M287.327,133.009" id="2053"/>
                    <path class="unit" d="M247.28,138.318 L256.458,146.045 L264.501,152.846 L259.615,155.938 L242.201,141.216 L247.28,138.318 Z M247.28,138.318" id="2054"/>
                    <path class="unit" d="M241.982,141.339 L259.409,156.068 L254.524,159.154 L236.879,144.244 L241.982,141.339 Z M241.982,141.339" id="2055"/>
                    <path class="unit" d="M289.771,135.131 L292.098,137.154 L270.547,155.273 L268.198,153.266 L289.771,135.131 Z M289.771,135.131" id="2056"/>
                    <path class="unit" d="M331.252,121.259 L339.154,128.066 L319.67,144.499 L311.769,138.109 L331.016,121.462 L331.252,121.259 Z M331.252,121.259" id="2057"/>
                    <path class="unit" d="M236.67,144.361 L254.312,159.283 L249.427,162.371 L231.562,147.273 L236.67,144.361 Z M236.67,144.361" id="2058"/>
                    <path class="unit" d="M292.206,137.252 L294.524,139.279 L273.012,157.373 L270.656,155.363 L292.206,137.252 Z M292.206,137.252" id="2059"/>
                    <path class="unit" d="M231.346,147.396 L249.221,162.502 L244.336,165.588 L226.25,150.299 L231.346,147.396 Z M231.346,147.396" id="2060"/>
                    <path class="unit" d="M294.641,139.372 L296.807,141.266 L287.225,149.586 L275.469,159.473 L273.118,157.471 L294.641,139.372 Z M294.641,139.372" id="2061"/>
                    <path class="unit" d="M226.031,150.427 L244.13,165.719 L239.236,168.811 L220.926,153.333 L226.031,150.427 Z M226.031,150.427" id="2062"/>
                    <path class="unit" d="M340.074,128.576 L341.984,130.173 L342.74,130.82 L322.781,147.812 L322.645,147.691 L320.053,145.467 L339.867,128.752 L340.074,128.576 Z M340.074,128.576" id="2063"/>
                    <path class="unit" d="M220.715,153.457 L239.03,168.941 L234.144,172.027 L215.939,156.638 C218.293,154.816 219.888,153.92 219.933,153.896 L220.715,153.457 L220.715,153.457 Z M220.715,153.457" id="2064"/>
                    <path class="unit" d="M215.75,156.786 L233.94,172.159 L229.054,175.245 L211.559,160.458 C213.08,158.977 214.512,157.757 215.75,156.786 L215.75,156.786 Z M215.75,156.786" id="2065"/>
                    <path class="unit" d="M211.388,160.621 L228.843,175.375 L223.958,178.461 L207.658,164.684 C208.917,163.162 210.18,161.811 211.388,160.621 L211.388,160.621 Z M211.388,160.621" id="2066"/>
                    <path class="unit" d="M342.854,130.918 L344.612,132.424 L348.981,136.186 L329.066,153.132 L325.072,149.746 L322.891,147.902 L342.854,130.918 Z M342.854,130.918" id="2067"/>
                    <path class="unit" d="M207.507,164.868 L223.75,178.597 L218.865,181.683 L218.659,181.814 L213.795,184.886 L210.904,182.472 L201.339,174.388 C202.206,172.613 203.139,171.009 204.11,169.515 C204.146,169.451 204.192,169.38 204.235,169.318 C205.3,167.699 206.399,166.223 207.507,164.868 L207.507,164.868 Z M207.507,164.868" id="2068"/>
                    <path class="unit" d="M159.438,168.531 C159.44,168.545 159.458,168.804 159.538,169.267 C159.617,169.693 159.735,170.287 159.938,170.996 C159.976,171.104 160.008,171.227 160.043,171.343 C160.273,172.085 160.587,172.931 161.025,173.824 C161.06,173.913 161.113,174.001 161.156,174.092 C163.038,177.845 166.962,182.363 175.121,183.8 C186.799,185.861 195.46,179.851 198.562,177.267 C199.373,176.586 199.789,176.16 199.81,176.138 L200.274,176.56 L200.41,176.679 L200.618,176.87 L200.833,177.063 L211.374,186.546 C202.185,196.775 185.905,202.309 169.873,199.481 C154.968,196.854 146.439,187.783 141.829,176.643 L142.013,176.553 L145.18,175.1 L158.451,168.985 L159.438,168.531 L159.438,168.531 Z M159.438,168.531" id="2069"/>
                    <path class="unit" d="M298.678,142.495 L304.407,147.562 L325.871,166.559 L305.573,183.793 L304.932,184.342 L277.433,161.13 L278.419,160.275 L298.565,142.59 L298.678,142.495 Z M298.678,142.495" id="2070"/>
                    <path class="unit" d="M358.605,140.021 L369.152,149.18 L389.996,167.275 L393.85,170.618 L339.462,218.771 L303.93,188.087 L305.044,187.113 L305.807,186.438 L306.42,185.902 L307.205,185.206 L354.87,143.305 L356.163,142.17 L358.324,140.268 L358.605,140.021 Z M358.605,140.021" id="2071"/>
                    <path class="unit" d="M158.693,142.951 C158.973,143.322 159.248,143.757 159.485,144.217 C159.814,144.84 160.113,145.574 160.355,146.35 C160.612,147.167 160.851,148.167 161.036,149.376 L132.818,161.773 L129.172,155.917 L158.693,142.951 L158.693,142.951 Z M158.693,142.951" id="2072"/>
                    <path class="unit" d="M176.529,120.814 L162.042,128.625 L153.605,116.771 L176.529,120.814 Z M176.529,120.814" id="2073"/>
                    <path class="unit" d="M191.767,72.496 L186.183,89.186 L182.601,88.554 L188.186,71.864 L191.767,72.496 Z M191.767,72.496" id="2074"/>
                    <path class="unit" d="M195.578,73.168 L189.994,89.857 L186.419,89.229 L192.003,72.537 L195.578,73.168 Z M195.578,73.168" id="2075"/>
                    <path class="unit" d="M208.503,81.889 L206.832,86.886 L206.749,86.871 C202.193,86.068 197.496,87.65 194.443,90.63 L191.431,90.1 L194.975,79.504 L208.503,81.889 L208.503,81.889 Z M208.503,81.889" id="2076"/>
                    <path class="unit" d="M290.807,87.785 L290.159,88.309 L272.593,102.598 L272.258,102.872 L270.164,104.573 L259.111,102.54 L265.531,83.348 L278.056,85.543 L278.285,85.584 L290.807,87.785 Z M290.807,87.785" id="2077"/>
                    <path class="unit" d="M265.303,83.308 L258.883,102.493 L246.401,100.195 L252.788,81.107 L265.303,83.308 Z M265.303,83.308" id="2078"/>
                    <path class="unit" d="M234.464,80.024 L228.791,96.98 L225.341,96.373 L231.015,79.416 L234.464,80.024 Z M234.464,80.024" id="2079"/>
                    <path class="unit" d="M238.144,80.673 L232.47,97.631 L229.02,97.021 L234.694,80.065 L238.144,80.673 Z M238.144,80.673" id="2080"/>
                    <path class="unit" d="M240.037,78.866 L239.846,79.436 L239.833,79.653 L233.892,97.895 L239.6,98.945 L245.762,79.872 L240.037,78.866 Z M240.037,78.866" id="2081"/>
                    <path class="unit" d="M230.785,79.375 L225.112,96.334 L221.662,95.727 L227.336,78.767 L230.785,79.375 Z M230.785,79.375" id="2082"/>
                    <path class="unit" d="M223.867,84.599 L220.26,95.381 L215.334,94.475 C214.587,90.827 211.511,87.828 207.059,86.932 L208.734,81.931 L223.867,84.599 L223.867,84.599 Z M223.867,84.599" id="2083"/>
                    <path class="unit" d="M187.956,71.823 L182.372,88.514 L178.79,87.882 L184.374,71.192 L187.956,71.823 Z M187.956,71.823" id="2084"/>
                    <path class="unit" d="M167.891,67.051 L173.069,67.996 L167.101,85.834 L161.91,84.925 L167.891,67.051 Z M167.891,67.051" id="2085"/>
                    <path class="unit" d="M173.299,68.037 L178.486,68.978 L172.528,86.784 L167.331,85.875 L173.299,68.037 Z M173.299,68.037" id="2086"/>
                    <path class="unit" d="M178.715,69.018 L183.312,69.854 L183.894,69.962 L183.663,70.655 L177.946,87.739 L177.362,87.637 L172.757,86.825 L178.715,69.018 Z M178.715,69.018" id="2087"/>
                    <path class="unit" d="M244.298,60.341 L237.94,79.101 L237.871,79.307 L226.318,77.27 L224.285,83.347 L195.394,78.253 L197.428,72.175 L185.27,70.032 L184.185,69.84 L190.542,50.862 L244.298,60.341 Z M244.298,60.341" id="2088"/>
                    <path class="unit" d="M212.546,103.773 L217.174,104.604 L210.938,123.243 L210.377,124.918 L210.324,125.077 L205.692,124.26 L212.546,103.773 Z M212.546,103.773" id="2089"/>
                    <path class="unit" d="M82.669,112.038 L89.583,133.466 L83.628,135.258 L76.715,113.83 L82.669,112.038 Z M82.669,112.038" id="2090"/>
                    <path class="unit" d="M76.536,113.882 L83.447,135.314 L77.493,137.107 L70.579,115.682 L76.536,113.882 Z M76.536,113.882" id="2091"/>
                    <path class="unit" d="M70.407,115.732 L77.32,137.161 L71.366,138.953 L64.453,117.525 L70.407,115.732 Z M70.407,115.732" id="2092"/>
                    <path class="unit" d="M162.476,66.064 L167.654,67.009 L161.674,84.884 L156.483,83.975 L162.476,66.064 Z M162.476,66.064" id="2094"/>
                    <path class="unit" d="M145.735,63.022 L156.832,65.036 L150.827,82.984 L145.817,82.106 L145.738,81.771 L145.582,81.159 L144.88,78.348 L141.028,62.938 L140.819,62.13 L145.735,63.022 Z M145.735,63.022" id="2095"/>
                    <path class="unit" d="M143.883,82.319 L139.127,63.291 L138.929,62.516 L135.696,63.472 L140.923,83.198 L143.883,82.319 Z M143.883,82.319" id="2096"/>
                    <path class="unit" d="M113.736,69.86 L120.007,89.245 L111.233,91.891 L104.97,72.506 L113.736,69.86 Z M113.736,69.86" id="2097"/>
                    <path class="unit" d="M104.79,72.559 L111.054,91.941 L102.288,94.589 L96.024,75.204 L104.79,72.559 Z M104.79,72.559" id="2098"/>
                    <path class="unit" d="M95.844,75.256 L102.108,94.641 L93.342,97.286 L87.078,77.902 L95.844,75.256 Z M95.844,75.256" id="2099"/>
                    <path class="unit" d="M85.066,78.281 L91.41,97.802 L86.441,99.311 L80.092,79.783 L85.066,78.281 Z M85.066,78.281" id="2100"/>
                    <path class="unit" d="M79.902,79.846 L86.246,99.366 L81.278,100.876 L74.929,81.348 L79.902,79.846 Z M79.902,79.846" id="2101"/>
                    <path class="unit" d="M74.738,81.411 L81.082,100.932 L76.113,102.439 L69.765,82.913 L74.738,81.411 Z M74.738,81.411" id="2102"/>
                    <path class="unit" d="M65.918,105.42 L59.603,85.995 L49.11,89.173 L55.453,108.691 L65.918,105.42 Z M65.918,105.42" id="2103_1_"/>
                    <path class="unit" d="M44.698,90.316 L45.018,91.299 L51.104,109.874 L54.246,120.799 L64.453,117.525 L71.352,138.909 L21.355,154.471 L3.581,102.369 L44.698,90.316 Z M44.698,90.316" id="2105"/>
                    <path class="unit" d="M157.059,65.083 L162.247,66.023 L156.254,83.935 L151.057,83.024 L157.059,65.083 Z M157.059,65.083" id="2106"/>
                    <path class="unit" d="M140.684,83.269 L135.457,63.542 L125.051,66.549 L131.013,85.999 L140.684,83.269 Z M140.684,83.269" id="2107_1_"/>
                    <path class="unit" d="M357.427,39.261 L355.572,44.81 C354.325,45.304 353.151,45.926 352.094,46.66 L336.348,43.884 L338.984,36.009 L357.427,39.261 L357.427,39.261 Z M357.427,39.261" id="2108"/>
                    <path class="unit" d="M344.277,12.985 L336.828,35.25 L313.619,31.157 L321.067,8.893 L344.277,12.985 Z M344.277,12.985" id="2109"/>
                    <path class="unit" d="M373.863,7.349 L349.979,3.138 L342.312,26.058 L360.757,29.31 L362.051,25.442 L367.489,26.401 L373.863,7.349 Z M373.863,7.349" id="2110_1_"/>
                    <path class="unit" d="M360.129,31.186 L357.494,39.061 L339.049,35.809 L341.684,27.933 L360.129,31.186 Z M360.129,31.186" id="2111"/>
                    <path class="unit" d="M393.149,59.12 L391.903,62.841 L390.157,62.534 L389.087,62.345 L388.009,62.155 L389.254,58.433 L390.332,58.623 L391.403,58.812 L393.149,59.12 Z M393.149,59.12" id="2112"/>
                    <path class="unit" d="M393.642,46.156 L375.186,42.936 L373.592,47.679 C376.429,50.449 377.604,54.269 376.318,58.113 C376.028,58.981 375.619,59.809 375.115,60.588 L387.787,62.822 L388.011,62.155 L389.256,58.433 L393.642,46.156 L393.642,46.156 Z M393.642,46.156" id="2113_1_"/>
                    <path class="unit" d="M404.987,12.753 L397.178,36.092 L396.754,36.017 L378.566,32.81 L379.975,28.603 L376.287,27.953 L382.688,8.822 L404.562,12.679 L404.987,12.753 Z M404.987,12.753" id="2114"/>
                    <path class="unit" d="M381.281,82.727 L372.442,109.143 L372.297,109.117 L350.513,105.275 L356.958,86.012 L360.555,86.646 L362.947,79.494 L381.135,82.701 L381.281,82.727 Z M381.281,82.727" id="2115"/>
                    <path class="unit" d="M351.857,46.837 C349.651,48.435 347.962,50.529 347.146,52.969 C347,53.407 346.882,53.843 346.802,54.284 L333.642,51.964 L334.698,48.813 L336.278,44.089 L351.857,46.837 L351.857,46.837 Z M351.857,46.837" id="2116"/>
                    <path class="unit" d="M349.32,63.492 L346.686,71.367 L328.24,68.114 L330.875,60.24 L349.32,63.492 Z M349.32,63.492" id="2117"/>
                    <path class="unit" d="M334.698,48.813 L333.644,51.964 L333.576,52.165 L333.355,52.827 L332.284,52.638 L331.213,52.449 L328.473,51.966 L328.694,51.304 L328.762,51.104 L329.816,47.953 L332.557,48.436 L333.627,48.625 L334.698,48.813 Z M334.698,48.813" id="2118"/>
                    <path class="unit" d="M346.771,54.492 C346.228,57.63 347.278,60.663 349.478,63.019 L349.387,63.292 L330.942,60.04 L333.356,52.827 L333.577,52.165 L346.771,54.492 L346.771,54.492 Z M346.771,54.492" id="2119"/>
                    <path class="unit" d="M346.616,71.573 L343.982,79.448 L343.767,79.41 L325.537,76.196 L328.172,68.321 L346.616,71.573 Z M346.616,71.573" id="2120"/>
                    <path class="unit" d="M387.719,63.023 L381.763,80.824 L363.575,77.617 L367.304,66.47 C370.53,65.328 373.281,63.338 374.991,60.779 L387.719,63.023 L387.719,63.023 Z M387.719,63.023" id="2121"/>
                    <path class="unit" d="M178.958,149.51 L176.702,156.253 L167.442,154.62 L169.698,147.877 L178.958,149.51 Z M178.958,149.51" id="2123"/>
                    <path class="unit" d="M204.924,154.23 L202.668,160.975 L193.408,159.342 L195.665,152.6 L204.924,154.23 Z M204.924,154.23" id="2124"/>
                    <path class="unit" d="M329.453,101.562 L329.314,101.977 L329.141,102.498 L329,102.917 L328.827,103.434 L325.702,112.751 L325.319,113.083 L323.479,114.707 L323.156,114.991 L303.968,131.88 L303.645,132.163 L305.494,133.725 L306.448,134.527 L306.791,134.82 L309.489,137.104 L309.81,136.831 L313.095,133.991 L329.271,120.029 L329.559,119.784 L330.367,119.085 L331.455,118.145 L332.099,117.52 L336.262,104.745 L336.428,104.227 L336.568,103.809 L336.736,103.285 L336.875,102.872 L336.878,102.863 L329.456,101.557 L329.453,101.562 Z M329.453,101.562" id="2125"/>
                    <path class="unit" d="M252.552,81.065 L246.011,79.916 L239.848,98.991 L246.165,100.154 L252.552,81.065 Z M252.552,81.065" id="2126"/>
                    <path class="unit" d="M114.354,69.64 L120.612,88.934 L130.771,86.066 L124.811,66.619 L114.354,69.64 Z M114.354,69.64" id="2127"/>
                    <path class="unit" d="M300.391,95.535 L300.311,95.602 L280.657,112.91 L284.877,116.348 L304.574,99.03 L300.391,95.535 Z M300.391,95.535" id="2128"/>
                    <path class="unit" d="M319.771,111.727 L300.361,128.893 L302.343,130.507 L303.338,129.646 L313.012,121.297 L321.879,113.486 L319.771,111.727 Z M319.771,111.727" id="2129"/>
                    <path class="unit" d="M70.926,103.941 L64.612,84.522 L59.749,85.995 L66.062,105.42 L70.926,103.941 Z M70.926,103.941" id="2130"/>
                    <path class="unit" d="M71.032,103.91 L75.915,102.496 L69.584,83.017 L64.721,84.49 L71.032,103.91 Z M71.032,103.91" id="2131"/>
                    <path class="unit" d="M393.642,45.984 L394.988,42.165 L376.486,39.059 L375.241,42.768 L393.642,45.984 Z M393.642,45.984" id="2132_1_"/>
                    <path class="unit" d="M397.062,36.281 L378.5,33.062 L376.537,38.908 L395.055,41.977 L397.062,36.281 Z M397.062,36.281" id="2133"/>
                    <path class="unit" d="M184.391,169.415 L182.135,176.158 L172.875,174.525 L175.131,167.783 L184.391,169.415 Z M184.391,169.415" id="2134"/>
        </g>
    </g>
</svg>