<?xml version="1.0" encoding="utf-8"?>
<!DOCTYPE svg PUBLIC "-//W3C//DTD SVG 1.1//EN" "http://www.w3.org/Graphics/SVG/1.1/DTD/svg11.dtd">
<svg version="1.1" xmlns="http://www.w3.org/2000/svg" xmlns:xlink="http://www.w3.org/1999/xlink" xml:space="preserve">
<g class="level" id="level0">
        <g class="outline">
            <path d="M4.5,40.1 L4.9,41.3 L6,41.5 L17.5,43.5 L19.2,43.8 L19.7,42.2 L23,32.5 L23.2,31.9 L23.1,31.3 L22.4,28.6 L22.1,27.3 L20.8,27.1 L8.8,25.2 L7.1,24.9 L6.5,26.5 L3.4,35.6 L3.2,36.2 L3.4,36.8 L4.5,40.1 L4.5,40.1 Z M113.9,156.7 L113.5,155.1 L111.9,154.8 L87.2,150.2 L93.6,131.7 L93.8,131 L93.6,130.3 L92.9,127.6 L92.5,126 L90.9,125.7 L60.4,120 L58.3,119.6 L57.6,121.6 L48.5,146.1 L48.1,147.2 L48.7,148.2 L50.4,151.2 L51,152.3 L52.2,152.5 L81.3,157.8 L80.3,160.7 L80.1,161.4 L80.3,162.1 L81.3,165.9 L81.7,167.5 L83.3,167.8 L108.5,172.2 L110.7,172.6 L111.4,170.5 L114.7,160.8 L114.9,160.1 L114.7,159.4 L113.9,156.7 L113.9,156.7 Z M408.7,136.5 L408,133.8 L407.8,133 L407.1,132.5 L397.3,124.5 L397.9,124 L397.5,122.5 L396.8,119.8 L396.6,119 L395.9,118.5 L393.3,116.4 L391.5,115 L389.9,116.7 L389.2,117.5 L366.3,98 L364.6,96.6 L363,98 L361.2,99.5 L298.6,46.4 L298.4,46.3 L298.2,46.2 L296.4,45.1 L296,44.9 L295.5,44.8 L248.7,36.6 L252.2,26.1 L252.5,25.2 L252.1,24.3 L250.8,21.2 L250.3,19.9 L248.9,19.7 L194.6,10.1 L192.4,9.7 L191.7,11.8 L187.2,26 L145.7,18.5 L145.3,18.4 L144.9,18.5 L143.3,18.7 L143.1,18.7 L142.9,18.7 L3.7,58.6 L1.1,59.3 L2,61.9 L21.5,117 L22.3,119.3 L24.6,118.6 L115.1,90.5 C126.5,108.8 142.3,134.3 146.8,141.9 L144.9,142.8 L144.5,143 L144.4,143.1 C142.4,144.3 141.5,146.2 141.9,148.1 C142.1,148.8 144.4,153.2 149.5,157.9 C154.2,162.2 162.6,167.7 175.6,170 C176,170.1 176.4,170.1 176.9,170.2 C177.7,170.3 180,170.7 183.4,170.7 C185.3,170.7 187.2,170.6 189.2,170.4 C196.1,169.7 206.8,167.4 219.2,160.3 L219.2,160.3 C220,159.9 220.9,159 221.3,157.8 C221.7,156.6 221.5,155.3 220.7,154.2 L220.7,154.2 C220.6,154.1 220.2,153.6 219.6,153 L220.5,152.1 L220.7,151.9 L274.2,116.5 L283,124 L283.2,124.6 L283.9,127.4 L284.1,128.1 L284.6,128.6 L286.8,130.7 L288.5,132.3 L290.3,130.7 L290.5,130.5 L311.3,148.4 L310.8,148.9 L311.3,150.5 L312.3,153.8 L312.5,154.6 L313.2,155.1 L352.9,185.9 L354.6,187.2 L356.2,185.8 L408.2,139.2 L409.3,138.2 L408.7,136.5 L408.7,136.5 Z M183.4,168.1 L183.4,168.1 L183.7,168.1 L183.4,168.1 L183.4,168.1 Z M144.4,153.3 L143.9,152 L142.5,151.8 L124.1,148.6 L121.9,148.2 L121.2,150.3 L117.6,161.1 L117.4,161.8 L117.6,162.5 L118.6,166.1 L119,167.7 L120.6,168 L139,171.2 L141.2,171.6 L141.9,169.4 L145.5,157.3 L145.8,156.4 L145.4,155.5 L144.4,153.3 L144.4,153.3 Z M144.4,153.3" class="outline"/>
        </g>
        <g class="label">
            <path d="M25.7,0.5 C22.8,0.5 21,2.8 21,6.4 C21,9.8 22.8,11.9 25.7,11.9 C28.6,11.9 30.4,9.5 30.4,5.9 C30.3,2.6 28.5,0.5 25.7,0.5 L25.7,0.5 L25.7,0.5 Z M25.7,10.8 C23.6,10.8 22.3,9.1 22.3,6.5 C22.3,3.5 23.5,1.7 25.7,1.7 C27.9,1.7 29.1,3.4 29.1,5.9 C29,8.9 27.8,10.8 25.7,10.8 L25.7,10.8 L25.7,10.8 Z M9.4,5.6 L6.4,5.6 C6,5.6 5.7,5.9 5.7,6.2 C5.7,6.5 5.9,6.8 6.3,6.8 L8.8,6.8 L8.8,10.4 C8.2,10.6 7.6,10.8 6.6,10.8 C4.5,10.8 3,9.3 3,6.4 C3,3.2 4.5,1.8 6.7,1.8 C7.5,1.8 8.1,1.9 8.8,2.2 C9,2.2 9.2,2.3 9.4,2.3 C9.7,2.3 10,2.1 10,1.7 C10,1.4 9.9,1.3 9.6,1.1 C8.9,0.8 7.9,0.5 6.8,0.5 C4,0.5 1.7,2.5 1.7,6.4 C1.7,9.9 3.7,11.9 6.6,11.9 C7.9,11.9 8.8,11.6 9.4,11.3 C9.7,11.2 9.9,10.9 9.9,10.5 L9.9,6.3 C10.1,5.9 9.8,5.6 9.4,5.6 L9.4,5.6 L9.4,5.6 Z M18,7.7 C17.7,7.3 17.4,7 17,6.7 C18.4,6.2 19.4,5.2 19.4,3.7 C19.4,1.8 18.1,0.5 15.2,0.5 C14.1,0.5 13.3,0.6 12.8,0.8 C12.4,0.9 12.3,1.2 12.3,1.6 L12.3,11.3 C12.3,11.7 12.6,11.9 12.9,11.9 C13.3,11.9 13.5,11.7 13.5,11.3 L13.5,7.1 L14.7,7.1 C15.9,7.1 16.3,7.6 16.9,8.5 C17.3,9.1 17.7,10.1 18.2,11.5 C18.3,11.8 18.5,11.9 18.8,11.9 C19.1,11.9 19.4,11.7 19.4,11.3 C19.4,11.2 19.4,11 19.3,10.9 C19,9.7 18.5,8.5 18,7.7 L18,7.7 L18,7.7 Z M15,5.9 L13.6,5.9 L13.6,1.9 C14,1.8 14.5,1.8 15.2,1.8 C17.5,1.8 18.2,2.7 18.2,3.9 C18.1,5.4 16.6,5.9 15,5.9 L15,5.9 L15,5.9 Z M39.7,0.6 C39.3,0.6 39.1,0.9 39.1,1.3 L39.1,10 C38.3,10.5 37.1,10.8 36.4,10.8 C34.5,10.8 33.4,9.9 33.4,7.8 L33.4,1.2 C33.4,0.8 33.1,0.5 32.8,0.5 C32.5,0.5 32.2,0.8 32.2,1.2 L32.2,8 C32.2,10.3 33.7,11.9 36.2,11.9 C38,11.9 39,11.4 40,10.9 C40.4,10.7 40.4,10.4 40.4,10 L40.4,1.2 C40.3,0.8 40.1,0.6 39.7,0.6 L39.7,0.6 L39.7,0.6 Z M110.3,10.8 C109.9,9.6 109.4,8.4 108.9,7.7 C108.6,7.3 108.3,7 107.9,6.7 C109.3,6.2 110.3,5.2 110.3,3.7 C110.3,1.8 109,0.5 106.1,0.5 C105,0.5 104.2,0.6 103.7,0.8 C103.3,0.9 103.2,1.2 103.2,1.6 L103.2,11.3 C103.2,11.7 103.5,11.9 103.8,11.9 C104.2,11.9 104.4,11.7 104.4,11.3 L104.4,7.1 L105.6,7.1 C106.8,7.1 107.2,7.6 107.8,8.5 C108.2,9.1 108.6,10.1 109.1,11.5 C109.2,11.8 109.4,11.9 109.7,11.9 C110,11.9 110.3,11.7 110.3,11.3 C110.4,11.2 110.3,11 110.3,10.8 L110.3,10.8 L110.3,10.8 Z M105.8,5.9 L104.4,5.9 L104.4,1.9 C104.8,1.8 105.3,1.8 106,1.8 C108.3,1.8 109,2.7 109,3.9 C108.9,5.4 107.4,5.9 105.8,5.9 L105.8,5.9 L105.8,5.9 Z M80.2,10.7 L75.9,10.7 L75.9,1.2 C75.9,0.8 75.6,0.5 75.3,0.5 C74.9,0.5 74.7,0.8 74.7,1.2 L74.7,10.8 C74.7,11.4 75.1,11.8 75.8,11.8 L80.3,11.8 C80.7,11.8 81,11.5 81,11.2 C80.8,10.9 80.6,10.7 80.2,10.7 L80.2,10.7 L80.2,10.7 Z M85.9,0.5 C83,0.5 81.2,2.8 81.2,6.4 C81.2,9.8 83,11.9 85.9,11.9 C88.8,11.9 90.6,9.5 90.6,5.9 C90.6,2.6 88.8,0.5 85.9,0.5 L85.9,0.5 L85.9,0.5 Z M85.9,10.8 C83.8,10.8 82.5,9.1 82.5,6.5 C82.5,3.5 83.7,1.7 85.9,1.7 C88.1,1.7 89.3,3.4 89.3,5.9 C89.3,8.9 88,10.8 85.9,10.8 L85.9,10.8 L85.9,10.8 Z M96.6,0.5 C93.7,0.5 91.9,2.8 91.9,6.4 C91.9,9.8 93.7,11.9 96.6,11.9 C99.5,11.9 101.3,9.5 101.3,5.9 C101.3,2.6 99.5,0.5 96.6,0.5 L96.6,0.5 L96.6,0.5 Z M96.6,10.8 C94.5,10.8 93.2,9.1 93.2,6.5 C93.2,3.5 94.4,1.7 96.6,1.7 C98.8,1.7 100,3.4 100,5.9 C100,8.9 98.7,10.8 96.6,10.8 L96.6,10.8 L96.6,10.8 Z M50.4,0.6 C50,0.6 49.8,0.9 49.8,1.3 L49.8,9.9 L44.2,1.2 C44,0.9 43.7,0.7 43.4,0.7 C42.9,0.7 42.6,1 42.6,1.6 L42.6,11.4 C42.6,11.8 42.9,12 43.2,12 C43.6,12 43.8,11.8 43.8,11.4 L43.8,2.6 L49.3,11.4 C49.5,11.7 49.8,11.9 50.1,11.9 C50.6,11.9 50.9,11.5 50.9,11.1 L50.9,1.2 C51,0.8 50.8,0.6 50.4,0.6 L50.4,0.6 L50.4,0.6 Z M72.4,0.6 L67.7,0.6 C67,0.6 66.6,1 66.6,1.6 L66.6,11.3 C66.6,11.7 66.9,11.9 67.2,11.9 C67.6,11.9 67.8,11.7 67.8,11.3 L67.8,7 L71.7,7 C72.1,7 72.3,6.7 72.3,6.4 C72.3,6.1 72.1,5.8 71.7,5.8 L67.8,5.8 L67.8,1.9 L72.3,1.9 C72.7,1.9 73,1.6 73,1.3 C73.1,1 72.9,0.6 72.4,0.6 L72.4,0.6 L72.4,0.6 Z M56.1,0.5 C55.5,0.5 54.5,0.5 53.9,0.7 C53.5,0.8 53.3,1.1 53.3,1.5 L53.3,11 C53.3,11.4 53.4,11.7 54,11.8 C54.5,11.9 55.2,12 56.2,12 C59.7,12 61.3,9.5 61.3,6.3 C61.3,2.9 59.8,0.5 56.1,0.5 L56.1,0.5 L56.1,0.5 Z M56.3,10.8 C55.6,10.8 55.1,10.8 54.6,10.7 L54.6,1.8 C55.1,1.7 55.7,1.7 56.2,1.7 C59.1,1.7 60.2,3.6 60.2,6.1 C60.1,8.9 59,10.8 56.3,10.8 L56.3,10.8 L56.3,10.8 Z M56.3,10.8" class="Shape"/>
            <path d="M275.5,199.2 C275.9,199.3 276.2,199.3 276.6,199.2 C277,199.1 277.3,199 277.7,198.7 C277.7,199 277.7,199.2 277.8,199.4 L278.8,199.6 C278.7,199.4 278.7,199.1 278.7,198.9 C278.7,198.7 278.8,198.1 278.9,197.2 L279.1,195.9 C279.2,195.5 279.2,195.2 279.2,195 C279.2,194.7 279.1,194.5 279,194.3 C278.9,194.1 278.7,193.9 278.4,193.8 C278.1,193.6 277.7,193.5 277.3,193.4 C276.8,193.3 276.4,193.3 276,193.4 C275.6,193.5 275.3,193.6 275.1,193.8 C274.9,194 274.7,194.3 274.5,194.7 L275.4,195 C275.6,194.6 275.8,194.4 276,194.2 C276.2,194.1 276.6,194.1 277,194.1 C277.5,194.2 277.8,194.4 278,194.6 C278.2,194.8 278.2,195.1 278.1,195.5 L278.1,195.7 C277.7,195.8 277.1,195.8 276.3,195.7 L275.4,195.7 C275.1,195.7 274.9,195.8 274.7,195.9 C274.5,196 274.3,196.2 274.1,196.4 C273.9,196.6 273.8,196.8 273.8,197.1 C273.7,197.6 273.8,198 274.1,198.3 C274.4,198.9 274.9,199.1 275.5,199.2 L275.5,199.2 L275.5,199.2 Z M275.1,197 C275.2,196.9 275.4,196.8 275.5,196.8 C275.7,196.8 276,196.7 276.4,196.8 C277.1,196.8 277.6,196.8 278,196.7 L277.9,197.1 C277.8,197.5 277.7,197.8 277.6,198 C277.4,198.3 277.2,198.4 276.9,198.5 C276.6,198.6 276.2,198.6 275.9,198.6 C275.5,198.5 275.3,198.4 275.1,198.2 C274.9,198 274.9,197.8 274.9,197.5 C274.9,197.3 275,197.1 275.1,197 L275.1,197 L275.1,197 Z M166.6,179 C166.5,178.9 166.5,178.9 166.5,178.8 L166.5,178.3 L167.1,175 L168.1,175.2 L168.2,174.5 L167.2,174.3 L167.5,172.3 L166.5,172.7 L166.3,174.1 L165.6,174 L165.5,174.7 L166.2,174.8 L165.6,178 C165.5,178.6 165.5,179 165.5,179.1 C165.5,179.3 165.7,179.5 165.8,179.6 C166,179.7 166.2,179.8 166.6,179.9 C166.8,179.9 167.1,180 167.3,179.9 L167.3,179 L166.9,179 C166.8,179.1 166.7,179.1 166.6,179 L166.6,179 L166.6,179 Z M166.1,187.5 C165.8,187.3 165.4,187.2 165,187.1 C164.5,187 164.1,187 163.7,187.1 C163.3,187.2 163,187.3 162.8,187.5 C162.6,187.7 162.4,188 162.2,188.4 L163.1,188.7 C163.3,188.3 163.5,188.1 163.7,187.9 C163.9,187.8 164.3,187.8 164.7,187.8 C165.2,187.9 165.5,188.1 165.7,188.3 C165.9,188.5 165.9,188.8 165.8,189.2 L165.8,189.4 C165.4,189.5 164.8,189.5 164,189.4 L163.1,189.4 C162.8,189.4 162.6,189.5 162.4,189.6 C162.2,189.7 162,189.9 161.8,190.1 C161.6,190.3 161.5,190.5 161.5,190.8 C161.4,191.3 161.5,191.7 161.8,192 C162.1,192.4 162.5,192.6 163.1,192.7 C163.5,192.8 163.8,192.8 164.2,192.7 C164.6,192.6 164.9,192.5 165.3,192.2 C165.3,192.5 165.3,192.7 165.4,192.9 L166.4,193.1 C166.3,192.9 166.3,192.6 166.3,192.4 C166.3,192.2 166.4,191.6 166.5,190.7 L166.7,189.4 C166.8,189 166.8,188.7 166.8,188.5 C166.8,188.2 166.7,188 166.6,187.8 C166.6,187.8 166.4,187.6 166.1,187.5 L166.1,187.5 L166.1,187.5 Z M165.6,190.6 C165.5,191 165.4,191.3 165.3,191.5 C165.1,191.8 164.9,191.9 164.6,192 C164.3,192.1 163.9,192.1 163.6,192.1 C163.2,192 163,191.9 162.8,191.7 C162.6,191.5 162.6,191.3 162.6,191 C162.6,190.8 162.7,190.7 162.8,190.6 C162.9,190.5 163.1,190.4 163.2,190.4 C163.4,190.4 163.7,190.3 164.1,190.4 C164.8,190.4 165.3,190.4 165.7,190.3 L165.6,190.6 L165.6,190.6 Z M169.6,189.3 C170,189 170.4,188.9 170.9,189 C171.2,189.1 171.5,189.2 171.7,189.4 C171.9,189.6 172,189.9 172,190.3 L172.9,190.3 C172.9,189.7 172.7,189.2 172.4,188.9 C172.1,188.5 171.6,188.3 171,188.2 C170.5,188.1 170.1,188.1 169.6,188.3 C169.1,188.5 168.8,188.7 168.5,189.2 C168.2,189.6 168,190.1 167.9,190.7 C167.7,191.6 167.8,192.4 168.2,193 C168.6,193.6 169.2,193.9 169.9,194.1 C170.5,194.2 171.1,194.1 171.5,193.8 C172,193.5 172.3,193 172.6,192.4 L171.7,192.1 C171.5,192.6 171.3,192.9 171,193.1 C170.7,193.3 170.4,193.3 170,193.3 C169.5,193.2 169.2,193 169,192.6 C168.8,192.2 168.7,191.6 168.9,190.9 C169,190.1 169.2,189.5 169.6,189.3 L169.6,189.3 L169.6,189.3 Z M177.4,175.9 C176.7,175.8 176.1,175.9 175.5,176.2 C174.8,176.6 174.4,177.3 174.2,178.4 C174,179.3 174.1,180.1 174.5,180.7 C174.9,181.3 175.5,181.7 176.3,181.8 C176.8,181.9 177.3,181.9 177.7,181.7 C178.2,181.5 178.5,181.3 178.8,180.9 C179.1,180.5 179.3,180 179.4,179.3 C179.6,178.4 179.4,177.7 179,177.1 C178.8,176.4 178.2,176 177.4,175.9 L177.4,175.9 L177.4,175.9 Z M178.6,179.1 C178.5,179.8 178.2,180.4 177.8,180.7 C177.4,181 177,181.1 176.5,181 C176,180.9 175.7,180.7 175.4,180.3 C175.1,179.9 175.1,179.3 175.2,178.6 C175.3,177.9 175.6,177.4 176,177.1 C176.4,176.8 176.8,176.7 177.3,176.8 C177.8,176.9 178.1,177.1 178.4,177.5 C178.6,177.8 178.7,178.4 178.6,179.1 L178.6,179.1 L178.6,179.1 Z M188.1,192.4 L184.1,191.7 L184.7,188.5 L183.7,188.3 L182.3,196.1 L183.3,196.3 L183.9,192.6 L187.9,193.3 L187.3,197 L188.3,197.2 L189.7,189.4 L188.7,189.2 L188.1,192.4 L188.1,192.4 Z M177.7,189.6 C177.4,189.4 177.1,189.2 176.7,189.2 C176,189.1 175.4,189.2 174.9,189.7 L175.4,186.9 L174.4,186.7 L173,194.5 L174,194.7 L174.5,191.6 C174.6,191.2 174.7,190.8 174.8,190.6 C174.9,190.4 175.2,190.2 175.4,190.1 C175.7,190 176,190 176.2,190 C176.6,190.1 176.8,190.2 177,190.5 C177.2,190.8 177.2,191.1 177.1,191.6 L176.5,195.2 L177.5,195.4 L178.1,191.8 C178.2,191.2 178.2,190.8 178.1,190.5 C178.2,190.1 178,189.8 177.7,189.6 L177.7,189.6 L177.7,189.6 Z M286.8,200.9 C287.1,201.2 287.5,201.4 288,201.5 C288.7,201.6 289.3,201.4 289.7,200.9 L289.6,201.6 L290.5,201.8 L291.9,194 L291,193.8 L290.5,196.6 C290.4,196.3 290.2,196.1 290,195.9 C289.8,195.7 289.5,195.6 289.1,195.5 C288.6,195.4 288.2,195.5 287.8,195.6 C287.4,195.8 287,196.1 286.8,196.5 C286.6,196.9 286.4,197.4 286.3,198 C286.2,198.6 286.2,199.1 286.3,199.6 C286.3,200.1 286.5,200.5 286.8,200.9 L286.8,200.9 L286.8,200.9 Z M287.1,198.3 C287.2,197.6 287.5,197 287.8,196.7 C288.1,196.4 288.5,196.3 289,196.4 C289.4,196.5 289.8,196.7 290,197.1 C290.2,197.5 290.3,198.1 290.1,198.9 C290,199.6 289.7,200.1 289.4,200.4 C289,200.7 288.7,200.8 288.3,200.7 C287.9,200.6 287.6,200.4 287.3,200 C287,199.5 286.9,199 287.1,198.3 L287.1,198.3 L287.1,198.3 Z M171.6,179.1 C171.5,179.7 171.5,180.1 171.5,180.2 C171.5,180.4 171.7,180.6 171.8,180.7 C172,180.8 172.2,180.9 172.6,181 C172.8,181 173.1,181.1 173.3,181 L173.3,180.1 L172.9,180.1 C172.8,180.1 172.7,180 172.6,180 C172.5,179.9 172.5,179.9 172.5,179.8 L172.5,179.3 L173.1,176 L174.1,176.2 L174.2,175.5 L173.2,175.3 L173.5,173.3 L172.5,173.7 L172.3,175.1 L171.6,175 L171.5,175.7 L172.2,175.8 L171.6,179.1 L171.6,179.1 Z M236.9,192.2 C237.3,192.2 237.6,192.1 237.8,192 C238.1,191.9 238.3,191.7 238.5,191.4 C238.7,191.1 238.8,190.8 238.9,190.4 C239,190 238.9,189.5 238.7,189.2 C238.5,188.8 238.2,188.5 237.7,188.3 C238.1,188.2 238.4,188 238.6,187.7 C238.8,187.4 239,187.1 239,186.8 C239.1,186.4 239,186.1 238.9,185.7 C238.8,185.3 238.5,185 238.2,184.8 C237.9,184.6 237.4,184.4 236.8,184.3 L233.9,183.8 L232.5,191.6 L235.5,192.1 C236.1,192.2 236.5,192.2 236.9,192.2 L236.9,192.2 L236.9,192.2 Z M234.9,184.9 L236.5,185.2 C237.1,185.3 237.4,185.4 237.7,185.5 C237.9,185.6 238.1,185.8 238.2,186 C238.3,186.2 238.3,186.5 238.3,186.7 C238.3,187 238.1,187.2 238,187.3 C237.8,187.5 237.6,187.6 237.3,187.6 C237.1,187.6 236.8,187.6 236.3,187.5 L234.6,187.2 L234.9,184.9 L234.9,184.9 Z M234.3,188.1 L236.1,188.4 C236.6,188.5 237,188.6 237.2,188.7 C237.4,188.8 237.6,189 237.7,189.3 C237.8,189.5 237.8,189.8 237.8,190.1 C237.8,190.3 237.7,190.6 237.5,190.7 C237.4,190.9 237.2,191 237,191.1 C236.8,191.2 236.6,191.2 236.4,191.2 C236.3,191.2 236,191.2 235.7,191.1 L233.8,190.8 L234.3,188.1 L234.3,188.1 Z M156.2,177.1 L151.4,176.3 L151.9,173.7 L156.2,174.5 L156.4,173.6 L152.1,172.8 L152.5,170.4 L157.1,171.2 L157.3,170.3 L151.7,169.3 L150.3,177.1 L156.1,178.1 L156.2,177.1 L156.2,177.1 Z M185,179.5 L188.6,180.1 L188.8,179.2 L185.2,178.6 L185.6,176.2 L189.8,176.9 L190,176 L184.8,175.1 L183.4,182.9 L184.4,183.1 L185,179.5 L185,179.5 Z M156.7,178.2 L157.9,178.4 L159.8,176.4 L160,176.9 L160.8,178.8 L162,179 L160.4,175.7 L162.8,173.4 L161.7,173.2 L160.5,174.4 L160,174.9 C159.9,174.7 159.8,174.5 159.7,174.2 L159.1,172.7 L157.9,172.5 L159.3,175.5 L156.7,178.2 L156.7,178.2 Z M163.7,179.4 L164.7,173.8 L163.7,173.6 L162.7,179.2 L163.7,179.4 L163.7,179.4 Z M165,171.6 L164,171.4 L163.8,172.5 L164.8,172.7 L165,171.6 L165,171.6 Z M247.3,191 C247.4,190.3 247.7,189.8 248,189.6 C248.3,189.4 248.7,189.3 249.1,189.4 C249.4,189.4 249.6,189.5 249.7,189.7 C249.9,189.8 250,190 250,190.2 L250,191.1 L249.4,194.5 L250.4,194.7 L251,191.2 C251.1,190.8 251.1,190.4 251.1,190.3 C251.1,190 251,189.8 250.9,189.5 C250.8,189.3 250.6,189.1 250.3,188.9 C250,188.7 249.7,188.6 249.4,188.6 C248.6,188.5 248,188.7 247.4,189.2 L247.5,188.4 L246.6,188.2 L245.6,193.8 L246.6,194 L247.3,191 L247.3,191 Z M264.1,191.3 L264.3,191.7 C264.6,191.6 264.9,191.4 265.1,191.2 C265.2,191 265.4,190.7 265.4,190.2 L265.6,189.3 L264.6,189.1 L264.4,190.2 L264.9,190.3 C264.8,190.6 264.7,190.8 264.6,191 C264.5,191.1 264.3,191.2 264.1,191.3 L264.1,191.3 L264.1,191.3 Z M158.9,186 C158.2,185.9 157.6,186 157,186.3 C156.3,186.7 155.9,187.4 155.7,188.5 C155.5,189.4 155.6,190.2 156,190.8 C156.4,191.4 157,191.8 157.8,191.9 C158.3,192 158.8,192 159.2,191.8 C159.7,191.6 160,191.4 160.3,191 C160.6,190.6 160.8,190.1 160.9,189.4 C161.1,188.5 160.9,187.8 160.5,187.2 C160.1,186.6 159.7,186.2 158.9,186 L158.9,186 L158.9,186 Z M160,189.2 C159.9,189.9 159.6,190.5 159.2,190.8 C158.8,191.1 158.4,191.2 157.9,191.1 C157.4,191 157.1,190.8 156.8,190.4 C156.5,190 156.5,189.4 156.6,188.7 C156.7,188 157,187.5 157.4,187.2 C157.8,186.9 158.2,186.8 158.7,186.9 C159.2,187 159.5,187.2 159.8,187.6 C160.1,188 160.1,188.5 160,189.2 L160,189.2 L160,189.2 Z M191.3,181.2 C191.4,180.8 191.5,180.4 191.7,180.1 C191.8,179.9 192,179.7 192.1,179.6 C192.3,179.5 192.5,179.5 192.7,179.5 C192.9,179.5 193.2,179.7 193.4,179.8 L193.9,179 C193.6,178.7 193.3,178.6 193,178.5 C192.8,178.5 192.6,178.5 192.4,178.6 C192.2,178.7 191.9,178.9 191.7,179.3 L191.9,178.4 L191,178.2 L190,183.8 L191,184 L191.3,181.2 L191.3,181.2 Z M258.8,198.3 C259,198.2 259.3,198 259.5,197.7 C259.7,197.5 259.9,197.1 260.3,196.5 L263.4,191.2 L262.4,191 L260.6,194.1 L260,195.3 C260,194.8 259.9,194.4 259.8,193.9 L259.2,190.4 L258.2,190.2 L259.3,196.2 C259.2,196.3 259.2,196.4 259.2,196.4 C259,196.8 258.9,197 258.8,197.1 C258.7,197.2 258.6,197.3 258.4,197.3 C258.3,197.3 258.1,197.4 257.9,197.3 C257.7,197.3 257.6,197.2 257.4,197.1 L257.3,198 C257.5,198.1 257.7,198.2 257.9,198.2 C258.3,198.4 258.6,198.4 258.8,198.3 L258.8,198.3 L258.8,198.3 Z M149.9,184.8 C150.1,184.3 150.5,184 150.9,183.8 C151.3,183.6 151.9,183.5 152.5,183.6 C153,183.7 153.4,183.9 153.7,184.2 C154,184.5 154.2,185 154.3,185.6 L155.4,185.5 C155.3,184.7 155,184.1 154.6,183.6 C154.1,183.1 153.5,182.8 152.7,182.7 C152,182.6 151.4,182.6 150.7,182.8 C150.1,183 149.6,183.4 149.1,183.9 C148.7,184.4 148.4,185.1 148.3,185.9 C148.2,186.6 148.2,187.4 148.3,188 C148.5,188.7 148.8,189.3 149.2,189.7 C149.7,190.1 150.3,190.4 151.1,190.6 C151.9,190.7 152.6,190.6 153.3,190.3 C153.9,190 154.4,189.4 154.8,188.6 L153.8,188.2 C153.5,188.8 153.2,189.3 152.7,189.5 C152.2,189.8 151.7,189.8 151.2,189.7 C150.7,189.6 150.3,189.4 149.9,189.1 C149.5,188.8 149.3,188.4 149.2,187.8 C149.1,187.3 149.1,186.7 149.2,186 C149.4,185.7 149.6,185.2 149.9,184.8 L149.9,184.8 L149.9,184.8 Z M197.3,185.3 L198.3,185.5 C198.2,185.3 198.2,185 198.2,184.8 C198.2,184.6 198.3,184 198.4,183.1 L198.6,181.8 C198.7,181.4 198.7,181.1 198.7,180.9 C198.7,180.6 198.6,180.4 198.5,180.2 C198.4,180 198.2,179.8 197.9,179.7 C197.6,179.5 197.2,179.4 196.8,179.3 C196.3,179.2 195.9,179.2 195.5,179.3 C195.1,179.4 194.8,179.5 194.6,179.7 C194.4,179.9 194.2,180.2 194,180.6 L194.9,180.9 C195.1,180.5 195.3,180.3 195.5,180.1 C195.7,180 196.1,180 196.5,180 C197,180.1 197.3,180.3 197.5,180.5 C197.7,180.7 197.7,181 197.6,181.4 L197.6,181.6 C197.2,181.7 196.6,181.7 195.8,181.6 L194.9,181.6 C194.6,181.6 194.4,181.7 194.2,181.8 C194,181.9 193.8,182.1 193.6,182.3 C193.4,182.5 193.3,182.7 193.3,183 C193.2,183.5 193.3,183.9 193.6,184.2 C193.9,184.6 194.3,184.8 194.9,184.9 C195.3,185 195.6,185 196,184.9 C196.3,184.8 196.7,184.7 197.1,184.4 C197.2,184.9 197.2,185.1 197.3,185.3 L197.3,185.3 L197.3,185.3 Z M196.4,184.3 C196.1,184.4 195.7,184.4 195.4,184.4 C195,184.3 194.8,184.2 194.6,184 C194.4,183.8 194.4,183.6 194.4,183.3 C194.4,183.1 194.5,183 194.6,182.9 C194.7,182.8 194.9,182.7 195,182.7 C195.2,182.7 195.5,182.6 195.9,182.7 C196.6,182.7 197.1,182.7 197.5,182.6 L197.4,182.9 C197.3,183.3 197.2,183.6 197.1,183.8 C196.9,184 196.7,184.2 196.4,184.3 L196.4,184.3 L196.4,184.3 Z M260.4,203.9 C260.2,203.9 260,203.9 259.8,204 C259.6,204.1 259.3,204.3 259.1,204.7 L259.2,203.8 L258.3,203.6 L257.3,209.2 L258.3,209.4 L258.8,206.5 C258.9,206.1 259,205.7 259.2,205.4 C259.3,205.2 259.5,205 259.6,204.9 C259.8,204.8 260,204.8 260.2,204.8 C260.4,204.8 260.7,205 260.9,205.1 L261.4,204.3 C261.1,204.2 260.8,204 260.4,203.9 L260.4,203.9 L260.4,203.9 Z M262.8,205.4 C263,205.3 263.3,205.3 263.8,205.3 C264.2,205.4 264.4,205.5 264.6,205.7 C264.8,205.9 264.9,206.1 264.8,206.4 L265.8,206.4 C265.8,206 265.7,205.7 265.6,205.5 C265.5,205.3 265.3,205 265,204.9 C264.7,204.7 264.3,204.6 263.9,204.5 C263.6,204.4 263.3,204.4 263.1,204.5 C262.8,204.5 262.6,204.6 262.4,204.7 C262.2,204.8 262,205 261.8,205.1 C261.6,205.3 261.6,205.5 261.5,205.8 C261.5,206.1 261.5,206.3 261.6,206.6 C261.7,206.9 261.9,207.1 262.1,207.2 C262.3,207.4 262.8,207.6 263.5,207.9 C264,208.1 264.3,208.3 264.4,208.4 C264.6,208.6 264.6,208.7 264.6,209 C264.6,209.2 264.4,209.4 264.2,209.6 C264,209.7 263.6,209.8 263.2,209.7 C262.8,209.6 262.4,209.5 262.2,209.2 C262,209 261.9,208.6 261.9,208.3 L260.9,208.3 C260.9,208.9 261.1,209.4 261.4,209.8 C261.7,210.2 262.3,210.4 263,210.5 C263.4,210.6 263.8,210.6 264.2,210.5 C264.6,210.4 264.9,210.2 265.1,210 C265.3,209.8 265.5,209.5 265.5,209.2 C265.6,208.9 265.5,208.6 265.4,208.3 C265.3,208 265.1,207.9 264.9,207.7 C264.7,207.5 264.2,207.3 263.6,207 C263.2,206.8 262.9,206.7 262.8,206.6 C262.6,206.5 262.5,206.4 262.5,206.3 C262.4,206.2 262.4,206.1 262.4,205.9 C262.4,205.6 262.6,205.5 262.8,205.4 L262.8,205.4 L262.8,205.4 Z M256.4,190 C256.1,189.8 255.8,189.7 255.5,189.7 C254.7,189.6 254.1,189.8 253.5,190.3 L253.6,189.5 L252.7,189.4 L251.7,195 L252.7,195.2 L253.2,192.1 C253.3,191.4 253.6,190.9 253.9,190.7 C254.2,190.5 254.6,190.4 255,190.5 C255.3,190.5 255.5,190.6 255.6,190.8 C255.8,190.9 255.9,191.1 255.9,191.3 L255.9,192.2 L255.3,195.6 L256.3,195.8 L256.9,192.3 C257,191.9 257,191.5 257,191.4 C257,191.1 256.9,190.9 256.8,190.6 C256.8,190.4 256.6,190.2 256.4,190 L256.4,190 L256.4,190 Z M270,196.4 C270.1,196.1 270,195.8 269.9,195.5 C269.8,195.3 269.6,195.1 269.4,194.9 C269.2,194.7 268.7,194.5 268.1,194.2 C267.7,194 267.4,193.9 267.3,193.8 C267.1,193.7 267,193.6 267,193.5 C266.9,193.4 266.9,193.3 266.9,193.1 C266.9,192.9 267.1,192.8 267.3,192.6 C267.5,192.5 267.8,192.5 268.3,192.5 C268.7,192.6 268.9,192.7 269.1,192.9 C269.3,193.1 269.4,193.3 269.3,193.6 L270.3,193.6 C270.3,193.2 270.2,192.9 270.1,192.7 C270,192.5 269.8,192.2 269.5,192.1 C269.2,191.9 268.8,191.8 268.4,191.7 C268.1,191.6 267.8,191.6 267.6,191.7 C267.3,191.7 267.1,191.8 266.9,191.9 C266.7,192 266.5,192.2 266.3,192.3 C266.2,192.5 266.1,192.7 266,193 C266,193.3 266,193.5 266.1,193.8 C266.2,194.1 266.4,194.3 266.6,194.4 C266.8,194.6 267.3,194.8 268,195.1 C268.5,195.3 268.8,195.5 268.9,195.6 C269.1,195.8 269.1,195.9 269.1,196.2 C269.1,196.4 268.9,196.6 268.7,196.8 C268.5,196.9 268.1,197 267.7,196.9 C267.3,196.8 266.9,196.7 266.7,196.4 C266.5,196.2 266.4,195.8 266.4,195.5 L265.4,195.5 C265.4,196.1 265.6,196.6 265.9,197 C266.2,197.4 266.8,197.6 267.5,197.7 C267.9,197.8 268.3,197.8 268.7,197.7 C269.1,197.6 269.4,197.4 269.6,197.2 C269.8,197 270,196.8 270,196.4 L270,196.4 L270,196.4 Z M250.6,202.3 L249.1,205.4 L248.6,206.4 L248.5,205.3 L248.2,201.9 L247.2,201.7 L245.7,204.8 C245.4,205.5 245.2,205.9 245.2,205.9 L245.1,204.6 L244.8,201.2 L243.8,201 L244.5,206.9 L245.5,207.1 L247.4,203 L247.4,204 L247.7,207.5 L248.7,207.7 L251.4,202.4 L250.6,202.3 L250.6,202.3 Z M254.7,202.9 C253.9,202.8 253.2,202.9 252.7,203.3 C252.1,203.7 251.7,204.4 251.6,205.4 C251.4,206.3 251.6,207.1 251.9,207.7 C252.3,208.3 252.9,208.7 253.7,208.8 C254.4,208.9 254.9,208.9 255.4,208.6 C255.9,208.4 256.2,208 256.5,207.4 L255.5,207.1 C255.3,207.5 255,207.7 254.8,207.9 C254.5,208 254.2,208.1 253.9,208 C253.4,207.9 253.1,207.7 252.8,207.3 C252.5,206.9 252.5,206.4 252.5,205.8 L256.7,206.5 C256.7,206.4 256.7,206.3 256.8,206.2 C257,205.3 256.9,204.5 256.5,203.9 C256,203.4 255.4,203 254.7,202.9 L254.7,202.9 L254.7,202.9 Z M252.6,205 C252.7,204.5 253,204.2 253.3,203.9 C253.7,203.7 254,203.6 254.5,203.7 C255,203.8 255.3,204 255.6,204.5 C255.8,204.8 255.8,205.1 255.8,205.6 L252.6,205 L252.6,205 Z M296.1,211 C295.7,210.4 295.1,210 294.4,209.9 C293.6,209.8 292.9,209.9 292.4,210.3 C291.8,210.7 291.4,211.4 291.3,212.4 C291.1,213.3 291.3,214.1 291.6,214.7 C292,215.3 292.6,215.7 293.4,215.8 C294.1,215.9 294.6,215.9 295.1,215.6 C295.6,215.4 295.9,215 296.2,214.4 L295.2,214.1 C295,214.5 294.7,214.7 294.5,214.9 C294.2,215 293.9,215.1 293.6,215 C293.1,214.9 292.8,214.7 292.5,214.3 C292.2,213.9 292.2,213.4 292.2,212.8 L296.4,213.5 L296.4,213.2 C296.6,212.4 296.5,211.6 296.1,211 L296.1,211 L296.1,211 Z M292.4,212 C292.5,211.5 292.8,211.2 293.1,210.9 C293.5,210.7 293.8,210.6 294.3,210.7 C294.8,210.8 295.1,211 295.4,211.5 C295.6,211.8 295.6,212.1 295.6,212.6 L292.4,212 L292.4,212 Z M290.5,209.2 C290.3,209.2 290.1,209.2 289.9,209.3 C289.7,209.4 289.4,209.6 289.2,210 L289.3,209.1 L288.4,209 L287.4,214.6 L288.4,214.8 L288.9,211.9 C289,211.5 289.1,211.1 289.3,210.8 C289.4,210.6 289.6,210.4 289.7,210.3 C289.9,210.2 290.1,210.2 290.3,210.2 C290.5,210.2 290.8,210.4 291,210.5 L291.5,209.7 C291.2,209.5 290.8,209.3 290.5,209.2 L290.5,209.2 L290.5,209.2 Z M286.7,208.7 L284.9,211.8 L284.3,213 C284.3,212.5 284.2,212.1 284.1,211.6 L283.5,208.1 L282.5,207.9 L283.6,213.9 C283.5,214 283.5,214.1 283.5,214.1 C283.3,214.5 283.2,214.7 283.1,214.8 C283,214.9 282.9,215 282.7,215 C282.6,215 282.4,215.1 282.2,215 C282,215 281.9,214.9 281.7,214.8 L281.6,215.7 C281.8,215.8 282,215.9 282.2,215.9 C282.5,216 282.8,215.9 283,215.8 C283.2,215.7 283.5,215.5 283.7,215.2 C283.9,215 284.1,214.6 284.5,214 L287.6,208.7 L286.7,208.7 L286.7,208.7 Z M244.9,192 L243.9,191.7 C243.7,192.1 243.4,192.3 243.2,192.5 C242.9,192.6 242.6,192.7 242.3,192.6 C241.8,192.5 241.5,192.3 241.2,191.9 C240.9,191.5 240.9,191 240.9,190.4 L245.1,191.1 C245.1,191 245.1,190.9 245.2,190.8 C245.4,189.9 245.3,189.1 244.9,188.5 C244.5,187.9 243.9,187.5 243.2,187.4 C242.4,187.3 241.7,187.4 241.2,187.8 C240.6,188.2 240.2,188.9 240.1,189.9 C239.9,190.8 240.1,191.6 240.4,192.2 C240.8,192.8 241.4,193.2 242.2,193.3 C242.9,193.4 243.4,193.4 243.9,193.1 C244.3,192.9 244.6,192.5 244.9,192 L244.9,192 L244.9,192 Z M241.8,188.5 C242.2,188.3 242.5,188.2 243,188.3 C243.5,188.4 243.8,188.6 244.1,189.1 C244.3,189.4 244.3,189.7 244.3,190.2 L241.2,189.6 C241.2,189.1 241.4,188.7 241.8,188.5 L241.8,188.5 L241.8,188.5 Z M271.8,204.8 L276,205.5 L276.2,204.6 L271,203.7 L269.6,211.5 L270.6,211.7 L271.2,208.2 L274.8,208.8 L275,207.9 L271.4,207.3 L271.8,204.8 L271.8,204.8 Z M282.1,195.6 C282.4,195.4 282.8,195.3 283.2,195.4 C283.5,195.4 283.7,195.5 283.8,195.7 C284,195.8 284.1,196 284.1,196.2 L284.1,197.1 L283.5,200.5 L284.5,200.7 L285.1,197.2 C285.2,196.8 285.2,196.4 285.2,196.3 C285.2,196 285.1,195.8 285,195.5 C284.9,195.3 284.7,195.1 284.4,194.9 C284.1,194.7 283.8,194.6 283.5,194.6 C282.7,194.5 282.1,194.7 281.6,195.2 L281.7,194.4 L280.8,194.2 L279.8,199.8 L280.8,200 L281.3,196.9 C281.5,196.3 281.8,195.8 282.1,195.6 L282.1,195.6 L282.1,195.6 Z M193.2,192.1 C192.5,192 191.9,192.1 191.3,192.4 C190.6,192.8 190.2,193.5 190,194.6 C189.8,195.5 189.9,196.3 190.3,196.9 C190.7,197.5 191.3,197.9 192.1,198 C192.6,198.1 193.1,198.1 193.5,197.9 C194,197.7 194.3,197.5 194.6,197.1 C194.9,196.7 195.1,196.2 195.2,195.5 C195.4,194.6 195.2,193.9 194.8,193.3 C194.6,192.6 194,192.2 193.2,192.1 L193.2,192.1 L193.2,192.1 Z M194.3,195.3 C194.2,196 193.9,196.6 193.5,196.9 C193.1,197.2 192.7,197.3 192.2,197.2 C191.7,197.1 191.4,196.9 191.1,196.5 C190.9,196.1 190.8,195.5 190.9,194.8 C191,194.1 191.3,193.6 191.7,193.3 C192.1,193 192.5,192.9 193,193 C193.5,193.1 193.8,193.3 194.1,193.7 C194.4,194 194.5,194.6 194.3,195.3 L194.3,195.3 L194.3,195.3 Z M280.5,207.7 C280.2,207.5 279.8,207.4 279.4,207.3 C278.9,207.2 278.5,207.2 278.1,207.3 C277.7,207.4 277.4,207.5 277.2,207.7 C277,207.9 276.8,208.2 276.6,208.6 L277.5,208.9 C277.7,208.5 277.9,208.3 278.1,208.1 C278.3,208 278.7,208 279.1,208 C279.6,208.1 279.9,208.3 280.1,208.5 C280.3,208.7 280.3,209 280.2,209.4 L280.2,209.6 C279.8,209.7 279.2,209.7 278.4,209.6 L277.5,209.6 C277.2,209.6 277,209.7 276.8,209.8 C276.6,209.9 276.4,210.1 276.2,210.3 C276,210.5 275.9,210.7 275.9,211 C275.8,211.5 275.9,211.9 276.2,212.2 C276.5,212.6 276.9,212.8 277.5,212.9 C277.9,213 278.2,213 278.6,212.9 C278.9,212.8 279.3,212.7 279.7,212.4 C279.7,212.7 279.7,212.9 279.8,213.1 L280.8,213.3 C280.7,213.1 280.7,212.8 280.7,212.6 C280.7,212.4 280.8,211.8 280.9,210.9 L281.1,209.6 C281.2,209.2 281.2,208.9 281.2,208.7 C281.2,208.4 281.1,208.2 281,208 C281,208 280.8,207.8 280.5,207.7 L280.5,207.7 L280.5,207.7 Z M280,210.8 C279.9,211.2 279.8,211.5 279.7,211.7 C279.5,212 279.3,212.1 279,212.2 C278.7,212.3 278.3,212.3 278,212.3 C277.6,212.2 277.4,212.1 277.2,211.9 C277,211.7 277,211.5 277,211.2 C277,211 277.1,210.9 277.2,210.8 C277.3,210.7 277.5,210.6 277.6,210.6 C277.8,210.6 278.1,210.5 278.5,210.6 C279.2,210.6 279.7,210.6 280.1,210.5 L280,210.8 L280,210.8 Z M210.9,187.7 L211.9,187.9 L212.9,182.3 L211.9,182.1 L210.9,187.7 L210.9,187.7 Z M208.9,187.4 L210.1,187.6 L208.4,183.7 L210.9,182 L209.7,181.8 L207,183.7 L207.8,179.3 L206.8,179.1 L205.4,186.9 L206.4,187.1 L206.8,184.9 L207.6,184.4 L208.9,187.4 L208.9,187.4 Z M210.7,195.2 C209.9,195.1 209.2,195.2 208.7,195.6 C208.1,196 207.7,196.7 207.6,197.7 C207.4,198.6 207.6,199.4 207.9,200 C208.3,200.6 208.9,201 209.7,201.1 C210.4,201.2 210.9,201.2 211.4,200.9 C211.9,200.7 212.2,200.3 212.5,199.7 L211.5,199.4 C211.3,199.8 211,200 210.8,200.2 C210.5,200.3 210.2,200.4 209.9,200.3 C209.4,200.2 209.1,200 208.8,199.6 C208.5,199.2 208.5,198.7 208.5,198.1 L212.7,198.8 C212.7,198.7 212.7,198.6 212.8,198.5 C213,197.6 212.9,196.8 212.5,196.2 C212,195.7 211.5,195.3 210.7,195.2 L210.7,195.2 L210.7,195.2 Z M208.7,197.3 C208.8,196.8 209.1,196.5 209.4,196.2 C209.8,196 210.1,195.9 210.6,196 C211.1,196.1 211.4,196.3 211.7,196.8 C211.9,197.1 211.9,197.4 211.9,197.9 L208.7,197.3 L208.7,197.3 Z M240.8,200.5 C240,200.4 239.3,200.5 238.8,200.9 C238.2,201.3 237.8,202 237.7,203 C237.5,203.9 237.7,204.7 238,205.3 C238.4,205.9 239,206.3 239.8,206.4 C240.5,206.5 241,206.5 241.5,206.2 C242,206 242.3,205.6 242.6,205 L241.6,204.7 C241.4,205.1 241.1,205.3 240.9,205.5 C240.6,205.6 240.3,205.7 240,205.6 C239.5,205.5 239.2,205.3 238.9,204.9 C238.6,204.5 238.6,204 238.6,203.4 L242.8,204.1 L242.8,203.8 C243,202.9 242.9,202.1 242.5,201.5 C242.1,201 241.6,200.6 240.8,200.5 L240.8,200.5 L240.8,200.5 Z M238.8,202.6 C238.9,202.1 239.2,201.8 239.5,201.5 C239.8,201.3 240.2,201.2 240.7,201.3 C241.2,201.4 241.5,201.6 241.8,202.1 C242,202.4 242,202.7 242,203.2 L238.8,202.6 L238.8,202.6 Z M202.7,181.2 C203,181.2 203.2,181.3 203.3,181.5 C203.5,181.6 203.6,181.8 203.6,182 L203.6,182.9 L203,186.3 L204,186.5 L204.6,183 C204.7,182.6 204.7,182.2 204.7,182.1 C204.7,181.8 204.6,181.6 204.5,181.3 C204.4,181.1 204.2,180.9 203.9,180.7 C203.6,180.5 203.3,180.4 203,180.4 C202.2,180.3 201.6,180.5 201.1,181 L201.2,180.2 L200.3,180 L199.3,185.6 L200.3,185.8 L200.8,182.7 C200.9,182 201.2,181.5 201.5,181.3 C201.8,181.1 202.3,181.1 202.7,181.2 L202.7,181.2 L202.7,181.2 Z M200,196.5 C199.9,197 199.8,197.3 199.6,197.6 C199.5,197.8 199.2,198 199,198.1 C198.7,198.2 198.4,198.2 198.2,198.2 C197.9,198.1 197.7,198 197.5,197.9 C197.3,197.7 197.2,197.5 197.2,197.2 C197.2,197 197.2,196.7 197.3,196.2 L197.8,193.1 L196.8,192.9 L196.2,196.4 C196.1,196.8 196.1,197.1 196.1,197.3 C196.1,197.6 196.2,197.8 196.3,198.1 C196.4,198.3 196.6,198.5 196.9,198.7 C197.2,198.9 197.5,199 197.8,199.1 C198.6,199.2 199.2,199 199.7,198.5 L199.6,199.3 L200.5,199.5 L201.5,193.9 L200.5,193.7 L200,196.5 L200,196.5 Z M203.8,195 C204,194.9 204.3,194.9 204.8,194.9 C205.2,195 205.4,195.1 205.6,195.3 C205.8,195.5 205.9,195.7 205.8,196 L206.8,196 C206.8,195.6 206.7,195.3 206.6,195.1 C206.5,194.9 206.3,194.6 206,194.5 C205.7,194.3 205.3,194.2 204.9,194.1 C204.6,194 204.3,194 204.1,194.1 C203.8,194.1 203.6,194.2 203.4,194.3 C203.2,194.4 203,194.6 202.8,194.7 C202.6,194.9 202.6,195.1 202.5,195.4 C202.5,195.7 202.5,195.9 202.6,196.2 C202.7,196.5 202.9,196.7 203.1,196.8 C203.3,197 203.8,197.2 204.5,197.5 C205,197.7 205.3,197.9 205.4,198 C205.6,198.2 205.6,198.3 205.6,198.6 C205.6,198.8 205.4,199 205.2,199.2 C205,199.3 204.6,199.4 204.2,199.3 C203.8,199.2 203.4,199.1 203.2,198.8 C203,198.6 202.9,198.2 202.9,197.9 L201.9,197.9 C201.9,198.5 202.1,199 202.4,199.4 C202.7,199.8 203.3,200 204,200.1 C204.4,200.2 204.8,200.2 205.2,200.1 C205.6,200 205.9,199.8 206.1,199.6 C206.3,199.4 206.5,199.1 206.5,198.8 C206.6,198.5 206.5,198.2 206.4,197.9 C206.3,197.7 206.1,197.5 205.9,197.3 C205.7,197.1 205.2,196.9 204.6,196.6 C204.2,196.4 203.9,196.3 203.8,196.2 C203.6,196.1 203.5,196 203.5,195.9 C203.4,195.8 203.4,195.7 203.4,195.5 C203.4,195.2 203.6,195.1 203.8,195 L203.8,195 L203.8,195 Z M232.4,197.2 C232.1,197 231.6,196.8 231,196.7 L228.1,196.2 L226.7,204 L229.7,204.5 C230.2,204.6 230.6,204.6 231,204.6 C231.4,204.6 231.7,204.5 231.9,204.4 C232.2,204.3 232.4,204.1 232.6,203.8 C232.8,203.5 232.9,203.2 233,202.8 C233.1,202.3 233,201.9 232.8,201.6 C232.6,201.2 232.3,200.9 231.8,200.7 C232.2,200.6 232.5,200.4 232.7,200.1 C232.9,199.8 233.1,199.5 233.1,199.2 C233.2,198.8 233.1,198.5 233,198.1 C233,197.7 232.7,197.4 232.4,197.2 L232.4,197.2 L232.4,197.2 Z M231.9,202.5 C231.9,202.7 231.8,203 231.6,203.1 C231.5,203.3 231.3,203.4 231.1,203.5 C230.9,203.6 230.7,203.6 230.5,203.6 C230.4,203.6 230.1,203.6 229.8,203.5 L227.9,203.2 L228.4,200.5 L230.2,200.8 C230.7,200.9 231.1,201 231.3,201.1 C231.5,201.2 231.7,201.4 231.8,201.7 C231.9,202 232,202.2 231.9,202.5 L231.9,202.5 L231.9,202.5 Z M232.2,199.1 C232.2,199.4 232,199.6 231.9,199.7 C231.7,199.9 231.5,199.9 231.2,200 C231,200 230.7,200 230.2,199.9 L228.5,199.6 L228.9,197.3 L230.5,197.6 C231.1,197.7 231.4,197.8 231.7,197.9 C231.9,198 232.1,198.2 232.2,198.4 L232.2,199.1 L232.2,199.1 Z M227.9,190.9 L228.7,190.3 C228.3,189.9 228,189.4 227.7,188.9 C228.1,188.5 228.4,188 228.7,187.3 L227.7,186.9 C227.5,187.3 227.4,187.6 227.1,187.9 L226,185.9 C227.1,185.5 227.7,185 227.8,184.3 C227.9,183.8 227.8,183.4 227.5,183 C227.2,182.6 226.8,182.4 226.3,182.3 C225.7,182.2 225.3,182.3 224.8,182.6 C224.4,182.9 224.1,183.3 224,183.7 L224,184.5 C224.1,184.8 224.2,185.1 224.5,185.6 C223.8,185.8 223.3,186 222.9,186.4 C222.5,186.7 222.3,187.1 222.2,187.6 C222.1,188.1 222.2,188.7 222.5,189.2 C222.9,189.8 223.5,190.2 224.2,190.3 C224.6,190.4 225,190.4 225.4,190.2 C225.8,190.1 226.2,189.9 226.6,189.6 L227.9,190.9 L227.9,190.9 Z M225.5,183.2 C225.7,183.1 225.9,183 226.2,183.1 C226.5,183.1 226.6,183.3 226.8,183.5 C226.9,183.7 227,183.9 226.9,184.2 C226.9,184.4 226.8,184.6 226.6,184.8 C226.4,185 226.1,185.1 225.7,185.3 L225.4,184.7 C225.3,184.5 225.2,184.4 225.2,184.2 L225.2,183.8 C225.2,183.5 225.3,183.4 225.5,183.2 L225.5,183.2 L225.5,183.2 Z M225.6,189.3 C225.3,189.4 225,189.5 224.7,189.4 C224.2,189.3 223.9,189.1 223.7,188.7 C223.5,188.3 223.4,188 223.5,187.7 C223.5,187.4 223.7,187.2 223.9,187 C224.1,186.8 224.5,186.5 225.1,186.3 L226.5,188.8 C226.2,189 225.9,189.2 225.6,189.3 L225.6,189.3 L225.6,189.3 Z M237,199.8 C236.8,199.8 236.6,199.8 236.4,199.9 C236.2,200 235.9,200.2 235.7,200.6 L235.8,199.7 L234.9,199.6 L233.9,205.2 L234.9,205.4 L235.4,202.5 C235.5,202.1 235.6,201.7 235.8,201.4 C235.9,201.2 236.1,201 236.2,200.9 C236.4,200.8 236.6,200.8 236.8,200.8 C237,200.8 237.3,200.9 237.5,201.1 L238,200.3 C237.6,200 237.3,199.9 237,199.8 L237,199.8 L237,199.8 Z M218.4,187.3 L217.4,187 C217.2,187.4 216.9,187.6 216.7,187.8 C216.4,187.9 216.1,188 215.8,187.9 C215.3,187.8 215,187.6 214.7,187.2 C214.4,186.8 214.4,186.3 214.4,185.7 L218.6,186.4 C218.6,186.3 218.6,186.2 218.7,186.1 C218.9,185.2 218.8,184.4 218.4,183.8 C218,183.2 217.4,182.8 216.7,182.7 C215.9,182.6 215.2,182.7 214.7,183.1 C214.1,183.5 213.7,184.2 213.6,185.2 C213.4,186.1 213.6,186.9 213.9,187.5 C214.3,188.1 214.9,188.5 215.7,188.6 C216.4,188.7 216.9,188.7 217.4,188.4 C217.8,188.2 218.1,187.9 218.4,187.3 L218.4,187.3 L218.4,187.3 Z M215.3,183.8 C215.6,183.6 216,183.5 216.5,183.6 C217,183.7 217.3,183.9 217.6,184.4 C217.8,184.7 217.8,185 217.8,185.5 L214.7,184.9 C214.7,184.4 214.9,184.1 215.3,183.8 L215.3,183.8 L215.3,183.8 Z M222.8,199.7 L221.9,199.3 C221.7,199.7 221.6,200 221.3,200.3 L220.2,198.3 C221.3,197.9 221.9,197.4 222,196.7 C222.1,196.2 222,195.8 221.7,195.4 C221.4,195 221,194.8 220.5,194.7 C219.9,194.6 219.5,194.7 219,195 C218.6,195.3 218.3,195.6 218.2,196.1 L218.2,196.9 C218.3,197.2 218.4,197.5 218.7,198 C218,198.2 217.5,198.4 217.1,198.8 C216.7,199.1 216.5,199.5 216.4,200 C216.3,200.5 216.4,201.1 216.7,201.6 C217.1,202.2 217.7,202.6 218.4,202.7 C218.8,202.8 219.2,202.8 219.6,202.6 C220,202.5 220.4,202.3 220.8,202 C221.1,202.6 221.5,203 221.8,203.3 L222.6,202.7 C222.2,202.3 221.9,201.8 221.6,201.3 C222.1,200.8 222.5,200.3 222.8,199.7 L222.8,199.7 L222.8,199.7 Z M219.6,195.6 C219.8,195.5 220,195.4 220.3,195.5 C220.6,195.5 220.7,195.7 220.9,195.9 C221,196.1 221.1,196.3 221,196.6 C221,196.8 220.9,197 220.7,197.2 C220.5,197.4 220.2,197.5 219.8,197.7 L219.5,197.1 C219.4,196.9 219.3,196.8 219.3,196.6 L219.3,196.2 C219.3,195.9 219.4,195.7 219.6,195.6 L219.6,195.6 L219.6,195.6 Z M219.7,201.7 C219.4,201.8 219.1,201.9 218.8,201.8 C218.3,201.7 218,201.5 217.8,201.1 C217.6,200.7 217.5,200.4 217.6,200.1 C217.6,199.8 217.8,199.6 218,199.4 C218.2,199.2 218.6,198.9 219.2,198.7 L220.6,201.2 C220.3,201.4 220,201.5 219.7,201.7 L219.7,201.7 L219.7,201.7 Z M212,181.1 L213,181.3 L213.2,180.2 L212.2,180 L212,181.1 L212,181.1 Z M212,181.1" class="Shape"/>
        </g>
        <g class="background">
            <path d="M215.2,152.8 L215,152.9 L214.7,152.9 C204.8,160 191.1,163.3 177.5,160.9 C164.4,158.6 157.3,153.5 152.5,145.1 L152,145 L151.9,144.9 L147.4,147.2 C147.4,147.2 145.7,148 146,149.5 C146,149.6 151.9,163.5 176,167.8 C176.4,167.9 176.8,167.9 177.3,168 C177.8,168.1 182.1,168.9 188.9,168.2 C195.5,167.5 205.9,165.3 217.9,158.5 C217.9,158.5 219.6,157.5 218.5,156.1 C218.4,155.9 216.2,153.7 215.2,152.8 L215.2,152.8 L215.2,152.8 Z M364.6,106.1 L361.4,103.1 L343.3,117.6 L279,65.3 L239.8,58.2 L247.2,33.3 L192.6,24.6 L184.3,48.5 L150.7,41.2 L58.1,68.3 L52.5,48.1 L44,50.3 L59.2,104.6 L116.4,86.9 L148.8,138 L150,139.8 L181.5,151.7 L219.2,149.9 L222.5,147.8 L274.5,113.3 L295.4,93.9 L334.7,126.1 L335.2,127.7 L313.6,146.8 L317.7,150 L338.4,131.8 L344,136 L356.4,125 L349.5,119.6 L364.6,106.1 L364.6,106.1 Z M364.6,106.1" class="walkway"/>
            <path d="M64.3,101.2 L64.1,100.5 L58,82 L56.9,78.8 L51.4,62.6 L47,49.4 L4.9,61.4 L5.6,64.1 L23.9,116.2 L64.9,103.9 L64.3,101.2 L64.3,101.2 Z M17.9,41.5 L21.2,31.8 L20.5,29.1 L8.5,27.2 L5.4,36.3 L6.4,39.6 L17.9,41.5 L17.9,41.5 Z M90.5,128.2 L60,122.6 L51.5,147.5 L52.2,150.2 L82.8,155.6 L91.3,131 L90.5,128.2 L90.5,128.2 Z M86.2,152.9 L82.9,162.6 L83.6,165.3 L108.8,169.7 L112.1,160 L111.4,157.3 L86.2,152.9 L86.2,152.9 Z M124.2,151.4 L120.4,162.7 L121.1,165.4 L139.5,168.6 L143.3,157.3 L142.6,154.6 L124.2,151.4 L124.2,151.4 Z M405.6,134.4 L393.7,124.3 L395.2,123 L394.5,120.3 L392.4,118.6 L391.1,119.8 L390.9,120 L390.3,120.5 L389.8,121 L385.1,117 L365.3,100.3 L363.5,101.9 L362.9,102.5 L362.1,103.2 L361.4,103.8 L361,102.3 L342.5,86.7 L295.9,47.7 L259.5,41.3 L245.9,39.1 L245.7,39.1 L250.1,25.4 L249.4,22.7 L194.5,13 L189.8,28.1 L189.8,28.4 L190,29.1 L187.7,28.7 L143.8,21.3 L135.2,23.8 L127.8,26 L123,27.4 L111,30.9 L90.6,36.9 L74.2,41.7 L49.4,49 L50.1,51.7 L56.4,71.1 L57.6,70.7 L130.3,49.2 L141.5,45.8 L142.3,45.6 L149.3,43.5 L180.1,48.9 L195.7,51.2 L196.2,49.7 L196.7,51.7 L199.3,52.2 C199.3,52.1 199.4,52.1 199.4,52 C199.6,51.7 199.8,51.4 200.1,51.1 C200.2,51 200.3,50.9 200.3,50.8 C200.5,50.5 200.8,50.3 201,50 L201.2,49.8 C201.3,49.7 201.5,49.6 201.6,49.5 C201.7,49.4 201.9,49.3 202,49.1 C202.1,49 202.3,48.9 202.4,48.8 C202.5,48.7 202.7,48.6 202.8,48.5 C203.2,48.2 203.7,47.9 204.2,47.6 C204.3,47.5 204.4,47.5 204.6,47.4 C204.7,47.3 204.8,47.3 204.9,47.2 L205.5,46.9 C205.6,46.8 205.7,46.8 205.9,46.7 C206.1,46.6 206.3,46.5 206.5,46.5 C206.6,46.5 206.7,46.4 206.9,46.4 C207.1,46.3 207.4,46.2 207.6,46.2 C207.7,46.2 207.8,46.1 207.9,46.1 C208,46.1 208.2,46 208.4,46 C208.6,46 208.8,45.9 209,45.9 C209.2,45.9 209.3,45.9 209.5,45.8 C209.7,45.8 209.9,45.7 210.1,45.7 C210.3,45.7 210.5,45.7 210.7,45.6 L213.3,45.6 C213.7,45.6 214,45.7 214.4,45.8 C218.7,46.6 221.9,49.1 223.3,52.3 C223.3,52.8 223.4,53.2 223.4,53.7 L224.1,56.4 L227.4,57 L227.8,55.7 L228.2,57.2 L240.5,59.4 L277.7,66 L339.1,116.9 L343.5,120.6 L344.8,119.4 L345.2,120.9 L345.5,121.1 L351.1,125.7 L342.6,134.1 L337,129.9 L316.8,147.4 L315.9,148.1 L315.3,148.6 L314.1,149.7 L313.9,149.9 L314.6,152.6 L324,160 L332.1,166.4 L337.3,170.5 L354,183.6 L406.2,136.8 L405.6,134.4 L405.6,134.4 Z M199.3,40.7 L199.4,40.4 L199.5,40.7 L199.3,40.7 L199.3,40.7 Z M327.3,110.3 L326.7,107.7 L321,102.8 L317.1,106.2 L318,109.7 L323.1,114.1 L327.3,110.3 L327.3,110.3 Z M335.5,127.8 L334.8,125.1 L325.6,117.3 L315.6,108.9 L315.1,108.4 L306.3,101.1 L269.1,70.1 L255.4,67.6 L225.9,62.2 L225.5,63.5 L225.1,62 L220.2,61.1 C218.1,63.3 215.3,64.9 212.2,65.5 L207,81.1 L207.5,83.2 L206.3,83 L200.9,99.2 L201.6,101.9 C202,101.9 203.3,102 205.1,102.3 C209,103 214.9,104.8 217.3,109.8 C217.9,117.7 209.6,131.6 207.9,134.4 L208.6,137.1 L210.9,139.1 L221.7,148 L272.6,114.3 L271.9,111.6 L269.3,109.4 L247.5,91 L248.2,91.1 L271.5,110.9 L275.7,114.5 L286.4,123.7 L286.2,123.9 L285.7,124.3 L286.4,127 L288.5,128.7 L288.9,128.3 L289.5,127.7 L289.8,127.4 L290.3,126.9 L294.6,130.6 L313.6,146.9 L334.4,128.6 L335.5,127.8 L335.5,127.8 Z M218.9,85.3 L219,84.9 L219.1,85.3 L218.9,85.3 L218.9,85.3 Z M205.9,137.3 L205.3,136.8 C202.6,138.8 197.9,141.7 191.8,142.8 C188.8,143.3 185.5,143.4 181.9,142.8 C181.1,142.7 180.3,142.5 179.6,142.3 C171.8,140.3 168.2,136.1 166.6,133 C166.2,132.1 165.9,131.4 165.7,130.8 L166,130.7 L165.7,129.6 L165.7,122.9 C165.7,122.7 165.7,122.4 165.8,122.2 L165.8,122 C165.8,121.7 165.9,121.4 165.9,121 L165.9,120.9 C165.9,120.6 166,120.3 166,120 L166,119.7 C166,119.5 166.1,119.2 166.1,118.9 L166.1,118.6 C166.1,118.5 166.1,118.3 166.2,118.2 C166.3,117.8 166.3,117.4 166.4,117 C166.4,116.9 166.4,116.8 166.5,116.7 L166.8,115.2 C166.8,115.1 166.8,115 166.9,114.9 L167.2,113.7 C167.2,113.6 167.3,113.5 167.3,113.4 C167.4,112.9 167.6,112.4 167.7,112 C167.7,111.9 167.8,111.8 167.8,111.7 C167.9,111.3 168.1,110.9 168.2,110.5 C168.2,110.4 168.3,110.3 168.3,110.2 C168.5,109.7 168.7,109.3 168.8,108.9 C168.8,108.8 168.9,108.7 168.9,108.6 C169.1,108.2 169.2,107.9 169.4,107.5 C169.5,107.4 169.5,107.3 169.6,107.2 C169.8,106.8 170,106.4 170.3,106 L170.5,105.8 C170.7,105.5 170.9,105.2 171.1,105 C171.2,104.9 171.2,104.8 171.3,104.7 C171.6,104.4 171.8,104.1 172.1,103.8 L172.2,103.7 C172.5,103.4 172.8,103.2 173.1,103 C173.2,102.9 173.3,102.9 173.4,102.8 C173.6,102.7 173.7,102.6 173.9,102.5 C174.1,102.4 174.2,102.3 174.4,102.2 C174.8,102 175.2,101.8 175.5,101.7 C175.6,101.6 175.7,101.6 175.9,101.6 C176.1,101.5 176.4,101.4 176.6,101.3 C177.1,101.1 177.5,101 178,100.8 L178.1,100.8 C178.5,100.7 178.9,100.6 179.3,100.4 C179.4,100.4 179.5,100.3 179.6,100.3 C180.1,100.2 180.7,100 181.2,99.9 L181.3,99.9 C181.8,99.8 182.3,99.7 182.8,99.7 L188.7,99.7 C188.9,99.7 189.1,99.8 189.3,99.8 C189.7,99.9 190,99.9 190.2,100 L201.5,66 L200.8,63.3 C199.2,62.1 198,60.4 197.4,58.6 L197,56.9 L196.7,56.8 L179.4,53.7 L178.6,53.5 L177.3,53.3 L153.8,49.1 L151.1,49.9 L145.2,51.7 L124.4,58 L100.4,65.3 L98.2,66 L67.6,75.3 L58.8,78 L59.5,80.7 L66.6,102.5 L67.6,102.2 L75.4,99.8 L106.1,90.4 L108.1,89.9 L115.1,87.8 L116.8,87.3 L117.2,88.9 L148.3,139 L148.9,138.7 L149.4,140.8 C150.2,142.7 151,144.4 152,146.1 C156.8,154.5 164,159.6 177,161.9 C177.8,162 178.5,162.1 179.3,162.2 C179.5,162.2 179.7,162.3 179.9,162.3 C180.5,162.4 181.1,162.4 181.8,162.5 L182.3,162.5 C183.1,162.6 183.8,162.6 184.6,162.6 L187.5,162.6 C188.2,162.6 189,162.5 189.7,162.5 L189.9,162.5 C190.4,162.5 190.9,162.4 191.4,162.4 C191.6,162.4 191.7,162.4 191.9,162.3 C192.1,162.3 192.4,162.2 192.6,162.2 C193.2,162.1 193.7,162 194.3,162 C194.5,162 194.7,161.9 194.9,161.9 C195.6,161.8 196.4,161.6 197.1,161.5 C197.2,161.5 197.3,161.4 197.5,161.4 C197.9,161.3 198.4,161.2 198.8,161.1 C198.9,161.1 199,161 199.1,161 C199.8,160.8 200.5,160.6 201.2,160.4 C201.4,160.3 201.6,160.3 201.7,160.2 C202.6,159.9 203.4,159.6 204.3,159.3 C204.4,159.3 204.4,159.3 204.5,159.2 L205.1,158.9 C205.6,158.7 206.2,158.5 206.7,158.2 C207,158.1 207.3,157.9 207.6,157.8 C208.1,157.6 208.6,157.3 209,157.1 C209.1,157 209.3,157 209.5,156.9 C209.6,156.8 209.8,156.7 209.9,156.7 C210.4,156.4 210.8,156.2 211.3,155.9 C211.6,155.7 211.9,155.6 212.1,155.4 C212.6,155.1 213,154.8 213.5,154.5 C213.7,154.4 213.9,154.3 214,154.1 C214.1,154 214.2,154 214.3,153.9 C215,153.4 215.6,152.9 216.2,152.4 C216.3,152.3 216.4,152.2 216.5,152.2 C217.1,151.7 217.7,151.2 218.2,150.7 C218.3,150.7 218.3,150.6 218.4,150.6 L219,150 L218.3,147.3 L205.9,137.3 L205.9,137.3 Z M167.3,107.6 C167.3,107.7 167.3,107.8 167.2,107.8 C167.3,107.7 167.3,107.7 167.3,107.6 L167.3,107.6 Z M166.4,110.7 C166.4,110.8 166.4,110.8 166.3,110.9 C166.3,110.8 166.4,110.8 166.4,110.7 L166.4,110.7 Z M166.3,110.9 C166.3,110.9 166.3,111 166.2,111.1 C166.2,111.1 166.3,111 166.3,110.9 L166.3,110.9 Z M291.7,80.5 L291.1,77.9 L285.4,73 L281.5,76.4 L282.4,79.9 L287.5,84.3 L291.7,80.5 L291.7,80.5 Z M291.7,80.5" class="wall"/>
        </g>
        <g class="ceilings">
            <path class="unit" d="M204.8,136.5 L204.8,136.5 L205.4,137 L217.9,146.9 C216.4,148.3 214.9,149.7 213.2,150.9 C211.3,152.2 209.3,153.5 207.2,154.5 L197.8,140.6 C200.7,139.3 203.2,137.7 204.8,136.5 L204.8,136.5 L204.8,136.5 Z M204.8,136.5" id="1001"/>
            <path class="unit" d="M197.5,140.7 L206.9,154.6 C201.4,157.3 195.1,159 188.6,159.5 L188.7,142.8 C189.6,142.7 190.5,142.6 191.4,142.5 C193.5,142 195.6,141.4 197.5,140.7 L197.5,140.7 L197.5,140.7 Z M197.5,140.7" id="1002"/>
            <path class="unit" d="M164.2,124.4 C164.2,125.7 164.3,126.6 164.5,126.9 L164.7,127.6 L164.6,127.4 L163.8,127.8 L161.6,128.9 L157.3,131 L147,136 L143.6,130.4 L140.3,125.1 L140.1,124.9 L136.8,119.6 L164.2,124.4 L164.2,124.4 Z M164.2,124.4" id="1003"/>
            <path class="unit" d="M169.6,137.2 C171.2,138.7 173.5,140.1 176.4,141.1 L167.2,156.6 C160.8,154.3 156.3,150.9 152.9,146.2 L169.6,137.2 L169.6,137.2 Z M169.6,137.2" id="1004"/>
            <path class="unit" d="M142.1,154.3 L138.3,165.6 L120,162.4 L123.8,151.1 L142.1,154.3 L142.1,154.3 Z M142.1,154.3" id="1005"/>
            <path class="unit" d="M164.8,129.5 C164.8,129.7 164.9,130 165,130.2 C165.2,130.8 165.5,131.6 166,132.5 C166.7,133.9 167.8,135.4 169.4,136.9 L152.7,145.9 C152,145 151.4,144 150.8,142.9 C149.9,141.3 149,139.5 148.2,137.6 L149.9,136.7 L150.1,136.6 L163.7,129.9 L164.8,129.5 L164.8,129.5 Z M164.8,129.5" id="1006"/>
            <path class="unit" d="M213.6,150.8 C214.6,151.7 216.8,154 216.9,154 C217.9,155.4 216.3,156.4 216.3,156.4 C204.3,163.2 193.9,165.5 187.3,166.1 C180.5,166.8 176.2,166 175.7,165.9 C175.2,165.8 174.8,165.8 174.4,165.7 C150.3,161.5 144.5,147.6 144.4,147.4 C144.1,145.9 145.8,145.1 145.8,145.1 L150.3,142.8 L150.4,142.9 L150.8,143 C155.6,151.4 162.8,156.5 175.8,158.8 C175.9,158.8 176,158.8 176.2,158.9 C176.4,158.9 176.5,158.9 176.6,159 C176.8,159 176.9,159 177,159.1 C190.3,161.1 203.6,157.7 213.1,150.9 L213.4,150.9 L213.6,150.8 L213.6,150.8 Z M213.6,150.8" id="1007"/>
            <path class="unit" d="M188.4,142.8 L188.3,159.5 C184.6,159.8 180.8,159.6 177.1,159.1 C177.1,159.1 177.1,159.1 177,159.1 L176.7,159.1 L176.6,159.1 L176.3,159.1 L176.2,159.1 C176.1,159.1 176,159.1 175.8,159 C172.7,158.4 169.9,157.7 167.4,156.8 L176.6,141.3 C177.4,141.6 178.2,141.8 179,142 C179.7,142.2 180.5,142.4 181.3,142.5 C183.8,142.9 186.2,143 188.4,142.8 L188.4,142.8 L188.4,142.8 Z M188.4,142.8" id="1008"/>
            <path class="unit" d="M297,48 L303.7,53.6 L285,69.7 L278.3,64.1 L297,48 L297,48 Z M297,48" id="1009"/>
            <path class="unit" d="M303.8,53.7 L310.5,59.3 L291.9,75.4 L285.2,69.8 L303.8,53.7 L303.8,53.7 Z M303.8,53.7" id="1010"/>
            <path class="unit" d="M310.6,59.5 L317.3,65.1 L298.7,81.2 L292,75.6 L310.6,59.5 L310.6,59.5 Z M310.6,59.5" id="1011"/>
            <path class="unit" d="M270.3,70.7 L275,74.7 L279.9,78.8 L258,97.6 L253.1,93.5 L248.4,89.5 L270.3,70.7 L270.3,70.7 Z M270.3,70.7" id="1012"/>
            <path class="unit" d="M330.9,76.6 L317.4,65.2 L298.8,81.3 L312.3,92.7 L330.9,76.6 L330.9,76.6 Z M330.9,76.6" id="1013"/>
            <path class="unit" d="M280.1,79 L284.8,83 L262.9,101.8 L258.2,97.8 L280.1,79 L280.1,79 Z M280.1,79" id="1014"/>
            <path class="unit" d="M285,83.2 L289.7,87.2 L267.8,106 L263.1,102 L285,83.2 L285,83.2 Z M285,83.2" id="1016"/>
            <path class="unit" d="M289.8,87.3 L294.5,91.3 L272.6,110 L267.9,106 L289.8,87.3 L289.8,87.3 Z M289.8,87.3" id="1017"/>
            <path class="unit" d="M331.9,78 L331.9,78 L341.1,86.1 L323.3,101.7 L313.9,93.8 L331.9,78 L331.9,78 Z M331.9,78" id="1018"/>
            <path class="unit" d="M294.7,91.4 L299.4,95.4 L277.5,114.2 L272.8,110.2 L294.7,91.4 L294.7,91.4 Z M294.7,91.4" id="1019"/>
            <path class="unit" d="M341.7,86.3 L346.3,90.1 L328.4,105.9 L323.8,102.1 L341.7,86.3 L341.7,86.3 Z M341.7,86.3" id="1020"/>
            <path class="unit" d="M302.6,98.1 L299.6,95.6 L277.7,114.4 L281.1,117.1 L302.6,98.1 L302.6,98.1 Z M302.6,98.1" id="1021"/>
            <path class="unit" d="M346.5,90.2 L351.1,94 L333.3,109.8 L328.7,106 L346.5,90.2 L346.5,90.2 Z M346.5,90.2" id="1022"/>
            <path class="unit" d="M351.2,94.1 L355.8,97.9 L338,113.7 L333.4,109.9 L351.2,94.1 L351.2,94.1 Z M351.2,94.1" id="1023"/>
            <path class="unit" d="M305.8,100.8 L314.6,108.2 L293.3,127 L289.5,123.9 L288.8,124.5 L288.7,124.6 L288.6,124.7 L288,125.3 L287.6,125.7 L285.5,124 L286,123.6 L286.6,123 L286.7,122.9 L286.8,122.8 L287.4,122.2 L284.3,119.7 L305.8,100.8 L305.8,100.8 Z M305.8,100.8" id="1024"/>
            <path class="unit" d="M315.4,108.7 L320.1,112.7 L304.4,126.1 L299.7,122.1 L315.4,108.7 L315.4,108.7 Z M315.4,108.7" id="1025"/>
            <path class="unit" d="M356,98 L360.6,101.8 L342.8,117.6 L338.2,113.8 L356,98 L356,98 Z M356,98" id="1026"/>
            <path class="unit" d="M320.2,112.8 L324.9,116.8 L309.2,130.2 L304.5,126.2 L320.2,112.8 L320.2,112.8 Z M320.2,112.8" id="1027"/>
            <path class="unit" d="M325,116.9 L329.7,120.9 L314,134.3 L309.3,130.3 L325,116.9 L325,116.9 Z M325,116.9" id="1028"/>
            <path class="unit" d="M322.1,127.6 L314.1,134.5 L316.3,136.4 L324.4,129.5 L322.1,127.6 L322.1,127.6 Z M322.1,127.6" id="1029"/>
            <path class="unit" d="M299.5,122.3 L318.6,138.6 L312.4,143.9 L293.3,127.6 L299.5,122.3 L299.5,122.3 Z M299.5,122.3" id="1030"/>
            <path class="unit" d="M364.7,100 L384.5,116.7 L389.2,120.7 L389.7,120.2 L390.3,119.7 L390.5,119.5 L391.8,118.3 L393.9,120 L392.3,121.4 L391.8,121.8 L391.1,122.4 L405,134.1 L352.8,180.9 L336.1,167.8 L330.9,163.7 L322.8,157.3 L313.4,149.9 L313.6,149.7 L314.8,148.6 L315.4,148.1 L316.3,147.4 L336.5,129.9 L342.1,134.1 L351.8,124.5 L344.3,118.4 L344,118.2 L361.4,102.9 L362.2,102.2 L362.8,101.7 L364.7,100 L364.7,100 Z M364.7,100" id="1031"/>
            <path class="unit" d="M268.7,69.6 L259.5,77.5 L262.5,68.5 L268.7,69.6 L268.7,69.6 Z M268.7,69.6" id="1032"/>
            <path class="unit" d="M243,65.1 L236,86.1 L229.8,85 L236.8,64 L243,65.1 L243,65.1 Z M243,65.1" id="1033"/>
            <path class="unit" d="M249.4,66.2 L242.4,87.2 L236.2,86.1 L243.2,65.1 L249.4,66.2 L249.4,66.2 Z M249.4,66.2" id="1034"/>
            <path class="unit" d="M255.8,67.4 L253.8,67 L246.8,87.9 L247,88 L259.1,77.8 L262.2,68.5 L255.8,67.4 L255.8,67.4 Z M255.8,67.4" id="1035"/>
            <path class="unit" d="M245.9,89.8 L245.8,90.1 L215.9,106.2 C215.2,104.9 214.2,103.8 213.1,102.9 L219.1,84.9 L245.9,89.8 L245.9,89.8 Z M245.9,89.8" id="1036"/>
            <path class="unit" d="M245.7,90.3 L236.8,116.9 L216.5,113.3 C216.9,110.9 216.9,108.7 216.2,107.1 C216.1,106.8 216,106.6 215.8,106.3 L245.7,90.3 L245.7,90.3 Z M245.7,90.3" id="1037"/>
            <path class="unit" d="M246.3,90 L268.9,109.1 L271.5,111.3 L257.5,120.6 L237,117 L246,90.2 L246.3,90 L246.3,90 Z M246.3,90" id="1038"/>
            <path class="unit" d="M257.3,120.7 L220.5,145.1 L206.5,134 C208.8,130.1 213.3,123.1 216.6,113.5 L236.9,117.1 L237,117.1 L257.3,120.7 L257.3,120.7 Z M257.3,120.7" id="1039"/>
            <path class="unit" d="M235.8,63.6 L228.6,85.2 L223.5,84.3 L230.7,62.7 L235.8,63.6 L235.8,63.6 Z M235.8,63.6" id="1040"/>
            <path class="unit" d="M218.5,62 L211.9,81.8 L206.5,80.8 L211.7,65.2 C214.2,64.8 216.6,63.6 218.5,62 L218.5,62 L218.5,62 Z M218.5,62" id="1041"/>
            <path class="unit" d="M219.7,60.9 L224.6,61.8 L217.6,82.8 L212.2,81.8 L218.9,61.7 C219.1,61.4 219.4,61.2 219.7,60.9 L219.7,60.9 L219.7,60.9 Z M219.7,60.9" id="1042"/>
            <path class="unit" d="M230.5,62.6 L223.3,84.2 L218.2,83.3 L225.4,61.7 L230.5,62.6 L230.5,62.6 Z M230.5,62.6" id="1043"/>
            <path class="unit" d="M197.3,59.6 C196.8,58.7 196.5,57.7 196.3,56.6 L196,56.5 L189.3,55.3 L182.2,76.5 L191.1,78.1 L197.3,59.6 L197.3,59.6 Z M197.3,59.6" id="1045"/>
            <path class="unit" d="M197.5,59.9 C198.2,61.1 199.1,62.2 200.2,63 L194.9,78.8 L191.3,78.2 L197.5,59.9 L197.5,59.9 Z M197.5,59.9" id="1047"/>
            <path class="unit" d="M197.4,30.2 L191.5,47.7 L194.5,48.2 L200.3,30.7 L197.4,30.2 L197.4,30.2 Z M197.4,30.2" id="1048"/>
            <path class="unit" d="M248.7,22.3 L244.2,36.7 L243.9,37.6 L243.6,37.5 L232.7,35.6 L232.6,35.8 L229.3,44.5 L198.7,39.1 L201.4,30 L189.2,28 L189.2,27.7 L193.9,12.6 L194.2,12.7 L248.7,22.3 L248.7,22.3 Z M248.7,22.3" id="1049"/>
            <path class="unit" d="M214.5,43.1 L229.1,45.8 L226.3,54.3 L223,53.7 C223.2,48.7 219.6,44.4 213.9,43.2 L214,43 L214.5,43.1 L214.5,43.1 Z M214.5,43.1" id="1050"/>
            <path class="unit" d="M236.2,37.3 L230.3,55 L227,54.4 L232.9,36.7 L236.2,37.3 L236.2,37.3 Z M236.2,37.3" id="1051"/>
            <path class="unit" d="M213.6,42.9 L213.5,43.1 C213.4,43.1 213.3,43.1 213.2,43 C207.3,42 201.1,44.6 198,49.2 L195.4,48.7 L198.2,40.2 L213.6,42.9 L213.6,42.9 Z M213.6,42.9" id="1052"/>
            <path class="unit" d="M239.7,37.9 L233.8,55.6 L230.5,55 L236.4,37.3 L239.7,37.9 L239.7,37.9 Z M239.7,37.9" id="1053"/>
            <path class="unit" d="M243.2,38.5 L237.3,56.2 L234,55.6 L240,38 L243.2,38.5 L243.2,38.5 Z M243.2,38.5" id="1054"/>
            <path class="unit" d="M273.7,43.6 L267.7,61.6 L260.8,60.4 L266.8,42.4 L273.7,43.6 L273.7,43.6 Z M273.7,43.6" id="1056"/>
            <path class="unit" d="M266.6,42.3 L260.6,60.3 L253.7,59.1 L259.7,41.1 L266.6,42.3 L266.6,42.3 Z M266.6,42.3" id="1057"/>
            <path class="unit" d="M295.2,47.4 L277.4,63.4 L275.1,63 L281.1,45 L286.6,46 L288,46.2 L295.2,47.4 L295.2,47.4 Z M295.2,47.4" id="1058"/>
            <path class="unit" d="M280.9,44.8 L274.9,62.8 L268,61.6 L274,43.6 L280.9,44.8 L280.9,44.8 Z M280.9,44.8" id="1059"/>
            <path class="unit" d="M178.7,53.4 L171.6,74.7 L163,73.2 L170.1,51.9 L178.7,53.4 L178.7,53.4 Z M178.7,53.4" id="1060"/>
            <path class="unit" d="M143.2,20.9 L148,40.6 L141,42.7 L134.7,23.5 L143.2,20.9 L143.2,20.9 Z M143.2,20.9" id="1061"/>
            <path class="unit" d="M134,23.8 L140.3,42.9 L140.4,43.2 L129.1,46.3 L122.5,27 L122.5,26.9 L127.3,25.6 L134,23.8 L134,23.8 Z M134,23.8" id="1062"/>
            <path class="unit" d="M121.9,27 L128.1,46.4 L121.9,48.2 L115.7,28.8 L121.9,27 L121.9,27 Z M121.9,27" id="1063"/>
            <path class="unit" d="M115.5,28.9 L121.7,48.3 L116.6,49.8 L109.1,52 L103,32.7 L109.9,30.6 L115.5,28.9 L115.5,28.9 Z M115.5,28.9" id="1064"/>
            <path class="unit" d="M102.8,32.7 L109,52.1 L102.8,53.9 L96.6,34.5 L102.8,32.7 L102.8,32.7 Z M102.8,32.7" id="1065"/>
            <path class="unit" d="M96.4,34.6 L102.6,54 L96.4,55.8 L90.2,36.4 L96.4,34.6 L96.4,34.6 Z M96.4,34.6" id="1066"/>
            <path class="unit" d="M82.6,38.7 L89,58.1 L56.4,67.8 L55.2,68.2 L48.9,48.8 L73.6,41.4 L82.6,38.7 L82.6,38.7 Z M82.6,38.7" id="1067"/>
            <path class="unit" d="M186.4,79.3 L180.6,96.7 C180.1,96.8 179.5,96.9 178.9,97 L172.7,95.9 L178.7,77.9 L186.4,79.3 L186.4,79.3 Z M186.4,79.3" id="1068"/>
            <path class="unit" d="M166,109.8 C165.6,111.3 165.3,112.8 165,114.3 L129.9,108.1 L126.6,102.8 L166,109.8 L166,109.8 Z M166,109.8" id="1069"/>
            <path class="unit" d="M165,114.6 C164.7,116.2 164.6,117.8 164.4,119.2 L133.3,113.7 L130,108.4 L165,114.6 L165,114.6 Z M165,114.6" id="1070"/>
            <path class="unit" d="M59.2,86.8 L60.7,91.4 L41.3,97.2 L39.7,92.3 L59.2,86.8 L59.2,86.8 Z M59.2,86.8" id="1071"/>
            <path class="unit" d="M143.2,51.8 L150.3,73.5 L144.3,75.3 L137.2,53.6 L143.2,51.8 L143.2,51.8 Z M143.2,51.8" id="1072"/>
            <path class="unit" d="M137,53.7 L144.1,75.4 L138.1,77.2 L131,55.6 L137,53.7 L137,53.7 Z M137,53.7" id="1073"/>
            <path class="unit" d="M130.7,55.6 L137.8,77.3 L131.8,79.1 L124.7,57.4 L130.7,55.6 L130.7,55.6 Z M130.7,55.6" id="1074"/>
            <path class="unit" d="M124.5,57.6 L131.6,79.3 L125.6,81.1 L118.5,59.4 L124.5,57.6 L124.5,57.6 Z M124.5,57.6" id="1075"/>
            <path class="unit" d="M111.9,61.4 L119,83.1 L113,84.9 L105.9,63.2 L111.9,61.4 L111.9,61.4 Z M111.9,61.4" id="1076"/>
            <path class="unit" d="M105.7,63.3 L112.8,85 L106.8,86.8 L99.7,65.1 L105.7,63.3 L105.7,63.3 Z M105.7,63.3" id="1077"/>
            <path class="unit" d="M98,65.5 L105.4,87.3 L101.7,88.5 L94.3,66.7 L98,65.5 L98,65.5 Z M98,65.5" id="1078"/>
            <path class="unit" d="M169.8,51.9 L162.7,73.2 L157.9,72.4 L152.2,49.2 L153,49 L169.8,51.9 L169.8,51.9 Z M169.8,51.9" id="1079"/>
            <path class="unit" d="M94.1,66.7 L101.5,88.5 L97.8,89.7 L90.4,67.9 L94.1,66.7 L94.1,66.7 Z M94.1,66.7" id="1080"/>
            <path class="unit" d="M90.1,67.9 L97.5,89.7 L93.8,90.9 L86.4,69.1 L90.1,67.9 L90.1,67.9 Z M90.1,67.9" id="1081"/>
            <path class="unit" d="M86.2,69.1 L93.6,90.9 L89.9,92.1 L82.5,70.4 L86.2,69.1 L86.2,69.1 Z M86.2,69.1" id="1082"/>
            <path class="unit" d="M82.3,70.4 L89.7,92.1 L86,93.3 L78.6,71.6 L82.3,70.4 L82.3,70.4 Z M82.3,70.4" id="1083"/>
            <path class="unit" d="M85.7,93.4 L78.3,71.6 L74.6,72.8 L81.8,94.6 L85.7,93.4 L85.7,93.4 Z M85.7,93.4" id="1084"/>
            <path class="unit" d="M70.5,74.1 L77.9,95.9 L74.1,97 L66.7,75.2 L70.5,74.1 L70.5,74.1 Z M70.5,74.1" id="1085"/>
            <path class="unit" d="M63.5,76.1 L70.7,97.9 L66.5,99.2 L65.5,99.5 L58.4,77.7 L63.5,76.1 L63.5,76.1 Z M63.5,76.1" id="1086"/>
            <path class="unit" d="M60.7,91.5 L62.5,97.2 L63.6,100.8 L44.2,106.6 L43.1,103.1 L41.2,97.3 L60.7,91.5 L60.7,91.5 Z M60.7,91.5" id="1087"/>
            <path class="unit" d="M59.1,86.7 L56.4,78.5 L50.9,62.3 L47.4,51.8 L5.4,63.8 L22.8,113.1 L44.2,106.7 L39.6,92.2 L59.1,86.7 L59.1,86.7 Z M59.1,86.7" id="1088"/>
            <path class="unit" d="M155,74 L149,91.8 L116,86 L115.9,85.9 L155,74 L155,74 Z M155,74" id="1089"/>
            <path class="unit" d="M162.8,75.2 L156.8,93.2 L149.2,91.9 L155.2,74 L155.4,73.9 L162.8,75.2 L162.8,75.2 Z M162.8,75.2" id="1090"/>
            <path class="unit" d="M170.7,76.6 L164.7,94.6 L157.1,93.3 L163.1,75.3 L170.7,76.6 L170.7,76.6 Z M170.7,76.6" id="1091"/>
            <path class="unit" d="M178.6,78 L172.6,96 L165,94.7 L171,76.7 L178.6,78 L178.6,78 Z M178.6,78" id="1092"/>
            <path class="unit" d="M178.4,97.2 C176.7,97.6 174.8,98.2 172.9,99.2 C172.2,99.6 171.5,100 170.9,100.6 L119.5,91.5 L116.2,86.2 L149,92 L178.4,97.2 L178.4,97.2 Z M178.4,97.2" id="1093"/>
            <path class="unit" d="M123.2,97.2 L167.7,105 L167.8,105 C168.6,103.4 169.6,101.9 170.7,100.8 L170.7,100.8 L119.7,91.8 L123.2,97.2 L123.2,97.2 Z M123.2,97.2" id="1094"/>
            <path class="unit" d="M167.5,105.2 L123.1,97.4 L123.1,97.5 L124.6,99.9 L126.3,102.7 L165.9,109.7 C166.3,108.2 166.9,106.6 167.5,105.2 L167.5,105.2 L167.5,105.2 Z M167.5,105.2" id="1110"/>
            <path class="unit" d="M194.6,29.7 L188.8,47.2 L183.2,46.2 L189,28.7 L194.6,29.7 L194.6,29.7 Z M194.6,29.7" id="1095"/>
            <path class="unit" d="M187.1,28.3 L181.1,46.2 L176.2,45.3 L182.2,27.4 L187.1,28.3 L187.1,28.3 Z M187.1,28.3" id="1096"/>
            <path class="unit" d="M181.9,27.4 L175.9,45.3 L171,44.4 L177,26.6 L181.9,27.4 L181.9,27.4 Z M181.9,27.4" id="1097"/>
            <path class="unit" d="M176.6,26.4 L161.2,23.7 L155.2,41.5 L170.6,44.2 L176.6,26.4 L176.6,26.4 Z M176.6,26.4" id="1098"/>
            <path class="unit" d="M160.9,23.7 L154.9,41.6 L150,40.7 L145.3,21 L160.9,23.7 L160.9,23.7 Z M160.9,23.7" id="1099"/>
            <path class="unit" d="M70.7,74 L78,95.8 L81.6,94.7 L74.4,72.9 L70.7,74 L70.7,74 Z M70.7,74" id="1100"/>
            <path class="unit" d="M150.3,49.7 L155.7,72.2 L150.6,73.5 L143.5,51.8 L150.3,49.7 L150.3,49.7 Z M150.3,49.7" id="1102"/>
            <path class="unit" d="M118.2,59.5 L125.3,81.2 L119.3,83 L112.2,61.3 L118.2,59.5 L118.2,59.5 Z M118.2,59.5" id="1103"/>
            <path class="unit" d="M88.1,37.1 L94.6,56.5 L89.2,58.1 L82.8,38.7 L88.1,37.1 L88.1,37.1 Z M88.1,37.1" id="1104"/>
            <path class="unit" d="M194.3,80.7 L188.9,97 C188.7,96.9 188.4,96.9 188,96.8 C186.4,96.5 183.9,96.3 180.9,96.7 L186.7,79.4 L194.3,80.7 L194.3,80.7 Z M194.3,80.7" id="1105"/>
            <path class="unit" d="M164.4,119.4 C164.3,121.2 164.2,122.8 164.3,124.1 L136.8,119.3 L133.5,114 L164.4,119.4 L164.4,119.4 Z M164.4,119.4" id="1106"/>
            <path class="unit" d="M110.9,157 L107.6,166.7 L82.4,162.3 L85.7,152.6 L110.9,157 L110.9,157 Z M110.9,157" id="1107"/>
            <path class="unit" d="M59.4,122.2 L89.9,127.8 L81.4,152.4 L50.8,147 L59.4,122.2 L59.4,122.2 Z M59.4,122.2" id="1108"/>
            <path class="unit" d="M206.7,100 L211.4,83.9 L211.5,83.7 L218.9,85.1 L212.9,103 C210.8,101.4 208.9,100.6 206.7,100" id="1109"/>
            <path class="unit" d="M211,83.8 L206.1,99.7 L206,99.9 C205.3,99.7 204.6,99.5 204,99.4 C202.2,99.1 200.8,99 200.5,99 L200.4,99 L205.8,82.8 L211,83.8 L211,83.8 Z M211,83.8" id="1044"/>
            <path class="unit" d="M251.8,39.6 L245.8,57.6 L238.9,56.4 L244.9,38.4 L251.8,39.6 L251.8,39.6 Z M251.8,39.6" id="1055"/>
            <path class="unit" d="M259.2,41 L253.2,59 L246.3,57.8 L252.3,39.8 L259.2,41 L259.2,41 Z M259.2,41" id="1111"/>
            <path class="unit" d="M46.5,49.1 L4.4,61 L5.3,63.4 L47.3,51.4 L46.5,49.1 L46.5,49.1 Z M46.5,49.1" id="1112"/>
            <path class="unit" d="M302.7,98.2 L281.1,117.1 L284.1,119.5 L305.8,100.7 L302.7,98.2 L302.7,98.2 Z M302.7,98.2" id="1113"/>
            <path class="unit" d="M332.1,122.9 L329.8,121 L322.2,127.5 L324.5,129.4 L332.1,122.9 L332.1,122.9 Z M332.1,122.9" id="1114"/>
            <path class="unit" d="M332.2,123 L324.6,129.5 L327,131.5 L334.6,125 L332.2,123 L332.2,123 Z M332.2,123" id="1116"/>
            <path class="unit" d="M324.5,129.5 L316.4,136.4 L318.8,138.4 L326.9,131.5 L324.5,129.5 L324.5,129.5 Z M324.5,129.5" id="1117"/>
            <path class="unit" d="M249.6,66.3 L242.6,87.3 L246.6,88 L253.6,67 L249.6,66.3 L249.6,66.3 Z M249.6,66.3" id="1118"/>
            <path class="unit" d="M194.8,29.8 L189,47.3 L191.5,47.7 L197.4,30.2 L194.8,29.8 L194.8,29.8 Z M194.8,29.8" id="1119"/>
            <path class="unit" d="M321,102.8 L326.7,107.7 L323,111.1 L317.1,106.2 L321,102.8 L321,102.8 Z M321,102.8" id="1120"/>
            <path class="unit" d="M20.5,28.6 L17.2,38.3 L5.4,36.2 L8.8,26.5 L20.5,28.6 L20.5,28.6 Z M20.5,28.6" id="1121"/>
            <path class="unit" d="M181.1,53.9 L174,75.1 L182,76.6 L189.1,55.3 L181.1,53.9 L181.1,53.9 Z M181.1,53.9" id="1122"/>
            <path class="unit" d="M285.4,73 L291.1,77.9 L287.4,81.3 L281.5,76.4 L285.4,73 L285.4,73 Z M285.4,73" id="1123"/>
        </g>
    </g>
</svg>