<?xml version="1.0" encoding="utf-8"?>
<!DOCTYPE svg PUBLIC "-//W3C//DTD SVG 1.1//EN" "http://www.w3.org/Graphics/SVG/1.1/DTD/svg11.dtd">
<svg version="1.1" xmlns="http://www.w3.org/2000/svg" xmlns:xlink="http://www.w3.org/1999/xlink" xml:space="preserve">
<g class="level" id="level1">
        <g class="outline">
            <path d="M408.5,16.7 L408.3,15.9 L407.4,13 L407,11.6 L405.5,11.3 L350.5,1.7 L348.4,1.3 L347.7,3.3 L344.8,11.8 L321.5,7.4 L319.4,7 L318.7,9 L311.3,31.3 L311.1,32 L311.3,32.7 L312.2,35.7 L312.6,37.1 L314.1,37.4 L335,41 L333,46.9 L330.2,46.4 L328.1,46 L327.4,48 L326.1,52 L325.8,52.8 L326,53.6 L326.9,56.3 L327.3,57.7 L328.7,58 L329.1,58.1 L315.4,99.1 L315.2,99.8 L315.4,100.5 L316.2,103.4 L316.6,104.9 L318.1,105.2 L325.3,106.5 L323.4,112.4 L323.2,112.6 L293.2,87.6 L293.1,87.5 L292.9,87.4 L291.9,86.8 L291.5,86.6 L291.1,86.5 L243.1,78.1 L247.4,65.2 L247.6,64.5 L247.4,63.8 L246.5,60.9 L246.1,59.5 L244.6,59.2 L191,49.5 L188.9,49.1 L188.2,51.1 L182.5,68.1 L141.2,60.8 L140.7,60.7 L140.2,60.8 L138.3,61.2 L138.2,61.2 L138.1,61.2 L2.9,101 L0.5,101.7 L1.3,104.1 L20,159.1 L20.8,161.3 L23.1,160.6 L110.9,133.7 L139.2,179 C143.3,189.6 153.6,202.8 169.4,205.6 C172.4,206.1 175.4,206.4 178.5,206.4 C192.2,206.4 205.5,201.2 214,192.4 L266.9,158.6 L301.7,188 L301.6,188.1 L301.9,189.3 L302.6,192.4 L302.8,193.2 L303.4,193.7 L339,224.4 L340.6,225.8 L342.2,224.4 L396.6,176.2 L397.7,175.2 L397.3,173.8 L396.6,171.2 L396.4,170.5 L395.8,170 L360.3,139.1 L358.7,137.7 L357.1,139.1 L356.2,139.9 L335.3,122.4 L335.4,122.2 L339.5,109.5 L373,115.5 L375.1,115.9 L375.8,113.9 L390.8,68.9 L392.5,69.2 L394.6,69.6 L395.3,67.6 L396.5,63.9 L396.7,63.2 L396.5,62.4 L395.6,59.5 L395,58 L394.1,57.8 L408.2,17.5 L408.5,16.7 L408.5,16.7 Z M178.4,204.1 C177.5,204.1 176.7,204.1 175.8,204 C176.7,204 177.6,204 178.4,204.1 C178.5,204 178.4,204.1 178.4,204.1 L178.4,204.1 L178.4,204.1 Z M178.4,204.1" class="outline"/>
        </g>
        <g class="label">
            <path d="M18.9,43.5 C18.6,43.1 18.3,42.8 17.9,42.5 C19.3,42 20.3,41 20.3,39.5 C20.3,37.6 19,36.3 16.1,36.3 C15,36.3 14.2,36.4 13.7,36.6 C13.3,36.7 13.2,37 13.2,37.4 L13.2,47.1 C13.2,47.5 13.5,47.7 13.8,47.7 C14.2,47.7 14.4,47.5 14.4,47.1 L14.4,42.9 L15.6,42.9 C16.8,42.9 17.2,43.4 17.8,44.3 C18.2,44.9 18.6,45.9 19.1,47.3 C19.2,47.6 19.4,47.7 19.7,47.7 C20,47.7 20.3,47.5 20.3,47.1 C20.3,47 20.3,46.8 20.2,46.7 C19.9,45.5 19.4,44.3 18.9,43.5 L18.9,43.5 L18.9,43.5 Z M15.8,41.7 L14.4,41.7 L14.4,37.7 C14.8,37.6 15.3,37.6 16,37.6 C18.3,37.6 19,38.5 19,39.7 C19,41.3 17.4,41.7 15.8,41.7 L15.8,41.7 L15.8,41.7 Z M10.2,36.4 C9.8,36.4 9.6,36.7 9.6,37.1 L9.6,47.1 C9.6,47.5 9.9,47.7 10.2,47.7 C10.6,47.7 10.8,47.5 10.8,47.1 L10.8,37.1 C10.8,36.7 10.6,36.4 10.2,36.4 L10.2,36.4 L10.2,36.4 Z M7.4,36.5 L2.7,36.5 C2,36.5 1.6,36.9 1.6,37.5 L1.6,47.2 C1.6,47.6 1.9,47.8 2.2,47.8 C2.6,47.8 2.8,47.6 2.8,47.2 L2.8,42.9 L6.7,42.9 C7.1,42.9 7.3,42.6 7.3,42.3 C7.3,42 7.1,41.7 6.7,41.7 L2.9,41.7 L2.9,37.8 L7.4,37.8 C7.8,37.8 8.1,37.5 8.1,37.2 C8,36.8 7.8,36.5 7.4,36.5 L7.4,36.5 L7.4,36.5 Z M36.7,36.5 L29.8,36.5 C29.4,36.5 29.2,36.8 29.2,37.1 C29.2,37.4 29.4,37.7 29.8,37.7 L32.6,37.7 L32.6,47.1 C32.6,47.5 32.9,47.7 33.2,47.7 C33.5,47.7 33.8,47.5 33.8,47.1 L33.8,37.7 L36.7,37.7 C37.1,37.7 37.3,37.4 37.3,37.1 C37.2,36.8 37,36.5 36.7,36.5 L36.7,36.5 L36.7,36.5 Z M25.5,41.3 C24.1,40.8 23.3,40.4 23.3,39.2 C23.3,38.1 24.2,37.5 25.3,37.5 C26,37.5 26.5,37.6 27,37.8 C27.2,37.8 27.3,37.9 27.5,37.9 C27.8,37.9 28.1,37.7 28.1,37.3 C28.1,37.1 28,36.9 27.6,36.7 C27.1,36.5 26.2,36.3 25.5,36.3 C23.3,36.3 22,37.6 22,39.3 C22,40.9 23.1,41.7 24.7,42.3 C26.8,43.1 27.4,43.7 27.4,44.7 C27.4,45.8 26.5,46.6 25.1,46.6 C24.2,46.6 23.4,46.3 22.9,45.9 C22.6,45.7 22.5,45.6 22.3,45.6 C22,45.6 21.7,45.8 21.7,46.1 C21.7,46.4 21.8,46.6 22.1,46.7 C22.8,47.2 23.9,47.7 25.1,47.7 C27.3,47.7 28.7,46.4 28.7,44.6 C28.6,43 27.3,42 25.5,41.3 L25.5,41.3 L25.5,41.3 Z M71.9,36.3 C69,36.3 67.2,38.6 67.2,42.2 C67.2,45.6 69,47.7 71.9,47.7 C74.8,47.7 76.6,45.3 76.6,41.7 C76.6,38.4 74.8,36.3 71.9,36.3 L71.9,36.3 L71.9,36.3 Z M71.9,46.6 C69.8,46.6 68.5,44.9 68.5,42.3 C68.5,39.3 69.7,37.5 71.9,37.5 C74.1,37.5 75.3,39.2 75.3,41.7 C75.3,44.7 74.1,46.6 71.9,46.6 L71.9,46.6 L71.9,46.6 Z M85.6,46.7 C85.2,45.5 84.7,44.3 84.2,43.6 C83.9,43.2 83.6,42.9 83.2,42.6 C84.6,42.1 85.6,41.1 85.6,39.6 C85.6,37.7 84.3,36.4 81.4,36.4 C80.3,36.4 79.5,36.5 79,36.7 C78.6,36.8 78.5,37.1 78.5,37.5 L78.5,47.2 C78.5,47.6 78.8,47.8 79.1,47.8 C79.5,47.8 79.7,47.6 79.7,47.2 L79.7,43 L80.9,43 C82.1,43 82.5,43.5 83.1,44.4 C83.5,45 83.9,46 84.4,47.4 C84.5,47.7 84.7,47.8 85,47.8 C85.3,47.8 85.6,47.6 85.6,47.2 C85.7,47 85.7,46.8 85.6,46.7 L85.6,46.7 L85.6,46.7 Z M81.1,41.7 L79.7,41.7 L79.7,37.7 C80.1,37.6 80.6,37.6 81.3,37.6 C83.6,37.6 84.3,38.5 84.3,39.7 C84.3,41.3 82.7,41.7 81.1,41.7 L81.1,41.7 L81.1,41.7 Z M55.5,46.5 L51.2,46.5 L51.2,37.1 C51.2,36.7 50.9,36.4 50.6,36.4 C50.2,36.4 50,36.7 50,37.1 L50,46.7 C50,47.3 50.4,47.7 51.1,47.7 L55.6,47.7 C56,47.7 56.3,47.4 56.3,47.1 C56.2,46.7 55.9,46.5 55.5,46.5 L55.5,46.5 L55.5,46.5 Z M61.2,36.3 C58.3,36.3 56.5,38.6 56.5,42.2 C56.5,45.6 58.3,47.7 61.2,47.7 C64.1,47.7 65.9,45.3 65.9,41.7 C65.9,38.4 64.1,36.3 61.2,36.3 L61.2,36.3 L61.2,36.3 Z M61.2,46.6 C59.1,46.6 57.8,44.9 57.8,42.3 C57.8,39.3 59,37.5 61.2,37.5 C63.4,37.5 64.6,39.2 64.6,41.7 C64.6,44.7 63.4,46.6 61.2,46.6 L61.2,46.6 L61.2,46.6 Z M47.8,36.5 L43.1,36.5 C42.4,36.5 42,36.9 42,37.5 L42,47.2 C42,47.6 42.3,47.8 42.6,47.8 C43,47.8 43.2,47.6 43.2,47.2 L43.2,42.9 L47.1,42.9 C47.5,42.9 47.7,42.6 47.7,42.3 C47.7,42 47.5,41.7 47.1,41.7 L43.2,41.7 L43.2,37.8 L47.7,37.8 C48.1,37.8 48.4,37.5 48.4,37.2 C48.4,36.8 48.2,36.5 47.8,36.5 L47.8,36.5 L47.8,36.5 Z M47.8,36.5" class="Shape"/>
            <path d="M410.6,122.9 C410.7,122.5 410.9,122.2 411.1,121.9 C411.2,121.7 411.4,121.6 411.6,121.5 C411.8,121.4 412,121.4 412.2,121.5 C412.4,121.6 412.6,121.7 412.8,121.9 L413.4,121.1 C413.1,120.8 412.9,120.6 412.5,120.5 C412.3,120.4 412.1,120.4 411.9,120.5 C411.7,120.6 411.4,120.8 411.1,121.1 L411.4,120.3 L410.6,120 L408.9,125.5 L409.8,125.8 L410.6,122.9 L410.6,122.9 Z M407,96.8 C407,97 407.1,97.2 407.3,97.3 C407.5,97.5 407.7,97.6 408,97.7 C408.2,97.8 408.4,97.8 408.7,97.8 L408.8,96.9 C408.6,96.9 408.5,96.8 408.4,96.8 C408.3,96.8 408.2,96.7 408.1,96.6 C408,96.5 408,96.5 408,96.4 C408,96.3 408,96.1 408.1,95.9 L409.1,92.7 L410,93 L410.2,92.3 L409.3,92 L409.9,90.1 L408.8,90.4 L408.4,91.8 L407.7,91.6 L407.5,92.3 L408.2,92.5 L407.2,95.6 C407.1,96.2 407,96.6 407,96.8 L407,96.8 L407,96.8 Z M410.6,111.5 C410.5,111.8 410.5,112 410.6,112.2 L411.6,112.5 C411.5,112.3 411.5,112 411.6,111.8 C411.6,111.6 411.8,111 412,110.2 L412.4,109 C412.5,108.6 412.6,108.3 412.6,108.1 C412.6,107.8 412.6,107.6 412.5,107.4 C412.4,107.2 412.2,107 412,106.8 C411.7,106.6 411.4,106.4 410.9,106.3 C410.4,106.2 410,106.1 409.6,106.1 C409.2,106.1 408.9,106.2 408.6,106.4 C408.3,106.6 408.1,106.9 407.9,107.2 L408.8,107.6 C409,107.2 409.3,107 409.5,106.9 C409.8,106.8 410.1,106.8 410.5,107 C411,107.1 411.3,107.4 411.5,107.6 C411.6,107.8 411.6,108.1 411.5,108.5 C411.5,108.5 411.5,108.6 411.4,108.7 C411,108.7 410.4,108.7 409.7,108.5 C409.3,108.4 409,108.4 408.8,108.4 C408.5,108.4 408.3,108.4 408,108.5 C407.8,108.6 407.5,108.7 407.4,108.9 C407.2,109.1 407.1,109.3 407,109.6 C406.9,110.1 406.9,110.5 407.1,110.9 C407.3,111.3 407.7,111.6 408.3,111.8 C408.7,111.9 409,112 409.4,111.9 C409.8,111.8 410.2,111.7 410.6,111.5 L410.6,111.5 L410.6,111.5 Z M408.8,111.1 C408.4,111 408.2,110.8 408.1,110.6 C408,110.4 407.9,110.1 408,109.9 C408,109.7 408.1,109.6 408.3,109.5 C408.4,109.4 408.6,109.3 408.8,109.3 C409,109.3 409.3,109.3 409.7,109.4 C410.4,109.5 410.9,109.5 411.3,109.5 L411.2,109.8 C411.1,110.2 410.9,110.5 410.8,110.7 C410.6,110.9 410.3,111.1 410,111.2 C409.5,111.2 409.1,111.2 408.8,111.1 L408.8,111.1 L408.8,111.1 Z M424.2,88.6 C424.5,89 424.9,89.2 425.3,89.3 C426,89.5 426.6,89.4 427.1,89 L426.9,89.7 L427.8,90 L430.1,82.5 L429.2,82.2 L428.4,84.9 C428.3,84.6 428.2,84.4 427.9,84.2 C427.7,84 427.4,83.8 427.1,83.7 C426.7,83.6 426.2,83.6 425.8,83.7 C425.4,83.8 425,84.1 424.7,84.5 C424.4,84.9 424.1,85.4 424,85.9 C423.8,86.5 423.8,87 423.8,87.5 C423.7,87.8 423.9,88.2 424.2,88.6 L424.2,88.6 L424.2,88.6 Z M424.8,86 C425,85.3 425.3,84.8 425.7,84.5 C426.1,84.2 426.5,84.2 426.9,84.3 C427.3,84.4 427.6,84.7 427.8,85.1 C428,85.5 428,86.1 427.7,86.9 C427.5,87.6 427.2,88 426.8,88.3 C426.4,88.5 426,88.6 425.6,88.5 C425.2,88.4 424.9,88.1 424.7,87.7 C424.5,87.3 424.6,86.7 424.8,86 L424.8,86 L424.8,86 Z M402.9,96.3 C403.4,96.4 403.8,96.5 404.3,96.4 C404.8,96.3 405.2,96.1 405.5,95.7 C405.8,95.4 406.1,94.8 406.3,94.1 C406.6,93.2 406.5,92.5 406.2,91.8 C405.9,91.2 405.3,90.7 404.6,90.5 C403.9,90.3 403.3,90.3 402.7,90.6 C402,90.9 401.5,91.6 401.2,92.6 C400.9,93.5 400.9,94.3 401.3,94.9 C401.6,95.6 402.2,96 402.9,96.3 L402.9,96.3 L402.9,96.3 Z M402.2,92.9 C402.4,92.2 402.7,91.7 403.1,91.5 C403.5,91.2 403.9,91.2 404.4,91.3 C404.9,91.4 405.2,91.7 405.4,92.2 C405.6,92.6 405.6,93.2 405.4,93.9 C405.2,94.6 404.9,95.1 404.5,95.4 C404.1,95.7 403.7,95.7 403.2,95.6 C402.7,95.5 402.4,95.2 402.2,94.7 C402,94.2 402,93.6 402.2,92.9 L402.2,92.9 L402.2,92.9 Z M411.8,90.6 L409.5,98.1 L410.4,98.4 L410.6,97.7 C410.8,98.3 411.2,98.8 411.9,99 C412.5,99.2 413.2,99.1 413.8,98.7 C414.4,98.3 414.9,97.7 415.2,96.7 C415.3,96.3 415.4,95.9 415.4,95.5 C415.4,95.1 415.3,94.8 415.2,94.5 C415.1,94.2 414.9,93.9 414.6,93.7 C414.3,93.5 414,93.3 413.7,93.2 C413.1,93 412.5,93.1 412,93.5 L412.8,90.8 L411.8,90.6 L411.8,90.6 Z M412.1,94.2 C412.5,93.9 412.9,93.9 413.3,94 C413.7,94.1 414,94.4 414.2,94.8 C414.4,95.2 414.4,95.8 414.1,96.5 C413.9,97.2 413.6,97.7 413.2,97.9 C412.8,98.2 412.4,98.2 412,98.1 C411.5,97.9 411.2,97.6 411,97 C410.9,96.7 411,96.2 411.2,95.5 C411.4,95 411.7,94.5 412.1,94.2 L412.1,94.2 L412.1,94.2 Z M390.8,127.7 C390.1,127.5 389.5,127.5 388.9,127.8 C388.2,128.1 387.7,128.8 387.4,129.8 C387.1,130.7 387.1,131.5 387.5,132.1 C387.8,132.7 388.4,133.2 389.1,133.4 C389.6,133.5 390,133.6 390.5,133.5 C391,133.4 391.4,133.2 391.7,132.8 C392,132.5 392.3,131.9 392.5,131.2 C392.8,130.3 392.7,129.6 392.4,128.9 C392,128.4 391.5,127.9 390.8,127.7 L390.8,127.7 L390.8,127.7 Z M391.5,131 C391.3,131.7 391,132.2 390.6,132.5 C390.2,132.8 389.8,132.8 389.3,132.7 C388.8,132.6 388.5,132.3 388.3,131.8 C388.1,131.4 388.1,130.8 388.3,130.1 C388.5,129.4 388.8,128.9 389.2,128.7 C389.6,128.4 390,128.4 390.5,128.5 C391,128.6 391.3,128.9 391.5,129.4 C391.7,129.8 391.7,130.3 391.5,131 L391.5,131 L391.5,131 Z M401.5,123.3 L403.2,117.8 L402.3,117.5 L401.4,120.4 C401.3,120.9 401.1,121.2 400.9,121.4 C400.7,121.6 400.5,121.8 400.2,121.8 C399.9,121.9 399.6,121.9 399.4,121.8 C399.1,121.7 398.9,121.6 398.8,121.4 C398.7,121.2 398.6,121 398.6,120.7 C398.6,120.5 398.7,120.2 398.8,119.7 L399.7,116.7 L398.8,116.4 L397.8,119.8 C397.7,120.2 397.6,120.5 397.6,120.7 C397.6,121 397.6,121.2 397.7,121.5 C397.8,121.7 397.9,121.9 398.2,122.2 C398.5,122.5 398.7,122.6 399,122.7 C399.7,122.9 400.4,122.8 401,122.3 L400.8,123.1 L401.5,123.3 L401.5,123.3 Z M414.5,110.3 C414.6,109.9 414.8,109.6 415,109.3 C415.1,109.1 415.3,109 415.5,108.9 C415.7,108.8 415.9,108.8 416.1,108.9 C416.3,109 416.5,109.1 416.7,109.3 L417.3,108.5 C417,108.2 416.8,108 416.4,107.9 C416.2,107.8 416,107.8 415.8,107.9 C415.6,108 415.3,108.2 415,108.5 L415.3,107.7 L414.5,107.4 L412.8,112.9 L413.7,113.2 L414.5,110.3 L414.5,110.3 Z M395,123.6 L397.3,116.1 L396.5,115.8 L396.3,116.5 C396.1,115.8 395.6,115.4 395,115.2 C394.6,115.1 394.1,115.1 393.7,115.2 C393.3,115.3 392.9,115.6 392.6,115.9 C392.3,116.3 392,116.7 391.9,117.3 C391.6,118.2 391.6,119 392,119.6 C392.3,120.3 392.8,120.7 393.4,120.9 C393.7,121 394,121 394.3,121 C394.6,120.9 394.9,120.8 395.1,120.7 L394.3,123.4 L395,123.6 L395,123.6 Z M394.8,120 C394.4,120.2 394,120.3 393.6,120.2 C393.2,120.1 392.9,119.8 392.7,119.3 C392.5,118.9 392.5,118.3 392.7,117.6 C392.9,116.9 393.2,116.4 393.6,116.1 C394,115.8 394.4,115.8 394.8,115.9 C395.2,116 395.5,116.3 395.7,116.8 C395.9,117.3 395.9,117.9 395.6,118.6 C395.5,119.3 395.2,119.7 394.8,120 L394.8,120 L394.8,120 Z M408.1,122.8 L408.5,121.6 C408.6,121.2 408.7,120.9 408.7,120.7 C408.7,120.4 408.7,120.2 408.6,120 C408.5,119.8 408.3,119.6 408.1,119.4 C407.8,119.2 407.5,119 407,118.9 C406.5,118.8 406.1,118.7 405.7,118.7 C405.3,118.7 405,118.8 404.7,119 C404.4,119.2 404.2,119.5 404,119.8 L404.9,120.2 C405.1,119.8 405.4,119.6 405.6,119.5 C405.9,119.4 406.2,119.4 406.6,119.6 C407.1,119.7 407.4,120 407.6,120.2 C407.7,120.4 407.7,120.7 407.6,121.1 C407.6,121.1 407.6,121.2 407.5,121.3 C407.1,121.3 406.5,121.3 405.8,121.1 C405.4,121 405.1,121 404.9,121 C404.6,121 404.4,121 404.1,121.1 C403.9,121.2 403.6,121.3 403.5,121.5 C403.3,121.7 403.2,121.9 403.1,122.2 C403,122.7 403,123.1 403.2,123.5 C403.4,123.9 403.8,124.2 404.4,124.4 C404.8,124.5 405.1,124.6 405.5,124.5 C405.9,124.5 406.2,124.4 406.7,124.2 C406.6,124.5 406.6,124.7 406.7,124.9 L407.7,125.2 C407.6,125 407.6,124.7 407.7,124.5 C407.7,124.2 407.8,123.7 408.1,122.8 L408.1,122.8 L408.1,122.8 Z M407.2,122.4 C407.1,122.8 406.9,123.1 406.8,123.3 C406.6,123.5 406.3,123.7 406,123.8 C405.7,123.9 405.3,123.9 405,123.7 C404.6,123.6 404.4,123.4 404.3,123.2 C404.2,123 404.1,122.7 404.2,122.5 C404.2,122.3 404.3,122.2 404.5,122.1 C404.6,122 404.8,121.9 405,121.9 C405.2,121.9 405.5,121.9 405.9,122 C406.6,122.1 407.1,122.1 407.5,122.1 L407.2,122.4 L407.2,122.4 Z M393.2,107.1 C393.7,107.2 394.2,107.3 394.6,107.2 C395.1,107.1 395.5,106.9 395.8,106.5 C396.1,106.2 396.4,105.6 396.6,104.9 C396.9,104 396.8,103.3 396.5,102.6 C396.2,102 395.6,101.5 394.9,101.3 C394.2,101.1 393.6,101.1 393,101.4 C392.3,101.7 391.8,102.4 391.5,103.4 C391.2,104.3 391.2,105.1 391.6,105.7 C391.9,106.4 392.5,106.9 393.2,107.1 L393.2,107.1 L393.2,107.1 Z M392.5,103.7 C392.7,103 393,102.5 393.4,102.3 C393.8,102 394.2,102 394.7,102.1 C395.2,102.2 395.5,102.5 395.7,103 C395.9,103.4 395.9,104 395.7,104.7 C395.5,105.4 395.2,105.9 394.8,106.2 C394.4,106.5 394,106.5 393.5,106.4 C393,106.3 392.7,106 392.5,105.5 C392.3,105 392.3,104.4 392.5,103.7 L392.5,103.7 L392.5,103.7 Z M421.7,98.9 C421.5,99.5 421.5,100 421.5,100.5 C421.6,101 421.7,101.4 422,101.8 C422.3,102.2 422.7,102.4 423.1,102.5 C423.8,102.7 424.4,102.6 424.9,102.2 L424.7,102.9 L425.6,103.2 L427.9,95.7 L427,95.4 L426.2,98.1 C426.1,97.8 426,97.6 425.7,97.4 C425.5,97.2 425.2,97 424.9,96.9 C424.5,96.8 424,96.8 423.6,96.9 C423.2,97 422.8,97.3 422.5,97.7 C422.1,97.9 421.9,98.3 421.7,98.9 L421.7,98.9 L421.7,98.9 Z M422.7,99.2 C422.9,98.5 423.2,98 423.6,97.7 C424,97.4 424.4,97.4 424.8,97.5 C425.2,97.6 425.5,97.9 425.7,98.4 C425.9,98.8 425.9,99.4 425.6,100.2 C425.4,100.9 425.1,101.3 424.7,101.6 C424.3,101.8 423.9,101.9 423.5,101.8 C423.1,101.7 422.8,101.4 422.6,101 C422.4,100.4 422.5,99.9 422.7,99.2 L422.7,99.2 L422.7,99.2 Z M418.7,109.6 L419.6,109.9 L419.8,109.2 L418.9,108.9 L419.5,107 L418.4,107.3 L418,108.7 L417.3,108.5 L417.1,109.2 L417.8,109.4 L416.8,112.5 C416.6,113.1 416.6,113.4 416.6,113.6 C416.6,113.8 416.7,114 416.9,114.1 C417.1,114.3 417.3,114.4 417.6,114.5 C417.8,114.6 418,114.6 418.3,114.6 L418.4,113.7 C418.2,113.7 418.1,113.6 418,113.6 C417.9,113.6 417.8,113.5 417.7,113.4 C417.6,113.3 417.6,113.3 417.6,113.2 C417.6,113.1 417.6,112.9 417.7,112.7 L418.7,109.6 L418.7,109.6 Z M402.8,109.9 C403.3,110 403.7,110.1 404.1,110.1 C404.5,110.1 404.8,110.1 405,110 C405.3,109.9 405.5,109.7 405.8,109.5 C406,109.2 406.2,108.9 406.3,108.6 C406.4,108.2 406.4,107.7 406.3,107.3 C406.2,106.9 405.9,106.6 405.5,106.3 C405.9,106.2 406.2,106.1 406.5,105.9 C406.8,105.7 406.9,105.4 407,105.1 C407.1,104.8 407.1,104.4 407,104 C406.9,103.6 406.7,103.3 406.4,103 C406.1,102.7 405.7,102.5 405.1,102.3 L402.3,101.4 L400,108.9 L402.8,109.9 L402.8,109.9 Z M402.9,102.7 L404.4,103.2 C404.9,103.4 405.3,103.5 405.5,103.7 C405.7,103.8 405.8,104 405.9,104.2 C406,104.4 406,104.7 405.9,104.9 C405.8,105.2 405.7,105.4 405.5,105.5 C405.3,105.6 405.1,105.7 404.8,105.7 C404.6,105.7 404.3,105.6 403.8,105.5 L402.2,105 L402.9,102.7 L402.9,102.7 Z M403.7,106.4 C404.2,106.5 404.5,106.7 404.8,106.9 C405,107.1 405.2,107.3 405.3,107.5 C405.4,107.8 405.4,108 405.3,108.3 L405,108.9 C404.8,109.1 404.7,109.2 404.5,109.2 C404.3,109.3 404.1,109.3 403.9,109.2 C403.8,109.2 403.5,109.1 403.2,109 L401.3,108.4 L402.1,105.8 L403.7,106.4 L403.7,106.4 Z M398.5,94.5 C399,94.4 399.4,94.2 399.7,93.8 C400,93.5 400.3,92.9 400.5,92.2 C400.8,91.3 400.7,90.6 400.4,89.9 C400.1,89.3 399.5,88.8 398.8,88.6 C398.1,88.4 397.5,88.4 396.9,88.7 C396.2,89 395.7,89.7 395.4,90.7 C395.1,91.6 395.1,92.4 395.5,93 C395.8,93.6 396.4,94.1 397.1,94.3 C397.6,94.6 398,94.6 398.5,94.5 L398.5,94.5 L398.5,94.5 Z M397.3,93.7 C396.8,93.6 396.5,93.3 396.3,92.8 C396.1,92.4 396.1,91.8 396.3,91.1 C396.5,90.4 396.8,89.9 397.2,89.7 C397.6,89.4 398,89.4 398.5,89.5 C399,89.6 399.3,89.9 399.5,90.4 C399.7,90.8 399.7,91.4 399.5,92.1 C399.3,92.8 399,93.3 398.6,93.6 C398.2,93.8 397.8,93.8 397.3,93.7 L397.3,93.7 L397.3,93.7 Z M422.1,93.7 L421.2,93.4 L420.9,94.5 L421.8,94.8 L422.1,93.7 L422.1,93.7 Z M415.3,135.2 C414.5,135 413.9,135 413.2,135.4 C412.6,135.8 412.1,136.4 411.8,137.3 C411.5,138.2 411.6,138.9 411.9,139.6 C412.2,140.2 412.8,140.7 413.6,140.9 C414.2,141.1 414.8,141.1 415.3,140.9 C415.8,140.7 416.2,140.4 416.5,139.9 L415.6,139.5 C415.3,139.8 415.1,140.1 414.8,140.2 C414.5,140.3 414.2,140.3 413.9,140.2 C413.4,140.1 413.1,139.8 412.9,139.4 C412.7,139 412.7,138.5 412.8,137.9 L416.9,139.1 C416.9,139 417,138.9 417,138.9 C417.3,138 417.3,137.2 416.9,136.6 C416.6,135.9 416.1,135.4 415.3,135.2 L415.3,135.2 L415.3,135.2 Z M416.1,138 L413.1,137.1 C413.3,136.6 413.6,136.3 413.9,136.1 C414.3,135.9 414.7,135.9 415.1,136 C415.6,136.1 415.9,136.4 416.1,136.9 C416.2,137.2 416.2,137.5 416.1,138 L416.1,138 L416.1,138 Z M410.1,147.4 C409.3,147.2 408.7,147.2 408,147.6 C407.4,148 406.9,148.6 406.6,149.5 C406.3,150.4 406.4,151.1 406.7,151.8 C407,152.4 407.6,152.9 408.4,153.1 C409,153.3 409.6,153.3 410.1,153.1 C410.6,152.9 411,152.6 411.3,152.1 L410.4,151.7 C410.1,152 409.9,152.3 409.6,152.4 C409.3,152.5 409,152.5 408.7,152.4 C408.2,152.3 407.9,152 407.7,151.6 C407.5,151.2 407.5,150.7 407.6,150.1 L411.7,151.3 C411.7,151.2 411.8,151.1 411.8,151.1 C412.1,150.2 412.1,149.4 411.7,148.8 C411.4,148.1 410.9,147.7 410.1,147.4 L410.1,147.4 L410.1,147.4 Z M410.9,150.2 L407.9,149.3 C408.1,148.8 408.4,148.5 408.7,148.3 C409.1,148.1 409.5,148.1 409.9,148.2 C410.4,148.3 410.7,148.6 410.9,149.1 C411,149.4 411,149.7 410.9,150.2 L410.9,150.2 L410.9,150.2 Z M417,94.5 L415.3,100 L416.2,100.3 L417.1,97.4 C417.2,97 417.4,96.7 417.6,96.4 C417.7,96.2 417.9,96.1 418.1,96 C418.3,95.9 418.5,95.9 418.7,96 C418.9,96.1 419.1,96.2 419.3,96.4 L419.9,95.6 C419.6,95.3 419.4,95.1 419,95 C418.8,94.9 418.6,94.9 418.3,95 C418.1,95.1 417.8,95.3 417.5,95.6 L417.8,94.8 L417,94.5 L417,94.5 Z M410.8,135.8 C411.3,135.5 411.7,135 411.9,134.4 C412,134 412,133.7 412,133.3 C411.9,132.9 411.8,132.6 411.6,132.4 C411.4,132.2 411.1,131.9 410.8,131.8 C410.6,131.7 410.2,131.5 409.7,131.4 L406.9,130.5 L404.6,138 L405.6,138.3 L406.5,135.2 L408.4,135.8 C409.4,136.2 410.2,136.2 410.8,135.8 L410.8,135.8 L410.8,135.8 Z M407.5,131.7 L409.4,132.3 C409.9,132.4 410.2,132.6 410.3,132.7 C410.5,132.8 410.7,133.1 410.8,133.3 C410.9,133.6 410.9,133.9 410.8,134.2 C410.7,134.6 410.4,134.9 410.1,135.1 C409.8,135.3 409.3,135.2 408.6,135 L406.7,134.4 L407.5,131.7 L407.5,131.7 Z M399.6,144.4 C399.4,144.2 399.1,144 398.7,143.9 C397.9,143.7 397.3,143.8 396.7,144.3 L396.9,143.5 L396.1,143.2 L394.4,148.7 L395.3,149 L396.2,146 C396.4,145.3 396.7,144.9 397.1,144.7 C397.5,144.5 397.8,144.5 398.2,144.6 C398.4,144.7 398.6,144.8 398.8,145 C398.9,145.2 399,145.4 399,145.6 C399,145.8 399,146.1 398.9,146.5 L397.9,149.8 L398.8,150.1 L399.8,146.7 C399.9,146.3 400,146 400,145.8 C400,145.5 400,145.3 399.9,145 C400,144.8 399.8,144.6 399.6,144.4 L399.6,144.4 L399.6,144.4 Z M392.6,142.1 C391.8,141.9 391.2,141.9 390.5,142.3 C389.9,142.7 389.4,143.3 389.1,144.2 C388.8,145.1 388.9,145.8 389.2,146.5 C389.5,147.1 390.1,147.6 390.9,147.8 C391.5,148 392.1,148 392.6,147.8 C393.1,147.6 393.5,147.3 393.8,146.8 L392.9,146.4 C392.6,146.7 392.4,147 392.1,147.1 C391.8,147.2 391.5,147.2 391.1,147.1 C390.6,147 390.3,146.7 390.1,146.3 C389.9,145.9 389.9,145.4 390,144.8 L394.1,146 C394.1,145.9 394.2,145.8 394.2,145.8 C394.5,144.9 394.5,144.1 394.1,143.5 C393.8,142.7 393.3,142.3 392.6,142.1 L392.6,142.1 L392.6,142.1 Z M393.4,144.9 L390.4,144 C390.6,143.5 390.9,143.2 391.2,143 C391.6,142.8 392,142.8 392.4,142.9 C392.9,143 393.2,143.3 393.4,143.8 C393.5,144 393.5,144.4 393.4,144.9 L393.4,144.9 L393.4,144.9 Z M388.5,141 L386.3,144 C386,144.4 385.8,144.7 385.6,144.9 L385.6,143.7 L385.4,140.1 L384.4,139.8 L384.8,145.9 L385.7,146.2 L389.4,141.4 L388.5,141 L388.5,141 Z M395.6,130.3 C395.9,130.2 396.1,130.2 396.4,130.3 C396.7,130.4 397,130.6 397,130.8 C397.1,131.1 397.1,131.4 396.9,131.8 L395.8,135.3 L396.7,135.6 L397.7,132.4 C397.9,131.8 398.1,131.5 398.5,131.3 C398.8,131.1 399.2,131.1 399.6,131.2 C399.8,131.3 400,131.4 400.1,131.5 C400.2,131.6 400.3,131.8 400.3,132 C400.3,132.2 400.3,132.5 400.1,132.8 L399,136.2 L399.9,136.5 L401,132.8 C401.2,132.2 401.2,131.7 401,131.3 C400.8,130.9 400.4,130.6 399.9,130.5 C399.2,130.3 398.5,130.4 397.9,130.9 C397.9,130.6 397.8,130.3 397.6,130 C397.4,129.8 397.1,129.6 396.7,129.4 C396.3,129.3 396,129.3 395.7,129.3 C395.4,129.4 395.1,129.5 394.8,129.7 L395,128.9 L394.2,128.6 L392.5,134.1 L393.4,134.4 L394.3,131.6 C394.5,131.1 394.6,130.7 394.8,130.5 C395.1,130.5 395.4,130.4 395.6,130.3 L395.6,130.3 L395.6,130.3 Z M432.1,99.8 C431.8,99.2 431.4,98.7 430.7,98.5 C430.2,98.4 429.8,98.3 429.3,98.5 C428.9,98.6 428.5,98.9 428.2,99.3 C427.9,99.7 427.6,100.1 427.5,100.7 C427.3,101.5 427.3,102.2 427.5,102.8 C427.7,103.5 428.2,103.9 429,104.1 C429.6,104.3 430.2,104.2 430.7,103.8 C430.5,104.4 430.4,104.8 430.3,105 C430.1,105.3 429.9,105.5 429.6,105.6 C429.3,105.7 429,105.7 428.5,105.6 C428.1,105.5 427.8,105.3 427.6,105.1 C427.5,104.9 427.4,104.7 427.5,104.4 L426.6,104 C426.4,104.6 426.5,105.1 426.8,105.5 C427.1,105.9 427.6,106.2 428.2,106.4 C428.7,106.6 429.2,106.6 429.7,106.5 C430.1,106.4 430.5,106.2 430.8,105.9 C431.1,105.6 431.4,105 431.6,104.2 L433,99.5 L432.1,99.2 L432.1,99.8 L432.1,99.8 L432.1,99.8 Z M431.5,101.8 C431.3,102.5 431,103 430.6,103.2 C430.2,103.4 429.8,103.5 429.4,103.4 C429,103.3 428.7,103 428.5,102.6 C428.3,102.2 428.3,101.6 428.6,100.9 C428.8,100.2 429.1,99.8 429.5,99.5 C429.9,99.3 430.3,99.2 430.7,99.3 C431.1,99.4 431.4,99.7 431.6,100.1 C431.7,100.6 431.7,101.1 431.5,101.8 L431.5,101.8 L431.5,101.8 Z M415.8,126.7 C415.5,126.8 415.2,126.8 414.9,126.7 C414.4,126.6 414.1,126.3 413.9,125.9 C413.7,125.5 413.7,125 413.8,124.4 L417.9,125.6 C417.9,125.5 418,125.4 418,125.4 C418.3,124.5 418.3,123.7 417.9,123.1 C417.6,122.5 417.1,122 416.3,121.8 C415.5,121.6 414.9,121.6 414.2,122 C413.6,122.4 413.1,123 412.8,123.9 C412.5,124.8 412.6,125.5 412.9,126.2 C413.2,126.8 413.8,127.3 414.6,127.5 C415.2,127.7 415.8,127.7 416.3,127.5 C416.8,127.3 417.2,127 417.5,126.5 L416.6,126.1 C416.3,126.3 416.1,126.6 415.8,126.7 L415.8,126.7 L415.8,126.7 Z M414.9,122.6 C415.3,122.4 415.7,122.4 416.1,122.5 C416.6,122.6 416.9,122.9 417.1,123.4 C417.2,123.7 417.2,124.1 417.1,124.5 L414.1,123.6 C414.2,123.1 414.5,122.8 414.9,122.6 L414.9,122.6 L414.9,122.6 Z M438.4,101.7 C438.1,101.1 437.6,100.6 436.8,100.4 C436,100.2 435.4,100.2 434.7,100.6 C434.1,101 433.6,101.6 433.3,102.5 C433,103.4 433.1,104.1 433.4,104.8 C433.7,105.4 434.3,105.9 435.1,106.1 C435.7,106.3 436.3,106.3 436.8,106.1 C437.3,105.9 437.7,105.6 438,105.1 L437.1,104.7 C436.8,105 436.6,105.3 436.3,105.4 C436,105.5 435.7,105.5 435.4,105.4 C434.9,105.3 434.6,105 434.4,104.6 C434.2,104.2 434.2,103.7 434.3,103.1 L438.4,104.3 C438.4,104.2 438.5,104.1 438.5,104.1 C438.8,103.1 438.7,102.3 438.4,101.7 L438.4,101.7 L438.4,101.7 Z M437.7,103.2 L434.7,102.3 C434.9,101.8 435.2,101.5 435.5,101.3 C435.9,101.1 436.3,101.1 436.7,101.2 C437.2,101.3 437.5,101.6 437.7,102.1 C437.7,102.3 437.8,102.7 437.7,103.2 L437.7,103.2 L437.7,103.2 Z M430.1,112.3 C429.9,112.1 429.6,111.9 429.2,111.8 C428.4,111.6 427.8,111.7 427.2,112.2 L427.4,111.4 L426.6,111.1 L424.9,116.6 L425.8,116.9 L426.7,113.9 C426.9,113.2 427.2,112.8 427.6,112.6 C428,112.4 428.3,112.4 428.7,112.5 C428.9,112.6 429.1,112.7 429.3,112.9 C429.4,113.1 429.5,113.3 429.5,113.5 C429.5,113.7 429.5,114 429.4,114.4 L428.4,117.7 L429.3,118 L430.3,114.6 C430.4,114.2 430.5,113.9 430.5,113.7 C430.5,113.4 430.5,113.2 430.4,112.9 C430.5,112.7 430.3,112.5 430.1,112.3 L430.1,112.3 L430.1,112.3 Z M421.2,137 C420.4,136.8 419.8,136.8 419.1,137.2 C418.5,137.6 418,138.2 417.7,139.1 C417.4,140 417.5,140.7 417.8,141.4 C418.1,142 418.7,142.5 419.5,142.7 C420.1,142.9 420.7,142.9 421.2,142.7 C421.7,142.5 422.1,142.2 422.4,141.7 L421.5,141.3 C421.2,141.6 421,141.9 420.7,142 C420.4,142.1 420.1,142.1 419.8,142 C419.3,141.9 419,141.6 418.8,141.2 C418.6,140.8 418.6,140.3 418.7,139.7 L422.8,140.9 C422.8,140.8 422.9,140.7 422.9,140.7 C423.2,139.8 423.2,139 422.8,138.4 C422.4,137.7 421.9,137.2 421.2,137 L421.2,137 L421.2,137 Z M422,139.8 L419,138.9 C419.2,138.4 419.5,138.1 419.8,137.9 C420.2,137.7 420.6,137.7 421,137.8 C421.5,137.9 421.8,138.2 422,138.7 C422.1,138.9 422.1,139.3 422,139.8 L422,139.8 L422,139.8 Z M423.1,143.7 L424,144 L426.3,136.5 L425.4,136.2 L423.1,143.7 L423.1,143.7 Z M404.6,149.1 C404.5,149.6 404.3,149.9 404.1,150.1 C403.9,150.3 403.7,150.5 403.4,150.5 C403.1,150.6 402.8,150.6 402.6,150.5 C402.3,150.4 402.1,150.3 402,150.1 C401.9,149.9 401.8,149.7 401.8,149.4 C401.8,149.2 401.9,148.9 402,148.4 L402.9,145.4 L402,145.1 L401,148.5 C400.9,148.9 400.8,149.2 400.8,149.4 C400.8,149.7 400.8,149.9 400.9,150.2 C401,150.4 401.1,150.6 401.4,150.9 C401.7,151.2 401.9,151.3 402.2,151.4 C402.9,151.6 403.6,151.5 404.2,151 L404,151.8 L404.8,152.1 L406.5,146.6 L405.6,146.3 L404.6,149.1 L404.6,149.1 Z M416.6,81.3 L411.9,84.2 L411.7,85 L416.5,86.5 L416.7,85.7 L414.2,84.9 L413,84.6 L413.8,84.1 L417.8,81.5 L418,80.9 L413.5,79.5 L413.3,80.2 L415.5,80.9 C415.9,81.1 416.2,81.2 416.6,81.3 L416.6,81.3 L416.6,81.3 Z M404.9,82.9 L407.2,75.4 L406.3,75.1 L404,82.6 L404.9,82.9 L404.9,82.9 Z M409,79.1 C409.3,79 409.6,79 410,79.2 C410.5,79.3 410.8,79.6 411,79.8 C411.1,80 411.1,80.3 411,80.7 C411,80.7 411,80.8 410.9,80.9 C410.5,80.9 409.9,80.9 409.2,80.7 C408.8,80.6 408.5,80.6 408.3,80.6 C408,80.6 407.8,80.6 407.5,80.7 C407.2,80.8 407,80.9 406.9,81.1 C406.7,81.3 406.6,81.5 406.5,81.8 C406.4,82.3 406.4,82.7 406.6,83.1 C406.8,83.5 407.2,83.8 407.8,84 C408.2,84.1 408.5,84.2 408.9,84.1 C409.3,84.1 409.6,84 410.1,83.8 C410,84.1 410,84.3 410.1,84.5 L411.1,84.8 C411,84.6 411,84.3 411.1,84.1 C411.1,83.9 411.3,83.3 411.5,82.5 L411.9,81.3 C412,80.9 412.1,80.6 412.1,80.4 C412.1,80.1 412.1,79.9 412,79.7 C411.9,79.5 411.7,79.3 411.5,79.1 C411.2,78.9 410.9,78.7 410.4,78.6 C409.9,78.5 409.5,78.4 409.1,78.4 C408.7,78.4 408.4,78.5 408.1,78.7 C407.8,78.9 407.6,79.1 407.4,79.5 L408.3,79.9 C408.5,79.5 408.7,79.2 409,79.1 L409,79.1 L409,79.1 Z M410.6,82 C410.5,82.4 410.3,82.7 410.2,82.9 C410,83.1 409.7,83.3 409.4,83.4 C409.1,83.5 408.7,83.5 408.4,83.3 C408,83.2 407.8,83 407.7,82.8 C407.6,82.6 407.5,82.3 407.6,82.1 C407.6,81.9 407.7,81.8 407.9,81.7 C408,81.6 408.2,81.5 408.4,81.5 C408.6,81.5 408.9,81.5 409.3,81.6 C410,81.7 410.5,81.7 410.9,81.7 L410.6,82 L410.6,82 Z M418.1,86.3 C418.4,86.9 419,87.4 419.8,87.6 C420.4,87.8 421,87.8 421.5,87.6 C422,87.4 422.4,87.1 422.7,86.6 L421.8,86.2 C421.5,86.5 421.3,86.8 421,86.9 C420.7,87 420.4,87 420.1,86.9 C419.6,86.8 419.3,86.5 419.1,86.1 C418.9,85.7 418.9,85.2 419,84.6 L423.1,85.8 C423.1,85.7 423.2,85.6 423.2,85.6 C423.5,84.7 423.5,83.9 423.1,83.3 C422.8,82.7 422.3,82.2 421.5,82 C420.7,81.8 420.1,81.8 419.4,82.2 C418.8,82.6 418.3,83.2 418,84.1 C417.7,84.9 417.7,85.6 418.1,86.3 L418.1,86.3 L418.1,86.3 Z M420,82.7 C420.4,82.5 420.8,82.5 421.2,82.6 C421.7,82.7 422,83 422.2,83.5 C422.3,83.8 422.3,84.2 422.2,84.6 L419.2,83.7 C419.3,83.3 419.6,82.9 420,82.7 L420,82.7 L420,82.7 Z M385.6,127.9 C385.7,127.7 385.9,127.6 386.1,127.5 C386.3,127.4 386.5,127.4 386.7,127.5 C386.9,127.6 387.1,127.7 387.3,127.9 L387.9,127.1 C387.6,126.8 387.4,126.6 387,126.5 C386.8,126.4 386.6,126.4 386.4,126.5 C386.2,126.6 385.9,126.8 385.6,127.1 L385.9,126.3 L385.1,126 L383.4,131.5 L384.3,131.8 L385.2,128.9 C385.2,128.6 385.4,128.2 385.6,127.9 L385.6,127.9 L385.6,127.9 Z M421.3,115.7 C421.8,115.8 422.2,115.9 422.7,115.8 C423.2,115.7 423.6,115.5 423.9,115.1 C424.2,114.8 424.5,114.2 424.7,113.5 C425,112.6 424.9,111.9 424.6,111.2 C424.3,110.6 423.7,110.1 423,109.9 C422.3,109.7 421.7,109.7 421.1,110 C420.4,110.3 419.9,111 419.6,112 C419.3,112.9 419.3,113.7 419.7,114.3 C420,115 420.5,115.4 421.3,115.7 L421.3,115.7 L421.3,115.7 Z M420.6,112.3 C420.8,111.6 421.1,111.1 421.5,110.9 C421.9,110.6 422.3,110.6 422.8,110.7 C423.3,110.8 423.6,111.1 423.8,111.6 C424,112 424,112.6 423.8,113.3 C423.6,114 423.3,114.5 422.9,114.8 C422.5,115.1 422.1,115.1 421.6,115 C421.1,114.9 420.8,114.6 420.6,114.1 C420.3,113.6 420.3,113 420.6,112.3 L420.6,112.3 L420.6,112.3 Z M418.9,101 L419.8,101.3 L421.5,95.8 L420.6,95.5 L418.9,101 L418.9,101 Z M381,136.4 L375.8,143 L376.9,143.3 L378.4,141.3 L381.5,142.3 L381.7,144.8 L382.8,145.1 L382,136.6 L381,136.4 L381,136.4 Z M379,140.6 L380.5,138.6 C380.8,138.2 381.1,137.7 381.3,137.3 C381.3,137.7 381.3,138.3 381.4,139 L381.5,141.3 L379,140.6 L379,140.6 Z M397.6,80.3 C398.1,80.8 398.7,81.2 399.5,81.4 C400.1,81.6 400.6,81.6 401.2,81.6 C401.8,81.6 402.4,81.4 403,81.2 L403.9,78.4 L400.7,77.4 L400.4,78.3 L402.6,79 L402.2,80.4 C401.9,80.5 401.6,80.6 401.1,80.6 C400.6,80.6 400.2,80.6 399.8,80.5 C399.3,80.3 398.9,80.1 398.5,79.7 C398.1,79.3 397.9,78.9 397.8,78.4 C397.7,77.9 397.8,77.3 398,76.6 C398.2,76.1 398.4,75.6 398.8,75.2 C399,75 399.2,74.8 399.5,74.6 C399.8,74.4 400.1,74.3 400.5,74.3 C400.9,74.3 401.3,74.3 401.7,74.5 C402.1,74.6 402.4,74.8 402.7,75 C403,75.2 403.2,75.5 403.3,75.7 C403.4,76 403.4,76.3 403.4,76.7 L404.4,76.7 C404.4,76.2 404.4,75.7 404.2,75.3 C404,74.9 403.8,74.6 403.4,74.2 C403,73.9 402.5,73.6 402,73.5 C401.2,73.3 400.5,73.2 399.9,73.4 C399.2,73.5 398.6,73.9 398.1,74.4 C397.6,74.9 397.2,75.6 397,76.3 C396.8,77 396.7,77.8 396.9,78.5 C397.1,79.2 397.1,79.8 397.6,80.3 L397.6,80.3 L397.6,80.3 Z M384.3,125.9 L383.2,125.6 L383.4,125.1 C383.5,124.8 383.6,124.6 383.8,124.5 C384,124.4 384.2,124.4 384.5,124.5 C384.7,124.6 384.8,124.6 385,124.7 L385.4,123.9 C385.1,123.7 384.8,123.6 384.6,123.5 C384.2,123.4 383.9,123.4 383.6,123.4 C383.3,123.4 383.1,123.6 383,123.8 C382.9,124 382.8,124.2 382.7,124.6 L382.5,125.2 L381.7,125 L381.5,125.7 L382.3,125.9 L380.9,130.6 L381.8,130.9 L383.2,126.2 L384.3,126.5 L384.3,125.9 L384.3,125.9 L384.3,125.9 Z M385.6,118.2 C386,118.5 386.5,118.8 387.2,119 C387.7,119.2 388.3,119.2 388.7,119.1 C389.2,119 389.6,118.9 389.9,118.6 C390.2,118.3 390.5,118 390.6,117.6 C390.7,117.2 390.7,116.8 390.6,116.4 C390.5,116 390.2,115.7 389.9,115.3 C389.6,115.1 389.1,114.7 388.4,114.3 C387.7,113.9 387.2,113.5 387.1,113.3 C387,113.1 386.9,112.8 387,112.5 C387.1,112.2 387.3,112 387.7,111.8 C388,111.7 388.5,111.7 389.1,111.9 C389.7,112.1 390.1,112.3 390.3,112.7 C390.5,113.1 390.6,113.4 390.5,113.9 L391.5,114.1 C391.6,113.7 391.6,113.2 391.5,112.8 C391.4,112.4 391.1,112 390.8,111.7 C390.4,111.4 390,111.2 389.4,111 C388.9,110.8 388.4,110.8 387.9,110.8 C387.4,110.8 387,111 386.7,111.3 C386.4,111.6 386.2,111.9 386.1,112.3 C386,112.6 386,113 386.1,113.3 C386.2,113.6 386.4,113.9 386.7,114.2 C386.9,114.4 387.4,114.7 388,115.1 C388.6,115.5 389,115.7 389.2,115.9 C389.5,116.1 389.7,116.3 389.7,116.6 C389.8,116.8 389.8,117 389.7,117.3 C389.6,117.5 389.5,117.7 389.3,117.9 C389.1,118.1 388.8,118.1 388.5,118.2 C388.2,118.2 387.8,118.2 387.4,118.1 C387,118 386.6,117.8 386.3,117.5 C386,117.2 385.8,117 385.7,116.7 C385.6,116.4 385.6,116.1 385.7,115.7 L384.7,115.5 C384.6,116 384.6,116.5 384.7,117 C384.9,117.5 385.2,117.9 385.6,118.2 L385.6,118.2 L385.6,118.2 Z M393.1,93.1 L394.5,88.4 L395.6,88.7 L395.8,88 L394.7,87.7 L394.9,87.2 C395,86.9 395.1,86.7 395.3,86.6 C395.5,86.5 395.7,86.5 395.9,86.6 C396.1,86.7 396.2,86.7 396.4,86.8 L396.8,86 C396.5,85.8 396.2,85.7 396,85.6 C395.6,85.5 395.3,85.5 395,85.5 C394.7,85.6 394.5,85.7 394.4,85.9 C394.3,86.1 394.2,86.3 394.1,86.7 L393.9,87.3 L393.1,87.1 L392.9,87.8 L393.7,88 L392.3,92.7 L393.1,93.1 L393.1,93.1 Z M389.6,105.9 C389.8,106 390,106 390.3,106 L390.4,105.1 C390.2,105.1 390.1,105 390,105 C389.9,105 389.8,104.9 389.7,104.8 C389.6,104.7 389.6,104.7 389.6,104.6 C389.6,104.5 389.6,104.3 389.7,104.1 L390.7,100.9 L391.6,101.2 L391.8,100.5 L390.9,100.2 L391.5,98.3 L390.4,98.6 L390,100 L389.3,99.8 L389.1,100.5 L389.8,100.7 L388.8,103.8 C388.6,104.4 388.6,104.7 388.6,104.9 C388.6,105.1 388.7,105.3 388.9,105.4 C389,105.7 389.2,105.8 389.6,105.9 L389.6,105.9 L389.6,105.9 Z M389.6,105.9" class="Shape"/>
        </g>
        <g class="background">
            <path d="M396.3,42.6 L398,39 L379.4,35.7 L380.5,32.5 L376.8,31.9 L383.2,12.8 L361,8.9 L374.4,11.3 L368,30.3 L362.6,29.3 L361.4,32.8 L343,29.5 L342.1,32.3 L360.5,35.6 L356.1,48.7 C352.1,50.3 348.9,53.2 347.7,56.9 C346.5,60.6 347.5,64.2 350,66.9 L345,81.7 L326.5,78.6 L325.1,82.9 L343.7,85.8 L343.1,87.5 L347.9,88.4 L341.6,107.1 L337.4,106.4 L337.2,106.9 L350.8,109.3 L357.2,90 L360.8,90.6 L363,83.9 L381.3,87.1 L382.2,84.3 L364.2,81 L367.8,70.4 C372.1,68.9 375.5,65.9 376.8,62 C378.1,58.2 376.9,54.3 374.1,51.6 L378.1,39.8 L396.3,42.6 L396.3,42.6 Z M321.9,116.9 L301.6,132.5 L275,111 L293.4,93.2 L291.2,91.7 L269.4,108.3 L235,102 L241.4,83 L181,73.3 L175.5,91.2 L146.3,86 L141.3,66 L109.5,75.1 L115.6,94.6 L96.6,100.3 L89.1,81.3 L84.5,82.5 L91.6,101.9 L57.8,111.9 L50.9,92.7 L44.5,94.4 L51.5,113.8 L55.7,124.4 L94.4,112.4 L101.9,133.7 L106.8,132.4 L99.6,110.8 L129.2,101.6 L141,119.4 L111.7,130.4 L114.1,134 L143.2,122.7 L158.8,146.2 L159.3,146.8 C159.6,147.2 159.9,147.6 160.1,148.1 C160.4,148.7 160.7,149.5 161,150.2 C161.9,152.9 162.1,159.5 160.9,167.9 C160.8,168.3 142,176.3 141,176.7 L142.7,180 C143.5,179.6 159.3,173 160.1,173.1 C160.2,173.5 160.3,174.1 160.6,175.2 C160.8,175.9 161.1,176.8 161.7,177.9 C163.6,181.7 167.5,186.2 175.7,187.6 C187.4,189.7 196,183.7 199.1,181.1 L210.9,191.5 L215.1,188.8 L202,178.1 C209,164.1 220.5,157.7 220.6,157.7 L246,143.1 L262.7,158.3 L267.2,155.6 L281.7,167.9 L302.4,149.5 L325.7,169.7 L305.1,187.6 L307.5,189.5 L328.4,171.1 L337.4,163.2 L357,145.9 L350.6,140.6 L321.9,116.9 L321.9,116.9 Z M214.2,151.8 L198.8,148.1 L203.2,133.5 L185.3,130.3 L180.4,144.7 L171.2,142.8 L156,120.9 L240.6,137 L214.2,151.8 L214.2,151.8 Z M214.2,151.8" class="walkway"/>
            <path d="M247.5,139.6 L220.2,155.2 C220.1,155.3 208.6,161.7 201.6,175.6 L201.6,175.8 L202.3,178.4 L214.8,188.8 L265.5,156.7 L264.8,154.1 L247.5,139.6 L247.5,139.6 Z M201.1,178.4 L200.9,178.2 L200.7,178 L200.6,177.9 L200.1,177.5 C200.1,177.5 199.7,177.9 198.9,178.6 C195.8,181.2 187.1,187.2 175.5,185.1 C167.3,183.7 163.4,179.1 161.5,175.4 C161.5,175.3 161.4,175.2 161.4,175.1 C161,174.3 160.8,173.6 160.5,173 C160.4,172.6 160.4,172.4 160.4,172.4 L159.7,169.9 L161.4,169.2 C163.1,160.1 162.6,155.2 161.8,152 C161.6,151.1 161.4,150.3 161.1,149.4 L161.1,149.6 C160.9,148.9 160.8,148.3 160.6,147.7 C160.4,146.9 160.1,146.2 159.7,145.6 C159.4,145.1 159.2,144.7 158.9,144.3 L158.4,143.7 L142.9,120.3 L142.4,120.5 L142,118.9 L141.2,117.7 L128.9,99.1 L97.1,109 L97.8,111.6 L104.6,131.8 L105,133.1 L112.7,130.8 L113.2,132.8 L114.6,134.9 L141.5,177.9 L155,172 L145.4,176.4 L142.2,177.9 L142,178 L142.7,180.6 C147.3,191.7 155.8,200.8 170.7,203.4 C186.7,206.2 203,200.7 212.2,190.5 L211.5,187.9 L201.1,178.4 L201.1,178.4 Z M146.1,83.4 L146.8,86 L178.3,91.5 L178.9,91.6 L179.4,90.2 L179.8,91.7 L190.9,93.7 L191,93.7 L191.8,91.4 L192.4,94 L195.4,94.5 C198.4,91.5 203.2,89.9 207.7,90.7 C212.1,91.5 215.2,94.3 216.1,97.7 L216.2,98.3 L221.1,99.2 L221.9,96.9 L222.5,99.5 L232.5,101.3 L233.3,101.4 L238.8,84.4 L238.5,83 L238.7,83 L238.8,82.8 L245.2,64 L244.5,61.4 L190.7,51.9 L184.3,70.9 L184.6,72.3 L184.4,72.3 L184.3,72.6 L183.9,71.1 L183.3,71 L140.8,63.3 L141,64.1 L146.1,83.4 L146.1,83.4 Z M225.2,87.3 L224.8,88.5 L224.5,87.1 L225.2,87.3 L225.2,87.3 Z M196.9,75.8 L196.5,77 L196.2,75.6 L196.9,75.8 L196.9,75.8 Z M195.6,79.6 L196,81 L195.2,80.9 L195.6,79.6 L195.6,79.6 Z M390.2,168.6 L369.4,150.5 L358.9,141.3 L358.6,141.5 L356.4,143.4 L355.8,143.9 L355.4,142.5 L340.2,129.8 L339.6,130.4 L339.3,129.3 L331.5,122.6 L332.2,122 L332.8,121.4 L337,108.6 L337.2,108.1 L337.3,107.7 L337.5,107.2 L337.6,106.8 L337.8,106.3 L342,107 L348.3,88.3 L347.6,85.7 L344.1,85.1 L343.6,83.2 L344.7,83.4 L350.2,67 L349.5,64.4 C348.6,63.4 347.8,62.3 347.3,61.1 C347.2,59.8 347.3,58.4 347.8,57 C349,53.3 352.2,50.4 356.2,48.8 L360.8,35.2 L360.3,33.1 L361.5,33.3 L362.8,29.4 L368.2,30.4 L374.6,11.3 L373.9,8.7 L350,4.5 L342.3,27.4 L342.8,29.5 L341.6,29.3 L334.6,50.2 L329.7,49.3 L328.4,53.3 L329.1,55.9 L332.6,56.5 L325.6,77.5 L326.1,79.6 L324.9,79.4 L317.9,100.3 L318.6,102.9 L329,104.7 L325.9,114.1 L325.5,114.4 L323.7,116 L323.4,116.3 L322.8,116.8 L322.3,114.8 L292.6,90 L292,90.5 L291.5,90.9 L291,89.1 L240.2,80.2 L240,80.8 L240,81 L234.1,99.2 L234.8,101.8 L271.1,108.5 L272.6,107.3 L273.2,109.8 L303.3,134.5 L304,133.9 L304.6,136.2 L306.4,137.8 L307.4,138.6 L307.7,138.9 L310.4,141.2 L310.7,140.9 L312,139.7 L312.6,142.1 L320.5,148.5 L320.6,148.4 L320.9,149.5 L335.6,161.9 L326.6,169.8 L326.1,168 L304.6,149 L298.8,144 L297.7,144.9 L297.1,142.6 L275.2,123.9 L251,137.7 L249.6,138.5 L250.3,141.1 L276.6,163.6 L277.6,162.7 L277.7,162.6 L278.3,165.1 L305.6,188.2 L305.2,188.5 L304.1,189.5 L304.8,192.1 L340.3,222.8 L394.7,174.6 L394,172 L390.2,168.6 L390.2,168.6 Z M379.4,32.3 L373.9,49 L374.6,51.6 C375.7,52.7 376.6,54 377.1,55.3 C377.2,56.6 377.1,58 376.6,59.4 C375.3,63.2 371.9,66.2 367.6,67.8 L363.9,78.9 L364.4,81 L363.2,80.8 L360.8,88 L357.2,87.4 L350.8,106.7 L351.5,109.3 L373.4,113.2 L382.2,86.8 L381.7,84.7 L382.7,84.9 L388.9,66.2 L392.8,66.9 L394,63.2 L393.3,60.6 L390.8,60.2 L405.9,16.7 L405.2,14.1 L382.9,10.2 L376.5,29.3 L377.2,31.9 L379.4,32.3 L379.4,32.3 Z M337.7,39.2 L345.1,16.9 L344.4,14.3 L321.2,10.2 L313.8,32.5 L314.5,35.1 L337.7,39.2 L337.7,39.2 Z M241.8,134.5 L242.7,134.7 L243.6,135.5 L245.1,134.6 L268.1,121.6 L267.4,119 L262.6,114.4 L261.2,115.5 L260.7,113.7 L230.8,108.4 L230,110.8 L229.3,108.2 L218.6,106.3 L217.8,108.5 L217.2,105.9 L212.1,105 C209,107.9 204.4,109.4 199.9,108.6 C195.4,107.8 192.2,104.9 191.4,101.3 L188.3,100.7 L187.6,102.7 L187,100.5 L186.8,100.5 L175.6,98.5 L175.2,99.8 L174.8,98.3 L149.2,93.7 L148.4,94 L153.5,114.4 L153.9,116 L153.2,116.2 L153.7,118.1 L153.6,118.1 L154.3,120.7 L171,144.1 L180.2,145.7 L185.4,130.3 L201.9,133.2 L197.5,146.3 L198.2,148.9 L214.4,151.8 L241.3,136.6 L240.6,134 L240,133.5 L241.1,132.6 L241.8,134.5 L241.8,134.5 Z M169.1,120.8 L169.3,120.1 L169.5,120.9 L169.1,120.8 L169.1,120.8 Z M181.3,122.9 L181.7,121.6 L182.1,123 L181.3,122.9 L181.3,122.9 Z M211.5,128.3 L212,126.7 L212.4,128.5 L211.5,128.3 L211.5,128.3 Z M223.6,130.4 L224.1,128.8 L224.5,130.6 L223.6,130.4 L223.6,130.4 Z M102,129.7 L95.2,109.5 L55.3,121.9 L55,122 L54.5,122.2 L51.4,111.3 L45.3,92.7 L45,91.7 L3.8,103.7 L4.5,106.3 L22.3,158.4 L62.4,145.6 L65.5,144.9 L103.1,133.6 L102.4,131 L102,129.7 L102,129.7 Z M132.3,89.9 L133,89.7 L133.5,89.5 L135.4,89 L144.8,86.2 L140,67.2 L139.3,64.6 L139.1,63.8 L128.3,67 L114.7,71 L121.5,92.9 L132.3,89.9 L132.3,89.9 Z M152.9,118.3 L152.4,116.2 L147.7,97.3 L146.9,94.7 L139,97.3 L139.7,99.9 L152,117.1 L152.9,118.3 L152.9,118.3 Z M88.1,82.7 L94.3,101.3 L120.9,93.4 L120.2,90.8 L114.3,72.1 L114,71.3 L87,79.3 L87.7,81.9 L88.1,82.7 L88.1,82.7 Z M50.3,93.9 L56.4,112.5 L92.5,101.8 L91.8,99.2 L85.6,80.7 L85.3,79.8 L49.3,90.4 L50,93 L50.3,93.9 L50.3,93.9 Z M137.8,106.8 L137.8,108.9 L142,115.1 L146.3,113.7 L146.3,111.6 L142.2,105.4 L137.8,106.8 L137.8,106.8 Z M137.8,106.8" class="wall"/>
            <path d="M179,150.5 L169.7,148.9 L167.4,155.6 L168.1,158.2 L177.4,159.8 L179.7,153.1 L179,150.5 L179,150.5 Z M179,150.5" class="wall"/>
            <path d="M204.9,155.4 L195.6,153.8 L193.3,160.5 L194,163.1 L203.3,164.7 L205.6,158 L204.9,155.4 L204.9,155.4 Z M204.9,155.4" class="wall"/>
            <path d="M184.4,170.4 L175.1,168.8 L172.8,175.5 L173.5,178.1 L182.8,179.7 L185.1,173 L184.4,170.4 L184.4,170.4 Z M184.4,170.4" class="wall"/>
        </g>
        <g class="ceilings">
            <path class="unit" d="M142.6,119.9 L142.8,120.3 L146.6,126.1 L117.7,138.8 L114.1,132.9 L113.5,131.9 L112.1,129.8 L142.6,119.9 L142.6,119.9 Z M142.6,119.9" id="2001"/>
            <path class="unit" d="M196.3,107.1 C197.4,107.7 198.6,108.1 199.9,108.3 C200.2,108.4 200.5,108.4 200.8,108.4 L195.8,123.5 L191.2,122.7 L196.3,107.1 L196.3,107.1 Z M196.3,107.1" id="2002"/>
            <path class="unit" d="M206.1,108 L200.6,124.4 L196,123.6 L201.1,108.5 C202.7,108.6 204.4,108.4 206.1,108 L206.1,108 L206.1,108 Z M206.1,108" id="2003"/>
            <path class="unit" d="M212.3,104.7 L205.4,125.2 L200.8,124.4 L206.3,107.9 C208.5,107.3 210.5,106.1 212,104.7 L212.3,104.7 L212.3,104.7 Z M212.3,104.7" id="2004"/>
            <path class="unit" d="M349.1,137.3 L351.2,139.1 L355.1,142.4 L335.5,159.4 L335.4,159.5 L332.3,156.8 L329.3,154.2 L349.1,137.3 L349.1,137.3 Z M349.1,137.3" id="2005"/>
            <path class="unit" d="M94.9,109.3 L101.8,130.7 L95.8,132.5 L89,111.1 L94.9,109.3 L94.9,109.3 Z M94.9,109.3" id="2006"/>
            <path class="unit" d="M157.9,95 L159.7,95.3 L153.4,114.2 L151.8,107.6 L151.7,107.2 L150.1,100.6 L148.4,93.6 L149.2,93.3 L157.9,95 L157.9,95 Z M157.9,95" id="2007"/>
            <path class="unit" d="M146.6,94.4 L151.5,114 L151.8,115.4 L150.9,114.2 L138.6,97 L146.6,94.4 L146.6,94.4 Z M146.6,94.4" id="2008"/>
            <path class="unit" d="M128.5,98.7 L140.8,117.1 L141.4,118 L141.5,118.3 L132.1,121.3 L129.2,122.2 L121.9,100.7 L126.8,99.2 L127.3,99.1 L128,98.9 L128.5,98.7 L128.5,98.7 Z M128.5,98.7" id="2009"/>
            <path class="unit" d="M121.7,100.9 L129,122.5 L122.9,124.4 L115.6,102.8 L121.7,100.9 L121.7,100.9 Z M121.7,100.9" id="2010"/>
            <path class="unit" d="M115.5,102.8 L122.8,124.4 L116.7,126.3 L109.4,104.7 L115.5,102.8 L115.5,102.8 Z M115.5,102.8" id="2011"/>
            <path class="unit" d="M159.9,95.4 L163.4,96 L156.5,116.5 L153.7,116 L153.4,114.7 L159.9,95.4 L159.9,95.4 Z M159.9,95.4" id="2012"/>
            <path class="unit" d="M109.2,104.7 L116.5,126.3 L110.4,128.2 L103.1,106.6 L109.2,104.7 L109.2,104.7 Z M109.2,104.7" id="2013"/>
            <path class="unit" d="M102.9,106.7 L110.2,128.3 L104.1,130.2 L96.8,108.6 L102.9,106.7 L102.9,106.7 Z M102.9,106.7" id="2014"/>
            <path class="unit" d="M88.8,111.2 L95.7,132.6 L89.7,134.4 L82.8,113 L88.8,111.2 L88.8,111.2 Z M88.8,111.2" id="2015"/>
            <path class="unit" d="M163.7,96.1 L167.2,96.7 L160.3,117.2 L156.8,116.6 L163.7,96.1 L163.7,96.1 Z M163.7,96.1" id="2016"/>
            <path class="unit" d="M167.5,96.7 L171.1,97.3 L164.3,117.8 L160.7,117.2 L167.5,96.7 L167.5,96.7 Z M167.5,96.7" id="2017"/>
            <path class="unit" d="M171.3,97.4 L174.8,98 L168.5,116.7 L167.9,118.4 L164.4,117.8 L171.3,97.4 L171.3,97.4 Z M171.3,97.4" id="2018"/>
            <path class="unit" d="M181.2,99.2 L174.4,119.7 L168.8,118.7 L175.6,98.2 L181.2,99.2 L181.2,99.2 Z M181.2,99.2" id="2019"/>
            <path class="unit" d="M187,100.2 L180.2,120.7 L174.6,119.7 L181.4,99.2 L187,100.2 L187,100.2 Z M187,100.2" id="2020"/>
            <path class="unit" d="M188.2,100.4 L191.3,101 C191.5,101.8 191.8,102.5 192.2,103.2 C192.3,103.3 192.3,103.4 192.4,103.5 C193.3,104.9 194.5,106.2 196.1,107 L190.9,122.7 L186.3,121.9 L186.1,121.9 L181.5,121.1 L181.5,121 L182.1,119.3 L188.2,100.4 L188.2,100.4 Z M188.2,100.4" id="2021"/>
            <path class="unit" d="M291.8,89.4 L300.2,96.4 L280.5,113.8 L272,106.8 L291.8,89.4 L291.8,89.4 Z M291.8,89.4" id="2022"/>
            <path class="unit" d="M222,106.5 L215.2,126.9 L211.8,126.3 L218.6,105.9 L222,106.5 L222,106.5 Z M222,106.5" id="2023"/>
            <path class="unit" d="M203.7,126.6 L202.4,130.5 L184.9,127.4 L186.2,123.5 L203.7,126.6 L203.7,126.6 Z M203.7,126.6" id="2024"/>
            <path class="unit" d="M146.8,126.2 L150.6,132 L150.7,132.2 L154.5,138 L125.3,150.8 L121.7,144.9 L121.6,144.7 L118,138.9 L146.8,126.2 L146.8,126.2 Z M146.8,126.2" id="2025"/>
            <path class="unit" d="M225.6,107.2 L218.8,127.6 L215.4,127 L222.2,106.6 L225.6,107.2 L225.6,107.2 Z M225.6,107.2" id="2026"/>
            <path class="unit" d="M176.6,122 L170.2,141.2 L162.1,129.9 L176.6,122 L176.6,122 Z M176.6,122" id="2027"/>
            <path class="unit" d="M229.2,107.8 L222.4,128.2 L219,127.6 L225.8,107.2 L229.2,107.8 L229.2,107.8 Z M229.2,107.8" id="2028"/>
            <path class="unit" d="M304.7,100.1 L308.9,103.6 L289.3,120.9 L285.1,117.5 L304.7,100.1 L304.7,100.1 Z M304.7,100.1" id="2029"/>
            <path class="unit" d="M230.7,108 L236.5,109 L229.7,129.4 L223.9,128.4 L224.5,126.6 L230.7,108 L230.7,108 Z M230.7,108" id="2030"/>
            <path class="unit" d="M186,123.5 L179.5,142.9 L170.5,141.3 L177,122 L186,123.5 L186,123.5 Z M186,123.5" id="2031"/>
            <path class="unit" d="M248.8,111.2 L254.6,112.2 L254.8,112.2 L260.6,113.2 L252.2,120.1 L251.9,120.4 L243.5,127.3 L248.8,111.2 L248.8,111.2 Z M248.8,111.2" id="2032"/>
            <path class="unit" d="M154.7,138.1 L158.2,143.4 L158.6,143.9 L129.1,156.9 L125.5,151 L154.7,138.1 L154.7,138.1 Z M154.7,138.1" id="2033"/>
            <path class="unit" d="M236.7,109.1 L242.5,110.1 L235.7,130.5 L229.9,129.5 L236.7,109.1 L236.7,109.1 Z M236.7,109.1" id="2034"/>
            <path class="unit" d="M242.7,110.2 L248.5,111.2 L243,127.6 L240.7,129.5 L238.7,131.1 L235.8,130.6 L242.7,110.2 L242.7,110.2 Z M242.7,110.2" id="2035"/>
            <path class="unit" d="M262.4,114 L267.2,118.6 L244.2,131.6 L242.7,132.5 L241.8,131.7 L240.9,131.5 L242.5,130.1 L262.4,114 L262.4,114 Z M262.4,114" id="2036"/>
            <path class="unit" d="M309,103.7 L289.4,121 L293.6,124.4 L313.2,107.2 L309,103.7 L309,103.7 Z M309,103.7" id="2037"/>
            <path class="unit" d="M239.7,133 L240.6,133.7 L238,135.2 L231.5,138.9 L225.9,130.6 L236.1,132.4 L238.8,132.9 L239.7,133 L239.7,133 Z M239.7,133" id="2038"/>
            <path class="unit" d="M211.9,128 L205.4,147.4 L197.4,146 L203.9,126.6 L211.9,128 L211.9,128 Z M211.9,128" id="2039"/>
            <path class="unit" d="M225.5,130.5 L231.2,139 L224.7,142.7 L218.8,133.9 L220.2,129.6 L225.5,130.5 L225.5,130.5 Z M225.5,130.5" id="2040"/>
            <path class="unit" d="M218.7,134.1 L224.5,142.7 L218,146.4 L213.8,148.8 L215.7,143 L218.7,134.1 L218.7,134.1 Z M218.7,134.1" id="2041"/>
            <path class="unit" d="M220.1,129.5 L213.6,148.9 L205.6,147.5 L212.1,128.1 L220.1,129.5 L220.1,129.5 Z M220.1,129.5" id="2042"/>
            <path class="unit" d="M313.3,107.4 L293.7,124.6 L297.9,128 L317.4,110.8 L313.3,107.4 L313.3,107.4 Z M313.3,107.4" id="2043"/>
            <path class="unit" d="M161.1,150.6 C161.4,152.5 161.5,154.9 161.3,158 L136.6,168.9 L133,163 L161.1,150.6 L161.1,150.6 Z M161.1,150.6" id="2044"/>
            <path class="unit" d="M317.7,111 L298.3,128.2 L300.3,129.8 L319.7,112.6 L317.7,111 L317.7,111 Z M317.7,111" id="2045"/>
            <path class="unit" d="M275,123.5 L277.4,125.5 L255.9,143.6 L249.4,138.2 L250.8,137.4 L275,123.5 L275,123.5 Z M275,123.5" id="2046"/>
            <path class="unit" d="M161.2,158.1 C161,160.4 160.7,163 160.1,166 L140.2,174.7 L136.6,168.8 L161.2,158.1 L161.2,158.1 Z M161.2,158.1" id="2047"/>
            <path class="unit" d="M277.5,125.6 L279.9,127.6 L258.4,145.7 L256.1,143.7 L277.5,125.6 L277.5,125.6 Z M277.5,125.6" id="2048"/>
            <path class="unit" d="M279.9,127.7 L282.3,129.7 L260.7,147.8 L258.4,145.8 L279.9,127.7 L279.9,127.7 Z M279.9,127.7" id="2049"/>
            <path class="unit" d="M341.2,104.1 L347.5,85.4 L342.7,84.5 L343.4,82.3 L324.8,79 L317.9,100 L341.2,104.1 L341.2,104.1 Z M341.2,104.1" id="2050"/>
            <path class="unit" d="M282.4,129.8 L284.8,131.8 L263.2,150 L260.9,148 L282.4,129.8 L282.4,129.8 Z M282.4,129.8" id="2051"/>
            <path class="unit" d="M284.9,131.9 L287.2,133.9 L265.6,152.1 L263.7,150.5 L263.3,150.1 L284.9,131.9 L284.9,131.9 Z M284.9,131.9" id="2052"/>
            <path class="unit" d="M287.3,134 L287.8,134.4 L289.7,136 L268.1,154.1 L265.8,152.1 L287.3,134 L287.3,134 Z M287.3,134" id="2053"/>
            <path class="unit" d="M247.3,139.3 L256.5,147 L264.5,153.8 L259.6,156.9 L242.2,142.2 L247.3,139.3 L247.3,139.3 Z M247.3,139.3" id="2054"/>
            <path class="unit" d="M242,142.3 L259.4,157 L254.5,160.1 L236.9,145.2 L242,142.3 L242,142.3 Z M242,142.3" id="2055"/>
            <path class="unit" d="M289.8,136.1 L292.1,138.1 L270.5,156.2 L268.2,154.2 L289.8,136.1 L289.8,136.1 Z M289.8,136.1" id="2056"/>
            <path class="unit" d="M331.3,122.3 L339.2,129.1 L319.7,145.5 L311.8,139.1 L331,122.5 L331.3,122.3 L331.3,122.3 Z M331.3,122.3" id="2057"/>
            <path class="unit" d="M236.7,145.4 L254.3,160.3 L249.4,163.4 L231.5,148.3 L236.7,145.4 L236.7,145.4 Z M236.7,145.4" id="2058"/>
            <path class="unit" d="M292.2,138.3 L294.5,140.3 L273,158.4 L270.6,156.4 L292.2,138.3 L292.2,138.3 Z M292.2,138.3" id="2059"/>
            <path class="unit" d="M231.3,148.4 L249.2,163.5 L244.3,166.6 L226.2,151.3 L231.3,148.4 L231.3,148.4 Z M231.3,148.4" id="2060"/>
            <path class="unit" d="M294.6,140.4 L296.8,142.3 L287.2,150.6 L275.4,160.5 L273,158.5 L294.6,140.4 L294.6,140.4 Z M294.6,140.4" id="2061"/>
            <path class="unit" d="M226,151.4 L244.1,166.7 L239.2,169.8 L220.9,154.3 L226,151.4 L226,151.4 Z M226,151.4" id="2062"/>
            <path class="unit" d="M340.1,129.6 L342,131.2 L342.8,131.8 L322.8,148.8 L322.7,148.7 L320.1,146.5 L339.9,129.8 L340.1,129.6 L340.1,129.6 Z M340.1,129.6" id="2063"/>
            <path class="unit" d="M220.7,154.5 L239,170 L234.1,173.1 L215.9,157.7 C218.3,155.9 219.8,155 219.9,155 L220.7,154.5 L220.7,154.5 Z M220.7,154.5" id="2064"/>
            <path class="unit" d="M215.8,157.8 L234,173.2 L229.1,176.3 L211.6,161.5 C213.1,160 214.5,158.8 215.8,157.8 L215.8,157.8 L215.8,157.8 Z M215.8,157.8" id="2065"/>
            <path class="unit" d="M211.4,161.6 L228.9,176.4 L224,179.5 L207.7,165.7 C208.9,164.2 210.2,162.8 211.4,161.6 L211.4,161.6 L211.4,161.6 Z M211.4,161.6" id="2066"/>
            <path class="unit" d="M342.9,131.9 L344.7,133.4 L349.1,137.2 L329.2,154.1 L325.2,150.7 L323,148.9 L342.9,131.9 L342.9,131.9 Z M342.9,131.9" id="2067"/>
            <path class="unit" d="M207.5,165.9 L223.7,179.6 L218.8,182.7 L218.6,182.8 L213.7,185.9 L210.8,183.5 L201.2,175.4 C202.1,173.6 203,172 204,170.5 C204,170.4 204.1,170.4 204.1,170.3 C205.3,168.7 206.4,167.2 207.5,165.9 L207.5,165.9 L207.5,165.9 Z M207.5,165.9" id="2068"/>
            <path class="unit" d="M159.4,169.5 C159.4,169.5 159.4,169.8 159.5,170.2 C159.6,170.6 159.7,171.2 159.9,171.9 C159.9,172 160,172.1 160,172.2 C160.2,172.9 160.5,173.8 161,174.7 C161,174.8 161.1,174.9 161.1,175 C163,178.8 166.9,183.3 175.1,184.7 C186.8,186.8 195.4,180.8 198.5,178.2 C199.3,177.5 199.7,177.1 199.7,177.1 L200.2,177.5 L200.3,177.6 L200.5,177.8 L200.7,178 L211.2,187.5 C202,197.7 185.7,203.3 169.7,200.4 C154.8,197.8 146.3,188.7 141.7,177.6 L141.9,177.5 L145.1,176 L158.4,169.9 L159.4,169.5 L159.4,169.5 Z M159.4,169.5" id="2069"/>
            <path class="unit" d="M298.7,143.5 L304.4,148.6 L325.9,167.6 L305.6,184.8 L305,185.3 L277.5,162.1 L278.5,161.2 L298.6,143.5 L298.7,143.5 L298.7,143.5 Z M298.7,143.5" id="2070"/>
            <path class="unit" d="M358.6,141 L369.1,150.2 L389.9,168.3 L393.8,171.6 L339.4,219.8 L303.9,189.1 L305,188.1 L305.8,187.4 L306.4,186.9 L307.2,186.2 L354.9,144.3 L356.2,143.2 L358.4,141.3 L358.6,141 L358.6,141 Z M358.6,141" id="2071"/>
            <path class="unit" d="M158.7,144 C159,144.4 159.3,144.8 159.5,145.3 C159.8,145.9 160.1,146.7 160.4,147.4 C160.7,148.2 160.9,149.2 161.1,150.4 L132.9,162.8 L129.3,156.9 L158.7,144 L158.7,144 Z M158.7,144" id="2072"/>
            <path class="unit" d="M176.5,121.8 L162,129.6 L153.6,117.7 L176.5,121.8 L176.5,121.8 Z M176.5,121.8" id="2073"/>
            <path class="unit" d="M191.8,73.5 L186.2,90.2 L182.6,89.6 L188.2,72.9 L191.8,73.5 L191.8,73.5 Z M191.8,73.5" id="2074"/>
            <path class="unit" d="M195.6,74.2 L190,90.9 L186.4,90.3 L192,73.6 L195.6,74.2 L195.6,74.2 Z M195.6,74.2" id="2075"/>
            <path class="unit" d="M208.5,82.9 L206.8,87.9 L206.7,87.9 C202.1,87.1 197.4,88.7 194.4,91.7 L191.4,91.2 L194.9,80.6 L208.5,82.9 L208.5,82.9 Z M208.5,82.9" id="2076"/>
            <path class="unit" d="M290.8,88.8 L290.2,89.3 L272.6,103.6 L272.3,103.9 L270.2,105.6 L259.1,103.6 L265.5,84.4 L278,86.6 L278.2,86.6 L290.8,88.8 L290.8,88.8 Z M290.8,88.8" id="2077"/>
            <path class="unit" d="M265.3,84.3 L258.9,103.5 L246.4,101.2 L252.8,82.1 L265.3,84.3 L265.3,84.3 Z M265.3,84.3" id="2078"/>
            <path class="unit" d="M234.5,81 L228.8,98 L225.4,97.4 L231.1,80.4 L234.5,81 L234.5,81 Z M234.5,81" id="2079"/>
            <path class="unit" d="M238.1,81.7 L232.4,98.7 L229,98 L234.7,81 L238.1,81.7 L238.1,81.7 Z M238.1,81.7" id="2080"/>
            <path class="unit" d="M240,79.9 L239.8,80.5 L239.8,80.7 L233.9,98.9 L239.6,100 L245.8,80.9 L240,79.9 L240,79.9 Z M240,79.9" id="2081"/>
            <path class="unit" d="M230.8,80.4 L225.1,97.4 L221.7,96.8 L227.4,79.8 L230.8,80.4 L230.8,80.4 Z M230.8,80.4" id="2082"/>
            <path class="unit" d="M223.9,85.6 L220.3,96.4 L215.4,95.5 C214.7,91.9 211.6,88.9 207.1,88 L208.8,83 L223.9,85.6 L223.9,85.6 Z M223.9,85.6" id="2083"/>
            <path class="unit" d="M188,72.8 L182.4,89.5 L178.8,88.9 L184.4,72.2 L188,72.8 L188,72.8 Z M188,72.8" id="2084"/>
            <path class="unit" d="M167.9,68.1 L173.1,69 L167.1,86.8 L161.9,85.9 L167.9,68.1 L167.9,68.1 Z M167.9,68.1" id="2085"/>
            <path class="unit" d="M173.3,69 L178.5,69.9 L172.5,87.7 L167.3,86.8 L173.3,69 L173.3,69 Z M173.3,69" id="2086"/>
            <path class="unit" d="M178.7,70 L183.3,70.8 L183.9,70.9 L183.7,71.6 L178,88.7 L177.4,88.6 L172.8,87.8 L178.7,70 L178.7,70 Z M178.7,70" id="2087"/>
            <path class="unit" d="M244.3,61.3 L237.9,80.1 L237.8,80.3 L226.2,78.3 L224.2,84.4 L195.3,79.3 L197.3,73.2 L185.3,71 L184.2,70.8 L190.6,51.8 L244.3,61.3 L244.3,61.3 Z M244.3,61.3" id="2088"/>
            <path class="unit" d="M212.5,104.8 L217.1,105.6 L210.9,124.2 L210.3,125.9 L210.2,126.1 L205.6,125.3 L212.5,104.8 L212.5,104.8 Z M212.5,104.8" id="2089"/>
            <path class="unit" d="M82.7,113 L89.6,134.4 L83.6,136.2 L76.7,114.8 L82.7,113 L82.7,113 Z M82.7,113" id="2090"/>
            <path class="unit" d="M76.5,114.9 L83.4,136.3 L77.4,138.1 L70.5,116.7 L76.5,114.9 L76.5,114.9 Z M76.5,114.9" id="2091"/>
            <path class="unit" d="M70.4,116.7 L77.3,138.1 L71.3,139.9 L64.4,118.5 L70.4,116.7 L70.4,116.7 Z M70.4,116.7" id="2092"/>
            <path class="unit" d="M162.5,67.1 L167.7,68 L161.7,85.9 L156.5,85 L162.5,67.1 L162.5,67.1 Z M162.5,67.1" id="2094"/>
            <path class="unit" d="M145.7,64 L156.8,66 L150.8,83.9 L145.8,83 L145.7,82.7 L145.5,82.1 L144.8,79.3 L141,63.9 L140.8,63.1 L145.7,64 L145.7,64 Z M145.7,64" id="2095"/>
            <path class="unit" d="M143.9,83.3 L139.1,64.3 L138.9,63.5 L135.7,64.5 L140.9,84.2 L143.9,83.3 L143.9,83.3 Z M143.9,83.3" id="2096"/>
            <path class="unit" d="M113.7,70.9 L120,90.3 L111.2,92.9 L105,73.5 L113.7,70.9 L113.7,70.9 Z M113.7,70.9" id="2097"/>
            <path class="unit" d="M104.8,73.6 L111.1,93 L102.3,95.6 L96,76.2 L104.8,73.6 L104.8,73.6 Z M104.8,73.6" id="2098"/>
            <path class="unit" d="M95.8,76.3 L102.1,95.7 L93.3,98.3 L87,78.9 L95.8,76.3 L95.8,76.3 Z M95.8,76.3" id="2099"/>
            <path class="unit" d="M85.1,79.3 L91.4,98.8 L86.4,100.3 L80.1,80.8 L85.1,79.3 L85.1,79.3 Z M85.1,79.3" id="2100"/>
            <path class="unit" d="M79.9,80.8 L86.2,100.3 L81.2,101.8 L74.9,82.3 L79.9,80.8 L79.9,80.8 Z M79.9,80.8" id="2101"/>
            <path class="unit" d="M74.7,82.4 L81,101.9 L76,103.4 L69.7,83.9 L74.7,82.4 L74.7,82.4 Z M74.7,82.4" id="2102"/>
            <path class="unit" d="M65.9,106.4 L59.6,87 L49.1,90.2 L55.4,109.7 L65.9,106.4 L65.9,106.4 Z M65.9,106.4" id="2103"/>
            <path class="unit" d="M44.7,91.3 L45,92.3 L51.1,110.9 L54.2,121.8 L64.4,118.5 L71.3,139.9 L21.3,155.5 L3.6,103.4 L44.7,91.3 L44.7,91.3 Z M44.7,91.3" id="2105"/>
            <path class="unit" d="M157.1,66.1 L162.3,67 L156.3,84.9 L151.1,84 L157.1,66.1 L157.1,66.1 Z M157.1,66.1" id="2106"/>
            <path class="unit" d="M140.7,84.3 L135.5,64.6 L125.1,67.6 L131.1,87 L140.7,84.3 L140.7,84.3 Z M140.7,84.3" id="2107"/>
            <path class="unit" d="M357.4,40.3 L355.5,45.8 C354.3,46.3 353.1,46.9 352,47.6 L336.3,44.8 L339,37 L357.4,40.3 L357.4,40.3 Z M357.4,40.3" id="2108"/>
            <path class="unit" d="M344.3,14 L336.9,36.3 L313.7,32.2 L321.1,9.9 L344.3,14 L344.3,14 Z M344.3,14" id="2109"/>
            <path class="unit" d="M373.9,8.3 L350,4.1 L342.3,27 L360.7,30.3 L362,26.4 L367.4,27.4 L373.9,8.3 L373.9,8.3 Z M373.9,8.3" id="2110"/>
            <path class="unit" d="M360.1,32.2 L357.5,40.1 L339,36.8 L341.6,28.9 L360.1,32.2 L360.1,32.2 Z M360.1,32.2" id="2111"/>
            <path class="unit" d="M393.1,60.1 L391.9,63.8 L390.2,63.5 L389.1,63.3 L388,63.1 L389.2,59.4 L390.3,59.6 L391.4,59.8 L393.1,60.1 L393.1,60.1 Z M393.1,60.1" id="2112"/>
            <path class="unit" d="M393.6,47.2 L375.1,44 L373.5,48.7 C376.3,51.5 377.5,55.3 376.2,59.1 C375.9,60 375.5,60.8 375,61.6 L387.7,63.8 L387.9,63.1 L389.1,59.4 L393.6,47.2 L393.6,47.2 Z M393.6,47.2" id="2113"/>
            <path class="unit" d="M405,13.8 L397.2,37.1 L396.8,37 L378.6,33.8 L380,29.6 L376.3,28.9 L382.7,9.8 L404.6,13.7 L405,13.8 L405,13.8 Z M405,13.8" id="2114"/>
            <path class="unit" d="M381.3,83.7 L372.5,110.1 L372.4,110.1 L350.6,106.3 L357,87 L360.6,87.6 L363,80.4 L381.3,83.7 L381.3,83.7 Z M381.3,83.7" id="2115"/>
            <path class="unit" d="M351.9,47.8 C349.7,49.4 348,51.5 347.2,53.9 C347.1,54.3 346.9,54.8 346.9,55.2 L333.6,53 L334.7,49.8 L336.3,45.1 L351.9,47.8 L351.9,47.8 Z M351.9,47.8" id="2116"/>
            <path class="unit" d="M349.3,64.5 L346.7,72.4 L328.3,69.1 L330.9,61.2 L349.3,64.5 L349.3,64.5 Z M349.3,64.5" id="2117"/>
            <path class="unit" d="M334.7,49.8 L333.6,53 L333.5,53.2 L333.3,53.9 L332.2,53.7 L331.1,53.5 L328.4,53 L328.6,52.3 L328.7,52.1 L329.8,48.9 L332.5,49.4 L333.6,49.6 L334.7,49.8 L334.7,49.8 Z M334.7,49.8" id="2118"/>
            <path class="unit" d="M346.8,55.5 C346.3,58.6 347.3,61.7 349.5,64 L349.4,64.3 L330.9,61 L333.3,53.8 L333.5,53.1 L346.8,55.5 L346.8,55.5 Z M346.8,55.5" id="2119"/>
            <path class="unit" d="M346.6,72.6 L344,80.5 L343.8,80.5 L325.6,77.3 L328.2,69.4 L346.6,72.6 L346.6,72.6 Z M346.6,72.6" id="2120"/>
            <path class="unit" d="M387.7,64 L381.7,81.8 L363.5,78.6 L367.2,67.5 C370.4,66.4 373.2,64.4 374.9,61.8 L387.7,64 L387.7,64 Z M387.7,64" id="2121"/>
            <path class="unit" d="M179,150.5 L176.7,157.2 L167.4,155.6 L169.7,148.9 L179,150.5 L179,150.5 Z M179,150.5" id="2123"/>
            <path class="unit" d="M204.9,155.2 L202.6,161.9 L193.3,160.3 L195.6,153.6 L204.9,155.2 L204.9,155.2 Z M204.9,155.2" id="2124"/>
            <path class="unit" d="M329.5,102.6 L329.4,103 L329.2,103.5 L329.1,103.9 L328.9,104.4 L325.8,113.7 L325.4,114 L323.6,115.6 L323.3,115.9 L304,132.9 L303.7,133.2 L305.5,134.8 L306.5,135.6 L306.8,135.9 L309.5,138.2 L309.8,137.9 L313.1,135.1 L329.3,121.1 L329.6,120.9 L330.4,120.2 L331.5,119.3 L332.1,118.7 L336.3,105.9 L336.5,105.4 L336.6,105 L336.8,104.5 L336.9,104.1 L329.5,102.6 L329.5,102.6 Z M329.5,102.6" id="2125"/>
            <path class="unit" d="M252.6,82.1 L246.1,81 L239.8,100 L246.1,101.2 L252.6,82.1 L252.6,82.1 Z M252.6,82.1" id="2126"/>
            <path class="unit" d="M114.4,70.6 L120.7,89.9 L130.9,87 L124.9,67.6 L114.4,70.6 L114.4,70.6 Z M114.4,70.6" id="2127"/>
            <path class="unit" d="M288,114.6 L304.6,100 L300.4,96.5 L300.3,96.6 L283.8,111.1 L288,114.6 L288,114.6 Z M288,114.6" id="2128"/>
            <path class="unit" d="M319.8,112.7 L300.4,129.9 L302.4,131.5 L303.4,130.6 L313.1,122.3 L322,114.5 L319.8,112.7 L319.8,112.7 Z M319.8,112.7" id="2129"/>
            <path class="unit" d="M70.9,104.9 L64.6,85.5 L59.7,87 L66,106.4 L70.9,104.9 L70.9,104.9 Z M70.9,104.9" id="2130"/>
            <path class="unit" d="M71,104.9 L75.9,103.5 L69.6,84 L64.7,85.5 L71,104.9 L71,104.9 Z M71,104.9" id="2131"/>
            <path class="unit" d="M393.6,47 L394.9,43.2 L376.4,40.1 L375.2,43.8 L393.6,47 L393.6,47 Z M393.6,47" id="2132"/>
            <path class="unit" d="M397.1,37.3 L378.5,34.1 L376.5,39.9 L395,43 L397.1,37.3 L397.1,37.3 Z M397.1,37.3" id="2133"/>
            <path class="unit" d="M184.4,170.4 L182.1,177.1 L172.8,175.5 L175.1,168.8 L184.4,170.4 L184.4,170.4 Z M184.4,170.4" id="2134"/>
            <path class="unit" d="M283.7,111.3 L280.7,113.9 L284.9,117.3 L287.9,114.7 L283.7,111.3 L283.7,111.3 Z M283.7,111.3" id="2135"/>
            <path class="unit" d="M146.3,111.5 L142,113 L137.8,106.8 L142.1,105.4 L146.3,111.5 Z M146.3,111.5" id="2136"/>
        </g>
    </g>
</svg>