<?xml version="1.0" encoding="utf-8"?>
<!DOCTYPE svg PUBLIC "-//W3C//DTD SVG 1.1//EN" "http://www.w3.org/Graphics/SVG/1.1/DTD/svg11.dtd">
<svg version="1.1" class="icon atm" xmlns="http://www.w3.org/2000/svg" xmlns:xlink="http://www.w3.org/1999/xlink" x="0px" y="0px"
	 width="22px" height="22px" viewBox="0 0 22 22" enable-background="new 0 0 22 22" xml:space="preserve">
<polygon fill-rule="evenodd" clip-rule="evenodd" points="1.994,2.393 1.994,5.718 4.15,5.718 4.307,3.993 
	17.539,3.993 17.695,5.718 20.005,5.718 20.005,2.393 "/>
<path d="M18.269,19.245H3.575l1.319-14.59H16.95L18.269,19.245z M4.373,18.517h13.1L16.285,5.383H5.56L4.373,18.517z
	"/>
<g>
	<defs>
		<rect id="SVGID_1_" width="22" height="22"/>
	</defs>
	<clipPath id="SVGID_2_">
		<use xlink:href="#SVGID_1_"  overflow="visible"/>
	</clipPath>
	<path clip-path="url(#SVGID_2_)" d="M6.662,15.133c0.278-0.128,0.523-0.279,0.737-0.452
		c0.214-0.173,0.392-0.365,0.536-0.581C8.078,13.885,8.156,13.65,8.18,13.4c0.013-0.157-0.004-0.313-0.055-0.472
		c-0.05-0.158-0.114-0.324-0.191-0.491c-0.684-0.068-1.026-0.11-1.708-0.219c0.075-0.468,0.112-0.701,0.186-1.169
		c0.422,0.067,0.635,0.097,1.059,0.148c-0.145-0.195-0.276-0.477-0.389-0.839c-0.114-0.364-0.137-0.75-0.075-1.163
		c0.053-0.368,0.19-0.702,0.398-1.011c0.209-0.309,0.483-0.573,0.818-0.793c0.335-0.221,0.732-0.387,1.191-0.507
		c0.46-0.12,0.977-0.174,1.564-0.175c1.073-0.001,1.915,0.228,2.592,0.755c0.677,0.528,1.127,1.331,1.287,2.453
		c-0.857,0.121-1.287,0.166-2.149,0.22c-0.02-0.139-0.052-0.31-0.097-0.517c-0.043-0.206-0.125-0.403-0.243-0.592
		s-0.287-0.352-0.507-0.489c-0.221-0.136-0.518-0.2-0.894-0.2c-0.449,0-0.805,0.107-1.082,0.329C9.609,8.891,9.455,9.191,9.433,9.58
		C9.426,9.692,9.426,9.799,9.431,9.902c0.004,0.102,0.022,0.221,0.053,0.358c0.03,0.137,0.086,0.296,0.17,0.477
		c0.084,0.18,0.204,0.399,0.363,0.655c0.886,0.027,1.33,0.026,2.215-0.014c0.021,0.474,0.033,0.709,0.055,1.183
		c-0.729,0.032-1.094,0.038-1.822,0.027c0.054,0.141,0.091,0.278,0.107,0.418c0.016,0.14,0.024,0.287,0.022,0.445
		c-0.005,0.438-0.157,0.81-0.467,1.113c-0.309,0.303-0.68,0.568-1.111,0.784c0.013,0.012,0.02,0.019,0.035,0.03
		c0.311-0.121,0.562-0.199,0.752-0.229c0.189-0.031,0.371-0.045,0.547-0.042c0.25,0.004,0.497,0.021,0.742,0.053
		c0.245,0.032,0.499,0.061,0.747,0.095c0.249,0.034,0.5,0.07,0.743,0.091c0.24,0.021,0.49,0.02,0.742,0.001
		c0.253-0.019,0.506-0.069,0.758-0.158c0.251-0.09,0.533-0.288,0.834-0.597c0.514,0.504,0.779,0.751,1.33,1.233
		c-0.411,0.396-0.885,0.69-1.41,0.882c-0.525,0.19-1.047,0.299-1.551,0.333s-0.926,0.028-1.258-0.008
		c-0.333-0.036-0.644-0.083-0.918-0.149c-0.289-0.069-0.58-0.139-0.867-0.2c-0.289-0.062-0.648-0.104-1.08-0.126
		c-0.354-0.019-0.725-0.008-1.117,0.028c-0.393,0.036-0.79,0.135-1.198,0.292c-0.432-0.567-0.638-0.854-1.033-1.435
		C6.1,15.364,6.383,15.26,6.662,15.133"/>
</g>
</svg>
