<?xml version="1.0" encoding="utf-8"?>
<!DOCTYPE svg PUBLIC "-//W3C//DTD SVG 1.1//EN" "http://www.w3.org/Graphics/SVG/1.1/DTD/svg11.dtd">
<svg version="1.1" class="icon award" xmlns="http://www.w3.org/2000/svg" xmlns:xlink="http://www.w3.org/1999/xlink" x="0px" y="0px"
	 width="22px" height="22px" viewBox="0 0 22 22" enable-background="new 0 0 22 22" xml:space="preserve">
<g>
	<defs>
		<rect id="SVGID_1_" width="22" height="22"/>
	</defs>
	<clipPath id="SVGID_2_">
		<use xlink:href="#SVGID_1_"  overflow="visible"/>
	</clipPath>
	<path clip-path="url(#SVGID_2_)" fill-rule="evenodd" clip-rule="evenodd" d="M10.653,5.372
		c-1.984,0-3.594,1.608-3.594,3.593c0,1.984,1.61,3.592,3.594,3.592c1.983,0,3.592-1.608,3.592-3.592
		C14.245,6.979,12.637,5.372,10.653,5.372"/>
	<path clip-path="url(#SVGID_2_)" fill-rule="evenodd" clip-rule="evenodd" d="M17.008,8.964
		c0-0.885-0.396-1.677-1.022-2.209c0.066-0.818-0.213-1.66-0.84-2.285c-0.624-0.626-1.465-0.905-2.283-0.84
		c-0.533-0.625-1.324-1.021-2.209-1.021c-0.886,0-1.678,0.396-2.21,1.021C7.625,3.565,6.784,3.844,6.159,4.47
		c-0.627,0.625-0.905,1.467-0.84,2.285C4.693,7.287,4.297,8.079,4.297,8.964c0,0.886,0.396,1.677,1.022,2.208
		c-0.065,0.82,0.213,1.661,0.84,2.285c0.625,0.627,1.466,0.906,2.284,0.84c0.516,0.605,1.275,0.993,2.125,1.018l1.655,4.979
		l0.96-2.643l2.635,1.608l-1.866-5.086c0.438-0.134,0.85-0.371,1.194-0.717c0.627-0.624,0.906-1.465,0.84-2.285
		C16.611,10.641,17.008,9.85,17.008,8.964 M11.577,13.253c-0.013,0-0.026,0-0.039,0l-0.015,0.012
		c-0.28,0.058-0.572,0.087-0.87,0.087c-2.424,0-4.388-1.965-4.388-4.388s1.964-4.388,4.388-4.388c2.422,0,4.387,1.965,4.387,4.388
		C15.04,11.07,13.556,12.828,11.577,13.253"/>
</g>
</svg>
