<?xml version="1.0" encoding="utf-8"?>
<!DOCTYPE svg PUBLIC "-//W3C//DTD SVG 1.1//EN" "http://www.w3.org/Graphics/SVG/1.1/DTD/svg11.dtd">
<svg version="1.1" class="icon baby_changing" xmlns="http://www.w3.org/2000/svg" xmlns:xlink="http://www.w3.org/1999/xlink" x="0px" y="0px"
	 width="22px" height="22px" viewBox="0 0 22 22" enable-background="new 0 0 22 22" xml:space="preserve">
<g>
	<defs>
		<rect id="SVGID_1_" width="22" height="22"/>
	</defs>
	<clipPath id="SVGID_2_">
		<use xlink:href="#SVGID_1_"  overflow="visible"/>
	</clipPath>
	<path clip-path="url(#SVGID_2_)" fill-rule="evenodd" clip-rule="evenodd" d="M11.09,6.948
		c-1.86,0-3.722-0.01-5.583,0.007C4.906,6.959,4.414,7.213,4.396,7.886C4.376,8.593,4.812,8.936,5.497,8.96
		C6.001,8.974,6.506,8.969,7.01,8.969c1.602,0.003,1.632,0.002,1.642,1.559c0.004,0.719,0.209,1.092,0.987,1.068
		c1.007-0.029,2.016-0.012,3.024-0.003c0.496,0.005,0.781-0.15,0.844-0.711c0.07-0.622-0.354-1.476,0.281-1.814
		c0.521-0.277,1.288-0.09,1.946-0.107c0.155-0.004,0.31-0.004,0.465,0c0.764,0.019,1.495-0.129,1.467-1.062
		c-0.026-0.864-0.758-0.953-1.459-0.952C14.502,6.948,12.795,6.948,11.09,6.948"/>
	<path clip-path="url(#SVGID_2_)" fill-rule="evenodd" clip-rule="evenodd" d="M11.014,6.667
		c1.379,0.011,2.445-1.015,2.471-2.379c0.026-1.322-1.068-2.437-2.412-2.457C9.721,1.812,8.633,2.88,8.633,4.23
		C8.634,5.64,9.626,6.656,11.014,6.667"/>
	<path clip-path="url(#SVGID_2_)" fill-rule="evenodd" clip-rule="evenodd" d="M6.585,15.658
		c-0.002,0.588,1.072,2.964,1.514,3.346c0.588,0.507,1.316,0.244,1.472-0.545c0.12-0.612-0.123-1.147-0.423-1.654
		c-0.429-0.724-0.455-1.336,0.33-1.866c0.285-0.192,0.729-0.519,0.337-0.942c-0.35-0.377-0.686-0.906-1.325-0.798
		C7.823,13.312,6.59,14.946,6.585,15.658"/>
	<path clip-path="url(#SVGID_2_)" fill-rule="evenodd" clip-rule="evenodd" d="M12.591,18.058
		c-0.002,0.608,0.152,0.999,0.614,1.158c0.472,0.162,0.855-0.078,1.096-0.449c0.313-0.483,0.538-1.023,0.82-1.527
		c1.148-2.049,0.22-2.768-1.135-3.896c-0.62-0.518-0.97,0.123-1.366,0.427c-0.285,0.218-0.575,0.598-0.169,0.857
		c1.304,0.833,0.958,1.767,0.304,2.791C12.618,17.632,12.621,17.934,12.591,18.058"/>
	<path clip-path="url(#SVGID_2_)" fill-rule="evenodd" clip-rule="evenodd" d="M11.09,6.948
		c1.705,0,3.412,0,5.117-0.001c0.701-0.001,1.433,0.088,1.459,0.952c0.028,0.933-0.703,1.081-1.467,1.062
		c-0.155-0.004-0.31-0.004-0.465,0c-0.658,0.017-1.426-0.17-1.946,0.107c-0.635,0.338-0.211,1.192-0.281,1.814
		c-0.062,0.561-0.348,0.716-0.844,0.711c-1.008-0.009-2.017-0.026-3.024,0.003c-0.778,0.023-0.983-0.35-0.987-1.068
		c-0.01-1.557-0.04-1.556-1.642-1.559c-0.504,0-1.009,0.005-1.513-0.009C4.812,8.936,4.376,8.593,4.396,7.886
		c0.019-0.673,0.511-0.927,1.112-0.931C7.368,6.938,9.229,6.948,11.09,6.948"/>
	<path clip-path="url(#SVGID_2_)" fill-rule="evenodd" clip-rule="evenodd" d="M11.014,6.667
		C9.626,6.656,8.634,5.64,8.633,4.23c0-1.35,1.088-2.418,2.439-2.399c1.344,0.02,2.438,1.135,2.412,2.457
		C13.459,5.652,12.393,6.678,11.014,6.667"/>
	<path clip-path="url(#SVGID_2_)" fill-rule="evenodd" clip-rule="evenodd" d="M6.585,15.658
		c0.005-0.712,1.238-2.346,1.905-2.46c0.639-0.108,0.975,0.421,1.325,0.798c0.392,0.424-0.052,0.75-0.337,0.942
		c-0.785,0.53-0.759,1.143-0.33,1.866c0.3,0.507,0.543,1.042,0.423,1.654c-0.156,0.789-0.884,1.052-1.472,0.545
		C7.657,18.622,6.583,16.246,6.585,15.658"/>
	<path clip-path="url(#SVGID_2_)" fill-rule="evenodd" clip-rule="evenodd" d="M12.591,18.058
		c0.03-0.124,0.027-0.426,0.164-0.64c0.654-1.024,1-1.958-0.304-2.791c-0.406-0.26-0.116-0.64,0.169-0.857
		c0.396-0.304,0.746-0.944,1.366-0.427c1.354,1.129,2.283,1.848,1.135,3.896c-0.282,0.504-0.507,1.044-0.82,1.527
		c-0.24,0.371-0.624,0.611-1.096,0.449C12.743,19.057,12.589,18.666,12.591,18.058"/>
</g>
</svg>
