<?xml version="1.0" encoding="utf-8"?>
<!DOCTYPE svg PUBLIC "-//W3C//DTD SVG 1.1//EN" "http://www.w3.org/Graphics/SVG/1.1/DTD/svg11.dtd">
<svg version="1.1" class="icon bicycle" xmlns="http://www.w3.org/2000/svg" xmlns:xlink="http://www.w3.org/1999/xlink" x="0px" y="0px"
	 width="22px" height="22px" viewBox="0 0 22 22" enable-background="new 0 0 22 22" xml:space="preserve">
<g>
	<defs>
		<rect id="SVGID_1_" width="22" height="22"/>
	</defs>
	<clipPath id="SVGID_2_">
		<use xlink:href="#SVGID_1_"  overflow="visible"/>
	</clipPath>
	<path clip-path="url(#SVGID_2_)" fill-rule="evenodd" clip-rule="evenodd" d="M13.684,8.416
		c-0.615,0.899-1.182,1.721-1.744,2.546c-0.224,0.329-0.443,0.66-0.655,0.994c-0.141,0.219-0.322,0.335-0.587,0.308
		c-0.073-0.008-0.147-0.006-0.222-0.004c-0.353,0.006-0.753-0.086-1.046,0.05c-0.294,0.138-0.211,0.596-0.328,0.9
		c-0.605,1.609-2.497,2.529-4.166,2.021c-1.706-0.519-2.786-2.389-2.353-4.071c0.492-1.905,2.289-2.943,4.283-2.485
		c0.152,0.035,0.382,0.25,0.489-0.043c0.11-0.298,0.475-0.534,0.305-0.901C7.543,7.479,7.422,7.195,7.022,7.235
		C6.76,7.263,6.337,7.373,6.344,6.918C6.349,6.478,6.763,6.607,7.035,6.6c0.529-0.012,1.061-0.005,1.592-0.003
		C8.856,6.597,9.102,6.61,9.117,6.91c0.015,0.316-0.233,0.329-0.461,0.335C8.509,7.25,8.364,7.247,8.182,7.247
		c0.057,0.272,0.182,0.382,0.422,0.382c1.49-0.003,2.978-0.006,4.469,0.001c0.228,0.001,0.325-0.062,0.282-0.303
		c-0.068-0.376-0.124-0.756-0.178-1.135c-0.022-0.15-0.083-0.234-0.25-0.246C12.68,5.93,12.43,5.886,12.18,5.868
		c-0.219-0.017-0.324-0.127-0.312-0.341c0.012-0.196,0.133-0.286,0.327-0.272c0.412,0.029,0.822,0.053,1.234,0.096
		c0.209,0.023,0.274,0.181,0.305,0.375c0.089,0.579,0.188,1.158,0.283,1.738c0.033-0.007,0.077-0.006,0.083-0.02
		c0.068-0.163,0.119-0.404,0.302-0.389c0.195,0.018,0.114,0.29,0.191,0.436c0.035,0.062,0.041,0.14,0.057,0.213
		c0.11,0.473,0.09,0.496-0.383,0.422c0.071,0.444,0.238,0.623,0.763,0.511c1.412-0.295,2.618,0.158,3.449,1.332
		c0.897,1.267,0.88,2.612,0.041,3.929c-0.663,1.043-2.112,1.682-3.395,1.42c-1.34-0.274-2.286-1.056-2.661-2.408
		c-0.418-1.513,0.021-2.763,1.262-3.711C14.123,8.897,13.719,8.739,13.684,8.416 M15.856,9.188
		c-0.265,0.018-0.529,0.029-0.793,0.057c-0.198,0.02-0.284,0.107-0.173,0.321c0.164,0.313,0.318,0.629,0.448,0.956
		c0.105,0.264,0.256,0.368,0.551,0.389c0.649,0.045,1.078,0.732,0.874,1.352c-0.142,0.423-0.435,0.695-0.881,0.772
		c-0.457,0.079-0.826-0.108-1.071-0.472c-0.246-0.363-0.239-0.777-0.03-1.169c0.075-0.143,0.183-0.247,0.084-0.432
		c-0.181-0.336-0.345-0.681-0.489-1.034c-0.111-0.269-0.227-0.268-0.446-0.106c-0.852,0.632-1.236,2.133-0.798,3.177
		c0.521,1.24,1.93,1.984,3.171,1.674c1.391-0.348,2.314-1.585,2.188-2.963C18.37,10.426,17.288,9.212,15.856,9.188 M5.89,14.729
		c1.318,0.009,2.572-0.996,2.727-2.187c0.014-0.102,0.106-0.285-0.091-0.262c-0.619,0.078-1.355-0.351-1.823,0.415
		c-0.065,0.104-0.195,0.185-0.311,0.24c-0.374,0.182-0.741,0.156-1.085-0.082c-0.395-0.273-0.535-0.659-0.434-1.118
		c0.083-0.375,0.279-0.774,0.676-0.777c0.595-0.006,0.792-0.364,0.988-0.796c0.078-0.174,0.174-0.343,0.28-0.5
		c0.15-0.224,0.093-0.357-0.161-0.398C6.144,9.182,5.628,9.146,5.124,9.292c-1.288,0.375-2.15,1.713-1.967,3.03
		C3.346,13.677,4.53,14.721,5.89,14.729 M8.803,8.277c0.711,1.068,1.377,2.068,2.075,3.114c0.728-1.069,1.408-2.068,2.119-3.114
		H8.803z M7.828,11.623v0.005c0.19,0,0.381-0.013,0.57,0.003c0.212,0.018,0.289-0.027,0.247-0.264
		c-0.112-0.625-0.494-1.078-0.912-1.514C7.605,9.72,7.486,9.733,7.39,9.915c-0.182,0.349-0.39,0.686-0.565,1.04
		c-0.16,0.322,0.037,0.649,0.389,0.667C7.418,11.632,7.624,11.623,7.828,11.623 M10.25,11.582c-0.7-1.042-1.374-2.047-2.055-3.062
		C7.807,9.045,7.805,9.046,8.22,9.438c0.469,0.442,0.798,0.965,0.974,1.589c0.189,0.668,0.199,0.665,0.906,0.582
		C10.13,11.605,10.157,11.6,10.25,11.582 M15.613,11.163c0.714,0.365,0.859,0.582,0.737,1.009c-0.095,0.331-0.417,0.521-0.812,0.417
		c-0.593-0.158-0.498-0.643-0.41-1.149c-0.313,0.41-0.324,0.738-0.05,1.039s0.613,0.392,0.995,0.208
		c0.368-0.175,0.505-0.487,0.454-0.868C16.472,11.401,16.161,11.174,15.613,11.163 M6.617,12.358
		c-0.031-0.032-0.062-0.067-0.095-0.101c-0.05,0.069-0.092,0.147-0.152,0.203c-0.238,0.214-0.525,0.188-0.781,0.077
		c-0.27-0.116-0.344-0.377-0.325-0.662c0.023-0.329,0.215-0.493,0.523-0.557c0.063-0.014,0.157-0.03,0.141-0.132
		c-0.018-0.107-0.103-0.076-0.172-0.064c-0.322,0.057-0.641,0.439-0.662,0.794c-0.022,0.37,0.262,0.762,0.636,0.838
		C6.119,12.833,6.43,12.71,6.617,12.358"/>
</g>
</svg>
