<?xml version="1.0" encoding="utf-8"?>
<!DOCTYPE svg PUBLIC "-//W3C//DTD SVG 1.1//EN" "http://www.w3.org/Graphics/SVG/1.1/DTD/svg11.dtd">
<svg version="1.1" class="icon public_transport" xmlns="http://www.w3.org/2000/svg" xmlns:xlink="http://www.w3.org/1999/xlink" x="0px" y="0px"
	 width="22px" height="22px" viewBox="0 0 22 22" enable-background="new 0 0 22 22" xml:space="preserve">
<g>
	<defs>
		<rect id="SVGID_1_" width="22" height="22"/>
	</defs>
	<clipPath id="SVGID_2_">
		<use xlink:href="#SVGID_1_"  overflow="visible"/>
	</clipPath>
	<path clip-path="url(#SVGID_2_)" fill-rule="evenodd" clip-rule="evenodd" d="M4.124,10.178
		c0-1.654-0.009-3.308,0.002-4.962c0.013-1.763,1.045-2.829,2.798-2.844c2.609-0.021,5.218-0.022,7.826,0.001
		c1.735,0.017,2.763,1.069,2.769,2.8c0.012,3.394,0.008,6.787,0.001,10.181c-0.001,0.963-0.276,1.32-1.238,1.551
		c-0.266,0.063-0.284,0.181-0.281,0.384c0.004,0.232,0.016,0.468-0.009,0.699c-0.071,0.659-0.4,0.973-1.018,0.99
		c-0.618,0.017-1.01-0.332-1.104-0.985c-0.048-0.332,0.145-0.779-0.088-0.977c-0.299-0.252-0.772-0.085-1.169-0.089
		c-1.42-0.013-2.842,0.018-4.262-0.017c-0.494-0.013-0.649,0.152-0.587,0.613c0.022,0.167,0.009,0.34-0.005,0.509
		c-0.05,0.57-0.378,0.88-0.935,0.94c-0.58,0.062-1.101-0.23-1.118-0.78c-0.024-0.788-0.2-1.322-1.039-1.601
		c-0.505-0.168-0.547-0.749-0.546-1.26C4.127,13.614,4.124,11.896,4.124,10.178 M10.795,9.551c1.484,0,2.969,0.004,4.454-0.002
		c0.783-0.004,1.187-0.374,1.213-1.153c0.027-0.783,0.033-1.57-0.003-2.354c-0.047-1.035-0.676-1.637-1.716-1.642
		c-2.609-0.013-5.218-0.012-7.827-0.001C5.86,4.404,5.219,5.05,5.198,6.104C5.184,6.825,5.189,7.546,5.196,8.267
		c0.008,0.903,0.38,1.279,1.273,1.282C7.911,9.555,9.353,9.551,10.795,9.551 M10.813,3.869c0.593,0,1.187,0.005,1.78-0.001
		c0.318-0.004,0.606-0.077,0.622-0.475c0.017-0.419-0.262-0.555-0.616-0.558c-1.187-0.008-2.373-0.007-3.56-0.003
		C8.696,2.833,8.451,3,8.445,3.355C8.439,3.721,8.686,3.869,9.033,3.869C9.626,3.868,10.22,3.869,10.813,3.869 M7.697,13.449
		c-0.009-0.63-0.549-1.144-1.197-1.137c-0.672,0.008-1.168,0.502-1.161,1.157c0.007,0.63,0.552,1.167,1.181,1.164
		C7.107,14.631,7.704,14.03,7.697,13.449 M15.138,12.313c-0.675,0.004-1.163,0.487-1.163,1.148c0.001,0.625,0.545,1.17,1.172,1.172
		c0.621,0.002,1.154-0.543,1.151-1.178C16.295,12.784,15.814,12.31,15.138,12.313 M10.878,13.72c-0.654,0-1.308-0.002-1.962,0.002
		c-0.166,0.002-0.379-0.005-0.393,0.22c-0.013,0.25,0.193,0.297,0.396,0.297c1.287,0.002,2.575,0.001,3.863,0
		c0.183-0.001,0.356-0.064,0.36-0.27c0.002-0.225-0.189-0.247-0.364-0.247C12.145,13.719,11.512,13.721,10.878,13.72 M10.853,12.598
		H8.949c-0.199,0-0.406,0.014-0.431,0.264c-0.028,0.279,0.204,0.293,0.389,0.294c1.291,0.007,2.582,0.005,3.873,0.001
		c0.177,0,0.366-0.05,0.373-0.258c0.007-0.244-0.185-0.301-0.396-0.301C12.123,12.599,11.488,12.599,10.853,12.598"/>
</g>
</svg>
