<?xml version="1.0" encoding="utf-8"?>
<!DOCTYPE svg PUBLIC "-//W3C//DTD SVG 1.1//EN" "http://www.w3.org/Graphics/SVG/1.1/DTD/svg11.dtd">
<svg version="1.1" class="icon calendar" xmlns="http://www.w3.org/2000/svg" xmlns:xlink="http://www.w3.org/1999/xlink" x="0px" y="0px"
	 width="22px" height="22px" viewBox="0 0 22 22" enable-background="new 0 0 22 22" xml:space="preserve">
<path d="M17.019,4.38v2.521h-0.711V2.313h-2.46v4.588H12.92V4.38H8.821v2.521H7.829V2.313H5.37v4.588H4.723V4.38
	H2.135v15.503h17.73V4.38H17.019z M7.699,17.829H4.594v-3.105h3.105V17.829z M7.699,12.792H4.594V9.687h3.105V12.792z
	 M12.554,17.829H9.448v-3.105h3.105V17.829z M12.554,12.792H9.448V9.687h3.105V12.792z M17.343,17.829h-3.105v-3.105h3.105V17.829z
	 M17.343,12.792h-3.105V9.687h3.105V12.792z"/>
</svg>
