<?xml version="1.0" encoding="utf-8"?>
<!DOCTYPE svg PUBLIC "-//W3C//DTD SVG 1.1//EN" "http://www.w3.org/Graphics/SVG/1.1/DTD/svg11.dtd">
<svg version="1.1" class="icon customer_services" xmlns="http://www.w3.org/2000/svg" xmlns:xlink="http://www.w3.org/1999/xlink" x="0px" y="0px"
	 width="22px" height="22px" viewBox="0 0 22 22" enable-background="new 0 0 22 22" xml:space="preserve">
<g>
	<defs>
		<rect id="SVGID_1_" width="22" height="22"/>
	</defs>
	<clipPath id="SVGID_2_">
		<use xlink:href="#SVGID_1_"  overflow="visible"/>
	</clipPath>
	<path clip-path="url(#SVGID_2_)" d="M17.347,4.655c-3.505-3.507-9.188-3.507-12.693,0
		c-3.505,3.503-3.505,9.186,0,12.688c3.506,3.508,9.188,3.508,12.693,0C20.852,13.841,20.852,8.158,17.347,4.655 M5.818,16.182
		c-2.863-2.863-2.863-7.5,0-10.363c2.86-2.863,7.503-2.863,10.363,0c2.863,2.863,2.863,7.5,0,10.363
		C13.321,19.044,8.678,19.044,5.818,16.182"/>
	<rect x="10.003" y="9.624" clip-path="url(#SVGID_2_)" width="1.995" height="5.598"/>
	<rect x="10.003" y="6.191" clip-path="url(#SVGID_2_)" width="1.995" height="1.995"/>
</g>
</svg>
