<?xml version="1.0" encoding="utf-8"?>
<!DOCTYPE svg PUBLIC "-//W3C//DTD SVG 1.1//EN" "http://www.w3.org/Graphics/SVG/1.1/DTD/svg11.dtd">
<svg version="1.1" class="icon shopmobility" xmlns="http://www.w3.org/2000/svg" xmlns:xlink="http://www.w3.org/1999/xlink" x="0px" y="0px"
	 width="22px" height="22px" viewBox="0 0 22 22" enable-background="new 0 0 22 22" xml:space="preserve">
<g>
	<defs>
		<rect id="SVGID_1_" width="22" height="22"/>
	</defs>
	<clipPath id="SVGID_2_">
		<use xlink:href="#SVGID_1_"  overflow="visible"/>
	</clipPath>
	<path clip-path="url(#SVGID_2_)" fill-rule="evenodd" clip-rule="evenodd" d="M11.069,14.684
		c-0.143,0.209-0.271,0.392-0.395,0.578c-1.016,1.527-2.579,2.218-4.232,1.869c-1.513-0.321-2.738-1.617-3.007-3.181
		c-0.283-1.644,0.42-3.163,1.962-4.082c0.428-0.254,0.757-0.545,0.505-0.995c-0.26-0.46-0.659-0.055-0.941,0.084
		c-1.826,0.901-2.779,2.88-2.513,5.138c0.219,1.849,1.81,3.542,3.76,3.998c1.896,0.444,4.031-0.414,5.122-1.993
		C11.737,15.511,11.66,15.104,11.069,14.684"/>
	<path clip-path="url(#SVGID_2_)" fill-rule="evenodd" clip-rule="evenodd" d="M7.079,5.857
		c0.824-0.023,1.552-0.779,1.549-1.61C8.624,3.343,7.854,2.592,6.984,2.642C6.155,2.69,5.435,3.47,5.46,4.292
		C5.487,5.084,6.307,5.878,7.079,5.857"/>
	<path clip-path="url(#SVGID_2_)" fill-rule="evenodd" clip-rule="evenodd" d="M18.84,9.11
		c-1.735-0.042-3.472-0.084-5.207-0.127c-0.855-0.02-1.709-0.046-2.563-0.059l-0.248,0.052C10.764,8.543,10.371,8.46,9.963,8.47
		c-0.165,0.005-0.33-0.002-0.495-0.003C7.855,8.458,7.847,8.46,7.682,6.918c-0.043-0.4-0.158-0.748-0.598-0.773
		C6.564,6.116,6.427,6.508,6.422,6.94C6.412,7.797,6.42,8.654,6.42,9.512c0,0.823,0.014,1.648-0.007,2.47
		c-0.013,0.507,0.181,0.71,0.697,0.685c0.757-0.036,1.527,0.057,2.272-0.045c1.101-0.148,1.765,0.242,2.194,1.265
		c0.353,0.839,0.763,1.685,1.957,1.598c0.057-0.005,0.114-0.005,0.171-0.005c-0.108,0.242-0.171,0.51-0.171,0.794
		c0,1.069,0.867,1.937,1.938,1.937s1.938-0.867,1.938-1.937c0-1.071-0.867-1.938-1.938-1.938c-0.322,0-0.625,0.079-0.893,0.219
		c-0.16-0.239-0.511-0.312-0.828-0.312c-0.366-0.002-0.64-0.125-0.798-0.362c1.758-0.139,3.517-0.272,5.274-0.409
		c0.081-0.007,0.161-0.01,0.241-0.02c0.285-0.031,0.391-0.129,0.428-0.416c0.106-0.843,0.21-1.684,0.314-2.524
		c0.035-0.281,0.07-0.562,0.105-0.842C19.365,9.261,19.248,9.121,18.84,9.11 M15.471,15.239c0.57,0,1.034,0.463,1.034,1.034
		s-0.464,1.033-1.034,1.033c-0.571,0-1.033-0.462-1.033-1.033S14.899,15.239,15.471,15.239 M12.961,9.515
		c0.603,0.016,0.518-0.067,0.522,0.535c0.004,0.541,0,0.545-0.547,0.541c-0.613-0.005-0.527,0.083-0.535-0.537
		C12.401,9.502,12.401,9.499,12.961,9.515 M11.594,9.486c0.1,0,0.2,0.005,0.301-0.001c0.163-0.008,0.229,0.062,0.224,0.227
		c-0.009,0.227,0.001,0.457-0.005,0.684c-0.001,0.055-0.015,0.129-0.052,0.162c-0.13,0.116-0.519,0.014-0.585-0.146
		c-0.068-0.161-0.131-0.324-0.196-0.485C11.082,9.429,11.047,9.469,11.594,9.486 M11.781,10.877
		c0.108,0.028,0.306,0.047,0.311,0.084c0.026,0.267,0.014,0.538,0.014,0.807c-0.026,0.007-0.051,0.013-0.077,0.02
		c-0.096-0.237-0.199-0.473-0.283-0.714C11.727,11.02,11.769,10.943,11.781,10.877 M8.83,11.419
		c-0.161,0.026-0.331-0.013-0.493,0.008c-0.651,0.086-0.668-0.328-0.665-0.796c0.004-0.484-0.037-0.949,0.684-0.902
		C8.88,9.764,9.409,9.745,9.937,9.731c0.188-0.004,0.375-0.026,0.53-0.088c0.128,0.538,0.279,0.97,0.65,1.9
		C10.469,11.297,9.693,11.28,8.83,11.419 M13.274,13.17c-0.174,0.007-0.348,0.034-0.522,0.034c-0.02,0-0.044-0.004-0.067-0.012
		c-0.077-0.191-0.163-0.368-0.258-0.526c-0.009-0.039-0.016-0.079-0.018-0.119c-0.029-0.418-0.014-0.42,0.399-0.42h0.161
		c0.592,0.008,0.507-0.071,0.514,0.514c0,0.103-0.006,0.203,0.001,0.304C13.495,13.099,13.427,13.165,13.274,13.17 M13.484,11.655
		c0.003,0.135-0.05,0.198-0.189,0.193c-0.153-0.004-0.308,0-0.462,0c-0.474-0.003-0.434,0.044-0.431-0.432
		c0.005-0.631-0.083-0.537,0.54-0.547c0.107,0,0.215,0.006,0.322-0.002c0.166-0.012,0.229,0.063,0.221,0.225
		C13.478,11.28,13.479,11.469,13.484,11.655 M17.041,11.849c-0.113,0-0.227-0.004-0.342,0c-0.133,0.006-0.199-0.046-0.196-0.186
		c0.006-0.208,0.004-0.415,0.002-0.623c-0.002-0.118,0.056-0.172,0.172-0.169c0.153,0.002,0.308-0.003,0.462-0.001
		c0.487,0.003,0.451-0.049,0.446,0.438C17.581,11.935,17.67,11.84,17.041,11.849 M16.721,9.603c0.146,0.011,0.294,0.009,0.441,0.015
		c0.453,0.015,0.428-0.045,0.424,0.426c-0.006,0.632,0.084,0.538-0.538,0.547c-0.114,0-0.229-0.004-0.343,0.002
		c-0.145,0.006-0.207-0.056-0.202-0.202c0.006-0.195,0.008-0.39,0-0.583C16.495,9.646,16.568,9.593,16.721,9.603 M13.979,9.538
		c0.228,0.012,0.457,0.014,0.685,0.017c0.122,0.001,0.189,0.046,0.188,0.177c-0.003,0.229-0.002,0.457,0,0.685
		c0,0.118-0.05,0.176-0.169,0.174c-0.135-0.002-0.27,0.003-0.403,0c-0.584-0.006-0.504,0.074-0.51-0.517
		c0-0.108,0.005-0.216-0.001-0.323C13.759,9.597,13.82,9.53,13.979,9.538 M14.253,13.093c-0.552,0.043-0.479,0.083-0.483-0.452
		c0-0.1,0.005-0.202-0.001-0.303c-0.011-0.156,0.057-0.219,0.213-0.212c0.181,0.008,0.362,0.001,0.543,0.001
		c0.326,0.001,0.326,0.001,0.327,0.319C14.854,13.045,14.854,13.047,14.253,13.093 M14.852,11.305c0.001,0.544,0,0.544-0.539,0.544
		c-0.114,0-0.229-0.005-0.342,0c-0.146,0.008-0.207-0.056-0.202-0.2c0.006-0.195,0.005-0.389,0-0.584
		c-0.003-0.133,0.051-0.199,0.189-0.196c0.153,0.006,0.308,0,0.462,0.002C14.895,10.872,14.851,10.831,14.852,11.305 M15.137,9.943
		c0-0.378,0-0.378,0.368-0.367c0.087,0.004,0.175,0.005,0.262,0.007c0.5,0.015,0.455-0.045,0.451,0.462
		c-0.004,0.631,0.087,0.537-0.541,0.546c-0.121,0-0.241-0.003-0.362,0c-0.13,0.004-0.182-0.059-0.179-0.185
		C15.14,10.252,15.137,10.098,15.137,9.943 M16.22,12.762c0.003,0.125-0.05,0.187-0.176,0.192c-0.201,0.013-0.401,0.031-0.602,0.047
		c-0.305,0.022-0.305,0.022-0.306-0.277c0-0.021-0.001-0.041,0-0.06c0.009-0.617-0.083-0.528,0.529-0.536
		c0.121,0,0.241,0.003,0.362-0.001c0.137-0.005,0.195,0.056,0.191,0.192C16.215,12.467,16.215,12.614,16.22,12.762 M15.729,11.849
		c-0.164,0-0.285-0.004-0.406,0c-0.123,0.004-0.188-0.043-0.186-0.174c0.003-0.208,0.003-0.415,0-0.623
		c-0.002-0.128,0.056-0.185,0.182-0.182c0.147,0.003,0.295-0.002,0.442,0c0.505,0.003,0.461-0.051,0.457,0.448
		C16.214,11.933,16.301,11.841,15.729,11.849 M17.112,12.871c-0.04,0.003-0.08,0.007-0.12,0.01
		c-0.561,0.045-0.481,0.081-0.487-0.446c-0.002-0.048-0.018-0.105,0.004-0.14c0.039-0.062,0.098-0.155,0.153-0.158
		c0.253-0.018,0.51-0.016,0.764-0.001c0.056,0.003,0.143,0.08,0.152,0.134C17.667,12.771,17.613,12.836,17.112,12.871 M18.42,12.467
		c-0.008,0.053,0.002,0.115-0.024,0.157c-0.037,0.061-0.091,0.138-0.151,0.153c-0.321,0.079-0.373,0.032-0.373-0.302
		c0-0.346,0-0.346,0.257-0.349C18.464,12.125,18.464,12.125,18.42,12.467 M18.595,11.072c-0.027,0.185-0.057,0.371-0.068,0.558
		c-0.012,0.175-0.097,0.223-0.261,0.223c-0.395-0.004-0.395,0.004-0.395-0.393v-0.082c0.011-0.572-0.094-0.504,0.536-0.508
		c0.008,0,0.015,0.001,0.021,0.001C18.574,10.862,18.615,10.937,18.595,11.072 M18.691,10.287c-0.037,0.304-0.037,0.306-0.345,0.304
		c-0.536-0.003-0.471,0.056-0.476-0.472c0-0.087,0.006-0.175-0.001-0.261c-0.013-0.165,0.054-0.234,0.222-0.221
		c0.168,0.012,0.336,0.009,0.503,0.013c0.121,0.001,0.171,0.057,0.153,0.178C18.728,9.98,18.71,10.135,18.691,10.287"/>
</g>
</svg>
