<?xml version="1.0" encoding="utf-8"?>
<!DOCTYPE svg PUBLIC "-//W3C//DTD SVG 1.1//EN" "http://www.w3.org/Graphics/SVG/1.1/DTD/svg11.dtd">
<svg version="1.1" class="icon disabled_toilet" xmlns="http://www.w3.org/2000/svg" xmlns:xlink="http://www.w3.org/1999/xlink" x="0px" y="0px"
	 width="22px" height="22px" viewBox="0 0 22 22" enable-background="new 0 0 22 22" xml:space="preserve">
<g>
	<defs>
		<rect id="SVGID_1_" width="22" height="22"/>
	</defs>
	<clipPath id="SVGID_2_">
		<use xlink:href="#SVGID_1_"  overflow="visible"/>
	</clipPath>
	<path clip-path="url(#SVGID_2_)" fill-rule="evenodd" clip-rule="evenodd" d="M8.174,9.783
		c0,0.856,0.016,1.713-0.006,2.569c-0.014,0.526,0.187,0.737,0.725,0.711c0.786-0.038,1.587,0.059,2.362-0.046
		c1.145-0.155,1.834,0.251,2.279,1.313c0.367,0.873,0.794,1.752,2.035,1.661c0.481-0.036,1.05,0.148,1.166-0.486
		c0.118-0.652-0.455-0.802-0.94-0.806c-0.492-0.003-0.825-0.213-0.944-0.623c-0.631-2.167-2.174-2.632-4.171-2.312
		c-0.168,0.027-0.345-0.014-0.513,0.009c-0.677,0.089-0.694-0.341-0.691-0.827c0.004-0.503-0.038-0.987,0.711-0.938
		c0.546,0.036,1.096,0.016,1.644,0.003c0.475-0.012,0.953-0.118,0.932-0.707c-0.019-0.524-0.455-0.617-0.903-0.605
		c-0.172,0.005-0.343-0.002-0.515-0.003c-1.677-0.009-1.686-0.008-1.857-1.61C9.442,6.671,9.321,6.308,8.864,6.283
		c-0.54-0.03-0.681,0.378-0.687,0.827C8.167,8.001,8.174,8.891,8.174,9.783"/>
	<path clip-path="url(#SVGID_2_)" fill-rule="evenodd" clip-rule="evenodd" d="M13.008,15.16
		c-0.148,0.217-0.282,0.407-0.41,0.601c-1.057,1.589-2.681,2.306-4.401,1.942c-1.571-0.333-2.845-1.68-3.125-3.306
		c-0.294-1.709,0.437-3.288,2.04-4.244c0.444-0.264,0.787-0.566,0.524-1.032c-0.27-0.48-0.685-0.059-0.978,0.086
		c-1.897,0.935-2.889,2.995-2.612,5.343c0.227,1.922,1.882,3.682,3.909,4.155c1.971,0.462,4.191-0.431,5.324-2.072
		C13.703,16.02,13.623,15.598,13.008,15.16"/>
	<path clip-path="url(#SVGID_2_)" fill-rule="evenodd" clip-rule="evenodd" d="M7.177,4.356
		C7.203,5.18,8.056,6.005,8.859,5.984c0.857-0.024,1.613-0.811,1.61-1.675c-0.003-0.938-0.805-1.721-1.708-1.667
		C7.899,2.692,7.15,3.502,7.177,4.356"/>
	<path clip-path="url(#SVGID_2_)" fill-rule="evenodd" clip-rule="evenodd" d="M8.174,9.783
		c0-0.892-0.008-1.782,0.003-2.673c0.006-0.449,0.147-0.857,0.687-0.827c0.457,0.025,0.578,0.388,0.622,0.804
		c0.172,1.602,0.18,1.601,1.857,1.61c0.172,0.001,0.343,0.008,0.515,0.003c0.448-0.012,0.885,0.081,0.903,0.605
		c0.021,0.589-0.457,0.695-0.932,0.707c-0.548,0.013-1.098,0.033-1.644-0.003c-0.749-0.049-0.707,0.435-0.711,0.938
		c-0.003,0.486,0.014,0.916,0.691,0.827c0.168-0.022,0.345,0.019,0.513-0.009c1.998-0.32,3.541,0.145,4.171,2.312
		c0.119,0.41,0.452,0.62,0.944,0.623c0.485,0.004,1.059,0.153,0.94,0.806c-0.116,0.635-0.685,0.45-1.166,0.486
		c-1.241,0.091-1.668-0.788-2.035-1.661c-0.445-1.062-1.135-1.469-2.279-1.313c-0.774,0.104-1.576,0.008-2.362,0.046
		c-0.538,0.026-0.739-0.185-0.725-0.711C8.19,11.496,8.174,10.639,8.174,9.783"/>
	<path clip-path="url(#SVGID_2_)" fill-rule="evenodd" clip-rule="evenodd" d="M13.008,15.16
		c0.615,0.438,0.695,0.859,0.271,1.473c-1.133,1.642-3.353,2.534-5.324,2.072c-2.027-0.474-3.682-2.233-3.909-4.155
		c-0.277-2.348,0.715-4.408,2.612-5.343c0.293-0.145,0.708-0.566,0.978-0.086c0.263,0.466-0.08,0.768-0.524,1.032
		c-1.603,0.956-2.334,2.535-2.04,4.244c0.28,1.626,1.554,2.973,3.125,3.306c1.72,0.363,3.344-0.354,4.401-1.942
		C12.726,15.567,12.859,15.377,13.008,15.16"/>
	<path clip-path="url(#SVGID_2_)" fill-rule="evenodd" clip-rule="evenodd" d="M7.177,4.356
		C7.15,3.502,7.899,2.692,8.761,2.643c0.903-0.054,1.705,0.729,1.708,1.667c0.003,0.864-0.753,1.651-1.61,1.675
		C8.056,6.005,7.203,5.18,7.177,4.356"/>
</g>
</svg>
