<?xml version="1.0" encoding="utf-8"?>
<!DOCTYPE svg PUBLIC "-//W3C//DTD SVG 1.1//EN" "http://www.w3.org/Graphics/SVG/1.1/DTD/svg11.dtd">
<svg version="1.1" class="icon elevator" xmlns="http://www.w3.org/2000/svg" xmlns:xlink="http://www.w3.org/1999/xlink" x="0px" y="0px"
	 width="22px" height="22px" viewBox="0 0 22 22" enable-background="new 0 0 22 22" xml:space="preserve">
<g>
	<defs>
		<rect id="SVGID_1_" width="22" height="22"/>
	</defs>
	<clipPath id="SVGID_2_">
		<use xlink:href="#SVGID_1_"  overflow="visible"/>
	</clipPath>
	<path clip-path="url(#SVGID_2_)" d="M14.371,20.458H7.207c-2.146,0-3.889-1.744-3.889-3.888V5.068
		c0-2.144,1.743-3.889,3.889-3.889h7.164c2.144,0,3.889,1.745,3.889,3.889V16.57C18.26,18.714,16.515,20.458,14.371,20.458
		 M7.207,2.736c-1.288,0-2.334,1.046-2.334,2.332V16.57c0,1.286,1.046,2.333,2.334,2.333h7.164c1.286,0,2.333-1.047,2.333-2.333
		V5.068c0-1.286-1.047-2.332-2.333-2.332H7.207z"/>
	<path clip-path="url(#SVGID_2_)" fill-rule="evenodd" clip-rule="evenodd" d="M14.401,12.584
		c0,1.131-0.016,2.262,0.008,3.392c0.006,0.354-0.148,0.44-0.452,0.445c-0.327,0.005-0.487-0.092-0.481-0.466
		c0.021-1.244,0.009-2.491,0.009-3.736c0-0.102,0.008-0.209-0.021-0.306c-0.016-0.051-0.101-0.103-0.162-0.111
		c-0.036-0.006-0.111,0.062-0.122,0.109c-0.023,0.099-0.02,0.203-0.02,0.306c-0.001,1.22,0,2.44,0,3.66
		c0,0.479-0.058,0.533-0.47,0.544c-0.383,0.012-0.456-0.177-0.454-0.522c0.012-2.209,0.006-4.418,0.006-6.627
		c0-0.09,0.016-0.185-0.006-0.269c-0.02-0.072-0.084-0.133-0.127-0.199c-0.058,0.071-0.149,0.135-0.16,0.215
		C11.923,9.18,11.94,9.35,11.94,9.517c0,0.577-0.014,1.156,0.006,1.733c0.011,0.306-0.153,0.384-0.397,0.384
		c-0.252,0-0.393-0.106-0.388-0.399c0.013-0.913-0.003-1.823,0.009-2.735c0.007-0.629,0.388-1.008,1.011-1.017
		c0.758-0.009,1.517-0.009,2.274,0c0.627,0.009,1.013,0.386,1.02,1.009c0.012,0.926-0.005,1.85,0.007,2.775
		c0.005,0.286-0.16,0.359-0.381,0.365c-0.243,0.006-0.41-0.077-0.403-0.381c0.016-0.692,0.014-1.387-0.003-2.08
		c-0.002-0.124-0.103-0.246-0.158-0.368c-0.044,0.117-0.127,0.234-0.129,0.353C14.397,10.299,14.402,11.441,14.401,12.584"/>
	<path clip-path="url(#SVGID_2_)" fill-rule="evenodd" clip-rule="evenodd" d="M14.179,6.295
		c0.005,0.505-0.356,0.883-0.849,0.891c-0.519,0.008-0.923-0.369-0.93-0.868c-0.009-0.476,0.424-0.912,0.905-0.911
		C13.782,5.407,14.176,5.807,14.179,6.295"/>
	<path clip-path="url(#SVGID_2_)" fill-rule="evenodd" clip-rule="evenodd" d="M10.499,12.705H9.484v1.167
		c0,0.732-0.01,1.464,0.004,2.195c0.005,0.325-0.196,0.345-0.426,0.349c-0.236,0.005-0.391-0.069-0.388-0.351
		c0.009-0.937,0.006-1.873,0.001-2.81c-0.001-0.154-0.041-0.308-0.064-0.461c-0.046-0.001-0.091-0.004-0.137-0.006
		c-0.025,0.13-0.071,0.261-0.071,0.392c-0.007,0.937-0.013,1.874,0.002,2.811c0.004,0.295-0.099,0.428-0.393,0.429
		c-0.29,0-0.45-0.089-0.445-0.423c0.015-1.077,0.007-2.154,0.007-3.281H6.583c0.118-0.387,0.211-0.713,0.315-1.036
		c0.272-0.852,0.552-1.703,0.822-2.555c0.031-0.103,0.015-0.219,0.021-0.327C7.7,8.791,7.654,8.785,7.611,8.779
		C7.566,8.89,7.517,8.999,7.477,9.112c-0.227,0.664-0.464,1.325-0.672,1.997c-0.093,0.301-0.292,0.247-0.484,0.189
		c-0.205-0.062-0.364-0.151-0.251-0.445c0.34-0.881,0.64-1.778,0.971-2.664c0.199-0.533,0.478-0.708,1.056-0.71
		c0.333-0.003,0.668,0,1.001,0c0.4,0,0.706,0.172,0.849,0.543c0.368,0.954,0.713,1.917,1.068,2.876
		c0.099,0.266-0.089,0.347-0.277,0.404c-0.205,0.062-0.394,0.081-0.484-0.201C10.036,10.406,9.799,9.717,9.56,9.03
		C9.528,8.942,9.43,8.879,9.363,8.804c-0.01,0.099-0.052,0.21-0.026,0.297C9.711,10.281,10.096,11.457,10.499,12.705"/>
	<path clip-path="url(#SVGID_2_)" fill-rule="evenodd" clip-rule="evenodd" d="M8.502,7.185
		C8.004,7.186,7.635,6.818,7.63,6.316C7.624,5.821,8.04,5.395,8.521,5.408c0.473,0.012,0.879,0.42,0.885,0.89
		C9.415,6.794,9.019,7.183,8.502,7.185"/>
</g>
</svg>
