<?xml version="1.0" encoding="utf-8"?>
<!DOCTYPE svg PUBLIC "-//W3C//DTD SVG 1.1//EN" "http://www.w3.org/Graphics/SVG/1.1/DTD/svg11.dtd">
<svg version="1.1" class="icon escalator" xmlns="http://www.w3.org/2000/svg" xmlns:xlink="http://www.w3.org/1999/xlink" x="0px" y="0px"
	 width="22px" height="22px" viewBox="0 0 22 22" enable-background="new 0 0 22 22" xml:space="preserve">
<g>
	<defs>
		<rect id="SVGID_1_" width="22" height="22"/>
	</defs>
	<clipPath id="SVGID_2_">
		<use xlink:href="#SVGID_1_"  overflow="visible"/>
	</clipPath>
	<path clip-path="url(#SVGID_2_)" fill-rule="evenodd" clip-rule="evenodd" d="M19.766,7.282
		c-0.069,0.665-0.282,1.262-0.801,1.717c-0.366,0.32-0.77,0.525-1.274,0.508c-0.436-0.016-0.874,0.014-1.31-0.008
		c-0.377-0.022-0.656,0.11-0.921,0.376c-1.998,2.008-3.999,4.014-6.018,5.998c-0.394,0.387-0.862,0.699-1.313,1.021
		C7.981,17,7.78,17.03,7.603,17.094H4.445c-0.89-0.272-1.481-0.835-1.711-1.754c-0.32-1.273,0.664-2.591,1.972-2.625
		c0.458-0.012,0.919,0.023,1.375-0.015c0.213-0.019,0.461-0.111,0.615-0.255c0.643-0.605,1.264-1.235,1.876-1.874
		c0.107-0.112,0.179-0.306,0.181-0.463c0.019-0.862-0.001-1.724,0.015-2.586c0.015-0.847,0.681-1.339,1.477-1.114
		c0.463,0.131,0.753,0.503,0.779,1.016c0.011,0.221,0.001,0.443,0.001,0.664c0.031,0.021,0.062,0.045,0.094,0.067
		c0.119-0.141,0.229-0.29,0.358-0.42c0.639-0.643,1.282-1.282,1.927-1.92c0.46-0.456,1.029-0.664,1.665-0.677
		c0.85-0.017,1.7-0.006,2.552-0.004c0.989,0.003,1.91,0.786,2.078,1.76c0.019,0.108,0.044,0.214,0.066,0.322V7.282z M16.833,8.367
		c0.245,0,0.493-0.017,0.738,0.004c0.542,0.046,0.996-0.41,1.021-1.058c0.021-0.534-0.499-1.084-1.04-1.055
		c-0.804,0.04-1.611,0.02-2.418,0.005c-0.434-0.008-0.764,0.145-1.069,0.453c-2.236,2.245-4.479,4.483-6.734,6.708
		c-0.193,0.191-0.488,0.347-0.753,0.382c-0.529,0.069-1.071,0.039-1.607,0.055c-0.177,0.006-0.363,0-0.528,0.051
		c-0.454,0.142-0.712,0.583-0.643,1.05c0.086,0.58,0.478,0.983,1.006,0.992c0.783,0.014,1.568,0,2.352,0.009
		c0.466,0.006,0.836-0.172,1.163-0.499c2.032-2.037,4.093-4.046,6.095-6.114C15.106,8.636,15.816,8.179,16.833,8.367"/>
	<path clip-path="url(#SVGID_2_)" fill-rule="evenodd" clip-rule="evenodd" d="M11.029,5.036
		c0.003,0.626-0.492,1.133-1.117,1.144C9.284,6.19,8.744,5.658,8.754,5.039c0.011-0.623,0.518-1.12,1.141-1.119
		C10.53,3.921,11.027,4.409,11.029,5.036"/>
</g>
</svg>
