<?xml version="1.0" encoding="utf-8"?>
<!DOCTYPE svg PUBLIC "-//W3C//DTD SVG 1.1//EN" "http://www.w3.org/Graphics/SVG/1.1/DTD/svg11.dtd">
<svg version="1.1" class="icon globe" xmlns="http://www.w3.org/2000/svg" xmlns:xlink="http://www.w3.org/1999/xlink" x="0px" y="0px"
	 width="22px" height="22px" viewBox="0 0 22 22" enable-background="new 0 0 22 22" xml:space="preserve">
<g>
	<defs>
		<rect id="SVGID_1_" width="22" height="22"/>
	</defs>
	<clipPath id="SVGID_2_">
		<use xlink:href="#SVGID_1_"  overflow="visible"/>
	</clipPath>
	<path clip-path="url(#SVGID_2_)" d="M17.026,4.655c-1.756-1.757-4.058-2.633-6.357-2.63h-0.005
		c-0.004,0-0.007,0-0.011,0c-2.288,0.007-4.574,0.883-6.319,2.63c-3.506,3.503-3.506,9.186,0,12.688
		c3.505,3.508,9.187,3.508,12.692,0C20.532,13.841,20.532,8.158,17.026,4.655 M17.923,9.884h-3.895
		c-0.099-2.381-0.562-4.477-1.24-5.905c1.125,0.337,2.186,0.95,3.074,1.839C17.008,6.964,17.694,8.396,17.923,9.884 M11.597,15.936
		c-0.344,1.085-0.716,1.646-0.933,1.879c-0.216-0.233-0.589-0.794-0.934-1.879c-0.383-1.207-0.616-2.709-0.676-4.292h3.219
		C12.214,13.227,11.98,14.728,11.597,15.936 M10.664,3.882c0.216,0.234,0.589,0.794,0.933,1.88c0.369,1.164,0.599,2.601,0.669,4.122
		H9.062c0.07-1.521,0.299-2.958,0.668-4.122C10.075,4.676,10.448,4.116,10.664,3.882 M5.499,5.818
		c0.879-0.879,1.925-1.487,3.036-1.826C7.858,5.419,7.398,7.51,7.299,9.884H3.438C3.666,8.396,4.351,6.964,5.499,5.818 M3.38,11.644
		h3.913c0.09,2.649,0.631,4.962,1.421,6.416c-1.178-0.327-2.29-0.952-3.216-1.878C4.23,14.913,3.525,13.298,3.38,11.644
		 M15.862,16.182c-0.936,0.936-2.062,1.563-3.253,1.888c0.792-1.453,1.334-3.771,1.426-6.426h3.944
		C17.834,13.298,17.129,14.913,15.862,16.182"/>
</g>
</svg>
