<?xml version="1.0" encoding="utf-8"?>
<!DOCTYPE svg PUBLIC "-//W3C//DTD SVG 1.1//EN" "http://www.w3.org/Graphics/SVG/1.1/DTD/svg11.dtd">
<svg version="1.1" class="icon mobile_phone" xmlns="http://www.w3.org/2000/svg" xmlns:xlink="http://www.w3.org/1999/xlink" x="0px" y="0px"
	 width="22px" height="22px" viewBox="0 0 22 22" enable-background="new 0 0 22 22" xml:space="preserve">
<g>
	<defs>
		<rect id="SVGID_1_" width="22" height="22"/>
	</defs>
	<clipPath id="SVGID_2_">
		<use xlink:href="#SVGID_1_"  overflow="visible"/>
	</clipPath>
	<path clip-path="url(#SVGID_2_)" d="M14.125,1.627H6.507c-0.673,0-1.218,0.545-1.218,1.219v15.947
		c0,0.674,0.545,1.219,1.218,1.219h7.618c0.674,0,1.22-0.545,1.22-1.219V2.846C15.345,2.172,14.799,1.627,14.125,1.627
		 M8.441,17.574H6.685v-1.756h1.756V17.574z M8.441,15.035H6.685v-1.756h1.756V15.035z M8.441,12.394H6.685v-1.755h1.756V12.394z
		 M11.149,17.574H9.394v-1.756h1.755V17.574z M9.343,10.638h1.755v1.755H9.343V10.638z M11.149,15.035H9.394v-1.756h1.755V15.035z
		 M13.756,17.574h-1.755v-1.756h1.755V17.574z M13.756,15.035h-1.755v-1.756h1.755V15.035z M13.756,12.394h-1.755v-1.755h1.755
		V12.394z M13.771,9.293H6.863V4.195h6.909V9.293z"/>
</g>
</svg>
