<?xml version="1.0" encoding="utf-8"?>
<!DOCTYPE svg PUBLIC "-//W3C//DTD SVG 1.1//EN" "http://www.w3.org/Graphics/SVG/1.1/DTD/svg11.dtd">
<svg version="1.1" class="icon motorcycle" xmlns="http://www.w3.org/2000/svg" xmlns:xlink="http://www.w3.org/1999/xlink" x="0px" y="0px"
	 width="22px" height="22px" viewBox="0 0 22 22" enable-background="new 0 0 22 22" xml:space="preserve">
<g>
	<defs>
		<rect id="SVGID_1_" width="22" height="22"/>
	</defs>
	<clipPath id="SVGID_2_">
		<use xlink:href="#SVGID_1_"  overflow="visible"/>
	</clipPath>
	<path clip-path="url(#SVGID_2_)" fill-rule="evenodd" clip-rule="evenodd" d="M8.074,12.186
		c0.184-0.698-0.531-1.922-1.246-2.289c-1.268-0.649-2.558-0.4-3.487,0.685c-0.195,0.228-0.25,0.509-0.374,0.764
		c-0.115,0.238-0.252,0.43-0.549,0.313c-0.298-0.119-0.272-0.373-0.189-0.61c0.161-0.46,0.423-0.861,0.766-1.208
		c0.067-0.07,0.193-0.132,0.136-0.256C3.086,9.489,2.972,9.525,2.886,9.52c-0.557-0.04-0.83-0.321-0.82-0.849
		c0.009-0.48,0.328-0.8,0.838-0.805c0.843-0.01,1.687-0.027,2.528,0.006c0.607,0.023,1.202,0.204,1.703,0.533
		c0.675,0.444,1.397,0.221,2.1,0.278c0.148,0.012,0.193-0.109,0.259-0.211c0.149-0.226,0.297-0.455,0.468-0.663
		c0.454-0.55,1.024-0.87,1.758-0.851c0.316,0.009,0.633,0.002,0.948,0.002c0.713-0.001,0.697,0.002,0.611-0.686
		c-0.032-0.255-0.157-0.321-0.368-0.358c-0.288-0.052-0.547-0.165-0.456-0.53c0.085-0.344,0.364-0.247,0.622-0.252
		c0.807-0.012,0.981,0.683,1.351,1.161c0.089,0.111,0.094,0.289,0.292,0.349c-0.094-0.47-0.202-0.922-0.271-1.378
		c-0.068-0.457,0.066-0.55,0.497-0.412c1.278,0.411,2.021,1.692,2.06,2.945c0.012,0.408-0.259,0.631-0.554,0.816
		c-0.312,0.194-0.343,0.368-0.132,0.681c0.252,0.37,0.448,0.577,0.989,0.483c1.201-0.208,2.279,0.532,2.655,1.678
		c0.351,1.063-0.093,2.232-1.085,2.852c-0.949,0.592-2.223,0.43-3.024-0.387c-0.894-0.909-0.945-2.337-0.092-3.309
		c0.218-0.248,0.303-0.394,0.053-0.694c-0.458-0.553-0.433-0.583-1.117-0.364c-0.363,0.116-0.771,0.174-0.92,0.619
		c-0.11,0.331-0.249,0.591,0.2,0.865c0.531,0.321,0.593,0.936,0.439,1.497c-0.141,0.523-0.545,0.791-1.101,0.85
		c-1.24,0.129-2.48,0.266-3.717,0.432c-0.586,0.079-1.094-0.135-1.609-0.328c-0.259-0.096-0.39-0.037-0.554,0.166
		c-0.931,1.152-2.264,1.334-3.476,0.494c-1.317-0.912-1.187-3.177,0.158-4.016c1.48-0.928,3.476-0.116,3.792,1.725
		C7.93,11.963,7.885,12.106,8.074,12.186 M17.098,10.397c0.111,0.517,0.519,0.537,0.892,0.631c0.634,0.16,1.017,0.851,0.839,1.477
		c-0.196,0.688-0.892,1.097-1.532,0.899c-0.847-0.262-1.192-1.146-0.697-1.906c0.216-0.332-0.05-0.461-0.182-0.59
		c-0.175-0.175-0.23,0.099-0.299,0.194c-0.458,0.627-0.513,1.293-0.134,1.979c0.384,0.698,0.995,1.032,1.779,0.992
		c0.741-0.04,1.431-0.633,1.65-1.339c0.237-0.762,0.007-1.418-0.547-1.922C18.379,10.367,17.77,10.18,17.098,10.397 M5.546,14.086
		c0.441-0.007,0.877-0.228,1.253-0.572c0.105-0.096,0.299-0.247,0.205-0.357c-0.125-0.145-0.357-0.23-0.576-0.137
		c-0.093,0.041-0.163,0.132-0.249,0.191c-0.574,0.397-1.21,0.305-1.691-0.243c-0.34-0.389-0.336-1.179,0.008-1.547
		c0.508-0.543,1.129-0.623,1.699-0.224c0.202,0.142,0.364,0.302,0.428,0.555c0.081,0.322,0.385,0.312,0.589,0.253
		c0.23-0.065,0.037-0.274,0.006-0.416C7.19,11.458,7.15,11.322,7.08,11.21c-0.479-0.773-1.437-1.112-2.284-0.757
		C3.914,10.822,3.5,11.539,3.63,12.468C3.762,13.397,4.564,14.079,5.546,14.086 M17.719,11.396c0.346,0.29,0.787,0.537,0.508,1.092
		c-0.137,0.273-0.378,0.456-0.695,0.392c-0.607-0.122-0.626-0.604-0.542-1.197c-0.333,0.538-0.223,1.013,0.198,1.243
		c0.421,0.231,1.022,0.053,1.198-0.357C18.615,12.033,18.373,11.57,17.719,11.396 M6.173,11.84c-0.37-0.573-0.795-0.667-1.215-0.312
		c-0.428,0.363-0.453,0.904-0.059,1.296c0.286,0.284,0.812,0.266,1.137-0.106c-0.469,0.201-0.881,0.279-1.146-0.178
		c-0.164-0.284-0.144-0.589,0.099-0.824C5.413,11.305,5.795,11.551,6.173,11.84 M12.82,10.404c-0.176,0.094-0.31,0.158-0.433,0.234
		c-0.121,0.075-0.301,0.068-0.387,0.251C12.723,10.761,12.723,10.761,12.82,10.404"/>
</g>
</svg>
