<?xml version="1.0" encoding="utf-8"?>
<!DOCTYPE svg PUBLIC "-//W3C//DTD SVG 1.1//EN" "http://www.w3.org/Graphics/SVG/1.1/DTD/svg11.dtd">
<svg version="1.1" class="icon personal_shopper" xmlns="http://www.w3.org/2000/svg" xmlns:xlink="http://www.w3.org/1999/xlink" x="0px" y="0px"
	 width="22px" height="22px" viewBox="0 0 22 22" enable-background="new 0 0 22 22" xml:space="preserve">
<g>
	<defs>
		<rect id="SVGID_1_" width="22" height="22"/>
	</defs>
	<clipPath id="SVGID_2_">
		<use xlink:href="#SVGID_1_"  overflow="visible"/>
	</clipPath>
	<path clip-path="url(#SVGID_2_)" fill-rule="evenodd" clip-rule="evenodd" d="M17.202,17.432
		c-0.206-0.238-0.319-0.526-0.396-0.813c-0.366-1.366-0.975-2.646-1.583-3.903c-0.555-1.146-1.026-2.364-1.836-3.374
		c-0.519-0.646-0.568-1.32-0.334-2.061c0.446-1.417,0.751-2.86,0.818-4.352c0.019-0.44,0.153-0.877,0.25-1.312
		c0.055-0.246,0.19-0.514-0.231-0.545c-0.282-0.02-0.565-0.074-0.583,0.386c-0.013,0.387-0.126,0.772-0.211,1.156
		c-0.073,0.339-0.279,0.507-0.646,0.506c-0.633-0.003-1.267-0.004-1.898-0.002C9.918,3.115,9.285,3.116,8.653,3.119
		C8.284,3.12,8.08,2.952,8.006,2.613C7.922,2.229,7.807,1.844,7.794,1.457C7.777,0.997,7.493,1.051,7.21,1.071
		C6.79,1.102,6.927,1.37,6.981,1.616c0.096,0.435,0.23,0.872,0.249,1.312C7.298,4.419,7.602,5.863,8.049,7.28
		c0.234,0.741,0.184,1.415-0.334,2.061c-0.81,1.01-1.282,2.228-1.836,3.374c-0.608,1.257-1.216,2.537-1.583,3.903
		c-0.077,0.287-0.192,0.575-0.396,0.813c-0.062,0.071-0.198,0.222-0.08,0.254c0.439,0.122,0.397,0.613,0.715,0.836
		c0.466,0.323,0.959,0.557,1.509,0.646c1.073,0.178,2.147,0.338,3.217,0.534c0.321,0.059,2.259,0.059,2.581,0
		c1.068-0.196,2.144-0.356,3.215-0.534c0.551-0.09,1.044-0.323,1.51-0.646c0.318-0.223,0.277-0.714,0.715-0.836
		C17.399,17.653,17.264,17.503,17.202,17.432"/>
</g>
</svg>
