<?xml version="1.0" encoding="utf-8"?>
<!DOCTYPE svg PUBLIC "-//W3C//DTD SVG 1.1//EN" "http://www.w3.org/Graphics/SVG/1.1/DTD/svg11.dtd">
<svg version="1.1" class="icon plane" xmlns="http://www.w3.org/2000/svg" xmlns:xlink="http://www.w3.org/1999/xlink" x="0px" y="0px"
	 width="22px" height="22px" viewBox="0 0 22 22" enable-background="new 0 0 22 22" xml:space="preserve">
<g>
	<defs>
		<rect id="SVGID_1_" width="22" height="22"/>
	</defs>
	<clipPath id="SVGID_2_">
		<use xlink:href="#SVGID_1_"  overflow="visible"/>
	</clipPath>
	<path clip-path="url(#SVGID_2_)" fill-rule="evenodd" clip-rule="evenodd" d="M14.997,17.763
		c-0.984-2.241-1.947-4.436-2.983-6.793c-0.434,0.476-0.796,0.893-1.181,1.289c-0.532,0.551-1.057,1.111-1.629,1.617
		c-0.391,0.347-0.525,0.711-0.457,1.223c0.098,0.738,0.117,1.487,0.199,2.229c0.075,0.693-0.603,0.821-0.904,1.396
		c-0.435-0.997-0.908-1.843-1.174-2.749C6.584,15,5.922,14.586,5.066,14.27c-0.834-0.309-1.643-0.685-2.47-1.033
		c0.491-0.737,1.074-1.194,2.003-0.909c0.191,0.059,0.417,0.002,0.609,0.058c1.16,0.331,2.007-0.064,2.765-0.975
		c0.652-0.781,1.453-1.438,2.255-2.214C8.573,8.468,7.031,7.788,5.486,7.111c-0.578-0.255-1.154-0.52-1.739-0.756
		C3.479,6.247,3.507,6.17,3.668,5.971c0.496-0.608,1.033-0.988,1.855-0.597c0.246,0.117,0.553,0.097,0.813,0.191
		c0.477,0.172,0.861,0.119,1.177-0.316c0.09-0.125,0.264-0.203,0.415-0.268C8.2,4.865,8.518,4.697,8.759,4.958
		C8.966,5.182,8.863,5.483,8.722,5.74C8.671,5.833,8.57,5.935,8.68,6.037c0.113,0.107,0.203-0.008,0.287-0.071
		c0.181-0.133,0.363-0.255,0.58-0.332c0.578-0.205,0.742-0.113,0.755,0.49c0.004,0.207,0.051,0.292,0.261,0.334
		c0.547,0.111,1.094,0.235,1.63,0.384c0.26,0.073,0.38-0.078,0.522-0.223c0.938-0.935,1.865-1.878,2.811-2.804
		c0.699-0.683,1.744-0.528,2.172,0.301c0.263,0.51,0.176,1.084-0.271,1.54c-0.888,0.905-1.777,1.809-2.688,2.69
		c-0.28,0.271-0.448,0.502-0.297,0.912c0.12,0.329,0.159,0.689,0.218,1.038c0.064,0.366,0.059,0.72,0.645,0.598
		c0.369-0.076,0.434,0.285,0.355,0.588c-0.073,0.292-0.239,0.542-0.439,0.77c-0.073,0.085-0.125,0.2-0.023,0.3
		c0.086,0.084,0.167,0,0.251-0.032c0.138-0.054,0.276-0.12,0.42-0.143c0.388-0.058,0.561,0.117,0.515,0.511
		c-0.05,0.418-0.304,0.733-0.581,0.996c-0.268,0.254-0.259,0.499-0.188,0.804c0.105,0.452,0.152,0.923,0.302,1.359
		c0.188,0.549,0.04,0.928-0.416,1.242C15.333,17.403,15.202,17.567,14.997,17.763"/>
</g>
</svg>
