<?xml version="1.0" encoding="utf-8"?>
<!DOCTYPE svg PUBLIC "-//W3C//DTD SVG 1.1//EN" "http://www.w3.org/Graphics/SVG/1.1/DTD/svg11.dtd">
<svg version="1.1" class="icon share" xmlns="http://www.w3.org/2000/svg" xmlns:xlink="http://www.w3.org/1999/xlink" x="0px" y="0px"
	 width="22px" height="22px" viewBox="0 0 22 22" enable-background="new 0 0 22 22" xml:space="preserve">
<g>
	<defs>
		<rect id="SVGID_1_" width="22" height="22"/>
	</defs>
	<clipPath id="SVGID_2_">
		<use xlink:href="#SVGID_1_"  overflow="visible"/>
	</clipPath>
	<path clip-path="url(#SVGID_2_)" d="M13.822,13.571c-0.648,0-1.236,0.233-1.708,0.608l-2.52-2.261
		c0.238-0.406,0.383-0.873,0.383-1.376c0-0.47-0.129-0.905-0.335-1.292l2.477-2.068c0.471,0.372,1.058,0.604,1.703,0.604
		c1.522,0,2.757-1.234,2.757-2.756s-1.234-2.756-2.757-2.756c-1.521,0-2.757,1.234-2.757,2.756c0,0.469,0.129,0.905,0.336,1.292
		L8.925,8.39C8.454,8.018,7.867,7.786,7.22,7.786c-1.522,0-2.755,1.234-2.755,2.756s1.233,2.755,2.755,2.755
		c0.612,0,1.171-0.205,1.629-0.543l2.549,2.287c-0.206,0.386-0.333,0.818-0.333,1.285c0,1.522,1.235,2.756,2.757,2.756
		c1.522,0,2.757-1.233,2.757-2.756C16.579,14.806,15.345,13.571,13.822,13.571"/>
</g>
</svg>
