<?xml version="1.0" encoding="utf-8"?>
<!DOCTYPE svg PUBLIC "-//W3C//DTD SVG 1.1//EN" "http://www.w3.org/Graphics/SVG/1.1/DTD/svg11.dtd">
<svg version="1.1" class="icon shopping_bag" xmlns="http://www.w3.org/2000/svg" xmlns:xlink="http://www.w3.org/1999/xlink" x="0px" y="0px"
	 width="22px" height="22px" viewBox="0 0 22 22" enable-background="new 0 0 22 22" xml:space="preserve">
<g>
	<defs>
		<rect id="SVGID_1_" width="22" height="22"/>
	</defs>
	<clipPath id="SVGID_2_">
		<use xlink:href="#SVGID_1_"  overflow="visible"/>
	</clipPath>
	<path clip-path="url(#SVGID_2_)" d="M6.406,5.293c0,0-0.001,0-0.002,0.001L6.065,5.576
		C5.935,5.568,5.26,5.533,5.119,5.533c-0.027,0-0.05,0.022-0.052,0.05L4.306,18.959c-0.001,0.019,0.009,0.037,0.025,0.047
		l1.682,1.031L6.406,5.293z"/>
	<path clip-path="url(#SVGID_2_)" d="M6.328,20.079l11.366-0.794l-0.71-13.994h-2.948
		c-0.161-1.44-0.592-2.482-1.286-3.1C12.12,1.634,11.49,1.628,11.36,1.632c-0.353-0.034-0.68,0.073-0.971,0.317
		c-0.053,0.045-0.102,0.094-0.152,0.146C9.972,2.128,9.723,2.24,9.496,2.43c-0.735,0.619-1.083,1.959-1.24,2.861H6.722L6.328,20.079
		z M11.333,2.051l0.021,0.002l0.019-0.001c0.022-0.002,0.558-0.034,1.108,0.464c0.431,0.388,0.943,1.177,1.132,2.775h-0.416
		c-0.162-1.181-0.555-2.056-1.175-2.609c-0.41-0.367-0.833-0.509-1.127-0.562C11.032,2.057,11.178,2.034,11.333,2.051 M10.436,2.505
		c0.024,0.001,0.048,0.002,0.072,0.004l0.018,0.001h0.017c0.025-0.003,0.625-0.035,1.209,0.493c0.528,0.478,0.87,1.246,1.02,2.288
		H9.495C9.626,4.428,9.9,3.181,10.436,2.505 M9.767,2.752c0.013-0.011,0.026-0.02,0.039-0.03c-0.411,0.784-0.628,1.83-0.738,2.569
		H8.684C8.834,4.452,9.149,3.272,9.767,2.752"/>
</g>
</svg>
