<?xml version="1.0" encoding="utf-8"?>
<!DOCTYPE svg PUBLIC "-//W3C//DTD SVG 1.1//EN" "http://www.w3.org/Graphics/SVG/1.1/DTD/svg11.dtd">
<svg version="1.1" class="icon sofa" xmlns="http://www.w3.org/2000/svg" xmlns:xlink="http://www.w3.org/1999/xlink" x="0px" y="0px"
	 width="22px" height="22px" viewBox="0 0 22 22" enable-background="new 0 0 22 22" xml:space="preserve">
<g>
	<defs>
		<rect id="SVGID_1_" width="22" height="22"/>
	</defs>
	<clipPath id="SVGID_2_">
		<use xlink:href="#SVGID_1_"  overflow="visible"/>
	</clipPath>
	<path clip-path="url(#SVGID_2_)" fill-rule="evenodd" clip-rule="evenodd" d="M10.817,9.75
		c0,0.695-0.491,1.26-1.096,1.26H5.49c-0.605,0-1.096-0.565-1.096-1.26v-2.1c0-0.695,0.491-1.26,1.096-1.26h4.231
		c0.605,0,1.096,0.565,1.096,1.26V9.75z"/>
	<path clip-path="url(#SVGID_2_)" fill-rule="evenodd" clip-rule="evenodd" d="M17.545,9.75
		c0,0.695-0.491,1.26-1.096,1.26h-4.232c-0.604,0-1.095-0.565-1.095-1.26v-2.1c0-0.695,0.49-1.26,1.095-1.26h4.232
		c0.604,0,1.096,0.565,1.096,1.26V9.75z"/>
	<path clip-path="url(#SVGID_2_)" fill-rule="evenodd" clip-rule="evenodd" d="M4.12,13.594
		c0,0.493-0.348,0.893-0.776,0.893c-0.429,0-0.776-0.399-0.776-0.893v-3.372c0-0.493,0.347-0.893,0.776-0.893
		c0.428,0,0.776,0.4,0.776,0.893V13.594z"/>
	<path clip-path="url(#SVGID_2_)" fill-rule="evenodd" clip-rule="evenodd" d="M19.432,13.594
		c0,0.493-0.347,0.893-0.776,0.893c-0.429,0-0.775-0.399-0.775-0.893v-3.372c0-0.493,0.347-0.893,0.775-0.893
		c0.43,0,0.776,0.4,0.776,0.893V13.594z"/>
	<path clip-path="url(#SVGID_2_)" fill-rule="evenodd" clip-rule="evenodd" d="M17.545,12.702
		c0-0.696-0.491-1.261-1.096-1.261h-4.232c-0.604,0-1.095,0.564-1.095,1.261v0.524c0,0.035,0.002,0.07,0.005,0.104h-0.314
		c0.002-0.034,0.004-0.069,0.004-0.104v-0.524c0-0.696-0.491-1.261-1.096-1.261H5.49c-0.605,0-1.096,0.564-1.096,1.261v0.524
		c0,0.035,0.003,0.07,0.005,0.104H4.394v1.051v0.104v0.828h1.005v-0.828H5.49h4.231h2.496h4.232h0.091v0.828h1.005v-0.828v-0.104
		v-1.051H17.54c0.002-0.034,0.005-0.069,0.005-0.104V12.702z"/>
</g>
</svg>
