<?xml version="1.0" encoding="utf-8"?>
<!DOCTYPE svg PUBLIC "-//W3C//DTD SVG 1.1//EN" "http://www.w3.org/Graphics/SVG/1.1/DTD/svg11.dtd">
<svg version="1.1" class="icon taxi" xmlns="http://www.w3.org/2000/svg" xmlns:xlink="http://www.w3.org/1999/xlink" x="0px" y="0px"
	 width="22px" height="22px" viewBox="0 0 22 22" enable-background="new 0 0 22 22" xml:space="preserve">
<g>
	<defs>
		<rect id="SVGID_1_" width="22" height="22"/>
	</defs>
	<clipPath id="SVGID_2_">
		<use xlink:href="#SVGID_1_"  overflow="visible"/>
	</clipPath>
	<path clip-path="url(#SVGID_2_)" fill-rule="evenodd" clip-rule="evenodd" d="M19.468,13.322
		c0,0.595,0.015,1.189-0.004,1.783c-0.025,0.767-0.365,1.411-1.129,1.552c-0.655,0.121-0.659,0.452-0.653,0.951
		c0.009,0.822-0.376,1.311-1.03,1.403c-0.884,0.126-1.521-0.384-1.458-1.313c0.055-0.806-0.23-0.965-0.979-0.947
		c-2.18,0.05-4.359,0.039-6.539,0.004c-0.638-0.011-0.942,0.101-0.869,0.826c0.064,0.655-0.136,1.241-0.899,1.413
		c-0.918,0.207-1.582-0.335-1.566-1.358c0.008-0.555-0.074-0.856-0.708-0.988c-0.74-0.154-1.064-0.786-1.082-1.511
		c-0.029-1.213-0.04-2.429,0.004-3.641c0.039-1.114,0.617-1.8,1.731-2.11c0.504-0.14,0.767-0.347,0.841-0.924
		c0.128-0.998,0.179-2.018,0.581-2.973c0.541-1.288,1.27-1.822,2.66-1.826C8.895,3.662,9.37,3.708,9.265,2.927
		C9.212,2.55,9.507,2.433,9.851,2.435c0.718,0.005,1.438,0.015,2.155-0.006c0.514-0.016,0.83,0.145,0.765,0.714
		c-0.054,0.459,0.183,0.55,0.57,0.516c2.177-0.197,3.005,1.239,3.308,3.01c0.108,0.633,0.232,1.269,0.268,1.908
		c0.025,0.458,0.234,0.632,0.635,0.758c1.476,0.468,1.915,1.092,1.917,2.65C19.47,12.431,19.469,12.876,19.468,13.322 M11.006,9.039
		c1.362,0,2.727-0.007,4.09,0.003c0.622,0.005,0.855-0.257,0.737-0.876c-0.103-0.534-0.138-1.081-0.232-1.618
		c-0.212-1.207-0.772-1.847-1.755-1.867c-1.884-0.039-3.768-0.015-5.653-0.013C7.424,4.669,6.969,5.099,6.682,5.774
		C6.368,6.516,6.308,7.307,6.203,8.091C6.1,8.866,6.227,9.034,6.989,9.036C8.328,9.043,9.665,9.039,11.006,9.039 M3.984,13.045
		c0.001,0.795,0.551,1.347,1.35,1.354c0.785,0.008,1.371-0.56,1.38-1.332c0.009-0.732-0.618-1.364-1.358-1.368
		C4.611,11.693,3.984,12.309,3.984,13.045 M18.002,13.059c0.004-0.772-0.575-1.357-1.343-1.36c-0.741-0.002-1.366,0.619-1.363,1.354
		c0.003,0.769,0.589,1.349,1.36,1.346C17.471,14.396,17.995,13.871,18.002,13.059 M11.059,13.342c-0.863,0-1.727-0.001-2.59,0
		c-0.228,0.001-0.482,0.002-0.474,0.32c0.009,0.32,0.274,0.297,0.493,0.297c1.702,0.004,3.403,0.002,5.105,0.002
		c0.207,0,0.419-0.012,0.432-0.281c0.015-0.311-0.209-0.34-0.45-0.339C12.735,13.344,11.896,13.342,11.059,13.342 M11.057,12.097
		c-0.866,0-1.732-0.002-2.598,0.002c-0.201,0-0.444,0.008-0.458,0.264c-0.014,0.291,0.233,0.35,0.468,0.351
		c1.684,0.003,3.365,0.003,5.049,0c0.229,0,0.488-0.032,0.489-0.325c0.002-0.32-0.288-0.286-0.501-0.288
		C12.689,12.09,11.873,12.095,11.057,12.097"/>
</g>
</svg>
