<?xml version="1.0" encoding="utf-8"?>
<!DOCTYPE svg PUBLIC "-//W3C//DTD SVG 1.1//EN" "http://www.w3.org/Graphics/SVG/1.1/DTD/svg11.dtd">
<svg version="1.1" class="icon telephone" xmlns="http://www.w3.org/2000/svg" xmlns:xlink="http://www.w3.org/1999/xlink" x="0px" y="0px"
	 width="22px" height="22px" viewBox="0 0 22 22" enable-background="new 0 0 22 22" xml:space="preserve">
<g>
	<defs>
		<rect id="SVGID_1_" width="22" height="22"/>
	</defs>
	<clipPath id="SVGID_2_">
		<use xlink:href="#SVGID_1_"  overflow="visible"/>
	</clipPath>
	<path clip-path="url(#SVGID_2_)" fill-rule="evenodd" clip-rule="evenodd" d="M8.564,2.627
		c0.395,1.727,0.759,3.32,1.136,4.97C8.937,8.01,9.035,8.79,9.177,9.458c0.333,1.579,0.745,3.146,1.219,4.69
		c0.114,0.37,0.592,0.628,0.898,0.941c0.08,0.08,0.187,0.164,0.208,0.264c0.354,1.494,0.692,2.992,1.05,4.556
		c-0.939,0.086-1.643-0.303-2.289-0.818c-1.237-0.984-2.016-2.301-2.58-3.744c-1.036-2.651-1.64-5.39-1.435-8.257
		c0.096-1.342,0.433-2.62,1.357-3.657C7.859,3.148,8.194,2.934,8.564,2.627"/>
	<path clip-path="url(#SVGID_2_)" fill-rule="evenodd" clip-rule="evenodd" d="M9.504,2.503
		c0.467-0.107,0.909-0.262,1.359-0.287c0.197-0.01,0.543,0.21,0.591,0.388c0.343,1.256,0.632,2.527,0.918,3.798
		c0.095,0.416-0.1,0.688-0.526,0.783c-0.388,0.085-0.774,0.177-1.208,0.275C10.257,5.8,9.887,4.175,9.504,2.503"/>
	<path clip-path="url(#SVGID_2_)" fill-rule="evenodd" clip-rule="evenodd" d="M13.415,19.705
		c-0.375-1.639-0.73-3.195-1.106-4.834c0.471-0.109,0.931-0.276,1.397-0.291c0.207-0.008,0.56,0.255,0.615,0.458
		c0.321,1.177,0.577,2.373,0.846,3.564c0.098,0.437-0.043,0.737-0.526,0.824C14.25,19.499,13.865,19.603,13.415,19.705"/>
</g>
</svg>
