<?xml version="1.0" encoding="utf-8"?>
<!DOCTYPE svg PUBLIC "-//W3C//DTD SVG 1.1//EN" "http://www.w3.org/Graphics/SVG/1.1/DTD/svg11.dtd">
<svg version="1.1" class="icon toilets" xmlns="http://www.w3.org/2000/svg" xmlns:xlink="http://www.w3.org/1999/xlink" x="0px" y="0px"
	 width="22px" height="22px" viewBox="0 0 22 22" enable-background="new 0 0 22 22" xml:space="preserve">
<g>
	<defs>
		<rect id="SVGID_1_" width="22" height="22"/>
	</defs>
	<clipPath id="SVGID_2_">
		<use xlink:href="#SVGID_1_"  overflow="visible"/>
	</clipPath>
	<path clip-path="url(#SVGID_2_)" fill-rule="evenodd" clip-rule="evenodd" d="M17.997,13.433
		c0,1.56-0.019,3.119,0.012,4.677c0.009,0.49-0.204,0.608-0.624,0.615c-0.452,0.008-0.673-0.127-0.664-0.641
		c0.027-1.719,0.01-3.438,0.01-5.155c0-0.143,0.013-0.291-0.026-0.421c-0.022-0.071-0.139-0.142-0.223-0.155
		c-0.05-0.008-0.154,0.087-0.169,0.151c-0.032,0.136-0.027,0.28-0.027,0.422c-0.001,1.684,0,3.366,0,5.049
		c0,0.66-0.079,0.735-0.648,0.751c-0.527,0.015-0.629-0.245-0.626-0.723c0.019-3.047,0.01-6.094,0.01-9.14
		c0-0.124,0.022-0.255-0.01-0.37c-0.027-0.101-0.115-0.185-0.177-0.277c-0.076,0.098-0.203,0.189-0.22,0.296
		c-0.034,0.226-0.011,0.459-0.011,0.69c0,0.796-0.02,1.594,0.008,2.391c0.015,0.421-0.213,0.527-0.547,0.527
		c-0.35,0-0.544-0.146-0.537-0.55c0.02-1.258-0.004-2.516,0.012-3.773c0.011-0.867,0.536-1.39,1.396-1.402
		c1.045-0.014,2.091-0.014,3.136,0c0.866,0.012,1.397,0.533,1.408,1.392c0.015,1.275-0.008,2.551,0.01,3.827
		c0.007,0.395-0.223,0.497-0.526,0.505c-0.334,0.008-0.565-0.106-0.556-0.525c0.021-0.956,0.018-1.913-0.003-2.869
		c-0.005-0.171-0.144-0.34-0.219-0.509c-0.063,0.162-0.178,0.324-0.178,0.488C17.992,10.28,17.999,11.855,17.997,13.433"/>
	<path clip-path="url(#SVGID_2_)" fill-rule="evenodd" clip-rule="evenodd" d="M17.692,4.758
		c0.006,0.694-0.493,1.217-1.173,1.229c-0.715,0.011-1.271-0.509-1.283-1.197c-0.01-0.658,0.587-1.259,1.251-1.258
		C17.144,3.533,17.686,4.084,17.692,4.758"/>
	<path clip-path="url(#SVGID_2_)" fill-rule="evenodd" clip-rule="evenodd" d="M7.658,13.598H6.259
		c0,0.562,0.001,1.087,0,1.612c0,1.01-0.013,2.02,0.005,3.028c0.008,0.446-0.27,0.474-0.587,0.48
		c-0.326,0.007-0.539-0.097-0.535-0.484c0.01-1.292,0.009-2.584,0.001-3.876c-0.001-0.212-0.057-0.424-0.088-0.636
		c-0.063-0.003-0.126-0.005-0.189-0.009c-0.035,0.181-0.097,0.36-0.099,0.541C4.76,15.547,4.752,16.84,4.77,18.132
		c0.007,0.407-0.136,0.59-0.542,0.591c-0.399,0.001-0.619-0.122-0.613-0.584c0.022-1.485,0.009-2.971,0.009-4.523H2.259
		c0.162-0.534,0.291-0.984,0.433-1.431c0.376-1.175,0.761-2.348,1.132-3.524c0.045-0.141,0.023-0.3,0.031-0.451
		c-0.059-0.009-0.12-0.017-0.18-0.026C3.613,8.336,3.544,8.487,3.49,8.643c-0.313,0.916-0.643,1.829-0.928,2.754
		c-0.129,0.416-0.402,0.343-0.669,0.264c-0.282-0.084-0.501-0.208-0.344-0.613c0.467-1.218,0.882-2.454,1.338-3.676
		c0.275-0.735,0.66-0.976,1.457-0.979c0.46-0.002,0.919,0.001,1.38,0c0.552-0.001,0.975,0.238,1.172,0.75
		C7.404,8.457,7.88,9.785,8.37,11.108c0.137,0.368-0.122,0.479-0.384,0.557c-0.282,0.085-0.542,0.112-0.665-0.279
		C7.019,10.428,6.693,9.477,6.362,8.53C6.32,8.409,6.183,8.321,6.092,8.218c-0.014,0.138-0.073,0.289-0.035,0.41
		C6.573,10.255,7.101,11.879,7.658,13.598"/>
	<path clip-path="url(#SVGID_2_)" fill-rule="evenodd" clip-rule="evenodd" d="M4.904,5.984
		C4.217,5.986,3.708,5.479,3.701,4.787c-0.008-0.685,0.566-1.27,1.228-1.254c0.652,0.016,1.212,0.58,1.223,1.227
		C6.163,5.446,5.617,5.982,4.904,5.984"/>
	<rect x="10.545" y="2.831" clip-path="url(#SVGID_2_)" width="1" height="15.896"/>
</g>
</svg>
