<?xml version="1.0" encoding="utf-8"?>
<!DOCTYPE svg PUBLIC "-//W3C//DTD SVG 1.1//EN" "http://www.w3.org/Graphics/SVG/1.1/DTD/svg11.dtd">
<svg version="1.1" class="icon train" xmlns="http://www.w3.org/2000/svg" xmlns:xlink="http://www.w3.org/1999/xlink" x="0px" y="0px"
	 width="22px" height="22px" viewBox="0 0 22 22" enable-background="new 0 0 22 22" xml:space="preserve">
<g>
	<defs>
		<rect id="SVGID_1_" width="22" height="22"/>
	</defs>
	<clipPath id="SVGID_2_">
		<use xlink:href="#SVGID_1_"  overflow="visible"/>
	</clipPath>
	<path clip-path="url(#SVGID_2_)" fill-rule="evenodd" clip-rule="evenodd" d="M4.833,10.264
		c0-1.5,0.051-3.001-0.013-4.497C4.751,4.111,6.18,3.166,7.504,3.199C7.92,3.21,8.328,3.279,8.476,2.724
		c0.045-0.167,0.238-0.234,0.44-0.232C10.058,2.501,11.2,2.498,12.343,2.5c0.23,0,0.486,0.046,0.531,0.283
		c0.09,0.479,0.397,0.428,0.744,0.41c1.797-0.092,2.951,1.088,2.927,2.827c-0.04,2.899-0.01,5.798-0.011,8.698
		c-0.001,1.239-0.397,1.638-1.623,1.638c-2.859,0.001-5.718,0.002-8.578,0c-1.102-0.001-1.496-0.39-1.499-1.479
		C4.83,13.34,4.833,11.802,4.833,10.264 M10.644,9.55c1.221,0,2.444,0.008,3.664-0.002c0.827-0.008,1.195-0.38,1.199-1.188
		c0.004-0.866,0.008-1.733-0.001-2.599c-0.01-0.936-0.556-1.523-1.496-1.532c-2.224-0.021-4.448-0.022-6.671-0.003
		c-0.99,0.009-1.535,0.615-1.541,1.625C5.792,6.659,5.794,7.467,5.797,8.275C5.8,9.184,6.166,9.546,7.098,9.549
		C8.28,9.553,9.463,9.55,10.644,9.55 M8.583,13.653c0.005-0.624-0.448-1.094-1.06-1.102c-0.57-0.007-1.109,0.51-1.122,1.075
		c-0.014,0.545,0.532,1.099,1.093,1.108C8.071,14.746,8.578,14.242,8.583,13.653 M14.906,13.621
		c-0.019-0.571-0.552-1.083-1.117-1.068c-0.591,0.015-1.061,0.509-1.053,1.108c0.009,0.598,0.506,1.084,1.097,1.073
		C14.392,14.724,14.922,14.174,14.906,13.621"/>
	<path clip-path="url(#SVGID_2_)" fill-rule="evenodd" clip-rule="evenodd" d="M8.139,17.091
		c-0.699,0.965-1.3,1.812-1.921,2.645c-0.305,0.406-1.575,0.655-2.036,0.432c-0.249-0.12-0.163-0.3-0.05-0.437
		c0.689-0.832,1.391-1.656,2.088-2.482c0.097-0.114,0.22-0.158,0.365-0.158C7.054,17.092,7.522,17.091,8.139,17.091"/>
	<path clip-path="url(#SVGID_2_)" fill-rule="evenodd" clip-rule="evenodd" d="M13.187,17.095h1.628
		c0.202,0.001,0.314,0.141,0.428,0.278c0.627,0.756,1.254,1.512,1.881,2.267c0.101,0.121,0.235,0.248,0.152,0.415
		c-0.081,0.164-0.269,0.121-0.421,0.144c-0.98,0.145-1.697-0.181-2.213-1.064C14.241,18.449,13.723,17.837,13.187,17.095"/>
</g>
</svg>
