<?xml version="1.0" encoding="utf-8"?>
<!DOCTYPE svg PUBLIC "-//W3C//DTD SVG 1.1//EN" "http://www.w3.org/Graphics/SVG/1.1/DTD/svg11.dtd">
<svg version="1.1" class="icon tram" xmlns="http://www.w3.org/2000/svg" xmlns:xlink="http://www.w3.org/1999/xlink" x="0px" y="0px"
	 width="22px" height="22px" viewBox="0 0 22 22" enable-background="new 0 0 22 22" xml:space="preserve">
<g>
	<defs>
		<rect id="SVGID_1_" width="22" height="22"/>
	</defs>
	<clipPath id="SVGID_2_">
		<use xlink:href="#SVGID_1_"  overflow="visible"/>
	</clipPath>
	<path clip-path="url(#SVGID_2_)" fill-rule="evenodd" clip-rule="evenodd" d="M9.271,5.789
		c0.994,0.265,1.646,0.051,2.206-0.624c0.541-0.652,1.16-1.242,1.772-1.831c0.212-0.206,0.388-0.375,0.39-0.703
		c0.004-0.437,0.317-0.646,0.706-0.671c0.41-0.025,0.685,0.22,0.759,0.622c0.073,0.397-0.066,0.781-0.482,0.831
		c-0.578,0.068-0.882,0.461-1.229,0.818c-0.504,0.526-1.082,0.985-1.563,1.623c0.403,0.103,0.965-0.145,0.952,0.547
		c-0.002,0.097,0.235,0.062,0.363,0.068c1.669,0.071,2.567,1,2.569,2.665c0.002,2.559,0.002,5.119,0,7.677
		c-0.001,0.935-0.235,1.252-1.146,1.475c-0.438,0.106-0.216,0.424-0.227,0.635c-0.038,0.732-0.32,1.09-0.936,1.098
		c-0.616,0.01-1.007-0.389-0.966-1.128c0.03-0.529-0.157-0.623-0.637-0.609c-1.174,0.034-2.35,0.031-3.524,0.001
		c-0.443-0.012-0.584,0.104-0.568,0.559c0.03,0.773-0.305,1.161-0.914,1.178s-0.993-0.34-0.994-0.978
		c0-0.427,0.031-0.751-0.563-0.856c-0.505-0.089-0.804-0.539-0.804-1.103c0-2.787-0.016-5.573,0.008-8.36
		c0.011-1.223,1.104-2.209,2.404-2.25c0.275-0.008,0.589,0.078,0.612-0.37c0.008-0.137,0.158-0.228,0.303-0.199
		c0.554,0.111,0.816-0.32,1.129-0.62c0.6-0.574,1.172-1.18,1.751-1.778c0.269-0.277,0.56-0.516,0.593-0.977
		c0.024-0.367,0.345-0.595,0.733-0.571c0.406,0.024,0.669,0.284,0.735,0.676c0.063,0.386-0.143,0.741-0.505,0.773
		c-0.653,0.057-0.945,0.564-1.356,0.918C10.323,4.771,9.836,5.258,9.271,5.789 M10.056,12.585c1.174,0,2.349,0.005,3.522-0.001
		c0.786-0.005,1.159-0.363,1.17-1.135c0.011-0.815,0.012-1.628,0-2.443c-0.016-1.016-0.541-1.535-1.555-1.537
		c-2.086-0.004-4.167-0.005-6.25,0C5.96,7.472,5.433,7.984,5.414,8.966c-0.016,0.813-0.011,1.626-0.001,2.441
		c0.009,0.832,0.35,1.172,1.178,1.177C7.746,12.59,8.9,12.585,10.056,12.585 M6.582,14.175c-0.624-0.001-1.035,0.402-1.035,1.017
		c0,0.591,0.45,1.053,1.029,1.056c0.548,0.002,1.045-0.495,1.047-1.049C7.625,14.621,7.171,14.176,6.582,14.175 M13.597,14.176
		c-0.587-0.005-1.058,0.432-1.073,0.994c-0.016,0.546,0.479,1.062,1.025,1.076c0.57,0.014,1.047-0.448,1.061-1.029
		C14.623,14.632,14.187,14.182,13.597,14.176 M10.136,14.43c-0.473,0-0.946,0.001-1.418-0.001c-0.194-0.001-0.363,0.062-0.355,0.271
		c0.009,0.198,0.2,0.19,0.35,0.19c0.908,0.002,1.816,0.003,2.724,0c0.15,0,0.344,0.011,0.356-0.188
		c0.012-0.213-0.161-0.273-0.351-0.273C11.006,14.431,10.571,14.43,10.136,14.43 M10.086,15.438c-0.452,0-0.903-0.003-1.355,0.001
		c-0.168,0-0.375-0.014-0.357,0.234c0.013,0.183,0.174,0.221,0.338,0.221c0.904-0.001,1.809,0,2.712,0
		c0.182,0,0.377-0.038,0.361-0.254c-0.017-0.221-0.231-0.202-0.4-0.202C10.952,15.436,10.519,15.437,10.086,15.438"/>
</g>
</svg>
