<?xml version="1.0" encoding="utf-8"?>
<!DOCTYPE svg PUBLIC "-//W3C//DTD SVG 1.1//EN" "http://www.w3.org/Graphics/SVG/1.1/DTD/svg11.dtd">
<svg version="1.1" class="icon tv_screen" xmlns="http://www.w3.org/2000/svg" xmlns:xlink="http://www.w3.org/1999/xlink" x="0px" y="0px"
	 width="22px" height="22px" viewBox="0 0 22 22" enable-background="new 0 0 22 22" xml:space="preserve">
<g>
	<defs>
		<rect id="SVGID_1_" width="22" height="22"/>
	</defs>
	<clipPath id="SVGID_2_">
		<use xlink:href="#SVGID_1_"  overflow="visible"/>
	</clipPath>
	<path clip-path="url(#SVGID_2_)" fill-rule="evenodd" clip-rule="evenodd" d="M18.533,4.604H3.467
		c-0.583,0-1.057,0.474-1.057,1.058v8.369c0,0.584,0.474,1.057,1.057,1.057h5.888v1.061c-1.326,0.079-2.246,0.253-2.246,0.452
		c0,0.275,1.742,0.499,3.891,0.499c2.149,0,3.892-0.224,3.892-0.499c0-0.199-0.92-0.373-2.247-0.452v-1.061h5.889
		c0.584,0,1.057-0.473,1.057-1.057V5.662C19.59,5.078,19.117,4.604,18.533,4.604 M18.519,14.031H3.483v-8.37h15.036V14.031z"/>
</g>
</svg>
