<?xml version="1.0" encoding="utf-8"?>
<!DOCTYPE svg PUBLIC "-//W3C//DTD SVG 1.1//EN" "http://www.w3.org/Graphics/SVG/1.1/DTD/svg11.dtd">
<svg version="1.1" class="icon walkway" xmlns="http://www.w3.org/2000/svg" xmlns:xlink="http://www.w3.org/1999/xlink" x="0px" y="0px"
	 width="22px" height="22px" viewBox="0 0 22 22" enable-background="new 0 0 22 22" xml:space="preserve">
<g>
	<defs>
		<rect id="SVGID_1_" width="22" height="22"/>
	</defs>
	<clipPath id="SVGID_2_">
		<use xlink:href="#SVGID_1_"  overflow="visible"/>
	</clipPath>
	<path clip-path="url(#SVGID_2_)" fill-rule="evenodd" clip-rule="evenodd" d="M10.188,13.616
		c-0.962,1.953-1.863,3.78-2.764,5.606c-0.07,0.143-0.144,0.284-0.226,0.42c-0.357,0.596-0.934,0.796-1.452,0.508
		c-0.52-0.289-0.692-0.889-0.394-1.494c0.994-2.025,1.994-4.049,3.005-6.066c0.223-0.443,0.303-0.884,0.141-1.354
		c-0.216-0.627-0.052-1.213,0.171-1.794C8.96,8.683,9.254,7.927,9.548,7.166C8.739,7.11,8.471,7.29,8.292,8.004
		C8.126,8.658,7.976,9.316,7.796,9.966C7.651,10.49,7.2,10.744,6.706,10.613c-0.508-0.134-0.791-0.56-0.676-1.089
		c0.224-1.025,0.474-2.045,0.714-3.066c0.101-0.43,0.372-0.677,0.798-0.79c1.111-0.298,2.214-0.623,3.327-0.912
		c1.101-0.286,2.542,0.554,2.879,1.623c0.227,0.716,0.503,1.417,0.753,2.127c0.078,0.218,0.28,0.27,0.455,0.352
		c0.485,0.227,0.981,0.431,1.462,0.668c0.508,0.252,0.698,0.71,0.523,1.182c-0.178,0.479-0.621,0.742-1.165,0.533
		c-0.85-0.325-1.675-0.724-2.481-1.147c-0.46-0.243-0.364-0.859-0.708-1.29c-0.339,0.853-0.667,1.672-0.985,2.496
		c-0.081,0.209,0.062,0.385,0.14,0.562c0.992,2.267,1.992,4.531,2.982,6.799c0.283,0.649,0.079,1.282-0.47,1.525
		c-0.568,0.253-1.143,0.01-1.442-0.66c-0.735-1.646-1.449-3.302-2.175-4.953C10.512,14.288,10.374,14.009,10.188,13.616"/>
	<path clip-path="url(#SVGID_2_)" fill-rule="evenodd" clip-rule="evenodd" d="M11.847,3.183
		c-0.013-0.842,0.651-1.54,1.478-1.556c0.821-0.014,1.509,0.671,1.516,1.513c0.008,0.81-0.63,1.476-1.441,1.505
		C12.574,4.675,11.859,4,11.847,3.183"/>
</g>
</svg>
