<?xml version="1.0" encoding="utf-8"?>
<!DOCTYPE svg PUBLIC "-//W3C//DTD SVG 1.1//EN" "http://www.w3.org/Graphics/SVG/1.1/DTD/svg11.dtd">
<svg version="1.1" class="icon zoom" xmlns="http://www.w3.org/2000/svg" xmlns:xlink="http://www.w3.org/1999/xlink" x="0px" y="0px"
	 width="22px" height="22px" viewBox="0 0 22 22" enable-background="new 0 0 22 22" xml:space="preserve">
<g>
	<defs>
		<rect id="SVGID_1_" width="22" height="22"/>
	</defs>
	<clipPath id="SVGID_2_">
		<use xlink:href="#SVGID_1_"  overflow="visible"/>
	</clipPath>
	<path clip-path="url(#SVGID_2_)" d="M17.914,4.183c-2.545-2.545-6.671-2.545-9.216,0
		C6.528,6.353,6.21,9.672,7.74,12.18l-5.452,5.452l2.178,2.177l5.451-5.451c2.509,1.529,5.828,1.212,7.997-0.958
		C20.459,10.854,20.459,6.728,17.914,4.183 M16.9,12.385c-1.985,1.985-5.203,1.985-7.188,0c-1.984-1.984-1.984-5.202,0-7.187
		c1.985-1.985,5.203-1.985,7.188,0S18.886,10.401,16.9,12.385"/>
</g>
</svg>
