<?xml version="1.0" encoding="utf-8"?>
<!DOCTYPE svg PUBLIC "-//W3C//DTD SVG 1.1//EN" "http://www.w3.org/Graphics/SVG/1.1/DTD/svg11.dtd">
<svg version="1.1" class="icon zoom_out" xmlns="http://www.w3.org/2000/svg" xmlns:xlink="http://www.w3.org/1999/xlink" x="0px" y="0px"
	 width="22px" height="22px" viewBox="0 0 22 22" enable-background="new 0 0 22 22" xml:space="preserve">
<g>
	<defs>
		<rect id="SVGID_1_" width="22" height="22"/>
	</defs>
	<clipPath id="SVGID_2_">
		<use xlink:href="#SVGID_1_"  overflow="visible"/>
	</clipPath>
	<path clip-path="url(#SVGID_2_)" d="M17.27,4.393c-2.81-2.81-7.366-2.81-10.177,0
		c-2.395,2.397-2.747,6.061-1.057,8.831l-3.835,3.835l2.404,2.404l3.834-3.835c2.771,1.688,6.436,1.339,8.831-1.059
		C20.08,11.76,20.08,7.203,17.27,4.393 M16.149,13.449c-2.19,2.192-5.745,2.192-7.937,0c-2.191-2.19-2.191-5.745,0-7.937
		c2.192-2.191,5.746-2.191,7.937,0C18.342,7.705,18.342,11.259,16.149,13.449"/>
	<polygon clip-path="url(#SVGID_2_)" points="12.922,10.333 15.542,10.333 15.542,8.933 12.922,8.933 11.609,8.933 
		8.988,8.933 8.988,10.333 11.609,10.333 	"/>
</g>
</svg>
