<?xml version="1.0" encoding="utf-8"?>
<!DOCTYPE svg PUBLIC "-//W3C//DTD SVG 1.1//EN" "http://www.w3.org/Graphics/SVG/1.1/DTD/svg11.dtd">
<svg version="1.1" xmlns="http://www.w3.org/2000/svg" xmlns:xlink="http://www.w3.org/1999/xlink" xml:space="preserve">
<g class="level" id="level2">
            <g class="outline">
                    <path d="M85.818,40.936 L15.935,28.611 L0.232,75.544 L2.26,83.771 L34.08,89.382 L38.957,87.732 L46.659,64.71 L57.562,66.634 L58.207,64.704 L63.259,65.595 L64.556,61.722 L82.581,64.898 L87.847,49.162 L85.818,40.936 Z M85.818,40.936" class="outline"/>
                </g>
                <g class="label">
                    <path d="M13.851,10.579 L9.081,10.579 L9.081,6.722 L12.955,6.722 C13.339,6.722 13.547,6.403 13.547,6.13 C13.547,5.842 13.339,5.554 12.955,5.554 L9.081,5.554 L9.081,1.825 L13.691,1.825 C14.107,1.825 14.331,1.553 14.331,1.249 C14.331,0.913 14.107,0.608 13.691,0.608 L8.905,0.608 C8.217,0.608 7.848,0.975 7.848,1.569 L7.848,10.837 C7.848,11.429 8.216,11.797 8.905,11.797 L13.851,11.797 C14.235,11.797 14.459,11.461 14.459,11.19 C14.459,10.852 14.235,10.579 13.851,10.579 L13.851,10.579 Z M5.771,10.611 L1.465,10.611 L1.465,1.199 C1.465,0.799 1.209,0.543 0.857,0.543 C0.504,0.543 0.232,0.799 0.232,1.199 L0.232,10.836 C0.232,11.428 0.6,11.796 1.289,11.796 L5.77,11.796 C6.17,11.796 6.426,11.525 6.426,11.188 C6.427,10.884 6.187,10.611 5.771,10.611 L5.771,10.611 Z M23.627,0.543 C23.339,0.543 23.115,0.719 23.035,1.056 C21.755,6.93 20.65,9.539 19.914,10.66 C19.178,9.54 18.089,6.931 16.777,1.056 C16.697,0.719 16.473,0.543 16.185,0.543 C15.833,0.543 15.577,0.783 15.577,1.168 C15.577,1.279 15.625,1.455 15.673,1.68 C16.73,6.147 17.498,8.451 18.378,10.259 C18.986,11.508 19.338,11.876 19.899,11.876 C20.46,11.876 20.812,11.508 21.42,10.259 C22.3,8.45 23.053,6.161 24.141,1.68 C24.189,1.455 24.237,1.281 24.237,1.168 C24.236,0.783 23.98,0.543 23.627,0.543 L23.627,0.543 Z M49.129,5.266 L49.129,5.235 C50.489,4.114 51.226,2.561 51.226,1.424 C51.226,0.976 50.907,0.609 50.283,0.609 L45.754,0.609 C45.386,0.609 45.146,0.88 45.146,1.184 C45.146,1.537 45.386,1.826 45.754,1.826 L49.98,1.826 C49.724,3.234 48.62,4.467 47.691,4.93 C47.387,5.076 47.099,5.25 47.099,5.618 C47.099,5.971 47.355,6.194 47.835,6.194 C49.531,6.194 50.428,7.186 50.428,8.451 C50.428,9.86 49.451,10.757 47.835,10.757 C46.874,10.757 46.282,10.469 45.706,10.101 C45.466,9.956 45.338,9.91 45.226,9.91 C44.89,9.91 44.65,10.149 44.65,10.471 C44.65,10.742 44.826,10.904 44.986,11.015 C45.482,11.368 46.379,11.927 47.883,11.927 C50.14,11.927 51.676,10.488 51.676,8.453 C51.674,6.897 50.667,5.634 49.129,5.266 L49.129,5.266 Z M39.818,10.611 L35.512,10.611 L35.512,1.199 C35.512,0.799 35.256,0.543 34.904,0.543 C34.551,0.543 34.279,0.799 34.279,1.199 L34.279,10.836 C34.279,11.428 34.647,11.796 35.336,11.796 L39.817,11.796 C40.217,11.796 40.473,11.525 40.473,11.188 C40.475,10.884 40.235,10.611 39.818,10.611 L39.818,10.611 Z M31.947,10.579 L27.177,10.579 L27.177,6.722 L31.051,6.722 C31.435,6.722 31.643,6.403 31.643,6.13 C31.643,5.842 31.435,5.554 31.051,5.554 L27.177,5.554 L27.177,1.825 L31.787,1.825 C32.203,1.825 32.427,1.553 32.427,1.249 C32.427,0.913 32.203,0.608 31.787,0.608 L27.001,0.608 C26.313,0.608 25.944,0.975 25.944,1.569 L25.944,10.837 C25.944,11.429 26.312,11.797 27.001,11.797 L31.947,11.797 C32.331,11.797 32.555,11.461 32.555,11.19 C32.555,10.852 32.331,10.579 31.947,10.579 L31.947,10.579 Z M31.947,10.579" class="Shape"/>
                </g>
                <g class="background">
                    <path d="M84.779,42.047 L16.795,30.058 L1.559,75.598 L3.339,82.659 L34.019,88.069 L37.987,86.728 L45.837,63.263 L56.74,65.188 L57.385,63.258 L62.438,64.148 L63.733,60.275 L81.76,63.455 L86.559,49.108 L84.779,42.047 Z M84.779,42.047" class="wall"/>
                </g>
                <g class="ceilings">
                    <path class="unit" d="M43.135,58.961 L36.208,79.663 L32.24,81.006 L1.559,75.596 L9.131,52.964 L43.135,58.961 Z M43.135,58.961" id="3001"/>
                    <path class="unit" d="M84.779,42.044 L79.98,56.388 L61.955,53.211 L60.658,57.085 L55.605,56.193 L54.96,58.123 L44.058,56.199 L43.506,57.848 L9.503,51.853 L16.795,30.058 L84.779,42.044 Z M84.779,42.044" id="3002"/>
                </g>
            </g>
</svg>