<?xml version="1.0" encoding="utf-8"?>
<!DOCTYPE svg PUBLIC "-//W3C//DTD SVG 1.1//EN" "http://www.w3.org/Graphics/SVG/1.1/DTD/svg11.dtd">
<svg version="1.1" xmlns="http://www.w3.org/2000/svg" xmlns:xlink="http://www.w3.org/1999/xlink" xml:space="preserve">
<g class="level" id="level1">
            <g class="outline">
                    <path d="M244,79.2 L243.7,71.3 L143,0.7 L142.8,0.8 L118.2,16.8 L117.8,17.1 C117.3,17.6 116.3,18.6 115.2,20 L77.2,45 L182.2,119 L244,79.2 L244,79.2 Z M244,79.2" class="outline"/>
                </g>
                <g class="label">
                    <path d="M24.4,9.2 C24.1,9.2 23.9,9.4 23.8,9.7 C22.5,15.6 21.4,18.2 20.7,19.3 C20,18.2 18.9,15.6 17.6,9.7 C17.5,9.4 17.3,9.2 17,9.2 C16.6,9.2 16.4,9.4 16.4,9.8 C16.4,9.9 16.4,10.1 16.5,10.3 C17.6,14.8 18.3,17.1 19.2,18.9 C19.8,20.1 20.2,20.5 20.7,20.5 C21.3,20.5 21.6,20.1 22.2,18.9 C23.1,17.1 23.8,14.8 24.9,10.3 C24.9,10.1 25,9.9 25,9.8 C25,9.4 24.7,9.2 24.4,9.2 L24.4,9.2 Z M6.5,19.2 L2.2,19.2 L2.2,9.8 C2.2,9.4 1.9,9.1 1.6,9.1 C1.2,9.1 1,9.4 1,9.8 L1,19.4 C1,20 1.4,20.4 2.1,20.4 L6.6,20.4 C7,20.4 7.3,20.1 7.3,19.8 C7.2,19.5 6.9,19.2 6.5,19.2 L6.5,19.2 Z M32.7,19.2 L27.9,19.2 L27.9,15.3 L31.8,15.3 C32.2,15.3 32.4,15 32.4,14.7 C32.4,14.4 32.2,14.1 31.8,14.1 L27.9,14.1 L27.9,10.4 L32.5,10.4 C32.9,10.4 33.1,10.1 33.1,9.8 C33.1,9.5 32.9,9.2 32.5,9.2 L27.7,9.2 C27,9.2 26.6,9.6 26.6,10.2 L26.6,19.5 C26.6,20.1 27,20.5 27.7,20.5 L32.6,20.5 C33,20.5 33.2,20.2 33.2,19.9 C33.3,19.5 33.1,19.2 32.7,19.2 L32.7,19.2 Z M14.6,19.2 L9.8,19.2 L9.8,15.3 L13.7,15.3 C14.1,15.3 14.3,15 14.3,14.7 C14.3,14.4 14.1,14.1 13.7,14.1 L9.8,14.1 L9.8,10.4 L14.4,10.4 C14.8,10.4 15,10.1 15,9.8 C15,9.5 14.8,9.2 14.4,9.2 L9.6,9.2 C8.9,9.2 8.5,9.6 8.5,10.2 L8.5,19.5 C8.5,20.1 8.9,20.5 9.6,20.5 L14.5,20.5 C14.9,20.5 15.1,20.2 15.1,19.9 C15.2,19.5 15,19.2 14.6,19.2 L14.6,19.2 Z M52.5,9.2 L45.6,9.2 C45.2,9.2 45,9.5 45,9.8 C45,10.1 45.2,10.4 45.6,10.4 L48.4,10.4 L48.4,19.8 C48.4,20.2 48.7,20.4 49,20.4 C49.3,20.4 49.6,20.2 49.6,19.8 L49.6,10.4 L52.5,10.4 C52.9,10.4 53.1,10.1 53.1,9.8 C53.1,9.5 52.9,9.2 52.5,9.2 L52.5,9.2 Z M72.6,9.1 C69.7,9.1 67.9,11.4 67.9,15 C67.9,18.4 69.7,20.5 72.6,20.5 C75.5,20.5 77.3,18.1 77.3,14.5 C77.2,11.2 75.4,9.1 72.6,9.1 L72.6,9.1 Z M72.6,19.4 C70.5,19.4 69.2,17.7 69.2,15.1 C69.2,12.1 70.4,10.3 72.6,10.3 C74.8,10.3 76,12 76,14.5 C76,17.5 74.7,19.4 72.6,19.4 L72.6,19.4 Z M40.6,19.2 L36.3,19.2 L36.3,9.8 C36.3,9.4 36,9.1 35.7,9.1 C35.3,9.1 35.1,9.4 35.1,9.8 L35.1,19.4 C35.1,20 35.5,20.4 36.2,20.4 L40.7,20.4 C41.1,20.4 41.4,20.1 41.4,19.8 C41.2,19.5 41,19.2 40.6,19.2 L40.6,19.2 Z M66,9.2 C65.7,9.2 65.5,9.5 65.4,9.8 C65,12.9 64.4,15.9 63.6,19 L63.6,19 C62.7,16.2 62,12.8 61.3,10.5 C61,9.5 60.7,9.2 60.2,9.2 C59.8,9.2 59.4,9.5 59.2,10.4 C58.5,12.7 57.6,16.4 56.8,19 L56.8,19 C56,15.9 55.6,12.9 55.2,9.8 C55.1,9.4 54.9,9.2 54.5,9.2 C54.1,9.2 53.9,9.5 53.9,9.8 L53.9,10.2 C54.3,13.3 54.9,16.5 55.6,19.2 C55.8,20.2 56.2,20.5 56.7,20.5 C57.2,20.5 57.5,20.2 57.8,19.4 C58.7,16.9 59.3,14.1 60.2,11 L60.2,11 C61.2,14.2 61.7,16.9 62.5,19.4 C62.8,20.3 63.1,20.5 63.6,20.5 C64.1,20.5 64.4,20.2 64.6,19.4 C65.4,16.4 66,13.3 66.5,10.1 L66.5,9.7 C66.7,9.4 66.4,9.2 66,9.2 L66,9.2 Z M66,9.2" class="Shape"/>
                </g>
                <g class="background">
                    <path d="M241.3,72.6 L142.8,3.9 L119.6,19 C118.7,19.8 108.5,29.7 109.7,43.8 L109.7,43.6 C109.8,45.3 110,47.1 110.1,48.8 C110.8,58.1 116.5,69.3 133.1,80.9 C176.4,111.3 212.7,96.2 214.6,95.5 L241.5,77.9 L241.3,72.6 L241.3,72.6 Z M241.3,72.6" class="walkway"/>
                    <path d="M204,46.1 L198.2,49.7 L198.2,54.7 L202.4,57.9 L194.9,60.5 L195.2,65.5 L197.9,75.8 L233.1,83.1 L241.4,77.7 L241.4,72.7 L204,46.1 Z M204,46.1" class="wall"/>
                    <path d="M183.4,32.1 L143,3.7 L137,7.6 L137.1,12.6 L143.6,37.7 L164.7,44.1 L175.3,37.1 L179.3,39.8 L183.5,37.1 L183.4,32.1 Z M183.4,32.1" class="wall"/>
                </g>
                <g class="ceilings">
                    <path class="unit" d="M183.4,32.1 L179.2,34.8 L175.2,32.1 L164.6,39.1 L143.5,32.8 L137,7.6 L143,3.7 L183.4,32.1 L183.4,32.1 Z M183.4,32.1" id="2001"/>
                    <path class="unit" d="M203.6,46.1 L197.9,49.7 L204.2,54.2 L194.9,60.4 L197.6,70.7 L232.8,78.1 L241.1,72.7 L203.6,46.1 L203.6,46.1 Z M203.6,46.1" id="2002"/>
            </g>
        </g>
</svg>