<?xml version="1.0" encoding="utf-8"?>
<!DOCTYPE svg PUBLIC "-//W3C//DTD SVG 1.1//EN" "http://www.w3.org/Graphics/SVG/1.1/DTD/svg11.dtd">
<svg version="1.1" xmlns="http://www.w3.org/2000/svg" xmlns:xlink="http://www.w3.org/1999/xlink" xml:space="preserve">
<g class="level" id="level0">
        <g class="outline">
            <path d="M191.2,271.5 L192.1,270.9 L245.3,236.4 L246.3,235.8 L246.3,235.5 L256.8,228.7 L257.1,228.9 L258.2,228.2 L324.8,184.7 L325.8,184 L325.7,182.8 L325.5,179.8 L325.5,179.3 L325.2,178.9 L317.1,166.1 L337,153.2 C337.5,153.5 337.8,153.7 337.9,153.7 L338,153.7 L338.1,153.7 L378.7,167.1 L379.6,167.4 L380.4,166.9 L393,158.7 L392.4,166.4 L392.4,166.5 L392.4,166.6 L392.6,169.6 L392.7,171.5 L394.6,171.5 L408,171.4 L409.9,171.4 L410,169.5 L410.6,160.4 L410.6,160.3 L410.6,160.1 L410.4,157.1 L410.3,155.2 L408.4,155.2 L397.9,155.3 L398.1,155.2 L398,154 L397.8,151 L397.7,150 L396.9,149.5 L370.4,130.9 L372.2,129.7 L374.7,128.1 L372.2,126.4 L292.3,70.6 L291.2,69.8 L290.1,70.6 L288,72 L258,51 L256.9,50.2 L255.8,50.9 L238.6,62.1 L237.6,62.8 L237.7,64 L237.9,67 L237.9,67.5 L238.2,67.9 L255.1,93.1 L234.1,107 C234,106.9 233.8,106.8 233.7,106.7 C233.3,106.4 233,106.2 232.9,106.2 L232.8,106.1 L232.7,106.1 L190,89.6 L174.5,79.1 L173.4,78.3 L172.3,79 L158.9,87.7 L157.9,88.4 L158,89.6 L158.2,92.6 L158.3,93.6 L159.1,94.1 L163.8,97.4 L145.6,109.3 L144.6,110 L144.7,111.1 L137.5,106 L136.4,105.2 L135,106 L85.3,138.4 L82.8,140 L85.2,141.7 L87.7,143.4 L86.8,144 L75.5,151.3 L74.5,152 L74.6,153.2 L74.7,154.5 L66.9,149 L65.8,148.2 L64.7,148.9 L1.7,190 L0.7,190.7 L0.8,191.9 L1,194.9 L1.1,195.9 L1.9,196.4 L71.7,245.3 L72.8,246.1 L73.9,245.4 L116.7,217.5 C117.7,219 119.7,221.1 123.5,223.8 L125.6,225.3 C129.9,228.3 132.9,229.9 134.8,230.8 L134.9,231.5 L134.9,231.9 L191.2,271.5 L191.2,271.5 Z M117.7,214.8 C117.7,214.8 117.7,214.7 117.7,214.8 C117.7,214.7 117.7,214.7 117.7,214.8 C117.7,214.7 117.7,214.8 117.7,214.8 L117.7,214.8 L117.7,214.8 Z M218.4,151.9 C215.5,153.8 211.6,154.9 207.5,154.9 C203.4,154.9 199.6,153.8 196.9,151.9 C194.5,150.2 193.2,148 193.2,145.8 C193.2,143.4 194.8,141 197.6,139.2 C200.5,137.3 204.4,136.2 208.5,136.2 C212.6,136.2 216.4,137.3 219.1,139.2 C221.5,140.9 222.8,143.1 222.8,145.3 C222.8,147.7 221.2,150.1 218.4,151.9 L218.4,151.9 L218.4,151.9 Z M218.4,151.9" class="outline"/>
        </g>
        <g class="label">
            <path d="M208.4,61.2 L206.4,47.9 L218.2,54.3 L208.4,61.2 L208.4,61.2 Z M208.4,61.2" class="Shape"/>
            <path d="M174.2,49.9 L172.5,47.5 C172.3,47.2 172.1,46.8 172,46.5 C171.9,46.3 171.9,46.1 172,45.9 C172.1,45.7 172.2,45.5 172.4,45.4 C172.6,45.3 172.8,45.2 173.1,45.2 L172.9,44.3 C172.5,44.3 172.2,44.4 171.9,44.6 C171.7,44.7 171.6,44.9 171.5,45.1 C171.4,45.3 171.4,45.6 171.5,46.1 L171,45.4 L170.3,45.9 L173.6,50.6 L174.2,49.9 L174.2,49.9 Z M226.4,12.6 C227.1,12.7 227.8,12.6 228.4,12.1 C228.8,11.8 229.1,11.5 229.3,11 C229.5,10.6 229.6,10.1 229.5,9.6 C229.4,9.1 229.2,8.6 228.8,8 C228.3,7.3 227.7,6.8 227,6.7 C226.3,6.6 225.6,6.7 225,7.2 C224.4,7.6 224.1,8.1 223.9,8.7 C223.7,9.5 223.9,10.3 224.5,11.1 C225.1,12 225.7,12.4 226.4,12.6 L226.4,12.6 L226.4,12.6 Z M225.5,7.9 C225.9,7.6 226.3,7.5 226.8,7.7 C227.3,7.8 227.7,8.2 228.1,8.7 C228.5,9.3 228.7,9.9 228.7,10.3 C228.7,10.7 228.4,11.2 228,11.4 C227.6,11.7 227.2,11.8 226.7,11.6 C226.2,11.5 225.8,11.1 225.4,10.5 C225,9.9 224.8,9.4 224.9,8.9 C224.8,8.5 225.1,8.1 225.5,7.9 L225.5,7.9 L225.5,7.9 Z M176.1,44.6 L175.5,45.2 C175.3,45.4 175.2,45.6 175.1,45.9 C175,46.1 175,46.4 175,46.6 C175,46.9 175.1,47.1 175.3,47.3 C175.6,47.7 175.9,47.9 176.4,48 C176.8,48.1 177.3,47.9 177.8,47.5 C178.1,47.3 178.4,47 178.6,46.7 C178.8,46.4 179,46 179.1,45.6 C179.3,45.8 179.5,46 179.7,46.1 L180.5,45.5 C180.3,45.4 180.1,45.3 179.9,45.1 C179.7,44.9 179.4,44.5 178.9,43.7 L178.2,42.6 C178,42.2 177.8,42 177.6,41.9 C177.4,41.7 177.2,41.6 177,41.5 C176.8,41.4 176.5,41.4 176.2,41.5 C175.9,41.6 175.5,41.8 175.1,42 C174.7,42.3 174.4,42.6 174.2,42.9 C174,43.2 173.8,43.5 173.8,43.9 C173.8,44.2 173.9,44.6 174,44.9 L174.9,44.5 C174.8,44.1 174.7,43.8 174.8,43.5 C174.9,43.2 175.1,43 175.5,42.7 C175.9,42.4 176.3,42.3 176.6,42.3 C176.8,42.3 177.1,42.5 177.3,42.8 C177.3,42.8 177.4,42.9 177.4,43 C177.1,43.6 176.6,44.1 176.1,44.6 L176.1,44.6 L176.1,44.6 Z M177.7,43.9 L177.9,44.2 C178.1,44.6 178.3,44.8 178.3,45.1 C178.4,45.4 178.3,45.7 178.2,46 C178.1,46.3 177.8,46.6 177.5,46.8 C177.2,47 176.9,47.1 176.6,47.1 C176.3,47.1 176.1,47 176,46.7 C175.9,46.6 175.9,46.4 175.8,46.2 C175.7,46 175.8,45.9 175.9,45.7 C176,45.5 176.2,45.3 176.5,45.1 C177.1,44.7 177.5,44.3 177.7,43.9 L177.7,43.9 L177.7,43.9 Z M167.6,48.5 L168.2,48.1 L170.1,50.8 C170.4,51.3 170.7,51.6 170.9,51.7 C171.1,51.8 171.3,51.8 171.5,51.8 C171.7,51.8 172,51.7 172.3,51.5 C172.5,51.4 172.7,51.2 172.8,51 L172.2,50.4 L171.9,50.7 C171.8,50.8 171.7,50.8 171.6,50.8 C171.5,50.8 171.4,50.8 171.4,50.7 C171.3,50.7 171.2,50.5 171.1,50.3 L169.2,47.6 L170,47 L169.6,46.4 L168.8,47 L167.7,45.4 L167.2,46.4 L168,47.6 L167.4,48 L167.6,48.5 L167.6,48.5 Z M191.7,37.7 L190,35.3 C189.8,35 189.6,34.6 189.5,34.3 C189.4,34.1 189.4,33.9 189.5,33.7 C189.6,33.5 189.7,33.3 189.9,33.2 C190.1,33.1 190.3,33 190.6,33 L190.4,32.1 C190,32.1 189.7,32.2 189.4,32.4 C189.2,32.5 189.1,32.7 189,32.9 C188.9,33.1 188.9,33.4 189,33.9 L188.5,33.2 L187.8,33.7 L191.1,38.4 L191.7,37.7 L191.7,37.7 Z M232.3,9.2 L230.5,6.6 C230.1,6 229.9,5.5 230,5.1 C230.1,4.7 230.3,4.4 230.6,4.2 C230.8,4.1 231,4 231.3,4 C231.5,4 231.7,4 231.9,4.2 C232.1,4.3 232.3,4.5 232.5,4.9 L234.5,7.7 L235.3,7.1 L233.3,4.2 C233,3.8 232.8,3.6 232.7,3.5 C232.5,3.3 232.3,3.2 232,3.1 C231.8,3 231.5,3 231.2,3.1 C230.9,3.2 230.6,3.3 230.3,3.5 C229.7,4 229.3,4.6 229.4,5.3 L228.9,4.6 L228.2,5.1 L231.5,9.8 L232.3,9.2 L232.3,9.2 Z M189,47.4 L188.4,46.5 L187.6,47.1 L188.2,48 L189,47.4 L189,47.4 Z M187.5,40.6 L188.4,40 L184.4,34.3 L186.5,32.8 L186,32 L180.9,35.6 L181.4,36.4 L183.5,34.9 L187.5,40.6 L187.5,40.6 Z M218.2,12.1 L218.6,12.7 L219.2,12.3 L221.1,15 C221.4,15.5 221.7,15.8 221.9,15.9 C222.1,16 222.3,16 222.5,16 C222.7,16 223,15.9 223.3,15.7 C223.5,15.6 223.7,15.4 223.8,15.2 L223.2,14.6 L222.9,14.9 C222.8,15 222.7,15 222.6,15 C222.5,15 222.4,15 222.4,14.9 C222.3,14.9 222.2,14.7 222.1,14.5 L220.2,11.8 L221,11.2 L220.6,10.6 L219.8,11.2 L218.7,9.6 L218.2,10.6 L219,11.8 L218.2,12.1 L218.2,12.1 Z M182.2,44.3 L177.7,37.8 L176.9,38.4 L181.4,44.9 L182.2,44.3 L182.2,44.3 Z M214.4,21.1 C214.6,21.2 214.8,21.2 215,21.2 C215.2,21.2 215.5,21.1 215.8,20.9 C216,20.8 216.2,20.6 216.4,20.4 L215.8,19.8 L215.5,20.1 C215.4,20.2 215.3,20.2 215.2,20.2 C215.1,20.2 215,20.2 215,20.1 C214.9,20.1 214.8,19.9 214.7,19.7 L212.8,17 L213.6,16.4 L213.2,15.8 L212.4,16.4 L211.3,14.8 L210.8,15.8 L211.6,17 L211,17.4 L211.4,18 L212,17.6 L213.9,20.3 C214,20.7 214.2,21 214.4,21.1 L214.4,21.1 L214.4,21.1 Z M210.5,23.5 C210.1,23.8 209.8,23.9 209.4,24 C209,24.1 208.7,24.1 208.4,24 C208.1,23.9 207.8,23.7 207.6,23.4 L206.8,24 C207.1,24.4 207.5,24.7 208,24.9 C208.5,25.1 209,25.1 209.5,25 C210,24.9 210.6,24.6 211.1,24.2 C211.6,23.9 211.9,23.5 212.2,23.1 C212.4,22.7 212.6,22.2 212.6,21.8 C212.6,21.4 212.5,21 212.2,20.6 C212,20.3 211.7,20 211.3,19.9 C210.9,19.8 210.5,19.7 210,19.8 C209.7,19.9 209.1,20.1 208.3,20.4 C207.5,20.7 207,20.9 206.7,20.8 C206.4,20.8 206.2,20.6 206,20.4 C205.8,20.1 205.8,19.8 205.9,19.5 C206,19.1 206.3,18.8 206.8,18.4 C207.3,18.1 207.7,17.9 208.1,17.9 C208.5,17.9 208.9,18.1 209.2,18.5 L210,17.9 C209.7,17.5 209.4,17.3 209,17.1 C208.6,16.9 208.2,16.9 207.7,17 C207.2,17.1 206.8,17.3 206.3,17.7 C205.9,18 205.5,18.4 205.3,18.7 C205,19.1 204.9,19.5 204.9,19.9 C204.9,20.3 205,20.7 205.3,21 C205.5,21.3 205.8,21.5 206.1,21.6 C206.4,21.7 206.8,21.8 207.2,21.7 C207.5,21.7 208,21.5 208.7,21.2 C209.4,20.9 209.8,20.8 210.1,20.7 C210.4,20.6 210.7,20.6 210.9,20.7 C211.1,20.8 211.3,20.9 211.4,21.1 C211.5,21.3 211.6,21.5 211.6,21.8 C211.6,22.1 211.5,22.3 211.3,22.6 C211.1,23 210.8,23.3 210.5,23.5 L210.5,23.5 L210.5,23.5 Z M221.4,8.6 L220.8,7.7 L220,8.3 L220.6,9.2 L221.4,8.6 L221.4,8.6 Z M209,4.3 C209.2,4.5 209.4,4.7 209.6,4.8 C209.8,4.9 210.1,4.9 210.4,4.9 C210.7,4.9 211.2,4.7 211.9,4.4 C212.4,4.2 212.7,4.1 212.9,4.1 C213.1,4.1 213.3,4.2 213.4,4.4 C213.5,4.6 213.6,4.8 213.5,5.1 C213.4,5.4 213.2,5.6 212.8,5.9 C212.4,6.2 212.1,6.3 211.8,6.2 C211.5,6.2 211.2,6 210.9,5.7 L210.2,6.4 C210.6,6.8 211.1,7.1 211.6,7.1 C212.1,7.1 212.6,6.9 213.3,6.5 C213.7,6.2 214,5.9 214.2,5.6 C214.4,5.3 214.5,4.9 214.5,4.6 C214.5,4.3 214.4,4 214.2,3.7 C214,3.4 213.8,3.2 213.5,3.2 C213.2,3.1 213,3.1 212.7,3.2 C212.4,3.3 211.9,3.4 211.3,3.7 C210.8,3.9 210.6,4 210.5,4 L210,4 C209.9,4 209.8,3.9 209.7,3.8 C209.6,3.6 209.6,3.4 209.6,3.2 C209.7,3 209.9,2.7 210.3,2.5 C210.6,2.3 210.9,2.2 211.2,2.2 C211.5,2.2 211.7,2.3 211.9,2.5 L212.6,1.9 C212.3,1.6 212.1,1.5 211.8,1.4 C211.5,1.3 211.2,1.3 210.9,1.4 C210.5,1.5 210.2,1.7 209.8,1.9 L209.2,2.5 C209,2.7 208.9,2.9 208.9,3.1 C208.8,3.3 208.8,3.6 208.8,3.8 C208.8,3.8 208.9,4.1 209,4.3 L209,4.3 L209,4.3 Z M193.6,32.3 L193,32.9 C192.8,33.1 192.7,33.3 192.6,33.6 C192.5,33.8 192.5,34.1 192.5,34.3 C192.5,34.6 192.6,34.8 192.8,35 C193.1,35.4 193.4,35.6 193.9,35.7 C194.4,35.8 194.8,35.6 195.3,35.2 C195.6,35 195.9,34.7 196.1,34.4 C196.3,34.1 196.5,33.7 196.6,33.3 C196.8,33.5 197,33.7 197.2,33.8 L198,33.2 C197.8,33.1 197.6,33 197.4,32.8 C197.2,32.6 196.9,32.2 196.4,31.4 L195.7,30.3 C195.5,29.9 195.3,29.7 195.1,29.6 C194.9,29.4 194.7,29.3 194.5,29.2 C194.3,29.1 194,29.2 193.7,29.2 C193.4,29.3 193,29.5 192.6,29.7 C192.2,30 191.9,30.3 191.7,30.6 C191.5,30.9 191.3,31.2 191.3,31.6 C191.3,31.9 191.4,32.3 191.5,32.6 L192.3,32.2 C192.2,31.8 192.1,31.5 192.2,31.2 C192.3,30.9 192.5,30.7 192.9,30.4 C193.3,30.1 193.7,30 194,30 C194.2,30 194.5,30.2 194.7,30.5 C194.7,30.5 194.8,30.6 194.8,30.7 C194.6,31.4 194.2,31.8 193.6,32.3 L193.6,32.3 L193.6,32.3 Z M195.2,31.7 L195.4,32 C195.6,32.4 195.8,32.6 195.8,32.9 C195.9,33.2 195.8,33.5 195.7,33.8 C195.6,34.1 195.3,34.4 195,34.6 C194.7,34.8 194.4,34.9 194.2,34.9 C193.9,34.9 193.7,34.8 193.6,34.5 C193.5,34.4 193.5,34.2 193.4,34 C193.4,33.8 193.4,33.7 193.5,33.5 C193.6,33.3 193.8,33.1 194.1,32.9 C194.7,32.4 195,32 195.2,31.7 L195.2,31.7 L195.2,31.7 Z M214.5,16.7 L215.3,16.3 C215.2,15.9 215.1,15.6 215.2,15.3 C215.3,15 215.5,14.8 215.9,14.5 C216.3,14.2 216.7,14.1 217,14.1 C217.2,14.1 217.5,14.3 217.7,14.6 C217.7,14.6 217.8,14.7 217.8,14.8 C217.6,15.1 217.2,15.5 216.6,16.1 L216,16.7 C215.8,16.9 215.7,17.1 215.6,17.4 C215.5,17.7 215.5,17.9 215.5,18.1 C215.5,18.4 215.6,18.6 215.8,18.8 C216.1,19.2 216.4,19.4 216.9,19.5 C217.4,19.6 217.8,19.4 218.3,19 C218.6,18.8 218.9,18.5 219.1,18.2 C219.3,17.9 219.5,17.5 219.6,17.1 C219.8,17.3 220,17.5 220.2,17.6 L221,17 C220.8,16.9 220.6,16.8 220.4,16.6 C220.2,16.4 219.9,16 219.4,15.2 L218.7,14.1 C218.5,13.7 218.3,13.5 218.1,13.4 C217.9,13.2 217.7,13.1 217.5,13 C217.3,12.9 217,12.9 216.7,13 C216.4,13.1 216,13.3 215.6,13.5 C215.2,13.8 214.9,14.1 214.7,14.4 C214.5,14.7 214.3,15 214.3,15.4 C214.2,16 214.3,16.3 214.5,16.7 L214.5,16.7 L214.5,16.7 Z M218.3,15.5 L218.5,15.8 C218.7,16.2 218.9,16.4 218.9,16.7 C219,17 218.9,17.3 218.8,17.6 C218.7,17.9 218.4,18.2 218.1,18.4 C217.8,18.6 217.5,18.7 217.3,18.7 C217,18.7 216.8,18.6 216.7,18.3 C216.6,18.2 216.6,18 216.5,17.8 C216.5,17.6 216.5,17.5 216.6,17.3 C216.7,17.1 216.9,16.9 217.2,16.7 C217.7,16.3 218.1,15.9 218.3,15.5 L218.3,15.5 L218.3,15.5 Z M224.5,14.7 L225.3,14.1 L222,9.5 L221.2,10 L224.5,14.7 L224.5,14.7 Z M200.1,25.7 C200.3,25.6 200.5,25.5 200.8,25.5 C201,25.5 201.2,25.5 201.4,25.7 C201.6,25.8 201.8,26 202,26.4 L204,29.2 L204.8,28.6 L202.8,25.7 C202.5,25.3 202.3,25.1 202.2,25 C202,24.8 201.8,24.7 201.5,24.6 C201.3,24.5 201,24.5 200.7,24.6 C200.4,24.7 200.1,24.8 199.8,25 C199.2,25.5 198.8,26.1 198.9,26.8 L198.4,26.1 L197.7,26.6 L201,31.3 L201.8,30.7 L200,28.1 C199.6,27.5 199.4,27 199.5,26.6 C199.5,26.2 199.7,25.9 200.1,25.7 L200.1,25.7 L200.1,25.7 Z M206.6,10.3 C207.3,10.4 208,10.3 208.7,9.8 C209.2,9.4 209.6,9 209.8,8.5 C210,8 209.9,7.5 209.7,6.9 L208.8,7.4 C208.9,7.8 208.9,8.2 208.8,8.5 C208.7,8.8 208.5,9 208.2,9.2 C207.8,9.5 207.4,9.6 206.9,9.5 C206.4,9.4 206,9.1 205.6,8.6 L209.1,6.2 C209.1,6 209,6 209,5.9 C208.5,5.1 207.8,4.7 207.1,4.5 C206.4,4.4 205.7,4.5 205.1,4.9 C204.5,5.4 204.1,5.9 204,6.7 C203.9,7.4 204.1,8.2 204.7,9 C205.3,9.7 205.9,10.2 206.6,10.3 L206.6,10.3 L206.6,10.3 Z M205,6.6 C205.1,6.2 205.3,5.8 205.7,5.6 C206.1,5.3 206.5,5.2 207,5.4 C207.3,5.5 207.6,5.7 207.9,6.1 L205.3,7.9 C205,7.5 204.9,7 205,6.6 L205,6.6 L205,6.6 Z M202.4,14 L200.6,11.4 C200.2,10.8 200,10.3 200.1,9.9 C200.2,9.5 200.4,9.2 200.7,9 C200.9,8.9 201.1,8.8 201.4,8.8 C201.6,8.8 201.8,8.8 202,9 C202.2,9.1 202.4,9.3 202.6,9.7 L204.6,12.5 L205.4,11.9 L203.4,9 C203.1,8.6 202.9,8.4 202.8,8.3 C202.6,8.1 202.4,8 202.1,7.9 C201.9,7.8 201.6,7.8 201.3,7.9 C201,8 200.7,8.1 200.4,8.3 C199.8,8.8 199.4,9.4 199.5,10.1 L199,9.4 L198.3,9.9 L201.6,14.6 L202.4,14 L202.4,14 Z M195.8,26.5 L195.2,25.6 L194.4,26.2 L195,27.1 L195.8,26.5 L195.8,26.5 Z M164.6,33.6 L163.8,34.2 L167.1,38.9 L167.9,38.3 L164.6,33.6 L164.6,33.6 Z M205.1,43.4 C205,43.5 204.9,43.5 204.8,43.5 C204.7,43.5 204.6,43.5 204.6,43.4 C204.5,43.4 204.4,43.2 204.3,43 L202.4,40.3 L203.2,39.7 L202.8,39.1 L202,39.7 L200.9,38.1 L200.4,39.1 L201.2,40.3 L200.6,40.7 L201,41.3 L201.6,40.9 L203.5,43.6 C203.8,44.1 204.1,44.4 204.3,44.5 C204.5,44.6 204.7,44.6 204.9,44.6 C205.1,44.6 205.4,44.5 205.7,44.3 C205.9,44.2 206.1,44 206.2,43.8 L205.6,43.2 C205.3,43.2 205.1,43.3 205.1,43.4 L205.1,43.4 L205.1,43.4 Z M198.8,41.8 L200.6,44.3 C200.9,44.7 201,45 201.1,45.3 C201.2,45.6 201.1,45.8 201,46.1 C200.9,46.4 200.7,46.6 200.5,46.8 C200.3,47 200,47 199.8,47 C199.6,47 199.3,46.9 199.1,46.7 C199,46.6 198.8,46.3 198.5,45.9 L196.7,43.3 L195.9,43.9 L197.9,46.8 C198.1,47.1 198.3,47.4 198.5,47.5 C198.7,47.7 198.9,47.8 199.2,47.9 C199.4,48 199.7,48 200,47.9 C200.3,47.8 200.6,47.7 200.9,47.5 C201.5,47.1 201.8,46.5 201.8,45.7 L202.3,46.4 L203,45.9 L199.7,41.2 L198.8,41.8 L198.8,41.8 Z M199.7,32 L196.4,27.3 L195.6,27.9 L198.9,32.6 L199.7,32 L199.7,32 Z M195.3,45.8 C195.1,45.6 194.9,45.5 194.6,45.4 C194.4,45.3 194.1,45.3 193.8,45.4 C193.5,45.5 193.2,45.6 192.9,45.8 C192.3,46.3 191.9,46.9 192,47.6 L191.5,46.9 L190.8,47.4 L194.1,52.1 L194.9,51.5 L193.1,48.9 C192.7,48.3 192.5,47.8 192.6,47.4 C192.7,47 192.9,46.7 193.2,46.5 C193.4,46.4 193.6,46.3 193.9,46.3 C194.1,46.3 194.3,46.3 194.5,46.5 C194.7,46.6 194.9,46.8 195.1,47.2 L197.1,50 L197.9,49.4 L195.9,46.5 C195.7,46.2 195.5,45.9 195.3,45.8 L195.3,45.8 L195.3,45.8 Z M178,57.8 C177.3,57.7 176.7,57.8 176.2,58.2 C175.8,58.5 175.5,58.9 175.3,59.5 L174.4,57.5 L177,55.7 L176.5,54.9 L173.3,57.1 L175,60.9 L175.8,60.5 C175.8,60.2 175.8,60 176,59.7 C176.1,59.4 176.3,59.2 176.6,59 C177,58.7 177.4,58.6 177.9,58.7 C178.3,58.8 178.7,59.1 179,59.5 C179.3,60 179.5,60.4 179.4,60.9 C179.3,61.4 179.1,61.7 178.7,62 C178.4,62.2 178,62.3 177.7,62.3 C177.3,62.3 177,62 176.6,61.7 L175.8,62.4 C176.2,62.9 176.7,63.2 177.4,63.3 C178,63.4 178.6,63.2 179.2,62.8 C179.9,62.3 180.3,61.6 180.3,60.8 C180.3,60.1 180.2,59.5 179.8,58.9 C179.2,58.3 178.7,58 178,57.8 L178,57.8 L178,57.8 Z M169.8,59.4 C169.9,59.8 169.8,60.2 169.7,60.8 C169.6,61.3 169.4,61.9 169.1,62.4 L169.6,63.2 C169.8,62.9 170,62.6 170.1,62.2 C170.3,61.8 170.4,61.4 170.5,61.1 L174,66.1 L174.8,65.5 L170.3,59 L169.8,59.4 L169.8,59.4 Z M185.2,48.7 L186.8,54.3 C187,54.9 187.1,55.3 187.2,55.6 C187,55.4 186.7,55.2 186.2,54.9 L181.5,51.4 L180.2,52.3 L184.7,58.8 L185.5,58.2 L181.7,52.7 L187.4,56.9 L188.2,56.4 L186.3,49.7 L190.1,55.1 L190.9,54.5 L186.4,48 L185.2,48.7 L185.2,48.7 Z M229.8,20.1 L228.8,20.8 L228.3,24 L225.7,20.3 L224.9,20.9 L229.4,27.3 L230.2,26.7 L228.9,24.8 L229.1,23.9 L232.3,25.2 L233.3,24.5 L229.3,22.9 L229.8,20.1 L229.8,20.1 Z M235.5,23.1 C235.3,22.1 234.9,21.3 234.3,20.5 C233.8,19.8 233.2,19.2 232.6,18.7 C231.8,18.1 230.9,17.7 229.8,17.3 L229.2,17.7 C230,18.1 230.5,18.3 230.8,18.5 C231.3,18.8 231.7,19.1 232.1,19.5 C232.6,20 233.1,20.5 233.4,21 C234.4,22.4 234.9,24.1 235,26.1 L235.6,25.7 C235.8,24.9 235.7,24 235.5,23.1 L235.5,23.1 L235.5,23.1 Z M222.8,22.4 L227.3,28.9 L228.1,28.3 L223.6,21.8 L222.8,22.4 L222.8,22.4 Z M216.6,26.7 L218.5,31.6 C218.7,32.2 219,32.8 219.2,33.2 C218.6,32.6 217.9,31.9 217.1,31.3 L213.9,28.7 L212.9,29.4 L214.7,34.6 C214.7,34.7 214.9,35.2 215.2,36 C214.8,35.6 214.4,35.2 214,34.9 L210.1,31.4 L209.2,32 L215.4,37.3 L216.3,36.7 L214.2,30.8 C214.1,30.6 214,30.3 213.9,29.9 C214,30 214.2,30.2 214.6,30.5 L219.4,34.5 L220.2,33.9 L217.5,26.2 L216.6,26.7 L216.6,26.7 Z M224.8,27.7 L224.1,26.6 C223.9,26.2 223.7,26 223.5,25.9 C223.3,25.7 223.1,25.6 222.9,25.5 C222.7,25.4 222.4,25.4 222.1,25.5 C221.8,25.6 221.4,25.8 221,26 C220.6,26.3 220.3,26.6 220.1,26.9 C219.9,27.2 219.7,27.5 219.7,27.9 C219.7,28.2 219.8,28.6 219.9,28.9 L220.7,28.5 C220.6,28.1 220.5,27.8 220.6,27.5 C220.7,27.2 220.9,27 221.3,26.7 C221.7,26.4 222.1,26.3 222.4,26.3 C222.6,26.3 222.9,26.5 223.1,26.8 C223.1,26.8 223.2,26.9 223.2,27 C223,27.3 222.6,27.7 222,28.3 L221.4,28.9 C221.2,29.1 221.1,29.3 221,29.6 C220.9,29.8 220.9,30.1 220.9,30.3 C220.9,30.6 221,30.8 221.2,31 C221.5,31.4 221.8,31.6 222.3,31.7 C222.8,31.8 223.2,31.6 223.7,31.2 C224,31 224.3,30.7 224.5,30.4 C224.7,30.1 224.9,29.7 225,29.3 C225.2,29.5 225.4,29.7 225.6,29.8 L226.4,29.2 C226.2,29.1 226,29 225.8,28.8 C225.6,28.9 225.3,28.4 224.8,27.7 L224.8,27.7 L224.8,27.7 Z M224.2,30 C224.1,30.3 223.8,30.6 223.5,30.8 C223.2,31 222.9,31.1 222.7,31.1 C222.4,31.1 222.2,31 222.1,30.7 C222,30.6 222,30.4 221.9,30.2 C221.9,30 221.9,29.9 222,29.7 C222.1,29.5 222.3,29.3 222.6,29.1 C223.1,28.6 223.5,28.2 223.7,27.9 L223.9,28.2 C224.1,28.5 224.3,28.8 224.3,29.1 C224.4,29.3 224.3,29.7 224.2,30 L224.2,30 L224.2,30 Z M208.8,39.5 C208.9,39.9 208.9,40.3 208.8,40.6 C208.7,40.9 208.5,41.1 208.2,41.3 C207.8,41.6 207.4,41.7 206.9,41.6 C206.4,41.5 206,41.2 205.6,40.7 L209.1,38.3 C209,38.2 209,38.1 209,38.1 C208.5,37.3 207.8,36.9 207.1,36.7 C206.4,36.6 205.7,36.7 205.1,37.1 C204.5,37.6 204.1,38.1 204,38.9 C203.9,39.6 204.1,40.4 204.7,41.2 C205.2,42 205.8,42.4 206.5,42.6 C207.2,42.7 207.9,42.6 208.6,42.1 C209.1,41.7 209.5,41.3 209.7,40.8 C209.9,40.3 209.8,39.8 209.6,39.2 L208.8,39.5 L208.8,39.5 Z M205,38.8 C205.1,38.4 205.3,38 205.7,37.8 C206.1,37.5 206.5,37.4 207,37.6 C207.3,37.7 207.6,37.9 207.9,38.3 L205.3,40.1 C205,39.7 205,39.2 205,38.8 L205,38.8 L205,38.8 Z M188.9,48.8 L192.2,53.5 L193,52.9 L189.7,48.2 L188.9,48.8 L188.9,48.8 Z M167.3,31.6 L167.7,32.2 L168.3,31.8 L170.2,34.5 C170.5,35 170.8,35.3 171,35.4 C171.2,35.5 171.4,35.5 171.6,35.5 C171.8,35.5 172.1,35.4 172.4,35.2 C172.6,35.1 172.8,34.9 172.9,34.7 L172.3,34.1 L172,34.4 C171.9,34.5 171.8,34.5 171.7,34.5 C171.6,34.5 171.5,34.5 171.5,34.4 C171.4,34.4 171.3,34.2 171.2,34 L169.3,31.3 L170.1,30.7 L169.7,30.1 L168.9,30.7 L167.8,29.1 L167.3,30.1 L168.1,31.3 L167.3,31.6 L167.3,31.6 Z M173.5,33.5 C174.2,33.6 174.9,33.5 175.5,33 C175.9,32.7 176.2,32.4 176.4,31.9 C176.6,31.5 176.7,31 176.6,30.5 C176.5,30 176.3,29.5 175.9,28.9 C175.4,28.2 174.8,27.7 174.1,27.6 C173.4,27.5 172.7,27.6 172.1,28.1 C171.5,28.5 171.2,29 171,29.6 C170.8,30.4 171,31.2 171.6,32 C172.2,32.9 172.8,33.4 173.5,33.5 L173.5,33.5 L173.5,33.5 Z M172.6,28.8 C173,28.5 173.4,28.4 173.9,28.6 C174.4,28.7 174.8,29.1 175.2,29.6 C175.6,30.2 175.8,30.8 175.8,31.2 C175.7,31.7 175.5,32.1 175.1,32.3 C174.7,32.6 174.3,32.7 173.8,32.5 C173.3,32.4 172.9,32 172.5,31.4 C172.1,30.8 171.9,30.3 172,29.8 C171.9,29.4 172.2,29.1 172.6,28.8 L172.6,28.8 L172.6,28.8 Z M187,24.8 L185.4,22.6 L185.7,20.8 L190.3,22.5 L191.4,21.7 L185.9,19.8 L186.8,15.3 L185.6,16.1 L184.6,21.5 L182.4,18.3 L181.5,18.9 L186,25.4 L187,24.8 L187,24.8 Z M179.4,30.2 L177.6,27.6 C177.2,27 177,26.5 177.1,26.1 C177.2,25.7 177.4,25.4 177.7,25.2 C177.9,25.1 178.1,25 178.4,25 C178.6,25 178.8,25 179,25.2 C179.2,25.3 179.4,25.5 179.6,25.9 L181.6,28.7 L182.4,28.1 L180.4,25.2 C180.1,24.8 179.9,24.6 179.8,24.5 C179.6,24.3 179.4,24.2 179.1,24.1 C178.9,24 178.6,24 178.3,24.1 C178,24.2 177.7,24.3 177.4,24.5 C176.8,25 176.4,25.6 176.5,26.3 L176,25.6 L175.3,26.1 L178.6,30.8 L179.4,30.2 L179.4,30.2 Z M198.5,17.1 C198.6,17.5 198.7,17.7 198.7,17.9 C198.7,18.1 198.7,18.2 198.6,18.3 C198.5,18.4 198.4,18.6 198.2,18.7 C198.1,18.8 197.9,18.9 197.7,18.9 L198.3,19.6 L198.9,19.3 C199.2,19.1 199.3,18.9 199.4,18.7 C199.5,18.5 199.5,18.1 199.5,17.8 C199.5,17.5 199.4,17.1 199.2,16.4 L197.7,10.4 L196.9,11 L197.8,14.4 C197.9,14.8 198.1,15.3 198.2,15.7 C197.8,15.4 197.5,15.1 197.1,14.9 L194.2,12.9 L193.3,13.5 L198.4,16.9 C198.5,16.9 198.5,17 198.5,17.1 L198.5,17.1 L198.5,17.1 Z M192.1,20.5 C192.8,20.6 193.5,20.5 194.2,20 C194.7,19.6 195.1,19.2 195.3,18.7 C195.5,18.2 195.4,17.7 195.2,17.1 L194.3,17.6 C194.4,18 194.4,18.4 194.3,18.7 C194.2,19 194,19.2 193.7,19.4 C193.3,19.7 192.9,19.8 192.4,19.7 C191.9,19.6 191.5,19.3 191.1,18.8 L194.6,16.4 C194.5,16.3 194.5,16.2 194.5,16.2 C194,15.4 193.3,15 192.6,14.8 C191.9,14.7 191.2,14.8 190.6,15.2 C190,15.7 189.6,16.2 189.5,17 C189.4,17.7 189.6,18.5 190.2,19.3 C190.7,19.9 191.4,20.4 192.1,20.5 L192.1,20.5 L192.1,20.5 Z M190.5,16.8 C190.6,16.4 190.8,16 191.2,15.8 C191.6,15.5 192,15.4 192.5,15.6 C192.8,15.7 193.1,15.9 193.4,16.3 L190.8,18.1 C190.5,17.6 190.4,17.2 190.5,16.8 L190.5,16.8 L190.5,16.8 Z M164.9,52.6 C164.5,52 164.3,51.5 164.4,51.1 C164.5,50.7 164.7,50.4 165,50.2 C165.2,50.1 165.4,50 165.7,50 C165.9,50 166.1,50 166.3,50.2 C166.5,50.3 166.7,50.5 166.9,50.9 L168.9,53.7 L169.7,53.1 L167.7,50.2 C167.4,49.8 167.2,49.6 167.1,49.5 C166.9,49.3 166.7,49.2 166.4,49.1 C166.2,49 165.9,49 165.6,49.1 C165.3,49.2 165,49.3 164.7,49.5 C164.1,50 163.7,50.6 163.8,51.3 L163.3,50.6 L162.6,51.1 L165.9,55.8 L166.7,55.2 L164.9,52.6 L164.9,52.6 Z M169.8,36.8 L165.3,30.3 L164.5,30.9 L169,37.4 L169.8,36.8 L169.8,36.8 Z M168.2,66.7 C167.8,66.1 167.5,65.6 167.2,64.9 C167,64.4 166.8,63.9 166.7,63.3 C166.6,63 166.6,62.4 166.5,61.5 L166,62 C166,63.1 166.1,64.1 166.3,65.1 C166.5,65.9 166.9,66.6 167.4,67.3 C168,68.1 168.6,68.8 169.5,69.3 C170.3,69.8 171.1,70.2 172,70.5 L172.6,70.1 C170.6,69.2 169.2,68.1 168.2,66.7 L168.2,66.7 L168.2,66.7 Z M157.5,58.2 C157.8,58.8 157.8,59.4 157.7,59.9 C157.6,60.4 157.3,60.8 156.8,61.2 C156.4,61.5 156,61.6 155.5,61.7 C155,61.7 154.6,61.6 154.1,61.3 C153.7,61 153.2,60.6 152.9,60 C152.6,59.6 152.4,59.1 152.2,58.6 C152.1,58.1 152.1,57.6 152.2,57.2 C152.4,56.7 152.7,56.3 153.2,56 C153.6,55.7 154.1,55.6 154.5,55.6 C154.9,55.6 155.4,55.8 155.9,56.2 L156.6,55.4 C156,54.9 155.4,54.7 154.7,54.7 C154,54.7 153.4,54.9 152.7,55.3 C152.1,55.7 151.7,56.2 151.4,56.8 C151.1,57.4 151,58 151.1,58.7 C151.2,59.4 151.5,60.1 151.9,60.7 C152.3,61.3 152.8,61.8 153.5,62.2 C154.1,62.6 154.7,62.8 155.4,62.7 C156,62.7 156.7,62.4 157.4,61.9 C158.1,61.4 158.5,60.8 158.7,60.2 C158.9,59.5 158.9,58.7 158.5,57.9 L157.5,58.2 L157.5,58.2 Z M163,55.5 C163.1,55.9 163.1,56.3 163,56.6 C162.9,56.9 162.7,57.1 162.4,57.3 C162,57.6 161.6,57.7 161.1,57.6 C160.6,57.5 160.2,57.2 159.8,56.7 L163.3,54.3 C163.2,54.2 163.2,54.1 163.2,54.1 C162.7,53.3 162,52.9 161.3,52.7 C160.6,52.6 159.9,52.7 159.3,53.1 C158.7,53.6 158.3,54.1 158.2,54.9 C158.1,55.6 158.3,56.4 158.9,57.2 C159.4,58 160,58.4 160.7,58.6 C161.4,58.7 162.1,58.6 162.8,58.1 C163.3,57.7 163.7,57.3 163.9,56.8 C164.1,56.3 164,55.8 163.8,55.2 L163,55.5 L163,55.5 Z M159.2,54.8 C159.3,54.4 159.5,54 159.9,53.8 C160.3,53.5 160.7,53.4 161.2,53.6 C161.5,53.7 161.8,53.9 162.1,54.3 L159.5,56.1 C159.2,55.6 159.1,55.2 159.2,54.8 L159.2,54.8 L159.2,54.8 Z M164,32.7 L163.4,31.8 L162.6,32.4 L163.2,33.3 L164,32.7 L164,32.7 Z M160.4,43.4 L156.6,37.9 L162.3,42.1 L163.1,41.6 L161.2,34.9 L165,40.3 L165.8,39.7 L161.3,33.3 L160.2,34.1 L161.8,39.7 C162,40.3 162.1,40.7 162.2,41 C162,40.8 161.7,40.6 161.2,40.3 L156.5,36.8 L155.2,37.7 L159.7,44.2 L160.4,43.4 L160.4,43.4 Z M160.4,43.4" class="Shape"/>
            <path d="M331.4,53.8 L328.1,58.5 L328.9,59.1 L330.7,56.5 C331.1,55.9 331.5,55.6 331.9,55.5 C332.3,55.5 332.7,55.6 333,55.8 C333.2,55.9 333.4,56.1 333.5,56.3 C333.6,56.5 333.6,56.7 333.6,56.9 C333.5,57.1 333.4,57.4 333.2,57.7 L331.2,60.5 L332,61.1 L334,58.2 C334.3,57.8 334.4,57.6 334.5,57.4 C334.6,57.1 334.7,56.9 334.7,56.6 C334.7,56.4 334.6,56.1 334.4,55.8 C334.2,55.5 334,55.3 333.7,55.1 C333.1,54.6 332.4,54.6 331.7,54.8 L332.2,54.1 L331.4,53.8 L331.4,53.8 Z M327.5,57 L323.5,54.2 L325,52 L328.6,54.5 L329.1,53.7 L325.5,51.2 L326.9,49.2 L330.7,51.9 L331.2,51.1 L326.5,47.8 L322,54.3 L326.8,57.7 L327.5,57 L327.5,57 Z M319.9,67.8 L319.9,67.6 C319.9,67.5 320,67.4 320.2,67.1 L322.1,64.4 L322.9,65 L323.3,64.4 L322.5,63.8 L323.6,62.2 L322.5,62.1 L321.7,63.3 L321.1,62.9 L320.7,63.5 L321.3,63.9 L319.4,66.6 C319.1,67.1 318.9,67.4 318.8,67.6 C318.8,67.8 318.8,68 318.9,68.2 C319,68.4 319.2,68.6 319.5,68.8 L320.1,69.1 L320.5,68.3 C320.3,68.2 320.2,68.1 320.1,68.1 C320,67.9 319.9,67.9 319.9,67.8 L319.9,67.8 L319.9,67.8 Z M327.2,68 C327.3,67.7 327.2,67.4 327,67.1 C326.8,66.8 326.6,66.5 326.2,66.3 C325.6,65.9 325,65.8 324.4,66 L326,63.7 L325.2,63.1 L320.7,69.6 L321.5,70.2 L323.3,67.6 C323.6,67.2 323.8,67 324,66.8 C324.2,66.7 324.5,66.6 324.8,66.6 C325.1,66.6 325.4,66.7 325.6,66.9 C325.9,67.1 326.1,67.4 326.1,67.7 C326.1,68 326,68.3 325.8,68.7 L323.7,71.7 L324.5,72.3 L326.6,69.3 C327,68.7 327.2,68.3 327.2,68 L327.2,68 L327.2,68 Z M349.3,72.6 C349.4,73.3 349.8,73.9 350.4,74.3 C350.9,74.7 351.4,74.8 352,74.7 C352.6,74.6 353.1,74.4 353.5,73.9 L352.8,73.3 C352.5,73.7 352.1,73.9 351.8,73.9 C351.5,73.9 351.1,73.9 350.8,73.6 C350.4,73.3 350.2,73 350.2,72.5 C350.2,72 350.4,71.5 350.8,70.9 C351.2,70.3 351.7,69.9 352.1,69.8 C352.5,69.7 353,69.8 353.4,70.1 C353.7,70.3 353.8,70.5 353.9,70.8 C354,71.1 353.9,71.4 353.8,71.8 L354.7,72.2 C354.9,71.7 355,71.2 354.8,70.7 C354.7,70.2 354.3,69.8 353.8,69.4 C353.4,69.1 353,69 352.5,68.9 C352,68.8 351.6,69 351.1,69.2 C350.7,69.5 350.3,69.8 349.9,70.3 C349.5,71.2 349.2,71.9 349.3,72.6 L349.3,72.6 L349.3,72.6 Z M363.7,79.1 L366.7,81.2 L367.2,80.4 L364.2,78.3 L365.6,76.3 L369.1,78.7 L369.6,77.9 L365.2,74.9 L360.7,81.3 L361.6,81.9 L363.7,79.1 L363.7,79.1 Z M334.2,60.7 C333.9,61.2 333.7,61.5 333.6,61.7 C333.6,61.9 333.6,62.1 333.7,62.3 C333.8,62.5 334,62.7 334.3,62.9 L334.9,63.2 L335.3,62.4 C335.1,62.3 335,62.2 334.9,62.2 L334.7,62 L334.7,61.8 C334.7,61.7 334.8,61.6 335,61.3 L336.9,58.6 L337.7,59.2 L338.1,58.6 L337.3,58 L338.4,56.4 L337.3,56.3 L336.5,57.5 L335.9,57.1 L335.5,57.7 L336.1,58.1 L334.2,60.7 L334.2,60.7 Z M369.4,80.5 L366.1,85.2 L366.9,85.8 L368.6,83.4 C368.8,83.1 369.1,82.8 369.4,82.6 C369.6,82.5 369.8,82.4 370,82.4 C370.2,82.4 370.4,82.4 370.6,82.6 C370.8,82.7 370.9,82.9 371.1,83.2 L371.9,82.7 C371.7,82.3 371.5,82.1 371.3,81.9 C371.1,81.8 370.9,81.7 370.7,81.7 C370.5,81.7 370.2,81.8 369.7,82 L370.2,81.3 L369.4,80.5 L369.4,80.5 Z M336.4,64.3 L338.1,61.9 C338.3,61.6 338.6,61.3 338.9,61.1 C339.1,61 339.3,60.9 339.5,60.9 C339.7,60.9 339.9,61 340.1,61.1 C340.3,61.2 340.4,61.4 340.6,61.7 L341.4,61.2 C341.2,60.8 341,60.6 340.8,60.4 C340.6,60.3 340.4,60.2 340.2,60.2 C340,60.2 339.7,60.3 339.2,60.5 L339.7,59.8 L339,59.3 L335.7,64 L336.4,64.3 L336.4,64.3 Z M341.5,63.1 C341.8,62.8 342.1,62.7 342.4,62.7 C342.7,62.7 343,62.8 343.4,63.1 C343.8,63.4 344,63.7 344.1,64 C344.2,64.2 344.1,64.5 343.8,64.8 C343.8,64.8 343.7,64.9 343.7,65 C343.3,64.9 342.8,64.7 342.1,64.3 C341.8,64.1 341.5,64 341.3,63.9 C341,63.8 340.8,63.8 340.5,63.8 C340.3,63.8 340,63.9 339.8,64 C339.6,64.1 339.4,64.3 339.2,64.5 C338.9,64.9 338.8,65.3 338.9,65.8 C339,66.2 339.3,66.6 339.8,67 C340.1,67.2 340.4,67.4 340.8,67.5 C341.1,67.6 341.5,67.6 342,67.6 C341.9,67.8 341.8,68.1 341.8,68.3 L342.6,68.9 C342.6,68.7 342.7,68.4 342.8,68.2 C342.9,68 343.2,67.5 343.7,66.8 L344.4,65.7 C344.6,65.3 344.8,65.1 344.9,64.9 C345,64.7 345,64.4 345,64.2 C345,64 344.9,63.7 344.7,63.5 C344.5,63.2 344.2,63 343.8,62.7 C343.4,62.4 343,62.2 342.6,62.1 C342.2,62 341.9,62 341.6,62.1 C341.3,62.2 341,62.4 340.7,62.7 L341.5,63.1 L341.5,63.1 Z M343,65.9 C342.8,66.2 342.5,66.5 342.3,66.6 C342,66.8 341.7,66.8 341.4,66.8 C341.1,66.8 340.8,66.6 340.4,66.4 C340.1,66.2 339.9,66 339.8,65.7 C339.7,65.4 339.8,65.2 339.9,65 C340,64.9 340.1,64.8 340.3,64.7 C340.5,64.6 340.6,64.6 340.8,64.7 C341,64.7 341.2,64.8 341.6,65 C342.2,65.3 342.7,65.5 343.1,65.6 L343,65.9 L343,65.9 Z M344.4,69.9 L346.2,67.3 C346.6,66.7 347,66.4 347.4,66.3 C347.8,66.3 348.2,66.4 348.5,66.6 C348.7,66.7 348.9,66.9 348.9,67.1 C349,67.3 349,67.5 349,67.7 C348.9,67.9 348.8,68.2 348.6,68.5 L346.6,71.3 L347.4,71.9 L349.4,69 C349.7,68.6 349.8,68.4 349.9,68.2 C350,67.9 350.1,67.7 350.1,67.4 C350.1,67.2 350,66.9 349.8,66.6 C349.6,66.3 349.4,66.1 349.1,65.9 C348.5,65.4 347.8,65.4 347.1,65.6 L347.6,64.9 L346.9,64.4 L343.6,69.1 L344.4,69.9 L344.4,69.9 Z M352.3,85.6 C352.5,85.7 352.6,85.9 352.8,86.2 L353.6,85.7 C353.4,85.3 353.2,85.1 353,84.9 C352.8,84.8 352.6,84.7 352.4,84.7 C352.2,84.7 351.9,84.8 351.4,85 L351.9,84.3 L351.2,83.8 L347.9,88.5 L348.7,89.1 L350.4,86.7 C350.6,86.4 350.9,86.1 351.2,85.9 C351.4,85.8 351.6,85.7 351.8,85.7 C351.9,85.5 352.1,85.5 352.3,85.6 L352.3,85.6 L352.3,85.6 Z M332.1,71.3 C332,70.6 331.6,70 331,69.6 C330.4,69.1 329.7,69 329,69.1 C328.3,69.3 327.7,69.7 327.1,70.5 C326.6,71.3 326.4,72 326.5,72.7 C326.6,73.4 327,74 327.7,74.5 C328.2,74.9 328.8,75.1 329.3,75 C329.8,75 330.3,74.8 330.8,74.4 L330.1,73.7 C329.7,73.9 329.4,74.1 329.1,74.1 C328.8,74.1 328.5,74 328.2,73.8 C327.8,73.5 327.6,73.2 327.5,72.7 C327.4,72.2 327.6,71.8 327.9,71.2 L331.4,73.6 C331.5,73.5 331.5,73.4 331.6,73.4 C332,72.7 332.2,72 332.1,71.3 L332.1,71.3 L332.1,71.3 Z M330.9,72.4 L328.3,70.6 C328.6,70.2 329,70 329.4,69.9 C329.8,69.8 330.2,69.9 330.6,70.2 C331,70.5 331.2,70.9 331.3,71.3 C331.3,71.7 331.2,72 330.9,72.4 L330.9,72.4 L330.9,72.4 Z M367.4,95.6 C367.3,95.2 367.1,94.8 366.6,94.5 C366,94.1 365.3,94 364.6,94.3 C364.7,94 364.7,93.7 364.6,93.4 C364.5,93.1 364.2,92.8 363.9,92.6 C363.6,92.4 363.3,92.3 362.9,92.2 C362.6,92.2 362.2,92.2 361.9,92.3 L362.4,91.6 L361.7,91.1 L358.4,95.8 L359.2,96.4 L360.9,94 C361.2,93.6 361.5,93.3 361.7,93.1 C361.9,92.9 362.2,92.9 362.5,92.9 C362.8,92.9 363,93 363.2,93.2 C363.5,93.4 363.6,93.6 363.6,93.9 C363.6,94.2 363.5,94.5 363.2,94.8 L361.1,97.8 L361.9,98.4 L363.8,95.7 C364.1,95.2 364.5,94.9 364.9,94.9 C365.3,94.9 365.6,94.9 365.9,95.1 C366.1,95.2 366.2,95.4 366.3,95.6 C366.4,95.8 366.4,96 366.3,96.1 C366.3,96.3 366.1,96.5 365.9,96.8 L363.8,99.7 L364.6,100.3 L366.8,97.1 C367.3,96.5 367.4,96 367.4,95.6 L367.4,95.6 L367.4,95.6 Z M358.7,90.4 L359.6,91 L360.2,90.1 L359.3,89.5 L358.7,90.4 L358.7,90.4 Z M383.2,90.5 C383.1,90.1 382.9,89.7 382.4,89.4 C381.8,89 381.1,88.9 380.4,89.2 C380.5,88.9 380.5,88.6 380.4,88.3 C380.3,88 380,87.7 379.7,87.5 C379.4,87.3 379.1,87.2 378.7,87.1 C378.4,87.1 378,87.1 377.7,87.2 L378.2,86.5 L377.5,86 L374.2,90.7 L375,91.3 L376.7,88.9 C377,88.5 377.3,88.2 377.5,88 C377.7,87.8 378,87.8 378.3,87.8 C378.6,87.8 378.8,87.9 379,88.1 C379.3,88.3 379.4,88.5 379.4,88.8 C379.4,89.1 379.3,89.4 379,89.7 L376.9,92.7 L377.7,93.3 L379.6,90.6 C379.9,90.1 380.3,89.8 380.7,89.8 C381.1,89.7 381.4,89.8 381.7,90 C381.9,90.1 382,90.3 382.1,90.5 C382.2,90.7 382.2,90.9 382.1,91 C382.1,91.2 381.9,91.4 381.7,91.7 L379.6,94.6 L380.4,95.2 L382.6,92 C383.1,91.4 383.3,91 383.2,90.5 L383.2,90.5 L383.2,90.5 Z M356.4,77.2 C356.1,77.2 355.8,77.1 355.5,76.9 C355.1,76.6 354.9,76.3 354.8,75.8 C354.7,75.3 354.9,74.9 355.2,74.3 L358.7,76.7 C358.8,76.6 358.8,76.5 358.9,76.5 C359.4,75.7 359.7,75 359.6,74.3 C359.5,73.6 359.1,73 358.5,72.6 C357.9,72.1 357.2,72 356.5,72.1 C355.8,72.2 355.2,72.7 354.6,73.5 C354.1,74.3 353.9,75 354,75.7 C354.1,76.4 354.5,77 355.2,77.5 C355.7,77.9 356.3,78.1 356.8,78 C357.3,78 357.8,77.8 358.3,77.4 L357.6,76.7 C357,77 356.7,77.1 356.4,77.2 L356.4,77.2 L356.4,77.2 Z M356.8,73 C357.2,72.9 357.6,73 358,73.3 C358.4,73.6 358.6,74 358.7,74.4 C358.7,74.7 358.6,75.1 358.4,75.5 L355.8,73.7 C356,73.3 356.4,73 356.8,73 L356.8,73 L356.8,73 Z M374.9,87.7 C375.4,87 375.6,86.2 375.5,85.5 C375.4,84.8 375,84.2 374.4,83.8 C373.8,83.4 373.2,83.2 372.6,83.3 C371.8,83.4 371.1,83.9 370.5,84.7 C369.9,85.5 369.7,86.2 369.8,86.9 C369.9,87.6 370.3,88.2 370.9,88.6 C371.3,88.9 371.8,89.1 372.2,89.1 C372.7,89.2 373.1,89.1 373.6,88.8 C374.1,88.7 374.5,88.3 374.9,87.7 L374.9,87.7 L374.9,87.7 Z M372.7,88.3 C372.2,88.4 371.8,88.3 371.4,88.1 C371,87.8 370.8,87.4 370.7,87 C370.6,86.5 370.8,86 371.3,85.4 C371.7,84.8 372.2,84.4 372.6,84.3 C373.1,84.2 373.5,84.3 373.9,84.5 C374.3,84.8 374.5,85.1 374.6,85.6 C374.7,86.1 374.5,86.6 374.1,87.2 C373.7,87.8 373.2,88.2 372.7,88.3 L372.7,88.3 L372.7,88.3 Z M368.6,98.8 L371.2,95.1 L370.4,94.5 L365.9,100.9 L366.7,101.5 L368,99.6 L368.9,99.5 L368.8,103 L369.8,103.7 L369.9,99.4 L372.9,98.9 L371.9,98.2 L368.6,98.8 L368.6,98.8 Z M338.5,80.8 C338.2,80.8 337.9,80.7 337.6,80.5 C337.2,80.2 337,79.9 336.9,79.4 C336.8,78.9 337,78.4 337.3,77.9 L340.8,80.3 C340.9,80.2 340.9,80.1 341,80.1 C341.5,79.3 341.8,78.6 341.7,77.9 C341.6,77.2 341.2,76.6 340.6,76.2 C340,75.7 339.3,75.6 338.6,75.7 C337.9,75.9 337.3,76.3 336.7,77.1 C336.2,77.9 336,78.6 336.1,79.3 C336.2,80 336.6,80.6 337.3,81.1 C337.8,81.5 338.4,81.7 338.9,81.6 C339.4,81.6 339.9,81.4 340.4,81 L339.7,80.3 C339.2,80.6 338.9,80.8 338.5,80.8 L338.5,80.8 L338.5,80.8 Z M338.9,76.6 C339.3,76.5 339.7,76.6 340.1,76.9 C340.5,77.2 340.7,77.6 340.8,78 C340.8,78.3 340.7,78.7 340.5,79.1 L337.9,77.3 C338.2,76.9 338.5,76.7 338.9,76.6 L338.9,76.6 L338.9,76.6 Z M334.3,73.5 C334.8,73.4 335.2,73.5 335.6,73.8 C335.9,74 336,74.2 336.1,74.5 C336.2,74.8 336.1,75.1 336,75.5 L336.9,75.9 C337.1,75.4 337.2,74.9 337,74.4 C336.9,73.9 336.5,73.5 336,73.1 C335.6,72.8 335.2,72.7 334.7,72.6 C334.2,72.5 333.8,72.7 333.3,72.9 C332.9,73.2 332.5,73.5 332.1,74 C331.6,74.8 331.3,75.5 331.4,76.2 C331.5,76.9 331.9,77.5 332.5,77.9 C333,78.3 333.5,78.4 334.1,78.3 C334.7,78.2 335.2,78 335.6,77.5 L334.9,76.9 C334.6,77.3 334.2,77.5 333.9,77.5 C333.6,77.5 333.2,77.5 332.9,77.2 C332.5,76.9 332.3,76.6 332.3,76.1 C332.3,75.6 332.5,75.1 332.9,74.5 C333.4,73.9 333.9,73.6 334.3,73.5 L334.3,73.5 L334.3,73.5 Z M356.1,94.2 L357,94.8 L357.6,93.9 L356.7,93.3 L356.1,94.2 L356.1,94.2 Z M346.6,82.1 C346.7,81.8 346.8,81.6 346.8,81.3 C346.8,81.1 346.7,80.8 346.5,80.5 C346.3,80.2 346.1,80 345.8,79.8 C345.2,79.3 344.5,79.3 343.8,79.5 L344.3,78.8 L343.6,78.3 L340.3,83 L341.1,83.6 L342.9,81 C343.3,80.4 343.7,80.1 344.1,80 C344.5,80 344.9,80.1 345.2,80.3 C345.4,80.4 345.6,80.6 345.7,80.8 C345.8,81 345.8,81.2 345.8,81.4 C345.7,81.6 345.6,81.9 345.4,82.2 L343.4,85 L344.2,85.6 L346.2,82.7 C346.4,82.6 346.5,82.3 346.6,82.1 L346.6,82.1 L346.6,82.1 Z M354.1,91.6 C353.8,91.6 353.5,91.5 353.2,91.3 C352.8,91 352.6,90.7 352.5,90.2 C352.4,89.7 352.6,89.3 352.9,88.7 L356.4,91.1 C356.5,91 356.5,90.9 356.6,90.9 C357.1,90.1 357.4,89.4 357.3,88.7 C357.2,88 356.8,87.4 356.2,87 C355.6,86.5 354.9,86.4 354.2,86.5 C353.5,86.7 352.9,87.1 352.3,87.9 C351.8,88.7 351.6,89.4 351.7,90.1 C351.8,90.8 352.2,91.4 352.9,91.9 C353.4,92.3 354,92.5 354.5,92.4 C355,92.4 355.5,92.2 356,91.8 L355.3,91.1 C354.7,91.5 354.4,91.6 354.1,91.6 L354.1,91.6 L354.1,91.6 Z M354.5,87.5 C354.9,87.4 355.3,87.5 355.7,87.8 C356.1,88.1 356.3,88.5 356.4,88.9 C356.4,89.2 356.3,89.6 356.1,90 L353.5,88.2 C353.7,87.8 354.1,87.5 354.5,87.5 L354.5,87.5 L354.5,87.5 Z M346.9,86.7 L346.9,86.5 C346.9,86.4 347,86.3 347.2,86 L349.1,83.3 L349.9,83.9 L350.3,83.3 L349.5,82.7 L350.6,81.1 L349.5,81 L348.7,82.2 L348.1,81.8 L347.7,82.4 L348.3,82.8 L346.4,85.5 C346.1,86 345.9,86.3 345.8,86.5 C345.8,86.7 345.8,86.9 345.9,87.1 C346,87.3 346.2,87.5 346.5,87.7 L347.1,88 L347.5,87.2 C347.3,87.1 347.2,87 347.1,87 C347.1,86.9 347,86.8 346.9,86.7 L346.9,86.7 L346.9,86.7 Z M346.9,86.7" class="Shape"/>
            <path d="M33.6,69.2 L28.8,69.2 L28.8,65.3 L32.7,65.3 C33.1,65.3 33.3,65 33.3,64.7 C33.3,64.4 33.1,64.1 32.7,64.1 L28.8,64.1 L28.8,60.4 L33.4,60.4 C33.8,60.4 34,60.1 34,59.8 C34,59.5 33.8,59.2 33.4,59.2 L28.6,59.2 C27.9,59.2 27.5,59.6 27.5,60.2 L27.5,69.5 C27.5,70.1 27.9,70.5 28.6,70.5 L33.5,70.5 C33.9,70.5 34.1,70.2 34.1,69.9 C34.2,69.5 34,69.2 33.6,69.2 L33.6,69.2 L33.6,69.2 Z M25.3,59.2 C25,59.2 24.8,59.4 24.7,59.7 C23.4,65.6 22.3,68.2 21.6,69.3 C20.9,68.2 19.8,65.6 18.5,59.7 C18.4,59.4 18.2,59.2 17.9,59.2 C17.5,59.2 17.3,59.4 17.3,59.8 C17.3,59.9 17.3,60.1 17.4,60.3 C18.5,64.8 19.2,67.1 20.1,68.9 C20.7,70.1 21.1,70.5 21.6,70.5 C22.2,70.5 22.5,70.1 23.1,68.9 C24,67.1 24.7,64.8 25.8,60.3 C25.8,60.1 25.9,59.9 25.9,59.8 C25.9,59.4 25.7,59.2 25.3,59.2 L25.3,59.2 L25.3,59.2 Z M15.5,69.2 L10.7,69.2 L10.7,65.3 L14.6,65.3 C15,65.3 15.2,65 15.2,64.7 C15.2,64.4 15,64.1 14.6,64.1 L10.7,64.1 L10.7,60.4 L15.3,60.4 C15.7,60.4 15.9,60.1 15.9,59.8 C15.9,59.5 15.7,59.2 15.3,59.2 L10.5,59.2 C9.8,59.2 9.4,59.6 9.4,60.2 L9.4,69.5 C9.4,70.1 9.8,70.5 10.5,70.5 L15.4,70.5 C15.8,70.5 16,70.2 16,69.9 C16.2,69.5 15.9,69.2 15.5,69.2 L15.5,69.2 L15.5,69.2 Z M7.5,69.2 L3.2,69.2 L3.2,59.8 C3.2,59.4 2.9,59.1 2.6,59.1 C2.3,59.1 2,59.4 2,59.8 L2,69.4 C2,70 2.4,70.4 3.1,70.4 L7.6,70.4 C8,70.4 8.3,70.1 8.3,69.8 C8.1,69.5 7.9,69.2 7.5,69.2 L7.5,69.2 L7.5,69.2 Z M74.5,69.2 L69.7,69.2 L69.7,65.3 L73.6,65.3 C74,65.3 74.2,65 74.2,64.7 C74.2,64.4 74,64.1 73.6,64.1 L69.7,64.1 L69.7,60.4 L74.3,60.4 C74.7,60.4 74.9,60.1 74.9,59.8 C74.9,59.5 74.7,59.2 74.3,59.2 L69.5,59.2 C68.8,59.2 68.4,59.6 68.4,60.2 L68.4,69.5 C68.4,70.1 68.8,70.5 69.5,70.5 L74.4,70.5 C74.8,70.5 75,70.2 75,69.9 C75.1,69.5 74.9,69.2 74.5,69.2 L74.5,69.2 L74.5,69.2 Z M65.6,59.2 C65.2,59.2 65,59.5 65,59.9 L65,68.5 L59.4,59.8 C59.2,59.5 58.9,59.3 58.6,59.3 C58.1,59.3 57.8,59.6 57.8,60.2 L57.8,70 C57.8,70.4 58.1,70.6 58.4,70.6 C58.8,70.6 59,70.4 59,70 L59,61.3 L64.5,70.1 C64.7,70.4 65,70.6 65.3,70.6 C65.8,70.6 66.1,70.2 66.1,69.8 L66.1,60 C66.2,59.4 66,59.2 65.6,59.2 L65.6,59.2 L65.6,59.2 Z M51.3,59.1 C48.4,59.1 46.6,61.4 46.6,65 C46.6,68.4 48.4,70.5 51.3,70.5 C54.2,70.5 56,68.1 56,64.5 C56,61.2 54.2,59.1 51.3,59.1 L51.3,59.1 L51.3,59.1 Z M51.3,69.4 C49.2,69.4 47.9,67.7 47.9,65.1 C47.9,62.1 49.1,60.3 51.3,60.3 C53.5,60.3 54.7,62 54.7,64.5 C54.7,67.5 53.4,69.4 51.3,69.4 L51.3,69.4 L51.3,69.4 Z M41.5,69.2 L37.2,69.2 L37.2,59.8 C37.2,59.4 36.9,59.1 36.6,59.1 C36.2,59.1 36,59.4 36,59.8 L36,69.4 C36,70 36.4,70.4 37.1,70.4 L41.6,70.4 C42,70.4 42.3,70.1 42.3,69.8 C42.2,69.5 41.9,69.2 41.5,69.2 L41.5,69.2 L41.5,69.2 Z M41.5,69.2" class="Shape"/>
        </g>
        <g class="background">
            <path d="M151.4,118.3 L101.8,150.8 L86.5,140.1 L136.2,107.7 L151.4,118.3 L151.4,118.3 Z M151.4,118.3" class="walkway"/>
            <path d="M248.9,220.2 L257.1,225.9 L244.3,234.3 L229.9,223.9 L234.7,220.8 L221.7,211.7 L217.1,211.6 L180.3,235.4 C179.8,235.4 170.9,236.1 165.4,235.7 C159.9,235.3 150.4,233.6 149.9,233.6 L149.4,229.9 L150.6,229.7 L148.4,229.4 C148.2,229.3 144.4,227.4 139.4,223.9 C138.6,223.4 137.8,222.8 137,222.2 C132.2,218.6 129.2,214.2 126.7,212.4 C126,211.9 125.4,211.6 124.7,211.6 C121.6,211.5 118,214.6 117.9,214.8 C117.8,215 117.7,214.8 117.7,214.8 C117.3,214.5 112.7,208.3 111,199.8 C109.3,191.5 111.9,185.8 112,185.5 L84.4,165.9 L88.1,163.5 L115.8,182.9 L180.3,141 C181.9,138.6 184.2,136.4 187.2,134.5 C192.8,130.9 199.7,128.8 206.6,128.5 L175.7,106.3 L178.1,104.7 L212.6,128.8 L233.4,115.3 C233.5,115.2 235.2,113.9 234.6,112.8 C234.3,112.1 233.6,111.5 233.1,111.2 C232.8,111 232.6,110.9 232.5,110.8 L258.2,93.8 C258.6,94 259.5,94.7 260.9,94.9 C263,95.3 264.5,94.2 264.5,94.1 L289.5,77.8 L286.6,75.5 L291.5,72.2 L371.4,128 L365.4,131.9 L363.6,130.8 L337.9,147.6 C337.9,147.6 337.2,148 336.8,149.1 C336.7,149.6 337,150.1 337.5,150.5 L313.5,166.1 L283.7,168.4 L230.3,203.2 L229.9,207.2 L234.8,210.6 L234.6,212.4 L247.6,221.5 L248.9,220.2 L248.9,220.2 Z M159.4,225.8 L176,226.4 L282,157 L268.5,147.5 L204.7,189.1 L194.8,182.3 L163.6,202.6 L164.2,203 L160.9,205.2 L165.7,208.5 L161.2,211.4 L163.7,213.4 L155.8,218.6 L159.4,225.8 L159.4,225.8 Z M161.5,200.5 L183.8,186 L175.3,180.1 L189.3,171 L193.2,165 C189.9,164.2 186.8,162.9 184.2,161.1 C181.4,159.2 179.5,156.9 178.5,154.4 L124,190 L124.3,202.1 L136.3,205.7 L142.4,201.7 L144.7,203.3 L151.9,198.6 L155.3,201 L158.8,198.7 L161.5,200.5 L161.5,200.5 Z M197.9,164.7 L194.6,171 L189,174.7 L205.3,186.1 L227.9,171.4 L222.4,167.6 L233.1,160.6 L227.9,156.9 L227.2,157.1 C226.1,158.1 224.9,159 223.5,159.9 C216,164.7 206.6,165.7 197.9,164.7 L197.9,164.7 L197.9,164.7 Z M196.5,137.5 C189.7,141.9 189.4,149.1 195.7,153.5 C202,157.9 212.7,158 219.4,153.6 C226.2,149.2 226.5,142 220.2,137.6 C213.9,133.1 203.3,133.1 196.5,137.5 L196.5,137.5 L196.5,137.5 Z M245.1,131.1 L232,139.7 C234,143.9 233.5,148.6 230.7,152.9 L230.6,153.9 L233.4,155.8 L244.3,149 L252.9,155 L266.6,146 L245.1,131.1 L245.1,131.1 Z M309.8,108.1 L294.6,118 L304.6,125 L319.8,115.1 L322.8,106.4 L309.8,108.1 L309.8,108.1 Z M318.1,134.5 L341.3,119.3 L332.5,113.2 L309.3,128.4 L318.1,134.5 L318.1,134.5 Z M304.3,93.4 L281.1,108.6 L289.8,114.7 L313,99.5 L304.3,93.4 L304.3,93.4 Z M281.3,133.9 L262.6,136.9 L264.3,143.2 L283,140.2 L281.3,133.9 L281.3,133.9 Z M285,151.7 L292.5,150.4 L291.1,145.8 L283.6,147.1 L285,151.7 L285,151.7 Z M262.6,125.7 L255.1,127 L256.5,131.6 L264,130.3 L262.6,125.7 L262.6,125.7 Z M298.5,139.7 C297.2,140.5 297.1,141.8 298.3,142.6 C299.4,143.4 301.4,143.4 302.6,142.6 C303.9,141.8 304,140.5 302.8,139.7 C301.7,138.8 299.7,138.8 298.5,139.7 L298.5,139.7 L298.5,139.7 Z M270.1,119.7 C268.9,120.5 268.8,121.8 269.9,122.5 C271,123.3 272.9,123.3 274.1,122.5 C275.3,121.7 275.4,120.4 274.3,119.7 C273.2,118.9 271.3,118.9 270.1,119.7 L270.1,119.7 L270.1,119.7 Z M270.1,119.7" class="walkway"/>
            <path d="M115.7,183.2 L180.2,141.3 C181.8,138.9 184.1,136.7 187.1,134.8 C192.7,131.2 199.6,129.1 206.5,128.8 L206.8,128.7 L206.6,125.7 L169.4,99.6 L167.7,100.7 L165.1,98.9 L146.5,111 L146.7,114 L152.8,118.3 L98.9,153.5 L87.9,145.8 L76.6,153.1 L76.8,156.1 L115.7,183.2 L115.7,183.2 Z M110.7,197 C110.6,196.3 110.5,195.6 110.4,194.9 C110.3,189.4 111.9,185.9 112,185.7 L111.8,182.7 L66,150.6 L3,191.7 L3.2,194.7 L73,243.6 L117.3,214.7 L117.1,211.7 C116.8,211.5 112.4,205.6 110.7,197 L110.7,197 L110.7,197 Z M258.4,94.2 C258.4,94.2 259.4,94.9 260.8,95.1 C262.9,95.5 264.4,94.4 264.4,94.3 L289.4,78 L289.2,75 L257,52.6 L239.8,63.8 L240,66.8 L258.4,94.2 L258.4,94.2 Z M212.5,129.1 L233.3,115.6 C233.4,115.5 234.7,114.5 234.6,113.5 L234.4,110.5 C234.4,110.4 234.4,110.2 234.3,110.1 C234,109.4 233.3,108.8 232.8,108.5 C232.5,108.3 232.3,108.2 232.2,108.1 L189,91.4 L173.3,80.7 L159.9,89.4 L160.1,92.4 L212.5,129.1 L212.5,129.1 Z M193.1,165.2 L192.9,162.2 C189.6,161.4 186.5,160.1 183.9,158.3 C181.1,156.4 179.2,154.1 178.2,151.6 L123.7,187.2 L124,199.3 L124.2,202.3 L136.2,205.9 L142.3,201.9 L144.6,203.5 L147,201.9 L150.4,204.3 L155.3,201.2 L158.8,198.9 L161.7,200.9 L184,186.4 L183.8,183.4 L177.6,179.1 L189.5,171.3 L193.1,165.2 L193.1,165.2 Z M231.9,222.9 L234.7,221.1 L234.5,218.1 L221.5,209 L216.9,208.9 L180,232.7 C179.5,232.7 170.6,233.4 165.1,233 C159.6,232.6 150.1,230.9 149.6,230.9 L149.5,230.1 L150.5,229.9 L150.3,226.9 L150.2,226.7 L148.1,226.6 C147.9,226.5 144.1,224.6 139.1,221.1 C138.3,220.6 137.5,220 136.7,219.4 C131.9,215.8 128.9,211.4 126.4,209.6 C125.7,209.1 125.1,208.8 124.4,208.8 C121.3,208.7 117.7,211.8 117.6,212 L117.8,215 C117.8,215.1 118.1,217.2 124.8,222.2 C125.5,222.7 126.2,223.2 126.8,223.7 C132,227.4 135.3,228.9 136.7,229.5 L136.8,231.4 L190.9,269.3 L244.1,234.8 L243.9,231.8 L231.9,222.9 L231.9,222.9 Z M312.9,163.3 L283.2,165.6 L229.8,200.4 L229.4,204.4 L229.6,207.4 L234.2,210.5 L234.3,212.5 L247.3,221.6 L248.7,220.6 L256.9,226.3 L323.5,182.8 L323.3,179.8 L312.9,163.3 L312.9,163.3 Z M395.9,151.1 L363.2,128.2 L337.4,145 C337.4,145 336.7,145.4 336.3,146.5 L336.3,146.9 L336.3,146.8 C336.4,147.8 336.4,148.8 336.5,149.8 C336.5,150.3 337.1,150.8 337.6,151.2 C338.1,151.6 338.6,151.8 338.6,151.8 L379.2,165.2 L396.1,154.2 L395.9,151.1 L395.9,151.1 Z M297.5,141.7 C297.5,142.2 297.8,142.6 298.3,142.9 C299.4,143.7 301.4,143.7 302.6,142.9 C303.3,142.4 303.6,141.8 303.6,141.2 C303.5,140.2 303.5,139.2 303.4,138.2 L303.4,138.3 C303.4,137.8 303.1,137.3 302.6,137 C301.5,136.2 299.5,136.2 298.3,137 C297.5,137.5 297.2,138.2 297.3,138.8 L297.3,138.7 C297.3,139.7 297.4,140.7 297.5,141.7 L297.5,141.7 L297.5,141.7 Z M264,130.7 L263.8,127.7 L262.4,123.1 L254.9,124.4 L255.1,127.4 L256.5,132 L264,130.7 L264,130.7 Z M281.1,108.9 L289.8,115 L313,99.8 L312.8,96.8 L304.1,90.7 L280.9,105.9 L281.1,108.9 L281.1,108.9 Z M309.3,128.6 L318.1,134.7 L341.3,119.5 L341.1,116.5 L332.3,110.4 L309.1,125.6 L309.3,128.6 L309.3,128.6 Z M294.4,115.4 L294.6,118.4 L304.6,125.4 L319.8,115.5 L322.8,106.8 L322.6,103.8 L309.6,105.5 L294.4,115.4 L294.4,115.4 Z M269,120.2 C269,120.6 269.1,121.1 269.1,121.5 L269.1,121.6 C269.1,122 269.4,122.5 269.9,122.8 C271,123.6 272.9,123.6 274.1,122.8 C274.8,122.4 275.1,121.8 275.1,121.2 C275,120.2 274.9,119.2 274.9,118.2 L274.9,118.3 C274.9,117.8 274.7,117.4 274.1,117 C273,116.2 271.1,116.2 269.9,117 C269.2,117.5 268.9,118.1 269,118.7 L269,118.6 C268.9,119.2 269,119.7 269,120.2 L269,120.2 L269,120.2 Z M283.4,144.4 L283.6,147.4 L285,152 L292.5,150.7 L292.3,147.7 L290.9,143.1 L283.4,144.4 L283.4,144.4 Z M282.8,137.5 L281.1,131.2 L262.4,134.2 L262.6,137.2 L263.8,141.6 L244.9,128.3 L231.8,136.9 L232,139.9 C232.4,140.8 232.7,141.8 232.9,142.8 C232.8,145.3 231.9,147.8 230.4,150.2 L230.3,151.2 L230.5,154.2 L233.3,156.1 L244.2,149.3 L252.5,155.1 L227.9,171.2 L227.7,168.6 L224.5,166.4 L233.1,160.8 L232.9,157.8 L227.7,154.1 L227,154.3 C225.9,155.3 224.7,156.2 223.3,157.1 C215.9,161.9 206.5,162.9 197.8,161.9 L194.5,168.2 L188.9,171.9 L189.1,174.9 L205.1,186.1 L204.6,186.4 L194.7,179.6 L163.4,200 L164,200.4 L160.7,202.6 L160.9,205.6 L163.4,207.3 L161.1,208.8 L161.3,211.8 L161.7,212.1 L155.7,216 L155.9,219 L159.4,226.3 L176,226.9 L282,157.3 L281.8,154.3 L268.3,144.8 L266.5,146 L266.3,143.4 L266.1,143.2 L283.1,140.4 L282.8,137.5 L282.8,137.5 Z M282.8,137.5" class="wall"/>
            <path d="M408.5,157.2 L395.1,157.3 L394.4,166.4 L394.6,169.4 L408,169.3 L408.7,160.2 L408.5,157.2 L408.5,157.2 Z M408.5,157.2" class="wall"/>
            <path d="M106.2,130.4 L112.2,134.6 L128.2,124.1 L128,122 L122,117.8 L106,128.3 L106.2,130.4 L106.2,130.4 Z M106.2,130.4" class="wall"/>
        </g>
        <g class="ceilings">
            <path class="unit" d="M172.2,142.9 L164.6,147.8 L136.7,128.3 L144.3,123.3 L172.2,142.9 L172.2,142.9 Z M172.2,142.9" id="1001"/>
            <path class="unit" d="M232.8,107.9 C233.3,108.2 234,108.8 234.3,109.5 C234.8,110.7 233.2,112 233.1,112 L212.3,125.5 L175.4,99.6 L188.8,90.9 L189.1,90.8 L232.2,107.5 C232.3,107.5 232.5,107.6 232.8,107.9 L232.8,107.9 L232.8,107.9 Z M232.8,107.9" id="1003"/>
            <path class="unit" d="M234.5,217.6 L229.7,220.7 L244.1,231.1 L233.5,237.9 L203.5,216.9 L216.8,208.3 L221.4,208.4 L234.5,217.6 L234.5,217.6 Z M234.5,217.6" id="1004"/>
            <path class="unit" d="M256.3,170.6 L248.9,175.5 L235.3,166 L242.7,161.1 L256.3,170.6 L256.3,170.6 Z M256.3,170.6" id="1005"/>
            <path class="unit" d="M262.5,122.6 L263.9,127.2 L256.4,128.5 L255,123.9 L262.5,122.6 L262.5,122.6 Z M262.5,122.6" id="1006"/>
            <path class="unit" d="M206.6,125.1 L206.3,125.2 C199.5,125.5 192.5,127.5 186.9,131.2 C183.9,133.1 181.6,135.4 180,137.7 L172.1,142.8 L144.2,123.3 L155,116.3 L146.6,110.4 L165.1,98.3 L167.6,100.1 L169.3,99 L206.6,125.1 L206.6,125.1 Z M206.6,125.1" id="1007"/>
            <path class="unit" d="M281.2,130.7 L282.9,137 L264.2,140 L262.5,133.7 L281.2,130.7 L281.2,130.7 Z M281.2,130.7" id="1008"/>
            <path class="unit" d="M164.6,147.8 L156.8,152.9 L128.9,133.4 L136.8,128.3 L164.6,147.8 L164.6,147.8 Z M164.6,147.8" id="1009"/>
            <path class="unit" d="M128.8,133.4 L156.7,152.9 L149,157.9 L121.1,138.4 L128.8,133.4 L128.8,133.4 Z M128.8,133.4" id="1010"/>
            <path class="unit" d="M266.4,142.9 L252.7,151.9 L244.1,145.9 L233.2,152.7 L230.4,150.8 L230.5,149.8 C233.3,145.5 233.8,140.7 231.8,136.6 L244.9,128 L266.4,142.9 L266.4,142.9 Z M266.4,142.9" id="1011"/>
            <path class="unit" d="M149,158 L141.6,162.8 L113.8,143.3 L121.2,138.5 L149,158 L149,158 Z M149,158" id="1012"/>
            <path class="unit" d="M281.9,153.8 L264.4,165.3 L250.8,155.8 L268.3,144.4 L281.9,153.8 L281.9,153.8 Z M281.9,153.8" id="1013"/>
            <path class="unit" d="M264.4,165.3 L260.3,168 L246.7,158.5 L250.8,155.8 L264.4,165.3 L264.4,165.3 Z M264.4,165.3" id="1014"/>
            <path class="unit" d="M141.6,162.8 L115.6,179.7 L76.9,152.6 L88.2,145.3 L99.2,153 L113.9,143.4 L141.6,162.8 L141.6,162.8 Z M141.6,162.8" id="1015"/>
            <path class="unit" d="M260.3,168 L256.3,170.6 L242.7,161.1 L246.7,158.5 L260.3,168 L260.3,168 Z M260.3,168" id="1016"/>
            <path class="unit" d="M248.9,175.4 L242,179.9 L228.4,170.4 L235.3,165.9 L248.9,175.4 L248.9,175.4 Z M248.9,175.4" id="1017"/>
            <path class="unit" d="M197.8,161.5 L194.5,167.8 L188.9,171.5 L205.2,182.9 L227.8,168.2 L223.2,165 L216.1,160.2 C210.3,161.9 203.9,162.2 197.8,161.5 L197.8,161.5 L197.8,161.5 Z M197.8,161.5" id="1018"/>
            <path class="unit" d="M178.3,151 C179.4,153.5 181.3,155.8 184,157.7 C186.6,159.5 189.6,160.8 193,161.6 L189.1,167.6 L175.1,176.7 L183.6,182.6 L176.3,187.4 L150.2,169.2 L178.3,151 L178.3,151 Z M178.3,151" id="1019"/>
            <path class="unit" d="M242,179.9 L236.1,183.7 L222.5,174.2 L228.4,170.4 L242,179.9 L242,179.9 Z M242,179.9" id="1020"/>
            <path class="unit" d="M236.2,183.8 L230,187.9 L216.4,178.4 L222.6,174.4 L236.2,183.8 L236.2,183.8 Z M236.2,183.8" id="1021"/>
            <path class="unit" d="M176.4,187.5 L168.7,192.5 L142.6,174.3 L150.3,169.3 L176.4,187.5 L176.4,187.5 Z M176.4,187.5" id="1022"/>
            <path class="unit" d="M230,187.8 L224.2,191.6 L210.6,182 L216.4,178.2 L230,187.8 L230,187.8 Z M230,187.8" id="1023"/>
            <path class="unit" d="M158.5,195.3 L155,197.6 L151.6,195.2 L146.8,198.3 L127,184.4 L135.3,179 L155.1,192.9 L158.5,195.3 L158.5,195.3 Z M158.5,195.3" id="1024"/>
            <path class="unit" d="M168.7,192.6 L161.4,197.3 L158.5,195.3 L155.1,192.9 L135.3,179 L142.6,174.3 L168.7,192.6 L168.7,192.6 Z M168.7,192.6" id="1025"/>
            <path class="unit" d="M224.2,191.6 L218.2,195.5 L204.5,185.9 L204.6,185.8 L210.6,181.9 L224.2,191.6 L224.2,191.6 Z M224.2,191.6" id="1026"/>
            <path class="unit" d="M146.9,198.3 L144.5,199.9 L142.2,198.3 L136.1,202.3 L124.1,198.7 L123.8,186.6 L127.1,184.4 L146.9,198.3 L146.9,198.3 Z M146.9,198.3" id="1027"/>
            <path class="unit" d="M313.1,162.7 L323.6,179.2 L302.8,192.8 L272.9,171.9 L283.4,165 L313.1,162.7 L313.1,162.7 Z M313.1,162.7" id="1028"/>
            <path class="unit" d="M218.2,195.6 L210.4,200.7 L186.9,184.2 L194.8,179.1 L204.6,186 L218.2,195.6 L218.2,195.6 Z M218.2,195.6" id="1029"/>
            <path class="unit" d="M302.7,192.9 L295.6,197.5 L265.7,176.6 L272.8,172 L302.7,192.9 L302.7,192.9 Z M302.7,192.9" id="1030"/>
            <path class="unit" d="M210.3,200.7 L202.8,205.6 L179.3,189.1 L186.8,184.2 L210.3,200.7 L210.3,200.7 Z M210.3,200.7" id="1031"/>
            <path class="unit" d="M295.6,197.5 L287.7,202.6 L257.8,181.7 L265.7,176.6 L295.6,197.5 L295.6,197.5 Z M295.6,197.5" id="1032"/>
            <path class="unit" d="M202.8,205.6 L194.8,210.8 L171.3,194.3 L179.3,189.1 L202.8,205.6 L202.8,205.6 Z M202.8,205.6" id="1033"/>
            <path class="unit" d="M163.7,213.9 L157.1,218.2 L155.8,215.4 L161.1,211.9 L163.7,213.9 L163.7,213.9 Z M163.7,213.9" id="1034"/>
            <path class="unit" d="M194.8,210.9 L187,216 L168.8,203.2 L164.1,199.9 L163.5,199.5 L171.3,194.4 L194.8,210.9 L194.8,210.9 Z M194.8,210.9" id="1035"/>
            <path class="unit" d="M287.8,202.7 L276.1,210.4 L246.2,189.4 L257.9,181.7 L287.8,202.7 L287.8,202.7 Z M287.8,202.7" id="1036"/>
            <path class="unit" d="M187.1,216 L179.4,221 L161.2,208.2 L165.7,205.3 L160.9,202 L164.2,199.8 L168.9,203.1 L187.1,216 L187.1,216 Z M187.1,216" id="1037"/>
            <path class="unit" d="M253,209.6 L248.4,212.6 L252.1,215.2 L249,217.2 L248.7,217 L247.3,218 L234.3,208.9 L234.5,207.1 L229.6,203.7 L230,199.7 L234.7,196.6 L253,209.6 L253,209.6 Z M253,209.6" id="1039"/>
            <path class="unit" d="M276,210.3 L256.9,222.8 L249,217.2 L252.1,215.2 L248.4,212.6 L253,209.6 L234.7,196.8 L246.1,189.4 L276,210.3 L276,210.3 Z M276,210.3" id="1040"/>
            <path class="unit" d="M111.8,182.2 C111.7,182.5 109.1,188.2 110.8,196.5 C112.5,205 116.9,210.9 117.1,211.3 L72.8,240.2 L2.9,191.3 L65.9,150.2 L111.8,182.2 L111.8,182.2 Z M111.8,182.2" id="1041"/>
            <path class="unit" d="M126.5,209.1 C129.1,210.9 132,215.3 136.8,218.9 C137.6,219.5 138.4,220.1 139.2,220.6 C144.2,224.1 148,226 148.2,226.1 L150.3,226.2 L150.4,226.4 L149.2,226.6 L149.7,230.3 C149.7,230.3 149.9,231.3 149.2,233 C148.9,233.7 148,234.4 147.4,234.7 L147,234.9 L136.7,227.7 L137.4,226.1 C137.2,226 133.8,225 126.6,220 C125.9,219.5 125.3,219.1 124.6,218.5 C117.9,213.6 117.6,211.4 117.6,211.3 C117.8,211.1 121.4,208 124.4,208.1 C125.2,208.4 125.8,208.6 126.5,209.1 L126.5,209.1 L126.5,209.1 Z M126.5,209.1" id="1042"/>
            <path class="unit" d="M233.6,238 L225.8,243.1 L195.8,222.1 L203.6,217 L233.6,238 L233.6,238 Z M233.6,238" id="1043"/>
            <path class="unit" d="M225.8,243 L218.1,248 L188.2,227 L195.9,222 L225.8,243 L225.8,243 Z M225.8,243" id="1044"/>
            <path class="unit" d="M209.9,253.3 L190.9,265.7 L147.1,235 C147.1,235 147.2,234.9 147.5,234.8 C148,234.5 149,233.8 149.3,233.1 C150.1,231.4 149.8,230.5 149.8,230.4 C150.3,230.5 159.2,232.1 165.3,232.6 L166,232.6 C172.8,233 179.7,232.4 180.1,232.4 L209.9,253.3 L209.9,253.3 Z M209.9,253.3" id="1045"/>
            <path class="unit" d="M218,248.1 L210,253.3 L180,232.4 L188.1,227.1 L218,248.1 L218,248.1 Z M218,248.1" id="1047"/>
            <path class="unit" d="M289.3,74.6 L264.3,90.9 C264.2,91 262.8,92 260.7,91.7 C259.3,91.5 258.4,90.8 258.3,90.8 L239.9,63.4 L257.1,52.2 L289.3,74.6 L289.3,74.6 Z M289.3,74.6" id="1048"/>
            <path class="unit" d="M312.9,96.3 L289.7,111.5 L281,105.4 L304.2,90.2 L312.9,96.3 L312.9,96.3 Z M312.9,96.3" id="1049"/>
            <path class="unit" d="M408.6,156.7 L407.9,165.8 L394.5,165.9 L395.2,156.8 L408.6,156.7 L408.6,156.7 Z M408.6,156.7" id="1050"/>
            <path class="unit" d="M396,150.6 L379.1,161.6 L338.5,148.2 C338.5,148.2 338,148 337.5,147.6 C336.9,147.2 336.3,146.6 336.5,146 C336.9,144.9 337.6,144.6 337.6,144.5 L363.3,127.7 L396,150.6 L396,150.6 Z M396,150.6" id="1051"/>
            <path class="unit" d="M341.2,116.1 L318,131.3 L309.2,125.2 L332.4,110 L341.2,116.1 L341.2,116.1 Z M341.2,116.1" id="1052"/>
            <path class="unit" d="M322.7,103.2 L319.7,111.9 L304.5,121.8 L294.5,114.8 L309.7,104.9 L322.7,103.2 L322.7,103.2 Z M322.7,103.2" id="1053"/>
            <path class="unit" d="M291.1,142.6 L292.5,147.2 L285,148.5 L283.6,143.9 L291.1,142.6 L291.1,142.6 Z M291.1,142.6" id="1054"/>
            <path class="unit" d="M274.2,116.5 C275.3,117.3 275.2,118.5 274,119.3 C272.8,120.1 270.9,120.1 269.8,119.3 C268.7,118.5 268.8,117.3 270,116.5 C271.2,115.7 273.1,115.7 274.2,116.5 L274.2,116.5 L274.2,116.5 Z M274.2,116.5" id="1055"/>
            <path class="unit" d="M302.7,136.5 C303.8,137.3 303.7,138.6 302.5,139.4 C301.2,140.2 299.3,140.2 298.2,139.4 C297.1,138.6 297.2,137.3 298.4,136.5 C299.6,135.7 301.5,135.7 302.7,136.5 L302.7,136.5 L302.7,136.5 Z M302.7,136.5" id="1056"/>
            <path class="unit" d="M128.2,122.1 L112.2,132.6 L106.2,128.4 L122.2,117.9 L128.2,122.1 L128.2,122.1 Z M128.2,122.1" id="1057"/>
            <path class="unit" d="M188.8,91 L180.8,85.3 L180.6,85.2 L173.4,80.2 L160,88.9 L167.3,94 L175.4,99.7 L188.8,91 L188.8,91 Z M188.8,91" id="1058"/>
            <path class="unit" d="M179.4,221 L163.9,210.1 L161,211.9 L168,217 L159.2,222.6 L175.8,223.3 L176.5,222.9 L179.4,221 L179.4,221 Z M179.4,221" id="1059"/>
            <path class="unit" d="M163.7,213.9 L157.1,218.2 L159.2,222.6 L167.9,217 L163.7,213.9 L163.7,213.9 Z M163.7,213.9" id="1060"/>
            <path class="unit" d="M232.8,157.4 L227.6,153.7 L226.9,153.9 C225.8,154.9 224.6,155.8 223.2,156.7 C221,158.1 218.6,159.2 216.1,160 L222.2,164.2 L232.8,157.4 L232.8,157.4 Z M232.8,157.4" id="1061"/>
            <path class="unit" d="M155,197.6 L150.3,200.6 L146.8,198.2 L151.6,195.2 L155,197.6 Z M155,197.6" id="1062"/>
        </g>
    </g>
</svg>