<?xml version="1.0" encoding="utf-8"?>
<!DOCTYPE svg PUBLIC "-//W3C//DTD SVG 1.1//EN" "http://www.w3.org/Graphics/SVG/1.1/DTD/svg11.dtd">
<svg version="1.1" xmlns="http://www.w3.org/2000/svg" xmlns:xlink="http://www.w3.org/1999/xlink" xml:space="preserve">
<g class="level" id="level0">
            <g class="outline">
                <path d="M410.721,159.003 L410.495,156.025 L410.351,154.147 L408.468,154.164 L397.989,154.254 L398.217,154.107 L398.127,152.919 L397.902,149.94 L397.831,148.989 L397.05,148.442 L370.53,129.874 L372.319,128.722 L374.841,127.097 L372.381,125.377 L292.495,69.549 L291.362,68.758 L290.216,69.529 L288.12,70.939 L258.167,49.966 L257.052,49.185 L255.911,49.929 L238.704,61.154 L237.706,61.805 L237.795,62.993 L238.021,65.971 L238.061,66.5 L238.356,66.94 L255.234,92.124 L234.23,106.024 C234.094,105.918 233.966,105.823 233.849,105.741 C233.431,105.449 233.129,105.286 233.074,105.257 L232.97,105.203 L232.863,105.161 L189.965,88.59 L174.439,78.052 L173.33,77.3 L172.207,78.032 L158.806,86.774 L157.809,87.424 L157.898,88.612 L158.123,91.591 L158.195,92.542 L158.977,93.089 L163.685,96.385 L145.435,108.291 L144.438,108.942 L144.521,110.048 L137.3,104.992 L136.185,104.211 L135.044,104.955 L85.331,137.386 L82.836,139.014 L85.276,140.722 L87.759,142.46 L86.878,143.035 L75.626,150.376 L74.628,151.026 L74.718,152.214 L74.817,153.524 L67.014,148.06 L65.899,147.28 L64.759,148.023 L1.725,189.142 L0.727,189.793 L0.817,190.981 L1.042,193.96 L1.114,194.911 L1.895,195.458 L71.715,244.347 L72.83,245.128 L73.971,244.384 L116.771,216.463 C117.807,217.961 119.821,220.019 123.581,222.794 C124.282,223.312 124.982,223.815 125.662,224.291 C129.944,227.29 132.979,228.917 134.821,229.769 L134.872,230.44 L134.904,230.866 L120.814,221 L119.689,220.212 L119.211,220.529 L118.274,219.873 L117.159,219.092 L116.018,219.836 L102.783,228.471 L102.624,228.575 L102.487,228.707 C101.896,229.274 99.922,231.3 98.332,234.386 L82.201,245.092 L79.74,246.726 L82.159,248.419 L138.017,287.531 L139.132,288.311 L140.273,287.567 L157.785,276.144 C158.188,276.001 158.559,275.86 158.891,275.722 L159.064,275.651 L159.221,275.548 L174.605,265.512 L175.603,264.862 L175.579,264.537 L176.92,263.662 L179.046,262.274 L189.856,269.842 L190.967,270.62 L192.107,269.882 L245.325,235.368 L246.327,234.719 L246.303,234.389 L256.757,227.569 L257.011,227.748 L258.15,227 L324.752,183.453 L325.747,182.803 L325.657,181.616 L325.431,178.637 L325.392,178.134 L325.122,177.709 L317,164.919 L336.929,152.004 C337.404,152.294 337.774,152.463 337.825,152.486 L337.919,152.529 L338.02,152.56 L378.608,165.992 L379.529,166.297 L380.341,165.768 L392.944,157.547 L392.392,165.224 L392.381,165.371 L392.394,165.518 L392.619,168.497 L392.761,170.376 L394.647,170.359 L408.081,170.238 L409.938,170.219 L410.072,168.366 L410.721,159.3 L410.732,159.153 L410.721,159.003 L410.721,159.003 Z M117.682,213.75 C117.676,213.75 117.672,213.745 117.666,213.744 C117.676,213.746 117.686,213.748 117.696,213.746 C117.692,213.746 117.687,213.75 117.682,213.75 L117.682,213.75 Z M218.407,150.899 C215.475,152.81 211.618,153.864 207.543,153.864 C203.448,153.864 199.68,152.803 196.933,150.882 C194.518,149.192 193.208,147.023 193.245,144.773 C193.285,142.345 194.843,140.005 197.632,138.186 C200.563,136.276 204.419,135.223 208.494,135.223 C212.591,135.223 216.362,136.284 219.11,138.206 C221.521,139.894 222.829,142.062 222.792,144.31 C222.752,146.74 221.195,149.08 218.407,150.899 L218.407,150.899 Z M218.407,150.899" class="outline"/>
            </g>
            <g class="label">
                <path d="M208.39,60.25 L206.381,46.92 L218.22,53.367 L208.39,60.25 Z M208.39,60.25" class="Shape"/>
                <path d="M174.154,48.928 L172.441,46.482 C172.207,46.148 172.035,45.809 171.925,45.465 C171.855,45.239 171.851,45.026 171.916,44.825 C171.981,44.624 172.101,44.464 172.273,44.343 C172.467,44.207 172.7,44.129 172.973,44.108 L172.732,43.182 C172.337,43.205 172.006,43.31 171.739,43.497 C171.555,43.626 171.423,43.798 171.343,44.011 C171.263,44.224 171.247,44.56 171.298,45.019 L170.802,44.311 L170.089,44.81 L173.36,49.482 L174.154,48.928 L174.154,48.928 Z M226.396,11.566 C227.092,11.703 227.768,11.543 228.422,11.085 C228.829,10.8 229.139,10.441 229.35,10.008 C229.562,9.576 229.637,9.125 229.577,8.654 C229.515,8.182 229.275,7.646 228.854,7.045 C228.333,6.303 227.722,5.864 227.021,5.728 C226.318,5.593 225.646,5.75 225.002,6.2 C224.424,6.605 224.056,7.12 223.898,7.748 C223.709,8.501 223.917,9.311 224.523,10.176 C225.075,10.966 225.7,11.429 226.396,11.566 L226.396,11.566 Z M225.463,6.856 C225.854,6.583 226.283,6.503 226.756,6.617 C227.227,6.731 227.664,7.077 228.068,7.655 C228.498,8.268 228.685,8.815 228.633,9.297 C228.581,9.779 228.361,10.157 227.966,10.433 C227.57,10.71 227.137,10.791 226.668,10.677 C226.197,10.562 225.754,10.205 225.335,9.607 C224.916,9.008 224.732,8.47 224.787,7.99 C224.842,7.512 225.066,7.134 225.463,6.856 L225.463,6.856 Z M176.057,43.583 C175.77,43.841 175.563,44.045 175.436,44.195 C175.266,44.402 175.137,44.621 175.048,44.853 C174.959,45.086 174.93,45.333 174.957,45.595 C174.986,45.857 175.08,46.103 175.24,46.331 C175.513,46.721 175.875,46.945 176.327,47.003 C176.777,47.06 177.261,46.91 177.773,46.55 C178.084,46.333 178.339,46.077 178.539,45.784 C178.738,45.492 178.898,45.117 179.018,44.663 C179.195,44.867 179.381,45.022 179.579,45.128 L180.407,44.549 C180.182,44.44 179.983,44.3 179.813,44.129 C179.643,43.958 179.299,43.504 178.784,42.768 L178.046,41.712 C177.799,41.36 177.615,41.126 177.495,41.009 C177.296,40.825 177.088,40.703 176.871,40.643 C176.654,40.582 176.388,40.593 176.073,40.673 C175.758,40.754 175.401,40.934 175.002,41.214 C174.601,41.495 174.286,41.798 174.058,42.121 C173.829,42.445 173.706,42.765 173.688,43.082 C173.67,43.399 173.741,43.748 173.902,44.128 L174.752,43.691 C174.604,43.299 174.574,42.977 174.66,42.722 C174.746,42.467 174.974,42.209 175.348,41.949 C175.746,41.67 176.11,41.549 176.438,41.586 C176.68,41.613 176.915,41.789 177.14,42.111 C177.161,42.14 177.207,42.21 177.281,42.32 C177.05,42.638 176.643,43.058 176.057,43.583 L176.057,43.583 Z M177.713,42.941 L177.916,43.231 C178.16,43.581 178.303,43.874 178.342,44.112 C178.393,44.422 178.347,44.727 178.202,45.027 C178.058,45.326 177.834,45.583 177.529,45.797 C177.22,46.013 176.937,46.106 176.679,46.077 C176.42,46.048 176.217,45.928 176.07,45.717 C175.972,45.579 175.922,45.428 175.916,45.264 C175.91,45.1 175.955,44.941 176.049,44.788 C176.143,44.635 176.336,44.421 176.628,44.146 C177.146,43.662 177.507,43.26 177.713,42.941 L177.713,42.941 Z M167.592,47.478 L168.172,47.071 L170.055,49.759 C170.387,50.234 170.638,50.523 170.806,50.626 C170.974,50.729 171.17,50.771 171.391,50.751 C171.614,50.731 171.868,50.621 172.156,50.419 C172.332,50.296 172.515,50.132 172.705,49.929 L172.101,49.31 C171.972,49.431 171.863,49.522 171.775,49.584 C171.658,49.667 171.554,49.71 171.464,49.717 C171.375,49.723 171.294,49.703 171.221,49.658 C171.148,49.613 171.033,49.478 170.874,49.252 L168.96,46.52 L169.757,45.962 L169.325,45.346 L168.529,45.904 L167.385,44.272 L166.93,45.298 L167.741,46.455 L167.161,46.862 L167.592,47.478 L167.592,47.478 Z M191.678,36.657 L189.965,34.211 C189.732,33.877 189.56,33.538 189.45,33.195 C189.379,32.969 189.377,32.756 189.441,32.555 C189.504,32.355 189.625,32.194 189.797,32.073 C189.99,31.937 190.225,31.859 190.498,31.838 L190.256,30.912 C189.861,30.935 189.529,31.04 189.264,31.227 C189.078,31.356 188.948,31.527 188.867,31.741 C188.788,31.954 188.773,32.29 188.822,32.749 L188.327,32.041 L187.614,32.54 L190.885,37.212 L191.678,36.657 L191.678,36.657 Z M232.257,8.243 L230.471,5.691 C230.051,5.093 229.889,4.601 229.986,4.215 C230.081,3.83 230.297,3.519 230.633,3.282 C230.844,3.134 231.061,3.053 231.285,3.039 C231.508,3.024 231.707,3.076 231.881,3.192 C232.054,3.309 232.254,3.528 232.481,3.851 L234.47,6.693 L235.262,6.138 L233.25,3.265 C232.993,2.898 232.799,2.652 232.667,2.526 C232.462,2.333 232.243,2.195 232.011,2.113 C231.78,2.03 231.509,2.021 231.201,2.086 C230.893,2.15 230.599,2.281 230.318,2.478 C229.67,2.932 229.353,3.536 229.371,4.29 L228.906,3.625 L228.193,4.124 L231.464,8.796 L232.257,8.243 L232.257,8.243 Z M189.046,46.359 L188.408,45.448 L187.616,46.003 L188.254,46.914 L189.046,46.359 L189.046,46.359 Z M187.467,39.605 L188.321,39.007 L184.339,33.319 L186.472,31.825 L185.941,31.064 L180.829,34.644 L181.362,35.405 L183.487,33.917 L187.467,39.605 L187.467,39.605 Z M218.241,11.094 L218.672,11.71 L219.253,11.303 L221.135,13.991 C221.468,14.466 221.719,14.755 221.887,14.858 C222.055,14.962 222.25,15.003 222.473,14.983 C222.696,14.963 222.951,14.853 223.238,14.651 C223.414,14.527 223.596,14.364 223.787,14.161 L223.183,13.542 C223.053,13.663 222.946,13.754 222.858,13.816 C222.741,13.898 222.636,13.942 222.546,13.948 C222.456,13.954 222.374,13.934 222.302,13.889 C222.23,13.845 222.114,13.709 221.954,13.483 L220.042,10.751 L220.838,10.193 L220.407,9.577 L219.61,10.135 L218.466,8.503 L218.011,9.529 L218.823,10.686 L218.241,11.094 L218.241,11.094 Z M182.156,43.324 L177.64,36.874 L176.848,37.429 L181.365,43.879 L182.156,43.324 L182.156,43.324 Z M214.371,20.121 C214.54,20.224 214.736,20.266 214.957,20.246 C215.18,20.226 215.434,20.116 215.722,19.914 C215.899,19.791 216.081,19.627 216.272,19.424 L215.668,18.805 C215.539,18.926 215.43,19.017 215.342,19.079 C215.225,19.161 215.121,19.205 215.031,19.212 C214.942,19.218 214.86,19.198 214.788,19.153 C214.715,19.108 214.6,18.973 214.441,18.747 L212.527,16.015 L213.324,15.457 L212.891,14.841 L212.095,15.399 L210.951,13.767 L210.496,14.793 L211.307,15.95 L210.727,16.357 L211.16,16.973 L211.74,16.566 L213.623,19.254 C213.953,19.729 214.203,20.018 214.371,20.121 L214.371,20.121 Z M210.485,22.511 C210.119,22.768 209.744,22.935 209.361,23.012 C208.977,23.091 208.644,23.075 208.361,22.965 C208.077,22.857 207.801,22.653 207.539,22.358 L206.783,22.992 C207.095,23.415 207.485,23.72 207.949,23.904 C208.412,24.089 208.901,24.128 209.415,24.022 C209.929,23.915 210.477,23.658 211.061,23.25 C211.522,22.928 211.877,22.553 212.127,22.126 C212.377,21.7 212.494,21.266 212.478,20.825 C212.462,20.384 212.334,19.992 212.094,19.648 C211.852,19.302 211.547,19.059 211.182,18.919 C210.82,18.779 210.388,18.754 209.891,18.844 C209.551,18.907 208.98,19.103 208.176,19.432 C207.371,19.761 206.835,19.908 206.568,19.873 C206.295,19.84 206.078,19.708 205.916,19.477 C205.728,19.21 205.687,18.899 205.791,18.545 C205.895,18.19 206.205,17.832 206.722,17.47 C207.217,17.123 207.664,16.965 208.066,16.995 C208.466,17.025 208.83,17.23 209.16,17.606 L209.934,16.971 C209.655,16.603 209.311,16.338 208.906,16.177 C208.501,16.015 208.06,15.986 207.588,16.087 C207.115,16.189 206.64,16.407 206.162,16.741 C205.726,17.045 205.384,17.395 205.132,17.79 C204.88,18.185 204.76,18.589 204.775,19.001 C204.789,19.414 204.91,19.782 205.136,20.108 C205.344,20.404 205.608,20.619 205.924,20.752 C206.242,20.886 206.613,20.925 207.033,20.871 C207.359,20.83 207.869,20.674 208.559,20.401 C209.251,20.129 209.707,19.965 209.928,19.912 C210.27,19.826 210.552,19.817 210.776,19.886 C211,19.955 211.18,20.091 211.324,20.293 C211.463,20.493 211.531,20.719 211.527,20.973 C211.524,21.227 211.43,21.49 211.25,21.761 C211.064,22.034 210.811,22.283 210.485,22.511 L210.485,22.511 Z M221.369,7.612 L220.732,6.701 L219.939,7.256 L220.578,8.167 L221.369,7.612 L221.369,7.612 Z M209.04,3.271 C209.2,3.5 209.404,3.668 209.652,3.776 C209.9,3.884 210.173,3.913 210.473,3.863 C210.773,3.813 211.263,3.658 211.948,3.398 C212.455,3.205 212.788,3.105 212.945,3.099 C213.174,3.093 213.348,3.18 213.473,3.358 C213.615,3.558 213.647,3.793 213.576,4.064 C213.504,4.336 213.285,4.599 212.922,4.853 C212.561,5.105 212.222,5.219 211.904,5.192 C211.586,5.166 211.295,5.011 211.031,4.728 L210.334,5.399 C210.77,5.833 211.234,6.065 211.729,6.095 C212.225,6.124 212.777,5.926 213.382,5.501 C213.748,5.244 214.033,4.95 214.235,4.619 C214.435,4.288 214.533,3.952 214.523,3.611 C214.512,3.271 214.417,2.968 214.232,2.704 C214.043,2.434 213.822,2.253 213.568,2.159 C213.314,2.065 213.044,2.049 212.756,2.109 C212.468,2.169 211.991,2.319 211.326,2.563 C210.865,2.728 210.584,2.824 210.484,2.85 C210.307,2.891 210.158,2.892 210.033,2.851 C209.912,2.814 209.814,2.744 209.742,2.642 C209.629,2.481 209.608,2.286 209.68,2.057 C209.752,1.828 209.969,1.585 210.332,1.331 C210.641,1.115 210.926,1.016 211.189,1.033 C211.451,1.05 211.684,1.166 211.887,1.382 L212.588,0.735 C212.326,0.468 212.067,0.291 211.809,0.202 C211.55,0.115 211.247,0.114 210.894,0.203 C210.543,0.291 210.184,0.464 209.819,0.721 C209.576,0.891 209.369,1.083 209.201,1.294 C209.033,1.506 208.919,1.701 208.859,1.878 C208.777,2.11 208.751,2.348 208.779,2.593 C208.807,2.837 208.895,3.063 209.04,3.271 L209.04,3.271 Z M193.581,31.312 C193.293,31.57 193.087,31.773 192.96,31.924 C192.789,32.131 192.66,32.35 192.572,32.582 C192.483,32.814 192.453,33.062 192.481,33.324 C192.508,33.586 192.602,33.831 192.762,34.06 C193.035,34.45 193.4,34.674 193.85,34.732 C194.301,34.789 194.785,34.639 195.296,34.279 C195.608,34.061 195.862,33.806 196.063,33.513 C196.261,33.221 196.42,32.846 196.541,32.392 C196.719,32.596 196.906,32.751 197.103,32.857 L197.928,32.278 C197.703,32.169 197.506,32.028 197.336,31.858 C197.164,31.686 196.822,31.233 196.307,30.497 L195.568,29.441 C195.322,29.089 195.137,28.854 195.016,28.738 C194.818,28.553 194.611,28.432 194.394,28.372 C194.176,28.311 193.911,28.322 193.594,28.402 C193.281,28.483 192.922,28.663 192.525,28.943 C192.123,29.224 191.807,29.527 191.58,29.85 C191.351,30.174 191.228,30.494 191.211,30.811 C191.191,31.128 191.264,31.477 191.425,31.857 L192.275,31.42 C192.129,31.028 192.096,30.706 192.182,30.451 C192.268,30.197 192.498,29.939 192.87,29.678 C193.268,29.399 193.634,29.278 193.96,29.315 C194.202,29.342 194.437,29.517 194.663,29.84 C194.683,29.869 194.728,29.94 194.804,30.05 C194.574,30.367 194.166,30.788 193.581,31.312 L193.581,31.312 Z M195.236,30.671 L195.439,30.961 C195.682,31.311 195.826,31.604 195.867,31.842 C195.917,32.152 195.871,32.457 195.725,32.757 C195.58,33.056 195.357,33.313 195.051,33.527 C194.743,33.742 194.46,33.836 194.201,33.807 C193.943,33.778 193.74,33.658 193.592,33.447 C193.495,33.309 193.446,33.158 193.439,32.994 C193.432,32.83 193.477,32.671 193.572,32.518 C193.666,32.365 193.859,32.151 194.152,31.876 C194.67,31.391 195.031,30.989 195.236,30.671 L195.236,30.671 Z M214.467,15.724 L215.316,15.287 C215.17,14.895 215.137,14.573 215.224,14.318 C215.31,14.064 215.539,13.806 215.912,13.545 C216.31,13.266 216.675,13.145 217.002,13.182 C217.244,13.209 217.478,13.384 217.704,13.707 C217.725,13.736 217.77,13.807 217.845,13.917 C217.616,14.234 217.209,14.654 216.623,15.179 C216.335,15.437 216.129,15.64 216.003,15.791 C215.832,15.998 215.702,16.217 215.614,16.449 C215.526,16.681 215.495,16.929 215.524,17.191 C215.551,17.453 215.646,17.698 215.805,17.927 C216.078,18.317 216.442,18.541 216.892,18.599 C217.343,18.656 217.827,18.506 218.339,18.146 C218.651,17.928 218.905,17.673 219.106,17.38 C219.304,17.088 219.463,16.713 219.583,16.259 C219.761,16.463 219.948,16.618 220.145,16.724 L220.971,16.145 C220.747,16.036 220.549,15.895 220.379,15.725 C220.208,15.553 219.865,15.1 219.35,14.363 L218.612,13.307 C218.365,12.955 218.18,12.721 218.06,12.604 C217.862,12.419 217.654,12.298 217.436,12.238 C217.219,12.177 216.955,12.188 216.638,12.268 C216.324,12.349 215.965,12.529 215.568,12.809 C215.166,13.09 214.85,13.393 214.623,13.716 C214.395,14.04 214.271,14.36 214.254,14.677 C214.235,14.994 214.305,15.343 214.467,15.724 L214.467,15.724 Z M218.277,14.537 L218.481,14.827 C218.724,15.177 218.868,15.47 218.908,15.708 C218.959,16.018 218.912,16.323 218.766,16.623 C218.622,16.922 218.399,17.179 218.092,17.393 C217.785,17.608 217.501,17.702 217.243,17.673 C216.984,17.644 216.781,17.524 216.633,17.313 C216.537,17.175 216.487,17.024 216.481,16.86 C216.474,16.696 216.519,16.537 216.613,16.384 C216.707,16.231 216.9,16.017 217.193,15.742 C217.711,15.257 218.072,14.855 218.277,14.537 L218.277,14.537 Z M224.456,13.706 L225.248,13.151 L221.977,8.479 L221.185,9.034 L224.456,13.706 L224.456,13.706 Z M200.076,24.679 C200.287,24.531 200.505,24.45 200.727,24.435 C200.952,24.421 201.15,24.472 201.324,24.588 C201.498,24.704 201.697,24.924 201.924,25.247 L203.914,28.089 L204.705,27.534 L202.693,24.661 C202.436,24.294 202.242,24.049 202.111,23.923 C201.906,23.73 201.686,23.592 201.455,23.51 C201.223,23.428 200.953,23.418 200.644,23.483 C200.336,23.547 200.043,23.678 199.761,23.875 C199.114,24.329 198.797,24.933 198.814,25.686 L198.348,25.021 L197.635,25.52 L200.906,30.192 L201.699,29.638 L199.912,27.086 C199.493,26.488 199.33,25.995 199.426,25.61 C199.523,25.225 199.738,24.915 200.076,24.679 L200.076,24.679 Z M206.584,9.322 C207.28,9.462 207.969,9.294 208.652,8.815 C209.195,8.435 209.548,7.991 209.713,7.482 C209.878,6.973 209.857,6.435 209.651,5.867 L208.761,6.339 C208.874,6.758 208.882,7.115 208.783,7.412 C208.683,7.708 208.49,7.958 208.2,8.161 C207.808,8.434 207.388,8.526 206.935,8.436 C206.484,8.346 206.063,8.054 205.673,7.561 L209.158,5.121 C209.095,5.025 209.048,4.954 209.013,4.907 C208.473,4.136 207.857,3.676 207.161,3.528 C206.468,3.381 205.807,3.525 205.182,3.962 C204.536,4.414 204.163,4.999 204.065,5.716 C203.962,6.434 204.188,7.186 204.739,7.972 C205.275,8.73 205.89,9.18 206.584,9.322 L206.584,9.322 Z M204.992,5.614 C205.068,5.197 205.29,4.861 205.654,4.607 C206.054,4.325 206.488,4.25 206.955,4.378 C207.258,4.459 207.561,4.684 207.873,5.053 L205.264,6.88 C205.006,6.453 204.914,6.031 204.992,5.614 L204.992,5.614 Z M202.396,13.037 L200.61,10.485 C200.191,9.887 200.029,9.395 200.124,9.009 C200.219,8.624 200.436,8.312 200.772,8.076 C200.983,7.928 201.201,7.847 201.424,7.833 C201.648,7.818 201.846,7.869 202.019,7.986 C202.193,8.103 202.392,8.322 202.619,8.645 L204.609,11.487 L205.402,10.933 L203.389,8.06 C203.131,7.693 202.939,7.447 202.805,7.321 C202.6,7.128 202.381,6.99 202.15,6.908 C201.918,6.826 201.648,6.817 201.34,6.882 C201.033,6.945 200.738,7.076 200.457,7.274 C199.809,7.728 199.492,8.332 199.509,9.086 L199.043,8.421 L198.331,8.92 L201.602,13.592 L202.396,13.037 L202.396,13.037 Z M195.824,25.499 L195.187,24.588 L194.393,25.143 L195.033,26.054 L195.824,25.499 L195.824,25.499 Z M164.569,32.561 L163.777,33.115 L167.048,37.787 L167.841,37.233 L164.569,32.561 L164.569,32.561 Z M205.061,42.391 C204.945,42.473 204.838,42.517 204.749,42.524 C204.659,42.53 204.578,42.51 204.505,42.465 C204.432,42.42 204.317,42.285 204.158,42.059 L202.244,39.327 L203.041,38.769 L202.609,38.153 L201.813,38.711 L200.668,37.079 L200.215,38.105 L201.026,39.262 L200.445,39.669 L200.877,40.285 L201.457,39.878 L203.34,42.566 C203.673,43.041 203.924,43.33 204.092,43.433 C204.26,43.536 204.455,43.578 204.677,43.558 C204.9,43.538 205.155,43.428 205.443,43.226 C205.619,43.102 205.8,42.939 205.992,42.736 L205.388,42.117 C205.256,42.238 205.148,42.33 205.061,42.391 L205.061,42.391 Z M198.848,40.787 L200.602,43.29 C200.881,43.689 201.051,44.023 201.113,44.294 C201.173,44.565 201.141,44.834 201.017,45.101 C200.894,45.369 200.713,45.585 200.476,45.752 C200.24,45.918 199.997,45.998 199.753,45.993 C199.508,45.986 199.288,45.897 199.092,45.723 C198.959,45.602 198.748,45.334 198.459,44.921 L196.645,42.33 L195.852,42.885 L197.879,45.78 C198.115,46.117 198.304,46.352 198.445,46.486 C198.654,46.684 198.873,46.823 199.099,46.903 C199.328,46.981 199.597,46.99 199.911,46.928 C200.223,46.866 200.518,46.74 200.794,46.546 C201.419,46.108 201.729,45.498 201.722,44.715 L202.202,45.402 L202.911,44.906 L199.64,40.233 L198.848,40.787 L198.848,40.787 Z M199.703,31.038 L196.432,26.366 L195.64,26.921 L198.911,31.593 L199.703,31.038 L199.703,31.038 Z M195.332,44.783 C195.127,44.59 194.908,44.452 194.676,44.37 C194.445,44.288 194.174,44.279 193.867,44.343 C193.559,44.407 193.264,44.538 192.984,44.735 C192.336,45.189 192.018,45.793 192.037,46.547 L191.571,45.882 L190.858,46.381 L194.129,51.054 L194.92,50.499 L193.133,47.947 C192.715,47.349 192.552,46.857 192.649,46.471 C192.744,46.086 192.961,45.775 193.296,45.539 C193.507,45.391 193.725,45.31 193.948,45.295 C194.172,45.28 194.371,45.332 194.544,45.448 C194.717,45.565 194.917,45.785 195.144,46.108 L197.133,48.95 L197.926,48.395 L195.914,45.522 C195.658,45.155 195.465,44.909 195.332,44.783 L195.332,44.783 Z M177.998,56.849 C177.338,56.73 176.727,56.867 176.164,57.262 C175.738,57.559 175.426,57.979 175.228,58.52 L174.361,56.543 L176.935,54.741 L176.406,53.984 L173.198,56.23 L174.892,59.98 L175.704,59.556 C175.691,59.289 175.747,59.026 175.872,58.766 C175.996,58.507 176.185,58.287 176.44,58.109 C176.851,57.821 177.274,57.719 177.711,57.803 C178.148,57.886 178.523,58.154 178.84,58.605 C179.172,59.081 179.308,59.554 179.244,60.026 C179.182,60.498 178.96,60.868 178.578,61.135 C178.262,61.357 177.92,61.444 177.553,61.398 C177.187,61.351 176.83,61.147 176.485,60.785 L175.704,61.437 C176.136,61.943 176.653,62.23 177.255,62.299 C177.856,62.367 178.448,62.196 179.036,61.786 C179.751,61.285 180.134,60.628 180.181,59.817 C180.224,59.153 180.04,58.529 179.632,57.946 C179.203,57.333 178.658,56.967 177.998,56.849 L177.998,56.849 Z M169.814,58.429 C169.871,58.804 169.837,59.256 169.713,59.784 C169.589,60.313 169.378,60.836 169.081,61.354 L169.617,62.12 C169.8,61.857 169.982,61.525 170.165,61.127 C170.347,60.729 170.47,60.372 170.532,60.056 L174.066,65.103 L174.858,64.548 L170.323,58.071 L169.814,58.429 L169.814,58.429 Z M185.188,47.703 L186.787,53.272 C186.951,53.835 187.077,54.26 187.168,54.546 C186.956,54.38 186.631,54.134 186.191,53.807 L181.465,50.309 L180.181,51.208 L184.698,57.658 L185.519,57.082 L181.674,51.591 L187.385,55.776 L188.156,55.237 L186.251,48.526 L190.03,53.925 L190.852,53.349 L186.335,46.899 L185.188,47.703 L185.188,47.703 Z M229.778,19.129 L228.754,19.847 L228.21,23.06 L225.635,19.382 L224.842,19.936 L229.361,26.386 L230.152,25.832 L228.854,23.979 L229.039,23.051 L232.256,24.359 L233.234,23.675 L229.21,22.113 L229.778,19.129 L229.778,19.129 Z M235.458,22.057 C235.244,21.106 234.859,20.234 234.305,19.442 C233.818,18.744 233.236,18.154 232.562,17.673 C231.779,17.116 230.853,16.662 229.787,16.312 L229.22,16.709 C230.01,17.074 230.554,17.349 230.853,17.533 C231.316,17.813 231.75,18.137 232.16,18.508 C232.666,18.962 233.111,19.465 233.498,20.017 C234.486,21.428 235.035,23.144 235.143,25.166 L235.711,24.769 C235.754,23.913 235.672,23.009 235.458,22.057 L235.458,22.057 Z M222.818,21.354 L227.335,27.804 L228.127,27.25 L223.61,20.8 L222.818,21.354 L222.818,21.354 Z M216.605,25.704 L218.496,30.557 C218.734,31.178 218.955,31.721 219.158,32.185 C218.555,31.544 217.855,30.9 217.056,30.253 L213.846,27.635 L212.818,28.356 L214.639,33.571 C214.684,33.697 214.867,34.163 215.184,34.967 C214.801,34.584 214.403,34.207 213.988,33.839 L210.046,30.297 L209.17,30.91 L215.399,36.162 L216.269,35.552 L214.198,29.679 C214.11,29.429 213.997,29.134 213.856,28.79 C213.943,28.87 214.187,29.074 214.587,29.405 L219.388,33.367 L220.211,32.791 L217.463,25.103 L216.605,25.704 L216.605,25.704 Z M224.754,26.693 L224.016,25.637 C223.769,25.285 223.584,25.05 223.463,24.934 C223.266,24.75 223.057,24.628 222.84,24.568 C222.623,24.507 222.359,24.518 222.041,24.598 C221.727,24.679 221.37,24.859 220.971,25.139 C220.571,25.42 220.255,25.723 220.028,26.046 C219.799,26.371 219.675,26.691 219.658,27.007 C219.639,27.324 219.711,27.673 219.873,28.053 L220.721,27.616 C220.575,27.225 220.544,26.902 220.63,26.647 C220.716,26.393 220.945,26.135 221.318,25.875 C221.715,25.596 222.08,25.475 222.408,25.511 C222.649,25.538 222.884,25.714 223.109,26.036 C223.13,26.065 223.175,26.135 223.25,26.245 C223.021,26.562 222.615,26.983 222.028,27.507 C221.741,27.765 221.535,27.969 221.408,28.119 C221.238,28.326 221.108,28.545 221.018,28.777 C220.93,29.009 220.901,29.257 220.928,29.519 C220.955,29.781 221.051,30.026 221.211,30.255 C221.483,30.645 221.846,30.869 222.297,30.927 C222.748,30.985 223.231,30.834 223.744,30.474 C224.055,30.256 224.309,30.001 224.51,29.708 C224.709,29.416 224.867,29.041 224.988,28.587 C225.166,28.791 225.352,28.946 225.55,29.053 L226.377,28.474 C226.151,28.365 225.954,28.224 225.784,28.053 C225.612,27.883 225.27,27.43 224.754,26.693 L224.754,26.693 Z M224.172,28.953 C224.028,29.252 223.804,29.509 223.498,29.723 C223.19,29.939 222.907,30.032 222.649,30.003 C222.389,29.974 222.186,29.854 222.039,29.643 C221.943,29.505 221.893,29.354 221.887,29.19 C221.881,29.026 221.925,28.867 222.019,28.714 C222.114,28.561 222.306,28.347 222.598,28.072 C223.117,27.588 223.477,27.185 223.683,26.867 L223.886,27.158 C224.131,27.507 224.274,27.801 224.313,28.039 C224.363,28.348 224.316,28.653 224.172,28.953 L224.172,28.953 Z M208.801,38.539 C208.914,38.958 208.923,39.316 208.824,39.612 C208.725,39.908 208.531,40.158 208.24,40.361 C207.849,40.634 207.428,40.726 206.976,40.636 C206.525,40.546 206.103,40.255 205.715,39.761 L209.199,37.321 C209.137,37.225 209.088,37.154 209.054,37.107 C208.514,36.336 207.898,35.876 207.203,35.728 C206.51,35.581 205.849,35.725 205.224,36.163 C204.579,36.615 204.206,37.2 204.106,37.917 C204.004,38.634 204.231,39.386 204.781,40.172 C205.313,40.932 205.927,41.382 206.622,41.523 C207.317,41.663 208.006,41.495 208.689,41.016 C209.232,40.636 209.585,40.192 209.749,39.683 C209.914,39.175 209.893,38.636 209.687,38.068 L208.801,38.539 L208.801,38.539 Z M205.032,37.814 C205.109,37.397 205.33,37.062 205.693,36.807 C206.094,36.525 206.529,36.449 206.995,36.578 C207.297,36.659 207.603,36.884 207.914,37.253 L205.305,39.08 C205.045,38.653 204.955,38.231 205.032,37.814 L205.032,37.814 Z M188.861,47.78 L192.132,52.453 L192.924,51.898 L189.653,47.225 L188.861,47.78 L188.861,47.78 Z M167.342,30.62 L167.774,31.236 L168.354,30.829 L170.237,33.517 C170.569,33.992 170.819,34.281 170.987,34.384 C171.156,34.488 171.352,34.529 171.573,34.509 C171.796,34.489 172.05,34.379 172.338,34.177 C172.514,34.054 172.696,33.89 172.887,33.687 L172.283,33.068 C172.154,33.189 172.045,33.281 171.957,33.342 C171.84,33.424 171.736,33.468 171.646,33.474 C171.557,33.48 171.475,33.46 171.402,33.415 C171.33,33.37 171.214,33.235 171.056,33.009 L169.142,30.277 L169.939,29.719 L169.507,29.103 L168.71,29.661 L167.567,28.029 L167.112,29.056 L167.923,30.213 L167.342,30.62 L167.342,30.62 Z M173.495,32.494 C174.193,32.631 174.868,32.471 175.521,32.013 C175.929,31.727 176.24,31.368 176.451,30.936 C176.662,30.504 176.736,30.052 176.676,29.582 C176.615,29.111 176.374,28.575 175.953,27.974 C175.433,27.232 174.822,26.793 174.119,26.657 C173.418,26.522 172.745,26.679 172.102,27.129 C171.525,27.533 171.156,28.05 170.997,28.677 C170.807,29.43 171.016,30.24 171.621,31.105 C172.174,31.894 172.799,32.357 173.495,32.494 L173.495,32.494 Z M172.562,27.784 C172.952,27.511 173.383,27.431 173.854,27.545 C174.325,27.659 174.762,28.004 175.167,28.583 C175.596,29.196 175.785,29.743 175.733,30.226 C175.681,30.708 175.459,31.086 175.066,31.362 C174.67,31.639 174.238,31.72 173.768,31.606 C173.298,31.491 172.854,31.134 172.435,30.536 C172.016,29.937 171.833,29.399 171.886,28.92 C171.941,28.439 172.166,28.061 172.562,27.784 L172.562,27.784 Z M186.998,23.82 L185.433,21.585 L185.768,19.816 L190.35,21.472 L191.477,20.683 L185.965,18.824 L186.842,14.316 L185.684,15.126 L184.722,20.568 L182.482,17.369 L181.628,17.967 L186.146,24.417 L186.998,23.82 L186.998,23.82 Z M179.355,29.171 L177.568,26.619 C177.149,26.021 176.987,25.529 177.083,25.143 C177.178,24.758 177.394,24.446 177.73,24.21 C177.941,24.062 178.16,23.981 178.383,23.967 C178.607,23.952 178.805,24.003 178.978,24.12 C179.152,24.237 179.351,24.456 179.578,24.779 L181.568,27.621 L182.36,27.067 L180.348,24.194 C180.091,23.827 179.897,23.581 179.765,23.455 C179.56,23.262 179.341,23.124 179.109,23.042 C178.877,22.96 178.607,22.951 178.3,23.016 C177.992,23.079 177.698,23.21 177.417,23.408 C176.769,23.862 176.452,24.466 176.469,25.22 L176.003,24.555 L175.29,25.054 L178.562,29.726 L179.355,29.171 L179.355,29.171 Z M198.495,16.071 C198.602,16.463 198.66,16.716 198.666,16.83 C198.672,16.983 198.644,17.126 198.579,17.258 C198.514,17.391 198.393,17.519 198.219,17.642 C198.089,17.732 197.922,17.815 197.715,17.889 L198.324,18.571 C198.555,18.504 198.75,18.417 198.902,18.31 C199.154,18.133 199.329,17.921 199.424,17.671 C199.522,17.422 199.548,17.118 199.506,16.758 C199.476,16.491 199.376,16.034 199.208,15.387 L197.658,9.39 L196.865,9.945 L197.774,13.368 C197.889,13.802 198.03,14.234 198.194,14.66 C197.83,14.351 197.464,14.07 197.096,13.815 L194.23,11.79 L193.376,12.388 L198.427,15.827 C198.457,15.936 198.479,16.017 198.495,16.071 L198.495,16.071 Z M192.057,19.494 C192.752,19.635 193.442,19.466 194.124,18.987 C194.667,18.607 195.02,18.162 195.186,17.654 C195.35,17.145 195.33,16.607 195.124,16.038 L194.234,16.51 C194.348,16.928 194.356,17.286 194.256,17.582 C194.158,17.878 193.963,18.128 193.673,18.331 C193.283,18.604 192.861,18.696 192.41,18.606 C191.957,18.516 191.537,18.225 191.148,17.732 L194.631,15.292 C194.569,15.196 194.521,15.125 194.487,15.078 C193.947,14.307 193.33,13.847 192.635,13.699 C191.943,13.552 191.281,13.696 190.656,14.134 C190.01,14.586 189.637,15.171 189.537,15.888 C189.435,16.605 189.662,17.357 190.213,18.143 C190.748,18.903 191.361,19.353 192.057,19.494 L192.057,19.494 Z M190.464,15.786 C190.541,15.369 190.762,15.034 191.125,14.779 C191.527,14.498 191.961,14.422 192.428,14.55 C192.729,14.632 193.035,14.856 193.346,15.225 L190.738,17.052 C190.478,16.625 190.387,16.204 190.464,15.786 L190.464,15.786 Z M164.861,51.631 C164.442,51.033 164.279,50.541 164.375,50.155 C164.471,49.77 164.686,49.459 165.023,49.222 C165.234,49.074 165.452,48.993 165.675,48.979 C165.899,48.964 166.097,49.016 166.271,49.132 C166.445,49.249 166.644,49.468 166.871,49.791 L168.861,52.633 L169.652,52.078 L167.64,49.205 C167.384,48.838 167.189,48.592 167.058,48.466 C166.853,48.273 166.634,48.135 166.402,48.053 C166.17,47.971 165.9,47.962 165.592,48.027 C165.284,48.09 164.991,48.221 164.709,48.419 C164.061,48.873 163.745,49.477 163.761,50.231 L163.296,49.566 L162.583,50.065 L165.854,54.737 L166.647,54.182 L164.861,51.631 L164.861,51.631 Z M169.821,35.847 L165.304,29.397 L164.512,29.952 L169.029,36.402 L169.821,35.847 L169.821,35.847 Z M168.229,65.715 C167.84,65.161 167.518,64.565 167.259,63.928 C167.054,63.416 166.899,62.895 166.795,62.366 C166.727,62.025 166.656,61.425 166.583,60.567 L166.016,60.964 C165.98,62.087 166.09,63.11 166.346,64.038 C166.567,64.836 166.922,65.583 167.411,66.282 C167.966,67.074 168.653,67.734 169.473,68.261 C170.293,68.789 171.114,69.176 171.938,69.421 L172.504,69.024 C170.642,68.229 169.217,67.126 168.229,65.715 L168.229,65.715 Z M157.457,57.249 C157.72,57.874 157.782,58.44 157.644,58.948 C157.506,59.456 157.198,59.877 156.719,60.212 C156.325,60.487 155.89,60.642 155.41,60.675 C154.931,60.709 154.469,60.577 154.022,60.279 C153.576,59.982 153.161,59.559 152.777,59.01 C152.479,58.585 152.257,58.125 152.111,57.63 C151.966,57.135 151.976,56.652 152.143,56.182 C152.31,55.712 152.641,55.302 153.136,54.955 C153.568,54.653 154.001,54.51 154.435,54.525 C154.87,54.54 155.326,54.73 155.804,55.094 L156.505,54.307 C155.915,53.832 155.285,53.585 154.615,53.565 C153.946,53.544 153.288,53.76 152.642,54.211 C152.073,54.609 151.643,55.105 151.35,55.696 C151.059,56.287 150.959,56.923 151.053,57.603 C151.147,58.283 151.428,58.958 151.899,59.63 C152.33,60.246 152.847,60.743 153.45,61.121 C154.054,61.498 154.673,61.676 155.305,61.655 C155.94,61.633 156.604,61.379 157.299,60.892 C157.971,60.422 158.41,59.84 158.617,59.145 C158.824,58.452 158.771,57.692 158.459,56.865 L157.457,57.249 L157.457,57.249 Z M162.989,54.502 C163.103,54.921 163.111,55.278 163.012,55.575 C162.913,55.871 162.719,56.121 162.429,56.324 C162.038,56.597 161.617,56.689 161.165,56.599 C160.713,56.509 160.292,56.217 159.903,55.724 L163.387,53.284 C163.325,53.188 163.277,53.117 163.244,53.07 C162.703,52.299 162.087,51.839 161.392,51.691 C160.699,51.544 160.039,51.688 159.414,52.125 C158.768,52.577 158.395,53.162 158.295,53.879 C158.194,54.597 158.419,55.349 158.97,56.135 C159.501,56.894 160.115,57.344 160.81,57.486 C161.505,57.626 162.195,57.458 162.878,56.979 C163.421,56.599 163.774,56.155 163.939,55.646 C164.104,55.137 164.082,54.599 163.877,54.031 L162.989,54.502 L162.989,54.502 Z M159.221,53.778 C159.297,53.361 159.519,53.025 159.882,52.771 C160.284,52.489 160.717,52.413 161.184,52.542 C161.486,52.624 161.791,52.848 162.102,53.217 L159.493,55.044 C159.234,54.617 159.143,54.195 159.221,53.778 L159.221,53.778 Z M163.963,31.694 L163.324,30.783 L162.533,31.337 L163.171,32.248 L163.963,31.694 L163.963,31.694 Z M160.437,42.418 L156.592,36.927 L162.302,41.112 L163.073,40.573 L161.167,33.862 L164.947,39.26 L165.77,38.684 L161.252,32.234 L160.104,33.038 L161.703,38.607 C161.866,39.17 161.993,39.595 162.084,39.881 C161.872,39.715 161.546,39.468 161.108,39.142 L156.382,35.644 L155.098,36.543 L159.614,42.993 L160.437,42.418 L160.437,42.418 Z M160.437,42.418" class="Shape"/>
                <path d="M331.366,52.822 L328.095,57.495 L328.887,58.05 L330.673,55.497 C331.093,54.899 331.501,54.579 331.897,54.536 C332.292,54.493 332.658,54.591 332.995,54.827 C333.206,54.975 333.356,55.151 333.446,55.356 C333.538,55.561 333.555,55.764 333.507,55.968 C333.456,56.17 333.319,56.434 333.093,56.756 L331.103,59.599 L331.894,60.153 L333.907,57.28 C334.165,56.914 334.33,56.647 334.403,56.479 C334.513,56.221 334.569,55.969 334.566,55.721 C334.563,55.475 334.479,55.219 334.315,54.951 C334.149,54.685 333.924,54.453 333.644,54.256 C332.997,53.803 332.321,53.712 331.619,53.985 L332.085,53.32 L331.366,52.822 L331.366,52.822 Z M327.55,55.979 L323.591,53.206 L325.128,51.011 L328.696,53.509 L329.224,52.753 L325.657,50.255 L327.041,48.278 L330.851,50.946 L331.384,50.185 L326.72,46.919 L322.204,53.369 L327.016,56.74 L327.55,55.979 L327.55,55.979 Z M319.893,66.771 C319.858,66.689 319.847,66.606 319.866,66.522 C319.884,66.439 319.97,66.283 320.129,66.056 L322.042,63.325 L322.839,63.883 L323.271,63.268 L322.474,62.709 L323.618,61.076 L322.497,61 L321.685,62.158 L321.105,61.752 L320.673,62.367 L321.253,62.773 L319.37,65.461 C319.038,65.937 318.85,66.271 318.813,66.464 C318.774,66.657 318.8,66.855 318.895,67.057 C318.991,67.259 319.181,67.46 319.468,67.661 C319.645,67.784 319.86,67.9 320.115,68.011 L320.491,67.231 C320.332,67.15 320.21,67.08 320.122,67.019 C320.007,66.936 319.929,66.854 319.893,66.771 L319.893,66.771 Z M327.219,67.022 C327.278,66.705 327.227,66.387 327.068,66.073 C326.909,65.758 326.655,65.479 326.309,65.237 C325.747,64.842 325.128,64.729 324.459,64.899 L326.079,62.585 L325.287,62.03 L320.769,68.481 L321.563,69.036 L323.351,66.479 C323.61,66.112 323.854,65.856 324.087,65.709 C324.321,65.562 324.583,65.5 324.876,65.523 C325.168,65.546 325.431,65.64 325.665,65.804 C325.979,66.023 326.159,66.283 326.204,66.583 C326.249,66.884 326.134,67.232 325.856,67.628 L323.783,70.59 L324.575,71.144 L326.648,68.183 C326.971,67.728 327.16,67.339 327.219,67.022 L327.219,67.022 Z M349.34,71.593 C349.436,72.284 349.804,72.853 350.444,73.3 C350.954,73.657 351.492,73.808 352.053,73.749 C352.616,73.69 353.128,73.423 353.589,72.946 L352.88,72.3 C352.548,72.655 352.21,72.857 351.868,72.903 C351.527,72.948 351.2,72.861 350.889,72.644 C350.502,72.373 350.287,72.01 350.245,71.556 C350.205,71.105 350.404,70.564 350.844,69.937 C351.279,69.318 351.718,68.953 352.168,68.841 C352.617,68.73 353.041,68.814 353.439,69.093 C353.704,69.277 353.875,69.515 353.949,69.803 C354.025,70.092 353.989,70.419 353.844,70.784 L354.697,71.204 C354.936,70.667 354.986,70.159 354.843,69.676 C354.7,69.195 354.375,68.775 353.867,68.419 C353.466,68.138 353.027,67.972 352.554,67.923 C352.08,67.872 351.626,67.978 351.196,68.239 C350.762,68.501 350.371,68.884 350.016,69.387 C349.468,70.168 349.243,70.903 349.34,71.593 L349.34,71.593 Z M363.704,78.062 L366.73,80.182 L367.263,79.421 L364.237,77.301 L365.634,75.304 L369.132,77.753 L369.665,76.991 L365.313,73.944 L360.795,80.394 L361.649,80.992 L363.704,78.062 L363.704,78.062 Z M334.21,59.737 C333.878,60.213 333.691,60.547 333.653,60.74 C333.613,60.934 333.639,61.132 333.735,61.333 C333.831,61.534 334.021,61.737 334.308,61.938 C334.485,62.061 334.7,62.176 334.955,62.286 L335.33,61.507 C335.173,61.427 335.05,61.357 334.962,61.294 C334.845,61.212 334.767,61.13 334.732,61.048 C334.696,60.966 334.685,60.882 334.704,60.798 C334.722,60.714 334.808,60.559 334.967,60.333 L336.88,57.601 L337.677,58.16 L338.11,57.543 L337.312,56.985 L338.456,55.353 L337.337,55.277 L336.526,56.434 L335.945,56.027 L335.512,56.644 L336.093,57.05 L334.21,59.737 L334.21,59.737 Z M369.421,79.468 L366.15,84.142 L366.942,84.697 L368.655,82.25 C368.887,81.916 369.148,81.639 369.432,81.418 C369.62,81.275 369.822,81.199 370.032,81.191 C370.242,81.183 370.435,81.24 370.607,81.361 C370.799,81.498 370.955,81.689 371.068,81.939 L371.855,81.396 C371.699,81.033 371.487,80.757 371.219,80.571 C371.033,80.441 370.828,80.376 370.6,80.373 C370.371,80.371 370.051,80.473 369.637,80.676 L370.133,79.968 L369.421,79.468 L369.421,79.468 Z M336.394,63.306 L338.108,60.86 C338.341,60.525 338.6,60.248 338.885,60.028 C339.073,59.884 339.274,59.809 339.485,59.801 C339.696,59.793 339.886,59.851 340.06,59.972 C340.253,60.107 340.407,60.3 340.52,60.549 L341.308,60.006 C341.151,59.643 340.94,59.367 340.672,59.181 C340.486,59.051 340.28,58.986 340.052,58.983 C339.825,58.982 339.504,59.082 339.089,59.287 L339.585,58.578 L338.874,58.08 L335.602,62.752 L336.394,63.306 L336.394,63.306 Z M341.518,62.074 C341.835,61.802 342.128,61.663 342.398,61.657 C342.667,61.651 342.987,61.778 343.36,62.039 C343.758,62.318 343.997,62.618 344.074,62.938 C344.132,63.175 344.048,63.455 343.821,63.778 C343.8,63.807 343.751,63.874 343.673,63.981 C343.296,63.876 342.762,63.636 342.069,63.264 C341.727,63.082 341.465,62.957 341.282,62.891 C341.029,62.801 340.779,62.755 340.53,62.751 C340.282,62.747 340.038,62.804 339.801,62.92 C339.564,63.036 339.366,63.209 339.206,63.438 C338.933,63.828 338.846,64.245 338.946,64.689 C339.046,65.133 339.352,65.534 339.867,65.894 C340.178,66.112 340.504,66.264 340.846,66.351 C341.19,66.438 341.594,66.459 342.063,66.416 C341.932,66.652 341.85,66.881 341.819,67.104 L342.645,67.682 C342.67,67.434 342.736,67.2 342.837,66.982 C342.941,66.762 343.248,66.286 343.764,65.549 L344.504,64.492 C344.75,64.14 344.908,63.888 344.976,63.734 C345.08,63.484 345.125,63.248 345.108,63.023 C345.089,62.798 344.99,62.552 344.805,62.284 C344.621,62.016 344.33,61.742 343.932,61.463 C343.531,61.182 343.137,60.988 342.755,60.885 C342.373,60.782 342.029,60.776 341.726,60.866 C341.422,60.956 341.121,61.142 340.818,61.426 L341.518,62.074 L341.518,62.074 Z M343.032,64.893 C342.788,65.242 342.558,65.476 342.349,65.595 C342.077,65.749 341.774,65.809 341.444,65.777 C341.112,65.744 340.794,65.621 340.489,65.406 C340.179,65.191 339.997,64.957 339.934,64.705 C339.872,64.452 339.915,64.22 340.064,64.009 C340.161,63.871 340.286,63.772 340.437,63.709 C340.589,63.648 340.753,63.635 340.929,63.671 C341.107,63.707 341.373,63.816 341.732,63.996 C342.364,64.316 342.866,64.518 343.236,64.603 L343.032,64.893 L343.032,64.893 Z M344.413,68.921 L346.2,66.369 C346.618,65.77 347.026,65.45 347.421,65.407 C347.817,65.365 348.183,65.462 348.522,65.698 C348.733,65.846 348.882,66.022 348.972,66.228 C349.063,66.432 349.081,66.636 349.034,66.84 C348.981,67.042 348.845,67.305 348.618,67.628 L346.628,70.471 L347.421,71.025 L349.433,68.152 C349.689,67.786 349.855,67.518 349.927,67.351 C350.038,67.092 350.093,66.84 350.091,66.593 C350.089,66.346 350.005,66.09 349.839,65.823 C349.675,65.556 349.45,65.324 349.169,65.128 C348.521,64.674 347.845,64.584 347.144,64.857 L347.61,64.192 L346.896,63.693 L343.625,68.365 L344.413,68.921 L344.413,68.921 Z M352.273,84.638 C352.466,84.775 352.62,84.967 352.734,85.216 L353.521,84.673 C353.364,84.31 353.153,84.034 352.885,83.849 C352.699,83.718 352.493,83.653 352.265,83.65 C352.038,83.649 351.717,83.75 351.302,83.953 L351.798,83.245 L351.086,82.746 L347.815,87.42 L348.607,87.975 L350.32,85.528 C350.553,85.194 350.811,84.917 351.097,84.696 C351.285,84.553 351.486,84.477 351.697,84.469 C351.909,84.461 352.101,84.517 352.273,84.638 L352.273,84.638 Z M332.13,70.265 C332.032,69.564 331.671,68.994 331.046,68.555 C330.401,68.103 329.724,67.953 329.015,68.104 C328.307,68.254 327.676,68.722 327.126,69.508 C326.594,70.268 326.382,70.999 326.487,71.7 C326.591,72.401 326.987,72.991 327.671,73.47 C328.213,73.85 328.751,74.031 329.286,74.011 C329.819,73.99 330.318,73.786 330.782,73.4 L330.034,72.726 C329.68,72.976 329.346,73.105 329.034,73.114 C328.722,73.123 328.421,73.025 328.131,72.822 C327.74,72.549 327.511,72.184 327.442,71.728 C327.372,71.273 327.503,70.778 327.833,70.245 L331.317,72.685 C331.384,72.593 331.436,72.523 331.468,72.476 C332.008,71.704 332.229,70.968 332.13,70.265 L332.13,70.265 Z M330.94,71.45 L328.33,69.624 C328.642,69.235 329.007,69.005 329.426,68.935 C329.845,68.867 330.237,68.958 330.599,69.213 C331.001,69.494 331.222,69.876 331.26,70.357 C331.286,70.668 331.18,71.033 330.94,71.45 L330.94,71.45 Z M367.374,94.565 C367.304,94.133 367.037,93.756 366.574,93.431 C365.981,93.016 365.308,92.952 364.556,93.239 C364.647,92.918 364.63,92.607 364.509,92.309 C364.388,92.009 364.155,91.739 363.81,91.497 C363.498,91.279 363.173,91.155 362.831,91.124 C362.489,91.093 362.165,91.14 361.858,91.267 L362.317,90.611 L361.609,90.115 L358.338,94.788 L359.13,95.343 L360.827,92.918 C361.125,92.493 361.395,92.197 361.639,92.031 C361.881,91.865 362.139,91.789 362.41,91.804 C362.681,91.819 362.928,91.905 363.152,92.061 C363.445,92.267 363.592,92.502 363.598,92.768 C363.605,93.035 363.486,93.343 363.239,93.696 L361.113,96.732 L361.905,97.287 L363.805,94.572 C364.141,94.092 364.494,93.818 364.866,93.751 C365.238,93.684 365.586,93.766 365.914,93.996 C366.096,94.123 366.225,94.277 366.301,94.456 C366.375,94.636 366.392,94.812 366.344,94.988 C366.297,95.164 366.163,95.41 365.943,95.726 L363.881,98.669 L364.668,99.221 L366.914,96.013 C367.291,95.479 367.443,94.997 367.374,94.565 L367.374,94.565 Z M358.696,89.417 L359.597,90.049 L360.228,89.148 L359.328,88.516 L358.696,89.417 L358.696,89.417 Z M383.203,89.534 C383.134,89.103 382.866,88.725 382.403,88.401 C381.809,87.985 381.137,87.922 380.385,88.209 C380.475,87.888 380.46,87.577 380.339,87.278 C380.218,86.979 379.985,86.709 379.638,86.466 C379.327,86.249 379.001,86.124 378.661,86.093 C378.319,86.062 377.995,86.11 377.688,86.236 L378.147,85.581 L377.438,85.084 L374.167,89.758 L374.959,90.313 L376.656,87.888 C376.954,87.463 377.224,87.167 377.468,87 C377.712,86.834 377.97,86.758 378.239,86.773 C378.51,86.789 378.759,86.875 378.981,87.031 C379.275,87.236 379.423,87.472 379.429,87.738 C379.435,88.004 379.315,88.313 379.069,88.666 L376.944,91.701 L377.735,92.256 L379.635,89.541 C379.972,89.061 380.325,88.787 380.696,88.721 C381.066,88.653 381.416,88.736 381.745,88.965 C381.927,89.093 382.056,89.246 382.131,89.426 C382.206,89.606 382.22,89.782 382.174,89.957 C382.128,90.133 381.993,90.379 381.774,90.695 L379.712,93.638 L380.5,94.191 L382.745,90.983 C383.12,90.448 383.271,89.966 383.203,89.534 L383.203,89.534 Z M356.391,76.153 C356.079,76.163 355.779,76.065 355.489,75.862 C355.097,75.589 354.868,75.224 354.799,74.768 C354.73,74.313 354.86,73.818 355.191,73.285 L358.675,75.725 C358.743,75.632 358.794,75.563 358.826,75.516 C359.366,74.745 359.587,74.008 359.489,73.305 C359.39,72.603 359.03,72.034 358.404,71.594 C357.758,71.143 357.083,70.992 356.374,71.144 C355.665,71.293 355.035,71.762 354.483,72.548 C353.952,73.308 353.74,74.039 353.843,74.74 C353.949,75.441 354.344,76.031 355.03,76.51 C355.571,76.889 356.11,77.07 356.642,77.051 C357.176,77.03 357.675,76.826 358.139,76.44 L357.392,75.765 C357.036,76.017 356.703,76.146 356.391,76.153 L356.391,76.153 Z M356.782,71.976 C357.201,71.907 357.592,71.999 357.956,72.253 C358.357,72.534 358.578,72.916 358.616,73.398 C358.641,73.71 358.536,74.074 358.296,74.492 L355.687,72.666 C355.999,72.276 356.364,72.046 356.782,71.976 L356.782,71.976 Z M374.923,86.704 C375.444,85.962 375.647,85.237 375.532,84.531 C375.418,83.825 375.042,83.247 374.399,82.797 C373.822,82.393 373.21,82.223 372.566,82.287 C371.794,82.366 371.103,82.839 370.499,83.704 C369.946,84.493 369.725,85.239 369.835,85.94 C369.944,86.643 370.325,87.222 370.981,87.68 C371.388,87.965 371.833,88.133 372.31,88.184 C372.789,88.235 373.239,88.151 373.66,87.933 C374.081,87.716 374.501,87.305 374.923,86.704 L374.923,86.704 Z M372.731,87.269 C372.259,87.384 371.829,87.304 371.435,87.03 C371.039,86.753 370.815,86.375 370.761,85.894 C370.709,85.414 370.892,84.873 371.313,84.275 C371.731,83.677 372.174,83.322 372.642,83.208 C373.112,83.094 373.543,83.176 373.94,83.453 C374.331,83.726 374.552,84.103 374.606,84.586 C374.661,85.067 374.485,85.597 374.081,86.175 C373.651,86.787 373.202,87.151 372.731,87.269 L372.731,87.269 Z M368.583,97.829 L371.159,94.15 L370.366,93.596 L365.849,100.045 L366.641,100.6 L367.939,98.747 L368.874,98.601 L368.745,102.072 L369.722,102.756 L369.814,98.44 L372.814,97.958 L371.79,97.24 L368.583,97.829 L368.583,97.829 Z M338.55,79.776 C338.239,79.785 337.938,79.688 337.649,79.484 C337.257,79.212 337.028,78.846 336.958,78.391 C336.889,77.936 337.019,77.44 337.349,76.907 L340.834,79.347 C340.902,79.254 340.953,79.186 340.985,79.139 C341.526,78.368 341.747,77.63 341.648,76.928 C341.549,76.225 341.189,75.656 340.563,75.217 C339.917,74.766 339.242,74.615 338.534,74.766 C337.825,74.916 337.194,75.385 336.642,76.17 C336.112,76.93 335.899,77.661 336.003,78.362 C336.108,79.063 336.503,79.653 337.188,80.133 C337.731,80.512 338.268,80.692 338.802,80.673 C339.335,80.652 339.835,80.449 340.298,80.062 L339.551,79.387 C339.196,79.639 338.862,79.769 338.55,79.776 L338.55,79.776 Z M338.942,75.599 C339.36,75.529 339.751,75.621 340.116,75.876 C340.515,76.157 340.737,76.538 340.776,77.021 C340.8,77.332 340.696,77.697 340.456,78.115 L337.847,76.288 C338.159,75.898 338.524,75.669 338.942,75.599 L338.942,75.599 Z M334.328,72.463 C334.778,72.353 335.202,72.436 335.599,72.715 C335.864,72.9 336.035,73.137 336.11,73.425 C336.184,73.714 336.149,74.041 336.004,74.407 L336.858,74.827 C337.096,74.29 337.147,73.782 337.003,73.298 C336.86,72.817 336.535,72.398 336.028,72.042 C335.626,71.761 335.188,71.595 334.714,71.546 C334.24,71.495 333.786,71.601 333.355,71.862 C332.922,72.123 332.532,72.506 332.177,73.01 C331.63,73.789 331.406,74.526 331.501,75.215 C331.597,75.905 331.964,76.475 332.605,76.922 C333.116,77.279 333.653,77.429 334.214,77.371 C334.777,77.312 335.289,77.045 335.751,76.568 L335.042,75.921 C334.709,76.277 334.372,76.479 334.03,76.524 C333.687,76.569 333.362,76.483 333.051,76.265 C332.664,75.994 332.449,75.631 332.407,75.178 C332.366,74.726 332.566,74.186 333.005,73.558 C333.438,72.94 333.878,72.574 334.328,72.463 L334.328,72.463 Z M356.057,93.188 L356.958,93.819 L357.59,92.917 L356.69,92.286 L356.057,93.188 L356.057,93.188 Z M346.614,81.147 C346.723,80.887 346.779,80.635 346.777,80.389 C346.774,80.143 346.69,79.885 346.525,79.619 C346.36,79.352 346.135,79.121 345.855,78.924 C345.208,78.47 344.532,78.379 343.83,78.653 L344.295,77.989 L343.581,77.489 L340.31,82.162 L341.101,82.717 L342.887,80.165 C343.307,79.566 343.714,79.247 344.111,79.204 C344.506,79.161 344.871,79.258 345.209,79.495 C345.42,79.641 345.57,79.818 345.66,80.024 C345.751,80.229 345.77,80.432 345.721,80.635 C345.67,80.838 345.533,81.101 345.307,81.424 L343.318,84.266 L344.109,84.821 L346.121,81.948 C346.376,81.581 346.541,81.314 346.614,81.147 L346.614,81.147 Z M354.077,90.648 C353.765,90.657 353.464,90.559 353.174,90.356 C352.784,90.083 352.554,89.719 352.485,89.263 C352.416,88.808 352.546,88.313 352.876,87.78 L356.36,90.219 C356.427,90.127 356.479,90.058 356.511,90.011 C357.051,89.24 357.274,88.502 357.173,87.799 C357.076,87.098 356.715,86.528 356.089,86.09 C355.444,85.638 354.767,85.488 354.059,85.639 C353.351,85.79 352.72,86.256 352.169,87.043 C351.638,87.803 351.425,88.533 351.53,89.234 C351.634,89.935 352.03,90.525 352.714,91.004 C353.257,91.385 353.794,91.565 354.329,91.545 C354.862,91.525 355.362,91.321 355.825,90.934 L355.077,90.26 C354.724,90.511 354.39,90.64 354.077,90.648 L354.077,90.648 Z M354.47,86.471 C354.888,86.402 355.28,86.493 355.643,86.748 C356.044,87.029 356.265,87.411 356.304,87.893 C356.329,88.205 356.224,88.569 355.985,88.987 L353.376,87.16 C353.688,86.771 354.051,86.54 354.47,86.471 L354.47,86.471 Z M346.947,85.715 C346.91,85.632 346.901,85.55 346.919,85.466 C346.938,85.382 347.023,85.226 347.181,85 L349.095,82.269 L349.892,82.827 L350.324,82.211 L349.527,81.652 L350.671,80.02 L349.551,79.944 L348.74,81.101 L348.159,80.695 L347.727,81.31 L348.308,81.717 L346.425,84.405 C346.093,84.88 345.906,85.214 345.868,85.407 C345.828,85.601 345.855,85.798 345.95,86.001 C346.046,86.202 346.237,86.404 346.524,86.605 C346.7,86.728 346.915,86.844 347.17,86.954 L347.546,86.175 C347.387,86.094 347.266,86.024 347.178,85.962 C347.061,85.88 346.983,85.797 346.947,85.715 L346.947,85.715 Z M346.947,85.715" class="Shape"/>
                <path d="M33.639,68.204 L28.869,68.204 L28.869,64.346 L32.743,64.346 C33.127,64.346 33.335,64.026 33.335,63.754 C33.335,63.466 33.127,63.178 32.743,63.178 L28.869,63.178 L28.869,59.449 L33.479,59.449 C33.895,59.449 34.119,59.177 34.119,58.873 C34.119,58.537 33.895,58.233 33.479,58.233 L28.693,58.233 C28.005,58.233 27.636,58.601 27.636,59.193 L27.636,68.461 C27.636,69.053 28.004,69.421 28.693,69.421 L33.639,69.421 C34.023,69.421 34.247,69.085 34.247,68.813 C34.247,68.476 34.023,68.204 33.639,68.204 L33.639,68.204 Z M25.319,58.167 C25.031,58.167 24.807,58.343 24.727,58.679 C23.447,64.553 22.342,67.162 21.606,68.283 C20.87,67.162 19.781,64.553 18.469,58.679 C18.389,58.343 18.165,58.167 17.877,58.167 C17.525,58.167 17.269,58.407 17.269,58.791 C17.269,58.903 17.317,59.079 17.365,59.303 C18.422,63.769 19.19,66.074 20.07,67.883 C20.678,69.132 21.03,69.5 21.591,69.5 C22.152,69.5 22.504,69.132 23.112,67.883 C23.992,66.074 24.745,63.785 25.833,59.303 C25.881,59.079 25.929,58.903 25.929,58.791 C25.928,58.407 25.672,58.167 25.319,58.167 L25.319,58.167 Z M15.543,68.204 L10.773,68.204 L10.773,64.346 L14.647,64.346 C15.031,64.346 15.239,64.026 15.239,63.754 C15.239,63.466 15.031,63.178 14.647,63.178 L10.773,63.178 L10.773,59.449 L15.383,59.449 C15.799,59.449 16.023,59.177 16.023,58.873 C16.023,58.537 15.799,58.233 15.383,58.233 L10.597,58.233 C9.909,58.233 9.54,58.601 9.54,59.193 L9.54,68.461 C9.54,69.053 9.908,69.421 10.597,69.421 L15.543,69.421 C15.927,69.421 16.151,69.085 16.151,68.813 C16.151,68.476 15.927,68.204 15.543,68.204 L15.543,68.204 Z M7.463,68.235 L3.157,68.235 L3.157,58.823 C3.157,58.423 2.901,58.167 2.549,58.167 C2.197,58.167 1.925,58.423 1.925,58.823 L1.925,68.459 C1.925,69.051 2.293,69.419 2.982,69.419 L7.463,69.419 C7.863,69.419 8.119,69.147 8.119,68.811 C8.119,68.507 7.879,68.235 7.463,68.235 L7.463,68.235 Z M74.519,68.204 L69.749,68.204 L69.749,64.346 L73.623,64.346 C74.007,64.346 74.215,64.026 74.215,63.754 C74.215,63.466 74.007,63.178 73.623,63.178 L69.749,63.178 L69.749,59.449 L74.359,59.449 C74.775,59.449 74.999,59.177 74.999,58.873 C74.999,58.537 74.775,58.233 74.359,58.233 L69.573,58.233 C68.885,58.233 68.516,58.601 68.516,59.193 L68.516,68.461 C68.516,69.053 68.884,69.421 69.573,69.421 L74.519,69.421 C74.903,69.421 75.127,69.085 75.127,68.813 C75.127,68.476 74.903,68.204 74.519,68.204 L74.519,68.204 Z M65.607,58.167 C65.254,58.167 65.046,58.423 65.046,58.823 L65.046,67.386 L65.014,67.386 L59.444,58.646 C59.236,58.31 58.964,58.166 58.611,58.166 C58.131,58.166 57.811,58.502 57.811,59.078 L57.811,68.842 C57.811,69.242 58.067,69.482 58.403,69.482 C58.755,69.482 58.995,69.242 58.995,68.842 L58.995,60.182 L59.027,60.182 L64.533,68.938 C64.741,69.258 64.997,69.482 65.366,69.482 C65.894,69.482 66.182,69.066 66.182,68.634 L66.182,58.822 C66.184,58.423 65.959,58.167 65.607,58.167 L65.607,58.167 Z M51.317,58.104 C48.436,58.104 46.611,60.441 46.611,64.042 C46.611,67.435 48.403,69.548 51.269,69.548 C54.15,69.548 55.975,67.195 55.975,63.594 C55.976,60.2 54.167,58.104 51.317,58.104 L51.317,58.104 Z M51.302,68.363 C49.157,68.363 47.908,66.618 47.908,64.106 C47.908,61.145 49.14,59.288 51.285,59.288 C53.478,59.288 54.679,61.033 54.679,63.53 C54.679,66.491 53.446,68.363 51.302,68.363 L51.302,68.363 Z M41.51,68.235 L37.204,68.235 L37.204,58.823 C37.204,58.423 36.948,58.167 36.596,58.167 C36.243,58.167 35.971,58.423 35.971,58.823 L35.971,68.459 C35.971,69.051 36.339,69.419 37.028,69.419 L41.509,69.419 C41.909,69.419 42.165,69.147 42.165,68.811 C42.167,68.507 41.927,68.235 41.51,68.235 L41.51,68.235 Z M41.51,68.235" class="Shape"/>
            </g>
            <g class="background">
                <path d="M151.388,117.311 L101.752,149.795 L86.436,139.07 L136.149,106.64 L151.388,117.311 Z M151.388,117.311" class="walkway"/>
                <path d="M127.644,247.706 L130.871,249.966 L135.668,246.836 L132.441,244.577 L129.215,246.681 L114.376,235.952 L112.308,237.302 L111.4,246.623 L121.403,250.051 L127.644,247.706 L127.644,247.706 Z M111.566,265.202 C90.176,250.219 101.208,235.993 103.66,233.264 L83.318,246.764 L139.176,285.876 L158.12,273.518 C157.032,273.969 136.336,282.552 111.566,265.202 L111.566,265.202 Z M119.662,222.645 L117.364,224.171 L173.506,263.483 L175.824,261.97 L119.662,222.645 L119.662,222.645 Z M119.662,222.645" class="walkway"/>
                <path d="M248.867,219.243 L257.048,224.972 L244.228,233.335 L229.831,222.921 L234.628,219.791 L221.643,210.699 L217.001,210.579 L180.205,234.381 C179.737,234.417 170.854,235.102 165.354,234.725 C159.863,234.348 150.357,232.663 149.857,232.576 L149.314,228.866 L150.514,228.641 L148.309,228.33 C148.109,228.231 144.312,226.35 139.297,222.839 C138.531,222.303 137.741,221.731 136.938,221.123 C132.165,217.515 129.177,213.074 126.626,211.288 C125.939,210.808 125.284,210.517 124.634,210.49 C121.565,210.359 117.974,213.504 117.785,213.67 C117.709,213.846 117.589,213.704 117.583,213.697 C117.21,213.429 112.602,207.218 110.873,198.674 C109.194,190.387 111.746,184.711 111.879,184.412 L84.269,164.802 L87.986,162.427 L115.688,181.823 L180.18,139.955 C181.793,137.598 184.103,135.367 187.092,133.417 C192.684,129.77 199.641,127.766 206.468,127.434 L175.592,105.228 L177.991,103.663 L212.459,127.738 L233.222,114.194 C233.31,114.126 234.993,112.836 234.447,111.668 C234.115,110.959 233.417,110.376 232.921,110.029 C232.6,109.804 232.375,109.684 232.363,109.677 L258.02,92.698 C258.403,92.893 259.367,93.58 260.758,93.824 C262.857,94.188 264.309,93.11 264.386,93.053 L289.369,76.755 L286.454,74.49 L291.343,71.201 L371.23,127.029 L365.195,130.917 L363.383,129.813 L337.658,146.594 C337.62,146.614 336.921,146.96 336.564,148.058 C336.416,148.539 336.771,149.02 337.228,149.412 L313.205,164.98 L283.425,167.25 L230.071,202.055 L229.704,206.051 L234.644,209.403 L234.461,211.174 L247.45,220.269 L248.867,219.243 L248.867,219.243 Z M159.362,224.826 L175.951,225.474 L282.029,155.973 L268.512,146.509 L204.733,188.115 L194.812,181.283 L163.628,201.626 L164.228,202.046 L160.918,204.205 L165.73,207.466 L161.263,210.38 L163.802,212.381 L155.864,217.56 L159.362,224.826 L159.362,224.826 Z M161.498,199.465 L183.752,184.948 L175.271,179.009 L189.249,169.892 L193.114,163.856 C189.775,163.035 186.697,161.731 184.126,159.93 C181.357,157.992 179.462,155.685 178.401,153.202 L123.863,188.779 L124.18,200.861 L136.225,204.48 L142.293,200.494 L144.574,202.05 L151.791,197.369 L155.171,199.736 L158.646,197.468 L161.498,199.465 L161.498,199.465 Z M197.893,163.692 L194.604,169.949 L188.981,173.619 L205.27,185.024 L227.856,170.292 L222.378,166.456 L233.045,159.497 L227.824,155.842 L227.09,156.034 C226.01,157.024 224.793,157.972 223.43,158.861 C216.037,163.684 206.61,164.689 197.893,163.692 L197.893,163.692 Z M196.532,136.499 C189.768,140.91 189.431,148.089 195.778,152.531 C202.119,156.969 212.744,156.998 219.507,152.586 C226.265,148.177 226.608,140.996 220.266,136.557 C213.92,132.114 203.291,132.09 196.532,136.499 L196.532,136.499 Z M245.087,130.107 L231.941,138.683 C233.901,142.871 233.418,147.594 230.602,151.932 L230.519,152.912 L233.3,154.859 L244.196,148.052 L252.754,154.045 L266.485,145.087 L245.087,130.107 L245.087,130.107 Z M309.824,107.074 L294.599,117.005 L304.585,123.997 L319.808,114.066 L322.84,105.338 L309.824,107.074 L309.824,107.074 Z M318.099,133.459 L341.345,118.293 L332.565,112.145 L309.319,127.311 L318.099,133.459 L318.099,133.459 Z M304.335,92.379 L281.088,107.544 L289.796,113.642 L313.042,98.477 L304.335,92.379 L304.335,92.379 Z M281.283,132.893 L262.586,135.938 L264.289,142.231 L282.991,139.182 L281.283,132.893 L281.283,132.893 Z M285.046,150.71 L292.583,149.391 L291.2,144.754 L283.663,146.074 L285.046,150.71 L285.046,150.71 Z M262.591,124.723 L255.053,126.041 L256.438,130.678 L263.974,129.358 L262.591,124.723 L262.591,124.723 Z M298.454,138.662 C297.195,139.484 297.1,140.796 298.24,141.594 C299.379,142.391 301.321,142.374 302.581,141.553 C303.837,140.735 303.931,139.422 302.792,138.625 C301.652,137.827 299.709,137.844 298.454,138.662 L298.454,138.662 Z M270.079,118.685 C268.869,119.475 268.778,120.74 269.876,121.51 C270.975,122.28 272.85,122.264 274.06,121.473 C275.272,120.684 275.362,119.418 274.262,118.648 C273.164,117.879 271.29,117.895 270.079,118.685 L270.079,118.685 Z M270.079,118.685" class="walkway"/>
                <path d="M115.693,182.163 L180.185,140.294 C181.797,137.939 184.108,135.707 187.096,133.757 C192.689,130.11 199.645,128.104 206.473,127.774 L206.734,127.649 L206.508,124.67 L169.271,98.596 L167.618,99.675 L165.068,97.889 L146.539,109.976 L146.764,112.954 L152.862,117.224 L98.945,152.397 L87.982,144.719 L76.73,152.06 L76.955,155.039 L115.693,182.163 L115.693,182.163 Z M110.652,196.035 C110.507,195.32 110.403,194.632 110.317,193.957 C110.209,188.495 111.778,184.985 111.883,184.752 L111.658,181.774 L65.862,149.708 L2.829,190.828 L3.054,193.806 L72.874,242.696 L117.213,213.77 L116.988,210.792 C116.759,210.48 112.381,204.58 110.652,196.035 L110.652,196.035 Z M258.407,93.23 C258.455,93.264 259.371,93.918 260.762,94.161 C262.862,94.524 264.315,93.447 264.389,93.39 L289.373,77.092 L289.148,74.114 L257.014,51.614 L239.807,62.839 L240.033,65.817 L258.407,93.23 L258.407,93.23 Z M212.463,128.076 L233.226,114.532 C233.304,114.472 234.635,113.451 234.556,112.407 L234.331,109.429 C234.331,109.434 234.33,109.438 234.33,109.444 C234.322,109.305 234.29,109.166 234.226,109.028 C233.894,108.319 233.197,107.736 232.701,107.388 C232.38,107.163 232.155,107.043 232.142,107.036 L189.031,90.383 L173.315,79.716 L159.914,88.458 L160.139,91.436 L212.463,128.076 L212.463,128.076 Z M193.117,164.193 L192.891,161.214 C189.552,160.394 186.474,159.089 183.903,157.289 C181.134,155.351 179.238,153.045 178.178,150.561 L123.641,186.137 L123.957,198.219 L124.182,201.198 L136.227,204.817 L142.295,200.831 L144.577,202.386 L151.794,197.706 L155.175,200.073 L158.65,197.804 L161.5,199.8 L183.754,185.282 L183.529,182.303 L177.358,177.982 L189.251,170.225 L193.117,164.193 L193.117,164.193 Z M231.881,221.926 L234.632,220.131 L234.407,217.153 L221.422,208.059 L216.781,207.94 L179.984,231.742 C179.516,231.778 170.633,232.463 165.133,232.086 C159.642,231.709 150.136,230.024 149.635,229.936 L149.523,229.166 L150.518,228.98 L150.293,226.001 L150.215,225.776 L148.088,225.689 C147.888,225.589 144.09,223.709 139.076,220.198 C138.31,219.661 137.52,219.089 136.717,218.482 C131.944,214.874 128.956,210.433 126.405,208.647 C125.719,208.167 125.063,207.876 124.413,207.848 C121.344,207.716 117.752,210.863 117.563,211.029 L117.789,214.007 C117.804,214.118 118.097,216.236 124.782,221.169 C125.49,221.691 126.171,222.181 126.822,222.637 C132.058,226.303 135.31,227.826 136.742,228.401 L136.885,230.285 L191.015,268.187 L244.233,233.673 L244.007,230.695 L231.881,221.926 L231.881,221.926 Z M312.938,162.271 L283.205,164.61 L229.851,199.415 L229.485,203.411 L229.71,206.389 L234.318,209.515 L234.467,211.51 L247.457,220.607 L248.872,219.586 L257.053,225.315 L323.655,181.767 L323.428,178.789 L312.938,162.271 L312.938,162.271 Z M395.896,150.092 L363.163,127.172 L337.437,143.953 C337.4,143.972 336.7,144.319 336.344,145.418 C336.3,145.554 336.303,145.69 336.332,145.825 C336.323,145.786 336.313,145.747 336.31,145.707 C336.385,146.7 336.46,147.692 336.537,148.686 C336.575,149.195 337.099,149.682 337.616,150.043 C338.139,150.41 338.631,150.636 338.656,150.647 L379.245,164.079 L396.121,153.069 L395.896,150.092 L395.896,150.092 Z M297.452,140.684 C297.486,141.142 297.749,141.587 298.244,141.933 C299.383,142.732 301.325,142.713 302.586,141.892 C303.294,141.429 303.634,140.809 303.588,140.214 C303.514,139.221 303.44,138.229 303.363,137.235 C303.366,137.264 303.355,137.296 303.355,137.327 C303.349,136.836 303.097,136.353 302.57,135.984 C301.43,135.187 299.489,135.205 298.233,136.023 C297.478,136.515 297.151,137.181 297.248,137.809 C297.243,137.775 297.229,137.741 297.227,137.705 C297.302,138.698 297.376,139.691 297.452,140.684 L297.452,140.684 Z M263.978,129.697 L263.752,126.718 L262.369,122.082 L254.831,123.402 L255.056,126.38 L256.44,131.016 L263.978,129.697 L263.978,129.697 Z M281.093,107.883 L289.802,113.981 L313.047,98.816 L312.822,95.838 L304.114,89.74 L280.867,104.905 L281.093,107.883 L281.093,107.883 Z M309.322,127.648 L318.103,133.796 L341.347,118.631 L341.122,115.653 L332.341,109.504 L309.095,124.669 L309.322,127.648 L309.322,127.648 Z M294.381,114.366 L294.606,117.344 L304.591,124.336 L319.815,114.405 L322.846,105.676 L322.621,102.698 L309.602,104.434 L294.381,114.366 L294.381,114.366 Z M269.003,119.154 C269.037,119.6 269.071,120.047 269.104,120.494 C269.108,120.539 269.116,120.598 269.116,120.642 C269.149,121.084 269.403,121.513 269.88,121.847 C270.979,122.618 272.854,122.601 274.064,121.812 C274.749,121.365 275.075,120.767 275.032,120.193 C274.957,119.2 274.882,118.208 274.806,117.214 C274.808,117.243 274.798,117.272 274.799,117.301 C274.794,116.828 274.551,116.364 274.042,116.008 C272.943,115.238 271.068,115.256 269.858,116.045 C269.132,116.518 268.818,117.162 268.912,117.768 C268.907,117.733 268.893,117.699 268.891,117.664 C268.928,118.161 268.966,118.658 269.003,119.154 L269.003,119.154 Z M283.442,143.436 L283.667,146.415 L285.05,151.052 L292.588,149.734 L292.362,146.755 L290.978,142.119 L283.442,143.436 L283.442,143.436 Z M282.77,136.543 L281.063,130.254 L262.365,133.3 L262.59,136.278 L263.793,140.723 L244.866,127.471 L231.72,136.046 L231.946,139.025 C232.387,139.967 232.695,140.941 232.888,141.928 C232.773,144.399 231.932,146.906 230.381,149.295 L230.298,150.275 L230.524,153.253 L233.304,155.201 L244.2,148.394 L252.474,154.19 L227.83,170.265 L227.633,167.653 L224.466,165.434 L233.048,159.835 L232.823,156.856 L227.6,153.201 L226.868,153.393 C225.788,154.382 224.57,155.331 223.208,156.219 C215.815,161.041 206.389,162.047 197.671,161.05 L194.382,167.308 L188.758,170.977 L188.984,173.956 L204.99,185.164 L204.511,185.476 L194.591,178.644 L163.407,198.989 L164.007,199.409 L160.697,201.567 L160.922,204.546 L163.384,206.214 L161.042,207.742 L161.267,210.721 L161.637,211.012 L155.643,214.922 L155.868,217.901 L159.367,225.166 L175.956,225.816 L282.033,156.315 L281.807,153.336 L268.29,143.872 L266.461,145.063 L266.263,142.452 L266.028,142.287 L282.996,139.519 L282.77,136.543 L282.77,136.543 Z M282.77,136.543" class="wall"/>
                <path d="M408.487,156.178 L395.054,156.294 L394.403,165.365 L394.628,168.344 L408.062,168.222 L408.713,159.155 L408.487,156.178 Z M408.487,156.178" class="wall"/>
                <path d="M173.284,260.843 L117.122,221.519 L103.886,230.154 C103.393,230.629 97.554,236.257 98.215,244.304 C98.212,244.272 98.207,244.238 98.204,244.202 C98.279,245.195 98.354,246.187 98.429,247.181 C98.831,252.498 102.064,258.883 111.571,265.541 C136.341,282.892 157.036,274.309 158.125,273.857 L173.51,263.82 L173.284,260.843 L173.284,260.843 Z M126.829,245.291 L121.183,247.411 L111.679,244.154 L112.313,237.639 L114.381,236.289 L126.829,245.291 L126.829,245.291 Z M129.732,246.686 L132.444,244.916 L133.361,245.558 L130.649,247.329 L129.732,246.686 L129.732,246.686 Z M98.318,245.242 C98.316,245.228 98.314,245.217 98.312,245.203 C98.314,245.217 98.316,245.229 98.318,245.242 L98.318,245.242 Z M103.23,255.36 C103.163,255.28 103.096,255.201 103.03,255.122 C103.096,255.201 103.163,255.28 103.23,255.36 L103.23,255.36 Z M102.223,254.1 C102.179,254.041 102.138,253.984 102.094,253.924 C102.138,253.982 102.179,254.041 102.223,254.1 L102.223,254.1 Z M101.448,253.005 C101.406,252.943 101.363,252.881 101.322,252.818 C101.363,252.881 101.407,252.943 101.448,253.005 L101.448,253.005 Z M100.703,251.821 C100.659,251.747 100.617,251.672 100.575,251.597 C100.617,251.672 100.659,251.747 100.703,251.821 L100.703,251.821 Z M100.05,250.627 C100.043,250.612 100.035,250.599 100.028,250.585 C100.035,250.599 100.042,250.612 100.05,250.627 L100.05,250.627 Z M99.57,249.595 C99.538,249.523 99.507,249.449 99.476,249.376 C99.506,249.448 99.538,249.521 99.57,249.595 L99.57,249.595 Z M99.106,248.422 C99.088,248.371 99.073,248.322 99.056,248.273 C99.073,248.322 99.089,248.371 99.106,248.422 L99.106,248.422 Z M98.786,247.411 C98.77,247.355 98.753,247.3 98.738,247.245 C98.752,247.3 98.77,247.355 98.786,247.411 L98.786,247.411 Z M98.513,246.325 C98.499,246.26 98.487,246.195 98.473,246.131 C98.487,246.195 98.5,246.26 98.513,246.325 L98.513,246.325 Z M104.16,256.419 C104.17,256.43 104.181,256.44 104.19,256.451 C104.181,256.44 104.17,256.43 104.16,256.419 L104.16,256.419 Z M105.204,257.495 C105.285,257.575 105.365,257.655 105.447,257.735 C105.364,257.655 105.284,257.575 105.204,257.495 L105.204,257.495 Z M109.818,261.451 C109.712,261.371 109.604,261.292 109.5,261.211 C109.604,261.292 109.712,261.371 109.818,261.451 L109.818,261.451 Z M108.139,260.137 C108.063,260.075 107.992,260.014 107.917,259.951 C107.992,260.014 108.063,260.075 108.139,260.137 L108.139,260.137 Z M106.787,258.981 C106.715,258.918 106.641,258.853 106.571,258.791 C106.642,258.854 106.715,258.918 106.787,258.981 L106.787,258.981 Z M106.787,258.981" class="wall"/>
                <path d="M106.196,129.425 L112.198,133.628 L128.22,123.176 L128.065,121.123 L122.063,116.921 L106.041,127.373 L106.196,129.425 Z M106.196,129.425" class="wall"/>
            </g>
            <g class="ceilings">
                <path class="unit" d="M172.192,141.883 L164.621,146.822 L136.692,127.32 L144.304,122.355 L172.192,141.883 Z M172.192,141.883" id="1001"/>
                <path class="unit" d="M188.814,89.968 L180.767,84.333 L167.318,93.042 L175.414,98.71 L188.814,89.968 Z M188.814,89.968" id="1002"/>
                <path class="unit" d="M232.812,106.864 C233.307,107.212 234.005,107.794 234.337,108.504 C234.883,109.671 233.201,110.962 233.112,111.03 L212.349,124.575 L175.411,98.711 L188.812,89.969 L189.138,89.86 L232.25,106.514 C232.266,106.519 232.491,106.64 232.812,106.864 L232.812,106.864 Z M232.812,106.864" id="1003"/>
                <path class="unit" d="M234.52,216.628 L229.722,219.758 L244.12,230.172 L233.556,236.991 L203.6,216.016 L216.893,207.416 L221.534,207.536 L234.52,216.628 Z M234.52,216.628" id="1004"/>
                <path class="unit" d="M256.328,169.577 L248.898,174.446 L235.312,164.934 L242.759,160.076 L256.328,169.577 Z M256.328,169.577" id="1005"/>
                <path class="unit" d="M262.482,121.559 L263.865,126.193 L256.328,127.514 L254.945,122.878 L262.482,121.559 Z M262.482,121.559" id="1006"/>
                <path class="unit" d="M206.621,124.145 L206.361,124.272 C199.534,124.602 192.577,126.606 186.985,130.254 C183.996,132.203 181.686,134.434 180.073,136.792 L172.193,141.883 L144.305,122.356 L155.061,115.339 L146.653,109.451 L165.182,97.364 L167.732,99.15 L169.384,98.072 L206.621,124.145 L206.621,124.145 Z M206.621,124.145" id="1007"/>
                <path class="unit" d="M281.175,129.729 L282.883,136.018 L264.181,139.066 L262.478,132.773 L281.175,129.729 Z M281.175,129.729" id="1008"/>
                <path class="unit" d="M164.564,146.837 L156.756,151.931 L128.834,132.445 L136.692,127.32 L164.564,146.837 Z M164.564,146.837" id="1009"/>
                <path class="unit" d="M128.834,132.445 L156.707,151.963 L148.994,156.967 L121.143,137.464 L128.834,132.445 Z M128.834,132.445" id="1010"/>
                <path class="unit" d="M266.376,141.928 L252.645,150.885 L244.087,144.893 L233.192,151.7 L230.411,149.752 L230.494,148.773 C233.308,144.435 233.793,139.711 231.832,135.523 L244.978,126.947 L266.376,141.928 L266.376,141.928 Z M266.376,141.928" id="1011"/>
                <path class="unit" d="M148.994,156.967 L141.616,161.758 L113.781,142.267 L121.143,137.464 L148.994,156.967 Z M148.994,156.967" id="1012"/>
                <path class="unit" d="M281.92,152.811 L264.419,164.276 L250.866,154.787 L268.404,143.347 L281.92,152.811 Z M281.92,152.811" id="1013"/>
                <path class="unit" d="M264.419,164.276 L260.291,166.981 L246.73,157.485 L250.866,154.787 L264.419,164.276 Z M264.419,164.276" id="1014"/>
                <path class="unit" d="M141.616,161.758 L115.58,178.66 L76.843,151.535 L88.095,144.195 L99.058,151.871 L113.781,142.267 L141.616,161.758 Z M141.616,161.758" id="1015"/>
                <path class="unit" d="M260.291,166.981 L256.328,169.577 L242.759,160.076 L246.73,157.485 L260.291,166.981 Z M260.291,166.981" id="1016"/>
                <path class="unit" d="M248.898,174.446 L242.044,178.934 L228.447,169.412 L235.312,164.934 L248.898,174.446 Z M248.898,174.446" id="1017"/>
                <path class="unit" d="M232.936,156.334 L222.269,163.293 L227.747,167.128 L205.163,181.861 L188.873,170.455 L194.497,166.786 L197.786,160.528 C206.503,161.526 215.93,160.518 223.323,155.697 C224.684,154.807 225.903,153.861 226.983,152.871 L227.715,152.678 L232.936,156.334 L232.936,156.334 Z M232.936,156.334" id="1018"/>
                <path class="unit" d="M178.292,150.039 C179.353,152.521 181.249,154.827 184.017,156.767 C186.588,158.568 189.666,159.871 193.005,160.692 L189.14,166.728 L175.162,175.845 L183.643,181.784 L176.362,186.534 L150.31,168.292 L178.292,150.039 L178.292,150.039 Z M178.292,150.039" id="1019"/>
                <path class="unit" d="M242.044,178.934 L236.188,182.777 L222.573,173.244 L228.447,169.412 L242.044,178.934 Z M242.044,178.934" id="1020"/>
                <path class="unit" d="M236.188,182.777 L229.994,186.833 L216.368,177.292 L222.573,173.244 L236.188,182.777 Z M236.188,182.777" id="1021"/>
                <path class="unit" d="M176.362,186.534 L168.666,191.555 L142.614,173.312 L150.311,168.292 L176.362,186.534 Z M176.362,186.534" id="1022"/>
                <path class="unit" d="M229.994,186.833 L224.217,190.618 L210.579,181.068 L216.368,177.292 L229.994,186.833 Z M229.994,186.833" id="1023"/>
                <path class="unit" d="M158.539,194.306 L155.063,196.573 L151.67,194.197 L146.873,197.326 L127.064,183.456 L135.337,178.06 L155.146,191.93 L158.539,194.306 Z M158.539,194.306" id="1024"/>
                <path class="unit" d="M168.666,191.555 L161.389,196.302 L158.539,194.306 L155.146,191.93 L135.337,178.06 L142.614,173.312 L168.666,191.555 Z M168.666,191.555" id="1025"/>
                <path class="unit" d="M224.217,190.618 L218.19,194.566 L204.54,185.008 L204.624,184.953 L210.579,181.068 L224.217,190.618 Z M224.217,190.618" id="1026"/>
                <path class="unit" d="M146.873,197.326 L144.466,198.886 L142.185,197.331 L136.116,201.317 L124.071,197.697 L123.754,185.616 L127.064,183.456 L146.873,197.326 Z M146.873,197.326" id="1027"/>
                <path class="unit" d="M313.051,161.745 L323.541,178.263 L302.718,191.873 L272.814,170.935 L283.317,164.084 L313.051,161.745 Z M313.051,161.745" id="1028"/>
                <path class="unit" d="M218.19,194.566 L210.349,199.704 L186.847,183.247 L194.704,178.122 L204.54,185.008 L218.19,194.566 Z M218.19,194.566" id="1029"/>
                <path class="unit" d="M302.718,191.873 L295.61,196.521 L265.699,175.577 L272.814,170.935 L302.718,191.873 Z M302.718,191.873" id="1030"/>
                <path class="unit" d="M210.349,199.704 L202.838,204.625 L179.32,188.157 L186.847,183.247 L210.349,199.704 Z M210.349,199.704" id="1031"/>
                <path class="unit" d="M295.61,196.521 L287.757,201.655 L257.837,180.706 L265.699,175.577 L295.61,196.521 Z M295.61,196.521" id="1032"/>
                <path class="unit" d="M202.838,204.625 L194.827,209.873 L171.293,193.395 L179.32,188.157 L202.838,204.625 Z M202.838,204.625" id="1033"/>
                <path class="unit" d="M163.753,212.838 L157.098,217.18 L155.756,214.397 L161.049,210.945 L163.753,212.838 Z M163.753,212.838" id="1034"/>
                <path class="unit" d="M194.827,209.873 L187.071,214.954 L168.852,202.197 L164.121,198.885 L163.521,198.465 L171.293,193.395 L194.827,209.873 Z M194.827,209.873" id="1035"/>
                <path class="unit" d="M287.757,201.655 L276.029,209.328 L246.093,188.367 L257.837,180.706 L287.757,201.655 Z M287.757,201.655" id="1036"/>
                <path class="unit" d="M187.071,214.954 L179.39,219.986 L161.155,207.219 L165.622,204.305 L160.811,201.044 L164.121,198.885 L168.852,202.197 L187.071,214.954 Z M187.071,214.954" id="1037"/>
                <path class="unit" d="M179.39,219.986 L163.859,209.112 L161.049,210.945 L176.235,222.055 L179.39,219.986 Z M179.39,219.986" id="1038"/>
                <path class="unit" d="M253.001,208.641 L248.405,211.639 L252.082,214.214 L249.01,216.256 L248.759,216.079 L247.344,217.102 L234.354,208.006 L234.537,206.236 L229.596,202.885 L229.963,198.89 L234.68,195.812 L253.001,208.641 Z M253.001,208.641" id="1039"/>
                <path class="unit" d="M276.029,209.328 L256.939,221.809 L249.01,216.256 L252.082,214.214 L248.405,211.639 L253.001,208.641 L234.68,195.812 L246.093,188.367 L276.029,209.328 Z M276.029,209.328" id="1040"/>
                <path class="unit" d="M111.771,181.249 C111.637,181.548 109.086,187.224 110.765,195.51 C112.494,204.056 116.871,209.956 117.102,210.267 L72.763,239.193 L2.943,190.303 L65.976,149.183 L111.771,181.249 L111.771,181.249 Z M111.771,181.249" id="1041"/>
                <path class="unit" d="M126.518,208.124 C129.069,209.911 132.057,214.352 136.83,217.96 C137.633,218.566 138.423,219.139 139.189,219.675 C144.203,223.186 148.001,225.069 148.201,225.166 L150.328,225.254 L150.406,225.478 L149.206,225.703 L149.748,229.412 C149.76,229.461 149.992,230.398 149.235,232.103 C148.938,232.78 148.01,233.456 147.485,233.795 C147.263,233.941 147.121,234.022 147.113,234.024 L136.771,226.782 L137.48,225.206 C137.297,225.152 133.834,224.125 126.709,219.135 C126.058,218.68 125.377,218.193 124.669,217.668 C117.985,212.734 117.691,210.617 117.676,210.506 C117.865,210.341 121.456,207.195 124.525,207.327 C125.175,207.355 125.831,207.644 126.518,208.124 L126.518,208.124 Z M126.518,208.124" id="1042"/>
                <path class="unit" d="M233.556,236.991 L225.783,242.062 L195.828,221.086 L203.6,216.016 L233.556,236.991 Z M233.556,236.991" id="1043"/>
                <path class="unit" d="M225.764,242.048 L218.067,247.068 L188.131,226.107 L195.828,221.086 L225.764,242.048 Z M225.764,242.048" id="1044"/>
                <path class="unit" d="M209.927,252.274 L190.903,264.684 L147.113,234.024 C147.121,234.019 147.263,233.939 147.485,233.795 C148.01,233.454 148.939,232.778 149.235,232.103 C149.992,230.398 149.76,229.459 149.748,229.412 C150.217,229.499 159.123,231.148 165.246,231.563 C165.483,231.579 165.725,231.589 165.971,231.604 C172.794,231.991 179.704,231.4 180.069,231.369 L209.927,252.274 L209.927,252.274 Z M209.927,252.274" id="1045"/>
                <path class="unit" d="M117.234,220.993 L173.396,260.318 L158.012,270.354 C156.923,270.804 136.227,279.387 111.457,262.038 C87.656,245.366 103.182,230.414 103.999,229.628 L117.234,220.993 L117.234,220.993 Z M130.762,246.802 L135.559,243.672 L132.332,241.413 L129.107,243.517 L114.267,232.788 L112.199,234.138 L111.292,243.459 L121.294,246.886 L127.534,244.543 L130.762,246.802 L130.762,246.802 Z M130.762,246.802" id="1046"/>
                <path class="unit" d="M218.042,247.052 L210.051,252.265 L180.068,231.367 L188.131,226.107 L218.042,247.052 Z M218.042,247.052" id="1047"/>
                <path class="unit" d="M289.262,73.589 L264.279,89.887 C264.203,89.944 262.75,91.022 260.652,90.658 C259.259,90.414 258.343,89.762 258.296,89.727 L239.923,62.314 L257.13,51.089 L289.262,73.589 L289.262,73.589 Z M289.262,73.589" id="1048"/>
                <path class="unit" d="M312.935,95.313 L289.688,110.478 L280.98,104.38 L304.226,89.215 L312.935,95.313 Z M312.935,95.313" id="1049"/>
                <path class="unit" d="M408.6,155.652 L407.949,164.72 L394.516,164.841 L395.167,155.769 L408.6,155.652 Z M408.6,155.652" id="1050"/>
                <path class="unit" d="M396.008,149.566 L379.132,160.575 L338.543,147.144 C338.518,147.131 338.026,146.907 337.503,146.54 C336.889,146.109 336.263,145.501 336.457,144.892 C336.812,143.793 337.513,143.448 337.549,143.428 L363.276,126.646 L396.008,149.566 L396.008,149.566 Z M396.008,149.566" id="1051"/>
                <path class="unit" d="M341.236,115.13 L317.99,130.295 L309.209,124.146 L332.455,108.981 L341.236,115.13 Z M341.236,115.13" id="1052"/>
                <path class="unit" d="M322.733,102.174 L319.702,110.902 L304.479,120.833 L294.492,113.842 L309.716,103.911 L322.733,102.174 Z M322.733,102.174" id="1053"/>
                <path class="unit" d="M291.092,141.591 L292.476,146.227 L284.938,147.547 L283.554,142.911 L291.092,141.591 Z M291.092,141.591" id="1054"/>
                <path class="unit" d="M274.154,115.484 C275.252,116.253 275.162,117.519 273.952,118.309 C272.741,119.099 270.866,119.115 269.766,118.346 C268.668,117.576 268.758,116.311 269.969,115.521 C271.18,114.731 273.056,114.715 274.154,115.484 L274.154,115.484 Z M274.154,115.484" id="1055"/>
                <path class="unit" d="M302.683,135.461 C303.824,136.259 303.729,137.569 302.473,138.389 C301.214,139.211 299.271,139.228 298.131,138.43 C296.992,137.632 297.086,136.321 298.346,135.499 C299.601,134.68 301.544,134.663 302.683,135.461 L302.683,135.461 Z M302.683,135.461" id="1056"/>
                <path class="unit" d="M128.22,121.123 L112.198,131.575 L106.196,127.372 L122.217,116.92 L128.22,121.123 Z M128.22,121.123" id="1057"/>
                <path class="unit" d="M173.425,79.192 L160.024,87.934 L167.318,93.042 L180.767,84.333 L173.425,79.192 Z M173.425,79.192" id="1058"/>
                <path class="unit" d="M159.213,221.578 L175.843,222.312 L176.235,222.055 L167.941,215.987 L159.213,221.578 Z M159.213,221.578" id="1059"/>
                <path class="unit" d="M163.753,212.838 L157.098,217.18 L159.213,221.578 L167.941,215.987 L163.753,212.838 Z M163.753,212.838" id="1060"/>
            </g>
        </g>
</svg>