<?xml version="1.0" encoding="utf-8"?>
<!DOCTYPE svg PUBLIC "-//W3C//DTD SVG 1.1//EN" "http://www.w3.org/Graphics/SVG/1.1/DTD/svg11.dtd">
<svg version="1.1" xmlns="http://www.w3.org/2000/svg" xmlns:xlink="http://www.w3.org/1999/xlink" xml:space="preserve">
<g class="level" id="level2">
            <g class="outline">
                <path d="M408.528,122.387 L354.707,108.975 C354.341,108.884 353.95,108.958 353.645,109.182 L352.249,110.201 L336.811,106.371 C336.451,106.28 336.061,106.353 335.755,106.571 L327.823,112.251 L312.933,108.508 C312.568,108.417 312.185,108.487 311.877,108.706 L310.735,109.517 L308.186,108.881 L313.578,105.027 C313.915,104.788 314.114,104.398 314.114,103.985 L314.114,103.215 C314.114,102.882 313.985,102.571 313.768,102.341 L365.774,65.259 C366.112,65.019 366.311,64.63 366.311,64.216 L366.311,60.328 C366.311,59.738 365.912,59.225 365.337,59.084 L322.793,48.489 C322.434,48.399 322.048,48.471 321.743,48.686 L313.89,54.243 L287.73,47.75 L319.158,25.318 L333.492,28.891 C333.855,28.981 334.24,28.912 334.546,28.692 L340.387,24.548 L354.507,28.079 C354.871,28.171 355.257,28.097 355.565,27.879 L358.555,25.743 C358.891,25.502 359.089,25.112 359.089,24.7 L359.089,23.982 C359.112,23.427 358.774,22.912 358.238,22.721 C358.191,22.705 358.146,22.692 358.099,22.681 L346.886,19.895 L350.478,17.326 C350.816,17.086 351.015,16.697 351.015,16.284 L351.015,15.514 C351.015,14.926 350.616,14.413 350.042,14.27 L296.606,0.943 C296.243,0.853 295.858,0.925 295.551,1.142 L281.7,11 L280.703,10.729 C280.331,10.629 279.932,10.703 279.619,10.927 L276.726,13.013 L242.959,4.574 C242.595,4.479 242.207,4.555 241.901,4.773 L236.358,8.745 L233.129,7.945 C232.769,7.855 232.383,7.928 232.077,8.146 L188.35,39.328 L176.451,36.351 C176.087,36.26 175.7,36.333 175.395,36.552 L169.425,40.823 L162.355,39.046 C161.992,38.955 161.605,39.025 161.299,39.245 L156.985,42.318 C156.647,42.559 156.447,42.949 156.447,43.364 L156.447,47.208 C156.447,47.793 156.844,48.305 157.412,48.45 L160.928,49.346 L154.595,53.852 C154.261,54.089 154.061,54.473 154.056,54.882 L154.014,58.769 C154.008,59.364 154.409,59.882 154.985,60.026 L162.026,61.789 L161.321,62.29 C161.149,62.059 160.899,61.887 160.604,61.811 L138.139,56.207 L141.86,53.55 C142.193,53.312 142.392,52.93 142.397,52.521 L142.439,48.634 C142.445,48.04 142.043,47.519 141.466,47.376 L134.589,45.668 C134.248,45.584 133.888,45.642 133.591,45.831 L129.57,48.394 L129.079,48.271 C128.717,48.179 128.331,48.253 128.025,48.471 L97.697,70.085 C97.36,70.326 97.159,70.714 97.159,71.128 L97.159,71.9 L96.269,71.681 C95.91,71.593 95.53,71.664 95.228,71.876 L93.092,73.371 C92.831,73.554 92.647,73.828 92.577,74.139 L91.381,79.436 C91.36,79.529 91.35,79.624 91.35,79.719 L91.35,81.134 L91.162,81.085 C90.792,80.984 90.397,81.061 90.086,81.286 L87.024,83.499 L81.793,82.19 C81.612,82.145 81.425,82.139 81.245,82.173 L71.292,84.052 C70.687,84.166 70.249,84.698 70.249,85.311 L70.249,86.256 L67.599,86.755 L66.104,85.422 C65.812,85.161 65.415,85.048 65.031,85.116 L50.85,87.594 C50.666,87.626 50.491,87.698 50.338,87.805 L49.364,88.484 L45.278,87.443 C44.911,87.348 44.524,87.422 44.217,87.642 L31.958,96.4 C31.622,96.641 31.422,97.029 31.422,97.442 L31.422,101.331 C31.422,101.918 31.821,102.431 32.391,102.574 L36.843,103.692 L33.068,106.396 C32.736,106.634 32.537,107.016 32.533,107.423 L32.491,111.31 C32.49,111.445 32.509,111.579 32.547,111.704 L30.151,111.107 C29.791,111.017 29.407,111.088 29.103,111.304 L27.105,112.715 L11.361,108.8 C11,108.71 10.618,108.782 10.314,108.996 L6.256,111.855 C5.955,112.068 5.76,112.398 5.72,112.765 L0.552,160.351 C0.547,160.392 0.545,160.433 0.544,160.474 L0.502,164.32 C0.497,164.83 0.791,165.293 1.254,165.503 L19.878,173.961 C19.965,174 20.058,174.027 20.152,174.05 L71.447,184.479 L72.366,185.432 C72.546,185.62 72.778,185.744 73.032,185.796 L194.941,210.741 C195.129,210.777 195.318,210.773 195.503,210.728 L207.335,207.825 C207.728,207.726 208.046,207.458 208.205,207.091 L211.726,198.97 L215.173,199.28 L213.088,203.731 C213.008,203.901 212.967,204.086 212.967,204.274 L212.967,208.121 C212.967,208.71 213.367,209.222 213.939,209.362 L226.07,212.395 C226.431,212.487 226.816,212.416 227.124,212.2 L230.744,209.638 L247.432,213.808 C247.795,213.9 248.182,213.829 248.487,213.609 L251.721,211.303 L274.813,217.054 C274.917,217.079 275.02,217.092 275.125,217.092 C275.171,217.092 275.216,217.089 275.263,217.084 L281.627,216.399 C281.847,216.378 282.056,216.295 282.233,216.17 L333.834,179.394 C334.171,179.154 334.371,178.764 334.371,178.349 L334.371,174.461 C334.371,174.189 334.282,173.931 334.135,173.72 L342.138,175.705 C342.499,175.794 342.885,175.722 343.191,175.504 L366.469,158.889 C366.796,158.658 366.995,158.285 367.005,157.88 L367.03,156.939 L372.828,152.82 L373.888,153.07 C374.248,153.154 374.627,153.084 374.927,152.869 L408.971,128.562 C409.308,128.322 409.508,127.933 409.508,127.519 L409.508,123.63 C409.5,123.042 409.1,122.527 408.528,122.387 L408.528,122.387 Z M221.752,179.591 L226.835,180.873 C227.191,180.966 227.58,180.893 227.885,180.68 L229.415,179.604 L231.518,180.124 L229.11,181.835 L220.216,179.61 L220.783,178.315 L220.783,178.35 C220.783,178.938 221.184,179.448 221.752,179.591 L221.752,179.591 Z M225.152,168.325 L226.105,166.142 L226.084,167.648 L225.152,168.325 L225.152,168.325 Z M240.568,126.525 L240.201,126.289 L242.439,126.872 L241.269,130.261 C241.224,130.391 241.204,130.524 241.201,130.659 L241.17,132.665 L240.574,133.096 L241.051,132.005 C241.122,131.843 241.159,131.668 241.159,131.488 L241.159,127.601 C241.159,127.167 240.938,126.762 240.568,126.525 L240.568,126.525 Z M64.394,116.116 L74.759,118.689 L71.145,121.258 L51.942,116.502 L64.394,116.116 L64.394,116.116 Z M64.394,116.116" class="outline"/>
            </g>
            <g class="label">
                <path d="M28.375,31.006 C28.007,31.006 27.751,31.262 27.751,31.662 L27.751,40.417 C26.918,40.961 25.734,41.186 25.014,41.186 C23.157,41.186 22.021,40.273 22.021,38.208 L22.021,31.662 C22.021,31.262 21.765,31.006 21.413,31.006 C21.061,31.006 20.789,31.262 20.789,31.662 L20.789,38.449 C20.789,40.786 22.246,42.387 24.774,42.387 C26.583,42.387 27.623,41.908 28.552,41.379 C28.904,41.171 28.984,40.899 28.984,40.515 L28.984,31.663 C28.983,31.262 28.727,31.006 28.375,31.006 L28.375,31.006 Z M42.9,30.942 C41.892,30.942 41.139,31.054 40.627,31.214 C40.227,31.342 40.115,31.582 40.115,31.982 L40.115,41.682 C40.115,42.082 40.371,42.322 40.723,42.322 C41.075,42.322 41.347,42.083 41.347,41.682 L41.347,38.064 C41.875,38.096 42.18,38.112 42.82,38.112 C45.701,38.112 47.222,36.719 47.222,34.446 C47.222,32.43 45.894,30.942 42.9,30.942 L42.9,30.942 Z M42.756,36.945 C42.164,36.945 41.876,36.945 41.347,36.914 L41.347,32.24 C41.795,32.176 42.34,32.111 42.868,32.111 C45.141,32.111 45.957,33.2 45.957,34.48 C45.958,35.792 45.253,36.945 42.756,36.945 L42.756,36.945 Z M34.069,30.942 C33.061,30.942 32.308,31.054 31.796,31.214 C31.396,31.342 31.284,31.582 31.284,31.982 L31.284,41.682 C31.284,42.082 31.54,42.322 31.892,42.322 C32.244,42.322 32.516,42.083 32.516,41.682 L32.516,38.064 C33.044,38.096 33.349,38.112 33.989,38.112 C36.87,38.112 38.391,36.719 38.391,34.446 C38.391,32.43 37.062,30.942 34.069,30.942 L34.069,30.942 Z M33.925,36.945 C33.333,36.945 33.045,36.945 32.516,36.914 L32.516,32.24 C32.964,32.176 33.509,32.111 34.037,32.111 C36.31,32.111 37.126,33.2 37.126,34.48 C37.126,35.792 36.422,36.945 33.925,36.945 L33.925,36.945 Z M88.789,32.479 C88.165,31.23 87.669,30.862 87.108,30.862 C86.548,30.862 86.052,31.23 85.427,32.479 C84.531,34.289 83.843,36.561 82.674,41.187 C82.61,41.412 82.578,41.587 82.578,41.7 C82.578,42.084 82.834,42.324 83.186,42.324 C83.474,42.324 83.682,42.147 83.762,41.811 C84.066,40.435 84.37,39.203 84.675,38.145 L89.541,38.145 C89.829,39.203 90.133,40.434 90.454,41.811 C90.534,42.147 90.742,42.324 91.03,42.324 C91.382,42.324 91.638,42.084 91.638,41.7 C91.638,41.588 91.59,41.412 91.542,41.187 C90.405,36.56 89.685,34.287 88.789,32.479 L88.789,32.479 Z M84.995,37.025 C85.731,34.577 86.388,33.055 86.9,32.255 C86.948,32.191 86.996,32.127 87.108,32.127 C87.22,32.127 87.268,32.19 87.316,32.255 C87.828,33.055 88.468,34.576 89.205,37.025 L84.995,37.025 L84.995,37.025 Z M98.9,41.074 L94.594,41.074 L94.594,31.662 C94.594,31.262 94.338,31.006 93.986,31.006 C93.634,31.006 93.362,31.262 93.362,31.662 L93.362,41.298 C93.362,41.89 93.73,42.258 94.419,42.258 L98.9,42.258 C99.3,42.258 99.556,41.986 99.556,41.65 C99.557,41.346 99.317,41.074 98.9,41.074 L98.9,41.074 Z M54.949,41.042 L50.179,41.042 L50.179,37.184 L54.053,37.184 C54.437,37.184 54.645,36.865 54.645,36.592 C54.645,36.304 54.437,36.016 54.053,36.016 L50.179,36.016 L50.179,32.287 L54.789,32.287 C55.205,32.287 55.429,32.015 55.429,31.711 C55.429,31.375 55.205,31.07 54.789,31.07 L50.003,31.07 C49.315,31.07 48.946,31.438 48.946,32.031 L48.946,41.299 C48.946,41.891 49.314,42.259 50.003,42.259 L54.949,42.259 C55.333,42.259 55.557,41.923 55.557,41.651 C55.558,41.314 55.333,41.042 54.949,41.042 L54.949,41.042 Z M106.516,41.074 L102.21,41.074 L102.21,31.662 C102.21,31.262 101.954,31.006 101.602,31.006 C101.249,31.006 100.977,31.262 100.977,31.662 L100.977,41.298 C100.977,41.89 101.345,42.258 102.034,42.258 L106.515,42.258 C106.915,42.258 107.171,41.986 107.171,41.65 C107.172,41.346 106.933,41.074 106.516,41.074 L106.516,41.074 Z M62.997,38.145 C62.709,37.729 62.389,37.41 62.02,37.169 C63.445,36.672 64.373,35.68 64.373,34.16 C64.373,32.222 63.061,30.942 60.164,30.942 C59.06,30.942 58.307,31.054 57.795,31.214 C57.395,31.342 57.283,31.582 57.283,31.982 L57.283,41.682 C57.283,42.082 57.555,42.323 57.908,42.323 C58.26,42.323 58.532,42.083 58.532,41.682 L58.532,37.504 L59.781,37.504 C60.949,37.504 61.414,37.983 61.99,38.913 C62.39,39.553 62.806,40.48 63.302,41.874 C63.398,42.13 63.574,42.322 63.91,42.322 C64.246,42.322 64.535,42.082 64.535,41.698 C64.535,41.586 64.503,41.426 64.439,41.265 C64.005,40.115 63.493,38.913 62.997,38.145 L62.997,38.145 Z M59.972,36.288 L58.532,36.288 L58.532,32.254 C58.98,32.19 59.412,32.126 60.101,32.126 C62.39,32.126 63.11,33.022 63.11,34.207 C63.109,35.856 61.557,36.336 59.972,36.288 L59.972,36.288 Z M80.231,32.302 C80.119,31.469 79.831,31.006 79.175,31.006 C78.55,31.006 78.279,31.374 78.102,31.838 C77.286,34.047 76.39,36.88 75.413,39.505 L75.397,39.505 C74.389,37.024 73.605,34.415 72.58,31.982 C72.356,31.375 72.084,31.006 71.459,31.006 C70.803,31.006 70.499,31.454 70.403,32.335 C70.05,35.264 69.859,38.433 69.875,41.683 C69.859,42.067 70.099,42.324 70.451,42.324 C70.803,42.324 71.075,42.099 71.075,41.668 C71.059,38.595 71.251,35.618 71.588,32.625 L71.604,32.625 C72.581,35.25 73.525,37.891 74.565,40.516 C74.693,40.852 74.965,41.092 75.381,41.092 C75.781,41.092 76.085,40.852 76.213,40.516 C77.237,37.971 78.118,35.266 79.046,32.625 L79.062,32.625 C79.479,35.649 79.638,38.627 79.718,41.604 C79.718,42.052 79.942,42.325 80.359,42.325 C80.711,42.325 80.935,42.037 80.935,41.652 C80.935,41.524 80.919,41.285 80.919,41.173 C80.887,38.129 80.631,35.072 80.231,32.302 L80.231,32.302 Z M80.231,32.302" class="Shape"/>
            </g>
            <g class="background">
                <path d="M357.812,24.701 L354.824,26.837 L340.13,23.163 L333.811,27.646 L318.905,23.93 L254.53,69.85 L259.186,77.242 L273.026,80.701 L281.912,94.797 L290.112,96.847 L294.725,104.109 L302.966,106.162 L308.608,102.144 L312.837,103.212 L312.837,103.982 L305.191,109.451 L312.582,111.289 L312.582,112.058 L310.916,113.253 L290.157,108.084 L288.019,109.579 L302.626,131.663 L374.176,149.475 L374.176,150.287 L365.76,156.266 L344.447,150.97 L320.782,167.842 L322.189,170.065 L322.189,170.836 L291.349,174.083 L290.92,172.545 L290.92,171.774 L299.292,165.795 L262.94,108.812 L260.419,108.171 L247.18,87.625 L214.413,79.424 L195.918,81.389 L190.92,84.934 L174.219,86.685 L156.45,99.37 L165.078,101.548 L165.078,102.318 L159.995,105.948 L142.226,106.973 L107.498,131.7 L77.641,124.266 L77.641,123.495 L167.429,59.508 L190.923,65.36 L210.233,63.567 L228.213,68.052 L242.864,66.514 L306.763,20.894 L280.367,14.315 L280.367,13.55 L296.3,2.188 L349.738,15.516 L349.738,16.286 L343.884,20.473 L357.81,23.933 L357.81,24.704" class="walkway"/>
                <path d="M365.033,64.213 L302.968,108.508 L294.684,106.458 L290.114,99.194 L281.913,97.144 L273.028,83.048 L259.145,79.588 L254.147,71.642 L254.19,67.755 L259.188,75.7 L273.069,79.16 L275.59,83.175 L314.162,55.624 L314.162,59.512 L277.256,85.824 L281.955,93.257 L290.155,95.307 L345.856,55.539 L355.348,58.302 L294.725,102.568 L302.966,104.621 L365.029,60.325 L365.033,64.213 M141.119,52.509 L131.123,59.642 L131.123,55.755 L141.161,48.622 L141.119,52.509 M108.186,64.169 L145.647,73.523 L160.298,63.058 L160.256,66.945 L85.717,120.085 L81.744,119.103 L81.744,122.909 L77.643,125.853 L77.686,121.966 L77.814,121.837 L77.856,118.121 L64.529,114.831 L49.493,115.302 L33.774,111.328 L33.816,107.439 L49.535,111.414 L64.571,110.94 L85.758,116.241 L99.769,106.244 L49.621,93.684 L49.664,89.84 L103.784,103.381 L141.587,76.385 L108.184,68.055 L108.184,64.168 M98.446,71.132 L100.881,71.73 L100.881,75.619 L98.403,75.019 L98.446,71.132 M92.637,79.718 L96.353,80.614 L96.31,84.502 L92.637,83.562 L92.637,79.718 M167.944,49.775 L157.735,47.213 L157.735,43.369 L167.944,45.889 L167.944,49.775 M163.715,73.012 L179.692,76.984 L189.518,69.979 L189.518,73.868 L179.651,80.874 L163.673,76.899 L163.715,73.012 M190.925,82.623 L192.206,85.227 L192.164,89.116 L173.839,102.184 L182.983,104.451 L219.504,78.392 L219.461,82.236 L186.955,105.431 L196.608,107.825 L233.129,81.766 L233.086,85.653 L198.829,110.089 L206.858,112.226 L245.301,84.801 L245.258,88.688 L210.786,113.292 L223.174,116.581 L227.488,113.506 L230.008,114.148 L254.528,96.633 L254.485,100.521 L229.965,118.035 L227.445,117.391 L227.103,117.649 L239.32,120.895 L260.422,105.86 L260.422,109.749 L243.336,121.922 L245.898,122.565 L245.855,126.455 L194.853,112.956 L194.896,111.291 L167.214,104.414 L167.172,107.789 L164.566,109.625 L164.524,112.399 L157.989,117.054 L156.323,116.626 L156.281,118.335 L151.368,121.837 L149.489,121.368 L149.489,123.118 L145.602,125.892 L152.736,127.687 L152.693,130.507 L168.412,131.275 L168.412,135.166 L158.417,177.325 L87.466,173.908 L75.634,181.128 L195.238,205.604 L207.029,202.703 L239.877,127.606 L239.877,131.495 L212.581,193.899 L218.857,194.414 L218.816,198.302 L210.915,197.614 L207.027,206.588 L195.193,209.492 L73.285,184.548 L72.089,183.308 L20.403,172.801 L1.779,164.343 L1.821,160.498 L20.445,168.913 L72.131,179.422 L87.465,170.068 L158.458,173.443 L167.514,135.129 L149.146,134.233 L149.146,134.1 L149.018,134.227 L149.018,130.64 L143.337,129.233 L143.337,127.524 L141.586,127.096 L141.544,128.804 L137.273,131.836 L135.863,131.494 L135.82,133.03 L129.968,137.218 L113.864,133.201 L113.821,133.245 L113.779,134.868 L110.32,137.346 L110.32,133.971 L107.5,133.288 L107.5,129.397 L112.113,130.55 L113.864,129.313 L130.01,133.33 L133.043,131.149 L133.086,128.461 L134.667,127.308 L137.315,127.951 L139.109,126.671 L139.109,124.275 L140.647,123.167 L140.647,122.997 L143.338,123.638 L147.311,120.862 L147.311,120.819 L130.78,116.675 L130.78,112.787 L151.411,117.956 L152.308,117.312 L152.351,113.467 L154.102,112.187 L158.032,113.21 L161.706,110.562 L161.748,107.788 L166.661,104.285 L155.64,101.509 L155.64,97.622 L169.822,101.168 L190.923,86.131 L190.923,82.624 M190.925,67.715 L155.3,58.787 L155.342,54.898 L190.967,63.827 L210.276,62.033 L276.999,14.406 L276.956,18.294 L214.25,63.017 L228.218,66.477 L242.869,64.939 L307.583,18.764 L307.583,22.651 L242.869,68.828 L228.175,70.366 L210.236,65.881 L190.925,67.715 M310.912,114.83 L298.437,123.715 L302.666,130.122 L374.172,147.934 L408.216,123.629 L408.216,127.518 L374.172,151.825 L302.623,133.971 L287.673,111.416 L287.673,107.526 L296.687,121.068 L310.957,110.943 L310.912,114.83 M299.682,163.996 L299.639,167.884 L291.565,173.651 L291.565,175.618 L262.905,178.563 L229.926,170.36 L229.926,169.549 L227.364,168.951 L227.407,165.06 L230.78,165.872 L230.739,166.642 L246.968,170.703 L262.947,159.297 L258.376,151.95 L258.419,148.06 L279.775,132.81 L279.775,136.657 L260.044,150.712 L264.656,158.102 L264.613,161.993 L250.988,171.731 L262.906,174.676 L292.76,153.405 L299.682,163.996 M338.508,152.891 L359.82,158.186 L365.758,153.958 L365.716,157.846 L342.438,174.461 L325.909,170.357 L321.124,170.702 L320.438,169.634 L320.481,165.746 L321.124,166.812 L325.951,166.468 L342.436,170.572 L350.167,165.104 L332.867,160.791 L332.867,156.901 L354.181,162.201 L355.761,161.09 L338.459,156.777 L338.508,152.891 M333.082,178.35 L281.48,215.126 L275.117,215.811 L251.453,209.915 L247.734,212.562 L230.476,208.25 L226.375,211.15 L214.244,208.119 L214.244,204.273 L226.418,207.306 L230.519,204.359 L247.777,208.673 L251.495,206.025 L275.16,211.921 L281.521,211.28 L333.082,174.459 L333.082,178.35 M267.173,116.924 L242.444,134.567 L242.485,130.678 L267.215,113.036 L267.173,116.924 M229.156,174.333 L238.552,176.641 L238.508,180.528 L229.154,178.221 L227.146,179.631 L222.062,178.35 L222.062,174.461 L227.189,175.742 L229.156,174.333 M114.593,139.604 L114.636,135.718 L115.874,134.821 L115.832,138.712 L114.593,139.604 M72.945,90.91 L71.493,89.202 L71.535,85.312 L72.988,87.021 L72.945,90.91 M43.856,104.152 L32.708,101.334 L32.708,97.445 L43.899,100.264 L43.856,104.152" class="wall"/>
            </g>
            <g class="ceilings">
                <path class="unit" d="M242.762,6.056 L276.764,14.514 L210.168,62.056 L191.033,63.85 L155.664,54.965 L168.309,45.952 L158.1,43.431 L162.158,40.527 L169.804,42.408 L176.254,37.838 L188.771,40.956 L232.937,9.39 L236.742,10.372 L242.762,6.056 L242.762,6.056 Z M242.762,6.056" id="3001"/>
                <path class="unit" d="M228.279,66.498 L210.593,62.099 L280.476,12.207 L307.343,18.913 L242.76,64.96 L228.279,66.498 L228.279,66.498 Z M228.279,66.498" id="3002"/>
                <path class="unit" d="M164.036,73.076 L173.646,66.199 L189.281,70.129 L179.67,76.963 L164.036,73.076 L164.036,73.076 Z M164.036,73.076" id="3003"/>
                <path class="unit" d="M259.42,75.768 L254.465,67.91 L282.444,47.919 L313.923,55.777 L275.694,83.029 L273.258,79.185 L259.42,75.768 L259.42,75.768 Z M259.42,75.768" id="3004"/>
                <path class="unit" d="M275.822,83.285 L322.593,49.925 L345.615,55.691 L290.086,95.291 L282.14,93.283 L275.822,83.285 L275.822,83.285 Z M275.822,83.285" id="3005"/>
                <path class="unit" d="M355.426,58.097 L345.961,55.777 L290.434,95.419 L294.636,102.382 C294.637,102.38 355.383,58.106 355.426,58.097 L355.426,58.097 Z M355.426,58.097" id="3006"/>
                <path class="unit" d="M290.303,105.967 L310.678,111.05 L296.838,120.959 L287.954,107.632 L290.303,105.967 L290.303,105.967 Z M290.303,105.967" id="3007"/>
                <path class="unit" d="M354.504,110.452 L407.942,123.777 L374.154,147.913 L302.861,130.142 L296.966,121.215 L312.728,109.982 L328.191,113.829 L336.607,107.806 L352.626,111.822 L354.504,110.452 L354.504,110.452 Z M354.504,110.452" id="3008"/>
                <path class="unit" d="M338.828,152.954 L344.552,148.851 L365.485,154.062 L359.758,158.165 L338.828,152.954 L338.828,152.954 Z M338.828,152.954" id="3009"/>
                <path class="unit" d="M359.545,158.336 L354.163,162.182 L333.185,156.971 L338.613,153.125 L359.545,158.336 L359.545,158.336 Z M359.545,158.336" id="3010"/>
                <path class="unit" d="M320.716,165.854 L332.979,157.098 L353.953,162.352 L342.42,170.553 L326.019,166.452 L321.32,166.837 L320.716,165.854 L320.716,165.854 Z M320.716,165.854" id="3011"/>
                <path class="unit" d="M174.416,84.524 L190.818,82.816 L192.013,85.295 L169.801,101.142 L156.004,97.682 L174.416,84.524 L174.416,84.524 Z M174.416,84.524" id="3012"/>
                <path class="unit" d="M170.188,101.226 L192.485,85.336 L191.205,82.731 L196.16,79.228 L214.44,77.306 L219.266,78.502 L182.914,104.43 L170.188,101.226 L170.188,101.226 Z M170.188,101.226" id="3013"/>
                <path class="unit" d="M219.607,78.586 L232.89,81.918 L196.539,107.804 L183.297,104.515 L219.607,78.586 L219.607,78.586 Z M219.607,78.586" id="3014"/>
                <path class="unit" d="M245.021,84.951 L206.792,112.203 L195.215,109.128 L233.232,82.003 L245.021,84.951 L245.021,84.951 Z M245.021,84.951" id="3015"/>
                <path class="unit" d="M247.074,85.421 L254.336,96.74 L229.986,114.126 L227.465,113.482 L223.153,116.558 L207.174,112.287 L245.403,85.035 L247.074,85.421 L247.074,85.421 Z M247.074,85.421" id="3016"/>
                <path class="unit" d="M260.23,105.924 L239.3,120.875 L223.538,116.646 L227.598,113.743 L230.119,114.384 L254.51,96.999 L260.23,105.924 L260.23,105.924 Z M260.23,105.924" id="3017"/>
                <path class="unit" d="M262.794,106.65 L267.023,113.1 C258.993,118.852 250.949,124.59 242.888,130.315 L245.282,123.309 L246.22,122.625 L239.685,120.959 L260.529,106.051 L262.794,106.65 L262.794,106.65 Z M262.794,106.65" id="3018"/>
                <path class="unit" d="M258.227,148.127 L264.46,158.208 L246.945,170.682 L230.288,166.537 L231.1,165.937 L227.682,165.083 L241.137,134.584 L268.348,115.188 L279.623,132.876 L258.227,148.127 L258.227,148.127 Z M258.227,148.127" id="3019"/>
                <path class="unit" d="M263.395,174.652 L292.741,153.722 L299.491,164.101 L290.776,170.295 L291.375,171.747 L263.395,174.652 L263.395,174.652 Z M263.395,174.652" id="3020"/>
                <path class="unit" d="M279.752,133.134 L292.564,153.467 L262.876,174.655 L247.328,170.766 L264.929,158.206 L258.65,148.168 L279.752,133.134 L279.752,133.134 Z M279.752,133.134" id="3021"/>
                <path class="unit" d="M230.074,166.666 L262.879,174.866 L322.083,168.717 L324.479,172.475 L332.85,174.569 L281.418,211.305 L275.227,211.946 L251.477,206.008 L247.758,208.654 L230.458,204.342 L226.398,207.247 L214.523,204.3 L219.092,194.518 L211.234,193.792 L217.13,180.337 L229.521,183.412 L238.875,176.748 L229.135,174.31 L227.171,175.72 L222.344,174.525 L224.782,170.466 L230.074,166.666 L230.074,166.666 Z M230.074,166.666" id="3022"/>
                <path class="unit" d="M140.884,48.771 L130.888,55.905 L160.063,63.169 L145.582,73.506 L108.548,64.235 L128.881,49.756 L129.906,50.013 L134.391,47.151 L140.884,48.771 L140.884,48.771 Z M140.884,48.771" id="3023"/>
                <path class="unit" d="M98.767,71.198 L108.335,64.404 L145.37,73.633 L103.765,103.32 L49.986,89.909 L51.225,89.055 L65.193,86.577 L67.158,88.328 L73.266,87.175 L71.856,85.467 L81.509,83.63 L87.404,85.082 L90.992,82.561 L93.256,83.118 L96.673,80.681 L92.914,79.743 L94.067,74.573 L96.074,73.165 L98.509,73.763 L101.243,71.798 L98.767,71.198 L98.767,71.198 Z M98.767,71.198" id="3024"/>
                <path class="unit" d="M45.074,88.924 L103.551,103.489 L85.739,116.177 L64.723,110.964 L49.645,111.391 L34.096,107.547 L44.22,100.329 L33.028,97.552 L45.074,88.924 L45.074,88.924 Z M45.074,88.924" id="3025"/>
                <path class="unit" d="M166.941,104.002 L161.473,107.932 L164.335,108.66 L157.97,113.142 L154.083,112.163 L152.118,113.569 L156.09,114.55 L151.391,117.925 L131.101,112.884 L142.378,104.811 L160.19,103.788 L161.728,102.72 L166.941,104.002 L166.941,104.002 Z M166.941,104.002" id="3026"/>
                <path class="unit" d="M168.223,131.468 L148.702,130.487 L152.461,127.84 L143.576,125.619 L125.422,138.602 L114.401,135.828 L115.64,134.974 L110.087,133.566 L113.589,131.087 L77.41,122.071 L81.51,119.17 L77.965,118.273 C75.772,119.812 73.565,121.335 71.344,122.844 L29.91,112.55 L27.433,114.343 L11.116,110.243 L7.228,113.059 L2.06,160.557 L20.556,168.975 L72.071,179.397 L87.534,170.043 L158.271,173.417 L168.223,131.468 L168.223,131.468 Z M168.223,131.468" id="3027"/>
                <path class="unit" d="M147.078,118.824 L149.256,119.38 L143.319,123.609 L140.798,123.01 L140.713,123.054 L138.876,124.419 L141.354,125.019 L137.253,127.922 L134.648,127.281 L132.811,128.559 L135.63,129.288 L129.949,133.303 L113.845,129.288 L112.094,130.523 L107.865,129.459 L130.888,113.014 L148.914,117.498 L147.078,118.824 L147.078,118.824 Z M147.078,118.824" id="3028"/>
                <path class="unit" d="M168.691,131.341 L149.427,130.358 L153.1,127.754 L143.703,125.401 L171.894,105.285 L228.918,120.748 L239.685,127.711 L206.878,202.719 L195.259,205.58 L73.52,180.72 L72.41,179.525 L87.617,170.255 L158.439,173.63 L168.691,131.341 L168.691,131.341 Z M168.691,131.341" id="3029"/>
                <path class="unit" d="M355.65,58.194 L294.958,102.593 L302.943,104.6 L364.798,60.476 L355.65,58.194 Z M355.65,58.194" id="3030"/>
        </g>
    </g>
</svg>