<?xml version="1.0" encoding="utf-8"?>
<!DOCTYPE svg PUBLIC "-//W3C//DTD SVG 1.1//EN" "http://www.w3.org/Graphics/SVG/1.1/DTD/svg11.dtd">
<svg version="1.1" xmlns="http://www.w3.org/2000/svg" xmlns:xlink="http://www.w3.org/1999/xlink" xml:space="preserve">
<g class="level" id="level0">
            <g class="outline">
                <path d="M298.187,62.803 L231.522,46.18 C231.247,46.11 230.956,46.125 230.688,46.22 L228.53,46.978 L203.13,41.719 L202.648,40.809 C202.456,40.444 202.116,40.178 201.712,40.079 L161.369,30.023 L162.311,29.365 C162.701,29.092 162.933,28.645 162.933,28.17 L162.933,27.323 C162.933,27.147 162.902,26.974 162.842,26.814 L191.869,6.095 C192.229,5.837 192.453,5.429 192.475,4.987 L192.52,4.184 C192.559,3.479 192.084,2.848 191.399,2.686 L183.065,0.725 C182.66,0.63 182.231,0.712 181.891,0.954 L176.41,4.829 C176.022,5.101 175.791,5.546 175.791,6.02 L175.791,6.824 C175.791,6.932 175.806,7.039 175.826,7.143 L148.475,26.68 L136.229,23.618 L136.771,23.556 C137.018,23.528 137.254,23.438 137.458,23.294 L147.394,16.21 C147.779,15.937 148.006,15.494 148.006,15.022 L148.006,14.22 C148.006,13.55 147.55,12.967 146.9,12.805 L135.449,9.953 C135.035,9.849 134.597,9.932 134.25,10.181 L130.162,13.09 L124.84,11.778 C124.425,11.675 123.988,11.761 123.642,12.008 L120.968,13.924 C120.586,14.198 120.36,14.638 120.36,15.11 L120.36,15.914 C120.36,16.185 120.436,16.454 120.581,16.685 L121.994,18.951 L119.21,20.927 L117.664,20.529 L116.903,19.326 C116.704,19.011 116.391,18.784 116.029,18.691 L113.222,17.977 C112.806,17.873 112.364,17.955 112.014,18.206 L85.29,37.309 L84.086,37.411 C83.33,37.473 82.749,38.105 82.749,38.865 L82.749,39.711 C82.749,40.098 82.903,40.469 83.176,40.742 L86.196,43.763 C85.808,44.026 85.557,44.471 85.557,44.969 L85.557,45.774 C85.557,45.837 85.561,45.9 85.569,45.963 L84.737,46.552 L82.434,46.819 C81.699,46.905 81.144,47.529 81.144,48.268 L81.144,49.07 C81.144,49.136 81.148,49.2 81.156,49.262 L78.634,51.052 L76.244,51.322 C76.172,51.331 76.102,51.343 76.034,51.361 L74.836,49.49 L74.836,48.268 C74.836,47.6 74.381,47.017 73.732,46.854 L36.792,37.584 C36.379,37.48 35.938,37.564 35.59,37.812 L24.672,45.61 C24.296,45.879 24.069,46.312 24.062,46.775 L24.03,48.935 L9.21,59.51 C8.867,59.755 8.647,60.136 8.606,60.556 L6.988,77.015 L3.543,76.167 C3.134,76.068 2.702,76.148 2.358,76.392 C2.014,76.634 1.79,77.012 1.745,77.43 L0.319,90.664 C0.314,90.709 0.311,90.758 0.31,90.802 L0.266,94.814 C0.26,95.39 0.592,95.918 1.116,96.158 L4.414,97.676 C4.65,97.783 4.913,97.826 5.172,97.801 L9.539,97.356 C9.607,97.348 9.675,97.336 9.741,97.319 L12.613,96.61 L12.613,100.448 C12.613,101.03 12.955,101.552 13.486,101.785 L14.6,102.275 C14.695,102.317 14.793,102.348 14.895,102.371 L30.401,105.535 C30.799,105.61 31.213,105.526 31.543,105.291 L38.253,100.476 L41.736,101.373 C42.181,101.489 42.656,101.387 43.015,101.098 L44.508,99.894 L46.979,99.629 C47.226,99.605 47.462,99.516 47.665,99.371 L50.695,97.228 C50.741,97.196 50.784,97.162 50.826,97.123 L56.626,92.994 C56.98,92.739 57.202,92.346 57.233,91.914 L74.909,92.838 L74.909,93.319 L73.121,94.58 C72.733,94.852 72.502,95.3 72.502,95.772 L72.502,96.826 L64.004,96.412 C63.825,96.403 63.645,96.427 63.48,96.48 C63.218,96.535 62.981,96.662 62.789,96.838 L52.318,103.334 C52.29,103.343 52.262,103.352 52.235,103.359 C51.673,103.571 51.297,104.106 51.292,104.711 L51.248,108.721 C51.243,109.101 51.387,109.465 51.648,109.742 L52.494,110.636 C52.699,110.852 52.966,111 53.259,111.06 L141.267,129.064 C141.491,129.111 141.722,129.102 141.94,129.044 L149.997,126.868 L208.185,141.391 C208.302,141.419 208.419,141.435 208.538,141.435 C208.841,141.435 209.141,141.341 209.389,141.164 L228.951,127.172 C229.33,126.901 229.555,126.466 229.559,126.002 L229.6,122.311 L248.735,108.636 C249.115,108.366 249.34,107.931 249.344,107.466 L249.377,104.363 L249.473,104.352 C249.721,104.327 249.953,104.235 250.16,104.09 L298.686,69.467 C299.069,69.194 299.297,68.75 299.297,68.279 L299.297,64.217 C299.292,63.549 298.837,62.965 298.187,62.803 L298.187,62.803 L298.187,62.803 Z M97.55,97.962 L99.577,97.167 C99.997,97.001 100.318,96.652 100.444,96.221 L102.398,89.595 L114.284,89.958 C115.006,90.003 115.611,89.493 115.756,88.803 L116.336,86.04 C116.357,85.94 116.367,85.842 116.367,85.741 L116.367,81.683 C116.367,81.574 116.354,81.462 116.329,81.355 L116.7,81.192 C117.157,80.992 117.479,80.569 117.554,80.078 L118.266,75.398 C118.274,75.344 118.28,75.293 118.281,75.237 L119.677,75.303 L114.081,98.838 L97.54,98.038 L97.55,97.962 L97.55,97.962 Z M121.683,49.127 L101.372,63.605 C101.177,63.652 100.992,63.742 100.83,63.866 C100.476,64.137 100.267,64.557 100.262,65.005 L100.217,69.06 C100.214,69.353 100.298,69.629 100.446,69.864 L94.582,68.422 C94.467,68.394 94.351,68.379 94.233,68.379 C93.938,68.379 93.645,68.47 93.398,68.644 L93.055,68.884 L92.032,68.623 L97.93,64.432 C98.31,64.162 98.538,63.726 98.544,63.26 L98.588,59.204 C98.596,58.525 98.134,57.932 97.476,57.77 L94.422,57.024 L94.443,55.962 C94.457,55.28 93.997,54.682 93.336,54.52 L91.846,54.151 L102.612,46.196 L108.361,47.634 C108.776,47.738 109.214,47.655 109.561,47.407 L127.116,34.886 L131.736,34.415 L168.795,43.658 L169.373,44.585 C169.572,44.903 169.89,45.135 170.257,45.227 L185.413,49.017 L192.505,59.187 L174.052,65.469 L166.931,60.984 C166.809,60.908 166.676,60.847 166.537,60.81 L122.911,48.911 C122.491,48.792 122.04,48.874 121.683,49.127 L121.683,49.127 L121.683,49.127 Z M91.497,57.451 L91.496,57.531 L90.898,57.957 L90.897,58.021 L90.747,57.983 L91.497,57.451 L91.497,57.451 Z M35.667,87.263 L35.668,87.218 L36.297,87.143 C36.54,87.117 36.773,87.024 36.972,86.882 L39.468,85.098 C39.845,84.83 40.071,84.397 40.078,83.934 L40.91,83.847 C41.647,83.772 42.209,83.154 42.218,82.413 L42.262,78.356 C42.266,77.963 42.113,77.585 41.836,77.308 L41.128,76.601 L44.167,74.211 L49.033,70.841 L51.374,70.612 C51.628,70.588 51.871,70.496 52.079,70.347 L56.267,67.361 C56.651,67.089 56.879,66.645 56.879,66.174 L56.879,65.404 L59.264,65.984 C59.423,66.025 59.588,66.036 59.751,66.021 L65.232,65.488 C65.489,65.462 65.736,65.37 65.945,65.217 L70.722,61.761 L72.981,61.143 L69.782,63.421 C69.693,63.463 69.606,63.513 69.526,63.573 L37.99,86.876 C37.964,86.893 37.939,86.913 37.914,86.934 C37.798,87.032 37.699,87.143 37.621,87.264 C37.5,87.452 37.422,87.661 37.395,87.889 L35.5,87.889 C35.602,87.7 35.659,87.484 35.667,87.263 L35.667,87.263 L35.667,87.263 Z M54.042,63.767 L51.667,65.447 L49.008,65.713 L42.406,70.529 L49.05,65.65 L51.709,65.385 L54.059,63.724 C54.054,63.74 54.048,63.755 54.042,63.767 L54.042,63.767 L54.042,63.767 Z M72.845,55.075 L72.757,55.096 L73.782,54.364 C73.784,54.376 73.786,54.387 73.789,54.399 L72.845,55.075 L72.845,55.075 Z M76.667,95.958 L76.667,96.032 L76.14,96.013 L76.247,95.937 L76.667,95.958 L76.667,95.958 Z M76.667,95.958" class="outline"/>
            </g>
            <g class="label">
                <path d="M12.435,1.692 C9.554,1.692 7.729,4.029 7.729,7.63 C7.729,11.023 9.521,13.136 12.387,13.136 C15.268,13.136 17.093,10.783 17.093,7.182 C17.092,3.789 15.284,1.692 12.435,1.692 L12.435,1.692 Z M12.418,11.952 C10.273,11.952 9.024,10.207 9.024,7.694 C9.024,4.733 10.256,2.877 12.401,2.877 C14.594,2.877 15.795,4.622 15.795,7.119 C15.796,10.079 14.563,11.952 12.418,11.952 L12.418,11.952 Z M38.915,11.792 L34.145,11.792 L34.145,7.934 L38.019,7.934 C38.403,7.934 38.611,7.615 38.611,7.342 C38.611,7.054 38.403,6.766 38.019,6.766 L34.145,6.766 L34.145,3.037 L38.755,3.037 C39.171,3.037 39.395,2.765 39.395,2.461 C39.395,2.125 39.171,1.82 38.755,1.82 L33.969,1.82 C33.281,1.82 32.912,2.188 32.912,2.781 L32.912,12.049 C32.912,12.641 33.28,13.009 33.969,13.009 L38.915,13.009 C39.299,13.009 39.523,12.673 39.523,12.401 C39.523,12.064 39.299,11.792 38.915,11.792 L38.915,11.792 Z M30.421,1.756 C30.085,1.756 29.877,2.012 29.829,2.332 C29.381,5.389 28.805,8.478 28.068,11.552 L28.036,11.552 C27.172,8.735 26.484,5.373 25.731,3.02 C25.427,2.06 25.155,1.756 24.659,1.756 C24.226,1.756 23.907,2.092 23.635,2.956 C22.899,5.276 22.082,8.911 21.218,11.552 L21.186,11.552 C20.434,8.495 19.985,5.406 19.585,2.396 C19.505,1.964 19.281,1.756 18.929,1.756 C18.545,1.756 18.321,2.06 18.321,2.396 C18.321,2.508 18.353,2.701 18.369,2.764 C18.802,5.853 19.41,9.022 20.034,11.792 C20.258,12.752 20.594,13.072 21.138,13.072 C21.618,13.072 21.938,12.8 22.242,11.935 C23.106,9.438 23.714,6.685 24.643,3.516 L24.675,3.516 C25.635,6.685 26.196,9.454 26.964,11.935 C27.236,12.815 27.572,13.072 28.101,13.072 C28.581,13.072 28.901,12.735 29.093,12 C29.845,9.007 30.486,5.885 30.998,2.684 C31.03,2.508 31.03,2.396 31.03,2.316 C31.029,2.028 30.79,1.756 30.421,1.756 L30.421,1.756 Z M6.707,11.824 L2.401,11.824 L2.401,2.412 C2.401,2.012 2.145,1.756 1.793,1.756 C1.44,1.756 1.168,2.012 1.168,2.412 L1.168,12.048 C1.168,12.64 1.536,13.008 2.225,13.008 L6.706,13.008 C7.106,13.008 7.362,12.736 7.362,12.4 C7.363,12.096 7.123,11.824 6.707,11.824 L6.707,11.824 Z M46.963,8.895 C46.675,8.479 46.355,8.16 45.986,7.919 C47.411,7.422 48.339,6.43 48.339,4.91 C48.339,2.972 47.027,1.692 44.13,1.692 C43.026,1.692 42.273,1.804 41.761,1.964 C41.361,2.092 41.249,2.332 41.249,2.732 L41.249,12.432 C41.249,12.832 41.521,13.073 41.874,13.073 C42.226,13.073 42.498,12.833 42.498,12.432 L42.498,8.254 L43.747,8.254 C44.915,8.254 45.38,8.733 45.956,9.663 C46.356,10.303 46.772,11.23 47.268,12.624 C47.364,12.88 47.54,13.072 47.876,13.072 C48.212,13.072 48.501,12.832 48.501,12.448 C48.501,12.336 48.469,12.176 48.405,12.015 C47.971,10.865 47.459,9.663 46.963,8.895 L46.963,8.895 Z M43.938,7.038 L42.498,7.038 L42.498,3.004 C42.946,2.94 43.378,2.876 44.067,2.876 C46.356,2.876 47.076,3.772 47.076,4.957 C47.075,6.606 45.522,7.086 43.938,7.038 L43.938,7.038 Z M82.866,11.824 L78.56,11.824 L78.56,2.412 C78.56,2.012 78.304,1.756 77.952,1.756 C77.599,1.756 77.327,2.012 77.327,2.412 L77.327,12.048 C77.327,12.64 77.695,13.008 78.384,13.008 L82.865,13.008 C83.265,13.008 83.521,12.736 83.521,12.4 C83.522,12.096 83.282,11.824 82.866,11.824 L82.866,11.824 Z M90.482,11.824 L86.176,11.824 L86.176,2.412 C86.176,2.012 85.92,1.756 85.568,1.756 C85.215,1.756 84.943,2.012 84.943,2.412 L84.943,12.048 C84.943,12.64 85.311,13.008 86,13.008 L90.481,13.008 C90.881,13.008 91.137,12.736 91.137,12.4 C91.138,12.096 90.898,11.824 90.482,11.824 L90.482,11.824 Z M72.754,3.229 C72.13,1.98 71.634,1.612 71.073,1.612 C70.513,1.612 70.017,1.98 69.392,3.229 C68.496,5.039 67.808,7.311 66.639,11.937 C66.575,12.162 66.543,12.337 66.543,12.45 C66.543,12.834 66.799,13.074 67.151,13.074 C67.439,13.074 67.647,12.897 67.727,12.561 C68.031,11.185 68.335,9.953 68.64,8.895 L73.506,8.895 C73.794,9.953 74.098,11.184 74.419,12.561 C74.499,12.897 74.707,13.074 74.995,13.074 C75.347,13.074 75.603,12.834 75.603,12.45 C75.603,12.338 75.555,12.162 75.507,11.937 C74.371,7.31 73.65,5.037 72.754,3.229 L72.754,3.229 Z M68.96,7.775 C69.696,5.327 70.353,3.805 70.865,3.005 C70.913,2.941 70.961,2.877 71.073,2.877 C71.185,2.877 71.233,2.94 71.281,3.005 C71.793,3.805 72.433,5.326 73.17,7.775 L68.96,7.775 L68.96,7.775 Z M64.196,3.052 C64.084,2.219 63.796,1.756 63.14,1.756 C62.515,1.756 62.244,2.124 62.067,2.588 C61.251,4.797 60.355,7.63 59.378,10.255 L59.362,10.255 C58.354,7.774 57.57,5.165 56.545,2.732 C56.321,2.125 56.049,1.756 55.424,1.756 C54.768,1.756 54.464,2.204 54.368,3.085 C54.015,6.014 53.824,9.183 53.84,12.433 C53.824,12.817 54.064,13.074 54.416,13.074 C54.768,13.074 55.04,12.849 55.04,12.418 C55.024,9.345 55.216,6.368 55.553,3.375 L55.569,3.375 C56.546,6 57.49,8.641 58.53,11.266 C58.658,11.602 58.93,11.842 59.346,11.842 C59.746,11.842 60.05,11.602 60.178,11.266 C61.202,8.721 62.083,6.016 63.011,3.375 L63.027,3.375 C63.444,6.399 63.603,9.377 63.683,12.354 C63.683,12.802 63.907,13.075 64.324,13.075 C64.676,13.075 64.9,12.787 64.9,12.402 C64.9,12.274 64.884,12.035 64.884,11.923 C64.852,8.879 64.596,5.823 64.196,3.052 L64.196,3.052 Z M64.196,3.052" class="Shape"/>
            </g>
            <g class="background">
                <path d="M191.349,4.642 L161.294,26.094 L161.959,26.937 L161.959,27.779 L158.414,30.258 L201.632,41.029 L202.433,42.536 L224.374,46.88 L231.153,48.567 L231.153,49.365 L196.313,61.201 L186.651,47.238 L171.048,43.34 L170.161,41.921 L132.485,32.525 L127.255,33.057 L109.48,45.735 L103.098,44.139 L89.134,54.465 L89.444,55.13 L89.444,55.928 L85.321,55.928 L65.11,61.512 L64.222,62.93 L55.225,58.85 L55.269,58.052 L59.569,57.611 L77.431,53.221 L77.297,53.044 L77.342,52.246 L80.091,51.935 L83.904,49.23 L83.505,48.565 L83.505,47.768 L86.164,47.456 L88.292,45.953 L87.894,45.287 L87.894,44.488 L90.066,44.221 L85.101,39.255 L85.101,38.415 L86.698,38.278 L113.6,19.044 L116.393,19.756 L117.456,21.441 L120.205,22.149 L124.638,19.005 L122.511,15.592 L122.511,14.792 L125.17,12.888 L131.11,14.351 L135.719,11.072 L147.112,13.908 L147.112,14.707 L137.228,21.754 L133.238,22.197 L131.155,23.659 L132.131,23.57 L149.328,27.871 L178.807,6.816 L177.655,6.55 L177.655,5.752 L183.108,1.896 L191.395,3.847 L191.349,4.642" class="walkway"/>
                <path d="M296.958,67.866 L248.69,102.305 L245.057,102.702 L241.333,105.359 L241.333,101.329 L245.102,98.672 L248.737,98.272 L296.962,63.833 L296.962,67.867 M247.272,106.827 L223.026,124.158 L223.071,120.125 L247.315,102.792 L247.272,106.827 M227.636,121.276 L227.591,125.264 L208.134,139.183 L149.89,124.645 L141.514,126.907 L53.975,109 L53.133,108.112 L53.178,104.123 L53.976,105.011 L71.219,108.513 L76.626,103.951 L64.083,101.381 L64.128,97.348 L125.383,109.85 L125.338,113.878 L119.975,118.488 L141.561,122.878 L149.938,120.616 L173.519,66.717 L173.476,70.708 L151.491,121.015 L208.183,135.159 L227.636,121.276 M9.207,78.459 L9.252,75.268 L34.029,81.474 L34.961,81.341 L9.651,75.045 L9.651,71.014 L38.373,78.196 L41.298,77.885 L41.254,81.918 L39.127,82.14 L39.127,83.426 L36.645,85.2 L34.783,85.423 L34.739,86.708 L30.571,89.678 L28.354,89.901 L28.354,90.833 L10.049,95.354 L5.705,95.794 L2.426,94.288 L2.471,90.299 L5.75,91.763 L10.094,91.321 L21.708,88.44 L12.886,86.268 L12.886,83.427 L8.897,82.41 L8.632,82.321 L8.632,78.285 L9.207,78.459 M10.182,65.781 L35.624,72.118 L39.834,71.677 L49.008,64.983 L51.668,64.718 L54.992,62.367 L55.037,61.569 L25.075,54.079 L25.119,50.048 L26.049,50.312 L26.094,46.501 L27.246,48.54 L27.202,50.58 L58.052,58.292 L58.052,59.666 L60,60.154 L65.453,59.624 L75.515,52.441 L75.469,56.476 L65.453,63.659 L60,64.188 L56.542,63.346 L55.834,63.833 L55.834,65.785 L51.668,68.753 L48.964,69.02 L43.778,72.611 L39.833,75.715 L35.578,76.159 L10.136,69.817 L10.182,65.781 M73.698,47.965 L73.698,51.998 L72.989,52.528 L72.989,48.497 L73.698,47.965 M70.728,64.365 L70.773,64.365 L84.69,67.821 L97.322,58.824 L97.278,62.854 L84.645,71.852 L70.727,68.351 L70.728,64.365 M90.852,61.261 L90.897,57.228 L93.202,55.588 L93.157,59.577 L90.852,61.261 M108.359,70.303 L101.842,68.663 L101.887,64.632 L111.061,66.936 L111.016,68.975 L122.318,69.507 L122.274,73.54 L116.911,73.271 L116.911,74.734 L116.203,79.388 L113.986,80.366 L113.454,83.956 L113.454,79.966 L114.03,76.333 L116.247,75.356 L116.558,73.273 L108.358,72.876 L108.359,70.303 M114.432,87.987 L101.489,87.591 L99.228,95.261 L96.391,96.367 L95.992,100.223 L74.229,99.248 L74.274,95.213 L76.668,95.303 L76.668,91.491 L78.751,92.021 L78.751,95.435 L96.037,96.187 L96.436,92.331 L99.274,91.225 L101.534,83.556 L113.458,83.953 L114.434,83.953 L115.01,81.205 L115.01,85.236 L114.432,87.987 M82.696,91.226 L56.19,89.85 L56.19,91.265 L50.339,95.435 L50.295,95.435 L50.295,95.48 L47.281,97.607 L44.4,97.919 L42.583,99.382 L38.461,98.319 L31.236,103.507 L15.812,100.361 L14.703,99.876 L14.703,95.843 L15.812,96.329 L31.236,99.473 L38.461,94.331 L42.583,95.352 L44.355,93.975 L39.922,92.87 L39.346,91.583 L39.346,87.55 L39.968,88.837 L50.34,91.447 L53.132,89.458 L53.177,86.487 L54.241,85.73 L82.741,87.194 L82.696,91.226 M89.212,106.515 L80.436,104.699 L75.029,109.308 L83.893,111.124 L89.212,106.515 M95.107,113.386 L100.381,108.78 L92.98,107.273 L87.661,111.882 L95.107,113.386 M109.6,116.357 L116.205,117.686 L121.567,113.122 L114.963,111.745 L109.6,116.357 M104.104,109.575 L98.83,114.138 L105.833,115.6 L111.195,110.996 L104.104,109.575 M31.679,84.885 L15.855,80.986 L15.855,82.936 L27.823,85.951 L30.615,85.639 L31.679,84.885" class="wall"/>
            </g>
            <g class="ceilings">
                <path class="unit" d="M37.22,38.912 L73.598,48.04 L72.933,48.48 L75.414,52.468 L65.488,59.558 L60.215,60.088 L57.07,59.292 L58.532,58.271 L25.61,50.031 L27.649,48.569 L26.495,46.575 L37.22,38.912 L37.22,38.912 Z M37.22,38.912" id="1001"/>
                <path class="unit" d="M88.487,54.465 L93.051,55.616 L90.747,57.257 L97.173,58.85 L84.765,67.714 L71.25,64.346 L84.057,55.219 L88.044,54.777 L88.487,54.465 L88.487,54.465 Z M88.487,54.465" id="1002"/>
                <path class="unit" d="M11.121,60.359 L25.39,50.211 L57.913,58.319 L54.944,60.446 L55.786,61.774 L51.71,64.654 L49.051,64.92 L39.879,71.656 L35.848,72.054 L10.592,65.762 L11.121,60.359 L11.121,60.359 Z M11.121,60.359" id="1003"/>
                <path class="unit" d="M38.594,78.082 L10.059,70.992 L10.546,65.985 L35.627,72.233 L41.164,77.816 L38.594,78.082 L38.594,78.082 Z M38.594,78.082" id="1004"/>
                <path class="unit" d="M34.207,81.361 L9.66,75.246 L10.058,71.216 L38.371,78.261 L39.125,79.412 L36.688,81.098 L34.207,81.361 L34.207,81.361 Z M34.207,81.361" id="1005"/>
                <path class="unit" d="M28.047,85.839 L13.425,82.203 L16.35,80.123 L9.348,78.348 L9.659,75.468 L33.984,81.537 L34.739,82.688 L30.662,85.568 L28.047,85.839 L28.047,85.839 Z M28.047,85.839" id="1006"/>
                <path class="unit" d="M28.312,86.766 L10.234,91.245 L6.025,91.683 L2.879,90.265 L4.297,77.283 L15.771,80.164 L12.803,82.291 L27.824,86.013 L28.312,86.766 L28.312,86.766 Z M28.312,86.766" id="1007"/>
                <path class="unit" d="M116.18,75.334 L113.964,76.311 L113.388,79.992 L114.983,81.23 L114.407,83.889 L101.468,83.489 L99.21,91.2 L96.374,92.306 L95.975,96.116 L74.797,95.143 L79.228,91.997 L77.145,91.467 L83.26,87.122 L54.281,85.661 L53.041,86.546 L56.098,87.299 L50.427,91.331 L40.325,88.807 L39.793,87.568 L71.032,64.484 L93.806,70.201 L94.693,69.535 L103.863,71.84 L105.858,70.424 L116.847,70.82 L116.18,75.334 L116.18,75.334 Z M116.18,75.334" id="1008"/>
                <path class="unit" d="M40.054,88.939 L36.067,88.939 L26.134,91.685 L38.593,94.209 L42.714,95.23 L44.487,93.813 L47.366,93.502 L50.201,91.464 L40.054,88.939 L40.054,88.939 Z M40.054,88.939" id="1009"/>
                <path class="unit" d="M80.333,100.726 L71.294,108.389 L54.369,104.935 L53.615,104.134 L64.383,97.446 L80.333,100.726 L80.333,100.726 Z M80.333,100.726" id="1010"/>
                <path class="unit" d="M122.649,50.168 L165.808,61.954 L173.431,66.739 L149.903,120.577 L141.704,122.794 L116.622,117.652 L125.839,109.806 L65.534,97.492 L115.471,99.883 L122.695,69.529 L108.914,68.775 L111.483,66.914 L102.312,64.653 L122.649,50.168 L122.649,50.168 Z M122.649,50.168" id="1011"/>
                <path class="unit" d="M80.733,100.814 L92.874,103.293 L83.967,111.002 L71.694,108.475 L80.733,100.814 L80.733,100.814 Z M80.733,100.814" id="1012"/>
                <path class="unit" d="M103.994,105.599 L95.133,113.265 L84.365,111.093 L93.272,103.384 L103.994,105.599 L103.994,105.599 Z M103.994,105.599" id="1013"/>
                <path class="unit" d="M114.852,107.769 L105.9,115.478 L95.531,113.353 L104.393,105.687 L114.852,107.769 L114.852,107.769 Z M114.852,107.769" id="1014"/>
                <path class="unit" d="M125.22,109.896 L116.27,117.606 L106.3,115.568 L115.251,107.855 L125.22,109.896 L125.22,109.896 Z M125.22,109.896" id="1015"/>
                <path class="unit" d="M230.812,47.464 L296.745,63.903 L248.667,98.2 L245.032,98.596 L241.178,101.345 L247.116,102.852 L222.882,120.177 L227.444,121.282 L208.215,135.017 L150.344,120.575 L173.873,66.782 L230.812,47.464 L230.812,47.464 Z M230.812,47.464" id="1016"/>
                <path class="unit" d="M16.038,94.476 L15.153,95.806 L16.127,96.295 L31.325,99.349 L38.46,94.328 L25.909,91.748 L16.038,94.476 L16.038,94.476 Z M16.038,94.476" id="1017"/>
        </g>
    </g>
</svg>