<?xml version="1.0" encoding="utf-8"?>
<!DOCTYPE svg PUBLIC "-//W3C//DTD SVG 1.1//EN" "http://www.w3.org/Graphics/SVG/1.1/DTD/svg11.dtd">
<svg version="1.1" xmlns="http://www.w3.org/2000/svg" xmlns:xlink="http://www.w3.org/1999/xlink" xml:space="preserve">
<g class="level" id="level1">
            <g class="outline">
                    <path d="M491.5,164.8 L480.3,162 L484,159.3 C484.3,159.1 484.6,158.7 484.6,158.2 L484.6,154.2 C484.6,153.6 484.2,153 483.6,152.9 L429.2,139.3 C428.8,139.2 428.4,139.3 428.1,139.5 L423.7,142.6 L414,140.2 L414,136.8 C414,136.2 413.6,135.6 413,135.5 L405.4,133.6 L449.9,105.1 L452,105.6 C452.4,105.7 452.8,105.6 453.1,105.4 L467.6,95.1 C468,94.9 468.2,94.4 468.2,94 L468.2,90 C468.2,89.4 467.8,88.9 467.2,88.7 L418.4,76.5 C418,76.4 417.6,76.5 417.3,76.7 L410.7,81.4 L385.1,75 C385.3,74.8 385.4,74.5 385.4,74.2 L385.4,70.2 C385.4,69.6 385,69.1 384.4,68.9 L363.1,63.6 L363.9,63 L369.3,63.8 L398.6,71.1 L398.9,71.1 C399.2,71.1 399.4,71 399.6,70.9 L436.6,44.5 C436.9,44.3 437.1,43.9 437.1,43.5 L437.1,39.4 C437.1,38.8 436.7,38.3 436.1,38.2 L399.4,29.2 L413.9,18.9 C414.2,18.7 414.4,18.3 414.4,17.9 L414.4,13.9 C414.4,13.3 414,12.8 413.5,12.7 L366.7,1 C366.3,0.9 366,1 365.7,1.2 L335.5,22.7 C335.2,22.9 335,23.3 335,23.8 L335.1,27.6 C335.1,28.2 335.5,28.6 336.1,28.8 L341.1,30 L337.7,32.5 L337.7,30.9 L337.7,30.7 L337.7,30.7 C337.7,30.6 337.7,30.5 337.6,30.4 L337.6,30.4 C337.5,30.2 337.5,30.1 337.4,29.9 L337.4,29.9 L337.1,29.6 L337.1,29.6 C337,29.5 336.9,29.5 336.7,29.4 C336.6,29.4 336.6,29.4 336.5,29.3 L324.4,26.3 C323.9,26.2 323.3,26.3 322.9,26.7 L313.6,36.6 C313.3,36.9 313.2,37.3 313.2,37.7 L313.2,38.5 L312.4,39.1 C312.1,39.3 311.8,39.7 311.8,40.1 L306.8,38.8 C306.4,38.7 305.9,38.8 305.6,39 L294.4,47 C294,47.3 293.8,47.7 293.8,48.2 L293.8,51.9 C293.8,52.6 294.3,53.2 294.9,53.4 L307.3,56.5 L307.7,56.5 C308,56.5 308.3,56.4 308.6,56.2 L314.5,52 L351.3,61.2 L347.7,63.9 L341.2,68.6 C341,68.4 340.8,68.2 340.4,68.1 L315.9,62 C315.5,61.9 315.1,62 314.8,62.2 L308.9,66.4 L287.7,61.1 C287.3,61 286.9,61.1 286.6,61.3 L278.9,66.8 L266.5,63.7 C266.1,63.6 265.7,63.7 265.4,63.9 L259.2,68.3 L251.8,66.5 C251.4,66.4 251,66.5 250.7,66.7 L246.3,69.9 C246,70.1 245.7,70.5 245.7,71 L245.7,75 C245.7,75.6 246.1,76.2 246.7,76.3 L250.3,77.2 L246.2,80.1 L244.7,79.7 C244.3,79.6 243.9,79.7 243.6,79.9 L238.8,83.4 C238.5,83.6 238.3,84 238.2,84.5 L238.2,87.3 L233.9,86.2 L233.9,83.2 C233.9,82.6 233.5,82.1 232.9,81.9 L228.2,80.7 C227.8,80.6 227.4,80.7 227.1,80.9 L223.5,83.5 L219.7,82.5 C219.3,82.4 218.9,82.5 218.6,82.7 L210.8,88.2 L208.5,87.6 C208.1,87.5 207.7,87.6 207.4,87.8 L200.8,92.5 L197.3,91.6 C196.9,91.5 196.5,91.6 196.2,91.8 L183.6,100.8 C183.2,101 183,101.5 183,101.9 L183,104.4 L178.6,107.5 C178.3,107.7 178,108.1 178,108.6 L178,110.1 L177.8,110.1 C177.4,110 177,110.1 176.7,110.3 L173.5,112.6 L168.1,111.2 C167.9,111.2 167.7,111.1 167.5,111.2 L157.2,113.2 C156.6,113.3 156.1,113.9 156.1,114.5 L156.1,115.4 L153.3,115.9 L151.8,114.5 C151.5,114.2 151.1,114.1 150.7,114.2 L135.9,116.8 C135.7,116.8 135.5,116.9 135.4,117 L134.4,117.7 L130.1,116.7 C129.7,116.6 129.3,116.7 129,116.9 L116.3,126 C116,126.2 115.7,126.6 115.7,127.1 L115.7,131.1 C115.7,131.7 116.1,132.3 116.7,132.4 L121.4,133.6 L117.5,136.4 C117.1,136.6 116.9,137.1 116.9,137.5 L116.9,141.5 L116.9,141.9 L114.4,141.3 C114,141.2 113.6,141.3 113.3,141.5 L111.2,143 L94.8,138.9 C94.4,138.8 94,138.9 93.7,139.1 L89.5,142.1 C89.2,142.3 89,142.7 89,143 L83.6,192.4 L83.6,192.5 L83.6,196.5 C83.6,197 83.9,197.5 84.4,197.7 L103.7,206.5 C103.8,206.5 103.9,206.6 104,206.6 L128.7,211.6 C128.9,211.7 129,211.8 129.2,211.8 L157.3,217.4 L158.3,218.4 C158.5,218.6 158.7,218.7 159,218.8 L285.6,245 L286.2,245 L298.5,242 C298.9,241.9 299.2,241.6 299.4,241.2 L304.9,228.7 L311.5,230.3 L308.1,230.1 C307.5,230.1 307,230.4 306.8,230.9 L303.5,239.2 C303.4,239.4 303.4,239.5 303.4,239.7 L303.4,243.7 C303.4,244.3 303.8,244.9 304.4,245 L316.5,248 C316.9,248.1 317.3,248 317.6,247.8 L321.9,244.7 L339.2,249 L339.5,249 C339.8,249 340.1,248.9 340.3,248.7 L345,245.2 L354.6,247.6 C354.8,247.6 354.9,247.7 355.1,247.6 L381.5,244.8 C381.7,244.8 381.9,244.7 382.1,244.6 L384.6,242.8 L385.7,243.1 C386.1,243.2 386.5,243.1 386.8,242.9 L401.7,232.2 C402,232 402.3,231.6 402.3,231.1 L402.3,227.1 C402.3,226.5 401.9,225.9 401.3,225.8 L396.3,224.6 L396.9,224.2 L400.7,223.7 L401.2,223.7 L409.1,222.5 C409.3,222.5 409.5,222.4 409.7,222.3 L416.8,217.2 L419,218.8 C419.1,218.9 419.2,218.9 419.3,219 L419.4,219 C419.8,219.1 420.2,219.1 420.6,218.8 L434.5,208.9 L437,209.5 C437.4,209.6 437.8,209.5 438.1,209.3 L455.1,197.2 C455.4,197 455.6,196.6 455.7,196.2 L455.7,195.3 L470.5,184.8 L471.6,185.1 C472,185.2 472.4,185.1 472.7,184.9 L492,171.1 C492.3,170.9 492.6,170.5 492.6,170 L492.6,166 C492.5,165.5 492.1,165 491.5,164.8 L491.5,164.8 Z M491.5,164.8" class="outline"/>
                </g>
                <g class="label">
                    <path d="M30.6,112.5 C30,112.5 29,112.5 28.4,112.7 C28,112.8 27.8,113.1 27.8,113.5 L27.8,123 C27.8,123.4 27.9,123.7 28.5,123.8 C29,123.9 29.7,124 30.7,124 C34.2,124 35.8,121.5 35.8,118.3 C35.9,114.9 34.3,112.5 30.6,112.5 L30.6,112.5 L30.6,112.5 Z M30.8,122.7 C30.1,122.7 29.6,122.7 29.1,122.6 L29.1,113.7 C29.6,113.6 30.2,113.6 30.7,113.6 C33.6,113.6 34.7,115.5 34.7,118 C34.6,120.9 33.5,122.7 30.8,122.7 L30.8,122.7 L30.8,122.7 Z M15,112.5 C14.6,112.5 14.4,112.8 14.4,113.2 L14.4,123.2 C14.4,123.6 14.7,123.8 15,123.8 C15.3,123.8 15.6,123.6 15.6,123.2 L15.6,113.2 C15.6,112.8 15.4,112.5 15,112.5 L15,112.5 L15,112.5 Z M20.8,112.5 C20.2,112.5 19.2,112.5 18.6,112.7 C18.2,112.8 18,113.1 18,113.5 L18,123 C18,123.4 18.1,123.7 18.7,123.8 C19.2,123.9 19.9,124 20.9,124 C24.4,124 26,121.5 26,118.3 C26,114.9 24.5,112.5 20.8,112.5 L20.8,112.5 L20.8,112.5 Z M21,122.7 C20.3,122.7 19.8,122.7 19.3,122.6 L19.3,113.7 C19.8,113.6 20.4,113.6 20.9,113.6 C23.8,113.6 24.9,115.5 24.9,118 C24.8,120.9 23.6,122.7 21,122.7 L21,122.7 L21,122.7 Z M11.5,113.8 C11.4,113 11.1,112.5 10.4,112.5 C9.8,112.5 9.5,112.9 9.3,113.3 C8.5,115.5 7.6,118.3 6.6,121 L6.6,121 C5.6,118.5 4.8,115.9 3.8,113.5 C3.6,112.9 3.3,112.5 2.7,112.5 C2,112.5 1.7,112.9 1.6,113.8 C1.2,116.7 1.1,119.9 1.1,123.1 C1.1,123.5 1.3,123.7 1.7,123.7 C2.1,123.7 2.3,123.5 2.3,123 C2.3,119.9 2.5,116.9 2.8,114 L2.8,114 C3.8,116.6 4.7,119.3 5.8,121.9 C5.9,122.2 6.2,122.5 6.6,122.5 C7,122.5 7.3,122.3 7.4,121.9 C8.4,119.4 9.3,116.7 10.2,114 L10.2,114 C10.6,117 10.8,120 10.9,123 C10.9,123.4 11.1,123.7 11.5,123.7 C11.9,123.7 12.1,123.4 12.1,123 L12.1,122.5 C12.1,119.7 11.9,116.6 11.5,113.8 L11.5,113.8 L11.5,113.8 Z M86.1,122.6 L81.8,122.6 L81.8,113.2 C81.8,112.8 81.5,112.5 81.2,112.5 C80.8,112.5 80.6,112.8 80.6,113.2 L80.6,122.8 C80.6,123.4 81,123.8 81.7,123.8 L86.2,123.8 C86.6,123.8 86.9,123.5 86.9,123.2 C86.8,122.9 86.5,122.6 86.1,122.6 L86.1,122.6 L86.1,122.6 Z M93.7,122.6 L89.4,122.6 L89.4,113.2 C89.4,112.8 89.1,112.5 88.8,112.5 C88.4,112.5 88.2,112.8 88.2,113.2 L88.2,122.8 C88.2,123.4 88.6,123.8 89.3,123.8 L93.8,123.8 C94.2,123.8 94.5,123.5 94.5,123.2 C94.4,122.9 94.2,122.6 93.7,122.6 L93.7,122.6 L93.7,122.6 Z M43.2,122.6 L38.9,122.6 L38.9,113.2 C38.9,112.8 38.6,112.5 38.3,112.5 C37.9,112.5 37.7,112.8 37.7,113.2 L37.7,122.8 C37.7,123.4 38.1,123.8 38.8,123.8 L43.3,123.8 C43.7,123.8 44,123.5 44,123.2 C43.9,122.9 43.7,122.6 43.2,122.6 L43.2,122.6 L43.2,122.6 Z M76,114 C75.4,112.8 74.9,112.4 74.3,112.4 C73.7,112.4 73.2,112.8 72.6,114 C71.7,115.8 71,118.1 69.8,122.7 C69.7,122.9 69.7,123.1 69.7,123.2 C69.7,123.6 70,123.8 70.3,123.8 C70.6,123.8 70.8,123.6 70.9,123.3 C71.2,121.9 71.5,120.7 71.8,119.6 L76.7,119.6 C77,120.7 77.3,121.9 77.6,123.3 C77.7,123.6 77.9,123.8 78.2,123.8 C78.6,123.8 78.8,123.6 78.8,123.2 C78.8,123.1 78.8,122.9 78.7,122.7 C77.6,118.1 76.9,115.8 76,114 L76,114 L76,114 Z M72.2,118.5 C72.9,116.1 73.6,114.5 74.1,113.7 C74.1,113.6 74.2,113.6 74.3,113.6 C74.4,113.6 74.5,113.7 74.5,113.7 C75,114.5 75.7,116 76.4,118.5 L72.2,118.5 L72.2,118.5 Z M51.3,122.6 L46.5,122.6 L46.5,118.7 L50.4,118.7 C50.8,118.7 51,118.4 51,118.1 C51,117.8 50.8,117.5 50.4,117.5 L46.5,117.5 L46.5,113.8 L51.1,113.8 C51.5,113.8 51.7,113.5 51.7,113.2 C51.7,112.9 51.5,112.6 51.1,112.6 L46.3,112.6 C45.6,112.6 45.2,113 45.2,113.6 L45.2,122.9 C45.2,123.5 45.6,123.9 46.3,123.9 L51.2,123.9 C51.6,123.9 51.8,123.6 51.8,123.3 C51.9,122.8 51.7,122.6 51.3,122.6 L51.3,122.6 L51.3,122.6 Z M67.5,113.8 C67.4,113 67.1,112.5 66.4,112.5 C65.8,112.5 65.5,112.9 65.3,113.3 C64.5,115.5 63.6,118.3 62.6,121 L62.6,121 C61.6,118.5 60.8,115.9 59.8,113.5 C59.6,112.9 59.3,112.5 58.7,112.5 C58,112.5 57.7,112.9 57.6,113.8 C57.2,116.7 57.1,119.9 57.1,123.1 C57.1,123.5 57.3,123.7 57.7,123.7 C58.1,123.7 58.3,123.5 58.3,123 C58.3,119.9 58.5,116.9 58.8,114 L58.8,114 C59.8,116.6 60.7,119.3 61.8,121.9 C61.9,122.2 62.2,122.5 62.6,122.5 C63,122.5 63.3,122.3 63.4,121.9 C64.4,119.4 65.3,116.7 66.2,114 L66.2,114 C66.6,117 66.8,120 66.9,123 C66.9,123.4 67.1,123.7 67.5,123.7 C67.9,123.7 68.1,123.4 68.1,123 L68.1,122.5 C68.1,119.7 67.9,116.6 67.5,113.8 L67.5,113.8 L67.5,113.8 Z M67.5,113.8" class="Shape"/>
                </g>
                <g class="background">
                    <path d="M397.5,162.7 L384.9,142.7 L395.9,134.8 L404.1,131.1 L404.1,130.3 L373.4,123.2 L372.2,121.1 L309.3,105.4 L314.8,101.5 L314.8,100.7 L313.7,99.2 L357.5,67.9 L357.5,67.1 L356.4,66.9 L363.6,61.8 L369.6,62.7 L399,70 L435.9,43.6 L435.9,39.6 L396.6,30 L413.4,18.1 L413.3,14.1 L366.4,2.2 L336.2,23.7 L336.3,27.5 L343.8,29.3 L336.1,34.8 L328.6,31.9 L304.8,47.8 L314.3,50.4 L313.9,50.7 L324.7,53.3 L354.4,60.5 L348.4,64.8 L348.3,64.8 L296.1,102.1 L278.7,97.8 L272.8,98.5 L257.5,94.7 L256,92.1 L252.1,91.1 L163.7,154.1 L163.7,154.9 L194.6,162.7 L230.7,136.9 L249.3,135.9 L250.9,134.7 L252.8,135.2 L259.1,130.7 L259.2,129.9 L257,129.3 L255.8,130.2 L253.9,129.7 L252,131.1 L245.7,129.5 L271.4,111.1 L279.5,110.3 L326.6,122 L327.9,124.1 L350.5,129.7 L391.7,194.5 L341.9,230 L341.9,230.8 L347.2,239.6 L343,242.7 L342.9,243.5 L354.9,246.4 L381.3,243.6 L385.9,240.3 L385.9,239.5 L375.4,236.9 L370.7,229.3 L409.7,201.5 L414.7,200.9 L431.7,188.9 L454.2,194.6 L471.9,182 L471.9,181.2 L397.5,162.7 Z M397.5,162.7" class="walkway"/>
                    <path d="M257.5,73.5 L246.9,70.8 L246.9,74.8 L257.5,77.5 L257.5,73.5 L257.5,73.5 Z M354.2,31.9 L330.7,48.7 L330.7,52.4 L351.4,57.6 L356.4,54 L359.3,51.9 L359.3,50.6 L377.1,38 L383,39.6 L413.4,18.1 L413.4,14.1 L383.2,35.5 L377.3,34 L336.4,23.7 L336.5,27.5 L354.2,31.9 L354.2,31.9 Z M338,167.1 L379.9,177.6 L379.9,173.6 L338,163.1 L338,167.1 L338,167.1 Z M347.1,156.1 L337.2,153.7 L337.2,157.7 L347,160.1 L355.7,153.8 L364.2,152.9 L364.2,148.9 L355.7,149.8 L347.1,156.1 L347.1,156.1 Z M377.9,74.4 L377.9,78.4 L378.3,78.1 L378.3,78.3 L384.5,73.9 L384.5,69.9 L384.1,70.2 L384.1,70 L377.9,74.4 L377.9,74.4 Z M363.7,48.6 L363.7,52.6 L366.3,53.2 L366.3,54.5 L366.8,54.6 L366.8,56.5 L370.9,57.5 L369.6,58.4 L369.6,62.7 L399,70 L436,43.6 L436,39.5 L421.7,49.7 L388.2,41 L363.7,48.6 L363.7,48.6 Z M313.3,97.1 L313.3,101.1 L314.8,103.1 L314.8,99.1 L313.3,97.1 L313.3,97.1 Z M442.5,83.8 C423.5,97.4 404.6,110.9 385.6,124.4 L373.4,121.6 L372.2,119.5 L366.9,118.2 L411,86.7 L411,82.7 L362.8,117.1 L342.2,112 L386.2,80.6 L386.2,76.6 L338,111 L308.5,103.6 L308.5,107.6 L372.2,123.5 L373.4,125.6 L404.1,132.7 L449.7,103.5 L452.4,104.2 L466.9,93.9 L466.9,89.9 L452.4,100.2 L449.7,99.5 L404.1,128.6 L389.9,125.3 L442.6,87.7 L442.6,83.8 L442.5,83.8 L442.5,83.8 Z M385.7,186.6 L385.7,182.6 L336.1,170.3 L336.1,167.8 L332.5,166.9 L332.5,170.9 L333.5,171.2 L333.5,173.6 L385.7,186.6 L385.7,186.6 Z M483.3,154 L473,161.3 L473,165.3 L483.3,158 L483.3,154 L483.3,154 Z M355.5,154.6 L355.5,158.2 L351.8,157.3 L351.8,161.3 L373,166.6 L373,162.6 L370.2,161.9 L370.2,158.3 L355.5,154.6 L355.5,154.6 Z M343.9,152.9 L343.9,149.2 L348.8,145.6 L359.1,145.1 L359.2,145 L359.2,141 L359.1,141.1 L348.8,141.6 L340,147.9 L339,147.6 L354,136.9 L354,132.9 L334.8,146.6 L327.7,144.8 L347.7,130.6 L347.7,126.6 L315.4,149.6 L315.4,153.6 L323.5,147.8 L343.9,152.9 L343.9,152.9 Z M296.7,146.2 L312.4,138.5 L329.6,126.2 L329.6,122.2 L312.4,134.5 L296.7,142.2 L294.3,141.6 L294.3,138.3 L292.6,137.8 L316,121 L316,117 L288.6,136.6 L275.9,133 L298.8,116.7 L298.8,112.7 L271.9,131.9 L257,127.7 L255.8,128.6 L254,128.1 L252,129.5 L244.9,127.7 L244.9,131.7 L252,133.5 L253.9,132.1 L255.8,132.5 L257,131.7 L290.9,141.2 L290.9,144.7 L296.7,146.2 L296.7,146.2 Z M321.5,239.1 L316.7,242.5 L304.6,239.5 L304.6,243.5 L316.7,246.5 L321.5,243.1 L339.4,247.6 L347.6,241.7 L347.6,237.7 L339.4,243.6 L321.5,239.1 L321.5,239.1 Z M311.9,234.4 L311.9,238.4 L345.5,238.2 L345.5,234.2 L312.8,234.4 L312.8,231.6 L311.9,234.4 L311.9,234.4 Z M235.9,213.7 L235.9,209.7 L231.7,213.4 L231.7,217.4 L235.9,213.7 L235.9,213.7 Z M202.1,166.8 L202.1,170.8 L203.3,169.9 L203.3,165.9 L202.1,166.8 L202.1,166.8 Z M375.5,235.3 L370.4,227.2 L370.4,231.2 L375.5,239.3 L386,241.9 L400.9,231.2 L400.9,227.2 L386,237.9 L375.5,235.3 L375.5,235.3 Z M423.9,192 L423.9,196 L442.4,200.6 L437.5,204.1 L414.9,198.5 L414.9,202.5 L430.3,206.3 L428.6,207.5 L405.9,201.9 L405.9,205.9 L424.4,210.5 L423.7,211 L401,205.3 L401,209.3 L415,212.8 L412.8,214.4 L394.7,209.9 L394.7,213.9 L408.1,217.2 L401.5,218.2 L401.5,218.1 L396.9,218.8 L385.9,216.1 L385.9,220.1 L392.5,221.7 L389.2,224.1 L389.2,228.1 L396.6,222.8 L401.2,222.1 L401.2,222.2 L409.1,221 L417,215.4 L420,217.5 L420.1,217.5 L434.5,207.2 L437.6,208 L454.6,195.9 L454.6,191.9 L446.7,197.5 L423.9,192 L423.9,192 Z M471.9,179.6 L442.4,172.3 L467.8,154.2 L467.8,150.2 L438.2,171.3 L401.7,162.2 L418.6,150.1 L423.5,151.3 L432,145.2 L432,141.2 L423.5,147.2 L418.7,146 L397.6,161 L393.4,154.3 L412.7,140.5 L412.7,136.5 L391.6,151.5 L384.5,140.3 L384.5,144.3 L397.5,164.9 L471.8,183.5 L491.1,169.7 L491.1,165.7 L471.9,179.6 L471.9,179.6 Z M158.8,116.2 L157.3,114.4 L157.3,118.4 L158.8,120.2 L158.8,116.2 L158.8,116.2 Z M232.5,83.1 L230.3,84.7 L230.3,88.7 L232.6,87.1 L232.6,83.1 L232.5,83.1 L232.5,83.1 Z M183.1,109.6 L179.3,108.6 L179.3,112.6 L183.1,113.6 L183.1,109.6 L183.1,109.6 Z M150.1,141.1 L134.5,141.6 L118.1,137.5 L118.1,141.5 L134.5,145.6 L150.1,145.1 L164,148.6 L164,152.5 L163.9,152.6 L163.9,156.6 L168.2,153.6 L168.2,149.6 L172.3,150.6 L249.8,95.3 L249.8,93 L256.3,94.5 L257.8,97.1 L273.1,100.9 L279,100.2 L296.4,104.5 L340.3,73.2 L340.3,69.2 L296.4,100.5 L284.9,97.7 L324.5,69.4 L324.5,65.4 L280.6,96.7 L278.9,96.3 L272.9,97 L257.7,93.2 L256.2,90.6 L251.1,89.4 L251.1,88 L247,86.9 L246.2,87.5 L245.9,87.5 L245.9,86 L239.7,84.5 L239.7,88.5 L244.4,89.7 L244.4,91 L246.2,91.4 L247,90.8 L249.6,91.5 L221.9,111.3 L184.5,102 L184.5,106 L217.7,114.3 L206.6,122.2 L173.9,114.1 L173.9,118.1 L202.4,125.2 L191.1,133.3 L134.8,119.2 L134.8,123.2 L186.9,136.3 L172.3,146.6 L150.1,141.1 L150.1,141.1 Z M128.6,130 L117,127.1 L117,131.1 L128.6,134 L128.6,130 L128.6,130 Z M341.9,232.4 L392.1,196.6 L392.1,192.6 L388.5,195.2 L327,179.8 L327,183.8 L384.4,198.1 L374.9,204.8 L321.9,191.6 L321.9,195.6 L370.8,207.8 L366,211.2 L323,200.5 L323,198 L319.4,197.1 L319.4,201.1 L320.4,201.4 L320.4,203.8 L361.8,214.1 L358.9,216.1 L318.9,206.1 L316.6,202.5 L316.6,206.5 L318.6,209.7 L317.7,209.5 L317.7,213.5 L327.4,215.9 L327.4,212.3 L354.8,219.1 L349.6,222.8 L321.7,215.9 L321.7,219.9 L345.4,225.8 L342.2,228.2 L323.9,227.6 L305.9,223.1 L332.5,162.2 L332.5,158.2 L298.4,236.2 L286.1,239.2 L228,227.3 L238.1,218.4 L238.1,214.4 L224.3,226.6 L159.4,213.3 L158.2,212 L135.4,207.5 L147.9,201.2 L174.1,206.3 L254.8,210.2 L254.8,206.2 L248.9,205.9 L258.2,166.1 L258.3,166.1 L258.3,162.1 L242,161.3 L242,158.4 L234.5,156.5 L238.5,153.6 L238.5,151.7 L240.5,152.2 L245.6,148.6 L245.6,147 L247.3,147.4 L254.1,142.6 L254.1,139.7 L256.8,137.7 L256.8,133.7 L251.1,137.7 L251.1,140.6 L247.3,143.3 L243.3,142.3 L241.4,143.6 L241.4,147.6 L240.4,148.3 L219,142.9 L219,146.9 L236.2,151.2 L232.1,154.1 L229.3,153.4 L229.3,153.6 L227.7,154.8 L227.7,157.3 L225.8,158.6 L223.1,157.9 L221.4,159.1 L202.8,154.4 L202.8,158.4 L220,163 L218.1,164.4 L201.4,160.2 L199.6,161.5 L194.8,160.3 L194.8,164.3 L197.7,165 L197.7,168.5 L201.3,165.9 L201.3,164.2 L218,168.4 L224.1,164 L224.1,162.4 L225.6,162.8 L230.1,159.6 L230.1,157.9 L231.9,158.3 L231.9,160.1 L238,161.6 L238,165.3 L257.1,166.2 L247.7,206 L173.9,202.4 L147.7,197.3 L129.7,206.4 L104.2,201.2 L84.8,192.4 L84.8,196.4 L104.1,205.2 L129.4,210.3 L129.4,210.4 L157.9,216 L159.1,217.3 L285.8,243.2 L298.1,240.2 L304,226.7 L323.6,231.6 L341.9,232.4 L341.9,232.4 Z M318.7,47.3 L318.7,44 L323.6,43.8 L336.1,34.7 L336.1,30.7 L323.4,39.8 L316.5,38.1 L314.8,37.7 L314.9,40.3 L313.4,40.4 L313.5,44.3 L318.1,44.1 L307.7,51.3 L295.5,48.3 L295.5,52 L307.9,55.1 L318.7,47.3 L318.7,47.3 Z M318.7,47.3" class="wall"/>
                </g>
                <g class="ceilings">
                    <path class="unit" d="M371.5,37.7 L366.4,41.4 L347.7,36.6 L352.9,32.9 L371.5,37.7 L371.5,37.7 Z M371.5,37.7" id="2001"/>
                    <path class="unit" d="M342.1,40.5 L360.8,45.3 L357.5,47.7 L338.5,43.1 L342.1,40.5 L342.1,40.5 Z M342.1,40.5" id="2002"/>
                    <path class="unit" d="M382.7,35.8 L376.5,34.2 L336.2,23.7 L366.4,2.2 L413.3,14.1 L382.7,35.8 L382.7,35.8 Z M382.7,35.8" id="2003"/>
                    <path class="unit" d="M338.1,43.4 L358.7,48.5 L356.2,50.3 L351.2,53.9 L330.6,48.8 L338.1,43.4 L338.1,43.4 Z M338.1,43.4" id="2004"/>
                    <path class="unit" d="M309.3,68 L315.7,63.4 L324.2,65.5 L280.7,96.6 L279.1,96.2 L273,97 L257.5,93.2 L256,90.6 L249.9,89.2 L251.5,88.1 L247,86.9 L246.2,87.5 L244.8,87.1 L246.4,86 L240.2,84.4 L244.8,81.1 L246.8,81.6 L258.2,73.5 L247.5,71 L251.8,68 L259.7,70 L266.4,65.2 L279.4,68.4 C282.2,66.4 284.9,64.5 287.6,62.5 L309.3,68 L309.3,68 Z M309.3,68" id="2005"/>
                    <path class="unit" d="M280.7,96.7 L324.2,65.6 L339.4,69.4 L296,100.5 L280.7,96.7 L280.7,96.7 Z M280.7,96.7" id="2006"/>
                    <path class="unit" d="M314.8,99.3 L313.3,97.1 L360,64.3 L383.9,70.3 L377.7,74.7 L386,76.8 L338,111 L309,103.7 L315.2,99.3 L314.8,99.3 L314.8,99.3 Z M314.8,99.3" id="2007"/>
                    <path class="unit" d="M386.5,77 L410.8,83.1 L362.9,117.3 L338.5,111.2 L386.5,77 L386.5,77 Z M386.5,77" id="2008"/>
                    <path class="unit" d="M442.4,84.2 L385.8,124.6 L373.9,121.8 L372.7,119.7 L363.3,117.4 L418.3,78.2 L442.4,84.2 L442.4,84.2 Z M442.4,84.2" id="2009"/>
                    <path class="unit" d="M452.9,86.8 L442.6,84.3 L386,124.6 L395.4,126.7 L452.9,86.8 L452.9,86.8 Z M452.9,86.8" id="2010"/>
                    <path class="unit" d="M368.7,51.1 L366.3,50.5 L367.6,49.6 L363.6,48.6 L377.8,38.5 L391.8,42.1 L374.6,54.3 L366.7,52.4 L368.7,51.1 L368.7,51.1 Z M368.7,51.1" id="2011"/>
                    <path class="unit" d="M412.4,137.2 L391.6,152 L384.8,141.1 L395.9,133.2 L412.4,137.2 L412.4,137.2 Z M412.4,137.2" id="2012"/>
                    <path class="unit" d="M431.6,141.8 L423.3,147.7 L418.5,146.5 L397.6,161.4 L391.8,152.3 L408.1,140.7 L424,144.7 L428.9,141.2 L431.6,141.8 L431.6,141.8 Z M431.6,141.8" id="2013"/>
                    <path class="unit" d="M418.6,146.7 L423.5,147.9 L432,141.8 L467.4,150.6 L438.1,171.5 L397.8,161.5 L418.6,146.7 L418.6,146.7 Z M418.6,146.7" id="2014"/>
                    <path class="unit" d="M482.8,154.5 L472.5,161.9 L490.6,166.4 L471.6,179.9 L438.4,171.6 L467.7,150.7 L482.8,154.5 L482.8,154.5 Z M482.8,154.5" id="2015"/>
                    <path class="unit" d="M232.1,83.5 L230,85.1 L231.3,87.3 L249.1,91.7 L221.4,111.5 L184.4,102.3 L196.8,93.5 L200.9,94.5 L208,89.4 L211,90.1 L219.2,84.2 L223.6,85.3 L227.7,82.4 L232.1,83.5 L232.1,83.5 Z M232.1,83.5" id="2016"/>
                    <path class="unit" d="M187.6,103.1 L221.3,111.5 L206.3,122.2 L174.1,114.2 L177.6,111.7 L179.9,112.3 L183.5,109.8 L179.6,108.8 L187.6,103.1 L187.6,103.1 Z M187.6,103.1" id="2017"/>
                    <path class="unit" d="M271.5,108.9 L279.4,108.1 L298.4,112.9 L271.7,131.9 L256.9,127.7 L255.7,128.6 L253.9,128.1 L251.9,129.5 L245.2,127.8 L271.5,108.9 L271.5,108.9 Z M271.5,108.9" id="2018"/>
                    <path class="unit" d="M150.8,115.9 L152.8,117.7 L159.1,116.5 L157.6,114.7 L167.6,112.8 L206,122.4 L190.8,133.2 L135,119.4 L136.3,118.5 L150.8,115.9 L150.8,115.9 Z M150.8,115.9" id="2019"/>
                    <path class="unit" d="M298.7,112.9 L315.6,117.1 L288.4,136.5 L272.1,131.9 L298.7,112.9 L298.7,112.9 Z M298.7,112.9" id="2020"/>
                    <path class="unit" d="M288.8,136.7 L316,117.3 L326.3,119.9 L327.6,121.9 L329.3,122.3 L312.2,134.5 L296.6,142.1 L291.1,140.7 L294.6,138.3 L288.8,136.7 L288.8,136.7 Z M288.8,136.7" id="2021"/>
                    <path class="unit" d="M350.2,127.6 L353.8,133.2 L334.8,146.8 L323.9,144.1 L347.8,127 L350.2,127.6 L350.2,127.6 Z M350.2,127.6" id="2022"/>
                    <path class="unit" d="M129.9,118.4 L190.6,133.5 L172.1,146.7 L150.3,141.3 L134.6,141.7 L118.5,137.7 L129,130.2 L117.4,127.3 L129.9,118.4 L129.9,118.4 Z M129.9,118.4" id="2023"/>
                    <path class="unit" d="M359.3,141.3 L349,141.8 L340.3,148.1 L335.5,146.9 L354.3,133.5 L359.3,141.3 L359.3,141.3 Z M359.3,141.3" id="2024"/>
                    <path class="unit" d="M219.3,143 L231,134.7 L249.4,133.6 L249.5,133.6 L251.1,132.5 L256.6,133.8 L250.9,137.9 L253.8,138.6 L247.2,143.3 L243.1,142.3 L241.1,143.8 L245.2,144.8 L240.3,148.3 L219.3,143 L219.3,143 Z M219.3,143" id="2025"/>
                    <path class="unit" d="M235.6,210.1 L231.4,213.8 L237.6,215 L224,227 L159.4,213.8 L158.2,212.5 L129.9,207 L147.9,198 L174,203 L209.6,204.7 L235.6,210.1 L235.6,210.1 Z M235.6,210.1" id="2026"/>
                    <path class="unit" d="M247.5,206.1 L174.1,202.5 L147.9,197.4 L129.7,206.5 L104.4,201.4 L85.2,192.7 L90.6,143.4 L94.7,140.5 L111.6,144.7 L114.2,142.9 L157.2,153.6 L164,148.8 L167.7,149.7 L163.4,152.7 L200.9,162.1 L197.3,164.7 L203,166.1 L201.7,167 L213.1,169.9 L232,156.5 L241.4,158.8 L237.5,161.6 L257.7,162.6 L247.5,206.1 L247.5,206.1 Z M247.5,206.1" id="2027"/>
                    <path class="unit" d="M213.3,169.9 L201.4,178.6 L178.7,171.6 L194.7,160.5" id="2028"/>
                    <path class="unit" d="M355.9,150 L347.2,156.1 L337.7,153.7 L344.4,149 L340.5,148 L349.2,141.8 L359.3,141.3 L364.1,149 L355.9,150 L355.9,150 Z M355.9,150" id="2029"/>
                    <path class="unit" d="M365.6,151.6 L369.9,158.3 L355.9,154.8 L359.6,152.2 L365.6,151.6 L365.6,151.6 Z M365.6,151.6" id="2030"/>
                    <path class="unit" d="M203.2,154.7 L219.2,143.3 L237.9,148 L235.9,149.4 L238.2,150 L232,154.3 L229.4,153.6 L227.4,155.1 L230,155.7 L225.8,158.7 L223,158 L221.3,159.2" id="2031"/>
                    <path class="unit" d="M372.9,162.8 L379.6,173.4 L338.4,163.1 L341.5,160.9 L345.9,162 L349.5,159.5 L351.7,160 L354.3,158.2 L372.9,162.8 L372.9,162.8 Z M372.9,162.8" id="2032"/>
                    <path class="unit" d="M352.1,157.5 L372.7,162.6 L370.1,158.5 L355.7,154.9 L352.1,157.5 L352.1,157.5 Z M352.1,157.5" id="2033"/>
                    <path class="unit" d="M222,158.7 L220.9,159.4" id="2034"/>
                    <path class="unit" d="M221,159.5 L220.8,159.6 L223.9,160.4 L218,164.6 L201.3,160.4 L199.5,161.7 L195.1,160.6 L202.8,155.1 L203.1,154.9 L221,159.5 L221,159.5 Z M221,159.5" id="2035"/>
                    <path class="unit" d="M203,154.8 L203.9,154.1" id="2036"/>
                    <path class="unit" d="M385.5,182.5 L334.1,169.7 L336.6,167.8 L333.1,167 L338.2,163.3 L379.8,173.7 L385.5,182.5 L385.5,182.5 Z M385.5,182.5" id="2037"/>
                    <path class="unit" d="M333.9,169.9 L385.7,182.8 L392,192.7 L388.5,195.2 L327.5,179.9 L331,172 L333.9,169.9 L333.9,169.9 Z M333.9,169.9" id="2038"/>
                    <path class="unit" d="M327.2,180.4 L388.1,195.6 L374.7,205.1 L322.1,192 L327.2,180.4 L327.2,180.4 Z M327.2,180.4" id="2039"/>
                    <path class="unit" d="M322.2,192 L374.7,205.1 L365.9,211.4 L320.8,200.2 L323.4,198.3 L319.8,197.4 L322.2,192 L322.2,192 Z M322.2,192" id="2040"/>
                    <path class="unit" d="M232.2,156.3 L261.5,135.4 L293.2,144.1 L312.5,134.8 L329.6,122.6 L347.3,127 L315.1,150 L320.7,151.5 L332.2,158.9 L298.3,236.5 L286,239.5 L224.5,227 L238.1,215 L244.1,216.2 L255,206.6 L248.1,206.2 L258.4,162.6 L238.5,161.5 L242.2,158.8 L232.2,156.3 L232.2,156.3 Z M232.2,156.3" id="2041"/>
                    <path class="unit" d="M320.5,200.2 L365.6,211.4 L358.8,216.3 L318.8,206.3 L316.5,202.7 L320.5,200.2 L320.5,200.2 Z M320.5,200.2" id="2042"/>
                    <path class="unit" d="M321,207.3 L358.2,216.6 L349.1,223.1 L321.7,216.3 L327.3,212.3 L317.6,209.9 L321,207.3 L321,207.3 Z M321,207.3" id="2043"/>
                    <path class="unit" d="M323.5,227.9 L304.1,223.1 L308.4,213.2 L348.8,223.3 L341.5,228.5 L323.5,227.9 L323.5,227.9 Z M323.5,227.9" id="2044"/>
                    <path class="unit" d="M341.6,228.7 L345.1,234.2 L312.1,234.4 L315.2,225.9 L323.6,228 L341.6,228.7 L341.6,228.7 Z M341.6,228.7" id="2045"/>
                    <path class="unit" d="M311.7,234.5 L345.3,234.3 L347.4,237.7 L339.4,243.6 L321.6,239.1 L316.8,242.5 L305.1,239.6 L308.3,231.5 L312.8,231.8 L311.7,234.5 L311.7,234.5 Z M311.7,234.5" id="2046"/>
                    <path class="unit" d="M454.1,192.3 L446.5,197.7 L424.3,192.2 L431.9,186.8 L454.1,192.3 L454.1,192.3 Z M454.1,192.3" id="2047"/>
                    <path class="unit" d="M446.2,197.9 L437.4,204.2 L415.1,198.7 L424,192.4 L446.2,197.9 L446.2,197.9 Z M446.2,197.9" id="2048"/>
                    <path class="unit" d="M414.8,198.8 L434.1,203.6 L428.4,207.6 L406.1,202.1 L410,199.3 L414.8,198.8 L414.8,198.8 Z M414.8,198.8" id="2049"/>
                    <path class="unit" d="M423.2,211.3 L419.9,213.7 L416.7,211.5 L412.5,214.5 L394.7,210.1 L400.8,205.8 L423.2,211.3 L423.2,211.3 Z M423.2,211.3" id="2050"/>
                    <path class="unit" d="M412.4,214.7 L408.8,217.3 L401.3,218.5 L396.8,219.2 L386.2,216.5 L394.7,210.4 L412.4,214.7 L412.4,214.7 Z M412.4,214.7" id="2051"/>
                    <path class="unit" d="M385.9,216.5 L396.2,219.1 L388.7,224.5 L400.6,227.5 L386,237.9 L375.5,235.3 L370.4,227.2 L385.9,216.5 L385.9,216.5 Z M385.9,216.5" id="2052"/>
                    <path class="unit" d="M406,202 L428.5,207.7 L423.5,211.3 L400.9,205.8 L406,202 L406,202 Z M406,202" id="2053"/>
                    <path class="unit" d="M442.6,84.2 L453,86.8 L395.6,126.8 L386,124.6 L404.1,128.7 L449.6,99.6 L452.3,100.3 L466.6,90.1 L442.6,84.2 L442.6,84.2 Z M442.6,84.2" id="2054"/>
                    <path class="unit" d="M376.2,34.4 L371.9,37.5 L353.1,32.7 L357.4,29.6 L376.2,34.4 L376.2,34.4 Z M376.2,34.4" id="2055"/>
                    <path class="unit" d="M347.3,36.8 L366,41.6 L361.1,45.1 L342.4,40.3 L347.3,36.8 L347.3,36.8 Z M347.3,36.8" id="2056"/>
                    <path class="unit" d="M435.9,39.6 L398.8,66.1 L369.2,58.6 L400.3,36.6 L403.5,37.4 L409.5,33.2 L435.9,39.6 L435.9,39.6 Z M435.9,39.6" id="2057"/>
                    <path class="unit" d="M336.1,30.8 L323.4,39.8 L313.3,40.3 L316.5,38.1 L314.7,37.6 L324,27.7 L336.1,30.8 Z M336.1,30.8" id="2058"/>
                    <path class="unit" d="M318.7,43.5 L307.4,51.3 L295.3,48.3 L306.4,40.3 L318.7,43.5 Z M318.7,43.5" id="2059"/>
        </g>
    </g>
</svg>