<?xml version="1.0" encoding="utf-8"?>
<!DOCTYPE svg PUBLIC "-//W3C//DTD SVG 1.1//EN" "http://www.w3.org/Graphics/SVG/1.1/DTD/svg11.dtd">
<svg version="1.1" xmlns="http://www.w3.org/2000/svg" xmlns:xlink="http://www.w3.org/1999/xlink" xml:space="preserve">
<g class="level" id="level2">
            <g class="outline">
                    <path d="M408.5,122.4 L354.7,109 C354.3,108.9 353.9,109 353.6,109.2 L352.2,110.2 L336.8,106.4 C336.4,106.3 336,106.4 335.7,106.6 L327.8,112.3 L312.9,108.6 C312.5,108.5 312.2,108.6 311.8,108.8 L310.7,109.6 L308.2,109 L313.6,105.1 C313.9,104.9 314.1,104.5 314.1,104.1 L314.1,103.3 C314.1,103 314,102.7 313.8,102.4 L365.8,65.3 C366.1,65.1 366.3,64.7 366.3,64.3 L366.3,60.4 C366.3,59.8 365.9,59.3 365.3,59.2 L322.8,48.6 C322.4,48.5 322.1,48.6 321.8,48.8 L313.9,54.4 L287.7,47.9 L319.1,25.5 L333.4,29.1 C333.8,29.2 334.1,29.1 334.5,28.9 L340.3,24.8 L354.4,28.3 C354.8,28.4 355.2,28.3 355.5,28.1 L358.5,26 C358.8,25.8 359,25.4 359,25 L359,24 C359,23.4 358.7,22.9 358.1,22.7 L358,22.7 L346.8,19.9 L350.4,17.3 C350.7,17.1 350.9,16.7 350.9,16.3 L350.9,15.5 C350.9,14.9 350.5,14.4 349.9,14.3 L296.6,0.9 C296.2,0.8 295.9,0.9 295.5,1.1 L281.7,11 L280.7,10.7 C280.3,10.6 279.9,10.7 279.6,10.9 L276.7,13 L243,4.6 C242.6,4.5 242.2,4.6 241.9,4.8 L236.4,8.8 L233.2,8 C232.8,7.9 232.5,8 232.1,8.2 L188.4,39.4 L176.5,36.4 C176.1,36.3 175.7,36.4 175.4,36.6 L169.4,40.9 L162.3,39.1 C161.9,39 161.5,39.1 161.2,39.3 L156.9,42.4 C156.6,42.6 156.4,43 156.4,43.4 L156.4,47.2 C156.4,47.8 156.8,48.3 157.4,48.4 L160.9,49.3 L154.6,53.8 C154.3,54 154.1,54.4 154.1,54.8 L154.1,58.7 C154.1,59.3 154.5,59.8 155.1,60 L162.1,61.8 L161.4,62.3 C161.2,62.1 161,61.9 160.7,61.8 L138.2,56.2 L141.9,53.5 C142.2,53.3 142.4,52.9 142.4,52.5 L142.4,48.6 C142.4,48 142,47.5 141.4,47.3 L134.5,45.6 C134.2,45.5 133.8,45.6 133.5,45.8 L129.5,48.4 L129,48.3 C128.6,48.2 128.3,48.3 127.9,48.5 L97.7,70.1 C97.4,70.3 97.2,70.7 97.2,71.1 L97.2,71.9 L96.3,71.7 C95.9,71.6 95.6,71.7 95.3,71.9 L93.2,73.4 C92.9,73.6 92.8,73.9 92.7,74.2 L91.5,79.5 L91.5,79.8 L91.5,81.2 L91.3,81.2 C90.9,81.1 90.5,81.2 90.2,81.4 L87,83.5 L81.8,82.2 C81.6,82.2 81.4,82.1 81.3,82.2 L71.3,84.1 C70.7,84.2 70.3,84.7 70.3,85.4 L70.3,86.3 L67.6,86.8 L66.1,85.5 C65.8,85.2 65.4,85.1 65,85.2 L50.8,87.7 C50.6,87.7 50.4,87.8 50.3,87.9 L49.3,88.6 L45.2,87.6 C44.8,87.5 44.4,87.6 44.1,87.8 L32,96.4 C31.7,96.6 31.5,97 31.5,97.4 L31.5,101.3 C31.5,101.9 31.9,102.4 32.5,102.5 L37,103.6 L33.2,106.3 C32.9,106.5 32.7,106.9 32.7,107.3 L32.7,111.2 C32.7,111.3 32.7,111.5 32.8,111.6 L30.4,111 C30,110.9 29.7,111 29.4,111.2 L27.4,112.6 L11.7,108.7 C11.3,108.6 11,108.7 10.7,108.9 L6.6,111.8 C6.3,112 6.1,112.3 6.1,112.7 L0.9,160.3 L0.9,160.4 L0.9,164.2 C0.9,164.7 1.2,165.2 1.7,165.4 L20.3,173.9 C20.4,173.9 20.5,174 20.6,174 L71.9,184.4 L72.8,185.4 C73,185.6 73.2,185.7 73.5,185.8 L195.4,210.7 L196,210.7 L207.8,207.8 C208.2,207.7 208.5,207.4 208.7,207.1 L212.2,199 L215.6,199.3 L213.5,203.8 C213.4,204 213.4,204.2 213.4,204.3 L213.4,208.1 C213.4,208.7 213.8,209.2 214.4,209.3 L226.5,212.3 C226.9,212.4 227.2,212.3 227.6,212.1 L231.2,209.5 L247.9,213.7 C248.3,213.8 248.7,213.7 249,213.5 L252.2,211.2 L275.3,217 L275.6,217 L275.7,217 L282.1,216.3 C282.3,216.3 282.5,216.2 282.7,216.1 L334.3,179.3 C334.6,179.1 334.8,178.7 334.8,178.3 L334.8,174.4 C334.8,174.1 334.7,173.9 334.6,173.7 L342.6,175.7 C343,175.8 343.3,175.7 343.7,175.5 L367,158.9 C367.3,158.7 367.5,158.3 367.5,157.9 L367.5,157 L373.3,152.9 L374.4,153.1 C374.8,153.2 375.1,153.1 375.4,152.9 L409.4,128.6 C409.7,128.4 409.9,128 409.9,127.6 L409.9,123.7 C409.5,123 409.1,122.5 408.5,122.4 L408.5,122.4 L408.5,122.4 Z M221.8,179.6 L226.9,180.9 C227.3,181 227.6,180.9 227.9,180.7 L229.4,179.6 L231.5,180.1 L229.1,181.8 L220.2,179.6 L220.8,178.3 C220.8,178.9 221.2,179.4 221.8,179.6 L221.8,179.6 L221.8,179.6 Z M225.2,168.3 L226.2,166.1 L226.2,167.6 L225.2,168.3 L225.2,168.3 Z M240.6,126.5 L240.2,126.3 L242.4,126.9 L241.2,130.3 C241.2,130.4 241.1,130.6 241.1,130.7 L241.1,132.7 L240.5,133.1 L241,132 C241.1,131.8 241.1,131.7 241.1,131.5 L241.1,127.6 C241.2,127.2 240.9,126.8 240.6,126.5 L240.6,126.5 L240.6,126.5 Z M64.4,116.1 L74.8,118.7 L71.2,121.3 L52,116.5 L64.4,116.1 L64.4,116.1 Z M64.4,116.1" class="outline"/>
                </g>
                <g class="label">
                    <path d="M28.4,31 C28,31 27.8,31.3 27.8,31.7 L27.8,40.5 C27,41 25.8,41.3 25.1,41.3 C23.2,41.3 22.1,40.4 22.1,38.3 L22.1,31.8 C22.1,31.4 21.8,31.1 21.5,31.1 C21.2,31.1 20.9,31.4 20.9,31.8 L20.9,38.6 C20.9,40.9 22.4,42.5 24.9,42.5 C26.7,42.5 27.7,42 28.7,41.5 C29.1,41.3 29.1,41 29.1,40.6 L29.1,31.7 C29,31.3 28.7,31 28.4,31 L28.4,31 L28.4,31 Z M42.9,30.9 C41.9,30.9 41.1,31 40.6,31.2 C40.2,31.3 40.1,31.6 40.1,32 L40.1,41.7 C40.1,42.1 40.4,42.3 40.7,42.3 C41,42.3 41.3,42.1 41.3,41.7 L41.3,38.1 L42.8,38.1 C45.7,38.1 47.2,36.7 47.2,34.4 C47.2,32.4 45.9,30.9 42.9,30.9 L42.9,30.9 L42.9,30.9 Z M42.8,36.9 L41.4,36.9 L41.4,32.2 C41.8,32.1 42.4,32.1 42.9,32.1 C45.2,32.1 46,33.2 46,34.5 C46,35.8 45.3,36.9 42.8,36.9 L42.8,36.9 L42.8,36.9 Z M34.1,30.9 C33.1,30.9 32.3,31 31.8,31.2 C31.4,31.3 31.3,31.6 31.3,32 L31.3,41.7 C31.3,42.1 31.6,42.3 31.9,42.3 C32.2,42.3 32.5,42.1 32.5,41.7 L32.5,38.1 L34,38.1 C36.9,38.1 38.4,36.7 38.4,34.4 C38.4,32.4 37.1,30.9 34.1,30.9 L34.1,30.9 L34.1,30.9 Z M33.9,36.9 L32.5,36.9 L32.5,32.2 C32.9,32.1 33.5,32.1 34,32.1 C36.3,32.1 37.1,33.2 37.1,34.5 C37.1,35.8 36.4,36.9 33.9,36.9 L33.9,36.9 L33.9,36.9 Z M88.8,32.5 C88.2,31.3 87.7,30.9 87.1,30.9 C86.5,30.9 86,31.3 85.4,32.5 C84.5,34.3 83.8,36.6 82.6,41.2 C82.5,41.4 82.5,41.6 82.5,41.7 C82.5,42.1 82.8,42.3 83.1,42.3 C83.4,42.3 83.6,42.1 83.7,41.8 C84,40.4 84.3,39.2 84.6,38.1 L89.5,38.1 C89.8,39.2 90.1,40.4 90.4,41.8 C90.5,42.1 90.7,42.3 91,42.3 C91.4,42.3 91.6,42.1 91.6,41.7 C91.6,41.6 91.6,41.4 91.5,41.2 C90.4,36.6 89.7,34.3 88.8,32.5 L88.8,32.5 L88.8,32.5 Z M85,37 C85.7,34.6 86.4,33 86.9,32.2 C86.9,32.1 87,32.1 87.1,32.1 C87.2,32.1 87.3,32.2 87.3,32.2 C87.8,33 88.5,34.5 89.2,37 L85,37 L85,37 Z M98.9,41.1 L94.6,41.1 L94.6,31.7 C94.6,31.3 94.3,31 94,31 C93.7,31 93.4,31.3 93.4,31.7 L93.4,41.3 C93.4,41.9 93.8,42.3 94.5,42.3 L99,42.3 C99.4,42.3 99.7,42 99.7,41.7 C99.6,41.3 99.3,41.1 98.9,41.1 L98.9,41.1 L98.9,41.1 Z M54.9,41 L50.1,41 L50.1,37.1 L54,37.1 C54.4,37.1 54.6,36.8 54.6,36.5 C54.6,36.2 54.4,35.9 54,35.9 L50.1,35.9 L50.1,32.2 L54.7,32.2 C55.1,32.2 55.3,31.9 55.3,31.6 C55.3,31.3 55.1,31 54.7,31 L50,31 C49.3,31 48.9,31.4 48.9,32 L48.9,41.3 C48.9,41.9 49.3,42.3 50,42.3 L54.9,42.3 C55.3,42.3 55.5,42 55.5,41.7 C55.6,41.3 55.3,41 54.9,41 L54.9,41 L54.9,41 Z M106.5,41.1 L102.2,41.1 L102.2,31.7 C102.2,31.3 101.9,31 101.6,31 C101.2,31 101,31.3 101,31.7 L101,41.3 C101,41.9 101.4,42.3 102.1,42.3 L106.6,42.3 C107,42.3 107.3,42 107.3,41.7 C107.2,41.3 106.9,41.1 106.5,41.1 L106.5,41.1 L106.5,41.1 Z M63,38.1 C62.7,37.7 62.4,37.4 62,37.1 C63.4,36.6 64.4,35.6 64.4,34.1 C64.4,32.2 63.1,30.9 60.2,30.9 C59.1,30.9 58.3,31 57.8,31.2 C57.4,31.3 57.3,31.6 57.3,32 L57.3,41.7 C57.3,42.1 57.6,42.3 57.9,42.3 C58.3,42.3 58.5,42.1 58.5,41.7 L58.5,37.5 L59.7,37.5 C60.9,37.5 61.3,38 61.9,38.9 C62.3,39.5 62.7,40.5 63.2,41.9 C63.3,42.2 63.5,42.3 63.8,42.3 C64.1,42.3 64.4,42.1 64.4,41.7 C64.4,41.6 64.4,41.4 64.3,41.3 C64,40.1 63.5,38.9 63,38.1 L63,38.1 L63,38.1 Z M60,36.3 L58.6,36.3 L58.6,32.3 C59,32.2 59.5,32.2 60.2,32.2 C62.5,32.2 63.2,33.1 63.2,34.3 C63.1,35.9 61.6,36.3 60,36.3 L60,36.3 L60,36.3 Z M80.2,32.3 C80.1,31.5 79.8,31 79.1,31 C78.5,31 78.2,31.4 78,31.8 C77.2,34 76.3,36.8 75.3,39.5 L75.3,39.5 C74.3,37 73.5,34.4 72.5,32 C72.3,31.4 72,31 71.4,31 C70.7,31 70.4,31.4 70.3,32.3 C69.9,35.2 69.8,38.4 69.8,41.6 C69.8,42 70,42.2 70.4,42.2 C70.8,42.2 71,42 71,41.5 C71,38.4 71.2,35.5 71.5,32.5 L71.5,32.5 C72.5,35.1 73.4,37.8 74.5,40.4 C74.6,40.7 74.9,41 75.3,41 C75.7,41 76,40.8 76.1,40.4 C77.1,37.9 78,35.2 78.9,32.5 L78.9,32.5 C79.3,35.5 79.5,38.5 79.6,41.5 C79.6,41.9 79.8,42.2 80.2,42.2 C80.6,42.2 80.8,41.9 80.8,41.5 L80.8,41 C80.9,38.1 80.6,35.1 80.2,32.3 L80.2,32.3 L80.2,32.3 Z M80.2,32.3" class="Shape"/>
                </g>
                <g class="background">
                    <path d="M357.8,24.7 L354.8,26.8 L340.1,23.1 L333.8,27.6 L318.9,23.9 L254.5,69.8 L259.2,77.2 L273,80.7 L281.9,94.8 L290.1,96.9 L294.7,104.2 L302.9,106.3 L308.5,102.3 L312.7,103.4 L312.7,104.2 L305.1,109.7 L312.5,111.5 L312.5,112.3 L310.8,113.5 L290,108.3 L287.9,109.8 L302.5,131.9 L374,149.7 L374,150.5 L365.6,156.5 L344.3,151.2 L320.6,168.1 L322,170.3 L322,171.1 L291.2,174.3 L290.8,172.8 L290.8,172 L299.2,166 L262.8,109 L260.3,108.4 L247.1,87.9 L214.3,79.7 L195.8,81.7 L190.8,85.2 L174.1,87 L156.3,99.7 L164.9,101.9 L164.9,102.7 L159.8,106.3 L142,107.3 L107.3,132 L77.4,124.6 L77.4,123.8 L167.2,59.8 L190.7,65.7 L210,63.9 L228,68.4 L242.7,66.9 L306.6,21.3 L280.2,14.7 L280.2,13.9 L296.1,2.5 L349.5,15.8 L349.5,16.6 L343.6,20.8 L357.5,24.3 L357.8,24.7" class="walkway"/>
                    <path d="M163.7,76.9 L179.7,80.9 L189.6,73.9 L189.6,70 L179.8,77 L163.8,73 L163.7,76.9 L163.7,76.9 Z M167.9,45.9 L157.7,43.4 L157.7,47.2 L167.9,49.8 L167.9,45.9 L167.9,45.9 Z M314.2,55.6 L275.6,83.2 L273.1,79.2 L259.2,75.7 L254.2,67.8 L254.2,71.7 L259.2,79.6 L273,83 L281.9,97.1 L290.1,99.1 L294.7,106.4 L303,108.4 L365,64.2 L365,60.3 L303,104.6 L294.8,102.5 L355.4,58.2 L345.9,55.4 L290.2,95.2 L282,93.2 L277.3,85.8 L314.2,59.5 L314.2,55.6 L314.2,55.6 Z M141.2,48.6 L131.2,55.7 L131.2,59.6 L141.2,52.5 L141.2,48.6 L141.2,48.6 Z M210.2,65.9 L228.1,70.4 L242.8,68.9 L307.5,22.7 L307.5,18.8 L242.8,65 L228.1,66.5 L214.1,63 L277,18.3 L277,14.4 L210.3,62 L191,63.8 L155.4,54.9 L155.4,58.8 L191,67.7 L210.2,65.9 L210.2,65.9 Z M227.2,175.7 L222.1,174.4 L222.1,178.3 L227.2,179.6 L229.2,178.2 L238.6,180.5 L238.6,176.6 L229.2,174.3 L227.2,175.7 L227.2,175.7 Z M291.6,175.6 L291.6,173.6 L299.7,167.8 L299.7,163.9 L292.8,153.3 L262.9,174.6 L251,171.7 L264.6,162 L264.6,158.1 L260,150.7 L279.7,136.6 L279.7,132.8 L258.3,148 L258.3,151.9 L262.9,159.2 L246.9,170.6 L230.7,166.5 L230.7,165.7 L227.3,164.9 L227.3,168.8 L229.9,169.4 L229.9,170.2 L262.9,178.4 L291.6,175.6 L291.6,175.6 Z M100.9,71.7 L98.5,71.1 L98.5,75 L101,75.6 L100.9,71.7 L100.9,71.7 Z M267.2,113 L242.5,130.6 L242.5,134.5 L267.2,116.9 L267.2,113 L267.2,113 Z M218.9,194.4 L212.6,193.9 L239.9,131.5 L239.9,127.6 L207,202.7 L195.2,205.6 L75.6,181.1 L87.4,173.9 L158.4,177.3 L168.4,135.1 L168.4,131.2 L152.7,130.4 L152.7,127.6 L145.6,125.8 L149.5,123 L149.5,121.2 L151.4,121.7 L156.3,118.2 L156.3,116.5 L158,116.9 L164.5,112.2 L164.5,109.4 L167.1,107.6 L167.1,104.2 L194.8,111.1 L194.8,112.8 L245.8,126.3 L245.8,122.4 L243.2,121.8 L260.3,109.6 L260.3,105.7 L239.2,120.7 L227,117.5 L227.3,117.2 L229.8,117.8 L254.3,100.3 L254.3,96.4 L230,114.1 L227.5,113.5 L223.2,116.6 L210.8,113.3 L245.3,88.7 L245.3,84.8 L206.9,112.2 L198.9,110.1 L233.2,85.7 L233.2,81.8 L196.7,107.9 L187,105.5 L219.5,82.3 L219.5,78.5 L183,104.5 L173.9,102.2 L192.2,89.1 L192.2,85.2 L190.9,82.6 L190.9,86.1 L169.8,101.1 L155.6,97.6 L155.6,101.5 L166.6,104.3 L161.7,107.8 L161.7,110.6 L158,113.2 L154.1,112.2 L152.3,113.5 L152.3,117.3 L151.4,117.9 L130.8,112.7 L130.8,116.6 L147.3,120.7 L143.3,123.5 L140.6,122.9 L140.6,123.1 L139.1,124.2 L139.1,126.6 L137.3,127.9 L134.7,127.3 L133.1,128.5 L133.1,131.2 L130.1,133.4 L114,129.4 L112.2,130.6 L107.6,129.4 L107.6,133.3 L110.4,134 L110.4,137.4 L113.9,134.9 L113.9,133.3 L130,137.3 L135.9,133.1 L135.9,131.6 L137.3,131.9 L141.6,128.9 L141.6,127.2 L143.4,127.6 L143.4,129.3 L149.1,130.7 L149.1,134.3 L149.2,134.2 L149.2,134.3 L167.6,135.2 L158.5,173.5 L87.5,170.1 L72.2,179.5 L20.5,169 L1.9,160.6 L1.9,164.4 L20.5,172.9 L72.2,183.4 L73.4,184.6 L195.3,209.5 L207.1,206.6 L211,197.6 L218.9,198.3 L218.9,194.4 L218.9,194.4 Z M275.2,211.9 L251.5,206 L247.8,208.6 L230.5,204.3 L226.4,207.2 L214.2,204.2 L214.2,208 L226.3,211 L230.4,208.1 L247.7,212.4 L251.4,209.8 L275.1,215.7 L281.5,215 L333.1,178.2 L333.1,174.3 L281.5,211.1 L275.2,211.9 L275.2,211.9 Z M338.5,152.9 L338.5,156.8 L355.8,161.1 L354.2,162.2 L332.9,156.9 L332.9,160.8 L350.2,165.1 L342.5,170.6 L326,166.5 L321.2,166.8 L320.6,165.7 L320.6,169.6 L321.3,170.7 L326.1,170.4 L342.6,174.5 L365.9,157.9 L365.9,154 L360,158.2 L338.5,152.9 L338.5,152.9 Z M114.6,135.7 L114.6,139.6 L115.8,138.7 L115.8,134.8 L114.6,135.7 L114.6,135.7 Z M96.4,80.6 L92.7,79.7 L92.7,83.5 L96.4,84.4 L96.4,80.6 L96.4,80.6 Z M374.2,147.9 L302.7,130.1 L298.5,123.7 L311,114.8 L311,110.9 L296.7,121 L287.7,107.5 L287.7,111.4 L302.7,134 L374.2,151.9 L408.2,127.6 L408.2,123.7 L374.2,147.9 L374.2,147.9 Z M64.6,110.9 L49.6,111.4 L33.9,107.4 L33.9,111.3 L49.6,115.3 L64.6,114.8 L77.9,118.1 L77.9,121.8 L77.8,121.9 L77.8,125.8 L81.9,122.9 L81.9,119.1 L85.9,120.1 L160.4,67 L160.4,63.1 L145.7,73.6 L108.2,64.2 L108.2,68.1 L141.6,76.4 L103.8,103.4 L49.7,89.8 L49.7,93.6 L99.8,106.2 L85.8,116.2 L64.6,110.9 L64.6,110.9 Z M73,87 L71.5,85.3 L71.5,89.2 L73,90.9 L73,87 L73,87 Z M43.9,100.3 L32.7,97.5 L32.7,101.4 L43.8,104.2 L43.9,100.3 L43.9,100.3 Z M277.6,121.6 L277.6,125.3 L282.7,126.6 L286.4,124 L286.4,120.1 L282.5,122.8 L277.6,121.6 L277.6,121.6 Z M277.6,121.6" class="wall"/>
                </g>
                <g class="ceilings">
                    <path class="unit" d="M242.8,6.1 L276.8,14.6 L210.2,62.1 L191,63.8 L155.7,55 L168.3,46 L158.1,43.5 L162.2,40.6 L169.8,42.5 L176.2,37.9 L188.7,41 L232.9,9.4 L236.7,10.4 L242.8,6.1 L242.8,6.1 Z M242.8,6.1" id="3001"/>
                    <path class="unit" d="M228.3,66.5 L210.6,62.1 L280.5,12.2 L307.4,18.9 L242.8,64.9 L228.3,66.5 L228.3,66.5 Z M228.3,66.5" id="3002"/>
                    <path class="unit" d="M164,73.1 L173.6,66.2 L189.2,70.1 L179.6,76.9 L164,73.1 L164,73.1 Z M164,73.1" id="3003"/>
                    <path class="unit" d="M259.4,75.8 L254.4,67.9 L282.4,47.9 L313.9,55.8 L275.7,83 L273.3,79.2 L259.4,75.8 L259.4,75.8 Z M259.4,75.8" id="3004"/>
                    <path class="unit" d="M275.8,83.3 L322.6,49.9 L345.6,55.7 L290.1,95.3 L282.2,93.3 L275.8,83.3 L275.8,83.3 Z M275.8,83.3" id="3005"/>
                    <path class="unit" d="M355.4,58.1 L345.9,55.8 L290.4,95.4 L294.6,102.4 C294.6,102.4 355.4,58.1 355.4,58.1 L355.4,58.1 L355.4,58.1 Z M355.4,58.1" id="3006"/>
                    <path class="unit" d="M290.3,106 L310.7,111.1 L296.9,121 L288,107.7 L290.3,106 L290.3,106 Z M290.3,106" id="3007"/>
                    <path class="unit" d="M354.5,110.5 L407.9,123.8 L374.1,147.9 L302.8,130.1 L296.9,121.2 L312.7,110 L328.2,113.8 L336.6,107.8 L352.6,111.8 L354.5,110.5 L354.5,110.5 Z M354.5,110.5" id="3008"/>
                    <path class="unit" d="M338.8,153 L344.5,148.9 L365.4,154.1 L359.7,158.2 L338.8,153 L338.8,153 Z M338.8,153" id="3009"/>
                    <path class="unit" d="M359.5,158.3 L354.1,162.1 L333.1,156.9 L338.5,153.1 L359.5,158.3 L359.5,158.3 Z M359.5,158.3" id="3010"/>
                    <path class="unit" d="M320.7,165.9 L333,157.1 L354,162.4 L342.5,170.6 L326.1,166.5 L321.4,166.9 L320.7,165.9 L320.7,165.9 Z M320.7,165.9" id="3011"/>
                    <path class="unit" d="M174.4,84.5 L190.8,82.8 L192,85.3 L169.8,101.1 L156,97.7 L174.4,84.5 L174.4,84.5 Z M174.4,84.5" id="3012"/>
                    <path class="unit" d="M170.2,101.2 L192.5,85.3 L191.2,82.7 L196.2,79.2 L214.5,77.3 L219.3,78.5 L182.9,104.4 L170.2,101.2 L170.2,101.2 Z M170.2,101.2" id="3013"/>
                    <path class="unit" d="M219.6,78.6 L232.9,81.9 L196.5,107.8 L183.3,104.5 L219.6,78.6 L219.6,78.6 Z M219.6,78.6" id="3014"/>
                    <path class="unit" d="M245,85 L206.8,112.3 L195.2,109.2 L233.2,82.1 L245,85 L245,85 Z M245,85" id="3015"/>
                    <path class="unit" d="M247.1,85.4 L254.4,96.7 L230,114.1 L227.5,113.5 L223.2,116.6 L207.2,112.3 L245.4,85 L247.1,85.4 L247.1,85.4 Z M247.1,85.4" id="3016"/>
                    <path class="unit" d="M260.2,105.9 L239.3,120.9 L223.5,116.7 L227.6,113.8 L230.1,114.4 L254.5,97 L260.2,105.9 L260.2,105.9 Z M260.2,105.9" id="3017"/>
                    <path class="unit" d="M262.8,106.7 L267,113.1 C259,118.9 250.9,124.6 242.9,130.3 L245.3,123.3 L246.2,122.6 L239.7,120.9 L260.5,106 L262.8,106.7 L262.8,106.7 Z M262.8,106.7" id="3018"/>
                    <path class="unit" d="M258.2,148.1 L264.4,158.2 L246.9,170.7 L230.2,166.6 L231,166 L227.6,165.1 L241.1,134.6 L268.3,115.2 L279.6,132.9 L258.2,148.1 L258.2,148.1 Z M258.2,148.1" id="3019"/>
                    <path class="unit" d="M263.4,174.7 L292.7,153.8 L299.5,164.2 L290.8,170.4 L291.4,171.9 L263.4,174.7 L263.4,174.7 Z M263.4,174.7" id="3020"/>
                    <path class="unit" d="M279.8,133.1 L292.6,153.4 L262.9,174.6 L247.4,170.7 L265,158.1 L258.7,148.1 L279.8,133.1 L279.8,133.1 Z M279.8,133.1" id="3021"/>
                    <path class="unit" d="M230.1,166.7 L262.9,174.9 L322.1,168.8 L324.5,172.6 L332.9,174.7 L281.5,211.4 L275.3,212 L251.6,206.1 L247.9,208.7 L230.6,204.4 L226.5,207.3 L214.6,204.4 L219.2,194.6 L211.3,193.9 L217.2,180.4 L229.6,183.5 L239,176.8 L229.3,174.4 L227.3,175.8 L222.5,174.6 L224.9,170.5 L230.1,166.7 L230.1,166.7 Z M230.1,166.7" id="3022"/>
                    <path class="unit" d="M140.9,48.8 L130.9,55.9 L160.1,63.2 L145.6,73.5 L108.6,64.2 L128.9,49.7 L129.9,50 L134.4,47.1 L140.9,48.8 L140.9,48.8 Z M140.9,48.8" id="3023"/>
                    <path class="unit" d="M98.8,71.2 L108.4,64.4 L145.4,73.6 L103.8,103.3 L50,89.9 L51.2,89 L65.2,86.5 L67.2,88.3 L73.3,87.1 L71.9,85.4 L81.6,83.6 L87.5,85.1 L91.1,82.6 L93.4,83.2 L96.8,80.8 L93,79.9 L94.2,74.7 L96.2,73.3 L98.6,73.9 L101.3,71.9 L98.8,71.2 L98.8,71.2 Z M98.8,71.2" id="3024"/>
                    <path class="unit" d="M45.1,88.9 L103.6,103.5 L85.8,116.2 L64.8,111 L49.7,111.4 L34.2,107.6 L44.3,100.4 L33,97.6 L45.1,88.9 L45.1,88.9 Z M45.1,88.9" id="3025"/>
                    <path class="unit" d="M166.9,104 L161.4,107.9 L164.3,108.6 L157.9,113.1 L154,112.1 L152,113.5 L156,114.5 L151.3,117.9 L131,112.9 L142.3,104.8 L160.1,103.8 L161.6,102.7 L166.9,104 L166.9,104 Z M166.9,104" id="3026"/>
                    <path class="unit" d="M168.2,131.5 L148.7,130.5 L152.5,127.9 L143.6,125.7 L125.4,138.7 L114.4,135.9 L115.6,135 L110,133.6 L113.5,131.1 L77.3,122.1 L81.4,119.2 L77.9,118.3 C75.7,119.8 73.5,121.4 71.3,122.9 L29.9,112.6 L27.4,114.4 L11.1,110.3 L7.2,113.1 L2,160.6 L20.5,169 L72,179.4 L87.5,170 L158.2,173.4 L168.2,131.5 L168.2,131.5 Z M168.2,131.5" id="3027"/>
                    <path class="unit" d="M147.1,118.8 L149.3,119.4 L143.4,123.6 L140.9,123 L140.8,123 L139,124.4 L141.5,125 L137.4,127.9 L134.8,127.3 L133,128.6 L135.8,129.3 L130.1,133.3 L114,129.3 L112.2,130.5 L108,129.4 L131,113 L149,117.5 L147.1,118.8 L147.1,118.8 Z M147.1,118.8" id="3028"/>
                    <path class="unit" d="M168.7,131.3 L149.4,130.3 L153.1,127.7 L143.7,125.3 L171.9,105.2 L228.9,120.7 L239.7,127.7 L206.9,202.7 L195.3,205.6 L73.5,180.7 L72.4,179.5 L87.6,170.2 L158.4,173.6 L168.7,131.3 L168.7,131.3 Z M168.7,131.3" id="3029"/>
                    <path class="unit" d="M355.6,58.2 L295,102.6 L303,104.6 L364.9,60.5 L355.6,58.2 L355.6,58.2 Z M355.6,58.2" id="3030"/>
                    <path class="unit" d="M286.4,120.1 L282.5,122.8 L277.6,121.6 L281.5,118.8 L286.4,120.1 L286.4,120.1 Z M286.4,120.1" id="3031"/>
        </g>
    </g>
</svg>