<?xml version="1.0" encoding="utf-8"?>
<!DOCTYPE svg PUBLIC "-//W3C//DTD SVG 1.1//EN" "http://www.w3.org/Graphics/SVG/1.1/DTD/svg11.dtd">
<svg version="1.1" xmlns="http://www.w3.org/2000/svg" xmlns:xlink="http://www.w3.org/1999/xlink" xml:space="preserve">
<g class="level" id="level1">
            <g class="outline">
                    <path d="M490.485,163.807 L479.305,161.039 L483.037,158.371 C483.382,158.123 483.589,157.726 483.594,157.304 L483.638,153.265 C483.646,152.649 483.227,152.108 482.629,151.957 L428.207,138.373 C427.829,138.278 427.431,138.354 427.113,138.58 L422.684,141.73 L412.977,139.311 L413.013,135.904 C413.02,135.287 412.602,134.746 412.001,134.596 L404.402,132.709 L448.885,104.251 L450.99,104.777 C451.37,104.873 451.766,104.796 452.084,104.571 L466.604,94.272 C466.954,94.023 467.165,93.618 467.165,93.186 L467.165,89.147 C467.165,88.536 466.748,88.002 466.157,87.855 L417.374,75.648 C416.996,75.553 416.598,75.627 416.278,75.854 L409.716,80.516 L384.106,74.152 C384.281,73.923 384.377,73.64 384.377,73.344 L384.377,69.31 C384.377,68.699 383.96,68.164 383.367,68.017 L362.078,62.704 L362.916,62.114 L368.337,62.885 L397.666,70.235 C397.767,70.26 397.868,70.273 397.97,70.273 C398.228,70.273 398.484,70.193 398.698,70.041 L435.654,43.665 C435.982,43.431 436.175,43.052 436.176,42.649 L436.182,38.597 C436.183,38.02 435.789,37.518 435.23,37.381 L398.573,28.406 L413.092,18.094 C413.426,17.857 413.622,17.472 413.618,17.063 L413.579,13.104 C413.573,12.536 413.185,12.044 412.636,11.904 L365.73,0.028 C365.374,-0.06 364.998,0.008 364.699,0.221 L334.508,21.692 C334.168,21.934 333.971,22.329 333.985,22.746 L334.091,26.496 C334.108,27.058 334.495,27.54 335.041,27.674 L350.311,31.427 L328.993,46.67 C328.667,46.902 328.472,47.276 328.47,47.676 L328.446,50.761 L323.491,54.328 C323.077,54.626 322.886,55.146 323.008,55.641 C323.13,56.136 323.54,56.508 324.046,56.579 L350.15,60.294 L346.554,63.026 C346.551,63.028 346.547,63.029 346.544,63.031 L340.059,67.689 C339.879,67.439 339.613,67.25 339.297,67.17 L314.839,61.088 C314.461,60.995 314.064,61.07 313.747,61.294 L307.809,65.513 L286.566,60.244 C286.184,60.15 285.788,60.226 285.471,60.452 L277.757,65.954 L265.346,62.863 C264.973,62.769 264.574,62.844 264.255,63.068 L258.05,67.465 L250.696,65.656 C250.318,65.564 249.921,65.64 249.605,65.863 L245.167,69.015 C244.818,69.262 244.609,69.66 244.605,70.086 L244.56,74.126 C244.553,74.743 244.971,75.285 245.573,75.435 L249.213,76.338 L245.134,79.268 L243.65,78.889 C243.264,78.791 242.861,78.868 242.541,79.101 L237.75,82.562 C237.406,82.809 237.203,83.204 237.195,83.625 L237.166,86.378 L232.846,85.307 L232.846,82.354 C232.846,81.741 232.427,81.207 231.831,81.061 L227.126,79.906 C226.75,79.813 226.354,79.89 226.038,80.113 L222.411,82.688 L218.611,81.728 C218.232,81.633 217.831,81.707 217.51,81.936 L209.76,87.478 L207.433,86.877 C207.051,86.779 206.65,86.855 206.329,87.08 L199.681,91.788 L196.144,90.914 C195.767,90.822 195.367,90.896 195.05,91.123 L182.446,100.135 C182.095,100.385 181.887,100.787 181.887,101.218 L181.887,103.682 L177.52,106.789 C177.173,107.035 176.966,107.433 176.96,107.856 L176.939,109.384 L176.771,109.34 C176.386,109.236 175.976,109.311 175.654,109.541 L172.425,111.849 L166.985,110.489 C166.798,110.443 166.602,110.437 166.416,110.472 L156.073,112.425 C155.444,112.543 154.987,113.093 154.987,113.734 L154.987,114.682 L152.237,115.227 L150.737,113.859 C150.432,113.582 150.018,113.461 149.61,113.532 L134.83,116.106 C134.647,116.138 134.474,116.207 134.319,116.31 L133.294,117 L129.028,115.953 C128.65,115.861 128.252,115.937 127.937,116.162 L115.197,125.263 C114.851,125.509 114.644,125.908 114.639,126.33 L114.595,130.371 C114.588,130.987 115.005,131.528 115.603,131.677 L120.255,132.841 L116.309,135.648 C115.958,135.897 115.749,136.302 115.749,136.735 L115.749,140.775 C115.749,140.897 115.766,141.016 115.797,141.129 L113.274,140.502 C112.891,140.41 112.489,140.485 112.172,140.716 L110.099,142.217 L93.744,138.151 C93.369,138.059 92.967,138.131 92.649,138.358 L88.477,141.335 C88.168,141.556 87.968,141.897 87.927,142.274 L82.51,191.676 C82.505,191.725 82.502,191.772 82.502,191.822 L82.502,195.862 C82.502,196.383 82.808,196.859 83.281,197.074 L102.59,205.862 C102.681,205.903 102.778,205.934 102.876,205.954 L127.595,210.995 C127.752,211.114 127.937,211.199 128.142,211.239 L156.23,216.794 L157.181,217.781 C157.369,217.975 157.609,218.107 157.872,218.161 L284.558,244.04 C284.748,244.079 284.948,244.075 285.137,244.028 L297.433,241.055 C297.838,240.956 298.174,240.673 298.341,240.292 L303.794,227.784 L310.398,229.428 L306.959,229.24 C306.391,229.224 305.859,229.548 305.648,230.078 L302.363,238.336 C302.302,238.488 302.27,238.65 302.268,238.815 L302.223,242.855 C302.216,243.472 302.634,244.011 303.234,244.163 L315.352,247.181 C315.727,247.273 316.127,247.199 316.447,246.973 L320.74,243.911 L338.034,248.246 C338.139,248.272 338.248,248.286 338.357,248.286 C338.633,248.286 338.91,248.198 339.139,248.03 L343.872,244.579 L353.52,247 C353.671,247.039 353.829,247.051 353.984,247.032 L380.394,244.238 C380.623,244.215 380.841,244.131 381.031,243.997 L383.497,242.23 L384.577,242.514 C384.961,242.615 385.368,242.539 385.69,242.311 L400.604,231.658 C400.951,231.411 401.157,231.013 401.163,230.589 L401.209,226.551 C401.217,225.936 400.8,225.394 400.2,225.243 L395.199,223.993 L395.767,223.591 L399.538,223.041 C399.7,223.077 399.866,223.083 400.034,223.06 L407.98,221.818 C408.181,221.787 408.377,221.708 408.545,221.587 L415.687,216.492 L417.934,218.048 C418.039,218.12 418.159,218.179 418.282,218.219 L418.416,218.262 C418.816,218.392 419.257,218.324 419.6,218.079 L433.526,208.141 L436.034,208.786 C436.415,208.882 436.819,208.807 437.138,208.58 L454.094,196.464 C454.434,196.221 454.64,195.834 454.654,195.418 L454.678,194.48 L469.448,183.945 L470.499,184.2 C470.876,184.293 471.27,184.216 471.587,183.99 L490.897,170.23 C491.246,169.984 491.453,169.584 491.458,169.161 L491.503,165.12 C491.503,164.496 491.085,163.955 490.485,163.807 L490.485,163.807 Z M490.485,163.807" class="outline"/>
                </g>
                <g class="label">
                    <path d="M29.625,111.465 C29.017,111.465 28.056,111.513 27.416,111.673 C27,111.785 26.84,112.073 26.84,112.457 L26.84,121.933 C26.84,122.318 26.984,122.637 27.544,122.734 C28.056,122.83 28.697,122.91 29.785,122.91 C33.322,122.91 34.859,120.365 34.859,117.196 C34.859,113.882 33.307,111.465 29.625,111.465 L29.625,111.465 Z M29.817,121.724 C29.161,121.724 28.585,121.708 28.072,121.628 L28.072,112.744 C28.536,112.681 29.16,112.648 29.641,112.648 C32.506,112.648 33.611,114.52 33.611,117.082 C33.611,119.868 32.491,121.724 29.817,121.724 L29.817,121.724 Z M14.041,111.528 C13.688,111.528 13.416,111.785 13.416,112.184 L13.416,122.205 C13.416,122.605 13.672,122.846 14.024,122.846 C14.376,122.846 14.648,122.606 14.648,122.205 L14.648,112.184 C14.649,111.785 14.393,111.528 14.041,111.528 L14.041,111.528 Z M19.769,111.465 C19.161,111.465 18.2,111.513 17.56,111.673 C17.144,111.785 16.984,112.073 16.984,112.457 L16.984,121.933 C16.984,122.318 17.128,122.637 17.688,122.734 C18.2,122.83 18.841,122.91 19.929,122.91 C23.466,122.91 25.003,120.365 25.003,117.196 C25.003,113.882 23.451,111.465 19.769,111.465 L19.769,111.465 Z M19.961,121.724 C19.305,121.724 18.729,121.708 18.216,121.628 L18.216,112.744 C18.68,112.681 19.304,112.648 19.785,112.648 C22.65,112.648 23.755,114.52 23.755,117.082 C23.755,119.868 22.634,121.724 19.961,121.724 L19.961,121.724 Z M10.46,112.825 C10.348,111.993 10.06,111.528 9.404,111.528 C8.779,111.528 8.508,111.896 8.331,112.361 C7.515,114.57 6.619,117.403 5.642,120.028 L5.626,120.028 C4.618,117.547 3.834,114.938 2.809,112.505 C2.585,111.897 2.313,111.528 1.688,111.528 C1.032,111.528 0.728,111.976 0.632,112.857 C0.279,115.786 0.088,118.956 0.104,122.205 C0.088,122.589 0.328,122.846 0.68,122.846 C1.032,122.846 1.304,122.621 1.304,122.19 C1.288,119.117 1.48,116.139 1.817,113.146 L1.833,113.146 C2.81,115.771 3.754,118.412 4.794,121.037 C4.922,121.374 5.194,121.613 5.61,121.613 C6.01,121.613 6.314,121.374 6.442,121.037 C7.466,118.492 8.347,115.787 9.275,113.146 L9.291,113.146 C9.708,116.171 9.867,119.148 9.947,122.125 C9.947,122.573 10.171,122.846 10.588,122.846 C10.94,122.846 11.164,122.558 11.164,122.173 C11.164,122.045 11.148,121.805 11.148,121.693 C11.117,118.651 10.861,115.594 10.46,112.825 L10.46,112.825 Z M85.129,121.596 L80.823,121.596 L80.823,112.184 C80.823,111.785 80.567,111.528 80.215,111.528 C79.862,111.528 79.59,111.785 79.59,112.184 L79.59,121.821 C79.59,122.413 79.958,122.781 80.647,122.781 L85.128,122.781 C85.528,122.781 85.784,122.509 85.784,122.173 C85.786,121.869 85.546,121.596 85.129,121.596 L85.129,121.596 Z M92.746,121.596 L88.44,121.596 L88.44,112.184 C88.44,111.785 88.184,111.528 87.832,111.528 C87.479,111.528 87.207,111.785 87.207,112.184 L87.207,121.821 C87.207,122.413 87.575,122.781 88.264,122.781 L92.745,122.781 C93.145,122.781 93.401,122.509 93.401,122.173 C93.402,121.869 93.162,121.596 92.746,121.596 L92.746,121.596 Z M42.234,121.596 L37.928,121.596 L37.928,112.184 C37.928,111.785 37.672,111.528 37.32,111.528 C36.967,111.528 36.695,111.785 36.695,112.184 L36.695,121.821 C36.695,122.413 37.063,122.781 37.752,122.781 L42.233,122.781 C42.633,122.781 42.889,122.509 42.889,122.173 C42.89,121.869 42.65,121.596 42.234,121.596 L42.234,121.596 Z M75.018,113.001 C74.394,111.753 73.898,111.385 73.337,111.385 C72.777,111.385 72.281,111.753 71.656,113.001 C70.76,114.81 70.072,117.083 68.903,121.709 C68.839,121.933 68.807,122.109 68.807,122.221 C68.807,122.606 69.063,122.846 69.415,122.846 C69.703,122.846 69.911,122.669 69.991,122.333 C70.295,120.956 70.599,119.724 70.904,118.668 L75.77,118.668 C76.058,119.724 76.362,120.956 76.683,122.333 C76.763,122.669 76.971,122.846 77.259,122.846 C77.611,122.846 77.867,122.606 77.867,122.221 C77.867,122.11 77.819,121.933 77.771,121.709 C76.634,117.083 75.914,114.809 75.018,113.001 L75.018,113.001 Z M71.224,117.547 C71.96,115.098 72.617,113.577 73.129,112.777 C73.177,112.713 73.225,112.649 73.337,112.649 C73.449,112.649 73.497,112.712 73.545,112.777 C74.057,113.577 74.697,115.097 75.434,117.547 L71.224,117.547 L71.224,117.547 Z M50.314,121.564 L45.544,121.564 L45.544,117.707 L49.418,117.707 C49.802,117.707 50.01,117.387 50.01,117.115 C50.01,116.827 49.802,116.539 49.418,116.539 L45.544,116.539 L45.544,112.81 L50.154,112.81 C50.57,112.81 50.794,112.538 50.794,112.234 C50.794,111.897 50.57,111.593 50.154,111.593 L45.368,111.593 C44.68,111.593 44.311,111.961 44.311,112.553 L44.311,121.823 C44.311,122.415 44.679,122.783 45.368,122.783 L50.314,122.783 C50.698,122.783 50.922,122.447 50.922,122.175 C50.923,121.837 50.699,121.564 50.314,121.564 L50.314,121.564 Z M66.459,112.825 C66.347,111.993 66.059,111.528 65.403,111.528 C64.778,111.528 64.507,111.896 64.33,112.361 C63.514,114.57 62.618,117.403 61.641,120.028 L61.625,120.028 C60.617,117.547 59.833,114.938 58.808,112.505 C58.584,111.897 58.312,111.528 57.687,111.528 C57.031,111.528 56.727,111.976 56.631,112.857 C56.278,115.786 56.087,118.956 56.103,122.205 C56.087,122.589 56.327,122.846 56.679,122.846 C57.031,122.846 57.303,122.621 57.303,122.19 C57.287,119.117 57.479,116.139 57.816,113.146 L57.832,113.146 C58.809,115.771 59.753,118.412 60.793,121.037 C60.921,121.374 61.193,121.613 61.609,121.613 C62.009,121.613 62.313,121.374 62.441,121.037 C63.465,118.492 64.346,115.787 65.274,113.146 L65.29,113.146 C65.707,116.171 65.866,119.148 65.946,122.125 C65.946,122.573 66.17,122.846 66.587,122.846 C66.939,122.846 67.163,122.558 67.163,122.173 C67.163,122.045 67.147,121.805 67.147,121.693 C67.116,118.651 66.86,115.594 66.459,112.825 L66.459,112.825 Z M66.459,112.825" class="Shape"/>
                </g>
                <g class="background">
                    <path d="M396.507,161.67 L383.903,141.651 L394.867,133.839 L403.079,130.11 L403.079,129.311 L372.407,122.208 L371.206,120.078 L308.309,104.409 L313.812,100.504 L313.812,99.704 L312.658,98.239 L356.514,66.944 L356.514,66.146 L355.42,65.871 L362.607,60.806 L368.583,61.656 L397.976,69.022 L434.932,42.646 L434.938,38.594 L395.625,28.969 L412.372,17.073 L412.333,13.114 L365.424,1.24 L335.232,22.711 L335.34,26.461 L353.249,30.864 L329.719,47.687 L329.688,51.406 L324.219,55.344 L353.396,59.496 L347.355,63.844 L347.324,63.837 L295.124,101.124 L277.721,96.774 L271.775,97.529 L256.506,93.712 L255.04,91.137 L251.092,90.116 L162.714,153.148 L162.714,153.945 L193.609,161.713 L229.74,135.923 L248.297,134.902 L249.895,133.703 L251.848,134.192 L258.107,129.708 L258.15,128.91 L255.977,128.334 L254.777,129.177 L252.913,128.734 L251.005,130.11 L244.701,128.511 L270.445,110.135 L278.525,109.291 L325.622,121.01 L326.909,123.096 L349.504,128.735 L390.695,193.498 L340.891,229.009 L340.891,229.809 L346.218,238.553 L341.955,241.659 L341.909,242.459 L353.85,245.433 L380.261,242.638 L384.922,239.309 L384.922,238.509 L374.446,235.889 L369.696,228.343 L408.714,200.468 L413.73,199.933 L430.732,187.86 L453.236,193.587 L470.858,181.025 L470.858,180.18 L396.507,161.67 Z M396.507,161.67" class="walkway"/>
                    <path d="M336.98,166.065 L378.838,176.54 L378.882,172.502 L337.025,162.07 L336.98,166.065 L336.98,166.065 Z M312.302,96.107 L312.258,100.102 L313.768,102.1 L313.813,98.061 L312.302,96.107 L312.302,96.107 Z M376.888,73.426 L376.888,77.465 L377.287,77.198 L377.243,77.42 L383.457,73.025 L383.457,68.986 L383.058,69.298 L383.058,69.031 L376.888,73.426 L376.888,73.426 Z M346.08,155.145 L336.226,152.704 L336.226,156.744 L346.037,159.185 L354.78,152.925 L363.304,152.037 L363.348,148.042 L354.827,148.931 L346.08,155.145 L346.08,155.145 Z M355.445,53.05 L358.332,50.989 L358.332,49.721 L376.087,37.027 L382,38.614 L412.372,17.073 L412.333,13.114 L382.083,34.531 L376.134,32.986 L335.234,22.711 L335.34,26.461 L353.231,30.878 L329.719,47.688 L329.69,51.407 L350.432,56.602 L355.445,53.05 L355.445,53.05 Z M362.708,47.573 L362.739,51.552 L365.375,52.188 L365.349,53.474 L365.813,53.563 L365.79,55.428 L369.9,56.437 L368.585,57.365 L368.585,61.657 L397.978,69.023 L434.934,42.647 L434.941,38.595 L420.617,48.835 L387.096,40.127 L362.708,47.573 L362.708,47.573 Z M256.55,72.493 L245.94,69.83 L245.896,73.87 L256.504,76.533 L256.55,72.493 L256.55,72.493 Z M354.516,153.637 L354.471,157.231 L350.742,156.299 L350.697,160.337 L371.917,165.62 L371.961,161.625 L369.208,160.914 L369.208,157.274 L354.516,153.637 L354.516,153.637 Z M441.516,82.791 C422.548,96.344 403.566,109.883 384.57,123.407 L372.408,120.61 L371.207,118.48 L365.928,117.149 L410.003,85.721 L410.003,81.682 L361.797,116.126 L341.156,110.978 L385.189,79.55 L385.236,75.512 L336.982,109.955 L307.507,102.587 L307.462,106.626 L371.204,122.519 L372.36,124.649 L403.076,131.706 L448.662,102.544 L451.326,103.21 L465.842,92.912 L465.842,88.873 L451.372,99.215 L448.708,98.549 L403.076,127.669 L388.828,124.383 L441.516,86.831 L441.516,82.791 L441.516,82.791 L441.516,82.791 Z M384.655,185.64 L384.699,181.602 L335.118,169.26 L335.162,166.775 L331.611,165.887 L331.566,169.926 L332.543,170.193 L332.543,172.633 L384.655,185.64 L384.655,185.64 Z M342.886,151.947 L342.93,148.264 L347.859,144.712 L358.159,144.224 L358.248,144.134 L358.292,140.097 L358.204,140.186 L347.904,140.672 L339.116,146.978 L338.095,146.709 L353.098,136.012 L353.143,131.974 L333.923,145.689 L326.865,143.914 L346.84,129.667 L346.84,125.627 L314.568,148.663 L314.568,152.703 L322.648,146.932 L342.886,151.947 L342.886,151.947 Z M295.744,145.157 L311.458,137.434 L328.682,125.137 L328.725,121.098 L311.503,133.394 L295.79,141.117 L293.35,140.497 L293.35,137.168 L291.62,136.68 L315.013,119.991 L315.013,115.951 L287.58,135.57 L274.884,132.019 L297.744,115.686 L297.789,111.646 L270.845,130.866 L255.976,126.693 L254.778,127.581 L252.96,127.094 L251.006,128.469 L243.86,126.695 L243.86,130.735 L251.006,132.509 L252.914,131.132 L254.778,131.576 L255.976,130.733 L289.888,140.231 L289.888,143.694 L295.744,145.157 L295.744,145.157 Z M482.312,152.971 L472.012,160.294 L471.965,164.332 L482.264,157.008 L482.312,152.971 L482.312,152.971 Z M320.471,238.15 L315.675,241.569 L303.602,238.549 L303.559,242.589 L315.674,245.609 L320.469,242.189 L338.359,246.672 L346.572,240.724 L346.617,236.686 L338.404,242.632 L320.471,238.15 L320.471,238.15 Z M374.49,234.288 L369.341,226.166 L369.341,230.208 L374.446,238.328 L384.922,240.947 L399.836,230.295 L399.883,226.255 L384.966,236.908 L374.49,234.288 L374.49,234.288 Z M234.934,212.673 L234.934,208.633 L230.76,212.362 L230.716,216.402 L234.934,212.673 L234.934,212.673 Z M310.882,233.357 L310.837,237.397 L344.44,237.217 L344.44,233.18 L311.77,233.357 L311.77,230.56 L310.882,233.357 L310.882,233.357 Z M422.874,191.012 L422.874,195.049 L441.339,199.666 L436.412,203.172 L413.774,197.535 L413.728,201.575 L429.085,205.391 L427.401,206.588 L404.672,200.95 L404.672,204.99 L423.184,209.606 L422.471,210.138 L399.744,204.457 L399.744,208.497 L413.724,211.957 L411.549,213.512 L393.442,208.984 L393.395,213.024 L406.757,216.353 L400.19,217.374 L400.19,217.286 L395.618,217.952 L384.653,215.243 L384.61,219.283 L391.221,220.926 L387.939,223.28 L387.893,227.32 L395.26,222.037 L399.83,221.37 L399.83,221.46 L407.775,220.219 L415.675,214.578 L418.694,216.668 L418.828,216.712 L433.254,206.413 L436.361,207.212 L453.317,195.094 L453.363,191.054 L445.505,196.649 L422.874,191.012 L422.874,191.012 Z M470.855,178.584 L441.382,171.26 L466.774,153.151 L466.818,149.111 L437.212,170.195 L400.68,161.094 L417.591,149.022 L422.474,150.265 L430.955,144.182 L430.955,140.187 L422.474,146.225 L417.638,145.026 L396.507,160.074 L392.337,153.415 L411.647,139.655 L411.69,135.614 L390.604,150.663 L383.546,139.477 L383.502,143.517 L396.506,164.069 L470.811,182.624 L490.122,168.864 L490.167,164.825 L470.855,178.584 L470.855,178.584 Z M127.601,129.001 L115.97,126.07 L115.925,130.11 L127.555,133.039 L127.601,129.001 L127.601,129.001 Z M157.83,115.239 L156.32,113.464 L156.32,117.503 L157.785,119.278 L157.83,115.239 L157.83,115.239 Z M182.109,108.581 L178.293,107.604 L178.249,111.643 L182.066,112.62 L182.109,108.581 L182.109,108.581 Z M149.084,140.098 L133.459,140.584 L117.08,136.456 L117.08,140.496 L133.459,144.58 L149.04,144.093 L162.891,147.554 L162.846,151.417 L162.713,151.548 L162.669,155.543 L166.93,152.526 L166.975,148.575 L171.102,149.596 L248.56,94.331 L248.56,92.022 L255.04,93.531 L256.505,96.105 L271.776,99.922 L277.722,99.211 L295.078,103.518 L338.932,72.224 L338.977,68.185 L295.123,99.479 L283.67,96.638 L323.31,68.319 L323.353,64.279 L279.5,95.618 L277.771,95.175 L271.777,95.885 L256.551,92.113 L255.086,89.494 L249.939,88.296 L249.939,86.875 L245.809,85.811 L244.966,86.433 L244.698,86.388 L244.743,84.878 L238.529,83.368 L238.482,87.363 L243.143,88.562 L243.143,90.026 L244.918,90.47 L245.762,89.849 L248.336,90.515 L220.637,110.268 L183.219,100.947 L183.219,104.986 L216.421,113.243 L205.368,121.142 L172.698,113.021 L172.698,117.015 L201.196,124.119 L189.877,132.198 L133.592,118.125 L133.547,122.164 L185.66,135.215 L171.101,145.558 L149.084,140.098 L149.084,140.098 Z M340.889,231.448 L391.047,195.672 L391.047,191.632 L387.452,194.207 L325.973,178.849 L325.928,182.889 L383.28,197.183 L373.825,203.93 L320.781,190.702 L320.736,194.741 L369.652,206.904 L364.816,210.322 L321.845,199.622 L321.845,197.139 L318.293,196.249 L318.293,200.288 L319.27,200.556 L319.227,202.996 L360.641,213.339 L357.755,215.379 L317.716,205.394 L315.408,201.753 L315.363,205.748 L317.361,208.9 L316.427,208.677 L316.427,212.715 L326.15,215.114 L326.15,211.563 L353.582,218.398 L348.388,222.082 L320.513,215.157 L320.469,219.152 L344.171,225.054 L340.932,227.407 L322.643,226.786 L304.622,222.303 L331.256,161.448 L331.301,157.408 L297.167,235.442 L284.869,238.46 L226.81,226.564 L236.885,217.643 L236.93,213.603 L223.124,225.81 L158.185,212.539 L156.943,211.253 L134.172,206.773 L146.692,200.469 L172.88,205.53 L253.533,209.435 L253.579,205.396 L247.676,205.084 L256.997,165.269 L257.086,165.269 L257.13,161.229 L240.797,160.429 L240.842,157.543 L233.297,155.637 L237.335,152.752 L237.335,150.887 L239.332,151.376 L244.436,147.779 L244.436,146 L246.167,146.444 L253.003,141.606 L253.003,138.72 L255.711,136.769 L255.755,132.774 L250.074,136.812 L250.029,139.698 L246.212,142.406 L242.172,141.385 L240.307,142.717 L240.307,146.667 L239.329,147.378 L217.89,142.006 L217.89,146.044 L235.071,150.351 L230.985,153.282 L228.19,152.571 L228.19,152.793 L226.546,153.947 L226.546,156.432 L224.682,157.763 L221.974,157.098 L220.287,158.297 L201.642,153.638 L201.598,157.677 L218.998,161.984 L217.09,163.361 L200.355,159.189 L198.535,160.475 L193.742,159.275 L193.697,163.316 L196.629,164.027 L196.629,167.533 L200.224,164.915 L200.268,163.227 L200.313,163.227 L217.047,167.401 L223.172,163.049 L223.172,161.446 L224.636,161.8 L229.119,158.603 L229.119,156.874 L230.939,157.318 L230.982,157.318 L230.939,159.092 L237.021,160.601 L236.974,164.286 L256.106,165.219 L246.742,205.036 L172.924,201.485 L146.692,196.424 L128.669,205.525 L103.191,200.329 L83.837,191.543 L83.837,195.583 L103.146,204.37 L128.403,209.519 L128.403,209.652 L156.902,215.29 L158.144,216.577 L284.831,242.455 L297.128,239.48 L303.029,225.942 L322.65,230.825 L340.889,231.448 L340.889,231.448 Z M231.516,82.082 L229.295,83.681 L229.251,87.721 L231.516,86.121 L231.516,82.082 L231.516,82.082 Z M201.107,165.843 L201.107,169.882 L202.349,168.95 L202.394,164.91 L201.107,165.843 L201.107,165.843 Z M201.107,165.843" class="wall"/>
                </g>
                <g class="ceilings">
                    <path class="unit" d="M370.531,36.718 L365.393,40.385 L346.644,35.572 L351.81,31.885 L370.531,36.718 L370.531,36.718 Z M370.531,36.718" id="2001"/>
                    <path class="unit" d="M341.062,39.531 L359.75,44.343 L356.448,46.771 L337.437,42.135 L341.062,39.531 L341.062,39.531 Z M341.062,39.531" id="2002"/>
                    <path class="unit" d="M381.749,34.781 L375.535,33.189 L335.232,22.711 L365.422,1.24 L412.331,13.114 L381.749,34.781 L381.749,34.781 Z M381.749,34.781" id="2003"/>
                    <path class="unit" d="M337.084,42.385 L357.656,47.437 L355.203,49.254 L350.187,52.806 L329.635,47.658 L337.084,42.385 L337.084,42.385 Z M337.084,42.385" id="2004"/>
                    <path class="unit" d="M308.286,67.01 L314.678,62.395 L323.157,64.526 L279.611,95.642 L277.967,95.199 L272.019,95.954 L256.926,92.182 L255.505,89.609 L248.937,88.099 L250.491,86.99 L245.964,85.836 L245.122,86.456 L243.699,86.1 L245.253,85.034 L239.083,83.481 L243.654,80.196 L245.695,80.73 L257.059,72.606 L246.452,69.988 L250.713,66.969 L258.613,68.966 L265.316,64.216 L278.277,67.456 C281.029,65.503 283.766,63.534 286.49,61.552 L308.286,67.01 L308.286,67.01 Z M308.286,67.01" id="2005"/>
                    <path class="unit" d="M279.744,95.687 L323.289,64.57 L338.512,68.386 L294.968,99.414 L279.744,95.687 L279.744,95.687 Z M279.744,95.687" id="2006"/>
                    <path class="unit" d="M314.322,98.305 L312.766,96.308 L358.975,63.328 L382.902,69.32 L376.732,73.671 L385.076,75.757 L337.094,109.982 L308.109,102.703 L314.322,98.305 L314.322,98.305 Z M314.322,98.305" id="2007"/>
                    <path class="unit" d="M385.479,76.021 L409.801,82.103 L361.863,116.327 L337.494,110.246 L385.479,76.021 L385.479,76.021 Z M385.479,76.021" id="2008"/>
                    <path class="unit" d="M441.407,83.213 L384.809,123.608 L372.913,120.856 L371.758,118.725 L362.393,116.415 L417.344,77.177 L441.407,83.213 L441.407,83.213 Z M441.407,83.213" id="2009"/>
                    <path class="unit" d="M451.881,85.76 L441.629,83.212 L385.033,123.606 L394.426,125.753 L451.881,85.76 Z M451.881,85.76" id="2010"/>
                    <path class="unit" d="M367.737,50.075 L365.353,49.489 L366.665,48.551 L362.706,47.572 L376.904,37.499 L390.916,41.114 L373.666,53.364 L365.779,51.436 L367.737,50.075 L367.737,50.075 Z M367.737,50.075" id="2011"/>
                    <path class="unit" d="M411.355,136.212 L390.625,150.994 L383.834,140.072 L394.932,132.129 L411.355,136.212 L411.355,136.212 Z M411.355,136.212" id="2012"/>
                    <path class="unit" d="M430.576,140.784 L422.319,146.688 L417.48,145.49 L396.574,160.36 L390.803,151.214 L407.094,139.627 L422.987,143.578 L427.87,140.117 L430.576,140.784 L430.576,140.784 Z M430.576,140.784" id="2013"/>
                    <path class="unit" d="M417.614,145.712 L422.497,146.953 L430.976,140.871 L466.354,149.704 L437.058,170.611 L396.796,160.579 L417.614,145.712 L417.614,145.712 Z M417.614,145.712" id="2014"/>
                    <path class="unit" d="M481.845,153.523 L471.547,160.892 L489.656,165.418 L470.613,178.957 L437.454,170.7 L466.707,149.837 L481.845,153.523 L481.845,153.523 Z M481.845,153.523" id="2015"/>
                    <path class="unit" d="M231.139,82.503 L229.052,84.058 L230.384,86.278 L248.184,90.716 L220.532,110.469 L183.556,101.237 L195.939,92.448 L200.068,93.469 L207.127,88.408 L210.102,89.118 L218.313,83.259 L222.752,84.369 L226.88,81.439 L231.139,82.503 L231.139,82.503 Z M231.139,82.503" id="2016"/>
                    <path class="unit" d="M186.616,102.122 L220.306,110.512 L205.258,121.254 L173.077,113.22 L176.539,110.736 L178.847,111.312 L182.443,108.782 L178.582,107.805 L186.616,102.122 L186.616,102.122 Z M186.616,102.122" id="2017"/>
                    <path class="unit" d="M270.511,107.937 L278.367,107.092 L297.322,111.843 L270.643,130.84 L255.863,126.667 L254.622,127.557 L252.802,127.069 L250.85,128.445 L244.102,126.757 L270.511,107.937 L270.511,107.937 Z M270.511,107.937" id="2018"/>
                    <path class="unit" d="M149.818,114.906 L151.816,116.726 L158.163,115.527 L156.698,113.751 L166.685,111.844 L205.037,121.432 L189.81,132.262 L134.015,118.369 L135.303,117.481 L149.818,114.906 L149.818,114.906 Z M149.818,114.906" id="2019"/>
                    <path class="unit" d="M297.676,111.933 L314.544,116.15 L287.333,135.546 L271.043,130.932 L297.676,111.933 L297.676,111.933 Z M297.676,111.933" id="2020"/>
                    <path class="unit" d="M287.822,135.68 L315.032,116.283 L325.374,118.857 L326.66,120.899 L328.346,121.341 L311.256,133.505 L295.675,141.14 L290.172,139.764 L293.635,137.323 L287.822,135.68 L287.822,135.68 Z M287.822,135.68" id="2021"/>
                    <path class="unit" d="M349.167,126.625 L352.717,132.217 L333.72,145.844 L322.845,143.139 L346.77,126.048 L349.167,126.625 L349.167,126.625 Z M349.167,126.625" id="2022"/>
                    <path class="unit" d="M128.911,117.437 L189.59,132.528 L171.125,145.713 L149.286,140.297 L133.617,140.74 L117.549,136.702 L128.024,129.244 L116.395,126.359 L128.911,117.437 L128.911,117.437 Z M128.911,117.437" id="2023"/>
                    <path class="unit" d="M358.268,140.296 L347.968,140.784 L339.223,147.044 L334.43,145.844 L353.25,132.397 L358.268,140.296 L358.268,140.296 Z M358.268,140.296" id="2024"/>
                    <path class="unit" d="M218.266,141.982 L229.985,133.636 L248.362,132.573 L248.453,132.573 L250.006,131.464 L255.466,132.796 L249.784,136.882 L252.713,137.591 L246.144,142.297 L242.06,141.278 L240.019,142.74 L244.149,143.761 L239.265,147.267 L218.266,141.982 L218.266,141.982 Z M218.266,141.982" id="2025"/>
                    <path class="unit" d="M234.602,209.098 L230.384,212.827 L236.555,214.07 L222.971,226.098 L158.386,212.869 L157.188,211.582 L128.913,206.034 C134.92,203.046 140.913,200.041 146.89,197.025 L172.947,202.039 L208.591,203.727 L234.602,209.098 L234.602,209.098 Z M234.602,209.098" id="2026"/>
                    <path class="unit" d="M246.541,205.06 L173.166,201.508 L146.977,196.446 L128.822,205.503 L103.565,200.354 L84.345,191.655 L89.716,142.384 L93.8,139.454 L110.712,143.671 L113.287,141.851 L156.255,152.549 L163.091,147.798 L166.819,148.731 L162.559,151.749 L200.067,161.117 L196.471,163.69 L202.198,165.112 L200.91,166 L212.317,168.885 L231.182,155.437 L240.547,157.747 L236.598,160.542 L256.838,161.521 L246.541,205.06 L246.541,205.06 Z M246.541,205.06" id="2027"/>
                    <path class="unit" d="M212.316,168.883 L200.42,177.582 L177.736,170.613 L193.761,159.472" id="2028"/>
                    <path class="unit" d="M354.85,149.041 L346.195,155.165 L336.74,152.814 L343.443,148.108 L339.583,147.129 L348.238,140.96 L358.357,140.471 L363.196,148.151 L354.85,149.041 L354.85,149.041 Z M354.85,149.041" id="2029"/>
                    <path class="unit" d="M364.57,150.594 L368.876,157.296 L354.85,153.79 L358.536,151.17 L364.57,150.594 L364.57,150.594 Z M364.57,150.594" id="2030"/>
                    <path class="unit" d="M202.152,153.657 L218.131,142.25 L236.819,146.91 L234.866,148.285 L237.175,148.863 L231.006,153.213 L228.431,152.548 L226.389,154.056 L228.963,154.676 L224.746,157.695 L222.038,157.03 L220.35,158.228" id="2031"/>
                    <path class="unit" d="M371.937,161.824 L378.684,172.433 L337.494,162.179 L340.6,159.958 L345.038,161.024 L348.634,158.492 L350.853,159.027 L353.427,157.206 L371.937,161.824 L371.937,161.824 Z M371.937,161.824" id="2032"/>
                    <path class="unit" d="M351.076,156.454 L371.627,161.601 L369.054,157.518 L354.627,153.922 L351.076,156.454 L351.076,156.454 Z M351.076,156.454" id="2033"/>
                    <path class="unit" d="M221.018,157.74 L219.954,158.451" id="2034"/>
                    <path class="unit" d="M219.952,158.451 L219.773,158.54 L222.836,159.297 L216.978,163.468 L200.288,159.297 L198.468,160.582 L194.03,159.474 L201.755,153.97 L202.021,153.792 L219.952,158.451 L219.952,158.451 Z M219.952,158.451" id="2035"/>
                    <path class="unit" d="M202.018,153.791 L202.907,153.125" id="2036"/>
                    <path class="unit" d="M384.5,181.533 L333.1,168.749 L335.63,166.886 L332.169,166.041 L337.273,162.312 L378.865,172.699 L384.5,181.533 L384.5,181.533 Z M384.5,181.533" id="2037"/>
                    <path class="unit" d="M332.877,168.883 L384.634,181.799 L390.94,191.698 L387.477,194.184 L326.443,178.913 L329.906,171.014 L332.877,168.883 L332.877,168.883 Z M332.877,168.883" id="2038"/>
                    <path class="unit" d="M326.174,179.357 L387.118,194.583 L373.713,204.127 L321.067,191.032 L326.174,179.357 L326.174,179.357 Z M326.174,179.357" id="2039"/>
                    <path class="unit" d="M321.16,191.032 L373.67,204.083 L364.881,210.341 L319.827,199.155 L322.4,197.291 L318.803,196.403 L321.16,191.032 L321.16,191.032 Z M321.16,191.032" id="2040"/>
                    <path class="unit" d="M231.227,155.256 L260.478,134.395 L292.216,143.049 L311.481,133.729 L328.572,121.565 L346.282,125.961 L314.054,148.952 L319.604,150.461 L330.833,157.654 L296.788,235.466 L284.714,238.442 L223.37,225.922 L236.95,213.892 L242.943,215.089 L253.818,205.456 L246.937,205.102 L257.236,161.47 L237.304,160.406 L241.033,157.743 L231.227,155.256 L231.227,155.256 Z M231.227,155.256" id="2041"/>
                    <path class="unit" d="M319.471,199.244 L364.528,210.474 L357.738,215.357 L318.052,205.458 L315.743,201.907 L319.471,199.244 L319.471,199.244 Z M319.471,199.244" id="2042"/>
                    <path class="unit" d="M320.049,206.302 L357.202,215.578 L348.056,222.103 L320.624,215.267 L326.265,211.227 L316.541,208.786 L320.049,206.302 L320.049,206.302 Z M320.049,206.302" id="2043"/>
                    <path class="unit" d="M322.534,226.854 L303.136,222.016 L307.443,212.162 L347.838,222.282 L340.559,227.475 L322.534,226.854 L322.534,226.854 Z M322.534,226.854" id="2044"/>
                    <path class="unit" d="M340.557,227.652 L344.018,233.201 L310.996,233.38 L314.058,224.901 L322.449,226.987 L340.557,227.652 L340.557,227.652 Z M340.557,227.652" id="2045"/>
                    <path class="unit" d="M310.729,233.511 L344.331,233.334 L346.42,236.708 L338.385,242.567 L320.539,238.086 L315.701,241.503 L303.982,238.573 L307.221,230.452 L311.703,230.719 L310.729,233.511 L310.729,233.511 Z M310.729,233.511" id="2046"/>
                    <path class="unit" d="M453.08,191.299 L445.445,196.714 L423.251,191.166 L430.886,185.751 L453.08,191.299 L453.08,191.299 Z M453.08,191.299" id="2047"/>
                    <path class="unit" d="M445.224,196.891 L436.392,203.24 L414.11,197.691 L423.032,191.342 L445.224,196.891 L445.224,196.891 Z M445.224,196.891" id="2048"/>
                    <path class="unit" d="M413.797,197.824 L433.063,202.618 L427.381,206.613 L405.097,201.108 L409.002,198.312 L413.797,197.824 L413.797,197.824 Z M413.797,197.824" id="2049"/>
                    <path class="unit" d="M422.23,210.298 L418.901,212.694 L415.75,210.519 L411.577,213.536 L393.821,209.098 L399.947,204.749 L422.23,210.298 L422.23,210.298 Z M422.23,210.298" id="2050"/>
                    <path class="unit" d="M411.355,213.67 L407.757,216.245 L400.255,217.4 L400.211,217.354 L395.728,218.02 L385.122,215.357 L393.6,209.273 L411.355,213.67 L411.355,213.67 Z M411.355,213.67" id="2051"/>
                    <path class="unit" d="M384.899,215.534 L395.242,218.109 L387.74,223.48 L399.678,226.454 L385.032,236.886 L374.823,234.315 L369.761,226.325 L384.899,215.534 L384.899,215.534 Z M384.899,215.534" id="2052"/>
                    <path class="unit" d="M405.008,201.02 L427.514,206.748 L422.499,210.299 L399.905,204.75 L405.008,201.02 L405.008,201.02 Z M405.008,201.02" id="2053"/>
                    <path class="unit" d="M441.629,83.212 L452.02,85.795 L394.621,125.798 L385.033,123.606 L403.099,127.735 L448.642,98.659 L451.304,99.324 L465.555,89.16 L441.629,83.212 Z M441.629,83.212" id="2054"/>
                    <path class="unit" d="M375.24,33.406 L370.915,36.468 L352.144,31.655 L356.415,28.572 L375.24,33.406 L375.24,33.406 Z M375.24,33.406" id="2055"/>
                    <path class="unit" d="M346.292,35.801 L365.014,40.645 L360.147,44.114 L341.438,39.281 L346.292,35.801 L346.292,35.801 Z M346.292,35.801" id="2056"/>
                    <path class="unit" d="M434.937,38.593 L397.832,65.072 L368.207,57.614 L399.269,35.572 L402.47,36.331 L408.499,32.133 L434.937,38.593 L434.937,38.593 Z M434.937,38.593" id="2057"/>
        </g>
    </g>
</svg>