<?xml version="1.0" encoding="utf-8"?>
<!DOCTYPE svg PUBLIC "-//W3C//DTD SVG 1.1//EN" "http://www.w3.org/Graphics/SVG/1.1/DTD/svg11.dtd">
<svg version="1.1" xmlns="http://www.w3.org/2000/svg" xmlns:xlink="http://www.w3.org/1999/xlink" xml:space="preserve">
<g class="level" id="level0">
            <g class="outline">
                    <path d="M433.196,59.481 C433.239,59.071 433.112,58.659 432.844,58.342 L432.293,57.691 L432.367,57.639 C432.746,57.37 432.982,56.942 433.008,56.478 C433.031,56.015 432.843,55.565 432.494,55.258 L422.234,46.249 C422.081,46.112 421.899,46.011 421.707,45.947 L412.438,42.901 L412.447,42.137 C412.45,41.862 412.38,41.596 412.25,41.368 C412.1,40.914 411.742,40.552 411.278,40.399 L381.954,30.819 C381.872,30.791 381.789,30.772 381.706,30.758 C381.669,30.744 381.632,30.732 381.593,30.72 L367.243,26.613 C367.15,26.586 367.057,26.57 366.966,26.561 C366.945,26.553 366.92,26.544 366.899,26.539 L357.398,23.763 C357.305,23.738 357.214,23.72 357.125,23.71 C357.103,23.702 357.079,23.695 357.058,23.689 L304.822,8.045 C304.802,8.04 304.785,8.033 304.765,8.029 C304.702,7.995 304.63,7.967 304.561,7.942 L296.506,5.206 C296.043,5.049 295.534,5.123 295.137,5.408 L294.96,5.533 C294.94,5.545 294.923,5.557 294.904,5.572 L281.142,15.388 L224.102,0.83 C223.659,0.719 223.19,0.81 222.822,1.084 L195.059,21.732 C195.049,21.741 195.038,21.749 195.03,21.756 L179.019,33.173 C178.843,33.298 178.7,33.455 178.594,33.635 C178.24,33.917 178.03,34.346 178.025,34.802 L177.985,38.316 C177.978,38.943 178.36,39.512 178.943,39.743 L179.137,39.819 C179.199,39.844 179.263,39.865 179.329,39.883 L199.822,44.997 L192.831,49.979 C192.759,50.014 192.688,50.058 192.623,50.105 L183.747,56.44 C183.689,56.481 183.635,56.525 183.585,56.574 C183.573,56.582 183.562,56.59 183.55,56.597 L177.282,61.075 L160.014,56.748 C157.264,56.067 155.199,55.837 153.656,56.052 C153.606,56.058 153.558,56.068 153.511,56.078 L152.024,56.432 C151.95,56.451 151.878,56.473 151.806,56.502 C150.432,57.057 149.424,57.797 148.847,58.648 C148.802,58.71 148.76,58.775 148.737,58.818 C148.73,58.827 148.723,58.836 148.716,58.844 C148.659,58.919 148.61,59.001 148.567,59.086 C148.487,59.218 148.414,59.347 148.381,59.419 C148.014,60.073 147.789,60.723 147.694,61.393 L144.594,81.665 C144.559,81.769 144.536,81.894 144.525,82.014 L143.245,90.584 C143.234,90.66 143.228,90.734 143.228,90.809 L143.228,94.36 C143.228,95.057 143.703,95.666 144.38,95.834 L147.918,96.714 C147.918,96.714 141.841,100.947 141.757,101.008 L141.272,106.412 L77.698,151.556 L66.047,166.585 C66.047,166.585 62.953,168.666 62.938,168.676 L24.818,195.858 C24.353,196.19 24.132,196.76 24.216,197.325 L24.181,200.624 C24.174,201.328 24.651,201.944 25.333,202.116 L110.29,223.223 C110.411,223.252 110.612,223.267 110.736,223.267 C111.051,223.267 111.361,223.169 111.618,222.985 L112.883,222.081 L115.596,222.756 C116.028,222.861 116.483,222.777 116.845,222.519 L121.934,218.887 L121.934,220.893 C121.934,221.591 122.41,222.199 123.087,222.367 L134.711,225.255 C134.769,225.269 134.827,225.279 134.885,225.287 L205.799,234.298 C205.876,234.307 205.953,234.311 206.03,234.311 L206.186,234.311 C206.502,234.311 206.81,234.211 207.067,234.03 L239.91,210.62 C240.306,210.34 240.544,209.885 240.55,209.4 L240.587,205.849 C240.595,205.086 240.036,204.438 239.283,204.329 L216.11,201.062 L209.307,199.37 L209.341,196.329 C209.349,195.626 208.875,195.012 208.194,194.839 L205.616,194.191 C205.676,194.026 205.708,193.853 205.71,193.673 L205.749,190.124 C205.751,190.012 205.739,189.9 205.717,189.791 L209.286,190.664 L209.517,190.749 C209.571,190.77 209.625,190.786 209.682,190.801 L240.612,198.486 C241.041,198.593 241.497,198.508 241.859,198.251 L258.596,186.312 C258.992,186.032 259.228,185.579 259.233,185.093 L259.271,181.541 C259.279,180.839 258.802,180.221 258.12,180.052 L253.264,178.844 L261.043,173.282 L262.302,173.594 C262.732,173.703 263.189,173.615 263.549,173.358 L282.742,159.663 C283.141,159.379 283.378,158.919 283.378,158.428 L283.378,154.878 C283.378,154.182 282.901,153.574 282.226,153.405 L259.643,147.785 C259.21,147.681 258.755,147.765 258.394,148.024 L255.7,149.95 C255.604,149.36 255.166,148.872 254.57,148.722 L237.12,144.357 L239.562,142.613 C239.795,142.449 239.97,142.224 240.081,141.969 L240.757,142.143 C241.191,142.256 241.656,142.168 242.02,141.91 L274.083,119.006 C274.482,118.721 274.718,118.262 274.718,117.771 L274.718,115.715 L276.967,116.279 C277.4,116.388 277.857,116.3 278.217,116.041 L287.893,109.136 C288.288,108.854 288.522,108.403 288.529,107.918 L288.554,105.641 L291.011,106.253 C291.445,106.359 291.9,106.274 292.259,106.016 L301.231,99.616 C301.622,99.338 301.858,98.892 301.87,98.412 L301.87,98.406 L310.201,100.495 L308.057,102.02 C307.656,102.304 307.416,102.766 307.416,103.258 L307.416,106.808 C307.416,107.505 307.891,108.113 308.567,108.282 L362.435,121.705 C362.866,121.813 363.325,121.726 363.683,121.467 L398.363,96.691 C398.758,96.409 398.991,95.956 398.997,95.472 L399.038,91.922 C399.046,91.34 398.723,90.819 398.222,90.558 C398.067,90.443 397.886,90.356 397.688,90.306 L396.6,90.037 L432.57,64.384 C432.97,64.099 433.208,63.638 433.208,63.147 L433.208,59.635 C433.204,59.586 433.201,59.532 433.196,59.481 L433.196,59.481 L433.196,59.481 Z M433.196,59.481" class="outline"/>
                </g>
                <g class="label">
                    <path d="M11.935,105.231 C9.054,105.231 7.229,107.568 7.229,111.169 C7.229,114.562 9.021,116.675 11.887,116.675 C14.768,116.675 16.593,114.322 16.593,110.721 C16.592,107.328 14.784,105.231 11.935,105.231 L11.935,105.231 Z M11.918,115.491 C9.773,115.491 8.524,113.746 8.524,111.234 C8.524,108.273 9.756,106.416 11.901,106.416 C14.094,106.416 15.295,108.161 15.295,110.658 C15.296,113.619 14.063,115.491 11.918,115.491 L11.918,115.491 Z M38.415,115.332 L33.645,115.332 L33.645,111.474 L37.519,111.474 C37.903,111.474 38.111,111.154 38.111,110.882 C38.111,110.594 37.903,110.306 37.519,110.306 L33.645,110.306 L33.645,106.577 L38.255,106.577 C38.671,106.577 38.895,106.305 38.895,106.001 C38.895,105.665 38.671,105.361 38.255,105.361 L33.469,105.361 C32.781,105.361 32.412,105.729 32.412,106.321 L32.412,115.589 C32.412,116.181 32.78,116.549 33.469,116.549 L38.415,116.549 C38.799,116.549 39.023,116.213 39.023,115.941 C39.023,115.604 38.799,115.332 38.415,115.332 L38.415,115.332 Z M29.921,105.295 C29.585,105.295 29.377,105.551 29.329,105.871 C28.881,108.928 28.305,112.017 27.568,115.091 L27.536,115.091 C26.672,112.274 25.984,108.912 25.231,106.559 C24.927,105.599 24.655,105.295 24.159,105.295 C23.726,105.295 23.407,105.631 23.135,106.495 C22.399,108.816 21.582,112.45 20.718,115.091 L20.686,115.091 C19.934,112.034 19.485,108.945 19.085,105.935 C19.005,105.503 18.781,105.295 18.429,105.295 C18.045,105.295 17.821,105.599 17.821,105.935 C17.821,106.047 17.853,106.239 17.869,106.303 C18.302,109.392 18.91,112.561 19.534,115.331 C19.758,116.291 20.094,116.611 20.638,116.611 C21.118,116.611 21.438,116.339 21.742,115.475 C22.606,112.978 23.214,110.225 24.143,107.056 L24.175,107.056 C25.135,110.225 25.696,112.994 26.464,115.475 C26.736,116.355 27.072,116.611 27.601,116.611 C28.081,116.611 28.401,116.275 28.593,115.539 C29.345,112.546 29.986,109.424 30.498,106.223 C30.53,106.047 30.53,105.935 30.53,105.855 C30.529,105.567 30.29,105.295 29.921,105.295 L29.921,105.295 Z M6.207,115.363 L1.901,115.363 L1.901,105.951 C1.901,105.551 1.645,105.295 1.293,105.295 C0.94,105.295 0.668,105.551 0.668,105.951 L0.668,115.587 C0.668,116.179 1.036,116.547 1.725,116.547 L6.206,116.547 C6.606,116.547 6.862,116.275 6.862,115.939 C6.863,115.635 6.623,115.363 6.207,115.363 L6.207,115.363 Z M72.254,106.768 C71.63,105.519 71.134,105.151 70.573,105.151 C70.013,105.151 69.517,105.519 68.892,106.768 C67.996,108.577 67.308,110.85 66.139,115.476 C66.075,115.7 66.043,115.876 66.043,115.988 C66.043,116.372 66.299,116.612 66.651,116.612 C66.939,116.612 67.147,116.436 67.227,116.1 C67.531,114.724 67.835,113.491 68.14,112.434 L73.006,112.434 C73.294,113.491 73.598,114.723 73.919,116.1 C73.999,116.436 74.207,116.612 74.495,116.612 C74.847,116.612 75.103,116.372 75.103,115.988 C75.103,115.876 75.055,115.7 75.007,115.476 C73.871,110.85 73.15,108.577 72.254,106.768 L72.254,106.768 Z M68.46,111.314 C69.196,108.865 69.853,107.344 70.365,106.544 C70.413,106.48 70.461,106.416 70.573,106.416 C70.685,106.416 70.733,106.48 70.781,106.544 C71.293,107.344 71.933,108.865 72.67,111.314 L68.46,111.314 L68.46,111.314 Z M89.982,115.363 L85.676,115.363 L85.676,105.951 C85.676,105.551 85.42,105.295 85.068,105.295 C84.715,105.295 84.443,105.551 84.443,105.951 L84.443,115.587 C84.443,116.179 84.811,116.547 85.5,116.547 L89.981,116.547 C90.381,116.547 90.637,116.275 90.637,115.939 C90.638,115.635 90.398,115.363 89.982,115.363 L89.982,115.363 Z M63.696,106.592 C63.584,105.759 63.296,105.296 62.64,105.296 C62.015,105.296 61.744,105.664 61.567,106.128 C60.751,108.337 59.855,111.17 58.878,113.795 L58.862,113.795 C57.854,111.314 57.07,108.705 56.045,106.272 C55.821,105.664 55.549,105.296 54.924,105.296 C54.268,105.296 53.964,105.744 53.868,106.625 C53.515,109.554 53.324,112.723 53.34,115.973 C53.324,116.357 53.564,116.613 53.916,116.613 C54.268,116.613 54.54,116.389 54.54,115.957 C54.524,112.884 54.716,109.907 55.053,106.914 L55.069,106.914 C56.046,109.539 56.99,112.18 58.03,114.805 C58.158,115.141 58.43,115.381 58.846,115.381 C59.246,115.381 59.55,115.141 59.678,114.805 C60.702,112.26 61.583,109.555 62.511,106.914 L62.527,106.914 C62.944,109.939 63.103,112.916 63.183,115.893 C63.183,116.341 63.407,116.613 63.824,116.613 C64.176,116.613 64.4,116.325 64.4,115.941 C64.4,115.813 64.384,115.573 64.384,115.461 C64.352,112.418 64.096,109.361 63.696,106.592 L63.696,106.592 Z M82.366,115.363 L78.06,115.363 L78.06,105.951 C78.06,105.551 77.804,105.295 77.452,105.295 C77.099,105.295 76.827,105.551 76.827,105.951 L76.827,115.587 C76.827,116.179 77.195,116.547 77.884,116.547 L82.365,116.547 C82.765,116.547 83.021,116.275 83.021,115.939 C83.022,115.635 82.782,115.363 82.366,115.363 L82.366,115.363 Z M46.463,112.434 C46.175,112.018 45.855,111.698 45.486,111.458 C46.911,110.961 47.839,109.969 47.839,108.449 C47.839,106.512 46.527,105.232 43.63,105.232 C42.526,105.232 41.773,105.344 41.261,105.504 C40.861,105.632 40.749,105.872 40.749,106.272 L40.749,115.972 C40.749,116.372 41.021,116.612 41.374,116.612 C41.726,116.612 41.998,116.372 41.998,115.972 L41.998,111.794 L43.247,111.794 C44.415,111.794 44.88,112.274 45.456,113.203 C45.856,113.843 46.272,114.771 46.768,116.164 C46.864,116.42 47.04,116.612 47.376,116.612 C47.712,116.612 48.001,116.372 48.001,115.988 C48.001,115.876 47.969,115.716 47.905,115.556 C47.471,114.403 46.959,113.203 46.463,112.434 L46.463,112.434 Z M43.438,110.578 L41.998,110.578 L41.998,106.544 C42.446,106.48 42.878,106.416 43.567,106.416 C45.856,106.416 46.576,107.312 46.576,108.497 C46.575,110.146 45.022,110.625 43.438,110.578 L43.438,110.578 Z M43.438,110.578" class="Shape"/>
                    <path d="M271.381,184.778 L276.383,186.764 L268.957,186.812 L268.328,187.339 L274.699,189.869 L275.285,189.377 L270.284,187.391 L277.709,187.343 L278.337,186.816 L271.967,184.286 L271.381,184.778 L271.381,184.778 Z M280.789,183.049 L280.101,183.501 C280.344,183.702 280.463,183.899 280.473,184.08 C280.478,184.265 280.371,184.444 280.165,184.617 C279.886,184.851 279.522,184.994 279.063,185.047 C278.609,185.095 278.109,185.028 277.586,184.846 L280.084,182.75 C279.989,182.712 279.917,182.684 279.873,182.666 C279.108,182.363 278.381,182.244 277.681,182.318 C276.973,182.389 276.398,182.611 275.949,182.988 C275.49,183.373 275.321,183.776 275.465,184.186 C275.604,184.6 276.061,184.964 276.84,185.273 C277.59,185.571 278.315,185.683 279.02,185.604 C279.72,185.53 280.31,185.287 280.801,184.875 C281.192,184.547 281.384,184.232 281.376,183.915 C281.362,183.604 281.167,183.317 280.789,183.049 L280.789,183.049 Z M276.304,183.933 C276.243,183.687 276.337,183.456 276.595,183.239 C276.886,182.995 277.271,182.861 277.749,182.829 C278.067,182.806 278.427,182.863 278.839,182.995 L276.969,184.564 C276.59,184.386 276.365,184.179 276.304,183.933 L276.304,183.933 Z M282.144,180.212 L285.436,180.86 L286.022,180.368 L282.452,177.658 L281.903,178.119 L283.999,179.663 L284.697,180.175 L283.647,179.967 L280.466,179.324 L279.885,179.811 L282.052,181.332 C282.536,181.655 282.791,181.828 282.831,181.857 L281.646,181.628 L278.448,181.017 L277.862,181.509 L283.502,182.483 L284.094,181.986 L281.225,180.011 L282.144,180.212 L282.144,180.212 Z M284.667,175.88 L285.328,175.425 C284.928,175.266 284.699,175.071 284.638,174.843 C284.576,174.616 284.688,174.386 284.958,174.161 C285.217,173.944 285.53,173.807 285.899,173.758 C286.281,173.707 286.623,173.745 286.928,173.866 C287.227,173.984 287.449,174.184 287.603,174.461 C287.763,174.74 287.872,175.207 287.938,175.854 C287.98,176.269 288.052,176.604 288.159,176.856 C288.261,177.112 288.424,177.327 288.628,177.506 C288.755,177.615 288.916,177.705 289.106,177.78 L292.164,175.214 L291.414,174.916 L289.148,176.817 C289.065,176.706 289.006,176.585 288.963,176.45 C288.912,176.312 288.872,176.022 288.817,175.582 C288.743,175.05 288.663,174.659 288.572,174.401 C288.47,174.145 288.342,173.937 288.168,173.777 C287.994,173.616 287.776,173.484 287.529,173.386 C287.027,173.186 286.478,173.125 285.877,173.206 C285.283,173.29 284.767,173.516 284.323,173.889 C283.885,174.257 283.684,174.614 283.738,174.956 C283.802,175.302 284.1,175.609 284.667,175.88 L284.667,175.88 Z M291.065,174.256 L293.066,172.576 L294.587,173.18 L295.157,172.701 L293.636,172.097 L294.259,171.574 L293.538,171.288 L292.914,171.811 L288.786,170.172 L288.321,170.562 L290.342,173.97 L291.065,174.256 L291.065,174.256 Z M292.346,172.29 L290.899,173.504 L289.478,171.15 L292.346,172.29 L292.346,172.29 Z M298.877,169.582 L296.351,168.579 C295.994,168.437 295.742,168.298 295.594,168.161 C295.453,168.027 295.399,167.875 295.423,167.702 C295.454,167.532 295.547,167.373 295.716,167.231 C295.943,167.041 296.212,166.932 296.508,166.899 C296.811,166.869 297.159,166.929 297.545,167.082 L300.471,168.244 L301.036,167.77 L298.11,166.608 C297.658,166.429 297.279,166.324 296.96,166.295 C296.648,166.269 296.326,166.304 296.016,166.403 C295.693,166.503 295.411,166.659 295.162,166.867 C294.761,167.204 294.639,167.567 294.792,167.961 L292.506,167.053 L291.941,167.527 L298.312,170.057 L298.877,169.582 L298.877,169.582 Z M299.384,166.303 C300.163,166.613 300.903,166.73 301.608,166.651 C302.313,166.572 302.892,166.339 303.362,165.944 C303.653,165.7 303.827,165.437 303.893,165.156 C303.952,164.873 303.868,164.611 303.664,164.367 C303.449,164.125 303.051,163.882 302.455,163.645 C301.726,163.356 301.004,163.251 300.299,163.331 C299.588,163.414 299.002,163.645 298.543,164.031 C298.131,164.377 297.944,164.74 298.001,165.115 C298.068,165.571 298.532,165.965 299.384,166.303 L299.384,166.303 Z M299.191,164.287 C299.47,164.053 299.849,163.915 300.33,163.871 C300.814,163.835 301.338,163.926 301.913,164.154 C302.517,164.394 302.874,164.653 302.98,164.924 C303.094,165.197 303.001,165.455 302.721,165.69 C302.436,165.929 302.058,166.066 301.577,166.11 C301.093,166.147 300.555,166.05 299.965,165.816 C299.376,165.582 299.026,165.326 298.92,165.055 C298.819,164.779 298.906,164.527 299.191,164.287 L299.191,164.287 Z M304.489,163.604 C304.754,163.67 305.001,163.696 305.246,163.689 C305.491,163.682 305.748,163.627 306.019,163.526 C306.29,163.425 306.526,163.29 306.727,163.122 C307.171,162.75 307.274,162.347 307.01,161.922 L307.687,162.191 L308.194,161.766 L303.579,159.933 L303.014,160.407 L305.489,161.39 C305.882,161.546 306.148,161.691 306.297,161.828 C306.437,161.962 306.499,162.118 306.468,162.287 C306.444,162.46 306.339,162.621 306.169,162.763 C306,162.905 305.799,163.002 305.566,163.053 C305.334,163.105 305.092,163.1 304.851,163.05 C304.691,163.013 304.405,162.912 303.997,162.75 L301.435,161.732 L300.864,162.211 L303.725,163.347 C304.059,163.479 304.31,163.565 304.489,163.604 L304.489,163.604 Z M309.64,160.55 L307.223,159.591 C306.895,159.461 306.621,159.313 306.408,159.15 C306.268,159.042 306.197,158.922 306.19,158.802 C306.189,158.677 306.248,158.564 306.375,158.458 C306.513,158.343 306.708,158.25 306.955,158.179 L306.43,157.729 C306.067,157.826 305.784,157.956 305.594,158.115 C305.462,158.226 305.392,158.348 305.383,158.482 C305.381,158.618 305.471,158.804 305.672,159.041 L304.973,158.763 L304.461,159.193 L309.076,161.026 L309.64,160.55 L309.64,160.55 Z M290.64,188.77 L288.47,187.909 L291.026,185.764 L290.276,185.466 L287.72,187.611 L285.769,186.837 L288.499,184.546 L287.749,184.248 L284.406,187.053 L290.776,189.583 L294.225,186.689 L293.475,186.391 L290.64,188.77 L290.64,188.77 Z M294.094,182.353 C293.831,182.294 293.583,182.268 293.332,182.272 C293.087,182.279 292.83,182.334 292.559,182.435 C292.288,182.536 292.059,182.674 291.859,182.843 C291.394,183.233 291.288,183.628 291.549,184.038 L290.894,183.778 L290.387,184.203 L295.003,186.036 L295.568,185.562 L293.049,184.562 C292.452,184.325 292.142,184.091 292.105,183.86 C292.068,183.63 292.177,183.412 292.415,183.213 C292.568,183.084 292.744,182.991 292.95,182.936 C293.155,182.88 293.358,182.863 293.566,182.887 C293.769,182.915 294.023,182.99 294.343,183.117 L297.153,184.233 L297.724,183.754 L294.885,182.627 C294.519,182.482 294.26,182.393 294.094,182.353 L294.094,182.353 Z M298.911,181.928 C298.827,181.999 298.742,182.044 298.658,182.069 L298.41,182.088 C298.323,182.08 298.175,182.033 297.949,181.944 L295.256,180.874 L295.826,180.395 L295.214,180.152 L294.644,180.631 L293.036,179.992 L292.936,180.651 L294.079,181.105 L293.662,181.455 L294.274,181.698 L294.691,181.348 L297.341,182.4 C297.814,182.588 298.141,182.692 298.334,182.71 C298.527,182.728 298.723,182.708 298.928,182.652 C299.132,182.589 299.334,182.473 299.54,182.3 C299.667,182.194 299.788,182.065 299.902,181.915 L299.131,181.707 C299.039,181.803 298.974,181.875 298.911,181.928 L298.911,181.928 Z M297.711,179.65 C297.571,179.542 297.494,179.427 297.492,179.302 C297.491,179.177 297.551,179.064 297.672,178.962 C297.809,178.847 298.003,178.748 298.256,178.679 L297.724,178.226 C297.361,178.324 297.085,178.455 296.895,178.615 C296.763,178.726 296.692,178.848 296.684,178.982 C296.675,179.115 296.772,179.304 296.968,179.545 L296.269,179.267 L295.762,179.693 L300.378,181.526 L300.943,181.052 L298.526,180.092 C298.198,179.961 297.924,179.813 297.711,179.65 L297.711,179.65 Z M303.306,176.675 L302.265,176.261 C301.916,176.122 301.665,176.036 301.518,175.997 C301.263,175.941 301.03,175.921 300.807,175.936 C300.584,175.952 300.341,176.012 300.066,176.125 C299.792,176.238 299.516,176.416 299.231,176.655 C298.94,176.899 298.738,177.132 298.631,177.357 C298.524,177.582 298.507,177.784 298.595,177.963 C298.683,178.142 298.866,178.312 299.14,178.486 L299.796,178.061 C299.532,177.877 299.396,177.713 299.392,177.554 C299.388,177.396 299.53,177.204 299.794,176.983 C300.08,176.743 300.383,176.597 300.706,176.542 C300.943,176.506 301.221,176.551 301.535,176.675 C301.564,176.687 301.637,176.716 301.741,176.763 C301.632,176.981 301.381,177.299 301.001,177.717 C300.811,177.922 300.683,178.073 300.61,178.188 C300.521,178.335 300.464,178.482 300.459,178.63 C300.446,178.776 300.504,178.916 300.62,179.053 C300.728,179.188 300.897,179.307 301.122,179.397 C301.508,179.55 301.922,179.59 302.37,179.52 C302.812,179.455 303.215,179.269 303.584,178.96 L303.588,178.956 C303.808,178.77 303.968,178.574 304.061,178.37 C304.149,178.17 304.181,177.928 304.146,177.66 C304.378,177.726 304.604,177.77 304.83,177.788 L305.422,177.291 C305.179,177.279 304.942,177.244 304.726,177.191 C304.503,177.137 304.034,176.964 303.306,176.675 L303.306,176.675 Z M303.111,178.602 C302.889,178.788 302.647,178.901 302.398,178.939 C302.144,178.981 301.911,178.961 301.707,178.88 C301.569,178.825 301.471,178.754 301.415,178.666 C301.351,178.575 301.345,178.481 301.382,178.379 C301.424,178.272 301.537,178.114 301.718,177.899 C302.05,177.522 302.262,177.227 302.351,177.008 L302.635,177.121 C302.977,177.257 303.213,177.383 303.324,177.506 C303.478,177.665 303.533,177.843 303.495,178.037 C303.458,178.23 303.328,178.42 303.111,178.602 L303.111,178.602 Z M305.216,173.02 C304.953,172.961 304.706,172.935 304.454,172.939 C304.209,172.946 303.952,173.001 303.681,173.102 C303.41,173.203 303.181,173.341 302.981,173.509 C302.516,173.899 302.41,174.295 302.671,174.705 L302.016,174.445 L301.509,174.871 L306.125,176.704 L306.69,176.23 L304.171,175.23 C303.574,174.993 303.264,174.759 303.227,174.528 C303.19,174.298 303.299,174.08 303.537,173.881 C303.69,173.752 303.866,173.659 304.072,173.604 C304.282,173.544 304.481,173.531 304.688,173.555 C304.89,173.583 305.144,173.658 305.465,173.785 L308.275,174.901 L308.845,174.422 L306.006,173.295 C305.641,173.149 305.383,173.06 305.216,173.02 L305.216,173.02 Z M310.862,170.757 L310.208,171.189 C310.552,171.378 310.748,171.573 310.789,171.772 C310.83,171.971 310.74,172.164 310.518,172.35 C310.238,172.585 309.865,172.718 309.419,172.749 C308.961,172.783 308.425,172.674 307.806,172.429 C307.195,172.186 306.84,171.934 306.736,171.671 C306.627,171.412 306.72,171.162 307.011,170.919 C307.196,170.764 307.44,170.658 307.725,170.608 C308.017,170.561 308.345,170.574 308.704,170.651 L309.137,170.144 C308.608,170.012 308.103,169.995 307.616,170.088 C307.129,170.182 306.709,170.381 306.345,170.687 C306.06,170.926 305.878,171.187 305.824,171.466 C305.77,171.745 305.862,172.01 306.124,172.258 C306.374,172.507 306.753,172.729 307.248,172.926 C308.02,173.232 308.747,173.351 309.442,173.281 C310.13,173.215 310.703,172.987 311.162,172.601 L311.165,172.599 C311.529,172.293 311.682,171.976 311.637,171.645 C311.587,171.319 311.331,171.021 310.862,170.757 L310.862,170.757 Z M314.425,168.02 L313.744,168.474 C313.987,168.675 314.111,168.868 314.116,169.053 C314.114,169.235 314.02,169.412 313.808,169.59 C313.528,169.825 313.158,169.965 312.704,170.013 C312.244,170.066 311.758,169.996 311.227,169.812 L313.72,167.72 C313.638,167.681 313.565,167.652 313.522,167.635 C312.758,167.332 312.025,167.217 311.317,167.288 C310.623,167.358 310.041,167.585 309.598,167.957 C309.133,168.347 308.97,168.746 309.108,169.16 C309.248,169.575 309.709,169.934 310.481,170.241 C311.231,170.539 311.956,170.651 312.656,170.576 C313.364,170.504 313.958,170.257 314.449,169.845 C314.835,169.522 315.026,169.199 315.012,168.887 C315.006,168.576 314.809,168.283 314.425,168.02 L314.425,168.02 Z M309.948,168.905 C309.88,168.656 309.985,168.424 310.244,168.206 C310.529,167.967 310.919,167.828 311.398,167.796 C311.711,167.776 312.076,167.83 312.488,167.962 L310.618,169.53 C310.234,169.358 310.014,169.147 309.948,168.905 L309.948,168.905 Z M309.948,168.905" class="Shape"/>
                    <path d="M277.366,166.843 L279.469,171.504 L285.659,166.31 L277.366,166.843 Z M277.366,166.843" class="Shape"/>
                </g>
                <g class="background">
                    <path d="M254.417,152.917 L254.2,150.198 L235.5,145.375 L228.456,150.544 L228.791,150.634 L228.795,150.631 L275.998,162.597 L281.861,158.43 L281.861,154.881 L259.085,149.251 L254.417,152.917 L254.417,152.917 Z M421.234,47.389 L410.664,43.913 L406.917,46.603 L332.101,58.854 L289.154,48.205 L264.888,65.527 L275.226,68.102 L260.404,78.677 L262.664,82.031 L223.427,110.045 L219.307,110.414 L153.853,94.46 L143.107,102.072 L142.616,107.568 L78.93,152.572 L67.16,167.601 L56.708,175.022 L123.283,191.22 L136.187,197.295 L116.52,211.337 L107,218.182 L110.614,219.961 L115.959,221.289 L150.676,196.51 L143.535,186.251 L180.867,159.641 L185.822,158.941 L197.75,162.25 L192.723,165.972 L203.162,168.706 L187.367,179.969 L199.289,183.138 L201.75,187.125 L240.979,197.02 L257.716,185.082 L257.754,181.53 L251.125,180 L250.613,178.882 L260.667,171.584 L262.669,172.126 L272.161,165.352 L247.718,159.001 L230.132,154.602 L224.089,159.101 L224.064,159.095 L220.372,161.761 L200.918,156.834 L200.874,153.209 L194.291,151.563 L194.708,151.188 L197.001,151.769 L197.001,148.187 L301.675,73.375 L342.557,67.365 L348.799,62.916 L398.102,54.645 L410.118,57.649 L421,56.322 L428.841,58.273 L431.496,56.397 L421.234,47.389 L421.234,47.389 Z M421.234,47.389" class="walkway"/>
                    <path d="M240.654,171.277 C240.937,171.277 241.176,171.193 241.37,171.024 C241.565,170.856 241.685,170.623 241.733,170.325 L241.301,170.269 C241.27,170.489 241.197,170.651 241.081,170.757 C240.965,170.863 240.821,170.916 240.649,170.916 C240.434,170.916 240.26,170.837 240.127,170.679 C239.994,170.521 239.927,170.268 239.927,169.92 C239.927,169.577 239.996,169.325 240.135,169.167 C240.273,169.008 240.453,168.929 240.675,168.929 C240.821,168.929 240.946,168.973 241.05,169.061 C241.154,169.149 241.226,169.28 241.266,169.454 L241.693,169.388 C241.643,169.126 241.528,168.924 241.349,168.782 C241.17,168.639 240.94,168.568 240.658,168.568 C240.435,168.568 240.229,168.621 240.039,168.725 C239.85,168.83 239.708,168.988 239.616,169.198 C239.524,169.408 239.477,169.653 239.477,169.933 C239.477,170.366 239.585,170.698 239.8,170.931 C240.014,171.161 240.299,171.277 240.654,171.277 L240.654,171.277 Z M242.19,170.459 C242.19,170.723 242.208,170.896 242.244,170.978 C242.28,171.06 242.342,171.126 242.43,171.177 C242.518,171.228 242.641,171.253 242.801,171.253 C242.899,171.253 243.009,171.24 243.133,171.214 L243.07,170.826 C242.99,170.837 242.926,170.843 242.877,170.843 C242.812,170.843 242.762,170.832 242.727,170.811 C242.692,170.79 242.666,170.761 242.651,170.726 C242.636,170.69 242.628,170.61 242.628,170.484 L242.628,168.968 L243.07,168.968 L243.07,168.626 L242.628,168.626 L242.628,167.72 L242.191,167.984 L242.191,168.626 L241.869,168.626 L241.869,168.968 L242.191,168.968 L242.19,170.459 L242.19,170.459 Z M212.585,180.567 C212.264,180.567 211.993,180.663 211.77,180.855 C211.503,181.086 211.37,181.442 211.37,181.922 C211.37,182.36 211.482,182.695 211.706,182.928 C211.93,183.161 212.223,183.277 212.586,183.277 C212.812,183.277 213.021,183.224 213.212,183.118 C213.403,183.012 213.549,182.864 213.65,182.672 C213.75,182.481 213.8,182.218 213.8,181.885 C213.8,181.473 213.687,181.151 213.461,180.917 C213.233,180.684 212.942,180.567 212.585,180.567 L212.585,180.567 Z M213.13,182.667 C212.985,182.833 212.804,182.916 212.586,182.916 C212.366,182.916 212.184,182.833 212.039,182.668 C211.894,182.503 211.822,182.254 211.822,181.922 C211.822,181.59 211.894,181.342 212.039,181.177 C212.184,181.012 212.366,180.93 212.586,180.93 C212.802,180.93 212.983,181.013 213.129,181.178 C213.275,181.344 213.348,181.586 213.348,181.907 C213.347,182.248 213.275,182.501 213.13,182.667 L213.13,182.667 Z M213.033,176.796 L211.278,176.796 C211.327,176.716 211.389,176.637 211.464,176.558 C211.539,176.479 211.708,176.329 211.972,176.107 C212.288,175.84 212.514,175.63 212.65,175.477 C212.786,175.324 212.883,175.178 212.942,175.04 C213.001,174.902 213.03,174.761 213.03,174.618 C213.03,174.336 212.93,174.1 212.73,173.91 C212.53,173.72 212.258,173.624 211.915,173.624 C211.575,173.624 211.304,173.712 211.102,173.889 C210.9,174.066 210.784,174.323 210.753,174.66 L211.205,174.706 C211.206,174.481 211.271,174.306 211.398,174.179 C211.525,174.052 211.694,173.989 211.906,173.989 C212.106,173.989 212.268,174.049 212.393,174.168 C212.517,174.288 212.58,174.435 212.58,174.609 C212.58,174.775 212.512,174.951 212.375,175.138 C212.238,175.324 211.976,175.577 211.586,175.896 C211.336,176.101 211.144,176.282 211.011,176.438 C210.878,176.594 210.782,176.753 210.721,176.914 C210.683,177.012 210.666,177.113 210.67,177.219 L213.036,177.219 L213.036,176.796 L213.033,176.796 L213.033,176.796 Z M215.168,170.892 L215.168,171.219 L215.576,171.219 L215.576,167.64 L215.139,167.64 L215.139,168.924 C215.062,168.818 214.963,168.733 214.841,168.666 C214.719,168.601 214.58,168.567 214.424,168.567 C214.211,168.567 214.018,168.623 213.845,168.735 C213.672,168.847 213.543,169.009 213.457,169.22 C213.371,169.43 213.328,169.665 213.328,169.924 C213.328,170.189 213.376,170.424 213.471,170.628 C213.567,170.833 213.7,170.992 213.874,171.106 C214.047,171.22 214.237,171.277 214.444,171.277 C214.762,171.277 215.004,171.149 215.168,170.892 L215.168,170.892 Z M213.779,169.925 C213.779,169.582 213.844,169.33 213.976,169.171 C214.107,169.011 214.27,168.932 214.465,168.932 C214.665,168.932 214.834,169.015 214.97,169.181 C215.106,169.347 215.175,169.607 215.175,169.962 C215.175,170.284 215.108,170.524 214.973,170.681 C214.839,170.838 214.676,170.916 214.484,170.916 C214.294,170.916 214.129,170.834 213.988,170.669 C213.847,170.504 213.779,170.257 213.779,169.925 L213.779,169.925 Z M216.052,180.738 C215.883,180.624 215.687,180.567 215.466,180.567 C215.297,180.567 215.153,180.6 215.034,180.666 C214.915,180.732 214.808,180.831 214.714,180.963 L214.714,180.626 L214.314,180.626 L214.314,184.212 L214.753,184.212 L214.753,182.95 C214.828,183.044 214.923,183.122 215.04,183.184 C215.157,183.246 215.288,183.277 215.435,183.277 C215.635,183.277 215.826,183.22 216.007,183.107 C216.189,182.994 216.327,182.832 216.422,182.619 C216.518,182.407 216.565,182.168 216.565,181.903 C216.565,181.655 216.522,181.428 216.436,181.221 C216.349,181.013 216.222,180.852 216.052,180.738 L216.052,180.738 Z M215.907,182.668 C215.767,182.834 215.6,182.916 215.405,182.916 C215.213,182.916 215.05,182.836 214.914,182.677 C214.778,182.518 214.711,182.271 214.711,181.937 C214.711,181.603 214.783,181.349 214.927,181.174 C215.073,180.999 215.237,180.912 215.424,180.912 C215.613,180.912 215.775,180.994 215.911,181.159 C216.047,181.324 216.115,181.571 216.115,181.901 C216.116,182.247 216.046,182.503 215.907,182.668 L215.907,182.668 Z M245.662,171.277 C245.888,171.277 246.097,171.224 246.288,171.118 C246.479,171.012 246.625,170.864 246.726,170.672 C246.826,170.481 246.876,170.218 246.876,169.885 C246.876,169.473 246.763,169.151 246.537,168.917 C246.311,168.683 246.019,168.566 245.663,168.566 C245.342,168.566 245.071,168.662 244.848,168.854 C244.581,169.085 244.448,169.441 244.448,169.921 C244.448,170.359 244.56,170.694 244.784,170.927 C245.005,171.161 245.299,171.277 245.662,171.277 L245.662,171.277 Z M245.115,169.178 C245.26,169.013 245.442,168.931 245.662,168.931 C245.878,168.931 246.059,169.014 246.205,169.179 C246.351,169.345 246.424,169.587 246.424,169.908 C246.424,170.248 246.352,170.501 246.207,170.667 C246.062,170.833 245.881,170.916 245.663,170.916 C245.443,170.916 245.261,170.833 245.116,170.668 C244.971,170.503 244.899,170.254 244.899,169.922 C244.899,169.59 244.97,169.342 245.115,169.178 L245.115,169.178 Z M243.94,167.64 L243.501,167.64 L243.501,168.145 L243.94,168.145 L243.94,167.64 L243.94,167.64 Z M239.908,175.861 C239.908,175.675 239.932,175.505 239.981,175.348 C240.014,175.245 240.068,175.165 240.145,175.108 C240.222,175.05 240.308,175.021 240.404,175.021 C240.511,175.021 240.619,175.053 240.726,175.116 L240.877,174.708 C240.724,174.614 240.573,174.566 240.425,174.566 C240.322,174.566 240.228,174.595 240.143,174.654 C240.057,174.713 239.964,174.834 239.863,175.018 L239.863,174.625 L239.467,174.625 L239.467,177.218 L239.906,177.218 L239.906,175.861 L239.908,175.861 L239.908,175.861 Z M222.763,171.044 C223.004,171.201 223.318,171.28 223.704,171.28 C224.077,171.28 224.392,171.177 224.65,170.974 C224.908,170.769 225.087,170.473 225.186,170.084 L224.712,169.964 C224.647,170.265 224.523,170.492 224.338,170.645 C224.153,170.798 223.929,170.874 223.664,170.874 C223.446,170.874 223.243,170.818 223.056,170.706 C222.869,170.594 222.731,170.424 222.642,170.197 C222.554,169.968 222.509,169.704 222.509,169.4 C222.509,169.164 222.547,168.935 222.621,168.713 C222.696,168.49 222.826,168.314 223.011,168.182 C223.196,168.05 223.426,167.984 223.7,167.984 C223.939,167.984 224.138,168.044 224.296,168.162 C224.454,168.28 224.574,168.471 224.657,168.731 L225.123,168.621 C225.027,168.29 224.857,168.034 224.613,167.852 C224.369,167.67 224.068,167.579 223.71,167.579 C223.394,167.579 223.105,167.651 222.842,167.795 C222.579,167.939 222.377,168.149 222.235,168.427 C222.092,168.705 222.021,169.031 222.021,169.403 C222.021,169.745 222.084,170.065 222.21,170.362 C222.337,170.66 222.521,170.887 222.763,171.044 L222.763,171.044 Z M226.765,171.277 C226.991,171.277 227.2,171.224 227.391,171.118 C227.582,171.012 227.728,170.864 227.829,170.672 C227.929,170.481 227.979,170.218 227.979,169.885 C227.979,169.473 227.866,169.151 227.64,168.917 C227.414,168.683 227.122,168.566 226.766,168.566 C226.445,168.566 226.174,168.662 225.951,168.854 C225.684,169.085 225.551,169.441 225.551,169.921 C225.551,170.359 225.663,170.694 225.887,170.927 C226.109,171.161 226.402,171.277 226.765,171.277 L226.765,171.277 Z M226.218,169.178 C226.363,169.013 226.545,168.931 226.765,168.931 C226.981,168.931 227.162,169.014 227.308,169.179 C227.454,169.345 227.527,169.587 227.527,169.908 C227.527,170.248 227.455,170.501 227.31,170.667 C227.165,170.833 226.984,170.916 226.766,170.916 C226.546,170.916 226.364,170.833 226.219,170.668 C226.074,170.503 226.002,170.254 226.002,169.922 C226.002,169.59 226.073,169.342 226.218,169.178 L226.218,169.178 Z M209.5,169.705 C209.5,170.154 209.426,170.458 209.278,170.616 C209.13,170.774 208.882,170.853 208.533,170.853 C208.329,170.853 208.158,170.813 208.016,170.733 C207.875,170.653 207.776,170.54 207.718,170.393 C207.66,170.246 207.632,170.017 207.632,169.705 L207.632,167.64 L207.158,167.64 L207.158,169.708 C207.158,170.087 207.203,170.386 207.295,170.605 C207.386,170.824 207.538,170.991 207.752,171.107 C207.966,171.223 208.239,171.28 208.575,171.28 C208.92,171.28 209.199,171.214 209.411,171.081 C209.623,170.948 209.77,170.776 209.851,170.564 C209.932,170.352 209.973,170.067 209.973,169.707 L209.973,167.639 L209.5,167.639 L209.5,169.705 L209.5,169.705 Z M235.598,169.861 C235.598,169.675 235.622,169.505 235.671,169.348 C235.704,169.245 235.758,169.165 235.835,169.108 C235.912,169.05 235.998,169.021 236.094,169.021 C236.201,169.021 236.309,169.053 236.416,169.116 L236.567,168.708 C236.414,168.614 236.263,168.566 236.115,168.566 C236.012,168.566 235.918,168.595 235.833,168.654 C235.747,168.713 235.654,168.834 235.553,169.018 L235.553,168.625 L235.157,168.625 L235.157,171.218 L235.596,171.218 L235.596,169.861 L235.598,169.861 L235.598,169.861 Z M233.855,170.459 C233.855,170.723 233.873,170.896 233.909,170.978 C233.945,171.06 234.007,171.126 234.095,171.177 C234.183,171.228 234.306,171.253 234.466,171.253 C234.564,171.253 234.674,171.24 234.798,171.214 L234.735,170.826 C234.655,170.837 234.591,170.843 234.542,170.843 C234.477,170.843 234.427,170.832 234.392,170.811 C234.357,170.79 234.331,170.761 234.316,170.726 C234.301,170.69 234.293,170.61 234.293,170.484 L234.293,168.968 L234.735,168.968 L234.735,168.626 L234.293,168.626 L234.293,167.72 L233.856,167.984 L233.856,168.626 L233.534,168.626 L233.534,168.968 L233.856,168.968 L233.855,170.459 L233.855,170.459 Z M232.205,170.916 C232.005,170.916 231.849,170.87 231.737,170.777 C231.626,170.684 231.558,170.551 231.533,170.377 L231.098,170.445 C231.147,170.72 231.26,170.927 231.436,171.068 C231.612,171.208 231.869,171.278 232.206,171.278 C232.41,171.278 232.592,171.243 232.753,171.172 C232.914,171.102 233.038,171.001 233.123,170.872 C233.209,170.742 233.251,170.604 233.251,170.458 C233.251,170.308 233.216,170.183 233.146,170.082 C233.076,169.981 232.979,169.904 232.857,169.852 C232.734,169.799 232.517,169.731 232.206,169.648 C231.991,169.589 231.862,169.552 231.818,169.536 C231.741,169.505 231.685,169.466 231.65,169.419 C231.614,169.374 231.596,169.322 231.596,169.265 C231.596,169.176 231.639,169.098 231.725,169.031 C231.811,168.964 231.955,168.931 232.157,168.931 C232.328,168.931 232.46,168.969 232.554,169.043 C232.647,169.118 232.704,169.222 232.723,169.355 L233.153,169.296 C233.125,169.129 233.075,168.994 233.002,168.895 C232.929,168.794 232.815,168.715 232.662,168.657 C232.508,168.598 232.329,168.569 232.126,168.569 C231.991,168.569 231.864,168.587 231.746,168.622 C231.628,168.657 231.535,168.7 231.467,168.75 C231.376,168.815 231.304,168.897 231.251,168.995 C231.198,169.094 231.171,169.201 231.171,169.316 C231.171,169.443 231.203,169.559 231.267,169.664 C231.331,169.769 231.426,169.852 231.55,169.911 C231.675,169.97 231.898,170.04 232.22,170.122 C232.459,170.182 232.609,170.232 232.669,170.271 C232.755,170.328 232.798,170.406 232.798,170.505 C232.798,170.616 232.749,170.712 232.652,170.795 C232.556,170.875 232.406,170.916 232.205,170.916 L232.205,170.916 Z M233.482,174.968 L233.482,174.626 L233.04,174.626 L233.04,173.72 L232.603,173.984 L232.603,174.626 L232.281,174.626 L232.281,174.968 L232.603,174.968 L232.603,176.46 C232.603,176.724 232.621,176.897 232.657,176.979 C232.693,177.061 232.755,177.127 232.843,177.178 C232.931,177.229 233.054,177.254 233.214,177.254 C233.312,177.254 233.422,177.241 233.546,177.215 L233.483,176.827 C233.403,176.838 233.339,176.844 233.29,176.844 C233.225,176.844 233.175,176.833 233.14,176.812 C233.105,176.791 233.079,176.762 233.064,176.727 C233.049,176.691 233.041,176.611 233.041,176.485 L233.041,174.969 L233.482,174.968 L233.482,174.968 Z M211.145,169.803 C211.145,169.471 211.213,169.245 211.349,169.127 C211.485,169.008 211.647,168.949 211.834,168.949 C211.951,168.949 212.053,168.975 212.14,169.028 C212.227,169.081 212.288,169.152 212.322,169.241 C212.356,169.329 212.373,169.463 212.373,169.642 L212.373,171.219 L212.812,171.219 L212.812,169.625 C212.812,169.421 212.804,169.279 212.788,169.198 C212.762,169.073 212.716,168.965 212.651,168.873 C212.586,168.781 212.488,168.708 212.357,168.652 C212.226,168.596 212.082,168.568 211.926,168.568 C211.566,168.568 211.291,168.711 211.101,168.995 L211.101,168.626 L210.705,168.626 L210.705,171.219 L211.144,171.219 L211.145,169.803 L211.145,169.803 Z M219.482,169.861 C219.482,169.675 219.506,169.505 219.555,169.348 C219.588,169.245 219.642,169.165 219.719,169.108 C219.796,169.05 219.882,169.021 219.978,169.021 C220.085,169.021 220.193,169.053 220.3,169.116 L220.451,168.708 C220.298,168.614 220.147,168.566 219.999,168.566 C219.896,168.566 219.802,168.595 219.717,168.654 C219.631,168.713 219.538,168.834 219.437,169.018 L219.437,168.625 L219.041,168.625 L219.041,171.218 L219.48,171.218 L219.48,169.861 L219.482,169.861 L219.482,169.861 Z M208.924,174.104 C208.74,174.269 208.525,174.408 208.279,174.524 L208.279,174.949 C208.416,174.899 208.57,174.823 208.741,174.722 C208.913,174.621 209.052,174.52 209.158,174.419 L209.158,177.219 L209.597,177.219 L209.597,173.625 L209.314,173.625 C209.238,173.78 209.108,173.939 208.924,174.104 L208.924,174.104 Z M217.356,171.277 C217.657,171.277 217.904,171.204 218.098,171.057 C218.292,170.91 218.424,170.704 218.496,170.439 L218.042,170.383 C217.975,170.569 217.885,170.704 217.771,170.788 C217.657,170.872 217.52,170.915 217.358,170.915 C217.142,170.915 216.961,170.839 216.816,170.688 C216.671,170.537 216.59,170.318 216.574,170.034 L218.508,170.034 C218.509,169.982 218.51,169.943 218.51,169.917 C218.51,169.489 218.4,169.157 218.18,168.921 C217.96,168.685 217.677,168.567 217.33,168.567 C216.972,168.567 216.681,168.688 216.456,168.928 C216.231,169.168 216.119,169.508 216.119,169.944 C216.119,170.365 216.23,170.693 216.452,170.926 C216.676,171.161 216.977,171.277 217.356,171.277 L217.356,171.277 Z M216.827,169.131 C216.965,168.996 217.135,168.928 217.336,168.928 C217.559,168.928 217.74,169.012 217.88,169.182 C217.971,169.291 218.026,169.454 218.046,169.673 L216.598,169.673 C216.614,169.447 216.69,169.267 216.827,169.131 L216.827,169.131 Z M236.981,170.969 C237.045,171.057 237.144,171.131 237.276,171.19 C237.409,171.249 237.552,171.278 237.705,171.278 C238.052,171.278 238.326,171.132 238.528,170.839 L238.528,171.22 L238.921,171.22 L238.921,168.627 L238.482,168.627 L238.482,170.016 C238.482,170.237 238.458,170.406 238.41,170.522 C238.362,170.639 238.281,170.73 238.165,170.798 C238.049,170.865 237.926,170.899 237.794,170.899 C237.662,170.899 237.551,170.866 237.462,170.8 C237.373,170.735 237.314,170.644 237.286,170.528 C237.268,170.448 237.259,170.294 237.259,170.064 L237.259,168.626 L236.82,168.626 L236.82,170.232 C236.82,170.419 236.829,170.556 236.847,170.642 C236.872,170.771 236.917,170.88 236.981,170.969 L236.981,170.969 Z M217.123,177.219 L217.123,175.625 C217.123,175.421 217.115,175.279 217.099,175.198 C217.073,175.073 217.027,174.965 216.962,174.873 C216.897,174.781 216.799,174.708 216.668,174.652 C216.537,174.596 216.393,174.568 216.237,174.568 C215.877,174.568 215.602,174.711 215.412,174.995 L215.412,174.626 L215.016,174.626 L215.016,177.219 L215.455,177.219 L215.455,175.803 C215.455,175.471 215.523,175.245 215.659,175.127 C215.795,175.008 215.957,174.949 216.144,174.949 C216.261,174.949 216.363,174.975 216.45,175.028 C216.537,175.081 216.598,175.152 216.632,175.241 C216.666,175.329 216.683,175.463 216.683,175.642 L216.683,177.219 L217.123,177.219 L217.123,177.219 Z M243.238,176.132 L243.238,175.546 C243.238,175.351 243.231,175.215 243.216,175.141 C243.19,175.02 243.144,174.921 243.079,174.842 C243.014,174.763 242.912,174.698 242.774,174.646 C242.636,174.594 242.456,174.568 242.234,174.568 C242.011,174.568 241.815,174.598 241.646,174.66 C241.477,174.721 241.347,174.808 241.258,174.921 C241.169,175.034 241.104,175.183 241.065,175.367 L241.495,175.426 C241.542,175.242 241.615,175.114 241.713,175.042 C241.812,174.969 241.964,174.933 242.171,174.933 C242.392,174.933 242.559,174.983 242.671,175.082 C242.754,175.155 242.796,175.281 242.796,175.46 C242.796,175.476 242.795,175.515 242.794,175.575 C242.627,175.634 242.365,175.684 242.01,175.726 C241.836,175.747 241.706,175.769 241.619,175.792 C241.502,175.825 241.396,175.873 241.303,175.936 C241.21,175.999 241.134,176.083 241.076,176.189 C241.018,176.293 240.989,176.41 240.989,176.537 C240.989,176.753 241.066,176.932 241.218,177.07 C241.371,177.21 241.59,177.279 241.875,177.279 C242.047,177.279 242.209,177.251 242.36,177.194 C242.51,177.137 242.667,177.039 242.83,176.901 C242.843,177.023 242.872,177.13 242.918,177.221 L243.377,177.221 C243.322,177.122 243.285,177.018 243.266,176.909 C243.248,176.799 243.238,176.541 243.238,176.132 L243.238,176.132 Z M242.794,176.079 C242.794,176.273 242.771,176.419 242.723,176.518 C242.661,176.646 242.564,176.748 242.432,176.822 C242.3,176.896 242.15,176.933 241.98,176.933 C241.809,176.933 241.679,176.894 241.59,176.816 C241.502,176.738 241.457,176.64 241.457,176.523 C241.457,176.446 241.478,176.377 241.518,176.315 C241.559,176.252 241.617,176.205 241.691,176.172 C241.765,176.139 241.894,176.11 242.074,176.084 C242.393,176.039 242.632,175.983 242.792,175.918 L242.792,176.079 L242.794,176.079 L242.794,176.079 Z M242.419,180.104 C242.235,180.269 242.02,180.408 241.774,180.524 L241.774,180.949 C241.911,180.899 242.065,180.823 242.236,180.722 C242.408,180.621 242.547,180.52 242.653,180.419 L242.653,183.219 L243.092,183.219 L243.092,179.625 L242.809,179.625 C242.733,179.78 242.604,179.939 242.419,180.104 L242.419,180.104 Z M243.94,168.626 L243.501,168.626 L243.501,171.219 L243.94,171.219 L243.94,168.626 L243.94,168.626 Z M240.688,180.075 C240.594,179.929 240.474,179.818 240.329,179.741 C240.184,179.663 240.016,179.625 239.824,179.625 C239.564,179.625 239.347,179.695 239.176,179.835 C239.004,179.975 238.875,180.174 238.787,180.432 C238.7,180.69 238.657,181.031 238.657,181.454 C238.657,182.126 238.775,182.611 239.011,182.909 C239.208,183.157 239.479,183.28 239.824,183.28 C240.086,183.28 240.303,183.21 240.475,183.069 C240.646,182.928 240.775,182.729 240.862,182.471 C240.948,182.213 240.991,181.874 240.991,181.454 C240.991,181.099 240.964,180.817 240.91,180.608 C240.857,180.398 240.783,180.221 240.688,180.075 L240.688,180.075 Z M240.333,182.625 C240.195,182.82 240.025,182.918 239.824,182.918 C239.623,182.918 239.452,182.821 239.315,182.626 C239.178,182.431 239.109,182.04 239.109,181.453 C239.109,180.866 239.185,180.463 239.336,180.245 C239.457,180.074 239.618,179.989 239.819,179.989 C240.024,179.989 240.195,180.086 240.333,180.28 C240.47,180.474 240.539,180.865 240.539,181.454 C240.54,182.04 240.471,182.43 240.333,182.625 L240.333,182.625 Z M244.359,175.803 C244.359,175.471 244.427,175.245 244.563,175.127 C244.699,175.008 244.861,174.949 245.048,174.949 C245.165,174.949 245.267,174.975 245.354,175.028 C245.441,175.081 245.502,175.152 245.536,175.241 C245.57,175.329 245.587,175.463 245.587,175.642 L245.587,177.219 L246.026,177.219 L246.026,175.625 C246.026,175.421 246.018,175.279 246.002,175.198 C245.976,175.073 245.93,174.965 245.865,174.873 C245.8,174.781 245.702,174.708 245.571,174.652 C245.44,174.596 245.296,174.568 245.14,174.568 C244.78,174.568 244.505,174.711 244.315,174.995 L244.315,174.626 L243.919,174.626 L243.919,177.219 L244.358,177.219 L244.359,175.803 L244.359,175.803 Z M236.04,176.907 C236.021,176.799 236.012,176.541 236.012,176.132 L236.012,175.546 C236.012,175.351 236.005,175.215 235.99,175.141 C235.964,175.02 235.918,174.921 235.853,174.842 C235.788,174.763 235.686,174.698 235.548,174.646 C235.41,174.594 235.23,174.568 235.008,174.568 C234.785,174.568 234.589,174.598 234.42,174.66 C234.251,174.721 234.121,174.808 234.032,174.921 C233.943,175.034 233.878,175.183 233.839,175.367 L234.269,175.426 C234.316,175.242 234.389,175.114 234.487,175.042 C234.586,174.969 234.738,174.933 234.945,174.933 C235.166,174.933 235.333,174.983 235.445,175.082 C235.528,175.155 235.57,175.281 235.57,175.46 C235.57,175.476 235.569,175.515 235.568,175.575 C235.401,175.634 235.139,175.684 234.784,175.726 C234.61,175.747 234.48,175.769 234.393,175.792 C234.276,175.825 234.17,175.873 234.077,175.936 C233.984,175.999 233.908,176.083 233.85,176.189 C233.792,176.293 233.763,176.41 233.763,176.537 C233.763,176.753 233.84,176.932 233.992,177.07 C234.145,177.21 234.364,177.279 234.649,177.279 C234.821,177.279 234.983,177.251 235.134,177.194 C235.284,177.137 235.441,177.039 235.604,176.901 C235.617,177.023 235.646,177.13 235.692,177.221 L236.151,177.221 C236.096,177.12 236.059,177.016 236.04,176.907 L236.04,176.907 Z M235.567,176.079 C235.567,176.273 235.544,176.419 235.496,176.518 C235.434,176.646 235.337,176.748 235.205,176.822 C235.073,176.896 234.923,176.933 234.753,176.933 C234.582,176.933 234.452,176.894 234.363,176.816 C234.275,176.738 234.23,176.64 234.23,176.523 C234.23,176.446 234.251,176.377 234.291,176.315 C234.332,176.252 234.39,176.205 234.464,176.172 C234.538,176.139 234.667,176.11 234.847,176.084 C235.166,176.039 235.405,175.983 235.565,175.918 L235.565,176.079 L235.567,176.079 L235.567,176.079 Z M238.785,177.219 L238.785,174.626 L238.346,174.626 L238.346,176.015 C238.346,176.236 238.322,176.405 238.274,176.521 C238.226,176.638 238.145,176.729 238.029,176.797 C237.913,176.864 237.79,176.898 237.658,176.898 C237.526,176.898 237.415,176.865 237.326,176.799 C237.237,176.734 237.178,176.643 237.15,176.527 C237.132,176.447 237.123,176.293 237.123,176.063 L237.123,174.625 L236.684,174.625 L236.684,176.231 C236.684,176.418 236.693,176.555 236.711,176.641 C236.737,176.769 236.782,176.878 236.847,176.967 C236.911,177.055 237.01,177.129 237.142,177.188 C237.275,177.247 237.418,177.276 237.571,177.276 C237.918,177.276 238.192,177.13 238.394,176.837 L238.394,177.218 L238.785,177.219 L238.785,177.219 Z M236.616,182.559 C236.691,182.48 236.86,182.33 237.124,182.108 C237.44,181.841 237.666,181.631 237.802,181.478 C237.938,181.325 238.035,181.179 238.094,181.041 C238.153,180.903 238.182,180.762 238.182,180.619 C238.182,180.337 238.082,180.101 237.882,179.911 C237.682,179.721 237.41,179.625 237.067,179.625 C236.727,179.625 236.456,179.713 236.254,179.89 C236.052,180.067 235.936,180.324 235.905,180.661 L236.357,180.707 C236.358,180.482 236.423,180.307 236.55,180.18 C236.677,180.053 236.846,179.99 237.058,179.99 C237.258,179.99 237.42,180.05 237.545,180.169 C237.669,180.289 237.732,180.436 237.732,180.61 C237.732,180.776 237.664,180.952 237.527,181.139 C237.39,181.325 237.128,181.578 236.738,181.897 C236.488,182.102 236.296,182.283 236.163,182.439 C236.03,182.595 235.934,182.754 235.873,182.915 C235.835,183.013 235.818,183.114 235.822,183.22 L238.188,183.22 L238.188,182.798 L236.433,182.798 C236.479,182.717 236.542,182.637 236.616,182.559 L236.616,182.559 Z M250.293,171.219 L250.793,171.219 L250.793,170.719 L250.293,170.719 L250.293,171.219 L250.293,171.219 Z M249.673,175.851 C249.55,175.798 249.333,175.73 249.022,175.647 C248.807,175.588 248.678,175.551 248.634,175.535 C248.557,175.504 248.501,175.465 248.466,175.418 C248.43,175.373 248.412,175.321 248.412,175.264 C248.412,175.175 248.455,175.097 248.541,175.03 C248.627,174.963 248.771,174.93 248.973,174.93 C249.144,174.93 249.276,174.968 249.37,175.042 C249.463,175.117 249.52,175.221 249.539,175.354 L249.969,175.295 C249.941,175.128 249.891,174.993 249.818,174.894 C249.745,174.793 249.631,174.714 249.478,174.656 C249.324,174.597 249.145,174.568 248.942,174.568 C248.807,174.568 248.68,174.586 248.562,174.621 C248.444,174.656 248.351,174.699 248.283,174.749 C248.192,174.814 248.12,174.896 248.067,174.994 C248.014,175.093 247.987,175.2 247.987,175.315 C247.987,175.442 248.019,175.558 248.083,175.663 C248.147,175.768 248.242,175.851 248.366,175.91 C248.491,175.969 248.714,176.039 249.036,176.121 C249.275,176.181 249.425,176.231 249.485,176.27 C249.571,176.327 249.614,176.405 249.614,176.504 C249.614,176.615 249.565,176.711 249.468,176.794 C249.37,176.876 249.22,176.917 249.019,176.917 C248.819,176.917 248.663,176.871 248.551,176.778 C248.44,176.685 248.372,176.552 248.347,176.378 L247.912,176.446 C247.961,176.721 248.074,176.928 248.25,177.069 C248.426,177.209 248.683,177.279 249.02,177.279 C249.224,177.279 249.406,177.244 249.567,177.173 C249.728,177.103 249.852,177.002 249.937,176.873 C250.023,176.743 250.065,176.605 250.065,176.459 C250.065,176.309 250.03,176.184 249.96,176.083 C249.89,175.982 249.795,175.903 249.673,175.851 L249.673,175.851 Z M245.479,180.846 C245.243,180.846 245.018,180.921 244.803,181.071 L244.996,180.109 L246.424,180.109 L246.424,179.689 L244.644,179.689 L244.297,181.527 L244.71,181.581 C244.775,181.478 244.865,181.395 244.979,181.331 C245.093,181.267 245.221,181.235 245.362,181.235 C245.59,181.235 245.774,181.307 245.915,181.452 C246.056,181.597 246.126,181.795 246.126,182.045 C246.126,182.309 246.053,182.52 245.906,182.68 C245.759,182.84 245.58,182.919 245.369,182.919 C245.193,182.919 245.043,182.862 244.919,182.75 C244.794,182.637 244.715,182.468 244.681,182.243 L244.22,182.282 C244.249,182.583 244.367,182.825 244.573,183.007 C244.779,183.189 245.044,183.28 245.37,183.28 C245.767,183.28 246.08,183.135 246.31,182.845 C246.499,182.609 246.593,182.329 246.593,182.005 C246.593,181.665 246.486,181.386 246.271,181.17 C246.056,180.954 245.791,180.846 245.479,180.846 L245.479,180.846 Z M218.159,180.567 C217.801,180.567 217.51,180.688 217.285,180.928 C217.06,181.168 216.948,181.508 216.948,181.944 C216.948,182.365 217.059,182.693 217.281,182.926 C217.503,183.16 217.802,183.277 218.183,183.277 C218.484,183.277 218.731,183.204 218.925,183.057 C219.119,182.91 219.251,182.704 219.323,182.439 L218.869,182.383 C218.802,182.569 218.712,182.704 218.598,182.788 C218.484,182.872 218.347,182.915 218.185,182.915 C217.969,182.915 217.788,182.839 217.643,182.688 C217.498,182.537 217.417,182.318 217.401,182.034 L219.335,182.034 C219.336,181.982 219.337,181.943 219.337,181.917 C219.337,181.489 219.227,181.157 219.007,180.921 C218.787,180.685 218.506,180.567 218.159,180.567 L218.159,180.567 Z M217.427,181.673 C217.442,181.447 217.518,181.266 217.655,181.131 C217.793,180.996 217.963,180.928 218.164,180.928 C218.387,180.928 218.568,181.012 218.708,181.182 C218.799,181.291 218.854,181.454 218.874,181.673 L217.427,181.673 L217.427,181.673 Z M247.467,176.843 C247.402,176.843 247.352,176.832 247.317,176.811 C247.282,176.79 247.256,176.761 247.241,176.726 C247.226,176.69 247.218,176.61 247.218,176.484 L247.218,174.968 L247.66,174.968 L247.66,174.626 L247.218,174.626 L247.218,173.72 L246.781,173.984 L246.781,174.626 L246.459,174.626 L246.459,174.968 L246.781,174.968 L246.781,176.46 C246.781,176.724 246.799,176.897 246.835,176.979 C246.871,177.061 246.933,177.127 247.021,177.178 C247.109,177.229 247.232,177.254 247.392,177.254 C247.49,177.254 247.6,177.241 247.724,177.215 L247.661,176.827 C247.58,176.837 247.516,176.843 247.467,176.843 L247.467,176.843 Z M248.518,168.948 C248.635,168.948 248.737,168.974 248.824,169.027 C248.911,169.08 248.972,169.151 249.006,169.24 C249.04,169.328 249.057,169.462 249.057,169.641 L249.057,171.218 L249.496,171.218 L249.496,169.624 C249.496,169.42 249.488,169.278 249.472,169.197 C249.446,169.072 249.4,168.964 249.335,168.872 C249.27,168.78 249.172,168.707 249.041,168.651 C248.91,168.595 248.766,168.567 248.61,168.567 C248.25,168.567 247.975,168.71 247.785,168.994 L247.785,168.625 L247.389,168.625 L247.389,171.218 L247.828,171.218 L247.828,169.802 C247.828,169.47 247.896,169.244 248.032,169.126 C248.169,169.008 248.331,168.948 248.518,168.948 L248.518,168.948 Z M250.293,168.626 L250.293,169.126 L250.793,169.126 L250.793,168.626 L250.293,168.626 L250.293,168.626 Z M222.659,183.219 L223.098,183.219 L223.098,180.626 L222.659,180.626 L222.659,183.219 L222.659,183.219 Z M222.659,180.145 L223.098,180.145 L223.098,179.64 L222.659,179.64 L222.659,180.145 L222.659,180.145 Z M225.713,180.873 C225.648,180.782 225.55,180.708 225.419,180.652 C225.288,180.596 225.144,180.568 224.988,180.568 C224.628,180.568 224.353,180.711 224.163,180.995 L224.163,180.626 L223.767,180.626 L223.767,183.219 L224.206,183.219 L224.206,181.803 C224.206,181.471 224.274,181.245 224.41,181.127 C224.546,181.008 224.708,180.949 224.895,180.949 C225.012,180.949 225.114,180.975 225.201,181.028 C225.288,181.081 225.349,181.152 225.383,181.241 C225.417,181.329 225.434,181.463 225.434,181.642 L225.434,183.219 L225.873,183.219 L225.873,181.625 C225.873,181.421 225.865,181.279 225.849,181.198 C225.824,181.072 225.778,180.964 225.713,180.873 L225.713,180.873 Z M223.819,174.626 L223.392,174.626 L222.948,176.125 L222.799,176.625 L222.67,176.129 L222.282,174.625 L221.83,174.625 L221.417,176.144 C221.334,176.473 221.289,176.651 221.283,176.679 L221.129,176.122 L220.716,174.625 L220.262,174.625 L221.055,177.218 L221.514,177.218 L222.039,175.223 L222.139,175.665 L222.552,177.218 L223.009,177.218 L223.819,174.626 L223.819,174.626 Z M219.571,176.384 C219.504,176.57 219.414,176.705 219.3,176.789 C219.186,176.873 219.049,176.916 218.887,176.916 C218.671,176.916 218.49,176.84 218.345,176.689 C218.2,176.538 218.119,176.319 218.103,176.035 L220.037,176.035 C220.038,175.983 220.039,175.944 220.039,175.918 C220.039,175.49 219.929,175.158 219.709,174.922 C219.489,174.686 219.206,174.568 218.859,174.568 C218.501,174.568 218.21,174.689 217.985,174.929 C217.76,175.169 217.648,175.509 217.648,175.945 C217.648,176.366 217.759,176.694 217.981,176.927 C218.203,177.161 218.503,177.278 218.883,177.278 C219.184,177.278 219.431,177.205 219.625,177.058 C219.819,176.911 219.951,176.705 220.023,176.44 L219.571,176.384 L219.571,176.384 Z M218.356,175.131 C218.494,174.996 218.664,174.928 218.865,174.928 C219.088,174.928 219.269,175.012 219.409,175.182 C219.5,175.291 219.555,175.454 219.575,175.673 L218.127,175.673 C218.143,175.447 218.219,175.267 218.356,175.131 L218.356,175.131 Z M221.821,180.873 C221.756,180.782 221.658,180.708 221.527,180.652 C221.396,180.596 221.252,180.568 221.096,180.568 C220.736,180.568 220.461,180.711 220.271,180.995 L220.271,180.626 L219.875,180.626 L219.875,183.219 L220.314,183.219 L220.314,181.803 C220.314,181.471 220.382,181.245 220.518,181.127 C220.654,181.008 220.816,180.949 221.003,180.949 C221.12,180.949 221.222,180.975 221.309,181.028 C221.396,181.081 221.457,181.152 221.491,181.241 C221.525,181.329 221.542,181.463 221.542,181.642 L221.542,183.219 L221.981,183.219 L221.981,181.625 C221.981,181.421 221.973,181.279 221.957,181.198 C221.932,181.072 221.886,180.964 221.821,180.873 L221.821,180.873 Z M226.83,175.117 L226.981,174.709 C226.828,174.615 226.677,174.567 226.529,174.567 C226.426,174.567 226.332,174.596 226.247,174.655 C226.161,174.714 226.068,174.835 225.967,175.019 L225.967,174.626 L225.571,174.626 L225.571,177.219 L226.01,177.219 L226.01,175.862 C226.01,175.676 226.034,175.506 226.083,175.349 C226.116,175.246 226.17,175.166 226.247,175.109 C226.324,175.051 226.41,175.022 226.506,175.022 C226.615,175.021 226.722,175.053 226.83,175.117 L226.83,175.117 Z M232,176.457 C232,176.307 231.965,176.182 231.895,176.081 C231.825,175.98 231.728,175.903 231.606,175.851 C231.483,175.798 231.266,175.73 230.955,175.647 C230.74,175.588 230.611,175.551 230.567,175.535 C230.49,175.504 230.434,175.465 230.399,175.418 C230.363,175.373 230.345,175.321 230.345,175.264 C230.345,175.175 230.388,175.097 230.474,175.03 C230.56,174.963 230.704,174.93 230.906,174.93 C231.077,174.93 231.209,174.968 231.303,175.042 C231.396,175.117 231.453,175.221 231.472,175.354 L231.902,175.295 C231.874,175.128 231.824,174.993 231.751,174.894 C231.678,174.793 231.564,174.714 231.411,174.656 C231.257,174.597 231.078,174.568 230.875,174.568 C230.74,174.568 230.613,174.586 230.495,174.621 C230.377,174.656 230.284,174.699 230.216,174.749 C230.125,174.814 230.053,174.896 230,174.994 C229.947,175.093 229.92,175.2 229.92,175.315 C229.92,175.442 229.952,175.558 230.016,175.663 C230.08,175.768 230.175,175.851 230.299,175.91 C230.424,175.969 230.647,176.039 230.969,176.121 C231.208,176.181 231.358,176.231 231.418,176.27 C231.504,176.327 231.547,176.405 231.547,176.504 C231.547,176.615 231.498,176.711 231.401,176.794 C231.303,176.876 231.153,176.917 230.952,176.917 C230.752,176.917 230.596,176.871 230.484,176.778 C230.373,176.685 230.305,176.552 230.28,176.378 L229.845,176.446 C229.894,176.721 230.007,176.928 230.183,177.069 C230.359,177.209 230.616,177.279 230.953,177.279 C231.157,177.279 231.339,177.244 231.5,177.173 C231.661,177.103 231.785,177.002 231.87,176.873 C231.958,176.741 232,176.604 232,176.457 L232,176.457 Z M228.259,180.938 C228.06,180.69 227.808,180.567 227.502,180.567 C227.273,180.567 227.073,180.624 226.902,180.738 C226.732,180.852 226.602,181.013 226.513,181.222 C226.424,181.431 226.379,181.66 226.379,181.907 C226.379,182.267 226.477,182.575 226.672,182.832 C226.867,183.089 227.143,183.218 227.5,183.218 C227.787,183.218 228.026,183.105 228.218,182.879 C228.219,183.166 228.209,183.354 228.186,183.443 C228.147,183.589 228.072,183.703 227.961,183.785 C227.85,183.867 227.693,183.907 227.49,183.907 C227.301,183.907 227.152,183.866 227.043,183.785 C226.961,183.725 226.912,183.629 226.894,183.497 L226.467,183.434 C226.461,183.714 226.552,183.923 226.743,184.063 C226.933,184.202 227.183,184.271 227.493,184.271 C227.753,184.271 227.972,184.222 228.151,184.125 C228.329,184.027 228.459,183.894 228.542,183.726 C228.624,183.557 228.665,183.271 228.665,182.868 L228.665,180.627 L228.26,180.627 L228.259,180.938 L228.259,180.938 Z M228.049,182.622 C227.912,182.777 227.743,182.855 227.541,182.855 C227.337,182.855 227.168,182.777 227.033,182.621 C226.898,182.465 226.83,182.217 226.83,181.876 C226.83,181.564 226.898,181.328 227.035,181.169 C227.172,181.011 227.338,180.931 227.533,180.931 C227.732,180.931 227.901,181.012 228.042,181.173 C228.183,181.334 228.253,181.573 228.253,181.891 C228.254,182.223 228.186,182.466 228.049,182.622 L228.049,182.622 Z M230.72,183.219 L231.159,183.219 L231.159,180.626 L230.72,180.626 L230.72,183.219 L230.72,183.219 Z M233.774,180.873 C233.709,180.782 233.611,180.708 233.48,180.652 C233.349,180.596 233.205,180.568 233.049,180.568 C232.689,180.568 232.414,180.711 232.224,180.995 L232.224,180.626 L231.828,180.626 L231.828,183.219 L232.267,183.219 L232.267,181.803 C232.267,181.471 232.335,181.245 232.471,181.127 C232.607,181.008 232.769,180.949 232.956,180.949 C233.073,180.949 233.175,180.975 233.262,181.028 C233.349,181.081 233.41,181.152 233.444,181.241 C233.478,181.329 233.495,181.463 233.495,181.642 L233.495,183.219 L233.934,183.219 L233.934,181.625 C233.934,181.421 233.926,181.279 233.91,181.198 C233.885,181.072 233.839,180.964 233.774,180.873 L233.774,180.873 Z M230.72,180.145 L231.159,180.145 L231.159,179.64 L230.72,179.64 L230.72,180.145 L230.72,180.145 Z M230.11,169.24 C230.144,169.328 230.161,169.462 230.161,169.641 L230.161,171.218 L230.6,171.218 L230.6,169.624 C230.6,169.42 230.592,169.278 230.576,169.197 C230.55,169.072 230.504,168.964 230.439,168.872 C230.374,168.78 230.276,168.707 230.145,168.651 C230.014,168.595 229.87,168.567 229.714,168.567 C229.354,168.567 229.079,168.71 228.889,168.994 L228.889,168.625 L228.493,168.625 L228.493,171.218 L228.932,171.218 L228.932,169.802 C228.932,169.47 229,169.244 229.136,169.126 C229.272,169.007 229.434,168.948 229.621,168.948 C229.738,168.948 229.84,168.974 229.927,169.027 C230.015,169.081 230.076,169.151 230.11,169.24 L230.11,169.24 Z M228.307,174.567 C227.949,174.567 227.658,174.688 227.433,174.928 C227.208,175.168 227.096,175.508 227.096,175.944 C227.096,176.365 227.207,176.693 227.429,176.926 C227.651,177.16 227.951,177.277 228.331,177.277 C228.632,177.277 228.879,177.204 229.073,177.057 C229.267,176.91 229.399,176.704 229.471,176.439 L229.017,176.383 C228.95,176.569 228.86,176.704 228.746,176.788 C228.632,176.872 228.495,176.915 228.333,176.915 C228.117,176.915 227.936,176.839 227.791,176.688 C227.646,176.537 227.565,176.318 227.549,176.034 L229.483,176.034 C229.484,175.982 229.485,175.943 229.485,175.917 C229.485,175.489 229.375,175.157 229.155,174.921 C228.935,174.685 228.653,174.567 228.307,174.567 L228.307,174.567 Z M227.574,175.673 C227.589,175.447 227.665,175.266 227.802,175.131 C227.94,174.996 228.11,174.928 228.311,174.928 C228.534,174.928 228.715,175.012 228.855,175.182 C228.946,175.291 229.001,175.454 229.021,175.673 L227.574,175.673 L227.574,175.673 Z M227.574,175.673" class="Shape"/>
                    <path d="M431.688,59.638 L428.998,56.438 L421,54.449 L410.155,55.777 L407.152,54.996 L405.827,55.93 L405.868,54.684 L398.143,52.77 L386.127,54.762 L385.975,54.801 L348.835,61.354 L343.101,65.53 L301.558,71.538 L279.015,87.614 L279.015,89.486 L277.063,89.018 L233.139,120.388 L232.948,120.507 L217.811,131.313 L217.811,132.6 L216.481,132.291 L207.591,138.65 L207.393,138.766 L194.833,147.741 L194.639,147.858 L194.627,151.26 L194.708,151.188 L219.138,157.38 L228.407,150.531 L228.415,150.533 L231.001,148.625 L230.921,144.463 L223.505,142.59 L224.051,142.2 L234.039,144.697 L238.681,141.383 L238.72,140.054 L241.135,140.677 L273.201,117.775 L273.201,114.224 L265.985,112.428 L266.452,112.08 L277.336,114.808 L287.009,107.904 L287.051,104.352 L277.336,101.933 L278.04,101.465 L291.377,104.783 L300.351,98.383 L300.39,96.472 L313.769,99.827 L308.935,103.26 L308.935,106.81 L362.802,120.233 L397.48,95.457 L397.521,91.906 L392.955,90.775 L431.689,63.15 L431.689,59.638 L431.688,59.638 Z M207.043,200.374 L207.784,199.829 L207.825,196.317 L202.402,194.952 L204.193,193.662 L204.232,190.114 L199.75,182.906 L191.967,180.959 L203.177,172.76 L203.162,168.706 L201.75,168.344 L205.208,165.834 L205.195,162.099 L196.749,159.929 L200.949,156.843 L200.917,156.835 L200.873,153.21 L194.624,151.648 L194.624,151.689 L190.697,150.67 L188.243,152.423 L188.243,155.976 L190.189,158.159 L185.822,157.065 L180.714,157.808 L174.315,162.373 L174.12,162.492 L153.29,177.396 L153.096,177.511 L143.343,184.457 L143.306,188.009 L147.478,194.172 L148.376,194.055 L148.376,195.422 L148.767,195.967 L123.06,214.304 L123.06,217.817 L123.451,217.933 L123.451,220.899 L135.075,223.787 L205.991,232.798 L206.029,232.76 L206.029,232.798 L206.186,232.798 L239.03,209.388 L239.067,205.839 L215.823,202.56 L207.043,200.374 L207.043,200.374 Z M207.043,200.374" class="wall"/>
                    <path d="M381.368,32.482 L381.293,32.442 L356.756,25.379 L356.561,25.34 L304.33,9.693 L295.788,6.803 L274.725,21.827 L267.39,23.502 L249.368,36.382 L195.966,23.076 L179.544,34.821 L179.504,38.334 L179.698,38.41 L203.454,44.338 L184.497,57.878 L184.303,57.995 L177.633,62.754 L158.947,58.111 L158.909,58.111 L157.7,57.877 L157.661,57.877 L157.31,57.801 L155.827,57.645 L153.994,57.684 L152.355,58.076 C151.263,58.492 150.456,59.05 149.937,59.752 C149.547,60.274 149.3,60.898 149.195,61.626 L146.074,82.033 L146.034,82.15 L146.034,82.188 L144.747,90.813 L144.747,94.364 L167.02,99.905 L145.566,115.199 L141.823,114.261 L111.747,135.723 L111.747,139.703 L135.249,145.241 L135.3,149.162 L158.595,154.879 L163.277,151.563 L169.322,150.706 L187.616,137.674 L187.616,136.463 L218.863,114.185 L218.902,112.078 L223.507,111.884 L262.827,83.79 L262.865,80.24 L262.239,79.302 L277.962,68.105 L277.962,64.362 L268.833,64.636 L289.232,50.043 L317.319,57.024 L317.513,57.103 L332.062,60.73 L351.373,57.57 L351.373,56.087 L354.377,57.063 L368.809,54.682 L368.809,54.643 L368.888,54.682 L378.715,52.965 L378.795,52.965 L407.033,48.438 L410.892,45.67 L410.931,42.118 L381.368,32.482 L381.368,32.482 Z M381.368,32.482" class="wall"/>
                    <path d="M161.909,160.44 L161.938,155.935 L114.655,144.034 L77.976,170.268 L77.919,173.415 L64.333,170.012 L26.33,197.15 L26.33,197.228 L26.253,197.19 L26.214,200.74 L111.171,221.849 L111.251,221.849 L120.261,215.41 L120.301,213.108 L136.156,201.799 L136.187,197.295 L131.922,190.945 L122.43,188.521 L161.909,160.44 L161.909,160.44 Z M161.909,160.44" class="wall"/>
                    <path d="M217.692,118.983 L217.653,122.497 L224.01,124.096 L229.318,120.313 L229.357,116.761 L222.999,115.2 L217.692,118.983 L217.692,118.983 Z M272.067,79.029 L267.31,82.425 L267.27,85.584 L273.002,87.029 L277.762,83.634 L277.803,80.434 L272.067,79.029 L272.067,79.029 Z M246.129,99.202 L246.09,102.909 L251.746,104.43 L256.581,100.996 L256.62,97.212 L250.887,95.808 L246.129,99.202 L246.129,99.202 Z M246.129,99.202" class="wall"/>
                </g>
                <g class="ceilings">
                    <path class="unit" d="M268.922,95.182 L272.834,92.286 L277.838,93.657 L273.967,96.549 L273.927,96.549 L268.922,95.182 L268.922,95.182 Z M268.922,95.182" id="1001"/>
                    <path class="unit" d="M190.767,158.497 L182.478,164.402 L174.464,162.409 L180.799,157.874 L185.607,157.209 L190.767,158.497 L190.767,158.497 Z M190.767,158.497" id="1006"/>
                    <path class="unit" d="M199.645,160.688 L191.355,166.632 L182.832,164.482 L191.121,158.577 L199.645,160.688 L199.645,160.688 Z M199.645,160.688" id="1007"/>
                    <path class="unit" d="M205.196,162.098 L197.923,167.26 L192.723,165.972 L199.956,160.768 L205.196,162.098 L205.196,162.098 Z M205.196,162.098" id="1008"/>
                    <path class="unit" d="M174.269,162.526 L191.16,166.751 L186.778,169.879 L169.889,165.655 L174.269,162.526 L174.269,162.526 Z M174.269,162.526" id="1010"/>
                    <path class="unit" d="M187.367,179.969 L159.569,173.044 L169.694,165.811 L186.937,170.112 L192.528,166.085 L203.162,168.706 L187.367,179.969 L187.367,179.969 Z M187.367,179.969" id="1011"/>
                    <path class="unit" d="M159.373,173.166 L179.311,178.17 L173.29,182.435 L153.35,177.469 L159.373,173.166 L159.373,173.166 Z M159.373,173.166" id="1012"/>
                    <path class="unit" d="M167.076,181.061 L163.361,183.723 L162.696,183.567 L161.993,184.075 L148.739,180.752 L153.156,177.622 L167.076,181.061 L167.076,181.061 Z M167.076,181.061" id="1015"/>
                    <path class="unit" d="M155.735,182.706 L150.262,186.617 L155.188,187.831 L152.215,189.942 L147.486,190.449 L143.459,184.505 L148.542,180.906 L155.735,182.706 L155.735,182.706 Z M155.735,182.706" id="1017"/>
                    <path class="unit" d="M238.388,205.976 L205.897,229.205 L134.935,220.21 L123.675,217.394 L126.764,215.206 L123.283,214.305 L150.613,194.79 L148.619,192.053 L154.445,191.467 L159.605,187.75 L164.57,189.003 L179.662,178.247 L199.289,183.138 L203.669,190.097 L198.041,194.124 L207.15,196.394 L202.731,199.562 L215.554,202.767 L238.388,205.976 L238.388,205.976 Z M238.388,205.976" id="1018"/>
                    <path class="unit" d="M193.937,104.451 L218.256,110.513 L213.056,114.228 L188.698,108.166 L193.937,104.451 L193.937,104.451 Z M193.937,104.451" id="1019"/>
                    <path class="unit" d="M188.5,108.324 L212.856,114.384 L207.657,118.098 L183.3,112.037 L188.5,108.324 L188.5,108.324 Z M188.5,108.324" id="1020"/>
                    <path class="unit" d="M169.265,98.311 L191.003,103.708 L180.173,111.45 L207.464,118.257 L194.639,127.368 L145.65,115.168 L169.265,98.311 L169.265,98.311 Z M169.265,98.311" id="1021"/>
                    <path class="unit" d="M141.663,114.344 L194.441,127.523 L185.881,133.627 L133.099,120.447 L141.663,114.344 L141.663,114.344 Z M141.663,114.344" id="1022"/>
                    <path class="unit" d="M132.903,120.603 L186.937,134.057 L176.067,141.798 L122.072,128.344 L132.903,120.603 L132.903,120.603 Z M132.903,120.603" id="1023"/>
                    <path class="unit" d="M121.84,128.505 L115.623,132.949 L115.624,132.949 L111.908,135.579 L138.769,142.347 L135.249,145.241 L158.278,151.068 L162.813,147.783 L168.874,146.963 L169.889,146.229 L175.834,141.957 L121.84,128.505 Z M121.84,128.505" id="1024"/>
                    <path class="unit" d="M228.729,116.692 L223.805,120.213 L218.093,118.764 L223.022,115.244 L228.729,116.692 L228.729,116.692 Z M228.729,116.692" id="1027"/>
                    <path class="unit" d="M92.694,159.28 L121.125,166.43 L124.513,164.012 L143.822,168.868 L150.548,164.091 L102.722,152.064 L92.694,159.28 Z M92.694,159.28" id="1028"/>
                    <path class="unit" d="M121.199,166.622 L121.192,166.653 L121.166,166.646 L121.156,166.653 L121.148,166.642 L92.38,159.408 L88.792,161.955 L136.619,173.982 L143.607,169.02 L124.554,164.229 L121.199,166.622 Z M121.199,166.622" id="1029"/>
                    <path class="unit" d="M77.698,169.967 L125.385,181.959 L136.404,174.135 L88.578,162.107 L77.698,169.967 Z M77.698,169.967" id="1030"/>
                    <path class="unit" d="M95.889,175.809 L93.648,177.355 L89.669,180.16 L117.976,187.221 L125.171,182.112 L96.979,175.022 L95.889,175.809 Z M95.889,175.809" id="1031"/>
                    <path class="unit" d="M63.818,169.92 L93.37,177.274 L89.195,180.245 L122.208,188.502 L131.923,190.945 L136.188,197.295 L116.52,211.337 L118.904,211.924 L110.185,218.182 L25.697,197.103 L63.818,169.92 L63.818,169.92 Z M63.818,169.92" id="1032"/>
                    <path class="unit" d="M275.181,21.503 L296.017,6.641 L304.072,9.377 L284.014,23.694 L275.181,21.503 L275.181,21.503 Z M275.181,21.503" id="1033"/>
                    <path class="unit" d="M348.294,41.292 L366.826,28.072 L381.176,32.179 L368.078,41.526 L356.232,38.554 L351.342,42.033 L348.294,41.292 L348.294,41.292 Z M348.294,41.292" id="1034"/>
                    <path class="unit" d="M407.135,44.46 L390.558,47.117 L368.43,41.605 L381.487,32.26 L410.809,41.841 L407.135,44.46 L407.135,44.46 Z M407.135,44.46" id="1035"/>
                    <path class="unit" d="M369.131,50.678 L333.668,41.84 L337.854,38.866 L378.633,49.034 L369.131,50.678 L369.131,50.678 Z M369.131,50.678" id="1036"/>
                    <path class="unit" d="M317.563,53.024 L249.729,36.17 L267.714,23.304 L274.907,21.623 L284.134,23.928 L304.385,9.498 L356.621,25.142 L317.563,53.024 L317.563,53.024 Z M317.563,53.024" id="1037"/>
                    <path class="unit" d="M356.971,25.219 L366.473,27.996 L347.983,41.214 L338.051,38.713 L356.971,25.219 L356.971,25.219 Z M356.971,25.219" id="1038"/>
                    <path class="unit" d="M356.348,38.789 L390.089,47.198 L379.063,48.957 L351.695,42.114 L356.348,38.789 L356.348,38.789 Z M356.348,38.789" id="1039"/>
                    <path class="unit" d="M351.42,53.455 L332.301,56.702" id="1040"/>
                    <path class="unit" d="M332.301,56.701 L317.874,53.101 L326.082,47.235 L351.422,53.455 L332.301,56.701 L332.301,56.701 Z M332.301,56.701" id="1041"/>
                    <path class="unit" d="M327.343,46.338 L333.477,41.957 L369.054,50.718 L354.394,53.103 L327.343,46.338 L327.343,46.338 Z M327.343,46.338" id="1042"/>
                    <path class="unit" d="M405.688,54.472 L400.84,57.912 L387.197,54.547 L398.454,52.672 L405.688,54.472 L405.688,54.472 Z M405.688,54.472" id="1043"/>
                    <path class="unit" d="M395.992,61.276 L391.378,64.561 L365.692,58.147 L376.444,56.388 L395.992,61.276 L395.992,61.276 Z M395.992,61.276" id="1044"/>
                    <path class="unit" d="M386.724,54.589 L400.569,58.069 C399.137,59.112 397.688,60.143 396.227,61.159 L376.876,56.31 L386.724,54.589 L386.724,54.589 Z M386.724,54.589" id="1045"/>
                    <path class="unit" d="M424.964,64.132 L420.624,67.261 L398.258,61.669 L402.598,58.58 L424.964,64.132 L424.964,64.132 Z M424.964,64.132" id="1046"/>
                    <path class="unit" d="M429.107,56.27 L431.685,59.322 L425.161,64.016 L402.797,58.424 L407.645,54.944 L410.457,55.649 L421.367,54.359 L429.107,56.27 L429.107,56.27 Z M429.107,56.27" id="1047"/>
                    <path class="unit" d="M420.426,67.378 L415.815,70.664 L393.449,65.072 L398.065,61.826 L420.426,67.378 L420.426,67.378 Z M420.426,67.378" id="1048"/>
                    <path class="unit" d="M259.647,67.674 L193.701,51.227 L207.582,41.332 L179.899,34.411 L195.968,22.952 L288.92,45.91 L259.647,67.674 L259.647,67.674 Z M259.647,67.674" id="1049"/>
                    <path class="unit" d="M281.356,17.006 L275.181,21.503 L267.387,23.428 L249.367,36.305 L195.967,22.951 L223.728,2.303 L281.356,17.006 L281.356,17.006 Z M281.356,17.006" id="1050"/>
                    <path class="unit" d="M193.505,51.342 L269.236,70.232 L260.36,76.571 L184.627,57.679 L193.505,51.342 L193.505,51.342 Z M193.505,51.342" id="1051"/>
                    <path class="unit" d="M345.439,63.624 L349.152,60.924 L365.222,58.226 L415.617,70.818 L402.556,80.124 L367.917,71.483 L354.508,81.065 L352.084,80.478 L365.493,70.896 L343.052,65.306 L343.364,65.109" id="1052"/>
                    <path class="unit" d="M225.8,68.159 L260.284,76.723 L262.472,80.007 L257.156,83.802 L217.666,73.949 L225.8,68.159 L225.8,68.159 Z M225.8,68.159" id="1053"/>
                    <path class="unit" d="M184.433,57.835 L225.487,68.04 L217.158,73.986 L256.96,83.917 L237.412,97.88 L147.253,75.393 L149.247,61.745 C149.352,60.884 149.625,60.155 150.07,59.555 C150.513,58.903 151.283,58.355 152.377,57.912 L153.863,57.559 C155.192,57.376 157.121,57.599 159.649,58.224 L177.594,62.72 L184.433,57.835 L184.433,57.835 Z M184.433,57.835" id="1054"/>
                    <path class="unit" d="M277.292,89.042 L299.967,94.673 L291.365,100.851 L268.649,95.18 L277.292,89.042 L277.292,89.042 Z M277.292,89.042" id="1055"/>
                    <path class="unit" d="M147.213,75.59 L237.216,98.039 L230.374,102.927 L146.159,81.926 L147.213,75.59 L147.213,75.59 Z M147.213,75.59" id="1056"/>
                    <path class="unit" d="M277.292,110.865 L254.576,105.234 L263.88,98.626 L287.048,104.275 L277.292,110.865 L277.292,110.865 Z M277.292,110.865" id="1057"/>
                    <path class="unit" d="M263.88,98.625 L268.376,95.38 L277.685,97.686 L273.188,100.93 L273.459,101.01 L263.88,98.625 L263.88,98.625 Z M263.88,98.625" id="1058"/>
                    <path class="unit" d="M266.188,108.284 L262.003,111.297 L250.232,108.324 L254.38,105.35 L266.188,108.284 L266.188,108.284 Z M266.188,108.284" id="1059"/>
                    <path class="unit" d="M354.666,81.3 L368.076,71.72 L402.366,80.285 L389.11,89.75 L397.32,91.782 L362.913,116.343 L309.623,103.044 L318.147,96.944 L279.632,87.363 L301.959,71.406 L342.777,65.422 L364.944,70.936 L351.534,80.519 L354.666,81.3 L354.666,81.3 Z M354.666,81.3" id="1060"/>
                    <path class="unit" d="M250.041,108.479 L272.717,114.152 L268.611,117.083 L245.935,111.411 L250.041,108.479 L250.041,108.479 Z M250.041,108.479" id="1061"/>
                    <path class="unit" d="M268.416,117.201 L260.635,122.753 L237.96,117.082 L245.741,111.528 L268.416,117.201 L268.416,117.201 Z M268.416,117.201" id="1062"/>
                    <path class="unit" d="M146.121,82.119 L230.182,103.041 L223.221,108.008 L216.303,108.323 L144.91,90.531 L146.121,82.119 L146.121,82.119 Z M146.121,82.119" id="1063"/>
                    <path class="unit" d="M237.726,117.239 L260.441,122.912 L256.101,126.002 L233.426,120.33 L237.726,117.239 L237.726,117.239 Z M237.726,117.239" id="1064"/>
                    <path class="unit" d="M233.228,120.485 L255.906,126.116 L250.9,129.716 L228.188,124.043 L233.228,120.485 L233.228,120.485 Z M233.228,120.485" id="1065"/>
                    <path class="unit" d="M240.971,136.834 L218.256,131.163 L227.991,124.201 L250.704,129.872 L240.971,136.834 L240.971,136.834 Z M240.971,136.834" id="1066"/>
                    <path class="unit" d="M217.705,153.415 L195.029,147.742 L199.408,144.614 L222.083,150.287 L217.705,153.415 L217.705,153.415 Z M217.705,153.415" id="1067"/>
                    <path class="unit" d="M238.116,137.809 L233.854,140.822 L223.844,138.318 L219.387,141.527 L207.774,138.632 L216.491,132.415 L238.116,137.809 L238.116,137.809 Z M238.116,137.809" id="1068"/>
                    <path class="unit" d="M222.28,150.13 L199.603,144.458 L207.58,138.748 L230.293,144.421 L222.28,150.13 L222.28,150.13 Z M222.28,150.13" id="1069"/>
                    <path class="unit" d="M200.816,153.18 L196.513,156.232 L190.649,154.784 L188.498,152.4 L190.882,150.681 L200.816,153.18 L200.816,153.18 Z M200.816,153.18" id="1071"/>
                    <path class="unit" d="M256.492,97.333 L251.566,100.853 L245.855,99.405 L250.784,95.884 L256.492,97.333 L256.492,97.333 Z M256.492,97.333" id="1074"/>
                    <path class="unit" d="M345.361,63.585 L369.953,69.921" id="1075"/>
                    <path class="unit" d="M369.953,69.92 L367.921,71.484" id="1076"/>
                    <path class="unit" d="M327.453,46.025 L354.31,53.103" id="1077"/>
                    <path class="unit" d="M267.008,82.629 L271.936,79.108 L277.643,80.555 L272.717,84.077 L267.008,82.629 L267.008,82.629 Z M267.008,82.629" id="1078"/>
                    <path class="unit" d="M267.868,61.395 L277.956,63.936 L269.275,70.157 L259.187,67.574 L267.868,61.395 L267.868,61.395 Z M267.868,61.395" id="1079"/>
                    <path class="unit" d="M213.486,72.461 L213.678,72.539 L213.757,72.735 L213.678,72.929 L213.486,73.008 L213.289,72.929 L213.213,72.735 L213.289,72.539 L213.486,72.461 M217.433,73.712 L217.509,73.907 L217.433,74.101 L217.238,74.18 L217.046,74.101 L216.966,73.907 L217.046,73.712 L217.238,73.635 L217.433,73.712 M216.263,73.517 L216.183,73.711 L215.989,73.791 L215.795,73.711 L215.716,73.517 L215.795,73.323 L215.989,73.244 L216.183,73.323 L216.263,73.517 M214.929,72.93 L215.01,73.125 L214.929,73.321 L214.734,73.4 L214.541,73.321 L214.461,73.125 L214.541,72.93 L214.734,72.852 L214.929,72.93 M178.414,62.723 L178.609,62.802 L178.687,62.998 L178.609,63.191 L178.414,63.27 L178.217,63.19 L178.139,62.997 L178.217,62.801 L178.414,62.723 M181.109,63.506 L181.188,63.701 L181.109,63.895 L180.915,63.973 L180.72,63.895 L180.641,63.701 L180.72,63.506 L180.915,63.428 L181.109,63.506 M179.939,63.388 L179.861,63.584 L179.666,63.662 L179.471,63.584 L179.392,63.388 L179.471,63.193 L179.666,63.115 L179.861,63.193 L179.939,63.388 M193.741,67.142 L193.661,67.336 L193.468,67.415 L193.271,67.336 L193.196,67.142 L193.271,66.949 L193.468,66.87 L193.661,66.949 L193.741,67.142 M194.523,67.338 L194.717,67.261 L194.91,67.338 L194.988,67.532 L194.91,67.729 L194.717,67.807 L194.523,67.729 L194.444,67.532 L194.523,67.338 M196.162,67.652 L196.241,67.846 L196.162,68.039 L195.969,68.12 L195.774,68.039 L195.696,67.846 L195.774,67.652 L195.969,67.573 L196.162,67.652 M191.157,66.244 L191.236,66.438 L191.157,66.633 L190.964,66.711 L190.767,66.633 L190.691,66.438 L190.767,66.244 L190.964,66.165 L191.157,66.244 M189.516,65.929 L189.711,65.853 L189.906,65.929 L189.983,66.125 L189.906,66.32 L189.711,66.398 L189.516,66.32 L189.438,66.125 L189.516,65.929 M192.021,66.634 L192.214,66.557 L192.408,66.634 L192.485,66.829 L192.408,67.023 L192.214,67.101 L192.021,67.023 L191.942,66.829 L192.021,66.634 M197.022,67.965 L197.216,67.887 L197.411,67.965 L197.488,68.159 L197.411,68.352 L197.216,68.433 L197.022,68.352 L196.944,68.159 L197.022,67.965 M185.762,64.913 L185.958,64.834 L186.155,64.913 L186.232,65.107 L186.155,65.304 L185.958,65.381 L185.762,65.304 L185.685,65.107 L185.762,64.913 M187.209,65.149 L187.405,65.228 L187.484,65.421 L187.405,65.616 L187.209,65.694 L187.014,65.616 L186.937,65.421 L187.014,65.228 L187.209,65.149 M188.656,65.618 L188.735,65.814 L188.656,66.007 L188.462,66.086 L188.267,66.007 L188.189,65.814 L188.267,65.618 L188.462,65.539 L188.656,65.618 M183.693,64.405 L183.614,64.6 L183.418,64.679 L183.223,64.6 L183.145,64.405 L183.223,64.213 L183.418,64.133 L183.614,64.213 L183.693,64.405 M184.515,64.522 L184.71,64.445 L184.905,64.522 L184.983,64.717 L184.905,64.912 L184.71,64.99 L184.515,64.912 L184.435,64.717 L184.515,64.522 M181.97,63.819 C182.022,63.768 182.088,63.74 182.166,63.74 L182.361,63.819 L182.44,64.013 L182.361,64.21 L182.166,64.286 L181.97,64.21 L181.891,64.013 L181.97,63.819 M206.953,70.897 L207.032,70.704 L207.225,70.626 L207.42,70.704 L207.498,70.897 L207.42,71.092 L207.225,71.172 L207.032,71.092 L206.953,70.897 M206.17,70.78 L205.978,70.858 L205.783,70.78 L205.704,70.586 L205.783,70.391 L205.978,70.312 L206.17,70.391 L206.249,70.586 L206.17,70.78 M208.282,71.093 L208.475,71.018 L208.671,71.093 L208.748,71.287 L208.671,71.484 L208.475,71.56 L208.282,71.484 L208.204,71.287 L208.282,71.093 M209.537,71.406 L209.73,71.326 L209.926,71.406 L210.002,71.6 L209.926,71.793 L209.73,71.872 L209.537,71.793 L209.458,71.6 L209.537,71.406 M210.979,71.719 L211.177,71.796 L211.253,71.993 L211.177,72.188 L210.979,72.265 L210.787,72.188 L210.71,71.993 L210.787,71.796 L210.979,71.719 M212.035,72.149 L212.229,72.072 L212.425,72.149 L212.502,72.343 L212.425,72.538 L212.229,72.617 L212.035,72.538 L211.959,72.343 L212.035,72.149 M199.526,68.668 L199.719,68.59 L199.913,68.668 L199.992,68.862 L199.913,69.059 L199.719,69.137 L199.526,69.059 L199.447,68.862 L199.526,68.668 M200.776,69.059 L200.968,68.979 L201.164,69.059 L201.242,69.253 L201.164,69.448 L200.968,69.526 L200.776,69.448 L200.698,69.253 L200.776,69.059 M198.664,68.354 L198.741,68.55 L198.664,68.745 L198.472,68.824 L198.275,68.745 L198.198,68.55 L198.275,68.354 L198.471,68.277 L198.664,68.354 M203.28,69.683 L203.473,69.607 L203.668,69.683 L203.745,69.88 L203.668,70.075 L203.473,70.153 L203.28,70.075 L203.203,69.88 L203.28,69.683 M204.921,70.077 L205,70.27 L204.921,70.466 L204.728,70.545 L204.532,70.466 L204.456,70.27 L204.532,70.077 L204.728,69.998 L204.921,70.077 M202.031,69.372 L202.224,69.293 L202.42,69.372 L202.496,69.567 L202.42,69.761 L202.224,69.84 L202.031,69.761 L201.952,69.567 L202.031,69.372" id="1080"/>
                    <path class="unit" d="M125.521,151.729 L130.649,148.091 L114.14,143.941 L102.936,151.912 L150.763,163.939 L156.646,159.761 L125.314,151.882 L125.521,151.729 Z M125.521,151.729" id="1081"/>
                    <path class="unit" d="M156.861,159.608 L162.009,155.953 L157.192,154.763 L130.905,148.155 L125.782,151.793 L156.861,159.608 Z M156.861,159.608" id="1082"/>
        </g>
    </g>
</svg>