<?xml version="1.0" encoding="utf-8"?>
<!DOCTYPE svg PUBLIC "-//W3C//DTD SVG 1.1//EN" "http://www.w3.org/Graphics/SVG/1.1/DTD/svg11.dtd">
<svg version="1.1" xmlns="http://www.w3.org/2000/svg" xmlns:xlink="http://www.w3.org/1999/xlink" xml:space="preserve">
<g class="level" id="level0">
            <g class="outline">
            <path d="M427.271,44.46 L424.733,40.408 C424.55,40.125 424.29,39.912 423.978,39.8 C423.831,39.696 423.663,39.619 423.485,39.575 L388.12,30.742 L388.141,28.792 C388.152,28.117 387.703,27.521 387.051,27.341 L386.92,27.306 C386.795,27.226 386.66,27.164 386.516,27.123 L362.275,20.38 C361.849,20.263 361.4,20.338 361.038,20.585 C360.993,20.609 360.95,20.639 360.907,20.668 L359.585,21.611 L354.878,20.44 L354.884,19.811 C354.892,19.148 354.46,18.561 353.825,18.372 L353.753,18.351 C353.616,18.247 353.46,18.168 353.29,18.119 L302.581,2.944 L294.589,0.256 C294.347,0.176 294.077,0.168 293.818,0.224 C293.589,0.258 293.374,0.345 293.179,0.482 L273.08,14.787 L266.394,16.314 C266.203,16.358 266.019,16.44 265.859,16.554 L265.713,16.658 C265.674,16.679 265.639,16.705 265.602,16.731 L248.79,28.731 L193.382,14.918 C193.034,14.832 192.673,14.874 192.36,15.029 C192.235,15.075 192.117,15.135 192.006,15.217 L172.424,29.196 C172.037,29.47 171.808,29.916 171.801,30.39 L171.765,33.835 C171.754,34.523 172.222,35.127 172.89,35.294 L191.161,39.854 L172.976,52.81 L162.365,50.185 C159.752,49.523 157.745,49.303 156.2,49.508 C156.147,49.516 156.096,49.525 156.044,49.537 L154.643,49.878 C154.592,49.891 154.542,49.905 154.493,49.923 C154.096,50.067 153.718,50.242 153.375,50.441 C152.445,50.909 151.708,51.503 151.183,52.211 C151.124,52.29 151.074,52.378 151.033,52.471 L150.837,52.763 C150.763,52.873 150.705,52.993 150.663,53.119 L150.441,53.648 C150.406,53.73 150.379,53.822 150.359,53.919 L150.284,54.144 C150.258,54.223 150.238,54.304 150.225,54.387 L146.514,78.63 C146.503,78.705 146.497,78.779 146.497,78.856 L146.497,82.302 C146.497,82.986 146.962,83.58 147.624,83.745 L167.331,88.652 L167.331,90.066 C167.331,90.469 167.495,90.844 167.767,91.118 L154.706,100.445 L154.52,100.579 C154.409,100.622 154.302,100.682 154.204,100.751 L145.836,106.716 C145.805,106.724 145.774,106.731 145.743,106.737 L145.591,106.774 C145.196,106.872 144.864,107.124 144.663,107.462 C144.276,107.564 143.952,107.813 143.754,108.146 C143.367,108.248 143.042,108.494 142.844,108.828 C142.463,108.93 142.142,109.172 141.944,109.498 L141.922,109.515 C141.57,109.61 141.271,109.827 141.073,110.119 L140.93,110.223 C140.643,110.319 140.395,110.494 140.216,110.733 L139.91,110.95 C139.733,111.03 139.571,111.147 139.434,111.292 L138.858,111.702 C138.766,111.755 138.679,111.815 138.6,111.886 L138.168,112.196 C137.877,112.293 137.627,112.472 137.447,112.713 L128.596,119.025 C128.21,119.299 127.978,119.747 127.972,120.217 L127.934,123.662 C127.927,124.35 128.393,124.955 129.061,125.121 L148.882,130.059 L147.355,131.147 L147.213,131.234 C147.18,131.254 147.148,131.274 147.117,131.296 L145.781,132.253 L142.703,131.482 C142.348,131.392 141.974,131.44 141.653,131.607 C141.533,131.654 141.419,131.712 141.313,131.795 L140.045,132.713 L134.482,131.33 C134.123,131.242 133.747,131.289 133.425,131.463 C133.313,131.506 133.205,131.566 133.105,131.635 L128.635,134.818 C128.341,135.028 128.136,135.335 128.052,135.676 L116.211,132.803 C115.79,132.699 115.341,132.787 114.989,133.043 L113.209,134.33 C112.74,134.67 112.511,135.25 112.621,135.815 C112.731,136.382 113.16,136.836 113.721,136.975 L128.603,140.688 C128.637,140.71 128.671,140.734 128.706,140.753 L123.122,144.755 L118.645,143.641 L118.673,141.042 C118.68,140.354 118.215,139.749 117.546,139.583 L117.493,139.567 C117.352,139.47 117.193,139.399 117.022,139.357 L101.568,135.493 C101.161,135.389 100.732,135.468 100.384,135.697 C100.329,135.726 100.277,135.759 100.225,135.798 L91.399,142.085 C91.007,142.362 90.775,142.814 90.775,143.296 L90.775,146.743 C90.775,147.427 91.239,148.019 91.901,148.184 L93.929,148.692 L87.144,153.538 L83.726,152.688 C83.317,152.586 82.889,152.665 82.54,152.895 C82.486,152.922 82.434,152.957 82.383,152.993 L73.14,159.585 C72.82,159.814 72.606,160.155 72.539,160.536 C72.232,160.495 71.92,160.554 71.646,160.697 C71.532,160.743 71.423,160.801 71.322,160.874 L21.093,196.708 C20.702,196.986 20.47,197.437 20.47,197.919 L20.47,201.327 L20.47,201.353 L19.124,202.311 C18.732,202.588 18.499,203.04 18.499,203.522 L18.499,206.969 C18.499,207.248 18.578,207.523 18.726,207.758 L20.432,210.484 C20.488,210.575 20.554,210.657 20.628,210.733 L20.703,210.81 C20.895,211.006 21.14,211.148 21.407,211.213 L64.095,221.896 C64.265,221.94 64.439,221.954 64.613,221.931 L71.393,221.213 C71.649,221.187 71.893,221.092 72.102,220.942 L77.821,216.842 L83.544,218.28 L83.537,218.919 C83.53,219.607 83.996,220.212 84.665,220.38 L114.362,227.768 C114.48,227.794 114.601,227.811 114.721,227.811 C115.027,227.811 115.328,227.714 115.583,227.537 L124.635,221.099 C125.028,220.821 125.26,220.369 125.26,219.886 L125.26,218.761 L133.583,212.843 L137.543,213.827 C137.6,213.843 137.657,213.851 137.716,213.858 L206.601,222.569 L206.622,222.575 C207.046,222.682 207.499,222.599 207.853,222.346 L239.749,199.578 C240.143,199.299 240.372,198.849 240.372,198.367 L240.372,194.922 C240.372,194.182 239.829,193.555 239.098,193.448 L239.061,193.443 C238.899,193.348 238.717,193.287 238.529,193.257 L234.276,192.659 L234.276,191.849 C234.276,191.131 233.766,190.521 233.069,190.387 C232.901,190.285 232.715,190.217 232.516,190.19 L219.328,188.23 L211.006,186.167 C210.931,185.571 210.5,185.073 209.91,184.919 L209.89,184.913 C209.837,184.878 209.785,184.845 209.728,184.813 L209.728,183.893 C209.728,183.604 209.644,183.331 209.498,183.096 L209.713,182.945 C210.101,182.671 210.33,182.225 210.336,181.753 L210.369,178.839 L235.338,184.514 C235.748,184.607 236.191,184.521 236.535,184.272 L239.223,182.337 C239.614,182.061 239.842,181.608 239.842,181.13 L239.842,180.909 L254.526,170.405 C254.913,170.132 255.141,169.687 255.147,169.214 L255.186,165.804 C255.194,165.122 254.733,164.523 254.075,164.351 C253.915,164.228 253.727,164.134 253.524,164.085 L235,159.467 L258.574,142.642 C258.961,142.368 259.191,141.922 259.197,141.45 L259.236,138.007 C259.244,137.319 258.781,136.716 258.115,136.548 L258.043,136.528 C257.981,136.486 257.916,136.45 257.849,136.421 C258.196,136.144 258.4,135.723 258.407,135.275 L258.443,131.832 C258.452,131.144 257.982,130.541 257.314,130.373 L257.252,130.356 C257.109,130.261 256.953,130.191 256.783,130.149 L250.015,128.461 L276.831,109.314 C277.218,109.042 277.448,108.594 277.454,108.126 L277.47,106.999 L278.761,107.312 C279.179,107.416 279.622,107.329 279.976,107.079 L288.914,100.718 C289.307,100.442 289.539,99.989 289.539,99.507 L289.539,96.061 C289.539,95.7 289.408,95.363 289.186,95.101 C289.303,95.056 289.415,94.997 289.52,94.919 L295.479,90.658 L304.169,92.804 C304.583,92.908 305.025,92.825 305.378,92.577 L305.96,92.171 L307.989,92.671 L305.934,94.126 C305.541,94.405 305.309,94.856 305.309,95.339 L305.309,98.782 C305.309,99.466 305.776,100.06 306.436,100.224 L355.983,112.577 C356.405,112.681 356.85,112.597 357.204,112.347 L359.641,110.618 L361.704,111.136 C362.126,111.241 362.573,111.157 362.928,110.907 L393.648,89.011 C394.037,88.738 394.266,88.293 394.273,87.819 L394.312,84.373 C394.32,83.684 393.853,83.079 393.182,82.913 L393.1,82.892 C392.961,82.803 392.814,82.736 392.648,82.695 L391.978,82.526 L425.318,58.748 C425.705,58.473 425.937,58.028 425.941,57.555 L425.978,54.109 C425.986,53.422 425.523,52.821 424.859,52.652 L424.76,52.629 C424.625,52.539 424.475,52.472 424.312,52.431 L423.586,52.249 L426.863,49.926 C427.256,49.648 427.49,49.197 427.49,48.713 L427.49,45.253 C427.5,44.97 427.422,44.697 427.271,44.46 L427.271,44.46 Z M206.352,176.021 L205.637,175.84 C205.879,175.883 206.121,175.865 206.354,175.793 L206.352,176.021 L206.352,176.021 Z M206.352,176.021" class="outline"/>
            </g>
            <g class="label">
                <path d="M8.206,116.556 C7.838,116.556 7.582,116.813 7.582,117.212 L7.582,125.968 C6.749,126.512 5.565,126.737 4.845,126.737 C2.988,126.737 1.852,125.825 1.852,123.759 L1.852,117.212 C1.852,116.813 1.596,116.556 1.244,116.556 C0.892,116.556 0.62,116.813 0.62,117.212 L0.62,124 C0.62,126.337 2.077,127.938 4.605,127.938 C6.414,127.938 7.454,127.458 8.383,126.93 C8.735,126.721 8.815,126.45 8.815,126.065 L8.815,117.213 C8.814,116.813 8.558,116.556 8.206,116.556 L8.206,116.556 Z M22.732,116.493 C21.724,116.493 20.971,116.605 20.459,116.764 C20.059,116.893 19.947,117.132 19.947,117.533 L19.947,127.233 C19.947,127.633 20.203,127.874 20.555,127.874 C20.907,127.874 21.179,127.634 21.179,127.233 L21.179,123.616 C21.707,123.647 22.012,123.664 22.652,123.664 C25.533,123.664 27.054,122.271 27.054,119.998 C27.054,117.981 25.725,116.493 22.732,116.493 L22.732,116.493 Z M22.588,122.495 C21.996,122.495 21.708,122.495 21.179,122.464 L21.179,117.789 C21.627,117.726 22.172,117.661 22.7,117.661 C24.973,117.661 25.789,118.75 25.789,120.03 C25.789,121.342 25.085,122.495 22.588,122.495 L22.588,122.495 Z M13.9,116.493 C12.892,116.493 12.139,116.605 11.627,116.764 C11.227,116.893 11.115,117.132 11.115,117.533 L11.115,127.233 C11.115,127.633 11.371,127.874 11.723,127.874 C12.075,127.874 12.347,127.634 12.347,127.233 L12.347,123.616 C12.875,123.647 13.18,123.664 13.82,123.664 C16.701,123.664 18.222,122.271 18.222,119.998 C18.222,117.981 16.894,116.493 13.9,116.493 L13.9,116.493 Z M13.756,122.495 C13.164,122.495 12.876,122.495 12.347,122.464 L12.347,117.789 C12.795,117.726 13.34,117.661 13.868,117.661 C16.141,117.661 16.957,118.75 16.957,120.03 C16.958,121.342 16.253,122.495 13.756,122.495 L13.756,122.495 Z M78.732,126.625 L74.426,126.625 L74.426,117.213 C74.426,116.814 74.17,116.557 73.818,116.557 C73.466,116.557 73.194,116.814 73.194,117.213 L73.194,126.85 C73.194,127.442 73.562,127.81 74.251,127.81 L78.732,127.81 C79.132,127.81 79.388,127.538 79.388,127.202 C79.388,126.897 79.148,126.625 78.732,126.625 L78.732,126.625 Z M68.62,118.029 C67.996,116.781 67.5,116.413 66.939,116.413 C66.379,116.413 65.883,116.781 65.258,118.029 C64.362,119.838 63.674,122.111 62.505,126.737 C62.441,126.961 62.409,127.137 62.409,127.249 C62.409,127.634 62.665,127.874 63.017,127.874 C63.305,127.874 63.513,127.697 63.593,127.361 C63.897,125.984 64.201,124.752 64.506,123.696 L69.372,123.696 C69.66,124.752 69.964,125.984 70.285,127.361 C70.365,127.697 70.573,127.874 70.861,127.874 C71.213,127.874 71.469,127.634 71.469,127.249 C71.469,127.138 71.421,126.961 71.373,126.737 C70.237,122.111 69.517,119.837 68.62,118.029 L68.62,118.029 Z M64.827,122.575 C65.563,120.126 66.22,118.605 66.732,117.805 C66.78,117.741 66.828,117.677 66.94,117.677 C67.052,117.677 67.1,117.74 67.148,117.805 C67.66,118.605 68.3,120.125 69.037,122.575 L64.827,122.575 L64.827,122.575 Z M86.348,126.625 L82.042,126.625 L82.042,117.213 C82.042,116.814 81.786,116.557 81.434,116.557 C81.081,116.557 80.809,116.814 80.809,117.213 L80.809,126.85 C80.809,127.442 81.177,127.81 81.866,127.81 L86.347,127.81 C86.747,127.81 87.003,127.538 87.003,127.202 C87.004,126.897 86.764,126.625 86.348,126.625 L86.348,126.625 Z M42.829,123.696 C42.541,123.279 42.221,122.96 41.852,122.719 C43.277,122.223 44.205,121.23 44.205,119.709 C44.205,117.772 42.893,116.492 39.996,116.492 C38.892,116.492 38.139,116.604 37.627,116.763 C37.227,116.892 37.115,117.131 37.115,117.532 L37.115,127.232 C37.115,127.632 37.387,127.873 37.74,127.873 C38.092,127.873 38.364,127.633 38.364,127.232 L38.364,123.054 L39.613,123.054 C40.781,123.054 41.246,123.534 41.822,124.462 C42.222,125.103 42.638,126.031 43.134,127.424 C43.23,127.68 43.406,127.872 43.742,127.872 C44.078,127.872 44.367,127.632 44.367,127.247 C44.367,127.136 44.335,126.976 44.271,126.815 C43.837,125.665 43.325,124.463 42.829,123.696 L42.829,123.696 Z M39.803,121.838 L38.363,121.838 L38.363,117.805 C38.811,117.741 39.243,117.677 39.932,117.677 C42.221,117.677 42.941,118.573 42.941,119.758 C42.94,121.407 41.388,121.886 39.803,121.838 L39.803,121.838 Z M34.781,126.592 L30.011,126.592 L30.011,122.735 L33.885,122.735 C34.269,122.735 34.477,122.415 34.477,122.143 C34.477,121.855 34.269,121.567 33.885,121.567 L30.011,121.567 L30.011,117.838 L34.621,117.838 C35.037,117.838 35.261,117.566 35.261,117.262 C35.261,116.925 35.037,116.621 34.621,116.621 L29.835,116.621 C29.147,116.621 28.778,116.989 28.778,117.581 L28.778,126.85 C28.778,127.442 29.146,127.81 29.835,127.81 L34.781,127.81 C35.165,127.81 35.389,127.474 35.389,127.202 C35.389,126.865 35.165,126.592 34.781,126.592 L34.781,126.592 Z M60.062,117.853 C59.95,117.021 59.662,116.556 59.006,116.556 C58.381,116.556 58.11,116.924 57.933,117.389 C57.117,119.598 56.221,122.431 55.244,125.056 L55.228,125.056 C54.22,122.575 53.436,119.966 52.411,117.533 C52.187,116.925 51.915,116.556 51.29,116.556 C50.634,116.556 50.33,117.004 50.234,117.885 C49.881,120.814 49.69,123.984 49.706,127.233 C49.69,127.617 49.93,127.874 50.282,127.874 C50.634,127.874 50.906,127.649 50.906,127.218 C50.89,124.145 51.082,121.167 51.419,118.174 L51.435,118.174 C52.412,120.799 53.356,123.44 54.396,126.065 C54.524,126.402 54.796,126.641 55.212,126.641 C55.612,126.641 55.916,126.402 56.044,126.065 C57.068,123.52 57.949,120.815 58.877,118.174 L58.893,118.174 C59.31,121.199 59.469,124.176 59.549,127.153 C59.549,127.601 59.773,127.874 60.19,127.874 C60.542,127.874 60.766,127.586 60.766,127.201 C60.766,127.073 60.75,126.833 60.75,126.721 C60.719,123.679 60.463,120.623 60.062,117.853 L60.062,117.853 Z M60.062,117.853" class="Shape"/>
                <path d="M61.89,87.841 C61.747,87.841 61.637,87.818 61.559,87.771 C61.482,87.725 61.427,87.662 61.393,87.583 C61.359,87.504 61.342,87.327 61.342,87.051 L61.342,83.716 L62.314,83.716 L62.314,82.964 L61.342,82.964 L61.342,80.971 L60.381,81.551 L60.381,82.964 L59.672,82.964 L59.672,83.716 L60.381,83.716 L60.381,86.998 C60.381,87.578 60.421,87.958 60.499,88.139 C60.578,88.321 60.714,88.466 60.907,88.577 C61.1,88.688 61.372,88.744 61.723,88.744 C61.938,88.744 62.181,88.716 62.453,88.658 L62.313,87.804 C62.139,87.829 61.997,87.841 61.89,87.841 L61.89,87.841 Z M64.733,83.029 C64.545,83.158 64.34,83.425 64.118,83.829 L64.118,82.964 L63.248,82.964 L63.248,88.668 L64.215,88.668 L64.215,85.682 C64.215,85.274 64.269,84.898 64.376,84.554 C64.448,84.328 64.567,84.152 64.736,84.025 C64.904,83.898 65.094,83.835 65.305,83.835 C65.541,83.835 65.778,83.905 66.014,84.044 L66.347,83.147 C66.011,82.939 65.679,82.835 65.353,82.835 C65.128,82.835 64.922,82.9 64.733,83.029 L64.733,83.029 Z M135.409,83.507 C135.266,83.306 135.05,83.144 134.762,83.021 C134.474,82.897 134.158,82.835 133.814,82.835 C133.022,82.835 132.418,83.148 131.999,83.775 L131.999,82.964 L131.129,82.964 L131.129,88.668 L132.096,88.668 L132.096,85.553 C132.096,84.823 132.245,84.326 132.545,84.065 C132.844,83.804 133.199,83.673 133.611,83.673 C133.869,83.673 134.093,83.731 134.285,83.848 C134.476,83.964 134.61,84.12 134.685,84.315 C134.76,84.51 134.798,84.805 134.798,85.199 L134.798,88.669 L135.765,88.669 L135.765,85.162 C135.765,84.714 135.747,84.401 135.711,84.222 C135.653,83.945 135.552,83.708 135.409,83.507 L135.409,83.507 Z M58.366,83.507 C58.223,83.306 58.007,83.144 57.719,83.021 C57.431,82.897 57.115,82.835 56.771,82.835 C55.979,82.835 55.375,83.148 54.956,83.775 L54.956,82.964 L54.086,82.964 L54.086,88.668 L55.053,88.668 L55.053,85.553 C55.053,84.823 55.202,84.326 55.502,84.065 C55.801,83.804 56.156,83.673 56.568,83.673 C56.826,83.673 57.05,83.731 57.242,83.848 C57.433,83.964 57.567,84.12 57.642,84.315 C57.717,84.51 57.755,84.805 57.755,85.199 L57.755,88.669 L58.722,88.669 L58.722,85.162 C58.722,84.714 58.704,84.401 58.668,84.222 C58.61,83.945 58.509,83.708 58.366,83.507 L58.366,83.507 Z M50.31,82.835 C49.522,82.835 48.881,83.1 48.387,83.63 C47.893,84.16 47.646,84.905 47.646,85.864 C47.646,86.791 47.891,87.512 48.379,88.026 C48.868,88.54 49.529,88.797 50.364,88.797 C51.027,88.797 51.571,88.636 51.997,88.314 C52.423,87.992 52.715,87.539 52.872,86.955 L51.873,86.831 C51.726,87.239 51.527,87.537 51.277,87.723 C51.027,87.909 50.724,88.002 50.369,88.002 C49.893,88.002 49.495,87.835 49.177,87.502 C48.859,87.169 48.681,86.689 48.645,86.063 L52.899,86.063 C52.902,85.948 52.904,85.862 52.904,85.805 C52.904,84.863 52.662,84.133 52.179,83.614 C51.696,83.095 51.072,82.835 50.31,82.835 L50.31,82.835 Z M48.698,85.269 C48.73,84.771 48.898,84.374 49.2,84.077 C49.502,83.78 49.876,83.631 50.32,83.631 C50.811,83.631 51.21,83.817 51.518,84.19 C51.719,84.43 51.84,84.79 51.883,85.27 L48.698,85.269 L48.698,85.269 Z M44.944,87.406 C44.539,87.742 44.045,87.911 43.462,87.911 C42.982,87.911 42.536,87.787 42.125,87.54 C41.714,87.293 41.41,86.92 41.215,86.42 C41.02,85.921 40.922,85.336 40.922,84.667 C40.922,84.148 41.005,83.644 41.169,83.155 C41.334,82.667 41.619,82.277 42.025,81.987 C42.432,81.697 42.938,81.552 43.543,81.552 C44.069,81.552 44.506,81.683 44.854,81.944 C45.202,82.205 45.466,82.623 45.649,83.195 L46.675,82.953 C46.464,82.226 46.09,81.662 45.552,81.261 C45.014,80.86 44.352,80.659 43.565,80.659 C42.87,80.659 42.234,80.818 41.656,81.134 C41.077,81.451 40.632,81.915 40.318,82.526 C40.005,83.136 39.848,83.852 39.848,84.672 C39.848,85.424 39.987,86.128 40.264,86.783 C40.542,87.438 40.947,87.939 41.478,88.284 C42.01,88.629 42.7,88.803 43.549,88.803 C44.369,88.803 45.063,88.578 45.631,88.128 C46.198,87.679 46.591,87.026 46.81,86.17 L45.768,85.907 C45.623,86.57 45.349,87.07 44.944,87.406 L44.944,87.406 Z M139.357,87.804 C139.182,87.829 139.04,87.842 138.933,87.842 C138.79,87.842 138.68,87.819 138.602,87.772 C138.525,87.726 138.47,87.663 138.436,87.584 C138.402,87.505 138.385,87.328 138.385,87.052 L138.385,83.717 L139.357,83.717 L139.357,82.965 L138.385,82.965 L138.385,80.972 L137.424,81.552 L137.424,82.965 L136.715,82.965 L136.715,83.717 L137.424,83.717 L137.424,86.999 C137.424,87.579 137.464,87.959 137.542,88.14 C137.621,88.322 137.757,88.467 137.95,88.578 C138.143,88.689 138.415,88.745 138.766,88.745 C138.981,88.745 139.224,88.717 139.496,88.659 L139.357,87.804 L139.357,87.804 Z M69.264,82.835 C68.476,82.835 67.835,83.1 67.341,83.63 C66.847,84.16 66.6,84.905 66.6,85.864 C66.6,86.791 66.845,87.512 67.333,88.026 C67.822,88.54 68.483,88.797 69.318,88.797 C69.981,88.797 70.525,88.636 70.951,88.314 C71.377,87.992 71.669,87.539 71.826,86.955 L70.827,86.831 C70.68,87.239 70.481,87.537 70.231,87.723 C69.981,87.909 69.678,88.002 69.323,88.002 C68.847,88.002 68.449,87.835 68.131,87.502 C67.813,87.169 67.635,86.689 67.599,86.063 L71.853,86.063 C71.856,85.948 71.858,85.862 71.858,85.805 C71.858,84.863 71.616,84.133 71.133,83.614 C70.65,83.095 70.027,82.835 69.264,82.835 L69.264,82.835 Z M67.653,85.269 C67.685,84.771 67.853,84.374 68.155,84.077 C68.457,83.78 68.831,83.631 69.275,83.631 C69.766,83.631 70.165,83.817 70.473,84.19 C70.674,84.43 70.795,84.79 70.838,85.27 L67.653,85.269 L67.653,85.269 Z M107.377,83.652 C106.94,83.108 106.385,82.836 105.712,82.836 C105.207,82.836 104.768,82.961 104.394,83.212 C104.019,83.462 103.734,83.818 103.537,84.278 C103.34,84.738 103.242,85.24 103.242,85.784 C103.242,86.576 103.457,87.254 103.887,87.82 C104.317,88.385 104.924,88.669 105.708,88.669 C106.338,88.669 106.865,88.42 107.287,87.922 C107.29,88.552 107.267,88.965 107.217,89.163 C107.131,89.485 106.967,89.735 106.723,89.915 C106.479,90.095 106.134,90.184 105.686,90.184 C105.27,90.184 104.943,90.095 104.703,89.915 C104.524,89.782 104.415,89.571 104.375,89.281 L103.435,89.141 C103.421,89.756 103.623,90.218 104.042,90.524 C104.461,90.831 105.011,90.983 105.691,90.983 C106.264,90.983 106.747,90.876 107.138,90.661 C107.531,90.446 107.817,90.154 107.997,89.783 C108.178,89.413 108.268,88.784 108.268,87.895 L108.268,82.964 L107.376,82.964 L107.377,83.652 L107.377,83.652 Z M106.916,87.355 C106.615,87.697 106.243,87.868 105.799,87.868 C105.351,87.868 104.979,87.696 104.682,87.352 C104.385,87.008 104.236,86.462 104.236,85.714 C104.236,85.026 104.386,84.508 104.687,84.159 C104.988,83.809 105.353,83.635 105.783,83.635 C106.22,83.635 106.593,83.812 106.903,84.167 C107.213,84.521 107.368,85.048 107.368,85.746 C107.367,86.477 107.216,87.013 106.916,87.355 L106.916,87.355 Z M82.063,82.835 C81.34,82.835 80.752,83.168 80.301,83.834 C80.19,83.519 79.999,83.273 79.729,83.098 C79.459,82.923 79.112,82.835 78.69,82.835 C78.311,82.835 77.972,82.92 77.675,83.09 C77.378,83.26 77.14,83.485 76.961,83.764 L76.961,82.964 L76.096,82.964 L76.096,88.668 L77.063,88.668 L77.063,85.709 C77.063,85.19 77.115,84.792 77.219,84.517 C77.323,84.242 77.49,84.032 77.721,83.889 C77.952,83.746 78.204,83.674 78.476,83.674 C78.834,83.674 79.092,83.781 79.249,83.996 C79.406,84.211 79.485,84.533 79.485,84.963 L79.485,88.669 L80.452,88.669 L80.452,85.355 C80.452,84.768 80.584,84.341 80.849,84.074 C81.114,83.807 81.447,83.674 81.848,83.674 C82.07,83.674 82.264,83.726 82.428,83.83 C82.592,83.934 82.706,84.071 82.769,84.241 C82.832,84.411 82.863,84.69 82.863,85.076 L82.863,88.669 L83.824,88.669 L83.824,84.753 C83.824,84.101 83.672,83.619 83.367,83.305 C83.064,82.992 82.629,82.835 82.063,82.835 L82.063,82.835 Z M112.072,82.835 C111.284,82.835 110.643,83.1 110.149,83.63 C109.655,84.16 109.408,84.905 109.408,85.864 C109.408,86.791 109.653,87.512 110.141,88.026 C110.63,88.54 111.291,88.797 112.126,88.797 C112.789,88.797 113.333,88.636 113.759,88.314 C114.185,87.992 114.477,87.539 114.634,86.955 L113.635,86.831 C113.488,87.239 113.289,87.537 113.039,87.723 C112.789,87.909 112.486,88.002 112.131,88.002 C111.655,88.002 111.257,87.835 110.939,87.502 C110.621,87.169 110.443,86.689 110.407,86.063 L114.661,86.063 C114.664,85.948 114.666,85.862 114.666,85.805 C114.666,84.863 114.424,84.133 113.941,83.614 C113.458,83.095 112.834,82.835 112.072,82.835 L112.072,82.835 Z M110.46,85.269 C110.492,84.771 110.66,84.374 110.962,84.077 C111.264,83.78 111.638,83.631 112.082,83.631 C112.573,83.631 112.972,83.817 113.28,84.19 C113.481,84.43 113.602,84.79 113.645,85.27 L110.46,85.269 L110.46,85.269 Z M102.114,86.278 L102.114,84.989 C102.114,84.559 102.098,84.262 102.066,84.097 C102.009,83.832 101.908,83.613 101.765,83.439 C101.622,83.265 101.398,83.121 101.094,83.006 C100.79,82.891 100.394,82.834 99.907,82.834 C99.416,82.834 98.985,82.901 98.613,83.035 C98.24,83.17 97.956,83.361 97.759,83.61 C97.562,83.859 97.421,84.185 97.335,84.59 L98.28,84.719 C98.384,84.314 98.544,84.032 98.761,83.873 C98.977,83.714 99.313,83.634 99.768,83.634 C100.255,83.634 100.622,83.743 100.869,83.962 C101.052,84.123 101.143,84.4 101.143,84.795 C101.143,84.831 101.141,84.915 101.138,85.047 C100.769,85.176 100.195,85.287 99.414,85.38 C99.031,85.426 98.745,85.475 98.555,85.525 C98.297,85.597 98.065,85.702 97.86,85.842 C97.654,85.982 97.487,86.167 97.36,86.398 C97.233,86.629 97.17,86.884 97.17,87.164 C97.17,87.64 97.338,88.031 97.675,88.338 C98.011,88.644 98.493,88.797 99.12,88.797 C99.499,88.797 99.855,88.735 100.186,88.609 C100.518,88.483 100.862,88.268 101.22,87.964 C101.249,88.233 101.313,88.466 101.413,88.668 L102.423,88.668 C102.301,88.449 102.22,88.221 102.179,87.983 C102.134,87.746 102.114,87.177 102.114,86.278 L102.114,86.278 Z M101.136,86.16 C101.136,86.586 101.084,86.909 100.98,87.127 C100.844,87.41 100.631,87.633 100.341,87.795 C100.051,87.958 99.72,88.04 99.347,88.04 C98.971,88.04 98.685,87.954 98.491,87.782 C98.296,87.61 98.198,87.395 98.198,87.137 C98.198,86.969 98.243,86.816 98.332,86.678 C98.421,86.54 98.549,86.436 98.713,86.364 C98.877,86.292 99.159,86.228 99.556,86.171 C100.258,86.071 100.784,85.949 101.135,85.806 L101.135,86.16 L101.136,86.16 L101.136,86.16 Z M121.815,82.835 C121.092,82.835 120.504,83.168 120.053,83.834 C119.942,83.519 119.751,83.273 119.481,83.098 C119.211,82.923 118.864,82.835 118.442,82.835 C118.063,82.835 117.724,82.92 117.427,83.09 C117.13,83.26 116.892,83.485 116.713,83.764 L116.713,82.964 L115.848,82.964 L115.848,88.668 L116.815,88.668 L116.815,85.709 C116.815,85.19 116.867,84.792 116.971,84.517 C117.075,84.242 117.242,84.032 117.473,83.889 C117.704,83.746 117.956,83.674 118.228,83.674 C118.586,83.674 118.844,83.781 119.001,83.996 C119.158,84.211 119.237,84.533 119.237,84.963 L119.237,88.669 L120.204,88.669 L120.204,85.355 C120.204,84.768 120.336,84.341 120.601,84.074 C120.866,83.807 121.199,83.674 121.6,83.674 C121.822,83.674 122.016,83.726 122.18,83.83 C122.344,83.934 122.458,84.071 122.521,84.241 C122.584,84.411 122.615,84.69 122.615,85.076 L122.615,88.669 L123.576,88.669 L123.576,84.753 C123.576,84.101 123.424,83.619 123.119,83.305 C122.816,82.992 122.381,82.835 121.815,82.835 L121.815,82.835 Z M127.353,82.835 C126.565,82.835 125.924,83.1 125.43,83.63 C124.936,84.16 124.689,84.905 124.689,85.864 C124.689,86.791 124.934,87.512 125.422,88.026 C125.911,88.54 126.572,88.797 127.407,88.797 C128.07,88.797 128.614,88.636 129.04,88.314 C129.466,87.992 129.758,87.539 129.915,86.955 L128.916,86.831 C128.769,87.239 128.57,87.537 128.32,87.723 C128.07,87.909 127.767,88.002 127.412,88.002 C126.936,88.002 126.538,87.835 126.22,87.502 C125.902,87.169 125.724,86.689 125.688,86.063 L129.942,86.063 C129.945,85.948 129.947,85.862 129.947,85.805 C129.947,84.863 129.705,84.133 129.222,83.614 C128.739,83.095 128.115,82.835 127.353,82.835 L127.353,82.835 Z M125.741,85.269 C125.773,84.771 125.941,84.374 126.243,84.077 C126.545,83.78 126.919,83.631 127.363,83.631 C127.854,83.631 128.253,83.817 128.561,84.19 C128.762,84.43 128.883,84.79 128.926,85.27 L125.741,85.269 L125.741,85.269 Z M95.658,83.507 C95.515,83.306 95.299,83.144 95.011,83.021 C94.723,82.897 94.407,82.835 94.063,82.835 C93.271,82.835 92.667,83.148 92.248,83.775 L92.248,82.964 L91.378,82.964 L91.378,88.668 L92.345,88.668 L92.345,85.553 C92.345,84.823 92.494,84.326 92.794,84.065 C93.093,83.804 93.448,83.673 93.86,83.673 C94.118,83.673 94.342,83.731 94.534,83.848 C94.725,83.964 94.859,84.12 94.934,84.315 C95.009,84.51 95.047,84.805 95.047,85.199 L95.047,88.669 L96.014,88.669 L96.014,85.162 C96.014,84.714 95.996,84.401 95.96,84.222 C95.901,83.945 95.801,83.708 95.658,83.507 L95.658,83.507 Z M89.878,86.278 L89.878,84.989 C89.878,84.559 89.862,84.262 89.83,84.097 C89.773,83.832 89.672,83.613 89.529,83.439 C89.386,83.265 89.162,83.121 88.858,83.006 C88.554,82.891 88.158,82.834 87.671,82.834 C87.18,82.834 86.749,82.901 86.377,83.035 C86.004,83.17 85.72,83.361 85.523,83.61 C85.326,83.859 85.185,84.185 85.099,84.59 L86.044,84.719 C86.148,84.314 86.308,84.032 86.525,83.873 C86.741,83.714 87.077,83.634 87.532,83.634 C88.019,83.634 88.386,83.743 88.633,83.962 C88.816,84.123 88.907,84.4 88.907,84.795 C88.907,84.831 88.905,84.915 88.902,85.047 C88.533,85.176 87.959,85.287 87.178,85.38 C86.795,85.426 86.509,85.475 86.319,85.525 C86.061,85.597 85.829,85.702 85.624,85.842 C85.418,85.982 85.251,86.167 85.124,86.398 C84.997,86.629 84.934,86.884 84.934,87.164 C84.934,87.64 85.102,88.031 85.439,88.338 C85.775,88.644 86.257,88.797 86.884,88.797 C87.263,88.797 87.619,88.735 87.95,88.609 C88.282,88.483 88.626,88.268 88.984,87.964 C89.013,88.233 89.077,88.466 89.177,88.668 L90.187,88.668 C90.065,88.449 89.984,88.221 89.943,87.983 C89.899,87.746 89.878,87.177 89.878,86.278 L89.878,86.278 Z M88.901,86.16 C88.901,86.586 88.849,86.909 88.745,87.127 C88.609,87.41 88.396,87.633 88.106,87.795 C87.816,87.958 87.485,88.04 87.112,88.04 C86.736,88.04 86.45,87.954 86.256,87.782 C86.061,87.61 85.963,87.395 85.963,87.137 C85.963,86.969 86.008,86.816 86.097,86.678 C86.186,86.54 86.314,86.436 86.478,86.364 C86.642,86.292 86.924,86.228 87.321,86.171 C88.023,86.071 88.549,85.949 88.9,85.806 L88.901,86.16 L88.901,86.16 Z M88.901,86.16" class="Shape"/>
                <path d="M91.919,94.782 L91.919,95.809 L91.919,100.153 L86.499,100.607 L107.632,116.391 L104.67,119.856 L123.567,124.087 L115.486,108.422 L111.924,111.063" class="Shape"/>
            </g>
            <g class="background">
                <path d="M337.109,42.94 L289.685,76.766 L288.056,76.349 L181.879,152.069 L203.621,157.486 L206.082,155.706 L227.561,161.087 L222.828,164.456 L183.508,154.645 L177.147,155.478 L143.662,179.342 L138.738,178.129 L135.821,180.211 L124.457,181.422 L107.487,193.506 L110.783,198.619 L106.54,201.648 L107.79,201.99 L106.691,202.789 L119.191,205.893 L124.532,202.067 L132.261,203.963 L126.919,207.824 L135.177,209.871 L123.51,218.166 L119.419,217.145 L129.609,209.874 L104.381,203.585 L85.328,217.187 L75.516,214.724 L98.698,198.206 L95.138,192.601 L159.343,146.807 L114.078,135.519 L115.858,134.232 L162.714,145.595 L219.95,104.761 L202.979,100.519 L206.879,97.714 L223.733,101.919 L270.668,68.434 L263.356,66.618 L267.6,63.587 L264.755,62.868 L269.11,59.764 L265.51,58.855 L288.881,42.188 L315.055,48.704 L353.123,21.545 L361.799,23.704 L337.977,40.71 L337.109,42.94" class="walkway"/>
                <path d="M386.618,31.993 L423.472,41.198 L426.013,45.25 L426.013,48.696 L420.032,52.939 L424.501,54.077 L424.464,57.522 L388.403,83.242 L392.835,84.342 L392.796,87.788 L362.077,109.683 L359.347,109 L356.355,111.121 L306.808,98.768 L306.808,95.326 L311.505,91.992 L305.671,90.551 L304.534,91.349 L295.18,89.037 L288.662,93.694 L278.17,91.082 L278.135,92.898 L277.451,93.392 L288.055,96.04 L288.055,99.489 L279.117,105.849 L276.013,105.09 L275.974,108.084 L246.427,129.182 L256.956,131.795 L256.921,135.24 L254.308,137.095 L257.753,137.968 L257.714,141.411 L231.39,160.198 L253.702,165.766 L253.663,169.174 L238.357,180.121 L238.357,181.105 L235.669,183.039 L207.829,176.711 L207.866,173.266 L223.734,161.902 L206.163,157.51 L205.179,158.228 L218.929,161.674 L218.892,165.084 L205.9,174.37 L202.338,173.499 L202.338,175.13 L200.785,176.268 L208.889,178.274 L208.85,181.723 L206.462,183.425 L208.243,183.88 L208.243,185.999 L209.53,186.341 L209.53,187.403 L219.188,189.828 L232.788,191.838 L232.788,194.032 L238.887,194.903 L238.887,198.348 L206.993,221.117 L206.841,221.08 L206.841,221.041 L206.803,221.08 L137.902,212.367 L129.834,210.357 L129.834,211.57 L123.205,216.266 L123.773,216.417 L123.773,219.862 L114.72,226.3 L85.023,218.913 L85.061,215.468 L93.924,209.144 L94.114,209.033 L104.304,201.76 L106.273,202.215 L106.273,199.943 L109.076,197.974 L107.258,195.207 L107.296,191.76 L124.341,179.602 L135.705,178.426 L138.697,176.269 L143.621,177.518 L152.409,171.23 L152.598,171.12 L176.994,153.654 L181.613,153.087 L181.652,150.36 L195.855,140.208 L196.043,140.097 L214.035,127.255 L214.223,127.143 L220.434,122.71 L221.759,123.013 L221.759,121.728 L224.639,119.679 L224.829,119.567 L238.654,109.679 L238.842,109.567 L242.74,106.763 L242.93,106.651 L269.9,87.409 L271.795,87.863 L271.795,86.046 L287.971,74.493 L289.639,74.91 L336.91,41.16 L337.819,38.963 L361.759,21.879 L386.645,28.775 L386.618,31.993 M423.094,44.72 L382.754,34.682 L382.791,31.348 L361.848,25.516 L338.133,42.449 L337.225,44.682 L289.762,78.581 L288.096,78.166 L282.412,82.218 L304.42,87.711 L305.559,86.878 L315.596,89.379 L315.559,92.824 L310.899,96.158 L356.243,107.48 L359.233,105.324 L361.962,106.006 L388.704,86.954 L384.308,85.855 L384.347,82.408 L420.409,56.687 L415.935,55.55 L415.935,52.104 L424.122,46.308 L423.094,44.72 M291.277,88.052 L278.626,84.91 L275.898,86.879 L288.545,90.025 L291.277,88.052 M269.534,91.424 L273.589,92.408 L274.081,92.066 L270.027,91.045 L269.534,91.424 M271.92,107.256 L253.701,102.713 L253.36,102.939 L271.578,107.485 L271.92,107.256 M265.557,94.266 L283.778,98.771 L283.966,98.661 L265.747,94.116 L265.557,94.266 M279.989,101.461 L261.769,96.955 L260.784,97.674 L278.966,102.182 L279.989,101.461 M267.831,110.174 L249.607,105.629 L246.806,107.599 L265.025,112.144 L267.831,110.174 M195.668,144.116 L234.987,153.927 L235.481,153.546 L196.162,143.734 L195.668,144.116 M242.715,110.514 L260.936,115.06 L261.28,114.832 L243.057,110.285 L242.715,110.514 M228.702,120.515 L231.657,121.274 L231.616,124 L244.081,127.106 L248.284,124.115 L230.062,119.567 L228.702,120.515 M218.094,128.092 L250.406,136.158 L252.83,134.418 L220.557,126.349 L218.094,128.092 M207.904,135.402 L230.671,141.087 L230.634,144.493 L226.279,147.639 L239.271,150.857 L253.667,140.59 L214.35,130.778 L207.904,135.402 M226.581,143.698 L204.116,138.091 L199.95,141.046 L222.378,146.651 L226.581,143.698 M257.186,117.749 L238.965,113.206 L233.854,116.878 L252.075,121.425 L257.186,117.749 M124.571,183.206 L109.23,194.112 L110.972,196.841 L124.495,200.212 L127.184,198.279 L135.214,200.288 L135.214,203.732 L130.744,206.956 L138.093,208.772 L206.843,217.483 L234.308,197.864 L230.482,197.333 L230.521,195.101 L219.003,193.395 L207.902,190.63 L207.902,189.568 L205.478,188.964 L205.478,186.809 L202.372,186.048 L202.372,182.6 L204.796,180.896 L196.692,178.886 L196.692,175.44 L198.286,174.303 L196.352,173.848 L194.536,175.138 L190.597,174.152 L182.53,179.913 L179.196,179.079 L164.842,189.343 L135.788,182.032 L124.571,183.206 M97.979,209.985 L119.344,215.329 L125.783,210.745 L104.42,205.404 L97.979,209.985 M89.154,216.312 L114.61,222.638 L119.686,219.037 L119.458,218.961 L94.231,212.672 L89.154,216.312 M124.609,203.888 L121.541,206.045 L126.654,207.332 L126.654,206.119 L128.434,204.832 L124.609,203.888 M110.859,200.44 L109.23,201.579 L119.117,204.04 L120.709,202.903 L110.859,200.44 M236.807,177.487 L249.61,168.357 L227.639,162.901 L211.996,174.04 L235.558,179.382 L236.806,178.511 L236.807,177.487 M214.875,152.523 L195.291,147.638 L195.291,149.453 L208.356,152.711 L214.875,152.523 M204.081,155.288 L192.868,152.483 L192.907,150.667 L188.132,149.491 L185.71,151.195 L203.548,155.667 L204.081,155.288 M206.238,170.402 L171.089,161.653 L168.777,163.282 L188.058,168.094 L189.913,166.769 L205.784,170.747 L206.238,170.402 M214.836,164.266 L183.473,156.461 L177.26,157.256 L174.838,158.961 L209.988,167.711 L214.836,164.266 M177.073,174.797 L158.966,170.287 L156.465,172.066 L174.572,176.576 L177.073,174.797 M183.094,170.516 L164.99,165.97 L162.754,167.598 L180.824,172.108 L183.094,170.516 M182.413,176.274 L190.407,170.516 L190.027,170.441 L187.374,172.295 L186.2,171.992 L180.823,175.853 L182.413,176.274 M150.442,176.385 L168.514,180.896 L170.785,179.266 L152.716,174.756 L150.442,176.385 M144.572,180.592 L164.8,185.629 L166.921,184.111 L146.655,179.076 L144.572,180.592" class="wall"/>
                <path d="M353.359,23.242 L315.103,50.514 L288.928,44 L269.533,57.862 L269.345,57.975 L269.418,58.013 L269.379,61.459 L267.865,62.521 L267.826,65.287 L267.18,65.742 L270.93,66.688 L270.891,70.134 L223.772,103.734 L196.348,96.919 L196.348,98.016 L197.329,97.296 L220.21,103.017 L220.171,106.425 L162.748,147.407 L159.567,146.651 L159.567,148.505 L121.081,175.933 L119.302,175.515 L119.264,177.22 L96.839,193.241 L98.922,196.46 L98.884,199.907 L71.232,219.718 L64.452,220.438 L21.763,209.755 L21.688,209.677 L19.982,206.952 L19.982,203.505 L22.747,201.536 L21.952,201.307 L21.952,197.897 L72.18,162.063 L73.997,162.481 L73.997,160.775 L83.241,154.184 L87.332,155.205 L97.408,148.008 L92.256,146.722 L92.256,143.274 L101.082,136.989 L117.18,141.005 L117.142,144.452 L116.688,144.792 L123.315,146.421 L132.142,140.097 L129.452,139.451 L129.49,136.006 L133.961,132.823 L140.249,134.377 L142.181,132.977 L145.969,133.922 L147.978,132.484 L148.166,132.372 L152.371,129.378 L129.415,123.659 L129.453,120.212 L155.059,101.954 L155.135,101.954 L171.044,90.591 L168.811,90.063 L168.811,87.487 L147.978,82.299 L147.978,78.853 L151.689,54.61 L151.802,54.269 L151.802,54.231 L152.029,53.7 L152.067,53.588 L152.371,53.133 L152.371,53.093 C152.876,52.412 153.66,51.867 154.72,51.465 L155.856,51.197 L156.273,51.123 L156.348,51.123 L157.106,51.047 L158.09,51.047 L158.203,51.085 L159.454,51.197 L159.492,51.197 L160.25,51.349 L160.401,51.349 L160.704,51.423 L160.781,51.423 L173.167,54.492 L194.645,39.187 L173.246,33.846 L173.285,30.401 L192.867,16.422 L249.006,30.4 L266.469,17.938 L273.555,16.271 L294.043,1.688 L302.34,4.492 L353.4,19.794 L353.359,23.242 M294.118,5.365 L273.814,19.835 L266.693,21.502 L252.868,31.389 L275.443,36.994 L275.443,37.032 L314.988,46.843 L349.423,22.298 L302.072,8.056 L294.118,5.365 M285.064,43.053 L275.213,40.591 L274.037,41.424 L283.849,43.887 L285.064,43.053 M271.352,39.606 L192.983,20.062 L177.338,31.235 L269.422,54.191 L280.104,46.579 L269.916,44.041 L269.955,40.594 L271.352,39.606 M265.633,56.878 L198.547,40.136 L173.285,58.166 L159.38,54.795 L159.229,54.795 L159.191,54.757 L158.547,54.719 L158.433,54.681 L157.032,54.643 L155.782,54.794 L155.706,54.832 L154.949,55.021 L153.622,55.703 L153.584,55.741 L153.167,56.082 L153.092,56.157 L152.714,56.611 L152.184,57.633 L151.994,58.239 L148.85,78.883 L172.033,84.641 L171.994,87.215 L223.662,100.097 L266.807,69.3 L263.059,68.353 L263.096,64.907 L264.496,63.922 L264.496,61.194 L265.291,60.627 L265.215,60.589 L265.254,57.144 L265.633,56.878 M185.366,102.599 L192.262,97.674 L173.096,92.862 L159.004,102.9 L204.116,114.152 L207.716,111.613 L185.331,106.009 L185.366,102.599 M196.995,101.273 L215.671,105.931 L216.126,105.588 L197.45,100.932 L196.995,101.273 M192.792,104.264 L211.505,108.922 L211.921,108.619 L193.247,103.961 L192.792,104.264 M150.291,109.075 L195.441,120.362 L200.368,116.839 L155.177,105.591 L150.291,109.075 M160.026,127.635 L178.7,132.295 L179.191,131.953 L160.518,127.293 L160.026,127.635 M164.27,124.606 L182.983,129.266 L183.473,128.924 L164.762,124.265 L164.27,124.606 M152.07,133.319 L170.747,137.979 L170.935,137.829 L152.262,133.169 L152.07,133.319 M140.329,138.016 L134.079,136.461 L133.586,136.84 L136.162,137.485 L137.336,137.45 L162.639,143.774 L163.056,143.472 L160.896,142.939 L160.934,139.495 L161.237,139.266 L148.282,136.006 L146.086,137.599 L142.297,136.653 L140.329,138.016 M156.048,130.476 L174.723,135.135 L174.912,134.986 L156.236,130.327 L156.048,130.476 M164.988,140.327 L166.845,140.779 L166.955,140.669 L165.138,140.212 L164.988,140.327 M161.276,119.756 L187.225,126.235 L191.696,123.052 L146.506,111.764 C142.188,114.87 137.857,117.962 133.513,121.042 L152.757,125.854 L161.276,119.756 M96.352,144.116 L143.891,155.97 L144.686,155.366 L112.603,147.374 L112.641,143.966 L113.096,143.622 L101.163,140.671 L96.352,144.116 M127.185,147.407 L148.434,152.675 L155.481,147.675 L134.268,142.372 L127.185,147.407 M135.556,161.879 L96.769,152.219 L91.238,156.16 L130.026,165.853 L135.556,161.879 M126.238,168.547 L83.359,157.826 L78.093,161.576 L120.972,172.295 L126.238,168.547 M115.215,176.424 L72.298,165.703 L68.814,168.203 L111.729,178.887 L115.215,176.424 M100.556,149.53 L139.344,159.192 L140.101,158.661 L101.314,148.964 L100.556,149.53 M107.942,181.575 L65.063,170.892 L62.033,173.051 L104.949,183.735 L107.942,181.575 M101.162,186.422 L58.245,175.742 L55.215,177.9 L98.132,188.584 L101.162,186.422 M94.95,191.424 L51.465,180.592 L44.609,185.48 L95.972,198.284 L96.995,197.523 L94.912,194.305 L94.95,191.424 M92.185,200.97 L40.859,188.166 L32.942,193.81 L58.587,200.211 L62.413,197.482 L88.132,203.884 L92.185,200.97 M84.343,206.577 L62.525,201.122 L62.45,201.159 L67.714,202.484 L67.714,204.945 L72.411,206.12 L74.987,204.306 L84.267,206.617 L84.343,206.577 M26.843,202.372 L21.92,205.893 L22.108,206.236 L64.57,216.802 L71.01,216.12 L80.555,209.3 L75.1,207.939 L72.525,209.755 L64.607,207.786 L64.646,205.323 L29.154,196.5 L26.048,198.73 L26.881,198.919 L26.843,202.372" class="wall"/>
            </g>
            <g class="ceilings">
                <path class="unit" d="M111.653,179.083 L65.129,167.507 L72.187,162.46 L118.71,174.036 L111.653,179.083 L111.653,179.083 Z M111.653,179.083" id="2001"/>
                <path class="unit" d="M58.108,172.479 L104.67,184.09 L98.029,188.832 L51.505,177.222 L58.108,172.479 L58.108,172.479 Z M58.108,172.479" id="2002"/>
                <path class="unit" d="M104.861,183.941 L58.299,172.368 L64.902,167.624 L111.463,179.235 L104.861,183.941 L104.861,183.941 Z M104.861,183.941" id="2003"/>
                <path class="unit" d="M51.279,177.336 L97.841,188.946 L94.843,191.07 L98.41,196.687 L95.867,198.507 L40.843,184.808 L51.279,177.336 L51.279,177.336 Z M51.279,177.336" id="2004"/>
                <path class="unit" d="M58.413,200.447 L29.156,193.163 L40.654,184.927 L95.678,198.665 L87.975,204.13 L62.246,197.718 L58.413,200.447 L58.413,200.447 Z M58.413,200.447" id="2005"/>
                <path class="unit" d="M62.397,197.943 L87.784,204.279 L84.141,206.86 L74.845,204.546 L72.264,206.368 L64.977,204.546 L67.558,202.727 L58.755,200.526 L62.397,197.943 L62.397,197.943 Z M62.397,197.943" id="2006"/>
                <path class="unit" d="M74.958,204.774 L84.027,207.01 L70.859,216.42 L64.37,217.106 L21.869,206.481 L20.161,203.788 L26.612,199.159 L22.248,198.097 L28.965,193.277 L67.027,202.798 L64.485,204.622 L72.416,206.597 L74.958,204.774 L74.958,204.774 Z M74.958,204.774" id="2007"/>
                <path class="unit" d="M119.053,204.317 L106.872,201.247 L107.973,200.484 L106.72,200.143 L110.781,197.258 L124.252,200.598 L119.053,204.317 L119.053,204.317 Z M119.053,204.317" id="2008"/>
                <path class="unit" d="M135.75,178.779 L164.893,186.103 L179.276,175.857 L182.581,176.693 L190.663,170.922 L194.608,171.908 L196.465,170.58 L201.932,171.947 L196.772,175.627 L208.46,178.549 L202.464,182.799 L207.818,184.127 L205.578,185.723 L209.144,186.631 L208.005,187.43 L219.161,190.201 L232.441,192.172 L230.659,194.15 L238.474,195.251 L206.902,217.755 L138.067,209.026 L127.137,206.334 L135.182,200.563 L127.137,198.551 L124.443,200.447 L110.895,197.07 L107.632,192.022 L124.518,179.957 L135.75,178.779 L135.75,178.779 Z M135.75,178.779" id="2009"/>
                <path class="unit" d="M127.25,198.777 L134.688,200.598 L131.994,202.536 L124.595,200.675 L127.25,198.777 L127.25,198.777 Z M127.25,198.777" id="2010"/>
                <path class="unit" d="M114.537,222.95 L85.469,215.702 L94.122,209.514 L123.227,216.76 L114.537,222.95 L114.537,222.95 Z M114.537,222.95" id="2011"/>
                <path class="unit" d="M119.28,215.588 L94.311,209.362 L104.329,202.226 L129.298,208.453 L119.28,215.588 L119.28,215.588 Z M119.28,215.588" id="2012"/>
                <path class="unit" d="M183.525,153.165 L218.51,161.894 L210.086,167.925 L171.34,158.247 L177.299,153.962 L183.525,153.165 L183.525,153.165 Z M183.525,153.165" id="2013"/>
                <path class="unit" d="M171.118,158.363 L209.898,168.042 L205.877,170.925 L189.977,166.942 L188.12,168.309 L165.235,162.58 L171.118,158.363 L171.118,158.363 Z M171.118,158.363" id="2014"/>
                <path class="unit" d="M165.045,162.727 L187.891,168.416 L187.36,168.834 L186.145,168.53 L180.874,172.287 L159.205,166.897 L165.045,162.727 L165.045,162.727 Z M165.045,162.727" id="2015"/>
                <path class="unit" d="M159.012,167.016 L180.679,172.441 L174.607,176.768 L152.899,171.377 L159.012,167.016 L159.012,167.016 Z M159.012,167.016" id="2016"/>
                <path class="unit" d="M227.771,159.616 L253.347,165.991 L236.953,177.679 L238.015,177.945 L235.702,179.615 L208.456,173.43 L227.771,159.616 L227.771,159.616 Z M227.771,159.616" id="2017"/>
                <path class="unit" d="M152.712,171.53 L174.379,176.921 L168.537,181.095 L146.869,175.706 L152.712,171.53 L152.712,171.53 Z M152.712,171.53" id="2018"/>
                <path class="unit" d="M138.785,176.693 L143.719,177.943 L146.679,175.819 L170.51,181.777 L164.819,185.839 L136.056,178.667 L138.785,176.693 L138.785,176.693 Z M138.785,176.693" id="2019"/>
                <path class="unit" d="M271.791,107.551 L249.973,102.123 L253.881,99.314 L275.699,104.778 L271.791,107.551 L271.791,107.551 Z M271.791,107.551" id="2020"/>
                <path class="unit" d="M259.23,100.607 L253.95,99.268 L257.409,96.812 L262.663,98.129 L259.23,100.607 Z M259.23,100.607" id="2021"/>
                <path class="unit" d="M265.227,112.217 L243.411,106.791 L249.784,102.236 L271.604,107.701 L265.227,112.217 L265.227,112.217 Z M265.227,112.217" id="2022"/>
                <path class="unit" d="M243.217,106.945 L265.037,112.372 L261.129,115.182 L239.309,109.716 L243.217,106.945 L243.217,106.945 Z M243.217,106.945" id="2023"/>
                <path class="unit" d="M252.249,121.516 L230.431,116.088 L239.12,109.863 L260.939,115.289 L252.249,121.516 L252.249,121.516 Z M252.249,121.516" id="2024"/>
                <path class="unit" d="M231.266,121.402 L228.569,123.339 L222.423,121.784 L225.079,119.886 L231.266,121.402 L231.266,121.402 Z M231.266,121.402" id="2025"/>
                <path class="unit" d="M244.204,127.245 L228.911,123.413 L231.794,121.362 L225.306,119.731 L230.24,116.204 L252.062,121.63 L244.204,127.245 L244.204,127.245 Z M244.204,127.245" id="2026"/>
                <path class="unit" d="M230.275,141.249 L222.499,146.788 L196.466,140.3 L204.245,134.759 L230.275,141.249 L230.275,141.249 Z M230.275,141.249" id="2027"/>
                <path class="unit" d="M250.579,136.277 L214.683,127.321 L220.677,123.036 L256.613,131.989 L250.579,136.277 L250.579,136.277 Z M250.579,136.277" id="2028"/>
                <path class="unit" d="M214.454,127.473 L257.409,138.174 L239.423,151 L222.839,146.9 L230.808,141.209 L204.437,134.645 L214.454,127.473 L214.454,127.473 Z M214.454,127.473" id="2029"/>
                <path class="unit" d="M192.178,143.372 L196.278,140.452 L239.233,151.151 L235.135,154.075 L192.178,143.372 L192.178,143.372 Z M192.178,143.372" id="2030"/>
                <path class="unit" d="M234.943,154.19 L231.378,156.769 L215.062,152.707 L208.458,152.856 L193.507,149.138 L195.364,147.772 L188.421,146.027 L191.989,143.484 L234.943,154.19 L234.943,154.19 Z M234.943,154.19" id="2031"/>
                <path class="unit" d="M227.471,152.176 L227.659,152.101 L227.849,152.176 L227.922,152.367 L227.849,152.555 L227.659,152.629 L227.471,152.555 L227.395,152.367 L227.471,152.176 M225.495,151.76 L225.419,151.949 L225.231,152.022 L225.043,151.949 L224.967,151.76 L225.043,151.571 L225.231,151.497 L225.419,151.571 L225.495,151.76 M226.635,151.874 L226.709,152.062 L226.635,152.252 L226.446,152.326 L226.258,152.252 L226.185,152.062 L226.258,151.874 C226.31,151.823 226.371,151.798 226.446,151.798 L226.635,151.874 M229.062,152.482 L229.138,152.67 L229.062,152.858 L228.874,152.934 L228.685,152.858 L228.609,152.67 L228.685,152.482 L228.874,152.409 L229.062,152.482 M229.896,152.784 L230.084,152.708 L230.272,152.784 L230.348,152.972 L230.272,153.16 L230.084,153.234 L229.896,153.16 L229.822,152.972 L229.896,152.784 M232.706,153.393 L232.784,153.581 L232.706,153.769 L232.518,153.846 L232.329,153.769 L232.253,153.581 L232.329,153.393 C232.38,153.34 232.442,153.316 232.518,153.316 L232.706,153.393 M231.111,153.086 L231.299,153.012 L231.487,153.086 L231.561,153.275 L231.487,153.463 L231.299,153.539 L231.111,153.463 L231.036,153.275 L231.111,153.086 M217.754,149.749 L217.942,149.673 L218.13,149.749 L218.204,149.937 L218.13,150.125 L217.942,150.201 L217.754,150.125 L217.68,149.937 L217.754,149.749 M220.639,150.545 L220.563,150.733 L220.375,150.809 L220.184,150.733 L220.11,150.545 L220.184,150.357 C220.235,150.306 220.297,150.284 220.375,150.284 L220.563,150.357 L220.639,150.545 M221.396,150.659 L221.584,150.583 L221.772,150.659 L221.846,150.847 L221.772,151.035 L221.584,151.109 L221.396,151.035 L221.32,150.847 L221.396,150.659 M218.969,150.051 L219.158,149.977 L219.346,150.051 L219.419,150.242 L219.346,150.43 L219.158,150.504 L218.969,150.43 L218.893,150.242 L218.969,150.051 M223.825,151.267 L224.015,151.191 L224.203,151.267 L224.277,151.455 L224.203,151.643 L224.015,151.719 L223.825,151.643 L223.749,151.455 L223.825,151.267 M222.991,150.963 L223.066,151.151 L222.991,151.339 L222.802,151.415 L222.614,151.339 L222.536,151.151 L222.614,150.963 L222.802,150.889 L222.991,150.963 M214.491,148.836 L214.566,149.025 L214.491,149.214 L214.302,149.288 L214.113,149.214 L214.039,149.025 L214.113,148.836 C214.166,148.787 214.228,148.764 214.302,148.764 L214.491,148.836 M215.516,149.065 L215.705,149.142 L215.78,149.33 L215.705,149.518 L215.516,149.592 L215.328,149.518 L215.252,149.33 L215.328,149.142 L215.516,149.065 M216.54,149.446 L216.73,149.372 L216.918,149.446 L216.994,149.634 L216.918,149.825 L216.73,149.898 L216.54,149.825 L216.464,149.634 L216.54,149.446 M211.607,148.42 L211.683,148.232 L211.871,148.156 L212.059,148.232 L212.135,148.42 L212.059,148.608 L211.871,148.685 L211.683,148.608 L211.607,148.42 M210.848,148.306 L210.66,148.381 L210.471,148.306 L210.397,148.118 L210.471,147.93 L210.66,147.854 L210.848,147.93 L210.924,148.118 L210.848,148.306 M212.896,148.534 L213.084,148.458 L213.272,148.534 L213.346,148.723 L213.272,148.911 L213.084,148.986 L212.896,148.911 L212.82,148.723 L212.896,148.534 M208.04,147.32 C208.091,147.269 208.152,147.247 208.228,147.247 L208.416,147.32 L208.492,147.508 L208.416,147.699 L208.228,147.772 L208.04,147.699 L207.964,147.508 L208.04,147.32 M209.443,147.547 L209.631,147.623 L209.705,147.811 L209.631,147.999 L209.443,148.075 L209.255,147.999 L209.181,147.811 L209.255,147.623 L209.443,147.547 M206.827,147.018 L207.015,146.941 L207.203,147.018 L207.276,147.206 L207.203,147.394 L207.015,147.471 L206.827,147.394 L206.751,147.206 L206.827,147.018 M204.512,146.334 L204.701,146.408 L204.774,146.596 L204.701,146.784 L204.512,146.858 L204.321,146.784 L204.249,146.596 L204.321,146.408 L204.512,146.334 M205.611,146.711 L205.799,146.635 L205.987,146.711 L206.063,146.901 L205.987,147.089 L205.799,147.165 L205.611,147.089 L205.534,146.901 L205.611,146.711 M203.409,146.106 L203.486,146.294 L203.409,146.483 L203.221,146.558 L203.033,146.483 L202.955,146.294 L203.033,146.106 L203.221,146.031 L203.409,146.106 M202.271,145.993 L202.195,146.181 L202.007,146.255 L201.818,146.181 L201.744,145.993 L201.818,145.802 L202.007,145.727 L202.195,145.802 L202.271,145.993 M233.541,153.695 L233.729,153.622 L233.917,153.695 L233.993,153.883 L233.917,154.074 L233.729,154.148 L233.541,154.074 L233.463,153.883 L233.541,153.695 M234.68,154.19 L234.754,154.001 L234.942,153.927 L235.13,154.001 L235.206,154.19 L235.13,154.378 L234.942,154.454 L234.754,154.378 L234.68,154.19 M191.797,143.297 L191.988,143.223 L192.176,143.297 L192.252,143.485 L192.176,143.673 L191.988,143.749 L191.797,143.673 L191.723,143.485 L191.797,143.297 M194.493,143.906 L194.683,143.981 L194.756,144.169 L194.683,144.359 L194.493,144.435 L194.305,144.359 L194.229,144.169 L194.305,143.981 L194.493,143.906 M193.088,143.676 L193.276,143.601 L193.464,143.676 L193.542,143.867 L193.464,144.055 L193.276,144.129 L193.088,144.055 L193.014,143.867 L193.088,143.676 M195.973,144.284 L196.047,144.472 L195.973,144.66 L195.785,144.734 L195.595,144.66 L195.521,144.472 L195.595,144.284 L195.785,144.208 L195.973,144.284 M196.809,144.586 L196.997,144.512 L197.187,144.586 L197.261,144.775 L197.187,144.963 L196.997,145.039 L196.809,144.963 L196.733,144.775 L196.809,144.586 M198.211,144.815 L198.399,144.891 L198.475,145.079 L198.399,145.268 L198.211,145.342 L198.022,145.268 L197.946,145.079 L198.022,144.891 L198.211,144.815 M199.691,145.196 L199.767,145.384 L199.691,145.575 L199.503,145.647 L199.314,145.575 L199.238,145.384 L199.314,145.196 C199.367,145.145 199.427,145.12 199.503,145.12 L199.691,145.196 M200.604,145.499 L200.792,145.425 L200.98,145.499 L201.056,145.687 L200.98,145.875 L200.792,145.951 L200.604,145.875 L200.526,145.687 L200.604,145.499" id="2032"/>
                <path class="unit" d="M189.18,152.215 L182.2,150.469 L188.233,146.183 L194.876,147.853 L192.98,149.181 L189.18,152.215 L189.18,152.215 Z M189.18,152.215" id="2033"/>
                <path class="unit" d="M295.127,85.541 L288.791,90.058 L272.551,86.037 C274.678,84.545 276.789,83.04 278.889,81.52 L295.127,85.541 L295.127,85.541 Z M295.127,85.541" id="2034"/>
                <path class="unit" d="M383.206,31.163 L423.62,41.257 L426.087,45.203 L416.411,52.11 L424.456,54.121 L384.724,82.431 L392.733,84.444 L362.336,106.11 L359.606,105.426 L356.608,107.551 L307.618,95.33 L315.891,89.449 L305.834,86.944 L304.694,87.742 L279.08,81.367 L288.377,74.724 L290.01,75.141 L337.633,41.178 L338.469,38.978 L362.262,22.015 L386.549,28.769 L383.206,31.163 L383.206,31.163 Z M383.206,31.163" id="2035"/>
                <path class="unit" d="M277.863,89.565 L273.801,92.486 L266.174,90.59 L270.274,87.669 L277.863,89.565 L277.863,89.565 Z M277.863,89.565" id="2036"/>
                <path class="unit" d="M287.768,96.166 L284.012,98.859 L262.192,93.394 L265.987,90.703 L287.768,96.166 L287.768,96.166 Z M287.768,96.166" id="2037"/>
                <path class="unit" d="M279.191,102.277 L257.409,96.812 L262.001,93.547 L283.784,98.975 L279.191,102.277 L279.191,102.277 Z M279.191,102.277" id="2038"/>
                <path class="unit" d="M270.652,40.498 L275.472,37.083 L288.868,40.459 L284.087,43.875 L270.652,40.498 L270.652,40.498 Z M270.652,40.498" id="2039"/>
                <path class="unit" d="M294.37,1.83 L302.378,4.522 L353.23,19.74 L315.281,46.835 L249.519,30.441 L266.937,17.956 L274.07,16.325 L294.37,1.83 L294.37,1.83 Z M294.37,1.83" id="2040"/>
                <path class="unit" d="M193.088,16.552 L275.131,37.006 L270.16,40.573 L283.895,43.987 L269.626,54.158 L173.809,30.289 L193.088,16.552 L193.088,16.552 Z M193.088,16.552" id="2041"/>
                <path class="unit" d="M162.009,51.883 L173.358,54.691 L198.629,36.667 L269.441,54.313 L265.458,57.159 L269.101,58.069 L264.703,61.181 L267.549,61.902 L263.299,64.938 L270.623,66.757 L223.795,100.153 L169.379,86.606 L172.035,84.669 L148.393,78.787 L151.959,55.297 C152.085,54.386 152.338,53.665 152.718,53.134 C153.249,52.451 154.008,51.933 154.995,51.578 L156.399,51.236 C157.734,51.06 159.606,51.276 162.009,51.883 L162.009,51.883 Z M162.009,51.883" id="2042"/>
                <path class="unit" d="M197.529,97.571 L219.8,103.111 L215.779,105.997 L193.507,100.458 L197.529,97.571 L197.529,97.571 Z M197.529,97.571" id="2043"/>
                <path class="unit" d="M195.936,95.18 L185.422,102.656 L211.377,109.145 L204.205,114.268 L155.444,102.086 L173.129,89.485 L195.936,95.18 L195.936,95.18 Z M195.936,95.18" id="2044"/>
                <path class="unit" d="M193.316,100.57 L215.588,106.148 L211.567,108.995 L189.331,103.454 L193.316,100.57 L193.316,100.57 Z M193.316,100.57" id="2045"/>
                <path class="unit" d="M155.217,102.239 L204.018,114.384 L195.516,120.454 L146.716,108.271 L155.217,102.239 L155.217,102.239 Z M155.217,102.239" id="2046"/>
                <path class="unit" d="M187.284,126.334 L161.326,119.847 L152.75,125.955 L129.906,120.264 L146.527,108.422 L195.327,120.605 L187.284,126.334 L187.284,126.334 Z M187.284,126.334" id="2047"/>
                <path class="unit" d="M182.995,129.37 L160.72,123.831 L164.817,120.909 L187.091,126.486 L182.995,129.37 L182.995,129.37 Z M182.995,129.37" id="2048"/>
                <path class="unit" d="M178.745,132.444 L156.469,126.868 L160.531,123.982 L182.804,129.523 L178.745,132.444 L178.745,132.444 Z M178.745,132.444" id="2049"/>
                <path class="unit" d="M174.76,135.29 L152.485,129.714 L156.281,127.021 L178.556,132.56 L174.76,135.29 L174.76,135.29 Z M174.76,135.29" id="2050"/>
                <path class="unit" d="M148.5,132.558 L152.295,129.866 L174.57,135.406 L170.775,138.135 L148.5,132.558 L148.5,132.558 Z M148.5,132.558" id="2051"/>
                <path class="unit" d="M170.586,138.25 L166.867,140.904 L161.439,139.576 L165.158,136.922 L170.586,138.25 L170.586,138.25 Z M170.586,138.25" id="2052"/>
                <path class="unit" d="M140.341,134.721 L142.315,133.318 L146.11,134.266 L148.311,132.709 L164.855,136.847 L160.948,139.618 L166.676,141.058 L162.655,143.909 L137.344,137.606 L136.129,137.606 L129.983,136.086 L134.081,133.164 L140.341,134.721 L140.341,134.721 Z M140.341,134.721" id="2053"/>
                <path class="unit" d="M134.231,139.047 L159.086,145.272 L148.423,152.861 L123.567,146.674 L134.231,139.047 L134.231,139.047 Z M134.231,139.047" id="2054"/>
                <path class="unit" d="M112.564,144.092 L148.235,152.974 L143.833,156.121 L92.679,143.371 L101.104,137.338 L116.586,141.209 L112.564,144.092 L112.564,144.092 Z M112.564,144.092" id="2055"/>
                <path class="unit" d="M101.217,145.688 L143.68,156.238 L139.316,159.349 L96.891,148.763 L101.217,145.688 L101.217,145.688 Z M101.217,145.688" id="2056"/>
                <path class="unit" d="M129.982,166.028 L87.556,155.441 L96.702,148.915 L139.127,159.503 L129.982,166.028 L129.982,166.028 Z M129.982,166.028" id="2057"/>
                <path class="unit" d="M120.912,172.479 L74.389,160.87 L83.23,154.568 L129.792,166.142 L120.912,172.479 L120.912,172.479 Z M120.912,172.479" id="2058"/>
                <path class="unit" d="M152.522,109.903 L152.674,109.868 L152.788,109.903 L152.864,110.056 L152.788,110.168 L152.674,110.244 L152.522,110.168 L152.484,110.056 L152.522,109.903 M153.927,110.36 L153.851,110.472 L153.737,110.547 L153.586,110.472 L153.548,110.36 L153.586,110.21 L153.737,110.173 L153.851,110.21 L153.927,110.36 M153.927,111.156 L154.04,111.193 L154.116,111.342 L154.04,111.457 L153.927,111.531 L153.775,111.457 L153.737,111.342 L153.775,111.193 L153.927,111.156 M152.826,111.801 L152.978,111.765 L153.092,111.801 L153.167,111.953 L153.092,112.064 L152.978,112.14 L152.826,112.064 L152.788,111.953 L152.826,111.801 M154.686,110.51 L154.837,110.472 L154.951,110.51 L155.027,110.66 L154.951,110.773 L154.837,110.85 L154.686,110.775 L154.648,110.663 L154.686,110.51 M150.663,109.448 L150.588,109.56 L150.474,109.633 L150.322,109.56 L150.284,109.448 L150.322,109.298 L150.474,109.259 L150.588,109.298 L150.663,109.448 M151.46,109.6 L151.612,109.562 L151.726,109.6 L151.803,109.75 L151.726,109.863 L151.612,109.938 L151.46,109.863 L151.422,109.75 L151.46,109.6 M149.184,108.993 L149.335,108.954 L149.449,108.993 L149.525,109.143 L149.449,109.256 L149.335,109.33 L149.184,109.256 L149.146,109.143 L149.184,108.993 M151.916,112.485 L152.067,112.447 L152.181,112.485 L152.257,112.635 L152.181,112.748 L152.067,112.824 L151.916,112.748 L151.878,112.635 L151.916,112.485 M151.005,113.166 L151.156,113.129 L151.27,113.166 L151.346,113.317 L151.27,113.43 L151.156,113.503 L151.005,113.43 L150.967,113.317 L151.005,113.166 M150.359,114.116 L150.246,114.191 L150.094,114.116 L150.056,114.003 L150.094,113.853 L150.246,113.815 L150.359,113.853 L150.435,114.003 L150.359,114.116 M149.146,114.685 L149.184,114.536 L149.335,114.497 L149.449,114.536 L149.525,114.685 L149.449,114.797 L149.335,114.873 L149.184,114.797 L149.146,114.685 M148.538,115.215 L148.615,115.367 L148.538,115.48 L148.425,115.555 L148.273,115.48 L148.235,115.367 L148.273,115.215 L148.425,115.178 L148.538,115.215 M148.311,108.691 L148.387,108.838 L148.311,108.951 L148.197,109.027 L148.045,108.951 L148.007,108.838 L148.045,108.691 L148.197,108.653 L148.311,108.691 M146.906,108.422 L147.058,108.385 L147.172,108.422 L147.248,108.576 L147.172,108.688 L147.058,108.763 L146.906,108.688 L146.868,108.576 L146.906,108.422 M146.185,108.577 L146.262,108.726 L146.185,108.836 L146.072,108.914 L145.92,108.836 L145.882,108.726 L145.92,108.577 L146.072,108.54 L146.185,108.577 M145.009,109.258 L145.161,109.222 L145.275,109.258 L145.351,109.41 L145.275,109.521 L145.161,109.597 L145.009,109.521 L144.972,109.41 L145.009,109.258 M144.363,109.942 L144.44,110.092 L144.363,110.207 L144.25,110.283 L144.099,110.207 L144.06,110.092 L144.099,109.942 L144.25,109.903 L144.363,109.942 M141.367,111.991 L141.518,111.954 L141.632,111.991 L141.708,112.141 L141.632,112.254 L141.518,112.33 L141.367,112.254 L141.328,112.141 L141.367,111.991 M142.429,111.649 L142.277,111.575 L142.239,111.462 L142.277,111.311 L142.429,111.274 L142.543,111.311 L142.619,111.462 L142.543,111.575 L142.429,111.649 M143.187,110.625 L143.339,110.586 L143.452,110.625 L143.528,110.774 L143.452,110.888 L143.339,110.962 L143.187,110.888 L143.149,110.774 L143.187,110.625 M140.759,114.571 L140.911,114.536 L141.025,114.571 L141.1,114.723 L141.025,114.836 L140.911,114.912 L140.759,114.836 L140.721,114.723 L140.759,114.571 M140.721,112.94 L140.608,113.015 L140.456,112.94 L140.418,112.827 L140.456,112.677 L140.608,112.64 L140.721,112.677 L140.797,112.827 L140.721,112.94 M141.822,114.875 L141.973,114.836 L142.087,114.875 L142.163,115.025 L142.087,115.137 L141.973,115.21 L141.822,115.137 L141.784,115.025 L141.822,114.875 M144.099,115.483 L144.25,115.445 L144.363,115.483 L144.44,115.633 L144.363,115.746 L144.25,115.822 L144.099,115.746 L144.06,115.633 L144.099,115.483 M143.225,115.176 L143.302,115.326 L143.225,115.441 L143.111,115.517 L142.959,115.441 L142.921,115.326 L142.959,115.176 L143.111,115.14 L143.225,115.176 M145.236,115.786 L145.388,115.749 L145.502,115.786 L145.578,115.936 L145.502,116.047 L145.388,116.123 L145.236,116.047 L145.198,115.936 L145.236,115.786 M146.375,116.051 L146.528,116.014 L146.641,116.051 L146.717,116.203 L146.641,116.314 L146.528,116.39 L146.375,116.314 L146.337,116.203 L146.375,116.051 M147.628,115.9 L147.703,116.049 L147.628,116.164 L147.514,116.238 L147.362,116.164 L147.324,116.049 L147.362,115.9 L147.514,115.862 L147.628,115.9 M139.886,113.508 L139.811,113.621 L139.697,113.697 L139.544,113.621 L139.506,113.508 L139.544,113.359 L139.697,113.321 L139.811,113.359 L139.886,113.508 M139.697,114.268 L139.848,114.23 L139.962,114.268 L140.038,114.418 L139.962,114.531 L139.848,114.605 L139.697,114.531 L139.659,114.418 L139.697,114.268 M138.937,114.116 L138.861,114.228 L138.747,114.304 L138.595,114.228 L138.557,114.116 L138.595,113.966 L138.747,113.927 L138.861,113.966 L138.937,114.116" id="2059"/>
        </g>
    </g>
</svg>