<?xml version="1.0" encoding="utf-8"?>
<!DOCTYPE svg PUBLIC "-//W3C//DTD SVG 1.1//EN" "http://www.w3.org/Graphics/SVG/1.1/DTD/svg11.dtd">
<svg version="1.1" xmlns="http://www.w3.org/2000/svg" xmlns:xlink="http://www.w3.org/1999/xlink" xml:space="preserve">
<g class="level" id="level0">
        <g class="outline">
            <path d="M433.2,59.1 L432.1,57.8 L433.9,56.5 L422,46.1 L412.4,43 L412.4,41.1 L382,31.1 L357.2,23.9 L304.8,8.3 L295.5,5.2 L281,15.4 L223.4,0.7 L195.1,21.9 L178.1,34.1 L178,39.4 L179,39.8 L200,45.1 L177.4,61.2 L159.4,56.7 L158.1,56.4 L156,56.1 L154.1,56.1 L152.1,56.5 L151.9,56.6 C150.5,57.1 149.5,57.9 148.8,58.8 C148.3,59.5 147.9,60.4 147.8,61.3 L144.7,81.6 L143.4,90.5 L143.4,95.4 L148.2,96.6 L141.8,101.1 L141.3,106.6 L78,151.3 L66.2,166.3 L56.4,173.7 L24.9,196.2 L24.8,201.7 L110.9,223.1 L111.8,223.1 L113.4,221.9 L116.3,222.6 L121.8,218.7 L122,218.8 L122,221.8 L134.8,225 L206.7,234.1 L240.6,209.9 L240.7,204.3 L216.2,200.8 L209.4,199.1 L209.4,194.9 L205.7,194 L205.7,189.8 L241.1,198.6 L259.2,185.6 L259.3,180.1 L253.2,178.6 L260.9,173 L262.9,173.5 L283,159.1 L283,155 L283,153.6 L258.3,147.5 L256.9,148.5 L237.4,143.8 L240,142 L240,141.8 L241.3,142.1 L274.6,118.3 L274.6,115.4 L277.5,116.1 L288.4,108.4 L288.4,105.3 L291.5,106.1 L301.6,98.9 L301.6,98.1 L310,100.2 L307.2,102.2 L307.2,107.7 L362.9,121.6 L399,96.2 L399.1,90.7 L396.5,90.1 L433.2,63.9 L433.2,59.1 L433.2,59.1 Z M433.2,59.1" class="outline"/>
        </g>
        <g class="label">
            <path d="M11.9,105.2 C9,105.2 7.2,107.5 7.2,111.1 C7.2,114.5 9,116.6 11.9,116.6 C14.8,116.6 16.6,114.2 16.6,110.6 C16.6,107.3 14.8,105.2 11.9,105.2 L11.9,105.2 L11.9,105.2 Z M11.9,115.5 C9.8,115.5 8.5,113.8 8.5,111.2 C8.5,108.2 9.7,106.4 11.9,106.4 C14.1,106.4 15.3,108.1 15.3,110.6 C15.3,113.6 14.1,115.5 11.9,115.5 L11.9,115.5 L11.9,115.5 Z M38.4,115.3 L33.6,115.3 L33.6,111.4 L37.5,111.4 C37.9,111.4 38.1,111.1 38.1,110.8 C38.1,110.5 37.9,110.2 37.5,110.2 L33.6,110.2 L33.6,106.5 L38.2,106.5 C38.6,106.5 38.8,106.2 38.8,105.9 C38.8,105.6 38.6,105.3 38.2,105.3 L33.4,105.3 C32.7,105.3 32.3,105.7 32.3,106.3 L32.3,115.6 C32.3,116.2 32.7,116.6 33.4,116.6 L38.3,116.6 C38.7,116.6 38.9,116.3 38.9,116 C39,115.6 38.8,115.3 38.4,115.3 L38.4,115.3 L38.4,115.3 Z M29.9,105.3 C29.6,105.3 29.4,105.6 29.3,105.9 C28.9,109 28.3,112 27.5,115.1 L27.5,115.1 C26.6,112.3 25.9,108.9 25.2,106.6 C24.9,105.6 24.6,105.3 24.1,105.3 C23.7,105.3 23.3,105.6 23.1,106.5 C22.4,108.8 21.5,112.5 20.7,115.1 L20.7,115.1 C19.9,112 19.5,109 19.1,105.9 C19,105.5 18.8,105.3 18.4,105.3 C18,105.3 17.8,105.6 17.8,105.9 L17.8,106.3 C18.2,109.4 18.8,112.6 19.5,115.3 C19.7,116.3 20.1,116.6 20.6,116.6 C21.1,116.6 21.4,116.3 21.7,115.5 C22.6,113 23.2,110.3 24.1,107.1 L24.1,107.1 C25.1,110.3 25.6,113 26.4,115.5 C26.7,116.4 27,116.6 27.5,116.6 C28,116.6 28.3,116.3 28.5,115.5 C29.3,112.5 29.9,109.4 30.4,106.2 L30.4,105.8 C30.5,105.6 30.3,105.3 29.9,105.3 L29.9,105.3 L29.9,105.3 Z M6.2,115.4 L1.9,115.4 L1.9,106 C1.9,105.6 1.6,105.3 1.3,105.3 C0.9,105.3 0.7,105.6 0.7,106 L0.7,115.6 C0.7,116.2 1.1,116.6 1.8,116.6 L6.3,116.6 C6.7,116.6 7,116.3 7,116 C6.9,115.6 6.6,115.4 6.2,115.4 L6.2,115.4 L6.2,115.4 Z M72.3,106.8 C71.7,105.6 71.2,105.2 70.6,105.2 C70,105.2 69.5,105.6 68.9,106.8 C68,108.6 67.3,110.9 66.1,115.5 C66,115.7 66,115.9 66,116 C66,116.4 66.3,116.6 66.6,116.6 C66.9,116.6 67.1,116.4 67.2,116.1 C67.5,114.7 67.8,113.5 68.1,112.4 L73,112.4 C73.3,113.5 73.6,114.7 73.9,116.1 C74,116.4 74.2,116.6 74.5,116.6 C74.9,116.6 75.1,116.4 75.1,116 C75.1,115.9 75.1,115.7 75,115.5 C73.9,110.9 73.1,108.6 72.3,106.8 L72.3,106.8 L72.3,106.8 Z M68.5,111.3 C69.2,108.9 69.9,107.3 70.4,106.5 C70.4,106.4 70.5,106.4 70.6,106.4 C70.7,106.4 70.8,106.5 70.8,106.5 C71.3,107.3 72,108.8 72.7,111.3 L68.5,111.3 L68.5,111.3 Z M90,115.4 L85.7,115.4 L85.7,106 C85.7,105.6 85.4,105.3 85.1,105.3 C84.7,105.3 84.5,105.6 84.5,106 L84.5,115.6 C84.5,116.2 84.9,116.6 85.6,116.6 L90,116.6 C90.4,116.6 90.7,116.3 90.7,116 C90.6,115.6 90.4,115.4 90,115.4 L90,115.4 L90,115.4 Z M63.7,106.6 C63.6,105.8 63.3,105.3 62.6,105.3 C62,105.3 61.7,105.7 61.5,106.1 C60.7,108.3 59.8,111.1 58.8,113.8 L58.8,113.8 C57.8,111.3 57,108.7 56,106.3 C55.8,105.7 55.5,105.3 54.9,105.3 C54.2,105.3 53.9,105.7 53.8,106.6 C53.4,109.5 53.3,112.7 53.3,115.9 C53.3,116.3 53.5,116.5 53.9,116.5 C54.3,116.5 54.5,116.3 54.5,115.8 C54.5,112.7 54.7,109.8 55,106.8 L55,106.8 C56,109.4 56.9,112.1 58,114.7 C58.1,115 58.4,115.3 58.8,115.3 C59.2,115.3 59.5,115.1 59.6,114.7 C60.6,112.2 61.5,109.5 62.4,106.8 L62.4,106.8 C62.8,109.8 63,112.8 63.1,115.8 C63.1,116.2 63.3,116.5 63.7,116.5 C64.1,116.5 64.3,116.2 64.3,115.8 L64.3,115.3 C64.4,112.4 64.1,109.4 63.7,106.6 L63.7,106.6 L63.7,106.6 Z M82.4,115.4 L78.1,115.4 L78.1,106 C78.1,105.6 77.8,105.3 77.5,105.3 C77.1,105.3 76.9,105.6 76.9,106 L76.9,115.6 C76.9,116.2 77.3,116.6 78,116.6 L82.5,116.6 C82.9,116.6 83.2,116.3 83.2,116 C83,115.6 82.8,115.4 82.4,115.4 L82.4,115.4 L82.4,115.4 Z M46.5,112.4 C46.2,112 45.9,111.7 45.5,111.4 C46.9,110.9 47.9,109.9 47.9,108.4 C47.9,106.5 46.6,105.2 43.7,105.2 C42.6,105.2 41.8,105.3 41.3,105.5 C40.9,105.6 40.8,105.9 40.8,106.3 L40.8,116 C40.8,116.4 41.1,116.6 41.4,116.6 C41.8,116.6 42,116.4 42,116 L42,111.8 L43.2,111.8 C44.4,111.8 44.8,112.3 45.4,113.2 C45.8,113.8 46.2,114.8 46.7,116.2 C46.8,116.5 47,116.6 47.3,116.6 C47.6,116.6 47.9,116.4 47.9,116 C47.9,115.9 47.9,115.7 47.8,115.6 C47.5,114.4 47,113.2 46.5,112.4 L46.5,112.4 L46.5,112.4 Z M43.4,110.6 L42,110.6 L42,106.6 C42.4,106.5 42.9,106.5 43.6,106.5 C45.9,106.5 46.6,107.4 46.6,108.6 C46.6,110.1 45,110.6 43.4,110.6 L43.4,110.6 L43.4,110.6 Z M43.4,110.6" class="Shape"/>
        </g>
        <g class="background">
            <path d="M421.2,47.4 L410.7,43.9 L406.9,46.6 L332.1,58.9 L289.2,48.2 L264.9,65.5 L275.2,68.1 L260.4,78.7 L262.7,82 L223.4,110 L219.3,110.4 L153.9,94.5 L143.1,102.1 L142.6,107.6 L78.9,152.6 L67.2,167.6 L56.7,175 L123.3,191.2 L136.2,197.3 L116.5,211.3 L107,218.2 L110.6,220 L116,221.3 L150.7,196.5 L143.5,186.3 L180.9,159.6 L185.8,158.9 L197.8,162.2 L187,170.2 L197.4,172.8 L186.7,180.4 L198.6,183.5 L201,187.3 L241,197 L257.7,185.1 L257.8,181.5 L251.1,180 L249.6,179.6 L260.7,171.6 L262.7,172.1 L281.6,158.6 L281.6,156.5 L255.7,150 L234,144.7 L209,138.3 L301.7,73.4 L342.6,67.4 L348.8,62.9 L398.1,54.6 L410.1,57.6 L421,56.3 L428.8,58.3 L431.5,56.4 L421.2,47.4 L421.2,47.4 Z M421.2,47.4" class="walkway"/>
            <path d="M431.7,59.6 L429,56.4 L421,54.4 L410.2,55.7 L407.2,54.9 L405.9,55.8 L405.9,54.6 L398.2,52.7 L386.2,54.7 L386,54.7 L348.9,61.3 L343.2,65.5 L301.7,71.5 L279,87.6 L279,89.5 L277,89 L233.1,120.4 L232.9,120.5 L217.8,131.3 L217.8,132.6 L216.5,132.3 L207.6,138.7 L207.4,138.8 L194.8,147.8 L194.6,147.9 L194.6,151.3 L194.7,151.2 L219.1,157.4 L228.4,150.6 L231,148.7 L230.9,144.5 L223.5,142.6 L224,142.2 L234,144.7 L238.6,141.4 L238.6,140.1 L241,140.7 L273.1,117.8 L273.1,114.2 L265.9,112.4 L266.4,112.1 L277.3,114.8 L287,107.9 L287,104.3 L277.3,101.9 L278,101.4 L291.3,104.7 L300.3,98.3 L300.3,96.4 L313.7,99.8 L308.9,103.2 L308.9,106.8 L362.8,120.2 L397.5,95.4 L397.5,91.8 L392.9,90.7 L431.6,63.1 L431.7,59.6 L431.7,59.6 Z M207,200.4 L207.7,199.9 L207.7,196.4 L202.3,195 L203.7,194 L203.6,190.2 L199.3,183.1 L191.6,181.3 L197.5,176.9 L197.4,172.8 L190.6,171.1 L192.6,169.8 L197.9,171.1 L201.8,168.3 L205.3,165.8 L205.3,162.1 L196.9,159.9 L211.1,163.3 L222.3,155.2 L195.4,147.5 L190.9,150.7 L188.4,152.5 L188.4,156.1 L190.3,158.3 L185.9,157.2 L180.8,157.9 L174.4,162.5 L174.2,162.6 L153.4,177.5 L153.2,177.6 L143.4,184.5 L143.4,188.1 L147.6,194.3 L148.5,194.2 L148.5,195.6 L148.9,196.1 L123.2,214.4 L123.2,217.9 L123.6,218 L123.6,221 L135.2,223.9 L206.1,232.9 L206.3,232.9 L239.1,209.5 L239.1,206 L215.9,202.7 L207,200.4 L207,200.4 Z M207,200.4" class="wall"/>
            <path d="M381.4,32.5 L381.4,32.5 L356.8,25.4 L356.6,25.4 L304.3,9.7 L295.8,6.8 L281.4,17 L223.7,2.3 L196,23.1 L179.6,34.8 L179.6,38.3 L179.8,38.4 L203.6,44.3 L184.6,57.8 L184.4,57.9 L177.7,62.7 L159,58.1 L157.8,57.9 L157.4,57.8 L155.9,57.6 L154.1,57.6 L152.5,58 C151.4,58.4 150.6,59 150.1,59.7 C149.7,60.2 149.5,60.8 149.4,61.6 L146.1,82 L146.1,82.1 L144.8,90.7 L144.8,94.3 L167.1,99.8 L145.6,115.1 L141.9,114.2 L111.8,135.7 L111.8,139.7 L135.3,145.2 L135.4,149.1 L158.7,154.8 L163.4,151.5 L169.4,150.6 L187.7,137.6 L187.7,136.4 L218.9,114.1 L218.9,112 L223.5,111.8 L262.8,83.7 L262.8,80.2 L262.2,79.3 L278,68.1 L278,64.4 L268.9,64.7 L289.2,50 L317.3,57 L317.5,57.1 L332,60.7 L351.3,57.5 L351.3,56 L354.3,57 L368.7,54.6 L368.8,54.6 L378.6,52.9 L378.7,52.9 L406.9,48.4 L410.8,45.6 L410.8,42 L381.4,32.5 L381.4,32.5 Z M381.4,32.5" class="wall"/>
            <path d="M161.9,160.4 L161.9,155.9 L114.7,144 L78,170.3 L77.9,173.4 L64.3,170 L26.3,197.1 L26.3,197.2 L26.2,197.2 L26.2,200.8 L111.2,221.9 L111.3,221.9 L120.3,215.5 L120.3,213.2 L136.2,201.9 L136.2,197.4 L131.9,191 L122.4,188.6 L161.9,160.4 L161.9,160.4 Z M161.9,160.4" class="wall"/>
            <path d="M184.5,142.8 L184.5,146.3 L190.9,147.9 L196.2,144.1 L196.2,140.5 L189.8,138.9 L184.5,142.8 L184.5,142.8 Z M229.4,120.3 L229.4,116.7 L223,115.1 L217.7,119 L217.7,122.5 L224.1,124.1 L229.4,120.3 L229.4,120.3 Z M203.8,129.2 L203.8,132.7 L210.2,134.3 L215.5,130.5 L215.5,126.9 L209.1,125.3 L203.8,129.2 L203.8,129.2 Z M246.1,99.2 L246.1,102.9 L251.8,104.4 L256.6,101 L256.6,97.2 L250.9,95.8 L246.1,99.2 L246.1,99.2 Z M272.1,79 L267.3,82.4 L267.3,85.6 L273,87 L277.8,83.6 L277.8,80.4 L272.1,79 L272.1,79 Z M222.5,168.4 L222.5,171.9 L228.9,173.5 L234.2,169.7 L234.2,166.1 L227.8,164.5 L222.5,168.4 L222.5,168.4 Z M222.5,168.4" class="wall"/>
            <path d="M216.4,171.4 L206.6,169 L190,180.9 L190,184.6 L240.8,197.2 L257.7,185 L257.7,181.4 L233.9,175.6 L216.4,171.4 L216.4,171.4 Z M275.3,153.5 L258.8,149.4 L255,152 L232.9,146.5 L217.7,157.4 L217.7,160.9 L262.7,172 L281.6,158.4 L281.6,154.8 L275.3,153.5 L275.3,153.5 Z M147.8,169.2 L147.8,172.7 L154.2,174.3 L159.5,170.5 L159.5,166.9 L153.1,165.4 L147.8,169.2 L147.8,169.2 Z M147.8,169.2" class="wall"/>
        </g>
        <g class="ceilings">
            <path class="unit" d="M190.8,158.5 L182.5,164.4 L174.5,162.4 L180.8,157.9 L185.6,157.2 L190.8,158.5 L190.8,158.5 Z M190.8,158.5" id="1006"/>
            <path class="unit" d="M199.6,160.7 L191.3,166.6 L182.8,164.5 L191.1,158.6 L199.6,160.7 L199.6,160.7 Z M199.6,160.7" id="1007"/>
            <path class="unit" d="M205.2,162.1 L197.9,167.3 L192.7,166 L199.9,160.8 L205.2,162.1 L205.2,162.1 Z M205.2,162.1" id="1008"/>
            <path class="unit" d="M174.3,162.5 L191.2,166.7 L186.8,169.8 L169.9,165.6 L174.3,162.5 L174.3,162.5 Z M174.3,162.5" id="1010"/>
            <path class="unit" d="M187.4,180 L159.6,173.1 L169.7,165.9 L197.5,172.8 L187.4,180 L187.4,180 Z M187.4,180" id="1011"/>
            <path class="unit" d="M159.4,173.2 L179.3,178.2 L173.3,182.5 L153.4,177.5 L159.4,173.2 L159.4,173.2 Z M159.4,173.2" id="1012"/>
            <path class="unit" d="M167.1,181.1 L163.4,183.8 L162.7,183.6 L162,184.1 L148.7,180.8 L153.1,177.7 L167.1,181.1 L167.1,181.1 Z M167.1,181.1" id="1015"/>
            <path class="unit" d="M155.7,182.7 L150.2,186.6 L155.1,187.8 L152.1,189.9 L147.4,190.4 L143.4,184.5 L148.5,180.9 L155.7,182.7 L155.7,182.7 Z M155.7,182.7" id="1017"/>
            <path class="unit" d="M238.4,206 L205.9,229.2 L134.9,220.2 L123.6,217.4 L126.7,215.2 L123.2,214.3 L150.5,194.8 L148.5,192.1 L154.3,191.5 L159.5,187.8 L164.5,189.1 L179.6,178.3 L199.2,183.2 L203.6,190.2 L198,194.2 L207.1,196.5 L202.7,199.7 L215.5,202.9 L238.4,206 L238.4,206 Z M238.4,206" id="1018"/>
            <path class="unit" d="M193.9,104.5 L218.2,110.6 L213,114.3 L188.6,108.2 L193.9,104.5 L193.9,104.5 Z M193.9,104.5" id="1019"/>
            <path class="unit" d="M188.5,108.3 L212.9,114.4 L207.7,118.1 L183.3,112 L188.5,108.3 L188.5,108.3 Z M188.5,108.3" id="1020"/>
            <path class="unit" d="M169.3,98.3 L191,103.7 L180.2,111.4 L207.5,118.2 L194.7,127.3 L145.7,115.1 L169.3,98.3 L169.3,98.3 Z M169.3,98.3" id="1021"/>
            <path class="unit" d="M141.7,114.3 L194.5,127.5 L185.9,133.6 L133.1,120.4 L141.7,114.3 L141.7,114.3 Z M141.7,114.3" id="1022"/>
            <path class="unit" d="M132.9,120.6 L186.9,134.1 L176,141.8 L122,128.3 L132.9,120.6 L132.9,120.6 Z M132.9,120.6" id="1023"/>
            <path class="unit" d="M121.8,128.5 L115.6,132.9 L111.9,135.5 L138.8,142.3 L135.3,145.2 L158.3,151 L162.8,147.7 L168.9,146.9 L169.9,146.2 L175.8,141.9 L121.8,128.5 L121.8,128.5 Z M121.8,128.5" id="1024"/>
            <path class="unit" d="M228.8,116.6 L223.9,120.1 L218.2,118.7 L223.1,115.2 L228.8,116.6 L228.8,116.6 Z M228.8,116.6" id="1027"/>
            <path class="unit" d="M92.7,159.3 L121.1,166.4 L124.5,164 L143.8,168.9 L150.5,164.1 L102.7,152.1 L92.7,159.3 L92.7,159.3 Z M92.7,159.3" id="1028"/>
            <path class="unit" d="M121.2,166.6 L121.2,166.6 L92.4,159.4 L88.8,161.9 L136.6,173.9 L143.6,168.9 L124.5,164.1 L121.2,166.6 L121.2,166.6 Z M121.2,166.6" id="1029"/>
            <path class="unit" d="M77.7,170 L125.4,182 L136.4,174.2 L88.6,162.2 L77.7,170 L77.7,170 Z M77.7,170" id="1030"/>
            <path class="unit" d="M95.9,175.8 L93.7,177.3 L89.7,180.1 L118,187.2 L125.2,182.1 L97,175 L95.9,175.8 L95.9,175.8 Z M95.9,175.8" id="1031"/>
            <path class="unit" d="M63.8,169.9 L93.4,177.3 L89.2,180.3 L122.2,188.6 L131.9,191 L136.2,197.4 L116.5,211.4 L118.9,212 L110.2,218.3 L25.7,197.2 L63.8,169.9 L63.8,169.9 Z M63.8,169.9" id="1032"/>
            <path class="unit" d="M275.2,21.5 L296,6.6 L304.1,9.3 L284,23.7 L275.2,21.5 L275.2,21.5 Z M275.2,21.5" id="1033"/>
            <path class="unit" d="M348.3,41.3 L366.8,28.1 L381.1,32.2 L368,41.5 L356.2,38.5 L351.3,42 L348.3,41.3 L348.3,41.3 Z M348.3,41.3" id="1034"/>
            <path class="unit" d="M407.1,44.5 L390.5,47.2 L368.4,41.7 L381.5,32.4 L410.8,42 L407.1,44.5 L407.1,44.5 Z M407.1,44.5" id="1035"/>
            <path class="unit" d="M369.1,50.7 L333.6,41.9 L337.8,38.9 L378.6,49 L369.1,50.7 L369.1,50.7 Z M369.1,50.7" id="1036"/>
            <path class="unit" d="M317.6,53 L249.8,36.1 L267.8,23.2 L275,21.5 L284.2,23.8 L304.5,9.4 L356.7,25 L317.6,53 L317.6,53 Z M317.6,53" id="1037"/>
            <path class="unit" d="M357,25.2 L366.5,28 L348,41.2 L338.1,38.7 L357,25.2 L357,25.2 Z M357,25.2" id="1038"/>
            <path class="unit" d="M356.3,38.8 L390,47.2 L379,49 L351.6,42.2 L356.3,38.8 L356.3,38.8 Z M356.3,38.8" id="1039"/>
            <path class="unit" d="M351.4,53.5 L332.3,56.7" id="1040"/>
            <path class="unit" d="M332.3,56.7 L317.9,53.1 L326.1,47.2 L351.4,53.4 L332.3,56.7 L332.3,56.7 Z M332.3,56.7" id="1041"/>
            <path class="unit" d="M327.3,46.3 L333.4,41.9 L369,50.7 L354.3,53.1 L327.3,46.3 L327.3,46.3 Z M327.3,46.3" id="1042"/>
            <path class="unit" d="M405.7,54.5 L400.9,57.9 L387.3,54.5 L398.6,52.6 L405.7,54.5 L405.7,54.5 Z M405.7,54.5" id="1043"/>
            <path class="unit" d="M396,61.3 L391.4,64.6 L365.7,58.2 L376.5,56.4 L396,61.3 L396,61.3 Z M396,61.3" id="1044"/>
            <path class="unit" d="M386.7,54.6 L400.5,58.1 C399.1,59.1 397.6,60.2 396.2,61.2 L376.8,56.4 L386.7,54.6 L386.7,54.6 Z M386.7,54.6" id="1045"/>
            <path class="unit" d="M425,64.1 L420.7,67.2 L398.3,61.6 L402.6,58.5 L425,64.1 L425,64.1 Z M425,64.1" id="1046"/>
            <path class="unit" d="M429.1,56.3 L431.7,59.4 L425.2,64.1 L402.8,58.5 L407.6,55 L410.4,55.7 L421.3,54.4 L429.1,56.3 L429.1,56.3 Z M429.1,56.3" id="1047"/>
            <path class="unit" d="M420.4,67.4 L415.8,70.7 L393.4,65.1 L398,61.9 L420.4,67.4 L420.4,67.4 Z M420.4,67.4" id="1048"/>
            <path class="unit" d="M259.6,67.7 L193.7,51.3 L207.6,41.4 L179.9,34.5 L196,23 L289,46 L259.6,67.7 L259.6,67.7 Z M259.6,67.7" id="1049"/>
            <path class="unit" d="M281.4,17 L275.2,21.5 L267.4,23.4 L249.4,36.3 L196,23 L223.8,2.4 L281.4,17 L281.4,17 Z M281.4,17" id="1050"/>
            <path class="unit" d="M193.5,51.3 L269.2,70.2 L260.3,76.5 L184.6,57.6 L193.5,51.3 L193.5,51.3 Z M193.5,51.3" id="1051"/>
            <path class="unit" d="M345.4,63.6 L349.1,60.9 L365.2,58.2 L415.6,70.8 L402.5,80.1 L367.9,71.5 L354.5,81.1 L352.1,80.5 L365.5,70.9 L343.1,65.3 L343.4,65.1" id="1052"/>
            <path class="unit" d="M225.8,68.2 L260.3,76.8 L262.5,80.1 L257.2,83.9 L217.7,74 L225.8,68.2 L225.8,68.2 Z M225.8,68.2" id="1053"/>
            <path class="unit" d="M184.4,57.8 L225.5,68 L217.2,73.9 L257,83.8 L237.5,97.8 L147.3,75.3 L149.3,61.7 C149.4,60.8 149.7,60.1 150.1,59.5 C150.5,58.8 151.3,58.3 152.4,57.9 L153.9,57.5 C155.2,57.3 157.2,57.5 159.7,58.2 L177.6,62.7 L184.4,57.8 L184.4,57.8 Z M184.4,57.8" id="1054"/>
            <path class="unit" d="M300,94.6 L286.3,91.2 L277.3,89 L272.9,92.1 L280.1,94 L276,96.9 L291.4,100.8 L295.4,97.9 L300,94.6 L300,94.6 Z M300,94.6" id="1055"/>
            <path class="unit" d="M147.2,75.6 L237.2,98 L230.4,102.9 L146.2,81.9 L147.2,75.6 L147.2,75.6 Z M147.2,75.6" id="1056"/>
            <path class="unit" d="M277.3,110.9 L254.6,105.3 L263.9,98.7 L287.1,104.3 L277.3,110.9 L277.3,110.9 Z M277.3,110.9" id="1057"/>
            <path class="unit" d="M263.9,98.6 L268.4,95.4 L277.7,97.7 L273.2,100.9 L273.5,101 L263.9,98.6 L263.9,98.6 Z M263.9,98.6" id="1058"/>
            <path class="unit" d="M266.2,108.3 L262,111.3 L250.2,108.3 L254.3,105.3 L266.2,108.3 L266.2,108.3 Z M266.2,108.3" id="1059"/>
            <path class="unit" d="M354.7,81.3 L368.1,71.7 L402.4,80.3 L389.1,89.8 L397.3,91.8 L362.9,116.4 L309.6,103 L318.1,96.9 L279.6,87.3 L301.9,71.3 L342.7,65.3 L364.9,70.8 L351.5,80.4 L354.7,81.3 L354.7,81.3 Z M354.7,81.3" id="1060"/>
            <path class="unit" d="M250,108.5 L272.7,114.2 L268.6,117.1 L245.9,111.4 L250,108.5 L250,108.5 Z M250,108.5" id="1061"/>
            <path class="unit" d="M268.4,117.2 L260.6,122.8 L237.9,117.1 L245.7,111.5 L268.4,117.2 L268.4,117.2 Z M268.4,117.2" id="1062"/>
            <path class="unit" d="M146.1,82.1 L230.2,103 L223.2,108 L216.3,108.3 L144.9,90.5 L146.1,82.1 L146.1,82.1 Z M146.1,82.1" id="1063"/>
            <path class="unit" d="M237.7,117.2 L260.4,122.9 L256.1,126 L233.4,120.3 L237.7,117.2 L237.7,117.2 Z M237.7,117.2" id="1064"/>
            <path class="unit" d="M233.2,120.5 L255.9,126.1 L250.9,129.7 L228.2,124 L233.2,120.5 L233.2,120.5 Z M233.2,120.5" id="1065"/>
            <path class="unit" d="M250.7,129.8 L237.6,126.5 L228,124.1 L222.5,128 L232.1,130.5 L227.9,133.5 L241,136.8 L245.1,133.8 L250.7,129.8 L250.7,129.8 Z M250.7,129.8" id="1066"/>
            <path class="unit" d="M217.7,153.4 L195,147.7 L199.4,144.6 L222.1,150.3 L217.7,153.4 L217.7,153.4 Z M217.7,153.4" id="1067"/>
            <path class="unit" d="M238.1,137.8 L233.8,140.8 L223.8,138.3 L219.3,141.5 L207.7,138.6 L216.4,132.4 L238.1,137.8 L238.1,137.8 Z M238.1,137.8" id="1068"/>
            <path class="unit" d="M222.3,150.1 L199.6,144.4 L207.6,138.7 L230.3,144.4 L222.3,150.1 L222.3,150.1 Z M222.3,150.1" id="1069"/>
            <path class="unit" d="M200.8,153.2 L196.5,156.3 L190.6,154.9 L188.4,152.5 L190.8,150.8 L200.8,153.2 L200.8,153.2 Z M200.8,153.2" id="1071"/>
            <path class="unit" d="M256.5,97.3 L251.6,100.8 L245.9,99.4 L250.8,95.9 L256.5,97.3 L256.5,97.3 Z M256.5,97.3" id="1074"/>
            <path class="unit" d="M345.4,63.6 L370,69.9" id="1075"/>
            <path class="unit" d="M370,69.9 L368,71.5" id="1076"/>
            <path class="unit" d="M327.5,46 L354.4,53.1" id="1077"/>
            <path class="unit" d="M267,82.6 L271.9,79.1 L277.6,80.5 L272.7,84 L267,82.6 L267,82.6 Z M267,82.6" id="1078"/>
            <path class="unit" d="M267.9,61.4 L278,63.9 L269.3,70.1 L259.2,67.5 L267.9,61.4 L267.9,61.4 Z M267.9,61.4" id="1079"/>
            <path class="unit" d="M213.5,72.5 L213.7,72.6 L213.8,72.8 L213.7,73 L213.5,73.1 L213.3,73 L213.2,72.8 L213.3,72.6 L213.5,72.5 M217.4,73.7 L217.5,73.9 L217.4,74.1 L217.2,74.2 L217,74.1 L216.9,73.9 L217,73.7 L217.2,73.6 L217.4,73.7 M216.3,73.5 L216.2,73.7 L216,73.8 L215.8,73.7 L215.7,73.5 L215.8,73.3 L216,73.2 L216.2,73.3 L216.3,73.5 M214.9,72.9 L215,73.1 L214.9,73.3 L214.7,73.4 L214.5,73.3 L214.4,73.1 L214.5,72.9 L214.7,72.8 L214.9,72.9 M178.4,62.7 L178.6,62.8 L178.7,63 L178.6,63.2 L178.4,63.3 L178.2,63.2 L178.1,63 L178.2,62.8 L178.4,62.7 M181.1,63.5 L181.2,63.7 L181.1,63.9 L180.9,64 L180.7,63.9 L180.6,63.7 L180.7,63.5 L180.9,63.4 L181.1,63.5 M179.9,63.4 L179.8,63.6 L179.6,63.7 L179.4,63.6 L179.3,63.4 L179.4,63.2 L179.6,63.1 L179.8,63.2 L179.9,63.4 M193.7,67.1 L193.6,67.3 L193.4,67.4 L193.2,67.3 L193.1,67.1 L193.2,66.9 L193.4,66.8 L193.6,66.9 L193.7,67.1 M194.5,67.3 L194.7,67.2 L194.9,67.3 L195,67.5 L194.9,67.7 L194.7,67.8 L194.5,67.7 L194.4,67.5 L194.5,67.3 M196.2,67.7 L196.3,67.9 L196.2,68.1 L196,68.2 L195.8,68.1 L195.7,67.9 L195.8,67.7 L196,67.6 L196.2,67.7 M191.2,66.2 L191.3,66.4 L191.2,66.6 L191,66.7 L190.8,66.6 L190.7,66.4 L190.8,66.2 L191,66.1 L191.2,66.2 M189.5,65.9 L189.7,65.8 L189.9,65.9 L190,66.1 L189.9,66.3 L189.7,66.4 L189.5,66.3 L189.4,66.1 L189.5,65.9 M192,66.6 L192.2,66.5 L192.4,66.6 L192.5,66.8 L192.4,67 L192.2,67.1 L192,67 L191.9,66.8 L192,66.6 M197,68 L197.2,67.9 L197.4,68 L197.5,68.2 L197.4,68.4 L197.2,68.5 L197,68.4 L196.9,68.2 L197,68 M185.8,64.9 L186,64.8 L186.2,64.9 L186.3,65.1 L186.2,65.3 L186,65.4 L185.8,65.3 L185.7,65.1 L185.8,64.9 M187.2,65.1 L187.4,65.2 L187.5,65.4 L187.4,65.6 L187.2,65.7 L187,65.6 L186.9,65.4 L187,65.2 L187.2,65.1 M188.7,65.6 L188.8,65.8 L188.7,66 L188.5,66.1 L188.3,66 L188.2,65.8 L188.3,65.6 L188.5,65.5 L188.7,65.6 M183.7,64.4 L183.6,64.6 L183.4,64.7 L183.2,64.6 L183.1,64.4 L183.2,64.2 L183.4,64.1 L183.6,64.2 L183.7,64.4 M184.5,64.5 L184.7,64.4 L184.9,64.5 L185,64.7 L184.9,64.9 L184.7,65 L184.5,64.9 L184.4,64.7 L184.5,64.5 M182,63.8 C182.1,63.7 182.1,63.7 182.2,63.7 L182.4,63.8 L182.5,64 L182.4,64.2 L182.2,64.3 L182,64.2 L181.9,64 L182,63.8 M207,70.9 L207.1,70.7 L207.3,70.6 L207.5,70.7 L207.6,70.9 L207.5,71.1 L207.3,71.2 L207.1,71.1 L207,70.9 M206.2,70.8 L206,70.9 L205.8,70.8 L205.7,70.6 L205.8,70.4 L206,70.3 L206.2,70.4 L206.3,70.6 L206.2,70.8 M208.3,71.1 L208.5,71 L208.7,71.1 L208.8,71.3 L208.7,71.5 L208.5,71.6 L208.3,71.5 L208.2,71.3 L208.3,71.1 M209.5,71.4 L209.7,71.3 L209.9,71.4 L210,71.6 L209.9,71.8 L209.7,71.9 L209.5,71.8 L209.4,71.6 L209.5,71.4 M211,71.7 L211.2,71.8 L211.3,72 L211.2,72.2 L211,72.3 L210.8,72.2 L210.7,72 L210.8,71.8 L211,71.7 M212,72.1 L212.2,72 L212.4,72.1 L212.5,72.3 L212.4,72.5 L212.2,72.6 L212,72.5 L211.9,72.3 L212,72.1 M199.5,68.7 L199.7,68.6 L199.9,68.7 L200,68.9 L199.9,69.1 L199.7,69.2 L199.5,69.1 L199.4,68.9 L199.5,68.7 M200.8,69.1 L201,69 L201.2,69.1 L201.3,69.3 L201.2,69.5 L201,69.6 L200.8,69.5 L200.7,69.3 L200.8,69.1 M198.7,68.4 L198.8,68.6 L198.7,68.8 L198.5,68.9 L198.3,68.8 L198.2,68.6 L198.3,68.4 L198.5,68.3 L198.7,68.4 M203.3,69.7 L203.5,69.6 L203.7,69.7 L203.8,69.9 L203.7,70.1 L203.5,70.2 L203.3,70.1 L203.2,69.9 L203.3,69.7 M204.9,70.1 L205,70.3 L204.9,70.5 L204.7,70.6 L204.5,70.5 L204.4,70.3 L204.5,70.1 L204.7,70 L204.9,70.1 M202,69.4 L202.2,69.3 L202.4,69.4 L202.5,69.6 L202.4,69.8 L202.2,69.9 L202,69.8 L201.9,69.6 L202,69.4" id="1080"/>
            <path class="unit" d="M125.5,151.7 L130.6,148.1 L114.1,144 L102.9,152 L150.7,164 L156.6,159.8 L125.3,151.9 L125.5,151.7 L125.5,151.7 Z M125.5,151.7" id="1081"/>
            <path class="unit" d="M156.9,159.6 L162,155.9 L157.2,154.7 L130.9,148.1 L125.8,151.7 L156.9,159.6 L156.9,159.6 Z M156.9,159.6" id="1082"/>
            <path class="unit" d="M194.8,147.9 L217.6,153.6 L209.4,159.4 L196.8,156.3 L201.4,153 L191.2,150.5 L194.8,147.9 L194.8,147.9 Z M194.8,147.9" id="1083"/>
            <path class="unit" d="M258.8,149.4 L281.7,155.1 L263,168.5 L239.1,162.6 L248,156.2 L226.7,151 L232.9,146.6 L255,152 L258.8,149.4 L258.8,149.4 Z M258.8,149.4" id="1084"/>
            <path class="unit" d="M228,160 L238.6,162.6 L247.3,156.3 L236.8,153.7 L228,160 L228,160 Z M228,160" id="1085"/>
            <path class="unit" d="M240.5,177.4 L224,173.4 L207.7,185.1 L223.9,189.3 L240.5,177.4 L240.5,177.4 Z M240.5,177.4" id="1086"/>
            <path class="unit" d="M206.6,169 L223.8,173.3 L207.4,185 L190.2,180.8 L206.6,169 L206.6,169 Z M206.6,169" id="1087"/>
            <path class="unit" d="M195.5,140.4 L190.6,143.9 L184.9,142.5 L189.8,139 L195.5,140.4 L195.5,140.4 Z M195.5,140.4" id="1088"/>
            <path class="unit" d="M214.8,126.9 L209.9,130.4 L204.2,129 L209.1,125.5 L214.8,126.9 L214.8,126.9 Z M214.8,126.9" id="1089"/>
            <path class="unit" d="M272.7,92.3 L279.6,94.1 L275.7,96.9 L268.7,95.1 L272.7,92.3 L272.7,92.3 Z M272.7,92.3" id="1090"/>
            <path class="unit" d="M222.3,128.2 L218.3,131.1 L227.6,133.4 L231.6,130.6 L222.3,128.2 L222.3,128.2 Z M222.3,128.2" id="1091"/>
            <path class="unit" d="M236.5,153.6 L226.4,151.1 L217.7,157.4 L227.8,159.9 L236.5,153.6 L236.5,153.6 Z M236.5,153.6" id="1092"/>
            <path class="unit" d="M224.2,189.3 L240.7,193.6 L257.8,181.5 L240.8,177.4 L224.2,189.3 L224.2,189.3 Z M224.2,189.3" id="1093"/>
            <path class="unit" d="M233.5,166 L228.6,169.5 L222.9,168.1 L227.8,164.6 L233.5,166 L233.5,166 Z M233.5,166" id="1094"/>
            <path class="unit" d="M153.9,170.2 L148.1,168.9 L153.1,165.4 L158.8,166.8 L153.9,170.2 Z M153.9,170.2" id="1095"/>
        </g>
    </g>
</svg>