<?xml version="1.0" encoding="utf-8"?>
<!DOCTYPE svg PUBLIC "-//W3C//DTD SVG 1.1//EN" "http://www.w3.org/Graphics/SVG/1.1/DTD/svg11.dtd">
<svg version="1.1" xmlns="http://www.w3.org/2000/svg" xmlns:xlink="http://www.w3.org/1999/xlink" xml:space="preserve">
<g class="level" id="level1">
            <g class="outline">
                    <path d="M427.5,45.8 L424.4,40.9 L388.1,31.8 L388.1,28.6 L361.4,21.2 L359.5,22.6 L354.8,21.4 L354.8,19.6 L302.8,4.1 L293.8,1.1 L272.9,16 L265.8,17.7 L248.7,29.9 L192.6,15.9 L171.8,30.7 L171.7,36.1 L191.1,40.9 L172.8,53.9 L161.1,51 L159.7,50.8 L158.4,50.7 L158.2,50.6 L157,50.6 L156.2,50.7 L154.3,51.1 L154.1,51.2 C152.8,51.7 151.8,52.4 151.1,53.3 L150.8,53.7 L150.2,55 L146.4,79.7 L146.4,84.5 L167.2,89.7 L167.2,92.3 L167.4,92.3 L128,120.4 L127.9,125.8 L148.8,131 L145.6,133.3 L141.8,132.4 L139.9,133.8 L133.6,132.2 L127.9,136.2 L127.9,136.6 L115.4,133.6 L110.4,137.2 L127.8,141.5 L127.8,141.6 L128.5,141.8 L122.9,145.8 L118.5,144.7 L118.5,140.8 L100.6,136.3 L90.6,143.4 L90.6,148.8 L93.7,149.6 L86.8,154.5 L82.7,153.5 L72.5,161 L72.5,161.6 L71.9,161.5 L20.5,198.2 L20.5,202.4 L18.5,203.8 L18.5,208.5 L20.4,211.6 L21,212.2 L64.3,223 L71.7,222.2 L77.7,217.9 L83.4,219.3 L83.4,221.1 L114.9,228.9 L125.1,221.6 L125.1,219.7 L133.4,213.8 L137.3,214.8 L206.4,223.5 L207.1,223.7 L240.2,200.1 L240.2,194.6 L234.1,193.7 L234.1,191.5 L219.3,189.3 L210.8,187.2 L210.8,186.2 L209.5,185.9 L209.5,184 L210.1,183.6 L210.1,179.9 L234.7,185.5 L256.9,169.6 L247.3,167.2 L256.6,160.4 L275.4,146.9 L275.4,142.2 L257.2,137.7 L258.1,137 L258.2,131.7 L249.7,129.6 L277.2,110 L277.2,108.1 L279.1,108.6 L289.2,101.4 L289.2,96 L295.1,91.8 L304.4,94.1 L305.5,93.3 L307.5,93.8 L304.8,95.7 L304.8,101.1 L356.2,113.9 L359.2,111.8 L361.9,112.5 L393.8,89.8 L393.9,84.4 L391.5,83.8 L425.5,59.5 L425.6,54.1 L423.1,53.5 L427.1,50.7 L427.1,45.8 L427.5,45.8 L427.5,45.8 Z M427.5,45.8" class="outline"/>
                </g>
                <g class="label">
                    <path d="M8.2,117.6 C7.8,117.6 7.6,117.9 7.6,118.3 L7.6,127.1 C6.8,127.6 5.6,127.9 4.9,127.9 C3,127.9 1.9,127 1.9,124.9 L1.9,118.4 C1.9,118 1.6,117.7 1.3,117.7 C1,117.7 0.7,118 0.7,118.4 L0.7,125.2 C0.7,127.5 2.2,129.1 4.7,129.1 C6.5,129.1 7.5,128.6 8.5,128.1 C8.9,127.9 8.9,127.6 8.9,127.2 L8.9,118.3 C8.8,117.8 8.6,117.6 8.2,117.6 L8.2,117.6 L8.2,117.6 Z M22.7,117.5 C21.7,117.5 20.9,117.6 20.4,117.8 C20,117.9 19.9,118.2 19.9,118.6 L19.9,128.3 C19.9,128.7 20.2,128.9 20.5,128.9 C20.8,128.9 21.1,128.7 21.1,128.3 L21.1,124.7 L22.6,124.7 C25.5,124.7 27,123.3 27,121 C27.1,119 25.7,117.5 22.7,117.5 L22.7,117.5 L22.7,117.5 Z M22.6,123.5 L21.2,123.5 L21.2,118.8 C21.6,118.7 22.2,118.7 22.7,118.7 C25,118.7 25.8,119.8 25.8,121.1 C25.8,122.3 25.1,123.5 22.6,123.5 L22.6,123.5 L22.6,123.5 Z M13.9,117.5 C12.9,117.5 12.1,117.6 11.6,117.8 C11.2,117.9 11.1,118.2 11.1,118.6 L11.1,128.3 C11.1,128.7 11.4,128.9 11.7,128.9 C12,128.9 12.3,128.7 12.3,128.3 L12.3,124.7 L13.8,124.7 C16.7,124.7 18.2,123.3 18.2,121 C18.2,119 16.9,117.5 13.9,117.5 L13.9,117.5 L13.9,117.5 Z M13.8,123.5 L12.4,123.5 L12.4,118.8 C12.8,118.7 13.4,118.7 13.9,118.7 C16.2,118.7 17,119.8 17,121.1 C17,122.3 16.3,123.5 13.8,123.5 L13.8,123.5 L13.8,123.5 Z M78.7,127.6 L74.4,127.6 L74.4,118.2 C74.4,117.8 74.1,117.5 73.8,117.5 C73.5,117.5 73.2,117.8 73.2,118.2 L73.2,127.8 C73.2,128.4 73.6,128.8 74.3,128.8 L78.8,128.8 C79.2,128.8 79.5,128.5 79.5,128.2 C79.4,127.9 79.1,127.6 78.7,127.6 L78.7,127.6 L78.7,127.6 Z M68.6,119 C68,117.8 67.5,117.4 66.9,117.4 C66.3,117.4 65.8,117.8 65.2,119 C64.3,120.8 63.6,123.1 62.4,127.7 C62.3,127.9 62.3,128.1 62.3,128.2 C62.3,128.6 62.6,128.8 62.9,128.8 C63.2,128.8 63.4,128.6 63.5,128.3 C63.8,126.9 64.1,125.7 64.4,124.6 L69.3,124.6 C69.6,125.7 69.9,126.9 70.2,128.3 C70.3,128.6 70.5,128.8 70.8,128.8 C71.2,128.8 71.4,128.6 71.4,128.2 C71.4,128.1 71.4,127.9 71.3,127.7 C70.2,123.1 69.5,120.8 68.6,119 L68.6,119 L68.6,119 Z M64.8,123.6 C65.5,121.2 66.2,119.6 66.7,118.8 C66.7,118.7 66.8,118.7 66.9,118.7 C67,118.7 67.1,118.8 67.1,118.8 C67.6,119.6 68.3,121.1 69,123.6 L64.8,123.6 L64.8,123.6 Z M86.3,127.6 L82,127.6 L82,118.2 C82,117.8 81.7,117.5 81.4,117.5 C81,117.5 80.8,117.8 80.8,118.2 L80.8,127.8 C80.8,128.4 81.2,128.8 81.9,128.8 L86.4,128.8 C86.8,128.8 87.1,128.5 87.1,128.2 C87,127.9 86.8,127.6 86.3,127.6 L86.3,127.6 L86.3,127.6 Z M42.8,124.7 C42.5,124.3 42.2,124 41.8,123.7 C43.2,123.2 44.2,122.2 44.2,120.7 C44.2,118.8 42.9,117.5 40,117.5 C38.9,117.5 38.1,117.6 37.6,117.8 C37.2,117.9 37.1,118.2 37.1,118.6 L37.1,128.3 C37.1,128.7 37.4,128.9 37.7,128.9 C38.1,128.9 38.3,128.7 38.3,128.3 L38.3,124.1 L39.5,124.1 C40.7,124.1 41.1,124.6 41.7,125.5 C42.1,126.1 42.5,127.1 43,128.5 C43.1,128.8 43.3,128.9 43.6,128.9 C43.9,128.9 44.2,128.7 44.2,128.3 C44.2,128.2 44.2,128 44.1,127.9 C43.8,126.7 43.3,125.5 42.8,124.7 L42.8,124.7 L42.8,124.7 Z M39.8,122.8 L38.4,122.8 L38.4,118.8 C38.8,118.7 39.3,118.7 40,118.7 C42.3,118.7 43,119.6 43,120.8 C42.9,122.4 41.4,122.9 39.8,122.8 L39.8,122.8 L39.8,122.8 Z M34.8,127.6 L30,127.6 L30,123.7 L33.9,123.7 C34.3,123.7 34.5,123.4 34.5,123.1 C34.5,122.8 34.3,122.5 33.9,122.5 L30,122.5 L30,118.8 L34.6,118.8 C35,118.8 35.2,118.5 35.2,118.2 C35.2,117.9 35,117.6 34.6,117.6 L29.8,117.6 C29.1,117.6 28.7,118 28.7,118.6 L28.7,127.9 C28.7,128.5 29.1,128.9 29.8,128.9 L34.7,128.9 C35.1,128.9 35.3,128.6 35.3,128.3 C35.4,127.9 35.2,127.6 34.8,127.6 L34.8,127.6 L34.8,127.6 Z M60.1,118.9 C60,118.1 59.7,117.6 59,117.6 C58.4,117.6 58.1,118 57.9,118.4 C57.1,120.6 56.2,123.4 55.2,126.1 L55.2,126.1 C54.2,123.6 53.4,121 52.4,118.6 C52.2,118 51.9,117.6 51.3,117.6 C50.6,117.6 50.3,118 50.2,118.9 C49.8,121.8 49.7,125 49.7,128.2 C49.7,128.6 49.9,128.8 50.3,128.8 C50.7,128.8 50.9,128.6 50.9,128.1 C50.9,125 51.1,122 51.4,119.1 L51.4,119.1 C52.4,121.7 53.3,124.4 54.4,127 C54.5,127.3 54.8,127.6 55.2,127.6 C55.6,127.6 55.9,127.4 56,127 C57,124.5 57.9,121.8 58.8,119.1 L58.8,119.1 C59.2,122.1 59.4,125.1 59.5,128.1 C59.5,128.5 59.7,128.8 60.1,128.8 C60.5,128.8 60.7,128.5 60.7,128.1 L60.7,127.6 C60.7,124.7 60.5,121.6 60.1,118.9 L60.1,118.9 L60.1,118.9 Z M60.1,118.9" class="Shape"/>
                </g>
                <g class="background">
                    <path d="M337.1,43.9 L289.7,77.7 L288.1,77.3 L218.6,126.6 L257,136.1 L251.4,140.3 L274.2,146 L256,159 L244.1,167.7 L253.7,170.1 L234.7,183.7 L207.9,177.6 L200.3,183.7 L174.7,177.4 L186.8,168.9 L166.1,163.7 L143.7,180.1 L138.8,178.9 L135.9,181 L124.5,182.2 L107.5,194.3 L110.8,199.4 L106.6,202.4 L107.8,202.7 L106.7,203.5 L119.2,206.6 L124.5,202.8 L132.2,204.7 L126.9,208.6 L135.2,210.6 L123.5,218.9 L119.4,217.9 L129.6,210.6 L104.4,204.3 L85.3,217.9 L75.5,215.4 L98.7,198.9 L95.1,193.3 L159.3,147.5 L114,136.2 L115.8,134.9 L162.7,146.3 L219.9,105.5 L192.3,98.1 L195.6,95.5 L223.6,102.7 L270.5,69.2 L263.2,67.4 L267.4,64.4 L264.6,63.7 L269,60.6 L265.4,59.7 L288.8,43 L315,49.5 L353.1,22.3 L361.8,24.5 L338,41.5 L337.1,43.9" class="walkway"/>
                    <path d="M232.8,192.8 L219.2,190.8 L209.5,188.4 L209.5,187.3 L208.2,187 L208.2,184.9 L206.4,184.4 L208.8,182.7 L208.8,179.3 L200.7,177.3 L202.3,176.2 L202.3,174.6 L205.9,175.5 L218.9,166.2 L218.9,162.8 L208.9,160.3 L216.1,155.4 L222.6,150.4 L222.7,147.9 L195.8,141.3 L181.6,151.5 L181.6,154.2 L177,154.8 L152.6,172.3 L152.4,172.4 L143.6,178.7 L138.7,177.5 L135.7,179.7 L124.3,180.9 L107.3,193.1 L107.3,196.5 L109.1,199.3 L106.3,201.3 L106.3,203.6 L104.3,203.1 L94.1,210 L93.9,210.1 L85,216.4 L85,219.8 L114.7,227.2 L123.8,220.8 L123.8,217.4 L123.2,217.2 L129.8,212.5 L129.8,211.3 L137.9,213.3 L206.8,222 L207,222 L238.9,199.2 L238.9,195.8 L232.8,194.9 L232.8,192.8 L232.8,192.8 Z M177.3,158.3 L183.5,157.5 L214.9,165.3 L210.1,168.7 L175,159.9 L177.3,158.3 L177.3,158.3 Z M171.1,162.7 L206.2,171.4 L205.7,171.7 L189.8,167.7 L187.9,169 L168.6,164.2 L171.1,162.7 L171.1,162.7 Z M190.4,171.5 L182.4,177.3 L180.8,176.9 L186.2,173 L187.4,173.3 L190.1,171.4 L190.4,171.5 L190.4,171.5 Z M165,167 L183.1,171.5 L180.8,173.1 L162.7,168.6 L165,167 L165,167 Z M159,171.3 L177.1,175.8 L174.6,177.6 L156.5,173.1 L159,171.3 L159,171.3 Z M152.7,175.8 L170.8,180.3 L168.5,181.9 L150.4,177.4 L152.7,175.8 L152.7,175.8 Z M146.7,180.1 L167,185.1 L164.9,186.6 L144.7,181.6 L146.7,180.1 L146.7,180.1 Z M114.6,223.6 L89.1,217.3 L94.2,213.7 L119.4,220 L119.6,220.1 L114.6,223.6 L114.6,223.6 Z M119.3,216.3 L98,211 L104.4,206.4 L125.8,211.7 L119.3,216.3 L119.3,216.3 Z M109.2,202.6 L110.8,201.5 L120.7,204 L119.1,205.1 L109.2,202.6 L109.2,202.6 Z M126.7,207.1 L126.7,208.3 L121.6,207 L124.7,204.8 L128.5,205.7 L126.7,207.1 L126.7,207.1 Z M234.3,198.9 L206.8,218.5 L138,209.8 L130.7,208 L135.2,204.8 L135.2,201.4 L127.2,199.4 L124.5,201.3 L111,197.9 L109.3,195.2 L124.6,184.3 L135.8,183.1 L164.9,190.4 L179.3,180.1 L182.6,180.9 L190.7,175.1 L194.6,176.1 L196.4,174.8 L198.3,175.3 L196.7,176.4 L196.7,179.8 L204.8,181.8 L202.4,183.5 L202.4,186.9 L205.5,187.7 L205.5,189.9 L207.9,190.5 L207.9,191.6 L219,194.4 L230.5,196.1 L230.5,198.3 L234.3,198.9 L234.3,198.9 Z M222.9,163.9 L207.9,174.3 L207.9,177.7 L234.7,183.8 L248.7,173.8 L248.6,170.3 L222.9,163.9 L222.9,163.9 Z M426,46.2 L423.5,42.1 L386.6,33 L386.6,29.8 L361.7,22.9 L337.8,40 L336.9,42.2 L289.6,76 L287.9,75.6 L271.8,87 L271.8,88.8 L269.9,88.3 L242.9,107.5 L242.7,107.6 L238.8,110.4 L238.6,110.5 L224.8,120.4 L224.6,120.5 L221.7,122.5 L221.7,123.8 L220.4,123.5 L214.2,127.9 L214,128 L214.2,132.1 L223.7,138.3 L243.6,145.6 L236.2,151 L236.2,153.9 L255.9,158.8 L274.1,145.8 L274.1,143 L254.1,138 L256.9,135.9 L256.9,132.5 L246.4,129.9 L275.9,108.8 L275.9,105.8 L279,106.6 L287.9,100.2 L287.9,97 L277.3,94.4 L278,93.9 L278,92.1 L288.5,94.7 L295,90 L304.4,92.3 L305.5,91.5 L311.3,92.9 L306.6,96.2 L306.6,99.6 L356.1,112 L359.1,109.9 L361.8,110.6 L392.5,88.7 L392.5,85.3 L388.1,84.2 L424.2,58.5 L424.2,55.1 L419.7,54 L425.7,49.8 L425.7,46.2 L426,46.2 L426,46.2 Z M270,92 L274.1,93 L273.6,93.3 L269.5,92.3 L270,92 L270,92 Z M244.1,128.1 L231.6,125 L231.6,122.3 L228.6,121.5 L230,120.6 L248.2,125.1 L244.1,128.1 L244.1,128.1 Z M252.1,122.4 L233.9,117.9 L239,114.2 L257.2,118.7 L252.1,122.4 L252.1,122.4 Z M260.9,116.1 L242.7,111.6 L243,111.4 L261.2,115.9 L260.9,116.1 L260.9,116.1 Z M265,113.1 L246.8,108.6 L249.6,106.6 L267.8,111.1 L265,113.1 L265,113.1 Z M271.6,108.5 L253.4,104 L253.7,103.8 L271.9,108.3 L271.6,108.5 L271.6,108.5 Z M279,103.2 L260.8,98.7 L261.8,98 L280,102.5 L279,103.2 L279,103.2 Z M284,99.7 L283.8,99.8 L265.6,95.3 L265.8,95.2 L284,99.7 L284,99.7 Z M288.5,91 L275.9,87.9 L278.6,85.9 L291.3,89 L288.5,91 L288.5,91 Z M415.9,53.1 L415.9,56.5 L420.4,57.6 L384.3,83.3 L384.3,86.7 L388.7,87.8 L362,107 L359.3,106.3 L356.3,108.5 L311,97.2 L315.7,93.9 L315.7,90.5 L305.7,88 L304.6,88.8 L282.6,83.3 L288.3,79.2 L290,79.6 L337.5,45.7 L338.4,43.5 L362.1,26.6 L383,32.4 L383,35.7 L423.3,45.7 L424.3,47.3 L415.9,53.1 L415.9,53.1 Z M415.9,53.1" class="wall"/>
                    <path d="M353.4,24.2 L315.1,51.5 L288.9,45 L269.5,58.9 L269.3,59 L269.4,59 L269.4,62.4 L267.9,63.5 L267.9,66.3 L267.3,66.8 L271.1,67.7 L271.1,71.1 L224,104.7 L196.6,97.9 L196.6,99 L197.6,98.3 L220.5,104 L220.5,107.4 L163.1,148.4 L159.9,147.6 L159.9,149.5 L121.4,176.9 L119.6,176.5 L119.6,178.2 L97.2,194.2 L99.3,197.4 L99.3,200.8 L71.6,220.6 L64.8,221.3 L22.1,210.6 L22,210.5 L20,208 L20,204.6 L22.8,202.6 L22,202.4 L22,199 L72.2,163.2 L74,163.6 L74,161.9 L83.2,155.3 L87.3,156.3 L97.4,149.1 L92.2,147.8 L92.2,144.4 L101,138.1 L117.1,142.1 L117.1,145.5 L116.6,145.8 L123.2,147.4 L132,141.1 L129.3,140.5 L129.3,137.1 L133.8,133.9 L140.1,135.5 L142,134.1 L145.8,135 L147.8,133.6 L148,133.5 L152.2,130.5 L129.2,124.8 L129.2,121.4 L154.8,103.1 L154.9,103.1 L171,91.6 L168.8,91.1 L168.8,88.5 L148,83.3 L148,79.9 L151.7,55.7 L151.8,55.4 L152,54.9 L152,54.8 L152.3,54.3 C152.8,53.6 153.6,53.1 154.6,52.7 L155.7,52.4 L156.1,52.3 L156.2,52.3 L157,52.2 L158,52.2 L158.1,52.2 L159.4,52.3 L160.2,52.5 L160.4,52.5 L160.7,52.6 L160.8,52.6 L173.2,55.7 L194.7,40.4 L173.3,35.1 L173.3,31.7 L192.9,17.7 L249,31.7 L266.5,19.2 L273.6,17.5 L294,2.7 L302.3,5.5 L353.4,20.8 L353.4,24.2 M294.1,6.4 L273.8,20.9 L266.7,22.6 L252.9,32.5 L275.5,38.1 L315,47.9 L349.4,23.4 L302.1,9.1 L294.1,6.4 M285.1,44.1 L275.2,41.6 L274,42.4 L283.8,44.9 L285.1,44.1 M271.4,40.6 L193,21.1 L177.4,32.3 L269.5,55.3 L280.2,47.7 L269.9,45 L269.9,41.6 L271.4,40.6 M265.6,57.9 L198.5,41.2 L173.2,59.2 L159.3,55.8 L159.1,55.8 L158.5,55.8 L158.4,55.8 L157,55.8 L155.8,56 L155.7,56 L154.9,56.2 L153.6,56.9 L153.2,57.2 L153.1,57.3 L152.7,57.8 L152.2,58.8 L152,59.4 L148.9,80 L172.1,85.8 L172.1,88.4 L223.8,101.3 L266.9,70.5 L263.2,69.6 L263.2,66.2 L264.6,65.2 L264.6,62.5 L265.4,61.9 L265.3,61.9 L265.3,58.5 L265.6,57.9 M185.4,103.6 L192.3,98.7 L173.1,93.9 L159,103.9 L204.1,115.2 L207.7,112.7 L185.3,107.1 L185.4,103.6 M197,102.3 L215.7,107 L216.2,106.7 L197.5,102 L197,102.3 M192.8,105.3 L211.5,110 L211.9,109.7 L193.2,105 L192.8,105.3 M150.3,110.1 L195.4,121.4 L200.3,117.9 L155.1,106.7 L150.3,110.1 M160,128.6 L178.7,133.3 L179.2,133 L160.5,128.3 L160,128.6 M164.3,125.6 L183,130.3 L183.5,130 L164.8,125.3 L164.3,125.6 M152.1,134.3 L170.8,139 L171,138.9 L152.3,134.2 L152.1,134.3 M140.3,139 L134.1,137.4 L133.6,137.8 L136.2,138.4 L137.4,138.4 L162.7,144.7 L163.1,144.4 L160.9,143.9 L160.9,140.5 L161.2,140.3 L148.2,137 L146,138.6 L142.2,137.7 L140.3,139 M156,131.5 L174.7,136.2 L174.9,136.1 L156.2,131.4 L156,131.5 M165,141.3 L166.9,141.8 L167,141.7 L165.2,141.2 L165,141.3 M161.3,120.8 L187.2,127.3 L191.7,124.1 L146.5,112.8 C142.2,115.9 137.9,119 133.5,122.1 L152.7,126.9 L161.3,120.8 M96.4,145.1 L143.9,157 L144.7,156.4 L112.6,148.4 L112.6,145 L113.1,144.7 L101.2,141.7 L96.4,145.1 M127.2,148.4 L148.4,153.7 L155.4,148.7 L134.2,143.4 L127.2,148.4 M135.6,162.9 L96.8,153.2 L91.3,157.1 L130.1,166.8 L135.6,162.9 M126.2,169.5 L83.3,158.8 L78,162.6 L120.9,173.3 L126.2,169.5 M115.2,177.4 L72.3,166.7 L68.8,169.2 L111.7,179.9 L115.2,177.4 M100.6,150.5 L139.4,160.2 L140.2,159.7 L101.4,150 L100.6,150.5 M107.9,182.6 L65,171.9 L62,174.1 L104.9,184.8 L107.9,182.6 M101.2,187.4 L58.3,176.7 L55.3,178.9 L98.2,189.6 L101.2,187.4 M95,192.4 L51.5,181.6 L44.6,186.5 L96,199.3 L97,198.5 L94.9,195.3 L95,192.4 M92.2,202 L40.9,189.2 L33,194.8 L58.6,201.2 L62.4,198.5 L88.1,204.9 L92.2,202 M84.3,207.6 L62.5,202.1 L62.4,202.1 L67.7,203.4 L67.7,205.9 L72.4,207.1 L75,205.3 L84.3,207.6 M26.8,203.4 L21.9,206.9 L22.1,207.2 L64.6,217.8 L71,217.1 L80.5,210.3 L75,208.9 L72.4,210.7 L64.5,208.7 L64.5,206.2 L29,197.4 L25.9,199.6 L26.7,199.8 L26.8,203.4" class="wall"/>
                </g>
                <g class="ceilings">
                    <path class="unit" d="M111.7,180.1 L65.2,168.5 L72.3,163.5 L118.8,175.1 L111.7,180.1 L111.7,180.1 Z M111.7,180.1" id="2001"/>
                    <path class="unit" d="M58.1,173.5 L104.7,185.1 L98.1,189.8 L51.6,178.2 L58.1,173.5 L58.1,173.5 Z M58.1,173.5" id="2002"/>
                    <path class="unit" d="M104.9,184.9 L58.3,173.3 L64.9,168.6 L111.5,180.2 L104.9,184.9 L104.9,184.9 Z M104.9,184.9" id="2003"/>
                    <path class="unit" d="M51.3,178.3 L97.9,189.9 L94.9,192 L98.5,197.6 L96,199.4 L41,185.7 L51.3,178.3 L51.3,178.3 Z M51.3,178.3" id="2004"/>
                    <path class="unit" d="M58.4,201.4 L29.1,194.1 L40.6,185.9 L95.6,199.6 L87.9,205.1 L62.2,198.7 L58.4,201.4 L58.4,201.4 Z M58.4,201.4" id="2005"/>
                    <path class="unit" d="M62.4,198.9 L87.8,205.2 L84.2,207.8 L74.9,205.5 L72.3,207.3 L65,205.5 L67.6,203.7 L58.8,201.5 L62.4,198.9 L62.4,198.9 Z M62.4,198.9" id="2006"/>
                    <path class="unit" d="M75,205.8 L84,208 L70.8,217.4 L64.3,218.1 L21.8,207.5 L20.1,204.8 L26.6,200.2 L22.2,199.1 L28.9,194.3 L67,203.8 L64.5,205.6 L72.4,207.6 L75,205.8 L75,205.8 Z M75,205.8" id="2007"/>
                    <path class="unit" d="M119.1,205.3 L106.9,202.2 L108,201.4 L106.7,201.1 L110.8,198.2 L124.3,201.5 L119.1,205.3 L119.1,205.3 Z M119.1,205.3" id="2008"/>
                    <path class="unit" d="M135.8,179.8 L164.9,187.1 L179.3,176.9 L182.6,177.7 L190.7,171.9 L194.6,172.9 L196.5,171.6 L202,173 L196.8,176.7 L208.5,179.6 L202.5,183.8 L207.9,185.1 L205.7,186.7 L209.3,187.6 L208.2,188.4 L219.4,191.2 L232.7,193.2 L230.9,195.2 L238.7,196.3 L207.1,218.8 L138.3,210.1 L127.4,207.4 L135.4,201.6 L127.4,199.6 L124.7,201.5 L111.2,198.1 L107.9,193.1 L124.8,181 L135.8,179.8 L135.8,179.8 Z M135.8,179.8" id="2009"/>
                    <path class="unit" d="M127.2,199.8 L134.6,201.6 L131.9,203.5 L124.5,201.6 L127.2,199.8 L127.2,199.8 Z M127.2,199.8" id="2010"/>
                    <path class="unit" d="M114.5,224 L85.4,216.8 L94.1,210.6 L123.2,217.8 L114.5,224 L114.5,224 Z M114.5,224" id="2011"/>
                    <path class="unit" d="M119.3,216.6 L94.3,210.4 L104.3,203.3 L129.3,209.5 L119.3,216.6 L119.3,216.6 Z M119.3,216.6" id="2012"/>
                    <path class="unit" d="M183.5,154.2 L218.5,162.9 L210.1,168.9 L171.4,159.2 L177.4,154.9 L183.5,154.2 L183.5,154.2 Z M183.5,154.2" id="2013"/>
                    <path class="unit" d="M171.1,159.4 L209.9,169.1 L205.9,172 L190,168 L188.1,169.4 L165.2,163.7 L171.1,159.4 L171.1,159.4 Z M171.1,159.4" id="2014"/>
                    <path class="unit" d="M165,163.7 L187.8,169.4 L187.3,169.8 L186.1,169.5 L180.8,173.3 L159.1,167.9 L165,163.7 L165,163.7 Z M165,163.7" id="2015"/>
                    <path class="unit" d="M159,168 L180.7,173.4 L174.6,177.7 L152.9,172.3 L159,168 L159,168 Z M159,168" id="2016"/>
                    <path class="unit" d="M222.9,163.9 L248.8,170.3 L234.7,180.4 L207.9,174.3 L222.9,163.9 L222.9,163.9 Z M222.9,163.9" id="2017"/>
                    <path class="unit" d="M152.7,172.5 L174.4,177.9 L168.6,182.1 L146.9,176.7 L152.7,172.5 L152.7,172.5 Z M152.7,172.5" id="2018"/>
                    <path class="unit" d="M138.8,177.7 L143.7,178.9 L146.7,176.8 L170.5,182.8 L164.8,186.9 L136,179.7 L138.8,177.7 L138.8,177.7 Z M138.8,177.7" id="2019"/>
                    <path class="unit" d="M271.8,108.6 L250,103.2 L253.9,100.4 L275.7,105.9 L271.8,108.6 L271.8,108.6 Z M271.8,108.6" id="2020"/>
                    <path class="unit" d="M259.2,101.6 L253.9,100.3 L257.4,97.8 L262.7,99.1 L259.2,101.6 L259.2,101.6 Z M259.2,101.6" id="2021"/>
                    <path class="unit" d="M265.2,113.2 L243.4,107.8 L249.8,103.2 L271.6,108.7 L265.2,113.2 L265.2,113.2 Z M265.2,113.2" id="2022"/>
                    <path class="unit" d="M243.2,107.9 L265,113.3 L261.1,116.1 L239.3,110.6 L243.2,107.9 L243.2,107.9 Z M243.2,107.9" id="2023"/>
                    <path class="unit" d="M252.2,122.5 L230.4,117.1 L239.1,110.9 L260.9,116.3 L252.2,122.5 L252.2,122.5 Z M252.2,122.5" id="2024"/>
                    <path class="unit" d="M231.3,122.4 L228.6,124.3 L222.5,122.7 L225.2,120.8 L231.3,122.4 L231.3,122.4 Z M231.3,122.4" id="2025"/>
                    <path class="unit" d="M244.2,128.2 L228.9,124.4 L231.8,122.3 L225.3,120.7 L230.2,117.2 L252,122.6 L244.2,128.2 L244.2,128.2 Z M244.2,128.2" id="2026"/>
                    <path class="unit" d="M223.6,134.6 L214.2,128.6 L220.4,124.1 L233.7,127.3 L223.6,134.6 L223.6,134.6 Z M223.6,134.6" id="2027"/>
                    <path class="unit" d="M243.7,142.2 L223.8,134.7 L234,127.3 L256.6,132.9 L250.6,137.2 L243.7,142.2 L243.7,142.2 Z M243.7,142.2" id="2028"/>
                    <path class="unit" d="M274.2,143.3 L256,156.2 L236.3,151.3 L254.2,138.4 L274.2,143.3 L274.2,143.3 Z M274.2,143.3" id="2029"/>
                    <path class="unit" d="M222.8,147.8 L209.9,144.7 L195.9,154.8 L208.6,157.9 L222.8,147.8 Z M222.8,147.8" id="2030"/>
                    <path class="unit" d="M181.7,151.4 L195.9,141.2 L209.7,144.6 L195.6,154.7 L181.7,151.4 L181.7,151.4 Z M181.7,151.4" id="2033"/>
                    <path class="unit" d="M295.1,86.5 L288.8,91 L272.6,87 C274.7,85.5 276.8,84 278.9,82.5 L295.1,86.5 L295.1,86.5 Z M295.1,86.5" id="2034"/>
                    <path class="unit" d="M383.2,32.2 L423.6,42.3 L426.1,46.2 L416.4,53.1 L424.4,55.1 L384.7,83.4 L392.7,85.4 L362.3,107.1 L359.6,106.4 L356.6,108.5 L307.6,96.3 L315.9,90.4 L305.8,87.9 L304.7,88.7 L279.1,82.3 L288.4,75.7 L290,76.1 L337.6,42.1 L338.4,39.9 L362.2,22.9 L386.5,29.7 L383.2,32.2 L383.2,32.2 Z M383.2,32.2" id="2035"/>
                    <path class="unit" d="M277.9,90.6 L273.8,93.5 L266.2,91.6 L270.3,88.7 L277.9,90.6 L277.9,90.6 Z M277.9,90.6" id="2036"/>
                    <path class="unit" d="M287.8,97.2 L284,99.9 L262.2,94.4 L266,91.7 L287.8,97.2 L287.8,97.2 Z M287.8,97.2" id="2037"/>
                    <path class="unit" d="M279.2,103.3 L257.4,97.8 L262,94.5 L283.8,99.9 L279.2,103.3 L279.2,103.3 Z M279.2,103.3" id="2038"/>
                    <path class="unit" d="M270.7,41.5 L275.5,38.1 L288.9,41.5 L284.1,44.9 L270.7,41.5 L270.7,41.5 Z M270.7,41.5" id="2039"/>
                    <path class="unit" d="M294.4,2.8 L302.4,5.5 L353.3,20.7 L315.4,47.8 L249.6,31.4 L266.9,19 L274,17.4 L294.4,2.8 L294.4,2.8 Z M294.4,2.8" id="2040"/>
                    <path class="unit" d="M193.1,17.6 L275.1,38.1 L270.1,41.7 L283.8,45.1 L269.5,55.3 L173.7,31.4 L193.1,17.6 L193.1,17.6 Z M193.1,17.6" id="2041"/>
                    <path class="unit" d="M162,52.9 L173.3,55.7 L198.6,37.7 L269.4,55.3 L265.4,58.1 L269,59 L264.6,62.1 L267.4,62.8 L263.2,65.8 L270.5,67.6 L223.7,101 L169.3,87.5 L172,85.6 L148.4,79.7 L152,56.2 C152.1,55.3 152.4,54.6 152.8,54 C153.3,53.3 154.1,52.8 155.1,52.4 L156.5,52.1 C157.7,52.1 159.6,52.3 162,52.9 L162,52.9 L162,52.9 Z M162,52.9" id="2042"/>
                    <path class="unit" d="M197.5,98.6 L219.8,104.1 L215.8,107 L193.5,101.5 L197.5,98.6 L197.5,98.6 Z M197.5,98.6" id="2043"/>
                    <path class="unit" d="M215.6,107.1 L193.3,101.6 L189.7,100.6 L195.9,96.2 L173.1,90.5 L155.4,103.1 L204.2,115.3 L210.9,110.5 L215.6,107.1 Z M215.6,107.1" id="2044"/>
                    <path class="unit" d="M155.2,103.2 L204,115.3 L195.5,121.4 L146.7,109.2 L155.2,103.2 L155.2,103.2 Z M155.2,103.2" id="2046"/>
                    <path class="unit" d="M187.3,127.3 L161.3,120.8 L152.7,126.9 L129.9,121.2 L146.5,109.4 L195.3,121.6 L187.3,127.3 L187.3,127.3 Z M187.3,127.3" id="2047"/>
                    <path class="unit" d="M183,130.4 L160.7,124.9 L164.8,122 L187.1,127.6 L183,130.4 L183,130.4 Z M183,130.4" id="2048"/>
                    <path class="unit" d="M178.7,133.4 L156.4,127.8 L160.5,124.9 L182.8,130.4 L178.7,133.4 L178.7,133.4 Z M178.7,133.4" id="2049"/>
                    <path class="unit" d="M174.8,136.3 L152.5,130.7 L156.3,128 L178.6,133.5 L174.8,136.3 L174.8,136.3 Z M174.8,136.3" id="2050"/>
                    <path class="unit" d="M148.5,133.6 L152.3,130.9 L174.6,136.4 L170.8,139.1 L148.5,133.6 L148.5,133.6 Z M148.5,133.6" id="2051"/>
                    <path class="unit" d="M170.6,139.2 L166.9,141.9 L161.5,140.6 L165.2,137.9 L170.6,139.2 L170.6,139.2 Z M170.6,139.2" id="2052"/>
                    <path class="unit" d="M140.3,135.7 L142.3,134.3 L146.1,135.2 L148.3,133.6 L164.8,137.7 L160.9,140.5 L166.6,141.9 L162.6,144.8 L137.3,138.5 L136.1,138.5 L130,137 L134.1,134.1 L140.3,135.7 L140.3,135.7 Z M140.3,135.7" id="2053"/>
                    <path class="unit" d="M134.2,140 L159.1,146.2 L148.4,153.8 L123.5,147.6 L134.2,140 L134.2,140 Z M134.2,140" id="2054"/>
                    <path class="unit" d="M112.6,145.1 L148.3,154 L143.9,157.1 L92.7,144.3 L101.1,138.3 L116.6,142.2 L112.6,145.1 L112.6,145.1 Z M112.6,145.1" id="2055"/>
                    <path class="unit" d="M101.2,146.7 L143.7,157.2 L139.3,160.3 L96.9,149.7 L101.2,146.7 L101.2,146.7 Z M101.2,146.7" id="2056"/>
                    <path class="unit" d="M130,167 L87.6,156.4 L96.7,149.9 L139.1,160.5 L130,167 L130,167 Z M130,167" id="2057"/>
                    <path class="unit" d="M120.9,173.5 L74.4,161.9 L83.2,155.6 L129.8,167.2 L120.9,173.5 L120.9,173.5 Z M120.9,173.5" id="2058"/>
                    <path class="unit" d="M152.5,110.9 L152.7,110.9 L152.8,110.9 L152.9,111.1 L152.8,111.2 L152.7,111.3 L152.5,111.2 L152.5,111.1 L152.5,110.9 M153.9,111.4 L153.8,111.5 L153.7,111.6 L153.5,111.5 L153.5,111.4 L153.5,111.3 L153.7,111.3 L153.8,111.3 L153.9,111.4 M153.9,112.2 L154,112.2 L154.1,112.3 L154,112.4 L153.9,112.5 L153.7,112.4 L153.7,112.3 L153.7,112.2 L153.9,112.2 M152.8,112.8 L153,112.8 L153.1,112.8 L153.2,113 L153.1,113.1 L153,113.2 L152.8,113.1 L152.8,113 L152.8,112.8 M154.7,111.5 L154.9,111.5 L155,111.5 L155.1,111.7 L155,111.8 L154.9,111.9 L154.7,111.8 L154.7,111.7 L154.7,111.5 M150.7,110.4 L150.6,110.5 L150.5,110.6 L150.3,110.5 L150.3,110.4 L150.3,110.2 L150.5,110.2 L150.6,110.2 L150.7,110.4 M151.5,110.6 L151.7,110.6 L151.8,110.6 L151.9,110.7 L151.8,110.8 L151.7,110.9 L151.5,110.8 L151.5,110.7 L151.5,110.6 M149.2,110 L149.4,110 L149.5,110 L149.6,110.1 L149.5,110.2 L149.4,110.3 L149.2,110.2 L149.2,110.1 L149.2,110 M151.9,113.5 L152.1,113.5 L152.2,113.5 L152.3,113.6 L152.2,113.7 L152.1,113.8 L151.9,113.7 L151.9,113.6 L151.9,113.5 M151,114.2 L151.2,114.2 L151.3,114.2 L151.4,114.4 L151.3,114.5 L151.2,114.6 L151,114.5 L151,114.4 L151,114.2 M150.4,115.1 L150.3,115.2 L150.1,115.1 L150.1,115 L150.1,114.9 L150.3,114.9 L150.4,114.9 L150.5,115 L150.4,115.1 M149.1,115.7 L149.1,115.6 L149.3,115.6 L149.4,115.6 L149.5,115.7 L149.4,115.8 L149.3,115.9 L149.1,115.7 M148.5,116.2 L148.6,116.4 L148.5,116.5 L148.4,116.6 L148.2,116.5 L148.2,116.4 L148.2,116.2 L148.4,116.2 L148.5,116.2 M148.3,109.7 L148.4,109.8 L148.3,109.9 L148.2,110 L148,110 L148,109.9 L148,109.8 L148.3,109.7 M146.9,109.4 L147.1,109.4 L147.2,109.4 L147.3,109.6 L147.2,109.7 L147.1,109.8 L146.9,109.7 L146.9,109.6 L146.9,109.4 M146.2,109.6 L146.3,109.7 L146.2,109.8 L146.1,109.9 L145.9,109.8 L145.9,109.7 L145.9,109.6 L146.1,109.6 L146.2,109.6 M145,110.3 L145.2,110.3 L145.3,110.3 L145.4,110.5 L145.3,110.6 L145.2,110.7 L145,110.6 L145,110.5 L145,110.3 M144.4,110.9 L144.5,111 L144.4,111.1 L144.3,111.2 L144.1,111.1 L144.1,111 L144.1,110.9 L144.3,110.9 L144.4,110.9 M141.4,113 L141.6,113 L141.7,113 L141.8,113.1 L141.7,113.2 L141.6,113.3 L141.4,113.2 L141.4,113.1 L141.4,113 M142.4,112.6 L142.2,112.5 L142.2,112.4 L142.2,112.2 L142.4,112.2 L142.5,112.2 L142.6,112.4 L142.5,112.5 L142.4,112.6 M143.2,111.6 L143.4,111.6 L143.5,111.6 L143.6,111.7 L143.5,111.8 L143.4,111.9 L143.2,111.8 L143.2,111.7 L143.2,111.6 M140.8,115.6 L141,115.6 L141.1,115.6 L141.2,115.8 L141.1,115.9 L141,116 L140.8,115.9 L140.8,115.8 L140.8,115.6 M140.7,113.9 L140.6,114 L140.4,113.9 L140.4,113.8 L140.4,113.6 L140.6,113.6 L140.7,113.6 L140.8,113.8 L140.7,113.9 M141.8,115.9 L142,115.9 L142.1,115.9 L142.2,116 L142.1,116.1 L142,116.2 L141.8,116.1 L141.8,116 L141.8,115.9 M144.1,116.5 L144.3,116.5 L144.4,116.5 L144.5,116.6 L144.4,116.7 L144.3,116.8 L144.1,116.7 L144.1,116.6 L144.1,116.5 M143.2,116.2 L143.3,116.4 L143.2,116.5 L143.1,116.6 L142.9,116.5 L142.9,116.4 L142.9,116.2 L143.1,116.2 L143.2,116.2 M145.2,116.8 L145.4,116.8 L145.5,116.8 L145.6,116.9 L145.5,117 L145.4,117.1 L145.2,117 L145.2,116.9 L145.2,116.8 M146.4,117.1 L146.6,117.1 L146.7,117.1 L146.8,117.3 L146.7,117.4 L146.6,117.5 L146.4,117.4 L146.4,117.3 L146.4,117.1 M147.6,116.9 L147.7,117 L147.6,117.1 L147.5,117.2 L147.3,117.1 L147.3,117 L147.3,116.9 L147.5,116.9 L147.6,116.9 M139.9,114.5 L139.8,114.6 L139.7,114.7 L139.5,114.6 L139.5,114.5 L139.5,114.4 L139.7,114.4 L139.8,114.4 L139.9,114.5 M139.7,115.3 L139.9,115.3 L140,115.3 L140.1,115.4 L140,115.5 L139.9,115.6 L139.7,115.5 L139.7,115.4 L139.7,115.3 M138.9,115.1 L138.8,115.2 L138.7,115.3 L138.5,115.2 L138.5,115.1 L138.5,114.9 L138.7,114.9 L138.8,114.9 L138.9,115.1" id="2059"/>
            </g>
        </g>
</svg>