<?xml version="1.0" encoding="utf-8"?>
<!DOCTYPE svg PUBLIC "-//W3C//DTD SVG 1.1//EN" "http://www.w3.org/Graphics/SVG/1.1/DTD/svg11.dtd">
<svg version="1.1" xmlns="http://www.w3.org/2000/svg" xmlns:xlink="http://www.w3.org/1999/xlink" xml:space="preserve">
<g class="level" id="level1">
            <g class="outline">
                <path d="M490.485,172.807 L479.305,170.039 L483.037,167.371 C483.382,167.123 483.589,166.726 483.594,166.304 L483.638,162.265 C483.646,161.649 483.227,161.108 482.629,160.957 L428.207,147.373 C427.829,147.278 427.431,147.354 427.113,147.58 L422.684,150.73 L412.977,148.311 L413.013,144.904 C413.021,144.287 412.602,143.746 412.001,143.596 L404.402,141.709 L448.885,113.251 L450.99,113.777 C451.37,113.873 451.767,113.796 452.084,113.571 L466.604,103.272 C466.954,103.023 467.165,102.618 467.165,102.186 L467.165,98.147 C467.165,97.536 466.748,97.002 466.157,96.855 L417.374,84.648 C416.996,84.553 416.598,84.627 416.278,84.854 L409.716,89.516 L384.106,83.152 C384.281,82.923 384.377,82.64 384.377,82.344 L384.377,78.31 C384.377,77.699 383.96,77.164 383.367,77.017 L358.998,70.935 C358.614,70.838 358.213,70.916 357.894,71.149 L354.538,73.579 L347.641,71.825 C347.26,71.726 346.856,71.804 346.537,72.033 L340.052,76.691 C339.872,76.441 339.605,76.252 339.29,76.172 L314.832,70.09 C314.454,69.997 314.056,70.072 313.74,70.296 L307.802,74.515 L286.558,69.246 C286.177,69.152 285.78,69.228 285.464,69.454 L277.75,74.956 L265.339,71.865 C264.966,71.771 264.566,71.846 264.248,72.07 L258.043,76.467 L250.689,74.658 C250.311,74.566 249.914,74.642 249.598,74.865 L245.16,78.017 C244.811,78.264 244.602,78.662 244.598,79.088 L244.553,83.128 C244.547,83.745 244.965,84.287 245.566,84.437 L249.206,85.34 L245.127,88.27 L243.642,87.891 C243.257,87.793 242.853,87.87 242.533,88.103 L237.742,91.564 C237.398,91.811 237.195,92.206 237.187,92.627 L237.158,95.38 L232.838,94.309 L232.838,91.356 C232.838,90.743 232.419,90.209 231.823,90.063 L227.118,88.908 C226.742,88.815 226.346,88.892 226.03,89.115 L222.403,91.69 L218.603,90.73 C218.224,90.635 217.823,90.709 217.502,90.938 L209.752,96.48 L207.425,95.879 C207.043,95.781 206.642,95.857 206.321,96.082 L199.673,100.79 L196.136,99.916 C195.759,99.824 195.359,99.898 195.042,100.125 L182.437,109.137 C182.086,109.387 181.878,109.789 181.878,110.22 L181.878,112.684 L177.511,115.791 C177.164,116.037 176.957,116.435 176.951,116.858 L176.93,118.386 L176.762,118.342 C176.377,118.238 175.967,118.313 175.645,118.543 L172.416,120.851 L166.976,119.491 C166.789,119.445 166.593,119.439 166.407,119.474 L156.064,121.427 C155.435,121.545 154.978,122.095 154.978,122.736 L154.978,123.684 L152.228,124.229 L150.728,122.861 C150.423,122.584 150.009,122.463 149.601,122.534 L134.821,125.108 C134.638,125.14 134.465,125.209 134.31,125.312 L133.292,126 L129.026,124.953 C128.648,124.861 128.25,124.937 127.935,125.162 L115.195,134.263 C114.849,134.509 114.642,134.908 114.637,135.33 L114.593,139.371 C114.586,139.987 115.003,140.528 115.601,140.677 L120.253,141.841 L116.307,144.648 C115.956,144.897 115.747,145.302 115.747,145.735 L115.747,149.775 C115.747,149.897 115.764,150.016 115.795,150.129 L113.272,149.502 C112.889,149.41 112.487,149.485 112.17,149.716 L110.097,151.217 L93.742,147.151 C93.367,147.059 92.965,147.131 92.647,147.358 L88.475,150.335 C88.166,150.556 87.966,150.897 87.925,151.274 L82.508,200.676 C82.503,200.725 82.5,200.772 82.5,200.822 L82.5,204.862 C82.5,205.383 82.806,205.859 83.279,206.074 L102.588,214.862 C102.679,214.903 102.776,214.934 102.874,214.954 L127.593,219.995 C127.75,220.114 127.935,220.199 128.14,220.239 L156.228,225.794 L157.179,226.781 C157.367,226.975 157.607,227.107 157.87,227.161 L284.556,253.04 C284.746,253.079 284.945,253.075 285.135,253.028 L297.431,250.055 C297.836,249.956 298.172,249.673 298.339,249.292 L303.792,236.784 L310.396,238.428 L306.957,238.24 C306.389,238.224 305.857,238.548 305.646,239.078 L302.361,247.336 C302.301,247.488 302.269,247.65 302.267,247.815 L302.222,251.855 C302.215,252.472 302.633,253.011 303.232,253.163 L315.351,256.181 C315.726,256.273 316.126,256.199 316.445,255.973 L320.738,252.911 L338.032,257.246 C338.138,257.272 338.246,257.286 338.355,257.286 C338.632,257.286 338.908,257.198 339.138,257.03 L343.871,253.579 L353.52,256 C353.671,256.039 353.828,256.051 353.983,256.032 L380.394,253.238 C380.623,253.215 380.841,253.131 381.031,252.997 L383.497,251.23 L384.577,251.514 C384.961,251.615 385.368,251.539 385.69,251.311 L400.604,240.658 C400.951,240.411 401.157,240.013 401.163,239.589 L401.209,235.551 C401.217,234.936 400.8,234.394 400.2,234.243 L395.199,232.993 L395.767,232.591 L399.538,232.041 C399.7,232.077 399.866,232.083 400.034,232.06 L407.98,230.818 C408.181,230.787 408.377,230.708 408.545,230.587 L415.686,225.492 L417.934,227.048 C418.039,227.12 418.159,227.179 418.282,227.219 L418.416,227.262 C418.816,227.392 419.257,227.324 419.6,227.079 L433.526,217.141 L436.034,217.786 C436.415,217.882 436.819,217.807 437.138,217.58 L454.094,205.464 C454.434,205.221 454.64,204.834 454.654,204.418 L454.678,203.48 L469.448,192.945 L470.499,193.2 C470.876,193.293 471.27,193.216 471.587,192.99 L490.897,179.23 C491.246,178.984 491.453,178.584 491.458,178.161 L491.503,174.12 C491.503,173.496 491.085,172.955 490.485,172.807 L490.485,172.807 Z M155.911,160.098 L135.863,155.119 L148.893,154.71 L159.675,157.422 L155.911,160.098 L155.911,160.098 Z M242.492,222.646 L236.262,221.402 L236.262,219.177 L245.909,219.656 L242.492,222.646 L242.492,222.646 Z M257.057,144.076 L257.078,142.066 C257.079,141.947 257.064,141.83 257.036,141.717 L259.419,142.381 L257.057,144.076 L257.057,144.076 Z M315.096,217.958 L315.096,221.705 L310.866,220.643 L314.051,213.369 L314.031,215.015 C314.028,215.271 314.098,215.524 314.235,215.741 L315.249,217.343 C315.148,217.528 315.096,217.74 315.096,217.958 L315.096,217.958 Z M316.96,208.301 L315.954,209.014 L316.96,206.715 L316.96,208.301 L316.96,208.301 Z M330.24,177.93 L329.25,178.624 L330.261,176.314 L330.24,177.93 L330.24,177.93 Z M331.421,173.664 L332.475,171.261 C332.544,171.099 332.582,170.92 332.584,170.742 L332.629,166.703 C332.636,166.246 332.402,165.816 332.02,165.568 L321.395,158.735 L322.916,157.653 L335.587,160.803 L335.452,160.899 C335.101,161.148 334.894,161.551 334.894,161.982 L334.894,166.023 C334.894,166.633 335.31,167.168 335.904,167.316 L339.202,168.135 L331.421,173.664 L331.421,173.664 Z M325.911,56.297 L328.142,56.861 L328.099,60.628 C328.092,61.245 328.511,61.786 329.111,61.936 L350.105,67.173 C350.482,67.268 350.88,67.193 351.198,66.968 L355.719,63.767 L358.461,64.424 C358.857,64.52 359.275,64.426 359.596,64.174 C359.889,63.944 360.071,63.603 360.098,63.233 L371.377,66.035 L371.377,66.593 C371.377,67.203 371.793,67.737 372.385,67.884 L382.994,70.548 C383.37,70.643 383.772,70.568 384.089,70.342 L385.277,69.498 L403.59,74.056 C403.696,74.081 403.804,74.094 403.911,74.094 C404.184,74.094 404.457,74.009 404.682,73.846 L419.06,63.587 L420.159,63.848 C420.533,63.938 420.928,63.86 421.239,63.635 L469.313,29.323 C469.659,29.076 469.867,28.677 469.871,28.255 L469.915,24.215 C469.922,23.597 469.504,23.058 468.904,22.907 L439.032,15.494 C438.666,15.403 438.272,15.473 437.957,15.689 L437.741,15.836 L377.247,0.757 C376.868,0.664 376.469,0.738 376.151,0.965 L334.603,30.617 C334.255,30.864 334.048,31.262 334.044,31.685 L334,35.725 C333.992,36.34 334.411,36.881 335.009,37.032 L337.354,37.618 L333.096,40.647 C332.748,40.894 332.541,41.292 332.535,41.716 L332.499,44.904 L325.5,49.926 C325.154,50.173 324.949,50.571 324.943,50.993 L324.9,54.988 C324.896,55.606 325.314,56.146 325.911,56.297 L325.911,56.297 Z M325.911,56.297" class="outline"/>
            </g>
            <g class="label">
                <path d="M29.625,120.465 C29.017,120.465 28.056,120.513 27.416,120.673 C27,120.785 26.84,121.073 26.84,121.457 L26.84,130.933 C26.84,131.318 26.984,131.637 27.544,131.734 C28.056,131.83 28.697,131.91 29.785,131.91 C33.322,131.91 34.859,129.365 34.859,126.196 C34.859,122.882 33.307,120.465 29.625,120.465 L29.625,120.465 Z M29.817,130.724 C29.161,130.724 28.585,130.708 28.072,130.628 L28.072,121.744 C28.536,121.681 29.16,121.648 29.641,121.648 C32.506,121.648 33.611,123.52 33.611,126.082 C33.611,128.868 32.491,130.724 29.817,130.724 L29.817,130.724 Z M14.041,120.528 C13.688,120.528 13.416,120.785 13.416,121.184 L13.416,131.205 C13.416,131.605 13.672,131.846 14.024,131.846 C14.376,131.846 14.648,131.606 14.648,131.205 L14.648,121.184 C14.649,120.785 14.393,120.528 14.041,120.528 L14.041,120.528 Z M19.769,120.465 C19.161,120.465 18.2,120.513 17.56,120.673 C17.144,120.785 16.984,121.073 16.984,121.457 L16.984,130.933 C16.984,131.318 17.128,131.637 17.688,131.734 C18.2,131.83 18.841,131.91 19.929,131.91 C23.466,131.91 25.003,129.365 25.003,126.196 C25.003,122.882 23.451,120.465 19.769,120.465 L19.769,120.465 Z M19.961,130.724 C19.305,130.724 18.729,130.708 18.216,130.628 L18.216,121.744 C18.68,121.681 19.304,121.648 19.785,121.648 C22.65,121.648 23.755,123.52 23.755,126.082 C23.755,128.868 22.634,130.724 19.961,130.724 L19.961,130.724 Z M10.46,121.825 C10.348,120.993 10.06,120.528 9.404,120.528 C8.779,120.528 8.508,120.896 8.331,121.361 C7.515,123.57 6.619,126.403 5.642,129.028 L5.626,129.028 C4.618,126.547 3.834,123.938 2.809,121.505 C2.585,120.897 2.313,120.528 1.688,120.528 C1.032,120.528 0.728,120.976 0.632,121.857 C0.279,124.786 0.088,127.956 0.104,131.205 C0.088,131.589 0.328,131.846 0.68,131.846 C1.032,131.846 1.304,131.621 1.304,131.19 C1.288,128.117 1.48,125.139 1.817,122.146 L1.833,122.146 C2.81,124.771 3.754,127.412 4.794,130.037 C4.922,130.374 5.194,130.613 5.61,130.613 C6.01,130.613 6.314,130.374 6.442,130.037 C7.466,127.492 8.347,124.787 9.275,122.146 L9.291,122.146 C9.708,125.171 9.867,128.148 9.947,131.125 C9.947,131.573 10.171,131.846 10.588,131.846 C10.94,131.846 11.164,131.558 11.164,131.173 C11.164,131.045 11.148,130.805 11.148,130.693 C11.117,127.651 10.861,124.594 10.46,121.825 L10.46,121.825 Z M85.129,130.596 L80.823,130.596 L80.823,121.184 C80.823,120.785 80.567,120.528 80.215,120.528 C79.862,120.528 79.59,120.785 79.59,121.184 L79.59,130.821 C79.59,131.413 79.958,131.781 80.647,131.781 L85.128,131.781 C85.528,131.781 85.784,131.509 85.784,131.173 C85.786,130.869 85.546,130.596 85.129,130.596 L85.129,130.596 Z M92.746,130.596 L88.44,130.596 L88.44,121.184 C88.44,120.785 88.184,120.528 87.832,120.528 C87.479,120.528 87.207,120.785 87.207,121.184 L87.207,130.821 C87.207,131.413 87.575,131.781 88.264,131.781 L92.745,131.781 C93.145,131.781 93.401,131.509 93.401,131.173 C93.402,130.869 93.162,130.596 92.746,130.596 L92.746,130.596 Z M42.234,130.596 L37.928,130.596 L37.928,121.184 C37.928,120.785 37.672,120.528 37.32,120.528 C36.967,120.528 36.695,120.785 36.695,121.184 L36.695,130.821 C36.695,131.413 37.063,131.781 37.752,131.781 L42.233,131.781 C42.633,131.781 42.889,131.509 42.889,131.173 C42.89,130.869 42.65,130.596 42.234,130.596 L42.234,130.596 Z M75.018,122.001 C74.394,120.753 73.898,120.385 73.337,120.385 C72.777,120.385 72.281,120.753 71.656,122.001 C70.76,123.81 70.072,126.083 68.903,130.709 C68.839,130.933 68.807,131.109 68.807,131.221 C68.807,131.606 69.063,131.846 69.415,131.846 C69.703,131.846 69.911,131.669 69.991,131.333 C70.295,129.956 70.599,128.724 70.904,127.668 L75.77,127.668 C76.058,128.724 76.362,129.956 76.683,131.333 C76.763,131.669 76.971,131.846 77.259,131.846 C77.611,131.846 77.867,131.606 77.867,131.221 C77.867,131.11 77.819,130.933 77.771,130.709 C76.634,126.083 75.914,123.809 75.018,122.001 L75.018,122.001 Z M71.224,126.547 C71.96,124.098 72.617,122.577 73.129,121.777 C73.177,121.713 73.225,121.649 73.337,121.649 C73.449,121.649 73.497,121.712 73.545,121.777 C74.057,122.577 74.697,124.097 75.434,126.547 L71.224,126.547 L71.224,126.547 Z M50.314,130.564 L45.544,130.564 L45.544,126.707 L49.418,126.707 C49.802,126.707 50.01,126.387 50.01,126.115 C50.01,125.827 49.802,125.539 49.418,125.539 L45.544,125.539 L45.544,121.81 L50.154,121.81 C50.57,121.81 50.794,121.538 50.794,121.234 C50.794,120.897 50.57,120.593 50.154,120.593 L45.368,120.593 C44.68,120.593 44.311,120.961 44.311,121.553 L44.311,130.822 C44.311,131.414 44.679,131.782 45.368,131.782 L50.314,131.782 C50.698,131.782 50.922,131.446 50.922,131.174 C50.923,130.837 50.699,130.564 50.314,130.564 L50.314,130.564 Z M66.459,121.825 C66.347,120.993 66.059,120.528 65.403,120.528 C64.778,120.528 64.507,120.896 64.33,121.361 C63.514,123.57 62.618,126.403 61.641,129.028 L61.625,129.028 C60.617,126.547 59.833,123.938 58.808,121.505 C58.584,120.897 58.312,120.528 57.687,120.528 C57.031,120.528 56.727,120.976 56.631,121.857 C56.278,124.786 56.087,127.956 56.103,131.205 C56.087,131.589 56.327,131.846 56.679,131.846 C57.031,131.846 57.303,131.621 57.303,131.19 C57.287,128.117 57.479,125.139 57.816,122.146 L57.832,122.146 C58.809,124.771 59.753,127.412 60.793,130.037 C60.921,130.374 61.193,130.613 61.609,130.613 C62.009,130.613 62.313,130.374 62.441,130.037 C63.465,127.492 64.346,124.787 65.274,122.146 L65.29,122.146 C65.707,125.171 65.866,128.148 65.946,131.125 C65.946,131.573 66.17,131.846 66.587,131.846 C66.939,131.846 67.163,131.558 67.163,131.173 C67.163,131.045 67.147,130.805 67.147,130.693 C67.116,127.651 66.86,124.594 66.459,121.825 L66.459,121.825 Z M66.459,121.825" class="Shape"/>
            </g>
            <g class="background">
                <path d="M402.011,50.865 L397.444,54.105 L420.477,59.831 L420.477,60.675 L403.922,72.484 L383.325,67.38 L383.325,66.58 L391.759,60.544 L381.994,58.104 L372.717,64.716 L358.779,61.254 L356.828,58.148 L356.828,57.35 L376.138,43.588 L402.014,50.026 L402.011,50.865 M356.514,75.146 L356.514,75.944 L312.659,107.239 L313.813,108.704 L313.813,109.504 L308.309,113.409 L371.206,129.078 L372.407,131.208 L403.079,138.312 L403.079,139.111 L394.867,142.84 L383.903,150.652 L396.507,170.671 L470.86,189.182 L470.86,190.027 L453.238,202.589 L430.734,196.862 L413.732,208.935 L408.714,209.469 L369.696,237.344 L374.446,244.891 L384.922,247.51 L384.922,248.311 L380.261,251.64 L353.85,254.435 L341.91,251.46 L341.956,250.66 L346.219,247.555 L340.892,238.811 L340.892,238.01 L390.697,202.499 L349.506,137.736 L326.911,132.097 L325.624,130.01 L278.527,118.291 L270.447,119.135 L244.703,137.512 L251.007,139.111 L252.915,137.735 L254.779,138.177 L255.978,137.334 L258.152,137.91 L258.109,138.708 L251.849,143.192 L249.896,142.703 L248.298,143.902 L229.741,144.923 L193.61,170.713 L162.714,162.945 L162.714,162.148 L251.092,99.116 L255.04,100.137 L256.506,102.711 L271.776,106.528 L277.721,105.773 L295.124,110.123 L347.324,72.836 L356.514,75.146" class="walkway"/>
                <path d="M448.662,111.544 L451.326,112.21 L465.842,101.912 L465.842,97.873 L451.372,108.215 L448.708,107.549 L403.076,136.669 L388.828,133.383 L441.516,95.831 L441.516,91.791 C422.548,105.344 403.566,118.883 384.57,132.407 L372.408,129.61 L371.207,127.48 L365.928,126.149 L410.003,94.721 L410.003,90.682 L361.797,125.126 L341.156,119.978 L385.189,88.55 L385.236,84.512 L336.982,118.955 L307.508,111.587 L307.463,115.626 L371.205,131.519 L372.361,133.649 L403.077,140.706 L448.662,111.544 L448.662,111.544 Z M336.98,175.065 L378.839,185.54 L378.883,181.502 L337.025,171.07 L336.98,175.065 L336.98,175.065 Z M344.661,33.775 L335.384,31.421 L335.34,35.46 L344.617,37.77 L344.661,33.775 L344.661,33.775 Z M354.516,162.637 L354.471,166.231 L350.742,165.299 L350.697,169.337 L371.917,174.62 L371.961,170.625 L369.208,169.914 L369.208,166.274 L354.516,162.637 L354.516,162.637 Z M312.302,105.107 L312.258,109.102 L313.768,111.1 L313.813,107.061 L312.302,105.107 L312.302,105.107 Z M392.601,58.322 L383.371,64.936 L372.718,62.317 L372.718,66.312 L383.326,68.975 L392.557,62.361 L392.601,58.322 L392.601,58.322 Z M383.457,82.025 L383.457,77.986 L383.058,78.298 L383.058,78.031 L376.888,82.426 L376.888,86.465 L377.287,86.198 L377.243,86.42 L383.457,82.025 L383.457,82.025 Z M346.08,164.145 L336.226,161.704 L336.226,165.744 L346.036,168.185 L354.779,161.925 L363.304,161.037 L363.348,157.042 L354.827,157.931 L346.08,164.145 L346.08,164.145 Z M342.886,160.947 L342.93,157.264 L347.858,153.712 L358.158,153.224 L358.247,153.134 L358.291,149.097 L358.203,149.186 L347.903,149.672 L339.115,155.978 L338.094,155.709 L353.097,145.012 L353.142,140.974 L333.922,154.689 L326.864,152.914 L346.839,138.667 L346.839,134.627 L314.566,157.663 L314.566,161.703 L322.646,155.932 L342.886,160.947 L342.886,160.947 Z M482.312,161.971 L472.012,169.294 L471.965,173.332 L482.264,166.008 L482.312,161.971 L482.312,161.971 Z M396.597,56.325 L420.476,62.272 L468.549,27.96 L468.594,23.92 L420.523,58.233 L396.597,52.285 L396.597,56.325 L396.597,56.325 L396.597,56.325 Z M384.655,194.64 L384.699,190.602 L335.118,178.26 L335.162,175.775 L331.611,174.887 L331.566,178.926 L332.543,179.193 L332.543,181.633 L384.655,194.64 L384.655,194.64 Z M295.744,154.157 L311.458,146.434 L328.682,134.137 L328.725,130.098 L311.503,142.394 L295.79,150.117 L293.35,149.497 L293.35,146.168 L291.619,145.68 L315.012,128.991 L315.012,124.951 L287.58,144.57 L274.884,141.019 L297.744,124.686 L297.789,120.646 L270.845,139.866 L255.976,135.693 L254.777,136.581 L252.959,136.094 L251.005,137.469 L243.859,135.695 L243.859,139.735 L251.005,141.509 L252.913,140.132 L254.777,140.576 L255.976,139.733 L289.888,149.231 L289.888,152.694 L295.744,154.157 L295.744,154.157 Z M422.874,200.012 L422.874,204.049 L441.339,208.666 L436.412,212.172 L413.774,206.535 L413.727,210.575 L429.085,214.391 L427.401,215.588 L404.672,209.95 L404.672,213.99 L423.184,218.606 L422.471,219.138 L399.744,213.457 L399.744,217.497 L413.724,220.957 L411.549,222.512 L393.442,217.984 L393.396,222.024 L406.757,225.353 L400.19,226.374 L400.19,226.286 L395.618,226.952 L384.653,224.243 L384.61,228.283 L391.221,229.926 L387.939,232.28 L387.893,236.32 L395.26,231.037 L399.83,230.37 L399.83,230.46 L407.775,229.219 L415.675,223.578 L418.694,225.668 L418.828,225.712 L433.254,215.413 L436.361,216.212 L453.317,204.094 L453.363,200.054 L445.505,205.649 L422.874,200.012 L422.874,200.012 Z M310.882,242.357 L310.837,246.397 L344.44,246.217 L344.44,242.18 L311.77,242.357 L311.77,239.56 L310.882,242.357 L310.882,242.357 Z M234.934,221.673 L234.934,217.633 L230.76,221.362 L230.716,225.402 L234.934,221.673 L234.934,221.673 Z M201.107,174.843 L201.107,178.882 L202.349,177.95 L202.394,173.91 L201.107,174.843 L201.107,174.843 Z M470.855,187.584 L441.382,180.26 L466.774,162.151 L466.818,158.111 L437.212,179.195 L400.68,170.094 L417.591,158.022 L422.474,159.265 L430.955,153.182 L430.955,149.187 L422.474,155.225 L417.638,154.026 L396.507,169.074 L392.337,162.415 L411.647,148.655 L411.691,144.614 L390.604,159.663 L383.546,148.477 L383.502,152.517 L396.506,173.069 L470.811,191.624 L490.122,177.864 L490.167,173.825 L470.855,187.584 L470.855,187.584 Z M340.889,240.448 L391.047,204.672 L391.047,200.632 L387.452,203.207 L325.973,187.849 L325.928,191.889 L383.28,206.183 L373.825,212.93 L320.781,199.702 L320.736,203.741 L369.653,215.904 L364.817,219.322 L321.847,208.622 L321.847,206.139 L318.295,205.249 L318.295,209.288 L319.272,209.556 L319.229,211.996 L360.643,222.339 L357.757,224.379 L317.718,214.394 L315.41,210.753 L315.365,214.748 L317.363,217.9 L316.43,217.677 L316.43,221.715 L326.152,224.114 L326.152,220.563 L353.584,227.398 L348.39,231.082 L320.515,224.157 L320.471,228.152 L344.173,234.054 L340.934,236.406 L322.645,235.785 L304.623,231.302 L331.257,170.447 L331.302,166.407 L297.168,244.441 L284.87,247.459 L226.811,235.563 L236.886,226.642 L236.931,222.602 L223.125,234.809 L158.186,221.538 L156.944,220.252 L134.173,215.772 L146.693,209.468 L172.881,214.529 L253.534,218.434 L253.58,214.395 L247.677,214.083 L256.998,174.268 L257.087,174.268 L257.131,170.228 L240.798,169.428 L240.843,166.542 L233.298,164.636 L237.336,161.751 L237.336,159.886 L239.333,160.375 L244.437,156.778 L244.437,155 L246.168,155.444 L253.004,150.606 L253.004,147.72 L255.712,145.769 L255.756,141.774 L250.075,145.812 L250.03,148.698 L246.213,151.406 L242.173,150.385 L240.308,151.717 L240.308,155.667 L239.33,156.378 L217.891,151.006 L217.891,155.044 L235.072,159.351 L230.986,162.282 L228.191,161.571 L228.191,161.793 L226.547,162.947 L226.547,165.432 L224.683,166.763 L221.975,166.098 L220.288,167.297 L201.643,162.638 L201.599,166.677 L218.999,170.984 L217.091,172.361 L200.356,168.189 L198.536,169.475 L193.743,168.275 L193.698,172.316 L196.63,173.027 L196.63,176.533 L200.225,173.915 L200.269,172.227 L200.314,172.227 L217.048,176.401 L223.173,172.049 L223.173,170.446 L224.637,170.8 L229.12,167.603 L229.12,165.874 L230.94,166.318 L230.983,166.318 L230.94,168.092 L237.022,169.601 L236.975,173.286 L256.108,174.219 L246.743,214.036 L172.925,210.485 L146.693,205.424 L128.67,214.525 L103.192,209.329 L83.838,200.543 L83.838,204.583 L103.147,213.37 L128.404,218.519 L128.404,218.652 L156.903,224.29 L158.145,225.577 L284.832,251.455 L297.129,248.48 L303.03,234.942 L322.651,239.825 L340.889,240.448 L340.889,240.448 Z M374.49,243.288 L369.341,235.166 L369.341,239.208 L374.446,247.328 L384.922,249.947 L399.836,239.295 L399.883,235.255 L384.966,245.908 L374.49,243.288 L374.49,243.288 Z M334.497,54.194 L353.982,59.077 L350.476,61.563 L329.48,56.326 L329.435,60.364 L350.431,65.601 L355.445,62.049 L358.775,62.848 L358.775,58.81 L358.332,58.721 L376.087,46.027 L401.966,52.463 L402.01,48.423 L376.134,41.986 L371.34,45.405 L362.018,43.094 L356.425,47.089 L333.875,41.452 L333.831,45.491 L361.53,52.416 L356.869,55.745 L328.948,48.776 L328.948,51.394 L326.285,50.729 L326.241,54.723 L334.453,56.81 L334.497,54.194 L334.497,54.194 Z M320.471,247.15 L315.675,250.569 L303.602,247.549 L303.559,251.589 L315.674,254.609 L320.469,251.189 L338.358,255.672 L346.571,249.724 L346.616,245.686 L338.403,251.632 L320.471,247.15 L320.471,247.15 Z M231.516,91.082 L229.295,92.681 L229.251,96.721 L231.516,95.121 L231.516,91.082 L231.516,91.082 Z M182.109,117.581 L178.293,116.604 L178.249,120.643 L182.066,121.62 L182.109,117.581 L182.109,117.581 Z M127.601,138.001 L115.97,135.07 L115.925,139.11 L127.555,142.039 L127.601,138.001 L127.601,138.001 Z M256.55,81.493 L245.94,78.83 L245.897,82.87 L256.505,85.533 L256.55,81.493 L256.55,81.493 Z M157.83,124.239 L156.32,122.464 L156.32,126.503 L157.785,128.278 L157.83,124.239 L157.83,124.239 Z M149.084,149.098 L133.459,149.584 L117.08,145.456 L117.08,149.496 L133.459,153.58 L149.04,153.093 L162.891,156.554 L162.846,160.417 L162.713,160.548 L162.669,164.543 L166.93,161.526 L166.975,157.575 L171.102,158.596 L248.561,103.331 L248.561,101.022 L255.041,102.531 L256.506,105.105 L271.776,108.922 L277.723,108.211 L295.079,112.518 L338.933,81.224 L338.978,77.185 L295.124,108.479 L283.671,105.638 L323.311,77.319 L323.354,73.279 L279.5,104.618 L277.771,104.175 L271.777,104.885 L256.552,101.113 L255.087,98.494 L249.939,97.296 L249.939,95.875 L245.81,94.811 L244.967,95.433 L244.699,95.388 L244.744,93.878 L238.53,92.368 L238.483,96.363 L243.145,97.562 L243.145,99.026 L244.92,99.47 L245.764,98.849 L248.338,99.515 L220.639,119.268 L183.221,109.947 L183.221,113.986 L216.423,122.243 L205.37,130.142 L172.7,122.021 L172.7,126.015 L201.198,133.119 L189.879,141.198 L133.594,127.125 L133.549,131.164 L185.662,144.215 L171.103,154.558 L149.084,149.098 L149.084,149.098 Z M149.084,149.098" class="wall"/>
            </g>
            <g class="ceilings">
                <path class="unit" d="M370.785,45.472 L365.413,49.333 L356.535,47.114 L361.862,43.252 L370.785,45.472 L370.785,45.472 Z M370.785,45.472" id="2001"/>
                <path class="unit" d="M337.582,42.764 L365.014,49.645 L356.45,55.771 L328.972,48.935 L337.582,42.764 L337.582,42.764 Z M337.582,42.764" id="2002"/>
                <path class="unit" d="M438.21,16.975 L467.596,24.342 L419.834,58.389 L396.353,52.575 L401.769,48.713 L375.537,42.189 L370.743,45.607 L361.467,43.297 L355.873,47.292 L333.769,41.743 L344.509,34.064 L335.234,31.71 L376.515,2.325 L437.504,17.506 L438.21,16.975 L438.21,16.975 Z M438.21,16.975" id="2003"/>
                <path class="unit" d="M328.882,49.334 L356.447,56.169 L358.222,59.01 L355.202,58.255 L350.186,61.807 L329.635,56.659 L334.652,53.152 L326.44,51.11 L328.882,49.334 L328.882,49.334 Z M328.882,49.334" id="2004"/>
                <path class="unit" d="M308.286,76.01 L314.678,71.395 L323.157,73.526 L279.611,104.642 L277.968,104.199 L272.019,104.954 L256.927,101.182 L255.506,98.609 L248.937,97.099 L250.491,95.99 L245.964,94.836 L245.122,95.456 L243.699,95.1 L245.253,94.034 L239.083,92.481 L243.654,89.196 L245.695,89.73 L257.06,81.606 L246.452,78.988 L250.713,75.969 L258.613,77.966 L265.316,73.216 L278.277,76.456 C281.029,74.503 283.767,72.534 286.49,70.552 L308.286,76.01 L308.286,76.01 Z M308.286,76.01" id="2005"/>
                <path class="unit" d="M279.744,104.687 L323.289,73.57 L338.512,77.386 L294.968,108.414 L279.744,104.687 L279.744,104.687 Z M279.744,104.687" id="2006"/>
                <path class="unit" d="M314.322,107.305 L312.767,105.308 L358.976,72.328 L382.902,78.32 L376.732,82.671 L385.076,84.757 L337.094,118.982 L308.108,111.703 L314.322,107.305 L314.322,107.305 Z M314.322,107.305" id="2007"/>
                <path class="unit" d="M385.479,85.021 L409.801,91.103 L361.863,125.327 L337.494,119.246 L385.479,85.021 L385.479,85.021 Z M385.479,85.021" id="2008"/>
                <path class="unit" d="M441.407,92.213 L384.809,132.608 L372.913,129.856 L371.758,127.725 L362.393,125.415 L417.344,86.177 L441.407,92.213 L441.407,92.213 Z M441.407,92.213" id="2009"/>
                <path class="unit" d="M451.881,94.76 L441.629,92.212 L385.033,132.606 L394.426,134.753 L451.881,94.76 Z M451.881,94.76" id="2010"/>
                <path class="unit" d="M372.782,62.739 L381.837,56.258 L392.001,58.832 L383.034,65.27 L372.782,62.739 L372.782,62.739 Z M372.782,62.739" id="2011"/>
                <path class="unit" d="M411.355,145.212 L390.625,159.994 L383.834,149.072 L394.932,141.129 L411.355,145.212 L411.355,145.212 Z M411.355,145.212" id="2012"/>
                <path class="unit" d="M430.576,149.784 L422.319,155.688 L417.48,154.49 L396.574,169.36 L390.803,160.214 L407.094,148.627 L422.987,152.578 L427.87,149.117 L430.576,149.784 L430.576,149.784 Z M430.576,149.784" id="2013"/>
                <path class="unit" d="M417.614,154.712 L422.497,155.953 L430.976,149.871 L466.354,158.704 L437.058,179.611 L396.796,169.579 L417.614,154.712 L417.614,154.712 Z M417.614,154.712" id="2014"/>
                <path class="unit" d="M481.845,162.523 L471.547,169.892 L489.656,174.418 L470.613,187.957 L437.454,179.7 L466.707,158.837 L481.845,162.523 L481.845,162.523 Z M481.845,162.523" id="2015"/>
                <path class="unit" d="M231.139,91.503 L229.052,93.058 L230.384,95.278 L248.184,99.716 L220.531,119.469 L183.555,110.237 L195.938,101.448 L200.067,102.469 L207.126,97.408 L210.101,98.118 L218.312,92.259 L222.751,93.369 L226.879,90.439 L231.139,91.503 L231.139,91.503 Z M231.139,91.503" id="2016"/>
                <path class="unit" d="M186.616,111.122 L220.306,119.512 L205.258,130.254 L173.077,122.22 L176.539,119.736 L178.847,120.312 L182.443,117.782 L178.582,116.805 L186.616,111.122 L186.616,111.122 Z M186.616,111.122" id="2017"/>
                <path class="unit" d="M270.511,116.937 L278.367,116.092 L297.322,120.843 L270.644,139.84 L255.863,135.667 L254.622,136.557 L252.802,136.069 L250.85,137.445 L244.102,135.757 L270.511,116.937 L270.511,116.937 Z M270.511,116.937" id="2018"/>
                <path class="unit" d="M149.818,123.906 L151.816,125.726 L158.163,124.527 L156.698,122.751 L166.685,120.844 L205.037,130.432 L189.81,141.262 L134.015,127.369 L135.303,126.481 L149.818,123.906 L149.818,123.906 Z M149.818,123.906" id="2019"/>
                <path class="unit" d="M297.676,120.933 L314.544,125.15 L287.333,144.546 L271.043,139.932 L297.676,120.933 L297.676,120.933 Z M297.676,120.933" id="2020"/>
                <path class="unit" d="M287.822,144.68 L315.032,125.283 L325.374,127.857 L326.66,129.899 L328.346,130.341 L311.256,142.505 L295.675,150.14 L290.172,148.764 L293.635,146.323 L287.822,144.68 L287.822,144.68 Z M287.822,144.68" id="2021"/>
                <path class="unit" d="M349.167,135.625 L352.717,141.217 L333.72,154.844 L322.845,152.139 L346.77,135.048 L349.167,135.625 L349.167,135.625 Z M349.167,135.625" id="2022"/>
                <path class="unit" d="M128.911,126.437 L189.59,141.528 L171.125,154.713 L149.286,149.297 L133.617,149.74 L117.549,145.702 L128.024,138.244 L116.395,135.359 L128.911,126.437 L128.911,126.437 Z M128.911,126.437" id="2023"/>
                <path class="unit" d="M358.268,149.296 L347.968,149.784 L339.223,156.044 L334.43,154.844 L353.25,141.397 L358.268,149.296 L358.268,149.296 Z M358.268,149.296" id="2024"/>
                <path class="unit" d="M218.266,150.982 L229.985,142.636 L248.362,141.572 L248.453,141.572 L250.006,140.463 L255.466,141.795 L249.784,145.881 L252.713,146.59 L246.144,151.296 L242.06,150.277 L240.019,151.739 L244.148,152.76 L239.265,156.266 L218.266,150.982 L218.266,150.982 Z M218.266,150.982" id="2025"/>
                <path class="unit" d="M234.602,218.098 L230.384,221.827 L236.555,223.07 L222.971,235.098 L158.386,221.869 L157.188,220.582 L128.913,215.034 C134.92,212.046 140.913,209.041 146.89,206.025 L172.947,211.039 L208.591,212.727 L234.602,218.098 L234.602,218.098 Z M234.602,218.098" id="2026"/>
                <path class="unit" d="M246.541,214.06 L173.166,210.508 L146.977,205.446 L128.822,214.503 L103.565,209.354 L84.345,200.655 L89.716,151.384 L93.8,148.454 L110.712,152.671 L113.287,150.851 L156.255,161.549 L163.091,156.798 L166.819,157.731 L162.559,160.749 L200.067,170.117 L196.471,172.69 L202.198,174.112 L200.91,175 L212.317,177.885 L231.182,164.437 L240.547,166.747 L236.598,169.542 L256.838,170.521 L246.541,214.06 L246.541,214.06 Z M246.541,214.06" id="2027"/>
                <path class="unit" d="M212.316,177.883 L200.42,186.582 L177.736,179.613 L193.761,168.472" id="2028"/>
                <path class="unit" d="M354.85,158.041 L346.194,164.165 L336.739,161.814 L343.442,157.108 L339.582,156.129 L348.237,149.96 L358.356,149.471 L363.195,157.151 L354.85,158.041 L354.85,158.041 Z M354.85,158.041" id="2029"/>
                <path class="unit" d="M364.57,159.594 L368.876,166.296 L354.85,162.79 L358.535,160.17 L364.57,159.594 L364.57,159.594 Z M364.57,159.594" id="2030"/>
                <path class="unit" d="M202.152,162.657 L218.131,151.25 L236.819,155.91 L234.866,157.285 L237.175,157.863 L231.006,162.213 L228.431,161.548 L226.389,163.056 L228.963,163.676 L224.746,166.695 L222.038,166.03 L220.35,167.228" id="2031"/>
                <path class="unit" d="M371.937,170.824 L378.684,181.433 L337.494,171.179 L340.601,168.958 L345.039,170.024 L348.635,167.492 L350.854,168.027 L353.428,166.206 L371.937,170.824 L371.937,170.824 Z M371.937,170.824" id="2032"/>
                <path class="unit" d="M351.076,165.454 L371.627,170.601 L369.054,166.518 L354.627,162.922 L351.076,165.454 L351.076,165.454 Z M351.076,165.454" id="2033"/>
                <path class="unit" d="M221.018,166.74 L219.954,167.451" id="2034"/>
                <path class="unit" d="M219.952,167.451 L219.773,167.54 L222.836,168.297 L216.978,172.468 L200.288,168.297 L198.468,169.582 L194.03,168.474 L201.755,162.97 L202.021,162.792 L219.952,167.451 L219.952,167.451 Z M219.952,167.451" id="2035"/>
                <path class="unit" d="M202.018,162.791 L202.907,162.125" id="2036"/>
                <path class="unit" d="M384.5,190.533 L333.1,177.749 L335.63,175.886 L332.169,175.041 L337.273,171.312 L378.865,181.699 L384.5,190.533 L384.5,190.533 Z M384.5,190.533" id="2037"/>
                <path class="unit" d="M332.877,177.883 L384.634,190.799 L390.94,200.698 L387.477,203.184 L326.442,187.913 L329.905,180.014 L332.877,177.883 L332.877,177.883 Z M332.877,177.883" id="2038"/>
                <path class="unit" d="M326.174,188.357 L387.118,203.583 L373.713,213.127 L321.067,200.032 L326.174,188.357 L326.174,188.357 Z M326.174,188.357" id="2039"/>
                <path class="unit" d="M321.16,200.032 L373.67,213.083 L364.881,219.341 L319.827,208.155 L322.4,206.291 L318.804,205.403 L321.16,200.032 L321.16,200.032 Z M321.16,200.032" id="2040"/>
                <path class="unit" d="M231.227,164.256 L260.479,143.395 L292.217,152.049 L311.481,142.729 L328.572,130.565 L346.282,134.961 L314.055,157.952 L319.604,159.461 L330.833,166.654 L296.788,244.466 L284.714,247.442 L223.37,234.922 L236.95,222.892 L242.943,224.089 L253.818,214.456 L246.937,214.102 L257.236,170.47 L237.304,169.406 L241.033,166.743 L231.227,164.256 L231.227,164.256 Z M231.227,164.256" id="2041"/>
                <path class="unit" d="M319.471,208.244 L364.527,219.474 L357.737,224.357 L318.052,214.458 L315.743,210.907 L319.471,208.244 L319.471,208.244 Z M319.471,208.244" id="2042"/>
                <path class="unit" d="M320.049,215.302 L357.202,224.578 L348.056,231.103 L320.624,224.267 L326.265,220.227 L316.541,217.786 L320.049,215.302 L320.049,215.302 Z M320.049,215.302" id="2043"/>
                <path class="unit" d="M322.534,235.854 L303.136,231.016 L307.442,221.162 L347.837,231.282 L340.558,236.475 L322.534,235.854 L322.534,235.854 Z M322.534,235.854" id="2044"/>
                <path class="unit" d="M340.557,236.652 L344.018,242.201 L310.995,242.38 L314.057,233.901 L322.447,235.987 L340.557,236.652 L340.557,236.652 Z M340.557,236.652" id="2045"/>
                <path class="unit" d="M310.729,242.511 L344.33,242.334 L346.419,245.708 L338.384,251.567 L320.538,247.086 L315.7,250.503 L303.981,247.573 L307.221,239.452 L311.703,239.719 L310.729,242.511 L310.729,242.511 Z M310.729,242.511" id="2046"/>
                <path class="unit" d="M453.08,200.299 L445.445,205.714 L423.251,200.166 L430.886,194.751 L453.08,200.299 L453.08,200.299 Z M453.08,200.299" id="2047"/>
                <path class="unit" d="M445.224,205.891 L436.392,212.24 L414.11,206.691 L423.032,200.342 L445.224,205.891 L445.224,205.891 Z M445.224,205.891" id="2048"/>
                <path class="unit" d="M413.797,206.824 L433.063,211.618 L427.381,215.613 L405.097,210.108 L409.002,207.312 L413.797,206.824 L413.797,206.824 Z M413.797,206.824" id="2049"/>
                <path class="unit" d="M422.23,219.298 L418.901,221.694 L415.75,219.519 L411.577,222.536 L393.821,218.098 L399.947,213.749 L422.23,219.298 L422.23,219.298 Z M422.23,219.298" id="2050"/>
                <path class="unit" d="M411.355,222.67 L407.757,225.245 L400.255,226.4 L400.211,226.354 L395.728,227.02 L385.122,224.357 L393.6,218.273 L411.355,222.67 L411.355,222.67 Z M411.355,222.67" id="2051"/>
                <path class="unit" d="M384.899,224.534 L395.242,227.109 L387.74,232.48 L399.678,235.454 L385.032,245.886 L374.823,243.315 L369.761,235.325 L384.899,224.534 L384.899,224.534 Z M384.899,224.534" id="2052"/>
                <path class="unit" d="M405.008,210.02 L427.514,215.748 L422.499,219.299 L399.905,213.75 L405.008,210.02 L405.008,210.02 Z M405.008,210.02" id="2053"/>
                <path class="unit" d="M441.629,92.212 L452.02,94.795 L394.621,134.798 L385.033,132.606 L403.099,136.735 L448.642,107.659 L451.304,108.324 L465.555,98.16 L441.629,92.212 Z M441.629,92.212" id="2054"/>
            </g>
        </g>
</svg>