<?xml version="1.0" encoding="utf-8"?>
<!DOCTYPE svg PUBLIC "-//W3C//DTD SVG 1.1//EN" "http://www.w3.org/Graphics/SVG/1.1/DTD/svg11.dtd">
<svg version="1.1" xmlns="http://www.w3.org/2000/svg" xmlns:xlink="http://www.w3.org/1999/xlink" xml:space="preserve">
<g class="level" id="level3">
            <g class="outline">
                <path d="M161.203,26.767 L78.634,5.981 C78.212,5.874 77.766,5.959 77.412,6.215 L56.599,21.211 C56.215,21.488 55.987,21.932 55.987,22.407 L55.987,24.471 L39.933,36 L37.756,35.431 C37.333,35.32 36.88,35.404 36.524,35.66 L9.869,54.816 C9.697,54.94 9.554,55.098 9.449,55.283 L0.759,70.529 C0.634,70.747 0.569,70.994 0.566,71.245 L0.517,76.887 C0.511,77.569 0.973,78.165 1.634,78.329 L51.762,90.831 C51.906,90.931 52.068,91.006 52.245,91.05 L77.134,97.237 C77.252,97.265 77.37,97.28 77.489,97.28 C77.795,97.28 78.095,97.184 78.349,97.004 L102.209,79.878 C102.595,79.601 102.823,79.155 102.823,78.679 L102.823,76.273 L105.638,74.271 L106.128,74.38 C106.535,74.475 106.97,74.384 107.312,74.138 L161.653,35.034 C162.034,34.761 162.261,34.32 162.265,33.851 L162.315,28.208 C162.323,27.53 161.862,26.933 161.203,26.767 L161.203,26.767 Z M161.203,26.767" class="outline"/>
            </g>
            <g class="label">
                <path d="M176.221,1.029 C173.34,1.029 171.515,3.366 171.515,6.967 C171.515,10.36 173.307,12.473 176.173,12.473 C179.054,12.473 180.879,10.12 180.879,6.519 C180.879,3.126 179.071,1.029 176.221,1.029 L176.221,1.029 Z M176.206,11.289 C174.061,11.289 172.812,9.544 172.812,7.032 C172.812,4.071 174.044,2.214 176.189,2.214 C178.382,2.214 179.583,3.959 179.583,6.456 C179.583,9.416 178.35,11.289 176.206,11.289 L176.206,11.289 Z M241.469,11.161 L237.163,11.161 L237.163,1.749 C237.163,1.349 236.907,1.093 236.555,1.093 C236.203,1.093 235.931,1.349 235.931,1.749 L235.931,11.385 C235.931,11.977 236.299,12.345 236.988,12.345 L241.469,12.345 C241.869,12.345 242.125,12.074 242.125,11.737 C242.125,11.433 241.885,11.161 241.469,11.161 L241.469,11.161 Z M168.59,8.232 C168.302,7.816 167.982,7.496 167.613,7.256 C169.038,6.759 169.966,5.767 169.966,4.247 C169.966,2.31 168.654,1.03 165.757,1.03 C164.653,1.03 163.9,1.142 163.388,1.301 C162.988,1.429 162.876,1.669 162.876,2.069 L162.876,11.769 C162.876,12.169 163.148,12.409 163.501,12.409 C163.853,12.409 164.125,12.169 164.125,11.769 L164.125,7.592 L165.374,7.592 C166.542,7.592 167.007,8.072 167.583,9.001 C167.983,9.641 168.399,10.569 168.895,11.962 C168.991,12.218 169.167,12.41 169.503,12.41 C169.839,12.41 170.128,12.17 170.128,11.786 C170.128,11.674 170.096,11.514 170.032,11.354 C169.599,10.2 169.086,9 168.59,8.232 L168.59,8.232 Z M165.565,6.375 L164.125,6.375 L164.125,2.342 C164.573,2.278 165.005,2.214 165.694,2.214 C167.983,2.214 168.703,3.11 168.703,4.295 C168.702,5.943 167.15,6.423 165.565,6.375 L165.565,6.375 Z M223.741,2.566 C223.117,1.317 222.621,0.949 222.06,0.949 C221.499,0.949 221.003,1.317 220.379,2.566 C219.483,4.375 218.794,6.648 217.626,11.274 C217.562,11.498 217.53,11.674 217.53,11.786 C217.53,12.17 217.786,12.41 218.137,12.41 C218.426,12.41 218.633,12.234 218.713,11.898 C219.018,10.522 219.322,9.289 219.626,8.232 L224.492,8.232 C224.779,9.289 225.084,10.521 225.404,11.898 C225.484,12.234 225.692,12.41 225.98,12.41 C226.332,12.41 226.588,12.17 226.588,11.786 C226.588,11.674 226.54,11.498 226.491,11.274 C225.357,6.647 224.638,4.374 223.741,2.566 L223.741,2.566 Z M219.947,7.112 C220.683,4.663 221.34,3.142 221.852,2.342 C221.9,2.278 221.949,2.214 222.06,2.214 C222.172,2.214 222.22,2.278 222.269,2.342 C222.781,3.142 223.421,4.663 224.158,7.112 L219.947,7.112 L219.947,7.112 Z M233.854,11.161 L229.547,11.161 L229.547,1.749 C229.547,1.349 229.291,1.093 228.94,1.093 C228.587,1.093 228.315,1.349 228.315,1.749 L228.315,11.385 C228.315,11.977 228.684,12.345 229.372,12.345 L233.854,12.345 C234.254,12.345 234.51,12.074 234.51,11.737 C234.51,11.433 234.27,11.161 233.854,11.161 L233.854,11.161 Z M199.167,1.157 L194.477,1.157 C193.789,1.157 193.42,1.525 193.42,2.117 L193.42,11.769 C193.42,12.169 193.692,12.409 194.045,12.409 C194.397,12.409 194.653,12.169 194.653,11.769 L194.653,7.479 L198.575,7.479 C198.927,7.479 199.167,7.191 199.167,6.887 C199.167,6.599 198.927,6.31 198.575,6.31 L194.653,6.31 L194.653,2.373 L199.151,2.373 C199.599,2.373 199.807,2.069 199.807,1.781 C199.807,1.477 199.599,1.157 199.167,1.157 L199.167,1.157 Z M215.184,2.389 C215.073,1.556 214.784,1.093 214.127,1.093 C213.503,1.093 213.231,1.461 213.055,1.925 C212.239,4.134 211.342,6.967 210.366,9.592 L210.35,9.592 C209.342,7.111 208.557,4.502 207.534,2.069 C207.309,1.461 207.038,1.093 206.413,1.093 C205.757,1.093 205.452,1.541 205.356,2.422 C205.004,5.351 204.812,8.52 204.829,11.77 C204.812,12.154 205.053,12.41 205.405,12.41 C205.757,12.41 206.028,12.186 206.028,11.754 C206.012,8.681 206.205,5.704 206.542,2.711 L206.558,2.711 C207.535,5.336 208.478,7.977 209.519,10.602 C209.647,10.938 209.919,11.178 210.335,11.178 C210.735,11.178 211.039,10.938 211.167,10.602 C212.191,8.057 213.071,5.352 214.001,2.711 L214.017,2.711 C214.433,5.736 214.593,8.713 214.673,11.69 C214.673,12.138 214.897,12.41 215.314,12.41 C215.666,12.41 215.89,12.122 215.89,11.738 C215.89,11.61 215.873,11.37 215.873,11.258 C215.84,8.216 215.584,5.158 215.184,2.389 L215.184,2.389 Z M186.925,1.029 C184.044,1.029 182.219,3.366 182.219,6.967 C182.219,10.36 184.011,12.473 186.877,12.473 C189.758,12.473 191.583,10.12 191.583,6.519 C191.583,3.126 189.775,1.029 186.925,1.029 L186.925,1.029 Z M186.91,11.289 C184.765,11.289 183.516,9.544 183.516,7.032 C183.516,4.071 184.748,2.214 186.893,2.214 C189.086,2.214 190.287,3.959 190.287,6.456 C190.287,9.416 189.054,11.289 186.91,11.289 L186.91,11.289 Z M186.91,11.289" class="Shape"/>
            </g>
            <g class="background">
                <path d="M101.577,75.015 L77.697,91.967 L2.322,73.195 L10.871,58.063 L78.482,9.86 L161.08,30.448 L106.638,69.265 L105.556,69.019 L98.53,74.032 L101.577,75.015" class="walkway"/>
                <path d="M115.335,15.511 L115.089,21.014 L104.525,29.76 L92.831,30.939 L82.267,28.286 L76.665,32.315 L57.649,27.549 L57.649,21.947 L76.713,26.714 L82.315,22.782 L92.879,25.386 L104.573,24.158 L115.335,15.511 M161.081,33.298 L106.687,72.116 L105.557,71.87 L101.577,74.671 L101.577,77.816 L76.861,95.505 L2.125,76.046 L2.174,70.445 L52.834,82.975 L55.684,81.009 L8.808,69.216 L8.759,63.467 L43.94,38.359 L43.94,44.157 L30.625,54.672 L64.136,63.074 L69.05,58.946 L69,64.548 L64.136,68.677 L27.48,59.488 L27.48,56.93 L15.54,65.383 L61.433,76.831 L75.632,66.611 L80.153,67.004 L84.231,64.155 L77.598,64.056 L77.598,57.522 L74.994,52.609 L74.65,44.502 L86.64,48.187 L85.313,46.418 L85.362,40.915 L86.689,42.585 L87.426,42.732 L87.426,42.192 L87.18,42.143 L87.23,36.541 L89,37.327 L89,38.802 L118.727,46.271 L120.301,45.092 L132.438,48.188 L161.132,27.255 L161.081,33.298 M62.268,85.383 L77.746,89.215 L82.759,85.726 L81.923,85.531 L80.842,86.318 L66.051,82.633 L62.268,85.383 M80.842,80.715 L82.021,79.929 L87.966,81.353 L95.042,76.34 L80.104,72.654 L71.848,78.501 L80.842,80.715 M126.587,52.314 L120.297,50.692 L119.954,50.889 L126.342,52.462 L126.587,52.314 M108.21,65.483 L120.543,56.688 L107.179,53.297 L94.795,62.142 L108.21,65.483" class="wall"/>
            </g>
            <g class="ceilings">
                <path class="unit" d="M93.138,25.968 L82.514,23.374 L76.298,27.289 L57.697,22.689 L78.794,7.711 L114.771,16.668 L103.807,24.989 L93.138,25.968 L93.138,25.968 Z M93.138,25.968" id="4001"/>
                <path class="unit" d="M160.197,28.17 L132.687,48.679 L121.284,46.035 L119.276,47.455 L88.048,39.428 L89.321,38.302 L87.217,37.225 L115.947,16.912 L160.197,28.17 L160.197,28.17 Z M160.197,28.17" id="4002"/>
                <path class="unit" d="M87.705,39.674 L119.227,47.751 L119.472,47.849 L121.529,46.382 L132.349,48.927 C130.291,50.33 128.22,51.717 126.131,53.087 L107.14,48.438 L106.895,48.34 L87.999,61.996 L86.774,63.17 L83.642,65.323 L79.433,68.603 L73.804,67.184 L83.446,59.89 L83.643,59.792 L77.623,58.274 L80.901,55.924 L74.488,45.155 L78.502,42.316 L87.411,44.519 L85.307,41.19 L87.705,39.674 L87.705,39.674 Z M87.705,39.674" id="4003"/>
                <path class="unit" d="M62.398,64.344 L25.442,55.144 L46.343,39.92 L58.139,42.857 L68.517,59.647 L62.398,64.344 L62.398,64.344 Z M62.398,64.344" id="4004"/>
                <path class="unit" d="M125.787,53.33 L107.43,66.497 L88.879,61.895 L107.088,48.728 L125.787,53.33 L125.787,53.33 Z M125.787,53.33" id="4005"/>
                <path class="unit" d="M87.117,63.414 L102.779,67.134 L99.744,69.287 L84.326,65.372 L87.117,63.414 L87.117,63.414 Z M87.117,63.414" id="4006"/>
                <path class="unit" d="M88.585,62.141 L106.744,66.986 L105.619,67.526 L87.41,63.169 L88.585,62.141 L88.585,62.141 Z M88.585,62.141" id="4007"/>
                <path class="unit" d="M81.439,67.624 L84.033,65.617 L87.459,66.497 L84.716,68.554 L81.439,67.624 L81.439,67.624 Z M81.439,67.624" id="4008"/>
                <path class="unit" d="M87.263,66.595 L99.549,69.677 L95.681,72.615 L79.97,68.699 L81.143,67.819" id="4009"/>
                <path class="unit" d="M79.628,68.945 L99.256,74.037 L86.235,82.848 L80.996,81.575 L79.576,82.603 L64.94,78.931 L79.628,68.945 L79.628,68.945 Z M79.628,68.945" id="4010"/>
                <path class="unit" d="M75.859,68.013 L79.089,68.798 L64.013,79.026 L79.823,82.942 L81.243,81.914 L85.893,83.09 L75.956,90.921 L51.727,85.047 L75.859,68.013 L75.859,68.013 Z M75.859,68.013" id="4011"/>
                <path class="unit" d="M61.174,78.048 L14.086,66.447 L13.841,65.812 L8.995,64.588 L22.701,54.798 L75.32,67.868 L61.174,78.048 L61.174,78.048 Z M61.174,78.048" id="4012"/>
                <path class="unit" d="M51.188,84.901 L1.702,71.931 L10.023,56.758 L36.7,37.668 L43.797,39.137 L8.163,64.687 L13.303,65.96 L13.498,66.597 L60.88,78.246 L51.188,84.901 L51.188,84.901 Z M51.188,84.901" id="4013"/>
        </g>
    </g>
</svg>