<?xml version="1.0" encoding="utf-8"?>
<!DOCTYPE svg PUBLIC "-//W3C//DTD SVG 1.1//EN" "http://www.w3.org/Graphics/SVG/1.1/DTD/svg11.dtd">
<svg version="1.1" xmlns="http://www.w3.org/2000/svg" xmlns:xlink="http://www.w3.org/1999/xlink" xml:space="preserve">
<g class="level" id="level1">
            <g class="shadow">
                <path d="M196.262,263.33 L173.153,255.695 L103.628,255.695 L98.145,252.582 L81.062,252.045 L80.802,251.941 L20.137,227.92 L20.017,225.166 L29.839,217.083 L25.772,215.471 L25.393,215.238 C24.73,214.823 24.344,214.172 24.312,213.432 L24.201,212.272 L24.429,211.68 C24.631,211.119 24.991,210.611 25.501,210.168 L25.618,210.076 L26.698,209.315 C30.94,206.976 34.875,204.694 38.393,202.533 C45.501,198.092 52.063,193.377 57.887,188.526 C63.703,183.697 72.234,175.298 83.244,163.561 C88.732,157.755 94.098,151.913 99.197,146.191 L99.697,145.629 L122.679,146.467 L133.697,143.367 L143.223,143.698 C143.198,143.523 143.179,143.348 143.168,143.171 L105.544,141.72 L105.276,138.774 L105.708,138.263 C116.316,125.707 124.67,116.828 130.538,111.873 C133.253,109.588 136.632,107.004 140.582,104.191 L145.894,100.483 C147.626,99.31 149.475,98.075 151.409,96.799 C156.162,93.67 160.509,90.889 164.33,88.532 L164.377,88.504 L217.48,58.245 C219.379,57.028 222.514,55.495 227.063,53.562 C234.44,50.433 241.945,48.23 249.371,47.016 C258.747,45.414 267.969,44.208 276.78,43.433 L277.706,42.483 L284.778,42.814 L299.298,42.294 C305.27,42.252 313.104,42.477 322.57,42.956 L335.9,43.716 C338.785,43.926 342.664,44.543 343.33,47.48 L343.5,48.329 L351.659,48.299 C351.714,48.083 351.779,47.866 351.851,47.648 L351.873,47.587 C352.444,46.078 353.368,44.76 354.617,43.669 L354.666,43.627 C357.389,41.438 361.314,40.624 366.333,41.204 C375.022,42.379 383.434,43.666 391.361,45.037 L391.491,45.065 L397.117,46.538 C401.138,48.069 404.15,50.163 406.074,52.762 C408.682,56.245 416.779,66.707 430.13,83.851 L430.442,84.252 L430.553,86.645 L418.612,92.818 L374.199,129.245 L341.175,161.82 L338.59,161.113 L338.784,165.364 L338.69,165.572 L338.731,166.225 L337.525,168.774 L308.617,193.01 L196.262,263.33 L196.262,263.33 Z M196.262,263.33" class="shadow"/>
            </g>
            <g class="outline">
                <path d="M196.262,222.33 L173.153,214.695 L103.628,214.695 L98.145,211.582 L81.062,211.045 L80.802,210.941 L20.137,186.92 L20.017,184.166 L29.839,176.083 L25.772,174.471 L25.393,174.238 C24.73,173.823 24.344,173.172 24.312,172.432 L24.201,171.272 L24.429,170.68 C24.631,170.119 24.991,169.611 25.501,169.168 L25.618,169.076 L26.698,168.315 C30.94,165.976 34.875,163.694 38.393,161.533 C45.501,157.092 52.063,152.377 57.887,147.526 C63.703,142.697 72.234,134.298 83.244,122.561 C88.732,116.755 94.098,110.913 99.197,105.191 L99.697,104.629 L122.679,105.467 L133.697,102.367 L143.223,102.698 C143.198,102.523 143.179,102.348 143.168,102.171 L105.544,100.72 L105.276,97.774 L105.708,97.263 C116.316,84.707 124.67,75.828 130.538,70.873 C133.253,68.588 136.632,66.004 140.582,63.191 L145.894,59.483 C147.626,58.31 149.475,57.075 151.409,55.799 C156.162,52.67 160.509,49.889 164.33,47.532 L164.377,47.504 L217.48,17.245 C219.379,16.028 222.514,14.495 227.063,12.562 C234.44,9.433 241.945,7.23 249.371,6.016 C258.747,4.414 267.969,3.208 276.78,2.433 L277.706,1.483 L284.778,1.814 L299.298,1.294 C305.27,1.252 313.104,1.477 322.57,1.956 L335.9,2.716 C338.785,2.926 342.664,3.543 343.33,6.48 L343.5,7.329 L351.659,7.299 C351.714,7.083 351.779,6.866 351.851,6.648 L351.873,6.587 C352.444,5.078 353.368,3.76 354.617,2.669 L354.666,2.627 C357.389,0.438 361.314,-0.376 366.333,0.204 C375.022,1.379 383.434,2.666 391.361,4.037 L391.491,4.065 L397.117,5.538 C401.138,7.069 404.15,9.163 406.074,11.762 C408.682,15.245 416.779,25.707 430.13,42.851 L430.442,43.252 L430.553,45.645 L418.612,51.818 L374.199,88.245 L341.175,120.82 L338.59,120.113 L338.784,124.364 L338.69,124.572 L338.731,125.225 L337.525,127.774 L308.617,152.01 L196.262,222.33 L196.262,222.33 Z M196.262,222.33" class="outline"/>
            </g>
            <g class="label">
                <path d="M22.929,35.539 C21.921,35.539 21.168,35.651 20.656,35.81 C20.256,35.939 20.144,36.178 20.144,36.579 L20.144,46.279 C20.144,46.679 20.4,46.92 20.752,46.92 C21.104,46.92 21.376,46.68 21.376,46.279 L21.376,42.662 C21.904,42.693 22.209,42.71 22.849,42.71 C25.73,42.71 27.251,41.317 27.251,39.044 C27.251,37.027 25.922,35.539 22.929,35.539 L22.929,35.539 Z M22.785,41.541 C22.193,41.541 21.905,41.541 21.376,41.51 L21.376,36.835 C21.824,36.772 22.369,36.707 22.897,36.707 C25.17,36.707 25.986,37.796 25.986,39.076 C25.986,40.389 25.282,41.541 22.785,41.541 L22.785,41.541 Z M86.545,45.671 L82.239,45.671 L82.239,36.259 C82.239,35.86 81.983,35.603 81.631,35.603 C81.278,35.603 81.006,35.86 81.006,36.259 L81.006,45.896 C81.006,46.488 81.374,46.856 82.063,46.856 L86.544,46.856 C86.944,46.856 87.2,46.584 87.2,46.248 C87.201,45.943 86.961,45.671 86.545,45.671 L86.545,45.671 Z M14.098,35.539 C13.09,35.539 12.337,35.651 11.825,35.81 C11.425,35.939 11.313,36.178 11.313,36.579 L11.313,46.279 C11.313,46.679 11.569,46.92 11.921,46.92 C12.273,46.92 12.545,46.68 12.545,46.279 L12.545,42.662 C13.073,42.693 13.378,42.71 14.018,42.71 C16.899,42.71 18.42,41.317 18.42,39.044 C18.419,37.027 17.091,35.539 14.098,35.539 L14.098,35.539 Z M13.954,41.541 C13.362,41.541 13.074,41.541 12.545,41.51 L12.545,36.835 C12.993,36.772 13.538,36.707 14.066,36.707 C16.339,36.707 17.155,37.796 17.155,39.076 C17.155,40.389 16.451,41.541 13.954,41.541 L13.954,41.541 Z M8.403,35.603 C8.035,35.603 7.779,35.86 7.779,36.259 L7.779,45.015 C6.946,45.559 5.762,45.784 5.042,45.784 C3.185,45.784 2.049,44.872 2.049,42.806 L2.049,36.259 C2.049,35.86 1.793,35.603 1.441,35.603 C1.089,35.603 0.817,35.86 0.817,36.259 L0.817,43.046 C0.817,45.383 2.274,46.984 4.802,46.984 C6.611,46.984 7.651,46.504 8.58,45.976 C8.932,45.767 9.012,45.496 9.012,45.111 L9.012,36.259 C9.012,35.859 8.755,35.603 8.403,35.603 L8.403,35.603 Z M34.978,45.639 L30.208,45.639 L30.208,41.782 L34.082,41.782 C34.466,41.782 34.674,41.462 34.674,41.19 C34.674,40.902 34.466,40.614 34.082,40.614 L30.208,40.614 L30.208,36.885 L34.818,36.885 C35.234,36.885 35.458,36.613 35.458,36.309 C35.458,35.972 35.234,35.668 34.818,35.668 L30.032,35.668 C29.344,35.668 28.975,36.036 28.975,36.628 L28.975,45.897 C28.975,46.489 29.343,46.857 30.032,46.857 L34.978,46.857 C35.362,46.857 35.586,46.521 35.586,46.249 C35.586,45.911 35.362,45.639 34.978,45.639 L34.978,45.639 Z M43.026,42.742 C42.738,42.325 42.418,42.006 42.049,41.765 C43.474,41.269 44.402,40.276 44.402,38.755 C44.402,36.818 43.09,35.538 40.193,35.538 C39.089,35.538 38.336,35.65 37.824,35.809 C37.424,35.938 37.312,36.177 37.312,36.578 L37.312,46.278 C37.312,46.678 37.584,46.919 37.937,46.919 C38.289,46.919 38.561,46.679 38.561,46.278 L38.561,42.1 L39.81,42.1 C40.978,42.1 41.443,42.58 42.019,43.508 C42.419,44.149 42.835,45.077 43.331,46.47 C43.427,46.726 43.603,46.918 43.939,46.918 C44.275,46.918 44.564,46.678 44.564,46.293 C44.564,46.182 44.532,46.022 44.468,45.861 C44.034,44.711 43.522,43.51 43.026,42.742 L43.026,42.742 Z M40,40.885 L38.56,40.885 L38.56,36.852 C39.008,36.788 39.44,36.724 40.129,36.724 C42.418,36.724 43.138,37.62 43.138,38.805 C43.138,40.453 41.585,40.933 40,40.885 L40,40.885 Z M60.26,36.899 C60.148,36.067 59.86,35.602 59.204,35.602 C58.579,35.602 58.308,35.97 58.131,36.435 C57.315,38.644 56.419,41.477 55.442,44.102 L55.426,44.102 C54.418,41.621 53.634,39.012 52.609,36.579 C52.385,35.971 52.113,35.602 51.488,35.602 C50.832,35.602 50.528,36.05 50.432,36.931 C50.079,39.86 49.888,43.03 49.904,46.279 C49.888,46.663 50.128,46.92 50.48,46.92 C50.832,46.92 51.104,46.695 51.104,46.264 C51.088,43.191 51.28,40.213 51.617,37.22 L51.633,37.22 C52.61,39.845 53.554,42.486 54.594,45.111 C54.722,45.448 54.994,45.687 55.41,45.687 C55.81,45.687 56.114,45.448 56.242,45.111 C57.266,42.566 58.147,39.861 59.075,37.22 L59.091,37.22 C59.508,40.245 59.667,43.222 59.747,46.199 C59.747,46.647 59.971,46.92 60.388,46.92 C60.74,46.92 60.964,46.632 60.964,46.247 C60.964,46.119 60.948,45.879 60.948,45.767 C60.916,42.726 60.66,39.669 60.26,36.899 L60.26,36.899 Z M68.817,37.075 C68.193,35.827 67.697,35.459 67.136,35.459 C66.576,35.459 66.08,35.827 65.455,37.075 C64.559,38.884 63.871,41.157 62.702,45.783 C62.638,46.007 62.606,46.183 62.606,46.295 C62.606,46.68 62.862,46.92 63.214,46.92 C63.502,46.92 63.71,46.743 63.79,46.407 C64.094,45.03 64.398,43.798 64.703,42.742 L69.569,42.742 C69.857,43.798 70.161,45.03 70.482,46.407 C70.562,46.743 70.77,46.92 71.058,46.92 C71.41,46.92 71.666,46.68 71.666,46.295 C71.666,46.184 71.618,46.007 71.57,45.783 C70.434,41.157 69.714,38.884 68.817,37.075 L68.817,37.075 Z M65.024,41.621 C65.76,39.172 66.417,37.651 66.929,36.851 C66.977,36.787 67.025,36.723 67.137,36.723 C67.249,36.723 67.297,36.786 67.345,36.851 C67.857,37.651 68.497,39.171 69.234,41.621 L65.024,41.621 L65.024,41.621 Z M78.929,45.671 L74.623,45.671 L74.623,36.259 C74.623,35.86 74.367,35.603 74.015,35.603 C73.663,35.603 73.391,35.86 73.391,36.259 L73.391,45.896 C73.391,46.488 73.759,46.856 74.448,46.856 L78.929,46.856 C79.329,46.856 79.585,46.584 79.585,46.248 C79.585,45.943 79.346,45.671 78.929,45.671 L78.929,45.671 Z M78.929,45.671" class="Shape"/>
                <path d="M113.701,236.181 C113.558,236.181 113.448,236.158 113.37,236.112 C113.293,236.065 113.238,236.003 113.204,235.924 C113.17,235.845 113.153,235.668 113.153,235.392 L113.153,232.057 L114.125,232.057 L114.125,231.305 L113.153,231.305 L113.153,229.312 L112.192,229.892 L112.192,231.305 L111.483,231.305 L111.483,232.057 L112.192,232.057 L112.192,235.339 C112.192,235.919 112.232,236.299 112.31,236.48 C112.388,236.661 112.525,236.807 112.718,236.918 C112.911,237.029 113.183,237.085 113.534,237.085 C113.749,237.085 113.992,237.057 114.264,236.999 L114.124,236.145 C113.95,236.168 113.808,236.181 113.701,236.181 L113.701,236.181 Z M93.092,235.746 C92.687,236.082 92.193,236.25 91.61,236.25 C91.13,236.25 90.684,236.127 90.273,235.88 C89.862,235.633 89.558,235.26 89.363,234.76 C89.168,234.261 89.07,233.676 89.07,233.006 C89.07,232.487 89.153,231.984 89.317,231.494 C89.482,231.006 89.767,230.616 90.173,230.326 C90.58,230.036 91.086,229.89 91.691,229.89 C92.217,229.89 92.654,230.021 93.002,230.283 C93.35,230.545 93.614,230.962 93.797,231.535 L94.823,231.293 C94.612,230.566 94.238,230.002 93.7,229.602 C93.163,229.201 92.5,229 91.713,229 C91.018,229 90.382,229.158 89.804,229.475 C89.225,229.792 88.78,230.256 88.466,230.867 C88.153,231.477 87.996,232.192 87.996,233.013 C87.996,233.765 88.135,234.468 88.412,235.124 C88.69,235.778 89.095,236.279 89.626,236.625 C90.158,236.971 90.848,237.144 91.697,237.144 C92.517,237.144 93.211,236.918 93.779,236.469 C94.346,236.02 94.739,235.367 94.958,234.511 L93.916,234.248 C93.771,234.909 93.497,235.409 93.092,235.746 L93.092,235.746 Z M106.853,234.617 L106.853,233.328 C106.853,232.898 106.837,232.601 106.805,232.437 C106.748,232.171 106.647,231.953 106.504,231.779 C106.361,231.605 106.137,231.461 105.833,231.346 C105.529,231.231 105.133,231.174 104.646,231.174 C104.155,231.174 103.724,231.241 103.352,231.375 C102.979,231.51 102.695,231.701 102.498,231.95 C102.301,232.199 102.16,232.525 102.074,232.93 L103.019,233.059 C103.123,232.654 103.283,232.371 103.5,232.212 C103.716,232.053 104.052,231.973 104.507,231.973 C104.994,231.973 105.361,232.082 105.608,232.301 C105.791,232.462 105.882,232.739 105.882,233.133 C105.882,233.169 105.88,233.253 105.877,233.386 C105.508,233.515 104.934,233.626 104.153,233.719 C103.77,233.766 103.484,233.814 103.294,233.865 C103.036,233.937 102.804,234.043 102.599,234.182 C102.393,234.322 102.226,234.507 102.099,234.738 C101.972,234.969 101.909,235.224 101.909,235.504 C101.909,235.981 102.077,236.371 102.414,236.678 C102.75,236.984 103.232,237.137 103.859,237.137 C104.238,237.137 104.594,237.075 104.925,236.949 C105.257,236.823 105.601,236.608 105.959,236.303 C105.988,236.571 106.052,236.806 106.152,237.006 L107.162,237.006 C107.04,236.787 106.959,236.56 106.918,236.321 C106.873,236.085 106.853,235.517 106.853,234.617 L106.853,234.617 Z M105.875,234.5 C105.875,234.926 105.823,235.248 105.719,235.467 C105.583,235.749 105.37,235.972 105.08,236.135 C104.79,236.298 104.459,236.379 104.086,236.379 C103.71,236.379 103.424,236.293 103.23,236.121 C103.035,235.949 102.937,235.734 102.937,235.476 C102.937,235.308 102.982,235.155 103.071,235.017 C103.16,234.879 103.288,234.775 103.452,234.703 C103.617,234.632 103.898,234.567 104.295,234.51 C104.997,234.41 105.523,234.288 105.874,234.145 L105.875,234.5 L105.875,234.5 Z M99.892,231.425 C99.58,231.258 99.213,231.175 98.791,231.175 C98.103,231.175 97.534,231.437 97.083,231.959 L97.083,229.134 L96.116,229.134 L96.116,237.008 L97.083,237.008 L97.083,233.887 C97.083,233.44 97.137,233.089 97.244,232.834 C97.351,232.58 97.532,232.379 97.784,232.23 C98.037,232.082 98.306,232.007 98.593,232.007 C98.976,232.007 99.273,232.116 99.482,232.337 C99.692,232.557 99.796,232.909 99.796,233.392 L99.796,237.007 L100.763,237.007 L100.763,233.392 C100.763,232.833 100.696,232.408 100.562,232.115 C100.426,231.821 100.203,231.591 99.892,231.425 L99.892,231.425 Z M109.825,231.368 C109.637,231.497 109.432,231.764 109.21,232.168 L109.21,231.304 L108.34,231.304 L108.34,237.008 L109.307,237.008 L109.307,234.022 C109.307,233.614 109.361,233.238 109.468,232.894 C109.54,232.668 109.659,232.492 109.828,232.365 C109.997,232.238 110.186,232.175 110.397,232.175 C110.633,232.175 110.87,232.245 111.106,232.384 L111.439,231.488 C111.103,231.28 110.771,231.176 110.445,231.176 C110.22,231.175 110.014,231.239 109.825,231.368 L109.825,231.368 Z M147.044,235.992 C146.79,236.225 146.473,236.342 146.093,236.342 C145.62,236.342 145.237,236.168 144.944,235.821 C144.651,235.474 144.504,234.918 144.504,234.151 C144.504,233.395 144.656,232.843 144.961,232.494 C145.265,232.145 145.661,231.971 146.148,231.971 C146.47,231.971 146.745,232.068 146.973,232.261 C147.2,232.454 147.359,232.742 147.448,233.126 L148.388,232.98 C148.277,232.404 148.025,231.959 147.631,231.645 C147.237,231.331 146.731,231.175 146.111,231.175 C145.62,231.175 145.167,231.29 144.75,231.522 C144.333,231.752 144.022,232.099 143.818,232.561 C143.614,233.023 143.512,233.562 143.512,234.178 C143.512,235.13 143.749,235.862 144.224,236.371 C144.698,236.882 145.326,237.137 146.106,237.137 C146.729,237.137 147.254,236.951 147.683,236.581 C148.111,236.21 148.376,235.697 148.48,235.042 L147.529,234.918 C147.46,235.402 147.299,235.76 147.044,235.992 L147.044,235.992 Z M154.242,234.145 C154.242,233.204 154,232.473 153.517,231.954 C153.034,231.435 152.411,231.176 151.648,231.176 C150.86,231.176 150.219,231.441 149.725,231.971 C149.231,232.501 148.984,233.245 148.984,234.205 C148.984,235.133 149.229,235.853 149.717,236.367 C150.206,236.881 150.867,237.138 151.702,237.138 C152.365,237.138 152.909,236.977 153.335,236.655 C153.761,236.333 154.053,235.88 154.21,235.297 L153.211,235.173 C153.064,235.581 152.865,235.878 152.615,236.065 C152.365,236.252 152.062,236.344 151.707,236.344 C151.231,236.344 150.833,236.178 150.515,235.844 C150.196,235.512 150.019,235.032 149.983,234.406 L154.237,234.406 C154.24,234.288 154.242,234.202 154.242,234.145 L154.242,234.145 Z M150.036,233.607 C150.068,233.11 150.236,232.712 150.538,232.416 C150.84,232.118 151.214,231.97 151.658,231.97 C152.149,231.97 152.548,232.157 152.856,232.529 C153.057,232.769 153.178,233.129 153.221,233.608 L150.036,233.607 L150.036,233.607 Z M142.307,234.617 L142.307,233.328 C142.307,232.898 142.291,232.601 142.259,232.437 C142.202,232.171 142.101,231.953 141.958,231.779 C141.815,231.605 141.591,231.461 141.287,231.346 C140.983,231.231 140.587,231.174 140.1,231.174 C139.609,231.174 139.178,231.241 138.806,231.375 C138.433,231.51 138.149,231.701 137.952,231.95 C137.755,232.199 137.614,232.525 137.528,232.93 L138.473,233.059 C138.577,232.654 138.737,232.371 138.954,232.212 C139.17,232.053 139.506,231.973 139.961,231.973 C140.448,231.973 140.815,232.082 141.062,232.301 C141.245,232.462 141.336,232.739 141.336,233.133 C141.336,233.169 141.334,233.253 141.331,233.386 C140.962,233.515 140.388,233.626 139.607,233.719 C139.224,233.766 138.938,233.814 138.748,233.865 C138.49,233.937 138.258,234.043 138.053,234.182 C137.847,234.322 137.68,234.507 137.553,234.738 C137.426,234.969 137.363,235.224 137.363,235.504 C137.363,235.981 137.531,236.371 137.868,236.678 C138.204,236.984 138.686,237.137 139.313,237.137 C139.692,237.137 140.048,237.075 140.379,236.949 C140.711,236.823 141.055,236.608 141.413,236.303 C141.442,236.571 141.506,236.806 141.606,237.006 L142.616,237.006 C142.494,236.787 142.413,236.56 142.372,236.321 C142.328,236.085 142.307,235.517 142.307,234.617 L142.307,234.617 Z M141.33,234.5 C141.33,234.926 141.278,235.248 141.174,235.467 C141.038,235.749 140.825,235.972 140.535,236.135 C140.245,236.298 139.914,236.379 139.541,236.379 C139.165,236.379 138.879,236.293 138.685,236.121 C138.49,235.949 138.392,235.734 138.392,235.476 C138.392,235.308 138.437,235.155 138.526,235.017 C138.615,234.879 138.743,234.775 138.907,234.703 C139.072,234.632 139.353,234.567 139.75,234.51 C140.452,234.41 140.978,234.288 141.329,234.145 L141.33,234.5 L141.33,234.5 Z M117.412,231.175 C116.624,231.175 115.983,231.44 115.489,231.97 C114.995,232.5 114.748,233.244 114.748,234.204 C114.748,235.132 114.993,235.852 115.481,236.366 C115.97,236.88 116.631,237.137 117.466,237.137 C118.129,237.137 118.673,236.976 119.099,236.654 C119.525,236.332 119.817,235.879 119.974,235.296 L118.975,235.172 C118.828,235.58 118.629,235.877 118.379,236.064 C118.129,236.251 117.826,236.343 117.471,236.343 C116.995,236.343 116.597,236.177 116.279,235.843 C115.96,235.511 115.783,235.031 115.747,234.404 L120.001,234.404 C120.004,234.29 120.006,234.204 120.006,234.146 C120.006,233.205 119.764,232.474 119.281,231.955 C118.798,231.435 118.175,231.175 117.412,231.175 L117.412,231.175 Z M115.801,233.607 C115.833,233.11 116.001,232.712 116.303,232.416 C116.605,232.118 116.979,231.97 117.423,231.97 C117.914,231.97 118.313,232.157 118.621,232.529 C118.822,232.769 118.943,233.129 118.986,233.608 L115.801,233.607 L115.801,233.607 Z M122.662,231.368 C122.474,231.497 122.269,231.764 122.047,232.168 L122.047,231.304 L121.177,231.304 L121.177,237.008 L122.144,237.008 L122.144,234.022 C122.144,233.614 122.198,233.238 122.305,232.894 C122.377,232.668 122.496,232.492 122.665,232.365 C122.834,232.238 123.023,232.175 123.234,232.175 C123.47,232.175 123.707,232.245 123.943,232.384 L124.276,231.488 C123.94,231.28 123.608,231.176 123.282,231.176 C123.057,231.175 122.851,231.239 122.662,231.368 L122.662,231.368 Z M135.223,237.008 L136.19,237.008 L136.19,229.134 L135.223,229.134 L135.223,237.008 L135.223,237.008 Z M133.171,229.577 C132.91,229.396 132.586,229.273 132.199,229.209 C131.923,229.159 131.524,229.134 131.001,229.134 L128.031,229.134 L128.031,237.008 L129.073,237.008 L129.073,233.807 L131.093,233.807 C132.207,233.807 132.976,233.576 133.403,233.112 C133.83,232.648 134.042,232.082 134.042,231.412 C134.042,231.021 133.962,230.664 133.803,230.338 C133.643,230.011 133.432,229.758 133.171,229.577 L133.171,229.577 Z M132.542,232.502 C132.259,232.752 131.781,232.877 131.108,232.877 L129.072,232.877 L129.072,230.063 L131.086,230.063 C131.559,230.063 131.883,230.086 132.058,230.133 C132.33,230.208 132.549,230.363 132.716,230.598 C132.882,230.832 132.966,231.115 132.966,231.444 C132.967,231.898 132.825,232.251 132.542,232.502 L132.542,232.502 Z M132.542,232.502" class="Shape"/>
            </g>
            <g class="background">
                <path d="M185.53,38.014 L218.41,19.274 C220.183,18.128 223.29,16.614 227.73,14.734 C234.983,11.667 242.244,9.534 249.51,8.334 C267.164,5.334 283.59,3.781 298.79,3.674 C304.709,3.648 312.383,3.867 321.81,4.334 L335.03,5.094 C338.63,5.347 340.596,6.174 340.93,7.573 L341.35,9.693 L352.09,9.633 C352.117,9.127 352.243,8.553 352.471,7.913 C352.937,6.646 353.69,5.56 354.73,4.653 C357.077,2.746 360.543,2.06 365.13,2.593 C373.583,3.713 381.837,4.979 389.89,6.393 L395.309,7.793 C399.029,9.206 401.756,11.086 403.49,13.433 C406.303,17.18 414.262,27.466 427.369,44.293 L416.269,50.033 L372.009,86.333 L339.849,118.073 L327.329,114.653 L306.048,110.753 L270.189,106.633 L243.109,105.713 L226.909,104.473 C227.269,105.553 227.342,106.746 227.129,108.053 C226.876,109.493 226.316,110.686 225.449,111.633 L303.009,116.874 L336.269,123.914 L335.409,125.754 L307.129,149.494 L196.249,218.874 L173.79,211.454 L104.95,211.454 L99.53,208.354 L82.51,207.814 L23.21,184.314 L35.13,174.514 L28.73,171.954 C28.304,171.848 27.963,171.687 27.71,171.475 C27.203,171.075 27.33,170.548 28.09,169.894 L29.01,169.253 C33.01,167.053 36.89,164.794 40.65,162.474 C47.837,158.007 54.357,153.333 60.21,148.453 C66.05,143.573 74.477,135.266 85.49,123.533 C91.09,117.613 96.383,111.853 101.37,106.253 L146.15,107.893 C145.404,106.626 145.211,105.273 145.57,103.833 C145.93,102.46 146.81,101.16 148.21,99.933 L148.27,99.873 L107.87,98.353 C118.377,85.9 126.517,77.233 132.29,72.353 C137.09,68.353 143.95,63.406 152.87,57.513 C157.39,54.553 161.649,51.826 165.649,49.333 L185.53,38.014" class="fill" fill="#CCCCCC"/>
                <path d="M325.69,39.694 L324.17,48.914 L335.429,49.394 L334.029,57.994 L335.969,58.054 L334.789,65.634 L335.768,67.754 L331.368,95.154 L340.948,107.174 L347.289,109.074 L339.708,116.434 L327.148,113.014 L330.448,108.854 L319.948,95.634 L324.289,68.614 L270.669,66.614 L268.069,64.834 L258.969,65.414 L191.489,99.214 L189.489,111.674 L183.209,116.914 L182.289,122.555 L157.109,143.675 L149.749,144.435 L124.409,165.715 L122.229,164.855 L108.809,176.115 L107.669,182.655 L102.949,186.676 L99.429,206.716 L82.369,206.176 L41.449,189.915 L51.569,181.355 L64.989,186.715 L60.289,190.675 L83.889,200.055 L85.689,189.055 L89.249,188.075 L91.909,171.455 L115.629,151.575 L114.169,149.415 L118.329,145.895 L122.349,145.895 L133.669,136.354 L141.089,139.295 L178.989,107.495 L181.748,90.055 L187.548,87.195 L188.028,84.155 L183.369,80.955 L175.909,84.695 L154.029,69.755 L166.309,63.535 L193.009,81.875 L197.769,82.055 L247.548,57.195 L262.548,57.415 L279.069,50.475 L295.409,47.495 L311.99,48.095 L313.39,39.275 L325.69,39.694" class="walkway"/>
                <path d="M195.11,40.294 C195.723,40.054 196.45,39.934 197.29,39.934 L197.93,40.034 L198.09,43.494 L197.449,43.454 C196.542,43.454 195.816,43.58 195.27,43.834 L180.43,51.294 L180.05,51.574 L179.79,51.954 L179.63,52.374 L179.63,52.594 L179.471,49.073 L179.63,48.433 L179.89,48.053 L180.27,47.773 L194.949,40.413 L195.11,40.294" class="wall"/>
                <path d="M200.15,41.714 L200.31,45.174 C200.27,44.854 200.09,44.528 199.77,44.194 L199.61,44.094 L198.75,43.654 L198.091,43.494 L197.931,40.034 L198.591,40.134 L199.071,40.354 L199.611,40.674 C199.97,41.007 200.15,41.354 200.15,41.714" class="wall"/>
                <path d="M174.21,49.234 C174.276,50.248 174.796,51.154 175.77,51.954 L176.149,52.214 L177.029,52.754 C177.496,52.981 177.962,53.18 178.429,53.354 L180.209,53.734 L181.889,53.894 C183.955,54 185.855,53.674 187.589,52.914 L202.369,45.554 L203.889,44.574 L204.269,44.194 L205.028,43.234 C205.241,42.874 205.369,42.514 205.408,42.154 L205.448,41.554 L205.628,45.014 L205.568,45.674 C205.488,46.061 205.361,46.401 205.188,46.694 C205.041,47.014 204.788,47.361 204.428,47.734 L204.048,48.054 L202.528,49.033 L187.748,56.393 C186.162,57.153 184.269,57.493 182.069,57.413 L180.389,57.253 L178.589,56.813 L177.189,56.273 L175.948,55.473 C174.961,54.673 174.435,53.766 174.369,52.753 L174.21,49.234" class="wall"/>
                <path d="M374.01,10.414 L374.87,10.794 L375.05,10.894 C375.37,11.187 375.563,11.527 375.63,11.914 L375.751,15.394 C375.751,15.101 375.571,14.774 375.211,14.414 L374.711,14.094 L374.171,13.874 L373.53,13.714 L354.41,13.014 C353.65,12.974 352.923,13.1 352.23,13.394 L351.69,13.654 L351.31,13.934 L351.05,14.314 L350.891,14.954 L350.731,11.434 L350.891,10.834 L351.15,10.454 L351.31,10.294 L351.53,10.134 L352.071,9.874 C352.763,9.581 353.491,9.454 354.25,9.494 L373.371,10.234 C373.583,10.234 373.797,10.294 374.01,10.414" class="wall"/>
                <path d="M380.891,11.754 L381.05,15.234 L380.991,15.874 C380.924,16.274 380.804,16.621 380.631,16.914 C380.484,17.234 380.231,17.574 379.872,17.934 L378.892,18.694 C378.639,18.907 378.185,19.161 377.532,19.454 C375.839,20.214 373.926,20.554 371.792,20.474 L353.332,19.774 L351.651,19.614 L349.851,19.234 L348.451,18.634 L347.151,17.834 C346.205,17.034 345.698,16.127 345.631,15.114 L345.472,11.654 C345.538,12.628 346.044,13.514 346.992,14.314 L348.332,15.114 L349.692,15.714 L351.492,16.094 L353.151,16.254 L371.631,16.954 C373.724,17.061 375.638,16.74 377.372,15.994 L378.731,15.234 L379.751,14.414 L380.451,13.434 C380.679,13.074 380.805,12.714 380.832,12.354 L380.891,11.754" class="wall"/>
                <path d="M65.17,166.114 C65.21,166.621 65.083,167.181 64.79,167.795 L64.05,168.774 L52.29,178.634 L50.93,179.334 C50.037,179.775 48.844,180.081 47.35,180.253 C45.99,180.441 44.71,180.427 43.51,180.213 C42.79,180.093 42.197,179.946 41.73,179.773 L41.57,176.313 L43.35,176.693 C44.47,176.866 45.77,176.899 47.25,176.793 C48.557,176.606 49.729,176.299 50.77,175.873 L52.13,175.113 L52.73,174.673 L63.45,165.632 L63.87,165.252 C64.097,165.039 64.35,164.712 64.63,164.273 C64.883,163.7 65.01,163.2 65.01,162.773 L65.17,166.114" class="wall"/>
                <path d="M58.67,161.474 L59.17,161.794 C59.49,162.047 59.69,162.387 59.77,162.814 L59.93,166.294 C59.85,165.894 59.65,165.547 59.33,165.253 L58.85,164.994 L58.31,164.774 L57.65,164.614 L56.19,164.554 C55.75,164.595 55.296,164.721 54.83,164.934 L54.07,165.374 L43.35,174.413 L43.19,174.513 L42.91,174.893 C42.803,175.106 42.75,175.326 42.75,175.553 L42.59,172.032 C42.59,171.806 42.643,171.586 42.75,171.373 L43.03,170.993 L43.19,170.893 L53.91,161.852 L54.67,161.412 C55.03,161.266 55.483,161.158 56.03,161.092 C56.537,161.051 57.023,161.051 57.49,161.092 L58.13,161.252 L58.67,161.474" class="wall"/>
                <path d="M40.31,179.234 L39.01,178.414 C38.077,177.627 37.577,176.727 37.51,175.714 L37.33,172.194 C37.41,173.167 37.937,174.068 38.91,174.894 L40.15,175.714 L41.57,176.314 L41.73,179.774 L40.31,179.234" class="wall"/>
                <path d="M389.71,54.434 L404.77,41.874 L404.93,45.334 L389.89,57.954 L379.69,57.574 L378.19,67.114 L347.79,65.974 L345.09,82.554 L344.93,79.094 L347.63,62.454 L378.03,63.654 L379.53,54.054 L389.71,54.434" class="wall"/>
                <path d="M69.99,151.554 L69.83,148.034 L82.83,153.114 L82.95,156.654 L69.99,151.554" class="wall"/>
                <path d="M137.43,78.214 L137.27,74.694 L140.09,76.654 L140.25,80.174 L137.43,78.214" class="wall"/>
                <path d="M133.53,83.534 L133.37,80.014 L135.65,81.514 L135.75,85.034 L133.53,83.534" class="wall"/>
                <path d="M128.23,91.974 L128.11,88.454 C128.19,89.894 128.897,91.161 130.23,92.254 C130.844,92.747 131.437,93.121 132.01,93.374 L133.05,93.814 C133.303,93.961 133.61,94.067 133.97,94.134 C134.797,94.427 135.61,94.628 136.41,94.734 C139.73,95.241 142.87,94.974 145.83,93.934 L146.85,93.494 L146.91,94.634 L148.21,95.554 L166.89,86.174 L167.05,89.694 L154.93,95.774 L156.45,96.794 L156.61,100.254 L152.11,97.174 L148.37,99.074 L145.99,97.394 C142.95,98.474 139.79,98.761 136.51,98.254 L134.13,97.654 L133.15,97.334 C132.683,97.161 132.343,97.001 132.13,96.854 C131.477,96.521 130.897,96.161 130.39,95.774 C129.057,94.721 128.336,93.454 128.23,91.974" class="wall"/>
                <path d="M330.53,9.914 L325.49,41.274 L313.249,40.794 L311.769,49.674 L295.209,49.034 L278.909,52.055 L262.389,58.995 L247.389,58.715 L247.208,55.255 L262.229,55.475 L278.749,48.535 L295.089,45.556 L311.61,46.156 L313.07,37.336 L325.33,37.756 L330.41,6.456 L330.53,9.914 M319.31,60.194 L308.491,59.834 L308.591,56.554 L318.991,56.934 L319.93,51.594 L319.93,55.894 L319.31,60.194" class="wall"/>
                <path d="M335.35,51.074 L324.13,50.654 L323.971,47.134 L335.171,47.614 L335.35,51.074" class="wall"/>
                <path d="M335.77,56.274 L335.891,59.794 L333.991,59.694 L333.831,56.174 L335.77,56.274" class="wall"/>
                <path d="M334.53,63.874 L335.51,65.914 L335.67,69.434 L334.69,67.394 L334.53,63.874" class="wall"/>
                <path d="M166.19,65.274 L166.09,61.754 L192.73,80.114 L197.49,80.274 L247.27,55.354 L247.43,58.874 L197.65,83.794 L192.89,83.634 L166.19,65.274" class="wall"/>
                <path d="M324.03,66.834 L324.19,70.354 L319.85,97.334 L319.69,93.814 L324.03,66.834" class="wall"/>
                <path d="M187.271,85.414 L187.75,82.394 L187.91,85.914 L187.43,88.934 L181.69,91.814 L180.17,101.174 L180.01,97.654 L181.51,88.294 L187.271,85.414" class="wall"/>
                <path d="M51.43,183.134 L51.31,179.613 L64.75,184.913 L64.85,188.434 L51.43,183.134" class="wall"/>
                <path d="M427.09,45.234 L415.99,50.974 L371.73,87.254 L339.57,118.994 L326.99,115.594 L305.769,111.694 L269.849,107.574 L242.77,106.654 L226.97,105.454 L227.01,106.374 C227.09,107.894 226.783,109.254 226.09,110.454 L225.23,111.694 L225.071,108.174 L225.93,106.914 C226.263,106.381 226.483,105.787 226.59,105.134 L226.59,104.534 L226.69,104.534 L226.53,101.074 L227.93,92.354 L243.65,92.954 L243.75,95.054 L255.291,95.494 L255.391,98.954 L243.491,98.534 L243.371,96.414 L228.091,95.874 L226.85,103.454 L226.91,104.594 L242.77,105.794 L269.85,106.714 L306.59,110.994 L305.83,110.814 L305.649,107.294 L326.949,111.254 L330.19,107.034 L330.35,110.555 L328.13,113.415 L339.51,116.515 L345.85,110.395 L340.871,108.935 L331.23,96.955 L331.07,93.435 L340.71,105.415 L346.87,107.255 L363.549,90.895 L363.73,94.255 L371.69,86.395 L415.93,50.115 L427.03,44.375 L427.09,45.234" class="wall"/>
                <path d="M349.81,89.854 L349.63,86.394 L350.771,79.294 L350.93,82.774 L349.81,89.854" class="wall"/>
                <path d="M308.31,95.014 L266.51,93.434 L255.449,99.014 L255.29,95.494 L266.33,89.974 L308.15,91.494 L308.31,95.014" class="wall"/>
                <path d="M251.391,131.134 L229.131,129.554 L224.531,158.114 L224.371,154.593 L229.511,122.512 L229.671,126.152 L251.231,127.612 L251.391,131.134" class="wall"/>
                <path d="M178.871,109.194 L140.951,141.054 L133.531,138.114 L129.691,141.314 L129.691,141.374 L122.271,147.654 L118.211,147.654 L115.331,150.034 L115.491,153.294 L98.011,168.013 L97.831,164.493 L114.031,150.893 L113.871,147.653 L118.051,144.132 L122.111,144.132 L129.531,137.912 L129.531,137.852 L133.371,134.593 L140.791,137.533 L178.711,105.733 L180.011,97.653 L180.171,101.173 L178.871,109.194" class="wall"/>
                <path d="M59.97,188.934 L83.59,198.294 L85.43,187.294 L88.95,186.334 L91.61,169.753 L97.83,164.494 L98.01,168.014 L91.77,173.214 L89.11,189.795 L85.55,190.774 L83.75,201.814 L60.15,192.454 L59.97,188.934" class="wall"/>
                <path d="M335.891,120.514 L336.05,123.994 L335.93,124.194 L335.99,124.853 L335.13,126.694 L306.851,150.413 L195.991,219.794 L173.511,212.374 L104.67,212.374 L99.25,209.294 L82.19,208.753 L23.25,185.353 L23.27,184.333 L41.21,191.433 L41.19,190.013 L82.13,206.253 L82.79,206.253 L82.67,204.194 L90.63,204.034 L91.61,199.874 L91.77,203.394 L91.39,206.534 L98.75,206.753 L98.75,205.173 L99.47,205.113 L102.11,190.013 L102.07,188.594 L102.39,188.594 L102.71,186.753 L102.77,188.594 L124.81,189.353 L124.97,192.874 L102.23,192.114 L102.23,191.734 L99.85,205.334 L104.55,207.994 L109.75,207.994 L112.31,193.214 L112.47,196.734 L109.91,211.454 L122.15,211.514 L121.99,207.994 L173.39,208.054 L177.19,209.354 L198.149,191.734 L220.029,200.414 L245.529,184.434 L245.709,187.794 L255.829,181.453 L163.429,178.094 L163.27,174.574 L255.829,177.994 L272.729,167.474 L272.889,170.774 L306.789,149.553 L315.029,142.613 L249.649,138.114 L249.49,134.654 L314.97,139.154 L335.01,122.314 L335.891,120.514 M198.31,195.214 L177.35,212.814 L195.93,218.934 L220.03,203.874 L198.31,195.214" class="wall"/>
                <path d="M242.19,161.414 L243.21,155.295 L243.37,158.815 L242.35,164.935 L242.19,161.414" class="wall"/>
                <path d="M243.05,55.854 L209.91,33.054 L209.73,29.574 L242.891,52.334 L243.05,55.854" class="wall"/>
                <path d="M343.51,20.694 L343.35,17.174 L344.271,11.714 L344.391,15.174 L343.51,20.694" class="wall"/>
                <path d="M395.831,38.454 L395.671,34.934 L398.991,14.094 L399.15,17.615 L395.831,38.454" class="wall"/>
                <path d="M398.65,39.434 L399.37,35.054 L399.53,38.574 L398.81,42.894 L398.65,39.434" class="wall"/>
                <path d="M35.25,174.414 L34.61,174.935 L27.99,172.315 L27.73,172.155 C27.517,172.009 27.41,171.829 27.41,171.615 L27.35,170.835 L27.67,171.295 L27.99,171.454 C28.11,171.561 28.237,171.614 28.37,171.614 L35.25,174.414" class="wall" fill="#9F9F9F"/>
                <path d="M153.89,71.554 L153.79,69.814 L175.67,84.774 L175.77,86.554 L153.89,71.554" class="wall" fill="#9F9F9F"/>
                <path d="M148.05,100.554 L107.63,98.974 L107.59,98.114 L147.99,99.634 L148.05,100.554" class="wall" fill="#999999"/>
            </g>
            <g class="ceilings">
                <path class="unit" d="M247.401,50.156 L251.409,48.153 L262.346,55.679 L255.253,55.571 L247.401,50.156 L247.401,50.156 Z M247.401,50.156" id="2001"/>
                <path class="unit" d="M243.016,52.375 L247.51,50.156 L255.252,55.571 L247.347,55.408 L243.016,52.375 L243.016,52.375 Z M243.016,52.375" id="2002"/>
                <path class="unit" d="M309.831,51.292 L308.586,56.598 L318.874,57.032 L319.741,51.78 L309.831,51.292 L309.831,51.292 Z M309.831,51.292" id="2003"/>
                <path class="unit" d="M325.479,37.973 L312.917,37.486" id="2004"/>
                <path class="unit" d="M302.143,45.823 L304.092,37.16 L312.918,37.485 L311.348,46.257 L302.143,45.823 L302.143,45.823 Z M302.143,45.823" id="2005"/>
                <path class="unit" d="M247.348,55.408 L239.658,59.252 L224.064,48.531 L231.699,44.686 L247.348,55.408 L247.348,55.408 Z M247.348,55.408" id="2006"/>
                <path class="unit" d="M232.023,63.096 L216.375,52.375 L224.064,48.531 L239.658,59.252 L232.023,63.096 L232.023,63.096 Z M232.023,63.096" id="2007"/>
                <path class="unit" d="M398.739,39.327 L398.685,39.489 L404.803,41.926 L389.75,54.487 L379.625,54.108 M398.739,39.327 L379.625,54.109" id="2008"/>
                <path class="unit" d="M186.324,57.411 C188.671,56.256 190.999,55.083 193.309,53.892 M217.35,70.46 L210.365,73.925" id="2009"/>
                <path class="unit" d="M334.577,63.908 L335.821,56.328 L378.976,57.953 L378.055,63.693 L347.679,62.5 L346.379,70.352 L334.956,69.919 L335.55,65.966 L334.577,63.908 L334.577,63.908 Z M334.577,63.908" id="2010"/>
                <path class="unit" d="M174.521,57.574 L203.38,77.445 L197.587,80.316 L192.821,80.153 L166.181,61.798 L174.521,57.574 L174.521,57.574 Z M174.521,57.574" id="2011"/>
                <path class="unit" d="M334.956,69.919 L346.379,70.352 L345.622,75.225 L334.143,74.792 L334.956,69.919 L334.956,69.919 Z M334.956,69.919" id="2012"/>
                <path class="unit" d="M297.648,65.912 L309.94,66.345 L307.666,80.64 L295.374,80.153 L297.648,65.912 L297.648,65.912 Z M297.648,65.912" id="2013"/>
                <path class="unit" d="M334.142,74.792 L345.621,75.225 L344.971,79.124 L333.546,78.691 L334.142,74.792 L334.142,74.792 Z M334.142,74.792" id="2014"/>
                <path class="unit" d="M321.473,83.293 L307.287,82.751 L309.94,66.344 L324.072,66.886 L321.473,83.293 L321.473,83.293 Z M321.473,83.293" id="2015"/>
                <path class="unit" d="M267.001,86.433 L244.423,70.893 L251.624,67.32 L268.248,78.745 L267.001,86.433 L267.001,86.433 Z M267.001,86.433" id="2016"/>
                <path class="unit" d="M333.547,78.69 L350.821,79.339 L350.008,84.213 L332.735,83.563 L333.547,78.69 L333.547,78.69 Z M333.547,78.69" id="2017"/>
                <path class="unit" d="M139.542,95.042 C137.159,95.006 135.03,94.608 133.153,93.851 C130.482,92.804 128.876,91.324 128.334,89.411 C127.829,87.534 128.551,85.783 130.5,84.159 C131.8,83.005 133.551,82.138 135.752,81.56 C139.795,80.549 143.603,80.729 147.176,82.102 C149.847,83.148 151.436,84.629 151.942,86.542 C152.447,88.419 151.743,90.169 149.83,91.793 C148.783,92.695 147.483,93.418 145.931,93.959 C143.946,94.682 141.817,95.042 139.542,95.042 L139.542,95.042 L139.542,95.042 Z M139.542,95.042" id="2018"/>
                <path class="unit" d="M320.66,88.167 L298.893,87.355 L299.652,82.482 L321.472,83.294 L320.66,88.167 L320.66,88.167 Z M320.66,88.167" id="2019"/>
                <path class="unit" d="M237.221,74.521 C239.639,73.33 242.04,72.121 244.423,70.893 L267.001,86.433 L266.406,90.006 L262.562,91.956 L237.221,74.521 L237.221,74.521 Z M237.221,74.521" id="2020"/>
                <path class="unit" d="M227.8,93.689 L215.617,85.296 L222.819,81.722 L238.955,92.822 L228.017,92.389 L227.8,93.689 L227.8,93.689 Z M227.8,93.689" id="2021"/>
                <path class="unit" d="M279.619,65.208 L297.649,65.912 L293.588,91.036 L275.558,90.332 L279.619,65.208 L279.619,65.208 Z M279.619,65.208" id="2022"/>
                <path class="unit" d="M295.374,80.152 L307.666,80.639 L307.287,82.751 L299.653,82.48 L298.245,91.197 L293.587,91.035 L295.374,80.152 L295.374,80.152 Z M295.374,80.152" id="2023"/>
                <path class="unit" d="M349.25,89.086 L332.031,88.328" id="2024"/>
                <path class="unit" d="M332.031,88.329 L331.977,88.437 L331.977,88.329 L332.031,88.329 L332.031,88.329 Z M332.031,88.329" id="2025"/>
                <path class="unit" d="M332.031,88.329 L332.735,83.564 L350.008,84.214 L349.25,89.087" id="2026"/>
                <path class="unit" d="M152.05,93.743 L166.995,86.217 L169.432,87.895 L181.615,88.329 L180.098,97.696 L156.545,96.829 L152.05,93.743 L152.05,93.743 Z M152.05,93.743" id="2027"/>
                <path class="unit" d="M238.955,92.822 L222.819,81.722 L230.021,78.094 L255.36,95.53 L243.395,95.043 L243.72,92.985 L238.955,92.822 L238.955,92.822 Z M238.955,92.822" id="2028"/>
                <path class="unit" d="M230.021,78.094 L237.221,74.521 L262.562,91.957 L255.359,95.53 L230.021,78.094 L230.021,78.094 Z M230.021,78.094" id="2029"/>
                <path class="unit" d="M170.08,100.132 L179.664,100.457 L178.798,105.764 L169.214,105.385 L170.08,100.132 L170.08,100.132 Z M170.08,100.132" id="2030"/>
                <path class="unit" d="M169.214,105.384 L178.798,105.763 L172.625,110.907 L168.618,109.336 L169.214,105.384 L169.214,105.384 Z M169.214,105.384" id="2031"/>
                <path class="unit" d="M158.385,104.952 L169.214,105.385 L168.618,109.338 L172.625,110.908 L169.376,113.616 L157.734,109.014 L158.385,104.952 L158.385,104.952 Z M158.385,104.952" id="2032"/>
                <path class="unit" d="M330.245,107.063 L327.592,103.76" id="2033"/>
                <path class="unit" d="M327.591,103.76 L327.212,103.272 L306.42,102.514 L308.206,91.523 L298.244,91.198 L298.894,87.354 L320.66,88.166 L319.741,93.851 L327.591,103.76 L327.591,103.76 Z M327.591,103.76" id="2034"/>
                <path class="unit" d="M229.587,122.548 L182.155,120.761 L183.021,115.185 L230.506,116.971 L229.587,122.548 L229.587,122.548 Z M229.587,122.548" id="2035"/>
                <path class="unit" d="M121.728,107.658 L158.927,122.44 L153.675,126.826 L128.118,116.701 L127.414,116.43 L114.094,111.07 L116.26,109.23 L121.728,107.658 L121.728,107.658 Z M121.728,107.658" id="2036"/>
                <path class="unit" d="M120.429,113.615 L153.675,126.826 L148.91,130.832 L115.664,117.622 L120.429,113.615 L120.429,113.615 Z M120.429,113.615" id="2037"/>
                <path class="unit" d="M302.521,113.505 L335.93,120.545 L335.063,122.333 L328.133,128.181 L298.786,125.528 L302.521,113.505 L302.521,113.505 Z M302.521,113.505" id="2038"/>
                <path class="unit" d="M120.429,113.615 L115.663,117.622 L123.352,120.708 L115.393,127.422 L133.477,134.623 L129.633,137.872 L103.101,127.368 L96.495,132.89 L90.755,130.617 L114.038,111.125 L120.429,113.615 L120.429,113.615 Z M120.429,113.615" id="2039"/>
                <path class="unit" d="M120.429,113.615 L128.172,116.648" id="2040"/>
                <path class="unit" d="M123.353,120.708 L148.91,130.833 L140.896,137.548 L115.394,127.423 L123.353,120.708 L123.353,120.708 Z M123.353,120.708" id="2041"/>
                <path class="unit" d="M227.097,138.306 L164.071,135.922 L170.568,130.507 L227.963,132.674 L227.097,138.306 L227.097,138.306 Z M227.097,138.306" id="2042"/>
                <path class="unit" d="M298.786,125.526 L328.133,128.18 L315.03,139.171 L249.567,134.677 L251.299,127.637 L229.045,126.121 L230.506,116.97 L183.02,115.184 L189.301,109.877 L190.005,105.762 L302.52,113.504 L298.786,125.526 L298.786,125.526 Z M298.786,125.526" id="2043"/>
                <path class="unit" d="M164.071,135.922 L227.097,138.306 L226.068,144.533 L156.923,141.933 L164.071,135.922 L164.071,135.922 Z M164.071,135.922" id="2044"/>
                <path class="unit" d="M150.859,158.827 L136.89,153.357 L141.438,149.567 L155.732,155.252 L157.844,154.873 L157.14,159.097 L150.859,158.827 L150.859,158.827 Z M150.859,158.827" id="2045"/>
                <path class="unit" d="M82.96,153.141 L85.667,154.224 L85.612,154.278 L73.376,164.566 L70.668,163.483 L82.851,153.195 L82.96,153.141 L82.96,153.141 Z M82.96,153.141" id="2046"/>
                <path class="unit" d="M97.958,164.511 L81.28,157.905 L85.612,154.278 L85.667,154.224 L102.29,160.829 L102.235,160.883 L97.958,164.511 L97.958,164.511 Z M97.958,164.511" id="2047"/>
                <path class="unit" d="M136.889,153.357 L150.859,158.827 L157.14,159.097 L156.273,164.458 L150.046,164.131 L132.34,157.147 L136.889,153.357 L136.889,153.357 Z M136.889,153.357" id="2048"/>
                <path class="unit" d="M66.987,166.568 L70.669,163.482 L73.322,164.565 L75.054,163.104 L91.731,169.709 L90.756,175.989 L66.987,166.568 L66.987,166.568 Z M66.987,166.568" id="2049"/>
                <path class="unit" d="M66.987,166.568 L90.757,175.99 L89.728,182.271 L61.572,171.117 L66.987,166.568 L66.987,166.568 Z M66.987,166.568" id="2050"/>
                <path class="unit" d="M116.801,181.459 L116.205,185.412 L102.777,184.925 L107.488,180.972 L116.801,181.459 L116.801,181.459 Z M116.801,181.459" id="2051"/>
                <path class="unit" d="M102.777,184.925 L116.205,185.412 L115.663,189.04 L102.235,188.497 L102.777,184.925 L102.777,184.925 Z M102.777,184.925" id="2052"/>
                <path class="unit" d="M61.572,171.117 L89.728,182.271 L89.078,186.332 L85.558,187.307 L56.157,175.666 L61.572,171.117 L61.572,171.117 Z M61.572,171.117" id="2053"/>
                <path class="unit" d="M83.826,199.978 L91.353,200.194 L90.757,204.037 L83.231,203.821 L83.826,199.978 L83.826,199.978 Z M83.826,199.978" id="2054"/>
                <path class="unit" d="M154.704,174.257 L226.609,176.965" id="2055"/>
                <path class="unit" d="M138.297,169.601 L138.514,169.657 L146.69,162.834 L150.046,164.132 L156.273,164.459 L154.704,174.258" id="2056"/>
                <path class="unit" d="M111.82,196.836 L111.278,200.302 L100.178,199.867 L100.774,196.403 L111.82,196.836 L111.82,196.836 Z M111.82,196.836" id="2057"/>
                <path class="unit" d="M207.982,46.582 L232.024,63.097 L224.336,66.942 L200.295,50.427 L207.982,46.582 L207.982,46.582 Z M207.982,46.582" id="2058"/>
                <path class="unit" d="M258.827,63.692 L267.923,63.096 L270.468,64.883 L269.493,71.055 L258.827,63.692 L258.827,63.692 Z M258.827,63.692" id="2059"/>
                <path class="unit" d="M268.248,78.745 L251.624,67.32 C254.043,66.129 256.443,64.92 258.827,63.692 L269.493,71.056 L268.248,78.745 L268.248,78.745 Z M268.248,78.745" id="2060"/>
                <path class="unit" d="M152.862,76.47 L160.605,72.572 L175.712,82.968 L183.184,79.233 L187.842,82.427 L187.354,85.459 L181.615,88.329 L169.432,87.896 L152.862,76.47 L152.862,76.47 Z M152.862,76.47" id="2061"/>
                <path class="unit" d="M147.177,82.102 C143.603,80.73 139.795,80.55 135.752,81.56 L133.478,80.044 L140.193,76.687 L137.377,74.737 L144.849,71.001 L166.995,86.216 L148.314,95.583 L145.931,93.958 C147.483,93.416 148.783,92.695 149.83,91.792 C151.743,90.167 152.447,88.417 151.942,86.54 C151.437,84.628 149.848,83.148 147.177,82.102 L147.177,82.102 L147.177,82.102 Z M147.177,82.102" id="2062"/>
                <path class="unit" d="M275.558,90.332 L266.407,90.007 L270.468,64.883 L279.618,65.208 L275.558,90.332 L275.558,90.332 Z M275.558,90.332" id="2063"/>
                <path class="unit" d="M201.323,92.498 L208.416,88.923 L223.469,99.265 L210.42,98.778 L201.323,92.498 L201.323,92.498 Z M201.323,92.498" id="2064"/>
                <path class="unit" d="M226.88,99.374 L223.469,99.266 L208.416,88.924 L215.618,85.296 L227.801,93.689 L226.88,99.374 L226.88,99.374 Z M226.88,99.374" id="2065"/>
                <path class="unit" d="M226.609,101.106 L190.981,99.807 L191.306,97.479 L201.323,92.498 L210.42,98.779 L226.88,99.374 L226.609,101.106 L226.609,101.106 Z M226.609,101.106" id="2066"/>
                <path class="unit" d="M178.798,105.764 L169.214,105.385" id="2067"/>
                <path class="unit" d="M169.214,105.384 L145.877,104.517 C145.154,103.218 144.975,101.864 145.336,100.456 C145.696,99.012 146.581,97.695 147.989,96.503 L180.097,97.695 L179.664,100.456 L170.08,100.131 L169.214,105.384 L169.214,105.384 Z M169.214,105.384" id="2068"/>
                <path class="unit" d="M331.977,88.329 L349.25,89.087 L349.683,86.434 L363.599,90.928 L346.922,107.28 L340.75,105.439 L331.112,93.473 L331.978,88.438 L331.977,88.329 L331.977,88.329 Z M331.977,88.329" id="2069"/>
                <path class="unit" d="M157.735,109.013 L169.376,113.615 L164.124,118.054 L131.258,104.951 L134.399,104.084 L158.385,104.951 L157.735,109.013 L157.735,109.013 Z M157.735,109.013" id="2070"/>
                <path class="unit" d="M330.245,107.063 L326.995,111.287 L305.716,107.334 L306.421,102.515 L327.213,103.273 L330.245,107.063 L330.245,107.063 Z M330.245,107.063" id="2071"/>
                <path class="unit" d="M131.258,104.952 L164.124,118.055 L158.926,122.441 L121.727,107.659 L131.258,104.952 L131.258,104.952 Z M131.258,104.952" id="2072"/>
                <path class="unit" d="M227.962,132.673 L170.567,130.507 L182.155,120.761 L229.587,122.548 L227.962,132.673 L227.962,132.673 Z M227.962,132.673" id="2073"/>
                <path class="unit" d="M102.236,160.883 L69.965,148.051 L90.757,130.616 L96.497,132.889 L103.103,127.367 L129.688,137.926 L122.216,144.154 L118.154,144.154 L113.985,147.672 L115.447,149.838 L102.236,160.883 L102.236,160.883 Z M102.236,160.883" id="2074"/>
                <path class="unit" d="M132.341,157.148 L146.69,162.834 L142.628,166.245 L128.334,160.559 L132.341,157.148 L132.341,157.148 Z M132.341,157.148" id="2075"/>
                <path class="unit" d="M81.281,157.905 L97.959,164.511 L91.732,169.71 L75.055,163.105 L81.281,157.905 L81.281,157.905 Z M81.281,157.905" id="2076"/>
                <path class="unit" d="M128.28,160.559 L142.629,166.245 L138.514,169.657 L124.22,164.026 L128.28,160.559 L128.28,160.559 Z M128.28,160.559" id="2077"/>
                <path class="unit" d="M259.638,162.075 L272.796,167.49 L255.901,177.995 L154.704,174.257 L157.844,154.873 L155.678,155.198 L141.438,149.568 L149.614,142.691 L156.924,141.932 L226.069,144.532 L224.444,154.603 L243.288,155.307 L242.258,161.425 L259.638,162.075 L259.638,162.075 Z M259.638,162.075" id="2078"/>
                <path class="unit" d="M51.447,179.619 L56.158,175.666 L85.505,187.307 L84.638,192.776 L51.447,179.619 L51.447,179.619 Z M51.447,179.619" id="2079"/>
                <path class="unit" d="M100.828,196.404 L101.315,192.83 L112.415,193.209 L111.873,196.835 L100.828,196.404 L100.828,196.404 Z M100.828,196.404" id="2080"/>
                <path class="unit" d="M64.875,184.925 L84.638,192.776 L83.717,198.299 L60.11,188.932 L64.875,184.925 L64.875,184.925 Z M64.875,184.925" id="2081"/>
                <path class="unit" d="M100.178,199.868 L111.278,200.303 L109.87,207.992 L104.672,207.992 L99.257,204.905 L100.178,199.868 L100.178,199.868 Z M100.178,199.868" id="2082"/>
                <path class="unit" d="M176.15,52.214 C174.924,51.388 174.277,50.414 174.211,49.294 C174.171,48.174 174.691,47.147 175.771,46.214 L177.291,45.234 L191.591,38.074 C193.404,37.181 195.464,36.788 197.771,36.894 C200.078,36.961 201.991,37.52 203.511,38.574 C204.991,39.548 205.624,40.741 205.411,42.154 C205.305,42.981 204.798,43.787 203.891,44.574 L202.371,45.554 L188.071,52.714 C186.271,53.607 184.211,54.001 181.891,53.894 C179.583,53.867 177.67,53.307 176.15,52.214 M180.05,47.934 C179.771,48.187 179.591,48.494 179.51,48.854 C179.404,49.361 179.636,49.814 180.21,50.214 C180.796,50.614 181.523,50.814 182.39,50.814 C183.257,50.881 184.03,50.734 184.71,50.374 L199.01,43.234 L199.55,42.854 C199.99,42.494 200.191,42.114 200.15,41.714 C200.15,41.274 199.917,40.894 199.45,40.574 C198.904,40.214 198.183,40.001 197.29,39.934 C196.383,39.934 195.603,40.094 194.95,40.414 L180.65,47.554 L180.05,47.934" id="2083"/>
                <path class="unit" d="M375.59,12.134 C375.696,11.628 375.457,11.181 374.87,10.794 C374.297,10.394 373.577,10.194 372.71,10.194 L354.25,9.494 C353.024,9.414 352.043,9.68 351.31,10.294 C351.03,10.547 350.85,10.854 350.77,11.214 C350.663,11.721 350.904,12.174 351.491,12.574 C352.024,12.934 352.744,13.148 353.65,13.214 L372.11,13.874 C372.977,13.941 373.756,13.794 374.45,13.434 L375.05,13.054 C375.331,12.801 375.51,12.494 375.59,12.134 M380.831,12.354 C380.724,13.261 380.224,14.074 379.331,14.794 C378.491,15.514 377.384,16.074 376.011,16.474 C374.611,16.874 373.151,17.034 371.631,16.954 L353.151,16.254 C350.778,16.187 348.864,15.628 347.411,14.574 C345.931,13.601 345.305,12.407 345.531,10.994 C345.638,10.127 346.138,9.334 347.031,8.614 C347.405,8.254 347.911,7.934 348.551,7.654 C350.325,6.707 352.384,6.287 354.732,6.394 L373.192,7.094 C375.512,7.174 377.432,7.734 378.951,8.774 C380.43,9.788 381.057,10.981 380.831,12.354" id="2084"/>
                <path class="unit" d="M59.71,162.554 C59.563,162.048 59.13,161.648 58.41,161.354 C57.65,161.061 56.857,160.975 56.03,161.095 C55.27,161.121 54.563,161.375 53.91,161.854 L43.19,170.895 C42.723,171.254 42.543,171.721 42.65,172.295 C42.823,172.841 43.257,173.241 43.95,173.495 C44.71,173.775 45.503,173.862 46.33,173.754 C47.197,173.647 47.904,173.381 48.45,172.954 L59.17,163.954 C59.677,163.527 59.857,163.061 59.71,162.554 M63.45,165.634 L52.73,174.674 C51.383,175.795 49.557,176.501 47.251,176.795 C44.837,177.008 42.724,176.754 40.911,176.035 C39.004,175.276 37.851,174.228 37.451,172.895 C37.051,171.562 37.538,170.315 38.911,169.155 L49.631,160.175 C51.005,159.055 52.844,158.348 55.151,158.055 C57.391,157.762 59.491,157.995 61.451,158.755 C63.358,159.555 64.511,160.622 64.911,161.955 C65.31,163.327 64.824,164.554 63.45,165.634" id="2085"/>
                <path class="unit" d="M374.319,24.598 L365.656,24.111 L364.518,29.742 L373.397,30.338 L374.319,24.598 L374.319,24.598 Z M374.319,24.598" id="2086"/>
                <path class="unit" d="M374.319,24.598 L365.656,24.111 L366.901,18.101 L375.293,18.48 L374.319,24.598" id="2087"/>
                <path class="unit" d="M364.518,29.742 L366.901,18.101 L343.401,17.18 L328.944,16.585 L324.018,47.178 L335.226,47.665 L364.302,35.428 L372.532,35.752 L373.398,30.338 L364.518,29.742 L364.518,29.742 Z M364.518,29.742" id="2088"/>
                <path class="unit" d="M343.401,17.18 L344.322,11.766 L329.81,11.171 L328.944,16.585 L343.401,17.18" id="2089"/>
                <path class="unit" d="M312.918,37.485 L304.092,37.16 L302.143,45.823 L295.211,45.715 L278.859,48.747 L262.344,55.678 L251.407,48.152 L242.96,52.375 L209.822,29.633 L252.326,8.516 L254.817,9.274 L276.205,5.592 L277.721,4.022 L330.513,6.621 L325.477,37.972 L312.918,37.485 L312.918,37.485 Z M312.918,37.485" id="2090"/>
                <path class="unit" d="M399.388,35.103 L395.708,34.995 L399.01,14.149 L381.304,13.499 L380.601,18.805 L375.293,18.48 L372.532,35.752 L364.302,35.428 L335.226,47.665 L333.872,56.22 L378.976,57.953 L379.572,54.108 L379.625,54.108 L398.739,39.327 L399.388,35.103 L399.388,35.103 Z M399.388,35.103" id="2091"/>
                <path class="unit" d="M190.494,102.839 L190.007,105.764 L202.352,106.63 L202.514,103.435 L190.494,102.839 L190.494,102.839 Z M190.494,102.839" id="2092"/>
                <path class="unit" d="M190.494,102.839 L190.981,99.807 L226.609,101.106 C226.97,102.225 227.042,103.416 226.826,104.68 C226.574,106.124 226.014,107.297 225.147,108.2 L202.352,106.63 L202.515,103.435 L190.494,102.839" id="2093"/>
                <path class="unit" d="M116.855,181.459 L107.488,180.972 L108.3,176.478 M116.855,181.459 L117.559,176.965 L108.3,176.478" id="2094"/>
                <path class="unit" d="M113.499,170.359 L122.054,163.158 L138.298,169.601 M113.499,170.359 L129.147,177.344 L138.298,169.601" id="2095"/>
                <path class="unit" d="M138.297,169.601 L138.514,169.657 L146.69,162.834 L150.046,164.132 L156.273,164.459 L154.704,174.258 L226.61,176.966 L199.97,192.452 L198.237,191.747 L177.283,209.345 L173.492,208.046 L122.108,207.991 L124.924,189.419 L124.924,189.365 L115.665,189.04 L116.856,181.459 L117.56,176.966 L108.301,176.479 L108.626,174.42 L113.499,170.359 L129.147,177.344 L138.297,169.601" id="2096"/>
                <path class="unit" d="M226.609,176.965 L226.663,176.965 L245.614,184.436 L220.112,200.409 L199.97,192.451 M226.609,176.965 L199.969,192.451" id="2097"/>
                <path class="unit" d="M200.294,50.426 L179.34,60.876 L203.38,77.445 L224.335,66.941 L200.294,50.426 L200.294,50.426 Z M200.294,50.426" id="2098"/>
            </g>
            <g class="ceiling_details">
                <path d="M182.61,50.814 C183.37,50.814 184.07,50.667 184.71,50.374 L199.01,43.234 L199.55,42.854 C199.99,42.494 200.191,42.114 200.15,41.714 C200.15,41.274 199.917,40.894 199.45,40.574 C198.904,40.214 198.183,40.001 197.29,39.934 L197.07,39.934 C196.27,39.934 195.563,40.094 194.949,40.414 L180.649,47.554 L180.049,47.934 C179.77,48.187 179.59,48.494 179.509,48.854 C179.403,49.361 179.635,49.814 180.209,50.214 C180.795,50.614 181.522,50.814 182.389,50.814 L182.61,50.814 M182.61,51.354 L182.33,51.354 C181.423,51.354 180.61,51.121 179.89,50.654 C179.17,50.147 178.863,49.514 178.97,48.754 C179.05,48.314 179.303,47.901 179.73,47.514 L180.39,47.074 L194.69,39.934 C195.477,39.561 196.27,39.374 197.07,39.374 L197.29,39.374 C198.263,39.454 199.09,39.707 199.77,40.134 C200.383,40.534 200.69,41.041 200.69,41.654 C200.77,42.307 200.516,42.847 199.93,43.274 L199.29,43.714 L184.99,50.874 C184.297,51.194 183.503,51.354 182.61,51.354 M181.89,53.894 C179.583,53.867 177.67,53.307 176.15,52.214 C174.923,51.388 174.277,50.414 174.21,49.294 C174.17,48.174 174.69,47.147 175.77,46.214 L177.29,45.234 L191.59,38.074 C193.257,37.288 195.116,36.894 197.17,36.894 L197.77,36.894 C200.077,36.961 201.99,37.52 203.51,38.574 C204.99,39.548 205.623,40.741 205.41,42.154 C205.304,42.981 204.797,43.787 203.89,44.574 L202.37,45.554 L188.07,52.714 C186.416,53.501 184.543,53.894 182.449,53.894 L181.89,53.894 M182.45,53.354 C184.543,53.354 186.343,52.974 187.85,52.214 L202.15,45.074 L203.571,44.154 C204.33,43.501 204.763,42.794 204.871,42.034 C205.084,40.914 204.524,39.908 203.191,39.014 C201.737,38.027 199.931,37.5 197.771,37.434 L197.171,37.434 C195.117,37.434 193.33,37.814 191.811,38.574 L177.511,45.714 L176.111,46.634 C175.137,47.434 174.684,48.301 174.751,49.234 C174.818,50.208 175.398,51.061 176.492,51.794 C177.932,52.794 179.732,53.314 181.892,53.354 L182.45,53.354" class="Shape" fill="#B2B2B2"/>
                <path d="M378.61,9.214 C377.171,8.24 375.363,7.721 373.191,7.654 L354.131,6.934 C352.144,6.934 350.358,7.334 348.772,8.134 C348.118,8.454 347.651,8.741 347.372,8.994 C346.612,9.647 346.178,10.354 346.072,11.114 C345.845,12.234 346.405,13.24 347.751,14.134 C349.125,15.121 350.925,15.648 353.151,15.714 L372.172,16.414 C375.065,16.414 377.338,15.727 378.992,14.354 C379.751,13.714 380.185,13.014 380.292,12.254 C380.517,11.134 379.957,10.121 378.61,9.214 M380.831,12.354 C380.724,13.261 380.224,14.074 379.331,14.794 C377.597,16.234 375.21,16.954 372.171,16.954 L353.15,16.254 C350.777,16.187 348.863,15.628 347.41,14.574 C345.93,13.601 345.304,12.407 345.53,10.994 C345.637,10.127 346.137,9.334 347.03,8.614 C347.404,8.254 347.91,7.934 348.55,7.654 C350.137,6.814 351.997,6.394 354.131,6.394 L373.191,7.094 C375.511,7.174 377.431,7.734 378.95,8.774 C380.43,9.788 381.057,10.981 380.831,12.354 M372.71,10.194 L354.03,9.494 C352.871,9.494 351.963,9.761 351.31,10.294 C351.03,10.547 350.85,10.854 350.77,11.214 C350.663,11.721 350.904,12.174 351.491,12.574 C352.024,12.934 352.744,13.148 353.65,13.214 L372.11,13.874 L372.33,13.934 C373.157,13.934 373.864,13.767 374.45,13.434 L375.05,13.054 C375.33,12.801 375.51,12.494 375.591,12.134 C375.697,11.628 375.458,11.181 374.871,10.794 C374.297,10.394 373.577,10.194 372.71,10.194 M375.21,10.354 C375.93,10.861 376.237,11.494 376.13,12.254 C376.09,12.68 375.837,13.094 375.371,13.494 L374.711,13.934 C373.924,14.294 373.13,14.474 372.331,14.474 L372.11,14.414 L353.65,13.774 C352.677,13.734 351.844,13.481 351.15,13.014 C350.43,12.507 350.124,11.874 350.231,11.114 C350.311,10.674 350.564,10.26 350.991,9.874 C351.71,9.248 352.723,8.934 354.031,8.934 L372.711,9.654 C373.684,9.654 374.517,9.888 375.21,10.354" class="Shape" fill="#B2B2B2"/>
                <path d="M55.21,158.594 C52.97,158.807 51.236,159.474 50.01,160.594 L39.23,169.594 C38.217,170.46 37.77,171.413 37.89,172.453 C38.103,173.72 39.163,174.753 41.07,175.553 C42.417,176.06 43.897,176.313 45.51,176.313 L47.15,176.252 C49.39,175.959 51.137,175.293 52.39,174.252 L63.13,165.252 C64.276,164.239 64.69,163.172 64.37,162.052 C64.01,160.865 62.977,159.946 61.27,159.293 C59.937,158.759 58.457,158.493 56.83,158.493 L55.21,158.594 M56.83,157.954 C58.563,157.954 60.104,158.221 61.45,158.754 C63.357,159.554 64.51,160.621 64.91,161.954 C65.31,163.328 64.824,164.554 63.45,165.635 L52.73,174.675 C51.383,175.796 49.557,176.502 47.251,176.796 L45.511,176.855 C43.818,176.855 42.284,176.582 40.911,176.035 C39.004,175.276 37.851,174.229 37.451,172.895 C37.051,171.561 37.538,170.315 38.911,169.154 L49.631,160.175 C51.005,159.055 52.844,158.349 55.151,158.055 L56.83,157.954 M56.03,161.094 C55.27,161.12 54.563,161.374 53.91,161.853 L43.19,170.894 C42.723,171.253 42.543,171.72 42.65,172.294 C42.823,172.84 43.257,173.24 43.95,173.494 C44.483,173.707 45.076,173.814 45.73,173.814 L46.33,173.753 C47.197,173.647 47.904,173.38 48.45,172.953 L59.17,163.953 C59.677,163.527 59.857,163.06 59.71,162.553 C59.563,162.047 59.13,161.647 58.41,161.353 C57.863,161.141 57.284,161.034 56.67,161.034 L56.03,161.094 M56.67,160.494 C57.39,160.494 58.044,160.6 58.63,160.814 C59.604,161.214 60.144,161.808 60.25,162.594 C60.356,163.247 60.103,163.827 59.49,164.334 L48.77,173.374 C48.157,173.881 47.377,174.187 46.43,174.294 L45.73,174.353 C45.077,174.353 44.41,174.227 43.73,173.974 C42.863,173.614 42.324,173.107 42.11,172.453 C41.923,171.694 42.177,171.026 42.87,170.453 L53.59,161.474 C54.203,160.967 54.997,160.661 55.97,160.554 L56.67,160.494" class="Shape" fill="#B2B2B2"/>
        </g>
    </g>
</svg>