<?xml version="1.0" encoding="utf-8"?>
<!DOCTYPE svg PUBLIC "-//W3C//DTD SVG 1.1//EN" "http://www.w3.org/Graphics/SVG/1.1/DTD/svg11.dtd">
<svg version="1.1" xmlns="http://www.w3.org/2000/svg" xmlns:xlink="http://www.w3.org/1999/xlink" xml:space="preserve">
<g class="level" id="level1">
        <g class="outline">
            <path d="M471.2,44.3 L470.9,43.9 C457.5,26.8 449.5,16.3 446.8,12.8 C444.9,10.2 441.9,8.1 437.8,6.6 L432.2,5.1 L432.1,5.1 C424.2,3.7 415.8,2.4 407.1,1.3 C402.1,0.7 398.2,1.5 395.4,3.7 L395.4,3.7 C394.2,4.8 393.2,6.1 392.7,7.6 L392.7,7.7 C392.6,7.9 392.6,8.1 392.5,8.4 L384.3,8.4 L384.1,7.6 C383.4,4.7 379.6,4 376.7,3.8 L363.4,3 C353.9,2.5 346.1,2.3 340.1,2.3 L325.6,2.8 L318.5,2.5 L317.6,3.5 C308.8,4.3 299.6,5.5 290.2,7.1 C282.8,8.3 275.3,10.5 267.9,13.6 C263.4,15.5 260.2,17.1 258.3,18.3 L205.2,48.6 C201.4,51 197,53.7 192.3,56.9 C190.4,58.2 188.5,59.4 186.8,60.6 L181.5,64.3 C177.5,67.1 174.2,69.7 171.5,72 C165.6,77 157.3,85.8 146.7,98.4 L146.3,98.9 L146.6,101.8 L184.2,103.3 C184.2,103.5 184.2,103.7 184.3,103.8 L174.8,103.5 L163.8,106.6 L140.8,105.8 L140.3,106.4 C135.2,112.1 129.8,118 124.3,123.8 C113.3,135.5 104.8,143.9 98.9,148.8 C93.1,153.7 86.5,158.4 79.4,162.8 C75.9,165 71.9,167.2 67.7,169.6 L66.6,170.4 L66.5,170.5 C66,170.9 65.6,171.5 65.4,172 L65.2,172.6 L65.3,173.8 C65.3,174.5 65.7,175.2 66.4,175.6 L66.8,175.8 L70.9,177.4 L61.1,185.5 L61.2,188.3 L64.4,189.6 L35.4,212.7 L33.4,211.8 C33.1,211.7 32.9,211.6 32.6,211.6 C32.2,211.6 31.7,211.7 31.4,212 L1.8,235.4 C1.6,235.6 1.4,235.8 1.3,236 C1.1,236.4 0.9,236.8 1,237.3 L1,237.3 L0.7,240.1 C0.6,240.9 1,241.7 1.8,242.1 L54.3,269 L54.9,269.5 L51.7,272 C51.5,272.2 51.3,272.4 51.2,272.6 C51,273 50.8,273.4 50.9,273.9 L50.6,276.7 C50.5,277.7 51.1,278.5 52,278.8 L73.7,285.6 L77.9,289 L77.9,289.1 C77.8,289.8 78.1,290.6 78.8,291 L89.1,298 C89.4,298.2 89.8,298.3 90.2,298.3 C90.5,298.3 90.8,298.2 91.1,298.1 L113,287.6 L113.1,287.6 L144.3,271.5 L179.5,258.4 C179.6,258.4 179.7,258.3 179.8,258.3 L196.6,249.2 C196.6,249.2 196.7,249.2 196.7,249.1 L225.2,231 L349.4,153 L378.3,128.8 L379.5,126.3 L379.5,125.6 L379.6,125.4 L379.4,121.1 L382,121.8 L415,89.2 L459.4,52.8 L471.3,46.6 L471.2,44.3 L471.2,44.3 Z M471.2,44.3" class="outline"/>
        </g>
        <g class="label">
            <path d="M63.7,36.5 C62.7,36.5 61.9,36.6 61.4,36.8 C61,36.9 60.9,37.2 60.9,37.6 L60.9,47.3 C60.9,47.7 61.2,47.9 61.5,47.9 C61.9,47.9 62.1,47.7 62.1,47.3 L62.1,43.7 L63.6,43.7 C66.5,43.7 68,42.3 68,40 C68,38 66.7,36.5 63.7,36.5 L63.7,36.5 L63.7,36.5 Z M63.6,42.5 L62.2,42.5 L62.2,37.8 C62.6,37.7 63.2,37.7 63.7,37.7 C66,37.7 66.8,38.8 66.8,40.1 C66.8,41.4 66.1,42.5 63.6,42.5 L63.6,42.5 L63.6,42.5 Z M127.3,46.7 L123,46.7 L123,37.3 C123,36.9 122.7,36.6 122.4,36.6 C122,36.6 121.8,36.9 121.8,37.3 L121.8,46.9 C121.8,47.5 122.2,47.9 122.9,47.9 L127.4,47.9 C127.8,47.9 128.1,47.6 128.1,47.3 C128,46.9 127.7,46.7 127.3,46.7 L127.3,46.7 L127.3,46.7 Z M54.9,36.5 C53.9,36.5 53.1,36.6 52.6,36.8 C52.2,36.9 52.1,37.2 52.1,37.6 L52.1,47.3 C52.1,47.7 52.4,47.9 52.7,47.9 C53.1,47.9 53.3,47.7 53.3,47.3 L53.3,43.7 L54.8,43.7 C57.7,43.7 59.2,42.3 59.2,40 C59.2,38 57.9,36.5 54.9,36.5 L54.9,36.5 L54.9,36.5 Z M54.7,42.5 L53.3,42.5 L53.3,37.8 C53.7,37.7 54.3,37.7 54.8,37.7 C57.1,37.7 57.9,38.8 57.9,40.1 C57.9,41.4 57.2,42.5 54.7,42.5 L54.7,42.5 L54.7,42.5 Z M49.2,36.6 C48.8,36.6 48.6,36.9 48.6,37.3 L48.6,46 C47.8,46.5 46.6,46.8 45.9,46.8 C44,46.8 42.9,45.9 42.9,43.8 L42.9,37.3 C42.9,36.9 42.6,36.6 42.3,36.6 C41.9,36.6 41.7,36.9 41.7,37.3 L41.7,44 C41.7,46.3 43.2,47.9 45.7,47.9 C47.5,47.9 48.5,47.4 49.5,46.9 C49.9,46.7 49.9,46.4 49.9,46 L49.9,37.1 C49.8,36.9 49.5,36.6 49.2,36.6 L49.2,36.6 L49.2,36.6 Z M75.8,46.6 L71,46.6 L71,42.7 L74.9,42.7 C75.3,42.7 75.5,42.4 75.5,42.1 C75.5,41.8 75.3,41.5 74.9,41.5 L71,41.5 L71,37.8 L75.6,37.8 C76,37.8 76.2,37.5 76.2,37.2 C76.2,36.9 76,36.6 75.6,36.6 L70.8,36.6 C70.1,36.6 69.7,37 69.7,37.6 L69.7,46.9 C69.7,47.5 70.1,47.9 70.8,47.9 L75.7,47.9 C76.1,47.9 76.3,47.6 76.3,47.3 C76.4,46.9 76.2,46.6 75.8,46.6 L75.8,46.6 L75.8,46.6 Z M83.8,43.7 C83.5,43.3 83.2,43 82.8,42.7 C84.2,42.2 85.2,41.2 85.2,39.7 C85.2,37.8 83.9,36.5 81,36.5 C79.9,36.5 79.1,36.6 78.6,36.8 C78.2,36.9 78.1,37.2 78.1,37.6 L78.1,47.3 C78.1,47.7 78.4,47.9 78.7,47.9 C79.1,47.9 79.3,47.7 79.3,47.3 L79.3,43.1 L80.5,43.1 C81.7,43.1 82.1,43.6 82.7,44.5 C83.1,45.1 83.5,46.1 84,47.5 C84.1,47.8 84.3,47.9 84.6,47.9 C84.9,47.9 85.2,47.7 85.2,47.3 C85.2,47.2 85.2,47 85.1,46.9 C84.8,45.7 84.3,44.5 83.8,43.7 L83.8,43.7 L83.8,43.7 Z M80.8,41.9 L79.4,41.9 L79.4,37.9 C79.8,37.8 80.3,37.8 81,37.8 C83.3,37.8 84,38.7 84,39.9 C83.9,41.5 82.4,41.9 80.8,41.9 L80.8,41.9 L80.8,41.9 Z M101,37.9 C100.9,37.1 100.6,36.6 99.9,36.6 C99.3,36.6 99,37 98.8,37.4 C98,39.6 97.1,42.4 96.1,45.1 L96.1,45.1 C95.1,42.6 94.3,40 93.3,37.6 C93.1,37 92.8,36.6 92.2,36.6 C91.5,36.6 91.2,37 91.1,37.9 C90.7,40.8 90.6,44 90.6,47.2 C90.6,47.6 90.8,47.8 91.2,47.8 C91.6,47.8 91.8,47.6 91.8,47.1 C91.8,44 92,41 92.3,38.1 L92.3,38.1 C93.3,40.7 94.2,43.4 95.3,46 C95.4,46.3 95.7,46.6 96.1,46.6 C96.5,46.6 96.8,46.4 96.9,46 C97.9,43.5 98.8,40.8 99.7,38.1 L99.7,38.1 C100.1,41.1 100.3,44.1 100.4,47.1 C100.4,47.5 100.6,47.8 101,47.8 C101.4,47.8 101.6,47.5 101.6,47.1 L101.6,46.6 C101.7,43.7 101.4,40.7 101,37.9 L101,37.9 L101,37.9 Z M109.6,38.1 C109,36.9 108.5,36.5 107.9,36.5 C107.3,36.5 106.8,36.9 106.2,38.1 C105.3,39.9 104.6,42.2 103.4,46.8 C103.3,47 103.3,47.2 103.3,47.3 C103.3,47.7 103.6,47.9 103.9,47.9 C104.2,47.9 104.4,47.7 104.5,47.4 C104.8,46 105.1,44.8 105.4,43.7 L110.3,43.7 C110.6,44.8 110.9,46 111.2,47.4 C111.3,47.7 111.5,47.9 111.8,47.9 C112.2,47.9 112.4,47.7 112.4,47.3 C112.4,47.2 112.4,47 112.3,46.8 C111.2,42.2 110.5,39.9 109.6,38.1 L109.6,38.1 L109.6,38.1 Z M105.8,42.6 C106.5,40.2 107.2,38.6 107.7,37.8 C107.7,37.7 107.8,37.7 107.9,37.7 C108,37.7 108.1,37.8 108.1,37.8 C108.6,38.6 109.3,40.1 110,42.6 L105.8,42.6 L105.8,42.6 Z M119.7,46.7 L115.4,46.7 L115.4,37.3 C115.4,36.9 115.1,36.6 114.8,36.6 C114.4,36.6 114.2,36.9 114.2,37.3 L114.2,46.9 C114.2,47.5 114.6,47.9 115.3,47.9 L119.8,47.9 C120.2,47.9 120.5,47.6 120.5,47.3 C120.4,46.9 120.1,46.7 119.7,46.7 L119.7,46.7 L119.7,46.7 Z M119.7,46.7" class="Shape"/>
            <path d="M274.5,237.2 C274.4,237.2 274.2,237.2 274.2,237.1 C274.1,237.1 274.1,237 274,236.9 C274,236.8 273.9,236.6 273.9,236.4 L273.9,233.1 L274.9,233.1 L274.9,232.3 L273.9,232.3 L273.9,230.3 L272.9,230.9 L272.9,232.3 L272.2,232.3 L272.2,233.1 L272.9,233.1 L272.9,236.4 C272.9,237 272.9,237.4 273,237.5 C273.1,237.6 273.2,237.8 273.4,237.9 C273.6,238 273.9,238.1 274.2,238.1 C274.4,238.1 274.7,238.1 274.9,238 L274.8,237.1 C274.7,237.2 274.6,237.2 274.5,237.2 L274.5,237.2 L274.5,237.2 Z M253.9,236.7 C253.5,237 253,237.2 252.4,237.2 C251.9,237.2 251.5,237.1 251.1,236.8 C250.7,236.6 250.4,236.2 250.2,235.7 C250,235.2 249.9,234.6 249.9,233.9 C249.9,233.4 250,232.9 250.1,232.4 C250.3,231.9 250.6,231.5 251,231.2 C251.4,230.9 251.9,230.8 252.5,230.8 C253,230.8 253.5,230.9 253.8,231.2 C254.1,231.5 254.4,231.9 254.6,232.5 L255.6,232.3 C255.4,231.6 255,231 254.5,230.6 C254,230.2 253.3,230 252.5,230 C251.8,230 251.2,230.2 250.6,230.5 C250,230.8 249.6,231.3 249.3,231.9 C249,232.5 248.8,233.2 248.8,234 C248.8,234.8 248.9,235.5 249.2,236.1 C249.5,236.8 249.9,237.3 250.4,237.6 C250.9,237.9 251.6,238.1 252.5,238.1 C253.3,238.1 254,237.9 254.6,237.4 C255.2,237 255.6,236.3 255.8,235.4 L254.8,235.1 C254.6,235.9 254.3,236.4 253.9,236.7 L253.9,236.7 L253.9,236.7 Z M267.6,235.6 L267.6,234.3 L267.6,233.4 C267.5,233.1 267.4,232.9 267.3,232.7 C267.2,232.5 266.9,232.4 266.6,232.3 C266.3,232.2 265.9,232.1 265.4,232.1 C264.9,232.1 264.5,232.2 264.1,232.3 C263.7,232.4 263.4,232.6 263.2,232.9 C263,233.1 262.9,233.5 262.8,233.9 L263.7,234 C263.8,233.6 264,233.3 264.2,233.2 C264.4,233 264.8,233 265.2,233 C265.7,233 266.1,233.1 266.3,233.3 C266.5,233.5 266.6,233.7 266.6,234.1 L266.6,234.4 C266.2,234.5 265.7,234.6 264.9,234.7 C264.5,234.7 264.2,234.8 264,234.8 C263.7,234.9 263.5,235 263.3,235.1 C263.1,235.2 262.9,235.4 262.8,235.7 C262.7,235.9 262.6,236.2 262.6,236.5 C262.6,237 262.8,237.4 263.1,237.7 C263.4,238 263.9,238.2 264.5,238.2 C264.9,238.2 265.2,238.1 265.6,238 C265.9,237.9 266.3,237.7 266.6,237.4 C266.6,237.7 266.7,237.9 266.8,238.1 L267.8,238.1 C267.7,237.9 267.6,237.7 267.6,237.4 C267.7,237.1 267.6,236.5 267.6,235.6 L267.6,235.6 L267.6,235.6 Z M266.7,235.5 C266.7,235.9 266.6,236.2 266.5,236.5 C266.4,236.8 266.2,237 265.9,237.2 C265.6,237.4 265.3,237.4 264.9,237.4 C264.5,237.4 264.2,237.3 264,237.1 C263.8,236.9 263.7,236.7 263.7,236.5 C263.7,236.3 263.7,236.2 263.8,236 C263.9,235.9 264,235.8 264.2,235.7 C264.4,235.6 264.6,235.6 265,235.5 C265.7,235.4 266.2,235.3 266.6,235.1 L266.7,235.5 L266.7,235.5 Z M260.7,232.4 C260.4,232.2 260,232.2 259.6,232.2 C258.9,232.2 258.3,232.5 257.9,233 L257.9,230.2 L256.9,230.2 L256.9,238.1 L257.9,238.1 L257.9,235 C257.9,234.6 258,234.2 258.1,233.9 C258.2,233.6 258.4,233.4 258.6,233.3 C258.9,233.2 259.1,233.1 259.4,233.1 C259.8,233.1 260.1,233.2 260.3,233.4 C260.5,233.6 260.6,234 260.6,234.5 L260.6,238.1 L261.6,238.1 L261.6,234.5 C261.6,233.9 261.5,233.5 261.4,233.2 C261.2,232.8 261,232.6 260.7,232.4 L260.7,232.4 L260.7,232.4 Z M270.6,232.4 C270.4,232.5 270.2,232.8 270,233.2 L270,232.3 L269.1,232.3 L269.1,238 L270.1,238 L270.1,235 C270.1,234.6 270.2,234.2 270.3,233.9 C270.4,233.7 270.5,233.5 270.7,233.4 C270.9,233.3 271.1,233.2 271.3,233.2 C271.5,233.2 271.8,233.3 272,233.4 L272.3,232.5 C272,232.3 271.6,232.2 271.3,232.2 C271,232.2 270.8,232.2 270.6,232.4 L270.6,232.4 L270.6,232.4 Z M307.8,237 C307.5,237.2 307.2,237.3 306.8,237.3 C306.3,237.3 305.9,237.1 305.7,236.8 C305.5,236.5 305.3,235.9 305.3,235.1 C305.3,234.3 305.5,233.8 305.8,233.4 C306.1,233.1 306.5,232.9 307,232.9 C307.3,232.9 307.6,233 307.8,233.2 C308,233.4 308.2,233.7 308.3,234.1 L309.2,234 C309.1,233.4 308.8,233 308.4,232.7 C308,232.4 307.5,232.2 306.9,232.2 C306.4,232.2 306,232.3 305.5,232.5 C305.1,232.7 304.8,233.1 304.6,233.5 C304.4,234 304.3,234.5 304.3,235.1 C304.3,236.1 304.5,236.8 305,237.3 C305.5,237.8 306.1,238.1 306.9,238.1 C307.5,238.1 308,237.9 308.5,237.5 C308.9,237.1 309.2,236.6 309.3,236 L308.3,235.9 C308.2,236.4 308.1,236.8 307.8,237 L307.8,237 L307.8,237 Z M315,235.1 C315,234.2 314.8,233.4 314.3,232.9 C313.8,232.4 313.2,232.1 312.4,232.1 C311.6,232.1 311,232.4 310.5,232.9 C310,233.4 309.8,234.2 309.8,235.1 C309.8,236 310,236.7 310.5,237.3 C311,237.8 311.7,238.1 312.5,238.1 C313.2,238.1 313.7,237.9 314.1,237.6 C314.5,237.3 314.8,236.8 315,236.2 L314,236.1 C313.9,236.5 313.7,236.8 313.4,237 C313.1,237.2 312.8,237.3 312.5,237.3 C312,237.3 311.6,237.1 311.3,236.8 C311,236.5 310.8,236 310.8,235.4 L315.1,235.4 C315,235.3 315,235.2 315,235.1 L315,235.1 L315,235.1 Z M310.8,234.6 C310.8,234.1 311,233.7 311.3,233.4 C311.6,233.1 312,233 312.4,233 C312.9,233 313.3,233.2 313.6,233.6 C313.8,233.8 313.9,234.2 314,234.7 L310.8,234.6 L310.8,234.6 Z M303.1,235.6 L303.1,234.3 L303.1,233.4 C303,233.1 302.9,232.9 302.8,232.7 C302.7,232.5 302.4,232.4 302.1,232.3 C301.8,232.2 301.4,232.1 300.9,232.1 C300.4,232.1 300,232.2 299.6,232.3 C299.2,232.4 298.9,232.6 298.7,232.9 C298.5,233.1 298.4,233.5 298.3,233.9 L299.2,234 C299.3,233.6 299.5,233.3 299.7,233.2 C299.9,233 300.3,233 300.7,233 C301.2,233 301.6,233.1 301.8,233.3 C302,233.5 302.1,233.7 302.1,234.1 L302.1,234.4 C301.7,234.5 301.2,234.6 300.4,234.7 C300,234.7 299.7,234.8 299.5,234.8 C299.2,234.9 299,235 298.8,235.1 C298.6,235.2 298.4,235.4 298.3,235.7 C298.2,235.9 298.1,236.2 298.1,236.5 C298.1,237 298.3,237.4 298.6,237.7 C298.9,238 299.4,238.2 300,238.2 C300.4,238.2 300.7,238.1 301.1,238 C301.4,237.9 301.8,237.7 302.1,237.4 C302.1,237.7 302.2,237.9 302.3,238.1 L303.3,238.1 C303.2,237.9 303.1,237.7 303.1,237.4 L303.1,235.6 L303.1,235.6 L303.1,235.6 Z M302.1,235.5 C302.1,235.9 302,236.2 301.9,236.5 C301.8,236.8 301.6,237 301.3,237.2 C301,237.4 300.7,237.4 300.3,237.4 C299.9,237.4 299.6,237.3 299.4,237.1 C299.2,236.9 299.1,236.7 299.1,236.5 C299.1,236.3 299.1,236.2 299.2,236 C299.3,235.9 299.4,235.8 299.6,235.7 C299.8,235.6 300,235.6 300.4,235.5 C301.1,235.4 301.6,235.3 302,235.1 L302.1,235.5 L302.1,235.5 Z M278.2,232.2 C277.4,232.2 276.8,232.5 276.3,233 C275.8,233.5 275.6,234.3 275.6,235.2 C275.6,236.1 275.8,236.8 276.3,237.4 C276.8,237.9 277.4,238.2 278.3,238.2 C279,238.2 279.5,238 279.9,237.7 C280.3,237.4 280.6,236.9 280.8,236.3 L279.8,236.2 C279.7,236.6 279.5,236.9 279.2,237.1 C279,237.3 278.6,237.4 278.3,237.4 C277.8,237.4 277.4,237.2 277.1,236.9 C276.8,236.6 276.6,236.1 276.6,235.5 L280.9,235.5 L280.9,235.2 C280.9,234.3 280.7,233.5 280.2,233 C279.6,232.4 279,232.2 278.2,232.2 L278.2,232.2 L278.2,232.2 Z M276.6,234.6 C276.6,234.1 276.8,233.7 277.1,233.4 C277.4,233.1 277.8,233 278.2,233 C278.7,233 279.1,233.2 279.4,233.6 C279.6,233.8 279.7,234.2 279.8,234.7 L276.6,234.6 L276.6,234.6 Z M283.5,232.4 C283.3,232.5 283.1,232.8 282.9,233.2 L282.9,232.3 L282,232.3 L282,238 L283,238 L283,235 C283,234.6 283.1,234.2 283.2,233.9 C283.3,233.7 283.4,233.5 283.6,233.4 C283.8,233.3 284,233.2 284.2,233.2 C284.4,233.2 284.7,233.3 284.9,233.4 L285.2,232.5 C284.9,232.3 284.5,232.2 284.2,232.2 C283.8,232.2 283.6,232.2 283.5,232.4 L283.5,232.4 L283.5,232.4 Z M296,238 L297,238 L297,230.1 L296,230.1 L296,238 L296,238 Z M294,230.6 C293.7,230.4 293.4,230.3 293,230.2 C292.7,230.1 292.3,230.1 291.8,230.1 L288.8,230.1 L288.8,238 L289.8,238 L289.8,234.8 L291.8,234.8 C292.9,234.8 293.7,234.6 294.1,234.1 C294.5,233.6 294.7,233.1 294.7,232.4 C294.7,232 294.6,231.7 294.5,231.3 C294.4,231 294.2,230.8 294,230.6 L294,230.6 L294,230.6 Z M293.3,233.5 C293,233.7 292.5,233.9 291.9,233.9 L289.9,233.9 L289.9,231.1 L291.9,231.1 C292.4,231.1 292.7,231.1 292.9,231.2 C293.2,231.3 293.4,231.4 293.6,231.7 C293.8,231.9 293.8,232.2 293.8,232.5 C293.8,232.9 293.6,233.3 293.3,233.5 L293.3,233.5 L293.3,233.5 Z M293.3,233.5" class="Shape"/>
        </g>
        <g class="background">
            <path d="M226.3,39 L259.2,20.3 C261,19.2 264.1,17.6 268.5,15.8 C275.8,12.7 283,10.6 290.3,9.4 C308,6.4 324.4,4.8 339.6,4.7 C345.5,4.7 353.2,4.9 362.6,5.4 L375.8,6.2 C379.4,6.5 381.4,7.3 381.7,8.7 L382.1,10.8 L392.8,10.7 C392.8,10.2 393,9.6 393.2,9 C393.7,7.7 394.4,6.6 395.5,5.7 C397.8,3.8 401.3,3.1 405.9,3.6 C414.4,4.7 422.6,6 430.7,7.4 L436.1,8.8 C439.8,10.2 442.5,12.1 444.3,14.4 C447.1,18.1 455.1,28.4 468.2,45.3 L457.1,51 L412.8,87.3 L380.6,119 L368.1,115.6 L346.8,111.7 L310.9,107.6 L283.8,106.7 L267.6,105.5 C268,106.6 268,107.8 267.8,109.1 C267.5,110.5 267,111.7 266.1,112.7 L343.7,117.9 L377,124.9 L376.1,126.7 L347.8,150.4 L237.5,220.7 L217.4,213.7 L145.5,212.3 L140.1,209.2 L123.1,208.7 L64,185.3 L75.9,175.5 L69.5,172.9 C69.1,172.8 68.7,172.6 68.5,172.4 C68,172 68.1,171.5 68.9,170.8 L69.8,170.2 C73.8,168 77.7,165.7 81.4,163.4 C88.6,158.9 95.1,154.3 101,149.4 C106.8,144.5 115.3,136.2 126.3,124.5 C131.9,118.6 137.2,112.8 142.2,107.2 L187,108.8 C186.3,107.5 186.1,106.2 186.4,104.7 C186.8,103.3 187.6,102 189,100.8 L189.1,100.7 L148.7,99.2 C159.2,86.7 167.3,78.1 173.1,73.2 C177.9,69.2 184.8,64.3 193.7,58.4 C198.2,55.4 202.5,52.7 206.5,50.2 L226.3,39" class="fill" fill="#CCCCCC"/>
            <path d="M381.7,108.2 L372.2,96.2 L376.6,68.8 L375.6,66.6 L376.8,59.1 L374.8,59 L376.2,50.4 L365,49.9 L366.5,40.7 L354.2,40.3 L352.8,49.1 L336.2,48.5 L319.9,51.5 L303.3,58.4 L288.3,58.2 L238.6,83.1 L233.8,82.9 L207.1,64.5 L194.8,70.8 L216.7,85.7 L224.2,82 L228.8,85.2 L228.3,88.2 L222.5,91.1 L219.8,108.5 L181.9,140.3 L174.5,137.4 L163.1,146.9 L159.1,146.9 L155,150.4 L156.4,152.6 L132.7,172.5 L130,189.1 L126.5,190.1 L124.7,201.1 L101.1,191.7 L105.8,187.7 L92.4,182.4 L82,190.4 L80.3,191.6 L69.5,187.5 L35.4,214.5 L32.3,213.2 L2.6,236.7 L2.6,236.8 L2.3,240 L55,267 L57.6,269.3 L52.4,273.2 L52.4,273.3 L52.1,276.6 L74.2,283.5 L79.6,287.8 L79.4,288.9 L89.7,296 L111.7,285.5 L143,269.3 L178.3,256.2 L195.2,247.1 L223.7,228.9 L237.7,220.8 L218.1,213.8 L214.3,213.4 L204.7,213.4 L204.8,209.7 L144.6,209.3 L144.6,209.4 L140.9,209.2 L143.7,187.7 L148.5,183.7 L149.6,177.1 L163,165.9 L165.2,166.7 L190.5,145.4 L197.9,144.7 L223.1,123.6 L224,117.9 L230.3,112.7 L232.3,100.2 L299.8,66.4 L308.9,65.8 L311.5,67.6 L365.1,69.6 L360.7,96.6 L371.2,109.9 L367.9,114 L380.5,117.4 L388.1,110.1 L381.7,108.2 Z M381.7,108.2" class="walkway"/>
            <path d="M220.4,53.4 L220.6,53 L220.9,52.6 L221.3,52.3 L236.1,44.8 C236.6,44.5 237.4,44.4 238.3,44.4 L238.9,44.4 L238.7,40.9 L238.1,40.8 C237.3,40.8 236.5,40.9 235.9,41.2 L235.7,41.3 L221,48.7 L220.6,49 L220.3,49.4 L220.1,50 L220.3,53.5 L220.3,53.4 L220.4,53.4 Z M239.5,44.7 L240.4,45.1 L240.6,45.2 C240.9,45.5 241.1,45.9 241.1,46.2 L240.9,42.7 C240.9,42.3 240.7,42 240.4,41.7 L239.9,41.4 L239.4,41.2 L238.7,41.1 L238.9,44.6 L239.5,44.7 L239.5,44.7 Z M246.2,42.6 L246.2,43.2 C246.2,43.6 246,43.9 245.8,44.3 L245,45.3 L244.6,45.7 L243.1,46.7 L228.3,54.1 C226.6,54.9 224.7,55.2 222.6,55.1 L220.9,54.9 L219.1,54.5 C218.6,54.3 218.2,54.1 217.7,53.9 L216.8,53.4 L216.4,53.1 C215.4,52.3 214.9,51.4 214.8,50.4 L215,53.9 C215.1,54.9 215.6,55.8 216.6,56.6 L217.8,57.4 L219.2,57.9 L221,58.3 L222.7,58.5 C224.9,58.6 226.8,58.2 228.4,57.5 L243.2,50.1 L244.7,49.1 L245.1,48.8 C245.5,48.4 245.7,48.1 245.9,47.8 C246.1,47.5 246.2,47.2 246.3,46.8 L246.4,46.1 L246.2,42.6 L246.2,42.6 Z M246.2,42.6" class="wall"/>
            <path d="M391.8,15.3 L392.1,14.9 L392.5,14.6 L393,14.3 C393.7,14 394.4,13.9 395.2,13.9 L414.3,14.6 L414.9,14.8 L415.4,15 L415.9,15.3 C416.3,15.7 416.4,16 416.4,16.3 L416.3,12.8 C416.2,12.4 416,12.1 415.7,11.8 L415.5,11.7 L414.6,11.3 C414.4,11.2 414.2,11.1 414,11.1 L395,10.5 C394.2,10.5 393.5,10.6 392.8,10.9 L392.3,11.2 L392.1,11.4 L391.9,11.6 L391.6,12 L391.4,12.6 L391.6,16.1 L391.8,15.3 L391.8,15.3 Z M421.7,12.8 L421.6,13.4 C421.6,13.8 421.4,14.1 421.2,14.5 L420.5,15.5 L419.5,16.3 L418.1,17.1 C416.4,17.8 414.5,18.2 412.4,18.1 L393.9,17.4 L392.2,17.2 L390.4,16.8 L389,16.2 L387.7,15.4 C386.8,14.6 386.2,13.7 386.2,12.7 L386.4,16.2 C386.5,17.2 387,18.1 387.9,18.9 L389.2,19.7 L390.6,20.3 L392.4,20.7 L394.1,20.9 L412.6,21.6 C414.7,21.7 416.6,21.3 418.3,20.6 C419,20.3 419.4,20.1 419.7,19.8 L420.7,19 C421.1,18.6 421.3,18.3 421.5,18 C421.7,17.7 421.8,17.4 421.9,17 L422,16.4 L421.7,12.8 L421.7,12.8 Z M421.7,12.8" class="wall"/>
            <path d="M83.7,175.9 L84,175.5 L84.2,175.4 L94.9,166.4 L95.7,166 C96.2,165.8 96.6,165.7 97.1,165.6 L98.6,165.7 L99.3,165.9 L99.8,166.1 L100.3,166.4 C100.6,166.7 100.8,167 100.9,167.4 L100.7,163.9 C100.6,163.5 100.4,163.1 100.1,162.9 L99.6,162.6 L99.1,162.4 L98.5,162.2 L97,162.2 C96.5,162.3 96,162.4 95.6,162.5 L94.8,162.9 L84.1,171.9 L83.9,172 L83.6,172.4 C83.5,172.6 83.4,172.8 83.4,173.1 L83.6,176.6 C83.5,176.3 83.6,176.1 83.7,175.9 L83.7,175.9 Z M105.8,163.8 C105.8,164.2 105.7,164.7 105.4,165.3 C105.1,165.7 104.9,166.1 104.6,166.3 L104.2,166.7 L93.5,175.7 L92.9,176.1 L91.5,176.9 C90.5,177.3 89.3,177.6 88,177.8 C86.5,177.9 85.2,177.9 84.1,177.7 L82.3,177.3 L82.5,180.8 C83,181 83.6,181.1 84.3,181.2 C85.5,181.4 86.8,181.4 88.1,181.2 C89.6,181 90.8,180.7 91.7,180.3 L93.1,179.6 L104.9,169.7 L105.6,168.7 C105.9,168.1 106,167.5 106,167 L105.8,163.8 L105.8,163.8 Z M80.9,176.7 L79.7,175.9 C78.7,175.1 78.2,174.2 78.1,173.2 L78.3,176.7 C78.4,177.7 78.9,178.6 79.8,179.4 L81.1,180.2 L82.5,180.7 L82.3,177.2 L80.9,176.7 L80.9,176.7 Z M80.9,176.7" class="wall"/>
            <path d="M359.8,57.9 L349.4,57.5 L349.3,60.8 L360.1,61.2 L360.7,56.9 L360.7,52.6 L359.8,57.9 L359.8,57.9 Z M283.8,56.9 L283.6,53.4 L250.4,30.6 L250.6,34.1 L283.8,56.9 L283.8,56.9 Z M365,71.4 L364.8,67.9 L360.5,94.9 L360.7,98.4 L365,71.4 L365,71.4 Z M364.9,51.7 L376.1,52.1 L375.9,48.6 L364.7,48.1 L364.9,51.7 L364.9,51.7 Z M292,128.6 L270.4,127.1 L270.2,123.5 L265.1,155.6 L265.3,159.1 L269.9,130.5 L292.2,132.1 L292,128.6 L292,128.6 Z M233.7,84.6 L238.5,84.8 L288.3,59.9 L288.3,59.7 L303.3,60 L319.8,53.1 L336.1,50.1 L352.7,50.7 L354.2,41.8 L366.4,42.3 L371.4,10.9 L371.3,7.4 L366.2,38.7 L353.9,38.3 L352.4,47.1 L335.9,46.5 L319.6,49.5 L303,56.5 L288,56.3 L288,56.4 L238.3,81.3 L233.5,81.1 L206.9,62.7 L207,66.2 L233.7,84.6 L233.7,84.6 Z M439.6,43.9 L440.3,39.6 L440.1,36.1 L439.4,40.5 L439.6,43.9 L439.6,43.9 Z M439.9,18.6 L439.7,15.1 L436.4,35.9 L436.6,39.4 L439.9,18.6 L439.9,18.6 Z M388.6,67 L419,68.1 L420.5,58.6 L430.7,59 L445.7,46.4 L445.5,42.9 L430.4,55.5 L420.2,55.1 L418.7,64.7 L388.3,63.5 L385.6,80.1 L385.8,83.6 L388.6,67 L388.6,67 Z M283.1,165.9 L284.1,159.8 L283.9,156.3 L282.9,162.4 L283.1,165.9 L283.1,165.9 Z M374.8,60.7 L376.7,60.8 L376.6,57.3 L374.7,57.2 L374.8,60.7 L374.8,60.7 Z M375.5,68.4 L376.5,70.4 L376.3,66.9 L375.3,64.9 L375.5,68.4 L375.5,68.4 Z M385.2,16.2 L385.1,12.7 L384.2,18.2 L384.4,21.7 L385.2,16.2 L385.2,16.2 Z M390.6,90.9 L391.7,83.8 L391.5,80.3 L390.4,87.4 L390.6,90.9 L390.6,90.9 Z M181,81.2 L180.8,77.7 L178,75.7 L178.2,79.2 L181,81.2 L181,81.2 Z M105.6,189.4 L105.5,185.9 L92.1,180.6 L92.2,184.1 L105.6,189.4 L105.6,189.4 Z M131.5,205 L124,204.8 L124,207.7 L132.1,207.8 L132.5,204.3 L132.1,201.1 L131.5,205 L131.5,205 Z M68.5,173.2 L68.8,173.4 L75.4,176 L76,175.5 L69.1,172.7 C69,172.7 68.8,172.6 68.7,172.5 L68.4,172.3 L68.1,171.8 L68.2,172.6 C68.2,172.8 68.3,173 68.5,173.2 L68.5,173.2 Z M80.3,191.6 L64,185.3 L64,186.3 L80.2,192.8 L80.3,191.6 L80.3,191.6 Z M138.6,165.5 L132.4,170.8 L129.7,187.4 L126.2,188.4 L124.4,199.4 L100.8,190 L101,193.5 L124.6,202.9 L126.4,191.9 L130,190.9 L132.7,174.3 L138.9,169.1 L138.6,165.5 L138.6,165.5 Z M467.8,45.4 L456.7,51.1 L412.5,87.4 L404.5,95.3 L404.3,91.9 L387.6,108.3 L381.4,106.5 L371.8,94.5 L372,98 L381.6,110 L386.6,111.5 L380.3,117.6 L368.9,114.5 L371.1,111.6 L371,108 L367.8,112.2 L346.5,108.2 L346.7,111.7 L347.5,111.9 L310.8,107.6 L283.7,106.7 L267.8,105.5 L267.7,104.4 L268.9,96.8 L284.2,97.3 L284.3,99.4 L296.2,99.8 L296.1,96.4 L296.3,99.9 L307.4,94.3 L349.2,95.9 L349,92.4 L307.1,91 L296.1,96.5 L284.6,96.1 L284.5,94 L268.8,93.4 L267.4,102.1 L267.6,105.6 L267.5,105.6 L267.5,106.2 C267.4,106.9 267.2,107.4 266.8,108 L265.9,109.3 L266.1,112.8 L267,111.6 C267.7,110.4 268,109 267.9,107.5 L267.9,106.6 L283.7,107.8 L310.8,108.7 L346.7,112.8 L367.9,116.7 L380.5,120.1 L412.7,88.4 L456.8,52 L467.9,46.3 L467.8,45.4 L467.8,45.4 Z M376.7,121.5 L375.8,123.3 L355.8,140.1 L290.3,135.6 L290.5,139.1 L355.9,143.6 L347.7,150.5 L313.8,171.7 L313.6,168.4 L296.6,179 L204,175.6 L204.2,179.1 L296.6,182.5 L286.5,188.8 L286.3,185.4 L260.8,201.4 L238.9,192.7 L217.9,210.3 L214.1,209 L162.7,208.9 L162.9,212.4 L150.7,212.3 L153.3,197.6 L153.1,194.1 L150.5,208.9 L145.3,208.9 L140.6,206.2 L143,192.6 L143,193 L165.7,193.8 L165.5,190.3 L143.5,189.5 L143.4,187.7 L143.1,189.5 L142.8,189.5 L142.8,190.9 L139.9,205.8 L140.1,210.3 L145.3,213.2 L214.1,213.2 L217.9,213.6 L238.9,196 L261.6,204.9 L347.4,151.2 L375.7,127.5 L376.6,125.7 L376.5,125 L376.6,124.8 L376.7,121.5 L376.7,121.5 Z M176.5,86 L176.4,82.5 L174.1,81 L174.3,84.5 L176.5,86 L176.5,86 Z M171.2,96.8 C171.7,97.2 172.3,97.5 172.9,97.9 L173.9,98.4 L174.9,98.7 L177.3,99.3 C180.6,99.8 183.7,99.5 186.8,98.4 L189.2,100.1 L192.9,98.2 L197.4,101.3 L197.2,97.8 L195.7,96.8 L207.8,90.7 L207.6,87.2 L189,96.6 L187.7,95.7 L187.6,94.6 L186.6,95 C183.6,96 180.5,96.3 177.2,95.8 C176.4,95.7 175.6,95.5 174.8,95.2 C174.4,95.1 174.1,95 173.9,94.9 L172.9,94.5 C172.3,94.2 171.7,93.9 171.1,93.4 C169.8,92.3 169.1,91 169,89.6 L169,93 C169.1,94.5 169.8,95.7 171.2,96.8 L171.2,96.8 Z M123.7,157.7 L123.6,154.2 L110.6,149.1 L110.8,152.6 L123.7,157.7 L123.7,157.7 Z M188.8,101.6 L188.7,100.7 L148.3,99.2 L148.3,100.1 L188.8,101.6 L188.8,101.6 Z M216.6,87.6 L216.5,85.8 L194.6,70.8 L194.7,72.5 L216.6,87.6 L216.6,87.6 Z M156.3,154.3 L156.1,151 L159,148.6 L163.1,148.6 L170.5,142.3 L170.5,142.2 L174.3,139 L181.7,141.9 L219.6,110 L220.9,102 L222.4,92.6 L228.1,89.7 L228.6,86.7 L228.4,83.2 L227.9,86.2 L222.1,89.1 L220.6,98.5 L219.3,106.6 L181.4,138.4 L174,135.5 L170.2,138.8 L170.2,138.9 L162.8,145.1 L158.7,145.1 L154.5,148.6 L154.7,151.8 L138.5,165.4 L138.7,168.9 L156.3,154.3 L156.3,154.3 Z M214.1,115.3 L214.2,118.7 L217.9,121.1 L222.6,117.3 L222.5,113.9 L218.6,111.6 L214.1,115.3 L214.1,115.3 Z M214.1,115.3" class="wall"/>
            <path d="M204.7,212.6 L204.4,212.8 L205.6,209.1 L139.6,208.9 L132.8,247.4 L132.3,250.6 L152,260.9 L156.9,257.3 L159.7,260.5 L174.6,252.8 L178.3,256.1 L195.1,247 L223.6,228.8 L224,225.5 L204.7,212.6 L204.7,212.6 Z M165,243.5 L164.5,243.2 L195,220.1 L165,243.5 L165,243.5 Z M125.3,211.5 L125.7,208.2 L82.5,190.1 L80.3,191.7 L69.7,187.4 L35.4,214.6 L32.3,213.3 L2.7,236.7 L2.3,240 L55,267 L125.3,211.5 L125.3,211.5 Z M101,234.9 C101,234.8 101,234.8 101,234.9 L100.6,238.1 C100.5,238.8 100.9,239.4 101.7,239.8 L116.8,247.7 C118.7,248.7 122,247.8 122.8,246 L134.3,219.9 C134.4,219.7 134.4,219.5 134.4,219.4 L134.8,216.1 C134.8,216.1 134.8,216.1 134.8,216.2 C134.9,215.5 134.5,214.9 133.8,214.5 L133.2,214.2 L131.3,213.6 C129.9,213.2 128,213.5 126.8,214.4 L102,233.2 C101.3,233.7 101,234.3 101,234.9 L101,234.9 Z M126.2,254.7 L118.9,254 L94.1,241.4 L52.4,273.3 L52,276.6 L74.1,283.5 L87.4,273.7 L92,276 L79.7,285.7 L79.3,289 L89.6,296 L111.5,285.5 L142.8,269.3 L143.2,266 L125.7,257.5 L126.2,254.7 L126.2,254.7 Z M126.2,254.7" class="wall"/>
        </g>
        <g class="ceilings">
            <path class="unit" d="M288.2,51.2 L292.2,49.2 L303.1,56.7 L296,56.6 L288.2,51.2 L288.2,51.2 Z M288.2,51.2" id="2001"/>
            <path class="unit" d="M283.8,53.4 L288.3,51.2 L296,56.6 L288.1,56.4 L283.8,53.4 L283.8,53.4 Z M283.8,53.4" id="2002"/>
            <path class="unit" d="M350.6,52.3 L349.4,57.6 L359.7,58 L360.6,52.7 L350.6,52.3 L350.6,52.3 Z M350.6,52.3" id="2003"/>
            <path class="unit" d="M366.3,39 L353.7,38.5" id="2004"/>
            <path class="unit" d="M342.9,46.8 L344.8,38.1 L353.6,38.4 L352,47.2 L342.9,46.8 L342.9,46.8 Z M342.9,46.8" id="2005"/>
            <path class="unit" d="M288.1,56.4 L280.4,60.2 L264.8,49.5 L272.4,45.7 L288.1,56.4 L288.1,56.4 Z M288.1,56.4" id="2006"/>
            <path class="unit" d="M272.8,64.1 L257.2,53.4 L264.9,49.6 L280.5,60.3 L272.8,64.1 L272.8,64.1 Z M272.8,64.1" id="2007"/>
            <path class="unit" d="M439.5,40.3 L439.4,40.5 L445.5,42.9 L430.4,55.5 L420.3,55.1 M439.5,40.3 L420.4,55.1" id="2008"/>
            <path class="unit" d="M227.1,58.4 C229.4,57.2 231.8,56.1 234.1,54.9 M258.1,71.5 L251.1,75" id="2009"/>
            <path class="unit" d="M375.4,64.9 L376.6,57.3 L419.8,58.9 L418.9,64.6 L388.5,63.4 L387.2,71.3 L375.8,70.9 L376.4,66.9 L375.4,64.9 L375.4,64.9 Z M375.4,64.9" id="2010"/>
            <path class="unit" d="M215.3,58.6 L244.2,78.5 L238.4,81.4 L233.6,81.2 L207,62.8 L215.3,58.6 L215.3,58.6 Z M215.3,58.6" id="2011"/>
            <path class="unit" d="M375.7,70.9 L387.1,71.3 L386.3,76.2 L374.8,75.8 L375.7,70.9 L375.7,70.9 Z M375.7,70.9" id="2012"/>
            <path class="unit" d="M338.4,66.9 L350.7,67.3 L348.4,81.6 L336.1,81.1 L338.4,66.9 L338.4,66.9 Z M338.4,66.9" id="2013"/>
            <path class="unit" d="M374.9,75.8 L386.4,76.2 L385.8,80.1 L374.4,79.7 L374.9,75.8 L374.9,75.8 Z M374.9,75.8" id="2014"/>
            <path class="unit" d="M362.3,84.3 L348.1,83.8 L350.8,67.4 L364.9,67.9 L362.3,84.3 L362.3,84.3 Z M362.3,84.3" id="2015"/>
            <path class="unit" d="M307.8,87.4 L285.2,71.9 L292.4,68.3 L309,79.7 L307.8,87.4 L307.8,87.4 Z M307.8,87.4" id="2016"/>
            <path class="unit" d="M374.3,79.7 L391.6,80.3 L390.8,85.2 L373.5,84.6 L374.3,79.7 L374.3,79.7 Z M374.3,79.7" id="2017"/>
            <path class="unit" d="M180.3,96 C177.9,96 175.8,95.6 173.9,94.8 C171.2,93.8 169.6,92.3 169.1,90.4 C168.6,88.5 169.3,86.8 171.3,85.1 C172.6,83.9 174.4,83.1 176.6,82.5 C180.6,81.5 184.5,81.7 188,83 C190.7,84 192.3,85.5 192.8,87.4 C193.3,89.3 192.6,91 190.7,92.7 C189.7,93.6 188.4,94.3 186.8,94.9 C184.7,95.7 182.6,96 180.3,96 L180.3,96 L180.3,96 Z M180.3,96" id="2018"/>
            <path class="unit" d="M361.4,89.2 L339.6,88.4 L340.4,83.5 L362.2,84.3 L361.4,89.2 L361.4,89.2 Z M361.4,89.2" id="2019"/>
            <path class="unit" d="M278,75.5 L285.2,71.9 L307.8,87.4 L307.2,91 L303.4,93 L278,75.5 L278,75.5 Z M278,75.5" id="2020"/>
            <path class="unit" d="M268.6,94.7 L256.4,86.3 L263.6,82.7 L279.7,93.8 L268.8,93.4 L268.6,94.7 L268.6,94.7 Z M268.6,94.7" id="2021"/>
            <path class="unit" d="M320.4,66.2 L338.4,66.9 L334.4,92 L316.4,91.3 L320.4,66.2 L320.4,66.2 Z M320.4,66.2" id="2022"/>
            <path class="unit" d="M336.2,81.2 L348.5,81.7 L348.1,83.8 L340.5,83.5 L339.1,92.2 L334.4,92 L336.2,81.2 L336.2,81.2 Z M336.2,81.2" id="2023"/>
            <path class="unit" d="M390,90.1 L372.8,89.3" id="2024"/>
            <path class="unit" d="M372.8,89.3 L372.7,89.4 L372.8,89.3 L372.8,89.3 Z M372.8,89.3" id="2025"/>
            <path class="unit" d="M372.8,89.3 L373.5,84.5 L390.8,85.1 L390,90" id="2026"/>
            <path class="unit" d="M192.8,94.7 L207.7,87.2 L210.1,88.9 L222.3,89.3 L220.8,98.7 L197.2,97.8 L192.8,94.7 L192.8,94.7 Z M192.8,94.7" id="2027"/>
            <path class="unit" d="M279.7,93.8 L263.6,82.7 L270.8,79.1 L296.1,96.5 L284.1,96 L284.4,93.9 L279.7,93.8 L279.7,93.8 Z M279.7,93.8" id="2028"/>
            <path class="unit" d="M270.8,79.1 L278,75.5 L303.4,93 L296.2,96.6 L270.8,79.1 L270.8,79.1 Z M270.8,79.1" id="2029"/>
            <path class="unit" d="M210.9,101.1 L220.5,101.4 L219.6,106.7 L210,106.3 L210.9,101.1 L210.9,101.1 Z M210.9,101.1" id="2030"/>
            <path class="unit" d="M210,106.4 L219.6,106.8 L213.4,111.9 L209.4,110.3 L210,106.4 L210,106.4 Z M210,106.4" id="2031"/>
            <path class="unit" d="M199.2,106 L210,106.4 L209.4,110.4 L213.4,112 L210.2,114.7 L198.6,110.1 L199.2,106 L199.2,106 Z M199.2,106" id="2032"/>
            <path class="unit" d="M371,108.1 L368.3,104.8" id="2033"/>
            <path class="unit" d="M368.4,104.8 L368,104.3 L347.2,103.5 L349,92.5 L339,92.2 L339.7,88.4 L361.5,89.2 L360.6,94.9 L368.4,104.8 L368.4,104.8 Z M368.4,104.8" id="2034"/>
            <path class="unit" d="M270.4,123.5 L223,121.7 L223.9,116.1 L271.4,117.9 L270.4,123.5 L270.4,123.5 Z M270.4,123.5" id="2035"/>
            <path class="unit" d="M162.5,108.7 L199.7,123.5 L194.4,127.9 L168.8,117.8 L168.1,117.5 L154.8,112.1 L157,110.3 L162.5,108.7 L162.5,108.7 Z M162.5,108.7" id="2036"/>
            <path class="unit" d="M161.2,114.6 L194.4,127.8 L189.6,131.8 L156.4,118.6 L161.2,114.6 L161.2,114.6 Z M161.2,114.6" id="2037"/>
            <path class="unit" d="M343.3,114.5 L376.7,121.5 L375.8,123.3 L368.9,129.1 L339.6,126.4 L343.3,114.5 L343.3,114.5 Z M343.3,114.5" id="2038"/>
            <path class="unit" d="M161.2,114.6 L156.4,118.6 L164.1,121.7 L156.1,128.4 L174.2,135.6 L170.4,138.8 L143.9,128.3 L137.3,133.8 L131.6,131.5 L154.9,112 L161.2,114.6 L161.2,114.6 Z M161.2,114.6" id="2039"/>
            <path class="unit" d="M161.2,114.6 L168.9,117.6" id="2040"/>
            <path class="unit" d="M164.1,121.7 L189.7,131.8 L181.7,138.5 L156.2,128.4 L164.1,121.7 L164.1,121.7 Z M164.1,121.7" id="2041"/>
            <path class="unit" d="M267.9,139.3 L204.9,136.9 L211.4,131.5 L268.8,133.7 L267.9,139.3 L267.9,139.3 Z M267.9,139.3" id="2042"/>
            <path class="unit" d="M339.6,126.5 L368.9,129.2 L355.8,140.2 L290.3,135.7 L292,128.7 L269.7,127.2 L271.2,118 L223.7,116.2 L230,110.9 L230.7,106.8 L343.2,114.5 L339.6,126.5 L339.6,126.5 Z M339.6,126.5" id="2043"/>
            <path class="unit" d="M204.9,136.9 L267.9,139.3 L266.9,145.5 L197.8,142.9 L204.9,136.9 L204.9,136.9 Z M204.9,136.9" id="2044"/>
            <path class="unit" d="M191.6,159.8 L177.6,154.3 L182.1,150.5 L196.4,156.2 L198.5,155.8 L197.8,160 L191.6,159.8 L191.6,159.8 Z M191.6,159.8" id="2045"/>
            <path class="unit" d="M123.7,154.1 L126.4,155.2 L126.3,155.3 L114.1,165.6 L111.4,164.5 L123.6,154.2 L123.7,154.1 L123.7,154.1 Z M123.7,154.1" id="2046"/>
            <path class="unit" d="M138.7,165.5 L122,158.9 L126.3,155.3 L126.4,155.2 L143,161.8 L142.9,161.9 L138.7,165.5 L138.7,165.5 Z M138.7,165.5" id="2047"/>
            <path class="unit" d="M177.7,154.4 L191.7,159.9 L198,160.2 L197.1,165.6 L190.9,165.3 L173.2,158.3 L177.7,154.4 L177.7,154.4 Z M177.7,154.4" id="2048"/>
            <path class="unit" d="M131.5,177 L132.5,170.7 L115.8,164.1 L114.1,165.6 L111.4,164.5 L107.7,167.6 L102.3,172.1 L96.9,176.6 L92.2,180.6 L125.4,193.8 L126.3,188.3 L129.8,187.3 L130.4,183.2 L131.5,177 L131.5,177 Z M131.5,177" id="2050"/>
            <path class="unit" d="M157.6,182.5 L157,186.5 L143.6,186 L148.3,182 L157.6,182.5 L157.6,182.5 Z M157.6,182.5" id="2051"/>
            <path class="unit" d="M143.6,185.9 L157,186.4 L156.5,190 L143.1,189.5 L143.6,185.9 L143.6,185.9 Z M143.6,185.9" id="2052"/>
            <path class="unit" d="M124.6,201 L132.1,201.2 L131.5,205 L124,204.8 L124.6,201 L124.6,201 Z M124.6,201" id="2054"/>
            <path class="unit" d="M195.5,175.3 L267.4,178" id="2055"/>
            <path class="unit" d="M179.1,170.6 L179.3,170.7 L187.5,163.9 L190.9,165.2 L197.1,165.5 L195.5,175.3" id="2056"/>
            <path class="unit" d="M152.6,197.8 L152.1,201.3 L141,200.9 L141.6,197.4 L152.6,197.8 L152.6,197.8 Z M152.6,197.8" id="2057"/>
            <path class="unit" d="M248.8,47.6 L272.8,64.1 L265.1,67.9 L241.1,51.4 L248.8,47.6 L248.8,47.6 Z M248.8,47.6" id="2058"/>
            <path class="unit" d="M299.6,64.7 L308.7,64.1 L311.2,65.9 L310.2,72.1 L299.6,64.7 L299.6,64.7 Z M299.6,64.7" id="2059"/>
            <path class="unit" d="M309,79.7 L292.4,68.3 L299.6,64.7 L310.3,72.1 L309,79.7 L309,79.7 Z M309,79.7" id="2060"/>
            <path class="unit" d="M193.7,77.5 L201.4,73.6 L216.5,84 L224,80.3 L228.7,83.5 L228.2,86.5 L222.5,89.4 L210.3,89 L193.7,77.5 L193.7,77.5 Z M193.7,77.5" id="2061"/>
            <path class="unit" d="M188,83.1 C184.4,81.7 180.6,81.5 176.6,82.6 L174.3,81.1 L181,77.7 L178.2,75.8 L185.7,72.1 L207.8,87.3 L189.1,96.7 L186.7,95.1 C188.3,94.6 189.6,93.8 190.6,92.9 C192.5,91.3 193.2,89.5 192.7,87.6 C192.2,85.6 190.6,84.1 188,83.1 L188,83.1 L188,83.1 Z M188,83.1" id="2062"/>
            <path class="unit" d="M316.3,91.3 L307.1,91 L311.2,65.9 L320.4,66.2 L316.3,91.3 L316.3,91.3 Z M316.3,91.3" id="2063"/>
            <path class="unit" d="M242.1,93.5 L249.2,89.9 L264.3,100.2 L251.3,99.7 L242.1,93.5 L242.1,93.5 Z M242.1,93.5" id="2064"/>
            <path class="unit" d="M267.7,100.4 L264.3,100.3 L249.2,90 L256.4,86.4 L268.6,94.8 L267.7,100.4 L267.7,100.4 Z M267.7,100.4" id="2065"/>
            <path class="unit" d="M267.4,102.1 L231.8,100.8 L232.1,98.5 L242.1,93.5 L251.2,99.8 L267.7,100.4 L267.4,102.1 L267.4,102.1 Z M267.4,102.1" id="2066"/>
            <path class="unit" d="M219.6,106.8 L210,106.4" id="2067"/>
            <path class="unit" d="M210,106.4 L186.7,105.5 C186,104.2 185.8,102.8 186.2,101.4 C186.6,100 187.4,98.6 188.9,97.4 L221,98.6 L220.6,101.4 L211,101.1 L210,106.4 L210,106.4 Z M210,106.4" id="2068"/>
            <path class="unit" d="M372.8,89.3 L390.1,90.1 L390.5,87.4 L404.4,91.9 L387.7,108.3 L381.5,106.5 L371.9,94.5 L372.8,89.5 L372.8,89.3 L372.8,89.3 Z M372.8,89.3" id="2069"/>
            <path class="unit" d="M198.5,110 L210.1,114.6 L204.8,119 L172,106 L175.1,105.1 L199.1,106 L198.5,110 L198.5,110 Z M198.5,110" id="2070"/>
            <path class="unit" d="M371,108.1 L367.8,112.3 L346.5,108.3 L347.2,103.5 L368,104.3 L371,108.1 L371,108.1 Z M371,108.1" id="2071"/>
            <path class="unit" d="M172,106 L204.9,119.1 L199.7,123.5 L162.5,108.7 L172,106 L172,106 Z M172,106" id="2072"/>
            <path class="unit" d="M268.8,133.7 L211.4,131.5 L223,121.8 L270.4,123.6 L268.8,133.7 L268.8,133.7 Z M268.8,133.7" id="2073"/>
            <path class="unit" d="M143,161.9 L110.7,149.1 L131.5,131.7 L137.2,134 L143.8,128.5 L170.4,139.1 L162.9,145.3 L158.8,145.3 L154.6,148.8 L156.1,151 L143,161.9 L143,161.9 Z M143,161.9" id="2074"/>
            <path class="unit" d="M173.1,158.1 L187.4,163.8 L183.3,167.2 L169,161.5 L173.1,158.1 L173.1,158.1 Z M173.1,158.1" id="2075"/>
            <path class="unit" d="M122.1,158.9 L138.8,165.5 L132.6,170.7 L115.9,164.1 L122.1,158.9 L122.1,158.9 Z M122.1,158.9" id="2076"/>
            <path class="unit" d="M169.1,161.6 L183.4,167.3 L179.3,170.7 L165,165 L169.1,161.6 L169.1,161.6 Z M169.1,161.6" id="2077"/>
            <path class="unit" d="M300.4,163.1 L313.6,168.5 L296.7,179 L195.5,175.3 L198.6,155.9 L196.4,156.2 L182.2,150.6 L190.4,143.7 L197.7,142.9 L266.8,145.5 L265.2,155.6 L284,156.3 L283,162.4 L300.4,163.1 L300.4,163.1 Z M300.4,163.1" id="2078"/>
            <path class="unit" d="M141.6,197.4 L142.1,193.8 L153.2,194.2 L152.7,197.8 L141.6,197.4 L141.6,197.4 Z M141.6,197.4" id="2080"/>
            <path class="unit" d="M105.7,185.9 L125.5,193.8 L124.6,199.3 L101,189.9 L105.7,185.9 L105.7,185.9 Z M105.7,185.9" id="2081"/>
            <path class="unit" d="M141,200.9 L152.1,201.3 L150.7,209 L139.7,208.9 L141,200.9 L141,200.9 Z M141,200.9" id="2082"/>
            <path class="unit" d="M216.9,53.2 C215.7,52.4 215,51.4 215,50.3 C215,49.2 215.5,48.2 216.6,47.2 L218.1,46.2 L232.4,39 C234.2,38.1 236.3,37.7 238.6,37.8 C240.9,37.9 242.8,38.4 244.3,39.5 C245.8,40.5 246.4,41.7 246.2,43.1 C246.1,43.9 245.6,44.7 244.7,45.5 L243.2,46.5 L228.9,53.7 C227.1,54.6 225,55 222.7,54.9 C220.4,54.9 218.5,54.3 216.9,53.2 M220.8,48.9 C220.5,49.2 220.3,49.5 220.3,49.8 C220.2,50.3 220.4,50.8 221,51.2 C221.6,51.6 222.3,51.8 223.2,51.8 C224.1,51.9 224.8,51.7 225.5,51.4 L239.8,44.3 L240.3,43.9 C240.7,43.5 240.9,43.2 240.9,42.8 C240.9,42.4 240.7,42 240.2,41.7 C239.7,41.3 238.9,41.1 238,41.1 C237.1,41.1 236.3,41.3 235.7,41.6 L221.4,48.7 L220.8,48.9" id="2083"/>
            <path class="unit" d="M416.4,13.1 C416.5,12.6 416.3,12.1 415.7,11.8 C415.1,11.4 414.4,11.2 413.5,11.2 L395,10.5 C393.8,10.4 392.8,10.7 392.1,11.3 C391.8,11.6 391.6,11.9 391.6,12.2 C391.5,12.7 391.7,13.2 392.3,13.6 C392.8,14 393.6,14.2 394.5,14.2 L413,14.9 C413.9,15 414.6,14.8 415.3,14.5 L415.9,14.1 C416.1,13.8 416.3,13.5 416.4,13.1 M421.6,13.4 C421.5,14.3 421,15.1 420.1,15.8 C419.3,16.5 418.2,17.1 416.8,17.5 C415.4,17.9 413.9,18.1 412.4,18 L393.9,17.3 C391.5,17.2 389.6,16.7 388.2,15.6 C386.7,14.6 386.1,13.4 386.3,12 C386.4,11.1 386.9,10.3 387.8,9.6 C388.2,9.2 388.7,8.9 389.3,8.6 C391.1,7.7 393.1,7.2 395.5,7.3 L414,8.1 C416.3,8.2 418.2,8.7 419.8,9.8 C421.2,10.8 421.8,12 421.6,13.4" id="2084"/>
            <path class="unit" d="M100.5,163.6 C100.4,163.1 99.9,162.7 99.2,162.4 C98.4,162.1 97.6,162 96.8,162.1 C96,162.1 95.3,162.4 94.7,162.9 L84,171.9 C83.5,172.3 83.4,172.7 83.5,173.3 C83.7,173.8 84.1,174.2 84.8,174.5 C85.6,174.8 86.4,174.9 87.2,174.8 C88.1,174.7 88.8,174.4 89.3,174 L100,165 C100.5,164.5 100.6,164.1 100.5,163.6 M104.2,166.6 L93.5,175.6 C92.2,176.7 90.3,177.4 88,177.7 C85.6,177.9 83.5,177.7 81.7,176.9 C79.8,176.1 78.6,175.1 78.2,173.8 C77.8,172.5 78.3,171.2 79.7,170.1 L90.4,161.1 C91.8,160 93.6,159.3 95.9,159 C98.1,158.7 100.2,158.9 102.2,159.7 C104.1,160.5 105.3,161.6 105.7,162.9 C106.1,164.3 105.6,165.6 104.2,166.6" id="2085"/>
            <path class="unit" d="M415.1,25.6 L406.4,25.1 L405.3,30.7 L414.2,31.3 L415.1,25.6 L415.1,25.6 Z M415.1,25.6" id="2086"/>
            <path class="unit" d="M415.1,25.6 L406.4,25.1 L407.6,19.1 L416,19.5 L415.1,25.6" id="2087"/>
            <path class="unit" d="M405.3,30.7 L407.7,19.1 L384.2,18.2 L369.7,17.6 L364.8,48.2 L376,48.7 L405.1,36.5 L413.3,36.8 L414.2,31.4 L405.3,30.7 L405.3,30.7 Z M405.3,30.7" id="2088"/>
            <path class="unit" d="M384.2,18.2 L385.1,12.8 L370.6,12.2 L369.7,17.6 L384.2,18.2" id="2089"/>
            <path class="unit" d="M353.7,38.5 L344.9,38.2 L343,46.9 L336.1,46.8 L319.7,49.8 L303.2,56.7 L292.3,49.2 L283.9,53.4 L250.8,30.7 L293.3,9.6 L295.8,10.4 L317,6.6 L318.5,5 L371.3,7.6 L366.3,39 L353.7,38.5 L353.7,38.5 Z M353.7,38.5" id="2090"/>
            <path class="unit" d="M440.2,36.1 L436.5,36 L439.8,15.2 L422.1,14.5 L421.4,19.8 L416.1,19.5 L413.3,36.8 L405.1,36.5 L376,48.7 L374.6,57.3 L419.7,59 L420.3,55.2 L420.4,55.2 L439.5,40.4 L440.2,36.1 L440.2,36.1 Z M440.2,36.1" id="2091"/>
            <path class="unit" d="M231.3,103.8 L230.8,106.7 L243.1,107.6 L243.3,104.4 L231.3,103.8 L231.3,103.8 Z M231.3,103.8" id="2092"/>
            <path class="unit" d="M231.3,103.8 L231.8,100.8 L267.4,102.1 C267.8,103.2 267.8,104.4 267.6,105.7 C267.3,107.1 266.8,108.3 265.9,109.2 L243.1,107.6 L243.3,104.4 L231.3,103.8" id="2093"/>
            <path class="unit" d="M157.6,182.5 L148.2,182 L149,177.5 M157.6,182.5 L158.3,178 L149,177.5" id="2094"/>
            <path class="unit" d="M154.3,171.4 L162.9,164.2 L179.1,170.6 M154.3,171.4 L169.9,178.4 L179.1,170.7" id="2095"/>
            <path class="unit" d="M179.1,170.6 L179.3,170.7 L187.5,163.9 L190.9,165.2 L197.1,165.5 L195.5,175.3 L267.4,178 L240.8,193.5 L239.1,192.8 L218.1,210.4 L214.3,209.1 L162.9,209 L165.7,190.4 L165.7,190.3 L156.4,190 L157.6,182.4 L158.3,177.9 L149,177.4 L149.3,175.3 L154.2,171.2 L169.8,178.2 L179.1,170.6" id="2096"/>
            <path class="unit" d="M267.4,178 L267.4,178 L286.4,185.5 L260.9,201.5 L240.8,193.5 M267.4,178 L240.8,193.5" id="2097"/>
            <path class="unit" d="M241.1,51.4 L220.1,61.9 L244.1,78.5 L265.1,68 L241.1,51.4 L241.1,51.4 Z M241.1,51.4" id="2098"/>
            <path class="unit" d="M218.7,111.6 L214.2,115.3 L217.9,117.7 L222.6,113.9 L218.7,111.6 L218.7,111.6 Z M218.7,111.6" id="2099"/>
            <path class="unit" d="M205.7,209.1 L184.8,224.9 L178.3,221.3 L177.9,221.2 L138,218.1 L139.6,208.9 L205.7,209.1 Z M205.7,209.1" id="2100"/>
            <path class="unit" d="M184.6,225 L174.8,232.4 L136,229.3 L138,218.4 L178.2,221.4 L184.6,225 Z M184.6,225" id="2101"/>
            <path class="unit" d="M174.6,232.6 L162.1,242 L162.3,242.1 L134.2,239.8 L136,229.6 L174.6,232.6 Z M174.6,232.6" id="2102"/>
            <path class="unit" d="M169.2,240.3 L183.3,250.4 L178.7,253 L174.9,249.6 L160.1,257.3 L157.3,254.1 L152.4,257.7 L132.8,247.4 L134.2,240 L162.5,242.3 L164.9,243.6 L169.2,240.3 Z M169.2,240.3" id="2103"/>
            <path class="unit" d="M179.4,232.4 L195.4,243.9 L183.5,250.3 L169.3,240.2 L179.4,232.4 Z M179.4,232.4" id="2104"/>
            <path class="unit" d="M204.6,212.7 L224,225.7 L195.5,243.8 L179.5,232.3 L204.6,212.7 Z M204.6,212.7" id="2105"/>
            <path class="unit" d="M125.6,208.3 L113.4,217.9 L59.2,195.7 L69.7,187.3 L80.3,191.7 L82.5,190.1 L125.6,208.3 Z M125.6,208.3" id="2106"/>
            <path class="unit" d="M113.2,218 L99,229.3 L44.9,207 L59,195.8 L113.2,218 Z M113.2,218" id="2107"/>
            <path class="unit" d="M98.9,229.4 L55.3,263.7 L2.6,236.7 L32.2,213.3 L35.4,214.6 L44.8,207.2 L98.9,229.4 Z M98.9,229.4" id="2108"/>
            <path class="unit" d="M133.7,214.5 C134.6,215 134.9,215.8 134.6,216.7 L123,242.8 C122.2,244.6 119,245.5 117,244.5 L101.9,236.6 C100.5,235.8 100.5,234.3 101.9,233.3 L126.6,214.5 C127.8,213.6 129.7,213.2 131.1,213.7 L133,214.3 C133.2,214.3 133.5,214.4 133.7,214.5 L133.7,214.5 Z M133.7,214.5" id="2109"/>
            <path class="unit" d="M106.7,247.9 L67.9,278.2 L52.4,273.3 L94.1,241.4 L106.7,247.9 Z M106.7,247.9" id="2110"/>
            <path class="unit" d="M119.2,254.1 L94.5,273.4 L90.1,271.1 L90,271.2 L94.4,273.5 L94.2,273.6 L87.8,270.4 L74.5,280.2 L68.1,278.2 L106.8,247.9 L118.8,254 L119.2,254.1 Z M119.2,254.1" id="2111"/>
            <path class="unit" d="M126.1,254.8 L125.7,257.5 L101.1,276.7 L94.7,273.4 L119.4,254.1 L126.1,254.8 Z M126.1,254.8" id="2112"/>
            <path class="unit" d="M143.3,266.1 L112,282.2 L111.9,282.3 L101.2,276.8 L125.9,257.6 L143.3,266.1 Z M143.3,266.1" id="2113"/>
            <path class="unit" d="M111.7,282.4 L101.5,287.2 L87.2,279.8 L94.7,273.8 L94.4,273.7 L94.5,273.5 L101,276.8 L101.1,276.9 L111.7,282.4 Z M111.7,282.4" id="2114"/>
            <path class="unit" d="M101.4,287.3 L90,292.7 L79.7,285.7 L87,279.9 L101.4,287.3 Z M101.4,287.3" id="2115"/>
        </g>
        <g class="ceiling_details">
            <path d="M223.4,51.8 C224.2,51.8 224.9,51.7 225.5,51.4 L239.8,44.3 L240.3,43.9 C240.7,43.5 240.9,43.2 240.9,42.8 C240.9,42.4 240.7,42 240.2,41.7 C239.7,41.3 238.9,41.1 238,41.1 L237.8,41.1 C237,41.1 236.3,41.3 235.7,41.6 L221.4,48.7 L220.8,49.1 C220.5,49.4 220.3,49.7 220.3,50 C220.2,50.5 220.4,51 221,51.4 C221.6,51.8 222.3,52 223.2,52 L223.4,52 M223.4,52.4 L223.1,52.4 C222.2,52.4 221.4,52.2 220.7,51.7 C220,51.2 219.7,50.6 219.8,49.8 C219.9,49.4 220.1,48.9 220.6,48.6 L221.3,48.2 L235.6,41.1 C236.4,40.7 237.2,40.5 238,40.5 L238.2,40.5 C239.2,40.6 240,40.8 240.7,41.3 C241.3,41.7 241.6,42.2 241.6,42.8 C241.7,43.5 241.4,44 240.8,44.4 L240.2,44.8 L225.9,52 C225.1,52.2 224.3,52.4 223.4,52.4 M222.7,54.9 C220.4,54.9 218.5,54.3 217,53.2 C215.8,52.4 215.1,51.4 215.1,50.3 C215.1,49.2 215.6,48.2 216.7,47.2 L218.2,46.2 L232.5,39 C234.2,38.2 236,37.8 238.1,37.8 L238.7,37.8 C241,37.9 242.9,38.4 244.4,39.5 C245.9,40.5 246.5,41.7 246.3,43.1 C246.2,43.9 245.7,44.7 244.8,45.5 L243.3,46.5 L229,53.7 C227.3,54.5 225.5,54.9 223.4,54.9 L222.7,54.9 M223.2,54.4 C225.3,54.4 227.1,54 228.6,53.3 L242.9,46.2 L244.3,45.3 C245.1,44.6 245.5,43.9 245.6,43.2 C245.8,42.1 245.3,41.1 243.9,40.2 C242.4,39.2 240.6,38.7 238.5,38.6 L238,38.6 C235.9,38.6 234.2,39 232.6,39.7 L218.3,46.8 L216.9,47.7 C215.9,48.5 215.5,49.4 215.5,50.3 C215.6,51.3 216.1,52.1 217.2,52.9 C218.6,53.9 220.4,54.4 222.6,54.5 L223.2,54.5" class="Shape" fill="#B2B2B2"/>
            <path d="M419.4,10.2 C418,9.2 416.2,8.7 414,8.6 L394.9,7.9 C392.9,7.9 391.1,8.3 389.5,9.1 C388.8,9.4 388.4,9.7 388.1,10 C387.3,10.7 386.9,11.4 386.8,12.1 C386.6,13.2 387.1,14.2 388.5,15.1 C389.9,16.1 391.7,16.6 393.9,16.7 L412.9,17.4 C415.8,17.4 418.1,16.7 419.7,15.3 C420.5,14.7 420.9,14 421,13.2 C421.3,12.1 420.7,11.1 419.4,10.2 M421.6,13.4 C421.5,14.3 421,15.1 420.1,15.8 C418.4,17.2 416,18 412.9,18 L393.9,17.3 C391.5,17.2 389.6,16.7 388.2,15.6 C386.7,14.6 386.1,13.4 386.3,12 C386.4,11.1 386.9,10.3 387.8,9.6 C388.2,9.2 388.7,8.9 389.3,8.6 C390.9,7.8 392.7,7.3 394.9,7.3 L414,8.1 C416.3,8.2 418.2,8.7 419.8,9.8 C421.2,10.8 421.8,12 421.6,13.4 M413.5,11.2 L394.8,10.5 C393.6,10.5 392.7,10.8 392.1,11.3 C391.8,11.6 391.6,11.9 391.6,12.2 C391.5,12.7 391.7,13.2 392.3,13.6 C392.8,14 393.6,14.2 394.5,14.2 L413,14.9 L413.2,15 C414,15 414.7,14.8 415.3,14.5 L415.9,14.1 C416.2,13.8 416.4,13.5 416.4,13.2 C416.5,12.7 416.3,12.2 415.7,11.9 C415.1,11.4 414.4,11.2 413.5,11.2 M416,11.4 C416.7,11.9 417,12.5 416.9,13.3 C416.9,13.7 416.6,14.1 416.1,14.5 L415.4,14.9 C414.6,15.3 413.8,15.4 413,15.4 L412.8,15.3 L394.3,14.7 C393.3,14.7 392.5,14.4 391.8,13.9 C391.1,13.4 390.8,12.8 390.9,12 C391,11.6 391.2,11.1 391.7,10.8 C392.4,10.2 393.4,9.9 394.7,9.9 L413.4,10.6 C414.5,10.7 415.3,10.9 416,11.4" class="Shape" fill="#B2B2B2"/>
            <path d="M96,159.6 C93.8,159.8 92,160.5 90.8,161.6 L80,170.6 C79,171.5 78.5,172.4 78.7,173.5 C78.9,174.8 80,175.8 81.9,176.6 C83.2,177.1 84.7,177.4 86.3,177.4 L87.9,177.3 C90.1,177 91.9,176.3 93.1,175.3 L103.8,166.3 C104.9,165.3 105.4,164.2 105,163.1 C104.6,161.9 103.6,161 101.9,160.3 C100.6,159.8 99.1,159.5 97.5,159.5 L96,159.6 M97.6,159 C99.3,159 100.9,159.3 102.2,159.8 C104.1,160.6 105.3,161.7 105.7,163 C106.1,164.4 105.6,165.6 104.2,166.7 L93.5,175.7 C92.2,176.8 90.3,177.5 88,177.8 L86.3,177.9 C84.6,177.9 83.1,177.6 81.7,177.1 C79.8,176.3 78.6,175.3 78.2,174 C77.8,172.7 78.3,171.4 79.7,170.3 L90.4,161.3 C91.8,160.2 93.6,159.5 95.9,159.2 L97.6,159 M96.8,162.1 C96,162.1 95.3,162.4 94.7,162.9 L84,171.9 C83.5,172.3 83.4,172.7 83.5,173.3 C83.7,173.8 84.1,174.2 84.8,174.5 C85.3,174.7 85.9,174.8 86.6,174.8 L87.2,174.7 C88.1,174.6 88.8,174.3 89.3,173.9 L100,164.9 C100.5,164.5 100.7,164 100.5,163.5 C100.4,163 99.9,162.6 99.2,162.3 C98.7,162.1 98.1,162 97.5,162 L96.8,162.1 M97.5,161.5 C98.2,161.5 98.9,161.6 99.5,161.8 C100.5,162.2 101,162.8 101.1,163.6 C101.2,164.3 101,164.8 100.3,165.3 L89.6,174.3 C89,174.8 88.2,175.1 87.3,175.2 L86.6,175.3 C85.9,175.3 85.3,175.2 84.6,174.9 C83.7,174.5 83.2,174 83,173.4 C82.8,172.6 83.1,172 83.8,171.4 L94.5,162.4 C95.1,161.9 95.9,161.6 96.9,161.5 L97.5,161.5" class="Shape" fill="#B2B2B2"/>
        </g>
    </g>
</svg>