<?xml version="1.0" encoding="utf-8"?>
<!DOCTYPE svg PUBLIC "-//W3C//DTD SVG 1.1//EN" "http://www.w3.org/Graphics/SVG/1.1/DTD/svg11.dtd">
<svg version="1.1" xmlns="http://www.w3.org/2000/svg" xmlns:xlink="http://www.w3.org/1999/xlink" xml:space="preserve">
<g class="level" id="level0">
        <g class="outline">
            <path d="M492.2,72 L491.1,70.6 L491.1,70.6 C478.1,54 469.9,43.4 466.9,39.4 C464.9,36.7 461.7,34.5 457.4,33 L451.6,31.4 L423.1,27 L419.6,27.4 L419.4,27.5 C416,28.7 413.3,30.1 411.4,31.7 C409.2,33.6 407.9,35.7 407.6,38 L407.5,38.9 L407.5,39.3 L407.6,40.1 C407.6,40.9 407.9,42 409.2,43 L410.2,43.7 L411.4,44.3 L412.9,44.6 L417.7,44.7 L417.7,45.2 L403.2,44.6 L403,44.5 C400.4,42.9 399.3,41.1 399.5,39 L399.6,38.3 L399.6,38.2 C399.9,35.1 398.7,31.3 391.2,30.1 L391.1,30.1 L358.1,28.9 L358,28.9 L341.3,29.6 L336.1,29.3 L335.4,30 C326.5,30.8 317.1,32 307.6,33.5 C300.1,34.7 292.9,36.8 286.1,39.5 C282.2,41.1 279.3,42.5 277.4,43.7 L254.9,56.5 L255.1,59.2 L264.3,65.4 C265.3,66.3 265.9,67.1 266.1,68.1 C266,69.3 265.4,70.4 264.1,71.5 C263.4,72.1 262.8,72.5 262.2,72.8 L262,73 L262.4,72.7 L263.4,71.4 L263.5,71.2 C263.9,70.3 264.1,69.5 264,68.7 L264,68.3 L264,68 L264,67.9 C263.9,66.7 263.4,65 261.2,63.7 L252.6,58 L249.6,59.3 L249.8,62.2 L257.7,67.4 L258.1,67.7 C258.5,68 258.7,68.3 258.9,68.7 C258.8,69.1 258.5,69.5 258.1,69.9 L256.1,71.1 L256.3,70.8 C256.6,70.4 256.8,69.9 256.8,69.4 L256.7,68.4 C256.7,67.5 256.1,66.6 255.2,66.1 L246.3,61 L221.2,75.3 C217.7,77.4 213.4,80.1 208.3,83.5 C198.9,89.7 191.7,94.8 186.9,98.9 C181.2,103.7 172.7,112.6 161.8,125.5 L161.2,126.3 L161.2,126.3 L159.2,128.8 L160.9,128.9 L160.9,129.8 L228.9,132.5 L235.8,132.9 L235.6,133.1 L214.2,132.4 L214.1,133.1 L187.8,132.1 L179.9,134.3 L156.6,133.5 L156.1,134.1 C151,139.9 145.5,145.7 140,151.6 C128.9,163.4 120.3,171.8 114.4,176.7 C109.2,181.1 103.3,185.3 96.8,189.4 C93.7,191.4 89.6,193.8 84.5,196.6 L83.6,197.1 L83.8,199.9 L91.7,204.4 L91.3,204.6 L80.7,198.7 L76.5,202.2 L76.7,204.9 L93.4,211.6 L93,211.9 L73.9,204.3 L72,205.9 L72.1,208.6 L78.9,211.3 L76.7,213.2 L76.9,215.9 L84.5,218.9 L79.5,223.1 L70,218.2 C69.7,218.1 69.4,218 69.1,218 C68.6,218 68.2,218.2 67.8,218.5 L37.5,243.8 L35.6,242.8 C35.3,242.7 35,242.6 34.7,242.6 C34.2,242.6 33.8,242.8 33.4,243.1 L2.5,269 C2,269.4 1.7,270.1 1.8,270.8 L1.8,270.8 L1.5,274.4 C1.4,275.2 1.9,276 2.7,276.4 L3.1,276.6 L1.9,277.5 C1.4,277.9 1.1,278.6 1.1,279.3 L1.1,279.4 L1.1,279.4 L0.8,283 C0.7,283.8 1.2,284.6 1.9,284.9 L7,287.5 L1.7,299.8 C1.6,300.1 1.5,300.5 1.6,300.9 L1.6,300.9 L1.3,304.5 C1.2,305.4 1.8,306.3 2.7,306.6 L103.6,336.5 C103.8,336.6 104,336.6 104.2,336.6 C104.5,336.6 104.9,336.5 105.2,336.3 L127.4,323.9 L131.7,322.3 C131.8,322.3 131.9,322.2 132,322.2 L161.3,305.1 L180.7,300.2 C180.9,300.1 181.1,300.1 181.3,299.9 L181.4,299.8 L366.2,181.2 L395.3,156.9 L396.6,154.5 L396.6,151.9 L396.2,151.8 L396.1,148.8 L400,149.8 L433.5,117.1 L479,80.8 L491.2,73.9 L491.2,73 L492.2,72 L492.2,72 Z M3.3,278.5 L3.3,278.5 L6.7,275.8 L3.3,278.5 L3.3,278.5 Z M9.8,277.2 L10.2,276.9 L9.8,277.2 L9.8,277.2 Z M9.8,277.2" class="outline"/>
        </g>
        <g class="label">
            <path d="M113.2,65.2 C112.9,65.2 112.7,65.5 112.6,65.8 C112.2,68.9 111.6,71.9 110.8,75 L110.8,75 C109.9,72.2 109.2,68.8 108.5,66.5 C108.2,65.5 107.9,65.2 107.4,65.2 C107,65.2 106.6,65.5 106.4,66.4 C105.7,68.7 104.8,72.4 104,75 L104,75 C103.2,71.9 102.8,68.9 102.4,65.8 C102.3,65.4 102.1,65.2 101.7,65.2 C101.3,65.2 101.1,65.5 101.1,65.8 L101.1,66.2 C101.5,69.3 102.1,72.5 102.8,75.2 C103,76.2 103.4,76.5 103.9,76.5 C104.4,76.5 104.7,76.2 105,75.4 C105.9,72.9 106.5,70.2 107.4,67 L107.4,67 C108.4,70.2 108.9,72.9 109.7,75.4 C110,76.3 110.3,76.5 110.8,76.5 C111.3,76.5 111.6,76.2 111.8,75.4 C112.6,72.4 113.2,69.3 113.7,66.1 L113.7,65.7 C113.8,65.5 113.6,65.2 113.2,65.2 L113.2,65.2 L113.2,65.2 Z M121.7,75.2 L116.9,75.2 L116.9,71.3 L120.8,71.3 C121.2,71.3 121.4,71 121.4,70.7 C121.4,70.4 121.2,70.1 120.8,70.1 L116.9,70.1 L116.9,66.4 L121.5,66.4 C121.9,66.4 122.1,66.1 122.1,65.8 C122.1,65.5 121.9,65.2 121.5,65.2 L116.7,65.2 C116,65.2 115.6,65.6 115.6,66.2 L115.6,75.5 C115.6,76.1 116,76.5 116.7,76.5 L121.6,76.5 C122,76.5 122.2,76.2 122.2,75.9 C122.3,75.5 122.1,75.2 121.7,75.2 L121.7,75.2 L121.7,75.2 Z M95.2,65.1 C92.3,65.1 90.5,67.4 90.5,71 C90.5,74.4 92.3,76.5 95.2,76.5 C98.1,76.5 99.9,74.1 99.9,70.5 C99.9,67.2 98,65.1 95.2,65.1 L95.2,65.1 L95.2,65.1 Z M95.2,75.4 C93.1,75.4 91.8,73.7 91.8,71.1 C91.8,68.1 93,66.3 95.2,66.3 C97.4,66.3 98.6,68 98.6,70.5 C98.6,73.5 97.3,75.4 95.2,75.4 L95.2,75.4 L95.2,75.4 Z M89.5,75.3 L85.2,75.3 L85.2,65.9 C85.2,65.5 84.9,65.2 84.6,65.2 C84.2,65.2 84,65.5 84,65.9 L84,75.5 C84,76.1 84.4,76.5 85.1,76.5 L89.6,76.5 C90,76.5 90.3,76.2 90.3,75.9 C90.1,75.6 89.9,75.3 89.5,75.3 L89.5,75.3 L89.5,75.3 Z M173.2,75.3 L168.9,75.3 L168.9,65.9 C168.9,65.5 168.6,65.2 168.3,65.2 C167.9,65.2 167.7,65.5 167.7,65.9 L167.7,75.5 C167.7,76.1 168.1,76.5 168.8,76.5 L173.3,76.5 C173.7,76.5 174,76.2 174,75.9 C173.9,75.6 173.7,75.3 173.2,75.3 L173.2,75.3 L173.2,75.3 Z M129.7,72.3 C129.4,71.9 129.1,71.6 128.7,71.3 C130.1,70.8 131.1,69.8 131.1,68.3 C131.1,66.4 129.8,65.1 126.9,65.1 C125.8,65.1 125,65.2 124.5,65.4 C124.1,65.5 124,65.8 124,66.2 L124,75.9 C124,76.3 124.3,76.5 124.6,76.5 C125,76.5 125.2,76.3 125.2,75.9 L125.2,71.7 L126.4,71.7 C127.6,71.7 128,72.2 128.6,73.1 C129,73.7 129.4,74.7 129.9,76.1 C130,76.4 130.2,76.5 130.5,76.5 C130.8,76.5 131.1,76.3 131.1,75.9 C131.1,75.8 131.1,75.6 131,75.5 C130.7,74.3 130.2,73.1 129.7,72.3 L129.7,72.3 L129.7,72.3 Z M126.7,70.5 L125.3,70.5 L125.3,66.5 C125.7,66.4 126.2,66.4 126.9,66.4 C129.2,66.4 129.9,67.3 129.9,68.5 C129.8,70.1 128.3,70.5 126.7,70.5 L126.7,70.5 L126.7,70.5 Z M155.5,66.7 C154.9,65.5 154.4,65.1 153.8,65.1 C153.2,65.1 152.7,65.5 152.1,66.7 C151.2,68.5 150.5,70.8 149.3,75.4 C149.2,75.6 149.2,75.8 149.2,75.9 C149.2,76.3 149.5,76.5 149.8,76.5 C150.1,76.5 150.3,76.3 150.4,76 C150.7,74.6 151,73.4 151.3,72.3 L156.2,72.3 C156.5,73.4 156.8,74.6 157.1,76 C157.2,76.3 157.4,76.5 157.7,76.5 C158.1,76.5 158.3,76.3 158.3,75.9 C158.3,75.8 158.3,75.6 158.2,75.4 C157.1,70.8 156.4,68.5 155.5,66.7 L155.5,66.7 L155.5,66.7 Z M151.7,71.2 C152.4,68.8 153.1,67.2 153.6,66.4 C153.6,66.3 153.7,66.3 153.8,66.3 C153.9,66.3 154,66.4 154,66.4 C154.5,67.2 155.2,68.7 155.9,71.2 L151.7,71.2 L151.7,71.2 Z M165.6,75.3 L161.3,75.3 L161.3,65.9 C161.3,65.5 161,65.2 160.7,65.2 C160.3,65.2 160.1,65.5 160.1,65.9 L160.1,75.5 C160.1,76.1 160.5,76.5 161.2,76.5 L165.7,76.5 C166.1,76.5 166.4,76.2 166.4,75.9 C166.3,75.6 166,75.3 165.6,75.3 L165.6,75.3 L165.6,75.3 Z M147,66.5 C146.9,65.7 146.6,65.2 145.9,65.2 C145.3,65.2 145,65.6 144.8,66 C144,68.2 143.1,71 142.1,73.7 L142.1,73.7 C141.1,71.2 140.3,68.6 139.3,66.2 C139.1,65.6 138.8,65.2 138.2,65.2 C137.5,65.2 137.2,65.6 137.1,66.5 C136.7,69.4 136.6,72.6 136.6,75.8 C136.6,76.2 136.8,76.4 137.2,76.4 C137.6,76.4 137.8,76.2 137.8,75.7 C137.8,72.6 138,69.6 138.3,66.7 L138.3,66.7 C139.3,69.3 140.2,72 141.3,74.6 C141.4,74.9 141.7,75.2 142.1,75.2 C142.5,75.2 142.8,75 142.9,74.6 C143.9,72.1 144.8,69.4 145.7,66.7 L145.7,66.7 C146.1,69.7 146.3,72.7 146.4,75.7 C146.4,76.1 146.6,76.4 147,76.4 C147.4,76.4 147.6,76.1 147.6,75.7 L147.6,75.2 C147.6,72.3 147.4,69.3 147,66.5 L147,66.5 L147,66.5 Z M147,66.5" class="Shape"/>
            <path d="M266.2,265.4 C265.8,265.7 265.3,265.9 264.7,265.9 C264.2,265.9 263.8,265.8 263.4,265.5 C263,265.3 262.7,264.9 262.5,264.4 C262.3,263.9 262.2,263.3 262.2,262.6 C262.2,262.1 262.3,261.6 262.4,261.1 C262.6,260.6 262.9,260.2 263.3,259.9 C263.7,259.6 264.2,259.5 264.8,259.5 C265.3,259.5 265.8,259.6 266.1,259.9 C266.4,260.2 266.7,260.6 266.9,261.2 L267.9,261 C267.7,260.3 267.3,259.7 266.8,259.3 C266.3,258.9 265.6,258.7 264.8,258.7 C264.1,258.7 263.5,258.9 262.9,259.2 C262.3,259.5 261.9,260 261.6,260.6 C261.3,261.2 261.1,261.9 261.1,262.7 C261.1,263.5 261.2,264.2 261.5,264.8 C261.8,265.5 262.2,266 262.7,266.3 C263.2,266.6 263.9,266.8 264.8,266.8 C265.6,266.8 266.3,266.6 266.9,266.1 C267.5,265.7 267.9,265 268.1,264.1 L267.1,263.8 C266.8,264.5 266.6,265 266.2,265.4 L266.2,265.4 L266.2,265.4 Z M273,261 C272.7,260.8 272.3,260.8 271.9,260.8 C271.2,260.8 270.6,261.1 270.2,261.6 L270.2,258.8 L269.2,258.8 L269.2,266.7 L270.2,266.7 L270.2,263.6 C270.2,263.2 270.3,262.8 270.4,262.5 C270.5,262.2 270.7,262 270.9,261.9 C271.2,261.8 271.4,261.7 271.7,261.7 C272.1,261.7 272.4,261.8 272.6,262 C272.8,262.2 272.9,262.6 272.9,263.1 L272.9,266.7 L273.9,266.7 L273.9,263 C273.9,262.4 273.8,262 273.7,261.7 C273.5,261.4 273.3,261.2 273,261 L273,261 L273,261 Z M286.8,265.8 C286.7,265.8 286.5,265.8 286.5,265.7 C286.4,265.7 286.4,265.6 286.3,265.5 C286.3,265.4 286.2,265.2 286.2,265 L286.2,261.7 L287.2,261.7 L287.2,260.9 L286.2,260.9 L286.2,258.9 L285.2,259.5 L285.2,260.9 L284.5,260.9 L284.5,261.7 L285.2,261.7 L285.2,265 C285.2,265.6 285.2,266 285.3,266.1 C285.4,266.2 285.5,266.4 285.7,266.5 C285.9,266.6 286.2,266.7 286.5,266.7 C286.7,266.7 287,266.7 287.2,266.6 L287.1,265.7 C287,265.8 286.9,265.8 286.8,265.8 L286.8,265.8 L286.8,265.8 Z M282.9,261 C282.7,261.1 282.5,261.4 282.3,261.8 L282.3,260.9 L281.4,260.9 L281.4,266.6 L282.4,266.6 L282.4,263.6 C282.4,263.2 282.5,262.8 282.6,262.5 C282.7,262.3 282.8,262.1 283,262 C283.2,261.9 283.4,261.8 283.6,261.8 C283.8,261.8 284.1,261.9 284.3,262 L284.6,261.1 C284.3,260.9 283.9,260.8 283.6,260.8 C283.3,260.8 283.1,260.8 282.9,261 L282.9,261 L282.9,261 Z M279.9,264.2 L279.9,262.9 L279.9,262 C279.8,261.7 279.7,261.5 279.6,261.3 C279.5,261.1 279.2,261 278.9,260.9 C278.6,260.8 278.2,260.7 277.7,260.7 C277.2,260.7 276.8,260.8 276.4,260.9 C276,261 275.7,261.2 275.5,261.5 C275.3,261.7 275.2,262.1 275.1,262.5 L276,262.6 C276.1,262.2 276.3,261.9 276.5,261.8 C276.7,261.6 277.1,261.6 277.5,261.6 C278,261.6 278.4,261.7 278.6,261.9 C278.8,262.1 278.9,262.3 278.9,262.7 L278.9,263 C278.5,263.1 278,263.2 277.2,263.3 C276.8,263.3 276.5,263.4 276.3,263.4 C276,263.5 275.8,263.6 275.6,263.7 C275.4,263.8 275.2,264 275.1,264.3 C275,264.5 274.9,264.8 274.9,265.1 C274.9,265.6 275.1,266 275.4,266.3 C275.7,266.6 276.2,266.8 276.8,266.8 C277.2,266.8 277.5,266.7 277.9,266.6 C278.2,266.5 278.6,266.3 278.9,266 C278.9,266.3 279,266.5 279.1,266.7 L280.1,266.7 C280,266.5 279.9,266.3 279.9,266 L279.9,264.2 L279.9,264.2 L279.9,264.2 Z M278.9,264.1 C278.9,264.5 278.8,264.8 278.7,265.1 C278.6,265.4 278.4,265.6 278.1,265.8 C277.8,266 277.5,266 277.1,266 C276.7,266 276.4,265.9 276.2,265.7 C276,265.5 275.9,265.3 275.9,265.1 C275.9,264.9 275.9,264.8 276,264.6 C276.1,264.5 276.2,264.4 276.4,264.3 C276.6,264.2 276.8,264.2 277.2,264.1 C277.9,264 278.4,263.9 278.8,263.7 L278.9,264.1 L278.9,264.1 Z M290.5,260.8 C289.7,260.8 289.1,261.1 288.6,261.6 C288.1,262.1 287.9,262.9 287.9,263.8 C287.9,264.7 288.1,265.4 288.6,266 C289.1,266.5 289.8,266.8 290.6,266.8 C291.3,266.8 291.8,266.6 292.2,266.3 C292.6,266 292.9,265.5 293.1,264.9 L292.1,264.8 C292,265.2 291.8,265.5 291.5,265.7 C291.3,265.9 290.9,266 290.6,266 C290.1,266 289.7,265.8 289.4,265.5 C289.1,265.2 288.9,264.7 288.9,264.1 L293.2,264.1 L293.2,263.8 C293.2,262.9 293,262.1 292.5,261.6 C291.9,261 291.2,260.8 290.5,260.8 L290.5,260.8 L290.5,260.8 Z M288.9,263.2 C288.9,262.7 289.1,262.3 289.4,262 C289.7,261.7 290.1,261.6 290.5,261.6 C291,261.6 291.4,261.8 291.7,262.2 C291.9,262.4 292,262.8 292.1,263.3 L288.9,263.2 L288.9,263.2 Z M320.1,265.6 C319.8,265.8 319.5,266 319.1,266 C318.6,266 318.2,265.8 318,265.5 C317.7,265.2 317.6,264.6 317.6,263.8 C317.6,263 317.8,262.5 318.1,262.1 C318.4,261.8 318.8,261.6 319.3,261.6 C319.6,261.6 319.9,261.7 320.1,261.9 C320.3,262.1 320.5,262.4 320.6,262.8 L321.5,262.7 C321.4,262.1 321.1,261.7 320.7,261.4 C320.3,261.1 319.8,260.9 319.2,260.9 C318.7,260.9 318.3,261 317.8,261.2 C317.4,261.4 317.1,261.8 316.9,262.2 C316.7,262.7 316.6,263.2 316.6,263.8 C316.6,264.8 316.8,265.5 317.3,266 C317.8,266.5 318.4,266.8 319.2,266.8 C319.8,266.8 320.3,266.6 320.8,266.2 C321.2,265.8 321.5,265.3 321.6,264.7 L320.6,264.6 C320.5,265 320.4,265.4 320.1,265.6 L320.1,265.6 L320.1,265.6 Z M327.3,263.8 C327.3,262.9 327.1,262.1 326.6,261.6 C326.1,261.1 325.5,260.8 324.7,260.8 C323.9,260.8 323.3,261.1 322.8,261.6 C322.3,262.1 322.1,262.9 322.1,263.8 C322.1,264.7 322.3,265.4 322.8,266 C323.3,266.5 323.9,266.8 324.8,266.8 C325.5,266.8 326,266.6 326.4,266.3 C326.8,266 327.1,265.5 327.3,264.9 L326.3,264.8 C326.2,265.2 326,265.5 325.7,265.7 C325.5,265.9 325.1,266 324.8,266 C324.3,266 323.9,265.8 323.6,265.5 C323.3,265.2 323.1,264.7 323.1,264.1 L327.4,264.1 C327.3,263.9 327.3,263.8 327.3,263.8 L327.3,263.8 L327.3,263.8 Z M323.1,263.2 C323.1,262.7 323.3,262.3 323.6,262 C323.9,261.7 324.3,261.6 324.7,261.6 C325.2,261.6 325.6,261.8 325.9,262.2 C326.1,262.4 326.2,262.8 326.3,263.3 L323.1,263.2 L323.1,263.2 Z M295.7,261 C295.5,261.1 295.3,261.4 295.1,261.8 L295.1,260.9 L294.2,260.9 L294.2,266.6 L295.2,266.6 L295.2,263.6 C295.2,263.2 295.3,262.8 295.4,262.5 C295.5,262.3 295.6,262.1 295.8,262 C296,261.9 296.2,261.8 296.4,261.8 C296.6,261.8 296.9,261.9 297.1,262 L297.4,261.1 C297.1,260.9 296.7,260.8 296.4,260.8 C296.1,260.8 295.9,260.8 295.7,261 L295.7,261 L295.7,261 Z M315.4,264.2 L315.4,262.9 L315.4,262 C315.3,261.7 315.2,261.5 315.1,261.3 C315,261.1 314.7,261 314.4,260.9 C314.1,260.8 313.7,260.7 313.2,260.7 C312.7,260.7 312.3,260.8 311.9,260.9 C311.5,261 311.2,261.2 311,261.5 C310.8,261.7 310.7,262.1 310.6,262.5 L311.5,262.6 C311.6,262.2 311.8,261.9 312,261.8 C312.2,261.6 312.6,261.6 313,261.6 C313.5,261.6 313.9,261.7 314.1,261.9 C314.3,262.1 314.4,262.3 314.4,262.7 L314.4,263 C314,263.1 313.5,263.2 312.7,263.3 C312.3,263.3 312,263.4 311.8,263.4 C311.5,263.5 311.3,263.6 311.1,263.7 C310.9,263.8 310.7,264 310.6,264.3 C310.5,264.5 310.4,264.8 310.4,265.1 C310.4,265.6 310.6,266 310.9,266.3 C311.2,266.6 311.7,266.8 312.3,266.8 C312.7,266.8 313,266.7 313.4,266.6 C313.7,266.5 314.1,266.3 314.4,266 C314.4,266.3 314.5,266.5 314.6,266.7 L315.6,266.7 C315.5,266.5 315.4,266.3 315.4,266 L315.4,264.2 L315.4,264.2 L315.4,264.2 Z M314.4,264.1 C314.4,264.5 314.3,264.8 314.2,265.1 C314.1,265.4 313.9,265.6 313.6,265.8 C313.3,266 313,266 312.6,266 C312.2,266 311.9,265.9 311.7,265.7 C311.5,265.5 311.4,265.3 311.4,265.1 C311.4,264.9 311.4,264.8 311.5,264.6 C311.6,264.4 311.7,264.4 311.9,264.3 C312.1,264.2 312.3,264.2 312.7,264.1 C313.4,264 313.9,263.9 314.3,263.7 L314.4,264.1 L314.4,264.1 Z M308.3,266.6 L309.3,266.6 L309.3,258.7 L308.3,258.7 L308.3,266.6 L308.3,266.6 Z M306.2,259.2 C305.9,259 305.6,258.9 305.2,258.8 C304.9,258.7 304.5,258.7 304,258.7 L301,258.7 L301,266.6 L302,266.6 L302,263.4 L304,263.4 C305.1,263.4 305.9,263.2 306.3,262.7 C306.7,262.2 306.9,261.7 306.9,261 C306.9,260.6 306.8,260.3 306.7,259.9 C306.7,259.6 306.5,259.4 306.2,259.2 L306.2,259.2 L306.2,259.2 Z M305.6,262.1 C305.3,262.3 304.8,262.5 304.2,262.5 L302.2,262.5 L302.2,259.7 L304.2,259.7 C304.7,259.7 305,259.7 305.2,259.8 C305.5,259.9 305.7,260 305.9,260.3 C306.1,260.5 306.1,260.8 306.1,261.1 C306,261.5 305.9,261.9 305.6,262.1 L305.6,262.1 L305.6,262.1 Z M305.6,262.1" class="Shape"/>
            <path d="M71.1,193.1 L68.6,195.4 L65.8,193.4 L61.6,197.2 L64.4,199.2 L62.1,201.3 L72,201 L71.1,193.1" class="Shape"/>
            <path d="M84,179.2 L83.1,178.3 C82.8,178 82.6,177.8 82.4,177.7 C82.2,177.6 81.9,177.5 81.7,177.4 C81.5,177.3 81.2,177.4 80.9,177.6 C80.6,177.7 80.3,178 79.9,178.3 C79.6,178.6 79.3,179 79.1,179.4 C78.9,179.8 78.9,180.1 78.9,180.4 C78.9,180.7 79.1,181 79.3,181.4 L80.1,180.8 C79.9,180.4 79.8,180.1 79.8,179.9 C79.8,179.6 80,179.3 80.3,179 C80.6,178.7 81,178.5 81.3,178.5 C81.5,178.5 81.8,178.6 82.1,178.9 L82.3,179.1 C82.1,179.5 81.8,179.9 81.3,180.6 C81.1,180.9 80.9,181.1 80.8,181.3 C80.7,181.5 80.6,181.8 80.5,182 L80.5,182.7 C80.6,183 80.7,183.2 80.9,183.4 C81.2,183.7 81.6,183.9 82.1,183.9 C82.6,183.9 83,183.6 83.4,183.2 C83.7,182.9 83.9,182.6 84,182.3 C84.1,182 84.2,181.6 84.3,181.1 C84.5,181.3 84.7,181.4 84.9,181.5 L85.6,180.8 C85.4,180.7 85.1,180.6 84.9,180.5 C85,180.3 84.6,179.9 84,179.2 L84,179.2 L84,179.2 Z M83.8,181.6 C83.7,181.9 83.5,182.2 83.3,182.5 C83,182.8 82.8,182.9 82.5,182.9 C82.2,182.9 82,182.8 81.8,182.7 C81.7,182.6 81.6,182.4 81.6,182.3 L81.6,181.8 C81.7,181.6 81.8,181.4 82.1,181.1 C82.5,180.5 82.8,180.1 83,179.7 L83.3,180 C83.6,180.3 83.8,180.6 83.9,180.8 C83.9,180.9 83.9,181.3 83.8,181.6 L83.8,181.6 L83.8,181.6 Z M98.1,165.9 C98.3,166.3 98.4,166.6 98.3,167 C98.3,167.3 98.1,167.6 97.9,167.8 C97.6,168.1 97.2,168.3 96.7,168.3 C96.2,168.3 95.8,168.1 95.3,167.7 L98.3,164.7 L98.1,164.5 C97.4,163.8 96.7,163.5 96,163.5 C95.3,163.5 94.7,163.7 94.1,164.3 C93.5,164.9 93.3,165.5 93.3,166.2 C93.3,166.9 93.7,167.6 94.4,168.3 C95.1,169 95.7,169.3 96.4,169.3 C97.1,169.3 97.8,169 98.3,168.4 C98.8,167.9 99,167.4 99.1,166.9 C99.2,166.4 99.1,165.8 98.8,165.3 L98.1,165.9 L98.1,165.9 Z M94.3,165.8 C94.3,165.4 94.5,165 94.8,164.7 C95.1,164.4 95.6,164.2 96,164.2 C96.3,164.2 96.7,164.4 97,164.7 L94.7,167 C94.4,166.6 94.3,166.2 94.3,165.8 L94.3,165.8 L94.3,165.8 Z M96.4,158.8 L100.5,166.2 L101.1,165.6 L97,158.2 L96.4,158.8 L96.4,158.8 Z M81.1,174.3 L86.7,179.9 L87.4,179.2 L81.8,173.6 L81.1,174.3 L81.1,174.3 Z M101.3,154.1 L103.6,156.4 L100.7,159.3 L98.4,157 L97.7,157.7 L103.3,163.3 L104,162.6 L101.4,160 L104.3,157.1 L106.9,159.7 L107.6,159 L102,153.4 L101.3,154.1 L101.3,154.1 Z M126.3,130.7 L125.5,129.9 L124.8,130.6 L125.6,131.4 L126.3,130.7 L126.3,130.7 Z M90,173.2 L89.1,172.3 C88.8,172 88.6,171.8 88.4,171.7 C88.2,171.6 87.9,171.5 87.7,171.4 C87.5,171.4 87.2,171.4 86.9,171.6 C86.6,171.7 86.3,172 85.9,172.3 C85.6,172.6 85.3,173 85.1,173.4 C84.9,173.8 84.9,174.1 84.9,174.4 C84.9,174.7 85.1,175 85.3,175.4 L86.1,174.8 C85.9,174.4 85.8,174.1 85.8,173.9 C85.8,173.6 86,173.3 86.3,173 C86.6,172.7 87,172.5 87.3,172.5 C87.5,172.5 87.8,172.6 88.1,172.9 L88.3,173.1 C88.1,173.5 87.8,173.9 87.3,174.6 C87.1,174.9 86.9,175.1 86.8,175.3 C86.7,175.5 86.6,175.8 86.5,176 L86.5,176.7 C86.6,177 86.7,177.2 86.9,177.4 C87.2,177.7 87.6,177.9 88.1,177.9 C88.6,177.9 89,177.6 89.4,177.2 C89.7,176.9 89.9,176.6 90,176.3 C90.1,176 90.2,175.6 90.3,175.1 C90.5,175.3 90.7,175.4 90.9,175.5 L91.6,174.8 C91.4,174.7 91.1,174.6 90.9,174.5 C91.1,174.2 90.7,173.8 90,173.2 L90,173.2 L90,173.2 Z M89.8,175.5 C89.7,175.8 89.5,176.1 89.3,176.4 C89,176.7 88.8,176.8 88.5,176.8 C88.2,176.8 88,176.7 87.8,176.6 C87.7,176.5 87.6,176.3 87.6,176.2 L87.6,175.7 C87.7,175.5 87.8,175.3 88.1,175 C88.5,174.4 88.8,174 89,173.6 L89.3,173.9 C89.6,174.2 89.8,174.5 89.9,174.7 C89.9,174.9 89.9,175.2 89.8,175.5 L89.8,175.5 L89.8,175.5 Z M78.3,182.8 C78.3,182.2 78,181.6 77.5,181.1 C77.2,180.8 76.9,180.6 76.6,180.5 C76.3,180.4 75.9,180.4 75.6,180.4 C75.3,180.5 75,180.6 74.7,180.8 C74.5,181 74.2,181.2 73.8,181.6 L71.7,183.7 L77.3,189.3 L78,188.6 L75.7,186.3 L77.1,184.9 C78,184.1 78.4,183.4 78.3,182.8 L78.3,182.8 L78.3,182.8 Z M75.1,185.6 L73.1,183.6 L74.5,182.2 C74.8,181.9 75.1,181.7 75.2,181.6 C75.4,181.5 75.7,181.4 76,181.5 C76.3,181.5 76.5,181.7 76.8,181.9 C77.1,182.2 77.3,182.6 77.2,182.9 C77.2,183.3 76.9,183.7 76.4,184.2 L75.1,185.6 L75.1,185.6 Z M93.9,169.7 C94.2,170.1 94.3,170.5 94.3,170.8 C94.3,171.1 94.1,171.5 93.9,171.7 C93.6,172 93.2,172.2 92.7,172.1 C92.2,172.1 91.7,171.8 91.2,171.2 C90.7,170.7 90.4,170.2 90.4,169.7 C90.4,169.2 90.5,168.8 90.9,168.5 C91.1,168.3 91.4,168.1 91.7,168.1 C92,168.1 92.3,168.2 92.6,168.4 L93.2,167.6 C92.7,167.3 92.2,167.1 91.7,167.2 C91.2,167.3 90.7,167.5 90.3,167.9 C90,168.2 89.7,168.6 89.6,169.1 C89.5,169.6 89.5,170 89.7,170.5 C89.9,171 90.2,171.4 90.6,171.9 C91.3,172.6 92,172.9 92.7,172.9 C93.4,172.9 94,172.7 94.6,172.1 C95,171.7 95.3,171.2 95.3,170.6 C95.3,170 95.2,169.5 94.8,168.9 L93.9,169.7 L93.9,169.7 Z M146.4,114.4 C146.3,114.2 146.3,114 146.3,113.8 C146.3,113.6 146.4,113.4 146.6,113.3 C146.8,113.1 147,113 147.2,112.9 L146.8,112 C146.4,112.1 146.1,112.3 145.9,112.5 C145.7,112.7 145.6,112.9 145.6,113.1 C145.6,113.3 145.6,113.7 145.7,114.1 L145.1,113.5 L144.5,114.1 L148.5,118.1 L149.2,117.4 L147.1,115.3 C146.8,115 146.6,114.7 146.4,114.4 L146.4,114.4 L146.4,114.4 Z M154.4,106.7 C154.4,106.1 154.1,105.5 153.6,105 C153.3,104.7 153,104.5 152.7,104.4 C152.4,104.3 152,104.3 151.7,104.3 C151.4,104.4 151.1,104.5 150.8,104.7 C150.6,104.9 150.3,105.1 149.9,105.5 L147.8,107.6 L153.4,113.2 L154.1,112.5 L151.8,110.2 L153.2,108.8 C154.1,108 154.4,107.3 154.4,106.7 L154.4,106.7 L154.4,106.7 Z M151.2,109.6 L149.2,107.6 L150.6,106.2 C150.9,105.9 151.2,105.7 151.3,105.6 C151.5,105.5 151.8,105.4 152.1,105.5 C152.4,105.5 152.6,105.7 152.9,105.9 C153.2,106.2 153.4,106.6 153.3,106.9 C153.3,107.3 153,107.7 152.6,108.2 L151.2,109.6 L151.2,109.6 Z M145.8,117.4 L144.9,116.5 C144.6,116.2 144.4,116 144.2,115.9 C144,115.8 143.7,115.7 143.5,115.6 C143.3,115.6 143,115.6 142.7,115.8 C142.4,115.9 142.1,116.2 141.7,116.5 C141.4,116.8 141.1,117.2 140.9,117.6 C140.7,118 140.7,118.3 140.7,118.6 C140.7,118.9 140.9,119.2 141.1,119.6 L141.9,119 C141.7,118.6 141.6,118.3 141.6,118.1 C141.6,117.8 141.8,117.5 142.1,117.2 C142.4,116.9 142.8,116.7 143.1,116.7 C143.3,116.7 143.6,116.8 143.9,117.1 L144.1,117.3 C143.9,117.7 143.6,118.1 143.1,118.8 C142.9,119.1 142.7,119.3 142.6,119.5 C142.5,119.7 142.4,120 142.3,120.2 L142.3,120.9 C142.4,121.2 142.5,121.4 142.7,121.6 C143,121.9 143.4,122.1 143.9,122.1 C144.4,122.1 144.8,121.8 145.2,121.4 C145.5,121.1 145.7,120.8 145.8,120.5 C145.9,120.2 146,119.8 146.1,119.3 C146.3,119.5 146.5,119.6 146.7,119.7 L147.4,119 C147.2,118.9 146.9,118.8 146.7,118.7 C146.8,118.4 146.4,118.1 145.8,117.4 L145.8,117.4 L145.8,117.4 Z M145.6,119.7 C145.5,120 145.3,120.3 145.1,120.6 C144.8,120.9 144.6,121 144.3,121 C144,121 143.8,120.9 143.6,120.8 C143.5,120.7 143.4,120.5 143.4,120.4 L143.4,119.9 C143.5,119.7 143.6,119.5 143.9,119.2 C144.3,118.6 144.6,118.2 144.8,117.8 L145.1,118.1 C145.4,118.4 145.6,118.7 145.7,118.9 C145.7,119.1 145.7,119.4 145.6,119.7 L145.6,119.7 L145.6,119.7 Z M140.7,122 C141.1,122.6 141.2,123.1 141.2,123.6 C141.2,124.1 140.9,124.6 140.5,125 C140.2,125.3 139.8,125.6 139.3,125.7 C138.8,125.8 138.4,125.8 137.9,125.6 C137.4,125.4 136.9,125 136.5,124.6 C136.1,124.2 135.8,123.8 135.6,123.4 C135.4,122.9 135.3,122.5 135.4,122 C135.5,121.5 135.7,121 136.2,120.6 C136.6,120.2 137,120 137.4,120 C137.8,119.9 138.3,120 138.8,120.3 L139.4,119.4 C138.7,119 138.1,118.9 137.4,119 C136.7,119.1 136.1,119.4 135.6,120 C135.1,120.5 134.8,121.1 134.6,121.7 C134.4,122.3 134.4,123 134.6,123.6 C134.8,124.3 135.2,124.9 135.8,125.4 C136.3,125.9 136.9,126.3 137.6,126.6 C138.3,126.9 138.9,126.9 139.5,126.8 C140.1,126.7 140.7,126.3 141.3,125.7 C141.9,125.1 142.2,124.5 142.3,123.8 C142.4,123.1 142.2,122.3 141.7,121.6 L140.7,122 L140.7,122 Z M167.9,98.7 L168.7,97.9 L164.5,97.1 L164.5,94.1 L163.6,95 L163.6,98.3 L160.4,95.1 L159.7,95.8 L165.3,101.4 L166,100.7 L164.4,99.1 L164.4,98.2 L167.9,98.7 L167.9,98.7 Z M132.2,128.1 C132,127.9 131.7,127.8 131.5,127.8 C131.3,127.8 131,127.8 130.7,127.9 C130.4,128 130.1,128.2 129.9,128.4 C129.3,129 129.1,129.6 129.3,130.3 L128.7,129.7 L128.1,130.3 L132.1,134.3 L132.8,133.6 L130.6,131.4 C130.1,130.9 129.8,130.4 129.9,130 C129.9,129.6 130.1,129.3 130.4,129 C130.6,128.8 130.8,128.7 131,128.6 C131.2,128.5 131.4,128.6 131.6,128.6 C131.8,128.7 132,128.9 132.3,129.1 L134.8,131.6 L135.5,130.9 L133,128.4 C132.6,128.4 132.4,128.2 132.2,128.1 L132.2,128.1 L132.2,128.1 Z M160.1,103.2 L159.2,102.3 C158.9,102 158.7,101.8 158.5,101.7 C158.3,101.6 158,101.5 157.8,101.4 C157.6,101.4 157.3,101.4 157,101.6 C156.7,101.7 156.4,102 156,102.3 C155.7,102.6 155.4,103 155.2,103.4 C155,103.8 155,104.1 155,104.4 C155,104.7 155.2,105 155.4,105.4 L156.2,104.8 C156,104.4 155.9,104.1 155.9,103.9 C155.9,103.6 156.1,103.3 156.4,103 C156.7,102.7 157.1,102.5 157.4,102.5 C157.6,102.5 157.9,102.6 158.2,102.9 L158.4,103.1 C158.2,103.5 157.9,103.9 157.4,104.6 C157.2,104.9 157,105.1 156.9,105.3 C156.8,105.5 156.7,105.8 156.6,106 L156.6,106.7 C156.7,107 156.8,107.2 157,107.4 C157.3,107.7 157.7,107.9 158.2,107.9 C158.7,107.9 159.1,107.6 159.5,107.2 C159.8,106.9 160,106.6 160.1,106.3 C160.2,106 160.3,105.6 160.4,105.1 C160.6,105.3 160.8,105.4 161,105.5 L161.7,104.8 C161.5,104.7 161.2,104.6 161,104.5 C161.1,104.2 160.7,103.8 160.1,103.2 L160.1,103.2 L160.1,103.2 Z M159.9,105.5 C159.8,105.8 159.6,106.1 159.4,106.4 C159.1,106.7 158.9,106.8 158.6,106.8 C158.3,106.8 158.1,106.7 157.9,106.6 C157.8,106.5 157.7,106.3 157.7,106.2 L157.7,105.7 C157.8,105.5 157.9,105.3 158.2,105 C158.6,104.4 158.9,104 159.1,103.6 L159.4,103.9 C159.7,104.2 159.9,104.5 160,104.7 C160,104.9 160,105.2 159.9,105.5 L159.9,105.5 L159.9,105.5 Z M160.7,100.1 C160.6,99.9 160.6,99.7 160.6,99.5 C160.6,99.3 160.7,99.1 160.9,99 C161.1,98.8 161.3,98.7 161.5,98.6 L161.1,97.7 C160.7,97.8 160.4,98 160.2,98.2 C160,98.4 159.9,98.6 159.9,98.8 C159.9,99 159.9,99.4 160,99.8 L159.4,99.2 L158.8,99.8 L162.8,103.8 L163.5,103.1 L161.4,101 C161.1,100.7 160.9,100.4 160.7,100.1 L160.7,100.1 L160.7,100.1 Z M111,149.8 C110.9,149.6 110.9,149.4 110.9,149.2 C110.9,149 111,148.8 111.2,148.7 C111.4,148.5 111.6,148.4 111.8,148.3 L111.4,147.4 C111,147.5 110.7,147.7 110.5,147.9 C110.3,148.1 110.2,148.3 110.2,148.5 C110.2,148.7 110.2,149.1 110.3,149.5 L109.7,148.9 L109.1,149.5 L113.1,153.5 L113.8,152.8 L111.7,150.7 C111.4,150.4 111.1,150.1 111,149.8 L111,149.8 L111,149.8 Z M118.9,145.1 C119.1,145.5 119.2,145.8 119.1,146.2 C119.1,146.5 118.9,146.8 118.7,147 C118.4,147.3 118,147.5 117.5,147.5 C117,147.5 116.6,147.3 116.1,146.9 L119.1,143.9 L118.9,143.7 C118.2,143 117.5,142.7 116.8,142.7 C116.1,142.7 115.5,142.9 114.9,143.5 C114.3,144.1 114.1,144.7 114.1,145.4 C114.1,146.1 114.5,146.8 115.2,147.5 C115.9,148.2 116.5,148.5 117.2,148.5 C117.9,148.5 118.6,148.2 119.1,147.6 C119.6,147.1 119.8,146.6 119.9,146.1 C120,145.6 119.9,145 119.6,144.5 L118.9,145.1 L118.9,145.1 Z M115,145.1 C115,144.7 115.2,144.3 115.5,144 C115.8,143.7 116.3,143.5 116.7,143.5 C117,143.5 117.4,143.7 117.7,144 L115.4,146.3 C115.2,145.9 115,145.5 115,145.1 L115,145.1 L115,145.1 Z M126.3,132.2 L130.3,136.2 L131,135.5 L127,131.5 L126.3,132.2 L126.3,132.2 Z M110.3,152.9 L109.4,152 C109.1,151.7 108.9,151.5 108.7,151.4 C108.5,151.3 108.2,151.2 108,151.1 C107.8,151 107.5,151.1 107.2,151.3 C106.9,151.4 106.6,151.7 106.2,152 C105.9,152.3 105.6,152.7 105.4,153.1 C105.2,153.5 105.2,153.8 105.2,154.1 C105.2,154.4 105.4,154.7 105.6,155.1 L106.4,154.5 C106.2,154.1 106.1,153.8 106.1,153.6 C106.1,153.3 106.3,153 106.6,152.7 C106.9,152.4 107.3,152.2 107.6,152.2 C107.8,152.2 108.1,152.3 108.4,152.6 L108.6,152.8 C108.4,153.2 108.1,153.6 107.6,154.3 C107.4,154.6 107.2,154.8 107.1,155 C107,155.2 106.9,155.5 106.8,155.7 L106.8,156.4 C106.9,156.7 107,156.9 107.2,157.1 C107.5,157.4 107.9,157.6 108.4,157.6 C108.9,157.6 109.3,157.3 109.7,156.9 C110,156.6 110.2,156.3 110.3,156 C110.4,155.7 110.5,155.3 110.6,154.8 C110.8,155 111,155.1 111.2,155.2 L111.9,154.5 C111.7,154.4 111.4,154.3 111.2,154.2 C111.4,153.9 111,153.5 110.3,152.9 L110.3,152.9 L110.3,152.9 Z M110.2,155.2 C110.1,155.5 109.9,155.8 109.7,156.1 C109.4,156.4 109.2,156.5 108.9,156.5 C108.6,156.5 108.4,156.4 108.2,156.3 C108.1,156.2 108,156 108,155.9 L108,155.4 C108.1,155.2 108.2,155 108.5,154.7 C108.9,154.1 109.2,153.7 109.4,153.3 L109.7,153.6 C110,153.9 110.2,154.2 110.3,154.4 C110.2,154.6 110.2,154.9 110.2,155.2 L110.2,155.2 L110.2,155.2 Z M110.1,145.4 L115.7,151 L116.4,150.3 L110.8,144.7 L110.1,145.4 L110.1,145.4 Z M124.6,133.9 L126.8,136.1 C127.1,136.4 127.4,136.7 127.5,137 C127.6,137.3 127.6,137.5 127.5,137.8 C127.4,138.1 127.3,138.3 127.1,138.5 C126.9,138.7 126.7,138.8 126.4,138.9 C126.2,138.9 125.9,138.9 125.7,138.7 C125.5,138.6 125.3,138.4 124.9,138 L122.7,135.8 L122,136.5 L124.5,139 C124.8,139.3 125,139.5 125.2,139.6 C125.4,139.8 125.7,139.9 125.9,139.9 C126.1,139.9 126.4,139.9 126.7,139.8 C127,139.7 127.3,139.5 127.5,139.3 C128,138.8 128.2,138.1 128.1,137.3 L128.7,137.9 L129.3,137.3 L125.3,133.3 L124.6,133.9 L124.6,133.9 Z M120.3,138.2 L120.8,138.7 C120.1,138.6 119.5,138.7 119,139.2 C118.7,139.5 118.5,139.9 118.4,140.3 C118.3,140.7 118.3,141.2 118.5,141.6 C118.7,142.1 119,142.5 119.4,142.9 C120.1,143.6 120.8,143.9 121.5,144 C122.2,144 122.8,143.8 123.3,143.3 C123.5,143.1 123.7,142.8 123.8,142.5 C123.9,142.2 123.9,141.9 123.9,141.7 L125.9,143.7 L126.6,143 L121,137.4 L120.3,138.2 L120.3,138.2 Z M123.2,141.7 C123.2,142.2 123.1,142.5 122.8,142.8 C122.5,143.1 122.1,143.2 121.6,143.2 C121.1,143.2 120.6,142.9 120.1,142.4 C119.6,141.9 119.3,141.4 119.2,140.9 C119.2,140.4 119.3,140.1 119.6,139.8 C119.9,139.5 120.3,139.4 120.8,139.4 C121.3,139.5 121.8,139.7 122.3,140.3 C122.9,140.8 123.2,141.2 123.2,141.7 L123.2,141.7 L123.2,141.7 Z M123.2,141.7" class="Shape"/>
            <path d="M251.2,48.1 L248.9,49.9 L246.8,48 L243,51.1 L245,53 L242.9,54.7 L251.2,55.2 L251.2,48.1" class="Shape"/>
            <path d="M209.3,51.1 L210.7,53.8 C210.9,54.2 211.1,54.6 211.1,54.9 C211.1,55.2 211.1,55.4 210.9,55.7 L210.3,56.3 C210,56.4 209.8,56.5 209.6,56.4 C209.4,56.4 209.2,56.2 209,56 C208.9,55.9 208.7,55.6 208.5,55.1 L207,52.3 L206.1,52.7 L207.7,55.8 C207.9,56.2 208,56.4 208.2,56.6 C208.4,56.8 208.6,57 208.8,57.1 C209,57.2 209.3,57.3 209.6,57.2 C209.9,57.2 210.2,57.1 210.5,56.9 C211.2,56.5 211.6,56 211.7,55.2 L212.1,55.9 L212.9,55.5 L210.3,50.4 L209.3,51.1 L209.3,51.1 Z M222.2,48.8 C222.3,49.2 222.2,49.6 222.1,49.9 C222,50.2 221.7,50.4 221.4,50.6 C221,50.8 220.5,50.9 220.1,50.7 C219.7,50.6 219.3,50.2 219,49.7 L222.8,47.7 C222.7,47.6 222.7,47.5 222.7,47.5 C222.3,46.7 221.7,46.1 221,45.9 C220.3,45.7 219.7,45.7 219,46.1 C218.3,46.5 217.9,47 217.7,47.7 C217.5,48.4 217.6,49.2 218.1,50 C218.5,50.8 219.1,51.3 219.8,51.6 C220.5,51.8 221.2,51.7 221.9,51.4 C222.5,51.1 222.9,50.7 223.1,50.2 C223.3,49.7 223.4,49.2 223.2,48.6 L222.2,48.8 L222.2,48.8 Z M218.7,48.9 C218.5,48.4 218.5,48 218.6,47.6 C218.7,47.2 219,46.9 219.4,46.7 C219.8,46.5 220.3,46.5 220.7,46.6 C221,46.7 221.3,47 221.5,47.4 L218.7,48.9 L218.7,48.9 Z M216.8,51.6 C216.9,52 216.8,52.4 216.7,52.7 C216.6,53 216.3,53.2 216,53.4 C215.6,53.6 215.1,53.7 214.7,53.5 C214.3,53.3 213.9,53 213.6,52.5 L217.4,50.5 C217.3,50.4 217.3,50.3 217.3,50.3 C216.9,49.5 216.3,48.9 215.6,48.7 C214.9,48.5 214.3,48.5 213.6,48.9 C212.9,49.3 212.5,49.8 212.3,50.5 C212.1,51.2 212.2,52 212.7,52.8 C213.1,53.6 213.7,54.1 214.4,54.4 C215.1,54.6 215.8,54.5 216.5,54.2 C217.1,53.9 217.5,53.5 217.7,53 C217.9,52.5 218,52 217.8,51.4 L216.8,51.6 L216.8,51.6 Z M213.3,51.7 C213.1,51.2 213.1,50.8 213.2,50.4 C213.3,50 213.6,49.7 214,49.5 C214.4,49.3 214.9,49.3 215.3,49.4 C215.6,49.5 215.9,49.8 216.1,50.2 L213.3,51.7 L213.3,51.7 Z M206.2,58.3 C206.4,57.8 206.4,57.2 206.4,56.7 C206.3,56.2 206.2,55.6 205.8,55 C205.4,54.3 205,53.8 204.4,53.4 C203.8,53 203.2,52.8 202.5,52.7 C201.8,52.7 201.2,52.8 200.5,53.2 C199.9,53.5 199.4,54 199,54.5 C198.6,55.1 198.5,55.7 198.5,56.4 C198.5,57.1 198.7,57.8 199.1,58.5 C199.5,59.2 199.9,59.7 200.5,60.1 C201.1,60.5 201.7,60.7 202.4,60.8 C203.1,60.8 203.7,60.7 204.4,60.4 C205,60.1 205.5,59.6 205.9,59.1 C206.6,59.2 207.3,59.3 207.8,59.2 L207.7,58.4 C207.3,58.4 206.8,58.3 206.2,58.3 L206.2,58.3 L206.2,58.3 Z M205.2,58.1 C204.7,58 204.1,58 203.5,58.1 L203.6,58.9 C204,58.8 204.3,58.8 204.7,58.8 C204.5,59.1 204.2,59.3 203.9,59.5 C203.2,59.9 202.5,59.9 201.8,59.7 C201.1,59.5 200.5,58.9 200,58 C199.5,57.1 199.4,56.2 199.6,55.5 C199.8,54.8 200.3,54.3 200.9,53.9 C201.4,53.7 201.8,53.6 202.3,53.6 C202.8,53.6 203.2,53.8 203.7,54.1 C204.1,54.4 204.5,54.9 204.8,55.4 C205.4,56.5 205.5,57.4 205.2,58.1 L205.2,58.1 L205.2,58.1 Z M227,43.3 C226.8,43.1 226.6,42.9 226.4,42.8 C226.2,42.7 225.9,42.6 225.6,42.7 C225.3,42.7 225,42.8 224.7,43 C224,43.4 223.6,43.9 223.5,44.7 L223.1,44 L222.3,44.4 L224.9,49.5 L225.8,49.1 L224.4,46.3 C224.1,45.7 224,45.1 224.1,44.8 C224.2,44.4 224.5,44.1 224.9,44 C225.1,43.9 225.4,43.8 225.6,43.8 C225.8,43.8 226,43.9 226.2,44 C226.4,44.1 226.5,44.4 226.7,44.7 L228.3,47.8 L229.2,47.4 L227.6,44.3 C227.3,43.7 227.1,43.4 227,43.3 L227,43.3 L227,43.3 Z M265.9,25.3 L265.3,24.2 C265.1,23.8 264.9,23.6 264.8,23.4 C264.6,23.2 264.4,23 264.2,23 C264,22.9 263.7,22.9 263.4,22.9 C263.1,22.9 262.7,23.1 262.3,23.3 C261.9,23.5 261.5,23.8 261.2,24.1 C260.9,24.4 260.8,24.7 260.7,25 C260.6,25.3 260.7,25.7 260.8,26.1 L261.7,25.8 C261.6,25.4 261.6,25.1 261.7,24.8 C261.8,24.6 262.1,24.3 262.5,24.1 C262.9,23.9 263.3,23.8 263.6,23.9 C263.8,24 264,24.2 264.2,24.5 C264.2,24.5 264.3,24.6 264.3,24.7 C264,25 263.6,25.3 262.9,25.8 C262.6,26 262.4,26.2 262.2,26.3 C262,26.5 261.8,26.7 261.7,26.9 C261.6,27.1 261.5,27.4 261.5,27.6 C261.5,27.9 261.6,28.1 261.7,28.4 C261.9,28.8 262.3,29.1 262.7,29.2 C263.1,29.3 263.6,29.2 264.2,28.9 C264.5,28.7 264.8,28.5 265.1,28.2 C265.3,27.9 265.5,27.6 265.7,27.1 C265.9,27.3 266,27.5 266.2,27.6 L267.1,27.1 C266.9,27 266.7,26.8 266.6,26.6 C266.6,26.5 266.3,26 265.9,25.3 L265.9,25.3 L265.9,25.3 Z M265,27.4 C264.8,27.7 264.6,27.9 264.2,28.1 C263.9,28.3 263.6,28.3 263.3,28.3 C263,28.2 262.9,28.1 262.7,27.9 C262.6,27.8 262.6,27.6 262.6,27.4 C262.6,27.2 262.7,27.1 262.8,26.9 C262.9,26.8 263.1,26.6 263.5,26.3 C264.1,25.9 264.5,25.5 264.7,25.2 L264.9,25.5 C265.1,25.9 265.2,26.2 265.2,26.4 C265.3,26.8 265.2,27.1 265,27.4 L265,27.4 L265,27.4 Z M267.4,22.5 C267.4,22.3 267.4,22.1 267.5,21.9 C267.6,21.7 267.7,21.6 267.9,21.5 C268.1,21.4 268.4,21.3 268.6,21.4 L268.5,20.5 C268.1,20.5 267.8,20.5 267.5,20.7 C267.3,20.8 267.1,21 267,21.2 C266.9,21.4 266.8,21.7 266.8,22.2 L266.4,21.4 L265.6,21.8 L268.2,26.9 L269.1,26.5 L267.7,23.9 C267.6,23.2 267.5,22.9 267.4,22.5 L267.4,22.5 L267.4,22.5 Z M258.6,24.3 C258.3,24.1 258,24 257.7,23.9 C257.4,23.8 257,23.9 256.7,24 C256.4,24.1 256.1,24.2 255.6,24.5 L253,25.9 L256.7,32.9 L257.6,32.4 L256.1,29.6 L257.9,28.7 C258.9,28.2 259.5,27.6 259.6,27 C259.8,26.4 259.7,25.8 259.4,25.2 C259.1,24.8 258.9,24.5 258.6,24.3 L258.6,24.3 L258.6,24.3 Z M258.4,26.8 C258.3,27.2 257.9,27.5 257.3,27.8 L255.5,28.7 L254.2,26.2 L256,25.3 C256.4,25.1 256.7,25 256.9,24.9 C257.2,24.8 257.4,24.9 257.7,25 C258,25.1 258.2,25.3 258.3,25.6 C258.5,26 258.6,26.4 258.4,26.8 L258.4,26.8 L258.4,26.8 Z M274.7,23.3 L275.8,22.7 L272,20.6 L272.9,17.7 L271.8,18.3 L270.8,21.4 L268.7,17.4 L267.8,17.8 L271.5,24.8 L272.4,24.4 L271.4,22.4 L271.7,21.5 L274.7,23.3 L274.7,23.3 Z M248,34.6 L247.4,33.5 C247.2,33.1 247,32.9 246.9,32.7 C246.7,32.5 246.5,32.3 246.3,32.3 C246.1,32.2 245.8,32.2 245.5,32.2 C245.2,32.2 244.8,32.4 244.4,32.6 C244,32.8 243.6,33.1 243.3,33.4 C243,33.7 242.9,34 242.8,34.3 C242.7,34.6 242.8,35 242.9,35.4 L243.8,35.1 C243.7,34.7 243.7,34.4 243.8,34.1 C243.9,33.9 244.2,33.6 244.6,33.4 C245,33.2 245.4,33.1 245.7,33.2 C245.9,33.3 246.1,33.5 246.3,33.8 C246.3,33.8 246.4,33.9 246.4,34 C246.1,34.3 245.7,34.6 245,35.1 C244.7,35.3 244.5,35.5 244.3,35.6 C244.1,35.8 243.9,36 243.8,36.2 C243.7,36.4 243.6,36.7 243.6,36.9 C243.6,37.2 243.7,37.4 243.8,37.7 C244,38.1 244.4,38.4 244.8,38.5 C245.2,38.6 245.7,38.5 246.3,38.2 C246.6,38 246.9,37.8 247.2,37.5 C247.4,37.2 247.6,36.9 247.8,36.4 C247.9,36.6 248.1,36.8 248.3,36.9 L249.2,36.4 C249,36.3 248.8,36.1 248.7,35.9 C248.7,35.9 248.5,35.4 248,34.6 L248,34.6 L248,34.6 Z M247.2,36.8 C247,37.1 246.8,37.3 246.4,37.5 C246.1,37.7 245.8,37.7 245.5,37.7 C245.2,37.6 245.1,37.5 244.9,37.3 C244.8,37.2 244.8,37 244.8,36.8 C244.8,36.6 244.9,36.5 245,36.3 C245.1,36.1 245.3,36 245.7,35.7 C246.3,35.3 246.7,34.9 246.9,34.6 L247.1,34.9 C247.3,35.3 247.4,35.6 247.4,35.8 C247.4,36.2 247.4,36.5 247.2,36.8 L247.2,36.8 L247.2,36.8 Z M249.6,31.9 C249.6,31.7 249.6,31.5 249.7,31.3 C249.8,31.1 249.9,31 250.1,30.9 C250.3,30.8 250.6,30.7 250.8,30.8 L250.7,29.9 C250.3,29.9 250,29.9 249.7,30.1 C249.5,30.2 249.3,30.4 249.2,30.6 C249.1,30.8 249,31.1 249,31.6 L248.6,30.8 L247.8,31.2 L250.4,36.3 L251.3,35.9 L249.9,33.3 C249.8,32.6 249.6,32.2 249.6,31.9 L249.6,31.9 L249.6,31.9 Z M241.8,37.4 C242,38.1 242,38.6 241.8,39.1 C241.6,39.6 241.2,40 240.7,40.2 C240.3,40.4 239.8,40.5 239.3,40.5 C238.8,40.5 238.4,40.3 238,39.9 C237.6,39.5 237.2,39.1 236.9,38.5 C236.7,38 236.5,37.6 236.4,37 C236.3,36.5 236.4,36 236.6,35.6 C236.8,35.2 237.2,34.8 237.7,34.5 C238.2,34.3 238.6,34.2 239,34.2 C239.4,34.3 239.9,34.5 240.3,34.9 L241.1,34.2 C240.6,33.7 240,33.3 239.3,33.2 C238.6,33.1 238,33.2 237.3,33.6 C236.7,33.9 236.2,34.4 235.8,34.9 C235.4,35.4 235.3,36.1 235.3,36.8 C235.3,37.5 235.5,38.2 235.9,38.9 C236.2,39.6 236.7,40.1 237.2,40.6 C237.8,41.1 238.3,41.3 239,41.4 C239.6,41.5 240.3,41.3 241.1,40.9 C241.8,40.5 242.3,40 242.6,39.3 C242.9,38.6 242.9,37.9 242.7,37 L241.8,37.4 L241.8,37.4 Z M232.9,42.4 C232.7,42.3 232.4,42.2 232.1,42.2 C231.8,42.2 231.3,42.3 230.6,42.5 C230.1,42.6 229.8,42.7 229.7,42.7 C229.5,42.7 229.4,42.7 229.3,42.6 C229.2,42.5 229.1,42.5 229,42.4 C228.9,42.2 228.9,42 229,41.8 C229.1,41.6 229.3,41.4 229.7,41.2 C230,41 230.3,41 230.6,41 C230.9,41 231.1,41.2 231.2,41.4 L232,40.8 C231.8,40.5 231.5,40.3 231.3,40.2 C231.1,40.1 230.8,40 230.4,40.1 C230,40.1 229.7,40.3 229.3,40.5 C229,40.6 228.8,40.8 228.6,41 C228.4,41.2 228.3,41.4 228.2,41.5 C228.1,41.7 228,42 228,42.2 C228,42.4 228.1,42.7 228.2,42.9 C228.3,43.1 228.5,43.3 228.7,43.5 C228.9,43.6 229.2,43.7 229.5,43.7 C229.8,43.7 230.3,43.6 231,43.4 C231.5,43.3 231.9,43.2 232,43.2 C232.2,43.2 232.4,43.3 232.5,43.5 C232.6,43.7 232.6,44 232.5,44.2 C232.4,44.5 232.1,44.7 231.8,44.9 C231.4,45.1 231.1,45.2 230.7,45.1 C230.4,45 230.1,44.8 229.9,44.5 L229.1,45.1 C229.5,45.6 229.9,45.9 230.4,46 C230.9,46.1 231.5,46 232.1,45.6 C232.5,45.4 232.8,45.1 233.1,44.8 C233.3,44.5 233.5,44.2 233.5,43.8 C233.5,43.5 233.5,43.1 233.3,42.9 C233.4,42.7 233.2,42.5 232.9,42.4 L232.9,42.4 L232.9,42.4 Z M232.9,42.4" class="Shape"/>
            <path d="M402,19.9 L401.5,21.5 L399,21.5 L402.9,24.6 L408.7,21.6 L406,21.6 L406.5,20 L402,19.9" class="Shape"/>
            <path d="M380.7,2.3 L381.7,2.3 L381.7,1.2 L380.7,1.2 L380.7,2.3 L380.7,2.3 Z M387.4,4 C387.3,3.8 387,3.6 386.8,3.5 C386.5,3.4 386.2,3.3 385.9,3.3 C385.1,3.3 384.5,3.6 384.1,4.2 L384.1,3.4 L383.2,3.4 L383.1,9.1 L384.1,9.1 L384.2,6 C384.2,5.3 384.4,4.8 384.7,4.5 C385,4.2 385.4,4.1 385.8,4.1 C386.1,4.1 386.3,4.2 386.5,4.3 C386.7,4.4 386.8,4.6 386.9,4.8 C387,5 387,5.3 387,5.7 L386.9,9.2 L387.9,9.2 L388,5.7 L388,4.8 C387.6,4.4 387.5,4.2 387.4,4 L387.4,4 L387.4,4 Z M393,4.2 C392.6,3.6 392,3.4 391.4,3.4 C390.9,3.4 390.5,3.5 390.1,3.8 C389.7,4 389.4,4.4 389.2,4.8 C389,5.3 388.9,5.8 388.9,6.3 C388.9,7.1 389.1,7.8 389.5,8.3 C389.9,8.9 390.5,9.2 391.3,9.2 C391.9,9.2 392.5,9 392.9,8.5 C392.9,9.1 392.9,9.5 392.8,9.7 C392.7,10 392.5,10.3 392.3,10.4 C392.1,10.6 391.7,10.7 391.3,10.6 C390.9,10.6 390.6,10.5 390.3,10.3 C390.1,10.2 390,9.9 390,9.7 L389.1,9.5 C389.1,10.1 389.3,10.6 389.7,10.9 C390.1,11.2 390.7,11.4 391.3,11.4 C391.9,11.4 392.4,11.3 392.8,11.1 C393.2,10.9 393.5,10.6 393.7,10.2 C393.9,9.8 394,9.2 394,8.3 L394.1,3.4 L393.2,3.4 L393,4.2 L393,4.2 Z M392.5,7.9 C392.2,8.2 391.8,8.4 391.4,8.4 C391,8.4 390.6,8.2 390.3,7.9 C390,7.6 389.9,7 389.9,6.3 C389.9,5.6 390.1,5.1 390.4,4.8 C390.7,4.5 391.1,4.3 391.5,4.3 C391.9,4.3 392.3,4.5 392.6,4.9 C392.9,5.3 393,5.8 393,6.5 C392.9,7.1 392.8,7.6 392.5,7.9 L392.5,7.9 L392.5,7.9 Z M398.8,6.4 C398.5,6.3 398.1,6.1 397.4,5.9 C396.9,5.8 396.6,5.7 396.6,5.6 C396.4,5.5 396.3,5.4 396.2,5.3 C396.1,5.2 396.1,5.1 396.1,5 C396.1,4.8 396.2,4.6 396.4,4.5 C396.6,4.4 396.9,4.3 397.4,4.3 C397.8,4.3 398.1,4.4 398.3,4.6 C398.5,4.8 398.6,5 398.7,5.3 L399.6,5.2 C399.5,4.8 399.4,4.5 399.3,4.3 C399.1,4.1 398.9,3.9 398.6,3.8 C398.3,3.7 397.9,3.6 397.4,3.6 C397.1,3.6 396.8,3.6 396.6,3.7 C396.3,3.8 396.1,3.9 396,4 C395.8,4.1 395.6,4.3 395.5,4.5 C395.4,4.7 395.3,4.9 395.3,5.2 C395.3,5.5 395.4,5.7 395.5,6 C395.6,6.2 395.8,6.4 396.1,6.6 C396.4,6.7 396.9,6.9 397.6,7.1 C398.1,7.2 398.5,7.4 398.6,7.4 C398.8,7.5 398.9,7.7 398.9,7.9 C398.9,8.1 398.8,8.4 398.6,8.5 C398.4,8.7 398.1,8.8 397.6,8.8 C397.2,8.8 396.8,8.7 396.6,8.5 C396.4,8.3 396.2,8 396.2,7.6 L395.2,7.7 C395.3,8.3 395.5,8.8 395.9,9.1 C396.3,9.4 396.8,9.6 397.6,9.6 C398,9.6 398.4,9.5 398.8,9.4 C399.2,9.3 399.4,9 399.6,8.8 C399.8,8.5 399.9,8.2 399.9,7.9 C399.9,7.6 399.8,7.3 399.7,7.1 C399.3,6.6 399.1,6.5 398.8,6.4 L398.8,6.4 L398.8,6.4 Z M378.4,1.1 L374.4,4.9 L374.5,1 L373.5,1 L373.3,8.9 L374.3,8.9 L374.4,6.2 L375.7,5 L378.4,9 L379.8,9 L376.4,4.3 L379.8,1.2 L378.4,1.1 L378.4,1.1 Z M380.6,9 L381.6,9 L381.7,3.3 L380.7,3.3 L380.6,9 L380.6,9 Z M439.6,4.5 C439.4,4.6 439.2,4.9 439,5.3 L439,4.4 L438.1,4.4 L438,10.1 L439,10.1 L439.1,7.1 C439.1,6.7 439.2,6.3 439.3,6 C439.4,5.8 439.5,5.6 439.7,5.5 C439.9,5.4 440.1,5.3 440.3,5.3 C440.5,5.3 440.8,5.4 441,5.5 L441.4,4.6 C441.1,4.4 440.7,4.3 440.4,4.3 C440,4.3 439.8,4.4 439.6,4.5 L439.6,4.5 L439.6,4.5 Z M436.6,7.7 L436.6,6.4 L436.6,5.5 C436.5,5.2 436.5,5 436.3,4.8 C436.2,4.6 435.9,4.5 435.6,4.4 C435.3,4.3 434.9,4.2 434.4,4.2 C433.9,4.2 433.5,4.2 433.1,4.4 C432.7,4.5 432.4,4.7 432.2,5 C432,5.2 431.8,5.6 431.8,6 L432.7,6.1 C432.8,5.7 433,5.4 433.2,5.3 C433.4,5.1 433.8,5.1 434.2,5.1 C434.7,5.1 435.1,5.2 435.3,5.4 C435.5,5.6 435.6,5.8 435.6,6.2 L435.6,6.5 C435.2,6.6 434.7,6.7 433.9,6.8 C433.5,6.8 433.2,6.9 433,6.9 C432.7,7 432.5,7.1 432.3,7.2 C432.1,7.3 431.9,7.5 431.8,7.7 C431.7,7.9 431.6,8.2 431.6,8.5 C431.6,9 431.8,9.4 432.1,9.7 C432.4,10 432.9,10.2 433.5,10.2 C433.9,10.2 434.2,10.2 434.6,10 C434.9,9.9 435.3,9.7 435.6,9.4 C435.6,9.7 435.7,9.9 435.8,10.1 L436.8,10.1 C436.7,9.9 436.6,9.7 436.6,9.4 L436.6,7.7 L436.6,7.7 L436.6,7.7 Z M435.6,7.6 C435.6,8 435.5,8.3 435.4,8.6 C435.3,8.9 435,9.1 434.7,9.3 C434.4,9.5 434.1,9.5 433.7,9.5 C433.3,9.5 433,9.4 432.8,9.2 C432.6,9 432.5,8.8 432.5,8.6 C432.5,8.4 432.6,8.3 432.6,8.1 C432.7,8 432.8,7.9 433,7.8 C433.2,7.7 433.4,7.7 433.8,7.6 C434.5,7.5 435,7.4 435.4,7.3 L435.6,7.6 L435.6,7.6 Z M444.1,6.6 L446.3,4.5 L445,4.5 L442.7,6.8 L442.8,2.3 L441.8,2.3 L441.6,10.2 L442.6,10.2 L442.6,7.9 L443.3,7.3 L445.1,10.3 L446.3,10.3 L444.1,6.6 L444.1,6.6 Z M430,2.5 C429.7,2.3 429.4,2.2 429,2.1 C428.7,2 428.3,2 427.8,2 L424.8,1.9 L424.7,9.8 L425.7,9.8 L425.8,6.6 L427.8,6.6 C428.9,6.6 429.7,6.4 430.1,5.9 C430.5,5.4 430.8,4.9 430.8,4.2 C430.8,3.8 430.7,3.4 430.6,3.1 C430.5,3 430.3,2.7 430,2.5 L430,2.5 L430,2.5 Z M429.3,5.4 C429,5.6 428.5,5.8 427.9,5.7 L425.9,5.7 L426,2.9 L428,2.9 C428.5,2.9 428.8,2.9 429,3 C429.3,3.1 429.5,3.2 429.6,3.5 C429.8,3.7 429.8,4 429.8,4.3 C429.8,4.8 429.6,5.2 429.3,5.4 L429.3,5.4 L429.3,5.4 Z M416.4,7.3 L416.4,6 L416.4,5.1 C416.3,4.8 416.3,4.6 416.1,4.4 C416,4.2 415.7,4.1 415.4,4 C415.1,3.9 414.7,3.8 414.2,3.8 C413.7,3.8 413.3,3.9 412.9,4 C412.5,4.1 412.2,4.3 412,4.6 C411.8,4.8 411.6,5.2 411.6,5.6 L412.5,5.7 C412.6,5.3 412.8,5 413,4.9 C413.2,4.7 413.6,4.7 414,4.7 C414.5,4.7 414.9,4.8 415.1,5 C415.3,5.2 415.4,5.4 415.4,5.8 L415.4,6.1 C415,6.2 414.5,6.3 413.7,6.4 C413.3,6.4 413,6.5 412.8,6.5 C412.5,6.6 412.3,6.7 412.1,6.8 C411.9,6.9 411.7,7.1 411.6,7.3 C411.5,7.5 411.4,7.8 411.4,8.1 C411.4,8.6 411.5,9 411.9,9.3 C412.2,9.6 412.7,9.8 413.3,9.8 C413.7,9.8 414,9.8 414.4,9.6 C414.7,9.5 415.1,9.3 415.4,9 C415.4,9.3 415.5,9.5 415.6,9.7 L416.6,9.7 C416.5,9.5 416.4,9.2 416.4,9 L416.4,7.3 L416.4,7.3 L416.4,7.3 Z M415.5,7.2 C415.5,7.6 415.4,7.9 415.3,8.2 C415.2,8.5 414.9,8.7 414.7,8.9 C414.4,9.1 414.1,9.1 413.7,9.1 C413.3,9.1 413,9 412.8,8.8 C412.6,8.6 412.5,8.4 412.5,8.1 C412.5,7.9 412.6,7.8 412.6,7.6 C412.7,7.5 412.8,7.4 413,7.3 C413.2,7.2 413.4,7.2 413.8,7.1 C414.5,7 415,6.9 415.4,6.8 L415.5,7.2 L415.5,7.2 Z M408.8,8.3 C408.4,8.6 407.9,8.8 407.3,8.8 C406.8,8.8 406.4,8.7 406,8.4 C405.6,8.1 405.3,7.8 405.1,7.3 C404.9,6.8 404.8,6.2 404.8,5.5 C404.8,5 404.9,4.5 405.1,4 C405.3,3.5 405.6,3.1 406,2.8 C406.4,2.5 406.9,2.4 407.5,2.4 C408,2.4 408.5,2.5 408.8,2.8 C409.1,3.1 409.4,3.5 409.6,4.1 L410.6,3.9 C410.4,3.2 410,2.6 409.5,2.2 C409,1.8 408.3,1.6 407.5,1.6 C406.8,1.6 406.2,1.7 405.6,2 C405,2.3 404.6,2.8 404.2,3.4 C403.9,4 403.7,4.7 403.7,5.5 C403.7,6.3 403.8,7 404.1,7.6 C404.4,8.3 404.8,8.8 405.3,9.1 C405.8,9.5 406.5,9.6 407.4,9.7 C408.2,9.7 408.9,9.5 409.5,9.1 C410.1,8.7 410.5,8 410.7,7.2 L409.7,6.9 C409.5,7.5 409.2,8 408.8,8.3 L408.8,8.3 L408.8,8.3 Z M419.5,4.1 C419.3,4.2 419.1,4.5 418.9,4.9 L418.9,4 L418,4 L417.9,9.7 L418.9,9.7 L419,6.7 C419,6.3 419.1,5.9 419.2,5.6 C419.3,5.4 419.4,5.2 419.6,5.1 C419.8,5 420,4.9 420.2,4.9 C420.4,4.9 420.7,5 420.9,5.1 L421.3,4.2 C421,4 420.6,3.9 420.3,3.9 C419.9,3.9 419.7,4 419.5,4.1 L419.5,4.1 L419.5,4.1 Z M419.5,4.1" class="Shape"/>
            <path d="M469.9,111.9 C470,112.3 470.1,112.7 470,113 C469.9,113.3 469.8,113.6 469.5,113.8 C469.1,114.1 468.7,114.2 468.3,114.2 C467.8,114.2 467.4,113.9 467,113.5 L470.2,110.7 C470.1,110.6 470.1,110.5 470,110.5 C469.4,109.8 468.7,109.4 468,109.3 C467.3,109.2 466.7,109.4 466.1,109.9 C465.5,110.4 465.2,111 465.2,111.8 C465.2,112.5 465.5,113.3 466.1,114 C466.7,114.7 467.4,115.1 468.1,115.2 C468.8,115.3 469.5,115 470.1,114.5 C470.6,114.1 470.9,113.6 471,113.1 C471.1,112.6 471,112 470.8,111.5 L469.9,111.9 L469.9,111.9 Z M466.5,112.8 C466.2,112.4 466.1,112 466.1,111.6 C466.1,111.2 466.3,110.8 466.7,110.5 C467.1,110.2 467.5,110.1 468,110.1 C468.3,110.2 468.6,110.3 469,110.7 L466.5,112.8 L466.5,112.8 Z M448.8,131.3 L445.6,127.6 L444.9,128.2 L445.3,128.7 C444.6,128.6 444,128.7 443.5,129.2 C443.1,129.5 442.9,129.9 442.7,130.3 C442.6,130.7 442.6,131.2 442.7,131.7 C442.8,132.2 443.1,132.6 443.5,133 C444,133.6 444.6,134 445.3,134.1 C446,134.3 446.6,134.1 447.2,133.6 C447.7,133.2 447.9,132.7 447.9,132 C448.3,132.5 448.6,132.8 448.7,133 C448.8,133.3 448.9,133.6 448.8,133.9 C448.7,134.2 448.5,134.5 448.2,134.8 C447.9,135.1 447.6,135.2 447.3,135.2 C447.1,135.2 446.9,135.1 446.6,134.9 L445.8,135.4 C446.2,135.9 446.6,136.1 447.2,136.1 C447.7,136.1 448.2,135.8 448.8,135.4 C449.2,135 449.5,134.6 449.7,134.2 C449.9,133.8 449.9,133.4 449.8,133 C449.8,132.5 449.4,132 448.8,131.3 L448.8,131.3 L448.8,131.3 Z M446.9,132.9 C446.6,133.2 446.2,133.3 445.7,133.2 C445.3,133.1 444.8,132.8 444.3,132.2 C443.9,131.7 443.6,131.2 443.6,130.7 C443.6,130.2 443.8,129.9 444.1,129.6 C444.4,129.3 444.8,129.2 445.3,129.3 C445.8,129.4 446.2,129.7 446.7,130.2 C447.2,130.8 447.4,131.3 447.4,131.7 C447.5,132.2 447.3,132.6 446.9,132.9 L446.9,132.9 L446.9,132.9 Z M478.5,105.9 L478.2,106.2 C478.1,106.3 478,106.3 477.9,106.4 L477.7,106.4 C477.6,106.4 477.5,106.2 477.3,106 L475.1,103.5 L475.8,102.9 L475.3,102.3 L474.6,102.9 L473.3,101.4 L472.9,102.5 L473.8,103.6 L473.3,104.1 L473.8,104.7 L474.3,104.2 L476.4,106.7 L477.2,107.5 C477.4,107.6 477.6,107.6 477.8,107.6 C478,107.6 478.3,107.4 478.5,107.2 C478.7,107.1 478.8,106.9 479,106.7 L478.5,105.9 L478.5,105.9 Z M440.3,130.7 L439.6,129.9 L438.9,130.5 L439.6,131.3 L440.3,130.7 L440.3,130.7 Z M436.8,132.2 L438.9,134.7 L435.8,137.4 L433.7,134.9 L432.9,135.6 L438,141.6 L438.8,140.9 L436.4,138.1 L439.5,135.4 L441.9,138.2 L442.7,137.5 L437.6,131.5 L436.8,132.2 L436.8,132.2 Z M440.2,132.2 L443.9,136.5 L444.6,135.9 L440.9,131.6 L440.2,132.2 L440.2,132.2 Z M463.5,114.4 C463.4,114.2 463.4,114 463.4,113.8 C463.4,113.6 463.5,113.4 463.7,113.3 C463.9,113.1 464.1,113 464.4,113 L464.1,112.1 C463.7,112.2 463.4,112.3 463.1,112.5 C462.9,112.6 462.8,112.8 462.8,113.1 C462.7,113.3 462.8,113.7 462.9,114.1 L462.3,113.4 L461.6,114 L465.3,118.3 L466,117.7 L464.1,115.4 C463.8,115 463.6,114.7 463.5,114.4 L463.5,114.4 L463.5,114.4 Z M450.7,124.3 C450.4,124.2 450.1,124.1 449.7,124.2 C449.4,124.3 449,124.5 448.7,124.7 C448.2,125.1 447.9,125.7 447.9,126.4 L446.1,124.3 L445.4,124.9 L450.5,130.9 L451.2,130.3 L449.2,127.9 C448.9,127.6 448.7,127.3 448.6,127 C448.5,126.7 448.5,126.5 448.6,126.2 C448.7,125.9 448.9,125.7 449.1,125.5 C449.4,125.3 449.7,125.1 450,125.2 C450.3,125.2 450.6,125.4 450.9,125.8 L453.3,128.5 L454,127.9 L451.6,125.2 C451.3,124.7 450.9,124.5 450.7,124.3 L450.7,124.3 L450.7,124.3 Z M474.5,107.9 C474.7,108.3 474.7,108.7 474.6,109 C474.5,109.3 474.4,109.6 474.1,109.8 C473.7,110.1 473.3,110.2 472.9,110.2 C472.4,110.2 472,109.9 471.6,109.5 L474.8,106.7 C474.7,106.6 474.7,106.5 474.6,106.5 C474,105.8 473.3,105.4 472.6,105.3 C471.9,105.2 471.2,105.4 470.7,105.9 C470.1,106.4 469.8,107 469.8,107.8 C469.8,108.5 470.1,109.3 470.7,110 C471.3,110.7 472,111.1 472.7,111.2 C473.4,111.3 474.1,111 474.7,110.5 C475.2,110.1 475.5,109.6 475.6,109.1 C475.7,108.6 475.6,108 475.4,107.5 L474.5,107.9 L474.5,107.9 Z M471.1,108.8 C470.8,108.4 470.7,108 470.7,107.6 C470.7,107.2 470.9,106.8 471.3,106.5 C471.7,106.2 472.1,106.1 472.6,106.1 C472.9,106.2 473.2,106.3 473.6,106.7 L471.1,108.8 L471.1,108.8 Z M459.6,118.7 C459.2,118.6 458.8,118.6 458.3,118.7 C458,118.8 457.4,119 456.7,119.5 C455.9,119.9 455.4,120.1 455.1,120.1 C454.8,120.1 454.6,120 454.4,119.8 C454.2,119.6 454.1,119.2 454.2,118.9 C454.3,118.6 454.5,118.1 455,117.7 C455.5,117.3 455.9,117.1 456.3,117.1 C456.7,117.1 457.1,117.3 457.4,117.6 L458.1,116.9 C457.8,116.6 457.4,116.3 457,116.2 C456.6,116.1 456.1,116.1 455.7,116.2 C455.2,116.3 454.8,116.6 454.3,117 C453.9,117.3 453.6,117.7 453.4,118.1 C453.2,118.5 453.1,118.9 453.2,119.3 C453.3,119.7 453.4,120.1 453.7,120.4 C453.9,120.7 454.2,120.9 454.5,121 C454.8,121.1 455.2,121.1 455.6,121 C455.9,120.9 456.4,120.7 457.1,120.4 C457.8,120.1 458.2,119.9 458.4,119.8 C458.7,119.7 459,119.6 459.2,119.7 C459.4,119.7 459.6,119.9 459.8,120.1 C460,120.3 460,120.5 460.1,120.8 C460.1,121.1 460.1,121.3 459.9,121.6 C459.7,121.9 459.5,122.2 459.2,122.4 C458.9,122.7 458.5,122.9 458.1,123 C457.7,123.1 457.4,123.1 457.1,123 C456.8,122.9 456.5,122.7 456.2,122.5 L455.5,123.2 C455.9,123.6 456.3,123.9 456.7,124 C457.2,124.1 457.7,124.1 458.2,124 C458.7,123.8 459.2,123.5 459.8,123.1 C460.2,122.7 460.5,122.3 460.8,121.9 C461,121.5 461.1,121 461,120.6 C460.9,120.2 460.8,119.8 460.5,119.5 C460.3,119 460,118.8 459.6,118.7 L459.6,118.7 L459.6,118.7 Z M463.7,118.5 C463.6,118.6 463.5,118.6 463.4,118.7 L463.2,118.7 C463.1,118.7 463,118.5 462.8,118.3 L460.6,115.8 L461.3,115.2 L460.8,114.6 L460.1,115.2 L458.8,113.7 L458.4,114.8 L459.3,115.9 L458.8,116.4 L459.3,117 L459.8,116.5 L461.9,119 L462.7,119.8 C462.9,119.9 463.1,119.9 463.3,119.9 C463.5,119.9 463.8,119.7 464,119.5 C464.2,119.4 464.3,119.2 464.5,119 L463.8,118.4 C463.9,118.3 463.8,118.4 463.7,118.5 L463.7,118.5 L463.7,118.5 Z M463.7,118.5" class="Shape"/>
            <path d="M422.2,155.3 C421.4,155.3 420.8,155.6 420.3,156.1 C419.8,156.6 419.6,157.4 419.6,158.3 C419.6,159.2 419.8,159.9 420.3,160.5 C420.8,161 421.4,161.3 422.3,161.3 C423,161.3 423.5,161.1 423.9,160.8 C424.3,160.5 424.6,160 424.8,159.4 L423.8,159.3 C423.7,159.7 423.5,160 423.2,160.2 C423,160.4 422.6,160.5 422.3,160.5 C421.8,160.5 421.4,160.3 421.1,160 C420.8,159.7 420.6,159.2 420.6,158.6 L424.9,158.6 L424.9,158.3 C424.9,157.4 424.7,156.6 424.2,156.1 C423.5,155.5 422.9,155.3 422.2,155.3 L422.2,155.3 L422.2,155.3 Z M420.5,157.7 C420.5,157.2 420.7,156.8 421,156.5 C421.3,156.2 421.7,156.1 422.1,156.1 C422.6,156.1 423,156.3 423.3,156.7 C423.5,156.9 423.6,157.3 423.7,157.8 L420.5,157.7 L420.5,157.7 Z M417.3,158.4 C417.3,158.9 417.2,159.3 417.1,159.5 C417,159.8 416.8,160 416.6,160.1 C416.3,160.2 416.1,160.3 415.8,160.3 C415.5,160.3 415.3,160.2 415.1,160.1 C414.9,160 414.8,159.8 414.7,159.5 C414.7,159.3 414.6,159 414.6,158.5 L414.6,155.3 L413.6,155.3 L413.6,158.8 C413.6,159.2 413.6,159.5 413.7,159.7 C413.8,160 413.9,160.2 414,160.4 C414.1,160.6 414.4,160.8 414.7,160.9 C415,161 415.3,161.1 415.6,161.1 C416.4,161.1 417,160.8 417.4,160.1 L417.4,160.9 L418.3,160.9 L418.3,155.2 L417.3,155.2 L417.3,158.4 L417.3,158.4 Z M412.1,158.9 C412.3,158.4 412.4,157.8 412.4,157.2 C412.4,156.4 412.3,155.7 411.9,155.1 C411.6,154.5 411.1,154 410.6,153.7 C410,153.4 409.4,153.2 408.6,153.2 C407.9,153.2 407.2,153.4 406.6,153.7 C406,154 405.6,154.5 405.3,155.2 C405,155.9 404.8,156.5 404.8,157.3 C404.8,158.1 405,158.8 405.3,159.4 C405.6,160 406.1,160.5 406.6,160.9 C407.2,161.2 407.8,161.4 408.5,161.4 C409.2,161.4 409.9,161.2 410.4,160.9 C411,161.3 411.5,161.7 412.1,161.9 L412.4,161.2 C412,161 411.5,160.8 411.1,160.5 C411.6,159.9 411.9,159.4 412.1,158.9 L412.1,158.9 L412.1,158.9 Z M410.4,159.7 C410,159.4 409.5,159.1 408.9,158.9 L408.6,159.7 C409,159.8 409.3,159.9 409.6,160.2 C409.3,160.3 408.9,160.4 408.5,160.4 C407.7,160.4 407.1,160.1 406.6,159.6 C406.1,159.1 405.8,158.3 405.8,157.2 C405.8,156.1 406.1,155.4 406.6,154.8 C407.1,154.3 407.8,154 408.5,154 C409,154 409.5,154.1 409.9,154.4 C410.3,154.7 410.6,155 410.9,155.5 C411.1,156 411.2,156.5 411.2,157.2 C411.3,158.3 411,159.1 410.4,159.7 L410.4,159.7 L410.4,159.7 Z M436.3,155.9 C436.2,155.7 435.9,155.5 435.7,155.4 C435.4,155.3 435.1,155.2 434.8,155.2 C434,155.2 433.4,155.5 433,156.1 L433,155.3 L432.1,155.3 L432.1,161 L433.1,161 L433.1,158 C433.1,157.3 433.2,156.8 433.5,156.5 C433.8,156.2 434.2,156.1 434.6,156.1 C434.9,156.1 435.1,156.2 435.3,156.3 C435.5,156.4 435.6,156.6 435.7,156.8 C435.8,157 435.8,157.3 435.8,157.7 L435.8,161.2 L436.8,161.2 L436.8,157.7 C436.8,157.3 436.8,156.9 436.7,156.8 C436.6,156.4 436.5,156.1 436.3,155.9 L436.3,155.9 L436.3,155.9 Z M465.4,158.7 L465.4,157.4 L465.4,156.5 C465.3,156.2 465.2,156 465.1,155.8 C465,155.6 464.7,155.5 464.4,155.4 C464.1,155.3 463.7,155.2 463.2,155.2 C462.7,155.2 462.3,155.3 461.9,155.4 C461.5,155.5 461.2,155.7 461,156 C460.8,156.2 460.7,156.6 460.6,157 L461.5,157.1 C461.6,156.7 461.8,156.4 462,156.3 C462.2,156.1 462.6,156.1 463,156.1 C463.5,156.1 463.9,156.2 464.1,156.4 C464.3,156.6 464.4,156.8 464.4,157.2 L464.4,157.5 C464,157.6 463.5,157.7 462.7,157.8 C462.3,157.8 462,157.9 461.8,157.9 C461.5,158 461.3,158.1 461.1,158.2 C460.9,158.3 460.7,158.5 460.6,158.8 C460.5,159 460.4,159.3 460.4,159.6 C460.4,160.1 460.6,160.5 460.9,160.8 C461.2,161.1 461.7,161.3 462.3,161.3 C462.7,161.3 463,161.2 463.4,161.1 C463.7,161 464.1,160.8 464.4,160.5 C464.4,160.8 464.5,161 464.6,161.2 L465.6,161.2 C465.5,161 465.4,160.8 465.4,160.5 L465.4,158.7 L465.4,158.7 L465.4,158.7 Z M464.4,158.6 C464.4,159 464.3,159.3 464.2,159.6 C464.1,159.9 463.8,160.1 463.6,160.3 C463.3,160.5 463,160.5 462.6,160.5 C462.2,160.5 461.9,160.4 461.7,160.2 C461.5,160 461.4,159.8 461.4,159.6 C461.4,159.4 461.4,159.3 461.5,159.1 C461.6,159 461.7,158.9 461.9,158.8 C462.1,158.7 462.3,158.7 462.7,158.6 C463.4,158.5 463.9,158.4 464.3,158.2 L464.4,158.6 L464.4,158.6 Z M457,155.3 C456.3,155.3 455.7,155.5 455.2,155.9 C454.6,156.4 454.3,157.2 454.3,158.2 C454.3,159.2 454.5,159.9 455,160.4 C455.5,160.9 456.1,161.2 456.9,161.2 C457.4,161.2 457.9,161.1 458.3,160.8 C458.7,160.6 459,160.2 459.3,159.8 C459.5,159.4 459.6,158.8 459.6,158.1 C459.6,157.2 459.4,156.5 458.9,156 C458.4,155.5 457.8,155.3 457,155.3 L457,155.3 L457,155.3 Z M458.2,159.9 C457.9,160.3 457.5,160.4 457,160.4 C456.5,160.4 456.1,160.2 455.8,159.9 C455.5,159.5 455.3,159 455.3,158.3 C455.3,157.6 455.5,157 455.8,156.7 C456.1,156.3 456.5,156.2 457,156.2 C457.5,156.2 457.9,156.4 458.2,156.7 C458.5,157.1 458.7,157.6 458.7,158.3 C458.7,159 458.5,159.5 458.2,159.9 L458.2,159.9 L458.2,159.9 Z M470.5,153.2 L470.5,156 C470.3,155.8 470.1,155.6 469.8,155.4 C469.5,155.3 469.2,155.2 468.9,155.2 C468.4,155.2 468,155.3 467.6,155.6 C467.2,155.8 466.9,156.2 466.7,156.7 C466.5,157.2 466.4,157.7 466.4,158.2 C466.4,158.8 466.5,159.3 466.7,159.8 C466.9,160.2 467.2,160.6 467.6,160.9 C468,161.2 468.4,161.3 468.9,161.3 C469.6,161.3 470.1,161 470.5,160.5 L470.5,161.2 L471.4,161.2 L471.4,153.3 L470.5,153.3 L470.5,153.2 L470.5,153.2 Z M470.2,159.9 C469.9,160.2 469.5,160.4 469.1,160.4 C468.7,160.4 468.3,160.2 468,159.9 C467.7,159.5 467.5,159 467.5,158.3 C467.5,157.5 467.6,157 467.9,156.6 C468.2,156.2 468.5,156.1 469,156.1 C469.4,156.1 469.8,156.3 470.1,156.6 C470.4,157 470.6,157.5 470.6,158.3 C470.6,159 470.5,159.6 470.2,159.9 L470.2,159.9 L470.2,159.9 Z M428.3,155.3 C427.5,155.3 426.9,155.6 426.4,156.1 C425.9,156.6 425.7,157.4 425.7,158.3 C425.7,159.2 425.9,159.9 426.4,160.5 C426.9,161 427.5,161.3 428.4,161.3 C429.1,161.3 429.6,161.1 430,160.8 C430.4,160.5 430.7,160 430.9,159.4 L429.9,159.3 C429.8,159.7 429.6,160 429.3,160.2 C429.1,160.4 428.7,160.5 428.4,160.5 C427.9,160.5 427.5,160.3 427.2,160 C426.9,159.7 426.7,159.2 426.7,158.6 L431,158.6 L431,158.3 C431,157.4 430.8,156.6 430.3,156.1 C429.7,155.5 429,155.3 428.3,155.3 L428.3,155.3 L428.3,155.3 Z M426.7,157.7 C426.7,157.2 426.9,156.8 427.2,156.5 C427.5,156.2 427.9,156.1 428.3,156.1 C428.8,156.1 429.2,156.3 429.5,156.7 C429.7,156.9 429.8,157.3 429.9,157.8 L426.7,157.7 L426.7,157.7 Z M451.6,157.9 C451.5,157.8 451.2,157.6 451,157.5 C451.8,157.4 452.3,157.2 452.7,156.8 C453.1,156.4 453.2,155.9 453.2,155.4 C453.2,155 453.1,154.6 452.9,154.2 C452.7,153.8 452.4,153.6 452,153.4 C451.6,153.3 451.1,153.2 450.4,153.2 L446.9,153.2 L446.9,161.1 L447.9,161.1 L447.9,157.6 L449.1,157.6 L449.7,157.6 C449.9,157.6 450,157.7 450.2,157.8 C450.4,157.9 450.5,158.1 450.7,158.3 C450.9,158.5 451.1,158.9 451.5,159.4 L452.5,161 L453.8,161 L452.4,158.9 C452.2,158.5 451.9,158.2 451.6,157.9 L451.6,157.9 L451.6,157.9 Z M450.1,156.7 L447.9,156.7 L447.9,154.1 L450.4,154.1 C451,154.1 451.4,154.2 451.7,154.5 C452,154.7 452.1,155 452.1,155.4 C452.1,155.7 452,155.9 451.9,156.1 C451.8,156.3 451.6,156.5 451.3,156.6 C451,156.7 450.6,156.7 450.1,156.7 L450.1,156.7 L450.1,156.7 Z M441.6,158.1 C441.3,158 440.9,157.8 440.2,157.7 C439.7,157.6 439.4,157.5 439.3,157.5 C439.1,157.4 439,157.3 438.9,157.2 C438.8,157.1 438.8,157 438.8,156.9 C438.8,156.7 438.9,156.5 439.1,156.4 C439.3,156.3 439.6,156.2 440.1,156.2 C440.5,156.2 440.8,156.3 441,156.4 C441.2,156.6 441.3,156.8 441.4,157.1 L442.3,157 C442.2,156.6 442.1,156.3 442,156.1 C441.8,155.9 441.6,155.7 441.2,155.6 C440.9,155.5 440.5,155.4 440,155.4 C439.7,155.4 439.4,155.4 439.2,155.5 C438.9,155.6 438.7,155.7 438.6,155.8 C438.4,155.9 438.2,156.1 438.1,156.3 C438,156.5 437.9,156.8 437.9,157 C437.9,157.3 438,157.5 438.1,157.8 C438.2,158 438.4,158.2 438.7,158.3 C439,158.4 439.5,158.6 440.2,158.8 C440.7,158.9 441.1,159 441.2,159.1 C441.4,159.2 441.5,159.4 441.5,159.6 C441.5,159.8 441.4,160.1 441.2,160.2 C441,160.4 440.7,160.5 440.2,160.5 C439.8,160.5 439.4,160.4 439.2,160.2 C439,160 438.8,159.7 438.8,159.3 L437.8,159.4 C437.9,160 438.2,160.5 438.5,160.8 C438.8,161.1 439.5,161.3 440.2,161.3 C440.6,161.3 441,161.2 441.4,161.1 C441.8,160.9 442,160.7 442.2,160.4 C442.4,160.1 442.5,159.8 442.5,159.5 C442.5,159.2 442.4,158.9 442.3,158.7 C442.1,158.4 441.9,158.2 441.6,158.1 L441.6,158.1 L441.6,158.1 Z M441.6,158.1" class="Shape"/>
            <path d="M57.4,336.4 L55.6,335.1 L58.7,333.2 L55.8,331.1 L52.7,333 L51.1,331.8 L48.1,337.9 L57.4,336.4" class="Shape"/>
            <path d="M5,346.8 C4.5,346.9 4,346.9 3.4,346.7 C3,346.5 2.6,346.2 2.3,345.8 C2,345.4 1.9,344.9 1.9,344.4 C1.9,343.9 2.1,343.3 2.3,342.7 C2.5,342.2 2.8,341.8 3.1,341.4 C3.5,341 3.9,340.8 4.4,340.7 C4.9,340.6 5.4,340.7 6,340.9 C6.5,341.1 6.8,341.4 7,341.8 C7.2,342.2 7.3,342.7 7.2,343.3 L8.2,343.5 C8.3,342.8 8.2,342.1 7.9,341.5 C7.6,340.9 7,340.5 6.3,340.1 C5.7,339.8 5,339.7 4.4,339.8 C3.7,339.9 3.1,340.1 2.6,340.5 C2.1,340.9 1.6,341.5 1.3,342.3 C1,343 0.8,343.7 0.8,344.4 C0.8,345.1 1,345.7 1.3,346.3 C1.6,346.8 2.2,347.3 3,347.6 C3.7,347.9 4.5,348 5.2,347.8 C5.9,347.6 6.5,347.2 7.1,346.5 L6.3,345.8 C5.9,346.4 5.5,346.7 5,346.8 L5,346.8 L5,346.8 Z M20.1,340.5 L20.4,339.8 C20.5,340.5 20.9,340.9 21.5,341.2 C22.1,341.5 22.8,341.5 23.4,341.2 C24.1,340.9 24.6,340.3 25,339.4 C25.2,339 25.3,338.6 25.3,338.3 C25.3,337.9 25.3,337.6 25.2,337.3 C25.1,337 25,336.7 24.7,336.4 C24.5,336.1 24.2,335.9 23.9,335.8 C23.3,335.5 22.7,335.6 22.2,335.9 L23.3,333.3 L22.4,332.9 L19.2,340.1 L20.1,340.5 L20.1,340.5 Z M21.3,337.9 C21.6,337.3 21.9,336.8 22.4,336.6 C22.8,336.4 23.2,336.4 23.6,336.5 C24,336.7 24.2,337 24.4,337.4 C24.5,337.8 24.4,338.4 24.1,339.1 C23.8,339.8 23.4,340.2 23,340.4 C22.6,340.6 22.2,340.6 21.8,340.5 C21.3,340.3 21,339.9 21,339.3 C20.9,339 21,338.5 21.3,337.9 L21.3,337.9 L21.3,337.9 Z M9.1,328.3 L8.5,335.3 L9.4,335.7 L14.2,330.6 L11.5,336.6 L12.4,337 L15.6,329.8 L14.3,329.2 L10.3,333.4 C9.9,333.8 9.6,334.2 9.4,334.4 C9.4,334.1 9.5,333.7 9.5,333.2 L10.1,327.3 L8.7,326.7 L5.5,333.9 L6.4,334.3 L9.1,328.3 L9.1,328.3 Z M25.8,343 L28.1,337.8 L27.2,337.4 L24.9,342.6 L25.8,343 L25.8,343 Z M14.5,334.9 C14.1,335.8 14,336.6 14.3,337.2 C14.5,337.9 15,338.4 15.8,338.7 C16.3,338.9 16.7,339 17.2,338.9 C17.7,338.9 18.1,338.7 18.5,338.4 C18.9,338.1 19.2,337.6 19.5,337 C19.9,336.2 19.9,335.4 19.7,334.8 C19.5,334.1 19,333.6 18.3,333.3 C17.7,333 17,333 16.4,333.1 C15.6,333.3 15,333.9 14.5,334.9 L14.5,334.9 L14.5,334.9 Z M16.5,334 C16.9,333.8 17.4,333.8 17.8,334 C18.2,334.2 18.5,334.5 18.7,335 C18.8,335.5 18.8,336 18.5,336.7 C18.2,337.4 17.8,337.8 17.4,338 C17,338.2 16.5,338.2 16.1,338 C15.7,337.8 15.4,337.5 15.2,337 C15.1,336.5 15.1,336 15.4,335.3 C15.7,334.6 16.1,334.2 16.5,334 L16.5,334 L16.5,334 Z M28,344 L31.2,336.8 L30.3,336.4 L27.1,343.6 L28,344 L28,344 Z M29,335.8 L28.1,335.4 L27.6,336.4 L28.5,336.8 L29,335.8 L29,335.8 Z M33.4,337.8 L32.5,337.4 L32,338.4 L32.9,338.8 L33.4,337.8 L33.4,337.8 Z M60.1,360.7 L61.2,358.2 C61.3,358.5 61.4,358.7 61.6,358.9 C61.8,359.1 62,359.3 62.3,359.4 C62.7,359.6 63.1,359.6 63.6,359.6 C64.1,359.5 64.5,359.3 64.9,359 C65.3,358.7 65.6,358.2 65.8,357.7 C66,357.2 66.1,356.7 66.2,356.2 C66.2,355.7 66.1,355.3 65.9,354.9 C65.7,354.5 65.3,354.2 64.9,354 C64.6,353.8 64.2,353.8 63.9,353.8 C63.6,353.8 63.3,353.9 63,354.1 L63.3,353.4 L62.5,353 L59.3,360.2 L60.1,360.7 L60.1,360.7 Z M62,356.1 C62.3,355.4 62.7,355 63.1,354.8 C63.5,354.6 64,354.5 64.3,354.7 C64.7,354.9 64.9,355.2 65.1,355.6 C65.2,356.1 65.1,356.6 64.8,357.3 C64.5,358 64.1,358.4 63.7,358.7 C63.3,358.9 62.9,358.9 62.5,358.7 C62.1,358.5 61.9,358.2 61.7,357.8 C61.6,357.3 61.7,356.8 62,356.1 L62,356.1 L62,356.1 Z M30.2,345 L32.5,339.8 L31.6,339.4 L29.3,344.6 L30.2,345 L30.2,345 Z M56.5,356.9 C57,357.1 57.4,357.2 57.9,357.1 C58.4,357.1 58.8,356.9 59.2,356.6 C59.6,356.3 59.9,355.8 60.2,355.2 C60.6,354.4 60.6,353.6 60.4,353 C60.2,352.3 59.7,351.8 59,351.5 C58.4,351.2 57.7,351.2 57.1,351.4 C56.4,351.6 55.8,352.2 55.3,353.2 C54.9,354.1 54.8,354.9 55.1,355.5 C55.3,356.1 55.8,356.5 56.5,356.9 L56.5,356.9 L56.5,356.9 Z M56.2,353.5 C56.5,352.8 56.9,352.4 57.3,352.2 C57.7,352 58.2,352 58.6,352.2 C59,352.4 59.3,352.7 59.5,353.2 C59.7,353.7 59.6,354.2 59.3,354.9 C59,355.6 58.6,356 58.2,356.2 C57.8,356.4 57.3,356.4 56.9,356.2 C56.5,356 56.2,355.7 56,355.2 C55.8,354.7 55.9,354.1 56.2,353.5 L56.2,353.5 L56.2,353.5 Z M43.5,350.7 C43.9,351.1 44.4,351.4 45,351.7 C45.5,351.9 46,352 46.5,352 C47,352 47.4,351.9 47.8,351.6 C48.2,351.4 48.4,351 48.6,350.7 C48.8,350.3 48.8,349.9 48.8,349.5 C48.7,349.1 48.5,348.7 48.2,348.4 C48,348.1 47.5,347.8 46.8,347.2 C46.1,346.7 45.7,346.3 45.6,346 C45.5,345.8 45.5,345.5 45.6,345.2 C45.7,344.9 46,344.7 46.3,344.6 C46.7,344.5 47.1,344.6 47.7,344.8 C48.3,345 48.6,345.3 48.8,345.7 C49,346.1 49,346.5 48.8,347 L49.7,347.3 C49.9,346.9 49.9,346.4 49.9,346 C49.8,345.6 49.6,345.2 49.3,344.8 C49,344.4 48.5,344.2 48,343.9 C47.5,343.7 47,343.6 46.6,343.6 C46.1,343.6 45.7,343.7 45.4,343.9 C45.1,344.1 44.8,344.4 44.6,344.8 C44.5,345.1 44.4,345.5 44.5,345.8 C44.5,346.1 44.7,346.5 45,346.8 C45.2,347.1 45.6,347.4 46.2,347.9 C46.8,348.4 47.2,348.7 47.3,348.8 C47.5,349 47.7,349.3 47.8,349.5 C47.9,349.7 47.8,350 47.7,350.2 C47.6,350.4 47.4,350.6 47.2,350.7 C47,350.8 46.7,350.9 46.4,350.9 C46.1,350.9 45.7,350.8 45.4,350.6 C45,350.4 44.7,350.2 44.4,349.9 C44.1,349.6 44,349.3 43.9,349 C43.8,348.7 43.9,348.4 44,348 L43.1,347.7 C42.9,348.2 42.8,348.7 42.9,349.2 C42.9,349.9 43.1,350.3 43.5,350.7 L43.5,350.7 L43.5,350.7 Z M54.9,350.7 C54.9,350.4 54.8,350.1 54.6,349.8 C54.4,349.5 54.1,349.3 53.7,349.1 C53.1,348.8 52.4,348.8 51.8,349.1 L52.9,346.5 L52,346.1 L48.8,353.3 L49.7,353.7 L51,350.8 C51.2,350.4 51.4,350.1 51.6,349.9 C51.8,349.7 52,349.6 52.3,349.6 C52.6,349.6 52.9,349.6 53.1,349.7 C53.4,349.9 53.7,350.1 53.8,350.4 C53.9,350.7 53.9,351.1 53.7,351.5 L52.2,354.8 L53.1,355.2 L54.6,351.9 C54.8,351.4 54.9,351 54.9,350.7 L54.9,350.7 L54.9,350.7 Z M48.4,362.6 C48.5,362.3 48.5,362.1 48.4,361.9 C48.3,361.7 48.2,361.5 48,361.2 C47.8,361 47.4,360.8 47,360.6 C46.6,360.4 46.1,360.3 45.7,360.3 C45.3,360.3 45,360.3 44.7,360.5 C44.4,360.6 44.2,360.9 43.9,361.2 L44.7,361.7 C45,361.4 45.2,361.2 45.5,361.1 C45.8,361 46.1,361.1 46.5,361.3 C46.9,361.5 47.2,361.7 47.4,362 C47.5,362.2 47.5,362.5 47.3,362.9 C47.3,362.9 47.2,363 47.2,363.1 C46.8,363.1 46.2,362.9 45.5,362.7 C45.1,362.6 44.8,362.5 44.7,362.5 L43.9,362.5 C43.7,362.5 43.4,362.6 43.2,362.8 C43,363 42.8,363.2 42.7,363.4 C42.5,363.8 42.5,364.3 42.7,364.7 C42.9,365.1 43.3,365.5 43.8,365.7 C44.1,365.9 44.5,365.9 44.9,366 C45.3,366 45.7,366 46.1,365.8 C46,366.1 46,366.3 46,366.5 L46.9,366.9 C46.9,366.7 46.9,366.4 47,366.2 C47.1,366 47.3,365.4 47.6,364.6 L48.1,363.4 C48.3,363 48.4,362.7 48.4,362.6 L48.4,362.6 L48.4,362.6 Z M46.8,364.1 C46.6,364.5 46.4,364.8 46.3,364.9 C46.1,365.1 45.8,365.2 45.4,365.3 C45.1,365.3 44.7,365.3 44.4,365.1 C44.1,364.9 43.8,364.8 43.7,364.5 C43.6,364.3 43.6,364 43.7,363.8 C43.8,363.6 43.9,363.5 44,363.4 C44.1,363.3 44.3,363.3 44.5,363.3 C44.7,363.3 45,363.4 45.3,363.5 C46,363.7 46.5,363.8 46.9,363.8 L46.8,364.1 L46.8,364.1 Z M52.3,362.9 C52.1,362.8 51.9,362.8 51.7,362.8 C51.5,362.8 51.2,363 50.8,363.3 L51.2,362.5 L50.4,362.1 L48.1,367.3 L49,367.7 L50.2,365 C50.4,364.6 50.6,364.3 50.8,364 C51,363.8 51.1,363.7 51.3,363.7 C51.5,363.7 51.7,363.7 51.9,363.8 C52.1,363.9 52.3,364.1 52.5,364.3 L53.2,363.6 C52.8,363.3 52.6,363 52.3,362.9 L52.3,362.9 L52.3,362.9 Z M62,367.5 C62.2,367.1 62.2,366.8 62.2,366.4 C62.2,366 62.1,365.7 61.9,365.4 C61.7,365.1 61.5,364.9 61.2,364.7 C61,364.5 60.6,364.4 60.1,364.1 L57.4,362.9 L54.2,370.1 L55.2,370.5 L56.5,367.6 L58.3,368.4 C59.3,368.9 60.1,369 60.7,368.7 C61.3,368.5 61.7,368.1 62,367.5 L62,367.5 L62,367.5 Z M61,367.1 C60.8,367.5 60.5,367.8 60.2,367.9 C59.9,368 59.4,367.9 58.7,367.7 L56.8,366.9 L57.9,364.3 L59.7,365.1 C60.1,365.3 60.4,365.4 60.6,365.6 C60.8,365.8 61,366 61,366.3 C61.2,366.5 61.2,366.8 61,367.1 L61,367.1 L61,367.1 Z M76.2,373.7 L75.1,373.2 L72.1,374.4 L73.9,370.3 L73,369.9 L69.8,377.1 L70.7,377.5 L71.6,375.4 L72.5,375.1 L73,378.5 L74.1,379 L73.4,374.7 L76.2,373.7 L76.2,373.7 Z M70.3,372 C70.5,372.1 70.7,372.3 70.9,372.5 L71.6,371.8 C71.4,371.5 71.1,371.2 70.8,371.1 C70.6,371 70.4,371 70.2,371 C70,371 69.7,371.2 69.3,371.5 L69.7,370.7 L68.9,370.3 L66.6,375.5 L67.5,375.9 L68.7,373.2 C68.9,372.8 69.1,372.5 69.3,372.2 C69.5,372 69.6,371.9 69.8,371.9 C69.9,371.9 70.1,371.9 70.3,372 L70.3,372 L70.3,372 Z M66.9,370.8 C67,370.5 67,370.3 66.9,370.1 C66.8,369.9 66.7,369.7 66.5,369.4 C66.3,369.2 65.9,369 65.5,368.8 C65.1,368.6 64.6,368.5 64.2,368.5 C63.8,368.5 63.5,368.5 63.2,368.7 C62.9,368.9 62.7,369.1 62.4,369.4 L63.2,369.9 C63.5,369.6 63.7,369.4 64,369.3 C64.3,369.2 64.6,369.3 65,369.5 C65.4,369.7 65.7,369.9 65.9,370.2 C66,370.4 66,370.7 65.8,371.1 C65.8,371.1 65.7,371.2 65.7,371.3 C65.3,371.3 64.7,371.1 64,370.9 C63.6,370.8 63.3,370.7 63.2,370.7 L62.4,370.7 C62.2,370.7 61.9,370.8 61.7,371 C61.5,371.2 61.3,371.4 61.2,371.6 C61,372 61,372.5 61.2,372.9 C61.4,373.3 61.8,373.7 62.3,373.9 C62.6,374.1 63,374.1 63.4,374.2 C63.8,374.2 64.2,374.2 64.6,374 C64.5,374.3 64.5,374.5 64.5,374.7 L65.4,375.1 C65.4,374.9 65.4,374.6 65.5,374.4 C65.6,374.2 65.8,373.6 66.1,372.8 L66.6,371.6 C66.7,371.2 66.8,370.9 66.9,370.8 L66.9,370.8 L66.9,370.8 Z M65.2,372.3 C65,372.7 64.8,373 64.7,373.1 C64.5,373.3 64.2,373.4 63.8,373.5 C63.5,373.5 63.1,373.5 62.8,373.3 C62.5,373.1 62.2,373 62.1,372.7 C62,372.4 62,372.2 62.1,372 C62.2,371.8 62.3,371.7 62.4,371.6 C62.5,371.5 62.7,371.5 62.9,371.5 C63.1,371.5 63.4,371.6 63.7,371.7 C64.4,371.9 64.9,372 65.3,372 L65.2,372.3 L65.2,372.3 Z M33.9,345.7 C33.7,345.7 33.6,345.6 33.5,345.6 C33.4,345.5 33.3,345.5 33.2,345.4 C33.1,345.3 33.1,345.2 33.1,345.2 C33.1,345.1 33.2,344.9 33.3,344.7 L34.7,341.7 L35.6,342.1 L35.9,341.4 L35,341 L35.8,339.2 L34.7,339.3 L34.1,340.6 L33.5,340.3 L33.2,341 L33.8,341.3 L32.5,344.3 C32.3,344.8 32.1,345.2 32.1,345.4 C32.1,345.6 32.2,345.8 32.3,346 C32.4,346.2 32.7,346.3 33,346.5 C33.2,346.6 33.4,346.7 33.7,346.7 L33.9,345.7 L33.9,345.7 Z M26,355.3 C25.7,355.7 25.4,356 25.1,356.1 C24.8,356.2 24.4,356.2 24.1,356 C23.7,355.8 23.4,355.5 23.3,355.1 C23.2,354.7 23.3,354.1 23.6,353.4 C23.9,352.7 24.3,352.3 24.7,352.1 C25.1,351.9 25.6,351.9 26,352.1 C26.3,352.2 26.5,352.4 26.6,352.7 C26.7,353 26.8,353.3 26.7,353.7 L27.6,353.9 C27.7,353.3 27.7,352.8 27.5,352.4 C27.3,352 26.9,351.6 26.3,351.4 C25.9,351.2 25.4,351.1 24.9,351.2 C24.4,351.2 24,351.4 23.6,351.8 C23.2,352.1 22.9,352.6 22.7,353.2 C22.3,354.1 22.2,354.8 22.5,355.5 C22.7,356.2 23.2,356.6 23.9,357 C24.5,357.3 25,357.3 25.6,357.1 C26.1,356.9 26.6,356.6 27,356 L26,355.3 L26,355.3 Z M22.8,351.1 L23.5,350.4 C23.3,350.1 23,349.8 22.7,349.7 C22.5,349.6 22.3,349.6 22.1,349.6 C21.9,349.6 21.6,349.8 21.2,350.1 L21.6,349.3 L20.8,348.9 L18.5,354.1 L19.4,354.5 L20.6,351.8 C20.8,351.4 21,351.1 21.2,350.8 C21.4,350.6 21.5,350.5 21.7,350.5 C21.9,350.5 22.1,350.5 22.3,350.6 C22.5,350.7 22.6,350.9 22.8,351.1 L22.8,351.1 L22.8,351.1 Z M38.4,357.1 C38.7,356.7 39.2,356.5 39.7,356.4 C40.2,356.3 40.7,356.4 41.3,356.6 C41.8,356.8 42.1,357.1 42.3,357.5 C42.5,357.9 42.6,358.4 42.5,359 L43.5,359.2 C43.6,358.5 43.5,357.8 43.2,357.2 C42.9,356.6 42.3,356.2 41.6,355.8 C41,355.5 40.3,355.4 39.7,355.5 C39,355.6 38.4,355.8 37.9,356.2 C37.4,356.6 36.9,357.2 36.6,358 C36.3,358.7 36.1,359.4 36.1,360.1 C36.1,360.8 36.3,361.4 36.6,362 C36.9,362.5 37.5,363 38.3,363.3 C39,363.6 39.8,363.7 40.5,363.5 C41.2,363.3 41.8,362.9 42.4,362.2 L41.6,361.5 C41.2,362 40.7,362.4 40.2,362.5 C39.7,362.6 39.2,362.6 38.6,362.4 C38.2,362.2 37.8,361.9 37.5,361.5 C37.2,361.1 37.1,360.6 37.1,360.1 C37.1,359.6 37.3,359 37.5,358.4 C37.8,357.9 38.1,357.5 38.4,357.1 L38.4,357.1 L38.4,357.1 Z M18.5,348 L17.3,350.8 C17.1,351.2 16.9,351.6 16.7,351.8 C16.5,352 16.3,352.1 16,352.1 C15.7,352.1 15.4,352.1 15.2,352 C14.9,351.9 14.7,351.7 14.6,351.5 C14.5,351.3 14.4,351.1 14.5,350.8 C14.5,350.6 14.7,350.3 14.9,349.8 L16.2,346.9 L15.3,346.5 L13.9,349.7 C13.7,350.1 13.6,350.4 13.6,350.5 C13.5,350.8 13.5,351 13.6,351.3 C13.6,351.5 13.8,351.8 14,352 C14.2,352.2 14.5,352.4 14.8,352.6 C15.5,352.9 16.2,352.9 16.8,352.5 L16.5,353.3 L17.3,353.7 L19.6,348.5 L18.5,348 L18.5,348 Z M36.6,348 L40.9,343.6 L40,343.2 L37.5,345.7 C37.2,346 36.9,346.4 36.6,346.7 C36.7,346.2 36.7,345.8 36.8,345.3 L37.1,341.8 L36.1,341.4 L35.8,347.5 L35.6,347.7 C35.3,348 35.1,348.2 35,348.2 C34.9,348.3 34.7,348.3 34.6,348.3 C34.5,348.3 34.3,348.3 34.1,348.2 C34,348.1 33.8,348 33.6,347.9 L33.3,348.8 C33.5,349 33.7,349.1 33.8,349.2 C34.1,349.3 34.4,349.4 34.6,349.3 C34.9,349.3 35.1,349.1 35.4,348.9 C35.8,348.8 36.2,348.4 36.6,348 L36.6,348 L36.6,348 Z M12,345 C11.4,344.7 10.7,344.7 10.1,345 L11.2,342.4 L10.3,342 L7.1,349.2 L8,349.6 L9.3,346.7 C9.5,346.3 9.7,346 9.9,345.8 C10.1,345.6 10.3,345.5 10.6,345.5 C10.9,345.5 11.2,345.5 11.4,345.6 C11.8,345.8 12,346 12.1,346.3 C12.2,346.6 12.2,347 12,347.4 L10.5,350.7 L11.4,351.1 L12.9,347.8 C13.1,347.3 13.2,346.9 13.2,346.6 C13.2,346.3 13.1,346 12.9,345.7 C12.7,345.4 12.4,345.2 12,345 L12,345 L12,345 Z M31.6,353.7 C31,353.4 30.3,353.4 29.7,353.7 L30.8,351.1 L29.9,350.7 L26.7,357.9 L27.6,358.3 L28.9,355.4 C29.1,355 29.3,354.7 29.5,354.5 C29.7,354.3 29.9,354.2 30.2,354.2 C30.5,354.2 30.8,354.2 31,354.3 C31.4,354.5 31.6,354.7 31.7,355 C31.8,355.3 31.8,355.6 31.6,356.1 L30.1,359.4 L31,359.8 L32.5,356.5 C32.7,356 32.8,355.6 32.8,355.3 C32.8,355 32.7,354.7 32.5,354.4 C32.3,354.1 32,353.9 31.6,353.7 L31.6,353.7 L31.6,353.7 Z M31.6,353.7" class="Shape"/>
        </g>
        <g class="background">
            <path d="M362.3,145.3 L256.9,138.1 L158.6,134.6 C153.6,140.3 148.2,146.1 142.6,152.1 C131.5,163.9 122.9,172.3 117,177.3 C111.7,181.7 105.8,186 99.4,190.1 C96.2,192.2 86.8,197.3 86.8,197.3 L86.8,198.2 L96.5,203.7 L93.1,205.8 L82.7,199.9 L79.7,202.1 L79.8,203 L103.8,212.6 L104.4,212.8 L105.6,212.8 L106.4,212.6 L106.9,212.4 L107.2,212.2 L111.8,214.3 C110.5,215.1 108.9,215.7 107,215.9 C104.6,216.2 102.4,215.9 100.4,215.2 L76.3,205.6 L75.4,206 L75.5,206.9 L84.1,210.3 L80.6,213.3 L140.5,237 L157.2,237.4 L163.5,241 L232.4,240.6 L254.7,248.8 L365.8,178 L394.3,154.1 L395.3,152.3 L362.3,145.3 L362.3,145.3 Z M362.3,145.3" class="fill" fill="#CCCCCC"/>
            <path d="M259.7,66.3 C260.6,67.1 261.1,67.9 261.2,68.8 L261.1,68 C261,67 260.5,66.1 259.6,65.4 L251.8,60.2 L251.9,61.1 L259.2,65.9 L259.7,66.3 L259.7,66.3 Z M268.3,68.2 L268.6,68.2 C268.5,66.6 267.3,64.5 265.8,63.3 L265,62.7 L257.2,57.5 L257.3,58.4 L265.9,64.2 C267.4,65.4 268.2,66.7 268.3,68.2 L268.3,68.2 Z M465.2,40.3 C463.4,37.9 460.5,35.9 456.5,34.4 L450.8,32.9 L423,28.7 L419.9,29 C416.7,30.1 414.3,31.4 412.5,32.9 C410.6,34.5 409.5,36.3 409.3,38.2 L409.2,38.9 C409.1,39.8 409.6,40.6 410.6,41.2 C411.3,41.6 412.2,41.9 413.1,42.1 L412.6,42.1 L411.5,41.8 L410.6,41.4 C410.2,41.2 410,41 409.8,40.9 C409.2,40.4 408.8,39.8 408.8,39.1 L408.9,40 C408.9,40.6 409.2,41.2 409.9,41.7 L410.8,42.3 L411.7,42.7 L412.8,43 L419.3,43.1 L419.3,42.3 L419.7,42.3 L419.1,48.9 L414,48.8 C409.4,48.8 405.5,47.8 402.4,45.9 C399.3,43.9 397.9,41.6 398.1,38.8 L398.2,38.1 C398.5,34.6 396.2,32.5 391.2,31.8 L358.5,30.7 C343.2,30.8 326.6,32.4 308.7,35.4 C301.4,36.6 294.3,38.6 287.6,41.3 C283.8,42.9 280.9,44.2 279.2,45.4 L257.3,57.6 L264.3,62.6 C266.4,64 268.3,65.4 268.3,67.3 C268.4,69.2 267.9,71.3 266.1,72.8 C265.4,73.4 264.6,73.9 263.9,74.3 L261.1,75.8 L258.1,73.9 L260.8,72.4 L261.8,71.6 L262.6,70.6 L262.9,69.7 C263.2,69.2 263.4,68.6 263.4,68 C263.3,66.8 262.6,65.9 261.4,65 L253.5,59.7 L252,60.2 L258.2,64.5 C259.5,65.3 261.2,66.5 261.3,67.7 C261.3,68.8 261.2,70.1 260.1,71.1 L256.9,73 L253.9,71 L255.3,70.2 L255.5,70 L255.7,69.7 C255.8,69.6 255.9,69.4 255.9,69.2 L255.9,69.2 C256.1,69 256.2,68.7 256.2,68.4 C256.2,68 255.9,67.7 255.5,67.4 L247.5,62.8 C239.5,67.4 231.4,72 223.4,76.6 C219.6,78.9 215.3,81.6 210.6,84.7 C201.3,90.8 194.3,95.9 189.5,99.9 C183.9,104.6 175.6,113.4 164.8,126.2 L164.1,127 L230.2,129.6 L329.6,135.4 L365.8,139 L387.3,143.1 L400,146.5 L432.7,114.4 L478.2,78.1 L489.6,71.6 C476,54.4 468,44 465.2,40.3 L465.2,40.3 Z M465.2,40.3" class="fill" fill="#CCCCCC"/>
            <path d="M162.9,241.5 L156.6,237.9 L156.7,235.6 L159.7,218.6 L164.5,214.1 L166,205.2 L175.6,197.1 L181.8,194.6 L207.4,173.1 L211.4,172.3 L236.9,150.9 L241.2,145.3 L247.5,139.9 L248.1,136.4 L236.7,136 L198.6,168 L191.2,165 L179.7,174.7 L175.6,174.7 L171.3,178.3 L172.8,180.5 L148.8,200.6 L146.8,213.3 L142.6,218.4 L139.9,235.2 L139.8,237.7 L89.2,217.4 L80.6,224.6 L81,224.8 L80.9,224.9 L80.5,224.7 L80,225 L69.3,219.5 L38,245.7 L34.9,244.1 L4,269.9 L4.4,270.1 L4,270.4 L3.7,274 L10.2,276.9 L9.8,277.2 L6.8,275.8 L3.4,278.5 L3.8,278.7 L3.4,279 L3.1,282.6 L9.8,286.1 L3.8,300.1 L4,300.1 L3.8,300.6 L3.5,304.2 L104.4,334 L126.8,321.5 L131.3,319.8 L160.9,302.6 L180.5,297.6 L180.6,297.5 L254.2,249.3 L231.8,241.2 L162.9,241.5 L162.9,241.5 Z M400.1,93.5 L397.5,91.7 L401.7,91.9 L404,77.4 L392.6,76.9 L394.1,67.6 L372.9,66.8 L371.4,75.7 L354.6,75.1 L338.1,78.1 L321.4,85.1 L306.2,84.8 L256,110.1 L251.2,109.9 L224.2,91.3 L211.8,97.6 L233.9,112.7 L241.5,108.9 L246.2,112.1 L245.7,115.2 L239.9,118.1 L238.4,128.3 L249.5,129 L250,125.8 L255.2,123.2 L257.9,123.3 L274.3,115.1 L275.3,112.4 L311.7,94.2 L317.9,93.3 L327.1,92.7 L329.7,94.5 L357.2,95.5 L353.1,120.9 L367.8,121.6 L370.3,106.1 L381.1,106.7 L380.9,107.5 L387.1,107.8 L387.8,103.1 L400.6,103.6 L401.9,95.9 L399.8,95.8 L400.1,93.5 L400.1,93.5 Z M400.1,93.5" class="walkway"/>
            <path d="M159.7,193.2 L172.9,182.1 L172.9,182.2 L172.9,182.1 L173,182 L172.8,178.7 L175.7,176.3 L179.8,176.3 L187.4,170 L187.2,166.4 L179.6,172.7 L175.6,172.7 L173.4,174.5 L143.5,162.6 L143.7,166.2 L171.5,177.2 L171.5,178.2 L171.4,178.2 L171.5,179.7 L159.6,189.7 L159.5,189.6 L126.9,176.7 L127.1,180.3 L156.7,192.1 L156,192.7 L139.6,186.2 L139.8,189.7 L153.2,195 L152.3,195.8 L135.9,189.3 L136.1,192.9 L149.7,198.3 L149.1,198.8 L134.9,193.2 L135.1,196.8 L148.6,202.2 L148.1,205.3 L129.5,197.9 L129.7,201.5 L147.6,208.6 L147.1,211.7 L124.1,202.5 L124.3,206.1 L145,214.3 L142.9,216.8 L118.7,207.2 L118.9,210.8 L142.4,220.1 L142,222.4 L122,214.5 L121.9,214.5 L113.8,211.3 L114,214.9 L119.2,216.9 L112.3,222.6 L104.1,219.4 L104.2,222.9 L80.3,213.4 L80.4,214.3 L140.2,238 L140.6,235.5 L143,220.4 L147.2,215.3 L149.3,202.6 L152.8,199.7 L152.7,199.5 L156.3,196.5 L156.4,196.5 L159.9,193.5 L159.7,193.2 L159.7,193.2 Z M181.1,150.2 L181.1,148.8 L166.9,143.1 L167.1,146.6 L180.2,151.8 L180.3,153.2 L203.1,162.3 L198.7,166 L172.9,155.8 L173.1,159.3 L198.9,169.6 L237,137.7 L236.8,134.1 L232.8,137.3 L216.4,137.1 L216.2,134 L215.8,137.1 L216,140.6 L224.8,144.1 L222.3,146.2 L189,133 L189.2,136.6 L219.5,148.6 L217,150.7 L179.4,135.7 L179.6,139.3 C191.1,143.9 202.7,148.5 214.2,153.1 L211.7,155.2 L171.6,139.3 L171.8,142.9 L208.9,157.6 L206.1,160 L181.1,150.2 L181.1,150.2 Z M184.7,178 L190.5,180.6 L194.5,176.9 L194.5,173.9 L190.5,177.8 L184.8,175 L184.7,178 L184.7,178 Z M301.2,193.8 L302.2,187.6 L302,184 L301,190.2 L301.2,193.8 L301.2,193.8 Z M393.9,154.1 L391.8,155.8 L393.7,154.2 L394.6,152.6 L394.5,149 L393.6,150.6 L386.7,156.5 L359.5,154 L362.1,145.6 L361.9,142.1 L358.3,153.9 L358.5,157.5 L383,159.7 L373.5,167.7 L308.6,163.2 L308.8,166.7 L373.6,171.3 L365.6,178 L331.7,199.5 L331.5,196 L313.8,207 L213.2,203.2 L215.8,187.2 L215.7,183.6 L213.5,183.9 L202.1,179.4 L207.4,174.9 L211.4,174 L218.7,167.8 L285,170.3 L282.9,183.3 L283.1,186.9 L287.7,158.1 L310.3,159.6 L310.1,156.1 L288.3,154.6 L289.2,148.9 L289,145.4 L245.2,143.7 L247.4,141.8 L248,138.2 L247.9,136.5 L247.3,140 L243.1,143.6 L240.9,143.5 L241,145.3 L238.1,149.1 L236.6,149 L236.7,150.8 L236.6,150.9 L232.8,154.1 L230.6,154 L230.7,155.9 L227,159 L224.8,158.9 L224.9,160.8 L220.5,164.5 L218.3,164.4 L218.4,166.3 L211.1,172.4 L207.1,173.2 L200.4,178.9 L198.8,178.3 L198.9,180.1 L195.8,182.7 L194.3,182.1 L194.4,183.9 L191.3,186.5 L189.8,185.9 L189.9,187.8 L183.1,193.4 L181.6,192.8 L181.7,194.6 L181.6,194.7 L175.4,197.2 L165.8,205.3 L164.6,212.4 L164.2,212.4 L164.3,214 L164.3,214.2 L161.4,216.9 L159.5,216.8 L159.6,218.6 L159.5,218.7 L159.1,221 L159,221 L159.1,222.2 L158.6,225.1 L158.4,225.1 L158.4,226.1 L156.8,235.7 L156.7,238 L163,241.6 L231.9,241.3 L254.3,249.4 L365.5,178.9 L394,155 L395,153.2 L395,152.3 L393.9,154.1 L393.9,154.1 Z M304,216.8 L303.8,213.2 L254,244.9 L231.8,236.8 L179.5,236.7 L179.5,240.6 L167.8,240.7 L171,221 L171,221.7 L182.6,222.1 L182.5,218.6 L171.5,218.2 L171.8,216.2 L171.8,216 L171.9,216 L171.7,212.5 L165.2,212.2 L166.1,206.9 L175.7,198.9 L181.9,196.4 L182,196.3 L196.4,202 L204.6,195.1 L208,196.4 L213.6,196.6 L212.6,203 L212.8,206.6 L314,210.4 L304,216.8 L304,216.8 Z M304,216.8" class="wall"/>
            <path d="M259.4,120.1 L259.3,116.5 L252.4,120 L246.3,115.9 L246.5,119.4 L252.6,123.5 L259.4,120.1 L259.4,120.1 Z M195.9,114.7 L195.7,111.1 L191,107.9 L191.2,111.4 L195.9,114.7 L195.9,114.7 Z M198,108.1 L197.8,104.6 L194.9,102.6 L195.1,106.1 L198,108.1 L198,108.1 Z M460.1,66.1 L459.9,62.5 L459.2,66.9 L459.4,70.4 L460.1,66.1 L460.1,66.1 Z M457.4,59.7 L457.2,56.1 L456.2,62.4 L456.4,65.9 L457.4,59.7 L457.4,59.7 Z M424,50.6 L423.8,47 L422.6,54.8 L422.7,58.4 L424,50.6 L424,50.6 Z M356.1,84.2 L355.5,88.1 L344,87.9 L343.9,91.1 L355.5,91.4 L356,88.5 L356.1,84.2 L356.1,84.2 Z M382,83.8 L381.9,80 L380.9,84.6 L369.4,84.4 L369.3,87.6 L380.9,87.9 L382,83.8 L382,83.8 Z M488.9,71.4 L477.9,77.6 L477.8,74.2 L477.3,74.5 L468.5,81.5 L459.5,77.9 L465.5,72.9 L465.3,69.4 L456.5,76.8 L456.7,80.4 L465.6,83.9 L461.8,86.9 L450.1,82.2 L443.8,82 L439.4,85.7 L403.3,84.3 L404.1,79.2 L404.1,79.1 L404.2,79.1 L430.7,66.7 L435.5,66.9 L436.8,59 L436.6,55.4 L435.3,63.4 L430.5,63.2 L404,75.6 L393.3,75.2 L394.2,69.5 L394.2,69.4 L394.3,69.4 L397.4,49.6 L397.2,46 L394.1,65.8 L385.9,65.5 L390.5,37.3 L390.3,33.7 L385.2,65.4 L372.8,64.9 L372,69.5 L367.4,69.3 L366.7,73.7 L354.6,73.2 L338.1,76.3 L321.4,83.3 L311.3,75.5 L302,80.2 L268.3,57 L268.4,60.5 L302.2,83.8 L302.2,83.7 L303.3,84.5 L298.4,87 L282.6,76.1 L282.8,79.7 L295.6,88.5 L290.7,90.9 L274.9,80 L275.1,83.6 L287.9,92.4 C286.3,93.2 284.6,94 283,94.8 L258.6,78 L258.8,81.6 L280,96.2 L275.8,98.3 L251.5,81.5 L251.7,85.1 L273,99.7 L268.8,101.8 L244.6,85.1 L244.7,88.7 L265.9,103.3 L261.7,105.4 L237.4,88.7 L237.6,92.3 L245.3,97.6 L238.1,101.3 L222.6,90.6 L222.8,94.1 L238.3,104.8 L239.9,103.9 L251.3,111.7 L256.1,111.9 L268.8,105.5 L268.8,105.3 L269,105.5 L306.5,86.8 L321.7,87.1 L338.4,80 L354.9,77 L367,77.4 L367,77.5 L383.1,78 L383.8,73.7 L383.6,70.1 L382.9,74.5 L367.6,73.9 L367.7,73.1 L372.4,73.3 L373.2,68.7 L394,69.6 L393.1,75.3 L392.8,75.3 L392.9,79 L403.9,79.3 L403.1,84.5 L402.8,84.4 L402.9,86 L402.2,90.2 L401.9,90.2 L401.9,91.8 L401.9,92 L397.7,91.8 L397.8,93.6 L400,93.7 L400.1,97.8 L400.5,95.3 L400.4,93.8 L402,93.9 L402.1,93.8 L433.1,95 L435.6,92.9 L435.8,96.1 L445.9,100.1 L440.5,104.4 L429.3,100 L415.1,97.5 L415.3,101 L429.5,103.5 L437.7,106.8 L435.6,108.5 L420.6,103.7 L420.8,107.2 L432.4,111 L432.2,111.1 L417.9,106.4 L418.1,110 L429.6,113.7 L423.9,119.2 L412.2,115.4 L412.4,119 L424.1,122.8 L424.6,122.3 L399.9,146.5 L387.3,143.1 L365.8,139 L358.2,138.2 L359.5,129.8 L359.3,126.2 L357.9,134.7 L350.7,134 L351.4,129.3 L357.2,129.6 L357.3,128.7 L357.2,125.2 L357,126 L351.2,125.7 L349.9,133.9 L336.8,132.6 L337.6,128 L337.4,124.4 L336.1,132.5 L330.1,131.8 L330.8,127.6 L330.6,124.1 L329.3,131.7 L316,130.9 L317,124.8 L316.9,123.1 L321.9,123.3 L322.1,123.4 L326,121.4 L353.4,122.4 L353.4,122.5 L368.5,123.6 L371,108 L381.2,108.2 L381.3,109.1 L387.5,109.3 L387.5,109.2 L388.2,104.6 L401,105.1 L402.3,97.4 L402.1,93.8 L400.9,101.4 L388.1,101 L387.3,105.7 L381.3,105.5 L381.2,104.6 L370.8,104.5 L370.5,105.9 L370.4,105.9 L368.1,120 L353.9,118.9 L357.4,97 L357.3,93.5 L357,95.4 L339.1,94.7 L339,92.8 L338.7,94.7 L329.8,94.4 L329.7,92.5 L329.4,94.1 L327.1,92.5 L320.4,92.9 L317.9,91.2 L318,93.1 L317.9,93.1 L311.7,94 L310.3,94.7 L308.7,93.6 L308.8,95.4 L303,98.3 L301.4,97.2 L301.4,99.1 L295.7,102 L294.1,100.9 L294.2,102.7 L288.4,105.6 L286.8,104.5 L286.9,106.4 L281.1,109.3 L279.5,108.2 L279.5,110 L275.1,112.2 L274.6,113.5 L274,113.1 L274,115 L268.3,117.9 L266.7,116.8 L266.8,118.6 L261.1,121.5 L257.6,121.4 L257.6,123.3 L254.9,123.2 L249.7,125.8 L249.5,127.1 L249.2,127.1 L249.3,129 L238.6,128.3 L239.9,119.8 L245.7,116.9 L246.2,113.8 L246.1,110.3 L245.8,111.9 L241.4,108.9 L236.4,111.4 L233.8,110.9 L233.9,112.8 L233.8,112.8 L211.7,97.7 L211.8,99.4 L233.9,114.6 L234.1,114.5 L240.7,115.9 L239.8,116.3 L227.5,115.9 L210.7,104.3 L210.9,107.9 L225.1,117.6 L225.3,117.8 L227.7,119.4 L239.4,119.8 L238.4,126.5 L215.4,125.5 L210,121.8 L206.3,123.7 L201.1,120.1 L200.3,120.4 L199.3,120.5 L199.1,120.5 L198.6,120.4 L198.5,120.4 L197.7,120.2 L197.4,120.1 L197,119.9 L195.4,118.8 L195.3,116.2 L191.4,113.5 L191.6,117.1 L194.5,119.1 L194.6,121.1 L194.7,121.4 L194.7,121.5 L194.9,121.8 L195.2,122.1 L197.3,123.5 L197.6,123.7 L197.7,123.8 L198.1,124 L198.7,124.1 L200.1,124.1 L200.5,124 L200.7,124 L201.3,123.8 L206.5,127.4 L210.2,125.5 L215.5,129.1 L163.8,127 L163.8,127.9 L229.9,130.5 L329.3,136.2 L329.3,136.3 L364.6,139.7 L364.9,139.7 L365.4,139.8 L387,143.9 L399.7,147.3 L432.4,115.2 L477.8,78.9 L489.2,72.4 L488.9,71.4 L488.9,71.4 Z M432.7,91.2 L402.3,90.1 L402.7,87.9 L402.7,87.7 L402.7,87.8 L435.3,89 L432.7,91.2 L432.7,91.2 Z M285.9,129.4 L286.7,125.2 L286.5,122.1 L302.3,122.7 L300.9,130.3 L285.9,129.4 L285.9,129.4 Z M301.7,130.4 L302.9,124.1 L302.8,122.8 L309.1,123 L307.9,130.8 L301.7,130.4 L301.7,130.4 Z M308.6,130.7 L309.5,124.7 L309.4,122.9 L316.1,123.1 L314.8,131 L308.6,130.7 L308.6,130.7 Z M438.7,109 L438.6,107 L440.4,107.7 L438.7,109 L438.7,109 Z M438.7,109" class="wall"/>
            <path d="M61.9,310.2 L61.6,313.8 L86.8,321 L102.6,307.4 L108.3,309.9 L93.7,321.3 L93.4,324.9 L104.5,334.1 L126.9,321.6 L127.2,318.1 L131.4,319.9 L161,302.7 L161.3,299.1 L105.7,274.1 L61.9,310.2 L61.9,310.2 Z M220.2,240.3 L220.2,240.3 L220.5,236.8 L156.6,236.8 L147.7,244 L142.2,278.7 L141.9,282.8 L166.1,294.2 L171.6,289.9 L180.6,297.6 L242.8,257.2 L243.1,253.6 L220.2,240.3 L220.2,240.3 Z M48.4,298.8 L48.6,296 L6.8,276.3 L3.4,279 L3.1,282.6 L10,286.1 L3.8,300.5 L3.5,304.1 L38.3,307.8 L44.7,302.5 L44.5,305.2 L48.6,307.3 L46.2,312.6 L45.9,316.2 L59,305 L59.3,301.4 L50.7,297 L48.4,298.8 L48.4,298.8 Z M139.9,237.5 L139.9,233.2 L92.6,214.5 L80.1,225.5 L69.3,220 L38,246.1 L34.9,244.5 L4,270.4 L3.7,274 L63.8,300.8 L139.9,237.5 L139.9,237.5 Z M139.9,237.5" class="wall"/>
        </g>
        <g class="ceilings">
            <path class="unit" d="M344.1,87.6 L347.4,84.1 L355.8,84.3 L355.1,87.8 L344.1,87.6 M380.6,84.3 L369.2,84.1 L370.5,79.5 L381.5,79.9 L380.6,84.3 M194,173.8 L190,169.9 L184.4,174.9 L190.2,177.6 L194,173.8" id="1001"/>
            <path class="unit" d="M430.8,62.9 L404.3,75.3 L392.9,74.9 L397.6,45.8 L424.2,46.8 L423,54.6 L436.9,55.1 L435.6,63.1 L430.8,62.9 L430.8,62.9 Z M430.8,62.9" id="1002"/>
            <path class="unit" d="M383.1,74.1 L367,73.5 L367.7,69.1 L383.8,69.7 L383.1,74.1 L383.1,74.1 Z M383.1,74.1" id="1003"/>
            <path class="unit" d="M307.9,77.2 L315.4,83 L306.5,82.9 L302.3,80 L307.9,77.2 L307.9,77.2 Z M307.9,77.2" id="1004"/>
            <path class="unit" d="M307.9,77.2 L311.5,75.3 L321.6,83.1 L315.4,82.9 L307.9,77.2 L307.9,77.2 Z M307.9,77.2" id="1005"/>
            <path class="unit" d="M337.2,30.8 L390.7,33.4 L385.6,65.1 L373.2,64.6 L372.4,69.2 L367.8,69 L367.1,73.4 L354.9,73 L338.3,76.1 L321.6,83.1 L311.5,75.3 L302.2,80 L268.4,56.8 L311.4,35.4 L313.9,36.2 L335.6,32.5 L337.2,30.8 L337.2,30.8 Z M337.2,30.8" id="1006"/>
            <path class="unit" d="M306.4,82.9 L298.6,86.8 L282.8,75.9 L290.6,72.1 L306.4,82.9 L306.4,82.9 Z M306.4,82.9" id="1007"/>
            <path class="unit" d="M469,81.3 L457,76.5 L465.8,69.1 L478.2,74 L477.7,74.3 L469,81.3 L469,81.3 Z M469,81.3" id="1008"/>
            <path class="unit" d="M460.3,62.3 L459.6,66.7 L465.8,69.1 L457,76.5 L469,81.3 L462.2,86.6 L450.5,81.9 L444.1,81.7 L439.7,85.4 L402.8,84 L404.2,75.3 L430.7,62.9 L435.5,63.1 L436.8,55.1 L457.6,55.9 L456.6,62.2 L460.3,62.3 L460.3,62.3 Z M460.3,62.3" id="1009"/>
            <path class="unit" d="M433,91 L401.9,89.8 L402.8,84 L439.6,85.4 L433,91 L433,91 Z M433,91" id="1010"/>
            <path class="unit" d="M258.7,77.8 L283,94.5 L275.9,98.1 L251.6,81.3 L258.7,77.8 L258.7,77.8 Z M258.7,77.8" id="1011"/>
            <path class="unit" d="M232.7,85.1 L248.3,95.8 L238.2,101 L222.7,90.3 L232.7,85.1 L232.7,85.1 Z M232.7,85.1" id="1012"/>
            <path class="unit" d="M444.1,81.7 L450.5,81.9 L462.3,86.6 L455,92.4 L438.9,86 L444.1,81.7 L444.1,81.7 Z M444.1,81.7" id="1013"/>
            <path class="unit" d="M329.8,92.5 L328.8,98.7 L318,91.2 L327.2,90.6 L329.8,92.5 L329.8,92.5 Z M329.8,92.5" id="1014"/>
            <path class="unit" d="M261.8,105.1 L237.5,88.4 L244.4,84.9 L268.7,101.6 L261.8,105.1 L261.8,105.1 Z M261.8,105.1" id="1015"/>
            <path class="unit" d="M251.2,107.9 L239.8,100.1 L248.2,95.8 L261.8,105.2 L261.9,105.3 L256,108.2 L251.2,107.9 L251.2,107.9 Z M251.2,107.9" id="1016"/>
            <path class="unit" d="M241.4,107 L246.1,110.2 L245.6,113.3 L233.9,110.8 L241.4,107 L241.4,107 Z M241.4,107" id="1017"/>
            <path class="unit" d="M435.5,108.1 L420.5,103.3 L423.2,100.5 L438.8,105.4 L435.5,108.1 L435.5,108.1 Z M435.5,108.1" id="1018"/>
            <path class="unit" d="M301.6,97.3 L308.8,93.7 L327.5,106.5 L326.3,114.3 L301.6,97.3 L301.6,97.3 Z M301.6,97.3" id="1019"/>
            <path class="unit" d="M432.2,110.7 L417.8,106 L420.5,103.3 L435.5,108.1 L432.2,110.7 L432.2,110.7 Z M432.2,110.7" id="1020"/>
            <path class="unit" d="M246.3,115.8 L253.3,112.3 L259.4,116.4 L252.4,119.9 L246.3,115.8 L246.3,115.8 Z M246.3,115.8" id="1021"/>
            <path class="unit" d="M275.3,110.4 L279.7,108.2 L295,118.7 L281.7,118.2 L274.3,113.1 L275.3,110.4 L275.3,110.4 Z M275.3,110.4" id="1022"/>
            <path class="unit" d="M287,104.6 L308.3,119.3 L295,118.8 L279.7,108.3 L287,104.6 L287,104.6 Z M287,104.6" id="1023"/>
            <path class="unit" d="M308.3,119.2 L287,104.6 L294.3,101 L321.6,119.8 L308.3,119.2 L308.3,119.2 Z M308.3,119.2" id="1024"/>
            <path class="unit" d="M337.8,100.6 L339.1,92.8 L357.4,93.5 L353.3,118.9 L338.5,118.4 L341.4,100.9 L337.8,100.6 L337.8,100.6 Z M337.8,100.6" id="1025"/>
            <path class="unit" d="M281,122.2 L274.5,121.9 L267,116.7 C269.4,115.5 271.9,114.3 274.3,113 L281.7,118.1 L281.6,118.1 L281,122.2 L281,122.2 Z M281,122.2" id="1026"/>
            <path class="unit" d="M358.3,87.9 L397.7,89.6 L400.4,91.4 L400,93.9 L402.1,94 L400.9,101.6 L388.1,101.2 L387.3,105.9 L381.1,105.7 L381.3,104.8 L370.9,104.7 L368.4,120.3 L353.3,119.1 L358.3,87.9 L358.3,87.9 Z M358.3,87.9" id="1027"/>
            <path class="unit" d="M195,102.4 L202.6,98.6 L227.5,115.7 L239.8,116.1 L238.3,126.3 L215.3,125.3 L209.9,121.6 L206.2,123.5 L201,119.9 L198.9,120.3 C198.1,120.3 197.5,120.1 197,119.7 L195,118.4 C194.6,118.1 194.3,117.8 194.3,117.4 C194.3,117 194.4,116.6 194.8,116.3 L195.2,116 L191.3,113.3 L195.9,111 L191.2,107.8 L198,104.4 L195,102.4 L195,102.4 Z M195,102.4" id="1028"/>
            <path class="unit" d="M423.7,118.8 L412,115 L420.1,106.8 L432.1,110.7 L423.7,118.8 L423.7,118.8 Z M423.7,118.8" id="1029"/>
            <path class="unit" d="M259.9,121.5 L258.9,127.7 L249.4,127.2 L249.9,124 L255.1,121.4 L259.9,121.5 L259.9,121.5 Z M259.9,121.5" id="1030"/>
            <path class="unit" d="M280.1,122.2 L281,122.3 L281.2,121.4 L286.7,121.6 L285.3,129.3 L279.7,129 L280.5,123.2 L280,123.1 L280.1,122.2 L280.1,122.2 Z M280.1,122.2" id="1031"/>
            <path class="unit" d="M287.1,119.8 L303,120.4 L302.9,120.8 L301.1,130.2 L285.3,129.3 L287.1,119.8 L287.1,119.8 Z M287.1,119.8" id="1032"/>
            <path class="unit" d="M302.9,120.8 L309.6,121.1 L308.1,130.6 L301.1,130.2 L302.9,120.8 L302.9,120.8 Z M302.9,120.8" id="1033"/>
            <path class="unit" d="M309.8,121 L316.8,121.2 L315.3,130.9 L308.2,130.6 L309.8,121 L309.8,121 Z M309.8,121" id="1034"/>
            <path class="unit" d="M316.4,123.5 L330.4,124 L329.1,131.6 L315.2,130.8 L316.4,123.5 L316.4,123.5 Z M316.4,123.5" id="1035"/>
            <path class="unit" d="M330.4,124.1 L337.2,124.3 L335.9,132.4 L329.2,131.7 L330.4,124.1 L330.4,124.1 Z M330.4,124.1" id="1036"/>
            <path class="unit" d="M337.2,124.3 L356.9,125.1 L356.7,125.9 L350.9,125.6 L349.6,133.8 L335.8,132.4 L337.2,124.3 L337.2,124.3 Z M337.2,124.3" id="1037"/>
            <path class="unit" d="M359,126 L357.6,134.6 L349.7,133.8 L351,125.6 L359,126 L359,126 Z M359,126" id="1038"/>
            <path class="unit" d="M215.7,137.1 L232.8,137.3 L227.5,141.7 L215.7,137.1 L215.7,137.1 Z M215.7,137.1" id="1039"/>
            <path class="unit" d="M222.1,146.2 L188.8,133 L216.1,134 L215.7,137.1 L227.5,141.8 L222.1,146.2 L222.1,146.2 Z M222.1,146.2" id="1040"/>
            <path class="unit" d="M173.6,137.4 L179.2,135.8 L216.8,150.8 L211.5,155.2 L171.4,139.2 L173.6,137.4 L173.6,137.4 Z M173.6,137.4" id="1042"/>
            <path class="unit" d="M289.4,145.2 L241.3,143.4 L241.2,143.5 L237,149 L231.1,153.9 L287.7,156 L288.5,150.8 L288.6,150.8 L289.4,145.2 L289.4,145.2 Z M289.4,145.2" id="1041"/>
            <path class="unit" d="M386.9,156.4 L358.4,153.8 L362.1,142.1 L394.7,148.9 L393.8,150.5 L386.9,156.4 L386.9,156.4 Z M386.9,156.4" id="1044"/>
            <path class="unit" d="M286.8,161.1 L225.2,158.8 L231,153.9 L287.6,156 L286.8,161.1 L286.8,161.1 Z M286.8,161.1" id="1045"/>
            <path class="unit" d="M180,149.7 L205.9,160 L198.7,166.1 L172.8,155.8 L180,149.7 L180,149.7 Z M180,149.7" id="1046"/>
            <path class="unit" d="M173.4,174.5 L143.5,162.6 L147.9,159 L153.7,161.3 L160.4,155.7 L187.3,166.4 L179.7,172.8 L175.6,172.8 L173.4,174.5 L173.4,174.5 Z M173.4,174.5" id="1047"/>
            <path class="unit" d="M159.4,189.5 L126.8,176.6 L143.5,162.6 L173.4,174.5 L171.4,176.3 L172.9,178.5 L159.6,189.6 L159.4,189.5 L159.4,189.5 Z M159.4,189.5" id="1048"/>
            <path class="unit" d="M159.4,189.5 L143,183 L139.4,186 L135.7,189.1 L135.8,189.1 L152.2,195.6 L155.9,192.5 L159.4,189.5 L159.4,189.5 Z M159.4,189.5" id="1050"/>
            <path class="unit" d="M207.8,192.9 L189.9,185.8 L194.5,182 L208.6,187.5 L215,187.8 L214.1,193.2 L207.8,192.9 L207.8,192.9 Z M207.8,192.9" id="1051"/>
            <path class="unit" d="M152.3,195.7 L148.8,198.6 L134.6,193 L135.6,189.2 L152.3,195.7 L152.3,195.7 Z M152.3,195.7" id="1052"/>
            <path class="unit" d="M123.7,202.2 L129.2,197.6 L147.8,205 L146.8,211.4 L123.7,202.2 L123.7,202.2 Z M123.7,202.2" id="1053"/>
            <path class="unit" d="M301.3,190.2 L318.9,190.9 L331.6,195.9 L314,207 L227.9,203.8" id="1054"/>
            <path class="unit" d="M228,203.7 L212.6,203.1 L215.8,183.5 M228,203.7 L230.2,184.2 L215.8,183.5" id="1055"/>
            <path class="unit" d="M215.8,183.6 L213.6,183.9 L199.1,178.2 L207.4,171.2 L211.5,170.3 L218.7,164.2 L285.9,166.7 L283.3,183.2 L302.3,183.9 L301.3,190.1" id="1056"/>
            <path class="unit" d="M123.7,202.2 L146.8,211.4 L142.5,216.5 L118.2,206.9 L123.7,202.2 L123.7,202.2 Z M123.7,202.2" id="1057"/>
            <path class="unit" d="M164.4,212.2 L171.6,212.5 L170.8,217.1 L159.6,216.7 L164.4,212.2 L164.4,212.2 Z M164.4,212.2" id="1058"/>
            <path class="unit" d="M121.6,214 L111.9,222.1 L103.7,218.9 L113.3,210.8 L121.6,214 L121.6,214 Z M121.6,214" id="1059"/>
            <path class="unit" d="M113.4,210.8 L118.2,206.8 L142.5,216.4 L141.6,221.9 L113.4,210.8 L113.4,210.8 Z M113.4,210.8" id="1060"/>
            <path class="unit" d="M159.6,216.7 L170.8,217.1 L170.1,221.3 L158.9,220.9 L159.6,216.7 L159.6,216.7 Z M159.6,216.7" id="1061"/>
            <path class="unit" d="M159,220.9 L170.2,221.3 L169.5,225.5 L158.3,225.1 L159,220.9 L159,220.9 Z M159,220.9" id="1062"/>
            <path class="unit" d="M121.6,214 L141.6,221.9 L140.7,227.5 L116.8,218 L121.6,214 L121.6,214 Z M121.6,214" id="1063"/>
            <path class="unit" d="M116.8,218.1 L140.7,227.6 L139.8,233.2 L111.9,222.2 L116.8,218.1 L116.8,218.1 Z M116.8,218.1" id="1064"/>
            <path class="unit" d="M290.8,90.6 L275,79.7 L282.8,75.8 L298.6,86.7 L290.8,90.6 L290.8,90.6 Z M290.8,90.6" id="1065"/>
            <path class="unit" d="M266.5,73.9 L290.8,90.6 L283,94.5 L258.7,77.8 L266.5,73.9 L266.5,73.9 Z M266.5,73.9" id="1066"/>
            <path class="unit" d="M251.6,81.3 L276,98.1 L268.9,101.6 L244.6,84.9 L251.6,81.3 L251.6,81.3 Z M251.6,81.3" id="1067"/>
            <path class="unit" d="M285.5,205.9 L212.6,203.2 L214.2,193.3 L207.8,193 L204.4,191.7 L196.2,198.6 L181.7,192.9 L175.5,195.4 L165.9,203.5 L164.4,212.4 L171.6,212.7 L170.8,218.2 L182.4,218.6 L182.4,218.7 L179.4,236.8 L231.8,237 L254.1,245.1 L304,213.4 L285.5,205.9 L285.5,205.9 Z M285.5,205.9" id="1068"/>
            <path class="unit" d="M318,91.2 L328.8,98.7 L327.5,106.5 L308.8,93.7 L311.8,92.2 L318,91.2 L318,91.2 Z M318,91.2" id="1069"/>
            <path class="unit" d="M429.3,99.6 L415,97.1 L416.2,93.2 L430.7,93.9 L438.6,97.1 L441.6,94.6 L448.8,97.4 L440.5,104.1 L429.3,99.6 L429.3,99.6 Z M429.3,99.6" id="1070"/>
            <path class="unit" d="M210.7,104.2 L218.6,100.3 L233.9,110.8 L245.6,113.3 L239.8,116.2 L227.5,115.8 L210.7,104.2 L210.7,104.2 Z M210.7,104.2" id="1071"/>
            <path class="unit" d="M329.8,92.5 L339.1,92.8 L337.8,100.6 L341.3,100.8 L338.4,118.3 L325.7,117.9 L329.8,92.5 L329.8,92.5 Z M329.8,92.5" id="1072"/>
            <path class="unit" d="M294.3,101 L301.6,97.3 L326.3,114.3 L325.7,117.9 L321.8,119.8 L294.3,101 L294.3,101 Z M294.3,101" id="1073"/>
            <path class="unit" d="M257.9,121.3 L267,116.7 L274.5,121.9 L257.9,121.3 L257.9,121.3 Z M257.9,121.3" id="1074"/>
            <path class="unit" d="M259.8,122.4 L270.2,122.8 L269.5,128.3 L259.1,127.8 L259.8,122.4 L259.8,122.4 Z M259.8,122.4" id="1075"/>
            <path class="unit" d="M270.1,122.8 L280.5,123.2 L279.7,128.9 L269.4,128.4 L270.1,122.8 L270.1,122.8 Z M270.1,122.8" id="1076"/>
            <path class="unit" d="M216.3,133.4 L236.8,134.1 L232.7,137.3 L215.6,137.1 L216.3,133.4 L216.3,133.4 Z M216.3,133.4" id="1077"/>
            <path class="unit" d="M188.8,133 L222.1,146.2 L216.8,150.7 L179.2,135.7 L188.8,133 L188.8,133 Z M188.8,133" id="1078"/>
            <path class="unit" d="M171.4,139.2 L211.6,155.2 L205.9,160 L180,149.7 L181.1,148.8 L166.8,143.2 L171.4,139.2 L171.4,139.2 Z M171.4,139.2" id="1079"/>
            <path class="unit" d="M285.9,166.8 L218.7,164.3 L225.2,158.8 L286.8,161.1 L285.9,166.8 L285.9,166.8 Z M285.9,166.8" id="1080"/>
            <path class="unit" d="M248.2,134.6 L362.1,142.1 L358.5,153.9 L387,156.5 L373.7,167.7 L308.7,163.2 L310.5,156.1 L288,154.6 L289.5,145.3 L241.4,143.5 L247.8,138.1 L248.2,134.6 L248.2,134.6 Z M248.2,134.6" id="1081"/>
            <path class="unit" d="M208.7,187.6 L194.6,182.1 L199.2,178.3 L213.7,184 L215.9,183.7 L215.2,188 L208.7,187.6 L208.7,187.6 Z M208.7,187.6" id="1082"/>
            <path class="unit" d="M190,185.9 L204.5,191.7 L196.3,198.6 L181.8,192.9 L190,185.9 L190,185.9 Z M190,185.9" id="1083"/>
            <path class="unit" d="M134.6,192.9 L148.8,198.5 L147.8,204.9 L129.2,197.5 L134.6,192.9 L134.6,192.9 Z M134.6,192.9" id="1084"/>
            <path class="unit" d="M441.9,87.2 L454.9,92.4 L448.8,97.3 L435.9,92.2 L441.9,87.2 L441.9,87.2 Z M441.9,87.2" id="1085"/>
            <path class="unit" d="M301.3,190.2 L318.9,190.9 L331.6,195.9 L314,207 L227.9,203.8 L230.1,184.3 L215.7,183.6 L213.5,183.9 L199,178.2 L207.3,171.2 L211.4,170.3 L218.6,164.2 L285.8,166.7 L283.2,183.2 L302.2,183.9 L301.3,190.2 L301.3,190.2 Z M301.3,190.2" id="1086"/>
            <path class="unit" d="M388.7,45.6 L397.5,45.8 L394.4,65.6 L385.5,65.3 L388.7,45.6 L388.7,45.6 Z M388.7,45.6" id="1087"/>
            <path class="unit" d="M158.3,225 L169.5,225.4 L167.7,236.6 L156.6,236.6 L158.3,225 L158.3,225 Z M158.3,225" id="1088"/>
            <path class="unit" d="M48.6,295.4 L38.6,303.7 L3.8,300 L11.3,282.5 L3.3,278.5 L6.8,275.8 L48.6,295.4 Z M48.6,295.4" id="1089"/>
            <path class="unit" d="M59.3,300.9 L46.2,312 L50,303.7 L44.8,301.1 L50.7,296.5 L59.3,300.9 Z M59.3,300.9" id="1090"/>
            <path class="unit" d="M139.9,233.2 L127.8,243 L80.7,224.5 L92.6,214.5 L139.9,233.2 Z M139.9,233.2" id="1091"/>
            <path class="unit" d="M112.3,256.2 L127.6,243.2 L80.6,224.6 L80,225 L69.3,219.5 L53.4,232.9 L112.3,256.2 Z M112.3,256.2" id="1092"/>
            <path class="unit" d="M53.2,233 L38,245.7 L34.9,244.1 L4,269.9 L64.1,296.8 L112.1,256.3 L53.2,233 Z M53.2,233" id="1093"/>
            <path class="unit" d="M116.1,323.5 L104.7,329.9 L93.6,320.7 L100.1,315.7 L116.1,323.5 Z M116.1,323.5" id="1094"/>
            <path class="unit" d="M127.1,317.4 L116.3,323.5 L100.2,315.6 L108.7,308.9 L127.1,317.4 Z M127.1,317.4" id="1095"/>
            <path class="unit" d="M161.1,298.5 L131.5,315.7 L122.7,311.9 L146.3,291.8 L161.1,298.5 Z M161.1,298.5" id="1096"/>
            <path class="unit" d="M146.1,291.8 L122.6,311.8 L110.9,306.8 L134.6,286.6 L146.1,291.8 Z M146.1,291.8" id="1097"/>
            <path class="unit" d="M134.5,286.6 L110.8,306.7 L102.9,303.2 L87.1,316.9 L79.2,314.7 L120,280 L134.5,286.6 Z M134.5,286.6" id="1098"/>
            <path class="unit" d="M119.8,280 L79,314.6 L61.9,309.7 L105.5,273.5 L119.8,280 Z M119.8,280" id="1099"/>
            <path class="unit" d="M218.7,236.8 L201.2,250.9 L146.9,248.6 L147.7,244 L156.6,236.9 L218.7,236.8 Z M218.7,236.8" id="1100"/>
            <path class="unit" d="M201.1,251 L186.8,262.5 L145.1,260.2 L147,248.7 L201.1,251 Z M201.1,251" id="1101"/>
            <path class="unit" d="M186.6,262.6 L174.8,272.1 L143.5,270.4 L145.1,260.4 L186.6,262.6 Z M186.6,262.6" id="1102"/>
            <path class="unit" d="M174.7,272.2 L166.1,275.2 L154.3,284.4 L142.1,278.7 L143.4,270.5 L174.7,272.2 Z M174.7,272.2" id="1103"/>
            <path class="unit" d="M183.3,276.6 L166.1,290 L154.5,284.5 L166.3,275.3 L174.8,272.3 L183.3,276.6 Z M183.3,276.6" id="1104"/>
            <path class="unit" d="M219.7,236.8 L217.8,238.4 L243,253.1 L227.2,263.3 L204.2,248.7 L219,236.8 L219.7,236.8 Z M219.7,236.8" id="1105"/>
            <path class="unit" d="M204,248.8 L227,263.4 L212.4,272.9 L191.3,259 L204,248.8 Z M204,248.8" id="1106"/>
            <path class="unit" d="M191.2,259.1 L212.2,273 L199.9,281 L180.2,267.9 L191.2,259.1 Z M191.2,259.1" id="1107"/>
            <path class="unit" d="M180,268 L199.8,281.1 L180.7,293.5 L171.7,285.8 L183.6,276.6 L174.9,272.1 L180,268 Z M180,268" id="1108"/>
        </g>
    </g>
</svg>