<?xml version="1.0" encoding="utf-8"?>
<!DOCTYPE svg PUBLIC "-//W3C//DTD SVG 1.1//EN" "http://www.w3.org/Graphics/SVG/1.1/DTD/svg11.dtd">
<svg version="1.1" xmlns="http://www.w3.org/2000/svg" xmlns:xlink="http://www.w3.org/1999/xlink" xml:space="preserve">
<g class="level" id="level1">
        <g class="outline">
            <path d="M428.9,38.1 L427.7,35.8 C427.5,35.4 427.1,35.1 426.6,35 L420,33.4 L423.9,30.6 C424.3,30.3 424.6,29.8 424.6,29.3 L424.6,26.1 C424.6,25.3 424.1,24.7 423.4,24.5 L329.2,0.9 C328.7,0.8 328.2,0.9 327.8,1.2 L318.3,8.1 L312,8.8 C311.7,8.8 311.5,8.9 311.2,9.1 L288.4,25.4 C288.3,25.5 288.1,25.6 288,25.8 L278.3,23.4 C277.8,23.3 277.3,23.4 277,23.7 L243.7,47.4 C243.3,47.7 243,48.2 243,48.7 L243,51.8 C243,52.6 243.5,53.2 244.2,53.4 L250.8,55.1 L232.9,67.8 L230.7,67.2 C230.2,67.1 229.7,67.2 229.3,67.5 L219.3,74.7 L155,58.6 C154.5,58.5 154,58.6 153.7,58.9 L113,87.9 C112.8,87.6 112.5,87.4 112.1,87.3 L87.9,81.3 C87.4,81.2 87,81.3 86.6,81.6 L70.6,92.9 C70.2,93.2 69.9,93.6 69.9,94.1 L69.8,95.8 L69.4,95.8 L56.6,92.6 C56.4,92.5 56.1,92.5 55.9,92.6 L49.1,94.1 C48.9,94.1 48.7,94.2 48.6,94.3 L43.1,97.8 C42.5,98.2 42.3,98.8 42.4,99.4 C42.5,100 43,100.6 43.6,100.7 L51.7,102.7 L52.7,104.4 C52.9,104.8 53.3,105 53.7,105.2 L54.3,105.4 L54.3,110 C54.3,110.8 54.8,111.4 55.5,111.6 L61.6,113.1 C62.1,113.2 62.6,113.1 63,112.8 L64,112.1 L77.7,115.5 C78,115.6 78.2,115.6 78.5,115.5 C78.5,115.8 78.6,116.2 78.8,116.4 L80.4,118.5 C80.6,118.8 81,119 81.3,119.1 L88.2,120.8 L88.4,120.9 L88.6,120.9 L120,128.7 L120.2,128.8 L120.4,128.8 L140.2,133.7 C140.1,133.9 140.1,134 140.1,134.2 L140.1,137.3 C140.1,138.1 140.6,138.7 141.3,138.9 L141.3,138.9 L139,140.5 C138.7,140.7 138.5,141 138.4,141.3 L132,139.7 C131.5,139.6 131,139.7 130.7,140 L71.9,181.9 C71.5,182.2 71.2,182.7 71.2,183.2 L71.2,184.3 L57,194.9 C56.6,195.2 56.3,195.7 56.3,196.2 L56.3,199.4 C56.3,200.2 56.8,200.8 57.5,201 L141.7,221.9 L142.1,221.9 C142.4,221.9 142.8,221.8 143.1,221.6 L157.6,211.2 L176.6,215.9 C176.8,215.9 176.9,216 177.1,215.9 L187.2,215.2 C187.5,215.2 187.8,215.1 188,214.9 L192,212 C192.4,211.7 192.7,211.2 192.7,210.7 L192.7,208.5 L194.4,208.9 C194.9,209 195.4,208.9 195.8,208.6 L201.1,204.8 C201.5,204.5 201.8,204 201.8,203.5 L201.8,203 C201.8,202.4 201.4,201.8 200.9,201.5 L208.7,196 C209.1,195.7 209.4,195.2 209.4,194.7 L209.4,194.2 L217.6,196.3 C218.1,196.4 218.6,196.3 218.9,196 L252.6,171.9 C253,171.6 253.3,171.1 253.3,170.6 L253.3,167.4 C253.3,166.7 252.8,166 252.1,165.8 L238.2,162.3 L252.2,152.3 C252.6,152 252.9,151.5 252.9,151 L252.9,147.9 C252.9,147.5 252.7,147.1 252.4,146.8 L258.8,142.2 C259,142.6 259.4,143 259.9,143.1 L265.3,144.4 C265.5,144.4 265.7,144.5 265.9,144.4 L272.7,143.7 L273.9,145.6 C274.2,146.1 274.8,146.4 275.4,146.4 L283.1,145.6 C283.9,145.5 284.6,144.8 284.6,144 L284.6,142.7 L288.2,143.6 C288.4,143.6 288.6,143.7 288.8,143.6 L302.3,142.2 C302.6,142.2 302.8,142.1 303.1,141.9 L331.1,121.9 C331.5,121.6 331.8,121.1 331.8,120.6 L331.8,117.4 C331.8,117.1 331.7,116.7 331.5,116.5 L329,112.9 C329.8,112.8 330.5,112.1 330.5,111.3 L330.5,108.2 C330.5,107.9 330.4,107.6 330.2,107.3 L328.2,104.1 C327.9,103.6 327.3,103.3 326.6,103.3 L323.6,103.6 L321.5,100.1 C321.3,99.7 320.9,99.5 320.5,99.4 L319.3,99.1 L321.7,97.4 C322.1,97.1 322.3,96.7 322.4,96.3 L327.7,97.6 C328.2,97.7 328.7,97.6 329,97.3 L347.9,83.8 C348.1,83.7 348.2,83.5 348.3,83.4 L369.1,88.6 C369.6,88.7 370.1,88.6 370.4,88.3 L403.6,64.6 C404,64.3 404.3,63.8 404.3,63.3 L404.3,60.1 C404.3,59.3 403.8,58.7 403.1,58.5 L401.6,58.1 L405.5,55.4 C405.9,55.4 406.3,55.4 406.6,55.1 L407.8,54.3 L411,55.1 C411.5,55.2 411.9,55.1 412.3,54.8 L417.4,51.2 C417.8,50.9 418.1,50.4 418.1,49.9 L418.1,49.2 C418.1,48.7 417.9,48.2 417.5,47.9 L422.1,47.5 C422.4,47.5 422.7,47.4 422.9,47.2 L428.4,43.3 C428.8,43 429.1,42.5 429.1,42 L429.1,38.9 C429.1,38.6 429,38.4 428.9,38.1 C428.9,38.1 429,38.4 428.9,38.1 L428.9,38.1" class="outline"/>
        </g>
        <g class="label">
            <path d="M26,169.6 L21.2,169.6 L21.2,165.7 L25.1,165.7 C25.5,165.7 25.7,165.4 25.7,165.1 C25.7,164.8 25.5,164.5 25.1,164.5 L21.2,164.5 L21.2,160.8 L25.8,160.8 C26.2,160.8 26.4,160.5 26.4,160.2 C26.4,159.9 26.2,159.6 25.8,159.6 L21,159.6 C20.3,159.6 19.9,160 19.9,160.6 L19.9,169.9 C19.9,170.5 20.3,170.9 21,170.9 L26,170.9 C26.4,170.9 26.6,170.6 26.6,170.3 C26.6,169.8 26.4,169.6 26,169.6 L26,169.6 L26,169.6 Z M35.8,159.5 C35.5,159.5 35.3,159.7 35.2,160 C33.9,165.9 32.8,168.5 32.1,169.6 C31.4,168.5 30.3,165.9 29,160 C28.9,159.7 28.7,159.5 28.4,159.5 C28,159.5 27.8,159.7 27.8,160.1 C27.8,160.2 27.8,160.4 27.9,160.6 C29,165.1 29.7,167.4 30.6,169.2 C31.2,170.4 31.6,170.8 32.1,170.8 C32.7,170.8 33,170.4 33.6,169.2 C34.5,167.4 35.2,165.1 36.3,160.6 C36.3,160.4 36.4,160.2 36.4,160.1 C36.4,159.8 36.1,159.5 35.8,159.5 L35.8,159.5 L35.8,159.5 Z M17.9,169.6 L13.6,169.6 L13.6,160.2 C13.6,159.8 13.3,159.5 13,159.5 C12.6,159.5 12.4,159.8 12.4,160.2 L12.4,169.8 C12.4,170.4 12.8,170.8 13.5,170.8 L18,170.8 C18.4,170.8 18.7,170.5 18.7,170.2 C18.6,169.9 18.3,169.6 17.9,169.6 L17.9,169.6 L17.9,169.6 Z M44.1,169.6 L39.3,169.6 L39.3,165.7 L43.2,165.7 C43.6,165.7 43.8,165.4 43.8,165.1 C43.8,164.8 43.6,164.5 43.2,164.5 L39.3,164.5 L39.3,160.8 L43.9,160.8 C44.3,160.8 44.5,160.5 44.5,160.2 C44.5,159.9 44.3,159.6 43.9,159.6 L39.1,159.6 C38.4,159.6 38,160 38,160.6 L38,169.9 C38,170.5 38.4,170.9 39.1,170.9 L44,170.9 C44.4,170.9 44.6,170.6 44.6,170.3 C44.7,169.8 44.5,169.6 44.1,169.6 L44.1,169.6 L44.1,169.6 Z M52,169.6 L47.7,169.6 L47.7,160.2 C47.7,159.8 47.4,159.5 47.1,159.5 C46.7,159.5 46.5,159.8 46.5,160.2 L46.5,169.8 C46.5,170.4 46.9,170.8 47.6,170.8 L52,170.8 C52.4,170.8 52.7,170.5 52.7,170.2 C52.6,169.9 52.4,169.6 52,169.6 L52,169.6 L52,169.6 Z M63.3,169.6 L58.2,169.6 C58.1,168.7 58.8,167.8 61,166.3 C63.3,164.8 63.7,164 63.7,162.7 C63.7,160.9 62.3,159.5 60.2,159.5 C59.2,159.5 58.2,159.9 57.7,160.3 C57.5,160.5 57.4,160.7 57.4,160.8 C57.4,161.1 57.6,161.4 57.9,161.4 C58,161.4 58.1,161.4 58.3,161.3 C58.9,160.9 59.5,160.7 60.1,160.7 C61.6,160.7 62.3,161.7 62.3,162.8 C62.3,163.8 61.9,164.3 60,165.6 C57.4,167.3 56.8,168.5 56.8,169.8 C56.8,170.4 57.1,170.9 57.6,170.9 L63,170.9 C63.4,170.9 63.6,170.6 63.6,170.3 C64,169.8 63.7,169.6 63.3,169.6 L63.3,169.6 L63.3,169.6 Z M63.3,169.6" class="Shape"/>
            <path d="M41.2,91.6 L35.4,91.6 L41.2,84.8 L41.2,91.6 L41.2,91.6 Z M41.2,91.6" class="Shape"/>
            <path d="M24,75.6 C23.3,75.6 22.7,75.9 22.2,76.6 C22.1,76.3 21.9,76 21.6,75.9 C21.3,75.7 21,75.6 20.6,75.6 C20.2,75.6 19.9,75.7 19.6,75.9 C19.3,76.1 19.1,76.3 18.9,76.6 L18.9,75.8 L18,75.8 L18,81.5 L19,81.5 L19,78.5 C19,78 19.1,77.6 19.2,77.3 C19.3,77 19.5,76.8 19.7,76.7 C19.9,76.6 20.2,76.5 20.5,76.5 C20.9,76.5 21.1,76.6 21.3,76.8 C21.5,77 21.5,77.3 21.5,77.8 L21.5,81.5 L22.5,81.5 L22.5,78.2 C22.5,77.6 22.6,77.2 22.9,76.9 C23.2,76.6 23.5,76.5 23.9,76.5 C24.1,76.5 24.3,76.6 24.5,76.7 C24.7,76.8 24.8,76.9 24.8,77.1 C24.9,77.3 24.9,77.5 24.9,77.9 L24.9,81.5 L25.9,81.5 L25.9,77.6 C25.9,76.9 25.7,76.5 25.4,76.2 C25,75.8 24.5,75.6 24,75.6 L24,75.6 L24,75.6 Z M14.2,75.6 C13.5,75.6 12.9,75.8 12.4,76.2 C11.8,76.7 11.5,77.5 11.5,78.5 C11.5,79.5 11.7,80.2 12.2,80.7 C12.7,81.2 13.3,81.5 14.1,81.5 C14.6,81.5 15.1,81.4 15.5,81.2 C15.9,81 16.2,80.6 16.5,80.2 C16.7,79.8 16.8,79.2 16.8,78.5 C16.8,77.6 16.6,76.9 16.1,76.4 C15.6,75.9 15,75.6 14.2,75.6 L14.2,75.6 L14.2,75.6 Z M15.4,80.2 C15.1,80.6 14.7,80.7 14.2,80.7 C13.7,80.7 13.3,80.5 13,80.2 C12.7,79.8 12.5,79.3 12.5,78.6 C12.5,77.9 12.7,77.3 13,77 C13.3,76.7 13.7,76.5 14.2,76.5 C14.7,76.5 15.1,76.7 15.4,77 C15.7,77.4 15.9,77.9 15.9,78.6 C15.9,79.3 15.7,79.9 15.4,80.2 L15.4,80.2 L15.4,80.2 Z M9.7,75.8 C9.5,75.9 9.3,76.2 9.1,76.6 L9.1,75.7 L8.2,75.7 L8.2,81.4 L9.2,81.4 L9.2,78.4 C9.2,78 9.3,77.6 9.4,77.3 C9.5,77.1 9.6,76.9 9.8,76.8 C10,76.7 10.2,76.6 10.4,76.6 C10.6,76.6 10.9,76.7 11.1,76.8 L11.4,75.9 C11.1,75.7 10.7,75.6 10.4,75.6 C10.1,75.6 9.9,75.7 9.7,75.8 L9.7,75.8 L9.7,75.8 Z M5.4,77.2 C5.8,77 6,76.8 6.2,76.5 C6.4,76.2 6.5,75.9 6.5,75.5 C6.5,75.1 6.4,74.8 6.2,74.5 C6,74.2 5.7,74 5.4,73.8 C5,73.6 4.6,73.6 4,73.6 L1,73.6 L1,81.5 L4,81.5 C4.5,81.5 4.9,81.5 5.3,81.4 C5.6,81.3 5.9,81.2 6.2,81 C6.4,80.8 6.6,80.6 6.8,80.3 C7,80 7,79.6 7,79.3 C7,78.8 6.9,78.4 6.6,78.1 C6.3,77.8 5.9,77.4 5.4,77.2 L5.4,77.2 L5.4,77.2 Z M2,74.5 L3.6,74.5 C4.2,74.5 4.6,74.5 4.8,74.6 C5,74.7 5.2,74.8 5.3,75 C5.4,75.2 5.5,75.4 5.5,75.7 C5.5,76 5.4,76.2 5.3,76.4 C5.2,76.6 5,76.7 4.7,76.8 C4.5,76.9 4.2,76.9 3.7,76.9 L2,76.9 L2,74.5 L2,74.5 Z M5.7,79.8 C5.6,80 5.5,80.1 5.3,80.2 C5.1,80.3 4.9,80.4 4.7,80.4 L4,80.4 L2,80.4 L2,77.7 L3.8,77.7 C4.3,77.7 4.7,77.7 5,77.8 C5.3,77.9 5.5,78 5.6,78.3 C5.8,78.5 5.8,78.8 5.8,79.1 C5.8,79.4 5.8,79.6 5.7,79.8 L5.7,79.8 L5.7,79.8 Z M46.7,76.3 C46.6,76.1 46.3,75.9 46.1,75.8 C45.8,75.7 45.5,75.6 45.2,75.6 C44.4,75.6 43.8,75.9 43.4,76.5 L43.4,75.7 L42.5,75.7 L42.5,81.4 L43.5,81.4 L43.5,78.3 C43.5,77.6 43.6,77.1 43.9,76.8 C44.2,76.5 44.6,76.4 45,76.4 C45.3,76.4 45.5,76.5 45.7,76.6 C45.9,76.7 46,76.9 46.1,77.1 C46.2,77.3 46.2,77.6 46.2,78 L46.2,81.5 L47.2,81.5 L47.2,78 C47.2,77.6 47.2,77.2 47.1,77.1 C47,76.7 46.9,76.5 46.7,76.3 L46.7,76.3 L46.7,76.3 Z M67.7,81.4 L68.7,81.4 L68.7,73.5 L67.7,73.5 L67.7,81.4 L67.7,81.4 Z M72.5,77.8 L74.7,75.7 L73.4,75.7 L71.1,78 L71.1,73.5 L70.1,73.5 L70.1,81.4 L71.1,81.4 L71.1,79.1 L71.8,78.4 L73.7,81.3 L74.9,81.3 L72.5,77.8 L72.5,77.8 Z M66.2,79 L66.2,77.7 L66.2,76.8 C66.1,76.5 66,76.3 65.9,76.1 C65.8,75.9 65.5,75.8 65.2,75.7 C64.9,75.6 64.5,75.5 64,75.5 C63.5,75.5 63.1,75.6 62.7,75.7 C62.3,75.8 62,76 61.8,76.3 C61.6,76.6 61.5,76.9 61.4,77.3 L62.3,77.4 C62.4,77 62.6,76.7 62.8,76.6 C63,76.4 63.4,76.4 63.8,76.4 C64.3,76.4 64.7,76.5 64.9,76.7 C65.1,76.9 65.2,77.1 65.2,77.5 L65.2,77.8 C64.8,77.9 64.3,78 63.5,78.1 C63.1,78.1 62.8,78.2 62.6,78.2 C62.3,78.3 62.1,78.4 61.9,78.5 C61.7,78.6 61.5,78.8 61.4,79.1 C61.3,79.3 61.2,79.6 61.2,79.9 C61.2,80.4 61.4,80.8 61.7,81.1 C62,81.4 62.5,81.6 63.1,81.6 C63.5,81.6 63.8,81.5 64.2,81.4 C64.5,81.3 64.9,81.1 65.2,80.8 C65.2,81.1 65.3,81.3 65.4,81.5 L66.4,81.5 C66.3,81.3 66.2,81.1 66.2,80.8 L66.2,79 L66.2,79 L66.2,79 Z M65.3,78.9 C65.3,79.3 65.2,79.6 65.1,79.9 C65,80.2 64.8,80.4 64.5,80.6 C64.2,80.8 63.9,80.8 63.5,80.8 C63.1,80.8 62.8,80.7 62.6,80.5 C62.4,80.3 62.3,80.1 62.3,79.9 C62.3,79.7 62.3,79.6 62.4,79.4 C62.5,79.3 62.6,79.2 62.8,79.1 C63,79 63.2,79 63.6,78.9 C64.3,78.8 64.8,78.7 65.2,78.5 L65.3,78.9 L65.3,78.9 Z M38.7,75.6 C38,75.6 37.4,75.8 36.9,76.2 C36.3,76.7 36,77.5 36,78.5 C36,79.5 36.2,80.2 36.7,80.7 C37.2,81.2 37.8,81.5 38.6,81.5 C39.1,81.5 39.6,81.4 40,81.2 C40.4,81 40.7,80.6 41,80.2 C41.2,79.8 41.3,79.2 41.3,78.5 C41.3,77.6 41.1,76.9 40.6,76.4 C40.1,75.9 39.4,75.6 38.7,75.6 L38.7,75.6 L38.7,75.6 Z M39.9,80.2 C39.6,80.6 39.2,80.7 38.7,80.7 C38.2,80.7 37.8,80.5 37.5,80.2 C37.2,79.8 37,79.3 37,78.6 C37,77.9 37.2,77.3 37.5,77 C37.8,76.7 38.2,76.5 38.7,76.5 C39.2,76.5 39.6,76.7 39.9,77 C40.2,77.3 40.4,77.9 40.4,78.6 C40.3,79.3 40.2,79.9 39.9,80.2 L39.9,80.2 L39.9,80.2 Z M35,80.6 C34.9,80.6 34.7,80.6 34.7,80.5 C34.6,80.5 34.6,80.4 34.5,80.3 C34.5,80.2 34.4,80 34.4,79.8 L34.4,76.5 L35.4,76.5 L35.4,75.7 L34.4,75.7 L34.4,73.7 L33.4,74.3 L33.4,75.7 L32.7,75.7 L32.7,76.5 L33.4,76.5 L33.4,79.8 C33.4,80.4 33.4,80.8 33.5,80.9 C33.6,81.1 33.7,81.2 33.9,81.3 C34.1,81.4 34.4,81.5 34.7,81.5 C34.9,81.5 35.2,81.5 35.4,81.4 L35.3,80.5 C35.2,80.6 35.1,80.6 35,80.6 L35,80.6 L35,80.6 Z M58.9,78.6 C58.7,79.2 58.6,79.8 58.5,80.3 C58.4,79.4 58.2,78.5 57.9,77.5 L56.8,73.5 L55.5,73.5 L54,78.9 C54,79 53.8,79.5 53.6,80.4 C53.5,79.9 53.4,79.3 53.3,78.8 L52.1,73.6 L51,73.6 L53.1,81.5 L54.2,81.5 L55.9,75.5 C56,75.2 56,74.9 56.1,74.6 C56.1,74.7 56.2,75 56.3,75.5 L58,81.5 L59,81.5 L61.2,73.6 L60.2,73.6 L58.9,78.6 L58.9,78.6 Z M31,76 C30.6,75.8 30.2,75.6 29.7,75.6 C29.3,75.6 29,75.7 28.7,75.8 C28.4,75.9 28.2,76.2 28,76.5 L28,75.8 L27.1,75.8 L27.1,83.7 L28.1,83.7 L28.1,80.9 C28.3,81.1 28.5,81.3 28.7,81.4 C29,81.5 29.2,81.6 29.6,81.6 C30,81.6 30.5,81.5 30.9,81.2 C31.3,81 31.6,80.6 31.8,80.1 C32,79.6 32.1,79.1 32.1,78.5 C32.1,78 32,77.5 31.8,77 C31.6,76.6 31.4,76.2 31,76 L31,76 L31,76 Z M30.7,80.2 C30.4,80.6 30,80.7 29.6,80.7 C29.2,80.7 28.8,80.5 28.5,80.2 C28.2,79.8 28.1,79.3 28.1,78.6 C28.1,77.9 28.3,77.3 28.6,76.9 C28.9,76.5 29.3,76.3 29.7,76.3 C30.1,76.3 30.5,76.5 30.8,76.8 C31.1,77.2 31.2,77.7 31.2,78.4 C31.1,79.3 31,79.9 30.7,80.2 L30.7,80.2 L30.7,80.2 Z M30.7,80.2" class="Shape"/>
        </g>
        <g class="background">
            <path d="M422.8,45.6 L428.3,41.7 L428.3,38.6 L427.1,36.2 L417,33.7 L423.8,28.8 L423.8,25.6 L329.4,2 L319.5,9.2 L319.2,9.2 L312.8,9.9 L289.9,26.2 L289.9,27.2 L278.5,24.4 L245.1,48.2 L245.1,51.3 L255.2,53.8 L246.6,60 L246.4,60.1 L233.7,69.1 L230.8,68.4 L220.1,76 L154.8,59.7 L111.7,90.4 L111.7,88.5 L87.4,82.5 L71.4,94.1 L71.2,97.4 L70.9,97.3 L69.1,97.4 L56,94.1 L49.2,95.6 L43.7,99.1 L52.5,101.3 L53.8,103.6 L56.9,104.4 L55.7,105.3 L55.7,110.1 L61.8,111.6 L63.5,110.4 L77.9,114 L80,112.5 L80,115.5 L81.6,117.6 L88.6,119.3 L88.9,119.4 L120.5,127.2 L120.8,127.3 L143.7,133 L141.8,134.3 L141.8,137.5 L145.3,138.4 L140,142.1 L140,143.6 L131.7,141.5 L115,153.5 L114.8,153.6 L72.8,183.6 L72.8,185.5 L57.9,196.3 L57.9,199.4 L142.3,220.4 L157.5,209.5 L177.3,214.4 L187.4,213.7 L191.5,210.8 L191.5,207.7 L191,206.8 L191.4,206.5 L195.2,207.5 L200.6,203.7 L200.6,203 L198,202.4 L199.4,201.4 L199.4,200.8 L208.1,194.7 L208.1,192.1 L218.4,194.7 L252.2,170.6 L252.2,167.4 L234.8,163.1 L251.8,151 L251.8,147.8 L249.4,147.2 L260.5,139.3 L260.5,138.3 L260.9,138.4 L260.9,141.4 L266.3,142.7 L274.1,141.9 L275.8,144.7 L283.5,143.9 L283.5,141.1 L284.8,141 L289,142 L302.5,140.6 L330.6,120.5 L330.6,117.3 L326.4,111.4 L329.2,111.1 L329.2,108 L327.2,104.8 L323.2,105.2 L320.5,100.8 L315.8,99.7 L321.1,95.9 L321.1,94.1 L328.4,95.9 L347.4,82.4 L347.4,81.3 L370,86.9 L403.4,63 L403.4,59.8 L398.4,58.6 L406.1,53.1 L406.4,53.4 L408.2,52.2 L412.2,53.2 L417.3,49.6 L417.3,48.9 L413.9,48.1 L415.6,46.8 L415.6,46.2 M212.7,133.1 L212.7,133.1 L214.9,136.4 L212.7,133.1" class="walkway"/>
            <path d="M406.8,49.6 L406.8,52.7 L398.6,58.6 L403.6,59.8 L403.6,63 L370.3,86.8 L347.7,81.2 L347.7,82.3 L328.7,95.8 L321.4,94 L321.4,95.8 L316.1,99.6 L320.8,100.7 L323.5,105.1 L327.5,104.7 L329.5,107.9 L329.5,111 L326.7,111.3 L330.9,117.2 L330.9,120.4 L302.8,140.4 L289.3,141.8 L285.1,140.8 L283.8,140.9 L283.8,143.7 L276.1,144.5 L274.4,141.7 L266.6,142.5 L261.2,141.2 L261.2,138.2 L260.7,138.1 L260.7,139.1 L249.6,147 L252,147.6 L252,150.8 L235,162.9 L252.4,167.2 L252.4,170.4 L218.6,194.5 L208.3,191.9 L208.3,194.5 L199.8,200.5 L194,201.1 L186.4,199.2 L186.1,199.1 L146.1,189.1 L144.9,187.2 L144.9,184.1 L150.3,180.2 L152,179 L162.7,171.4 L162.7,171.2 L163,171.2 L163.1,171.2 L168.2,170.6 L175.2,165.6 L175.2,162.3 L175.4,162.3 L181.2,158.1 L181.4,158 L187.6,153.6 L187.8,153.5 L191.8,150.7 L192,150.6 L196.4,147.4 L196.6,147.3 L200,144.8 L200.2,144.7 L203.2,142.6 L212.3,141.9 L216.4,139 L217.3,139.2 L212.8,132.5 L212.8,129.3 L217.9,125.7 L218.1,125.6 L224.1,121.3 L224.3,121.2 L230.2,116.9 L231.6,117.2 L231.6,116 L234.6,113.9 L245.3,112.8 L273.7,119.8 L278.1,116.7 L253,110.4 L250.2,105.9 L250.2,102.7 L253.1,100.6 L254.2,100.9 L254.2,99.8 L271.6,87.4 L280.5,86.4 L280.6,86.4 L291.9,85.2 L293.7,85.6 L293.7,83.8 L296.5,81.8 L295.3,80 L295.3,76.8 L314.4,63 C314.5,63 314.5,62.9 314.6,62.9 L321.7,57.8 L327.3,57.2 L334.2,52.3 L334.1,52.1 L334.1,48.9 L340.6,44.3 L340.8,44.2 L345.2,41 L346.2,41.2 L346.2,40.2 L353.7,34.9 L405.4,47.8 L406.8,49.6" class="wall"/>
            <path d="M427.1,36.2 L417,33.7 L423.8,28.8 L423.9,25.6 L329.4,2 L319.5,9.3 L319.2,9.3 L312.8,10 L289.9,26.3 L289.9,27.4 L278.5,24.5 L245.1,48.4 L245.1,51.5 L255.2,54 L246.5,60.2 L246.4,60.3 L233.7,69.3 L230.8,68.6 L220.1,76.2 L154.9,59.9 L111.8,90.7 L111.8,88.8 L87.5,82.8 L71.4,94.1 L71.2,97.3 L72.8,97.8 L74.9,101.1 L95.8,106.3 L96.6,105.7 L96.6,108 L105.3,110.2 L105.6,110.3 L117.7,113.2 L117.9,113.3 L134.4,117.5 L137.1,115.6 L138.9,118.4 L138.9,118.5 L138.9,118.6 L136.1,117.9 L136.1,117.7 L135.8,117.7 L135.8,117.9 L135.7,118 L135.7,117.7 L128.8,118.3 L116,115 L114.5,112.9 L114.5,112.8 L114.3,112.7 L114.1,112.6 L114,112.6 L103.9,110.2 L103.7,110.3 L98.9,109.1 L98.7,109.2 L98.7,108.9 L91.7,107.1 L86.6,107.6 L85.8,108.1 L85.8,105.1 L71.3,101.4 L61.1,101.5 L55.7,105.2 L55.6,110 L61.7,111.5 L63.4,110.3 L77.9,113.9 L79.9,112.4 L79.9,115.5 L81.5,117.6 L88.5,119.3 L88.8,119.4 L120.4,127.3 L120.7,127.4 L143.6,133.1 L141.6,134.4 L141.6,137.6 L145.1,138.5 L139.9,142.2 L139.9,143.7 L131.5,141.6 L114.8,153.6 L114.6,153.7 L72.6,183.7 L72.6,185.6 L57.7,196.4 L57.6,199.5 L142,220.5 L157.2,209.7 L177,214.6 L187.1,213.9 L191.2,211 L191.2,207.8 L186.9,201.1 L148.7,191.6 L139.6,192.5 L134.4,196.2 L122.8,197.4 L113.1,195 L112.1,193.5 L111.5,193.5 L111.5,192.4 L121.7,185.2 L132.7,184.1 L150.8,171.1 L150.8,168 L150.7,167.9 L157.3,163.3 L162.5,162.7 L173.1,155.2 L173.1,153.6 L174.7,154 L190.4,142.8 L190.5,139.6 L184.4,129.9 L187.8,130.8 L199.6,129.5 L220.9,114.2 L221,111 L219.4,108.4 L218.4,106.5 L218.3,106.2 L218.1,106.1 L218.1,106 L218,106 L209.2,103.9 L202.7,104.1 L201.2,103.8 L199.6,104.9 L199.6,103.4 L197.2,102.8 L205.9,96.6 L211.5,98 L213.1,96.8 L213.1,98.4 L214.7,98.8 L216.6,101.8 L225.5,104 L237.2,102.6 L256.8,88.7 L256.9,88.7 L256.9,88.6 L257,88.6 L257,85.4 L256.9,85.3 L256.3,83.4 L261.7,79.5 L282.3,77.4 L298,66.2 L298,64.7 L299,64.9 L298.7,65.1 L298.7,68.7 L303.6,70.1 L306.7,67.8 L306.7,64.3 L302.3,63 L309.4,57.9 L309.6,58 L309.7,54.7 L309.8,54.7 L309.8,54.6 L316.6,49.7 L321.6,49.2 L321.7,49.2 L321.8,49.2 L322.3,49.1 L322.3,48.9 L340,36.2 L340,33 L338.8,31.2 L348.4,24.4 L352.3,24 L354,22.8 L354,21.3 L372.5,25.9 L372.5,27.4 L367.9,30.7 L367.9,33.8 L370.1,37.2 L409,46.9 L422.8,45.6 L428.3,41.7 L428.3,38.5 L427.1,36.2 Z M427.1,36.2" class="wall"/>
        </g>
        <g class="ceilings">
            <path class="unit" d="M87.3,82.7 L71.5,93.9 L73,94.2 L74.3,96.3 L92.6,84 L87.3,82.7 L87.3,82.7 Z M87.3,82.7" id="2001"/>
            <path class="unit" d="M92.9,84 L74.5,96.6 L75.1,97.6 L81.6,99.2 L100.3,85.9 L92.9,84 L92.9,84 Z M92.9,84" id="2002"/>
            <path class="unit" d="M100.1,99.5 L95.6,102.7 L90.5,101.4 L95,98.2 L100.1,99.5" id="2003"/>
            <path class="unit" d="M71,101.4 L76.1,102.7 L68.4,108.2 L55.9,105 L60.9,101.4 L71,101.4" id="2004"/>
            <path class="unit" d="M85.2,104.9 L77.6,110.4 L68.7,108.2 L76.4,102.8 L85.2,104.9" id="2005"/>
            <path class="unit" d="M175.3,114.8 L143.9,107 L142.5,108 L105.2,98.7 L109.3,95.8 L105.8,94.9 L155,59.9 L227.2,77.9 L175.3,114.8" id="2006"/>
            <path class="unit" d="M113.4,101 L105.4,106.7 L101.3,105.7 L109.4,100 L113.4,101" id="2007"/>
            <path class="unit" d="M105.7,106.8 L113.8,101.1 L117.9,102.1 L109.8,107.8 L105.7,106.8" id="2008"/>
            <path class="unit" d="M117.8,109.8 L110.1,107.8 L118.1,102.1 L125.9,104 L117.8,109.8" id="2009"/>
            <path class="unit" d="M142.4,108.2 L134.3,113.9 L118.1,109.9 L126.2,104.2 L142.4,108.2" id="2010"/>
            <path class="unit" d="M144.1,107.2 L148.5,108.3 L139.2,114.9 L137.4,112 L144.1,107.2" id="2011"/>
            <path class="unit" d="M139.3,115.2 L147.4,109.4 L152.3,110.6 L144.2,116.4 L139.3,115.2" id="2012"/>
            <path class="unit" d="M166.7,114.2 L158.6,120 L144.5,116.5 L152.6,110.7 L166.7,114.2" id="2013"/>
            <path class="unit" d="M86.7,107.5 L91.6,107 L93.4,107.5 L83.5,114.6 L81.7,114.1 L80.2,112.1 L86.7,107.5" id="2014"/>
            <path class="unit" d="M83.8,114.7 L93.7,107.6 L98.5,108.8 L88.6,115.9 L83.8,114.7" id="2015"/>
            <path class="unit" d="M108.4,111.3 L98.5,118.4 L94,117.3 L103.9,110.2 L108.4,111.3" id="2016"/>
            <path class="unit" d="M113.7,112.6 L103.8,119.7 L98.9,118.5 L108.8,111.4 L113.7,112.6" id="2017"/>
            <path class="unit" d="M103.6,110.1 L93.7,117.2 L88.8,116 L98.7,108.9 L103.6,110.1" id="2018"/>
            <path class="unit" d="M109.1,99.8 L101,105.6 L97,104.6 L105.1,98.8 L109.1,99.8" id="2019"/>
            <path class="unit" d="M187.9,127.3 L173.5,123.7 L181.6,117.9 L203.3,123.3 L199.5,126 L187.9,127.3" id="2020"/>
            <path class="unit" d="M162,124.2 L151.7,131.6 L147.3,130.5 L157.7,123.1 L162,124.2" id="2021"/>
            <path class="unit" d="M169.2,126 L158.9,133.4 L152,131.7 L162.4,124.3 L169.2,126" id="2022"/>
            <path class="unit" d="M201.4,103.8 L202.7,104.1 L209.2,103.8 L209.9,104 L205.6,107.1 L199.1,105.5 L201.4,103.8" id="2023"/>
            <path class="unit" d="M207.3,107.5 L205.8,107.1 L210.1,104 L217.6,105.8 L207.3,107.5" id="2024"/>
            <path class="unit" d="M217.9,106 L219,108.1 L213,108.9 L207.6,107.6 L217.9,106" id="2025"/>
            <path class="unit" d="M194.9,108.4 L216.6,113.8 L212.8,116.5 L191.1,111.1 L194.9,108.4" id="2026"/>
            <path class="unit" d="M198.8,105.6 L213,109.1 L219.1,108.3 L220.7,110.9 L216.8,113.7 L195.1,108.3 L198.8,105.6" id="2027"/>
            <path class="unit" d="M184.3,108.8 L193.9,101.9 L199.2,103.2 L189.6,110.1 L184.3,108.8" id="2028"/>
            <path class="unit" d="M191,111.2 L212.7,116.6 L209.1,119.2 L187.4,113.8 L191,111.2" id="2029"/>
            <path class="unit" d="M187.2,113.9 L208.9,119.3 L206.5,121 L184.8,115.6 L187.2,113.9" id="2030"/>
            <path class="unit" d="M169.3,114.8 L173.6,115.9 L165.5,121.7 L161.1,120.6 L169.3,114.8" id="2031"/>
            <path class="unit" d="M184.7,115.7 L206.4,121.1 L203.5,123.2 L181.8,117.8 L184.7,115.7" id="2032"/>
            <path class="unit" d="M181.3,117.8 L173.2,123.6 L165.9,121.8 L174,116 L181.3,117.8" id="2033"/>
            <path class="unit" d="M261.5,76.1 L255.5,80.4 L225,72.8 L231,68.5 L261.5,76.1" id="2034"/>
            <path class="unit" d="M256.7,85.1 L220.5,76.1 L224.8,73 L255.4,80.6 L256.7,85.1" id="2035"/>
            <path class="unit" d="M256.7,85.2 L253.1,87.8 L233.3,82.9 L236.9,80.3 L256.7,85.2" id="2036"/>
            <path class="unit" d="M252.9,87.9 L249.3,90.5 L229.5,85.6 L233.1,83 L252.9,87.9" id="2037"/>
            <path class="unit" d="M245.3,93.3 L223.6,87.9 L227.4,85.2 L249.1,90.6 L245.3,93.3" id="2038"/>
            <path class="unit" d="M227.5,83 L211.4,94.5 L206.1,93.2 L222.2,81.7 L227.5,83" id="2039"/>
            <path class="unit" d="M241.2,96.3 L219.5,90.9 L223.5,88 L245.2,93.4 L241.2,96.3" id="2040"/>
            <path class="unit" d="M230,96.4 L216.4,93 L219.3,90.9 L241,96.3 L237.2,99.1 L232.4,99.6 L230,96.4" id="2041"/>
            <path class="unit" d="M229.7,96.5 L232,99.7 L225.7,100.5 L217.1,98.3 L215.2,95.3 L213.8,95 L216.3,93.2 L229.7,96.5" id="2042"/>
            <path class="unit" d="M186.6,133.8 L165.9,128.6 L169.5,126.1 L184.1,129.7 L186.6,133.8" id="2043"/>
            <path class="unit" d="M189.1,138 L164.5,131.8 L168,129.3 L186.6,133.9 L189.1,138" id="2044"/>
            <path class="unit" d="M183.2,144.5 L142.1,134.2 L146.1,131.3 L160.3,134.9 L164.4,132 L189.2,138.2 L190.1,139.5 L183.2,144.5" id="2045"/>
            <path class="unit" d="M174.6,150.6 L140.3,142 L148.7,136 L183,144.6 L174.6,150.6" id="2046"/>
            <path class="unit" d="M152.7,162.9 L115,153.5 L131.6,141.7 L172.7,151.9 L162.3,159.3 L157,159.8 L152.7,162.9" id="2047"/>
            <path class="unit" d="M148.9,165.7 L152.6,163.1 L114.9,153.7 L96.1,167.1 L137.2,177.3 L150.4,167.8 L148.9,165.7 L148.9,165.7 Z M148.9,165.7" id="2048"/>
            <path class="unit" d="M108.4,192.4 L72.9,183.6 L95.9,167.2 L137,177.5 L132.4,180.7 L121.4,181.8 L109.8,190.1 L111.1,192.1 L108.4,192.4" id="2049"/>
            <path class="unit" d="M143.9,192.2 L148.7,191.7 L154.9,193.2 L151.6,195.5 L144.9,193.8 L143.9,192.2" id="2050"/>
            <path class="unit" d="M143.5,192.2 L144.6,194 L151.4,195.7 C150.4,196.4 149.5,197.1 148.5,197.8 L136.7,194.8 L139.8,192.6 L143.5,192.2" id="2051"/>
            <path class="unit" d="M136.5,194.9 L148.4,197.9 L141.9,202.5 L129.5,199.4 L128.1,197 L134.6,196.3 L136.5,194.9" id="2052"/>
            <path class="unit" d="M164.4,195.6 L151.4,204.9 L142.2,202.6 L155.1,193.3 L164.4,195.6" id="2053"/>
            <path class="unit" d="M164.6,195.7 L186.7,201.2 L190.9,207.8 L187,210.6 L177.1,211.3 L151.7,205 L164.6,195.7" id="2054"/>
            <path class="unit" d="M112.8,195.1 L122.8,197.6 L127.9,197 L129.3,199.5 L157,206.4 L142,217.2 L58,196.3 L73.3,185.3 L108.3,194.1 L111.8,193.7 L112.8,195.1" id="2055"/>
            <path class="unit" d="M224.6,154.5 L196.4,147.4 L199.8,145 L228,152 L224.6,154.5" id="2056"/>
            <path class="unit" d="M220,157.8 L191.8,150.8 L196.2,147.6 L224.4,154.6 L220,157.8" id="2057"/>
            <path class="unit" d="M213.6,160.1 L187.7,153.7 L191.7,150.8 L217.6,157.3 L213.6,160.1" id="2058"/>
            <path class="unit" d="M207.2,164.7 L181.3,158.3 L187.5,153.8 L213.4,160.3 L207.2,164.7" id="2059"/>
            <path class="unit" d="M216.1,139.2 L251.1,147.9 L232.8,160.9 L220.3,157.8 L228.5,152 L200,144.9 L202.9,142.8 L212,142.1 L216.1,139.2" id="2060"/>
            <path class="unit" d="M203.5,169.6 L175.3,162.6 L181.1,158.4 L209.3,165.4 L203.5,169.6" id="2061"/>
            <path class="unit" d="M184.5,183.1 L156.3,176.1 L162.7,171.5 L190.9,178.6 L184.5,183.1" id="2062"/>
            <path class="unit" d="M156.1,176.2 L144.7,184.3 L145.9,186.1 L153.7,188 L162.4,181.7 L177.6,185.5 L181.8,182.5 L156.1,176.2 L156.1,176.2 Z M156.1,176.2" id="2063"/>
            <path class="unit" d="M168,170.8 L163.1,171.4 L191.4,178.5 L184.8,183.2 L218,191.5 L229.9,183 L172.4,167.8 L168,170.8 L168,170.8 Z M168,170.8" id="2064"/>
            <path class="unit" d="M167.1,185 L160.3,189.8 L153.9,188.2 L160.7,183.3 L167.1,185" id="2065"/>
            <path class="unit" d="M251.5,167.5 L218.3,159.3 L203.5,169.8 L175.2,162.7 L176.3,164.9 L172.6,167.5 L230.1,182.7 L251.5,167.5 L251.5,167.5 Z M251.5,167.5" id="2066"/>
            <path class="unit" d="M174.3,193.3 L160.6,189.9 L167.4,185.1 L181.1,188.5 L174.3,193.3" id="2067"/>
            <path class="unit" d="M196.3,188.9 L207.4,191.7 L199.1,197.6 L193.6,198.2 L186.1,196.3 L196.3,188.9" id="2068"/>
            <path class="unit" d="M196,188.8 L185.7,196.1 L174.6,193.3 L181.6,188.3 L179.7,187.8 C180.8,187 181.9,186.3 183,185.5 L196,188.8" id="2069"/>
            <path class="unit" d="M255.6,115.5 L249,120.2 L231.7,115.9 L234.4,114 L244.9,112.9 L255.6,115.5" id="2070"/>
            <path class="unit" d="M250.1,127.6 L224.1,121.2 L229.8,117.1 L255.7,123.6 L250.1,127.6" id="2071"/>
            <path class="unit" d="M247.1,129.8 L221.2,123.3 L224.1,121.2 L250,127.7 L247.1,129.8" id="2072"/>
            <path class="unit" d="M243.9,132.1 L218,125.6 L221,123.5 L246.9,129.9 L243.9,132.1" id="2073"/>
            <path class="unit" d="M235,141.8 L218.2,137.6 L215.5,133.5 L238.5,139.2 L235,141.8" id="2074"/>
            <path class="unit" d="M217.8,125.7 L259.8,136.2 L247.6,144.9 L235.3,141.8 L239,139.2 L215.4,133.3 L212.8,129.3 L217.8,125.7" id="2075"/>
            <path class="unit" d="M308.2,93.2 L280.8,86.4 L291.6,85.3 L320.9,92.6 L312.4,98.6 L303.7,96.4 L308.2,93.2" id="2076"/>
            <path class="unit" d="M288.2,100.4 L262.3,94 L254.4,99.6 L280.3,106.1 L288.2,100.4 L288.2,100.4 Z M288.2,100.4" id="2077"/>
            <path class="unit" d="M250.1,102.7 L252.8,100.8 L270.1,105.1 L263.5,109.8 L252.8,107.1 L250.1,102.7" id="2079"/>
            <path class="unit" d="M281.4,107.9 L274.8,112.6 L263.9,109.9 L270.5,105.2 L281.4,107.9" id="2080"/>
            <path class="unit" d="M280.3,86.5 L307.8,93.4 L303.3,96.6 L312.4,98.9 L310.6,100.2 L313.7,101 L315.5,99.7 L320.5,100.9 L323.2,105.4 L327.3,105 L329.1,108 L324.1,108.5 L326.5,111.9 L281.3,114.4 L275.1,112.9 L291.3,101.3 L262.5,94.1 L271.6,87.6 L280.3,86.5" id="2081"/>
            <path class="unit" d="M326.5,111.8 L281.3,114.3 L273.4,119.9 L255.8,115.6 L249.2,120.3 L260.4,123.1 L247.9,132 L264.2,136.1 L261.1,138.3 L266.1,139.5 L274.2,138.7 L275.9,141.4 L282.9,140.7 L281.2,138 L284.7,137.6 L288.9,138.6 L293.9,138.1 L294,138.1 L302.2,137.2 L330.2,117.2 L326.5,111.8 L326.5,111.8 Z M326.5,111.8" id="2082"/>
            <path class="unit" d="M364.8,45.8 L360.5,48.9 L341.3,44.1 L345.6,41 L364.8,45.8" id="2083"/>
            <path class="unit" d="M341.1,44.2 L363,49.7 L360.3,51.6 L338.4,46.1 L341.1,44.2" id="2084"/>
            <path class="unit" d="M338.3,46.2 L360.5,51.7 L363.4,49.7 L403.4,59.7 L390.8,68.7 L332.2,54.1 L336.3,51.1 L334.8,48.7 L338.3,46.2" id="2085"/>
            <path class="unit" d="M314.9,62.9 L336.8,68.4 L332.7,71.3 L310.8,65.8 L314.9,62.9" id="2086"/>
            <path class="unit" d="M338.2,76.7 L329.9,82.6 L298.3,74.7 L304.3,70.5 L319.3,74.2 L321.7,72.5 L338.2,76.7" id="2087"/>
            <path class="unit" d="M310.7,65.9 L307,68.5 L321.4,72.3 L328.6,74.1 L332.5,71.3 L310.7,65.9 L310.7,65.9 Z M310.7,65.9" id="2088"/>
            <path class="unit" d="M331.9,54.2 L390.5,68.8 L370.3,83.2 L340.2,75.7 L347.2,70.7 L315.1,62.7 L322.1,57.7 L327.7,57.1 L331.9,54.2" id="2089"/>
            <path class="unit" d="M338.4,76.8 L347.2,79 L332.7,89.3 L298,80.6 L295.4,76.8 L298.1,74.9 L330,82.8 L338.4,76.8" id="2090"/>
            <path class="unit" d="M328.6,92.3 L293.9,83.7 L297.9,80.8 L332.6,89.5 L328.6,92.3" id="2091"/>
            <path class="unit" d="M319,26.6 L312.3,31.4 L290.6,26 L313.3,9.8 L319.5,9.1 L337.5,13.6 L335.7,14.9 L353.9,19.4 L352.5,20.4 L348.6,20.8 L337.5,28.7 L339.3,31.6 L319,26.6" id="2092"/>
            <path class="unit" d="M413.9,32.4 L319.7,9 L329.6,1.9 L423.8,25.4 L413.9,32.4" id="2093"/>
            <path class="unit" d="M339.4,31.8 L340,32.7 L336.5,35.2 L317.4,30.5 L321.6,27.5 L339.4,31.8" id="2094"/>
            <path class="unit" d="M332.5,37.9 L313.4,33.1 L317.1,30.5 L336.2,35.3 L332.5,37.9" id="2095"/>
            <path class="unit" d="M328.4,40.9 L309.3,36.1 L313.3,33.2 L332.4,37.9 L328.4,40.9" id="2096"/>
            <path class="unit" d="M306.7,35.6 L328.2,41 L321.9,45.5 L300.4,40.1 L306.7,35.6" id="2097"/>
            <path class="unit" d="M309.4,54.3 L255.8,40.9 L278.9,24.4 L310.9,32.4 L299.9,40.3 L321.5,45.7 L316.5,46.2 L308.1,52.2 L309.4,54.3" id="2098"/>
            <path class="unit" d="M304,58.3 L273.4,50.7 L269,53.9 L245.7,48 L255.5,41 L309.3,54.4 L304,58.3" id="2099"/>
            <path class="unit" d="M299.6,61.4 L269.4,53.8 L273.6,50.8 L303.8,58.3 L299.6,61.4" id="2100"/>
            <path class="unit" d="M293.7,65.7 L253.1,55.6 L257.2,52.7 L297.8,62.8 L293.7,65.7" id="2101"/>
            <path class="unit" d="M252.9,55.7 L293.5,65.8 L287.6,70 L247,60 L252.9,55.7" id="2102"/>
            <path class="unit" d="M246.8,60.1 L287.4,70.2 L282.3,73.9 L279,74.2 L240.5,64.6 L246.8,60.1" id="2103"/>
            <path class="unit" d="M261.8,76 L234.2,69.1 L240.3,64.7 L278.5,74.2 L261.8,76" id="2104"/>
            <path class="unit" d="M377.7,23.6 L373.8,26.3 L373.1,25.1 L375.8,23.1 L377.7,23.6" id="2105"/>
            <path class="unit" d="M379.2,35.7 L391.4,27 L400.3,29.3 L388.2,38 L379.2,35.7" id="2106"/>
            <path class="unit" d="M409.5,43.3 L388.5,38 L400.7,29.3 L427.2,35.9 L428.4,38.1 L423,42 L409.5,43.3" id="2107"/>
            <path class="unit" d="M391.2,26.9 L382.3,33.2 L379.3,32.5 L376,34.9 L370.7,33.6 L368.6,30.4 L378,23.7 L391.2,26.9" id="2108"/>
            <path class="unit" d="M376.3,35 L379.5,32.7 L382.1,33.4 C381.1,34.2 380,34.9 378.9,35.7 L376.3,35" id="2109"/>
            <path class="unit" d="M363.3,40.5 L359.6,43.1 L347,40 L350.7,37.4 L363.3,40.5" id="2110"/>
            <path class="unit" d="M368.1,38.4 L361,43.5 L360,43.3 L363.9,40.5 L351,37.3 L354.3,35 L368.1,38.4" id="2111"/>
            <path class="unit" d="M368.4,38.5 L376,40.4 L368.9,45.5 L361.3,43.6 L368.4,38.5" id="2112"/>
            <path class="unit" d="M387.3,43.2 L376.8,50.7 L365.8,48 L376.3,40.5 L387.3,43.2" id="2113"/>
            <path class="unit" d="M406.8,49.4 L397.6,55.9 L377.1,50.8 L387.6,43.3 L405.5,47.8 L406.8,49.4" id="2114"/>
            <path class="unit" d="M128.4,118.2 L115.5,115 L113.9,112.8 L104.1,119.8 L120.9,124.1 L128.4,118.2" id="2115"/>
            <path class="unit" d="M128.7,118.3 L136.4,117.7 L155.1,122.3 L144.5,130 L121.2,124.1 L128.7,118.3" id="2116"/>
            <path class="unit" d="M111.2,88.6 L101.2,95.7 L104.3,96.5 L100.3,99.4 L94.9,98 L90.2,101.4 L82,99.3 L100.6,86 L111.2,88.6" id="2117"/>
            <path class="unit" d="M304.4,70.4 L319,74.1 L321.2,72.6 L306.8,68.8 L304.4,70.4 L304.4,70.4 Z M304.4,70.4" id="2118"/>
            <path class="unit" d="M303.6,66.5 L298.7,65.1 L301.8,62.9 L306.7,64.3 L303.6,66.5 L303.6,66.5 Z M303.6,66.5" id="2119"/>
        </g>
    </g>
</svg>