<?xml version="1.0" encoding="utf-8"?>
<!DOCTYPE svg PUBLIC "-//W3C//DTD SVG 1.1//EN" "http://www.w3.org/Graphics/SVG/1.1/DTD/svg11.dtd">
<svg version="1.1" xmlns="http://www.w3.org/2000/svg" xmlns:xlink="http://www.w3.org/1999/xlink" xml:space="preserve">
<g class="level" id="level2">
            <g class="shadow">
                <path d="M219.828,56.019 L204.31,57.652 L197.081,55.856 L202.641,51.898 L202.641,48.735 L195.208,46.899 L195.351,46.798 L195.555,46.88 L195.596,43.717 L195.555,43.634 L195.555,43.532 L195.453,43.512 L194.692,42.31 L202.581,41.451 L207.876,37.717 L207.876,37.084 L205.757,33.718 L191.095,30.045 L173.949,31.881 L170.1,34.62 L161.831,32.535 L144.257,45.144 L125.033,47.348 L124.972,47.348 L115.197,54.367 L115.033,54.468 L111.083,57.284 L111.042,59.977 L110.675,60.263 L110.675,63.406 L112.08,65.671 L112.162,65.815 L113.058,67.223 L105.89,72.364 L105.849,75.528 L111.941,77.033 L105.992,81.28 L105.992,81.934 L111.246,88.952 L123.994,92.136 L131.997,91.626 L138.045,87.32 L138.045,86.685 L136.232,83.831 L144.704,83.012 L144.765,83.012 L149.344,79.721 L165.191,83.664 L173.726,77.559 L179.323,78.952 L179.344,75.83 L177.348,72.647 L183.03,72.014 L192.54,86.828 L193.824,86.685 L194.863,88.358 L207.773,86.991 L228.157,72.423 L228.198,69.281 L219.828,56.019" class="shadow"/>
            </g>
            <g class="label">
                <path d="M24.035,37.485 C23.747,37.485 23.523,37.662 23.443,37.998 C22.163,43.872 21.058,46.481 20.322,47.602 C19.586,46.482 18.497,43.873 17.185,37.998 C17.105,37.662 16.881,37.485 16.593,37.485 C16.241,37.485 15.985,37.725 15.985,38.11 C15.985,38.221 16.033,38.398 16.081,38.622 C17.138,43.088 17.906,45.393 18.786,47.201 C19.394,48.45 19.746,48.818 20.307,48.818 C20.868,48.818 21.22,48.45 21.828,47.201 C22.708,45.392 23.461,43.103 24.549,38.622 C24.597,38.398 24.645,38.222 24.645,38.11 C24.643,37.726 24.387,37.485 24.035,37.485 L24.035,37.485 Z M14.258,47.521 L9.488,47.521 L9.488,43.664 L13.362,43.664 C13.746,43.664 13.954,43.344 13.954,43.072 C13.954,42.784 13.746,42.496 13.362,42.496 L9.488,42.496 L9.488,38.767 L14.098,38.767 C14.514,38.767 14.738,38.495 14.738,38.191 C14.738,37.854 14.514,37.55 14.098,37.55 L9.312,37.55 C8.624,37.55 8.255,37.918 8.255,38.51 L8.255,47.779 C8.255,48.371 8.623,48.739 9.312,48.739 L14.258,48.739 C14.642,48.739 14.866,48.403 14.866,48.131 C14.867,47.794 14.643,47.521 14.258,47.521 L14.258,47.521 Z M6.178,47.554 L1.872,47.554 L1.872,38.142 C1.872,37.743 1.616,37.486 1.264,37.486 C0.911,37.486 0.639,37.743 0.639,38.142 L0.639,47.779 C0.639,48.371 1.007,48.739 1.696,48.739 L6.177,48.739 C6.577,48.739 6.833,48.467 6.833,48.131 C6.834,47.826 6.594,47.554 6.178,47.554 L6.178,47.554 Z M40.226,47.554 L35.92,47.554 L35.92,38.142 C35.92,37.743 35.664,37.486 35.312,37.486 C34.959,37.486 34.687,37.743 34.687,38.142 L34.687,47.779 C34.687,48.371 35.055,48.739 35.744,48.739 L40.225,48.739 C40.625,48.739 40.881,48.467 40.881,48.131 C40.882,47.826 40.642,47.554 40.226,47.554 L40.226,47.554 Z M49.537,42.208 L49.537,42.176 C50.898,41.055 51.634,39.503 51.634,38.366 C51.634,37.918 51.314,37.55 50.69,37.55 L46.16,37.55 C45.792,37.55 45.552,37.822 45.552,38.126 C45.552,38.479 45.792,38.767 46.16,38.767 L50.386,38.767 C50.13,40.175 49.025,41.408 48.097,41.871 C47.793,42.016 47.505,42.191 47.505,42.559 C47.505,42.912 47.761,43.135 48.241,43.135 C49.938,43.135 50.834,44.128 50.834,45.392 C50.834,46.801 49.857,47.698 48.241,47.698 C47.281,47.698 46.688,47.41 46.112,47.042 C45.872,46.897 45.744,46.85 45.632,46.85 C45.296,46.85 45.056,47.09 45.056,47.411 C45.056,47.682 45.232,47.843 45.392,47.955 C45.888,48.307 46.785,48.867 48.289,48.867 C50.546,48.867 52.082,47.427 52.082,45.393 C52.082,43.84 51.073,42.576 49.537,42.208 L49.537,42.208 Z M32.354,47.521 L27.584,47.521 L27.584,43.664 L31.458,43.664 C31.842,43.664 32.05,43.344 32.05,43.072 C32.05,42.784 31.842,42.496 31.458,42.496 L27.584,42.496 L27.584,38.767 L32.194,38.767 C32.61,38.767 32.834,38.495 32.834,38.191 C32.834,37.854 32.61,37.55 32.194,37.55 L27.408,37.55 C26.72,37.55 26.351,37.918 26.351,38.51 L26.351,47.779 C26.351,48.371 26.719,48.739 27.408,48.739 L32.354,48.739 C32.738,48.739 32.962,48.403 32.962,48.131 C32.962,47.794 32.738,47.521 32.354,47.521 L32.354,47.521 Z M32.354,47.521" class="Shape"/>
            </g>
            <g class="outline">
                <path d="M124.341,65.405 C124.208,65.405 124.075,65.388 123.945,65.355 L111.258,62.171 C110.897,62.08 110.578,61.868 110.354,61.571 L105.1,54.593 C104.887,54.31 104.771,53.965 104.771,53.611 L104.771,52.957 C104.771,52.431 105.025,51.936 105.453,51.63 L108.504,49.445 L105.865,48.789 C105.131,48.606 104.619,47.941 104.629,47.183 L104.67,44.062 C104.677,43.542 104.93,43.057 105.351,42.755 L111.249,38.528 L109.684,36.035 C109.521,35.774 109.434,35.474 109.434,35.166 L109.434,32.003 C109.434,31.618 109.57,31.248 109.812,30.958 L109.842,29.02 C109.85,28.501 110.103,28.017 110.525,27.716 L124.373,17.821 C124.639,17.63 124.956,17.525 125.282,17.517 L143.936,15.352 L161.107,3.05 C161.495,2.772 161.985,2.678 162.448,2.793 L169.97,4.673 L173.189,2.392 C173.416,2.231 173.68,2.131 173.957,2.102 L191.042,0.265 C191.232,0.244 191.425,0.258 191.61,0.305 L206.253,3.978 C206.66,4.08 207.012,4.336 207.237,4.693 L209.334,8.039 C209.496,8.299 209.583,8.6 209.583,8.907 L209.583,9.519 C209.583,10.049 209.327,10.545 208.894,10.852 L203.62,14.586 C203.395,14.745 203.133,14.844 202.86,14.875 L197.345,15.49 L197.345,15.518 L197.319,17.507 L203.148,18.93 C203.877,19.109 204.392,19.764 204.392,20.517 L204.392,23.68 C204.392,24.21 204.135,24.708 203.702,25.014 L201.039,26.893 L204.526,27.76 L219.677,26.157 C220.293,26.093 220.892,26.382 221.224,26.905 L229.594,40.126 C229.763,40.394 229.851,40.705 229.847,41.022 L229.805,44.165 C229.798,44.684 229.544,45.171 229.121,45.473 L208.797,59.98 C208.569,60.143 208.302,60.245 208.024,60.273 L195.153,61.641 C194.534,61.709 193.928,61.412 193.598,60.88 L193.102,60.082 L192.862,60.109 C192.247,60.18 191.646,59.893 191.31,59.373 L182.347,45.451 L180.288,45.682 L180.904,46.663 C181.071,46.93 181.157,47.238 181.154,47.553 L181.112,50.655 C181.105,51.154 180.872,51.622 180.478,51.926 C180.083,52.231 179.572,52.337 179.09,52.217 L174.258,51.011 L166.357,56.656 C165.97,56.933 165.48,57.026 165.019,56.911 L149.951,53.156 L146.003,56.017 C145.731,56.215 145.403,56.324 145.066,56.327 L139.345,56.879 L139.72,57.465 C139.887,57.729 139.977,58.034 139.977,58.347 L139.977,58.98 C139.977,59.509 139.72,60.007 139.287,60.313 L133.26,64.577 C133.016,64.751 132.727,64.853 132.428,64.872 L124.446,65.403 C124.413,65.403 124.377,65.405 124.341,65.405 L124.341,65.405" class="outline"/>
            </g>
            <g class="background">
                <path d="M219.828,27.454 L204.31,29.085 L197.081,27.291 L202.641,23.332 L202.641,20.17 L195.208,18.333 L195.351,18.231 L195.555,18.313 L195.596,15.15 L195.555,15.068 L195.555,14.966 L195.453,14.945 L194.692,13.745 L202.581,12.885 L207.876,9.151 L207.876,8.519 L205.757,5.152 L191.095,1.48 L173.949,3.315 L170.101,6.054 L161.832,3.969 L144.258,16.578 L125.034,18.782 L124.973,18.782 L115.198,25.8 L115.034,25.903 L111.084,28.718 L111.043,31.411 L110.676,31.697 L110.676,34.84 L112.081,37.105 L112.163,37.248 L113.059,38.655 L105.891,43.797 L105.85,46.96 L111.942,48.466 L105.993,52.714 L105.993,53.366 L111.247,60.386 L123.995,63.569 L131.998,63.059 L138.046,58.753 L138.046,58.121 L136.233,55.267 L144.705,54.448 L144.766,54.448 L149.345,51.157 L165.192,55.102 L173.727,48.997 L179.324,50.389 L179.345,47.268 L177.349,44.085 L183.031,43.452 L192.541,58.265 L193.825,58.122 L194.864,59.795 L207.774,58.428 L228.157,43.858 L228.198,40.716 L219.828,27.454" class="walkway"/>
                <path d="M173.561,6.928 L173.541,10.091 L156.883,21.945 L156.883,22.149 L156.577,22.189 L156.536,22.23 L156.434,22.189 L129.777,25.373 L119.351,32.84 L122.609,38.084 L122.568,41.226 L112.284,48.55 L105.849,46.959 L105.89,43.796 L113.058,38.654 L112.162,37.246 L112.08,37.103 L110.675,34.838 L110.675,31.696 L111.041,31.41 L111.082,28.717 L115.032,25.901 L115.195,25.799 L124.97,18.781 L125.031,18.781 L144.255,16.577 L161.829,3.967 L173.561,6.928" class="wall"/>
                <path d="M151.527,41.328 L151.527,44.491 C150.482,45.226 149.443,45.967 148.412,46.715 L148.412,47.674 L149.471,47.919 L149.45,51.082 L144.766,54.448 L144.705,54.448 L135.419,55.346 L127.905,53.469 L127.945,50.327 L138.82,42.513 L138.983,42.41 L143.728,39.004 L143.911,38.901 L146.253,37.249 L148.88,36.963 L151.181,40.717 L151.201,40.717 L151.527,41.328" class="wall"/>
                <path d="M228.198,40.716 L228.156,43.858 L207.772,58.425 L194.86,59.793 L193.822,58.12 L192.539,58.263 L183.029,43.45 L177.347,44.083 L179.343,47.267 L179.322,50.388 L169.731,48 L169.752,46.408 L162.462,44.551 L160.629,45.878 L154.072,44.246 L151.302,39.84 L151.343,36.697 L166.82,34.983 L166.962,34.983 L171.87,31.413 L170.566,29.517 L170.485,29.373 L170.485,29.332 L169.141,27.005 L169.141,25.719 L168.408,25.8 L167.797,24.963 L167.818,21.8 L171.463,19.209 L171.626,19.107 L174.885,16.74 L175.068,16.638 L185.86,8.905 L192.723,10.639 L195.452,14.944 L195.554,14.965 L195.554,15.067 L195.595,15.149 L195.554,18.312 L195.35,18.23 L195.208,18.332 L202.641,20.169 L202.641,23.331 L197.081,27.29 L204.31,29.085 L219.828,27.453 L228.198,40.716" class="wall"/>
                <path d="M175.552,9.291 L173.292,10.967 L173.292,13.841 L175.677,14.42 L177.971,12.789 L177.971,9.914 L175.552,9.291 Z M175.552,9.291" class="wall"/>
            </g>
            <g class="ceilings">
                <path class="unit" d="M170.543,8.309 L173.292,6.37 L162.173,3.596 L159.444,5.534 L157.429,6.975 L168.615,9.688 L170.543,8.309 Z M170.543,8.309" id="3001"/>
                <path class="unit" d="M157.321,7.052 L150.198,12.144 L161.392,14.859 L168.507,9.766 L157.321,7.052 Z M157.321,7.052" id="3002"/>
                <path class="unit" d="M145.516,15.491 L144.762,16.042 L146.9,19.449 L146.941,19.47 L156.634,18.265 L161.284,14.937 L150.09,12.221 L145.516,15.491 Z M145.516,15.491" id="3003"/>
                <path class="unit" d="M144.411,16.134 L146.549,19.541 L143.25,19.949 L141.112,16.521 L144.411,16.134" id="3004"/>
                <path class="unit" d="M140.852,16.532 L142.99,19.959 L129.916,21.531 L123.257,19.858 L125.375,18.328 L140.852,16.532" id="3005"/>
                <path class="unit" d="M129.672,21.633 L123.644,25.897 L117.108,24.264 L123.095,19.958 L129.672,21.633" id="3006"/>
                <path class="unit" d="M116.88,24.438 L123.416,26.07 L122.215,26.927 L115.637,25.295 L116.88,24.438" id="3007"/>
                <path class="unit" d="M115.499,25.366 L122.077,27.039 L118.309,29.712 L111.772,28.079 L115.499,25.366" id="3008"/>
                <path class="unit" d="M118.146,29.854 L117.82,30.079 L119.449,32.649 L112.627,33.322 L111.242,31.097 L114.358,28.914 L118.146,29.854" id="3009"/>
                <path class="unit" d="M121.079,35.283 L119.531,32.793 L112.729,33.446 L114.297,35.976 L114.399,36.119 L115.031,37.098 L113.524,38.18 L119.389,39.628 L122.423,37.445 L121.079,35.283 Z M121.079,35.283" id="3010"/>
                <path class="unit" d="M113.36,38.281 L110.041,40.628 L106.539,43.158 L112.383,44.626 L115.926,42.118 L119.205,39.73 L113.36,38.281 Z M113.36,38.281" id="3012"/>
                <path class="unit" d="M192.638,10.105 L186.202,8.514 L179.035,13.655 L191.884,16.837 L195.265,14.409 L192.638,10.105 Z M192.638,10.105" id="3014"/>
                <path class="unit" d="M178.852,13.757 L168.405,21.245 L168.893,21.877 L180.339,20.61 L189.59,22.917 L196.381,18.151 L178.852,13.757 Z M178.852,13.757" id="3016"/>
                <path class="unit" d="M202.372,19.652 L196.51,18.183 L189.719,22.949 L195.651,24.428 L202.372,19.652 Z M202.372,19.652" id="3017"/>
                <path class="unit" d="M179.197,22.347 L169.789,23.387 L171.031,25.57 L180.969,24.57 L182.802,23.265 L179.197,22.347 Z M179.197,22.347" id="3020"/>
                <path class="unit" d="M193.29,25.855 L189.218,28.814 L180.97,26.732 L187.059,26.1 L188.892,24.773 L193.29,25.855" id="3022"/>
                <path class="unit" d="M171.133,25.713 L181.153,24.713 L183.108,23.325 L188.586,24.713 L186.855,25.958 L180.073,26.693 L189.319,28.978 L193.575,25.917 L204.021,28.569 L189.623,30.079 L191.599,33.243 L189.115,33.528 L173.883,29.712 L171.133,25.713" id="3024"/>
                <path class="unit" d="M219.742,27.039 L190.031,30.202 L192.054,33.36 L189.033,33.671 L173.76,29.855 L167.366,34.425 L182.639,38.241 L193.024,54.34 L194.307,54.197 L195.346,55.87 L207.809,54.584 L228.01,40.118 L219.742,27.039 Z M219.742,27.039" id="3025"/>
                <path class="unit" d="M151.38,40.709 L148.834,36.547 L146.656,36.751 L143.544,38.975 L151.218,40.825 L151.38,40.709 Z M151.38,40.709" id="3026"/>
                <path class="unit" d="M161.277,35.22 L163.374,38.588 L167.956,39.73 L165.675,41.403 L162.559,40.607 L160.726,41.954 L154.596,40.424 L151.95,36.2 L161.277,35.22" id="3027"/>
                <path class="unit" d="M167.122,34.527 L182.354,38.343 L183.148,39.568 L175.267,40.385 L178.994,46.363 L170.44,44.2 L172.11,42.996 L165.94,41.465 L168.444,39.69 L163.699,38.527 L161.581,35.181 L167.122,34.527" id="3028"/>
                <path class="unit" d="M139.487,41.872 L147.083,43.79 L151.111,40.902 L143.437,39.051 L139.487,41.872 Z M139.487,41.872" id="3029"/>
                <path class="unit" d="M148.143,44.198 L139.325,42.015 L136.387,44.115 L145.273,46.271 L148.143,44.198 Z M148.143,44.198" id="3030"/>
                <path class="unit" d="M145.242,46.385 L145.149,46.361 L145.166,46.349 L136.279,44.192 L132.594,46.827 L141.676,49.03 L145.242,46.385 Z M145.242,46.385" id="3031"/>
                <path class="unit" d="M132.486,46.904 L128.593,49.687 L135.68,51.461 L138.828,51.143 L141.571,49.108 L132.486,46.904 Z M132.486,46.904" id="3032"/>
                <path class="unit" d="M139.022,51.124 L144.762,50.543 L145.455,50.051 L141.698,49.139 L139.022,51.124 Z M139.022,51.124" id="3033"/>
                <path class="unit" d="M145.563,49.974 L149.181,47.401 L145.367,46.417 L141.803,49.061 L145.563,49.974 Z M145.563,49.974" id="3034"/>
                <path class="unit" d="M175.677,11.545 L177.971,9.914 L175.552,9.291 L173.292,10.967 L175.677,11.545 Z M175.677,11.545" id="3035"/>
            </g>
        </g>
</svg>