<?xml version="1.0" encoding="utf-8"?>
<!DOCTYPE svg PUBLIC "-//W3C//DTD SVG 1.1//EN" "http://www.w3.org/Graphics/SVG/1.1/DTD/svg11.dtd">
<svg version="1.1" xmlns="http://www.w3.org/2000/svg" xmlns:xlink="http://www.w3.org/1999/xlink" xml:space="preserve">
<g class="level" id="level1">
            <g class="shadow">
                <path d="M422.818,82.382 L428.336,78.459 L428.336,75.313 L427.09,72.941 L417.018,70.447 L423.821,65.584 L423.862,62.416 L329.37,38.832 L319.502,46.048 L319.502,46.087 L319.235,46.048 L312.839,46.783 L289.931,63.113 L289.911,64.154 L278.507,61.313 L245.116,85.144 L245.095,88.271 L255.17,90.805 L246.545,96.955 L246.383,97.058 L233.731,106.091 L230.813,105.356 L220.145,112.998 L154.873,96.712 L111.755,127.448 L111.797,125.549 L87.479,119.54 L71.397,130.86 L71.172,134.13 L70.864,134.049 L69.085,134.153 L56.028,130.925 L49.182,132.395 L43.664,135.889 L52.451,138.097 L53.779,140.386 L56.894,141.164 L55.66,142.021 L55.619,146.783 L61.729,148.296 L63.404,147.129 L77.852,150.727 L79.937,149.235 L79.896,152.26 L81.469,154.385 L88.476,156.122 L88.785,156.224 L120.378,164.074 L120.684,164.176 L143.553,169.877 L141.632,171.226 L141.59,174.394 L145.106,175.272 L139.854,178.971 L139.854,180.505 L131.516,178.419 L114.82,190.374 L114.635,190.477 L72.6,220.456 L72.6,222.376 L57.662,233.147 L57.621,236.294 L142.038,257.324 L157.201,246.451 L176.962,251.357 L187.099,250.662 L191.165,247.759 L191.165,244.613 L190.621,243.743 L191.062,243.427 L194.885,244.409 L200.239,240.585 L200.239,239.913 L197.663,239.299 L199.053,238.318 L199.053,237.687 L207.739,231.556 L207.78,229 L218.059,231.574 L251.898,207.438 L251.898,204.269 L234.531,199.94 L251.489,187.838 L251.489,184.67 L249.058,184.08 L260.174,176.168 L260.174,175.188 L260.624,175.292 L260.582,178.255 L265.998,179.604 L273.845,178.766 L275.582,181.525 L283.264,180.708 L283.306,177.866 L284.654,177.723 L288.886,178.765 L302.414,177.354 L330.513,157.306 L330.555,154.138 L326.384,148.231 L329.185,147.944 L329.227,144.797 L327.184,141.569 L323.156,141.977 L320.48,137.603 L315.82,136.459 L321.133,132.636 L321.175,130.796 L328.469,132.597 L347.475,119.046 L347.475,117.943 L370.077,123.563 L403.426,99.794 L403.467,96.626 L398.504,95.38 L406.157,89.928 L406.43,90.269 L408.229,89.023 L412.194,90.005 L417.301,86.387 L417.301,85.733 L413.95,84.937 L415.685,83.668 L415.685,83.056 M216.71,138.563 L216.789,138.583 L216.71,138.563 M212.705,169.875 L212.717,169.866 L214.903,173.176 L212.705,169.875" class="shadow"/>
            </g>
            <g class="outline">
                <path d="M428.882,38.125 L427.635,35.775 C427.417,35.364 427.035,35.067 426.584,34.954 L419.982,33.317 L423.888,30.536 C424.314,30.234 424.57,29.747 424.576,29.224 L424.617,26.057 C424.627,25.3 424.114,24.633 423.376,24.45 L329.171,0.949 C328.701,0.83 328.203,0.928 327.812,1.214 L318.358,8.12 L312.1,8.839 C311.823,8.872 311.564,8.973 311.335,9.132 L288.53,25.399 C288.387,25.504 288.261,25.628 288.158,25.767 L278.473,23.347 C278.008,23.231 277.515,23.326 277.127,23.602 L243.858,47.351 C243.432,47.656 243.178,48.146 243.174,48.671 L243.153,51.796 C243.148,52.551 243.657,53.208 244.388,53.392 L250.997,55.063 L233.119,67.812 L230.958,67.25 C230.486,67.126 229.985,67.22 229.591,67.503 L219.56,74.704 L155.229,58.64 C154.765,58.524 154.273,58.618 153.884,58.895 L113.161,87.925 C112.943,87.658 112.641,87.461 112.29,87.375 L88.053,81.387 C87.594,81.273 87.106,81.366 86.72,81.638 L70.699,92.94 C70.297,93.222 70.045,93.67 70.011,94.162 L69.892,95.896 L69.505,95.919 L56.729,92.75 C56.489,92.688 56.237,92.685 55.996,92.734 L49.17,94.187 C48.98,94.228 48.799,94.304 48.635,94.406 L43.117,97.901 C42.565,98.253 42.274,98.896 42.378,99.543 C42.483,100.189 42.962,100.71 43.595,100.869 L51.676,102.889 L52.655,104.565 C52.877,104.94 53.238,105.214 53.659,105.322 L54.291,105.484 L54.27,110.128 C54.267,110.88 54.776,111.537 55.506,111.719 L61.595,113.253 C62.061,113.37 62.554,113.276 62.947,112.996 L63.987,112.251 L77.661,115.665 C77.928,115.731 78.205,115.728 78.466,115.661 C78.476,115.995 78.589,116.322 78.792,116.591 L80.364,118.695 C80.591,118.997 80.914,119.212 81.281,119.303 L88.211,121.02 L88.418,121.094 C88.468,121.113 88.522,121.129 88.575,121.142 L119.986,128.949 L120.195,129.03 C120.246,129.048 120.299,129.062 120.352,129.075 L140.107,133.977 C140.049,134.143 140.018,134.318 140.016,134.496 L139.974,137.642 C139.965,138.399 140.476,139.064 141.21,139.249 L141.256,139.26 L138.928,140.905 C138.653,141.102 138.447,141.376 138.334,141.686 L131.969,140.103 C131.506,139.987 131.014,140.081 130.625,140.358 L71.875,182.256 C71.444,182.564 71.189,183.06 71.189,183.587 L71.189,184.652 L56.991,194.891 C56.572,195.194 56.32,195.678 56.312,196.196 L56.27,199.364 C56.261,200.124 56.774,200.787 57.511,200.971 L141.664,221.919 C141.794,221.952 141.927,221.967 142.059,221.967 C142.397,221.967 142.73,221.861 143.011,221.66 L157.501,211.267 L176.468,215.95 C176.631,215.992 176.8,216.006 176.968,215.995 L187.084,215.32 C187.385,215.3 187.676,215.196 187.923,215.021 L191.969,212.14 C192.399,211.832 192.656,211.338 192.656,210.807 L192.656,208.609 L194.334,209.039 C194.802,209.16 195.301,209.067 195.695,208.784 L201.007,204.962 C201.436,204.654 201.687,204.16 201.687,203.635 L201.687,202.958 C201.687,202.315 201.31,201.741 200.742,201.475 L208.499,195.975 C208.927,195.671 209.184,195.181 209.188,194.655 L209.191,194.196 L217.417,196.248 C217.88,196.366 218.371,196.272 218.762,195.994 L252.499,171.939 C252.931,171.633 253.185,171.137 253.185,170.609 L253.185,167.438 C253.185,166.689 252.675,166.039 251.948,165.857 L238.078,162.381 L252.091,152.379 C252.521,152.073 252.778,151.578 252.778,151.049 L252.778,147.903 C252.778,147.469 252.609,147.07 252.325,146.771 L258.733,142.196 C258.938,142.632 259.329,142.969 259.82,143.091 L265.236,144.441 C265.421,144.486 265.614,144.5 265.806,144.479 L272.6,143.75 L273.794,145.63 C274.125,146.154 274.726,146.447 275.342,146.38 L283.007,145.584 C283.829,145.498 284.459,144.809 284.471,143.981 L284.49,142.728 L288.045,143.605 C288.227,143.648 288.419,143.662 288.607,143.643 L302.093,142.233 C302.375,142.204 302.642,142.102 302.87,141.938 L330.889,121.971 C331.32,121.664 331.577,121.169 331.577,120.639 L331.577,117.472 C331.577,117.137 331.473,116.809 331.278,116.533 L328.752,112.929 L328.778,112.927 C329.603,112.843 330.236,112.151 330.248,111.321 L330.288,108.175 C330.293,107.857 330.204,107.546 330.035,107.279 L327.992,104.05 C327.659,103.524 327.054,103.233 326.435,103.299 L323.442,103.617 L321.325,100.132 C321.098,99.761 320.737,99.496 320.317,99.392 L319.112,99.095 L321.533,97.364 C321.897,97.104 322.135,96.709 322.199,96.273 L327.506,97.582 C327.969,97.696 328.457,97.603 328.846,97.326 L347.77,83.837 C347.936,83.718 348.077,83.573 348.186,83.408 L368.964,88.588 C369.429,88.706 369.919,88.611 370.309,88.334 L403.557,64.647 C403.981,64.343 404.239,63.858 404.245,63.335 L404.285,60.167 C404.295,59.41 403.783,58.748 403.051,58.563 L401.534,58.178 L405.388,55.434 C405.772,55.48 406.173,55.395 406.514,55.16 L407.71,54.345 L410.947,55.132 C411.407,55.247 411.894,55.15 412.281,54.879 L417.369,51.261 C417.802,50.953 418.057,50.457 418.057,49.928 L418.057,49.274 C418.057,48.774 417.831,48.319 417.468,48.017 L422.09,47.592 C422.378,47.566 422.654,47.463 422.891,47.295 L428.389,43.371 C428.817,43.063 429.073,42.568 429.073,42.04 L429.073,38.893 C429.072,38.625 429.007,38.363 428.882,38.125 C428.882,38.125 429.007,38.363 428.882,38.125 L428.882,38.125" class="outline"/>
            </g>
            <g class="label">
                <path d="M26.003,169.574 L21.233,169.574 L21.233,165.717 L25.107,165.717 C25.491,165.717 25.699,165.397 25.699,165.125 C25.699,164.837 25.491,164.549 25.107,164.549 L21.233,164.549 L21.233,160.82 L25.843,160.82 C26.259,160.82 26.483,160.548 26.483,160.244 C26.483,159.907 26.259,159.603 25.843,159.603 L21.057,159.603 C20.369,159.603 20,159.971 20,160.563 L20,169.832 C20,170.424 20.368,170.792 21.057,170.792 L26.003,170.792 C26.387,170.792 26.611,170.456 26.611,170.184 C26.612,169.846 26.388,169.574 26.003,169.574 L26.003,169.574 Z M35.78,159.538 C35.492,159.538 35.268,159.715 35.188,160.051 C33.908,165.925 32.803,168.534 32.067,169.655 C31.331,168.535 30.242,165.926 28.93,160.051 C28.85,159.715 28.626,159.538 28.338,159.538 C27.986,159.538 27.73,159.778 27.73,160.163 C27.73,160.274 27.778,160.451 27.826,160.675 C28.883,165.141 29.651,167.446 30.531,169.254 C31.139,170.503 31.491,170.871 32.052,170.871 C32.613,170.871 32.965,170.503 33.573,169.254 C34.453,167.445 35.206,165.156 36.294,160.675 C36.342,160.451 36.39,160.275 36.39,160.163 C36.388,159.778 36.132,159.538 35.78,159.538 L35.78,159.538 Z M17.923,169.606 L13.617,169.606 L13.617,160.194 C13.617,159.795 13.361,159.538 13.009,159.538 C12.656,159.538 12.384,159.795 12.384,160.194 L12.384,169.831 C12.384,170.423 12.752,170.791 13.441,170.791 L17.922,170.791 C18.322,170.791 18.578,170.519 18.578,170.183 C18.579,169.878 18.339,169.606 17.923,169.606 L17.923,169.606 Z M44.099,169.574 L39.329,169.574 L39.329,165.717 L43.203,165.717 C43.587,165.717 43.795,165.397 43.795,165.125 C43.795,164.837 43.587,164.549 43.203,164.549 L39.329,164.549 L39.329,160.82 L43.939,160.82 C44.355,160.82 44.579,160.548 44.579,160.244 C44.579,159.907 44.355,159.603 43.939,159.603 L39.153,159.603 C38.465,159.603 38.096,159.971 38.096,160.563 L38.096,169.832 C38.096,170.424 38.464,170.792 39.153,170.792 L44.099,170.792 C44.483,170.792 44.707,170.456 44.707,170.184 C44.708,169.846 44.483,169.574 44.099,169.574 L44.099,169.574 Z M51.971,169.606 L47.665,169.606 L47.665,160.194 C47.665,159.795 47.409,159.538 47.057,159.538 C46.704,159.538 46.432,159.795 46.432,160.194 L46.432,169.831 C46.432,170.423 46.8,170.791 47.489,170.791 L51.97,170.791 C52.37,170.791 52.626,170.519 52.626,170.183 C52.627,169.878 52.387,169.606 51.971,169.606 L51.971,169.606 Z M63.331,169.574 L58.225,169.574 C58.097,168.694 58.85,167.75 61.074,166.277 C63.331,164.789 63.811,163.94 63.811,162.691 C63.811,160.85 62.418,159.474 60.29,159.474 C59.282,159.474 58.305,159.906 57.761,160.29 C57.537,160.45 57.457,160.658 57.457,160.818 C57.457,161.137 57.681,161.378 57.985,161.378 C58.097,161.378 58.225,161.362 58.433,161.25 C59.058,160.898 59.682,160.658 60.274,160.658 C61.795,160.658 62.515,161.618 62.515,162.739 C62.515,163.747 62.131,164.26 60.243,165.492 C57.634,167.204 57.041,168.357 57.041,169.67 C57.041,170.262 57.313,170.79 57.89,170.79 L63.332,170.79 C63.7,170.79 63.973,170.518 63.973,170.166 C63.971,169.782 63.699,169.574 63.331,169.574 L63.331,169.574 Z M63.331,169.574" class="Shape"/>
                <path d="M41.166,91.561 L35.416,91.561 L41.166,84.811 L41.166,91.561 Z M41.166,91.561" class="Shape"/>
                <path d="M23.976,75.603 C23.253,75.603 22.665,75.936 22.214,76.602 C22.103,76.287 21.912,76.041 21.642,75.866 C21.372,75.691 21.025,75.603 20.603,75.603 C20.224,75.603 19.885,75.688 19.588,75.858 C19.291,76.028 19.053,76.253 18.874,76.532 L18.874,75.732 L18.009,75.732 L18.009,81.436 L18.976,81.436 L18.976,78.477 C18.976,77.958 19.028,77.56 19.132,77.285 C19.236,77.01 19.403,76.8 19.634,76.657 C19.865,76.514 20.117,76.442 20.389,76.442 C20.747,76.442 21.005,76.549 21.162,76.764 C21.319,76.979 21.398,77.301 21.398,77.731 L21.398,81.437 L22.365,81.437 L22.365,78.123 C22.365,77.536 22.497,77.109 22.762,76.842 C23.027,76.575 23.36,76.442 23.761,76.442 C23.983,76.442 24.177,76.494 24.341,76.598 C24.505,76.702 24.619,76.839 24.682,77.009 C24.745,77.179 24.776,77.458 24.776,77.844 L24.776,81.437 L25.737,81.437 L25.737,77.521 C25.737,76.869 25.585,76.387 25.28,76.073 C24.977,75.76 24.542,75.603 23.976,75.603 L23.976,75.603 Z M14.206,75.603 C13.5,75.603 12.903,75.814 12.412,76.237 C11.825,76.745 11.531,77.528 11.531,78.584 C11.531,79.547 11.777,80.285 12.269,80.797 C12.762,81.309 13.407,81.565 14.206,81.565 C14.704,81.565 15.163,81.449 15.584,81.216 C16.004,80.983 16.325,80.656 16.545,80.236 C16.766,79.815 16.876,79.237 16.876,78.504 C16.876,77.598 16.627,76.888 16.129,76.374 C15.631,75.86 14.99,75.603 14.206,75.603 L14.206,75.603 Z M15.403,80.222 C15.084,80.587 14.685,80.77 14.205,80.77 C13.722,80.77 13.321,80.588 13.002,80.225 C12.683,79.861 12.524,79.314 12.524,78.584 C12.524,77.854 12.683,77.308 13.002,76.946 C13.321,76.584 13.722,76.404 14.205,76.404 C14.681,76.404 15.08,76.586 15.4,76.949 C15.72,77.312 15.88,77.846 15.88,78.552 C15.881,79.3 15.722,79.857 15.403,80.222 L15.403,80.222 Z M9.702,75.796 C9.514,75.925 9.309,76.192 9.087,76.596 L9.087,75.731 L8.217,75.731 L8.217,81.435 L9.184,81.435 L9.184,78.45 C9.184,78.042 9.238,77.666 9.345,77.322 C9.417,77.096 9.536,76.92 9.705,76.793 C9.873,76.666 10.063,76.603 10.274,76.603 C10.51,76.603 10.747,76.673 10.983,76.812 L11.316,75.915 C10.98,75.707 10.648,75.603 10.322,75.603 C10.097,75.603 9.89,75.667 9.702,75.796 L9.702,75.796 Z M5.435,77.247 C5.804,77.064 6.08,76.825 6.262,76.527 C6.444,76.229 6.536,75.913 6.536,75.576 C6.536,75.214 6.433,74.868 6.227,74.536 C6.021,74.205 5.736,73.96 5.373,73.801 C5.01,73.641 4.527,73.562 3.926,73.562 L0.972,73.562 L0.972,81.436 L3.974,81.436 C4.475,81.436 4.899,81.392 5.244,81.304 C5.59,81.217 5.877,81.087 6.106,80.915 C6.335,80.743 6.528,80.498 6.683,80.182 C6.839,79.865 6.917,79.522 6.917,79.153 C6.917,78.695 6.789,78.297 6.533,77.961 C6.277,77.625 5.911,77.386 5.435,77.247 L5.435,77.247 Z M2.013,74.491 L3.587,74.491 C4.153,74.491 4.552,74.528 4.785,74.601 C5.018,74.675 5.197,74.811 5.322,75.009 C5.447,75.208 5.51,75.438 5.51,75.699 C5.51,75.975 5.443,76.204 5.308,76.387 C5.174,76.57 4.975,76.7 4.709,76.779 C4.508,76.84 4.177,76.87 3.715,76.87 L2.012,76.87 L2.013,74.491 L2.013,74.491 Z M5.682,79.817 C5.578,80.008 5.446,80.154 5.285,80.255 C5.124,80.356 4.923,80.427 4.683,80.47 C4.547,80.495 4.31,80.508 3.974,80.508 L2.014,80.508 L2.014,77.8 L3.835,77.8 C4.336,77.8 4.72,77.844 4.987,77.931 C5.254,78.019 5.463,78.171 5.613,78.388 C5.763,78.604 5.839,78.86 5.839,79.153 C5.837,79.404 5.786,79.625 5.682,79.817 L5.682,79.817 Z M46.744,76.274 C46.601,76.073 46.385,75.911 46.097,75.788 C45.809,75.664 45.493,75.602 45.149,75.602 C44.357,75.602 43.753,75.915 43.334,76.542 L43.334,75.731 L42.464,75.731 L42.464,81.435 L43.431,81.435 L43.431,78.32 C43.431,77.59 43.58,77.093 43.88,76.832 C44.179,76.571 44.534,76.44 44.946,76.44 C45.204,76.44 45.428,76.498 45.62,76.615 C45.811,76.731 45.945,76.887 46.02,77.082 C46.095,77.277 46.133,77.572 46.133,77.966 L46.133,81.436 L47.1,81.436 L47.1,77.929 C47.1,77.481 47.082,77.168 47.046,76.989 C46.987,76.713 46.887,76.475 46.744,76.274 L46.744,76.274 Z M67.707,81.436 L68.674,81.436 L68.674,73.562 L67.707,73.562 L67.707,81.436 L67.707,81.436 Z M72.503,77.848 L74.684,75.732 L73.433,75.732 L71.145,78.052 L71.145,73.562 L70.178,73.562 L70.178,81.436 L71.145,81.436 L71.145,79.175 L71.827,78.52 L73.712,81.437 L74.904,81.437 L72.503,77.848 L72.503,77.848 Z M66.23,79.046 L66.23,77.757 C66.23,77.327 66.214,77.03 66.182,76.865 C66.125,76.6 66.024,76.381 65.881,76.207 C65.738,76.033 65.514,75.889 65.21,75.774 C64.906,75.659 64.51,75.602 64.023,75.602 C63.532,75.602 63.101,75.669 62.729,75.803 C62.356,75.938 62.072,76.129 61.875,76.378 C61.678,76.627 61.537,76.953 61.451,77.358 L62.396,77.487 C62.5,77.082 62.66,76.8 62.877,76.641 C63.093,76.482 63.429,76.402 63.884,76.402 C64.371,76.402 64.738,76.511 64.985,76.73 C65.168,76.891 65.259,77.168 65.259,77.563 C65.259,77.599 65.257,77.683 65.254,77.815 C64.885,77.944 64.311,78.055 63.53,78.148 C63.147,78.194 62.861,78.243 62.671,78.293 C62.413,78.365 62.181,78.47 61.976,78.61 C61.77,78.75 61.603,78.935 61.476,79.166 C61.349,79.397 61.286,79.652 61.286,79.932 C61.286,80.408 61.454,80.799 61.791,81.106 C62.127,81.412 62.609,81.565 63.236,81.565 C63.615,81.565 63.971,81.503 64.302,81.377 C64.634,81.252 64.978,81.037 65.336,80.732 C65.365,81.001 65.429,81.235 65.529,81.436 L66.539,81.436 C66.417,81.218 66.336,80.989 66.295,80.751 C66.25,80.513 66.23,79.945 66.23,79.046 L66.23,79.046 Z M65.252,78.928 C65.252,79.354 65.2,79.677 65.096,79.895 C64.96,80.178 64.747,80.401 64.457,80.563 C64.167,80.726 63.836,80.808 63.463,80.808 C63.087,80.808 62.801,80.722 62.607,80.55 C62.412,80.378 62.314,80.163 62.314,79.905 C62.314,79.737 62.359,79.584 62.448,79.446 C62.537,79.308 62.665,79.204 62.829,79.132 C62.993,79.06 63.275,78.996 63.672,78.939 C64.374,78.839 64.9,78.717 65.251,78.574 L65.252,78.928 L65.252,78.928 Z M38.66,75.603 C37.954,75.603 37.357,75.814 36.866,76.237 C36.279,76.745 35.985,77.528 35.985,78.584 C35.985,79.547 36.231,80.285 36.723,80.797 C37.216,81.309 37.861,81.565 38.66,81.565 C39.158,81.565 39.617,81.449 40.038,81.216 C40.458,80.983 40.779,80.656 40.999,80.236 C41.22,79.815 41.33,79.237 41.33,78.504 C41.33,77.598 41.081,76.888 40.583,76.374 C40.085,75.86 39.444,75.603 38.66,75.603 L38.66,75.603 Z M39.858,80.222 C39.539,80.587 39.14,80.77 38.66,80.77 C38.177,80.77 37.776,80.588 37.457,80.225 C37.138,79.861 36.979,79.314 36.979,78.584 C36.979,77.854 37.138,77.308 37.457,76.946 C37.776,76.584 38.177,76.404 38.66,76.404 C39.136,76.404 39.535,76.586 39.855,76.949 C40.175,77.312 40.335,77.846 40.335,78.552 C40.336,79.3 40.177,79.857 39.858,80.222 L39.858,80.222 Z M34.976,80.609 C34.833,80.609 34.723,80.586 34.645,80.539 C34.568,80.493 34.513,80.43 34.479,80.351 C34.445,80.272 34.428,80.095 34.428,79.819 L34.428,76.484 L35.4,76.484 L35.4,75.732 L34.428,75.732 L34.428,73.739 L33.467,74.319 L33.467,75.732 L32.757,75.732 L32.757,76.484 L33.466,76.484 L33.466,79.766 C33.466,80.346 33.506,80.726 33.584,80.907 C33.663,81.088 33.799,81.234 33.992,81.345 C34.185,81.456 34.457,81.512 34.808,81.512 C35.023,81.512 35.266,81.483 35.538,81.426 L35.4,80.571 C35.225,80.596 35.083,80.609 34.976,80.609 L34.976,80.609 Z M58.888,78.622 C58.727,79.267 58.596,79.838 58.496,80.335 C58.371,79.465 58.166,78.536 57.884,77.547 L56.756,73.562 L55.499,73.562 L54,78.879 C53.964,79.008 53.846,79.493 53.646,80.335 C53.553,79.801 53.442,79.264 53.313,78.724 L52.115,73.562 L51.046,73.562 L53.135,81.436 L54.198,81.436 L55.868,75.436 C55.94,75.182 56.016,74.874 56.099,74.512 C56.124,74.627 56.206,74.934 56.346,75.436 L58.006,81.436 L59.01,81.436 L61.169,73.562 L60.122,73.562 L58.888,78.622 L58.888,78.622 Z M30.996,75.979 C30.623,75.729 30.194,75.603 29.707,75.603 C29.334,75.603 29.018,75.675 28.756,75.821 C28.495,75.966 28.26,76.183 28.052,76.473 L28.052,75.732 L27.171,75.732 L27.171,83.622 L28.138,83.622 L28.138,80.845 C28.303,81.053 28.513,81.224 28.769,81.361 C29.025,81.497 29.314,81.565 29.636,81.565 C30.076,81.565 30.496,81.44 30.896,81.192 C31.295,80.943 31.599,80.585 31.809,80.118 C32.018,79.65 32.123,79.125 32.123,78.541 C32.123,77.997 32.028,77.497 31.838,77.04 C31.649,76.583 31.368,76.229 30.996,75.979 L30.996,75.979 Z M30.676,80.225 C30.37,80.588 30.002,80.77 29.572,80.77 C29.15,80.77 28.79,80.595 28.492,80.244 C28.194,79.893 28.046,79.35 28.046,78.617 C28.046,77.884 28.204,77.324 28.522,76.939 C28.838,76.554 29.203,76.361 29.615,76.361 C30.031,76.361 30.387,76.542 30.686,76.903 C30.985,77.265 31.135,77.809 31.135,78.536 C31.135,79.298 30.982,79.861 30.676,80.225 L30.676,80.225 Z M30.676,80.225" class="Shape"/>
            </g>
            <g class="background">
                <path d="M422.818,45.595 L428.336,41.672 L428.336,38.525 L427.09,36.154 L417.018,33.661 L423.821,28.795 L423.862,25.627 L329.37,2.042 L319.502,9.257 L319.502,9.298 L319.235,9.257 L312.839,9.993 L289.931,26.323 L289.911,27.367 L278.507,24.525 L245.116,48.354 L245.095,51.482 L255.169,54.014 L246.544,60.166 L246.382,60.269 L233.73,69.302 L230.812,68.567 L220.144,76.209 L154.872,59.922 L111.754,90.658 L111.796,88.759 L87.478,82.75 L71.396,94.075 L71.171,97.342 L70.863,97.261 L69.084,97.363 L56.027,94.134 L49.181,95.606 L43.663,99.1 L52.45,101.308 L53.778,103.598 L56.893,104.377 L55.659,105.234 L55.618,109.995 L61.728,111.507 L63.403,110.344 L77.851,113.939 L79.936,112.447 L79.895,115.472 L81.468,117.597 L88.475,119.334 L88.784,119.437 L120.377,127.283 L120.683,127.389 L143.552,133.089 L141.631,134.437 L141.589,137.605 L145.105,138.484 L139.853,142.184 L139.853,143.717 L131.515,141.632 L114.82,153.587 L114.635,153.688 L72.601,183.669 L72.601,185.59 L57.662,196.36 L57.621,199.507 L142.038,220.536 L157.201,209.663 L176.962,214.568 L187.099,213.873 L191.165,210.972 L191.165,207.823 L190.621,206.954 L191.062,206.641 L194.885,207.62 L200.239,203.799 L200.239,203.122 L197.663,202.513 L199.053,201.53 L199.053,200.896 L207.739,194.765 L207.78,192.21 L218.059,194.785 L251.898,170.649 L251.898,167.48 L234.531,163.148 L251.489,151.049 L251.489,147.88 L249.058,147.288 L260.174,139.379 L260.174,138.399 L260.624,138.501 L260.582,141.463 L265.998,142.811 L273.845,141.974 L275.582,144.733 L283.264,143.915 L283.306,141.074 L284.654,140.932 L288.886,141.974 L302.414,140.565 L330.513,120.515 L330.555,117.346 L326.384,111.441 L329.185,111.154 L329.227,108.008 L327.184,104.779 L323.156,105.188 L320.48,100.814 L315.82,99.669 L321.133,95.847 L321.175,94.006 L328.469,95.806 L347.475,82.257 L347.475,81.153 L370.077,86.773 L403.427,63.003 L403.47,59.836 L398.504,58.591 L406.158,53.138 L406.432,53.48 L408.229,52.234 L412.194,53.214 L417.302,49.597 L417.302,48.942 L413.951,48.146 L415.687,46.877 L415.687,46.265 M216.71,101.777 L216.789,101.797 L216.71,101.777 M212.705,133.087 L212.717,133.078 L214.903,136.388 L212.705,133.087" class="walkway"/>
                <path d="M406.777,49.603 L406.736,52.728 L398.502,58.596 L403.466,59.841 L403.425,63.008 L370.077,86.777 L347.474,81.157 L347.474,82.261 L328.47,95.81 L321.176,94.009 L321.134,95.85 L315.821,99.672 L320.48,100.817 L323.157,105.191 L327.183,104.783 L329.227,108.012 L329.185,111.158 L326.385,111.446 L330.555,117.351 L330.514,120.52 L302.416,140.569 L288.887,141.979 L284.657,140.937 L283.309,141.08 L283.267,143.92 L275.585,144.737 L273.848,141.979 L266.001,142.816 L260.585,141.467 L260.627,138.505 L260.176,138.403 L260.176,139.384 L249.06,147.293 L251.492,147.885 L251.492,151.053 L234.534,163.153 L251.901,167.485 L251.901,170.653 L218.062,194.79 L207.783,192.216 L207.741,194.77 L199.24,200.798 L193.439,201.372 L185.814,199.49 L185.548,199.39 L145.597,189.436 L144.37,187.495 L144.411,184.346 L149.827,180.445 L151.542,179.238 L162.271,171.593 L162.271,171.369 L162.619,171.35 L162.659,171.309 L162.765,171.309 L167.87,170.756 L174.84,165.787 L174.819,165.748 L174.84,162.457 L175.023,162.478 L180.847,158.309 L181.03,158.207 L187.202,153.772 L187.384,153.65 L191.37,150.808 L191.554,150.707 L195.928,147.54 L196.132,147.439 L199.544,144.965 L199.707,144.862 C200.716,144.153 201.718,143.438 202.711,142.716 L211.766,141.98 L215.914,139.038 L216.812,139.283 L212.357,132.539 L212.399,129.367 L217.466,125.733 L217.65,125.63 L223.658,121.318 L223.822,121.216 L229.728,116.965 L231.115,117.314 L231.115,116.004 L234.078,113.879 L244.809,112.776 L273.191,119.826 L277.566,116.7 L252.452,110.446 L249.632,105.928 L249.673,102.761 L252.596,100.677 L253.74,100.963 L253.74,99.838 L271.172,87.434 L280.081,86.474 L280.184,86.474 L291.444,85.289 L293.282,85.738 L293.304,83.898 L296.081,81.876 L294.835,80.119 L294.876,76.951 L314.393,63.012 C314.459,62.984 314.521,62.951 314.577,62.911 L321.688,57.844 L327.328,57.25 L334.194,52.344 L334.051,52.14 L334.09,48.972 L340.591,44.333 L340.774,44.211 L345.209,41.023 L346.209,41.268 L346.251,40.287 L353.73,34.974 L405.388,47.87 L406.777,49.603" class="wall"/>
                <path d="M423.82,28.796 L417.017,33.661 L427.089,36.154 L428.335,38.525 L428.335,41.672 L422.817,45.595 L409.024,46.882 L370.075,37.196 L367.887,33.824 L367.928,30.656 L372.485,27.427 L372.485,25.873 L353.971,21.254 L353.971,22.806 L352.335,23.951 L348.411,24.382 L338.847,31.227 L339.952,32.985 L339.952,36.153 L322.275,48.905 L322.275,49.11 L321.823,49.151 L321.681,49.193 L321.619,49.151 L316.572,49.702 L309.765,54.628 L309.765,54.71 L309.667,54.67 L309.621,57.98 L309.417,57.938 L299.446,65.031 L297.954,64.682 L297.954,66.215 L282.26,77.394 L261.683,79.54 L256.349,83.361 L256.901,85.344 L256.961,85.385 L256.961,88.552 L256.921,88.552 L256.921,88.716 L256.757,88.655 L237.2,102.613 L225.492,103.963 L216.623,101.755 L214.723,98.793 L213.13,98.384 L213.13,96.85 L211.455,98.037 L205.854,96.646 L197.25,102.798 L199.58,103.391 L199.58,104.904 L201.173,103.758 L202.705,104.146 L209.203,103.9 L217.95,106.046 L218.054,106.046 L218.094,106.087 L218.34,106.169 L218.36,106.538 L219.443,108.417 L219.443,108.377 L220.976,111.032 L220.935,114.221 L199.599,129.468 L187.768,130.755 L184.416,129.913 L190.465,139.645 L190.444,142.812 L174.689,154.033 L173.137,153.645 L173.137,155.177 L162.508,162.719 L157.299,163.251 L150.72,167.888 L150.801,167.97 L150.76,171.139 L132.655,184.054 L121.66,185.158 L111.545,192.433 L111.504,193.537 L112.138,193.476 L113.099,194.987 L122.825,197.419 L134.392,196.213 L139.583,192.534 L148.717,191.553 L186.931,201.076 L191.161,207.82 L191.161,210.969 L187.095,213.87 L176.958,214.565 L157.198,209.658 L142.034,220.532 L57.616,199.502 L57.657,196.355 L72.6,185.59 L72.6,183.669 L114.635,153.688 L114.82,153.586 L131.516,141.629 L139.854,143.714 L139.854,142.181 L145.106,138.481 L141.59,137.602 L141.632,134.433 L143.553,133.086 L120.685,127.386 L120.379,127.28 L88.786,119.434 L88.477,119.331 L81.47,117.594 L79.897,115.469 L79.938,112.445 L77.854,113.937 L63.406,110.342 L61.731,111.505 L55.621,109.994 L55.662,105.232 L61.079,101.471 L71.255,101.43 L85.845,105.088 L85.804,108.112 L86.58,107.58 L91.71,107.13 L98.74,108.868 L98.74,109.174 L98.864,109.073 L103.726,110.299 L103.909,110.157 L113.985,112.649 L114.127,112.589 L114.291,112.732 L114.537,112.773 L114.537,112.876 L115.987,115.022 L128.779,118.251 L135.666,117.698 L135.666,118.005 L135.789,117.902 L135.789,117.698 L136.075,117.657 L136.075,117.943 L138.895,118.637 L138.916,118.557 L138.854,118.536 L138.854,118.433 L137.056,115.614 L134.44,117.453 L117.949,113.345 L117.663,113.242 L105.566,110.259 L105.259,110.157 L96.573,108.011 L96.573,105.741 L95.816,106.273 L74.932,101.062 L72.808,97.75 L71.174,97.342 L71.398,94.074 L87.476,82.75 L111.794,88.759 L111.753,90.658 L154.871,59.923 L220.142,76.209 L230.81,68.567 L233.727,69.303 L246.381,60.27 L246.543,60.167 L255.168,54.015 L245.094,51.483 L245.115,48.355 L278.507,24.526 L289.91,27.368 L289.93,26.324 L312.838,9.995 L319.234,9.259 L319.5,9.3 L319.5,9.259 L329.369,2.044 L423.861,25.629 L423.82,28.796" class="wall"/>
            </g>
            <g class="ceilings">
                <path class="unit" d="M87.347,82.659 L71.516,93.935 L73.012,94.284 L74.32,96.376 L92.562,83.96 L87.347,82.659 Z M87.347,82.659" id="2001"/>
                <path class="unit" d="M92.885,84.039 L74.466,96.607 L75.1,97.622 L81.642,99.224 L100.327,85.896 L92.885,84.039 Z M92.885,84.039" id="2002"/>
                <path class="unit" d="M100.12,99.503 L95.595,102.704 L90.513,101.452 L95.039,98.216 L100.12,99.503" id="2003"/>
                <path class="unit" d="M70.958,101.382 L76.039,102.633 L68.384,108.098 L55.926,105.001 L60.972,101.418 L70.958,101.382" id="2004"/>
                <path class="unit" d="M85.225,104.932 L77.605,110.395 L68.696,108.169 L76.352,102.74 L85.225,104.932" id="2005"/>
                <path class="unit" d="M175.315,114.85 L143.93,107.054 L142.536,108.029 L105.198,98.736 L109.27,95.813 L105.789,94.942 L154.958,59.865 L227.164,77.857 L175.315,114.85" id="2006"/>
                <path class="unit" d="M113.413,100.963 L105.373,106.706 L101.301,105.696 L109.374,99.954 L113.413,100.963" id="2007"/>
                <path class="unit" d="M105.651,106.775 L113.725,101.033 L117.795,102.043 L109.723,107.784 L105.651,106.775" id="2008"/>
                <path class="unit" d="M117.762,109.804 L110.036,107.854 L118.075,102.113 L125.835,104.062 L117.762,109.804" id="2009"/>
                <path class="unit" d="M142.363,108.169 L134.289,113.911 L118.074,109.873 L126.145,104.132 L142.363,108.169" id="2010"/>
                <path class="unit" d="M144.068,107.229 L148.418,108.342 L139.092,114.989 L137.247,112.1 L144.068,107.229" id="2011"/>
                <path class="unit" d="M139.267,115.162 L147.373,109.351 L152.279,110.569 L144.138,116.382 L139.267,115.162" id="2012"/>
                <path class="unit" d="M166.688,114.188 L158.576,119.965 L144.45,116.45 L152.558,110.671 L166.688,114.188" id="2013"/>
                <path class="unit" d="M86.688,107.542 L91.56,107.089 L93.367,107.575 L83.486,114.64 L81.642,114.187 L80.181,112.168 L86.688,107.542" id="2014"/>
                <path class="unit" d="M83.764,114.71 L93.681,107.647 L98.447,108.831 L88.567,115.894 L83.764,114.71" id="2015"/>
                <path class="unit" d="M108.434,111.3 L98.518,118.364 L94.029,117.252 L103.945,110.186 L108.434,111.3" id="2016"/>
                <path class="unit" d="M113.69,112.622 L103.773,119.688 L98.832,118.468 L108.714,111.371 L113.69,112.622" id="2017"/>
                <path class="unit" d="M103.633,110.116 L93.715,117.182 L88.842,115.963 L98.76,108.898 L103.633,110.116" id="2018"/>
                <path class="unit" d="M109.062,99.85 L100.988,105.627 L96.951,104.619 L105.024,98.842 L109.062,99.85" id="2019"/>
                <path class="unit" d="M187.877,127.273 L173.472,123.69 L181.58,117.912 L203.293,123.307 L199.467,126.02 L187.877,127.273" id="2020"/>
                <path class="unit" d="M161.99,124.246 L151.655,131.624 L147.27,130.548 L157.638,123.132 L161.99,124.246" id="2021"/>
                <path class="unit" d="M169.158,126.02 L158.824,133.399 L151.931,131.694 L162.299,124.315 L169.158,126.02" id="2022"/>
                <path class="unit" d="M201.379,103.784 L202.668,104.096 L209.174,103.818 L209.87,103.993 L205.52,107.09 L199.014,105.455 L201.379,103.784" id="2023"/>
                <path class="unit" d="M207.33,107.542 L205.834,107.158 L210.149,104.096 L217.629,105.94 L207.33,107.542" id="2024"/>
                <path class="unit" d="M217.908,106.046 L219.056,108.169 L213.105,108.967 L207.71,107.646 L217.908,106.046" id="2025"/>
                <path class="unit" d="M194.941,108.377 L216.621,113.77 L212.862,116.487 L191.149,111.056 L194.941,108.377" id="2026"/>
                <path class="unit" d="M198.839,105.593 L213.072,109.142 L219.126,108.307 L220.691,110.881 L216.794,113.666 L195.08,108.237 L198.839,105.593" id="2027"/>
                <path class="unit" d="M184.258,108.759 L193.863,101.902 L199.188,103.226 L189.583,110.082 L184.258,108.759" id="2028"/>
                <path class="unit" d="M190.974,111.196 L212.687,116.589 L209.104,119.164 L187.39,113.735 L190.974,111.196" id="2029"/>
                <path class="unit" d="M187.217,113.876 L208.929,119.27 L206.564,120.975 L184.849,115.545 L187.217,113.876" id="2030"/>
                <path class="unit" d="M169.296,114.815 L173.646,115.927 L165.54,121.706 L161.154,120.626 L169.296,114.815" id="2031"/>
                <path class="unit" d="M184.676,115.685 L206.389,121.078 L203.467,123.166 L181.753,117.772 L184.676,115.685" id="2032"/>
                <path class="unit" d="M181.267,117.808 L173.159,123.62 L165.85,121.775 L173.959,115.996 L181.267,117.808" id="2033"/>
                <path class="unit" d="M261.545,76.116 L255.524,80.432 L225.041,72.81 L231.062,68.53 L261.545,76.116" id="2034"/>
                <path class="unit" d="M256.672,85.062 L220.518,76.048 L224.868,72.95 L255.421,80.572 L256.672,85.062" id="2035"/>
                <path class="unit" d="M256.672,85.199 L253.053,87.809 L233.255,82.868 L236.871,80.292 L256.672,85.199" id="2036"/>
                <path class="unit" d="M252.879,87.915 L249.26,90.487 L229.461,85.582 L233.081,82.972 L252.879,87.915" id="2037"/>
                <path class="unit" d="M245.328,93.309 L223.616,87.915 L227.374,85.199 L249.087,90.628 L245.328,93.309" id="2038"/>
                <path class="unit" d="M227.512,83.006 L211.436,94.459 L206.147,93.171 L222.223,81.684 L227.512,83.006" id="2039"/>
                <path class="unit" d="M241.153,96.266 L219.475,90.87 L223.442,88.018 L245.154,93.445 L241.153,96.266" id="2040"/>
                <path class="unit" d="M229.981,96.439 L216.41,93.029 L219.264,90.977 L240.977,96.404 L237.153,99.154 L232.347,99.64 L229.981,96.439" id="2041"/>
                <path class="unit" d="M229.67,96.511 L232,99.678 L225.669,100.444 L217.039,98.286 L215.124,95.327 L213.698,94.978 L216.238,93.172 L229.67,96.511" id="2042"/>
                <path class="unit" d="M186.556,133.782 L165.884,128.628 L169.47,126.091 L184.085,129.741 L186.556,133.782" id="2043"/>
                <path class="unit" d="M189.13,138.026 L164.561,131.868 L168.077,129.358 L186.695,133.99 L189.13,138.026" id="2044"/>
                <path class="unit" d="M183.181,144.5 L142.084,134.233 L146.086,131.379 L160.283,134.93 L164.388,132.007 L189.234,138.202 L190.138,139.524 L183.181,144.5" id="2045"/>
                <path class="unit" d="M174.621,150.59 L140.311,142.029 L148.663,136.043 L183.007,144.605 L174.621,150.59" id="2046"/>
                <path class="unit" d="M152.733,162.946 L115.011,153.548 L131.61,141.716 L172.706,151.947 L162.333,159.359 L157.08,159.848 L152.733,162.946" id="2047"/>
                <path class="unit" d="M148.905,165.696 L152.558,163.086 L114.838,153.688 L96.084,167.084 L137.178,177.318 L150.4,167.851 L148.905,165.696 L148.905,165.696 Z M148.905,165.696" id="2048"/>
                <path class="unit" d="M108.434,192.422 L72.943,183.581 L95.908,167.192 L137.004,177.456 L132.409,180.693 L121.379,181.84 L109.756,190.124 L111.045,192.141 L108.434,192.422" id="2049"/>
                <path class="unit" d="M143.858,192.178 L148.662,191.69 L154.891,193.222 L151.619,195.554 L144.937,193.883 L143.858,192.178" id="2050"/>
                <path class="unit" d="M143.511,192.212 L144.625,193.986 L151.41,195.691 C150.459,196.388 149.496,197.073 148.521,197.744 L136.69,194.787 L139.788,192.597 L143.511,192.212" id="2051"/>
                <path class="unit" d="M136.516,194.925 L148.382,197.884 L141.91,202.477 L129.488,199.381 L128.095,196.978 L134.568,196.316 L136.516,194.925" id="2052"/>
                <path class="unit" d="M164.353,195.588 L151.376,204.843 L142.225,202.548 L155.169,193.292 L164.353,195.588" id="2053"/>
                <path class="unit" d="M164.636,195.658 L186.695,201.155 L190.871,207.803 L186.974,210.587 L177.092,211.247 L151.69,204.914 L164.636,195.658" id="2054"/>
                <path class="unit" d="M112.75,195.065 L122.703,197.571 L127.783,197.013 L129.21,199.485 L156.907,206.409 L141.91,217.198 L57.943,196.248 L73.29,185.217 L108.33,193.987 L111.81,193.604 L112.75,195.065" id="2055"/>
                <path class="unit" d="M224.625,154.488 L196.437,147.423 L199.849,144.987 L228.068,152.017 L224.625,154.488" id="2056"/>
                <path class="unit" d="M220.031,157.759 L191.844,150.729 L196.264,147.563 L224.45,154.594 L220.031,157.759" id="2057"/>
                <path class="unit" d="M213.558,160.125 L187.669,153.687 L191.671,150.834 L217.56,157.308 L213.558,160.125" id="2058"/>
                <path class="unit" d="M207.19,164.683 L181.3,158.247 L187.494,153.792 L213.384,160.267 L207.19,164.683" id="2059"/>
                <path class="unit" d="M216.064,139.176 L251.106,147.911 L232.839,160.926 L220.345,157.831 L228.523,151.984 L200.025,144.849 L202.947,142.762 L212.03,142.03 L216.064,139.176" id="2060"/>
                <path class="unit" d="M203.502,169.557 L175.281,162.528 L181.127,158.351 L209.314,165.381 L203.502,169.557" id="2061"/>
                <path class="unit" d="M184.503,183.094 L156.316,176.065 L162.72,171.471 L190.938,178.536 L184.503,183.094" id="2062"/>
                <path class="unit" d="M156.142,176.203 L144.693,184.347 L145.843,186.19 L153.672,188.14 L162.418,181.815 L177.577,185.6 L181.788,182.608 L156.142,176.203 Z M156.142,176.203" id="2063"/>
                <path class="unit" d="M168.044,170.843 L163.104,171.4 L191.394,178.466 L184.816,183.164 L217.979,191.447 L229.855,182.97 L172.392,167.752 L168.044,170.843 Z M168.044,170.843" id="2064"/>
                <path class="unit" d="M167.138,184.973 L160.354,189.81 L153.985,188.244 L160.77,183.371 L167.138,184.973" id="2065"/>
                <path class="unit" d="M251.523,167.503 L218.36,159.255 L203.607,169.764 L175.281,162.7 L176.36,164.931 L172.656,167.564 L230.119,182.781 L251.523,167.503 Z M251.523,167.503" id="2066"/>
                <path class="unit" d="M174.341,193.291 L160.63,189.879 L167.454,185.043 L181.127,188.453 L174.341,193.291" id="2067"/>
                <path class="unit" d="M196.264,188.905 L207.33,191.655 L199.046,197.536 L193.514,198.093 L185.997,196.214 L196.264,188.905" id="2068"/>
                <path class="unit" d="M195.985,188.836 L185.72,196.145 L174.654,193.395 L181.613,188.418 L179.7,187.931 C180.814,187.166 181.915,186.388 183.004,185.599 L195.985,188.836" id="2069"/>
                <path class="unit" d="M255.558,115.476 L248.981,120.141 L231.65,115.824 L234.369,113.91 L244.841,112.795 L255.558,115.476" id="2070"/>
                <path class="unit" d="M250.131,127.622 L224.172,121.183 L229.913,117.077 L255.837,123.55 L250.131,127.622" id="2071"/>
                <path class="unit" d="M247.068,129.816 L221.144,123.341 L223.998,121.288 L249.921,127.763 L247.068,129.816" id="2072"/>
                <path class="unit" d="M243.901,132.076 L217.979,125.603 L220.972,123.48 L246.895,129.915 L243.901,132.076" id="2073"/>
                <path class="unit" d="M235.026,141.751 L218.256,137.576 L215.577,133.504 L238.542,139.247 L235.026,141.751" id="2074"/>
                <path class="unit" d="M217.803,125.708 L259.804,136.184 L247.623,144.883 L235.34,141.821 L239.031,139.177 L215.436,133.295 L212.791,129.293 L217.803,125.708" id="2075"/>
                <path class="unit" d="M308.176,93.237 L280.752,86.418 L291.576,85.27 L320.908,92.615 L312.453,98.632 L303.721,96.44 L308.176,93.237" id="2076"/>
                <path class="unit" d="M288.2,100.442 L262.274,94.002 L254.341,99.64 L280.229,106.116 L288.2,100.442 Z M288.2,100.442" id="2077"/>
                <path class="unit" d="M250.131,102.669 L252.845,100.72 L270.172,105.036 L263.597,109.734 L252.88,107.055 L250.131,102.669" id="2079"/>
                <path class="unit" d="M281.379,107.854 L274.802,112.519 L263.874,109.804 L270.451,105.106 L281.379,107.854" id="2080"/>
                <path class="unit" d="M280.263,86.454 L307.719,93.309 L303.23,96.476 L312.281,98.737 L310.439,100.059 L313.532,100.825 L315.378,99.539 L320.389,100.756 L323.104,105.246 L327.174,104.828 L329.019,107.786 L324.043,108.275 L326.443,111.65 L281.276,114.156 L275.116,112.624 L291.299,101.071 L262.45,93.866 L271.533,87.395 L280.263,86.454" id="2081"/>
                <path class="unit" d="M326.545,111.787 L281.344,114.293 L273.471,119.885 L255.872,115.545 L249.294,120.244 L260.535,123.028 L248.007,131.937 L264.258,136.01 L261.196,138.202 L266.206,139.419 L274.279,138.584 L275.985,141.333 L283.013,140.603 L281.344,137.923 L284.858,137.542 L289.103,138.585 L294.131,138.086 L294.184,138.131 L302.397,137.228 L330.375,117.254 L326.545,111.787 L326.545,111.787 Z M326.545,111.787" id="2082"/>
                <path class="unit" d="M364.789,45.769 L360.473,48.831 L341.3,44.064 L345.58,41.003 L364.789,45.769" id="2083"/>
                <path class="unit" d="M341.126,44.17 L362.98,49.633 L360.298,51.547 L338.444,46.083 L341.126,44.17" id="2084"/>
                <path class="unit" d="M338.272,46.223 L360.439,51.721 L363.291,49.702 L403.311,59.692 L390.677,68.704 L332.079,54.088 L336.219,51.13 L334.689,48.763 L338.272,46.223" id="2085"/>
                <path class="unit" d="M314.888,62.893 L336.777,68.356 L332.707,71.245 L310.854,65.78 L314.888,62.893" id="2086"/>
                <path class="unit" d="M338.17,76.708 L329.852,82.624 L298.256,74.759 L304.242,70.514 L319.203,74.236 L321.57,72.566 L338.17,76.708" id="2087"/>
                <path class="unit" d="M310.678,65.92 L307.023,68.53 L321.43,72.358 L321.431,72.357 L321.466,72.357 L328.634,74.167 L332.529,71.348 L310.678,65.92 Z M310.678,65.92" id="2088"/>
                <path class="unit" d="M331.905,54.225 L390.504,68.843 L370.286,83.286 L340.187,75.768 L347.182,70.757 L315.098,62.752 L322.128,57.739 L327.764,57.183 L331.905,54.225" id="2089"/>
                <path class="unit" d="M338.446,76.778 L347.285,78.97 L332.809,89.306 L298.048,80.64 L295.402,76.811 L298.081,74.897 L329.954,82.832 L338.446,76.778" id="2090"/>
                <path class="unit" d="M328.6,92.298 L293.942,83.667 L297.978,80.78 L332.637,89.445 L328.6,92.298" id="2091"/>
                <path class="unit" d="M319.029,26.561 L312.28,31.364 L290.565,25.968 L313.254,9.788 L319.447,9.056 L337.402,13.546 L335.591,14.834 L353.825,19.358 L352.433,20.365 L348.5,20.784 L337.364,28.718 L339.208,31.606 L319.029,26.561" id="2092"/>
                <path class="unit" d="M413.889,32.441 L319.726,8.951 L329.644,1.888 L423.805,25.344 L413.889,32.441" id="2093"/>
                <path class="unit" d="M339.352,31.78 L339.909,32.65 L336.429,35.121 L317.325,30.389 L321.571,27.362 L339.352,31.78" id="2094"/>
                <path class="unit" d="M332.53,37.905 L313.463,33.137 L317.151,30.493 L336.255,35.26 L332.53,37.905" id="2095"/>
                <path class="unit" d="M328.355,40.898 L309.287,36.131 L313.288,33.277 L332.357,38.01 L328.355,40.898" id="2096"/>
                <path class="unit" d="M306.678,35.642 L328.182,41.004 L321.848,45.526 L300.345,40.168 L306.678,35.642" id="2097"/>
                <path class="unit" d="M309.356,54.262 L255.731,40.862 L278.803,24.404 L310.852,32.373 L299.855,40.237 L321.465,45.596 L316.489,46.119 L308.066,52.139 L309.356,54.262" id="2098"/>
                <path class="unit" d="M303.996,58.263 L273.444,50.641 L269.027,53.809 L245.746,47.997 L255.559,41.003 L309.391,54.435 L303.996,58.263" id="2099"/>
                <path class="unit" d="M299.578,61.43 L269.338,53.879 L273.584,50.85 L303.822,58.369 L299.578,61.43" id="2100"/>
                <path class="unit" d="M293.663,65.711 L253.088,55.62 L257.161,52.696 L297.734,62.821 L293.663,65.711" id="2101"/>
                <path class="unit" d="M252.914,55.721 L293.489,65.849 L287.573,70.061 L246.999,59.969 L252.914,55.721" id="2102"/>
                <path class="unit" d="M246.825,60.074 L287.397,70.199 L282.248,73.889 L278.942,74.238 L240.455,64.632 L246.825,60.074" id="2103"/>
                <path class="unit" d="M261.787,76.012 L234.161,69.123 L240.283,64.736 L278.456,74.273 L261.787,76.012" id="2104"/>
                <path class="unit" d="M377.734,23.603 L373.869,26.351 L373.211,25.135 L375.957,23.15 L377.734,23.603" id="2105"/>
                <path class="unit" d="M379.23,35.748 L391.478,27.014 L400.418,29.275 L388.206,37.976 L379.23,35.748" id="2106"/>
                <path class="unit" d="M409.504,43.299 L388.522,38.044 L400.735,29.345 L427.216,35.957 L428.434,38.184 L423.039,42.047 L409.504,43.299" id="2107"/>
                <path class="unit" d="M391.166,26.943 L382.291,33.277 L379.332,32.547 L375.994,34.947 L370.738,33.624 L368.615,30.389 L378.011,23.672 L391.166,26.943" id="2108"/>
                <path class="unit" d="M376.271,35.018 L379.472,32.756 L382.116,33.417 C381.074,34.183 380.017,34.937 378.949,35.679 L376.271,35.018" id="2109"/>
                <path class="unit" d="M363.327,40.55 L359.639,43.159 L346.975,40.028 L350.663,37.382 L363.327,40.55" id="2110"/>
                <path class="unit" d="M368.061,38.393 L360.927,43.507 L359.917,43.264 L363.779,40.48 L350.834,37.244 L354.105,34.913 L368.061,38.393" id="2111"/>
                <path class="unit" d="M368.371,38.497 L375.957,40.377 L368.825,45.458 L361.236,43.579 L368.371,38.497" id="2112"/>
                <path class="unit" d="M387.268,43.194 L376.76,50.676 L365.764,47.927 L376.239,40.446 L387.268,43.194" id="2113"/>
                <path class="unit" d="M406.754,49.354 L397.602,55.894 L377.073,50.746 L387.548,43.264 L405.47,47.717 L406.754,49.354" id="2114"/>
                <path class="unit" d="M128.382,118.185 L115.499,114.955 L115.465,114.919 L113.897,112.762 L104.085,119.755 L120.849,124.026 L128.382,118.185" id="2115"/>
                <path class="unit" d="M128.688,118.26 L136.413,117.702 L155.065,122.298 L144.486,129.989 L121.195,124.111 L128.688,118.26" id="2116"/>
                <path class="unit" d="M111.219,88.609 L101.197,95.745 L104.294,96.511 L100.327,99.364 L94.934,98.006 L90.202,101.382 L81.954,99.329 L100.64,85.965 L111.219,88.609" id="2117"/>
                <path class="unit" d="M304.415,70.373 L319.063,74.028 L321.23,72.5 L306.829,68.666 L304.415,70.373 Z M304.415,70.373" id="2118"/>
        </g>
    </g>
</svg>