<?xml version="1.0" encoding="utf-8"?>
<!DOCTYPE svg PUBLIC "-//W3C//DTD SVG 1.1//EN" "http://www.w3.org/Graphics/SVG/1.1/DTD/svg11.dtd">
<svg version="1.1" xmlns="http://www.w3.org/2000/svg" xmlns:xlink="http://www.w3.org/1999/xlink" xml:space="preserve">
<g class="level" id="level0">
                <g class="outline">
                    <path d="M437.7,41.5 L434,35.3 C433.8,34.9 433.4,34.7 433,34.6 L426.7,33 L429.2,31.2 C429.6,30.9 429.9,30.4 429.9,29.9 L429.9,26.7 C429.9,25.9 429.4,25.3 428.7,25.1 L334.5,1.4 C334,1.3 333.5,1.4 333.1,1.7 L325.2,7.6 L318.3,8.3 C318,8.3 317.8,8.4 317.5,8.6 L310.8,13.4 C310.4,13.7 310.1,14.2 310.1,14.7 L310.1,15.3 L301.1,21.8 L299.2,22 C298.9,22 298.7,22.1 298.4,22.3 L294.8,24.8 L294.5,25.1 L282.4,22.1 C281.9,22 281.4,22.1 281.1,22.4 L246.4,47.2 C246,47.5 245.7,48 245.7,48.5 L245.7,51.6 C245.7,52.4 246.2,53 246.9,53.2 L252.3,54.6 L235,67 C234.6,67.3 234.3,67.8 234.3,68.3 L234.3,68.5 L231.3,69.2 L174.2,55.8 L176.3,54.3 C176.8,53.9 177,53.4 177,52.8 L176.6,50.1 C176.5,49.4 176,48.8 175.2,48.7 L175.1,48.7 L115.2,34.1 C114.8,34 114.4,34.1 114.1,34.2 L67.3,58.1 C66.8,58.4 66.4,58.9 66.4,59.6 L66.4,61.9 L65.8,62.2 L61.5,62.8 C60.7,62.9 60.1,63.6 60.1,64.4 L60.1,67.6 C60.1,67.8 60.1,68 60.2,68.2 L61.9,72.1 C62.1,72.6 62.5,72.9 63,73 L82.1,77.8 L33.2,112.8 C32.9,113 32.8,113.2 32.6,113.5 L28.8,122.8 C28.7,123 28.7,123.1 28.7,123.3 L28.7,123.9 C28.6,124.7 29.2,125.4 29.9,125.6 L58.4,132.7 C58.9,132.8 59.4,132.7 59.7,132.4 L66.1,127.8 C66.1,127.8 66.2,127.8 66.2,127.7 L67.3,128 C67.8,128.1 68.2,128 68.6,127.7 L70,126.7 C70.4,126.4 70.7,125.9 70.7,125.4 L70.7,122 L76.8,122 L77,122.1 C77.5,122.2 77.9,122.1 78.3,121.8 C81.3,119.7 83.1,118.3 83.8,117.8 C84.3,117.4 84.5,116.8 84.4,116.2 C84.3,115.6 83.8,115.1 83.2,115 L82,114.7 L80.5,112.3 L83.4,110.2 L83.7,109.9 L93.7,102.8 L101.8,104.8 C102.3,105 102.9,104.9 103.3,104.6 L105.8,102.8 L105.8,104.2 C105.8,105 106.3,105.6 107,105.8 L172.8,122.3 L167.4,126.2 L155,123 C154.5,122.9 154,123 153.7,123.3 L144.9,129.6 C144.5,129.9 144.2,130.4 144.2,130.9 L144.2,134 C144.2,134.6 144.5,135.2 145.1,135.5 L143.3,136.8 C142.9,137.1 142.6,137.6 142.6,138.1 L142.6,141.3 L142.6,141.4 L139.1,143.9 C138.7,144.2 138.4,144.7 138.4,145.2 L138.4,145.8 L130.2,143.8 C129.7,143.7 129.2,143.8 128.9,144.1 L113.3,155.3 L113.2,155.4 C113.1,155.4 113.1,155.5 113,155.5 L100.4,164.6 C100.2,164.7 100,164.9 99.9,165.1 L97.4,164.5 C96.9,164.4 96.5,164.5 96.1,164.8 L88.7,170 C88.3,170.3 88,170.8 88,171.3 L88,171.9 L78.8,178.4 L77,178.6 C76.7,178.6 76.4,178.7 76.2,178.9 L66,186.2 C65.6,186.5 65.3,187 65.3,187.5 L65.3,190.7 C65.3,191.5 65.8,192.1 66.5,192.3 L67.5,192.5 L62.7,195.9 C62.3,196.2 62,196.7 62,197.2 L62,200.4 C62,201.2 62.5,201.8 63.2,202 L147.3,223 L147.7,223 C148,223 148.4,222.9 148.6,222.7 L159.1,215.2 L178,219.9 C178.2,219.9 178.3,220 178.5,219.9 L193.3,218.9 C193.6,218.9 193.9,218.8 194.1,218.6 L205.3,210.6 C205.6,210.4 205.8,210.1 205.9,209.7 C206.3,209.7 206.7,209.6 207,209.4 L254.1,175.7 C254.5,175.4 254.8,174.9 254.8,174.4 L254.8,171.2 C254.8,170.4 254.3,169.8 253.6,169.6 L238.7,165.9 L256,153.5 C256.4,153.2 256.7,152.7 256.7,152.2 L256.7,149 C256.7,148.5 256.5,148 256.1,147.7 L261.9,143.6 C262.3,143.3 262.6,142.8 262.6,142.3 L262.6,142.2 L277,146 C277.2,146 277.4,146.1 277.6,146 L299.8,143.7 C300.1,143.7 300.4,143.6 300.6,143.4 L330.5,122 C330.9,121.7 331.2,121.2 331.2,120.7 L331.2,117.5 C331.2,117.2 331.1,116.8 330.9,116.6 L324.8,107.3 C324.6,107 324.2,106.7 323.8,106.6 L316.1,104.7 L323.2,99.6 L328.3,100.9 C328.8,101 329.3,100.9 329.6,100.6 L351.4,85.1 C351.6,84.9 351.8,84.7 352,84.4 L375.5,90.3 C376,90.4 376.5,90.3 376.8,90 L428.2,53.2 C428.5,53 428.7,52.7 428.8,52.4 C429.1,52.4 429.5,52.3 429.7,52.1 L437.2,46.7 C437.6,46.4 437.9,45.9 437.9,45.4 L437.9,42.2 C438,42 437.9,41.7 437.7,41.5 C437.7,41.5 437.9,41.7 437.7,41.5 L437.7,41.5" class="outline"/>
                </g>
                <g class="label">
                    <path d="M16.4,39.7 L11.6,39.7 L11.6,35.8 L15.5,35.8 C15.9,35.8 16.1,35.5 16.1,35.2 C16.1,34.9 15.9,34.6 15.5,34.6 L11.6,34.6 L11.6,31 L16.2,31 C16.6,31 16.8,30.7 16.8,30.4 C16.8,30.1 16.6,29.8 16.2,29.8 L11.4,29.8 C10.7,29.8 10.3,30.2 10.3,30.8 L10.3,40 C10.3,40.6 10.7,41 11.4,41 L16.3,41 C16.7,41 16.9,40.7 16.9,40.4 C17,40 16.8,39.7 16.4,39.7 L16.4,39.7 L16.4,39.7 Z M8.3,39.8 L4,39.8 L4,30.4 C4,30 3.7,29.7 3.4,29.7 C3,29.7 2.8,30 2.8,30.4 L2.8,40 C2.8,40.6 3.2,41 3.9,41 L8.4,41 C8.7,41 9,40.7 9,40.4 C9,40.1 8.7,39.8 8.3,39.8 L8.3,39.8 L8.3,39.8 Z M26.2,29.7 C25.9,29.7 25.7,29.9 25.6,30.2 C24.3,36.1 23.2,38.7 22.5,39.8 C21.8,38.7 20.7,36.1 19.4,30.2 C19.3,29.9 19.1,29.7 18.8,29.7 C18.4,29.7 18.2,29.9 18.2,30.3 C18.2,30.4 18.2,30.6 18.3,30.8 C19.4,35.3 20.1,37.6 21,39.4 C21.6,40.6 22,41 22.5,41 C23.1,41 23.4,40.6 24,39.4 C24.9,37.6 25.6,35.3 26.7,30.8 C26.7,30.6 26.8,30.4 26.8,30.3 C26.8,30 26.5,29.7 26.2,29.7 L26.2,29.7 L26.2,29.7 Z M50.4,29.7 C50.2,29.7 50,29.7 49.7,30 C48.9,30.6 48.6,30.8 47.8,31.1 C47.3,31.3 47.2,31.5 47.2,31.8 C47.2,32.1 47.5,32.4 47.8,32.4 C47.9,32.4 48.1,32.4 48.3,32.3 C48.8,32.1 49.4,31.8 49.9,31.4 L49.9,40.5 C49.9,40.9 50.2,41.1 50.5,41.1 C50.9,41.1 51.1,40.9 51.1,40.5 L51.1,30.8 C51.2,30 50.8,29.7 50.4,29.7 L50.4,29.7 L50.4,29.7 Z M34.5,39.7 L29.7,39.7 L29.7,35.8 L33.6,35.8 C34,35.8 34.2,35.5 34.2,35.2 C34.2,34.9 34,34.6 33.6,34.6 L29.7,34.6 L29.7,31 L34.3,31 C34.7,31 34.9,30.7 34.9,30.4 C34.9,30.1 34.7,29.8 34.3,29.8 L29.5,29.8 C28.8,29.8 28.4,30.2 28.4,30.8 L28.4,40 C28.4,40.6 28.8,41 29.5,41 L34.4,41 C34.8,41 35,40.7 35,40.4 C35.1,40 34.9,39.7 34.5,39.7 L34.5,39.7 L34.5,39.7 Z M42.4,39.8 L38.1,39.8 L38.1,30.4 C38.1,30 37.8,29.7 37.5,29.7 C37.1,29.7 36.9,30 36.9,30.4 L36.9,40 C36.9,40.6 37.3,41 38,41 L42.5,41 C42.9,41 43.2,40.7 43.2,40.4 C43,40.1 42.8,39.8 42.4,39.8 L42.4,39.8 L42.4,39.8 Z M42.4,39.8" class="Shape"/>
                    <path d="M26.8,105.3 C26.5,104.9 26.2,104.7 25.8,104.6 C25.4,104.5 25,104.5 24.5,104.7 C24.7,104.3 24.8,104 24.7,103.6 C24.7,103.3 24.5,102.9 24.3,102.7 C24.1,102.4 23.8,102.2 23.4,102.1 C23,102 22.7,101.9 22.3,102 C21.9,102.1 21.5,102.3 21,102.7 L18.7,104.5 L23.5,110.7 L25.9,108.9 C26.3,108.6 26.6,108.3 26.8,108 C27,107.7 27.2,107.4 27.2,107.2 C27.3,106.9 27.3,106.6 27.2,106.3 C27.2,106 27,105.6 26.8,105.3 L26.8,105.3 L26.8,105.3 Z M20.1,104.6 L21.3,103.6 C21.7,103.3 22.1,103 22.3,103 C22.5,102.9 22.8,102.9 23,103 C23.2,103.1 23.4,103.2 23.6,103.4 C23.8,103.6 23.9,103.8 23.9,104.1 C23.9,104.3 23.8,104.6 23.7,104.8 C23.6,105 23.3,105.2 23,105.5 L21.6,106.5 L20.1,104.6 L20.1,104.6 Z M26.2,107.2 C26.1,107.4 26,107.6 25.9,107.7 L25.4,108.2 L23.8,109.4 L22.2,107.3 L23.6,106.2 C24,105.9 24.3,105.7 24.6,105.6 C24.9,105.5 25.1,105.5 25.4,105.6 C25.7,105.7 25.9,105.8 26,106.1 C26.2,106.3 26.2,106.5 26.3,106.7 C26.3,106.8 26.2,107 26.2,107.2 L26.2,107.2 L26.2,107.2 Z M6.3,115.2 L5.7,114.5 L0.7,118.3 L1.3,119 L3.4,117.4 L7.6,122.9 L8.4,122.3 L4.2,116.8 L6.3,115.2 L6.3,115.2 Z M11.8,113.5 C11.5,113.3 11.2,113.3 10.8,113.4 C10.5,113.5 10.1,113.6 9.8,113.9 C9.3,114.3 9,114.9 8.9,115.6 L7.2,113.4 L6.4,114 L11.2,120.2 L12,119.6 L10.1,117.1 C9.8,116.7 9.7,116.4 9.6,116.2 C9.5,115.9 9.6,115.7 9.7,115.4 C9.8,115.1 10,114.9 10.2,114.7 C10.5,114.5 10.8,114.4 11.1,114.4 C11.4,114.4 11.7,114.7 12,115 L14.2,117.9 L15,117.3 L12.8,114.4 C12.4,114 12.1,113.7 11.8,113.5 L11.8,113.5 L11.8,113.5 Z M18.1,112.6 C18.2,113 18.3,113.4 18.2,113.7 C18.1,114 17.9,114.3 17.6,114.5 C17.2,114.8 16.8,114.9 16.4,114.8 C15.9,114.7 15.5,114.5 15.1,114 L18.5,111.4 C18.4,111.3 18.4,111.2 18.3,111.2 C17.7,110.5 17.1,110 16.4,109.9 C15.7,109.8 15,110 14.4,110.4 C13.8,110.9 13.4,111.5 13.4,112.2 C13.3,112.9 13.6,113.7 14.2,114.4 C14.8,115.1 15.4,115.6 16.1,115.7 C16.8,115.8 17.5,115.6 18.1,115.1 C18.6,114.7 19,114.2 19.1,113.7 C19.2,113.2 19.2,112.6 19,112.1 L18.1,112.6 L18.1,112.6 Z M14.3,112 C14.4,111.6 14.6,111.2 14.9,111 C15.3,110.7 15.7,110.6 16.2,110.7 C16.5,110.8 16.8,111 17.1,111.3 L14.6,113.2 C14.4,112.8 14.2,112.4 14.3,112 L14.3,112 L14.3,112 Z M36.3,97.9 L35.5,96.9 C35.2,96.6 35,96.3 34.9,96.2 C34.7,96 34.5,95.9 34.3,95.9 C34.1,95.8 33.8,95.9 33.5,96 C33.2,96.1 32.8,96.3 32.5,96.6 C32.1,96.9 31.8,97.2 31.6,97.5 C31.4,97.8 31.3,98.2 31.3,98.5 C31.3,98.8 31.4,99.2 31.6,99.5 L32.4,99 C32.2,98.6 32.2,98.3 32.3,98 C32.4,97.7 32.6,97.5 33,97.2 C33.4,96.9 33.7,96.8 34.1,96.8 C34.3,96.8 34.6,97 34.8,97.3 L35,97.5 C34.8,97.8 34.4,98.3 33.8,98.8 L33.2,99.4 C33,99.6 32.9,99.8 32.8,100.1 C32.7,100.3 32.7,100.6 32.7,100.8 C32.7,101.1 32.8,101.3 33,101.5 C33.3,101.9 33.7,102.1 34.1,102.1 C34.6,102.1 35,102 35.5,101.6 C35.8,101.4 36,101.1 36.2,100.8 C36.4,100.5 36.5,100.1 36.6,99.7 C36.8,99.9 37,100 37.2,100.1 L38,99.5 C37.8,99.4 37.6,99.3 37.4,99.1 C37.2,99.1 36.8,98.6 36.3,97.9 L36.3,97.9 L36.3,97.9 Z M35.8,100.2 C35.7,100.5 35.5,100.8 35.2,101 C34.9,101.2 34.6,101.3 34.4,101.3 C34.1,101.3 33.9,101.2 33.8,101 C33.7,100.9 33.6,100.7 33.6,100.6 C33.6,100.4 33.6,100.3 33.7,100.1 C33.8,99.9 34,99.7 34.3,99.4 C34.8,98.9 35.1,98.5 35.3,98.2 L35.5,98.5 C35.8,98.8 35.9,99.1 36,99.4 C36,99.6 35.9,99.9 35.8,100.2 L35.8,100.2 L35.8,100.2 Z M55.2,83.4 L54.4,82.4 C54.1,82.1 53.9,81.8 53.8,81.7 C53.6,81.5 53.4,81.4 53.2,81.4 C53,81.3 52.7,81.4 52.4,81.5 C52.1,81.6 51.7,81.8 51.4,82.1 C51,82.4 50.7,82.7 50.5,83 C50.3,83.3 50.2,83.7 50.2,84 C50.2,84.3 50.3,84.7 50.5,85 L51.3,84.5 C51.1,84.1 51.1,83.8 51.2,83.5 C51.3,83.2 51.5,83 51.9,82.7 C52.3,82.4 52.6,82.3 53,82.3 C53.2,82.3 53.5,82.5 53.7,82.8 C53.7,82.8 53.8,82.9 53.8,83 C53.6,83.3 53.2,83.8 52.6,84.3 L52,84.9 C51.8,85.1 51.7,85.3 51.6,85.6 C51.5,85.9 51.5,86.1 51.5,86.3 C51.5,86.6 51.6,86.8 51.8,87 C52.1,87.4 52.5,87.6 52.9,87.6 C53.4,87.6 53.8,87.5 54.3,87.1 C54.6,86.9 54.8,86.6 55,86.3 C55.2,86 55.3,85.6 55.4,85.2 C55.6,85.4 55.8,85.5 56,85.6 L56.8,85 C56.6,84.9 56.4,84.8 56.2,84.6 C56.1,84.6 55.8,84.1 55.2,83.4 L55.2,83.4 L55.2,83.4 Z M54.7,85.7 C54.6,86 54.4,86.3 54.1,86.5 C53.8,86.7 53.5,86.8 53.3,86.8 C53,86.8 52.8,86.7 52.7,86.5 C52.6,86.4 52.5,86.2 52.5,86.1 C52.5,85.9 52.5,85.8 52.6,85.6 C52.7,85.4 52.9,85.2 53.2,84.9 C53.7,84.4 54,84 54.2,83.7 L54.4,84 C54.7,84.3 54.8,84.6 54.9,84.9 C54.9,85.1 54.9,85.4 54.7,85.7 L54.7,85.7 L54.7,85.7 Z M53.1,78.2 L57.9,84.4 L58.7,83.8 L53.9,77.6 L53.1,78.2 L53.1,78.2 Z M62.6,80.8 L63.5,80.1 L59.4,78.7 L59.8,75.7 L58.8,76.5 L58.4,79.7 L55.7,76.1 L55,76.7 L59.8,82.9 L60.6,82.3 L59.2,80.5 L59.3,79.6 L62.6,80.8 L62.6,80.8 Z M39.9,88.2 L41.6,90.4 C41.3,90.3 41,90.3 40.7,90.3 C40.4,90.3 40.1,90.5 39.8,90.7 C39.4,91 39.2,91.3 39,91.8 C38.8,92.2 38.8,92.7 39,93.2 C39.1,93.7 39.4,94.2 39.7,94.6 C40.1,95.1 40.5,95.4 40.9,95.6 C41.3,95.8 41.8,95.9 42.2,95.9 C42.7,95.9 43.1,95.7 43.4,95.4 C44,95 44.2,94.4 44.2,93.8 L44.6,94.4 L45.3,93.9 L40.5,87.7 L39.9,88.2 L39.9,88.2 Z M43.1,92.2 C43.5,92.8 43.7,93.3 43.7,93.7 C43.7,94.2 43.5,94.5 43.2,94.8 C42.9,95.1 42.5,95.1 42,95 C41.5,94.9 41.1,94.6 40.6,94 C40.1,93.4 39.9,92.9 39.9,92.4 C39.9,91.9 40.1,91.6 40.4,91.3 C40.8,91 41.2,91 41.6,91.1 C42.2,91.3 42.6,91.6 43.1,92.2 L43.1,92.2 L43.1,92.2 Z M37.3,95 C37.2,94.8 37.2,94.6 37.3,94.4 C37.4,94.2 37.5,94 37.6,93.9 C37.8,93.8 38,93.7 38.3,93.6 L38,92.7 C37.6,92.7 37.3,92.9 37,93.1 C36.8,93.2 36.7,93.4 36.6,93.6 C36.5,93.8 36.5,94.2 36.6,94.6 L36.1,93.9 L35.4,94.4 L38.9,98.9 L39.7,98.3 L37.9,96 C37.6,95.6 37.4,95.3 37.3,95 L37.3,95 L37.3,95 Z M48.1,84.7 L49.3,87.9 L49.7,89 L48.8,88.3 L46.1,86.2 L45.3,86.8 L46.6,90 C46.9,90.7 47.1,91.1 47.1,91.1 L46.1,90.3 L43.4,88.2 L42.6,88.8 L47.5,92.3 L48.3,91.7 L46.5,87.5 L47.3,88.1 L50.1,90.3 L50.9,89.7 L48.8,84.1 L48.1,84.7 L48.1,84.7 Z M31.4,101 C30.8,100.3 30.2,99.9 29.5,99.8 C28.8,99.7 28.1,99.9 27.5,100.4 C26.9,100.8 26.6,101.4 26.5,102 C26.3,102.8 26.6,103.6 27.2,104.4 C27.8,105.2 28.4,105.6 29.1,105.7 C29.8,105.8 30.5,105.6 31.1,105.1 C31.5,104.8 31.8,104.4 32,104 C32.2,103.6 32.2,103.1 32.2,102.6 C32.1,102.1 31.8,101.6 31.4,101 L31.4,101 L31.4,101 Z M30.7,104.4 C30.3,104.7 29.9,104.8 29.4,104.7 C28.9,104.6 28.5,104.3 28,103.7 C27.6,103.1 27.4,102.6 27.4,102.1 C27.4,101.6 27.6,101.2 28,100.9 C28.4,100.6 28.8,100.5 29.3,100.6 C29.8,100.7 30.2,101 30.7,101.6 C31.2,102.2 31.4,102.7 31.3,103.2 C31.2,103.7 31,104.1 30.7,104.4 L30.7,104.4 L30.7,104.4 Z M30.7,104.4" class="Shape"/>
                </g>
                <g class="background">
                    <path d="M383.4,24.5 L332.1,11.7 L325.9,16.1 L325.9,16.7 L345.4,21.6 L350.1,18.3 L361.2,21 L360.7,21.4 L356.7,21.8 L351.4,25.6 L342.1,26.6 L315.4,19.9 L312.8,15.8 L300.3,24.8 L300.3,25.4 L310.9,24.2 L347.8,33.4 L328.5,47.3 L323.5,48 L315.9,53.4 L315.9,54 L316.1,56.1 L288.1,76.3 L264.7,78.8 L238.5,72.2 L236.9,69.5 L233,72.2 L170.7,56.7 L122.6,68.8 L123.4,69.1 L104.3,71.4 L68.5,62.4 L66.5,63.4 L66.5,64 L94.3,70.9 L34.3,113.8 L30.4,123.2 L30.4,123.8 L59,130.9 L65.5,126.3 L65.5,125.6 L42.6,120 L45.6,117.8 L45.6,117.2 L43.5,116.7 L48,113.5 L58.7,116.2 L60,118.5 L67.2,120.3 L77.3,120.3 L77.7,120.4 L83.1,116.4 L81.3,115.9 L79.2,112.6 L77.2,112.1 L75.4,112.2 L62.4,109 L55.6,110.5 L53.3,109.9 L101.7,75.3 L131.2,71.7 L205.5,96.3 L233.7,76.7 L260.2,83.3 L262.1,86.3 L239.7,102.3 L228.1,103.6 L220.9,101.8 L219,98.8 L215.8,97.5 L207.5,96 L194.6,105.2 L194.6,105.9 L200.5,107.8 L206,108.7 L212.9,108.1 L220.1,109.9 L222.7,114.4 L200.3,130.4 L189.9,130.7 L183.1,135.6 L183.1,136.2 L188.8,144.7 L162,163.8 L155.1,165.1 L146.8,171.1 L146.8,171.7 L148.1,173.7 L131,186 L128.2,186.4 L92.8,177.5 L89.9,172.6 L77.3,181.6 L77.3,182.3 L86.3,181.4 L113,188.1 L115.4,191.6 L110.4,195.1 L110.4,195.8 L111.2,197 L110.3,197.7 L99,194.8 L103.1,191.9 L103.1,191.2 L82.1,186 L74.5,191.5 L74.5,192.2 L123.1,204.3 L133.8,202.8 L143.5,195.8 L143.5,195.2 L141,191.3 L159.9,177.8 L167,177 L174.6,171.6 L174.6,171 L173,168.4 L201.6,148 L212,147.2 L219.2,142.1 L219.2,141.5 L214.4,134.1 L235.4,119.1 L247.8,117.7 L277.6,125.2 L286.4,118.9 L286.4,118 L256.6,110.5 L253.6,105.7 L274.5,90.7 L293.3,88.7 L301.4,82.9 L301.4,82.3 L299.8,79.8 L328,59.6 L335.3,58.8 L342.8,53.4 L342.8,52.7 L340.8,50.3 L360.2,36.4 L371.4,35.6 L381.2,28.6 L381.2,28 L380.5,26.9 L383.2,24.9 L383.4,24.5" class="walkway"/>
                    <path d="M437.8,42 L437.8,45.2 L430.3,50.6 L428.7,50.2 L428.7,51.7 L377.1,88.6 L351.7,82.2 L351.7,83.6 L329.9,99.2 L324.1,97.7 L313.4,105.3 L324.6,108.1 L330.7,117.4 L330.7,120.6 L300.7,142 L278.4,144.3 L261.8,140.1 L261.8,142.3 L253.3,148.4 L255.9,149.1 L255.9,152.3 L235.7,166.8 L254.1,171.4 L254.1,174.6 L206.9,208.4 L205.2,208 L205.2,209.6 L193.9,217.6 L179.1,218.6 L159.4,213.7 L148.3,221.7 L63.9,200.6 L63.9,197.4 L71.6,191.9 L67.1,190.8 L67.1,187.6 L69.9,185.6 L70.1,185.5 L77.3,180.3 L86.4,179.4 L113.2,186.1 L115.9,190.2 L115.9,193.3 L111.7,196.3 L111.7,198.7 C111.4,198.9 111.1,199.1 110.9,199.3 L123.2,202.4 L128.8,201.5 L128.8,201.6 L128.9,201.6 L128.9,201.5 L133.7,200.9 L142,195 L141.3,193.9 L141.2,193.7 L140.7,192.8 L140.7,189.6 L148.4,184.1 L149.7,184.4 L149.7,183.2 L159.6,176.1 L159.6,175.9 L159.9,175.9 L160,175.9 L167,175.2 L173.1,170.8 L172.6,170 L172.6,166.9 L188.7,155.3 L190.4,155.7 L190.4,154.1 L201.5,146.2 L211.9,145.4 L217.6,141.3 L213.9,135.6 L213.9,132.4 L231.2,120 L232.5,120.3 L232.5,119.1 L235.3,117.2 L247.8,115.8 L275.7,122.8 L275.7,124.5 L282.9,119.4 L256.6,112.8 L256.5,112.8 L256.2,112.7 L256.2,112.3 L253.3,107.5 L253.2,107.5 L253.2,107.4 L253.2,104.2 L253.4,104.2 L256,102.4 L257.3,102.7 L257.3,101.4 L269.5,92.6 L269.7,92.5 L274.5,89.1 L293.3,87.1 L293.4,87.1 L299.9,82.4 L299.4,81.6 L299.4,78.4 L301.5,76.9 L301.7,76.8 L310.5,70.4 L311.9,70.8 L311.9,69.4 L327.9,57.9 L335.2,57.1 L341,53 L340.3,52.2 L340.3,49.1 L346.7,44.5 L346.9,44.4 L351,41.5 L352.6,41.9 L352.6,40.3 L360.2,34.9 L371.4,34.1 L372.6,33.2 L372.8,33.1 L379,28.6 L379.2,28.5 L380.2,27.7 L380.2,25.8 L362.1,21.3 L362.1,22.5 L360.9,23.4 L356.9,23.8 L351.5,27.6 L342.1,28.6 L331.5,25.9 L331.2,25.8 L315.4,21.9 L312.7,17.7 L312.7,14.5 L319.4,9.7 L326.3,9 L326.4,9 L326.6,9 L335,2.7 L429.5,26.3 L429.5,29.5 L424.1,33.4 L433.9,35.9 L437.8,42 M329.6,15.5 L345.5,19.5 L348.2,17.6 L332.3,13.6 L329.6,15.5 M99.7,192.4 L82.3,188 L78.3,190.8 L78,191 L98.2,196 L98.2,193.3 L99.7,192.4 M258.4,128.4 L258.2,128.4 L258.2,128.6 L258.4,128.4" class="wall"/>
                    <path d="M348.8,34.8 L329,48.9 L329,49.1 L328.7,49.1 L328.6,49.1 L323.8,49.8 L316.6,55 L316.6,57.8 L316.5,57.8 L316.5,57.9 L316.4,57.9 L305.6,65.6 L304,65.2 L304,66.8 L288.3,78 L264.8,80.5 L238.4,74 L236.8,71.3 L236.8,68.1 L257.1,53.6 L248.2,51.4 L248.2,48.3 L277.7,27.2 L277.9,27.1 L283,23.5 L296.9,26.9 L296.9,26 L300.5,23.5 L311.2,22.3 L348.9,31.7 L348.8,34.8" class="wall"/>
                    <path d="M107.9,100.8 L163.3,61.2 L226,76.9 L226,75.8 L227.7,74.6 L233.8,74.5 L260.4,81.2 L262.6,84.7 L262.6,87.9 L239.9,104.2 L228.2,105.5 L220.9,103.7 L219,100.7 L215.9,99.9 L215.9,97.5 L213.3,99.3 L207.8,97.9 L198.3,104.7 L200.6,105.3 L200.6,107.7 L203.1,105.9 L206.3,106.7 L213.2,106.1 L220.5,107.9 L223.4,112.9 L223.4,116.1 L200.7,132.3 L190.3,132.6 L185,136.4 L189.5,143.2 L189.5,146.4 L174.7,157 L172,156.3 L172,159 L162.4,165.9 L155.5,167.2 L148.7,172.1 L148.9,172.4 L149,172.4 L149,172.5 L149.1,172.6 L149.1,175.8 L148.9,175.7 L131.3,188 L128.4,188.4 L92.8,179.5 L89.9,174.4 L89.9,171.2 L97.3,166 L101.7,167.1 L101.7,165.9 L114.4,156.8 L114.6,156.7 L117.6,154.5 L117.8,154.4 L130.4,145.4 L140.7,147.9 L140.7,145.2 L145.9,141.5 L144.9,141.3 L144.9,138.1 L149.6,134.8 L146.5,134 L146.5,130.8 L155.3,124.5 L168.5,127.8 L178,121 L182.8,122.2 L189.7,117.3 L189.9,117.2 L192.8,115.1 L192.8,114.1 L190.2,116 L184.7,114.6 L175.8,121 L107.9,104 L107.9,100.8 M116.6,172.7 L116.6,172.8 L116.6,172.7 M230.9,81.3 L225.8,85 L228,85.6 L228,88 L230.5,86.2 L233.5,87 L239.7,82.5 L230.8,80.3 L230.8,81.3" class="wall"/>
                    <path d="M175.3,53.5 L159.4,64.9 L129.6,68.4 L142.2,71.6 L142.2,74.7 L106,100.6 L106.1,100.6 L102.7,103 L102.5,102.9 L93.7,100.7 L93.5,100.7 L82.5,108.5 L82.6,108.5 L77.7,112.1 L77.1,112 L75.3,112.1 L62.3,108.9 L55.5,110.4 L52.3,109.6 L52.3,106.4 L61.1,100.1 L61.3,100 L67.9,95.2 L68.1,95.1 L95.7,75.4 L95.9,75.3 L99.3,72.9 L99.5,72.8 L101.6,71.3 L103.3,71.1 L91.4,68.1 L91.4,71 L84.3,76.1 L63.8,71 L62.1,67.1 L62.1,63.9 L70.3,62.8 L68.4,62.3 L68.4,59.1 L115.4,35.2 L175.3,50.2 L175.3,53.5" class="wall"/>
                    <path d="M67.4,119.7 L65.7,120.9 L69.5,121.8 L69.5,125.4 L68.1,126.4 L41.8,119.8 L41.8,116.6 L42.7,115.9 L42.7,113.3 L48.1,109.5 L59,112.2 L60.3,114.5 L67.3,116.2 L67.4,119.7" class="wall"/>
                    <path d="M281.5,86.4 L276.6,85 L276.6,81.4 L279.7,79.2 L284.6,80.6 L284.6,84.1 L281.5,86.4 L281.5,86.4 Z M281.5,86.4" class="wall"/>
                    <path d="M373.2,31.5 L368.3,30.1 L368.3,26.5 L371.4,24.3 L376.3,25.7 L376.3,29.2 L373.2,31.5 L373.2,31.5 Z M373.2,31.5" class="wall"/>
                    <path d="M205.1,139.2 L200.2,137.8 L200.2,134.2 L203.3,132 L208.2,133.4 L208.2,136.9 L205.1,139.2 L205.1,139.2 Z M205.1,139.2" class="wall"/>
                    <path d="M193.7,150.9 L188.8,149.5 L188.8,145.9 L191.9,143.7 L196.8,145.1 L196.8,148.6 L193.7,150.9 L193.7,150.9 Z M193.7,150.9" class="wall"/>
                </g>
                <g class="ceilings">
                    <path class="unit" d="M91.5,180.7 L96,181.8 L89.6,186.4 L85.1,185.3 L91.5,180.7" id="1001"/>
                    <path class="unit" d="M91.3,180.6 L84.9,185.2 L81.9,184.5 L77.9,187.3 L70.1,185.3 L77.2,180.2 L86,179.3 L91.3,180.6" id="1002"/>
                    <path class="unit" d="M109.2,185 L102.8,189.6 L95,187.7 L101.5,183.1 L109.2,185" id="1003"/>
                    <path class="unit" d="M101.1,183 L94.7,187.6 L90,186.4 L96.4,181.8 L101.1,183" id="1004"/>
                    <path class="unit" d="M77.7,187.4 L74.2,190 L74.1,190 L75,189.4 L67.3,187.5 L70,185.5 L77.7,187.4" id="1005"/>
                    <path class="unit" d="M112.6,186 L115.2,189.9 L109.9,193.7 L110.9,195.3 L109.8,196.1 L98.2,193.2 L109.3,185.2 L112.6,186" id="1006"/>
                    <path class="unit" d="M188.6,155.2 L217.7,162.5 L213.4,165.6 L184.3,158.3 L188.6,155.2" id="1007"/>
                    <path class="unit" d="M209,168.7 L179.9,161.4 L184.2,158.3 L213.3,165.6 L209,168.7" id="1008"/>
                    <path class="unit" d="M210.7,169.2 L205.1,173.2 L174,165.4 L179.6,161.4 L210.7,169.2" id="1009"/>
                    <path class="unit" d="M159.7,175.7 L188.8,183 L183.2,187 L154.1,179.8 L159.7,175.7" id="1010"/>
                    <path class="unit" d="M154,179.9 L180.2,186.5 L176,189.5 L149.8,183 L154,179.9" id="1011"/>
                    <path class="unit" d="M169.4,193.5 L143.9,187.1 L148.2,184.1 L173.7,190.5 L169.4,193.5" id="1012"/>
                    <path class="unit" d="M143.7,187.3 L169.2,193.7 L165.3,196.5 L141.2,190.5 L140.6,189.6 L143.7,187.3" id="1013"/>
                    <path class="unit" d="M141.3,190.5 L188.8,202.4 L186.1,204.4 L143.4,193.7 L141.3,190.5" id="1014"/>
                    <path class="unit" d="M173.9,165.7 L205.3,173.6 L220,163 L253.1,171.3 L206.2,204.9 L171.1,196.1 L189.3,183.1 L160.1,175.8 L166.9,175.1 L174.5,169.6 L172.6,166.6 L173.9,165.7" id="1015"/>
                    <path class="unit" d="M143.2,193.9 L186.1,204.6 L189.1,202.5 L194.3,203.8 L184.4,210.9 L136.3,198.9 L143.2,193.9" id="1016"/>
                    <path class="unit" d="M136.2,199 L184.6,211.1 L194.6,203.9 L204.1,206.3 L193.1,214.1 L178.6,215.1 L130,203 L128.8,201.4 L133.8,200.8 L136.2,199" id="1017"/>
                    <path class="unit" d="M147.6,218.1 L63.9,197.2 L73.9,190.1 L122.8,202.3 L128.4,201.4 L129.7,203 L158.7,210.2 L147.6,218.1" id="1018"/>
                    <path class="unit" d="M213.9,106.3 L210.1,109.1 L201.3,106.9 L202.8,105.9 L205.8,106.6 L212.7,106 L213.9,106.3" id="1019"/>
                    <path class="unit" d="M219.7,107.8 L221.3,110.7 L213.9,111.4 L199.9,107.9 L201.1,107 L210.2,109.3 L214.2,106.4 L219.7,107.8" id="1020"/>
                    <path class="unit" d="M221.4,110.9 L222.5,112.7 L217.3,116.4 L195.6,111 L199.7,108.1 L213.8,111.6 L221.4,110.9" id="1021"/>
                    <path class="unit" d="M213.7,119.1 L193.9,114.1 L194.7,113.6 L192.9,113.1 L195.6,111.1 L217.3,116.5 L213.7,119.1" id="1022"/>
                    <path class="unit" d="M209.6,122 L189.8,117.1 L193.8,114.2 L213.6,119.1 L209.6,122" id="1023"/>
                    <path class="unit" d="M189.5,117.2 L209.4,122.2 L205,125.3 L185.2,120.3 L189.5,117.2" id="1024"/>
                    <path class="unit" d="M177.7,121.1 L182.4,122.3 L184.9,120.5 L204.7,125.4 L199.9,128.8 L189.7,129.1 L172.4,124.7 L177.7,121.1" id="1025"/>
                    <path class="unit" d="M182.7,134.1 L189.5,129.2 L172.3,124.9 L168.2,127.8 L155,124.5 L152.5,126.3 L182.7,134.3 L182.7,134.1 L182.7,134.1 L182.7,134.1 Z M182.7,134.1" id="1026"/>
                    <path class="unit" d="M149,139.1 L182.5,147.5 L178.4,150.4 L144.9,142 L149,139.1" id="1027"/>
                    <path class="unit" d="M144.7,142.1 L178.2,150.5 L174.1,153.4 L140.6,145 L144.7,142.1" id="1028"/>
                    <path class="unit" d="M138.4,147.5 L134.9,150 L126.4,147.9 L129.9,145.4 L138.4,147.5" id="1029"/>
                    <path class="unit" d="M138.8,147.6 L171,155.7 L163.5,161.1 L122.5,150.8 L126.2,148.1 L134.9,150.3 L138.8,147.6" id="1030"/>
                    <path class="unit" d="M122.4,150.9 L163.4,161.1 L161.7,162.3 L154.9,163.6 L117.6,154.3 L122.4,150.9" id="1031"/>
                    <path class="unit" d="M117.4,154.4 L154.7,163.7 L151.7,165.8 L114.5,156.5 L117.4,154.4" id="1032"/>
                    <path class="unit" d="M110.6,159.3 L107.2,161.8 L147.9,172 L146.4,169.7 L147.7,168.7 L110.6,159.3 Z M110.6,159.3" id="1033"/>
                    <path class="unit" d="M142.8,175.9 L101.8,165.6 L107,161.9 L148,172.1 L142.8,175.9" id="1034"/>
                    <path class="unit" d="M108,168.8 L96.6,177 L92.7,176 L89.9,171.1 L97,166 L108,168.8" id="1035"/>
                    <path class="unit" d="M128.1,184.9 L104.7,179 L109.4,175.6 L134.3,181.8 L130.7,184.4 L128.1,184.9" id="1036"/>
                    <path class="unit" d="M138.5,178.9 L115.9,173.3 L120,170.4 L142.6,176 L138.5,178.9" id="1037"/>
                    <path class="unit" d="M134.5,181.8 L111.9,176.2 L115.7,173.5 L138.3,179.2 L134.5,181.8" id="1038"/>
                    <path class="unit" d="M115.9,170.8 L104.4,179 L97,177.2 L108.5,169 L115.9,170.8" id="1039"/>
                    <path class="unit" d="M235.2,116.8 L246,115.7 L245.4,119.9 L243.4,121.3 L232.7,118.6 L235.2,116.8" id="1040"/>
                    <path class="unit" d="M254.3,117.2 L247.3,122.2 L243.8,121.3 L245.8,119.8 L246.4,115.6 L247.5,115.5 L254.3,117.2" id="1041"/>
                    <path class="unit" d="M261.2,119 L254.2,124 L247.5,122.3 L254.5,117.3 L261.2,119" id="1042"/>
                    <path class="unit" d="M261.6,119.1 L268.4,120.8 L261.4,125.8 L254.6,124.1 L261.6,119.1" id="1043"/>
                    <path class="unit" d="M231.1,119.9 L257.3,126.4 L253.4,129.2 L227.2,122.7 L231.1,119.9" id="1044"/>
                    <path class="unit" d="M227.1,122.8 L253.3,129.4 L249.4,132.2 L223.2,125.7 L227.1,122.8" id="1045"/>
                    <path class="unit" d="M223,125.6 L249.2,132.2 L245.2,135.1 L219,128.5 L223,125.6" id="1046"/>
                    <path class="unit" d="M275,122.5 L256.6,135.7 L250.4,134.2 L268.8,121 L275,122.5" id="1047"/>
                    <path class="unit" d="M218.9,128.6 L245.1,135.1 L240.3,138.5 L220.6,133.6 L215.6,134.2 L214.1,132 L218.9,128.6" id="1048"/>
                    <path class="unit" d="M329.9,117.4 L300.1,138.7 L278.1,140.9 L259,136.1 L304.8,103.3 L323.9,108.1 L329.9,117.4" id="1049"/>
                    <path class="unit" d="M220.5,133.8 L240.4,138.8 L245.4,135.2 L261,139.1 L249.4,147.4 L219.1,139.8 L215.7,134.4 L220.5,133.8" id="1050"/>
                    <path class="unit" d="M201.5,145.9 L211.7,145.1 L227,149 L220.9,153.4 L218.3,152.8 L214.6,155.4 L195.2,150.5 L201.5,145.9" id="1051"/>
                    <path class="unit" d="M194.9,150.6 L214.3,155.4 L210,158.5 L190.6,153.7 L194.9,150.6" id="1052"/>
                    <path class="unit" d="M227.5,148.9 L212,145 L219,140 L255,149 L233.5,164.4 L213,159.2 L227.5,148.9" id="1053"/>
                    <path class="unit" d="M298.7,66.9 L270.9,59.9 L275.3,56.8 L303.1,63.8 L298.7,66.9" id="1054"/>
                    <path class="unit" d="M294.5,69.9 L266.7,62.9 L270.8,60 L298.6,67 L294.5,69.9" id="1055"/>
                    <path class="unit" d="M266.6,63.1 L294.4,70 L290.3,72.9 L262.5,66 L266.6,63.1" id="1056"/>
                    <path class="unit" d="M236.8,68 L258.5,52.5 L273.2,56.2 L249.2,73.4 L238.3,70.7 L236.8,68" id="1057"/>
                    <path class="unit" d="M262.4,66.1 L290.2,73.1 L287.8,74.8 L284.5,75.1 L258.8,68.7 L262.4,66.1" id="1058"/>
                    <path class="unit" d="M258.5,68.8 L283.9,75.1 L274.4,76.1 L255,71.3 L258.5,68.8" id="1059"/>
                    <path class="unit" d="M253,71 L273.9,76.2 L264.5,77.2 L249.5,73.5 L253,71" id="1060"/>
                    <path class="unit" d="M242.8,79.8 L226.1,75.6 L227.5,74.6 L233.3,74.5 L245.9,77.6 L242.8,79.8" id="1061"/>
                    <path class="unit" d="M254.1,79.7 L251.1,81.9 L243.1,79.9 L246.1,77.8 L254.1,79.7" id="1062"/>
                    <path class="unit" d="M259.7,81.2 L261.9,84.6 L256.1,88.7 L237.5,84 L243.1,80 L251.4,82.1 L254.6,79.8 L259.7,81.2" id="1063"/>
                    <path class="unit" d="M255.9,88.8 L252.1,91.5 L233.5,86.8 L237.3,84.1 L255.9,88.8" id="1064"/>
                    <path class="unit" d="M230.3,86.3 L252,91.7 L248,94.6 L226.3,89.2 L230.3,86.3" id="1065"/>
                    <path class="unit" d="M227.2,85.5 L212.8,95.8 L207.6,94.5 L222,84.2 L227.2,85.5" id="1066"/>
                    <path class="unit" d="M243.8,97.5 L222.2,92.1 L226.2,89.2 L247.9,94.6 L243.8,97.5" id="1067"/>
                    <path class="unit" d="M228.4,97.7 L224,101 L220.8,100.2 L218.9,97.2 L215.9,96.4 L217.8,95.1 L228.4,97.7" id="1068"/>
                    <path class="unit" d="M218,95 L222,92.1 L243.6,97.5 L239.3,100.6 L233.7,101.2 L232,98.5 L218,95" id="1069"/>
                    <path class="unit" d="M231.8,98.7 L233.5,101.3 L227.9,102 L224.3,101.1 L228.8,97.9 L231.8,98.7" id="1070"/>
                    <path class="unit" d="M199.7,105.2 L189.6,112.4 L184.4,111.1 L194.5,103.9 L199.7,105.2" id="1071"/>
                    <path class="unit" d="M163.1,61.3 L230.1,78 L175.1,117.3 L108.1,100.6 L163.1,61.3" id="1072"/>
                    <path class="unit" d="M361.4,19.2 L360.4,19.9 L356.4,20.3 L354.4,21.7 L345.5,19.5 L350,16.3 L361.4,19.2" id="1073"/>
                    <path class="unit" d="M319.4,9.7 L326.2,9 L331.6,10.4 L325.5,14.8 L337.6,17.9 L331.1,22.5 L315.4,18.6 L312.8,14.5 L319.4,9.7" id="1074"/>
                    <path class="unit" d="M337.9,17.8 L354.2,21.9 L351.1,24.1 L342,25.1 L331.5,22.5 L337.9,17.8" id="1075"/>
                    <path class="unit" d="M300.2,23.3 L310.6,22.2 L315.5,23.4 L308.3,28.6 L296.9,25.7 L300.2,23.3" id="1076"/>
                    <path class="unit" d="M315.7,23.4 L320.8,24.7 L313.6,29.9 L308.6,28.6 L315.7,23.4" id="1077"/>
                    <path class="unit" d="M331.3,27.3 L327.5,30.1 L322.7,28.9 L326.5,26.2 L331.3,27.3" id="1078"/>
                    <path class="unit" d="M337.5,28.8 L333.6,31.5 L327.7,30 L331.5,27.3 L337.5,28.8" id="1079"/>
                    <path class="unit" d="M326.2,26 L319,31.2 L314,29.9 L321.2,24.7 L326.2,26" id="1080"/>
                    <path class="unit" d="M420.4,32.3 L326.5,8.8 L335,2.7 L428.9,26.2 L420.4,32.3" id="1081"/>
                    <path class="unit" d="M337.8,28.9 L342.4,30 L337.4,33.6 L332.7,32.4 L337.8,28.9" id="1082"/>
                    <path class="unit" d="M348,31.5 L343,35.1 L337.8,33.8 L342.8,30.2 L348,31.5" id="1083"/>
                    <path class="unit" d="M342.8,35.2 L334.6,41.1 L277.9,27 L282.8,23.5 L320.1,32.8 L323.4,30.4 L342.8,35.2" id="1084"/>
                    <path class="unit" d="M385.9,41.9 L359.4,35.3 L360.1,34.8 L371.3,34 L372.5,33.1 L391.6,37.9 L385.9,41.9" id="1085"/>
                    <path class="unit" d="M421.3,44.9 L372.7,32.7 L378.9,28.3 L427.5,40.4 L421.3,44.9" id="1086"/>
                    <path class="unit" d="M328.2,45.7 L271.5,31.5 L277.7,27 L334.4,41.2 L328.2,45.7" id="1087"/>
                    <path class="unit" d="M379.3,46.6 L352.8,39.9 L359.2,35.3 L385.7,41.9 L379.3,46.6" id="1088"/>
                    <path class="unit" d="M437.1,41.9 L429.8,47.1 L421.7,45.1 L428.1,40.5 L379.3,28.3 L381.4,26.8 L380.4,25.3 L383.3,23.2 L433.5,35.7 L437.1,41.9" id="1089"/>
                    <path class="unit" d="M376.4,51.4 L347,44.1 L350.9,41.3 L380.3,48.6 L376.4,51.4" id="1090"/>
                    <path class="unit" d="M323.1,46.5 L315.5,52 L315.7,54.5 L293.3,48.9 L282.5,56.6 L248.3,48.1 L271.2,31.7 L327.7,45.8 L323.1,46.5" id="1091"/>
                    <path class="unit" d="M315.7,54.7 L312.4,57 L290.1,51.5 L293.4,49.1 L315.7,54.7" id="1092"/>
                    <path class="unit" d="M309.1,59.3 L286.9,53.7 L290,51.5 L312.3,57.1 L309.1,59.3" id="1093"/>
                    <path class="unit" d="M305.1,62.2 L282.8,56.7 L286.7,53.9 L308.9,59.5 L305.1,62.2" id="1094"/>
                    <path class="unit" d="M332,65.2 L327.4,68.5 L316.7,65.8 L321.3,62.5 L332,65.2" id="1095"/>
                    <path class="unit" d="M393.2,39.8 L427.9,48.5 L398.4,69.6 L338.6,54.7 L342.9,51.6 L340.5,48.8 L346.8,44.3 L376.5,51.7 L393.2,39.8" id="1096"/>
                    <path class="unit" d="M316.5,66 L338.1,71.4 L333.9,74.4 L312.3,69 L316.5,66" id="1097"/>
                    <path class="unit" d="M376.7,85.1 L336.9,75.1 L341.3,72 L327.8,68.6 L332.6,65.2 L321.6,62.4 L328.2,57.7 L335.5,57 L338.6,54.8 L398.4,69.8 L376.7,85.1" id="1098"/>
                    <path class="unit" d="M310.5,70.3 L337.1,77 L333.2,79.8 L306.6,73.1 L310.5,70.3" id="1099"/>
                    <path class="unit" d="M306.3,73.2 L334.9,80.3 L330.3,83.6 L301.7,76.5 L306.3,73.2" id="1100"/>
                    <path class="unit" d="M301.6,76.6 L330.5,83.8 L339.3,77.5 L350.9,80.4 L329.4,95.8 L293.4,86.8 L301.5,81 L299.6,78.1 L301.6,76.6" id="1101"/>
                    <path class="unit" d="M298.2,99.3 L269.6,92.2 L273.7,89.3 L302.3,96.5 L298.2,99.3" id="1102"/>
                    <path class="unit" d="M311.8,102.8 L298.6,99.5 L302.8,96.5 L273.9,89.3 L274.4,88.9 L293.1,87 L323.4,94.6 L311.8,102.8" id="1103"/>
                    <path class="unit" d="M269.5,92.4 L295.7,99 L291.7,101.9 L265.5,95.3 L269.5,92.4" id="1104"/>
                    <path class="unit" d="M291.6,101.9 L287.7,104.7 L261.5,98.1 L265.4,95.3 L291.6,101.9" id="1105"/>
                    <path class="unit" d="M283.7,107.6 L257.5,101 L261.4,98.2 L287.6,104.7 L283.7,107.6" id="1106"/>
                    <path class="unit" d="M267.9,107.5 L253.4,103.8 L255.8,102.1 L270.3,105.8 L267.9,107.5" id="1107"/>
                    <path class="unit" d="M253.4,104 L267.6,107.6 L256.5,109.1 L253.4,104" id="1108"/>
                    <path class="unit" d="M256.7,109.1 L267.5,107.7 L263.2,110.8 L256.7,109.1" id="1109"/>
                    <path class="unit" d="M277.3,107.5 L270.3,112.5 L263.6,110.8 L270.6,105.8 L277.3,107.5" id="1110"/>
                    <path class="unit" d="M284.4,109.3 L277.4,114.3 L270.6,112.6 L277.6,107.6 L284.4,109.3" id="1111"/>
                    <path class="unit" d="M302.4,102.8 L284,116 L277.8,114.5 L296.2,101.3 L302.4,102.8" id="1112"/>
                    <path class="unit" d="M158.9,61.5 L104.2,68 L68.7,59.1 L115.3,35.4 L174.7,50.2 L158.9,61.5" id="1113"/>
                    <path class="unit" d="M90.5,67.9 L83.7,72.7 L63.7,67.7 L62.1,64 L70.5,62.8 L90.5,67.9" id="1114"/>
                    <path class="unit" d="M141.5,71.5 L129.3,80.2 L99.5,72.7 L101.5,71.3 L128.2,68.1 L141.5,71.5" id="1115"/>
                    <path class="unit" d="M125.7,82.8 L95.8,75.3 L99.2,72.9 L129,80.4 L125.7,82.8" id="1116"/>
                    <path class="unit" d="M95.7,75.5 L125.6,83 L118.8,87.8 L89,80.3 L95.7,75.5" id="1117"/>
                    <path class="unit" d="M88.9,100.6 L82.3,105.4 L61.3,100.1 L67.9,95.4 L88.9,100.6" id="1118"/>
                    <path class="unit" d="M88.8,80.4 L118.6,87.9 L113.9,91.3 L103.2,88.6 L100.5,90.5 L81.3,85.7 L88.8,80.4" id="1119"/>
                    <path class="unit" d="M81.1,85.9 L100.6,90.8 L103.3,88.8 L113.7,91.4 L105.1,97.6 L75.3,90.1 L81.1,85.9" id="1120"/>
                    <path class="unit" d="M102.2,99.7 L93.3,97.5 L89.1,100.5 L68.1,95.2 L75.1,90.2 L104.9,97.7 L102.2,99.7" id="1121"/>
                    <path class="unit" d="M75.2,108.9 L62.1,105.6 L55.3,107.1 L52.5,106.4 L61.1,100.2 L82.1,105.4 L77.4,108.8 L77,108.7 L75.2,108.9" id="1122"/>
                    <path class="unit" d="M43.9,117 L41.9,116.5 L45.6,113.9 L42.9,113.2 L47.9,109.6 L58.4,112.2 L58.8,112.9 L43.9,117" id="1123"/>
                    <path class="unit" d="M67.6,123 L44.3,117.2 L58.9,113.2 L59.7,114.6 L66.8,116.4 L61.7,120.1 L69.2,122 L67.6,123" id="1124"/>
                    <path class="unit" d="M148.7,135.2 L186.4,144.6 L182.6,147.3 L144.9,137.9 L148.7,135.2" id="1125"/>
                    <path class="unit" d="M146.6,130.6 L153,132.2 L149,135.1 L186.7,144.5 L188.7,143 L183.1,134.5 L152.4,126.4 L146.6,130.6 L146.6,130.6 Z M146.6,130.6" id="1126"/>
                    <path class="unit" d="M281.5,82.8 L276.6,81.4 L279.7,79.2 L284.6,80.6 L281.5,82.8 L281.5,82.8 Z M281.5,82.8" id="1127"/>
                    <path class="unit" d="M373.2,27.9 L368.3,26.5 L371.4,24.3 L376.3,25.7 L373.2,27.9 L373.2,27.9 Z M373.2,27.9" id="1128"/>
                    <path class="unit" d="M205.1,135.6 L200.2,134.2 L203.3,132 L208.2,133.4 L205.1,135.6 L205.1,135.6 Z M205.1,135.6" id="1129"/>
                    <path class="unit" d="M193.7,147.3 L188.8,145.9 L191.9,143.7 L196.8,145.1 L193.7,147.3 L193.7,147.3 Z M193.7,147.3" id="1130"/>
                    <path class="unit" d="M151.5,166 L114.3,156.7 L110.9,159.1 L148,168.6 L151.5,166 Z M151.5,166" id="1131"/>
        </g>
    </g>
</svg>