<?xml version="1.0" encoding="utf-8"?>
<!DOCTYPE svg PUBLIC "-//W3C//DTD SVG 1.1//EN" "http://www.w3.org/Graphics/SVG/1.1/DTD/svg11.dtd">
<svg version="1.1" xmlns="http://www.w3.org/2000/svg" xmlns:xlink="http://www.w3.org/1999/xlink" xml:space="preserve">
<g class="level" id="level2">
            <g class="outline">
                <path d="M169.64,48.88 L151.763,45.729 L148.722,54.818 L149.966,59.754 L167.841,62.907 L170.884,53.816 L169.64,48.88 Z M169.64,48.88" class="outline"/>
                <path d="M41.548,87.637 L72.488,73.684 L76.416,81.995 L127.152,59.243 L125.97,54.552 L117.451,36.536 L69.656,57.547 L65.683,49.072 L31.486,64.155 L32.671,68.858 L41.548,87.637 Z M41.548,87.637" class="outline"/>
                <path d="M126.24,64.517 L103.4,75.116 L104.447,79.269 L102.519,75.709 L58.615,96.059 L59.869,101.039 L70.042,119.416 L111.318,94.496 L110.119,89.74 L108.898,87.487 L131.544,76.832 L130.292,71.865 L126.24,64.517 Z M126.24,64.517" class="outline"/>
                <path d="M36.529,134.7 L24.005,147.984 L25.248,152.916 L39.191,162.059 L51.716,148.773 L50.472,143.842 L36.529,134.7 Z M36.529,134.7" class="outline"/>
                <path d="M48.011,107.667 L46.751,102.668 L37.628,84.352 L21.55,91.132 L22.812,96.131 L31.945,114.449 L48.011,107.667 Z M48.011,107.667" class="outline"/>
                <path d="M144.525,62.782 L141.068,73.12 L142.312,78.056 L164.125,81.903 L167.583,71.565 L166.339,66.629 L144.525,62.782 Z M144.525,62.782" class="outline"/>
                <path d="M71.515,131.659 L61.439,149.654 L62.685,154.595 L102.343,168.043 L112.382,149.666 L111.138,144.727 L71.515,131.659 Z M71.515,131.659" class="outline"/>
            </g>
            <g class="label">
                <path d="M62.789,2.152 C62.164,0.903 61.668,0.535 61.107,0.535 C60.546,0.535 60.05,0.903 59.425,2.152 C58.53,3.96 57.841,6.234 56.673,10.86 C56.609,11.084 56.577,11.26 56.577,11.372 C56.577,11.757 56.833,11.997 57.184,11.997 C57.471,11.997 57.68,11.82 57.76,11.484 C58.063,10.107 58.367,8.875 58.672,7.819 L63.537,7.819 C63.826,8.875 64.129,10.107 64.449,11.484 C64.529,11.82 64.738,11.997 65.025,11.997 C65.379,11.997 65.632,11.757 65.632,11.372 C65.632,11.261 65.585,11.084 65.536,10.86 C64.406,6.233 63.683,3.96 62.789,2.152 L62.789,2.152 Z M58.996,6.697 C59.73,4.248 60.389,2.728 60.9,1.926 C60.947,1.862 60.996,1.798 61.107,1.798 C61.218,1.798 61.267,1.862 61.316,1.926 C61.828,2.726 62.466,4.246 63.205,6.697 L58.996,6.697 L58.996,6.697 Z M24.437,1.352 C24.437,1.032 24.212,0.744 23.861,0.744 L17.009,0.744 C16.657,0.744 16.417,1.048 16.417,1.352 C16.417,1.656 16.61,1.944 17.009,1.944 L19.763,1.944 L19.763,11.356 C19.763,11.756 20.034,11.997 20.386,11.997 C20.722,11.997 20.995,11.757 20.995,11.356 L20.995,1.943 L23.86,1.943 C24.228,1.943 24.437,1.64 24.437,1.352 L24.437,1.352 Z M15.14,10.715 L10.37,10.715 L10.37,6.858 L14.243,6.858 C14.628,6.858 14.835,6.538 14.835,6.266 C14.835,5.978 14.628,5.69 14.243,5.69 L10.37,5.69 L10.37,1.96 L14.979,1.96 C15.395,1.96 15.62,1.688 15.62,1.384 C15.62,1.048 15.395,0.744 14.979,0.744 L10.194,0.744 C9.505,0.744 9.135,1.112 9.135,1.704 L9.135,10.972 C9.135,11.564 9.504,11.932 10.194,11.932 L15.139,11.932 C15.524,11.932 15.746,11.596 15.746,11.324 C15.75,10.987 15.525,10.715 15.14,10.715 L15.14,10.715 Z M5.716,7.818 C5.427,7.401 5.109,7.082 4.739,6.841 C6.163,6.345 7.091,5.352 7.091,3.832 C7.091,1.895 5.78,0.615 2.882,0.615 C1.778,0.615 1.027,0.727 0.513,0.887 C0.115,1.015 0.001,1.255 0.001,1.655 L0.001,11.355 C0.001,11.755 0.274,11.996 0.626,11.996 C0.978,11.996 1.251,11.756 1.251,11.355 L1.251,7.177 L2.499,7.177 C3.667,7.177 4.132,7.657 4.708,8.585 C5.108,9.226 5.524,10.154 6.02,11.547 C6.116,11.803 6.291,11.995 6.627,11.995 C6.963,11.995 7.252,11.755 7.252,11.37 C7.252,11.259 7.221,11.099 7.156,10.938 C6.724,9.787 6.212,8.586 5.716,7.818 L5.716,7.818 Z M2.691,5.961 L1.252,5.961 L1.252,1.928 C1.699,1.865 2.131,1.8 2.82,1.8 C5.109,1.8 5.83,2.696 5.83,3.881 C5.828,5.529 4.277,6.009 2.691,5.961 L2.691,5.961 Z M83.876,10.907 C83.026,9.162 82.435,8.057 81.634,7.178 C81.155,6.65 80.802,6.394 80.386,6.154 C80.851,5.818 81.282,5.37 81.97,4.361 L83.763,1.672 C83.843,1.544 83.892,1.416 83.892,1.256 C83.892,0.952 83.636,0.68 83.285,0.68 C83.045,0.68 82.869,0.808 82.676,1.08 L80.772,3.929 C79.877,5.274 79.206,5.69 78.131,5.69 L77.733,5.69 L77.733,1.287 C77.733,0.919 77.475,0.679 77.124,0.679 C76.757,0.679 76.501,0.951 76.501,1.287 L76.501,11.388 C76.501,11.756 76.757,11.996 77.124,11.996 C77.493,11.996 77.733,11.724 77.733,11.388 L77.733,6.922 L78.516,6.922 C79.524,6.905 80.02,7.306 80.614,7.899 C81.237,8.523 81.844,9.563 82.774,11.58 C82.885,11.837 83.079,12.013 83.415,11.997 C83.751,11.98 84.022,11.725 84.007,11.341 C83.988,11.228 83.957,11.067 83.876,10.907 L83.876,10.907 Z M52.097,0.615 C51.089,0.615 50.337,0.727 49.826,0.887 C49.426,1.015 49.314,1.255 49.314,1.655 L49.314,11.355 C49.314,11.755 49.57,11.996 49.921,11.996 C50.275,11.996 50.546,11.756 50.546,11.355 L50.546,7.738 C51.073,7.769 51.378,7.786 52.019,7.786 C54.9,7.786 56.419,6.393 56.419,4.12 C56.419,2.104 55.091,0.615 52.097,0.615 L52.097,0.615 Z M51.955,6.617 C51.363,6.617 51.074,6.617 50.547,6.586 L50.547,1.912 C50.996,1.848 51.539,1.784 52.068,1.784 C54.339,1.784 55.158,2.872 55.158,4.153 C55.156,5.465 54.453,6.617 51.955,6.617 L51.955,6.617 Z M73.076,7.818 C72.789,7.401 72.469,7.082 72.099,6.841 C73.525,6.345 74.453,5.352 74.453,3.832 C74.453,1.895 73.141,0.615 70.244,0.615 C69.139,0.615 68.387,0.727 67.875,0.887 C67.475,1.015 67.363,1.255 67.363,1.655 L67.363,11.355 C67.363,11.755 67.633,11.996 67.986,11.996 C68.338,11.996 68.611,11.756 68.611,11.355 L68.611,7.177 L69.859,7.177 C71.027,7.177 71.492,7.657 72.068,8.585 C72.466,9.226 72.882,10.154 73.379,11.547 C73.477,11.803 73.652,11.995 73.988,11.995 C74.324,11.995 74.611,11.755 74.611,11.37 C74.611,11.259 74.58,11.099 74.515,10.938 C74.083,9.787 73.572,8.586 73.076,7.818 L73.076,7.818 Z M70.05,5.961 L68.611,5.961 L68.611,1.928 C69.058,1.865 69.49,1.8 70.177,1.8 C72.466,1.8 73.187,2.696 73.187,3.881 C73.187,5.529 71.634,6.009 70.05,5.961 L70.05,5.961 Z M43.716,10.747 L39.409,10.747 L39.409,1.335 C39.409,0.935 39.153,0.679 38.802,0.679 C38.448,0.679 38.177,0.935 38.177,1.335 L38.177,10.971 C38.177,11.563 38.544,11.931 39.234,11.931 L43.716,11.931 C44.114,11.931 44.372,11.659 44.372,11.323 C44.373,11.02 44.132,10.747 43.716,10.747 L43.716,10.747 Z M30.037,2.152 C29.412,0.903 28.916,0.535 28.355,0.535 C27.794,0.535 27.298,0.903 26.673,2.152 C25.778,3.96 25.089,6.234 23.921,10.86 C23.857,11.084 23.825,11.26 23.825,11.372 C23.825,11.757 24.081,11.997 24.432,11.997 C24.719,11.997 24.928,11.82 25.008,11.484 C25.311,10.107 25.615,8.875 25.92,7.819 L30.787,7.819 C31.074,8.875 31.379,10.107 31.699,11.484 C31.779,11.82 31.988,11.997 32.275,11.997 C32.627,11.997 32.882,11.757 32.882,11.372 C32.882,11.261 32.835,11.084 32.786,10.86 C31.654,6.233 30.933,3.96 30.037,2.152 L30.037,2.152 Z M26.244,6.697 C26.978,4.248 27.637,2.728 28.148,1.926 C28.197,1.862 28.244,1.798 28.357,1.798 C28.468,1.798 28.515,1.862 28.564,1.926 C29.076,2.726 29.716,4.246 30.453,6.697 L26.244,6.697 L26.244,6.697 Z M35.234,0.679 C34.882,0.679 34.611,0.935 34.611,1.335 L34.611,11.355 C34.611,11.755 34.867,11.996 35.218,11.996 C35.569,11.996 35.841,11.756 35.841,11.355 L35.841,1.335 C35.841,0.935 35.585,0.679 35.234,0.679 L35.234,0.679 Z M35.234,0.679" class="Shape"/>
                <path d="M181.146,114.005 L188.48,119.932 L181.146,125.857 L181.146,114.005 Z M181.146,114.005" class="Shape"/>
                <path d="M130.32,111.923 C129.205,111.491 128.713,111.119 128.713,110.364 C128.713,109.812 129.133,109.152 130.236,109.152 C130.966,109.152 131.506,109.392 131.769,109.537 L132.058,108.685 C131.699,108.48 131.099,108.289 130.271,108.289 C128.701,108.289 127.658,109.225 127.658,110.484 C127.658,111.623 128.472,112.306 129.793,112.775 C130.883,113.195 131.316,113.627 131.316,114.381 C131.316,115.197 130.691,115.76 129.625,115.76 C128.904,115.76 128.221,115.521 127.754,115.232 L127.49,116.107 C127.922,116.396 128.771,116.624 129.551,116.624 C131.459,116.624 132.383,115.544 132.383,114.297 C132.382,113.111 131.687,112.451 130.32,111.923 L130.32,111.923 Z M121.187,110.568 C119.582,110.568 118.31,111.707 118.31,113.65 C118.31,115.484 119.521,116.635 121.093,116.635 C122.495,116.635 123.984,115.699 123.984,113.554 C123.982,111.779 122.855,110.568 121.187,110.568 L121.187,110.568 Z M121.14,115.845 C120.109,115.845 119.376,114.886 119.376,113.615 C119.376,112.511 119.917,111.36 121.163,111.36 C122.411,111.36 122.903,112.608 122.903,113.59 C122.904,114.898 122.146,115.845 121.14,115.845 L121.14,115.845 Z M152.517,113.52 C152.517,111.756 151.462,110.569 150.058,110.569 C149.113,110.569 148.427,110.989 147.997,111.696 L147.972,111.696 L147.925,110.702 L146.978,110.702 C147.001,111.254 147.027,111.852 147.027,112.597 L147.027,118.881 L148.07,118.881 L148.07,115.728 L148.093,115.728 C148.441,116.303 149.113,116.64 149.88,116.64 C151.248,116.637 152.517,115.605 152.517,113.52 L152.517,113.52 Z M149.699,115.809 C148.945,115.809 148.308,115.307 148.117,114.575 C148.092,114.442 148.068,114.299 148.068,114.143 L148.068,113.147 C148.068,113.002 148.103,112.846 148.14,112.714 C148.343,111.922 149.015,111.407 149.736,111.407 C150.849,111.407 151.463,112.402 151.463,113.566 C151.462,114.898 150.816,115.809 149.699,115.809 L149.699,115.809 Z M118.714,108.421 L112.728,108.421 L112.728,109.309 L115.187,109.309 L115.187,116.504 L116.244,116.504 L116.244,109.309 L118.715,109.309 L118.715,108.421 L118.714,108.421 Z M147.429,123.564 C148.101,123.564 148.665,123.709 149.06,123.9 L149.312,123.048 C149.037,122.904 148.402,122.689 147.394,122.689 C144.888,122.689 143.171,124.404 143.171,126.935 C143.171,129.584 144.886,131.025 147.165,131.025 C148.149,131.025 148.917,130.833 149.3,130.64 L149.085,129.812 C148.665,130.017 148.017,130.148 147.382,130.148 C145.415,130.148 144.277,128.877 144.277,126.898 C144.277,124.775 145.535,123.564 147.429,123.564 L147.429,123.564 Z M145.691,113.555 C145.691,111.781 144.562,110.569 142.896,110.569 C141.289,110.569 140.017,111.709 140.017,113.651 C140.017,115.487 141.228,116.637 142.8,116.637 C144.203,116.637 145.691,115.701 145.691,113.555 L145.691,113.555 Z M142.847,115.845 C141.818,115.845 141.085,114.886 141.085,113.615 C141.085,112.511 141.624,111.36 142.872,111.36 C144.12,111.36 144.61,112.608 144.61,113.59 C144.611,114.898 143.855,115.845 142.847,115.845 L142.847,115.845 Z M136.691,110.568 C136.295,110.568 135.923,110.687 135.611,110.868 C135.287,111.048 135.025,111.31 134.857,111.611 L134.832,111.611 L134.832,107.989 L133.777,107.989 L133.777,116.504 L134.832,116.504 L134.832,113.002 C134.832,112.798 134.844,112.643 134.904,112.498 C135.095,111.922 135.634,111.443 136.32,111.443 C137.316,111.443 137.662,112.234 137.662,113.17 L137.662,116.504 L138.719,116.504 L138.719,113.05 C138.718,111.048 137.47,110.568 136.691,110.568 L136.691,110.568 Z M168,126.239 L167.951,126.239 L167.916,125.099 L166.992,125.099 C167.027,125.64 167.041,126.226 167.041,126.911 L167.041,130.905 L168.084,130.905 L168.084,127.81 C168.084,127.63 168.107,127.462 168.131,127.318 C168.277,126.527 168.803,125.964 169.547,125.964 C169.692,125.964 169.799,125.977 169.906,126 L169.906,125.004 C169.81,124.981 169.726,124.968 169.605,124.968 C168.898,124.968 168.263,125.46 168,126.239 L168,126.239 Z M167.375,116.505 L168.43,116.505 L168.43,113.039 C168.43,111.048 167.184,110.568 166.379,110.568 C165.42,110.568 164.748,111.109 164.461,111.66 L164.436,111.66 L164.377,110.701 L163.441,110.701 C163.476,111.18 163.488,111.672 163.488,112.271 L163.488,116.505 L164.545,116.505 L164.545,113.015 C164.545,112.835 164.568,112.656 164.615,112.523 C164.797,111.937 165.336,111.445 166.031,111.445 C167.027,111.445 167.375,112.224 167.375,113.16 L167.375,116.505 L167.375,116.505 Z M175.546,127.703 C175.546,126.636 175.042,124.969 173.148,124.969 C171.457,124.969 170.425,126.348 170.425,128.1 C170.425,129.85 171.491,131.026 173.279,131.026 C174.203,131.026 174.838,130.835 175.211,130.667 L175.031,129.911 C174.635,130.079 174.177,130.211 173.424,130.211 C172.367,130.211 171.457,129.624 171.432,128.196 L175.51,128.196 C175.521,128.086 175.546,127.918 175.546,127.703 L175.546,127.703 Z M171.445,127.438 C171.529,126.708 171.996,125.723 173.062,125.723 C174.25,125.723 174.539,126.766 174.527,127.438 L171.445,127.438 L171.445,127.438 Z M164.339,123.434 L163.308,123.709 L163.308,125.1 L162.41,125.1 L162.41,125.903 L163.308,125.903 L163.308,129.071 C163.308,129.755 163.415,130.27 163.716,130.582 C163.968,130.87 164.362,131.026 164.855,131.026 C165.263,131.026 165.587,130.965 165.791,130.881 L165.744,130.089 C165.611,130.125 165.408,130.161 165.133,130.161 C164.545,130.161 164.34,129.753 164.34,129.034 L164.34,125.904 L165.852,125.904 L165.852,125.1 L164.34,125.1 L164.34,123.434 L164.339,123.434 L164.339,123.434 Z M172.199,118.184 C171.478,118.184 170.881,117.968 170.496,117.729 L170.232,118.533 C170.699,118.845 171.466,119.012 172.164,119.012 C172.894,119.012 173.711,118.844 174.273,118.317 C174.837,117.813 175.101,116.998 175.101,115.667 L175.101,112.297 C175.101,111.589 175.124,111.121 175.15,110.702 L174.224,110.702 L174.177,111.577 L174.154,111.577 C173.902,111.097 173.349,110.569 172.342,110.569 C171.012,110.569 169.729,111.684 169.729,113.651 C169.729,115.258 170.76,116.483 172.2,116.483 C173.098,116.483 173.721,116.05 174.048,115.51 L174.071,115.51 L174.071,116.158 C174.07,117.62 173.279,118.184 172.199,118.184 L172.199,118.184 Z M174.058,114.034 C174.058,114.214 174.035,114.418 173.974,114.597 C173.745,115.269 173.16,115.676 172.511,115.676 C171.37,115.676 170.796,114.73 170.796,113.589 C170.796,112.246 171.515,111.394 172.523,111.394 C173.291,111.394 173.806,111.898 174,112.51 C174.047,112.655 174.059,112.81 174.059,112.989 L174.059,114.034 L174.058,114.034 L174.058,114.034 Z M160.679,116.505 L161.736,116.505 L161.736,110.7 L160.679,110.7 L160.679,116.505 L160.679,116.505 Z M159.347,124.968 C158.388,124.968 157.716,125.508 157.427,126.059 L157.404,126.059 L157.343,125.1 L156.407,125.1 C156.444,125.579 156.456,126.071 156.456,126.671 L156.456,130.905 L157.511,130.905 L157.511,127.415 C157.511,127.234 157.536,127.055 157.583,126.923 C157.763,126.336 158.304,125.844 158.999,125.844 C159.995,125.844 160.341,126.623 160.341,127.559 L160.341,130.905 L161.398,130.905 L161.398,127.44 C161.396,125.448 160.15,124.968 159.347,124.968 L159.347,124.968 Z M159.345,113.52 C159.345,111.756 158.29,110.569 156.886,110.569 C155.941,110.569 155.255,110.989 154.825,111.696 L154.8,111.696 L154.751,110.702 L153.804,110.702 C153.829,111.254 153.853,111.852 153.853,112.597 L153.853,118.881 L154.896,118.881 L154.896,115.728 L154.919,115.728 C155.267,116.303 155.939,116.64 156.706,116.64 C158.074,116.637 159.345,115.605 159.345,113.52 L159.345,113.52 Z M154.945,114.574 C154.92,114.441 154.896,114.298 154.896,114.142 L154.896,113.146 C154.896,113.001 154.931,112.845 154.968,112.713 C155.171,111.921 155.843,111.406 156.562,111.406 C157.679,111.406 158.291,112.401 158.291,113.565 C158.291,114.897 157.643,115.807 156.527,115.807 C155.771,115.809 155.136,115.307 154.945,114.574 L154.945,114.574 Z M152.748,124.968 C151.057,124.968 150.025,126.348 150.025,128.098 C150.025,129.85 151.091,131.026 152.879,131.026 C153.803,131.026 154.438,130.834 154.809,130.666 L154.629,129.91 C154.234,130.078 153.777,130.21 153.024,130.21 C151.967,130.21 151.055,129.623 151.032,128.194 L155.11,128.194 C155.122,128.087 155.145,127.919 155.145,127.703 C155.146,126.635 154.642,124.968 152.748,124.968 L152.748,124.968 Z M151.044,127.438 C151.128,126.708 151.595,125.723 152.663,125.723 C153.851,125.723 154.138,126.766 154.126,127.438 L151.044,127.438 L151.044,127.438 Z M161.208,108.409 C160.823,108.409 160.548,108.697 160.548,109.068 C160.548,109.429 160.812,109.716 161.183,109.716 C161.603,109.716 161.869,109.429 161.855,109.068 C161.855,108.697 161.603,108.409 161.208,108.409 L161.208,108.409 Z M161.208,108.409" class="Shape"/>
                <path d="M75.794,119.168 L75.556,118.873 L73.056,120.411 L73.294,120.706 L74.319,120.08 L76.237,122.5 L76.68,122.23 L74.764,119.802 L75.794,119.168 L75.794,119.168 Z M81.562,118.784 L80.785,117.801 L82.097,116.995 L81.868,116.702 L80.554,117.515 L79.872,116.65 L81.265,115.796 L81.029,115.501 L79.211,116.629 L81.356,119.351 L83.26,118.183 L83.024,117.888 L81.562,118.784 L81.562,118.784 Z M85.859,114.77 C85.619,114.729 85.367,114.768 85.162,114.831 C85.432,114.507 85.473,114.142 85.262,113.883 C85.133,113.716 84.969,113.621 84.785,113.589 C84.724,113.578 84.666,113.575 84.601,113.577 C84.279,113.567 83.953,113.676 83.517,113.948 C83.21,114.131 82.931,114.344 82.763,114.496 L84.886,117.173 C85.038,117.097 85.288,116.976 85.585,116.79 C86.136,116.444 86.458,116.137 86.556,115.813 C86.618,115.579 86.591,115.329 86.41,115.089 C86.261,114.9 86.066,114.807 85.859,114.77 L85.859,114.77 Z M83.39,114.461 C83.452,114.409 83.554,114.324 83.757,114.201 C84.032,114.03 84.294,113.941 84.513,113.98 C84.64,114.001 84.755,114.068 84.849,114.187 C85.052,114.445 84.939,114.812 84.474,115.094 L84.085,115.334 L83.39,114.461 L83.39,114.461 Z M85.496,116.432 C85.336,116.53 85.213,116.602 85.119,116.641 L84.297,115.602 L84.652,115.38 C84.959,115.192 85.281,115.089 85.548,115.136 C85.7,115.163 85.835,115.237 85.941,115.37 C86.253,115.766 85.943,116.154 85.496,116.432 L85.496,116.432 Z M78.011,117.367 L78.907,118.507 L77.276,119.509 L76.37,118.368 L75.934,118.639 L78.088,121.362 L78.524,121.091 L77.518,119.815 L79.151,118.813 L80.155,120.089 L80.598,119.818 L78.446,117.095 L78.011,117.367 L78.011,117.367 Z M109.103,100.15 C108.806,99.767 108.443,99.564 108.041,99.494 C107.979,99.482 107.916,99.476 107.853,99.471 C107.386,99.43 106.845,99.586 106.216,99.975 C105.874,100.184 105.575,100.399 105.337,100.595 L107.458,103.281 C107.687,103.163 107.964,103.014 108.272,102.823 C108.924,102.416 109.34,101.959 109.454,101.511 C109.576,101.064 109.451,100.6 109.103,100.15 L109.103,100.15 Z M108.13,102.488 C107.958,102.592 107.802,102.683 107.673,102.74 L105.972,100.588 C106.077,100.495 106.236,100.373 106.462,100.239 C106.954,99.933 107.407,99.831 107.798,99.9 C108.134,99.96 108.427,100.146 108.659,100.443 C109.24,101.18 109.068,101.909 108.13,102.488 L108.13,102.488 Z M100.437,103.561 L101.437,106.991 L101.892,106.715 L101.562,105.644 L102.761,104.906 L103.8,105.541 L104.269,105.251 L100.96,103.243 L100.437,103.561 L100.437,103.561 Z M102.455,104.686 L101.437,105.313 L101.144,104.319 C101.076,104.118 100.998,103.915 100.927,103.719 L100.939,103.713 C101.111,103.846 101.287,103.973 101.505,104.106 L102.455,104.686 L102.455,104.686 Z M98.998,104.447 L99.49,106.148 C99.623,106.59 99.75,107.025 99.896,107.4 C99.548,107.14 99.164,106.881 98.728,106.607 L97.138,105.59 L96.669,105.88 L99.931,107.92 L100.41,107.625 L99.457,104.164 L98.998,104.447 L98.998,104.447 Z M105.57,102.742 C105.443,102.72 105.314,102.724 105.183,102.76 L105.167,102.749 C105.446,102.434 105.538,102.023 105.261,101.658 C105.116,101.482 104.911,101.361 104.687,101.32 C104.652,101.314 104.617,101.31 104.582,101.308 C104.254,101.283 103.896,101.402 103.428,101.691 C103.131,101.876 102.834,102.085 102.641,102.255 L104.762,104.941 L105.205,104.679 L104.267,103.491 L104.677,103.24 C104.9,103.114 105.087,103.065 105.279,103.098 C105.435,103.126 105.595,103.21 105.773,103.352 C106.132,103.629 106.394,103.827 106.517,103.864 L106.964,103.587 C106.81,103.528 106.521,103.312 106.109,103.001 C105.929,102.863 105.751,102.773 105.57,102.742 L105.57,102.742 Z M104.501,102.956 L104.054,103.232 L103.271,102.24 C103.328,102.179 103.464,102.068 103.671,101.937 C103.954,101.765 104.23,101.683 104.464,101.726 C104.614,101.751 104.747,101.83 104.859,101.965 C105.099,102.277 104.97,102.667 104.501,102.956 L104.501,102.956 Z M88.199,111.602 C87.742,111.52 87.25,111.612 86.787,111.895 C85.887,112.448 85.666,113.43 86.348,114.293 C86.67,114.698 87.094,114.945 87.547,115.025 C88.012,115.107 88.51,115.015 88.965,114.739 C89.824,114.202 90.135,113.275 89.397,112.338 C89.078,111.934 88.656,111.682 88.199,111.602 L88.199,111.602 Z M88.757,114.434 C88.452,114.623 88.124,114.671 87.814,114.618 C87.425,114.55 87.064,114.319 86.81,113.997 C86.339,113.399 86.275,112.643 86.996,112.192 C87.305,112.004 87.627,111.959 87.93,112.011 C88.334,112.082 88.701,112.329 88.951,112.641 C89.433,113.255 89.453,114.01 88.757,114.434 L88.757,114.434 Z M91.392,109.129 L90.949,109.399 L92.222,111.009 C92.702,111.608 92.593,112.071 92.091,112.379 C91.876,112.514 91.64,112.573 91.402,112.53 C91.138,112.484 90.869,112.316 90.615,111.999 L89.34,110.389 L88.904,110.66 L90.172,112.261 C90.494,112.667 90.84,112.877 91.186,112.938 C91.563,113.005 91.944,112.897 92.301,112.676 C93.039,112.229 93.313,111.548 92.651,110.711 L91.392,109.129 L91.392,109.129 Z M94.509,110.818 L92.591,108.39 L92.148,108.66 L94.302,111.383 L96.183,110.227 L95.949,109.932 L94.509,110.818 L94.509,110.818 Z M96.875,109.359 L96.096,108.381 L97.41,107.569 L97.18,107.282 L95.868,108.088 L95.186,107.224 L96.577,106.377 L96.343,106.075 L94.525,107.202 L96.679,109.925 L98.575,108.755 L98.337,108.461 L96.875,109.359 L96.875,109.359 Z M96.875,109.359" class="Shape"/>
                <path d="M143.693,48.62 L145.5,48.938 L144.955,50.568 L143.15,50.242 L143.004,50.682 L146.844,51.368 L146.992,50.927 L145.383,50.643 L145.934,49.023 L147.543,49.307 L147.688,48.873 L143.848,48.187 L143.693,48.62 L143.693,48.62 Z M135.888,71.834 L136.978,72.398 L136.582,73.586 L135.254,73.732 L135.092,74.194 L139.326,73.73 L139.502,73.207 L136.041,71.386 L135.888,71.834 L135.888,71.834 Z M137.333,72.556 L138.337,73.081 C138.554,73.19 138.767,73.284 138.972,73.375 L138.97,73.382 C138.741,73.389 138.493,73.401 138.22,73.432 L136.997,73.564 L137.333,72.556 L137.333,72.556 Z M134.781,75.121 L136.449,75.415 L136.312,75.826 C136.166,76.212 135.9,76.355 135.335,76.359 C134.823,76.371 134.474,76.389 134.345,76.421 L134.195,76.87 C134.363,76.828 134.767,76.812 135.334,76.801 C135.764,76.79 136.088,76.689 136.277,76.446 L136.295,76.449 C136.315,76.824 136.553,77.167 137.059,77.256 C137.36,77.309 137.657,77.259 137.883,77.124 C138.166,76.953 138.369,76.672 138.526,76.208 C138.626,75.909 138.696,75.589 138.717,75.363 L134.926,74.687 L134.781,75.121 L134.781,75.121 Z M136.679,75.923 L136.825,75.482 L138.229,75.73 C138.221,75.808 138.198,75.962 138.127,76.171 C137.965,76.626 137.647,76.901 137.15,76.814 C136.714,76.736 136.525,76.386 136.679,75.923 L136.679,75.923 Z M133.73,78.149 C133.513,78.799 133.531,79.348 133.785,79.725 C134.031,80.101 134.486,80.364 135.111,80.474 C135.736,80.584 136.24,80.491 136.656,80.247 C137.07,80.012 137.381,79.599 137.59,78.972 C137.705,78.628 137.778,78.308 137.82,78.039 L134.039,77.364 C133.937,77.584 133.835,77.835 133.73,78.149 L133.73,78.149 Z M134.279,77.866 L137.306,78.408 C137.294,78.524 137.263,78.7 137.187,78.925 C136.88,79.844 136.152,80.183 135.251,80.025 C134.21,79.833 133.786,79.228 134.097,78.301 C134.156,78.129 134.216,77.974 134.279,77.866 L134.279,77.866 Z M148.226,45.937 L147.882,46.961 L144.462,46.35 L144.314,46.791 L147.738,47.395 L147.384,48.424 L147.814,48.5 L148.646,46.011 L148.226,45.937 L148.226,45.937 Z M139.046,62.261 C138.794,62.991 139.101,63.615 140.28,63.831 L142.522,64.227 L142.668,63.787 L140.391,63.385 C139.545,63.236 139.276,62.847 139.444,62.347 C139.59,61.906 140.071,61.635 140.926,61.785 L143.203,62.187 L143.348,61.753 L141.09,61.347 C139.894,61.136 139.277,61.573 139.046,62.261 L139.046,62.261 Z M142.121,53.321 L142.531,53.393 L143.025,51.944 L144.404,52.187 L143.965,53.495 L144.377,53.568 L144.815,52.26 L146.03,52.474 L145.569,53.857 L145.987,53.931 L146.594,52.115 L142.75,51.437 L142.121,53.321 L142.121,53.321 Z M142.615,57.777 C141.451,57.571 140.455,58.053 140.158,58.943 C139.873,59.795 140.34,60.621 141.656,60.861 C142.802,61.063 143.804,60.615 144.113,59.695 C144.414,58.798 143.837,57.993 142.615,57.777 L142.615,57.777 Z M143.716,59.602 C143.466,60.325 142.554,60.529 141.792,60.394 C140.919,60.24 140.321,59.723 140.552,59.036 C140.788,58.357 141.656,58.098 142.476,58.244 C143.316,58.391 143.957,58.884 143.716,59.602 L143.716,59.602 Z M136.384,70.354 L139.823,72.242 L139.977,71.779 L138.268,70.869 C137.823,70.632 137.379,70.411 136.967,70.236 L136.971,70.221 C137.453,70.219 137.967,70.175 138.528,70.123 L140.604,69.935 L140.762,69.464 L136.543,69.876 L136.384,70.354 L136.384,70.354 Z M141.308,55.607 C141.126,56.152 141.111,56.553 141.281,56.829 C141.412,57.034 141.623,57.19 141.957,57.248 L141.975,57.251 C142.53,57.349 142.955,57.033 143.164,56.732 C143.191,57.109 143.445,57.383 143.812,57.448 C144.121,57.502 144.376,57.437 144.589,57.292 C144.847,57.116 145.027,56.854 145.171,56.421 C145.282,56.116 145.347,55.811 145.359,55.615 L141.588,54.942 C141.511,55.082 141.41,55.309 141.308,55.607 L141.308,55.607 Z M143.507,56.162 L143.64,55.766 L144.88,55.992 C144.874,56.062 144.853,56.178 144.786,56.379 C144.638,56.82 144.36,57.087 143.905,57.007 C143.541,56.935 143.355,56.617 143.507,56.162 L143.507,56.162 Z M141.8,55.441 L143.263,55.699 L143.144,56.057 C142.984,56.536 142.64,56.887 142.109,56.793 C141.552,56.695 141.502,56.251 141.652,55.802 C141.705,55.646 141.753,55.527 141.8,55.441 L141.8,55.441 Z M137.003,68.532 L137.413,68.605 L137.907,67.156 L139.286,67.399 L138.847,68.707 L139.259,68.78 L139.697,67.472 L140.914,67.686 L140.451,69.069 L140.869,69.143 L141.476,67.327 L137.632,66.649 L137.003,68.532 L137.003,68.532 Z M137.796,66.163 L138.214,66.237 L138.694,64.802 L142.116,65.413 L142.27,64.981 L138.42,64.294 L137.796,66.163 L137.796,66.163 Z M137.796,66.163" class="Shape"/>
                <path d="M77.902,128.078 L76.771,131.432 L77.267,131.52 L78.4,128.166 L77.902,128.078 L77.902,128.078 Z M84.226,129.581 L85.798,129.866 L85.921,129.5 L83.849,129.135 L82.726,132.49 L84.884,132.871 L85.007,132.505 L83.347,132.212 L83.751,131.001 L85.241,131.264 L85.358,130.913 L83.872,130.642 L84.226,129.581 L84.226,129.581 Z M86.259,130.47 C86.101,130.942 86.39,131.293 86.95,131.598 C87.415,131.862 87.559,132.077 87.456,132.391 C87.341,132.735 86.964,132.913 86.458,132.825 C86.116,132.764 85.825,132.602 85.642,132.444 L85.392,132.787 C85.558,132.942 85.927,133.11 86.304,133.177 C87.212,133.337 87.798,132.966 87.972,132.45 C88.136,131.956 87.894,131.621 87.318,131.29 C86.847,131.017 86.668,130.819 86.773,130.505 C86.851,130.273 87.146,130.04 87.669,130.132 C88.011,130.193 88.235,130.335 88.343,130.417 L88.597,130.09 C88.454,129.978 88.201,129.846 87.806,129.777 C87.06,129.646 86.433,129.947 86.259,130.47 L86.259,130.47 Z M82.207,128.845 L80.978,130.346 C80.667,130.735 80.406,131.084 80.199,131.403 L80.181,131.401 C80.204,131.033 80.191,130.643 80.173,130.205 L80.058,128.46 L79.425,128.349 L78.036,131.658 L78.505,131.748 L79.089,130.324 C79.292,129.829 79.515,129.267 79.673,128.851 C79.65,129.275 79.659,129.734 79.681,130.238 L79.771,131.947 L80.146,132.012 L81.369,130.502 C81.721,130.073 82.015,129.683 82.283,129.317 L82.299,129.319 C82.153,129.737 81.998,130.303 81.865,130.778 L81.467,132.268 L81.955,132.354 L82.838,128.956 L82.207,128.845 L82.207,128.845 Z M77.464,128.001 L74.622,127.5 L74.499,127.866 L75.673,128.073 L74.665,131.06 L75.169,131.15 L76.169,128.16 L77.339,128.374 L77.464,128.001 L77.464,128.001 Z M104.06,132.707 L102.853,134.251 C102.535,134.662 102.234,135.051 101.999,135.422 L101.983,135.419 C102.008,135.012 102.01,134.577 101.991,134.091 L101.954,132.336 L101.413,132.241 L101.54,135.816 L102.089,135.914 L104.589,132.801 L104.06,132.707 L104.06,132.707 Z M106.958,133.605 L107.079,133.247 L105.009,132.874 L103.884,136.236 L106.042,136.617 L106.165,136.251 L104.503,135.958 L104.909,134.748 L106.399,135.011 L106.518,134.653 L105.028,134.389 L105.383,133.328 L106.958,133.605 L106.958,133.605 Z M91.693,130.842 C92.035,130.903 92.257,131.045 92.367,131.127 L92.621,130.8 C92.478,130.688 92.223,130.555 91.83,130.487 C91.084,130.356 90.457,130.657 90.283,131.18 C90.125,131.651 90.416,132.002 90.974,132.307 C91.437,132.578 91.583,132.793 91.478,133.108 C91.365,133.444 90.988,133.623 90.484,133.534 C90.14,133.473 89.847,133.319 89.666,133.16 L89.418,133.496 C89.582,133.651 89.953,133.819 90.33,133.886 C91.238,134.046 91.824,133.675 91.996,133.159 C92.162,132.665 91.92,132.33 91.342,131.999 C90.871,131.726 90.694,131.528 90.799,131.214 C90.873,130.99 91.169,130.75 91.693,130.842 L91.693,130.842 Z M99.652,131.93 L97.218,135.055 L97.732,135.145 L98.488,134.163 L99.847,134.403 L99.908,135.528 L100.437,135.623 L100.251,132.037 L99.652,131.93 L99.652,131.93 Z M98.705,133.836 L99.404,132.938 C99.543,132.742 99.677,132.551 99.797,132.358 L99.815,132.362 C99.801,132.565 99.794,132.778 99.807,133.008 L99.858,134.046 L98.705,133.836 L98.705,133.836 Z M95.074,131.059 C94.037,130.876 93.053,131.438 92.691,132.516 C92.332,133.591 92.914,134.319 93.82,134.51 L94.033,134.604 C94.431,134.817 94.892,135.04 95.375,135.251 L95.635,134.909 C95.328,134.799 94.942,134.652 94.586,134.494 L94.592,134.478 C95.299,134.396 95.938,133.923 96.225,133.064 C96.556,132.072 96.119,131.243 95.074,131.059 L95.074,131.059 Z M95.697,132.989 C95.439,133.759 94.785,134.306 93.988,134.167 C93.217,134.031 92.978,133.309 93.226,132.593 C93.46,131.866 94.097,131.266 94.935,131.414 C95.75,131.559 95.921,132.316 95.697,132.989 L95.697,132.989 Z M95.697,132.989" class="Shape"/>
                <path d="M87.324,77.833 L88.978,80.823 L89.451,80.606 L87.793,77.623 L87.324,77.833 L87.324,77.833 Z M79.349,83.461 C79.14,83.424 78.888,83.429 78.593,83.464 C78.314,83.497 78.099,83.506 77.935,83.477 C77.749,83.444 77.628,83.364 77.542,83.216 C77.429,83.014 77.485,82.683 77.987,82.455 C78.319,82.308 78.608,82.279 78.753,82.281 L78.716,81.903 C78.507,81.905 78.198,81.962 77.825,82.126 C77.118,82.452 76.837,83.02 77.089,83.484 C77.224,83.721 77.443,83.85 77.73,83.901 C77.955,83.941 78.222,83.932 78.523,83.887 C78.769,83.856 78.961,83.852 79.115,83.879 C79.32,83.915 79.453,84.008 79.545,84.17 C79.707,84.468 79.541,84.803 79.059,85.026 C78.737,85.174 78.373,85.23 78.108,85.214 L78.169,85.597 C78.419,85.609 78.858,85.52 79.202,85.359 C80.067,84.965 80.264,84.375 80.013,83.911 C79.871,83.654 79.652,83.514 79.349,83.461 L79.349,83.461 Z M82.697,79.954 L83.113,83.51 L83.603,83.288 L83.458,82.178 L84.755,81.583 L85.659,82.344 L86.161,82.116 L83.27,79.699 L82.697,79.954 L82.697,79.954 Z M84.486,81.33 L83.392,81.834 L83.267,80.799 C83.238,80.588 83.199,80.383 83.158,80.178 L83.17,80.172 C83.32,80.318 83.469,80.47 83.66,80.63 L84.486,81.33 L84.486,81.33 Z M81.914,80.726 L81.73,80.401 L79.033,81.635 L79.213,81.968 L80.326,81.46 L81.793,84.117 L82.273,83.901 L80.796,81.242 L81.914,80.726 L81.914,80.726 Z M87.105,78.349 L86.916,78.023 L84.217,79.264 L84.399,79.589 L85.512,79.081 L86.979,81.738 L87.459,81.522 L85.982,78.863 L87.105,78.349 L87.105,78.349 Z M107.001,68.822 L107.204,70.574 C107.255,71.042 107.315,71.488 107.39,71.889 C107.095,71.576 106.759,71.28 106.382,70.944 L105.001,69.736 L104.487,69.969 L107.333,72.41 L107.856,72.178 L107.506,68.586 L107.001,68.822 L107.001,68.822 Z M103.585,70.388 L105.235,73.37 L105.704,73.16 L104.058,70.171 L103.585,70.388 L103.585,70.388 Z M111.423,70.132 L109.849,70.852 L109.247,69.78 L110.669,69.129 L110.487,68.804 L109.073,69.457 L108.552,68.519 L110.052,67.826 L109.872,67.501 L107.901,68.404 L109.547,71.393 L111.602,70.457 L111.423,70.132 L111.423,70.132 Z M91.287,76.342 C90.908,76.275 90.492,76.33 90.076,76.522 C89.099,76.967 88.721,77.914 89.246,78.861 C89.539,79.385 90.004,79.709 90.529,79.801 C90.91,79.868 91.322,79.815 91.726,79.631 C92.66,79.201 93.113,78.308 92.552,77.275 C92.265,76.76 91.812,76.435 91.287,76.342 L91.287,76.342 Z M91.574,79.303 C91.304,79.426 91.039,79.454 90.789,79.41 C90.351,79.333 89.971,79.032 89.744,78.624 C89.383,77.966 89.439,77.201 90.223,76.84 C90.498,76.715 90.764,76.688 91.01,76.731 C91.467,76.812 91.848,77.137 92.061,77.521 C92.431,78.204 92.324,78.96 91.574,79.303 L91.574,79.303 Z M94.646,74.479 L95.341,75.733 C95.595,76.197 95.81,76.552 96.06,76.944 C95.72,76.717 95.339,76.5 94.871,76.275 L92.869,75.297 L92.355,75.531 L94.001,78.52 L94.452,78.314 L93.743,77.042 C93.466,76.542 93.259,76.189 93.038,75.818 C93.401,76.056 93.833,76.283 94.267,76.502 L96.267,77.488 L96.742,77.263 L95.092,74.282 L94.646,74.479 L94.646,74.479 Z M99.74,72.591 C99.715,72.585 99.689,72.58 99.664,72.576 C99.223,72.498 98.691,72.597 98.051,72.895 C97.676,73.066 97.354,73.247 97.09,73.414 L98.717,76.352 C98.963,76.269 99.246,76.153 99.588,75.999 C100.295,75.672 100.779,75.259 100.961,74.824 C101.149,74.398 101.113,73.909 100.848,73.428 C100.574,72.943 100.199,72.68 99.74,72.591 L99.74,72.591 Z M99.505,75.644 C99.323,75.731 99.144,75.802 99.013,75.842 L97.708,73.483 C97.827,73.401 97.997,73.296 98.243,73.189 C98.702,72.978 99.106,72.912 99.444,72.972 C99.84,73.042 100.149,73.284 100.358,73.665 C100.804,74.473 100.513,75.181 99.505,75.644 L99.505,75.644 Z M103.96,72.924 C103.78,72.736 103.587,72.612 103.374,72.575 C103.286,72.559 103.194,72.558 103.099,72.574 L103.087,72.556 C103.417,72.273 103.569,71.873 103.357,71.479 C103.224,71.25 103.013,71.094 102.752,71.04 C102.744,71.038 102.736,71.037 102.727,71.035 C102.418,70.98 102.055,71.059 101.567,71.282 C101.245,71.431 100.913,71.61 100.698,71.762 L102.323,74.708 L102.796,74.49 L102.075,73.199 L102.526,72.993 C102.727,72.907 102.897,72.875 103.053,72.903 C103.235,72.935 103.399,73.046 103.574,73.241 C103.883,73.565 104.109,73.786 104.219,73.837 L104.701,73.613 C104.562,73.536 104.312,73.286 103.96,72.924 L103.96,72.924 Z M102.4,72.688 L101.92,72.904 L101.313,71.816 C101.377,71.763 101.534,71.672 101.76,71.562 C102.028,71.445 102.276,71.394 102.479,71.43 C102.659,71.462 102.807,71.56 102.907,71.741 C103.101,72.083 102.904,72.452 102.4,72.688 L102.4,72.688 Z M102.4,72.688" class="Shape"/>
            </g>
            <g class="background">
                <path d="M167.611,51.061 L153.451,48.564 L151.326,54.917 L151.996,57.574 L166.156,60.071 L168.281,53.718 L167.611,51.061 Z M167.611,51.061" class="wall"/>
                <path d="M71.949,68.226 L64.46,52.343 L34.425,65.59 L35.095,68.247 L42.753,84.35 L53.208,79.632 L55.673,78.523 L72.619,70.882 L71.949,68.226 Z M71.949,68.226" class="wall"/>
                <path d="M77.623,78.713 L103.083,67.295 L106.38,65.819 L109.445,64.436 L111.427,63.55 L124.214,57.82 L123.544,55.163 L116.238,39.802 L108.072,43.396 L107.05,43.85 L94.509,49.355 L87.855,52.281 L87.386,52.491 L81.466,55.088 L69.488,60.352 L70.158,63.009 L77.623,78.713 Z M77.623,78.713" class="wall"/>
                <path d="M125.177,67.766 L106.33,76.512 L107,79.168 L109.691,84.352 L128.617,75.446 L127.949,72.789 L125.177,67.766 Z M125.177,67.766" class="wall"/>
                <path d="M90.171,104.346 L108.441,93.312 L107.771,90.656 L104.771,85.125 L104.566,84.74 L101.437,78.965 L82.757,87.623 L82.287,87.84 L80.138,88.838 L69.378,93.818 L67.416,94.73 L61.544,97.456 L62.212,100.111 L70.972,115.934 L90.171,104.346 Z M90.171,104.346" class="wall"/>
                <path d="M36.912,137.939 L26.763,148.703 L27.433,151.359 L38.81,158.818 L48.957,148.055 L48.287,145.398 L36.912,137.939 Z M36.912,137.939" class="wall"/>
                <path d="M45.062,106.198 L44.394,103.541 L36.437,87.567 L24.5,92.602 L25.169,95.258 L33.134,111.232 L45.062,106.198 Z M45.062,106.198" class="wall"/>
                <path d="M146.212,65.618 L143.669,73.219 L144.339,75.875 L162.437,79.067 L164.98,71.466 L164.312,68.81 L146.212,65.618 Z M146.212,65.618" class="wall"/>
                <path d="M97.478,142.857 L96.48,142.531 L96.025,142.379 L90.562,140.577 L72.689,134.68 L64.105,150.008 L64.777,152.665 L82.958,158.831 L88.396,160.676 L88.853,160.828 L93.822,162.511 L94.464,162.729 L101.158,165 L109.718,149.327 L109.05,146.671 L97.478,142.857 Z M97.478,142.857" class="wall"/>
            </g>
            <g class="ceilings">
                <path class="unit" d="M153.451,48.729 L151.326,55.082 L165.486,57.578 L167.611,51.226 L153.451,48.729 Z M153.451,48.729" id="3001"/>
                <path class="unit" d="M101.949,65.005 L94.509,49.52 L87.855,52.445 L95.312,67.983 L101.949,65.005 Z M101.949,65.005" id="3002"/>
                <path class="unit" d="M94.843,68.193 L87.388,52.648 L81.466,55.252 L88.945,70.841 L94.843,68.193 Z M94.843,68.193" id="3003"/>
                <path class="unit" d="M88.484,71.052 L81,55.455 L69.488,60.517 L76.957,76.214 L88.484,71.052 Z M88.484,71.052" id="3004"/>
                <path class="unit" d="M123.548,55.32 L116.238,39.967 L108.541,43.351 L115.921,58.74 L123.548,55.32 Z M123.548,55.32" id="3005"/>
                <path class="unit" d="M115.46,58.952 L108.074,43.553 L101.367,46.502 L108.775,61.943 L115.46,58.952 Z M115.46,58.952" id="3006"/>
                <path class="unit" d="M108.314,62.155 L100.896,46.712 L94.978,49.309 L102.416,64.803 L108.314,62.155 Z M108.314,62.155" id="3007"/>
                <path class="unit" d="M106.33,76.676 L109.021,81.86 L127.949,72.954 L125.179,67.923 L106.33,76.676 Z M106.33,76.676" id="3008"/>
                <path class="unit" d="M26.767,148.859 L38.142,156.318 L48.291,145.555 L36.912,138.104 L26.767,148.859 Z M26.767,148.859" id="3009"/>
                <path class="unit" d="M44.394,103.706 L36.437,87.732 L24.5,92.766 L32.466,108.732 L44.394,103.706 Z M44.394,103.706" id="3010"/>
                <path class="unit" d="M143.669,73.383 L161.769,76.575 L164.312,68.974 L146.212,65.783 L143.669,73.383 Z M143.669,73.383" id="3011"/>
                <path class="unit" d="M101.437,79.13 L82.757,87.787 L86.095,94.747 L104.566,84.905 L101.437,79.13 Z M101.437,79.13" id="3012"/>
                <path class="unit" d="M107.771,90.82 L104.771,85.29 L86.281,95.145 L89.505,101.846 L107.771,90.82 Z M107.771,90.82" id="3013"/>
                <path class="unit" d="M89.06,102.116 L82.289,87.997 L76.029,90.906 L83.128,105.7 L89.06,102.116 Z M89.06,102.116" id="3014"/>
                <path class="unit" d="M67.416,94.896 L74.962,110.623 L82.687,105.962 L75.57,91.118 L67.416,94.896 Z M67.416,94.896" id="3015"/>
                <path class="unit" d="M74.519,110.893 L66.955,95.107 L61.546,97.611 L70.302,113.441 L74.519,110.893 Z M74.519,110.893" id="3016"/>
                <path class="unit" d="M39.306,63.632 L46.988,79.644 L55.005,76.024 L47.378,60.125 L39.306,63.632 Z M39.306,63.632" id="3017"/>
                <path class="unit" d="M71.949,68.39 L64.484,52.685 L56.326,56.233 L63.898,72.02 L71.949,68.39 Z M71.949,68.39" id="3018"/>
                <path class="unit" d="M55.849,56.434 L47.845,59.922 L55.476,75.814 L63.429,72.23 L55.849,56.434 Z M55.849,56.434" id="3019"/>
                <path class="unit" d="M46.527,79.855 L38.839,63.834 L34.425,65.755 L42.087,81.851 L46.527,79.855 Z M46.527,79.855" id="3020"/>
                <path class="unit" d="M72.689,134.844 L64.105,150.172 L70.464,152.331 L78.693,136.82 L72.689,134.844 Z M72.689,134.844" id="3021"/>
                <path class="unit" d="M79.15,136.973 L70.921,152.482 L75.566,154.053 L83.812,138.507 L79.15,136.973 Z M79.15,136.973" id="3022"/>
                <path class="unit" d="M84.269,138.659 L76.019,154.212 L81.833,156.18 L90.099,140.581 L84.269,138.659 Z M84.269,138.659" id="3023"/>
                <path class="unit" d="M90.566,140.734 L82.292,156.331 L87.73,158.177 L96.027,142.536 L90.566,140.734 Z M90.566,140.734" id="3024"/>
                <path class="unit" d="M96.484,142.688 L88.183,158.336 L93.333,160.074 L101.654,144.391 L96.484,142.688 Z M96.484,142.688" id="3025"/>
                <path class="unit" d="M93.794,160.234 L100.49,162.5 L109.05,146.835 L102.111,144.543 L93.794,160.234 Z M93.794,160.234" id="3026"/>
        </g>
    </g>
</svg>