<?xml version="1.0" encoding="utf-8"?>
<!DOCTYPE svg PUBLIC "-//W3C//DTD SVG 1.1//EN" "http://www.w3.org/Graphics/SVG/1.1/DTD/svg11.dtd">
<svg version="1.1" xmlns="http://www.w3.org/2000/svg" xmlns:xlink="http://www.w3.org/1999/xlink" xml:space="preserve">
<g class="level" id="level1">
            <g class="outline">
                <path d="M282.143,150.05 L295.625,142.781 L264.252,96.29 L253.02,102.347 L233.307,73.123 L247.284,65.591 L249.741,69.242 L263.852,61.634 L254.637,47.979 L241.161,55.249 L204.247,0.535 L151.293,27.772 L154.397,32.361 L148.776,35.391 L176.471,76.44 L171.485,79.128 L168.413,74.564 L154.305,82.171 L157.377,86.734 L138.11,97.123 L125.942,94.978 L108.768,104.235 L105.073,98.758 L64.573,120.599 L75.278,136.475 L72.438,144.97 L52.325,155.816 L55.407,160.376 L45.297,165.826 L48.989,171.296 L36.631,177.959 L48.325,195.291 L42.604,198.377 L31.133,232.654 L81.317,241.502 L89.952,215.695 L94.342,216.47 L105.405,210.505 L100.481,203.208 L120.075,192.645 L131.114,209.007 L130.795,209.956 L116.881,207.503 L104.159,245.529 L119.807,248.289 L111.709,272.494 L104.754,271.268 L92.032,309.296 L98.985,310.521 L89.338,339.356 L139.522,348.203 L172.528,249.547 L177.749,250.468 L181.811,238.327 L195.719,240.779 L204.354,214.972 L218.262,217.424 L220.801,209.834 L260.793,216.886 L273.17,179.895 L269.418,174.326 L290.764,162.819 L282.143,150.05 Z M282.143,150.05" class="outline"/>
            </g>
            <g class="label">
                <path d="M14.167,75.209 C13.159,75.209 12.405,75.321 11.894,75.481 C11.494,75.609 11.382,75.849 11.382,76.249 L11.382,85.949 C11.382,86.349 11.638,86.59 11.989,86.59 C12.34,86.59 12.614,86.35 12.614,85.949 L12.614,82.332 C13.141,82.363 13.446,82.38 14.087,82.38 C16.968,82.38 18.489,80.987 18.489,78.714 C18.487,76.697 17.159,75.209 14.167,75.209 L14.167,75.209 Z M14.022,81.211 C13.428,81.211 13.141,81.211 12.612,81.18 L12.612,76.506 C13.059,76.442 13.606,76.378 14.133,76.378 C16.406,76.378 17.221,77.466 17.221,78.747 C17.223,80.059 16.52,81.211 14.022,81.211 L14.022,81.211 Z M35.045,85.309 L30.275,85.309 L30.275,81.452 L34.15,81.452 C34.533,81.452 34.742,81.132 34.742,80.86 C34.742,80.572 34.533,80.284 34.15,80.284 L30.275,80.284 L30.275,76.554 L34.884,76.554 C35.3,76.554 35.525,76.282 35.525,75.978 C35.525,75.642 35.3,75.338 34.884,75.338 L30.1,75.338 C29.412,75.338 29.043,75.706 29.043,76.298 L29.043,85.566 C29.043,86.158 29.41,86.526 30.1,86.526 L35.045,86.526 C35.43,86.526 35.654,86.19 35.654,85.918 C35.655,85.581 35.43,85.309 35.045,85.309 L35.045,85.309 Z M22.997,75.209 C21.989,75.209 21.237,75.321 20.724,75.481 C20.326,75.609 20.212,75.849 20.212,76.249 L20.212,85.949 C20.212,86.349 20.468,86.59 20.821,86.59 C21.173,86.59 21.444,86.35 21.444,85.949 L21.444,82.332 C21.971,82.363 22.278,82.38 22.917,82.38 C25.798,82.38 27.319,80.987 27.319,78.714 C27.319,76.697 25.991,75.209 22.997,75.209 L22.997,75.209 Z M22.854,81.211 C22.26,81.211 21.973,81.211 21.444,81.18 L21.444,76.506 C21.891,76.442 22.438,76.378 22.965,76.378 C25.238,76.378 26.053,77.466 26.053,78.747 C26.053,80.059 25.35,81.211 22.854,81.211 L22.854,81.211 Z M8.471,75.273 C8.104,75.273 7.846,75.529 7.846,75.929 L7.846,84.684 C7.014,85.228 5.83,85.453 5.11,85.453 C3.253,85.453 2.118,84.541 2.118,82.475 L2.118,75.929 C2.118,75.529 1.862,75.273 1.509,75.273 C1.157,75.273 0.886,75.529 0.886,75.929 L0.886,82.716 C0.886,85.053 2.343,86.654 4.87,86.654 C6.679,86.654 7.72,86.174 8.649,85.646 C9.001,85.437 9.081,85.166 9.081,84.781 L9.081,75.93 C9.081,75.529 8.823,75.273 8.471,75.273 L8.471,75.273 Z M78.999,85.341 L74.692,85.341 L74.692,75.929 C74.692,75.529 74.434,75.273 74.085,75.273 C73.731,75.273 73.46,75.529 73.46,75.929 L73.46,85.565 C73.46,86.157 73.829,86.525 74.517,86.525 L78.999,86.525 C79.397,86.525 79.655,86.253 79.655,85.917 C79.655,85.613 79.415,85.341 78.999,85.341 L78.999,85.341 Z M86.614,85.341 L82.307,85.341 L82.307,75.929 C82.307,75.529 82.049,75.273 81.7,75.273 C81.348,75.273 81.075,75.529 81.075,75.929 L81.075,85.565 C81.075,86.157 81.444,86.525 82.132,86.525 L86.614,86.525 C87.012,86.525 87.268,86.253 87.268,85.917 C87.27,85.613 87.03,85.341 86.614,85.341 L86.614,85.341 Z M68.885,76.746 C68.262,75.497 67.766,75.129 67.205,75.129 C66.644,75.129 66.148,75.497 65.523,76.746 C64.627,78.554 63.939,80.828 62.771,85.454 C62.707,85.678 62.673,85.854 62.673,85.966 C62.673,86.351 62.929,86.591 63.282,86.591 C63.569,86.591 63.778,86.414 63.858,86.078 C64.161,84.701 64.463,83.469 64.77,82.413 L69.635,82.413 C69.922,83.469 70.227,84.701 70.547,86.078 C70.627,86.414 70.834,86.591 71.123,86.591 C71.475,86.591 71.73,86.351 71.73,85.966 C71.73,85.855 71.681,85.678 71.632,85.454 C70.502,80.827 69.782,78.554 68.885,76.746 L68.885,76.746 Z M65.092,81.291 C65.828,78.842 66.487,77.322 66.996,76.521 C67.045,76.457 67.092,76.393 67.205,76.393 C67.316,76.393 67.365,76.457 67.412,76.521 C67.926,77.321 68.564,78.841 69.301,81.291 L65.092,81.291 L65.092,81.291 Z M43.094,82.412 C42.805,81.995 42.487,81.676 42.117,81.435 C43.541,80.939 44.471,79.946 44.471,78.426 C44.471,76.489 43.159,75.209 40.26,75.209 C39.156,75.209 38.405,75.321 37.891,75.481 C37.493,75.609 37.379,75.849 37.379,76.249 L37.379,85.949 C37.379,86.349 37.652,86.59 38.004,86.59 C38.358,86.59 38.629,86.35 38.629,85.949 L38.629,81.771 L39.877,81.771 C41.045,81.771 41.51,82.251 42.086,83.179 C42.486,83.82 42.902,84.748 43.398,86.141 C43.496,86.397 43.669,86.589 44.005,86.589 C44.341,86.589 44.63,86.349 44.63,85.964 C44.63,85.853 44.599,85.693 44.534,85.532 C44.104,84.381 43.59,83.18 43.094,82.412 L43.094,82.412 Z M40.069,80.555 L38.628,80.555 L38.628,76.522 C39.077,76.458 39.509,76.394 40.198,76.394 C42.487,76.394 43.206,77.29 43.206,78.475 C43.206,80.123 41.653,80.603 40.069,80.555 L40.069,80.555 Z M60.329,76.569 C60.216,75.736 59.929,75.273 59.272,75.273 C58.647,75.273 58.376,75.641 58.2,76.105 C57.384,78.314 56.487,81.147 55.511,83.772 L55.495,83.772 C54.485,81.291 53.702,78.682 52.677,76.249 C52.454,75.641 52.181,75.273 51.558,75.273 C50.902,75.273 50.597,75.721 50.501,76.602 C50.147,79.531 49.956,82.701 49.972,85.95 C49.956,86.334 50.197,86.591 50.548,86.591 C50.902,86.591 51.173,86.366 51.173,85.935 C51.157,82.862 51.349,79.884 51.685,76.891 L51.703,76.891 C52.68,79.516 53.623,82.157 54.664,84.782 C54.793,85.119 55.064,85.358 55.48,85.358 C55.878,85.358 56.183,85.119 56.312,84.782 C57.335,82.237 58.216,79.532 59.146,76.891 L59.162,76.891 C59.578,79.916 59.738,82.893 59.818,85.87 C59.818,86.318 60.043,86.591 60.459,86.591 C60.811,86.591 61.035,86.303 61.035,85.918 C61.035,85.79 61.017,85.55 61.017,85.438 C60.985,82.396 60.729,79.339 60.329,76.569 L60.329,76.569 Z M60.329,76.569" class="Shape"/>
            </g>
            <g class="background">
                <path d="M279.792,149.471 L293.274,142.202 L263.729,98.419 L252.495,104.476 L230.956,72.544 L247.809,63.462 L250.266,67.113 L261.5,61.056 L254.114,50.107 L240.637,57.377 L203.708,2.64 L153.665,28.379 L156.747,32.938 L151.125,35.969 L178.823,77.019 L170.961,81.258 L167.887,76.694 L156.655,82.75 L159.729,87.314 L138.383,98.821 L126.215,96.676 L108.245,106.365 L104.549,100.888 L66.924,121.178 L77.073,136.23 L73.774,146.094 L54.676,156.395 L57.758,160.954 L47.649,166.404 L51.34,171.875 L38.983,178.538 L50.676,195.87 L43.94,199.503 L33.274,231.382 L80.219,239.658 L88.854,213.852 L94.069,214.771 L103.055,209.926 L98.131,202.629 L120.598,190.517 L132.909,208.762 L131.893,211.8 L117.979,209.346 L106.297,244.257 L121.946,247.017 L112.805,274.338 L105.85,273.11 L94.17,308.022 L101.125,309.248 L91.479,338.083 L138.424,346.36 L171.432,247.703 L176.651,248.625 L180.713,236.484 L194.622,238.936 L203.256,213.129 L217.165,215.581 L219.704,207.991 L259.696,215.042 L271.374,180.138 L267.069,173.747 L288.413,162.24 L279.792,149.471 Z M279.792,149.471" class="walkway"/>
                <path d="M113.407,167.996 L112.917,166.053 L111.175,163.478 L107.999,165.186 L108.487,167.128 L110.229,169.709 L113.407,167.996 L113.407,167.996 Z M143.426,161.762 L142.938,159.821 L141.202,157.241 L138.024,158.956 L138.512,160.898 L140.252,163.478 L143.426,161.762 L143.426,161.762 Z M171.391,194.518 L171.881,196.459 L174.492,200.327 L178.137,198.367 L177.649,196.424 L175.034,192.554 L171.391,194.518 L171.391,194.518 Z M158.344,187.593 L155.172,189.302 L155.662,191.244 L157.398,193.824 L160.576,192.111 L160.086,190.168 L158.344,187.593 L158.344,187.593 Z M153.241,248.018 L154.255,244.987 L153.765,243.044 L150.286,242.431 L149.272,245.463 L149.758,247.405 L153.241,248.018 L153.241,248.018 Z M149.799,175.743 L149.309,173.802 L147.567,171.226 L144.389,172.934 L144.877,174.876 L146.619,177.457 L149.799,175.743 L149.799,175.743 Z M153.704,215.707 L150.768,211.358 L154.049,201.547 L153.561,199.606 L128.948,163.117 L87.386,185.524 L87.874,187.466 L97.106,201.148 L122.944,187.22 L132.79,201.816 L137.284,199.397 L139.596,202.826 L139.362,203.532 L139.85,205.472 L145.729,206.509 L144.791,209.309 L136.098,207.777 L134.573,212.334 L120.667,209.882 L110.003,241.755 L110.491,243.697 L128.544,246.88 L125.577,255.75 L126.065,257.693 L128.463,258.115 L121.94,277.613 L108.032,275.161 L100.923,296.41 L101.413,298.351 L127.497,302.952 L129.526,296.882 L129.038,294.939 L128.374,294.823 L154.192,217.651 L153.704,215.707 L153.704,215.707 Z M188.739,75.859 L198.157,80.737 L223.991,66.803 L223.503,64.861 L219.669,59.181 L233.675,51.631 L233.185,49.689 L202.41,4.08 L157.478,28.308 L157.968,30.25 L188.739,75.859 L188.739,75.859 Z M282.909,159.723 L275.386,148.574 L288.267,141.63 L287.779,139.689 L261.308,100.463 L251.199,105.913 L242.586,93.145 L240.338,94.352 L223.104,68.815 L202.885,79.716 L200.746,83.355 L201.234,85.297 L224.761,120.17 L221.993,121.659 L219.454,129.249 L219.944,131.191 L250.86,177.006 L234.606,185.769 L232.766,183.034 L231.641,183.638 L222.405,169.955 L215.669,173.587 L216.159,175.53 L227.235,191.949 L237.671,193.789 L240.21,186.199 L251.304,188.156 L249.351,193.993 L249.839,195.933 L262.015,198.08 L268.109,179.868 L267.619,177.925 L263.783,172.24 L283.4,161.663 L282.909,159.723 L282.909,159.723 Z M224.809,146.267 L216.196,133.495 L156.405,166.349 L155.134,170.149 L155.624,172.09 L167.317,189.422 L185.213,190.969 L206.555,179.461 L206.069,177.519 L204.219,174.782 L196.682,163.639 L225.299,148.209 L224.809,146.267 L224.809,146.267 Z M197.063,89.519 L198.803,92.101 L201.975,90.386 L201.487,88.444 L199.751,85.863 L196.573,87.577 L197.063,89.519 L197.063,89.519 Z M131.838,141.376 L138.793,142.602 L146.791,154.457 L149.4,154.917 L198.265,128.57 L205.247,107.703 L204.757,105.761 L192.605,87.745 L179.988,82.106 L177.523,78.455 L171.908,81.486 L172.398,83.429 L184.234,100.964 L182.588,101.851 L183.078,103.794 L189.373,113.124 L176.494,120.064 L166.648,105.468 L150.918,113.949 L151.408,115.89 L158.937,127.041 L155.041,129.14 L155.531,131.083 L159.361,136.762 L148.73,142.494 L149.218,144.436 L149.357,144.64 L145.472,146.739 L141.634,141.057 L146.654,138.353 L146.166,136.412 L139.393,126.382 L132.53,116.114 L144.239,109.8 L143.749,107.859 L138.21,99.648 L126.911,97.657 L109.499,107.045 L109.989,108.986 L131.838,141.376 L131.838,141.376 Z M159.235,80.854 L159.723,82.796 L162.18,86.447 L167.801,83.417 L167.313,81.474 L164.846,77.828 L159.235,80.854 L159.235,80.854 Z M230.842,65.6 L233.916,70.163 L250.764,61.08 L251.381,61.988 L257,58.963 L256.512,57.021 L252.815,51.549 L230.354,63.658 L230.842,65.6 L230.842,65.6 Z M206.2,95.038 L203.02,96.751 L203.51,98.693 L205.25,101.275 L208.43,99.562 L207.942,97.62 L206.2,95.038 L206.2,95.038 Z M155.208,249.726 L138.45,299.817 L138.938,301.757 L141.403,305.404 L148.358,306.63 L166.131,253.508 L165.643,251.566 L155.208,249.726 L155.208,249.726 Z M51.969,175.727 L54.973,180.326 L69.95,172.256 L72.411,175.902 L81.104,177.434 L112.555,160.476 L115.602,151.372 L122.34,147.734 L121.852,145.793 L116.791,138.293 L119.557,136.799 L119.067,134.857 L111.686,123.911 L108.315,125.728 L99.696,112.954 L89.266,111.116 L71.293,120.808 L71.783,122.75 L79.637,134.389 L75.846,145.718 L58.998,154.807 L59.486,156.749 L62.086,160.602 L52.578,165.728 L53.068,167.671 L55.668,171.524 L51.48,173.788 L51.969,175.727 L51.969,175.727 Z M122.063,308.175 L122.493,306.89 L122.003,304.949 L101.142,301.269 L100.124,304.307 L100.614,306.249 L104.753,306.978 L95.691,334.066 L96.179,336.007 L136.171,343.059 L145.819,314.218 L145.331,312.277 L122.063,308.175 L122.063,308.175 Z M184.924,146.854 L184.438,144.913 L182.694,142.332 L179.524,144.047 L180.012,145.989 L181.746,148.568 L184.924,146.854 L184.924,146.854 Z M90.278,198.894 L84.739,190.684 L75.499,196.288 L57.239,193.068 L47.13,198.518 L37.482,227.359 L37.972,229.3 L78.833,236.505 L88.229,208.424 L87.739,206.484 L85.755,203.543 L90.769,200.836 L90.278,198.894 L90.278,198.894 Z M247.319,200.062 L244.78,207.653 L245.268,209.594 L257.444,211.74 L259.983,204.15 L259.493,202.209 L247.319,200.062 L247.319,200.062 Z M219.629,200.046 L215.096,199.245 L209.922,198.332 L192.947,195.335 L187.455,194.365 L179.055,198.926 L177.616,203.328 L176.966,205.343 L173.032,217.102 L170.221,218.621 L162.352,242.143 L156.731,245.174 L156.223,246.688 L156.713,248.63 L167.149,250.47 L169.178,244.4 L176.133,245.627 L180.195,233.485 L192.365,235.631 L201.025,209.814 L215.107,212.285 L217.632,204.806 L231.277,207.176 L232.293,204.138 L231.805,202.196 L219.629,200.046 L219.629,200.046 Z M155.252,213.044 L158.732,213.658 L159.746,210.626 L159.258,208.683 L155.778,208.071 L154.764,211.102 L155.252,213.044 L155.252,213.044 Z M157.481,206.321 L160.961,206.934 L161.975,203.903 L161.487,201.96 L158.007,201.347 L156.993,204.379 L157.481,206.321 L157.481,206.321 Z M160.176,227.291 L161.192,224.259 L160.702,222.317 L157.222,221.704 L156.208,224.736 L156.696,226.677 L160.176,227.291 L160.176,227.291 Z M163.42,217.536 L162.93,215.593 L159.451,214.981 L158.437,218.012 L158.923,219.954 L162.405,220.568 L163.42,217.536 L163.42,217.536 Z M201.569,134.698 L203.309,137.279 L206.483,135.562 L205.995,133.621 L204.259,131.041 L201.081,132.756 L201.569,134.698 L201.569,134.698 Z M208.014,127.969 L207.526,126.028 L205.79,123.448 L202.612,125.163 L203.1,127.104 L204.84,129.685 L208.014,127.969 L208.014,127.969 Z M168.417,155.553 L167.929,153.612 L166.195,151.032 L163.015,152.747 L163.503,154.689 L165.245,157.269 L168.417,155.553 L168.417,155.553 Z M156.374,162.146 L159.548,160.429 L159.06,158.488 L157.324,155.908 L154.144,157.623 L154.634,159.565 L156.374,162.146 L156.374,162.146 Z M156.374,162.146" class="wall"/>
            </g>
            <g class="ceilings">
                <path class="unit" d="M164.731,77.552 L167.196,81.199 L161.575,84.229 L159.118,80.578 L164.731,77.552 Z M164.731,77.552" id="2001"/>
                <path class="unit" d="M222.29,169.68 L225.014,173.719 L218.276,177.352 L218.018,176.958 L215.551,173.312 L222.29,169.68 Z M222.29,169.68" id="2002"/>
                <path class="unit" d="M227.301,177.103 L229.588,180.492 L222.85,184.13 L220.563,180.74 L227.301,177.103 Z M227.301,177.103" id="2003"/>
                <path class="unit" d="M237.702,183.762 L239.024,185.714 L237.065,191.572 L226.629,189.731 L224.87,187.124 L232.731,182.886 L234.319,185.231 L234.491,185.493 L237.702,183.762 Z M237.702,183.762" id="2004"/>
                <path class="unit" d="M189.26,165.137 L199.69,180.619 L192.493,184.499 L182.014,169.027 L189.26,165.137 Z M189.26,165.137" id="2005"/>
                <path class="unit" d="M195.45,161.814 L205.95,177.244 L200.014,180.444 L189.538,164.988 L195.45,161.814 Z M195.45,161.814" id="2006"/>
                <path class="unit" d="M187.979,148.66 L196.295,160.988 L191.959,163.325 L183.665,151.03 L187.979,148.66 Z M187.979,148.66" id="2007"/>
                <path class="unit" d="M191.645,163.495 L183.348,151.205 L175.903,155.295 L184.176,167.522 L191.645,163.495 Z M191.645,163.495" id="2008"/>
                <path class="unit" d="M147.997,191.248 L150.897,195.555 L139.667,201.606 L136.762,197.305 L147.997,191.248 Z M147.997,191.248" id="2009"/>
                <path class="unit" d="M151.313,205.702 L149.991,209.653 L144.778,208.734 L146.098,204.783 L151.313,205.702 Z M151.313,205.702" id="2010"/>
                <path class="unit" d="M99.334,112.632 L121.581,145.603 L114.997,149.152 L111.95,158.256 L106.417,161.244 L101.36,153.749 L101.043,153.925 L95.821,156.736 L95.504,156.906 L80.096,165.219 L69.147,148.99 L75.729,145.44 L79.792,133.299 L71.176,120.53 L89.149,110.836 L99.334,112.632 Z M99.334,112.632" id="2011"/>
                <path class="unit" d="M55.879,171.069 L58.959,175.634 L54.368,178.106 L51.364,173.509 L55.879,171.069 Z M55.879,171.069" id="2012"/>
                <path class="unit" d="M84.442,163.226 L89.327,170.458 L85.147,172.707 L80.268,165.476 L84.442,163.226 Z M84.442,163.226" id="2013"/>
                <path class="unit" d="M111.057,163.202 L112.801,165.778 L109.624,167.492 L107.881,164.91 L111.057,163.202 Z M111.057,163.202" id="2014"/>
                <path class="unit" d="M68.831,149.16 L84.833,172.877 L80.497,175.214 L71.803,173.681 L69.344,170.036 L59.274,175.465 L52.502,165.429 L62.573,160 L58.881,154.528 L68.831,149.16 Z M68.831,149.16" id="2015"/>
                <path class="unit" d="M128.831,162.841 L131.223,166.389 L112.928,176.256 L110.536,172.705 L128.831,162.841 Z M128.831,162.841" id="2016"/>
                <path class="unit" d="M131.395,166.649 L134.02,170.532 L115.719,180.394 L113.1,176.513 L131.395,166.649 Z M131.395,166.649" id="2017"/>
                <path class="unit" d="M134.192,170.788 L136.479,174.184 L118.184,184.047 L115.899,180.651 L134.192,170.788 Z M134.192,170.788" id="2018"/>
                <path class="unit" d="M136.657,174.439 L139.204,178.223 L123.481,186.699 L122.336,185.004 L119.764,186.391 L118.356,184.303 L136.657,174.439 Z M136.657,174.439" id="2019"/>
                <path class="unit" d="M110.213,172.879 L119.45,186.562 L113.506,189.761 L104.276,176.08 L110.213,172.879 Z M110.213,172.879" id="2020"/>
                <path class="unit" d="M103.961,176.25 L113.19,189.938 L108.854,192.273 L99.618,178.591 L103.961,176.25 Z M103.961,176.25" id="2021"/>
                <path class="unit" d="M99.303,178.762 L108.54,192.443 L103.397,195.212 L94.167,181.53 L99.303,178.762 Z M99.303,178.762" id="2022"/>
                <path class="unit" d="M84.622,190.408 L90.161,198.617 L84.764,201.531 L79.397,193.578 L84.622,190.408 Z M84.622,190.408" id="2023"/>
                <path class="unit" d="M93.852,181.701 L103.081,195.387 L96.499,198.931 L87.268,185.25 L93.852,181.701 Z M93.852,181.701" id="2024"/>
                <path class="unit" d="M142.458,183.037 L145.358,187.345 L129.635,195.822 L126.733,191.52 L142.458,183.037 Z M142.458,183.037" id="2025"/>
                <path class="unit" d="M145.536,187.603 L147.823,190.991 L132.094,199.473 L129.807,196.077 L145.536,187.603 Z M145.536,187.603" id="2026"/>
                <path class="unit" d="M151.075,195.812 L153.446,199.331 L151.413,205.402 L146.2,204.483 L144.459,204.176 L139.245,203.256 L139.682,201.95 L151.075,195.812 Z M151.075,195.812" id="2027"/>
                <path class="unit" d="M79.088,193.767 L87.575,206.344 L78.225,234.288 L37.364,227.083 L47.014,198.242 L57.124,192.792 L75.381,196.012 L79.088,193.767 Z M79.088,193.767" id="2028"/>
                <path class="unit" d="M111.569,123.632 L118.95,134.579 L115.739,136.311 L108.354,125.361 L111.569,123.632 Z M111.569,123.632" id="2029"/>
                <path class="unit" d="M122.907,126.814 L126.758,132.524 L139.133,125.878 L135.276,120.175 L122.907,126.814 Z M122.907,126.814" id="2030"/>
                <path class="unit" d="M202.29,3.805 L233.045,49.381 L188.11,73.608 L157.362,28.033 L202.29,3.805 Z M202.29,3.805" id="2031"/>
                <path class="unit" d="M177.407,78.179 L179.393,81.122 L173.778,84.153 L171.792,81.21 L177.407,78.179 Z M177.407,78.179" id="2032"/>
                <path class="unit" d="M218.612,57.513 L223.383,64.586 L197.551,78.519 L188.42,73.791 L218.612,57.513 Z M218.612,57.513" id="2033"/>
                <path class="unit" d="M179.571,81.378 L179.872,81.831 L184.276,83.799 L176.401,88.042 L173.95,84.409 L179.571,81.378 Z M179.571,81.378" id="2034"/>
                <path class="unit" d="M184.635,83.955 L188.059,85.491 L178.249,90.78 L176.581,88.298 L184.635,83.955 Z M184.635,83.955" id="2035"/>
                <path class="unit" d="M188.417,85.652 L192.309,87.392 L180.325,93.848 L178.42,91.036 L188.417,85.652 Z M188.417,85.652" id="2036"/>
                <path class="unit" d="M199.633,85.587 L201.37,88.167 L198.198,89.882 L196.456,87.301 L199.633,85.587 Z M199.633,85.587" id="2037"/>
                <path class="unit" d="M192.571,87.6 L194.782,90.877 L182.708,97.388 L180.497,94.11 L192.571,87.6 Z M192.571,87.6" id="2038"/>
                <path class="unit" d="M222.983,68.537 L230.282,79.354 L206.7,92.07 L200.625,83.078 L202.764,79.438 L222.983,68.537 Z M222.983,68.537" id="2039"/>
                <path class="unit" d="M194.956,91.133 L196.706,93.728 L184.631,100.237 L182.879,97.644 L194.956,91.133 Z M194.956,91.133" id="2040"/>
                <path class="unit" d="M206.083,94.762 L207.825,97.343 L204.647,99.057 L202.905,96.476 L206.083,94.762 Z M206.083,94.762" id="2041"/>
                <path class="unit" d="M230.461,79.612 L235.645,87.302 L212.059,100.018 L206.87,92.332 L230.461,79.612 Z M230.461,79.612" id="2042"/>
                <path class="unit" d="M196.877,93.983 L204.182,104.804 L189.86,112.524 L182.561,101.707 L196.877,93.983 Z M196.877,93.983" id="2043"/>
                <path class="unit" d="M189.577,112.677 L189.579,112.672 L189.86,112.524 L189.577,112.677 Z M189.577,112.677" id="2044"/>
                <path class="unit" d="M235.825,87.559 L240.198,94.042 L216.606,106.761 L212.233,100.278 L235.825,87.559 Z M235.825,87.559" id="2045"/>
                <path class="unit" d="M204.356,105.06 L204.643,105.485 L201.288,115.518 L196.93,109.062 L204.356,105.06 Z M204.356,105.06" id="2046"/>
                <path class="unit" d="M242.618,93.085 L247.301,100.033 L221.467,113.967 L216.778,107.019 L242.618,93.085 Z M242.618,93.085" id="2047"/>
                <path class="unit" d="M196.614,109.237 L201.143,115.943 L198.042,125.217 L189.749,112.934 L196.614,109.237 Z M196.614,109.237" id="2048"/>
                <path class="unit" d="M139.286,126.123 L146.004,136.08 L138.069,140.363 L131.233,139.157 L126.934,132.787 L139.286,126.123 Z M139.286,126.123" id="2049"/>
                <path class="unit" d="M247.479,100.291 L250.999,105.506 L225.159,119.438 L221.639,114.223 L247.479,100.291 Z M247.479,100.291" id="2050"/>
                <path class="unit" d="M189.26,112.848 L197.897,125.648 L197.661,126.353 L192.922,128.908 L183.997,115.681 L189.26,112.848 Z M189.26,112.848" id="2051"/>
                <path class="unit" d="M183.68,115.855 L192.606,129.078 L185.458,132.934 L176.538,119.707 L183.68,115.855 Z M183.68,115.855" id="2052"/>
                <path class="unit" d="M140.563,139.368 L145.27,146.337 L143.022,147.55 L138.323,140.575 L140.563,139.368 Z M140.563,139.368" id="2053"/>
                <path class="unit" d="M166.37,105.281 L185.141,133.104 L169.776,141.389 L151.004,113.566 L166.37,105.281 Z M166.37,105.281" id="2054"/>
                <path class="unit" d="M159.301,126.511 L169.459,141.559 L165.286,143.809 L155.127,128.76 L159.301,126.511 Z M159.301,126.511" id="2055"/>
                <path class="unit" d="M149.573,144.197 L153.575,150.122 L148.795,152.699 L146.186,152.239 L143.2,147.807 L149.657,144.322 L149.573,144.197 Z M149.573,144.197" id="2056"/>
                <path class="unit" d="M216.079,133.218 L224.538,145.76 L213.182,151.883 L204.782,139.425 L216.079,133.218 Z M216.079,133.218" id="2057"/>
                <path class="unit" d="M204.530,139.550 L212.903,151.964 L202.232,157.787 L193.882,145.414 L204.530,139.550 Z M204.530,139.550" id="2059"/>
                <path class="unit" d="M193.565,145.589 L201.917,157.958 L196.61,160.818 L188.293,148.484 L193.565,145.589 Z M193.565,145.589" id="2060"/>
                <path class="unit" d="M225.192,173.976 L227.129,176.847 L220.387,180.479 L218.456,177.608 L225.192,173.976 Z M225.192,173.976" id="2061"/>
                <path class="unit" d="M261.278,100.316 L287.659,139.41 L274.178,146.679 L282.62,159.19 L251.167,176.149 L219.336,128.972 L221.803,121.601 L261.278,100.316 Z M261.278,100.316" id="2062"/>
                <path class="unit" d="M229.766,180.754 L231.438,183.23 L224.698,186.868 L223.022,184.385 L229.766,180.754 Z M229.766,180.754" id="2063"/>
                <path class="unit" d="M252.698,51.272 L256.393,56.745 L250.889,59.709 L247.198,54.238 L252.698,51.272 Z M252.698,51.272" id="2064"/>
                <path class="unit" d="M246.879,54.413 L249.956,58.971 L233.313,67.945 L230.237,63.382 L246.879,54.413 Z M246.879,54.413" id="2065"/>
                <path class="unit" d="M262.573,170.349 L267.5,177.652 L264.963,185.236 L256.266,183.708 L251.772,186.128 L239.604,183.982 L239.167,185.288 L238.018,183.587 L262.573,170.349 Z M262.573,170.349" id="2066"/>
                <path class="unit" d="M264.86,185.543 L261.407,195.864 L249.233,193.718 L251.627,186.56 L256.305,184.033 L264.86,185.543 Z M264.86,185.543" id="2067"/>
                <path class="unit" d="M259.375,201.935 L256.836,209.524 L244.663,207.378 L247.202,199.788 L259.375,201.935 Z M259.375,201.935" id="2068"/>
                <path class="unit" d="M231.758,202.152 L230.743,205.19 L216.946,202.722 L217.92,199.744 L231.758,202.152 Z M231.758,202.152" id="2069"/>
                <path class="unit" d="M181.766,169.208 L184.096,172.652 L164.118,183.362 L161.811,179.935 L181.766,169.208 Z M181.766,169.208" id="2070"/>
                <path class="unit" d="M169.374,158.883 L177.612,171.061 L183.911,167.665 L175.641,155.439 L169.374,158.883 Z M169.374,158.883" id="2071"/>
                <path class="unit" d="M162.434,162.695 L170.618,174.832 L177.348,171.203 L169.11,159.027 L162.434,162.695 Z M162.434,162.695" id="2072"/>
                <path class="unit" d="M162.116,162.872 L170.301,175.003 L165.004,177.858 L156.846,165.768 L162.116,162.872 Z M162.116,162.872" id="2073"/>
                <path class="unit" d="M156.286,166.074 L156.528,165.942 L164.688,178.029 L161.631,179.678 L155.016,169.871 L156.286,166.074 Z M156.286,166.074" id="2074"/>
                <path class="unit" d="M174.409,187.87 L184.608,188.752 L184.719,188.692 L181.565,184.028 L174.409,187.87 Z M174.409,187.87" id="2075"/>
                <path class="unit" d="M195.729,195.844 L192.424,205.943 L200.454,207.36 L203.752,197.279 L195.729,195.844 Z M195.729,195.844" id="2077"/>
                <path class="unit" d="M217.602,199.757 L211.149,198.603 L207.856,208.668 L214.313,209.808 L217.602,199.757 Z M217.602,199.757" id="2078"/>
                <path class="unit" d="M204.049,197.332 L200.752,207.413 L207.559,208.615 L210.852,198.549 L204.049,197.332 Z M204.049,197.332" id="2079"/>
                <path class="unit" d="M196.917,206.997 L200.397,207.654 L191.86,233.105 L166.655,228.66 L170.106,218.344 L172.913,216.826 L177.272,203.624 L183.008,204.545 L196.917,206.997 Z M196.917,206.997" id="2080"/>
                <path class="unit" d="M178.737,199.042 L177.348,203.281 L184.139,204.48 L187.446,194.369 L178.737,199.042 Z M178.737,199.042" id="2081"/>
                <path class="unit" d="M174.915,192.278 L177.532,196.148 L173.885,198.11 L171.276,194.241 L174.915,192.278 Z M174.915,192.278" id="2082"/>
                <path class="unit" d="M167.456,245.52 L166.543,248.252 L156.108,246.412 L156.614,244.898 L158.411,243.926 L167.456,245.52 Z M167.456,245.52" id="2083"/>
                <path class="unit" d="M179.59,231.266 L175.528,243.407 L168.573,242.182 L162.489,241.108 L166.551,228.967 L179.59,231.266 Z M179.59,231.266" id="2084"/>
                <path class="unit" d="M168.471,242.487 L167.557,245.219 L158.864,243.688 L162.235,241.867 L162.387,241.414 L168.471,242.487 Z M168.471,242.487" id="2085"/>
                <path class="unit" d="M150.188,297.129 L147.752,304.413 L140.797,303.188 L138.333,299.54 L139.754,295.289 L150.188,297.129 Z M150.188,297.129" id="2086"/>
                <path class="unit" d="M151.713,292.572 L150.292,296.823 L139.858,294.983 L141.28,290.732 L151.713,292.572 Z M151.713,292.572" id="2087"/>
                <path class="unit" d="M164.409,254.629 L163.495,257.361 L153.059,255.521 L153.973,252.789 L164.409,254.629 Z M164.409,254.629" id="2088"/>
                <path class="unit" d="M163.393,257.667 L161.971,261.912 L151.538,260.072 L152.958,255.827 L163.393,257.667 Z M163.393,257.667" id="2089"/>
                <path class="unit" d="M154.252,284.988 L152.932,288.933 L142.497,287.094 L143.817,283.147 L154.252,284.988 Z M154.252,284.988" id="2090"/>
                <path class="unit" d="M155.37,281.644 L154.354,284.682 L143.918,282.842 L144.936,279.804 L155.37,281.644 Z M155.37,281.644" id="2091"/>
                <path class="unit" d="M156.792,277.398 L155.471,281.343 L145.036,279.504 L146.356,275.558 L156.792,277.398 Z M156.792,277.398" id="2092"/>
                <path class="unit" d="M159.331,269.808 L156.893,277.092 L146.458,275.252 L148.897,267.969 L159.331,269.808 Z M159.331,269.808" id="2093"/>
                <path class="unit" d="M160.448,266.469 L159.432,269.502 L148.999,267.662 L150.012,264.63 L160.448,266.469 Z M160.448,266.469" id="2094"/>
                <path class="unit" d="M161.87,262.218 L160.549,266.164 L150.114,264.323 L151.434,260.379 L161.87,262.218 Z M161.87,262.218" id="2095"/>
                <path class="unit" d="M152.831,289.233 L151.815,292.271 L141.379,290.432 L142.397,287.394 L152.831,289.233 Z M152.831,289.233" id="2096"/>
                <path class="unit" d="M165.526,251.29 L164.51,254.322 L154.077,252.482 L155.09,249.45 L165.526,251.29 Z M165.526,251.29" id="2097"/>
                <path class="unit" d="M121.887,304.673 L120.87,307.711 L105.221,304.951 L100.006,304.032 L101.024,300.994 L121.887,304.673 Z M121.887,304.673" id="2098"/>
                <path class="unit" d="M145.11,312.309 L135.563,340.844 L95.573,333.791 L105.12,305.257 L145.11,312.309 Z M145.11,312.309" id="2099"/>
                <path class="unit" d="M132.233,279.253 L127.18,294.357 L128.92,294.664 L126.889,300.734 L100.807,296.136 L107.891,274.962 L132.233,279.253 Z M132.233,279.253" id="2100"/>
                <path class="unit" d="M142.922,247.305 L140.891,253.375 L126.983,250.923 L129.014,244.853 L142.922,247.305 Z M142.922,247.305" id="2101"/>
                <path class="unit" d="M140.79,253.682 L139.37,257.927 L128.934,256.087 L125.459,255.475 L126.879,251.229 L140.79,253.682 Z M140.79,253.682" id="2102"/>
                <path class="unit" d="M139.266,258.232 L135.915,268.248 L125.481,266.409 L128.831,256.393 L139.266,258.232 Z M139.266,258.232" id="2103"/>
                <path class="unit" d="M135.813,268.555 L134.391,272.806 L123.956,270.966 L125.379,266.715 L135.813,268.555 Z M135.813,268.555" id="2104"/>
                <path class="unit" d="M134.29,273.106 L132.334,278.953 L121.899,277.113 L123.856,271.267 L134.29,273.106 Z M134.29,273.106" id="2105"/>
                <path class="unit" d="M139.381,178.479 L142.284,182.781 L126.553,191.263 L123.653,186.955 L139.381,178.479 Z M139.381,178.479" id="2106"/>
                <path class="unit" d="M153.649,242.767 L152.633,245.799 L149.153,245.186 L150.168,242.153 L153.649,242.767 Z M153.649,242.767" id="2107"/>
                <path class="unit" d="M149.891,209.953 L153.586,215.432 L143.026,246.998 L109.987,241.173 L120.549,209.606 L134.458,212.059 L135.983,207.502 L144.676,209.035 L149.891,209.953 Z M149.891,209.953" id="2108"/>
                <path class="unit" d="M90.145,160.151 L95.022,167.388 L89.643,170.288 L84.766,163.051 L90.145,160.151 Z M90.145,160.151" id="2109"/>
                <path class="unit" d="M101.215,154.182 L106.094,161.413 L100.875,164.231 L95.999,156.994 L101.215,154.182 Z M101.215,154.182" id="2110"/>
                <path class="unit" d="M95.676,157.168 L100.561,164.4 L95.338,167.213 L90.459,159.981 L95.676,157.168 Z M95.676,157.168" id="2111"/>
                <path class="unit" d="M159.735,136.228 L164.963,143.982 L158.5,147.467 L153.274,139.712 L159.735,136.228 Z M159.735,136.228" id="2112"/>
                <path class="unit" d="M152.95,139.886 L158.186,147.637 L153.891,149.952 L148.657,142.201 L152.95,139.886 Z M152.95,139.886" id="2113"/>
                <path class="unit" d="M138.094,99.375 L143.547,107.461 L118.834,120.781 L109.381,106.771 L126.795,97.383 L138.094,99.375 Z M138.094,99.375" id="2114"/>
                <path class="unit" d="M141.084,156.964 L142.819,159.544 L139.647,161.26 L137.907,158.679 L141.084,156.964 Z M141.084,156.964" id="2115"/>
                <path class="unit" d="M182.579,142.054 L184.321,144.636 L181.141,146.35 L179.405,143.769 L182.579,142.054 Z M182.579,142.054" id="2116"/>
                <path class="unit" d="M147.45,170.949 L149.192,173.526 L146.014,175.239 L144.272,172.658 L147.45,170.949 Z M147.45,170.949" id="2117"/>
                <path class="unit" d="M158.229,187.317 L159.969,189.893 L156.792,191.606 L155.055,189.026 L158.229,187.317 Z M158.229,187.317" id="2118"/>
                <path class="unit" d="M131.411,114.463 L119.012,121.043 L122.737,126.565 L135.106,119.925 L131.411,114.463 Z M131.411,114.463" id="2119"/>
                <path class="unit" d="M159.125,208.683 L158.112,211.715 L154.631,211.102 L155.647,208.069 L159.125,208.683 Z M159.125,208.683" id="2120"/>
                <path class="unit" d="M161.356,201.96 L160.34,204.992 L156.86,204.379 L157.875,201.347 L161.356,201.96 Z M161.356,201.96" id="2121"/>
                <path class="unit" d="M160.569,222.315 L159.555,225.348 L156.075,224.734 L157.088,221.702 L160.569,222.315 Z M160.569,222.315" id="2122"/>
                <path class="unit" d="M162.799,215.593 L161.784,218.625 L158.303,218.012 L159.319,214.979 L162.799,215.593 Z M162.799,215.593" id="2123"/>
                <path class="unit" d="M204.252,131.073 L205.995,133.648 L202.817,135.362 L201.081,132.782 L204.252,131.073 Z M204.252,131.073" id="2125"/>
                <path class="unit" d="M205.782,123.335 L207.524,125.91 L204.346,127.624 L202.61,125.044 L205.782,123.335 Z M205.782,123.335" id="2124"/>
                <path class="unit" d="M166.186,151.03 L167.928,153.605 L164.75,155.319 L163.014,152.739 L166.186,151.03 Z M166.186,151.03" id="2126"/>
                <path class="unit" d="M157.315,155.908 L159.057,158.483 L155.879,160.197 L154.143,157.617 L157.315,155.908 Z M157.315,155.908" id="2127"/>
                <path class="unit" d="M184.983,188.549 L192.168,184.674 L189.03,180.021 L181.829,183.886 L184.983,188.549 Z M184.983,188.549" id="2128"/>
                <path class="unit" d="M184.209,172.877 L164.297,183.619 L166.526,186.93 L186.469,176.225 L184.209,172.877 Z M184.209,172.877" id="2129"/>
                <path class="unit" d="M186.637,176.474 L166.694,187.18 L166.709,187.204 L173.862,187.822 L188.862,179.771 L186.637,176.474 Z M186.637,176.474" id="2130"/>
                <path class="unit" d="M187.747,194.415 L184.438,204.532 L192.127,205.891 L195.432,195.79 L187.747,194.415 Z M187.747,194.415" id="2131"/>
        </g>
    </g>
</svg>