<?xml version="1.0" encoding="utf-8"?>
<!DOCTYPE svg PUBLIC "-//W3C//DTD SVG 1.1//EN" "http://www.w3.org/Graphics/SVG/1.1/DTD/svg11.dtd">
<svg version="1.1" xmlns="http://www.w3.org/2000/svg" xmlns:xlink="http://www.w3.org/1999/xlink" xml:space="preserve">
<g class="level" id="level1">
    <g class="outline">
            <path d="M282.1,150.1 L295.6,142.8 L264.2,96.3 L253,102.4 L233.3,73.2 L247.3,65.7 L249.8,69.4 L263.9,61.8 L254.6,48 L241.1,55.3 L204.2,0.5 L151.2,27.7 L154.3,32.3 L148.7,35.3 L176.4,76.3 L171.4,79 L168.3,74.4 L154.2,82 L157.3,86.6 L138,97 L125.9,95 L108.7,104.3 L105,98.8 L64.5,120.6 L75.2,136.5 L72.4,145 L52.3,155.8 L55.4,160.4 L45.3,165.8 L49,171.3 L36.6,178 L48.3,195.3 L42.6,198.4 L31.1,232.7 L81.3,241.5 L89.9,215.7 L94.3,216.5 L105.4,210.5 L100.5,203.2 L120.1,192.6 L131.1,209 L130.8,209.9 L116.9,207.4 L104.2,245.4 L119.8,248.2 L111.7,272.4 L104.7,271.2 L92,309.2 L99,310.4 L89.4,339.2 L139.6,348 L172.6,249.3 L177.8,250.2 L181.9,238.1 L195.8,240.6 L204.4,214.8 L218.3,217.3 L220.8,209.7 L260.8,216.8 L273.2,179.8 L269.4,174.2 L290.7,162.7 L282.1,150.1 L282.1,150.1 Z M282.1,150.1" class="outline"/>
        </g>
        <g class="label">
            <path d="M14.2,75.2 C13.2,75.2 12.4,75.3 11.9,75.5 C11.5,75.6 11.4,75.9 11.4,76.3 L11.4,86 C11.4,86.4 11.7,86.6 12,86.6 C12.4,86.6 12.6,86.4 12.6,86 L12.6,82.4 L14.1,82.4 C17,82.4 18.5,81 18.5,78.7 C18.5,76.7 17.2,75.2 14.2,75.2 L14.2,75.2 L14.2,75.2 Z M14,81.2 L12.6,81.2 L12.6,76.5 C13,76.4 13.6,76.4 14.1,76.4 C16.4,76.4 17.2,77.5 17.2,78.8 C17.2,80.1 16.5,81.2 14,81.2 L14,81.2 L14,81.2 Z M35,85.3 L30.2,85.3 L30.2,81.4 L34.1,81.4 C34.5,81.4 34.7,81.1 34.7,80.8 C34.7,80.5 34.5,80.2 34.1,80.2 L30.2,80.2 L30.2,76.5 L34.8,76.5 C35.2,76.5 35.4,76.2 35.4,75.9 C35.4,75.6 35.2,75.3 34.8,75.3 L30,75.3 C29.3,75.3 28.9,75.7 28.9,76.3 L28.9,85.6 C28.9,86.2 29.3,86.6 30,86.6 L35,86.6 C35.4,86.6 35.6,86.3 35.6,86 C35.7,85.6 35.4,85.3 35,85.3 L35,85.3 L35,85.3 Z M23,75.2 C22,75.2 21.2,75.3 20.7,75.5 C20.3,75.6 20.2,75.9 20.2,76.3 L20.2,86 C20.2,86.4 20.5,86.6 20.8,86.6 C21.2,86.6 21.4,86.4 21.4,86 L21.4,82.4 L22.9,82.4 C25.8,82.4 27.3,81 27.3,78.7 C27.3,76.7 26,75.2 23,75.2 L23,75.2 L23,75.2 Z M22.9,81.2 L21.5,81.2 L21.5,76.5 C21.9,76.4 22.5,76.4 23,76.4 C25.3,76.4 26.1,77.5 26.1,78.8 C26.1,80.1 25.4,81.2 22.9,81.2 L22.9,81.2 L22.9,81.2 Z M8.5,75.3 C8.1,75.3 7.9,75.6 7.9,76 L7.9,84.8 C7.1,85.3 5.9,85.6 5.2,85.6 C3.3,85.6 2.2,84.7 2.2,82.6 L2.2,76.1 C2.2,75.7 1.9,75.4 1.6,75.4 C1.2,75.4 1,75.7 1,76.1 L1,82.9 C1,85.2 2.5,86.8 5,86.8 C6.8,86.8 7.8,86.3 8.8,85.8 C9.2,85.6 9.2,85.3 9.2,84.9 L9.2,76 C9.1,75.5 8.8,75.3 8.5,75.3 L8.5,75.3 L8.5,75.3 Z M79,85.3 L74.7,85.3 L74.7,75.9 C74.7,75.5 74.4,75.2 74.1,75.2 C73.7,75.2 73.5,75.5 73.5,75.9 L73.5,85.5 C73.5,86.1 73.9,86.5 74.6,86.5 L79,86.5 C79.4,86.5 79.7,86.2 79.7,85.9 C79.7,85.6 79.4,85.3 79,85.3 L79,85.3 L79,85.3 Z M86.6,85.3 L82.3,85.3 L82.3,75.9 C82.3,75.5 82,75.2 81.7,75.2 C81.3,75.2 81.1,75.5 81.1,75.9 L81.1,85.5 C81.1,86.1 81.5,86.5 82.2,86.5 L86.7,86.5 C87.1,86.5 87.4,86.2 87.4,85.9 C87.3,85.6 87,85.3 86.6,85.3 L86.6,85.3 L86.6,85.3 Z M68.9,76.7 C68.3,75.5 67.8,75.1 67.2,75.1 C66.6,75.1 66.1,75.5 65.5,76.7 C64.6,78.5 63.9,80.8 62.7,85.4 C62.6,85.6 62.6,85.8 62.6,85.9 C62.6,86.3 62.9,86.5 63.2,86.5 C63.5,86.5 63.7,86.3 63.8,86 C64.1,84.6 64.4,83.4 64.7,82.3 L69.6,82.3 C69.9,83.4 70.2,84.6 70.5,86 C70.6,86.3 70.8,86.5 71.1,86.5 C71.5,86.5 71.7,86.3 71.7,85.9 C71.7,85.8 71.7,85.6 71.6,85.4 C70.5,80.8 69.8,78.6 68.9,76.7 L68.9,76.7 L68.9,76.7 Z M65.1,81.3 C65.8,78.9 66.5,77.3 67,76.5 C67,76.4 67.1,76.4 67.2,76.4 C67.3,76.4 67.4,76.5 67.4,76.5 C67.9,77.3 68.6,78.8 69.3,81.3 L65.1,81.3 L65.1,81.3 Z M43.1,82.4 C42.8,82 42.5,81.7 42.1,81.4 C43.5,80.9 44.5,79.9 44.5,78.4 C44.5,76.5 43.2,75.2 40.3,75.2 C39.2,75.2 38.4,75.3 37.9,75.5 C37.5,75.6 37.4,75.9 37.4,76.3 L37.4,86 C37.4,86.4 37.7,86.6 38,86.6 C38.4,86.6 38.6,86.4 38.6,86 L38.6,81.8 L39.8,81.8 C41,81.8 41.4,82.3 42,83.2 C42.4,83.8 42.8,84.8 43.3,86.2 C43.4,86.5 43.6,86.6 43.9,86.6 C44.2,86.6 44.5,86.4 44.5,86 C44.5,85.9 44.5,85.7 44.4,85.6 C44.1,84.4 43.6,83.2 43.1,82.4 L43.1,82.4 L43.1,82.4 Z M40.1,80.6 L38.7,80.6 L38.7,76.6 C39.1,76.5 39.6,76.5 40.3,76.5 C42.6,76.5 43.3,77.4 43.3,78.6 C43.2,80.1 41.7,80.6 40.1,80.6 L40.1,80.6 L40.1,80.6 Z M60.3,76.6 C60.2,75.8 59.9,75.3 59.2,75.3 C58.6,75.3 58.3,75.7 58.1,76.1 C57.3,78.3 56.4,81.1 55.4,83.8 L55.4,83.8 C54.4,81.3 53.6,78.7 52.6,76.3 C52.4,75.7 52.1,75.3 51.5,75.3 C50.8,75.3 50.5,75.7 50.4,76.6 C50,79.5 49.9,82.7 49.9,85.9 C49.9,86.3 50.1,86.5 50.5,86.5 C50.9,86.5 51.1,86.3 51.1,85.8 C51.1,82.7 51.3,79.7 51.6,76.8 L51.6,76.8 C52.6,79.4 53.5,82.1 54.6,84.7 C54.7,85 55,85.3 55.4,85.3 C55.8,85.3 56.1,85.1 56.2,84.7 C57.2,82.2 58.1,79.5 59,76.8 L59,76.8 C59.4,79.8 59.6,82.8 59.7,85.8 C59.7,86.2 59.9,86.5 60.3,86.5 C60.7,86.5 60.9,86.2 60.9,85.8 L60.9,85.3 C61,82.4 60.7,79.3 60.3,76.6 L60.3,76.6 L60.3,76.6 Z M60.3,76.6" class="Shape"/>
        </g>
        <g class="background">
            <path d="M279.8,149.5 L293.3,142.2 L263.8,98.4 L252.6,104.5 L231,72.5 L247.9,63.4 L250.4,67.1 L261.6,61 L254.2,50.1 L240.7,57.4 L203.7,2.6 L153.7,28.3 L156.8,32.9 L151.2,35.9 L178.9,76.9 L171,81.1 L167.9,76.5 L156.7,82.6 L159.8,87.2 L138.5,98.7 L126.3,96.6 L108.3,106.3 L104.6,100.8 L67,121.1 L77.1,136.2 L73.8,146.1 L54.7,156.4 L57.8,161 L47.7,166.5 L51.4,172 L39,178.5 L50.7,195.8 L44,199.4 L33.3,231.3 L80.2,239.6 L88.8,213.8 L94,214.7 L103,209.9 L98.1,202.6 L120.6,190.5 L132.9,208.7 L131.9,211.7 L118,209.2 L106.3,244.1 L121.9,246.9 L112.8,274.2 L105.8,273 L94.2,308 L101.2,309.2 L91.6,338 L138.5,346.3 L171.5,247.6 L176.7,248.5 L180.8,236.4 L194.7,238.9 L203.3,213.1 L217.2,215.6 L219.7,208 L259.7,215.1 L271.4,180.2 L267.1,173.8 L288.4,162.3 L279.8,149.5 L279.8,149.5 Z M279.8,149.5" class="walkway"/>
            <path d="M113.4,168 L112.9,166.1 L111.2,163.5 L108,165.2 L108.5,167.1 L110.2,169.7 L113.4,168 L113.4,168 Z M143.4,161.8 L142.9,159.9 L141.2,157.3 L138,159 L138.5,160.9 L140.2,163.5 L143.4,161.8 L143.4,161.8 Z M171.4,194.5 L171.9,196.4 L174.5,200.3 L178.1,198.3 L177.6,196.4 L175,192.5 L171.4,194.5 L171.4,194.5 Z M158.3,187.6 L155.1,189.3 L155.6,191.2 L157.3,193.8 L160.5,192.1 L160,190.2 L158.3,187.6 L158.3,187.6 Z M153.2,248 L154.2,245 L153.7,243.1 L150.2,242.5 L149.2,245.5 L149.7,247.4 L153.2,248 L153.2,248 Z M149.8,175.7 L149.3,173.8 L147.6,171.2 L144.4,172.9 L144.9,174.8 L146.6,177.4 L149.8,175.7 L149.8,175.7 Z M153.7,215.7 L150.8,211.4 L154.1,201.6 L153.6,199.7 L129,163.2 L87.4,185.6 L87.9,187.5 L97.1,201.2 L122.9,187.3 L132.7,201.9 L137.2,199.5 L139.5,202.9 L139.3,203.6 L139.8,205.5 L145.7,206.5 L144.8,209.3 L136.1,207.8 L134.6,212.4 L120.7,209.9 L110,241.8 L110.5,243.7 L128.6,246.9 L125.6,255.8 L126.1,257.7 L128.5,258.1 L122,277.6 L108.1,275.1 L101,296.3 L101.5,298.2 L127.6,302.8 L129.6,296.7 L129.1,294.8 L128.4,294.7 L154.2,217.5 L153.7,215.7 L153.7,215.7 Z M188.7,75.9 L198.1,80.8 L224,66.8 L223.5,64.9 L219.7,59.2 L233.7,51.7 L233.2,49.8 L202.4,4.1 L157.5,28.3 L158,30.2 L188.7,75.9 L188.7,75.9 Z M282.9,159.7 L275.4,148.6 L288.3,141.7 L287.8,139.8 L261.3,100.6 L251.2,106.1 L242.6,93.3 L240.4,94.5 L223.2,69 L203,79.9 L200.9,83.5 L201.4,85.4 L224.9,120.3 L222.1,121.8 L219.6,129.4 L220.1,131.3 L251,177.1 L234.7,185.9 L232.9,183.2 L231.8,183.8 L222.6,170.1 L215.9,173.7 L216.4,175.6 L227.5,192 L237.9,193.8 L240.4,186.2 L251.5,188.2 L249.5,194 L250,195.9 L262.2,198 L268.3,179.8 L267.8,177.9 L264,172.2 L283.6,161.6 L282.9,159.7 L282.9,159.7 Z M224.8,146.3 L216.2,133.5 L156.4,166.4 L155.1,170.2 L155.6,172.1 L167.3,189.4 L185.2,190.9 L206.5,179.4 L206,177.5 L204.1,174.8 L196.6,163.7 L225.2,148.3 L224.8,146.3 L224.8,146.3 Z M197.1,89.5 L198.8,92.1 L202,90.4 L201.5,88.5 L199.8,85.9 L196.6,87.6 L197.1,89.5 L197.1,89.5 Z M131.8,141.4 L138.8,142.6 L146.8,154.5 L149.4,155 L198.3,128.7 L205.3,107.8 L204.8,105.9 L192.6,87.9 L180,82.1 L177.5,78.4 L171.9,81.4 L172.4,83.3 L184.2,100.8 L182.6,101.7 L183.1,103.6 L189.4,112.9 L176.5,119.8 L166.7,105.2 L151,113.7 L151.5,115.6 L159,126.8 L155.1,128.9 L155.6,130.8 L159.4,136.5 L148.8,142.2 L149.3,144.1 L149.4,144.3 L145.5,146.4 L141.7,140.7 L146.7,138 L146.2,136.1 L139.4,126.1 L132.5,115.8 L144.2,109.5 L143.7,107.6 L138.2,99.4 L126.9,97.4 L109.5,106.8 L110,108.7 L131.8,141.4 L131.8,141.4 Z M159.2,80.9 L159.7,82.8 L162.2,86.5 L167.8,83.5 L167.3,81.6 L164.8,78 L159.2,80.9 L159.2,80.9 Z M230.8,65.6 L233.9,70.2 L250.7,61.1 L251.3,62 L256.9,59 L256.4,57.1 L252.7,51.6 L230.2,63.7 L230.8,65.6 L230.8,65.6 Z M206.2,95 L203,96.7 L203.5,98.6 L205.2,101.2 L208.4,99.5 L207.9,97.6 L206.2,95 L206.2,95 Z M155.2,249.7 L138.4,299.8 L138.9,301.7 L141.4,305.3 L148.4,306.5 L166.2,253.4 L165.7,251.5 L155.2,249.7 L155.2,249.7 Z M52,175.7 L55,180.3 L70,172.2 L72.5,175.8 L81.2,177.3 L112.7,160.3 L115.7,151.2 L122.4,147.6 L121.9,145.7 L116.8,138.2 L119.6,136.7 L119.1,134.8 L111.7,123.9 L108.3,125.7 L99.7,113 L89.3,111.2 L71.3,120.9 L71.8,122.8 L79.7,134.4 L75.9,145.7 L59,154.8 L59.5,156.7 L62.1,160.6 L52.6,165.7 L53.1,167.6 L55.7,171.5 L51.5,173.8 L52,175.7 L52,175.7 Z M122.1,308.2 L122.5,306.9 L122,305 L101.1,301.3 L100.1,304.3 L100.6,306.2 L104.7,306.9 L95.6,334 L96.1,335.9 L136.1,343 L145.7,314.2 L145.2,312.3 L122.1,308.2 L122.1,308.2 Z M184.9,146.9 L184.4,145 L182.7,142.4 L179.5,144.1 L180,146 L181.7,148.6 L184.9,146.9 L184.9,146.9 Z M90.3,198.9 L84.8,190.7 L75.6,196.3 L57.3,193.1 L47.2,198.6 L37.6,227.4 L38.1,229.3 L79,236.5 L88.4,208.4 L87.9,206.5 L85.9,203.6 L90.9,200.9 L90.3,198.9 L90.3,198.9 Z M247.3,200.1 L244.8,207.7 L245.3,209.6 L257.5,211.7 L260,204.1 L259.5,202.2 L247.3,200.1 L247.3,200.1 Z M219.6,200 L215.1,199.2 L209.9,198.3 L192.9,195.3 L187.4,194.3 L179,198.9 L177.6,203.3 L177,205.3 L173.1,217.1 L170.3,218.6 L162.4,242.1 L156.8,245.1 L156.3,246.6 L156.8,248.5 L167.2,250.3 L169.2,244.2 L176.2,245.4 L180.3,233.3 L192.5,235.4 L201.2,209.6 L215.3,212.1 L217.8,204.6 L231.4,207 L232.4,204 L231.9,202.1 L219.6,200 L219.6,200 Z M155.3,213 L158.8,213.6 L159.8,210.6 L159.3,208.7 L155.8,208.1 L154.8,211.1 L155.3,213 L155.3,213 Z M157.5,206.3 L161,206.9 L162,203.9 L161.5,202 L158,201.4 L157,204.4 L157.5,206.3 L157.5,206.3 Z M160.2,227.3 L161.2,224.3 L160.7,222.4 L157.2,221.8 L156.2,224.8 L156.7,226.7 L160.2,227.3 L160.2,227.3 Z M163.4,217.5 L162.9,215.6 L159.4,215 L158.4,218 L158.9,219.9 L162.4,220.5 L163.4,217.5 L163.4,217.5 Z M201.6,134.7 L203.3,137.3 L206.5,135.6 L206,133.7 L204.3,131.1 L201.1,132.8 L201.6,134.7 L201.6,134.7 Z M208,128 L207.5,126.1 L205.8,123.5 L202.6,125.2 L203.1,127.1 L204.8,129.7 L208,128 L208,128 Z M168.4,155.6 L167.9,153.7 L166.2,151.1 L163,152.8 L163.5,154.7 L165.2,157.3 L168.4,155.6 L168.4,155.6 Z M156.4,162.1 L159.6,160.4 L159.1,158.5 L157.4,155.9 L154.2,157.6 L154.7,159.5 L156.4,162.1 L156.4,162.1 Z M124.1,143.4 L124.1,143.4 L127.3,141.6 L126.8,139.6 L125,137 L121.8,138.7 L122.3,140.7 L124.1,143.4 L124.1,143.4 Z M124.1,143.4" class="wall"/>
        </g>
        <g class="ceilings">
            <path class="unit" d="M164.7,77.6 L167.2,81.2 L161.6,84.2 L159.1,80.5 L164.7,77.6 L164.7,77.6 Z M164.7,77.6" id="2001"/>
            <path class="unit" d="M222.3,169.7 L225,173.7 L218.3,177.3 L218,177 L215.5,173.4 L222.3,169.7 L222.3,169.7 Z M222.3,169.7" id="2002"/>
            <path class="unit" d="M227.3,177.1 L229.6,180.5 L222.9,184.1 L220.6,180.7 L227.3,177.1 L227.3,177.1 Z M227.3,177.1" id="2003"/>
            <path class="unit" d="M237.7,183.8 L239,185.8 L237,191.7 L226.6,189.9 L224.8,187.3 L232.7,183.1 L234.3,185.4 L234.5,185.7 L237.7,183.8 L237.7,183.8 Z M237.7,183.8" id="2004"/>
            <path class="unit" d="M189.3,165.1 L199.7,180.6 L192.5,184.5 L182,169 L189.3,165.1 L189.3,165.1 Z M189.3,165.1" id="2005"/>
            <path class="unit" d="M195.4,161.8 L205.9,177.2 L200,180.4 L189.5,165 L195.4,161.8 L195.4,161.8 Z M195.4,161.8" id="2006"/>
            <path class="unit" d="M188,148.7 L196.3,161 L192,163.3 L183.7,151 L188,148.7 L188,148.7 Z M188,148.7" id="2007"/>
            <path class="unit" d="M191.6,163.5 L183.3,151.2 L175.9,155.3 L184.2,167.5 L191.6,163.5 L191.6,163.5 Z M191.6,163.5" id="2008"/>
            <path class="unit" d="M148,191.2 L150.9,195.5 L139.7,201.6 L136.8,197.3 L148,191.2 L148,191.2 Z M148,191.2" id="2009"/>
            <path class="unit" d="M151.3,205.7 L150,209.7 L144.8,208.8 L146.1,204.8 L151.3,205.7 L151.3,205.7 Z M151.3,205.7" id="2010"/>
            <path class="unit" d="M99.3,112.6 L121.5,145.6 L114.9,149.1 L111.9,158.2 L106.4,161.2 L101.3,153.7 L101,153.9 L95.8,156.7 L95.5,156.9 L80.1,165.2 L69.1,149 L75.7,145.4 L79.8,133.3 L71.2,120.5 L89.2,110.8 L99.3,112.6 L99.3,112.6 Z M99.3,112.6" id="2011"/>
            <path class="unit" d="M55.9,171.1 L59,175.7 L54.4,178.2 L51.4,173.6 L55.9,171.1 L55.9,171.1 Z M55.9,171.1" id="2012"/>
            <path class="unit" d="M84.4,163.2 L89.3,170.4 L85.1,172.6 L80.2,165.4 L84.4,163.2 L84.4,163.2 Z M84.4,163.2" id="2013"/>
            <path class="unit" d="M111.1,163.2 L112.8,165.8 L109.6,167.5 L107.9,164.9 L111.1,163.2 L111.1,163.2 Z M111.1,163.2" id="2014"/>
            <path class="unit" d="M68.8,149.2 L84.8,172.9 L80.5,175.2 L71.8,173.7 L69.3,170.1 L59.2,175.5 L52.4,165.5 L62.5,160.1 L58.8,154.6 L68.8,149.2 L68.8,149.2 Z M68.8,149.2" id="2015"/>
            <path class="unit" d="M128.8,162.8 L131.2,166.3 L112.9,176.2 L110.5,172.6 L128.8,162.8 L128.8,162.8 Z M128.8,162.8" id="2016"/>
            <path class="unit" d="M131.4,166.6 L134,170.5 L115.7,180.4 L113.1,176.5 L131.4,166.6 L131.4,166.6 Z M131.4,166.6" id="2017"/>
            <path class="unit" d="M134.2,170.8 L136.5,174.2 L118.2,184.1 L115.9,180.7 L134.2,170.8 L134.2,170.8 Z M134.2,170.8" id="2018"/>
            <path class="unit" d="M136.7,174.4 L139.2,178.2 L123.5,186.7 L122.4,185 L119.8,186.4 L118.4,184.3 L136.7,174.4 L136.7,174.4 Z M136.7,174.4" id="2019"/>
            <path class="unit" d="M110.2,172.9 L119.4,186.6 L113.5,189.8 L104.3,176.1 L110.2,172.9 L110.2,172.9 Z M110.2,172.9" id="2020"/>
            <path class="unit" d="M104,176.2 L113.2,189.9 L108.9,192.2 L99.7,178.5 L104,176.2 L104,176.2 Z M104,176.2" id="2021"/>
            <path class="unit" d="M99.3,178.8 L108.5,192.5 L103.4,195.3 L94.2,181.6 L99.3,178.8 L99.3,178.8 Z M99.3,178.8" id="2022"/>
            <path class="unit" d="M84.6,190.4 L90.1,198.6 L84.7,201.5 L79.3,193.5 L84.6,190.4 L84.6,190.4 Z M84.6,190.4" id="2023"/>
            <path class="unit" d="M93.9,181.7 L103.1,195.4 L96.5,198.9 L87.3,185.2 L93.9,181.7 L93.9,181.7 Z M93.9,181.7" id="2024"/>
            <path class="unit" d="M142.5,183 L145.4,187.3 L129.7,195.8 L126.8,191.5 L142.5,183 L142.5,183 Z M142.5,183" id="2025"/>
            <path class="unit" d="M145.5,187.6 L147.8,191 L132.1,199.5 L129.8,196.1 L145.5,187.6 L145.5,187.6 Z M145.5,187.6" id="2026"/>
            <path class="unit" d="M151.1,195.8 L153.5,199.3 L151.5,205.4 L146.3,204.5 L144.6,204.2 L139.4,203.3 L139.8,202 L151.1,195.8 L151.1,195.8 Z M151.1,195.8" id="2027"/>
            <path class="unit" d="M87.6,206.4 L79.1,193.8 L75.5,196.1 L57.2,192.9 L57.1,192.9 L47.3,222.2 L45.2,228.5 L78.3,234.3 L80.7,227 L87.6,206.4 Z M87.6,206.4" id="2028"/>
            <path class="unit" d="M111.6,123.6 L119,134.5 L115.8,136.2 L108.4,125.2 L111.6,123.6 L111.6,123.6 Z M111.6,123.6" id="2029"/>
            <path class="unit" d="M218.4,57.3 L233,49.4 L202.3,3.8 L157.4,28 L188.1,73.6 L197.6,78.5 L223.4,64.6 L218.4,57.3 L218.4,57.3 Z M218.4,57.3" id="2031"/>
            <path class="unit" d="M177.4,78.2 L179.4,81.1 L173.8,84.1 L171.8,81.2 L177.4,78.2 L177.4,78.2 Z M177.4,78.2" id="2032"/>
            <path class="unit" d="M179.6,81.4 L179.9,81.9 L184.3,83.9 L176.4,88.1 L173.9,84.5 L179.6,81.4 L179.6,81.4 Z M179.6,81.4" id="2034"/>
            <path class="unit" d="M184.6,84 L188,85.5 L178.2,90.8 L176.5,88.3 L184.6,84 L184.6,84 Z M184.6,84" id="2035"/>
            <path class="unit" d="M188.4,85.7 L192.3,87.4 L180.3,93.9 L178.4,91.1 L188.4,85.7 L188.4,85.7 Z M188.4,85.7" id="2036"/>
            <path class="unit" d="M199.6,85.6 L201.3,88.2 L198.1,89.9 L196.4,87.3 L199.6,85.6 L199.6,85.6 Z M199.6,85.6" id="2037"/>
            <path class="unit" d="M192.6,87.6 L194.8,90.9 L182.7,97.4 L180.5,94.1 L192.6,87.6 L192.6,87.6 Z M192.6,87.6" id="2038"/>
            <path class="unit" d="M223,68.5 L230.3,79.3 L206.7,92 L200.6,83 L202.7,79.4 L223,68.5 L223,68.5 Z M223,68.5" id="2039"/>
            <path class="unit" d="M195,91.1 L196.8,93.7 L184.7,100.2 L182.9,97.6 L195,91.1 L195,91.1 Z M195,91.1" id="2040"/>
            <path class="unit" d="M206.1,94.8 L207.8,97.4 L204.6,99.1 L202.9,96.5 L206.1,94.8 L206.1,94.8 Z M206.1,94.8" id="2041"/>
            <path class="unit" d="M230.5,79.6 L235.7,87.3 L212.1,100 L206.9,92.3 L230.5,79.6 L230.5,79.6 Z M230.5,79.6" id="2042"/>
            <path class="unit" d="M196.9,94 L204.2,104.8 L189.9,112.5 L182.6,101.7 L196.9,94 L196.9,94 Z M196.9,94" id="2043"/>
            <path class="unit" d="M189.6,112.7 L189.6,112.7 L189.9,112.5 L189.6,112.7 L189.6,112.7 Z M189.6,112.7" id="2044"/>
            <path class="unit" d="M235.8,87.6 L240.2,94.1 L216.6,106.8 L212.2,100.3 L235.8,87.6 L235.8,87.6 Z M235.8,87.6" id="2045"/>
            <path class="unit" d="M204.4,105.1 L204.7,105.5 L201.3,115.5 L196.9,109 L204.4,105.1 L204.4,105.1 Z M204.4,105.1" id="2046"/>
            <path class="unit" d="M242.6,93.1 L247.3,100 L221.5,114 L216.8,107.1 L242.6,93.1 L242.6,93.1 Z M242.6,93.1" id="2047"/>
            <path class="unit" d="M196.6,109.2 L201.1,115.9 L198,125.2 L189.7,112.9 L196.6,109.2 L196.6,109.2 Z M196.6,109.2" id="2048"/>
            <path class="unit" d="M247.5,100.3 L251,105.5 L225.2,119.4 L221.7,114.2 L247.5,100.3 L247.5,100.3 Z M247.5,100.3" id="2050"/>
            <path class="unit" d="M189.3,112.8 L197.9,125.6 L197.7,126.3 L193,128.9 L184.1,115.7 L189.3,112.8 L189.3,112.8 Z M189.3,112.8" id="2051"/>
            <path class="unit" d="M183.7,115.9 L192.6,129.1 L185.5,133 L176.6,119.8 L183.7,115.9 L183.7,115.9 Z M183.7,115.9" id="2052"/>
            <path class="unit" d="M166.4,105.3 L185.2,133.1 L169.8,141.4 L151,113.6 L166.4,105.3 L166.4,105.3 Z M166.4,105.3" id="2054"/>
            <path class="unit" d="M204.8,139.4 L213.2,151.9 L218.7,148.9 L210.3,136.4 L204.8,139.4 L204.8,139.4 Z M204.8,139.4" id="2057"/>
            <path class="unit" d="M204.5,139.6 L212.9,152 L202.2,157.8 L193.9,145.4 L204.5,139.6 L204.5,139.6 Z M204.5,139.6" id="2059"/>
            <path class="unit" d="M193.6,145.6 L202,158 L196.7,160.9 L188.4,148.6 L193.6,145.6 L193.6,145.6 Z M193.6,145.6" id="2060"/>
            <path class="unit" d="M225.2,174 L227.1,176.9 L220.4,180.5 L218.5,177.6 L225.2,174 L225.2,174 Z M225.2,174" id="2061"/>
            <path class="unit" d="M261.3,100.3 L287.7,139.4 L274.2,146.7 L282.6,159.2 L251.1,176.2 L219.3,129 L221.8,121.6 L261.3,100.3 L261.3,100.3 Z M261.3,100.3" id="2062"/>
            <path class="unit" d="M229.8,180.8 L231.5,183.3 L224.8,186.9 L223.1,184.4 L229.8,180.8 L229.8,180.8 Z M229.8,180.8" id="2063"/>
            <path class="unit" d="M252.7,51.3 L256.4,56.8 L250.9,59.8 L247.2,54.3 L252.7,51.3 L252.7,51.3 Z M252.7,51.3" id="2064"/>
            <path class="unit" d="M246.9,54.4 L250,59 L233.4,68 L230.3,63.4 L246.9,54.4 L246.9,54.4 Z M246.9,54.4" id="2065"/>
            <path class="unit" d="M262.6,170.3 L267.5,177.6 L265,185.2 L256.3,183.7 L251.8,186.1 L239.6,184 L239.2,185.3 L238.1,183.6 L262.6,170.3 L262.6,170.3 Z M262.6,170.3" id="2066"/>
            <path class="unit" d="M264.9,185.5 L261.4,195.8 L249.2,193.7 L251.6,186.5 L256.3,184 L264.9,185.5 L264.9,185.5 Z M264.9,185.5" id="2067"/>
            <path class="unit" d="M259.4,201.9 L256.9,209.5 L244.7,207.4 L247.2,199.8 L259.4,201.9 L259.4,201.9 Z M259.4,201.9" id="2068"/>
            <path class="unit" d="M231.8,202.2 L230.8,205.2 L217,202.7 L218,199.7 L231.8,202.2 L231.8,202.2 Z M231.8,202.2" id="2069"/>
            <path class="unit" d="M181.8,169.2 L184.1,172.6 L164.1,183.3 L161.8,179.9 L181.8,169.2 L181.8,169.2 Z M181.8,169.2" id="2070"/>
            <path class="unit" d="M169.4,158.9 L177.6,171.1 L183.9,167.7 L175.6,155.5 L169.4,158.9 L169.4,158.9 Z M169.4,158.9" id="2071"/>
            <path class="unit" d="M162.4,162.7 L170.6,174.8 L177.3,171.2 L169.1,159 L162.4,162.7 L162.4,162.7 Z M162.4,162.7" id="2072"/>
            <path class="unit" d="M162.1,162.9 L170.3,175 L165,177.9 L156.8,165.8 L162.1,162.9 L162.1,162.9 Z M162.1,162.9" id="2073"/>
            <path class="unit" d="M156.3,166.1 L156.5,166 L164.7,178.1 L161.6,179.7 L155,169.9 L156.3,166.1 L156.3,166.1 Z M156.3,166.1" id="2074"/>
            <path class="unit" d="M174.4,187.9 L184.6,188.8 L184.7,188.7 L181.5,184 L174.4,187.9 L174.4,187.9 Z M174.4,187.9" id="2075"/>
            <path class="unit" d="M195.7,195.8 L192.4,205.9 L200.4,207.3 L203.7,197.2 L195.7,195.8 L195.7,195.8 Z M195.7,195.8" id="2077"/>
            <path class="unit" d="M217.6,199.8 L211.1,198.6 L207.8,208.7 L214.3,209.8 L217.6,199.8 L217.6,199.8 Z M217.6,199.8" id="2078"/>
            <path class="unit" d="M204,197.3 L200.7,207.4 L207.5,208.6 L210.8,198.5 L204,197.3 L204,197.3 Z M204,197.3" id="2079"/>
            <path class="unit" d="M196.9,207 L200.4,207.7 L191.9,233.2 L166.7,228.8 L170.2,218.5 L173,217 L177.4,203.8 L183.1,204.7 L196.9,207 L196.9,207 Z M196.9,207" id="2080"/>
            <path class="unit" d="M178.7,199 L177.3,203.2 L184.1,204.4 L187.4,194.3 L178.7,199 L178.7,199 Z M178.7,199" id="2081"/>
            <path class="unit" d="M174.9,192.3 L177.5,196.2 L173.9,198.2 L171.3,194.3 L174.9,192.3 L174.9,192.3 Z M174.9,192.3" id="2082"/>
            <path class="unit" d="M167.5,245.5 L166.6,248.2 L156.2,246.4 L156.7,244.9 L158.5,243.9 L167.5,245.5 L167.5,245.5 Z M167.5,245.5" id="2083"/>
            <path class="unit" d="M179.6,231.3 L175.5,243.4 L168.5,242.2 L162.4,241.1 L166.5,229 L179.6,231.3 L179.6,231.3 Z M179.6,231.3" id="2084"/>
            <path class="unit" d="M168.5,242.5 L167.6,245.2 L158.9,243.7 L162.3,241.9 L162.5,241.4 L168.5,242.5 L168.5,242.5 Z M168.5,242.5" id="2085"/>
            <path class="unit" d="M150.2,297.1 L147.8,304.4 L140.8,303.2 L138.3,299.6 L139.7,295.3 L150.2,297.1 L150.2,297.1 Z M150.2,297.1" id="2086"/>
            <path class="unit" d="M151.7,292.6 L150.3,296.9 L139.9,295.1 L141.3,290.8 L151.7,292.6 L151.7,292.6 Z M151.7,292.6" id="2087"/>
            <path class="unit" d="M164.4,254.6 L163.5,257.3 L153.1,255.5 L154,252.8 L164.4,254.6 L164.4,254.6 Z M164.4,254.6" id="2088"/>
            <path class="unit" d="M163.4,257.7 L162,261.9 L151.6,260.1 L153,255.9 L163.4,257.7 L163.4,257.7 Z M163.4,257.7" id="2089"/>
            <path class="unit" d="M154.3,285 L153,288.9 L142.6,287.1 L143.9,283.2 L154.3,285 L154.3,285 Z M154.3,285" id="2090"/>
            <path class="unit" d="M155.4,281.6 L154.4,284.6 L144,282.8 L145,279.8 L155.4,281.6 L155.4,281.6 Z M155.4,281.6" id="2091"/>
            <path class="unit" d="M156.8,277.4 L155.5,281.3 L145.1,279.5 L146.4,275.6 L156.8,277.4 L156.8,277.4 Z M156.8,277.4" id="2092"/>
            <path class="unit" d="M159.3,269.8 L156.9,277.1 L146.5,275.3 L148.9,268 L159.3,269.8 L159.3,269.8 Z M159.3,269.8" id="2093"/>
            <path class="unit" d="M160.4,266.5 L159.4,269.5 L149,267.7 L150,264.7 L160.4,266.5 L160.4,266.5 Z M160.4,266.5" id="2094"/>
            <path class="unit" d="M161.9,262.2 L160.6,266.1 L150.2,264.3 L151.5,260.4 L161.9,262.2 L161.9,262.2 Z M161.9,262.2" id="2095"/>
            <path class="unit" d="M152.8,289.2 L151.8,292.2 L141.4,290.4 L142.4,287.4 L152.8,289.2 L152.8,289.2 Z M152.8,289.2" id="2096"/>
            <path class="unit" d="M165.5,251.3 L164.5,254.3 L154.1,252.5 L155.1,249.5 L165.5,251.3 L165.5,251.3 Z M165.5,251.3" id="2097"/>
            <path class="unit" d="M121.9,304.7 L120.9,307.7 L105.3,304.9 L100,304 L101,301 L121.9,304.7 L121.9,304.7 Z M121.9,304.7" id="2098"/>
            <path class="unit" d="M145.1,312.3 L135.6,340.8 L95.6,333.7 L105.1,305.2 L145.1,312.3 L145.1,312.3 Z M145.1,312.3" id="2099"/>
            <path class="unit" d="M132.2,279.3 L127.1,294.4 L128.8,294.7 L126.8,300.8 L100.7,296.2 L107.8,275 L132.2,279.3 L132.2,279.3 Z M132.2,279.3" id="2100"/>
            <path class="unit" d="M142.9,247.3 L140.9,253.4 L127,250.9 L129,244.8 L142.9,247.3 L142.9,247.3 Z M142.9,247.3" id="2101"/>
            <path class="unit" d="M140.8,253.7 L139.4,257.9 L129,256.1 L125.5,255.5 L126.9,251.3 L140.8,253.7 L140.8,253.7 Z M140.8,253.7" id="2102"/>
            <path class="unit" d="M139.3,258.2 L135.9,268.2 L125.5,266.4 L128.8,256.4 L139.3,258.2 L139.3,258.2 Z M139.3,258.2" id="2103"/>
            <path class="unit" d="M135.8,268.6 L134.4,272.9 L124,271 L125.4,266.7 L135.8,268.6 L135.8,268.6 Z M135.8,268.6" id="2104"/>
            <path class="unit" d="M134.3,273.1 L132.3,278.9 L121.9,277.1 L123.9,271.3 L134.3,273.1 L134.3,273.1 Z M134.3,273.1" id="2105"/>
            <path class="unit" d="M139.4,178.5 L142.3,182.8 L126.6,191.3 L123.7,187 L139.4,178.5 L139.4,178.5 Z M139.4,178.5" id="2106"/>
            <path class="unit" d="M153.6,242.8 L152.6,245.8 L149.1,245.2 L150.1,242.2 L153.6,242.8 L153.6,242.8 Z M153.6,242.8" id="2107"/>
            <path class="unit" d="M149.9,210 L153.6,215.5 L143,247 L110,241.2 L120.6,209.6 L134.5,212.1 L136,207.5 L144.7,209 L149.9,210 L149.9,210 Z M149.9,210" id="2108"/>
            <path class="unit" d="M90.1,160.2 L95,167.4 L89.6,170.3 L84.7,163.1 L90.1,160.2 L90.1,160.2 Z M90.1,160.2" id="2109"/>
            <path class="unit" d="M101.2,154.2 L106.1,161.4 L100.9,164.2 L96,157 L101.2,154.2 L101.2,154.2 Z M101.2,154.2" id="2110"/>
            <path class="unit" d="M95.7,157.2 L100.6,164.4 L95.4,167.2 L90.5,160 L95.7,157.2 L95.7,157.2 Z M95.7,157.2" id="2111"/>
            <path class="unit" d="M169.5,141.5 L159.3,126.5 L155.1,128.7 L160.1,136 L153.2,139.7 L158.4,147.5 L169.5,141.5 L169.5,141.5 Z M169.5,141.5" id="2112"/>
            <path class="unit" d="M152.9,139.9 L148.6,142.2 L149.9,144.2 L145.4,146.6 L140.4,139.1 L146,136.1 L139.7,126.6 L139.3,126.1 L135.3,120.2 L122.9,126.8 L127,132.8 L131.3,139.2 L138.1,140.4 L138.2,140.3 L146.2,152.2 L148.8,152.7 L153.8,150 L158.1,147.7 L152.9,139.9 L152.9,139.9 Z M152.9,139.9" id="2113"/>
            <path class="unit" d="M138.1,99.4 L143.6,107.5 L118.9,120.8 L109.4,106.8 L126.8,97.4 L138.1,99.4 L138.1,99.4 Z M138.1,99.4" id="2114"/>
            <path class="unit" d="M141.1,157 L142.8,159.6 L139.6,161.3 L137.9,158.7 L141.1,157 L141.1,157 Z M141.1,157" id="2115"/>
            <path class="unit" d="M182.6,142.1 L184.3,144.7 L181.1,146.4 L179.4,143.8 L182.6,142.1 L182.6,142.1 Z M182.6,142.1" id="2116"/>
            <path class="unit" d="M147.4,170.9 L149.1,173.5 L145.9,175.2 L144.2,172.6 L147.4,170.9 L147.4,170.9 Z M147.4,170.9" id="2117"/>
            <path class="unit" d="M158.2,187.3 L159.9,189.9 L156.7,191.6 L155,189 L158.2,187.3 L158.2,187.3 Z M158.2,187.3" id="2118"/>
            <path class="unit" d="M131.4,114.5 L119,121 L122.7,126.5 L135.1,119.9 L131.4,114.5 L131.4,114.5 Z M131.4,114.5" id="2119"/>
            <path class="unit" d="M159.1,208.7 L158.1,211.7 L154.6,211.1 L155.6,208.1 L159.1,208.7 L159.1,208.7 Z M159.1,208.7" id="2120"/>
            <path class="unit" d="M161.4,202 L160.4,205 L156.9,204.4 L157.9,201.4 L161.4,202 L161.4,202 Z M161.4,202" id="2121"/>
            <path class="unit" d="M160.6,222.3 L159.6,225.3 L156.1,224.7 L157.1,221.7 L160.6,222.3 L160.6,222.3 Z M160.6,222.3" id="2122"/>
            <path class="unit" d="M162.8,215.6 L161.8,218.6 L158.3,218 L159.3,215 L162.8,215.6 L162.8,215.6 Z M162.8,215.6" id="2123"/>
            <path class="unit" d="M204.3,131.1 L206,133.7 L202.8,135.4 L201.1,132.8 L204.3,131.1 L204.3,131.1 Z M204.3,131.1" id="2125"/>
            <path class="unit" d="M205.8,123.3 L207.5,125.9 L204.3,127.6 L202.6,125 L205.8,123.3 L205.8,123.3 Z M205.8,123.3" id="2124"/>
            <path class="unit" d="M166.2,151 L167.9,153.6 L164.7,155.3 L163,152.7 L166.2,151 L166.2,151 Z M166.2,151" id="2126"/>
            <path class="unit" d="M157.3,155.9 L159,158.5 L155.8,160.2 L154.1,157.6 L157.3,155.9 L157.3,155.9 Z M157.3,155.9" id="2127"/>
            <path class="unit" d="M185,188.5 L192.2,184.6 L189,180 L181.8,183.9 L185,188.5 L185,188.5 Z M185,188.5" id="2128"/>
            <path class="unit" d="M184.2,172.9 L164.3,183.6 L166.5,186.9 L186.4,176.2 L184.2,172.9 L184.2,172.9 Z M184.2,172.9" id="2129"/>
            <path class="unit" d="M186.6,176.5 L166.7,187.2 L173.9,187.8 L188.9,179.7 L186.6,176.5 L186.6,176.5 Z M186.6,176.5" id="2130"/>
            <path class="unit" d="M187.7,194.4 L184.4,204.5 L192.1,205.9 L195.4,195.8 L187.7,194.4 L187.7,194.4 Z M187.7,194.4" id="2131"/>
            <path class="unit" d="M125,137 L125,137 L126.7,139.6 L123.5,141.3 L121.8,138.7 L125,137 L125,137 Z M125,137" id="2132"/>
            <path class="unit" d="M224.5,145.8 L216.1,133.2 L210.7,136.2 L219.1,148.7 L224.5,145.8 L224.5,145.8 Z M224.5,145.8" id="2133"/>
            <path class="unit" d="M39.9,219.8 L37.4,227.1 L44.9,228.4 L47.4,221.1 L39.9,219.8 Z M39.9,219.8" id="2134"/>
            <path class="unit" d="M47.5,220.8 L56.7,193.2 L47.1,198.3 L40,219.5 L47.5,220.8 Z M47.5,220.8" id="2135"/>
        </g>
    </g>
</svg>