<?xml version="1.0" encoding="utf-8"?>
<!DOCTYPE svg PUBLIC "-//W3C//DTD SVG 1.1//EN" "http://www.w3.org/Graphics/SVG/1.1/DTD/svg11.dtd">
<svg version="1.1" xmlns="http://www.w3.org/2000/svg" xmlns:xlink="http://www.w3.org/1999/xlink" xml:space="preserve">
<g class="level" id="level2">
    <g class="outline">
            <path d="M121.7,61.7 L136.2,18.3 L123.7,16.1 L117.5,34.7 L115,35.8 C113,36.7 110,38 106.5,39.6 L105.8,36.9 L97.8,19.9 L49.8,41 L45.9,32.7 L13.4,47.1 L14.4,51 L22.8,68.7 L53.8,54.7 L57.1,61.8 C49.7,65.1 42.8,68.2 37.3,70.7 L36.7,71 C32.6,72.7 29.5,75.8 28.2,79.6 C27.1,82.8 27.5,86.2 29.3,89 C31.9,93.2 36,100.3 38.1,103.9 C34,103.8 25.1,103.5 17.6,103.2 L15.1,103.1 L11.3,114.5 L39.5,115.3 C39.8,115.7 40.1,116.1 40.4,116.5 C39.2,119.3 37.3,123.8 35.7,127.7 L35,129.4 L47.1,131.5 L47.6,130.4 C49.3,126.3 51.6,120.9 52.4,119 C54.2,118.5 55.8,117.7 57.2,116.6 L83.7,121.3 C85.2,121.6 86.8,121.7 88.2,121.7 C92.9,121.7 96.3,120.3 98.2,119.1 C103.8,115.7 105.5,110.5 105.9,108.8 C106.4,107.4 114.9,81.9 116.5,77.3 L116.6,77.2 C118.1,76.6 119.4,75.8 120.5,74.8 L120.6,74.7 L146.1,73.2 L150,61.7 L122.8,63.3 C122.5,62.7 122.1,62.2 121.7,61.7 L121.7,61.7 L121.7,61.7 Z M102.7,80.5 L93.9,106.9 L93.9,107 C93.8,107.6 93,109.4 91.8,110.1 C90.8,110.7 89.1,110.8 87,110.5 L62.3,106.2 L102.7,80.5 L102.7,80.5 Z M109.4,59.4 L109.2,59.5 C105.7,60.7 103.1,63.3 102,66.4 C101.9,66.8 101.8,67.3 101.7,67.9 L91.7,74.3 L91.1,72.2 L84.4,60.3 L86.6,59.2 L87.2,61.5 L90.8,68.2 L109.6,58.9 L109.4,59.4 L109.4,59.4 Z M47.2,109.3 C47.5,108.4 48.6,107.7 49.8,107.7 L50.3,107.7 C50.9,107.8 51.4,108.1 51.6,108.5 C51.8,108.8 51.8,109.2 51.7,109.6 C51.4,110.6 49.9,111.4 48.6,111.2 C48,111.1 47.5,110.8 47.3,110.4 C47.1,110.1 47,109.7 47.2,109.3 L47.2,109.3 L47.2,109.3 Z M41.9,81 L42.2,80.9 L42.9,83.3 L52.2,99.3 L52,99.4 L50.4,99.3 L41,83.7 L40.7,83.1 L40.6,82.9 C40.4,82.7 40.4,82.4 40.5,82.1 C40.6,81.7 40.9,81.4 41.3,81.2 L41.9,81 L41.9,81 Z M110.9,53.8 L108,48.7 L114.2,45.6 L111.1,54.5 L110.9,53.8 L110.9,53.8 Z M114.9,68.5 C114.6,69.5 113.2,70.3 111.8,70.1 C111.2,70 110.7,69.7 110.5,69.3 C110.3,69 110.3,68.6 110.4,68.2 C110.7,67.3 111.8,66.6 113,66.6 L113.5,66.6 C114.1,66.7 114.6,67 114.8,67.4 C115,67.7 115,68.1 114.9,68.5 L114.9,68.5 L114.9,68.5 Z M114.9,68.5" class="outline"/>
            <path d="M152.4,28 L136,25.1 L133.3,33.1 L134.3,37.1 L150.7,40 L153.4,32 L152.4,28 L152.4,28 Z M152.4,28" class="outline"/>
            <path d="M16.2,120.3 L4.7,132.6 L5.7,136.6 L18.6,145.1 L30.2,132.8 L29.2,128.8 L16.2,120.3 L16.2,120.3 Z M16.2,120.3" class="outline"/>
            <path d="M26.3,91.3 L25.3,87.4 L16.6,69.9 L2.2,75.9 L3.2,79.8 L11.9,97.3 L26.3,91.3 L26.3,91.3 Z M26.3,91.3" class="outline"/>
            <path d="M147,58.9 L150.1,49.7 L149.1,45.7 L128.8,42.1 L125.7,51.3 L126.7,55.3 L147,58.9 L147,58.9 Z M147,58.9" class="outline"/>
            <path d="M57.5,124.6 L48,141.5 L49,145.5 L87.3,158.5 L96.8,141.2 L95.8,137.2 L57.5,124.6 L57.5,124.6 Z M57.5,124.6" class="outline"/>
        </g>
        <g class="label">
            <path d="M166.8,105.4 L174.1,111.3 L166.8,117.2 L166.8,105.4 L166.8,105.4 Z M166.8,105.4" class="Shape"/>
            <path d="M133.1,121.9 C133.8,121.9 134.3,122 134.7,122.2 L135,121.3 C134.7,121.2 134.1,120.9 133.1,120.9 C130.6,120.9 128.9,122.6 128.9,125.1 C128.9,127.8 130.6,129.2 132.9,129.2 C133.9,129.2 134.7,129 135,128.8 L134.8,128 C134.4,128.2 133.7,128.3 133.1,128.3 C131.1,128.3 130,127 130,125.1 C130,123.1 131.2,121.9 133.1,121.9 L133.1,121.9 L133.1,121.9 Z M131.4,111.9 C131.4,110.1 130.3,108.9 128.6,108.9 C127,108.9 125.7,110 125.7,112 C125.7,113.8 126.9,115 128.5,115 C129.9,114.9 131.4,114 131.4,111.9 L131.4,111.9 L131.4,111.9 Z M128.5,114.2 C127.5,114.2 126.7,113.2 126.7,112 C126.7,110.9 127.2,109.7 128.5,109.7 C129.7,109.7 130.2,110.9 130.2,111.9 C130.3,113.2 129.5,114.2 128.5,114.2 L128.5,114.2 L128.5,114.2 Z M116,110.2 C114.9,109.8 114.4,109.4 114.4,108.6 C114.4,108 114.8,107.4 115.9,107.4 C116.6,107.4 117.2,107.6 117.4,107.8 L117.7,106.9 C117.3,106.7 116.7,106.5 115.9,106.5 C114.3,106.5 113.3,107.4 113.3,108.7 C113.3,109.8 114.1,110.5 115.4,111 C116.5,111.4 116.9,111.9 116.9,112.6 C116.9,113.4 116.3,114 115.2,114 C114.5,114 113.8,113.8 113.3,113.5 L113,114.4 C113.4,114.7 114.3,114.9 115.1,114.9 C117,114.9 117.9,113.8 117.9,112.6 C118.1,111.4 117.4,110.8 116,110.2 L116,110.2 L116,110.2 Z M152.4,100.4 L153.5,100.4 L153.5,93.2 L156,93.2 L156,92.3 L150,92.3 L150,93.2 L152.5,93.2 L152.4,100.4 L152.4,100.4 Z M122.4,108.9 C122,108.9 121.6,109 121.3,109.2 C121,109.4 120.7,109.6 120.5,109.9 L120.5,109.9 L120.5,106.3 L119.4,106.3 L119.4,114.8 L120.5,114.8 L120.5,111.3 C120.5,111.1 120.5,110.9 120.6,110.8 C120.8,110.2 121.3,109.7 122,109.7 C123,109.7 123.3,110.5 123.3,111.4 L123.3,114.7 L124.4,114.7 L124.4,111.2 C124.4,109.4 123.2,108.9 122.4,108.9 L122.4,108.9 L122.4,108.9 Z M158.3,100.5 C159.7,100.5 161.2,99.6 161.2,97.4 C161.2,95.6 160.1,94.4 158.4,94.4 C156.8,94.4 155.5,95.5 155.5,97.5 C155.5,99.4 156.7,100.5 158.3,100.5 L158.3,100.5 L158.3,100.5 Z M158.4,95.3 C159.6,95.3 160.1,96.5 160.1,97.5 C160.1,98.8 159.3,99.8 158.3,99.8 C157.3,99.8 156.5,98.8 156.5,97.6 C156.6,96.4 157.1,95.3 158.4,95.3 L158.4,95.3 L158.4,95.3 Z M138.2,111.8 C138.2,110 137.1,108.9 135.7,108.9 C134.8,108.9 134.1,109.3 133.6,110 L133.6,110 L133.6,109 L132.7,109 L132.7,110.9 L132.7,117.2 L133.7,117.2 L133.7,114 C134,114.6 134.7,114.9 135.5,114.9 C136.9,114.9 138.2,113.9 138.2,111.8 L138.2,111.8 L138.2,111.8 Z M135.4,114.1 C134.6,114.1 134,113.6 133.8,112.9 L133.8,112.5 L133.8,111.5 C133.8,111.4 133.8,111.2 133.9,111.1 C134.1,110.3 134.8,109.8 135.5,109.8 C136.6,109.8 137.2,110.8 137.2,112 C137.2,113.2 136.5,114.1 135.4,114.1 L135.4,114.1 L135.4,114.1 Z M153.1,114.8 L154.2,114.8 L154.2,111.3 C154.2,109.3 153,108.8 152.1,108.8 C151.1,108.8 150.5,109.3 150.2,109.9 L150.2,109.9 L150.1,108.9 L149.2,108.9 L149.2,110.5 L149.2,114.7 L150.3,114.7 L150.3,111.2 C150.3,111 150.3,110.8 150.4,110.7 C150.6,110.1 151.1,109.6 151.8,109.6 C152.8,109.6 153.1,110.4 153.1,111.3 L153.1,114.8 L153.1,114.8 Z M153.7,124.5 L153.7,124.5 L153.6,123.4 L152.7,123.4 L152.7,125.2 L152.7,129.2 L153.7,129.2 L153.7,126.1 L153.7,125.6 C153.8,124.8 154.4,124.2 155.1,124.2 L155.5,124.2 L155.5,123.2 L155.2,123.2 C154.6,123.3 154,123.8 153.7,124.5 L153.7,124.5 L153.7,124.5 Z M161.2,126 C161.2,124.9 160.7,123.3 158.8,123.3 C157.1,123.3 156.1,124.7 156.1,126.4 C156.1,128.2 157.2,129.3 159,129.3 C159.9,129.3 160.6,129.1 160.9,128.9 L160.7,128.1 C160.3,128.3 159.8,128.4 159.1,128.4 C158,128.4 157.1,127.8 157.1,126.4 L161.2,126.4 C161.2,126.4 161.2,126.2 161.2,126 L161.2,126 L161.2,126 Z M157.1,125.7 C157.2,125 157.7,124 158.7,124 C159.9,124 160.2,125 160.2,125.7 L157.1,125.7 L157.1,125.7 Z M157.9,116.5 C157.2,116.5 156.6,116.3 156.2,116 L155.9,116.8 C156.4,117.1 157.1,117.3 157.8,117.3 C158.5,117.3 159.3,117.1 159.9,116.6 C160.5,116.1 160.7,115.3 160.7,114 L160.7,110.6 L160.7,109 L159.8,109 L159.8,109.9 C159.5,109.4 159,108.9 158,108.9 C156.7,108.9 155.4,110 155.4,112 C155.4,113.6 156.4,114.8 157.9,114.8 C158.8,114.8 159.4,114.4 159.7,113.8 L159.7,113.8 L159.7,114.4 C159.8,115.9 159,116.5 157.9,116.5 L157.9,116.5 L157.9,116.5 Z M159.7,112.3 C159.7,112.5 159.7,112.7 159.6,112.9 C159.4,113.6 158.8,114 158.1,114 C157,114 156.4,113.1 156.4,111.9 C156.4,110.6 157.1,109.7 158.1,109.7 C158.9,109.7 159.4,110.2 159.6,110.8 C159.6,110.9 159.7,111.1 159.7,111.3 L159.7,112.3 L159.7,112.3 Z M138.4,123.3 C136.7,123.3 135.7,124.7 135.7,126.4 C135.7,128.2 136.8,129.3 138.6,129.3 C139.5,129.3 140.2,129.1 140.5,128.9 L140.3,128.1 C139.9,128.3 139.4,128.4 138.7,128.4 C137.6,128.4 136.7,127.8 136.7,126.4 L140.8,126.4 L140.8,125.9 C140.8,124.9 140.3,123.3 138.4,123.3 L138.4,123.3 L138.4,123.3 Z M136.7,125.7 C136.8,125 137.3,124 138.3,124 C139.5,124 139.8,125 139.8,125.7 L136.7,125.7 L136.7,125.7 Z M150,121.7 L149,122 L149,123.4 L148.1,123.4 L148.1,124.2 L149,124.2 L149,127.4 C149,128.1 149.1,128.6 149.4,128.9 C149.7,129.2 150,129.3 150.5,129.3 C150.9,129.3 151.2,129.2 151.4,129.2 L151.4,128.4 C151.3,128.4 151.1,128.5 150.8,128.5 C150.2,128.5 150,128.1 150,127.4 L150,124.3 L151.5,124.3 L151.5,123.5 L150,123.5 L150,121.7 L150,121.7 Z M145,123.3 C144,123.3 143.4,123.8 143.1,124.4 L143.1,124.4 L143,123.4 L142.1,123.4 L142.1,125 L142.1,129.2 L143.2,129.2 L143.2,125.7 C143.2,125.5 143.2,125.3 143.3,125.2 C143.5,124.6 144,124.1 144.7,124.1 C145.7,124.1 146,124.9 146,125.8 L146,129.1 L147.1,129.1 L147.1,125.6 C147.1,123.8 145.8,123.3 145,123.3 L145,123.3 L145,123.3 Z M146.9,106.7 C146.5,106.7 146.2,107 146.2,107.4 C146.2,107.8 146.5,108 146.8,108 C147.2,108 147.5,107.7 147.5,107.4 C147.5,107 147.3,106.7 146.9,106.7 L146.9,106.7 L146.9,106.7 Z M145,111.8 C145,110 143.9,108.9 142.5,108.9 C141.6,108.9 140.9,109.3 140.4,110 L140.4,110 L140.4,109 L139.5,109 L139.5,110.9 L139.5,117.2 L140.5,117.2 L140.5,114 C140.8,114.6 141.5,114.9 142.3,114.9 C143.8,114.9 145,113.9 145,111.8 L145,111.8 L145,111.8 Z M140.6,112.9 L140.6,112.5 L140.6,111.5 C140.6,111.4 140.6,111.2 140.7,111.1 C140.9,110.3 141.6,109.8 142.3,109.8 C143.4,109.8 144,110.8 144,112 C144,113.3 143.4,114.2 142.2,114.2 C141.5,114.1 140.8,113.6 140.6,112.9 L140.6,112.9 L140.6,112.9 Z M146.4,114.8 L147.5,114.8 L147.5,109 L146.4,109 L146.4,114.8 L146.4,114.8 Z M146.4,114.8" class="Shape"/>
            <path d="M16.3,11.4 L11.5,11.4 L11.5,7.6 L15.4,7.6 C15.8,7.6 16,7.3 16,7 C16,6.7 15.8,6.4 15.4,6.4 L11.5,6.4 L11.5,2.7 L16.1,2.7 C16.5,2.7 16.7,2.4 16.7,2.1 C16.7,1.8 16.5,1.5 16.1,1.5 L11.3,1.5 C10.6,1.5 10.2,1.9 10.2,2.5 L10.2,11.8 C10.2,12.4 10.6,12.8 11.3,12.8 L16.2,12.8 C16.6,12.8 16.8,12.5 16.8,12.2 C16.9,11.7 16.7,11.4 16.3,11.4 L16.3,11.4 L16.3,11.4 Z M6.9,8.5 C6.6,8.1 6.3,7.8 5.9,7.5 C7.3,7 8.3,6 8.3,4.5 C8.3,2.6 7,1.3 4.1,1.3 C3,1.3 2.2,1.4 1.7,1.6 C1.3,1.7 1.2,2 1.2,2.4 L1.2,12.1 C1.2,12.5 1.5,12.7 1.8,12.7 C2.2,12.7 2.4,12.5 2.4,12.1 L2.4,7.9 L3.6,7.9 C4.8,7.9 5.2,8.4 5.8,9.3 C6.2,9.9 6.6,10.9 7.1,12.3 C7.2,12.6 7.4,12.7 7.7,12.7 C8,12.7 8.3,12.5 8.3,12.1 C8.3,12 8.3,11.8 8.2,11.7 C7.9,10.5 7.4,9.3 6.9,8.5 L6.9,8.5 L6.9,8.5 Z M3.9,6.7 L2.4,6.7 L2.4,2.7 C2.9,2.6 3.3,2.5 4,2.5 C6.3,2.5 7,3.4 7,4.6 C7,6.2 5.4,6.7 3.9,6.7 L3.9,6.7 L3.9,6.7 Z M25.6,2.1 C25.6,1.8 25.4,1.5 25,1.5 L18.1,1.5 C17.7,1.5 17.5,1.8 17.5,2.1 C17.5,2.4 17.7,2.7 18.1,2.7 L20.9,2.7 L20.9,12.1 C20.9,12.5 21.2,12.7 21.5,12.7 C21.8,12.7 22.1,12.5 22.1,12.1 L22.1,2.7 L25,2.7 C25.4,2.7 25.6,2.4 25.6,2.1 L25.6,2.1 L25.6,2.1 Z M31.2,2.9 C30.6,1.7 30.1,1.3 29.5,1.3 C28.9,1.3 28.4,1.7 27.8,2.9 C26.9,4.7 26.2,7 25,11.6 L25,12.1 C25,12.5 25.3,12.7 25.6,12.7 C25.9,12.7 26.1,12.5 26.2,12.2 C26.5,10.8 26.8,9.6 27.1,8.5 L32,8.5 C32.3,9.6 32.6,10.8 32.9,12.2 C33,12.5 33.2,12.7 33.5,12.7 C33.9,12.7 34.1,12.5 34.1,12.1 C34.1,12 34.1,11.8 34,11.6 C32.8,7 32.1,4.7 31.2,2.9 L31.2,2.9 L31.2,2.9 Z M27.4,7.4 C28.1,5 28.8,3.4 29.3,2.6 C29.3,2.5 29.4,2.5 29.5,2.5 C29.6,2.5 29.7,2.6 29.7,2.6 C30.2,3.4 30.8,4.9 31.6,7.4 L27.4,7.4 L27.4,7.4 Z M36.4,1.4 C36,1.4 35.8,1.7 35.8,2.1 L35.8,12.1 C35.8,12.5 36.1,12.7 36.4,12.7 C36.8,12.7 37,12.5 37,12.1 L37,2.1 C37,1.7 36.8,1.4 36.4,1.4 L36.4,1.4 L36.4,1.4 Z M74.2,8.5 C73.9,8.1 73.6,7.8 73.2,7.5 C74.6,7 75.6,6 75.6,4.5 C75.6,2.6 74.3,1.3 71.4,1.3 C70.3,1.3 69.5,1.4 69,1.6 C68.6,1.7 68.5,2 68.5,2.4 L68.5,12.1 C68.5,12.5 68.8,12.7 69.1,12.7 C69.5,12.7 69.7,12.5 69.7,12.1 L69.7,7.9 L71,7.9 C72.2,7.9 72.6,8.4 73.2,9.3 C73.6,9.9 74,10.9 74.5,12.3 C74.6,12.6 74.8,12.7 75.1,12.7 C75.4,12.7 75.7,12.5 75.7,12.1 C75.7,12 75.7,11.8 75.6,11.7 C75.3,10.5 74.7,9.3 74.2,8.5 L74.2,8.5 L74.2,8.5 Z M71.2,6.7 L69.8,6.7 L69.8,2.7 C70.2,2.6 70.7,2.6 71.4,2.6 C73.7,2.6 74.4,3.5 74.4,4.7 C74.4,6.2 72.8,6.7 71.2,6.7 L71.2,6.7 L71.2,6.7 Z M44.9,11.5 L40.6,11.5 L40.6,2.1 C40.6,1.7 40.3,1.4 40,1.4 C39.6,1.4 39.4,1.7 39.4,2.1 L39.4,11.7 C39.4,12.3 39.8,12.7 40.5,12.7 L45,12.7 C45.4,12.7 45.7,12.4 45.7,12.1 C45.5,11.7 45.3,11.5 44.9,11.5 L44.9,11.5 L44.9,11.5 Z M85,11.6 C84.2,9.9 83.6,8.8 82.8,7.9 C82.3,7.4 82,7.1 81.6,6.9 C82.1,6.6 82.5,6.1 83.2,5.1 L85,2.4 C85,2.3 85.1,2.1 85.1,2 C85.1,1.7 84.8,1.4 84.5,1.4 C84.3,1.4 84.1,1.5 83.9,1.8 L82,4.6 C81,6 80.4,6.4 79.3,6.4 L78.9,6.4 L78.9,2 C78.9,1.6 78.6,1.4 78.3,1.4 C77.9,1.4 77.7,1.7 77.7,2 L77.7,12.1 C77.7,12.5 78,12.7 78.3,12.7 C78.7,12.7 78.9,12.4 78.9,12.1 L78.9,7.6 L79.7,7.6 C80.7,7.6 81.2,8 81.8,8.6 C82.4,9.2 83,10.3 84,12.3 C84.1,12.6 84.3,12.7 84.6,12.7 C84.9,12.7 85.2,12.4 85.2,12 C85.2,11.9 85.1,11.8 85,11.6 L85,11.6 L85,11.6 Z M53.3,1.3 C52.3,1.3 51.5,1.4 51,1.6 C50.6,1.7 50.5,2 50.5,2.4 L50.5,12.1 C50.5,12.5 50.8,12.7 51.1,12.7 C51.5,12.7 51.7,12.5 51.7,12.1 L51.7,8.5 L53.2,8.5 C56.1,8.5 57.6,7.1 57.6,4.8 C57.6,2.8 56.3,1.3 53.3,1.3 L53.3,1.3 L53.3,1.3 Z M53.1,7.3 L51.7,7.3 L51.7,2.6 C52.1,2.5 52.7,2.5 53.2,2.5 C55.5,2.5 56.3,3.6 56.3,4.9 C56.3,6.2 55.6,7.3 53.1,7.3 L53.1,7.3 L53.1,7.3 Z M64,2.9 C63.4,1.7 62.9,1.3 62.3,1.3 C61.7,1.3 61.2,1.7 60.6,2.9 C59.7,4.7 59,7 57.8,11.6 C57.7,11.8 57.7,12 57.7,12.1 C57.7,12.5 58,12.7 58.3,12.7 C58.6,12.7 58.8,12.5 58.9,12.2 C59.2,10.8 59.5,9.6 59.8,8.5 L64.7,8.5 C65,9.6 65.3,10.8 65.6,12.2 C65.7,12.5 65.9,12.7 66.2,12.7 C66.6,12.7 66.8,12.5 66.8,12.1 C66.8,12 66.8,11.8 66.7,11.6 C65.6,7 64.9,4.7 64,2.9 L64,2.9 L64,2.9 Z M60.2,7.4 C60.9,5 61.6,3.4 62.1,2.6 C62.1,2.5 62.2,2.5 62.3,2.5 C62.4,2.5 62.5,2.6 62.5,2.6 C63,3.4 63.6,5 64.4,7.4 L60.2,7.4 L60.2,7.4 Z M60.2,7.4" class="Shape"/>
        </g>
        <g class="background">
            <path d="M121.6,64.1 C121.3,63.6 120.9,63.1 120.5,62.7 L120,62.2 L134.3,19.6 L124.7,17.9 L118.7,35.9 C115.9,37.2 62.9,60.9 38,72.1 L37.3,72.4 C33.7,73.9 30.8,76.6 29.7,80.1 C28.7,83 29.1,85.8 30.7,88.2 C34.1,93.8 40.3,104.5 40.7,105.1 L40.5,105.5 C39.9,105.5 27.6,105.1 17.8,104.7 L16.4,104.7 L13.6,113.1 L40.5,113.9 L40.9,114.5 C41.4,115.2 41.8,115.7 42.3,116.4 L37.2,128.3 L46.3,129.9 C48.4,124.9 51.3,118.1 51.4,117.8 C53.5,117.4 55.3,116.4 56.8,115.1 L84,119.9 C90.5,121 94.9,119.4 97.5,117.9 C102.7,114.8 104.2,109.8 104.5,108.5 C104.6,108.2 114.8,77.9 115.3,76.3 L116.1,76 C117.4,75.5 118.5,74.8 119.5,73.8 L120,73.3 L145,71.8 L147.8,63.3 C134.1,64.1 122.5,64.8 121.9,64.8 L121.6,64.1 L121.6,64.1 Z M53.1,110.2 C52.5,112 50.4,113.1 48.3,112.8 C46.3,112.4 45.1,110.7 45.7,108.9 C46.3,107.1 48.4,106 50.5,106.3 C52.5,106.7 53.7,108.4 53.1,110.2 L53.1,110.2 L53.1,110.2 Z M97.4,101.2 L96.7,103.2 L95.3,107.5 C95.1,108.2 94.2,110.5 92.5,111.5 C91.1,112.3 89.2,112.5 86.7,112.1 L59.4,107.3 L59.2,106.4 L105.5,77 L97.4,101.2 L97.4,101.2 Z M103.5,66.8 C103.4,67.1 103.3,67.5 103.2,68 L103.1,68.7 L52.8,100.6 L52.2,100.9 L50.3,100.8 L49.3,100.7 L39.6,84.2 L39.3,83.6 C38.9,83 38.8,82.3 39,81.5 C39.3,80.7 39.8,80.1 40.6,79.7 L41.2,79.5 L116.8,42.5 L110.5,60.4 L109.7,60.7 C106.7,62 104.4,64.2 103.5,66.8 L103.5,66.8 L103.5,66.8 Z M116.3,69 C115.7,70.8 113.6,71.9 111.5,71.6 C109.5,71.2 108.3,69.5 108.9,67.7 C109.5,65.9 111.6,64.8 113.7,65.1 C115.8,65.5 116.9,67.2 116.3,69 L116.3,69 L116.3,69 Z M116.3,69" class="road"/>
            <path d="M93,80 C92.7,79.6 92.3,79.4 91.9,79.4 L91.7,79.4 C91.2,79.4 90.7,79.5 90.1,79.9 L89.2,80.5 L91.4,83.2 C91.6,83.1 91.9,82.9 92.2,82.7 C92.9,82.3 93.3,81.8 93.4,81.4 C93.5,80.9 93.3,80.5 93,80 L93,80 L93,80 Z M92,82.4 C91.8,82.5 91.7,82.6 91.5,82.7 L89.8,80.6 C89.9,80.5 90.1,80.4 90.3,80.2 C90.8,79.9 91.3,79.8 91.7,79.8 C92,79.9 92.3,80 92.6,80.3 C93.1,81.1 93,81.8 92,82.4 L92,82.4 L92,82.4 Z M69.9,94.9 C69.7,94.9 69.4,94.9 69.2,95 C69.5,94.7 69.5,94.3 69.3,94.1 C69.2,93.9 69,93.8 68.8,93.8 L68.6,93.8 C68.3,93.8 68,93.9 67.5,94.2 C67.2,94.4 66.9,94.6 66.8,94.7 L69,97.4 C69.2,97.3 69.4,97.2 69.7,97 C70.3,96.7 70.6,96.3 70.7,96 C70.8,95.8 70.7,95.5 70.5,95.3 C70.3,95 70.1,94.9 69.9,94.9 L69.9,94.9 L69.9,94.9 Z M67.4,94.6 C67.5,94.5 67.6,94.5 67.8,94.3 C68.1,94.1 68.3,94 68.6,94.1 C68.7,94.1 68.8,94.2 68.9,94.3 C69.1,94.6 69,94.9 68.6,95.2 L68.2,95.4 L67.4,94.6 L67.4,94.6 Z M69.6,96.5 C69.4,96.6 69.3,96.7 69.2,96.7 L68.4,95.7 L68.8,95.5 C69.1,95.3 69.4,95.2 69.7,95.2 C69.8,95.2 70,95.3 70.1,95.4 C70.3,95.9 70,96.2 69.6,96.5 L69.6,96.5 L69.6,96.5 Z M65.7,98.9 L64.9,97.9 L66.2,97.1 L66,96.8 L64.7,97.6 L64,96.7 L65.4,95.8 L65.2,95.5 L63.4,96.6 L65.6,99.3 L67.5,98.1 L67.1,98 L65.7,98.9 L65.7,98.9 Z M62.1,97.5 L63,98.6 L61.4,99.6 L60.5,98.5 L60,98.8 L62.2,101.5 L62.6,101.2 L61.6,99.9 L63.2,98.9 L64.2,100.2 L64.6,99.9 L62.4,97.2 L62.1,97.5 L62.1,97.5 Z M59.9,99.4 L59.7,99.1 L57.2,100.7 L57.4,101 L58.4,100.4 L60.3,102.8 L60.7,102.5 L58.7,100.1 L59.9,99.4 L59.9,99.4 Z M80.9,89.4 L80.1,88.4 L81.4,87.6 L81.2,87.3 L79.9,88.1 L79.2,87.2 L80.6,86.3 L80.4,86 L78.6,87.1 L80.8,89.8 L82.7,88.6 L82.5,88.3 L80.9,89.4 L80.9,89.4 Z M82.9,84.4 L83.4,86.1 C83.5,86.5 83.7,87 83.8,87.4 C83.4,87.1 83.1,86.9 82.6,86.6 L81,85.6 L80.5,85.9 L83.8,87.9 L84.3,87.6 L83.3,84.1 L82.9,84.4 L82.9,84.4 Z M84.3,83.5 L85.4,86.9 L85.8,86.6 L85.5,85.5 L86.7,84.8 L87.7,85.4 L88.2,85.1 L84.9,83.1 L84.3,83.5 L84.3,83.5 Z M86.4,84.6 L85.4,85.2 L85.1,84.2 C85,84 85,83.8 84.9,83.6 L84.9,83.6 C85.1,83.7 85.3,83.9 85.5,84 L86.4,84.6 L86.4,84.6 Z M89.5,82.7 L89.1,82.7 L89.1,82.7 C89.4,82.4 89.5,82 89.2,81.6 C89.1,81.4 88.9,81.3 88.6,81.3 L88.5,81.3 C88.2,81.3 87.8,81.4 87.4,81.7 C87.1,81.9 86.8,82.1 86.6,82.3 L88.8,85 L89.2,84.7 L88.2,83.5 L88.6,83.2 C88.8,83 89,83 89.2,83 C89.4,83 89.5,83.1 89.7,83.2 C90.1,83.5 90.3,83.7 90.4,83.7 L90.8,83.4 C90.6,83.3 90.4,83.1 89.9,82.8 C89.8,82.8 89.7,82.7 89.5,82.7 L89.5,82.7 L89.5,82.7 Z M88.4,82.9 L88,83.2 L87.2,82.2 C87.3,82.1 87.4,82 87.6,81.9 C87.9,81.7 88.2,81.6 88.4,81.7 C88.5,81.7 88.7,81.8 88.8,81.9 C89,82.2 88.9,82.6 88.4,82.9 L88.4,82.9 L88.4,82.9 Z M72.2,91.7 C71.7,91.6 71.2,91.7 70.8,92 C69.9,92.6 69.7,93.5 70.4,94.4 C70.7,94.8 71.1,95 71.6,95.1 C72.1,95.2 72.6,95.1 73,94.8 C73.9,94.3 74.2,93.3 73.4,92.4 C73.1,92 72.7,91.8 72.2,91.7 L72.2,91.7 L72.2,91.7 Z M72.8,94.5 C72.5,94.7 72.2,94.7 71.8,94.7 C71.4,94.6 71.1,94.4 70.8,94.1 C70.3,93.5 70.2,92.7 71,92.3 C71.3,92.1 71.6,92.1 72,92.1 C72.4,92.2 72.8,92.4 73,92.7 C73.5,93.3 73.5,94.1 72.8,94.5 L72.8,94.5 L72.8,94.5 Z M78.5,90.8 L76.5,88.4 L76.1,88.7 L78.3,91.4 L80.2,90.2 L80,89.9 L78.5,90.8 L78.5,90.8 Z M75.4,89.2 L75,89.5 L76.3,91.1 C76.8,91.7 76.7,92.2 76.2,92.5 C76,92.6 75.7,92.7 75.5,92.7 C75.2,92.7 75,92.5 74.7,92.2 L73.4,90.6 L73,90.9 L74.3,92.5 C74.6,92.9 75,93.1 75.3,93.2 C75.7,93.3 76.1,93.2 76.4,92.9 C77.1,92.4 77.4,91.8 76.7,90.9 L75.4,89.2 L75.4,89.2 Z M75.4,89.2" class="white"/>
            <path d="M128.2,29.2 L127.1,28.6 L127.5,27.4 L128.8,27.3 L129,26.8 L124.8,27.3 L124.6,27.8 L128.1,29.6 L128.2,29.2 L128.2,29.2 Z M126.7,28.5 L125.7,28 L125.1,27.7 L125.1,27.7 C125.3,27.7 125.6,27.7 125.9,27.6 L127.1,27.5 L126.7,28.5 L126.7,28.5 Z M127.7,30.7 L124.3,28.8 L124.1,29.3 L125.8,30.2 C126.2,30.4 126.7,30.7 127.1,30.8 C126.6,30.8 126.1,30.9 125.5,30.9 L123.4,31.1 L123.2,31.6 L127.4,31.2 L127.7,30.7 L127.7,30.7 Z M130.3,22.9 C130.5,22.2 130.5,21.7 130.3,21.3 C130.1,20.9 129.6,20.7 129,20.6 C128.4,20.5 127.9,20.6 127.5,20.8 C127.1,21 126.8,21.5 126.6,22.1 C126.5,22.4 126.4,22.8 126.4,23 L130.2,23.7 C130.1,23.4 130.2,23.2 130.3,22.9 L130.3,22.9 L130.3,22.9 Z M129.8,23.2 L126.8,22.7 C126.8,22.6 126.8,22.4 126.9,22.2 C127.2,21.3 127.9,20.9 128.8,21.1 L128.8,21.1 C129.8,21.3 130.3,21.9 130,22.8 C129.9,22.9 129.9,23 129.8,23.2 L129.8,23.2 L129.8,23.2 Z M129.3,25.9 L127.6,25.6 L127.7,25.2 C127.8,24.8 128.1,24.7 128.7,24.7 C129.2,24.7 129.6,24.7 129.7,24.6 L129.8,24.2 C129.6,24.2 129.2,24.3 128.7,24.3 C128.3,24.3 127.9,24.4 127.8,24.6 L127.8,24.6 C127.8,24.2 127.5,23.9 127,23.8 C126.7,23.7 126.4,23.8 126.2,23.9 C125.9,24.1 125.7,24.4 125.6,24.8 C125.5,25.1 125.4,25.4 125.4,25.6 L129.2,26.3 L129.3,25.9 L129.3,25.9 Z M127.4,25.1 L127.3,25.5 L125.9,25.3 C125.9,25.2 125.9,25.1 126,24.9 C126.2,24.4 126.5,24.2 127,24.3 C127.4,24.3 127.5,24.6 127.4,25.1 L127.4,25.1 L127.4,25.1 Z M127.1,32.5 L126.7,32.4 L126.2,33.9 L124.8,33.6 L125.2,32.3 L124.8,32.2 L124.4,33.5 L123.2,33.3 L123.7,31.9 L123.3,31.8 L122.7,33.6 L126.5,34.3 L127.1,32.5 L127.1,32.5 Z M121.9,47.7 L121.5,47.6 L121,49.1 L119.6,48.8 L120,47.5 L119.6,47.4 L119.2,48.7 L118,48.5 L118.5,47.1 L118.1,47 L117.5,48.8 L121.3,49.5 L121.9,47.7 L121.9,47.7 Z M120.3,52.4 L118.5,52.1 L119,50.5 L120.8,50.8 L120.9,50.4 L117.1,49.7 L117,50.1 L118.6,50.4 L118,52 L116.4,51.7 L116.3,52.1 L120.1,52.8 L120.3,52.4 L120.3,52.4 Z M115.8,55.1 L116.1,54.1 L119.5,54.7 L119.6,54.3 L116.2,53.7 L116.6,52.7 L116.2,52.6 L115.4,55.1 L115.8,55.1 L115.8,55.1 Z M122.7,45.4 C122.9,44.9 122.9,44.5 122.7,44.2 C122.6,44 122.4,43.8 122,43.8 C121.4,43.7 121,44 120.8,44.3 C120.8,43.9 120.5,43.6 120.2,43.6 C119.9,43.5 119.6,43.6 119.4,43.8 C119.1,44 119,44.2 118.8,44.7 C118.7,45 118.6,45.3 118.6,45.5 L122.4,46.2 C122.5,45.9 122.6,45.7 122.7,45.4 L122.7,45.4 L122.7,45.4 Z M120.5,44.8 L120.4,45.2 L119.2,45 C119.2,44.9 119.2,44.8 119.3,44.6 C119.4,44.2 119.7,43.9 120.2,44 C120.5,44.1 120.7,44.4 120.5,44.8 L120.5,44.8 L120.5,44.8 Z M122.2,45.6 L120.7,45.3 L120.8,44.9 C121,44.4 121.3,44.1 121.8,44.2 C122.4,44.3 122.4,44.8 122.3,45.2 C122.3,45.4 122.3,45.5 122.2,45.6 L122.2,45.6 L122.2,45.6 Z M126.3,34.9 L125.9,34.8 L125.4,36.2 L122,35.6 L121.9,36 L125.7,36.7 L126.3,34.9 L126.3,34.9 Z M125,38.8 C125.2,38.1 124.9,37.4 123.8,37.2 L121.6,36.8 L121.5,37.2 L123.8,37.6 C124.6,37.7 124.9,38.1 124.8,38.6 C124.7,39 124.2,39.3 123.3,39.2 L123.3,39.2 L121,38.8 L120.9,39.2 L123.2,39.6 C124.2,39.9 124.8,39.4 125,38.8 L125,38.8 L125,38.8 Z M121.4,43.2 L121.4,43.2 C122.6,43.4 123.6,42.9 123.9,42 C124.2,41.1 123.7,40.3 122.4,40.1 C121.3,39.9 120.3,40.3 119.9,41.3 C119.6,42.2 120.2,43 121.4,43.2 L121.4,43.2 L121.4,43.2 Z M120.3,41.4 C120.5,40.7 121.5,40.5 122.2,40.6 C123.1,40.8 123.7,41.3 123.4,42 C123.2,42.7 122.3,42.9 121.5,42.8 L121.5,42.8 C120.7,42.6 120.1,42.1 120.3,41.4 L120.3,41.4 L120.3,41.4 Z M120.3,41.4" class="white"/>
            <path d="M109.2,87.6 L108.1,87 L108.5,85.8 L109.8,85.7 L110,85.2 L105.8,85.6 L105.6,86.1 L109,88 L109.2,87.6 L109.2,87.6 Z M107.8,86.8 L106.8,86.3 L106.2,86 L106.2,86 L107,86 L108.2,85.9 L107.8,86.8 L107.8,86.8 Z M98.4,108 L98.8,107 L102.2,107.6 L102.4,107.2 L99,106.5 L99.4,105.5 L99,105.4 L98.1,107.9 L98.4,108 L98.4,108 Z M111.7,80.4 L111.3,80.3 L110.8,81.8 L109.4,81.5 L109.9,80.2 L109.5,80.1 L109,81.4 L107.8,81.2 L108.3,79.8 L107.9,79.7 L107.3,81.5 L111.1,82.2 L111.7,80.4 L111.7,80.4 Z M103,105.4 L99.2,104.7 L99,105.1 L102.8,105.8 L103,105.4 L103,105.4 Z M110.5,83.8 L107.1,81.9 L106.9,82.4 L108.6,83.3 C109.1,83.5 109.5,83.8 109.9,84 C109.4,84 108.9,84 108.3,84.1 L106.2,84.3 L106,84.8 L110.2,84.4 L110.5,83.8 L110.5,83.8 Z M105.3,98.8 L104.9,98.7 L104.4,100.2 L103,99.9 L103.5,98.6 L103.1,98.5 L102.6,99.8 L101.4,99.6 L101.9,98.2 L101.5,98.1 L100.9,99.9 L104.7,100.6 L105.3,98.8 L105.3,98.8 Z M103.4,104.3 L101.8,103.9 C101.2,103.8 100.6,103.6 100.1,103.5 L100.1,103.5 C100.6,103.5 101.1,103.5 101.7,103.4 L103.7,103.2 L103.8,102.9 L102.1,102 C101.6,101.7 101.2,101.5 100.8,101.3 L100.8,101.3 C101.3,101.4 101.9,101.5 102.5,101.6 L104.2,101.8 L104.3,101.4 L100.4,100.9 L100.2,101.5 L101.8,102.4 L103,103 L103,103 C102.6,103 102.1,103 101.6,103.1 L99.6,103.3 L99.4,103.9 L103.2,104.9 L103.4,104.3 L103.4,104.3 Z M105.6,92.1 C106.8,92.3 107.7,91.8 108.1,91 L108.2,90.8 C108.5,90.4 108.8,90 109.1,89.6 L108.7,89.4 C108.6,89.7 108.3,90 108.1,90.3 L108.1,90.3 C108.1,89.7 107.6,89.2 106.6,89 C105.5,88.8 104.4,89.2 104.1,90.1 C103.8,91.1 104.4,91.9 105.6,92.1 L105.6,92.1 L105.6,92.1 Z M104.6,90.2 C104.8,89.5 105.7,89.3 106.5,89.4 L106.5,89.4 C107.4,89.6 108,90.1 107.7,90.8 C107.5,91.5 106.6,91.7 105.8,91.6 L105.8,91.6 C104.9,91.5 104.3,91 104.6,90.2 L104.6,90.2 L104.6,90.2 Z M103.8,94.3 C104.3,94.4 104.8,94.1 105.2,93.6 C105.6,93.2 105.8,93 106.2,93.1 C106.6,93.2 106.8,93.5 106.6,93.9 C106.5,94.2 106.3,94.5 106.1,94.6 L106.5,94.8 C106.7,94.6 106.9,94.3 107,94 C107.3,93.2 106.9,92.7 106.3,92.6 C105.7,92.5 105.3,92.7 104.9,93.2 C104.5,93.6 104.3,93.8 103.9,93.7 C103.6,93.6 103.4,93.4 103.5,93 C103.6,92.7 103.8,92.5 103.9,92.4 L103.5,92.2 C103.3,92.3 103.2,92.6 103.1,92.9 C102.9,93.6 103.2,94.1 103.8,94.3 L103.8,94.3 L103.8,94.3 Z M102.6,97.8 C103.1,97.9 103.6,97.6 104,97.1 C104.4,96.7 104.6,96.5 105,96.6 C105.4,96.7 105.6,97 105.4,97.4 C105.3,97.7 105.1,98 104.9,98.1 L105.3,98.3 C105.5,98.1 105.7,97.8 105.8,97.5 C106.1,96.7 105.7,96.2 105.1,96.1 C104.5,96 104.1,96.2 103.7,96.7 C103.3,97.1 103.1,97.3 102.7,97.2 C102.4,97.2 102.2,96.9 102.3,96.5 C102.4,96.2 102.6,96 102.7,95.9 L102.3,95.7 C102.2,95.8 102,96.1 101.9,96.4 C101.7,97.1 102,97.6 102.6,97.8 L102.6,97.8 L102.6,97.8 Z M102.6,97.8" class="white"/>
            <path d="M69.3,112.3 C69.1,112.8 69.4,113.1 70,113.4 C70.5,113.7 70.6,113.9 70.5,114.2 C70.4,114.5 70,114.7 69.5,114.6 C69.2,114.5 68.9,114.4 68.7,114.2 L68.5,114.5 C68.7,114.7 69,114.8 69.4,114.9 C70.3,115.1 70.9,114.7 71.1,114.2 C71.3,113.7 71,113.4 70.5,113 C70,112.7 69.8,112.5 69.9,112.2 C70,112 70.3,111.7 70.8,111.8 C71.2,111.9 71.4,112 71.5,112.1 L71.8,111.8 C71.7,111.7 71.4,111.6 71,111.5 C70.1,111.5 69.5,111.8 69.3,112.3 L69.3,112.3 L69.3,112.3 Z M67.3,111.5 L68.9,111.8 L69,111.4 L66.9,111 L65.8,114.4 L68,114.8 L68.1,114.4 L66.4,114.1 L66.8,112.9 L68.3,113.2 L68.4,112.8 L66.9,112.5 L67.3,111.5 L67.3,111.5 Z M61,110 L59.9,113.4 L60.4,113.5 L61.5,110.1 L61,110 L61,110 Z M65.3,110.7 L64.1,112.2 C63.8,112.6 63.5,112.9 63.3,113.3 L63.3,113.3 L63.3,112.1 L63.2,110.4 L62.6,110.3 L61.2,113.6 L61.7,113.7 L62.3,112.3 C62.5,111.8 62.7,111.2 62.9,110.8 L62.9,112.2 L63,113.9 L63.4,114 L64.6,112.5 C65,112.1 65.3,111.7 65.5,111.3 L65.5,111.3 C65.3,111.7 65.2,112.3 65.1,112.7 L64.7,114.2 L65.2,114.3 L66.1,110.9 L65.3,110.7 L65.3,110.7 Z M60.5,109.9 L57.6,109.4 L57.5,109.8 L58.7,110 L57.7,113 L58.2,113.1 L59.2,110.1 L60.4,110.3 L60.5,109.9 L60.5,109.9 Z M82.7,113.8 L80.3,116.9 L80.8,117 L81.6,116 L83,116.2 L83.1,117.3 L83.6,117.4 L83.4,113.8 L82.7,113.8 L82.7,113.8 Z M81.8,115.7 L82.5,114.8 C82.6,114.6 82.8,114.4 82.9,114.2 L82.9,114.2 L82.9,114.8 L83,115.8 L81.8,115.7 L81.8,115.7 Z M90,115.5 L90.1,115.1 L88,114.7 L86.9,118.1 L89.1,118.5 L89.2,118.1 L87.5,117.8 L87.9,116.6 L89.4,116.9 L89.5,116.5 L88,116.2 L88.4,115.1 L90,115.5 L90,115.5 Z M74.8,112.7 C75.2,112.8 75.4,112.9 75.5,113 L75.8,112.7 C75.7,112.6 75.4,112.5 75,112.4 C74.3,112.3 73.6,112.6 73.5,113.1 C73.3,113.6 73.6,113.9 74.2,114.2 C74.7,114.5 74.8,114.7 74.7,115 C74.6,115.3 74.2,115.5 73.7,115.4 C73.4,115.3 73.1,115.2 72.9,115 L72.7,115.3 C72.9,115.5 73.2,115.6 73.6,115.7 C74.5,115.9 75.1,115.5 75.3,115 C75.5,114.5 75.2,114.2 74.7,113.8 C74.2,113.5 74,113.3 74.1,113 C73.9,112.9 74.2,112.6 74.8,112.7 L74.8,112.7 L74.8,112.7 Z M87.1,114.6 L85.9,116.1 L85,117.3 L85,116 L85,114.2 L84.5,114.1 L84.6,117.7 L85.1,117.8 L87.6,114.7 L87.1,114.6 L87.1,114.6 Z M78.1,112.9 C77.1,112.7 76.1,113.3 75.7,114.4 C75.3,115.5 75.9,116.2 76.8,116.4 L77,116.5 C77.4,116.7 77.9,116.9 78.3,117.1 L78.6,116.8 C78.3,116.7 77.9,116.5 77.5,116.4 L77.5,116.4 C78.2,116.3 78.8,115.8 79.1,115 C79.6,114 79.2,113.1 78.1,112.9 L78.1,112.9 L78.1,112.9 Z M78.8,114.9 C78.5,115.7 77.9,116.2 77.1,116.1 C76.3,116 76.1,115.2 76.3,114.5 C76.5,113.8 77.2,113.2 78,113.3 C78.8,113.4 79,114.2 78.8,114.9 L78.8,114.9 L78.8,114.9 Z M78.8,114.9" class="white"/>
            <path d="M69.6,60.2 L71.2,63.2 L71.7,63 L70.1,60 L69.6,60.2 L69.6,60.2 Z M69.4,60.7 L69.2,60.4 L66.5,61.6 L66.7,61.9 L67.8,61.4 L69.3,64.1 L69.8,63.9 L68.3,61.2 L69.4,60.7 L69.4,60.7 Z M65,62.3 L65.4,65.9 L65.9,65.7 L65.8,64.6 L67.1,64 L68,64.8 L68.5,64.6 L65.6,62 L65,62.3 L65,62.3 Z M66.8,63.7 L65.7,64.2 L65.6,63.2 C65.6,63 65.5,62.8 65.5,62.6 L65.5,62.6 C65.7,62.7 65.8,62.9 66,63.1 L66.8,63.7 L66.8,63.7 Z M61.7,65.8 L60.9,65.8 L60.2,65.8 C60,65.8 59.9,65.7 59.8,65.5 C59.7,65.3 59.7,65 60.2,64.7 C60.5,64.5 60.8,64.5 61,64.5 L61,64.1 C60.8,64.1 60.5,64.2 60.1,64.3 C59.4,64.6 59.1,65.2 59.4,65.7 C59.5,65.9 59.8,66.1 60,66.1 L60.8,66.1 L61.4,66.1 C61.6,66.1 61.7,66.2 61.8,66.4 C62,66.7 61.8,67 61.3,67.3 C61,67.5 60.6,67.5 60.3,67.5 L60.4,67.9 C60.7,67.9 61.1,67.8 61.4,67.7 C62.3,67.3 62.5,66.7 62.2,66.3 C62.2,66 62,65.9 61.7,65.8 L61.7,65.8 L61.7,65.8 Z M64.2,63.1 L64,62.8 L61.3,64 L61.5,64.3 L62.6,63.8 L64.1,66.5 L64.6,66.3 L63.1,63.6 L64.2,63.1 L64.2,63.1 Z M73.6,58.7 C73.2,58.6 72.8,58.7 72.4,58.9 C71.4,59.3 71,60.3 71.6,61.2 C71.9,61.7 72.4,62 72.9,62.1 C73.3,62.2 73.7,62.1 74.1,61.9 C75,61.5 75.5,60.6 74.9,59.6 C74.6,59.1 74.1,58.8 73.6,58.7 L73.6,58.7 L73.6,58.7 Z M73.9,61.7 C73.6,61.8 73.4,61.9 73.1,61.8 C72.7,61.7 72.3,61.4 72.1,61 C71.7,60.3 71.8,59.6 72.6,59.2 C72.9,59.1 73.1,59 73.4,59.1 C73.9,59.2 74.2,59.5 74.4,59.9 C74.7,60.6 74.6,61.3 73.9,61.7 L73.9,61.7 L73.9,61.7 Z M89.3,51.2 L89.5,53 C89.6,53.5 89.6,53.9 89.7,54.3 C89.4,54 89.1,53.7 88.7,53.4 L87.3,52.2 L86.8,52.4 L89.6,54.8 L90.1,54.6 L89.7,51 L89.3,51.2 L89.3,51.2 Z M93.7,52.5 L92.1,53.2 L91.5,52.1 L92.9,51.4 L92.7,51.1 L91.3,51.8 L90.8,50.9 L92.3,50.2 L92.1,49.9 L90.1,50.8 L91.8,53.8 L93.8,52.9 L93.7,52.5 L93.7,52.5 Z M85.9,52.7 L87.6,55.7 L88.1,55.5 L86.4,52.5 L85.9,52.7 L85.9,52.7 Z M86.3,55.3 C86.1,55.1 85.9,55 85.7,54.9 L85.4,54.9 C85.7,54.6 85.9,54.2 85.7,53.8 C85.6,53.6 85.4,53.4 85.1,53.4 L85.1,53.4 C84.8,53.3 84.4,53.4 83.9,53.6 C83.6,53.7 83.2,53.9 83,54.1 L84.6,57.1 L85.1,56.9 L84.4,55.6 L84.8,55.4 C85,55.3 85.2,55.3 85.3,55.3 C85.5,55.3 85.6,55.4 85.8,55.6 L86.4,56.2 L87,56 L86.3,55.3 L86.3,55.3 L86.3,55.3 Z M84.7,55 L84.2,55.2 L83.6,54.1 C83.7,54 83.8,54 84,53.9 C84.3,53.8 84.5,53.7 84.7,53.8 C84.9,53.8 85,53.9 85.1,54.1 C85.4,54.4 85.2,54.8 84.7,55 L84.7,55 L84.7,55 Z M77,56.8 L77.7,58 C78,58.5 78.2,58.8 78.4,59.2 C78.1,59 77.7,58.8 77.2,58.5 L75.2,57.5 L74.7,57.7 L76.4,60.7 L76.8,60.5 L76,59.4 C75.7,58.9 75.5,58.5 75.3,58.2 L75.3,58.2 C75.7,58.4 76.1,58.7 76.5,58.9 L78.5,59.9 L79,59.7 L77.3,56.7 L77,56.8 L77,56.8 Z M82,54.9 L82,54.9 C81.5,54.8 81,54.9 80.3,55.2 C79.9,55.4 79.6,55.6 79.3,55.7 L80.9,58.6 C81.1,58.5 81.4,58.4 81.8,58.2 C82.5,57.9 83,57.5 83.2,57 C83.4,56.6 83.3,56.1 83.1,55.6 C82.9,55.3 82.5,55 82,54.9 L82,54.9 L82,54.9 Z M81.8,58 C81.6,58.1 81.4,58.2 81.3,58.2 L80,55.8 C80.1,55.7 80.3,55.6 80.5,55.5 C81,55.3 81.4,55.2 81.7,55.3 C82.1,55.4 82.4,55.6 82.6,56 C83.1,56.8 82.8,57.5 81.8,58 L81.8,58 L81.8,58 Z M81.8,58" class="white"/>
            <path d="M151.2,29.3 L137,26.8 L134.9,33.2 L135.6,35.9 L149.8,38.4 L151.9,32 L151.2,29.3 L151.2,29.3 Z M151.2,29.3" class="wall"/>
            <path d="M106.6,49.1 L87.9,58.2 L88.6,60.8 L91.4,65.9 L110.1,56.6 L109.4,54 L106.6,49.1 L106.6,49.1 Z M106.6,49.1" class="wall"/>
            <path d="M16.5,122.3 L6.3,133 L7,135.7 L18.4,143.1 L28.5,132.3 L27.8,129.6 L16.5,122.3 L16.5,122.3 Z M16.5,122.3" class="wall"/>
            <path d="M24.5,90.4 L23.8,87.7 L15.8,71.7 L3.9,76.7 L4.6,79.4 L12.6,95.4 L24.5,90.4 L24.5,90.4 Z M24.5,90.4" class="wall"/>
            <path d="M129.8,43.8 L127.3,51.4 L128,54.1 L146.1,57.3 L148.6,49.7 L147.9,47 L129.8,43.8 L129.8,43.8 Z M129.8,43.8" class="wall"/>
            <path d="M86.5,66.9 L86.3,66.5 L83,60.8 L64.5,69.8 L64,70 L61.9,71 L51.2,76.2 L49.3,77.2 L43.5,80 L44.2,82.6 L53.3,98.2 L72.2,86.2 L90.2,74.8 L89.5,72.2 L86.5,66.9 L86.5,66.9 Z M86.5,66.9" class="wall"/>
            <path d="M23.5,66.8 L33.9,62 L36.4,60.9 L53.3,53.3 L52.6,50.6 L45.1,34.7 L15.1,48 L15.8,50.7 L23.5,66.8 L23.5,66.8 Z M23.5,66.8" class="wall"/>
            <path d="M58.3,60.9 L83.8,49.5 L87,48 L90.1,46.6 L92.1,45.7 L104.9,40 L104.2,37.3 L96.9,22 L88.7,25.6 L87.7,26.1 L75.2,31.6 L68.5,34.5 L68,34.7 L62.1,37.3 L50.1,42.6 L50.8,45.3 L58.3,60.9 L58.3,60.9 Z M58.3,60.9" class="wall"/>
            <path d="M83,134.6 L82,134.3 L81.5,134.1 L76,132.3 L58.1,126.4 L49.5,141.7 L50.2,144.4 L68.4,150.6 L73.8,152.4 L74.3,152.6 L79.3,154.3 L79.9,154.5 L86.6,156.8 L95.2,141.1 L94.5,138.4 L83,134.6 L83,134.6 Z M83,134.6" class="wall"/>
        </g>
        <g class="ceilings">
            <path class="unit" d="M151.2,29.2 L149.1,35.6 L134.9,33 L137,26.6 L151.2,29.2 L151.2,29.2 Z M151.2,29.2" id="3001"/>
            <path class="unit" d="M88.6,25.5 L96,40.9 L89.3,43.9 L81.9,28.5 L88.6,25.5 L88.6,25.5 Z M88.6,25.5" id="3002"/>
            <path class="unit" d="M96.8,21.9 L104.1,37.3 L96.5,40.7 L89.1,25.3 L96.8,21.9 L96.8,21.9 Z M96.8,21.9" id="3003"/>
            <path class="unit" d="M81.5,28.7 L88.9,44.1 L83,46.8 L75.6,31.3 L81.5,28.7 L81.5,28.7 Z M81.5,28.7" id="3004"/>
            <path class="unit" d="M75.1,31.5 L82.5,47 L75.9,50 L68.4,34.5 L75.1,31.5 L75.1,31.5 Z M75.1,31.5" id="3005"/>
            <path class="unit" d="M68,34.6 L75.5,50.1 L69.6,52.7 L62,37.2 L68,34.6 L68,34.6 Z M68,34.6" id="3006"/>
            <path class="unit" d="M106.6,49.1 L109.5,54.1 L90.8,63.4 L88,58.3 L106.6,49.1 L106.6,49.1 Z M106.6,49.1" id="3007"/>
            <path class="unit" d="M16.5,122.1 L27.9,129.6 L17.8,140.4 L6.4,132.9 L16.5,122.1 L16.5,122.1 Z M16.5,122.1" id="3008"/>
            <path class="unit" d="M16,71.7 L24,87.7 L12.1,92.7 L4.1,76.7 L16,71.7 L16,71.7 Z M16,71.7" id="3009"/>
            <path class="unit" d="M147.9,46.9 L145.4,54.5 L127.3,51.3 L129.8,43.7 L147.9,46.9 L147.9,46.9 Z M147.9,46.9" id="3010"/>
            <path class="unit" d="M64.1,70.1 L71.2,84.1 L65.3,87.8 L57.9,73.2 L64.1,70.1 L64.1,70.1 Z M64.1,70.1" id="3011"/>
            <path class="unit" d="M86.5,66.9 L89.6,72.4 L71.6,83.8 L68.2,77.2 L86.5,66.9 L86.5,66.9 Z M86.5,66.9" id="3012"/>
            <path class="unit" d="M36.4,38.4 L44,54.2 L36,57.8 L28.4,41.9 L36.4,38.4 L36.4,38.4 Z M36.4,38.4" id="3013"/>
            <path class="unit" d="M27.9,42.1 L35.6,58 L27.6,61.6 L19.9,45.6 L27.9,42.1 L27.9,42.1 Z M27.9,42.1" id="3014"/>
            <path class="unit" d="M45,34.6 L52.5,50.3 L44.5,53.9 L36.9,38.1 L45,34.6 L45,34.6 Z M45,34.6" id="3015"/>
            <path class="unit" d="M61.6,37.4 L69,53 L57.5,58.2 L50,42.5 L61.6,37.4 L61.6,37.4 Z M61.6,37.4" id="3016"/>
            <path class="unit" d="M83.1,60.8 L86.4,66.5 L68.1,76.8 L64.6,69.9 L83.1,60.8 L83.1,60.8 Z M83.1,60.8" id="3017"/>
            <path class="unit" d="M48.9,77.5 L56.8,93.1 L52.6,95.7 L43.5,80.1 L48.9,77.5 L48.9,77.5 Z M48.9,77.5" id="3018"/>
            <path class="unit" d="M57.5,73.4 L64.9,88.1 L57.3,92.9 L49.4,77.3 L57.5,73.4 L57.5,73.4 Z M57.5,73.4" id="3019"/>
            <path class="unit" d="M19.4,45.8 L27.1,61.8 L22.7,63.8 L15,47.7 L19.4,45.8 L19.4,45.8 Z M19.4,45.8" id="3020"/>
            <path class="unit" d="M87.7,136.2 L94.6,138.5 L86,154.2 L79.3,151.9 L87.7,136.2 L87.7,136.2 Z M87.7,136.2" id="3021"/>
            <path class="unit" d="M76.4,150.8 L78.9,151.7 L87.2,136 L84.6,135.2 L76.4,150.8 Z M76.4,150.8" id="3022"/>
            <path class="unit" d="M69.8,130.3 L75.6,132.2 L67.3,147.8 L61.5,145.8 L69.8,130.3 L69.8,130.3 Z M69.8,130.3" id="3023"/>
            <path class="unit" d="M58.3,126.5 L64.3,128.5 L56,143.9 L49.6,141.7 L58.3,126.5 L58.3,126.5 Z M58.3,126.5" id="3024"/>
            <path class="unit" d="M64.7,128.6 L69.4,130.1 L61.2,145.6 L56.6,144 L64.7,128.6 L64.7,128.6 Z M64.7,128.6" id="3025"/>
            <path class="unit" d="M76.1,132.4 L81.6,134.2 L73.3,149.8 L67.9,148 L76.1,132.4 L76.1,132.4 Z M76.1,132.4" id="3026"/>
            <path class="unit" d="M84.4,135.1 L82.1,134.3 L73.8,150 L76.1,150.8 L84.4,135.1 Z M84.4,135.1" id="3027"/>
        </g>
    </g>
</svg>