<?xml version="1.0" encoding="utf-8"?>
<!DOCTYPE svg PUBLIC "-//W3C//DTD SVG 1.1//EN" "http://www.w3.org/Graphics/SVG/1.1/DTD/svg11.dtd">
<svg version="1.1" xmlns="http://www.w3.org/2000/svg" xmlns:xlink="http://www.w3.org/1999/xlink" xml:space="preserve">
<g class="level" id="level2">
            <g class="outline">
                <path d="M169.64,48.88 L151.763,45.729 L148.722,54.818 L149.966,59.754 L167.841,62.907 L170.884,53.816 L169.64,48.88 Z M169.64,48.88" class="outline"/>
                <path d="M41.548,87.637 L72.488,73.684 L76.416,81.995 L127.152,59.243 L125.97,54.552 L117.451,36.536 L69.656,57.547 L65.683,49.072 L31.486,64.155 L32.671,68.858 L41.548,87.637 Z M41.548,87.637" class="outline"/>
                <path d="M126.24,64.517 L103.4,75.116 L104.447,79.269 L102.519,75.709 L58.615,96.059 L59.869,101.039 L70.042,119.416 L111.318,94.496 L110.119,89.74 L108.898,87.487 L131.544,76.832 L130.292,71.865 L126.24,64.517 Z M126.24,64.517" class="outline"/>
                <path d="M36.529,134.7 L24.005,147.984 L25.248,152.916 L39.191,162.059 L51.716,148.773 L50.472,143.842 L36.529,134.7 Z M36.529,134.7" class="outline"/>
                <path d="M48.011,107.667 L46.751,102.668 L37.628,84.352 L21.55,91.132 L22.812,96.131 L31.945,114.449 L48.011,107.667 Z M48.011,107.667" class="outline"/>
                <path d="M144.525,62.782 L141.068,73.12 L142.312,78.056 L164.125,81.903 L167.583,71.565 L166.339,66.629 L144.525,62.782 Z M144.525,62.782" class="outline"/>
                <path d="M71.515,131.659 L61.439,149.654 L62.685,154.595 L102.343,168.043 L112.382,149.666 L111.138,144.727 L71.515,131.659 Z M71.515,131.659" class="outline"/>
            </g>
            <g class="label">
                <path d="M62.789,2.152 C62.164,0.903 61.668,0.535 61.107,0.535 C60.546,0.535 60.05,0.903 59.425,2.152 C58.53,3.96 57.841,6.234 56.673,10.86 C56.609,11.084 56.577,11.26 56.577,11.372 C56.577,11.757 56.833,11.997 57.184,11.997 C57.471,11.997 57.68,11.82 57.76,11.484 C58.063,10.107 58.367,8.875 58.672,7.819 L63.537,7.819 C63.826,8.875 64.129,10.107 64.449,11.484 C64.529,11.82 64.738,11.997 65.025,11.997 C65.379,11.997 65.632,11.757 65.632,11.372 C65.632,11.261 65.585,11.084 65.536,10.86 C64.406,6.233 63.683,3.96 62.789,2.152 L62.789,2.152 Z M58.996,6.697 C59.73,4.248 60.389,2.728 60.9,1.926 C60.947,1.862 60.996,1.798 61.107,1.798 C61.218,1.798 61.267,1.862 61.316,1.926 C61.828,2.726 62.466,4.246 63.205,6.697 L58.996,6.697 L58.996,6.697 Z M24.437,1.352 C24.437,1.032 24.212,0.744 23.861,0.744 L17.009,0.744 C16.657,0.744 16.417,1.048 16.417,1.352 C16.417,1.656 16.61,1.944 17.009,1.944 L19.763,1.944 L19.763,11.356 C19.763,11.756 20.034,11.997 20.386,11.997 C20.722,11.997 20.995,11.757 20.995,11.356 L20.995,1.943 L23.86,1.943 C24.228,1.943 24.437,1.64 24.437,1.352 L24.437,1.352 Z M15.14,10.715 L10.37,10.715 L10.37,6.858 L14.243,6.858 C14.628,6.858 14.835,6.538 14.835,6.266 C14.835,5.978 14.628,5.69 14.243,5.69 L10.37,5.69 L10.37,1.96 L14.979,1.96 C15.395,1.96 15.62,1.688 15.62,1.384 C15.62,1.048 15.395,0.744 14.979,0.744 L10.194,0.744 C9.505,0.744 9.135,1.112 9.135,1.704 L9.135,10.972 C9.135,11.564 9.504,11.932 10.194,11.932 L15.139,11.932 C15.524,11.932 15.746,11.596 15.746,11.324 C15.75,10.987 15.525,10.715 15.14,10.715 L15.14,10.715 Z M5.716,7.818 C5.427,7.401 5.109,7.082 4.739,6.841 C6.163,6.345 7.091,5.352 7.091,3.832 C7.091,1.895 5.78,0.615 2.882,0.615 C1.778,0.615 1.027,0.727 0.513,0.887 C0.115,1.015 0.001,1.255 0.001,1.655 L0.001,11.355 C0.001,11.755 0.274,11.996 0.626,11.996 C0.978,11.996 1.251,11.756 1.251,11.355 L1.251,7.177 L2.499,7.177 C3.667,7.177 4.132,7.657 4.708,8.585 C5.108,9.226 5.524,10.154 6.02,11.547 C6.116,11.803 6.291,11.995 6.627,11.995 C6.963,11.995 7.252,11.755 7.252,11.37 C7.252,11.259 7.221,11.099 7.156,10.938 C6.724,9.787 6.212,8.586 5.716,7.818 L5.716,7.818 Z M2.691,5.961 L1.252,5.961 L1.252,1.928 C1.699,1.865 2.131,1.8 2.82,1.8 C5.109,1.8 5.83,2.696 5.83,3.881 C5.828,5.529 4.277,6.009 2.691,5.961 L2.691,5.961 Z M83.876,10.907 C83.026,9.162 82.435,8.057 81.634,7.178 C81.155,6.65 80.802,6.394 80.386,6.154 C80.851,5.818 81.282,5.37 81.97,4.361 L83.763,1.672 C83.843,1.544 83.892,1.416 83.892,1.256 C83.892,0.952 83.636,0.68 83.285,0.68 C83.045,0.68 82.869,0.808 82.676,1.08 L80.772,3.929 C79.877,5.274 79.206,5.69 78.131,5.69 L77.733,5.69 L77.733,1.287 C77.733,0.919 77.475,0.679 77.124,0.679 C76.757,0.679 76.501,0.951 76.501,1.287 L76.501,11.388 C76.501,11.756 76.757,11.996 77.124,11.996 C77.493,11.996 77.733,11.724 77.733,11.388 L77.733,6.922 L78.516,6.922 C79.524,6.905 80.02,7.306 80.614,7.899 C81.237,8.523 81.844,9.563 82.774,11.58 C82.885,11.837 83.079,12.013 83.415,11.997 C83.751,11.98 84.022,11.725 84.007,11.341 C83.988,11.228 83.957,11.067 83.876,10.907 L83.876,10.907 Z M52.097,0.615 C51.089,0.615 50.337,0.727 49.826,0.887 C49.426,1.015 49.314,1.255 49.314,1.655 L49.314,11.355 C49.314,11.755 49.57,11.996 49.921,11.996 C50.275,11.996 50.546,11.756 50.546,11.355 L50.546,7.738 C51.073,7.769 51.378,7.786 52.019,7.786 C54.9,7.786 56.419,6.393 56.419,4.12 C56.419,2.104 55.091,0.615 52.097,0.615 L52.097,0.615 Z M51.955,6.617 C51.363,6.617 51.074,6.617 50.547,6.586 L50.547,1.912 C50.996,1.848 51.539,1.784 52.068,1.784 C54.339,1.784 55.158,2.872 55.158,4.153 C55.156,5.465 54.453,6.617 51.955,6.617 L51.955,6.617 Z M73.076,7.818 C72.789,7.401 72.469,7.082 72.099,6.841 C73.525,6.345 74.453,5.352 74.453,3.832 C74.453,1.895 73.141,0.615 70.244,0.615 C69.139,0.615 68.387,0.727 67.875,0.887 C67.475,1.015 67.363,1.255 67.363,1.655 L67.363,11.355 C67.363,11.755 67.633,11.996 67.986,11.996 C68.338,11.996 68.611,11.756 68.611,11.355 L68.611,7.177 L69.859,7.177 C71.027,7.177 71.492,7.657 72.068,8.585 C72.466,9.226 72.882,10.154 73.379,11.547 C73.477,11.803 73.652,11.995 73.988,11.995 C74.324,11.995 74.611,11.755 74.611,11.37 C74.611,11.259 74.58,11.099 74.515,10.938 C74.083,9.787 73.572,8.586 73.076,7.818 L73.076,7.818 Z M70.05,5.961 L68.611,5.961 L68.611,1.928 C69.058,1.865 69.49,1.8 70.177,1.8 C72.466,1.8 73.187,2.696 73.187,3.881 C73.187,5.529 71.634,6.009 70.05,5.961 L70.05,5.961 Z M43.716,10.747 L39.409,10.747 L39.409,1.335 C39.409,0.935 39.153,0.679 38.802,0.679 C38.448,0.679 38.177,0.935 38.177,1.335 L38.177,10.971 C38.177,11.563 38.544,11.931 39.234,11.931 L43.716,11.931 C44.114,11.931 44.372,11.659 44.372,11.323 C44.373,11.02 44.132,10.747 43.716,10.747 L43.716,10.747 Z M30.037,2.152 C29.412,0.903 28.916,0.535 28.355,0.535 C27.794,0.535 27.298,0.903 26.673,2.152 C25.778,3.96 25.089,6.234 23.921,10.86 C23.857,11.084 23.825,11.26 23.825,11.372 C23.825,11.757 24.081,11.997 24.432,11.997 C24.719,11.997 24.928,11.82 25.008,11.484 C25.311,10.107 25.615,8.875 25.92,7.819 L30.787,7.819 C31.074,8.875 31.379,10.107 31.699,11.484 C31.779,11.82 31.988,11.997 32.275,11.997 C32.627,11.997 32.882,11.757 32.882,11.372 C32.882,11.261 32.835,11.084 32.786,10.86 C31.654,6.233 30.933,3.96 30.037,2.152 L30.037,2.152 Z M26.244,6.697 C26.978,4.248 27.637,2.728 28.148,1.926 C28.197,1.862 28.244,1.798 28.357,1.798 C28.468,1.798 28.515,1.862 28.564,1.926 C29.076,2.726 29.716,4.246 30.453,6.697 L26.244,6.697 L26.244,6.697 Z M35.234,0.679 C34.882,0.679 34.611,0.935 34.611,1.335 L34.611,11.355 C34.611,11.755 34.867,11.996 35.218,11.996 C35.569,11.996 35.841,11.756 35.841,11.355 L35.841,1.335 C35.841,0.935 35.585,0.679 35.234,0.679 L35.234,0.679 Z M35.234,0.679" class="Shape"/>
                <path d="M177.166,115 L184.5,120.927 L177.166,126.854 L177.166,115 Z M177.166,115" class="Shape"/>
                <path d="M126.339,112.918 C125.224,112.486 124.732,112.114 124.732,111.359 C124.732,110.806 125.152,110.148 126.255,110.148 C126.987,110.148 127.526,110.388 127.79,110.532 L128.077,109.679 C127.718,109.476 127.118,109.283 126.29,109.283 C124.72,109.283 123.677,110.219 123.677,111.477 C123.677,112.617 124.491,113.3 125.812,113.768 C126.904,114.188 127.335,114.621 127.335,115.375 C127.335,116.191 126.71,116.754 125.644,116.754 C124.923,116.754 124.242,116.514 123.773,116.227 L123.509,117.102 C123.941,117.389 124.792,117.618 125.571,117.618 C127.477,117.618 128.401,116.538 128.401,115.291 C128.402,114.105 127.707,113.445 126.339,112.918 L126.339,112.918 Z M117.207,111.562 C115.6,111.562 114.33,112.702 114.33,114.644 C114.33,116.48 115.541,117.63 117.113,117.63 C118.515,117.63 120.002,116.694 120.002,114.548 C120.001,112.773 118.875,111.562 117.207,111.562 L117.207,111.562 Z M117.16,116.84 C116.129,116.84 115.396,115.881 115.396,114.61 C115.396,113.506 115.935,112.356 117.183,112.356 C118.431,112.356 118.921,113.602 118.921,114.585 C118.921,115.893 118.167,116.84 117.16,116.84 L117.16,116.84 Z M148.539,114.514 C148.539,112.751 147.482,111.565 146.08,111.565 C145.133,111.565 144.449,111.983 144.018,112.692 L143.995,112.692 L143.946,111.696 L142.999,111.696 C143.022,112.249 143.048,112.848 143.048,113.592 L143.048,119.876 L144.091,119.876 L144.091,116.722 L144.114,116.722 C144.462,117.298 145.134,117.634 145.901,117.634 C147.265,117.632 148.539,116.602 148.539,114.514 L148.539,114.514 Z M145.718,116.805 C144.964,116.805 144.327,116.301 144.136,115.569 C144.113,115.438 144.087,115.294 144.087,115.137 L144.087,114.141 C144.087,113.997 144.124,113.841 144.159,113.709 C144.364,112.917 145.034,112.402 145.755,112.402 C146.87,112.402 147.482,113.398 147.482,114.56 C147.482,115.893 146.833,116.805 145.718,116.805 L145.718,116.805 Z M114.734,109.417 L108.75,109.417 L108.75,110.305 L111.209,110.305 L111.209,117.5 L112.264,117.5 L112.264,110.305 L114.735,110.305 L114.735,109.417 L114.734,109.417 Z M143.451,124.561 C144.121,124.561 144.685,124.705 145.082,124.895 L145.334,124.044 C145.057,123.9 144.422,123.684 143.414,123.684 C140.908,123.684 139.193,125.399 139.193,127.93 C139.193,130.58 140.908,132.02 143.185,132.02 C144.169,132.02 144.937,131.829 145.322,131.636 L145.105,130.809 C144.685,131.012 144.037,131.145 143.402,131.145 C141.435,131.145 140.297,129.874 140.297,127.895 C140.294,125.771 141.554,124.561 143.451,124.561 L143.451,124.561 Z M141.708,114.55 C141.708,112.776 140.581,111.565 138.915,111.565 C137.308,111.565 136.036,112.704 136.036,114.647 C136.036,116.481 137.247,117.632 138.819,117.632 C140.222,117.632 141.708,116.695 141.708,114.55 L141.708,114.55 Z M138.867,116.84 C137.836,116.84 137.103,115.881 137.103,114.61 C137.103,113.506 137.644,112.356 138.89,112.356 C140.138,112.356 140.63,113.602 140.63,114.585 C140.63,115.893 139.875,116.84 138.867,116.84 L138.867,116.84 Z M132.71,111.562 C132.315,111.562 131.942,111.683 131.63,111.863 C131.306,112.043 131.044,112.306 130.876,112.605 L130.851,112.605 L130.851,108.984 L129.796,108.984 L129.796,117.499 L130.851,117.499 L130.851,113.997 C130.851,113.793 130.865,113.637 130.923,113.493 C131.116,112.917 131.655,112.437 132.339,112.437 C133.335,112.437 133.681,113.23 133.681,114.165 L133.681,117.499 L134.738,117.499 L134.738,114.045 C134.738,112.043 133.49,111.562 132.71,111.562 L132.71,111.562 Z M164.019,127.234 L163.97,127.234 L163.935,126.094 L163.011,126.094 C163.046,126.634 163.06,127.222 163.06,127.906 L163.06,131.9 L164.103,131.9 L164.103,128.806 C164.103,128.625 164.126,128.457 164.152,128.314 C164.297,127.521 164.824,126.959 165.566,126.959 C165.711,126.959 165.818,126.971 165.925,126.995 L165.925,125.999 C165.829,125.975 165.745,125.963 165.626,125.963 C164.917,125.963 164.283,126.455 164.019,127.234 L164.019,127.234 Z M163.394,117.5 L164.451,117.5 L164.451,114.034 C164.451,112.043 163.203,111.564 162.4,111.564 C161.439,111.564 160.767,112.103 160.48,112.655 L160.457,112.655 L160.396,111.695 L159.46,111.695 C159.495,112.174 159.507,112.667 159.507,113.267 L159.507,117.5 L160.564,117.5 L160.564,114.01 C160.564,113.83 160.587,113.65 160.634,113.519 C160.816,112.931 161.355,112.439 162.05,112.439 C163.046,112.439 163.394,113.218 163.394,114.155 L163.394,117.5 L163.394,117.5 Z M171.566,128.698 C171.566,127.631 171.06,125.964 169.168,125.964 C167.477,125.964 166.445,127.343 166.445,129.094 C166.445,130.846 167.511,132.022 169.299,132.022 C170.221,132.022 170.858,131.83 171.229,131.662 L171.049,130.906 C170.654,131.074 170.197,131.206 169.444,131.206 C168.387,131.206 167.475,130.619 167.452,129.19 L171.53,129.19 C171.541,129.082 171.566,128.914 171.566,128.698 L171.566,128.698 Z M167.464,128.434 C167.548,127.704 168.015,126.719 169.083,126.719 C170.269,126.719 170.558,127.762 170.546,128.434 L167.464,128.434 L167.464,128.434 Z M160.359,124.428 L159.328,124.704 L159.328,126.095 L158.428,126.095 L158.428,126.899 L159.328,126.899 L159.328,130.065 C159.328,130.75 159.435,131.264 159.736,131.577 C159.988,131.865 160.382,132.02 160.875,132.02 C161.283,132.02 161.605,131.96 161.811,131.876 L161.762,131.084 C161.631,131.12 161.426,131.156 161.153,131.156 C160.563,131.156 160.36,130.748 160.36,130.029 L160.36,126.898 L161.872,126.898 L161.872,126.095 L160.36,126.095 L160.36,124.428 L160.359,124.428 L160.359,124.428 Z M168.218,119.18 C167.499,119.18 166.9,118.963 166.515,118.723 L166.251,119.528 C166.718,119.84 167.485,120.007 168.183,120.007 C168.913,120.007 169.73,119.839 170.292,119.311 C170.856,118.807 171.12,117.993 171.12,116.662 L171.12,113.292 C171.12,112.584 171.143,112.116 171.169,111.696 L170.245,111.696 L170.196,112.571 L170.173,112.571 C169.921,112.092 169.37,111.565 168.362,111.565 C167.03,111.565 165.747,112.68 165.747,114.647 C165.747,116.253 166.778,117.477 168.218,117.477 C169.118,117.477 169.741,117.045 170.066,116.505 L170.089,116.505 L170.089,117.152 C170.089,118.615 169.298,119.18 168.218,119.18 L168.218,119.18 Z M170.078,115.029 C170.078,115.209 170.055,115.413 169.994,115.592 C169.765,116.263 169.178,116.671 168.531,116.671 C167.39,116.671 166.814,115.724 166.814,114.584 C166.814,113.241 167.535,112.39 168.543,112.39 C169.311,112.39 169.826,112.894 170.018,113.505 C170.067,113.65 170.079,113.806 170.079,113.984 L170.079,115.029 L170.078,115.029 L170.078,115.029 Z M156.701,117.5 L157.756,117.5 L157.756,111.695 L156.701,111.695 L156.701,117.5 L156.701,117.5 Z M155.367,125.963 C154.408,125.963 153.736,126.503 153.447,127.055 L153.424,127.055 L153.363,126.095 L152.427,126.095 C152.462,126.574 152.474,127.067 152.474,127.666 L152.474,131.9 L153.531,131.9 L153.531,128.41 C153.531,128.23 153.554,128.05 153.603,127.918 C153.783,127.331 154.324,126.839 155.017,126.839 C156.013,126.839 156.361,127.618 156.361,128.554 L156.361,131.901 L157.418,131.901 L157.418,128.434 C157.417,126.443 156.169,125.963 155.367,125.963 L155.367,125.963 Z M155.365,114.514 C155.365,112.751 154.308,111.565 152.906,111.565 C151.959,111.565 151.275,111.983 150.844,112.692 L150.821,112.692 L150.772,111.696 L149.827,111.696 C149.85,112.249 149.874,112.848 149.874,113.592 L149.874,119.876 L150.917,119.876 L150.917,116.722 L150.94,116.722 C151.29,117.298 151.961,117.634 152.727,117.634 C154.093,117.632 155.365,116.602 155.365,114.514 L155.365,114.514 Z M150.962,115.568 C150.939,115.437 150.915,115.293 150.915,115.136 L150.915,114.14 C150.915,113.996 150.95,113.84 150.987,113.708 C151.19,112.916 151.862,112.401 152.581,112.401 C153.698,112.401 154.308,113.397 154.308,114.559 C154.308,115.891 153.662,116.803 152.546,116.803 C151.791,116.805 151.156,116.301 150.962,115.568 L150.962,115.568 Z M148.767,125.963 C147.076,125.963 146.044,127.342 146.044,129.093 C146.044,130.844 147.11,132.02 148.898,132.02 C149.822,132.02 150.457,131.829 150.83,131.661 L150.65,130.905 C150.254,131.073 149.796,131.205 149.043,131.205 C147.988,131.205 147.076,130.618 147.051,129.19 L151.129,129.19 C151.141,129.082 151.166,128.914 151.166,128.698 C151.166,127.63 150.662,125.963 148.767,125.963 L148.767,125.963 Z M147.062,128.434 C147.146,127.704 147.615,126.719 148.681,126.719 C149.87,126.719 150.158,127.762 150.144,128.434 L147.062,128.434 L147.062,128.434 Z M157.228,109.404 C156.843,109.404 156.568,109.691 156.568,110.064 C156.568,110.423 156.832,110.711 157.205,110.711 C157.623,110.711 157.889,110.423 157.875,110.064 C157.875,109.691 157.623,109.404 157.228,109.404 L157.228,109.404 Z M157.228,109.404" class="Shape"/>
            </g>
            <g class="background">
                <path d="M167.611,51.061 L153.451,48.564 L151.326,54.917 L151.996,57.574 L166.156,60.071 L168.281,53.718 L167.611,51.061 Z M167.611,51.061" class="wall"/>
                <path d="M71.949,68.226 L64.46,52.343 L34.425,65.59 L35.095,68.247 L42.753,84.35 L53.208,79.632 L55.673,78.523 L72.619,70.882 L71.949,68.226 Z M71.949,68.226" class="wall"/>
                <path d="M77.623,78.713 L103.083,67.295 L106.38,65.819 L109.445,64.436 L111.427,63.55 L124.214,57.82 L123.544,55.163 L116.238,39.802 L108.072,43.396 L107.05,43.85 L94.509,49.355 L87.855,52.281 L87.386,52.491 L81.466,55.088 L69.488,60.352 L70.158,63.009 L77.623,78.713 Z M77.623,78.713" class="wall"/>
                <path d="M125.177,67.766 L106.33,76.512 L107,79.168 L109.691,84.352 L128.617,75.446 L127.949,72.789 L125.177,67.766 Z M125.177,67.766" class="wall"/>
                <path d="M90.171,104.346 L108.441,93.312 L107.771,90.656 L104.771,85.125 L104.566,84.74 L101.437,78.965 L82.757,87.623 L82.287,87.84 L80.138,88.838 L69.378,93.818 L67.416,94.73 L61.544,97.456 L62.212,100.111 L70.972,115.934 L90.171,104.346 Z M90.171,104.346" class="wall"/>
                <path d="M36.912,137.939 L26.763,148.703 L27.433,151.359 L38.81,158.818 L48.957,148.055 L48.287,145.398 L36.912,137.939 Z M36.912,137.939" class="wall"/>
                <path d="M45.062,106.198 L44.394,103.541 L36.437,87.567 L24.5,92.602 L25.169,95.258 L33.134,111.232 L45.062,106.198 Z M45.062,106.198" class="wall"/>
                <path d="M146.212,65.618 L143.669,73.219 L144.339,75.875 L162.437,79.067 L164.98,71.466 L164.312,68.81 L146.212,65.618 Z M146.212,65.618" class="wall"/>
                <path d="M97.478,142.857 L96.48,142.531 L96.025,142.379 L90.562,140.577 L72.689,134.68 L64.105,150.008 L64.777,152.665 L82.958,158.831 L88.396,160.676 L88.853,160.828 L93.822,162.511 L94.464,162.729 L101.158,165 L109.718,149.327 L109.05,146.671 L97.478,142.857 Z M97.478,142.857" class="wall"/>
            </g>
            <g class="ceilings">
                <path class="unit" d="M153.451,48.729 L151.326,55.082 L165.486,57.578 L167.611,51.226 L153.451,48.729 Z M153.451,48.729" id="3001"/>
                <path class="unit" d="M101.949,65.005 L94.509,49.52 L87.855,52.445 L95.312,67.983 L101.949,65.005 Z M101.949,65.005" id="3002"/>
                <path class="unit" d="M94.843,68.193 L87.388,52.648 L81.466,55.252 L88.945,70.841 L94.843,68.193 Z M94.843,68.193" id="3003"/>
                <path class="unit" d="M88.484,71.052 L81,55.455 L69.488,60.517 L76.957,76.214 L88.484,71.052 Z M88.484,71.052" id="3004"/>
                <path class="unit" d="M123.548,55.32 L116.238,39.967 L108.541,43.351 L115.921,58.74 L123.548,55.32 Z M123.548,55.32" id="3005"/>
                <path class="unit" d="M115.46,58.952 L108.074,43.553 L101.367,46.502 L108.775,61.943 L115.46,58.952 Z M115.46,58.952" id="3006"/>
                <path class="unit" d="M108.314,62.155 L100.896,46.712 L94.978,49.309 L102.416,64.803 L108.314,62.155 Z M108.314,62.155" id="3007"/>
                <path class="unit" d="M106.33,76.676 L109.021,81.86 L127.949,72.954 L125.179,67.923 L106.33,76.676 Z M106.33,76.676" id="3008"/>
                <path class="unit" d="M26.767,148.859 L38.142,156.318 L48.291,145.555 L36.912,138.104 L26.767,148.859 Z M26.767,148.859" id="3009"/>
                <path class="unit" d="M44.394,103.706 L36.437,87.732 L24.5,92.766 L32.466,108.732 L44.394,103.706 Z M44.394,103.706" id="3010"/>
                <path class="unit" d="M143.669,73.383 L161.769,76.575 L164.312,68.974 L146.212,65.783 L143.669,73.383 Z M143.669,73.383" id="3011"/>
                <path class="unit" d="M101.437,79.13 L82.757,87.787 L86.095,94.747 L104.566,84.905 L101.437,79.13 Z M101.437,79.13" id="3012"/>
                <path class="unit" d="M107.771,90.82 L104.771,85.29 L86.281,95.145 L89.505,101.846 L107.771,90.82 Z M107.771,90.82" id="3013"/>
                <path class="unit" d="M89.06,102.116 L82.289,87.997 L76.029,90.906 L83.128,105.7 L89.06,102.116 Z M89.06,102.116" id="3014"/>
                <path class="unit" d="M67.416,94.896 L74.962,110.623 L82.687,105.962 L75.57,91.118 L67.416,94.896 Z M67.416,94.896" id="3015"/>
                <path class="unit" d="M74.519,110.893 L66.955,95.107 L61.546,97.611 L70.302,113.441 L74.519,110.893 Z M74.519,110.893" id="3016"/>
                <path class="unit" d="M39.306,63.632 L46.988,79.644 L55.005,76.024 L47.378,60.125 L39.306,63.632 Z M39.306,63.632" id="3017"/>
                <path class="unit" d="M71.949,68.39 L64.484,52.685 L56.326,56.233 L63.898,72.02 L71.949,68.39 Z M71.949,68.39" id="3018"/>
                <path class="unit" d="M55.849,56.434 L47.845,59.922 L55.476,75.814 L63.429,72.23 L55.849,56.434 Z M55.849,56.434" id="3019"/>
                <path class="unit" d="M46.527,79.855 L38.839,63.834 L34.425,65.755 L42.087,81.851 L46.527,79.855 Z M46.527,79.855" id="3020"/>
                <path class="unit" d="M72.689,134.844 L64.105,150.172 L70.464,152.331 L78.693,136.82 L72.689,134.844 Z M72.689,134.844" id="3021"/>
                <path class="unit" d="M79.15,136.973 L70.921,152.482 L75.566,154.053 L83.812,138.507 L79.15,136.973 Z M79.15,136.973" id="3022"/>
                <path class="unit" d="M84.269,138.659 L76.019,154.212 L81.833,156.18 L90.099,140.581 L84.269,138.659 Z M84.269,138.659" id="3023"/>
                <path class="unit" d="M90.566,140.734 L82.292,156.331 L87.73,158.177 L96.027,142.536 L90.566,140.734 Z M90.566,140.734" id="3024"/>
                <path class="unit" d="M96.484,142.688 L88.183,158.336 L93.333,160.074 L101.654,144.391 L96.484,142.688 Z M96.484,142.688" id="3025"/>
                <path class="unit" d="M93.794,160.234 L100.49,162.5 L109.05,146.835 L102.111,144.543 L93.794,160.234 Z M93.794,160.234" id="3026"/>
        </g>
    </g>
</svg>