<?xml version="1.0" encoding="utf-8"?>
<!DOCTYPE svg PUBLIC "-//W3C//DTD SVG 1.1//EN" "http://www.w3.org/Graphics/SVG/1.1/DTD/svg11.dtd">
<svg version="1.1" xmlns="http://www.w3.org/2000/svg" xmlns:xlink="http://www.w3.org/1999/xlink" xml:space="preserve">
<g class="level" id="level0">
    <g class="outline">
            <path d="M265.9,104.3 L278.7,96.9 L252.7,57.4 L258.4,54.6 L241.2,28.6 L246.4,13.1 L238,0.6 L178.7,31 L183.7,38 L167,46.3 L173.3,56.1 L157.8,64 L152.1,56.8 L128.6,70.3 L129.5,72 L107.6,83.6 L100.4,73.3 L31,110.9 L36.5,119.9 L20.6,128.7 L34,147.7 L26.2,151.7 L14.4,186.9 L64.2,195.7 L75.5,162 L105.8,146.1 L116.3,160.8 L113.5,169.3 L98.9,166.7 L87.5,200.7 L100,202.9 L92.2,226.2 L90.5,225.9 L80.6,255.6 L77.1,258.5 L76.9,258.9 C74.6,264.2 67.1,282.1 69.2,287.4 C70.1,289.9 73.6,291.6 80,292.7 C84,293.4 87.6,293.6 87.7,293.6 L88.9,293.7 L89.8,291.1 L99.7,292.9 L98.3,303.9 L121.9,308.1 L120.4,312.6 L223,330.7 L241.2,276.3 L228.7,274.1 L236,252.3 L216.9,248.9 L219.9,239.8 L149.7,227.4 L161.6,191.7 L178.6,194.7 L187.4,168.3 L187.2,167.6 L218.3,173.1 L220.7,165.8 L243.5,169.8 L255.9,132.9 L253.5,129 L273.9,117.5 L265.9,104.3 L265.9,104.3 Z M265.9,104.3" class="outline"/>
        </g>
        <g class="label">
            <path d="M30.4,45.9 C30.1,45.9 29.9,46.2 29.8,46.5 C29.4,49.6 28.8,52.6 28,55.7 L28,55.7 C27.1,52.9 26.4,49.5 25.7,47.2 C25.4,46.2 25.1,45.9 24.6,45.9 C24.2,45.9 23.8,46.2 23.6,47.1 C22.9,49.4 22,53.1 21.2,55.7 L21.2,55.7 C20.4,52.6 20,49.6 19.6,46.5 C19.5,46.1 19.3,45.9 18.9,45.9 C18.5,45.9 18.3,46.2 18.3,46.5 L18.3,46.9 C18.7,50 19.3,53.2 20,55.9 C20.2,56.9 20.6,57.2 21.1,57.2 C21.6,57.2 21.9,56.9 22.2,56.1 C23.1,53.6 23.7,50.9 24.6,47.7 L24.6,47.7 C25.6,50.9 26.1,53.6 26.9,56.1 C27.2,57 27.5,57.2 28,57.2 C28.5,57.2 28.8,56.9 29,56.1 C29.8,53.1 30.4,50 30.9,46.8 L30.9,46.4 C31,46.2 30.8,45.9 30.4,45.9 L30.4,45.9 L30.4,45.9 Z M6.7,56 L2.4,56 L2.4,46.6 C2.4,46.2 2.1,45.9 1.8,45.9 C1.5,45.9 1.2,46.2 1.2,46.6 L1.2,56.2 C1.2,56.8 1.6,57.2 2.3,57.2 L6.8,57.2 C7.2,57.2 7.5,56.9 7.5,56.6 C7.3,56.3 7.1,56 6.7,56 L6.7,56 L6.7,56 Z M38.9,56 L34.1,56 L34.1,52.1 L38,52.1 C38.4,52.1 38.6,51.8 38.6,51.5 C38.6,51.2 38.4,50.9 38,50.9 L34.1,50.9 L34.1,47.2 L38.7,47.2 C39.1,47.2 39.3,46.9 39.3,46.6 C39.3,46.3 39.1,46 38.7,46 L34,46 C33.3,46 32.9,46.4 32.9,47 L32.9,56.3 C32.9,56.9 33.3,57.3 34,57.3 L38.9,57.3 C39.3,57.3 39.5,57 39.5,56.7 C39.5,56.2 39.3,56 38.9,56 L38.9,56 L38.9,56 Z M12.4,45.9 C9.5,45.9 7.7,48.2 7.7,51.8 C7.7,55.2 9.5,57.3 12.4,57.3 C15.3,57.3 17.1,54.9 17.1,51.3 C17.1,48 15.3,45.9 12.4,45.9 L12.4,45.9 L12.4,45.9 Z M12.4,56.1 C10.3,56.1 9,54.4 9,51.8 C9,48.8 10.2,47 12.4,47 C14.6,47 15.8,48.7 15.8,51.2 C15.8,54.2 14.5,56.1 12.4,56.1 L12.4,56.1 L12.4,56.1 Z M90.5,56 L86.2,56 L86.2,46.6 C86.2,46.2 85.9,45.9 85.6,45.9 C85.2,45.9 85,46.2 85,46.6 L85,56.2 C85,56.8 85.4,57.2 86.1,57.2 L90.6,57.2 C91,57.2 91.3,56.9 91.3,56.6 C91.1,56.3 90.9,56 90.5,56 L90.5,56 L90.5,56 Z M82.8,56 L78.5,56 L78.5,46.6 C78.5,46.2 78.2,45.9 77.9,45.9 C77.5,45.9 77.3,46.2 77.3,46.6 L77.3,56.2 C77.3,56.8 77.7,57.2 78.4,57.2 L82.9,57.2 C83.3,57.2 83.6,56.9 83.6,56.6 C83.5,56.3 83.3,56 82.8,56 L82.8,56 L82.8,56 Z M46.9,53.1 C46.6,52.7 46.3,52.4 45.9,52.1 C47.3,51.6 48.3,50.6 48.3,49.1 C48.3,47.2 47,45.9 44.1,45.9 C43,45.9 42.2,46 41.7,46.2 C41.3,46.3 41.2,46.6 41.2,47 L41.2,56.7 C41.2,57.1 41.5,57.3 41.8,57.3 C42.1,57.3 42.4,57.1 42.4,56.7 L42.4,52.5 L43.6,52.5 C44.8,52.5 45.2,53 45.8,53.9 C46.2,54.5 46.6,55.5 47.1,56.9 C47.2,57.2 47.4,57.3 47.7,57.3 C48,57.3 48.3,57.1 48.3,56.7 C48.3,56.6 48.3,56.4 48.2,56.3 C48,55 47.4,53.8 46.9,53.1 L46.9,53.1 L46.9,53.1 Z M43.9,51.2 L42.5,51.2 L42.5,47.2 C42.9,47.1 43.4,47.1 44.1,47.1 C46.4,47.1 47.1,48 47.1,49.2 C47.1,50.8 45.5,51.3 43.9,51.2 L43.9,51.2 L43.9,51.2 Z M72.7,47.4 C72.1,46.2 71.6,45.8 71,45.8 C70.4,45.8 69.9,46.2 69.3,47.4 C68.4,49.2 67.7,51.5 66.5,56.1 C66.4,56.3 66.4,56.5 66.4,56.6 C66.4,57 66.7,57.2 67,57.2 C67.3,57.2 67.5,57 67.6,56.7 C67.9,55.3 68.2,54.1 68.5,53 L73.4,53 C73.7,54.1 74,55.3 74.3,56.7 C74.4,57 74.6,57.2 74.9,57.2 C75.3,57.2 75.5,57 75.5,56.6 C75.5,56.5 75.5,56.3 75.4,56.1 C74.4,51.5 73.6,49.2 72.7,47.4 L72.7,47.4 L72.7,47.4 Z M68.9,51.9 C69.6,49.5 70.3,47.9 70.8,47.1 C70.8,47 70.9,47 71,47 C71.1,47 71.2,47.1 71.2,47.1 C71.7,47.9 72.4,49.4 73.1,51.9 L68.9,51.9 L68.9,51.9 Z M64.2,47.2 C64.1,46.4 63.8,45.9 63.1,45.9 C62.5,45.9 62.2,46.3 62,46.7 C61.2,48.9 60.3,51.7 59.3,54.4 L59.3,54.4 C58.3,51.9 57.5,49.3 56.5,46.9 C56.3,46.3 56,45.9 55.4,45.9 C54.7,45.9 54.4,46.3 54.3,47.2 C53.9,50.1 53.8,53.3 53.8,56.5 C53.8,56.9 54,57.1 54.4,57.1 C54.8,57.1 55,56.9 55,56.4 C55,53.3 55.2,50.3 55.5,47.4 L55.5,47.4 C56.5,50 57.4,52.7 58.5,55.3 C58.6,55.6 58.9,55.9 59.3,55.9 C59.7,55.9 60,55.7 60.1,55.3 C61.1,52.8 62,50.1 62.9,47.4 L62.9,47.4 C63.3,50.4 63.5,53.4 63.6,56.4 C63.6,56.8 63.8,57.1 64.2,57.1 C64.6,57.1 64.8,56.8 64.8,56.4 L64.8,55.9 C64.8,53 64.6,50 64.2,47.2 L64.2,47.2 L64.2,47.2 Z M64.2,47.2" class="Shape"/>
        </g>
        <g class="background">
            <path d="M237.4,2.8 L244.5,13.4 L239.3,28.9 L256,53.9 L250.3,56.7 L276.4,96.3 L263.6,103.7 L271.6,117 L251.2,128.5 L254.1,133.2 L242.5,168 L219.7,164 L217.3,171.3 L184.8,165.6 L185.7,168.3 L177.5,192.9 L160.5,189.9 L147.5,228.7 L217.7,241.1 L214.7,250.2 L233.8,253.6 L226.5,275.4 L239,277.6 L221.9,328.8 L122.6,311.3 L124.1,306.8 L100.1,302.6 L101.5,291.6 L88.7,289.3 L87.8,292 C87.6,292 84.2,291.8 80.3,291.1 C76.1,290.4 71.6,289.1 70.7,286.8 C68.7,281.6 77.9,260.6 78.4,259.5 L81.9,256.6 L91.5,227.8 L93.2,228.1 L102,201.7 L89.5,199.5 L99.8,168.6 L114.4,171.2 L117.9,160.6 L106.3,144 L74.2,160.8 L63.1,193.8 L16.6,185.6 L27.6,152.9 L36.5,148.4 L23,129.3 L38.8,120.5 L33.4,111.5 L99.9,75.4 L107.1,85.7 L131.7,72.7 L130.8,70.9 L151.7,58.9 L157.3,66.1 L175.6,56.7 L169.3,46.9 L186,38.6 L181,31.6 L237.4,2.8 L237.4,2.8 Z M237.4,2.8" class="walkway"/>
            <path d="M149.6,167.6 L153.1,168.2 L154.1,165.2 L153.6,163.3 L149.1,165.7 L149.6,167.6 L149.6,167.6 Z M137.2,140.9 L137.7,142.8 L139.4,145.4 L142.6,143.7 L142.1,141.8 L140.4,139.2 L137.2,140.9 L137.2,140.9 Z M138.9,186.5 L139.4,188.4 L142.9,189 L143.9,186 L143.4,184.1 L139.9,183.5 L138.9,186.5 L138.9,186.5 Z M150.4,157.6 L147.2,159.3 L147.7,161.2 L149.4,163.8 L152.6,162.1 L152.1,160.2 L150.4,157.6 L150.4,157.6 Z M147.1,176.3 L146.6,174.4 L143.1,173.8 L142.1,176.8 L142.6,178.7 L146.1,179.3 L147.1,176.3 L147.1,176.3 Z M168.9,100.2 L168.4,98.3 L166.7,95.7 L163.5,97.4 L164,99.3 L165.7,101.9 L168.9,100.2 L168.9,100.2 Z M158.1,106 L157.6,104.1 L155.9,101.5 L152.7,103.2 L153.2,105.1 L154.9,107.7 L158.1,106 L158.1,106 Z M163.5,103.1 L163,101.2 L161.3,98.6 L158.1,100.3 L158.6,102.2 L160.3,104.8 L163.5,103.1 L163.5,103.1 Z M133.3,215.4 L132.8,213.5 L129.3,212.9 L128.3,215.9 L128.8,217.8 L132.3,218.4 L133.3,215.4 L133.3,215.4 Z M142.2,190.8 L141.7,188.9 L138.2,188.3 L137.2,191.3 L137.7,193.2 L141.2,193.8 L142.2,190.8 L142.2,190.8 Z M209.8,64.4 L210.3,66.3 L212,68.9 L215.2,67.2 L214.7,65.3 L213,62.7 L209.8,64.4 L209.8,64.4 Z M110,88.5 L118,100.4 L124.7,101.6 L133.1,112.3 L181.8,86.2 L184.2,77.4 L190.3,73.8 L192.4,67.5 L196.7,64.8 L205,66.3 L216.1,60.1 L215.6,58.2 L203.9,41.2 L194.6,39.6 L192.6,37.1 L194,32.8 L204,27.1 L209.8,28.1 L229,17.9 L240.6,19.9 L242.6,14 L242.1,12.1 L236.2,4 L186.5,30.5 L187,32.4 L189.6,36.5 L173.1,44.6 L173.6,46.5 L177.3,52 L181.8,49.6 L184.4,53.1 L156.1,68.2 L151.3,61.2 L136,69.6 L136.5,71.5 L136.9,72.4 L109.5,86.5 L110,88.5 L110,88.5 Z M126.4,235.9 L127.4,232.9 L126.9,231 L123.4,230.4 L122.4,233.4 L122.9,235.3 L126.4,235.9 L126.4,235.9 Z M156,131.8 L171.8,123.5 L176.6,130.6 L178.5,130.9 L192,123.6 L192.5,122.1 L213.2,109.7 L212.7,107.8 L197.9,86 L137.8,117.1 L136.5,126.5 L137,128.4 L159.1,163.4 L157.3,168.7 L150.6,172.3 L142,198.1 L142.5,200 L154.7,202.1 L159.8,186.9 L177.2,190 L183.8,170.3 L183.3,168.4 L173.3,153.6 L183.9,147.9 L183.4,146 L169.9,126 L154.1,134.5 L146,122.4 L148.7,121 L156,131.8 L156,131.8 Z M136.1,207.1 L135.6,205.2 L132.1,204.6 L131.1,207.6 L131.6,209.5 L135.1,210.1 L136.1,207.1 L136.1,207.1 Z M139.6,198.7 L140.6,195.7 L140.1,193.8 L136.6,193.2 L135.6,196.2 L136.1,198.1 L139.6,198.7 L139.6,198.7 Z M181.5,93.4 L181,91.5 L179.3,88.9 L176.1,90.6 L176.6,92.5 L178.3,95.1 L181.5,93.4 L181.5,93.4 Z M130.8,222.9 L130.3,221 L126.8,220.4 L125.8,223.4 L126.3,225.3 L129.8,225.9 L130.8,222.9 L130.8,222.9 Z M152.7,108.9 L152.2,107 L150.5,104.4 L147.3,106.1 L147.8,108 L149.5,110.6 L152.7,108.9 L152.7,108.9 Z M201.5,284.1 L197.8,278.6 L195.4,278.2 L196.3,275.5 L195.8,273.6 L192.3,273 L191.3,276 L191.7,277.6 L188.4,277 L189.3,274.3 L188.8,272.4 L185.3,271.8 L184.3,274.8 L184.7,276.4 L180.7,275.7 L181.6,273 L181.1,271.1 L177.6,270.5 L176.6,273.5 L177,275.1 L173,274.4 L173.9,271.7 L173.4,269.8 L169.9,269.2 L168.9,272.2 L169.3,273.8 L165.3,273.1 L166.2,270.4 L165.7,268.5 L162.2,267.9 L161.2,270.9 L161.6,272.5 L158.3,271.9 L159.2,269.2 L158.7,267.3 L155.2,266.7 L154.2,269.7 L154.6,271.3 L142.3,269.1 L143.2,266.4 L142.7,264.5 L139.2,263.9 L138.2,266.9 L138.7,268.8 L140.1,269 L128.5,303.5 L129,305.4 L191.5,316.4 L202,286 L201.5,284.1 L201.5,284.1 Z M200,274.3 L199,277.3 L199.5,279.2 L203,279.8 L204,276.8 L203.5,274.9 L200,274.3 L200,274.3 Z M135.9,269.4 L135.3,267.6 L109.2,263 L102.2,284.1 L102.7,286 L128.8,290.6 L135.9,269.4 L135.9,269.4 Z M202.7,289.5 L206.2,290.1 L207.2,287.1 L206.7,285.2 L203.2,284.6 L202.2,287.6 L202.7,289.5 L202.7,289.5 Z M230.7,152.8 L227.7,161.9 L228.2,163.8 L242.1,166.2 L245.1,157.1 L244.6,155.2 L230.7,152.8 L230.7,152.8 Z M198.7,308.8 L195.2,308.2 L194.2,311.2 L194.7,313.1 L198.2,313.7 L199.2,310.7 L198.7,308.8 L198.7,308.8 Z M267.5,114.3 L260,103.2 L272.9,96.3 L272.4,94.4 L246.4,55.9 L252.6,52.6 L252.1,50.7 L247.2,43.4 L235.3,49.8 L229.1,40.5 L238.1,35.6 L237.6,33.7 L232.7,26.4 L224,24.9 L212.8,30.9 L211.3,35.4 L209.1,36.6 L209.6,38.5 L228.6,64.6 L206.8,76.3 L204.8,82.4 L205.3,84.3 L237.4,131.9 L233.5,134 L234,135.9 L235.2,137.7 L242,134.1 L244.9,138.4 L244.1,138.3 L242.2,135.6 L234,140 L233.4,139.6 L231.3,146.4 L231.8,148.3 L247.4,151.1 L250.7,141.3 L250.5,140.4 L251,140.5 L253,134.5 L252.5,132.6 L248.7,126.9 L268.3,116.3 L267.5,114.3 L267.5,114.3 Z M141.2,171 L140.7,169.1 L140.2,168.4 L142.5,161.6 L142,159.7 L139.1,155.4 L140.3,151.7 L139.8,149.8 L127.5,131.6 L118.8,130.1 L111.4,119.2 L104.4,118 L75.2,133.7 L63.2,147.6 L56.5,151.2 L41,148.2 L29.8,154.3 L20.7,181.6 L21.2,183.5 L62.9,190.8 L72.5,162 L85.2,151.4 L108.5,138.9 L127.8,167 L133.7,168 L132.6,171.2 L118.8,168.8 L117.3,173.2 L101.7,170.4 L93.7,194.4 L94.2,196.3 L108.8,198.9 L98,230.5 L92.8,229.6 L87,247 L87.5,248.9 L98.6,250.9 L96.4,257.5 L96.9,259.4 L110.8,261.9 L141.2,171 L141.2,171 Z M223.7,275.7 L230.5,255.7 L230,253.8 L212,250.6 L214.5,243.3 L214,241.4 L144.8,229.3 L152.5,206.8 L152,204.9 L138.8,202.6 L121.6,254.1 L122.1,256 L126.3,260 L213.8,275.4 L198.7,320.6 L199.2,322.5 L220,326.2 L235.5,279.7 L235,277.8 L223.7,275.7 L223.7,275.7 Z M90.2,260.5 C88.9,260.3 87.5,260.2 86.2,260.5 C84.4,260.9 83,264.6 82.9,264.7 L79.9,273.8 C79.7,273.9 76.5,275.7 77.2,278.5 C77.2,278.5 77.2,278.5 77.2,278.4 C77.4,279 77.5,279.7 77.7,280.3 C77.8,280.7 78,281.2 78.4,281.7 C78.8,282.3 79.5,282.6 80.3,282.7 C81.8,283 83.5,282.6 83.6,282.6 L88.8,283.5 L95.4,263.8 L94.9,261.9 C94.7,262 92.7,261 90.2,260.5 L90.2,260.5 Z M194.7,82.5 L194.2,80.6 L189,79.7 L187,85.8 L187.5,87.7 L194.2,84.1 L194.7,82.5 L194.7,82.5 Z M89.1,119.6 L89.6,121.5 L91.3,124.1 L94.5,122.4 L94,120.5 L92.3,117.9 L89.1,119.6 L89.1,119.6 Z M28.4,128.6 L39.5,145 L100.1,112.3 L103.1,103.2 L109.8,99.6 L109.3,97.7 L97.1,79.5 L38.8,111 L39.3,112.9 L43.1,118.6 L28,126.7 L28.4,128.6 L28.4,128.6 Z M126.7,116.2 L120.9,119.3 L121.4,121.2 L124.6,125.9 L130.4,122.8 L129.9,120.9 L126.7,116.2 L126.7,116.2 Z M79.3,124.9 L79.8,126.8 L81.5,129.4 L84.7,127.7 L84.2,125.8 L82.5,123.2 L79.3,124.9 L79.3,124.9 Z M48.8,146.6 L54.8,147.7 L56.5,142.5 L56,140.6 L48.3,144.7 L48.8,146.6 L48.8,146.6 Z M73.9,127.8 L74.4,129.7 L76.1,132.3 L79.3,130.6 L78.8,128.7 L77.1,126.1 L73.9,127.8 L73.9,127.8 Z M132.5,135.2 L135.7,133.5 L135.2,131.6 L133.5,129 L130.3,130.7 L130.8,132.6 L132.5,135.2 L132.5,135.2 Z M118.7,243.9 L117.7,246.9 L118.2,248.8 L121.7,249.4 L122.7,246.4 L122.2,244.5 L118.7,243.9 L118.7,243.9 Z M118.7,243.9" class="wall"/>
        </g>
        <g class="ceilings">
            <path class="unit" d="M210.6,17.7 L214.5,23.5 L209.7,26.1 L203.9,25.1 L202.1,26.1 L200.2,23.2 L210.6,17.7 L210.6,17.7 Z M210.6,17.7" id="1001"/>
            <path class="unit" d="M199.8,23.5 L201.7,26.4 L196.9,29.2 L194.9,26.2 L199.8,23.5 L199.8,23.5 Z M199.8,23.5" id="1002"/>
            <path class="unit" d="M194.6,26.3 L196.6,29.3 L193.9,30.8 L192.6,34.7 L190,36.1 L186.5,30.5 L194.6,26.3 L194.6,26.3 Z M194.6,26.3" id="1003"/>
            <path class="unit" d="M150.6,104.4 L152.3,107 L149.1,108.7 L147.4,106.1 L150.6,104.4 L150.6,104.4 Z M150.6,104.4" id="1004"/>
            <path class="unit" d="M242,135.5 L243.8,138.2 L249.9,139.3 L246.6,149.2 L231,146.4 L233.3,139.6 L233.6,140.1 L242,135.5 L242,135.5 Z M242,135.5" id="1005"/>
            <path class="unit" d="M247.6,125.7 L252.2,132.5 L250.2,138.6 L245,137.7 L241.3,132.2 L234.6,135.8 L233.4,134 L237.9,131.6 L237.6,131.1 L247.6,125.7 L247.6,125.7 Z M247.6,125.7" id="1006"/>
            <path class="unit" d="M49,105.4 L65,129.1 L39.1,143.1 L28,126.7 L43.7,118.2 L38.8,110.9 L49,105.4 L49,105.4 Z M49,105.4" id="1007"/>
            <path class="unit" d="M124.1,218.7 L122.6,223.2 L101.8,219.5 L103.3,215 L124.1,218.7 L124.1,218.7 Z M124.1,218.7" id="1008"/>
            <path class="unit" d="M125.7,213.8 L124.2,218.4 L103.4,214.7 L104.9,210.1 L125.7,213.8 L125.7,213.8 Z M125.7,213.8" id="1009"/>
            <path class="unit" d="M120.8,228.4 L119.2,233.1 L98.4,229.4 L100,224.7 L120.8,228.4 L120.8,228.4 Z M120.8,228.4" id="1010"/>
            <path class="unit" d="M105,209.9 L125.8,213.6 L127.6,208.3 L106.8,204.5 L105,209.9 L105,209.9 Z M105,209.9" id="1011"/>
            <path class="unit" d="M138.1,176.8 L129.7,202 L108.9,198.3 L109.3,197.1 L93.7,194.3 L101.7,170.3 L138.1,176.8 L138.1,176.8 Z M138.1,176.8" id="1012"/>
            <path class="unit" d="M140.2,168.3 L140.7,169 L139.6,172.2 L132.6,171 L132.7,170.9 L133.9,167.3 L140.2,168.3 L140.2,168.3 Z M140.2,168.3" id="1013"/>
            <path class="unit" d="M135.8,143.7 L138.6,147.8 L121.5,157 L118.7,152.9 L135.8,143.7 L135.8,143.7 Z M135.8,143.7" id="1014"/>
            <path class="unit" d="M138.8,148 L139.9,149.6 L138.4,154.1 L138.5,154.2 L124.9,161.5 L122.9,158.7 L121.8,157.1 L138.8,148 L138.8,148 Z M138.8,148" id="1015"/>
            <path class="unit" d="M138.5,154.5 L140.4,157.4 L126.9,164.7 L124.9,161.9 L138.5,154.5 L138.5,154.5 Z M138.5,154.5" id="1016"/>
            <path class="unit" d="M140.6,157.6 L142,159.6 L139.5,167.2 L140,167.9 L134.1,166.9 L134.3,166.3 L127.4,165.1 L127.3,164.9 L140.6,157.6 L140.6,157.6 Z M140.6,157.6" id="1017"/>
            <path class="unit" d="M192.5,35.1 L192.2,36 L195,39.5 L196.2,39.7 L181.3,47.7 L176.8,50.1 L173.1,44.6 L190,36.3 L190,36.4 L192.5,35.1 L192.5,35.1 Z M192.5,35.1" id="1018"/>
            <path class="unit" d="M204.2,41.2 L204.6,41.8 L184.8,52.5 L181.3,48.2 L196.6,39.9 L204.2,41.2 L204.2,41.2 Z M204.2,41.2" id="1019"/>
            <path class="unit" d="M204.8,42.1 L207.3,45.7 L187.2,56.5 L184.8,53 L185.1,52.8 L185,52.7 L204.8,42.1 L204.8,42.1 Z M204.8,42.1" id="1020"/>
            <path class="unit" d="M207.4,45.9 L211.1,51.3 L198.9,57.9 L195.3,52.5 L207.4,45.9 L207.4,45.9 Z M207.4,45.9" id="1021"/>
            <path class="unit" d="M211.3,51.5 L213.5,54.8 L209.8,56.8 L207.6,53.5 L211.3,51.5 L211.3,51.5 Z M211.3,51.5" id="1022"/>
            <path class="unit" d="M213.7,55.1 L215.9,58.3 L212.2,60.4 L210,57.2 L213.7,55.1 L213.7,55.1 Z M213.7,55.1" id="1023"/>
            <path class="unit" d="M207.3,53.7 L211.9,60.5 L208,62.7 L203.4,55.9 L207.3,53.7 L207.3,53.7 Z M207.3,53.7" id="1024"/>
            <path class="unit" d="M194.9,52.7 L202.6,64.1 L196.4,63 L192.9,65.2 L187.3,56.9 L194.9,52.7 L194.9,52.7 Z M194.9,52.7" id="1025"/>
            <path class="unit" d="M203,56 L207.6,62.8 L204.8,64.4 L203.2,64.1 L199.2,58.1 L203,56 L203,56 Z M203,56" id="1026"/>
            <path class="unit" d="M184.4,53.2 L192.6,65.3 L192.1,65.6 L190,71.9 L188.9,72.6 L178.1,56.6 L184.4,53.2 L184.4,53.2 Z M184.4,53.2" id="1027"/>
            <path class="unit" d="M177.8,56.7 L188.6,72.7 L183.9,75.5 L172.9,59.3 L177.8,56.7 L177.8,56.7 Z M177.8,56.7" id="1028"/>
            <path class="unit" d="M172.6,59.5 L183.7,76 L181.6,83.4 L167.3,62.2 L172.6,59.5 L172.6,59.5 Z M172.6,59.5" id="1029"/>
            <path class="unit" d="M113.8,84.4 L124,99.6 L117.5,98.5 L109.5,86.6 L113.8,84.4 L113.8,84.4 Z M113.8,84.4" id="1030"/>
            <path class="unit" d="M167.1,62.4 L181.6,83.9 L181.5,84.3 L176.7,86.9 L162,65.1 L167.1,62.4 L167.1,62.4 Z M167.1,62.4" id="1031"/>
            <path class="unit" d="M194.2,80.5 L193.7,82 L187,85.6 L189,79.5 L194.2,80.5 L194.2,80.5 Z M194.2,80.5" id="1032"/>
            <path class="unit" d="M161.6,65.3 L176.3,87 L171,89.8 L156.3,68.1 L161.6,65.3 L161.6,65.3 Z M161.6,65.3" id="1033"/>
            <path class="unit" d="M151.3,61.3 L170.7,90 L154.6,98.6 L136.9,72.4 L137.4,72.2 L136.1,69.6 L151.3,61.3 L151.3,61.3 Z M151.3,61.3" id="1034"/>
            <path class="unit" d="M56.8,101.2 L49.4,105.2 L62.3,124.4 L69.6,120.4 L69.7,120.4 L56.8,101.2 L56.8,101.2 Z M56.8,101.2" id="1036"/>
            <path class="unit" d="M154.3,98.8 L136.6,72.6 L114.1,84.3 L125.8,101.7 L132.7,110.4 L154.3,98.8 L154.3,98.8 Z M154.3,98.8" id="1037"/>
            <path class="unit" d="M92.3,117.9 L94,120.5 L90.8,122.2 L89.1,119.6 L92.3,117.9 L92.3,117.9 Z M92.3,117.9" id="1038"/>
            <path class="unit" d="M69.8,120.7 L72.7,125 L65.3,129 L62.4,124.7 L69.8,120.7 L69.8,120.7 Z M69.8,120.7" id="1039"/>
            <path class="unit" d="M82.5,123.2 L84.2,125.8 L81,127.5 L79.3,124.9 L82.5,123.2 L82.5,123.2 Z M82.5,123.2" id="1040"/>
            <path class="unit" d="M77.1,126.1 L78.8,128.7 L75.6,130.4 L73.9,127.8 L77.1,126.1 L77.1,126.1 Z M77.1,126.1" id="1041"/>
            <path class="unit" d="M111.5,118.9 L115.3,124.6 L103.8,130.8 L97.5,121.5 L104.5,117.7 L111.5,118.9 L111.5,118.9 Z M111.5,118.9" id="1042"/>
            <path class="unit" d="M197.9,86 L212.7,107.9 L207.8,110.9 L192.8,88.7 L197.9,86 L197.9,86 Z M197.9,86" id="1043"/>
            <path class="unit" d="M97.2,121.6 L103.5,130.9 L103.7,131.2 L107.7,137.1 L107.1,137.4 L102.4,139.9 L92,124.5 L97.2,121.6 L97.2,121.6 Z M97.2,121.6" id="1044"/>
            <path class="unit" d="M115.5,124.9 L118.9,129.9 L125.7,131.1 L109.9,139.6 L104.1,131.1 L115.5,124.9 L115.5,124.9 Z M115.5,124.9" id="1045"/>
            <path class="unit" d="M91.7,124.6 L102.1,140.1 L97.2,142.8 L86.8,127.3 L91.7,124.6 L91.7,124.6 Z M91.7,124.6" id="1046"/>
            <path class="unit" d="M86.4,127.4 L96.8,142.9 L91.7,145.6 L81.3,130.1 L86.4,127.4 L86.4,127.4 Z M86.4,127.4" id="1047"/>
            <path class="unit" d="M81,130.4 L91.4,145.9 L85.9,148.9 L75.5,133.4 L81,130.4 L81,130.4 Z M81,130.4" id="1048"/>
            <path class="unit" d="M127.5,131.4 L131.5,137.3 L114.4,146.5 L109.9,139.8 L126.1,131.1 L127.5,131.4 L127.5,131.4 Z M127.5,131.4" id="1049"/>
            <path class="unit" d="M74.7,134.2 L85,149.4 L84.7,149.5 L72,160.1 L63.4,147.3 L74.7,134.2 L74.7,134.2 Z M74.7,134.2" id="1050"/>
            <path class="unit" d="M245.8,54.9 L272.4,94.3 L258.9,101.6 L267.5,114.4 L247.3,125.3 L247.4,125.5 L237.3,130.9 L204.6,82.4 L206.6,76.3 L229,64.2 L228.9,64 L245.8,54.9 L245.8,54.9 Z M245.8,54.9" id="1052"/>
            <path class="unit" d="M236.2,4 L242.1,12.1 L240.1,18 L228.5,16 L214.8,23.4 L210.9,17.6 L236.2,4 L236.2,4 Z M236.2,4" id="1053"/>
            <path class="unit" d="M219.9,26.9 L224.3,33.4 L211.7,40.2 L209,36.5 L211.2,35.3 L212.7,30.8 L219.9,26.9 L219.9,26.9 Z M219.9,26.9" id="1054"/>
            <path class="unit" d="M232.6,26.3 L237.5,33.6 L229,38.2 L228.2,38.7 L220.2,26.9 L223.9,24.9 L232.6,26.3 L232.6,26.3 Z M232.6,26.3" id="1055"/>
            <path class="unit" d="M224.4,33.7 L228.7,40 L216.3,46.7 L211.8,40.5 L224.4,33.7 L224.4,33.7 Z M224.4,33.7" id="1056"/>
            <path class="unit" d="M228.9,40.3 L231.7,44.4 L219.5,51 L216.5,47 L228.9,40.3 L228.9,40.3 Z M228.9,40.3" id="1057"/>
            <path class="unit" d="M231.8,44.7 L234.6,48.8 L222.6,55.3 L219.7,51.3 L231.8,44.7 L231.8,44.7 Z M231.8,44.7" id="1058"/>
            <path class="unit" d="M252.1,50.6 L247.1,43.3 L235.9,49.4 L235.5,48.8 L222.8,55.6 L228.8,63.7 L245.7,54.6 L245.4,54.2 L252.1,50.6 L252.1,50.6 Z M252.1,50.6" id="1060"/>
            <path class="unit" d="M244.6,155.2 L241.6,164.3 L227.7,161.9 L230.7,152.8 L244.6,155.2 L244.6,155.2 Z M244.6,155.2" id="1061"/>
            <path class="unit" d="M192.4,88.8 L207.4,111.1 L191.9,120 L176.4,97.1 L192.4,88.8 L192.4,88.8 Z M192.4,88.8" id="1062"/>
            <path class="unit" d="M159.1,185.5 L157.3,190.8 L145.1,188.7 L146.9,183.4 L159.1,185.5 L159.1,185.5 Z M159.1,185.5" id="1063"/>
            <path class="unit" d="M140.4,139.2 L142.1,141.8 L138.9,143.5 L137.2,140.9 L140.4,139.2 L140.4,139.2 Z M140.4,139.2" id="1064"/>
            <path class="unit" d="M143.1,114.4 L146.7,119.8 L144.8,120.8 L144.9,121 L136.6,125.5 L137.8,117.2 L143.1,114.4 L143.1,114.4 Z M143.1,114.4" id="1065"/>
            <path class="unit" d="M166.7,95.7 L168.4,98.3 L165.2,100 L163.5,97.4 L166.7,95.7 L166.7,95.7 Z M166.7,95.7" id="1066"/>
            <path class="unit" d="M161.3,98.6 L163,101.2 L159.8,102.9 L158.1,100.3 L161.3,98.6 L161.3,98.6 Z M161.3,98.6" id="1067"/>
            <path class="unit" d="M179.3,88.9 L181,91.5 L177.8,93.2 L176.1,90.6 L179.3,88.9 L179.3,88.9 Z M179.3,88.9" id="1068"/>
            <path class="unit" d="M155.9,101.5 L157.6,104.1 L154.4,105.8 L152.7,103.2 L155.9,101.5 L155.9,101.5 Z M155.9,101.5" id="1069"/>
            <path class="unit" d="M145.2,121.2 L147.9,125.2 L138.8,130.1 L136.5,126.5 L136.6,125.8 L145.2,121.2 L145.2,121.2 Z M145.2,121.2" id="1071"/>
            <path class="unit" d="M155.7,107.9 L166.6,124 L160.1,127.5 L149.2,111.3 L155.7,107.9 L155.7,107.9 Z M155.7,107.9" id="1073"/>
            <path class="unit" d="M148.8,111.5 L159.7,127.7 L155.6,129.9 L148.2,119 L147.1,119.6 L143.5,114.2 L148.8,111.5 L148.8,111.5 Z M148.8,111.5" id="1074"/>
            <path class="unit" d="M148.1,125.5 L151.1,129.9 L141.9,134.9 L139.1,130.4 L148.1,125.5 L148.1,125.5 Z M148.1,125.5" id="1075"/>
            <path class="unit" d="M165,103 L156,107.7 L166.9,123.9 L171.4,121.4 L176.3,128.7 L178,129 L181.3,127.2 L165,103 L165,103 Z M165,103" id="1077"/>
            <path class="unit" d="M151.2,130.2 L153.8,134 L144.4,139 L142,135.1 L151.2,130.2 L151.2,130.2 Z M151.2,130.2" id="1078"/>
            <path class="unit" d="M169.9,125.9 L172.3,129.6 L172.5,130 L147.3,143.6 L144.6,139.3 L154,134.2 L154.1,134.4 L169.9,125.9 L169.9,125.9 Z M169.9,125.9" id="1079"/>
            <path class="unit" d="M172.7,130.2 L175.4,134.2 L150,147.9 L147.4,143.8 L172.7,130.2 L172.7,130.2 Z M172.7,130.2" id="1080"/>
            <path class="unit" d="M175.5,134.5 L179.5,140.5 L154,154.2 L150.2,148.1 L175.5,134.5 L175.5,134.5 Z M175.5,134.5" id="1081"/>
            <path class="unit" d="M150.4,157.6 L152.1,160.2 L148.9,161.9 L147.2,159.3 L150.4,157.6 L150.4,157.6 Z M150.4,157.6" id="1082"/>
            <path class="unit" d="M179.7,140.7 L183.3,146 L172.1,152.1 L172.5,152.7 L158,160.5 L154.2,154.5 L179.7,140.7 L179.7,140.7 Z M179.7,140.7" id="1083"/>
            <path class="unit" d="M153.6,163.3 L152.6,166.3 L149.1,165.7 L153.6,163.3 L153.6,163.3 Z M153.6,163.3" id="1084"/>
            <path class="unit" d="M172.7,153 L183.2,168.5 L176.6,188.2 L159.2,185.1 L159.2,185.2 L147,183.1 L150.6,172.4 L157.3,168.8 L159.3,162.7 L158.1,160.8 L172.7,153 L172.7,153 Z M172.7,153" id="1085"/>
            <path class="unit" d="M176.1,97.3 L165.3,102.9 L181.6,127.1 L191.4,121.8 L191.8,120.6 L176.1,97.3 L176.1,97.3 Z M176.1,97.3" id="1086"/>
            <path class="unit" d="M157.2,191.1 L155.7,195.4 L143.5,193.3 L145,189 L157.2,191.1 L157.2,191.1 Z M157.2,191.1" id="1087"/>
            <path class="unit" d="M155.7,195.7 L154.2,200.2 L142,198.1 L143.5,193.6 L155.7,195.7 L155.7,195.7 Z M155.7,195.7" id="1088"/>
            <path class="unit" d="M112.9,251.9 L111.6,255.7 L109.8,255.4 L111.1,251.6 L112.9,251.9 L112.9,251.9 Z M112.9,251.9" id="1089"/>
            <path class="unit" d="M110.8,251.6 L109.5,255.4 L109.4,255.6 L109.3,255.7 L111.5,256.1 L110.2,260 L96.3,257.6 L98.8,250 L99,249.6 L110.8,251.6 L110.8,251.6 Z M110.8,251.6" id="1090"/>
            <path class="unit" d="M90,238.1 L87,247 L113,251.6 L116,242.7 L90,238.1 L90,238.1 Z M90,238.1" id="1091"/>
            <path class="unit" d="M139.5,172.5 L138.1,176.5 L117.3,172.8 L118.7,168.8 L139.5,172.5 L139.5,172.5 Z M139.5,172.5" id="1093"/>
            <path class="unit" d="M122.4,223.5 L120.9,228 L100.1,224.3 L101.6,219.8 L122.4,223.5 L122.4,223.5 Z M122.4,223.5" id="1094"/>
            <path class="unit" d="M131.7,137.6 L135.7,143.5 L118.6,152.7 L114.6,146.8 L131.7,137.6 L131.7,137.6 Z M131.7,137.6" id="1095"/>
            <path class="unit" d="M63,147.5 L70.8,159.1 L71.7,160.5 L71.5,161 L62.2,188.9 L20.5,181.6 L29.6,154.3 L40.8,148.3 L56.4,151.1 L63,147.5 L63,147.5 Z M63,147.5" id="1096"/>
            <path class="unit" d="M198.8,308.8 L197.8,311.8 L194.3,311.2 L195.3,308.2 L198.8,308.8 L198.8,308.8 Z M198.8,308.8" id="1097"/>
            <path class="unit" d="M198.5,320.5 L219.3,324.2 L221.6,317.2 L200.7,313.6 L198.5,320.5 L198.5,320.5 Z M198.5,320.5" id="1098"/>
            <path class="unit" d="M234.9,277.8 L232,286.6 L211.2,282.9 L214.1,274.1 L234.9,277.8 L234.9,277.8 Z M234.9,277.8" id="1099"/>
            <path class="unit" d="M151.9,204.7 L150.7,208.3 L137.5,206 L138.7,202.4 L151.9,204.7 L151.9,204.7 Z M151.9,204.7" id="1100"/>
            <path class="unit" d="M149,213.4 L147.2,218.8 L134,216.5 L135.8,211.1 L149,213.4 L149,213.4 Z M149,213.4" id="1101"/>
            <path class="unit" d="M150.6,208.6 L149.1,213.1 L135.9,210.8 L137.4,206.3 L150.6,208.6 L150.6,208.6 Z M150.6,208.6" id="1102"/>
            <path class="unit" d="M230,253.8 L223.1,274.5 L222.9,275 L222.8,275.3 L214.1,273.8 L214.2,273.5 L204.9,271.9 L212,250.7 L230,253.8 L230,253.8 Z M230,253.8" id="1103"/>
            <path class="unit" d="M227.4,300.2 L206.6,296.5 L203.9,304.5 L224.8,308.1 L227.4,300.2 L227.4,300.2 Z M227.4,300.2" id="1104"/>
            <path class="unit" d="M229.6,293.5 L227.5,299.9 L206.7,296.2 L208.8,289.8 L229.6,293.5 L229.6,293.5 Z M229.6,293.5" id="1105"/>
            <path class="unit" d="M231.8,286.9 L229.7,293.3 L208.9,289.6 L211,283.2 L231.8,286.9 L231.8,286.9 Z M231.8,286.9" id="1106"/>
            <path class="unit" d="M126.1,240.2 L139.3,242.5 L140.5,238.9 L127.3,236.6 L126.1,240.2 L126.1,240.2 Z M126.1,240.2" id="1107"/>
            <path class="unit" d="M142.9,231.6 L129.7,229.3 L128.6,232.7 L141.8,235 L142.9,231.6 L142.9,231.6 Z M142.9,231.6" id="1108"/>
            <path class="unit" d="M144.3,227.4 L143,231.3 L129.8,229 L131.1,225.1 L144.3,227.4 L144.3,227.4 Z M144.3,227.4" id="1109"/>
            <path class="unit" d="M147.1,219.1 L144.4,227.1 L131.2,224.8 L133.9,216.8 L147.1,219.1 L147.1,219.1 Z M147.1,219.1" id="1110"/>
            <path class="unit" d="M124.7,244.3 L137.9,246.6 L138,246.3 L139.2,242.8 L126,240.5 L124.7,244.3 L124.7,244.3 Z M124.7,244.3" id="1111"/>
            <path class="unit" d="M141.7,247.7 L137.6,260 L125.7,257.9 L121.5,253.9 L124.6,244.6 L141.7,247.7 L141.7,247.7 Z M141.7,247.7" id="1112"/>
            <path class="unit" d="M90.2,260.5 C92.8,261 94.8,262 94.9,262 L88.3,281.7 L83.1,280.8 C83,280.8 81.3,281.2 79.8,280.9 C79,280.8 78.3,280.5 77.9,279.9 C75.4,276.3 79.7,274 79.9,273.8 L82.9,264.7 C83,264.5 84.4,260.9 86.2,260.5 C87.5,260.2 88.9,260.3 90.2,260.5 L90.2,260.5 L90.2,260.5 Z M90.2,260.5" id="1113"/>
            <path class="unit" d="M122.6,265.4 L115.9,264.2 L108.8,285.4 L115.4,286.6 L122.6,265.4 L122.6,265.4 Z M122.6,265.4" id="1116"/>
            <path class="unit" d="M140.6,295.8 L145.1,282.3 L136.4,280.7 L128.8,303.3 L137.5,304.8 L140.6,295.8 L140.6,295.8 Z M140.6,295.8" id="1117"/>
            <path class="unit" d="M159,267.1 L158,270.1 L154.5,269.5 L155.5,266.5 L159,267.1 L159,267.1 Z M159,267.1" id="1118"/>
            <path class="unit" d="M143,264.3 L142,267.3 L138.5,266.7 L139.5,263.7 L143,264.3 L143,264.3 Z M143,264.3" id="1119"/>
            <path class="unit" d="M153.1,270.7 L149,282.8 L145.4,282.2 L149.5,270.1 L153.1,270.7 L153.1,270.7 Z M153.1,270.7" id="1120"/>
            <path class="unit" d="M122.9,265.4 L115.8,286.6 L128.2,288.8 L135.3,267.6 L122.9,265.4 L122.9,265.4 Z M122.9,265.4" id="1121"/>
            <path class="unit" d="M149.2,270 L140.5,268.5 L136.5,280.4 L145.2,282 L149.2,270 L149.2,270 Z M149.2,270" id="1122"/>
            <path class="unit" d="M157.4,271.5 L153.3,283.6 L149.4,282.9 L153.5,270.8 L157.4,271.5 L157.4,271.5 Z M157.4,271.5" id="1123"/>
            <path class="unit" d="M214,241.3 L211,250.4 L211.8,250.5 L204.7,271.7 L137.9,260 L142,247.7 L142.1,247.4 L141.8,247.3 L138.2,246.7 L138.3,246.4 L144.1,229 L144.4,229.1 L145.3,229.3 L214,241.3 L214,241.3 Z M214,241.3" id="1124"/>
            <path class="unit" d="M162.8,272.5 L158.7,284.6 L153.6,283.7 L157.7,271.6 L162.8,272.5 L162.8,272.5 Z M162.8,272.5" id="1125"/>
            <path class="unit" d="M167,273.2 L162.9,285.3 L159.1,284.6 L163.2,272.5 L167,273.2 L167,273.2 Z M167,273.2" id="1126"/>
            <path class="unit" d="M181.2,294.7 L179.3,300.3 L195.1,303.2 L197,297.6 L181.2,294.7 L181.2,294.7 Z M181.2,294.7" id="1127"/>
            <path class="unit" d="M177.3,306.2 L193.1,309.1 L195,303.5 L179.2,300.6 L177.3,306.2 L177.3,306.2 Z M177.3,306.2" id="1128"/>
            <path class="unit" d="M197.8,278.6 L193.7,290.7 L185,289.2 L184.1,289 L183,288.8 L187.1,276.7 L197.8,278.6 L197.8,278.6 Z M197.8,278.6" id="1129"/>
            <path class="unit" d="M198.9,292 L194,291.1 L193.6,291 L183,289.2 L181.3,294.4 L197.1,297.3 L198.9,292 L198.9,292 Z M198.9,292" id="1130"/>
            <path class="unit" d="M206.7,285.1 L205.7,288.1 L202.2,287.5 L203.2,284.5 L206.7,285.1 L206.7,285.1 Z M206.7,285.1" id="1131"/>
            <path class="unit" d="M198.1,279 L201.5,284.1 L199,291.7 L194.1,290.8 L198.1,279 L198.1,279 Z M198.1,279" id="1132"/>
            <path class="unit" d="M167.5,310.2 L175.2,311.6 L182.7,289.2 L175,287.8 L167.5,310.2 L167.5,310.2 Z M167.5,310.2" id="1133"/>
            <path class="unit" d="M175.5,311.6 L191.3,314.4 L193,309.4 L177.2,306.5 L175.5,311.6 L175.5,311.6 Z M175.5,311.6" id="1134"/>
            <path class="unit" d="M145.1,306.3 L152.2,307.6 L159.7,285.2 L152.6,284 L145.1,306.3 L145.1,306.3 Z M145.1,306.3" id="1135"/>
            <path class="unit" d="M152.6,307.6 L159.7,308.9 L167.2,286.5 L160.1,285.3 L152.6,307.6 L152.6,307.6 Z M152.6,307.6" id="1136"/>
            <path class="unit" d="M160,308.9 L167.3,310.2 L174.8,287.8 L167.5,286.5 L160,308.9 L160,308.9 Z M160,308.9" id="1137"/>
            <path class="unit" d="M186.8,276.7 L182.7,288.8 L176.4,287.7 L180.5,275.6 L186.8,276.7 L186.8,276.7 Z M186.8,276.7" id="1138"/>
            <path class="unit" d="M174.5,274.5 L170.4,286.6 L163.2,285.3 L167.3,273.2 L174.5,274.5 L174.5,274.5 Z M174.5,274.5" id="1139"/>
            <path class="unit" d="M180.2,275.5 L176.1,287.6 L170.8,286.7 L174.9,274.6 L180.2,275.5 L180.2,275.5 Z M180.2,275.5" id="1140"/>
            <path class="unit" d="M145.5,282.4 L138,305 L144.9,306.2 L152.4,283.8 L145.6,282.6 L145.5,282.4 L145.5,282.4 Z M145.5,282.4" id="1141"/>
            <path class="unit" d="M203.5,274.9 L202.5,277.9 L199,277.3 L200,274.3 L203.5,274.9 L203.5,274.9 Z M203.5,274.9" id="1142"/>
            <path class="unit" d="M195.8,273.6 L194.8,276.6 L191.3,276 L192.3,273 L195.8,273.6 L195.8,273.6 Z M195.8,273.6" id="1143"/>
            <path class="unit" d="M188.9,272.3 L187.9,275.3 L184.4,274.7 L185.4,271.7 L188.9,272.3 L188.9,272.3 Z M188.9,272.3" id="1144"/>
            <path class="unit" d="M181.2,271 L180.2,274 L176.7,273.4 L177.7,270.4 L181.2,271 L181.2,271 Z M181.2,271" id="1145"/>
            <path class="unit" d="M173.6,269.6 L172.6,272.6 L169.1,272 L170.1,269 L173.6,269.6 L173.6,269.6 Z M173.6,269.6" id="1146"/>
            <path class="unit" d="M166,268.3 L165,271.3 L161.5,270.7 L162.5,267.7 L166,268.3 L166,268.3 Z M166,268.3" id="1147"/>
            <path class="unit" d="M130.3,220.9 L129.3,223.9 L125.8,223.3 L126.8,220.3 L130.3,220.9 L130.3,220.9 Z M130.3,220.9" id="1148"/>
            <path class="unit" d="M135.6,205.1 L134.6,208.1 L131.1,207.5 L132.1,204.5 L135.6,205.1 L135.6,205.1 Z M135.6,205.1" id="1149"/>
            <path class="unit" d="M140.1,193.7 L139.1,196.7 L135.6,196.1 L136.6,193.1 L140.1,193.7 L140.1,193.7 Z M140.1,193.7" id="1150"/>
            <path class="unit" d="M141.8,188.9 L140.8,191.9 L137.3,191.3 L138.3,188.3 L141.8,188.9 L141.8,188.9 Z M141.8,188.9" id="1151"/>
            <path class="unit" d="M143.4,184.1 L142.4,187.1 L138.9,186.5 L139.9,183.5 L143.4,184.1 L143.4,184.1 Z M143.4,184.1" id="1152"/>
            <path class="unit" d="M146.6,174.3 L145.6,177.3 L142.1,176.7 L143.1,173.7 L146.6,174.3 L146.6,174.3 Z M146.6,174.3" id="1153"/>
            <path class="unit" d="M133.5,129 L135.2,131.6 L132,133.3 L130.3,130.7 L133.5,129 L133.5,129 Z M133.5,129" id="1154"/>
            <path class="unit" d="M126.7,116.2 L129.9,120.9 L124.1,124 L120.9,119.3 L126.7,116.2 L126.7,116.2 Z M126.7,116.2" id="1155"/>
            <path class="unit" d="M56,140.6 L54.3,145.8 L48.3,144.7 L56,140.6 L56,140.6 Z M56,140.6" id="1156"/>
            <path class="unit" d="M213,62.7 L214.7,65.3 L211.5,67 L209.8,64.4 L213,62.7 L213,62.7 Z M213,62.7" id="1157"/>
            <path class="unit" d="M202.6,308.4 L201,313.3 L221.9,316.9 L223.6,311.8 L224.7,308.4 L203.8,304.8 L202.6,308.4 L202.6,308.4 Z M202.6,308.4" id="1158"/>
            <path class="unit" d="M128.5,232.9 L127.3,236.4 L140.5,238.7 L141.7,235.2 L128.5,232.9 L128.5,232.9 Z M128.5,232.9" id="1159"/>
            <path class="unit" d="M109,263 L102.1,284.3 L108.5,285.4 L115.6,264.2 L109,263 L109,263 Z M109,263" id="1160"/>
            <path class="unit" d="M132.9,213.4 L131.9,216.4 L128.4,215.8 L129.4,212.8 L132.9,213.4 L132.9,213.4 Z M132.9,213.4" id="1161"/>
            <path class="unit" d="M126.9,230.9 L125.9,233.9 L122.4,233.3 L123.4,230.3 L126.9,230.9 L126.9,230.9 Z M126.9,230.9" id="1162"/>
            <path class="unit" d="M129.5,202.4 L108.7,198.7 L106.8,204.3 L127.6,208.1 L129.5,202.4 L129.5,202.4 Z M129.5,202.4" id="1163"/>
            <path class="unit" d="M64.5,97 L57.1,101.1 L73,124.8 L80.4,120.8 L64.5,97 L64.5,97 Z M64.5,97" id="1164"/>
            <path class="unit" d="M80.7,120.6 L99.7,110.4 L102.7,101.3 L109.4,97.7 L97.1,79.5 L64.8,96.9 L80.7,120.6 L80.7,120.6 Z M80.7,120.6" id="1165"/>
            <path class="unit" d="M116.1,242.4 L119.1,233.4 L98.3,229.7 L98,230.5 L92.8,229.6 L90,237.9 L116.1,242.4 L116.1,242.4 Z M116.1,242.4" id="1166"/>
            <path class="unit" d="M122.2,244.4 L121.2,247.4 L117.7,246.8 L118.7,243.8 L122.2,244.4 L122.2,244.4 Z M122.2,244.4" id="1167"/>
        </g>
    </g>
</svg>