<?xml version="1.0" encoding="utf-8"?>
<!DOCTYPE svg PUBLIC "-//W3C//DTD SVG 1.1//EN" "http://www.w3.org/Graphics/SVG/1.1/DTD/svg11.dtd">
<svg version="1.1" xmlns="http://www.w3.org/2000/svg" xmlns:xlink="http://www.w3.org/1999/xlink" xml:space="preserve">
<g class="level" id="level2">
            <g class="outline">
                <path d="M121.801,60.492 L124.319,52.969 L124.883,55.216 L146.699,59.062 L150.158,48.724 L148.914,43.787 L128.588,40.204 L131.297,32.108 L132.524,36.969 L150.389,40.119 L153.432,31.03 L152.188,26.092 L134.362,22.949 L136.501,16.56 L121.96,13.995 L115.601,33.005 L113.447,33.972 C111.619,34.792 109.08,35.932 106.031,37.3 L105.631,35.712 L97.123,17.698 L49.26,38.737 L45.393,30.478 L11.184,45.56 L12.37,50.264 L21.249,69.042 L52.257,55.058 L54.745,60.322 C47.702,63.484 41.169,66.418 35.897,68.788 L35.293,69.074 C30.934,70.896 27.666,74.245 26.316,78.277 C25.146,81.778 25.58,85.423 27.511,88.504 C29.73,92.174 33.177,98.037 35.429,101.875 C30.878,101.727 23.271,101.475 16.718,101.258 L13.501,101.191 L9.04,114.52 L38.114,115.332 C38.21,115.461 38.302,115.586 38.397,115.713 C37.188,118.528 35.403,122.701 33.883,126.352 L32.684,129.233 L46.823,131.726 L47.593,129.875 C49.198,126.012 51.267,121.137 52.224,118.885 C53.785,118.412 55.242,117.686 56.535,116.738 L82.637,121.341 C84.233,121.622 85.807,121.766 87.319,121.766 C92.247,121.766 95.78,120.251 97.87,118.987 C103.766,115.434 105.579,109.914 106.026,108.123 C106.606,106.387 114.561,82.651 116.424,77.094 C117.824,76.5 119.088,75.698 120.182,74.705 L146,73.205 L150.543,59.627 L122.4,61.269 C122.215,61.002 122.016,60.744 121.801,60.492 L121.801,60.492 Z M99.887,81.81 L91.932,105.585 L91.866,105.825 C91.741,106.335 91.04,107.774 90.247,108.253 C89.464,108.726 87.995,108.815 86.155,108.489 L64.007,104.591 L99.887,81.81 L99.887,81.81 Z M99.887,81.81" class="outline"/>
                <path d="M15.092,118.015 L2.567,131.3 L3.811,136.231 L17.749,145.365 L30.27,132.087 L29.028,127.158 L15.092,118.015 Z M15.092,118.015" class="outline"/>
                <path d="M26.458,90.882 L25.196,85.882 L16.065,67.566 L-0.013,74.346 L1.247,79.346 L10.379,97.664 L26.458,90.882 Z M26.458,90.882" class="outline"/>
                <path d="M56.069,122.376 L45.993,140.373 L47.239,145.312 L86.897,158.759 L96.946,140.386 L95.702,135.445 L56.069,122.376 Z M56.069,122.376" class="outline"/>
            </g>
            <g class="background">
                <path d="M120.608,63.096 C120.297,62.583 119.922,62.105 119.497,61.674 L118.952,61.134 L133.21,18.52 L123.649,16.833 L117.626,34.837 C114.837,36.089 61.853,59.866 36.97,71.046 L36.312,71.358 C32.746,72.834 29.851,75.601 28.693,79.068 C27.732,81.938 28.127,84.769 29.66,87.209 C33.066,92.853 39.299,103.521 39.627,104.084 L39.377,104.506 C38.732,104.485 26.49,104.078 16.672,103.756 L15.295,103.728 L12.488,112.114 L39.426,112.868 L39.84,113.446 C40.32,114.108 40.711,114.613 41.279,115.361 C40.09,118.13 37.957,123.092 36.201,127.311 L45.293,128.915 C47.385,123.878 50.266,117.124 50.418,116.769 C52.52,116.339 54.367,115.399 55.859,114.08 L83.076,118.879 C89.564,120.025 94.004,118.408 96.584,116.846 C101.787,113.711 103.311,108.748 103.627,107.426 C103.732,107.107 113.891,76.799 114.426,75.203 L115.211,74.891 C116.508,74.374 117.656,73.653 118.631,72.742 L119.147,72.262 L144.174,70.811 L147.006,62.341 C133.348,63.138 121.682,63.818 121.068,63.854 L120.608,63.096 L120.608,63.096 Z M52.112,109.158 C51.52,110.929 49.383,112.08 47.356,111.723 C45.327,111.365 44.157,109.63 44.749,107.86 C45.343,106.089 47.479,104.938 49.505,105.297 C51.536,105.653 52.706,107.386 52.112,109.158 L52.112,109.158 Z M96.379,100.169 L95.725,102.126 L94.301,106.378 C94.133,107.124 93.182,109.401 91.535,110.394 C90.172,111.214 88.209,111.391 85.719,110.953 L58.448,106.151 L58.239,105.291 L104.491,75.924 L96.379,100.169 L96.379,100.169 Z M102.473,65.834 C102.358,66.178 102.272,66.574 102.198,67.068 L102.094,67.723 L51.834,99.636 L51.197,99.968 L49.324,99.874 L48.344,99.819 L38.664,83.36 L38.361,82.777 C37.951,82.182 37.83,81.433 38.08,80.686 C38.332,79.931 38.914,79.306 39.654,78.915 L40.216,78.665 L115.829,41.667 L109.565,59.6 L108.729,59.904 C105.694,60.98 103.356,63.196 102.473,65.834 L102.473,65.834 Z M115.334,67.959 C114.742,69.73 112.607,70.881 110.578,70.524 C108.549,70.166 107.379,68.432 107.971,66.661 C108.565,64.89 110.7,63.739 112.729,64.097 C114.758,64.455 115.928,66.188 115.334,67.959 L115.334,67.959 Z M115.334,67.959" class="road" fill="#E7E8E9"/>
                <path d="M150.161,28.274 L136.008,25.779 L133.883,32.131 L134.553,34.788 L148.704,37.283 L150.831,30.931 L150.161,28.274 Z M150.161,28.274" class="wall"/>
                <path d="M104.422,48.209 L85.754,57.345 L86.479,59.988 L89.278,65.114 L108.014,55.815 L107.29,53.173 L104.422,48.209 Z M104.422,48.209" class="wall"/>
                <path d="M15.473,121.255 L5.327,132.018 L5.997,134.675 L17.368,142.125 L27.51,131.369 L26.84,128.712 L15.473,121.255 Z M15.473,121.255" class="wall"/>
                <path d="M23.508,89.414 L22.838,86.757 L14.874,70.782 L2.936,75.816 L3.606,78.473 L11.571,94.447 L23.508,89.414 Z M23.508,89.414" class="wall"/>
                <path d="M128.79,42.777 L126.245,50.378 L126.915,53.035 L145.014,56.226 L147.557,48.625 L146.887,45.968 L128.79,42.777 Z M128.79,42.777" class="wall"/>
                <path d="M84.375,66.005 L84.161,65.625 L80.905,59.915 L62.409,68.959 L61.95,69.188 L59.817,70.229 L49.163,75.433 L47.217,76.386 L41.405,79.232 L42.129,81.875 L51.225,97.511 L70.17,85.524 L88.215,74.115 L87.491,71.472 L84.375,66.005 Z M84.375,66.005" class="wall"/>
                <path d="M22.454,65.755 L32.909,61.038 L35.383,59.923 L52.319,52.288 L51.649,49.631 L44.168,33.75 L14.125,46.996 L14.793,49.653 L22.454,65.755 Z M22.454,65.755" class="wall"/>
                <path d="M57.292,59.875 L82.745,48.455 L86.04,46.978 L89.114,45.597 L91.086,44.71 L103.875,38.979 L103.206,36.323 L95.905,20.963 L87.731,24.556 L86.709,25.009 L74.178,30.516 L67.514,33.44 L67.045,33.65 L61.127,36.248 L49.157,41.513 L49.827,44.169 L57.292,59.875 Z M57.292,59.875" class="wall"/>
                <path d="M82.042,133.576 L81.045,133.244 L80.581,133.089 L75.116,131.294 L57.243,125.397 L48.661,140.726 L49.331,143.382 L67.512,149.548 L72.954,151.386 L73.417,151.546 L78.383,153.23 L79.02,153.444 L85.711,155.716 L94.282,140.046 L93.612,137.389 L82.042,133.576 Z M82.042,133.576" class="wall"/>
            </g>
            <g class="label">
                <path d="M165.834,104.365 L173.168,110.291 L165.834,116.216 L165.834,104.365 Z M165.834,104.365" class="Shape"/>
                <path d="M132.118,120.873 C132.79,120.873 133.354,121.018 133.749,121.209 L134.001,120.356 C133.728,120.212 133.091,119.996 132.083,119.996 C129.577,119.996 127.86,121.711 127.86,124.242 C127.86,126.892 129.577,128.332 131.854,128.332 C132.836,128.332 133.606,128.142 133.989,127.949 L133.774,127.121 C133.354,127.324 132.706,127.457 132.071,127.457 C130.104,127.457 128.964,126.186 128.964,124.207 C128.963,122.083 130.223,120.873 132.118,120.873 L132.118,120.873 Z M130.377,110.862 C130.377,109.088 129.25,107.877 127.582,107.877 C125.977,107.877 124.705,109.017 124.705,110.959 C124.705,112.793 125.916,113.944 127.486,113.944 C128.891,113.944 130.377,113.007 130.377,110.862 L130.377,110.862 Z M127.536,113.152 C126.505,113.152 125.772,112.193 125.772,110.922 C125.772,109.818 126.313,108.668 127.557,108.668 C128.805,108.668 129.297,109.914 129.297,110.897 C129.299,112.205 128.543,113.152 127.536,113.152 L127.536,113.152 Z M115.008,109.23 C113.893,108.798 113.401,108.425 113.401,107.671 C113.401,107.118 113.821,106.46 114.924,106.46 C115.654,106.46 116.195,106.7 116.459,106.843 L116.746,105.991 C116.387,105.788 115.787,105.595 114.959,105.595 C113.389,105.595 112.344,106.533 112.344,107.788 C112.344,108.929 113.16,109.612 114.481,110.079 C115.571,110.499 116.002,110.933 116.002,111.686 C116.002,112.502 115.377,113.065 114.313,113.065 C113.59,113.065 112.909,112.825 112.44,112.538 L112.176,113.413 C112.608,113.7 113.459,113.93 114.238,113.93 C116.144,113.93 117.068,112.85 117.068,111.603 C117.071,110.417 116.375,109.757 115.008,109.23 L115.008,109.23 Z M151.415,99.412 L152.472,99.412 L152.472,92.217 L154.945,92.217 L154.945,91.33 L148.961,91.33 L148.961,92.217 L151.418,92.217 L151.418,99.412 L151.415,99.412 L151.415,99.412 Z M121.379,107.875 C120.983,107.875 120.611,107.996 120.299,108.176 C119.977,108.357 119.713,108.619 119.545,108.92 L119.522,108.92 L119.522,105.297 L118.465,105.297 L118.465,113.814 L119.522,113.814 L119.522,110.312 C119.522,110.108 119.534,109.954 119.592,109.808 C119.783,109.232 120.324,108.752 121.008,108.752 C122.002,108.752 122.35,109.543 122.35,110.48 L122.35,113.814 L123.407,113.814 L123.407,110.36 C123.407,108.355 122.159,107.875 121.379,107.875 L121.379,107.875 Z M157.319,99.544 C158.721,99.544 160.21,98.606 160.21,96.462 C160.21,94.687 159.083,93.476 157.415,93.476 C155.808,93.476 154.538,94.615 154.538,96.558 C154.538,98.393 155.749,99.544 157.319,99.544 L157.319,99.544 Z M157.391,94.267 C158.639,94.267 159.129,95.514 159.129,96.497 C159.129,97.805 158.375,98.751 157.367,98.751 C156.336,98.751 155.599,97.792 155.599,96.521 C155.604,95.417 156.143,94.267 157.391,94.267 L157.391,94.267 Z M137.206,110.826 C137.206,109.063 136.151,107.877 134.747,107.877 C133.8,107.877 133.116,108.295 132.685,109.004 L132.664,109.004 L132.617,108.008 L131.67,108.008 C131.693,108.562 131.717,109.16 131.717,109.904 L131.717,116.188 L132.76,116.188 L132.76,113.035 L132.785,113.035 C133.133,113.61 133.805,113.946 134.572,113.946 C135.934,113.944 137.206,112.914 137.206,110.826 L137.206,110.826 Z M134.387,113.117 C133.631,113.117 132.996,112.613 132.805,111.881 C132.782,111.75 132.756,111.608 132.756,111.449 L132.756,110.455 C132.756,110.31 132.793,110.154 132.828,110.022 C133.031,109.23 133.703,108.714 134.424,108.714 C135.539,108.714 136.151,109.71 136.151,110.874 C136.151,112.205 135.502,113.117 134.387,113.117 L134.387,113.117 Z M152.063,113.812 L153.118,113.812 L153.118,110.346 C153.118,108.355 151.872,107.876 151.067,107.876 C150.108,107.876 149.434,108.415 149.149,108.966 L149.124,108.966 L149.065,108.007 L148.127,108.007 C148.162,108.486 148.174,108.979 148.174,109.579 L148.174,113.811 L149.233,113.811 L149.233,110.323 C149.233,110.141 149.254,109.962 149.301,109.831 C149.485,109.243 150.024,108.751 150.717,108.751 C151.713,108.751 152.063,109.53 152.063,110.466 L152.063,113.812 L152.063,113.812 Z M152.688,123.546 L152.639,123.546 L152.604,122.407 L151.68,122.407 C151.715,122.945 151.729,123.534 151.729,124.218 L151.729,128.212 L152.772,128.212 L152.772,125.118 C152.772,124.936 152.795,124.768 152.819,124.626 C152.964,123.833 153.491,123.271 154.235,123.271 C154.38,123.271 154.487,123.283 154.594,123.307 L154.594,122.311 C154.498,122.287 154.414,122.275 154.295,122.275 C153.586,122.275 152.952,122.767 152.688,123.546 L152.688,123.546 Z M160.235,125.009 C160.235,123.943 159.731,122.276 157.837,122.276 C156.148,122.276 155.114,123.656 155.114,125.406 C155.114,127.158 156.178,128.334 157.968,128.334 C158.892,128.334 159.529,128.143 159.902,127.975 L159.72,127.217 C159.325,127.385 158.868,127.519 158.115,127.519 C157.056,127.519 156.148,126.932 156.123,125.502 L160.201,125.502 C160.209,125.394 160.235,125.226 160.235,125.009 L160.235,125.009 Z M156.133,124.746 C156.217,124.017 156.684,123.031 157.752,123.031 C158.938,123.031 159.227,124.074 159.215,124.746 L156.133,124.746 L156.133,124.746 Z M156.887,115.492 C156.168,115.492 155.569,115.275 155.184,115.035 L154.92,115.84 C155.387,116.152 156.154,116.319 156.852,116.319 C157.582,116.319 158.399,116.151 158.961,115.623 C159.525,115.119 159.789,114.306 159.789,112.975 L159.789,109.605 C159.789,108.897 159.812,108.428 159.838,108.008 L158.914,108.008 L158.865,108.883 L158.842,108.883 C158.59,108.404 158.039,107.877 157.031,107.877 C155.699,107.877 154.416,108.992 154.416,110.959 C154.416,112.565 155.447,113.789 156.887,113.789 C157.787,113.789 158.41,113.357 158.735,112.817 L158.758,112.817 L158.758,113.464 C158.758,114.927 157.967,115.492 156.887,115.492 L156.887,115.492 Z M158.747,111.341 C158.747,111.521 158.724,111.725 158.663,111.905 C158.433,112.575 157.847,112.982 157.2,112.982 C156.057,112.982 155.485,112.036 155.485,110.895 C155.485,109.551 156.204,108.702 157.212,108.702 C157.982,108.702 158.495,109.206 158.689,109.816 C158.738,109.962 158.75,110.118 158.75,110.295 L158.75,111.34 L158.747,111.34 L158.747,111.341 Z M137.436,122.275 C135.745,122.275 134.713,123.654 134.713,125.406 C134.713,127.156 135.779,128.332 137.567,128.332 C138.491,128.332 139.128,128.142 139.499,127.974 L139.319,127.217 C138.923,127.385 138.467,127.518 137.712,127.518 C136.657,127.518 135.745,126.931 135.722,125.502 L139.8,125.502 C139.814,125.395 139.835,125.227 139.835,125.01 C139.834,123.942 139.331,122.275 137.436,122.275 L137.436,122.275 Z M135.733,124.746 C135.817,124.017 136.284,123.031 137.35,123.031 C138.539,123.031 138.827,124.074 138.815,124.746 L135.733,124.746 L135.733,124.746 Z M149.028,120.74 L147.997,121.015 L147.997,122.408 L147.097,122.408 L147.097,123.211 L147.997,123.211 L147.997,126.377 C147.997,127.063 148.104,127.576 148.405,127.89 C148.657,128.176 149.05,128.332 149.544,128.332 C149.952,128.332 150.276,128.272 150.482,128.188 L150.431,127.396 C150.3,127.432 150.095,127.468 149.822,127.468 C149.234,127.468 149.031,127.06 149.031,126.341 L149.031,123.21 L150.543,123.21 L150.543,122.407 L149.031,122.407 L149.031,120.739 L149.028,120.739 L149.028,120.74 Z M144.036,122.275 C143.075,122.275 142.403,122.815 142.116,123.367 L142.093,123.367 L142.032,122.408 L141.094,122.408 C141.131,122.887 141.143,123.379 141.143,123.978 L141.143,128.212 L142.2,128.212 L142.2,124.722 C142.2,124.542 142.223,124.362 142.272,124.23 C142.452,123.643 142.991,123.151 143.686,123.151 C144.68,123.151 145.03,123.93 145.03,124.867 L145.03,128.213 L146.087,128.213 L146.087,124.746 C146.086,122.755 144.838,122.275 144.036,122.275 L144.036,122.275 Z M145.897,105.716 C145.51,105.716 145.237,106.003 145.237,106.376 C145.237,106.734 145.501,107.022 145.872,107.022 C146.292,107.022 146.556,106.734 146.544,106.376 C146.543,106.003 146.292,105.716 145.897,105.716 L145.897,105.716 Z M144.034,110.826 C144.034,109.063 142.979,107.877 141.575,107.877 C140.628,107.877 139.944,108.295 139.513,109.004 L139.492,109.004 L139.443,108.008 L138.496,108.008 C138.517,108.562 138.545,109.16 138.545,109.904 L138.545,116.188 L139.588,116.188 L139.588,113.035 L139.611,113.035 C139.959,113.61 140.631,113.946 141.398,113.946 C142.762,113.944 144.034,112.914 144.034,110.826 L144.034,110.826 Z M139.631,111.88 C139.608,111.749 139.584,111.606 139.584,111.448 L139.584,110.454 C139.584,110.308 139.619,110.152 139.656,110.02 C139.859,109.228 140.531,108.711 141.25,108.711 C142.367,108.711 142.979,109.707 142.979,110.871 C142.979,112.203 142.331,113.113 141.215,113.113 C140.459,113.117 139.825,112.613 139.631,111.88 L139.631,111.88 Z M145.368,113.812 L146.425,113.812 L146.425,108.007 L145.368,108.007 L145.368,113.812 L145.368,113.812 Z M145.368,113.812" class="Shape"/>
                <path d="M15.309,10.432 L10.539,10.432 L10.539,6.575 L14.412,6.575 C14.797,6.575 15.004,6.255 15.004,5.983 C15.004,5.695 14.797,5.407 14.412,5.407 L10.539,5.407 L10.539,1.677 L15.148,1.677 C15.564,1.677 15.789,1.406 15.789,1.101 C15.789,0.765 15.564,0.461 15.148,0.461 L10.363,0.461 C9.674,0.461 9.302,0.829 9.302,1.421 L9.302,10.689 C9.302,11.281 9.671,11.649 10.363,11.649 L15.306,11.649 C15.693,11.649 15.913,11.313 15.913,11.041 C15.917,10.705 15.694,10.432 15.309,10.432 L15.309,10.432 Z M5.885,7.536 C5.596,7.119 5.278,6.8 4.908,6.559 C6.332,6.063 7.26,5.07 7.26,3.55 C7.26,1.613 5.949,0.333 3.051,0.333 C1.947,0.333 1.196,0.445 0.682,0.605 C0.284,0.733 0.17,0.973 0.17,1.373 L0.17,11.073 C0.17,11.473 0.443,11.714 0.795,11.714 C1.149,11.714 1.42,11.474 1.42,11.073 L1.42,6.895 L2.668,6.895 C3.836,6.895 4.301,7.375 4.877,8.303 C5.277,8.944 5.693,9.872 6.189,11.265 C6.285,11.521 6.459,11.713 6.794,11.713 C7.129,11.713 7.419,11.473 7.419,11.088 C7.419,10.977 7.388,10.817 7.323,10.656 C6.893,9.504 6.381,8.303 5.885,7.536 L5.885,7.536 Z M2.86,5.678 L1.419,5.678 L1.419,1.645 C1.868,1.581 2.3,1.517 2.989,1.517 C5.278,1.517 5.997,2.413 5.997,3.598 C5.997,5.247 4.444,5.726 2.86,5.678 L2.86,5.678 Z M24.606,1.069 C24.606,0.749 24.381,0.461 24.03,0.461 L17.178,0.461 C16.826,0.461 16.586,0.765 16.586,1.069 C16.586,1.373 16.777,1.661 17.178,1.661 L19.93,1.661 L19.93,11.073 C19.93,11.473 20.203,11.714 20.555,11.714 C20.891,11.714 21.162,11.474 21.162,11.073 L21.162,1.661 L24.027,1.661 C24.397,1.661 24.606,1.357 24.606,1.069 L24.606,1.069 Z M30.206,1.869 C29.581,0.62 29.085,0.252 28.524,0.252 C27.963,0.252 27.467,0.62 26.842,1.869 C25.947,3.677 25.258,5.951 24.09,10.577 C24.026,10.801 23.994,10.977 23.994,11.089 C23.994,11.474 24.25,11.714 24.599,11.714 C24.886,11.714 25.095,11.537 25.175,11.201 C25.482,9.824 25.782,8.592 26.087,7.536 L30.954,7.536 C31.241,8.592 31.546,9.824 31.866,11.201 C31.946,11.537 32.155,11.714 32.442,11.714 C32.794,11.714 33.049,11.474 33.049,11.089 C33.049,10.978 33.002,10.801 32.953,10.577 C31.821,5.951 31.1,3.677 30.206,1.869 L30.206,1.869 Z M26.411,6.415 C27.147,3.966 27.804,2.446 28.317,1.645 C28.364,1.581 28.413,1.517 28.524,1.517 C28.635,1.517 28.684,1.581 28.733,1.645 C29.245,2.445 29.883,3.965 30.622,6.415 L26.411,6.415 L26.411,6.415 Z M35.403,0.396 C35.049,0.396 34.778,0.652 34.778,1.052 L34.778,11.073 C34.778,11.473 35.034,11.714 35.385,11.714 C35.739,11.714 36.01,11.474 36.01,11.073 L36.01,1.052 C36.01,0.652 35.754,0.396 35.403,0.396 L35.403,0.396 Z M73.245,7.536 C72.956,7.119 72.636,6.8 72.266,6.559 C73.692,6.063 74.621,5.07 74.621,3.55 C74.621,1.613 73.309,0.333 70.41,0.333 C69.305,0.333 68.555,0.445 68.041,0.605 C67.641,0.733 67.529,0.973 67.529,1.373 L67.529,11.073 C67.529,11.473 67.799,11.714 68.154,11.714 C68.506,11.714 68.777,11.474 68.777,11.073 L68.777,6.895 L70.025,6.895 C71.195,6.895 71.658,7.375 72.234,8.303 C72.632,8.944 73.048,9.872 73.545,11.265 C73.645,11.521 73.816,11.713 74.152,11.713 C74.488,11.713 74.777,11.473 74.777,11.088 C74.777,10.977 74.746,10.817 74.679,10.656 C74.252,9.504 73.741,8.303 73.245,7.536 L73.245,7.536 Z M70.219,5.678 L68.78,5.678 L68.78,1.645 C69.227,1.581 69.659,1.517 70.346,1.517 C72.635,1.517 73.358,2.413 73.358,3.598 C73.356,5.247 71.803,5.726 70.219,5.678 L70.219,5.678 Z M43.885,10.464 L39.578,10.464 L39.578,1.052 C39.578,0.652 39.322,0.396 38.971,0.396 C38.617,0.396 38.346,0.652 38.346,1.052 L38.346,10.688 C38.346,11.28 38.713,11.648 39.403,11.648 L43.885,11.648 C44.283,11.648 44.541,11.376 44.541,11.04 C44.542,10.737 44.301,10.464 43.885,10.464 L43.885,10.464 Z M84.045,10.625 C83.195,8.88 82.604,7.775 81.803,6.896 C81.324,6.368 80.971,6.112 80.555,5.872 C81.02,5.536 81.451,5.088 82.139,4.079 L83.932,1.39 C84.012,1.262 84.061,1.134 84.061,0.974 C84.061,0.67 83.805,0.398 83.454,0.398 C83.214,0.398 83.038,0.526 82.845,0.798 L80.945,3.647 C80.049,4.992 79.377,5.408 78.3,5.408 L77.904,5.408 L77.904,1.006 C77.904,0.638 77.646,0.398 77.295,0.398 C76.928,0.398 76.672,0.67 76.672,1.006 L76.672,11.107 C76.672,11.475 76.928,11.715 77.295,11.715 C77.664,11.715 77.904,11.443 77.904,11.107 L77.904,6.641 L78.685,6.641 C79.695,6.624 80.191,7.025 80.785,7.618 C81.408,8.242 82.014,9.282 82.945,11.299 C83.054,11.556 83.25,11.732 83.586,11.716 C83.922,11.699 84.193,11.444 84.178,11.06 C84.157,10.945 84.125,10.785 84.045,10.625 L84.045,10.625 Z M52.266,0.333 C51.258,0.333 50.506,0.445 49.995,0.605 C49.595,0.733 49.483,0.973 49.483,1.373 L49.483,11.073 C49.483,11.473 49.739,11.714 50.09,11.714 C50.444,11.714 50.715,11.474 50.715,11.073 L50.715,7.456 C51.242,7.487 51.547,7.504 52.188,7.504 C55.069,7.504 56.588,6.111 56.588,3.838 C56.588,1.821 55.26,0.333 52.266,0.333 L52.266,0.333 Z M52.124,6.334 C51.532,6.334 51.243,6.334 50.716,6.303 L50.716,1.629 C51.163,1.565 51.708,1.501 52.237,1.501 C54.508,1.501 55.325,2.589 55.325,3.87 C55.325,5.182 54.62,6.334 52.124,6.334 L52.124,6.334 Z M62.956,1.869 C62.333,0.62 61.837,0.252 61.276,0.252 C60.715,0.252 60.217,0.62 59.594,1.869 C58.698,3.677 58.01,5.951 56.84,10.577 C56.778,10.801 56.744,10.977 56.744,11.089 C56.744,11.474 57,11.714 57.353,11.714 C57.638,11.714 57.845,11.537 57.925,11.201 C58.232,9.824 58.532,8.592 58.837,7.536 L63.704,7.536 C63.991,8.592 64.296,9.824 64.616,11.201 C64.696,11.537 64.903,11.714 65.192,11.714 C65.544,11.714 65.799,11.474 65.799,11.089 C65.799,10.978 65.75,10.801 65.701,10.577 C64.573,5.951 63.854,3.677 62.956,1.869 L62.956,1.869 Z M59.163,6.415 C59.899,3.966 60.556,2.446 61.067,1.645 C61.116,1.581 61.163,1.517 61.276,1.517 C61.387,1.517 61.434,1.581 61.483,1.645 C61.997,2.445 62.635,3.965 63.372,6.415 L59.163,6.415 L59.163,6.415 Z M59.163,6.415" class="Shape"/>
                <path d="M91.971,79.029 C91.666,78.653 91.301,78.451 90.905,78.381 C90.843,78.369 90.782,78.362 90.719,78.359 C90.24,78.322 89.705,78.489 89.084,78.88 C88.74,79.097 88.447,79.32 88.209,79.518 L90.369,82.169 C90.598,82.052 90.867,81.899 91.178,81.702 C91.83,81.296 92.239,80.837 92.346,80.38 C92.458,79.938 92.333,79.473 91.971,79.029 L91.971,79.029 Z M91.034,81.373 C90.864,81.477 90.706,81.568 90.579,81.625 L88.85,79.5 C88.946,79.406 89.104,79.285 89.325,79.143 C89.823,78.831 90.28,78.724 90.675,78.791 C91.007,78.852 91.296,79.033 91.53,79.324 C92.127,80.054 91.956,80.785 91.034,81.373 L91.034,81.373 Z M68.915,93.871 C68.673,93.828 68.419,93.867 68.22,93.933 C68.486,93.608 68.511,93.248 68.3,92.991 C68.165,92.827 67.995,92.731 67.804,92.697 C67.749,92.688 67.695,92.683 67.632,92.683 C67.318,92.683 66.987,92.797 66.56,93.072 C66.251,93.26 65.972,93.475 65.816,93.622 L67.972,96.273 C68.122,96.206 68.368,96.073 68.663,95.888 C69.214,95.541 69.518,95.224 69.618,94.901 C69.679,94.669 69.653,94.419 69.46,94.185 C69.313,94 69.118,93.906 68.915,93.871 L68.915,93.871 Z M66.43,93.583 C66.492,93.532 66.594,93.445 66.801,93.315 C67.078,93.143 67.338,93.054 67.557,93.09 C67.682,93.111 67.793,93.178 67.887,93.291 C68.1,93.551 67.991,93.91 67.537,94.203 L67.137,94.449 L66.43,93.583 L66.43,93.583 Z M68.565,95.527 C68.413,95.627 68.29,95.701 68.192,95.746 L67.358,94.713 L67.713,94.492 C68.02,94.299 68.342,94.189 68.613,94.237 C68.758,94.263 68.894,94.336 69,94.465 C69.323,94.861 69.01,95.25 68.565,95.527 L68.565,95.527 Z M64.665,97.917 L63.874,96.948 L65.179,96.134 L64.945,95.839 L63.642,96.661 L62.951,95.809 L64.328,94.944 L64.092,94.649 L62.28,95.788 L64.477,98.484 L66.362,97.296 L66.122,97.007 L64.665,97.917 L64.665,97.917 Z M61.088,96.544 L62.008,97.671 L60.379,98.691 L59.461,97.564 L59.033,97.837 L61.221,100.534 L61.66,100.255 L60.631,98.997 L62.25,97.976 L63.281,99.234 L63.717,98.963 L61.528,96.268 L61.088,96.544 L61.088,96.544 Z M58.903,98.367 L58.657,98.07 L56.175,99.634 L56.421,99.931 L57.442,99.288 L59.385,101.686 L59.832,101.411 L57.879,99.009 L58.903,98.367 L58.903,98.367 Z M79.858,88.354 L79.069,87.382 L80.376,86.561 L80.138,86.273 L78.839,87.089 L78.144,86.236 L79.525,85.372 L79.287,85.077 L77.473,86.222 L79.672,88.913 L81.557,87.725 L81.319,87.437 L79.858,88.354 L79.858,88.354 Z M81.917,83.421 L82.431,85.109 C82.576,85.553 82.71,85.981 82.857,86.364 C82.505,86.103 82.121,85.853 81.675,85.579 L80.077,84.585 L79.608,84.874 L82.897,86.886 L83.372,86.581 L82.378,83.13 L81.917,83.421 L81.917,83.421 Z M83.34,82.525 L84.395,85.932 L84.842,85.654 L84.5,84.59 L85.693,83.842 L86.736,84.461 L87.205,84.172 L83.867,82.197 L83.34,82.525 L83.34,82.525 Z M85.385,83.623 L84.375,84.26 L84.063,83.272 C83.995,83.07 83.915,82.876 83.834,82.676 L83.846,82.67 C84.022,82.795 84.205,82.924 84.424,83.059 L85.385,83.623 L85.385,83.623 Z M88.481,81.653 C88.348,81.631 88.217,81.636 88.085,81.675 L88.073,81.657 C88.35,81.343 88.434,80.928 88.145,80.579 C88.002,80.395 87.799,80.282 87.577,80.241 C87.54,80.234 87.503,80.229 87.464,80.227 C87.134,80.207 86.778,80.329 86.319,80.62 C86.022,80.805 85.721,81.019 85.536,81.202 L87.702,83.855 L88.13,83.583 L87.177,82.417 L87.587,82.165 C87.814,82.034 88.003,81.982 88.196,82.018 C88.348,82.046 88.507,82.126 88.688,82.265 C89.045,82.542 89.315,82.724 89.432,82.769 L89.881,82.484 C89.721,82.423 89.44,82.214 89.026,81.905 C88.842,81.772 88.663,81.685 88.481,81.653 L88.481,81.653 Z M87.403,81.873 L86.965,82.152 L86.16,81.172 C86.217,81.11 86.353,81 86.568,80.873 C86.849,80.697 87.123,80.611 87.357,80.652 C87.502,80.677 87.63,80.754 87.742,80.888 C87.993,81.193 87.872,81.583 87.403,81.873 L87.403,81.873 Z M71.229,90.682 C70.764,90.6 70.264,90.697 69.801,90.99 C68.906,91.551 68.697,92.528 69.389,93.386 C69.715,93.782 70.135,94.022 70.584,94.101 C71.057,94.184 71.563,94.087 72.016,93.8 C72.868,93.263 73.172,92.327 72.412,91.402 C72.092,91.007 71.676,90.761 71.229,90.682 L71.229,90.682 Z M71.807,93.503 C71.5,93.694 71.166,93.747 70.85,93.691 C70.467,93.623 70.11,93.4 69.852,93.087 C69.37,92.495 69.29,91.735 70.01,91.286 C70.326,91.087 70.658,91.038 70.967,91.093 C71.365,91.163 71.727,91.404 71.973,91.704 C72.465,92.321 72.497,93.071 71.807,93.503 L71.807,93.503 Z M77.514,89.832 L75.553,87.431 L75.127,87.703 L77.316,90.399 L79.175,89.224 L78.941,88.929 L77.514,89.832 L77.514,89.832 Z M74.372,88.169 L73.933,88.448 L75.234,90.046 C75.722,90.639 75.615,91.103 75.119,91.419 C74.902,91.556 74.664,91.616 74.422,91.573 C74.162,91.526 73.893,91.361 73.637,91.048 L72.338,89.456 L71.904,89.727 L73.195,91.316 C73.513,91.712 73.861,91.92 74.205,91.982 C74.59,92.048 74.975,91.938 75.338,91.711 C76.063,91.254 76.328,90.571 75.65,89.748 L74.372,88.169 L74.372,88.169 Z M74.372,88.169" class="Shape"/>
                <path d="M117.049,45.932 L118.139,46.496 L117.743,47.684 L116.407,47.829 L116.253,48.292 L120.487,47.828 L120.659,47.312 L117.202,45.483 L117.049,45.932 L117.049,45.932 Z M118.495,46.654 L119.499,47.179 C119.706,47.287 119.929,47.382 120.134,47.473 L120.132,47.481 C119.892,47.494 119.653,47.507 119.37,47.537 L118.159,47.663 L118.495,46.654 L118.495,46.654 Z M117.542,44.459 L120.983,46.34 L121.137,45.877 L119.428,44.974 C118.983,44.737 118.541,44.509 118.131,44.326 C118.615,44.317 119.119,44.271 119.69,44.221 L121.76,44.041 L121.918,43.57 L117.701,43.982 L117.542,44.459 L117.542,44.459 Z M114.891,52.247 C114.662,52.903 114.688,53.454 114.942,53.831 C115.188,54.206 115.643,54.469 116.268,54.579 C116.893,54.689 117.397,54.596 117.815,54.353 C118.219,54.116 118.542,53.698 118.749,53.077 C118.864,52.733 118.935,52.413 118.979,52.144 L115.198,51.469 C115.098,51.682 114.995,51.94 114.891,52.247 L114.891,52.247 Z M115.438,51.971 L118.465,52.513 C118.453,52.629 118.422,52.806 118.348,53.023 C118.043,53.935 117.321,54.282 116.434,54.126 C116.426,54.125 116.42,54.124 116.413,54.122 C115.368,53.938 114.946,53.333 115.257,52.406 C115.313,52.234 115.374,52.079 115.438,51.971 L115.438,51.971 Z M115.942,49.219 L117.608,49.521 L117.473,49.925 C117.323,50.318 117.057,50.461 116.494,50.465 C115.982,50.478 115.631,50.495 115.502,50.527 L115.354,50.976 C115.522,50.934 115.924,50.918 116.493,50.9 C116.921,50.896 117.247,50.788 117.434,50.551 L117.452,50.554 C117.472,50.929 117.714,51.265 118.218,51.354 C118.519,51.407 118.816,51.364 119.042,51.222 C119.327,51.051 119.522,50.768 119.685,50.306 C119.787,50.007 119.859,49.687 119.876,49.461 L116.085,48.785 L115.942,49.219 L115.942,49.219 Z M117.836,50.028 L117.984,49.587 L119.384,49.835 C119.38,49.905 119.359,50.059 119.284,50.269 C119.12,50.73 118.804,50.999 118.307,50.912 C117.868,50.833 117.682,50.491 117.836,50.028 L117.836,50.028 Z M118.161,42.638 L118.573,42.71 L119.059,41.253 L120.444,41.505 L120.008,42.805 L120.418,42.878 L120.854,41.578 L122.069,41.792 L121.608,43.175 L122.026,43.249 L122.633,41.433 L118.791,40.748 L118.161,42.638 L118.161,42.638 Z M123.278,27.426 L123.688,27.498 L124.174,26.041 L125.561,26.293 L125.123,27.594 L125.535,27.666 L125.971,26.365 L127.188,26.579 L126.723,27.962 L127.145,28.036 L127.75,26.221 L123.908,25.535 L123.278,27.426 L123.278,27.426 Z M124.85,22.725 L126.657,23.044 L126.116,24.665 L124.309,24.347 L124.161,24.788 L128.005,25.466 L128.151,25.032 L126.544,24.74 L127.097,23.12 L128.706,23.404 L128.851,22.971 L125.007,22.293 L124.85,22.725 L124.85,22.725 Z M129.383,20.042 L129.043,21.059 L125.619,20.455 L125.473,20.888 L128.897,21.5 L128.543,22.522 L128.971,22.598 L129.801,20.117 L129.383,20.042 L129.383,20.042 Z M122.467,29.713 C122.285,30.258 122.27,30.659 122.44,30.935 C122.571,31.14 122.782,31.296 123.116,31.355 C123.68,31.455 124.114,31.135 124.321,30.839 C124.348,31.216 124.602,31.49 124.969,31.555 C125.28,31.609 125.535,31.544 125.748,31.391 C126.006,31.222 126.186,30.953 126.33,30.52 C126.439,30.223 126.506,29.917 126.518,29.714 L122.745,29.048 C122.67,29.187 122.567,29.414 122.467,29.713 L122.467,29.713 Z M124.667,30.267 L124.8,29.871 L126.042,30.09 C126.032,30.168 126.013,30.283 125.944,30.485 C125.798,30.919 125.52,31.186 125.065,31.106 C124.698,31.04 124.514,30.723 124.667,30.267 L124.667,30.267 Z M122.958,29.546 L124.423,29.804 L124.304,30.163 C124.148,30.634 123.798,30.992 123.271,30.898 C122.712,30.8 122.666,30.348 122.816,29.9 C122.864,29.75 122.915,29.625 122.958,29.546 L122.958,29.546 Z M118.954,40.269 L119.374,40.343 L119.854,38.908 L123.278,39.512 L123.423,39.078 L119.579,38.4 L118.954,40.269 L118.954,40.269 Z M120.196,36.364 C119.954,37.089 120.258,37.718 121.44,37.926 L123.68,38.329 L123.828,37.888 L121.553,37.479 C120.705,37.329 120.434,36.949 120.602,36.448 C120.75,36.004 121.221,35.734 122.057,35.882 C122.069,35.883 122.078,35.885 122.086,35.887 L124.363,36.289 L124.508,35.848 L122.248,35.45 C121.053,35.241 120.434,35.678 120.196,36.364 L120.196,36.364 Z M123.772,31.882 C123.764,31.881 123.758,31.88 123.751,31.879 C122.599,31.675 121.61,32.164 121.317,33.041 C121.03,33.9 121.497,34.727 122.817,34.959 C123.962,35.162 124.963,34.713 125.27,33.801 C125.571,32.903 124.997,32.098 123.772,31.882 L123.772,31.882 Z M124.875,33.707 C124.627,34.422 123.713,34.634 122.951,34.499 C122.078,34.345 121.48,33.828 121.709,33.14 C121.945,32.461 122.799,32.2 123.611,32.343 C123.619,32.344 123.627,32.346 123.631,32.348 C124.473,32.496 125.116,32.989 124.875,33.707 L124.875,33.707 Z M124.875,33.707" class="Shape"/>
                <path d="M98.758,100.662 L99.848,101.226 L99.452,102.414 L98.116,102.56 L97.96,103.023 L102.196,102.559 L102.372,102.037 L98.911,100.217 L98.758,100.662 L98.758,100.662 Z M100.204,101.384 L101.206,101.909 C101.415,102.014 101.638,102.11 101.843,102.202 L101.841,102.21 C101.601,102.223 101.362,102.234 101.079,102.266 L99.866,102.392 L100.204,101.384 L100.204,101.384 Z M109.293,80.123 L108.945,81.139 L105.529,80.535 L105.383,80.969 L108.797,81.578 L108.455,82.602 L108.873,82.675 L109.713,80.196 L109.293,80.123 L109.293,80.123 Z M96.315,107.916 L96.731,107.998 L97.219,106.541 L98.606,106.785 L98.168,108.094 L98.578,108.166 L99.016,106.858 L100.233,107.072 L99.77,108.455 L100.18,108.527 L100.793,106.72 L96.953,106.034 L96.315,107.916 L96.315,107.916 Z M104.76,82.805 L108.606,83.483 L108.751,83.048 L104.907,82.37 L104.76,82.805 L104.76,82.805 Z M97.479,104.464 L100.917,106.353 L101.073,105.89 L99.364,104.98 C98.909,104.742 98.475,104.522 98.065,104.339 C98.549,104.329 99.053,104.284 99.624,104.234 L101.69,104.045 L101.844,103.582 L97.637,103.987 L97.479,104.464 L97.479,104.464 Z M102.53,89.447 L102.946,89.529 L103.434,88.071 L104.821,88.316 L104.376,89.623 L104.786,89.695 L105.233,88.389 L106.448,88.603 L105.975,89.984 L106.397,90.058 L107,88.25 L103.16,87.564 L102.53,89.447 L102.53,89.447 Z M104.401,83.88 L106.012,84.268 C106.584,84.401 107.219,84.537 107.696,84.628 L107.692,84.644 C107.208,84.654 106.667,84.701 106.063,84.769 L104.051,84.984 L103.942,85.313 L105.61,86.232 C106.083,86.498 106.514,86.724 106.93,86.916 L106.926,86.933 C106.447,86.849 105.787,86.754 105.246,86.692 L103.523,86.476 L103.38,86.894 L107.3,87.372 L107.488,86.818 L105.83,85.893 C105.392,85.657 105.014,85.463 104.65,85.303 L104.654,85.289 C105.084,85.277 105.541,85.24 106.068,85.184 L108.117,84.943 L108.301,84.39 L104.537,83.473 L104.401,83.88 L104.401,83.88 Z M102.276,96.115 C101.044,95.896 100.137,96.457 99.837,97.252 L99.71,97.442 C99.427,97.802 99.124,98.216 98.835,98.649 L99.212,98.85 C99.358,98.576 99.575,98.225 99.792,97.908 L99.808,97.91 C99.843,98.51 100.341,99.025 101.329,99.199 C102.468,99.4 103.475,98.953 103.784,98.041 C104.083,97.137 103.508,96.332 102.276,96.115 L102.276,96.115 Z M103.374,97.955 C103.138,98.656 102.249,98.871 101.487,98.737 C101.479,98.736 101.471,98.734 101.464,98.733 C100.581,98.578 99.993,98.062 100.222,97.375 C100.451,96.701 101.302,96.436 102.118,96.578 C102.126,96.578 102.132,96.58 102.138,96.582 C102.967,96.727 103.627,97.223 103.374,97.955 L103.374,97.955 Z M104.055,93.935 C103.508,93.837 103.071,94.117 102.664,94.623 C102.316,95.045 102.049,95.187 101.689,95.125 C101.293,95.057 101.119,94.746 101.263,94.307 C101.365,94.006 101.577,93.745 101.783,93.577 L101.4,93.389 C101.203,93.543 100.97,93.881 100.865,94.203 C100.597,94.994 100.986,95.467 101.576,95.57 C102.138,95.67 102.553,95.442 102.992,94.918 C103.361,94.492 103.596,94.32 103.959,94.385 C104.225,94.433 104.475,94.658 104.322,95.115 C104.217,95.422 104.033,95.627 103.926,95.725 L104.289,95.915 C104.441,95.784 104.611,95.544 104.725,95.208 C104.948,94.55 104.655,94.041 104.055,93.935 L104.055,93.935 Z M105.231,90.421 C104.692,90.327 104.252,90.606 103.848,91.11 C103.491,91.532 103.223,91.672 102.866,91.61 C102.481,91.544 102.302,91.233 102.45,90.794 C102.55,90.495 102.757,90.232 102.958,90.061 L102.583,89.876 C102.386,90.032 102.155,90.37 102.048,90.69 C101.782,91.482 102.169,91.956 102.759,92.058 C103.325,92.159 103.739,91.93 104.175,91.407 C104.536,90.978 104.782,90.808 105.142,90.872 C105.402,90.917 105.662,91.144 105.505,91.601 C105.403,91.908 105.216,92.112 105.11,92.21 L105.471,92.4 C105.617,92.267 105.795,92.03 105.909,91.693 C106.131,91.041 105.831,90.528 105.231,90.421 L105.231,90.421 Z M105.231,90.421" class="Shape"/>
                <path d="M68.334,111.346 C68.174,111.825 68.465,112.175 69.025,112.481 C69.49,112.746 69.632,112.96 69.529,113.274 C69.418,113.61 69.037,113.796 68.533,113.709 C68.189,113.647 67.9,113.485 67.717,113.328 L67.467,113.672 C67.633,113.826 68.01,113.996 68.379,114.063 C69.287,114.223 69.873,113.852 70.045,113.334 C70.211,112.842 69.977,112.508 69.4,112.176 C68.929,111.897 68.742,111.703 68.843,111.391 C68.921,111.161 69.216,110.924 69.739,111.018 C70.089,111.08 70.315,111.221 70.413,111.301 L70.669,110.976 C70.526,110.856 70.273,110.731 69.876,110.663 C69.133,110.529 68.51,110.822 68.334,111.346 L68.334,111.346 Z M66.299,110.464 L67.883,110.743 L68.002,110.384 L65.922,110.018 L64.799,113.374 L66.957,113.753 L67.08,113.388 L65.418,113.095 L65.824,111.884 L67.322,112.149 L67.441,111.791 L65.943,111.527 L66.299,110.464 L66.299,110.464 Z M59.975,108.96 L58.854,112.314 L59.35,112.401 L60.473,109.047 L59.975,108.96 L59.975,108.96 Z M64.288,109.73 L63.059,111.231 C62.748,111.619 62.487,111.968 62.272,112.287 L62.254,112.285 C62.277,111.916 62.272,111.527 62.246,111.088 L62.133,109.342 L61.508,109.233 L60.112,112.542 L60.581,112.626 L61.165,111.208 C61.366,110.714 61.591,110.151 61.747,109.735 C61.724,110.159 61.733,110.62 61.755,111.122 L61.845,112.833 L62.222,112.897 L63.447,111.385 C63.799,110.957 64.097,110.569 64.359,110.201 L64.377,110.205 C64.227,110.621 64.074,111.187 63.945,111.655 L63.55,113.153 L64.03,113.237 L64.923,109.841 L64.288,109.73 L64.288,109.73 Z M59.547,108.886 L56.697,108.384 L56.574,108.749 L57.746,108.956 L56.746,111.944 L57.244,112.032 L58.244,109.044 L59.426,109.251 L59.547,108.886 L59.547,108.886 Z M81.725,112.812 L79.291,115.937 L79.805,116.027 L80.561,115.045 L81.922,115.285 L81.981,116.41 L82.51,116.504 L82.322,112.918 L81.725,112.812 L81.725,112.812 Z M80.78,114.718 L81.481,113.813 C81.626,113.625 81.752,113.434 81.879,113.244 L81.889,113.244 C81.883,113.449 81.868,113.66 81.879,113.892 L81.934,114.921 L80.78,114.718 L80.78,114.718 Z M89.042,114.492 L89.165,114.125 L87.085,113.758 L85.962,117.113 L88.116,117.502 L88.239,117.135 L86.579,116.842 L86.983,115.633 L88.483,115.898 L88.602,115.54 L87.102,115.275 L87.457,114.213 L89.042,114.492 L89.042,114.492 Z M73.766,111.726 C74.118,111.788 74.342,111.93 74.442,112.011 L74.696,111.684 C74.551,111.572 74.298,111.44 73.903,111.371 C73.159,111.24 72.532,111.541 72.358,112.063 C72.2,112.535 72.491,112.884 73.049,113.189 C73.514,113.453 73.658,113.669 73.553,113.983 C73.44,114.328 73.063,114.505 72.557,114.418 C72.213,114.356 71.922,114.203 71.739,114.043 L71.491,114.379 C71.657,114.535 72.034,114.705 72.403,114.771 C73.309,114.931 73.897,114.56 74.069,114.043 C74.235,113.549 74.001,113.215 73.423,112.883 C72.952,112.612 72.765,112.412 72.87,112.099 C72.948,111.867 73.245,111.632 73.766,111.726 L73.766,111.726 Z M86.133,113.589 L84.928,115.134 C84.61,115.544 84.317,115.936 84.067,116.302 C84.092,115.896 84.087,115.458 84.075,114.975 L84.03,113.218 L83.491,113.122 L83.618,116.698 L84.165,116.796 L86.667,113.683 L86.133,113.589 L86.133,113.589 Z M77.147,111.942 C76.112,111.759 75.126,112.321 74.766,113.398 C74.407,114.474 74.987,115.203 75.893,115.393 L76.108,115.486 C76.506,115.699 76.967,115.924 77.45,116.134 L77.718,115.794 C77.409,115.684 77.015,115.534 76.659,115.378 L76.665,115.361 C77.372,115.282 78.011,114.807 78.311,113.942 C78.639,112.957 78.192,112.126 77.147,111.942 L77.147,111.942 Z M77.772,113.873 C77.512,114.644 76.858,115.191 76.063,115.051 C75.292,114.916 75.053,114.195 75.301,113.478 C75.535,112.75 76.174,112.144 77.012,112.291 C77.833,112.442 77.997,113.199 77.772,113.873 L77.772,113.873 Z M77.772,113.873" class="Shape"/>
                <path d="M68.635,59.189 L70.283,62.178 L70.754,61.961 L69.108,58.972 L68.635,59.189 L68.635,59.189 Z M68.409,59.704 L68.227,59.379 L65.53,60.613 L65.71,60.946 L66.815,60.436 L68.292,63.095 L68.765,62.877 L67.298,60.212 L68.409,59.704 L68.409,59.704 Z M64.008,61.31 L64.424,64.866 L64.906,64.643 L64.773,63.527 L66.054,62.939 L66.968,63.701 L67.474,63.466 L64.578,61.047 L64.008,61.31 L64.008,61.31 Z M65.799,62.679 L64.697,63.181 L64.578,62.155 C64.549,61.944 64.502,61.73 64.461,61.532 L64.471,61.526 C64.621,61.671 64.772,61.824 64.961,61.984 L65.799,62.679 L65.799,62.679 Z M60.655,64.813 C60.446,64.776 60.196,64.782 59.897,64.82 C59.618,64.852 59.403,64.862 59.239,64.833 C59.055,64.8 58.936,64.721 58.856,64.573 C58.743,64.371 58.797,64.041 59.292,63.811 C59.626,63.656 59.913,63.636 60.069,63.631 L60.02,63.258 C59.819,63.262 59.504,63.309 59.129,63.481 C58.422,63.807 58.143,64.368 58.404,64.833 C58.535,65.071 58.754,65.203 59.047,65.254 C59.27,65.294 59.535,65.286 59.836,65.243 C60.088,65.212 60.283,65.206 60.438,65.233 C60.637,65.268 60.766,65.358 60.852,65.516 C61.024,65.816 60.854,66.158 60.373,66.374 C60.041,66.529 59.689,66.578 59.42,66.57 L59.477,66.944 C59.733,66.965 60.163,66.875 60.514,66.715 C61.373,66.313 61.569,65.73 61.317,65.266 C61.172,65.008 60.958,64.866 60.655,64.813 L60.655,64.813 Z M63.225,62.082 L63.045,61.75 L60.338,62.989 L60.527,63.316 L61.631,62.807 L63.106,65.473 L63.581,65.248 L62.112,62.591 L63.225,62.082 L63.225,62.082 Z M72.584,57.691 C72.207,57.625 71.793,57.678 71.379,57.869 C70.404,58.314 70.024,59.268 70.547,60.216 C70.84,60.739 71.301,61.062 71.826,61.154 C72.209,61.221 72.625,61.167 73.031,60.978 C73.961,60.556 74.426,59.657 73.853,58.63 C73.567,58.113 73.112,57.784 72.584,57.691 L72.584,57.691 Z M72.887,60.652 C72.616,60.777 72.346,60.805 72.094,60.761 C71.656,60.684 71.276,60.382 71.045,59.979 C70.686,59.322 70.754,58.551 71.533,58.197 C71.804,58.071 72.074,58.043 72.318,58.086 C72.773,58.166 73.152,58.489 73.363,58.876 C73.745,59.553 73.627,60.308 72.887,60.652 L72.887,60.652 Z M88.307,50.169 L88.508,51.93 C88.563,52.39 88.619,52.844 88.696,53.237 C88.409,52.933 88.075,52.629 87.686,52.299 L86.303,51.09 L85.799,51.326 L88.635,53.765 L89.16,53.525 L88.806,49.941 L88.307,50.169 L88.307,50.169 Z M92.739,51.48 L91.155,52.206 L90.563,51.128 L91.979,50.475 L91.803,50.159 L90.379,50.81 L89.861,49.864 L91.361,49.176 L91.175,48.851 L89.206,49.754 L90.862,52.745 L92.909,51.8 L92.739,51.48 L92.739,51.48 Z M84.891,51.736 L86.547,54.727 L87.02,54.509 L85.366,51.518 L84.891,51.736 L84.891,51.736 Z M85.274,54.28 C85.085,54.088 84.885,53.963 84.67,53.925 C84.584,53.91 84.496,53.908 84.399,53.912 C84.721,53.629 84.881,53.229 84.661,52.834 C84.54,52.599 84.321,52.442 84.063,52.396 C84.053,52.394 84.045,52.393 84.038,52.391 C83.72,52.335 83.356,52.414 82.868,52.636 C82.546,52.785 82.214,52.964 82.003,53.109 L83.634,56.064 L84.109,55.847 L83.39,54.549 L83.829,54.349 C84.036,54.263 84.208,54.232 84.364,54.26 C84.544,54.292 84.704,54.399 84.882,54.591 C85.193,54.914 85.417,55.136 85.525,55.195 L86.007,54.971 C85.868,54.892 85.624,54.643 85.274,54.28 L85.274,54.28 Z M83.706,54.035 L83.224,54.259 L82.62,53.163 C82.692,53.112 82.839,53.02 83.065,52.917 C83.335,52.798 83.586,52.746 83.795,52.782 C83.973,52.814 84.121,52.911 84.221,53.089 C84.407,53.431 84.208,53.807 83.706,54.035 L83.706,54.035 Z M75.959,55.835 L76.648,57.08 C76.906,57.553 77.115,57.906 77.375,58.292 C77.035,58.066 76.643,57.854 76.176,57.622 L74.172,56.651 L73.658,56.885 L75.314,59.876 L75.752,59.669 L75.045,58.397 C74.775,57.898 74.563,57.544 74.328,57.179 L74.342,57.165 C74.707,57.403 75.135,57.638 75.572,57.849 L77.572,58.835 L78.051,58.619 L76.399,55.628 L75.959,55.835 L75.959,55.835 Z M81.045,53.938 C81.027,53.935 81.01,53.931 80.992,53.928 C80.545,53.849 80.012,53.949 79.357,54.242 C78.99,54.415 78.656,54.601 78.39,54.768 L80.021,57.706 C80.265,57.615 80.558,57.5 80.89,57.346 C81.599,57.019 82.079,56.613 82.273,56.18 C82.461,55.746 82.421,55.265 82.152,54.774 C81.887,54.292 81.502,54.035 81.045,53.938 L81.045,53.938 Z M80.813,56.992 C80.629,57.078 80.458,57.159 80.329,57.192 L79.024,54.833 C79.129,54.757 79.309,54.654 79.557,54.54 C80.01,54.332 80.412,54.268 80.752,54.327 C81.148,54.397 81.459,54.637 81.664,55.015 C82.112,55.819 81.817,56.536 80.813,56.992 L80.813,56.992 Z M80.813,56.992" class="Shape"/>
            </g>
            <g class="ceilings">
                <path class="unit" d="M150.178,28.19 L148.053,34.542 L133.901,32.047 L136.026,25.695 L150.178,28.19 Z M150.178,28.19" id="3001"/>
                <path class="unit" d="M87.637,24.525 L95.028,39.916 L88.35,42.909 L80.94,27.475 L87.637,24.525 Z M87.637,24.525" id="3002"/>
                <path class="unit" d="M95.813,20.933 L103.112,36.292 L95.497,39.706 L88.108,24.314 L95.813,20.933 Z M95.813,20.933" id="3003"/>
                <path class="unit" d="M80.471,27.678 L87.881,43.119 L81.981,45.767 L74.551,30.282 L80.471,27.678 Z M80.471,27.678" id="3004"/>
                <path class="unit" d="M74.084,30.485 L81.512,45.977 L74.877,48.955 L67.42,33.41 L74.084,30.485 Z M74.084,30.485" id="3005"/>
                <path class="unit" d="M66.952,33.62 L74.418,49.159 L68.52,51.807 L61.034,36.217 L66.952,33.62 Z M66.952,33.62" id="3006"/>
                <path class="unit" d="M104.411,48.275 L107.278,53.238 L88.54,62.537 L85.743,57.411 L104.411,48.275 Z M104.411,48.275" id="3007"/>
                <path class="unit" d="M15.487,121.07 L26.854,128.527 L16.709,139.283 L5.338,131.833 L15.487,121.07 Z M15.487,121.07" id="3008"/>
                <path class="unit" d="M15.004,70.696 L22.969,86.671 L11.032,91.705 L3.067,75.73 L15.004,70.696 Z M15.004,70.696" id="3009"/>
                <path class="unit" d="M146.879,45.938 L144.336,53.539 L126.237,50.348 L128.78,42.747 L146.879,45.938 Z M146.879,45.938" id="3010"/>
                <path class="unit" d="M61.948,69.239 L69.014,83.207 L63.151,86.912 L55.745,72.269 L61.948,69.239 Z M61.948,69.239" id="3011"/>
                <path class="unit" d="M84.374,66.056 L87.487,71.523 L69.444,82.933 L66.09,76.292 L84.374,66.056 Z M84.374,66.056" id="3012"/>
                <path class="unit" d="M35.42,37.407 L43.004,53.196 L35.04,56.786 L27.413,40.886 L35.42,37.407 Z M35.42,37.407" id="3013"/>
                <path class="unit" d="M26.946,41.089 L34.583,56.99 L26.563,60.609 L18.874,44.596 L26.946,41.089 Z M26.946,41.089" id="3014"/>
                <path class="unit" d="M44.049,33.649 L51.514,49.354 L43.465,52.984 L35.891,37.197 L44.049,33.649 Z M44.049,33.649" id="3015"/>
                <path class="unit" d="M60.565,36.427 L68.049,52.017 L56.53,57.188 L49.063,41.482 L60.565,36.427 Z M60.565,36.427" id="3016"/>
                <path class="unit" d="M80.903,59.966 L84.159,65.675 L65.889,75.899 L62.407,69.01 L80.903,59.966 Z M80.903,59.966" id="3017"/>
                <path class="unit" d="M46.756,76.666 L54.661,92.285 L50.499,94.919 L41.403,79.283 L46.756,76.666 Z M46.756,76.666" id="3018"/>
                <path class="unit" d="M55.29,72.49 L62.723,87.184 L55.096,92.012 L47.215,76.437 L55.29,72.49 Z M55.29,72.49" id="3019"/>
                <path class="unit" d="M18.407,44.798 L26.092,60.819 L21.651,62.822 L13.993,46.719 L18.407,44.798 Z M18.407,44.798" id="3020"/>
                <path class="unit" d="M86.682,135.169 L93.625,137.455 L85.053,153.125 L78.362,150.853 L86.682,135.169 Z M86.682,135.169" id="3021"/>
                <path class="unit" d="M81.059,133.307 L86.217,135.016 L77.905,150.701 L72.758,148.955 L81.059,133.307 Z M81.059,133.307" id="3022"/>
                <path class="unit" d="M68.833,129.285 L74.672,131.208 L66.401,146.796 L60.594,144.832 L68.833,129.285 Z M68.833,129.285" id="3023"/>
                <path class="unit" d="M57.254,125.46 L63.256,127.445 L55.032,142.949 L48.672,140.791 L57.254,125.46 Z M57.254,125.46" id="3024"/>
                <path class="unit" d="M63.723,127.591 L68.375,129.132 L60.127,144.677 L55.499,143.101 L63.723,127.591 Z M63.723,127.591" id="3025"/>
                <path class="unit" d="M75.127,131.359 L80.592,133.154 L72.295,148.794 L66.856,146.957 L75.127,131.359 Z M75.127,131.359" id="3026"/>
        </g>
    </g>
</svg>