<?xml version="1.0" encoding="utf-8"?>
<!DOCTYPE svg PUBLIC "-//W3C//DTD SVG 1.1//EN" "http://www.w3.org/Graphics/SVG/1.1/DTD/svg11.dtd">
<svg version="1.1" xmlns="http://www.w3.org/2000/svg" xmlns:xlink="http://www.w3.org/1999/xlink" xml:space="preserve">
<g class="level" id="level1">
            <g class="shadow">
                    <path d="M325.1,141 L327.8,139.6 L327.9,139.6 L411.3,98 L413.1,86.2 L220.6,31 L219.7,31.4 L71.7,105.4 L70.5,106 L70.1,108.5 L67.2,107.7 L66.3,108.1 C58.4,112.1 50.4,116.1 42.4,120 L41.2,120.6 L39.4,132.4 L118,154.9 L109.6,159.1 L107.8,170.9 L161.9,186.4 L175.1,179.8 L173.6,189.6 L228.5,205.3 L249.9,194.6 L248.7,202.8 L292.6,215.4 L262.2,230.6 L260.4,242.4 L346.5,267.1 L388.8,245.9 L388.8,245.8 L399.7,240.4 L400.7,233.6 L390.5,230.7 L405,223.4 L406,217.1 L381.9,202.3 L377,201 L390.8,194.1 L392.6,182.3 L313.7,159.7 L306.6,163.3 L307,160.3 L303.9,159.4 L304.2,157.1 L297,155 L325.1,141 L325.1,141 Z M292.1,176.7 L288.9,175.8 L292.5,174 L292.1,176.7 L292.1,176.7 Z M292.1,176.7" class="shadow"/>
                </g>
                <g class="outline">
                    <path d="M325.1,111 L327.8,109.6 L327.9,109.6 L411.3,68 L413.1,56.2 L220.6,1 L219.7,1.4 L71.7,75.4 L70.5,76 L70.1,78.5 L67.2,77.7 L66.3,78.1 C58.4,82.1 50.4,86.1 42.4,90 L41.2,90.6 L39.4,102.4 L118,124.9 L109.6,129.1 L107.8,140.9 L161.9,156.4 L175.1,149.8 L173.6,159.7 L228.5,175.4 L249.9,164.7 L248.7,172.9 L292.6,185.5 L262.2,200.7 L260.4,212.5 L346.5,237.2 L388.8,216 L388.8,215.9 L399.7,210.5 L400.7,203.7 L390.5,200.8 L405,193.5 L406,187.2 L400.5,184.2 L400.4,176.1 L387.4,172.9 L383.8,174.3 L381.7,172.5 L377,171 L390.8,164.1 L392.6,152.3 L313.7,129.7 L306.6,133.3 L307,130.3 L303.9,129.4 L304.2,127.1 L297,125 L325.1,111 L325.1,111 Z M292.1,146.7 L288.9,145.8 L292.5,144 L292.1,146.7 L292.1,146.7 Z M292.1,146.7" class="outline"/>
                </g>
                <g class="label">
                    <path d="M23.4,21.9 C22.4,21.9 21.6,22 21.1,22.2 C20.7,22.3 20.6,22.6 20.6,23 L20.6,32.7 C20.6,33.1 20.9,33.3 21.2,33.3 C21.5,33.3 21.8,33.1 21.8,32.7 L21.8,29 L23.3,29 C26.2,29 27.7,27.6 27.7,25.3 C27.7,23.3 26.4,21.9 23.4,21.9 L23.4,21.9 L23.4,21.9 Z M23.3,27.9 L21.9,27.9 L21.9,23.2 C22.3,23.1 22.9,23.1 23.4,23.1 C25.7,23.1 26.5,24.2 26.5,25.5 C26.5,26.7 25.8,27.9 23.3,27.9 L23.3,27.9 L23.3,27.9 Z M104.3,21.9 C103.7,21.9 102.7,21.9 102.1,22.1 C101.7,22.2 101.5,22.5 101.5,22.9 L101.5,32.4 C101.5,32.8 101.6,33.1 102.2,33.2 C102.7,33.3 103.4,33.4 104.4,33.4 C107.9,33.4 109.5,30.9 109.5,27.7 C109.5,24.3 108,21.9 104.3,21.9 L104.3,21.9 L104.3,21.9 Z M104.5,32.1 C103.8,32.1 103.3,32.1 102.8,32 L102.8,23.1 C103.3,23 103.9,23 104.4,23 C107.3,23 108.4,24.9 108.4,27.4 C108.3,30.3 107.1,32.1 104.5,32.1 L104.5,32.1 L104.5,32.1 Z M8.9,21.9 C8.5,21.9 8.3,22.2 8.3,22.6 L8.3,31.4 C7.5,31.9 6.3,32.2 5.6,32.2 C3.7,32.2 2.6,31.3 2.6,29.2 L2.6,22.7 C2.6,22.3 2.3,22 2,22 C1.7,22 1.4,22.3 1.4,22.7 L1.4,29.5 C1.4,31.8 2.9,33.4 5.4,33.4 C7.2,33.4 8.2,32.9 9.2,32.4 C9.6,32.2 9.6,31.9 9.6,31.5 L9.6,22.6 C9.5,22.2 9.2,21.9 8.9,21.9 L8.9,21.9 L8.9,21.9 Z M73.8,21.9 C70.9,21.9 69.1,24.2 69.1,27.8 C69.1,31.2 70.9,33.3 73.8,33.3 C76.7,33.3 78.5,30.9 78.5,27.3 C78.5,23.9 76.7,21.9 73.8,21.9 L73.8,21.9 L73.8,21.9 Z M73.8,32.1 C71.7,32.1 70.4,30.4 70.4,27.8 C70.4,24.8 71.6,23 73.8,23 C76,23 77.2,24.7 77.2,27.2 C77.2,30.2 76,32.1 73.8,32.1 L73.8,32.1 L73.8,32.1 Z M14.6,21.9 C13.6,21.9 12.8,22 12.3,22.2 C11.9,22.3 11.8,22.6 11.8,23 L11.8,32.7 C11.8,33.1 12.1,33.3 12.4,33.3 C12.7,33.3 13,33 13,32.6 L13,29 L14.5,29 C17.4,29 18.9,27.6 18.9,25.3 C18.9,23.3 17.6,21.9 14.6,21.9 L14.6,21.9 L14.6,21.9 Z M14.4,27.9 L13,27.9 L13,23.2 C13.4,23.1 14,23.1 14.5,23.1 C16.8,23.1 17.6,24.2 17.6,25.5 C17.6,26.7 16.9,27.9 14.4,27.9 L14.4,27.9 L14.4,27.9 Z M35.4,32 L30.6,32 L30.6,28.1 L34.5,28.1 C34.9,28.1 35.1,27.8 35.1,27.5 C35.1,27.2 34.9,26.9 34.5,26.9 L30.6,26.9 L30.6,23.2 L35.2,23.2 C35.6,23.2 35.8,22.9 35.8,22.6 C35.8,22.3 35.6,22 35.2,22 L30.4,22 C29.7,22 29.3,22.4 29.3,23 L29.3,32.3 C29.3,32.9 29.7,33.3 30.4,33.3 L35.3,33.3 C35.7,33.3 35.9,33 35.9,32.7 C36.1,32.2 35.8,32 35.4,32 L35.4,32 L35.4,32 Z M66.2,29.1 C65.9,28.7 65.6,28.4 65.2,28.1 C66.6,27.6 67.6,26.6 67.6,25.1 C67.6,23.2 66.3,21.9 63.4,21.9 C62.3,21.9 61.5,22 61,22.2 C60.6,22.3 60.5,22.6 60.5,23 L60.5,32.7 C60.5,33.1 60.8,33.3 61.1,33.3 C61.5,33.3 61.7,33.1 61.7,32.7 L61.7,28.5 L63,28.5 C64.2,28.5 64.6,29 65.2,29.9 C65.6,30.5 66,31.5 66.5,32.9 C66.6,33.2 66.8,33.3 67.1,33.3 C67.4,33.3 67.7,33.1 67.7,32.7 C67.7,32.6 67.7,32.4 67.6,32.3 C67.2,31 66.7,29.8 66.2,29.1 L66.2,29.1 L66.2,29.1 Z M63.2,27.2 L61.8,27.2 L61.8,23.2 C62.2,23.1 62.7,23.1 63.4,23.1 C65.7,23.1 66.4,24 66.4,25.2 C66.3,26.8 64.8,27.2 63.2,27.2 L63.2,27.2 L63.2,27.2 Z M87.9,21.9 C87.5,21.9 87.3,22.2 87.3,22.6 L87.3,31.4 C86.5,31.9 85.3,32.2 84.6,32.2 C82.7,32.2 81.6,31.3 81.6,29.2 L81.6,22.7 C81.6,22.3 81.3,22 81,22 C80.7,22 80.4,22.3 80.4,22.7 L80.4,29.5 C80.4,31.8 81.9,33.4 84.4,33.4 C86.2,33.4 87.2,32.9 88.2,32.4 C88.6,32.2 88.6,31.9 88.6,31.5 L88.6,22.6 C88.5,22.2 88.2,21.9 87.9,21.9 L87.9,21.9 L87.9,21.9 Z M98.6,21.9 C98.2,21.9 98,22.2 98,22.6 L98,31.2 L92.4,22.5 C92.2,22.2 91.9,22 91.6,22 C91.1,22 90.8,22.3 90.8,22.9 L90.8,32.7 C90.8,33.1 91.1,33.3 91.4,33.3 C91.8,33.3 92,33.1 92,32.7 L92,24 L97.5,32.8 C97.7,33.1 98,33.3 98.3,33.3 C98.8,33.3 99.1,32.9 99.1,32.5 L99.1,22.7 C99.2,22.2 98.9,21.9 98.6,21.9 L98.6,21.9 L98.6,21.9 Z M43.5,29.1 C43.2,28.7 42.9,28.4 42.5,28.1 C43.9,27.6 44.9,26.6 44.9,25.1 C44.9,23.2 43.6,21.9 40.7,21.9 C39.6,21.9 38.8,22 38.3,22.2 C37.9,22.3 37.8,22.6 37.8,23 L37.8,32.7 C37.8,33.1 38.1,33.3 38.4,33.3 C38.8,33.3 39,33.1 39,32.7 L39,28.5 L40.2,28.5 C41.4,28.5 41.8,29 42.4,29.9 C42.8,30.5 43.2,31.5 43.7,32.9 C43.8,33.2 44,33.3 44.3,33.3 C44.6,33.3 45,33 45,32.6 C45,32.5 45,32.3 44.9,32.2 C44.5,31 44,29.8 43.5,29.1 L43.5,29.1 L43.5,29.1 Z M40.5,27.2 L39,27.2 L39,23.2 C39.4,23.1 39.9,23.1 40.6,23.1 C42.9,23.1 43.6,24 43.6,25.2 C43.6,26.8 42.1,27.2 40.5,27.2 L40.5,27.2 L40.5,27.2 Z M57.5,26.9 L54.5,26.9 C54.1,26.9 53.9,27.2 53.9,27.5 C53.9,27.8 54.1,28.1 54.5,28.1 L57,28.1 L57,31.7 C56.4,31.9 55.8,32.1 54.8,32.1 C52.6,32.1 51.2,30.6 51.2,27.7 C51.2,24.5 52.7,23.1 54.9,23.1 C55.7,23.1 56.3,23.2 57,23.5 C57.2,23.6 57.4,23.7 57.6,23.7 C57.9,23.7 58.2,23.5 58.2,23.1 C58.2,22.8 58.1,22.7 57.8,22.5 C57.2,22.2 56.2,21.9 55.1,21.9 C52.3,21.9 50,23.9 50,27.8 C50,31.3 52,33.3 54.9,33.3 C56.2,33.3 57.1,33 57.7,32.7 C58,32.6 58.2,32.3 58.2,31.9 L58.2,27.6 C58.2,27.2 58,26.9 57.5,26.9 L57.5,26.9 L57.5,26.9 Z M57.5,26.9" class="Shape"/>
                </g>
                <g class="background">
                    <path d="M404.3,188.7 L399.1,185.8 L399.1,177.8 L387.8,175.1 L384.2,176.5 L382,175 L269.3,142.7 L259.3,140.2 L228.2,131.3 L197,117.9 C191.2,115.4 187.9,113.9 187,113.4 L184,111.7 L184.6,111.4 L184.7,111.4 L186.6,111 L188.4,110.9 L190.7,110.9 L192.8,111 L192.9,111 L195.9,111.3 L196,111.3 L196.9,111.4 L201.8,108.9 L300.8,137.3 L304.4,135.5 L304.9,132.2 L204.2,103.4 L213.2,98.9 L249.8,88.2 L323.7,109.4 L328.8,106.9 L329.3,103.6 L260.2,83.8 L270,78.9 L284.5,66 L285,62.7 L255.4,54.2 L174,95 L158.3,96.4 L145.6,103.4 L74,82.9 L68.3,85.7 L67.8,89 L146.3,111.5 L153.2,119 L251.1,147.1 L255.3,155.8 L356,184.7 L366.3,192.8 L350.7,200.6 L350.2,203.9 L387.3,214.5 L398.4,208.9 L398.9,205.6 L384.6,201.5 L403.8,191.9 L404.3,188.7 L404.3,188.7 Z M404.3,188.7" class="walkway"/>
                    <path d="M367.9,194.7 L369.2,186.4 L356.4,176.3 L273.8,152.6 L253,162.9 L251.8,171.2 L299.9,185 L264.9,202.5 L263.6,210.8 L346.6,234.6 L386.7,214.5 L388,206.2 L360.6,198.3 L367.9,194.7 L367.9,194.7 Z M376.2,168.5 L388.4,162.4 L389.7,154.1 L313.9,132.4 L295.4,141.7 L294.1,150 L344.8,164.6 L351.1,161.4 L376.2,168.5 L376.2,168.5 Z M378.4,178.7 L378.4,190.4 L390,193.4 L399.1,189.8 L399.1,177.9 L387.8,175.2 L378.4,178.7 L378.4,178.7 Z M220.9,3.7 C171.6,28.4 122.3,53.1 72.9,77.7 L72.3,81.7 L67.6,80.3 C59.6,84.3 51.7,88.3 43.7,92.2 L42.4,100.5 L125.2,124.2 L112.1,130.8 L110.9,139.1 L161.9,153.7 L182.3,143.5 L187.2,144.9 L177.9,149.6 L176.7,157.9 L228.5,172.7 L259.8,157.1 L261.1,148.8 L255.9,147.3 L252.5,142.2 L257.6,143.4 L270.6,143.1 L282,146.4 L300.3,137.2 L301.6,128.9 L290.3,125.7 L323.2,109.2 L323.8,105.6 L327.9,106.8 L409.2,66.1 L410.4,57.8 L220.9,3.7 L220.9,3.7 Z M269.5,70.3 L255.1,77.5 L254.5,81.1 L249.6,79.7 L212.8,90.5 L199.2,97.3 L198.5,102 L196.7,102.9 L190.8,102.4 C187.4,102.3 185,102.6 183.6,103.2 C182.4,103.8 181.8,104.3 181.8,104.9 L181.8,104.8 L180.5,113.1 L180.5,113.5 L180.7,113.9 L180.8,114 L181,114.2 L181.4,114.6 L182.2,115.1 L185.2,116.7 L204.4,125.1 L153.5,110.5 L148,104.4 L152.9,101.7 L152.1,106.9 L172.8,112.8 C175.2,111.6 177.6,110.4 180.1,109.2 L181.3,100.9 L171.7,98.1 L172.4,98 L172.6,97.9 L253.8,57.3 L276.5,63.8 L269.5,70.3 L269.5,70.3 Z M269.5,70.3" class="wall"/>
                </g>
                <g class="ceilings">
                    <path class="unit" d="M284,57.8 L279.6,61.6 L305.8,69.1 L312.3,65.9 L284,57.8 L284,57.8 Z M284,57.8" id="2001"/>
                    <path class="unit" d="M262.2,74.1 L255.5,77.5 L327.7,98.2 L334.4,94.8 L262.2,74.1 L262.2,74.1 Z M262.2,74.1" id="2002"/>
                    <path class="unit" d="M212.1,90.9 L199.6,97.2 L282.4,120.9 L294.9,114.6 L212.1,90.9 L212.1,90.9 Z M212.1,90.9" id="2003"/>
                    <path class="unit" d="M231.2,85.2 L222.1,87.9 L302.4,110.9 L309.1,107.5 L231.2,85.2 L231.2,85.2 Z M231.2,85.2" id="2004"/>
                    <path class="unit" d="M221.5,88.1 L212.8,90.7 L212.5,90.8 L295.3,114.5 C297.5,113.4 299.8,112.3 302,111.1 L221.5,88.1 L221.5,88.1 Z M221.5,88.1" id="2005"/>
                    <path class="unit" d="M313.5,132.8 L295.7,141.7 L319.9,148.6 L337.7,139.7 L313.5,132.8 L313.5,132.8 Z M313.5,132.8" id="2006"/>
                    <path class="unit" d="M269.3,70.6 L262.6,74 L334.8,94.7 L341.5,91.3 L269.3,70.6 L269.3,70.6 Z M269.3,70.6" id="2007"/>
                    <path class="unit" d="M313.1,66.1 L306.2,69.5 L279.3,61.8 L269.6,70.3 L341.9,91 L363.1,80.4 L313.1,66.1 L313.1,66.1 Z M313.1,66.1" id="2008"/>
                    <path class="unit" d="M338.6,140 L320.8,148.9 L345,155.8 L362.8,146.9 L338.6,140 L338.6,140 Z M338.6,140" id="2009"/>
                    <path class="unit" d="M363.6,147.1 L352.2,152.8 L376.4,159.7 L387.8,154 L363.6,147.1 L363.6,147.1 Z M363.6,147.1" id="2010"/>
                    <path class="unit" d="M304.5,182.8 L265.2,202.5 L346.6,225.8 L385.9,206.1 L304.5,182.8 L304.5,182.8 Z M304.5,182.8" id="2011"/>
                    <path class="unit" d="M273.3,152.9 L253.4,162.9 L282.9,171.4 L302.8,161.4 L273.3,152.9 Z M273.3,152.9" id="2012"/>
                    <path class="unit" d="M220.5,4.1 L175.8,26.5 L363.5,80.3 L408.2,57.9 L220.5,4.1 L220.5,4.1 Z M220.5,4.1" id="2014"/>
                    <path class="unit" d="M175.4,26.7 L162.6,33.1 L240.7,55.5 L253.5,49.1 L175.4,26.7 L175.4,26.7 Z M175.4,26.7" id="2015"/>
                    <path class="unit" d="M162.2,33.3 L149.1,39.9 L227.2,62.3 L240.3,55.7 L162.2,33.3 L162.2,33.3 Z M162.2,33.3" id="2016"/>
                    <path class="unit" d="M148.8,40 L134.9,47 L213,69.4 L226.9,62.5 L148.8,40 L148.8,40 Z M148.8,40" id="2017"/>
                    <path class="unit" d="M115.5,56.7 L108.8,60.1 L186.9,82.5 L193.6,79.1 L115.5,56.7 L115.5,56.7 Z M115.5,56.7" id="2018"/>
                    <path class="unit" d="M160.3,95.6 L153.8,98.8 L172.9,104.3 C175.1,103.2 177.2,102.2 179.4,101.1 L160.3,95.6 L160.3,95.6 Z M160.3,95.6" id="2019"/>
                    <path class="unit" d="M201.2,100.7 L196.4,103.1 L196.1,103.1 L191,102.6 C187.4,102.4 184.9,102.7 183.4,103.3 C181.8,104 181.3,104.8 181.9,105.6 C182.2,106.1 183.3,106.8 185.2,107.8 L185.9,108.2 C186.5,108.6 189.7,110 195.5,112.5 L212.5,104 L201.2,100.7 L201.2,100.7 Z M201.2,100.7" id="2020"/>
                    <path class="unit" d="M101.4,63.7 L94.6,67.1 L172.7,89.5 L179.5,86.1 L101.4,63.7 L101.4,63.7 Z M101.4,63.7" id="2021"/>
                    <path class="unit" d="M108.4,60.2 L101.8,63.5 L179.9,85.9 L186.5,82.6 L108.4,60.2 L108.4,60.2 Z M108.4,60.2" id="2022"/>
                    <path class="unit" d="M87.2,70.8 L80.5,74.2 L150.8,94.4 L156.6,91.2 L157.7,91.1 L87.2,70.8 L87.2,70.8 Z M87.2,70.8" id="2023"/>
                    <path class="unit" d="M80.1,74.4 L73.3,77.8 L144,98.1 L150.4,94.6 L80.1,74.4 L80.1,74.4 Z M80.1,74.4" id="2024"/>
                    <path class="unit" d="M145.7,114.3 L170,121.3 L176.9,117.8 L152.6,110.8 L145.7,114.3" id="2025"/>
                    <path class="unit" d="M145.2,103.2 L67.2,80.8 L44.1,92.4 L135.8,118.7 L152,110.6 L145.2,103.2 L145.2,103.2 Z M145.2,103.2" id="2026"/>
                    <path class="unit" d="M177.7,118 L170.4,121.7 L145.3,114.5 L112.5,130.9 L161.9,145.1 L202,125 L177.7,118 L177.7,118 Z M177.7,118" id="2027"/>
                    <path class="unit" d="M202.8,125.3 L183.1,135.2 L197.7,139.4 L217.4,129.5 L202.8,125.3 L202.8,125.3 Z M202.8,125.3" id="2028"/>
                    <path class="unit" d="M94.2,67.3 L87.5,70.7 L158.5,91 L172.4,89.7 L94.2,67.3 L94.2,67.3 Z M94.2,67.3" id="2029"/>
                    <path class="unit" d="M134.5,47.1 L123,52.9 L201.1,75.3 L212.5,69.6 L134.5,47.1 L134.5,47.1 Z M134.5,47.1" id="2030"/>
                    <path class="unit" d="M213.4,104.2 L196.3,112.8 L206.6,117.2 L225.6,107.7 L213.4,104.2 L213.4,104.2 Z M213.4,104.2" id="2031"/>
                    <path class="unit" d="M239.7,111.7 L218.5,122.3 L227.1,126 L229,126.5 L251.7,115.1 L239.7,111.7 L239.7,111.7 Z M239.7,111.7" id="2032"/>
                    <path class="unit" d="M218.2,129.7 L198.5,139.6 L213.2,143.8 L232.9,133.9 L218.2,129.7 L218.2,129.7 Z M218.2,129.7" id="2033"/>
                    <path class="unit" d="M255.8,147.5 L249.9,138.8 L221.3,154.8 L187.2,145.2 L178.2,149.7 L228.5,164.1 L259.8,148.9 L255.8,147.5 L255.8,147.5 Z M255.8,147.5" id="2034"/>
                    <path class="unit" d="M226.3,107.9 L207.1,117.5 L217.7,122.1 L238.8,111.5 L226.3,107.9 L226.3,107.9 Z M226.3,107.9" id="2035"/>
                    <path class="unit" d="M252.4,115.4 L229.7,126.8 L242,130.3 L264.8,118.9 L252.4,115.4 L252.4,115.4 Z M252.4,115.4" id="2036"/>
                    <path class="unit" d="M233.8,133.9 L213.1,144.2 L197.7,139.8 L187.7,144.8 L221.4,154.1 L249.3,138.6 L233.8,133.9 L233.8,133.9 Z M233.8,133.9" id="2037"/>
                    <path class="unit" d="M122.7,53.1 L115.9,56.5 L194,78.9 L200.8,75.5 L122.7,53.1 L122.7,53.1 Z M122.7,53.1" id="2038"/>
                    <path class="unit" d="M240.3,82.5 L231.7,85 L249.1,90 L256.1,87.4 L240.3,82.5 L240.3,82.5 Z M240.3,82.5" id="2039"/>
                    <path class="unit" d="M259,122.4 L242.8,130.5 L257.8,134.8 L270.5,134.3 L280.2,128.5 L259,122.4 L259,122.4 Z M259,122.4" id="2040"/>
                    <path class="unit" d="M265.6,119.2 L259.4,122.3 L280.9,128.6 L270.9,134.5 L281.9,137.7 L300.3,128.8 L265.6,119.2 L265.6,119.2 Z M265.6,119.2" id="2041"/>
                    <path class="unit" d="M354.9,176.3 L349.3,174.7 L329.5,184.6 L329.3,184.7 L355.5,192.2 L367.4,186.2 L354.9,176.3 L354.9,176.3 Z M354.9,176.3" id="2042"/>
                    <path class="unit" d="M325.5,168 L325.3,167.9 L305.4,177.9 L305.8,178 L328.7,184.3 L348.6,174.4 L325.5,168 L325.5,168 Z M325.5,168" id="2043"/>
                    <path class="unit" d="M303.6,161.6 L283.7,171.6 L304.9,177.8 L324.7,167.8 L303.6,161.6 L303.6,161.6 Z M303.6,161.6" id="2044"/>
                    <path class="unit" d="M249.1,79.9 L240.3,82.5 L256.2,87.5 L249.2,90.1 L309.5,107.4 L322.3,101 L249.1,79.9 L249.1,79.9 Z M249.1,79.9" id="2045"/>
                    <path class="unit" d="M388.1,175.1 L378.4,178.7 L378.4,184.2 L390.5,187.4 L399.4,184.4 L399.4,177.8 L388.1,175.1 L388.1,175.1 Z M388.1,175.1" id="2046"/>
        </g>
    </g>
</svg>