<?xml version="1.0" encoding="utf-8"?>
<!DOCTYPE svg PUBLIC "-//W3C//DTD SVG 1.1//EN" "http://www.w3.org/Graphics/SVG/1.1/DTD/svg11.dtd">
<svg version="1.1" xmlns="http://www.w3.org/2000/svg" xmlns:xlink="http://www.w3.org/1999/xlink" xml:space="preserve">
<g class="level" id="level0">
            <g class="shadow">
                <path d="M431.4,119.5 L340.4,166 L340.3,166 L327.8,172.4 L327.8,172.5 L284.9,194.4 L279.3,197.2 L279.3,197.3 L200.4,237.7 L152.3,223.9 L136.4,232 L128.9,235.8 L120.8,240 L87.9,230.5 L76.5,227.4 L52.5,220.4 L54,211 L107.9,183.4 L18.8,157.8 L20.3,148.4 L216.4,47.9 L432.9,110.1 L431.4,119.5" class="shadow"/>
            </g>
            <g class="outline">
                <path d="M121.3,198.7 L87.5,189 L76,185.9 L49.8,178.2 L51.8,165.3 L101.2,140.1 L16.1,115.7 L18.1,102.8 L216.6,1.3 L436.2,64.3 L434.2,77.2 L340.8,125 L340.7,125 L330.3,130.3 L330.3,130.4 L285.4,153.4 L285.3,153.4 L281.9,155.1 L281.9,155.2 L201,196.5 L152.9,182.7 L121.3,198.7 L121.3,198.7 Z M121.3,198.7" class="outline"/>
            </g>
            <g class="label">
                <path d="M38.9,13.8 L34.1,13.8 L34.1,9.9 L38,9.9 C38.4,9.9 38.6,9.6 38.6,9.3 C38.6,9 38.4,8.7 38,8.7 L34.1,8.7 L34.1,5 L38.7,5 C39.1,5 39.3,4.7 39.3,4.4 C39.3,4.1 39.1,3.8 38.7,3.8 L34,3.8 C33.3,3.8 32.9,4.2 32.9,4.8 L32.9,14 C32.9,14.6 33.3,15 34,15 L38.9,15 C39.3,15 39.5,14.7 39.5,14.4 C39.5,14.1 39.3,13.8 38.9,13.8 L38.9,13.8 L38.9,13.8 Z M30.4,3.7 C30.1,3.7 29.9,4 29.8,4.3 C29.4,7.4 28.8,10.4 28,13.5 L28,13.5 C27.1,10.7 26.4,7.3 25.7,5 C25.4,4 25.1,3.7 24.6,3.7 C24.2,3.7 23.8,4 23.6,4.9 C22.9,7.2 22,10.9 21.2,13.5 L21.2,13.5 C20.4,10.4 20,7.4 19.6,4.3 C19.5,3.9 19.3,3.7 18.9,3.7 C18.5,3.7 18.3,4 18.3,4.3 L18.3,4.7 C18.7,7.8 19.3,11 20,13.7 C20.2,14.7 20.6,15 21.1,15 C21.6,15 21.9,14.7 22.2,13.9 C23.1,11.4 23.7,8.6 24.6,5.5 L24.6,5.5 C25.6,8.7 26.1,11.4 26.9,13.9 C27.2,14.8 27.5,15 28,15 C28.5,15 28.8,14.7 29,13.9 C29.8,10.9 30.4,7.8 30.9,4.6 L30.9,4.2 C31,4 30.8,3.7 30.4,3.7 L30.4,3.7 L30.4,3.7 Z M12.4,3.7 C9.6,3.7 7.7,6 7.7,9.6 C7.7,13 9.5,15.1 12.4,15.1 C15.3,15.1 17.1,12.7 17.1,9.1 C17.1,5.8 15.3,3.7 12.4,3.7 L12.4,3.7 L12.4,3.7 Z M12.4,13.9 C10.3,13.9 9,12.2 9,9.7 C9,6.7 10.2,4.9 12.4,4.9 C14.6,4.9 15.8,6.6 15.8,9.1 C15.8,12.1 14.6,13.9 12.4,13.9 L12.4,13.9 L12.4,13.9 Z M6.7,13.8 L2.4,13.8 L2.4,4.4 C2.4,4 2.1,3.7 1.8,3.7 C1.4,3.7 1.2,4 1.2,4.4 L1.2,14 C1.2,14.6 1.6,15 2.3,15 L6.8,15 C7.2,15 7.5,14.7 7.5,14.4 C7.4,14.1 7.1,13.8 6.7,13.8 L6.7,13.8 L6.7,13.8 Z M102.1,3.7 C101.7,3.7 101.5,4 101.5,4.4 L101.5,13 L95.9,4.3 C95.7,4 95.4,3.8 95.1,3.8 C94.6,3.8 94.3,4.1 94.3,4.7 L94.3,14.5 C94.3,14.9 94.6,15.1 94.9,15.1 C95.3,15.1 95.5,14.9 95.5,14.5 L95.5,5.8 L101,14.6 C101.2,14.9 101.5,15.1 101.8,15.1 C102.3,15.1 102.6,14.7 102.6,14.3 L102.6,4.4 C102.6,4 102.4,3.7 102.1,3.7 L102.1,3.7 L102.1,3.7 Z M47,10.9 C46.7,10.5 46.4,10.2 46,9.9 C47.4,9.4 48.4,8.4 48.4,6.9 C48.4,5 47.1,3.7 44.2,3.7 C43.1,3.7 42.3,3.8 41.8,4 C41.4,4.1 41.3,4.4 41.3,4.8 L41.3,14.5 C41.3,14.9 41.6,15.1 41.9,15.1 C42.3,15.1 42.5,14.9 42.5,14.5 L42.5,10.2 L43.7,10.2 C44.9,10.2 45.3,10.7 45.9,11.6 C46.3,12.2 46.7,13.2 47.2,14.6 C47.3,14.9 47.5,15 47.8,15 C48.1,15 48.4,14.8 48.4,14.4 C48.4,14.3 48.4,14.1 48.3,14 C48,12.9 47.5,11.7 47,10.9 L47,10.9 L47,10.9 Z M43.9,9 L42.5,9 L42.5,5 C42.9,4.9 43.4,4.9 44.1,4.9 C46.4,4.9 47.1,5.8 47.1,7 C47.1,8.6 45.5,9.1 43.9,9 L43.9,9 L43.9,9 Z M91.3,3.7 C90.9,3.7 90.7,4 90.7,4.4 L90.7,13.2 C89.9,13.7 88.7,14 88,14 C86.1,14 85,13.1 85,11 L85,4.4 C85,4 84.7,3.7 84.4,3.7 C84,3.7 83.8,4 83.8,4.4 L83.8,11.2 C83.8,13.5 85.3,15.1 87.8,15.1 C89.6,15.1 90.6,14.6 91.6,14.1 C92,13.9 92,13.6 92,13.2 L92,4.4 C92,4 91.7,3.7 91.3,3.7 L91.3,3.7 L91.3,3.7 Z M107.7,3.7 C107.1,3.7 106.1,3.7 105.5,3.9 C105.1,4 105,4.3 105,4.7 L105,14.2 C105,14.6 105.1,14.9 105.7,15 C106.2,15.1 106.9,15.2 107.9,15.2 C111.4,15.2 113,12.7 113,9.5 C113,6.1 111.4,3.7 107.7,3.7 L107.7,3.7 L107.7,3.7 Z M107.9,13.9 C107.2,13.9 106.7,13.9 106.2,13.8 L106.2,5 C106.7,4.9 107.3,4.9 107.8,4.9 C110.7,4.9 111.8,6.8 111.8,9.3 C111.7,12.1 110.6,13.9 107.9,13.9 L107.9,13.9 L107.9,13.9 Z M77.3,3.7 C74.4,3.7 72.6,6 72.6,9.6 C72.6,13 74.4,15.1 77.3,15.1 C80.2,15.1 82,12.7 82,9.1 C82,5.8 80.2,3.7 77.3,3.7 L77.3,3.7 L77.3,3.7 Z M77.3,13.9 C75.2,13.9 73.9,12.2 73.9,9.6 C73.9,6.6 75.1,4.8 77.3,4.8 C79.5,4.8 80.7,6.5 80.7,9 C80.7,12.1 79.4,13.9 77.3,13.9 L77.3,13.9 L77.3,13.9 Z M61,8.8 L58,8.8 C57.6,8.8 57.4,9.1 57.4,9.4 C57.4,9.7 57.6,10 58,10 L60.5,10 L60.5,13.6 C59.9,13.8 59.3,14 58.3,14 C56.1,14 54.7,12.5 54.7,9.6 C54.7,6.4 56.2,5 58.4,5 C59.2,5 59.8,5.1 60.5,5.4 C60.7,5.5 60.9,5.6 61.1,5.6 C61.4,5.6 61.7,5.4 61.7,5 C61.7,4.7 61.6,4.6 61.3,4.4 C60.7,4.1 59.7,3.8 58.6,3.8 C55.8,3.8 53.5,5.8 53.5,9.7 C53.5,13.2 55.5,15.2 58.4,15.2 C59.7,15.2 60.6,14.9 61.2,14.6 C61.5,14.5 61.7,14.2 61.7,13.8 L61.7,9.5 C61.7,9 61.4,8.8 61,8.8 L61,8.8 L61,8.8 Z M69.7,10.9 C69.4,10.5 69.1,10.2 68.7,9.9 C70.1,9.4 71.1,8.4 71.1,6.9 C71.1,5 69.8,3.7 66.9,3.7 C65.8,3.7 65,3.8 64.5,4 C64.1,4.1 64,4.3 64,4.7 L64,14.4 C64,14.8 64.3,15 64.6,15 C65,15 65.2,14.8 65.2,14.4 L65.2,10.2 L66.4,10.2 C67.6,10.2 68,10.7 68.6,11.6 C69,12.2 69.4,13.2 69.9,14.6 C70,14.9 70.2,15 70.5,15 C70.8,15 71.1,14.8 71.1,14.4 C71.1,14.3 71.1,14.1 71,14 C70.7,12.9 70.2,11.7 69.7,10.9 L69.7,10.9 L69.7,10.9 Z M66.7,9 L65.3,9 L65.3,5 C65.7,4.9 66.2,4.9 66.9,4.9 C69.2,4.9 69.9,5.8 69.9,7 C69.8,8.6 68.2,9.1 66.7,9 L66.7,9 L66.7,9 Z M66.7,9" class="Shape"/>
                <path d="M69.5,196.1 C69.2,196.4 69,196.7 68.7,196.8 C68.4,196.9 68.1,196.9 67.8,196.8 C67.3,196.7 67,196.4 66.8,196 C66.6,195.6 66.6,195.1 66.7,194.5 L70.7,195.8 C70.7,195.7 70.8,195.6 70.8,195.6 C71.1,194.7 71.1,193.9 70.8,193.3 C70.5,192.7 70,192.2 69.3,192 C68.6,191.8 67.9,191.8 67.2,192.2 C66.6,192.6 66.1,193.2 65.8,194.1 C65.5,195 65.5,195.7 65.8,196.4 C66.1,197 66.7,197.5 67.4,197.7 C68,197.9 68.6,197.9 69.1,197.7 C69.6,197.5 70,197.2 70.4,196.7 L69.5,196.1 L69.5,196.1 Z M67.8,192.7 C68.2,192.5 68.6,192.5 69,192.6 C69.5,192.8 69.8,193.1 70,193.5 C70.1,193.8 70.1,194.2 70,194.6 L67,193.6 C67.2,193.2 67.5,192.8 67.8,192.7 L67.8,192.7 L67.8,192.7 Z M81.2,195.7 C80.5,195.5 79.9,195.6 79.3,195.9 L80.2,193.2 L79.3,192.9 L76.9,200.4 L77.8,200.7 L78.8,197.7 C78.9,197.3 79.1,197 79.3,196.7 C79.5,196.5 79.7,196.4 80,196.3 C80.3,196.2 80.6,196.2 80.8,196.3 C81.2,196.4 81.4,196.6 81.5,196.9 C81.6,197.2 81.6,197.5 81.5,198 L80.4,201.4 L81.3,201.7 L82.4,198.3 C82.6,197.8 82.6,197.3 82.6,197 C82.6,196.7 82.4,196.4 82.2,196.1 C82,196 81.6,195.8 81.2,195.7 L81.2,195.7 L81.2,195.7 Z M64.9,191.3 L65.8,191.6 L66,190.9 L65.1,190.6 L65.7,188.7 L64.6,189 L64.2,190.3 L63.5,190.1 L63.3,190.8 L64,191 L63,194.1 C62.8,194.7 62.7,195 62.8,195.2 C62.8,195.4 62.9,195.6 63.1,195.7 C63.2,195.9 63.5,196 63.8,196.1 C64,196.2 64.2,196.2 64.5,196.2 L64.6,195.3 C64.4,195.3 64.3,195.2 64.2,195.2 C64.1,195.2 64,195.1 63.9,195 C63.8,194.9 63.8,194.9 63.8,194.8 C63.8,194.7 63.8,194.5 63.9,194.3 L64.9,191.3 L64.9,191.3 Z M49.1,183.3 C48.7,183 48.3,182.7 47.7,182.6 C47.2,182.4 46.7,182.4 46.2,182.4 C45.7,182.4 45.3,182.6 45,182.8 C44.7,183.1 44.5,183.4 44.3,183.8 C44.2,184.1 44.2,184.5 44.3,184.8 C44.4,185.1 44.6,185.5 44.9,185.8 C45.1,186 45.6,186.3 46.2,186.7 C46.8,187.1 47.2,187.4 47.4,187.5 C47.7,187.7 47.9,187.9 47.9,188.2 C48,188.4 48,188.6 47.9,188.9 C47.8,189.1 47.7,189.3 47.5,189.5 C47.3,189.6 47,189.7 46.7,189.8 C46.4,189.9 46,189.8 45.6,189.6 C45.2,189.5 44.8,189.3 44.5,189 C44.2,188.7 44,188.5 43.9,188.2 C43.8,187.9 43.8,187.6 43.9,187.2 L42.9,187 C42.8,187.5 42.7,188 42.9,188.5 C43,189 43.3,189.4 43.7,189.7 C44.1,190 44.6,190.3 45.3,190.5 C45.8,190.7 46.3,190.7 46.8,190.7 C47.3,190.6 47.7,190.5 48,190.2 C48.3,189.9 48.6,189.6 48.7,189.2 C48.8,188.8 48.8,188.4 48.7,188 C48.6,187.6 48.4,187.3 48,186.9 C47.7,186.7 47.2,186.3 46.5,185.9 C45.8,185.5 45.3,185.1 45.2,184.9 C45.1,184.7 45,184.4 45.1,184.1 C45.2,183.8 45.4,183.6 45.8,183.4 C46.1,183.3 46.6,183.3 47.2,183.5 C47.8,183.7 48.2,183.9 48.4,184.3 C48.6,184.6 48.7,185.1 48.6,185.5 L49.6,185.7 C49.7,185.3 49.7,184.8 49.6,184.4 C49.7,184 49.5,183.6 49.1,183.3 L49.1,183.3 L49.1,183.3 Z M53,184.6 L51.9,184.9 L51.5,186.2 L50.8,186 L50.6,186.7 L51.3,186.9 L50.3,190 C50.1,190.6 50,190.9 50.1,191.1 C50.1,191.3 50.2,191.5 50.4,191.6 C50.5,191.8 50.8,191.9 51.1,192 C51.3,192.1 51.5,192.1 51.8,192.1 L51.9,191.2 C51.7,191.2 51.6,191.1 51.5,191.1 C51.4,191.1 51.3,191 51.2,190.9 C51.1,190.8 51.1,190.8 51.1,190.7 C51.1,190.6 51.1,190.4 51.2,190.2 L52.2,187 L53.1,187.3 L53.3,186.6 L52.4,186.3 L53,184.6 L53,184.6 Z M61.9,187.4 C61.5,187.1 61.1,186.8 60.5,186.7 C60,186.5 59.5,186.5 59,186.5 C58.5,186.5 58.1,186.7 57.8,186.9 C57.5,187.2 57.3,187.5 57.1,187.9 C57,188.2 57,188.6 57.1,188.9 C57.2,189.2 57.4,189.6 57.7,189.9 C57.9,190.1 58.4,190.4 59,190.8 C59.6,191.2 60,191.5 60.2,191.6 C60.5,191.8 60.7,192 60.7,192.3 C60.8,192.5 60.8,192.7 60.7,193 C60.6,193.2 60.5,193.4 60.3,193.6 C60.1,193.7 59.8,193.8 59.5,193.9 C59.2,193.9 58.8,193.9 58.4,193.7 C58,193.6 57.6,193.4 57.3,193.1 C57,192.8 56.8,192.6 56.7,192.3 C56.6,192 56.6,191.7 56.7,191.3 L55.7,191.1 C55.6,191.6 55.5,192.1 55.7,192.6 C55.8,193.1 56.1,193.5 56.5,193.8 C56.9,194.1 57.4,194.4 58.1,194.7 C58.6,194.9 59.1,194.9 59.6,194.9 C60.1,194.8 60.5,194.7 60.8,194.4 C61.1,194.1 61.4,193.8 61.5,193.4 C61.6,193 61.6,192.6 61.5,192.2 C61.4,191.8 61.2,191.5 60.8,191.1 C60.5,190.9 60,190.5 59.3,190.1 C58.6,189.7 58.1,189.3 58,189.1 C57.9,188.9 57.8,188.6 57.9,188.3 C58,188 58.2,187.8 58.6,187.6 C58.9,187.5 59.4,187.5 60,187.7 C60.6,187.9 61,188.1 61.2,188.5 C61.4,188.8 61.5,189.3 61.4,189.7 L62.4,189.9 C62.5,189.5 62.5,189 62.4,188.6 C62.3,188.2 62.3,187.8 61.9,187.4 L61.9,187.4 L61.9,187.4 Z M75.3,193.8 C74.9,193.7 74.6,193.7 74.3,193.7 C74,193.8 73.7,193.9 73.4,194.1 L73.6,193.4 L72.8,193.1 L70.4,200.6 L71.3,200.9 L72.2,198.3 C72.3,198.5 72.4,198.8 72.6,199 C72.8,199.2 73.1,199.4 73.4,199.5 C73.8,199.6 74.3,199.6 74.7,199.5 C75.2,199.4 75.6,199.1 75.9,198.8 C76.2,198.4 76.5,198 76.7,197.4 C76.9,196.9 76.9,196.4 76.9,195.9 C76.9,195.4 76.7,195 76.4,194.6 C76.1,194.2 75.7,193.9 75.3,193.8 L75.3,193.8 L75.3,193.8 Z M75.7,197 C75.5,197.7 75.1,198.2 74.7,198.5 C74.3,198.7 73.9,198.8 73.5,198.7 C73.1,198.6 72.8,198.3 72.6,197.9 C72.4,197.5 72.5,196.9 72.7,196.2 C72.9,195.5 73.3,195 73.7,194.8 C74.1,194.5 74.5,194.5 74.9,194.6 C75.3,194.7 75.6,195 75.8,195.4 C76,195.8 76,196.3 75.7,197 L75.7,197 L75.7,197 Z M119.9,208.3 C119.2,208.1 118.5,208.1 117.8,208.5 C117.2,208.9 116.7,209.5 116.4,210.4 C116.1,211.3 116.1,212 116.4,212.7 C116.7,213.3 117.3,213.8 118,214 C118.6,214.2 119.2,214.2 119.7,214 C120.2,213.8 120.6,213.5 121,213 L120.1,212.6 C119.8,212.9 119.6,213.2 119.3,213.3 C119,213.4 118.7,213.4 118.4,213.3 C117.9,213.2 117.6,212.9 117.4,212.5 C117.2,212.1 117.2,211.6 117.3,211 L121.3,212.3 C121.3,212.2 121.4,212.1 121.4,212.1 C121.7,211.2 121.7,210.4 121.4,209.8 C121.1,208.9 120.6,208.5 119.9,208.3 L119.9,208.3 L119.9,208.3 Z M120.6,211.1 L117.6,210.1 C117.8,209.6 118.1,209.3 118.4,209.1 C118.8,208.9 119.2,208.9 119.6,209 C120.1,209.2 120.4,209.5 120.6,209.9 C120.7,210.2 120.7,210.6 120.6,211.1 L120.6,211.1 L120.6,211.1 Z M117,207.7 C116.7,207.4 116.5,207.2 116.2,207.1 C116,207 115.8,207 115.5,207.1 C115.3,207.2 115,207.4 114.7,207.7 L115,206.9 L114.2,206.6 L112.4,212 L113.3,212.3 L114.2,209.5 C114.3,209.1 114.5,208.8 114.7,208.5 C114.8,208.3 115,208.2 115.2,208.1 C115.4,208 115.6,208 115.8,208.1 C116,208.2 116.2,208.3 116.4,208.5 L117,207.7 L117,207.7 Z M86.7,197.5 C86,197.3 85.3,197.3 84.6,197.7 C84,198.1 83.5,198.7 83.2,199.6 C82.9,200.5 82.9,201.2 83.2,201.9 C83.5,202.5 84.1,203 84.8,203.2 C85.4,203.4 86,203.4 86.5,203.2 C87,203 87.4,202.7 87.8,202.2 L86.9,201.8 C86.6,202.1 86.4,202.4 86.1,202.5 C85.8,202.6 85.5,202.6 85.1,202.5 C84.6,202.4 84.3,202.1 84.1,201.7 C83.9,201.3 83.9,200.8 84,200.2 L88,201.5 C88,201.4 88.1,201.3 88.1,201.3 C88.4,200.4 88.4,199.6 88.1,199 C88,198.2 87.5,197.7 86.7,197.5 L86.7,197.5 L86.7,197.5 Z M87.5,200.3 L84.5,199.3 C84.7,198.8 85,198.5 85.3,198.3 C85.6,198.1 86.1,198.1 86.5,198.2 C87,198.4 87.3,198.7 87.5,199.1 C87.6,199.4 87.6,199.8 87.5,200.3 L87.5,200.3 L87.5,200.3 Z M130.3,211.8 L130.9,209.9 L129.8,210.2 L129.4,211.5 L128.7,211.3 L128.5,212 L129.2,212.2 L128.2,215.3 C128,215.9 127.9,216.2 128,216.4 C128,216.6 128.1,216.8 128.3,216.9 C128.5,217.1 128.7,217.2 129,217.3 C129.2,217.4 129.4,217.4 129.7,217.4 L129.8,216.5 C129.6,216.5 129.5,216.4 129.4,216.4 C129.3,216.4 129.2,216.3 129.1,216.2 C129,216.1 129,216.1 129,216 C129,215.9 129,215.7 129.1,215.5 L130.1,212.3 L131,212.6 L131.2,211.9 L130.3,211.8 L130.3,211.8 Z M125.7,210.1 C125,209.9 124.3,209.9 123.6,210.3 C123,210.7 122.5,211.3 122.2,212.2 C121.9,213.1 121.9,213.8 122.2,214.5 C122.5,215.1 123.1,215.6 123.8,215.8 C124.4,216 125,216 125.5,215.8 C126,215.6 126.4,215.3 126.8,214.8 L125.9,214.4 C125.6,214.7 125.4,215 125.1,215.1 C124.8,215.2 124.5,215.2 124.1,215.1 C123.6,215 123.3,214.7 123.1,214.3 C122.9,213.9 122.9,213.4 123,212.8 L127,214.1 C127,214 127.1,213.9 127.1,213.9 C127.4,213 127.4,212.2 127.1,211.6 C126.9,210.8 126.4,210.4 125.7,210.1 L125.7,210.1 L125.7,210.1 Z M126.4,212.9 L123.4,211.9 C123.6,211.4 123.9,211.1 124.2,210.9 C124.6,210.7 125,210.7 125.4,210.8 C125.9,211 126.2,211.3 126.4,211.7 C126.5,212.1 126.5,212.5 126.4,212.9 L126.4,212.9 L126.4,212.9 Z M112.1,206.6 L113,206.9 L113.2,206.2 L112.3,205.9 L112.9,204 L111.8,204.3 L111.4,205.6 L110.7,205.4 L110.5,206.1 L111.2,206.3 L110.2,209.4 C110,210 109.9,210.3 110,210.5 C110,210.7 110.1,210.9 110.3,211 C110.4,211.2 110.7,211.3 111,211.4 C111.2,211.5 111.4,211.5 111.7,211.5 L111.8,210.6 C111.6,210.6 111.5,210.5 111.4,210.5 C111.3,210.5 111.2,210.4 111.1,210.3 C111,210.2 111,210.2 111,210.1 C111,210 111,209.8 111.1,209.6 L112.1,206.6 L112.1,206.6 Z M93.7,200 C93.5,199.8 93.2,199.6 92.9,199.5 C92.1,199.3 91.5,199.4 90.9,199.8 L91.2,199 L90.4,198.7 L88.6,204.1 L89.5,204.4 L90.5,201.4 C90.7,200.7 91,200.3 91.4,200.1 C91.8,199.9 92.1,199.9 92.5,200.1 C92.7,200.2 92.9,200.3 93.1,200.5 C93.2,200.7 93.3,200.9 93.3,201.1 C93.3,201.3 93.3,201.6 93.1,202 L92,205.3 L92.9,205.6 L94,202.3 C94.1,201.9 94.2,201.6 94.2,201.4 C94.2,201.1 94.2,200.9 94.1,200.6 C94,200.3 94,200.2 93.7,200 L93.7,200 L93.7,200 Z M99,201.7 C98.7,201.5 98.4,201.3 97.9,201.2 C97.6,201.1 97.3,201.1 97.1,201.1 C96.8,201.1 96.6,201.1 96.4,201.2 C96.2,201.3 96,201.4 95.8,201.6 C95.6,201.8 95.5,202 95.4,202.2 C95.3,202.5 95.3,202.7 95.4,203 C95.5,203.3 95.6,203.5 95.8,203.7 C96,203.9 96.4,204.2 97.1,204.6 C97.6,204.9 97.8,205.1 97.9,205.2 C98,205.4 98.1,205.6 98,205.8 C97.9,206 97.8,206.2 97.5,206.3 C97.2,206.4 96.9,206.4 96.5,206.3 C96.1,206.2 95.8,206 95.6,205.7 C95.4,205.4 95.4,205.1 95.4,204.7 L94.4,204.5 C94.3,205.1 94.4,205.6 94.7,206 C95,206.4 95.5,206.7 96.2,207 C96.6,207.1 97,207.2 97.4,207.1 C97.8,207.1 98.1,206.9 98.4,206.7 C98.7,206.5 98.8,206.2 98.9,205.9 C99,205.6 99,205.3 98.9,205 C98.8,204.7 98.7,204.5 98.5,204.3 C98.3,204.1 97.9,203.8 97.3,203.4 C96.9,203.1 96.6,203 96.6,202.9 C96.5,202.8 96.4,202.7 96.3,202.5 L96.3,202.1 C96.4,201.9 96.5,201.8 96.7,201.7 C96.9,201.6 97.3,201.6 97.7,201.8 C98.1,201.9 98.3,202.1 98.5,202.3 C98.6,202.5 98.7,202.8 98.6,203.1 L99.5,203.3 C99.6,202.9 99.5,202.6 99.5,202.4 C99.4,202.1 99.3,201.9 99,201.7 L99,201.7 L99,201.7 Z M109,202.7 C108.6,202.4 108.2,202.1 107.6,202 C107.1,201.8 106.6,201.8 106.1,201.8 C105.6,201.8 105.2,202 104.9,202.2 C104.6,202.5 104.4,202.8 104.2,203.2 C104.1,203.5 104.1,203.9 104.2,204.2 C104.3,204.5 104.5,204.9 104.8,205.2 C105,205.4 105.5,205.7 106.1,206.1 C106.7,206.5 107.1,206.8 107.3,206.9 C107.6,207.1 107.8,207.3 107.8,207.6 C107.9,207.8 107.9,208 107.8,208.3 C107.7,208.5 107.6,208.7 107.4,208.9 C107.2,209.1 106.9,209.1 106.6,209.2 C106.3,209.2 105.9,209.2 105.5,209 C105.1,208.9 104.7,208.7 104.4,208.4 C104.1,208.1 103.9,207.9 103.8,207.6 C103.7,207.3 103.7,207 103.8,206.6 L102.8,206.4 C102.7,206.9 102.6,207.4 102.8,207.9 C102.9,208.4 103.2,208.8 103.6,209.1 C104,209.4 104.5,209.7 105.2,209.9 C105.7,210.1 106.2,210.1 106.7,210.1 C107.2,210 107.6,209.9 108,209.6 C108.3,209.3 108.6,209 108.7,208.6 C108.8,208.2 108.8,207.8 108.7,207.4 C108.6,207 108.4,206.7 108,206.3 C107.7,206.1 107.2,205.7 106.5,205.3 C105.8,204.9 105.3,204.5 105.2,204.3 C105.1,204.1 105,203.8 105.1,203.5 C105.2,203.2 105.4,203 105.8,202.8 C106.1,202.7 106.6,202.7 107.2,202.9 C107.8,203.1 108.2,203.3 108.4,203.7 C108.6,204 108.7,204.5 108.6,204.9 L109.6,205.1 C109.7,204.7 109.7,204.2 109.6,203.8 C109.6,203.4 109.4,203.1 109,202.7 L109,202.7 L109,202.7 Z M109,202.7" class="Shape"/>
            </g>
            <g class="background">
                <path d="M295.6,72.8 L254.9,93.2 L341.2,121.8 L327.9,128.6 L241.7,99.8 L198.5,121.4 L286,150 L279.8,153.1 L192.4,124.5 L172.2,134.6 L193.6,144.1 L184.2,146.1 L170.6,142.7 L162.5,153.4 L161.4,154.8 C160.6,155.7 159.1,156.9 157.1,158.2 C155,159.6 152.6,161 149.9,162.5 C147.4,163.8 144.7,165.1 141.6,166.5 C138.7,167.8 135.6,169 132.4,170.2 C129.4,171.3 126,172.5 122.4,173.7 C118.7,174.9 115.1,176 111.6,177 L100,180.1 C98.8,180.4 96.9,181.5 94.4,183.3 C91.9,185.1 89.9,186.1 88.4,186.4 L77,183.3 L64.3,179.5 L74.1,176.3 C81.9,173.7 88.6,171.6 94.2,169.8 L104.3,166.4 C107.9,165.1 111.1,163.9 113.8,162.8 C116.7,161.6 119.6,160.3 122.5,158.8 C124.8,157.6 126.8,156.5 128.5,155.4 L129.8,154.6 L136.5,150.1 C139,148.3 141,146.8 142.5,145.5 C144,144.1 145.1,142.9 145.9,141.7 C146.7,140.5 147.1,139.3 147.1,138.1 C147.2,137 146.9,135.9 146.4,134.7 C145.9,133.6 145.2,132.3 144.1,130.9 C142.8,129.2 141.8,127.7 141.2,126.5 C140.4,125 139.9,123.7 139.8,122.6 C139.7,120.4 140.9,118.6 143.6,117.2 C146,115.9 149.7,114.8 154.7,114 C158.5,113.4 163.1,112.8 168.4,112.4 L264.7,64.2 L295.6,72.8" class="walkway"/>
                <path d="M432.1,75.4 L341.1,121.9 L252.1,96.3 L253.6,86.9 L281.3,72.7 L262.3,67.2 L168.8,115 L177.8,117.6 L176.2,118.4 L177.6,117.7 L176.2,126.4 L192.4,118.1 L197.4,119.5 L198.1,115.2 L214.4,106.8 L241,93.4 L330,119 L328.5,128.4 L285.6,150.3 L280.6,148.9 L279.9,153.3 L201,193.6 L152.9,179.8 L137,187.9 L129.5,191.7 L121.4,195.8 L88.5,186.4 L90,177 L91.5,177.4 L91.5,177.1 L101.4,174.7 L101.5,174.2 L101.9,174.1 C106.1,173 109.8,172 113.3,171 L113.5,170.9 C117.1,169.9 120.6,168.8 123.9,167.7 L124.1,167.6 C127.4,166.5 130.6,165.4 133.7,164.2 C136.6,163.1 139.6,161.9 142.5,160.6 L142.8,160.5 C145.9,159.1 148.6,157.8 150.7,156.6 C150.8,156.6 150.8,156.5 150.9,156.5 L150.9,156.5 L151.1,156.4 C153.7,155 155.9,153.6 157.9,152.3 L158,152.3 C159.9,151 161.2,149.9 162.2,148.9 L163.2,147.6 L163.3,147.5 L167.2,142.2 L167.2,142.1 L171,136.8 L172.1,129.5 L168.7,131.2 L147.3,125.1 L148.3,118.7 C147,119.1 146,119.4 145.1,119.8 C144.4,120.1 143.8,120.4 143.2,120.7 L142.7,121 C143.4,122.1 144.3,123.5 145.5,125 C147.6,127.7 148.7,130.1 148.6,132.2 L148.6,132.5 L148.6,132.8 L148.5,133.3 L148.5,133.2 L147,142.6 C146.8,143.6 146.4,144.7 145.7,145.8 C145,146.8 144,148 142.7,149.2 L142.5,149.3 C141.3,150.5 139.4,151.9 136.9,153.7 L136.8,153.8 L137,152.8 L136.9,153.8 L136.7,153.9 L132.1,157.1 L129,159.2 C127.1,160.4 125.2,161.5 123.4,162.5 L123.1,162.6 L122.9,162.7 L114.3,166.7 L112.2,167.6 C110.2,168.4 108,169.3 105.5,170.2 L105.5,170.2 L105,170.4 L95.6,173.6 L95.2,173.7 C88.7,175.7 81.1,177.9 72.3,180.1 L68.8,181 L53,176.3 L54.5,166.9 L108.4,139.3 L19.3,113.7 L20.8,104.3 L217.1,3.8 L433.6,66 L432.1,75.4" class="wall"/>
            </g>
            <g class="ceilings">
                <path class="unit" d="M270.7,78.8 L357.9,103.8 L381.4,91.8 L309.2,71 L292.8,79.4 L277.8,75.1 L270.7,78.8" id="1000"/>
                <path class="unit" d="M277.9,75 L292.9,79.4 L309.2,71.1 L294.2,66.8 L277.9,75" id="1001"/>
                <path class="unit" d="M349.6,108 L262.4,83 L254.6,87 L341.8,112 L349.6,108" id="1002"/>
                <path class="unit" d="M357.4,104 L270.2,79 L262.8,82.8 L350,107.8 L357.4,104" id="1003"/>
                <path class="unit" d="M309.7,128.4 L222.5,103.4 L215,107.2 L302.2,132.2 L309.7,128.4" id="1004"/>
                <path class="unit" d="M293.9,136.5 L206.7,111.5 L199.1,115.4 L286.3,140.4 L293.9,136.5" id="1005"/>
                <path class="unit" d="M279.7,143.7 L192.6,118.7 L185.1,122.5 L272.2,147.5 L279.7,143.7" id="1006"/>
                <path class="unit" d="M301.7,132.5 L214.5,107.5 L207,111.3 L294.2,136.3 L301.7,132.5" id="1007"/>
                <path class="unit" d="M328.3,118.9 L241.1,93.9 L222.9,103.2 L310.1,128.2 L328.3,118.9" id="1008"/>
                <path class="unit" d="M143.3,110.9 L57.1,86.2 L49.4,90.2 L139.8,116.1 C139.7,114 140.9,112.3 143.3,110.9" id="1009"/>
                <path class="unit" d="M141.2,120.2 C140.4,118.8 139.9,117.5 139.8,116.4 L49,90.3 L21.7,104.2 L82.7,121.7 L93.6,116.1 L147.4,131.6 C147.4,129.6 146.3,127.3 144.3,124.6 C142.9,122.9 141.9,121.4 141.2,120.2" id="1010"/>
                <path class="unit" d="M149.8,115.5 L169.4,121.1 L176.8,117.4 L156.4,112.1 L149.8,115.5" id="1011"/>
                <path class="unit" d="M154,107.6 L65,82.1 L57.4,86 L143.5,110.7 C146,109.4 149.5,108.4 154,107.6" id="1012"/>
                <path class="unit" d="M192.8,93.3 L96.9,65.8 L89.3,69.7 L185.2,97.2 L192.8,93.3" id="1013"/>
                <path class="unit" d="M168.9,105.5 L73,78 L65.5,81.8 L154.7,107.4 C158.3,106.8 162.7,106.3 168,105.9 L168.9,105.5" id="1014"/>
                <path class="unit" d="M176.8,101.5 L80.9,74 L73.4,77.8 L169.2,105.3 L176.8,101.5" id="1015"/>
                <path class="unit" d="M184.8,97.4 L88.9,69.9 L81.4,73.7 L177.3,101.2 L184.8,97.4" id="1016"/>
                <path class="unit" d="M238.8,69.8 L217.2,63.6 L209.4,67.6 L231,73.8 L238.8,69.8" id="1017"/>
                <path class="unit" d="M201.2,71.7 L222.8,77.9 L230.6,73.9 L209,67.7 L201.2,71.7" id="1018"/>
                <path class="unit" d="M199.9,71.7 L216.3,63.3 L143,42.2 L105.2,61.6 L201,89.1 L222.4,78.2 L199.9,71.7" id="1019"/>
                <path class="unit" d="M200.6,89.3 L104.7,61.8 L97.3,65.6 L193.2,93.1 C195.7,91.8 198.1,90.6 200.6,89.3" id="1020"/>
                <path class="unit" d="M83.6,122 L143.3,139.1 C144.7,137.8 145.8,136.5 146.4,135.4 C147.1,134.2 147.4,133.1 147.5,131.9 L94.2,116.6 L83.6,122" id="1021"/>
                <path class="unit" d="M113.7,137 L137.4,143.8 C139.7,142.2 141.5,140.7 143,139.4 L121.3,133.2 L113.7,137" id="1022"/>
                <path class="unit" d="M97.8,145.2 L123.7,152.6 C125.9,151.4 127.8,150.3 129.3,149.3 L130.4,148.6 L105.2,141.4 C102.8,142.6 100.3,143.9 97.8,145.2" id="1023"/>
                <path class="unit" d="M105.2,160.5 L81.3,153.6 L73.9,157.4 L95.7,163.7 C99.1,162.6 102.3,161.5 105.2,160.5" id="1024"/>
                <path class="unit" d="M123.2,152.8 L97.3,145.4 L89.6,149.3 L115,156.6 C118.2,155.3 120.9,154 123.2,152.8" id="1025"/>
                <path class="unit" d="M114.6,156.8 L89.2,149.5 L81.7,153.3 L105.7,160.2 C108.8,159.2 111.8,158 114.6,156.8" id="1026"/>
                <path class="unit" d="M105.7,141.1 L130.8,148.3 L137.1,144 L113.4,137.2 L105.7,141.1" id="1027"/>
                <path class="unit" d="M102.7,174.3 L129.7,182.1 L137.2,178.3 L113.5,171.5 L102.7,174.3" id="1028"/>
                <path class="unit" d="M95.2,163.8 L73.5,157.6 L55.4,166.9 L69.5,171 C79.8,168.3 88.3,166 95.2,163.8" id="1029"/>
                <path class="unit" d="M91.1,177.1 L122,186 L129.3,182.3 L102.1,174.5 L91.1,177.1" id="1030"/>
                <path class="unit" d="M114,171.2 L137.6,178 L145.1,174.2 L124.1,168.2 L114,171.2" id="1031"/>
                <path class="unit" d="M240.9,163.6 L167.5,142.5 L163.9,147.5 L233.3,167.4 L240.9,163.6" id="1032"/>
                <path class="unit" d="M225,171.7 L158.4,152.6 C156.4,154 154.2,155.3 151.7,156.6 L217.5,175.5 L225,171.7" id="1033"/>
                <path class="unit" d="M209.2,179.8 L143.1,160.8 C140.5,161.9 137.7,163.1 134.5,164.4 L201.6,183.7 L209.2,179.8" id="1034"/>
                <path class="unit" d="M217.1,175.7 L151.3,156.8 C148.8,158.1 146.3,159.4 143.6,160.6 L209.6,179.6 L217.1,175.7" id="1035"/>
                <path class="unit" d="M233,167.6 L163.8,147.7 L162.8,148.9 C162,149.8 160.7,150.9 158.8,152.2 L225.5,171.3 L233,167.6" id="1036"/>
                <path class="unit" d="M271.8,147.8 L184.6,122.8 L173.1,128.7 L172.7,131 L257.3,155.2 L271.8,147.8 Z M271.8,147.8" id="1037"/>
                <path class="unit" d="M153.1,170.1 L134,164.6 C131,165.8 127.9,166.9 124.6,167.9 L145.5,173.9 L153.1,170.1" id="1038"/>
                <path class="unit" d="M167,29.8 L143.4,42 L239.3,69.5 L262.8,57.3 L167,29.8 L167,29.8 Z M167,29.8" id="1039"/>
                <path class="unit" d="M431.9,65.9 L381.8,91.5 L167.1,29.9 L217.2,4.3 L431.9,65.9 L431.9,65.9 Z M431.9,65.9" id="1040"/>
                <path class="unit" d="M171.5,137 L167.8,142.2 L241.4,163.4 L256.6,155.6 L172.6,131.5 L171.5,137 Z M171.5,137" id="1041"/>
        </g>
    </g>
</svg>