<?xml version="1.0" encoding="utf-8"?>
<!DOCTYPE svg PUBLIC "-//W3C//DTD SVG 1.1//EN" "http://www.w3.org/Graphics/SVG/1.1/DTD/svg11.dtd">
<svg version="1.1" xmlns="http://www.w3.org/2000/svg" xmlns:xlink="http://www.w3.org/1999/xlink" xml:space="preserve">
<g class="level" id="level2">
            <g class="shadow">
                <path d="M224.522,179.78 L192.862,170.707 L192.862,170.709 L189.625,169.799 L178.798,166.692 L178.798,166.671 L113.644,147.991 L115.512,135.771 L119.936,133.556 L110.191,134.725 L85.033,127.496 L86.872,115.278 L108.225,104.601 L119.933,107.976 L120.353,108.816 L124.76,114.325 C126.11,111.553 127.915,108.747 130.158,105.942 C134.445,100.589 140.22,95.442 147.321,90.64 C163.992,79.338 187.581,70.073 217.533,63.05 L193.865,56.264 L195.733,44.044 L223.532,30.132 L330.391,60.779 L328.523,72.999 L310.928,81.796 L277.178,100.338 L277.063,101.161 L261.633,108.865 L243.726,118.109 L227.935,112.528 L215.997,118.51 L246.358,127.209 L245.492,132.92 L277.32,142.056 L275.481,154.275 L252.153,165.95 L251.924,165.867 L250.179,166.744 L250.158,166.937 L224.522,179.78 L224.522,179.78 Z M224.522,179.78" class="shadow"/>
            </g>
            <g class="outline">
                <path d="M224.522,150.171 L192.862,141.096 L192.862,141.098 L189.625,140.189 L178.798,137.082 L178.798,137.061 L113.644,118.381 L115.512,106.162 L119.936,103.947 L110.191,105.116 L85.033,97.887 L86.872,85.669 L108.225,74.992 L119.933,78.366 L120.353,79.206 L124.76,84.715 C126.11,81.944 127.915,79.137 130.158,76.332 C134.445,70.979 140.22,65.832 147.321,61.03 C163.992,49.727 187.581,40.462 217.533,33.439 L193.865,26.654 L195.733,14.434 L223.532,0.523 L330.391,31.169 L328.523,43.389 L310.928,52.186 L277.178,70.728 L277.063,71.551 L261.633,79.255 L243.726,88.5 L227.935,82.919 L215.997,88.901 L246.358,97.6 L245.492,103.311 L277.32,112.447 L275.481,124.666 L252.153,136.341 L251.924,136.258 L250.179,137.134 L250.158,137.327 L224.522,150.171 L224.522,150.171 Z M224.522,150.171" class="outline"/>
            </g>
            <g class="label">
                <path d="M24.921,7.248 C24.568,7.248 24.296,7.504 24.296,7.904 L24.296,17.924 C24.296,18.324 24.552,18.564 24.904,18.564 C25.256,18.564 25.528,18.324 25.528,17.924 L25.528,7.904 C25.529,7.503 25.273,7.248 24.921,7.248 L24.921,7.248 Z M45.675,12.273 L42.682,12.273 C42.282,12.273 42.057,12.577 42.057,12.849 C42.057,13.169 42.265,13.41 42.682,13.41 L45.163,13.41 L45.163,17.059 C44.603,17.283 43.914,17.443 42.986,17.443 C40.761,17.443 39.337,15.922 39.337,13.042 C39.337,9.889 40.794,8.4 43.034,8.4 C43.818,8.4 44.41,8.544 45.131,8.8 C45.339,8.88 45.531,8.96 45.692,8.96 C45.996,8.96 46.252,8.736 46.252,8.384 C46.252,8.128 46.108,7.952 45.868,7.824 C45.228,7.488 44.251,7.184 43.131,7.184 C40.282,7.184 38.073,9.137 38.073,13.106 C38.073,16.643 40.042,18.628 42.987,18.628 C44.331,18.628 45.164,18.324 45.836,18.02 C46.156,17.876 46.364,17.667 46.364,17.268 L46.364,12.962 C46.363,12.53 46.091,12.273 45.675,12.273 L45.675,12.273 Z M35.659,7.248 C35.306,7.248 35.098,7.504 35.098,7.904 L35.098,16.467 L35.066,16.467 L29.496,7.727 C29.288,7.391 29.016,7.247 28.663,7.247 C28.183,7.247 27.863,7.583 27.863,8.159 L27.863,17.923 C27.863,18.323 28.119,18.563 28.455,18.563 C28.807,18.563 29.047,18.323 29.047,17.923 L29.047,9.263 L29.079,9.263 L34.585,18.019 C34.793,18.339 35.049,18.563 35.418,18.563 C35.946,18.563 36.234,18.147 36.234,17.715 L36.234,7.903 C36.235,7.503 36.011,7.248 35.659,7.248 L35.659,7.248 Z M21.388,7.248 C21.035,7.248 20.827,7.504 20.827,7.904 L20.827,16.467 L20.795,16.467 L15.225,7.727 C15.017,7.391 14.745,7.247 14.392,7.247 C13.912,7.247 13.592,7.583 13.592,8.159 L13.592,17.923 C13.592,18.323 13.848,18.563 14.184,18.563 C14.536,18.563 14.776,18.323 14.776,17.923 L14.776,9.263 L14.808,9.263 L20.314,18.019 C20.522,18.339 20.778,18.563 21.147,18.563 C21.675,18.563 21.963,18.147 21.963,17.715 L21.963,7.903 C21.964,7.503 21.74,7.248 21.388,7.248 L21.388,7.248 Z M10.648,7.248 C10.296,7.248 10.024,7.504 10.024,7.904 L10.024,17.924 C10.024,18.324 10.28,18.564 10.632,18.564 C10.984,18.564 11.256,18.324 11.256,17.924 L11.256,7.904 C11.257,7.503 11.001,7.248 10.648,7.248 L10.648,7.248 Z M2.954,7.184 C2.346,7.184 1.385,7.232 0.745,7.392 C0.329,7.504 0.169,7.792 0.169,8.176 L0.169,17.652 C0.169,18.036 0.313,18.356 0.873,18.452 C1.385,18.548 2.026,18.628 3.114,18.628 C6.651,18.628 8.188,16.083 8.188,12.914 C8.188,9.601 6.635,7.184 2.954,7.184 L2.954,7.184 Z M3.146,17.443 C2.49,17.443 1.914,17.427 1.401,17.347 L1.401,8.463 C1.865,8.399 2.489,8.367 2.97,8.367 C5.835,8.367 6.94,10.24 6.94,12.801 C6.939,15.587 5.819,17.443 3.146,17.443 L3.146,17.443 Z M92.602,8.72 C91.978,7.471 91.482,7.103 90.921,7.103 C90.361,7.103 89.865,7.471 89.24,8.72 C88.344,10.529 87.656,12.802 86.487,17.428 C86.423,17.652 86.391,17.828 86.391,17.94 C86.391,18.324 86.647,18.564 86.999,18.564 C87.287,18.564 87.495,18.388 87.575,18.052 C87.879,16.676 88.183,15.443 88.488,14.386 L93.354,14.386 C93.642,15.443 93.946,16.675 94.267,18.052 C94.347,18.388 94.555,18.564 94.843,18.564 C95.195,18.564 95.451,18.324 95.451,17.94 C95.451,17.828 95.403,17.652 95.355,17.428 C94.218,12.802 93.498,10.529 92.602,8.72 L92.602,8.72 Z M88.808,13.266 C89.544,10.817 90.201,9.296 90.713,8.496 C90.761,8.432 90.809,8.368 90.921,8.368 C91.033,8.368 91.081,8.432 91.129,8.496 C91.641,9.296 92.281,10.817 93.018,13.266 L88.808,13.266 L88.808,13.266 Z M103.578,17.043 C103.482,17.043 103.354,17.059 103.21,17.107 C102.762,17.299 102.282,17.443 101.513,17.443 C99.144,17.443 97.704,15.795 97.704,12.929 C97.704,10.208 99.016,8.383 101.273,8.383 C101.721,8.383 102.329,8.431 102.857,8.639 C103.065,8.719 103.241,8.783 103.433,8.783 C103.753,8.783 103.994,8.543 103.994,8.191 C103.994,7.967 103.85,7.743 103.546,7.615 C102.905,7.327 102.105,7.183 101.401,7.183 C98.6,7.183 96.439,9.183 96.439,13.073 C96.439,16.739 98.536,18.627 101.433,18.627 C102.185,18.627 102.793,18.531 103.497,18.259 C103.865,18.115 104.105,17.923 104.105,17.603 C104.106,17.299 103.898,17.043 103.578,17.043 L103.578,17.043 Z M111.722,17.284 L106.952,17.284 L106.952,13.426 L110.826,13.426 C111.21,13.426 111.418,13.106 111.418,12.834 C111.418,12.546 111.21,12.258 110.826,12.258 L106.952,12.258 L106.952,8.529 L111.562,8.529 C111.978,8.529 112.202,8.257 112.202,7.953 C112.202,7.617 111.978,7.313 111.562,7.313 L106.776,7.313 C106.088,7.313 105.719,7.681 105.719,8.273 L105.719,17.541 C105.719,18.133 106.087,18.501 106.776,18.501 L111.722,18.501 C112.106,18.501 112.33,18.165 112.33,17.893 C112.33,17.556 112.106,17.284 111.722,17.284 L111.722,17.284 Z M66.394,17.284 L61.624,17.284 L61.624,13.426 L65.498,13.426 C65.882,13.426 66.09,13.106 66.09,12.834 C66.09,12.546 65.882,12.258 65.498,12.258 L61.624,12.258 L61.624,8.529 L66.234,8.529 C66.651,8.529 66.874,8.257 66.874,7.953 C66.874,7.617 66.65,7.313 66.234,7.313 L61.448,7.313 C60.76,7.313 60.391,7.681 60.391,8.273 L60.391,17.541 C60.391,18.133 60.759,18.501 61.448,18.501 L66.394,18.501 C66.778,18.501 67.002,18.165 67.002,17.893 C67.002,17.556 66.778,17.284 66.394,17.284 L66.394,17.284 Z M83.578,14.386 C83.29,13.97 82.97,13.65 82.601,13.41 C84.026,12.913 84.954,11.921 84.954,10.401 C84.954,8.464 83.642,7.184 80.745,7.184 C79.641,7.184 78.888,7.296 78.376,7.456 C77.976,7.584 77.864,7.824 77.864,8.224 L77.864,17.924 C77.864,18.324 78.136,18.564 78.489,18.564 C78.841,18.564 79.113,18.324 79.113,17.924 L79.113,13.746 L80.362,13.746 C81.53,13.746 81.995,14.226 82.571,15.155 C82.971,15.795 83.387,16.723 83.883,18.116 C83.979,18.372 84.155,18.564 84.491,18.564 C84.827,18.564 85.116,18.324 85.116,17.94 C85.116,17.828 85.084,17.668 85.02,17.508 C84.586,16.355 84.074,15.155 83.578,14.386 L83.578,14.386 Z M80.553,12.53 L79.113,12.53 L79.113,8.496 C79.561,8.432 79.993,8.368 80.682,8.368 C82.971,8.368 83.691,9.264 83.691,10.449 C83.69,12.098 82.138,12.578 80.553,12.53 L80.553,12.53 Z M58.539,7.312 L51.688,7.312 C51.336,7.312 51.096,7.616 51.096,7.92 C51.096,8.224 51.288,8.512 51.688,8.512 L54.441,8.512 L54.441,17.924 C54.441,18.324 54.713,18.564 55.065,18.564 C55.401,18.564 55.673,18.324 55.673,17.924 L55.673,8.512 L58.538,8.512 C58.906,8.512 59.114,8.208 59.114,7.92 C59.115,7.6 58.891,7.312 58.539,7.312 L58.539,7.312 Z M74.442,14.386 C74.154,13.97 73.834,13.65 73.465,13.41 C74.89,12.913 75.818,11.921 75.818,10.401 C75.818,8.464 74.506,7.184 71.609,7.184 C70.505,7.184 69.752,7.296 69.24,7.456 C68.84,7.584 68.728,7.824 68.728,8.224 L68.728,17.924 C68.728,18.324 69,18.564 69.352,18.564 C69.705,18.564 69.977,18.324 69.977,17.924 L69.977,13.746 L71.226,13.746 C72.394,13.746 72.859,14.226 73.435,15.155 C73.835,15.795 74.251,16.723 74.747,18.116 C74.843,18.372 75.019,18.564 75.355,18.564 C75.691,18.564 75.98,18.324 75.98,17.94 C75.98,17.828 75.948,17.668 75.884,17.508 C75.45,16.355 74.938,15.155 74.442,14.386 L74.442,14.386 Z M71.417,12.53 L69.977,12.53 L69.977,8.496 C70.425,8.432 70.857,8.368 71.546,8.368 C73.835,8.368 74.555,9.264 74.555,10.449 C74.554,12.098 73.001,12.578 71.417,12.53 L71.417,12.53 Z M71.417,12.53" class="Shape"/>
            </g>
            <g class="background">
                <path d="M243.665,85.489 L207.837,72.821 L179.369,89.634 L172.558,93.039 L171.86,92.934 L171.798,92.913 L169.704,92.639 L169.556,92.639 L167.736,92.47 L167.398,92.449 L165.6,92.343 L163.464,92.364 L162.005,92.468 L160.186,92.743 L160.165,92.743 L159.34,92.975 L158.917,93.144 C160.834,94.708 164.677,96.323 170.443,97.987 L192.523,108.202 L216.486,114.907 L240.43,125.822 L253.056,129.439 L252.527,132.929 L247.895,135.255 L234.042,131.279 L209.063,127.98 L190.853,137.074 L190.452,137.497 L181.463,134.916 L181.991,131.426 L182.434,131.553 L197.556,123.558 L164.5,114.083 L160.48,116.071 L161.009,112.581 L165.028,110.593 L163.23,111.164 L113.824,96.994 L123.491,96.719 L121.037,93.632 L121.565,90.142 L125.373,90.205 C126.457,86.412 128.538,82.513 131.611,78.509 C135.63,73.279 141.073,68.28 147.94,63.514 C166.2,50.838 192.877,40.834 227.972,33.502 L308.807,50.273 L260.628,76.732 L243.665,85.489" class="walkway"/>
                <path d="M326.425,41.497 L300.685,54.377 L196.924,24.619 L198.257,15.905 L223.996,3.025 L327.758,32.783 L326.425,41.497 M230.764,59.115 L244.998,51.987 L276.257,60.955 L274.946,69.669 L260.712,76.775 L229.432,67.807 L230.764,59.115 M229.283,71.255 L227.951,79.969 L209.254,89.339 L243.729,99.216 L242.862,104.926 L274.693,114.063 L273.381,122.777 L252.21,133.373 L248.487,132.294 L248.001,135.466 L224.481,147.247 L189.731,137.285 L190.789,130.327 L181.567,134.938 L116.702,116.347 L118.035,107.634 L134.066,99.618 L161.097,107.359 L165.094,105.371 L202.91,116.2 L201.852,123.158 L209.593,119.288 L219.322,120.578 L215.092,118.654 L191.277,112.013 L169.049,101.734 L165.898,100.761 L165.813,100.719 L160.631,98.731 L158.833,97.779 L157.859,97.145 L157.055,96.468 L156.866,96.278 L156.549,95.876 L156.359,95.496 L156.297,95.263 L156.255,95.136 L156.255,94.777 L157.588,86.084 L157.588,86.147 C157.63,85.597 158.039,85.125 158.815,84.73 C160.409,83.94 163.017,83.609 166.641,83.736 L164.653,83.165 L165.986,74.472 L193.099,60.894 L229.283,71.255 M118.373,80.286 L118.415,80.37 L127.51,91.748 L126.177,100.462 L110.611,102.323 L88.086,95.853 L89.398,87.139 L108.687,77.495 L118.373,80.286" class="wall"/>
            </g>
            <g class="ceilings">
                <path class="unit" d="M173.277,84.707 L167.841,84.115 C163.964,83.89 161.214,84.177 159.592,84.982 C157.972,85.8 158,86.878 159.678,88.218 C161.568,89.74 165.297,91.299 170.866,92.892 L185.29,99.554 L206.566,88.894 L180.34,81.386 L173.593,84.749 L173.277,84.707" id="3001"/>
                <path class="unit" d="M228.014,71.255 L193.477,61.357 L167.166,74.512 L201.704,84.431 L228.014,71.255" id="3002"/>
                <path class="unit" d="M245.356,52.453 L231.948,59.157 L261.58,67.66 L274.987,60.934 L245.356,52.453" id="3003"/>
                <path class="unit" d="M301.553,45.241 L326.51,32.761 L224.396,3.491 L199.439,15.969 L301.553,45.241" id="3004"/>
                <path class="unit" d="M253.056,124.236 L273.444,114.041 L235.713,103.233 L219.872,111.165 L240.979,120.788 L253.056,124.236" id="3005"/>
                <path class="unit" d="M219.174,110.848 L242.46,99.194 L207.372,89.127 L185.946,99.85 L193.096,103.17 L216.89,109.812 L219.174,110.848" id="3006"/>
                <path class="unit" d="M210.122,119.667 L192.229,128.635 L225.328,138.11 L248.043,126.753 L234.696,122.924 L210.122,119.667" id="3007"/>
                <path class="unit" d="M183.917,111.102 L164.67,120.725 L182.394,125.822 L201.64,116.177 L183.917,111.102" id="3008"/>
                <path class="unit" d="M109.066,77.939 L90.603,87.202 L111.752,93.294 L126.43,91.538 L117.568,80.413 L109.066,77.939" id="3009"/>
                <path class="unit" d="M160.63,107.569 L134.446,100.062 L119.219,107.696 L145.381,115.205 L160.63,107.569" id="3010"/>
                <path class="unit" d="M163.761,120.471 L183.007,110.847 L165.474,105.813 C159.074,109.028 152.664,112.236 146.249,115.436 L163.761,120.471" id="3011"/>
        </g>
    </g>
</svg>