<?xml version="1.0" encoding="utf-8"?>
<!DOCTYPE svg PUBLIC "-//W3C//DTD SVG 1.1//EN" "http://www.w3.org/Graphics/SVG/1.1/DTD/svg11.dtd">
<svg version="1.1" xmlns="http://www.w3.org/2000/svg" xmlns:xlink="http://www.w3.org/1999/xlink" xml:space="preserve">
<g class="level" id="level1">
            <g class="outline">
                <path d="M204.652,256.466 C204.56,256.466 204.467,256.454 204.377,256.432 L88.536,227.312 C88.462,227.421 88.368,227.519 88.254,227.599 L84.784,230.05 C84.773,230.058 84.763,230.065 84.752,230.071 L84.403,230.316 C84.177,230.475 83.902,230.547 83.627,230.514 L60.436,227.911 C59.986,227.861 59.627,227.553 59.491,227.15 C39.715,226.091 21.089,222.214 4.116,215.624 C3.669,215.45 3.38,215.013 3.395,214.533 L3.551,209.631 L0.978,209.279 C0.397,209.199 -0.027,208.688 0.002,208.102 L0.341,201.202 C0.358,200.857 0.53,200.54 0.81,200.339 L48.437,166.024 C48.708,165.829 49.052,165.762 49.376,165.845 L70.568,171.217 L71.242,170.429 C71.522,170.102 71.962,169.965 72.38,170.069 C76.28,171.062 79.914,171.394 83.185,171.058 C84.738,170.9 85.999,170.638 86.94,170.278 L91.425,167.043 C91.705,166.841 92.06,166.779 92.392,166.871 L101.411,169.402 L200.23,98.923 L166.966,90.546 C166.453,90.417 166.099,89.95 166.111,89.422 L166.262,83.011 C166.27,82.657 166.443,82.328 166.729,82.121 L191.089,64.473 C191.36,64.277 191.705,64.21 192.03,64.292 L213.848,69.82 L249.156,44.786 L224.535,38.313 C224.032,38.181 223.683,37.72 223.692,37.199 L223.806,30.788 C223.812,30.432 223.986,30.1 224.275,29.891 L247.354,13.223 C247.636,13.019 247.998,12.958 248.33,13.054 L254.026,14.699 L253.937,9.333 C253.931,8.965 254.105,8.617 254.402,8.4 L265.639,0.217 C265.933,0.004 266.307,-0.056 266.652,0.054 L280.873,4.62 L286.87,5.287 L303.238,6.035 C303.457,6.045 303.668,6.118 303.846,6.246 L386.808,65.828 C387.096,66.035 387.27,66.365 387.279,66.72 L387.468,74.639 C387.477,75.014 387.299,75.368 386.994,75.586 L324.207,120.461 C323.867,120.705 323.419,120.741 323.043,120.553 L319.076,118.57 L317.538,119.502 L373.369,144.225 C373.783,144.408 374.048,144.819 374.043,145.271 L373.967,152.172 C373.963,152.531 373.789,152.866 373.498,153.076 L343.821,174.534 C343.549,174.729 343.207,174.796 342.883,174.715 L318.576,168.619 L299.13,182.501 L328.649,189.828 C329.156,189.954 329.511,190.41 329.508,190.932 L329.469,197.304 C329.466,197.754 329.198,198.16 328.784,198.337 L284.513,217.343 C284.285,217.441 284.034,217.461 283.794,217.402 L279.247,216.274 L272.746,220.377 L272.716,224.194 C272.712,224.632 272.458,225.027 272.062,225.212 L205.127,256.36 C204.979,256.431 204.815,256.466 204.652,256.466 L204.652,256.466 Z M204.652,256.466" class="outline"/>
            </g>
            <g class="label">
                <path d="M20.535,137.225 C20.423,136.392 20.135,135.929 19.479,135.929 C18.854,135.929 18.583,136.297 18.406,136.761 C17.59,138.97 16.694,141.803 15.717,144.428 L15.701,144.428 C14.693,141.947 13.909,139.338 12.884,136.905 C12.66,136.297 12.388,135.929 11.763,135.929 C11.107,135.929 10.803,136.377 10.707,137.258 C10.355,140.187 10.163,143.356 10.179,146.606 C10.163,146.99 10.403,147.246 10.755,147.246 C11.107,147.246 11.38,147.022 11.38,146.59 C11.364,143.517 11.556,140.54 11.892,137.547 L11.908,137.547 C12.885,140.172 13.829,142.813 14.869,145.438 C14.997,145.774 15.269,146.014 15.685,146.014 C16.085,146.014 16.389,145.774 16.517,145.438 C17.541,142.893 18.422,140.188 19.35,137.547 L19.366,137.547 C19.783,140.572 19.942,143.549 20.022,146.526 C20.022,146.974 20.246,147.246 20.663,147.246 C21.015,147.246 21.239,146.958 21.239,146.574 C21.239,146.446 21.223,146.206 21.223,146.094 C21.191,143.051 20.935,139.994 20.535,137.225 L20.535,137.225 Z M14.494,127.1 C14.846,126.892 14.926,126.62 14.926,126.236 L14.926,117.384 C14.926,116.984 14.67,116.728 14.318,116.728 C13.95,116.728 13.694,116.984 13.694,117.384 L13.694,126.139 C12.861,126.683 11.677,126.908 10.957,126.908 C9.1,126.908 7.964,125.995 7.964,123.93 L7.964,117.384 C7.964,116.984 7.708,116.728 7.356,116.728 C7.004,116.728 6.732,116.984 6.732,117.384 L6.732,124.171 C6.732,126.508 8.189,128.109 10.717,128.109 C12.525,128.108 13.565,127.628 14.494,127.1 L14.494,127.1 Z M41.5,127.372 C41.5,127.036 41.276,126.764 40.892,126.764 L36.122,126.764 L36.122,122.906 L39.996,122.906 C40.38,122.906 40.588,122.586 40.588,122.314 C40.588,122.026 40.38,121.738 39.996,121.738 L36.122,121.738 L36.122,118.009 L40.732,118.009 C41.148,118.009 41.372,117.737 41.372,117.433 C41.372,117.097 41.148,116.793 40.732,116.793 L35.946,116.793 C35.258,116.793 34.889,117.161 34.889,117.753 L34.889,127.021 C34.889,127.613 35.257,127.981 35.946,127.981 L40.892,127.981 C41.276,127.98 41.5,127.645 41.5,127.372 L41.5,127.372 Z M50.38,126.988 C49.948,125.835 49.436,124.635 48.94,123.866 C48.652,123.45 48.332,123.13 47.963,122.89 C49.388,122.393 50.316,121.401 50.316,119.881 C50.316,117.944 49.004,116.664 46.107,116.664 C45.003,116.664 44.25,116.776 43.738,116.936 C43.338,117.064 43.226,117.304 43.226,117.704 L43.226,127.404 C43.226,127.804 43.498,128.044 43.851,128.044 C44.203,128.044 44.475,127.804 44.475,127.404 L44.475,123.226 L45.724,123.226 C46.892,123.226 47.357,123.706 47.933,124.635 C48.333,125.275 48.749,126.203 49.245,127.596 C49.341,127.852 49.517,128.044 49.853,128.044 C50.189,128.044 50.478,127.804 50.478,127.42 C50.477,127.308 50.444,127.148 50.38,126.988 L50.38,126.988 Z M45.915,122.01 L44.475,122.01 L44.475,117.976 C44.923,117.912 45.355,117.848 46.044,117.848 C48.333,117.848 49.053,118.744 49.053,119.929 C49.052,121.578 47.5,122.058 45.915,122.01 L45.915,122.01 Z M17.835,128.044 C18.187,128.044 18.459,127.804 18.459,127.404 L18.459,123.786 C18.987,123.818 19.292,123.834 19.932,123.834 C22.813,123.834 24.334,122.441 24.334,120.168 C24.334,118.151 23.005,116.663 20.012,116.663 C19.004,116.663 18.251,116.775 17.739,116.935 C17.339,117.063 17.227,117.303 17.227,117.703 L17.227,127.403 C17.227,127.804 17.483,128.044 17.835,128.044 L17.835,128.044 Z M18.459,117.96 C18.907,117.896 19.452,117.832 19.98,117.832 C22.253,117.832 23.069,118.92 23.069,120.201 C23.069,121.513 22.365,122.666 19.868,122.666 C19.276,122.666 18.988,122.666 18.459,122.634 L18.459,117.96 L18.459,117.96 Z M28.843,116.664 C27.835,116.664 27.082,116.776 26.57,116.936 C26.17,117.064 26.058,117.304 26.058,117.704 L26.058,127.404 C26.058,127.804 26.314,128.044 26.666,128.044 C27.018,128.044 27.29,127.804 27.29,127.404 L27.29,123.786 C27.818,123.818 28.123,123.834 28.763,123.834 C31.644,123.834 33.165,122.441 33.165,120.168 C33.165,118.152 31.836,116.664 28.843,116.664 L28.843,116.664 Z M28.699,122.667 C28.107,122.667 27.819,122.667 27.29,122.635 L27.29,117.961 C27.738,117.897 28.283,117.833 28.811,117.833 C31.084,117.833 31.9,118.921 31.9,120.202 C31.9,121.514 31.196,122.667 28.699,122.667 L28.699,122.667 Z M29.092,137.401 C28.468,136.152 27.972,135.784 27.411,135.784 C26.851,135.784 26.355,136.152 25.73,137.401 C24.834,139.21 24.146,141.483 22.977,146.109 C22.913,146.333 22.881,146.509 22.881,146.621 C22.881,147.005 23.137,147.245 23.489,147.245 C23.777,147.245 23.985,147.069 24.065,146.733 C24.369,145.357 24.673,144.124 24.978,143.067 L29.844,143.067 C30.132,144.124 30.436,145.356 30.757,146.733 C30.837,147.069 31.045,147.245 31.333,147.245 C31.685,147.245 31.941,147.005 31.941,146.621 C31.941,146.509 31.893,146.333 31.845,146.109 C30.709,141.482 29.989,139.209 29.092,137.401 L29.092,137.401 Z M25.299,141.947 C26.035,139.498 26.692,137.977 27.204,137.176 C27.252,137.112 27.3,137.048 27.412,137.048 C27.524,137.048 27.572,137.112 27.62,137.176 C28.132,137.976 28.772,139.497 29.509,141.947 L25.299,141.947 L25.299,141.947 Z M39.204,145.996 L34.898,145.996 L34.898,136.584 C34.898,136.184 34.642,135.928 34.29,135.928 C33.937,135.928 33.665,136.184 33.665,136.584 L33.665,146.22 C33.665,146.812 34.033,147.18 34.722,147.18 L39.203,147.18 C39.603,147.18 39.859,146.908 39.859,146.572 C39.86,146.268 39.621,145.996 39.204,145.996 L39.204,145.996 Z M46.82,145.996 L42.514,145.996 L42.514,136.584 C42.514,136.184 42.258,135.928 41.906,135.928 C41.553,135.928 41.281,136.184 41.281,136.584 L41.281,146.22 C41.281,146.812 41.649,147.18 42.338,147.18 L46.819,147.18 C47.219,147.18 47.475,146.908 47.475,146.572 C47.477,146.268 47.237,145.996 46.82,145.996 L46.82,145.996 Z M46.82,145.996" class="Shape"/>
                <path d="M326.67,260.805 C326.481,261.36 326.341,261.781 326.252,262.067 C326.173,261.809 326.047,261.421 325.875,260.901 L324.012,255.326 L322.444,255.326 L322.444,263.2 L323.448,263.2 L323.448,256.497 L325.725,263.2 L326.665,263.2 L328.953,256.61 L328.953,263.2 L329.957,263.2 L329.957,255.326 L328.556,255.326 L326.67,260.805 L326.67,260.805 Z M358.305,248.33 C358.305,248.91 358.344,249.29 358.423,249.471 C358.502,249.652 358.638,249.798 358.831,249.909 C359.024,250.02 359.297,250.076 359.647,250.076 C359.862,250.076 360.105,250.047 360.377,249.99 L360.237,249.136 C360.061,249.161 359.921,249.174 359.813,249.174 C359.669,249.174 359.559,249.151 359.482,249.104 C359.405,249.057 359.35,248.995 359.316,248.916 C359.282,248.837 359.264,248.66 359.264,248.384 L359.264,245.049 L360.237,245.049 L360.237,244.297 L359.264,244.297 L359.264,242.304 L358.303,242.884 L358.303,244.297 L357.594,244.297 L357.594,245.049 L358.303,245.049 L358.303,248.33 L358.305,248.33 L358.305,248.33 Z M336.134,260.81 L336.134,259.521 C336.134,259.091 336.118,258.794 336.086,258.629 C336.028,258.364 335.929,258.145 335.785,257.971 C335.641,257.797 335.418,257.653 335.114,257.538 C334.809,257.423 334.414,257.366 333.926,257.366 C333.436,257.366 333.004,257.433 332.631,257.567 C332.259,257.702 331.975,257.893 331.777,258.142 C331.58,258.391 331.439,258.717 331.353,259.122 L332.298,259.251 C332.402,258.846 332.562,258.564 332.778,258.405 C332.995,258.246 333.33,258.166 333.785,258.166 C334.272,258.166 334.639,258.275 334.886,258.494 C335.07,258.655 335.16,258.932 335.16,259.327 C335.16,259.363 335.158,259.447 335.155,259.579 C334.786,259.708 334.211,259.819 333.43,259.912 C333.047,259.958 332.76,260.007 332.571,260.057 C332.313,260.129 332.082,260.234 331.876,260.374 C331.67,260.514 331.503,260.699 331.376,260.93 C331.249,261.161 331.186,261.416 331.186,261.696 C331.186,262.172 331.354,262.563 331.691,262.87 C332.028,263.176 332.509,263.329 333.136,263.329 C333.515,263.329 333.87,263.267 334.201,263.141 C334.532,263.015 334.877,262.801 335.235,262.496 C335.263,262.765 335.328,262.999 335.428,263.2 L336.438,263.2 C336.316,262.982 336.235,262.753 336.194,262.515 C336.156,262.277 336.134,261.709 336.134,260.81 L336.134,260.81 Z M335.158,260.692 C335.158,261.118 335.105,261.441 335.002,261.659 C334.866,261.942 334.652,262.165 334.363,262.327 C334.072,262.49 333.741,262.572 333.369,262.572 C332.993,262.572 332.708,262.486 332.513,262.314 C332.318,262.142 332.22,261.927 332.22,261.669 C332.22,261.501 332.265,261.348 332.354,261.21 C332.444,261.072 332.571,260.968 332.736,260.896 C332.901,260.824 333.182,260.76 333.579,260.703 C334.281,260.603 334.808,260.481 335.159,260.338 L335.158,260.692 L335.158,260.692 Z M339.401,249.616 C339.933,249.961 340.624,250.134 341.471,250.134 C342.291,250.134 342.986,249.909 343.553,249.46 C344.12,249.011 344.513,248.358 344.732,247.502 L343.69,247.239 C343.546,247.902 343.273,248.401 342.868,248.738 C342.464,249.074 341.97,249.243 341.386,249.243 C340.907,249.243 340.461,249.119 340.049,248.872 C339.637,248.625 339.334,248.252 339.139,247.752 C338.944,247.253 338.846,246.668 338.846,245.999 C338.846,245.48 338.928,244.976 339.093,244.487 C339.258,243.999 339.543,243.609 339.949,243.319 C340.355,243.029 340.861,242.884 341.467,242.884 C341.993,242.884 342.43,243.015 342.778,243.276 C343.126,243.537 343.39,243.955 343.573,244.527 L344.599,244.285 C344.387,243.558 344.013,242.994 343.476,242.593 C342.939,242.192 342.277,241.991 341.489,241.991 C340.795,241.991 340.158,242.15 339.58,242.466 C339.002,242.783 338.556,243.247 338.242,243.858 C337.929,244.468 337.772,245.184 337.772,246.004 C337.772,246.756 337.911,247.46 338.188,248.115 C338.465,248.77 338.87,249.271 339.401,249.616 L339.401,249.616 Z M367.243,250.129 C367.905,250.129 368.449,249.968 368.876,249.646 C369.302,249.324 369.594,248.871 369.751,248.287 L368.752,248.163 C368.606,248.571 368.406,248.869 368.155,249.055 C367.905,249.241 367.602,249.334 367.248,249.334 C366.771,249.334 366.374,249.167 366.056,248.834 C365.738,248.501 365.56,248.021 365.525,247.395 L369.779,247.395 C369.782,247.28 369.784,247.194 369.784,247.137 C369.784,246.195 369.543,245.465 369.058,244.946 C368.576,244.427 367.953,244.167 367.189,244.167 C366.402,244.167 365.761,244.432 365.267,244.962 C364.773,245.492 364.525,246.237 364.525,247.196 C364.525,248.123 364.77,248.844 365.258,249.358 C365.747,249.872 366.408,250.129 367.243,250.129 L367.243,250.129 Z M366.08,245.408 C366.383,245.111 366.756,244.962 367.2,244.962 C367.69,244.962 368.09,245.148 368.397,245.521 C368.597,245.761 368.719,246.121 368.762,246.601 L365.576,246.601 C365.61,246.103 365.777,245.705 366.08,245.408 L366.08,245.408 Z M348.288,250.129 C348.95,250.129 349.494,249.968 349.921,249.646 C350.347,249.324 350.639,248.871 350.796,248.287 L349.797,248.163 C349.651,248.571 349.451,248.869 349.2,249.055 C348.95,249.241 348.647,249.334 348.293,249.334 C347.816,249.334 347.419,249.167 347.101,248.834 C346.783,248.501 346.605,248.021 346.57,247.395 L350.824,247.395 C350.827,247.28 350.829,247.194 350.829,247.137 C350.829,246.195 350.588,245.465 350.103,244.946 C349.621,244.427 348.998,244.167 348.234,244.167 C347.447,244.167 346.806,244.432 346.312,244.962 C345.818,245.492 345.57,246.237 345.57,247.196 C345.57,248.123 345.815,248.844 346.303,249.358 C346.792,249.872 347.453,250.129 348.288,250.129 L348.288,250.129 Z M347.125,245.408 C347.428,245.111 347.801,244.962 348.245,244.962 C348.735,244.962 349.135,245.148 349.442,245.521 C349.642,245.761 349.764,246.121 349.807,246.601 L346.621,246.601 C346.655,246.103 346.822,245.705 347.125,245.408 L347.125,245.408 Z M385.614,262.335 C385.438,262.36 385.298,262.373 385.19,262.373 C385.046,262.373 384.936,262.35 384.859,262.303 C384.782,262.256 384.727,262.194 384.693,262.115 C384.659,262.036 384.641,261.859 384.641,261.583 L384.641,258.248 L385.614,258.248 L385.614,257.496 L384.641,257.496 L384.641,255.503 L383.68,256.083 L383.68,257.496 L382.971,257.496 L382.971,258.248 L383.68,258.248 L383.68,261.53 C383.68,262.11 383.719,262.49 383.798,262.671 C383.877,262.852 384.013,262.998 384.206,263.109 C384.399,263.22 384.672,263.276 385.022,263.276 C385.237,263.276 385.48,263.247 385.752,263.19 L385.614,262.335 L385.614,262.335 Z M368.072,257.367 C367.348,257.367 366.761,257.7 366.31,258.366 C366.199,258.051 366.008,257.805 365.738,257.63 C365.468,257.455 365.122,257.367 364.699,257.367 C364.319,257.367 363.981,257.452 363.684,257.622 C363.386,257.792 363.148,258.017 362.969,258.296 L362.969,257.496 L362.104,257.496 L362.104,263.2 L363.071,263.2 L363.071,260.241 C363.071,259.722 363.124,259.324 363.227,259.049 C363.33,258.774 363.498,258.564 363.729,258.421 C363.96,258.278 364.211,258.206 364.484,258.206 C364.842,258.206 365.1,258.313 365.257,258.528 C365.414,258.743 365.493,259.065 365.493,259.495 L365.493,263.201 L366.46,263.201 L366.46,259.887 C366.46,259.3 366.593,258.873 366.857,258.606 C367.122,258.339 367.455,258.206 367.856,258.206 C368.078,258.206 368.271,258.258 368.436,258.362 C368.601,258.466 368.714,258.603 368.777,258.773 C368.839,258.943 368.871,259.222 368.871,259.608 L368.871,263.201 L369.833,263.201 L369.833,259.285 C369.833,258.633 369.681,258.151 369.377,257.837 C369.073,257.524 368.637,257.367 368.072,257.367 L368.072,257.367 Z M373.608,257.367 C372.821,257.367 372.18,257.632 371.686,258.162 C371.192,258.692 370.944,259.437 370.944,260.396 C370.944,261.323 371.189,262.044 371.677,262.558 C372.166,263.072 372.827,263.329 373.662,263.329 C374.324,263.329 374.868,263.168 375.295,262.846 C375.721,262.524 376.013,262.071 376.17,261.487 L375.171,261.363 C375.025,261.771 374.825,262.069 374.574,262.255 C374.324,262.441 374.021,262.534 373.667,262.534 C373.19,262.534 372.793,262.367 372.475,262.034 C372.157,261.701 371.979,261.221 371.944,260.595 L376.198,260.595 C376.201,260.48 376.203,260.394 376.203,260.337 C376.203,259.395 375.962,258.665 375.477,258.146 C374.995,257.627 374.372,257.367 373.608,257.367 L373.608,257.367 Z M371.997,259.8 C372.03,259.302 372.197,258.905 372.5,258.608 C372.803,258.311 373.176,258.162 373.62,258.162 C374.11,258.162 374.51,258.348 374.817,258.721 C375.017,258.961 375.139,259.321 375.182,259.801 L371.997,259.8 L371.997,259.8 Z M381.666,258.039 C381.522,257.838 381.307,257.676 381.019,257.553 C380.731,257.429 380.415,257.367 380.071,257.367 C379.28,257.367 378.675,257.68 378.257,258.307 L378.257,257.496 L377.386,257.496 L377.386,263.2 L378.353,263.2 L378.353,260.085 C378.353,259.355 378.503,258.858 378.802,258.597 C379.101,258.336 379.456,258.205 379.868,258.205 C380.126,258.205 380.35,258.263 380.542,258.38 C380.733,258.496 380.866,258.652 380.942,258.847 C381.016,259.042 381.054,259.337 381.054,259.731 L381.054,263.201 L382.021,263.201 L382.021,259.694 C382.021,259.246 382.003,258.933 381.967,258.754 C381.909,258.477 381.809,258.239 381.666,258.039 L381.666,258.039 Z M362.14,247.014 C362.14,246.606 362.193,246.23 362.3,245.886 C362.372,245.66 362.492,245.484 362.66,245.357 C362.828,245.23 363.018,245.167 363.229,245.167 C363.465,245.167 363.702,245.237 363.938,245.376 L364.271,244.479 C363.934,244.271 363.603,244.167 363.278,244.167 C363.051,244.167 362.845,244.231 362.657,244.36 C362.469,244.489 362.264,244.756 362.042,245.16 L362.042,244.295 L361.173,244.295 L361.173,250 L362.14,250 L362.14,247.014 L362.14,247.014 L362.14,247.014 Z M348.37,260.81 L348.37,259.521 C348.37,259.091 348.354,258.794 348.322,258.629 C348.264,258.364 348.165,258.145 348.021,257.971 C347.877,257.797 347.654,257.653 347.35,257.538 C347.045,257.423 346.65,257.366 346.162,257.366 C345.672,257.366 345.24,257.433 344.867,257.567 C344.495,257.702 344.211,257.893 344.013,258.142 C343.816,258.391 343.675,258.717 343.589,259.122 L344.534,259.251 C344.638,258.846 344.798,258.564 345.014,258.405 C345.231,258.246 345.566,258.166 346.021,258.166 C346.508,258.166 346.875,258.275 347.122,258.494 C347.306,258.655 347.396,258.932 347.396,259.327 C347.396,259.363 347.394,259.447 347.391,259.579 C347.022,259.708 346.447,259.819 345.666,259.912 C345.283,259.958 344.996,260.007 344.807,260.057 C344.549,260.129 344.318,260.234 344.112,260.374 C343.906,260.514 343.739,260.699 343.612,260.93 C343.485,261.161 343.422,261.416 343.422,261.696 C343.422,262.172 343.59,262.563 343.927,262.87 C344.264,263.176 344.745,263.329 345.372,263.329 C345.751,263.329 346.106,263.267 346.437,263.141 C346.768,263.015 347.113,262.801 347.471,262.496 C347.499,262.765 347.564,262.999 347.664,263.2 L348.674,263.2 C348.552,262.982 348.471,262.753 348.43,262.515 C348.391,262.277 348.37,261.709 348.37,260.81 L348.37,260.81 Z M347.393,260.692 C347.393,261.118 347.34,261.441 347.237,261.659 C347.101,261.942 346.887,262.165 346.598,262.327 C346.307,262.49 345.976,262.572 345.604,262.572 C345.228,262.572 344.943,262.486 344.748,262.314 C344.553,262.142 344.455,261.927 344.455,261.669 C344.455,261.501 344.5,261.348 344.589,261.21 C344.679,261.072 344.806,260.968 344.971,260.896 C345.136,260.824 345.417,260.76 345.814,260.703 C346.516,260.603 347.043,260.481 347.394,260.338 L347.393,260.692 L347.393,260.692 Z M353.633,258.184 C353.196,257.64 352.641,257.368 351.968,257.368 C351.463,257.368 351.024,257.493 350.65,257.744 C350.276,257.995 349.99,258.35 349.794,258.81 C349.597,259.27 349.498,259.772 349.498,260.316 C349.498,261.108 349.713,261.786 350.143,262.352 C350.573,262.918 351.179,263.201 351.964,263.201 C352.594,263.201 353.12,262.952 353.542,262.454 C353.546,263.084 353.522,263.498 353.473,263.695 C353.387,264.017 353.222,264.268 352.979,264.447 C352.736,264.626 352.39,264.716 351.943,264.716 C351.527,264.716 351.2,264.627 350.96,264.447 C350.781,264.315 350.672,264.103 350.633,263.813 L349.693,263.673 C349.678,264.289 349.881,264.75 350.299,265.056 C350.719,265.363 351.268,265.515 351.948,265.515 C352.521,265.515 353.004,265.408 353.395,265.193 C353.788,264.978 354.074,264.686 354.254,264.315 C354.435,263.945 354.525,263.315 354.525,262.427 L354.525,257.496 L353.633,257.496 L353.633,258.184 L353.633,258.184 Z M353.171,261.887 C352.87,262.229 352.498,262.4 352.054,262.4 C351.607,262.4 351.234,262.228 350.937,261.884 C350.64,261.54 350.491,260.994 350.491,260.246 C350.491,259.558 350.641,259.04 350.942,258.691 C351.243,258.341 351.608,258.167 352.038,258.167 C352.476,258.167 352.849,258.344 353.158,258.699 C353.467,259.054 353.623,259.58 353.623,260.278 C353.623,261.009 353.472,261.545 353.171,261.887 L353.171,261.887 Z M341.915,258.039 C341.771,257.838 341.556,257.676 341.268,257.553 C340.98,257.429 340.664,257.367 340.32,257.367 C339.529,257.367 338.924,257.68 338.506,258.307 L338.506,257.496 L337.635,257.496 L337.635,263.2 L338.602,263.2 L338.602,260.085 C338.602,259.355 338.752,258.858 339.051,258.597 C339.35,258.336 339.705,258.205 340.117,258.205 C340.375,258.205 340.599,258.263 340.791,258.38 C340.982,258.496 341.115,258.652 341.191,258.847 C341.265,259.042 341.303,259.337 341.303,259.731 L341.303,263.201 L342.27,263.201 L342.27,259.694 C342.27,259.246 342.252,258.933 342.216,258.754 C342.158,258.477 342.058,258.239 341.915,258.039 L341.915,258.039 Z M355.678,250 L356.645,250 L356.645,246.493 C356.645,246.045 356.627,245.732 356.591,245.553 C356.533,245.277 356.434,245.039 356.29,244.839 C356.146,244.639 355.931,244.476 355.643,244.353 C355.355,244.229 355.039,244.167 354.695,244.167 C353.904,244.167 353.299,244.48 352.881,245.107 L352.881,244.296 L352.01,244.296 L352.01,250 L352.977,250 L352.977,246.885 C352.977,246.155 353.127,245.658 353.426,245.397 C353.725,245.136 354.08,245.005 354.492,245.005 C354.75,245.005 354.974,245.063 355.166,245.18 C355.357,245.296 355.49,245.452 355.566,245.647 C355.64,245.842 355.678,246.137 355.678,246.531 L355.678,250 L355.678,250 Z M358.328,257.367 C357.541,257.367 356.9,257.632 356.406,258.162 C355.912,258.692 355.664,259.437 355.664,260.396 C355.664,261.323 355.909,262.044 356.397,262.558 C356.886,263.072 357.547,263.329 358.382,263.329 C359.044,263.329 359.588,263.168 360.015,262.846 C360.441,262.524 360.733,262.071 360.89,261.487 L359.891,261.363 C359.745,261.771 359.545,262.069 359.294,262.255 C359.044,262.441 358.741,262.534 358.387,262.534 C357.91,262.534 357.513,262.367 357.195,262.034 C356.877,261.701 356.699,261.221 356.664,260.595 L360.918,260.595 C360.921,260.48 360.923,260.394 360.923,260.337 C360.923,259.395 360.682,258.665 360.197,258.146 C359.714,257.627 359.091,257.367 358.328,257.367 L358.328,257.367 Z M356.716,259.8 C356.749,259.302 356.916,258.905 357.219,258.608 C357.522,258.311 357.895,258.162 358.339,258.162 C358.829,258.162 359.229,258.348 359.536,258.721 C359.736,258.961 359.858,259.321 359.901,259.801 L356.716,259.8 L356.716,259.8 Z M356.716,259.8" class="Shape"/>
                <path d="M324.333,209.878 L341.824,214 L338.667,217.167 L359.667,232.833 L354.667,233.333 L355.167,238.333 L334.559,221.439 L332.333,225.333 L324.333,209.878 Z M324.333,209.878" class="Shape"/>
            </g>
            <g class="background">
                <path d="M322.006,102.119 L322.006,103.627 L321.893,104.306 L321.893,104.419 L321.629,105.287 L321.591,105.325 L321.252,106.079 L321.214,106.192 L319.932,107.814 L318.99,108.681 L317.217,109.963 L316.426,110.416 L316.388,110.491 L323.063,112.98 L323.063,114.3 L316.2,119.202 L305.793,114.187 L302.398,114.752 L297.157,115.242 L294.479,115.355 L289.878,115.317 L289.84,115.279 L210.875,171.617 L213.854,180.818 L213.816,182.1 L202.88,189.944 L284.296,210.232 L284.296,211.476 L271.889,219.357 L199.599,201.333 L199.599,200.051 L202.389,198.09 L147.22,184.175 L147.22,182.893 L166.602,169.054 L189.417,165.321 L267.778,109.472 C264.736,107.41 263.216,105.198 263.216,102.835 L263.253,101.553 C263.278,99.416 264.599,97.392 267.213,95.482 C269.401,93.923 272.254,92.641 275.774,91.635 C279.168,90.68 282.926,90.039 287.048,89.712 L280.525,7.165 L280.525,5.883 L302.548,7.919 L308.166,91.484 C314.301,93.143 318.448,95.419 320.61,98.31 C321.565,99.542 322.031,100.812 322.006,102.119" class="walkway"/>
                <path d="M280.714,22.475 L280.747,16.759 L281.137,16.755 L280.646,7.962 L280.253,8.12 L280.254,8 L280.607,7.849 L280.57,6 L267.285,1.811 L263.673,4.356 L263.141,4.224 L263.138,4.667 L256.157,9.92 L255.41,9.691 L255.372,16.064 L276.301,22.438 L280.714,22.475 Z M280.714,22.475" class="wall"/>
                <path d="M302.649,7.849 L302.17,7.505 L302.131,13.84 L307.788,97.405 L313.821,99.554 L316.8,101.214 L317.065,101.327 L319.213,103.099 L320.193,104.193 L320.193,104.231 L320.879,105.276 C320.211,106.195 319.393,107.008 318.422,107.712 C317.568,108.316 316.423,108.945 314.988,109.599 L314.65,109.511 L314.574,115.884 L322.644,118.939 L385.62,74.026 L385.653,68.474 L386.205,68.084 L302.649,7.849 L302.649,7.849 Z M302.649,7.849" class="wall"/>
                <path d="M315.856,117.94 L316.424,117.637 L305.479,112.467 C299.39,113.7 293.855,114.191 288.874,113.939 L210.232,170.34 L210.195,170.223 L210.194,170.368 L209.994,170.513 L210.19,171.059 L210.158,176.521 L211.869,181.932 L201.243,189.244 L201.183,189.229 L201.183,189.285 L200.711,189.61 L201.18,189.722 L201.146,195.526 L283.919,216.153 L327.926,197.26 L327.964,190.925 L327.485,191.131 L295.678,183.446 L317.97,167.545 L342.67,173.729 L371.819,152.8 L371.891,146.732 L372.166,146.546 L315.835,121.265 L315.856,117.94 L315.856,117.94 Z M315.856,117.94" class="wall"/>
                <path d="M283.692,49.928 L247,48.42 L246.997,48.741 L237.281,55.629 L284.534,57.516 L284.079,50.005 L283.692,49.989 L283.692,49.928 Z M283.692,49.928" class="wall"/>
                <path d="M236.826,55.977 L236.442,55.962 L236.44,56.253 L227.997,62.309 L285.364,64.46 L284.684,57.78 L237.206,55.705 L236.826,55.977 Z M236.826,55.977" class="wall"/>
                <path d="M271.55,217.7 L271.375,217.781 L203.306,201.07 L203.33,197.158 L203.579,197.006 L203.331,196.944 L203.332,196.733 L203.114,196.889 L153.226,184.269 L166.226,175.012 L189.04,171.279 L268.269,114.752 L268.337,108.908 L268.493,108.806 C268.439,108.773 268.392,108.739 268.34,108.706 L268.343,108.379 L268.102,108.551 C266.102,107.279 264.662,105.938 263.783,104.53 L264.045,104.041 L264.31,103.739 L264.725,103.249 L264.989,102.947 L266.799,101.401 L268.648,100.232 C269.427,99.83 270.119,99.503 270.722,99.252 L271.513,98.912 L275.737,97.479 L277.548,97.026 L286.749,95.669 L286.749,95.593 L286.824,95.631 L286.9,89.296 L286.296,89.145 L286.304,88.597 L287.517,88.915 L285.367,64.723 L227.924,62.307 L227.193,62.834 L226.866,62.822 L226.865,63.071 L220.49,67.666 L219.628,68.269 L219.212,68.252 L219.209,68.561 L216.226,70.646 L219.184,71.381 L219.175,72.438 L214.838,71.382 L214.836,71.697 L192.223,65.968 L168.862,82.838 L211.245,93.594 L210.273,94.261 L210.275,93.859 L167.776,83.262 L167.738,89.56 L203.959,98.591 L102.21,171.266 L92.586,168.926 L88.473,172.209 C87.391,172.611 85.944,172.913 84.133,173.114 C80.485,173.517 76.648,173.241 72.622,172.284 L71.489,173.265 L49.75,167.604 L2.734,201.601 L2.112,201.447 L2.074,207.745 L5.279,208.537 L5.241,213.741 L9.54,215.702 L9.804,215.853 L9.955,215.89 L14.48,217.512 L18.552,218.643 L18.778,218.718 L23.982,219.925 L29.413,220.944 L29.488,221.019 L35.634,221.961 L35.747,221.998 L35.9,221.998 L39.218,222.451 L39.369,222.451 L42.574,222.828 L42.649,222.828 L42.876,222.866 L47.967,223.356 L48.382,223.356 L49.627,223.469 L49.853,223.506 L56,223.846 L59.356,221.47 L59.423,215.861 L60.315,215.31 L56.39,214.526 L56.411,211.136 L57.296,210.63 L56.415,210.418 L56.415,210.383 L56.378,210.409 L27.816,203.539 L30.545,201.597 L71.685,211.841 L60.417,219.514 L60.374,219.509 L60.374,219.543 L60.051,219.764 L60.371,219.8 L60.299,225.845 L82.925,228.635 L87.186,225.618 L142.921,239.495 L142.883,239.532 L143.298,239.608 L143.298,239.571 L204.917,254.956 L271.475,223.996 L271.542,218.303 L272.23,217.991 L271.548,217.824 L271.55,217.7 L271.55,217.7 Z M271.55,217.7" class="wall"/>
                <path d="M247.584,48.269 L284.003,49.742 L281.966,22.719 L275.814,23.021 L249.546,14.68 C241.822,20.215 234.086,25.763 226.336,31.324 L225.166,31.299 L225.128,37.597 L252.909,44.517 L247.584,48.269 L247.584,48.269 Z M247.584,48.269" class="wall"/>
            </g>
            <g class="ceilings">
                <path class="unit" d="M280.646,7.962 L281.137,16.755 L276.797,16.793 L256.151,9.924 L263.172,4.64 L278.759,8.716 L280.646,7.962 L280.646,7.962 Z M280.646,7.962" id="2001"/>
                <path class="unit" d="M302.649,7.849 L335.559,31.588 L304.799,30.494 L302.649,7.849 L302.649,7.849 Z M302.649,7.849" id="2002"/>
                <path class="unit" d="M249.547,14.68 L275.815,23.021 L281.967,22.719 L282.986,36.004 L239.773,34.721 L226.337,31.325 C234.086,25.763 241.823,20.215 249.547,14.68 L249.547,14.68 Z M249.547,14.68" id="2003"/>
                <path class="unit" d="M345.786,39.098 L305.253,37.249 L304.837,30.758 L335.748,31.777 L345.786,39.098 L345.786,39.098 Z M345.786,39.098" id="2004"/>
                <path class="unit" d="M239.545,34.795 L283.173,36.268 L283.589,42.872 L256.377,41.929 L259.51,39.665 L239.545,34.795 L239.545,34.795 Z M239.545,34.795" id="2005"/>
                <path class="unit" d="M355.864,46.231 L305.743,44.269 L305.291,37.551 L346.051,39.287 L355.864,46.231 L355.864,46.231 Z M355.864,46.231" id="2006"/>
                <path class="unit" d="M256.529,41.966 L283.552,42.986 L284.004,49.742 L247.585,48.269 L256.529,41.966 L256.529,41.966 Z M256.529,41.966" id="2007"/>
                <path class="unit" d="M366.354,53.742 L306.234,51.591 L305.78,44.571 L356.089,46.42 L366.354,53.742 L366.354,53.742 Z M366.354,53.742" id="2008"/>
                <path class="unit" d="M247.396,48.458 L284.08,50.005 L284.535,57.516 L237.282,55.629 L247.396,48.458 L247.396,48.458 Z M247.396,48.458" id="2009"/>
                <path class="unit" d="M377.64,61.969 L306.801,59.478 L306.272,51.892 L366.543,53.892 L377.64,61.969 L377.64,61.969 Z M377.64,61.969" id="2010"/>
                <path class="unit" d="M237.206,55.705 L284.684,57.781 L285.365,64.461 L227.997,62.31 L237.206,55.705 L237.206,55.705 Z M237.206,55.705" id="2011"/>
                <path class="unit" d="M384.282,69.442 L307.215,66.083 L306.801,59.743 L377.905,62.083 L386.208,68.084 L384.282,69.442 L384.282,69.442 Z M384.282,69.442" id="2012"/>
                <path class="unit" d="M227.921,62.309 L285.364,64.725 L285.816,70.386 L220.486,67.669 L227.921,62.309 L227.921,62.309 Z M227.921,62.309" id="2013"/>
                <path class="unit" d="M286.308,78.123 L238.413,76.161 L216.223,70.65 L220.487,67.669 L285.742,70.688 L286.308,78.123 L286.308,78.123 Z M286.308,78.123" id="2014"/>
                <path class="unit" d="M364.015,83.293 L308.159,81.104 L307.254,66.348 L384.208,69.48 L364.015,83.293 L364.015,83.293 Z M364.015,83.293" id="2015"/>
                <path class="unit" d="M333.786,104.881 L321.595,104.315 C322.727,102.151 322.589,100.063 321.18,98.05 L341.824,99.107 L333.786,104.881 L333.786,104.881 Z M333.786,104.881" id="2016"/>
                <path class="unit" d="M318.424,107.711 C319.708,106.78 320.727,105.66 321.482,104.352 L333.371,105.144 L323.105,112.617 L314.991,109.598 C316.425,108.944 317.569,108.315 318.424,107.711 L318.424,107.711 Z M318.424,107.711" id="2017"/>
                <path class="unit" d="M262.229,82.085 L239.848,76.537 L286.383,78.425 L286.722,82.954 L262.229,82.085 L262.229,82.085 Z M262.229,82.085" id="2018"/>
                <path class="unit" d="M286.76,83.255 L287.515,88.916 L262.455,82.349 L286.76,83.255 L286.76,83.255 Z M286.76,83.255" id="2019"/>
                <path class="unit" d="M342.239,98.805 L321.179,97.899 C318.99,95.056 314.902,92.829 308.912,91.218 L308.232,81.406 L363.636,83.557 L342.239,98.805 L342.239,98.805 Z M342.239,98.805" id="2020"/>
                <path class="unit" d="M262.833,102.163 C263.26,104.554 265.147,106.768 268.494,108.806 L260.907,113.75 L202.71,99.446 L211.24,93.596 L168.857,82.84 L192.218,65.97 L286.797,89.935 C282.52,90.287 278.645,90.916 275.172,91.822 C271.349,92.803 268.443,93.999 266.454,95.407 C263.612,97.446 262.405,99.698 262.833,102.163 L262.833,102.163 Z M262.833,102.163" id="2021"/>
                <path class="unit" d="M173.839,120.015 L231.847,134.47 L217.354,144.81 L159.384,130.356 L173.839,120.015 L173.839,120.015 Z M173.839,120.015" id="2022"/>
                <path class="unit" d="M159.082,130.582 L217.015,145.037 L202.56,155.378 L144.627,140.924 L159.082,130.582 L159.082,130.582 Z M159.082,130.582" id="2023"/>
                <path class="unit" d="M136.966,146.472 L194.633,161.002 L188.86,165.154 L166.328,168.814 L121.53,157.453 L136.966,146.472 L136.966,146.472 Z M136.966,146.472" id="2024"/>
                <path class="unit" d="M247.282,123.449 L189.275,108.994 L202.56,99.521 L260.568,113.976 L247.282,123.449 L247.282,123.449 Z M247.282,123.449" id="2025"/>
                <path class="unit" d="M188.935,109.259 L246.943,123.714 L239.734,128.848 L181.727,114.392 L188.935,109.259 L188.935,109.259 Z M188.935,109.259" id="2026"/>
                <path class="unit" d="M181.312,114.693 L239.395,129.111 L232.186,134.242 L174.103,119.826 L181.312,114.693 L181.312,114.693 Z M181.312,114.693" id="2027"/>
                <path class="unit" d="M245.961,200.555 L304.836,158.55 L316.763,161.569 L288.533,181.721 L327.747,191.196 L283.213,209.878 L245.961,200.555 L245.961,200.555 Z M245.961,200.555" id="2028"/>
                <path class="unit" d="M372.168,146.547 L312.462,119.751 L316.425,117.637 L305.48,112.467 C299.391,113.7 293.856,114.191 288.875,113.939 L247.058,143.755 L295.026,155.755 L287.478,161.152 L297.517,163.681 L305.066,158.285 L341.977,167.493 L354.958,158.208 L355.071,158.096 L372.168,146.547 L372.168,146.547 Z M372.168,146.547" id="2029"/>
                <path class="unit" d="M239.47,149.377 L297.553,163.907 L290.344,169.077 L232.299,154.51 L239.47,149.377 L239.47,149.377 Z M239.47,149.377" id="2030"/>
                <path class="unit" d="M287.741,161.077 L239.886,149.114 L247.094,143.98 L294.95,155.944 L287.741,161.077 L287.741,161.077 Z M287.741,161.077" id="2031"/>
                <path class="unit" d="M144.4,141.113 L202.22,155.605 L195.011,160.775 L137.192,146.245 L144.4,141.113 L144.4,141.113 Z M144.4,141.113" id="2032"/>
                <path class="unit" d="M232.073,154.812 L290.006,169.305 L282.797,174.437 L224.865,159.945 L232.073,154.812 L232.073,154.812 Z M232.073,154.812" id="2033"/>
                <path class="unit" d="M224.563,160.095 L282.457,174.702 L275.248,179.834 L217.354,165.229 L224.563,160.095 L224.563,160.095 Z M224.563,160.095" id="2034"/>
                <path class="unit" d="M121.228,157.719 L165.838,169.003 L146.817,182.589 L102.207,171.268 L121.228,157.719 L121.228,157.719 Z M121.228,157.719" id="2035"/>
                <path class="unit" d="M92.583,168.928 L203.579,197.006 L198.747,199.95 L272.229,217.991 L204.899,248.637 L87.261,219.312 L82.958,222.369 L60.049,219.765 L78.505,207.197 L18.798,192.478 L17.402,190.779 L49.746,167.608 L71.485,173.269 L72.618,172.288 C76.643,173.245 80.48,173.521 84.129,173.118 C85.94,172.917 87.387,172.615 88.469,172.213 L92.583,168.928 L92.583,168.928 Z M92.583,168.928" id="2036"/>
                <path class="unit" d="M21.365,201.988 L57.295,210.631 L52.011,213.651 L60.314,215.311 L56.275,217.802 L43.18,216.67 C34.348,215.663 26.687,214.343 20.196,212.707 C14.334,211.272 9.616,209.574 6.043,207.612 L11.969,203.308 L2.722,201.61 L17.289,190.778 L18.762,192.666 L30.386,195.572 L21.365,201.988 L21.365,201.988 Z M21.365,201.988" id="2037"/>
                <path class="unit" d="M217.128,165.342 L274.909,180.097 L246.263,200.516 L200.711,189.61 L213.655,180.702 L209.994,170.513 L217.128,165.342 L217.128,165.342 Z M217.128,165.342" id="2038"/>
                <path class="unit" d="M267.285,1.811 L280.57,6 L280.607,7.849 L278.834,8.604 L263.322,4.604 L267.285,1.811 L267.285,1.811 Z M267.285,1.811" id="2039"/>
        </g>
    </g>
</svg>