<?xml version="1.0" encoding="utf-8"?>
<!DOCTYPE svg PUBLIC "-//W3C//DTD SVG 1.1//EN" "http://www.w3.org/Graphics/SVG/1.1/DTD/svg11.dtd">
<svg version="1.1" xmlns="http://www.w3.org/2000/svg" xmlns:xlink="http://www.w3.org/1999/xlink" xml:space="preserve">
<g class="level" id="level2">
            <g class="outline">
                <path d="M406.749,152.069 L402.785,148.652 L381.345,130.149 L370.495,120.786 L368.792,119.317 L366.337,121.458 L356.439,113.234 L342.223,101.44 L340.586,100.068 L334.518,95.028 L332.842,93.635 L299.613,66.847 L295.911,66.205 L248.084,57.059 L253.462,41.285 L254.167,39.213 L251.77,38.793 L196.476,29.102 L194.086,28.683 L193.39,30.75 L187.502,48.243 L144.255,40.637 L142.063,41.095 L128.192,45.165 L105.004,51.975 L88.517,56.817 L83.455,58.302 L49.607,68.24 L47.521,68.833 L45.131,69.519 L2.836,81.842 L0.377,82.554 L1.068,84.575 L19.352,137.846 L20.037,139.839 L22.437,139.076 L63.608,125.999 L66.818,125.26 L101.902,114.779 L107.411,113.133 L112.836,111.514 L114.388,114.06 L142.867,159.555 L143.317,160.625 C149.056,174.392 159.321,182.652 173.823,185.194 C189.978,188.025 207.174,183.057 217.746,172.538 L273.469,137.116 L279.454,142.201 L281.507,143.933 L283.338,145.47 L311.66,169.237 L310.706,170.069 L308.934,171.619 L310.577,173.024 L347.133,204.399 L348.845,205.862 L350.686,204.247 L406.625,155.01 L408.38,153.47 L406.749,152.069 L406.749,152.069 Z M379.491,131.682 L368.368,122.583 L368.656,122.332 L379.491,131.682 L379.491,131.682 Z M368.111,122.807 L366.047,124.617 L365.491,123.944 L366.232,124.446 L368.111,122.807 L368.111,122.807 Z M245.229,58.225 L244.779,59.704 L245.173,58.195 L251.075,40.862 L245.229,58.225 L245.229,58.225 Z M188.353,50.579 L188.341,50.587 L146.593,43.045 L188.353,50.579 L188.353,50.579 Z M142.688,43.085 L143.086,43.004 L142.688,43.085 L138.592,44.288 L142.688,43.085 L142.688,43.085 Z M84.081,60.293 L87.072,59.415 L84.081,60.293 L50.235,70.231 L50.193,70.244 L50.235,70.231 L84.081,60.293 L84.081,60.293 Z M63.035,123.988 L21.746,137.103 L3.462,83.832 L3.865,83.714 L3.463,83.832 L21.747,137.103 L63.035,123.988 L65.819,123.357 L63.035,123.988 L63.035,123.988 Z M114.158,108.939 L116.614,112.964 L116.721,113.137 L116.613,112.965 L114.158,108.939 L114.158,108.939 Z M174.518,183.129 C172.502,182.775 170.605,182.301 168.811,181.732 C170.606,182.301 172.502,182.775 174.518,183.129 C180.475,184.173 186.462,184.102 192.126,183.092 C186.462,184.102 180.475,184.173 174.518,183.129 L174.518,183.129 Z M267.268,138.538 L273.864,134.346 L275.084,135.38 L273.864,134.347 L267.268,138.538 L267.268,138.538 Z M285.158,143.913 L283.331,142.384 L281.962,141.218 L283.334,142.377 L285.158,143.913 L313.445,167.644 L285.158,143.913 L285.158,143.913 Z M348.965,202.849 L312.414,171.476 L313.416,170.607 L312.415,171.476 L348.965,202.849 L404.91,153.615 L404.91,153.616 L348.965,202.849 L348.965,202.849 Z M348.965,202.849" class="outline"/>
            </g>
            <g class="label">
                <path d="M44.348,0.585 C43.995,0.585 43.787,0.841 43.787,1.241 L43.787,9.804 L43.755,9.804 L38.185,1.064 C37.977,0.728 37.705,0.584 37.352,0.584 C36.872,0.584 36.552,0.92 36.552,1.496 L36.552,11.26 C36.552,11.66 36.808,11.9 37.144,11.9 C37.496,11.9 37.736,11.66 37.736,11.26 L37.736,2.6 L37.768,2.6 L43.274,11.356 C43.482,11.676 43.738,11.9 44.107,11.9 C44.635,11.9 44.923,11.484 44.923,11.052 L44.923,1.24 C44.924,0.841 44.7,0.585 44.348,0.585 L44.348,0.585 Z M30.058,0.521 C27.177,0.521 25.352,2.858 25.352,6.459 C25.352,9.853 27.144,11.965 30.01,11.965 C32.891,11.965 34.716,9.612 34.716,6.011 C34.716,2.618 32.908,0.521 30.058,0.521 L30.058,0.521 Z M30.042,10.781 C27.897,10.781 26.648,9.036 26.648,6.524 C26.648,3.563 27.88,1.706 30.025,1.706 C32.218,1.706 33.419,3.451 33.419,5.948 C33.42,8.908 32.187,10.781 30.042,10.781 L30.042,10.781 Z M15.531,10.621 L10.76,10.621 L10.76,6.763 L14.634,6.763 C15.018,6.763 15.226,6.443 15.226,6.171 C15.226,5.883 15.018,5.595 14.634,5.595 L10.76,5.595 L10.76,1.866 L15.37,1.866 C15.787,1.866 16.01,1.594 16.01,1.29 C16.01,0.954 15.786,0.65 15.37,0.65 L10.584,0.65 C9.896,0.65 9.527,1.018 9.527,1.61 L9.527,10.878 C9.527,11.47 9.895,11.838 10.584,11.838 L15.53,11.838 C15.914,11.838 16.138,11.502 16.138,11.23 C16.14,10.893 15.916,10.621 15.531,10.621 L15.531,10.621 Z M24.027,10.381 C23.931,10.381 23.803,10.397 23.659,10.445 C23.211,10.637 22.731,10.781 21.962,10.781 C19.593,10.781 18.153,9.133 18.153,6.267 C18.153,3.546 19.465,1.721 21.722,1.721 C22.17,1.721 22.778,1.769 23.306,1.977 C23.514,2.057 23.69,2.121 23.882,2.121 C24.202,2.121 24.443,1.881 24.443,1.529 C24.443,1.305 24.299,1.081 23.995,0.953 C23.354,0.665 22.554,0.521 21.85,0.521 C19.049,0.521 16.888,2.521 16.888,6.411 C16.888,10.077 18.985,11.965 21.882,11.965 C22.634,11.965 23.242,11.869 23.946,11.597 C24.314,11.453 24.554,11.261 24.554,10.941 C24.556,10.637 24.348,10.381 24.027,10.381 L24.027,10.381 Z M4.73,5.483 C3.37,4.955 2.489,4.539 2.489,3.418 C2.489,2.346 3.385,1.721 4.538,1.721 C5.21,1.721 5.77,1.865 6.219,2.025 C6.395,2.073 6.555,2.137 6.731,2.137 C7.019,2.137 7.292,1.897 7.292,1.545 C7.292,1.321 7.196,1.097 6.812,0.937 C6.268,0.713 5.419,0.521 4.667,0.521 C2.49,0.521 1.21,1.85 1.21,3.482 C1.21,5.099 2.314,5.851 3.915,6.475 C6.012,7.291 6.588,7.851 6.588,8.924 C6.588,10.06 5.692,10.813 4.299,10.813 C3.435,10.813 2.618,10.493 2.058,10.093 C1.802,9.917 1.658,9.821 1.418,9.821 C1.114,9.821 0.857,10.061 0.842,10.365 C0.826,10.669 0.986,10.861 1.194,11.005 C1.93,11.502 2.986,11.965 4.235,11.965 C6.428,11.965 7.837,10.669 7.837,8.844 C7.835,7.18 6.603,6.203 4.73,5.483 L4.73,5.483 Z M90.554,0.521 C87.673,0.521 85.848,2.858 85.848,6.459 C85.848,9.853 87.64,11.965 90.506,11.965 C93.387,11.965 95.212,9.612 95.212,6.011 C95.212,2.618 93.403,0.521 90.554,0.521 L90.554,0.521 Z M90.538,10.781 C88.393,10.781 87.144,9.036 87.144,6.524 C87.144,3.563 88.376,1.706 90.521,1.706 C92.714,1.706 93.915,3.451 93.915,5.948 C93.916,8.908 92.683,10.781 90.538,10.781 L90.538,10.781 Z M79.85,0.521 C76.969,0.521 75.144,2.858 75.144,6.459 C75.144,9.853 76.936,11.965 79.802,11.965 C82.683,11.965 84.508,9.612 84.508,6.011 C84.508,2.618 82.7,0.521 79.85,0.521 L79.85,0.521 Z M79.834,10.781 C77.689,10.781 76.44,9.036 76.44,6.524 C76.44,3.563 77.672,1.706 79.817,1.706 C82.01,1.706 83.211,3.451 83.211,5.948 C83.212,8.908 81.979,10.781 79.834,10.781 L79.834,10.781 Z M104.203,10.845 C103.771,9.692 103.259,8.492 102.763,7.723 C102.475,7.307 102.155,6.987 101.786,6.747 C103.211,6.25 104.139,5.258 104.139,3.738 C104.139,1.801 102.827,0.521 99.93,0.521 C98.826,0.521 98.073,0.633 97.561,0.793 C97.161,0.921 97.049,1.161 97.049,1.561 L97.049,11.261 C97.049,11.661 97.321,11.901 97.674,11.901 C98.026,11.901 98.298,11.661 98.298,11.261 L98.298,7.083 L99.547,7.083 C100.715,7.083 101.18,7.563 101.756,8.492 C102.156,9.132 102.572,10.06 103.068,11.453 C103.164,11.709 103.34,11.901 103.676,11.901 C104.012,11.901 104.301,11.661 104.301,11.277 C104.299,11.165 104.267,11.005 104.203,10.845 L104.203,10.845 Z M99.737,5.867 L98.297,5.867 L98.297,1.833 C98.745,1.769 99.177,1.705 99.866,1.705 C102.155,1.705 102.875,2.601 102.875,3.786 C102.874,5.435 101.322,5.915 99.737,5.867 L99.737,5.867 Z M74.122,10.653 L69.816,10.653 L69.816,1.241 C69.816,0.841 69.56,0.585 69.208,0.585 C68.855,0.585 68.583,0.841 68.583,1.241 L68.583,10.877 C68.583,11.469 68.951,11.837 69.64,11.837 L74.121,11.837 C74.521,11.837 74.777,11.565 74.777,11.229 C74.778,10.925 74.539,10.653 74.122,10.653 L74.122,10.653 Z M66.378,0.649 L61.689,0.649 C61.001,0.649 60.632,1.017 60.632,1.609 L60.632,11.261 C60.632,11.661 60.904,11.901 61.256,11.901 C61.609,11.901 61.864,11.661 61.864,11.261 L61.864,6.971 L65.786,6.971 C66.138,6.971 66.378,6.682 66.378,6.379 C66.378,6.091 66.138,5.802 65.786,5.802 L61.864,5.802 L61.864,1.864 L66.362,1.864 C66.81,1.864 67.018,1.56 67.018,1.272 C67.019,0.969 66.811,0.649 66.378,0.649 L66.378,0.649 Z M50.042,0.521 C49.434,0.521 48.473,0.569 47.833,0.729 C47.417,0.841 47.257,1.129 47.257,1.513 L47.257,10.989 C47.257,11.373 47.401,11.693 47.961,11.789 C48.473,11.885 49.114,11.965 50.202,11.965 C53.739,11.965 55.276,9.42 55.276,6.251 C55.276,2.938 53.724,0.521 50.042,0.521 L50.042,0.521 Z M50.234,10.781 C49.578,10.781 49.002,10.765 48.489,10.685 L48.489,1.801 C48.953,1.737 49.577,1.705 50.058,1.705 C52.923,1.705 54.028,3.578 54.028,6.139 C54.028,8.924 52.907,10.781 50.234,10.781 L50.234,10.781 Z M50.234,10.781" class="Shape"/>
            </g>
            <g class="background">
                <path d="M348.632,141.135 L332.336,126.954 L284.285,87.266 L301.395,71.713 L298.436,69.1 L294.736,68.45 L246.212,59.979 L244.3,59.881 L244.692,58.372 L250.374,41 L243.764,60.391 L187.862,50.765 L144.153,42.867 L142.015,43.321 L142.19,44.016 L143.894,62.225 L120.078,69.7 L95.008,76.831 L74.116,82.453 L49.464,89.532 L52.807,107.707 L95.844,93.573 L130.941,82.453 L169.381,171.031 L191.099,173.529 L263.395,120.614 L282.614,107.707 L335.261,153.179 L348.632,141.135 Z M348.632,141.135" class="walkway"/>
                <path d="M244.305,60.035 L250.844,40.854 L195.541,31.161 L189.009,50.567 L244.234,60.246 L244.305,60.035 L244.305,60.035 Z M400.709,150.189 L379.268,131.685 L368.137,122.575 L366.024,124.421 L299.676,70.313 L279.632,87.389 L310.551,112.595 L311.89,114.289 L313.786,115.884 L315.128,117.007 L318.242,119.058 L328.741,127.907 L344.538,141.14 L345.737,142.147 L336.284,150.404 L320.646,137.052 L312.667,130.032 L306.569,125.032 L282.433,104.427 L261.643,116.199 L257.214,118.709 L256.007,119.393 L225.78,136.511 C225.65,136.581 213.844,143.138 206.655,157.406 L201.488,162.135 C197.244,165.02 189.498,168.81 179.676,167.088 C171.291,165.618 167.247,160.998 165.176,156.889 C164.733,155.976 164.403,155.111 164.065,153.998 C163.855,153.269 163.726,152.663 163.652,152.228 C165.851,141.417 165.532,132.081 164.494,128.794 C164.245,128.001 163.931,127.249 163.599,126.612 C163.34,126.12 163.049,125.655 162.245,124.692 L145.32,99.322 L144.474,98.054 L131.827,79.087 L97.243,89.75 L55.339,102.667 L52.059,91.343 L56.571,90.162 L93.67,79.138 L95.592,78.654 L122.946,70.544 L147.551,63.325 L142.456,43.078 L128.585,47.149 L27.037,76.889 L3.223,83.825 L21.507,137.096 L62.797,123.981 L65.945,123.268 L80.268,119.094 L106.53,111.14 L114.195,108.856 L116.382,112.96 L146.32,161.773 C151.246,172.235 159.858,180.592 174.28,183.121 C190.198,185.912 206.342,180.74 216.109,171.08 L273.671,134.38 L283.094,142.376 L284.927,143.906 L313.567,167.34 L314.109,169.782 L313.324,170.471 L312.178,171.467 L348.735,202.841 L404.673,153.605 L400.709,150.189 L400.709,150.189 Z M400.709,150.189" class="fill"/>
                <path d="M214.955,101.073 L212.136,109.447 L201.685,107.616 L203.116,103.363 L202.445,100.715 L165.88,94.307 L159.348,113.712 L160.019,116.36 L232.757,129.108 L239.872,107.969 L239.2,105.322 L214.955,101.073 L214.955,101.073 Z M200.948,79.961 L200.276,77.313 L194.71,76.338 L190.763,88.065 L191.434,90.712 L197,91.689 L200.948,79.961 L200.948,79.961 Z M224,84.001 L223.328,81.353 L217.761,80.377 L213.814,92.104 L214.486,94.752 L220.052,95.728 L224,84.001 L224,84.001 Z M265.8,62.561 L168.022,45.423 L161.492,64.822 L162.163,67.468 L259.941,84.607 L266.47,65.208 L265.8,62.561 L265.8,62.561 Z M265.8,62.561" class="wall"/>
            </g>
            <g class="ceilings">
                <path class="unit" d="M223.663,81.846 L219.717,93.573 L214.149,92.598 L218.097,80.87 L223.663,81.846 Z M223.663,81.846" id="3001"/>
                <path class="unit" d="M200.612,77.807 L196.665,89.532 L191.099,88.557 L195.046,76.831 L200.612,77.807 Z M200.612,77.807" id="3002"/>
                <path class="unit" d="M266.136,63.055 L259.605,82.453 L161.828,65.314 L168.358,45.916 L266.136,63.055 Z M266.136,63.055" id="3003"/>
                <path class="unit" d="M239.536,105.815 L236.717,114.19 L212.472,109.94 L215.29,101.566 L239.536,105.815 Z M239.536,105.815" id="3004"/>
                <path class="unit" d="M236.717,114.19 L232.421,126.954 L196.249,120.614 L200.545,107.851 L236.717,114.19 Z M236.717,114.19" id="3005"/>
                <path class="unit" d="M202.781,101.209 L196.249,120.614 L159.683,114.206 L166.215,94.8 L202.781,101.209 Z M202.781,101.209" id="3006"/>
        </g>
    </g>
</svg>