<?xml version="1.0" encoding="UTF-8" standalone="no"?>
<!-- Created with Inkscape (http://www.inkscape.org/) -->

<svg
   xmlns:dc="http://purl.org/dc/elements/1.1/"
   xmlns:cc="http://creativecommons.org/ns#"
   xmlns:rdf="http://www.w3.org/1999/02/22-rdf-syntax-ns#"
   xmlns:svg="http://www.w3.org/2000/svg"
   xmlns="http://www.w3.org/2000/svg"
   xmlns:sodipodi="http://sodipodi.sourceforge.net/DTD/sodipodi-0.dtd"
   xmlns:inkscape="http://www.inkscape.org/namespaces/inkscape"
   width="744.09448819"
   height="1052.3622047"
   id="svg2"
   version="1.1"
   inkscape:version="0.48.2 r9819"
   sodipodi:docname="level1.svg">
  <defs
     id="defs4" />
  <sodipodi:namedview
     id="base"
     pagecolor="#ffffff"
     bordercolor="#666666"
     borderopacity="1.0"
     inkscape:pageopacity="0.0"
     inkscape:pageshadow="2"
     inkscape:zoom="2.8"
     inkscape:cx="-32.088957"
     inkscape:cy="847.12397"
     inkscape:document-units="px"
     inkscape:current-layer="layer1"
     showgrid="false"
     inkscape:window-width="1014"
     inkscape:window-height="710"
     inkscape:window-x="150"
     inkscape:window-y="0"
     inkscape:window-maximized="0" />
  <metadata
     id="metadata7">
    <rdf:RDF>
      <cc:Work
         rdf:about="">
        <dc:format>image/svg+xml</dc:format>
        <dc:type
           rdf:resource="http://purl.org/dc/dcmitype/StillImage" />
        <dc:title></dc:title>
      </cc:Work>
    </rdf:RDF>
  </metadata>
  <g
     inkscape:label="Layer 1"
     inkscape:groupmode="layer"
     id="layer1">
    <g
       id="level0"
       class="level"
       transform="translate(-142.62686,84.077021)">
            <g
   id="g3445"
   class="outline">
            <path
   id="path3447"
   class="outline"
   d="m 427.271,44.46 -2.538,-4.052 c -0.183,-0.283 -0.443,-0.496 -0.755,-0.608 -0.147,-0.104 -0.315,-0.181 -0.493,-0.225 l -35.365,-8.833 0.021,-1.95 c 0.011,-0.675 -0.438,-1.271 -1.09,-1.451 l -0.131,-0.035 c -0.125,-0.08 -0.26,-0.142 -0.404,-0.183 L 362.275,20.38 c -0.426,-0.117 -0.875,-0.042 -1.237,0.205 -0.045,0.024 -0.088,0.054 -0.131,0.083 l -1.322,0.943 -4.707,-1.171 0.006,-0.629 c 0.008,-0.663 -0.424,-1.25 -1.059,-1.439 l -0.072,-0.021 c -0.137,-0.104 -0.293,-0.183 -0.463,-0.232 L 302.581,2.944 294.589,0.256 c -0.242,-0.08 -0.512,-0.088 -0.771,-0.032 -0.229,0.034 -0.444,0.121 -0.639,0.258 l -20.099,14.305 -6.686,1.527 c -0.191,0.044 -0.375,0.126 -0.535,0.24 l -0.146,0.104 c -0.039,0.021 -0.074,0.047 -0.111,0.073 l -16.812,12 -55.408,-13.813 c -0.348,-0.086 -0.709,-0.044 -1.022,0.111 -0.125,0.046 -0.243,0.106 -0.354,0.188 l -19.582,13.979 c -0.387,0.274 -0.616,0.72 -0.623,1.194 l -0.036,3.445 c -0.011,0.688 0.457,1.292 1.125,1.459 l 18.271,4.56 -18.185,12.956 -10.611,-2.625 c -2.613,-0.662 -4.62,-0.882 -6.165,-0.677 -0.053,0.008 -0.104,0.017 -0.156,0.029 l -1.401,0.341 c -0.051,0.013 -0.101,0.027 -0.15,0.045 -0.397,0.144 -0.775,0.319 -1.118,0.518 -0.93,0.468 -1.667,1.062 -2.192,1.77 -0.059,0.079 -0.109,0.167 -0.15,0.26 l -0.196,0.292 c -0.074,0.11 -0.132,0.23 -0.174,0.356 l -0.222,0.529 c -0.035,0.082 -0.062,0.174 -0.082,0.271 l -0.075,0.225 c -0.026,0.079 -0.046,0.16 -0.059,0.243 l -3.711,24.243 c -0.011,0.075 -0.017,0.149 -0.017,0.226 l 0,3.446 c 0,0.684 0.465,1.278 1.127,1.443 l 19.707,4.907 0,1.414 c 0,0.403 0.164,0.778 0.436,1.052 l -13.061,9.327 -0.186,0.134 c -0.111,0.043 -0.218,0.103 -0.316,0.172 l -8.368,5.965 c -0.031,0.008 -0.062,0.015 -0.093,0.021 l -0.152,0.037 c -0.395,0.098 -0.727,0.35 -0.928,0.688 -0.387,0.102 -0.711,0.351 -0.909,0.684 -0.387,0.102 -0.712,0.348 -0.91,0.682 -0.381,0.102 -0.702,0.344 -0.9,0.67 l -0.022,0.017 c -0.352,0.095 -0.651,0.312 -0.849,0.604 l -0.143,0.104 c -0.287,0.096 -0.535,0.271 -0.714,0.51 l -0.306,0.217 c -0.177,0.08 -0.339,0.197 -0.476,0.342 l -0.576,0.41 c -0.092,0.053 -0.179,0.113 -0.258,0.184 l -0.432,0.31 c -0.291,0.097 -0.541,0.276 -0.721,0.517 l -8.851,6.312 c -0.386,0.274 -0.618,0.722 -0.624,1.192 l -0.038,3.445 c -0.007,0.688 0.459,1.293 1.127,1.459 l 19.821,4.938 -1.527,1.088 -0.142,0.087 c -0.033,0.02 -0.065,0.04 -0.096,0.062 l -1.336,0.957 -3.078,-0.771 c -0.355,-0.09 -0.729,-0.042 -1.05,0.125 -0.12,0.047 -0.234,0.105 -0.34,0.188 l -1.268,0.918 -5.563,-1.383 c -0.359,-0.088 -0.735,-0.041 -1.057,0.133 -0.112,0.043 -0.22,0.103 -0.32,0.172 l -4.47,3.183 c -0.294,0.21 -0.499,0.517 -0.583,0.858 l -11.841,-2.873 c -0.421,-0.104 -0.87,-0.016 -1.222,0.24 l -1.78,1.287 c -0.469,0.34 -0.698,0.92 -0.588,1.485 0.11,0.567 0.539,1.021 1.1,1.16 l 14.882,3.713 c 0.034,0.022 0.068,0.046 0.103,0.065 l -5.584,4.002 -4.477,-1.114 0.028,-2.599 c 0.007,-0.688 -0.458,-1.293 -1.127,-1.459 l -0.053,-0.016 c -0.141,-0.097 -0.3,-0.168 -0.471,-0.21 l -15.454,-3.864 c -0.407,-0.104 -0.836,-0.025 -1.184,0.204 -0.055,0.029 -0.107,0.062 -0.159,0.101 l -8.826,6.287 c -0.392,0.277 -0.624,0.729 -0.624,1.211 l 0,3.447 c 0,0.684 0.464,1.276 1.126,1.441 l 2.028,0.508 -6.785,4.846 -3.418,-0.85 c -0.409,-0.102 -0.837,-0.023 -1.186,0.207 -0.054,0.027 -0.106,0.062 -0.157,0.098 l -9.243,6.592 c -0.32,0.229 -0.534,0.57 -0.601,0.951 -0.307,-0.041 -0.619,0.018 -0.893,0.161 -0.114,0.046 -0.223,0.104 -0.324,0.177 l -50.229,35.834 c -0.391,0.278 -0.623,0.729 -0.623,1.211 l 0,3.408 0,0.026 -1.346,0.958 c -0.392,0.277 -0.625,0.729 -0.625,1.211 l 0,3.447 c 0,0.279 0.079,0.554 0.227,0.789 l 1.706,2.726 c 0.056,0.091 0.122,0.173 0.196,0.249 l 0.075,0.077 c 0.192,0.196 0.437,0.338 0.704,0.403 l 42.688,10.683 c 0.17,0.044 0.344,0.058 0.518,0.035 l 6.78,-0.718 c 0.256,-0.026 0.5,-0.121 0.709,-0.271 l 5.719,-4.1 5.723,1.438 -0.007,0.639 c -0.007,0.688 0.459,1.293 1.128,1.461 l 29.697,7.388 c 0.118,0.026 0.239,0.043 0.359,0.043 0.306,0 0.607,-0.097 0.862,-0.274 l 9.052,-6.438 c 0.393,-0.278 0.625,-0.73 0.625,-1.213 l 0,-1.125 8.323,-5.918 3.96,0.984 c 0.057,0.016 0.114,0.024 0.173,0.031 l 68.885,8.711 0.021,0.006 c 0.424,0.107 0.877,0.024 1.231,-0.229 l 31.896,-22.768 c 0.394,-0.279 0.623,-0.729 0.623,-1.211 l 0,-3.445 c 0,-0.74 -0.543,-1.367 -1.274,-1.474 l -0.037,-0.005 c -0.162,-0.095 -0.344,-0.156 -0.532,-0.186 l -4.253,-0.598 0,-0.81 c 0,-0.718 -0.51,-1.328 -1.207,-1.462 -0.168,-0.102 -0.354,-0.17 -0.553,-0.197 l -13.188,-1.96 -8.322,-2.063 c -0.075,-0.596 -0.506,-1.094 -1.096,-1.248 l -0.02,-0.006 c -0.053,-0.035 -0.105,-0.068 -0.162,-0.1 l 0,-0.92 c 0,-0.289 -0.084,-0.562 -0.23,-0.797 l 0.215,-0.151 c 0.388,-0.274 0.617,-0.72 0.623,-1.192 l 0.033,-2.914 24.969,5.675 c 0.41,0.093 0.853,0.007 1.197,-0.242 l 2.688,-1.935 c 0.391,-0.276 0.619,-0.729 0.619,-1.207 l 0,-0.221 14.684,-10.504 c 0.387,-0.273 0.615,-0.718 0.621,-1.191 l 0.039,-3.41 c 0.008,-0.682 -0.453,-1.281 -1.111,-1.453 -0.16,-0.123 -0.348,-0.217 -0.551,-0.266 L 235,159.467 258.574,142.642 c 0.387,-0.274 0.617,-0.72 0.623,-1.192 l 0.039,-3.443 c 0.008,-0.688 -0.455,-1.291 -1.121,-1.459 l -0.072,-0.02 c -0.062,-0.042 -0.127,-0.078 -0.194,-0.107 0.347,-0.277 0.551,-0.698 0.558,-1.146 l 0.036,-3.443 c 0.009,-0.688 -0.461,-1.291 -1.129,-1.459 l -0.062,-0.017 c -0.143,-0.095 -0.299,-0.165 -0.469,-0.207 l -6.768,-1.688 26.816,-19.147 c 0.387,-0.272 0.617,-0.72 0.623,-1.188 l 0.016,-1.127 1.291,0.313 c 0.418,0.104 0.861,0.017 1.215,-0.233 l 8.938,-6.361 c 0.393,-0.276 0.625,-0.729 0.625,-1.211 l 0,-3.446 c 0,-0.361 -0.131,-0.698 -0.353,-0.96 0.117,-0.045 0.229,-0.104 0.334,-0.182 l 5.959,-4.261 8.69,2.146 c 0.414,0.104 0.856,0.021 1.209,-0.227 l 0.582,-0.406 2.029,0.5 -2.055,1.455 c -0.393,0.279 -0.625,0.73 -0.625,1.213 l 0,3.443 c 0,0.684 0.467,1.278 1.127,1.442 l 49.547,12.353 c 0.422,0.104 0.867,0.02 1.221,-0.23 l 2.437,-1.729 2.063,0.518 c 0.422,0.105 0.869,0.021 1.224,-0.229 l 30.72,-21.896 c 0.389,-0.273 0.618,-0.718 0.625,-1.192 l 0.039,-3.446 c 0.008,-0.689 -0.459,-1.294 -1.13,-1.46 L 393.1,82.892 c -0.139,-0.089 -0.286,-0.156 -0.452,-0.197 l -0.67,-0.169 33.34,-23.778 c 0.387,-0.275 0.619,-0.72 0.623,-1.193 l 0.037,-3.446 c 0.008,-0.687 -0.455,-1.288 -1.119,-1.457 l -0.099,-0.023 c -0.135,-0.09 -0.285,-0.157 -0.448,-0.198 l -0.726,-0.182 3.277,-2.323 c 0.393,-0.278 0.627,-0.729 0.627,-1.213 l 0,-3.46 c 0.01,-0.283 -0.068,-0.556 -0.219,-0.793 l 0,0 z m -220.919,131.561 -0.715,-0.181 c 0.242,0.043 0.484,0.025 0.717,-0.047 l -0.002,0.228 0,0 z m 0,0"
   inkscape:connector-curvature="0" />

            </g>

            <g
   id="g3449"
   class="label">
                <path
   id="path3451"
   class="Shape"
   d="m 8.206,116.556 c -0.368,0 -0.624,0.257 -0.624,0.656 l 0,8.756 c -0.833,0.544 -2.017,0.769 -2.737,0.769 -1.857,0 -2.993,-0.912 -2.993,-2.978 l 0,-6.547 c 0,-0.399 -0.256,-0.656 -0.608,-0.656 -0.352,0 -0.624,0.257 -0.624,0.656 l 0,6.788 c 0,2.337 1.457,3.938 3.985,3.938 1.809,0 2.849,-0.48 3.778,-1.008 0.352,-0.209 0.432,-0.48 0.432,-0.865 l 0,-8.852 c -10e-4,-0.4 -0.257,-0.657 -0.609,-0.657 l 0,0 z m 14.526,-0.063 c -1.008,0 -1.761,0.112 -2.273,0.271 -0.4,0.129 -0.512,0.368 -0.512,0.769 l 0,9.7 c 0,0.4 0.256,0.641 0.608,0.641 0.352,0 0.624,-0.24 0.624,-0.641 l 0,-3.617 c 0.528,0.031 0.833,0.048 1.473,0.048 2.881,0 4.402,-1.393 4.402,-3.666 0,-2.017 -1.329,-3.505 -4.322,-3.505 l 0,0 z m -0.144,6.002 c -0.592,0 -0.88,0 -1.409,-0.031 l 0,-4.675 c 0.448,-0.063 0.993,-0.128 1.521,-0.128 2.273,0 3.089,1.089 3.089,2.369 0,1.312 -0.704,2.465 -3.201,2.465 l 0,0 z M 13.9,116.493 c -1.008,0 -1.761,0.112 -2.273,0.271 -0.4,0.129 -0.512,0.368 -0.512,0.769 l 0,9.7 c 0,0.4 0.256,0.641 0.608,0.641 0.352,0 0.624,-0.24 0.624,-0.641 l 0,-3.617 c 0.528,0.031 0.833,0.048 1.473,0.048 2.881,0 4.402,-1.393 4.402,-3.666 0,-2.017 -1.328,-3.505 -4.322,-3.505 l 0,0 z m -0.144,6.002 c -0.592,0 -0.88,0 -1.409,-0.031 l 0,-4.675 c 0.448,-0.063 0.993,-0.128 1.521,-0.128 2.273,0 3.089,1.089 3.089,2.369 10e-4,1.312 -0.704,2.465 -3.201,2.465 l 0,0 z m 64.976,4.13 -4.306,0 0,-9.412 c 0,-0.399 -0.256,-0.656 -0.608,-0.656 -0.352,0 -0.624,0.257 -0.624,0.656 l 0,9.637 c 0,0.592 0.368,0.96 1.057,0.96 l 4.481,0 c 0.4,0 0.656,-0.272 0.656,-0.608 0,-0.305 -0.24,-0.577 -0.656,-0.577 l 0,0 z M 68.62,118.029 c -0.624,-1.248 -1.12,-1.616 -1.681,-1.616 -0.56,0 -1.056,0.368 -1.681,1.616 -0.896,1.809 -1.584,4.082 -2.753,8.708 -0.064,0.224 -0.096,0.4 -0.096,0.512 0,0.385 0.256,0.625 0.608,0.625 0.288,0 0.496,-0.177 0.576,-0.513 0.304,-1.377 0.608,-2.609 0.913,-3.665 l 4.866,0 c 0.288,1.056 0.592,2.288 0.913,3.665 0.08,0.336 0.288,0.513 0.576,0.513 0.352,0 0.608,-0.24 0.608,-0.625 0,-0.111 -0.048,-0.288 -0.096,-0.512 -1.136,-4.626 -1.856,-6.9 -2.753,-8.708 l 0,0 z m -3.793,4.546 c 0.736,-2.449 1.393,-3.97 1.905,-4.77 0.048,-0.064 0.096,-0.128 0.208,-0.128 0.112,0 0.16,0.063 0.208,0.128 0.512,0.8 1.152,2.32 1.889,4.77 l -4.21,0 0,0 z m 21.521,4.05 -4.306,0 0,-9.412 c 0,-0.399 -0.256,-0.656 -0.608,-0.656 -0.353,0 -0.625,0.257 -0.625,0.656 l 0,9.637 c 0,0.592 0.368,0.96 1.057,0.96 l 4.481,0 c 0.4,0 0.656,-0.272 0.656,-0.608 0.001,-0.305 -0.239,-0.577 -0.655,-0.577 l 0,0 z m -43.519,-2.929 c -0.288,-0.417 -0.608,-0.736 -0.977,-0.977 1.425,-0.496 2.353,-1.489 2.353,-3.01 0,-1.937 -1.312,-3.217 -4.209,-3.217 -1.104,0 -1.857,0.112 -2.369,0.271 -0.4,0.129 -0.512,0.368 -0.512,0.769 l 0,9.7 c 0,0.4 0.272,0.641 0.625,0.641 0.352,0 0.624,-0.24 0.624,-0.641 l 0,-4.178 1.249,0 c 1.168,0 1.633,0.48 2.209,1.408 0.4,0.641 0.816,1.569 1.312,2.962 0.096,0.256 0.272,0.448 0.608,0.448 0.336,0 0.625,-0.24 0.625,-0.625 0,-0.111 -0.032,-0.271 -0.096,-0.432 -0.434,-1.15 -0.946,-2.352 -1.442,-3.119 l 0,0 z m -3.026,-1.858 -1.44,0 0,-4.033 c 0.448,-0.064 0.88,-0.128 1.569,-0.128 2.289,0 3.009,0.896 3.009,2.081 -0.001,1.649 -1.553,2.128 -3.138,2.08 l 0,0 z m -5.022,4.754 -4.77,0 0,-3.857 3.874,0 c 0.384,0 0.592,-0.32 0.592,-0.592 0,-0.288 -0.208,-0.576 -0.592,-0.576 l -3.874,0 0,-3.729 4.61,0 c 0.416,0 0.64,-0.272 0.64,-0.576 0,-0.337 -0.224,-0.641 -0.64,-0.641 l -4.786,0 c -0.688,0 -1.057,0.368 -1.057,0.96 l 0,9.269 c 0,0.592 0.368,0.96 1.057,0.96 l 4.946,0 c 0.384,0 0.608,-0.336 0.608,-0.608 0,-0.337 -0.224,-0.61 -0.608,-0.61 l 0,0 z m 25.281,-8.739 c -0.112,-0.832 -0.4,-1.297 -1.056,-1.297 -0.625,0 -0.896,0.368 -1.073,0.833 -0.816,2.209 -1.712,5.042 -2.689,7.667 l -0.016,0 c -1.008,-2.481 -1.792,-5.09 -2.817,-7.523 -0.224,-0.608 -0.496,-0.977 -1.121,-0.977 -0.656,0 -0.96,0.448 -1.056,1.329 -0.353,2.929 -0.544,6.099 -0.528,9.348 -0.016,0.384 0.224,0.641 0.576,0.641 0.352,0 0.624,-0.225 0.624,-0.656 -0.016,-3.073 0.176,-6.051 0.513,-9.044 l 0.016,0 c 0.977,2.625 1.921,5.266 2.961,7.891 0.128,0.337 0.4,0.576 0.816,0.576 0.4,0 0.704,-0.239 0.832,-0.576 1.024,-2.545 1.905,-5.25 2.833,-7.891 l 0.016,0 c 0.417,3.025 0.576,6.002 0.656,8.979 0,0.448 0.224,0.721 0.641,0.721 0.352,0 0.576,-0.288 0.576,-0.673 0,-0.128 -0.016,-0.368 -0.016,-0.48 -0.031,-3.042 -0.287,-6.098 -0.688,-8.868 l 0,0 z m 0,0"
   inkscape:connector-curvature="0" />

                
                
            </g>

            <g
   id="g3457"
   class="background">
                <path
   id="path3459"
   class="walkway"
   d="m 337.109,42.94 -47.424,33.826 -1.629,-0.417 -106.177,75.72 21.742,5.417 2.461,-1.78 21.479,5.381 -4.733,3.369 -39.32,-9.811 -6.361,0.833 -33.485,23.864 -4.924,-1.213 -2.917,2.082 -11.364,1.211 -16.97,12.084 3.296,5.113 -4.243,3.029 1.25,0.342 -1.099,0.799 12.5,3.104 5.341,-3.826 7.729,1.896 -5.342,3.861 8.258,2.047 -11.667,8.295 -4.091,-1.021 10.19,-7.271 -25.228,-6.289 -19.053,13.602 -9.812,-2.463 23.182,-16.518 -3.56,-5.605 64.205,-45.794 -45.265,-11.288 1.78,-1.287 46.856,11.363 57.236,-40.834 -16.971,-4.242 3.9,-2.805 16.854,4.205 46.935,-33.485 -7.312,-1.816 4.244,-3.031 -2.845,-0.719 4.355,-3.104 -3.6,-0.909 23.371,-16.667 26.174,6.516 38.068,-27.159 8.676,2.159 -23.822,17.006 -0.868,2.23"
   inkscape:connector-curvature="0" />

                <path
   id="path3461"
   class="wall"
   d="m 386.618,31.993 36.854,9.205 2.541,4.052 0,3.446 -5.981,4.243 4.469,1.138 -0.037,3.445 -36.061,25.72 4.432,1.1 -0.039,3.446 -30.719,21.895 -2.73,-0.683 -2.992,2.121 -49.547,-12.353 0,-3.442 4.697,-3.334 -5.834,-1.441 -1.137,0.798 -9.354,-2.312 -6.518,4.657 -10.492,-2.612 -0.035,1.816 -0.684,0.494 10.604,2.648 0,3.449 -8.938,6.36 -3.104,-0.759 -0.039,2.994 -29.547,21.098 10.529,2.613 -0.035,3.445 -2.613,1.855 3.445,0.873 -0.039,3.443 -26.324,18.787 22.312,5.568 -0.039,3.408 -15.306,10.947 0,0.984 -2.688,1.934 -27.84,-6.328 0.037,-3.445 15.868,-11.364 -17.571,-4.392 -0.984,0.718 13.75,3.446 -0.037,3.41 -12.992,9.286 -3.562,-0.871 0,1.631 -1.553,1.138 8.104,2.006 -0.039,3.449 -2.388,1.702 1.781,0.455 0,2.119 1.287,0.342 0,1.062 9.658,2.425 13.6,2.01 0,2.194 6.099,0.871 0,3.445 -31.894,22.769 -0.152,-0.037 0,-0.039 -0.038,0.039 -68.901,-8.713 -8.068,-2.01 0,1.213 -6.629,4.696 0.568,0.151 0,3.445 -9.053,6.438 -29.697,-7.387 0.038,-3.445 8.863,-6.324 0.19,-0.111 10.19,-7.273 1.969,0.455 0,-2.272 2.803,-1.969 -1.818,-2.767 0.038,-3.447 17.045,-12.158 11.364,-1.176 2.992,-2.157 4.924,1.249 8.788,-6.288 0.189,-0.11 24.396,-17.466 4.619,-0.567 0.039,-2.727 14.203,-10.152 0.188,-0.111 17.992,-12.842 0.188,-0.112 6.211,-4.433 1.325,0.303 0,-1.285 2.88,-2.049 0.19,-0.112 13.825,-9.888 0.188,-0.112 3.898,-2.804 0.19,-0.112 26.97,-19.242 1.895,0.454 0,-1.817 16.176,-11.553 1.668,0.417 47.271,-33.75 0.909,-2.197 23.94,-17.084 24.886,6.896 -0.027,3.218 m 36.476,12.727 -40.34,-10.038 0.037,-3.334 -20.943,-5.832 -23.715,16.933 -0.908,2.233 -47.463,33.899 -1.666,-0.415 -5.684,4.052 22.008,5.493 1.139,-0.833 10.037,2.501 -0.037,3.445 -4.66,3.334 45.344,11.322 2.99,-2.156 2.729,0.682 26.742,-19.052 -4.396,-1.099 0.039,-3.447 36.062,-25.721 -4.474,-1.137 0,-3.446 8.187,-5.796 -1.028,-1.588 m -131.817,43.332 -12.651,-3.142 -2.728,1.969 12.647,3.146 2.732,-1.973 m -21.743,3.372 4.055,0.984 0.492,-0.342 -4.054,-1.021 -0.493,0.379 m 2.386,15.832 -18.219,-4.543 -0.341,0.226 18.218,4.546 0.342,-0.229 m -6.363,-12.99 18.221,4.505 0.188,-0.11 -18.219,-4.545 -0.19,0.15 m 14.432,7.195 -18.22,-4.506 -0.985,0.719 18.182,4.508 1.023,-0.721 m -12.158,8.713 -18.224,-4.545 -2.801,1.97 18.219,4.545 2.806,-1.97 m -72.163,33.942 39.319,9.811 0.494,-0.381 -39.319,-9.812 -0.494,0.382 m 47.047,-33.602 18.221,4.546 0.344,-0.228 -18.223,-4.547 -0.342,0.229 m -14.013,10.001 2.955,0.759 -0.041,2.726 12.465,3.106 4.203,-2.991 -18.222,-4.548 -1.36,0.948 m -10.608,7.577 32.312,8.066 2.424,-1.74 -32.273,-8.069 -2.463,1.743 m -10.19,7.31 22.767,5.685 -0.037,3.406 -4.355,3.146 12.992,3.218 14.396,-10.267 -39.317,-9.812 -6.446,4.624 m 18.677,8.296 -22.465,-5.607 -4.166,2.955 22.428,5.605 4.203,-2.953 m 30.605,-25.949 -18.221,-4.543 -5.111,3.672 18.221,4.547 5.111,-3.676 m -132.615,65.457 -15.341,10.906 1.742,2.729 13.523,3.371 2.689,-1.933 8.03,2.009 0,3.444 -4.47,3.224 7.349,1.816 68.75,8.711 27.465,-19.619 -3.826,-0.531 0.039,-2.232 -11.518,-1.706 -11.101,-2.765 0,-1.062 -2.424,-0.604 0,-2.155 -3.106,-0.761 0,-3.448 2.424,-1.704 -8.104,-2.01 0,-3.446 1.594,-1.137 -1.934,-0.455 -1.816,1.29 -3.939,-0.986 -8.067,5.761 -3.334,-0.834 -14.354,10.264 -29.054,-7.311 -11.217,1.174 m -26.592,26.779 21.365,5.344 6.439,-4.584 -21.363,-5.341 -6.441,4.581 m -8.825,6.327 25.456,6.326 5.076,-3.601 -0.228,-0.076 -25.227,-6.289 -5.077,3.64 m 35.455,-12.424 -3.068,2.157 5.113,1.287 0,-1.213 1.78,-1.287 -3.825,-0.944 m -13.75,-3.448 -1.629,1.139 9.887,2.461 1.592,-1.137 -9.85,-2.463 m 125.948,-22.953 12.803,-9.13 -21.971,-5.456 -15.643,11.139 23.562,5.342 1.248,-0.871 10e-4,-1.024 m -21.932,-24.964 -19.584,-4.885 0,1.815 13.065,3.258 6.519,-0.188 m -10.794,2.765 -11.213,-2.805 0.039,-1.816 -4.775,-1.176 -2.422,1.704 17.838,4.472 0.533,-0.379 m 2.157,15.114 -35.149,-8.749 -2.312,1.629 19.281,4.812 1.855,-1.325 15.871,3.978 0.454,-0.345 m 8.598,-6.136 -31.363,-7.805 -6.213,0.795 -2.422,1.705 35.15,8.75 4.848,-3.445 m -37.763,10.531 -18.107,-4.51 -2.501,1.779 18.107,4.51 2.501,-1.779 m 6.021,-4.281 -18.104,-4.546 -2.236,1.628 18.07,4.51 2.27,-1.592 m -0.681,5.758 7.994,-5.758 -0.38,-0.075 -2.653,1.854 -1.174,-0.303 -5.377,3.861 1.59,0.421 m -31.971,0.111 18.072,4.511 2.271,-1.63 -18.069,-4.51 -2.274,1.629 m -5.87,4.207 20.228,5.037 2.121,-1.518 -20.266,-5.035 -2.083,1.516"
   inkscape:connector-curvature="0" />

                <path
   id="path3463"
   class="wall"
   d="M 353.359,23.242 315.103,50.514 288.928,44 l -19.395,13.862 -0.188,0.113 0.073,0.038 -0.039,3.446 -1.514,1.062 -0.039,2.766 -0.646,0.455 3.75,0.946 -0.039,3.446 -47.119,33.6 -27.424,-6.815 0,1.097 0.981,-0.72 22.881,5.721 -0.039,3.408 -57.423,40.982 -3.181,-0.756 0,1.854 -38.486,27.428 -1.779,-0.418 -0.038,1.705 -22.425,16.021 2.083,3.219 -0.038,3.447 -27.652,19.811 -6.78,0.72 -42.689,-10.683 -0.075,-0.078 -1.706,-2.725 0,-3.447 2.765,-1.969 -0.795,-0.229 0,-3.41 50.228,-35.834 1.817,0.418 0,-1.706 9.244,-6.591 4.091,1.021 10.076,-7.197 -5.152,-1.286 0,-3.448 8.826,-6.285 16.098,4.016 -0.038,3.447 -0.454,0.34 6.627,1.629 8.827,-6.324 -2.69,-0.646 0.038,-3.445 4.471,-3.183 6.288,1.554 1.932,-1.4 3.788,0.945 2.009,-1.438 0.188,-0.112 4.205,-2.994 -22.956,-5.719 0.038,-3.447 25.606,-18.258 0.076,0 15.909,-11.363 -2.233,-0.528 0,-2.576 -20.833,-5.188 0,-3.446 3.711,-24.243 0.113,-0.341 0,-0.038 0.227,-0.531 0.038,-0.112 0.304,-0.455 0,-0.04 c 0.505,-0.681 1.289,-1.226 2.349,-1.628 l 1.136,-0.268 0.417,-0.074 0.075,0 0.758,-0.076 0.984,0 0.113,0.038 1.251,0.112 0.038,0 0.758,0.152 0.151,0 0.303,0.074 0.077,0 12.386,3.069 21.478,-15.305 -21.399,-5.341 0.039,-3.445 19.582,-13.979 56.139,13.978 17.463,-12.462 7.086,-1.667 20.488,-14.583 8.297,2.804 51.06,15.302 -0.041,3.448 m -59.241,-17.877 -20.304,14.47 -7.121,1.667 -13.825,9.887 22.575,5.605 0,0.038 39.545,9.811 34.435,-24.545 -47.351,-14.242 -7.954,-2.691 m -9.054,37.688 -9.851,-2.462 -1.176,0.833 9.812,2.463 1.215,-0.834 m -13.712,-3.447 -78.369,-19.544 -15.645,11.173 92.084,22.956 10.682,-7.612 -10.188,-2.538 0.039,-3.447 1.397,-0.988 m -5.719,17.272 -67.086,-16.742 -25.262,18.03 -13.905,-3.371 -0.151,0 -0.038,-0.038 -0.644,-0.038 -0.114,-0.038 -1.401,-0.038 -1.25,0.151 -0.076,0.038 -0.757,0.189 -1.327,0.682 -0.038,0.038 -0.417,0.341 -0.075,0.075 -0.378,0.454 -0.53,1.022 -0.19,0.606 -3.144,20.644 23.183,5.758 -0.039,2.574 51.668,12.882 43.145,-30.797 -3.748,-0.947 0.037,-3.446 1.4,-0.985 0,-2.728 0.795,-0.567 -0.076,-0.038 0.039,-3.445 0.379,-0.266 m -80.267,45.721 6.896,-4.925 -19.166,-4.812 -14.092,10.038 45.112,11.252 3.6,-2.539 -22.385,-5.604 0.035,-3.41 m 11.629,-1.326 18.676,4.658 0.455,-0.343 -18.676,-4.656 -0.455,0.341 m -4.203,2.991 18.713,4.658 0.416,-0.303 -18.674,-4.658 -0.455,0.303 m -42.501,4.811 45.15,11.287 4.927,-3.523 -45.191,-11.248 -4.886,3.484 m 9.735,18.56 18.674,4.66 0.491,-0.342 -18.673,-4.66 -0.492,0.342 m 4.244,-3.029 18.713,4.66 0.49,-0.342 -18.711,-4.659 -0.492,0.341 m -12.2,8.713 18.677,4.66 0.188,-0.15 -18.673,-4.66 -0.192,0.15 m -11.741,4.697 -6.25,-1.555 -0.493,0.379 2.576,0.645 1.174,-0.035 25.303,6.324 0.417,-0.302 -2.16,-0.533 0.038,-3.444 0.303,-0.229 -12.955,-3.26 -2.196,1.593 -3.789,-0.946 -1.968,1.363 m 15.719,-7.54 18.675,4.659 0.189,-0.149 -18.676,-4.659 -0.188,0.149 m 8.94,9.851 1.857,0.452 0.11,-0.11 -1.817,-0.457 -0.15,0.115 m -3.712,-20.571 25.949,6.479 4.471,-3.183 -45.19,-11.288 c -4.318,3.106 -8.649,6.198 -12.993,9.278 l 19.244,4.812 8.519,-6.098 m -64.924,24.36 47.539,11.854 0.795,-0.604 -32.083,-7.992 0.038,-3.408 0.455,-0.344 -11.933,-2.951 -4.811,3.445 m 30.833,3.291 21.249,5.268 7.047,-5 -21.213,-5.303 -7.083,5.035 m 8.371,14.472 -38.787,-9.66 -5.531,3.941 38.788,9.693 5.53,-3.974 m -9.318,6.668 -42.879,-10.721 -5.266,3.75 42.879,10.719 5.266,-3.748 m -11.023,7.877 -42.917,-10.721 -3.484,2.5 42.915,10.684 3.486,-2.463 m -14.659,-26.894 38.788,9.662 0.757,-0.531 -38.787,-9.697 -0.758,0.566 m 7.386,32.045 -42.879,-10.683 -3.03,2.159 42.916,10.684 2.993,-2.16 m -6.78,4.847 -42.917,-10.68 -3.03,2.158 42.917,10.684 3.03,-2.162 m -6.212,5.002 -43.485,-10.832 -6.856,4.888 51.363,12.804 1.023,-0.761 -2.083,-3.218 0.038,-2.881 m -2.765,9.546 -51.326,-12.804 -7.917,5.644 25.645,6.401 3.826,-2.729 25.719,6.402 4.053,-2.914 m -7.842,5.607 -21.818,-5.455 -0.075,0.037 5.264,1.325 0,2.461 4.697,1.175 2.576,-1.814 9.28,2.311 0.076,-0.04 m -57.5,-4.205 -4.923,3.521 0.188,0.343 42.462,10.566 6.44,-0.682 9.545,-6.82 -5.455,-1.361 -2.575,1.816 -7.918,-1.969 0.039,-2.463 -35.492,-8.823 -3.106,2.23 0.833,0.189 -0.038,3.453"
   inkscape:connector-curvature="0" />

            </g>

            <g
   id="g3465"
   class="ceilings">
                <path
   id="2001"
   d="m 111.653,179.083 -46.524,-11.576 7.058,-5.047 46.523,11.576 -7.057,5.047 0,0 z m 0,0"
   class="unit"
   inkscape:connector-curvature="0" />

                <path
   id="2002"
   d="m 58.108,172.479 46.562,11.611 -6.641,4.742 -46.524,-11.61 6.603,-4.743 0,0 z m 0,0"
   class="unit"
   inkscape:connector-curvature="0" />

                <path
   id="2003"
   d="m 104.861,183.941 -46.562,-11.573 6.603,-4.744 46.561,11.611 -6.602,4.706 0,0 z m 0,0"
   class="unit"
   inkscape:connector-curvature="0" />

                <path
   id="2004"
   d="m 51.279,177.336 46.562,11.61 -2.998,2.124 3.567,5.617 -2.543,1.82 -55.024,-13.699 10.436,-7.472 0,0 z m 0,0"
   class="unit"
   inkscape:connector-curvature="0" />

                <path
   id="2005"
   d="m 58.413,200.447 -29.257,-7.284 11.498,-8.236 55.024,13.738 -7.703,5.465 -25.729,-6.412 -3.833,2.729 0,0 z m 0,0"
   class="unit"
   inkscape:connector-curvature="0" />

                <path
   id="2006"
   d="m 62.397,197.943 25.387,6.336 -3.643,2.581 -9.296,-2.314 -2.581,1.822 -7.287,-1.822 2.581,-1.819 -8.803,-2.201 3.642,-2.583 0,0 z m 0,0"
   class="unit"
   inkscape:connector-curvature="0" />

                <path
   id="2007"
   d="m 74.958,204.774 9.069,2.236 -13.168,9.41 -6.489,0.686 -42.501,-10.625 -1.708,-2.693 6.451,-4.629 -4.364,-1.062 6.717,-4.82 38.062,9.521 -2.542,1.824 7.931,1.975 2.542,-1.823 0,0 z m 0,0"
   class="unit"
   inkscape:connector-curvature="0" />

                <path
   id="2008"
   d="m 119.053,204.317 -12.181,-3.07 1.101,-0.763 -1.253,-0.341 4.061,-2.885 13.471,3.34 -5.199,3.719 0,0 z m 0,0"
   class="unit"
   inkscape:connector-curvature="0" />

                <path
   id="2009"
   d="m 135.75,178.779 29.143,7.324 14.383,-10.246 3.305,0.836 8.082,-5.771 3.945,0.986 1.857,-1.328 5.467,1.367 -5.16,3.68 11.688,2.922 -5.996,4.25 5.354,1.328 -2.24,1.596 3.566,0.908 -1.139,0.799 11.156,2.771 13.28,1.971 -1.782,1.978 7.815,1.101 -31.572,22.504 -68.835,-8.729 -10.93,-2.692 8.045,-5.771 -8.045,-2.012 -2.694,1.896 -13.548,-3.377 -3.263,-5.048 16.886,-12.065 11.232,-1.178 0,0 z m 0,0"
   class="unit"
   inkscape:connector-curvature="0" />

                <path
   id="2010"
   d="m 127.25,198.777 7.438,1.821 -2.694,1.938 -7.399,-1.861 2.655,-1.898 0,0 z m 0,0"
   class="unit"
   inkscape:connector-curvature="0" />

                <path
   id="2011"
   d="m 114.537,222.95 -29.068,-7.248 8.653,-6.188 29.105,7.246 -8.69,6.19 0,0 z m 0,0"
   class="unit"
   inkscape:connector-curvature="0" />

                <path
   id="2012"
   d="m 119.28,215.588 -24.969,-6.226 10.018,-7.136 24.969,6.227 -10.018,7.135 0,0 z m 0,0"
   class="unit"
   inkscape:connector-curvature="0" />

                <path
   id="2013"
   d="m 183.525,153.165 34.985,8.729 -8.424,6.031 -38.746,-9.678 5.959,-4.285 6.226,-0.797 0,0 z m 0,0"
   class="unit"
   inkscape:connector-curvature="0" />

                <path
   id="2014"
   d="m 171.118,158.363 38.78,9.679 -4.021,2.883 -15.9,-3.983 -1.857,1.367 -22.885,-5.729 5.883,-4.217 0,0 z m 0,0"
   class="unit"
   inkscape:connector-curvature="0" />

                <path
   id="2015"
   d="m 165.045,162.727 22.846,5.689 -0.531,0.418 -1.215,-0.304 -5.271,3.757 -21.669,-5.39 5.84,-4.17 0,0 z m 0,0"
   class="unit"
   inkscape:connector-curvature="0" />

                <path
   id="2016"
   d="m 159.012,167.016 21.667,5.425 -6.072,4.327 -21.708,-5.391 6.113,-4.361 0,0 z m 0,0"
   class="unit"
   inkscape:connector-curvature="0" />

                <path
   id="2017"
   d="m 227.771,159.616 25.576,6.375 -16.394,11.688 1.062,0.266 -2.313,1.67 -27.246,-6.185 19.315,-13.814 0,0 z m 0,0"
   class="unit"
   inkscape:connector-curvature="0" />

                <path
   id="2018"
   d="m 152.712,171.53 21.667,5.391 -5.842,4.174 -21.668,-5.389 5.843,-4.176 0,0 z m 0,0"
   class="unit"
   inkscape:connector-curvature="0" />

                <path
   id="2019"
   d="m 138.785,176.693 4.934,1.25 2.96,-2.124 23.831,5.958 -5.691,4.062 -28.763,-7.172 2.729,-1.974 0,0 z m 0,0"
   class="unit"
   inkscape:connector-curvature="0" />

                <path
   id="2020"
   d="m 271.791,107.551 -21.818,-5.428 3.908,-2.809 21.818,5.464 -3.908,2.773 0,0 z m 0,0"
   class="unit"
   inkscape:connector-curvature="0" />

                <path
   id="2021"
   d="m 259.23,100.607 -5.28,-1.339 3.459,-2.456 5.254,1.317 -3.433,2.478 z m 0,0"
   class="unit"
   inkscape:connector-curvature="0" />

                <path
   id="2022"
   d="m 265.227,112.217 -21.816,-5.426 6.373,-4.555 21.82,5.465 -6.377,4.516 0,0 z m 0,0"
   class="unit"
   inkscape:connector-curvature="0" />

                <path
   id="2023"
   d="m 243.217,106.945 21.82,5.427 -3.908,2.81 -21.82,-5.466 3.908,-2.771 0,0 z m 0,0"
   class="unit"
   inkscape:connector-curvature="0" />

                <path
   id="2024"
   d="m 252.249,121.516 -21.818,-5.428 8.689,-6.225 21.819,5.426 -8.69,6.227 0,0 z m 0,0"
   class="unit"
   inkscape:connector-curvature="0" />

                <path
   id="2025"
   d="m 231.266,121.402 -2.697,1.937 -6.146,-1.555 2.656,-1.898 6.187,1.516 0,0 z m 0,0"
   class="unit"
   inkscape:connector-curvature="0" />

                <path
   id="2026"
   d="m 244.204,127.245 -15.293,-3.832 2.883,-2.051 -6.488,-1.631 4.934,-3.527 21.822,5.426 -7.858,5.615 0,0 z m 0,0"
   class="unit"
   inkscape:connector-curvature="0" />

                <path
   id="2027"
   d="m 230.275,141.249 -7.776,5.539 -26.033,-6.488 7.779,-5.541 26.03,6.49 0,0 z m 0,0"
   class="unit"
   inkscape:connector-curvature="0" />

                <path
   id="2028"
   d="m 250.579,136.277 -35.896,-8.956 5.994,-4.285 35.936,8.953 -6.034,4.288 0,0 z m 0,0"
   class="unit"
   inkscape:connector-curvature="0" />

                <path
   id="2029"
   d="m 214.454,127.473 42.955,10.701 -17.986,12.826 -16.584,-4.1 7.969,-5.691 -26.371,-6.564 10.017,-7.172 0,0 z m 0,0"
   class="unit"
   inkscape:connector-curvature="0" />

                <path
   id="2030"
   d="m 192.178,143.372 4.1,-2.92 42.955,10.699 -4.098,2.924 -42.957,-10.703 0,0 z m 0,0"
   class="unit"
   inkscape:connector-curvature="0" />

                <path
   id="2031"
   d="m 234.943,154.19 -3.565,2.579 -16.316,-4.062 -6.604,0.149 -14.951,-3.718 1.857,-1.366 -6.943,-1.745 3.568,-2.543 42.954,10.706 0,0 z m 0,0"
   class="unit"
   inkscape:connector-curvature="0" />

                <path
   id="2032"
   d="m 227.471,152.176 0.188,-0.075 0.19,0.075 0.073,0.191 -0.073,0.188 -0.19,0.074 -0.188,-0.074 -0.076,-0.188 0.076,-0.191 m -1.976,-0.416 -0.076,0.189 -0.188,0.073 -0.188,-0.073 -0.076,-0.189 0.076,-0.189 0.188,-0.074 0.188,0.074 0.076,0.189 m 1.14,0.114 0.074,0.188 -0.074,0.19 -0.189,0.074 -0.188,-0.074 -0.073,-0.19 0.073,-0.188 c 0.052,-0.051 0.113,-0.076 0.188,-0.076 l 0.189,0.076 m 2.427,0.608 0.076,0.188 -0.076,0.188 -0.188,0.076 -0.189,-0.076 -0.076,-0.188 0.076,-0.188 0.189,-0.073 0.188,0.073 m 0.834,0.302 0.188,-0.076 0.188,0.076 0.076,0.188 -0.076,0.188 -0.188,0.074 -0.188,-0.074 -0.074,-0.188 0.074,-0.188 m 2.81,0.609 0.078,0.188 -0.078,0.188 -0.188,0.077 -0.189,-0.077 -0.076,-0.188 0.076,-0.188 c 0.051,-0.053 0.113,-0.077 0.189,-0.077 l 0.188,0.077 m -1.595,-0.307 0.188,-0.074 0.188,0.074 0.074,0.189 -0.074,0.188 -0.188,0.076 -0.188,-0.076 -0.075,-0.188 0.075,-0.189 m -13.357,-3.337 0.188,-0.076 0.188,0.076 0.074,0.188 -0.074,0.188 -0.188,0.076 -0.188,-0.076 -0.074,-0.188 0.074,-0.188 m 2.885,0.796 -0.076,0.188 -0.188,0.076 -0.191,-0.076 -0.074,-0.188 0.074,-0.188 c 0.051,-0.051 0.113,-0.073 0.191,-0.073 l 0.188,0.073 0.076,0.188 m 0.757,0.114 0.188,-0.076 0.188,0.076 0.074,0.188 -0.074,0.188 -0.188,0.074 -0.188,-0.074 -0.076,-0.188 0.076,-0.188 m -2.427,-0.608 0.189,-0.074 0.188,0.074 0.073,0.191 -0.073,0.188 -0.188,0.074 -0.189,-0.074 -0.076,-0.188 0.076,-0.191 m 4.856,1.216 0.19,-0.076 0.188,0.076 0.074,0.188 -0.074,0.188 -0.188,0.076 -0.19,-0.076 -0.076,-0.188 0.076,-0.188 m -0.834,-0.304 0.075,0.188 -0.075,0.188 -0.189,0.076 -0.188,-0.076 -0.078,-0.188 0.078,-0.188 0.188,-0.074 0.189,0.074 m -8.5,-2.127 0.075,0.189 -0.075,0.189 -0.189,0.074 -0.189,-0.074 -0.074,-0.189 0.074,-0.189 c 0.053,-0.049 0.115,-0.072 0.189,-0.072 l 0.189,0.072 m 1.025,0.229 0.189,0.077 0.075,0.188 -0.075,0.188 -0.189,0.074 -0.188,-0.074 -0.076,-0.188 0.076,-0.188 0.188,-0.077 m 1.024,0.381 0.19,-0.074 0.188,0.074 0.076,0.188 -0.076,0.191 -0.188,0.073 -0.19,-0.073 -0.076,-0.191 0.076,-0.188 m -4.933,-1.026 0.076,-0.188 0.188,-0.076 0.188,0.076 0.076,0.188 -0.076,0.188 -0.188,0.077 -0.188,-0.077 -0.076,-0.188 m -0.759,-0.114 -0.188,0.075 -0.189,-0.075 -0.074,-0.188 0.074,-0.188 0.189,-0.076 0.188,0.076 0.076,0.188 -0.076,0.188 m 2.048,0.228 0.188,-0.076 0.188,0.076 0.074,0.189 -0.074,0.188 -0.188,0.075 -0.188,-0.075 -0.076,-0.188 0.076,-0.189 m -4.856,-1.214 c 0.051,-0.051 0.112,-0.073 0.188,-0.073 l 0.188,0.073 0.076,0.188 -0.076,0.191 -0.188,0.073 -0.188,-0.073 -0.076,-0.191 0.076,-0.188 m 1.403,0.227 0.188,0.076 0.074,0.188 -0.074,0.188 -0.188,0.076 -0.188,-0.076 -0.074,-0.188 0.074,-0.188 0.188,-0.076 m -2.616,-0.529 0.188,-0.077 0.188,0.077 0.073,0.188 -0.073,0.188 -0.188,0.077 -0.188,-0.077 -0.076,-0.188 0.076,-0.188 m -2.315,-0.684 0.189,0.074 0.073,0.188 -0.073,0.188 -0.189,0.074 -0.191,-0.074 -0.072,-0.188 0.072,-0.188 0.191,-0.074 m 1.099,0.377 0.188,-0.076 0.188,0.076 0.076,0.19 -0.076,0.188 -0.188,0.076 -0.188,-0.076 -0.077,-0.188 0.077,-0.19 m -2.202,-0.605 0.077,0.188 -0.077,0.189 -0.188,0.075 -0.188,-0.075 -0.078,-0.189 0.078,-0.188 0.188,-0.075 0.188,0.075 m -1.138,-0.113 -0.076,0.188 -0.188,0.074 -0.189,-0.074 -0.074,-0.188 0.074,-0.191 0.189,-0.075 0.188,0.075 0.076,0.191 m 31.27,7.702 0.188,-0.073 0.188,0.073 0.076,0.188 -0.076,0.191 -0.188,0.074 -0.188,-0.074 -0.078,-0.191 0.078,-0.188 m 1.139,0.495 0.074,-0.189 0.188,-0.074 0.188,0.074 0.076,0.189 -0.076,0.188 -0.188,0.076 -0.188,-0.076 -0.074,-0.188 m -42.883,-10.893 0.191,-0.074 0.188,0.074 0.076,0.188 -0.076,0.188 -0.188,0.076 -0.191,-0.076 -0.074,-0.188 0.074,-0.188 m 2.696,0.609 0.19,0.075 0.073,0.188 -0.073,0.19 -0.19,0.076 -0.188,-0.076 -0.076,-0.19 0.076,-0.188 0.188,-0.075 m -1.405,-0.23 0.188,-0.075 0.188,0.075 0.078,0.191 -0.078,0.188 -0.188,0.074 -0.188,-0.074 -0.074,-0.188 0.074,-0.191 m 2.885,0.608 0.074,0.188 -0.074,0.188 -0.188,0.074 -0.19,-0.074 -0.074,-0.188 0.074,-0.188 0.19,-0.076 0.188,0.076 m 0.836,0.302 0.188,-0.074 0.19,0.074 0.074,0.189 -0.074,0.188 -0.19,0.076 -0.188,-0.076 -0.076,-0.188 0.076,-0.189 m 1.402,0.229 0.188,0.076 0.076,0.188 -0.076,0.189 -0.188,0.074 -0.189,-0.074 -0.076,-0.189 0.076,-0.188 0.189,-0.076 m 1.48,0.381 0.076,0.188 -0.076,0.191 -0.188,0.072 -0.189,-0.072 -0.076,-0.191 0.076,-0.188 c 0.053,-0.051 0.113,-0.076 0.189,-0.076 l 0.188,0.076 m 0.913,0.303 0.188,-0.074 0.188,0.074 0.076,0.188 -0.076,0.188 -0.188,0.076 -0.188,-0.076 -0.078,-0.188 0.078,-0.188"
   class="unit"
   inkscape:connector-curvature="0" />

                <path
   id="2033"
   d="m 189.18,152.215 -6.98,-1.746 6.033,-4.286 6.643,1.67 -1.896,1.328 -3.8,3.034 0,0 z m 0,0"
   class="unit"
   inkscape:connector-curvature="0" />

                <path
   id="2034"
   d="m 295.127,85.541 -6.336,4.517 -16.24,-4.021 c 2.127,-1.492 4.238,-2.997 6.338,-4.517 l 16.238,4.021 0,0 z m 0,0"
   class="unit"
   inkscape:connector-curvature="0" />

                <path
   id="2035"
   d="m 383.206,31.163 40.414,10.094 2.467,3.946 -9.676,6.907 8.045,2.011 -39.732,28.31 8.009,2.013 -30.397,21.666 -2.73,-0.684 -2.998,2.125 -48.99,-12.221 8.273,-5.881 -10.057,-2.505 -1.14,0.798 -25.614,-6.375 9.297,-6.643 1.633,0.417 47.623,-33.963 0.836,-2.2 23.793,-16.963 24.287,6.754 -3.343,2.394 0,0 z m 0,0"
   class="unit"
   inkscape:connector-curvature="0" />

                <path
   id="2036"
   d="m 277.863,89.565 -4.062,2.921 -7.627,-1.896 4.1,-2.921 7.589,1.896 0,0 z m 0,0"
   class="unit"
   inkscape:connector-curvature="0" />

                <path
   id="2037"
   d="m 287.768,96.166 -3.756,2.693 -21.82,-5.465 3.795,-2.691 21.781,5.463 0,0 z m 0,0"
   class="unit"
   inkscape:connector-curvature="0" />

                <path
   id="2038"
   d="m 279.191,102.277 -21.782,-5.465 4.592,-3.265 21.783,5.428 -4.593,3.302 0,0 z m 0,0"
   class="unit"
   inkscape:connector-curvature="0" />

                <path
   id="2039"
   d="m 270.652,40.498 4.82,-3.415 13.396,3.376 -4.781,3.416 -13.435,-3.377 0,0 z m 0,0"
   class="unit"
   inkscape:connector-curvature="0" />

                <path
   id="2040"
   d="m 294.37,1.83 8.008,2.692 50.852,15.218 -37.949,27.095 -65.762,-16.394 17.418,-12.485 7.133,-1.631 20.3,-14.495 0,0 z m 0,0"
   class="unit"
   inkscape:connector-curvature="0" />

                <path
   id="2041"
   d="m 193.088,16.552 82.043,20.454 -4.971,3.567 13.735,3.414 -14.269,10.171 -95.817,-23.869 19.279,-13.737 0,0 z m 0,0"
   class="unit"
   inkscape:connector-curvature="0" />

                <path
   id="2042"
   d="m 162.009,51.883 11.349,2.808 25.271,-18.024 70.812,17.646 -3.983,2.846 3.643,0.91 -4.398,3.112 2.846,0.721 -4.25,3.036 7.324,1.819 -46.828,33.396 -54.416,-13.547 2.656,-1.937 -23.642,-5.882 3.566,-23.49 c 0.126,-0.911 0.379,-1.632 0.759,-2.163 0.531,-0.683 1.29,-1.201 2.277,-1.556 l 1.404,-0.342 c 1.335,-0.176 3.207,0.04 5.61,0.647 l 0,0 z m 0,0"
   class="unit"
   inkscape:connector-curvature="0" />

                <path
   id="2043"
   d="m 197.529,97.571 22.271,5.54 -4.021,2.886 -22.272,-5.539 4.022,-2.887 0,0 z m 0,0"
   class="unit"
   inkscape:connector-curvature="0" />

                <path
   id="2044"
   d="m 195.936,95.18 -10.514,7.476 25.955,6.489 -7.172,5.123 -48.761,-12.182 17.685,-12.601 22.807,5.695 0,0 z m 0,0"
   class="unit"
   inkscape:connector-curvature="0" />

                <path
   id="2045"
   d="m 193.316,100.57 22.272,5.578 -4.021,2.847 -22.236,-5.541 3.985,-2.884 0,0 z m 0,0"
   class="unit"
   inkscape:connector-curvature="0" />

                <path
   id="2046"
   d="m 155.217,102.239 48.801,12.145 -8.502,6.07 -48.8,-12.183 8.501,-6.032 0,0 z m 0,0"
   class="unit"
   inkscape:connector-curvature="0" />

                <path
   id="2047"
   d="m 187.284,126.334 -25.958,-6.487 -8.576,6.108 -22.844,-5.691 16.621,-11.842 48.8,12.183 -8.043,5.729 0,0 z m 0,0"
   class="unit"
   inkscape:connector-curvature="0" />

                <path
   id="2048"
   d="m 182.995,129.37 -22.275,-5.539 4.097,-2.922 22.274,5.577 -4.096,2.884 0,0 z m 0,0"
   class="unit"
   inkscape:connector-curvature="0" />

                <path
   id="2049"
   d="m 178.745,132.444 -22.276,-5.576 4.062,-2.886 22.273,5.541 -4.059,2.921 0,0 z m 0,0"
   class="unit"
   inkscape:connector-curvature="0" />

                <path
   id="2050"
   d="m 174.76,135.29 -22.275,-5.576 3.796,-2.693 22.275,5.539 -3.796,2.73 0,0 z m 0,0"
   class="unit"
   inkscape:connector-curvature="0" />

                <path
   id="2051"
   d="m 148.5,132.558 3.795,-2.692 22.275,5.54 -3.795,2.729 -22.275,-5.577 0,0 z m 0,0"
   class="unit"
   inkscape:connector-curvature="0" />

                <path
   id="2052"
   d="m 170.586,138.25 -3.719,2.654 -5.428,-1.328 3.719,-2.654 5.428,1.328 0,0 z m 0,0"
   class="unit"
   inkscape:connector-curvature="0" />

                <path
   id="2053"
   d="m 140.341,134.721 1.974,-1.403 3.795,0.948 2.201,-1.557 16.544,4.138 -3.907,2.771 5.728,1.44 -4.021,2.851 -25.311,-6.303 -1.215,0 -6.146,-1.52 4.098,-2.922 6.26,1.557 0,0 z m 0,0"
   class="unit"
   inkscape:connector-curvature="0" />

                <path
   id="2054"
   d="m 134.231,139.047 24.855,6.225 -10.663,7.589 -24.856,-6.187 10.664,-7.627 0,0 z m 0,0"
   class="unit"
   inkscape:connector-curvature="0" />

                <path
   id="2055"
   d="m 112.564,144.092 35.671,8.882 -4.402,3.147 -51.154,-12.75 8.425,-6.033 15.482,3.871 -4.022,2.883 0,0 z m 0,0"
   class="unit"
   inkscape:connector-curvature="0" />

                <path
   id="2056"
   d="m 101.217,145.688 42.463,10.55 -4.364,3.111 -42.425,-10.586 4.326,-3.075 0,0 z m 0,0"
   class="unit"
   inkscape:connector-curvature="0" />

                <path
   id="2057"
   d="m 129.982,166.028 -42.426,-10.587 9.146,-6.526 42.425,10.588 -9.145,6.525 0,0 z m 0,0"
   class="unit"
   inkscape:connector-curvature="0" />

                <path
   id="2058"
   d="m 120.912,172.479 -46.523,-11.609 8.841,-6.302 46.562,11.574 -8.88,6.337 0,0 z m 0,0"
   class="unit"
   inkscape:connector-curvature="0" />

                <path
   id="2059"
   d="m 152.522,109.903 0.152,-0.035 0.114,0.035 0.076,0.153 -0.076,0.112 -0.114,0.076 -0.152,-0.076 -0.038,-0.112 0.038,-0.153 m 1.405,0.457 -0.076,0.112 -0.114,0.075 -0.151,-0.075 -0.038,-0.112 0.038,-0.15 0.151,-0.037 0.114,0.037 0.076,0.15 m 0,0.796 0.113,0.037 0.076,0.149 -0.076,0.115 -0.113,0.074 -0.152,-0.074 -0.038,-0.115 0.038,-0.149 0.152,-0.037 m -1.101,0.645 0.152,-0.036 0.114,0.036 0.075,0.152 -0.075,0.111 -0.114,0.076 -0.152,-0.076 -0.038,-0.111 0.038,-0.152 m 1.86,-1.291 0.151,-0.038 0.114,0.038 0.076,0.15 -0.076,0.113 -0.114,0.077 -0.151,-0.075 -0.038,-0.112 0.038,-0.153 m -4.023,-1.062 -0.075,0.112 -0.114,0.073 -0.152,-0.073 -0.038,-0.112 0.038,-0.15 0.152,-0.039 0.114,0.039 0.075,0.15 m 0.797,0.152 0.152,-0.038 0.114,0.038 0.077,0.15 -0.077,0.113 -0.114,0.075 -0.152,-0.075 -0.038,-0.113 0.038,-0.15 m -2.276,-0.607 0.151,-0.039 0.114,0.039 0.076,0.15 -0.076,0.113 -0.114,0.074 -0.151,-0.074 -0.038,-0.113 0.038,-0.15 m 2.732,3.492 0.151,-0.038 0.114,0.038 0.076,0.15 -0.076,0.113 -0.114,0.076 -0.151,-0.076 -0.038,-0.113 0.038,-0.15 m -0.911,0.681 0.151,-0.037 0.114,0.037 0.076,0.151 -0.076,0.113 -0.114,0.073 -0.151,-0.073 -0.038,-0.113 0.038,-0.151 m -0.646,0.95 -0.113,0.075 -0.152,-0.075 -0.038,-0.113 0.038,-0.15 0.152,-0.038 0.113,0.038 0.076,0.15 -0.076,0.113 m -1.213,0.569 0.038,-0.149 0.151,-0.039 0.114,0.039 0.076,0.149 -0.076,0.112 -0.114,0.076 -0.151,-0.076 -0.038,-0.112 m -0.608,0.53 0.077,0.152 -0.077,0.113 -0.113,0.075 -0.152,-0.075 -0.038,-0.113 0.038,-0.152 0.152,-0.037 0.113,0.037 m -0.227,-6.524 0.076,0.147 -0.076,0.113 -0.114,0.076 -0.152,-0.076 -0.038,-0.113 0.038,-0.147 0.152,-0.038 0.114,0.038 m -1.405,-0.269 0.152,-0.037 0.114,0.037 0.076,0.154 -0.076,0.112 -0.114,0.075 -0.152,-0.075 -0.038,-0.112 0.038,-0.154 m -0.721,0.155 0.077,0.149 -0.077,0.11 -0.113,0.078 -0.152,-0.078 -0.038,-0.11 0.038,-0.149 0.152,-0.037 0.113,0.037 m -1.176,0.681 0.152,-0.036 0.114,0.036 0.076,0.152 -0.076,0.111 -0.114,0.076 -0.152,-0.076 -0.037,-0.111 0.037,-0.152 m -0.646,0.684 0.077,0.15 -0.077,0.115 -0.113,0.076 -0.151,-0.076 -0.039,-0.115 0.039,-0.15 0.151,-0.039 0.113,0.039 m -2.996,2.049 0.151,-0.037 0.114,0.037 0.076,0.15 -0.076,0.113 -0.114,0.076 -0.151,-0.076 -0.039,-0.113 0.039,-0.15 m 1.062,-0.342 -0.152,-0.074 -0.038,-0.113 0.038,-0.151 0.152,-0.037 0.114,0.037 0.076,0.151 -0.076,0.113 -0.114,0.074 m 0.758,-1.024 0.152,-0.039 0.113,0.039 0.076,0.149 -0.076,0.114 -0.113,0.074 -0.152,-0.074 -0.038,-0.114 0.038,-0.149 m -2.428,3.946 0.152,-0.035 0.114,0.035 0.075,0.152 -0.075,0.113 -0.114,0.076 -0.152,-0.076 -0.038,-0.113 0.038,-0.152 m -0.038,-1.631 -0.113,0.075 -0.152,-0.075 -0.038,-0.113 0.038,-0.15 0.152,-0.037 0.113,0.037 0.076,0.15 -0.076,0.113 m 1.101,1.935 0.151,-0.039 0.114,0.039 0.076,0.15 -0.076,0.112 -0.114,0.073 -0.151,-0.073 -0.038,-0.112 0.038,-0.15 m 2.277,0.608 0.151,-0.038 0.113,0.038 0.077,0.15 -0.077,0.113 -0.113,0.076 -0.151,-0.076 -0.039,-0.113 0.039,-0.15 m -0.874,-0.307 0.077,0.15 -0.077,0.115 -0.114,0.076 -0.152,-0.076 -0.038,-0.115 0.038,-0.15 0.152,-0.036 0.114,0.036 m 2.011,0.61 0.152,-0.037 0.114,0.037 0.076,0.15 -0.076,0.111 -0.114,0.076 -0.152,-0.076 -0.038,-0.111 0.038,-0.15 m 1.139,0.265 0.153,-0.037 0.113,0.037 0.076,0.152 -0.076,0.111 -0.113,0.076 -0.153,-0.076 -0.038,-0.111 0.038,-0.152 m 1.253,-0.151 0.075,0.149 -0.075,0.115 -0.114,0.074 -0.152,-0.074 -0.038,-0.115 0.038,-0.149 0.152,-0.038 0.114,0.038 m -7.742,-2.392 -0.075,0.113 -0.114,0.076 -0.153,-0.076 -0.038,-0.113 0.038,-0.149 0.153,-0.038 0.114,0.038 0.075,0.149 m -0.189,0.76 0.151,-0.038 0.114,0.038 0.076,0.15 -0.076,0.113 -0.114,0.074 -0.151,-0.074 -0.038,-0.113 0.038,-0.15 m -0.76,-0.152 -0.076,0.112 -0.114,0.076 -0.152,-0.076 -0.038,-0.112 0.038,-0.15 0.152,-0.039 0.114,0.039 0.076,0.15"
   class="unit"
   inkscape:connector-curvature="0" />

        </g>

    </g>
  </g>
</svg>
