<?xml version="1.0" encoding="utf-8"?>
<!DOCTYPE svg PUBLIC "-//W3C//DTD SVG 1.1//EN" "http://www.w3.org/Graphics/SVG/1.1/DTD/svg11.dtd">
<svg version="1.1" xmlns="http://www.w3.org/2000/svg" xmlns:xlink="http://www.w3.org/1999/xlink" xml:space="preserve">
<g class="level" id="level2">
            <g class="outline">
            <path d="M36.014,7.848 L17.53,0.38 L16.959,0.149 L16.496,0.554 L1.29,13.869 L0.976,14.144 L0.951,14.561 L0.656,19.429 L0.613,20.134 L1.263,20.41 L19.613,28.2 L20.18,28.441 L20.65,28.043 L36.026,15.018 L36.358,14.737 L36.379,14.302 L36.638,8.823 L36.671,8.114 L36.014,7.848 Z M36.014,7.848" class="outline"/>
            </g>
            <g class="label">
                <path d="M109.762,14.75 L110.729,14.75 L110.729,6.876 L109.762,6.876 L109.762,14.75 L109.762,14.75 Z M55.011,9.11 C54.823,9.239 54.618,9.506 54.396,9.91 L54.396,9.046 L53.526,9.046 L53.526,14.75 L54.493,14.75 L54.493,11.764 C54.493,11.356 54.547,10.98 54.654,10.636 C54.726,10.41 54.845,10.234 55.014,10.107 C55.183,9.98 55.372,9.917 55.583,9.917 C55.819,9.917 56.056,9.987 56.292,10.126 L56.625,9.23 C56.289,9.022 55.957,8.918 55.631,8.918 C55.406,8.917 55.199,8.981 55.011,9.11 L55.011,9.11 Z M65.52,7.319 C65.259,7.138 64.935,7.015 64.548,6.951 C64.272,6.901 63.873,6.876 63.35,6.876 L60.38,6.876 L60.38,14.75 L61.422,14.75 L61.422,11.549 L63.442,11.549 C64.556,11.549 65.325,11.318 65.752,10.854 C66.179,10.39 66.391,9.824 66.391,9.154 C66.391,8.763 66.311,8.406 66.152,8.08 C65.991,7.753 65.781,7.5 65.52,7.319 L65.52,7.319 Z M64.891,10.244 C64.608,10.494 64.13,10.619 63.457,10.619 L61.421,10.619 L61.421,7.805 L63.435,7.805 C63.908,7.805 64.232,7.828 64.407,7.875 C64.679,7.95 64.898,8.105 65.065,8.34 C65.231,8.574 65.315,8.857 65.315,9.186 C65.315,9.641 65.174,9.993 64.891,10.244 L64.891,10.244 Z M52.038,12.359 L52.038,11.07 C52.038,10.64 52.022,10.343 51.99,10.179 C51.933,9.913 51.832,9.695 51.689,9.521 C51.546,9.347 51.322,9.203 51.018,9.088 C50.714,8.973 50.318,8.916 49.831,8.916 C49.34,8.916 48.909,8.983 48.537,9.117 C48.164,9.252 47.88,9.443 47.683,9.692 C47.486,9.941 47.345,10.267 47.259,10.672 L48.204,10.801 C48.308,10.396 48.468,10.113 48.685,9.954 C48.901,9.795 49.237,9.715 49.692,9.715 C50.179,9.715 50.546,9.824 50.793,10.043 C50.976,10.204 51.067,10.481 51.067,10.875 C51.067,10.911 51.065,10.995 51.062,11.128 C50.693,11.257 50.119,11.368 49.338,11.461 C48.955,11.508 48.669,11.556 48.479,11.606 C48.221,11.678 47.989,11.784 47.784,11.923 C47.578,12.063 47.411,12.248 47.284,12.479 C47.157,12.71 47.094,12.965 47.094,13.245 C47.094,13.722 47.262,14.112 47.599,14.419 C47.935,14.725 48.417,14.878 49.044,14.878 C49.423,14.878 49.779,14.816 50.11,14.69 C50.442,14.564 50.786,14.349 51.144,14.045 C51.173,14.313 51.237,14.548 51.337,14.748 L52.347,14.748 C52.225,14.529 52.144,14.302 52.103,14.063 C52.059,13.827 52.038,13.259 52.038,12.359 L52.038,12.359 Z M51.061,12.242 C51.061,12.668 51.009,12.99 50.905,13.209 C50.769,13.491 50.556,13.714 50.266,13.877 C49.976,14.04 49.645,14.121 49.272,14.121 C48.896,14.121 48.61,14.035 48.416,13.863 C48.221,13.691 48.123,13.476 48.123,13.218 C48.123,13.05 48.168,12.897 48.257,12.759 C48.346,12.621 48.474,12.517 48.638,12.445 C48.803,12.374 49.084,12.309 49.481,12.252 C50.183,12.152 50.709,12.03 51.06,11.887 L51.06,12.242 L51.061,12.242 Z M118.033,6.844 C117.864,7.184 117.578,7.535 117.174,7.897 C116.769,8.258 116.296,8.567 115.756,8.821 L115.756,9.756 C116.057,9.645 116.396,9.479 116.774,9.257 C117.151,9.034 117.457,8.813 117.69,8.591 L117.69,14.751 L118.657,14.751 L118.657,6.845 L118.033,6.845 L118.033,6.844 Z M44.395,13.488 C43.99,13.824 43.496,13.992 42.913,13.992 C42.433,13.992 41.987,13.869 41.576,13.622 C41.165,13.375 40.861,13.002 40.666,12.502 C40.471,12.003 40.373,11.418 40.373,10.748 C40.373,10.229 40.456,9.726 40.62,9.236 C40.785,8.748 41.07,8.358 41.476,8.068 C41.883,7.778 42.389,7.632 42.994,7.632 C43.52,7.632 43.957,7.763 44.305,8.025 C44.653,8.287 44.917,8.704 45.1,9.277 L46.126,9.035 C45.915,8.308 45.541,7.744 45.003,7.344 C44.466,6.943 43.803,6.742 43.016,6.742 C42.321,6.742 41.685,6.9 41.107,7.217 C40.528,7.534 40.083,7.998 39.769,8.609 C39.456,9.219 39.299,9.934 39.299,10.755 C39.299,11.507 39.438,12.21 39.715,12.866 C39.993,13.52 40.398,14.021 40.929,14.367 C41.461,14.713 42.151,14.886 43,14.886 C43.82,14.886 44.514,14.66 45.082,14.211 C45.649,13.762 46.042,13.109 46.261,12.253 L45.219,11.99 C45.074,12.651 44.8,13.151 44.395,13.488 L44.395,13.488 Z M72.212,12.359 L72.212,11.07 C72.212,10.64 72.196,10.343 72.164,10.179 C72.107,9.913 72.006,9.695 71.863,9.521 C71.72,9.347 71.496,9.203 71.192,9.088 C70.888,8.973 70.492,8.916 70.005,8.916 C69.514,8.916 69.083,8.983 68.711,9.117 C68.338,9.252 68.054,9.443 67.857,9.692 C67.66,9.941 67.519,10.267 67.433,10.672 L68.378,10.801 C68.482,10.396 68.642,10.113 68.859,9.954 C69.075,9.795 69.411,9.715 69.866,9.715 C70.353,9.715 70.72,9.824 70.967,10.043 C71.15,10.204 71.241,10.481 71.241,10.875 C71.241,10.911 71.239,10.995 71.236,11.128 C70.867,11.257 70.293,11.368 69.512,11.461 C69.129,11.508 68.843,11.556 68.653,11.606 C68.395,11.678 68.163,11.784 67.958,11.923 C67.752,12.063 67.585,12.248 67.458,12.479 C67.331,12.71 67.268,12.965 67.268,13.245 C67.268,13.722 67.436,14.112 67.773,14.419 C68.109,14.725 68.591,14.878 69.218,14.878 C69.597,14.878 69.953,14.816 70.284,14.69 C70.616,14.564 70.96,14.349 71.318,14.045 C71.347,14.313 71.411,14.548 71.511,14.748 L72.521,14.748 C72.399,14.529 72.318,14.302 72.277,14.063 C72.232,13.827 72.212,13.259 72.212,12.359 L72.212,12.359 Z M71.234,12.242 C71.234,12.668 71.182,12.99 71.078,13.209 C70.942,13.491 70.729,13.714 70.439,13.877 C70.149,14.04 69.818,14.121 69.445,14.121 C69.069,14.121 68.783,14.035 68.589,13.863 C68.394,13.691 68.296,13.476 68.296,13.218 C68.296,13.05 68.341,12.897 68.43,12.759 C68.519,12.621 68.647,12.517 68.811,12.445 C68.976,12.374 69.257,12.309 69.654,12.252 C70.356,12.152 70.882,12.03 71.233,11.887 L71.233,12.242 L71.234,12.242 Z M87.052,6.876 L86.01,6.876 L86.01,14.75 L90.93,14.75 L90.93,13.82 L87.052,13.82 L87.052,6.876 L87.052,6.876 Z M106.007,8.917 C105.219,8.917 104.578,9.182 104.084,9.712 C103.59,10.242 103.343,10.986 103.343,11.946 C103.343,12.874 103.588,13.594 104.076,14.108 C104.565,14.622 105.227,14.879 106.061,14.879 C106.723,14.879 107.268,14.718 107.694,14.396 C108.12,14.074 108.412,13.621 108.569,13.038 L107.571,12.914 C107.424,13.322 107.225,13.619 106.974,13.806 C106.723,13.993 106.42,14.085 106.067,14.085 C105.59,14.085 105.193,13.919 104.874,13.585 C104.556,13.253 104.378,12.773 104.343,12.146 L108.597,12.146 C108.601,12.032 108.603,11.946 108.603,11.888 C108.603,10.947 108.361,10.216 107.877,9.697 C107.393,9.177 106.77,8.917 106.007,8.917 L106.007,8.917 Z M104.396,11.35 C104.428,10.853 104.596,10.455 104.899,10.159 C105.201,9.861 105.575,9.713 106.018,9.713 C106.508,9.713 106.908,9.9 107.215,10.272 C107.416,10.512 107.537,10.872 107.58,11.351 L104.396,11.351 L104.396,11.35 Z M81.885,9.046 L80.634,9.046 L78.346,11.366 L78.346,6.876 L77.379,6.876 L77.379,14.75 L78.346,14.75 L78.346,12.488 L79.028,11.834 L80.913,14.75 L82.105,14.75 L79.704,11.162 L81.885,9.046 L81.885,9.046 Z M94.389,8.917 C93.601,8.917 92.96,9.182 92.466,9.712 C91.972,10.242 91.725,10.986 91.725,11.946 C91.725,12.874 91.97,13.594 92.458,14.108 C92.947,14.622 93.608,14.879 94.443,14.879 C95.106,14.879 95.65,14.718 96.076,14.396 C96.502,14.074 96.794,13.621 96.951,13.038 L95.952,12.914 C95.805,13.322 95.606,13.619 95.356,13.806 C95.106,13.993 94.803,14.085 94.448,14.085 C93.972,14.085 93.574,13.919 93.256,13.585 C92.937,13.253 92.76,12.773 92.724,12.146 L96.978,12.146 C96.981,12.032 96.983,11.946 96.983,11.888 C96.983,10.947 96.741,10.216 96.258,9.697 C95.775,9.177 95.152,8.917 94.389,8.917 L94.389,8.917 Z M92.778,11.35 C92.81,10.853 92.978,10.455 93.28,10.159 C93.582,9.861 93.956,9.713 94.4,9.713 C94.891,9.713 95.29,9.9 95.598,10.272 C95.799,10.512 95.92,10.872 95.963,11.351 L92.778,11.351 L92.778,11.35 Z M75.185,9.11 C74.997,9.239 74.792,9.506 74.57,9.91 L74.57,9.046 L73.7,9.046 L73.7,14.75 L74.667,14.75 L74.667,11.764 C74.667,11.356 74.721,10.98 74.828,10.636 C74.9,10.41 75.019,10.234 75.188,10.107 C75.357,9.98 75.546,9.917 75.757,9.917 C75.993,9.917 76.23,9.987 76.466,10.126 L76.799,9.23 C76.463,9.022 76.131,8.918 75.805,8.918 C75.58,8.917 75.373,8.981 75.185,9.11 L75.185,9.11 Z M100.55,12.526 C100.396,12.949 100.276,13.31 100.19,13.611 C100.079,13.214 99.957,12.831 99.825,12.462 L98.6,9.046 L97.579,9.046 L99.749,14.75 L100.651,14.75 L102.81,9.046 L101.816,9.046 L100.55,12.526 L100.55,12.526 Z M100.55,12.526" class="Shape"/>
            </g>
            <g class="background">
                <path d="M17.325,1.597 L1.949,14.622 L1.654,19.49 L20.004,27.279 L35.38,14.254 L35.639,8.775 L17.325,1.597 Z M17.325,1.597" class="wall"/>
            </g>
            <g class="ceilings">
                <path class="unit" d="M35.639,8.775 L19.889,21.739 L2.008,14.598 L17.155,1.307 L35.639,8.775 Z M35.639,8.775" id="3000"/>
        </g>
    </g>
</svg>