<?xml version="1.0" encoding="utf-8"?>
<!DOCTYPE svg PUBLIC "-//W3C//DTD SVG 1.1//EN" "http://www.w3.org/Graphics/SVG/1.1/DTD/svg11.dtd">
<svg version="1.1" xmlns="http://www.w3.org/2000/svg" xmlns:xlink="http://www.w3.org/1999/xlink" xml:space="preserve">
<g class="level" id="level0">
            <g class="shadow">
                <path d="M433.85,67.475 L424.087,64.996 L429.52,61.144 L429.52,57.968 L334.977,34.327 L326.563,40.617 L326.358,40.596 L326.215,40.596 L319.311,41.313 L312.571,46.127 L312.555,47.444 L302.283,54.802 L300.155,55.038 L296.582,57.579 L296.582,58.521 L282.714,55.079 L277.65,58.705 L277.486,58.809 L247.971,79.95 L247.971,83.084 L256.856,85.297 L236.534,99.822 L236.534,101.177 L232.735,103.879 L170.594,88.45 L175.077,85.236 L175.077,82.06 L115.131,67.064 L68.156,90.972 L68.114,94.148 L66.358,95.029 L66.358,95.152 L61.802,95.787 L61.802,98.962 L63.457,102.814 L83.921,107.936 L91.071,102.814 L91.078,101.866 L94.134,102.63 L34.166,145.529 L30.306,154.89 L30.265,155.525 L58.818,162.654 L65.272,158.066 L65.272,157.538 L67.804,158.169 L69.193,157.186 L69.193,153.561 L65.435,152.619 L66.613,151.792 L67.048,151.901 L77.138,151.86 L77.567,151.983 L82.939,148.028 L81.101,147.579 L78.977,144.28 L77.654,143.934 L82.489,140.408 L82.39,140.408 L93.358,132.622 L93.521,132.602 L102.304,134.752 L102.345,134.752 L102.528,134.834 L105.96,132.396 L105.817,132.355 L141.472,106.81 L142.932,107.293 L107.656,132.52 L107.656,135.696 L175.301,152.618 L184.246,146.205 L189.74,147.579 L192.374,145.692 L192.374,146.737 L189.495,148.827 L189.311,148.929 L182.408,153.867 L177.649,152.7 L168.173,159.481 L154.978,156.203 L146.196,162.513 L146.155,165.689 L149.218,166.447 L144.54,169.787 L144.499,172.963 L145.459,173.209 L140.25,176.938 L140.23,179.622 L129.977,177.082 L117.375,186.096 L117.212,186.199 L114.231,188.349 L114.046,188.453 L101.383,197.549 L101.342,198.799 L96.992,197.735 L89.598,202.979 L89.589,204.325 L79.175,211.759 L77.097,211.973 L69.887,217.137 L69.703,217.24 L66.864,219.289 L66.823,222.464 L71.275,223.57 L63.534,229.101 L63.493,232.277 L147.866,253.379 L158.977,245.41 L178.665,250.326 L193.452,249.303 L204.706,241.272 L204.706,239.633 L206.402,240.043 L253.622,206.262 L253.643,203.086 L235.282,198.497 L255.522,184.013 L255.563,180.837 L252.95,180.182 L261.467,174.12 L261.508,171.969 L278.092,176.15 L300.398,173.875 L330.359,152.426 L330.38,149.251 L324.274,139.949 L313.1,137.143 L323.782,129.521 L329.624,130.976 L351.457,115.364 L351.457,113.951 L376.905,120.322 L428.476,83.405 L428.476,81.868 L430.028,82.278 L437.565,76.889 L437.565,73.714 L433.85,67.475 M233.284,118.628 L230.261,117.87 L227.729,119.673 L227.729,117.235 L225.502,116.681 L230.628,113.014 L230.628,111.908 L239.534,114.141 L233.284,118.628 M172.109,188.068 L171.574,188.452 L171.582,187.933 L172.109,188.068 M116.375,204.445 L116.477,204.466 L116.375,204.549 L116.375,204.445 M257.895,160.318 L257.895,160.114 L258.1,160.134 L257.895,160.318" class="shadow"/>
            </g>
            <g class="outline">
                <path d="M437.741,40.468 L434.004,34.24 C433.782,33.87 433.424,33.605 433.008,33.497 L426.721,31.891 L429.242,30.09 C429.673,29.782 429.928,29.286 429.928,28.755 L429.928,25.6 C429.928,24.848 429.417,24.192 428.691,24.009 L334.451,0.45 C333.974,0.331 333.471,0.433 333.077,0.729 L325.185,6.654 C325.17,6.655 325.157,6.656 325.142,6.658 L318.257,7.396 C317.978,7.426 317.713,7.527 317.484,7.689 L310.786,12.463 C310.361,12.765 310.105,13.252 310.098,13.776 L310.09,14.401 L301.065,20.859 L299.164,21.06 C298.885,21.09 298.619,21.19 298.392,21.353 L294.816,23.893 C294.703,23.974 294.601,24.068 294.513,24.173 L282.369,21.142 C281.905,21.026 281.414,21.12 281.026,21.398 L246.366,46.187 C245.936,46.494 245.68,46.992 245.68,47.521 L245.68,50.634 C245.68,51.387 246.192,52.043 246.919,52.225 L252.342,53.579 L234.99,65.999 C234.56,66.307 234.304,66.804 234.304,67.333 L234.304,67.505 L231.314,68.248 L174.209,54.875 L176.321,53.336 C176.806,52.982 177.06,52.388 176.98,51.791 L176.613,49.045 C176.516,48.332 175.969,47.765 175.261,47.647 L175.198,47.636 L115.29,33.064 C114.912,32.972 114.513,33.019 114.165,33.195 L67.332,57.061 C66.788,57.339 66.442,57.898 66.438,58.512 L66.423,60.774 L65.808,61.076 L61.508,61.694 C60.704,61.811 60.106,62.502 60.106,63.317 L60.106,66.472 C60.106,66.695 60.152,66.915 60.24,67.121 L61.894,70.972 C62.096,71.442 62.504,71.791 62.999,71.914 L82.144,76.705 L33.219,111.683 C32.968,111.863 32.772,112.11 32.656,112.396 L28.837,121.738 C28.77,121.902 28.73,122.074 28.719,122.251 L28.678,122.865 C28.625,123.657 29.145,124.373 29.912,124.565 L58.363,131.693 C58.824,131.808 59.314,131.716 59.703,131.441 L66.136,126.873 C66.167,126.852 66.195,126.83 66.223,126.806 L67.328,127.084 C67.789,127.199 68.278,127.107 68.667,126.833 L70.056,125.85 C70.491,125.543 70.747,125.044 70.747,124.512 L70.747,121.014 L76.84,120.989 L77.05,121.042 C77.51,121.158 78,121.065 78.388,120.79 C81.419,118.642 83.207,117.338 83.855,116.804 C84.33,116.412 84.545,115.786 84.412,115.183 C84.278,114.58 83.818,114.104 83.222,113.952 L82.008,113.64 L80.459,111.209 L83.317,109.094 C83.429,109.012 83.527,108.917 83.611,108.814 L93.591,101.755 L101.718,103.745 C102.232,103.951 102.815,103.881 103.267,103.56 L105.815,101.749 L105.815,103.104 C105.815,103.856 106.326,104.512 107.054,104.694 L172.863,121.148 L167.442,125.054 L155.023,121.96 C154.559,121.844 154.067,121.938 153.678,122.217 L144.916,128.504 C144.491,128.809 144.237,129.3 144.233,129.826 L144.213,132.96 C144.209,133.586 144.559,134.147 145.095,134.426 L143.253,135.729 C142.817,136.036 142.559,136.535 142.559,137.067 L142.559,140.244 C142.559,140.272 142.56,140.302 142.561,140.33 L139.017,142.864 C138.594,143.167 138.34,143.653 138.331,144.174 L138.321,144.796 L130.105,142.753 C129.643,142.64 129.151,142.732 128.762,143.009 L113.13,154.2 L113.027,154.258 C112.973,154.288 112.921,154.321 112.87,154.357 L100.227,163.433 C100.03,163.575 99.87,163.755 99.754,163.961 L97.217,163.337 C96.758,163.224 96.272,163.316 95.885,163.589 L88.511,168.814 C88.085,169.116 87.827,169.605 87.82,170.129 L87.811,170.773 L78.654,177.308 L76.847,177.472 C76.558,177.498 76.282,177.601 76.045,177.769 L65.834,185.083 C65.407,185.39 65.153,185.881 65.149,186.405 L65.128,189.559 C65.123,190.317 65.634,190.977 66.365,191.161 L67.336,191.405 L62.506,194.852 C62.078,195.159 61.822,195.651 61.818,196.176 L61.798,199.332 C61.793,200.089 62.305,200.749 63.036,200.932 L147.123,221.973 C147.254,222.004 147.386,222.02 147.518,222.02 C147.856,222.02 148.188,221.916 148.468,221.715 L158.945,214.205 L177.821,218.919 C177.986,218.96 178.157,218.975 178.326,218.964 L193.093,217.961 C193.394,217.94 193.684,217.836 193.93,217.66 L205.143,209.65 C205.455,209.425 205.676,209.105 205.773,208.741 C206.147,208.773 206.526,208.664 206.838,208.441 L253.897,174.76 C254.321,174.457 254.576,173.97 254.582,173.448 L254.623,170.273 C254.633,169.513 254.12,168.845 253.384,168.661 L238.507,164.952 L255.816,152.575 C256.244,152.269 256.499,151.777 256.504,151.252 L256.524,148.098 C256.528,147.6 256.307,147.145 255.948,146.837 L261.719,142.723 C262.141,142.421 262.397,141.938 262.407,141.418 L262.41,141.326 L276.961,144.984 C277.144,145.031 277.335,145.044 277.523,145.025 L299.745,142.771 C300.027,142.743 300.298,142.64 300.531,142.474 L330.39,121.107 C330.814,120.804 331.068,120.317 331.076,119.795 L331.118,116.619 C331.122,116.291 331.025,115.969 330.847,115.695 L324.741,106.415 C324.515,106.073 324.172,105.829 323.776,105.728 L316.094,103.789 L323.24,98.684 L328.333,99.956 C328.796,100.072 329.287,99.979 329.676,99.701 L351.427,84.151 C351.674,83.975 351.864,83.737 351.981,83.465 L375.475,89.323 C375.938,89.438 376.427,89.345 376.817,89.067 L428.224,52.273 C428.506,52.072 428.711,51.791 428.821,51.472 C429.153,51.468 429.478,51.365 429.754,51.169 L437.291,45.801 C437.723,45.494 437.979,44.996 437.979,44.464 L437.979,41.31 C437.975,41.016 437.895,40.723 437.741,40.468 C437.741,40.468 437.895,40.723 437.741,40.468 L437.741,40.468" class="outline"/>
            </g>
            <g class="label">
                <path d="M16.392,38.749 L11.622,38.749 L11.622,34.892 L15.496,34.892 C15.88,34.892 16.088,34.572 16.088,34.3 C16.088,34.012 15.88,33.724 15.496,33.724 L11.622,33.724 L11.622,29.995 L16.232,29.995 C16.648,29.995 16.872,29.723 16.872,29.419 C16.872,29.082 16.648,28.778 16.232,28.778 L11.446,28.778 C10.758,28.778 10.389,29.146 10.389,29.738 L10.389,39.007 C10.389,39.599 10.757,39.967 11.446,39.967 L16.392,39.967 C16.776,39.966 17,39.63 17,39.357 C17,39.021 16.776,38.749 16.392,38.749 L16.392,38.749 L16.392,38.749 Z M8.312,38.781 L4.006,38.781 L4.006,29.369 C4.006,28.97 3.75,28.713 3.398,28.713 C3.045,28.713 2.773,28.97 2.773,29.369 L2.773,39.006 C2.773,39.598 3.141,39.966 3.83,39.966 L8.311,39.966 C8.711,39.966 8.967,39.694 8.967,39.358 C8.968,39.054 8.728,38.781 8.312,38.781 L8.312,38.781 L8.312,38.781 Z M26.168,28.713 C25.88,28.713 25.656,28.89 25.576,29.226 C24.296,35.1 23.191,37.709 22.455,38.83 C21.719,37.71 20.63,35.101 19.318,29.226 C19.238,28.89 19.014,28.713 18.726,28.713 C18.374,28.713 18.118,28.953 18.118,29.338 C18.118,29.449 18.166,29.626 18.214,29.85 C19.271,34.316 20.039,36.621 20.919,38.429 C21.527,39.678 21.879,40.046 22.44,40.046 C23.001,40.046 23.353,39.678 23.961,38.429 C24.841,36.62 25.594,34.331 26.682,29.85 C26.73,29.626 26.778,29.45 26.778,29.338 C26.777,28.953 26.521,28.713 26.168,28.713 L26.168,28.713 L26.168,28.713 Z M50.438,28.713 C50.246,28.713 50.054,28.762 49.734,29.001 C48.901,29.609 48.661,29.786 47.845,30.105 C47.381,30.282 47.268,30.505 47.268,30.761 C47.268,31.098 47.524,31.337 47.893,31.337 C48.005,31.337 48.197,31.306 48.389,31.226 C48.901,31.018 49.461,30.698 50.006,30.297 L50.006,39.389 C50.006,39.789 50.262,40.03 50.614,40.03 C50.966,40.03 51.238,39.79 51.238,39.389 L51.238,29.657 C51.238,28.953 50.806,28.713 50.438,28.713 L50.438,28.713 L50.438,28.713 Z M34.488,38.749 L29.718,38.749 L29.718,34.892 L33.592,34.892 C33.976,34.892 34.184,34.572 34.184,34.3 C34.184,34.012 33.976,33.724 33.592,33.724 L29.718,33.724 L29.718,29.995 L34.328,29.995 C34.744,29.995 34.968,29.723 34.968,29.419 C34.968,29.082 34.744,28.778 34.328,28.778 L29.542,28.778 C28.854,28.778 28.485,29.146 28.485,29.738 L28.485,39.007 C28.485,39.599 28.853,39.967 29.542,39.967 L34.488,39.967 C34.872,39.967 35.096,39.631 35.096,39.359 C35.096,39.021 34.872,38.749 34.488,38.749 L34.488,38.749 L34.488,38.749 Z M42.359,38.781 L38.053,38.781 L38.053,29.369 C38.053,28.97 37.797,28.713 37.445,28.713 C37.092,28.713 36.82,28.97 36.82,29.369 L36.82,39.006 C36.82,39.598 37.188,39.966 37.877,39.966 L42.358,39.966 C42.758,39.966 43.014,39.694 43.014,39.358 C43.016,39.054 42.776,38.781 42.359,38.781 L42.359,38.781 L42.359,38.781 Z M42.359,38.781" class="Shape"/>
                <path d="M26.796,104.348 C26.517,103.985 26.173,103.747 25.766,103.637 C25.358,103.525 24.923,103.559 24.46,103.738 C24.641,103.369 24.714,103.01 24.678,102.663 C24.642,102.317 24.523,102.009 24.318,101.743 C24.097,101.455 23.804,101.243 23.44,101.105 C23.076,100.967 22.7,100.946 22.314,101.041 C21.929,101.136 21.498,101.366 21.021,101.731 L18.675,103.528 L23.466,109.778 L25.849,107.951 C26.246,107.646 26.556,107.353 26.777,107.074 C26.998,106.794 27.147,106.516 27.224,106.24 C27.3,105.965 27.306,105.654 27.236,105.308 C27.167,104.96 27.021,104.641 26.796,104.348 L26.796,104.348 L26.796,104.348 Z M20.067,103.631 L21.316,102.673 C21.764,102.329 22.104,102.116 22.334,102.032 C22.563,101.948 22.788,101.948 23.009,102.029 C23.23,102.111 23.419,102.255 23.577,102.463 C23.745,102.681 23.831,102.904 23.836,103.131 C23.841,103.358 23.762,103.583 23.6,103.807 C23.478,103.977 23.234,104.203 22.867,104.484 L21.515,105.52 L20.067,103.631 L20.067,103.631 Z M26.169,106.215 C26.103,106.393 25.987,106.571 25.823,106.752 C25.729,106.855 25.55,107.008 25.282,107.213 L23.727,108.406 L22.08,106.257 L23.524,105.149 C23.922,104.844 24.254,104.646 24.519,104.553 C24.785,104.46 25.042,104.454 25.293,104.535 C25.545,104.616 25.76,104.772 25.938,105.004 C26.09,105.203 26.184,105.411 26.218,105.626 C26.252,105.841 26.236,106.037 26.169,106.215 L26.169,106.215 L26.169,106.215 Z M6.29,114.191 L5.725,113.454 L0.771,117.251 L1.336,117.988 L3.396,116.409 L7.621,121.922 L8.448,121.288 L4.222,115.775 L6.29,114.191 L6.29,114.191 Z M11.816,112.542 C11.53,112.391 11.213,112.343 10.865,112.401 C10.516,112.458 10.175,112.615 9.839,112.872 C9.294,113.29 9.001,113.845 8.961,114.534 L7.242,112.292 L6.475,112.88 L11.264,119.13 L12.032,118.542 L10.134,116.065 C9.862,115.71 9.691,115.399 9.621,115.131 C9.552,114.864 9.572,114.595 9.683,114.323 C9.792,114.052 9.961,113.829 10.189,113.655 C10.494,113.422 10.794,113.328 11.095,113.377 C11.396,113.423 11.693,113.64 11.986,114.023 L14.185,116.893 L14.953,116.305 L12.754,113.435 C12.413,112.989 12.101,112.692 11.816,112.542 L11.816,112.542 L11.816,112.542 Z M18.103,111.574 C18.234,111.987 18.257,112.344 18.171,112.644 C18.086,112.944 17.901,113.202 17.62,113.418 C17.243,113.708 16.827,113.817 16.37,113.746 C15.915,113.677 15.481,113.403 15.072,112.928 L18.448,110.34 C18.382,110.247 18.331,110.177 18.296,110.132 C17.724,109.384 17.087,108.952 16.388,108.834 C15.689,108.717 15.036,108.889 14.431,109.353 C13.806,109.832 13.458,110.433 13.388,111.154 C13.319,111.875 13.576,112.616 14.159,113.378 C14.723,114.114 15.356,114.538 16.055,114.649 C16.756,114.759 17.438,114.561 18.1,114.053 C18.625,113.65 18.959,113.191 19.102,112.676 C19.244,112.161 19.2,111.624 18.969,111.065 L18.103,111.574 L18.103,111.574 Z M14.306,111.013 C14.365,110.593 14.571,110.248 14.923,109.978 C15.312,109.679 15.742,109.584 16.213,109.693 C16.519,109.761 16.833,109.972 17.159,110.327 L14.632,112.265 C14.354,111.85 14.245,111.433 14.306,111.013 L14.306,111.013 L14.306,111.013 Z M36.292,96.934 L35.508,95.911 C35.246,95.57 35.053,95.344 34.927,95.233 C34.72,95.057 34.508,94.945 34.288,94.894 C34.069,94.843 33.803,94.865 33.492,94.959 C33.18,95.053 32.832,95.248 32.445,95.544 C32.055,95.843 31.755,96.159 31.54,96.491 C31.327,96.825 31.218,97.15 31.212,97.467 C31.208,97.784 31.294,98.13 31.473,98.504 L32.301,98.031 C32.137,97.646 32.093,97.324 32.167,97.066 C32.243,96.808 32.46,96.541 32.821,96.264 C33.208,95.968 33.565,95.831 33.894,95.855 C34.137,95.872 34.378,96.036 34.618,96.348 C34.639,96.377 34.689,96.445 34.768,96.552 C34.553,96.879 34.164,97.317 33.602,97.865 C33.326,98.136 33.127,98.347 33.007,98.503 C32.846,98.717 32.727,98.941 32.649,99.177 C32.57,99.413 32.551,99.662 32.59,99.923 C32.629,100.184 32.735,100.424 32.904,100.646 C33.193,101.024 33.565,101.232 34.019,101.271 C34.471,101.309 34.947,101.138 35.445,100.756 C35.746,100.525 35.99,100.26 36.176,99.959 C36.362,99.658 36.505,99.277 36.605,98.819 C36.791,99.014 36.985,99.161 37.186,99.259 L37.988,98.645 C37.759,98.545 37.554,98.414 37.377,98.25 C37.2,98.086 36.839,97.647 36.292,96.934 L36.292,96.934 L36.292,96.934 Z M35.809,99.216 C35.677,99.522 35.464,99.787 35.168,100.014 C34.87,100.243 34.591,100.349 34.331,100.33 C34.071,100.313 33.864,100.202 33.706,99.997 C33.604,99.864 33.547,99.714 33.534,99.551 C33.521,99.387 33.559,99.227 33.645,99.07 C33.733,98.913 33.916,98.691 34.197,98.403 C34.693,97.897 35.037,97.48 35.228,97.153 L35.444,97.435 C35.704,97.773 35.858,98.06 35.909,98.297 C35.973,98.604 35.938,98.91 35.809,99.216 L35.809,99.216 L35.809,99.216 Z M55.215,82.429 L54.431,81.406 C54.169,81.065 53.976,80.839 53.851,80.728 C53.644,80.552 53.431,80.44 53.211,80.389 C52.991,80.338 52.726,80.36 52.415,80.454 C52.104,80.548 51.755,80.744 51.368,81.039 C50.979,81.338 50.678,81.654 50.464,81.986 C50.249,82.32 50.14,82.645 50.136,82.962 C50.131,83.279 50.217,83.625 50.396,83.999 L51.224,83.526 C51.06,83.141 51.016,82.819 51.091,82.561 C51.165,82.303 51.384,82.036 51.744,81.759 C52.13,81.463 52.489,81.326 52.817,81.349 C53.06,81.366 53.301,81.531 53.542,81.843 C53.563,81.872 53.612,81.94 53.69,82.047 C53.477,82.374 53.087,82.812 52.524,83.36 C52.249,83.631 52.051,83.842 51.93,83.998 C51.77,84.212 51.649,84.436 51.571,84.672 C51.493,84.908 51.474,85.157 51.513,85.418 C51.553,85.679 51.658,85.919 51.827,86.141 C52.117,86.519 52.488,86.727 52.941,86.766 C53.394,86.804 53.871,86.633 54.367,86.251 C54.669,86.02 54.913,85.754 55.099,85.454 C55.286,85.153 55.429,84.772 55.528,84.314 C55.715,84.509 55.908,84.656 56.109,84.754 L56.91,84.14 C56.681,84.04 56.478,83.909 56.301,83.745 C56.124,83.581 55.762,83.143 55.215,82.429 L55.215,82.429 L55.215,82.429 Z M54.731,84.712 C54.6,85.018 54.386,85.283 54.09,85.51 C53.791,85.739 53.513,85.845 53.254,85.826 C52.994,85.809 52.785,85.698 52.629,85.493 C52.526,85.36 52.469,85.21 52.457,85.047 C52.443,84.883 52.48,84.723 52.567,84.566 C52.654,84.409 52.838,84.187 53.119,83.899 C53.615,83.393 53.959,82.976 54.15,82.649 L54.367,82.931 C54.625,83.269 54.781,83.556 54.831,83.793 C54.896,84.1 54.862,84.406 54.731,84.712 L54.731,84.712 L54.731,84.712 Z M53.052,77.179 L57.841,83.429 L58.609,82.841 L53.819,76.591 L53.052,77.179 L53.052,77.179 Z M62.606,79.775 L63.553,79.05 L59.465,77.663 L59.908,74.657 L58.914,75.418 L58.51,78.652 L55.779,75.088 L55.012,75.676 L59.801,81.926 L60.569,81.338 L59.193,79.543 L59.337,78.609 L62.606,79.775 L62.606,79.775 Z M39.938,87.229 L41.657,89.471 C41.382,89.389 41.093,89.371 40.792,89.42 C40.491,89.469 40.204,89.597 39.931,89.806 C39.559,90.091 39.298,90.448 39.146,90.874 C38.996,91.301 38.986,91.756 39.118,92.24 C39.25,92.723 39.488,93.191 39.835,93.643 C40.189,94.106 40.588,94.453 41.027,94.682 C41.466,94.911 41.914,95.009 42.369,94.976 C42.824,94.943 43.232,94.788 43.594,94.511 C44.151,94.084 44.401,93.536 44.344,92.867 L44.782,93.438 L45.493,92.892 L40.704,86.642 L39.938,87.229 L39.938,87.229 Z M43.11,91.234 C43.542,91.797 43.744,92.305 43.719,92.758 C43.696,93.213 43.516,93.568 43.18,93.825 C42.848,94.08 42.45,94.158 41.985,94.058 C41.52,93.958 41.067,93.619 40.622,93.039 C40.163,92.439 39.94,91.913 39.956,91.459 C39.972,91.004 40.149,90.647 40.489,90.385 C40.839,90.117 41.245,90.037 41.706,90.144 C42.167,90.252 42.635,90.614 43.11,91.234 L43.11,91.234 L43.11,91.234 Z M37.319,93.974 C37.239,93.752 37.225,93.538 37.282,93.335 C37.339,93.131 37.451,92.966 37.619,92.837 C37.807,92.693 38.036,92.606 38.308,92.572 L38.027,91.658 C37.633,91.698 37.307,91.817 37.049,92.015 C36.869,92.152 36.744,92.329 36.674,92.546 C36.604,92.762 36.603,93.099 36.672,93.555 L36.147,92.869 L35.457,93.398 L38.927,97.925 L39.695,97.337 L37.879,94.967 C37.629,94.644 37.443,94.312 37.319,93.974 L37.319,93.974 L37.319,93.974 Z M48.144,83.675 L49.374,86.886 L49.784,87.96 L48.893,87.267 L46.204,85.161 L45.415,85.765 L46.727,88.969 C47.022,89.655 47.182,90.026 47.207,90.082 L46.193,89.316 L43.47,87.255 L42.677,87.862 L47.532,91.328 L48.333,90.714 L46.579,86.528 L47.347,87.166 L50.145,89.326 L50.943,88.715 L48.888,83.103 L48.144,83.675 L48.144,83.675 Z M31.396,100.003 C30.844,99.284 30.215,98.872 29.508,98.767 C28.8,98.662 28.135,98.848 27.512,99.325 C26.953,99.754 26.607,100.285 26.475,100.92 C26.318,101.681 26.561,102.48 27.204,103.319 C27.79,104.083 28.434,104.519 29.137,104.627 C29.839,104.733 30.507,104.544 31.14,104.058 C31.536,103.755 31.829,103.384 32.021,102.942 C32.214,102.502 32.27,102.048 32.189,101.58 C32.107,101.111 31.843,100.586 31.396,100.003 L31.396,100.003 L31.396,100.003 Z M30.656,103.426 C30.272,103.72 29.844,103.82 29.37,103.725 C28.896,103.631 28.437,103.293 27.993,102.714 C27.548,102.134 27.343,101.603 27.376,101.123 C27.409,100.643 27.616,100.254 27.999,99.96 C28.378,99.67 28.806,99.572 29.28,99.666 C29.756,99.759 30.208,100.086 30.636,100.645 C31.092,101.239 31.305,101.778 31.274,102.262 C31.243,102.746 31.038,103.134 30.656,103.426 L30.656,103.426 L30.656,103.426 Z M30.656,103.426" class="Shape"/>
            </g>
            <g class="background">
                <path d="M383.398,23.464 L332.091,10.619 L325.903,15.024 L325.903,15.658 L345.428,20.534 L350.106,17.195 L361.174,19.941 L360.705,20.33 L356.702,20.74 L351.39,24.55 L342.119,25.513 L315.445,18.836 L312.851,14.717 L300.351,23.669 L300.351,24.305 L310.911,23.117 L347.775,32.336 L328.435,46.206 L323.431,46.943 L315.792,52.371 L315.792,52.986 L316.017,55.055 L288.015,75.215 L264.65,77.693 L238.405,71.096 L236.853,68.433 L232.993,71.179 L170.699,55.711 L122.641,67.798 L123.442,68.062 L104.382,70.338 L68.58,61.343 L66.62,62.327 L66.62,62.982 L94.396,69.926 L34.43,112.826 L30.57,122.188 L30.529,122.823 L59.083,129.953 L65.536,125.364 L65.536,124.708 L42.62,118.992 L45.642,116.8 L45.642,116.165 L43.58,115.653 L48.094,112.437 L58.796,115.101 L60.123,117.394 L67.313,119.198 L77.402,119.157 L77.832,119.279 L83.203,115.325 L81.366,114.874 L79.241,111.576 L77.199,111.044 L75.421,111.147 L62.371,107.91 L55.528,109.385 L53.18,108.791 L101.564,74.169 L131.047,70.576 L205.361,95.146 L233.547,75.499 L260.078,82.138 L262.017,85.149 L239.652,101.128 L228.073,102.439 L220.904,100.636 L219.005,97.686 L215.838,96.416 L207.546,94.9 L194.597,104.119 L194.597,104.774 L200.479,106.659 L205.973,107.601 L212.856,107.048 L220.046,108.83 L222.619,113.317 L200.254,129.296 L189.899,129.604 L183.056,134.479 L183.056,135.115 L188.714,143.657 L161.978,162.811 L155.075,164.123 L146.783,170.084 L146.742,170.698 L148.09,172.727 L130.974,184.977 L128.197,185.407 L92.781,176.516 L89.901,171.578 L77.3,180.57 L77.3,181.226 L86.267,180.284 L112.92,186.963 L115.33,190.486 L110.366,194.031 L110.366,194.707 L111.122,195.895 L110.183,196.55 L98.97,193.764 L103.035,190.875 L103.035,190.198 L82.059,184.974 L74.42,190.443 L74.42,191.12 L122.989,203.269 L133.691,201.814 L143.414,194.849 L143.414,194.212 L140.943,190.278 L159.876,176.738 L166.983,175.918 L174.602,170.53 L174.602,169.895 L172.988,167.333 L201.541,146.89 L211.917,146.09 L219.105,140.968 L219.105,140.333 L214.286,132.916 L235.324,117.878 L247.72,116.506 L277.478,123.963 L286.323,117.633 L286.323,116.998 L256.564,109.541 L253.583,104.767 L274.518,89.792 L293.35,87.805 L301.458,82.008 L301.458,81.38 L299.906,78.879 L328.132,58.68 L335.424,57.901 L342.961,52.534 L342.961,51.878 L340.918,49.502 L360.32,35.613 L371.493,34.814 L381.316,27.787 L381.316,27.152 L380.663,26.066 L383.4,24.079 L383.4,23.464 L383.398,23.464" class="walkway"/>
                <path d="M437.829,41.001 L437.829,44.176 L430.293,49.564 L428.74,49.154 L428.74,50.691 L377.17,87.607 L351.723,81.236 L351.723,82.65 L329.889,98.26 L324.047,96.804 L313.365,104.426 L324.538,107.233 L330.644,116.534 L330.623,119.709 L300.661,141.159 L278.357,143.433 L261.773,139.252 L261.732,141.403 L253.214,147.466 L255.828,148.122 L255.787,151.297 L235.547,165.78 L253.909,170.369 L253.888,173.545 L206.667,207.326 L204.972,206.916 L204.972,208.555 L193.719,216.586 L178.932,217.609 L159.244,212.693 L148.133,220.662 L63.76,199.56 L63.801,196.384 L71.542,190.853 L67.09,189.747 L67.13,186.572 L69.969,184.523 L70.153,184.421 L77.363,179.257 L86.472,178.316 L113.268,184.994 L115.984,189.051 L115.943,192.184 L111.735,195.197 L111.714,197.614 C111.429,197.819 111.149,198.016 110.878,198.207 L123.173,201.301 L128.79,200.4 L128.79,200.461 L128.932,200.503 L128.932,200.4 L133.753,199.845 L142.025,193.926 L141.289,192.799 L141.187,192.595 L141.146,192.595 L140.636,191.713 L140.657,188.56 L148.377,183.029 L149.664,183.337 L149.664,182.108 L159.59,175.018 L159.611,174.793 L159.938,174.772 L159.958,174.731 L160.08,174.731 L167.045,173.993 L173.193,169.608 L172.681,168.768 L172.681,165.633 L188.817,154.079 L190.491,154.489 L190.512,152.849 L201.603,144.92 L211.978,144.121 L217.697,140.045 L213.959,134.37 L214,131.192 L231.319,118.757 L232.627,119.106 L232.627,117.856 L235.385,115.911 L247.906,114.538 L275.826,121.544 L275.784,123.244 L282.974,118.102 L256.667,111.526 L256.585,111.547 L256.564,111.526 L256.277,111.444 L256.277,111.055 L253.338,106.262 L253.215,106.262 L253.215,106.118 L253.194,106.077 L253.215,102.922 L253.44,102.943 L256.035,101.099 L257.321,101.427 L257.362,100.157 L269.576,91.389 L269.759,91.286 L274.58,87.844 L293.392,85.857 L293.536,85.857 L300.072,81.125 L299.581,80.305 L299.623,77.151 L301.706,75.655 L301.87,75.553 L310.693,69.202 L312.142,69.591 L312.185,68.157 L328.197,56.705 L335.488,55.926 L341.249,51.828 L340.516,50.989 L340.555,47.855 L346.95,43.265 L347.112,43.163 L351.174,40.234 L352.768,40.644 L352.768,39.087 L360.366,33.659 L371.557,32.839 L372.763,31.979 L372.948,31.876 L379.116,27.411 L379.3,27.308 L380.342,26.55 L380.383,24.624 L362.245,20.097 L362.204,21.347 L360.958,22.269 L356.976,22.678 L351.624,26.509 L342.208,27.493 L331.587,24.83 L331.28,24.727 L315.45,20.793 L312.794,16.593 L312.835,13.417 L319.576,8.603 L326.477,7.885 L326.621,7.885 L326.825,7.906 L335.241,1.617 L429.784,25.258 L429.784,28.434 L424.35,32.286 L434.114,34.765 L437.829,41.001 M329.582,14.532 L345.514,18.548 L348.209,16.623 L332.277,12.628 L329.582,14.532 M99.687,191.352 L82.306,186.987 L78.343,189.774 L78.057,190.02 L98.236,195.039 L98.277,192.354 L99.687,191.352 M258.361,127.432 L258.158,127.411 L258.158,127.616 L258.361,127.432" class="wall"/>
                <path d="M348.801,33.769 L328.989,47.946 L328.989,48.11 L328.662,48.151 L328.642,48.172 L328.538,48.172 L323.698,48.867 L316.488,54.03 L316.488,56.878 L316.406,56.919 L316.406,57.062 L316.262,57.021 L305.5,64.724 L303.949,64.334 L303.949,65.932 L288.263,77.159 L264.754,79.658 L238.406,73.04 L236.794,70.295 L236.794,67.12 L257.116,52.596 L248.231,50.383 L248.231,47.249 L277.744,26.107 L277.908,26.004 L282.973,22.379 L296.84,25.82 L296.84,24.878 L300.414,22.338 L311.096,21.15 L348.84,30.593 L348.801,33.769" class="wall"/>
                <path d="M107.916,99.817 L163.267,60.237 L226.029,75.93 L226.029,74.864 L227.704,73.676 L233.81,73.533 L260.404,80.191 L262.631,83.674 L262.59,86.828 L239.918,103.095 L228.195,104.427 L220.902,102.584 L218.984,99.612 L215.838,98.813 L215.838,96.417 L213.265,98.261 L207.752,96.868 L198.255,103.649 L200.522,104.222 L200.482,106.66 L203.015,104.836 L206.181,105.635 L213.064,105.041 L220.356,106.885 L223.235,111.884 L223.235,115.038 L200.524,131.264 L190.17,131.592 L184.859,135.382 L189.373,142.204 L189.352,145.379 L174.586,155.93 L171.85,155.235 L171.808,157.919 L162.229,164.782 L155.346,166.073 L148.545,170.949 L148.729,171.215 L148.791,171.256 L148.791,171.359 L148.851,171.421 L148.831,174.597 L148.627,174.535 L131.267,186.97 L128.345,187.38 L92.787,178.509 L89.846,173.449 L89.867,170.273 L97.26,165.027 L101.611,166.093 L101.652,164.843 L114.315,155.747 L114.498,155.645 L117.48,153.494 L117.644,153.391 L130.246,144.377 L140.498,146.917 L140.519,144.232 L145.727,140.503 L144.767,140.257 L144.808,137.081 L149.485,133.742 L146.422,132.983 L146.463,129.807 L155.246,123.497 L168.44,126.775 L177.916,119.993 L182.675,121.161 L189.579,116.224 L189.763,116.121 L192.643,114.032 L192.643,112.988 L190.008,114.873 L184.514,113.5 L175.569,119.912 L107.923,102.99 L107.923,99.815 M116.638,171.744 L116.638,171.846 L116.74,171.764 L116.638,171.744 M230.893,80.313 L225.766,83.981 L227.992,84.534 L227.992,86.972 L230.524,85.169 L233.547,85.927 L239.797,81.441 L230.893,79.209 L230.893,80.313" class="wall"/>
                <path d="M175.337,52.534 L159.447,63.924 L129.689,67.427 L142.291,70.603 L142.251,73.737 L106.08,99.653 L106.223,99.694 L102.791,102.132 L102.607,102.05 L102.566,102.05 L93.783,99.9 L93.62,99.92 L82.652,107.705 L82.755,107.705 L77.813,111.31 L77.241,111.188 L75.464,111.29 L62.433,108.052 L55.591,109.507 L52.343,108.708 L52.364,105.533 L61.146,99.223 L61.329,99.121 L67.968,94.368 L68.131,94.245 L95.705,74.517 L95.909,74.394 L99.279,71.956 L99.442,71.853 L101.525,70.357 L103.241,70.153 L91.354,67.202 L91.334,70.112 L84.185,75.233 L63.721,70.112 L62.066,66.259 L62.066,63.084 L70.297,61.937 L68.377,61.445 L68.419,58.269 L115.394,34.362 L175.339,49.358 L175.339,52.534" class="wall"/>
                <path d="M67.396,118.726 L65.702,119.914 L69.459,120.856 L69.459,124.482 L68.07,125.465 L41.784,118.909 L41.825,115.734 L42.744,115.037 L42.785,112.395 L48.136,108.564 L59.043,111.309 L60.351,113.624 L67.376,115.366 L67.396,118.726" class="wall"/>
                <path d="M281.456,85.422 L276.544,84.033 L276.544,80.447 L279.602,78.256 L284.522,79.657 L284.522,83.168 L281.456,85.422 L281.456,85.422 Z M281.456,85.422" class="wall"/>
                <path d="M373.214,30.535 L368.302,29.146 L368.302,25.56 L371.36,23.369 L376.28,24.77 L376.28,28.281 L373.214,30.535 L373.214,30.535 Z M373.214,30.535" class="wall"/>
                <path d="M205.094,138.214 L200.182,136.825 L200.182,133.239 L203.24,131.048 L208.159,132.449 L208.159,135.96 L205.094,138.214 L205.094,138.214 Z M205.094,138.214" class="wall"/>
                <path d="M193.707,149.917 L188.795,148.527 L188.795,144.941 L191.853,142.751 L196.772,144.152 L196.772,147.663 L193.707,149.917 L193.707,149.917 Z M193.707,149.917" class="wall"/>
            </g>
            <g class="ceilings">
                <path class="unit" d="M91.521,179.656 L96.069,180.769 L89.647,185.367 L85.1,184.252 L91.521,179.656" id="1001"/>
                <path class="unit" d="M91.277,179.622 L84.855,184.218 L81.869,183.487 L77.911,186.309 L70.136,184.358 L77.252,179.239 L86.069,178.333 L91.277,179.622" id="1002"/>
                <path class="unit" d="M109.19,184.044 L102.768,188.675 L94.956,186.725 L101.414,182.127 L109.19,184.044" id="1003"/>
                <path class="unit" d="M101.101,182.023 L94.679,186.654 L89.958,185.47 L96.381,180.839 L101.101,182.023" id="1004"/>
                <path class="unit" d="M77.738,186.412 L74.197,188.988 L74.094,188.952 L74.962,188.327 L67.255,186.411 L69.962,184.46 L77.738,186.412" id="1005"/>
                <path class="unit" d="M112.627,184.982 L115.265,188.882 L109.989,192.644 L111.031,194.279 L109.955,195.081 L98.394,192.191 L109.538,184.216 L112.627,184.982" id="1006"/>
                <path class="unit" d="M188.583,154.168 L217.674,161.443 L213.403,164.509 L184.312,157.23 L188.583,154.168" id="1007"/>
                <path class="unit" d="M208.961,167.678 L179.87,160.399 L184.14,157.337 L213.23,164.614 L208.961,167.678" id="1008"/>
                <path class="unit" d="M210.731,168.234 L205.107,172.273 L174.003,164.509 L179.627,160.47 L210.731,168.234" id="1009"/>
                <path class="unit" d="M159.701,174.712 L188.757,181.989 L183.203,185.958 L154.146,178.715 L159.701,174.712" id="1010"/>
                <path class="unit" d="M154.042,178.891 L180.287,185.473 L176.052,188.502 L149.808,181.956 L154.042,178.891" id="1011"/>
                <path class="unit" d="M169.386,192.506 L143.906,186.133 L148.176,183.104 L173.656,189.475 L169.386,192.506" id="1012"/>
                <path class="unit" d="M143.731,186.271 L169.212,192.644 L165.323,195.431 L141.266,189.407 L140.71,188.467 L143.731,186.271" id="1013"/>
                <path class="unit" d="M141.336,189.546 L188.792,201.419 L186.049,203.402 L143.35,192.714 L141.336,189.546" id="1014"/>
                <path class="unit" d="M173.899,164.684 L205.281,172.553 L220,162.038 L253.084,170.291 L206.219,203.857 L171.087,195.045 L189.312,182.024 L160.152,174.712 L166.957,173.98 L174.595,168.513 L172.72,165.519 L173.899,164.684" id="1015"/>
                <path class="unit" d="M143.246,192.854 L186.153,203.578 L189.104,201.49 L194.276,202.778 L184.417,209.846 L136.336,197.797 L143.246,192.854" id="1016"/>
                <path class="unit" d="M136.233,198.007 L184.626,210.125 L194.658,202.917 L204.171,205.318 L193.202,213.152 L178.656,214.163 L129.951,201.976 L128.701,200.41 L133.665,199.851 L136.233,198.007" id="1017"/>
                <path class="unit" d="M147.619,217.088 L63.888,196.161 L73.851,189.023 L122.729,201.244 L128.317,200.374 L129.602,202.011 L158.555,209.254 L147.619,217.088" id="1018"/>
                <path class="unit" d="M213.89,105.349 L210.072,108.099 L201.289,105.906 L202.747,104.862 L205.733,105.593 L212.607,105.036 L213.89,105.349" id="1019"/>
                <path class="unit" d="M219.652,106.777 L221.25,109.701 L213.89,110.363 L199.9,106.881 L201.116,106.01 L210.177,108.273 L214.204,105.418 L219.652,106.777" id="1020"/>
                <path class="unit" d="M221.389,109.911 L222.535,111.723 L217.363,115.413 L195.7,110.016 L199.798,107.091 L213.891,110.609 L221.389,109.911" id="1021"/>
                <path class="unit" d="M213.683,118.059 L193.86,113.08 L194.624,112.558 L192.785,112.104 L195.527,110.12 L217.19,115.552 L213.683,118.059" id="1022"/>
                <path class="unit" d="M209.551,121.018 L189.729,116.074 L193.686,113.219 L213.509,118.164 L209.551,121.018" id="1023"/>
                <path class="unit" d="M189.521,116.178 L209.377,121.158 L204.968,124.291 L185.146,119.311 L189.521,116.178" id="1024"/>
                <path class="unit" d="M177.717,120.079 L182.439,121.263 L184.974,119.452 L204.795,124.397 L199.97,127.844 L189.8,128.156 L172.477,123.804 L177.717,120.079" id="1025"/>
                <path class="unit" d="M182.717,133.102 L189.521,128.229 L172.302,123.943 L168.206,126.869 L155.048,123.561 L152.592,125.318 L182.837,133.284 L182.717,133.102 L182.717,133.102 Z M182.717,133.102" id="1026"/>
                <path class="unit" d="M148.973,138.08 L182.508,146.473 L178.412,149.397 L144.911,141.041 L148.973,138.08" id="1027"/>
                <path class="unit" d="M144.738,141.146 L178.238,149.538 L174.177,152.428 L140.643,144.071 L144.738,141.146" id="1028"/>
                <path class="unit" d="M138.42,146.473 L134.879,149.016 L126.409,146.926 L129.95,144.384 L138.42,146.473" id="1029"/>
                <path class="unit" d="M138.768,146.611 L171.017,154.691 L163.554,160.051 L122.556,149.779 L126.305,147.099 L135.054,149.291 L138.768,146.611" id="1030"/>
                <path class="unit" d="M122.381,149.92 L163.381,160.157 L161.714,161.342 L154.909,162.664 L117.626,153.333 L122.381,149.92" id="1031"/>
                <path class="unit" d="M117.417,153.436 L154.667,162.768 L151.68,164.893 L114.431,155.596 L117.417,153.436" id="1032"/>
                <path class="unit" d="M147.933,170.986 L107.178,160.784 L114.26,155.7 L151.508,165.031 L146.405,168.652 L147.933,170.986" id="1033"/>
                <path class="unit" d="M142.759,174.921 L101.76,164.649 L107.003,160.922 L148.002,171.158 L142.759,174.921" id="1034"/>
                <path class="unit" d="M108.044,167.783 L96.555,176 L92.701,175.023 L89.855,170.116 L97.006,164.997 L108.044,167.783" id="1035"/>
                <path class="unit" d="M128.075,183.939 L104.678,178.088 L109.4,174.712 L134.325,180.944 L130.715,183.555 L128.075,183.939" id="1036"/>
                <path class="unit" d="M138.49,177.95 L115.89,172.31 L119.986,169.382 L142.586,175.023 L138.49,177.95" id="1037"/>
                <path class="unit" d="M134.533,180.805 L111.898,175.162 L115.716,172.413 L138.316,178.089 L134.533,180.805" id="1038"/>
                <path class="unit" d="M115.855,169.768 L104.365,177.985 L96.935,176.141 L108.426,167.922 L115.855,169.768" id="1039"/>
                <path class="unit" d="M235.17,115.83 L246.002,114.681 L245.413,118.86 L243.398,120.288 L232.707,117.606 L235.17,115.83" id="1040"/>
                <path class="unit" d="M254.264,116.249 L247.251,121.262 L243.71,120.356 L245.723,118.894 L246.348,114.644 L247.423,114.541 L254.264,116.249" id="1041"/>
                <path class="unit" d="M261.242,117.989 L254.228,123.004 L247.564,121.332 L254.576,116.318 L261.242,117.989" id="1042"/>
                <path class="unit" d="M261.555,118.059 L268.393,119.766 L261.381,124.78 L254.541,123.074 L261.555,118.059" id="1043"/>
                <path class="unit" d="M231.109,118.86 L257.353,125.405 L253.465,128.192 L227.254,121.647 L231.109,118.86" id="1044"/>
                <path class="unit" d="M227.082,121.75 L253.292,128.331 L249.439,131.081 L223.193,124.536 L227.082,121.75" id="1045"/>
                <path class="unit" d="M223.021,124.64 L249.265,131.221 L245.273,134.076 L219.028,127.494 L223.021,124.64" id="1046"/>
                <path class="unit" d="M274.989,121.471 L256.591,134.632 L250.377,133.102 L268.775,119.907 L274.989,121.471" id="1047"/>
                <path class="unit" d="M218.855,127.635 L245.064,134.182 L240.273,137.628 L220.556,132.684 L215.556,133.311 L214.029,131.082 L218.855,127.635" id="1048"/>
                <path class="unit" d="M329.907,116.423 L300.088,137.768 L278.078,139.961 L259.019,135.19 L304.775,102.424 L323.867,107.195 L329.907,116.423" id="1049"/>
                <path class="unit" d="M220.486,132.822 L240.379,137.801 L245.377,134.248 L260.964,138.15 L249.335,146.47 L219.064,138.881 L215.627,133.448 L220.486,132.822" id="1050"/>
                <path class="unit" d="M201.497,144.941 L211.738,144.138 L226.979,147.97 L220.833,152.357 L218.195,151.73 L214.48,154.377 L195.11,149.502 L201.497,144.941" id="1051"/>
                <path class="unit" d="M194.937,149.643 L214.308,154.483 L210.038,157.546 L190.633,152.706 L194.937,149.643" id="1052"/>
                <path class="unit" d="M227.464,147.9 L211.981,144.035 L218.994,139.056 L254.993,148.038 L233.505,163.429 L212.989,158.275 L227.464,147.9" id="1053"/>
                <path class="unit" d="M298.734,65.864 L270.963,58.9 L275.337,55.766 L303.145,62.73 L298.734,65.864" id="1054"/>
                <path class="unit" d="M294.534,68.892 L266.724,61.929 L270.787,59.037 L298.559,66.002 L294.534,68.892" id="1055"/>
                <path class="unit" d="M266.553,62.067 L294.362,68.997 L290.3,71.887 L262.529,64.958 L266.553,62.067" id="1056"/>
                <path class="unit" d="M236.837,67.046 L258.499,51.552 L273.218,55.243 L249.23,72.409 L238.364,69.694 L236.837,67.046" id="1057"/>
                <path class="unit" d="M262.352,65.062 L290.124,72.026 L287.693,73.767 L284.396,74.116 L258.707,67.674 L262.352,65.062" id="1058"/>
                <path class="unit" d="M258.534,67.812 L283.91,74.15 L274.433,75.16 L255.027,70.32 L258.534,67.812" id="1059"/>
                <path class="unit" d="M253.049,69.971 L273.947,75.195 L264.505,76.205 L249.543,72.479 L253.049,69.971" id="1060"/>
                <path class="unit" d="M242.842,78.782 L226.11,74.603 L227.5,73.627 L233.262,73.489 L245.828,76.623 L242.842,78.782" id="1061"/>
                <path class="unit" d="M254.125,78.711 L251.105,80.869 L243.121,78.849 C244.139,78.154 245.144,77.446 246.142,76.725 L254.125,78.711" id="1062"/>
                <path class="unit" d="M259.749,80.174 L261.902,83.552 L256.103,87.696 L237.461,83.029 L243.015,79.06 L251.312,81.114 L254.506,78.851 L259.749,80.174" id="1063"/>
                <path class="unit" d="M255.932,87.834 L252.112,90.549 L233.471,85.884 L237.288,83.168 L255.932,87.834" id="1064"/>
                <path class="unit" d="M230.275,85.258 L251.937,90.656 L247.98,93.51 L226.316,88.114 L230.275,85.258" id="1065"/>
                <path class="unit" d="M227.186,84.491 L212.814,94.764 L207.607,93.475 L221.979,83.168 L227.186,84.491" id="1066"/>
                <path class="unit" d="M243.814,96.47 L222.187,91.073 L226.144,88.218 L247.806,93.65 L243.814,96.47" id="1067"/>
                <path class="unit" d="M228.436,96.749 L223.993,99.953 L220.8,99.152 L218.891,96.192 L215.905,95.425 L217.78,94.102 L228.436,96.749" id="1068"/>
                <path class="unit" d="M218.021,94.033 L222.014,91.179 L243.639,96.61 L239.37,99.675 L233.816,100.266 L232.114,97.55 L218.021,94.033" id="1069"/>
                <path class="unit" d="M231.837,97.654 L233.504,100.3 L227.915,100.962 L224.34,100.091 L228.819,96.887 L231.837,97.654" id="1070"/>
                <path class="unit" d="M199.692,104.165 L189.556,111.407 L184.384,110.085 L194.485,102.842 L199.692,104.165" id="1071"/>
                <path class="unit" d="M163.068,60.327 L230.104,77.076 L175.114,116.423 L108.081,99.674 L163.068,60.327" id="1072"/>
                <path class="unit" d="M361.43,18.159 L360.387,18.89 L356.395,19.308 L354.38,20.735 L345.459,18.506 L349.971,15.303 L361.43,18.159" id="1073"/>
                <path class="unit" d="M319.424,8.653 L326.229,7.922 L331.645,9.28 L325.499,13.668 L337.615,16.732 L331.123,21.363 L315.398,17.428 L312.83,13.354 L319.424,8.653" id="1074"/>
                <path class="unit" d="M337.927,16.801 L354.207,20.875 L351.083,23.103 L341.953,24.078 L331.433,21.431 L337.927,16.801" id="1075"/>
                <path class="unit" d="M300.191,22.268 L310.605,21.119 L315.464,22.338 L308.244,27.491 L296.891,24.636 L300.191,22.268" id="1076"/>
                <path class="unit" d="M315.746,22.408 L320.812,23.661 L313.591,28.814 L308.558,27.56 L315.746,22.408" id="1077"/>
                <path class="unit" d="M331.262,26.271 L327.444,29.023 L322.617,27.803 L326.436,25.087 L331.262,26.271" id="1078"/>
                <path class="unit" d="M337.477,27.839 L333.623,30.555 L327.755,29.093 L331.574,26.377 L337.477,27.839" id="1079"/>
                <path class="unit" d="M326.158,25.02 L318.937,30.173 L313.904,28.919 L321.091,23.731 L326.158,25.02" id="1080"/>
                <path class="unit" d="M420.409,31.321 L326.471,7.818 L335.009,1.723 L428.948,25.227 L420.409,31.321" id="1081"/>
                <path class="unit" d="M337.754,27.909 L342.402,29.057 L337.37,32.679 L332.719,31.494 L337.754,27.909" id="1082"/>
                <path class="unit" d="M347.995,30.52 L342.962,34.142 L337.719,32.819 L342.752,29.232 L347.995,30.52" id="1083"/>
                <path class="unit" d="M342.787,34.246 L334.558,40.131 L277.87,25.958 L282.766,22.441 L320.049,31.773 L323.382,29.405 L342.787,34.246" id="1084"/>
                <path class="unit" d="M385.938,40.862 L359.416,34.212 L360.145,33.69 L371.356,32.855 L372.606,31.949 L391.7,36.72 L385.938,40.862" id="1085"/>
                <path class="unit" d="M421.346,43.926 L372.78,31.773 L378.996,27.351 L427.561,39.47 L421.346,43.926" id="1086"/>
                <path class="unit" d="M328.172,44.727 L271.449,30.52 L277.698,26.063 L334.386,40.27 L328.172,44.727" id="1087"/>
                <path class="unit" d="M379.342,45.598 L352.819,38.947 L359.244,34.35 L385.765,40.966 L379.342,45.598" id="1088"/>
                <path class="unit" d="M437.108,40.897 L429.816,46.085 L421.727,44.064 L428.081,39.502 L379.238,27.28 L381.32,25.784 L380.349,24.286 L383.265,22.197 L433.461,34.733 L437.108,40.897" id="1089"/>
                <path class="unit" d="M376.391,50.402 L346.99,43.055 L350.878,40.27 L380.28,47.617 L376.391,50.402" id="1090"/>
                <path class="unit" d="M323.104,45.493 L315.466,50.96 L315.71,53.502 L293.284,47.896 L282.521,55.591 L248.361,47.059 L271.273,30.658 L327.823,44.797 L323.104,45.493" id="1091"/>
                <path class="unit" d="M315.674,53.675 L312.378,56.009 L290.125,50.471 L293.423,48.104 L315.674,53.675" id="1092"/>
                <path class="unit" d="M309.114,58.341 L286.896,52.77 L289.951,50.577 L312.202,56.148 L309.114,58.341" id="1093"/>
                <path class="unit" d="M305.087,61.232 L282.834,55.695 L286.725,52.909 L308.942,58.48 L305.087,61.232" id="1094"/>
                <path class="unit" d="M331.99,64.157 L327.34,67.499 L316.611,64.783 L321.228,61.476 L331.99,64.157" id="1095"/>
                <path class="unit" d="M393.193,38.772 L427.908,47.479 L398.4,68.58 L338.621,53.642 L342.96,50.544 L340.564,47.758 L346.847,43.266 L376.564,50.683 L393.193,38.772" id="1096"/>
                <path class="unit" d="M316.473,64.992 L338.065,70.389 L333.866,73.384 L312.274,67.987 L316.473,64.992" id="1097"/>
                <path class="unit" d="M376.704,84.108 L336.887,74.15 L341.26,71.016 L327.721,67.638 L332.51,64.192 L321.471,61.44 L328.069,56.705 L335.358,55.973 L338.449,53.744 L398.227,68.717 L376.704,84.108" id="1098"/>
                <path class="unit" d="M310.467,69.31 L337.096,75.961 L333.172,78.748 L306.546,72.096 L310.467,69.31" id="1099"/>
                <path class="unit" d="M306.301,72.166 L334.906,79.304 L330.324,82.578 L301.719,75.439 L306.301,72.166" id="1100"/>
                <path class="unit" d="M301.615,75.613 L330.533,82.855 L339.351,76.518 L350.91,79.409 L329.422,94.799 L293.387,85.78 L301.477,80.001 L299.602,77.075 L301.615,75.613" id="1101"/>
                <path class="unit" d="M298.212,98.316 L269.641,91.178 L273.703,88.252 L302.273,95.425 L298.212,98.316" id="1102"/>
                <path class="unit" d="M311.787,101.764 L298.596,98.456 L302.83,95.426 L273.948,88.218 L274.469,87.835 L293.147,85.885 L323.418,93.441 L311.787,101.764" id="1103"/>
                <path class="unit" d="M269.539,91.353 L295.749,97.934 L291.756,100.788 L265.547,94.206 L269.539,91.353" id="1104"/>
                <path class="unit" d="M291.583,100.893 L287.729,103.679 L261.485,97.098 L265.375,94.348 L291.583,100.893" id="1105"/>
                <path class="unit" d="M283.702,106.568 L257.458,99.987 L261.346,97.236 L287.557,103.782 L283.702,106.568" id="1106"/>
                <path class="unit" d="M267.872,106.498 L253.326,102.842 L255.756,101.101 L270.302,104.756 L267.872,106.498" id="1107"/>
                <path class="unit" d="M253.361,103.016 L267.525,106.568 L256.417,108.029 L253.361,103.016" id="1108"/>
                <path class="unit" d="M256.729,108.135 L267.561,106.708 L263.291,109.773 L256.729,108.135" id="1109"/>
                <path class="unit" d="M277.279,106.498 L270.267,111.513 L263.601,109.841 L270.615,104.826 L277.279,106.498" id="1110"/>
                <path class="unit" d="M284.432,108.309 L277.419,113.324 L270.581,111.583 L277.593,106.569 L284.432,108.309" id="1111"/>
                <path class="unit" d="M302.414,101.833 L284.016,114.995 L277.801,113.462 L296.199,100.3 L302.414,101.833" id="1112"/>
                <path class="unit" d="M158.901,60.5 L104.156,67.012 L68.608,58.132 L115.16,34.454 L174.557,49.288 L158.901,60.5" id="1113"/>
                <path class="unit" d="M90.548,66.908 L83.744,71.748 L63.748,66.769 L62.151,63.078 L70.552,61.894 L90.548,66.908" id="1114"/>
                <path class="unit" d="M141.476,70.528 L129.256,79.268 L99.436,71.816 L101.415,70.389 L128.145,67.186 L141.476,70.528" id="1115"/>
                <path class="unit" d="M125.714,81.812 L95.86,74.359 L99.262,71.921 L129.081,79.408 L125.714,81.812" id="1116"/>
                <path class="unit" d="M95.687,74.463 L125.542,81.949 L118.772,86.79 L88.952,79.303 L95.687,74.463" id="1117"/>
                <path class="unit" d="M88.917,99.569 L82.287,104.34 L61.318,99.082 L67.948,94.347 L88.917,99.569" id="1118"/>
                <path class="unit" d="M88.779,79.443 L118.598,86.895 L113.876,90.308 L103.219,87.626 L100.477,89.576 L81.28,84.805 L88.779,79.443" id="1119"/>
                <path class="unit" d="M81.105,84.91 L100.58,89.785 L103.322,87.835 L113.701,90.412 L105.092,96.576 L75.273,89.09 L81.105,84.91" id="1120"/>
                <path class="unit" d="M102.178,98.665 L93.325,96.436 L89.091,99.465 L68.123,94.208 L75.102,89.229 L104.921,96.681 L102.178,98.665" id="1121"/>
                <path class="unit" d="M75.205,107.856 L62.152,104.584 L55.314,106.081 L52.537,105.384 L61.146,99.221 L82.113,104.444 L77.392,107.857 L77.01,107.753 L75.205,107.856" id="1122"/>
                <path class="unit" d="M43.926,116.004 L41.879,115.482 L45.593,112.836 L42.851,112.173 L47.85,108.589 L58.334,111.201 L58.715,111.897 L43.926,116.004" id="1123"/>
                <path class="unit" d="M67.636,121.994 L44.307,116.145 L58.887,112.14 L59.72,113.567 L66.802,115.343 L61.664,119.034 L69.128,120.914 L67.636,121.994" id="1124"/>
                <path class="unit" d="M148.73,134.215 L186.465,143.653 L182.681,146.335 L144.947,136.933 L148.73,134.215" id="1125"/>
                <path class="unit" d="M146.578,129.62 L152.931,131.221 L148.904,134.076 L186.639,143.514 L188.652,142.05 L183.046,133.598 L152.328,125.507 L146.578,129.62 L146.578,129.62 Z M146.578,129.62" id="1126"/>
                <path class="unit" d="M281.456,81.836 L276.544,80.447 L279.602,78.256 L284.522,79.657 L281.456,81.836 L281.456,81.836 Z M281.456,81.836" id="1127"/>
                <path class="unit" d="M373.214,26.949 L368.302,25.56 L371.36,23.369 L376.28,24.77 L373.214,26.949 L373.214,26.949 Z M373.214,26.949" id="1128"/>
                <path class="unit" d="M205.094,134.628 L200.182,133.239 L203.24,131.048 L208.159,132.449 L205.094,134.628 L205.094,134.628 Z M205.094,134.628" id="1129"/>
                <path class="unit" d="M193.707,146.331 L188.795,144.941 L191.853,142.751 L196.772,144.152 L193.707,146.331 L193.707,146.331 Z M193.707,146.331" id="1130"/>
        </g>
    </g>
</svg>