<?xml version="1.0" encoding="utf-8"?>
<!DOCTYPE svg PUBLIC "-//W3C//DTD SVG 1.1//EN" "http://www.w3.org/Graphics/SVG/1.1/DTD/svg11.dtd">
<svg version="1.1" xmlns="http://www.w3.org/2000/svg" xmlns:xlink="http://www.w3.org/1999/xlink" xml:space="preserve">
<g class="level" id="level1">
        <g class="outline">
            <path d="M405.8,104.3 L405.8,99.9 L405.8,99.8 C405.5,96.9 404.5,94.3 402.9,92 L402.3,91 L382.9,86.1 L367.6,96.6 L359.8,94.5 L356.4,96.9 L348,94.6 L367.2,81 L380.1,83.7 L388,81 L390.4,81.6 L395.9,77.8 L395.9,74.7 L388.3,72.5 L388.2,72.3 L378.3,69.3 L374.5,70.4 L371,69.5 L371,67.9 L341.4,61 L341.4,59.9 L320.4,54.4 L320.5,51.9 L317,51.1 L311.2,50.1 L309.2,49.6 C307.1,48.9 305.5,48.2 304.3,47.3 L303,46 C302.5,45.4 302.2,44.9 302,44.5 C301.5,43.5 300.3,42.5 297.8,41.1 L294,39.2 C293,38.8 291.7,38.3 289.8,37.9 L284.7,36.8 L280.1,39.3 L280.1,37.5 L226.9,17.4 L224.1,19.4 L220.1,18.4 L171.4,53 L150.9,48 L169.5,34.8 L169.6,28.3 L110.2,13.5 L104.5,17.8 L104.3,17.8 L101.1,20.1 L82.3,15.4 L84.4,13.9 L84.5,7.4 L57.3,0.5 L1,40.7 L1,47.1 L83.9,67.7 L79.3,71 L79.3,74.2 L81.6,74.8 L62.8,88.2 L62.7,94.6 L110.5,106.5 L121.1,98.9 L142.8,104.3 L134.7,110.1 L134.7,113.3 L141.9,115.1 L142.4,114.7 L149.8,116.5 L149.8,117.1 L196.7,128.8 L209.2,119.6 L209.2,118.8 L210.7,117.7 L272.3,133 L264,138.9 L264,145.4 L326.2,160.9 L327.5,162.7 L331.7,163.8 L342.6,162.6 L345.8,160.3 L345.8,158.1 L374.4,137.7 L377.9,137.3 L381.4,134.8 L381.5,129.2 L380.4,127.4 L382.6,125.8 L382.7,125.8 L391.9,124.9 L394.3,123.3 L399.3,119.7 L399.4,119.5 L402.1,117.1 L402.2,117 L403.4,117.1 L404.7,115.6 L404.9,115.4 L405,115.4 L406.9,112.5 L408.1,110.1 L408.2,109.9 L408.8,108.2 L409,108 L409,107.4 L409.1,107.2 L409.1,104.1 L405.8,104.3 L405.8,104.3 Z M405.8,104.3" class="outline"/>
        </g>
        <g class="label">
            <path d="M366,13.3 L361.2,13.3 L361.2,9.4 L365.1,9.4 C365.5,9.4 365.7,9.1 365.7,8.8 C365.7,8.5 365.5,8.2 365.1,8.2 L361.2,8.2 L361.2,4.5 L365.8,4.5 C366.2,4.5 366.4,4.2 366.4,3.9 C366.4,3.6 366.2,3.3 365.8,3.3 L361,3.3 C360.3,3.3 359.9,3.7 359.9,4.3 L359.9,13.6 C359.9,14.2 360.3,14.6 361,14.6 L365.9,14.6 C366.3,14.6 366.5,14.3 366.5,14 C366.7,13.6 366.4,13.3 366,13.3 L366,13.3 L366,13.3 Z M357.6,3.2 C357.3,3.2 357.1,3.5 357,3.8 C356.6,6.9 356,9.9 355.2,13 L355.2,13 C354.3,10.2 353.6,6.8 352.9,4.5 C352.6,3.5 352.3,3.2 351.8,3.2 C351.4,3.2 351,3.5 350.8,4.4 C350.1,6.7 349.2,10.4 348.4,13 L348.4,13 C347.6,9.9 347.2,6.9 346.8,3.8 C346.7,3.4 346.5,3.2 346.1,3.2 C345.7,3.2 345.5,3.5 345.5,3.8 L345.5,4.2 C345.9,7.3 346.5,10.5 347.2,13.2 C347.4,14.2 347.8,14.5 348.3,14.5 C348.8,14.5 349.1,14.2 349.4,13.4 C350.3,10.9 350.9,8.2 351.8,5 L351.8,5 C352.8,8.2 353.3,10.9 354.1,13.4 C354.4,14.3 354.7,14.5 355.2,14.5 C355.7,14.5 356,14.2 356.2,13.4 C357,10.4 357.6,7.3 358.1,4.1 L358.1,3.7 C358.2,3.5 357.9,3.2 357.6,3.2 L357.6,3.2 L357.6,3.2 Z M339.6,3.2 C336.7,3.2 334.9,5.5 334.9,9.1 C334.9,12.5 336.7,14.6 339.6,14.6 C342.5,14.6 344.3,12.2 344.3,8.6 C344.2,5.3 342.4,3.2 339.6,3.2 L339.6,3.2 L339.6,3.2 Z M339.5,13.4 C337.4,13.4 336.1,11.7 336.1,9.1 C336.1,6.1 337.3,4.3 339.5,4.3 C341.7,4.3 342.9,6 342.9,8.5 C342.9,11.6 341.7,13.4 339.5,13.4 L339.5,13.4 L339.5,13.4 Z M333.8,13.3 L329.5,13.3 L329.5,3.9 C329.5,3.5 329.2,3.2 328.9,3.2 C328.6,3.2 328.3,3.5 328.3,3.9 L328.3,13.5 C328.3,14.1 328.7,14.5 329.4,14.5 L333.9,14.5 C334.3,14.5 334.6,14.2 334.6,13.9 C334.5,13.6 334.3,13.3 333.8,13.3 L333.8,13.3 L333.8,13.3 Z M399.9,4.7 C399.3,3.5 398.8,3.1 398.2,3.1 C397.6,3.1 397.1,3.5 396.5,4.7 C395.6,6.5 394.9,8.8 393.7,13.4 C393.6,13.6 393.6,13.8 393.6,13.9 C393.6,14.3 393.9,14.5 394.2,14.5 C394.5,14.5 394.7,14.3 394.8,14 C395.1,12.6 395.4,11.4 395.7,10.3 L400.6,10.3 C400.9,11.4 401.2,12.6 401.5,14 C401.6,14.3 401.8,14.5 402.1,14.5 C402.5,14.5 402.7,14.3 402.7,13.9 C402.7,13.8 402.7,13.6 402.6,13.4 C401.5,8.8 400.8,6.5 399.9,4.7 L399.9,4.7 L399.9,4.7 Z M396.1,9.3 C396.8,6.9 397.5,5.3 398,4.5 C398,4.4 398.1,4.4 398.2,4.4 C398.3,4.4 398.4,4.5 398.4,4.5 C398.9,5.3 399.6,6.8 400.3,9.3 L396.1,9.3 L396.1,9.3 Z M417.6,13.3 L413.3,13.3 L413.3,3.9 C413.3,3.5 413,3.2 412.7,3.2 C412.3,3.2 412.1,3.5 412.1,3.9 L412.1,13.5 C412.1,14.1 412.5,14.5 413.2,14.5 L417.7,14.5 C418.1,14.5 418.4,14.2 418.4,13.9 C418.3,13.6 418,13.3 417.6,13.3 L417.6,13.3 L417.6,13.3 Z M410,13.3 L405.7,13.3 L405.7,3.9 C405.7,3.5 405.4,3.2 405.1,3.2 C404.7,3.2 404.5,3.5 404.5,3.9 L404.5,13.5 C404.5,14.1 404.9,14.5 405.6,14.5 L410.1,14.5 C410.5,14.5 410.8,14.2 410.8,13.9 C410.7,13.6 410.4,13.3 410,13.3 L410,13.3 L410,13.3 Z M391.3,4.5 C391.2,3.7 390.9,3.2 390.2,3.2 C389.6,3.2 389.3,3.6 389.1,4 C388.3,6.2 387.4,9 386.4,11.7 L386.4,11.7 C385.4,9.2 384.6,6.6 383.6,4.2 C383.4,3.6 383.1,3.2 382.5,3.2 C381.8,3.2 381.5,3.6 381.4,4.5 C381,7.4 380.9,10.6 380.9,13.8 C380.9,14.2 381.1,14.4 381.5,14.4 C381.9,14.4 382.1,14.2 382.1,13.7 C382.1,10.6 382.3,7.6 382.6,4.7 L382.6,4.7 C383.6,7.3 384.5,10 385.6,12.6 C385.7,12.9 386,13.2 386.4,13.2 C386.8,13.2 387.1,13 387.2,12.6 C388.2,10.1 389.1,7.4 390,4.7 L390,4.7 C390.4,7.7 390.6,10.7 390.7,13.7 C390.7,14.1 390.9,14.4 391.3,14.4 C391.7,14.4 391.9,14.1 391.9,13.7 L391.9,13.2 C392,10.4 391.7,7.3 391.3,4.5 L391.3,4.5 L391.3,4.5 Z M374.1,10.4 C373.8,10 373.5,9.7 373.1,9.4 C374.5,8.9 375.5,7.9 375.5,6.4 C375.5,4.5 374.2,3.2 371.3,3.2 C370.2,3.2 369.4,3.3 368.9,3.5 C368.5,3.6 368.4,3.9 368.4,4.3 L368.4,14 C368.4,14.4 368.7,14.6 369,14.6 C369.3,14.6 369.6,14.4 369.6,14 L369.6,9.7 L370.8,9.7 C372,9.7 372.4,10.2 373,11.1 C373.4,11.7 373.8,12.7 374.3,14.1 C374.4,14.4 374.6,14.5 374.9,14.5 C375.2,14.5 375.5,14.3 375.5,13.9 C375.5,13.8 375.5,13.6 375.4,13.5 C375.1,12.4 374.6,11.2 374.1,10.4 L374.1,10.4 L374.1,10.4 Z M371.1,8.5 L369.7,8.5 L369.7,4.5 C370.1,4.4 370.6,4.4 371.3,4.4 C373.6,4.4 374.3,5.3 374.3,6.5 C374.2,8.1 372.7,8.6 371.1,8.5 L371.1,8.5 L371.1,8.5 Z M371.1,8.5" class="Shape"/>
            <path d="M251.2,11.3 L250.2,13.9 C250.1,13.6 250,13.4 249.8,13.1 C249.6,12.8 249.3,12.7 249,12.6 C248.6,12.4 248.1,12.4 247.7,12.5 C247.3,12.6 246.9,12.8 246.5,13.2 C246.2,13.6 245.9,14 245.7,14.6 C245.5,15.1 245.4,15.7 245.4,16.2 C245.4,16.7 245.6,17.1 245.9,17.5 C246.2,17.9 246.5,18.1 246.9,18.3 C247.6,18.5 248.2,18.5 248.7,18.1 L248.4,18.8 L249.2,19.1 L252,11.7 L251.2,11.3 L251.2,11.3 Z M249.5,16.1 C249.3,16.8 248.9,17.2 248.5,17.4 C248.1,17.6 247.7,17.7 247.3,17.5 C246.9,17.4 246.6,17.1 246.5,16.6 C246.3,16.2 246.4,15.6 246.6,14.9 C246.9,14.2 247.2,13.7 247.6,13.5 C248,13.3 248.4,13.2 248.8,13.4 C249.2,13.6 249.5,13.9 249.6,14.3 C249.8,14.8 249.8,15.4 249.5,16.1 L249.5,16.1 L249.5,16.1 Z M258.6,16.4 L256.5,19.1 L255.8,20 L255.9,18.9 L256.3,15.5 L255.4,15.1 L253.4,17.9 C253,18.5 252.7,18.8 252.7,18.9 L252.8,17.6 L253.1,14.2 L252.2,13.8 L251.8,19.8 L252.7,20.2 L255.3,16.5 L255.2,17.5 L254.8,21 L255.7,21.4 L259.4,16.7 L258.6,16.4 L258.6,16.4 Z M230.6,5.7 C230.7,5.4 230.8,5 230.7,4.6 C230.6,4.2 230.4,3.9 230.2,3.6 C230,3.3 229.5,3.1 228.9,2.9 L226.1,1.9 L223.3,9.3 L226.1,10.4 C226.6,10.6 227,10.7 227.3,10.7 C227.7,10.7 228,10.7 228.2,10.6 C228.5,10.5 228.7,10.4 229,10.1 C229.3,9.9 229.5,9.6 229.6,9.2 C229.8,8.8 229.8,8.4 229.7,7.9 C229.6,7.5 229.3,7.1 228.9,6.8 C229.3,6.8 229.7,6.6 229.9,6.4 C230.3,6.3 230.5,6 230.6,5.7 L230.6,5.7 L230.6,5.7 Z M228.7,8.8 C228.6,9 228.5,9.2 228.3,9.4 C228.1,9.5 228,9.6 227.8,9.7 L227.2,9.7 C227.1,9.7 226.8,9.6 226.5,9.5 L224.7,8.8 L225.7,6.3 L227.4,6.9 C227.9,7.1 228.2,7.3 228.4,7.4 C228.6,7.6 228.8,7.8 228.8,8 C228.9,8.3 228.8,8.6 228.7,8.8 L228.7,8.8 L228.7,8.8 Z M229.6,5.5 C229.5,5.8 229.4,5.9 229.2,6.1 C229,6.2 228.8,6.3 228.5,6.3 C228.3,6.3 228,6.2 227.5,6 L226,5.3 L226.8,3.1 L228.3,3.7 C228.8,3.9 229.2,4.1 229.4,4.2 C229.6,4.3 229.7,4.5 229.8,4.8 C229.8,5 229.7,5.2 229.6,5.5 L229.6,5.5 L229.6,5.5 Z M235.9,8.6 C235.6,7.9 235.1,7.5 234.4,7.2 C233.7,7 233.1,6.9 232.5,7.2 C231.8,7.5 231.2,8.1 230.8,9.1 C230.5,10 230.4,10.8 230.7,11.4 C231,12.1 231.5,12.5 232.2,12.8 C232.7,13 233.1,13 233.6,13 C234.1,12.9 234.5,12.7 234.8,12.4 C235.2,12.1 235.5,11.6 235.7,10.9 C236.2,10 236.2,9.2 235.9,8.6 L235.9,8.6 L235.9,8.6 Z M234.9,10.5 C234.6,11.2 234.3,11.7 233.9,11.9 C233.5,12.1 233,12.2 232.6,12 C232.1,11.8 231.8,11.5 231.7,11.1 C231.5,10.6 231.6,10.1 231.8,9.4 C232.1,8.7 232.4,8.3 232.8,8 C233.2,7.8 233.7,7.7 234.1,7.9 C234.5,8.1 234.9,8.4 235,8.8 C235.2,9.3 235.2,9.9 234.9,10.5 L234.9,10.5 L234.9,10.5 Z M246.5,12 C246.3,11.7 246,11.5 245.7,11.4 C245.5,11.3 245.3,11.3 245.1,11.4 C244.9,11.5 244.6,11.6 244.2,11.9 L244.5,11.1 L243.7,10.8 L241.7,16.1 L242.6,16.4 L243.7,13.6 C243.8,13.2 244,12.9 244.2,12.6 C244.3,12.4 244.5,12.3 244.7,12.2 C244.9,12.1 245.1,12.1 245.3,12.2 C245.5,12.3 245.7,12.4 245.9,12.6 L246.5,12 L246.5,12 Z M264,19 C263.9,18.8 263.8,18.6 263.5,18.4 C263.3,18.2 262.9,18 262.5,17.8 C262,17.6 261.6,17.5 261.2,17.5 C260.8,17.5 260.5,17.6 260.2,17.7 C259.9,17.9 259.7,18.1 259.5,18.5 L260.3,19 C260.5,18.7 260.8,18.5 261,18.4 C261.2,18.3 261.6,18.4 262,18.5 C262.5,18.7 262.8,18.9 262.9,19.2 C263,19.4 263,19.7 262.9,20.1 C262.9,20.1 262.9,20.2 262.8,20.3 C262.4,20.3 261.8,20.2 261.1,20 C260.7,19.9 260.4,19.9 260.2,19.8 C259.9,19.8 259.7,19.8 259.4,19.9 C259.2,20 258.9,20.1 258.7,20.2 C258.5,20.4 258.3,20.6 258.3,20.8 C258.1,21.2 258.2,21.7 258.4,22.1 C258.6,22.5 259,22.8 259.6,23 C260,23.1 260.3,23.2 260.7,23.2 C261.1,23.2 261.5,23.1 261.9,23 C261.8,23.3 261.8,23.5 261.8,23.7 L262.7,24.1 L262.7,23.4 C262.7,23.2 262.9,22.6 263.2,21.8 L263.7,20.6 C263.9,20.2 263.9,19.9 264,19.7 C264.1,19.4 264.1,19.2 264,19 L264,19 L264,19 Z M262.5,21.3 C262.3,21.7 262.2,22 262,22.2 C261.8,22.4 261.5,22.6 261.2,22.6 C260.9,22.6 260.5,22.6 260.2,22.5 C259.8,22.4 259.6,22.2 259.5,22 C259.4,21.8 259.4,21.5 259.5,21.3 C259.6,21.1 259.7,21 259.8,20.9 C259.9,20.8 260.1,20.8 260.3,20.7 C260.5,20.7 260.8,20.7 261.2,20.8 C261.9,21 262.4,21 262.8,21 L262.5,21.3 L262.5,21.3 Z M241.7,10.6 C241.6,10.4 241.5,10.2 241.2,10 C241,9.8 240.6,9.6 240.1,9.4 C239.6,9.2 239.2,9.1 238.8,9.1 C238.4,9.1 238.1,9.2 237.8,9.3 C237.5,9.5 237.3,9.7 237.1,10.1 L237.9,10.6 C238.1,10.3 238.4,10.1 238.6,10 C238.9,9.9 239.2,10 239.6,10.1 C240.1,10.3 240.4,10.5 240.5,10.8 C240.6,11 240.6,11.3 240.5,11.7 C240.5,11.7 240.5,11.8 240.4,11.9 C240,11.9 239.4,11.8 238.7,11.6 C238.3,11.5 238,11.5 237.8,11.4 C237.5,11.4 237.3,11.4 237,11.5 C236.8,11.6 236.5,11.7 236.3,11.8 C236.1,12 235.9,12.2 235.9,12.5 C235.7,12.9 235.8,13.4 236,13.8 C236.2,14.2 236.6,14.5 237.2,14.7 C237.6,14.8 237.9,14.9 238.3,14.9 C238.7,14.9 239.1,14.8 239.5,14.7 C239.4,15 239.4,15.2 239.4,15.4 L240.3,15.8 L240.3,15.1 C240.3,14.9 240.5,14.3 240.8,13.5 L241.3,12.3 C241.5,11.9 241.5,11.6 241.6,11.4 C241.8,11 241.8,10.8 241.7,10.6 L241.7,10.6 L241.7,10.6 Z M240.2,12.9 C240.1,13.3 239.9,13.6 239.7,13.8 C239.5,14 239.2,14.2 238.9,14.2 C238.6,14.3 238.2,14.2 237.9,14.1 C237.5,14 237.3,13.8 237.2,13.6 C237.1,13.4 237.1,13.1 237.2,12.9 C237.3,12.7 237.4,12.6 237.5,12.5 C237.6,12.4 237.8,12.4 238,12.3 C238.2,12.3 238.5,12.3 238.9,12.4 C239.6,12.6 240.1,12.6 240.5,12.6 L240.2,12.9 L240.2,12.9 Z M273.5,28.3 L274.2,28.6 L279.2,21.8 L278.5,21.5 L273.5,28.3 L273.5,28.3 Z M322.3,41.1 C322,40.4 321.5,40 320.8,39.7 C320.1,39.5 319.5,39.4 318.9,39.7 C318.2,40 317.6,40.6 317.2,41.6 C316.9,42.5 316.8,43.3 317.1,43.9 C317.4,44.6 317.9,45 318.6,45.3 C319.1,45.5 319.5,45.5 320,45.5 C320.5,45.4 320.9,45.2 321.2,44.9 C321.6,44.6 321.9,44.1 322.1,43.4 C322.6,42.5 322.6,41.7 322.3,41.1 L322.3,41.1 L322.3,41.1 Z M321.3,43 C321,43.7 320.7,44.2 320.3,44.4 C319.9,44.6 319.4,44.7 319,44.5 C318.5,44.3 318.2,44 318.1,43.6 C317.9,43.1 318,42.6 318.2,41.9 C318.5,41.2 318.8,40.8 319.2,40.5 C319.6,40.3 320.1,40.2 320.5,40.4 C320.9,40.6 321.3,40.9 321.4,41.3 C321.6,41.8 321.5,42.4 321.3,43 L321.3,43 L321.3,43 Z M318,39 C317.8,38.7 317.5,38.5 317.2,38.4 C317,38.3 316.8,38.3 316.6,38.4 C316.4,38.5 316.1,38.6 315.7,38.9 L316,38.1 L315.2,37.8 L313.2,43.1 L314.1,43.4 L315.2,40.6 C315.3,40.2 315.5,39.9 315.7,39.6 C315.8,39.4 316,39.3 316.2,39.2 C316.4,39.1 316.6,39.1 316.8,39.2 C317,39.3 317.2,39.4 317.4,39.6 L318,39 L318,39 Z M310.4,34.6 L314.4,36.1 L314.7,35.2 L309.7,33.3 L306.9,40.7 L307.9,41.1 L309.2,37.8 L312.7,39.1 L313,38.2 L309.5,36.9 L310.4,34.6 L310.4,34.6 Z M327.7,42.5 C327.5,42.3 327.2,42.1 326.9,42 C326.2,41.7 325.5,41.8 324.9,42.2 L325.2,41.4 L324.4,41.1 L322.4,46.4 L323.3,46.7 L324.4,43.8 C324.7,43.1 325,42.7 325.3,42.6 C325.6,42.5 326.1,42.5 326.4,42.6 C326.6,42.7 326.8,42.8 327,43 C327.1,43.2 327.2,43.4 327.2,43.6 C327.2,43.8 327.1,44.1 327,44.5 L325.8,47.7 L326.7,48 L327.9,44.7 C328.1,44.3 328.2,44 328.2,43.8 L328.2,43 C328,42.9 327.9,42.7 327.7,42.5 L327.7,42.5 L327.7,42.5 Z M331.1,43.7 L331.8,41.8 L330.7,42 L330.2,43.3 L329.5,43.1 L329.2,43.8 L329.9,44 L328.7,47.1 C328.5,47.6 328.4,48 328.4,48.2 C328.4,48.4 328.5,48.6 328.6,48.8 C328.7,49 329,49.1 329.3,49.2 C329.5,49.3 329.7,49.3 330,49.4 L330.2,48.6 C330,48.6 329.9,48.5 329.8,48.5 C329.7,48.4 329.6,48.4 329.5,48.3 C329.4,48.2 329.4,48.2 329.4,48.1 C329.4,48 329.4,47.8 329.5,47.6 L330.7,44.5 L331.6,44.8 L332,44 L331.1,43.7 L331.1,43.7 Z M304.6,33.6 C304.4,33.5 304.2,33.5 304,33.6 C303.8,33.7 303.5,33.8 303.1,34.1 L303.4,33.3 L302.6,33 L300.6,38.3 L301.5,38.6 L302.6,35.8 C302.7,35.4 302.9,35.1 303.1,34.8 C303.2,34.6 303.4,34.5 303.6,34.4 C303.8,34.3 304,34.3 304.2,34.4 C304.4,34.5 304.6,34.6 304.8,34.8 L305.4,34.1 C305.1,33.9 304.9,33.7 304.6,33.6 L304.6,33.6 L304.6,33.6 Z M287.4,33.3 L288.3,33.6 L290.3,28.3 L289.4,28 L287.4,33.3 L287.4,33.3 Z M287,28.6 C287.5,28.4 287.8,28 288,27.5 C288.2,27.1 288.2,26.7 288.1,26.3 C288,25.9 287.8,25.6 287.5,25.3 C287.2,25 286.7,24.8 286.1,24.5 L282.8,23.3 L280,30.7 L281,31.1 L282.2,27.8 L283.3,28.2 C283.6,28.3 283.7,28.4 283.8,28.4 C283.9,28.5 284.1,28.6 284.2,28.8 C284.3,28.9 284.4,29.2 284.5,29.5 C284.6,29.8 284.7,30.2 284.8,30.8 L285.2,32.7 L286.4,33.2 L285.9,30.7 C285.8,30.2 285.6,29.8 285.5,29.4 C285.4,29.2 285.3,29 285,28.8 C285.9,28.9 286.5,28.8 287,28.6 L287,28.6 L287,28.6 Z M284.7,27.6 L282.6,26.8 L283.5,24.4 L285.8,25.3 C286.3,25.5 286.7,25.8 286.9,26.1 C287.1,26.4 287.1,26.8 287,27.1 C286.9,27.3 286.8,27.5 286.6,27.7 C286.4,27.9 286.1,27.9 285.9,27.9 C285.5,27.9 285.1,27.8 284.7,27.6 L284.7,27.6 L284.7,27.6 Z M266.7,17.1 L263.9,24.5 L264.8,24.8 L267.6,17.4 L266.7,17.1 L266.7,17.1 Z M271.3,21.2 L268.3,22.6 L269.9,18.4 L269,18 L266.2,25.4 L267.1,25.7 L267.9,23.6 L268.8,23.2 L269.5,26.6 L270.6,27 L269.6,22.8 L272.4,21.6 L271.3,21.2 L271.3,21.2 Z M295.1,30.2 L292.7,33 C292.4,33.3 292.2,33.6 292,33.9 C292,33.5 292.1,33.1 292.1,32.7 L292.2,29.1 L291.2,28.7 L291.2,34.8 L292,35.1 L296,30.5 L295.1,30.2 L295.1,30.2 Z M300.5,32.9 C300.2,32.2 299.7,31.8 299,31.5 C298.3,31.2 297.6,31.2 296.9,31.6 C296.3,31.9 295.8,32.5 295.4,33.4 C295.1,34.3 295,35 295.3,35.7 C295.6,36.4 296.1,36.8 296.9,37.1 C297.5,37.3 298.1,37.4 298.6,37.2 C299.1,37 299.5,36.7 299.9,36.2 L299,35.7 C298.7,36 298.4,36.2 298.1,36.3 C297.8,36.4 297.5,36.4 297.2,36.2 C296.8,36 296.4,35.7 296.3,35.3 C296.1,34.9 296.1,34.4 296.3,33.8 L300.3,35.3 C300.3,35.2 300.4,35.1 300.4,35.1 C300.8,34.3 300.8,33.6 300.5,32.9 L300.5,32.9 L300.5,32.9 Z M299.7,34.3 L296.7,33.2 C296.9,32.7 297.2,32.4 297.6,32.3 C298,32.1 298.4,32.1 298.8,32.3 C299.3,32.5 299.6,32.8 299.7,33.2 C299.8,33.5 299.8,33.9 299.7,34.3 L299.7,34.3 L299.7,34.3 Z M289.8,27 L290.7,27.3 L291.1,26.3 L290.2,26 L289.8,27 L289.8,27 Z M289.8,27" class="Shape"/>
            <path d="M65.3,67.6 L71,71 L65,74 L65.3,67.6 L65.3,67.6 Z M65.3,67.6" class="Shape"/>
            <path d="M437.3,140.7 L436.4,140.4 L436.1,141.5 L437,141.8 L437.3,140.7 L437.3,140.7 Z M399.9,137.3 L400.9,137.6 L403,131 L405.5,131.8 L405.8,130.9 L399.8,129 L399.5,129.9 L402,130.7 L399.9,137.3 L399.9,137.3 Z M406,147.1 C405.7,146.9 405.4,146.7 404.9,146.6 C404.4,146.5 404,146.4 403.6,146.4 C403.2,146.4 402.9,146.5 402.6,146.7 C402.3,146.9 402.1,147.1 401.9,147.5 L402.8,147.9 C403,147.5 403.3,147.3 403.5,147.2 C403.8,147.1 404.1,147.1 404.5,147.3 C405,147.4 405.3,147.7 405.5,147.9 C405.6,148.1 405.6,148.4 405.5,148.8 C405.5,148.8 405.5,148.9 405.4,149 C405,149 404.4,148.9 403.7,148.8 C403.3,148.7 403,148.7 402.8,148.7 C402.5,148.7 402.3,148.7 402,148.8 C401.8,148.9 401.5,149 401.4,149.2 C401.2,149.4 401.1,149.6 401,149.9 C400.9,150.4 400.9,150.8 401.1,151.2 C401.3,151.6 401.7,151.9 402.3,152.1 C402.7,152.2 403,152.3 403.4,152.2 C403.8,152.1 404.1,152.1 404.6,151.9 C404.5,152.2 404.5,152.4 404.6,152.6 L405.6,152.9 C405.5,152.7 405.5,152.4 405.6,152.2 C405.6,152 405.8,151.4 406,150.6 L406.4,149.4 C406.5,149 406.6,148.7 406.6,148.5 C406.6,148.2 406.6,148 406.5,147.8 C406.5,147.5 406.3,147.3 406,147.1 L406,147.1 L406,147.1 Z M405.1,150.1 C405,150.5 404.8,150.8 404.7,151 C404.5,151.2 404.2,151.4 403.9,151.4 C403.6,151.5 403.2,151.4 402.9,151.3 C402.5,151.2 402.3,151 402.2,150.8 C402.1,150.6 402,150.3 402.1,150.1 C402.1,149.9 402.2,149.8 402.4,149.7 C402.5,149.6 402.7,149.5 402.9,149.5 C403.1,149.5 403.4,149.5 403.8,149.6 C404.5,149.7 405,149.8 405.4,149.7 L405.1,150.1 L405.1,150.1 Z M401.5,144.7 C401.4,144.3 401.3,144 401.1,143.8 C400.9,143.6 400.6,143.3 400.3,143.2 C400.1,143.1 399.7,142.9 399.2,142.8 L396.4,141.9 L394.1,149.4 L395.1,149.7 L396.1,146.6 L398,147.2 C399.1,147.5 399.9,147.5 400.4,147.2 C400.9,146.9 401.3,146.4 401.5,145.8 C401.5,145.4 401.6,145 401.5,144.7 L401.5,144.7 L401.5,144.7 Z M400.4,145.5 C400.3,145.9 400,146.2 399.7,146.4 C399.4,146.6 398.9,146.5 398.2,146.3 L396.3,145.7 L397.1,143 L399,143.6 C399.5,143.7 399.8,143.9 399.9,144 C400.1,144.2 400.3,144.4 400.4,144.6 C400.5,144.9 400.5,145.2 400.4,145.5 L400.4,145.5 L400.4,145.5 Z M408.7,137 C409,136.1 408.9,135.4 408.6,134.7 C408.3,134.1 407.7,133.6 407,133.4 C406.3,133.2 405.7,133.2 405.1,133.5 C404.4,133.8 403.9,134.5 403.6,135.5 C403.3,136.4 403.3,137.2 403.6,137.8 C403.9,138.4 404.5,138.9 405.2,139.1 C405.7,139.2 406.1,139.3 406.6,139.2 C407.1,139.1 407.5,138.9 407.8,138.6 C408.2,138.2 408.5,137.7 408.7,137 L408.7,137 L408.7,137 Z M406.8,138.2 C406.4,138.5 406,138.5 405.5,138.4 C405,138.3 404.7,138 404.5,137.5 C404.3,137.1 404.3,136.5 404.5,135.8 C404.7,135.1 405,134.6 405.4,134.4 C405.8,134.1 406.3,134.1 406.7,134.2 C407.2,134.3 407.5,134.6 407.7,135.1 C407.9,135.5 407.9,136.1 407.7,136.8 C407.5,137.5 407.2,137.9 406.8,138.2 L406.8,138.2 L406.8,138.2 Z M411.3,148.9 C411,148.6 410.8,148.4 410.4,148.3 C410.2,148.2 410,148.2 409.8,148.3 C409.6,148.4 409.3,148.6 409,148.9 L409.3,148.1 L408.5,147.8 L406.8,153.2 L407.7,153.5 L408.6,150.6 C408.7,150.2 408.9,149.9 409.1,149.6 C409.2,149.4 409.4,149.3 409.6,149.2 C409.8,149.1 410,149.1 410.2,149.2 C410.4,149.3 410.6,149.4 410.8,149.6 L411.3,148.9 L411.3,148.9 Z M435.7,142.5 L434,147.9 L434.9,148.2 L436.6,142.8 L435.7,142.5 L435.7,142.5 Z M433.3,141.8 C433,141.6 432.7,141.4 432.2,141.3 C431.7,141.2 431.3,141.1 430.9,141.1 C430.5,141.1 430.2,141.2 429.9,141.4 C429.6,141.6 429.4,141.8 429.2,142.2 L430.1,142.6 C430.3,142.2 430.6,142 430.8,141.9 C431.1,141.8 431.4,141.8 431.8,142 C432.3,142.1 432.6,142.4 432.8,142.6 C432.9,142.8 432.9,143.1 432.8,143.5 C432.8,143.5 432.8,143.6 432.7,143.7 C432.3,143.7 431.7,143.6 431,143.5 C430.6,143.4 430.3,143.4 430.1,143.4 C429.8,143.4 429.6,143.4 429.3,143.5 C429.1,143.6 428.8,143.7 428.7,143.9 C428.5,144.1 428.4,144.3 428.3,144.6 C428.2,145.1 428.2,145.5 428.4,145.9 C428.6,146.3 429,146.6 429.6,146.8 C430,146.9 430.3,147 430.7,146.9 C431.1,146.9 431.4,146.8 431.9,146.6 C431.8,146.9 431.8,147.1 431.9,147.3 L432.9,147.6 C432.8,147.4 432.8,147.1 432.9,146.9 C432.9,146.7 433.1,146.1 433.3,145.3 L433.7,144.1 C433.8,143.7 433.9,143.4 433.9,143.2 C433.9,142.9 433.9,142.7 433.8,142.5 C433.7,142.2 433.6,142 433.3,141.8 L433.3,141.8 L433.3,141.8 Z M432.4,144.8 C432.3,145.2 432.1,145.5 432,145.7 C431.8,145.9 431.5,146.1 431.2,146.1 C430.9,146.2 430.5,146.1 430.2,146 C429.8,145.9 429.6,145.7 429.5,145.5 C429.4,145.3 429.3,145 429.4,144.8 C429.5,144.6 429.5,144.5 429.7,144.4 C429.8,144.3 430,144.2 430.2,144.2 C430.4,144.2 430.7,144.2 431.1,144.3 C431.8,144.4 432.3,144.5 432.7,144.4 L432.4,144.8 L432.4,144.8 Z M438.7,141.1 L436.4,148.6 L437.3,148.9 L439.6,141.4 L438.7,141.1 L438.7,141.1 Z M427.8,140.8 L428.7,141.1 L428.9,140.4 L428,140.1 L428.6,138.2 L427.5,138.5 L427.1,139.8 L426.4,139.6 L426.2,140.3 L426.9,140.5 L425.9,143.6 C425.7,144.2 425.7,144.5 425.7,144.7 C425.7,144.9 425.8,145.1 426,145.2 C426.2,145.4 426.4,145.5 426.7,145.6 C426.9,145.7 427.1,145.7 427.4,145.7 L427.5,144.8 C427.3,144.8 427.2,144.7 427.1,144.7 C427,144.7 426.9,144.6 426.8,144.5 C426.7,144.4 426.7,144.4 426.7,144.3 C426.7,144.2 426.7,144 426.8,143.8 L427.8,140.8 L427.8,140.8 Z M419.7,136.2 C419.6,135.8 419.4,135.5 419.1,135.2 C418.8,135 418.3,134.7 417.6,134.5 L414.3,133.5 L412,141 L413,141.3 L414,138 L415.2,138.4 C415.5,138.5 415.6,138.5 415.7,138.6 C415.8,138.7 416,138.8 416.1,138.9 C416.2,139 416.3,139.3 416.4,139.6 C416.5,139.9 416.6,140.3 416.8,140.9 L417.3,142.8 L418.6,143.2 L417.9,140.7 C417.8,140.2 417.6,139.8 417.4,139.4 C417.3,139.2 417.1,139 416.9,138.8 C417.7,138.9 418.3,138.9 418.7,138.6 C419.2,138.3 419.5,137.9 419.6,137.4 C419.8,137.1 419.8,136.7 419.7,136.2 L419.7,136.2 L419.7,136.2 Z M418.7,137.2 C418.6,137.4 418.5,137.6 418.3,137.8 C418.1,138 417.9,138.1 417.6,138.1 C417.3,138.1 416.9,138.1 416.5,137.9 L414.4,137.2 L415.2,134.7 L417.6,135.4 C418.2,135.6 418.5,135.8 418.7,136.1 C418.7,136.5 418.8,136.8 418.7,137.2 L418.7,137.2 L418.7,137.2 Z M423.4,138.5 C422.6,138.3 422,138.3 421.3,138.7 C420.7,139.1 420.2,139.7 419.9,140.6 C419.6,141.5 419.6,142.2 420,142.9 C420.3,143.5 420.9,144 421.7,144.2 C422.3,144.4 422.9,144.4 423.4,144.2 C423.9,144 424.3,143.7 424.6,143.2 L423.7,142.8 C423.4,143.1 423.2,143.4 422.9,143.5 C422.6,143.6 422.3,143.6 421.9,143.5 C421.4,143.4 421.1,143.1 420.9,142.7 C420.7,142.3 420.7,141.8 420.8,141.2 L424.9,142.5 C424.9,142.4 425,142.3 425,142.3 C425.3,141.4 425.3,140.6 425,140 C424.6,139.2 424.1,138.7 423.4,138.5 L423.4,138.5 L423.4,138.5 Z M424.2,141.3 L421.2,140.4 C421.4,139.9 421.7,139.6 422,139.4 C422.4,139.2 422.8,139.2 423.2,139.3 C423.7,139.4 424,139.7 424.2,140.2 C424.3,140.5 424.3,140.8 424.2,141.3 L424.2,141.3 L424.2,141.3 Z M415.1,149.9 L412.2,151.4 L413.5,147.1 L412.6,146.8 L410.3,154.3 L411.2,154.6 L411.9,152.4 L412.7,152 L413.6,155.3 L414.7,155.7 L413.5,151.6 L416.2,150.2 L415.1,149.9 L415.1,149.9 Z M415.1,149.9" class="Shape"/>
            <path d="M356.8,44.7 L356,47.4 C355.9,47.1 355.7,46.9 355.5,46.7 C355.3,46.5 355,46.3 354.7,46.2 C354.2,46.1 353.8,46.1 353.4,46.2 C353,46.3 352.6,46.6 352.3,47 C352,47.4 351.8,47.9 351.6,48.4 C351.4,49 351.4,49.5 351.5,50 C351.6,50.5 351.8,50.9 352.1,51.2 C352.4,51.5 352.8,51.8 353.2,51.9 C353.9,52.1 354.5,52 355,51.5 L354.8,52.2 L355.7,52.4 L357.8,44.8 L356.8,44.7 L356.8,44.7 Z M355.5,49.6 C355.3,50.3 355,50.8 354.6,51 C354.2,51.3 353.8,51.3 353.4,51.2 C353,51.1 352.7,50.8 352.5,50.4 C352.3,50 352.3,49.4 352.5,48.7 C352.7,48 353,47.5 353.4,47.2 C353.8,46.9 354.2,46.9 354.6,47 C355,47.1 355.3,47.4 355.5,47.8 C355.8,48.3 355.7,48.8 355.5,49.6 L355.5,49.6 L355.5,49.6 Z M361.6,48.3 C361.3,48.1 360.9,47.9 360.5,47.8 C360.2,47.7 359.9,47.7 359.7,47.7 C359.4,47.7 359.2,47.7 359,47.8 C358.8,47.9 358.6,48 358.4,48.2 C358.2,48.4 358.1,48.6 358,48.8 C357.9,49.1 357.9,49.3 358,49.6 C358.1,49.9 358.2,50.1 358.5,50.3 C358.7,50.5 359.2,50.8 359.8,51.1 C360.3,51.4 360.6,51.6 360.7,51.7 C360.8,51.9 360.9,52.1 360.8,52.3 C360.7,52.5 360.6,52.7 360.3,52.8 C360,52.9 359.7,52.9 359.3,52.8 C358.9,52.7 358.6,52.5 358.4,52.2 C358.2,51.9 358.2,51.6 358.2,51.2 L357.2,51.1 C357.1,51.7 357.3,52.2 357.5,52.6 C357.7,53 358.3,53.3 359,53.5 C359.4,53.6 359.8,53.7 360.2,53.6 C360.6,53.5 360.9,53.4 361.2,53.2 C361.5,53 361.6,52.7 361.7,52.4 C361.8,52.1 361.8,51.8 361.7,51.5 C361.6,51.2 361.5,51 361.2,50.8 C361,50.6 360.6,50.3 359.9,50 C359.5,49.7 359.2,49.6 359.1,49.5 L358.8,49.2 C358.8,49.1 358.7,49 358.8,48.8 C358.9,48.6 359,48.5 359.2,48.4 C359.4,48.3 359.7,48.3 360.2,48.4 C360.6,48.5 360.8,48.7 361,48.9 C361.2,49.1 361.2,49.4 361.2,49.7 L362.1,49.8 C362.1,49.4 362.1,49.1 362,48.9 C362,48.7 361.9,48.5 361.6,48.3 L361.6,48.3 L361.6,48.3 Z M348.9,50.6 L349.8,50.9 L351.3,45.4 L350.4,45.1 L348.9,50.6 L348.9,50.6 Z M350.1,42.8 L348.7,42.4 L343.9,45.1 L344.9,41.3 L343.9,41 L341.8,48.6 L342.8,48.9 L343.5,46.3 L345.1,45.4 L346.7,50 L348,50.4 L345.9,45 L350.1,42.8 L350.1,42.8 Z M351.9,43.3 L351,43 L350.7,44.1 L351.6,44.4 L351.9,43.3 L351.9,43.3 Z M383.7,57.9 C383.4,58.3 383.2,58.6 383,59 L383,57.6 L382.7,54.1 L381.7,53.8 L382.3,59.9 C382.2,60 382.2,60.1 382.2,60.1 C382,60.4 381.8,60.6 381.7,60.7 C381.6,60.8 381.5,60.9 381.3,60.9 L380.8,60.9 C380.6,60.9 380.5,60.8 380.3,60.7 L380.2,61.6 L380.8,61.9 C381.1,62 381.4,62 381.6,61.9 C381.9,61.8 382.1,61.6 382.4,61.4 C382.6,61.2 382.9,60.8 383.3,60.3 L386.9,55.3 L386,55 L383.7,57.9 L383.7,57.9 Z M399.8,59.1 C399.5,58.8 399.2,58.6 398.9,58.5 C398.7,58.4 398.5,58.4 398.3,58.5 C398.1,58.6 397.8,58.8 397.5,59.1 L397.7,58.3 L396.9,58.1 L395.4,63.6 L396.3,63.9 L397.1,61 C397.2,60.6 397.4,60.3 397.6,60 C397.7,59.8 397.9,59.7 398.1,59.6 C398.3,59.5 398.5,59.5 398.7,59.6 C398.9,59.7 399.1,59.8 399.3,60 L399.8,59.1 L399.8,59.1 Z M372.8,50.4 C372.7,50 372.6,49.7 372.4,49.5 C372.2,49.3 371.9,49.1 371.6,48.9 C371.3,48.8 371,48.6 370.5,48.5 L367.6,47.7 L365.5,55.3 L366.5,55.6 L367.4,52.5 L369.3,53 C370.4,53.3 371.2,53.3 371.7,53 C372.2,52.7 372.6,52.2 372.8,51.5 C372.9,51.1 372.9,50.7 372.8,50.4 L372.8,50.4 L372.8,50.4 Z M371.7,51.2 C371.6,51.6 371.3,51.9 371,52.1 C370.7,52.3 370.2,52.3 369.5,52.1 L367.5,51.6 L368.3,48.9 L370.2,49.4 C370.7,49.5 371,49.6 371.1,49.7 C371.3,49.8 371.5,50.1 371.6,50.3 C371.8,50.6 371.8,50.9 371.7,51.2 L371.7,51.2 L371.7,51.2 Z M410.3,62.3 C410.2,62.1 410,61.9 409.8,61.7 C409.5,61.5 409.2,61.3 408.7,61.2 C408.2,61.1 407.8,61 407.4,61 C407,61 406.7,61.1 406.4,61.3 C406.1,61.5 405.9,61.8 405.7,62.1 L406.6,62.5 C406.8,62.1 407,61.9 407.3,61.8 C407.6,61.7 407.9,61.7 408.3,61.8 C408.8,61.9 409.1,62.1 409.3,62.4 C409.4,62.6 409.4,62.9 409.3,63.3 C409.3,63.3 409.3,63.4 409.2,63.5 C408.8,63.5 408.2,63.5 407.4,63.4 C407,63.3 406.7,63.3 406.5,63.3 C406.2,63.3 406,63.3 405.7,63.4 C405.5,63.5 405.3,63.6 405.1,63.8 C404.9,64 404.8,64.2 404.7,64.5 C404.6,65 404.6,65.4 404.9,65.8 C405.2,66.2 405.6,66.5 406.2,66.6 C406.6,66.7 406.9,66.7 407.3,66.7 C407.7,66.7 408,66.6 408.5,66.4 L408.5,67.1 L409.5,67.4 C409.4,67.2 409.4,66.9 409.4,66.7 C409.4,66.5 409.6,65.9 409.8,65 L410.1,63.8 C410.2,63.4 410.3,63.1 410.3,62.9 C410.5,62.8 410.4,62.5 410.3,62.3 L410.3,62.3 L410.3,62.3 Z M409,64.8 C408.9,65.2 408.7,65.5 408.6,65.7 C408.4,65.9 408.1,66.1 407.8,66.2 C407.5,66.3 407.1,66.3 406.8,66.2 C406.4,66.1 406.2,65.9 406,65.7 C405.9,65.5 405.8,65.2 405.9,65 C405.9,64.8 406,64.7 406.2,64.6 C406.3,64.5 406.5,64.4 406.7,64.4 L407.6,64.4 C408.3,64.5 408.8,64.5 409.2,64.5 L409,64.8 L409,64.8 Z M402.7,59.6 C401.9,59.4 401.3,59.5 400.6,59.8 C400,60.2 399.5,60.8 399.3,61.8 C399.1,62.7 399.1,63.5 399.4,64.1 C399.7,64.7 400.3,65.2 401.1,65.4 C401.7,65.6 402.3,65.6 402.8,65.4 C403.3,65.2 403.7,64.8 404,64.3 L403.1,63.9 C402.8,64.3 402.6,64.5 402.3,64.6 C402,64.7 401.7,64.7 401.3,64.6 C400.8,64.5 400.5,64.2 400.3,63.8 C400.1,63.4 400,62.9 400.2,62.3 L404.3,63.4 C404.3,63.3 404.4,63.2 404.4,63.2 C404.7,62.3 404.6,61.5 404.3,60.9 C404,60.2 403.5,59.8 402.7,59.6 L402.7,59.6 L402.7,59.6 Z M403.6,62.3 L400.5,61.4 C400.7,60.9 400.9,60.6 401.3,60.4 C401.7,60.2 402.1,60.2 402.5,60.3 C403,60.4 403.3,60.7 403.5,61.2 C403.7,61.5 403.7,61.9 403.6,62.3 L403.6,62.3 L403.6,62.3 Z M392.6,54.6 L387.6,61.4 L388.7,61.7 L390.2,59.6 L393.4,60.5 L393.6,63 L394.7,63.3 L393.7,54.8 L392.6,54.6 L392.6,54.6 Z M390.7,58.9 L392.2,56.9 C392.5,56.5 392.8,56 393,55.6 C393,56 393,56.6 393.1,57.3 L393.3,59.6 L390.7,58.9 L390.7,58.9 Z M374.5,49.6 L372.4,57.2 L373.3,57.5 L375.4,49.9 L374.5,49.6 L374.5,49.6 Z M379.9,56.8 L380.2,55.6 C380.3,55.2 380.4,54.9 380.4,54.7 C380.4,54.4 380.4,54.2 380.3,54 C380.2,53.8 380,53.6 379.8,53.4 C379.5,53.2 379.2,53 378.7,52.9 C378.2,52.8 377.8,52.7 377.4,52.7 C377,52.7 376.7,52.8 376.4,53 C376.1,53.2 375.9,53.5 375.7,53.8 L376.6,54.2 C376.8,53.8 377,53.6 377.3,53.5 C377.6,53.4 377.9,53.4 378.3,53.5 C378.8,53.6 379.1,53.8 379.3,54.1 C379.4,54.3 379.4,54.6 379.3,55 C379.3,55 379.3,55.1 379.2,55.2 C378.8,55.2 378.2,55.2 377.4,55.1 C377,55 376.7,55 376.5,55 C376.2,55 376,55 375.7,55.1 C375.5,55.2 375.3,55.3 375.1,55.5 C374.9,55.7 374.8,55.9 374.7,56.2 C374.6,56.7 374.6,57.1 374.9,57.5 C375.1,57.9 375.6,58.2 376.2,58.3 C376.6,58.4 376.9,58.4 377.3,58.4 C377.7,58.4 378,58.3 378.5,58.1 L378.5,58.8 L379.5,59.1 C379.4,58.9 379.4,58.6 379.4,58.4 C379.5,58.2 379.6,57.6 379.9,56.8 L379.9,56.8 L379.9,56.8 Z M379,56.4 C378.9,56.8 378.7,57.1 378.6,57.3 C378.4,57.5 378.1,57.7 377.8,57.8 C377.5,57.9 377.1,57.9 376.8,57.8 C376.4,57.7 376.2,57.5 376,57.3 C375.9,57.1 375.8,56.8 375.9,56.6 C375.9,56.4 376,56.3 376.2,56.2 C376.3,56.1 376.5,56 376.7,56 L377.6,56 C378.3,56.1 378.8,56.1 379.2,56.1 L379,56.4 L379,56.4 Z M379,56.4" class="Shape"/>
            <path d="M29.2,69.2 C28.4,69.2 27.8,69.5 27.3,70 C26.8,70.5 26.6,71.3 26.6,72.2 C26.6,73.1 26.8,73.8 27.3,74.4 C27.8,74.9 28.4,75.2 29.3,75.2 C30,75.2 30.5,75 30.9,74.7 C31.3,74.4 31.6,73.9 31.8,73.3 L30.8,73.2 C30.7,73.6 30.5,73.9 30.2,74.1 C29.9,74.3 29.6,74.4 29.3,74.4 C28.8,74.4 28.4,74.2 28.1,73.9 C27.8,73.6 27.6,73.1 27.6,72.5 L31.9,72.5 L31.9,72.2 C31.9,71.3 31.7,70.5 31.2,70 C30.7,69.5 30,69.2 29.2,69.2 L29.2,69.2 L29.2,69.2 Z M27.6,71.6 C27.6,71.1 27.8,70.7 28.1,70.4 C28.4,70.1 28.8,70 29.2,70 C29.7,70 30.1,70.2 30.4,70.6 C30.6,70.8 30.7,71.2 30.8,71.7 L27.6,71.6 L27.6,71.6 Z M59.9,75 L60.9,75 L60.9,67.1 L59.9,67.1 L59.9,75 L59.9,75 Z M36.5,72 C36.2,71.9 35.8,71.7 35.1,71.6 C34.6,71.5 34.3,71.4 34.2,71.4 C34,71.3 33.9,71.2 33.8,71.1 C33.7,71 33.7,70.9 33.7,70.8 C33.7,70.6 33.8,70.4 34,70.3 C34.2,70.2 34.5,70.1 35,70.1 C35.4,70.1 35.7,70.2 35.9,70.3 C36.1,70.5 36.2,70.7 36.3,71 L37.2,70.9 C37.1,70.5 37,70.2 36.9,70 C36.7,69.8 36.5,69.6 36.1,69.5 C35.8,69.4 35.4,69.3 34.9,69.3 C34.6,69.3 34.3,69.3 34.1,69.4 C33.8,69.5 33.6,69.6 33.5,69.7 C33.3,69.8 33.1,70 33,70.2 C32.9,70.4 32.8,70.7 32.8,70.9 C32.8,71.2 32.9,71.4 33,71.7 C33.1,71.9 33.3,72.1 33.6,72.2 C33.9,72.3 34.4,72.5 35.1,72.7 C35.6,72.8 36,72.9 36.1,73 C36.3,73.1 36.4,73.3 36.4,73.5 C36.4,73.7 36.3,74 36.1,74.1 C35.9,74.3 35.6,74.4 35.1,74.4 C34.7,74.4 34.3,74.3 34.1,74.1 C33.9,73.9 33.7,73.6 33.7,73.2 L32.7,73.3 C32.8,73.9 33.1,74.4 33.4,74.7 C33.8,75 34.4,75.2 35.1,75.2 C35.5,75.2 35.9,75.1 36.3,75 C36.7,74.8 36.9,74.6 37.1,74.3 C37.3,74 37.4,73.7 37.4,73.4 C37.4,73.1 37.3,72.8 37.2,72.6 C37.1,72.4 36.8,72.1 36.5,72 L36.5,72 L36.5,72 Z M24,72.2 C23.8,72.8 23.7,73.4 23.6,73.9 C23.5,73 23.3,72.1 23,71.1 L21.9,67.1 L20.6,67.1 L19.1,72.4 C19.1,72.5 18.9,73 18.7,73.9 C18.6,73.4 18.5,72.8 18.4,72.3 L17.2,67.1 L16.1,67.1 L18.2,75 L19.3,75 L21,69 C21.1,68.7 21.1,68.4 21.2,68.1 C21.2,68.2 21.3,68.5 21.4,69 L23.1,75 L24.1,75 L26.3,67.1 L25.3,67.1 L24,72.2 L24,72.2 Z M62.3,67.1 L62.3,75 L63.3,75 L63.3,67.1 L62.3,67.1 L62.3,67.1 Z M40.2,74.2 C40.1,74.2 39.9,74.2 39.9,74.1 C39.8,74.1 39.8,74 39.7,73.9 C39.6,73.8 39.6,73.6 39.6,73.4 L39.6,70 L40.6,70 L40.6,69.2 L39.6,69.2 L39.6,67.2 L38.6,67.8 L38.6,69.2 L38,69.2 L38,70 L38.7,70 L38.7,73.3 C38.7,73.9 38.7,74.3 38.8,74.4 C38.9,74.6 39,74.7 39.2,74.8 C39.4,74.9 39.7,75 40,75 C40.2,75 40.5,75 40.7,74.9 L40.6,74 C40.5,74.2 40.3,74.2 40.2,74.2 L40.2,74.2 L40.2,74.2 Z M58.4,72.6 L58.4,71.3 L58.4,70.4 C58.3,70.1 58.2,69.9 58.1,69.7 C58,69.5 57.7,69.4 57.4,69.3 C57.1,69.2 56.7,69.1 56.2,69.1 C55.7,69.1 55.3,69.2 54.9,69.3 C54.5,69.4 54.2,69.6 54,69.9 C53.8,70.1 53.7,70.5 53.6,70.9 L54.5,71 C54.6,70.6 54.8,70.3 55,70.2 C55.2,70 55.6,70 56,70 C56.5,70 56.9,70.1 57.1,70.3 C57.3,70.5 57.4,70.7 57.4,71.1 L57.4,71.4 C57,71.5 56.5,71.6 55.7,71.7 C55.3,71.7 55,71.8 54.8,71.8 C54.5,71.9 54.3,72 54.1,72.1 C53.9,72.2 53.7,72.4 53.6,72.7 C53.5,72.9 53.4,73.2 53.4,73.5 C53.4,74 53.6,74.4 53.9,74.7 C54.2,75 54.7,75.2 55.3,75.2 C55.7,75.2 56,75.1 56.4,75 C56.7,74.9 57.1,74.7 57.4,74.4 C57.4,74.7 57.5,74.9 57.6,75.1 L58.6,75.1 C58.5,74.9 58.4,74.7 58.4,74.4 L58.4,72.6 L58.4,72.6 L58.4,72.6 Z M57.4,72.5 C57.4,72.9 57.3,73.2 57.2,73.5 C57.1,73.8 56.9,74 56.6,74.2 C56.3,74.4 56,74.4 55.6,74.4 C55.2,74.4 54.9,74.3 54.7,74.1 C54.5,73.9 54.4,73.7 54.4,73.5 C54.4,73.3 54.4,73.2 54.5,73 C54.6,72.8 54.7,72.8 54.9,72.7 C55.1,72.6 55.3,72.6 55.7,72.5 C56.4,72.4 56.9,72.3 57.3,72.1 L57.4,72.5 L57.4,72.5 Z M49,72.6 C48.8,73.2 48.7,73.6 48.6,73.9 L48.2,72.7 L46.3,67.1 L44.7,67.1 L44.7,75 L45.7,75 L45.7,68.3 L48,75 L49,75 L51.3,68.4 L51.3,75 L52.3,75 L52.3,67.1 L50.9,67.1 L49,72.6 L49,72.6 Z M49,72.6" class="Shape"/>
            <path d="M422.8,151 L420.8,156.5 L427.3,156.5 L422.8,151 L422.8,151 Z M422.8,151" class="Shape"/>
        </g>
        <g class="background">
            <path d="M156.2,100.7 L140.2,96.7 L138.8,97.7 L126.4,94.6 L136.4,87.4 L136.4,86.6 L127.8,84.4 L126.3,85.5 L126.3,86.3 L132,87.7 L121.7,95.1 L121.7,96 L147.4,102.4 L136.9,109.9 L136.9,110.7 L141.9,111.9 L156.3,101.5 L156.2,100.7 L156.2,100.7 Z M351.6,103.9 L351.6,103.9 L355,104.7 L359.5,101.5 L370.1,104.2 L385.3,93.4 L401.9,97.4 L401.9,96.5 C401.7,95.2 400.6,93.8 398.5,92.3 C397.1,91.3 396,90.6 395.2,90.2 L383.4,87.3 L365,100.4 L343.7,95.1 L367,78.4 L380.1,81.6 L388,79.1 L388,78.9 L390.1,79.4 L394.5,76.2 L394.5,75.4 L387.2,73.3 L387.2,73.2 L378.5,70.6 L374.9,71.6 L368.6,70 L369.5,69.4 L369.5,68.6 L319.7,56.7 L286.2,44.2 L286.2,43.4 L285.8,43.4 L286.1,42.8 L286.1,42 L281.7,41.5 L280.6,42.3 L275.6,41 L278.6,38.9 L278.6,38 L227.5,18.6 L224.8,20.5 L220.8,19.5 L172,54.4 L146.8,48.2 L136.9,55.5 L136.2,55.3 L123,64.6 L119.8,65.1 L97.7,59.6 L81.5,71.2 L81.5,72 L91.2,74.4 L105.6,72.7 L119.3,76.1 L122.5,75.7 L127.3,76.9 L132.2,76.4 L169.2,85.6 L162.3,90.5 L162.3,91.4 L169.2,93.1 L176.8,87.5 L204.8,94.5 L205,96 L209.6,97.1 L211.9,100.9 L223.4,103.7 L232.7,102.9 L236.8,103.9 L240,103.7 L247.4,105.8 L241.5,109.3 L248.7,111.4 L253.4,107.3 L300.7,118.9 L304.1,116.6 L314.7,115.5 L322.4,117.3 L326,116.9 L363.1,126.2 L364.3,128 L368.9,129.2 L372.9,128.6 L374.4,129 L381.8,123.7 L381.8,122.9 L373.2,120.8 L368,121.3 L351.4,117.1 L351,116.5 L331.7,111.7 L331.2,110.8 L339.1,105.1 L339.7,105.3 L346.3,100.7 L350.9,101.8 L350.9,102.6 L351.7,102.8 L351.5,102.9 L351.6,103.9 L351.6,103.9 Z M329.7,75 L330,74.9 L330.6,74.6 L331.3,74.1 L331.6,74 L332.2,73.6 L332.4,73.4 L332.5,73.3 L332.8,72.8 L332.8,72.6 L332.8,72.2 L332.8,71 C332.9,70.3 332.6,69.6 332,68.7 L346.6,67.6 L346.3,67.9 L346.3,68.7 L348,69 L348.3,69.5 L346.1,71.4 L345.5,71.3 L344.1,72.3 L344.1,73.1 L344.3,73.1 L342,74.7 L340.6,74.4 L335,79.1 L334.7,79 L333.7,79.7 L327.7,78.2 L327.2,78.5 L327.2,78.1 L325.6,76 L329.7,75 L329.7,75 Z M272.7,72.9 L272.7,72.9 L273,72.5 L273.5,72.1 L273.6,72.1 L273.8,72.1 L273.9,72.1 L274.2,72 L274.3,72 L277.8,71.3 L278.7,71.2 L281.2,71.2 L281.5,71.2 L282.3,71.2 L283,71.2 L283.5,71.3 L283.6,71.3 L284.3,71.4 L284.4,71.4 L285.1,71.5 L285.2,71.5 L287.1,71.8 L287.2,71.8 L288.2,72 L288.5,72.1 L290.5,72.6 L294.5,74.9 L292.3,76.4 L288.8,75.5 C288.8,75.5 280,75.8 279.8,75.7 L275.6,74.4 C273.7,73.8 272.6,73.4 272.5,73.2 L272.7,72.9 L272.7,72.9 Z M184.1,56.5 L213.4,35.8 L220.8,34 L228.9,34 L248.8,39 L253.1,42.3 L253.1,44.9 L241,53.6 L240.4,53.5 L235.5,57 L235.5,57.4 L224.1,65.6 L216.6,67.6 L208.4,67.6 L188.4,62.6 L184,59.4 L184.1,56.5 L184.1,56.5 Z M260,63.9 L249.8,71.2 L238.7,68.4 L248.8,61.1 L260,63.9 L260,63.9 Z M231,88.4 L220.3,89.6 L214.5,88.2 L208.9,88.8 L164.8,77.8 L164.8,77.3 C164.8,76.1 162.5,74.5 157.9,72.5 C155.6,71.4 152.5,70.4 148.7,69.5 C145.3,68.7 141.9,68.1 138.5,67.7 L131.9,66 L131.5,64.9 L138.3,60.1 L138.3,59.2 L137,58.9 L139.6,57 L139.6,56.9 L146.7,58.6 L149.4,56.6 L156.9,58.5 L156.8,58.5 L156.8,59.4 L158.7,59.9 L158.7,60.5 L181.3,66.1 L181.9,65.6 L224.1,76.1 L223.2,76.7 L223.2,77.5 L233.9,80.2 L235.5,79.1 L235.5,78.3 L226.9,76.1 L235.9,69.7 L241,71 L239.1,72.4 L239.1,73.2 L245,74.7 L242.8,76.2 L242.8,77 L245.8,77.8 L231,88.4 L231,88.4 Z M334.4,103.1 L333.7,102.9 L325.3,108.9 L321.6,109.3 L310.2,106.5 L303.4,107.1 L290.9,109.1 L248.2,98.4 L247.1,96.2 L241.9,94.9 L239.7,91.4 L250.5,83.8 L255.2,83.3 L261.8,85 L263.1,84.2 L265.4,84.7 L266.3,84 L266.3,83.1 L257.2,80.8 L261.1,78 L266.9,77.5 L273.7,79.3 L271.7,80.8 L271.7,82 L287.1,85.8 L282.5,89.1 L269,85.8 L266.7,87.5 L259.8,85.8 L256.9,87.8 L256.9,88.6 L259.1,89.1 L260.5,88.1 L267,89.7 L269.4,88 L283.2,91.4 L292.5,84.8 L310.6,89.3 L310.3,89.5 L310.3,90.3 L334.9,96.4 L336.2,95.5 L342.7,97.1 L334.4,103.1 L334.4,103.1 Z M191.8,122.5 L152.9,112.8 L151.7,113.7 L151.7,114.5 L196.4,125.6 L207.5,117.5 L207.5,116.7 L201.9,115.3 L191.8,122.5 L191.8,122.5 Z M403.8,105.4 C403.3,107.2 399.1,109.2 399.1,109.2 L388.9,115.2 C388.9,115.2 388.6,123 390.9,122.7 C392.8,122.5 403.6,114.2 403.6,114.2 L403.7,114.1 L404.2,113.4 L404.8,112.5 L405,112.3 L405.5,111.4 L406.6,109.2 L406.7,109.1 L406.8,108.7 L406.9,108.5 L407.2,107.6 L407.2,107.3 L407.2,107.2 L407.2,107.1 L407.2,107 L407.2,106.9 L407.2,106 L403.8,105.4 L403.8,105.4 Z M283,128.3 L278.7,127.2 L275.4,129.5 L246.5,122.3 L250.2,119.6 L250.2,118.8 L240.3,116.3 C239.2,117.1 238,118 236.8,118.8 L231.3,117.4 L230.3,118.2 L211.7,113.6 L210.6,114.4 L210.6,115.3 L281.6,133 L292.2,125.4 L292.2,124.6 L289.2,123.9 L283,128.3 L283,128.3 Z M283,128.3" class="walkway"/>
            <path d="M299.7,57.9 C311.5,60.8 333.5,65.9 331,69.4 C330.1,70.6 328.8,71.7 327.1,72.6 L325,71.6 L312.6,70.5 L312.5,75.1 L333.8,80.4 L336.5,78.5 L338.4,77.2 L338.4,79.6 L348.4,82.1 L362.3,72.3 L362.3,68.2 L352.3,65.7 L349.3,67.9 L349.4,64.5 L342.1,62.6 L340.4,63.9 L340.4,61 L320,55.2 L319.7,55.5 L319.7,52.6 L316.9,52.2 L311.1,51.2 L309,50.7 C306.7,50 304.9,49.1 303.5,48.1 L303.3,48 L301.9,46.6 L300.6,44.6 C300.3,44 299.2,43.1 297.2,42 L293.5,40.1 C292.7,39.7 291.4,39.3 289.7,38.9 L285.4,38 L285.3,38 L280.5,40.9 L275.4,44.1 L267,49.9 L266.9,55.8 L273.1,57.5 C280.8,51.5 288.9,55.3 299.7,57.9 L299.7,57.9 Z M256.8,79.1 L255.6,78.8 L250.8,79.3 L239.6,87.4 L239.6,91.5 L242.2,95.6 L247.4,96.9 L248.4,99 L265.7,103.3 L265.8,103.3 L291.1,109.6 L303.5,107.6 L310.6,107 L315.8,108.3 L315.8,110.5 L319.4,111.4 L321.5,109.9 L321.5,109.7 L321.9,109.8 L325.7,109.4 L343.5,96.7 L343.5,92.6 L335.7,90.7 L334.5,91.5 L311.6,85.8 L297.8,81.2 L292.4,79.9 L288.2,82.9 L288.2,81 L275.2,77.8 L275.2,75 L267.5,73 L261.4,73.7 L256.7,77 L256.8,79.1 L256.8,79.1 Z M273.6,74.3 L273.6,74.3 L279.3,75.7 L286,77.4 L288.5,75.6 L291.9,76.5 C292.5,76.1 293.2,75.6 293.8,75.2 L296.3,73.3 L296.4,69.5 L293.2,68.3 L289.9,67.4 L283.3,66.3 C281,66.1 278.9,66.1 277,66.4 C275.5,66.6 274.4,66.9 273.8,67.3 C273.3,67.6 272.9,67.9 272.7,68.3 C272.5,68.6 272.4,68.8 272.5,69 L272.5,68.9 L272.5,73.1 L272.7,73.5 L272.7,73.6 L273,73.9 L273.6,74.2 L273.6,74.3 L273.6,74.3 Z M404.2,99.5 C404.2,98.2 403.8,96.6 403,94.9 L401.7,92.6 L401.7,92.5 L401.6,92.6 L385,88.4 L369.8,99.3 L367.7,98.9 L367.7,98.8 L359.2,96.7 L354.7,99.9 L352.5,99.4 L352.5,98.5 L352.5,98.4 L351.8,98.3 L351.8,97.5 L351.8,97.4 L346,96 L331,106.7 L331,110.8 L331.9,112.2 L341.9,114.7 L341.9,116.2 L326.4,112.3 L322.9,112.7 L315.4,110.8 L304.6,112 L301.5,114.2 L240.7,99.1 L237.8,99.3 L237.7,99.3 L233.5,98.3 L223.9,99.1 L212.8,96.3 L210.6,92.8 L210.6,92.6 L206,91.4 L205.8,89.9 L181.8,84 L182.9,83.3 L182.9,82.6 L186.1,83.4 L186.3,83.5 L209.3,89.2 L214.7,88.6 L219.2,89.7 L219.4,89.8 L220.5,90 L231.4,88.9 L232.7,88 L232.7,90.6 L236.3,91.5 L238.4,90 L238.4,86 L236.3,85.4 L247.2,77.7 L247.2,73.6 L246.7,73.5 L246.7,71 L250.1,71.9 L261.4,63.8 L261.4,59.7 L248.5,56.5 L237.2,64.6 L237.2,65.4 L235.7,65 L229.5,69.4 L225.4,72.3 L225.4,73.3 L224.8,73.2 L224.8,71.5 L210.6,67.9 L216.4,67.9 L223.4,66 L223.5,66 L223.7,65.8 L223.7,66 L253,45.1 L253.3,37.6 L249.1,34.2 L229.2,29.1 L220.2,29.1 L212.9,31 L183.7,51.8 L183.2,59.5 L186,61.6 L181.7,60.6 L181.1,61.1 L159.5,55.7 L159.5,55.2 L157.8,54.7 L157.8,53.7 L148.9,51.5 L142.1,56.3 L138.6,55.4 L131.4,60.5 L131.4,64.6 L131.9,66.4 L138.4,68 L142.7,68.7 L143.2,68.7 L144.1,68.9 L145.3,69.1 L153.7,71.3 L158.3,73 C159.7,73.6 161.2,74.5 162.8,75.5 L161.9,76.2 L161.9,79.1 L132.5,71.8 L127.4,72.3 L122.7,71.1 L119.5,71.5 L112.3,69.7 L113.3,69 L113.3,65 L109.7,63.9 L107.5,65.5 L107.5,68.5 L105.5,68 L90.5,69.8 L64.8,88.6 L64.8,92.7 L110.4,104.1 L124.7,93.9 L124.7,95.4 L130.9,96.9 L138.6,98.8 L140.3,97.6 L151.7,100.4 L141.5,107.7 L141.5,111.8 L151.9,114.4 L152.8,113.7 L162.9,116.1 L162.9,116.2 L177.4,119.8 L177.4,119.9 L191.8,123.5 L202.2,116.1 L207.5,117.4 L212.2,114 L219.8,115.9 L220,115.9 L230.4,118.5 L231.4,117.8 L236.8,119.2 L240.4,116.6 L245.7,118 L245.3,118.3 L245.3,122.4 L275.4,129.9 L278.9,127.4 L281.8,128.1 L266.1,139.2 L266.1,143.3 L327.6,158.6 L328.9,160.5 L332.1,161.3 L342.2,160.2 L344.2,158.7 L344.2,156.5 L373.9,135.3 L377.4,134.9 L379.7,133.2 L379.7,129.1 L376.9,124.7 L373.5,123.9 L369.5,124.4 L364.8,123.3 L363.6,121.5 L346.1,117.2 L347.4,116.3 L347.4,116.1 L351,117 L351.5,117.7 L367.7,121.8 L373,121.3 L382.8,123.6 L391.3,122.7 L393.4,121.3 L393.6,121.1 L393.8,121 L394.2,120.7 L394.4,120.6 L395.5,119.8 L395.6,119.8 L396,119.5 L396.2,119.4 L397.3,118.6 L397.3,117.3 L397.5,117.3 L399.6,115.8 L399.6,115 L400.9,115.3 L401.4,114.9 L401.5,114.8 L401.6,114.7 L401.7,114.7 L402.2,114.3 L402.2,110.2 L401.5,110.1 L401.6,110 L401.6,109.9 L402.5,108.1 L402.5,108 L402.7,107.6 L403.6,105.3 L403.7,104.8 L403.7,104.7 L403.8,103.9 L403.8,99.6 L404.2,99.5 L404.2,99.5 Z M169.2,93.1 L162.3,90.5 L169.2,85.6 L176.8,87.5 L169.2,93.1 L169.2,93.1 Z M177.1,82.8 L167,80.3 L167.9,79.7 L167.9,78.9 L171.9,79.9 L172.1,80 L177,81.2 L177,82.8 L177.1,82.8 Z M248.4,113.4 L241.5,110.8 L248.4,104.9 L256,106.8 L248.4,113.4 L248.4,113.4 Z M252,77.3 L257.6,73.5 L257.7,71.4 L255,71.4 L249.7,75.1 L249.7,76.5 L249.7,76.6 L249.9,76.6 L250.8,76.9 L252,77.3 L252,77.3 Z M98,60.1 L101.4,60.9 L101.4,64.6 L105,65.5 L107.1,64 L107.1,62.3 L120.1,65.5 L123.5,65.1 L146.8,48.4 L147.1,47.9 L167.9,33.1 L167.9,29 L110.8,14.8 L105.2,19 L105.2,19.1 L105.1,19.1 L104.9,19.1 L101.7,21.4 L78.3,15.5 L82.9,12.3 L82.9,8.2 L57.9,1.9 L3,41 L3,45.1 L89.1,66.5 L98,60.1 L98,60.1 Z M98,60.1" class="wall"/>
        </g>
        <g class="ceilings">
            <path class="unit" d="M206.3,60.4 L206.8,60.5 L207.4,60.6 L213,61.4 L215.9,61.2 C218,60.9 219.6,60.3 220.7,59.5 C229.3,53.4 237.8,47.3 246.4,41.1 L246.4,41.1 L248.3,39.6 C248.8,39.1 249,38.5 248.9,37.8 C248.9,37.7 248.8,37.5 248.8,37.4 C248.8,37.3 248.7,37.2 248.7,37 L248.7,37 C248.4,36.4 247.8,35.9 246.9,35.5 L245.5,34.9 L229,30.8 L227.1,30.5 L223.8,30.4 C220.7,30.6 218.4,31.2 216.8,32.2 L190.8,50.7 C189.8,51.3 189.1,51.9 188.7,52.4 C188.3,52.9 188.3,53.4 188.5,54 C188.7,54.5 189,55.1 189.6,55.6 L189.6,55.6 L189.6,55.6 C190,56 190.6,56.3 191.5,56.6 L193.3,57.1 L193.5,57.2 L194.3,57.4 L205.8,60.2 L206.1,60.3 L206.3,60.4 L206.3,60.4 Z M206.3,60.4" id="1001"/>
            <path class="unit" d="M349.8,64.6 L341.3,62.4 L332.2,69 L340.7,71.1 L349.8,64.6 L349.8,64.6 Z M349.8,64.6" id="1002"/>
            <path class="unit" d="M329.6,69.9 C332.2,68.9 332.1,69 332.1,69 L340.6,71.1 L334.4,75.5 L327.9,73.9 L312.6,70.5 C312.6,70.5 327,70.9 329.6,69.9 L329.6,69.9 L329.6,69.9 Z M329.6,69.9" id="1005"/>
            <path class="unit" d="M296.3,68.9 C296.3,68.9 294,68 293.4,67.8 L290.1,66.8 C288.1,66.3 285.9,65.9 283.5,65.7 C281.3,65.5 279.3,65.6 277.4,65.8 C275.8,66 274.8,66.3 274.1,66.7 L273,67.6 C272.8,67.9 272.7,68.2 272.8,68.4 C273,68.9 273.4,69.3 274.1,69.5 L280.9,71.2 L286.4,72.6 L288.8,70.9 L292.2,71.8 L296.3,68.9 L296.3,68.9 Z M296.3,68.9" id="1009"/>
            <path class="unit" d="M286.8,50.7 L283.7,42.3 L285.6,40.7 L283,38.9 L267,49.8 L273.7,51.6 C275.3,50.7 277.2,50.1 279.8,50 C282.1,50.1 285.1,50.4 286.8,50.7 L286.8,50.7 L286.8,50.7 Z M286.8,50.7" id="1011"/>
            <path class="unit" d="M111.3,14.3 L168.2,28.5 L147.4,43.3 L147.1,43.9 L123.9,60.5 L120.6,60.8 L98.4,55.3 L138.4,26.7 L105.4,18.4 L111.3,14.3 L111.3,14.3 Z M111.3,14.3" id="1012"/>
            <path class="unit" d="M83.2,7.5 L74.4,13.8 L102.2,20.8 L105.4,18.5 L138.4,26.8 L89.4,61.7 L3.6,40.3 L58.3,1.3 L83.2,7.5 L83.2,7.5 Z M83.2,7.5" id="1013"/>
            <path class="unit" d="M142.5,55.8 L149.3,51 L158,53.2 L157,53.9 L159.7,54.6 L159.1,55.1 L159,55.1 L145.8,64.5 L145.9,64.5 L145.4,64.4 L138.8,63.4 L132.4,61.8 L131.9,60 L139,54.9 L142.5,55.8 L142.5,55.8 Z M142.5,55.8" id="1014"/>
            <path class="unit" d="M145.9,64.4 L145.9,64.4 L159,55 L159.1,55 L165.9,56.7 L152.8,66.1 L145.9,64.4 L145.9,64.4 Z M145.9,64.4" id="1015"/>
            <path class="unit" d="M172.8,58.4 L159,68.3 C158,67.8 156.9,67.4 155.7,67 L152.7,66.1 L165.9,56.7 L172.8,58.4 L172.8,58.4 Z M172.8,58.4" id="1016"/>
            <path class="unit" d="M172.8,58.4 L159,68.3 C160.5,69 162.2,69.9 163.9,71 C164.4,71.4 164.9,72 165.2,72.4 L181.5,60.6 L172.8,58.4 L172.8,58.4 Z M172.8,58.4" id="1017"/>
            <path class="unit" d="M197.5,63.9 L179.6,76.9 L172.5,75.1 L190.6,62.2 L197.5,63.9 L197.5,63.9 Z M197.5,63.9" id="1018"/>
            <path class="unit" d="M204.7,65.8 L186.6,78.7 L179.6,76.9 L197.5,63.9 L204.7,65.8 L204.7,65.8 Z M204.7,65.8" id="1019"/>
            <path class="unit" d="M202.3,82.5 L186.6,78.6 L204.7,65.7 L220.3,69.6 L202.3,82.5 L202.3,82.5 Z M202.3,82.5" id="1020"/>
            <path class="unit" d="M261.7,58.9 L250.5,66.9 L237.8,63.7 L249,55.7 L261.7,58.9 L261.7,58.9 Z M261.7,58.9" id="1021"/>
            <path class="unit" d="M242.1,65.8 L239.5,67.7 L246.9,69.6 L243.5,72 L230.1,68.7 L236.1,64.4 L242.1,65.8 L242.1,65.8 Z M242.1,65.8" id="1022"/>
            <path class="unit" d="M243.3,75.8 L226,71.6 L230.2,68.7 L247.4,73 L243.3,75.8 L243.3,75.8 Z M243.3,75.8" id="1023"/>
            <path class="unit" d="M225.2,70.9 L223.5,72.1 L226.6,72.9 L210.7,84.4 L209.8,84.5 L202.4,82.6 L220.5,69.7 L225.2,70.9 L225.2,70.9 Z M225.2,70.9" id="1024"/>
            <path class="unit" d="M234.1,74.7 L219.7,85 L215.2,83.9 L210.6,84.4 L226.5,72.9 L234.1,74.7 L234.1,74.7 Z M234.1,74.7" id="1025"/>
            <path class="unit" d="M243.3,75.8 L231.7,84.1 L220.9,85.2 L219.8,84.9 L235.4,73.8 L243.3,75.8 L243.3,75.8 Z M243.3,75.8" id="1026"/>
            <path class="unit" d="M271.2,77.6 L265.6,76.2 L263.1,78 L257.2,76.6 L261.8,73.3 L267.8,72.6 L275.4,74.6 L271.2,77.6 L271.2,77.6 Z M271.2,77.6" id="1027"/>
            <path class="unit" d="M269,81.5 L256,78.3 L251.3,78.7 L249.6,80 L258.8,82.3 L259.9,81.5 L266.9,83.2 L269,81.5 L269,81.5 Z M269,81.5" id="1028"/>
            <path class="unit" d="M258.6,82.2 L257.2,83.2 L255.8,84.2 L255.7,84.2 L246.7,81.9 L249.5,79.9 L249.6,79.8 L258.6,82.2 L258.6,82.2 Z M258.6,82.2" id="1029"/>
            <path class="unit" d="M288.5,80.6 L282.5,84.9 L262.7,79.9 L263.9,79 L266.3,79.6 L267.2,79 L263.1,78 L265.6,76.2 L271.2,77.6 L272.6,76.6 L288.5,80.6 L288.5,80.6 Z M288.5,80.6" id="1030"/>
            <path class="unit" d="M259.3,83.8 L247.8,92 L242.6,90.7 L240.1,86.7 L246.7,82 L255.7,84.3 L255.8,84.3 L257.2,83.3 L259.3,83.8 L259.3,83.8 Z M259.3,83.8" id="1031"/>
            <path class="unit" d="M267.3,84.3 L252.3,95 L248.8,94.1 L247.8,91.9 L260.8,82.6 L267.3,84.3 L267.3,84.3 Z M267.3,84.3" id="1032"/>
            <path class="unit" d="M269.7,82.6 L276.8,84.4 L259.4,96.8 L252.3,95 L269.7,82.6 L269.7,82.6 Z M269.7,82.6" id="1033"/>
            <path class="unit" d="M283.6,86.1 L266.1,98.5 L259.4,96.8 L276.8,84.4 L283.6,86.1 L283.6,86.1 Z M283.6,86.1" id="1034"/>
            <path class="unit" d="M139.1,72.7 L126.4,81.8 L117.2,79.5 L128,71.8 L133.1,71.3 L139.1,72.7 L139.1,72.7 Z M139.1,72.7" id="1035"/>
            <path class="unit" d="M145.8,74.3 L134.5,82.4 L127.8,80.7 L139.1,72.6 L145.8,74.3 L145.8,74.3 Z M145.8,74.3" id="1036"/>
            <path class="unit" d="M121,92 L110.8,99.3 L89.1,93.9 L99.3,86.6 L121,92 L121,92 Z M121,92" id="1037"/>
            <path class="unit" d="M89.3,94 L65.3,88 L91.3,69.3 L106.3,67.5 L120.2,71 L123.4,70.6 L128,71.8 L117.2,79.5 L133,83.5 L121,92 L99.3,86.6 L89.1,93.9 L89.3,94 L89.3,94 Z M89.3,94" id="1038"/>
            <path class="unit" d="M153.6,76.3 L131.4,92.2 L125.3,90.7 L136.2,82.9 L134.5,82.4 L145.8,74.3 L153.6,76.3 L153.6,76.3 Z M153.6,76.3" id="1039"/>
            <path class="unit" d="M170.2,80.4 L159.8,77.8 L153.6,76.3 L131.4,92.2 L138.9,94 L140.8,92.7 L156.4,96.8 L168.9,87.9 L162.1,86.2 L170.2,80.4 L170.2,80.4 Z M170.2,80.4" id="1040"/>
            <path class="unit" d="M141.9,107.2 L177,82.1 L187.3,84.7 L152.1,109.8 L141.9,107.2 L141.9,107.2 Z M141.9,107.2" id="1041"/>
            <path class="unit" d="M163.2,111.6 L153,109.1 L187.2,84.7 L197.3,87.2 L163.2,111.6 L163.2,111.6 Z M163.2,111.6" id="1042"/>
            <path class="unit" d="M210.7,91.9 L178,115.3 L163.3,111.6 L197.3,87.2 L205.8,89.3 L206,90.8 L210.7,91.9 L210.7,91.9 Z M210.7,91.9" id="1043"/>
            <path class="unit" d="M199.4,109.4 L198,109 L197.8,109 L186.1,117.3 L178,115.3 L210.6,92 L212.9,95.7 L217.1,96.7 L199.4,109.4 L199.4,109.4 Z M199.4,109.4" id="1044"/>
            <path class="unit" d="M199.4,109.4 L217,96.8 L224,98.5 L228.2,98.2 L207.8,112.7 L202.5,111.4 L192,118.9 L186,117.4 L197.7,109.1 L199.4,109.4 L199.4,109.4 Z M199.4,109.4" id="1045"/>
            <path class="unit" d="M233.7,97.7 L237.9,98.8 L220.3,111.3 L212.6,109.4 L228.3,98.2 L233.7,97.7 L233.7,97.7 Z M233.7,97.7" id="1046"/>
            <path class="unit" d="M248.5,106.4 L254.7,102 L259.6,103.2 L245.7,113.2 L240.9,112 L242.1,111.2 L242.1,111.1 L239.3,110.4 L245.9,105.7 L248.5,106.4 L248.5,106.4 Z M248.5,106.4" id="1047"/>
            <path class="unit" d="M259.6,103.2 L264.4,104.4 L250.5,114.4 L245.7,113.2 L259.6,103.2 L259.6,103.2 Z M259.6,103.2" id="1048"/>
            <path class="unit" d="M249.3,100.6 L243.2,105 L245.7,105.6 L239.1,110.3 L241.9,111.1 L237.2,114.4 L231.8,113 L230.8,113.7 L220.4,111.1 L238,98.7 L240.9,98.5 L249.3,100.6 L249.3,100.6 Z M249.3,100.6" id="1049"/>
            <path class="unit" d="M303.5,82.1 L292.9,79.5 L266.1,98.6 L276.6,101.2 L303.5,82.1 L303.5,82.1 Z M303.5,82.1" id="1050"/>
            <path class="unit" d="M287.1,103.8 L312.7,85.5 L310.8,85 L311.9,84.2 L303.5,82.1 L276.6,101.2 L287.1,103.8 L287.1,103.8 Z M287.1,103.8" id="1051"/>
            <path class="unit" d="M303.8,102.9 L310.6,102.3 L328.6,89.5 L312.7,85.5 L287.1,103.8 L291.5,104.9 L303.8,102.9 L303.8,102.9 Z M303.8,102.9" id="1052"/>
            <path class="unit" d="M336.2,90.2 L335,91 L328.6,89.4 L310.6,102.2 L311,102.2 L322.3,105 L326,104.6 L343.7,92 L336.2,90.2 L336.2,90.2 Z M336.2,90.2" id="1053"/>
            <path class="unit" d="M355.1,99.3 L359.6,96.1 L368,98.2 L349.1,111.7 L332.3,107.5 L331.4,106.1 L346.3,95.4 L352,96.8 L351.1,97.4 L352.7,97.8 L351.7,98.5 L355.1,99.3 L355.1,99.3 Z M355.1,99.3" id="1054"/>
            <path class="unit" d="M378.4,92.9 L386.1,94.8 L358.5,114.6 L352.2,113 L351.8,112.4 L349.2,111.7 L368,98.2 L370.2,98.8 L378.4,92.9 L378.4,92.9 Z M378.4,92.9" id="1055"/>
            <path class="unit" d="M358.4,114.5 L386.1,94.7 L378.4,92.8 L385.4,87.8 L401.8,91.9 L367.1,116.6 L358.4,114.5 L358.4,114.5 Z M358.4,114.5" id="1056"/>
            <path class="unit" d="M403.6,95 C402.9,93.3 402.3,92.3 401.9,91.9 L382.3,105.9 L381.9,106.2 L381.7,106.3 L367.2,116.7 L368.3,117 L373.6,116.5 L380.8,118.3 L393.2,109.3 L400.7,111.2 L402.5,109.6 L399.1,109.2 L400.7,107.2 C401.2,106.7 401.9,105.6 402.6,104 L403.7,101.4 L404.1,100.4 C404.7,99 404.5,97.2 403.6,95 L403.6,95 Z M403.6,95" id="1057"/>
            <path class="unit" d="M245.8,117.7 L264.4,104.3 L280.5,108.3 L261.8,121.7 L245.8,117.7 L245.8,117.7 Z M245.8,117.7" id="1058"/>
            <path class="unit" d="M301.7,113.7 L292.7,120.2 L289.7,119.5 L283.5,123.9 L275.7,121.9 L291,111 L301.7,113.7 L301.7,113.7 Z M301.7,113.7" id="1059"/>
            <path class="unit" d="M291,111 L275.8,121.8 L279.2,122.7 L275.7,125.2 L261.8,121.8 L280.5,108.4 L291,111 L291,111 Z M291,111" id="1060"/>
            <path class="unit" d="M304.9,111.4 L315.6,110.2 L323.1,112.1 L326.7,111.7 L364,121 L365.1,122.8 L369.8,124 L373.8,123.5 L377.1,124.3 L379.9,128.7 L377.6,130.4 L374.2,130.8 L343.4,152.7 L344.3,154.2 L342.3,155.6 L332.4,156.6 L329.2,155.8 L327.9,154 L266.5,138.7 L304.9,111.4 L304.9,111.4 Z M304.9,111.4" id="1061"/>
            <path class="unit" d="M362.4,67.6 L348.7,77.4 L338.9,75 L352.6,65.2 L362.4,67.6 L362.4,67.6 Z M362.4,67.6" id="1062"/>
            <path class="unit" d="M257.6,71.3 L252,75.3 L249.7,74.7 L255.3,70.6 L257.6,71.3 L257.6,71.3 Z M257.6,71.3" id="1064"/>
            <path class="unit" d="M300.9,53.9 C301.3,54 301.8,54.1 302.2,54.2 C305.5,55 309.5,56 313.6,57 L319.6,52.1 L315.6,51.4 L310.8,50.5 C309.2,50.1 307.8,49.6 306.5,49 C306.5,49 306.4,49 306.4,49.1 C306.1,49.3 305.5,49.9 304.7,50.6 C304.4,50.9 302.5,52.5 300.9,53.9 L300.9,53.9 L300.9,53.9 Z M300.9,53.9" id="1065"/>
            <path class="unit" d="M295.1,52.4 C296.9,52.9 298.9,53.4 300.9,53.9 C302.5,52.5 304.4,50.8 304.7,50.6 C305.5,49.9 306.1,49.3 306.4,49.1 L306.5,49 C306.4,49 306.4,48.9 306.3,48.9 C304.9,48.2 303.7,47.5 302.7,46.6 L301.2,44.6 C300.7,43.6 299.9,42.8 298.8,42.1 C297.6,41.4 296.1,40.6 294.3,39.8 L291.7,41.9 L295.1,52.4 L295.1,52.4 Z M295.1,52.4" id="1066"/>
            <path class="unit" d="M283.6,42.3 L286.7,50.7 C289.3,50.9 292.1,51.6 295,52.4 L291.8,42 L294.4,39.9 C291.7,38.8 288.8,38 285.7,37.3 L283,38.9 L285.6,40.7 L283.6,42.3 L283.6,42.3 Z M283.6,42.3" id="1067"/>
            <path class="unit" d="M253.6,36.9 L253.3,40.3 L224,61.3 L216.8,63.2 L208.1,63.2 L188,58.2 L183.7,55 L184.2,51.4 L213.4,30.5 L220.7,28.6 L229.4,28.6 L249.5,33.7 L253.6,36.9 L253.6,36.9 Z M253.6,36.9" id="1068"/>
            <path class="unit" d="M333.7,65.4 L340.6,60.6 L337.1,59.7 L333.8,58.8 L319.7,54.9 L316.1,57.7 C325.4,60.3 334.3,63.2 333.7,65.4 L333.7,65.4 L333.7,65.4 Z M333.7,65.4" id="1069"/>
            <path class="unit" d="M181.5,60.6 L181.5,60.6 L165.2,72.4 C165.2,72.5 165.3,72.5 165.3,72.6 L165.3,73.3 L172.5,75.1 L190.6,62.2 L182.2,60.1 L181.5,60.6 L181.5,60.6 Z M181.5,60.6" id="1070"/>
            <path class="unit" d="M380.9,118.2 L383.3,118.8 L391.7,118 L394.1,116.4 L397.5,114 L392,112.7 L395.8,109.9 L393.3,109.2 L380.9,118.2 Z M380.9,118.2" id="1071"/>
            <path class="unit" d="M397.7,113.3 L394,112.4 L396.1,110.9 L399.8,111.8 L397.7,113.3 Z M397.7,113.3" id="1072"/>
            <path class="unit" d="M345.5,113.8 L341.9,112.9 L344,111.3 L347.6,112.3 L345.5,113.8 Z M345.5,113.8" id="1073"/>
            <path class="unit" d="M319.4,107.3 L315.8,106.5 L318,104.8 L321.5,105.9 L319.4,107.3 Z M319.4,107.3" id="1074"/>
            <path class="unit" d="M236.3,87.4 L232.6,86.5 L234.8,84.9 L238.4,86 L236.3,87.4 Z M236.3,87.4" id="1075"/>
            <path class="unit" d="M180.8,80.6 L177.1,79.8 L179.3,78.1 L182.9,79.2 L180.8,80.6 Z M180.8,80.6" id="1076"/>
            <path class="unit" d="M165.9,77.1 L162.2,76.2 L164.4,74.6 L168,75.6 L165.9,77.1 Z M165.9,77.1" id="1077"/>
            <path class="unit" d="M105,61.5 L101.4,60.6 L103.6,59 L107.2,60 L105,61.5 Z M105,61.5" id="1078"/>
            <path class="unit" d="M111.6,66.4 L108,65.5 L110.1,63.9 L113.7,64.9 L111.6,66.4 Z M111.6,66.4" id="1079"/>
        </g>
    </g>
</svg>