<?xml version="1.0" encoding="utf-8"?>
<!DOCTYPE svg PUBLIC "-//W3C//DTD SVG 1.1//EN" "http://www.w3.org/Graphics/SVG/1.1/DTD/svg11.dtd">
<svg version="1.1" xmlns="http://www.w3.org/2000/svg" xmlns:xlink="http://www.w3.org/1999/xlink" xml:space="preserve">
<g class="level" id="level0">
            <g class="shadow">
                <path d="M393.331,94.405 L388.908,97.565 L386.924,97.068 L386.924,97.159 L379.071,99.686 L367.201,96.752 C366.54,97.232 366.104,97.475 365.892,97.475 L365.125,97.295 L364.9,97.203 L342.559,113.18 L355.693,116.475 L358.22,114.669 L366.391,116.7 L382.278,105.372 L394.056,108.305 L395.998,109.434 L400.511,110.563 L400.644,110.47 L400.691,110.563 L401.997,112.91 C402.81,114.684 403.201,116.234 403.173,117.558 L403.218,117.421 L403.173,121.71 L403.08,122.476 L403.035,122.613 L402.899,123.154 L401.996,125.411 L402.809,123.425 L406.42,123.651 L406.42,124.601 L406.375,124.691 L406.375,124.784 L406.33,124.918 L406.33,125.054 L406.283,125.097 L406.238,125.368 L405.967,126.315 L405.877,126.496 L405.741,126.902 L405.651,127.039 L405.651,127.083 L404.568,129.294 L404.026,130.152 L403.848,130.377 L403.216,131.326 L403.171,131.326 L402.628,132.003 L402.539,132.138 L401.817,132.951 L400.733,132.859 L400.689,132.859 L400.596,132.994 L400.1,133.4 L400.1,133.444 L399.016,134.439 L398.883,134.53 L398.609,134.801 L398.476,134.891 L397.706,135.613 L397.617,135.661 L397.304,135.931 L397.211,136.066 L397.03,136.201 L396.985,136.246 L396.669,136.472 L396.576,136.565 L395.357,137.468 L395.176,137.558 L394.77,137.877 L394.68,137.921 L393.556,138.729 L393.376,138.823 L393.017,139.094 L392.79,139.229 L392.564,139.409 L390.486,140.763 L381.959,141.62 L380.831,141.394 L380.783,141.394 L380.783,141.89 L377.083,144.508 L378.843,147.306 L378.798,151.414 L376.451,153.084 L372.933,153.49 L343.189,174.7 L343.189,176.911 L341.158,178.398 L331.094,179.482 L327.891,178.67 L326.581,176.817 L265.111,161.52 L265.111,157.411 L275.897,149.738 L210.048,133.357 L210.048,132.996 L206.708,135.389 L206.708,136.156 L195.651,144.28 L150.924,133.133 L150.924,132.455 L150.789,132.546 L141.311,130.199 L140.77,130.605 L135.806,129.385 L135.806,128.574 L146.322,121.08 L120.642,114.671 L120.642,114.081 L109.404,122.071 L63.775,110.697 L63.82,106.635 L85.077,91.335 L80.383,90.161 L80.383,89.304 L87.379,84.294 L2.031,63.129 L2.031,59.067 L56.867,19.937 L82.006,26.21 L81.961,30.316 L77.357,33.565 L100.781,39.432 L103.94,37.176 L104.12,37.22 L104.256,37.22 L104.256,37.13 L109.853,32.932 L166.991,47.152 L166.947,51.258 L146.186,66.062 L146.096,66.288 L171.009,72.426 L219.753,37.629 L223.77,38.621 L226.432,36.726 L277.566,56.086 L277.566,56.943 L274.54,59.064 L277.566,59.832 L278.423,59.2 L280.41,59.697 L280.636,59.561 L281.672,59.651 L283.838,58.117 L283.838,57.621 L284.244,55.997 L284.377,55.997 L288.71,56.944 C290.395,57.366 291.66,57.772 292.501,58.163 L296.204,60.059 C298.188,61.172 299.316,62.029 299.59,62.63 L300.896,64.617 L302.297,66.061 L302.475,66.151 C303.86,67.174 305.695,68.047 307.983,68.769 L310.058,69.311 L315.881,70.348 L318.679,70.754 L318.637,74.861 L318.141,75.222 L323.464,76.576 L324.367,75.899 L326.849,76.531 L327.255,76.26 L346.844,81.134 L346.844,81.496 L368.326,86.821 L368.326,87.633 L367.469,88.265 L373.787,89.8 L373.787,89.754 L377.445,88.716 L386.109,91.333 L386.109,91.512 L393.33,93.59 L393.331,94.405 M326.264,96.481 L324.775,94.767 L325.995,96.301 L325.995,96.707 L326.264,96.481" class="shadow"/>
            </g>
            <g class="outline">
                <path d="M404.751,104.291 L404.796,99.875 L404.786,99.771 C404.484,96.92 403.513,94.297 401.899,91.978 L401.25,91.001 L381.875,86.125 L366.569,96.625 L358.812,94.563 L355.43,96.965 L347.03,94.643 L366.187,81.034 L379.052,83.752 L387,81.084 L389.417,81.656 L394.915,77.87 L394.915,74.767 L387.277,72.572 L387.184,72.377 L377.238,69.372 L373.445,70.449 L369.911,69.591 L369.911,67.945 L348.428,62.62 L348.428,62.261 L319.668,54.304 L319.522,51.907 L316.058,51.125 L310.231,50.084 L308.263,49.57 C306.199,48.916 304.537,48.13 303.328,47.237 L302.033,45.961 C301.548,45.347 301.2,44.821 301.012,44.426 C300.548,43.401 299.348,42.414 296.806,40.988 L293.039,39.061 C292.084,38.617 290.738,38.182 288.862,37.713 L283.737,36.626 L279.145,39.153 L279.145,37.374 L225.943,17.23 L223.171,19.203 L219.153,18.209 L170.408,53.008 L149.95,47.967 L168.516,34.728 L168.587,28.278 L109.232,13.51 L103.511,17.8 L103.343,17.758 L100.184,20.014 L81.388,15.306 L83.53,13.792 L83.601,7.337 L56.27,0.518 L0,40.671 L0,47.075 L82.92,67.642 L78.35,70.913 L78.35,74.108 L80.639,74.681 L61.799,88.241 L61.728,94.641 L109.547,106.561 L120.174,99.007 L141.858,104.419 L133.775,110.178 L133.775,113.337 L140.945,115.095 L141.484,114.69 L148.894,116.525 L148.894,117.077 L195.811,128.77 L208.288,119.603 L208.288,118.849 L209.822,117.75 L271.426,133.075 L263.08,139.012 L263.08,145.462 L325.268,160.941 L326.574,162.788 L330.739,163.844 L341.61,162.675 L344.77,160.359 L344.77,158.161 L373.376,137.764 L376.896,137.359 L380.372,134.887 L380.431,129.331 L379.3,127.53 L381.526,125.956 L381.646,125.977 L390.883,125.051 L393.328,123.456 L398.317,119.864 L398.427,119.698 L401.096,117.316 L401.153,117.261 L402.345,117.361 L403.666,115.876 L403.822,115.671 L403.959,115.667 L405.871,112.794 L407.052,110.412 L407.156,110.239 L407.713,108.534 L407.912,108.335 L407.912,107.74 L408.002,107.557 L408.002,104.493 L404.751,104.291 L404.751,104.291 Z M404.751,104.291" class="outline"/>
            </g>
            <g class="label">
                <path d="M365.045,13.284 L360.275,13.284 L360.275,9.426 L364.149,9.426 C364.533,9.426 364.741,9.106 364.741,8.834 C364.741,8.546 364.533,8.258 364.149,8.258 L360.275,8.258 L360.275,4.528 L364.885,4.528 C365.301,4.528 365.526,4.256 365.526,3.952 C365.526,3.616 365.301,3.312 364.885,3.312 L360.1,3.312 C359.412,3.312 359.043,3.68 359.043,4.272 L359.043,13.54 C359.043,14.132 359.411,14.5 360.1,14.5 L365.046,14.5 C365.43,14.5 365.654,14.164 365.654,13.892 C365.654,13.556 365.429,13.284 365.045,13.284 L365.045,13.284 Z M356.552,3.248 C356.216,3.248 356.008,3.504 355.96,3.824 C355.512,6.881 354.936,9.97 354.199,13.044 L354.167,13.044 C353.303,10.227 352.615,6.865 351.862,4.512 C351.558,3.552 351.286,3.248 350.79,3.248 C350.357,3.248 350.038,3.584 349.766,4.448 C349.03,6.769 348.213,10.403 347.349,13.044 L347.317,13.044 C346.565,9.987 346.116,6.898 345.716,3.888 C345.636,3.456 345.412,3.248 345.06,3.248 C344.676,3.248 344.452,3.552 344.452,3.888 C344.452,4 344.484,4.192 344.5,4.256 C344.933,7.345 345.541,10.514 346.165,13.284 C346.389,14.244 346.725,14.564 347.269,14.564 C347.749,14.564 348.069,14.292 348.373,13.428 C349.237,10.931 349.845,8.178 350.774,5.009 L350.806,5.009 C351.766,8.178 352.327,10.947 353.095,13.428 C353.367,14.308 353.703,14.564 354.232,14.564 C354.712,14.564 355.032,14.228 355.224,13.492 C355.976,10.499 356.617,7.377 357.129,4.176 C357.16,4 357.16,3.888 357.16,3.808 C357.16,3.52 356.92,3.248 356.552,3.248 L356.552,3.248 Z M338.565,3.184 C335.684,3.184 333.859,5.521 333.859,9.122 C333.859,12.515 335.651,14.628 338.517,14.628 C341.398,14.628 343.223,12.275 343.223,8.674 C343.223,5.28 341.414,3.184 338.565,3.184 L338.565,3.184 Z M338.549,13.443 C336.404,13.443 335.155,11.698 335.155,9.186 C335.155,6.225 336.387,4.368 338.532,4.368 C340.725,4.368 341.926,6.113 341.926,8.61 C341.926,11.571 340.693,13.443 338.549,13.443 L338.549,13.443 Z M332.837,13.315 L328.531,13.315 L328.531,3.904 C328.531,3.504 328.275,3.248 327.923,3.248 C327.57,3.248 327.298,3.504 327.298,3.904 L327.298,13.54 C327.298,14.132 327.666,14.5 328.355,14.5 L332.836,14.5 C333.236,14.5 333.492,14.228 333.492,13.892 C333.493,13.587 333.253,13.315 332.837,13.315 L332.837,13.315 Z M398.884,4.72 C398.26,3.471 397.764,3.103 397.203,3.103 C396.643,3.103 396.146,3.471 395.522,4.72 C394.626,6.529 393.938,8.802 392.769,13.428 C392.705,13.652 392.673,13.828 392.673,13.94 C392.673,14.324 392.929,14.564 393.281,14.564 C393.569,14.564 393.777,14.388 393.857,14.052 C394.161,12.676 394.464,11.443 394.769,10.386 L399.635,10.386 C399.923,11.443 400.227,12.675 400.547,14.052 C400.627,14.388 400.835,14.564 401.123,14.564 C401.476,14.564 401.731,14.324 401.731,13.94 C401.731,13.828 401.683,13.652 401.634,13.428 C400.501,8.802 399.781,6.529 398.884,4.72 L398.884,4.72 Z M395.091,9.266 C395.827,6.817 396.484,5.296 396.995,4.496 C397.043,4.432 397.091,4.368 397.203,4.368 C397.315,4.368 397.363,4.432 397.411,4.496 C397.924,5.296 398.563,6.817 399.3,9.266 L395.091,9.266 L395.091,9.266 Z M416.613,13.315 L412.307,13.315 L412.307,3.904 C412.307,3.504 412.05,3.248 411.699,3.248 C411.346,3.248 411.075,3.504 411.075,3.904 L411.075,13.54 C411.075,14.132 411.443,14.5 412.131,14.5 L416.613,14.5 C417.012,14.5 417.269,14.228 417.269,13.892 C417.269,13.587 417.029,13.315 416.613,13.315 L416.613,13.315 Z M408.997,13.315 L404.691,13.315 L404.691,3.904 C404.691,3.504 404.434,3.248 404.083,3.248 C403.73,3.248 403.459,3.504 403.459,3.904 L403.459,13.54 C403.459,14.132 403.826,14.5 404.515,14.5 L408.997,14.5 C409.396,14.5 409.653,14.228 409.653,13.892 C409.653,13.587 409.413,13.315 408.997,13.315 L408.997,13.315 Z M390.327,4.544 C390.215,3.711 389.927,3.248 389.27,3.248 C388.646,3.248 388.374,3.616 388.198,4.08 C387.382,6.289 386.485,9.122 385.509,11.747 L385.493,11.747 C384.484,9.266 383.7,6.657 382.676,4.224 C382.451,3.616 382.18,3.248 381.556,3.248 C380.9,3.248 380.595,3.696 380.499,4.577 C380.146,7.506 379.955,10.675 379.971,13.925 C379.955,14.309 380.195,14.565 380.547,14.565 C380.899,14.565 381.171,14.341 381.171,13.909 C381.155,10.836 381.348,7.859 381.684,4.866 L381.7,4.866 C382.677,7.491 383.621,10.132 384.661,12.757 C384.79,13.093 385.061,13.333 385.477,13.333 C385.877,13.333 386.182,13.093 386.31,12.757 C387.334,10.212 388.214,7.507 389.143,4.866 L389.159,4.866 C389.575,7.891 389.735,10.868 389.815,13.845 C389.815,14.293 390.04,14.565 390.456,14.565 C390.808,14.565 391.032,14.277 391.032,13.893 C391.032,13.765 391.015,13.525 391.015,13.413 C390.983,10.37 390.726,7.313 390.327,4.544 L390.327,4.544 Z M373.093,10.386 C372.805,9.97 372.485,9.65 372.116,9.41 C373.541,8.913 374.47,7.921 374.47,6.401 C374.47,4.464 373.158,3.184 370.26,3.184 C369.156,3.184 368.404,3.296 367.891,3.456 C367.491,3.584 367.379,3.824 367.379,4.224 L367.379,13.924 C367.379,14.324 367.65,14.564 368.003,14.564 C368.355,14.564 368.627,14.324 368.627,13.924 L368.627,9.746 L369.875,9.746 C371.044,9.746 371.508,10.226 372.084,11.155 C372.484,11.795 372.9,12.723 373.396,14.116 C373.493,14.372 373.668,14.564 374.004,14.564 C374.34,14.564 374.628,14.324 374.628,13.94 C374.628,13.828 374.597,13.668 374.532,13.508 C374.102,12.355 373.589,11.155 373.093,10.386 L373.093,10.386 Z M370.068,8.53 L368.628,8.53 L368.628,4.496 C369.076,4.432 369.508,4.368 370.196,4.368 C372.485,4.368 373.206,5.264 373.206,6.449 C373.206,8.098 371.653,8.578 370.068,8.53 L370.068,8.53 Z M370.068,8.53" class="Shape"/>
                <path d="M250.222,11.324 L249.227,13.969 C249.151,13.692 249.014,13.438 248.813,13.207 C248.612,12.976 248.352,12.802 248.03,12.681 C247.591,12.516 247.15,12.482 246.709,12.578 C246.267,12.677 245.875,12.908 245.534,13.275 C245.192,13.642 244.922,14.092 244.722,14.626 C244.516,15.172 244.432,15.691 244.47,16.187 C244.508,16.681 244.661,17.113 244.929,17.482 C245.198,17.851 245.545,18.116 245.971,18.276 C246.627,18.523 247.225,18.446 247.763,18.044 L247.509,18.718 L248.349,19.033 L251.122,11.664 L250.222,11.324 L250.222,11.324 Z M248.499,16.133 C248.249,16.797 247.925,17.238 247.527,17.458 C247.129,17.677 246.732,17.713 246.336,17.563 C245.944,17.416 245.668,17.119 245.507,16.671 C245.346,16.223 245.395,15.658 245.652,14.975 C245.918,14.268 246.248,13.801 246.641,13.574 C247.035,13.347 247.432,13.31 247.834,13.461 C248.246,13.617 248.528,13.918 248.682,14.366 C248.834,14.813 248.773,15.402 248.499,16.133 L248.499,16.133 Z M257.576,16.411 L255.5,19.153 L254.805,20.068 L254.923,18.947 L255.289,15.55 L254.359,15.2 L252.333,18.007 C251.907,18.619 251.677,18.951 251.642,19.004 L251.757,17.738 L252.067,14.337 L251.132,13.985 L250.756,19.938 L251.701,20.294 L254.328,16.593 L254.191,17.581 L253.837,21.098 L254.776,21.452 L258.455,16.742 L257.576,16.411 L257.576,16.411 Z M229.647,5.732 C229.774,5.393 229.8,5.033 229.724,4.65 C229.648,4.267 229.468,3.938 229.183,3.661 C228.898,3.384 228.475,3.14 227.912,2.928 L225.147,1.887 L222.374,9.256 L225.184,10.315 C225.654,10.491 226.066,10.599 226.419,10.638 C226.773,10.678 227.088,10.659 227.363,10.578 C227.637,10.497 227.905,10.336 228.161,10.095 C228.419,9.853 228.613,9.56 228.743,9.215 C228.904,8.785 228.924,8.368 228.803,7.963 C228.683,7.559 228.424,7.206 228.027,6.908 C228.437,6.867 228.779,6.74 229.055,6.525 C229.332,6.312 229.528,6.047 229.647,5.732 L229.647,5.732 Z M227.733,8.834 C227.644,9.068 227.518,9.258 227.353,9.4 C227.188,9.542 227.013,9.632 226.827,9.67 C226.641,9.708 226.428,9.703 226.188,9.659 C226.052,9.635 225.826,9.562 225.511,9.444 L223.676,8.754 L224.63,6.221 L226.334,6.862 C226.803,7.04 227.147,7.216 227.366,7.391 C227.585,7.567 227.727,7.784 227.791,8.039 C227.856,8.294 227.836,8.56 227.733,8.834 L227.733,8.834 Z M228.643,5.486 C228.546,5.744 228.402,5.935 228.212,6.058 C228.022,6.182 227.79,6.234 227.513,6.214 C227.304,6.2 226.984,6.112 226.551,5.95 L224.957,5.349 L225.795,3.122 L227.268,3.676 C227.797,3.875 228.158,4.051 228.35,4.201 C228.542,4.351 228.661,4.543 228.709,4.772 C228.758,5.005 228.735,5.242 228.643,5.486 L228.643,5.486 Z M234.916,8.567 C234.631,7.911 234.122,7.445 233.388,7.169 C232.727,6.92 232.094,6.907 231.486,7.13 C230.757,7.399 230.207,8.027 229.835,9.017 C229.496,9.918 229.466,10.695 229.746,11.348 C230.027,12 230.541,12.467 231.288,12.748 C231.754,12.924 232.225,12.977 232.701,12.907 C233.177,12.838 233.591,12.644 233.945,12.328 C234.3,12.013 234.606,11.511 234.865,10.823 C235.183,9.976 235.2,9.224 234.916,8.567 L234.916,8.567 Z M233.917,10.52 C233.653,11.22 233.309,11.684 232.881,11.915 C232.454,12.144 232.017,12.175 231.568,12.006 C231.115,11.835 230.804,11.525 230.634,11.071 C230.464,10.619 230.507,10.051 230.764,9.368 C231.021,8.683 231.363,8.229 231.789,8.003 C232.215,7.776 232.654,7.749 233.106,7.919 C233.551,8.087 233.861,8.398 234.033,8.851 C234.205,9.304 234.166,9.858 233.917,10.52 L233.917,10.52 Z M245.453,12.043 C245.211,11.731 244.938,11.516 244.632,11.401 C244.421,11.322 244.205,11.308 243.984,11.363 C243.763,11.418 243.477,11.595 243.127,11.895 L243.431,11.086 L242.617,10.779 L240.608,16.118 L241.512,16.458 L242.564,13.663 C242.708,13.281 242.891,12.948 243.112,12.664 C243.258,12.478 243.432,12.356 243.634,12.296 C243.837,12.236 244.036,12.244 244.235,12.318 C244.456,12.401 244.653,12.549 244.825,12.763 L245.453,12.043 L245.453,12.043 Z M263.044,18.978 C262.971,18.764 262.812,18.55 262.567,18.336 C262.323,18.121 261.972,17.928 261.517,17.757 C261.057,17.584 260.63,17.495 260.235,17.488 C259.839,17.484 259.505,17.562 259.233,17.726 C258.962,17.889 258.713,18.145 258.491,18.494 L259.33,18.947 C259.57,18.605 259.819,18.398 260.078,18.325 C260.337,18.252 260.68,18.297 261.104,18.457 C261.56,18.628 261.865,18.859 262.02,19.15 C262.134,19.366 262.122,19.658 261.983,20.027 C261.97,20.06 261.938,20.138 261.888,20.26 C261.498,20.251 260.921,20.153 260.158,19.964 C259.783,19.873 259.498,19.818 259.303,19.798 C259.036,19.774 258.782,19.79 258.541,19.849 C258.299,19.908 258.078,20.022 257.877,20.193 C257.676,20.365 257.527,20.582 257.429,20.843 C257.262,21.288 257.281,21.714 257.488,22.118 C257.696,22.523 258.092,22.837 258.679,23.057 C259.033,23.19 259.388,23.256 259.742,23.256 C260.096,23.255 260.495,23.176 260.937,23.018 C260.869,23.279 260.848,23.521 260.87,23.744 L261.815,24.1 C261.778,23.853 261.782,23.61 261.828,23.373 C261.873,23.135 262.054,22.596 262.37,21.754 L262.824,20.548 C262.975,20.147 263.065,19.862 263.093,19.696 C263.134,19.43 263.116,19.189 263.044,18.978 L263.044,18.978 Z M261.497,21.301 C261.347,21.7 261.185,21.984 261.011,22.152 C260.784,22.369 260.507,22.503 260.178,22.552 C259.849,22.602 259.51,22.563 259.161,22.431 C258.809,22.299 258.572,22.118 258.451,21.888 C258.328,21.659 258.313,21.423 258.404,21.182 C258.464,21.024 258.559,20.897 258.691,20.799 C258.824,20.701 258.98,20.649 259.159,20.64 C259.339,20.63 259.624,20.669 260.016,20.755 C260.708,20.908 261.244,20.98 261.622,20.97 L261.497,21.301 L261.497,21.301 Z M240.729,10.578 C240.657,10.365 240.498,10.151 240.253,9.936 C240.009,9.722 239.658,9.529 239.202,9.357 C238.743,9.185 238.316,9.095 237.92,9.089 C237.524,9.084 237.191,9.163 236.918,9.327 C236.647,9.489 236.398,9.745 236.176,10.095 L237.015,10.548 C237.255,10.206 237.505,9.999 237.764,9.925 C238.023,9.853 238.365,9.897 238.791,10.057 C239.246,10.229 239.552,10.46 239.706,10.751 C239.82,10.967 239.808,11.258 239.669,11.627 C239.656,11.66 239.625,11.739 239.575,11.861 C239.184,11.851 238.607,11.753 237.844,11.565 C237.469,11.473 237.184,11.418 236.989,11.398 C236.721,11.375 236.468,11.391 236.226,11.45 C235.984,11.509 235.763,11.623 235.562,11.794 C235.362,11.966 235.212,12.183 235.114,12.444 C234.947,12.889 234.967,13.314 235.174,13.719 C235.381,14.123 235.778,14.437 236.364,14.657 C236.719,14.791 237.074,14.857 237.428,14.857 C237.782,14.856 238.181,14.777 238.623,14.618 C238.556,14.88 238.533,15.122 238.556,15.345 L239.501,15.7 C239.464,15.453 239.469,15.211 239.514,14.973 C239.559,14.735 239.741,14.197 240.057,13.355 L240.511,12.149 C240.662,11.747 240.752,11.462 240.78,11.297 C240.819,11.031 240.803,10.791 240.729,10.578 L240.729,10.578 Z M239.183,12.902 C239.033,13.301 238.871,13.585 238.697,13.753 C238.469,13.969 238.192,14.104 237.863,14.153 C237.534,14.203 237.196,14.164 236.847,14.032 C236.495,13.9 236.258,13.719 236.137,13.489 C236.014,13.26 235.999,13.023 236.09,12.783 C236.149,12.625 236.245,12.498 236.378,12.4 C236.51,12.302 236.666,12.25 236.845,12.24 C237.024,12.231 237.31,12.27 237.703,12.356 C238.394,12.509 238.93,12.581 239.309,12.571 L239.183,12.902 L239.183,12.902 Z M272.5,28.267 L273.229,28.541 L278.229,21.722 L277.505,21.45 L272.5,28.267 L272.5,28.267 Z M321.296,41.08 C321.011,40.424 320.502,39.957 319.767,39.682 C319.107,39.433 318.473,39.42 317.866,39.643 C317.137,39.912 316.586,40.541 316.214,41.53 C315.875,42.431 315.845,43.208 316.126,43.861 C316.407,44.514 316.921,44.98 317.668,45.261 C318.134,45.437 318.605,45.49 319.08,45.42 C319.556,45.35 319.971,45.157 320.325,44.842 C320.679,44.526 320.986,44.024 321.245,43.336 C321.563,42.488 321.581,41.736 321.296,41.08 L321.296,41.08 Z M320.298,43.031 C320.034,43.732 319.689,44.196 319.262,44.427 C318.835,44.656 318.397,44.687 317.948,44.518 C317.496,44.347 317.184,44.036 317.014,43.583 C316.844,43.131 316.888,42.562 317.145,41.879 C317.402,41.196 317.744,40.74 318.169,40.515 C318.595,40.288 319.034,40.26 319.486,40.431 C319.931,40.598 320.24,40.909 320.412,41.362 C320.584,41.814 320.546,42.371 320.298,43.031 L320.298,43.031 Z M316.954,38.955 C316.712,38.643 316.438,38.428 316.134,38.313 C315.923,38.234 315.707,38.22 315.485,38.275 C315.264,38.33 314.979,38.507 314.628,38.807 L314.932,37.998 L314.118,37.691 L312.109,43.03 L313.013,43.37 L314.065,40.575 C314.209,40.193 314.392,39.86 314.613,39.576 C314.759,39.39 314.933,39.268 315.136,39.208 C315.338,39.148 315.538,39.156 315.736,39.23 C315.957,39.313 316.154,39.461 316.326,39.675 L316.954,38.955 L316.954,38.955 Z M309.417,34.598 L313.413,36.102 L313.74,35.233 L308.769,33.362 L305.996,40.731 L306.971,41.098 L308.232,37.75 L311.69,39.051 L312.017,38.182 L308.559,36.88 L309.417,34.598 L309.417,34.598 Z M326.662,42.475 C326.436,42.257 326.162,42.088 325.84,41.967 C325.1,41.689 324.423,41.769 323.811,42.207 L324.096,41.448 L323.282,41.141 L321.273,46.48 L322.177,46.82 L323.275,43.905 C323.532,43.221 323.847,42.809 324.219,42.67 C324.591,42.531 324.969,42.534 325.354,42.68 C325.595,42.77 325.785,42.904 325.924,43.08 C326.063,43.256 326.132,43.449 326.134,43.658 C326.135,43.867 326.067,44.156 325.928,44.525 L324.705,47.772 L325.61,48.113 L326.845,44.83 C327.003,44.411 327.096,44.111 327.126,43.932 C327.169,43.654 327.159,43.396 327.096,43.158 C327.034,42.919 326.889,42.691 326.662,42.475 L326.662,42.475 Z M330.072,43.697 L330.774,41.833 L329.67,42.037 L329.172,43.359 L328.509,43.109 L328.244,43.812 L328.908,44.062 L327.752,47.133 C327.548,47.676 327.451,48.046 327.461,48.243 C327.471,48.44 327.547,48.625 327.689,48.796 C327.831,48.969 328.066,49.116 328.394,49.239 C328.595,49.315 328.833,49.374 329.108,49.417 L329.279,48.568 C329.106,48.529 328.968,48.492 328.868,48.454 C328.734,48.403 328.639,48.343 328.584,48.272 C328.529,48.201 328.498,48.123 328.495,48.038 C328.49,47.952 328.537,47.78 328.634,47.522 L329.809,44.4 L330.719,44.743 L330.984,44.039 L330.072,43.697 L330.072,43.697 Z M303.557,33.58 C303.346,33.5 303.13,33.487 302.908,33.542 C302.687,33.597 302.401,33.773 302.051,34.074 L302.355,33.265 L301.542,32.958 L299.532,38.296 L300.437,38.637 L301.489,35.842 C301.633,35.46 301.816,35.127 302.037,34.843 C302.183,34.657 302.357,34.534 302.56,34.475 C302.762,34.415 302.962,34.422 303.16,34.497 C303.381,34.58 303.578,34.728 303.75,34.942 L304.378,34.219 C304.135,33.908 303.861,33.694 303.557,33.58 L303.557,33.58 Z M286.386,33.35 L287.291,33.69 L289.3,28.352 L288.396,28.011 L286.386,33.35 L286.386,33.35 Z M285.98,28.588 C286.454,28.358 286.789,27.98 286.985,27.457 C287.137,27.052 287.175,26.643 287.096,26.231 C287.018,25.819 286.833,25.482 286.541,25.22 C286.249,24.96 285.774,24.705 285.117,24.458 L281.85,23.229 L279.076,30.598 L280.052,30.964 L281.283,27.693 L282.414,28.119 C282.665,28.213 282.842,28.293 282.944,28.358 C283.081,28.452 283.204,28.573 283.316,28.721 C283.425,28.869 283.529,29.097 283.625,29.4 C283.721,29.705 283.829,30.13 283.947,30.68 L284.345,32.58 L285.572,33.042 L285.045,30.554 C284.938,30.066 284.791,29.638 284.605,29.269 C284.517,29.098 284.367,28.902 284.155,28.681 C284.898,28.851 285.507,28.819 285.98,28.588 L285.98,28.588 Z M283.698,27.638 L281.602,26.849 L282.519,24.411 L284.852,25.29 C285.398,25.495 285.755,25.758 285.924,26.077 C286.092,26.397 286.111,26.731 285.98,27.08 C285.891,27.317 285.742,27.514 285.536,27.667 C285.328,27.821 285.082,27.896 284.796,27.894 C284.51,27.891 284.144,27.806 283.698,27.638 L283.698,27.638 Z M265.685,17.145 L262.912,24.514 L263.816,24.854 L266.59,17.485 L265.685,17.145 L265.685,17.145 Z M270.279,21.192 L267.32,22.557 L268.902,18.355 L267.997,18.014 L265.224,25.383 L266.128,25.724 L266.925,23.608 L267.794,23.235 L268.531,26.629 L269.646,27.049 L268.664,22.846 L271.45,21.633 L270.279,21.192 L270.279,21.192 Z M294.096,30.156 L291.684,32.967 C291.391,33.309 291.151,33.605 290.965,33.857 C291.002,33.446 291.022,33.044 291.028,32.653 L291.086,29.024 L290.131,28.665 L290.152,34.768 L290.997,35.085 L295.026,30.508 L294.096,30.156 L294.096,30.156 Z M299.537,32.899 C299.267,32.243 298.776,31.78 298.062,31.511 C297.325,31.234 296.631,31.255 295.982,31.577 C295.333,31.899 294.839,32.509 294.502,33.407 C294.176,34.275 294.15,35.036 294.426,35.688 C294.703,36.341 295.232,36.815 296.013,37.109 C296.633,37.342 297.199,37.383 297.711,37.232 C298.223,37.081 298.656,36.758 299.009,36.268 L298.118,35.8 C297.836,36.131 297.546,36.339 297.245,36.425 C296.945,36.511 296.629,36.491 296.297,36.366 C295.852,36.199 295.538,35.902 295.357,35.478 C295.175,35.054 295.179,34.542 295.366,33.944 L299.347,35.442 C299.39,35.336 299.423,35.256 299.443,35.203 C299.775,34.324 299.807,33.555 299.537,32.899 L299.537,32.899 Z M298.678,34.343 L295.698,33.221 C295.903,32.767 296.2,32.454 296.588,32.283 C296.976,32.111 297.378,32.104 297.793,32.261 C298.252,32.434 298.561,32.748 298.718,33.205 C298.82,33.499 298.807,33.879 298.678,34.343 L298.678,34.343 Z M288.768,27.021 L289.673,27.362 L290.065,26.321 L289.16,25.981 L288.768,27.021 L288.768,27.021 Z M288.768,27.021" class="Shape"/>
                <path d="M64.267,67.567 L70,71 L64,74 L64.267,67.567 Z M64.267,67.567" class="Shape"/>
                <path d="M436.29,140.703 L435.367,140.416 L435.037,141.478 L435.96,141.765 L436.29,140.703 L436.29,140.703 Z M398.855,137.309 L399.85,137.62 L401.912,130.988 L404.399,131.761 L404.675,130.873 L398.715,129.019 L398.44,129.907 L400.917,130.678 L398.855,137.309 L398.855,137.309 Z M405.028,147.124 C404.772,146.924 404.41,146.752 403.945,146.607 C403.477,146.461 403.045,146.397 402.65,146.415 C402.254,146.434 401.926,146.531 401.664,146.711 C401.402,146.89 401.17,147.159 400.968,147.521 L401.832,147.924 C402.052,147.569 402.288,147.348 402.542,147.259 C402.796,147.171 403.141,147.196 403.575,147.33 C404.04,147.475 404.358,147.687 404.529,147.97 C404.656,148.178 404.661,148.47 404.544,148.846 C404.534,148.88 404.507,148.96 404.464,149.086 C404.074,149.099 403.492,149.034 402.718,148.892 C402.338,148.823 402.051,148.784 401.854,148.776 C401.587,148.767 401.334,148.799 401.097,148.872 C400.859,148.944 400.644,149.072 400.454,149.254 C400.264,149.438 400.127,149.662 400.044,149.929 C399.903,150.384 399.948,150.807 400.178,151.2 C400.408,151.592 400.823,151.882 401.421,152.067 C401.783,152.18 402.141,152.226 402.495,152.205 C402.849,152.184 403.242,152.08 403.674,151.896 C403.622,152.161 403.614,152.404 403.65,152.625 L404.615,152.925 C404.563,152.68 404.553,152.438 404.585,152.198 C404.616,151.958 404.765,151.409 405.032,150.552 L405.415,149.321 C405.542,148.91 405.616,148.622 405.634,148.455 C405.658,148.185 405.627,147.946 405.542,147.738 C405.456,147.527 405.285,147.323 405.028,147.124 L405.028,147.124 Z M404.133,150.147 C404.007,150.554 403.861,150.846 403.697,151.023 C403.483,151.253 403.214,151.403 402.888,151.472 C402.562,151.541 402.222,151.521 401.867,151.41 C401.508,151.299 401.261,151.132 401.126,150.91 C400.99,150.687 400.961,150.453 401.037,150.207 C401.087,150.046 401.176,149.914 401.302,149.809 C401.427,149.704 401.581,149.642 401.759,149.622 C401.938,149.602 402.226,149.624 402.622,149.687 C403.322,149.799 403.86,149.839 404.238,149.807 L404.133,150.147 L404.133,150.147 Z M400.514,144.663 C400.458,144.305 400.332,144 400.137,143.75 C399.942,143.5 399.668,143.286 399.318,143.109 C399.07,142.979 398.696,142.838 398.197,142.681 L395.36,141.8 L393.022,149.319 L394.017,149.629 L394.968,146.571 L396.897,147.171 C397.96,147.502 398.764,147.51 399.309,147.193 C399.854,146.877 400.226,146.398 400.424,145.759 C400.539,145.387 400.57,145.021 400.514,144.663 L400.514,144.663 Z M399.388,145.472 C399.253,145.906 399.013,146.201 398.669,146.356 C398.325,146.511 397.831,146.489 397.188,146.29 L395.244,145.686 L396.08,142.998 L398.003,143.596 C398.454,143.737 398.757,143.855 398.911,143.951 C399.149,144.104 399.312,144.317 399.402,144.591 C399.49,144.862 399.486,145.156 399.388,145.472 L399.388,145.472 Z M407.706,136.99 C407.975,136.126 407.948,135.373 407.625,134.735 C407.303,134.096 406.767,133.661 406.018,133.427 C405.344,133.218 404.711,133.242 404.117,133.499 C403.405,133.811 402.892,134.471 402.579,135.479 C402.293,136.399 402.309,137.176 402.627,137.811 C402.945,138.447 403.486,138.882 404.248,139.12 C404.723,139.267 405.196,139.294 405.667,139.196 C406.138,139.098 406.541,138.882 406.876,138.546 C407.211,138.21 407.488,137.691 407.706,136.99 L407.706,136.99 Z M405.791,138.194 C405.378,138.448 404.943,138.505 404.484,138.362 C404.023,138.218 403.694,137.925 403.497,137.484 C403.3,137.043 403.311,136.472 403.528,135.775 C403.745,135.078 404.059,134.603 404.471,134.353 C404.883,134.102 405.32,134.048 405.781,134.192 C406.236,134.334 406.562,134.625 406.76,135.068 C406.959,135.509 406.953,136.068 406.743,136.741 C406.521,137.456 406.204,137.94 405.791,138.194 L405.791,138.194 Z M410.341,148.922 C410.082,148.624 409.796,148.427 409.485,148.33 C409.269,148.263 409.052,148.263 408.835,148.33 C408.618,148.397 408.343,148.591 408.011,148.912 L408.267,148.086 L407.436,147.828 L405.742,153.274 L406.666,153.561 L407.553,150.709 C407.674,150.319 407.837,149.976 408.041,149.68 C408.177,149.486 408.343,149.353 408.542,149.282 C408.74,149.211 408.94,149.206 409.142,149.269 C409.368,149.338 409.572,149.476 409.757,149.679 L410.341,148.922 L410.341,148.922 Z M434.722,142.488 L433.03,147.935 L433.953,148.222 L435.645,142.775 L434.722,142.488 L434.722,142.488 Z M432.299,141.78 C432.043,141.58 431.681,141.408 431.216,141.263 C430.747,141.117 430.317,141.054 429.92,141.071 C429.524,141.09 429.196,141.187 428.934,141.367 C428.672,141.546 428.441,141.815 428.239,142.177 L429.103,142.58 C429.323,142.225 429.559,142.003 429.813,141.915 C430.068,141.828 430.412,141.852 430.845,141.986 C431.31,142.131 431.628,142.343 431.799,142.626 C431.926,142.834 431.93,143.126 431.815,143.502 C431.803,143.536 431.778,143.616 431.735,143.741 C431.343,143.756 430.762,143.69 429.99,143.548 C429.61,143.479 429.323,143.44 429.126,143.431 C428.858,143.423 428.606,143.455 428.368,143.528 C428.13,143.601 427.916,143.727 427.724,143.91 C427.536,144.094 427.399,144.318 427.316,144.585 C427.174,145.039 427.218,145.463 427.449,145.856 C427.678,146.247 428.094,146.537 428.692,146.722 C429.053,146.834 429.413,146.881 429.765,146.86 C430.119,146.839 430.512,146.735 430.945,146.551 C430.892,146.816 430.883,147.059 430.921,147.28 L431.885,147.581 C431.834,147.336 431.824,147.094 431.857,146.854 C431.887,146.614 432.038,146.065 432.303,145.208 L432.686,143.977 C432.814,143.567 432.886,143.278 432.905,143.111 C432.928,142.841 432.899,142.602 432.812,142.394 C432.726,142.184 432.555,141.979 432.299,141.78 L432.299,141.78 Z M431.404,144.804 C431.277,145.21 431.133,145.503 430.967,145.68 C430.753,145.91 430.485,146.06 430.158,146.129 C429.833,146.198 429.493,146.178 429.137,146.067 C428.78,145.955 428.532,145.789 428.397,145.566 C428.261,145.344 428.232,145.111 428.308,144.864 C428.359,144.703 428.447,144.57 428.574,144.466 C428.7,144.362 428.852,144.299 429.031,144.279 C429.21,144.259 429.498,144.281 429.893,144.344 C430.592,144.456 431.131,144.496 431.509,144.464 L431.404,144.804 L431.404,144.804 Z M437.674,141.134 L435.336,148.653 L436.259,148.94 L438.597,141.421 L437.674,141.134 L437.674,141.134 Z M426.821,140.818 L427.75,141.107 L427.973,140.389 L427.044,140.101 L427.636,138.198 L426.546,138.467 L426.127,139.816 L425.45,139.606 L425.227,140.323 L425.904,140.534 L424.929,143.668 C424.757,144.223 424.682,144.598 424.703,144.793 C424.724,144.989 424.81,145.169 424.963,145.332 C425.114,145.495 425.358,145.63 425.693,145.733 C425.898,145.797 426.14,145.842 426.416,145.868 L426.536,145.012 C426.361,144.984 426.223,144.953 426.12,144.921 C425.983,144.879 425.885,144.824 425.825,144.757 C425.765,144.69 425.732,144.613 425.723,144.528 C425.713,144.443 425.749,144.268 425.831,144.005 L426.821,140.818 L426.821,140.818 Z M418.72,136.247 C418.618,135.841 418.413,135.516 418.107,135.271 C417.8,135.028 417.312,134.801 416.642,134.593 L413.308,133.556 L410.97,141.076 L411.965,141.386 L413.003,138.047 L414.157,138.405 C414.413,138.485 414.594,138.554 414.699,138.613 C414.841,138.699 414.972,138.812 415.091,138.955 C415.209,139.097 415.325,139.316 415.44,139.615 C415.553,139.912 415.686,140.332 415.836,140.873 L416.345,142.747 L417.597,143.137 L416.925,140.684 C416.789,140.204 416.617,139.784 416.41,139.427 C416.311,139.262 416.15,139.074 415.926,138.865 C416.678,138.99 417.284,138.924 417.743,138.666 C418.203,138.407 418.514,138.011 418.681,137.478 C418.809,137.064 418.822,136.653 418.72,136.247 L418.72,136.247 Z M417.654,137.159 C417.578,137.401 417.443,137.605 417.245,137.771 C417.047,137.936 416.805,138.026 416.52,138.04 C416.234,138.055 415.864,137.991 415.409,137.85 L413.27,137.185 L414.043,134.698 L416.423,135.438 C416.981,135.611 417.353,135.853 417.539,136.162 C417.727,136.471 417.765,136.803 417.654,137.159 L417.654,137.159 Z M422.389,138.519 C421.637,138.286 420.947,138.348 420.317,138.707 C419.688,139.065 419.231,139.704 418.945,140.62 C418.67,141.506 418.69,142.266 419.004,142.902 C419.318,143.538 419.873,143.979 420.67,144.227 C421.303,144.423 421.87,144.431 422.373,144.25 C422.875,144.069 423.288,143.723 423.612,143.212 L422.695,142.798 C422.433,143.144 422.155,143.369 421.861,143.472 C421.566,143.576 421.25,143.576 420.911,143.47 C420.457,143.328 420.127,143.051 419.921,142.639 C419.715,142.226 419.689,141.715 419.841,141.107 L423.903,142.37 C423.941,142.262 423.968,142.18 423.985,142.125 C424.265,141.226 424.251,140.457 423.943,139.817 C423.635,139.178 423.118,138.745 422.389,138.519 L422.389,138.519 Z M423.17,141.31 L420.128,140.364 C420.307,139.899 420.585,139.569 420.962,139.375 C421.339,139.181 421.739,139.149 422.163,139.282 C422.632,139.428 422.957,139.723 423.142,140.171 C423.262,140.459 423.271,140.838 423.17,141.31 L423.17,141.31 Z M414.057,149.887 L411.183,151.422 L412.516,147.135 L411.593,146.848 L409.255,154.368 L410.178,154.655 L410.85,152.495 L411.696,152.072 L412.631,155.417 L413.77,155.771 L412.542,151.631 L415.252,150.258 L414.057,149.887 L414.057,149.887 Z M414.057,149.887" class="Shape"/>
                <path d="M355.832,44.659 L355.073,47.381 C354.973,47.111 354.814,46.871 354.594,46.659 C354.375,46.447 354.099,46.296 353.768,46.203 C353.316,46.077 352.874,46.082 352.442,46.219 C352.01,46.355 351.64,46.62 351.333,47.016 C351.026,47.412 350.796,47.884 350.643,48.433 C350.486,48.995 350.448,49.52 350.53,50.01 C350.611,50.498 350.802,50.915 351.102,51.259 C351.402,51.603 351.771,51.836 352.209,51.957 C352.885,52.146 353.473,52.016 353.973,51.568 L353.78,52.261 L354.644,52.502 L356.758,44.917 L355.832,44.659 L355.832,44.659 Z M354.538,49.602 C354.348,50.286 354.063,50.753 353.686,51.006 C353.309,51.26 352.916,51.33 352.509,51.217 C352.106,51.104 351.804,50.832 351.605,50.402 C351.406,49.97 351.404,49.403 351.6,48.7 C351.803,47.972 352.09,47.477 352.462,47.218 C352.834,46.956 353.227,46.884 353.641,46.999 C354.065,47.118 354.373,47.394 354.565,47.825 C354.756,48.258 354.748,48.85 354.538,49.602 L354.538,49.602 Z M360.563,48.298 C360.272,48.083 359.911,47.916 359.48,47.795 C359.193,47.716 358.915,47.678 358.645,47.682 C358.374,47.687 358.151,47.723 357.977,47.789 C357.745,47.873 357.544,48.004 357.373,48.182 C357.203,48.359 357.084,48.57 357.016,48.815 C356.941,49.085 356.941,49.348 357.015,49.61 C357.089,49.87 357.24,50.099 357.47,50.299 C357.698,50.498 358.13,50.779 358.765,51.143 C359.236,51.412 359.524,51.605 359.629,51.723 C359.777,51.895 359.823,52.086 359.764,52.296 C359.699,52.531 359.538,52.706 359.283,52.822 C359.027,52.939 358.685,52.937 358.258,52.818 C357.834,52.7 357.531,52.509 357.349,52.248 C357.167,51.984 357.102,51.662 357.154,51.278 L356.193,51.167 C356.134,51.778 356.25,52.285 356.542,52.686 C356.834,53.087 357.336,53.387 358.05,53.586 C358.482,53.706 358.888,53.738 359.272,53.684 C359.655,53.628 359.976,53.49 360.234,53.266 C360.49,53.042 360.663,52.776 360.75,52.465 C360.838,52.148 360.838,51.861 360.75,51.606 C360.661,51.351 360.502,51.131 360.273,50.946 C360.044,50.761 359.625,50.49 359.014,50.131 C358.594,49.88 358.342,49.724 358.258,49.663 C358.114,49.553 358.018,49.436 357.97,49.315 C357.921,49.198 357.913,49.079 357.948,48.958 C358.001,48.769 358.138,48.628 358.361,48.537 C358.583,48.446 358.908,48.462 359.336,48.581 C359.698,48.682 359.957,48.839 360.11,49.053 C360.263,49.267 360.322,49.522 360.285,49.816 L361.23,49.945 C361.27,49.574 361.242,49.26 361.147,49.006 C361.049,48.748 360.855,48.513 360.563,48.298 L360.563,48.298 Z M347.866,50.613 L348.797,50.873 L350.328,45.379 L349.397,45.119 L347.866,50.613 L347.866,50.613 Z M349.116,42.788 L347.756,42.408 L342.941,45.12 L343.99,41.358 L342.986,41.079 L340.872,48.664 L341.876,48.943 L342.608,46.315 L344.187,45.451 L345.818,50.043 L347.143,50.412 L345.079,44.974 L349.116,42.788 L349.116,42.788 Z M350.911,43.288 L349.98,43.028 L349.681,44.099 L350.612,44.359 L350.911,43.288 L350.911,43.288 Z M382.704,57.854 C382.443,58.219 382.198,58.601 381.973,58.999 C381.98,58.522 381.965,58.061 381.929,57.616 L381.672,54.115 L380.669,53.835 L381.22,59.922 C381.154,60.011 381.105,60.079 381.074,60.126 C380.84,60.458 380.681,60.663 380.596,60.74 C380.482,60.842 380.353,60.91 380.21,60.945 C380.066,60.979 379.892,60.967 379.685,60.909 C379.533,60.867 379.364,60.79 379.175,60.679 L379.035,61.582 C379.235,61.719 379.424,61.813 379.603,61.863 C379.9,61.946 380.175,61.945 380.429,61.861 C380.683,61.778 380.935,61.606 381.186,61.344 C381.374,61.151 381.663,60.784 382.056,60.243 L385.704,55.237 L384.772,54.978 L382.704,57.854 L382.704,57.854 Z M398.847,59.091 C398.578,58.801 398.287,58.612 397.973,58.524 C397.756,58.463 397.54,58.47 397.324,58.544 C397.109,58.618 396.84,58.819 396.517,59.15 L396.749,58.317 L395.911,58.084 L394.38,63.578 L395.311,63.838 L396.113,60.961 C396.222,60.567 396.375,60.22 396.571,59.918 C396.701,59.72 396.863,59.583 397.06,59.505 C397.256,59.428 397.456,59.417 397.66,59.474 C397.888,59.537 398.097,59.668 398.286,59.867 L398.847,59.091 L398.847,59.091 Z M371.82,50.365 C371.754,50.008 371.619,49.707 371.415,49.463 C371.212,49.219 370.933,49.014 370.578,48.848 C370.326,48.725 369.949,48.594 369.445,48.453 L366.584,47.656 L364.47,55.241 L365.473,55.52 L366.332,52.437 L368.278,52.979 C369.351,53.278 370.154,53.261 370.69,52.929 C371.226,52.597 371.582,52.108 371.762,51.463 C371.866,51.088 371.886,50.721 371.82,50.365 L371.82,50.365 Z M370.718,51.206 C370.596,51.644 370.364,51.946 370.026,52.111 C369.686,52.277 369.192,52.269 368.543,52.089 L366.582,51.542 L367.337,48.831 L369.277,49.371 C369.732,49.498 370.039,49.607 370.195,49.7 C370.436,49.846 370.606,50.054 370.704,50.324 C370.802,50.594 370.807,50.889 370.718,51.206 L370.718,51.206 Z M409.328,62.316 C409.237,62.11 409.059,61.911 408.798,61.718 C408.535,61.527 408.169,61.364 407.7,61.235 C407.227,61.103 406.794,61.051 406.399,61.081 C406.003,61.111 405.678,61.219 405.422,61.406 C405.166,61.592 404.942,61.869 404.751,62.236 L405.626,62.614 C405.835,62.252 406.065,62.023 406.317,61.926 C406.569,61.83 406.913,61.844 407.351,61.966 C407.82,62.097 408.144,62.301 408.324,62.578 C408.456,62.782 408.47,63.073 408.364,63.453 C408.355,63.487 408.33,63.568 408.291,63.694 C407.901,63.719 407.318,63.672 406.541,63.552 C406.16,63.493 405.871,63.463 405.674,63.46 C405.406,63.461 405.155,63.5 404.919,63.579 C404.684,63.658 404.473,63.792 404.288,63.98 C404.103,64.168 403.975,64.397 403.899,64.667 C403.771,65.125 403.828,65.548 404.07,65.933 C404.312,66.318 404.736,66.595 405.339,66.763 C405.705,66.865 406.064,66.901 406.416,66.868 C406.77,66.836 407.159,66.722 407.586,66.524 C407.541,66.792 407.54,67.034 407.583,67.254 L408.556,67.525 C408.497,67.282 408.48,67.04 408.504,66.8 C408.528,66.559 408.661,66.006 408.902,65.141 L409.248,63.899 C409.363,63.485 409.427,63.194 409.441,63.027 C409.458,62.76 409.42,62.521 409.328,62.316 L409.328,62.316 Z M407.993,64.768 C407.878,65.178 407.742,65.475 407.583,65.658 C407.376,65.893 407.111,66.052 406.788,66.131 C406.465,66.21 406.124,66.199 405.765,66.099 C405.403,65.998 405.151,65.839 405.009,65.621 C404.867,65.403 404.831,65.17 404.901,64.921 C404.946,64.759 405.03,64.624 405.153,64.515 C405.277,64.407 405.427,64.34 405.605,64.316 C405.783,64.291 406.071,64.304 406.469,64.356 C407.172,64.447 407.712,64.471 408.089,64.427 L407.993,64.768 L407.993,64.768 Z M401.74,59.574 C400.982,59.362 400.293,59.445 399.675,59.823 C399.057,60.201 398.619,60.852 398.361,61.776 C398.112,62.67 398.154,63.429 398.487,64.055 C398.82,64.682 399.388,65.107 400.192,65.33 C400.831,65.508 401.398,65.499 401.895,65.303 C402.392,65.107 402.795,64.749 403.103,64.23 L402.174,63.842 C401.923,64.196 401.652,64.429 401.361,64.54 C401.07,64.652 400.753,64.661 400.411,64.565 C399.953,64.438 399.615,64.17 399.397,63.764 C399.179,63.358 399.137,62.848 399.271,62.235 L403.369,63.377 C403.403,63.268 403.428,63.186 403.443,63.13 C403.696,62.223 403.659,61.454 403.333,60.825 C403.005,60.195 402.475,59.778 401.74,59.574 L401.74,59.574 Z M402.603,62.34 L399.536,61.485 C399.7,61.014 399.969,60.676 400.34,60.471 C400.711,60.266 401.111,60.223 401.538,60.342 C402.011,60.475 402.345,60.761 402.541,61.202 C402.669,61.486 402.69,61.866 402.603,62.34 L402.603,62.34 Z M391.635,54.639 L386.608,61.411 L387.674,61.709 L389.147,59.644 L392.319,60.528 L392.564,63.072 L393.707,63.39 L392.717,54.94 L391.635,54.639 L391.635,54.639 Z M389.665,58.906 L391.118,56.914 C391.427,56.484 391.698,56.039 391.93,55.579 C391.932,56.022 391.966,56.597 392.03,57.303 L392.236,59.623 L389.665,58.906 L389.665,58.906 Z M373.511,49.587 L371.397,57.172 L372.328,57.432 L374.442,49.847 L373.511,49.587 L373.511,49.587 Z M378.863,56.771 L379.209,55.53 C379.324,55.116 379.389,54.825 379.402,54.658 C379.418,54.387 379.38,54.148 379.288,53.943 C379.197,53.738 379.02,53.539 378.758,53.346 C378.496,53.154 378.13,52.992 377.661,52.862 C377.188,52.73 376.755,52.679 376.361,52.709 C375.965,52.738 375.64,52.847 375.383,53.033 C375.127,53.22 374.903,53.497 374.711,53.863 L375.587,54.242 C375.796,53.879 376.026,53.65 376.277,53.555 C376.528,53.459 376.873,53.473 377.311,53.595 C377.78,53.726 378.104,53.93 378.284,54.206 C378.417,54.41 378.43,54.702 378.324,55.081 C378.314,55.116 378.29,55.196 378.252,55.323 C377.861,55.348 377.278,55.301 376.501,55.18 C376.119,55.122 375.831,55.092 375.635,55.089 C375.367,55.089 375.115,55.129 374.88,55.207 C374.644,55.287 374.434,55.421 374.249,55.609 C374.064,55.797 373.935,56.026 373.859,56.295 C373.732,56.754 373.789,57.176 374.031,57.562 C374.273,57.947 374.696,58.223 375.3,58.392 C375.665,58.494 376.025,58.529 376.377,58.496 C376.731,58.465 377.12,58.35 377.546,58.153 C377.502,58.42 377.501,58.663 377.544,58.882 L378.517,59.153 C378.458,58.91 378.441,58.668 378.466,58.427 C378.491,58.186 378.622,57.638 378.863,56.771 L378.863,56.771 Z M377.953,56.396 C377.839,56.806 377.702,57.103 377.543,57.286 C377.336,57.521 377.071,57.68 376.749,57.759 C376.425,57.837 376.084,57.827 375.726,57.727 C375.364,57.626 375.112,57.467 374.97,57.249 C374.827,57.03 374.792,56.798 374.861,56.549 C374.906,56.387 374.99,56.251 375.114,56.143 C375.237,56.035 375.387,55.968 375.566,55.943 C375.744,55.919 376.031,55.931 376.43,55.983 C377.133,56.075 377.673,56.099 378.05,56.055 L377.953,56.396 L377.953,56.396 Z M377.953,56.396" class="Shape"/>
                <path d="M28.25,69.167 C27.462,69.167 26.821,69.432 26.327,69.962 C25.833,70.492 25.586,71.237 25.586,72.196 C25.586,73.123 25.831,73.844 26.319,74.358 C26.808,74.872 27.469,75.129 28.304,75.129 C28.967,75.129 29.511,74.968 29.937,74.646 C30.363,74.324 30.655,73.871 30.812,73.287 L29.813,73.163 C29.666,73.571 29.467,73.869 29.217,74.055 C28.967,74.241 28.664,74.334 28.309,74.334 C27.833,74.334 27.435,74.167 27.117,73.834 C26.799,73.501 26.621,73.021 26.585,72.395 L30.839,72.395 C30.842,72.28 30.844,72.194 30.844,72.137 C30.844,71.195 30.602,70.465 30.119,69.946 C29.636,69.427 29.013,69.167 28.25,69.167 L28.25,69.167 Z M26.639,71.6 C26.671,71.102 26.839,70.705 27.141,70.408 C27.443,70.111 27.817,69.962 28.261,69.962 C28.752,69.962 29.151,70.148 29.459,70.521 C29.66,70.761 29.781,71.121 29.824,71.601 L26.639,71.6 L26.639,71.6 Z M58.898,75 L59.865,75 L59.865,67.126 L58.898,67.126 L58.898,75 L58.898,75 Z M35.509,71.989 C35.239,71.873 34.762,71.723 34.078,71.541 C33.605,71.412 33.321,71.33 33.224,71.294 C33.056,71.226 32.932,71.14 32.853,71.036 C32.774,70.936 32.735,70.823 32.735,70.698 C32.735,70.501 32.83,70.329 33.02,70.182 C33.21,70.035 33.527,69.962 33.971,69.962 C34.347,69.962 34.638,70.045 34.844,70.209 C35.05,70.374 35.175,70.603 35.218,70.897 L36.163,70.768 C36.102,70.399 35.991,70.105 35.83,69.884 C35.669,69.664 35.419,69.489 35.08,69.361 C34.742,69.232 34.349,69.168 33.901,69.168 C33.604,69.168 33.325,69.207 33.066,69.283 C32.806,69.36 32.601,69.454 32.451,69.565 C32.25,69.708 32.092,69.888 31.975,70.105 C31.859,70.321 31.801,70.557 31.801,70.811 C31.801,71.09 31.872,71.345 32.013,71.577 C32.154,71.807 32.362,71.989 32.636,72.119 C32.909,72.25 33.401,72.405 34.11,72.584 C34.636,72.716 34.966,72.826 35.098,72.912 C35.288,73.037 35.383,73.209 35.383,73.428 C35.383,73.672 35.276,73.884 35.061,74.064 C34.846,74.245 34.517,74.335 34.073,74.335 C33.633,74.335 33.29,74.233 33.045,74.029 C32.799,73.825 32.65,73.531 32.596,73.148 L31.64,73.298 C31.747,73.903 31.995,74.36 32.384,74.668 C32.773,74.976 33.338,75.13 34.079,75.13 C34.527,75.13 34.928,75.052 35.282,74.897 C35.636,74.741 35.907,74.521 36.096,74.236 C36.284,73.952 36.378,73.648 36.378,73.326 C36.378,72.996 36.301,72.721 36.147,72.499 C35.993,72.277 35.78,72.106 35.509,71.989 L35.509,71.989 Z M22.976,72.186 C22.815,72.831 22.684,73.402 22.584,73.899 C22.459,73.029 22.254,72.1 21.972,71.111 L20.844,67.126 L19.587,67.126 L18.088,72.443 C18.052,72.572 17.934,73.057 17.734,73.899 C17.641,73.365 17.53,72.828 17.401,72.288 L16.203,67.126 L15.134,67.126 L17.224,75 L18.287,75 L19.957,69 C20.029,68.746 20.105,68.438 20.188,68.076 C20.213,68.191 20.295,68.498 20.435,69 L22.095,75 L23.1,75 L25.259,67.126 L24.212,67.126 L22.976,72.186 L22.976,72.186 Z M61.342,67.126 L61.342,75 L62.309,75 L62.309,67.126 L61.342,67.126 L61.342,67.126 Z M39.213,74.173 C39.07,74.173 38.96,74.15 38.882,74.103 C38.805,74.057 38.75,73.994 38.716,73.915 C38.682,73.836 38.665,73.659 38.665,73.383 L38.665,70.048 L39.637,70.048 L39.637,69.296 L38.665,69.296 L38.665,67.303 L37.704,67.883 L37.704,69.296 L36.995,69.296 L36.995,70.048 L37.704,70.048 L37.704,73.33 C37.704,73.91 37.744,74.29 37.822,74.471 C37.901,74.652 38.037,74.798 38.23,74.909 C38.423,75.02 38.695,75.076 39.046,75.076 C39.261,75.076 39.504,75.047 39.776,74.99 L39.636,74.136 C39.462,74.16 39.32,74.173 39.213,74.173 L39.213,74.173 Z M57.421,72.61 L57.421,71.321 C57.421,70.891 57.405,70.594 57.373,70.429 C57.316,70.164 57.215,69.945 57.072,69.771 C56.929,69.597 56.705,69.453 56.401,69.338 C56.097,69.223 55.701,69.166 55.214,69.166 C54.723,69.166 54.292,69.233 53.92,69.367 C53.547,69.502 53.263,69.693 53.066,69.942 C52.869,70.191 52.728,70.517 52.642,70.922 L53.587,71.051 C53.691,70.646 53.851,70.364 54.068,70.205 C54.284,70.046 54.62,69.966 55.075,69.966 C55.562,69.966 55.929,70.075 56.176,70.294 C56.359,70.455 56.45,70.732 56.45,71.127 C56.45,71.163 56.448,71.247 56.445,71.379 C56.076,71.508 55.502,71.619 54.721,71.712 C54.338,71.758 54.052,71.807 53.862,71.857 C53.604,71.929 53.372,72.034 53.167,72.174 C52.961,72.314 52.794,72.499 52.667,72.73 C52.54,72.961 52.477,73.216 52.477,73.496 C52.477,73.972 52.645,74.363 52.982,74.67 C53.318,74.976 53.8,75.129 54.427,75.129 C54.806,75.129 55.162,75.067 55.493,74.941 C55.825,74.816 56.169,74.601 56.527,74.296 C56.556,74.565 56.62,74.799 56.72,75 L57.73,75 C57.608,74.782 57.527,74.553 57.486,74.315 C57.441,74.077 57.421,73.509 57.421,72.61 L57.421,72.61 Z M56.443,72.492 C56.443,72.918 56.391,73.241 56.287,73.459 C56.151,73.742 55.938,73.965 55.648,74.127 C55.358,74.29 55.027,74.372 54.654,74.372 C54.278,74.372 53.992,74.286 53.798,74.114 C53.603,73.942 53.505,73.727 53.505,73.468 C53.505,73.3 53.55,73.147 53.639,73.009 C53.728,72.871 53.856,72.767 54.02,72.695 C54.184,72.623 54.466,72.559 54.863,72.502 C55.565,72.402 56.091,72.28 56.442,72.137 L56.443,72.492 L56.443,72.492 Z M47.957,72.604 C47.767,73.159 47.627,73.58 47.538,73.866 C47.459,73.608 47.334,73.22 47.162,72.7 L45.298,67.125 L43.73,67.125 L43.73,75 L44.734,75 L44.734,68.297 L47.012,75 L47.952,75 L50.24,68.41 L50.24,75 L51.244,75 L51.244,67.126 L49.842,67.126 L47.957,72.604 L47.957,72.604 Z M47.957,72.604" class="Shape"/>
                <path d="M421.833,151 L419.833,156.5 L426.333,156.5 L421.833,151 Z M421.833,151" class="Shape"/>
            </g>
            <g class="background">
                <path d="M155.211,100.725 L139.234,96.708 L137.79,97.745 L125.378,94.677 L135.398,87.501 L135.398,86.689 L126.823,84.521 L125.288,85.604 L125.288,86.416 L130.975,87.86 L120.639,95.217 L120.639,96.029 L146.32,102.439 L135.804,109.929 L135.804,110.741 L140.768,111.961 L155.21,101.536 L155.211,100.725 L155.211,100.725 Z M350.594,103.929 L350.59,103.929 L353.976,104.697 L358.442,101.492 L369.004,104.201 L384.168,93.368 L400.733,97.386 L400.733,96.528 C400.552,95.267 399.425,93.867 397.348,92.334 C395.995,91.308 394.895,90.619 394.053,90.258 L382.274,87.323 L363.859,100.457 L342.556,95.132 L365.98,78.388 L379.07,81.637 L386.922,79.11 L386.922,78.908 L388.998,79.427 L393.419,76.268 L393.419,75.45 L386.105,73.354 L386.108,73.284 L377.443,70.667 L373.862,71.683 L367.56,70.126 L368.418,69.493 L368.418,68.681 L318.637,56.811 L313.897,60.015 L309.746,62.859 L300.945,60.647 C300.494,60.527 300.206,60.346 300.088,60.105 L300.132,60.015 L300.177,59.834 L300.222,59.472 L300.222,58.57 C300.222,57.637 299.727,56.751 298.736,55.907 C297.472,54.794 295.47,53.891 292.733,53.2 L291.514,52.929 L280.907,52.568 C280.525,52.62 280.169,52.685 279.803,52.748 L275.399,48.553 L278.785,46.16 L281.493,46.837 L285.103,44.264 L285.103,43.452 L284.744,43.407 L285.06,42.776 L285.06,41.964 L280.639,41.513 L279.556,42.28 L274.547,41.016 L277.569,38.895 L277.569,38.038 L226.43,18.677 L223.768,20.573 L219.752,19.58 L171.008,54.378 L145.779,48.149 L135.849,55.415 L135.849,55.46 L135.127,55.279 L122.037,64.622 L118.787,65.073 L96.719,59.567 L80.472,71.162 L80.472,72.019 L90.13,74.412 L104.573,72.742 L118.292,76.172 L121.498,75.766 L126.281,76.985 L131.201,76.443 L168.173,85.663 L161.304,90.57 L161.259,91.427 L168.164,93.143 L175.771,87.557 L203.774,94.538 L204,96.072 L208.649,97.201 L210.951,100.992 L222.414,103.791 L231.666,103.022 L235.728,104.06 L238.978,103.833 L246.362,105.928 L240.452,109.431 L247.643,111.55 L252.392,107.431 L299.683,119.001 L303.068,116.7 L313.719,115.57 L321.436,117.376 L325.002,117.016 L362.103,126.312 L363.277,128.117 L367.923,129.292 L371.895,128.705 L373.431,129.067 L380.878,123.742 L380.878,122.93 L372.258,120.808 L367.021,121.35 L350.458,117.198 L350.052,116.566 L330.738,111.737 L330.195,110.88 L338.123,105.224 L338.726,105.374 L345.359,100.814 L350.009,101.943 L350.009,102.755 L350.776,102.98 L350.597,103.114 L350.597,103.929 L350.594,103.929 L350.594,103.929 Z M328.701,74.999 L329.017,74.863 L329.062,74.863 L329.648,74.548 L329.693,74.502 L329.738,74.502 L330.46,74.051 L330.507,74.006 L330.778,73.87 L331.362,73.464 L331.588,73.238 L331.68,73.103 L331.725,73.058 L331.77,73.058 L332.041,72.562 L332.089,72.336 L332.134,72.292 L332.134,72.247 L332.179,71.885 L332.179,70.983 C332.24,70.321 331.968,69.538 331.366,68.635 L329.561,63.58 L345.932,67.58 L345.625,67.868 L345.625,68.68 L346.979,68.996 L347.25,69.491 L345.038,71.387 L344.407,71.251 L343.053,72.244 L343.053,73.056 L343.235,73.101 L340.978,74.725 L339.535,74.41 L333.893,79.103 L333.619,79.014 L332.583,79.736 L326.535,78.247 L326.082,78.569 L326.082,78.158 L324.457,76.036 L328.701,74.999 L328.701,74.999 Z M271.662,72.874 L271.705,72.829 L271.976,72.468 L272.021,72.423 L272.518,72.017 L272.61,71.972 L272.655,71.927 L272.836,71.882 L272.928,71.836 L273.245,71.746 L273.335,71.7 L276.812,71.024 L277.76,70.933 L280.242,70.933 L280.499,70.982 L281.266,71.027 L281.99,71.071 L282.486,71.161 L282.576,71.161 L283.253,71.251 L283.389,71.251 L284.065,71.387 L284.155,71.387 L286.097,71.703 L286.187,71.748 L287.226,71.929 L287.497,72.019 L289.484,72.47 L298.059,75.629 L298.24,75.675 L298.419,75.675 L300.361,75.856 L300.45,75.901 L300.95,75.945 L301.082,75.945 L302.078,76.035 L302.349,76.035 L302.574,76.081 L303.703,76.126 L303.974,76.171 L305.148,76.217 L305.373,76.262 L306.637,76.307 L306.864,76.352 L308.307,76.396 L308.533,76.441 L309.436,76.441 L309.754,76.486 L319.862,76.532 L321.037,78.202 L318.826,79.826 L312.689,78.292 L311.468,79.24 L311.468,80.097 L320.708,82.407 L315.845,85.875 L307.271,83.753 L310.701,81.271 L310.746,80.459 L308.219,79.872 L303.886,82.985 L298.516,81.587 L301.63,79.375 L301.63,78.563 L296.572,77.299 L297.611,76.532 L297.611,75.72 L293.504,74.727 L291.337,76.262 L287.816,75.359 L284.342,77.841 L279.004,76.529 L279.063,76.486 C279.122,75.975 279.045,75.674 278.836,75.584 L274.639,74.32 C272.714,73.718 271.689,73.327 271.57,73.147 L271.662,72.874 L271.662,72.874 Z M272.829,77.04 L272.601,76.985 L271.866,77.52 L271.203,76.623 L272.829,77.04 L272.829,77.04 Z M183.148,56.539 L212.44,35.824 L219.842,34.018 L227.921,34.018 L247.823,38.982 L252.112,42.277 L252.067,44.895 L239.973,53.618 L239.385,53.47 L234.51,56.946 L234.51,57.359 L223.092,65.521 L215.553,67.507 L207.339,67.507 L187.3,62.497 L182.922,59.338 L183.148,56.539 L183.148,56.539 Z M259.018,63.896 L248.851,71.172 L237.759,68.409 L247.908,61.134 L259.018,63.896 L259.018,63.896 Z M229.996,88.358 L219.255,89.576 L213.478,88.132 L207.926,88.719 L163.787,77.706 L163.787,77.165 C163.787,75.962 161.47,74.367 156.837,72.381 C154.521,71.327 151.452,70.319 147.63,69.358 C144.261,68.514 140.86,67.914 137.43,67.552 L130.796,65.882 L130.435,64.799 L137.25,59.97 L137.25,59.112 L135.942,58.797 L138.56,56.946 L138.56,56.883 L145.691,58.615 L148.399,56.584 L155.891,58.48 L155.801,58.524 L155.801,59.381 L157.696,59.832 L157.696,60.419 L180.307,66.061 L180.939,65.609 L223.138,76.126 L222.281,76.758 L222.236,77.57 L232.932,80.233 L234.512,79.104 L234.512,78.293 L225.892,76.127 L234.873,69.719 L240.018,70.983 L238.121,72.337 L238.121,73.149 L244.028,74.625 L241.869,76.172 L241.869,76.984 L244.893,77.752 L229.996,88.358 L229.996,88.358 Z M333.388,103.115 L332.675,102.936 L324.324,108.894 L320.581,109.3 L309.161,106.456 L302.391,107.088 L289.935,109.119 L247.19,98.469 L246.108,96.302 L240.917,95.041 L238.752,91.563 L249.54,83.983 L254.232,83.532 L260.866,85.199 L262.174,84.432 L264.476,84.974 L265.424,84.296 L265.469,83.439 L256.352,81.182 L260.233,78.384 L266.055,77.933 L272.884,79.74 L270.839,81.227 L270.839,82.039 L286.277,85.876 L281.627,89.17 L268.088,85.831 L265.741,87.501 L258.881,85.831 L255.992,87.861 L255.992,88.673 L258.159,89.215 L259.513,88.221 L266.012,89.846 L268.449,88.13 L282.26,91.561 L291.558,84.926 L309.611,89.44 L309.34,89.621 L309.34,90.433 L333.937,96.525 L335.198,95.669 L341.652,97.249 L333.388,103.115 L333.388,103.115 Z M190.821,122.524 L151.961,112.821 L150.788,113.677 L150.788,114.49 L195.515,125.636 L206.573,117.512 L206.573,116.7 L200.931,115.255 L190.821,122.524 L190.821,122.524 Z M402.809,105.374 C402.357,107.148 400.718,109.917 397.889,113.678 L397.889,114.49 L401.818,114.896 L402.539,114.083 L402.629,113.949 L403.173,113.272 L403.218,113.272 L403.85,112.324 L404.029,112.097 L404.572,111.241 L405.655,109.029 L405.655,108.984 L405.745,108.849 L405.88,108.443 L405.971,108.262 L406.242,107.314 L406.287,107.043 L406.335,106.999 L406.335,106.862 L406.38,106.726 L406.38,106.636 L406.425,106.545 L406.425,105.598 L402.809,105.374 L402.809,105.374 Z M282.034,128.301 L277.746,127.216 L274.406,129.566 L245.477,122.387 L249.222,119.679 L249.222,118.867 L239.338,116.384 C238.192,117.229 237.036,118.057 235.86,118.867 L230.4,117.513 L229.363,118.283 L210.812,113.635 L209.684,114.448 L209.684,115.302 L280.636,132.995 L291.194,125.414 L291.243,124.602 L288.217,123.879 L282.034,128.301 L282.034,128.301 Z M282.034,128.301" class="walkway"/>
                <path d="M255.765,79.108 L254.547,78.793 L249.763,79.244 L238.525,87.321 L238.525,91.428 L241.098,95.49 L246.288,96.752 L246.288,96.797 L247.285,98.918 L264.615,103.251 L264.749,103.295 L290.07,109.613 L302.481,107.584 L309.567,106.999 L320.94,109.797 L324.732,109.392 L342.514,96.709 L342.559,92.647 L334.798,90.751 L333.622,91.562 L310.697,85.875 L310.697,85.063 L315.661,86.327 L321.887,81.859 L321.935,78.518 L322.206,78.338 L322.251,74.231 L320.534,71.839 L304.331,71.433 L298.734,70.891 L296.115,69.853 L292.146,68.364 L288.851,67.416 L282.217,66.333 C279.961,66.123 277.854,66.168 275.899,66.469 C274.364,66.679 273.296,66.966 272.689,67.326 C272.178,67.627 271.802,67.958 271.561,68.319 C271.351,68.62 271.274,68.861 271.334,69.041 L271.288,68.906 L271.288,73.148 L271.514,73.508 L271.561,73.599 L271.878,73.914 L272.464,74.23 L272.464,74.276 L272.554,74.276 L272.599,74.321 L272.642,74.321 L278.329,75.765 L278.329,76.758 L284.019,78.157 L287.494,75.675 L290.925,76.532 C291.647,76.051 292.354,75.555 293.048,75.043 L294.986,75.539 L294.986,77.392 L296.972,77.889 L296.928,81.319 L291.512,80.01 L287.269,83.033 L287.314,81.182 L274.317,77.978 L274.317,75.179 L266.645,73.149 L266.598,73.149 L260.506,73.871 L255.814,77.211 L255.765,79.108 L255.765,79.108 Z M250.982,77.301 L256.624,73.51 L256.76,71.435 L254.051,71.435 L248.726,75.18 L248.726,76.534 L248.682,76.534 L248.682,76.625 L248.863,76.67 L249.72,76.941 L250.982,77.301 L250.982,77.301 Z M158.506,55.185 L156.836,54.733 L156.836,53.74 L147.9,51.528 L141.13,56.312 L137.655,55.41 L130.434,60.556 L130.434,64.662 L130.885,66.468 L137.429,68.093 L137.474,68.093 L141.807,68.77 L142.349,68.815 L143.297,68.996 L143.34,68.996 L144.515,69.222 L144.56,69.177 L152.955,71.344 L157.603,73.059 C159.077,73.721 160.703,74.623 162.478,75.767 C163.229,76.28 163.667,76.821 163.787,77.392 L163.787,78.069 L170.963,79.83 L171.189,79.92 L185.09,83.35 L185.316,83.441 L208.334,89.172 L213.75,88.585 L218.219,89.669 L218.399,89.759 L219.482,89.985 L230.359,88.857 L246.155,77.619 L246.155,73.512 L245.703,73.377 L245.703,70.85 L249.133,71.707 L260.416,63.628 L260.461,59.521 L247.598,56.317 L236.269,64.396 L236.269,65.208 L234.78,64.847 L228.596,69.225 L228.596,69.27 L224.534,72.204 L224.534,73.242 L223.948,73.107 L223.948,71.437 L209.731,67.871 L215.508,67.871 L222.504,65.975 L222.594,65.975 L222.775,65.795 L222.775,66.02 L252.112,45.079 L252.382,37.542 L248.14,34.156 L228.236,29.101 L219.256,29.146 L211.944,31.042 L182.697,51.89 L182.201,59.608 L185.044,61.729 L180.756,60.691 L180.124,61.142 L158.505,55.726 L158.506,55.185 L158.506,55.185 Z M282.573,52.973 L283.294,52.928 L284.785,52.839 L288.26,52.928 L289.706,53.109 L290.022,53.109 L291.42,53.335 L291.694,53.425 L294.267,54.012 L296.749,55.005 L298.464,56.043 L298.509,56.088 L299.051,56.539 L299.187,56.63 L299.639,57.171 L299.864,57.578 L299.864,60.601 L300.675,61.052 L300.811,61.052 L310.425,63.445 L312.535,61.598 L311.713,62.405 L329.335,67.282 L331.277,68.771 L330.78,69.493 L330.735,69.493 L328.16,70.486 L324.008,71.569 L323.916,71.569 L323.916,75.676 L326.445,78.655 L332.177,80.099 L333.261,79.377 L334.028,79.557 L337.369,77.21 L337.324,79.603 L347.299,82.084 L361.154,72.245 L361.201,68.139 L351.18,65.657 L348.156,67.822 L348.156,65.52 L347.254,64.166 L346.848,64.076 L346.848,63.083 L319,55.25 L318.65,55.593 L318.683,52.703 L315.885,52.297 L310.062,51.259 L307.987,50.717 C305.699,49.995 303.863,49.122 302.479,48.1 L302.3,48.01 L300.899,46.566 L299.588,44.579 C299.316,43.977 298.187,43.12 296.203,42.008 L292.5,40.112 C291.66,39.721 290.395,39.315 288.708,38.893 L284.375,37.946 L284.241,37.946 L283.835,39.569 L283.835,40.065 L281.308,41.871 L278.419,41.149 L274.31,44.083 L274.264,48.188 L279.773,53.334 L282.573,52.973 L282.573,52.973 Z M403.171,99.507 C403.2,98.186 402.809,96.635 401.995,94.86 L400.689,92.51 L400.642,92.42 L400.5,92.514 L384.027,88.408 L368.815,99.285 L366.739,98.879 L366.739,98.789 L366.694,98.789 L366.694,98.74 L358.209,96.62 L353.697,99.868 L351.533,99.328 L351.533,98.426 L351.488,98.426 L351.488,98.333 L350.812,98.201 L350.812,97.431 L350.764,97.431 L350.764,97.341 L344.944,95.898 L329.915,106.637 L329.915,110.746 L330.818,112.19 L350.226,117.019 L350.677,117.695 L366.925,121.757 L372.204,121.217 L381.956,123.564 L390.483,122.706 L392.561,121.352 L392.787,121.171 L393.014,121.038 L393.373,120.766 L393.553,120.674 L394.677,119.867 L394.767,119.82 L395.173,119.505 L395.353,119.413 L396.572,118.511 L396.665,118.421 L396.981,118.193 L397.026,118.147 L397.206,118.014 L397.3,117.877 L397.615,117.606 L397.705,117.56 L398.475,116.838 L398.607,116.745 L398.881,116.474 L399.014,116.381 L400.098,115.389 L400.098,115.344 L400.593,114.938 L400.686,114.802 L400.818,114.666 L400.912,114.621 L401.362,114.215 L401.362,110.11 L400.638,110.016 L400.73,109.882 L400.775,109.747 L401.723,107.991 L401.723,107.899 L401.95,107.493 L401.95,107.449 L402.898,105.101 L403.033,104.558 L403.078,104.424 L403.171,103.655 L403.216,99.367 L403.171,99.507 L403.171,99.507 Z M97.035,60.061 L119.195,65.566 L122.625,65.206 L145.914,48.552 L146.185,48.011 L166.946,33.207 L166.991,29.1 L109.853,14.883 L104.256,19.08 L104.256,19.171 L104.12,19.171 L103.94,19.125 L100.781,21.382 L77.357,15.515 L81.961,12.266 L82.006,8.159 L56.867,1.884 L2.031,41.014 L2.031,45.076 L88.099,66.426 L97.035,60.061 L97.035,60.061 Z M372.612,124.059 L368.594,124.556 L363.904,123.427 L362.728,121.621 L325.36,112.324 L321.839,112.685 L314.301,110.834 L303.469,112.009 L300.354,114.219 L239.517,99.1 L236.629,99.281 L236.494,99.325 L232.343,98.287 L222.772,99.055 L211.714,96.302 L209.504,92.782 L209.504,92.555 L204.856,91.382 L204.63,89.892 L131.786,71.748 L126.731,72.29 L122.037,71.116 L118.878,71.477 L108.768,68.905 L104.932,68.002 L89.903,69.808 L63.817,88.583 L63.772,92.645 L109.402,104.02 L123.709,93.818 L123.709,95.352 L129.892,96.886 L129.847,96.931 L137.564,98.829 L139.234,97.654 L150.652,100.497 L140.407,107.809 L140.362,111.917 L150.788,114.49 L151.736,113.812 L161.844,116.25 L161.889,116.25 L161.889,116.34 L176.422,119.95 L176.422,120.042 L190.819,123.607 L201.245,116.16 L206.524,117.469 L211.218,114.084 L218.847,116.026 L219.026,116.026 L229.454,118.641 L230.49,117.92 L235.906,119.274 L239.472,116.702 L244.753,118.056 L244.348,118.327 L244.301,118.372 L244.256,122.434 L274.36,129.97 L277.835,127.489 L280.768,128.212 L265.107,139.358 L265.107,143.466 L326.577,158.766 L327.887,160.618 L331.091,161.43 L341.155,160.346 L343.186,158.859 L343.186,156.648 L372.928,135.436 L376.446,135.03 L378.794,133.359 L378.838,129.252 L376.039,124.83 L372.612,124.059 L372.612,124.059 Z M168.164,93.143 L161.304,90.57 L168.173,85.663 L175.771,87.558 L168.164,93.143 L168.164,93.143 Z M247.369,113.409 L240.509,110.836 L247.378,104.93 L254.977,106.824 L247.369,113.409 L247.369,113.409 Z M247.369,113.409" class="wall"/>
            </g>
            <g class="ceilings">
                <path class="unit" d="M205.289,60.427 L205.785,60.516 L206.417,60.653 L212.013,61.421 L212.014,61.421 L214.901,61.194 C216.977,60.894 218.587,60.322 219.731,59.479 C228.304,53.373 236.861,47.252 245.402,41.116 L245.41,41.112 L247.351,39.623 C247.893,39.127 248.087,38.512 247.935,37.778 C247.909,37.648 247.842,37.506 247.794,37.37 C247.752,37.248 247.728,37.134 247.668,37.006 L247.668,37.005 L247.668,37.004 C247.396,36.432 246.795,35.92 245.863,35.469 L244.417,34.883 L228.035,30.776 L226.183,30.46 L222.844,30.37 C219.775,30.521 217.428,31.122 215.802,32.176 L189.805,50.725 C188.843,51.357 188.136,51.913 187.684,52.394 C187.323,52.845 187.248,53.387 187.458,54.019 C187.638,54.56 188,55.086 188.541,55.598 C188.541,55.598 188.542,55.598 188.542,55.599 L188.543,55.601 C188.904,55.961 189.536,56.307 190.439,56.639 L192.244,57.18 L192.47,57.27 L193.291,57.47 L204.789,60.292 L204.811,60.278 L205.062,60.339 L205.289,60.427 L205.289,60.427 Z M205.289,60.427" id="1001"/>
                <path class="unit" d="M335.708,59.667 L347.005,62.458 L345.969,63.226 L346.373,63.316 L346.058,63.316 L331.975,64.219 L329.946,62.279 L335.708,59.667 L335.708,59.667 Z M335.708,59.667" id="1002"/>
                <path class="unit" d="M331.976,64.218 L346.059,63.315 L346.374,63.315 L347.55,63.631 L348.405,64.94 L345.293,67.061 L344.391,66.835 L343.488,67.467 L343.216,67.513 L332.79,66.61 L332.022,64.263 L331.976,64.218 L331.976,64.218 Z M331.976,64.218" id="1003"/>
                <path class="unit" d="M332.789,66.61 L343.214,67.513 L343.486,67.467 L343.306,67.603 L344.299,67.874 L341.006,70.22 L340.103,69.995 L338.93,70.852 L338.837,70.852 L331.119,68.911 L331.211,68.911 L332.789,66.61 L332.789,66.61 Z M332.789,66.61" id="1004"/>
                <path class="unit" d="M328.591,69.905 L331.073,68.957 L339.601,71.078 L334.366,74.825 L333.554,74.598 L332.517,75.321 L326.875,73.922 L324.392,70.988 L328.591,69.905 L328.591,69.905 Z M328.591,69.905" id="1005"/>
                <path class="unit" d="M319.699,75.591 L313.562,74.057 L310.763,76.042 L308.598,75.501 L311.891,73.154 L311.757,71.168 L320.783,71.258 L322.453,73.606 L319.699,75.591 L319.699,75.591 Z M319.699,75.591" id="1006"/>
                <path class="unit" d="M301.352,74.13 L305.779,70.772 L298.986,70.311 L295.51,72.658 L301.352,74.13 L301.352,74.13 Z M301.352,74.13" id="1007"/>
                <path class="unit" d="M305.847,70.772 L301.42,74.147 L297.45,76.991 L304.128,78.661 L311.892,73.155 L311.758,71.168 L305.847,70.772 Z M305.847,70.772" id="1008"/>
                <path class="unit" d="M298.918,70.311 C295.818,69.077 293.703,68.25 292.439,67.829 L289.146,66.836 C287.159,66.324 284.947,65.963 282.51,65.753 C280.344,65.572 278.298,65.618 276.373,65.888 C274.809,66.099 273.725,66.384 273.122,66.746 L271.994,67.693 C271.783,67.994 271.708,68.251 271.765,68.461 C271.977,69.002 272.411,69.379 273.073,69.59 L279.889,71.305 L278.851,72.027 L284.359,73.381 L287.835,70.944 L291.266,71.8 L293.388,70.265 L297.45,71.304 L298.918,70.311 L298.918,70.311 Z M298.918,70.311" id="1009"/>
                <path class="unit" d="M322.138,77.171 L315.999,81.548 L306.25,79.111 L310.584,75.997 L310.765,76.041 L312.525,74.777 L322.138,77.171 L322.138,77.171 Z M322.138,77.171" id="1010"/>
                <path class="unit" d="M281.951,38.899 L284.524,40.704 L282.628,42.329 L284.794,48.016 L280.01,48.558 L274.686,43.503 L281.951,38.899" id="1011"/>
                <path class="unit" d="M110.285,14.301 L167.197,28.518 L146.436,43.276 L146.165,43.863 L122.922,60.472 L119.582,60.787 L97.377,55.281 L137.409,26.712 L104.417,18.453 L110.285,14.301 L110.285,14.301 Z M110.285,14.301" id="1012"/>
                <path class="unit" d="M82.167,7.533 L73.321,13.851 L101.168,20.801 L104.417,18.454 L137.409,26.713 L88.44,61.645 L2.553,40.342 L57.254,1.348 L82.167,7.533 L82.167,7.533 Z M82.167,7.533" id="1013"/>
                <path class="unit" d="M141.515,55.779 L148.285,50.995 L156.995,53.161 L156.003,53.884 L158.711,54.561 L158.124,55.013 L158.035,54.968 L144.811,64.4 L144.901,64.4 L144.856,64.444 L144.405,64.354 L137.816,63.315 L131.407,61.736 L130.91,59.93 L138.041,54.875 L141.515,55.779 L141.515,55.779 Z M141.515,55.779" id="1014"/>
                <path class="unit" d="M144.9,64.4 L144.81,64.4 L158.035,54.967 L158.124,55.012 L164.894,56.681 L151.761,66.069 L144.9,64.4 L144.9,64.4 Z M144.9,64.4" id="1015"/>
                <path class="unit" d="M171.801,58.397 L158.035,68.327 C157.042,67.845 155.944,67.408 154.741,67.017 L151.717,66.07 L164.896,56.682 L171.801,58.397 L171.801,58.397 Z M171.801,58.397" id="1016"/>
                <path class="unit" d="M189.581,62.233 L171.528,75.14 L164.307,73.334 L164.307,72.612 C164.126,72.07 163.675,71.543 162.953,71.032 C161.209,69.92 159.568,69.016 158.035,68.325 L171.801,58.395 L180.512,60.606 L181.143,60.11 L189.581,62.233 L189.581,62.233 Z M189.581,62.233" id="1017"/>
                <path class="unit" d="M196.488,63.949 L178.571,76.901 L171.485,75.141 L189.583,62.234 L196.488,63.949 L196.488,63.949 Z M196.488,63.949" id="1018"/>
                <path class="unit" d="M203.709,65.752 L185.611,78.66 L178.57,76.899 L196.488,63.947 L203.709,65.752 L203.709,65.752 Z M203.709,65.752" id="1019"/>
                <path class="unit" d="M201.272,82.542 L185.611,78.66 L203.709,65.752 L219.325,69.634 L201.272,82.542 L201.272,82.542 Z M201.272,82.542" id="1020"/>
                <path class="unit" d="M260.665,58.937 L249.474,66.926 L236.79,63.766 L247.983,55.779 L260.665,58.937 L260.665,58.937 Z M260.665,58.937" id="1021"/>
                <path class="unit" d="M241.124,65.752 L238.506,67.648 L245.909,69.499 L242.478,71.937 L229.117,68.597 L235.164,64.264 L241.124,65.752 L241.124,65.752 Z M241.124,65.752" id="1022"/>
                <path class="unit" d="M242.253,75.817 L225.01,71.575 L229.163,68.641 L246.358,72.928 L242.253,75.817 L242.253,75.817 Z M242.253,75.817" id="1023"/>
                <path class="unit" d="M224.154,70.853 L222.44,72.071 L225.554,72.839 L209.621,84.303 L208.718,84.393 L201.272,82.542 L219.325,69.635 L224.154,70.853 L224.154,70.853 Z M224.154,70.853" id="1024"/>
                <path class="unit" d="M233.09,74.734 L218.738,84.98 L214.224,83.852 L209.62,84.303 L225.552,72.839 L233.09,74.734 L233.09,74.734 Z M233.09,74.734" id="1025"/>
                <path class="unit" d="M242.253,75.817 L230.652,84.122 L219.865,85.251 L218.737,84.979 L234.308,73.831 L242.253,75.817 L242.253,75.817 Z M242.253,75.817" id="1026"/>
                <path class="unit" d="M270.234,77.623 L264.683,76.224 L262.157,78.03 L256.289,76.586 L260.935,73.291 L266.895,72.569 L274.523,74.599 L270.234,77.623 L270.234,77.623 Z M270.234,77.623" id="1027"/>
                <path class="unit" d="M267.977,81.503 L254.934,78.254 L250.194,78.661 L248.479,79.924 L248.487,79.924 L257.643,82.225 L258.771,81.414 L265.767,83.083 L267.978,81.503 L267.977,81.503 Z M267.977,81.503" id="1028"/>
                <path class="unit" d="M257.643,82.226 L256.244,83.22 L256.198,83.265 L254.755,84.258 L254.619,84.258 L245.592,82.001 L248.346,80.017 L248.436,79.925 L257.643,82.226 L257.643,82.226 Z M257.643,82.226" id="1029"/>
                <path class="unit" d="M287.475,80.601 L281.518,84.889 L261.706,79.924 L262.925,79.067 L265.362,79.654 L266.22,79.067 L262.158,78.029 L264.685,76.223 L270.236,77.622 L271.635,76.629 L287.475,80.601 L287.475,80.601 Z M287.475,80.601" id="1030"/>
                <path class="unit" d="M258.32,83.805 L246.765,92.021 L241.53,90.711 L239.002,86.739 L245.592,82.001 L254.619,84.258 L254.755,84.258 L256.198,83.265 L258.32,83.805 L258.32,83.805 Z M258.32,83.805" id="1031"/>
                <path class="unit" d="M266.307,84.347 L251.28,95.088 L247.759,94.232 L246.766,92.023 L259.809,82.771 L266.307,84.347 L266.307,84.347 Z M266.307,84.347" id="1032"/>
                <path class="unit" d="M268.701,82.632 L275.786,84.438 L258.364,96.849 L251.279,95.088 L268.701,82.632 L268.701,82.632 Z M268.701,82.632" id="1033"/>
                <path class="unit" d="M282.556,86.108 L265.089,98.52 L258.364,96.848 L275.784,84.436 L282.556,86.108 L282.556,86.108 Z M282.556,86.108" id="1034"/>
                <path class="unit" d="M138.087,72.658 L125.359,81.73 L116.197,79.427 L127.029,71.71 L132.174,71.168 L138.087,72.658 L138.087,72.658 Z M138.087,72.658" id="1035"/>
                <path class="unit" d="M144.764,74.328 L133.437,82.407 L126.757,80.737 L138.087,72.658 L144.764,74.328 L144.764,74.328 Z M144.764,74.328" id="1036"/>
                <path class="unit" d="M119.989,91.975 L109.743,99.286 L88.08,93.871 L98.325,86.559 L119.989,91.975 L119.989,91.975 Z M119.989,91.975" id="1037"/>
                <path class="unit" d="M88.349,93.96 L64.338,87.959 L90.334,69.23 L105.318,67.424 L119.174,70.9 L122.424,70.539 L127.028,71.713 L116.196,79.43 L132.037,83.403 L119.987,91.977 L98.323,86.562 L88.078,93.874 L88.349,93.96 L88.349,93.96 Z M88.349,93.96" id="1038"/>
                <path class="unit" d="M152.62,76.268 L130.37,92.156 L124.232,90.621 L135.154,82.858 L133.439,82.407 L144.767,74.328 L152.62,76.268 L152.62,76.268 Z M152.62,76.268" id="1039"/>
                <path class="unit" d="M169.183,80.42 L158.77,77.815 L152.619,76.268 L130.412,92.201 L137.904,94.05 L139.762,92.724 L155.373,96.803 L167.875,87.868 L161.104,86.198 L169.183,80.42 Z M169.183,80.42" id="1040"/>
                <path class="unit" d="M140.885,107.184 L175.953,82.09 L186.243,84.661 L151.085,109.755 L140.885,107.184 L140.885,107.184 Z M140.885,107.184" id="1041"/>
                <path class="unit" d="M162.233,111.562 L152.078,109.035 L186.289,84.663 L196.353,87.19 L162.233,111.562 L162.233,111.562 Z M162.233,111.562" id="1042"/>
                <path class="unit" d="M209.665,91.929 L177.035,115.265 L162.322,111.608 L196.352,87.191 L204.883,89.314 L205.109,90.801 L209.665,91.929 L209.665,91.929 Z M209.665,91.929" id="1043"/>
                <path class="unit" d="M198.382,109.351 L196.983,108.99 L196.802,108.99 L185.068,117.34 L176.944,115.31 L209.62,92.022 L211.921,95.723 L216.075,96.76 L198.382,109.351 L198.382,109.351 Z M198.382,109.351" id="1044"/>
                <path class="unit" d="M198.428,109.397 L216.076,96.759 L223.071,98.473 L227.267,98.157 L206.866,112.691 L201.586,111.383 L191.115,118.874 L185.067,117.34 L196.801,108.99 L198.428,109.397 L198.428,109.397 Z M198.428,109.397" id="1045"/>
                <path class="unit" d="M232.729,97.707 L236.884,98.79 L219.326,111.292 L211.609,109.351 L227.27,98.16 L232.729,97.707 L232.729,97.707 Z M232.729,97.707" id="1046"/>
                <path class="unit" d="M247.532,106.372 L253.716,101.951 L258.589,103.17 L244.644,113.147 L239.814,111.971 L240.988,111.161 L240.988,111.111 L238.146,110.39 L244.735,105.696 L247.532,106.372 L247.532,106.372 Z M247.532,106.372" id="1047"/>
                <path class="unit" d="M258.59,103.167 L263.422,104.386 L249.474,114.362 L244.69,113.187 L258.59,103.167 L258.59,103.167 Z M258.59,103.167" id="1048"/>
                <path class="unit" d="M248.345,100.64 L242.207,105.064 L244.735,105.695 L238.145,110.387 L240.988,111.156 L236.249,114.496 L230.833,113.142 L229.795,113.864 L219.414,111.29 L237.016,98.7 L239.903,98.52 L248.345,100.64 L248.345,100.64 Z M248.345,100.64" id="1049"/>
                <path class="unit" d="M302.505,82.091 L291.899,79.473 L265.135,98.565 L275.651,101.181 L302.505,82.091 L302.505,82.091 Z M302.505,82.091" id="1050"/>
                <path class="unit" d="M286.077,103.755 L311.711,85.476 L309.771,84.98 L310.9,84.168 L302.505,82.093 L275.651,101.183 L286.077,103.755 L286.077,103.755 Z M286.077,103.755" id="1051"/>
                <path class="unit" d="M302.82,102.852 L309.636,102.266 L327.598,89.448 L311.711,85.476 L286.077,103.755 L290.457,104.838 L302.82,102.852 L302.82,102.852 Z M302.82,102.852" id="1052"/>
                <path class="unit" d="M335.181,90.215 L334.007,91.027 L327.597,89.446 L309.635,102.264 L309.995,102.264 L321.278,105.063 L325.023,104.657 L342.714,92.02 L335.181,90.215 L335.181,90.215 Z M335.181,90.215" id="1053"/>
                <path class="unit" d="M354.091,99.332 L358.604,96.082 L367,98.158 L348.09,111.654 L331.255,107.456 L330.398,106.057 L345.336,95.362 L351.068,96.805 L350.213,97.393 L351.792,97.799 L350.797,98.522 L354.091,99.332 L354.091,99.332 Z M354.091,99.332" id="1054"/>
                <path class="unit" d="M377.379,92.878 L385.051,94.774 L357.428,114.542 L351.111,112.963 L350.706,112.331 L348.089,111.655 L366.999,98.159 L369.21,98.746 L377.379,92.878 L377.379,92.878 Z M377.379,92.878" id="1055"/>
                <path class="unit" d="M357.431,114.541 L385.099,94.773 L377.38,92.877 L384.421,87.866 L400.85,91.973 L366.188,116.705 L357.431,114.541 L357.431,114.541 Z M357.431,114.541" id="1056"/>
                <path class="unit" d="M366.187,116.708 L400.849,91.976 C401.299,92.37 401.871,93.39 402.562,95.044 C403.494,97.21 403.691,98.985 403.148,100.37 L401.66,103.935 C400.879,105.529 400.231,106.598 399.72,107.139 L398.141,109.126 L401.572,109.531 L396.472,114.044 L393.085,116.435 L390.74,117.97 L382.299,118.825 L372.641,116.478 L367.316,117.019 L366.187,116.708 L366.187,116.708 Z M366.187,116.708" id="1057"/>
                <path class="unit" d="M244.78,117.746 L263.42,104.388 L279.533,108.404 L260.846,121.763 L244.78,117.746 L244.78,117.746 Z M244.78,117.746" id="1058"/>
                <path class="unit" d="M300.744,113.683 L291.718,120.137 L288.739,119.412 L282.556,123.836 L274.749,121.849 L289.957,111.017 L300.744,113.683 L300.744,113.683 Z M300.744,113.683" id="1059"/>
                <path class="unit" d="M289.957,111.022 L274.749,121.854 L278.179,122.711 L274.703,125.193 L260.847,121.762 L279.531,108.403 L289.957,111.022 L289.957,111.022 Z M289.957,111.022" id="1060"/>
                <path class="unit" d="M303.903,111.427 L314.645,110.253 L322.137,112.149 L325.701,111.743 L363.027,121.086 L364.156,122.846 L368.895,124.021 L372.912,123.479 L376.251,124.247 L379.051,128.67 L376.703,130.341 L373.273,130.702 L342.491,152.637 L343.438,154.171 L341.407,155.615 L331.478,156.653 L328.319,155.885 L327.057,154.08 L265.628,138.777 L303.903,111.427 L303.903,111.427 Z M303.903,111.427" id="1061"/>
                <path class="unit" d="M361.357,67.558 L347.636,77.352 L337.842,74.914 L351.561,65.12 L361.357,67.558 L361.357,67.558 Z M361.357,67.558" id="1062"/>
                <path class="unit" d="M257.372,52.935 L253.581,51.987 L255.882,50.362 L259.494,51.402 L257.372,52.935 L257.372,52.935 Z M257.372,52.935" id="1063"/>
                <path class="unit" d="M257.012,70.717 L251.415,74.734 L249.113,74.147 L254.664,70.085 L257.012,70.717 L257.012,70.717 Z M257.012,70.717" id="1064"/>
                <path class="unit" d="M305.519,49.052 C306.794,49.645 308.221,50.143 309.799,50.543 L314.584,51.491 L318.555,52.168 L310.522,58.667 L301.044,56.275 L300.232,55.87 C300.744,55.034 300.85,54.211 300.547,53.4 C302.445,51.74 305.454,49.022 305.519,49.052 L305.519,49.052 Z M305.519,49.052" id="1065"/>
                <path class="unit" d="M293.325,39.891 C295.13,40.674 296.619,41.426 297.792,42.148 C298.967,42.87 299.779,43.712 300.23,44.675 L301.718,46.661 C302.77,47.533 303.974,48.301 305.329,48.963 C305.387,48.99 305.443,49.017 305.501,49.044 C303.277,50.977 303.233,51.014 300.532,53.368 C300.353,52.903 300.041,52.442 299.595,51.986 C298.332,50.692 296.256,49.684 293.368,48.963 L290.751,42.012 L293.325,39.891 L293.325,39.891 Z M293.325,39.891" id="1066"/>
                <path class="unit" d="M284.796,48.015 C287.834,47.896 290.693,48.21 293.371,48.963 L290.754,42.012 L293.325,39.891 C290.647,38.808 287.744,37.95 284.614,37.319 L281.951,38.899 L284.524,40.704 L282.628,42.329 L284.796,48.015" id="1067"/>
                <path class="unit" d="M252.633,36.913 L252.361,40.343 L223.025,61.285 L215.804,63.136 L207.095,63.136 L187.011,58.125 L182.678,54.876 L183.174,51.266 L212.374,30.414 L219.686,28.563 L228.353,28.519 L248.436,33.574 L252.633,36.913 L252.633,36.913 Z M252.633,36.913" id="1068"/>
        </g>
    </g>
</svg>
