<?xml version="1.0" encoding="utf-8"?>
<!DOCTYPE svg PUBLIC "-//W3C//DTD SVG 1.1//EN" "http://www.w3.org/Graphics/SVG/1.1/DTD/svg11.dtd">
<svg version="1.1" xmlns="http://www.w3.org/2000/svg" xmlns:xlink="http://www.w3.org/1999/xlink" xml:space="preserve">
<g class="level" id="level3">
                <g class="outline">
                    <path d="M257.09,87.362 C257,86.567 256.712,85.775 256.233,85.004 L256.275,81.919 L250.28,80.313 C247.623,79.005 244.188,77.782 240.066,76.678 C235.528,75.462 231.359,74.69 229.133,74.317 L229.184,70.632 L173.928,62.348 L173.928,62.311 L158.982,59.909 L158.982,59.851 L137.021,56.52 L134.952,58.125 L134.978,56.265 L62.172,45.265 L59.78,47.119 L29.271,38.944 L28.479,38.737 L0.571,60.421 L0.483,66.755 L26.676,74.277 L24.249,76.159 L151.513,129.239 C152.383,129.704 157.894,132.558 166.242,134.795 C171.147,136.109 177.59,137.32 184.678,137.32 C189.222,137.32 194.032,136.822 198.869,135.534 C210.387,132.468 238.808,124.367 240.012,124.024 L242.884,123.206 L238.446,119.81 L246.367,117.901 L246.133,113.007 L253.715,113.12 L255.069,113.119 L255.23,111.777 C255.628,108.467 257.582,91.725 257.09,87.362 L257.09,87.362 Z M257.09,87.362" class="outline"/>
                </g>
                <g class="label">
                    <path d="M4.354,5.536 C2.994,5.008 2.113,4.592 2.113,3.471 C2.113,2.399 3.009,1.774 4.162,1.774 C4.834,1.774 5.394,1.918 5.843,2.078 C6.019,2.126 6.179,2.19 6.355,2.19 C6.643,2.19 6.916,1.95 6.916,1.598 C6.916,1.374 6.82,1.15 6.436,0.99 C5.892,0.766 5.043,0.574 4.291,0.574 C2.114,0.574 0.834,1.902 0.834,3.535 C0.834,5.152 1.938,5.904 3.539,6.528 C5.636,7.344 6.212,7.904 6.212,8.977 C6.212,10.113 5.316,10.866 3.923,10.866 C3.059,10.866 2.242,10.546 1.682,10.146 C1.426,9.97 1.282,9.874 1.042,9.874 C0.738,9.874 0.481,10.114 0.466,10.418 C0.45,10.722 0.61,10.914 0.818,11.058 C1.554,11.555 2.61,12.018 3.859,12.018 C6.052,12.018 7.461,10.722 7.461,8.897 C7.459,7.232 6.227,6.256 4.354,5.536 L4.354,5.536 Z M13.362,0.574 C10.481,0.574 8.656,2.911 8.656,6.512 C8.656,9.905 10.448,12.018 13.314,12.018 C16.195,12.018 18.02,9.665 18.02,6.064 C18.02,2.67 16.211,0.574 13.362,0.574 L13.362,0.574 Z M13.346,10.833 C11.201,10.833 9.952,9.088 9.952,6.576 C9.952,3.615 11.184,1.758 13.329,1.758 C15.522,1.758 16.723,3.503 16.723,6 C16.724,8.961 15.491,10.833 13.346,10.833 L13.346,10.833 Z M25.218,2.11 C24.594,0.861 24.098,0.493 23.537,0.493 C22.977,0.493 22.481,0.861 21.856,2.11 C20.96,3.919 20.272,6.192 19.103,10.818 C19.039,11.042 19.007,11.218 19.007,11.33 C19.007,11.714 19.263,11.954 19.615,11.954 C19.903,11.954 20.111,11.778 20.191,11.442 C20.495,10.066 20.799,8.833 21.104,7.776 L25.97,7.776 C26.258,8.833 26.562,10.065 26.883,11.442 C26.963,11.778 27.171,11.954 27.459,11.954 C27.811,11.954 28.067,11.714 28.067,11.33 C28.067,11.218 28.019,11.042 27.971,10.818 C26.835,6.192 26.115,3.919 25.218,2.11 L25.218,2.11 Z M21.425,6.656 C22.161,4.207 22.818,2.686 23.33,1.886 C23.378,1.822 23.426,1.758 23.538,1.758 C23.65,1.758 23.698,1.822 23.746,1.886 C24.258,2.686 24.898,4.207 25.635,6.656 L21.425,6.656 L21.425,6.656 Z M35.506,7.776 C35.218,7.36 34.898,7.04 34.529,6.8 C35.954,6.303 36.882,5.311 36.882,3.791 C36.882,1.854 35.57,0.574 32.673,0.574 C31.569,0.574 30.816,0.686 30.304,0.846 C29.904,0.974 29.792,1.214 29.792,1.614 L29.792,11.314 C29.792,11.714 30.064,11.954 30.416,11.954 C30.769,11.954 31.041,11.714 31.041,11.314 L31.041,7.136 L32.29,7.136 C33.458,7.136 33.923,7.616 34.499,8.545 C34.899,9.185 35.315,10.113 35.811,11.506 C35.907,11.762 36.083,11.954 36.419,11.954 C36.755,11.954 37.044,11.714 37.044,11.33 C37.044,11.218 37.012,11.058 36.948,10.898 C36.515,9.745 36.002,8.545 35.506,7.776 L35.506,7.776 Z M32.481,5.92 L31.041,5.92 L31.041,1.886 C31.489,1.822 31.921,1.758 32.61,1.758 C34.899,1.758 35.619,2.654 35.619,3.839 C35.618,5.488 34.066,5.968 32.481,5.92 L32.481,5.92 Z M49.555,5.663 L46.562,5.663 C46.162,5.663 45.938,5.967 45.938,6.239 C45.938,6.559 46.146,6.8 46.562,6.8 L49.042,6.8 L49.042,10.449 C48.482,10.673 47.794,10.833 46.865,10.833 C44.64,10.833 43.216,9.312 43.216,6.432 C43.216,3.279 44.673,1.79 46.914,1.79 C47.698,1.79 48.29,1.934 49.011,2.19 C49.219,2.27 49.41,2.35 49.571,2.35 C49.876,2.35 50.132,2.126 50.132,1.774 C50.132,1.518 49.987,1.342 49.748,1.214 C49.107,0.878 48.131,0.574 47.011,0.574 C44.161,0.574 41.952,2.527 41.952,6.496 C41.952,10.033 43.921,12.018 46.866,12.018 C48.211,12.018 49.043,11.714 49.716,11.41 C50.036,11.266 50.244,11.057 50.244,10.658 L50.244,6.352 C50.243,5.92 49.971,5.663 49.555,5.663 L49.555,5.663 Z M58.227,7.776 C57.939,7.36 57.619,7.04 57.25,6.8 C58.675,6.303 59.604,5.311 59.604,3.791 C59.604,1.854 58.292,0.574 55.394,0.574 C54.29,0.574 53.538,0.686 53.025,0.846 C52.625,0.974 52.513,1.214 52.513,1.614 L52.513,11.314 C52.513,11.714 52.784,11.954 53.137,11.954 C53.489,11.954 53.761,11.714 53.761,11.314 L53.761,7.136 L55.009,7.136 C56.178,7.136 56.642,7.616 57.218,8.545 C57.618,9.185 58.034,10.113 58.53,11.506 C58.627,11.762 58.802,11.954 59.138,11.954 C59.474,11.954 59.762,11.714 59.762,11.33 C59.762,11.218 59.731,11.058 59.666,10.898 C59.235,9.745 58.723,8.545 58.227,7.776 L58.227,7.776 Z M55.201,5.92 L53.761,5.92 L53.761,1.886 C54.209,1.822 54.641,1.758 55.329,1.758 C57.618,1.758 58.339,2.654 58.339,3.839 C58.339,5.488 56.786,5.968 55.201,5.92 L55.201,5.92 Z M65.857,0.574 C62.976,0.574 61.151,2.911 61.151,6.512 C61.151,9.905 62.944,12.018 65.809,12.018 C68.69,12.018 70.515,9.665 70.515,6.064 C70.516,2.67 68.707,0.574 65.857,0.574 L65.857,0.574 Z M65.842,10.833 C63.697,10.833 62.448,9.088 62.448,6.576 C62.448,3.615 63.68,1.758 65.825,1.758 C68.018,1.758 69.219,3.503 69.219,6 C69.219,8.961 67.986,10.833 65.842,10.833 L65.842,10.833 Z M79.891,0.638 C79.524,0.638 79.267,0.894 79.267,1.294 L79.267,10.049 C78.435,10.593 77.25,10.818 76.53,10.818 C74.674,10.818 73.537,9.905 73.537,7.84 L73.537,1.294 C73.537,0.894 73.281,0.638 72.93,0.638 C72.577,0.638 72.305,0.894 72.305,1.294 L72.305,8.081 C72.305,10.418 73.762,12.019 76.291,12.019 C78.1,12.019 79.14,11.539 80.068,11.011 C80.42,10.803 80.5,10.531 80.5,10.147 L80.5,1.295 C80.499,0.893 80.243,0.638 79.891,0.638 L79.891,0.638 Z M90.595,0.638 C90.242,0.638 90.034,0.894 90.034,1.294 L90.034,9.857 L90.002,9.857 L84.432,1.117 C84.224,0.781 83.953,0.637 83.6,0.637 C83.12,0.637 82.8,0.973 82.8,1.549 L82.8,11.313 C82.8,11.713 83.056,11.953 83.392,11.953 C83.745,11.953 83.984,11.713 83.984,11.313 L83.984,2.653 L84.016,2.653 L89.523,11.409 C89.731,11.729 89.987,11.953 90.355,11.953 C90.883,11.953 91.171,11.537 91.171,11.105 L91.171,1.293 C91.171,0.893 90.946,0.638 90.595,0.638 L90.595,0.638 Z M96.288,0.574 C95.681,0.574 94.72,0.622 94.08,0.782 C93.663,0.894 93.504,1.182 93.504,1.566 L93.504,11.042 C93.504,11.426 93.648,11.746 94.208,11.842 C94.72,11.938 95.36,12.018 96.448,12.018 C99.986,12.018 101.522,9.473 101.522,6.304 C101.522,2.991 99.97,0.574 96.288,0.574 L96.288,0.574 Z M96.48,10.833 C95.824,10.833 95.248,10.817 94.736,10.737 L94.736,1.853 C95.2,1.789 95.824,1.757 96.304,1.757 C99.169,1.757 100.274,3.63 100.274,6.191 C100.274,8.977 99.153,10.833 96.48,10.833 L96.48,10.833 Z M112.626,0.702 L107.936,0.702 C107.248,0.702 106.88,1.07 106.88,1.662 L106.88,11.314 C106.88,11.714 107.151,11.954 107.504,11.954 C107.856,11.954 108.112,11.714 108.112,11.314 L108.112,7.024 L112.033,7.024 C112.386,7.024 112.626,6.736 112.626,6.432 C112.626,6.144 112.386,5.855 112.033,5.855 L108.112,5.855 L108.112,1.917 L112.609,1.917 C113.057,1.917 113.265,1.613 113.265,1.325 C113.266,1.022 113.058,0.702 112.626,0.702 L112.626,0.702 Z M120.369,10.705 L116.063,10.705 L116.063,1.293 C116.063,0.893 115.806,0.637 115.455,0.637 C115.102,0.637 114.831,0.893 114.831,1.293 L114.831,10.929 C114.831,11.521 115.199,11.889 115.887,11.889 L120.369,11.889 C120.768,11.889 121.025,11.617 121.025,11.281 C121.025,10.977 120.785,10.705 120.369,10.705 L120.369,10.705 Z M126.097,0.574 C123.216,0.574 121.391,2.911 121.391,6.512 C121.391,9.905 123.184,12.018 126.049,12.018 C128.93,12.018 130.755,9.665 130.755,6.064 C130.755,2.67 128.946,0.574 126.097,0.574 L126.097,0.574 Z M126.081,10.833 C123.936,10.833 122.687,9.088 122.687,6.576 C122.687,3.615 123.919,1.758 126.064,1.758 C128.257,1.758 129.458,3.503 129.458,6 C129.458,8.961 128.226,10.833 126.081,10.833 L126.081,10.833 Z M136.801,0.574 C133.92,0.574 132.095,2.911 132.095,6.512 C132.095,9.905 133.888,12.018 136.753,12.018 C139.634,12.018 141.459,9.665 141.459,6.064 C141.459,2.67 139.65,0.574 136.801,0.574 L136.801,0.574 Z M136.785,10.833 C134.64,10.833 133.391,9.088 133.391,6.576 C133.391,3.615 134.623,1.758 136.768,1.758 C138.961,1.758 140.162,3.503 140.162,6 C140.162,8.961 138.93,10.833 136.785,10.833 L136.785,10.833 Z M150.45,10.898 C150.018,9.745 149.506,8.545 149.01,7.776 C148.722,7.36 148.402,7.04 148.033,6.8 C149.458,6.303 150.387,5.311 150.387,3.791 C150.387,1.854 149.075,0.574 146.177,0.574 C145.073,0.574 144.321,0.686 143.808,0.846 C143.408,0.974 143.296,1.214 143.296,1.614 L143.296,11.314 C143.296,11.714 143.567,11.954 143.92,11.954 C144.272,11.954 144.544,11.714 144.544,11.314 L144.544,7.136 L145.792,7.136 C146.961,7.136 147.425,7.616 148.001,8.545 C148.401,9.185 148.817,10.113 149.313,11.506 C149.41,11.762 149.585,11.954 149.921,11.954 C150.257,11.954 150.545,11.714 150.545,11.33 C150.546,11.218 150.515,11.057 150.45,10.898 L150.45,10.898 Z M145.984,5.92 L144.544,5.92 L144.544,1.886 C144.992,1.822 145.424,1.758 146.112,1.758 C148.401,1.758 149.122,2.654 149.122,3.839 C149.122,5.488 147.569,5.968 145.984,5.92 L145.984,5.92 Z M145.984,5.92" class="Shape"/>
                </g>
                <g class="background">
                    <path d="M239.678,78.126 C247.072,80.107 255.114,83.234 255.599,87.531 C256.099,91.97 253.857,110.639 253.739,111.621 L239.412,111.407 L244.624,112.803 L244.811,116.734 L237.185,118.571 L232.841,117.407 L239.603,122.582 C238.118,123.005 209.901,131.045 198.485,134.085 C186.815,137.191 175.276,135.662 166.632,133.346 C157.928,131.014 152.449,128.039 152.161,127.883 L27.205,75.767 L29.933,73.652 L2,65.63 L28.884,40.392 L60.138,48.767 L61.073,50.418 L227.256,75.538 C227.554,75.581 233.219,76.395 239.678,78.126 L239.678,78.126 Z M239.678,78.126" class="walkway"/>
                    <path d="M232.624,77.133 L229.4,79.633 L229.396,79.893 L229.15,79.827 L224.685,83.289 L224.623,87.755 L236.342,90.895 L236.311,93.131 L231.423,91.821 L231.444,90.275 L224.498,88.414 L224.054,88.758 L224.06,88.296 L221.377,87.577 L221.395,86.287 L216.519,84.98 L227.605,76.384 L227.667,71.918 L172.842,63.699 L172.406,64.047 L172.412,63.584 L157.896,61.25 L157.46,61.588 L157.466,61.135 L137.434,58.097 L133.41,61.217 L133.461,57.55 L62.584,46.842 L60.106,48.764 L28.852,40.39 L2.062,61.164 L2,65.63 L29.94,73.117 L29.904,75.698 L37.594,78.793 L41.068,76.099 L78.073,86.015 L76.663,87.108 L76.601,91.574 L97.104,97.068 L95.199,98.546 L95.137,103.012 L107.73,108.199 L108.166,107.861 L108.16,108.314 L117.776,112.181 L134.64,99.104 L134.702,94.638 L123.849,91.73 L123.413,92.068 L123.419,91.615 L120.38,90.801 L110.21,91.44 L102.065,93.565 L106.612,90.039 L106.616,89.784 L106.858,89.849 L115.292,83.309 L115.296,83.049 L115.542,83.115 L122.24,77.922 L122.302,73.456 L121.14,71.528 L124.028,69.288 L123.977,72.955 L126.045,76.387 L126.02,78.161 L137.311,81.186 L137.747,80.848 L137.741,81.301 L150.985,84.85 L151.643,84.333 L151.633,85.024 L154.098,89.114 L153.798,89.346 L153.804,88.884 L147.295,87.14 L143.076,90.412 L143.014,94.878 L149.523,96.622 L149.967,96.278 L149.961,96.74 L153.188,101.485 L156.22,102.297 L156.664,101.953 L156.658,102.414 L170.113,106.019 L170.557,105.675 L170.551,106.137 L172.286,106.602 L177.135,106.021 L174.708,106.649 L174.697,107.424 L173.525,107.11 L169.995,108.494 L169.957,111.238 L167.998,112.757 L168.011,111.842 L164.534,110.91 L161.803,105.78 L149.653,102.524 L148.523,103.4 L148.536,102.485 L144.192,101.321 L141.215,96.382 L123.605,110.037 L123.543,114.503 L130.803,117.482 L131.683,116.8 L131.67,117.715 L147.237,124.215 L148.228,123.446 L154.709,125.182 L154.677,127.503 C154.822,127.588 157.584,129.195 161.679,130.674 C164.458,131.676 166.669,132.333 168.189,132.74 C169.723,133.151 170.511,133.3 170.552,133.307 L171.904,132.259 L171.884,133.664 C172.438,133.812 181.234,136.108 191.203,134.96 C200.421,133.894 208.157,130.722 208.564,130.555 L208.626,126.089 L200.411,123.888 L200.421,123.198 L206.579,124.848 L217.742,116.192 L217.774,113.871 L218.24,113.996 L225.992,112.966 L226.054,108.5 L224.997,106.746 L225.19,106.798 L225.626,106.46 L225.62,106.913 L233.294,108.969 L232.938,109.049 L232.876,113.515 L233.187,116.445 L238.399,117.841 L243.729,116.423 L243.855,113.61 L243.894,110.802 L253.152,110.925 L253.715,102.793 L253.758,99.697 L254.083,99.784 L254.27,91.038 L254.274,90.778 L254.52,90.844 L254.704,87.53 L254.766,83.064 L232.624,77.133 L232.624,77.133 Z M211.542,102.54 L211.431,102.51 L211.543,102.423 L211.542,102.54 L211.542,102.54 Z M199.118,108.096 L199.112,108.1 L199.112,108.094 L199.118,108.096 L199.118,108.096 Z M191.634,104.279 L191.666,101.958 L193.866,102.548 L196.808,100.267 L196.776,102.55 L196.956,102.849 L196.467,102.904 L196.424,106 L190.507,104.415 L191.634,104.279 L191.634,104.279 Z M218.908,105.177 L218.909,105.116 L219.069,105.159 L218.908,105.177 L218.908,105.177 Z M218.908,105.177" class="wall"/>
                </g>
                <g class="ceilings">
                    <path class="unit" d="M254.263,86.592 L254.084,95.34 L236.285,90.57 L240.25,87.496 L224.623,83.308 L229.088,79.846 L254.263,86.592 Z M254.263,86.592" id="4001"/>
                    <path class="unit" d="M227.605,71.939 L193.867,98.1 L156.096,87.98 L151.633,80.574 L172.779,63.719 L227.605,71.939 Z M227.605,71.939" id="4002"/>
                    <path class="unit" d="M221.333,86.308 L220.092,87.27 L223.999,88.317 L211.099,98.32 L209.365,97.855 L197.524,99.341 L196.777,98.102 L214.387,84.447 L221.333,86.308 Z M221.333,86.308" id="4003"/>
                    <path class="unit" d="M231.382,90.296 L218.483,100.298 L211.537,98.437 L224.436,88.434 L231.382,90.296 Z M231.382,90.296" id="4004"/>
                    <path class="unit" d="M236.842,93.31 L225.184,102.35 L218.667,100.604 L230.325,91.564 L236.842,93.31 Z M236.842,93.31" id="4005"/>
                    <path class="unit" d="M246.326,94.556 L244.589,95.903 L253.708,98.346 L253.145,106.479 L239.943,106.305 L225.613,102.465 L237.522,93.231 L238.389,93.463 L239.38,92.695 L246.326,94.556 Z M246.326,94.556" id="4006"/>
                    <path class="unit" d="M218.855,104.535 L216.812,104.765 L212.468,103.601 L208.994,106.295 L203.352,104.784 L196.406,102.922 L208.002,101.627 L213.213,103.023 L218.855,104.535 Z M218.855,104.535" id="4007"/>
                    <path class="unit" d="M134.64,94.655 L117.776,107.733 L108.16,103.866 L123.787,91.747 L134.64,94.655 Z M134.64,94.655" id="4008"/>
                    <path class="unit" d="M224.504,106.048 L225.986,108.519 L218.234,109.549 L213.022,108.153 L212.655,107.532 L209.616,106.718 L212.839,104.218 L217.184,105.382 L220.597,105.002 L224.504,106.048 Z M224.504,106.048" id="4009"/>
                    <path class="unit" d="M199.069,106.743 L192.872,111.549 L174.643,106.665 L186.919,103.488 L199.069,106.743 Z M199.069,106.743" id="4010"/>
                    <path class="unit" d="M243.848,109.163 L243.722,111.976 L238.392,113.394 L233.18,111.998 L232.869,109.068 L238.636,107.767 L243.848,109.163 Z M243.848,109.163" id="4011"/>
                    <path class="unit" d="M141.149,96.399 L144.126,101.339 L148.47,102.503 L140.535,108.655 L137.496,107.841 L130.799,113.034 L123.539,110.055 L141.149,96.399 Z M141.149,96.399" id="4012"/>
                    <path class="unit" d="M207.32,108.954 L196.158,117.61 L189.212,115.749 L200.374,107.093 L207.32,108.954 Z M207.32,108.954" id="4013"/>
                    <path class="unit" d="M217.736,111.745 L206.573,120.401 L196.588,117.725 L207.75,109.069 L217.736,111.745 Z M217.736,111.745" id="4014"/>
                    <path class="unit" d="M161.745,105.799 L164.468,110.926 L167.945,111.858 L156.037,121.092 L148.224,118.999 L147.232,119.767 L131.666,113.267 L137.618,108.651 L140.657,109.466 L149.587,102.541 L161.745,105.799 Z M161.745,105.799" id="4015"/>
                    <path class="unit" d="M192.126,112.127 L170.547,128.861 C170.506,128.853 169.717,128.705 168.185,128.294 C166.666,127.887 164.457,127.231 161.682,126.23 C157.587,124.751 154.818,123.141 154.672,123.057 L170.795,110.554 L169.93,108.51 L173.46,107.126 L192.126,112.127 L192.126,112.127 Z M192.126,112.127" id="4016"/>
                    <path class="unit" d="M200.376,121.587 L198.143,123.318 L208.558,126.109 C208.151,126.276 200.415,129.448 191.197,130.514 C181.236,131.665 172.432,129.367 171.878,129.218 L186.482,117.864 L200.376,121.587 L200.376,121.587 Z M200.376,121.587" id="4017"/>
                    <path class="unit" d="M123.357,91.632 L107.73,103.75 L95.137,98.564 L101.339,93.755 L110.148,91.456 L120.318,90.818 L123.357,91.632 Z M123.357,91.632" id="4018"/>
                    <path class="unit" d="M106.612,85.589 L97.432,92.708 L76.601,87.126 L85.781,80.008 L106.612,85.589 Z M106.612,85.589" id="4019"/>
                    <path class="unit" d="M115.292,78.858 L106.858,85.399 L86.027,79.817 L94.461,73.277 L115.292,78.858 Z M115.292,78.858" id="4020"/>
                    <path class="unit" d="M172.35,63.604 L150.984,80.4 L137.74,76.851 L157.833,61.271 L172.35,63.604 Z M172.35,63.604" id="4021"/>
                    <path class="unit" d="M157.403,61.155 L137.311,76.736 L126.02,73.711 L126.766,73.132 L123.977,68.504 L137.372,58.117 L157.403,61.155 Z M157.403,61.155" id="4022"/>
                    <path class="unit" d="M119.45,68.843 L122.24,73.471 L115.542,78.665 L94.711,73.083 L105.128,65.005 L119.45,68.843 Z M119.45,68.843" id="4023"/>
                    <path class="unit" d="M133.399,57.57 L119.263,68.532 L104.941,64.694 L99.234,69.119 L97.5,68.654 L80.135,82.119 L41.068,71.651 L37.594,74.345 L29.904,71.25 L32.387,69.325 L2,61.183 L28.79,40.409 L60.044,48.783 L62.522,46.862 L133.399,57.57 Z M133.399,57.57" id="4024"/>
                    <path class="unit" d="M191.513,99.021 L191.634,99.831 L172.283,102.152 L170.549,101.687 L178.488,95.531 L191.513,99.021 Z M191.513,99.021" id="4025"/>
                    <path class="unit" d="M178.05,95.414 L170.111,101.57 L156.656,97.964 L164.595,91.808 L178.05,95.414 Z M178.05,95.414" id="4026"/>
                    <path class="unit" d="M164.165,91.693 L156.227,97.849 L153.187,97.035 L149.96,92.289 L154.18,89.017 L164.165,91.693 Z M164.165,91.693" id="4027"/>
                    <path class="unit" d="M153.742,88.9 L149.523,92.172 L143.014,90.428 L147.234,87.156 L153.742,88.9 Z M153.742,88.9" id="4028"/>
                    <path class="unit" d="M254.697,83.084 L254.513,86.398 L229.338,79.652 L232.562,77.152 L254.697,83.084 Z M254.697,83.084" id="4029"/>
        </g>
    </g>
</svg>