<?xml version="1.0" encoding="utf-8"?>
<!DOCTYPE svg PUBLIC "-//W3C//DTD SVG 1.1//EN" "http://www.w3.org/Graphics/SVG/1.1/DTD/svg11.dtd">
<svg version="1.1" xmlns="http://www.w3.org/2000/svg" xmlns:xlink="http://www.w3.org/1999/xlink" xml:space="preserve">
<g class="level" id="level4">
                <g class="outline">
                    <path d="M260.911,101.693 L260.911,101.693 C260.408,97.235 254.392,93.522 242.522,90.341 C236.91,88.837 232.321,88.085 231.807,88.003 L220.704,86.3 L190.192,78.124 L187.685,80.067 L180.051,78.283 L178.135,79.768 L175.005,79.288 L175.047,76.229 L163.611,74.725 L160.581,77.075 L156.522,76.452 L156.565,73.385 L116.815,67.087 L113.417,69.722 L112.878,69.577 L112.907,67.512 L111.091,67.025 L111.111,65.617 L75.149,59.539 L70.382,63.235 L66.999,62.716 L27.465,52.123 L0.507,73.027 L0.419,79.34 L30.117,88.452 L27.627,90.382 L155.831,143.186 C156.711,143.657 162.219,146.507 170.557,148.741 C175.462,150.055 181.906,151.266 188.993,151.266 C193.537,151.266 198.347,150.768 203.184,149.48 C213.464,146.743 236.92,140.172 243.865,138.224 L247.032,137.336 L242.299,133.854 L250.186,131.709 L250.192,127.145 L259.146,127.281 L259.294,125.923 C259.653,122.649 261.406,106.092 260.911,101.693 L260.911,101.693 Z M260.911,101.693" class="outline"/>
                </g>
                <g class="label">
                    <path d="M192.902,8.166 C192.614,7.75 192.294,7.43 191.925,7.19 C193.35,6.693 194.278,5.701 194.278,4.181 C194.278,2.244 192.966,0.964 190.069,0.964 C188.965,0.964 188.212,1.076 187.7,1.236 C187.3,1.364 187.188,1.604 187.188,2.004 L187.188,11.704 C187.188,12.104 187.46,12.344 187.813,12.344 C188.165,12.344 188.437,12.104 188.437,11.704 L188.437,7.526 L189.686,7.526 C190.854,7.526 191.319,8.006 191.895,8.935 C192.295,9.575 192.711,10.503 193.207,11.896 C193.303,12.152 193.479,12.344 193.815,12.344 C194.151,12.344 194.44,12.104 194.44,11.72 C194.44,11.608 194.408,11.448 194.344,11.288 C193.911,10.135 193.398,8.935 192.902,8.166 L192.902,8.166 Z M189.877,6.31 L188.437,6.31 L188.437,2.276 C188.885,2.212 189.317,2.148 190.006,2.148 C192.295,2.148 193.015,3.044 193.015,4.229 C193.014,5.878 191.462,6.358 189.877,6.31 L189.877,6.31 Z M184.245,1.028 C183.892,1.028 183.62,1.284 183.62,1.684 L183.62,11.704 C183.62,12.104 183.876,12.344 184.228,12.344 C184.58,12.344 184.852,12.104 184.852,11.704 L184.852,1.684 C184.853,1.283 184.597,1.028 184.245,1.028 L184.245,1.028 Z M199.51,5.926 C198.149,5.398 197.269,4.982 197.269,3.861 C197.269,2.789 198.165,2.164 199.318,2.164 C199.99,2.164 200.55,2.308 200.999,2.468 C201.175,2.516 201.335,2.58 201.511,2.58 C201.799,2.58 202.071,2.34 202.071,1.988 C202.071,1.764 201.975,1.54 201.591,1.38 C201.047,1.156 200.198,0.964 199.446,0.964 C197.269,0.964 195.989,2.292 195.989,3.925 C195.989,5.542 197.093,6.294 198.694,6.918 C200.791,7.734 201.367,8.294 201.367,9.367 C201.367,10.503 200.471,11.256 199.078,11.256 C198.214,11.256 197.397,10.936 196.837,10.536 C196.581,10.36 196.437,10.264 196.197,10.264 C195.893,10.264 195.636,10.504 195.621,10.808 C195.605,11.112 195.765,11.304 195.973,11.448 C196.709,11.945 197.765,12.408 199.014,12.408 C201.207,12.408 202.616,11.112 202.616,9.287 C202.615,7.622 201.382,6.646 199.51,5.926 L199.51,5.926 Z M181.415,1.092 L176.725,1.092 C176.037,1.092 175.668,1.46 175.668,2.052 L175.668,11.704 C175.668,12.104 175.94,12.344 176.293,12.344 C176.645,12.344 176.901,12.104 176.901,11.704 L176.901,7.414 L180.823,7.414 C181.175,7.414 181.415,7.126 181.415,6.822 C181.415,6.534 181.175,6.245 180.823,6.245 L176.901,6.245 L176.901,2.308 L181.399,2.308 C181.847,2.308 182.055,2.004 182.055,1.716 C182.055,1.412 181.847,1.092 181.415,1.092 L181.415,1.092 Z M210.695,1.092 L203.844,1.092 C203.492,1.092 203.252,1.396 203.252,1.7 C203.252,2.004 203.444,2.292 203.844,2.292 L206.597,2.292 L206.597,11.704 C206.597,12.104 206.869,12.344 207.221,12.344 C207.557,12.344 207.829,12.104 207.829,11.704 L207.829,2.292 L210.694,2.292 C211.062,2.292 211.27,1.988 211.27,1.7 C211.271,1.38 211.047,1.092 210.695,1.092 L210.695,1.092 Z M259.639,11.288 C259.207,10.135 258.695,8.935 258.199,8.166 C257.911,7.75 257.591,7.43 257.222,7.19 C258.647,6.693 259.576,5.701 259.576,4.181 C259.576,2.244 258.264,0.964 255.366,0.964 C254.262,0.964 253.51,1.076 252.997,1.236 C252.597,1.364 252.485,1.604 252.485,2.004 L252.485,11.704 C252.485,12.104 252.756,12.344 253.109,12.344 C253.461,12.344 253.733,12.104 253.733,11.704 L253.733,7.526 L254.981,7.526 C256.15,7.526 256.614,8.006 257.19,8.935 C257.59,9.575 258.006,10.503 258.502,11.896 C258.599,12.152 258.774,12.344 259.11,12.344 C259.446,12.344 259.734,12.104 259.734,11.72 C259.734,11.608 259.703,11.447 259.639,11.288 L259.639,11.288 Z M255.173,6.31 L253.733,6.31 L253.733,2.276 C254.181,2.212 254.613,2.148 255.301,2.148 C257.59,2.148 258.311,3.044 258.311,4.229 C258.311,5.878 256.758,6.358 255.173,6.31 L255.173,6.31 Z M245.989,0.964 C243.108,0.964 241.283,3.301 241.283,6.902 C241.283,10.295 243.076,12.408 245.941,12.408 C248.822,12.408 250.647,10.055 250.647,6.454 C250.647,3.06 248.839,0.964 245.989,0.964 L245.989,0.964 Z M245.974,11.223 C243.829,11.223 242.58,9.478 242.58,6.966 C242.58,4.005 243.812,2.148 245.957,2.148 C248.15,2.148 249.351,3.893 249.351,6.39 C249.351,9.351 248.118,11.223 245.974,11.223 L245.974,11.223 Z M235.285,0.964 C232.404,0.964 230.579,3.301 230.579,6.902 C230.579,10.295 232.372,12.408 235.237,12.408 C238.118,12.408 239.943,10.055 239.943,6.454 C239.943,3.06 238.135,0.964 235.285,0.964 L235.285,0.964 Z M235.27,11.223 C233.125,11.223 231.876,9.478 231.876,6.966 C231.876,4.005 233.108,2.148 235.253,2.148 C237.446,2.148 238.647,3.893 238.647,6.39 C238.646,9.351 237.414,11.223 235.27,11.223 L235.27,11.223 Z M221.814,1.092 L217.124,1.092 C216.436,1.092 216.068,1.46 216.068,2.052 L216.068,11.704 C216.068,12.104 216.339,12.344 216.692,12.344 C217.044,12.344 217.3,12.104 217.3,11.704 L217.3,7.414 L221.221,7.414 C221.574,7.414 221.814,7.126 221.814,6.822 C221.814,6.534 221.574,6.245 221.221,6.245 L217.3,6.245 L217.3,2.308 L221.797,2.308 C222.245,2.308 222.453,2.004 222.453,1.716 C222.454,1.412 222.246,1.092 221.814,1.092 L221.814,1.092 Z M229.559,11.095 L225.253,11.095 L225.253,1.684 C225.253,1.284 224.996,1.028 224.645,1.028 C224.292,1.028 224.021,1.284 224.021,1.684 L224.021,11.32 C224.021,11.912 224.389,12.28 225.077,12.28 L229.559,12.28 C229.958,12.28 230.215,12.008 230.215,11.672 C230.215,11.367 229.975,11.095 229.559,11.095 L229.559,11.095 Z M229.559,11.095" class="Shape"/>
                </g>
                <g class="background">
                    <path d="M242.134,91.79 C249.792,93.842 258.899,97.237 259.42,101.861 C259.92,106.3 257.911,124.788 257.805,125.761 L243.483,125.543 L248.695,126.939 L248.69,130.562 L241.501,132.517 L236.477,131.432 L243.669,136.723 C242.196,137.136 214.217,144.993 202.801,148.032 C191.131,151.138 179.592,149.609 170.948,147.293 C162.244,144.961 156.765,141.986 156.477,141.83 L30.596,89.981 L33.324,87.866 L1.938,78.236 L30.597,57.37 L61.851,65.745 L64.329,63.823 L231.579,89.485 C231.824,89.525 236.458,90.269 242.134,91.79 L242.134,91.79 Z M242.134,91.79" class="walkway"/>
                    <path d="M136.57,106.203 L123.982,102.83 L114,103.78 L110.676,102.889 L116.908,102.315 L128.32,93.465 L128.371,89.854 L129.192,90.074 L143.825,87.785 L154.988,79.129 L155.05,74.663 L117.224,68.669 L113.751,71.363 L111.578,70.781 L111.361,70.949 L111.393,68.658 L109.577,68.171 L109.595,66.881 L75.55,61.127 L71.335,64.395 L71.321,65.426 L27.799,53.764 L2.001,73.77 L1.938,78.236 L41.196,88.755 L41.135,93.137 L75.488,107.261 L81.194,102.836 L93.782,106.209 L99.238,101.978 L99.252,100.948 L106.308,102.838 L108.318,101.279 L108.305,102.254 L107.483,102.034 L95.329,111.458 L95.267,115.924 L105.934,120.339 L107.425,119.182 L110.917,120.118 L110.892,121.923 L117.902,125.097 L136.507,110.669 L136.57,106.203 Z M136.57,106.203" class="wall"/>
                    <path d="M220.91,87.907 L190.523,79.765 L188.041,81.69 L180.407,79.906 L169.99,87.983 L169.928,92.45 L170.905,92.712 L168.258,94.764 L163.434,93.471 L163.442,92.955 L165.591,91.288 L165.639,87.88 L173.469,82.008 L173.531,77.542 L164.039,76.293 L147.915,88.796 L147.853,93.262 L159.246,96.315 L142.954,108.948 L142.892,113.414 L144.307,113.793 L141.16,116.233 L135.511,114.72 L125.094,122.797 L125.032,127.264 L144.46,132.469 L144.445,133.504 L146.449,134.041 L146.428,135.587 L161.617,139.657 L181.96,123.882 L187.171,125.279 L207.51,109.508 L207.567,105.387 L211.542,102.305 L211.58,99.561 L220.848,92.374 L220.91,87.907 Z M220.91,87.907" class="wall"/>
                </g>
                <g class="ceilings">
                    <path class="unit" d="M155.049,74.663 L143.887,83.319 L129.254,85.608 L127.082,85.026 L128.569,83.873 L73.874,69.218 L77.843,66.139 L71.335,64.396 L75.554,61.124 L109.594,66.881 L108.353,67.844 L111.393,68.658 L107.673,71.542 L109.845,72.124 L111.582,70.777 L113.754,71.359 L117.224,68.669 L155.049,74.663 Z M155.049,74.663" id="5001"/>
                    <path class="unit" d="M75.985,66.676 L72.511,69.369 L125.471,83.56 L106.37,98.372 L47.768,82.67 L44.545,85.17 L2,73.77 L27.799,53.764 L75.985,66.676 Z M75.985,66.676" id="5002"/>
                    <path class="unit" d="M125.719,85.178 L128.382,88.999 L116.974,97.845 L108.354,98.643 L125.719,85.178 Z M125.719,85.178" id="5003"/>
                    <path class="unit" d="M99.3,97.512 L93.843,101.743 L81.256,98.37 L75.549,102.795 L41.197,88.67 L47.644,83.671 L99.3,97.512 Z M99.3,97.512" id="5004"/>
                    <path class="unit" d="M136.569,106.203 L117.963,120.631 L110.961,117.459 L112.698,116.112 L107.486,114.716 L106,115.869 L95.329,111.458 L107.482,102.034 L113.999,103.78 L123.981,102.83 L136.569,106.203 Z M136.569,106.203" id="5005"/>
                    <path class="unit" d="M220.909,87.907 L209.001,97.142 L211.603,97.839 L203.664,103.995 L207.571,105.042 L187.233,120.813 L182.029,119.418 L161.686,135.193 L146.489,131.12 L147.98,129.964 L144.511,129.035 L145.502,128.266 L125.101,122.799 L135.518,114.722 L141.16,116.233 L148.603,110.462 L142.961,108.95 L163.054,93.369 L168.258,94.764 L175.201,89.38 L169.997,87.986 L180.419,79.904 L188.04,81.69 L190.523,79.765 L220.909,87.907 Z M220.909,87.907" id="5006"/>
                    <path class="unit" d="M173.53,77.542 L162.34,85.934 L165.653,86.821 L162.184,89.512 L163.488,89.861 L160.51,92.171 L147.923,88.798 L164.046,76.295 L173.53,77.542 Z M173.53,77.542" id="5007"/>
        </g>
    </g>
</svg>