<?xml version="1.0" encoding="utf-8"?>
<!DOCTYPE svg PUBLIC "-//W3C//DTD SVG 1.1//EN" "http://www.w3.org/Graphics/SVG/1.1/DTD/svg11.dtd">
<svg version="1.1" xmlns="http://www.w3.org/2000/svg" xmlns:xlink="http://www.w3.org/1999/xlink" xml:space="preserve">
<g class="level" id="level2">
                <g class="shadow">
                    <path d="M200.312,31.708 L196.311,34.61 L216.935,39.754 L220.453,37.205 L220.453,34.17 L226.521,29.774 L238.306,34.391 L238.262,37.292 L238.35,37.248 L278.014,52.243 L278.014,53.078 L275.023,55.189 L280.564,56.596 L281.267,56.112 L285.755,56.683 L285.755,54.793 L286.062,54.177 L286.194,54.221 L288.789,54.793 C291.428,55.408 293.847,56.361 296.045,57.65 C297.129,58.295 297.965,58.925 298.551,59.541 L299.609,61.08 L300.577,62.487 C301.047,63.014 301.735,63.544 302.645,64.071 C304.931,65.39 307.498,66.386 310.339,67.061 L312.888,67.677 L319.397,68.511 L319.527,68.511 L319.527,71.282 L319.66,71.282 L319.66,72.074 L319.527,72.162 L323.881,73.261 L328.148,70.271 L367.59,80.121 L367.59,82.935 L370.23,83.595 L370.23,84.386 L369.57,84.825 L375.638,86.364 L377.745,85.485 L386.496,87.992 L387.156,87.817 L395.292,90.146 L395.292,90.936 L391.07,93.97 L388.475,93.354 L388.475,93.75 L380.078,96.343 L366.929,93.046 L345.782,108.088 L347.889,108.614 L347.843,111.253 L356.069,113.276 L359.539,110.813 L364.863,112.131 L383.461,98.852 L396.389,102.107 L401.051,105.712 C404.158,108.789 405.888,112.087 406.24,115.605 L406.195,120.135 L406.15,120.312 L406.104,121.146 L405.84,122.596 L405.84,122.64 L405.576,123.652 L405.18,124.751 L405.093,124.927 L405.047,125.102 L404.036,127.17 L403.946,127.258 L403.858,127.434 L402.452,129.503 L402.412,129.547 L402.325,129.678 L400.52,131.745 L397.926,134.165 L397.793,134.253 L396.521,135.265 L396.43,135.352 L394.495,136.716 L394.366,136.759 L394.054,136.98 L393.965,137.025 L393.657,137.245 L393.085,137.553 L393.041,137.598 L392.909,137.687 L392.865,137.732 L392.821,137.732 L392.688,137.776 L382.794,138.524 L377.21,142.526 L374.175,143.405 L375.891,145.999 L375.852,150 L344.676,172.25 L344.632,174.537 L342.434,176.031 L332.365,177.219 L329.11,176.296 L328.011,174.576 L271.767,160.549 L268.733,160.77 L262.448,159.23 L262.492,155.272 L266.406,152.503 L268.868,152.327 L270.76,151.008 L214.693,137.026 L214.428,135.003 L214.428,134.957 L213.9,134.827 L212.273,127.219 L207.346,128.276 L202.113,127.001 L202.157,124.715 L185.535,127.881 L183.776,127.442 L183.776,127.487 L179.862,128.366 L119.403,113.281 L111.926,118.645 L105.902,119.305 L71.208,110.686 L67.118,105.586 L67.162,101.583 L85.895,88.214 L80.97,86.985 L81.014,86.194 L84.269,83.908 L73.715,81.27 L73.759,80.478 L76.134,78.762 L1.774,60.201 L1.817,56.199 L52.166,20.273 L77.231,26.518 L77.187,30.475 L77.1,30.563 L101.154,36.543 L105.727,33.289 L163.067,47.581 L163.067,50.351 L175.115,41.732 L155.107,36.72 L155.107,35.929 L171.994,23.836 L200.312,30.916 L200.312,31.708 M219.002,47.669 L213.065,49.34 L182.327,71.283 L182.327,71.503 L186.241,74.933 L191.605,76.253 L191.561,76.209 L190.858,75.769 L189.891,74.802 L189.626,74.23 L189.539,74.098 L189.495,73.571 L189.495,69.569 L189.539,69.657 C189.511,68.865 189.964,68.118 190.902,67.414 L217.419,48.506 C217.887,48.182 218.415,47.902 219.002,47.669 M249.123,60.421 L222.608,79.329 L222.517,79.417 L221.198,80.12 L227.399,78.45 L258.091,56.552 L258.135,56.199 L253.915,52.638 L246.924,50.877 C249.388,51.845 250.589,52.988 250.532,54.308 L250.532,58.353 L250.487,58.661 L250.441,58.794 L250.353,58.969 L250.221,59.278 L250.176,59.322 L250.046,59.586 L249.694,59.939 L249.123,60.421" class="shadow"/>
                </g>
                <g class="outline">
                    <path d="M332.222,161.412 L327.99,160.213 L326.91,158.524 L271.619,144.735 L268.591,144.956 L260.677,143.019 L260.747,136.769 L264.958,133.786 L213.107,120.854 L212.837,118.785 L212.415,118.681 L210.927,111.721 L207.328,112.492 L200.334,110.788 L200.362,109.261 L185.49,112.093 L183.851,111.686 L179.846,112.584 L179.442,112.483 L119.77,97.597 L112.581,102.756 L105.786,103.499 L70.209,94.66 L65.355,88.602 L65.416,83.079 L81.774,71.406 L79.136,70.746 L79.307,67.652 L80.112,67.087 L71.882,65.03 L72.051,61.962 L0,43.982 L0.068,37.697 L51.806,0.782 L79.006,7.558 L78.961,11.623 L100.793,17.052 L105.366,13.798 L164.826,28.619 L164.826,29.342 L171,24.926 L153.348,20.504 L153.348,17.436 L171.63,4.344 L202.07,11.953 L202.07,15.015 L200.398,16.227 L216.563,20.26 L218.692,18.717 L218.692,15.683 L226.264,10.195 L240.08,15.607 L240.039,18.418 L279.77,33.439 L279.77,36.403 L279.156,36.838 L280.22,37.109 L280.821,36.696 L283.993,37.1 L283.993,36.791 L285.167,34.441 L286.659,34.935 L289.166,35.488 C291.984,36.145 294.591,37.174 296.933,38.545 C298.174,39.284 299.117,40 299.823,40.739 L300,40.958 L301.952,43.802 C302.208,44.07 302.678,44.471 303.523,44.962 C305.646,46.189 308.076,47.13 310.74,47.763 L313.204,48.357 L319.525,49.166 L321.285,49.166 L321.285,51.937 L321.418,51.937 L321.418,53.239 L323.529,53.773 L327.794,50.785 L369.348,61.163 L369.348,63.977 L371.987,64.636 L371.987,66.04 L375.501,66.932 L377.639,66.04 L386.516,68.583 L387.175,68.406 L397.052,71.236 L397.052,74.255 L391.447,78.285 L389.263,77.766 L383.648,79.5 L397.179,82.907 L402.291,86.879 C405.682,90.237 407.6,93.929 407.992,97.847 L408.002,97.944 L407.955,102.779 L407.901,102.994 L407.839,103.878 L407.527,105.583 L406.634,108.294 L405.323,110.842 L403.69,113.207 L402.764,114.321 L398.832,118.092 L397.447,119.204 L394.496,121.207 L394.04,121.46 L393.644,121.856 L392.828,121.939 L383.426,122.65 L377.999,126.542 L376.971,126.84 L377.663,127.889 L377.603,133.327 L346.418,155.581 L346.374,157.893 L343.068,160.141 L332.222,161.412 L332.222,161.412 Z M349.625,92.292 L355.704,93.788 L359.179,91.323 L364.496,92.641 L382.349,79.895 L380.123,80.583 L367.284,77.362 L349.664,89.894 L349.625,92.292 L349.625,92.292 Z M349.625,92.292" class="outline"/>
                </g>
                <g class="label">
                    <path d="M341.9,17.517 C340.891,17.517 340.138,17.629 339.627,17.789 C339.227,17.917 339.115,18.157 339.115,18.557 L339.115,28.257 C339.115,28.657 339.371,28.897 339.722,28.897 C340.075,28.897 340.346,28.657 340.346,28.257 L340.346,24.639 C340.874,24.671 341.179,24.687 341.82,24.687 C344.701,24.687 346.221,23.294 346.221,21.021 C346.222,19.005 344.893,17.517 341.9,17.517 L341.9,17.517 Z M341.756,23.519 C341.164,23.519 340.876,23.519 340.347,23.487 L340.347,18.813 C340.795,18.749 341.34,18.685 341.868,18.685 C344.14,18.685 344.957,19.773 344.957,21.054 C344.957,22.366 344.253,23.519 341.756,23.519 L341.756,23.519 Z M353.949,27.617 L349.178,27.617 L349.178,23.759 L353.052,23.759 C353.437,23.759 353.644,23.439 353.644,23.167 C353.644,22.879 353.437,22.591 353.052,22.591 L349.178,22.591 L349.178,18.862 L353.788,18.862 C354.204,18.862 354.428,18.59 354.428,18.286 C354.428,17.95 354.204,17.646 353.788,17.646 L349.002,17.646 C348.314,17.646 347.945,18.014 347.945,18.606 L347.945,27.874 C347.945,28.466 348.313,28.834 349.002,28.834 L353.948,28.834 C354.332,28.834 354.555,28.498 354.555,28.226 C354.557,27.889 354.333,27.617 353.949,27.617 L353.949,27.617 Z M327.374,17.581 C327.006,17.581 326.75,17.837 326.75,18.237 L326.75,26.992 C325.917,27.536 324.733,27.761 324.013,27.761 C322.157,27.761 321.02,26.848 321.02,24.783 L321.02,18.237 C321.02,17.837 320.764,17.581 320.413,17.581 C320.06,17.581 319.789,17.837 319.789,18.237 L319.789,25.024 C319.789,27.361 321.246,28.962 323.774,28.962 C325.583,28.962 326.623,28.482 327.551,27.954 C327.904,27.746 327.984,27.474 327.984,27.09 L327.984,18.238 C327.982,17.836 327.726,17.581 327.374,17.581 L327.374,17.581 Z M333.068,17.517 C332.059,17.517 331.306,17.629 330.795,17.789 C330.395,17.917 330.283,18.157 330.283,18.557 L330.283,28.257 C330.283,28.657 330.539,28.897 330.89,28.897 C331.243,28.897 331.514,28.657 331.514,28.257 L331.514,24.639 C332.042,24.671 332.347,24.687 332.988,24.687 C335.869,24.687 337.389,23.294 337.389,21.021 C337.39,19.005 336.062,17.517 333.068,17.517 L333.068,17.517 Z M332.924,23.519 C332.332,23.519 332.044,23.519 331.515,23.487 L331.515,18.813 C331.963,18.749 332.508,18.685 333.036,18.685 C335.308,18.685 336.125,19.773 336.125,21.054 C336.125,22.366 335.421,23.519 332.924,23.519 L332.924,23.519 Z M408.524,27.648 L404.217,27.648 L404.217,18.236 C404.217,17.836 403.96,17.58 403.61,17.58 C403.256,17.58 402.986,17.836 402.986,18.236 L402.986,27.872 C402.986,28.464 403.353,28.832 404.042,28.832 L408.524,28.832 C408.922,28.832 409.179,28.56 409.179,28.224 C409.18,27.92 408.94,27.648 408.524,27.648 L408.524,27.648 Z M400.652,27.617 L395.881,27.617 L395.881,23.759 L399.754,23.759 C400.138,23.759 400.347,23.439 400.347,23.167 C400.347,22.879 400.138,22.591 399.754,22.591 L395.881,22.591 L395.881,18.862 L400.49,18.862 C400.906,18.862 401.131,18.59 401.131,18.286 C401.131,17.95 400.906,17.646 400.49,17.646 L395.704,17.646 C395.016,17.646 394.648,18.014 394.648,18.606 L394.648,27.874 C394.648,28.466 395.015,28.834 395.704,28.834 L400.65,28.834 C401.034,28.834 401.257,28.498 401.257,28.226 C401.26,27.889 401.036,27.617 400.652,27.617 L400.652,27.617 Z M392.333,17.581 C392.045,17.581 391.821,17.757 391.741,18.093 C390.46,23.967 389.355,26.576 388.62,27.697 C387.884,26.576 386.795,23.967 385.482,18.093 C385.402,17.757 385.177,17.581 384.889,17.581 C384.536,17.581 384.282,17.821 384.282,18.205 C384.282,18.317 384.33,18.493 384.378,18.717 C385.435,23.183 386.203,25.488 387.083,27.297 C387.691,28.546 388.043,28.914 388.604,28.914 C389.166,28.914 389.516,28.546 390.125,27.297 C391.006,25.488 391.758,23.199 392.847,18.717 C392.895,18.493 392.944,18.317 392.944,18.205 C392.941,17.82 392.685,17.581 392.333,17.581 L392.333,17.581 Z M382.556,27.617 L377.786,27.617 L377.786,23.759 L381.659,23.759 C382.043,23.759 382.252,23.439 382.252,23.167 C382.252,22.879 382.043,22.591 381.659,22.591 L377.786,22.591 L377.786,18.862 L382.394,18.862 C382.81,18.862 383.036,18.59 383.036,18.286 C383.036,17.95 382.81,17.646 382.394,17.646 L377.609,17.646 C376.921,17.646 376.552,18.014 376.552,18.606 L376.552,27.874 C376.552,28.466 376.92,28.834 377.609,28.834 L382.554,28.834 C382.939,28.834 383.162,28.498 383.162,28.226 C383.165,27.889 382.94,27.617 382.556,27.617 L382.556,27.617 Z M361.997,24.719 C361.709,24.303 361.389,23.983 361.019,23.743 C362.445,23.246 363.373,22.254 363.373,20.734 C363.373,18.797 362.061,17.517 359.163,17.517 C358.059,17.517 357.306,17.629 356.794,17.789 C356.394,17.917 356.282,18.157 356.282,18.557 L356.282,28.257 C356.282,28.657 356.553,28.897 356.907,28.897 C357.259,28.897 357.531,28.657 357.531,28.257 L357.531,24.079 L358.779,24.079 C359.948,24.079 360.412,24.559 360.988,25.488 C361.387,26.128 361.803,27.056 362.3,28.449 C362.398,28.705 362.572,28.897 362.908,28.897 C363.244,28.897 363.532,28.657 363.532,28.273 C363.532,28.161 363.501,28.001 363.436,27.841 C363.005,26.688 362.493,25.488 361.997,24.719 L361.997,24.719 Z M358.971,22.863 L357.532,22.863 L357.532,18.829 C357.979,18.765 358.412,18.701 359.099,18.701 C361.388,18.701 362.11,19.597 362.11,20.782 C362.109,22.431 360.556,22.911 358.971,22.863 L358.971,22.863 Z M374.477,27.648 L370.171,27.648 L370.171,18.236 C370.171,17.836 369.914,17.58 369.563,17.58 C369.21,17.58 368.94,17.836 368.94,18.236 L368.94,27.872 C368.94,28.464 369.307,28.832 369.996,28.832 L374.477,28.832 C374.876,28.832 375.133,28.56 375.133,28.224 C375.133,27.92 374.893,27.648 374.477,27.648 L374.477,27.648 Z M374.477,27.648" class="Shape"/>
                    <path d="M258.799,12.228 C258.565,12.019 258.284,11.861 257.958,11.752 C257.207,11.503 256.534,11.61 255.939,12.072 L256.194,11.301 L255.369,11.027 L253.571,16.441 L254.488,16.746 L255.47,13.789 C255.7,13.096 255.998,12.672 256.365,12.518 C256.731,12.364 257.11,12.352 257.5,12.482 C257.745,12.563 257.939,12.689 258.084,12.861 C258.229,13.031 258.307,13.22 258.317,13.429 C258.327,13.638 258.27,13.929 258.146,14.304 L257.052,17.597 L257.969,17.902 L259.074,14.573 C259.216,14.148 259.297,13.845 259.32,13.664 C259.352,13.385 259.332,13.127 259.259,12.891 C259.188,12.656 259.034,12.435 258.799,12.228 L258.799,12.228 Z M241.974,4.294 L236.623,10.814 L237.673,11.163 L239.245,9.173 L242.37,10.211 L242.49,12.763 L243.617,13.137 L243.04,4.649 L241.974,4.294 L241.974,4.294 Z M239.797,8.461 L241.345,6.542 C241.675,6.127 241.968,5.695 242.222,5.248 C242.203,5.691 242.209,6.267 242.238,6.974 L242.331,9.302 L239.797,8.461 L239.797,8.461 Z M248.96,9.093 C248.706,8.79 248.424,8.586 248.115,8.484 C247.9,8.413 247.684,8.41 247.465,8.472 C247.246,8.535 246.967,8.724 246.63,9.038 L246.902,8.217 L246.076,7.943 L244.279,13.357 L245.196,13.662 L246.137,10.827 C246.265,10.44 246.435,10.099 246.645,9.807 C246.784,9.616 246.954,9.486 247.153,9.418 C247.353,9.351 247.553,9.35 247.754,9.417 C247.978,9.491 248.181,9.632 248.361,9.839 L248.96,9.093 L248.96,9.093 Z M253.354,11.044 C253.059,10.399 252.549,9.956 251.826,9.716 C251.078,9.468 250.387,9.518 249.75,9.864 C249.114,10.212 248.646,10.841 248.343,11.751 C248.051,12.631 248.056,13.393 248.357,14.034 C248.659,14.676 249.206,15.128 249.998,15.39 C250.627,15.599 251.194,15.618 251.7,15.447 C252.206,15.275 252.625,14.937 252.959,14.432 L252.05,14 C251.782,14.342 251.5,14.561 251.203,14.658 C250.906,14.755 250.59,14.749 250.254,14.637 C249.802,14.488 249.478,14.204 249.279,13.787 C249.081,13.371 249.065,12.859 249.228,12.254 L253.265,13.595 C253.304,13.487 253.333,13.407 253.351,13.352 C253.648,12.459 253.649,11.689 253.354,11.044 L253.354,11.044 Z M252.553,12.521 L249.532,11.517 C249.72,11.056 250.003,10.732 250.385,10.544 C250.765,10.357 251.166,10.334 251.588,10.474 C252.053,10.628 252.373,10.931 252.548,11.382 C252.661,11.672 252.663,12.052 252.553,12.521 L252.553,12.521 Z M291.075,23.57 C290.78,22.924 290.27,22.482 289.547,22.242 C288.799,21.993 288.108,22.044 287.471,22.389 C286.835,22.737 286.367,23.366 286.064,24.277 C285.772,25.157 285.777,25.918 286.078,26.56 C286.38,27.202 286.927,27.654 287.719,27.916 C288.348,28.125 288.915,28.144 289.421,27.973 C289.927,27.801 290.346,27.463 290.68,26.958 L289.771,26.525 C289.503,26.867 289.221,27.087 288.924,27.184 C288.627,27.281 288.311,27.275 287.975,27.163 C287.523,27.014 287.199,26.73 287,26.313 C286.802,25.896 286.786,25.385 286.949,24.78 L290.986,26.121 C291.025,26.013 291.054,25.932 291.072,25.877 C291.369,24.984 291.37,24.215 291.075,23.57 L291.075,23.57 Z M290.273,25.047 L287.251,24.043 C287.438,23.581 287.722,23.257 288.103,23.07 C288.484,22.882 288.885,22.859 289.307,22.999 C289.772,23.154 290.092,23.457 290.267,23.907 C290.382,24.198 290.384,24.578 290.273,25.047 L290.273,25.047 Z M285.586,21.062 L283.381,23.833 C283.102,24.186 282.839,24.555 282.594,24.941 C282.624,24.464 282.632,24.003 282.618,23.556 L282.533,20.047 L281.544,19.719 L281.797,25.824 C281.727,25.911 281.675,25.975 281.641,26.021 C281.391,26.342 281.223,26.539 281.134,26.611 C281.015,26.708 280.884,26.769 280.738,26.797 C280.593,26.824 280.419,26.804 280.215,26.736 C280.066,26.686 279.9,26.601 279.717,26.48 L279.533,27.376 C279.725,27.522 279.91,27.626 280.087,27.685 C280.379,27.782 280.654,27.794 280.912,27.723 C281.169,27.653 281.43,27.494 281.693,27.244 C281.889,27.06 282.197,26.708 282.616,26.186 L286.504,21.365 L285.586,21.062 L285.586,21.062 Z M295.118,24.092 C294.904,24.021 294.687,24.018 294.468,24.08 C294.249,24.143 293.97,24.332 293.633,24.645 L293.905,23.825 L293.079,23.551 L291.282,28.965 L292.199,29.27 L293.14,26.435 C293.268,26.048 293.438,25.708 293.648,25.415 C293.788,25.224 293.957,25.095 294.156,25.026 C294.356,24.959 294.556,24.958 294.757,25.024 C294.981,25.099 295.184,25.24 295.364,25.447 L295.963,24.701 C295.709,24.398 295.427,24.194 295.118,24.092 L295.118,24.092 Z M271.43,15.054 L275.482,16.4 L275.775,15.518 L270.733,13.844 L268.252,21.318 L269.241,21.646 L270.368,18.25 L273.875,19.415 L274.168,18.533 L270.661,17.368 L271.43,15.054 L271.43,15.054 Z M280.077,19.909 C279.767,19.265 279.239,18.819 278.495,18.572 C277.826,18.349 277.192,18.362 276.593,18.608 C275.875,18.905 275.351,19.555 275.018,20.557 C274.714,21.472 274.715,22.249 275.021,22.89 C275.328,23.532 275.859,23.978 276.617,24.23 C277.089,24.386 277.562,24.421 278.034,24.333 C278.507,24.245 278.914,24.036 279.255,23.706 C279.598,23.376 279.883,22.862 280.115,22.166 C280.4,21.307 280.388,20.554 280.077,19.909 L280.077,19.909 Z M279.156,21.899 C278.921,22.609 278.594,23.087 278.177,23.333 C277.759,23.579 277.323,23.627 276.867,23.476 C276.408,23.324 276.085,23.025 275.897,22.58 C275.709,22.135 275.73,21.565 275.96,20.872 C276.19,20.18 276.513,19.712 276.93,19.469 C277.346,19.226 277.784,19.181 278.242,19.333 C278.694,19.482 279.015,19.781 279.204,20.227 C279.396,20.672 279.379,21.229 279.156,21.899 L279.156,21.899 Z M264.577,14.131 C264.324,13.927 263.966,13.747 263.504,13.594 C263.038,13.44 262.608,13.367 262.212,13.377 C261.816,13.388 261.485,13.48 261.22,13.653 C260.954,13.827 260.717,14.092 260.508,14.45 L261.364,14.87 C261.591,14.518 261.831,14.302 262.087,14.219 C262.343,14.136 262.687,14.166 263.118,14.31 C263.58,14.463 263.894,14.683 264.06,14.968 C264.183,15.178 264.182,15.47 264.058,15.844 C264.047,15.878 264.018,15.957 263.973,16.081 C263.583,16.088 263.002,16.012 262.232,15.854 C261.854,15.778 261.567,15.733 261.371,15.721 C261.104,15.707 260.85,15.735 260.611,15.803 C260.372,15.869 260.155,15.993 259.962,16.172 C259.768,16.352 259.628,16.573 259.54,16.838 C259.39,17.29 259.427,17.715 259.649,18.111 C259.871,18.507 260.281,18.804 260.876,19.002 C261.236,19.122 261.593,19.175 261.947,19.16 C262.301,19.145 262.696,19.05 263.132,18.874 C263.075,19.138 263.062,19.381 263.094,19.603 L264.052,19.92 C264.006,19.675 264,19.432 264.036,19.193 C264.072,18.954 264.231,18.408 264.514,17.555 L264.92,16.331 C265.056,15.923 265.134,15.636 265.155,15.47 C265.184,15.199 265.158,14.96 265.077,14.75 C264.997,14.543 264.829,14.336 264.577,14.131 L264.577,14.131 Z M263.624,17.137 C263.49,17.542 263.339,17.831 263.171,18.006 C262.953,18.231 262.681,18.376 262.354,18.439 C262.027,18.502 261.688,18.475 261.334,18.358 C260.977,18.24 260.733,18.068 260.602,17.843 C260.471,17.618 260.446,17.384 260.527,17.139 C260.58,16.98 260.671,16.849 260.799,16.745 C260.927,16.642 261.081,16.584 261.259,16.567 C261.438,16.551 261.725,16.578 262.12,16.649 C262.818,16.775 263.356,16.825 263.734,16.799 L263.624,17.137 L263.624,17.137 Z M263.624,17.137" class="Shape"/>
                </g>
                <g class="background">
                    <path d="M387.153,70.224 L386.508,70.413 L377.74,67.896 L375.75,68.706 L369.583,67.24 L370.22,66.795 L370.22,66.003 L326.292,55.054 L325.063,55.934 L319.52,54.571 L319.653,54.483 L319.653,53.692 L317.366,53.429 L313.098,52.724 L311.252,52.328 C307.967,51.477 305.49,50.54 303.818,49.514 C303.232,49.163 302.22,48.063 300.784,46.217 C299.466,44.488 298.032,43.242 296.476,42.479 L293.572,41.029 L290.541,39.972 L281.26,38.521 L280.547,39 L275.023,37.598 L278.014,35.488 L278.014,34.653 L238.35,19.658 L233.996,22.78 L220.716,19.438 L216.935,22.165 L196.311,17.02 L200.312,14.118 L200.312,13.326 L171.994,6.247 L155.108,18.34 L155.108,19.135 L175.116,24.147 L145.04,45.604 L137.477,43.712 L127.539,50.748 L111.444,46.746 L112.016,46.35 L112.016,45.559 L101.462,42.92 L94.733,47.758 L94.689,48.549 L105.33,51.188 C105.8,50.894 106.254,50.586 106.693,50.263 L130.394,56.156 L121.16,62.707 L117.511,63.147 L117.511,63.982 L121.117,72.865 L168.256,84.605 L166.717,85.704 L166.717,86.1 L150.843,97.401 L142.621,95.378 L143.104,94.982 L143.104,94.192 L128.374,90.542 L136.686,84.562 L136.686,83.771 L130.925,82.32 L129.913,83.068 L129.913,83.86 L133.344,84.695 L119.14,94.853 L119.14,95.643 L179.866,110.769 L183.78,109.889 L183.78,109.1 L176.348,107.209 L186.286,100.128 L191.65,101.492 L193.935,99.866 L196.926,100.569 L198.331,99.6 L198.331,98.81 L188.658,96.391 L175.246,105.932 L154.71,100.832 L172.301,88.256 L172.301,87.894 L172.521,87.949 L174.806,86.321 L201.322,92.962 L205.192,94.677 L211.788,96.305 L212.622,99.207 L203.562,105.629 L202.2,105.893 L202.111,109.411 L207.344,110.685 L212.71,109.541 L212.71,108.75 L212.534,108.441 L222.076,101.67 L228.98,100.922 L235.751,102.593 L239.006,102.022 L246.789,103.955 L246.989,104.134 L239.622,109.409 L230.211,107.034 L230.782,106.64 L230.782,105.805 L229.331,105.452 L226.649,107.387 L226.649,108.179 L231.136,109.278 L230.476,109.807 L230.476,110.596 L233.948,111.431 L223.571,118.865 L214.426,116.622 L214.426,117.413 L214.69,119.436 L274.758,134.43 L276.733,133.018 L276.733,132.228 L261.21,128.271 L261.739,127.919 L261.739,127.129 L249.647,124.18 L253.914,121.103 L253.914,120.314 L248.153,118.862 L250.836,116.971 L250.836,116.182 L241.821,113.937 L252.55,106.287 L252.571,105.928 L252.771,105.979 L254.001,105.848 L298.898,117.062 L326.904,113.456 L333.939,115.216 L341.151,110.071 L341.151,109.278 L333.103,107.257 L339.815,102.469 L339.969,102.507 L345.733,98.373 L354.657,100.615 L359.275,97.317 L359.275,96.524 L343.047,92.48 L366.923,75.461 L380.072,78.759 L388.468,76.165 L388.491,75.742 L391.062,76.382 L395.284,73.348 L395.284,72.557 L387.153,70.224 L387.153,70.224 Z M283.728,46.391 L283.815,46.347 L283.859,46.347 L283.903,46.303 L283.95,46.303 L283.95,46.259 L283.994,46.216 L284.037,46.216 L284.037,46.172 L284.08,46.172 L284.124,46.083 L284.169,46.083 L284.213,45.996 L284.213,45.952 L284.257,45.908 L284.257,45.865 L284.301,45.776 L284.301,45.732 L284.345,45.601 L284.345,44.765 C284.319,44.42 284.1,44.032 283.707,43.603 L285.045,43.928 L288.032,41.774 L288.076,41.07 L289.351,41.423 L289.571,41.467 L291.506,42.083 L293.134,42.742 C295.892,43.973 297.634,45.087 298.366,46.083 L299.554,47.931 L299.729,48.107 L300.039,48.503 L300.39,48.898 L301.182,49.689 L301.929,50.261 L302.241,50.438 L302.506,50.658 L303.824,51.362 L304.22,51.493 L304.485,51.626 L310.508,53.648 L311.916,53.957 L312.001,54 L312.045,54 L313.41,54.264 L313.497,54.264 L314.113,54.397 L314.993,54.528 L315.169,54.528 L315.343,54.572 L317.193,54.792 L317.414,54.836 L317.722,54.836 L317.943,54.88 L316.798,55.669 C316.652,55.552 316.447,55.463 316.184,55.405 L315.084,55.361 C312.709,55.714 310.423,56.388 308.225,57.384 L307.344,57.296 L307.344,56.9 C307.314,56.343 306.494,55.874 304.882,55.493 L280.74,49.469 L280.43,48.942 L283.728,46.391 L283.728,46.391 Z M272.473,44.807 L272.474,44.81 L272.473,44.811 L272.473,44.807 L272.473,44.807 Z M274.666,70.888 L282.232,67.105 L292.255,67.105 L295.38,66.842 L295.468,66.842 L297.752,66.533 L297.885,66.533 L300.128,66.093 L300.171,66.093 L300.877,65.917 L301.007,65.917 L301.098,65.873 L304.176,64.862 L304.22,64.818 L304.349,64.774 C304.673,64.639 304.979,64.489 305.278,64.332 L305.278,64.511 L310.773,65.874 L306.068,69.261 L304.177,68.778 L299.692,71.988 L296.216,71.108 L286.498,78.056 L281.88,76.912 L282.583,76.385 L282.583,75.593 L271.836,72.916 L274.666,70.888 L274.666,70.888 Z M178.369,54.177 L213.373,29.244 L213.373,28.915 L213.462,28.936 L220.717,25.859 L232.723,25.682 L259.899,32.453 L265.527,37.027 L264.252,40.939 L264.252,41.334 L264.076,41.292 L229.25,65.918 L217.506,69.392 L204.93,66.248 L204.93,65.786 L177.38,58.914 L178.369,54.177 L178.369,54.177 Z M225.688,86.012 L218.872,85.968 L209.944,83.77 L206.382,83.945 L164.3,73.479 C163.069,72.364 161.237,71.31 158.804,70.312 C156.839,69.492 153.936,68.495 150.097,67.323 L147.591,66.619 C145.04,65.975 142.299,65.477 139.367,65.125 L135.497,64.729 L131.76,63.805 L131.936,63.014 L150.184,49.998 L161.353,52.769 L157.308,55.628 L157.308,56.419 L162.102,57.606 L162.102,58.089 L182.812,63.235 L183.121,63.014 L202.601,67.841 L202.601,68.286 L217.201,71.98 L216.411,72.551 L216.411,73.342 L220.983,74.442 L222.653,73.254 L224.237,73.65 L219.269,77.212 L219.269,78.003 L228.063,80.201 L229.207,79.366 L229.207,78.575 L223.14,77.081 L232.374,70.484 L232.374,69.693 L232.33,69.649 L235.584,67.364 L236.332,67.539 L239.806,65.077 L239.806,64.286 L239.674,64.242 L259.857,49.819 L263.462,50.727 C261.823,52.271 260.978,53.787 260.954,55.271 L260.954,56.063 C260.924,57.382 261.481,58.584 262.625,59.668 L225.688,86.012 L225.688,86.012 Z M346.568,94.896 L343.006,97.447 L339.752,96.656 L336.234,99.161 L334.694,98.766 L333.523,99.629 L333.411,99.601 L326.375,104.615 L326.375,105.407 L326.903,105.538 L326.287,105.976 L314.064,102.943 L293.002,105.407 L257.164,96.479 L256.063,94.633 L247.49,92.521 L245.291,88.959 L256.769,80.78 L258.923,81.307 L259.803,80.648 L263.365,81.571 L264.947,80.427 L264.947,79.636 L259.67,78.317 L259.318,78.097 L262.265,76.557 L263.54,76.47 L264.16,76.648 L264.16,77.086 L286.851,82.714 L281.484,86.539 L272.425,84.297 L266.225,88.695 L261.036,87.419 L259.981,88.166 L259.981,88.957 L266.709,90.628 L270.447,87.946 L279.155,90.145 L281.44,88.474 L283.023,88.87 L291.554,82.758 L312.094,87.903 L311.565,88.256 L311.565,89.048 L332.233,94.236 L335.222,92.081 L346.568,94.896 L346.568,94.896 Z M334.344,89.312 L295.866,79.726 L322.687,60.554 L322.687,60.158 L361.609,69.836 L334.344,89.312 L334.344,89.312 Z M364.84,67.448 L364.683,67.408 L363.41,68.332 L324.889,58.702 L324.953,58.655 L325.152,58.705 L327.923,56.726 L366.4,66.312 L364.84,67.448 L364.84,67.448 Z M73.758,62.884 L73.714,63.675 L84.268,66.313 L81.013,68.6 L80.969,69.391 L90.248,71.722 L97.591,66.401 L97.591,65.61 L77.1,60.465 L73.758,62.884 L73.758,62.884 Z M290.37,121.457 L287.907,123.216 L286.456,122.863 L275.551,130.647 L275.551,131.438 L278.189,132.097 L291.601,122.512 L291.599,121.721 L290.37,121.457 L290.37,121.457 Z M290.37,121.457" class="walkway"/>
                    <path d="M367.586,66.401 L363.365,69.39 L362.393,69.126 L362.393,70.269 L337.201,88.256 L347.884,90.893 L347.841,94.588 L354.919,96.39 L359.536,93.092 L364.86,94.412 L383.46,81.132 L396.389,84.387 L401.049,87.993 C404.157,91.072 405.887,94.37 406.239,97.888 L406.195,102.416 L406.148,102.592 L406.103,103.427 L405.839,104.875 L405.839,104.92 L405.575,105.933 L405.179,107.032 L405.091,107.208 L405.044,107.383 L404.034,109.451 L403.944,109.539 L403.856,109.715 L402.449,111.783 L402.403,111.827 L402.315,111.958 L401.524,112.927 L397.919,116.445 L397.785,116.535 L396.514,117.545 L396.423,117.635 L394.488,118.999 L394.358,119.042 L394.046,119.262 L393.958,119.307 L393.648,119.528 L393.078,119.836 L393.034,119.881 L392.902,119.971 L392.858,120.015 L392.814,120.015 L392.681,120.061 L382.787,120.807 L377.208,124.806 L374.173,125.686 L375.889,128.28 L375.845,132.282 L344.669,154.532 L344.625,156.818 L342.427,158.312 L332.357,159.5 L329.102,158.575 L328.004,156.86 L271.76,142.832 L268.726,143.054 L262.439,141.513 L262.483,137.555 L266.396,134.785 L268.859,134.608 L272.731,131.883 L260.33,128.759 L260.33,127.486 L248.854,124.628 L248.854,120.626 L249.734,120.011 L247.227,119.394 L247.227,115.966 L241.07,114.428 L241.07,110.425 L252.459,102.159 L254.043,102.028 L258.043,103.04 L258.307,103.084 L299.203,113.287 L326.863,109.593 L333.942,111.352 L336.887,109.243 L332.006,108.012 L332.05,104.011 L341.066,97.591 L339.966,97.326 L336.362,99.877 L334.955,99.524 L327.83,104.626 L327.83,105.9 L326.247,107.044 L313.935,103.965 L292.915,106.427 L288.65,105.372 L288.65,105.327 L257.208,97.501 L257.033,97.593 L255.934,95.657 L252.021,94.733 L251.89,94.688 L247.317,93.543 L244.546,89.41 L244.591,85.408 L256.553,76.922 L258.441,77.361 L258.487,74.679 L262.268,72.787 L263.368,72.655 L266.796,73.489 L266.886,73.533 L281.089,77.052 L281.133,75.952 L271.195,73.446 L271.239,69.488 L274.405,67.201 L282.056,63.287 L290.497,63.375 C296.743,63.082 301.685,62.115 305.319,60.472 L311.825,62.056 L311.825,64.254 L322.819,56.427 L323.831,56.648 L323.875,55.549 L328.142,52.559 L367.582,62.404 L367.586,66.401 M235.58,22.561 L259.939,28.629 L265.701,33.335 L265.701,37.336 L264.25,41.953 L229.688,66.622 L218.914,69.744 L220.981,70.271 L222.652,69.041 L225.335,69.7 L225.29,71.371 L226.477,70.535 L226.61,70.579 L231.358,67.149 L231.358,66.136 L235.536,63.146 L236.504,63.366 L239.053,61.563 L239.053,60.772 L260.16,45.688 L264.512,46.788 L264.512,50.79 L264.424,50.834 L264.335,50.921 L264.115,51.097 L264.071,51.141 L263.851,51.274 L263.675,51.494 L263.409,51.714 L262.266,52.99 L261.74,53.781 L261.474,54.309 C261.857,55.013 262.411,55.672 263.144,56.288 L263.099,60.289 L238.923,77.66 L238.879,77.66 L238.879,77.703 L238.835,77.703 L229.292,84.387 L229.292,84.519 L225.642,87.114 L218.695,86.982 L209.768,84.784 L206.163,85.049 L166.367,75.11 L166.278,75.155 L163.992,74.583 C162.996,73.646 161.91,72.884 160.738,72.297 L160.65,72.253 L160.562,72.253 L157.528,70.934 L157.441,70.89 L154.846,69.966 L154.713,69.966 L150.053,68.427 L144.953,67.153 L144.91,67.153 L144.383,67.02 L144.295,67.02 L143.855,66.932 L139.722,66.228 L136.688,65.875 L136.423,65.875 L135.5,65.831 L131.498,64.819 L131.544,59.279 L150.099,46.175 L162.324,49.209 L162.28,53.21 L161.664,53.649 L162.764,53.958 L162.764,54.485 L177.188,58.048 L177.188,55.937 L178.507,49.957 L213.2,25.199 L220.675,21.989 L226.437,21.945 L220.414,20.45 L220.456,16.449 L226.525,12.052 L238.308,16.669 L238.263,20.627 L235.58,22.561 M298.547,41.821 L299.606,43.359 L300.573,44.766 C301.042,45.292 301.731,45.822 302.641,46.349 C304.927,47.668 307.494,48.664 310.335,49.339 L312.885,49.955 L319.393,50.791 L319.522,50.791 L319.522,54.793 L316.711,56.771 L316.4,56.596 L315.699,56.463 L315.126,56.463 L313.499,56.683 L313.367,56.727 L312.578,56.902 L309.236,58.003 L308.136,58.486 L308.089,58.486 L307.036,58.266 L307.08,57.695 L307.036,57.651 L306.86,57.431 L306.638,57.254 L306.593,57.211 L306.327,57.035 L306.239,57.035 L305.885,56.859 L305.359,56.682 L305.315,56.682 L280.558,50.526 L279.809,49.338 L279.855,45.337 L282.361,43.533 L281.174,42.83 L281.217,38.872 L281.351,38.784 L285.309,39.796 L285.748,39.487 L285.748,37.07 L286.056,36.454 L286.188,36.498 L288.783,37.069 C291.421,37.685 293.84,38.638 296.039,39.926 C297.127,40.574 297.961,41.205 298.547,41.821 M296.262,71.854 L286.981,78.494 L288.127,78.758 L288.08,81.221 L291.773,78.583 L295.116,79.418 L295.162,76.208 L304.439,69.523 L304.394,69.523 L299.866,72.777 L296.262,71.854 M332.848,89.62 L313.238,84.695 L313.238,85.266 L332.322,90.015 L332.848,89.62 M335.31,92.038 L343.27,94.017 L343.447,93.929 L335.444,91.906 L335.31,92.038 M247.496,104.746 L239.846,110.199 L235.096,109.011 L235.096,111.56 L223.795,119.606 L213.901,117.099 L212.141,108.876 L212.185,104.917 L216.935,101.488 L217.023,101.443 L222.08,97.836 L229.028,97.132 L235.931,98.848 L239.053,98.099 L243.011,99.111 L243.011,99.154 L246.839,100.121 L247.499,100.738 L247.496,104.746 M205.193,90.852 L212.008,92.521 L212.008,92.565 L212.844,96.083 L212.8,100.086 L208.71,103.031 L208.623,102.986 L203.522,106.724 L185.537,110.154 L175.599,107.69 L175.599,106.417 L175.291,106.682 L153.787,101.316 L153.787,97.314 L153.876,97.269 L174.675,82.496 L195.914,87.816 L195.957,87.772 L200.75,88.96 L200.75,89.004 L201.321,89.136 L205.193,90.852 M105.727,15.57 L163.067,29.86 L163.067,33.862 L145.127,46.656 L137.432,44.765 L127.802,51.625 L131.32,52.504 L131.32,56.506 L121.118,63.763 L119.139,63.983 L121.118,69.041 L138.885,73.482 L138.929,73.438 L144.734,74.888 L144.734,74.931 L152.472,76.866 L152.472,76.91 L169.313,81.044 L169.269,85.046 L169.226,85.09 L151.02,98.148 L141.787,95.818 L141.787,94.675 L127.496,91.07 L127.496,89.75 L111.929,100.918 L105.905,101.578 L71.211,92.961 L67.121,87.86 L67.165,83.858 L93.198,65.256 L1.774,42.479 L1.817,38.478 L52.167,2.553 L77.232,8.797 L77.188,12.755 L77.1,12.843 L101.154,18.823 L105.727,15.57 M110.343,46.35 L101.417,44.108 L99.086,45.779 L105.285,47.318 L106.605,46.351 L110.342,47.274 L110.343,46.35" class="wall"/>
                </g>
                <g class="ceilings">
                    <path class="unit" d="M226.564,12.095 L238.173,16.624 L233.865,19.702 L220.628,16.404 L226.564,12.095 L226.564,12.095 Z M226.564,12.095" id="2001"/>
                    <path class="unit" d="M265.613,33.334 L264.206,37.906 L229.599,62.618 L217.815,66.004 L177.315,55.89 L178.634,49.954 L213.285,25.198 L220.761,21.988 L232.767,21.9 L259.853,28.672 L265.613,33.334" id="2002"/>
                    <path class="unit" d="M316.226,52.462 C315.231,52.228 313.604,52.477 311.345,53.209 L308.047,54.44 L307.211,54.22 C307.388,53.781 307.167,53.399 306.552,53.076 L305.409,52.638 L280.652,46.437 L279.947,45.292 L283.816,42.566 C284.549,41.89 284.375,41.071 283.29,40.103 L281.311,38.784 L285.356,39.796 L288.389,37.641 L285.881,36.982 L286.148,36.498 L288.74,37.069 C291.261,37.685 293.667,38.637 295.951,39.926 C297.593,40.864 298.764,41.978 299.47,43.268 C300.173,44.53 301.199,45.555 302.547,46.346 C304.805,47.665 307.37,48.676 310.242,49.38 L312.837,49.951 L319.345,50.831 L316.75,52.678 L316.226,52.462 L316.226,52.462 Z M316.226,52.462" id="2003"/>
                    <path class="unit" d="M328.143,52.594 L367.453,62.401 L363.366,65.303 L324.01,55.497 L328.143,52.594 L328.143,52.594 Z M328.143,52.594" id="2004"/>
                    <path class="unit" d="M264.381,46.789 C263.118,47.669 262.154,48.71 261.478,49.912 C260.187,52.228 260.715,54.353 263.063,56.288 L256.467,60.994 L243.405,57.739 L260.203,45.734 L264.381,46.789 L264.381,46.789 Z M264.381,46.789" id="2005"/>
                    <path class="unit" d="M256.467,60.993 L243.408,57.737 L239.231,60.728 L240.022,60.947 L238.173,62.258 L250.482,65.257 L256.467,60.993 Z M256.467,60.993" id="2006"/>
                    <path class="unit" d="M256.335,76.999 L253.652,78.802 L269.569,82.848 L272.12,80.869 L256.335,76.999 L256.335,76.999 Z M256.335,76.999" id="2007"/>
                    <path class="unit" d="M311.697,62.004 L306.245,65.918 L304.398,65.435 L299.869,68.689 L296.264,67.765 L286.633,74.669 L281.265,73.35 L282.805,72.251 L271.372,69.437 L274.541,67.194 L282.104,63.28 C284.273,63.545 287.132,63.589 290.678,63.413 C296.746,63.148 301.657,62.167 305.409,60.467 L311.697,62.004 L311.697,62.004 Z M311.697,62.004" id="2008"/>
                    <path class="unit" d="M334.651,85.97 L295.295,76.163 L322.867,56.42 L362.267,66.27 L334.651,85.97 L334.651,85.97 Z M334.651,85.97" id="2009"/>
                    <path class="unit" d="M261.214,75.768 L258.62,75.108 L262.49,72.295 L266.844,73.526 L265.57,74.449 L263.721,73.965 L261.214,75.768 L261.214,75.768 Z M261.214,75.768" id="2010"/>
                    <path class="unit" d="M269.659,83.023 L266.404,85.397 L261.215,84.078 L261.038,84.165 L250.178,81.484 L253.564,79.02 L269.659,83.023 L269.659,83.023 Z M269.659,83.023" id="2011"/>
                    <path class="unit" d="M261.039,84.166 L252.026,90.631 L247.408,89.489 L244.726,85.355 L250.178,81.486 L261.039,84.166 L261.039,84.166 Z M261.039,84.166" id="2012"/>
                    <path class="unit" d="M266.931,86.454 L257.126,93.444 L256.071,91.641 L252.068,90.63 L260.248,84.824 L266.931,86.454 L266.931,86.454 Z M266.931,86.454" id="2013"/>
                    <path class="unit" d="M283.29,84.738 L267.549,95.996 L257.214,93.401 L270.626,83.904 L279.289,86.059 L281.708,84.343 L283.29,84.738 L283.29,84.738 Z M283.29,84.738" id="2014"/>
                    <path class="unit" d="M278.233,98.634 L273.876,97.5 L297.376,80.039 L302.508,81.353 L278.233,98.634 L278.233,98.634 Z M278.233,98.634" id="2015"/>
                    <path class="unit" d="M302.593,81.266 L313.104,83.904 L288.875,101.317 L278.233,98.635 L302.593,81.266 L302.593,81.266 Z M302.593,81.266" id="2016"/>
                    <path class="unit" d="M288.831,101.316 L311.827,84.916 L322.513,87.599 L303.693,101.054 L292.964,102.374 L288.831,101.316 L288.831,101.316 Z M288.831,101.316" id="2017"/>
                    <path class="unit" d="M331.132,91.026 L317.544,100.745 L314.027,99.866 L303.692,101.054 L322.511,87.598 L332.363,90.061 L335.442,87.863 L347.754,90.896 L343.313,94.063 L331.132,91.026 L331.132,91.026 Z M331.132,91.026" id="2018"/>
                    <path class="unit" d="M339.971,93.226 L336.367,95.821 L334.96,95.469 L326.431,101.535 L327.705,101.888 L326.254,102.944 L317.503,100.789 L331.134,91.026 L339.971,93.226 L339.971,93.226 Z M339.971,93.226" id="2019"/>
                    <path class="unit" d="M226.829,101.405 L225.29,97.535 L229.028,97.139 L235.975,98.899 L231.006,102.418 L226.829,101.405 L226.829,101.405 Z M226.829,101.405" id="2020"/>
                    <path class="unit" d="M225.289,97.534 L226.828,101.404 L229.774,102.108 L227.179,103.954 L217.109,101.447 L222.167,97.841 L225.289,97.534 L225.289,97.534 Z M225.289,97.534" id="2021"/>
                    <path class="unit" d="M242.791,99.161 L234.788,104.878 L229.467,103.516 L235.975,98.899 L236.02,98.856 L239.053,98.152 L242.836,99.119 L242.791,99.161 L242.791,99.161 Z M242.791,99.161" id="2022"/>
                    <path class="unit" d="M246.793,100.129 L247.407,100.701 L239.801,106.108 L234.787,104.878 L242.79,99.161 L246.793,100.129 L246.793,100.129 Z M246.793,100.129" id="2023"/>
                    <path class="unit" d="M258.18,103.075 L246.178,111.65 L241.25,110.419 L252.555,102.153 L254.093,102.064 L258.18,103.075 L258.18,103.075 Z M258.18,103.075" id="2024"/>
                    <path class="unit" d="M262.93,104.264 L250.926,112.838 L246.179,111.65 L258.181,103.075 L262.93,104.264 L262.93,104.264 Z M262.93,104.264" id="2025"/>
                    <path class="unit" d="M268.734,105.715 L253.213,116.796 L247.407,115.345 L263.018,104.308 L268.734,105.715 L268.734,105.715 Z M268.734,105.715" id="2026"/>
                    <path class="unit" d="M253.213,116.795 L268.734,105.714 L275.463,107.385 L257.61,120.137 L251.717,118.641 L254.005,117.059 L253.213,116.795 L253.213,116.795 Z M253.213,116.795" id="2027"/>
                    <path class="unit" d="M275.463,107.385 L282.322,109.101 L261.743,123.787 L249.035,120.579 L251.717,118.644 L257.61,120.14 L275.463,107.385 L275.463,107.385 Z M275.463,107.385" id="2028"/>
                    <path class="unit" d="M396.345,84.387 L401.092,88.037 C404.113,91.026 405.783,94.31 406.106,97.887 L391.859,94.324 L391.816,94.37 L389.531,95.997 L369.741,91.027 L383.462,81.133 L396.345,84.387 L396.345,84.387 Z M396.345,84.387" id="2029"/>
                    <path class="unit" d="M345.954,94.149 L354.967,96.435 L341.204,106.241 L332.187,103.999 L345.954,94.149 L345.954,94.149 Z M345.954,94.149" id="2030"/>
                    <path class="unit" d="M406.105,97.887 C406.134,102.488 403.982,106.843 399.642,110.947 C398.263,112.237 396.724,113.454 395.025,114.597 L392.65,116.046 L382.537,116.75 L366.179,112.663 L359.144,117.675 L333.991,111.388 L359.538,93.139 L364.906,94.459 L369.652,91.072 L389.532,95.998 L391.818,94.37 L406.105,97.887 L406.105,97.887 Z M406.105,97.887" id="2031"/>
                    <path class="unit" d="M382.713,116.795 L377.126,120.796 L371.939,122.291 L366.353,120.929 L365.252,119.213 L359.142,117.674 L366.177,112.661 L382.713,116.795 L382.713,116.795 Z M382.713,116.795" id="2032"/>
                    <path class="unit" d="M299.032,113.277 L291.82,118.422 L291.691,118.422 L290.547,118.115 L288.128,119.874 L286.633,119.478 L275.727,127.26 L278.409,127.92 L277.002,128.889 L260.513,124.756 L282.411,109.145 L298.945,113.232 L299.032,113.277 L299.032,113.277 Z M299.032,113.277" id="2033"/>
                    <path class="unit" d="M268.955,134.648 L299.033,113.277 L326.869,109.627 L365.254,119.214 L366.354,120.93 L371.897,122.337 L375.764,128.274 L343.446,151.315 L344.544,152.81 L342.347,154.303 L332.409,155.449 L329.199,154.525 L328.143,152.81 L271.857,138.783 L268.732,139.003 L262.666,137.509 L266.404,134.826 L268.955,134.648 L268.955,134.648 Z M268.955,134.648" id="2034"/>
                    <path class="unit" d="M131.671,59.278 L150.139,46.217 L162.143,49.207 L157.394,52.593 L159.108,53.033 L144.993,63.102 C141.035,62.252 137.884,61.797 135.54,61.739 L131.67,60.772 L131.671,59.278 L131.671,59.278 Z M131.671,59.278" id="2036"/>
                    <path class="unit" d="M162.628,53.912 L162.056,54.308 L168.784,56.023 L154.845,65.873 C153.028,65.17 150.433,64.407 147.062,63.587 L144.995,63.103 L159.066,53.034 L162.628,53.912 L162.628,53.912 Z M162.628,53.912" id="2037"/>
                    <path class="unit" d="M154.933,65.918 L168.784,56.023 L175.513,57.695 L160.739,68.205 C159.332,67.559 157.953,66.988 156.605,66.49 L154.933,65.918 L154.933,65.918 Z M154.933,65.918" id="2038"/>
                    <path class="unit" d="M182.415,59.41 L166.276,71.106 L164.078,70.534 C163.287,69.773 162.51,69.171 161.748,68.731 L160.736,68.204 L175.511,57.693 L182.415,59.41 L182.415,59.41 Z M182.415,59.41" id="2039"/>
                    <path class="unit" d="M190.111,60.993 L173.533,72.821 L166.365,71.017 L182.943,59.189 L190.111,60.993 L190.111,60.993 Z M190.111,60.993" id="2040"/>
                    <path class="unit" d="M132.594,71.942 L138.927,73.525 L130.177,79.725 L123.932,78.142 L132.594,71.942 L132.594,71.942 Z M132.594,71.942" id="2041"/>
                    <path class="unit" d="M144.599,74.889 L144.599,74.932 L136.905,80.428 L131.231,79.021 L138.927,73.525 L138.97,73.482 L144.599,74.889 L144.599,74.889 Z M144.599,74.889" id="2042"/>
                    <path class="unit" d="M152.295,76.867 L135.322,88.96 L127.671,87.069 L144.6,74.931 L152.295,76.867 L152.295,76.867 Z M152.295,76.867" id="2043"/>
                    <path class="unit" d="M160.121,78.847 L143.191,90.94 L135.277,88.961 L152.25,76.868 L160.121,78.847 L160.121,78.847 Z M160.121,78.847" id="2044"/>
                    <path class="unit" d="M105.771,15.613 L101.242,18.866 L72.834,11.787 L77.055,8.752 L52.211,2.553 L1.95,38.435 L97.503,62.267 L67.294,83.858 L71.295,88.915 L105.99,97.534 L111.839,96.875 L134.309,80.781 L123.932,78.142 L132.594,71.94 L121.029,69.039 L117.593,60.093 L121.074,59.717 L131.188,52.506 L106.695,46.395 L105.332,47.361 L94.823,44.724 L101.418,40.019 L111.883,42.612 L110.565,43.58 L127.45,47.802 L137.432,40.678 L145.127,42.568 L162.936,29.86 L105.771,15.613 Z M105.771,15.613" id="2045"/>
                    <path class="unit" d="M160.121,78.847 L169.18,81.045 L151.019,94.062 L141.961,91.82 L160.121,78.847 L160.121,78.847 Z M160.121,78.847" id="2046"/>
                    <path class="unit" d="M153.965,97.271 L174.721,82.54 L185.318,85.179 L164.606,99.91 L153.965,97.271 L153.965,97.271 Z M153.965,97.271" id="2047"/>
                    <path class="unit" d="M200.621,88.96 L193.365,94.149 L188.792,93.005 L196.004,87.817 L200.621,88.96 L200.621,88.96 Z M200.621,88.96" id="2048"/>
                    <path class="unit" d="M195.959,87.861 L175.292,102.591 L164.693,99.952 L185.273,85.178 L195.959,87.861 L195.959,87.861 Z M195.959,87.861" id="2049"/>
                    <path class="unit" d="M201.236,89.136 L205.15,90.852 L198.554,95.469 L198.467,95.469 L193.365,94.149 L200.576,89.003 L201.236,89.136 L201.236,89.136 Z M201.236,89.136" id="2050"/>
                    <path class="unit" d="M211.879,92.565 L212.758,96.083 L208.712,98.942 L197.499,96.128 L198.468,95.469 L198.555,95.469 L205.151,90.852 L211.879,92.565 L211.879,92.565 Z M211.879,92.565" id="2051"/>
                    <path class="unit" d="M206.029,100.745 L191.869,97.227 L194.023,95.688 L197.058,96.477 L197.498,96.127 L208.624,98.896 L206.029,100.745 L206.029,100.745 Z M206.029,100.745" id="2052"/>
                    <path class="unit" d="M186.55,95.952 L205.942,100.789 L203.479,102.68 L185.582,106.109 L175.776,103.646 L186.55,95.952 L186.55,95.952 Z M186.55,95.952" id="2053"/>
                    <path class="unit" d="M232.237,105.273 L230.61,106.461 L234.964,107.56 L223.794,115.521 L214.032,113.102 L212.272,104.875 L217.02,101.49 L232.237,105.273 L232.237,105.273 Z M232.237,105.273" id="2054"/>
                    <path class="unit" d="M197.234,62.751 L180.612,74.58 L180.744,74.624 L173.532,72.821 L190.11,60.948 L197.234,62.751 L197.234,62.751 Z M197.234,62.751" id="2055"/>
                    <path class="unit" d="M180.612,74.58 L197.234,62.751 L204.446,64.555 L187.824,76.384 L187.956,76.428 L180.744,74.624 L180.612,74.58 L180.612,74.58 Z M180.612,74.58" id="2056"/>
                    <path class="unit" d="M204.403,64.555 L211.526,66.313 L194.948,78.143 L187.957,76.427 L187.825,76.383 L204.403,64.555 L204.403,64.555 Z M204.403,64.555" id="2057"/>
                    <path class="unit" d="M201.896,79.901 L194.992,78.185 L211.526,66.312 L218.341,68.028 L201.896,79.901 L201.896,79.901 Z M201.896,79.901" id="2058"/>
                    <path class="unit" d="M205.884,80.877 L206.206,80.958 L209.855,80.693 L214.832,77.118 L212.081,76.448 L205.884,80.877 Z M205.884,80.877" id="2059"/>
                    <path class="unit" d="M238.789,73.657 L236.591,75.195 L224.367,72.117 L226.521,70.579 L238.789,73.657 L238.789,73.657 Z M238.789,73.657" id="2060"/>
                    <path class="unit" d="M236.591,75.196 L233.469,77.307 L228.368,76.031 L229.379,75.285 L222.432,73.569 L224.411,72.162 L236.591,75.196 L236.591,75.196 Z M236.591,75.196" id="2061"/>
                    <path class="unit" d="M233.469,77.351 L229.028,80.474 L221.993,78.758 L221.904,78.714 L221.859,78.714 L226.301,75.548 L233.469,77.351 L233.469,77.351 Z M233.469,77.351" id="2062"/>
                    <path class="unit" d="M216.759,82.408 L209.898,80.738 L219.53,73.878 L226.301,75.549 L216.759,82.408 L216.759,82.408 Z M216.759,82.408" id="2063"/>
                    <path class="unit" d="M225.641,83.066 L218.781,82.935 L216.855,82.408 L221.993,78.758 L229.028,80.473 L225.641,83.066 L225.641,83.066 Z M225.641,83.066" id="2064"/>
                    <path class="unit" d="M271.241,41.864 L267.592,40.985 L269.789,39.357 L273.351,40.413 L271.241,41.864 L271.241,41.864 Z M271.241,41.864" id="2065"/>
                    <path class="unit" d="M368.157,69.568 L364.463,68.688 L366.706,67.061 L370.268,68.117 L368.157,69.568 L368.157,69.568 Z M368.157,69.568" id="2066"/>
                    <path class="unit" d="M232.59,66.357 L240.988,68.424 L239.581,69.436 L243.319,70.36 L239.009,73.526 L226.739,70.536 L232.59,66.357 L232.59,66.357 Z M232.59,66.357" id="2067"/>
                    <path class="unit" d="M273.666,97.5 L267.548,95.997 L291.82,78.627 L297.249,79.939 L273.666,97.5 L273.666,97.5 Z M273.666,97.5" id="2068"/>
                    <path class="unit" d="M284.91,88.943 L285.089,88.899 L285.223,88.943 L285.312,89.122 L285.223,89.257 L285.089,89.346 L284.91,89.257 L284.865,89.122 L284.91,88.943 M293.68,82.455 L293.815,82.499 L293.904,82.678 L293.815,82.813 L293.68,82.902 L293.502,82.813 L293.457,82.678 L293.502,82.499 L293.68,82.455 M292.427,83.305 L292.606,83.261 L292.74,83.305 L292.831,83.484 L292.74,83.617 L292.606,83.707 L292.427,83.617 L292.383,83.484 L292.427,83.305 M288.132,86.526 L288.31,86.482 L288.444,86.526 L288.533,86.705 L288.444,86.84 L288.31,86.929 L288.132,86.84 L288.087,86.705 L288.132,86.526 M289.205,85.722 L289.384,85.678 L289.518,85.722 L289.607,85.901 L289.518,86.035 L289.384,86.125 L289.205,86.035 L289.161,85.901 L289.205,85.722 M287.236,87.288 L287.37,87.333 L287.46,87.513 L287.37,87.646 L287.236,87.736 L287.057,87.646 L287.012,87.513 L287.057,87.333 L287.236,87.288 M285.983,88.139 L286.162,88.093 L286.296,88.139 L286.386,88.317 L286.296,88.451 L286.162,88.54 L285.983,88.451 L285.938,88.317 L285.983,88.139 M291.353,84.111 L291.532,84.066 L291.665,84.111 L291.755,84.289 L291.665,84.424 L291.532,84.514 L291.353,84.424 L291.309,84.289 L291.353,84.111 M290.279,84.917 L290.458,84.872 L290.592,84.917 L290.681,85.096 L290.592,85.231 L290.458,85.32 L290.279,85.231 L290.235,85.096 L290.279,84.917 M296.723,80.084 L296.903,80.039 L297.037,80.084 L297.127,80.262 L297.037,80.396 L296.903,80.485 L296.723,80.396 L296.679,80.262 L296.723,80.084 M295.648,80.889 L295.828,80.844 L295.963,80.889 L296.052,81.068 L295.963,81.203 L295.828,81.292 L295.648,81.203 L295.603,81.068 L295.648,80.889 M294.574,81.695 L294.753,81.65 L294.887,81.695 L294.976,81.874 L294.887,82.008 L294.753,82.098 L294.574,82.008 L294.53,81.874 L294.574,81.695 M275.557,96.103 L275.647,96.282 L275.557,96.417 L275.423,96.506 L275.244,96.417 L275.2,96.282 L275.244,96.103 L275.423,96.059 L275.557,96.103 M274.17,96.818 L274.349,96.774 L274.484,96.818 L274.573,96.997 L274.484,97.132 L274.349,97.221 L274.17,97.132 L274.126,96.997 L274.17,96.818 M284.148,89.749 L284.238,89.928 L284.148,90.062 L284.013,90.152 L283.834,90.062 L283.789,89.928 L283.834,89.749 L284.013,89.705 L284.148,89.749 M283.164,90.733 L283.075,90.867 L282.94,90.956 L282.762,90.867 L282.716,90.733 L282.762,90.554 L282.94,90.51 L283.075,90.554 L283.164,90.733 M280.792,92.12 L280.926,92.166 L281.016,92.344 L280.926,92.479 L280.792,92.568 L280.613,92.479 L280.569,92.344 L280.613,92.166 L280.792,92.12 M282.001,91.36 L282.091,91.539 L282.001,91.672 L281.867,91.762 L281.688,91.672 L281.643,91.539 L281.688,91.36 L281.867,91.316 L282.001,91.36 M277.392,94.581 L277.57,94.537 L277.705,94.581 L277.794,94.76 L277.705,94.894 L277.57,94.983 L277.392,94.894 L277.347,94.76 L277.392,94.581 M279.54,92.971 L279.719,92.926 L279.854,92.971 L279.943,93.151 L279.854,93.286 L279.719,93.374 L279.54,93.286 L279.496,93.151 L279.54,92.971 M278.466,93.776 L278.645,93.732 L278.78,93.776 L278.869,93.955 L278.78,94.089 L278.645,94.179 L278.466,94.089 L278.421,93.955 L278.466,93.776 M276.318,95.387 L276.497,95.342 L276.631,95.387 L276.721,95.566 L276.631,95.699 L276.497,95.789 L276.318,95.699 L276.274,95.566 L276.318,95.387" id="2069"/>
                    <path class="unit" d="M236.549,63.41 L235.579,63.19 L231.533,66.093 L240.988,68.424 L239.581,69.436 L243.319,70.359 L250.375,65.333 L238.066,62.334 L236.549,63.41 Z M236.549,63.41" id="2070"/>
                    <path class="unit" d="M225.157,69.699 L222.695,69.085 L221.025,70.316 L216.759,69.262 L201.852,79.903 L201.984,79.903 L205.756,80.846 L212.06,76.34 L214.938,77.042 L225.157,69.699 Z M225.157,69.699" id="2071"/>
        </g>
    </g>
</svg>
