<?xml version="1.0" encoding="utf-8"?>
<!DOCTYPE svg PUBLIC "-//W3C//DTD SVG 1.1//EN" "http://www.w3.org/Graphics/SVG/1.1/DTD/svg11.dtd">
<svg version="1.1" xmlns="http://www.w3.org/2000/svg" xmlns:xlink="http://www.w3.org/1999/xlink" xml:space="preserve">
<g class="level" id="level3">
                <g class="outline">
                    <path d="M257.09,99.252 C257,98.457 256.712,97.665 256.233,96.894 L256.275,93.809 L250.28,92.203 C247.623,90.895 244.188,89.672 240.066,88.568 C235.528,87.352 231.359,86.58 229.133,86.207 L229.184,82.522 L173.928,74.238 L173.928,74.201 L158.982,71.799 L158.982,71.741 L137.021,68.41 L134.952,70.015 L134.978,68.155 L62.172,57.155 L59.78,59.009 L29.271,50.834 L28.479,50.627 L0.571,72.311 L0.483,78.645 L26.676,86.167 L24.249,88.049 L151.513,141.129 C152.383,141.594 157.894,144.448 166.242,146.685 C171.147,147.999 177.59,149.21 184.678,149.21 C189.222,149.21 194.032,148.712 198.869,147.424 C210.387,144.358 238.808,136.257 240.012,135.914 L242.884,135.096 L238.446,131.7 L246.367,129.791 L246.133,124.897 L253.715,125.01 L255.069,125.009 L255.23,123.667 C255.628,120.357 257.582,103.615 257.09,99.252 L257.09,99.252 Z M257.09,99.252" class="outline"/>
                </g>
                <g class="label">
                    <path d="M172.078,0.464 C169.197,0.464 167.372,2.801 167.372,6.402 C167.372,9.795 169.164,11.908 172.03,11.908 C174.911,11.908 176.736,9.555 176.736,5.954 C176.736,2.56 174.928,0.464 172.078,0.464 L172.078,0.464 Z M172.062,10.723 C169.917,10.723 168.668,8.978 168.668,6.466 C168.668,3.505 169.9,1.648 172.045,1.648 C174.238,1.648 175.439,3.393 175.439,5.89 C175.44,8.851 174.207,10.723 172.062,10.723 L172.062,10.723 Z M155.775,5.553 L152.782,5.553 C152.382,5.553 152.157,5.857 152.157,6.129 C152.157,6.449 152.365,6.69 152.782,6.69 L155.263,6.69 L155.263,10.339 C154.703,10.563 154.014,10.723 153.086,10.723 C150.861,10.723 149.437,9.202 149.437,6.322 C149.437,3.169 150.894,1.68 153.134,1.68 C153.918,1.68 154.51,1.824 155.231,2.08 C155.439,2.16 155.631,2.24 155.792,2.24 C156.096,2.24 156.352,2.016 156.352,1.664 C156.352,1.408 156.208,1.232 155.968,1.104 C155.328,0.768 154.351,0.464 153.231,0.464 C150.382,0.464 148.173,2.417 148.173,6.386 C148.173,9.923 150.142,11.908 153.087,11.908 C154.431,11.908 155.264,11.604 155.936,11.3 C156.256,11.156 156.464,10.947 156.464,10.548 L156.464,6.242 C156.464,5.81 156.191,5.553 155.775,5.553 L155.775,5.553 Z M164.447,7.666 C164.159,7.25 163.839,6.93 163.47,6.69 C164.895,6.193 165.823,5.201 165.823,3.681 C165.823,1.744 164.511,0.464 161.614,0.464 C160.51,0.464 159.757,0.576 159.245,0.736 C158.845,0.864 158.733,1.104 158.733,1.504 L158.733,11.204 C158.733,11.604 159.005,11.844 159.357,11.844 C159.71,11.844 159.982,11.604 159.982,11.204 L159.982,7.026 L161.231,7.026 C162.399,7.026 162.864,7.506 163.44,8.435 C163.84,9.075 164.256,10.003 164.752,11.396 C164.848,11.652 165.024,11.844 165.36,11.844 C165.696,11.844 165.985,11.604 165.985,11.22 C165.985,11.108 165.953,10.948 165.889,10.788 C165.455,9.635 164.943,8.435 164.447,7.666 L164.447,7.666 Z M161.421,5.81 L159.981,5.81 L159.981,1.776 C160.429,1.712 160.861,1.648 161.55,1.648 C163.839,1.648 164.559,2.544 164.559,3.729 C164.559,5.378 163.006,5.858 161.421,5.81 L161.421,5.81 Z M186.111,0.528 C185.743,0.528 185.487,0.784 185.487,1.184 L185.487,9.939 C184.654,10.483 183.47,10.708 182.75,10.708 C180.893,10.708 179.757,9.795 179.757,7.73 L179.757,1.184 C179.757,0.784 179.501,0.528 179.149,0.528 C178.797,0.528 178.525,0.784 178.525,1.184 L178.525,7.971 C178.525,10.308 179.982,11.909 182.51,11.909 C184.319,11.909 185.359,11.429 186.288,10.901 C186.64,10.693 186.72,10.421 186.72,10.037 L186.72,1.184 C186.72,0.783 186.463,0.528 186.111,0.528 L186.111,0.528 Z M256.671,10.788 C256.239,9.635 255.727,8.435 255.231,7.666 C254.943,7.25 254.623,6.93 254.254,6.69 C255.679,6.193 256.608,5.201 256.608,3.681 C256.608,1.744 255.296,0.464 252.398,0.464 C251.294,0.464 250.542,0.576 250.029,0.736 C249.629,0.864 249.517,1.104 249.517,1.504 L249.517,11.204 C249.517,11.604 249.788,11.844 250.141,11.844 C250.493,11.844 250.765,11.604 250.765,11.204 L250.765,7.026 L252.013,7.026 C253.182,7.026 253.646,7.506 254.222,8.435 C254.622,9.075 255.038,10.003 255.534,11.396 C255.631,11.652 255.806,11.844 256.142,11.844 C256.478,11.844 256.766,11.604 256.766,11.22 C256.767,11.108 256.735,10.947 256.671,10.788 L256.671,10.788 Z M252.205,5.81 L250.765,5.81 L250.765,1.776 C251.213,1.712 251.645,1.648 252.333,1.648 C254.622,1.648 255.343,2.544 255.343,3.729 C255.343,5.378 253.79,5.858 252.205,5.81 L252.205,5.81 Z M226.59,10.595 L222.284,10.595 L222.284,1.184 C222.284,0.784 222.027,0.528 221.676,0.528 C221.323,0.528 221.052,0.784 221.052,1.184 L221.052,10.82 C221.052,11.412 221.42,11.78 222.108,11.78 L226.59,11.78 C226.989,11.78 227.246,11.508 227.246,11.172 C227.246,10.867 227.006,10.595 226.59,10.595 L226.59,10.595 Z M232.317,0.464 C229.436,0.464 227.611,2.801 227.611,6.402 C227.611,9.795 229.404,11.908 232.269,11.908 C235.15,11.908 236.975,9.555 236.975,5.954 C236.976,2.56 235.167,0.464 232.317,0.464 L232.317,0.464 Z M232.302,10.723 C230.157,10.723 228.908,8.978 228.908,6.466 C228.908,3.505 230.14,1.648 232.285,1.648 C234.478,1.648 235.679,3.393 235.679,5.89 C235.679,8.851 234.446,10.723 232.302,10.723 L232.302,10.723 Z M196.815,0.528 C196.462,0.528 196.254,0.784 196.254,1.184 L196.254,9.747 L196.222,9.747 L190.652,1.007 C190.444,0.671 190.173,0.527 189.82,0.527 C189.34,0.527 189.02,0.863 189.02,1.439 L189.02,11.203 C189.02,11.603 189.276,11.843 189.612,11.843 C189.965,11.843 190.204,11.603 190.204,11.203 L190.204,2.543 L190.236,2.543 L195.743,11.299 C195.951,11.619 196.207,11.843 196.575,11.843 C197.103,11.843 197.391,11.427 197.391,10.995 L197.391,1.184 C197.392,0.783 197.167,0.528 196.815,0.528 L196.815,0.528 Z M243.021,0.464 C240.14,0.464 238.315,2.801 238.315,6.402 C238.315,9.795 240.108,11.908 242.973,11.908 C245.854,11.908 247.679,9.555 247.679,5.954 C247.68,2.56 245.871,0.464 243.021,0.464 L243.021,0.464 Z M243.006,10.723 C240.861,10.723 239.612,8.978 239.612,6.466 C239.612,3.505 240.844,1.648 242.989,1.648 C245.182,1.648 246.383,3.393 246.383,5.89 C246.383,8.851 245.15,10.723 243.006,10.723 L243.006,10.723 Z M202.509,0.464 C201.902,0.464 200.941,0.512 200.301,0.672 C199.884,0.784 199.725,1.072 199.725,1.456 L199.725,10.932 C199.725,11.316 199.869,11.636 200.429,11.732 C200.941,11.828 201.581,11.908 202.669,11.908 C206.207,11.908 207.743,9.363 207.743,6.194 C207.743,2.881 206.19,0.464 202.509,0.464 L202.509,0.464 Z M202.701,10.723 C202.045,10.723 201.469,10.707 200.957,10.627 L200.957,1.744 C201.421,1.68 202.045,1.648 202.525,1.648 C205.39,1.648 206.495,3.521 206.495,6.082 C206.495,8.867 205.374,10.723 202.701,10.723 L202.701,10.723 Z M218.847,0.592 L214.157,0.592 C213.469,0.592 213.101,0.96 213.101,1.552 L213.101,11.204 C213.101,11.604 213.372,11.844 213.725,11.844 C214.077,11.844 214.333,11.604 214.333,11.204 L214.333,6.914 L218.254,6.914 C218.607,6.914 218.847,6.626 218.847,6.322 C218.847,6.034 218.607,5.745 218.254,5.745 L214.333,5.745 L214.333,1.808 L218.83,1.808 C219.278,1.808 219.486,1.504 219.486,1.216 C219.486,0.912 219.278,0.592 218.847,0.592 L218.847,0.592 Z M218.847,0.592" class="Shape"/>
                </g>
                <g class="background">
                    <path d="M239.678,90.016 C247.072,91.997 255.114,95.124 255.599,99.421 C256.099,103.86 253.857,122.529 253.739,123.511 L239.412,123.297 L244.624,124.693 L244.811,128.624 L237.185,130.461 L232.841,129.297 L239.603,134.472 C238.118,134.895 209.901,142.935 198.485,145.975 C186.815,149.081 175.276,147.552 166.632,145.236 C157.928,142.904 152.449,139.929 152.161,139.773 L27.205,87.657 L29.933,85.542 L2,77.52 L28.884,52.282 L60.138,60.657 L61.073,62.308 L227.256,87.428 C227.554,87.471 233.219,88.285 239.678,90.016 L239.678,90.016 Z M239.678,90.016" class="walkway"/>
                    <path d="M232.624,89.023 L229.4,91.523 L229.396,91.783 L229.15,91.717 L224.685,95.179 L224.623,99.645 L236.342,102.785 L236.311,105.021 L231.423,103.711 L231.444,102.165 L224.498,100.304 L224.054,100.648 L224.06,100.186 L221.377,99.467 L221.395,98.177 L216.519,96.87 L227.605,88.274 L227.667,83.808 L172.842,75.589 L172.406,75.937 L172.412,75.474 L157.896,73.14 L157.46,73.478 L157.466,73.025 L137.434,69.987 L133.41,73.107 L133.461,69.44 L62.584,58.732 L60.106,60.654 L28.852,52.28 L2.062,73.054 L2,77.52 L29.94,85.007 L29.904,87.588 L37.594,90.683 L41.068,87.989 L78.073,97.905 L76.663,98.998 L76.601,103.464 L97.104,108.958 L95.199,110.436 L95.137,114.902 L107.73,120.089 L108.166,119.751 L108.16,120.204 L117.776,124.071 L134.64,110.994 L134.702,106.528 L123.849,103.62 L123.413,103.958 L123.419,103.505 L120.38,102.691 L110.21,103.33 L102.065,105.455 L106.612,101.929 L106.616,101.674 L106.858,101.739 L115.292,95.199 L115.296,94.939 L115.542,95.005 L122.24,89.812 L122.302,85.346 L121.14,83.418 L124.028,81.178 L123.977,84.845 L126.045,88.277 L126.02,90.051 L137.311,93.076 L137.747,92.738 L137.741,93.191 L150.985,96.74 L151.643,96.223 L151.633,96.914 L154.098,101.004 L153.798,101.236 L153.804,100.774 L147.295,99.03 L143.076,102.302 L143.014,106.768 L149.523,108.512 L149.967,108.168 L149.961,108.63 L153.188,113.375 L156.22,114.187 L156.664,113.843 L156.658,114.304 L170.113,117.909 L170.557,117.565 L170.551,118.027 L172.286,118.492 L177.135,117.911 L174.708,118.539 L174.697,119.314 L173.525,119 L169.995,120.384 L169.957,123.128 L167.998,124.647 L168.011,123.732 L164.534,122.8 L161.803,117.67 L149.653,114.414 L148.523,115.29 L148.536,114.375 L144.192,113.211 L141.215,108.272 L123.605,121.927 L123.543,126.393 L130.803,129.372 L131.683,128.69 L131.67,129.605 L147.237,136.105 L148.228,135.336 L154.709,137.072 L154.677,139.393 C154.822,139.478 157.584,141.085 161.679,142.564 C164.458,143.566 166.669,144.223 168.189,144.63 C169.723,145.041 170.511,145.19 170.552,145.197 L171.904,144.149 L171.884,145.554 C172.438,145.702 181.234,147.998 191.203,146.85 C200.421,145.784 208.157,142.612 208.564,142.445 L208.626,137.979 L200.411,135.778 L200.421,135.088 L206.579,136.738 L217.742,128.082 L217.774,125.761 L218.24,125.886 L225.992,124.856 L226.054,120.39 L224.997,118.636 L225.19,118.688 L225.626,118.35 L225.62,118.803 L233.294,120.859 L232.938,120.939 L232.876,125.405 L233.187,128.335 L238.399,129.731 L243.729,128.313 L243.855,125.5 L243.894,122.692 L253.152,122.815 L253.715,114.683 L253.758,111.587 L254.083,111.674 L254.27,102.928 L254.274,102.668 L254.52,102.734 L254.704,99.42 L254.766,94.954 L232.624,89.023 L232.624,89.023 Z M211.542,114.43 L211.431,114.4 L211.543,114.313 L211.542,114.43 L211.542,114.43 Z M199.118,119.986 L199.112,119.99 L199.112,119.984 L199.118,119.986 L199.118,119.986 Z M191.634,116.169 L191.666,113.848 L193.866,114.438 L196.808,112.157 L196.776,114.44 L196.956,114.739 L196.467,114.794 L196.424,117.89 L190.507,116.305 L191.634,116.169 L191.634,116.169 Z M218.908,117.067 L218.909,117.006 L219.069,117.049 L218.908,117.067 L218.908,117.067 Z M218.908,117.067" class="wall"/>
                </g>
                <g class="ceilings">
                    <path class="unit" d="M254.263,98.482 L254.084,107.23 L236.285,102.46 L240.25,99.386 L224.623,95.198 L229.088,91.736 L254.263,98.482 Z M254.263,98.482" id="4001"/>
                    <path class="unit" d="M227.605,83.829 L193.867,109.99 L156.096,99.87 L151.633,92.464 L172.779,75.609 L227.605,83.829 Z M227.605,83.829" id="4002"/>
                    <path class="unit" d="M221.333,98.198 L220.092,99.16 L223.999,100.207 L211.099,110.21 L209.365,109.745 L197.524,111.231 L196.777,109.992 L214.387,96.337 L221.333,98.198 Z M221.333,98.198" id="4003"/>
                    <path class="unit" d="M231.382,102.186 L218.483,112.188 L211.537,110.327 L224.436,100.324 L231.382,102.186 Z M231.382,102.186" id="4004"/>
                    <path class="unit" d="M236.842,105.2 L225.184,114.24 L218.667,112.494 L230.325,103.454 L236.842,105.2 Z M236.842,105.2" id="4005"/>
                    <path class="unit" d="M246.326,106.446 L244.589,107.793 L253.708,110.236 L253.145,118.369 L239.943,118.195 L225.613,114.355 L237.522,105.121 L238.389,105.353 L239.38,104.585 L246.326,106.446 Z M246.326,106.446" id="4006"/>
                    <path class="unit" d="M218.855,116.425 L216.812,116.655 L212.468,115.491 L208.994,118.185 L203.352,116.674 L196.406,114.812 L208.002,113.517 L213.213,114.913 L218.855,116.425 Z M218.855,116.425" id="4007"/>
                    <path class="unit" d="M134.64,106.545 L117.776,119.623 L108.16,115.756 L123.787,103.637 L134.64,106.545 Z M134.64,106.545" id="4008"/>
                    <path class="unit" d="M224.504,117.938 L225.986,120.409 L218.234,121.439 L213.022,120.043 L212.655,119.422 L209.616,118.608 L212.839,116.108 L217.184,117.272 L220.597,116.892 L224.504,117.938 Z M224.504,117.938" id="4009"/>
                    <path class="unit" d="M199.069,118.633 L192.872,123.439 L174.643,118.555 L186.919,115.378 L199.069,118.633 Z M199.069,118.633" id="4010"/>
                    <path class="unit" d="M243.848,121.053 L243.722,123.866 L238.392,125.284 L233.18,123.888 L232.869,120.958 L238.636,119.657 L243.848,121.053 Z M243.848,121.053" id="4011"/>
                    <path class="unit" d="M141.149,108.289 L144.126,113.229 L148.47,114.393 L140.535,120.545 L137.496,119.731 L130.799,124.924 L123.539,121.945 L141.149,108.289 Z M141.149,108.289" id="4012"/>
                    <path class="unit" d="M207.32,120.844 L196.158,129.5 L189.212,127.639 L200.374,118.983 L207.32,120.844 Z M207.32,120.844" id="4013"/>
                    <path class="unit" d="M217.736,123.635 L206.573,132.291 L196.588,129.615 L207.75,120.959 L217.736,123.635 Z M217.736,123.635" id="4014"/>
                    <path class="unit" d="M161.745,117.689 L164.468,122.816 L167.945,123.748 L156.037,132.982 L148.224,130.889 L147.232,131.657 L131.666,125.157 L137.618,120.541 L140.657,121.356 L149.587,114.431 L161.745,117.689 Z M161.745,117.689" id="4015"/>
                    <path class="unit" d="M192.126,124.017 L170.547,140.751 C170.506,140.743 169.717,140.595 168.185,140.184 C166.666,139.777 164.457,139.121 161.682,138.12 C157.587,136.641 154.818,135.031 154.672,134.947 L170.795,122.444 L169.93,120.4 L173.46,119.016 L192.126,124.017 L192.126,124.017 Z M192.126,124.017" id="4016"/>
                    <path class="unit" d="M200.376,133.477 L198.143,135.208 L208.558,137.999 C208.151,138.166 200.415,141.338 191.197,142.404 C181.236,143.555 172.432,141.257 171.878,141.108 L186.482,129.754 L200.376,133.477 L200.376,133.477 Z M200.376,133.477" id="4017"/>
                    <path class="unit" d="M123.357,103.522 L107.73,115.64 L95.137,110.454 L101.339,105.645 L110.148,103.346 L120.318,102.708 L123.357,103.522 Z M123.357,103.522" id="4018"/>
                    <path class="unit" d="M106.612,97.479 L97.432,104.598 L76.601,99.016 L85.781,91.898 L106.612,97.479 Z M106.612,97.479" id="4019"/>
                    <path class="unit" d="M115.292,90.748 L106.858,97.289 L86.027,91.707 L94.461,85.167 L115.292,90.748 Z M115.292,90.748" id="4020"/>
                    <path class="unit" d="M172.35,75.494 L150.984,92.29 L137.74,88.741 L157.833,73.161 L172.35,75.494 Z M172.35,75.494" id="4021"/>
                    <path class="unit" d="M157.403,73.045 L137.311,88.626 L126.02,85.601 L126.766,85.022 L123.977,80.394 L137.372,70.007 L157.403,73.045 Z M157.403,73.045" id="4022"/>
                    <path class="unit" d="M119.45,80.733 L122.24,85.361 L115.542,90.555 L94.711,84.973 L105.128,76.895 L119.45,80.733 Z M119.45,80.733" id="4023"/>
                    <path class="unit" d="M133.399,69.46 L119.263,80.422 L104.941,76.584 L99.234,81.009 L97.5,80.544 L80.135,94.009 L41.068,83.541 L37.594,86.235 L29.904,83.14 L32.387,81.215 L2,73.073 L28.79,52.299 L60.044,60.673 L62.522,58.752 L133.399,69.46 Z M133.399,69.46" id="4024"/>
                    <path class="unit" d="M191.513,110.911 L191.634,111.721 L172.283,114.042 L170.549,113.577 L178.488,107.421 L191.513,110.911 Z M191.513,110.911" id="4025"/>
                    <path class="unit" d="M178.05,107.304 L170.111,113.46 L156.656,109.854 L164.595,103.698 L178.05,107.304 Z M178.05,107.304" id="4026"/>
                    <path class="unit" d="M164.165,103.583 L156.227,109.739 L153.187,108.925 L149.96,104.179 L154.18,100.907 L164.165,103.583 Z M164.165,103.583" id="4027"/>
                    <path class="unit" d="M153.742,100.79 L149.523,104.062 L143.014,102.318 L147.234,99.046 L153.742,100.79 Z M153.742,100.79" id="4028"/>
                    <path class="unit" d="M254.697,94.974 L254.513,98.288 L229.338,91.542 L232.562,89.042 L254.697,94.974 Z M254.697,94.974" id="4029"/>
        </g>
    </g>
</svg>