<?xml version="1.0" encoding="utf-8"?>
<!DOCTYPE svg PUBLIC "-//W3C//DTD SVG 1.1//EN" "http://www.w3.org/Graphics/SVG/1.1/DTD/svg11.dtd">
<svg version="1.1" xmlns="http://www.w3.org/2000/svg" xmlns:xlink="http://www.w3.org/1999/xlink" xml:space="preserve">
<g class="level" id="level2">
        <g class="outline">
            <path d="M333.2,161.4 L329,160.2 L327.9,158.5 L272.6,144.7 L269.6,144.9 L261.7,143 L261.8,136.8 L266,133.8 L214.1,120.9 L213.8,118.8 L213.4,118.7 L211.9,111.7 L208.3,112.5 L201.3,110.8 L201.3,109.3 L186.4,112.1 L184.8,111.7 L180.8,112.6 L180.4,112.5 L120.7,97.6 L113.5,102.8 L106.7,103.5 L71.1,94.7 L66.2,88.6 L66.3,83.1 L82.7,71.4 L80.1,70.7 L80.3,67.6 L81.1,67 L72.9,65 L73.1,61.9 L1,44 L1.1,37.7 L52.8,0.8 L80,7.6 L80,11.7 L101.8,17.1 L106.4,13.8 L165.9,28.6 L165.9,29.3 L172.1,24.9 L154.4,20.5 L154.4,17.4 L172.7,4.3 L203.1,11.9 L203.1,15 L201.4,16.2 L217.6,20.2 L219.7,18.7 L219.7,15.7 L227.3,10.2 L241.1,15.6 L241.1,18.4 L280.8,33.4 L280.8,36.4 L280.2,36.8 L281.3,37.1 L281.9,36.7 L285.1,37.1 L285.1,36.8 L286.3,34.5 L287.8,35 L290.3,35.6 C293.1,36.3 295.7,37.3 298.1,38.7 C299.3,39.4 300.3,40.2 301,40.9 L301,41 L303,43.8 C303.3,44.1 303.7,44.5 304.6,45 C306.7,46.2 309.2,47.2 311.8,47.8 L314.3,48.4 L320.6,49.2 L322.4,49.2 L322.4,52 L322.5,52 L322.5,53.3 L324.6,53.8 L328.9,50.8 L370.5,61.2 L370.5,64 L373.1,64.7 L373.1,66 L376.6,66.9 L378.7,66 L387.6,68.5 L388.3,68.3 L398.2,71.1 L398.2,74.1 L392.6,78.1 L390.4,77.6 L384.8,79.3 L398.3,82.7 L403.4,86.7 C406.8,90.1 408.7,93.8 409.1,97.7 L409.1,97.8 L409.1,102.6 L409,102.8 L408.9,103.7 L408.6,105.4 L407.7,108.1 L406.4,110.6 L404.8,113 L403.9,114.1 L400,117.9 L398.6,119 L395.6,121 L395.1,121.3 L394.7,121.7 L393.9,121.8 L384.5,122.5 L379.1,126.4 L378.1,126.7 L378.8,127.7 L378.7,133.1 L347.5,155.4 L347.5,157.7 L344.2,159.9 L333.2,161.4 L333.2,161.4 Z M350.6,92.3 L356.7,93.8 L360.2,91.3 L365.5,92.6 L383.4,79.9 L381.2,80.6 L368.4,77.4 L350.8,89.9 L350.6,92.3 L350.6,92.3 Z M350.6,92.3" class="outline"/>
        </g>
        <g class="label">
            <path d="M342.9,17.5 C341.9,17.5 341.1,17.6 340.6,17.8 C340.2,17.9 340.1,18.2 340.1,18.6 L340.1,28.3 C340.1,28.7 340.4,28.9 340.7,28.9 C341.1,28.9 341.3,28.7 341.3,28.3 L341.3,24.7 L342.8,24.7 C345.7,24.7 347.2,23.3 347.2,21 C347.2,19 345.9,17.5 342.9,17.5 L342.9,17.5 L342.9,17.5 Z M342.8,23.5 L341.4,23.5 L341.4,18.8 C341.8,18.7 342.4,18.7 342.9,18.7 C345.2,18.7 346,19.8 346,21.1 C346,22.4 345.3,23.5 342.8,23.5 L342.8,23.5 L342.8,23.5 Z M354.9,27.6 L350.1,27.6 L350.1,23.7 L354,23.7 C354.4,23.7 354.6,23.4 354.6,23.1 C354.6,22.8 354.4,22.5 354,22.5 L350.1,22.5 L350.1,18.8 L354.7,18.8 C355.1,18.8 355.3,18.5 355.3,18.2 C355.3,17.9 355.1,17.6 354.7,17.6 L350,17.6 C349.3,17.6 348.9,18 348.9,18.6 L348.9,27.9 C348.9,28.5 349.3,28.9 350,28.9 L354.9,28.9 C355.3,28.9 355.5,28.6 355.5,28.3 C355.6,27.9 355.3,27.6 354.9,27.6 L354.9,27.6 L354.9,27.6 Z M328.4,17.6 C328,17.6 327.8,17.9 327.8,18.3 L327.8,27 C327,27.5 325.8,27.8 325.1,27.8 C323.2,27.8 322.1,26.9 322.1,24.8 L322.1,18.3 C322.1,17.9 321.8,17.6 321.5,17.6 C321.1,17.6 320.9,17.9 320.9,18.3 L320.9,25 C320.9,27.3 322.4,28.9 324.9,28.9 C326.7,28.9 327.7,28.4 328.7,27.9 C329.1,27.7 329.1,27.4 329.1,27 L329.1,18.1 C329,17.8 328.7,17.6 328.4,17.6 L328.4,17.6 L328.4,17.6 Z M334.1,17.5 C333.1,17.5 332.3,17.6 331.8,17.8 C331.4,17.9 331.3,18.2 331.3,18.6 L331.3,28.3 C331.3,28.7 331.6,28.9 331.9,28.9 C332.3,28.9 332.5,28.7 332.5,28.3 L332.5,24.7 L334,24.7 C336.9,24.7 338.4,23.3 338.4,21 C338.4,19 337.1,17.5 334.1,17.5 L334.1,17.5 L334.1,17.5 Z M333.9,23.5 L332.5,23.5 L332.5,18.8 C332.9,18.7 333.5,18.7 334,18.7 C336.3,18.7 337.1,19.8 337.1,21.1 C337.1,22.4 336.4,23.5 333.9,23.5 L333.9,23.5 L333.9,23.5 Z M409.5,27.6 L405.2,27.6 L405.2,18.2 C405.2,17.8 404.9,17.5 404.6,17.5 C404.2,17.5 404,17.8 404,18.2 L404,27.8 C404,28.4 404.4,28.8 405.1,28.8 L409.6,28.8 C410,28.8 410.3,28.5 410.3,28.2 C410.2,27.9 409.9,27.6 409.5,27.6 L409.5,27.6 L409.5,27.6 Z M401.7,27.6 L396.9,27.6 L396.9,23.7 L400.8,23.7 C401.2,23.7 401.4,23.4 401.4,23.1 C401.4,22.8 401.2,22.5 400.8,22.5 L396.9,22.5 L396.9,18.8 L401.5,18.8 C401.9,18.8 402.1,18.5 402.1,18.2 C402.1,17.9 401.9,17.6 401.5,17.6 L396.7,17.6 C396,17.6 395.6,18 395.6,18.6 L395.6,27.9 C395.6,28.5 396,28.9 396.7,28.9 L401.6,28.9 C402,28.9 402.2,28.6 402.2,28.3 C402.3,27.9 402,27.6 401.7,27.6 L401.7,27.6 L401.7,27.6 Z M393.3,17.6 C393,17.6 392.8,17.8 392.7,18.1 C391.4,24 390.3,26.6 389.6,27.7 C388.9,26.6 387.8,24 386.5,18.1 C386.4,17.8 386.2,17.6 385.9,17.6 C385.5,17.6 385.3,17.8 385.3,18.2 C385.3,18.3 385.3,18.5 385.4,18.7 C386.5,23.2 387.2,25.5 388.1,27.3 C388.7,28.5 389.1,28.9 389.6,28.9 C390.2,28.9 390.5,28.5 391.1,27.3 C392,25.5 392.7,23.2 393.8,18.7 C393.8,18.5 393.9,18.3 393.9,18.2 C393.9,17.8 393.7,17.6 393.3,17.6 L393.3,17.6 L393.3,17.6 Z M383.6,27.6 L378.8,27.6 L378.8,23.7 L382.7,23.7 C383.1,23.7 383.3,23.4 383.3,23.1 C383.3,22.8 383.1,22.5 382.7,22.5 L378.8,22.5 L378.8,18.8 L383.4,18.8 C383.8,18.8 384,18.5 384,18.2 C384,17.9 383.8,17.6 383.4,17.6 L378.6,17.6 C377.9,17.6 377.5,18 377.5,18.6 L377.5,27.9 C377.5,28.5 377.9,28.9 378.6,28.9 L383.5,28.9 C383.9,28.9 384.1,28.6 384.1,28.3 C384.2,27.9 383.9,27.6 383.6,27.6 L383.6,27.6 L383.6,27.6 Z M363,24.7 C362.7,24.3 362.4,24 362,23.7 C363.4,23.2 364.4,22.2 364.4,20.7 C364.4,18.8 363.1,17.5 360.2,17.5 C359.1,17.5 358.3,17.6 357.8,17.8 C357.4,17.9 357.3,18.2 357.3,18.6 L357.3,28.3 C357.3,28.7 357.6,28.9 357.9,28.9 C358.3,28.9 358.5,28.7 358.5,28.3 L358.5,24.1 L359.7,24.1 C360.9,24.1 361.3,24.6 361.9,25.5 C362.3,26.1 362.7,27.1 363.2,28.5 C363.3,28.8 363.5,28.9 363.8,28.9 C364.1,28.9 364.4,28.7 364.4,28.3 C364.4,28.2 364.4,28 364.3,27.9 C364,26.7 363.5,25.5 363,24.7 L363,24.7 L363,24.7 Z M360,22.9 L358.6,22.9 L358.6,18.9 C359,18.8 359.5,18.8 360.2,18.8 C362.5,18.8 363.2,19.7 363.2,20.9 C363.1,22.4 361.6,22.9 360,22.9 L360,22.9 L360,22.9 Z M375.5,27.6 L371.2,27.6 L371.2,18.2 C371.2,17.8 370.9,17.5 370.6,17.5 C370.2,17.5 370,17.8 370,18.2 L370,27.8 C370,28.4 370.4,28.8 371.1,28.8 L375.6,28.8 C376,28.8 376.3,28.5 376.3,28.2 C376.1,27.9 375.9,27.6 375.5,27.6 L375.5,27.6 L375.5,27.6 Z M375.5,27.6" class="Shape"/>
            <path d="M259.8,12.2 C259.6,12 259.3,11.8 259,11.7 C258.2,11.5 257.6,11.6 257,12 L257.3,11.2 L256.5,10.9 L254.7,16.3 L255.6,16.6 L256.6,13.6 C256.8,12.9 257.1,12.5 257.5,12.3 C257.9,12.1 258.2,12.1 258.6,12.3 C258.8,12.4 259,12.5 259.2,12.7 C259.3,12.9 259.4,13.1 259.4,13.3 C259.4,13.5 259.4,13.8 259.2,14.2 L258.1,17.5 L259,17.8 L260.1,14.5 C260.2,14.1 260.3,13.8 260.3,13.6 C260.3,13.3 260.3,13.1 260.2,12.8 C260.2,12.7 260,12.4 259.8,12.2 L259.8,12.2 L259.8,12.2 Z M243,4.3 L237.6,10.8 L238.7,11.1 L240.3,9.1 L243.4,10.1 L243.5,12.7 L244.6,13.1 L244,4.6 L243,4.3 L243,4.3 Z M240.8,8.5 L242.3,6.6 C242.6,6.2 242.9,5.8 243.2,5.3 L243.2,7 L243.3,9.3 L240.8,8.5 L240.8,8.5 Z M250,9.1 C249.7,8.8 249.5,8.6 249.2,8.5 C249,8.4 248.8,8.4 248.5,8.5 C248.3,8.6 248,8.8 247.7,9.1 L248,8.3 L247.2,8 L245.4,13.4 L246.3,13.7 L247.2,10.9 C247.3,10.5 247.5,10.2 247.7,9.9 C247.8,9.7 248,9.6 248.2,9.5 C248.4,9.4 248.6,9.4 248.8,9.5 C249,9.6 249.2,9.7 249.4,9.9 L250,9.1 L250,9.1 Z M254.4,11 C254.1,10.4 253.6,9.9 252.9,9.7 C252.2,9.5 251.5,9.5 250.8,9.8 C250.2,10.1 249.7,10.8 249.4,11.7 C249.1,12.6 249.1,13.3 249.4,14 C249.7,14.6 250.2,15.1 251,15.4 C251.6,15.6 252.2,15.6 252.7,15.5 C253.2,15.3 253.6,15 254,14.5 L253.1,14.1 C252.8,14.4 252.5,14.7 252.3,14.8 C252.1,14.9 251.7,14.9 251.4,14.8 C250.9,14.7 250.6,14.4 250.4,13.9 C250.2,13.5 250.2,13 250.3,12.4 L254.3,13.7 C254.3,13.6 254.4,13.5 254.4,13.5 C254.6,12.5 254.6,11.7 254.4,11 L254.4,11 L254.4,11 Z M253.6,12.5 L250.6,11.5 C250.8,11 251.1,10.7 251.5,10.5 C251.9,10.3 252.3,10.3 252.7,10.4 C253.2,10.6 253.5,10.9 253.7,11.3 C253.7,11.7 253.7,12.1 253.6,12.5 L253.6,12.5 L253.6,12.5 Z M292.1,23.6 C291.8,23 291.3,22.5 290.6,22.3 C289.9,22.1 289.2,22.1 288.5,22.4 C287.9,22.7 287.4,23.4 287.1,24.3 C286.8,25.2 286.8,25.9 287.1,26.6 C287.4,27.2 287.9,27.7 288.7,28 C289.3,28.2 289.9,28.2 290.4,28.1 C290.9,27.9 291.3,27.6 291.7,27.1 L290.8,26.7 C290.5,27 290.3,27.3 290,27.4 C289.7,27.5 289.4,27.5 289.1,27.4 C288.6,27.3 288.3,27 288.1,26.5 C287.9,26.1 287.9,25.6 288,25 L292,26.3 C292,26.2 292.1,26.1 292.1,26.1 C292.4,25 292.4,24.2 292.1,23.6 L292.1,23.6 L292.1,23.6 Z M291.3,25 L288.3,24 C288.5,23.5 288.8,23.2 289.2,23 C289.6,22.8 290,22.8 290.4,22.9 C290.9,23.1 291.2,23.4 291.4,23.8 C291.4,24.2 291.4,24.6 291.3,25 L291.3,25 L291.3,25 Z M286.6,21.1 L284.4,23.9 C284.1,24.3 283.9,24.6 283.6,25 L283.6,23.6 L283.5,20.1 L282.5,19.8 L282.8,25.9 C282.7,26 282.7,26.1 282.6,26.1 C282.4,26.4 282.2,26.6 282.1,26.7 C282,26.8 281.9,26.9 281.7,26.9 C281.6,26.9 281.4,26.9 281.2,26.8 C281.1,26.8 280.9,26.7 280.7,26.5 L280.5,27.4 L281.1,27.7 C281.4,27.8 281.7,27.8 281.9,27.7 C282.2,27.6 282.4,27.5 282.7,27.2 C282.9,27 283.2,26.7 283.6,26.1 L287.5,21.3 L286.6,21.1 L286.6,21.1 Z M296.1,24.1 C295.9,24 295.7,24 295.4,24.1 C295.2,24.2 294.9,24.4 294.6,24.7 L294.9,23.9 L294.1,23.6 L292.3,29 L293.2,29.3 L294.1,26.5 C294.2,26.1 294.4,25.8 294.6,25.5 C294.7,25.3 294.9,25.2 295.1,25.1 C295.3,25 295.5,25 295.7,25.1 C295.9,25.2 296.1,25.3 296.3,25.5 L296.9,24.8 C296.7,24.4 296.4,24.2 296.1,24.1 L296.1,24.1 L296.1,24.1 Z M272.4,15.1 L276.5,16.4 L276.8,15.5 L271.8,13.8 L269.3,21.3 L270.3,21.6 L271.4,18.2 L274.9,19.4 L275.2,18.5 L271.7,17.3 L272.4,15.1 L272.4,15.1 Z M281.1,19.9 C280.8,19.3 280.3,18.8 279.5,18.6 C278.8,18.4 278.2,18.4 277.6,18.6 C276.9,18.9 276.4,19.5 276,20.5 C275.7,21.4 275.7,22.2 276,22.8 C276.3,23.4 276.8,23.9 277.6,24.1 C278.1,24.3 278.5,24.3 279,24.2 C279.5,24.1 279.9,23.9 280.2,23.6 C280.5,23.3 280.8,22.8 281.1,22.1 C281.4,21.3 281.4,20.6 281.1,19.9 L281.1,19.9 L281.1,19.9 Z M280.2,21.9 C280,22.6 279.6,23.1 279.2,23.3 C278.8,23.5 278.3,23.6 277.9,23.4 C277.4,23.2 277.1,22.9 276.9,22.5 C276.7,22.1 276.7,21.5 277,20.8 C277.2,20.1 277.6,19.6 278,19.4 C278.4,19.2 278.9,19.1 279.3,19.3 C279.8,19.4 280.1,19.7 280.3,20.2 C280.4,20.7 280.4,21.2 280.2,21.9 L280.2,21.9 L280.2,21.9 Z M265.6,14.1 C265.3,13.9 265,13.7 264.5,13.6 C264,13.4 263.6,13.4 263.2,13.4 C262.8,13.4 262.5,13.5 262.2,13.7 C261.9,13.9 261.7,14.1 261.5,14.5 L262.4,14.9 C262.6,14.5 262.9,14.3 263.1,14.2 C263.4,14.1 263.7,14.1 264.1,14.3 C264.6,14.5 264.9,14.7 265,15 C265.1,15.2 265.1,15.5 265,15.9 C265,15.9 265,16 264.9,16.1 C264.5,16.1 263.9,16 263.2,15.9 C262.8,15.8 262.5,15.8 262.3,15.8 C262,15.8 261.8,15.8 261.5,15.9 C261.3,16 261,16.1 260.9,16.3 C260.7,16.5 260.6,16.7 260.5,17 C260.4,17.5 260.4,17.9 260.6,18.3 C260.8,18.7 261.2,19 261.8,19.2 C262.2,19.3 262.5,19.4 262.9,19.4 C263.3,19.4 263.6,19.3 264.1,19.1 C264,19.4 264,19.6 264.1,19.8 L265.1,20.1 C265.1,19.9 265,19.6 265.1,19.4 C265.1,19.2 265.3,18.6 265.6,17.8 L266,16.6 C266.1,16.2 266.2,15.9 266.2,15.7 C266.2,15.4 266.2,15.2 266.1,15 C266,14.5 265.8,14.3 265.6,14.1 L265.6,14.1 L265.6,14.1 Z M264.6,17.1 C264.5,17.5 264.3,17.8 264.1,18 C263.9,18.2 263.6,18.4 263.3,18.4 C263,18.5 262.6,18.4 262.3,18.3 C261.9,18.2 261.7,18 261.6,17.8 C261.5,17.6 261.4,17.3 261.5,17.1 C261.6,16.9 261.6,16.8 261.8,16.7 C261.9,16.6 262.1,16.5 262.3,16.5 C262.5,16.5 262.8,16.5 263.2,16.6 C263.9,16.7 264.4,16.8 264.8,16.7 L264.6,17.1 L264.6,17.1 Z M264.6,17.1" class="Shape"/>
        </g>
        <g class="background">
            <path d="M388.2,70.2 L387.6,70.4 L378.8,67.9 L376.8,68.7 L370.6,67.2 L371.2,66.8 L371.2,66 L327.3,55.1 L326.1,56 L320.6,54.6 L320.7,54.5 L320.7,53.7 L318.4,53.4 L314.1,52.7 L312.3,52.3 C309,51.4 306.5,50.5 304.9,49.5 C304.3,49.1 303.3,48 301.9,46.2 C300.6,44.5 299.1,43.2 297.6,42.5 L294.7,41 L291.7,39.9 L282.4,38.4 L281.7,38.9 L276.2,37.5 L279.2,35.4 L279.2,34.6 L239.5,19.6 L235.1,22.7 L221.8,19.4 L218,22.1 L197.3,17 L201.3,14.1 L201.3,13.3 L173,6.2 L156.1,18.3 L156.1,19.1 L176.1,24.1 L146,45.6 L138.4,43.7 L128.5,50.7 L112.4,46.7 L113,46.3 L113,45.5 L102.4,42.9 L95.7,47.7 L95.7,48.5 L106.3,51.1 C106.8,50.8 107.2,50.5 107.7,50.2 L131.4,56.1 L122.2,62.7 L118.6,63.1 L118.6,64 L122.2,72.9 L169.3,84.6 L167.8,85.7 L167.8,86.1 L151.9,97.4 L143.7,95.4 L144.2,95 L144.2,94.2 L129.5,90.5 L137.8,84.5 L137.8,83.7 L132,82.2 L131,82.9 L131,83.7 L134.4,84.5 L120.2,94.7 L120.2,95.5 L180.9,110.6 L184.8,109.7 L184.8,108.9 L177.4,107 L187.3,99.9 L192.7,101.3 L195,99.7 L198,100.4 L199.4,99.4 L199.4,98.6 L189.7,96.2 L176.3,105.7 L155.8,100.6 L173.4,88 L173.4,87.6 L173.6,87.7 L175.9,86.1 L202.4,92.7 L206.3,94.4 L212.9,96 L213.7,98.9 L204.6,105.3 L203.2,105.6 L203.1,109.1 L208.3,110.4 L213.7,109.3 L213.7,108.5 L213.5,108.2 L223,101.4 L229.9,100.7 L236.7,102.4 L240,101.8 L247.8,103.7 L248,103.9 L240.6,109.2 L231.2,106.8 L231.8,106.4 L231.8,105.6 L230.3,105.2 L227.6,107.1 L227.6,107.9 L232.1,109 L231.4,109.5 L231.4,110.3 L234.9,111.1 L224.5,118.5 L215.4,116.3 L215.4,117.1 L215.7,119.1 L275.8,134.1 L277.8,132.7 L277.8,131.9 L262.3,127.9 L262.8,127.5 L262.8,126.7 L250.7,123.8 L255,120.7 L255,119.9 L249.2,118.4 L251.9,116.5 L251.9,115.7 L242.9,113.5 L253.6,105.9 L253.6,105.5 L253.8,105.6 L255,105.5 L299.9,116.7 L327.9,113.1 L334.9,114.9 L342.1,109.8 L342.1,109 L334.1,107 L340.8,102.2 L341,102.2 L346.8,98.1 L355.7,100.3 L360.3,97 L360.3,96.2 L344.1,92.2 L368,75.2 L381.1,78.5 L389.5,75.9 L389.5,75.5 L392.1,76.1 L396.3,73.1 L396.3,72.3 L388.2,70.2 L388.2,70.2 Z M284.7,46.4 L284.7,46.4 L284.8,46.4 L284.8,46.3 L284.8,46.2 L284.8,46.1 L284.8,46 L284.8,45.2 C284.8,44.9 284.6,44.5 284.2,44 L285.5,44.3 L288.5,42.1 L288.5,41.4 L289.8,41.8 L290,41.8 L291.9,42.4 L293.5,43.1 C296.3,44.3 298,45.4 298.7,46.4 L299.9,48.2 L300.1,48.4 L300.4,48.8 L300.8,49.2 L301.6,50 L302.3,50.6 L302.6,50.8 L302.9,51 L304.2,51.7 L304.6,51.8 L304.9,51.9 L310.9,53.9 L312.3,54.2 L312.4,54.2 L313.8,54.5 L313.9,54.5 L314.5,54.6 L315.4,54.7 L315.6,54.7 L315.8,54.7 L317.7,54.9 L317.9,54.9 L318.2,54.9 L318.4,54.9 L317.3,55.7 C317.2,55.6 316.9,55.5 316.7,55.4 L315.6,55.4 C313.2,55.8 310.9,56.4 308.7,57.4 L307.8,57.3 L307.8,56.9 C307.8,56.3 306.9,55.9 305.3,55.5 L281.2,49.5 L280.9,49 L284.7,46.4 L284.7,46.4 Z M275.7,70.9 L283.3,67.1 L293.3,67.1 L296.4,66.8 L296.5,66.8 L298.8,66.5 L298.9,66.5 L301.1,66.1 L301.8,65.9 L301.9,65.9 L302,65.9 L305.1,64.9 L305.2,64.9 C305.5,64.8 305.8,64.6 306.1,64.5 L306.1,64.7 L311.6,66.1 L306.9,69.5 L305,69 L300.5,72.2 L297,71.3 L287.3,78.2 L282.7,77.1 L283.4,76.6 L283.4,75.8 L272.7,73.1 L275.7,70.9 L275.7,70.9 Z M179.4,54.2 L214.4,29.3 L214.4,29 L214.5,29 L221.8,25.9 L233.8,25.7 L261,32.5 L266.6,37.1 L265.3,41 L265.3,41.4 L265.1,41.4 L230.3,66 L218.6,69.5 L206,66.4 L206,65.9 L178.5,59 L179.4,54.2 L179.4,54.2 Z M226.7,86 L219.9,86 L211,83.8 L207.4,84 L165.3,73.5 C164.1,72.4 162.2,71.3 159.8,70.3 C157.8,69.5 154.9,68.5 151.1,67.3 L148.6,66.6 C146,66 143.3,65.5 140.4,65.1 L136.5,64.7 L132.8,63.8 L133,63 L151.2,50 L162.4,52.8 L158.4,55.7 L158.4,56.5 L163.2,57.7 L163.2,58.2 L183.9,63.3 L184.2,63.1 L203.7,67.9 L203.7,68.3 L218.3,72 L217.5,72.6 L217.5,73.4 L222.1,74.5 L223.8,73.3 L225.4,73.7 L220.4,77.3 L220.4,78 L229.2,80.2 L230.3,79.4 L230.3,78.6 L224.2,77.1 L233.4,70.5 L233.4,69.7 L236.7,67.4 L237.4,67.6 L240.9,65.1 L240.9,64.3 L240.8,64.3 L261,49.9 L264.6,50.8 C263,52.3 262.1,53.9 262.1,55.3 L262.1,56.1 C262.1,57.4 262.6,58.6 263.8,59.7 L226.7,86 L226.7,86 Z M347.6,94.9 L344,97.5 L340.7,96.7 L337.2,99.2 L335.7,98.8 L334.5,99.7 L334.4,99.7 L327.4,104.7 L327.4,105.5 L327.9,105.6 L327.3,106 L315.1,103 L294,105.5 L258.2,96.6 L257.1,94.8 L248.5,92.7 L246.3,89.1 L257.8,80.9 L260,81.4 L260.9,80.7 L264.5,81.6 L266.1,80.5 L266.1,79.7 L260.8,78.4 L260.4,78.2 L263.3,76.7 L264.6,76.6 L265.2,76.8 L265.2,77.2 L287.9,82.8 L282.5,86.6 L273.4,84.4 L267.2,88.8 L262,87.5 L260.9,88.2 L260.9,89 L267.6,90.7 L271.3,88 L280,90.2 L282.3,88.5 L283.9,88.9 L292.4,82.8 L312.9,87.9 L312.4,88.3 L312.4,89 L333.1,94.2 L336.1,92 L347.6,94.9 L347.6,94.9 Z M335.3,89.3 L296.8,79.7 L323.6,60.5 L323.6,60.1 L362.5,69.8 L335.3,89.3 L335.3,89.3 Z M365.8,67.4 L365.6,67.4 L364.3,68.3 L325.8,58.7 L325.9,58.7 L326.1,58.8 L328.9,56.8 L367.4,66.4 L365.8,67.4 L365.8,67.4 Z M74.8,62.9 L74.8,63.7 L85.4,66.3 L82,68.6 L82,69.4 L91.3,71.7 L98.6,66.4 L98.6,65.6 L78.1,60.5 L74.8,62.9 L74.8,62.9 Z M291.4,121.5 L288.9,123.3 L287.4,122.9 L276.5,130.7 L276.5,131.5 L279.1,132.2 L292.5,122.6 L292.5,121.8 L291.4,121.5 L291.4,121.5 Z M291.4,121.5" class="walkway"/>
            <path d="M306.3,56.7 L306.3,56.7 L306.9,56.9 L307.3,57.1 L307.4,57.1 L307.7,57.3 L307.9,57.5 L308.1,57.7 L308.1,58.3 L309.2,58.5 L310.3,58 L313.6,56.9 L314.4,56.7 L314.5,56.7 L316.1,56.5 L316.7,56.5 L317.4,56.6 L317.7,56.8 L320.5,54.8 L320.5,50.8 L320.4,50.8 L313.9,50 L311.4,49.4 C308.6,48.7 306,47.7 303.7,46.4 C302.8,45.9 302.1,45.3 301.6,44.8 L300.6,43.4 L299.5,41.9 C298.9,41.3 298.1,40.7 297,40 C294.8,38.7 292.4,37.8 289.7,37.1 L287.1,36.5 L287,36.5 L286.7,37.1 L286.7,39.5 L286.3,39.8 L282.3,38.8 L282.2,38.9 L282.2,42.9 L283.4,43.6 L280.9,45.4 L280.9,49.4 L281.6,50.6 L306.3,56.7 L306.3,56.7 Z M170.3,85 L170.3,81 L153.5,76.9 L145.8,75 L140,73.5 L122.1,69 L120.1,63.9 L122.1,63.7 L127.5,59.9 L127.5,62.1 L131.1,63 L132.5,62.1 L132.5,64.8 L136.5,65.8 L137.4,65.8 L137.7,65.8 L140.7,66.2 L144.8,66.9 L145.2,67 L145.3,67 L145.8,67.1 L150.9,68.4 L155.6,69.9 L155.7,69.9 L158.3,70.8 L158.4,70.8 L161.4,72.1 L161.5,72.1 L161.6,72.1 C162.8,72.7 163.9,73.4 164.9,74.4 L167.2,75 L167.3,75 L207.1,84.9 L210.7,84.6 L219.6,86.8 L226.5,86.9 L230.1,84.3 L230.1,84.2 L239.6,77.5 L263.8,60.1 L263.8,56.1 C263.1,55.5 262.5,54.8 262.1,54.1 L262.4,53.6 L262.9,52.8 L264,51.5 L264.3,51.3 L264.5,51.1 L264.7,51 L264.9,50.8 L265,50.7 L265.1,50.7 L265.1,46.7 L260.7,45.6 L239.6,60.7 L239.6,61.5 L237.1,63.3 L236.1,63.1 L231.9,66.1 L231.9,67.1 L227.2,70.5 L227.1,70.5 L225.9,71.3 L225.9,69.6 L223.2,68.9 L221.5,70.1 L219.4,69.6 L230.2,66.5 L265.2,42 L266.7,37.4 L266.7,33.4 L260.9,28.7 L236.5,22.6 L239.2,20.7 L239.2,16.7 L227.4,12.1 L221.3,16.5 L221.3,20.5 L227.3,22 L221.5,22 L214,25.2 L179.5,50 L178.2,56 L178.2,58 L163.8,54.4 L163.8,54 L162.7,53.7 L163.3,53.3 L163.3,49.3 L151.1,46.3 L133.3,58.9 L133.3,57.7 L131.6,57.2 L132.4,56.7 L132.4,52.7 L128.9,51.8 L138.5,44.9 L146.2,46.8 L164.1,34 L164.1,30 L106.8,15.7 L102.2,19 L78.1,13 L78.2,12.9 L78.2,8.9 L53.2,2.6 L2.8,38.5 L2.8,42.5 L94.2,65.3 L68.2,83.9 L68.2,87.9 L72.3,93 L107,101.6 L113,100.9 L128.6,89.7 L128.6,91 L142.9,94.6 L142.9,95.7 L152.1,98 L170.3,85 L170.3,85 Z M111.3,47.3 L107.6,46.4 L106.3,47.4 L100.1,45.9 L102.4,44.2 L111.3,46.4 L111.3,47.3 L111.3,47.3 Z M248.5,100.7 L247.8,100.1 L244,99.1 L240,98.1 L236.9,98.8 L230,97.1 L223.1,97.8 L218,101.4 L217.9,101.4 L213.1,104.8 L213.1,108.8 L214.9,117 L224.8,119.5 L236.1,111.5 L236.1,109 L240.9,110.2 L248.6,104.7 L248.5,100.7 L248.5,100.7 Z M209.6,103 L209.6,103 L213.8,100.1 L213.8,96.1 L213,92.6 L206.2,90.9 L202.3,89.2 L201.7,89.1 L196.9,87.9 L175.7,82.6 L154.9,97.4 L154.8,97.4 L154.8,101.4 L176.3,106.8 L176.6,106.5 L176.6,107.8 L186.5,110.3 L204.5,106.9 L204.9,106.6 L204.9,108.6 L208.5,109.5 L210.6,108 L210.6,104 L209,103.5 L209.6,103 L209.6,103 Z M402,88 L397.3,84.4 L384.4,81.1 L365.8,94.4 L360.5,93.1 L355.9,96.4 L348.8,94.6 L348.8,90.9 L338.1,88.3 L363.3,70.3 L363.3,69.2 L364.3,69.5 L368.5,66.5 L368.5,62.5 L329.1,52.7 L324.8,55.7 L324.8,56.8 L323.8,56.6 L312.8,64.4 L312.8,62.2 L306.3,60.6 C302.7,62.2 297.7,63.2 291.5,63.5 L283.1,63.4 L275.4,67.3 L272.2,69.6 L272.2,73.6 L282.1,76.1 L282.1,77.2 L267.9,73.7 L267.8,73.7 L264.4,72.9 L263.3,73 L259.5,74.9 L259.5,77.6 L257.6,77.2 L245.6,85.7 L245.6,89.7 L248.4,93.8 L253,94.9 L253.1,94.9 L257,95.8 L258.1,97.7 L258.3,97.6 L289.7,105.4 L294,106.5 L315,104 L327.3,107.1 L328.9,106 L328.9,104.7 L336,99.6 L337.4,100 L341,97.4 L342.1,97.7 L333.1,104.1 L333.1,108.1 L338,109.3 L335.1,111.4 L328,109.6 L300.3,113.3 L259.4,103.1 L259.1,103.1 L255.1,102.1 L253.5,102.2 L242.1,110.5 L242.1,114.5 L248.3,116 L248.3,119.4 L250.8,120 L249.9,120.6 L249.9,124.6 L261.4,127.5 L261.4,128.8 L273.8,131.9 L269.9,134.6 L267.4,134.8 L263.5,137.6 L263.5,141.6 L269.8,143.1 L272.8,142.9 L329,156.9 L330.1,158.6 L333.4,159.5 L343.5,158.3 L345.7,156.8 L345.7,154.5 L376.9,132.3 L376.9,128.3 L375.2,125.7 L378.2,124.8 L383.8,120.8 L393.7,120.1 L393.8,120.1 L393.9,120 L394.5,119.7 L394.8,119.5 L394.9,119.5 L395.2,119.3 L395.3,119.3 L397.2,117.9 L397.3,117.8 L398.6,116.8 L398.7,116.7 L402.3,113.2 L403.1,112.2 L403.2,112.1 L404.6,110 L404.7,109.8 L404.8,109.7 L405.8,107.6 L405.8,107.4 L405.9,107.2 L406.3,106.1 L406.6,105.1 L406.9,103.7 L406.9,102.9 L406.9,102.7 L406.9,98.2 C406.9,94.4 405.2,91.1 402,88 L402,88 Z M296.2,76.2 L296.2,79.4 L292.9,78.6 L289.2,81.2 L289.2,78.7 L288.1,78.4 L297.4,71.8 L301,72.7 L305.5,69.4 L296.2,76.2 L296.2,76.2 Z M333.3,90 L314.2,85.3 L314.2,84.7 L333.8,89.6 L333.3,90 L333.3,90 Z M344.3,94 L336.3,92 L336.4,91.9 L344.4,93.9 L344.3,94 L344.3,94 Z M234.3,85.9 L234.3,89.9 L237.9,90.8 L240,89.3 L240,85.3 L236.4,84.2 L234.3,85.9 L234.3,85.9 Z M244.4,82.6 L248,83.5 L250.1,82 L250.1,78 L246.5,76.9 L244.3,78.5 L244.3,82.6 L244.4,82.6 Z M244.4,82.6" class="wall"/>
        </g>
        <g class="ceilings">
            <path class="unit" d="M227.6,12.1 L239.2,16.6 L234.9,19.7 L221.7,16.4 L227.6,12.1 L227.6,12.1 Z M227.6,12.1" id="2001"/>
            <path class="unit" d="M266.6,33.3 L265.2,37.9 L230.6,62.6 L218.8,66 L178.3,55.9 L179.6,50 L214.3,25.2 L221.8,22 L233.8,21.9 L260.9,28.7 L266.6,33.3" id="2002"/>
            <path class="unit" d="M317.2,52.5 C316.2,52.3 314.6,52.5 312.3,53.2 L309,54.4 L308.2,54.2 C308.4,53.8 308.2,53.4 307.5,53.1 L306.4,52.7 L281.6,46.5 L280.9,45.4 L284.8,42.7 C285.5,42 285.4,41.2 284.3,40.2 L282.3,38.9 L286.3,39.9 L289.3,37.7 L286.8,37 L287.1,36.5 L289.7,37.1 C292.2,37.7 294.6,38.7 296.9,40 C298.5,40.9 299.7,42.1 300.4,43.3 C301.1,44.6 302.1,45.6 303.5,46.4 C305.8,47.7 308.3,48.7 311.2,49.4 L313.8,50 L320.3,50.9 L317.7,52.7 L317.2,52.5 L317.2,52.5 Z M317.2,52.5" id="2003"/>
            <path class="unit" d="M329.1,52.6 L368.4,62.4 L364.3,65.3 L325,55.5 L329.1,52.6 L329.1,52.6 Z M329.1,52.6" id="2004"/>
            <path class="unit" d="M265.4,46.8 C264.1,47.7 263.2,48.7 262.5,49.9 C261.2,52.2 261.7,54.3 264.1,56.3 L257.5,61 L244.4,57.7 L261.2,45.7 L265.4,46.8 L265.4,46.8 Z M265.4,46.8" id="2005"/>
            <path class="unit" d="M257.5,61 L244.4,57.7 L240.2,60.7 L241,60.9 L239.2,62.2 L251.5,65.2 L257.5,61 L257.5,61 Z M257.5,61" id="2006"/>
            <path class="unit" d="M257.3,77 L254.6,78.8 L270.5,82.8 L273.1,80.8 L257.3,77 L257.3,77 Z M257.3,77" id="2007"/>
            <path class="unit" d="M312.7,62 L307.2,65.9 L305.4,65.4 L300.9,68.7 L297.3,67.8 L287.7,74.7 L282.3,73.4 L283.8,72.3 L272.4,69.5 L275.6,67.3 L283.2,63.4 C285.4,63.7 288.2,63.7 291.8,63.5 C297.9,63.2 302.8,62.3 306.5,60.6 L312.7,62 L312.7,62 Z M312.7,62" id="2008"/>
            <path class="unit" d="M335.7,86 L296.3,76.2 L323.9,56.5 L363.3,66.3 L335.7,86 L335.7,86 Z M335.7,86" id="2009"/>
            <path class="unit" d="M262.2,75.8 L259.6,75.1 L263.5,72.3 L267.9,73.5 L266.6,74.4 L264.8,73.9 L262.2,75.8 L262.2,75.8 Z M262.2,75.8" id="2010"/>
            <path class="unit" d="M270.7,83 L267.4,85.4 L262.2,84.1 L262,84.2 L251.1,81.5 L254.5,79 L270.7,83 L270.7,83 Z M270.7,83" id="2011"/>
            <path class="unit" d="M262,84.2 L253,90.7 L248.4,89.6 L245.7,85.5 L251.2,81.6 L262,84.2 L262,84.2 Z M262,84.2" id="2012"/>
            <path class="unit" d="M267.9,86.5 L258.1,93.5 L257,91.7 L253,90.7 L261.2,84.9 L267.9,86.5 L267.9,86.5 Z M267.9,86.5" id="2013"/>
            <path class="unit" d="M284.3,84.7 L268.5,96 L258.2,93.4 L271.6,83.9 L280.3,86.1 L282.7,84.4 L284.3,84.7 L284.3,84.7 Z M284.3,84.7" id="2014"/>
            <path class="unit" d="M279.2,98.6 L274.8,97.5 L298.4,80 L303.5,81.3 L279.2,98.6 L279.2,98.6 Z M279.2,98.6" id="2015"/>
            <path class="unit" d="M303.6,81.3 L314.1,83.9 L289.9,101.3 L279.3,98.6 L303.6,81.3 L303.6,81.3 Z M303.6,81.3" id="2016"/>
            <path class="unit" d="M289.8,101.3 L312.8,84.9 L323.5,87.6 L304.7,101.1 L294,102.4 L289.8,101.3 L289.8,101.3 Z M289.8,101.3" id="2017"/>
            <path class="unit" d="M332.1,91 L318.5,100.7 L315,99.8 L304.7,101 L323.5,87.5 L333.4,90 L336.5,87.8 L348.8,90.8 L344.4,94 L332.1,91 L332.1,91 Z M332.1,91" id="2018"/>
            <path class="unit" d="M341,93.2 L337.4,95.8 L336,95.4 L327.5,101.5 L328.8,101.9 L327.3,103 L318.5,100.8 L332.1,91 L341,93.2 L341,93.2 Z M341,93.2" id="2019"/>
            <path class="unit" d="M227.8,101.4 L226.3,97.5 L230,97.1 L236.9,98.9 L231.9,102.4 L227.8,101.4 L227.8,101.4 Z M227.8,101.4" id="2020"/>
            <path class="unit" d="M226.3,97.5 L227.8,101.4 L230.7,102.1 L228.1,103.9 L218,101.4 L223.1,97.8 L226.3,97.5 L226.3,97.5 Z M226.3,97.5" id="2021"/>
            <path class="unit" d="M243.8,99.2 L235.8,104.9 L230.5,103.5 L237,98.9 L240,98.2 L243.8,99.2 L243.8,99.2 Z M243.8,99.2" id="2022"/>
            <path class="unit" d="M247.8,100.1 L248.4,100.7 L240.8,106.1 L235.8,104.9 L243.8,99.2 L247.8,100.1 L247.8,100.1 Z M247.8,100.1" id="2023"/>
            <path class="unit" d="M259.2,103.1 L247.2,111.7 L242.3,110.5 L253.6,102.2 L255.1,102.1 L259.2,103.1 L259.2,103.1 Z M259.2,103.1" id="2024"/>
            <path class="unit" d="M263.9,104.3 L251.9,112.9 L247.2,111.7 L259.2,103.1 L263.9,104.3 L263.9,104.3 Z M263.9,104.3" id="2025"/>
            <path class="unit" d="M269.7,105.7 L254.2,116.8 L248.4,115.3 L264,104.3 L269.7,105.7 L269.7,105.7 Z M269.7,105.7" id="2026"/>
            <path class="unit" d="M254.2,116.8 L269.7,105.7 L276.4,107.4 L258.5,120.2 L252.6,118.7 L254.9,117.1 L254.2,116.8 L254.2,116.8 Z M254.2,116.8" id="2027"/>
            <path class="unit" d="M276.5,107.4 L283.4,109.1 L262.8,123.8 L250.1,120.6 L252.8,118.7 L258.7,120.2 L276.5,107.4 L276.5,107.4 Z M276.5,107.4" id="2028"/>
            <path class="unit" d="M397.3,84.4 L402,88.1 C405,91.1 406.7,94.4 407,97.9 L392.8,94.3 L390.5,95.9 L370.7,90.9 L384.4,81 L397.3,84.4 L397.3,84.4 Z M397.3,84.4" id="2029"/>
            <path class="unit" d="M347,94.1 L356,96.4 L342.2,106.2 L333.2,104 L347,94.1 L347,94.1 Z M347,94.1" id="2030"/>
            <path class="unit" d="M407.1,97.9 C407.1,102.5 405,106.9 400.6,111 C399.2,112.3 397.7,113.5 396,114.7 L393.6,116.1 L383.5,116.8 L367.1,112.7 L360.1,117.7 L334.9,111.4 L360.4,93.2 L365.8,94.5 L370.5,91.1 L390.4,96 L392.7,94.4 L407.1,97.9 L407.1,97.9 Z M407.1,97.9" id="2031"/>
            <path class="unit" d="M383.7,116.8 L378.1,120.8 L372.9,122.3 L367.3,120.9 L366.2,119.2 L360.1,117.7 L367.1,112.7 L383.7,116.8 L383.7,116.8 Z M383.7,116.8" id="2032"/>
            <path class="unit" d="M300,113.3 L292.8,118.4 L292.7,118.4 L291.6,118.1 L289.2,119.9 L287.7,119.5 L276.8,127.3 L279.5,128 L278.1,129 L261.6,124.9 L283.5,109.3 L300,113.3 L300,113.3 Z M300,113.3" id="2033"/>
            <path class="unit" d="M270,134.6 L300.1,113.2 L327.9,109.5 L366.3,119.1 L367.4,120.8 L372.9,122.2 L376.8,128.1 L344.5,151.1 L345.6,152.6 L343.4,154.1 L333.5,155.2 L330.3,154.3 L329.2,152.6 L272.9,138.6 L269.8,138.8 L263.7,137.3 L267.4,134.6 L270,134.6 L270,134.6 Z M270,134.6" id="2034"/>
            <path class="unit" d="M132.7,59.3 L151.2,46.2 L163.2,49.2 L158.5,52.6 L160.2,53 L146,63.1 C142,62.2 138.9,61.8 136.5,61.7 L132.6,60.7 L132.7,59.3 L132.7,59.3 Z M132.7,59.3" id="2036"/>
            <path class="unit" d="M163.6,53.9 L163,54.3 L169.7,56 L155.8,65.9 C154,65.2 151.4,64.4 148,63.6 L145.9,63.1 L160.1,53 L163.6,53.9 L163.6,53.9 Z M163.6,53.9" id="2037"/>
            <path class="unit" d="M155.9,65.9 L169.8,56 L176.5,57.7 L161.7,68.2 C160.3,67.6 158.9,67 157.6,66.5 L155.9,65.9 L155.9,65.9 Z M155.9,65.9" id="2038"/>
            <path class="unit" d="M183.4,59.4 L167.3,71.1 L165.1,70.5 C164.3,69.7 163.5,69.1 162.8,68.7 L161.8,68.2 L176.6,57.7 L183.4,59.4 L183.4,59.4 Z M183.4,59.4" id="2039"/>
            <path class="unit" d="M191.1,61 L174.5,72.8 L167.3,71 L183.9,59.2 L191.1,61 L191.1,61 Z M191.1,61" id="2040"/>
            <path class="unit" d="M133.6,71.9 L139.9,73.5 L131.1,79.7 L124.9,78.1 L133.6,71.9 L133.6,71.9 Z M133.6,71.9" id="2041"/>
            <path class="unit" d="M145.6,74.9 L145.6,74.9 L137.9,80.4 L132.2,79 L139.9,73.5 L145.6,74.9 L145.6,74.9 Z M145.6,74.9" id="2042"/>
            <path class="unit" d="M153.3,76.9 L136.3,89 L128.6,87.1 L145.5,75 L153.3,76.9 L153.3,76.9 Z M153.3,76.9" id="2043"/>
            <path class="unit" d="M161.1,78.8 L144.2,90.9 L136.3,88.9 L153.3,76.8 L161.1,78.8 L161.1,78.8 Z M161.1,78.8" id="2044"/>
            <path class="unit" d="M106.8,15.6 L102.3,18.9 L73.9,11.8 L78.1,8.8 L53.2,2.6 L3,38.4 L98.6,62.2 L68.3,83.9 L72.3,89 L107,97.6 L112.8,96.9 L135.3,80.8 L124.9,78.2 L133.6,72 L122,69 L118.6,60.1 L122.1,59.7 L132.2,52.5 L107.7,46.4 L106.3,47.4 L95.8,44.8 L102.4,40.1 L112.9,42.7 L111.6,43.7 L128.5,47.9 L138.5,40.8 L146.2,42.7 L164,30 L106.8,15.6 L106.8,15.6 Z M106.8,15.6" id="2045"/>
            <path class="unit" d="M161.1,78.8 L170.2,81 L152,94 L142.9,91.8 L161.1,78.8 L161.1,78.8 Z M161.1,78.8" id="2046"/>
            <path class="unit" d="M155,97.3 L175.8,82.6 L186.4,85.2 L165.7,99.9 L155,97.3 L155,97.3 Z M155,97.3" id="2047"/>
            <path class="unit" d="M201.6,89 L194.3,94.2 L189.7,93.1 L196.9,87.9 L201.6,89 L201.6,89 Z M201.6,89" id="2048"/>
            <path class="unit" d="M197,87.9 L176.3,102.6 L165.7,100 L186.3,85.2 L197,87.9 L197,87.9 Z M197,87.9" id="2049"/>
            <path class="unit" d="M202.2,89.1 L206.1,90.8 L199.5,95.4 L199.4,95.4 L194.3,94.1 L201.5,89 L202.2,89.1 L202.2,89.1 Z M202.2,89.1" id="2050"/>
            <path class="unit" d="M212.9,92.6 L213.8,96.1 L209.8,99 L198.6,96.2 L199.6,95.5 L199.7,95.5 L206.3,90.9 L212.9,92.6 L212.9,92.6 Z M212.9,92.6" id="2051"/>
            <path class="unit" d="M207,100.7 L192.8,97.2 L195,95.7 L198,96.5 L198.4,96.2 L209.5,99 L207,100.7 L207,100.7 Z M207,100.7" id="2052"/>
            <path class="unit" d="M187.6,96 L207,100.8 L204.5,102.7 L186.6,106.1 L176.8,103.6 L187.6,96 L187.6,96 Z M187.6,96" id="2053"/>
            <path class="unit" d="M233.2,105.3 L231.6,106.5 L236,107.6 L224.8,115.6 L215,113.2 L213.2,105 L217.9,101.6 L233.2,105.3 L233.2,105.3 Z M233.2,105.3" id="2054"/>
            <path class="unit" d="M198.2,62.8 L181.6,74.6 L181.7,74.6 L174.5,72.8 L191.1,60.9 L198.2,62.8 L198.2,62.8 Z M198.2,62.8" id="2055"/>
            <path class="unit" d="M181.6,74.6 L198.2,62.8 L205.4,64.6 L188.8,76.4 L188.9,76.4 L181.7,74.6 L181.6,74.6 L181.6,74.6 Z M181.6,74.6" id="2056"/>
            <path class="unit" d="M205.4,64.6 L212.5,66.4 L195.9,78.2 L188.9,76.5 L188.8,76.5 L205.4,64.6 L205.4,64.6 Z M205.4,64.6" id="2057"/>
            <path class="unit" d="M202.9,79.9 L196,78.2 L212.5,66.3 L219.3,68 L202.9,79.9 L202.9,79.9 Z M202.9,79.9" id="2058"/>
            <path class="unit" d="M206.9,80.9 L207.2,81 L210.8,80.7 L215.8,77.1 L213,76.4 L206.9,80.9 L206.9,80.9 Z M206.9,80.9" id="2059"/>
            <path class="unit" d="M239.8,73.7 L237.6,75.2 L225.4,72.1 L227.6,70.6 L239.8,73.7 L239.8,73.7 Z M239.8,73.7" id="2060"/>
            <path class="unit" d="M237.6,75.2 L234.5,77.3 L229.4,76 L230.4,75.3 L223.5,73.6 L225.5,72.2 L237.6,75.2 L237.6,75.2 Z M237.6,75.2" id="2061"/>
            <path class="unit" d="M234.5,77.4 L230.1,80.5 L223.1,78.8 L223,78.8 L227.4,75.6 L234.5,77.4 L234.5,77.4 Z M234.5,77.4" id="2062"/>
            <path class="unit" d="M217.8,82.4 L210.9,80.7 L220.5,73.8 L227.3,75.5 L217.8,82.4 L217.8,82.4 Z M217.8,82.4" id="2063"/>
            <path class="unit" d="M226.6,83.1 L219.7,83 L217.8,82.5 L222.9,78.9 L229.9,80.6 L226.6,83.1 L226.6,83.1 Z M226.6,83.1" id="2064"/>
            <path class="unit" d="M272.2,41.9 L268.6,41 L270.8,39.4 L274.4,40.5 L272.2,41.9 L272.2,41.9 Z M272.2,41.9" id="2065"/>
            <path class="unit" d="M369.2,69.6 L365.5,68.7 L367.7,67.1 L371.3,68.2 L369.2,69.6 L369.2,69.6 Z M369.2,69.6" id="2066"/>
            <path class="unit" d="M233.6,66.4 L242,68.5 L240.6,69.5 L244.3,70.4 L240,73.6 L227.7,70.6 L233.6,66.4 L233.6,66.4 Z M233.6,66.4" id="2067"/>
            <path class="unit" d="M274.7,97.5 L268.6,96 L292.9,78.6 L298.3,79.9 L274.7,97.5 L274.7,97.5 Z M274.7,97.5" id="2068"/>
            <path class="unit" d="M285.9,88.9 L286.1,88.9 L286.2,88.9 L286.3,89.1 L286.2,89.2 L286.1,89.3 L285.9,89.2 L285.9,89.1 L285.9,88.9 M294.7,82.5 L294.8,82.5 L294.9,82.7 L294.8,82.8 L294.7,82.9 L294.5,82.8 L294.5,82.7 L294.5,82.5 L294.7,82.5 M293.4,83.3 L293.6,83.3 L293.7,83.3 L293.8,83.5 L293.7,83.6 L293.6,83.7 L293.4,83.6 L293.4,83.5 L293.4,83.3 M289.1,86.5 L289.3,86.5 L289.4,86.5 L289.5,86.7 L289.4,86.8 L289.3,86.9 L289.1,86.8 L289.1,86.7 L289.1,86.5 M290.2,85.7 L290.4,85.7 L290.5,85.7 L290.6,85.9 L290.5,86 L290.4,86.1 L290.2,86 L290.2,85.9 L290.2,85.7 M288.2,87.3 L288.3,87.3 L288.4,87.5 L288.3,87.6 L288.2,87.7 L288,87.6 L288,87.5 L288,87.3 L288.2,87.3 M287,88.1 L287.2,88.1 L287.3,88.1 L287.4,88.3 L287.3,88.4 L287.2,88.5 L287,88.4 L287,88.3 L287,88.1 M292.4,84.1 L292.6,84.1 L292.7,84.1 L292.8,84.3 L292.7,84.4 L292.6,84.5 L292.4,84.4 L292.4,84.3 L292.4,84.1 M291.3,84.9 L291.5,84.9 L291.6,84.9 L291.7,85.1 L291.6,85.2 L291.5,85.3 L291.3,85.2 L291.3,85.1 L291.3,84.9 M297.7,80.1 L297.9,80.1 L298,80.1 L298.1,80.3 L298,80.4 L297.9,80.5 L297.7,80.4 L297.7,80.3 L297.7,80.1 M296.6,80.9 L296.8,80.9 L296.9,80.9 L297,81.1 L296.9,81.2 L296.8,81.3 L296.6,81.2 L296.6,81.1 L296.6,80.9 M295.6,81.7 L295.8,81.7 L295.9,81.7 L296,81.9 L295.9,82 L295.8,82.1 L295.6,82 L295.6,81.9 L295.6,81.7 M276.6,96.1 L276.7,96.3 L276.6,96.4 L276.5,96.5 L276.3,96.4 L276.3,96.3 L276.3,96.1 L276.5,96.1 L276.6,96.1 M275.2,96.8 L275.4,96.8 L275.5,96.8 L275.6,97 L275.5,97.1 L275.4,97.2 L275.2,97.1 L275.2,97 L275.2,96.8 M285.1,89.7 L285.2,89.9 L285.1,90 L285,90.1 L284.8,90 L284.8,89.9 L284.8,89.7 L285,89.7 L285.1,89.7 M284.2,90.7 L284.1,90.8 L284,90.9 L283.8,90.8 L283.8,90.7 L283.8,90.5 L284,90.5 L284.1,90.5 L284.2,90.7 M281.8,92.1 L281.9,92.1 L282,92.3 L281.9,92.4 L281.8,92.5 L281.6,92.4 L281.6,92.3 L281.6,92.1 L281.8,92.1 M283,91.4 L283.1,91.6 L283,91.7 L282.9,91.8 L282.7,91.7 L282.7,91.6 L282.7,91.4 L282.9,91.4 L283,91.4 M278.4,94.6 L278.6,94.6 L278.7,94.6 L278.8,94.8 L278.7,94.9 L278.6,95 L278.4,94.9 L278.4,94.8 L278.4,94.6 M280.5,93 L280.7,93 L280.8,93 L280.9,93.2 L280.8,93.3 L280.7,93.4 L280.5,93.3 L280.5,93.2 L280.5,93 M279.5,93.8 L279.7,93.8 L279.8,93.8 L279.9,94 L279.8,94.1 L279.7,94.2 L279.5,94.1 L279.5,94 L279.5,93.8 M277.3,95.4 L277.5,95.4 L277.6,95.4 L277.7,95.6 L277.6,95.7 L277.5,95.8 L277.3,95.7 L277.3,95.6 L277.3,95.4" id="2069"/>
            <path class="unit" d="M237.5,63.4 L236.5,63.2 L232.5,66.1 L242,68.4 L240.6,69.4 L244.3,70.3 L251.4,65.3 L239.1,62.3 L237.5,63.4 L237.5,63.4 Z M237.5,63.4" id="2070"/>
            <path class="unit" d="M226.2,69.7 L223.7,69.1 L222,70.3 L217.7,69.2 L202.8,79.8 L202.9,79.8 L206.7,80.7 L213,76.2 L215.9,76.9 L226.2,69.7 L226.2,69.7 Z M226.2,69.7" id="2071"/>
            <path class="unit" d="M131.2,59 L127.5,58.1 L129.7,56.5 L133.3,57.6 L131.2,59 Z M131.2,59" id="2072"/>
            <path class="unit" d="M237.9,86.8 L234.3,85.9 L236.5,84.3 L240,85.3 L237.9,86.8 Z M237.9,86.8" id="2073"/>
            <path class="unit" d="M248.1,79.5 L244.4,78.6 L246.6,77 L250.2,78.1 L248.1,79.5 Z M248.1,79.5" id="2074"/>
            <path class="unit" d="M208.6,105.3 L204.9,104.4 L207.1,102.8 L210.7,103.8 L208.6,105.3 Z M208.6,105.3" id="2075"/>
        </g>
    </g>
</svg>