<?xml version="1.0" encoding="utf-8"?>
<!DOCTYPE svg PUBLIC "-//W3C//DTD SVG 1.1//EN" "http://www.w3.org/Graphics/SVG/1.1/DTD/svg11.dtd">
<svg version="1.1" xmlns="http://www.w3.org/2000/svg" xmlns:xlink="http://www.w3.org/1999/xlink" xml:space="preserve">
<g class="level" id="level4">
                <g class="outline">
                    <path d="M260.911,88.803 L260.911,88.803 C260.408,84.345 254.392,80.632 242.522,77.451 C236.91,75.947 232.321,75.195 231.807,75.113 L220.704,73.41 L190.192,65.234 L187.685,67.177 L180.051,65.393 L178.135,66.878 L175.005,66.398 L175.047,63.339 L163.611,61.835 L160.581,64.185 L156.522,63.562 L156.565,60.495 L116.815,54.197 L113.417,56.832 L112.878,56.687 L112.907,54.622 L111.091,54.135 L111.111,52.727 L75.149,46.649 L70.382,50.345 L66.999,49.826 L27.465,39.233 L0.507,60.137 L0.419,66.45 L30.117,75.562 L27.627,77.492 L155.831,130.296 C156.711,130.767 162.219,133.617 170.557,135.851 C175.462,137.165 181.906,138.376 188.993,138.376 C193.537,138.376 198.347,137.878 203.184,136.59 C213.464,133.853 236.92,127.282 243.865,125.334 L247.032,124.446 L242.299,120.964 L250.186,118.819 L250.192,114.255 L259.146,114.391 L259.294,113.033 C259.653,109.759 261.406,93.203 260.911,88.803 L260.911,88.803 Z M260.911,88.803" class="outline"/>
                </g>
                <g class="label">
                    <path d="M4.354,5.536 C2.994,5.008 2.113,4.592 2.113,3.471 C2.113,2.399 3.009,1.774 4.162,1.774 C4.834,1.774 5.394,1.918 5.843,2.078 C6.019,2.126 6.179,2.19 6.355,2.19 C6.643,2.19 6.916,1.95 6.916,1.598 C6.916,1.374 6.82,1.15 6.436,0.99 C5.892,0.766 5.043,0.574 4.291,0.574 C2.114,0.574 0.834,1.902 0.834,3.535 C0.834,5.152 1.938,5.904 3.539,6.528 C5.636,7.344 6.212,7.904 6.212,8.977 C6.212,10.113 5.316,10.866 3.923,10.866 C3.059,10.866 2.242,10.546 1.682,10.146 C1.426,9.97 1.282,9.874 1.042,9.874 C0.738,9.874 0.481,10.114 0.466,10.418 C0.45,10.722 0.61,10.914 0.818,11.058 C1.554,11.555 2.61,12.018 3.859,12.018 C6.052,12.018 7.461,10.722 7.461,8.897 C7.459,7.232 6.227,6.256 4.354,5.536 L4.354,5.536 Z M13.362,0.574 C10.481,0.574 8.656,2.911 8.656,6.512 C8.656,9.905 10.448,12.018 13.314,12.018 C16.195,12.018 18.02,9.665 18.02,6.064 C18.02,2.67 16.211,0.574 13.362,0.574 L13.362,0.574 Z M13.346,10.833 C11.201,10.833 9.952,9.088 9.952,6.576 C9.952,3.615 11.184,1.758 13.329,1.758 C15.522,1.758 16.723,3.503 16.723,6 C16.724,8.961 15.491,10.833 13.346,10.833 L13.346,10.833 Z M25.218,2.11 C24.594,0.861 24.098,0.493 23.537,0.493 C22.977,0.493 22.481,0.861 21.856,2.11 C20.96,3.919 20.272,6.192 19.103,10.818 C19.039,11.042 19.007,11.218 19.007,11.33 C19.007,11.714 19.263,11.954 19.615,11.954 C19.903,11.954 20.111,11.778 20.191,11.442 C20.495,10.066 20.799,8.833 21.104,7.776 L25.97,7.776 C26.258,8.833 26.562,10.065 26.883,11.442 C26.963,11.778 27.171,11.954 27.459,11.954 C27.811,11.954 28.067,11.714 28.067,11.33 C28.067,11.218 28.019,11.042 27.971,10.818 C26.835,6.192 26.115,3.919 25.218,2.11 L25.218,2.11 Z M21.425,6.656 C22.161,4.207 22.818,2.686 23.33,1.886 C23.378,1.822 23.426,1.758 23.538,1.758 C23.65,1.758 23.698,1.822 23.746,1.886 C24.258,2.686 24.898,4.207 25.635,6.656 L21.425,6.656 L21.425,6.656 Z M35.506,7.776 C35.218,7.36 34.898,7.04 34.529,6.8 C35.954,6.303 36.882,5.311 36.882,3.791 C36.882,1.854 35.57,0.574 32.673,0.574 C31.569,0.574 30.816,0.686 30.304,0.846 C29.904,0.974 29.792,1.214 29.792,1.614 L29.792,11.314 C29.792,11.714 30.064,11.954 30.416,11.954 C30.769,11.954 31.041,11.714 31.041,11.314 L31.041,7.136 L32.29,7.136 C33.458,7.136 33.923,7.616 34.499,8.545 C34.899,9.185 35.315,10.113 35.811,11.506 C35.907,11.762 36.083,11.954 36.419,11.954 C36.755,11.954 37.044,11.714 37.044,11.33 C37.044,11.218 37.012,11.058 36.948,10.898 C36.515,9.745 36.002,8.545 35.506,7.776 L35.506,7.776 Z M32.481,5.92 L31.041,5.92 L31.041,1.886 C31.489,1.822 31.921,1.758 32.61,1.758 C34.899,1.758 35.619,2.654 35.619,3.839 C35.618,5.488 34.066,5.968 32.481,5.92 L32.481,5.92 Z M48.194,0.702 L43.504,0.702 C42.816,0.702 42.448,1.07 42.448,1.662 L42.448,11.314 C42.448,11.714 42.719,11.954 43.072,11.954 C43.424,11.954 43.68,11.714 43.68,11.314 L43.68,7.024 L47.601,7.024 C47.954,7.024 48.194,6.736 48.194,6.432 C48.194,6.144 47.954,5.855 47.601,5.855 L43.68,5.855 L43.68,1.917 L48.177,1.917 C48.625,1.917 48.833,1.613 48.833,1.325 C48.834,1.022 48.626,0.702 48.194,0.702 L48.194,0.702 Z M51.024,0.638 C50.671,0.638 50.4,0.894 50.4,1.294 L50.4,11.314 C50.4,11.714 50.656,11.954 51.007,11.954 C51.36,11.954 51.632,11.714 51.632,11.314 L51.632,1.294 C51.633,0.893 51.376,0.638 51.024,0.638 L51.024,0.638 Z M59.682,7.776 C59.394,7.36 59.074,7.04 58.705,6.8 C60.13,6.303 61.059,5.311 61.059,3.791 C61.059,1.854 59.747,0.574 56.849,0.574 C55.745,0.574 54.993,0.686 54.48,0.846 C54.08,0.974 53.968,1.214 53.968,1.614 L53.968,11.314 C53.968,11.714 54.239,11.954 54.592,11.954 C54.944,11.954 55.216,11.714 55.216,11.314 L55.216,7.136 L56.464,7.136 C57.633,7.136 58.097,7.616 58.673,8.545 C59.073,9.185 59.489,10.113 59.985,11.506 C60.082,11.762 60.257,11.954 60.593,11.954 C60.929,11.954 61.217,11.714 61.217,11.33 C61.217,11.218 61.186,11.058 61.121,10.898 C60.69,9.745 60.178,8.545 59.682,7.776 L59.682,7.776 Z M56.656,5.92 L55.216,5.92 L55.216,1.886 C55.664,1.822 56.096,1.758 56.784,1.758 C59.073,1.758 59.794,2.654 59.794,3.839 C59.794,5.488 58.241,5.968 56.656,5.92 L56.656,5.92 Z M66.289,5.536 C64.929,5.008 64.049,4.592 64.049,3.471 C64.049,2.399 64.945,1.774 66.098,1.774 C66.77,1.774 67.33,1.918 67.779,2.078 C67.955,2.126 68.115,2.19 68.291,2.19 C68.579,2.19 68.852,1.95 68.852,1.598 C68.852,1.374 68.755,1.15 68.372,0.99 C67.828,0.766 66.979,0.574 66.227,0.574 C64.05,0.574 62.769,1.902 62.769,3.535 C62.769,5.152 63.873,5.904 65.474,6.528 C67.572,7.344 68.148,7.904 68.148,8.977 C68.148,10.113 67.252,10.866 65.859,10.866 C64.995,10.866 64.178,10.546 63.618,10.146 C63.362,9.97 63.218,9.874 62.977,9.874 C62.673,9.874 62.417,10.114 62.401,10.418 C62.385,10.722 62.546,10.914 62.754,11.058 C63.49,11.555 64.547,12.018 65.795,12.018 C67.988,12.018 69.397,10.722 69.397,8.897 C69.395,7.232 68.162,6.256 66.289,5.536 L66.289,5.536 Z M77.474,0.702 L70.623,0.702 C70.271,0.702 70.031,1.006 70.031,1.31 C70.031,1.614 70.222,1.902 70.623,1.902 L73.376,1.902 L73.376,11.314 C73.376,11.714 73.648,11.954 74.001,11.954 C74.337,11.954 74.608,11.714 74.608,11.314 L74.608,1.902 L77.473,1.902 C77.841,1.902 78.049,1.598 78.049,1.31 C78.05,0.99 77.826,0.702 77.474,0.702 L77.474,0.702 Z M88.594,0.702 L83.904,0.702 C83.216,0.702 82.848,1.07 82.848,1.662 L82.848,11.314 C82.848,11.714 83.119,11.954 83.472,11.954 C83.824,11.954 84.08,11.714 84.08,11.314 L84.08,7.024 L88.001,7.024 C88.354,7.024 88.594,6.736 88.594,6.432 C88.594,6.144 88.354,5.855 88.001,5.855 L84.08,5.855 L84.08,1.917 L88.577,1.917 C89.025,1.917 89.233,1.613 89.233,1.325 C89.233,1.022 89.025,0.702 88.594,0.702 L88.594,0.702 Z M96.338,10.705 L92.032,10.705 L92.032,1.293 C92.032,0.893 91.775,0.637 91.424,0.637 C91.071,0.637 90.8,0.893 90.8,1.293 L90.8,10.929 C90.8,11.521 91.168,11.889 91.856,11.889 L96.338,11.889 C96.737,11.889 96.994,11.617 96.994,11.281 C96.994,10.977 96.754,10.705 96.338,10.705 L96.338,10.705 Z M102.064,0.574 C99.183,0.574 97.358,2.911 97.358,6.512 C97.358,9.905 99.151,12.018 102.016,12.018 C104.897,12.018 106.722,9.665 106.722,6.064 C106.723,2.67 104.914,0.574 102.064,0.574 L102.064,0.574 Z M102.049,10.833 C99.904,10.833 98.655,9.088 98.655,6.576 C98.655,3.615 99.887,1.758 102.032,1.758 C104.225,1.758 105.426,3.503 105.426,6 C105.426,8.961 104.193,10.833 102.049,10.833 L102.049,10.833 Z M112.769,0.574 C109.888,0.574 108.063,2.911 108.063,6.512 C108.063,9.905 109.856,12.018 112.721,12.018 C115.602,12.018 117.427,9.665 117.427,6.064 C117.427,2.67 115.618,0.574 112.769,0.574 L112.769,0.574 Z M112.753,10.833 C110.608,10.833 109.359,9.088 109.359,6.576 C109.359,3.615 110.591,1.758 112.736,1.758 C114.929,1.758 116.13,3.503 116.13,6 C116.13,8.961 114.897,10.833 112.753,10.833 L112.753,10.833 Z M126.418,10.898 C125.986,9.745 125.474,8.545 124.978,7.776 C124.69,7.36 124.37,7.04 124.001,6.8 C125.426,6.303 126.355,5.311 126.355,3.791 C126.355,1.854 125.043,0.574 122.145,0.574 C121.041,0.574 120.289,0.686 119.776,0.846 C119.376,0.974 119.264,1.214 119.264,1.614 L119.264,11.314 C119.264,11.714 119.535,11.954 119.888,11.954 C120.24,11.954 120.512,11.714 120.512,11.314 L120.512,7.136 L121.76,7.136 C122.929,7.136 123.393,7.616 123.969,8.545 C124.369,9.185 124.785,10.113 125.281,11.506 C125.378,11.762 125.553,11.954 125.889,11.954 C126.225,11.954 126.513,11.714 126.513,11.33 C126.514,11.218 126.482,11.057 126.418,10.898 L126.418,10.898 Z M121.952,5.92 L120.512,5.92 L120.512,1.886 C120.96,1.822 121.392,1.758 122.08,1.758 C124.369,1.758 125.09,2.654 125.09,3.839 C125.09,5.488 123.537,5.968 121.952,5.92 L121.952,5.92 Z M121.952,5.92" class="Shape"/>
                </g>
                <g class="background">
                    <path d="M242.134,78.9 C249.792,80.952 258.899,84.347 259.42,88.971 C259.92,93.41 257.911,111.898 257.805,112.871 L243.483,112.653 L248.695,114.049 L248.69,117.672 L241.501,119.627 L236.477,118.542 L243.669,123.833 C242.196,124.246 214.217,132.103 202.801,135.142 C191.131,138.248 179.592,136.719 170.948,134.403 C162.244,132.071 156.765,129.096 156.477,128.94 L30.596,77.091 L33.324,74.976 L1.938,65.346 L30.597,44.48 L61.851,52.855 L64.329,50.933 L231.579,76.595 C231.824,76.635 236.458,77.379 242.134,78.9 L242.134,78.9 Z M242.134,78.9" class="walkway"/>
                    <path d="M136.57,93.313 L123.982,89.94 L114,90.89 L110.676,89.999 L116.908,89.425 L128.32,80.575 L128.371,76.964 L129.192,77.184 L143.825,74.895 L154.988,66.239 L155.05,61.773 L117.224,55.779 L113.751,58.473 L111.578,57.891 L111.361,58.059 L111.393,55.768 L109.577,55.281 L109.595,53.991 L75.55,48.237 L71.335,51.505 L71.321,52.536 L27.799,40.874 L2.001,60.88 L1.938,65.346 L41.196,75.865 L41.135,80.247 L75.488,94.371 L81.194,89.946 L93.782,93.319 L99.238,89.088 L99.252,88.058 L106.308,89.948 L108.318,88.389 L108.305,89.364 L107.483,89.144 L95.329,98.568 L95.267,103.034 L105.934,107.449 L107.425,106.292 L110.917,107.228 L110.892,109.033 L117.902,112.207 L136.507,97.779 L136.57,93.313 Z M136.57,93.313" class="wall"/>
                    <path d="M220.91,75.017 L190.523,66.875 L188.041,68.8 L180.407,67.016 L169.99,75.093 L169.928,79.56 L170.905,79.822 L168.258,81.874 L163.434,80.581 L163.442,80.065 L165.591,78.398 L165.639,74.99 L173.469,69.118 L173.531,64.652 L164.039,63.403 L147.915,75.906 L147.853,80.372 L159.246,83.425 L142.954,96.058 L142.892,100.524 L144.307,100.903 L141.16,103.343 L135.511,101.83 L125.094,109.907 L125.032,114.374 L144.46,119.579 L144.445,120.614 L146.449,121.151 L146.428,122.697 L161.617,126.767 L181.96,110.992 L187.171,112.389 L207.51,96.618 L207.567,92.497 L211.542,89.415 L211.58,86.671 L220.848,79.484 L220.91,75.017 Z M220.91,75.017" class="wall"/>
                </g>
                <g class="ceilings">
                    <path class="unit" d="M155.049,61.773 L143.887,70.429 L129.254,72.718 L127.082,72.136 L128.569,70.983 L73.874,56.328 L77.843,53.249 L71.335,51.506 L75.554,48.234 L109.594,53.991 L108.353,54.954 L111.393,55.768 L107.673,58.652 L109.845,59.234 L111.582,57.887 L113.754,58.469 L117.224,55.779 L155.049,61.773 Z M155.049,61.773" id="5001"/>
                    <path class="unit" d="M75.985,53.786 L72.511,56.479 L125.471,70.67 L106.37,85.482 L47.768,69.78 L44.545,72.28 L2,60.88 L27.799,40.874 L75.985,53.786 Z M75.985,53.786" id="5002"/>
                    <path class="unit" d="M125.719,72.288 L128.382,76.109 L116.974,84.955 L108.354,85.753 L125.719,72.288 Z M125.719,72.288" id="5003"/>
                    <path class="unit" d="M99.3,84.622 L93.843,88.853 L81.256,85.48 L75.549,89.905 L41.197,75.78 L47.644,70.781 L99.3,84.622 Z M99.3,84.622" id="5004"/>
                    <path class="unit" d="M136.569,93.313 L117.963,107.741 L110.961,104.569 L112.698,103.222 L107.486,101.826 L106,102.979 L95.329,98.568 L107.482,89.144 L113.999,90.89 L123.981,89.94 L136.569,93.313 Z M136.569,93.313" id="5005"/>
                    <path class="unit" d="M220.909,75.017 L209.001,84.252 L211.603,84.949 L203.664,91.105 L207.571,92.152 L187.233,107.923 L182.029,106.528 L161.686,122.303 L146.489,118.23 L147.98,117.074 L144.511,116.145 L145.502,115.376 L125.101,109.909 L135.518,101.832 L141.16,103.343 L148.603,97.572 L142.961,96.06 L163.054,80.479 L168.258,81.874 L175.201,76.49 L169.997,75.096 L180.419,67.014 L188.04,68.8 L190.523,66.875 L220.909,75.017 Z M220.909,75.017" id="5006"/>
                    <path class="unit" d="M173.53,64.652 L162.34,73.044 L165.653,73.931 L162.184,76.622 L163.488,76.971 L160.51,79.281 L147.923,75.908 L164.046,63.405 L173.53,64.652 Z M173.53,64.652" id="5007"/>
        </g>
    </g>
</svg>