<?xml version="1.0" encoding="utf-8"?>
<!DOCTYPE svg PUBLIC "-//W3C//DTD SVG 1.1//EN" "http://www.w3.org/Graphics/SVG/1.1/DTD/svg11.dtd">
<svg version="1.1" xmlns="http://www.w3.org/2000/svg" xmlns:xlink="http://www.w3.org/1999/xlink" xml:space="preserve">
<g class="level" id="level3">
        <g class="outline">
            <path d="M258.1,87.4 C258,86.6 257.7,85.8 257.2,85 L257.2,81.9 L251.2,80.3 C248.5,79 245.1,77.8 241,76.7 C236.5,75.5 232.3,74.7 230.1,74.3 L230.2,70.6 L174.9,62.3 L160,59.9 L160,59.8 L138,56.5 L135.9,58.1 L135.9,56.2 L63.1,45.2 L60.7,47.1 L30.2,38.9 L29.4,38.7 L1.6,60.4 L1.5,66.7 L27.7,74.2 L25.3,76.1 L152.6,129.2 C153.5,129.7 159,132.5 167.3,134.8 C172.2,136.1 178.6,137.3 185.7,137.3 C190.2,137.3 195.1,136.8 199.9,135.5 C211.4,132.4 239.8,124.3 241,124 L243.9,123.2 L239.5,119.8 L247.4,117.9 L247.2,113 L254.8,113.1 L256.2,113.1 L256.4,111.8 C256.6,108.5 258.6,91.7 258.1,87.4 L258.1,87.4 L258.1,87.4 Z M258.1,87.4" class="outline"/>
        </g>
        <g class="label">
            <path d="M5.4,5.5 C4,5 3.1,4.6 3.1,3.5 C3.1,2.4 4,1.8 5.1,1.8 C5.8,1.8 6.3,1.9 6.8,2.1 C7,2.1 7.1,2.2 7.3,2.2 C7.6,2.2 7.9,2 7.9,1.6 C7.9,1.4 7.8,1.2 7.4,1 C6.9,0.8 6,0.6 5.3,0.6 C3.1,0.6 1.8,1.9 1.8,3.6 C1.8,5.2 2.9,6 4.5,6.6 C6.6,7.3 7.2,7.9 7.2,9 C7.2,10.1 6.3,10.9 4.9,10.9 C4,10.9 3.2,10.6 2.7,10.2 C2.4,10 2.3,9.9 2,9.9 C1.7,9.9 1.4,10.1 1.4,10.4 C1.4,10.7 1.5,10.9 1.8,11 C2.5,11.5 3.6,12 4.8,12 C7,12 8.4,10.7 8.4,8.9 C8.5,7.2 7.2,6.3 5.4,5.5 L5.4,5.5 L5.4,5.5 Z M14.4,0.6 C11.5,0.6 9.7,2.9 9.7,6.5 C9.7,9.9 11.5,12 14.4,12 C17.3,12 19.1,9.6 19.1,6 C19,2.7 17.2,0.6 14.4,0.6 L14.4,0.6 L14.4,0.6 Z M14.3,10.8 C12.2,10.8 10.9,9.1 10.9,6.5 C10.9,3.5 12.1,1.7 14.3,1.7 C16.5,1.7 17.7,3.4 17.7,5.9 C17.7,9 16.5,10.8 14.3,10.8 L14.3,10.8 L14.3,10.8 Z M26.2,2.1 C25.6,0.9 25.1,0.5 24.5,0.5 C23.9,0.5 23.4,0.9 22.8,2.1 C21.9,3.9 21.2,6.2 20,10.8 L20,11.3 C20,11.7 20.3,11.9 20.6,11.9 C20.9,11.9 21.1,11.7 21.2,11.4 C21.5,10 21.8,8.8 22.1,7.7 L27,7.7 C27.3,8.8 27.6,10 27.9,11.4 C28,11.7 28.2,11.9 28.5,11.9 C28.9,11.9 29.1,11.7 29.1,11.3 C29.1,11.2 29.1,11 29,10.8 C27.8,6.2 27.1,3.9 26.2,2.1 L26.2,2.1 L26.2,2.1 Z M22.4,6.7 C23.1,4.3 23.8,2.7 24.3,1.9 C24.3,1.8 24.4,1.8 24.5,1.8 C24.6,1.8 24.7,1.9 24.7,1.9 C25.2,2.7 25.9,4.2 26.6,6.7 L22.4,6.7 L22.4,6.7 Z M36.5,7.8 C36.2,7.4 35.9,7.1 35.5,6.8 C36.9,6.3 37.9,5.3 37.9,3.8 C37.9,1.9 36.6,0.6 33.7,0.6 C32.6,0.6 31.8,0.7 31.3,0.9 C30.9,1 30.8,1.3 30.8,1.7 L30.8,11.4 C30.8,11.8 31.1,12 31.4,12 C31.8,12 32,11.8 32,11.4 L32,7.1 L33.2,7.1 C34.4,7.1 34.8,7.6 35.4,8.5 C35.8,9.1 36.2,10.1 36.7,11.5 C36.8,11.8 37,11.9 37.3,11.9 C37.6,11.9 37.9,11.7 37.9,11.3 C37.9,11.2 37.9,11 37.8,10.9 C37.5,9.7 37,8.5 36.5,7.8 L36.5,7.8 L36.5,7.8 Z M33.5,5.9 L32,5.9 L32,1.9 C32.4,1.8 32.9,1.8 33.6,1.8 C35.9,1.8 36.6,2.7 36.6,3.9 C36.6,5.5 35.1,6 33.5,5.9 L33.5,5.9 L33.5,5.9 Z M50.6,5.7 L47.6,5.7 C47.2,5.7 47,6 47,6.3 C47,6.6 47.2,6.9 47.6,6.9 L50,6.9 L50,10.5 C49.4,10.7 48.8,10.9 47.8,10.9 C45.6,10.9 44.2,9.4 44.2,6.5 C44.2,3.3 45.7,1.9 47.9,1.9 C48.7,1.9 49.3,2 50,2.3 C50.2,2.4 50.4,2.5 50.6,2.5 C50.9,2.5 51.2,2.3 51.2,1.9 C51.2,1.6 51.1,1.5 50.8,1.3 C50.2,1 49.2,0.7 48.1,0.7 C45.2,0.7 43,2.7 43,6.6 C43,10.1 45,12.1 47.9,12.1 C49.2,12.1 50.1,11.8 50.7,11.5 C51,11.4 51.2,11.1 51.2,10.7 L51.2,6.4 C51.2,5.9 51,5.7 50.6,5.7 L50.6,5.7 L50.6,5.7 Z M59.2,7.8 C58.9,7.4 58.6,7.1 58.2,6.8 C59.6,6.3 60.6,5.3 60.6,3.8 C60.6,1.9 59.3,0.6 56.4,0.6 C55.3,0.6 54.5,0.7 54,0.9 C53.6,1 53.5,1.3 53.5,1.7 L53.5,11.4 C53.5,11.8 53.8,12 54.1,12 C54.5,12 54.7,11.8 54.7,11.4 L54.7,7.1 L56,7.1 C57.2,7.1 57.6,7.6 58.2,8.5 C58.6,9.1 59,10.1 59.5,11.5 C59.6,11.8 59.8,11.9 60.1,11.9 C60.4,11.9 60.7,11.7 60.7,11.3 C60.7,11.2 60.7,11 60.6,10.9 C60.2,9.7 59.7,8.5 59.2,7.8 L59.2,7.8 L59.2,7.8 Z M56.2,5.9 L54.8,5.9 L54.8,1.9 C55.2,1.8 55.7,1.8 56.4,1.8 C58.7,1.8 59.4,2.7 59.4,3.9 C59.3,5.5 57.8,6 56.2,5.9 L56.2,5.9 L56.2,5.9 Z M66.9,0.6 C64,0.6 62.2,2.9 62.2,6.5 C62.2,9.9 64,12 66.9,12 C69.8,12 71.6,9.6 71.6,6 C71.5,2.7 69.7,0.6 66.9,0.6 L66.9,0.6 L66.9,0.6 Z M66.8,10.8 C64.7,10.8 63.4,9.1 63.4,6.5 C63.4,3.5 64.6,1.7 66.8,1.7 C69,1.7 70.2,3.4 70.2,5.9 C70.2,9 69,10.8 66.8,10.8 L66.8,10.8 L66.8,10.8 Z M80.9,0.6 C80.5,0.6 80.3,0.9 80.3,1.3 L80.3,10 C79.5,10.5 78.3,10.8 77.6,10.8 C75.7,10.8 74.6,9.9 74.6,7.8 L74.6,1.3 C74.6,0.9 74.3,0.6 74,0.6 C73.6,0.6 73.4,0.9 73.4,1.3 L73.4,8.1 C73.4,10.4 74.9,12 77.4,12 C79.2,12 80.2,11.5 81.2,11 C81.6,10.8 81.6,10.5 81.6,10.1 L81.6,1.3 C81.5,0.9 81.2,0.6 80.9,0.6 L80.9,0.6 L80.9,0.6 Z M91.6,0.6 C91.2,0.6 91,0.9 91,1.3 L91,9.9 L85.4,1.2 C85.2,0.9 84.9,0.7 84.6,0.7 C84.1,0.7 83.8,1 83.8,1.6 L83.8,11.4 C83.8,11.8 84.1,12 84.4,12 C84.8,12 85,11.8 85,11.4 L85,2.7 L90.5,11.5 C90.7,11.8 91,12 91.3,12 C91.8,12 92.1,11.6 92.1,11.2 L92.1,1.3 C92.2,0.9 91.9,0.6 91.6,0.6 L91.6,0.6 L91.6,0.6 Z M97.3,0.6 C96.7,0.6 95.7,0.6 95.1,0.8 C94.7,0.9 94.5,1.2 94.5,1.6 L94.5,11 C94.5,11.4 94.6,11.7 95.2,11.8 C95.7,11.9 96.4,12 97.4,12 C100.9,12 102.5,9.5 102.5,6.3 C102.5,3 101,0.6 97.3,0.6 L97.3,0.6 L97.3,0.6 Z M97.5,10.8 C96.8,10.8 96.3,10.8 95.8,10.7 L95.8,1.9 C96.3,1.8 96.9,1.8 97.4,1.8 C100.3,1.8 101.4,3.7 101.4,6.2 C101.3,9 100.2,10.8 97.5,10.8 L97.5,10.8 L97.5,10.8 Z M113.6,0.7 L108.9,0.7 C108.2,0.7 107.8,1.1 107.8,1.7 L107.8,11.4 C107.8,11.8 108.1,12 108.4,12 C108.8,12 109,11.8 109,11.4 L109,7 L112.9,7 C113.3,7 113.5,6.7 113.5,6.4 C113.5,6.1 113.3,5.8 112.9,5.8 L109,5.8 L109,1.9 L113.5,1.9 C113.9,1.9 114.2,1.6 114.2,1.3 C114.3,1 114.1,0.7 113.6,0.7 L113.6,0.7 L113.6,0.7 Z M121.4,10.7 L117.1,10.7 L117.1,1.3 C117.1,0.9 116.8,0.6 116.5,0.6 C116.1,0.6 115.9,0.9 115.9,1.3 L115.9,10.9 C115.9,11.5 116.3,11.9 117,11.9 L121.5,11.9 C121.9,11.9 122.2,11.6 122.2,11.3 C122,11 121.8,10.7 121.4,10.7 L121.4,10.7 L121.4,10.7 Z M127.1,0.6 C124.2,0.6 122.4,2.9 122.4,6.5 C122.4,9.9 124.2,12 127.1,12 C130,12 131.8,9.6 131.8,6 C131.8,2.7 129.9,0.6 127.1,0.6 L127.1,0.6 L127.1,0.6 Z M127.1,10.8 C125,10.8 123.7,9.1 123.7,6.5 C123.7,3.5 124.9,1.7 127.1,1.7 C129.3,1.7 130.5,3.4 130.5,5.9 C130.5,9 129.2,10.8 127.1,10.8 L127.1,10.8 L127.1,10.8 Z M137.8,0.6 C134.9,0.6 133.1,2.9 133.1,6.5 C133.1,9.9 134.9,12 137.8,12 C140.7,12 142.5,9.6 142.5,6 C142.5,2.7 140.6,0.6 137.8,0.6 L137.8,0.6 L137.8,0.6 Z M137.8,10.8 C135.7,10.8 134.4,9.1 134.4,6.5 C134.4,3.5 135.6,1.7 137.8,1.7 C140,1.7 141.2,3.4 141.2,5.9 C141.2,9 139.9,10.8 137.8,10.8 L137.8,10.8 L137.8,10.8 Z M151.4,10.9 C151,9.7 150.5,8.5 150,7.8 C149.7,7.4 149.4,7.1 149,6.8 C150.4,6.3 151.4,5.3 151.4,3.8 C151.4,1.9 150.1,0.6 147.2,0.6 C146.1,0.6 145.3,0.7 144.8,0.9 C144.4,1 144.3,1.3 144.3,1.7 L144.3,11.4 C144.3,11.8 144.6,12 144.9,12 C145.3,12 145.5,11.8 145.5,11.4 L145.5,7.1 L146.7,7.1 C147.9,7.1 148.3,7.6 148.9,8.5 C149.3,9.1 149.7,10.1 150.2,11.5 C150.3,11.8 150.5,11.9 150.8,11.9 C151.1,11.9 151.4,11.7 151.4,11.3 C151.5,11.2 151.5,11.1 151.4,10.9 L151.4,10.9 L151.4,10.9 Z M147,5.9 L145.6,5.9 L145.6,1.9 C146,1.8 146.5,1.8 147.2,1.8 C149.5,1.8 150.2,2.7 150.2,3.9 C150.1,5.5 148.6,6 147,5.9 L147,5.9 L147,5.9 Z M147,5.9" class="Shape"/>
        </g>
        <g class="background">
            <path d="M240.7,78.1 C248.1,80.1 256.1,83.2 256.6,87.5 C257.1,91.9 254.9,110.6 254.7,111.6 L240.4,111.4 L245.6,112.8 L245.8,116.7 L238.2,118.5 L233.9,117.3 L240.7,122.5 C239.2,122.9 211,131 199.6,134 C187.9,137.1 176.4,135.6 167.7,133.3 C159,131 153.5,128 153.2,127.8 L28.2,75.7 L30.9,73.6 L3,65.6 L29.9,40.4 L61.2,48.8 L62.1,50.5 L228.3,75.6 C228.6,75.6 234.2,76.4 240.7,78.1 L240.7,78.1 L240.7,78.1 Z M240.7,78.1" class="walkway"/>
            <path d="M144,84.6 L140.4,83.5 L138.2,85.1 L138.2,89.1 L141.8,90 L143.9,88.5 L143.9,84.6 L144,84.6 Z M233.6,77.1 L230.4,79.6 L230.4,79.9 L230.2,79.8 L225.7,83.3 L225.6,87.8 L237.3,90.9 L237.3,93.1 L232.4,91.8 L232.4,90.3 L225.5,88.4 L225.1,88.7 L225.1,88.2 L222.4,87.5 L222.4,86.2 L217.5,84.9 L228.6,76.3 L228.7,71.8 L173.9,63.6 L173.5,63.9 L173.5,63.4 L159,61.1 L158.6,61.4 L158.6,60.9 L138.6,57.9 L134.6,61 L134.7,57.3 L63.6,46.8 L61.1,48.7 L29.8,40.3 L3.1,61.2 L3,65.6 L30.9,73.1 L30.9,75.7 L38.6,78.8 L42.1,76.1 L79.1,86 L77.7,87.1 L77.6,91.6 L98.1,97.1 L96.2,98.6 L96.1,103.1 L108.7,108.3 L109.1,108 L109.1,108.5 L118.7,112.4 L135.6,99.3 L135.7,94.8 L132.1,93.8 L132.3,93.7 L132.3,89.7 L128.7,88.6 L126.5,90.2 L126.5,92.3 L124.8,91.9 L124.4,92.2 L124.4,91.7 L121.4,90.9 L111.2,91.5 L103.1,93.6 L107.6,90.1 L107.6,89.8 L107.8,89.9 L116.2,83.4 L116.2,83.1 L116.4,83.2 L123.1,78 L123.2,73.5 L122,71.6 L124.9,69.4 L125,73 L127.1,76.4 L127.1,78.2 L138.4,81.2 L138.8,80.9 L138.8,81.4 L152,84.9 L152.7,84.4 L152.7,85.1 L155.2,89.2 L154.9,89.4 L154.9,88.9 L148.4,87.2 L144.2,90.5 L144.1,95 L148.3,96.1 L147,97.1 L147,101.1 L150.6,102 L152.7,100.5 L152.7,99.3 L154.3,101.6 L157.3,102.4 L157.7,102.1 L157.7,102.6 L171.2,106.2 L171.6,105.9 L171.6,106.4 L173.3,106.9 L178.1,106.3 L175.7,106.9 L175.7,107.7 L174.5,107.4 L171,108.8 L171,111.5 L169,113 L169,112.1 L165.5,111.2 L162.8,106.1 L150.7,102.8 L149.6,103.7 L149.6,102.8 L145.3,101.6 L142.3,96.7 L124.6,110 L124.5,114.5 L131.8,117.5 L132.7,116.8 L132.7,117.7 L148.3,124.2 L149.3,123.4 L155.8,125.1 L155.8,127.4 C155.9,127.5 158.7,129.1 162.8,130.6 C165.6,131.6 167.8,132.3 169.3,132.7 C170.8,133.1 171.6,133.3 171.7,133.3 L173.1,132.3 L173.1,133.7 C173.7,133.8 182.4,136.1 192.4,135 C201.6,133.9 209.4,130.8 209.8,130.6 L209.9,126.1 L201.7,123.9 L201.7,123.2 L207.9,124.9 L219.1,116.2 L219.1,113.9 L219.6,114 L227.4,113 L227.5,108.5 L226.4,106.7 L226.6,106.8 L227,106.5 L227,107 L234.7,109.1 L234.3,109.2 L234.2,113.7 L234.5,116.6 L239.7,118 L245,116.6 L245.1,113.8 L245.1,111 L254.4,111.1 L255,103 L255,99.9 L255.3,100 L255.5,91.3 L255.5,91 L255.7,91.1 L255.9,87.8 L256,83.3 L233.6,77.1 L233.6,77.1 Z M197.5,102.9 L197.5,106 L191.6,104.4 L192.7,104.3 L192.7,102 L194.9,102.6 L197.8,100.3 L197.8,102.6 L198,102.9 L197.5,102.9 L197.5,102.9 Z M212.5,102.5 L212.4,102.5 L212.5,102.4 L212.5,102.5 L212.5,102.5 Z M219.9,105.2 L219.9,105.2 L220.1,105.2 L219.9,105.2 L219.9,105.2 Z M219.9,105.2" class="wall"/>
        </g>
        <g class="ceilings">
            <path class="unit" d="M255.3,86.6 L255.1,95.3 L237.3,90.5 L241.3,87.4 L225.7,83.2 L230.2,79.7 L255.3,86.6 L255.3,86.6 Z M255.3,86.6" id="4001"/>
            <path class="unit" d="M228.6,71.9 L194.9,98.1 L157.1,88 L152.6,80.6 L173.7,63.7 L228.6,71.9 L228.6,71.9 Z M228.6,71.9" id="4002"/>
            <path class="unit" d="M222.3,86.3 L221.1,87.3 L225,88.3 L212.1,98.3 L210.4,97.8 L198.6,99.3 L197.9,98.1 L215.5,84.4 L222.3,86.3 L222.3,86.3 Z M222.3,86.3" id="4003"/>
            <path class="unit" d="M232.4,90.3 L219.5,100.3 L212.6,98.4 L225.5,88.4 L232.4,90.3 L232.4,90.3 Z M232.4,90.3" id="4004"/>
            <path class="unit" d="M237.8,93.3 L226.1,102.3 L219.6,100.6 L231.3,91.6 L237.8,93.3 L237.8,93.3 Z M237.8,93.3" id="4005"/>
            <path class="unit" d="M247.3,94.6 L245.6,95.9 L254.7,98.3 L254.1,106.4 L240.9,106.2 L226.6,102.4 L238.5,93.2 L239.4,93.4 L240.4,92.6 L247.3,94.6 L247.3,94.6 Z M247.3,94.6" id="4006"/>
            <path class="unit" d="M219.9,104.5 L217.9,104.7 L213.6,103.5 L210.1,106.2 L204.5,104.7 L197.6,102.8 L209.2,101.5 L214.4,102.9 L219.9,104.5 L219.9,104.5 Z M219.9,104.5" id="4007"/>
            <path class="unit" d="M135.6,94.7 L118.7,107.8 L109.1,103.9 L124.7,91.8 L135.6,94.7 L135.6,94.7 Z M135.6,94.7" id="4008"/>
            <path class="unit" d="M225.5,106 L227,108.5 L219.2,109.5 L214,108.1 L213.6,107.5 L210.6,106.7 L213.8,104.2 L218.1,105.4 L221.5,105 L225.5,106 L225.5,106 Z M225.5,106" id="4009"/>
            <path class="unit" d="M200.1,106.7 L193.9,111.5 L175.7,106.6 L188,103.4 L200.1,106.7 L200.1,106.7 Z M200.1,106.7" id="4010"/>
            <path class="unit" d="M244.8,109.2 L244.7,112 L239.4,113.4 L234.2,112 L233.9,109.1 L239.7,107.8 L244.8,109.2 L244.8,109.2 Z M244.8,109.2" id="4011"/>
            <path class="unit" d="M142.1,96.4 L145.1,101.3 L149.4,102.5 L141.5,108.7 L138.5,107.9 L131.8,113.1 L124.5,110.1 L142.1,96.4 L142.1,96.4 Z M142.1,96.4" id="4012"/>
            <path class="unit" d="M208.3,109 L197.1,117.7 L190.2,115.8 L201.4,107.1 L208.3,109 L208.3,109 Z M208.3,109" id="4013"/>
            <path class="unit" d="M218.7,111.7 L207.5,120.4 L197.5,117.7 L208.7,109 L218.7,111.7 L218.7,111.7 Z M218.7,111.7" id="4014"/>
            <path class="unit" d="M162.7,105.8 L165.4,110.9 L168.9,111.8 L157,121 L149.2,118.9 L148.2,119.7 L132.6,113.2 L138.6,108.6 L141.6,109.4 L150.5,102.5 L162.7,105.8 L162.7,105.8 Z M162.7,105.8" id="4015"/>
            <path class="unit" d="M193.1,112.1 L171.5,128.8 L169.1,128.2 C167.6,127.8 165.4,127.1 162.6,126.1 C158.5,124.6 155.7,123 155.6,122.9 L171.7,110.4 L170.8,108.4 L174.3,107 L193.1,112.1 L193.1,112.1 Z M193.1,112.1" id="4016"/>
            <path class="unit" d="M201.4,121.6 L199.2,123.3 L209.6,126.1 C209.2,126.3 201.5,129.4 192.2,130.5 C182.2,131.7 173.4,129.4 172.9,129.2 L187.5,117.8 L201.4,121.6 L201.4,121.6 Z M201.4,121.6" id="4017"/>
            <path class="unit" d="M124.4,91.6 L108.8,103.7 L96.2,98.5 L102.4,93.7 L111.2,91.4 L121.4,90.8 L124.4,91.6 L124.4,91.6 Z M124.4,91.6" id="4018"/>
            <path class="unit" d="M107.6,85.6 L98.4,92.7 L77.6,87.1 L86.8,80 L107.6,85.6 L107.6,85.6 Z M107.6,85.6" id="4019"/>
            <path class="unit" d="M116.3,78.9 L107.9,85.4 L87,79.8 L95.4,73.3 L116.3,78.9 L116.3,78.9 Z M116.3,78.9" id="4020"/>
            <path class="unit" d="M173.4,63.6 L152,80.4 L138.8,76.9 L158.9,61.3 L173.4,63.6 L173.4,63.6 Z M173.4,63.6" id="4021"/>
            <path class="unit" d="M158.4,61.2 L138.3,76.8 L127,73.8 L127.7,73.2 L124.9,68.6 L138.3,58.2 L158.4,61.2 L158.4,61.2 Z M158.4,61.2" id="4022"/>
            <path class="unit" d="M120.4,68.8 L123.2,73.4 L116.5,78.6 L95.7,73 L106.1,64.9 L120.4,68.8 L120.4,68.8 Z M120.4,68.8" id="4023"/>
            <path class="unit" d="M134.4,57.6 L120.3,68.6 L106,64.8 L100.3,69.2 L98.6,68.7 L81.1,82.1 L42.1,71.7 L38.6,74.4 L30.9,71.3 L33.4,69.4 L3,61.2 L29.8,40.4 L61,48.8 L63.5,46.9 L134.4,57.6 L134.4,57.6 Z M134.4,57.6" id="4024"/>
            <path class="unit" d="M192.5,99 L192.6,99.8 L173.2,102.1 L171.5,101.6 L179.4,95.4 L192.5,99 L192.5,99 Z M192.5,99" id="4025"/>
            <path class="unit" d="M179.1,95.4 L171.2,101.6 L157.7,98 L165.6,91.8 L179.1,95.4 L179.1,95.4 Z M179.1,95.4" id="4026"/>
            <path class="unit" d="M165.2,91.7 L157.3,97.9 L154.3,97.1 L151.1,92.4 L155.3,89.1 L165.2,91.7 L165.2,91.7 Z M165.2,91.7" id="4027"/>
            <path class="unit" d="M154.7,88.9 L150.5,92.2 L144,90.5 L148.2,87.2 L154.7,88.9 L154.7,88.9 Z M154.7,88.9" id="4028"/>
            <path class="unit" d="M255.7,83.1 L255.5,86.4 L230.3,79.7 L233.5,77.2 L255.7,83.1 L255.7,83.1 Z M255.7,83.1" id="4029"/>
            <path class="unit" d="M141.9,86 L138.3,85.2 L140.5,83.5 L144,84.6 L141.9,86 Z M141.9,86" id="4030"/>
            <path class="unit" d="M130.2,91 L126.5,90.1 L128.7,88.5 L132.3,89.5 L130.2,91 Z M130.2,91" id="4031"/>
            <path class="unit" d="M150.5,97.8 L146.9,97 L149.1,95.3 L152.6,96.4 L150.5,97.8 Z M150.5,97.8" id="4032"/>
        </g>
    </g>
</svg>