<?xml version="1.0" encoding="utf-8"?>
<!DOCTYPE svg PUBLIC "-//W3C//DTD SVG 1.1//EN" "http://www.w3.org/Graphics/SVG/1.1/DTD/svg11.dtd">
<svg version="1.1" xmlns="http://www.w3.org/2000/svg" xmlns:xlink="http://www.w3.org/1999/xlink" xml:space="preserve">
<g class="level" id="level1">
            <g class="outline">
                <path d="M406.399,55.453 L392.753,51.926 L396.417,48.966 L389.802,46.53 L376.876,41.77 L374.705,40.97 L372.93,42.454 L361.257,52.207 L361.258,52.071 L361.274,48.862 L358.143,48.152 L239.345,21.201 L237.481,20.778 L235.979,21.965 L186.168,61.358 L184.569,62.622 L184.652,64.659 L184.939,71.641 L171.627,82.357 L167.77,81.325 L167.352,78.695 L164.678,78.115 C163.857,77.935 82.391,60.259 78.079,59.317 L76.223,58.911 L74.737,60.094 L1.983,117.958 L0.223,119.358 L0.504,121.588 L1.488,129.384 L1.838,132.156 L4.563,132.781 L245.471,188.093 L247.251,188.502 L248.726,187.425 L407.718,71.295 L409.349,70.104 L409.36,68.084 L409.4,59.341 L409.415,56.229 L406.399,55.453 L406.399,55.453 Z M406.399,55.453" class="outline"/>
            </g>
            <g class="label">
                <path d="M14.218,15.629 C13.865,15.629 13.593,15.885 13.593,16.285 L13.593,26.305 C13.593,26.705 13.849,26.945 14.201,26.945 C14.553,26.945 14.826,26.705 14.826,26.305 L14.826,16.285 C14.827,15.885 14.57,15.629 14.218,15.629 L14.218,15.629 Z M22.875,22.768 C22.587,22.352 22.267,22.032 21.898,21.792 C23.323,21.295 24.252,20.303 24.252,18.783 C24.252,16.846 22.94,15.566 20.042,15.566 C18.938,15.566 18.186,15.678 17.673,15.838 C17.274,15.966 17.161,16.206 17.161,16.606 L17.161,26.306 C17.161,26.706 17.432,26.946 17.785,26.946 C18.137,26.946 18.409,26.706 18.409,26.306 L18.409,22.128 L19.657,22.128 C20.826,22.128 21.29,22.608 21.866,23.537 C22.265,24.177 22.681,25.105 23.178,26.498 C23.276,26.754 23.45,26.946 23.786,26.946 C24.122,26.946 24.41,26.706 24.41,26.322 C24.41,26.21 24.379,26.05 24.314,25.89 C23.884,24.737 23.372,23.537 22.875,22.768 L22.875,22.768 Z M19.85,20.912 L18.411,20.912 L18.411,16.878 C18.859,16.814 19.291,16.75 19.978,16.75 C22.267,16.75 22.989,17.646 22.989,18.831 C22.988,20.479 21.435,20.959 19.85,20.912 L19.85,20.912 Z M29.483,20.527 C28.123,19.999 27.243,19.583 27.243,18.462 C27.243,17.39 28.139,16.765 29.292,16.765 C29.964,16.765 30.524,16.909 30.973,17.069 C31.15,17.117 31.309,17.181 31.486,17.181 C31.774,17.181 32.047,16.941 32.047,16.589 C32.047,16.365 31.95,16.141 31.568,15.981 C31.024,15.757 30.174,15.565 29.422,15.565 C27.245,15.565 25.964,16.893 25.964,18.526 C25.964,20.143 27.068,20.895 28.669,21.519 C30.767,22.335 31.343,22.895 31.343,23.968 C31.343,25.104 30.447,25.857 29.054,25.857 C28.191,25.857 27.373,25.537 26.814,25.137 C26.557,24.961 26.414,24.865 26.172,24.865 C25.868,24.865 25.612,25.105 25.596,25.409 C25.58,25.713 25.742,25.905 25.95,26.049 C26.685,26.546 27.743,27.009 28.991,27.009 C31.183,27.009 32.593,25.713 32.593,23.888 C32.588,22.224 31.356,21.248 29.483,20.527 L29.483,20.527 Z M11.388,15.693 L6.699,15.693 C6.011,15.693 5.641,16.061 5.641,16.653 L5.641,26.305 C5.641,26.705 5.913,26.945 6.266,26.945 C6.619,26.945 6.874,26.705 6.874,26.305 L6.874,22.015 L10.796,22.015 C11.149,22.015 11.388,21.727 11.388,21.423 C11.388,21.135 11.149,20.846 10.796,20.846 L6.874,20.846 L6.874,16.908 L11.372,16.908 C11.82,16.908 12.028,16.604 12.028,16.316 C12.028,16.014 11.82,15.693 11.388,15.693 L11.388,15.693 Z M65.258,15.565 C62.378,15.565 60.552,17.902 60.552,21.503 C60.552,24.896 62.345,27.009 65.211,27.009 C68.092,27.009 69.916,24.656 69.916,21.055 C69.916,17.662 68.107,15.565 65.258,15.565 L65.258,15.565 Z M65.242,25.825 C63.096,25.825 61.848,24.08 61.848,21.568 C61.848,18.607 63.081,16.75 65.225,16.75 C67.418,16.75 68.619,18.495 68.619,20.992 C68.619,23.953 67.387,25.825 65.242,25.825 L65.242,25.825 Z M40.667,15.693 L33.816,15.693 C33.463,15.693 33.223,15.997 33.223,16.301 C33.223,16.605 33.414,16.893 33.816,16.893 L36.569,16.893 L36.569,26.305 C36.569,26.705 36.84,26.945 37.194,26.945 C37.53,26.945 37.8,26.705 37.8,26.305 L37.8,16.893 L40.665,16.893 C41.033,16.893 41.241,16.589 41.241,16.301 C41.244,15.981 41.02,15.693 40.667,15.693 L40.667,15.693 Z M75.963,15.565 C73.082,15.565 71.256,17.902 71.256,21.503 C71.256,24.896 73.049,27.009 75.914,27.009 C78.795,27.009 80.621,24.656 80.621,21.055 C80.621,17.662 78.812,15.565 75.963,15.565 L75.963,15.565 Z M75.947,25.825 C73.801,25.825 72.551,24.08 72.551,21.568 C72.551,18.607 73.783,16.75 75.928,16.75 C78.121,16.75 79.324,18.495 79.324,20.992 C79.324,23.953 78.092,25.825 75.947,25.825 L75.947,25.825 Z M89.611,25.89 C89.178,24.737 88.668,23.537 88.172,22.768 C87.883,22.352 87.563,22.032 87.195,21.792 C88.619,21.295 89.549,20.303 89.549,18.783 C89.549,16.846 88.237,15.566 85.338,15.566 C84.234,15.566 83.484,15.678 82.969,15.838 C82.57,15.966 82.457,16.206 82.457,16.606 L82.457,26.306 C82.457,26.706 82.728,26.946 83.082,26.946 C83.434,26.946 83.705,26.706 83.705,26.306 L83.705,22.128 L84.953,22.128 C86.123,22.128 86.586,22.608 87.162,23.537 C87.562,24.177 87.978,25.105 88.474,26.498 C88.573,26.754 88.747,26.946 89.083,26.946 C89.419,26.946 89.706,26.706 89.706,26.322 C89.707,26.209 89.676,26.049 89.611,25.89 L89.611,25.89 Z M85.146,20.912 L83.705,20.912 L83.705,16.878 C84.154,16.814 84.586,16.75 85.273,16.75 C87.562,16.75 88.283,17.646 88.283,18.831 C88.283,20.479 86.73,20.959 85.146,20.912 L85.146,20.912 Z M59.532,25.697 L55.225,25.697 L55.225,16.285 C55.225,15.885 54.968,15.629 54.618,15.629 C54.264,15.629 53.994,15.885 53.994,16.285 L53.994,25.921 C53.994,26.513 54.362,26.881 55.05,26.881 L59.532,26.881 C59.93,26.881 60.187,26.609 60.187,26.273 C60.188,25.969 59.948,25.697 59.532,25.697 L59.532,25.697 Z M51.788,15.693 L47.098,15.693 C46.41,15.693 46.042,16.061 46.042,16.653 L46.042,26.305 C46.042,26.705 46.313,26.945 46.666,26.945 C47.018,26.945 47.274,26.705 47.274,26.305 L47.274,22.015 L51.195,22.015 C51.548,22.015 51.788,21.727 51.788,21.423 C51.788,21.135 51.548,20.846 51.195,20.846 L47.274,20.846 L47.274,16.908 L51.771,16.908 C52.218,16.908 52.426,16.604 52.426,16.316 C52.427,16.014 52.219,15.693 51.788,15.693 L51.788,15.693 Z M51.788,15.693" class="Shape"/>
                <path d="M391.038,9.81 L392.151,10.175 L394.276,8.504 L394.422,9.055 L394.984,11.104 L396.113,11.474 L395.037,7.945 L397.747,6.007 L396.649,5.647 L395.315,6.628 C395.131,6.761 394.928,6.914 394.706,7.09 C394.664,6.896 394.604,6.652 394.528,6.359 L394.113,4.816 L392.964,4.439 L393.943,7.643 L391.038,9.81 L391.038,9.81 Z M390.689,8.718 L386.094,7.212 L386.93,4.665 L391.07,6.022 L391.357,5.144 L387.217,3.787 L387.969,1.496 L392.389,2.945 L392.678,2.062 L387.269,0.288 L384.817,7.769 L390.4,9.6 L390.689,8.718 L390.689,8.718 Z M375.944,18.753 L378.396,11.271 L377.478,10.969 L375.025,18.451 L375.944,18.753 L375.944,18.753 Z M397.801,12.027 L399.578,6.607 L398.659,6.306 L396.882,11.726 L397.801,12.027 L397.801,12.027 Z M400.254,4.546 L399.336,4.244 L398.989,5.301 L399.908,5.603 L400.254,4.546 L400.254,4.546 Z M377.959,18.738 C378.265,19.379 378.813,19.828 379.605,20.089 C380.235,20.295 380.8,20.312 381.307,20.139 C381.812,19.965 382.23,19.625 382.562,19.119 L381.652,18.691 C381.384,19.033 381.103,19.253 380.805,19.352 C380.51,19.451 380.195,19.445 379.858,19.334 C379.405,19.186 379.08,18.903 378.879,18.487 C378.68,18.072 378.661,17.56 378.822,16.954 L382.865,18.28 C382.903,18.172 382.93,18.091 382.949,18.036 C383.243,17.141 383.242,16.372 382.943,15.728 C382.646,15.084 382.133,14.643 381.41,14.405 C380.662,14.16 379.971,14.213 379.336,14.562 C378.701,14.911 378.233,15.541 377.935,16.454 C377.646,17.336 377.655,18.098 377.959,18.738 L377.959,18.738 Z M379.972,15.24 C380.352,15.052 380.753,15.027 381.175,15.166 C381.641,15.318 381.963,15.619 382.139,16.069 C382.254,16.359 382.258,16.74 382.151,17.209 L379.124,16.217 C379.309,15.754 379.591,15.429 379.972,15.24 L379.972,15.24 Z M370.288,8.611 L369.37,8.31 L369.023,9.367 L369.941,9.668 L370.288,8.611 L370.288,8.611 Z M411.901,38.623 C411.646,38.321 411.363,38.119 411.053,38.018 C410.838,37.948 410.621,37.945 410.404,38.008 C410.184,38.072 409.908,38.262 409.57,38.577 L409.84,37.755 L409.014,37.484 L407.238,42.904 L408.157,43.206 L409.088,40.368 C409.215,39.98 409.383,39.639 409.592,39.346 C409.732,39.155 409.901,39.025 410.099,38.955 C410.298,38.887 410.498,38.887 410.701,38.952 C410.926,39.025 411.129,39.166 411.308,39.372 L411.901,38.623 L411.901,38.623 Z M385.092,21.888 C385.517,22.028 385.922,22.077 386.308,22.041 C386.694,22.002 387.019,21.878 387.287,21.666 C387.554,21.455 387.738,21.195 387.839,20.889 C387.943,20.577 387.954,20.29 387.877,20.032 C387.799,19.772 387.65,19.547 387.43,19.35 C387.209,19.156 386.803,18.866 386.209,18.479 C385.801,18.209 385.556,18.041 385.475,17.978 C385.336,17.861 385.246,17.741 385.204,17.618 C385.16,17.499 385.157,17.379 385.196,17.26 C385.258,17.072 385.402,16.94 385.628,16.859 C385.856,16.779 386.179,16.807 386.601,16.946 C386.957,17.063 387.208,17.232 387.354,17.453 C387.499,17.674 387.544,17.931 387.495,18.223 L388.433,18.395 C388.49,18.026 388.477,17.711 388.39,17.452 C388.306,17.193 388.123,16.949 387.841,16.721 C387.561,16.493 387.206,16.31 386.782,16.17 C386.499,16.077 386.221,16.027 385.952,16.02 C385.681,16.013 385.457,16.039 385.279,16.097 C385.045,16.169 384.837,16.291 384.659,16.461 C384.481,16.631 384.352,16.836 384.274,17.078 C384.187,17.343 384.173,17.607 384.237,17.872 C384.299,18.134 384.44,18.371 384.661,18.58 C384.88,18.79 385.298,19.09 385.916,19.481 C386.376,19.771 386.654,19.977 386.753,20.1 C386.895,20.279 386.931,20.471 386.862,20.679 C386.787,20.91 386.619,21.078 386.358,21.183 C386.096,21.288 385.755,21.271 385.335,21.133 C384.917,20.995 384.622,20.792 384.453,20.522 C384.284,20.252 384.232,19.925 384.302,19.545 L383.346,19.389 C383.259,19.997 383.353,20.509 383.626,20.922 C383.898,21.334 384.387,21.656 385.092,21.888 L385.092,21.888 Z M406.429,14.936 C406.633,15.003 406.873,15.052 407.151,15.082 L407.285,14.227 C407.109,14.196 406.973,14.165 406.87,14.131 C406.734,14.086 406.637,14.029 406.577,13.961 C406.517,13.893 406.486,13.816 406.477,13.731 C406.469,13.646 406.507,13.472 406.593,13.21 L407.632,10.041 L408.557,10.344 L408.791,9.63 L407.866,9.326 L408.487,7.432 L407.392,7.684 L406.953,9.026 L406.279,8.805 L406.045,9.52 L406.719,9.741 L405.698,12.86 C405.516,13.411 405.435,13.784 405.455,13.98 C405.474,14.177 405.558,14.358 405.707,14.524 C405.854,14.688 406.096,14.827 406.429,14.936 L406.429,14.936 Z M408.47,14.854 C408.78,15.494 409.312,15.938 410.072,16.187 C410.546,16.342 411.016,16.375 411.49,16.285 C411.963,16.195 412.369,15.984 412.709,15.653 C413.05,15.322 413.334,14.807 413.563,14.11 C413.844,13.25 413.831,12.497 413.517,11.853 C413.205,11.21 412.675,10.766 411.93,10.522 C411.26,10.302 410.625,10.317 410.029,10.565 C409.312,10.866 408.79,11.518 408.46,12.521 C408.157,13.437 408.162,14.214 408.47,14.854 L408.47,14.854 Z M409.402,12.83 C409.63,12.136 409.951,11.667 410.366,11.423 C410.782,11.178 411.22,11.131 411.678,11.281 C412.131,11.43 412.453,11.727 412.644,12.173 C412.835,12.618 412.823,13.175 412.601,13.846 C412.37,14.557 412.043,15.036 411.627,15.284 C411.21,15.531 410.773,15.58 410.317,15.431 C409.858,15.28 409.533,14.983 409.342,14.538 C409.156,14.094 409.175,13.524 409.402,12.83 L409.402,12.83 Z M412.142,26.518 C411.902,27.253 411.834,27.969 411.947,28.664 C412.058,29.359 412.363,29.963 412.859,30.475 C413.357,30.988 413.972,31.364 414.709,31.605 C415.253,31.784 415.816,31.86 416.397,31.833 C416.977,31.808 417.576,31.681 418.188,31.452 L419.099,28.676 L415.928,27.642 L415.64,28.52 L417.839,29.241 L417.382,30.635 C417.111,30.753 416.742,30.828 416.28,30.859 C415.818,30.891 415.371,30.836 414.943,30.695 C414.45,30.534 414.018,30.271 413.652,29.911 C413.284,29.549 413.058,29.105 412.976,28.581 C412.893,28.057 412.961,27.461 413.18,26.795 C413.359,26.254 413.618,25.782 413.96,25.382 C414.159,25.151 414.398,24.955 414.674,24.798 C414.95,24.639 415.277,24.545 415.653,24.516 C416.028,24.487 416.441,24.545 416.894,24.694 C417.272,24.818 417.592,24.996 417.861,25.228 C418.128,25.461 418.307,25.713 418.404,25.986 C418.5,26.259 418.54,26.604 418.527,27.021 L419.501,27.07 C419.537,26.524 419.482,26.054 419.336,25.659 C419.19,25.264 418.928,24.908 418.549,24.59 C418.169,24.272 417.709,24.024 417.166,23.846 C416.422,23.602 415.714,23.539 415.041,23.658 C414.369,23.776 413.777,24.101 413.268,24.633 C412.755,25.16 412.38,25.79 412.142,26.518 L412.142,26.518 Z M400.91,7.836 L399.887,10.954 C399.707,11.505 399.625,11.879 399.645,12.075 C399.665,12.271 399.749,12.453 399.896,12.619 C400.045,12.784 400.288,12.922 400.622,13.031 C400.826,13.097 401.064,13.146 401.342,13.177 L401.476,12.323 C401.301,12.292 401.164,12.261 401.062,12.226 C400.925,12.182 400.829,12.124 400.769,12.057 C400.709,11.989 400.678,11.911 400.669,11.827 C400.662,11.741 400.699,11.567 400.785,11.306 L401.825,8.136 L402.749,8.439 L402.982,7.725 L402.057,7.422 L402.678,5.528 L401.584,5.78 L401.145,7.122 L400.471,6.901 L400.237,7.616 L400.91,7.836 L400.91,7.836 Z M403.26,27.709 L404.234,24.744 C404.373,24.318 404.534,24.002 404.714,23.794 C404.896,23.586 405.129,23.451 405.414,23.389 C405.701,23.327 405.98,23.339 406.252,23.428 C406.616,23.547 406.863,23.744 406.994,24.02 C407.125,24.293 407.114,24.661 406.964,25.121 L405.838,28.556 L406.756,28.858 L407.882,25.422 C408.057,24.892 408.125,24.465 408.09,24.145 C408.053,23.824 407.913,23.537 407.669,23.281 C407.425,23.026 407.102,22.832 406.701,22.701 C406.047,22.486 405.425,22.557 404.833,22.914 L405.713,20.228 L404.794,19.927 L402.341,27.409 L403.26,27.709 L403.26,27.709 Z M397.12,25.696 L398.039,25.998 L399.816,20.577 L398.896,20.276 L397.12,25.696 L397.12,25.696 Z M400.492,18.516 L399.573,18.214 L399.225,19.271 L400.146,19.573 L400.492,18.516 L400.492,18.516 Z M402.918,19.497 L401.824,19.749 L401.384,21.092 L400.71,20.87 L400.476,21.585 L401.151,21.806 L400.129,24.924 C399.948,25.476 399.867,25.85 399.885,26.045 C399.906,26.242 399.989,26.423 400.137,26.589 C400.286,26.754 400.529,26.893 400.863,27.001 C401.066,27.068 401.305,27.117 401.584,27.147 L401.717,26.292 C401.542,26.261 401.405,26.23 401.303,26.196 C401.166,26.151 401.07,26.093 401.01,26.026 C400.951,25.959 400.918,25.88 400.91,25.796 C400.902,25.712 400.941,25.537 401.027,25.275 L402.066,22.106 L402.99,22.409 L403.223,21.694 L402.299,21.391 L402.918,19.497 L402.918,19.497 Z M433.48,32.301 C433.183,31.656 432.672,31.216 431.947,30.978 C431.199,30.733 430.508,30.786 429.874,31.134 C429.239,31.484 428.77,32.114 428.473,33.026 C428.184,33.908 428.193,34.669 428.495,35.309 C428.801,35.951 429.349,36.4 430.141,36.661 C430.771,36.867 431.337,36.884 431.843,36.71 C432.349,36.537 432.767,36.197 433.098,35.691 L432.187,35.262 C431.921,35.605 431.639,35.824 431.343,35.924 C431.047,36.023 430.731,36.017 430.394,35.906 C429.942,35.758 429.616,35.475 429.416,35.059 C429.218,34.644 429.198,34.132 429.359,33.526 L433.402,34.851 C433.44,34.744 433.467,34.663 433.487,34.608 C433.781,33.713 433.779,32.944 433.48,32.301 L433.48,32.301 Z M432.686,33.78 L429.66,32.787 C429.847,32.325 430.129,31.999 430.51,31.811 C430.891,31.623 431.291,31.597 431.713,31.736 C432.179,31.889 432.5,32.19 432.677,32.64 C432.79,32.931 432.794,33.311 432.686,33.78 L432.686,33.78 Z M394.356,19.955 C394.691,19.783 395.047,19.761 395.429,19.886 C395.64,19.955 395.807,20.064 395.932,20.214 C396.056,20.364 396.121,20.529 396.127,20.711 C396.134,20.893 396.076,21.166 395.956,21.533 L394.836,24.948 L395.75,25.248 L396.971,21.527 C397.174,20.908 397.18,20.401 396.99,20.009 C396.799,19.616 396.432,19.331 395.896,19.155 C395.208,18.929 394.545,19.063 393.91,19.555 C393.903,19.221 393.799,18.928 393.596,18.677 C393.394,18.426 393.092,18.235 392.692,18.104 C392.332,17.985 391.983,17.961 391.648,18.03 C391.311,18.099 391.015,18.238 390.758,18.448 L391.008,17.687 L390.186,17.417 L388.41,22.838 L389.328,23.139 L390.25,20.327 C390.412,19.834 390.586,19.473 390.771,19.243 C390.957,19.013 391.18,18.866 391.445,18.803 C391.71,18.739 391.969,18.749 392.228,18.833 C392.57,18.945 392.781,19.128 392.864,19.381 C392.945,19.634 392.921,19.965 392.787,20.373 L391.633,23.894 L392.551,24.196 L393.584,21.047 C393.763,20.489 394.021,20.125 394.356,19.955 L394.356,19.955 Z M388.052,30.475 C387.304,30.23 386.614,30.283 385.979,30.632 C385.344,30.982 384.876,31.611 384.578,32.524 C384.29,33.405 384.298,34.167 384.6,34.807 C384.906,35.448 385.454,35.898 386.246,36.159 C386.875,36.365 387.442,36.381 387.948,36.208 C388.453,36.034 388.872,35.694 389.203,35.188 L388.293,34.76 C388.025,35.102 387.744,35.322 387.447,35.421 C387.152,35.52 386.836,35.514 386.498,35.404 C386.045,35.256 385.72,34.972 385.521,34.557 C385.322,34.142 385.301,33.63 385.463,33.023 L389.505,34.349 C389.544,34.241 389.572,34.16 389.59,34.106 C389.883,33.21 389.882,32.441 389.583,31.797 C389.289,31.154 388.777,30.713 388.052,30.475 L388.052,30.475 Z M388.789,33.277 L385.763,32.285 C385.951,31.822 386.233,31.497 386.614,31.308 C386.994,31.12 387.393,31.095 387.817,31.234 C388.283,31.386 388.603,31.687 388.781,32.137 C388.895,32.428 388.898,32.809 388.789,33.277 L388.789,33.277 Z M382.178,33.619 C381.865,33.762 381.527,33.773 381.166,33.655 C380.717,33.508 380.406,33.222 380.234,32.801 C380.064,32.379 380.097,31.804 380.338,31.076 C380.573,30.358 380.889,29.881 381.287,29.643 C381.684,29.407 382.115,29.364 382.578,29.515 C382.885,29.616 383.116,29.793 383.27,30.048 C383.426,30.303 383.488,30.625 383.454,31.018 L384.392,31.172 C384.466,30.59 384.367,30.089 384.088,29.668 C383.812,29.248 383.379,28.94 382.79,28.748 C382.324,28.596 381.857,28.563 381.389,28.653 C380.921,28.742 380.517,28.974 380.18,29.35 C379.841,29.725 379.576,30.205 379.385,30.79 C379.088,31.695 379.085,32.464 379.378,33.097 C379.669,33.73 380.186,34.167 380.928,34.411 C381.52,34.604 382.077,34.593 382.599,34.374 C383.121,34.154 383.535,33.75 383.837,33.16 L382.972,32.746 C382.756,33.188 382.491,33.477 382.178,33.619 L382.178,33.619 Z M419.996,40.949 C419.248,40.704 418.557,40.757 417.922,41.105 C417.287,41.455 416.819,42.085 416.52,42.998 C416.233,43.879 416.241,44.641 416.544,45.281 C416.848,45.921 417.398,46.372 418.19,46.632 C418.82,46.838 419.385,46.855 419.892,46.682 C420.397,46.508 420.816,46.168 421.147,45.662 L420.237,45.234 C419.969,45.576 419.688,45.796 419.392,45.895 C419.095,45.994 418.78,45.988 418.443,45.877 C417.99,45.729 417.665,45.446 417.464,45.031 C417.267,44.615 417.246,44.104 417.407,43.497 L421.45,44.823 C421.488,44.715 421.516,44.634 421.534,44.58 C421.828,43.684 421.827,42.915 421.528,42.271 C421.232,41.629 420.721,41.188 419.996,40.949 L419.996,40.949 Z M420.733,43.752 L417.706,42.76 C417.893,42.297 418.176,41.972 418.556,41.783 C418.936,41.594 419.337,41.57 419.759,41.709 C420.225,41.861 420.547,42.162 420.723,42.612 C420.838,42.902 420.842,43.282 420.733,43.752 L420.733,43.752 Z M378.153,27.41 C377.899,27.207 377.542,27.029 377.078,26.877 C376.613,26.725 376.182,26.654 375.785,26.665 C375.389,26.677 375.059,26.77 374.795,26.945 C374.53,27.12 374.295,27.386 374.087,27.744 L374.945,28.162 C375.17,27.809 375.41,27.592 375.666,27.508 C375.921,27.424 376.265,27.452 376.696,27.594 C377.16,27.746 377.473,27.965 377.639,28.248 C377.763,28.459 377.763,28.751 377.64,29.125 C377.629,29.159 377.601,29.238 377.557,29.363 C377.166,29.371 376.584,29.297 375.816,29.142 C375.436,29.067 375.15,29.023 374.954,29.012 C374.685,28.999 374.433,29.028 374.195,29.096 C373.955,29.165 373.739,29.289 373.547,29.468 C373.354,29.649 373.214,29.871 373.127,30.136 C372.979,30.589 373.017,31.013 373.241,31.409 C373.465,31.805 373.876,32.1 374.47,32.296 C374.83,32.414 375.187,32.465 375.541,32.449 C375.895,32.432 376.289,32.336 376.725,32.159 C376.667,32.423 376.657,32.665 376.689,32.888 L377.65,33.202 C377.6,32.956 377.594,32.714 377.629,32.475 C377.664,32.236 377.821,31.689 378.102,30.834 L378.503,29.609 C378.637,29.201 378.715,28.914 378.735,28.748 C378.762,28.477 378.736,28.238 378.654,28.029 C378.574,27.821 378.406,27.614 378.153,27.41 L378.153,27.41 Z M377.212,30.42 C377.079,30.825 376.929,31.114 376.763,31.29 C376.546,31.516 376.274,31.661 375.949,31.727 C375.621,31.79 375.281,31.765 374.928,31.649 C374.573,31.532 374.327,31.362 374.196,31.137 C374.064,30.913 374.039,30.678 374.119,30.434 C374.172,30.274 374.262,30.143 374.39,30.038 C374.518,29.935 374.671,29.875 374.851,29.859 C375.031,29.841 375.318,29.869 375.711,29.937 C376.409,30.061 376.948,30.109 377.326,30.083 L377.212,30.42 L377.212,30.42 Z M401.075,32.598 L397.576,37.216 C397.222,37.685 396.959,38.041 396.785,38.285 C396.791,38.015 396.793,37.606 396.791,37.06 L396.757,31.181 L395.267,30.693 L392.815,38.175 L393.768,38.487 L395.858,32.118 L395.932,39.196 L396.827,39.489 L401.055,33.94 L399,40.202 L399.954,40.515 L402.407,33.034 L401.075,32.598 L401.075,32.598 Z M406.616,36.744 C406.362,36.54 406.005,36.361 405.541,36.21 C405.076,36.058 404.645,35.987 404.248,35.998 C403.852,36.01 403.523,36.103 403.258,36.278 C402.994,36.453 402.758,36.719 402.551,37.078 L403.408,37.494 C403.633,37.142 403.873,36.925 404.129,36.841 C404.384,36.757 404.729,36.785 405.16,36.928 C405.623,37.079 405.937,37.298 406.103,37.581 C406.226,37.792 406.226,38.084 406.103,38.458 C406.092,38.492 406.065,38.571 406.021,38.696 C405.629,38.704 405.047,38.63 404.279,38.475 C403.9,38.4 403.613,38.356 403.417,38.345 C403.15,38.333 402.896,38.361 402.658,38.429 C402.418,38.498 402.202,38.622 402.01,38.802 C401.818,38.982 401.678,39.204 401.59,39.47 C401.443,39.922 401.481,40.346 401.704,40.742 C401.929,41.138 402.339,41.433 402.933,41.629 C403.293,41.747 403.651,41.798 404.004,41.782 C404.358,41.766 404.752,41.669 405.189,41.492 C405.13,41.756 405.12,41.999 405.153,42.221 L406.113,42.535 C406.065,42.29 406.057,42.047 406.092,41.808 C406.127,41.569 406.284,41.022 406.566,40.167 L406.966,38.942 C407.1,38.534 407.178,38.247 407.198,38.08 C407.225,37.81 407.199,37.571 407.117,37.361 C407.037,37.154 406.869,36.947 406.616,36.744 L406.616,36.744 Z M405.675,39.753 C405.542,40.158 405.392,40.447 405.226,40.623 C405.009,40.85 404.738,40.994 404.412,41.059 C404.085,41.123 403.744,41.098 403.391,40.983 C403.036,40.866 402.79,40.695 402.66,40.47 C402.528,40.246 402.502,40.012 402.582,39.767 C402.635,39.607 402.725,39.475 402.853,39.371 C402.981,39.268 403.134,39.209 403.315,39.192 C403.494,39.174 403.781,39.201 404.174,39.27 C404.872,39.394 405.411,39.442 405.789,39.416 L405.675,39.753 L405.675,39.753 Z M416.791,40.034 L415.603,39.644 L412.706,41.136 L414.105,36.869 L413.185,36.568 L410.733,44.049 L411.651,44.351 L412.356,42.202 L413.208,41.792 L414.091,45.151 L415.225,45.522 L414.063,41.366 L416.791,40.034 L416.791,40.034 Z M373.602,17.984 L376.055,10.502 L375.142,10.203 L374.262,12.887 C374.175,12.614 374.027,12.366 373.815,12.145 C373.606,11.923 373.336,11.759 373.01,11.652 C372.565,11.506 372.123,11.492 371.686,11.608 C371.249,11.724 370.868,11.973 370.541,12.355 C370.217,12.736 369.966,13.198 369.788,13.739 C369.605,14.294 369.545,14.817 369.603,15.309 C369.662,15.801 369.833,16.226 370.119,16.582 C370.404,16.939 370.762,17.188 371.193,17.33 C371.86,17.549 372.454,17.446 372.972,17.021 L372.748,17.705 L373.602,17.984 L373.602,17.984 Z M372.713,16.446 C372.324,16.682 371.93,16.735 371.527,16.603 C371.13,16.472 370.839,16.188 370.661,15.748 C370.48,15.309 370.505,14.742 370.732,14.048 C370.966,13.33 371.277,12.85 371.66,12.606 C372.043,12.362 372.439,12.307 372.848,12.442 C373.267,12.579 373.561,12.868 373.734,13.308 C373.907,13.749 373.871,14.34 373.628,15.082 C373.405,15.755 373.101,16.21 372.713,16.446 L372.713,16.446 Z M422.908,34.152 L423.868,34.466 C423.82,34.221 423.814,33.979 423.848,33.739 C423.883,33.501 424.04,32.954 424.322,32.099 L424.722,30.874 C424.857,30.465 424.933,30.178 424.954,30.012 C424.981,29.742 424.955,29.502 424.873,29.293 C424.791,29.082 424.623,28.876 424.37,28.673 C424.116,28.469 423.758,28.291 423.295,28.139 C422.83,27.987 422.399,27.916 422.002,27.927 C421.607,27.94 421.277,28.032 421.012,28.207 C420.747,28.383 420.512,28.648 420.304,29.007 L421.162,29.424 C421.387,29.071 421.627,28.854 421.883,28.77 C422.138,28.686 422.482,28.715 422.913,28.857 C423.376,29.008 423.691,29.227 423.857,29.51 C423.981,29.721 423.981,30.013 423.858,30.387 C423.846,30.421 423.819,30.5 423.775,30.625 C423.383,30.633 422.801,30.559 422.032,30.404 C421.654,30.329 421.366,30.285 421.171,30.274 C420.903,30.262 420.65,30.291 420.412,30.359 C420.172,30.427 419.956,30.551 419.764,30.731 C419.572,30.911 419.431,31.133 419.344,31.399 C419.197,31.851 419.235,32.275 419.457,32.671 C419.683,33.067 420.092,33.362 420.686,33.558 C421.046,33.676 421.405,33.728 421.757,33.711 C422.111,33.694 422.506,33.598 422.942,33.421 C422.888,33.688 422.876,33.931 422.908,34.152 L422.908,34.152 Z M422.166,32.99 C421.838,33.054 421.498,33.029 421.145,32.913 C420.789,32.796 420.543,32.625 420.413,32.4 C420.281,32.176 420.256,31.941 420.336,31.697 C420.389,31.537 420.48,31.405 420.607,31.301 C420.736,31.198 420.888,31.139 421.068,31.122 C421.248,31.105 421.535,31.132 421.928,31.2 C422.626,31.324 423.164,31.372 423.543,31.346 L423.433,31.683 C423.3,32.088 423.151,32.378 422.984,32.553 C422.764,32.78 422.491,32.926 422.166,32.99 L422.166,32.99 Z M427.627,30.487 L428.551,30.791 L428.785,30.076 L427.861,29.773 L428.481,27.879 L427.386,28.131 L426.947,29.473 L426.273,29.252 L426.039,29.966 L426.713,30.188 L425.692,33.306 C425.509,33.858 425.428,34.231 425.448,34.427 C425.468,34.624 425.551,34.805 425.7,34.97 C425.847,35.136 426.091,35.274 426.424,35.383 C426.628,35.45 426.868,35.498 427.145,35.529 L427.28,34.674 C427.104,34.643 426.968,34.611 426.866,34.577 C426.728,34.532 426.632,34.475 426.573,34.408 C426.512,34.34 426.481,34.262 426.472,34.178 C426.464,34.092 426.502,33.918 426.588,33.657 L427.627,30.487 L427.627,30.487 Z M360.637,13.594 C360.992,13.619 361.306,13.585 361.577,13.493 C361.848,13.401 362.107,13.228 362.353,12.976 C362.599,12.723 362.782,12.422 362.896,12.072 C363.039,11.636 363.041,11.218 362.903,10.819 C362.763,10.42 362.491,10.079 362.083,9.798 C362.489,9.738 362.826,9.597 363.092,9.371 C363.361,9.145 363.544,8.873 363.65,8.553 C363.762,8.209 363.773,7.849 363.68,7.469 C363.587,7.091 363.393,6.769 363.097,6.504 C362.801,6.239 362.368,6.013 361.796,5.825 L358.989,4.905 L356.535,12.387 L359.389,13.323 C359.865,13.48 360.28,13.57 360.637,13.594 L360.637,13.594 Z M359.689,6.114 L361.184,6.604 C361.721,6.781 362.089,6.939 362.288,7.082 C362.485,7.225 362.614,7.41 362.671,7.637 C362.728,7.866 362.716,8.104 362.634,8.352 C362.548,8.614 362.414,8.811 362.23,8.943 C362.044,9.075 361.815,9.136 361.539,9.129 C361.33,9.125 361.006,9.05 360.567,8.906 L358.949,8.376 L359.689,6.114 L359.689,6.114 Z M358.658,9.258 L360.387,9.825 C360.865,9.981 361.214,10.142 361.442,10.308 C361.668,10.475 361.819,10.685 361.894,10.937 C361.969,11.19 361.96,11.457 361.87,11.735 C361.793,11.973 361.675,12.168 361.516,12.317 C361.359,12.466 361.186,12.564 361.002,12.609 C360.816,12.654 360.606,12.66 360.363,12.626 C360.226,12.607 359.998,12.546 359.676,12.441 L357.814,11.83 L358.658,9.258 L358.658,9.258 Z M363.906,25.022 L363.018,24.505 C362.803,24.871 362.571,25.18 362.32,25.429 L361.539,23.279 C362.646,23.085 363.316,22.633 363.55,21.921 C363.696,21.483 363.654,21.053 363.432,20.633 C363.21,20.213 362.844,19.92 362.333,19.753 C361.799,19.577 361.302,19.598 360.84,19.815 C360.38,20.031 360.075,20.364 359.928,20.813 C359.856,21.038 359.834,21.289 359.867,21.568 C359.899,21.846 360.021,22.234 360.232,22.733 C359.545,22.821 358.994,23.003 358.574,23.278 C358.154,23.552 357.869,23.922 357.717,24.384 C357.547,24.905 357.574,25.436 357.8,25.977 C358.078,26.641 358.602,27.099 359.367,27.35 C359.782,27.486 360.197,27.529 360.608,27.477 C361.021,27.426 361.433,27.282 361.846,27.044 C362.088,27.64 362.356,28.117 362.649,28.477 L363.504,27.95 C363.17,27.498 362.906,26.987 362.712,26.419 C363.131,26.088 363.529,25.622 363.906,25.022 L363.906,25.022 Z M360.901,21.035 C360.976,20.804 361.123,20.635 361.339,20.529 C361.558,20.424 361.79,20.412 362.038,20.493 C362.28,20.572 362.455,20.72 362.562,20.933 C362.67,21.148 362.684,21.382 362.6,21.638 C362.531,21.853 362.407,22.029 362.233,22.167 C362.056,22.305 361.732,22.427 361.255,22.53 L361.002,21.922 C360.93,21.74 360.886,21.575 360.867,21.429 C360.854,21.282 360.863,21.151 360.901,21.035 L360.901,21.035 Z M360.583,26.563 C360.232,26.638 359.919,26.631 359.644,26.541 C359.203,26.396 358.915,26.121 358.781,25.715 C358.644,25.31 358.629,24.955 358.726,24.653 C358.807,24.405 358.976,24.182 359.235,23.985 C359.49,23.789 359.917,23.624 360.509,23.491 L361.508,26.131 C361.242,26.344 360.934,26.488 360.583,26.563 L360.583,26.563 Z M425.246,40.71 L424.152,40.961 L423.712,42.304 L423.038,42.083 L422.804,42.798 L423.478,43.019 L422.457,46.137 C422.276,46.688 422.195,47.062 422.214,47.258 C422.234,47.455 422.318,47.636 422.465,47.801 C422.614,47.967 422.857,48.105 423.191,48.214 C423.393,48.281 423.633,48.329 423.912,48.36 L424.045,47.506 C423.87,47.475 423.733,47.443 423.631,47.409 C423.494,47.364 423.397,47.308 423.338,47.24 C423.279,47.172 423.246,47.094 423.238,47.01 C423.229,46.924 423.268,46.751 423.354,46.489 L424.393,43.32 L425.318,43.623 L425.551,42.908 L424.627,42.605 L425.246,40.71 L425.246,40.71 Z M368.086,10.365 C367.83,10.062 367.548,9.861 367.238,9.76 C367.023,9.689 366.806,9.686 366.589,9.75 C366.37,9.813 366.093,10.003 365.754,10.318 L366.025,9.497 L365.2,9.226 L363.423,14.647 L364.342,14.948 L365.273,12.11 C365.4,11.722 365.568,11.381 365.777,11.089 C365.917,10.898 366.086,10.767 366.285,10.698 C366.484,10.629 366.683,10.629 366.885,10.694 C367.111,10.768 367.313,10.908 367.494,11.114 L368.086,10.365 L368.086,10.365 Z M370.676,22.63 L369.688,22.306 L367.234,29.787 L371.91,31.32 L372.199,30.437 L368.512,29.229 L370.676,22.63 L370.676,22.63 Z M369.612,10.674 L368.693,10.372 L366.916,15.793 L367.835,16.094 L369.612,10.674 L369.612,10.674 Z M369.612,10.674" class="Shape"/>
            </g>
            <g class="background">
                <path d="M287.84,132.892 L281.389,138.158 L250.311,130.57 L195.191,172.343 L181.529,169.688 L205.897,150.049 L187.433,144.879 L200.565,133.361 L226.264,138.017 L256.569,114.204 L242.681,110.183 L226.636,106.455 L210.216,102.842 L179.038,95.682 L162.374,91.955 L164.952,89.925 C166.519,90.271 167.473,90.48 167.655,90.519 C168.281,90.025 178.107,82.167 190.3,72.415 L205.202,75.837 L219.829,79.341 L221.005,79.45 L235.424,82.889 L236.747,83.053 L251.382,86.475 L252.602,86.674 L266.772,90.005 L268.006,90.199 L285.401,94.178 L308.52,99.87 L375.741,45.544 L388.663,50.304 L377.227,59.543 L359.655,73.9 L355.544,77.192 L341.131,88.966 L334.598,94.27 L305.247,118.331 L292.6,128.677 L314.534,134.416 L307.143,139.378 L287.84,132.892 L287.84,132.892 Z M287.84,132.892" class="walkway"/>
                <path d="M206.642,141.864 L194.746,139.065 L200.678,134.458 L209.172,136.361 L225.354,140.056 L257.706,114.357 L257.316,106.017 L241.418,102.4 L225.293,98.73 L209.009,95.011 L177.759,87.91 L163.961,84.772 L163.834,82.022 L77.23,63.223 L4.476,121.088 L4.868,129.424 L90.221,149.056 L181.456,170.202 L207.03,150.2 L206.642,141.864 L206.642,141.864 Z M234.729,83.296 L235.723,83.725 L250.625,86.938 L251.588,87.335 L266.026,90.458 L267.126,90.757 L284.465,94.779 L308.671,100.206 L324.727,87.152 L326.004,86.357 L340.071,74.681 L341.194,73.906 L357.647,60.39 L357.258,52.053 L333.699,46.708 L332.733,46.396 L301.905,39.499 L285.641,35.809 L269.865,32.227 L268.886,31.951 L254.072,28.645 L238.462,25.102 L188.651,64.495 L187.904,64.999 L188.293,73.336 L234.729,83.296 L234.729,83.296 Z M405.398,59.326 L376.001,51.727 L358.43,66.083 L354.378,69.39 L339.963,81.165 L333.468,86.475 L304.03,110.515 L291.375,120.86 L291.632,126.334 L286.615,125.073 L280.915,129.832 L249.088,122.749 L193.968,164.522 L194.36,172.859 L245.777,184.741 L294.813,148.729 L308.318,138.768 L308.069,133.459 L313.703,134.933 L326.708,125.428 L335.03,119.351 L336.166,118.576 L344.354,112.651 L366.295,96.508 L381.389,85.487 L382.212,84.921 L391.653,77.991 L405.792,67.665 L405.398,59.326 L405.398,59.326 Z M405.398,59.326" class="wall"/>
            </g>
            <g class="ceilings">
                <path class="unit" d="M201.89,67.829 L252.254,28.17 L237.907,24.882 L188.099,64.274 L188.752,64.444 L201.89,67.829 Z M201.89,67.829" id="2001"/>
                <path class="unit" d="M299.655,73.246 L283.521,86.221 L307.726,91.649 L323.935,78.63 L300.29,72.742 L299.655,73.246 Z M299.655,73.246" id="2002"/>
                <path class="unit" d="M375.446,51.504 L374.977,51.893 L363.41,61.383 L391.73,68.738 L404.847,59.105 L375.446,51.504 Z M375.446,51.504" id="2003"/>
                <path class="unit" d="M161.604,84.755 L129.505,110.038 L143.286,113.225 L176.214,87.418 L162.213,84.275 L161.604,84.755 Z M161.604,84.755" id="2004"/>
                <path class="unit" d="M159.838,116.999 L192.244,91.162 L177.265,87.643 L176.651,88.127 L144.518,113.543 L159.838,116.999 Z M159.838,116.999" id="2005"/>
                <path class="unit" d="M192.674,91.882 L160.883,117.066 L175.862,120.59 L208.454,94.792 L193.279,91.396 L192.674,91.882 Z M192.674,91.882" id="2006"/>
                <path class="unit" d="M126.577,110.711 L163.276,81.805 L76.676,63.004 L3.92,120.866 L99.271,142.795 L137.017,113.106 L126.577,110.711 Z M126.577,110.711" id="2007"/>
                <path class="unit" d="M223.561,98.288 L209.429,95.114 L208.81,95.597 L176.992,120.723 L191.504,124.05 L223.561,98.288 Z M223.561,98.288" id="2008"/>
                <path class="unit" d="M239.431,101.982 L224.859,98.414 L224.233,98.914 L192.637,124.284 L208.2,127.83 L239.431,101.982 Z M239.431,101.982" id="2009"/>
                <path class="unit" d="M256.762,105.797 L240.903,102.144 L240.289,102.641 L209.166,128.011 L224.41,131.499 L256.762,105.797 Z M256.762,105.797" id="2010"/>
                <path class="unit" d="M185.656,136.836 L198.153,126.879 L138.797,113.253 L100.736,143.144 L180.509,161.645 L206.088,141.644 L185.656,136.836 Z M185.656,136.836" id="2011"/>
                <path class="unit" d="M278.367,129.347 L248.535,122.526 L193.416,164.298 L244.833,176.181 L292.48,141.27 L270.324,135.836 L278.367,129.347 Z M278.367,129.347" id="2012"/>
                <path class="unit" d="M362.184,62.409 L353.768,69.155 L381.268,76.359 L390.729,69.437 L362.658,62.028 L362.184,62.409 Z M362.184,62.409" id="2013"/>
                <path class="unit" d="M338.229,81.98 L332.818,86.232 L359.42,92.306 L365.423,87.969 L338.693,81.62 L338.229,81.98 Z M338.229,81.98" id="2014"/>
                <path class="unit" d="M331.668,87.326 L326.275,91.723 L351.479,98.067 L358.521,92.94 L332.124,86.953 L331.668,87.326 Z M331.668,87.326" id="2015"/>
                <path class="unit" d="M325.121,92.825 L318.486,98.119 L343.41,104.093 L350.566,98.701 L325.589,92.451 L325.121,92.825 Z M325.121,92.825" id="2016"/>
                <path class="unit" d="M317.347,99.219 L311.098,104.169 L335.222,110.015 L342.254,104.798 L317.821,98.845 L317.347,99.219 Z M317.347,99.219" id="2017"/>
                <path class="unit" d="M309.776,105.39 L303.473,110.292 L326.717,116.146 L334.122,110.798 L310.242,105.027 L309.776,105.39 Z M309.776,105.39" id="2018"/>
                <path class="unit" d="M302.569,111.32 L290.822,120.637 L312.759,126.374 L325.799,116.877 L303.037,110.945 L302.569,111.32 Z M302.569,111.32" id="2019"/>
                <path class="unit" d="M285.593,125.231 L273.404,135.176 L293.87,140.171 L307.374,130.209 L286.062,124.848 L285.593,125.231 Z M285.593,125.231" id="2020"/>
                <path class="unit" d="M218.055,71.3 L268.334,31.73 L253.651,28.318 L253.038,28.802 L203.254,67.93 L218.055,71.3 Z M218.055,71.3" id="2021"/>
                <path class="unit" d="M300.034,38.983 L269.404,31.934 L268.785,32.422 L219.044,71.551 L249.606,78.436 L300.034,38.983 Z M300.034,38.983" id="2022"/>
                <path class="unit" d="M264.994,81.967 L315.29,42.5 L301.443,39.212 L300.823,39.695 L250.645,78.775 L264.994,81.967 Z M264.994,81.967" id="2024"/>
                <path class="unit" d="M340.249,65.349 L356.705,51.832 L333.31,46.353 L332.7,46.85 L317.221,59.398 L340.249,65.349 Z M340.249,65.349" id="2025"/>
                <path class="unit" d="M282.729,85.915 L332.182,46.177 L316.396,42.745 L315.785,43.223 L266.182,82.199 L282.729,85.915 Z M282.729,85.915" id="2026"/>
                <path class="unit" d="M339.295,66.171 L316.118,60.25 L315.491,60.75 L301.448,71.889 L325.061,77.802 L339.295,66.171 Z M339.295,66.171" id="2027"/>
                <path class="unit" d="M352.7,70.204 L339.352,80.93 L366.104,87.249 L380.462,76.936 L353.179,69.816 L352.7,70.204 Z M352.7,70.204" id="2028"/>
        </g>
    </g>
</svg>
