<?xml version="1.0" encoding="utf-8"?>
<!DOCTYPE svg PUBLIC "-//W3C//DTD SVG 1.1//EN" "http://www.w3.org/Graphics/SVG/1.1/DTD/svg11.dtd">
<svg version="1.1" xmlns="http://www.w3.org/2000/svg" xmlns:xlink="http://www.w3.org/1999/xlink" xml:space="preserve">
<g class="level" id="level0">
            <g class="outline">
                <path d="M164.4,202.4 L155.9,200.3 L153.1,202.3 L132.3,197.1 L132.3,194.4 L129.4,193.7 L126.6,195.7 L105.8,190.5 L105.8,187.8 L93.3,184.7 L93.4,179.5 L98.9,175.6 L97.8,175.3 L97.8,170.1 L106.1,164.2 L112.6,165.8 L124.4,157.4 L129.6,158.7 L134.7,155 L126.2,152.9 L126.2,147.6 L144,134.9 L163.6,139.8 L163.6,139 L159.8,138.1 L159.8,134.9 L155.8,133.9 L154.3,135 L145.1,132.7 L145.1,131.3 L144.7,131.2 L142,133.2 L134.1,131.2 L134.2,126 L134.8,125.6 L134.8,120.6 L152.5,108 L157.6,109.3 L163.7,105 L191.1,111.8 L193.7,109.9 L155.6,100.4 L155.6,98.5 L153.6,98 L153.6,96.8 L152.7,96.6 L152.4,96.8 L149.3,99 L142.5,97.3 L140,93.3 L140,91.8 L138.7,91.9 L139.9,93.8 L139.9,99.5 L135.4,98.4 L134.6,99 L134.6,99.8 L133.4,99.8 L132.2,100.6 L131.8,100 L126.4,100.6 L121.1,101.1 L119.7,102.1 L118.3,101.8 L118.3,103.2 L112.4,107.4 L107,111 L108.2,111.3 L108.2,116.5 L102.2,120.8 L100.1,120.3 L99.3,120.9 L94.5,119.7 L92.6,121.1 L89.3,120.3 L86.8,122.1 L79.6,120.3 L79.6,118.6 L77.8,119.9 L72.2,118.5 L71.7,117.8 L71.7,117.9 L53.2,119.8 L53.2,120.5 L35.5,122.4 L34.9,120.5 L34.9,119.4 L31,120.3 L28.2,119.6 L26.4,119.8 L25.3,120.6 L20.2,119.4 L18.8,117.3 L11.3,118.1 L9.3,115 L9.3,109.9 L14.6,109.3 L11.1,103.9 L2.8,104.8 L1,102.1 L1.1,97 L3,96.8 L2.4,95.8 L2.4,90.7 L15.8,89.2 L15.8,86.8 L22.6,86.1 L24.8,89.5 L42.4,87.6 L45,91.6 L59.1,90 L59.9,91.2 L64.6,90.7 L64.6,89.4 L65.5,89.3 L65.5,87.4 L75.9,80 L79.4,80.9 L86,76.2 L93.2,78 L93.2,76.2 L112.7,62.3 L108.1,61.2 L108.2,55.9 L122.4,45.8 L134.9,48.9 L134.9,47.3 L135.9,46.6 L118.8,42.3 L118.8,37 L123.1,33.9 L145.9,31.4 C145.8,31.1 145.8,30.8 145.8,30.5 L145.8,29.8 C145.8,28.5 146.4,27.4 147.7,26.3 L147.5,26.2 L147.5,23.6 L155.7,21.2 L184.5,1 L198.1,4.4 L198.1,6.8 L257.1,21.5 L257.1,26.8 L240.3,38.7 L221.3,34 L215.6,38.1 L215.6,43.3 L204.7,51 L203.3,50.7 L203.3,55.7 L195.4,61.3 L192.9,60.7 L185.6,65.9 L185.6,68.6 L187.4,69 L187.4,72.4 L191.8,69.3 L210.2,73.9 L210.2,76.9 L213.3,74.7 L225.9,77.8 L229.4,75.3 L238.2,77.5 L238.1,82.8 L235.8,84.4 L240.4,85.5 L240.4,87.3 L247.5,89.1 L247.5,87.8 L243.9,86.9 L243.9,81.7 L256,73.1 L228.9,66.4 L228.9,61.2 L258.6,40 L281.8,45.8 L283.4,44.7 L294.6,47.4 L294.6,49 L301.5,50.7 L301.6,45.5 L305.8,42.4 L279.4,35.9 L279.5,30.6 L288.7,24 L295,25.6 L296.9,24.3 L296.9,22.3 L301,19.4 L303.1,19.9 L325.6,3.8 L421,27.5 L421,32.8 L407.5,42.5 L408.8,44.2 L408.8,49.4 L396.4,50.4 L381.2,61.3 L377.7,60.4 L377.7,61 L377.2,61.3 L377.2,63.2 L373.9,63.6 L373.4,64 C372.8,64.8 372,65.4 371,65.9 L371.1,66 L371,70.5 L367.5,73.1 L360,71.2 L358.8,72.1 L368.1,74.4 L368.1,79.6 L362.4,83.7 L352.9,81.3 L352.9,81.7 L344.5,87.7 L344.4,90.2 L343.1,91.1 L351.8,93.3 L351.7,98.5 L341.2,106 L330.4,103.3 L327.1,105.7 L314.6,102.6 L314.5,102.6 L314.5,104.2 L310.4,107.1 L304.2,105.5 L304.2,105.8 L321.6,110.1 L323.5,108.7 L331.1,110.6 L331.1,111 L336.8,112.4 L338,114.3 L337.9,116 L338.7,117.2 L340.4,117.6 L341.6,119.5 L341.5,124 L320.3,139.1 L316.7,139.4 L314.3,138.8 L313.5,137.5 L309.9,137.9 L309.9,139 L307.5,140.7 L303.3,141.1 L290,137.8 L290,136 L280.6,133.6 L280.6,135.7 L271.5,142.1 L264.2,140.3 L264.2,139.4 L256.2,137.4 L244.3,145.9 L234.7,143.5 L234.7,145.2 L227.9,150.1 L225.8,149.6 L225.3,149.9 L227.2,150.4 L227.2,155.7 L200.9,174.5 L200.9,174.6 L194.7,179 L193.9,179 L193.9,181 L182,189.5 L182,192.7 L173.1,199 L169.8,198.2 L164.4,202.4 L164.4,202.4 Z M164.4,202.4" class="outline"/>
            </g>
            <g class="label">
                <path d="M81.8,41.4 C81.5,41 81.2,40.7 80.8,40.4 C82.2,39.9 83.2,38.9 83.2,37.4 C83.2,35.5 81.9,34.2 79,34.2 C77.9,34.2 77.1,34.3 76.6,34.5 C76.2,34.6 76.1,34.9 76.1,35.3 L76.1,45 C76.1,45.4 76.4,45.6 76.7,45.6 C77.1,45.6 77.3,45.4 77.3,45 L77.3,40.8 L78.5,40.8 C79.7,40.8 80.1,41.3 80.7,42.2 C81.1,42.8 81.5,43.8 82,45.2 C82.1,45.5 82.3,45.6 82.6,45.6 C82.9,45.6 83.2,45.4 83.2,45 C83.2,44.9 83.2,44.7 83.1,44.6 C82.8,43.4 82.3,42.2 81.8,41.4 L81.8,41.4 L81.8,41.4 Z M78.8,39.5 L77.4,39.5 L77.4,35.5 C77.8,35.4 78.3,35.4 79,35.4 C81.3,35.4 82,36.3 82,37.5 C81.9,39.1 80.4,39.6 78.8,39.5 L78.8,39.5 L78.8,39.5 Z M34.2,34.2 C33.9,34.2 33.7,34.5 33.6,34.8 C33.2,37.9 32.6,40.9 31.8,44 L31.8,44 C30.9,41.2 30.2,37.8 29.5,35.5 C29.2,34.5 28.9,34.2 28.4,34.2 C28,34.2 27.6,34.5 27.4,35.4 C26.7,37.7 25.8,41.4 25,44 L25,44 C24.2,40.9 23.8,37.9 23.4,34.8 C23.3,34.4 23.1,34.2 22.7,34.2 C22.3,34.2 22.1,34.5 22.1,34.8 L22.1,35.2 C22.5,38.3 23.1,41.5 23.8,44.2 C24,45.2 24.4,45.5 24.9,45.5 C25.4,45.5 25.7,45.2 26,44.4 C26.9,41.9 27.5,39.2 28.4,36 L28.4,36 C29.4,39.2 29.9,41.9 30.7,44.4 C31,45.3 31.3,45.5 31.8,45.5 C32.3,45.5 32.6,45.2 32.8,44.4 C33.6,41.4 34.2,38.3 34.7,35.1 L34.7,34.7 C34.8,34.5 34.6,34.2 34.2,34.2 L34.2,34.2 L34.2,34.2 Z M16.2,34.2 C13.3,34.2 11.5,36.5 11.5,40.1 C11.5,43.5 13.3,45.6 16.2,45.6 C19.1,45.6 20.9,43.2 20.9,39.6 C20.9,36.3 19.1,34.2 16.2,34.2 L16.2,34.2 L16.2,34.2 Z M16.2,44.4 C14.1,44.4 12.8,42.7 12.8,40.1 C12.8,37.1 14,35.3 16.2,35.3 C18.4,35.3 19.6,37 19.6,39.5 C19.6,42.6 18.4,44.4 16.2,44.4 L16.2,44.4 L16.2,44.4 Z M88.4,39.1 C87,38.6 86.2,38.2 86.2,37 C86.2,35.9 87.1,35.3 88.2,35.3 C88.9,35.3 89.4,35.4 89.9,35.6 C90.1,35.6 90.2,35.7 90.4,35.7 C90.7,35.7 91,35.5 91,35.1 C91,34.9 90.9,34.7 90.5,34.5 C90,34.3 89.1,34.1 88.4,34.1 C86.2,34.1 84.9,35.4 84.9,37.1 C84.9,38.7 86,39.5 87.6,40.1 C89.7,40.9 90.3,41.5 90.3,42.5 C90.3,43.6 89.4,44.4 88,44.4 C87.1,44.4 86.3,44.1 85.8,43.7 C85.5,43.5 85.4,43.4 85.2,43.4 C84.9,43.4 84.6,43.6 84.6,43.9 C84.6,44.2 84.7,44.4 85,44.5 C85.7,45 86.8,45.5 88,45.5 C90.2,45.5 91.6,44.2 91.6,42.4 C91.5,40.8 90.3,39.9 88.4,39.1 L88.4,39.1 L88.4,39.1 Z M5,34.2 C4.4,34.2 3.4,34.2 2.8,34.4 C2.4,34.5 2.2,34.8 2.2,35.2 L2.2,44.7 C2.2,45.1 2.3,45.4 2.9,45.5 C3.4,45.6 4.1,45.7 5.1,45.7 C8.6,45.7 10.2,43.2 10.2,40 C10.2,36.6 8.6,34.2 5,34.2 L5,34.2 L5,34.2 Z M5.1,44.4 C4.4,44.4 3.9,44.4 3.4,44.3 L3.4,35.4 C3.9,35.3 4.5,35.3 5,35.3 C7.9,35.3 9,37.2 9,39.7 C8.9,42.6 7.8,44.4 5.1,44.4 L5.1,44.4 L5.1,44.4 Z M62.4,34.9 C62.4,34.6 62.2,34.3 61.8,34.3 L54.9,34.3 C54.5,34.3 54.3,34.6 54.3,34.9 C54.3,35.2 54.5,35.5 54.9,35.5 L57.7,35.5 L57.7,44.9 C57.7,45.3 58,45.5 58.3,45.5 C58.6,45.5 58.9,45.3 58.9,44.9 L58.9,35.5 L61.8,35.5 C62.2,35.5 62.4,35.2 62.4,34.9 L62.4,34.9 L62.4,34.9 Z M68,35.7 C67.4,34.5 66.9,34.1 66.3,34.1 C65.7,34.1 65.2,34.5 64.6,35.7 C63.7,37.5 63,39.8 61.8,44.4 C61.7,44.6 61.7,44.8 61.7,44.9 C61.7,45.3 62,45.5 62.3,45.5 C62.6,45.5 62.8,45.3 62.9,45 C63.2,43.6 63.5,42.4 63.8,41.3 L68.7,41.3 C69,42.4 69.3,43.6 69.6,45 C69.7,45.3 69.9,45.5 70.2,45.5 C70.6,45.5 70.8,45.3 70.8,44.9 C70.8,44.8 70.8,44.6 70.7,44.4 C69.6,39.8 68.9,37.5 68,35.7 L68,35.7 L68,35.7 Z M64.2,40.3 C64.9,37.9 65.6,36.3 66.1,35.5 C66.1,35.4 66.2,35.4 66.3,35.4 C66.4,35.4 66.5,35.5 66.5,35.5 C67,36.3 67.7,37.8 68.4,40.3 L64.2,40.3 L64.2,40.3 Z M44.5,34.2 C44.1,34.2 43.9,34.5 43.9,34.9 L43.9,43.5 L38.3,34.8 C38.1,34.5 37.8,34.3 37.5,34.3 C37,34.3 36.7,34.6 36.7,35.2 L36.7,45 C36.7,45.4 37,45.6 37.3,45.6 C37.7,45.6 37.9,45.4 37.9,45 L37.9,36.3 L43.4,45.1 C43.6,45.4 43.9,45.6 44.2,45.6 C44.7,45.6 45,45.2 45,44.8 L45,35 C45.1,34.5 44.9,34.2 44.5,34.2 L44.5,34.2 L44.5,34.2 Z M73.2,34.2 C72.8,34.2 72.6,34.5 72.6,34.9 L72.6,44.9 C72.6,45.3 72.9,45.5 73.2,45.5 C73.6,45.5 73.8,45.3 73.8,44.9 L73.8,34.9 C73.8,34.5 73.5,34.2 73.2,34.2 L73.2,34.2 L73.2,34.2 Z M50.6,39.1 C49.2,38.6 48.4,38.2 48.4,37 C48.4,35.9 49.3,35.3 50.4,35.3 C51.1,35.3 51.6,35.4 52.1,35.6 C52.3,35.6 52.4,35.7 52.6,35.7 C52.9,35.7 53.2,35.5 53.2,35.1 C53.2,34.9 53.1,34.7 52.7,34.5 C52.2,34.3 51.3,34.1 50.6,34.1 C48.4,34.1 47.1,35.4 47.1,37.1 C47.1,38.7 48.2,39.5 49.8,40.1 C51.9,40.9 52.5,41.5 52.5,42.5 C52.5,43.6 51.6,44.4 50.2,44.4 C49.3,44.4 48.5,44.1 48,43.7 C47.7,43.5 47.6,43.4 47.4,43.4 C47.1,43.4 46.8,43.6 46.8,43.9 C46.8,44.2 46.9,44.4 47.2,44.5 C47.9,45 49,45.5 50.2,45.5 C52.4,45.5 53.8,44.2 53.8,42.4 C53.7,40.8 52.5,39.9 50.6,39.1 L50.6,39.1 L50.6,39.1 Z M50.6,39.1" class="Shape"/>
            </g>
            <g class="background">
                <path d="M373.9,58.2 L370,58.6 L349.5,53.5 L348.7,52.2 L349.9,51.4 L352.3,52 L354.6,50.4 L354.6,49.8 L334.2,44.7 L332.4,45.2 L324.1,51.1 L324.1,51.7 L324.4,52.1 L326.5,55.3 L308.5,68.2 L303.7,68.7 L302.6,68.5 L299.7,70.6 L299.7,71.2 L300.6,71.5 L301.5,73.3 L266.3,98.4 L262.6,98.8 L259.8,98.1 L239.2,100 L216.5,94.3 L215.8,93.3 L216.8,92.6 L216.8,92 L204.8,89 L197.9,89.7 L173,83.4 L172.4,82.5 L171.6,83.2 L159.7,64.3 L163.1,61.9 L163.1,61.2 L161.2,58.2 L184,42.1 L192.2,41.2 L196.1,39 L196.9,38.4 L196.9,37.7 L193.2,31.7 L195.1,31.7 L197.2,30.2 L197.2,29.5 L185.1,26.5 L177.8,31.7 L174.5,32.1 L160,28.6 L157.7,24.9 L184.9,5.5 L194.4,7.9 L196.7,6.2 L196.7,5.5 L184.8,2.5 L156,23.1 L148.5,25.2 L148.5,25.8 L149.9,26.9 C149.2,27.2 148.7,27.5 148.3,27.8 C147.2,28.6 146.7,29.4 146.7,30.3 L146.7,31 C146.7,31.9 147.3,32.8 148.4,33.5 L156.4,32.7 L169.7,36 L171.6,38.8 L173.6,39.3 L174.3,40.4 L152.9,55.6 L145.1,56.4 L141.3,59.1 L141.3,59.8 L143.6,63.4 L143.7,63.8 L149.8,65.3 L155.3,74 L152.8,75.8 L148.7,76.4 L145.2,78.9 L144.8,78.8 L139.4,82.6 L139.4,83.2 L140.1,84.4 L137.5,86.3 L114.6,88.6 L110,87.5 L101.4,88.4 L98.2,90.6 L98.2,91.2 L100.1,94.3 L97.3,96.3 L97.3,96.9 L97.7,97.3 L95.9,98.6 L93.8,98.8 L91,100.8 L91,101.4 L91.4,102 L90.2,102.9 L87.8,103.2 L85.7,104.7 L55.5,107.9 L53.8,107.5 L41.9,109 L27.4,113 L26,114 L23.6,114.2 L21.2,113.6 L19.2,115 L19.2,115.6 L20.9,118.3 L24.7,119.2 L25.6,118.6 L28.1,118.4 L30.8,119.1 L36.3,117.9 L37.4,116.8 L42.5,116.3 L45.2,114.3 L71.1,111.9 L71.7,111.5 L78.5,110.8 L78.7,111.2 L80.2,111 L80.2,110.6 L86.9,109.9 L88,110.2 L89.5,110 L92.5,110.8 L94.2,110.6 L96.2,111.1 L98.2,109.2 L103.6,105.3 L104.6,105.1 L104.6,104.6 L106.8,103.1 L107.8,102.9 L107.8,102.4 L110.1,100.7 L111.1,100.5 L111.1,100 L112.1,99.3 L113.1,99.2 L115.8,97.1 L115.8,96.5 L114.9,95.1 L117.7,93.1 L166.7,88 L167.9,87 L194,93.5 L195.5,96.1 L202.7,97.9 L209.9,97.2 L235.2,103.5 L236.5,105 L234.9,106.1 L234.9,106.7 L235.5,107.5 L225.4,114.7 L222,114 L222,114.6 L222.4,115.2 L223.6,115.5 L223.9,115.8 L197.7,134.5 L188.1,135.5 L184.8,137.8 L184.8,138.4 L188.6,144.1 L157.9,166 L157.9,166.6 L190.9,174.9 L191.9,176.5 L193.9,176.5 L199,172.9 L199,172.3 L198.2,171.5 L197.3,172.2 L196.1,171.9 L195.3,172.4 L173.9,167.1 L173.4,165.5 L182.3,159.2 L182.3,158.6 L181,156.5 L197.6,144.7 L199.1,145.1 L201.6,143.4 L201.6,142.8 L201.2,142.3 L206.1,138.8 L206.1,138.2 L205.2,137.2 L239.3,112.8 L243.6,112.3 L246.6,113 L268,110.8 L275.2,105.7 L275.2,105.1 L273.1,102 L272.8,101.9 L308,76.5 L311.9,76.1 L318.2,71.6 L318.2,71 L317.2,69.5 L333.4,58 L342.5,57.1 L365.3,62.8 L366.3,64.4 L369,64.1 L374.6,60.1 L374.6,59.5 L373.9,58.2 L373.9,58.2 Z M373.9,58.2" class="walkway"/>
                <path d="M243.5,111.6 L243.7,111.6 L243.8,111.8 L243.8,111.6 L246.3,112.3 L250.4,111.9 L250.4,112 L267.9,110.2 L274.4,105.5 L274.4,105.1 L273,105.2 L271.8,104.9 L271.8,101.7 L299.8,82.3 L348.7,94 L348.7,97.2 L339.5,103.8 L328.7,101.1 L325.4,103.5 L313,100.4 L311.7,101.3 L311.7,102.8 L308.9,104.8 L296.1,101.6 L294,103.1 L294,103.3 L293.6,103.3 L301.5,105.3 L301.5,106.4 L312.7,109.2 L320.6,111.2 L322.5,109.8 L328.2,111.2 L328.2,111.6 L334.4,113.1 L335,114.1 L335,115.8 L336.4,117.9 L338.1,118.3 L338.7,119.2 L338.7,122.4 L318.7,136.7 L315.8,137 L314.3,136.6 L313.3,135.1 L307.4,135.7 L307.4,137.4 L306,138.4 L302.4,138.8 L290.6,135.9 L290.6,134.1 L278.7,131.1 L278.1,131.5 L278.1,134.2 L270.3,139.7 L264.9,138.3 L264.9,137.4 L254.3,134.8 L254.3,135.6 L243.3,143.4 L232.6,140.7 L232.6,143.6 L227.1,147.5 L225,147 L221.2,149.7 L225.2,150.7 L225.2,153.9 L199.9,171.9 L198.5,171.5 L193.4,175.1 L191.3,174.6 L192.1,175.8 L192.1,179 L180.2,187.5 L180.2,190.7 L172.6,196.1 L169.3,195.3 L163.9,199.1 L155.4,197 L152.6,199 L133.9,194.3 L133.9,191.6 L129.1,190.4 L126.3,192.4 L107.6,187.7 L107.6,185 L95.2,181.9 L95.2,178.7 L102.7,173.3 L99.6,172.5 L99.6,169.3 L106.6,164.3 L113,165.9 L124.8,157.5 L130,158.8 L138.4,152.8 L127.8,150.2 L127.8,147 L144.2,135.3 L164.9,140.5 L164.9,138.3 L168.5,135.7 L168.8,135.8 L169,135.8 L169,135.6 L170.4,134.6 L168.7,134.1 L165.4,136.4 L161.2,135.4 L161.2,132.3 L155.4,130.8 L153.9,131.9 L146.7,130.1 L146.7,128.7 L144.4,128.1 L141.7,130.1 L135.7,128.6 L135.7,125.4 L138.1,123.7 L136.3,123.3 L136.3,120.1 L152.6,108.5 L157.7,109.8 L163.7,105.5 L190.9,112.3 L196.9,108.1 L156.9,98.1 L156.9,96.2 L154.9,95.7 L154.9,94.2 L154.4,94.3 L152.1,93.7 L151,94.5 L150.6,94.4 L150.6,94.8 L148.7,96.2 L143.3,94.8 L141.4,91.8 L141.4,88.6 L167.5,85.8 L170.1,86.4 L170.1,85.5 L171.6,84.5 L170.4,82.7 L170.4,81.4 L169.6,81.5 L159.6,65.6 L159.6,62.4 L161.8,60.8 L161.1,59.7 L161,59.7 L161,59.6 L161,59.5 L161,56.3 L161.2,56.4 L180,43 L181.7,43.4 L181.7,42.7 L177.7,41.8 L177.7,37.8 L182.5,38.9 L186.1,36.4 L186.1,40.1 L185.7,40.4 L191.6,39.8 L194.5,37.7 L193,35.3 L192.9,35.2 L192,33.8 L192,31.3 L183.9,29.2 L183.9,30.1 L177.7,34.5 L174.3,34.8 L160.2,31.3 L157.6,27.2 L157.6,24 L161.4,21.3 L162.3,21.5 L162.3,20.6 L178.1,9.3 L178.3,9.1 L181.9,6.6 L182.9,6.9 L182.9,5.9 L184.5,4.8 L254.6,22.3 L254.6,25.5 L239.2,36.5 L220.4,31.8 L213.6,36.6 L213,36.4 L213,37.3 L211.6,38.3 L213.4,38.8 L213.4,42 L203.8,48.8 L199.4,47.7 L197.6,49 L195.2,48.4 L195.2,47 L194.2,46.7 L192.7,47.8 L191.1,47.4 L191.1,49 L201.1,51.5 L201.1,54.7 L194.5,59.4 L192,58.8 L182.4,65.7 L181.2,65.4 L181.2,65.5 L183.6,66.1 L183.6,69.3 L183.3,69.6 L185.5,70.1 L185.5,73.3 L176.7,79.6 L180,79.3 L191.8,70.9 L208.2,75 L208.2,78.2 L205.2,80.4 L206.8,80.8 L213.1,76.2 L225.7,79.3 L229.2,76.8 L236.1,78.5 L236.1,81.7 L231.8,84.8 L232,84.9 L238.5,86.5 L238.5,88.3 L248,90.7 L251,88.6 L248.7,88 L248.7,86.3 L245.2,85.4 L245.2,82 L256.2,74.1 L265.5,76.4 L265.5,75.1 L267.2,73.9 L230.3,64.7 L230.3,61.5 L258.4,41.5 L281.4,47.2 L283,46.1 L292.2,48.4 L292.2,50 L301.1,52.2 L301.1,55.4 L300,56.1 L302.2,56.6 L309.9,51.2 L302.2,49.3 L302.2,46.1 L308.5,41.6 L280.3,34.6 L280.3,31.4 L288.2,25.7 L294.5,27.3 L297.6,25.1 L297.6,23.1 L300.4,21.1 L302.5,21.6 L324.8,5.6 L417.7,28.7 L417.7,31.9 L403.5,42 L405.5,44.6 L405.5,47.8 L394.2,48.7 L379.3,59.3 L373.9,57.9 L374.2,58.3 L374.2,61.5 L370,62 L349.4,56.9 L348.3,55.2 L348.3,52 L348.7,51.7 L344.2,50.6 L341.3,51 L340.5,49.7 L332.7,47.8 L332.7,48.6 L325.7,53.6 L326.9,55.5 L326.9,58.7 L308.5,71.8 L303.6,72.3 L302.6,72 L301.6,72.7 L301.9,73.3 L301.9,76.5 L295.4,81.1 L294.3,80.8 L294.3,81.9 L266.5,101.7 L262.7,102.1 L259.8,101.3 L247.5,102.7 L246.7,102.5 L239.2,103.3 L216.4,97.6 L215.3,96.2 L215.3,94.9 L204.8,92.3 L197.9,93 L195.2,92.4 L194.9,92.3 L176.5,87.7 L176.5,88.6 L194,93 L195.5,95.6 L202.5,97.3 L209.6,96.6 L209.9,96.7 L209.9,95.6 L213,96.4 L214.4,95.4 L214.4,97.2 L213.2,98.1 L212.8,97.9 L212.8,100.6 L207.2,104.6 L208,104.8 L213.8,100.7 L214.8,100.9 L217.8,98.8 L235,103.1 L236.7,105.1 L236.7,108.3 L235.7,109 L235.7,111 L225.2,118.6 L224.2,118.3 L224.2,119.3 L197.6,138.3 L191.5,139 L191.4,139 L188,139.4 L186.3,140.6 L189,144.6 L189,147.8 L187.5,148.9 L186.2,148.6 L186.2,149.8 L161.3,167.5 L173.5,170.6 L173,168.8 L173,165.6 L180.6,160.2 L180.4,159.9 L180.3,159.9 L180.3,159.8 L180.3,159.7 L180.3,156.5 L180.5,156.6 L186.9,152 L187.1,151.8 L197.3,144.5 L200.4,145.3 L200.4,142.3 L203,140.5 L203.2,140.3 L204.3,139.5 L204.3,137.1 L207.3,134.9 L207.5,134.7 L221.5,124.8 L222.3,125 L222.3,124.3 L233.4,116.3 L233.6,116.1 L238.6,112.6 L238.6,112.4 L238.9,112.4 L239,112.3 L239.1,112.3 L243.1,111.8 L243.1,111.7 L243.5,111.6 M243.5,111.6 L243.3,111.5 M368,69.6 L365.7,71.3 L360,69.8 L360,68.6 L358.4,68.2 L358.4,69.3 L353.7,72.7 L365,75.5 L365,78.7 L360.6,81.9 L349.9,79.2 L349.9,80.8 L341.5,86.7 L341.5,89.2 L340.3,90 L338.5,90.1 L304.7,81.7 L304.7,78.5 L307.9,76.2 L311.8,75.8 L316.7,72.3 L316.7,69.2 L316.9,69.3 L323,65 L324.7,65.5 L324.7,63.8 L333.3,57.7 L342.5,56.7 L365.5,62.4 L368,66.4 L368,69.6 M139.7,46 L120.6,41.2 L120.6,38 L123.9,35.7 L157,32.1 L160.9,33.1 L160.9,35.1 L163,33.6 L170.2,35.4 L172,38.2 L173.9,38.7 L174.8,40.3 L174.8,43.5 L156.6,56.5 L154,55.9 L154,58.6 L146,59.4 L143.8,61 L144.7,62.4 L144.7,62.7 L150.6,64.2 L156.3,73.2 L156.3,76.4 L153.5,78.4 L149.5,79 L141.3,84.9 L141.3,87.3 L138.4,89.4 L115.5,91.8 L110.7,90.6 L109.6,89 L109.6,90.8 L102.4,91.6 L100.7,92.8 L101.5,94.2 L101.5,97.4 L99,98.7 L99,100 L96.8,101.6 L94.7,101.9 L92.7,103.3 L92.7,104.8 L91.2,105.9 L88.8,106.2 L86.7,107.7 L56.7,110.9 L56.7,111 L56.4,110.9 L56.3,110.9 L56.3,110.8 L54.7,110.5 L43,111.7 L28.6,115.7 L27.2,116.7 L24.7,117 L22.1,116.4 L21.3,115.1 L12.9,116 L11.8,114.4 L11.8,111.2 L18.2,110.5 L12.8,102.2 L4.6,103 L3.5,101.4 L3.5,98.2 L6.5,97.9 L4.8,95.2 L4.8,92 L18.1,90.5 L18.1,88.1 L22.5,87.6 L24.7,91 L42.2,89.1 L44.8,93 L58.8,91.4 L59.6,92.6 L64.4,92.1 L68.3,98 L68.3,99.4 L70,99.2 L66.7,94 L66.7,90.8 L67.6,90.7 L67.6,88.2 L76.7,81.7 L80.2,82.6 L86.7,77.9 L95.1,80 L95.1,77 L116.5,61.7 L110,60 L110,56.8 L122.9,47.6 L136.5,51 L136.5,48.3 L139.7,46 M71.8,110.8 L72.4,110.4 L79.4,109.7 L80.2,111 L80.2,114.2 L80.1,114.2 L80.1,115 L78.8,115.1 L78.8,117.2 L77.8,117.9 L73.6,116.8 L71.8,114 L71.8,110.8 M66.4,111 L69.6,110.7 L70.5,110.9 L71.5,112.2 L71.5,115.4 L70.7,115.5 L70.7,116.1 L52.2,118 L52.2,118.7 L37.3,120.3 L37.1,119.9 L37.1,116.7 L38.2,115.6 L43.3,115 L46.1,113 L58.4,111.7 L59,112 L59.5,111.7 L65.3,111.1 L66,111.3 L66.4,111 M88.9,109 L90.4,108.8 L93.4,109.6 L95,109.3 L98.7,110.2 L98.7,107.9 L101.1,106.2 L101.8,106.1 L101.8,105.7 L104.2,104 L104.9,103.9 L104.9,103.5 L107.3,101.8 L108,101.7 L108,101.3 L110.5,99.5 L111.2,99.4 L111.2,99 L112.4,98.1 L113.5,97.9 L115.4,98.4 L114.7,97.4 L114.7,94.2 L117.9,92 L122.1,91.5 L122.5,92.1 L122.5,91.4 L135.7,90 L138.2,94 L138.2,97.2 L134.9,96.4 L132.8,97.9 L132.8,98 L133,98 L132.8,98.1 L132.7,98 L125.4,98.8 L125,98.2 L125,98.9 L120.8,99.3 L119.7,100.1 L117.1,99.5 L117.1,102.1 L112.5,105.4 L111.9,105.3 L111.9,105.9 L106.1,110 L105.1,109.7 L105.1,110.7 L103.7,111.7 L107,112.5 L107,115.7 L102.3,119.1 L100.2,118.6 L99.4,119.2 L94.6,118 L92.7,119.4 L89.4,118.6 L86.9,120.4 L81.6,119.1 L81.6,115.9 L82.2,115.5 L80.6,113 L80.6,109.8 L87.6,109 L87.7,109 L87.8,109 L88.1,108.9 L88.1,109 L88.9,109 M162.7,75.7 L162.7,77.6 L160.4,77.6 L160.4,75.7 L162.7,75.7 M160.4,75.6 L160.4,77.6 L159.2,75.2 L159.2,73.2 L160.4,75.6 M224,97.7 L224,99.5 L222.6,100.6 L222.6,98.8 L224,97.7 M219.8,98.2 L222.6,99 L222.6,100.6 L219.8,99.8 L219.8,98.2 M233.5,115.8 L232,116.8 L232,115.2 L233.5,114.2 L233.5,115.8 M232.1,116.8 L229.4,116.2 L229.4,114.6 L232.1,115.3 L232.1,116.8 M200.7,139.9 L200.7,138 L202.1,136.9 L202.1,138.7 L200.7,139.9 M198.1,139.2 L198.1,137.3 L200.7,137.9 L200.7,139.7 L198.1,139.2 M310.2,74.4 L308.4,76 L308.4,73.9 L310.3,72.4 L310.2,74.4 M308.4,73.9 L308.4,76 L306.3,75.3 L306.3,73.2 L308.4,73.9 M347.3,56.8 L345.2,58.2 L345.2,56.2 L347.4,54.7 L347.3,56.8 M345.4,58.1 L343.5,57.8 L343.5,55.7 L345.4,56.1 L345.4,58.1 M331,58.6 L328.9,60.2 L328.9,58.1 L331,56.8 L331,58.6 M328.9,58.2 L328.9,60.3 L327.2,59.9 L327.2,57.8 L328.9,58.2 M285,92.8 L283,94.3 L283,92.3 L285.1,90.8 L285,92.8 M282.9,94.3 L281,93.8 L281,91.7 L282.9,92.2 L282.9,94.3" class="wall"/>
            </g>
            <g class="ceilings">
                <path class="unit" d="M369.8,59 L357.6,56 L361.2,53.4 L371.7,56 L373.4,58.6 L369.8,59" id="1001"/>
                <path class="unit" d="M360.9,53.3 L357.3,55.9 L352.2,54.6 L355.8,52 L360.9,53.3" id="1002"/>
                <path class="unit" d="M361.4,65.7 L348.5,62.5 L352.8,59.5 L364.9,62.5 L367.4,66.4 L365.3,67.9 L360.2,66.6 L361.4,65.7" id="1003"/>
                <path class="unit" d="M360.1,78.4 L345.4,74.7 L343.6,76 L316.9,69.3 L322.8,65.1 L364.1,75.4 L360.1,78.4" id="1004"/>
                <path class="unit" d="M378.8,56.2 L344,47.5 L341.3,47.8 L340.6,46.6 L298.5,36.1 L290.7,34.2 L280.4,31.6 L288,26.2 L294.2,27.8 L299.8,23.8 L297.7,23.3 L300.2,21.5 L302.3,22 L324.6,6.1 L416.9,29.1 L401.3,40.2 L404.8,44.7 L393.8,45.6 L378.8,56.2" id="1005"/>
                <path class="unit" d="M323.8,42.7 L330.9,44.5 L329.9,45.2 L331.9,45.7 L323.6,51.6 L323.8,51.8 L302.2,46.4 L310.4,40.5 L322.5,43.5 L323.8,42.7" id="1006"/>
                <path class="unit" d="M303.9,55.8 L320.3,59.9 L317.1,62.2 L300.8,58 L303.9,55.8" id="1007"/>
                <path class="unit" d="M300.3,58.1 L317,62.2 L311,66.5 L294.2,62.3 L291.9,58.8 L296.2,55.7 L301.8,57.1 L300.3,58.1" id="1008"/>
                <path class="unit" d="M289.7,50 L300.1,52.6 L291.3,58.9 L293.7,62.5 L310.7,66.7 L308,68.6 L303.3,69.1 L302.1,68.8 L299,71 L300,71.2 L301.1,73.4 L298,75.6 L297,74 L282.6,70.4 L277.9,73.7 L230.1,61.8 L257.8,42 L280.8,47.7 L282.4,46.6 L291,48.7 L289.7,50" id="1009"/>
                <path class="unit" d="M280.1,74.2 L278.5,73.8 L279.8,72.9 L281.4,73.3 L280.1,74.2" id="1010"/>
                <path class="unit" d="M282,72.9 L281.5,73.2 L279.9,72.8 L282.9,70.6 L296.8,74.1 L297.8,75.8 L294.9,77.9 L284.1,75.2 L286,73.8 L282,72.9" id="1011"/>
                <path class="unit" d="M276.6,75.3 L281.4,76.5 L282.6,75.6 L287.8,76.9 L288,77.3 L285.8,78.9 L275.2,76.3 L276.6,75.3" id="1012"/>
                <path class="unit" d="M269.3,77.8 L266.8,77.2 L267.5,76.7 L270,77.3 L269.3,77.8" id="1013"/>
                <path class="unit" d="M269.9,75 L270.9,75.2 L269.4,76.3 L268.4,76.1 L269.9,75" id="1014"/>
                <path class="unit" d="M267.7,76.6 L268.2,76.2 L273.5,77.5 L275.2,76.3 L291.5,80.4 L288.5,82.5 L269.7,77.8 L270.5,77.2 L267.7,76.6" id="1015"/>
                <path class="unit" d="M268.1,76 L265.6,75.4 L267.1,74.3 L269.6,74.9 L268.1,76" id="1016"/>
                <path class="unit" d="M271.2,75.4 L274.9,76.3 L273.4,77.3 L269.7,76.4 L271.2,75.4" id="1017"/>
                <path class="unit" d="M259.3,77 L254.4,75.7 L256,74.6 L260.9,75.8 L259.3,77" id="1018"/>
                <path class="unit" d="M258.9,81.3 L252.7,85.7 L248.8,84.7 L250.4,83.6 L251.9,84 L256.5,80.7 L258.9,81.3" id="1019"/>
                <path class="unit" d="M261.2,75.9 L288.3,82.6 L282.3,86.9 L256.5,80.5 L251.9,83.8 L245.4,82.2 L254.2,75.9 L259.4,77.2 L261.2,75.9" id="1020"/>
                <path class="unit" d="M259.3,81.4 L282.1,87.1 L279.2,89.2 L256.4,83.5 L259.3,81.4" id="1021"/>
                <path class="unit" d="M259.5,98.3 L256.3,98.6 L254.1,95.1 L258.6,91.9 L249.4,89.6 L251.1,88.4 L272.6,93.7 L265.9,98.5 L262.4,98.9 L259.5,98.3" id="1022"/>
                <path class="unit" d="M279,96.9 L292.9,100.4 L272.8,102.1 L272,101.9 L279,96.9" id="1023"/>
                <path class="unit" d="M272.8,93.7 L251.3,88.3 L254.2,86.2 L275.7,91.6 L272.8,93.7" id="1024"/>
                <path class="unit" d="M278.9,89.3 L275.8,91.5 L253,85.8 L256.1,83.6 L278.9,89.3" id="1025"/>
                <path class="unit" d="M293.5,78.9 L291.6,80.3 L286.1,78.9 L288.3,77.3 L289.2,77.2 L293.1,78.2 L293.5,78.9" id="1026"/>
                <path class="unit" d="M287.2,91.1 L312.5,97.4 L309.6,99.5 L284.3,93.2 L287.2,91.1" id="1027"/>
                <path class="unit" d="M284.1,93.3 L311,100 L308.6,101.7 L293.7,98 L293.2,98.4 L281.2,95.4 L284.1,93.3" id="1028"/>
                <path class="unit" d="M295.6,98.7 L293.2,100.4 L279.1,96.9 L281,95.6 L293.3,98.7 L293.8,98.3 L295.6,98.7" id="1029"/>
                <path class="unit" d="M292.7,105.1 L272.5,107.2 L275.1,105.4 L274.6,104.6 L290.6,102.9 L292.8,103.8 L300.8,105.8 L300.4,106.1 L293.8,104.4 L292.7,105.1" id="1030"/>
                <path class="unit" d="M353,51.3 L355.5,51.9 L351.9,54.5 L349.4,53.9 L348.4,52.3 L349.7,51.3 L352.1,51.9 L353,51.3" id="1031"/>
                <path class="unit" d="M352.4,59.3 L348.1,62.3 L347,62 L345.7,62.9 L331,59.3 L333.2,57.7 L342.2,56.7 L352.4,59.3" id="1032"/>
                <path class="unit" d="M326.3,55.6 L323.2,57.8 L306.8,53.7 L312.4,49.7 L324.3,52.6 L326.3,55.6" id="1033"/>
                <path class="unit" d="M320.5,59.7 L304.2,55.6 L306.7,53.8 L323,57.9 L320.5,59.7" id="1034"/>
                <path class="unit" d="M317,69.6 L349.1,77.6 L340.5,83.7 L335.9,82.6 L334.1,83.9 L309.7,77.8 L309.6,76.2 L311.7,76 L318.1,71.5 L317,69.6" id="1035"/>
                <path class="unit" d="M322.9,83 L304.9,78.5 L307.9,76.4 L309.4,76.2 L309.4,77.8 L324.8,81.6 L322.9,83" id="1036"/>
                <path class="unit" d="M325,81.7 L338.5,85 L338,85.3 L340.6,85.9 L339.7,86.6 L338.2,86.7 L323.1,82.9 L325,81.7" id="1037"/>
                <path class="unit" d="M331.6,97.9 L338.7,99.7 L339.2,99.3 L340.6,99.7 L339.2,100.7 L330.8,98.6 L331.6,97.9" id="1038"/>
                <path class="unit" d="M330.8,59.5 L357.5,66.2 L351.6,70.4 L324.9,63.7 L330.8,59.5" id="1039"/>
                <path class="unit" d="M207.9,38.2 L213,39.5 L209.8,41.8 L195.8,38.3 L196.5,37.8 L193.3,32.8 L196.8,32.4 L198.2,31.4 L212.5,34.9 L207.9,38.2" id="1040"/>
                <path class="unit" d="M213.5,34 L166.4,22.2 L169.3,20.1 L165.7,19.2 L168.9,16.9 L174.1,18.2 L178,15.4 L172.8,14.1 L173.1,13.9 L178.3,15.2 L182.5,12.2 L181.2,11.9 L181.9,11.4 L178.1,10.4 L178.5,10.1 L181.3,10.8 L182.1,10.2 L182.6,10.3 L181.8,10.9 L183.6,11.4 L186.4,9.4 L185.4,9.1 L187.6,7.6 L183.5,6.6 L184.7,5.7 L254.2,23 L239.1,33.7 L220.3,29 L213.5,34" id="1041"/>
                <path class="unit" d="M185.9,9.5 L183.5,11.2 L182.3,10.9 L183.1,10.3 L182,10.1 L181.2,10.7 L178.6,10 L182,7.6 L185.8,8.6 L184.8,9.3 L185.9,9.5" id="1042"/>
                <path class="unit" d="M180.7,12 L182,12.3 L178.2,15 L173.4,13.8 L178,10.6 L181.5,11.5 L180.7,12" id="1043"/>
                <path class="unit" d="M172.7,14.3 L177.5,15.5 L174,18 L169.2,16.8 L172.7,14.3" id="1044"/>
                <path class="unit" d="M165.6,19.4 L168.8,20.2 L166.1,22.1 L162.9,21.3 L165.6,19.4" id="1045"/>
                <path class="unit" d="M161.6,22.2 L169,24 L161.9,29.1 L160.5,28.7 L158,24.7 L161.6,22.2" id="1046"/>
                <path class="unit" d="M160.1,33.1 L154.5,37.1 L151.9,36.5 L142.4,43.3 L137.3,42 L138.8,40.9 L133.1,39.5 L131.6,40.6 L126,39.2 L132,34.9 L156.7,32.2 L160.1,33.1" id="1047"/>
                <path class="unit" d="M161.8,39.3 L171.9,41.8 L168.9,43.9 L151.5,39.6 L153.7,38 L159.5,39.4 L161.8,39.3" id="1048"/>
                <path class="unit" d="M161.4,37.2 L170.6,37 L171.4,38.3 L173.3,38.8 L174.2,40.2 L172.1,41.7 L161.8,39.2 L159.6,39.4 L156.2,38.5 L156.9,38 L159.4,38.6 L161.4,37.2" id="1049"/>
                <path class="unit" d="M159.3,38.4 L157.1,37.8 L162.8,33.7 L169.6,35.4 L170.5,36.8 L161.1,37 L159.3,38.4" id="1050"/>
                <path class="unit" d="M174.4,32.2 L162.2,29.2 L169.3,24.2 L183.5,27.7 L177.6,31.9 L174.4,32.2" id="1051"/>
                <path class="unit" d="M186.4,41.1 L187.2,42.4 L194,44.1 L192.7,45 L182.2,42.4 L183.7,41.3 L186.4,41.1" id="1052"/>
                <path class="unit" d="M191.8,40.5 L195,38.2 L209.6,41.8 L203.7,46 L199.3,44.9 L197.5,46.2 L195.7,45.7 L197.2,44.6 L187.4,42.2 L186.6,40.9 L191.8,40.5" id="1053"/>
                <path class="unit" d="M181.6,35.5 L178,38.1 L182.8,39.2 L186.3,36.7 L181.6,35.5" id="1054"/>
                <path class="unit" d="M196.6,32.2 L193.2,32.5 L192.4,31.3 L194.5,31.3 L195.4,30.6 L197.9,31.2 L196.6,32.2" id="1055"/>
                <path class="unit" d="M194.6,56.2 L171.2,50.4 L174.4,48.2 L197.8,54 L194.6,56.2" id="1056"/>
                <path class="unit" d="M197.9,53.8 L174.5,48 L177.4,45.9 L200.8,51.7 L197.9,53.8" id="1057"/>
                <path class="unit" d="M188.2,48.5 L177.6,45.9 L180.2,44 L190.8,46.7 L188.2,48.5" id="1058"/>
                <path class="unit" d="M188.8,57.9 L167.9,52.7 L171.1,50.5 L192,55.7 L188.8,57.9" id="1059"/>
                <path class="unit" d="M183.3,66.2 L179.7,68.8 L185.2,70.2 L173.6,78.5 L170,78.9 L167.9,75.4 L171.4,75 L179.5,69.2 L178.2,68.9 L182.3,65.9 L183.3,66.2" id="1060"/>
                <path class="unit" d="M182.5,62.4 L161.6,57.2 L164.5,55.1 L185.4,60.3 L182.5,62.4" id="1061"/>
                <path class="unit" d="M199.6,73.1 L181.6,86 L173.9,84.1 L191.9,71.2 L199.6,73.1" id="1062"/>
                <path class="unit" d="M185.6,60.2 L164.7,55 L167.7,52.8 L188.6,58 L185.6,60.2" id="1063"/>
                <path class="unit" d="M159.3,50.8 L141.9,46.5 L145.2,44.1 L162.6,48.4 L159.3,50.8" id="1064"/>
                <path class="unit" d="M156.3,53 L136.9,48.2 L139.8,46.2 L159.2,51 L156.3,53" id="1065"/>
                <path class="unit" d="M162.8,67.6 L165.6,67.3 L170.3,63.9 L171.8,64.3 L173.2,63.3 L175.7,63.9 L168.2,69.3 L164.2,69.7 L162.8,67.6" id="1066"/>
                <path class="unit" d="M164.3,70 L168.4,69.6 L176,64.2 L178.3,64.8 L168.8,71.6 L165.5,72 L164.3,70" id="1067"/>
                <path class="unit" d="M160,63.1 L163.5,60.6 L171,62.5 L169.3,63.7 L170,63.9 L165.3,67.2 L162.7,67.5 L160,63.1" id="1068"/>
                <path class="unit" d="M171.8,61.9 L163,59.7 L161.6,57.4 L173.8,60.4 L171.8,61.9" id="1069"/>
                <path class="unit" d="M178.9,69.3 L171,74.9 L167.6,75.3 L165.5,71.9 L169,71.6 L178.6,64.8 L180.9,65.4 L180.5,65.7 L181.8,66 L177.5,69.1 L178.9,69.3" id="1070"/>
                <path class="unit" d="M170.6,86.3 L172.6,84.9 L175.9,85.7 L173.9,87.2 L170.6,86.3" id="1071"/>
                <path class="unit" d="M173,83.7 L170.9,80.4 L179.8,79.5 L173.6,83.9 L173,83.7" id="1072"/>
                <path class="unit" d="M177.9,89.4 L166.2,97.7 L161.8,96.6 L157.5,95.5 L169.2,87.2 L177.9,89.4" id="1073"/>
                <path class="unit" d="M167.5,86.8 L168.9,87.1 L160.8,92.9 L155.5,91.6 L161.4,87.4 L167.5,86.8" id="1074"/>
                <path class="unit" d="M159.2,94.1 L155.5,93.2 L156.9,92.2 L160.5,93.1 L159.2,94.1" id="1075"/>
                <path class="unit" d="M173.7,99.6 L185.4,91.3 L190.7,92.6 L179,100.9 L173.7,99.6" id="1076"/>
                <path class="unit" d="M178.2,89.5 L185,91.2 L173.3,99.5 L166.5,97.8 L178.2,89.5" id="1077"/>
                <path class="unit" d="M197.7,89.9 L195.2,89.3 L213.2,76.4 L225.7,79.5 L229.2,77 L235.4,78.6 L216.5,92.1 L204.6,89.2 L197.7,89.9" id="1078"/>
                <path class="unit" d="M181.9,86 L199.9,73.1 L207.6,75 L189.6,87.8 L181.9,86" id="1079"/>
                <path class="unit" d="M185.9,102.6 L195.3,95.9 L202.2,97.6 L192.8,104.3 L185.9,102.6" id="1080"/>
                <path class="unit" d="M195,95.8 L185.6,102.5 L179.3,100.9 L191,92.6 L193.6,93.2 L195,95.8" id="1081"/>
                <path class="unit" d="M202.5,97.7 L209.6,97 L212.4,97.7 L203.5,104 L206.1,104.6 L203,106.8 L193.2,104.3 L202.5,97.7" id="1082"/>
                <path class="unit" d="M190,88 L201.7,79.7 L206.6,80.9 L194.9,89.2 L190,88" id="1083"/>
                <path class="unit" d="M228.7,86.2 L230.6,84.9 L231.5,85.1 L229.6,86.4 L233.8,87.4 L221.9,95.9 L216.3,94.5 L215.3,93.2 L226.1,85.5 L228.7,86.2" id="1084"/>
                <path class="unit" d="M214.4,95.3 L211.4,94.5 L209.9,95.6 L213,96.4 L214.4,95.3" id="1085"/>
                <path class="unit" d="M208.1,105.2 L213.9,101 L214.9,101.2 L217.9,99.1 L222.7,100.3 L210.7,108.9 L203.1,107 L206.2,104.8 L208.1,105.2" id="1086"/>
                <path class="unit" d="M222.1,103.9 L230.8,103 L231.6,102.4 L234.7,103.2 L236.3,105.1 L234.5,106.4 L228.8,107 L220.7,105 L222.1,103.9" id="1087"/>
                <path class="unit" d="M219.8,104 L216.9,106.1 L215.5,105.7 L223,100.3 L231.3,102.4 L230.6,102.9 L222,103.8 L221.3,104.3 L219.8,104" id="1088"/>
                <path class="unit" d="M220,104.2 L217.2,106.2 L218.3,106.5 L221.1,104.5 L220,104.2" id="1089"/>
                <path class="unit" d="M237.7,86.6 L236,87.8 L230.2,86.3 L231.9,85.1 L237.7,86.6" id="1090"/>
                <path class="unit" d="M233.2,98.8 L245.1,90.3 L251.3,91.8 L245.7,95.8 L248,99.5 L247.1,99.6 L246.3,99.4 L238.8,100.2 L233.2,98.8" id="1091"/>
                <path class="unit" d="M251.8,91.7 L247.9,90.7 L249.2,89.7 L258.1,91.9 L253.7,95 L255.9,98.5 L248.3,99.3 L246,95.7 L251.8,91.7" id="1092"/>
                <path class="unit" d="M232.9,98.7 L222.2,96 L234.1,87.5 L244.8,90.2 L232.9,98.7" id="1093"/>
                <path class="unit" d="M162.8,48.3 L145.4,44 L151.4,39.7 L168.8,44 L162.8,48.3" id="1094"/>
                <path class="unit" d="M246.3,112.8 L267.8,110.6 L272.2,107.4 L292.9,105.2 L293.9,104.5 L300.2,106.1 L299.6,106.6 L312,109.7 L309.1,111.7 L312.3,112.5 L313.4,111.7 L318.7,113.1 L322.4,110.5 L327.5,111.8 L327.1,112.1 L333.8,113.8 L334.3,114.7 L333.5,115.3 L335.7,118.7 L337.4,119.1 L337.9,119.9 L318,134.1 L315.4,134.4 L314.1,134.1 L313.1,132.5 L305.5,133.3 L306.5,135 L305.3,135.9 L302,136.2 L290.7,133.4 L292.5,132.1 L278.2,128.5 L276.5,129.7 L269.1,127.8 L272.3,125.5 L266.3,124 L264.8,125.1 L249,121.1 L243.4,112.3 L246.3,112.8" id="1095"/>
                <path class="unit" d="M235.3,107.8 L231.3,110.7 L217.6,107.3 L220.5,105.2 L228.7,107.3 L234.5,106.7 L235.3,107.8" id="1096"/>
                <path class="unit" d="M235.9,116.9 L233.3,118.8 L231.1,118.2 L233.7,116.3 L235.9,116.9" id="1097"/>
                <path class="unit" d="M233.9,116.3 L236.7,114.3 L238.9,114.8 L236.1,116.8 L233.9,116.3" id="1098"/>
                <path class="unit" d="M236.9,114.2 L239.1,112.6 L241.3,113.2 L239.1,114.8 L236.9,114.2" id="1099"/>
                <path class="unit" d="M223.2,115.3 L223.8,116 L222.4,117 L212.4,114.5 L211.8,114.9 L205.5,113.3 L206.1,112.9 L209,113.6 L210.7,112.4 L222,115.2 L222.3,115 L223.2,115.3" id="1100"/>
                <path class="unit" d="M225,115.1 L213.6,112.2 L214,111.9 L211.7,111.3 L214.1,109.6 L227.8,113 L225,115.1" id="1101"/>
                <path class="unit" d="M217.4,107.4 L231.1,110.8 L228,113 L214.3,109.6 L217.4,107.4" id="1102"/>
                <path class="unit" d="M212.5,114.8 L222.2,117.2 L215.3,122.2 L194,116.9 L200.3,112.4 L203.5,113.2 L202.6,113.8 L204.3,114.2 L205.2,113.6 L211.9,115.3 L212.5,114.8" id="1103"/>
                <path class="unit" d="M210.5,133 L222.7,136 L222.1,136.5 L218.1,135.5 L216.1,136.9 L207.9,134.8 L210.5,133" id="1104"/>
                <path class="unit" d="M212.6,131.5 L226.7,135 L224,136.9 L222.4,136.5 L223.2,135.9 L210.7,132.8 L212.6,131.5" id="1105"/>
                <path class="unit" d="M216.8,128.5 L248.8,136.5 L243,140.6 L225.4,136.2 L227.1,135 L212.7,131.4 L216.8,128.5" id="1106"/>
                <path class="unit" d="M221.7,125 L253.7,133 L249,136.3 L217,128.4 L221.7,125" id="1107"/>
                <path class="unit" d="M219.8,147.7 L201.5,143.1 L200.9,142.2 L203.4,140.4 L223.1,145.3 L219.8,147.7" id="1108"/>
                <path class="unit" d="M226.8,144.7 L224.7,144.2 L223.3,145.2 L203.6,140.3 L206,138.6 L227.8,144 L226.8,144.7" id="1109"/>
                <path class="unit" d="M227.9,143.9 L206,138.4 L204.7,137.1 L205.7,136.4 L229.9,142.4 L227.9,143.9" id="1110"/>
                <path class="unit" d="M207.8,163.3 L180.8,156.6 L187.2,152 L214.2,158.7 L207.8,163.3" id="1111"/>
                <path class="unit" d="M219.7,154.8 L192.7,148.1 L195.2,146.3 L222.2,153 L219.7,154.8" id="1112"/>
                <path class="unit" d="M222.4,152.9 L195.4,146.2 L197.5,144.7 L224.5,151.4 L222.4,152.9" id="1113"/>
                <path class="unit" d="M205.9,136.3 L207.7,135 L232,141 L230.2,142.3 L205.9,136.3" id="1114"/>
                <path class="unit" d="M214.4,158.6 L187.4,151.9 L192.5,148.3 L219.5,155 L214.4,158.6" id="1115"/>
                <path class="unit" d="M203,110.1 L193.5,116.9 L215.1,122.3 L203.3,130.7 L186.7,126.6 L181.5,130.3 L182.8,130.6 L178,134 L168.6,131.7 L165.3,134 L161.7,133.1 L165,130.8 L155.3,128.4 L153.8,129.4 L147.2,127.8 L148.7,126.7 L144.3,125.6 L141.6,127.6 L136.2,126.3 L141.9,122.3 L136.8,121 L152.7,109.6 L157.8,110.9 L163.8,106.6 L191,113.4 L197.3,108.9 L203,110.1" id="1116"/>
                <path class="unit" d="M185.9,131.4 L196,133.9 L196.6,135 L191.3,135.6 L191.1,135.2 L183.2,133.2 L185.9,131.4" id="1117"/>
                <path class="unit" d="M186.8,126.7 L203.1,130.7 L201,132.2 L184.7,128.2 L186.8,126.7" id="1118"/>
                <path class="unit" d="M188.6,129.4 L200.7,132.4 L197.3,134.9 L196.9,135 L196.2,133.8 L186,131.3 L188.6,129.4" id="1119"/>
                <path class="unit" d="M160.7,164.3 L133.3,157.5 L136.2,155.4 L163.6,162.2 L160.7,164.3" id="1120"/>
                <path class="unit" d="M180.2,160.6 L203.4,166.4 L199.6,169.1 L176.4,163.3 L180.2,160.6" id="1121"/>
                <path class="unit" d="M169.6,158 L128.3,147.7 L133.7,143.9 L175,154.2 L169.6,158" id="1122"/>
                <path class="unit" d="M175.1,154 L133.8,143.7 L139.1,139.9 L180.4,150.2 L175.1,154" id="1123"/>
                <path class="unit" d="M163.8,162.1 L136.4,155.3 L142,151.3 L169.4,158.1 L163.8,162.1" id="1124"/>
                <path class="unit" d="M185,143.6 L187.8,143.4 L188.6,144.5 L187.3,145.4 L183.8,144.5 L185,143.6" id="1125"/>
                <path class="unit" d="M180.8,156.7 L207.6,163.4 L203.5,166.3 L180.3,160.5 L182.3,159.1 L180.8,156.7" id="1126"/>
                <path class="unit" d="M180.6,150.1 L139.3,139.8 L144.3,136.2 L185.6,146.5 L180.6,150.1" id="1127"/>
                <path class="unit" d="M191.6,176.5 L176.3,187.4 L179.6,188.2 L172.4,193.3 L169.1,192.5 L163.7,196.3 L155.3,194.2 L152.5,196.2 L134.4,191.7 L137.2,189.7 L129,187.6 L126.2,189.6 L108.1,185.1 L110.9,183.1 L95.7,179.3 L106.6,171.6 L100,170 L106.7,165.2 L113.1,166.8 L124.8,158.4 L190.5,174.8 L191.6,176.5" id="1128"/>
                <path class="unit" d="M157.6,166.5 L130.2,159.7 L133.1,157.6 L160.5,164.4 L157.6,166.5" id="1129"/>
                <path class="unit" d="M318.6,112.8 L313.3,111.5 L312.2,112.3 L309.7,111.7 L312.4,109.8 L320.3,111.8 L318.6,112.8" id="1130"/>
                <path class="unit" d="M266.7,124 L272.1,125.3 L270.7,126.3 L265.3,125 L266.7,124" id="1131"/>
                <path class="unit" d="M120.9,37.9 L125.7,39.1 L127.3,38 L126.5,37.8 L126.1,38.1 L122.1,37.1 L120.9,37.9" id="1132"/>
                <path class="unit" d="M126,37.9 L122.3,37 L123.9,35.8 L131.5,35 L127.5,37.9 L126.4,37.6 L126,37.9" id="1133"/>
                <path class="unit" d="M133.2,39.7 L138.3,41 L137,42 L131.9,40.7 L133.2,39.7" id="1134"/>
                <path class="unit" d="M80.2,82.6 L86.7,77.9 L106.3,82.8 L108.9,86.9 L101.9,87.7 L98.6,90 L100.7,93.6 L97.8,95.7 L95.4,95.1 L91.6,97.8 L94,98.4 L91.4,100.2 L89,99.7 L85.5,102.2 L88.1,102.8 L87.2,103.4 L72.5,99.8 L66.9,90.8 L69.1,90.6 L67.7,88.1 L76.6,81.8 L80.2,82.6 L80.2,82.6 Z M80.2,82.6" id="1135"/>
                <path class="unit" d="M59.4,93.2 L64.2,92.7 L67.9,98.3 L63.1,98.8 L64,100.2 L56,101.1 L53.1,103.2 L56,107.6 L54.6,107.3 L42.9,108.5 L28.5,112.5 L27.1,113.5 L24.9,113.7 L22.6,113.1 L21.7,111.8 L13.3,112.7 L12.4,111.4 L20.8,110.5 L13.2,99 L4.9,100 L4,98.6 L9,98 L5.3,92.4 L20.1,90.8 L18.7,88.6 L22.4,88.2 L24.6,91.6 L42,89.6 L44.6,93.6 L58.6,92.1 L59.4,93.2 L59.4,93.2 Z M59.4,93.2" id="1136"/>
                <path class="unit" d="M72.4,100 L87.2,103.7 L86.2,104.4 L69.9,106.1 L65.9,100 L71.9,99.3 L72.4,100" id="1137"/>
                <path class="unit" d="M90.7,102.4 L88.4,102.7 L86,102.1 L89.1,99.9 L91.5,100.5 L92.1,101.5 L90.7,102.4" id="1138"/>
                <path class="unit" d="M98.5,96.7 L96.4,98.2 L94.4,98.4 L92.2,97.8 L95.7,95.3 L97.8,95.9 L98.5,96.7" id="1139"/>
                <path class="unit" d="M145.6,55.9 L142,58.5 L116.7,52.2 L123,47.8 L153.7,55.2 L145.6,55.9" id="1140"/>
                <path class="unit" d="M138.3,66.9 L136.3,63.4 L144.6,62.5 L150.4,63.9 L154.5,70.5 L139.3,66.7 L138.3,66.9" id="1141"/>
                <path class="unit" d="M139.2,66.9 L154.6,70.7 L155.9,72.8 L154.7,73.7 L140.3,70.1 L138.3,67 L139.2,66.9" id="1142"/>
                <path class="unit" d="M140.1,70.2 L154.6,73.8 L153.3,74.7 L149.5,75.3 L139.2,72.7 L136.2,68.3 L138.6,68 L140.1,70.2" id="1143"/>
                <path class="unit" d="M139,72.9 L149.4,75.5 L140.4,81.9 L130.2,79.4 L112.9,81.2 L95.4,76.8 L117.2,61.3 L134,65.5 L139,72.9" id="1144"/>
                <path class="unit" d="M144,62 L135.5,62.9 L110.4,56.6 L116.5,52.3 L141.9,58.6 L144,62" id="1145"/>
                <path class="unit" d="M119.6,84.8 L127.7,86.8 L137.8,85.8 L123.4,82.1 L119.6,84.8 L119.6,84.8 Z M119.6,84.8" id="1146"/>
                <path class="unit" d="M127.2,86.8 L115.2,88 L119.6,84.9 L127.2,86.8" id="1147"/>
                <path class="unit" d="M118,91.8 L122.2,91.4 L124.9,95.3 L120.3,95.9 L119.4,96.6 L116,95.8 L115,94 L118,91.8" id="1148"/>
                <path class="unit" d="M111.5,98.9 L112.6,98.1 L113.4,98 L116.3,98.7 L114.5,100 L111.6,99.3 L111.5,98.9" id="1149"/>
                <path class="unit" d="M111.5,99.4 L114.4,100.1 L112.1,101.7 L111.1,101.5 L110.3,102.1 L108.4,101.6 L108.2,101.2 L110.6,99.5 L111.5,99.4" id="1150"/>
                <path class="unit" d="M126.7,90.9 L131.1,90.4 L132.7,92.8 L131.9,93.2 L132.6,94.4 L129.3,94.7 L126.7,90.9" id="1151"/>
                <path class="unit" d="M128.9,94.8 L125.4,95.2 L122.9,91.3 L126.4,90.9 L128.9,94.8" id="1152"/>
                <path class="unit" d="M131.4,90.4 L135.5,90 L137.7,93.6 L134.8,92.9 L132.7,94.4 L132.1,93.3 L132.9,92.9 L131.4,90.4" id="1153"/>
                <path class="unit" d="M151.4,90.4 L150.1,88.6 L160.8,87.5 L155.1,91.6 L154.5,91.7 L152.4,91.2 L152.9,90.9 L151.4,90.4" id="1154"/>
                <path class="unit" d="M150.3,91.7 L149.5,92.3 L150.2,92.5 L148.7,93.6 L143.7,92.3 L141.9,89.5 L149.8,88.7 L151.1,90.6 L152.4,90.9 L151,91.9 L150.3,91.7" id="1155"/>
                <path class="unit" d="M56.2,101.2 L65.6,100.2 L69.6,106.3 L56.4,107.7 L53.5,103.2 L56.2,101.2" id="1156"/>
                <path class="unit" d="M44.3,116.1 L43.6,115 L46.2,113.1 L58.3,111.8 L58.8,111.9 L60,113.7 L51.6,114.6 L51.8,115.2 L44.3,116.1" id="1157"/>
                <path class="unit" d="M37.4,116.8 L43.9,116.1 L43.2,115.1 L38.4,115.6 L37.4,116.6 L37.4,116.8" id="1158"/>
                <path class="unit" d="M103.4,107 L104.4,107.2 L102.4,108.6 L99,107.7 L101.2,106.2 L102,106.1 L103.9,106.6 L103.4,107" id="1159"/>
                <path class="unit" d="M99.1,115.7 L94.3,114.5 L92.4,115.8 L89.1,115 L86.6,116.8 L85.6,116.5 L88.8,114.3 L86.2,110.2 L87.8,109 L88.8,109.3 L90.3,109.1 L93.3,109.9 L95,109.7 L106.5,112.6 L102.2,115.7 L100.1,115.2 L99.1,115.7" id="1160"/>
                <path class="unit" d="M85.7,110.1 L88.3,114.2 L85.2,116.4 L81.9,115.6 L83.8,114.2 L80.9,109.7 L87.2,109 L85.7,110.1" id="1161"/>
                <path class="unit" d="M79.2,111 L79.7,111.7 L76.7,112 L75.7,110.3 L79.2,109.9 L79.8,110.9 L79.2,111" id="1162"/>
                <path class="unit" d="M77.3,112.1 L78.4,114 L77.6,114.5 L73.8,113.5 L72.1,110.8 L72.6,110.5 L75.3,110.2 L76.4,112.1 L77.3,112.1" id="1163"/>
                <path class="unit" d="M70.1,110.9 L70.9,112 L69.8,112.1 L70.1,112.7 L66,113.1 L64.7,111.2 L65.2,111.2 L66.1,111.4 L66.5,111.1 L69.4,110.8 L70.1,110.9" id="1164"/>
                <path class="unit" d="M59.6,111.7 L64.4,111.2 L65.7,113.1 L60.3,113.7 L59.1,112 L59.6,111.7" id="1165"/>
                <path class="unit" d="M282.9,89.9 L284.8,90.4 L282.8,91.8 L280.9,91.3 L282.9,89.9" id="1166"/>
                <path class="unit" d="M347.2,54.4 L345.4,53.9 L343.4,55.3 L345.2,55.8 L347.2,54.4" id="1167"/>
                <path class="unit" d="M328.8,57.7 L330.9,56.3 L329.1,56 L327.1,57.3 L328.8,57.7" id="1168"/>
                <path class="unit" d="M308.3,71.4 L310.1,71.9 L308.2,73.5 L306.2,72.8 L308.3,71.4" id="1169"/>
                <path class="unit" d="M161.3,73.3 L162.6,75.5 L160.4,75.6 L159.2,73.3 L161.3,73.3" id="1170"/>
                <path class="unit" d="M222.4,98.7 L219.7,98.1 L221.2,97 L223.7,97.7 L222.4,98.7" id="1171"/>
                <path class="unit" d="M232,114.7 L229.5,114.1 L230.9,113.1 L233.5,113.7 L232,114.7" id="1172"/>
                <path class="unit" d="M202,136.5 L200.6,137.6 L198.1,137 L199.5,135.9 L202,136.5" id="1173"/>
                <path class="unit" d="M119.9,84.2 L119.6,84.4" id="1176"/>
                <path class="unit" d="M137.7,85.4 L135,84.7" id="1177"/>
                <path class="unit" d="M185.8,140 L187.7,142.8 L184.8,143.1 L183.5,144.1 L173.3,141.6 L174.3,140.9 L165.6,138.7 L169,136.3 L169.5,136.4 L170,136.5 L184.9,140.2 L185.1,140.2 L185.8,140 L185,140.1" id="1178"/>
                <path class="unit" d="M111,102.4 L108.1,101.7 L107.3,101.8 L105.1,103.4 L105.2,103.7 L108,104.6 L111,102.4 L111,102.4 Z M111,102.4" id="1179"/>
                <path class="unit" d="M104.2,104 L102,105.6 L102.1,105.9 L104.1,106.4 L104.7,106 L105.7,106.2 L107.9,104.6 L105.1,103.8 L104.2,104 L104.2,104 Z M104.2,104" id="1180"/>
                <path class="unit" d="M135,84.7 L135,84.7 L137.9,85.4 L140.8,83.2 L140,81.9 L130.1,79.3 L113.1,81.1 L113.8,82.1 L108.2,82.7 L110.9,86.7 L115.1,87.7 L120,84.3 L123.3,81.9 L135,84.7 L135,84.7 Z M135,84.7" id="1182"/>
                <path class="unit" d="M236.9,99.3 L248.8,90.8" id="1183"/>
                <path class="unit" d="M176.6,163.3 L198,168.5 L195.8,170.1 L191.3,169 L188.8,171 L174.4,167.5 L173.8,165.4 L176.6,163.3 L176.6,163.3 Z M176.6,163.3" id="1184"/>
                <path class="unit" d="M188.7,170.9 L191.2,168.9 L195.7,170 L193,171.9 L188.7,170.9 L188.7,170.9 Z M188.7,170.9" id="1185"/>
                <path class="unit" d="M320.6,98.8 L323.9,96.4 L328.4,97.6 L325.1,99.9 L320.6,98.8 L320.6,98.8 Z M320.6,98.8" id="1186"/>
                <path class="unit" d="M299.6,81.9 L287.5,90.5 L320.7,98.8 L324,96.4 L328.5,97.6 L330.5,98.1 L331.6,97.3 L338.7,99 L339.2,98.7 L340.9,99.1 L348.2,93.9 L299.6,81.9 L299.6,81.9 Z M299.6,81.9" id="1187"/>
                <path class="unit" d="M241.8,112.7 L239.5,112.1 L243.2,111.6 L243.7,112.3 L241.8,112.7 L241.8,112.7 Z M241.8,112.7" id="1188"/>
                <path class="unit" d="M261.2,127.2 L264.8,124.7 L248.9,120.7 L243.7,112.4 L241.8,112.8 L233.5,118.7 L231,118 L222.8,123.8 L266.2,134.6 L265.2,135.3 L270,136.5 L277.4,131.2 L261.2,127.2 L261.2,127.2 Z M261.2,127.2" id="1189"/>
                <path class="unit" d="M183.1,133 L178.4,136.3 L171.2,134.5 L169,136 L184.8,140 L185.7,139.9 L184.4,138 L187.8,135.6 L191.1,135.3 L190.9,135 L183.1,133 L183.1,133 Z M183.1,133" id="1190"/>
        </g>
    </g>
</svg>