<?xml version="1.0" encoding="utf-8"?>
<!DOCTYPE svg PUBLIC "-//W3C//DTD SVG 1.1//EN" "http://www.w3.org/Graphics/SVG/1.1/DTD/svg11.dtd">
<svg version="1.1" xmlns="http://www.w3.org/2000/svg" xmlns:xlink="http://www.w3.org/1999/xlink" xml:space="preserve">
<g class="level" id="level2">
            <g class="road">
                <path d="M173.4,107.1 L173.3,107.1 L173.4,107.1 L173.5,107.1 C173.5,107.2 173.4,107.1 173.4,107.1 L173.4,107.1 Z M225.5,96.9 L198.3,102.6 L201.8,111.3 L207.7,110.5 L208.3,111.9 L212.6,110.9 L211.8,109.5 L224.1,107 L224.8,108.4 L229,107.4 L228.3,106.1 L230.5,105.6 L225.5,96.9 L225.5,96.9 Z M119.2,177 L102.6,151.3 L100.8,147.6 C100.4,147.8 98.3,148.9 95.3,150.6 C92.2,152.3 88.1,154.7 83.6,157.4 C79.1,160.1 74.2,163.1 69.8,166.1 C65.3,169.1 61.2,172.2 58.5,174.7 C55.7,177.3 52.8,180.7 49.9,184.5 C47,188.3 44.1,192.4 41.5,196.3 C38.8,200.3 36.5,204 34.8,206.9 C33,209.8 31.9,211.7 31.7,212.1 C31.5,212.4 30.4,214.3 28.8,217 C27.2,219.8 25.1,223.5 22.9,227.6 L66.4,218.1 L114.2,185.1 L112.4,182.3 L119.7,177.6 L119.2,177 L119.2,177 Z M158.5,109.1 L158.5,109.1 L158.5,109.1 L158.5,109.1 Z M154.5,111.2 C152.4,112.3 149.6,113.8 146.4,115.5 C143.1,117.3 139.4,119.3 135.7,121.4 C131.9,123.5 128,125.8 124.4,127.9 C121,129.9 118.9,132.4 117.8,135 C116.7,137.7 116.5,140.7 116.9,143.7 C117.3,146.8 118.4,149.9 119.6,152.9 C120.9,155.9 122.4,158.7 123.6,161 C123.7,161.2 123.8,161.3 123.9,161.5 C124,161.6 124.1,161.8 124.1,161.9 C124.2,162 124.3,162.2 124.3,162.3 C124.4,162.4 124.5,162.6 124.5,162.7 C125.7,164.9 127.6,165.9 129.7,166.3 C131.9,166.6 134.3,166.3 136.6,165.6 C138.9,164.9 141,164 142.6,163.2 C144.2,162.4 145.3,161.7 145.5,161.6 C145.8,161.4 147.7,160.3 150.5,158.7 C153.3,157.1 157,154.9 161,152.4 C165,149.9 169.4,147.2 173.7,144.4 C177.9,141.7 182,139 185.5,136.4 C188.1,134.5 189.6,132.3 190.2,130.1 C190.8,127.9 190.6,125.6 189.9,123.5 C189.2,121.4 188.1,119.3 187,117.5 C185.8,115.7 184.6,114.2 183.5,113.1 C183.2,112.8 182.9,112.4 182.6,112.2 L181.9,111.5 L181.5,111.1 L181.3,110.9 L180.9,110.5 C180.6,110.3 180.2,110 179.6,109.7 C179,109.4 178.3,109 177.3,108.5 C176.4,108.1 175.2,107.6 173.9,107.2 C172.1,106.6 170.2,106.4 168.5,106.4 C167.2,106.4 165.9,106.6 164.7,106.9 L163.5,107.2 C163.8,107.1 164.2,107 164.6,106.9 C164.2,107 163.9,107.1 163.5,107.2 C162.7,107.4 161.9,107.7 161.3,107.9 L161.3,107.9 C161.5,107.8 161.8,107.7 162,107.7 C161.8,107.8 161.5,107.9 161.3,107.9 L161.4,107.9 L161.3,107.9 C161.2,107.9 161.2,107.9 161.1,108 C160.9,108.1 160.8,108.1 160.7,108.2 L160.7,108.2 L160.6,108.2 C160.4,108.3 160.2,108.4 160,108.4 L159.9,108.4 C159.9,108.4 159.9,108.4 159.8,108.4 L159.8,108.4 L159.2,108.7 C159,108.8 158.9,108.9 158.7,108.9 L158.7,108.9 C158.6,109 158.5,109 158.4,109 L158.4,109 C158.3,109 158.3,109.1 158.3,109.1 C158.3,109.1 158.4,109.1 158.4,109 L158.4,109 C158.3,109 158.3,109.1 158.3,109.1 C157.8,109.5 156.5,110.2 154.5,111.2 L154.5,111.2 Z M266.9,89.2 L241.9,93.9 L247.4,102 L251.4,101.5 L252.3,102.9 L256.7,102 L255.8,100.7 L273.1,97.7 L266.9,89.2 L266.9,89.2 Z M266,84.3 C265.9,84.3 265.9,84.3 266,84.3 L266,84.3 L266,84.3 Z M243.5,41.9 C244,41.7 244.5,41.5 245,41.5 C245.5,41.5 246,41.4 246.5,41.4 C247,41.4 247.5,41.5 247.9,41.5 C248.4,41.6 248.8,41.7 249.2,41.8 C249,41.6 248.7,41.4 248.5,41.2 C248.3,41 248,40.8 247.8,40.6 C247.6,40.4 247.4,40.2 247.1,40 C246.9,39.8 246.7,39.6 246.4,39.4 L201,59.2 L218.1,72.8 L225,69.6 L227,71.1 L224.3,72.4 L236.8,82.1 L242.2,81.9 L247.6,79.2 L263.3,71.4 L258.1,67.9 L263.7,65.2 L266.2,64 L265.9,59.8 L257.6,54.6 L253.8,56.4 L242.1,48.9 L246,47.2 L245,46.6 C245,46.6 245,46.6 244.9,46.6 C244.7,46.5 244.3,46.2 243.9,45.9 C243.5,45.6 243,45.2 242.7,44.7 C242.4,44.3 242.2,43.8 242.3,43.4 C242.4,42.7 242.7,42.3 243.5,41.9 L243.5,41.9 Z M120.4,113 C120.1,113.2 119.9,113.4 119.6,113.7 L119.5,113.8 C119.8,113.5 120.1,113.2 120.4,113 L120.4,113 Z M265.6,56.2 C267.2,57.6 268.7,58.9 270.1,60.1 C268.7,58.9 267.2,57.6 265.6,56.2 L265.6,56.2 Z M272.3,62 C271.6,61.4 271,60.9 270.3,60.3 L270.1,60.1 L270.3,60.3 C270.9,60.8 271.6,61.4 272.3,62 L272.3,62 Z M134.5,94.6 L139.7,98.4 C139.7,98.4 139.9,98.3 140.1,98.1 C140.4,97.9 140.8,97.6 141.3,97.2 C141.9,96.8 142.6,96.3 143.4,95.7 C144.3,95.1 145.3,94.4 146.6,93.5 C149.7,91.9 152.1,90.6 154.2,89.5 C156.3,88.4 158.2,87.6 160.2,86.8 C162.2,86 164.2,85.2 166.8,84.4 C169.3,83.5 172.3,82.6 176.1,81.4 C179.9,80.2 183.8,79.3 187.7,78.5 C191.5,77.8 195.2,77.2 198.5,76.9 C201.8,76.5 204.6,76.3 206.7,76.1 C208.8,76 210.1,75.9 210.4,75.9 L210.4,75.6 C210.4,75.4 210.4,75.2 210.5,75 C210.6,74.8 210.7,74.5 211,74.2 C211.2,73.9 211.6,73.7 212.1,73.4 C212.6,73.2 213.1,73.1 213.6,73 C214.1,73 214.6,73 215,73.1 C215.4,73.2 215.8,73.3 216,73.4 C216.3,73.5 216.4,73.6 216.5,73.6 L199.5,60 L198.7,60.3 C198.6,60.3 198,60.5 197.2,60.8 C196.3,61.1 195.2,61.4 194,61.8 C192.8,62.1 191.5,62.5 190.4,62.7 C189.3,62.9 188.3,63.1 187.7,63 C187.1,62.9 186.5,63 185.9,63.1 C185.3,63.2 184.8,63.4 184.3,63.5 C183.8,63.7 183.5,63.8 183.2,64 C182.9,64.1 182.8,64.2 182.7,64.3 C182.7,64.3 182.6,64.3 182.5,64.4 C182.5,64.4 182.4,64.4 182.4,64.5 C182,64.7 181.4,64.9 180.5,65.3 C180.4,65.3 180.3,65.4 180.1,65.5 C179.1,65.9 177.8,66.5 176.3,67.1 C176.1,67.2 175.8,67.3 175.6,67.4 C173.7,68.2 171.5,69.1 169.4,70 L168.8,70.3 C167.1,71 165.3,71.8 163.8,72.4 C163.6,72.5 163.4,72.6 163.3,72.6 C163.1,72.7 162.8,72.8 162.6,72.9 C161.9,73.2 161.3,73.4 160.7,73.6 C159.9,73.9 159.3,74.1 158.6,74.3 C157.4,74.7 156.4,75 155.6,75.1 C154.8,75.3 154.2,75.3 153.6,75.4 C153,75.4 152.4,75.5 151.7,75.5 C151,75.6 150.4,75.7 149.8,75.8 C149.3,75.9 148.8,76 148.4,76.1 C148,76.2 147.7,76.3 147.5,76.4 C147.3,76.5 147.2,76.5 147.2,76.5 L127.6,84.7 L134.8,94.1 L134.5,94.6 L134.5,94.6 Z M254.8,46.8 C256.7,48.5 258.5,50.1 260.3,51.7 C258.5,50.1 256.7,48.4 254.8,46.8 L254.8,46.8 Z M110.8,119.9 C109.4,120.7 108,121.4 106.8,122.1 C108.1,121.4 109.4,120.7 110.8,119.9 L110.8,119.9 Z M100.6,125.2 C100.7,125.2 101,125 101.5,124.8 C102,124.6 102.8,124.2 103.7,123.8 C104.6,123.3 105.7,122.8 106.9,122.2 C108.1,121.6 109.4,120.8 110.9,120 C112.3,119.2 113.8,118.2 115.3,117.1 C116.8,116 118.2,114.9 119.5,113.9 C119.5,113.9 119.6,113.9 119.6,113.8 C120.3,113.2 121,112.7 121.6,112.2 C121.5,112.2 121.5,112.3 121.4,112.3 L121.6,112.1 L121.7,112 C121.7,112 121.7,112 121.8,111.9 L121.8,111.9 C121.9,111.8 122.1,111.7 122.2,111.6 L122.2,111.6 C122.3,111.5 122.4,111.4 122.5,111.4 C122.6,111.3 122.7,111.3 122.7,111.2 L122.5,111.4 C122.6,111.3 122.7,111.3 122.7,111.2 C123.5,110.5 124,110.1 124.1,110 L138.2,99.5 L124.7,85.9 L89.5,97.3 L90.2,98.6 L87,99.9 L100.6,125.2 L100.6,125.2 Z M36,119.7 C35.8,119.8 35.6,119.9 35.5,120 C35.3,120.1 35.1,120.3 35,120.5 C34.9,120.7 34.8,120.9 34.8,121.1 C34.8,121.3 34.6,122.5 34.1,124.3 C33.7,126 33.1,128.3 32.4,130.6 C31.8,133 31.1,135.3 30.6,137.2 C30.1,139.1 29.7,140.5 29.6,140.7 C29.6,140.9 29.4,141.7 29.1,143 C28.8,144.3 28.5,145.9 28.1,147.7 C27.8,149.5 27.5,151.3 27.3,153 C27.1,154.6 27,156 27.2,156.8 L27.2,157 L27.2,157.1 C27.2,157.1 27.2,157.2 27.3,157.2 C27.3,157.2 27.3,157.3 27.4,157.3 C27.7,157.7 28.5,158 29.6,158.1 C30.2,158.2 30.9,158.2 31.7,158.1 L31.6,158.1 L31.7,158.1 C32,158.1 32.4,158.1 32.8,158 L33.2,158 C33.4,158 33.6,158 33.7,157.9 C33.8,157.9 34,157.9 34.1,157.8 L34.1,157.8 L34.3,157.8 L34.5,157.8 C34.9,157.7 35.2,157.7 35.6,157.6 C35.7,157.6 35.9,157.6 36,157.5 C36.5,157.4 37,157.3 37.6,157.2 L37.7,157.2 L37.6,157.2 L37.7,157.2 L38.9,156.9 C39,156.9 39.1,156.9 39.1,156.8 C39.3,156.8 39.4,156.7 39.6,156.7 C40,156.6 40.4,156.5 40.8,156.3 C40.9,156.3 41,156.2 41.1,156.2 C41.2,156.2 41.3,156.1 41.4,156.1 C41.8,156 42.2,155.8 42.6,155.7 C42.8,155.6 42.9,155.6 43.1,155.5 C43.6,155.3 44.2,155 44.7,154.8 C46.6,153.9 51,151.7 56.5,148.8 C57.1,148.5 57.6,148.2 58.2,147.9 C58.3,147.8 58.4,147.8 58.5,147.7 C63.4,145.1 69.1,142.1 74.5,139.3 C80.5,136.1 86.3,133 90.7,130.7 C92.2,129.9 93.6,129.2 94.7,128.5 C95.2,128.2 95.6,128 96,127.8 L96,127.8 C96.4,127.6 96.7,127.4 97,127.2 C97.7,126.8 98.2,126.5 98.4,126.4 L85.1,101.1 L81.7,102.5 L81,101.1 L36,119.7 C36.3,119.6 36.2,119.7 36,119.7 L36,119.7 Z M106.9,122.1 C105.7,122.7 104.6,123.3 103.7,123.7 C104.6,123.3 105.7,122.7 106.9,122.1 L106.9,122.1 Z M40.4,82.1 C39.9,84.3 39.3,87.3 38.6,90.5 C37.9,93.8 37.2,97.3 36.6,100.5 C36,103.7 35.4,106.5 35.2,108.2 C35.2,108.4 35.1,108.6 35.1,108.8 L35.1,109.4 L35.1,109.9 C35.1,110.1 35.2,110.2 35.2,110.3 C35.5,111.2 36.1,111.8 36.9,112.1 C37.7,112.4 38.6,112.4 39.5,112.3 C40.4,112.2 41.3,112 42,111.8 C42.7,111.6 43.2,111.4 43.2,111.4 L80.5,96.3 L65.5,67.3 C65.4,67.4 64.5,67.6 63.3,68.1 C62.1,68.5 60.4,69.1 58.6,69.8 C56.8,70.5 54.8,71.2 52.8,71.9 C50.9,72.6 49,73.3 47.5,73.8 C46,74.3 44.8,74.9 43.9,75.4 C43,75.9 42.4,76.4 42,76.8 C41.6,77.2 41.4,77.6 41.3,77.8 C41.2,78.1 41.2,78.2 41.2,78.3 C41.1,78.5 40.8,80 40.4,82.1 L40.4,82.1 Z M115.3,117 C113.8,118.1 112.3,119.1 110.9,119.9 C112.3,119.1 113.8,118 115.3,117 L115.3,117 Z M119.5,113.7 C118.2,114.7 116.8,115.9 115.3,116.9 C116.7,115.9 118.2,114.8 119.5,113.7 L119.5,113.7 Z M130.4,198.6 C130.4,198.5 130.4,198.4 130.5,198.3 L130.5,198.3 C130.4,198.5 130.4,198.6 130.4,198.6 L130.4,198.6 Z M191.9,111.4 C191.3,110.9 190.7,110.3 190,109.6 C190.7,110.2 191.3,110.8 191.9,111.4 L191.9,111.4 Z M133.8,185 C133.8,185.1 133.7,185.2 133.7,185.3 C133.9,184.5 134.2,183.8 134.4,183 C134.2,183.7 134,184.4 133.8,185 L133.8,185 Z M187.1,104.1 C187.3,103.3 187.6,102.5 188,101.7 C187.6,102.5 187.3,103.3 187.1,104.1 L187.1,104.1 Z M186.8,106.8 C186.8,105.9 186.9,105 187.1,104.1 C186.9,105 186.8,105.9 186.8,106.8 L186.8,106.8 Z M193.4,112.9 L191.9,111.4 C192.5,111.9 193,112.4 193.4,112.9 L193.4,112.9 Z M194.7,114.1 L193.5,112.9 L194.7,114.1 L194.7,114.1 Z M224.6,19.7 C223.7,18.8 222.8,18.1 222,17.4 C222.8,18.1 223.6,18.9 224.6,19.7 L224.6,19.7 Z M220.1,15.6 C219.3,14.9 218.8,14.4 218.5,14.2 C218.7,14.4 219.3,14.9 220.1,15.6 L220.1,15.6 Z M310.1,88.9 C308.4,87.5 306.1,85.6 303.3,83.2 C300.5,80.9 297.3,78.2 293.8,75.2 C290.4,72.3 286.8,69.2 283.1,65.9 L283.1,65.9 L282.9,65.7 C282.8,65.7 282.8,65.6 282.8,65.6 L282.7,65.5 C282.7,65.5 282.4,65.3 282.1,65 C281.6,64.6 281.2,64.2 280.7,63.8 C280,63.3 279.4,62.7 278.7,62.2 C278.1,61.7 277.4,61.1 276.8,60.6 C276.2,60.1 275.5,59.5 274.9,59 C270.2,55 263.9,49.7 257.5,44.1 C251.4,38.9 245.2,33.5 239.8,28.8 C234.7,24.3 230.2,20.4 227.1,17.7 C224.1,15 222.2,13.4 222.1,13.3 L218.4,14.1 C218.4,14.1 219,14.7 220.1,15.6 C221.2,16.6 222.7,18 224.6,19.7 C226.5,21.5 228.9,23.6 231.5,25.9 C234.2,28.3 237.2,31 240.3,33.8 L240.3,33.8 C240.2,33.7 240.1,33.7 240.1,33.6 C240,33.5 240,33.5 239.9,33.5 C239.8,33.5 239.8,33.4 239.7,33.4 C239.7,33.4 239.6,33.4 239.6,33.3 L208.5,15 L198.3,18.7 L210,26.1 L208.8,26.5 L231.5,40.9 L235.4,39.3 L237.2,40.4 L239.1,39.6 L236.3,37.9 C236.3,37.9 236.5,37.8 236.8,37.7 C237.1,37.6 237.4,37.4 237.9,37.3 C238.3,37.1 238.8,36.9 239.3,36.7 C239.8,36.5 240.3,36.3 240.8,36.1 C241,36 241.2,35.9 241.3,35.8 C241.4,35.7 241.5,35.6 241.5,35.4 C241.5,35.3 241.5,35.1 241.4,35 C241.3,34.9 241.2,34.7 241.1,34.6 C241.6,35 242,35.4 242.5,35.8 C243,36.2 243.4,36.6 243.9,37 C244.4,37.4 244.8,37.8 245.3,38.3 C245.8,38.7 246.2,39.1 246.7,39.6 C246.9,39.8 247.1,40 247.4,40.2 C247.6,40.4 247.8,40.6 248.1,40.8 C248.3,41 248.6,41.2 248.8,41.4 C249,41.6 249.3,41.8 249.5,42 C251.4,43.7 253.2,45.3 255.1,46.9 C257,48.6 258.8,50.2 260.6,51.8 C262.4,53.4 264.2,54.9 265.8,56.4 C267.5,57.9 269.1,59.2 270.5,60.5 C271.2,61.1 271.8,61.6 272.5,62.2 C273.2,62.8 273.8,63.3 274.5,63.9 C275.2,64.5 275.8,65 276.5,65.6 L278.3,67.1 L278.6,67.4 L278.7,67.5 C278.8,67.6 278.8,67.7 278.9,67.8 C278.9,67.7 278.8,67.7 278.8,67.6 C278.9,67.7 278.9,67.8 279,67.9 L279,67.9 C279.1,68 279.1,68.2 279.2,68.3 C279.3,68.5 279.3,68.7 279.3,68.9 C279.4,69.6 279.2,70.6 278.4,71.8 C277.8,72.7 276.8,73.7 275.3,74.8 C275.2,74.9 275.1,74.9 275,75 C274.5,75.3 274,75.7 273.4,76 C270.7,77.6 267,79.5 261.6,81.5 C260.5,81.9 259.4,82.3 258.2,82.7 C259.4,82.3 260.5,81.9 261.6,81.5 C260.5,81.9 259.4,82.3 258.2,82.7 C258,82.8 257.7,82.9 257.5,82.9 C255.2,83.7 252.8,84.4 250.3,85 C250,85.1 249.8,85.1 249.5,85.2 L249.5,85.2 C246.4,86 243.3,86.8 240.1,87.4 L239.9,87.4 L240.1,87.4 L239.9,87.4 C238,87.8 236.1,88.2 234.2,88.5 C233.7,88.6 233.3,88.7 232.8,88.8 C232,88.9 231.3,89.1 230.6,89.2 C230.4,89.2 230.3,89.3 230.1,89.3 C229.3,89.4 228.4,89.6 227.6,89.7 C227.4,89.7 227.2,89.8 227,89.8 C226.2,89.9 225.4,90 224.7,90.2 C224.5,90.2 224.2,90.3 224,90.3 C223.2,90.4 222.4,90.5 221.7,90.6 C221.4,90.6 221.2,90.7 220.9,90.7 C220.5,90.8 220.1,90.8 219.7,90.9 C219.5,90.9 219.3,91 219.1,91 C218.9,91 218.6,91.1 218.4,91.1 L218.4,91.1 C218,91.2 217.6,91.2 217.2,91.3 C216.8,91.4 216.3,91.4 215.9,91.5 C215.5,91.5 215.1,91.6 214.8,91.6 C214.4,91.7 213.9,91.7 213.5,91.8 C213.1,91.8 212.7,91.9 212.4,91.9 C212,91.9 211.6,92 211.2,92 C210.8,92 210.5,92.1 210.1,92.1 C209.7,92.1 209.4,92.2 209,92.2 C208.6,92.2 208.3,92.3 207.9,92.3 C207.5,92.3 207.2,92.4 206.9,92.4 C206.6,92.4 206.3,92.5 205.9,92.5 C205.5,92.5 205.2,92.6 204.9,92.6 C204.6,92.6 204.3,92.7 204,92.7 C203.6,92.7 203.3,92.8 203,92.8 C202.8,92.8 202.5,92.8 202.3,92.9 L201.8,92.9 L201.3,92.9 L201.3,92.9 L200.9,92.9 L200.7,92.9 L200.7,92.9 L200.6,92.9 C200.3,92.9 200,93 199.6,93 L199.1,93 C198.8,93 198.5,93 198.2,93.1 L197.7,93.1 C197.5,93.1 197.2,93.1 197,93.2 L196.5,93.2 L196,93.2 L195.5,93.2 L195.1,93.2 L194.7,93.2 L194.4,93.2 L194.1,93.2 L194.8,93.2 L194.9,93.2 L195.7,93.2 L195.9,93.2 C196.2,93.2 196.4,93.2 196.7,93.1 L197,93.1 C197.3,93.1 197.6,93.1 197.9,93 L198.3,93 L198.9,93 C195.8,93.2 193.8,93.3 193.5,93.4 C193.1,93.4 191.4,93.5 188.6,93.9 C185.7,94.3 181.7,95 176.6,96.2 C171.5,97.5 165.3,99.3 158,102 C150.6,104.7 142,108.4 132.3,113.2 C131.9,113.4 131.6,113.6 131.2,113.8 C130.8,114 130.5,114.2 130.1,114.4 C129.7,114.6 129.4,114.8 129,115 C128.6,115.2 128.3,115.4 127.9,115.6 C129.4,114.3 130.9,112.9 132.6,111.6 C134.3,110.2 136,108.8 137.9,107.5 C139.7,106.1 141.6,104.8 143.6,103.4 C145.6,102.1 147.6,100.8 149.7,99.6 C155,96.5 160.2,93.9 165.2,91.8 C170.2,89.7 175,88 179.6,86.6 C184.2,85.2 188.6,84.2 192.6,83.3 C196.7,82.5 200.4,81.9 203.8,81.5 C206.8,81.1 209.4,81.1 211.6,81.2 C213.9,81.3 215.8,81.7 217.4,82.2 C219,82.7 220.3,83.2 221.4,83.8 C222.4,84.4 223.2,84.9 223.7,85.3 C223.8,85.4 224,85.5 224.1,85.6 L224.4,85.9 L224.6,86.1 L224.7,86.2 L227.3,85.4 L229.9,84.6 L229.7,84.4 L229.4,84.1 C229.3,84 229.1,83.8 228.9,83.7 C228.7,83.5 228.5,83.4 228.3,83.2 C228,83 227.7,82.7 227.4,82.5 C227.1,82.3 226.7,82 226.2,81.7 C225.8,81.4 225.3,81.2 224.8,80.9 C224.3,80.6 223.8,80.4 223.2,80.1 C222.2,79.7 221,79.2 219.7,78.8 C218.4,78.4 216.8,78.1 215.1,77.8 L215.1,77.8 C213.8,77.6 212.4,77.5 210.9,77.4 L210.5,77.4 L210.4,77.4 L210.1,77.4 L209.4,77.4 L209.4,77.4 L208.9,77.4 L207.8,77.4 L207.7,77.4 C207.2,77.4 206.7,77.4 206.1,77.5 L206.1,77.5 C205.7,77.5 205.2,77.6 204.7,77.6 L204.4,77.6 L204.4,77.6 L204.2,77.6 C203.7,77.7 203.1,77.7 202.6,77.8 C203.1,77.7 203.7,77.7 204.2,77.6 C203.7,77.7 203.1,77.7 202.6,77.8 C199.1,78.2 195.2,78.8 191,79.7 C186.8,80.5 182.2,81.6 177.5,83.1 C172.7,84.5 167.7,86.3 162.5,88.4 C157.3,90.6 151.8,93.2 146.3,96.4 C141.8,99 137.6,101.8 133.8,104.6 C129.9,107.5 126.3,110.4 123.3,113 C120.2,115.7 117.6,118.2 115.5,120.2 C113.5,122.2 112.1,123.7 111.5,124.3 L111.4,124.4 L111.3,124.5 L111.2,124.6 C111.2,124.6 111.2,124.6 111.2,124.7 L111.2,124.7 C111.2,124.7 111.2,124.7 111.2,124.6 C111.2,124.6 111.2,124.6 111.3,124.5 L111.4,124.4 L111.5,124.3 C109,125.6 106.6,127 104.2,128.3 C101.8,129.6 99.4,131 97.1,132.3 L90.2,136.2 C87.9,137.5 85.8,138.8 83.6,140 L83.5,140.1 C78.9,142.8 74.7,145.3 70.8,147.6 C66.9,150 63.4,152.1 60.5,153.9 C57.5,155.7 55.1,157.3 53.4,158.4 C51.6,159.5 50.5,160.2 50.2,160.5 C50,160.6 49.5,160.9 48.8,161.3 L48.2,161.6 C47.8,161.8 47.3,162.1 46.7,162.4 C46.4,162.6 46.1,162.7 45.8,162.9 C44.4,163.7 42.6,164.6 40.5,165.7 C39,166.5 37.3,167.3 35.5,168.2 C35,168.5 34.4,168.7 33.8,169 C32.1,169.8 30.3,170.7 28.4,171.5 C27.2,172.1 25.9,172.6 24.6,173.2 C24.5,173.2 24.4,173.3 24.3,173.3 C23.1,173.8 21.8,174.4 20.5,174.9 C20.4,174.9 20.3,175 20.2,175 C14.5,177.4 8.1,179.9 1.5,182.2 L0.8,189.2 C2.1,188.8 3.4,188.3 4.6,187.8 C5.9,187.3 7.1,186.9 8.3,186.4 C9.5,185.9 10.7,185.5 11.9,185 C13.1,184.5 14.3,184.1 15.4,183.6 L15.4,183.6 L15.4,183.8 L15.4,184.4 L15.4,184.6 L15.4,185.3 C15.4,185.7 15.3,186.2 15.2,186.8 C15.2,187.1 15.1,187.3 15.1,187.6 L15.1,187.9 C15.1,188 15.1,188.1 15,188.2 C14.9,188.5 14.9,188.8 14.8,189.1 C14.8,189.3 14.7,189.5 14.7,189.7 C14.6,190 14.6,190.3 14.5,190.6 C14.4,190.8 14.4,191.1 14.3,191.3 C14.2,191.6 14.1,192 14,192.3 C13.9,192.5 13.8,192.8 13.7,193.1 C13.6,193.5 13.5,193.8 13.3,194.2 L13.3,194.3 C12.4,196.9 11.1,200 9.2,203.7 C9.2,203.8 9.1,203.9 9.1,204 C9.1,203.9 9.2,203.8 9.2,203.7 C8.8,204.5 8.4,205.3 7.9,206.2 C7.9,206.3 7.8,206.3 7.8,206.4 C7.6,206.9 7.3,207.3 7.1,207.8 C6.9,208.1 6.7,208.5 6.5,208.8 C6.3,209.2 6.1,209.6 5.8,210 C5.7,210.2 5.5,210.5 5.4,210.7 C5.1,211.2 4.8,211.7 4.5,212.3 C4.4,212.4 4.4,212.5 4.3,212.6 C3.9,213.2 3.5,213.9 3.1,214.5 C3,214.7 2.9,214.8 2.8,215 C2.4,215.7 1.9,216.4 1.5,217.1 C2,216.4 2.4,215.7 2.8,215 C2.4,215.7 1.9,216.4 1.5,217.1 L8.9,218.8 C12.5,213 15.2,207.9 17.3,203.6 C19.3,199.4 20.8,195.7 21.8,192.7 C22.8,189.7 23.3,187.2 23.6,185.1 C23.9,183 23.9,181.4 23.8,180.1 C28.1,178.2 32.1,176.3 35.6,174.6 C39.1,172.9 42.1,171.3 44.6,170 C47.1,168.7 49.1,167.5 50.5,166.7 C51.9,165.9 52.7,165.4 52.9,165.3 L53.1,165.2 C53.1,165.2 53.3,165.1 53.5,164.9 C53.7,164.7 54.1,164.5 54.6,164.2 C55.1,163.9 55.6,163.5 56.3,163.1 C57,162.7 57.7,162.2 58.6,161.6 C53.9,166.5 49.3,171.7 45,176.9 C40.5,182.2 36.4,187.4 32.7,192.1 C28.9,197 25.8,201.2 23.4,204.5 C21,207.8 19.4,210 19,210.6 L25.9,213.2 C26,213.1 28.6,209.3 32.8,203.4 C36.9,197.8 42.4,190.3 48.6,182.6 C54.5,175.2 61.1,167.5 67.7,160.7 C74.1,154.2 80.5,148.4 86.8,144.2 C87.8,143.6 88.7,143.1 89.7,142.5 C90.7,141.9 91.7,141.3 92.7,140.8 C93.7,140.2 94.7,139.6 95.7,139 C96.7,138.4 97.7,137.8 98.8,137.2 L98.8,137.2 L119.2,170 C119.2,170 119.2,170.1 119.3,170.1 C119.4,170.2 119.5,170.3 119.6,170.5 C119.7,170.7 119.8,170.9 120,171.1 C120.1,171.3 120.3,171.6 120.4,171.9 C120.6,172.3 120.9,172.8 121.1,173.4 C121.3,174 121.5,174.6 121.6,175.2 C121.7,175.8 121.8,176.5 121.8,177.3 C121.8,178 121.7,178.8 121.6,179.6 L121.3,180.8 L121.3,180.8 C121.2,181.1 121,181.4 120.9,181.7 C120.8,181.8 120.8,181.9 120.7,182.1 C120.5,182.4 120.4,182.7 120.2,183 C120.2,183.1 120.1,183.1 120.1,183.2 C119.9,183.6 119.6,183.9 119.3,184.3 L119.1,184.5 C118.9,184.8 118.6,185.1 118.4,185.3 C118.3,185.4 118.2,185.5 118.1,185.7 L117.4,186.4 C117.3,186.5 117.1,186.6 117,186.8 C116.8,187 116.6,187.2 116.4,187.3 L116.2,187.5 C116.1,187.6 115.9,187.7 115.8,187.8 C115.7,187.9 115.5,188 115.4,188.1 C115.1,188.3 114.8,188.6 114.5,188.8 C110.1,191.9 104.8,195.9 99.1,200.3 C93.3,204.8 87,209.8 81.2,214.5 C75.2,219.3 69.7,223.8 65.6,227.3 C61.4,230.8 58.5,233.1 58.1,233.5 L62.3,240.8 C62.4,240.7 65.1,238.4 69.3,234.9 C69.8,234.5 70.4,234 70.9,233.5 C72,232.6 73.2,231.5 74.5,230.5 C77.7,227.8 81.3,224.8 85,221.7 C85.3,221.4 85.7,221.1 86.1,220.8 C91,216.8 96.1,212.6 101,208.6 C101.7,208 102.4,207.4 103.2,206.9 C103.3,206.8 103.4,206.7 103.6,206.6 C107.1,203.8 110.5,201.2 113.6,198.8 C113.7,198.8 113.7,198.7 113.8,198.7 C115,197.8 116.1,197 117.2,196.2 L117.2,196.2 C117.6,195.9 117.9,195.7 118.2,195.4 L118.2,195.4 C118.4,195.3 118.6,195.1 118.8,195 C119.4,194.6 120,194.1 120.6,193.7 C120.7,193.6 120.8,193.6 120.9,193.5 C121.2,193.3 121.4,193 121.7,192.8 C121.9,192.6 122.2,192.4 122.4,192.2 L122.5,192.1 C122.6,192.1 122.6,192 122.6,192 C122.7,191.9 122.9,191.8 123,191.6 L124,190.6 C124,190.5 124.1,190.5 124.1,190.4 C124.5,189.9 124.9,189.5 125.3,189 L125.4,188.9 C125.7,188.6 125.9,188.2 126.2,187.9 C126.3,187.8 126.4,187.6 126.5,187.5 C126.6,187.4 126.6,187.3 126.7,187.2 C127,186.7 127.3,186.3 127.6,185.8 L127.6,185.8 C127.7,185.7 127.7,185.6 127.7,185.5 C128,185 128.2,184.5 128.5,184 L128.5,184 L129.1,182.5 L129.1,182.5 C129.1,182.4 129.1,182.4 129.2,182.3 C129.2,182.2 129.2,182.2 129.3,182.1 L129.3,182 C129.3,181.9 129.4,181.8 129.4,181.8 C129.5,181.6 129.5,181.4 129.6,181.2 L129.6,181.1 L129.6,181 C129.6,180.9 129.7,180.8 129.7,180.6 C129.7,180.4 129.8,180.2 129.8,180 C130.1,178.7 130.1,177.5 130.1,176.3 C130.1,175.2 129.9,174.1 129.7,173.1 C129.5,172.1 129.2,171.2 128.9,170.3 C128.6,169.5 128.2,168.7 127.9,168.1 C127.7,167.8 127.5,167.4 127.3,167.2 C127.1,166.9 126.9,166.7 126.8,166.4 C126.6,166.2 126.5,166 126.4,165.8 C126.3,165.6 126.2,165.5 126.1,165.4 L104,133.6 C106.4,132.2 108.9,130.8 111.5,129.4 C114,128 116.6,126.6 119.1,125.2 C121.6,123.8 124.2,122.4 126.8,121.1 C129.4,119.7 132,118.4 134.6,117.1 C137.8,115.5 140.9,114 143.8,112.6 C146.7,111.3 149.5,110 152.1,108.9 C154.7,107.8 157.2,106.8 159.6,105.9 C162,105 164.2,104.2 166.4,103.5 L166.4,103.5 C167.1,103.6 168.1,103.8 169.3,104 C170.5,104.3 172,104.7 173.5,105.2 C175,105.7 176.7,106.4 178.3,107.2 C179.9,108.1 181.5,109.1 182.8,110.4 C183.6,111.2 184.4,111.8 185,112.5 C185.7,113.1 186.3,113.7 186.8,114.2 L188.2,115.6 L189.3,116.7 C189.6,117 189.8,117.3 190,117.5 C190.2,117.7 190.4,117.9 190.5,118.1 C191.3,119.8 192.4,121.9 192.9,123.5 C193.4,125.1 193.7,126.7 193.7,128.3 C193.7,130 193.3,131.6 192.5,133.4 C191.7,135.2 190.3,137.2 188.3,139.3 C185.3,142.5 181.6,145.6 177.7,148.3 C173.8,151.1 169.6,153.6 165.9,155.7 C162.1,157.8 158.7,159.5 156.2,160.7 C153.7,161.9 152.1,162.5 152.1,162.5 C152,162.6 151.1,162.9 149.8,163.6 C148.5,164.3 146.8,165.4 144.9,167 C143,168.6 141,170.6 139.2,173.1 C137.3,175.7 135.6,178.9 134.5,182.7 C134.2,183.5 134,184.3 133.8,185.1 L133.8,185.1 C133.7,185.4 133.7,185.6 133.6,185.9 L133.3,186.8 C133.2,187 133.2,187.2 133.1,187.4 C133,187.7 133,187.9 132.9,188.2 C132.9,188.3 132.8,188.5 132.8,188.6 C132.7,189 132.6,189.3 132.5,189.7 C132.5,189.9 132.4,190 132.4,190.2 L132.4,190.2 L132.4,190.3 C132.2,190.9 132.1,191.5 131.9,192.1 C131.9,192.1 131.9,192.1 131.9,192.2 C131.9,192.3 131.9,192.4 131.8,192.5 C131.7,192.9 131.6,193.2 131.5,193.6 L131.5,193.5 L131.5,193.6 C131.5,193.7 131.4,193.9 131.4,194 C131.4,194.1 131.3,194.3 131.3,194.4 L131.3,194.4 C131.3,194.6 131.2,194.8 131.2,195 L131.2,195 C131.2,195.2 131.1,195.3 131.1,195.5 L131.1,195.5 C131.1,195.6 131.1,195.7 131,195.7 L131,195.9 C131,195.9 131,195.9 131,196 C131,196.1 131,196.2 130.9,196.3 L130.9,196.5 C130.9,196.6 130.9,196.7 130.8,196.8 C130.8,197 130.7,197.3 130.7,197.5 C130.7,197.6 130.7,197.7 130.6,197.8 C130.6,197.9 130.6,198 130.5,198.1 L130.5,198.1 C130.4,198.5 130.4,198.8 130.3,199.1 L130.3,199.1 L130.3,199.3 L130.3,199.1 C130.2,199.5 130.1,199.9 130.1,200.3 C130.1,200.4 130.1,200.5 130,200.6 C130,200.7 129.9,200.9 129.9,201 C129.9,201.1 129.9,201.2 129.8,201.3 C129.8,201.4 129.8,201.5 129.7,201.6 L129.7,201.8 L129.7,201.8 L129.7,202 L129.7,202 C129.7,202.1 129.7,202.3 129.6,202.4 L129.6,202.3 C129.6,202.3 129.6,202.3 129.6,202.4 L129.6,202.4 L129.6,202.6 L129.6,202.6 L129.6,202.8 C129.6,203 129.6,203.1 129.5,203.2 L129.5,203.3 C129.5,203.3 129.5,203.3 129.5,203.4 L129.5,203.8 C129.5,203.8 129.5,203.8 129.5,203.9 C129.5,203.9 129.5,203.9 129.5,204 L129.5,204 L129.5,204.1 C129.5,204.1 129.5,204.1 129.5,204.2 L129.5,204.4 L129.5,204.5 L129.5,204.6 L129.5,204.7 C129.5,204.7 129.5,204.7 129.5,204.8 L129.5,204.9 C129.5,204.9 129.5,204.9 129.5,205 L129.5,205 L129.5,205.1 L129.5,205 L129.5,205.1 L138.1,204.8 C138.1,204.8 138.1,204.3 138.2,203.5 C138.3,202.6 138.5,201.3 138.8,199.6 C139.1,197.9 139.5,195.7 140.1,193.1 C140.7,190.6 141.4,187.6 142.4,184.3 C143.2,181.4 144.4,179 145.8,177 C147.1,175 148.6,173.5 149.9,172.3 C151.3,171.1 152.5,170.3 153.5,169.7 C154.4,169.1 155.1,168.9 155.2,168.8 C155.5,168.7 157.3,167.9 160,166.6 C162.7,165.3 166.4,163.4 170.5,161.1 C174.5,158.8 178.9,156.1 183.1,153 C187.2,150 191.2,146.6 194.4,143 C196.9,140.2 198.6,137.6 199.6,135.2 C200.6,132.8 200.9,130.5 200.9,128.4 C200.8,126.3 200.4,124.3 199.7,122.4 C199.1,120.6 198.1,118.6 197.3,116.9 L197.3,116.9 C197.2,116.8 197.2,116.7 197.1,116.5 C197,116.3 196.8,116.1 196.7,115.9 C196.5,115.7 196.3,115.4 196,115 C195.7,114.7 195.4,114.3 195,113.9 L193.8,112.7 L192.3,111.2 C191.7,110.7 191.1,110.1 190.4,109.4 C189.7,108.8 189,108.1 188.1,107.4 C188,107.3 187.9,107.3 187.9,107.2 C187.8,107.1 187.7,107.1 187.7,107 C187.6,106.9 187.5,106.9 187.5,106.8 C187.4,106.7 187.3,106.7 187.3,106.6 C186.4,105.9 185.4,105.2 184.5,104.6 C183.5,104 182.5,103.5 181.5,103 C180.5,102.5 179.5,102.1 178.5,101.7 C177.5,101.3 176.6,101 175.7,100.7 C174.5,100.3 173.4,100.1 172.4,99.8 C171.4,99.6 170.5,99.4 169.7,99.3 C168.9,99.2 168.3,99.1 167.8,99 C167.3,98.9 167.1,98.9 167,98.9 L166,103.2 L167,98.9 C167.1,98.9 167.4,98.9 167.8,99 C168.3,99.1 168.9,99.2 169.7,99.3 C170.5,99.4 171.4,99.6 172.4,99.8 C173.4,100 174.5,100.3 175.7,100.7 C177.6,100.2 179.3,99.8 180.9,99.4 C182.5,99 183.9,98.7 185.3,98.5 C186.6,98.3 187.8,98.1 188.8,97.9 C189.8,97.7 190.7,97.6 191.4,97.6 C191.9,97.1 192.5,96.5 193.1,96.1 C193.7,95.6 194.3,95.2 194.9,94.8 C195.5,94.4 196.1,94.1 196.6,93.8 C197.2,93.5 197.7,93.3 198.2,93 L198.2,93 C197.7,93.2 197.2,93.5 196.6,93.8 C196,94.1 195.5,94.4 194.9,94.8 C194.3,95.2 193.7,95.6 193.1,96.1 C192.5,96.6 191.9,97.1 191.4,97.6 C190.8,98.2 190.3,98.8 189.8,99.4 C189.3,100.1 188.9,100.8 188.5,101.5 C188.1,102.3 187.8,103 187.6,103.9 C187.4,104.7 187.3,105.6 187.3,106.6 C187.4,106.7 187.5,106.7 187.5,106.8 C187.6,106.9 187.7,106.9 187.7,107 C187.8,107.1 187.9,107.1 187.9,107.2 C188,107.3 188.1,107.3 188.1,107.4 C188.9,108.1 189.7,108.8 190.4,109.4 C191.1,110 191.7,110.6 192.3,111.2 C192.9,111.7 193.4,112.2 193.8,112.7 L195,113.9 C195.4,114.3 195.8,114.7 196,115 C196.3,115.3 196.5,115.6 196.7,115.9 C196.9,116.1 197,116.3 197.1,116.5 C197.2,116.7 197.3,116.8 197.3,116.9 C197.3,116.8 197.2,116.7 197.2,116.7 C197.2,116.6 197.1,116.5 197.1,116.5 C197.1,116.4 197,116.3 197,116.3 C197,116.2 196.9,116.1 196.9,116.1 C196.6,115.5 196.3,115 196.1,114.4 C195.8,113.8 195.6,113.3 195.3,112.7 C195,112.1 194.8,111.6 194.6,111 C194.4,110.4 194.2,109.9 194,109.3 C193.4,107.5 193.4,105.9 193.8,104.4 C194.2,103 194.9,101.8 195.8,100.8 C196.7,99.8 197.7,99 198.6,98.3 C199.5,97.7 200.3,97.2 200.8,97 L200.8,97 C204.2,96.7 208.5,96.3 213.6,95.7 C218.6,95.1 224.3,94.3 230.3,93.4 C236.2,92.4 242.4,91.2 248.4,89.7 C254.4,88.2 260.2,86.5 265.5,84.5 C266.1,84.3 266.7,84 267.3,83.8 C267.2,83.8 267.2,83.9 267.1,83.9 C267.2,83.9 267.2,83.8 267.3,83.8 C267.6,83.7 267.9,83.6 268.2,83.4 C268.5,83.3 268.9,83.1 269.2,83 C269.5,82.9 269.8,82.8 270,82.6 C270.3,82.5 270.6,82.3 270.9,82.2 C271.2,82.1 271.4,82 271.7,81.8 C272,81.7 272.3,81.5 272.6,81.4 C272.7,81.4 272.8,81.3 272.9,81.3 C273.1,81.2 273.2,81.2 273.3,81.1 C273.5,81 273.6,80.9 273.8,80.9 C273.9,80.8 274,80.8 274.1,80.7 C274.3,80.6 274.6,80.5 274.8,80.3 C275.1,80.2 275.3,80 275.6,79.9 C275.8,79.8 276,79.7 276.2,79.5 C276.4,79.4 276.7,79.2 276.9,79.1 C277.1,79 277.3,78.9 277.5,78.7 C277.7,78.6 277.9,78.4 278.2,78.3 C278.3,78.2 278.4,78.2 278.5,78.1 C278.6,78.1 278.6,78 278.7,78 C278.8,77.9 278.9,77.9 278.9,77.8 C279,77.7 279.1,77.6 279.3,77.5 C279.4,77.5 279.4,77.4 279.5,77.4 L279.6,77.3 C279.7,77.3 279.7,77.2 279.8,77.2 C280,77.1 280.2,76.9 280.3,76.8 L280.3,76.8 C280.4,76.7 280.5,76.7 280.6,76.6 L280.7,76.5 C280.9,76.4 281,76.2 281.2,76.1 L281.5,75.8 L281.6,75.7 L281.7,75.6 L281.6,75.7 C281.7,75.6 281.9,75.5 282,75.3 L282,75.3 C282.1,75.2 282.2,75.1 282.3,75.1 L282.3,75.1 C282.4,75 282.5,74.8 282.7,74.7 L283,74.4 L282.7,74.7 C283,74.4 283.2,74.1 283.4,73.9 C283.3,74 283.2,74.2 283.1,74.3 C283.2,74.2 283.3,74 283.4,73.9 C283.5,73.8 283.6,73.7 283.6,73.6 C283.7,73.4 283.8,73.3 283.9,73.1 C283.9,73 284,73 284,72.9 L284,72.9 C284.1,72.7 284.3,72.4 284.4,72.2 L284.4,72.2 C287.5,74.9 290.4,77.5 293.1,79.9 C296,82.4 298.6,84.7 300.8,86.6 C303.1,88.6 304.9,90.1 306.3,91.3 C307.6,92.4 308.4,93.1 308.5,93.1 L312.8,91.2 C312.8,91.1 311.8,90.3 310.1,88.9 L310.1,88.9 Z M190.9,97.8 C191.4,97.3 192,96.7 192.6,96.3 C192,96.7 191.4,97.2 190.9,97.8 L190.9,97.8 Z M224.6,19.7 C226.5,21.5 228.9,23.6 231.5,25.9 C228.9,23.6 226.5,21.5 224.6,19.7 L224.6,19.7 Z M196.1,94 C195.5,94.3 195,94.6 194.4,95 C194.9,94.6 195.5,94.3 196.1,94 L196.1,94 Z M192.6,96.3 C193.2,95.8 193.8,95.4 194.4,95 C193.8,95.4 193.2,95.8 192.6,96.3 L192.6,96.3 Z M190,109.6 C189.3,109 188.6,108.3 187.7,107.6 C188.6,108.3 189.3,109 190,109.6 L190,109.6 Z M126.3,185.5 C126.3,185.4 126.4,185.4 126.4,185.3 L126.4,185.3 C126.4,185.4 126.3,185.5 126.3,185.5 C126.3,185.6 126.3,185.6 126.3,185.5 L126.3,185.5 Z M218.9,78.5 C220.3,78.9 221.4,79.3 222.4,79.8 C221.4,79.3 220.2,78.9 218.9,78.5 L218.9,78.5 Z M213,77.4 C213.4,77.4 213.9,77.5 214.3,77.6 L214.3,77.6 C213.9,77.5 213.4,77.4 213,77.4 L213,77.4 Z M218.9,78.5 C217.6,78.1 216,77.8 214.3,77.5 C216,77.8 217.5,78.1 218.9,78.5 L218.9,78.5 Z M193.5,93.3 L193.5,93.3 C193.4,93.3 193.5,93.3 193.5,93.3 L193.5,93.3 Z M193.2,93.3 L193.5,93.3 L193.2,93.3 C193.1,93.3 193.1,93.3 193.2,93.3 L193.2,93.3 Z M224,80.5 C224.5,80.8 225,81 225.4,81.3 C225,81.1 224.5,80.8 224,80.5 L224,80.5 Z M222.4,79.8 C223,80.1 223.5,80.3 224,80.6 C223.5,80.3 223,80 222.4,79.8 L222.4,79.8 Z M193,93.3 L192.8,93.3 C192.8,93.4 192.9,93.4 193,93.3 L193,93.3 Z M193,93.3" class="road" fill="#CCCCCC"/>
            </g>
            <g class="outline">
                <path d="M38.7,149.6 C38.5,149.6 38.4,149.4 38.2,149.3 L36.6,146.9 C36.5,146.8 36.5,146.7 36.5,146.7 L33.3,134.8 C33.2,134.4 33.4,134 33.8,133.8 L60,122.3 C60.4,122.1 60.9,122.3 61,122.7 L62.2,125.2 L66.8,137.4 C66.9,137.8 66.8,138.2 66.4,138.4 L50.8,145.6 C50.4,145.8 50,145.6 49.8,145.3 L49.6,145 L39.3,149.8 C39.1,149.6 38.9,149.6 38.7,149.6 L38.7,149.6 Z M38.1,146.1 L39.2,147.8 L49.6,143 C50,142.8 50.4,143 50.6,143.3 L50.8,143.6 L65,137 L60.7,125.6 L59.8,123.9 L35.1,135 L38.1,146.1 L38.1,146.1 Z M130.4,167.1 C130.4,167.1 130.4,167 130.4,167.1 C130.2,167 130,166.9 129.9,166.7 L121.4,151.1 C121.4,151 121.3,151 121.3,150.9 L120.7,148.6 C120.6,148.2 120.8,147.9 121.1,147.7 L165.6,124.7 L157.4,113.8 C157.3,113.7 157.2,113.5 157.2,113.3 L157.1,110.8 C157.1,110.5 157.3,110.2 157.6,110 L167.8,105 C168.1,104.8 168.5,104.9 168.8,105.2 L171.6,108.7 L172.4,108.3 C172.7,108.1 173.1,108.2 173.4,108.5 L175.4,110.9 C175.5,111.1 175.6,111.2 175.6,111.4 L175.5,113.4 L177.7,116.1 C177.8,116.3 177.9,116.4 177.9,116.6 L177.8,119.1 C177.8,119.4 177.6,119.7 177.4,119.8 L172.5,122.4 L182.6,135.4 C182.7,135.6 182.8,135.8 182.8,136 L182.6,138.4 C182.6,138.7 182.4,138.9 182.2,139.1 L131,167 C130.8,167.1 130.6,167.1 130.4,167.1 L130.4,167.1 Z M122.9,150.4 L130.9,165.2 L180.8,137.7 L180.9,136 L171.2,123.5 L122.5,148.7 L122.9,150.4 L122.9,150.4 Z M158.9,112.9 L166.8,123.4 L176.1,118.6 L176.2,116.9 L174,114.2 C173.9,114 173.8,113.9 173.8,113.7 L173.9,111.7 L172.5,110 L171.7,110.4 C171.4,110.6 170.9,110.5 170.7,110.2 L167.9,106.7 L158.8,111.2 L158.9,112.9 L158.9,112.9 Z M39.9,106.6 C39.7,106.5 39.5,106.4 39.4,106.2 L38,103.7 C37.9,103.5 37.9,103.4 37.9,103.2 L39.7,92 C39.8,91.7 40,91.4 40.4,91.3 L40.5,91.3 L56.5,88.4 C56.9,88.3 57.2,88.5 57.4,88.9 L58.5,91.4 C58.6,91.5 58.6,91.7 58.6,91.8 L58.4,94 L58.7,94.7 C58.8,94.8 58.8,95 58.8,95.1 L58.5,98.2 C58.5,98.5 58.3,98.8 57.9,98.9 L57.5,102.9 C57.5,103.3 57.2,103.6 56.8,103.6 L54.6,104 L54.6,104.2 C54.6,104.6 54.3,104.8 53.9,104.9 L53.8,104.9 L42.9,106.9 C42.6,107 42.2,106.8 42,106.5 L41.8,106.2 L40.1,106.5 C40.2,106.6 40.1,106.6 39.9,106.6 L39.9,106.6 Z M39.6,103.1 L40.6,104.8 L42.3,104.5 C42.6,104.4 43,104.6 43.2,104.9 L43.4,105.2 L53.3,103.4 L53.3,103.2 C53.3,102.8 53.6,102.5 54,102.5 L56.2,102.1 L56.6,98.1 C56.6,97.8 56.8,97.5 57.2,97.4 L57.4,95.1 L57.1,94.4 C57,94.3 57,94.1 57,94 L57.2,91.8 L56.4,90.1 L41.5,92.8 L39.6,103.1 L39.6,103.1 Z M79.4,95.6 C79.2,95.5 79,95.4 78.9,95.2 L65.8,69.3 L64.8,66.7 C64.7,66.5 64.7,66.3 64.8,66.1 C64.9,65.9 65.1,65.8 65.3,65.7 L69.2,64.3 L68.6,63.2 L68.6,63.1 L67.7,60.6 C67.6,60.2 67.8,59.7 68.2,59.6 L75,57.2 C75.4,57.1 75.8,57.2 76,57.6 L78.1,61.2 L98.5,53.7 C98.8,53.6 99.2,53.7 99.4,54 L101.8,57.4 L111.3,53.9 L110.9,53.4 C110.8,53.3 110.8,53.2 110.7,53.1 L110.2,50.6 C110.1,50.2 110.3,49.8 110.7,49.7 L164.2,30.2 C164.5,30.1 164.8,30.2 165,30.3 L170.8,35.3 L190.5,27.9 L190.6,26.3 C190.6,26 190.8,25.7 191.1,25.6 L197.9,23.1 C198.2,23 198.4,23 198.7,23.2 L200.2,24.3 L208.1,21.3 C208.3,21.2 208.6,21.2 208.8,21.4 L232.6,37.7 C232.9,37.9 233,38.2 232.9,38.5 L232.4,41 C232.3,41.3 232.2,41.5 231.9,41.6 L192.1,58.4 C191.8,58.5 191.5,58.5 191.2,58.3 L189.2,56.6 L156.4,70.3 C156.1,70.4 155.7,70.4 155.5,70.1 L153.9,68.4 L117,83.7 C116.6,83.8 116.2,83.7 116,83.4 L114.7,81.6 L108.3,84.2 L108.7,86.1 C108.8,86.5 108.6,86.9 108.2,87 L89.8,94.6 C89.4,94.8 89,94.6 88.8,94.2 L87.8,92.3 L79.5,95.7 C79.7,95.6 79.5,95.6 79.4,95.6 L79.4,95.6 Z M66.6,67 L67.2,68.7 L80,93.8 L88.3,90.4 C88.7,90.2 89.1,90.4 89.3,90.8 L90.3,92.7 L107.4,85.6 L107,83.7 C106.9,83.3 107.1,82.9 107.5,82.8 L115.1,79.7 C115.5,79.6 115.9,79.7 116.1,80 L117.4,81.8 L154.2,66.6 C154.5,66.5 154.9,66.6 155.1,66.8 L156.7,68.5 L189.4,54.8 C189.7,54.7 190,54.7 190.2,54.9 L192.2,56.6 L231.1,40.1 L231.4,38.5 L208.4,22.8 L200.5,25.8 C200.2,25.9 200,25.9 199.7,25.7 L198.2,24.6 L192.3,26.8 L192.2,28.4 C192.2,28.7 192,29 191.7,29.1 L171,36.9 C170.7,37 170.4,36.9 170.2,36.8 L164.4,31.8 L112,50.9 L112.3,52.5 L113.2,53.7 C113.4,53.9 113.4,54.2 113.3,54.4 C113.2,54.6 113,54.8 112.8,54.9 L101.7,59 C101.4,59.1 101,59 100.8,58.7 L98.4,55.3 L78,62.9 C77.6,63 77.2,62.9 77,62.5 L74.9,58.8 L69.5,60.7 L70.1,62.4 L71.1,64.2 C71.2,64.4 71.2,64.7 71.1,64.9 C71,65.1 70.8,65.3 70.6,65.4 L66.6,67 L66.6,67 Z M246.4,80.7 C246.3,80.7 246.2,80.6 246.1,80.6 L229.7,67.5 C229.5,67.3 229.3,67 229.4,66.7 L230,64 C230.1,63.8 230.2,63.6 230.4,63.5 L231.4,63 L229.2,61.3 L227.6,62 C227.3,62.1 227,62.1 226.8,61.9 L223.8,59.6 C223.6,59.4 223.4,59.1 223.5,58.8 L223.9,57.1 L220.7,54.6 C220.5,54.4 220.3,54.1 220.4,53.8 L220.9,51.2 C220.9,50.9 221.1,50.7 221.4,50.6 L240,42.4 C240.3,42.3 240.6,42.3 240.8,42.5 L254.3,51.7 C254.6,51.9 254.7,52.3 254.6,52.6 L253.8,55.2 C253.7,55.4 253.6,55.6 253.4,55.7 L249.4,57.6 L264.4,68.4 C264.7,68.6 264.8,69 264.7,69.3 L263.8,71.9 C263.7,72.1 263.6,72.3 263.4,72.3 L247,80.6 C246.8,80.7 246.6,80.8 246.4,80.7 L246.4,80.7 Z M231.1,66.5 L246.7,79 L262.1,71.2 L262.7,69.4 L247.1,58.2 C246.9,58 246.7,57.8 246.8,57.5 C246.8,57.2 247,57 247.3,56.8 L252.3,54.5 L252.8,52.8 L240.2,44.1 L222.4,51.9 L222.1,53.6 L225.3,56.1 C225.5,56.3 225.7,56.6 225.6,56.9 L225.2,58.6 L227.4,60.3 L229,59.6 C229.3,59.5 229.6,59.5 229.8,59.7 L233.5,62.5 C233.7,62.7 233.8,62.9 233.8,63.2 C233.8,63.5 233.6,63.7 233.3,63.8 L231.5,64.7 L231.1,66.5 L231.1,66.5 Z M231.1,66.5" class="outline"/>
            </g>
            <g class="label">
                <path d="M103.1,11.4 C102.3,9.7 101.7,8.6 100.9,7.7 C100.4,7.2 100.1,6.9 99.7,6.7 C100.2,6.4 100.6,5.9 101.3,4.9 L103.1,2.2 C103.2,2.1 103.2,1.9 103.2,1.8 C103.2,1.5 102.9,1.2 102.6,1.2 C102.4,1.2 102.2,1.3 102,1.6 L100,4.4 C99.1,5.7 98.4,6.2 97.4,6.2 L97,6.2 L97,1.8 C97,1.4 96.7,1.2 96.4,1.2 C96,1.2 95.8,1.5 95.8,1.8 L95.8,11.9 C95.8,12.3 96.1,12.5 96.4,12.5 C96.7,12.5 97,12.2 97,11.9 L97,7.4 L97.8,7.4 C98.8,7.4 99.3,7.8 99.9,8.4 C100.4,9 101,10 102,12 C102.1,12.3 102.3,12.4 102.6,12.4 C102.9,12.4 103.2,12.1 103.2,11.7 C103.2,11.7 103.1,11.5 103.1,11.4 L103.1,11.4 Z M43.6,1.8 C43.6,1.5 43.4,1.2 43,1.2 L36.1,1.2 C35.7,1.2 35.5,1.5 35.5,1.8 C35.5,2.1 35.7,2.4 36.1,2.4 L39,2.4 L39,11.8 C39,12.2 39.3,12.4 39.6,12.4 C39.9,12.4 40.2,12.2 40.2,11.8 L40.2,2.4 L43.1,2.4 C43.4,2.4 43.6,2.1 43.6,1.8 L43.6,1.8 Z M34.3,11.2 L29.5,11.2 L29.5,7.3 L33.4,7.3 C33.8,7.3 34,7 34,6.7 C34,6.4 33.8,6.1 33.4,6.1 L29.5,6.1 L29.5,2.4 L34.1,2.4 C34.5,2.4 34.7,2.1 34.7,1.8 C34.7,1.5 34.5,1.2 34.1,1.2 L29.3,1.2 C28.6,1.2 28.2,1.6 28.2,2.2 L28.2,11.5 C28.2,12.1 28.6,12.5 29.3,12.5 L34.2,12.5 C34.6,12.5 34.8,12.2 34.8,11.9 C34.9,11.5 34.7,11.2 34.3,11.2 L34.3,11.2 Z M24.9,8.3 C24.6,7.9 24.3,7.6 23.9,7.3 C25.3,6.8 26.3,5.8 26.3,4.3 C26.3,2.4 25,1.1 22.1,1.1 C21,1.1 20.2,1.2 19.7,1.4 C19.3,1.5 19.2,1.8 19.2,2.2 L19.2,11.9 C19.2,12.3 19.5,12.5 19.8,12.5 C20.2,12.5 20.4,12.3 20.4,11.9 L20.4,7.6 L21.6,7.6 C22.8,7.6 23.2,8.1 23.8,9 C24.2,9.6 24.6,10.6 25.1,12 C25.2,12.3 25.4,12.4 25.7,12.4 C26,12.4 26.3,12.2 26.3,11.8 C26.3,11.7 26.3,11.5 26.2,11.4 C25.9,10.3 25.4,9.1 24.9,8.3 L24.9,8.3 Z M21.9,6.4 L20.5,6.4 L20.5,2.4 C20.9,2.3 21.4,2.3 22.1,2.3 C24.4,2.3 25.1,3.2 25.1,4.4 C25,6 23.5,6.5 21.9,6.4 L21.9,6.4 Z M54.4,1.1 C54,1.1 53.8,1.4 53.8,1.8 L53.8,11.8 C53.8,12.2 54.1,12.4 54.4,12.4 C54.8,12.4 55,12.2 55,11.8 L55,1.8 C55,1.4 54.8,1.1 54.4,1.1 L54.4,1.1 Z M92.3,8.3 C92,7.9 91.7,7.6 91.3,7.3 C92.7,6.8 93.7,5.8 93.7,4.3 C93.7,2.4 92.4,1.1 89.5,1.1 C88.4,1.1 87.6,1.2 87.1,1.4 C86.7,1.5 86.6,1.8 86.6,2.2 L86.6,11.9 C86.6,12.3 86.9,12.5 87.2,12.5 C87.6,12.5 87.8,12.3 87.8,11.9 L87.8,7.6 L89,7.6 C90.2,7.6 90.6,8.1 91.2,9 C91.6,9.6 92,10.6 92.5,12 C92.6,12.3 92.8,12.4 93.1,12.4 C93.4,12.4 93.7,12.2 93.7,11.8 C93.7,11.7 93.7,11.5 93.6,11.4 C93.3,10.3 92.8,9.1 92.3,8.3 L92.3,8.3 Z M89.2,6.4 L87.8,6.4 L87.8,2.4 C88.2,2.3 88.7,2.3 89.4,2.3 C91.7,2.3 92.4,3.2 92.4,4.4 C92.4,6 90.8,6.5 89.2,6.4 L89.2,6.4 Z M71.3,1.1 C70.3,1.1 69.5,1.2 69,1.4 C68.6,1.5 68.5,1.8 68.5,2.2 L68.5,11.9 C68.5,12.3 68.8,12.5 69.1,12.5 C69.5,12.5 69.7,12.3 69.7,11.9 L69.7,8.2 L71.2,8.2 C74.1,8.2 75.6,6.8 75.6,4.5 C75.6,2.6 74.3,1.1 71.3,1.1 L71.3,1.1 Z M71.1,7.1 L69.7,7.1 L69.7,2.4 C70.1,2.3 70.7,2.3 71.2,2.3 C73.5,2.3 74.3,3.4 74.3,4.7 C74.3,5.9 73.6,7.1 71.1,7.1 L71.1,7.1 Z M82,2.6 C81.4,1.4 80.9,1 80.3,1 C79.7,1 79.2,1.4 78.6,2.6 C77.7,4.4 77,6.7 75.8,11.3 C75.7,11.5 75.7,11.7 75.7,11.8 C75.7,12.2 76,12.4 76.3,12.4 C76.6,12.4 76.8,12.2 76.9,11.9 C77.2,10.5 77.5,9.3 77.8,8.2 L82.7,8.2 C83,9.3 83.3,10.5 83.6,11.9 C83.7,12.2 83.9,12.4 84.2,12.4 C84.6,12.4 84.8,12.2 84.8,11.8 C84.8,11.7 84.8,11.5 84.7,11.3 C83.6,6.7 82.9,4.4 82,2.6 L82,2.6 Z M78.2,7.2 C78.9,4.8 79.6,3.2 80.1,2.4 C80.1,2.3 80.2,2.3 80.3,2.3 C80.4,2.3 80.5,2.4 80.5,2.4 C81,3.2 81.7,4.7 82.4,7.2 L78.2,7.2 L78.2,7.2 Z M62.9,11.2 L58.6,11.2 L58.6,1.8 C58.6,1.4 58.3,1.1 58,1.1 C57.6,1.1 57.4,1.4 57.4,1.8 L57.4,11.4 C57.4,12 57.8,12.4 58.5,12.4 L63,12.4 C63.4,12.4 63.7,12.1 63.7,11.8 C63.6,11.5 63.3,11.2 62.9,11.2 L62.9,11.2 Z M49.2,2.6 C48.6,1.4 48.1,1 47.5,1 C46.9,1 46.4,1.4 45.8,2.6 C44.9,4.4 44.2,6.7 43,11.3 L43,11.8 C43,12.2 43.3,12.4 43.6,12.4 C43.9,12.4 44.1,12.2 44.2,11.9 C44.5,10.5 44.8,9.3 45.1,8.2 L50,8.2 C50.3,9.3 50.6,10.5 50.9,11.9 C51,12.2 51.2,12.4 51.5,12.4 C51.9,12.4 52.1,12.2 52.1,11.8 C52.1,11.7 52.1,11.5 52,11.3 C50.8,6.7 50.1,4.4 49.2,2.6 L49.2,2.6 Z M45.4,7.2 C46.1,4.8 46.8,3.2 47.3,2.4 C47.3,2.3 47.4,2.3 47.5,2.3 C47.6,2.3 47.7,2.4 47.7,2.4 C48.2,3.2 48.9,4.7 49.6,7.2 L45.4,7.2 L45.4,7.2 Z M45.4,7.2" class="Shape"/>
            </g>
            <g class="background">
                <path d="M247.6,57.5 L252.9,55 L253.7,52.4 L253.4,52.5 L253.7,52.4 L240.2,43.2 L221.6,51.4 L221.8,51.6 L221.6,51.4 L221.1,54 L224.7,56.8 L224.2,59 L227.2,61.3 L229.2,60.4 L232.9,63.2 L230.7,64.2 L230.9,64.4 L230.7,64.2 L230.1,66.8 L246.5,79.9 L262.7,71.7 L263.6,69.1 L247.6,57.5 L247.6,57.5 Z M221.9,51.4 L240.3,43.3 L253.5,52.4 L240.3,43.3 L221.9,51.4 L221.9,51.4 Z M227,55.4 L227,55.4 L223.7,52.9 L227,55.4 L227,55.4 Z M227.9,58.7 L229.9,57.8 L227.9,58.7 L227.9,58.7 Z M229.9,57.6 L227.9,58.5 L226.7,57.6 L227.2,55.4 L226.9,55.5 L227.2,55.4 L223.8,52.8 L239.6,45.8 L250.7,53.6 L234.6,61.1 L229.9,57.6 L229.9,57.6 Z M231.1,58.6 L234.6,61.3 L250.9,53.7 L234.6,61.3 L231.1,58.6 L231.1,58.6 Z M231.1,64.2 L231.1,64.2 L233.1,63.2 L231.1,64.2 L231.1,64.2 Z M247.5,77.3 L232.8,65.8 L247.5,77.3 L247.5,77.3 Z M247.4,77.1 L232.9,65.7 L245.9,59.6 L260.7,70.4 L247.4,77.1 L247.4,77.1 Z M158,110.6 L158.1,113.1 L166.5,124.3 L176.9,118.9 L177,116.4 L174.6,113.5 L174.7,111.2 L172.7,108.8 L171.4,109.5 L168.2,105.5 L158,110.6 L158,110.6 Z M173.1,112.2 L173,114.5 L175.2,117.2 L166.6,121.6 L159.7,112.5 L168.1,108.3 L171.3,112.3 L172.6,111.6 L173.1,112.2 L173.1,112.2 Z M172.7,109.2 L172.7,109.2 L171.3,109.9 L172.7,109.2 L172.7,109.2 Z M168.1,105.9 L170,108.2 L168.1,105.9 L158.3,110.7 L168.1,105.9 L168.1,105.9 Z M154.5,67.2 L156.4,69.3 L167.9,64.5 L179,59.9 L189.7,55.4 L192,57.5 L231.8,40.7 L232.3,38.2 L208.5,21.9 L200.2,25 L198.3,23.7 L191.5,26.2 L191.3,28.3 L170.6,36.1 L164.5,30.8 L154.3,34.5 L144.1,38.2 L144,38.2 L133.5,42 L122.7,46 L122.6,46.1 L111.1,50.3 L111.6,52.8 L112.7,54.2 L101.6,58.3 L98.8,54.3 L77.8,62.1 L75.4,57.9 L68.6,60.3 L69.5,62.8 L70.5,64.7 L65.7,66.4 L66.6,68.9 L79.7,94.7 L88.7,91 L90.1,93.5 L108.5,85.9 L107.9,83.4 L115.5,80.3 L117.1,82.7 L130.5,77.2 L142.9,72.1 L154.5,67.2 L154.5,67.2 Z M193.3,30.1 L193.5,28 L198,26.3 L199.8,27.6 L208.1,24.5 L229.4,39.3 L192.2,54.9 L189.9,52.9 L172.7,38 L193.3,30.1 L193.3,30.1 Z M164.6,33.4 L187.7,53.7 L179,57.3 L156.5,36.4 L164.6,33.4 L164.6,33.4 Z M154.6,37.1 L176.9,58.2 L167.8,62 L146.1,40.3 L154.6,37.1 L154.6,37.1 Z M144.3,40.8 L165.8,62.7 L156.3,66.6 L154.4,64.6 L135.4,44.1 L144.3,40.8 L144.3,40.8 Z M98.6,54.5 L101.5,58.7 L98.6,54.5 L98.6,54.5 Z M68.7,60.4 L75.2,58.1 L77.6,62.3 L75.2,58.1 L68.7,60.4 L68.7,60.4 Z M65.8,66.5 L65.8,66.5 L70.4,64.8 L65.8,66.5 L65.8,66.5 Z M78.7,92.3 L78.7,92.3 L87.8,88.6 L78.7,92.3 L78.7,92.3 Z M89.3,90.9 L87.9,88.4 L78.8,92.1 L67,68.9 L71.8,67.1 L70.9,64.6 L70.7,64.7 L70.9,64.6 L69.9,62.7 L76,60.5 L78.4,64.8 L99.2,57 L113.8,78.1 L106.1,81.2 L106.5,81.7 L106.1,81.2 L106.7,83.7 L89.3,90.9 L89.3,90.9 Z M106.4,81.3 L114,78.2 L106.4,81.3 L106.4,81.3 Z M114.8,77.7 L114.8,77.7 L102.9,60.6 L114.8,77.7 L114.8,77.7 Z M116.6,80 L115,77.8 L114.8,77.9 L115,77.8 L103,60.6 L114.2,56.4 L128.6,75.1 L116.6,80 L116.6,80 Z M130,74.5 L113.9,53.7 L112.9,52.4 L123,48.7 L140.9,70 L130,74.5 L130,74.5 Z M124.5,48.2 L133.9,44.7 L152.7,65.2 L142.5,69.4 L124.5,48.2 L124.5,48.2 Z M42.9,106.2 L53.8,104.2 L53.9,104.2 L54,103.4 L56.8,102.9 L57.2,98.3 L57.7,98.2 L58,95 L57.6,94.1 L57.8,91.7 L56.7,89.2 L56.7,89.7 L56.7,89.2 L40.7,92.1 L40.6,92.1 L38.8,103.3 L40.2,105.8 L42.5,105.4 L42.9,106.2 L42.9,106.2 Z M55.6,100.3 L55.6,100.3 L56,95.7 L56.2,95.7 L56,95.7 L55.6,100.3 L55.6,100.3 Z M56.7,94 L56.6,95.6 L56.7,94 L56.7,94 Z M56.4,92.1 L56.3,92.6 L56.4,92.1 L56.4,92.1 Z M39,103.1 L40.7,92.1 L39,103.1 L39,103.1 Z M41.9,103 L41.9,103 L42,102.5 L40.9,102.7 L42.1,94.6 L56.3,92 L56.2,92.7 L56.6,93.6 L56.4,95.5 L55.9,95.6 L55.5,100.2 L52.7,100.7 L52.6,101.5 L42.5,103.4 L42,102.5 L41.9,103 L41.9,103 Z M171.5,122.5 L155.6,130.8 L139.1,139.4 L121.7,148.4 L122.3,150.7 L130.8,166.3 L148.8,156.4 L165.7,147.1 L181.8,138.3 L182,135.9 L171.5,122.5 L171.5,122.5 Z M121.9,148.4 L121.9,148.4 L139,139.5 L121.9,148.4 L121.9,148.4 Z M130.2,163.7 L123,150.4 L139.4,141.8 L147.1,154.4 L130.2,163.7 L130.2,163.7 Z M140.2,158.5 L147.3,154.6 L140.2,158.5 L140.2,158.5 Z M148.1,154.2 L148.1,154.2 L148.3,154.1 L148.1,154.2 L148.1,154.2 Z M148.3,153.8 L140.5,141.3 L155.8,133.3 L164,145.2 L148.3,153.8 L148.3,153.8 Z M165.4,144.5 L157.1,132.7 L171.4,125.3 L180.1,136.6 L165.4,144.5 L165.4,144.5 Z M60.3,123 L34.1,134.5 L37.3,146.4 L38.9,148.8 L49.9,143.7 L50.5,144.7 L66.1,137.5 L61.5,125.4 L60.3,123 L60.3,123 Z M49.5,142 L48.9,141 L38.4,145.8 L36,137 L61.2,125.8 L64.7,135 L49.5,142 L49.5,142 Z M49.5,142" class="wall"/>
            </g>
            <g class="ceilings">
                <path class="unit" d="M56.5,89.3 L56.1,92.8 L56.6,92.7 L56.4,95.5 L55.9,95.6 L55.4,100.2 L52.6,100.7 L52.5,101.6 L41.8,103.5 L41.9,102.6 L39,103.1 L40.7,92.2 L56.5,89.3 Z M56.5,89.3" id="3001"/>
                <path class="unit" d="M232.1,38.2 L192.2,54.8 L190,52.9 L170.8,36.2 L193.5,27.6 L191.7,26.3 L198.3,23.8 L200.1,25.1 L208.4,22 L232.1,38.2 Z M232.1,38.2" id="3002"/>
                <path class="unit" d="M189.7,52.8 L179,57.3 L154.6,34.6 L164.5,30.9 L189.7,52.8 Z M189.7,52.8" id="3003"/>
                <path class="unit" d="M178.8,57.3 L167.8,61.9 L144.2,38.3 L154.4,34.6 L178.8,57.3 Z M178.8,57.3" id="3004"/>
                <path class="unit" d="M167.6,62 L156.3,66.6 L154.5,64.6 L133.7,42.2 L144.1,38.4 L167.6,62 Z M167.6,62" id="3005"/>
                <path class="unit" d="M154.2,64.6 L142.5,69.4 L122.8,46.2 L133.6,42.2 L154.2,64.6 Z M154.2,64.6" id="3006"/>
                <path class="unit" d="M142.3,69.5 L130,74.5 L113.9,53.7 L111.3,50.4 L122.6,46.2 L142.3,69.5 Z M142.3,69.5" id="3007"/>
                <path class="unit" d="M129.8,74.6 L116.6,80 L115.1,77.7 L101.6,58.4 L113.8,53.9 L129.8,74.6 Z M129.8,74.6" id="3008"/>
                <path class="unit" d="M114.8,77.7 L106.1,81.2 L107.6,83.4 L89.3,90.9 L87.9,88.4 L78.8,92.1 L65.8,66.5 L70.9,64.6 L68.7,60.4 L75.2,58.1 L77.6,62.3 L98.6,54.5 L114.8,77.7 Z M114.8,77.7" id="3009"/>
                <path class="unit" d="M253.4,52.4 L234.6,61.1 L229.9,57.6 L227.9,58.5 L225.1,56.4 L227.2,55.4 L221.9,51.4 L240.2,43.3 L253.4,52.4 Z M253.4,52.4" id="3010"/>
                <path class="unit" d="M64.6,135.1 L49.3,142.1 L48.9,141 L37.5,146.2 L34.4,134.6 L60.2,123.2 L64.6,135.1 Z M64.6,135.1" id="3011"/>
                <path class="unit" d="M263.5,69 L247.4,77.1 L231.1,64.2 L246.7,56.9 L263.5,69 Z M263.5,69" id="3012"/>
                <path class="unit" d="M174.4,111.3 L173.1,112 L176.7,116.4 L166.6,121.6 L158.3,110.7 L168.1,105.9 L171.3,109.8 L172.7,109.2 L174.4,111.3 Z M174.4,111.3" id="3013"/>
                <path class="unit" d="M181.5,135.7 L165.4,144.5 L155.8,130.8 L171.4,122.7 L181.5,135.7 Z M181.5,135.7" id="3014"/>
                <path class="unit" d="M165.2,144.6 L148.3,153.8 L139.3,139.4 L155.6,130.9 L165.2,144.6 Z M165.2,144.6" id="3015"/>
                <path class="unit" d="M148.1,154 L130.2,163.7 L121.9,148.4 L139.1,139.5 L148.1,154 Z M148.1,154" id="3016"/>
        </g>
    </g>
</svg>