<?xml version="1.0" encoding="utf-8"?>
<!DOCTYPE svg PUBLIC "-//W3C//DTD SVG 1.1//EN" "http://www.w3.org/Graphics/SVG/1.1/DTD/svg11.dtd">
<svg version="1.1" xmlns="http://www.w3.org/2000/svg" xmlns:xlink="http://www.w3.org/1999/xlink" xml:space="preserve">
<g class="level" id="level2">
            <g class="outline">
                <path d="M264.9,130.2 C263.4,129 261.9,127.8 260.5,126.8 C258.8,125.5 256.7,123.9 256,123.2 C256.3,122.9 257.2,122.5 258.1,122.4 L260.5,122.1 L255.9,115.2 L255.4,115 C255.4,115 251.7,113.9 248.2,112.1 C246.4,111.2 242.9,108.7 242.9,108.7 L242.5,108.4 L240.4,108.4 L239.5,107 C240.7,106.9 241.8,106.9 242.3,107.2 C244.2,108.3 253.2,109.2 255.9,109.4 L258.3,109.6 L256.1,104.1 L255.3,103.9 C255.2,103.9 247.8,102.5 245,101.5 C243.3,100.9 240.3,98.8 239.1,97.9 C236.4,94 233.5,89.4 233.1,87.8 C233.5,87.7 234.1,87.6 234.6,87.5 C235.7,87.4 236.7,87.2 237.5,86.6 C238.4,85.9 239.2,84.2 239.5,83.5 L240.2,81.8 L238.4,81.4 C228.4,79.4 216.9,76.3 214.8,74.6 C215.7,73.1 219,69.2 221.6,66.3 C225.4,62 229.2,57.5 230.5,55 C230.6,54.8 230.8,54.4 230.7,53.6 L280,49.1 L277.6,44.2 L276.6,44.3 C276.2,44.3 237.7,48.2 226.7,48.3 L226.5,48.3 C220.2,48.4 218.1,47.8 217.4,47.4 C217.7,46.9 218.3,46.2 218.6,46 C220.3,44.8 225.3,44.3 228.2,44 C229,43.9 229.8,43.8 230.4,43.8 C239.2,42.7 266.4,43.3 266.7,43.3 L267.7,43.3 L270.7,37.3 L81.7,34.8 L17,36.8 L16,42.8 L6.5,43.3 L9.5,61.3 L48.5,58.8 L49.9,65.8 L38.4,66.3 L45.6,98.8 L46,98.8 L47.9,107.4 L37.5,108.4 L39,117.4 L49.5,116.4 L50,118.8 L59.5,118.3 L59.8,119.9 L37.9,121.4 L38.8,127.9 L44.4,127.4 L45.4,132.4 L54.5,131.9 L55,134 L59.1,133.5 L59.1,134.4 L104.9,131.4 L105.4,134 L112.2,133.2 L113,135.8 L114.1,135.8 C122.8,136.1 166.6,137.5 168.4,137.3 L168.9,137.2 C170.5,137 172.1,136.8 173.8,134.8 C175.1,133.3 174.5,131 173.7,129.3 L179.4,129.3 C180.5,130.6 181.4,132.1 181.6,132.9 C181,133 180.1,133 179.3,132.8 L178.1,132.6 L176.2,138.4 L177.8,138.8 C179.3,139.1 180.9,139.6 181.6,140 L181.3,140.6 L180.2,142.6 L189.5,143.3 L190.8,143.4 L191.1,142.1 C191.1,142 191.7,139.7 196.1,138.3 C198.6,137.5 208.2,139 215.1,140.2 C216.6,140.4 218,140.7 219.4,140.9 C225.1,141.8 229.4,141.9 229.6,141.9 L230.2,141.9 L232.7,139.4 L228.8,137.7 L230.8,136.5 L241.7,138.5 L244.6,137 C245.7,137.3 248.2,137.9 250.5,137.9 L262.5,137.9 L267.1,141.4 L276.4,140.6 L274.1,138.3 C274,138.3 269.7,134.1 264.9,130.2 L264.9,130.2 Z M264.9,130.2" class="outline"/>
            </g>
            <g class="label">
                <path d="M84.9,11.8 C84.1,10.1 83.5,9 82.7,8.1 C82.2,7.6 81.9,7.3 81.5,7.1 C82,6.8 82.4,6.3 83.1,5.3 L84.9,2.6 C85,2.5 85,2.3 85,2.2 C85,1.9 84.7,1.6 84.4,1.6 C84.2,1.6 84,1.7 83.8,2 L81.9,4.8 C81,6.1 80.3,6.6 79.3,6.6 L78.9,6.6 L78.9,2.2 C78.9,1.8 78.6,1.6 78.3,1.6 C77.9,1.6 77.7,1.9 77.7,2.2 L77.7,12.3 C77.7,12.7 78,12.9 78.3,12.9 C78.6,12.9 78.9,12.6 78.9,12.3 L78.9,7.8 L79.7,7.8 C80.7,7.8 81.2,8.2 81.8,8.8 C82.4,9.4 83,10.5 84,12.5 C84.1,12.8 84.3,12.9 84.6,12.9 C84.9,12.9 85.2,12.6 85.2,12.2 C85,12.1 85,12 84.9,11.8 L84.9,11.8 Z M25.4,2.2 C25.4,1.9 25.2,1.6 24.8,1.6 L18,1.6 C17.6,1.6 17.4,1.9 17.4,2.2 C17.4,2.5 17.6,2.8 18,2.8 L20.8,2.8 L20.8,12.2 C20.8,12.6 21.1,12.8 21.4,12.8 C21.7,12.8 22,12.6 22,12.2 L22,2.8 L24.9,2.8 C25.2,2.8 25.4,2.5 25.4,2.2 L25.4,2.2 Z M16.1,11.6 L11.3,11.6 L11.3,7.7 L15.2,7.7 C15.6,7.7 15.8,7.4 15.8,7.1 C15.8,6.8 15.6,6.5 15.2,6.5 L11.3,6.5 L11.3,2.8 L16,2.8 C16.4,2.8 16.6,2.5 16.6,2.2 C16.6,1.9 16.4,1.6 16,1.6 L11.2,1.6 C10.5,1.6 10.1,2 10.1,2.6 L10.1,11.9 C10.1,12.5 10.5,12.9 11.2,12.9 L16.1,12.9 C16.5,12.9 16.7,12.6 16.7,12.3 C16.7,11.9 16.5,11.6 16.1,11.6 L16.1,11.6 Z M6.7,8.7 C6.4,8.3 6.1,8 5.7,7.7 C7.1,7.2 8.1,6.2 8.1,4.7 C8.1,2.8 6.8,1.5 3.9,1.5 C2.8,1.5 2,1.6 1.5,1.8 C1.1,1.9 1,2.2 1,2.6 L1,12.3 C1,12.7 1.3,12.9 1.6,12.9 C2,12.9 2.2,12.7 2.2,12.3 L2.2,8.1 L3.4,8.1 C4.6,8.1 5,8.6 5.6,9.5 C6,10.1 6.4,11.1 6.9,12.5 C7,12.8 7.2,12.9 7.5,12.9 C7.8,12.9 8.1,12.7 8.1,12.3 C8.1,12.2 8.1,12 8,11.9 C7.7,10.7 7.2,9.5 6.7,8.7 L6.7,8.7 Z M3.7,6.9 L2.3,6.9 L2.3,2.9 C2.7,2.8 3.2,2.8 3.9,2.8 C6.2,2.8 6.9,3.7 6.9,4.9 C6.8,6.4 5.3,6.9 3.7,6.9 L3.7,6.9 Z M36.2,1.6 C35.8,1.6 35.6,1.9 35.6,2.3 L35.6,12.3 C35.6,12.7 35.9,12.9 36.2,12.9 C36.6,12.9 36.8,12.7 36.8,12.3 L36.8,2.3 C36.8,1.8 36.6,1.6 36.2,1.6 L36.2,1.6 Z M74.1,8.7 C73.8,8.3 73.5,8 73.1,7.7 C74.5,7.2 75.5,6.2 75.5,4.7 C75.5,2.8 74.2,1.5 71.3,1.5 C70.2,1.5 69.4,1.6 68.9,1.8 C68.5,1.9 68.4,2.2 68.4,2.6 L68.4,12.3 C68.4,12.7 68.7,12.9 69,12.9 C69.4,12.9 69.6,12.7 69.6,12.3 L69.6,8.1 L70.8,8.1 C72,8.1 72.4,8.6 73,9.5 C73.4,10.1 73.8,11.1 74.3,12.5 C74.4,12.8 74.6,12.9 74.9,12.9 C75.2,12.9 75.5,12.7 75.5,12.3 C75.5,12.2 75.5,12 75.4,11.9 C75.1,10.7 74.6,9.5 74.1,8.7 L74.1,8.7 Z M71,6.9 L69.6,6.9 L69.6,2.9 C70,2.8 70.5,2.8 71.2,2.8 C73.5,2.8 74.2,3.7 74.2,4.9 C74.2,6.4 72.6,6.9 71,6.9 L71,6.9 Z M53.1,1.5 C52.1,1.5 51.3,1.6 50.8,1.8 C50.4,1.9 50.3,2.2 50.3,2.6 L50.3,12.3 C50.3,12.7 50.6,12.9 50.9,12.9 C51.3,12.9 51.5,12.7 51.5,12.3 L51.5,8.7 L53,8.7 C55.9,8.7 57.4,7.3 57.4,5 C57.4,3 56.1,1.5 53.1,1.5 L53.1,1.5 Z M53,7.5 L51.6,7.5 L51.6,2.8 C52,2.7 52.6,2.7 53.1,2.7 C55.4,2.7 56.2,3.8 56.2,5.1 C56.2,6.4 55.4,7.5 53,7.5 L53,7.5 Z M63.8,3 C63.2,1.8 62.7,1.4 62.1,1.4 C61.5,1.4 61,1.8 60.4,3 C59.5,4.8 58.8,7.1 57.6,11.7 C57.5,11.9 57.5,12.1 57.5,12.2 C57.5,12.6 57.8,12.8 58.1,12.8 C58.4,12.8 58.6,12.6 58.7,12.3 C59,10.9 59.3,9.7 59.6,8.6 L64.5,8.6 C64.8,9.7 65.1,10.9 65.4,12.3 C65.5,12.6 65.7,12.8 66,12.8 C66.4,12.8 66.6,12.6 66.6,12.2 C66.6,12.1 66.6,11.9 66.5,11.7 C65.4,7.1 64.7,4.9 63.8,3 L63.8,3 Z M60,7.6 C60.7,5.2 61.4,3.6 61.9,2.8 C61.9,2.7 62,2.7 62.1,2.7 C62.2,2.7 62.3,2.8 62.3,2.8 C62.8,3.6 63.5,5.1 64.2,7.6 L60,7.6 L60,7.6 Z M44.7,11.6 L40.4,11.6 L40.4,2.2 C40.4,1.8 40.1,1.5 39.8,1.5 C39.4,1.5 39.2,1.8 39.2,2.2 L39.2,11.8 C39.2,12.4 39.6,12.8 40.3,12.8 L44.8,12.8 C45.2,12.8 45.5,12.5 45.5,12.2 C45.4,11.9 45.1,11.6 44.7,11.6 L44.7,11.6 Z M31,3 C30.4,1.8 29.9,1.4 29.3,1.4 C28.7,1.4 28.2,1.8 27.6,3 C26.7,4.8 26,7.1 24.8,11.7 C24.7,11.9 24.7,12.1 24.7,12.2 C24.7,12.6 25,12.8 25.3,12.8 C25.6,12.8 25.8,12.6 25.9,12.3 C26.2,10.9 26.5,9.7 26.8,8.6 L31.7,8.6 C32,9.7 32.3,10.9 32.6,12.3 C32.7,12.6 32.9,12.8 33.2,12.8 C33.6,12.8 33.8,12.6 33.8,12.2 C33.8,12.1 33.8,11.9 33.7,11.7 C32.7,7.1 31.9,4.9 31,3 L31,3 Z M27.2,7.6 C27.9,5.2 28.6,3.6 29.1,2.8 C29.1,2.7 29.2,2.7 29.3,2.7 C29.4,2.7 29.5,2.8 29.5,2.8 C30,3.6 30.7,5.1 31.4,7.6 L27.2,7.6 L27.2,7.6 Z M27.2,7.6" class="Shape"/>
            </g>
            <g class="background">
                <path d="M18,38.4 L81.5,36.4 L268,38.9 L266.5,41.9 C266.5,41.9 239,41.2 230,42.4 C226.9,42.8 220,43.1 217.5,44.9 C217,45.3 215.3,47.3 215.5,47.9 C216.4,50 224.2,49.9 226.5,49.9 C237.7,49.8 276.5,45.9 276.5,45.9 L277.5,47.9 L228.5,52.4 C228.5,52.4 229.2,53.9 229,54.4 C226.5,59.2 212.6,73.1 213,74.9 C213.8,78.1 238,82.9 238,82.9 C238,82.9 237.2,84.8 236.5,85.4 C235.4,86.3 231.7,85.7 231.5,87.4 C231.3,89.2 238,98.9 238,98.9 C238,98.9 242.1,102 244.5,102.9 C247.4,104 255,105.4 255,105.4 L256,107.9 C256,107.9 244.8,106.9 243,105.9 C241.2,104.9 237,105.9 237,105.9 L239.5,109.9 L242,109.9 C242,109.9 245.6,112.4 247.5,113.4 C251.3,115.3 255,116.4 255,116.4 L258,120.9 C258,120.9 254.5,121.4 254.5,123.4 C254.5,124.4 259.5,127.7 264,131.4 C268.7,135.2 273,139.4 273,139.4 L267.5,139.9 L263,136.4 L250.5,136.4 C247.7,136.4 244.5,135.4 244.5,135.4 L241.5,136.9 L230.5,134.9 L225.5,137.9 L230,139.9 L229.5,140.4 C229.5,140.4 225.1,140.3 219.5,139.4 C210.7,138 198.8,135.8 195.5,136.9 C190,138.6 189.5,141.9 189.5,141.9 L182.5,141.4 C182.5,141.4 183.3,140 183,139.4 C182.5,138.4 178,137.4 178,137.4 L179,134.4 C179,134.4 182.4,134.9 183,133.9 C183.9,132.5 180,127.9 180,127.9 L171,127.9 C171,127.9 174,132.1 172.5,133.9 C171,135.7 169.7,135.7 168,135.9 C166.3,136.1 114,134.4 114,134.4 L112.5,129.4 L110,129.4 L110.5,131.9 L106.5,132.4 L106,129.9 L60.5,132.9 L60.5,131.9 L56,132.4 L55.5,130.4 L46.5,130.9 L45.5,125.9 L40,126.4 L39.5,122.9 L61.5,121.4 L60.5,116.9 L51,117.4 L50.5,114.9 L40,115.9 L39,109.9 L49.5,108.9 L47.5,99.9 L57,99.4 L56,96.9 L46.5,97.4 L40,67.9 L51.5,67.4 L49.5,57.4 L10.5,59.9 L8,44.9 L17,44.4 L18,38.4 L18,38.4 Z M18,38.4" class="ground"/>
                <path d="M255,105.4 C255,105.4 244.1,103 241,100.9 C238,98.9 232.3,90.5 231.5,87.4 C231.7,85.7 235.1,86.3 236.4,85.5 C236.8,85.5 237,85.4 237,85.4 L238,82.9 C238,82.9 222.3,79 217.1,77.4 C214.8,76.5 213.2,75.6 213,74.9 C212.6,73.2 225.9,59.9 228.8,54.8 C228.9,54.6 229,54.5 229,54.4 C229.1,54.2 229,53.9 228.9,53.5 C228.8,52.9 228.5,52.4 228.5,52.4 L277.5,47.9 L276.5,45.9 C276.5,45.9 247.9,48.5 235.6,49.5 C231.9,49.7 228.7,49.9 226.5,49.9 C224.9,49.9 220.6,50 217.8,49.3 C217,49.1 216.4,48.8 216,48.4 C215.1,47.6 216.2,45.7 219,44.4 C220.1,43.9 221.7,43.5 223.6,43.1 C226,42.8 228.5,42.6 230,42.4 C230.8,42.3 231.8,42.2 232.9,42.1 C233.9,42 234.9,42 236,41.9 C247.6,41.4 266.5,41.9 266.5,41.9 L266.5,41.9 L267,41.9 L268,38.9 L94.5,36.6 C92.1,36.5 90.1,36.5 88.5,36.4 C75.7,35.9 18,38.4 18,38.4 L17.5,40.9 L17.6,40.9 C21.6,40.8 185.2,37.4 194.5,43.4 C198.2,45.8 197.1,48 196.5,49.9 C194.3,57.1 186,65.9 169,81.4 C159.5,90.1 167,101.9 167,101.9 C167,101.9 149.1,91.8 152.5,81.4 C158.3,63.7 184.3,65.9 184.3,65.9 L186.2,63.5 C181.8,63.7 157.4,59.8 148.9,80.4 C143.5,93.7 168.9,107.9 168.9,107.9 C168.9,107.9 169.7,112.6 173.9,116.9 C175.4,118.5 178.4,123.9 181,129.3 C181.7,130.7 182.3,132.1 182.9,133.4 C183.1,133.9 182.1,134.4 181.4,134.4 L178.9,134.4 L177.9,137.4 C177.9,137.4 182.4,138.4 182.9,139.4 C183.2,140 182.4,141.4 182.4,141.4 L188.9,141.9 L188.9,141.9 L189.4,141.9 C189.4,141.9 189.9,138.7 195.4,136.9 C198.3,136 207.9,137.6 216.1,138.9 C218.7,139.5 220.4,139.9 220.4,139.9 L227.1,140.3 C228.5,140.4 229.4,140.4 229.4,140.4 L229.9,139.9 C229.9,139.9 220.9,137.2 210.9,135.4 C202.2,133.8 192.5,133.2 191.9,132.9 C190.7,132.3 184.9,121.4 184.9,121.4 C193.2,131.6 229.9,139.9 229.9,139.9 L225.6,138 L230.4,134.9 C229.4,134.8 194.6,130.7 186.9,113.9 C185.6,111 201.8,110.5 213.9,109.4 C225.3,108.3 235.9,106.9 235.9,106.9 C235.9,106.9 236,106.1 236.4,105.9 C237,105.6 237.8,105.5 238.9,105.6 C240.1,105.6 241.6,105.8 243.2,106.1 C244.1,106.4 245.7,106.7 247.6,107 C249.5,107.4 251.2,107.6 252.5,107.6 C254.4,107.8 255.8,107.9 255.8,107.9 L255.6,107.4 L255.8,107.4 L255,105.4 L255,105.4 Z M207,41.4 L222.5,41.4 C215.1,42.6 205,46.9 205,46.9 L207,41.4 L207,41.4 Z M203,51.4 C204.9,48.9 213,45.9 213,45.9 C212.1,47.5 213,49.9 213,49.9 C207.9,49.7 203,51.4 203,51.4 L203,51.4 Z M203,51.4" class="road" fill="#E7E8E9"/>
                <path d="M184,77.4 C187.4,82.2 207.6,79.7 219,81.9 C224.2,82.9 225.6,84.2 228.5,84.4 C231.4,84.6 234,84.4 234,84.4 C234,84.4 213.6,79.5 212.5,78.9 C211.4,78.3 208.5,77.4 208.5,76.4 C208.5,75.9 209.7,75.9 209.5,75.4 C209.2,74.6 207.8,75.3 207.5,74.9 C206.9,74 209.1,72.1 210,71.9 C211,71.6 211.4,72.4 212.5,71.9 C213.4,71.5 213.4,70.9 213.5,70.4 C213.6,70 213.9,69.7 214,69.4 C214.2,68.9 212,68.9 212,68.9 L213.5,66.9 L195.5,65.9 L196.5,64.9 L214.5,65.9 L218.5,61.4 C218.5,61.4 220.8,61.7 221.5,61.4 C222.3,61.1 223.8,59.2 223.5,58.4 C223.3,57.9 221.5,57.9 221.5,57.9 C221.5,57.9 225.7,53.7 225.5,52.9 C225.3,51.9 221.4,50.7 217.5,50.4 C213.6,50.1 205,50.8 202.5,52.9 C200.6,54.5 197.6,61.2 195.5,63.9 C193.4,66.6 181.7,74.1 184,77.4 L184,77.4 Z M263.5,130.9 C259.3,127.6 255.1,124.7 254.8,123.9 C253.7,121.6 258,120.9 258,120.9 L255,116.4 C249.4,115.3 242,109.9 242,109.9 L233.5,110.4 L234,110.9 L231,111.4 L230.5,110.9 L197,113.9 L198,115.9 L193.5,115.9 L199.5,125.4 C206.2,132.7 241.5,136.9 241.5,136.9 L244.5,135.4 C244.5,135.4 247.8,136.3 249.1,136.3 C252.5,136.5 263,136.4 263,136.4 L267.5,139.9 L273,139.4 C273,139.4 268.4,134.8 263.5,130.9 L263.5,130.9 Z M234,101.9 C232.9,97.7 228.8,90.8 227,88.4 C221.2,80.8 194.1,82.8 183.5,84.4 C177.5,85.3 172.7,87.3 171.5,89.9 C171.3,90.3 172,91.4 172,91.4 C172,91.4 170.3,91.3 170.5,91.9 C171.1,93.4 174.1,97.5 174,99.4 C174,101.1 175,101.3 175,101.3 C175,101.3 177.2,105.4 177.5,105.9 C178.7,107.8 181.9,108.4 188.5,109.4 C191.2,109.8 199.3,109 207.5,108.4 C219.8,107.4 235.1,106 234,101.9 L234,101.9 Z M162.5,121.9 L162,120.9 L167,120.4 L165,114.9 L152.5,115.9 L151.5,114.4 L124,116.4 L124,117.4 L115.5,118.4 L115,115.9 L157.5,112.9 L158,111.9 L163.5,111.4 C163.5,111.4 145.7,100.6 144,85.6 C142.7,73.9 156.3,67.3 156.3,67.3 L153,66.5 L153,65 L121.5,67.5 L121,66.5 L156.5,64 L156,62 L187,59.5 L186,55 L178,55.5 L175.5,44 L167,41.5 L117,45 L117.5,42 L109,42 C109,42 105.6,43.5 104.5,43 C103.4,42.5 101.7,40.5 97,40.5 C92.3,40.5 58.5,43 58.5,43 L58,41 L7.5,45 L10.5,60 L49.5,57.5 L106.5,53.5 L105,45.5 C105,45.5 109,43.6 109.5,45.5 C110,47.4 111.5,55.5 111.5,55.5 L114,57 L117,70 L113,73 L115.5,86.5 L111,90 L113.5,103 L110.5,106 L112,113.5 L109.5,115 L110.3,119.3 L107.6,119.6 L107.4,118.4 L39.4,122.9 L39.9,126.4 L45.4,125.9 L46.4,130.9 L55.4,130.4 L55.9,132.4 L60.4,131.9 L60.4,132.9 L105.9,129.9 L106.4,132.4 L110.4,131.9 L108.9,125.6 L111.2,125.3 L113.9,134.5 C113.9,134.5 165.2,136.3 167.9,136 C172.3,135.5 173,133.5 172.9,132.5 C172.6,130 166.9,121.5 166.9,121.5 L162.5,121.9 L162.5,121.9 Z M108.5,123.4 L108,121.6 L110.7,121.3 L111,123.3 L108.5,123.4 L108.5,123.4 Z M108.5,123.4" class="walkway"/>
                <path d="M52,45.4 L52,47.9 L56.4,67.1 L40,67.9 L46.5,97.4 L55.4,96.9 L56,99.4 L48,99.8 L49.5,108.8 L39,109.8 L40,115.8 L50.5,114.8 L51,117.3 L103.6,114.3 L103.5,111.8 L103,110.8 L107,110.3 L107,108.3 L105,100.3 L101,100.8 L100,99.3 L104.5,98.8 L104.5,96.3 L102,83.8 L106.5,83.3 L106.4,81.6 L102.5,66.8 L109,66.3 L109,63.8 L104,42.3 L52,45.4 L52,45.4 Z M148,51.4 L145.5,41.4 L124,42.4 L124,43.9 L126.5,54.9 L134.5,54.4 L134.7,54.9 L140,54.6 L140,53.9 L148,53.4 L148,51.4 L148,51.4 Z M83,126.9 L83,129.4 L99.5,129.9 L102.5,125.4 L102.5,122.4 L86.5,121.9 L83,126.9 L83,126.9 Z M148.5,45.4 L148.5,47.4 L151,55.9 L176.5,54.4 L176.5,51.9 L174.5,43.9 L148.5,45.4 L148.5,45.4 Z M142,121.4 L142,122.9 L144.5,130.9 L157,130.4 L157,128.4 L154.5,120.9 L142,121.4 L142,121.4 Z M178.5,87.4 L178.5,89.9 L181,93.9 L191.5,92.9 L191.5,90.9 L189,86.4 L178.5,87.4 L178.5,87.4 Z M214.5,84.4 L200.5,85.4 L200.5,87.9 L210,105.4 L224.5,103.9 L224.5,101.9 L214.5,84.4 L214.5,84.4 Z M214.5,84.4" class="wall"/>
            </g>
            <g class="ceilings">
                <path class="unit" d="M191.5,90.9 L189,86.4 L178.5,87.4 L181.5,91.9 L191.5,90.9 Z M191.5,90.9" id="3001"/>
                <path class="unit" d="M207,97.1 L210.5,103.4 L224.5,101.9 L221.3,96.4 L207,97.1 Z M207,97.1" id="3002"/>
                <path class="unit" d="M206.7,96.6 L221.1,95.9 L218.2,90.9 L204,91.6 L206.7,96.6 Z M206.7,96.6" id="3003"/>
                <path class="unit" d="M214.5,84.4 L200.5,85.4 L203.7,91.1 L217.9,90.4 L214.5,84.4 Z M214.5,84.4" id="3004"/>
                <path class="unit" d="M142,121.4 L144.5,128.9 L157,128.4 L154.5,120.9 L142,121.4 Z M142,121.4" id="3005"/>
                <path class="unit" d="M83,126.9 L99,127.9 L102.5,122.4 L86.5,121.9 L83,126.9 Z M83,126.9" id="3006"/>
                <path class="unit" d="M176.5,51.9 L174.5,43.9 L162.3,44.6 L164.3,52.6 L176.5,51.9 Z M176.5,51.9" id="3007"/>
                <path class="unit" d="M148.5,45.4 L151,53.4 L163.8,52.6 L161.8,44.6 L148.5,45.4 Z M148.5,45.4" id="3008"/>
                <path class="unit" d="M145.5,40.9 L124,41.9 L126.5,52.4 L134.3,51.9 L134.7,52.9 L140,52.6 L139.5,51.4 L148,50.9 L145.5,40.9 Z M145.5,40.9" id="3009"/>
                <path class="unit" d="M55,56.3 L57.4,66.6 L109.4,63.9 L107,53.6 L55,56.3 Z M55,56.3" id="3010"/>
                <path class="unit" d="M44.9,89.4 L102.5,86.4 L101.6,82.4 L44,85.4 L44.9,89.4 Z M44.9,89.4" id="3011"/>
                <path class="unit" d="M43.9,84.9 L101.5,81.9 L102.6,81.9 L106.4,81.7 L105,76.1 L42.6,79.4 L43.9,84.9 Z M43.9,84.9" id="3012"/>
                <path class="unit" d="M42.5,78.9 L104.9,75.6 L103.6,70.7 L41.4,74 L42.5,78.9 Z M42.5,78.9" id="3013"/>
                <path class="unit" d="M56,94.4 L57.4,99.2 L104.8,96.7 L103.7,91.8 L56,94.4 Z M56,94.4" id="3014"/>
                <path class="unit" d="M46,94.3 L103.6,91.4 L102.6,86.9 L45,89.9 L46,94.3 Z M46,94.3" id="3015"/>
                <path class="unit" d="M41.3,73.5 L103.5,70.2 L102.1,64.8 L40,68 L41.3,73.5 Z M41.3,73.5" id="3016"/>
                <path class="unit" d="M104.5,42.4 L52.5,45.4 L54.9,55.8 L106.9,53.1 L104.5,42.4 Z M104.5,42.4" id="3017"/>
                <path class="unit" d="M49.5,108.9 L39,109.9 L39.9,114.4 L50.1,113.4 L50.5,114.9 L103.5,111.9 L103,108.4 L107,108.4 L105,100.4 L101,100.4 L100.5,97.4 L47.5,99.9 L49.5,108.9 Z M49.5,108.9" id="3018"/>
        </g>
    </g>
</svg>