<?xml version="1.0" encoding="utf-8"?>
<!DOCTYPE svg PUBLIC "-//W3C//DTD SVG 1.1//EN" "http://www.w3.org/Graphics/SVG/1.1/DTD/svg11.dtd">
<svg version="1.1" xmlns="http://www.w3.org/2000/svg" xmlns:xlink="http://www.w3.org/1999/xlink" xml:space="preserve">
<g class="level" id="level1">
<g class="outline">
            <path d="M240.6,127.2 C240.6,126.9 240.5,126.6 240.3,126.3 L238.4,124 L234.3,118.9 C234.3,118.8 234.2,118.8 234.2,118.7 L231.7,115.7 L231.6,115.6 L228.6,112.9 C228.6,112.9 228.6,112.8 228.5,112.8 L226.3,110.1 C226.1,109.8 225.8,109.7 225.4,109.6 L221.5,108.9 L219.5,106.5 L219.2,102.4 C219.2,102.1 219.1,101.8 218.9,101.6 L205.1,84.7 C204.9,84.4 204.6,84.2 204.2,84.2 L188.1,81.8 C187.8,81.8 187.6,81.8 187.3,81.9 L185.3,82.7 L177.3,81.4 L177.2,81.4 L167.1,79.9 L166.7,79.9 C166.7,79.9 166.4,79.9 166,80 C165.5,80.1 165.1,80.3 164.6,80.5 L162.8,81.4 C162.1,81.9 161.4,82.4 160.8,83 C160.2,83.6 159.6,84.5 159.1,85.6 C158.7,86.4 158.3,87.4 158,88.5 C157.7,89.3 157.5,90.2 157.3,91 C157.1,91.7 157,92.2 157,92.4 C157,92.4 157,92.6 156.9,92.9 C156.9,93.1 156.8,93.5 156.7,93.9 C156.6,94.3 156.6,94.8 156.5,95.3 C156.4,95.8 156.4,96.4 156.3,97 C156.3,97.5 156.3,97.9 156.2,98.4 L156.2,99.6 L156.2,100.5 L156.2,101.1 C156.2,101.1 156.2,101.1 156.2,101.2 L156.2,101.2 L156.2,101.3 L156.2,101.6 L156.2,101.9 C156.2,102.1 156.2,102.4 156.3,102.7 C156.3,103 156.4,103.4 156.4,103.9 C156.5,104.4 156.5,104.9 156.6,105.5 C156.7,105.9 156.7,106.3 156.8,106.7 L157.8,111.2 C157.9,111.8 158.1,112.3 158.2,112.9 C158.4,113.4 158.5,113.9 158.7,114.3 C158.9,114.7 159,115 159.1,115.3 C159.2,115.4 159.2,115.5 159.2,115.6 C159.2,115.7 159.2,115.7 159.3,115.8 C159.4,116 159.5,116.2 159.6,116.6 C159.7,116.9 159.9,117.4 160.2,117.9 C160.4,118.4 160.8,119 161.1,119.7 C161.3,120 161.4,120.3 161.6,120.5 C161.8,120.8 161.9,121 162,121.3 C162.1,121.5 162.3,121.8 162.4,122 C162.5,122.2 162.7,122.4 162.8,122.6 C162.9,122.8 163,122.9 163.1,123.1 C163.2,123.2 163.3,123.3 163.3,123.4 C163.4,123.5 163.4,123.6 163.5,123.6 L163.6,123.7 L163.7,123.8 C164,124.1 164.3,124.2 164.7,124.3 L164.9,125.5 C164.9,125.7 165,125.9 165.1,126 L170.8,134.5 L186.7,158.4 C186.9,158.7 187.2,158.9 187.5,159 L187.6,159 L190.3,159.5 C190.6,159.6 190.9,159.5 191.2,159.4 L193.9,158.1 L195.6,158.4 C195.9,158.4 196.2,158.4 196.4,158.3 L237.9,139 C238.3,138.8 238.5,138.5 238.7,138.2 L240.7,132.6 C240.8,132.4 240.8,132.2 240.8,132.1 L240.6,127.2 L240.6,127.2 Z M204.7,132.1 L199.7,125.2 C199.5,124.9 199.2,124.7 198.9,124.7 C198.6,124.6 198.2,124.6 197.9,124.8 L193.9,126.6 L181.1,109.2 C180.7,108.7 180,108.5 179.4,108.7 L178.1,109.2 L178.1,109.1 L179.9,108.3 C180.5,108 180.9,107.4 180.8,106.7 L180,102.2 C180,102 179.9,101.8 179.8,101.6 L178.1,99.2 L178.4,98.7 L181.8,99.2 L182.8,99.4 C183.1,99.4 183.4,99.4 183.6,99.3 L187.4,97.7 L211.1,129 L204.7,132.1 L204.7,132.1 Z M468.7,76.5 L401.3,31.7 C400.9,31.4 400.4,31.4 399.9,31.6 L352.7,52.3 C352.3,52.5 351.9,52.9 351.9,53.4 L351,58 C350.9,58.5 351.1,59.1 351.5,59.4 L355.9,62.9 C355.6,62.8 355.3,62.9 355,63 L353.1,63.9 C352.8,64 352.6,64.3 352.4,64.5 L348.8,61.6 C348.8,61.6 348.7,61.6 348.7,61.5 L333,48.9 C333,48.9 332.9,48.9 332.9,48.8 L319.6,38.1 C319.6,38.1 319.5,38.1 319.5,38 L307,28 C306.6,27.7 306,27.6 305.6,27.8 L290.3,34 L277.3,22.9 C277,22.7 276.7,22.6 276.4,22.6 L276.4,21.3 C276.4,20.9 276.2,20.4 275.9,20.1 L274.9,19.2 L300.3,9.5 C300.8,9.3 301.2,8.8 301.2,8.3 L301.5,3.9 C301.5,3.4 301.3,2.9 300.9,2.6 L299,1.2 C298.6,0.9 298.1,0.8 297.6,1 L294.9,2 L294.1,1.4 C293.7,1.1 293.2,1 292.7,1.2 L285.5,3.9 L285.1,4 L278.2,5.1 C277.8,4.8 277.3,4.8 276.9,4.9 L269,7.8 L262.2,2.2 C262,2 261.7,1.9 261.4,1.9 L257,1.6 C256.7,1.6 256.3,1.7 256,1.8 C255.6,2 255.3,2.3 255.1,2.6 C254.8,2.9 254.6,3.3 254.5,3.6 C254.4,3.9 254.3,4.2 254.3,4.6 L254.3,5.3 L254.3,11.3 L254.3,11.6 L254.3,11.9 L254.3,12.3 L254.3,12.4 C254.4,12.8 254.4,13.2 254.5,13.6 L254.8,14.5 C254.9,14.8 255,15 255.1,15.1 C255.1,15.2 255.2,15.2 255.2,15.3 C255.3,15.4 255.3,15.5 255.4,15.6 C255.5,15.7 255.6,15.8 255.6,16 L255.9,16.3 L256.2,16.6 L256.3,16.7 L256.4,16.7 C256.4,16.7 256.4,16.7 256.5,16.8 L256.6,16.9 L256.7,17 L256.8,17.1 C257,17.2 257.1,17.3 257.3,17.4 L257.4,17.5 L257.6,17.6 C257.7,17.6 257.7,17.7 257.8,17.7 L256.8,20 C256.7,20.2 256.7,20.4 256.7,20.6 L256.7,23.4 L255.3,23.9 L252.8,21.7 C252.6,21.5 252.3,21.4 252,21.3 L242.4,20.1 L242.3,20.1 L226.6,18.4 C226.4,18.4 226.2,18.4 225.9,18.5 L222.2,19.8 C221.6,20 221.2,20.6 221.3,21.2 L221.6,25.6 C221.6,26 221.8,26.3 222,26.5 L224.3,28.8 L217.5,31.3 L215.9,29.7 C215.5,29.3 214.9,29.2 214.4,29.4 L195,36.4 C194.4,36.6 194,37.3 194.1,37.9 L194.6,42.3 C194.6,42.5 194.7,42.8 194.9,43 L164.4,54.5 C164,54.7 163.7,55 163.5,55.4 L159.7,50.4 C159.3,49.9 158.6,49.7 158.1,49.9 L147.4,53.9 L144.2,49.5 C143.8,49 143.1,48.8 142.5,49 L138.3,50.5 L138.2,50.5 C137.7,50.5 137.3,50.7 137.1,51.1 C137,51.2 136.8,51.4 136.8,51.6 L135.8,53.1 L128,56 C127.9,56 127.9,56.1 127.8,56.1 L127.3,54 C127.2,53.4 126.7,53 126.1,52.9 L123.1,52.5 C122.6,52.4 122,52.7 121.7,53.1 L119.2,56.7 L106.9,55.1 L105.8,51.3 C105.6,50.8 105.2,50.4 104.6,50.3 L101.3,49.9 C100.8,49.8 100.3,50.1 99.9,50.5 L97.6,53.7 L89.7,52.6 C89.2,52.5 88.7,52.7 88.4,53.2 L85.6,57 L82.5,56.6 C82,56.5 81.5,56.7 81.2,57.2 L79.7,59.2 C79.4,59.6 79.3,60.1 79.5,60.5 L80.6,63.8 L73,73.6 L69.6,73.1 C69.1,73 68.6,73.2 68.2,73.7 L66.5,75.9 C66.2,76.3 66.1,76.8 66.3,77.3 L68,81.7 C68.1,82.1 68.4,82.3 68.8,82.5 L68.9,82.7 L67.2,84.9 L64,86.1 C63.6,86.2 63.3,86.5 63.2,86.9 C63,87.3 63,87.7 63.2,88 L65,92.4 C65.2,92.9 65.6,93.2 66.1,93.3 L101.8,99.3 L104.7,104.6 L100.9,106.1 C100.2,106.4 99.8,107.2 100.1,107.9 L100.2,108.1 C99.6,108.4 99.4,109.1 99.6,109.8 L101.1,114.3 C101.1,114.4 101.2,114.4 101.2,114.5 L102.5,116.9 C102.8,117.6 103.6,117.8 104.3,117.6 L116.1,112.8 L117.4,115.1 C117.8,115.7 118.5,116 119.2,115.7 L127.4,112.3 C127.9,112.1 128.3,111.6 128.3,111 L128.6,111.5 C128.7,111.6 128.7,111.7 128.8,111.8 L128.8,111.8 C128.9,111.9 128.9,112 129,112.1 L131.6,116.4 L128.8,117.6 C128.1,117.9 127.8,118.6 128,119.3 L129.3,123.8 C129.3,123.9 129.4,124 129.4,124.1 L131.5,127.8 C131.9,128.4 132.6,128.7 133.3,128.4 L134.4,128 C134,128.4 133.8,128.9 133.9,129.5 L135.1,134 C135.1,134.1 135.2,134.2 135.2,134.3 L136.1,135.9 C135.6,136.3 135.4,136.9 135.6,137.4 L136.9,141.9 C136.9,142 137,142.1 137,142.2 L139.9,147.2 C140.3,147.8 141.1,148.1 141.7,147.8 L142.7,147.4 L142.9,147.7 L140,149 C139.3,149.3 139,150 139.2,150.7 L140.4,155.2 C140.4,155.3 140.5,155.4 140.5,155.5 L141.3,156.9 L130.4,161.8 L125.2,152 C124.8,151.3 124,151 123.3,151.4 L90.3,165.9 L88.2,161 C87.9,160.3 87,159.9 86.3,160.3 L74.6,165.4 C74.3,165.5 74.1,165.7 73.9,166 L36.3,182.3 C35.6,182.6 35.3,183.4 35.5,184.1 L36.8,188.3 C36.8,188.4 36.9,188.5 36.9,188.6 L38.7,191.8 L4.6,206.8 C4,207.1 3.6,207.8 3.8,208.5 L7.2,222.3 L1.7,224.8 C1.1,225.1 0.7,225.8 0.9,226.4 L5.5,246.3 C5.5,246.5 5.6,246.7 5.8,246.9 L9,251 C9.4,251.5 10.1,251.7 10.8,251.4 L14.1,249.8 L14.2,250.4 L8.3,253.2 C7.7,253.5 7.4,254.2 7.5,254.8 L12.6,276.9 L12.9,277.5 L16.1,281.4 C16.5,281.9 17.3,282.1 17.8,281.8 L21.3,280.1 L22.2,283.9 C22.3,284.1 22.3,284.3 22.5,284.5 L25.6,288.3 C25.8,288.5 26.1,288.7 26.3,288.8 C26.6,288.9 27,288.9 27.3,288.7 L38.3,283.2 L40.1,285.6 C40.5,286.2 41.3,286.3 41.9,286 L60.6,276.5 C61.2,276.2 61.5,275.5 61.3,274.8 L60.4,272 L184.7,209.5 C185.3,209.2 185.6,208.6 185.5,207.9 L184.6,203.5 L197.3,197.2 L200.7,202.6 C201.1,203.2 201.9,203.5 202.6,203.1 L223.2,192.7 L232.7,206.6 C233.1,207.2 233.9,207.4 234.6,207.1 L254.1,196.9 L258.2,202.4 L258.2,206.1 C258.2,206.4 258.3,206.7 258.5,207 L267.2,218.8 C267.4,219.1 267.7,219.3 268.1,219.4 L271.4,220 C271.7,220.1 272.1,220 272.4,219.8 L273.7,219.1 L281.6,220.7 L282.4,221.8 C282.6,222.1 282.9,222.3 283.3,222.3 L287.6,223.1 C287.9,223.2 288.3,223.1 288.6,222.9 L299,217.1 C299.4,216.9 299.6,216.5 299.7,216.1 L300.2,213.6 L312.5,206.7 L315.7,207.4 C316,207.5 316.4,207.4 316.7,207.2 L325.8,202.1 C326.2,201.9 326.4,201.5 326.5,201.1 L327.3,196.6 L327.8,193.3 C327.9,192.9 327.7,192.5 327.5,192.1 L326.4,190.8 L326.5,189.8 L327,189.5 C327.4,189.3 327.6,188.9 327.7,188.5 L328.5,184 L328.5,183.9 L328.7,181.7 C328.7,181.3 328.6,180.9 328.3,180.6 L318.4,169.7 C318,169.2 317.2,169.1 316.7,169.4 L315.2,170.2 L305.9,159.8 L315.2,155 L322.9,163.2 C323.3,163.7 324.1,163.8 324.6,163.5 L334.7,158.1 L342.5,166.1 C342.9,166.6 343.6,166.7 344.2,166.4 L370.1,152.5 C370.4,152.3 370.7,152 370.8,151.6 L372.1,147 C372.2,146.5 372.1,145.9 371.7,145.6 L363,137.5 L374.9,131.3 L386.9,142 C387.4,142.4 388,142.5 388.5,142.2 L398.6,136.8 C398.9,136.6 399.2,136.3 399.3,136 L400.8,131.3 C401,130.7 400.8,130.1 400.4,129.8 L393.3,123.7 L398.1,121.2 C398.4,121 398.7,120.7 398.8,120.4 L400.3,115.7 C400.3,115.6 400.4,115.4 400.4,115.3 L400.4,108.1 C400.4,107.7 400.2,107.2 399.9,107 L399,106.3 L399.1,106.2 L403.6,109.8 L404.2,110.1 L412.3,111.6 C412.6,111.7 412.9,111.6 413.2,111.5 L466.2,84 C466.5,83.8 466.7,83.6 466.9,83.3 L468.9,78.6 C469.5,77.6 469.3,76.9 468.7,76.5 L468.7,76.5 L468.7,76.5 Z M324.8,68.7 L325.3,69.6 L325.9,70.9 L325.7,71.1 L325.6,71.2 L325.5,71.3 L325.4,71.4 L324.1,72.5 L324.6,68.6 L324.8,68.7 L324.8,68.7 Z M318.9,78.5 C319.1,78.4 319.3,78.3 319.5,78.1 C319.7,78 320,77.8 320.2,77.7 C320.4,77.6 320.5,77.5 320.7,77.4 C320.8,77.3 321,77.2 321.1,77.1 C321.2,77 321.4,76.9 321.4,76.9 L321.5,76.8 C321.6,76.7 321.7,76.7 321.7,76.6 L321.9,76.4 L322.1,76.2 L322.1,76.1 L322.2,76.1 L322.3,76 L322.5,75.8 L322.7,75.6 L322.6,76.3 L321.6,76.8 C321.2,77 320.9,77.4 320.8,77.9 L320.4,80.8 L318.2,78.8 L318.9,78.5 L318.9,78.5 Z M297.2,53.9 L297.2,54.4 L296.7,54 L296.7,53.9 C296.9,54 297.1,54 297.2,53.9 L297.2,53.9 L297.2,53.9 Z M274.8,72.3 L297.9,94.6 L295.4,95.8 L291.1,91.6 C290.7,91.2 290,91.1 289.5,91.3 L270.2,99.9 C269.7,100.1 269.4,100.6 269.3,101.2 L269.2,105.8 C269.2,106.2 269.3,106.6 269.6,106.8 L270.2,107.4 L270.1,109.4 L267.2,110.7 L264.9,108.2 L265,104.2 C265,103.8 264.9,103.5 264.6,103.2 L263,101.4 L269.9,98.3 C270.4,98.1 270.7,97.6 270.8,97 L270.9,92.4 C270.9,92 270.8,91.6 270.5,91.4 L265.6,86.3 C265.2,85.9 264.5,85.7 264,86 L259.9,87.8 L247.5,75 C247.9,74.7 248.1,74.3 248.1,73.8 L248,69.2 C248,68.8 247.8,68.5 247.6,68.2 L246.5,67.1 L262.6,60.5 L274.8,72.3 L274.8,72.3 Z M247.6,142.1 L247.6,142.1 L247.5,141.9 L247.6,142.1 L247.6,142.1 Z M388.2,88.6 L387.4,91.4 L383,93.6 L375.1,92.5 C374.8,92.5 374.5,92.5 374.3,92.6 L350.2,104.3 C349.8,104.5 349.6,104.8 349.4,105.2 L348.7,107.5 L345.5,109.1 L340.5,111.5 L336.5,111.2 C336.2,111.2 336,111.2 335.8,111.3 L334.4,112 C334.4,112 334.4,112 334.3,112 L271.8,142.4 C271.4,142.6 271.1,142.9 271,143.3 L270.7,144.6 L270.7,144.9 L270.7,145.6 L262.2,149.7 C262,149.4 261.7,149.3 261.3,149.2 L249.8,147.2 L249.7,147.2 L238,145.1 C237.7,145 237.4,145.1 237.1,145.2 L171.8,176.1 L171.5,176.1 C171,176.1 170.5,176.5 170.3,176.9 C170.1,177.1 170,177.4 169.9,177.7 L169.8,178 L152.1,186.4 C151.8,186.5 151.6,186.7 151.5,187 L150.6,188.5 L115,205.6 C114.8,205.7 114.6,205.9 114.4,206.1 L112.5,209 L105.7,212.3 C105.7,212.3 105.6,212.3 105.6,212.4 L88,220.8 L75.7,189.3 C76.1,189.6 76.7,189.7 77.2,189.5 L77.5,189.4 L83.4,204 L85.4,208.3 C85.6,208.7 86,209 86.4,209.1 L91.5,210.2 C91.8,210.3 92.1,210.2 92.4,210.1 L149.4,183.3 C150,183 150.4,182.3 150.2,181.6 L150.1,181.3 L153.7,173.6 C153.8,173.3 153.9,172.9 153.8,172.6 L153.7,172.1 L157.1,170.6 L163.9,172.8 C164.1,172.9 164.3,173 164.5,173 L164.7,173.1 C165.2,173.3 165.7,173.1 166.1,172.8 C166.2,172.7 166.3,172.6 166.4,172.4 L182.2,165 C182.5,164.8 182.8,164.6 182.9,164.2 L184.3,160.5 C184.4,160.3 184.4,160 184.4,159.7 L183.6,155.2 C183.6,155 183.5,154.8 183.4,154.7 L172.4,137.7 C172,137.1 171.3,136.9 170.6,137.2 L168.8,138 L164,137.1 L154.6,122.2 L154.8,122 L154.9,121.9 C154.9,121.9 154.9,121.8 155,121.8 L155,121.8 L155,121.7 L155.1,121.6 C155.1,121.6 155.1,121.5 155.2,121.5 L155.2,121.4 L155.2,121.3 C155.2,121.3 155.2,121.3 155.2,121.2 C155.2,121.2 155.2,121.2 155.2,121.1 L155.2,121.1 L155.2,121 L155.2,120.8 L155.2,120.7 L155.2,120.5 L155.2,120.4 L155.2,120.3 L155.2,120.2 L155.2,120.1 L155.2,120 L155.2,119.9 L155.2,119.7 L155.2,119.6 L154.2,115.1 C154.2,115.1 154.2,115.1 154.2,115 C154.2,114.9 154.1,114.7 154.1,114.6 C154,114.3 153.8,113.9 153.7,113.6 C153.6,113.3 153.4,113 153.3,112.8 C153.2,112.7 153.2,112.6 153.2,112.6 L152.4,110.5 L150.8,105.3 L150.5,103.5 L150,99.4 L149.9,97 L149.9,95.7 L149.9,95.6 L149.9,95.4 L149.9,95.3 L149.9,95.2 L149.9,95 L149.9,94.9 L149.9,94.8 L149.9,94.7 L149.9,94.6 L149.9,94.5 L148.9,90 C148.8,89.7 148.7,89.4 148.5,89.2 C148.4,89.1 148.4,89 148.3,88.9 L148,88.6 C147.9,88.5 147.8,88.4 147.7,88.4 C147.6,88.3 147.5,88.3 147.4,88.2 C146.9,88 146.3,87.9 145.7,87.9 C145.3,87.9 144.8,88 144.3,88.2 C143.9,88.3 143.5,88.5 143.3,88.6 C143.1,88.7 143,88.7 142.9,88.8 L132.6,92.9 L129.8,93.9 L128.1,94.4 C128,94.4 128,94.4 127.9,94.5 C127.7,94.1 127.3,93.8 126.8,93.7 L125,93.5 C124.5,93.4 124,93.3 123.5,93.1 C123,92.9 122.5,92.8 122,92.6 C121.5,92.4 121.1,92.2 120.7,92 C120.3,91.8 119.9,91.6 119.5,91.3 C119.3,91.1 119,91 118.8,90.8 L121.3,86.9 L122.2,90.3 L122.2,90.4 C122.2,90.5 122.2,90.5 122.3,90.6 L122.3,90.7 L122.3,90.8 L122.4,90.9 C122.5,91.1 122.6,91.2 122.8,91.4 C122.8,91.4 122.8,91.4 122.9,91.5 C123,91.6 123,91.6 123.1,91.6 C123.2,91.7 123.3,91.7 123.3,91.8 C123.3,91.8 123.3,91.8 123.4,91.9 C123.5,91.9 123.5,92 123.6,92 C123.7,92 123.8,92.1 123.8,92.1 C123.8,92.1 123.9,92.1 123.9,92.2 C123.9,92.2 124,92.3 124.1,92.3 C124.2,92.3 124.2,92.4 124.3,92.4 L124.4,92.4 L124.5,92.4 L124.9,92.5 L125,92.5 L125.1,92.5 L125.2,92.5 L125.3,92.5 L125.5,92.5 L125.6,92.5 L125.7,92.5 L125.8,92.5 L125.9,92.5 L126,92.5 L126.1,92.5 L126.3,92.5 L126.4,92.5 L126.6,92.5 L127,92.5 L127.1,92.5 L128.3,92.4 L128.4,92.4 L128.9,92.3 L129,92.3 L129.1,92.3 L129.2,92.3 L130.3,92 L132.3,91.3 C132.4,91.3 132.4,91.2 132.6,91.2 C132.8,91.1 132.9,91.1 133.1,90.9 C133.2,90.9 133.2,90.8 133.3,90.8 C133.4,90.8 133.5,90.7 133.5,90.7 L133.6,90.6 C133.7,90.6 133.7,90.5 133.8,90.5 L134.1,90.3 C134.1,90.3 134.2,90.3 134.2,90.2 C134.5,90 134.7,89.9 134.9,89.7 C134.9,89.7 135,89.6 135.1,89.6 C135.3,89.4 135.5,89.3 135.6,89.1 C135.6,89.1 135.6,89.1 135.7,89 C135.7,89 135.8,89 135.8,88.9 L136,88.7 L136.1,88.6 L136.3,88.4 L136.4,88.3 C136.4,88.3 136.4,88.3 136.4,88.2 L136.7,87.7 L136.8,87.6 C136.8,87.5 136.9,87.5 136.9,87.4 L137,87.2 L137,87.1 L137,87 C137,87 137,87 137,86.9 L137,86.8 L137,86.7 L137,86.5 L137,86.4 L137,86.2 L137,86.1 L137,86 C137,86 137,86 137,85.9 L137,85.9 L137,85.8 L137,85.6 L137,85.5 L137,85.4 L136.2,82 L136.4,81.9 C136.8,82.1 137.2,82.2 137.7,82 L141.6,80.5 C142,80.8 142.5,80.9 143,80.7 L146.8,79.2 C147.2,79.5 147.8,79.6 148.3,79.4 L152.3,77.9 C152.7,78.2 153.2,78.2 153.6,78.1 L158.1,76.3 L162.9,77.1 L163.5,77.1 C163.7,77.2 163.9,77.3 164.1,77.3 L185.8,80.5 C186.1,80.5 186.3,80.5 186.5,80.4 L191.3,78.5 C191.7,78.3 192,78 192.1,77.6 L192.3,77 L205.2,71.9 L208.4,72.1 C208.6,72.1 208.8,72.1 209,72 L212.1,70.8 C212.5,70.7 212.8,70.4 212.9,70 L217.8,57.8 C217.9,57.6 217.9,57.4 217.9,57.2 L217.6,53 L218.4,51.3 L222.5,49.7 L227,50.1 C227.2,50.1 227.4,50.1 227.7,50 L258.6,38 C259,37.9 259.3,37.5 259.4,37.2 L260,35 L265.9,32.7 L267.3,32.9 C268,33 268.6,32.6 268.8,31.9 L269.7,29.2 L271.3,28.6 L271.2,31.6 C271.2,32 271.4,32.4 271.7,32.7 L274.4,35.1 L273.9,36.7 C273.9,36.8 273.8,37 273.8,37.1 L273.7,39.1 L272.2,37.7 C272,37.5 271.7,37.4 271.4,37.3 L264.1,36.5 C263.9,36.5 263.6,36.5 263.4,36.6 L232.1,49 C231.7,49.1 231.4,49.4 231.3,49.8 L230.5,51.7 L227.8,52.7 C227.4,52.8 227.1,53.1 227,53.5 L220.9,67.8 L219.5,68.3 C219.1,68.4 218.8,68.7 218.7,69.1 L214.5,79.8 C214.4,80 214.4,80.2 214.4,80.4 L214.8,84.9 C214.8,85.2 214.9,85.5 215.1,85.7 L224.3,96.4 L224.4,96.5 L230.6,103.5 C230.8,103.8 231.1,103.9 231.5,104 L232.8,104.2 L237.8,110.1 L237.9,111.4 C237.9,111.7 238,112 238.2,112.3 L251.2,127.5 L247.5,126.9 C247.2,126.8 246.9,126.9 246.6,127 L243.8,128.3 C243.4,128.5 243.2,128.8 243,129.2 L240.8,136.1 C240.7,136.3 240.7,136.4 240.7,136.6 L240.9,141.2 C240.9,141.9 241.4,142.5 242.1,142.6 L246.3,143.3 L246.7,143.3 L246.8,143.3 L247,143.3 L247.1,143.3 L247.2,143.3 L247.3,143.3 L247.4,143.3 L247.5,143.3 L247.6,143.3 L247.6,143.1 L247.7,143.1 L247.7,143.3 L247.8,143.3 L247.9,143.3 L248,143.3 L248.1,143.3 L248,142.8 C248,142.8 248,142.7 248.1,142.7 L248.1,143.3 L248.2,143.3 L248.3,143.3 L248.4,143.3 L248.5,143.3 L248.6,143.3 L248.9,143.2 L249.1,143.1 C249.1,143.1 249.2,143.1 249.2,143 L249.2,143 L249.3,142.9 L249.4,142.8 C249.5,142.7 249.6,142.7 249.7,142.6 L249.8,142.6 L249.9,142.6 L250,142.5 L250.1,142.4 L250.2,142.3 L250.3,142.2 C250.4,142.2 250.4,142.1 250.4,142.1 L250.5,142 L250.6,141.9 L250.7,141.8 L250.8,141.7 L250.9,141.6 L250.9,141.5 L251,141.4 L251.1,141.2 L251.1,141.1 C251.1,141.1 251.1,141.1 251.1,141 L251.1,141 L251.1,140.9 L251.1,140.8 L251.1,140.7 L251.1,140.6 L251.1,140.5 L251.1,140.4 C251.1,140.4 251.1,140.4 251.1,140.3 L251.1,140.3 L251.1,140.2 L251.1,137.4 L251.3,137.4 L251.3,136 L251.4,137.4 L251.5,137.4 L251.7,137.4 L251.8,137.4 L252.2,137.4 L252.3,137.4 L252.4,137.4 L252.6,137.4 L252.7,137.4 L252.8,137.4 L252.9,137.4 L253,137.4 L253.1,137.4 L253.2,137.4 L253.3,137.4 C253.3,137.4 253.4,137.4 253.5,137.3 L253.6,137.2 L253.7,137.2 C253.8,137.2 253.9,137.1 253.9,137.1 C253.9,137.1 254,137.1 254,137 L254,137 L254.1,136.9 L254.2,136.8 C254.2,136.8 254.3,136.7 254.4,136.7 L254.6,136.5 L254.7,136.4 L254.8,136.3 C254.8,136.2 254.9,136.2 254.9,136.2 C254.9,136.2 254.9,136.2 255,136.1 C255,136.1 255,136.1 255,136 L255,136 C255,136 255,136 255,135.9 L255.1,135.8 C255.1,135.8 255.1,135.7 255.2,135.7 L255.2,135.7 L255.2,135.6 C255.3,135.4 255.3,135.2 255.3,135 L255.3,132.5 L273.8,135.7 C274.1,135.7 274.4,135.7 274.6,135.6 L314,116.8 C314.1,116.8 314.2,116.7 314.2,116.7 L326.6,110.8 C327,110.6 327.3,110.2 327.4,109.7 L327.7,107.4 L329.9,106.4 C330.1,106.3 330.3,106.1 330.5,105.9 L332.2,103.4 C332.2,103.5 332.3,103.5 332.3,103.6 C332.5,103.9 332.9,104.1 333.3,104.1 L342.1,105.2 C342.4,105.2 342.7,105.2 342.9,105.1 L345,104.1 C345.4,103.9 345.7,103.5 345.8,103.1 L346.5,99.5 L348.3,99.7 C348.6,99.7 348.9,99.7 349.1,99.6 L364.5,92.2 C364.9,92 365.2,91.6 365.3,91.2 L366.3,86.5 L366.3,86.3 L366.3,86 L368.8,84.8 L373,85.4 C373.3,85.4 373.6,85.4 373.8,85.3 L379.6,82.6 L383.5,85.7 L383.4,86.9 C383.4,87.3 383.5,87.7 383.8,88 C384.1,88.3 384.4,88.5 384.8,88.5 L387.2,88.6 L388,89.3 C388.3,88.4 388.2,88.5 388.2,88.6 L388.2,88.6 L388.2,88.6 Z M247.3,142 L247.3,142 L247.3,141.9 L247.3,142 L247.3,142 Z M247.3,142" class="outline"/>
        </g>
        <g class="label">
            <path d="M48.5,17.2 C47.1,16.7 46.3,16.3 46.3,15.1 C46.3,14 47.2,13.4 48.3,13.4 C49,13.4 49.5,13.5 50,13.7 C50.2,13.7 50.3,13.8 50.5,13.8 C50.8,13.8 51.1,13.6 51.1,13.2 C51.1,13 51,12.8 50.6,12.6 C50.1,12.4 49.2,12.2 48.5,12.2 C46.3,12.2 45,13.5 45,15.2 C45,16.8 46.1,17.6 47.7,18.2 C49.8,19 50.4,19.6 50.4,20.6 C50.4,21.7 49.5,22.5 48.1,22.5 C47.2,22.5 46.4,22.2 45.9,21.8 C45.6,21.6 45.5,21.5 45.3,21.5 C45,21.5 44.7,21.7 44.7,22 C44.7,22.3 44.8,22.5 45.1,22.6 C45.8,23.1 46.9,23.6 48.1,23.6 C50.3,23.6 51.7,22.3 51.7,20.5 C51.6,18.9 50.4,17.9 48.5,17.2 L48.5,17.2 L48.5,17.2 Z M39.2,12.2 C38.2,12.2 37.4,12.3 36.9,12.5 C36.5,12.6 36.4,12.9 36.4,13.3 L36.4,23 C36.4,23.4 36.7,23.6 37,23.6 C37.3,23.6 37.6,23.4 37.6,23 L37.6,19.4 L39.1,19.4 C42,19.4 43.5,18 43.5,15.7 C43.6,13.7 42.2,12.2 39.2,12.2 L39.2,12.2 L39.2,12.2 Z M39.1,18.2 L37.7,18.2 L37.7,13.5 C38.1,13.4 38.7,13.4 39.2,13.4 C41.5,13.4 42.3,14.5 42.3,15.8 C42.3,17.1 41.6,18.2 39.1,18.2 L39.1,18.2 L39.1,18.2 Z M33.6,12.3 C33.2,12.3 33,12.6 33,13 L33,21.8 C32.2,22.3 31,22.6 30.3,22.6 C28.4,22.6 27.3,21.7 27.3,19.6 L27.3,13 C27.3,12.6 27,12.3 26.7,12.3 C26.3,12.3 26.1,12.6 26.1,13 L26.1,19.8 C26.1,22.1 27.6,23.7 30.1,23.7 C31.9,23.7 32.9,23.2 33.9,22.7 C34.3,22.5 34.3,22.2 34.3,21.8 L34.3,13 C34.2,12.6 33.9,12.3 33.6,12.3 L33.6,12.3 L33.6,12.3 Z M65.8,13.8 C65.2,12.6 64.7,12.2 64.1,12.2 C63.5,12.2 63,12.6 62.4,13.8 C61.5,15.6 60.8,17.9 59.6,22.5 C59.5,22.7 59.5,22.9 59.5,23 C59.5,23.4 59.8,23.6 60.1,23.6 C60.4,23.6 60.6,23.4 60.7,23.1 C61,21.7 61.3,20.5 61.6,19.4 L66.5,19.4 C66.8,20.5 67.1,21.7 67.4,23.1 C67.5,23.4 67.7,23.6 68,23.6 C68.4,23.6 68.6,23.4 68.6,23 C68.6,22.9 68.6,22.7 68.5,22.5 C67.5,17.9 66.7,15.6 65.8,13.8 L65.8,13.8 L65.8,13.8 Z M62,18.3 C62.7,15.9 63.4,14.3 63.9,13.5 C63.9,13.4 64,13.4 64.1,13.4 C64.2,13.4 64.3,13.5 64.3,13.5 C64.8,14.3 65.5,15.8 66.2,18.3 L62,18.3 L62,18.3 Z M60.2,13 C60.2,12.7 60,12.4 59.6,12.4 L52.7,12.4 C52.3,12.4 52.1,12.7 52.1,13 C52.1,13.3 52.3,13.6 52.7,13.6 L55.5,13.6 L55.5,23 C55.5,23.4 55.8,23.6 56.1,23.6 C56.4,23.6 56.7,23.4 56.7,23 L56.7,13.6 L59.6,13.6 C60,13.6 60.2,13.3 60.2,13 L60.2,13 L60.2,13 Z M79.7,19.4 C79.4,19 79.1,18.7 78.7,18.4 C80.1,17.9 81.1,16.9 81.1,15.4 C81.1,13.5 79.8,12.2 76.9,12.2 C75.8,12.2 75,12.3 74.5,12.5 C74.1,12.6 74,12.9 74,13.3 L74,23 C74,23.4 74.3,23.6 74.6,23.6 C75,23.6 75.2,23.4 75.2,23 L75.2,18.8 L76.4,18.8 C77.6,18.8 78,19.3 78.6,20.2 C79,20.8 79.4,21.8 79.9,23.2 C80,23.5 80.2,23.6 80.5,23.6 C80.8,23.6 81.1,23.4 81.1,23 C81.1,22.9 81.1,22.7 81,22.6 C80.7,21.4 80.2,20.2 79.7,19.4 L79.7,19.4 L79.7,19.4 Z M76.7,17.6 L75.3,17.6 L75.3,13.6 C75.7,13.5 76.2,13.5 76.9,13.5 C79.2,13.5 79.9,14.4 79.9,15.6 C79.8,17.2 78.3,17.6 76.7,17.6 L76.7,17.6 L76.7,17.6 Z M86.3,17.2 C84.9,16.7 84.1,16.3 84.1,15.1 C84.1,14 85,13.4 86.1,13.4 C86.8,13.4 87.3,13.5 87.8,13.7 C88,13.7 88.1,13.8 88.3,13.8 C88.6,13.8 88.9,13.6 88.9,13.2 C88.9,13 88.8,12.8 88.4,12.6 C87.9,12.4 87,12.2 86.3,12.2 C84.1,12.2 82.8,13.5 82.8,15.2 C82.8,16.8 83.9,17.6 85.5,18.2 C87.6,19 88.2,19.6 88.2,20.6 C88.2,21.7 87.3,22.5 85.9,22.5 C85,22.5 84.2,22.2 83.7,21.8 C83.4,21.6 83.3,21.5 83.1,21.5 C82.8,21.5 82.5,21.7 82.5,22 C82.5,22.3 82.6,22.5 82.9,22.6 C83.6,23.1 84.7,23.6 85.9,23.6 C88.1,23.6 89.5,22.3 89.5,20.5 C89.4,18.9 88.2,17.9 86.3,17.2 L86.3,17.2 L86.3,17.2 Z M71,12.3 C70.6,12.3 70.4,12.6 70.4,13 L70.4,23 C70.4,23.4 70.7,23.6 71,23.6 C71.3,23.6 71.6,23.4 71.6,23 L71.6,13 C71.6,12.6 71.4,12.3 71,12.3 L71,12.3 L71,12.3 Z M71,12.3" class="Shape"/>
        </g>
        <g class="background">
            <path d="M395,82.8 L369.1,68.7 L341.9,84.5 L331.9,75.1 L321.1,56.9 L314.5,57.5 L303.4,55.9 L292,43.2 L281.1,34.1 L279.3,34.1 L281.2,32 L272.6,25.1 L267,20.7 L233.6,33.3 L207,48 L198.7,66.7 L198.7,68.7 L143,66.8 L80.4,70.1 L71,77.8 L69.3,84.8 L72.8,87.7 L114.3,98.8 L143.8,99.3 L152.5,134.6 L157.4,132 L169.7,151.7 L144.2,159.9 L121,179.8 L67.5,172.2 L68.4,209.1 L95.6,247.6 L101.2,243.2 L114.8,238 L160.8,208.9 L209,183.9 L270.9,160.8 L269.1,152.8 L279.6,163.6 L359,113.1 L389.9,107.7 L395,82.8 L395,82.8 Z M219.5,135.7 L197.4,142.8 L199,138.2 L170.2,125 L173.9,123 L158.8,96 L183.4,89.7 L200,88.6 L202.2,89.4 L231.8,129 L219.5,135.7 L219.5,135.7 Z M290.5,120.4 L251.5,123.2 L221.9,86.4 L228.9,64.3 L247.5,53 L267.4,43.8 L265.2,48.4 L278.8,47 L286.8,53.2 L296.3,62.4 L301.7,64.4 L316.6,66.2 L310.8,77.8 L329,92.2 L290.5,120.4 L290.5,120.4 Z M290.5,120.4" class="walkway"/>
            <path d="M214.5,87.4 L220,84.9 L227.9,61.7 L288,36.6 L273.9,23.7 L216.6,45.3 L200.6,70.5 L214.5,87.4 Z M214.5,87.4" class="walkwayblue" fill="#00A0DA"/>
            <path d="M248.1,128.2 L163.9,166.8 L152.8,165.6 L148.6,173.8 L85,203 L74.8,177.7 L69.7,180.1 L87.2,225.3 L239.6,148.8 L248.5,150.2 L252.4,138.3 L253.6,134.8 L248.1,128.2 Z M248.1,128.2" class="walkwayred" fill="#EE3124"/>
            <path d="M381.5,75.2 L270.6,128 L255,125.1 L248.1,128.2 L253.6,134.8 L253.3,135.8 L252.4,138.3 L247.6,153.1 L264.1,156.1 L400.2,90 L381.5,75.2 Z M381.5,75.2" class="walkwaygreen" fill="#00853F"/>
            <path d="M159.1,103.6 C158.4,95.2 162,83.4 165.1,82.9 C170.1,82 196.4,87.6 196.4,87.6 L200.6,93.2 L214.5,87.4 L200.6,70.5 L155.5,67.7 L124.7,76.7 L115.9,90.6 L121.1,99.8 L128.8,95.9 L170.6,163.6 L191,154 C191,154 159.5,107.9 159.1,103.6 L159.1,103.6 Z M159.1,103.6" class="walkwayyellow" fill="#FFCC32"/>
            <path d="M400.4,32.9 L353.2,53.6 L352.3,58.2 L360.4,64.6 L357.6,65.9 L355.5,64.3 L353.6,65.2 L353.2,67.1 L347.7,62.7 L345.1,60.6 L342.6,58.6 L340.5,56.9 L335.8,53.1 L333.6,51.4 L333.4,51.3 L332,50 L331.8,50.1 L331.6,50.2 L331.6,50 L330,48.8 L330,48.5 L329.8,48.4 L327.9,46.9 L324.9,44.5 L322.7,42.7 L320.6,41 L318.5,39.3 L315.5,36.9 L311.3,33.5 L308,30.8 L306.1,29.3 L290,35.7 L282.3,29.2 L282.1,29.1 L276.2,24.1 L274.7,24.7 L274.8,21.3 L271.9,18.8 L279.6,15.9 L284.5,14.1 L284.7,14 L299.6,8.3 L299.9,4 L300.2,3.9 L298.3,2.5 L294.9,3.8 L293.5,2.7 L286.3,5.4 L285.8,5.6 L278,6.7 L277.6,6.3 L275.3,7.1 L275,7.3 L268.9,9.6 L266.8,7.8 L263.3,5 L261.5,3.5 L256.8,3 C256.5,3.2 256.3,3.3 256.2,3.5 C256,3.7 255.9,3.9 255.9,4 C255.8,4.2 255.8,4.4 255.8,4.7 L255.8,12.1 C255.9,12.5 255.9,12.8 256,13.1 C256.1,13.4 256.2,13.6 256.2,13.8 C256.3,14 256.4,14.1 256.4,14.2 C256.5,14.3 256.5,14.4 256.5,14.4 C256.5,14.5 256.6,14.6 256.6,14.7 C256.7,14.8 256.7,14.9 256.8,14.9 C256.9,15 256.9,15.1 257,15.1 L257.2,15.3 L257.3,15.4 C257.4,15.5 257.5,15.5 257.7,15.6 C257.8,15.7 258,15.7 258.1,15.8 C258.2,15.9 258.4,15.9 258.5,15.9 C258.6,15.9 258.8,16 258.9,16 L259.3,16 L257.6,19.8 L257.6,23.6 L257.2,23.7 L257,23.8 L254.4,24.8 L251.3,22 L241.7,20.8 L241.4,20.8 L233.5,19.9 L226.1,19.1 L224.6,19.6 L224.4,19.7 L222.4,20.4 L222.7,24.8 L226.6,28.6 L225.3,29.1 L216.8,32.3 L214.6,30 L210.5,31.5 L197,36.5 L195.2,37.2 L195.7,41.6 L197,43 L164.5,55.2 L165.1,58.5 L164.4,58.8 L158.2,50.8 L155.9,51.6 L155.6,51.7 L146.4,55.1 L142.5,49.8 L137.8,51.5 L137.7,51.4 L137.6,51.6 L137.5,51.6 L137.5,51.7 L136.1,53.8 L133.9,54.6 L133.6,54.7 L128.1,56.7 L128.7,59 L126.2,58.6 L126.6,58 L125.5,53.6 L122.5,53.2 L119.5,57.5 L105.1,55.7 L105.3,55.4 L104,51 L100.7,50.6 L97.9,54.5 L89.5,54 L86.2,58.5 L82.2,58 L80.7,60 L82.1,64 L73.7,75.2 L69.5,74.6 L67.8,76.8 L69.5,81.2 L70,81.3 L70.7,83 L68.3,86.2 L64.7,87.5 L66.5,91.9 L102.9,98 L105.2,102.2 L106.9,105.3 L101.6,107.4 L102.1,108.9 L101.1,109.3 L102.6,113.8 L103.9,116.2 L116.9,110.9 L118.8,114.3 L121.4,113.2 L127.1,110.9 L126.3,108.2 L128.1,107.5 L130.1,110.8 L130.1,110.9 L130.5,111.3 L134,117.2 L129.7,119 L131,123.5 L133.1,127.2 L138.5,124.9 L140,127.3 L135.6,129.2 L136.8,133.7 L138.5,136.6 L137.3,137.1 L138.6,141.6 L140.4,144.8 L140.5,145 L141.5,146.7 L143.7,145.8 L145.3,148.6 L140.9,150.5 L142.1,155 L143.7,157.8 L132.5,162.8 L130.1,163.9 L124.3,152.9 L101.6,162.9 L90,168 L87.3,161.8 L75.6,166.9 L75.7,167.2 L37,183.7 L38.3,187.9 L40.8,192.2 L44.8,190.4 L44.9,190.6 L5.4,208.1 L9.1,223.1 L2.5,226.1 L7.1,246 L10.3,250.1 L15.2,247.8 L16,251.2 L9,254.4 L14.1,276.5 L17.3,280.4 L22.4,277.9 L23.8,283.4 L26.9,287.2 L39,281.1 L41.5,284.4 L60.2,274.9 L59,271 L98,251.5 L111.3,244.8 L118.3,241.3 L131.5,234.7 L147.4,226.7 L164.5,218.1 L170.6,215 L184.5,208 L183.6,203.6 L183,202.7 L184.1,202.2 L198.2,195.2 L202.3,201.7 L224,190.7 L234.3,205.6 L246.5,199.2 L254.8,194.8 L259.9,201.7 L259.9,205.9 L268.6,217.7 L271.9,218.3 L273.7,217.3 L282.6,219.1 L283.8,220.6 L288.1,221.4 L298.5,215.6 L299.1,212.4 L312.5,204.9 L316.3,205.7 L325.4,200.6 L326.2,196.1 L326.7,192.8 L325.1,191 L325.4,188.6 L326.6,188 L327.4,183.5 L327.6,181.3 L317.7,170.4 L315.2,171.7 L303.8,159.1 L305.6,158.2 L315.7,153 L324.2,162 L330.1,158.9 L335.3,156.2 L343.8,164.9 L369.7,151 L371,146.4 L367.7,143.3 L360.8,136.8 L366.1,134 L375.4,129.2 L388.1,140.5 L398.2,135.1 L399.7,130.4 L390.9,122.9 L397.6,119.4 L399.1,114.7 L399.1,107.5 L396.5,105.4 L398.6,104.4 L399.5,104 L404.7,108.2 L412.8,109.7 L416.3,107.9 L465.8,82.2 L467.8,77.5 L400.4,32.9 L400.4,32.9 Z M281.8,10.6 L280,11.3 L279.6,11 L281.8,10.6 L281.8,10.6 Z M356.3,70.5 L356.8,70.8 L359.8,69.4 L370.2,77.6 L369.9,77.6 L365.6,79.7 L356,72 L356.3,70.5 L356.3,70.5 Z M364.3,84.5 L364.2,85.5 L362.7,86.2 L348,74.2 L350.3,73.1 L364.3,84.5 L364.3,84.5 Z M346.8,67.4 L349.1,69.2 L333.4,76.3 L331.2,74.4 L346.8,67.4 L346.8,67.4 Z M334.9,57.7 L336,58.6 L326.4,62.8 L325.1,62 L334.9,57.7 L334.9,57.7 Z M323,69.1 C323,69.3 322.9,69.3 322.9,69.3 C322.9,69.3 323,69.2 323,69.1 C323,69 323,69 323.1,68.9 L323,69.1 C323.1,69 323.1,69.1 323,69.1 L323,69.1 Z M322.6,73.1 L323.2,68.4 L323.2,68.8 L322.6,73.3 L322.6,73.1 L322.6,73.1 Z M310.6,62.9 L310.9,63.6 L313.4,63.8 L314,63.9 L312.9,64.4 L310.5,63.9 L310.6,62.9 L310.6,62.9 Z M309,68.5 L310.6,68.8 L308.8,69.6 L309,68.5 L309,68.5 Z M311.5,73 L312.6,69.1 L317,67.2 C317,67.2 317.1,67.2 317.2,67.3 C317.3,67.3 317.4,67.4 317.5,67.5 C317.6,67.6 317.8,67.7 317.9,67.8 C318.1,67.9 318.3,68.1 318.5,68.3 C318.8,68.5 319,68.8 319.2,69 C319.4,69.2 319.5,69.4 319.6,69.5 C319.7,69.6 319.8,69.8 319.8,69.8 C319.8,69.9 319.9,69.9 319.9,69.9 L319.9,70 L321.4,70.1 C321.4,70.2 321.5,70.3 321.6,70.4 C321.6,70.4 321.6,70.5 321.5,70.5 L321.2,70.8 C321,70.9 320.9,71.1 320.6,71.2 C320.4,71.4 320.1,71.5 319.8,71.7 C319.6,71.8 319.3,72 319.1,72.1 C318.9,72.2 318.6,72.4 318.4,72.5 C318.2,72.6 318,72.7 317.9,72.8 C317.8,72.9 317.6,72.9 317.6,73 L315,72 L292.3,82 L292,81.7 L311.5,73 L311.5,73 Z M271.7,106.9 L271.6,110.4 L266.9,112.5 L265.7,111.2 L263.5,108.8 L263.6,104.2 L260.6,101 L269.2,97.2 L269.3,97.1 L269.4,92.5 L264.5,87.4 L259.4,89.6 L257.8,87.9 L250.6,80.3 L246,75.4 L245.1,74.4 L246.7,73.7 L246.6,69.1 L243.6,66.1 L241.3,63.7 L242.8,63.1 L245.4,65.8 L250,63.9 L262.8,58.7 L265.7,61.5 L267.7,63.5 L269.4,65.1 L271,66.6 L272.4,67.9 L272.6,68.1 L275.7,71.1 L279.3,74.6 L283.1,78.3 L285.8,80.9 L286,81.1 L288.1,83.1 L291.8,86.7 L292,86.9 L295.7,90.4 L295.9,90.6 L298.8,93.4 L299,93.6 L302,96.5 L302.2,96.7 L305.3,99.7 L305.8,100.2 L305.2,100.5 L299.9,95.4 L295.1,97.6 L290.1,92.7 L270.8,101.3 L270.7,105.9 L271.7,106.9 L271.7,106.9 Z M241.8,75.8 L242.7,76.8 L233.5,80.7 L221,86 L220,84.9 L241.8,75.8 L241.8,75.8 Z M220.1,75.5 L220.6,74.3 L222.4,73.6 L224.1,73.7 L224.4,74 L220.6,75.6 L220.1,75.5 L220.1,75.5 Z M236.2,62 L237.8,61.4 L237.9,63.7 L236.2,62 L236.2,62 Z M238.8,66 L240.3,67.5 L238.9,68.1 L238.8,66 L238.8,66 Z M246,80.3 L247.3,81.7 L225.4,91 L224.2,89.6 L246,80.3 L246,80.3 Z M257.5,92.6 L259.3,94.5 L264.3,92.3 L265.8,93.8 L240.1,105.2 L239.7,105.4 L236.6,101.8 L257.5,92.6 L257.5,92.6 Z M257.2,102.5 L260,105.6 L260,109.3 L246.6,115.4 L241.6,109.5 L257.2,102.5 L257.2,102.5 Z M265.4,116.2 L265.6,116.4 L252.7,122.4 L252.5,122.1 L265.4,116.2 L265.4,116.2 Z M243.4,59.1 L244.4,58.7 L246.4,60.8 L245.4,61.2 L243.4,59.1 L243.4,59.1 Z M279.6,69.9 L279.4,69.7 L297.6,62 L297.8,62.2 L279.6,69.9 L279.6,69.9 Z M301.3,65.3 L301.9,65.8 L283.6,73.7 L283.1,73.1 L301.3,65.3 L301.3,65.3 Z M295.7,85.2 L313.8,77.1 L313.7,77.9 L296.2,85.7 L295.7,85.2 L295.7,85.2 Z M289.7,97.5 L305.8,113.6 L290,121.1 L274.3,104.5 L289.7,97.5 L289.7,97.5 Z M298.3,100.7 L299.3,100.2 L304.3,105.1 L310.6,111.3 L309.6,111.8 L298.3,100.7 L298.3,100.7 Z M309.5,98.4 L309.2,98.1 L324,91.3 L324.3,91.6 L309.5,98.4 L309.5,98.4 Z M320.9,71.4 C320.7,71.6 320.4,71.7 320.1,71.9 C319.9,72 319.6,72.2 319.4,72.3 C319.6,72.2 319.8,72 320.1,71.9 C320.4,71.7 320.7,71.5 320.9,71.4 L320.9,71.4 Z M303.8,68.6 L304.1,67.5 L305.7,67.8 L303.8,68.6 L303.8,68.6 Z M295.6,54.5 L295.8,51.2 L297.4,52.6 L297.9,52.4 L299.1,53.4 L298.5,56.9 L300.7,58.8 L300.9,59 L303.6,61.3 L303.8,61.5 L305.4,62.9 L304.7,62.8 L302.2,60.7 L298.5,57.4 L295.4,54.6 L295.6,54.5 L295.6,54.5 Z M290.6,42.2 L289.7,43 L289,42.9 L290.6,42.2 L290.6,42.2 Z M286,49.4 L285.7,49.1 L284.6,48.1 L286.1,47.6 L286,49.4 L286,49.4 Z M286,37.2 L279,40 L276.6,37.9 L277.4,35.5 L281.9,33.7 L286,37.2 L286,37.2 Z M276.1,28.7 L278.3,30.6 L277.5,30.9 L275.3,29 L276.1,28.7 L276.1,28.7 Z M274.9,11.8 L276,12.7 L270.6,14.7 L269.5,13.8 L274.9,11.8 L274.9,11.8 Z M260.6,19.6 L265.4,17.8 L271,22.6 L268.5,23.6 L267.4,26.8 L265.8,26.6 L262,28 L261.4,27.4 L261.5,27.4 L261.5,23 L259.8,21.5 L260.6,19.6 L260.6,19.6 Z M251.7,27.1 L254.9,29.9 L257.7,28.8 L258.6,29.6 L257.8,31.8 L254.9,32.9 L248,26.6 L251.7,27.1 L251.7,27.1 Z M242.1,25.9 L251.1,34.3 L249.4,35 L239.4,25.6 L242.1,25.9 L242.1,25.9 Z M233.9,25 L245.9,36.4 L245.5,36.6 L239.9,31.3 L235,30 L233.9,30.4 L233.8,28.6 L229.5,24.4 L233.9,25 L233.9,25 Z M242.1,37.9 L241.1,38.3 L237.9,35.3 L239.9,35.8 L242.1,37.9 L242.1,37.9 Z M230.7,32.4 L230.6,30 L231.6,30.9 L231.7,33.7 L237.6,39.5 L236.5,39.9 L229.4,32.9 L230.7,32.4 L230.7,32.4 Z M215.2,35.2 L217.4,37.5 L226.1,34.2 L233.1,41.2 L226.7,43.7 L221.9,43.3 L214.4,35.5 L215.2,35.2 L215.2,35.2 Z M211.3,36.7 L218.8,44.5 L216.6,45.3 L214.1,50.7 L208.4,49.7 L208.2,48.7 L200.8,40.6 L211.3,36.7 L211.3,36.7 Z M167.5,59.8 L198,48.2 L198.8,49.1 L201.5,48.1 L201.2,45.5 L208.2,53.3 L208.4,54.4 L214.3,55.4 L214.4,55.5 L210.7,64.6 L207.8,65.7 L204.3,65.5 L190.4,71 L186.3,65.9 L172.8,64.4 L171.2,65.8 L168.9,64.5 L166.9,65.3 L165.9,64.9 L165.4,64.2 L168.1,63.1 L167.5,59.8 L167.5,59.8 Z M187.8,96.2 L196.6,107.8 L196.7,108 L204.8,118.6 L205,118.8 L210.2,125.7 L213.3,129.8 L204.3,133.9 L202.5,131.4 L198.6,126.1 L193.6,128.4 L180,110.1 L177.6,111.1 L175.9,108.6 L179.4,107.1 L178.6,102.6 L176.4,99.4 L177.8,97.3 L182,98 L183,98.2 L187.8,96.2 L187.8,96.2 Z M186.4,88.7 L188.5,87.8 L193.7,88.6 L193.8,88.8 L189.8,90.4 L186.4,88.7 L186.4,88.7 Z M225.4,131.8 L228.5,130.4 L233.5,131.3 L237.2,129.6 L237.8,130.3 L237,132.7 L229,136.4 L225.4,131.8 L225.4,131.8 Z M226.3,137.7 L223.6,138.9 L220.1,134.3 L222.8,133.1 L226.3,137.7 L226.3,137.7 Z M233.3,126.5 L229.8,125.9 L233,124.4 L234.3,126 L233.3,126.5 L233.3,126.5 Z M214.9,127.6 L212.9,124.9 L227.4,118.4 L229.9,120.8 L214.9,127.6 L214.9,127.6 Z M210,121.2 L207.5,117.9 L219.1,112.7 L220.9,115 L223,115.4 L210,121.2 L210,121.2 Z M204.6,114 L199.2,107 L213,101.1 L216.5,105.4 L216.8,108.7 L204.6,114 L204.6,114 Z M163.8,117.3 C163.7,117.2 163.7,117.1 163.6,117 C163.5,116.8 163.3,116.6 163.2,116.4 C163.1,116.2 162.9,116 162.8,115.7 C162.7,115.5 162.5,115.2 162.4,115 C162.3,114.8 162.2,114.7 162.1,114.5 L173.8,109.6 L176.8,113.8 L168.6,117.2 L167.9,116.2 L164.2,117.8 L164.1,117.7 C164.1,117.7 164,117.6 164,117.5 L163.8,117.3 L163.8,117.3 Z M163.9,118 C163.9,118 163.8,117.9 163.8,117.8 C163.7,117.7 163.7,117.6 163.6,117.5 C163.7,117.6 163.8,117.7 163.8,117.8 C163.9,117.9 163.9,117.9 163.9,118 L163.9,118 Z M159.2,106.7 C159.2,106.4 159.1,106.2 159.1,106 L159.1,105.6 L173.3,104 L176.1,102.8 L176.4,103.3 L173.2,104.7 L160.2,110.1 C160,110 159.9,109.8 159.7,109.4 C159.6,109.1 159.4,108.7 159.3,108.2 L159.3,107.8 C159.2,107.4 159.2,107 159.2,106.7 L159.2,106.7 Z M172,99.4 L159.1,100.8 C159.2,100.6 159.2,100.5 159.2,100.4 L159.2,100.1 C159.2,99.8 159.3,99.5 159.3,99.2 C159.3,98.9 159.4,98.6 159.4,98.4 C159.4,98.2 159.5,98 159.5,97.8 C159.5,97.6 159.6,97.5 159.6,97.4 L172,99.4 L172,99.4 Z M159.7,88.8 C159.7,88.7 159.8,88.6 159.8,88.5 C159.8,88.6 159.7,88.8 159.7,88.8 L159.7,88.8 Z M174.9,91.6 L176.8,92 L176.4,92.7 L174.8,95.2 L160.5,93 C160.5,92.9 160.6,92.7 160.6,92.6 L160,88 L160.9,92.5 C161,92.3 161,92.2 161.1,92 C161.2,91.8 161.2,91.7 161.3,91.5 C161.4,91.3 161.4,91.2 161.5,91 C161.6,90.8 161.7,90.7 161.7,90.5 C161.7,90.4 161.8,90.3 161.9,90.2 C162,90.1 162,90 162.1,89.9 C162.2,89.8 162.2,89.7 162.3,89.6 C162.4,89.5 162.4,89.4 162.5,89.3 C162.5,89.2 162.6,89.2 162.6,89.1 C162.6,89 162.7,89 162.7,88.9 C162.7,88.8 162.8,88.8 162.8,88.7 C162.8,88.6 162.9,88.6 162.9,88.5 L163.6,87.8 C163.8,87.6 164.1,87.4 164.3,87.2 C164.5,87 164.8,86.9 165,86.8 C165.2,86.7 165.5,86.6 165.7,86.5 C165.8,86.5 165.9,86.4 165.9,86.4 C166,86.4 166,86.3 166.1,86.3 C166.2,86.3 166.2,86.2 166.3,86.2 C166.4,86.2 166.4,86.2 166.5,86.1 C166.6,86.1 166.6,86.1 166.7,86 L167.4,86 L174.2,87 L174.1,87.1 L174.9,91.6 L174.9,91.6 Z M162.9,116.5 C162.8,116.3 162.6,116.1 162.5,115.8 C162.4,115.6 162.2,115.3 162.1,115 C162.2,115.3 162.4,115.5 162.5,115.8 C162.6,116 162.8,116.3 162.9,116.5 L162.9,116.5 Z M170.6,123.5 L170.2,121.6 L179.4,117.7 L183.4,123.4 L171.4,128.6 L168.6,124.4 L170.6,123.5 L170.6,123.5 Z M180.4,115.1 L180.6,115 L186.6,123.2 L186.3,123.3 L180.4,115.1 L180.4,115.1 Z M186.2,127.3 L186.8,128.2 L188,127.6 L189,129 L175.7,135 L174.1,132.6 L186.2,127.3 L186.2,127.3 Z M190.5,133.6 L191.6,135.1 L191.1,136.4 L180,141.4 L178.4,139 L190.5,133.6 L190.5,133.6 Z M194.7,143.5 L199.4,150.2 L195.3,152 L193.1,151.7 L190,153.2 L187.6,152.8 L184.5,148.1 L194.7,143.5 L194.7,143.5 Z M192.8,132.9 L191.8,131.6 L191.6,130.2 L193.9,133.4 L198.9,131.1 L200,132.6 L197,133.9 L196.7,134 L193.6,135.4 L193.3,136.1 L192.8,132.9 L192.8,132.9 Z M193.1,138.9 L192.8,139 L193,138.5 L193.1,138.9 L193.1,138.9 Z M195.2,139.8 L197.7,138.7 L204.2,147.8 L201.6,149 L195.2,139.8 L195.2,139.8 Z M199.9,137.7 L202.9,136.4 L204.5,138.6 L209.4,145.4 L206.4,146.8 L199.9,137.7 L199.9,137.7 Z M179.9,87.8 L178,87.5 L183.9,88.4 L184,89 L182.1,91.9 L181.2,93.2 L180.2,93 L180.6,92.3 L179.9,87.8 L179.9,87.8 Z M171.3,72.2 L172.2,70.6 L173.7,69.2 L186.8,70.7 L188.5,72.9 L185.2,74.2 L171.3,72.2 L171.3,72.2 Z M157,56.9 L166.6,69.6 L167.8,70 L169.3,69.4 L168.1,71.6 L164.3,71.1 L164.1,70.2 L162.7,69.9 L162.1,70.7 L157.1,69.9 L149.6,59.6 L157,56.9 L157,56.9 Z M143.7,55.1 L155,70.7 L152.2,71.8 L151.9,71.4 L141,56.1 L143.7,55.1 L143.7,55.1 Z M137.8,58.9 L139.1,56.9 L149.8,72 L146.9,73.1 L146.6,72.6 L137.2,59.1 L137.8,58.9 L137.8,58.9 Z M132.5,60.9 L135.3,59.9 L144.5,73.3 L141.5,74.4 L141.2,74 L140.7,73.3 L132.5,61.1 L132.5,60.9 L132.5,60.9 Z M133,65.1 L139.3,74.5 L136.2,75.7 L131.1,68 L133,65.1 L133,65.1 Z M134.1,75.9 L128.7,78 L128.9,77.8 L127.8,73.6 L130.1,69.8 L134.1,75.9 L134.1,75.9 Z M103.9,97.6 L101.5,93.3 L71.8,88.4 L72.8,87.1 L71.8,84.6 L74.1,81.6 L73.3,79.5 L75.5,79.8 L86.6,64.7 L85.9,62.8 L87.8,63.1 L91.1,58.6 L99.8,59.8 L101.5,57.4 L102.4,60.4 L121.3,62.8 L123,60.3 L123.8,63.3 L129.4,64.1 L128.8,65 L128.7,65.2 L114.6,86.8 L115,88.3 L116.3,92.7 L103.9,97.6 L103.9,97.6 Z M106.3,101.9 L119.5,96.7 C119.8,96.9 120.1,97.1 120.4,97.2 C120.6,97.3 120.8,97.4 121.1,97.5 L120.5,97.9 L107,103.3 L106.3,101.9 L106.3,101.9 Z M118.5,92.5 C118.8,92.6 119.1,92.8 119.3,92.9 C119.2,92.9 119.1,92.8 119,92.8 C118.8,92.7 118.7,92.6 118.5,92.5 L118.5,92.5 Z M119.8,93.2 C120.1,93.3 120.4,93.4 120.7,93.6 C120.5,93.5 120.2,93.4 120,93.3 C120,93.3 119.9,93.2 119.8,93.2 L119.8,93.2 Z M117.4,109.6 L115.9,107 L117.2,106.5 L118.7,109.1 L117.4,109.6 L117.4,109.6 Z M129,106.3 L126.8,102.7 L123.7,103.9 L124.5,106.6 L120,108.4 L118.5,105.9 L122.8,104.1 L129.4,100.3 L129.5,100 L131,99.6 L133.9,98.5 L144.3,94.4 C144.3,94.4 144.4,94.4 144.4,94.3 C144.4,94.3 144.5,94.2 144.6,94.2 C144.7,94.2 144.7,94.1 144.8,94.1 C144.8,94.1 144.9,94.1 144.9,94 C145,94 145,94 145.1,93.9 C145.2,93.9 145.2,93.9 145.3,93.8 C145.4,93.8 145.4,93.8 145.5,93.7 L146.3,93.7 L146.4,94.8 L146.9,98.9 L129,106.3 L129,106.3 Z M122.8,94.4 C123.2,94.4 123.7,94.6 124.2,94.7 C124,94.7 123.9,94.6 123.7,94.6 C123.5,94.6 123.4,94.5 123.2,94.5 C123,94.5 122.9,94.4 122.8,94.4 L122.8,94.4 Z M146.5,89.4 C146.6,89.4 146.6,89.5 146.6,89.5 L146.5,89.4 L146.5,89.4 Z M133.9,114.4 L131.6,110.5 L148.5,103.6 L148.7,104.4 L149.5,108 L133.9,114.4 L133.9,114.4 Z M141.3,121.9 C140.1,122.4 139.2,122.8 138.9,122.9 L137.3,120 L136.3,120.4 L135.9,118.8 L150.9,112.6 L151.7,115.2 L152.2,116.6 C152.1,116.8 152,116.9 151.8,117.1 C151.6,117.3 151.3,117.5 151.1,117.7 C150.8,117.9 150.6,118 150.4,118.1 C150.2,118.2 149.4,118.5 148.4,118.9 C147.4,119.3 146.1,119.9 144.9,120.4 C143.6,120.9 142.3,121.5 141.3,121.9 L141.3,121.9 Z M152.3,116.9 C152.2,117 152.2,117.1 152.1,117.1 C152.1,117 152.2,117 152.3,116.9 L152.3,116.9 Z M151.1,118 C151.1,118 151,118 151,118.1 C151,118.1 151,118.1 150.9,118.1 C151,118 151,118 151.1,118 L151.1,118 Z M150.7,118.2 C150.7,118.2 150.6,118.2 150.7,118.2 C150.5,118.3 150.6,118.2 150.7,118.2 L150.7,118.2 Z M144.8,144.9 L144,143.5 L150.3,140.7 L150,139.5 L152.4,139.8 L159.8,136.5 L160.7,137.9 L144.8,144.9 L144.8,144.9 Z M152.3,114.7 C152.3,114.8 152.4,114.8 152.4,114.9 C152.4,115 152.5,115.1 152.5,115.2 C152.4,115 152.3,114.8 152.3,114.7 L152.3,114.7 Z M175.1,152.5 L177.3,151.5 L181.2,157.5 L180.6,158.9 L170.5,163.6 L160.5,147.3 L149.2,152.4 L147.4,149.2 L163.4,142.1 L164.1,143.1 L170,144.2 L175.1,152.5 L175.1,152.5 Z M171.7,143.5 L172,143.4 L174.7,147.6 L174.4,147.7 L171.7,143.5 L171.7,143.5 Z M156.4,154.4 L161.2,152.2 L168.7,164.5 L163.8,166.8 L156.4,154.4 L156.4,154.4 Z M161.4,166 L156.1,164.3 L151.6,156.6 L154.9,155 L161.4,166 L161.4,166 Z M143.4,154.6 L147.5,152.8 L154.5,164.8 L150.3,166.7 L148.4,163.3 L147.6,163.7 L146,160.9 L145,157.4 L143.4,154.6 L143.4,154.6 Z M145.1,162.4 L148.6,168.6 L149.4,168.2 L150.3,169.8 L147.1,176.5 L143.8,170.4 L137.9,173.1 L134.7,167.1 L145.1,162.4 L145.1,162.4 Z M146.1,177.9 L141.5,180.1 L140.1,177.5 L144.7,175.4 L146.1,177.9 L146.1,177.9 Z M132,163.2 L133.3,167.4 L133.4,167.6 L140.3,180.6 L133.8,183.6 L127,170.5 L131.4,168.5 L130,164.1 L132,163.2 L132,163.2 Z M125.3,157.7 L128.8,164.3 L124.4,166.3 L125.9,170.8 L132.8,184.2 L115.6,192.2 L103.9,167.3 L125.3,157.7 L125.3,157.7 Z M103.2,167.5 L114.9,192.5 L89.9,204.1 L85.3,203.1 L78.8,187.1 L94.9,179.9 L93.1,175.5 L91.8,172.6 L103.2,167.5 L103.2,167.5 Z M44.8,188.2 L43.8,186.4 L77.8,171.5 L77.7,171.3 L88.6,166.5 L92.5,175.4 L75,183.2 L74,180.7 L71.9,176.3 L44.8,188.2 L44.8,188.2 Z M55.9,267 L57.1,271 L40.4,279.4 L37.9,276 L26.1,281.9 L24.7,276.4 L21.6,272.5 L16.5,275 L12.6,258.7 L19.4,255.4 L17.2,246.4 L14.2,242.3 L9.3,244.6 L6,230.4 L12.5,227.4 L8.8,212.4 L71.4,184.6 L86.4,223.1 L95.8,247.1 L55.9,267 L55.9,267 Z M96.5,246.7 L89,227.4 L101.3,221.5 L109.2,240.4 L96.5,246.7 L96.5,246.7 Z M109.7,240.1 L101.8,221.3 L107.8,218.4 L115.9,237.1 L109.7,240.1 L109.7,240.1 Z M116.4,236.8 L108.3,218.2 L115.6,214.7 L117.6,211.5 L119.8,210.4 L129.1,230.5 L116.4,236.8 L116.4,236.8 Z M129.7,230.1 L120.4,210.1 L135.4,202.9 L136,204.1 L145.1,222.4 L129.7,230.1 L129.7,230.1 Z M146.2,221.9 L136.4,202.4 L151.6,195.1 L161.8,214.1 L146.2,221.9 L146.2,221.9 Z M163.1,213.5 L152.8,194.5 L153.1,194.4 L154.2,192.6 L156.9,191.3 L167.9,211.1 L163.1,213.5 L163.1,213.5 Z M169.3,210.4 L158.3,190.6 L167.9,186 L178.8,204.8 L181.3,203.5 L181.7,204.1 L169.3,210.4 L169.3,210.4 Z M178.1,200 L169.5,185.3 L172.3,184 L172.7,182.9 L181.8,198.2 L178.1,200 L178.1,200 Z M183.4,197.3 L174.2,181.9 L181,178.6 L188.3,190.5 L193.6,187.9 L195.7,191.2 L183.4,197.3 L183.4,197.3 Z M191.7,183.7 L187.6,185.7 L182.7,177.8 L197.6,170.7 L201.2,176.1 L191.2,181 L191.7,183.7 L191.7,183.7 Z M201.8,196.8 L194.1,184.7 L204.2,179.8 L203.6,175.3 L199.8,169.7 L207.1,166.2 L221.4,187 L201.8,196.8 L201.8,196.8 Z M234.1,200.7 L209.4,165.1 L213.9,162.9 L219.1,170.2 L228.1,165.8 L227.8,161.3 L225.1,157.6 L238,151.4 L247.6,153.1 L240.8,174.1 L241,178.6 L244.3,183 L239.7,185.4 L239.9,189.9 L244,195.6 L234.1,200.7 L234.1,200.7 Z M216.2,161.8 L222.5,158.8 L225,162.3 L218.7,165.3 L216.2,161.8 L216.2,161.8 Z M314.5,176.9 L317,175.6 L325.5,185.1 L324.8,188.8 L323.8,195.8 L324.6,196.8 L316.8,201.1 L313,200.3 L299.2,207.9 L298.6,211.1 L288.3,216.8 L284.2,216.1 L283,214.6 L273.6,212.7 L271.8,213.7 L268.7,213.1 L262.4,204.6 L262.5,200.4 L254.7,189.9 L246.3,194.3 L242.4,188.9 L247.1,186.5 L247,182 L242.2,175.6 L249.3,153.5 L260.6,155.6 L261.5,156.6 L273.3,150.8 L273.4,148 L275.4,147 L290.4,164.4 L299.3,159.8 L300.4,161 L314.5,176.9 L314.5,176.9 Z M296.4,156.6 L290.8,159.4 L278.6,145.4 L284.1,142.7 L296.4,156.6 L296.4,156.6 Z M287.5,141.1 L289,140.4 L302.5,155.3 L301,156.1 L300.1,155.1 L287.5,141.1 L287.5,141.1 Z M306,153.5 L292.4,138.7 L299.2,135.4 L312.9,150 L306,153.5 L306,153.5 Z M325.1,157.2 L316.8,148.4 L302.8,133.6 L304.7,132.7 L327.1,156.1 L325.1,157.2 L325.1,157.2 Z M335.6,113.4 L335.3,113.5 L332.2,115 L330.1,116 L315.6,123 L305.5,127.9 L305.2,128 L299.7,130.7 L289.7,135.6 L289.4,135.7 L284.8,137.9 L284.6,138 L284.5,138 L275.7,142.3 L272.7,143.8 L272,145 L271.9,146.6 L261.6,151.6 L260.9,150.7 L249.3,148.6 L237.6,146.5 L222.2,153.8 L221.9,153.9 L213.2,158 L206.7,161.1 L206.4,161.3 L197.2,165.7 L196.9,165.9 L180.3,173.8 L180,174 L171.8,177.9 L171.7,177.7 L171.6,178 L171.5,178 L171.5,178.1 L171,179.3 L167.1,181.1 L166.8,181.3 L156.1,186.4 L155.7,186.6 L152.8,188 L151.7,189.8 L150.6,190.3 L150.3,190.4 L150.2,190.4 L134.2,198 L133.8,198.2 L118.3,205.6 L117.9,205.8 L115.6,206.9 L113.5,210.1 L106.2,213.6 L99.7,216.7 L99.3,216.9 L87.1,222.7 L72,184 L71.1,182.2 L73.4,181.2 L74.4,183.7 L76.5,188.1 L78.2,187.3 L84.6,203.3 L86.6,207.6 L91.7,208.7 L117.3,196.7 L135.3,188.3 L142.5,184.9 L148.7,182 L148.5,181.2 L152.3,173.1 L152.3,173 L151.9,171.3 L156.9,169 L164.5,171.5 L164.6,171.6 L164.7,171.6 L165.1,171.7 L165,171.4 L171.5,168.3 L181.6,163.6 L183,159.9 L182.2,155.4 L176.5,146.6 L171.2,138.4 L169,139.4 L163.1,138.3 L162.5,137.4 L159,131.9 L158.9,131.7 L152.8,122 C152.8,122 152.9,122 152.9,121.9 C153,121.8 153.2,121.7 153.3,121.5 L153.4,121.4 L153.5,121.3 L153.6,121.2 C153.6,121.2 153.6,121.1 153.7,121.1 C153.7,121.1 153.7,121.1 153.7,121 C153.7,121 153.7,121 153.7,120.9 C153.7,120.9 153.7,120.9 153.7,120.8 C153.7,120.8 153.7,120.8 153.7,120.7 C153.7,120.7 153.7,120.7 153.7,120.6 C153.7,120.6 153.7,120.6 153.7,120.5 C153.7,120.5 153.7,120.5 153.7,120.4 C153.7,120.4 153.7,120.4 153.7,120.3 L152.7,115.9 L152.8,115.8 L153.8,120.3 C153.8,120.3 153.8,120.3 153.8,120.2 C153.8,120.2 153.8,120.2 153.8,120.1 C153.9,119.9 153.9,119.9 153.8,119.8 L152.9,115.5 L152.9,115.4 C152.9,115.2 152.8,114.9 152.7,114.6 C152.6,114.3 152.5,114 152.3,113.7 C152.2,113.4 152,113.2 151.9,113 C151.8,112.8 151.7,112.7 151.7,112.7 L150.8,110.4 L149.9,107.5 L149.2,105.1 L148.9,103.2 L148.4,99 L148.3,96.5 L148.3,95 C148.3,95 148.3,95 148.3,94.9 L147.3,90.4 L147.3,90.2 L148.3,94.7 C148.3,94.7 148.3,94.7 148.3,94.6 L147.3,90.1 L147.3,89.8 C147.3,89.7 147.2,89.6 147.1,89.4 C147.1,89.3 147,89.3 147,89.3 L146.9,89.2 C146.8,89.2 146.8,89.1 146.7,89.1 C146.6,89.1 146.6,89 146.5,89 C146.2,88.9 145.9,88.8 145.5,88.9 C145.1,88.9 144.8,89 144.4,89.1 C144.1,89.2 143.8,89.3 143.5,89.5 L143.1,89.7 L132.6,93.8 L129.7,94.9 L128,95.4 L127.9,95.8 L126.6,96.5 L126.1,94.7 L124.2,94.4 C123.6,94.3 123,94.1 122.5,94 C122,93.8 121.4,93.6 120.9,93.4 C120.4,93.2 119.9,93 119.5,92.7 C119,92.5 118.6,92.2 118.2,91.9 C117.9,91.7 117.6,91.5 117.4,91.3 C117.1,91.1 116.9,90.9 116.7,90.7 L116.5,90.5 L124.4,78.3 L125.2,81.1 C125,81.3 124.8,81.5 124.5,81.6 C123.9,82 123.3,82.4 122.9,82.9 C122.5,83.3 122.2,83.8 122.1,84.2 C122,84.5 122,84.8 122.1,85.1 L123.4,89.6 C124,91.1 127,91.4 130.3,90.3 C133.6,89.2 135.9,87 135.4,85.5 C135.4,85.5 134.2,81.3 134.2,81.2 C134.2,81.1 134.1,81 134.1,81 L134.1,81 C134.1,80.9 134,80.9 134,80.8 L136.2,80 L136.5,80.4 L136.6,80.5 L141.5,78.7 L141.8,79.2 L141.9,79.3 L146.8,77.4 L147.2,78 L152.1,76.1 L152.5,76.6 L157.4,74.7 L162.6,75.6 L163.2,74.8 L163.6,74.9 L163.8,75.8 L168.6,76.5 L181.6,78.4 L180.5,80.3 L180.5,83.7 L177.5,83.2 L177.2,83.2 L167,81.7 C167,81.7 166.8,81.7 166.5,81.8 C166.2,81.9 165.8,82 165.3,82.2 C164.8,82.4 164.3,82.7 163.7,83 C163.1,83.4 162.5,83.8 162,84.4 C161.5,85 161,85.7 160.6,86.6 C160.2,87.5 159.8,88.4 159.5,89.3 C159.2,90.2 159,91.1 158.8,91.7 C158.7,92 158.6,92.5 158.5,92.6 C158.5,92.7 158.5,92.8 158.4,93 C158.4,93.2 158.3,93.5 158.2,93.9 C158.1,94.3 158.1,94.7 158,95.2 C157.9,95.7 157.9,96.2 157.9,96.8 C157.9,97.3 157.9,97.7 157.8,98.2 L157.8,101.5 C157.8,101.7 157.8,102 157.9,102.3 C157.9,102.6 158,103 158,103.5 C158.1,104 158.1,104.5 158.2,105.1 C158.3,105.8 158.4,106.4 158.6,107 L159.4,110.6 C159.5,111.2 159.7,111.7 159.8,112.2 C159.9,112.7 160.1,113.1 160.2,113.5 C160.3,113.9 160.5,114.2 160.6,114.4 L160.8,114.8 C160.8,114.8 160.8,114.9 160.9,115.1 C161,115.3 161,115.5 161.2,115.8 C161.3,116.1 161.5,116.5 161.7,117 C161.9,117.5 162.2,118.1 162.6,118.8 C162.8,119.1 162.9,119.4 163.1,119.6 C163.2,119.9 163.4,120.1 163.5,120.4 C163.6,120.6 163.8,120.9 163.9,121.1 C164,121.3 164.2,121.5 164.3,121.7 C164.4,121.9 164.5,122 164.6,122.1 C164.7,122.2 164.8,122.3 164.8,122.4 C164.9,122.5 164.9,122.5 164.9,122.6 L164.9,122.7 L165,122.8 L166,122.4 L166.6,125.2 L172.3,133.7 L176.5,140.1 L180.7,146.5 L182.5,149.2 L188.1,157.7 L190.8,158.2 L193.9,156.7 L196.1,157 L202.1,154.2 L206.9,152 L212.3,149.5 L224,144.1 L229.3,141.6 L237.6,137.7 L239.5,132.1 L239.3,127.5 L237.4,125.2 L233,120 L230.5,117 L227.4,114.1 L225.2,111.4 L220.8,110.6 L218.8,108.2 L218.1,107.4 L217.7,102.9 L212.8,96.9 L203.9,86 L193.1,84.4 L192.9,84.4 L187.9,83.6 L185.6,84.5 L185.3,84.5 L187.6,80.9 L187.6,78.1 L190.3,77 L190.7,75.8 L204.5,70.3 L208,70.5 L211.1,69.3 L216,57.1 L215.6,52.6 L215.6,52.5 L216.8,49.8 L221.8,47.9 L226.6,48.3 L236.4,44.5 L245.4,41.1 L249.3,39.6 L254.6,37.5 L257.6,36.3 L258.5,33.8 L261.7,32.5 L265.3,31.1 L267.1,31.3 L268.2,28 L272.7,26.2 L272.4,27 L272.3,31.5 L275.8,34.5 L275,37 L274.8,41.5 L278.2,44.6 L278.4,44.8 L279,45.3 L278.5,45.5 L278.2,45.2 L275.8,43 L270.9,38.6 L263.6,37.8 L263.5,37.8 L255.8,40.8 L255.6,40.9 L238.6,48 L238.4,48.1 L232.7,50.3 L231.7,52.8 L231.4,52.9 L228.4,54 L227.5,56.1 L225.8,60.2 L224.6,62.9 L223.3,65.9 L222,68.9 L220.1,69.7 L217.9,75.4 L215.9,80.5 L216.3,85 L217.1,86 L217.2,86.2 L221.3,91 L225.5,95.9 L225.7,96.1 L231.8,102.9 L233.6,103.2 L239.3,109.9 L239.4,111.7 L246.6,120.2 L246.8,120.4 L249.4,123.5 L249.6,123.7 L252.6,127.3 L252.8,127.5 L255.3,130.4 L274.3,133.7 L274.4,133.7 L279.2,131.4 L289.8,126.3 L309.2,117 L314,114.7 L326.4,108.8 L326.9,105.8 L329.8,104.4 L347.6,95.9 L348,91.1 L340.5,84.5 L327.1,82.7 L320,76.4 C320.2,76.3 320.3,76.2 320.5,76.1 C320.7,75.9 320.9,75.8 321.1,75.6 C321.3,75.5 321.4,75.4 321.4,75.3 L321.5,75.2 C321.5,75.2 321.6,75.2 321.6,75.1 C321.7,75 321.8,75 321.9,74.9 L322.2,74.6 C322.3,74.5 322.4,74.3 322.5,74.1 C322.5,74.1 322.5,74 322.6,74 C322.6,74 322.6,73.9 322.7,73.9 C322.7,73.9 322.7,73.8 322.8,73.8 C322.8,73.8 322.8,73.7 322.9,73.7 L323.5,69.1 C323.5,69.1 323.5,69.2 323.4,69.2 C323.5,68.9 323.6,68.6 323.6,68.2 C323.6,67.8 323.5,67.5 323.4,67.2 C323.3,66.9 323.2,66.6 323.1,66.4 C323,66.3 323,66.2 322.9,66.1 L323,66 L326,67.8 L326.1,67.9 L326.6,68.7 L326.8,69 L326.9,69.2 C326.9,69.2 326.9,69.3 327,69.3 C327,69.4 327.1,69.4 327.1,69.5 C327.1,69.6 327.2,69.7 327.2,69.8 C327.2,69.9 327.3,70 327.4,70.2 C327.5,70.4 327.5,70.5 327.6,70.7 C327.7,70.9 327.7,71 327.8,71.1 C327.8,71.2 327.9,71.3 327.9,71.3 C327.8,71.4 327.7,71.5 327.7,71.6 C327.6,71.7 327.5,71.9 327.4,72 L326.9,72.5 L326.8,72.6 L326.7,72.7 C326.7,72.7 326.6,72.8 326.5,72.8 L326.3,73 L326.1,73.2 L325.9,73.4 C325.8,73.5 325.7,73.5 325.6,73.6 C325.5,73.7 325.4,73.8 325.3,73.8 C325.2,73.9 325.1,73.9 325.1,74 L325,74.1 L324.9,74.2 L324.5,77.4 L331.2,83.2 L342.8,84.7 L354.3,95 L362.3,91 L364.6,89.9 L365.6,85.2 L365.7,84.1 L369.3,82.4 L373.9,83 L376.3,81.9 L380.4,79.9 L385.6,84 L385.5,86 L388.4,86.2 L391.2,88.4 L390,89 L389.1,92.4 L383.7,95.1 L375.3,93.9 L354,104.3 L353.7,104.4 L351,105.7 L350.2,108.4 L350.2,108.6 L341.1,113.1 L336.7,112.8 L335.6,113.4 L335.6,113.4 Z M159,91.1 C159,91.4 159,91.5 158.9,91.7 C158.9,91.8 158.9,91.9 158.8,92 C158.8,92.1 158.8,92.1 158.7,92.2 C158.7,91.9 158.8,91.6 159,91.1 L159,91.1 Z M158.6,93.4 C158.6,93.5 158.6,93.7 158.5,93.8 C158.5,94 158.4,94.3 158.4,94.5 L158.4,94.3 C158.5,93.9 158.5,93.6 158.6,93.4 L158.6,93.4 Z M158.1,96.8 C158.1,97.3 158.1,97.7 158,98.2 C158,97.8 158,97.3 158.1,96.8 L158.1,96.8 Z M219.4,80.2 L218.1,80.7 L218.3,80.1 L219.4,80.2 L219.4,80.2 Z M395.4,102.1 L393.3,103.1 L386.6,97.7 L388.7,96.7 L395.4,102.1 L395.4,102.1 Z M357.7,134.1 L340.1,117.7 L345.3,115.1 L363,131.3 L357.7,134.1 L357.7,134.1 Z M367.3,129.2 L349.3,112.9 L350.1,110.4 L352.7,109.1 L372.3,126.6 L367.3,129.2 L367.3,129.2 Z M397.4,112.6 L397.4,115.6 L387.7,120.6 L386.3,125.3 L395,132.8 L389.6,135.7 L376.9,124.6 L357,107 L373.9,98.7 L382.1,99.9 L397.4,112.6 L397.4,112.6 Z M406.4,103.5 L401,99.2 L400.1,99.6 L395.7,96.1 L398.8,94.6 L411.2,104.3 L406.4,103.5 L406.4,103.5 Z M417.8,103.2 L400.3,89.7 L389.5,81.4 L386.8,81.3 L386.9,79.5 L381.5,75.4 L365.1,62.8 L357.1,56.6 L399.2,37.9 L462.3,80.4 L417.8,103.2 L417.8,103.2 Z M250,136.3 L250,136.5 L250.1,141.1 C250.1,141.1 250.1,141.1 250.1,141 C250.1,141 250.1,141 250.1,140.9 C250.1,140.9 250.1,140.9 250.1,140.8 C250.1,140.8 250.1,140.8 250.1,140.7 L250,136.1 C250,136.1 250,136.1 250,136.3 C250,136.2 250,136.2 250,136.3 L250,136.3 Z M245.6,130.6 L242.1,136.6 L242.3,141.2 L246.5,141.9 L249,141.9 C249.1,141.9 249.1,141.8 249.2,141.8 C249.3,141.8 249.3,141.7 249.4,141.6 L249.8,141.2 L249.7,136.6 C249.8,136.5 249.9,136.3 250,136.1 C250,136 250.1,135.9 250.1,135.8 L250.1,136 L254.4,136 C254.4,136 254.5,136 254.5,135.9 L254.6,135.8 L254.7,135.7 L254.8,135.6 L254.9,135.5 L255,135.4 L255.1,135.3 C255.1,135.3 255.1,135.2 255.2,135.2 L255.3,135.1 L255.3,130.5 L248.4,129.3 L245.6,130.6 L245.6,130.6 Z M247.4,136.9 C247.2,136.9 247,137 246.9,137 L246.5,137 L244.1,136.6 L244.8,134.5 L247.3,133.3 L247.5,133.3 L247.3,133.9 L247.4,136.9 L247.4,136.9 Z M249.6,140.1 L249.6,140.4 C249.5,140.2 249.5,140.2 249.6,140.1 L249.6,140.1 Z M253.8,130.1 C253.7,130.1 253.7,130.2 253.8,130.1 L253.8,130.1 L253.8,130.1 Z M253.8,130.1 L253.9,130 C253.9,130 253.8,130 253.8,130.1 L253.8,130.1 Z M222.5,93.7 L216.6,96.3 L216.9,100.8 L220.1,104.7 L226.1,102.1 L225.7,97.6 L222.5,93.7 L222.5,93.7 Z M202.5,79.3 L202.8,83.6 C202.8,83.6 202.9,83.8 202.9,83.9 C203,84.2 203.3,84.4 203.7,84.7 C204.1,84.9 204.5,85 205.1,85.1 C205.7,85.2 206.3,85.3 207,85.3 C207.7,85.2 208.4,85.2 209.2,85.1 C209.9,85 210.6,84.8 211.2,84.6 C211.8,84.3 212.3,84.1 212.7,83.8 C213.1,83.5 213.4,83.2 213.6,82.9 C213.8,82.6 213.8,82.4 213.8,82.2 L213.4,77.8 L202.5,79.3 L202.5,79.3 Z M78.1,198.4 L80.8,205 L83.9,203.5 L81.3,196.9 L78.1,198.4 L78.1,198.4 Z M78.1,198.4" class="wall"/>
        </g>
        <g class="ceilings">
            <path class="unit" d="M263.1,5.1 L256,7.6 L256,7.3 L256,7 L256,6.7 L256,6.4 L256,6.2 L256,6 L256,5.8 L256,5.6 L256,4.8 C256,4.6 256,4.4 256.1,4.2 C256.2,4 256.3,3.8 256.4,3.7 C256.5,3.5 256.7,3.4 257,3.2 L261.4,3.7 L263.1,5.1 L263.1,5.1 Z M263.1,5.1" id="2001"/>
            <path class="unit" d="M266.6,7.9 L257.7,11.2 L257.5,11 L257.3,10.8 C257.2,10.7 257.2,10.6 257.1,10.6 C257.1,10.5 257,10.4 257,10.3 C257,10.3 257,10.2 256.9,10.1 C256.8,10 256.8,9.8 256.7,9.6 C256.6,9.4 256.5,9.2 256.5,8.9 C256.4,8.6 256.3,8.3 256.3,7.9 L263.5,5.3 L266.6,7.9 L266.6,7.9 Z M266.6,7.9" id="2002"/>
            <path class="unit" d="M299.8,3.8 L285,9.4 L283.2,8 L284.3,7.5 L285.9,5.6 L286.3,5.4 L293.4,2.8 L294.8,3.9 L298.2,2.6 L299.8,3.8 L299.8,3.8 Z M299.8,3.8" id="2003"/>
            <path class="unit" d="M285.5,5.7 L284.1,7.4 L282.8,7.9 L284.8,9.5 L280.1,11.3 L275.3,7.4 L277.5,6.6 L277.9,6.9 L285.5,5.7 L285.5,5.7 Z M285.5,5.7" id="2004"/>
            <path class="unit" d="M279.9,11.3 L270.7,14.7 L266.5,11.2 L266.4,11.2 C266.1,11.3 265.6,11.4 265,11.5 C264.3,11.6 263.5,11.8 262.7,11.9 C261.8,12 260.9,12 260.1,11.9 C259.3,11.8 258.5,11.6 257.9,11.2 L266.8,7.9 L268.9,9.7 L275.1,7.4 L279.9,11.3 L279.9,11.3 Z M279.9,11.3" id="2005"/>
            <path class="unit" d="M274.6,21.2 L268.4,23.6 L267.3,26.8 L265.7,26.6 L262,28 L257.9,24.3 L261.5,23 L258.4,20.3 L260.6,15.2 L265.4,13.4 L274.6,21.2 L274.6,21.2 Z M274.6,21.2" id="2006"/>
            <path class="unit" d="M282,29.1 L277.5,30.9 L273.1,27.1 L273.8,25.2 L276.3,24.3 L282,29.1 L282,29.1 Z M282,29.1" id="2007"/>
            <path class="unit" d="M261.8,28.1 L258.6,29.3 L257.7,31.8 L254.8,32.9 L242.4,21.5 L251.7,22.6 L254.9,25.5 L257.6,24.4 L261.8,28.1 L261.8,28.1 Z M261.8,28.1" id="2008"/>
            <path class="unit" d="M254.6,33 L249.4,35 L234.1,20.6 L242,21.5 L254.6,33 L254.6,33 Z M254.6,33" id="2009"/>
            <path class="unit" d="M249.2,35.1 L245.5,36.5 L239.9,31.2 L235,30 L233.2,30.7 L231.8,29.4 L233.8,28.6 L225.1,20.3 L226.5,19.8 L233.7,20.6 L249.2,35.1 L249.2,35.1 Z M249.2,35.1" id="2010"/>
            <path class="unit" d="M245.3,36.6 L241,38.3 L233.3,30.8 L235,30.2 L239.7,31.3 L245.3,36.6 L245.3,36.6 Z M245.3,36.6" id="2011"/>
            <path class="unit" d="M233.5,28.6 L231.5,29.3 L240.7,38.3 L236.5,40 L226.1,29.7 L230.5,28.1 L223.2,21 L224.9,20.4 L233.5,28.6 L233.5,28.6 Z M233.5,28.6" id="2012"/>
            <path class="unit" d="M236.2,40.1 L226.7,43.8 L222,43.3 L211.2,32.1 L214.9,30.8 L217.1,33.1 L225.8,29.8 L236.2,40.1 L236.2,40.1 Z M236.2,40.1" id="2013"/>
            <path class="unit" d="M282.2,29.3 L289.8,35.8 L279,40.1 L275.6,37.1 L277.6,31.1 L282.2,29.3 L282.2,29.3 Z M282.2,29.3" id="2014"/>
            <path class="unit" d="M307.7,30.7 L280.7,41.6 L279.2,40.2 L306.1,29.5 L307.7,30.7 L307.7,30.7 Z M307.7,30.7" id="2015"/>
            <path class="unit" d="M293.1,43.5 L295,45.1 L315.2,36.8 L313.3,35.3 L293.1,43.5 L293.1,43.5 Z M293.1,43.5" id="2016"/>
            <path class="unit" d="M311,33.4 L300.3,37.8 L291.8,41.2 L289.6,43 L286.8,42.6 L283.4,43.9 L280.9,41.7 L307.9,30.9 L311,33.4 L311,33.4 Z M311,33.4" id="2017"/>
            <path class="unit" d="M221.7,43.4 L216.6,45.3 L214.1,50.7 L208.4,49.7 L208.2,48.7 L197.7,37.2 L210.9,32.2 L221.7,43.4 L221.7,43.4 Z M221.7,43.4" id="2018"/>
            <path class="unit" d="M311.2,33.6 L292,41.3 L290,43 L292.8,43.4 L313.1,35.1 L311.2,33.6 L311.2,33.6 Z M311.2,33.6" id="2019"/>
            <path class="unit" d="M256.5,41.2 L263.9,48.1 L271,45.3 L263.9,38.3 L256.5,41.2 L256.5,41.2 Z M256.5,41.2" id="2020"/>
            <path class="unit" d="M318.2,39.2 L297.5,47.7 L295.5,46 L295.2,45.2 L304.6,41.4 L315.4,36.9 L318.2,39.2 L318.2,39.2 Z M318.2,39.2" id="2021"/>
            <path class="unit" d="M278.4,45.4 L262.7,51.8 L260.5,49.7 L276.1,43.4 L278.4,45.4 L278.4,45.4 Z M278.4,45.4" id="2022"/>
            <path class="unit" d="M320.3,40.9 L300,49.3 L298.2,47.7 L318.4,39.3 L320.3,40.9 L320.3,40.9 Z M320.3,40.9" id="2023"/>
            <path class="unit" d="M295.2,49.8 L292.1,51.2 L286.5,46.3 L288.5,45.5 L291,46.2 L295.2,49.8 L295.2,49.8 Z M295.2,49.8" id="2024"/>
            <path class="unit" d="M281,46.8 L264.5,53.5 L262.9,51.9 L278.5,45.6 L278.9,45.9 L279.6,45.6 L281,46.8 L281,46.8 Z M281,46.8" id="2025"/>
            <path class="unit" d="M322.4,42.5 L302,51 L300.2,49.4 L320.5,41 L322.4,42.5 L322.4,42.5 Z M322.4,42.5" id="2026"/>
            <path class="unit" d="M264.4,53.7 L262.6,52 L260.3,49.8 L255.9,51.6 L248.6,44.3 L238.7,48.1 L244.5,53.9 L246.4,55.8 L249.9,59.3 L259.6,55.4 L263,54 L266.1,56.9 L267.3,56.4 L264.4,53.7 L264.4,53.7 Z M264.4,53.7" id="2027"/>
            <path class="unit" d="M244.2,54 L238.5,48.2 L234.4,49.8 L239.9,55.7 L244.2,54 L244.2,54 Z M244.2,54" id="2028"/>
            <path class="unit" d="M235.4,57.5 L234.6,57.8 L227.7,56.2 L228.6,54.1 L231.2,53.1 L235.4,57.5 L235.4,57.5 Z M235.4,57.5" id="2029"/>
            <path class="unit" d="M283.6,47.8 L266.1,55 L267.5,56.3 L285.3,49.1 L283.8,47.8 L283.6,47.8 L283.6,47.8 Z M283.6,47.8" id="2030"/>
            <path class="unit" d="M324.6,44.3 L301.3,54.1 L299.2,52.4 L302,51.2 L322.5,42.7 L324.6,44.3 L324.6,44.3 Z M324.6,44.3" id="2031"/>
            <path class="unit" d="M233.6,59.3 L235,58.7 L234.4,58 L227.6,56.4 L226.7,58.6 L232.7,59.7 L233.6,59.3 L233.6,59.3 Z M233.6,59.3" id="2032"/>
            <path class="unit" d="M287.3,50.9 L268.1,58.8 L266.2,57.1 L267.4,56.6 L285.4,49.2 L287.3,50.9 L287.3,50.9 Z M287.3,50.9" id="2033"/>
            <path class="unit" d="M327.6,46.7 L304.1,56.6 L301.4,54.3 L324.8,44.5 L327.6,46.7 L327.6,46.7 Z M327.6,46.7" id="2034"/>
            <path class="unit" d="M288.6,52.6 L269.8,60.4 L268.3,59 L287.1,51.2 L288.6,52.6 L288.6,52.6 Z M288.6,52.6" id="2035"/>
            <path class="unit" d="M329.7,48.4 L306.1,58.4 L304.3,56.8 L327.8,46.8 L329.7,48.4 L329.7,48.4 Z M329.7,48.4" id="2036"/>
            <path class="unit" d="M235.4,61.5 L227.9,64.5 L226.7,63.3 L224.8,63 L225.6,61.2 L230.1,61.9 L234.2,60.1 L235.4,61.5 L235.4,61.5 Z M235.4,61.5" id="2037"/>
            <path class="unit" d="M290.2,54.1 L271.4,61.9 L269.9,60.6 L288.8,52.8 L290.2,54.1 L290.2,54.1 Z M290.2,54.1" id="2038"/>
            <path class="unit" d="M330.9,49.4 L329.8,48.5 L306.3,58.5 L308,60 L311.5,58.8 L311.1,57.9 L330.9,49.4 L330.9,49.4 Z M330.9,49.4" id="2039"/>
            <path class="unit" d="M333.3,51.3 L317.2,58.2 L317,59.5 L314.1,59.1 L314.4,57.5 L331.8,50.1 L333.3,51.3 L333.3,51.3 Z M333.3,51.3" id="2040"/>
            <path class="unit" d="M227.6,64.6 L224.1,66.1 L223.5,66 L224.7,63.2 L226.5,63.5 L227.6,64.6 L227.6,64.6 Z M227.6,64.6" id="2042"/>
            <path class="unit" d="M291.7,55.4 L272.7,63.3 L271.5,62.1 L290.4,54.2 L291.7,55.4 L291.7,55.4 Z M291.7,55.4" id="2043"/>
            <path class="unit" d="M156.8,70 L152.2,71.8 L151.9,71.4 L138.3,52.3 L142.7,50.7 L156.8,70 L156.8,70 Z M156.8,70" id="2044"/>
            <path class="unit" d="M335.4,53 L320.3,59.5 L320.1,60.6 C320,60.6 320,60.5 319.9,60.5 C319.8,60.5 319.7,60.4 319.6,60.4 C319.5,60.4 319.4,60.3 319.2,60.2 C319.1,60.1 318.9,60.1 318.8,60 C318.6,59.9 318.5,59.9 318.3,59.8 C318.1,59.7 318,59.7 317.9,59.6 C317.8,59.6 317.6,59.5 317.5,59.5 C317.4,59.5 317.3,59.4 317.2,59.4 L317.4,58.1 L333.4,51.2 L335.4,53 L335.4,53 Z M335.4,53" id="2045"/>
            <path class="unit" d="M151.6,71.4 L146.9,73.2 L146.5,72.7 L134.5,55.3 L136.8,54.5 L138.1,52.5 L151.6,71.4 L151.6,71.4 Z M151.6,71.4" id="2046"/>
            <path class="unit" d="M171.1,66 L168,71.7 L163.8,71.1 L164.1,70.3 L162.7,70 L162.1,70.8 L157.1,69.9 L146.9,55.9 L156.1,52.4 L165.7,65.1 L167,65.5 L168.9,64.8 L171.1,66 L171.1,66 Z M171.1,66" id="2047"/>
            <path class="unit" d="M115.5,89.6 C115.6,89.8 115.8,90.1 116,90.3 C116.2,90.5 116.4,90.7 116.6,91 C116.8,91.2 117,91.4 117.3,91.6 C117.5,91.8 117.8,92 118.1,92.2 L104,97.7 L101.6,93.4 L65.5,87.4 L68.5,86.3 L71.2,82.8 L70,80.4 L72.5,77.2 L68.2,76.6 L69.6,74.8 L73.8,75.4 L85.1,60.4 L81.1,59.9 L82.4,58.2 L86.4,58.8 L89.7,54.3 L98.3,55.4 L101.3,51.6 L104.1,52 L101.1,56.1 L120,58.5 L123.1,54.2 L125.6,54.6 L122.6,59 L130.5,60.1 L132,60.3 L128.9,65.1 L114.7,86.9 L115.1,88.5 C115.1,88.6 115.2,88.7 115.2,88.8 C115.2,88.9 115.3,89 115.3,89.1 C115.3,89.2 115.4,89.3 115.4,89.4 C115.3,89.4 115.4,89.5 115.5,89.6 L115.5,89.6 L115.5,89.6 Z M115.5,89.6" id="2048"/>
            <path class="unit" d="M146.2,72.6 L141.5,74.4 L141.3,74 L140.8,73.3 L132.1,60.4 L132.3,60.1 L130.6,59.9 L128.9,57.4 L134.2,55.4 L146.2,72.6 L146.2,72.6 Z M146.2,72.6" id="2049"/>
            <path class="unit" d="M215.7,52.6 L210.8,64.6 L207.9,65.8 L204.4,65.5 L190.5,71.1 L186.4,66 L172.8,64.5 L171.3,65.9 L169,64.6 L167,65.3 L166,65 L156.4,52.4 L158.4,51.6 L164.6,59.7 L167.3,58.6 L165.2,55.9 L197.6,43.7 L198.4,44.6 L201.1,43.6 L195.9,37.8 L197.4,37.3 L207.9,48.7 L208.1,49.9 L214.1,50.9 L215.7,52.6 L215.7,52.6 Z M215.7,52.6" id="2050"/>
            <path class="unit" d="M140.9,73.9 L136.2,75.7 L129,65 L131.9,60.7 L140.9,73.9 L140.9,73.9 Z M140.9,73.9" id="2051"/>
            <path class="unit" d="M340.1,56.8 L326.4,62.8 L323.2,60.9 L322.2,61.6 L320.3,60.8 L320.6,59.6 L335.6,53.1 L340.1,56.8 L340.1,56.8 Z M340.1,56.8" id="2052"/>
            <path class="unit" d="M297.8,57.2 L276,66.4 L272.9,63.4 L292.1,55.4 L294.6,54.4 L297.8,57.2 L297.8,57.2 Z M297.8,57.2" id="2053"/>
            <path class="unit" d="M238.4,64.7 L225.1,70.1 L224.1,68.9 L222.3,68.9 L223.4,66.2 L224.1,66.3 L227.8,64.8 L235.5,61.7 L238.4,64.7 L238.4,64.7 Z M238.4,64.7" id="2054"/>
            <path class="unit" d="M342.3,58.5 L329.8,63.9 L327.5,64.1 L326.7,63 L326.6,62.9 L340.3,56.9 L342.3,58.5 L342.3,58.5 Z M342.3,58.5" id="2055"/>
            <path class="unit" d="M190.3,71.2 L189.9,72.3 L185.2,74.2 L168.3,71.7 L171.4,66 L172.9,64.7 L186.1,66.2 L190.3,71.2 L190.3,71.2 Z M190.3,71.2" id="2056"/>
            <path class="unit" d="M135.5,75.3 L125.5,79.1 L124.7,77.8 L127.5,73.3 L127.6,73.3 L124.1,72.7 L128.9,65.3 L135.5,75.3 L135.5,75.3 Z M135.5,75.3" id="2057"/>
            <path class="unit" d="M227.2,72.9 L220.6,75.6 L218.1,75.4 L220.3,69.8 L222.1,69.1 L223.8,69.2 L227.2,72.9 L227.2,72.9 Z M227.2,72.9" id="2058"/>
            <path class="unit" d="M249.7,59.4 L245.5,61.1 L242.8,58.4 L237.7,60.5 L243.3,66.3 L227.6,72.8 L225.3,70.3 L238.8,64.8 L235.8,61.6 L233.7,59.4 L235.4,58.7 L234.7,58 L244.4,54.1 L249.7,59.4 L249.7,59.4 Z M249.7,59.4" id="2059"/>
            <path class="unit" d="M301.5,60.5 L279.6,69.9 L276.2,66.6 L298,57.4 L301.5,60.5 L301.5,60.5 Z M301.5,60.5" id="2060"/>
            <path class="unit" d="M344.8,60.5 L331.6,66.3 L328.6,66.5 C328.6,66.5 328.6,66.4 328.5,66.3 C328.5,66.2 328.4,66.1 328.4,66 C328.4,65.9 328.3,65.8 328.3,65.7 C328.2,65.6 328.2,65.4 328.1,65.3 C328,65.2 328,65.1 327.9,65 C327.9,64.9 327.8,64.8 327.8,64.7 C327.8,64.6 327.7,64.5 327.7,64.5 C327.7,64.4 327.6,64.4 327.6,64.4 L330,64.2 L342.5,58.7 L344.8,60.5 L344.8,60.5 Z M344.8,60.5" id="2061"/>
            <path class="unit" d="M347.4,62.6 L331.6,69.6 L328.9,69.4 C328.9,69.3 328.9,69.3 329,69.2 C329.1,69.1 329,69 329.1,68.9 L329.1,68.5 L329.1,68 C329.1,67.8 329,67.7 329,67.6 C329,67.5 328.9,67.3 328.9,67.2 C328.9,67.1 328.8,67 328.8,66.9 C328.8,66.8 328.8,66.8 328.7,66.7 L331.7,66.5 L345,60.6 L347.4,62.6 L347.4,62.6 Z M347.4,62.6" id="2062"/>
            <path class="unit" d="M304.3,62.8 L303.8,64.9 L283.6,73.6 L279.8,70 L301.7,60.7 L304.3,62.8 L304.3,62.8 Z M304.3,62.8" id="2063"/>
            <path class="unit" d="M134,80.7 C134.2,81 134.2,81.4 134.1,81.7 C134,82.1 133.7,82.5 133.3,82.9 C132.9,83.3 132.4,83.7 131.8,84.1 C131.2,84.5 130.5,84.8 129.7,85.1 C128.9,85.4 128.1,85.6 127.3,85.8 C126.5,86 125.8,86 125.1,86 C124.4,86 123.9,85.9 123.4,85.8 C122.9,85.6 122.6,85.4 122.4,85.1 C122.2,84.8 122.2,84.4 122.3,84 C122.4,83.6 122.7,83.2 123.1,82.8 C123.5,82.4 124,82 124.6,81.6 C125.2,81.2 125.9,80.9 126.7,80.6 C127.5,80.3 128.3,80.1 129,79.9 C129.8,79.7 130.5,79.7 131.1,79.7 C131.7,79.7 132.3,79.8 132.8,79.9 C133.5,80.2 133.8,80.4 134,80.7 L134,80.7 L134,80.7 Z M134,80.7" id="2064"/>
            <path class="unit" d="M309.2,63.8 L308.6,66.6 L286.3,76.2 L283.8,73.8 L304,65 L304.5,62.9 L309.2,63.8 L309.2,63.8 Z M309.2,63.8" id="2065"/>
            <path class="unit" d="M246.2,69.2 L216.9,81.2 L216.1,80.4 L218,75.6 L220.7,75.8 L243.5,66.5 L246.2,69.2 L246.2,69.2 Z M246.2,69.2" id="2066"/>
            <path class="unit" d="M353.3,67.3 L333.3,76.3 L330.5,73.9 L326.8,72.5 C326.9,72.5 326.9,72.4 327,72.3 L327.3,72 C327.4,71.9 327.5,71.7 327.6,71.6 C327.7,71.5 327.8,71.3 328,71.1 C328.1,70.9 328.2,70.8 328.3,70.6 C328.4,70.5 328.5,70.3 328.5,70.2 C328.6,70.1 328.6,70 328.7,69.9 C328.7,69.8 328.8,69.8 328.8,69.7 L331.7,69.9 L347.6,62.8 L353.3,67.3 L353.3,67.3 Z M353.3,67.3" id="2068"/>
            <path class="unit" d="M362.4,86.4 L354.6,90.1 L343.4,80.3 L329.4,78.3 L333.2,76.6 L340.8,73.1 L344.4,71.5 L362.4,86.4 L362.4,86.4 Z M362.4,86.4" id="2069"/>
            <path class="unit" d="M185.4,84.2 L184,87.1 L183.8,87.7 L184,87.8 L184.6,88.1 L182.1,91.9 L181.3,93.3 L177.1,92.6 L179.9,87.9 L174.9,86.9 L177.3,82.9 L185.4,84.2 L185.4,84.2 Z M185.4,84.2" id="2070"/>
            <path class="unit" d="M333.1,76.4 L329.6,78 L325.1,74 C325.1,74 325.2,73.9 325.3,73.9 L325.5,73.7 C325.6,73.6 325.7,73.6 325.7,73.5 C325.8,73.4 325.9,73.4 325.9,73.3 L326.1,73.1 L326.3,72.9 L326.5,72.7 C326.6,72.6 326.6,72.6 326.7,72.6 L330.3,74 L333.1,76.4 L333.1,76.4 Z M333.1,76.4" id="2071"/>
            <path class="unit" d="M245.7,75.6 L233.5,80.7 L221,86 L217.1,81.4 L241.7,71.3 L245.7,75.6 L245.7,75.6 Z M245.7,75.6" id="2072"/>
            <path class="unit" d="M250.5,80.6 L225.6,91.2 L228.8,94.7 L253.8,84.1 L250.5,80.6 L250.5,80.6 Z M250.5,80.6" id="2073"/>
            <path class="unit" d="M381,75.2 L376.9,77.1 L361,64.7 L365.1,62.8 L381,75.2 L381,75.2 Z M381,75.2" id="2075"/>
            <path class="unit" d="M196.1,87.8 L189.8,90.4 L184.1,87.6 L185.7,84.2 L187.9,83.3 L193.1,84.1 L196.1,87.8 L196.1,87.8 Z M196.1,87.8" id="2076"/>
            <path class="unit" d="M376.6,77.2 L374.5,78.2 L369.9,77.6 L365.5,79.7 L351.5,68.4 L353.5,67.5 L354.7,68.4 L356.9,67.4 L354.2,65.2 L355.6,64.6 L357.7,66.2 L360.8,64.8 L376.6,77.2 L376.6,77.2 Z M376.6,77.2" id="2077"/>
            <path class="unit" d="M250.3,80.4 L225.4,91 L221.2,86.1 L245.9,75.7 L250.3,80.4 L250.3,80.4 Z M250.3,80.4" id="2079"/>
            <path class="unit" d="M177,82.9 L174.5,87.1 L179.5,88.1 L176.7,92.7 L175.1,95.2 L158.7,92.7 C158.7,92.5 158.8,92 159,91.3 C159.2,90.6 159.4,89.8 159.7,88.9 C160,88 160.3,87.1 160.7,86.3 C161.1,85.5 161.6,84.7 162.1,84.2 C162.6,83.7 163.1,83.3 163.7,82.9 C164.2,82.6 164.7,82.3 165.2,82.1 C165.6,81.9 166,81.8 166.3,81.7 C166.6,81.6 166.8,81.6 166.9,81.6 L177,82.9 L177,82.9 Z M177,82.9" id="2080"/>
            <path class="unit" d="M125.6,94.9 L120.4,98 L107,103.3 L104,97.8 L118.2,92.3 C118.6,92.6 119,92.8 119.5,93.1 C120,93.3 120.4,93.6 121,93.8 C121.5,94 122,94.2 122.6,94.4 C123.2,94.6 123.7,94.7 124.3,94.8 L125.6,94.9 L125.6,94.9 Z M125.6,94.9" id="2082"/>
            <path class="unit" d="M365.3,79.8 L364.9,85.2 L362.7,86.3 L344.7,71.4 L347,70.4 L351.3,68.5 L365.3,79.8 L365.3,79.8 Z M365.3,79.8" id="2083"/>
            <path class="unit" d="M175,95.3 L174.2,96.7 L175.1,98.1 L172.3,99.2 L158,100.8 L158,100.3 L158,99.4 L158,98.2 C158,97.8 158,97.3 158.1,96.8 C158.1,96.3 158.2,95.9 158.2,95.5 C158.2,95.1 158.3,94.7 158.4,94.3 C158.5,93.9 158.5,93.6 158.6,93.4 C158.6,93.1 158.7,92.9 158.7,92.8 L175,95.3 L175,95.3 Z M175,95.3" id="2084"/>
            <path class="unit" d="M175.2,98.3 L178.2,102.5 L160.1,110.1 C160,110 159.9,109.7 159.8,109.4 C159.7,109.1 159.5,108.7 159.4,108.2 C159.2,107.7 159.1,107.2 158.9,106.7 C158.8,106.1 158.6,105.5 158.5,104.9 C158.4,104.3 158.3,103.8 158.3,103.4 C158.2,103 158.2,102.6 158.2,102.2 C158.2,101.8 158.1,101.6 158.1,101.4 L158.1,101 L172.4,99.4 L175.2,98.3 L175.2,98.3 Z M175.2,98.3" id="2085"/>
            <path class="unit" d="M146.8,89.7 C146.9,89.8 146.9,89.9 147,90.1 L147,90.4 L147,90.6 L147,90.7 L147,92.3 L147.1,94.8 L147.6,98.9 L129.1,106.4 L126.9,102.8 L123.8,104 L125.2,106.4 L120.1,108.5 L116.3,101.9 L121.7,99.7 L128.4,95.9 L128.5,95.6 L130,95.2 L132.9,94.1 L143.4,90 C143.4,90 143.5,89.9 143.7,89.8 C143.9,89.7 144.2,89.6 144.5,89.5 C144.8,89.4 145.1,89.3 145.5,89.3 C145.8,89.3 146.1,89.3 146.4,89.4 C146.5,89.4 146.5,89.5 146.6,89.5 C146.7,89.5 146.7,89.6 146.7,89.6 L146.8,89.7 C146.8,89.6 146.8,89.6 146.8,89.7 L146.8,89.7 L146.8,89.7 Z M146.8,89.7" id="2088"/>
            <path class="unit" d="M203.7,85.7 L193.5,84.1 L196.5,87.9 L189.8,90.7 L184.8,88.2 L181.6,93.3 L182.3,93.4 L187.3,91.4 L192.3,97.9 L208.3,91.3 L203.7,85.7 L203.7,85.7 Z M203.7,85.7" id="2089"/>
            <path class="unit" d="M119.7,108.6 L117.4,109.6 L115.5,106.2 L102.4,111.4 L101.3,109.5 L102.6,108.9 L101.8,107.5 L115.9,101.9 L119.7,108.6 L119.7,108.6 Z M119.7,108.6" id="2090"/>
            <path class="unit" d="M268.9,92.4 L239.6,105.4 L233.6,98.4 L257.5,88 L259.3,89.9 L264.4,87.7 L268.9,92.4 L268.9,92.4 Z M268.9,92.4" id="2093"/>
            <path class="unit" d="M147.6,99.1 L147.9,101 L148.6,104.4 L149.7,107.9 L133.9,114.4 L129.3,106.7 L129.1,106.5 L147.6,99.1 L147.6,99.1 Z M147.6,99.1" id="2094"/>
            <path class="unit" d="M217.4,102.5 L216.4,105.4 L218.5,107.9 L204.6,114 L196.4,103.3 L212.5,96.5 L217.4,102.5 L217.4,102.5 Z M217.4,102.5" id="2095"/>
            <path class="unit" d="M191,128.3 L175.7,135 L171.6,128.8 L185.5,122.8 L186.1,123.7 L187.4,123.2 L191,128.3 L191,128.3 Z M191,128.3" id="2096"/>
            <path class="unit" d="M185.3,122.6 L171.4,128.6 L166,120.6 L169.8,119 L168.7,117.4 L178.7,113.2 L185.3,122.6 L185.3,122.6 Z M185.3,122.6" id="2097"/>
            <path class="unit" d="M192.5,133 L191,136.4 L180,141.4 L175.9,135.2 L189.8,129.1 L192.5,133 L192.5,133 Z M192.5,133" id="2098"/>
            <path class="unit" d="M211.5,144.4 L206.4,146.8 L197.3,134.1 L202.3,131.8 L211.5,144.4 L211.5,144.4 Z M211.5,144.4" id="2099"/>
            <path class="unit" d="M201.2,149.2 L195.3,152 L193.1,151.6 L190,153.1 L187.6,152.7 L182,144.3 L194,138.8 L201.2,149.2 L201.2,149.2 Z M201.2,149.2" id="2100"/>
            <path class="unit" d="M202.1,131.6 L193.6,135.4 L192.9,137.2 L193.8,138.6 L181.8,144.1 L180.1,141.6 L191.3,136.6 L192.9,132.9 L190.1,129 L191.4,128.4 L187.5,122.8 L186.3,123.4 L177.8,111.3 L179.8,110.4 L193.4,128.8 L198.4,126.5 L202.1,131.6 L202.1,131.6 Z M202.1,131.6" id="2101"/>
            <path class="unit" d="M172.9,105 L160.1,110.3 C160.1,110.4 160.2,110.5 160.2,110.7 C160.3,110.9 160.4,111.1 160.5,111.4 C160.6,111.7 160.8,112.1 161,112.5 L161.8,114.1 C162,114.4 162.1,114.7 162.3,114.9 C162.4,115.2 162.6,115.4 162.7,115.6 C162.8,115.8 163,116.1 163.1,116.3 C163.2,116.5 163.4,116.7 163.5,116.9 C163.6,117 163.6,117.1 163.7,117.2 C163.8,117.3 163.8,117.4 163.9,117.4 C164,117.4 164,117.5 164,117.6 L164.1,117.7 L167.8,116.1 L168.5,117.1 L178.5,112.9 L172.9,105 L172.9,105 Z M172.9,105" id="2102"/>
            <path class="unit" d="M399.9,99.8 L393.3,103.1 L383.6,95.2 L390,92 L399.9,99.8 L399.9,99.8 Z M399.9,99.8" id="2103"/>
            <path class="unit" d="M467.4,77.6 L417.8,103.2 L400.2,89.7 L389.4,81.3 L386.7,81.2 L386.9,79.4 L381.5,75.2 L365.1,62.6 L353.7,53.7 L400.4,33.2 L467.4,77.6 L467.4,77.6 Z M467.4,77.6" id="2105"/>
            <path class="unit" d="M263,104.2 L260.1,105.5 L262.4,108.1 L246.6,115.3 L239.4,106.9 L239.7,105.6 L257.3,97.9 L263,104.2 L263,104.2 Z M263,104.2" id="2106"/>
            <path class="unit" d="M149.7,108.1 L150.5,110.7 L151.4,113 C151.4,113 151.5,113.1 151.6,113.3 C151.7,113.5 151.8,113.7 152,114 C152.1,114.3 152.3,114.6 152.4,114.8 C152.5,115.1 152.6,115.4 152.6,115.6 C152.6,115.8 152.5,116.1 152.4,116.3 C152.3,116.5 152.1,116.8 151.9,117 C151.7,117.2 151.4,117.4 151.2,117.6 C150.9,117.8 150.7,117.9 150.5,118 C150.3,118.1 149.5,118.4 148.5,118.8 C147.5,119.2 146.2,119.8 145,120.3 C143.7,120.8 142.4,121.4 141.4,121.8 C140.3,122.2 139.5,122.6 139.2,122.7 L137.5,119.9 L132,122.2 L130.1,118.9 L135.6,116.6 L134.3,114.4 L149.7,108.1 L149.7,108.1 Z M149.7,108.1" id="2107"/>
            <path class="unit" d="M265.3,111.3 L249.4,118.5 L246.8,115.5 L262.6,108.3 L265.3,111.3 L265.3,111.3 Z M265.3,111.3" id="2108"/>
            <path class="unit" d="M150.1,118.5 L139,123.1 L141.3,127 L135.8,129.3 L138.6,134.3 L155.5,126.9 L150.1,118.5 L150.1,118.5 Z M150.1,118.5" id="2109"/>
            <path class="unit" d="M314.2,109.7 L309.6,111.9 L295.2,97.7 L299.7,95.6 L314.2,109.7 L314.2,109.7 Z M314.2,109.7" id="2110"/>
            <path class="unit" d="M417.5,103.3 L414.3,105 L406.4,103.5 L401,99.2 L400.1,99.7 L390.2,91.8 L389.9,89.1 L391.4,88.4 L396.1,92 L400.2,90 L417.5,103.3 L417.5,103.3 Z M417.5,103.3" id="2111"/>
            <path class="unit" d="M220.5,110.4 L218.7,108.1 L204.7,114.2 L206.5,116.6 L220.9,110.5 L220.5,110.4 L220.5,110.4 Z M220.5,110.4" id="2112"/>
            <path class="unit" d="M252.9,122.5 L255.3,125.4 L263.9,126.9 L268.8,115.2 L252.9,122.5 L252.9,122.5 Z M252.9,122.5" id="2113"/>
            <path class="unit" d="M268.7,115 L252.7,122.3 L249.6,118.8 L265.5,111.5 L268.7,115 L268.7,115 Z M268.7,115" id="2114"/>
            <path class="unit" d="M309.3,112 L290.1,121.1 L271.2,101.3 L290,92.9 L309.3,112 L309.3,112 Z M309.3,112" id="2115"/>
            <path class="unit" d="M232.6,119.6 L214.9,127.5 L210.2,121.3 L227.1,113.8 L230.3,116.7 L232.6,119.6 L232.6,119.6 Z M232.6,119.6" id="2116"/>
            <path class="unit" d="M232.7,119.8 L236.8,124.8 L233.2,126.4 L228.1,125.6 L217.2,130.5 L215.1,127.7 L232.7,119.8 L232.7,119.8 Z M232.7,119.8" id="2117"/>
            <path class="unit" d="M267,112.7 L279.3,126.2 L284.1,124 L271.7,110.6 L267,112.7 L267,112.7 Z M267,112.7" id="2118"/>
            <path class="unit" d="M204.4,134.1 L211.8,144.3 L218.3,141.3 L210.8,131.2 L204.4,134.1 L204.4,134.1 Z M204.4,134.1" id="2119"/>
            <path class="unit" d="M237,125 L238.8,127.3 L236.9,132.7 L228.9,136.4 L222.7,128.3 L228.1,125.8 L233.3,126.7 L237,125 L237,125 Z M237,125" id="2120"/>
            <path class="unit" d="M350.8,128.1 L348,129.6 L332.3,114.8 L335.2,113.5 L350.8,128.1 L350.8,128.1 Z M350.8,128.1" id="2121"/>
            <path class="unit" d="M249.1,135.7 C249,136.1 248.8,136.3 248.5,136.5 C248.2,136.7 247.9,136.8 247.7,136.9 C247.4,137 247.1,137 246.9,137 L246.5,137 L242.6,136.4 L244.7,129.9 L247.2,128.7 L253.6,129.8 C253.6,129.8 253.6,129.8 253.6,129.9 C253.6,129.9 253.6,129.9 253.5,130 L253.4,130.1 L253.3,130.2 C253.2,130.3 253.1,130.3 253,130.4 C252.9,130.5 252.8,130.5 252.6,130.6 C252.5,130.7 252.3,130.7 252.1,130.7 C251.9,130.7 251.6,130.8 251.4,130.8 L250.5,130.8 C250.2,130.8 249.9,130.7 249.6,130.7 C249.3,130.7 249.1,130.6 248.9,130.6 C248.7,130.6 248.6,130.5 248.6,130.5 L248.4,130.5 L247.2,134.1 L247.4,134.1 L247.6,134.1 C247.7,134.1 247.8,134.2 248,134.2 C248.1,134.2 248.3,134.3 248.4,134.4 C248.5,134.5 248.7,134.6 248.8,134.7 C248.9,134.8 248.9,134.9 249,134.9 C249,135 249.1,135.1 249.1,135.2 L249.1,135.5 C249.1,135.5 249.1,135.6 249.1,135.7 L249.1,135.7 L249.1,135.7 Z M249.1,135.7" id="2122"/>
            <path class="unit" d="M228.7,136.5 L223.6,138.9 L217.4,130.7 L222.4,128.5 L228.7,136.5 L228.7,136.5 Z M228.7,136.5" id="2123"/>
            <path class="unit" d="M376.4,124.5 L367.3,129.2 L346.5,110.4 L350.2,108.6 L351,105.8 L353.7,104.5 L376.4,124.5 L376.4,124.5 Z M376.4,124.5" id="2124"/>
            <path class="unit" d="M162.1,137.3 L144.8,144.9 L142.4,140.9 L140.2,141.9 L139.4,140.4 L158.7,132 L162.1,137.3 L162.1,137.3 Z M162.1,137.3" id="2125"/>
            <path class="unit" d="M367,129.3 L357.7,134.1 L335.4,113.3 L336.5,112.8 L340.8,113.2 L346.2,110.5 L367,129.3 L367,129.3 Z M367,129.3" id="2126"/>
            <path class="unit" d="M176.2,146.8 L174.3,147.6 L169.2,139.6 L171,138.8 L176.2,146.8 L176.2,146.8 Z M176.2,146.8" id="2127"/>
            <path class="unit" d="M398.9,107.9 L398.8,114.8 L387.7,120.6 L399.3,130.5 L389.6,135.7 L376.9,124.6 L353.9,104.4 L375,94.1 L383.3,95.3 L398.9,107.9 L398.9,107.9 Z M398.9,107.9" id="2128"/>
            <path class="unit" d="M206.1,147 L201.6,149 L193.2,137.2 L193.9,135.6 L197,134.2 L206.1,147 L206.1,147 Z M206.1,147" id="2129"/>
            <path class="unit" d="M367.2,143.4 L361.8,146.2 L330,116 L332.1,115 L347.9,129.9 L351.1,128.3 L367.2,143.4 L367.2,143.4 Z M367.2,143.4" id="2130"/>
            <path class="unit" d="M147.1,177.5 L141.5,180.1 L138,173.5 L143.5,170.9 L147.1,177.5 L147.1,177.5 Z M147.1,177.5" id="2131"/>
            <path class="unit" d="M141.2,180.3 L133.8,183.7 L124.9,166.4 L130,164.1 L132,163.2 L141.2,180.3 L141.2,180.3 Z M141.2,180.3" id="2132"/>
            <path class="unit" d="M316.2,148.3 L306,153.5 L289.6,135.6 L299.6,130.8 L316.2,148.3 L316.2,148.3 Z M316.2,148.3" id="2133"/>
            <path class="unit" d="M181.9,155.5 L180.5,159 L170.4,163.6 L160.4,147.3 L149.1,152.3 L146.5,147.9 L144.9,145.2 L162.2,137.6 L162.9,138.6 L168.8,139.7 L174.2,148 L176.4,147 L181.9,155.5 L181.9,155.5 Z M181.9,155.5" id="2134"/>
            <path class="unit" d="M305.7,153.7 L301,156.1 L300.1,155.1 L284.7,138 L289.3,135.8 L305.7,153.7 L305.7,153.7 Z M305.7,153.7" id="2135"/>
            <path class="unit" d="M155.6,164.3 L150.3,166.8 L148.4,163.4 L147.5,163.8 L144.1,157.8 L145,157.4 L141.1,150.6 L146.3,148.3 L155.6,164.3 L155.6,164.3 Z M155.6,164.3" id="2136"/>
            <path class="unit" d="M163.3,166.6 L156,164.2 L149.2,152.6 L153.8,150.5 L163.3,166.6 L163.3,166.6 Z M163.3,166.6" id="2137"/>
            <path class="unit" d="M170.1,163.8 L163.8,166.7 L154.1,150.4 L160.2,147.7 L170.1,163.8 L170.1,163.8 Z M170.1,163.8" id="2138"/>
            <path class="unit" d="M299.6,155 L290.8,159.4 L275.9,142.3 L284.4,138.2 L299.6,155 L299.6,155 Z M299.6,155" id="2139"/>
            <path class="unit" d="M330.5,154.3 L325.1,157.2 L316.8,148.4 L299.9,130.6 L305.1,128.1 L330.5,154.3 L330.5,154.3 Z M330.5,154.3" id="2140"/>
            <path class="unit" d="M227.3,161.3 L218.8,165.3 L213.8,158.3 L222.1,154.3 L227.3,161.3 L227.3,161.3 Z M227.3,161.3" id="2141"/>
            <path class="unit" d="M361.7,146.6 L352.2,137.6 L345.4,141 L332.2,127.8 L327.9,129.9 L319.2,121.3 L315.4,123.1 L305.4,127.9 L330.8,154.2 L336.3,151.3 L344.9,160 L370.5,146.4 L367.4,143.6 L361.7,146.6 L361.7,146.6 Z M361.7,146.6" id="2142"/>
            <path class="unit" d="M150.9,168.6 L147.1,176.6 L143.7,170.5 L137.8,173.2 L132.4,163 L143.8,157.9 L147.3,164.2 L148.2,163.8 L150.9,168.6 L150.9,168.6 Z M150.9,168.6" id="2143"/>
            <path class="unit" d="M86.8,162.1 L92.6,175.4 L74.7,183.3 L71.9,176.3 L44.2,188.4 L43.2,185.4 L38.6,187.4 L37.5,183.8 L75.9,167.1 L75.8,166.9 L86.8,162.1 L86.8,162.1 Z M86.8,162.1" id="2144"/>
            <path class="unit" d="M203.1,175.2 L191.3,180.9 L192.7,183.2 L187.7,185.7 L180.5,174.1 L197.1,166.2 L203.1,175.2 L203.1,175.2 Z M203.1,175.2" id="2145"/>
            <path class="unit" d="M129.6,164 L124.5,166.3 L133.5,183.8 L115.6,192.1 L101.8,162.9 L123.9,153.2 L129.6,164 L129.6,164 Z M129.6,164" id="2146"/>
            <path class="unit" d="M197.3,190.5 L183.4,197.3 L171.9,178.1 L180.1,174.2 L187.5,186.1 L192.9,183.5 L197.3,190.5 L197.3,190.5 Z M197.3,190.5" id="2147"/>
            <path class="unit" d="M115.2,192.3 L89.9,204.1 L85,203 L76.8,182.7 L93.1,175.5 L89.9,168.2 L101.5,163.1 L115.2,192.3 L115.2,192.3 Z M115.2,192.3" id="2148"/>
            <path class="unit" d="M223.4,185.9 L201.8,196.8 L191.8,181 L203.6,175.3 L197.4,166 L206.6,161.7 L223.4,185.9 L223.4,185.9 Z M223.4,185.9" id="2149"/>
            <path class="unit" d="M183.1,197.5 L178.1,200 L167.2,181.4 L171.3,179.5 L171.7,178.5 L183.1,197.5 L183.1,197.5 Z M183.1,197.5" id="2150"/>
            <path class="unit" d="M248.9,148.9 L240.8,174.1 L246.5,181.9 L239.6,185.4 L246.1,194.5 L234.1,200.7 L206.9,161.5 L213.4,158.4 L218.7,165.7 L227.8,161.3 L222.4,154.1 L237.7,146.9 L248.9,148.9 L248.9,148.9 Z M248.9,148.9" id="2151"/>
            <path class="unit" d="M183.1,203.5 L169.3,210.4 L156.1,186.7 L166.9,181.6 L177.9,200.4 L180.5,199.2 L183.1,203.5 L183.1,203.5 Z M183.1,203.5" id="2152"/>
            <path class="unit" d="M169,210.6 L163.1,213.5 L150.7,190.6 L151.9,190 L153,188.2 L155.8,186.8 L169,210.6 L169,210.6 Z M169,210.6" id="2153"/>
            <path class="unit" d="M162.8,213.7 L146.2,221.9 L134.4,198.3 L150.3,190.7 L162.8,213.7 L162.8,213.7 Z M162.8,213.7" id="2154"/>
            <path class="unit" d="M327.2,181.5 L327,183.5 L325.6,184.2 L324.6,191.3 L326.2,193.1 L325.8,196.1 L316.8,201.1 L313,200.3 L299.2,208 L298.7,211.1 L288.4,216.8 L284.3,216.1 L283.2,214.6 L273.8,212.7 L272,213.7 L269,213.1 L260.4,201.6 L262.7,200.4 L254.9,189.9 L246.4,194.3 L240.1,185.6 L247,182 L241.2,174.1 L249.3,149 L260.7,151 L261.6,152 L273.4,146.2 L272.4,145 L272.7,143.9 L275.6,142.5 L290.8,159.8 L299.8,155.3 L315.1,172.3 L317.6,171 L327.2,181.5 L327.2,181.5 Z M327.2,181.5" id="2155"/>
            <path class="unit" d="M145.8,222.1 L129.7,230.1 L118.5,205.9 L134,198.5 L145.8,222.1 L145.8,222.1 Z M145.8,222.1" id="2156"/>
            <path class="unit" d="M129.4,230.3 L116.4,236.8 L106.4,213.9 L113.8,210.4 L115.9,207.1 L118.1,206.1 L129.4,230.3 L129.4,230.3 Z M129.4,230.3" id="2157"/>
            <path class="unit" d="M116,237 L109.6,240.2 L99.9,217 L106,214.1 L116,237 L116,237 Z M116,237" id="2158"/>
            <path class="unit" d="M109.2,240.4 L96.2,246.9 L86.9,223.2 L99.5,217.2 L109.2,240.4 L109.2,240.4 Z M109.2,240.4" id="2159"/>
            <path class="unit" d="M95.8,247.1 L55.9,267 L57.1,270.9 L39,280 L37.9,276 L24.2,282.8 L21.7,272.4 L14.5,275.9 L9.5,254.6 L16.5,251.3 L14.2,242.2 L7.4,245.4 L2.9,226.2 L9.5,223.2 L5.8,208.2 L69.7,180.1 L95.8,247.1 L95.8,247.1 Z M95.8,247.1" id="2160"/>
            <path class="unit" d="M234,60.1 L233.5,59.5 L232.6,59.9 L226.6,58.8 L225.7,61 L230,61.7 L234,60.1 L234,60.1 Z M234,60.1" id="2161"/>
            <path class="unit" d="M232.9,50.4 L231.9,52.9 L231.5,53.1 L235.7,57.4 L239.7,55.8 L234.2,49.9 L232.9,50.4 L232.9,50.4 Z M232.9,50.4" id="2162"/>
            <path class="unit" d="M263.7,48.2 L256.2,41.3 L248.8,44.2 L255.9,51.4 L263.7,48.2 L263.7,48.2 Z M263.7,48.2" id="2163"/>
            <path class="unit" d="M276,43.3 L271.2,39 L264.1,38.2 L271.2,45.2 L276,43.3 L276,43.3 Z M276,43.3" id="2164"/>
            <path class="unit" d="M281.8,46.7 L264.7,53.6 L265.9,54.8 L283.1,47.8 L281.8,46.7 L281.8,46.7 Z M281.8,46.7" id="2165"/>
            <path class="unit" d="M311.3,58 L311.3,58 L311.6,58.8 L313.8,59 L314.2,57.4 L331.6,49.9 L331.1,49.5 L311.3,58 L311.3,58 Z M311.3,58" id="2166"/>
            <path class="unit" d="M309.5,98.7 L305.3,100.6 L314.5,109.6 L318.9,107.5 L309.7,98.6 L309.5,98.7 L309.5,98.7 Z M309.5,98.7" id="2167"/>
            <path class="unit" d="M352,137.4 L329.7,116.2 L319.4,121.2 L327.9,129.7 L332.2,127.6 L345.5,140.8 L352,137.4 L352,137.4 Z M352,137.4" id="2168"/>
            <path class="unit" d="M289.8,121.3 L274.5,105.2 L272.1,106.3 L274.8,109.2 L271.9,110.5 L284.3,123.9 L289.8,121.3 L289.8,121.3 Z M289.8,121.3" id="2169"/>
            <path class="unit" d="M279,126.4 L269,115.3 L264.1,126.9 L274.3,128.6 L279,126.4 L279,126.4 Z M279,126.4" id="2170"/>
            <path class="unit" d="M228.9,94.9 L231.6,97.9 L233.3,98.2 L257.3,87.8 L254,84.3 L228.9,94.9 L228.9,94.9 Z M228.9,94.9" id="2171"/>
            <path class="unit" d="M192.4,98.1 L196.3,103.2 L212.4,96.3 L208.4,91.4 L192.4,98.1 L192.4,98.1 Z M192.4,98.1" id="2172"/>
            <path class="unit" d="M221.2,110.5 L206.7,116.7 L210,121.1 L226.9,113.6 L224.9,111.1 L221.2,110.5 L221.2,110.5 Z M221.2,110.5" id="2173"/>
            <path class="unit" d="M223.3,139 L215.7,129 L211,131.1 L218.4,141.2 L223.3,139 L223.3,139 Z M223.3,139" id="2174"/>
            <path class="unit" d="M138.7,134.4 L139.8,136.3 L137.6,137.3 L139.3,140.2 L158.6,131.8 L155.6,127.1 L138.7,134.4 L138.7,134.4 Z M138.7,134.4" id="2175"/>
            <path class="unit" d="M213.4,77.7 C213.5,78 213.5,78.3 213.3,78.6 C213.2,78.9 212.8,79.2 212.4,79.5 C212,79.8 211.5,80.1 210.9,80.3 C210.3,80.5 209.7,80.7 208.9,80.8 C208.2,80.9 207.4,81 206.7,81 C206,81.1 205.4,80.9 204.8,80.8 C204.2,80.7 203.8,80.5 203.4,80.4 C203,80.1 202.8,79.9 202.6,79.6 C202.5,79.3 202.5,79 202.7,78.6 C202.8,78.3 203.2,78 203.6,77.7 C204,77.4 204.5,77.1 205.1,76.9 C205.7,76.7 206.3,76.5 207.1,76.4 C207.9,76.3 208.6,76.2 209.2,76.1 C209.9,76 210.5,76.2 211.1,76.2 C211.6,76.3 212.1,76.5 212.5,76.6 C213,77.1 213.2,77.4 213.4,77.7 L213.4,77.7 L213.4,77.7 Z M213.4,77.7" id="2176"/>
            <path class="unit" d="M225.7,97.6 L219.7,100.2 L216.5,96.3 L222.4,93.7 L225.7,97.6 L225.7,97.6 Z M225.7,97.6" id="2177"/>
            <path class="unit" d="M316.6,73.4 L317.3,73.1 L317.2,73.1 L317.8,72.9 L317.7,72.8 C317.8,72.8 317.9,72.7 318,72.7 C318.1,72.6 318.3,72.5 318.5,72.4 C318.7,72.3 319,72.1 319.2,72 C319.4,71.9 319.7,71.7 319.9,71.6 C320.2,71.4 320.5,71.3 320.7,71.1 C321,71 321.1,70.8 321.3,70.7 L321.6,70.4 L321.7,70.3 C321.7,70.3 321.7,70.2 321.9,70.1 C322.1,70 322.2,69.8 322.4,69.6 C322.5,69.4 322.7,69.2 322.8,68.9 C322.9,68.6 323,68.3 323,67.9 C322.9,67.6 322.9,67.3 322.8,67 C322.7,66.8 322.6,66.5 322.5,66.3 C322.4,66.1 322.3,65.9 322.2,65.8 C322.1,65.7 322,65.6 322,65.5 L320.6,65.5 L320.6,65.4 C320.6,65.4 320.5,65.4 320.5,65.3 C320.5,65.3 320.4,65.1 320.3,65 C320.1,64.9 320,64.7 319.8,64.5 C319.6,64.3 319.4,64 319.1,63.8 C318.9,63.6 318.7,63.4 318.5,63.3 C318.4,63.2 318.2,63.1 318.1,63 C318,62.9 317.9,62.9 317.8,62.8 C317.7,62.7 317.6,62.7 317.6,62.7 L313.1,64.6 L313.1,64.7 L309.5,64 L308.9,66.8 L286.5,76.5 L319.1,107.5 L326.6,103.9 L326.8,101.2 L347.9,91 L340.4,84.4 L326.8,82.6 L316.6,73.4 L316.6,73.4 Z M316.6,73.4" id="2178"/>
            <path class="unit" d="M79.5,201.7 L78.2,198.4 L81.4,196.9 L82.7,200.2 L79.5,201.7 L79.5,201.7 Z M79.5,201.7" id="2179"/>
            <path class="unit" d="M183.2,75.7 L180.4,80.2 L184.6,80.9 L187.6,76.3 L183.2,75.7 Z M183.2,75.7" id="2180"/>
        </g>
    </g>
</svg>