<?xml version="1.0" encoding="utf-8"?>
<!DOCTYPE svg PUBLIC "-//W3C//DTD SVG 1.1//EN" "http://www.w3.org/Graphics/SVG/1.1/DTD/svg11.dtd">
<svg version="1.1" xmlns="http://www.w3.org/2000/svg" xmlns:xlink="http://www.w3.org/1999/xlink" xml:space="preserve">
<g class="level" id="level0">
            <g class="outline">
                <path d="M423,29.3 L339.2,1.1 C338.7,0.9 338.2,1 337.8,1.3 L305.8,26.8 L301.8,25.2 C301.3,25 300.7,25.1 300.3,25.4 L291.4,32.5 C291,32.8 290.8,33.3 290.8,33.8 L291.3,38.5 C291.4,39 291.7,39.5 292.2,39.7 L310.7,47.6 L305.2,52.2 C304.8,52.5 304.6,53 304.7,53.5 L305.1,58.3 C305.1,58.8 305.5,59.3 306,59.5 L309,60.8 L307.3,62.2 L270.2,45 C269.7,44.8 269.1,44.8 268.7,45.2 L234.6,72 C234.2,72.4 233.9,72.9 234.1,73.5 L235.1,78.1 C235.2,78.5 235.5,78.9 235.8,79.1 L262.6,94 L259.9,96.2 L252.2,91.8 C251.7,91.5 251,91.6 250.5,91.9 L233.6,105.7 C233.2,106.1 233,106.6 233.1,107.2 L234.2,111.8 C234.3,112.2 234.5,112.5 234.9,112.7 L235.8,113.2 L236.4,115.6 L234.4,117.3 L230.8,115 L229.8,111.1 C229.7,110.7 229.5,110.4 229.2,110.2 L227.6,109.2 L233.4,104.5 C233.8,104.1 234,103.6 233.9,103 L232.8,98.4 C232.7,98 232.5,97.7 232.1,97.5 L225.8,93.7 C225.3,93.4 224.6,93.4 224.1,93.8 L220.4,96.8 L205,87.3 C205.3,86.9 205.4,86.4 205.3,85.9 L204,81.4 C203.9,81 203.7,80.7 203.3,80.5 L199,77.9 L209.5,69.9 L210.2,70.3 C210.7,70.6 211.4,70.5 211.8,70.2 L222.4,62.1 C222.9,61.7 223.1,61.1 222.9,60.6 L222.8,60.3 L224.3,59.2 C224.8,58.8 225,58.3 224.8,57.7 L224.7,57.2 L246,40.9 C246.4,40.6 246.7,40 246.6,39.4 L246.2,37.1 L257.7,42.4 C258.2,42.6 258.8,42.6 259.2,42.2 L276.5,28.8 C276.9,28.5 277.1,28 277.1,27.4 L276.5,22.7 C276.4,22.2 276.1,21.7 275.6,21.5 L230,2.8 C229.5,2.6 229,2.7 228.6,3 L199.3,23.9 C199,24.1 198.7,24.5 198.7,25 L198.2,29.6 L198.2,30.1 L199.2,33.9 L195.9,32.2 C195.6,32.1 195.3,32 195,32.1 L169.3,36 C169.1,36 168.9,36.1 168.7,36.3 L164.9,39 C164.4,39.4 164.1,40.1 164.3,40.7 L165.7,45 C165.8,45.3 166.1,45.6 166.4,45.8 L169.4,47.5 L163.7,51.6 L161.7,50.4 C161.2,50.1 160.6,50.1 160.1,50.5 L144.6,61.5 C144,61.9 143.8,62.6 144.1,63.2 L145.8,67.5 C145.8,67.6 145.9,67.7 145.9,67.8 L145.3,68.2 L145,68.5 C144.9,68.5 144.8,68.6 144.7,68.7 L118,87.9 C117.4,88.3 117.2,89.1 117.5,89.7 L118.5,91.8 L117.7,92.4 L110.6,87 C110.1,86.6 109.4,86.6 108.8,87 L101.2,92.4 L96.4,88.6 C95.9,88.2 95.2,88.2 94.6,88.5 L90.2,91.6 C89.9,91.8 89.8,92 89.7,92.3 L88.7,95.2 L83.7,98.8 L83,98.8 L81.8,96.6 C81.5,96.1 80.9,95.8 80.3,95.9 L77.4,96.3 C76.9,96.4 76.4,96.7 76.2,97.3 L74.6,101.8 L70.5,102.3 L70.4,102.3 L70.3,102.3 C70.3,102.3 70.3,102.3 70.2,102.3 L62,103.4 L59.9,99.9 C59.6,99.4 59,99.1 58.4,99.2 L55,99.5 C54.5,99.6 54,99.9 53.8,100.4 L52.9,102.7 L42.4,104.1 C41.9,104.2 41.4,104.5 41.2,105 L38.2,112.5 L35.2,112.9 C34.7,113 34.2,113.3 34,113.8 L33,116.2 C32.8,116.7 32.9,117.2 33.1,117.6 L35.8,121.6 C36,121.9 36.4,122.1 36.7,122.2 L32.8,132.1 L26.9,132.8 C26.4,132.9 25.9,133.2 25.7,133.7 L24.6,136.3 C24.4,136.8 24.5,137.3 24.8,137.7 L27.7,141.6 C28,142 28.5,142.3 29.1,142.2 L32.9,141.8 L33.7,142.9 L33.8,143 L34.9,144.2 C35.2,144.5 35.6,144.7 36,144.7 L36.1,144.7 L37.2,144.6 L36.1,147.5 C35.9,148 36,148.5 36.3,148.9 L39.2,152.9 C39.5,153.3 40,153.5 40.5,153.5 L64.9,152 L76.3,164 C76.8,164.5 77.7,164.6 78.3,164.2 L82.3,161.1 C82.9,160.6 83.1,159.8 82.7,159.1 L81.3,156.8 L83.6,155.1 L91.3,162.9 C91.8,163.4 92.7,163.5 93.3,163 L130,135.1 L146.7,122.3 L147.4,122.8 C147.9,123.2 148.7,123.2 149.2,122.8 L150.4,121.9 L151.9,125.4 C152,125.6 152.2,125.8 152.4,126 L183.7,150.3 C183.4,150.3 183.1,150.4 182.9,150.6 L180.7,152.4 L180.1,150.8 C180,150.6 179.8,150.3 179.6,150.2 L174.7,146.3 C174.2,145.9 173.4,145.9 172.8,146.3 L166.5,151.4 L149.3,137.3 C148.8,136.9 148,136.9 147.4,137.3 L108.4,168 C107.8,168.5 107.7,169.3 108,169.9 L110.4,174 C110.5,174.1 110.5,174.2 110.6,174.3 L129.4,192.8 L128.9,193.1 L128.6,192.8 C128.1,192.3 127.2,192.3 126.6,192.7 L114.3,202.8 L103.6,191.4 C103.1,190.8 102.2,190.8 101.6,191.3 L73.4,213.8 C72.8,214.3 72.7,215.2 73.1,215.9 L76.1,219.9 L80.2,225 L62,239.8 L59.7,237.1 C59.2,236.5 58.3,236.4 57.6,236.9 L37.9,252.8 L34.5,249.3 C34,248.8 33.1,248.7 32.5,249.2 L19.3,259.8 C18.7,260.3 18.6,261.1 19,261.7 L21.6,265.9 L1.6,282.2 C1,282.7 0.9,283.4 1.2,284.1 L8.3,296.9 L3.5,300.8 C3,301.3 2.8,302 3.1,302.6 L13.1,321.1 C13.2,321.3 13.3,321.4 13.5,321.6 L17.7,324.8 C18.3,325.2 19,325.2 19.6,324.8 L22.5,322.4 L22.8,322.9 L17.8,327.2 C17.3,327.7 17.1,328.4 17.5,329 L28.6,349.5 C28.7,349.7 28.9,349.9 29,350 L33.2,353 C33.8,353.4 34.5,353.4 35,352.9 L38,350.2 L40,353.7 C40.1,353.9 40.3,354.1 40.4,354.2 L44.5,357.2 C44.8,357.4 45.1,357.5 45.4,357.5 C45.8,357.5 46.1,357.4 46.4,357.1 L55.8,348.7 L58.2,350.6 C58.8,351 59.6,351 60.1,350.5 L76,336.2 C76.5,335.7 76.6,334.9 76.3,334.3 L74.7,331.8 L104.3,305.2 C104.5,305 104.7,304.7 104.8,304.4 L105.7,300 L110.8,297 C110.9,297 111.1,297.1 111.2,297.1 C111.6,297.1 112,297 112.3,296.7 L113.3,295.8 C113.5,295.9 113.7,296 114,296 C114.4,296 114.8,295.9 115.1,295.6 L181.8,235.8 C182.3,235.4 182.4,234.6 182.1,234 L180.5,230.7 L190.9,221.4 L194,224.2 C194.6,224.7 195.4,224.7 196,224.2 L212.7,209.2 L226.1,220.7 C226.7,221.2 227.5,221.2 228.1,220.7 L240.6,209.1 C241,208.7 241.2,208.1 241,207.6 L239.7,203.2 C239.6,202.9 239.4,202.6 239.2,202.5 L233.7,198.1 L233.8,198 L240.1,202.9 L249.7,210.6 L250.6,214.2 C250.7,214.5 250.9,214.8 251.1,215 L262.6,224.2 C262.9,224.4 263.2,224.5 263.6,224.5 L268,224.3 C268.4,224.3 268.7,224.1 269,223.9 L271.2,221.8 C271.5,221.5 271.7,221.1 271.7,220.7 L271.6,218.2 L276.8,217.9 L277.3,220.5 C277.4,220.9 277.6,221.2 277.8,221.4 L279.4,222.6 C279.7,222.8 280,222.9 280.4,222.9 L284,222.7 C284.4,222.7 284.7,222.5 285,222.3 L316,192 C316.3,191.7 316.5,191.3 316.4,190.8 L316,186.1 L315.7,183.8 C315.6,183.4 315.4,183 315,182.8 L313.8,182 L313.6,180.3 L314,179.9 C314.3,179.6 314.5,179.2 314.4,178.7 L314,173.9 L313.7,171.7 C313.6,171.3 313.4,170.9 313,170.6 L307.5,167 L307.5,166.7 C307.5,166.2 307.2,165.8 306.8,165.6 L301,161.9 C300.4,161.5 299.7,161.6 299.2,162.1 L297.3,163.9 L283.6,155 L287.6,151.4 L288.2,151.8 C288.8,152.2 289.5,152.1 290,151.6 L293.8,148.1 L303.2,153.9 C303.8,154.3 304.5,154.2 305,153.7 L307.6,151.3 C307.9,151 308.1,150.5 308.1,150.1 L308.1,150.1 C308.6,150.2 309.1,150.1 309.4,149.7 L313.2,146.2 L323,152.1 C323.6,152.4 324.3,152.4 324.8,151.9 L346.5,131.5 C346.8,131.2 347,130.8 347,130.4 L347,125.5 C347,125 346.7,124.5 346.2,124.2 L334.7,118 L345.3,108.3 L360.8,116.1 C361.4,116.4 362,116.3 362.5,115.9 L370.6,108.2 C370.9,107.9 371,107.6 371.1,107.2 L371.4,102.1 C371.4,101.5 371.1,100.9 370.6,100.7 L353.9,92.7 L355.5,91.3 C355.6,91.5 355.9,91.7 356.1,91.8 L361.8,94.5 C362.3,94.8 363,94.7 363.4,94.2 L366.2,91.6 C366.5,91.3 366.7,91 366.7,90.6 L366.9,85.5 L366.9,85.1 L365.3,79 L368.4,80.4 C368.6,80.5 368.9,80.5 369.2,80.5 L373.2,80 L379,79.5 C379.3,79.5 379.6,79.3 379.9,79.1 L388.9,70.8 C389.2,70.5 389.3,70.2 389.4,69.8 L389.6,67.5 L396.9,60.8 L408.4,59.8 C409.1,59.7 409.7,59.2 409.7,58.5 L410.3,53.3 C410.3,53 410.3,52.7 410.2,52.5 L408.9,49.8 L422.7,37 C423,36.8 423.1,36.5 423.2,36.1 L424,30.9 C424,30.2 423.6,29.5 423,29.3 L423,29.3 Z M37.4,141.7 L36.5,141.8 L36,141.2 L34.7,139.4 C34.4,139 33.9,138.7 33.3,138.8 L29.5,139.2 L27.6,136.6 L28,135.6 L33.9,134.9 C34.4,134.8 34.9,134.5 35.1,134 L40.2,121 C40.4,120.5 40.3,120 40,119.5 C39.7,119.1 39.2,118.9 38.6,118.9 L37.5,119 L35.8,116.4 L36.2,115.5 L39.2,115.1 C39.7,115 40.2,114.7 40.4,114.2 L43.4,106.7 L53.9,105.3 C54.4,105.2 54.9,104.9 55.1,104.4 L56,102.1 L57.6,101.9 L59.2,104.6 C59.2,105 59.3,105.3 59.5,105.6 C59.8,106 60.3,106.2 60.8,106.1 L70.2,104.9 L70.3,104.9 L70.4,104.9 L70.5,104.9 L75.6,104.3 C76.2,104.2 76.6,103.9 76.8,103.3 L78.4,98.8 L79.4,98.7 L80.6,100.8 C80.9,101.3 81.5,101.6 82.1,101.6 L84.1,101.4 C84.3,101.4 84.6,101.3 84.8,101.1 L90.5,97 C90.8,96.8 90.9,96.6 91,96.3 L92,93.4 L95.1,91.2 L99.9,95 C100.4,95.4 101.1,95.4 101.7,95.1 L109.3,89.7 L116.4,95.2 C116.9,95.6 117.7,95.6 118.2,95.2 L119.3,94.4 L123,97.2 C123.5,97.6 124.2,97.6 124.8,97.2 L125.1,97 C125.5,96.7 125.7,96.3 125.7,95.8 C125.7,95.3 125.5,94.9 125.1,94.6 L121.7,92 L120.4,89.2 L145.4,71.3 C145.8,71.4 146.3,71.4 146.7,71.1 L147,70.9 L147.3,70.6 L147.6,70.8 C148.1,71.1 148.8,71.1 149.3,70.8 L150.7,69.8 C151.1,69.5 151.3,69.1 151.3,68.6 C151.3,68.1 151,67.7 150.6,67.4 L148,65.7 L146.9,63 L160.7,53.2 L162.7,54.4 C163.2,54.7 163.8,54.7 164.3,54.3 L171,49.5 L172,50 C172.5,50.3 173.1,50.3 173.6,49.9 L174.5,49.3 C174.9,49 175.1,48.5 175.1,48 C175.1,47.5 174.8,47 174.4,46.8 L168.4,43.4 L167.5,40.7 L170.1,38.9 L195,35.1 L201.7,38.5 L202.6,42.1 L202.6,42.3 L202.6,42.8 L203.5,46.1 L203.4,47.1 L179,65.1 L173.2,65.8 C172.9,65.8 172.7,65.9 172.5,66.1 L168.1,69.3 C167.8,69.5 167.6,69.9 167.5,70.3 L167.1,72.5 C167,73.1 167.3,73.7 167.8,74 L168.7,74.5 L169.9,78 L168.1,89.7 L165.3,91.8 L162,92.5 C161.8,92.5 161.6,92.6 161.4,92.8 L149.4,101.9 C149.1,102.1 148.9,102.4 148.8,102.8 L148.4,104.7 L145.2,107.1 L137,108 C136.6,107.8 136.1,107.9 135.7,108.1 L129.3,108.8 L126.6,109.1 L126.6,109.1 L124.9,107.7 C124.6,107.2 124,106.9 123.4,107 L116.5,108 C116.3,108 116,108.1 115.8,108.3 L111.6,111.4 C111.3,111.6 111.1,111.9 111.1,112.2 L109.7,117.3 L105.9,120.1 C105.6,120.3 105.4,120.6 105.3,121 L105.2,121.8 L102.8,123.5 L101.4,123.7 C101.1,123.7 100.9,123.8 100.7,124 L96.9,126.8 C96.6,127 96.4,127.3 96.4,127.6 L96.1,128.7 L94.6,129.8 L92.8,130.1 C92.6,130.1 92.3,130.2 92.1,130.4 L89.4,132.4 L75.7,133.9 L75.6,133.9 L65,135 L64.6,134.7 C64.3,134.4 63.9,134.3 63.5,134.3 L54,135.3 C53.9,135.3 53.8,135.3 53.7,135.4 L39.4,140.5 C39.3,140.5 39.1,140.6 39,140.7 L37.4,141.7 L37.4,141.7 Z M172.9,77.2 L171.4,72.8 C171.3,72.5 171.1,72.2 170.8,72 L170.3,71.7 L170.4,71.1 L174,68.4 L179.5,67.7 C179.7,67.7 179.8,67.7 179.9,67.6 L180,67.6 C180.3,67.6 180.6,67.4 180.8,67.2 L180.7,68.2 L176.7,71.2 C176.4,71.4 176.2,71.8 176.1,72.2 L175.3,77.8 L175.3,77.9 L173.6,89.6 L173.6,89.7 L172.5,97.1 L172.5,97.2 L171.7,102.7 L171.7,102.9 C171.6,102.9 171.6,103 171.5,103 L168.2,105.5 C168.1,105.6 168,105.7 167.9,105.9 L167.7,105.8 C167.4,105.6 167,105.5 166.7,105.5 L152.1,107.2 L152,107.2 L149.3,107.5 L150.6,106.5 C150.9,106.3 151.1,106 151.2,105.6 L151.6,103.7 L162.9,95.1 L166.2,94.5 C166.4,94.5 166.6,94.4 166.8,94.2 L170.4,91.5 C170.7,91.3 170.9,90.9 171,90.5 L173,77.8 C173,77.7 173,77.4 172.9,77.2 L172.9,77.2 Z M123.7,110.4 L123.1,110.5 C122.8,110.5 122.6,110.6 122.4,110.8 L118,114.1 C117.7,114.3 117.5,114.6 117.4,114.9 L116.8,117.3 L114.9,118.7 C114.8,118.7 114.8,118.8 114.7,118.8 L114.5,118.9 C114.4,118.9 114.4,119 114.3,119 L113.6,119.6 L113.1,119.7 C112.9,119.7 112.7,119.8 112.5,120 L110.8,121.3 C110.6,121.4 110.5,121.6 110.4,121.8 C110.2,121.8 110,121.9 109.8,122.1 L106.2,124.8 C106,124.9 105.9,125.1 105.8,125.3 C105.6,125.3 105.4,125.4 105.2,125.6 L101.8,128.1 C101.6,128.2 101.5,128.4 101.4,128.6 C101.2,128.6 101,128.7 100.8,128.9 L97.3,131.5 C97.1,131.6 97,131.8 96.9,132 L96.8,132 C96.6,132 96.4,132.1 96.3,132.2 L92.8,134.8 C92.5,135 92.3,135.3 92.2,135.7 L90.5,136.9 L90.4,136.8 C90.1,136.5 89.6,136.3 89.1,136.4 L88.3,136.5 L87.3,135.5 C87.2,135.4 87,135.2 86.8,135.2 L90.2,134.8 C90.5,134.8 90.7,134.7 90.9,134.5 L93.6,132.5 L95.4,132.2 C95.6,132.2 95.9,132.1 96.1,131.9 L98.3,130.3 C98.6,130.1 98.8,129.8 98.8,129.5 L99.1,128.4 L102.2,126.1 L103.6,125.9 C103.9,125.9 104.1,125.8 104.3,125.6 L107.4,123.3 C107.7,123.1 107.9,122.8 108,122.4 L108.1,121.6 L111.9,118.8 C112.2,118.6 112.4,118.3 112.4,118 L113.8,112.9 L117.3,110.4 L123.1,109.6 L123.7,110.4 L123.7,110.4 Z M63.4,137.1 L54.6,138 L54.7,138 L63.4,137.1 C63.3,137.1 63.3,137.1 63.4,137.1 L63.4,137.1 Z M420.3,35.2 L405.8,48.5 C405.3,48.9 405.2,49.6 405.5,50.2 L407.1,53.5 L406.7,57.1 L395.9,58.1 C395.6,58.1 395.3,58.3 395,58.5 L386.9,66 C386.6,66.3 386.5,66.6 386.4,67 L386.2,69.3 L378,76.9 L372.6,77.3 L368.9,77.8 L350.3,69.6 L349.9,67.9 L349.9,63.8 C350.3,63.5 350.5,63 350.4,62.5 C350.3,62 350,61.6 349.5,61.4 L346.2,60 C345.9,59.9 345.7,59.9 345.4,59.9 L343.9,60.1 L343.8,59.6 C343.7,59.1 343.4,58.7 342.9,58.5 L337.8,56.3 C337.5,56.2 337.2,56.2 336.9,56.2 L334.7,56.6 C334.4,56.6 334.2,56.8 334,56.9 L325,64.5 C324.6,64.8 324.4,65.4 324.5,65.9 L324.8,67.5 L324.9,71.6 L303.5,90 L299.4,90.5 L299,90.3 C298.5,90 297.8,90.1 297.4,90.5 L294.5,92.9 C294.1,93.2 293.9,93.7 294,94.2 L294.1,95 L294.2,98.1 L290.3,101.5 C290.3,101.5 290.2,101.5 290.2,101.6 L290.1,101.7 C289.7,102 289.5,102.5 289.6,103 C289.6,103.5 289.9,103.9 290.3,104.1 L290.5,106 C290.6,106.5 290.9,107 291.4,107.2 C291.9,107.4 292.5,107.3 292.9,106.9 L300.6,100.3 L304.2,99.9 C304.5,99.9 304.8,99.7 305,99.5 L312.8,92.7 C313.2,92.4 313.3,91.9 313.3,91.5 L313.1,88.8 L332.6,71.9 L341.2,70.9 L362.2,80.2 L363.7,85.9 L363.5,90.1 L361.8,91.6 L357.9,89.8 L357.9,88.7 C357.9,88.1 357.6,87.6 357,87.3 L355.4,86.6 C354.9,86.4 354.4,86.4 354,86.7 C353.6,87 353.3,87.4 353.3,87.9 L353.3,89.1 L349.9,92.2 C349.5,92.5 349.4,93 349.4,93.5 C349.5,94 349.8,94.4 350.2,94.6 L368,103.1 L367.8,106.6 L360.9,113.1 L345.4,105.3 C344.9,105 344.2,105.1 343.7,105.5 L330.8,117.3 C330.4,117.6 330.3,118.1 330.3,118.6 C330.4,119.1 330.6,119.5 331.1,119.7 L343.6,126.4 L343.6,129.8 L323.2,149 L313.4,143.1 C312.8,142.8 312.1,142.8 311.6,143.3 L308,147 L306.9,146.3 C306.4,146 305.8,146 305.3,146.3 C304.8,146.6 304.6,147.1 304.6,147.7 L304.8,149.8 L303.6,150.9 L294.2,145.1 C293.6,144.8 292.9,144.8 292.4,145.3 L288.6,148.8 L288,148.4 C287.4,148 286.7,148.1 286.2,148.6 L280,154.3 C279.7,154.6 279.5,155.1 279.5,155.5 C279.5,156 279.8,156.4 280.2,156.6 L296.4,167.2 C297,167.6 297.7,167.5 298.2,167 L300.1,165.2 L304.3,167.9 L304.3,168.2 C304.3,168.7 304.6,169.1 305,169.3 L310.6,172.9 L310.8,174.4 L311.1,178.4 L310.6,178.9 C310.3,179.2 310.1,179.7 310.2,180.2 L310.6,183.4 C310.7,183.8 310.9,184.2 311.3,184.5 L312.6,185.3 L312.8,186.9 L313.1,190.9 L283,220 L280.5,220.1 L279.8,219.6 L279.2,216.2 C279.1,215.5 278.4,215 277.7,215 L269.8,215.4 C269,215.4 268.4,216.1 268.4,216.9 L268.6,220.2 L267.3,221.4 L264.1,221.6 L253.4,213.1 L252.5,209.5 C252.4,209.2 252.2,208.9 252,208.7 L242,200.7 L234.7,195 C234.1,194.6 233.3,194.6 232.8,195.1 L230.5,197.2 C230.2,197.5 230,197.9 230,198.3 C230,198.7 230.2,199.1 230.6,199.4 L237.1,204.6 L238,207.7 L227.1,217.7 L213.7,206.2 C213.1,205.7 212.3,205.7 211.7,206.2 L195.1,221.1 L192,218.3 C191.4,217.8 190.6,217.8 190,218.3 L177.7,229.3 C177.4,229.6 177.2,230 177.2,230.4 C177.2,230.8 177.3,231.2 177.6,231.4 L179,234.3 L114.2,292.3 C114,292.2 113.8,292.1 113.5,292.1 C113.1,292.1 112.7,292.2 112.4,292.5 L111.5,293.3 L94.5,270.9 L96.1,266.4 L108.3,255.9 C108.6,255.9 108.9,255.7 109.1,255.6 L112.6,252.6 C112.9,252.4 113,252.1 113.1,251.7 L114.2,245.4 L142.6,221.2 L142.7,221.3 C143.2,221.9 144.1,221.9 144.7,221.4 L148.7,218 C149,217.8 149.2,217.4 149.2,217.1 L149.4,215.4 L157.7,208.3 C158,208 158.2,207.6 158.2,207.2 L158.3,204.5 L212,159 L214,158.8 L214.1,158.8 L215.8,158.7 L217.7,160.1 C218,160.3 218.3,160.4 218.7,160.4 L220.3,160.3 C220.7,160.3 221.1,160 221.4,159.7 C221.7,159.3 221.7,158.9 221.6,158.4 L220.6,154.9 L221.7,154 L223,154.9 L224.1,158.7 C224.3,159.4 225,159.8 225.7,159.8 L241.6,158.5 C241.9,158.5 242.2,158.3 242.4,158.1 L252.8,149 C253.1,148.7 253.3,148.3 253.3,147.9 L253.3,145.8 C253.3,145.6 253.2,145.3 253.1,145.1 L252.4,141.7 L288.4,110.5 C288.8,110.2 289,109.7 288.9,109.2 C288.9,108.8 288.6,108.4 288.2,108.1 L288,106.2 C287.9,105.7 287.6,105.2 287.1,105 C286.6,104.8 286,104.9 285.6,105.3 L247.7,137.9 L244.7,138.2 L242.8,136.9 C242.5,136.7 242.2,136.6 241.8,136.7 L241.1,136.8 C240.7,136.8 240.3,137.1 240,137.4 C239.8,137.7 239.7,138.2 239.8,138.6 L240.5,141.4 L239.5,142.3 L238.3,141.5 L237.5,138.4 C237.3,137.7 236.7,137.2 235.9,137.3 L229.7,137.9 L229.5,137.8 C229.2,137.6 228.9,137.5 228.5,137.5 L221.4,138.2 L205.4,127 L204.2,123.2 L204.2,121.7 C204.2,121.2 204,120.7 203.6,120.4 L198.5,116.9 C198.2,116.7 197.9,116.6 197.5,116.7 L191.6,117.3 L176.5,106.7 C176,106.3 175.3,106.3 174.7,106.7 C174.2,107.1 174,107.8 174.2,108.4 L174.7,109.8 L173.2,110.9 C172.8,111.2 172.6,111.6 172.6,112.1 C172.6,112.6 172.8,113 173.2,113.3 L182.7,120.1 L184,123.8 L184,125 C183.9,125.5 184.2,126.1 184.6,126.4 L187.5,128.5 C187.8,128.7 188.1,128.8 188.5,128.8 L194.9,128.2 L212.9,141 L214.1,144.9 L214.2,147.8 L212,149.7 C211.7,150 211.5,150.4 211.5,150.8 L211.5,152.6 L197.4,164.5 L196.4,163.7 C195.9,163.3 195.1,163.3 194.6,163.7 C194.1,164.1 193.8,164.8 194.1,165.4 L194.4,166.3 L194.4,167 L153.7,201.4 L147.5,201.9 L147.4,201.9 L144.1,202.1 C143.8,202.1 143.5,202.2 143.2,202.4 L138,206.8 C137.7,207 137.5,207.4 137.5,207.7 L136.8,212.1 L136.8,212.2 L135.7,219 L135.7,219.1 L135.3,221.4 L86.2,263.1 C85.6,263.6 85.5,264.5 86,265.1 L91.1,271.7 C91.1,272 91.2,272.2 91.4,272.5 L107,293 L108.5,294.8 L103.5,297.7 C103.1,297.9 102.9,298.3 102.8,298.7 L101.9,303.3 L71.7,330.4 C71.2,330.9 71,331.7 71.4,332.3 L73,334.8 L59,347.4 L56.6,345.5 C56,345.1 55.2,345.1 54.7,345.6 L45.3,354 L42.4,351.9 L39.7,347 C39.5,346.6 39.1,346.3 38.7,346.3 C38.3,346.2 37.8,346.4 37.5,346.7 L34,349.8 L31,347.7 L20.7,328.6 L25.7,324.3 C26.2,323.8 26.4,323.1 26,322.5 L24.2,319.3 C24,318.9 23.6,318.6 23.2,318.6 C22.8,318.5 22.3,318.6 22,318.9 L18.7,321.7 L15.7,319.4 L6.5,302.3 L11.3,298.4 C11.9,297.9 12,297.2 11.7,296.5 L4.6,283.7 L24.8,267.4 C25.4,266.9 25.5,266.1 25.1,265.5 L22.5,261.3 L33.6,252.4 L36.1,255 L36.6,255.8 C36.8,256.1 37.2,256.4 37.6,256.4 C38,256.5 38.4,256.3 38.8,256.1 L58.6,240.1 L60.9,242.8 C61.4,243.4 62.3,243.5 63,243 L83.7,226.2 C84,226 84.2,225.6 84.2,225.2 C84.2,224.8 84.1,224.4 83.9,224.1 L78.8,217.9 L76.7,215.1 L102.7,194.4 L113.4,205.8 C113.9,206.4 114.8,206.4 115.4,205.9 L127.8,195.8 L128,196 C128.5,196.5 129.2,196.5 129.8,196.2 L132.8,194.3 C133.2,194.1 133.4,193.7 133.5,193.2 C133.5,192.8 133.4,192.3 133.1,192 L113.1,172.4 L111.4,169.5 L148.3,140.6 L165.5,154.7 C166,155.1 166.8,155.1 167.4,154.7 L173.7,149.6 L177.3,152.5 L178.5,155.6 C178.7,156 179,156.4 179.5,156.5 C180,156.6 180.4,156.5 180.8,156.2 L183.7,153.8 L184,154 C184.3,154.2 184.6,154.3 185,154.3 L186.1,154.3 C186.4,154.3 186.7,154.2 187,154 L188.5,152.8 C188.8,152.5 189,152.1 189,151.6 C189,151.1 188.8,150.7 188.4,150.5 L154.4,124.1 L153.1,121.2 L153.5,120.9 C154,120.5 154.2,119.8 154,119.1 L153.6,118.2 C153.4,117.8 153.1,117.5 152.6,117.3 C152.2,117.2 151.7,117.3 151.3,117.6 L148.2,120 L147.5,119.5 C147,119.1 146.2,119.1 145.7,119.5 L138,125.4 L92.4,160.1 L84.7,152.3 C84.2,151.8 83.3,151.7 82.8,152.2 L78.4,155.5 C77.8,156 77.6,156.8 78,157.5 L79.4,159.8 L77.5,161.2 L66.6,149.6 C66.3,149.3 65.9,149.1 65.4,149.1 L41.1,150.6 L39.2,148 L39.9,146.2 L41.3,145 L45.1,144.6 C45.4,144.6 45.6,144.5 45.8,144.3 L49.6,141.6 L64.7,140.1 C65.2,140.5 65.9,140.5 66.4,140.1 L66.5,140 L68.2,139.9 C68.5,140.1 68.9,140.2 69.2,140.2 L70.5,140.1 C70.8,140.1 71,140 71.2,139.8 L71.7,139.4 L76.4,138.9 C76.7,139.3 77.2,139.5 77.7,139.4 L78,139.4 C78.5,139.4 79,139 79.2,138.5 L83.9,138 C84.2,138.3 84.6,138.5 85.1,138.5 L85.6,138.5 L86.6,139.5 C86.9,139.8 87.4,140 87.9,139.9 L88.7,139.8 L89.1,140.2 C89.6,140.7 90.4,140.7 91,140.3 L94.4,137.8 C94.7,137.6 94.9,137.3 95,136.9 L97.5,135 L98.1,134.9 C98.6,134.8 98.9,134.5 99.1,134 L99.2,133.8 L102,131.7 L102.4,131.6 C102.9,131.5 103.3,131.2 103.5,130.7 L103.6,130.4 L106.4,128.3 L106.9,128.2 C107.4,128.1 107.8,127.8 108,127.3 L108.1,127.1 L111.1,124.8 L111.4,124.8 L111.6,124.8 C112.2,124.8 112.8,124.4 113,123.8 L113.2,123.3 L113.9,122.8 L114.4,122.7 C114.6,122.7 114.9,122.5 115.1,122.4 L116.2,121.5 C116.2,121.5 116.2,121.5 116.3,121.4 L116.4,121.4 L116.5,121.4 L118.9,119.6 C119.2,119.4 119.4,119.1 119.5,118.8 L120.1,116.4 L123.8,113.7 L135.1,112.4 L135.2,112.4 L152.4,110.4 L152.5,110.4 L166.6,108.8 L169.4,110.8 C169.9,111.2 170.6,111.2 171.2,110.8 C171.7,110.4 171.9,109.7 171.7,109.1 L171.1,107.6 L172.6,106.4 L173.4,106.9 C173.9,107.3 174.6,107.3 175.2,106.9 C175.7,106.5 175.9,105.8 175.7,105.2 L174.9,103.1 L175.6,98 C175.6,98 175.6,98 175.6,97.9 L175.9,95.9 L175.9,95.7 L176.6,90.5 L176.6,90.4 L178.3,78.7 L178.3,78.6 L179,73.5 L183,70.5 C183.3,70.3 183.5,69.9 183.6,69.5 L184.1,65.6 L210.4,46.2 L216.7,45.3 C216.9,45.3 217.2,45.2 217.4,45 L220.6,42.6 C220.9,42.6 221.3,42.5 221.6,42.3 L222.4,41.7 C222.8,41.4 223,41 223,40.6 L223.1,38.4 C223.1,37.8 222.8,37.3 222.3,37 L217.9,34.8 L217.8,34.3 C217.7,33.8 217.3,33.4 216.9,33.3 C216.4,33.1 215.9,33.2 215.5,33.5 L211.3,36.5 L209.4,36.8 L202.1,33.1 L201.2,29.6 L201.6,25.9 L229.7,5.8 L273.7,24.1 L274.1,27.1 L258.1,39.4 L246.2,33.9 C245.7,33.7 245.1,33.7 244.7,34.1 L243.6,35 C243.2,35.3 242.9,35.9 243,36.5 L243.5,39.2 L222.1,55.5 C221.6,55.9 221.4,56.5 221.6,57 L221.7,57.5 L220.2,58.6 C219.7,59 219.5,59.6 219.7,60.1 L219.8,60.4 L210.8,67.3 L210.1,66.9 C209.6,66.6 208.9,66.7 208.5,67 L197.4,75.5 C197,75.4 196.5,75.5 196.2,75.8 L195.1,76.6 C194.7,76.9 194.5,77.4 194.5,77.9 C194.5,78.4 194.8,78.8 195.2,79.1 L201.3,82.8 L202.2,85.8 L201.5,86.3 C201.1,86.6 200.9,87.1 200.9,87.6 C200.9,88.1 201.2,88.5 201.6,88.8 L219.7,100 C220.2,100.3 220.9,100.3 221.4,99.9 L225.1,96.9 L230,99.9 L230.7,103 L224,108.5 C223.6,108.8 223.4,109.3 223.5,109.7 C223.5,110.2 223.8,110.6 224.2,110.9 L227.1,112.7 L228.1,116.6 C228.2,117 228.4,117.3 228.7,117.5 L233.7,120.7 C234.2,121 234.9,121 235.4,120.6 L239.2,117.5 C239.6,117.2 239.8,116.7 239.7,116.3 C239.7,115.9 239.5,115.5 239.2,115.3 L238.5,112.4 C238.4,112 238.2,111.7 237.8,111.5 L236.9,111 L236.2,107.9 L251.6,95.3 L259.3,99.7 C259.8,100 260.5,99.9 261,99.6 L264.4,96.8 L267.6,98.6 C268.1,98.9 268.8,98.8 269.3,98.4 L270.3,97.6 C270.7,97.3 270.9,96.8 270.8,96.3 C270.7,95.8 270.5,95.4 270,95.1 L237.8,77.2 L237.1,74.2 L269.6,48.7 L306.7,65.9 C307.2,66.1 307.8,66.1 308.3,65.7 L312.5,62.2 C312.9,61.9 313.1,61.4 313,60.9 C312.9,60.4 312.6,60 312.1,59.7 L307.8,57.7 L307.6,54.5 L314.4,48.9 C314.8,48.6 315,48.1 314.9,47.5 C314.8,47 314.5,46.6 314,46.3 L294.1,37.7 L293.8,34.6 L301.4,28.6 L305.4,30.2 C305.9,30.4 306.5,30.3 306.9,30 L338.9,4.5 L420.7,32.1 L420.3,35.2 L420.3,35.2 Z M346.9,68.2 L347.4,70.3 L342,67.9 C341.8,67.8 341.5,67.7 341.2,67.8 L331.7,69 C331.4,69 331.1,69.2 330.9,69.3 L328,71.8 L327.8,67.1 L327.8,66.9 L327.6,66 L335.6,59.2 L337,59 L340.9,60.7 L341.1,61.8 C341.3,62.6 342,63.1 342.8,63 L345.3,62.6 L346.8,63.3 L346.8,67.9 C346.9,68 346.9,68.1 346.9,68.2 L346.9,68.2 Z M297,94.7 L297,94.6 L298.5,93.3 C298.8,93.4 299,93.5 299.3,93.4 L304.3,92.8 C304.6,92.8 304.9,92.6 305.1,92.5 L310.1,88.2 L310.3,90.8 L303.4,96.8 L299.8,97.2 C299.5,97.2 299.2,97.4 299,97.6 L297.1,99.2 C297.2,99 297.2,98.8 297.2,98.6 L297,94.7 L297,94.7 Z M93.7,264.6 C93.5,264.8 93.4,265 93.3,265.2 L92.2,268.2 L89.3,264.3 L111.1,245.8 L110.2,250.8 L107.7,252.9 C107.4,252.9 107.1,253.1 106.9,253.2 L93.7,264.6 L93.7,264.6 Z M138.4,221.1 L138.6,219.7 L138.6,219.6 L139.7,212.8 L139.7,212.7 L140.3,208.7 L144.7,205 L147.4,204.8 L147.5,204.8 L154.3,204.3 C154.6,204.3 154.9,204.2 155.1,204 L155.2,203.9 L155.2,204.2 L155.1,206.9 L146.9,213.9 C146.6,214.1 146.4,214.5 146.4,214.8 L146.2,216.5 L143.7,218.6 L143.6,218.5 C143.1,217.9 142.2,217.9 141.6,218.4 L138.4,221.1 L138.4,221.1 Z M214.5,151.4 L216.7,149.5 C217.1,149.2 217.2,148.8 217.2,148.3 L217,144.5 C217,144.4 217,144.3 216.9,144.1 L215.5,139.6 C215.4,139.3 215.2,139 214.9,138.8 L196,125.4 C195.7,125.2 195.4,125.1 195,125.1 L188.6,125.7 L186.9,124.5 L187,123.9 C187,123.7 187,123.4 186.9,123.2 L185.3,118.8 C185.2,118.5 185,118.3 184.8,118.1 L176.5,112.2 L177.3,111.6 L177.6,111.3 L190.2,120.1 C190.5,120.3 190.8,120.4 191.2,120.4 L197.1,119.8 L201,122.5 L201,123.4 C201,123.6 201,123.7 201.1,123.9 L202.5,128.4 C202.6,128.7 202.8,129 203.1,129.2 L220.1,141.1 C220.4,141.3 220.7,141.4 221.1,141.4 L228.2,140.7 L228.4,140.8 C228.7,141 229,141.1 229.4,141.1 L234.8,140.6 L235.4,143 C235.5,143.4 235.7,143.7 236,143.9 L238.6,145.7 C239.2,146.1 239.9,146 240.4,145.6 L243,143.4 C243.4,143 243.6,142.5 243.5,141.9 L243.3,141.3 L243.4,141.3 C243.7,141.5 244,141.6 244.4,141.5 L248.4,141.1 C248.7,141.1 249,140.9 249.2,140.7 L249.5,140.4 C249.2,140.7 249.1,141.2 249.2,141.7 L250.2,146.3 C250.2,146.4 250.2,146.4 250.3,146.5 L250.3,147.4 L240.7,155.7 L226.4,156.9 L225.5,153.7 C225.4,153.4 225.2,153.1 224.9,152.9 L222.3,151 C222,150.8 221.7,150.7 221.4,150.7 C221.1,150.7 220.7,150.8 220.4,151.1 L217.7,153.4 C217.3,153.8 217.1,154.4 217.2,155 L217.8,156.9 L216.9,156.2 C216.6,156 216.3,155.9 215.9,155.9 L213.5,156.1 L213.4,156.1 L211.4,156.3 L213.8,154.3 C214.1,154 214.3,153.6 214.3,153.2 L214.5,151.4 L214.5,151.4 Z M205.5,41.5 L204.5,37.6 L208.4,39.6 C208.7,39.7 209,39.8 209.3,39.7 L212,39.3 C212.2,39.3 212.5,39.2 212.7,39 L215.6,36.9 C215.7,37 215.8,37 215.9,37.1 L220,39.1 L220,39.3 C219.8,39.3 219.6,39.4 219.4,39.6 L215.9,42.2 L209.6,43.1 C209.4,43.1 209.1,43.2 208.9,43.4 L206.3,45.3 L205.5,42.1 L205.5,41.9 L205.5,41.8 C205.6,41.8 205.6,41.6 205.5,41.5 L205.5,41.5 Z M205.5,41.5" class="outline"/>
            </g>
            <g class="label">
                <path d="M83.3,42.9 C83,42.5 82.7,42.2 82.3,41.9 C83.7,41.4 84.7,40.4 84.7,38.9 C84.7,37 83.4,35.7 80.5,35.7 C79.4,35.7 78.6,35.8 78.1,36 C77.7,36.1 77.6,36.4 77.6,36.8 L77.6,46.5 C77.6,46.9 77.9,47.1 78.2,47.1 C78.6,47.1 78.8,46.9 78.8,46.5 L78.8,42.3 L80,42.3 C81.2,42.3 81.6,42.8 82.2,43.7 C82.6,44.3 83,45.3 83.5,46.7 C83.6,47 83.8,47.1 84.1,47.1 C84.4,47.1 84.7,46.9 84.7,46.5 C84.7,46.4 84.7,46.2 84.6,46.1 C84.3,44.8 83.8,43.6 83.3,42.9 L83.3,42.9 L83.3,42.9 Z M80.3,41 L78.9,41 L78.9,37 C79.3,36.9 79.8,36.9 80.5,36.9 C82.8,36.9 83.5,37.8 83.5,39 C83.4,40.6 81.9,41.1 80.3,41 L80.3,41 L80.3,41 Z M35.7,35.7 C35.4,35.7 35.2,36 35.1,36.3 C34.7,39.4 34.1,42.4 33.3,45.5 L33.3,45.5 C32.4,42.7 31.7,39.3 31,37 C30.7,36 30.4,35.7 29.9,35.7 C29.5,35.7 29.1,36 28.9,36.9 C28.2,39.2 27.3,42.9 26.5,45.5 L26.5,45.5 C25.7,42.4 25.3,39.4 24.9,36.3 C24.8,35.9 24.6,35.7 24.2,35.7 C23.8,35.7 23.6,36 23.6,36.3 L23.6,36.7 C24,39.8 24.6,43 25.3,45.7 C25.5,46.7 25.9,47 26.4,47 C26.9,47 27.2,46.7 27.5,45.9 C28.4,43.4 29,40.7 29.9,37.5 L29.9,37.5 C30.9,40.7 31.4,43.4 32.2,45.9 C32.5,46.8 32.8,47 33.3,47 C33.8,47 34.1,46.7 34.3,45.9 C35.1,42.9 35.7,39.8 36.2,36.6 L36.2,36.2 C36.3,36 36.1,35.7 35.7,35.7 L35.7,35.7 L35.7,35.7 Z M17.7,35.7 C14.8,35.7 13,38 13,41.6 C13,45 14.8,47.1 17.7,47.1 C20.6,47.1 22.4,44.7 22.4,41.1 C22.4,37.8 20.6,35.7 17.7,35.7 L17.7,35.7 L17.7,35.7 Z M17.7,45.9 C15.6,45.9 14.3,44.2 14.3,41.6 C14.3,38.6 15.5,36.8 17.7,36.8 C19.9,36.8 21.1,38.5 21.1,41 C21.1,44.1 19.8,45.9 17.7,45.9 L17.7,45.9 L17.7,45.9 Z M89.9,40.6 C88.5,40.1 87.7,39.7 87.7,38.5 C87.7,37.4 88.6,36.8 89.7,36.8 C90.4,36.8 90.9,36.9 91.4,37.1 C91.6,37.1 91.7,37.2 91.9,37.2 C92.2,37.2 92.5,37 92.5,36.6 C92.5,36.4 92.4,36.2 92,36 C91.5,35.8 90.6,35.6 89.9,35.6 C87.7,35.6 86.4,36.9 86.4,38.6 C86.4,40.2 87.5,41 89.1,41.6 C91.2,42.4 91.8,43 91.8,44 C91.8,45.1 90.9,45.9 89.5,45.9 C88.6,45.9 87.8,45.6 87.3,45.2 C87,45.1 86.8,45 86.6,45 C86.3,45 86,45.2 86,45.5 C86,45.8 86.1,46 86.4,46.1 C87.1,46.6 88.2,47.1 89.4,47.1 C91.6,47.1 93,45.8 93,44 C93,42.3 91.8,41.3 89.9,40.6 L89.9,40.6 L89.9,40.6 Z M6.4,35.7 C5.8,35.7 4.8,35.7 4.2,35.9 C3.8,36 3.6,36.3 3.6,36.7 L3.6,46.2 C3.6,46.6 3.7,46.9 4.3,47 C4.8,47.1 5.5,47.2 6.5,47.2 C10,47.2 11.6,44.7 11.6,41.5 C11.7,38.1 10.1,35.7 6.4,35.7 L6.4,35.7 L6.4,35.7 Z M6.6,45.9 C5.9,45.9 5.4,45.9 4.9,45.8 L4.9,36.9 C5.4,36.8 6,36.8 6.5,36.8 C9.4,36.8 10.5,38.7 10.5,41.2 C10.4,44.1 9.3,45.9 6.6,45.9 L6.6,45.9 L6.6,45.9 Z M63.8,36.4 C63.8,36.1 63.6,35.8 63.2,35.8 L56.3,35.8 C55.9,35.8 55.7,36.1 55.7,36.4 C55.7,36.7 55.9,37 56.3,37 L59.1,37 L59.1,46.4 C59.1,46.8 59.4,47 59.7,47 C60,47 60.3,46.8 60.3,46.4 L60.3,37 L63.2,37 C63.6,37 63.8,36.7 63.8,36.4 L63.8,36.4 L63.8,36.4 Z M69.4,37.2 C68.8,36 68.3,35.6 67.7,35.6 C67.1,35.6 66.6,36 66,37.2 C65.1,39 64.4,41.3 63.2,45.9 C63.1,46.1 63.1,46.3 63.1,46.4 C63.1,46.8 63.4,47 63.7,47 C64,47 64.2,46.8 64.3,46.5 C64.6,45.1 64.9,43.9 65.2,42.8 L70.1,42.8 C70.4,43.9 70.7,45.1 71,46.5 C71.1,46.8 71.3,47 71.6,47 C72,47 72.2,46.8 72.2,46.4 C72.2,46.3 72.2,46.1 72.1,45.9 C71.1,41.3 70.3,39 69.4,37.2 L69.4,37.2 L69.4,37.2 Z M65.6,41.7 C66.3,39.3 67,37.7 67.5,36.9 C67.5,36.8 67.6,36.8 67.7,36.8 C67.8,36.8 67.9,36.9 67.9,36.9 C68.4,37.7 69.1,39.2 69.8,41.7 L65.6,41.7 L65.6,41.7 Z M46,35.7 C45.6,35.7 45.4,36 45.4,36.4 L45.4,45 L39.8,36.3 C39.6,36 39.3,35.8 39,35.8 C38.5,35.8 38.2,36.1 38.2,36.7 L38.2,46.5 C38.2,46.9 38.5,47.1 38.8,47.1 C39.2,47.1 39.4,46.9 39.4,46.5 L39.4,37.8 L44.9,46.6 C45.1,46.9 45.4,47.1 45.7,47.1 C46.2,47.1 46.5,46.7 46.5,46.3 L46.5,36.5 C46.6,36 46.3,35.7 46,35.7 L46,35.7 L46,35.7 Z M74.6,35.7 C74.2,35.7 74,36 74,36.4 L74,46.4 C74,46.8 74.3,47 74.6,47 C75,47 75.2,46.8 75.2,46.4 L75.2,36.4 C75.2,36 75,35.7 74.6,35.7 L74.6,35.7 L74.6,35.7 Z M52.1,40.6 C50.7,40.1 49.9,39.7 49.9,38.5 C49.9,37.4 50.8,36.8 51.9,36.8 C52.6,36.8 53.1,36.9 53.6,37.1 C53.8,37.1 53.9,37.2 54.1,37.2 C54.4,37.2 54.7,37 54.7,36.6 C54.7,36.4 54.6,36.2 54.2,36 C53.7,35.8 52.8,35.6 52.1,35.6 C49.9,35.6 48.6,36.9 48.6,38.6 C48.6,40.2 49.7,41 51.3,41.6 C53.4,42.4 54,43 54,44 C54,45.1 53.1,45.9 51.7,45.9 C50.8,45.9 50,45.6 49.5,45.2 C49.2,45.1 49,45 48.8,45 C48.5,45 48.2,45.2 48.2,45.5 C48.2,45.8 48.3,46 48.6,46.1 C49.3,46.6 50.4,47.1 51.6,47.1 C53.8,47.1 55.2,45.8 55.2,44 C55.2,42.3 54,41.3 52.1,40.6 L52.1,40.6 L52.1,40.6 Z M52.1,40.6" class="Shape"/>
            </g>
            <g class="background">
                <path d="M360.3,51.6 L329.9,44.4 L296.8,76.8 L254.5,108.4 L228.6,129.9 L185.9,106 L186.9,82.7 L202.6,65.7 L225.1,46.3 L231.3,33 L218.9,25.9 L214.2,24.8 L183.3,48.9 L160.5,71.7 L157.2,93.2 L154.5,91.3 L101.7,104.2 L43.7,124.1 L36.9,134.3 L37,141.7 L41.2,146.8 L82.8,143.5 L112.6,135.7 L145.3,116.2 L160.7,110.7 L164.6,111 L162.2,112.7 L212.4,143.3 L200.3,153.6 L126.7,196 L106.9,222.1 L68.3,252 L58.4,264.7 L96,298.7 L101.2,301.2 L117,291.2 L155.7,243.4 L200.7,206.2 L260.5,168 L260.4,167.8 L263,169.6 L331.9,91.5 L362,77.8 L360.3,51.6 Z M360.3,51.6" class="walkway"/>
                <path d="M33.6,140.3 L34.9,142.1 L36,143.3 L38,143.1 L40,141.6 L54.3,136.5 L63.8,135.5 L64.5,136.1 L64.6,136.3 L64.7,136.3 L64.8,136.4 L64.9,136.3 L75.9,135.1 L90,133.6 L90.1,133.6 L91.6,132.5 L91.9,132.3 L93.2,131.3 L95.3,131 L97.5,129.4 L98,127.8 L101.8,125 L103.6,124.8 L106.7,122.5 L107,121.2 L111.2,118.1 L112.8,112.6 L117,109.5 L123.9,108.5 L124,108.7 L126,110.3 L126.2,110.7 L126.5,110.7 L126.5,110.6 L126.7,110.7 L129.9,110.3 L137,109.6 L136.9,109.5 L137.1,109.6 L137.4,109.6 L146.2,108.6 L150.2,105.6 L150.7,103.1 L162.7,94 L162.8,94 L166.3,93.3 L169.9,90.6 L170.2,88.5 L171.8,77.9 L170.3,73.5 L169,72.7 L169.4,70.5 L173.8,67.3 L179.9,66.6 L180,66.6 L180.1,66.6 L180.4,66.6 L180.4,66.5 L187.6,61.2 L195.6,55.3 L205.4,48.1 L205.6,46.2 L204.7,42.7 L204.7,42.3 L203.5,37.9 L197.8,35 L195.7,33.9 L170,37.8 L166.2,40.5 L167.6,44.8 L174.1,48.5 L173.2,49.1 L171.8,48.3 L164.4,53.6 L161.6,51.9 L153.8,57.4 L146.1,62.9 L147.8,67.2 L150.8,69.1 L149.4,70.1 L147.7,69 L146.8,69.6 L147,70.2 L146.7,70.4 L146.2,70 L119.5,89.2 L121.5,93.4 L125.2,96.2 L124.9,96.4 L120.4,92.9 L118.4,94.4 L110.4,88.3 L101.9,94.4 L96.3,89.9 L91.9,93 L90.8,96.3 L85.1,100.4 L83.1,100.6 L81.4,97.6 L78.5,98 L76.6,103.3 L71.5,103.9 L71.4,103.9 L71.3,103.9 L61.9,105.1 L62,104.8 L59.6,100.8 L56.2,101.2 L55,104.3 L43.6,105.8 L40.3,114.1 L36.4,114.6 L35.4,117 L38.1,121 L40.1,120.8 L35,133.8 L28.2,134.6 L27.1,137.2 L30,141.1 L33.6,140.3 L33.6,140.3 Z M164.2,88.5 L160.8,89.2 L156.9,86.6 L157.9,80.4 L167,86.4 L164.2,88.5 L164.2,88.5 Z M156.5,74.9 L156.3,75 L156.5,74.9 L159.7,72.5 L166.4,71.2 L159.7,72.5 L156.5,74.9 L156.5,74.9 Z M169.2,76.5 L168.1,83.4 L159.8,78 L161.3,76.9 L167.8,75.7 L169.2,76.5 L169.2,76.5 Z M167.2,66 L157.6,60.1 L167.2,66 L167.2,66 Z M185.8,56.1 L177.7,51.5 L178.6,50.8 L179.2,51.1 L183,48.3 L190.5,52.5 L185.8,56.1 L185.8,56.1 Z M185.6,56.3 L177.5,51.7 L185.6,56.3 L185.6,56.3 Z M177.9,46.9 L181.3,44.4 L177.9,46.9 L177.9,46.9 Z M198.5,39.2 L202.6,41.3 L203.2,43.4 L193.7,50.3 L186.2,46.2 L190.4,43.2 L191.9,44 L198.5,39.2 L198.5,39.2 Z M191.4,38.8 L190.5,39.4 L189.8,39 L191.4,38.8 L191.4,38.8 Z M170.3,42.4 L171,41.9 L188.1,39.3 L181.8,43.9 L181.6,44.1 L177.9,46.7 L177.3,46.4 L170.3,42.4 L170.3,42.4 Z M173,49.1 L173,49.1 L172.8,49 L173,49.1 L173,49.1 Z M172.7,52.5 L173.9,53.2 L182.8,58.3 L178.2,61.7 L168.1,55.7 L172.7,52.5 L172.7,52.5 Z M162.5,56.1 L165.2,57.7 L173.1,62.4 L172,62.5 L167.5,65.8 L157.5,59.7 L162.5,56.1 L162.5,56.1 Z M154.7,61.6 L166.7,69.1 L166.4,70.7 L166.2,71.2 L159.6,72.5 L156.3,74.9 L152.8,72.6 L154.4,71.4 L152.8,67.1 L149.8,65.2 L154.7,61.6 L154.7,61.6 Z M156.2,75 L152.6,72.7 L156.2,75 L156.2,75 Z M149.9,65.4 L152.5,67.1 L149.9,65.4 L149.9,65.4 Z M149,70.3 L149,70.3 L148.8,70.2 L149,70.3 L149,70.3 Z M123,91.8 L147.2,74.3 L147.7,74.7 L148.8,73.9 L148.6,73.3 L148.7,73.2 L150.2,74.2 L155.8,77.9 L154.6,85.3 L156.3,89.6 L158.4,91 L148.3,98.5 L147.8,101 L144,103.9 L135,104.9 L131.7,102.4 L129,102.8 L124.7,105.9 L125.4,102.8 L130,102.3 L130.5,100.2 L128.6,95.9 L123,91.8 L123,91.8 Z M75,125.8 L73.4,130.8 L66.4,131.5 L67.3,128.8 L71.3,125.9 L75.1,125.4 L75,125.8 L75,125.8 Z M87.6,129.2 L77.6,130.3 L79.3,125 L83.4,124.5 L84,125.5 L87.8,129.1 L87.6,129.2 L87.6,129.2 Z M72.8,107.9 L78.1,107.3 L79.8,102.5 L81.2,105 L86.4,104.4 L92.3,100.2 L93.4,96.9 L97.5,94 L103.1,98.6 L111.5,92.6 L119.4,98.8 L121.4,97.3 L123,98.5 L121.6,104.2 L114.5,105 L110.1,108.2 L108.5,113.7 L104.4,116.7 L103.1,115.6 L97.7,119.6 L98.5,121 L95.3,123.4 L94,122.3 L88.9,125.9 L89.8,127.5 L89,128.1 L84.5,124 L88.4,111.4 L86.1,107.3 L72.2,109 L72.8,107.9 L72.8,107.9 Z M36.9,137.6 L43.8,119.7 L42.3,117.4 L45.3,109.7 L56.6,108.3 L57.1,106.9 L58.8,109.7 L68.5,108.5 L68.1,109.7 L70.5,113.8 L84.5,112.1 L81.9,120.1 L75.4,120.9 L68.6,121.7 L64.4,124.7 L61.9,131.9 L61.2,131.3 L51.5,132.3 L37,137.5 L35.2,138.8 L34.5,137.9 L36.9,137.6 L36.9,137.6 Z M422.5,30.7 L338.8,2.5 L306.1,28.5 L301.3,26.6 L292.4,33.7 L292.9,38.4 L313.6,47.3 L306.2,53.4 L306.6,58.2 L311.7,60.5 L307.7,63.8 L307.5,64 L302.6,61.7 L269.5,46.4 L235.6,73.1 L236.6,77.7 L269.4,95.9 L268.4,96.7 L264.3,94.4 L260.1,97.9 L251.5,93 L236.6,105.2 L236.4,105.4 L234.7,106.8 L235.8,111.4 L237.2,112.3 L238,115.8 L238.3,116 L236.7,117.4 L235.5,118.4 L234.5,119.2 L232.4,117.9 L229.4,116 L228.3,111.5 L226.8,110.6 L224.9,109.4 L232.3,103.4 L231.2,98.8 L224.9,95 L220.4,98.6 L212.6,93.8 L209,91.6 L203.5,88.2 L202.3,87.5 L203.8,86.4 L202.5,81.9 L198.6,79.5 L195.9,77.9 L197,77.1 L197.5,77.4 L201.6,74.3 L205.6,71.3 L209.4,68.4 L211,69.3 L215.2,66.1 L218.7,63.4 L221.5,61.2 L221.2,60 L223.4,58.3 L223.1,56.8 L223.9,56.2 L231.1,50.7 L245.3,39.9 L244.6,36.3 L245.7,35.4 L258.4,41.3 L275.7,27.9 L275.1,23.2 L232.6,5.5 L229.5,4.2 L222.3,9.4 L217.2,13.1 L217,13.2 L204.4,22 L204.2,22.1 L200.1,25 L199.6,29.6 L200.8,34 L201.7,34.4 L201.9,34.5 L209.1,38.2 L211.8,37.8 L216.2,34.5 L216.5,35.7 L221.5,38.2 L221.4,40.4 L220.6,41 L220.2,40.8 L216.4,43.7 L212.3,44.3 L209.8,44.7 L208,46 L207.8,46.2 L202.4,50.2 L202.2,50.4 L198.7,53 L198.5,53.2 L194.7,56 L194.5,56.2 L190.7,59 L190.5,59.2 L186.6,62.1 L183,64.8 L182.9,64.7 L182.9,64.9 L182.8,64.9 L182.8,65 L182.2,69.3 L177.7,72.6 L176.9,78.3 L176.3,82.2 L175.9,85.2 L175.2,90.1 L174.4,95.5 L174.1,97.6 L173.3,103.1 L174.2,105.5 L172.6,104.4 L169.3,106.9 L169.9,107.3 L169.3,106.9 L170.3,109.5 L168.2,108 L167,107.2 L158,108.2 L152.4,108.8 L139.1,110.3 L138.8,110.3 L135.1,110.7 L130.9,111.2 L130.8,111.2 L126.9,111.6 L126.6,111.6 L123.3,112 L118.9,115.3 L118.2,118.2 L115.8,120 L115.7,120.1 L115.6,120.2 L114.5,121.1 L113.6,121.3 L111.9,122.6 L111.7,123.2 L110.9,123.3 L107.3,126 L107.1,126.6 L106.3,126.7 L102.9,129.2 L102.6,129.9 L101.8,130 L98.3,132.6 L98.1,133.2 L97.3,133.4 L93.8,136 L94,136.3 L90.6,138.8 L89.6,137.9 L88.1,138.2 L86.6,136.7 L85.4,136.8 L85.1,136.2 L78.6,136.9 L78.4,137.6 L78.1,137.6 L77.7,137 L71.7,137.6 L70.9,138.2 L69.6,138.3 L69.2,138 L66.5,138.2 L66,138.5 L65.6,138.2 L49,140.1 L44.9,143.1 L40.7,143.5 L38.6,145.2 L37.4,148.1 L40.3,152.1 L65.4,150.5 L67.9,153.1 L68,153.3 L69.2,154.6 L69.3,154.8 L77.2,163.2 L81.2,160.1 L79,156.7 L83.4,153.4 L92,162.1 L128.7,134.2 L128.8,134.1 L128.9,134 L129.5,133.5 L134.2,129.9 L138.5,126.6 L146.2,120.7 L147.8,121.9 L151.8,118.8 L152.2,119.7 L150.9,120.7 L152.8,125 L160.4,130.9 L160.6,131 L162.9,132.8 L166.5,135.6 L166.7,135.8 L170.9,139.1 L171.1,139.3 L175.9,143.1 L182.4,148.2 L182.6,148.4 L187,151.8 L185.5,153 L184.4,153 L183.2,152 L179.4,155.1 L178,151.6 L173.1,147.7 L165.8,153.6 L160.7,149.5 L147.7,138.8 L108.8,169.2 L111.2,173.3 L134.6,196.5 L131.9,198.7 L127.1,193.8 L123.2,197 L122.9,197.2 L117,202 L113.6,204.8 L107.9,198.7 L101.9,192.3 L83.5,207 L83.2,207.2 L73.7,214.8 L76.7,218.7 L81.8,224.9 L72.1,232.8 L71.8,233.1 L66.5,237.4 L66.2,237.7 L61.2,241.8 L58,238 L37.7,255 L37,254 L33.5,250.3 L20.3,260.9 L23.6,266.3 L2.5,283.3 L10.2,297.2 L4.5,301.9 L14.5,320.4 L18.7,323.6 L22.9,320 L24.7,323.2 L18.7,328.3 L29.8,348.8 L34,351.8 L38.4,347.9 L41.3,353 L45.4,356 L55.7,346.8 L59.1,349.4 L75,335.1 L72.7,331.5 L103.3,304.1 L104.3,299 L81.9,268.8 L87.3,264.2 L93,259.4 L103.4,250.6 L113.3,242.2 L129,228.9 L132.6,225.8 L134.5,224.2 L136.8,222.3 L137.3,219.5 L138.4,212.6 L139.1,208.1 L144.3,203.7 L147.6,203.5 L148,203.5 L153.8,203 L154.5,202.9 L160.2,198.1 L172.8,187.5 L183,178.9 L193.6,170 L196.2,167.8 L196.2,166.2 L195.8,165.1 L197.7,166.6 L202.2,162.8 L207,158.7 L213.3,153.4 L213.3,150.9 L216.1,148.6 L215.9,144.8 L214.5,140.3 L212.1,138.6 L205.6,134 L199.3,129.5 L195.7,126.9 L188.8,127.5 L185.9,125.4 L186.1,123.9 L184.5,119.5 L182.6,118.2 L178.9,115.5 L176.3,113.6 L174.6,112.4 L176.9,110.6 L176,108.2 L181,111.7 L186.1,115.3 L186.3,115.4 L189.6,117.7 L189.8,117.8 L191.6,119.1 L198.1,118.4 L200.9,120.3 L203.1,121.8 L203,123.6 L204.4,128.1 L208.5,131 L212.9,134.1 L216.6,136.7 L216.8,136.9 L219.9,139 L220.1,139.2 L221.3,140 L228.9,139.3 L229.5,139.7 L230.9,139.6 L236.2,139.1 L237.1,142.7 L239.7,144.5 L242.3,142.3 L241.4,138.6 L242.1,138.5 L244.4,140.1 L248.4,139.7 L257.8,131.6 L262,128 L266.4,124.2 L270.6,120.6 L278.8,113.5 L283,109.9 L286.5,106.9 L286.8,109.6 L287.4,109.9 L272.3,123 L268,126.7 L263.7,130.4 L261,132.7 L260.7,132.9 L250.6,141.6 L251.6,146.2 L251.7,146.3 L251.7,146.5 L251.7,148.3 L247.8,151.7 L247.4,152 L241.2,157.4 L225.2,158.8 L224,154.5 L221.4,152.6 L218.7,154.9 L220,159.3 L218.4,159.4 L216.1,157.7 L214.2,157.9 L213.7,157.9 L211.2,158.1 L207.7,161.1 L207.4,161.3 L203.8,164.4 L203.6,164.6 L194.2,172.6 L184.5,180.8 L184.2,181 L176.8,187.3 L176.5,187.5 L171.1,192.1 L170.8,192.3 L166.2,196.2 L161.9,199.8 L161.6,200 L156.6,204.3 L156.5,207.6 L152.4,211 L152.1,211.3 L147.7,215 L147.4,217.3 L143.4,220.7 L142.3,219.6 L138.3,223 L138,223.3 L126.7,232.9 L126.4,233.2 L113,244.7 L112.8,244.5 L112.7,244.9 L112.6,245 L112.7,245.1 L111.5,251.7 L108,254.7 L107.8,254.5 L101.2,260.2 L100.9,260.5 L94.7,265.8 L92.6,271.6 L108.1,292 L111.1,295.6 L113.1,293.8 L113.8,294.6 L122.1,287.2 L129.2,280.9 L136.8,274.1 L151.2,261.2 L163,250.6 L167,247 L177.5,237.6 L180.5,234.9 L178.5,230.8 L178.4,230.7 L185.4,224.5 L190.3,220.1 L190.7,219.8 L194.8,223.5 L204.9,214.4 L212.4,207.6 L226.8,219.9 L239.3,208.3 L238,203.9 L231.1,198.4 L233.4,196.3 L240.7,202 L250.7,210 L251.8,214.1 L263.3,223.3 L267.7,223.1 L269.9,221 L269.7,217 L277.6,216.6 L278.3,220.5 L279.9,221.7 L283.5,221.5 L314.5,191.2 L314.1,186.5 L313.8,184.2 L312,183 L311.6,179.8 L312.6,178.9 L312.2,174.2 L311.9,172 L305.8,168 L305.7,167 L299.9,163.3 L297.1,165.9 L280.9,155.3 L284.3,152.2 L287.1,149.6 L288.6,150.6 L289.9,149.5 L293.3,146.4 L303.6,152.8 L306.2,150.4 L305.9,147.5 L307.9,148.7 L312.5,144.5 L323.3,150.9 L335.7,139.2 L345,130.5 L345,125.6 L331.7,118.5 L344.6,106.7 L361,115 L369.1,107.3 L369.4,102.2 L368.8,102.7 L369.4,102.2 L350.7,93.3 L354.6,89.8 L354.6,88 L356.2,88.7 L356.2,90.7 L361.9,93.4 L364.7,90.8 L364.9,85.7 L363.2,79.1 L351.2,73.8 L341.2,69.3 L331.7,70.5 L328.9,72.9 L328.7,73.1 L321.5,79.4 L321.3,79.6 L311.3,88.2 L311.5,91.6 L303.7,98.4 L301.4,98.6 L299.6,98.8 L295.6,102.3 L295.4,102.5 L291.6,105.8 L291.3,103.2 L290.7,102.9 L290.8,102.8 L295.4,98.9 L295.2,95.1 L295.1,94.2 L298,91.8 L298.8,92.2 L303.8,91.6 L307.3,88.6 L314.9,82.1 L319,78.6 L322.5,75.6 L326.3,72.3 L326.1,67.4 L325.8,65.7 L334.8,58.1 L337,57.7 L342.1,59.9 L342.5,61.8 L345.4,61.3 L348.7,62.7 L348.2,63.1 L348.6,64.6 L348.2,63.1 L348.2,68.1 L348.8,70.7 L351.2,71.8 L351.5,71.9 L356.6,74.1 L368.5,79.4 L372.6,78.9 L378.4,78.4 L387.4,70.1 L387.6,67.2 L395.7,59.7 L407.7,58.6 L408.3,53.4 L406.5,49.7 L421.7,36 L422.5,30.7 L422.5,30.7 Z M40.7,143.7 L38.9,145.3 L37.9,147.9 L38.9,145.3 L40.7,143.7 L44.9,143.3 L49,140.3 L44.9,143.3 L40.7,143.7 L40.7,143.7 Z M62.8,146.2 L47.8,147.2 L51.8,144.3 L63.9,143.1 L62.8,146.2 L62.8,146.2 Z M65.3,139 L65,138.7 L65.3,139 L65.3,139 Z M68.2,143 L68.6,142.7 L68.8,142.7 L67,147.8 L66.5,148.2 L68.2,143 L68.2,143 Z M67.2,147.9 L66.3,148.6 L67.2,147.9 L69,142.7 L67.2,147.9 L67.2,147.9 Z M112,122.6 L111.8,123.2 L112,122.6 L112,122.6 Z M86,137 L87.5,138.5 L86,137 L85.1,137.1 L86,137 L86,137 Z M84.7,142.5 L86.9,140.9 L87.2,141.2 L88.5,141.1 L90,142.6 L91.5,142.4 L94.1,144.9 L88.7,149 L87.6,147.9 L86.4,148.8 L83.9,146.3 L83.6,146.6 L84.7,142.5 L84.7,142.5 Z M73.1,142.6 L73.8,142.1 L75,142 L74.1,144.9 L71.7,146.7 L73.1,142.6 L73.1,142.6 Z M70.5,138.6 L70.4,138.9 L70.5,138.6 L70.5,138.6 Z M79.7,145.5 L78.4,146.5 L79.6,147.7 L78.4,146.5 L80.2,149.5 L75.4,153.1 L77.6,156.5 L74.7,158.7 L70.3,154.1 L76.8,149.2 L78.5,143.6 L79,143.5 L79.4,142.3 L80.6,142.2 L80.8,141.5 L80.9,141.5 L79.7,145.5 L79.7,145.5 Z M80.7,143.3 L80,145.5 L78.8,146.4 L80,145.5 L80.7,143.3 L80.7,143.3 Z M83.4,146.9 L83.4,146.9 L83.7,146.6 L86.2,149.1 L87.4,148.2 L88.5,149.3 L94.2,145 L88.5,149.3 L87.4,148.2 L86.2,149.1 L83.7,146.6 L83.4,146.9 L83.4,146.9 Z M89.8,157.4 L84.5,152.1 L86.2,150.8 L88.7,153.3 L89.9,152.4 L91,153.5 L98,148.2 L95.6,144.1 L95.3,144.3 L95.6,144.1 L93.9,142.5 L96.3,140.7 L98.6,142.9 L116.4,129.5 L114.8,126.4 L115.7,125.7 L116.6,125.5 L117.8,124.5 L125.1,130.7 L89.8,157.4 L89.8,157.4 Z M127.4,129 L126.9,129.4 L121.6,125 L122.7,124.2 L120.9,120.7 L121.1,119.7 L125.3,116.6 L125.6,116.6 L124.1,124.7 L126.2,128.9 L127.4,128.7 L127.4,129 L127.4,129 Z M128.7,123.7 L128.7,123.7 L127.5,123.9 L128.9,116.1 L129.8,116 L128.5,123.7 L128.7,123.7 L130,116 L128.7,123.7 L128.7,123.7 Z M130.5,111.4 L127.2,111.8 L130.5,111.4 L130.5,111.4 Z M130.7,111.9 L130.7,111.9 L130.8,111.3 L130.7,111.9 L130.7,111.9 Z M132.2,125.3 L131,126.2 L132,120.1 L132.7,115.6 L133.8,115.5 L132.2,125.3 L132.2,125.3 Z M136.5,122 L135.6,122.7 L136.8,115.2 L137.7,115.1 L136.5,122 L136.5,122 Z M146.3,117.1 L144.7,115.9 L140.1,119.4 L140.7,116.3 L141,114.8 L150.9,113.7 L146.3,117.1 L146.3,117.1 Z M169.7,106.7 L169.7,106.7 L172.5,104.6 L169.7,106.7 L169.7,106.7 Z M159.8,112.6 L161.8,112.4 L157.7,115.5 L159.8,112.6 L159.8,112.6 Z M154,113.6 L154.1,113.2 L154.3,113.2 L154,113.6 L154,113.6 Z M159.1,126.3 L155.4,123.4 L155.6,123.2 L169.5,112.4 L173.3,115.1 L159.1,126.3 L159.1,126.3 Z M181.6,144 L181.6,144 L181.8,144.2 L181.6,144 L181.6,144 Z M187.3,148.4 L185,146.6 L187.3,148.4 L193.8,143 L194.1,142.8 L202.8,135.7 L194.1,142.8 L193.8,143 L187.3,148.4 L187.3,148.4 Z M188.8,156.5 L193,159.8 L188.8,156.5 L188.8,156.5 Z M183.5,152.3 L183.5,152.3 L179.9,155.3 L183.5,152.3 L183.5,152.3 Z M166.2,154 L173.5,148.1 L177.9,151.6 L173.5,148.1 L166.2,154 L161.5,150.1 L166.2,154 L166.2,154 Z M159.5,151.2 L146.7,161.5 L159.5,151.2 L159.5,151.2 Z M102.5,192.9 L102.5,192.9 L84.4,207.4 L102.5,192.9 L102.5,192.9 Z M100.7,295.7 L99.7,300.5 L68.4,328.3 L70.7,331.9 L56.5,344.6 L53.1,341.9 L43,350.8 L40.1,345.7 L36,342.6 L31.6,346.5 L23.3,331.4 L29.2,326.4 L24.5,318.1 L20.4,314.8 L16.2,318.4 L9,305.3 L14.6,300.6 L7,286.8 L27.8,269.9 L24.5,264.6 L36.1,255.2 L36.7,256.1 L40.3,259.8 L61.4,242.7 L78.3,265.5 L100.7,295.7 L100.7,295.7 Z M78.7,264.6 L65,246.1 L70.1,241.9 L84,260.2 L78.7,264.6 L78.7,264.6 Z M89.7,255.3 L84.4,259.8 L70.5,241.5 L75.6,237.3 L89.7,255.3 L89.7,255.3 Z M90.1,255 L76,237 L85.7,229 L100,246.5 L90.1,255 L90.1,255 Z M100.6,246.2 L78,218.7 L86.9,211.5 L109.9,238.3 L100.6,246.2 L100.6,246.2 Z M110.6,237.7 L87.6,211 L105.1,196.9 L107.4,199.4 L104.5,201.7 L107.1,205.7 L125.2,225.4 L110.6,237.7 L110.6,237.7 Z M126.2,224.6 L108.3,205.2 L110.9,203.1 L128.9,222.4 L126.2,224.6 L126.2,224.6 Z M134.5,215 L131.4,215.1 L129.1,217 L125.3,213 L126,212.4 L123.5,208.3 L123.3,208.1 L121.7,209.4 L121.5,209.5 L124,213.6 L130.6,220.6 L129.7,221.3 L117.6,208.4 L120.2,206.3 L126,201.5 L135,210.8 L134.5,215 L134.5,215 Z M141.9,199 L136.3,203.6 L135.6,208 L134.7,208.1 L127.3,200.6 L129.9,198.4 L134.7,203.3 L142.3,197 L144.2,198.8 L141.9,199 L141.9,199 Z M151.3,198.3 L146.2,198.7 L145.8,197.9 L143.6,195.8 L146.7,193.2 L151.3,197.6 L151.3,198.3 L151.3,198.3 Z M153,197.5 L152.1,195.8 L148.2,192.1 L151.1,189.7 L156.4,194.6 L153,197.5 L153,197.5 Z M158,193.3 L148.3,184.3 L146.3,185.9 L144.3,186.1 L134.8,193.9 L113.1,172.6 L150,143.5 L159.2,151.1 L146.1,161.6 L147,162.4 L146.1,161.6 L148.2,165.9 L168.9,184.2 L158,193.3 L158,193.3 Z M170.4,182.9 L149.8,164.8 L170.4,182.9 L170.4,182.9 Z M170.7,183.1 L170.6,183 L170.7,183.1 L170.7,183.1 Z M170.7,182.6 L150.1,164.5 L163,154.1 L168,158.3 L175.2,152.4 L176,153.1 L175.5,153.5 L175,153 L164.9,161.3 L165.7,162 L164.9,161.3 L166.8,165.6 L178.9,175.8 L170.7,182.6 L170.7,182.6 Z M176.1,153.4 L175.8,153.7 L175.5,153.9 L174.9,153.4 L165.3,161.2 L174.9,153.4 L175.5,153.9 L175.8,153.7 L176.1,153.4 L176.1,153.4 Z M180.5,174.4 L168.6,164.4 L180.5,174.4 L180.5,174.4 Z M180.8,174.2 L168.9,164.2 L176.7,157.8 L177.9,160.8 L179.1,161.8 L180.4,160.7 L185.1,164.5 L186,163.8 L189.7,166.8 L180.8,174.2 L180.8,174.2 Z M191.7,165 L184.2,159 L183.3,159.7 L182.4,159 L185.2,156.7 L186.3,157.5 L187.5,157.4 L187.8,157.7 L188.4,159.2 L193.6,163.4 L191.7,165 L191.7,165 Z M195.8,161.5 L193.4,159.6 L189.1,156.2 L191.4,154.3 L197.4,158.9 L198.2,159.5 L195.8,161.5 L195.8,161.5 Z M200.4,157.7 L193.7,152.5 L196.2,150.4 L203,155.5 L200.4,157.7 L200.4,157.7 Z M205.2,153.6 L198.4,148.5 L200.5,146.7 L206.7,151.3 L208,151.2 L205.2,153.6 L205.2,153.6 Z M212.9,143 L214,143.8 L211.3,146 L205.4,146.6 L202.9,144.8 L203,144.7 L211.7,143.9 L212.9,143 L212.9,143 Z M204.9,134 L205,133.9 L204.9,134 L204.9,134 Z M206.4,138.4 L207.8,139.4 L204.8,139.7 L206.4,138.4 L206.4,138.4 Z M204.8,133.7 L204.8,133.7 L199.1,129.7 L204.8,133.7 L204.8,133.7 Z M200.4,134 L202.5,135.5 L187.3,148 L185.2,146.4 L200.4,134 L200.4,134 Z M196.7,131.4 L181.6,143.6 L196.7,131.4 L196.7,131.4 Z M189.9,131.9 L196.2,131.3 L181.3,143.4 L178.4,141.2 L189.9,131.9 L189.9,131.9 Z M184.9,128.4 L185.9,129.1 L174.6,138.2 L173.6,137.4 L184.9,128.4 L184.9,128.4 Z M183.3,122.8 L183.2,123.7 L169.7,134.4 L169.2,134 L183.3,122.8 L183.3,122.8 Z M226.2,110.5 L226.2,110.5 L224.6,109.5 L226.2,110.5 L226.2,110.5 Z M224.8,95.1 L230.7,98.7 L224.8,95.1 L224.8,95.1 Z M198.5,79.6 L201.9,81.6 L198.5,79.6 L198.5,79.6 Z M217.2,58.4 L217.2,58.4 L217.4,58.5 L217.2,58.4 L217.2,58.4 Z M230,45.7 L222.9,42.2 L223,39 L225.9,38.6 L227.5,37.4 L235.7,41.4 L230,45.7 L230,45.7 Z M224.9,34 L224.9,34 L226.6,32.8 L224.9,34 L224.9,34 Z M210.6,33.3 L208.1,33.7 L205.2,32.3 L210,28.9 L214.1,30.9 L210.6,33.3 L210.6,33.3 Z M218.8,32.7 L217.8,28.3 L209,24.1 L218.2,17.5 L221.2,18.9 L233.5,10 L270.9,26 L257.5,36.3 L244.7,30.5 L240.7,33.5 L236,37 L226.7,32.6 L226.6,32.6 L224.8,33.9 L221.9,34.3 L218.8,32.7 L218.8,32.7 Z M217.7,48.4 L221.4,45.6 L221.6,45.7 L226.6,48.2 L222.5,51.3 L217,48.5 L217.7,48.4 L217.7,48.4 Z M209.2,50.8 L218.8,55.9 L219.1,57.1 L217.5,58.3 L206.8,52.6 L209.2,50.8 L209.2,50.8 Z M203.6,54.9 L214.2,60.7 L213.7,61.1 L203.1,55.3 L203.6,54.9 L203.6,54.9 Z M199.9,57.6 L210.5,63.5 L209.6,64.2 L208.2,63.4 L199,58.3 L199.9,57.6 L199.9,57.6 Z M196,60.6 L204.9,65.7 L203.9,66.5 L195,61.4 L196,60.6 L196,60.6 Z M192,63.5 L200.9,68.6 L199.9,69.3 L191,64.1 L192,63.5 L192,63.5 Z M188.1,66.4 L197,71.6 L196.1,72.3 L195.8,72.1 L187.3,67 L188.1,66.4 L188.1,66.4 Z M195,81.8 L190.2,85.5 L190.1,85.3 L194.8,81.7 L195,81.8 L195,81.8 Z M184.4,69.3 L192.6,74.2 L191.5,75 L189.9,74 L189.3,73.6 L188.5,74.2 L187.9,72.3 L184.4,70.2 L184.4,69.3 L184.4,69.3 Z M183.7,73.7 L184.6,74.3 L179.7,76.8 L179.4,77 L183.7,73.7 L183.7,73.7 Z M177.7,89.4 L178.8,89.3 L178.4,89.6 L177.6,89.7 L177.7,89.4 L177.7,89.4 Z M176.9,95.1 L177,94.6 L178.6,94.4 L177.8,95 L176.9,95.1 L176.9,95.1 Z M180.4,105.8 L179.1,106.8 L178,106 L184.2,101.2 L199.4,89.5 L200.6,90.2 L180.4,105.8 L180.4,105.8 Z M184.5,110.4 L183.2,109.5 L204.7,92.7 L206,93.5 L184.5,110.4 L184.5,110.4 Z M199.1,115.3 L199.1,115.3 L196.4,113.5 L194.4,113.7 L213.7,98.4 L217.4,100.7 L199.1,115.3 L199.1,115.3 Z M207.1,126.1 L205.3,124.8 L206.5,123.8 L205.1,119.3 L203.2,118 L226,99.7 L228,100.9 L220.6,106.9 L221.8,111.5 L223.7,112.7 L207.1,126.1 L207.1,126.1 Z M211.4,129 L211.1,128.8 L226,116.6 L226.1,116.9 L211.4,129 L211.4,129 Z M215.5,132.3 L215.5,132.3 L215.7,132.5 L215.5,132.3 L215.5,132.3 Z M215.4,131.8 L215.4,131.8 L229.4,120.1 L229.5,120.1 L215.4,131.8 L215.4,131.8 Z M229.2,134.6 L228.3,134.7 L227.7,134.3 L225.4,134.5 L230.4,130.3 L229.2,134.6 L229.2,134.6 Z M235.8,133.9 L232,134.3 L232.2,133.3 L235.8,130.3 L235.8,133.9 L235.8,133.9 Z M234.2,125.8 L233.4,122.7 L235.9,124.3 L234.2,125.8 L234.2,125.8 Z M307.7,64.2 L307.5,64.4 L307.7,64.2 L307.7,64.2 Z M247.1,134.6 L243.4,135 L241,133.4 L237.4,133.8 L237.4,133.3 L244.2,127.5 L243.2,122.9 L239.6,120.6 L240.1,120.2 L253.8,128.9 L247.1,134.6 L247.1,134.6 Z M239.8,125 L240,125.1 L239.8,125.2 L239.8,125 L239.8,125 Z M239.8,111.6 L241.9,112.9 L241.1,113.6 L240.1,113 L239.8,111.6 L239.8,111.6 Z M256.7,126.4 L243,117.8 L244.2,116.8 L258,125.4 L256.7,126.4 L256.7,126.4 Z M244.7,110.9 L244.9,110.7 L244.7,110.9 L244.7,110.9 Z M261,122.7 L247.2,114.2 L248.5,113.1 L262.3,121.5 L261,122.7 L261,122.7 Z M265.5,118.9 L251.7,110.6 L252.8,109.7 L266.7,118 L265.5,118.9 L265.5,118.9 Z M269.7,115.3 L251.7,104.7 L244.8,110.4 L240.4,107.7 L252.2,98 L260.5,102.8 L274.6,111 L269.7,115.3 L269.7,115.3 Z M278,108.1 L264.1,100.2 L265,99.4 L268.8,101.6 L278.9,107.3 L278,108.1 L278,108.1 Z M282.3,104.5 L275.7,100.8 L276.7,100 L283.3,103.7 L282.3,104.5 L282.3,104.5 Z M276.6,95.3 L279.2,93.1 L289.3,98.5 L286.7,100.7 L276.6,95.3 L276.6,95.3 Z M286.9,100.9 L286.7,101.1 L286.9,100.9 L289.5,98.7 L286.9,100.9 L286.9,100.9 Z M261.9,137.4 L268.6,141.7 L255.8,142.8 L261.9,137.4 L261.9,137.4 Z M270.3,149.5 L270.4,149.6 L253.1,151 L253.1,150.9 L270.3,149.5 L270.3,149.5 Z M212.9,162.6 L215.6,162.3 L219.5,165.3 L219.2,169.5 L211.6,163.7 L212.9,162.6 L212.9,162.6 Z M209.3,165.7 L209.3,165.7 L217.1,171.7 L215.5,173.1 L207.7,167.1 L209.3,165.7 L209.3,165.7 Z M205.4,169 L213.2,175.1 L206,181.3 L198.3,175.1 L205.4,169 L205.4,169 Z M173.1,196.6 L183.4,205.9 L180.5,208.4 L170.3,199 L173.1,196.6 L173.1,196.6 Z M170,199.3 L180.9,209.3 L170,199.3 L170,199.3 Z M186.6,217 L183.6,219.7 L165.7,203 L168.6,200.5 L186.6,217 L186.6,217 Z M166.5,196.3 L166.5,196.3 L162.3,199.9 L166.5,196.3 L166.5,196.3 Z M148.3,215.7 L148.1,217.3 L148.3,215.7 L148.3,215.7 Z M150.3,221.4 L150.6,219.1 L154.8,215.5 L173.9,234.4 L165,242.4 L147.2,224.1 L150.3,221.4 L150.3,221.4 Z M111,290.4 L110.3,289.6 L108.4,291.3 L96.1,275.2 L98,269.7 L104,264.5 L103.9,264.4 L118.9,283.3 L111,290.4 L111,290.4 Z M119.3,283.5 L119.3,283.5 L122.7,280.5 L119.3,283.5 L119.3,283.5 Z M119.4,282.9 L104.4,264.1 L110.6,258.8 L125.7,277.3 L119.4,282.9 L119.4,282.9 Z M107.8,255 L107.8,255 L126,277.1 L107.8,255 L107.8,255 Z M126.2,276.8 L111.2,258.6 L114.6,255.6 L115.7,249.2 L133.5,270.2 L126.2,276.8 L126.2,276.8 Z M134.3,269.7 L116.3,248.5 L129.6,237.1 L148,257.5 L134.3,269.7 L134.3,269.7 Z M148.9,256.7 L130.5,236.4 L141,227.4 L159.7,247.1 L148.9,256.7 L148.9,256.7 Z M160.9,246 L142.1,226.4 L144.9,224 L145.8,224.9 L163.8,243.5 L160.9,246 L160.9,246 Z M164.9,242.9 L164.9,242.9 L174.2,234.7 L164.9,242.9 L164.9,242.9 Z M175.2,233.8 L175.2,233.8 L175.5,233.5 L175.2,233.8 L175.2,233.8 Z M175.3,233.2 L156.1,214.4 L158.9,212 L160.2,213.3 L174.8,227.5 L174.6,227.7 L176.6,231.8 L176.7,231.9 L175.3,233.2 L175.3,233.2 Z M176.4,226 L159.3,209.5 L159.3,208.4 L164.1,204.3 L182,221.1 L176.4,226 L176.4,226 Z M183.5,220.2 L183.5,220.2 L186.8,217.3 L183.5,220.2 L183.5,220.2 Z M183.7,211.9 L183.7,211.9 L188,215.8 L183.7,211.9 L183.7,211.9 Z M188.1,216.1 L188.1,216.1 L188.4,215.8 L188.1,216.1 L188.1,216.1 Z M193,218.7 L188.9,215 L188.2,215.6 L184,211.7 L187.2,208.9 L185.4,204.7 L174.8,195.2 L178.7,191.9 L201,211.6 L193,218.7 L193,218.7 Z M202.9,209.8 L180.5,190.2 L186.3,185.3 L208.8,204.5 L202.9,209.8 L202.9,209.8 Z M235.6,205.7 L225.4,215 L188.3,183.6 L196.2,176.9 L207.5,186.2 L220.8,174.6 L221,174.7 L221.5,166.4 L221.5,166.3 L220.9,164.4 L221.7,163.7 L224.7,163.5 L223.2,182.9 L224.6,187.3 L226.5,188.8 L222.8,192.1 L224.2,196.5 L235.6,205.7 L235.6,205.7 Z M297.9,171 L300.7,168.4 L305.1,171.3 L305.2,172.3 L310.9,176 L311.2,179.8 L312.2,187.7 L312.3,187.8 L282.7,216.6 L279.4,216.8 L278.7,216.2 L278.7,216 L277.9,211.6 L268.5,212.1 L268.7,216.3 L266.7,218.2 L262.6,218.4 L254.3,211.8 L253.3,207.7 L239.9,197.2 L232.3,191.3 L227.7,195.4 L226.8,194.6 L230.5,191.3 L229.2,186.9 L225.4,183.9 L226.8,164.3 L226.9,163.2 L242.8,161.9 L249.2,156.2 L276.6,154 L277.5,154.6 L278,157.7 L297.9,171 L297.9,171 Z M273,147.7 L275.7,149.4 L279.2,151.7 L275.7,149.4 L273,147.7 L273,147.7 Z M283.5,147.3 L279.1,151.3 L271.6,146.5 L273.8,146.3 L273.8,145 L279.1,144.6 L283.5,147.3 L283.5,147.3 Z M273.2,140.6 L273.2,140.3 L273.2,140.6 L273.2,140.6 Z M289.2,144.6 L275.4,136 L274.7,136.6 L267.7,132.3 L269,131.2 L289.7,144.1 L289.2,144.6 L289.2,144.6 Z M293.2,141.4 L272.1,128.5 L273.3,127.5 L293.7,139.9 L293.9,141.8 L293.2,141.4 L293.2,141.4 Z M344.7,125.7 L344.7,125.7 L331.7,118.7 L344.7,125.7 L344.7,125.7 Z M344.8,101.7 L328.7,116.3 L328.5,116.2 L328.7,116.3 L344.8,101.7 L353.9,106.2 L344.8,101.7 L344.8,101.7 Z M365.8,105.8 L361.4,109.9 L365.8,105.8 L365.8,105.8 Z M351.1,78.9 L362.8,84.2 L363.4,86.7 L362.1,87.9 L358.4,86.2 L358.5,84.2 L349.7,80.2 L351.1,78.9 L351.1,78.9 Z M341.3,74.5 L347.1,77.1 L345.7,78.3 L344.7,77.8 L343.1,79.2 L334.4,75.2 L341.3,74.5 L341.3,74.5 Z M329.3,78.1 L350.7,88.1 L347,91.4 L325.7,81.2 L329.3,78.1 L329.3,78.1 Z M321.9,84.5 L365.4,105.7 L361.3,109.6 L344.7,101.4 L328.7,116 L304.8,103.2 L312.7,96.3 L312.5,92.8 L321.9,84.5 L321.9,84.5 Z M328.4,116.1 L328.4,116.1 L304.5,103.3 L328.4,116.1 L328.4,116.1 Z M321.5,79.8 L321.5,79.8 L311.9,88.1 L321.5,79.8 L321.5,79.8 Z M302,98.8 L304.1,98.6 L311.7,92 L304.1,98.6 L302,98.8 L301.8,99.7 L302,98.8 L302,98.8 Z M300.5,103.8 L301.2,103.7 L301.3,105.1 L299.9,104.3 L300.5,103.8 L300.5,103.8 Z M301.4,105.5 L301.4,105.5 L299.7,104.6 L301.4,105.5 L301.4,105.5 Z M296.4,107.4 L327.5,124.5 L329.5,124.4 L330.9,123.2 L341.4,128.9 L335.8,134.1 L293.2,110.3 L296.4,107.4 L296.4,107.4 Z M313.1,126.3 L332.4,137.2 L323.3,145.7 L312.4,139.3 L307.8,143.6 L296.1,136.6 L276.5,124.8 L289.8,113.2 L313.1,126.3 L313.1,126.3 Z M290.6,97.7 L290.8,97.5 L290.6,97.7 L290.6,97.7 Z M303.5,86.4 L298.8,86.9 L297.8,86.4 L293.9,89.7 L294.4,94.2 L291,97.1 L290.7,94.5 L278.6,88.1 L272.6,93.1 L240,75.3 L270.2,51.4 L298.8,64.9 L297.3,66.1 L291.7,70.7 L292.2,75.5 L292.9,81 L303.5,86.4 L303.5,86.4 Z M307.1,83.3 L292.7,76.1 L292.6,75.5 L297.5,71.5 L300.5,73 L300.7,74.9 L306.7,77.8 L311.1,80 L307.1,83.3 L307.1,83.3 Z M314.8,76.7 L302.3,70.7 L302.3,70.2 L315.2,76.4 L314.8,76.7 L314.8,76.7 Z M322.1,70.9 L322.1,70.9 L322.3,70.7 L322.1,70.9 L322.1,70.9 Z M324.8,61.1 L325,66 L325.2,66.6 L325.4,67.6 L322.3,70.2 L312.1,65.5 L316.1,62.2 L315.8,57.3 L310.7,55 L317.9,49 L319.6,49.7 L331.9,55 L324.8,61.1 L324.8,61.1 Z M356.8,68.6 L355.7,68.1 L356.1,67.7 L357.2,68.2 L356.8,68.6 L356.8,68.6 Z M369,73.9 L360.8,70.4 L361.2,70 L370,73.8 L369,73.9 L369,73.9 Z M373.2,73.3 L373,72.8 L374,73.2 L373.2,73.3 L373.2,73.3 Z M379,70.1 L355.2,60.1 L379,70.1 L379,70.1 Z M404.9,46.3 L404.3,51.5 L405.2,53.3 L396.3,54.1 L379.1,69.8 L355.2,59.8 L345.6,55.8 L342.9,56.2 L342.6,54.5 L297,35.3 L301.7,31.6 L306.5,33.6 L338.9,7.6 L417.6,34.8 L404.9,46.3 L404.9,46.3 Z M404.9,46.3" class="wall"/>
            </g>
            <g class="ceilings">
                <path class="unit" d="M225.3,10.6 L232.4,5.6 L229.5,4.4 L222.4,9.4 L224.5,10.3 L225.3,10.6 Z M225.3,10.6" id="1001"/>
                <path class="unit" d="M224.3,11.4 L223.5,11.1 L224.3,10.4 L222.2,9.5 L217.3,13.1 L220.2,14.3 L224.3,11.4 Z M224.3,11.4" id="1002"/>
                <path class="unit" d="M208.7,24.3 L204.4,22.3 L200.4,25.1 L199.9,29.6 L200.7,30 L208.7,24.3 Z M208.7,24.3" id="1003"/>
                <path class="unit" d="M208.9,24.4 L200.9,30.1 L208.1,33.7 L210.6,33.3 L217.4,28.4 L208.9,24.4 Z M208.9,24.4" id="1004"/>
                <path class="unit" d="M177.9,46.7 L189,38.6 L190.5,39.4 L197.1,34.7 L195.1,33.7 L169.6,37.6 L166.1,40.1 L177.3,46.3 L177.9,46.7 Z M177.9,46.7" id="1005"/>
                <path class="unit" d="M189,38.9 L181.9,44 L193.6,50.4 L203.4,43.2 L203.6,41.5 L202.4,40.9 L202.7,37.6 L197.3,34.8 L190.5,39.7 L189,38.9 Z M189,38.9" id="1006"/>
                <path class="unit" d="M177.9,46.9 L177.2,46.6 L175.3,48 L174.6,47.6 L172.9,48.8 L185.8,56.1 L193.4,50.5 L181.7,44.1 L177.9,46.9 Z M177.9,46.9" id="1007"/>
                <path class="unit" d="M185.6,56.3 L171.2,48.1 L164,53.3 L178.2,61.7 L185.6,56.3 Z M185.6,56.3" id="1008"/>
                <path class="unit" d="M171.9,62.5 L177.8,61.8 L161,51.8 L153.4,57.2 L167.4,65.8 L171.9,62.5 Z M171.9,62.5" id="1009"/>
                <path class="unit" d="M240.7,33.7 L236,37.3 L235.9,37.2 L226.6,32.8 L224.9,34 L222.1,34.4 L221.8,40.5 L220.9,41.1 L230,45.7 L243.9,35.2 L240.7,33.7 Z M240.7,33.7" id="1010"/>
                <path class="unit" d="M215.5,30 L216.9,30.6 L215.9,31.3 L222,34.3 L224.8,33.9 L226.7,32.6 L236,37 L240.7,33.5 L244.7,30.4 L257.5,36.2 L274.6,23.1 L232.5,5.7 L220.2,14.6 L217.1,13.2 L204.6,22.1 L217.7,28.4 L215.5,30 Z M215.5,30" id="1011"/>
                <path class="unit" d="M216.6,43.9 L212.4,44.5 L212.3,46 L222.5,51.3 L229.8,45.8 L220.4,41.1 L216.6,43.9 Z M216.6,43.9" id="1012"/>
                <path class="unit" d="M148.9,69.9 L156.4,74.8 L159.7,72.4 L166.3,71.1 L166.5,70.6 L167.2,66 L153.1,57.3 L145.9,62.5 L152.9,67 L148.9,69.9 Z M148.9,69.9" id="1013"/>
                <path class="unit" d="M210,44.8 L208.2,46.1 L220.7,52.7 L222.3,51.5 L212,46.1 L212.1,44.5 L210,44.8 Z M210,44.8" id="1014"/>
                <path class="unit" d="M217.4,58.3 L219.9,56.4 L218.8,55.8 L221.8,53.5 L208,46.3 L202.6,50.3 L217.4,58.3 Z M217.4,58.3" id="1015"/>
                <path class="unit" d="M198.9,53 L213.7,61.1 L217.2,58.4 L202.4,50.5 L198.9,53 Z M198.9,53" id="1016"/>
                <path class="unit" d="M194.9,56 L208.2,63.4 L209.6,64.2 L213.5,61.3 L198.7,53.2 L194.9,56 Z M194.9,56" id="1017"/>
                <path class="unit" d="M190.9,58.9 L203.9,66.4 L207.8,63.5 L194.7,56.1 L190.9,58.9 Z M190.9,58.9" id="1018"/>
                <path class="unit" d="M186.9,61.9 L199.9,69.4 L203.7,66.5 L190.7,59.1 L186.9,61.9 Z M186.9,61.9" id="1019"/>
                <path class="unit" d="M177.9,72.6 L177.1,78.1 L179.8,76.8 L185.5,73.9 L187.4,72.4 L182.3,69.3 L177.9,72.6 Z M177.9,72.6" id="1020"/>
                <path class="unit" d="M195.7,72.2 L196,72.3 L199.7,69.6 L186.7,62 L183.1,64.7 L195.7,72.2 Z M195.7,72.2" id="1021"/>
                <path class="unit" d="M182.5,69.1 L187.8,72.4 L186.4,73.5 L188.1,74.6 L189.3,73.7 L189.9,74.1 L191.5,75.1 L195.3,72.2 L183,64.9 L182.5,69.1 Z M182.5,69.1" id="1022"/>
                <path class="unit" d="M159.7,72.6 L156.5,74.9 L156.4,75.8 L168.1,83.4 L169.7,73.4 L166.3,71.3 L159.7,72.6 Z M159.7,72.6" id="1023"/>
                <path class="unit" d="M154.8,85.1 L160.8,89.2 L164.2,88.5 L167.7,86 L168,83.7 L156.3,76 L154.8,85.1 Z M154.8,85.1" id="1024"/>
                <path class="unit" d="M176.6,82 L180,81.5 L189.7,74.3 L189.2,74 L188.1,74.8 L186.1,73.6 L185.6,74 L179.9,76.9 L177.1,78.3 L176.6,82 Z M176.6,82" id="1025"/>
                <path class="unit" d="M176.2,84.8 L179.1,84.5 L191.3,75.3 L189.9,74.4 L180.1,81.7 L176.6,82.2 L176.2,84.8 Z M176.2,84.8" id="1026"/>
                <path class="unit" d="M175.4,90 L178.4,89.6 L188.6,81.9 L187.7,81.3 L193.3,77.1 L192.4,76.6 L192.9,76.2 L191.5,75.4 L179.2,84.7 L176.2,85 L175.4,90 Z M175.4,90" id="1027"/>
                <path class="unit" d="M128.9,102.9 L124.7,106 L127.6,105.7 L134.5,105 L131.4,102.6 L128.9,102.9 Z M128.9,102.9" id="1028"/>
                <path class="unit" d="M32.4,138 L33.3,139.1 L35.1,138.9 L37.2,137.5 L51.7,132.3 L61.4,131.2 L62.1,131.8 L64.5,124.7 L68.8,121.7 L75.5,120.9 L82,120 L86.1,107.5 L68.2,109.7 L70.2,103.9 L56.4,105.6 L58.2,100.8 L55.3,101.1 L54.1,104.3 L42.7,105.7 L39.4,114 L35.6,114.5 L34.7,116.5 L41.2,115.7 L34.1,133.6 L27.3,134.4 L26.4,136.6 L33.2,135.8 L32.4,138 Z M32.4,138" id="1029"/>
                <path class="unit" d="M128,98 L123.4,98.5 L122,104.2 L124.4,106 L128.9,102.7 L131.6,102.4 L134.9,104.9 L143.9,103.9 L147.7,101 L148.2,98.5 L160.5,89.4 L154.5,85.3 L156.1,75.9 L156.2,75 L147,68.9 L146.6,69.2 L147.1,69.6 L146,70.4 L145.5,70 L119.2,88.9 L128.5,95.9 L128,98 Z M128,98" id="1030"/>
                <path class="unit" d="M64.8,124.7 L62.3,132 L73.4,130.8 L75,125.8 L76.6,120.9 L68.8,121.9 L64.8,124.7 Z M64.8,124.7" id="1031"/>
                <path class="unit" d="M174.7,95.4 L177.8,95 L198.2,79.4 L194.9,77.4 L194.4,77.8 L193.5,77.2 L188.2,81.3 L189,81.8 L178.5,89.8 L175.4,90.2 L174.7,95.4 Z M174.7,95.4" id="1032"/>
                <path class="unit" d="M86.4,107.3 L81.9,121.2 L89.2,128 L90.4,127.1 L89.1,125.9 L94.1,122.3 L95.4,123.4 L99.1,120.7 L97.8,119.6 L103.2,115.7 L104.5,116.8 L108.6,113.7 L110.2,108.2 L114.6,105 L121.7,104.1 L123.1,98.4 L127.8,97.8 L128.2,96 L126.5,94.7 L124.1,96.4 L119.6,93 L117.6,94.5 L109.6,88.4 L101.1,94.4 L95.4,89.9 L91.3,92.8 L90.2,96.1 L84.2,100.3 L79,100.9 L80.2,97.6 L77.8,97.9 L75.8,103.2 L70.4,103.8 L68.5,109.4 L86.4,107.3 Z M86.4,107.3" id="1033"/>
                <path class="unit" d="M94,122.6 L89.5,125.8 L90.7,127 L92.7,126.6 L94.7,125.2 L95.1,123.9 L95.2,123.7 L94,122.6 Z M94,122.6" id="1034"/>
                <path class="unit" d="M81.9,120.3 L76.9,120.9 L73.7,130.7 L87.6,129.2 L89,128.2 L81.6,121.4 L81.9,120.3 Z M81.9,120.3" id="1035"/>
                <path class="unit" d="M182.7,96.7 L174.2,103.3 L179.1,106.8 L203.1,88.1 L198,85 L182.7,96.7 Z M182.7,96.7" id="1036"/>
                <path class="unit" d="M174.3,97.5 L182.6,96.5 L201.9,81.7 L198.4,79.5 L177.9,95.2 L174.6,95.6 L174.3,97.5 Z M174.3,97.5" id="1037"/>
                <path class="unit" d="M115.8,120.1 L117.8,121.7 L120.2,119.9 L118.3,118.3 L115.8,120.1 Z M115.8,120.1" id="1038"/>
                <path class="unit" d="M173.6,102.9 L174,103.2 L182.3,96.8 L174.3,97.7 L173.6,102.9 Z M173.6,102.9" id="1039"/>
                <path class="unit" d="M113.8,125.3 L111.5,123.4 L110.8,123.5 L107.3,126.1 L107.1,126.7 L109.4,128.6 L113.8,125.3 Z M113.8,125.3" id="1040"/>
                <path class="unit" d="M106.1,127 L102.8,129.4 L102.6,130 L104.8,132 L109.1,128.8 L106.8,126.9 L106.1,127 Z M106.1,127" id="1041"/>
                <path class="unit" d="M169.7,106.7 L171.7,108.2 L174.5,106.1 L172.4,104.6 L169.7,106.7 Z M169.7,106.7" id="1042"/>
                <path class="unit" d="M152.1,109.8 L151.4,113.5 L150.9,113.9 L152.5,115 L153.7,114.1 L157.7,108.3 L152.2,108.9 L152.1,109.8 Z M152.1,109.8" id="1043"/>
                <path class="unit" d="M44.9,143.2 L40.7,143.7 L38.9,145.2 L37.8,147.8 L62.8,146.2 L65.3,139 L64.9,138.7 L49,140.3 L44.9,143.2 Z M44.9,143.2" id="1044"/>
                <path class="unit" d="M126.8,111.8 L124.5,124.2 L128.4,123.7 L130.5,111.4 L126.8,111.8 Z M126.8,111.8" id="1045"/>
                <path class="unit" d="M130,115.8 L128.6,123.9 L127.8,128.7 L132.2,125.3 L134.6,110.9 L130.8,111.4 L130,115.8 Z M130,115.8" id="1046"/>
                <path class="unit" d="M138.7,112 L136.9,121.8 L144.7,115.8 L146.3,117.1 L151.1,113.4 L151.9,109 L139,110.4 L138.7,112 Z M138.7,112" id="1047"/>
                <path class="unit" d="M98.1,133.3 L100.3,135.3 L104.5,132.2 L102.3,130.2 L101.6,130.3 L98.3,132.8 L98.1,133.3 Z M98.1,133.3" id="1048"/>
                <path class="unit" d="M132.6,125.1 L136.5,122 L138.7,110.5 L134.9,110.9 L132.6,125.1 Z M132.6,125.1" id="1049"/>
                <path class="unit" d="M68.9,138.8 L68.4,138.4 L66,138.7 L65.6,139 L63,146.2 L65.5,148.8 L67,147.8 L70.2,138.6 L68.9,138.8 Z M68.9,138.8" id="1050"/>
                <path class="unit" d="M97.1,133.7 L93.9,136.1 L94,136.2 L96.3,138.3 L100.1,135.5 L97.9,133.5 L97.1,133.7 Z M97.1,133.7" id="1051"/>
                <path class="unit" d="M153.9,114.2 L152.6,115.1 L153.6,115.8 L151.9,117.1 L153.8,118.6 L167.7,107.9 L166.8,107.3 L158.1,108.3 L153.9,114.2 Z M153.9,114.2" id="1052"/>
                <path class="unit" d="M119.1,115.3 L118.4,118.1 L120.6,119.9 L117.9,121.9 L126.9,129.4 L127.4,129 L128.3,123.9 L124.2,124.5 L126.5,111.8 L123.3,112.2 L119.1,115.3 Z M119.1,115.3" id="1053"/>
                <path class="unit" d="M74.1,144.9 L75.8,139.2 L76.3,139.1 L76.8,137.4 L71.2,138 L70.5,138.5 L67.2,147.9 L65.7,149 L66.9,150.3 L74.1,144.9 Z M74.1,144.9" id="1054"/>
                <path class="unit" d="M179.3,106.9 L184.5,110.4 L208.6,91.5 L203.4,88.3 L179.3,106.9 Z M179.3,106.9" id="1055"/>
                <path class="unit" d="M184.7,110.6 L188,112.9 L212.2,93.7 L208.8,91.6 L184.7,110.6 Z M184.7,110.6" id="1056"/>
                <path class="unit" d="M87.6,138.5 L86,137 L84.8,137.1 L84.4,136.8 L82.2,138.4 L80,145.6 L78.9,146.4 L80.9,148.5 L83.8,146.3 L86.3,148.8 L87.6,147.9 L88.7,149 L95.2,144.1 L89.1,138.3 L87.6,138.5 Z M87.6,138.5" id="1057"/>
                <path class="unit" d="M153.8,118.9 L151.6,120.5 L159.1,126.3 L175.5,113.5 L167.9,108.1 L153.8,118.9 Z M153.8,118.9" id="1058"/>
                <path class="unit" d="M178.1,115.3 L175.7,113.6 L159.3,126.4 L161.6,128.2 L178.1,115.3 Z M178.1,115.3" id="1059"/>
                <path class="unit" d="M188.2,113 L189.9,114.2 L196.4,113.5 L199.1,115.3 L220.1,98.6 L212.4,93.9 L188.2,113 Z M188.2,113" id="1060"/>
                <path class="unit" d="M181.8,118 L178.3,115.5 L161.8,128.4 L165.3,131 L181.8,118 Z M181.8,118" id="1061"/>
                <path class="unit" d="M95.6,144.1 L88.6,149.4 L87.4,148.2 L86.2,149.2 L83.7,146.7 L80.8,148.9 L78.4,146.5 L79.8,145.5 L82,138.3 L84.2,136.6 L78.4,137.2 L78.2,138 L76.9,138.1 L76.5,139.3 L76,139.4 L74.3,145 L67,150.4 L74.8,158.6 L78.3,155.9 L75.5,153 L81.2,148.8 L89.8,157.4 L126.6,129.6 L115.6,120.3 L114.4,121.3 L113.6,121.4 L112,122.6 L111.8,123.2 L114.2,125.2 L96.2,138.7 L93.9,136.5 L90.4,139.1 L95.6,144.1 Z M95.6,144.1" id="1062"/>
                <path class="unit" d="M183.2,123.8 L183.8,119.4 L182,118.1 L165.5,131.2 L169.7,134.5 L183.2,123.8 Z M183.2,123.8" id="1063"/>
                <path class="unit" d="M188.1,127.4 L183.3,124 L169.9,134.6 L174.6,138.2 L188.1,127.4 Z M188.1,127.4" id="1064"/>
                <path class="unit" d="M224.8,95.1 L199.4,115.4 L205.1,119.4 L203.1,120.9 L203.1,123.3 L207.1,126.1 L226.2,110.5 L220.5,106.9 L230.7,98.7 L224.8,95.1 Z M224.8,95.1" id="1065"/>
                <path class="unit" d="M228,115.4 L225.1,113.5 L227.7,111.4 L226.5,110.6 L207.3,126.2 L211.4,129 L228,115.4 Z M228,115.4" id="1066"/>
                <path class="unit" d="M198.7,129.4 L195.1,126.9 L188.3,127.5 L174.8,138.4 L181.4,143.4 L198.7,129.4 Z M198.7,129.4" id="1067"/>
                <path class="unit" d="M232.8,122.3 L229.7,120.3 L215.6,131.9 L218.7,134.1 L232.8,122.3 Z M232.8,122.3" id="1068"/>
                <path class="unit" d="M232.1,118 L228.2,115.5 L211.6,129.2 L215.4,131.8 L232.1,118 Z M232.1,118" id="1069"/>
                <path class="unit" d="M194.1,142.8 L196.1,144.4 L201.5,140 L210.2,139.2 L211.2,138.3 L205,133.9 L194.1,142.8 Z M194.1,142.8" id="1070"/>
                <path class="unit" d="M204.8,133.7 L198.9,129.5 L181.6,143.6 L187.3,148 L204.8,133.7 Z M204.8,133.7" id="1071"/>
                <path class="unit" d="M228.3,134.7 L229.2,134.6 L230.8,128.7 L238.6,122.2 L232.3,118.1 L229.9,120.1 L233.3,122.3 L218.9,134.2 L220,135 L227.6,134.2 L228.3,134.7 Z M228.3,134.7" id="1072"/>
                <path class="unit" d="M235.9,128.6 L237.5,127.3 L242.6,122.9 L235.6,118.4 L234.6,119.2 L239.1,122.1 L231.1,128.8 L229.6,134.5 L235.8,133.9 L235.9,128.6 Z M235.9,128.6" id="1073"/>
                <path class="unit" d="M214,143.8 L213.8,140.2 L211.5,138.5 L210.3,139.4 L201.6,140.2 L199.3,142.1 L205.5,146.6 L211.3,146 L214,143.8 Z M214,143.8" id="1074"/>
                <path class="unit" d="M243.4,135 L247.1,134.6 L256.5,126.6 L239,115.6 L235.8,118.2 L243.1,122.9 L236.2,128.7 L236.2,133.9 L241,133.5 L243.4,135 Z M243.4,135" id="1075"/>
                <path class="unit" d="M211.2,148.6 L211.2,146.3 L205.3,146.9 L199.1,142.3 L196.1,144.8 L194.8,145.8 L205.2,153.6 L211.2,148.6 Z M211.2,148.6" id="1076"/>
                <path class="unit" d="M205,153.9 L194.6,146 L190,149.8 L200.4,157.7 L205,153.9 Z M205,153.9" id="1077"/>
                <path class="unit" d="M200.1,157.9 L189.8,150 L186.2,152.9 L187.9,154.3 L187.2,154.8 L193.4,159.7 L195.8,161.5 L200.1,157.9 Z M200.1,157.9" id="1078"/>
                <path class="unit" d="M193.9,163.1 L193.9,161.7 L193,161 L193.1,159.8 L186.7,154.8 L187.4,154.3 L185.8,153.1 L184.6,153.2 L183.5,152.3 L178.9,156.1 L183.3,159.7 L184.2,159 L191.7,165 L193.9,163.1 Z M193.9,163.1" id="1079"/>
                <path class="unit" d="M191.5,165.2 L184.2,159.4 L183.3,160.1 L178.6,156.3 L177.3,157.4 L176.1,156.5 L177.4,155.4 L174.9,153.4 L165.3,161.2 L180.8,174.2 L191.5,165.2 Z M191.5,165.2" id="1080"/>
                <path class="unit" d="M164.8,161.3 L175,153 L175.6,153.5 L177.9,151.6 L173.5,148.1 L166.2,154 L161.2,149.8 L146.6,161.5 L170.7,182.6 L180.5,174.4 L164.8,161.3 Z M164.8,161.3" id="1081"/>
                <path class="unit" d="M170.4,182.9 L146.2,161.5 L160.9,149.7 L148.1,139.1 L109.8,169.1 L134.9,193.9 L144.3,186.1 L146.3,185.9 L148.3,184.3 L158,193.3 L170.4,182.9 Z M170.4,182.9" id="1082"/>
                <path class="unit" d="M157.7,193.5 L149,185.5 L144.9,188.9 L152.1,195.7 L151.7,198.3 L152.1,198.3 L157.7,193.5 Z M157.7,193.5" id="1083"/>
                <path class="unit" d="M151.3,198.3 L151.8,195.9 L144.6,189.1 L140.3,192.6 L145.9,198 L145.7,198.8 L151.3,198.3 Z M151.3,198.3" id="1084"/>
                <path class="unit" d="M136.3,203.7 L141.9,199 L145.3,198.8 L145.5,198.1 L140,192.9 L132.4,199.2 L127.5,194.4 L124,197.3 L134.7,208.2 L135.6,208.1 L136.3,203.7 Z M136.3,203.7" id="1085"/>
                <path class="unit" d="M135.6,208.4 L134.5,208.5 L123.7,197.5 L117.8,202.3 L121.8,209.5 L123.4,208.1 L123.6,208.4 L122.1,209.6 L129.1,217 L131.4,215.1 L134.5,215 L135.6,208.4 Z M135.6,208.4" id="1086"/>
                <path class="unit" d="M131.5,220.1 L121.6,209.6 L121.8,209.5 L117.8,202.3 L114.5,205.1 L129.9,221.5 L131.5,220.1 Z M131.5,220.1" id="1087"/>
                <path class="unit" d="M129.6,221.7 L108.3,199 L105,201.7 L126.2,224.6 L129.6,221.7 Z M129.6,221.7" id="1088"/>
                <path class="unit" d="M125.9,224.8 L104.5,201.7 L108.1,198.8 L102.5,192.9 L84.4,207.3 L110.6,237.7 L125.9,224.8 Z M125.9,224.8" id="1089"/>
                <path class="unit" d="M110.3,238 L84.1,207.6 L74.9,214.9 L100.6,246.2 L110.3,238 Z M110.3,238" id="1090"/>
                <path class="unit" d="M89.7,255.3 L72.6,233.4 L67.4,237.7 L84.3,259.9 L89.7,255.3 Z M89.7,255.3" id="1091"/>
                <path class="unit" d="M100.3,246.4 L82.8,225.2 L72.9,233.2 L90,255 L100.3,246.4 Z M100.3,246.4" id="1092"/>
                <path class="unit" d="M83.9,260.2 L67,238 L61.7,242.3 L78.4,264.9 L83.9,260.2 Z M83.9,260.2" id="1093"/>
                <path class="unit" d="M36.8,256 L33.3,250.9 L20.8,260.9 L24.1,266.3 L3,283.3 L10.7,297.2 L5,301.9 L14.6,319.8 L20.5,314.8 L25.2,323.2 L19.2,328.3 L29.9,348.1 L36.1,342.7 L41.4,352.3 L53.1,341.9 L55.3,345.6 L70.7,331.9 L68.4,328.3 L99.7,300.4 L100.7,295.7 L58.4,238.6 L36.8,256 Z M36.8,256" id="1094"/>
                <path class="unit" d="M223.8,11 L224.4,11.3 L225.1,10.8 L224.5,10.5 L223.8,11 Z M223.8,11" id="1095"/>
                <path class="unit" d="M98.2,119.6 L99.4,120.6 L101,120.4 L104,118.2 L104.3,117 L103.1,116 L98.2,119.6 Z M98.2,119.6" id="1096"/>
                <path class="unit" d="M291.1,103.1 L289.4,102.2 L286.7,104.4 L288.4,105.4 L291.1,103.1 Z M291.1,103.1" id="1097"/>
                <path class="unit" d="M238.4,139.3 L240.5,137.5 L238.4,136.1 L236.3,137.9 L238.4,139.3 Z M238.4,139.3" id="1098"/>
                <path class="unit" d="M221.5,156.1 L223.6,154.2 L221.5,152.7 L219.3,154.5 L221.5,156.1 Z M221.5,156.1" id="1099"/>
                <path class="unit" d="M134,218 L134.4,215.3 L131.5,215.4 L129.3,217.2 L131.8,219.8 L134,218 Z M134,218" id="1100"/>
                <path class="unit" d="M306.6,53.3 L315.7,57.4 L308.1,63.8 L322.3,70.3 L326,67.1 L325,61.7 L324.8,61.1 L334.7,52.7 L336.8,52.3 L317.6,44.3 L306.6,53.3 Z M306.6,53.3" id="1101"/>
                <path class="unit" d="M300,64.2 L319,73.2 L322.1,70.5 L307.9,64 L307.5,64.3 L302.6,62.1 L300,64.2 Z M300,64.2" id="1102"/>
                <path class="unit" d="M318.7,73.3 L299.8,64.4 L297.3,66.5 L302.1,68.8 L300.7,70 L314.8,76.7 L318.7,73.3 Z M318.7,73.3" id="1103"/>
                <path class="unit" d="M251.4,93.3 L236.7,105.4 L244.9,110.4 L251.8,104.7 L269.7,115.3 L277.8,108.4 L251.4,93.3 Z M251.4,93.3" id="1104"/>
                <path class="unit" d="M301.7,68.8 L297,66.7 L292,70.8 L292.7,76.1 L307.1,83.3 L314.6,76.9 L300.3,70 L301.7,68.8 Z M301.7,68.8" id="1105"/>
                <path class="unit" d="M356.3,62.7 L352,66.5 L356.8,68.6 L361.1,64.8 L356.3,62.7 Z M356.3,62.7" id="1106"/>
                <path class="unit" d="M235,106.8 L239.3,109.4 L237.2,111.1 L241.1,113.5 L244.7,110.6 L236.5,105.6 L235,106.8 Z M235,106.8" id="1107"/>
                <path class="unit" d="M235.9,73.1 L272.5,93.1 L278.5,88.1 L290.6,94.5 L290.8,97.2 L294.8,93.8 L294.7,90.2 L293.8,89.8 L297.8,86.4 L298.8,86.9 L303.5,86.4 L306.9,83.5 L292.4,76.2 L291.7,70.8 L302.3,62 L269.5,46.7 L235.9,73.1 Z M235.9,73.1" id="1108"/>
                <path class="unit" d="M332.1,70.6 L329.4,73 L343.1,79.3 L344.7,77.9 L345.7,78.4 L350.9,73.8 L341.3,69.5 L332.1,70.6 Z M332.1,70.6" id="1109"/>
                <path class="unit" d="M290.5,97.5 L290.3,94.6 L278.5,88.4 L272.8,93.2 L286.6,100.8 L290.5,97.5 Z M290.5,97.5" id="1110"/>
                <path class="unit" d="M422,30.8 L338.8,2.7 L306.1,28.8 L301.3,26.8 L292.8,33.6 L342.5,54.5 L342.9,56.2 L345.6,55.8 L355.2,59.8 L379.1,69.9 L396.4,54.2 L408.1,53.1 L404.9,46.3 L422,30.8 Z M422,30.8" id="1111"/>
                <path class="unit" d="M286.4,101 L276,95.3 L274.6,96.4 L271.3,94.6 L268.6,96.9 L282.3,104.5 L286.4,101 Z M286.4,101" id="1112"/>
                <path class="unit" d="M361.4,64.9 L357.1,68.7 L369,73.9 L372.8,73.4 L371.6,69.2 L361.4,64.9 Z M361.4,64.9" id="1113"/>
                <path class="unit" d="M379.2,70.2 L355.3,60.1 L352.5,62.5 L350.3,61.5 L348.7,62.9 L349.3,65.3 L351.7,66.4 L356.2,62.4 L371.9,69.1 L373.2,73.3 L378.7,72.9 L387.6,64.7 L387.1,63 L379.2,70.2 Z M379.2,70.2" id="1114"/>
                <path class="unit" d="M282.1,104.7 L264.2,94.8 L260.3,98 L278,108.1 L282.1,104.7 Z M282.1,104.7" id="1115"/>
                <path class="unit" d="M269.5,115.5 L251.8,105 L247.8,108.3 L265.5,118.9 L269.5,115.5 Z M269.5,115.5" id="1116"/>
                <path class="unit" d="M321.9,79.4 L347.1,91.4 L354.4,84.8 L329.2,73.2 L321.9,79.4 Z M321.9,79.4" id="1117"/>
                <path class="unit" d="M245.1,110.5 L243.4,111.9 L261,122.7 L265.2,119.1 L247.6,108.5 L245.1,110.5 Z M245.1,110.5" id="1118"/>
                <path class="unit" d="M346,78.5 L358.6,84.2 L357,85.6 L362.2,88 L364.7,85.6 L363,79.2 L351.2,73.9 L346,78.5 Z M346,78.5" id="1119"/>
                <path class="unit" d="M241.1,113.9 L239.2,115.4 L256.7,126.4 L260.7,122.9 L243.2,112.1 L241.1,113.9 Z M241.1,113.9" id="1120"/>
                <path class="unit" d="M301,101.5 L301.6,98.8 L300.1,99 L296.2,102.3 L327.5,119.2 L329.2,119.2 L330.4,118 L327.9,116.7 L328.4,116.1 L301,101.5 Z M301,101.5" id="1121"/>
                <path class="unit" d="M311.9,88.1 L312.3,91.4 L304.1,98.5 L302,98.8 L301.4,101.4 L328.7,115.9 L344.7,101.3 L361.3,109.5 L369.1,102.3 L321.7,79.6 L311.9,88.1 Z M311.9,88.1" id="1122"/>
                <path class="unit" d="M251.9,141.8 L252,143.1 L272.8,141.3 L272.8,140.2 L261,132.8 L251.2,141.3 L251.9,141.8 Z M251.9,141.8" id="1123"/>
                <path class="unit" d="M271.4,146.7 L269.5,144.8 L252.1,146.3 L252.2,148.1 L248.4,151.4 L275.3,149.2 L271.4,146.7 Z M271.4,146.7" id="1124"/>
                <path class="unit" d="M292.7,141.5 L268.2,126.5 L264.2,130 L274.7,136.6 L275.5,136 L289.2,144.6 L292.7,141.5 Z M292.7,141.5" id="1125"/>
                <path class="unit" d="M288.2,145.5 L289,144.8 L275.5,136.4 L274.8,137 L263.9,130.3 L261.3,132.6 L273.1,140 L278.7,139.6 L286.9,144.7 L288.2,145.5 Z M288.2,145.5" id="1126"/>
                <path class="unit" d="M219.7,162 L214.2,157.9 L211.5,158.1 L208.1,161 L219.2,169.5 L219.7,162 Z M219.7,162" id="1127"/>
                <path class="unit" d="M219.1,169.9 L207.8,161.2 L204.2,164.3 L215.5,173.1 L219.1,169.9 Z M219.1,169.9" id="1128"/>
                <path class="unit" d="M215.2,173.3 L203.9,164.6 L194.8,172.3 L206,181.3 L215.2,173.3 Z M215.2,173.3" id="1129"/>
                <path class="unit" d="M283.5,147.3 L286.4,144.8 L278.6,139.9 L273.2,140.3 L273.1,141.6 L252,143.4 L252.1,146.1 L269.7,144.5 L271.7,146.5 L279.1,151.3 L283.5,147.3 Z M283.5,147.3" id="1130"/>
                <path class="unit" d="M329.3,119.4 L327.3,119.5 L295.9,102.5 L289.4,108.2 L335.8,134 L344.7,125.7 L330.7,118.2 L329.3,119.4 Z M329.3,119.4" id="1131"/>
                <path class="unit" d="M272.5,122.8 L268.5,126.3 L293.2,141.4 L303.3,147.6 L305.4,145.7 L293.5,138.5 L295.5,136.6 L272.5,122.8 Z M272.5,122.8" id="1132"/>
                <path class="unit" d="M272.8,122.6 L296,136.6 L307.7,143.6 L312.4,139.4 L323.2,145.8 L335.5,134.2 L289.2,108.4 L272.8,122.6 Z M272.8,122.6" id="1133"/>
                <path class="unit" d="M184.9,204.6 L171.2,192.3 L166.9,195.9 L180.5,208.4 L184.9,204.6 Z M184.9,204.6" id="1134"/>
                <path class="unit" d="M177.2,187.2 L202.9,209.8 L210.6,203 L184.6,181 L177.2,187.2 Z M177.2,187.2" id="1135"/>
                <path class="unit" d="M176.1,226.3 L156.9,207.7 L152.9,211.1 L175.3,233.2 L178,230.8 L174.7,227.5 L176.1,226.3 Z M176.1,226.3" id="1136"/>
                <path class="unit" d="M157.2,204.2 L157.1,207.4 L176.4,226 L183.3,219.9 L162.1,200.1 L157.2,204.2 Z M157.2,204.2" id="1137"/>
                <path class="unit" d="M162.3,199.8 L183.6,219.7 L188,215.8 L166.6,196.2 L162.3,199.8 Z M162.3,199.8" id="1138"/>
                <path class="unit" d="M171.5,192.1 L185.4,204.6 L180.8,208.6 L188.3,215.5 L188.9,214.9 L193,218.7 L202.7,210.1 L176.9,187.5 L171.5,192.1 Z M171.5,192.1" id="1139"/>
                <path class="unit" d="M228.5,187 L223.3,182.8 L225.1,158.8 L220.3,159.2 L218.6,160.7 L220.1,161.9 L219.6,170.2 L219.4,170.1 L205.9,181.8 L194.5,172.5 L184.9,180.7 L225.4,215 L237.5,203.9 L222.8,192.1 L228.5,187 Z M228.5,187" id="1140"/>
                <path class="unit" d="M148.3,215 L148.1,217.3 L144,220.8 L165,242.4 L175,233.4 L152.6,211.4 L148.3,215 Z M148.3,215" id="1141"/>
                <path class="unit" d="M138.9,223 L160.9,246 L164.7,242.6 L142.6,219.9 L138.9,223 Z M138.9,223" id="1142"/>
                <path class="unit" d="M127.3,232.9 L148.9,256.7 L160.6,246.3 L138.6,223.3 L127.3,232.9 Z M127.3,232.9" id="1143"/>
                <path class="unit" d="M113.2,244.9 L134.3,269.7 L148.6,256.9 L127,233.1 L113.2,244.9 Z M113.2,244.9" id="1144"/>
                <path class="unit" d="M311.8,183.1 L310.8,175.2 L312,174.1 L311.7,172.1 L304.7,167.6 L305.3,167.1 L300.2,163.7 L297.4,166.3 L277.1,153.1 L278.9,151.5 L275.7,149.4 L248,151.7 L241.5,157.4 L225.4,158.8 L225.3,159.9 L223.7,182.8 L229.1,187 L223.4,192.1 L227.6,195.5 L232.3,191.4 L239.9,197.3 L253.3,207.9 L251.4,209.6 L262.6,218.5 L266.6,218.3 L268.6,216.4 L268.4,212.2 L277.8,211.6 L278,215.8 L279.4,216.8 L282.7,216.6 L313.9,186.4 L313.6,184.3 L311.8,183.1 Z M311.8,183.1" id="1145"/>
                <path class="unit" d="M111.9,251.8 L108.2,254.9 L126.2,276.8 L134,270 L113.1,245.4 L111.9,251.8 Z M111.9,251.8" id="1146"/>
                <path class="unit" d="M101.4,260.4 L119.4,282.9 L125.9,277.1 L107.8,255 L101.4,260.4 Z M101.4,260.4" id="1147"/>
                <path class="unit" d="M95,265.9 L93,271.5 L108.2,291.4 L110.3,289.6 L111,290.4 L119,283.2 L101.1,260.7 L95,265.9 Z M95,265.9" id="1148"/>
                <path class="unit" d="M219.8,159.3 L218.3,160.6 L214.7,157.8 L216,157.7 L218.4,159.4 L219.8,159.3 Z M219.8,159.3" id="1149"/>
        </g>
    </g>
</svg>