<?xml version="1.0" encoding="utf-8"?>
<!DOCTYPE svg PUBLIC "-//W3C//DTD SVG 1.1//EN" "http://www.w3.org/Graphics/SVG/1.1/DTD/svg11.dtd">
<svg version="1.1" xmlns="http://www.w3.org/2000/svg" xmlns:xlink="http://www.w3.org/1999/xlink" xml:space="preserve">
    <g class="level" id="level0">
        <g class="outline">
            <path d="M475.4,134.1 L475.4,133.6 L475.4,133.2 C475.4,133.2 475.4,133.2 475.4,133.1 C475.5,132.6 475.4,132 475,131.5 L423.8,70.6 C423.3,70 422.4,69.8 421.7,70.1 L374.2,91.3 L371.7,88.3 C371.2,87.7 370.3,87.5 369.6,87.8 L356.8,93.5 C356.3,93.7 355.9,94.2 355.8,94.7 L355.8,94.9 C355.7,95.1 355.7,95.3 355.7,95.5 L355.8,99.6 C355.8,100 356,100.4 356.2,100.7 L369.4,116.4 L359.4,120.9 C358.9,121.1 358.5,121.6 358.4,122.1 L358.4,122.3 C358.3,122.5 358.3,122.7 358.3,122.9 L358.4,127 C358.4,127.4 358.6,127.8 358.8,128.1 L360.6,130.3 L355.8,132.4 C355.8,132.4 355.7,132.4 355.7,132.5 C355.7,132.5 355.6,132.5 355.6,132.6 L355.4,132.7 L352.9,129.7 C352.4,129.1 351.5,128.9 350.8,129.2 L347.3,130.7 C347.3,130.7 347.2,130.7 347.2,130.8 C347.2,130.8 347.1,130.8 347.1,130.9 L343.8,132.4 C343.8,132.4 343.7,132.4 343.7,132.5 C343.7,132.5 343.6,132.5 343.6,132.6 L337.2,135.4 C337.1,135.4 337.1,135.5 337,135.5 C336.9,135.5 336.9,135.5 336.8,135.6 L306.2,149.2 C305.7,149.4 305.3,149.9 305.2,150.4 L305.2,150.6 C305.1,150.8 305.1,151 305.1,151.2 L305.2,154.3 L303.5,152.3 C303,151.7 302.1,151.5 301.4,151.8 L297,153.8 L292,147.9 C291.5,147.3 290.6,147.1 289.9,147.4 L281.3,151.2 C281.3,151.2 281.2,151.2 281.2,151.3 C281.2,151.3 281.1,151.3 281.1,151.4 L275.7,153.8 C275.7,153.8 275.6,153.8 275.6,153.9 C275.6,153.9 275.5,153.9 275.5,154 L270.5,156.2 C270,156.4 269.6,156.9 269.5,157.4 L269.5,157.6 C269.4,157.8 269.4,158 269.4,158.2 L269.5,162.3 C269.5,162.4 269.5,162.6 269.6,162.7 L269.7,166 L267.2,167.1 C267.2,167.1 267.1,167.1 267.1,167.2 C267.1,167.2 267,167.2 267,167.3 L266.8,167.4 L266.2,166.7 L266.1,166.6 C266.1,166.6 266.1,166.5 266,166.5 L265.1,165.4 C265.2,165.2 265.2,164.9 265.2,164.7 L265.1,161.7 L265.1,161.2 L265.1,160.8 C265.1,160.8 265.1,160.8 265.1,160.7 C265.2,160.2 265.1,159.6 264.7,159.1 L263.6,157.7 L263.5,157.6 L270.5,154.5 C271.2,154.2 271.6,153.5 271.6,152.8 L271.5,149.8 L271.5,149.3 L271.5,148.9 C271.5,148.9 271.5,148.9 271.5,148.8 C271.6,148.3 271.5,147.7 271.1,147.2 L266.5,141.7 C266,141.1 265.1,140.9 264.4,141.2 L260.5,142.9 L255.9,137.5 L255.8,137.4 C255.8,137.4 255.8,137.3 255.7,137.3 L252.2,133.1 L252.1,133 C252.1,133 252.1,132.9 252,132.9 L248.2,128.3 L248.1,128.2 C248.1,128.2 248.1,128.1 248,128.1 L247.5,127.4 L247.8,127.3 C248.5,127 248.9,126.3 248.9,125.6 L248.8,122.6 L248.8,122.1 L248.8,121.7 C248.8,121.7 248.8,121.7 248.8,121.6 C248.9,121.1 248.8,120.5 248.4,120 L245.7,116.8 L245.6,116.7 C245.6,116.7 245.6,116.6 245.5,116.6 L245,115.9 L259,109.7 C259.5,110.1 260.2,110.2 260.8,109.9 L274.7,103.7 C275.4,103.4 275.8,102.7 275.8,102 L275.8,101.2 L278.2,100.2 C278.9,99.9 279.3,99.2 279.3,98.5 L279.3,98.2 L309.1,84.9 C309.8,84.6 310.2,83.9 310.2,83.2 L310.1,80.2 L310.1,79.7 L310.1,79.5 L310.5,79.3 L320.4,91 C320.9,91.6 321.8,91.8 322.5,91.5 L347.1,80.5 C347.8,80.2 348.2,79.5 348.2,78.8 L348.1,75.8 L348.1,75.3 L348.1,74.9 C348.1,74.9 348.1,74.9 348.1,74.8 C348.2,74.2 348.1,73.7 347.7,73.2 L341.5,65.9 L344.7,64.5 L346.6,66.7 C347.1,67.3 348,67.5 348.7,67.2 L353.3,65.1 C354,64.8 354.4,64.1 354.4,63.4 L354.3,60.4 L354.3,60.2 L362.7,56.5 L364.6,58.7 C365.1,59.3 366,59.5 366.7,59.2 L371.3,57.1 C372,56.8 372.4,56.1 372.4,55.4 L372.3,52.4 L372.3,52.2 L389.9,44.4 L391.8,46.6 C392.3,47.2 393.2,47.4 393.9,47.1 L397.5,45.5 C398.2,45.2 398.6,44.5 398.6,43.8 L398.5,40.8 L398.5,40.3 L398.5,39.9 C398.5,39.9 398.5,39.9 398.5,39.8 C398.6,39.4 398.5,39 398.4,38.7 L398.3,36.4 L398.3,35.9 L398.3,35.5 C398.3,35.5 398.3,35.5 398.3,35.4 C398.4,34.9 398.3,34.3 397.9,33.8 L373.9,6.1 C373.4,5.5 372.5,5.3 371.8,5.6 L371,6 L370.6,5.6 C370.1,5 369.2,4.8 368.5,5.1 L364.4,6.9 C363.9,7.1 363.5,7.6 363.4,8.1 L363.4,8.3 C363.3,8.5 363.3,8.7 363.3,8.9 L363.3,9.4 L343.8,18.1 L342.8,16.9 C342.3,16.3 341.4,16.1 340.7,16.4 L335.6,18.7 C335.1,18.9 334.7,19.4 334.6,19.9 L334.6,20.1 C334.5,20.3 334.5,20.5 334.5,20.7 L334.6,22.7 L315.4,31.2 L310.3,25.1 C309.8,24.5 308.9,24.3 308.2,24.6 L276,39 L269.6,31.4 L300.6,11.1 C301.1,10.8 301.4,10.2 301.4,9.5 L301.3,6.5 L301.3,6.3 L301.3,6 L301.3,5.6 C301.3,5.5 301.4,5.3 301.4,5.2 C301.4,4.6 301.1,4 300.6,3.7 L297.1,1.2 C297,1.1 296.8,1 296.6,1 C294.9,0.4 289.6,2 280.8,5.5 C279.9,5.8 279.1,6.2 278.2,6.6 C268.2,11 258.1,17.5 254.4,20 L252.7,17.9 C252.2,17.3 251.3,17.1 250.6,17.4 L248,18.5 C247.5,18.7 247.1,19.2 247,19.7 L247,19.9 C246.9,20.1 246.9,20.3 246.9,20.5 L247,24.5 C244.9,25.8 242.3,27.6 240.3,29.6 C236.3,33.5 233.4,39 233.1,39.6 C233,39.8 233,40 232.9,40.1 C232.8,40.3 232.8,40.5 232.8,40.7 L232.9,44.8 C232.9,45.3 233.2,45.8 233.5,46.1 L235.9,48.1 C236.5,48.6 237.3,48.7 238,48.2 L251,40 C252,40.5 253.1,40.8 254.3,40.9 L253.9,45.8 L253.9,46.1 C253.8,46.2 253.8,46.4 253.8,46.6 L253.7,48.1 C253.2,48.3 252.8,48.4 252.3,48.6 C251.3,49.1 250.3,49.6 249.5,50.3 C248,51.5 246.9,52.9 246.4,54.3 L224.4,50.9 L223.8,50.9 C223.6,50.9 223.3,50.9 223.1,51.1 L218.1,53.3 C217.6,53.5 217.2,54 217.1,54.5 L217.1,54.7 C217,54.9 217,55.1 217,55.3 L217.1,59.4 C217.1,59.8 217.3,60.2 217.5,60.5 L222.5,66.4 C222.3,66.4 222.2,66.5 222,66.5 L213.1,70.5 L211.2,68.3 C210.7,67.7 209.8,67.5 209.1,67.8 L199,72.5 C199,72.5 198.9,72.5 198.9,72.6 C198.9,72.6 198.8,72.6 198.8,72.7 L189.2,77 C188.7,77.2 188.3,77.7 188.2,78.2 L188.2,78.4 C188.1,78.6 188.1,78.8 188.1,79 L188.2,83.1 C188.2,83.5 188.4,83.9 188.6,84.2 L189.9,85.7 C189.8,85.7 189.7,85.8 189.6,85.8 L189,86 C188.8,86.1 188.7,86.2 188.5,86.3 C188.3,86.3 188.1,86.4 188,86.4 L154.6,101.3 C154.1,101.5 153.7,102 153.6,102.5 L153.6,102.7 C153.5,102.9 153.5,103.1 153.5,103.3 L153.6,106.3 L153.5,106.3 L145.8,97.1 C145.3,96.5 144.4,96.3 143.7,96.6 L134.7,100.6 L129.1,94 C128.6,93.4 127.7,93.2 127,93.5 L121.9,95.8 C121.4,96 121.1,96.4 120.9,96.8 L119.9,99.6 L113.4,102.5 L111.2,102.1 L111.2,100.7 L111.2,100 L111.2,99.6 C111.3,99.1 111.3,98.6 111,98.2 C110.7,97.7 110.3,97.4 109.8,97.3 L106.5,96.7 C105.6,96.6 104.8,97.1 104.5,97.9 L102.7,103 L98.6,102.3 L98.4,102.3 L98.3,102.3 L85.7,100.2 L85.7,99.8 L85.6,96.9 L85.6,96.2 L85.6,95.8 C85.7,95.3 85.7,94.8 85.4,94.4 C85.1,93.9 84.7,93.6 84.2,93.5 L80,93.3 C79.1,93.2 78.3,93.7 78,94.5 L77,97.3 L64.8,95.6 C64,95.5 63.1,96 62.9,96.8 L60.5,103.7 L57.1,103.1 C56.2,103 55.4,103.5 55.1,104.3 L54.1,107.3 C54.1,107.4 54,107.5 54,107.7 C53.9,107.9 53.9,108.1 53.9,108.3 L54,112.4 C54,113.3 54.7,114 55.5,114.1 L60.1,114.9 L56.4,125.6 L49.7,124.5 C48.8,124.4 48,124.9 47.7,125.7 L46.9,128.1 C46.9,128.2 46.8,128.3 46.8,128.5 C46.7,128.7 46.7,128.9 46.7,129.1 L46.8,133.2 C46.8,134.1 47.5,134.8 48.3,134.9 L51,135.3 L49.9,138.4 C49.8,138.8 49.8,139.2 49.9,139.6 C49.9,139.8 49.9,139.9 50,140.1 L47.2,141.4 C46.7,141.6 46.3,142.1 46.2,142.6 L46.2,142.8 C46.1,143 46.1,143.2 46.1,143.4 L46.2,146.4 L1.6,165.9 C1.1,166.1 0.7,166.6 0.6,167.1 L0.6,167.3 C0.5,167.5 0.5,167.7 0.5,167.9 L0.6,172 C0.6,172.4 0.8,172.8 1,173.1 L24.6,201.2 C25.1,201.8 26,202 26.7,201.7 L97.3,170.3 C97.3,170.3 97.3,170.3 97.4,170.4 L99.5,173 C100,173.6 100.9,173.8 101.6,173.5 L109.3,170.1 C110,169.8 110.4,169.1 110.4,168.4 L110.3,165.4 L110.3,164.9 L110.3,164.7 L110.7,164.5 L118.7,174 C119.2,174.6 120.1,174.8 120.8,174.5 L179.6,148.3 L180.3,149.1 C180.8,149.7 181.7,149.9 182.4,149.6 L184.9,148.5 C184.9,148.5 184.9,148.5 184.9,148.6 C184.8,148.8 184.8,149 184.8,149.2 L184.9,153.3 C184.9,153.7 185.1,154.1 185.3,154.4 L211,185.1 L208.7,186.1 L208.7,185.7 L208.7,185.3 C208.7,185.3 208.7,185.3 208.7,185.2 C208.8,184.7 208.7,184.1 208.3,183.6 L204.6,179.2 C204.1,178.6 203.2,178.4 202.5,178.7 L196,181.6 L192.7,177.6 L192.6,177.5 C192.6,177.5 192.6,177.4 192.5,177.4 L181.5,164.4 C181,163.8 180.1,163.6 179.4,163.9 L138.3,182.2 C137.8,182.4 137.4,182.9 137.3,183.4 L137.3,183.6 C137.2,183.8 137.2,184 137.2,184.2 L137.3,188.3 C137.3,188.7 137.5,189.1 137.7,189.4 L153,207.7 L150.8,208.7 C150.8,208.7 150.7,208.7 150.7,208.8 C150.7,208.8 150.6,208.8 150.6,208.9 L145.2,211.3 C145.2,211.3 145.1,211.3 145.1,211.4 C145.1,211.4 145,211.4 145,211.5 L142.8,212.5 L138.5,207.4 L138.4,207.3 C138.4,207.3 138.4,207.2 138.3,207.2 L133.2,201.1 C132.7,200.5 131.8,200.3 131.1,200.6 L122.5,204.4 C122.5,204.4 122.4,204.4 122.4,204.5 C122.4,204.5 122.3,204.5 122.3,204.6 L113.8,208.4 C113.8,208.4 113.7,208.4 113.7,208.5 C113.7,208.5 113.6,208.5 113.6,208.6 L104.5,212.7 C104,212.9 103.6,213.4 103.5,213.9 L103.5,214.1 C103.4,214.3 103.4,214.5 103.4,214.7 L103.5,218.8 C103.5,219.2 103.7,219.6 103.9,219.9 L107.6,224.3 L98.7,228.3 C98.7,228.3 98.6,228.3 98.6,228.4 C98.6,228.4 98.5,228.4 98.5,228.5 L94.7,230.2 L92.8,228 C92.3,227.4 91.4,227.2 90.7,227.5 L73.5,235.2 L72.5,234 L94,224 C94.7,223.7 95.1,223 95.1,222.3 L95,219.3 L95,218.8 L95,218.4 C95,218.4 95,218.4 95,218.3 C95.1,217.8 95,217.2 94.6,216.7 L73.5,191.5 C73,190.9 72.1,190.7 71.4,191 L6.2,220 C5.7,220.2 5.3,220.7 5.2,221.2 L5.2,221.4 C5.1,221.6 5.1,221.8 5.1,222 L5.2,226.1 C5.2,226.5 5.4,226.9 5.6,227.2 L31,257.6 C31.5,258.2 32.4,258.4 33.1,258.1 L42.9,253.7 C42.9,254 43.1,254.3 43.3,254.6 L47.6,259.7 L47.3,259.8 C46.8,260 46.4,260.5 46.3,261 L46.3,261.2 C46.2,261.4 46.2,261.6 46.2,261.8 L46.3,265.9 C46.3,266.3 46.5,266.7 46.7,267 L56.8,279 C57.3,279.6 58.2,279.8 58.9,279.5 L61.4,278.4 C61.4,278.4 61.4,278.4 61.4,278.5 C61.3,278.7 61.3,278.9 61.3,279.1 L61.4,283.2 C61.4,283.6 61.6,284 61.8,284.3 L72.2,296.7 C72.7,297.3 73.6,297.5 74.3,297.2 L77.2,295.9 L80.9,300.3 C81.2,300.7 81.8,300.9 82.3,300.9 C82.5,300.9 82.8,300.8 83,300.7 L90,297.6 L90.7,298.4 C91.2,299 92.1,299.2 92.8,298.9 L105.1,293.4 C105.8,293.1 106.2,292.4 106.2,291.7 L106.2,290.4 L127.8,280.8 C128.3,280.6 128.6,280.2 128.8,279.8 L129.5,277.8 L133,276.2 C133.5,276.5 134.1,276.5 134.6,276.3 L135,276.1 C135.5,276.5 136.2,276.6 136.8,276.3 L195.8,250 C196.5,249.7 196.9,249 196.9,248.3 L196.8,246 L205.3,242.2 L207.2,244.4 C207.7,245 208.6,245.2 209.3,244.9 L225.5,237.7 L233.5,247.3 C234,247.9 234.9,248.1 235.6,247.8 L247.9,242.3 C248.6,242 249,241.3 249,240.6 L248.9,237.9 L254,244 L254.1,246.9 C254.1,247.3 254.3,247.7 254.5,248 L257.6,251.6 C258.1,252.2 258.8,252.4 259.5,252.2 L262,255.2 C262.3,255.5 262.7,255.7 263.1,255.8 L265.6,256.2 C265.9,256.3 266.3,256.2 266.6,256.1 L267.6,255.6 C268.1,255.4 268.4,255 268.6,254.6 L269.1,253.1 L273.2,253.8 L273.3,255.5 C273.3,255.9 273.5,256.3 273.7,256.6 L274.3,257.3 C274.6,257.6 275,257.8 275.4,257.9 L277.9,258.3 C278.2,258.4 278.6,258.3 278.9,258.2 L310.2,244.3 C310.6,244.1 311,243.7 311.2,243.3 L311.8,241.5 C311.9,241.3 311.9,241.1 311.9,240.8 L311.8,237.9 L311.8,237.7 L312.5,235.8 L313.3,235.4 C313.8,235.2 314.1,234.8 314.3,234.4 L314.7,233.2 C314.8,233 314.8,232.8 314.8,232.6 L314.7,229.7 L314.7,229.1 L314.7,228.7 C314.9,228.1 314.7,227.5 314.3,227.1 L312.7,225.2 L311.3,223.2 C311.3,222.8 311.1,222.5 310.9,222.2 L308,219 C307.5,218.4 306.6,218.2 305.9,218.5 L304.6,219.1 L298.4,211.7 L302.6,209.8 L302.7,209.9 C303.2,210.5 304.1,210.7 304.8,210.4 L308.7,208.7 L313.6,214.6 C314.1,215.2 315,215.4 315.7,215.1 L318.8,213.7 C319.2,213.5 319.5,213.2 319.7,212.9 C320.1,213 320.5,213 320.9,212.8 L325.3,210.8 L330.6,217.1 C331.1,217.7 332,217.9 332.7,217.6 L357.9,206.4 C358.6,206.1 359,205.4 359,204.7 L358.9,201.7 L358.9,201.2 L358.9,200.8 C358.9,200.8 358.9,200.8 358.9,200.7 C359,200.2 358.9,199.6 358.5,199.1 L353.6,193.3 L367.5,187.1 L375.5,196.6 C376,197.2 376.9,197.4 377.6,197.1 L387.9,192.5 C388.6,192.2 389,191.5 389,190.8 L388.9,187.8 L388.9,187.3 L388.9,186.9 C388.9,186.9 388.9,186.9 388.9,186.8 C389,186.2 388.9,185.7 388.5,185.2 L380.5,175.7 L384.3,174 C384.4,174.2 384.5,174.3 384.6,174.5 L387.7,178.1 C388.2,178.7 389.1,178.9 389.8,178.6 L392.9,177.2 C393.4,177 393.7,176.6 393.9,176.2 L395.8,170.7 L396,170.7 C396.3,170.8 396.7,170.7 397,170.6 L403.5,167.7 L410.8,168.9 C411.1,169 411.5,168.9 411.8,168.8 L424.1,163.3 C424.5,163.1 424.9,162.7 425.1,162.3 L425.5,161.3 L436.6,156.3 L446.4,157.6 C447.2,157.7 448.1,157.2 448.3,156.4 L450.7,149.4 L474.6,138.7 C475.3,138.4 475.7,137.7 475.7,137 L475.4,134.1 L475.4,134.1 Z M475.4,134.1"
                class="outline"/>
        </g>
        <g class="label">
            <path d="M105,29.8 C104.7,29.4 104.4,29.1 104,28.8 C105.4,28.3 106.4,27.3 106.4,25.8 C106.4,23.9 105.1,22.6 102.2,22.6 C101.1,22.6 100.3,22.7 99.8,22.9 C99.4,23 99.3,23.3 99.3,23.7 L99.3,33.4 C99.3,33.8 99.6,34 99.9,34 C100.3,34 100.5,33.8 100.5,33.4 L100.5,29.2 L101.7,29.2 C102.9,29.2 103.3,29.7 103.9,30.6 C104.3,31.2 104.7,32.2 105.2,33.6 C105.3,33.9 105.5,34 105.8,34 C106.1,34 106.4,33.8 106.4,33.4 C106.4,33.3 106.4,33.1 106.3,33 C106,31.8 105.5,30.6 105,29.8 L105,29.8 L105,29.8 Z M102,28 L100.6,28 L100.6,24 C101,23.9 101.5,23.9 102.2,23.9 C104.5,23.9 105.2,24.8 105.2,26 C105.1,27.5 103.5,28 102,28 L102,28 L102,28 Z M57.4,22.7 C57.1,22.7 56.9,23 56.8,23.3 C56.4,26.4 55.8,29.4 55,32.5 L55,32.5 C54.1,29.7 53.4,26.3 52.7,24 C52.4,23 52.1,22.7 51.6,22.7 C51.2,22.7 50.8,23 50.6,23.9 C49.9,26.2 49,29.9 48.2,32.5 L48.2,32.5 C47.4,29.4 47,26.4 46.6,23.3 C46.5,22.9 46.3,22.7 45.9,22.7 C45.5,22.7 45.3,23 45.3,23.3 L45.3,23.7 C45.7,26.8 46.3,30 47,32.7 C47.2,33.7 47.6,34 48.1,34 C48.6,34 48.9,33.7 49.2,32.9 C50.1,30.4 50.7,27.7 51.6,24.5 L51.6,24.5 C52.6,27.7 53.1,30.4 53.9,32.9 C54.2,33.8 54.5,34 55,34 C55.5,34 55.8,33.7 56,32.9 C56.8,29.9 57.4,26.8 57.9,23.6 L57.9,23.2 C58,22.9 57.8,22.7 57.4,22.7 L57.4,22.7 L57.4,22.7 Z M39.4,22.6 C36.5,22.6 34.7,24.9 34.7,28.5 C34.7,31.9 36.5,34 39.4,34 C42.3,34 44.1,31.6 44.1,28 C44.1,24.7 42.2,22.6 39.4,22.6 L39.4,22.6 L39.4,22.6 Z M39.4,32.9 C37.3,32.9 36,31.2 36,28.6 C36,25.6 37.2,23.8 39.4,23.8 C41.6,23.8 42.8,25.5 42.8,28 C42.8,31 41.5,32.9 39.4,32.9 L39.4,32.9 L39.4,32.9 Z M111.6,27.6 C110.2,27.1 109.4,26.7 109.4,25.5 C109.4,24.4 110.3,23.8 111.4,23.8 C112.1,23.8 112.6,23.9 113.1,24.1 C113.3,24.1 113.4,24.2 113.6,24.2 C113.9,24.2 114.2,24 114.2,23.6 C114.2,23.4 114.1,23.2 113.7,23 C113.2,22.8 112.3,22.6 111.6,22.6 C109.4,22.6 108.1,23.9 108.1,25.6 C108.1,27.2 109.2,28 110.8,28.6 C112.9,29.4 113.5,30 113.5,31 C113.5,32.1 112.6,32.9 111.2,32.9 C110.3,32.9 109.5,32.6 109,32.2 C108.7,32 108.6,31.9 108.4,31.9 C108.1,31.9 107.8,32.1 107.8,32.4 C107.8,32.7 107.9,32.9 108.2,33 C108.9,33.5 110,34 111.2,34 C113.4,34 114.8,32.7 114.8,30.9 C114.7,29.3 113.5,28.3 111.6,27.6 L111.6,27.6 L111.6,27.6 Z M28.1,22.6 C27.5,22.6 26.5,22.6 25.9,22.8 C25.5,22.9 25.3,23.2 25.3,23.6 L25.3,33.1 C25.3,33.5 25.4,33.8 26,33.9 C26.5,34 27.2,34.1 28.2,34.1 C31.7,34.1 33.3,31.6 33.3,28.4 C33.3,25 31.8,22.6 28.1,22.6 L28.1,22.6 L28.1,22.6 Z M28.3,32.9 C27.6,32.9 27.1,32.9 26.6,32.8 L26.6,23.9 C27.1,23.8 27.7,23.8 28.2,23.8 C31.1,23.8 32.2,25.7 32.2,28.2 C32.1,31 31,32.9 28.3,32.9 L28.3,32.9 L28.3,32.9 Z M85.5,23.3 C85.5,23 85.3,22.7 84.9,22.7 L78,22.7 C77.6,22.7 77.4,23 77.4,23.3 C77.4,23.6 77.6,23.9 78,23.9 L80.8,23.9 L80.8,33.3 C80.8,33.7 81.1,33.9 81.4,33.9 C81.7,33.9 82,33.7 82,33.3 L82,23.9 L84.9,23.9 C85.3,23.9 85.5,23.6 85.5,23.3 L85.5,23.3 L85.5,23.3 Z M91.1,24.1 C90.5,22.9 90,22.5 89.4,22.5 C88.8,22.5 88.3,22.9 87.7,24.1 C86.8,25.9 86.1,28.2 84.9,32.8 C84.8,33 84.8,33.2 84.8,33.3 C84.8,33.7 85.1,33.9 85.4,33.9 C85.7,33.9 85.9,33.7 86,33.4 C86.3,32 86.6,30.8 86.9,29.7 L91.8,29.7 C92.1,30.8 92.4,32 92.7,33.4 C92.8,33.7 93,33.9 93.3,33.9 C93.7,33.9 93.9,33.7 93.9,33.3 C93.9,33.2 93.9,33 93.8,32.8 C92.7,28.2 92,26 91.1,24.1 L91.1,24.1 L91.1,24.1 Z M87.3,28.7 C88,26.3 88.7,24.7 89.2,23.9 C89.2,23.8 89.3,23.8 89.4,23.8 C89.5,23.8 89.6,23.9 89.6,23.9 C90.1,24.7 90.8,26.2 91.5,28.7 L87.3,28.7 L87.3,28.7 Z M67.7,22.7 C67.3,22.7 67.1,23 67.1,23.4 L67.1,32 L61.5,23.3 C61.3,23 61,22.8 60.7,22.8 C60.2,22.8 59.9,23.1 59.9,23.7 L59.9,33.5 C59.9,33.9 60.2,34.1 60.5,34.1 C60.9,34.1 61.1,33.9 61.1,33.5 L61.1,24.8 L66.6,33.6 C66.8,33.9 67.1,34.1 67.4,34.1 C67.9,34.1 68.2,33.7 68.2,33.3 L68.2,23.5 C68.2,22.9 68,22.7 67.7,22.7 L67.7,22.7 L67.7,22.7 Z M96.3,22.7 C95.9,22.7 95.7,23 95.7,23.4 L95.7,33.4 C95.7,33.8 96,34 96.3,34 C96.7,34 96.9,33.8 96.9,33.4 L96.9,23.4 C96.9,22.9 96.7,22.7 96.3,22.7 L96.3,22.7 L96.3,22.7 Z M73.8,27.6 C72.4,27.1 71.6,26.7 71.6,25.5 C71.6,24.4 72.5,23.8 73.6,23.8 C74.3,23.8 74.8,23.9 75.3,24.1 C75.5,24.1 75.6,24.2 75.8,24.2 C76.1,24.2 76.4,24 76.4,23.6 C76.4,23.4 76.3,23.2 75.9,23 C75.4,22.8 74.5,22.6 73.8,22.6 C71.6,22.6 70.3,23.9 70.3,25.6 C70.3,27.2 71.4,28 73,28.6 C75.1,29.4 75.7,30 75.7,31 C75.7,32.1 74.8,32.9 73.4,32.9 C72.5,32.9 71.7,32.6 71.2,32.2 C70.9,32 70.8,31.9 70.6,31.9 C70.3,31.9 70,32.1 70,32.4 C70,32.7 70.1,32.9 70.4,33 C71.1,33.5 72.2,34 73.4,34 C75.6,34 77,32.7 77,30.9 C76.9,29.3 75.6,28.3 73.8,27.6 L73.8,27.6 L73.8,27.6 Z M73.8,27.6"
                class="Shape"/>
        </g>
        <g class="background">
            <path d="M252.2,183.4 L242.5,172.5 L242.5,172.7 L236.4,165.9 L237.2,163.5 L239.3,162.6 L232.8,154.9 L226.3,153.8 L234.3,127.4 L201.1,142.3 L219.1,157 L217.6,161.2 L221.6,165.9 L228.2,167 L231,187.5 L233.4,191.4 L245.3,186.2 L245.5,186.5 L252.2,183.4 Z M252.2,183.4"
                class="walkway"/>
            <path d="M251.5,191 L247,185.5 L225,195 L221,198.3 L218.8,195.5 L218.7,196.8 L219.6,197.9 L219.2,199.1 L177.1,217.8 L168.1,216.3 L162.4,218.8 L159.4,228.7 L109.6,250.9 L128,272.8 L127.1,275.5 L128.6,276 L136.8,272.3 L136.9,270.8 L135.9,271.2 L135.3,270.5 L133.8,271.2 L122.1,257.3 L124.2,253.9 L138.5,247.5 L139.5,243.6 L166.7,231.5 L167.3,232.2 L170.9,230.6 L171.5,228.8 L179.7,225.2 L180.5,222.8 L236.5,202 L246.5,203.5 L247.6,200.9 L251.5,191 Z M251.5,191"
                class="walkwayred"/>
            <path d="M209,140 L182.5,108.5 L185.7,127.3 L181.1,129.3 L159.7,125.8 L157.3,122.9 L149.1,121.5 L144,123.8 L141.9,129.7 L137.3,131.8 L136.9,133 L133.3,134.6 L131.6,134.3 L127,136.3 L126.6,137.5 L124,138.7 L122.4,138.4 L118.8,140 L90.1,135.2 L89.2,134.1 L78.5,132.4 L62,133.7 L59.5,134.8 L57.8,134.6 L56.3,132.7 L53.2,134.1 L51.6,138.9 L53.4,141 L54.9,140.4 L57.4,140.8 L58.9,142.6 L63.9,143.4 L66.3,141.3 L75.3,140.3 L80.6,141.5 L82.7,141.5 L86.8,142.2 L87.4,142.9 L88.5,142.5 L93.4,143.3 L94,144 L95,143.6 L97.8,144.4 L99.4,144.6 L100.4,144.2 L107,145.3 L106.6,146.5 L108.2,146.7 L108.6,145.5 L114.4,146.5 L115,147.2 L116.6,147.5 L119.7,151.1 L129.9,146.6 L134.6,144.5 L139.7,142.2 L144.8,139.9 L147.2,139.4 L152.3,137.1 L153.4,134.1 L158,132.1 L196,138.5 L202.5,143.5 L209,140 Z M209,140"
                class="walkwayyellow"/>
            <path d="M401.6,162 L390.6,148.8 L391.6,145.9 L397.8,143.1 L393.5,138 L390.2,137.5 L390.8,135.7 L387.2,131.3 L385.5,131 L371.7,137.2 L369.9,143.5 L340.1,156.8 L336,156.1 L335.4,155.3 L330.3,157.6 L330.9,158.4 L329.7,161.9 L273.2,187.1 L269.9,186.5 L268.1,184.3 L256.3,182 L256,182 L247,185.5 L251.5,191 L247.6,200.9 L247.3,201.9 L261.6,204.3 L264.5,203 L272.9,199.2 L274.7,193.9 L274.1,193.2 L326.5,169.9 L331.1,167.8 L335.2,168.5 L345.4,163.9 L346.5,161 L373.2,149.1 L381.4,150.4 L393.9,165.4 L393.4,168.1 L395.9,168.5 L404.6,164.7 L405.3,162.6 L401.6,162 Z M401.6,162"
                class="walkwaygreen"/>
            <path d="M308.9,26.3 L275,41.4 L264.2,46.2 L255.7,47 L255.5,49.7 C254.7,49.9 253.9,50.1 253.1,50.5 C252.2,50.9 251.4,51.4 250.6,52 C248.5,53.7 247.5,55.8 247.8,57.4 L254.6,58.5 L262,67.3 L260.3,72.1 L261.2,73.2 L260.4,75.6 L225.8,90 L220.6,89.1 L214.5,91.7 L214,92 L213.6,93.1 L212.7,95.5 L182.6,108.5 L209,140 L243,123 L229.9,101.1 L231.8,95.8 L267.2,80 L274.6,81.2 L280,79.3 L281.5,78.6 L284.2,70.9 L278.1,63.6 L279.6,62.9 L278.7,61.8 L272.5,64.5 L269.2,64 L261.2,54.5 L263.3,48.6 L307,29.1 L312.2,35.3 L315.3,33.9 L308.9,26.3 L308.9,26.3 Z M308.9,26.3"
                class="walkwayblue"/>
            <path d="M56.1,134.2 L56.2,136.1 L58,138.3 L59.6,138.6 L60.4,138.3 L60.2,141.8 L63.3,142.3 L64.3,139.3 L64.4,137.3 L78.6,136.2 L89.3,138 L90.2,139.1 L118.9,143.9 L122.5,142.3 L124.1,142.6 L126.7,141.5 L127.1,140.3 L131.7,138.2 L133.3,138.5 L136.9,136.9 L137.3,135.7 L141.9,133.6 L144,127.7 L149.1,125.4 L157.3,126.8 L159.8,129.7 L174.4,132.1 L180.8,133.2 L181.3,133.3 L185.8,131 L186.8,128.2 L201.7,121.6 L205.8,122.3 L210.4,120.2 L215,105.6 L215,104.6 L214.9,102 L214.9,102.1 L214.9,101.5 L212.9,99 L214,95.9 L221.4,92.5 L228.3,93.6 L260.6,79.2 L261.4,76.8 L261.3,73.4 L262.1,71 L262,66.9 L254.6,58.1 L223.8,53.3 L218.7,55.6 L218.8,59.7 L227.6,70.1 L227.5,70.2 L226.9,69.5 L224.3,70.6 L222.8,68.8 L212.5,73.4 L209.7,70.1 L189.7,79 L190,83 L194.5,88.3 L191.8,89.5 L190.3,87.7 L189.8,87.9 L189.8,88.9 L189.4,89.1 L188.8,88.4 L155.4,103.3 L155.5,107.4 L160.6,113.5 L160.5,113.6 L155.6,107.8 L153,108.9 L144.4,98.7 L134.1,103.3 L127.7,95.6 L122.6,97.9 L121.4,101.5 L113.7,104.9 L109.5,104.2 L109.6,103.9 L109.5,99.8 L106.2,99.2 L103.9,105.7 L83.3,102.3 L84,100.3 L83.9,96.2 L79.8,95.5 L78.4,99.7 L64.8,97.7 L61.9,106 L57,105.2 L56,108.2 L56.1,112.3 L62.8,113.4 L57.7,127.9 L49.5,126.5 L48.7,128.9 L48.8,133 L56.1,134.2 L56.1,134.2 Z M473.6,133 L422.4,72.1 L373.7,93.8 L370.3,89.8 L357.5,95.5 L357.6,99.6 L372.5,117.3 L360.1,122.8 L360.2,126.9 L363.8,131.1 L354.9,135 L351.5,131 L306.9,150.9 L307,155 L307.5,155.6 L304.8,156.8 L302,153.5 L296.4,156 L290.6,149.1 L271.1,157.8 L271.2,161.9 L271.4,162.1 L271.3,162.2 L271.4,166.3 L271.9,166.9 L266.1,169.5 L262.2,164.9 L263.3,164.4 L263.2,160.3 L260.3,156.8 L269.7,152.6 L269.6,148.5 L265,143 L259.9,145.3 L244.3,127 L247,125.8 L246.9,121.7 L241.1,114.8 L240.1,115.3 L239.6,114.8 L239.6,114.7 L242.8,113.3 L244,114.8 L259.4,107.9 L260,108.6 L273.9,102.4 L273.8,100.4 L277.3,98.9 L277.3,97.4 L308.2,83.6 L308.1,79.5 L307.6,78.9 L310.8,77.5 L321.5,90.3 L346.1,79.3 L346,75.2 L338.2,65.9 L345,62.9 L347.8,66.2 L352.4,64.1 L352.3,60 L352.1,59.8 L363,54.9 L365.8,58.2 L370.4,56.1 L370.3,52 L370.1,51.8 L390.2,42.8 L393,46.1 L396.6,44.5 L396.5,40.4 L396.3,40.2 L396.4,40.1 L396.3,36 L372.5,7.6 L370.4,8.5 L369.2,7 L365.1,8.8 L365.2,10.8 L343.3,20.6 L341.5,18.4 L336.4,20.7 L336.5,24.2 L312.4,34.9 L307.2,28.7 L275.2,42.9 L275.1,40.9 L266.8,31.1 L299.7,9.6 L299.6,5.5 L296.1,3 C296,3 294.2,2.4 281.5,7.5 C280.7,7.8 279.8,8.2 279,8.6 C267,13.9 254.8,22.3 254.1,22.7 L251.3,19.4 L248.7,20.5 L248.8,24.6 L249.5,25.4 C247.3,26.7 244,28.8 241.5,31.2 C237.6,34.9 234.8,40.5 234.7,40.7 L234.8,44.8 L237.2,46.8 L251.1,38 C252.5,39 254.4,39.4 256.5,39.2 L256.2,46.1 L256.3,50.2 L262.7,49.8 L261.3,53.8 L261.4,57.9 L269.4,67.4 L272.7,67.9 L273,67.8 L273,70.3 L275.3,73 L279,71.4 L279,67.8 L283.3,72.9 L281.6,77.8 L280.5,78 L274.3,80.6 L266.2,79.5 L266.3,79.6 L231.8,95 L229.9,100.3 L223.7,103.1 L223,105.1 L223.1,105.1 L212.2,136.3 L212.3,138 L211.7,137.3 L208,138.9 L208,143 L204.7,139.1 L193.2,137.2 L189.2,136.7 L189.2,136.6 L173.6,134 L157.9,131.4 L153.3,133.5 L152.3,136.5 L147.2,138.8 L146.4,138.7 L144.9,139.4 L144.7,140 L143.9,139.9 L139.8,141.7 L139.6,142.3 L138.8,142.2 L134.7,144 L134.5,144.6 L133.7,144.5 L130.1,146.1 L129.9,146.7 L129.1,146.6 L119.9,150.7 L116.8,147.1 L115.2,146.8 L114.6,146.1 L108.9,145.2 L108.5,146.4 L107.3,146.2 L107.3,144.9 L100.7,143.8 L99.7,144.3 L97.8,143.7 L95.3,143.3 L94.3,143.8 L93.7,143.1 L88.8,142.3 L87.8,142.8 L87.2,142.1 L82.6,141.6 L80.7,141 L75.8,140.2 L66.8,141.2 L64.3,143.3 L59.4,142.5 L57.9,140.7 L55.4,140.3 L48.2,143.5 L48.3,147.6 L48.5,147.8 L2.3,167.9 L2.4,172 L26,200.1 L98.7,167.7 L98.7,169.2 L100.8,171.8 L102.3,171.1 L104.4,170.2 L108.5,168.4 L108.4,164.3 L107.9,163.7 L111.1,162.3 L120,172.9 L180,146.2 L181.5,148 L186.6,145.7 L186.9,146 L187,148.8 L186.5,149 L186.6,153.1 L215.3,187.3 L214.1,187.8 L212.5,187.5 L211.9,186.8 L207,189 L206.9,185 L203.2,180.6 L195.5,184 L180.2,165.8 L139.1,184.1 L139.2,188.2 L160.2,213.2 L159,213.7 L155,209 L142.2,214.7 L132,202.4 L105.3,214.3 L105.4,218.4 L110.8,224.8 L94.3,232.2 L91.5,228.9 L73,237.1 L69.4,232.9 L93.1,222.3 L93,218.2 L72,193 L6.8,222 L6.9,226.1 L32.3,256.4 L44.5,251 L44.6,253.5 L50.6,260.7 L47.9,261.9 L48,266 L58.1,278 L62.7,275.9 L64.7,278.3 L63,279 L63.1,283.1 L73.5,295.5 L77.6,293.7 L82.2,299.2 L90.4,295.5 L91.9,297.3 L104.2,291.8 L104.1,289.3 L126.8,279.2 L127.8,276.2 L127.7,272.1 L111.9,253.3 L159.2,232.2 L162.2,222.3 L167.8,219.8 L176.8,221.3 L197.7,212 L210.2,206.4 L218.9,202.5 L219.3,201.3 L219.3,199.8 L220.8,201.6 L237.4,194.2 L238.2,191.8 L241.3,190.4 L242.3,187.4 L242.2,183.3 L227.8,166.1 L221.2,165 L218.3,161.6 L218.8,160.3 L218.7,156.2 L210.1,145.9 L213.6,144.3 L213.6,142.3 L226,157.1 L232.5,158.2 L236.6,163.1 L235.9,165 L236,169.1 L248.6,184.1 L256.3,185.7 L262,186.7 L262,189.8 L264.3,192.5 L268,190.9 L268,188 L269.6,189.9 L272.9,190.4 L313.3,172.4 L313.3,173.1 L314.3,174.3 L273.6,192.4 L273.7,194.7 L272.4,198.5 L261.1,203.5 L248,201.3 L248,197.5 L245.7,194.8 L242,196.4 L242,200.3 L240.6,200.1 L239.1,198.3 L235,197.6 L211.3,208.1 L192.1,216.7 L180.1,222 L179.3,224.4 L171.1,228.1 L170.5,229.9 L166.9,231.5 L166.3,230.8 L139.1,242.9 L138.2,246.8 L123.8,253.2 L121.7,256.6 L121.8,260.7 L133.4,274.6 L134.9,273.9 L135.5,274.6 L194.5,248.3 L194.4,244.8 L205.2,240 L208,243.3 L225.4,235.5 L234.3,246.1 L246.6,240.6 L246.5,236.5 L242.9,232.3 L245.1,231.3 L255.2,243.3 L255.3,246.8 L258.4,250.4 L259.4,249.9 L262.8,253.9 L265.3,254.3 L266.3,253.8 L267.3,250.8 L274.4,252 L274.5,255.2 L275.1,255.9 L277.6,256.3 L308.9,242.4 L309.5,240.6 L309.4,237.2 L310.5,234.2 L312,233.5 L312.4,232.3 L312.3,228.2 L308.8,223.2 L306,219.9 L303.4,221 L294.6,210.6 L302.4,207.1 L303.3,208.2 L308.4,205.9 L314.2,212.8 L317.3,211.4 L317.2,207.9 L319.4,210.5 L325,208 L331.1,215.3 L356.3,204.1 L356.2,200 L349.6,192.1 L367.2,184.3 L376.1,194.9 L386.4,190.3 L386.3,186.2 L376.6,174.7 L383.4,171.7 L383.3,167.6 L379.4,163 L379.5,162.9 L385,169.4 L385.1,172.9 L388.2,176.5 L391.3,175.1 L393.6,168.6 L393.5,164.5 L388.8,158.9 L380.6,149.2 L372.5,148.3 L364.2,152 L352.9,157 L346.1,160 L345.1,163 L340.2,165.2 L334.8,167.6 L333.4,167.4 L333.4,167.5 L330.7,167.1 L326.1,169.2 L321.7,171.2 L321.7,168.9 L329.5,165.4 L330.7,161.8 L330.7,160.8 L335.3,158.8 L335.9,159.5 L336.4,159.6 L339,160 L340,160.2 L352.3,154.7 L369.8,146.9 L371.6,140.6 L371.9,140.4 L381.3,136.2 L385.4,134.4 L387,134.7 L390,138.2 L390.1,140.8 L393.4,141.3 L395.1,143.3 L391.4,145 L390.4,148 L390.6,152.2 L394,156.3 L401.5,165.3 L410.5,166.8 L422.8,161.3 L423.4,159.5 L435.7,154 L446,155.4 L448.7,147.7 L473.3,136.7 L473.6,133 L473.6,133 Z M251,34 L251,34 C251.2,34.1 251.4,34.2 251.6,34.4 C251.4,34.2 251.2,34.1 251,34 L251,34 Z M277.8,66 L278.2,65.8 L278.2,66.5 L277.8,66 L277.8,66 Z M55.9,244.3 L55.8,241.8 L55.3,241.3 L55.3,241.2 L58.1,240 L58.2,242 L59,243 L55.9,244.3 L55.9,244.3 Z M55.9,244.3"
                class="wall"/>
        </g>
        <g class="ceilings">
            <path class="unit" d="M285.4,187.5 L293,196.5 L292.6,197.6 L274.4,194.3 L274.8,193.2 L274.2,192.4 L285.4,187.5 Z M285.4,187.5" id="1001"/>
            <path class="unit" d="M269.5,45.1 L274.7,51.2 L263.5,56.2 L261.4,53.7 L263.5,47.8 L269.5,45.1 Z M269.5,45.1" id="1002"/>
            <path class="unit" d="M319.9,166.5 L322,169 L315.9,171.8 L313.7,169.2 L319.9,166.5 Z M319.9,166.5" id="1003"/>
            <path class="unit" d="M155.4,208.7 L159.3,213.5 L166.9,210.1 L171.5,215.5 L171.3,216.1 L168.1,215.6 L162.5,218.1 L161.6,221 L160.7,220.8 L151.9,210.3 L155.4,208.7 Z M155.4,208.7"
                id="1005"/>
            <path class="unit" d="M173.1,207.4 L180.1,215.8 L177.2,217.1 L171.6,216.1 L171.8,215.5 L167.2,210 L173.1,207.4 Z M173.1,207.4" id="1006"/>
            <path class="unit" d="M401.1,150.6 L406.8,157.4 L405.2,161.8 L401.7,161.2 L395,153.3 L401.1,150.6 Z M401.1,150.6" id="1007"/>
            <path class="unit" d="M398,146.9 L400.9,150.4 L394.9,153.1 L392,149.6 L398,146.9 Z M398,146.9" id="1008"/>
            <path class="unit" d="M307.1,28.4 L309.8,31.6 L298.6,36.5 L295.9,33.4 L307.1,28.4 Z M307.1,28.4" id="1009"/>
            <path class="unit" d="M295.7,33.5 L298.4,36.7 L289.9,40.4 L287.2,37.2 L295.7,33.5 Z M295.7,33.5" id="1010"/>
            <path class="unit" d="M251.4,19.1 L254.2,22.4 C254.8,22 267,13.6 279,8.3 C279.8,7.9 280.7,7.6 281.5,7.2 C294.1,2.1 296,2.7 296.1,2.7 L299.6,5.2 L265.9,27.2 C265.9,27.3 265.7,28.4 265.5,29.2 L275.1,40.7 L264.3,45.5 L255.8,46.3 L256.7,35 C254.5,35.2 252.5,34.8 251,33.8 L237.1,42.6 L234.7,40.6 C234.8,40.3 237.6,34.8 241.5,31.1 C245.4,27.4 251.5,24.2 251.8,24 L248.7,20.4 L251.4,19.1 L251.4,19.1 Z M251.4,19.1"
                id="1011"/>
            <path class="unit" d="M274.8,51.4 L281.8,59.7 L272.7,63.8 L269.4,63.2 L263.6,56.4 L274.8,51.4 Z M274.8,51.4" id="1012"/>
            <path class="unit" d="M341.5,18.1 L343.3,20.3 L366.4,10 L365.2,8.5 L369.3,6.7 L370.5,8.2 L372.6,7.3 L396.2,35.4 L393.6,36.5 L396.3,39.8 L392.8,41.4 L390,38.1 L367.4,48.2 L370.2,51.4 L365.6,53.5 L362.8,50.2 L349.5,56.2 L352.2,59.4 L347.6,61.5 L344.8,58.2 L335.7,62.3 L312.4,34.5 L338.5,22.9 L336.3,20.4 L341.5,18.1 Z M341.5,18.1"
                id="1013"/>
            <path class="unit" d="M273,66.3 L276.7,64.6 L279,67.4 L275.3,69 L273,66.3 Z M273,66.3" id="1014"/>
            <path class="unit" d="M224.2,52.9 L254.9,57.7 L262.2,66.4 L260.5,71.2 L261.5,72.3 L260.6,74.6 L247.4,80.5 L224.2,52.9 Z M224.2,52.9" id="1015"/>
            <path class="unit" d="M223.9,52.9 L247.2,80.6 L237.2,85.1 L224.6,70.1 L227,69.1 L227.6,69.8 L230.2,68.6 L218.9,55.1 L223.9,52.9 Z M223.9,52.9"
                id="1016"/>
            <path class="unit" d="M284.1,69.9 L288.2,70.5 L290.6,69.4 L298.6,78.9 L305.4,75.9 L308.1,79.1 L294.3,85.2 L283.6,72.3 L284.3,70.1 L284.1,69.9 Z M284.1,69.9"
                id="1017"/>
            <path class="unit" d="M287,37.3 L289.8,40.7 L309.9,31.8 L312.3,34.6 L335.5,62.4 L346,74.7 L321.4,85.7 L310.7,72.9 L305,75.4 L305.2,75.7 L298.7,78.6 L290.7,69.1 L288.1,70.3 L283.9,69.6 L278.2,62.8 L279.7,62.1 L279,61.2 L282.2,59.8 L269.8,45 L287,37.3 Z M287,37.3"
                id="1018"/>
            <path class="unit" d="M222.8,68.4 L236.9,85.2 L227.3,89.5 L226.7,89.4 L212.8,72.9 L222.8,68.4 Z M222.8,68.4" id="1019"/>
            <path class="unit" d="M209.9,69.7 L212.7,72.9 L212.5,73 L226.2,89.3 L220.7,88.4 L214.2,91.3 L199.8,74.2 L209.9,69.7 Z M209.9,69.7" id="1020"/>
            <path class="unit" d="M283.4,72.6 L294.1,85.3 L279,92.1 L270.1,81.5 L270.7,79.8 L274.7,80.4 L279.8,78.1 L280.1,78.5 L281.6,77.8 L283.4,72.6 Z M283.4,72.6"
                id="1021"/>
            <path class="unit" d="M199.5,74.3 L214,91.5 L212,97.2 L203.3,96.1 L199.2,97.8 L191.9,89.2 L197,87 L189.9,78.6 L199.5,74.3 Z M199.5,74.3"
                id="1022"/>
            <path class="unit" d="M267.3,79.2 L270.4,79.7 L269.8,81.6 L278.7,92.2 L276.3,93.3 L277.2,94.3 L272.6,96.4 L273.8,97.9 L267.2,100.8 L254.1,85.1 L267.3,79.2 Z M267.3,79.2"
                id="1024"/>
            <path class="unit" d="M253.8,85.2 L267,100.9 L261.6,103.3 L248.4,87.6 L253.8,85.2 Z M253.8,85.2" id="1025"/>
            <path class="unit" d="M248.2,87.7 L261.3,103.4 L259.9,104 L259.3,103.3 L254.8,105.3 L242.3,90.3 L248.2,87.7 Z M248.2,87.7" id="1026"/>
            <path class="unit" d="M242,90.5 L254.6,105.4 L249.7,107.6 L237.1,92.6 L242,90.5 Z M242,90.5" id="1027"/>
            <path class="unit" d="M229.4,100.6 L235.7,108.2 L234.4,108.7 L232.6,106.6 L231.5,107.1 L221.7,109.2 L223.9,103.1 L229.4,100.6 Z M229.4,100.6"
                id="1028"/>
            <path class="unit" d="M236.9,92.7 L249.4,107.7 L243.9,110.2 L231.7,95.6 L231.9,95 L236.9,92.7 Z M236.9,92.7" id="1029"/>
            <path class="unit" d="M231.6,95.8 L242.5,108.8 L238.2,110.7 L229.6,100.5 L230,100.3 L231.6,95.8 Z M231.6,95.8" id="1030"/>
            <path class="unit" d="M203.3,96.3 L212.1,97.5 L215,101 L211.2,113 L199.4,98.9 L199.8,97.8 L203.3,96.3 Z M203.3,96.3" id="1031"/>
            <path class="unit" d="M199.3,99.2 L211.1,113.3 L210.4,115.6 L205.8,117.6 L201.7,116.9 L201.3,117.1 L195.5,110.2 L199.3,99.2 Z M199.3,99.2"
                id="1032"/>
            <path class="unit" d="M221.6,109.5 L231.6,107.2 L232.5,106.8 L234.3,109 L235.9,108.4 L237.3,110 L218.5,118.3 L221.6,109.5 Z M221.6,109.5"
                id="1033"/>
            <path class="unit" d="M237.4,110.2 L237.9,110.8 L238.1,110.8 L239.6,112.6 L238.6,113 L239.1,113.7 L232.3,116.7 L232.9,117.4 L220.3,123.1 L217.1,122.5 L218.4,118.6 L237.4,110.2 Z M237.4,110.2"
                id="1034"/>
            <path class="unit" d="M165,122.9 L167.8,123 L171.1,126.9 L160,125.1 L165,122.9 Z M165,122.9" id="1035"/>
            <path class="unit" d="M190.3,87.4 L191.8,89.2 L199.1,98.1 L199.4,98 L195.2,110.3 L201,117.2 L186.8,123.6 L185.8,126.5 L181.1,128.6 L171.5,127 L168.1,122.9 L167.9,122.8 L165,122.7 L159.7,124.9 L157.5,122.3 L159.8,115.7 L165.5,116.7 L166.4,114.1 L164.7,113.8 L163.2,112 L155.4,103 L188.7,88.1 L189.4,88.8 L190.4,88.4 L189.8,87.6 L190.3,87.4 Z M190.3,87.4"
                id="1036"/>
            <path class="unit" d="M217,122.7 L220.3,123.3 L233.3,117.5 L232.7,116.8 L239.3,113.9 L240.1,114.9 L241.1,114.4 L244.1,118 L219,129.1 L215,128.5 L217,122.7 Z M217,122.7"
                id="1037"/>
            <path class="unit" d="M64.6,97.3 L78.2,99.2 L79.7,95.1 L83.8,95.7 L81.7,101.7 L97.9,104.4 L95.8,110.4 L116.7,113.9 L112.2,127 L97.8,125 L93.1,127.1 L89.9,134.1 L89.3,133.4 L78.6,131.6 L62.1,132.9 L59.6,134.1 L57.9,133.8 L56.1,131.6 L56.7,129.8 L48.5,128.5 L49.3,126.1 L57.5,127.5 L63.9,109.1 L55.7,107.7 L56.8,104.8 L61.7,105.6 L64.6,97.3 Z M64.6,97.3"
                id="1038"/>
            <path class="unit" d="M135.8,129.4 L137.3,131.2 L136.9,132.2 L133.4,133.8 L131.9,133.6 L130.4,131.8 L135.8,129.4 Z M135.8,129.4" id="1039"/>
            <path class="unit" d="M214.9,128.7 L219.1,129.3 L244.3,118.1 L247,121.3 L241.8,123.6 L223.4,132.1 L214.2,130.8 L214.9,128.7 Z M214.9,128.7"
                id="1040"/>
            <path class="unit" d="M97.8,125.2 L105.9,126.4 L102.4,136.5 L90.2,134.5 L90.1,134.4 L93.3,127.2 L97.8,125.2 Z M97.8,125.2" id="1041"/>
            <path class="unit" d="M61.3,134.3 L64.6,134.9 L63.6,137.8 L60.4,137.3 L61.3,134.3 Z M61.3,134.3" id="1042"/>
            <path class="unit" d="M208,139.3 L211.7,137.6 L214,140.4 L210.3,142 L208,139.3 Z M208,139.3" id="1044"/>
            <path class="unit" d="M106.1,98.8 L109.4,99.4 L107.9,103.5 L113.7,104.5 L121.4,101.1 L122.6,97.5 L127.7,95.2 L134.2,102.9 L144.4,98.3 L153,108.5 L155.6,107.4 L160.5,113.2 L162.9,112.1 L164.5,114 L166,114.3 L165.3,116.4 L159.5,115.5 L157.2,122.1 L149.2,120.8 L144,123 L142,129 L137.5,131 L135.9,129.1 L130,131.7 L131.6,133.6 L127.2,135.5 L125.6,133.6 L120.2,136 L121.8,137.9 L120.6,138.5 L112,128.3 L117,113.9 L117.1,113.7 L116.8,113.7 L96.2,110.3 L98.2,104.4 L103.8,105.4 L106.1,98.8 Z M106.1,98.8"
                id="1045"/>
            <path class="unit" d="M106.2,126.4 L112.1,127.3 L111.7,128.4 L120.3,138.6 L118.9,139.3 L102.6,136.6 L106.2,126.4 Z M106.2,126.4" id="1046"/>
            <path class="unit" d="M214.1,131 L223,132.2 L212.8,136.9 L212.3,136.3 L214.1,131 Z M214.1,131" id="1047"/>
            <path class="unit" d="M152.3,136.4 L154,138.5 L151.2,139.8 L149.5,137.7 L152.3,136.4 Z M152.3,136.4" id="1048"/>
            <path class="unit" d="M374.9,116 L387,130.5 L385.6,130.3 L371.8,136.5 L360.1,122.6 L374.9,116 Z M374.9,116" id="1049"/>
            <path class="unit" d="M143.9,139.7 L144.5,139.8 L146.7,142.3 L141.8,144.5 L139.6,141.9 L139.8,141.5 L143.9,139.7 Z M143.9,139.7" id="1050"/>
            <path class="unit" d="M182.8,135.5 L194.9,137.5 L189.7,142.2 L188.2,142.9 L186.7,141.1 L181.6,143.4 L180.2,141.8 L182.8,135.5 Z M182.8,135.5"
                id="1051"/>
            <path class="unit" d="M242,123.8 L246.7,129.4 L217.4,142.4 L212.9,137.1 L242,123.8 Z M242,123.8" id="1052"/>
            <path class="unit" d="M161.5,131.9 L165.8,132.6 L162.1,145.4 L158,144.4 L161.5,131.9 Z M161.5,131.9" id="1053"/>
            <path class="unit" d="M138.8,141.9 L139.4,142 L141.5,144.6 L136.6,146.8 L134.5,144.2 L134.7,143.8 L138.8,141.9 Z M138.8,141.9" id="1054"/>
            <path class="unit" d="M133.6,144.2 L134.2,144.3 L136.4,146.9 L132,148.8 L129.9,146.3 L130,145.8 L133.6,144.2 Z M133.6,144.2" id="1055"/>
            <path class="unit" d="M170.2,133.4 L182.5,135.4 L180,141.6 L166.2,147.8 L170.2,133.4 Z M170.2,133.4" id="1056"/>
            <path class="unit" d="M66.4,140.6 L75.4,139.6 L80.3,140.4 L80.6,140.7 L82.3,141 L82.8,140.8 L86.9,141.5 L87.5,142.2 L88.5,141.7 L93.5,142.6 L94,143.2 L91.5,150.3 L63.5,144.4 L64.1,142.5 L66.4,140.6 Z M66.4,140.6"
                id="1057"/>
            <path class="unit" d="M195.2,137.5 L204.8,139.1 L205.6,140.1 L189.2,147.4 L187.1,145 L189.2,144 L188.3,143.1 L189.9,142.4 L195.2,137.5 Z M195.2,137.5"
                id="1058"/>
            <path class="unit" d="M246.8,129.6 L250.6,134.1 L221.4,147.1 L217.6,142.6 L246.8,129.6 Z M246.8,129.6" id="1059"/>
            <path class="unit" d="M129,146.3 L129.6,146.4 L131.8,148.9 L127.4,150.9 L125,148.1 L129,146.3 Z M129,146.3" id="1060"/>
            <path class="unit" d="M166,132.7 L169.9,133.3 L165.8,147.9 L161.1,150 L166,132.7 Z M166,132.7" id="1061"/>
            <path class="unit" d="M158.1,131.3 L161.2,131.9 L157.6,144.6 L162,145.6 L160.7,150.2 L160.2,150.4 L151.4,140 L154.5,138.6 L152.5,136.2 L153.4,133.4 L158.1,131.3 Z M158.1,131.3"
                id="1062"/>
            <path class="unit" d="M95.1,142.8 L97.6,143.2 L97.9,143.6 L98.9,143.8 L96,152.3 L94.1,153.2 L91.7,150.4 L94.3,143.2 L95.1,142.8 Z M95.1,142.8"
                id="1063"/>
            <path class="unit" d="M366,130 L371.7,136.7 L370,142.8 L365.5,144.8 L356.6,134.2 L366,130 Z M366,130" id="1064"/>
            <path class="unit" d="M99.2,143.8 L99.5,143.9 L100.5,143.4 L106.9,144.5 L103.7,151.4 L95.6,155 L94.2,153.4 L96.2,152.5 L99.2,143.8 Z M99.2,143.8"
                id="1065"/>
            <path class="unit" d="M351.6,130.9 L354.9,134.9 L356.4,134.3 L365.2,144.9 L360.4,147 L348.1,132.4 L351.6,130.9 Z M351.6,130.9" id="1066"/>
            <path class="unit" d="M250.8,134.3 L254.3,138.5 L225.1,151.5 L221.5,147.3 L250.8,134.3 Z M250.8,134.3" id="1067"/>
            <path class="unit" d="M347.9,132.6 L360.1,147.2 L354.7,149.6 L345.6,138.7 L347.7,137.8 L344.5,134 L347.9,132.6 Z M347.9,132.6" id="1069"/>
            <path class="unit" d="M189.3,147.5 L189.3,147.6 L205.8,140.3 L212.1,147.8 L193.1,156.2 L186.7,148.7 L189.3,147.5 Z M189.3,147.5" id="1070"/>
            <path class="unit" d="M114.8,146.2 L115.1,146.5 L116.7,146.7 L119.8,150.4 L120.7,150 L126.4,156.8 L117.9,160.6 L116.7,159.1 L115.2,159.8 L112.1,156.2 L110.6,156.9 L108.6,154.5 L110,153.9 L111.8,147.5 L114.8,146.2 Z M114.8,146.2"
                id="1071"/>
            <path class="unit" d="M344.3,134.2 L347.3,137.7 L345.2,138.6 L354.5,149.7 L345,153.9 L335.8,143 L337.9,137 L344.3,134.2 Z M344.3,134.2"
                id="1073"/>
            <path class="unit" d="M212.2,148 L214.5,150.7 L195.5,159.2 L193.2,156.4 L212.2,148 Z M212.2,148" id="1074"/>
            <path class="unit" d="M335.6,143.2 L344.7,154 L340.4,156 L331.2,145.1 L335.6,143.2 Z M335.6,143.2" id="1076"/>
            <path class="unit" d="M214.7,150.9 L217.6,154.4 L198.6,162.8 L195.7,159.3 L214.7,150.9 Z M214.7,150.9" id="1077"/>
            <path class="unit" d="M254.5,138.7 L259.9,145.2 L265,142.9 L269.6,148.3 L257.8,153.6 L257.7,153.5 L257.7,153.4 L239.2,161.7 L232.9,154.2 L226.4,153.1 L225.2,151.7 L254.5,138.7 Z M254.5,138.7"
                id="1078"/>
            <path class="unit" d="M373.3,148.3 L381.4,149.7 L387.2,156.5 L380.5,159.5 L380,158.9 L378.1,159.7 L369.8,149.9 L373.3,148.3 Z M373.3,148.3"
                id="1079"/>
            <path class="unit" d="M108.7,144.8 L114.5,145.7 L114.7,146 L111.6,147.4 L109.8,153.7 L108.2,154.4 L110.5,157.2 L112,156.5 L115.1,160.1 L116.6,159.4 L117.8,160.9 L126.8,156.9 L120.9,149.9 L124.8,148.2 L127.3,151.2 L147.1,142.4 L144.8,139.6 L144.9,139.2 L146.5,138.5 L147.3,138.7 L149.2,137.8 L159.9,150.6 L120,168.3 L111.1,157.7 L105.5,160.3 L108.6,163.9 L104.6,165.7 L95.8,155.2 L103.8,151.6 L106.7,145.7 L108.3,146 L108.7,144.8 Z M108.7,144.8"
                id="1080"/>
            <path class="unit" d="M217.7,154.5 L219.2,156.3 L217.8,160.3 L202.3,167.2 L198.7,163 L217.7,154.5 Z M217.7,154.5" id="1081"/>
            <path class="unit" d="M370.4,89.5 L373.7,93.5 L422.5,71.8 L473.6,132.7 L449,143.7 L446.3,151.4 L436,150 L423.7,155.5 L412.9,160.1 L403.2,148.5 L412.8,160.4 L423.6,155.6 L423,157.2 L410.7,162.7 L405.5,161.9 L407.1,157.4 L398.1,146.7 L391.8,149.5 L390.7,148.1 L391.7,145.1 L397.9,142.4 L393.6,137.3 L390.3,136.7 L390.9,134.9 L387.2,130.6 L375.1,115.9 L357.5,95.2 L370.4,89.5 Z M370.4,89.5"
                id="1082"/>
            <path class="unit" d="M337.5,137.2 L335.5,142.9 L330.8,145 L340,156 L336.1,155.3 L335.5,154.6 L330.4,156.9 L331,157.6 L329.8,161.2 L319.5,165.7 L306.9,150.8 L337.5,137.2 Z M337.5,137.2"
                id="1083"/>
            <path class="unit" d="M217.8,160.5 L221.6,165.1 L206.2,171.9 L202.4,167.4 L217.8,160.5 Z M217.8,160.5" id="1084"/>
            <path class="unit" d="M262.2,158.8 L263.3,160.2 L259.8,161.8 L261.5,163.9 L242.5,172.3 L239.6,168.9 L262.2,158.8 Z M262.2,158.8" id="1085"/>
            <path class="unit" d="M302.1,153.4 L304.9,156.7 L308.5,155.1 L310.9,158 L312.2,157.5 L319.3,165.8 L309.4,170.3 L297.1,155.7 L302.1,153.4 Z M302.1,153.4"
                id="1086"/>
            <path class="unit" d="M369.5,150 L377.8,159.8 L377.4,160 L383.8,167.7 L374.7,171.7 L360,154.2 L369.5,150 Z M369.5,150" id="1087"/>
            <path class="unit" d="M261.7,164 L264.6,167.5 L245.6,176 L242.7,172.5 L261.7,164 Z M261.7,164" id="1088"/>
            <path class="unit" d="M290.6,149 L296.5,156 L296.8,155.8 L309.1,170.4 L300.1,174.4 L282,152.8 L290.6,149 Z M290.6,149" id="1089"/>
            <path class="unit" d="M387.3,156.7 L394,164.6 L391.7,171.2 L388.6,172.5 L385.6,168.9 L387.6,168 L380.7,159.7 L387.3,156.7 Z M387.3,156.7"
                id="1090"/>
            <path class="unit" d="M221.9,165.2 L228.3,166.3 L231.3,169.8 L211.8,178.5 L206.4,172.1 L221.9,165.2 Z M221.9,165.2" id="1091"/>
            <path class="unit" d="M281.8,153 L299.9,174.5 L294.5,176.9 L276.4,155.4 L281.8,153 Z M281.8,153" id="1092"/>
            <path class="unit" d="M276.1,155.5 L294.2,177 L289.2,179.2 L271.1,157.7 L276.1,155.5 Z M276.1,155.5" id="1093"/>
            <path class="unit" d="M267,170.7 L269,173 L260.4,176.9 L257.2,181.8 L256.7,181.7 L256.4,181.3 L249,180.1 L248.2,179.1 L267,170.7 Z M267,170.7"
                id="1094"/>
            <path class="unit" d="M273.7,161.1 L289,179.3 L284.2,181.5 L272,166.9 L274.4,165.8 L271.3,162.1 L273.7,161.1 Z M273.7,161.1" id="1095"/>
            <path class="unit" d="M231.4,170 L235.8,175.3 L216.3,184 L211.9,178.7 L231.4,170 Z M231.4,170" id="1096"/>
            <path class="unit" d="M264.7,167.7 L266.2,169.4 L267.6,168.8 L272.4,174.6 L264.8,178 L263.1,182.7 L257.5,181.8 L260.6,177 L269.4,173.1 L267.1,170.4 L248,178.9 L245.7,176.1 L264.7,167.7 Z M264.7,167.7"
                id="1097"/>
            <path class="unit" d="M271.7,167 L284,181.6 L273.3,186.3 L270,185.8 L268.2,183.6 L263.4,182.8 L265.1,178.1 L272.8,174.6 L267.8,168.7 L271.7,167 Z M271.7,167"
                id="1098"/>
            <path class="unit" d="M232.3,177.1 L235.3,180.7 L239.6,181.4 L240.6,180.9 L242.7,183.4 L241.6,186.4 L238.7,187.7 L232.9,186.7 L226.9,179.5 L232.3,177.1 Z M232.3,177.1"
                id="1099"/>
            <path class="unit" d="M55,139.6 L57.5,140 L59,141.8 L63.8,142.6 L63.1,144.5 L91.5,150.5 L104.3,165.8 L100.9,167.3 L98.7,164.8 L100.3,164.1 L99.3,163 L25.9,195.7 L2.4,167.6 L50.6,146.1 L47.8,142.8 L55,139.6 Z M55,139.6"
                id="1100"/>
            <path class="unit" d="M223.5,183.4 L231.4,192.9 L226.6,195.1 L218.6,185.6 L223.5,183.4 Z M223.5,183.4" id="1101"/>
            <path class="unit" d="M331.2,167.1 L333.3,167.4 L331.3,170 L347.6,189.3 L347.7,189.3 L348.9,190.6 L346.9,191.5 L345.3,191.3 L326.7,169.1 L331.2,167.1 Z M331.2,167.1"
                id="1102"/>
            <path class="unit" d="M359.8,154.3 L374.5,171.8 L386.9,186.4 L376.6,190.9 L367.7,180.4 L347.8,189.2 L331.6,169.9 L333.6,167.5 L335.3,167.7 L345.5,163.2 L346.6,160.2 L359.8,154.3 Z M359.8,154.3"
                id="1103"/>
            <path class="unit" d="M212.1,186.5 L212.7,187.2 L214.2,187.4 L215.4,188.9 L214.4,189.4 L219.1,195 L218.7,196.1 L219.7,197.2 L219.2,198.3 L217.3,199.2 L211.7,192.5 L210.7,193 L207.1,188.7 L212.1,186.5 Z M212.1,186.5"
                id="1104"/>
            <path class="unit" d="M204,185.2 L204.5,185.8 L206.1,187.7 L204.5,188.4 L205.4,189.5 L206.8,188.8 L210.6,193.3 L211.6,192.8 L217.1,199.3 L206,204.2 L193.9,189.7 L204,185.2 Z M204,185.2"
                id="1105"/>
            <path class="unit" d="M293.6,183.8 L308.9,202 L305.6,203.5 L290.2,185.3 L293.6,183.8 Z M293.6,183.8" id="1106"/>
            <path class="unit" d="M273.4,197.1 L288.5,199.6 L292.6,204.5 L269,200.3 L273,198.5 L273.4,197.1 Z M273.4,197.1" id="1107"/>
            <path class="unit" d="M235.6,197.6 L237.8,198 L241.8,202.8 L239.9,208.4 L232.1,199.1 L235.6,197.6 Z M235.6,197.6" id="1108"/>
            <path class="unit" d="M290,185.4 L305.3,203.6 L303.9,204.3 L303,203.2 L294.9,206.8 L288.8,199.5 L273.5,196.9 L274.4,194.5 L292.8,197.8 L293.3,196.5 L285.6,187.3 L290,185.4 Z M290,185.4"
                id="1109"/>
            <path class="unit" d="M231.8,199.3 L239.7,208.7 L235.4,210.6 L227.5,201.2 L231.8,199.3 Z M231.8,199.3" id="1110"/>
            <path class="unit" d="M298.7,181.5 L313.1,198.7 L311.2,199.5 L317.9,207.5 L314.8,208.9 L309,202 L309.2,201.9 L293.8,183.7 L298.7,181.5 Z M298.7,181.5"
                id="1111"/>
            <path class="unit" d="M180.4,165.5 L191.4,178.6 L175.3,185.7 L195,209.1 L180.4,215.6 L173.3,207.3 L175.8,206.2 L175.2,205.4 L173.1,206.4 L171.5,206.1 L161.7,210.4 L139.3,183.8 L180.4,165.5 Z M180.4,165.5"
                id="1112"/>
            <path class="unit" d="M227.2,201.3 L235.1,210.7 L226.1,214.7 L218.2,205.3 L227.2,201.3 Z M227.2,201.3" id="1113"/>
            <path class="unit" d="M326.4,169.2 L345.2,191.5 L346.9,191.7 L349,190.8 L356.9,200.2 L331.7,211.4 L325.6,204.1 L320,206.6 L313.2,198.6 L313.4,198.5 L299,181.4 L326.4,169.2 Z M326.4,169.2"
                id="1114"/>
            <path class="unit" d="M151.6,210.4 L160.5,221 L161.6,221.2 L160.2,225.8 L157.3,225.3 L155.4,226.2 L151.2,221.2 L152.8,220.6 L146.2,212.8 L151.6,210.4 Z M151.6,210.4"
                id="1115"/>
            <path class="unit" d="M157.4,225.5 L160.1,226 L159.5,228 L157.6,228.8 L155.5,226.3 L157.4,225.5 Z M157.4,225.5" id="1116"/>
            <path class="unit" d="M146,212.9 L152.3,220.5 L150.8,221.2 L157.3,228.9 L155.6,229.7 L142.8,214.3 L146,212.9 Z M146,212.9" id="1117"/>
            <path class="unit" d="M193.9,216.2 L203.6,227.8 L199.2,229.7 L189.5,218.1 L193.9,216.2 Z M193.9,216.2" id="1118"/>
            <path class="unit" d="M137.4,208.3 L142.5,214.5 L155.4,229.8 L151.9,231.3 L133.9,209.9 L137.4,208.3 Z M137.4,208.3" id="1119"/>
            <path class="unit" d="M132.1,202.1 L137.2,208.2 L133.5,209.8 L151.7,231.4 L146.8,233.6 L123.5,205.9 L132.1,202.1 Z M132.1,202.1" id="1120"/>
            <path class="unit" d="M123.3,206 L146.5,233.7 L138.1,237.5 L114.8,209.8 L123.3,206 Z M123.3,206" id="1121"/>
            <path class="unit" d="M189.2,218.2 L204.5,236.5 L200.7,238.2 L185.4,219.9 L189.2,218.2 Z M189.2,218.2" id="1122"/>
            <path class="unit" d="M114.5,209.9 L137.8,237.6 L128.7,241.7 L105.4,213.9 L114.5,209.9 Z M114.5,209.9" id="1123"/>
            <path class="unit" d="M185.1,220.1 L200.4,238.3 L197.6,239.6 L182.3,221.3 L185.1,220.1 Z M185.1,220.1" id="1124"/>
            <path class="unit" d="M207.6,210 L225.7,231.6 L208.5,239.2 L205.7,236 L204.8,236.4 L199.4,229.9 L204,227.8 L194.1,216.1 L207.6,210 Z M207.6,210"
                id="1125"/>
            <path class="unit" d="M182,221.4 L197.4,239.7 L194,241.2 L179.9,224.3 L180.6,222.1 L182,221.4 Z M182,221.4" id="1126"/>
            <path class="unit" d="M218,205.4 L226,215 L240,208.8 L242.1,202.7 L238.2,198 L239.6,198.3 L241.2,200.1 L247.1,201.1 L240.1,219.2 L244,223.8 L238.5,226.3 L247.1,236.6 L234.8,242.1 L225.9,231.5 L207.8,209.9 L218,205.4 Z M218,205.4"
                id="1127"/>
            <path class="unit" d="M113.2,223.5 L128.5,241.8 L115,247.8 L99.7,229.5 L113.2,223.5 Z M113.2,223.5" id="1128"/>
            <path class="unit" d="M179.7,224.5 L193.8,241.3 L192.9,241.7 L195,244.2 L192.1,245.5 L175.8,226.2 L179.7,224.5 Z M179.7,224.5" id="1129"/>
            <path class="unit" d="M99.4,229.6 L114.7,247.9 L110,250 L94.6,231.8 L99.4,229.6 Z M99.4,229.6" id="1130"/>
            <path class="unit" d="M175.6,226.3 L191.8,245.6 L182.7,249.7 L167.4,231.5 L171,229.9 L171.6,228.1 L175.6,226.3 Z M175.6,226.3" id="1131"/>
            <path class="unit" d="M166.5,230.8 L182.5,249.8 L178.7,251.5 L162.8,232.5 L166.5,230.8 Z M166.5,230.8" id="1132"/>
            <path class="unit" d="M247.4,201.2 L261.7,203.5 L268.6,200.4 L292.8,204.7 L294.6,206.9 L292.7,207.7 L304,221.3 L306.6,220.1 L309.4,223.4 L308.9,223.6 L312.8,228.4 L312.4,229.5 L310.9,230.2 L309,235.6 L309.9,236.7 L309.3,238.4 L278,252.4 L275.6,252 L274.9,251.3 L276,248.3 L267.8,246.9 L266.7,249.9 L265.7,250.3 L263.3,249.9 L259.9,245.9 L258.9,246.4 L255.8,242.7 L257.9,241.8 L245.6,227.2 L241.2,229.2 L238.8,226.3 L244.4,223.9 L240.4,219.1 L247.4,201.2 Z M247.4,201.2"
                id="1133"/>
            <path class="unit" d="M162.5,232.6 L178.5,251.6 L167.9,256.3 L152,237.3 L162.5,232.6 Z M162.5,232.6" id="1134"/>
            <path class="unit" d="M151.8,237.4 L167.7,256.4 L155.6,261.8 L139.7,242.8 L151.8,237.4 Z M151.8,237.4" id="1135"/>
            <path class="unit" d="M139.5,243 L155.4,261.9 L149,264.7 L135.2,248.3 L138.6,246.8 L139.5,243 Z M139.5,243" id="1136"/>
            <path class="unit" d="M134.9,248.4 L148.7,264.8 L136,270.5 L135.4,269.8 L133.8,270.5 L122.2,256.6 L124.3,253.2 L134.9,248.4 Z M134.9,248.4"
                id="1137"/>
            <path class="unit" d="M72.1,192.7 L93.2,217.9 L63.5,231.1 L65.9,234 L69.5,232.4 L73.2,236.8 L91.6,228.6 L111.3,251.9 L128.1,272 L127.1,275 L102.9,285.7 L104.5,287.5 L92.2,293 L90.6,291.2 L82.4,294.9 L77.8,289.4 L73.7,291.2 L63.3,278.8 L67.4,277 L62.8,271.5 L58.2,273.6 L48.1,261.5 L53.2,259.2 L44.6,249 L61.6,241.5 L58.2,237.5 L62.3,235.6 L61.1,234.2 L53.9,237.4 L55.4,239.2 L54.4,239.7 L55.9,241.5 L32.3,252 L6.9,221.7 L72.1,192.7 Z M72.1,192.7"
                id="1138"/>
            <path class="unit" d="M218.3,185.7 L226.3,195.2 L221.4,197.4 L214.8,189.4 L215.8,189 L214.5,187.4 L218.3,185.7 Z M218.3,185.7" id="1139"/>
            <path class="unit" d="M191.5,178.7 L195.7,183.8 L203.4,180.3 L207.1,184.7 L204.8,185.7 L204.1,184.9 L193.4,189.7 L205.8,204.3 L195.3,209 L175.7,185.8 L191.5,178.7 Z M191.5,178.7"
                id="1140"/>
            <path class="unit" d="M125.5,133.9 L127,135.8 L126.7,136.8 L124.1,137.9 L122.5,137.7 L122.1,137.8 L120.6,136.1 L125.5,133.9 Z M125.5,133.9"
                id="1141"/>
            <path class="unit" d="M226.6,179.6 L232.7,186.8 L238.5,187.8 L237.7,190.1 L231.7,192.8 L223.7,183.3 L225.1,182.7 L223.7,181 L226.6,179.6 Z M226.6,179.6"
                id="1142"/>
            <path class="unit" d="M257.8,153.6 L262,158.6 L239.5,168.7 L236.5,165.1 L237.3,162.7 L257.8,153.6 Z M257.8,153.6" id="1143"/>
            <path class="unit" d="M236,175.5 L240.4,180.8 L239.5,181.2 L235.5,180.5 L232.5,177 L236,175.5 Z M236,175.5" id="1144"/>
            <path class="unit" d="M242.5,196.8 L246.2,195.1 L248.5,197.9 L244.8,199.5 L242.5,196.8 Z M242.5,196.8" id="1145"/>
            <path class="unit" d="M262.5,185.8 L266.2,184.1 L268.5,186.9 L264.8,188.5 L262.5,185.8 Z M262.5,185.8" id="1146"/>
        </g>
    </g>
</svg>