<?xml version="1.0" encoding="utf-8"?>
<!DOCTYPE svg PUBLIC "-//W3C//DTD SVG 1.1//EN" "http://www.w3.org/Graphics/SVG/1.1/DTD/svg11.dtd">
<svg version="1.1" xmlns="http://www.w3.org/2000/svg" xmlns:xlink="http://www.w3.org/1999/xlink" xml:space="preserve">
<g class="level" id="level0">
<g class="outline">
            <path d="M477.3,76.8 L403.8,27.9 C403.4,27.6 402.8,27.6 402.4,27.8 L364.9,44.1 L361.4,41.5 C361,41.2 360.4,41.1 359.9,41.3 L349.5,45.8 C349,46 348.7,46.4 348.6,46.9 L347.8,51.6 C347.7,52.1 347.9,52.7 348.3,53 L364.1,65.5 L357.6,68.5 C357.2,68.7 356.8,69.1 356.8,69.6 L355.9,74.4 C355.8,74.9 356,75.5 356.4,75.8 L358.9,77.9 L356.9,78.8 L325.5,52.6 C325.1,52.2 324.5,52.2 324,52.4 L284.3,69.4 C283.8,69.6 283.4,70.1 283.4,70.7 L283.2,75.4 C283.2,75.8 283.3,76.2 283.7,76.5 L305.7,97.8 L302.5,99.3 L296.2,93.1 C295.8,92.7 295.1,92.6 294.5,92.8 L274.6,101.8 C274.1,102 273.7,102.5 273.7,103.1 L273.6,107.8 C273.6,108.2 273.7,108.6 274,108.9 L274.7,109.6 L274.6,112.1 L272.2,113.2 L269.3,110 L269.4,106 C269.4,105.6 269.3,105.3 269,105 L267.7,103.6 L274.6,100.5 C275.1,100.3 275.5,99.8 275.5,99.2 L275.6,94.5 C275.6,94.1 275.5,93.7 275.2,93.4 L270.1,88.1 C269.7,87.7 269,87.5 268.4,87.8 L264.1,89.7 L251.7,76.5 C252.1,76.2 252.4,75.8 252.4,75.2 L252.3,70.5 C252.3,70.1 252.1,69.8 251.9,69.5 L248.5,65.9 L260.7,60.9 L261.3,61.5 C261.7,61.9 262.4,62 262.9,61.8 L275.2,56.7 C275.7,56.5 276.1,56 276.1,55.4 L276.1,55.1 L277.8,54.4 C278.3,54.2 278.7,53.7 278.7,53.1 L278.7,52.6 L303.6,42.4 C304.1,42.2 304.5,41.7 304.5,41.1 L304.7,38.8 L314.4,46.9 C314.8,47.3 315.4,47.3 315.9,47.1 L336.1,38.7 C336.6,38.5 336.9,38.1 337,37.5 L337.6,32.9 C337.7,32.4 337.5,31.8 337,31.5 L297.9,1.5 C297.5,1.2 297,1.1 296.5,1.3 L262.7,13.9 C262.3,14 262,14.4 261.8,14.8 L260.1,19.1 C260,19.3 260,19.4 260,19.6 L260,23.5 L257.2,21 C257,20.8 256.7,20.7 256.4,20.6 L230.5,17.7 C230.3,17.7 230,17.7 229.8,17.8 L225.4,19.4 C224.8,19.6 224.4,20.2 224.4,20.9 L224.7,25.4 C224.7,25.8 224.9,26.1 225.1,26.4 L227.6,28.8 L221.1,31.2 L219.5,29.5 C219.1,29.1 218.5,28.9 217.9,29.1 L200.1,35.7 C199.5,35.9 199.1,36.6 199.1,37.3 L199.6,41.9 C199.6,42 199.6,42.1 199.7,42.2 L199,42.5 C198.9,42.5 198.8,42.6 198.7,42.7 C198.6,42.7 198.4,42.7 198.3,42.8 L167.5,54.4 C166.8,54.7 166.4,55.3 166.6,56 L167,58.3 L166,58.7 L160.6,51.6 C160.2,51.1 159.5,50.9 158.9,51.1 L150.2,54.4 L146.6,49.5 C146.2,49 145.5,48.8 144.9,49 L139.8,50.9 C139.5,51 139.3,51.2 139.1,51.5 L137.4,54 L131.6,56.1 L131,56 L130.4,53.6 C130.3,53 129.8,52.6 129.2,52.5 L126.3,52.1 C125.8,52 125.2,52.3 124.9,52.7 L122.2,56.6 L118.1,56 L118,56 L117.9,56 C117.9,56 117.9,56 117.8,56 L109.6,54.9 L108.5,51 C108.3,50.4 107.9,50 107.3,49.9 L103.9,49.5 C103.4,49.4 102.8,49.7 102.5,50.1 L101.1,52.1 L90.6,50.7 C90.1,50.6 89.5,50.8 89.2,51.3 L84.4,57.7 L81.4,57.3 C80.9,57.2 80.3,57.4 80,57.9 L78.4,60 C78.1,60.4 78,60.9 78.2,61.4 L79.8,65.9 C79.9,66.3 80.2,66.6 80.5,66.7 L74.1,75.2 L68,74.2 C67.5,74.1 66.9,74.3 66.6,74.8 L64.9,77.1 C64.6,77.5 64.5,78.1 64.7,78.5 L66.5,83 C66.7,83.5 67.1,83.8 67.7,83.9 L71.4,84.5 L71.9,85.8 C71.9,85.8 71.9,85.9 72,85.9 L72.7,87.3 C72.9,87.7 73.2,88 73.6,88.1 L73.7,88.1 L74.8,88.3 L73,90.9 C72.7,91.3 72.6,91.8 72.8,92.3 L74.5,96.9 C74.7,97.4 75.1,97.7 75.6,97.8 L99.6,102.7 L107.5,117.3 C107.9,118 108.7,118.3 109.4,118 L114.1,116.1 C114.8,115.8 115.2,115 115,114.3 L114.2,111.7 L116.9,110.6 L122.3,120.1 C122.7,120.7 123.5,121 124.1,120.7 L166.8,103.2 L186.3,95.2 L186.8,95.9 C187.2,96.4 187.9,96.6 188.5,96.4 L189.9,95.8 L190.4,99.6 C190.4,99.8 190.5,100.1 190.7,100.3 L214.6,131.9 C214.3,131.8 214,131.9 213.7,132 L211.1,133.2 L210.9,131.5 C210.9,131.2 210.8,131 210.6,130.8 L206.9,125.8 C206.5,125.2 205.7,125 205.1,125.3 L197.7,128.6 L184.8,110.6 C184.4,110 183.7,109.8 183,110.1 L137.6,129.4 C136.9,129.7 136.6,130.4 136.8,131.2 L138.1,135.8 C138.1,135.9 138.2,136 138.3,136.2 L151.6,158.9 L151.1,159.1 L150.9,158.7 C150.5,158.1 149.7,157.8 149,158.1 L134.5,164.6 L127.1,150.8 C126.7,150.1 125.9,149.8 125.2,150.1 L92.2,164.5 C91.5,164.8 91.1,165.7 91.4,166.4 L93.3,171 L96,177 L74.4,186.7 L72.9,183.5 C72.6,182.8 71.7,182.5 71,182.8 L47.8,193.1 L45.4,188.9 C45,188.2 44.2,188 43.5,188.3 L27.8,195 C27.1,195.3 26.8,196.1 27,196.8 L28.4,201.6 L4.8,212 C4.1,212.3 3.8,213 4,213.7 L7.5,228 L1.9,230.6 C1.3,230.9 0.9,231.6 1.1,232.3 L5.9,252.7 C5.9,252.9 6,253.1 6.2,253.3 L9.4,257.5 C9.8,258.1 10.6,258.2 11.2,257.9 L14.6,256.3 L14.7,256.9 L8.7,259.7 C8.1,260 7.7,260.7 7.9,261.4 L13.3,284 L13.6,284.6 L16.9,288.6 C17.3,289.1 18.1,289.3 18.7,289 L22.3,287.2 L23.3,291.1 L23.6,291.7 L26.8,295.6 C27,295.8 27.3,296 27.6,296.1 C27.9,296.2 28.3,296.2 28.7,296 L39.9,290.3 L41.7,292.7 C42.1,293.3 42.9,293.5 43.6,293.1 L62.7,283.4 C63.3,283.1 63.7,282.3 63.4,281.6 L62.5,278.8 L98,260.8 C98.3,260.7 98.5,260.4 98.7,260.1 L100.7,256.1 L106.4,254.6 C106.5,254.7 106.6,254.7 106.8,254.8 C107.2,254.9 107.6,254.9 108,254.7 L109.1,254.1 C109.3,254.3 109.5,254.4 109.7,254.5 C110.1,254.6 110.5,254.6 110.9,254.4 L190.8,213.9 C191.4,213.6 191.7,212.9 191.6,212.3 L190.9,208.7 L203.3,202.4 L205.5,205.9 C205.9,206.5 206.7,206.8 207.4,206.4 L227.4,196.3 L237.4,210.8 C237.8,211.4 238.6,211.6 239.3,211.3 L254.4,203.4 C254.9,203.1 255.2,202.6 255.2,202.1 L255.1,197.5 C255.1,197.2 255,196.9 254.8,196.7 L250.6,191 L250.7,190.9 L255.5,197.3 L262.8,207.2 L262.8,210.9 C262.8,211.2 262.9,211.5 263.1,211.8 L271.8,223.7 C272,224 272.3,224.2 272.7,224.3 L277,225.2 C277.3,225.3 277.7,225.2 278,225 L280.6,223.5 C281,223.3 281.2,222.9 281.3,222.5 L281.8,220 L286.9,221.1 L286.7,223.8 C286.7,224.2 286.8,224.5 287,224.8 L288.2,226.4 C288.4,226.7 288.7,226.9 289.1,227 L292.7,227.8 C293.1,227.9 293.4,227.8 293.7,227.6 L331.5,206.4 C331.9,206.2 332.2,205.8 332.2,205.4 L333.1,200.7 L333.4,198.4 C333.5,198 333.3,197.5 333,197.2 L332,196.1 L332.2,194.4 L332.7,194.1 C333.1,193.9 333.4,193.5 333.4,193.1 L334.3,188.4 L334.6,186.2 C334.7,185.8 334.5,185.3 334.2,185 L329.8,180.1 L329.8,179.8 C329.9,179.4 329.7,178.9 329.4,178.6 L324.8,173.5 C324.3,173 323.6,172.9 323,173.2 L320.7,174.4 L310,162.3 L314.8,159.9 L315.3,160.4 C315.8,160.9 316.5,161 317.1,160.7 L321.7,158.3 L329.2,166.3 C329.7,166.8 330.4,166.9 331,166.6 L334.1,165 C334.5,164.8 334.8,164.4 334.9,163.9 L334.9,163.9 C335.3,164.1 335.8,164.1 336.3,163.9 L340.8,161.5 L348.8,169.7 C349.3,170.2 350,170.3 350.6,170 L376.8,155.9 C377.2,155.7 377.4,155.4 377.5,155 L378.8,150.2 C378.9,149.7 378.8,149.1 378.4,148.7 L368.9,139.8 L381.7,133.1 L394.7,144.7 C395.2,145.1 395.8,145.2 396.4,144.9 L406.2,139.6 C406.5,139.4 406.8,139.1 406.9,138.8 L408.5,134 C408.7,133.4 408.5,132.8 408.1,132.4 L394,120.4 L395.9,119.4 C396,119.7 396.1,119.9 396.4,120.1 L401.2,124.1 C401.7,124.5 402.3,124.6 402.8,124.3 L406.2,122.5 C406.5,122.3 406.8,122 406.9,121.6 L408.4,116.8 C408.4,116.7 408.5,116.5 408.5,116.4 L408.5,110.1 L411.2,112.2 C411.4,112.4 411.7,112.5 411.9,112.5 L415.9,113 L421.6,114.1 C421.9,114.2 422.3,114.1 422.6,114 L433.5,108.3 C433.8,108.1 434.1,107.8 434.2,107.5 L435,105.3 L443.8,100.7 L455.1,102.7 C455.8,102.8 456.5,102.4 456.7,101.8 L458.7,96.9 C458.8,96.6 458.8,96.3 458.8,96.1 L458.3,93.2 L475.2,84.4 C475.5,84.2 475.7,84 475.9,83.7 L478,78.8 C478.1,78 477.9,77.2 477.3,76.8 L477.3,76.8 L477.3,76.8 Z M75.8,85.6 L74.9,85.5 L74.6,84.8 L73.8,82.7 C73.6,82.2 73.2,81.8 72.6,81.8 L68.8,81.2 L67.6,78.2 L68.3,77.3 L74.2,78.2 C74.7,78.3 75.3,78.1 75.6,77.6 L84,66.4 C84.3,66 84.4,65.4 84.2,64.9 C84,64.4 83.6,64.1 83,64 L82,63.9 L81,61 L81.6,60.2 L84.6,60.6 C85.1,60.7 85.7,60.5 86,60 L90.8,53.6 L101.3,55 C101.8,55.1 102.4,54.8 102.7,54.4 L104.1,52.4 L105.7,52.6 L106.6,55.6 C106.5,55.9 106.5,56.3 106.7,56.6 C106.9,57.1 107.3,57.4 107.9,57.5 L117.3,58.8 L117.4,58.8 L117.5,58.8 L117.6,58.8 L122.7,59.6 C123.3,59.7 123.8,59.4 124.1,59 L126.8,55.1 L127.8,55.2 L128.4,57.6 C128.5,58.2 129,58.6 129.6,58.7 L131.6,59 C131.8,59 132.1,59 132.3,58.9 L138.9,56.5 C139.2,56.4 139.4,56.2 139.6,55.9 L141.3,53.4 L144.9,52.1 L148.5,57 C148.9,57.5 149.6,57.7 150.2,57.5 L159,54.2 L164.4,61.3 C164.8,61.8 165.5,62 166.1,61.8 L167.4,61.3 L170.2,64.9 C170.6,65.4 171.3,65.6 171.9,65.4 L172.2,65.3 C172.6,65.1 173,64.8 173.1,64.3 C173.2,63.8 173.1,63.4 172.8,63 L170.2,59.6 L169.7,56.6 L198.5,45.7 C198.9,45.9 199.4,46 199.8,45.8 L200.2,45.7 C200.3,45.6 200.5,45.6 200.6,45.5 L200.9,45.8 C201.3,46.3 202,46.4 202.5,46.2 L204.1,45.6 C204.6,45.4 204.9,45 205,44.6 C205.1,44.1 205,43.6 204.7,43.3 L202.6,41 L202.3,38.1 L218.2,32.2 L219.8,33.9 C220.2,34.3 220.8,34.5 221.4,34.3 L229.1,31.4 L229.6,31.9 C230,32.3 230.6,32.4 231.2,32.2 L232.2,31.8 C232.7,31.6 233,31.2 233.1,30.7 C233.2,30.2 233.1,29.7 232.7,29.3 L227.8,24.5 L227.6,21.7 L230.6,20.6 L255.6,23.4 L261.2,28.4 L261.2,32.1 L261.1,32.3 C261,32.5 261,32.6 261,32.8 L261,36.2 L260.7,37.1 L232.5,48.2 L226.7,47.4 C226.4,47.4 226.2,47.4 226,47.5 L220.9,49.5 C220.5,49.6 220.2,49.9 220.1,50.3 L219.2,52.3 C219,52.8 219.1,53.5 219.5,53.9 L220.2,54.6 L220.5,58.3 L215.7,69.2 L212.4,70.5 L209,70.3 C208.8,70.3 208.6,70.3 208.4,70.4 L194.4,76.1 C194.1,76.2 193.8,76.5 193.6,76.8 L192.8,78.5 L189.1,80 L181,78.8 C180.6,78.5 180.2,78.5 179.7,78.6 L173.3,77.6 L170.6,77.2 L169.3,75.4 C169.1,74.8 168.6,74.4 168,74.3 L161,73.5 C160.8,73.5 160.5,73.5 160.3,73.6 L155.5,75.5 C155.2,75.6 154.9,75.8 154.8,76.1 L152.1,80.6 L147.7,82.4 C147.4,82.5 147.1,82.8 146.9,83.1 L146.6,83.8 L143.9,84.9 L142.5,84.7 C142.2,84.7 142,84.7 141.7,84.8 L137.3,86.5 C137,86.6 136.7,86.8 136.6,87.1 L136,88.1 L134.3,88.8 L132.5,88.6 C132.3,88.6 132,88.6 131.8,88.7 L128.7,89.9 L115.1,87.8 L115,87.8 L104.4,86 L104.1,85.6 C103.9,85.3 103.5,85 103.1,85 L93.7,83.5 L93.3,83.5 L78.2,84.7 C78.1,84.7 77.9,84.7 77.8,84.8 L75.8,85.6 L75.8,85.6 Z M223.3,58.4 L223,53.8 C223,53.5 222.8,53.1 222.6,52.9 L222.2,52.5 L222.5,51.9 L226.7,50.3 L232.2,51.1 C232.3,51.1 232.5,51.2 232.6,51.2 L232.7,51.2 C233,51.2 233.3,51.2 233.6,51 L233.2,51.9 L228.6,53.7 C228.2,53.8 227.9,54.1 227.8,54.5 L225.6,59.7 L225.6,59.8 L221,70.7 L221,70.8 L218.1,77.6 C218.1,77.6 218.1,77.7 218,77.7 L215.8,82.8 C215.8,82.9 215.8,82.9 215.7,83 C215.6,83 215.6,83 215.5,83.1 L211.7,84.7 C211.5,84.8 211.4,84.9 211.3,85 L211.1,84.8 C210.9,84.5 210.5,84.3 210.2,84.3 L195.6,82 L195.5,82 L192.8,81.6 L194.3,81 C194.6,80.9 194.9,80.6 195.1,80.3 L195.9,78.6 L209,73.3 L212.3,73.5 C212.5,73.5 212.7,73.5 213,73.4 L217.2,71.7 C217.6,71.6 217.8,71.3 218,70.9 L223.2,59.2 C223.3,58.9 223.4,58.6 223.3,58.4 L223.3,58.4 L223.3,58.4 Z M167.2,77.8 L166.6,77.7 C166.3,77.7 166.1,77.7 165.8,77.8 L160.7,79.8 C160.4,79.9 160.1,80.2 159.9,80.5 L158.7,82.7 L156.5,83.6 C156.4,83.6 156.4,83.6 156.3,83.7 L156.1,83.8 C156,83.8 156,83.9 155.9,83.9 L155.1,84.3 L154.6,84.3 C154.4,84.3 154.1,84.3 153.9,84.4 L151.9,85.2 C151.7,85.3 151.5,85.4 151.4,85.6 C151.2,85.6 151,85.6 150.7,85.7 L146.5,87.4 C146.3,87.5 146.1,87.6 145.9,87.8 C145.7,87.8 145.4,87.8 145.2,87.9 L141.2,89.5 C141,89.6 140.8,89.7 140.6,89.9 C140.4,89.9 140.1,89.9 139.9,90 L135.9,91.6 C135.7,91.7 135.5,91.8 135.3,92 L135.2,92 C135,92 134.8,92 134.6,92.1 L130.5,93.7 C130.2,93.8 129.9,94.1 129.7,94.4 L127.8,95.2 L127.7,95.1 C127.5,94.7 127,94.4 126.6,94.4 L125.8,94.3 L125.1,93.1 C125,92.9 124.9,92.8 124.7,92.7 L128.1,93.2 C128.4,93.2 128.6,93.2 128.9,93.1 L132,91.9 L133.8,92.1 C134,92.1 134.3,92.1 134.5,92 L137,91 C137.3,90.9 137.6,90.7 137.7,90.4 L138.3,89.4 L141.8,88 L143.2,88.2 C143.5,88.2 143.7,88.2 144,88.1 L147.6,86.7 C147.9,86.6 148.2,86.3 148.4,86 L148.7,85.3 L153.1,83.6 C153.4,83.5 153.7,83.3 153.8,83 L156.5,78.5 L160.5,76.9 L166.3,77.6 L167.2,77.8 L167.2,77.8 Z M102,87.9 L93.3,86.5 L93.4,86.5 L102,87.9 L102,87.9 Z M473.2,81.9 L455.8,91 C455.2,91.3 454.9,91.9 455,92.6 L455.7,96.2 L454.3,99.6 L443.6,97.8 C443.3,97.7 443,97.8 442.7,97.9 L432.9,103 C432.6,103.2 432.3,103.5 432.2,103.8 L431.4,106 L421.5,111.2 L416.2,110.2 L412.5,109.7 L396.6,96.9 L396.7,95.1 L397.8,91.1 C398.2,90.9 398.6,90.4 398.6,89.9 C398.7,89.4 398.4,88.9 398,88.6 L395.2,86.4 C395,86.2 394.7,86.1 394.4,86.1 L392.9,85.9 L392.9,85.4 C392.9,84.9 392.7,84.4 392.3,84.1 L388,80.7 C387.8,80.5 387.5,80.4 387.2,80.4 L385,80.2 C384.7,80.2 384.5,80.2 384.3,80.3 L373.7,85.4 C373.2,85.6 372.9,86.1 372.9,86.6 L372.8,88.2 L371.9,92.2 L346.2,104.6 L342.2,104 L341.8,103.7 C341.4,103.3 340.7,103.2 340.2,103.5 L336.8,105.1 C336.4,105.3 336.1,105.7 336,106.2 L335.9,107 L335.2,110 L330.5,112.3 L330.4,112.3 L330.3,112.4 C329.9,112.6 329.6,113 329.5,113.5 C329.4,114 329.6,114.4 329.9,114.7 L329.6,116.6 C329.5,117.1 329.7,117.7 330.2,118 C330.6,118.3 331.2,118.4 331.7,118.1 L340.8,113.7 L344.4,114.3 C344.7,114.3 345,114.3 345.3,114.2 L354.6,109.7 C355,109.5 355.3,109.1 355.4,108.7 L355.9,106 L379.1,94.7 L387.7,95.9 L405.5,110.3 L405.5,116.2 L404.2,120.2 L402.2,121.2 L398.9,118.4 L399.2,117.4 C399.4,116.8 399.2,116.2 398.7,115.8 L397.4,114.7 C397,114.4 396.5,114.3 396,114.4 C395.5,114.5 395.1,114.9 395,115.4 L394.7,116.6 L390.6,118.7 C390.2,118.9 389.9,119.4 389.8,119.8 C389.7,120.3 389.9,120.8 390.3,121.1 L405.3,133.9 L404.2,137.2 L395.8,141.7 L382.8,130.1 C382.3,129.7 381.7,129.6 381.1,129.9 L365.6,138 C365.2,138.2 364.9,138.6 364.8,139.1 C364.7,139.6 364.9,140.1 365.3,140.4 L375.7,150.1 L374.8,153.4 L350,166.8 L342.1,158.6 C341.6,158.1 340.9,158 340.3,158.3 L335.8,160.7 L334.9,159.8 C334.5,159.4 333.9,159.2 333.4,159.4 C332.9,159.6 332.5,160 332.4,160.6 L332,162.7 L330.5,163.5 L323,155.5 C322.5,155 321.8,154.9 321.2,155.2 L316.6,157.6 L316.1,157.1 C315.6,156.6 314.9,156.5 314.3,156.8 L306.8,160.6 C306.4,160.8 306.1,161.2 306,161.6 C305.9,162.1 306,162.5 306.4,162.9 L319.3,177.3 C319.8,177.8 320.5,177.9 321.1,177.6 L323.4,176.4 L326.8,180.1 L326.8,180.4 C326.7,180.8 326.9,181.3 327.2,181.6 L331.6,186.5 L331.4,188 L330.7,192 L330.1,192.3 C329.7,192.5 329.4,192.9 329.3,193.4 L328.9,196.5 C328.8,196.9 329,197.4 329.3,197.7 L330.3,198.8 L330.1,200.4 L329.4,204.3 L292.7,224.9 L290.2,224.4 L289.7,223.7 L290,220.3 C290.1,219.6 289.6,218.9 288.8,218.7 L281,217.1 C280.2,216.9 279.4,217.4 279.2,218.2 L278.5,221.5 L276.9,222.4 L273.7,221.7 L265.6,210.7 L265.6,207 C265.6,206.7 265.5,206.4 265.3,206.1 L257.7,195.8 L252.1,188.4 C251.7,187.8 250.9,187.6 250.3,188 L247.5,189.4 C247.1,189.6 246.8,190 246.7,190.4 C246.6,190.8 246.7,191.3 246.9,191.6 L251.8,198.3 L251.9,201.5 L238.8,208.4 L228.8,193.9 C228.4,193.3 227.6,193.1 226.9,193.4 L207,203.5 L204.8,200 C204.4,199.4 203.6,199.1 202.9,199.5 L188.2,206.9 C187.8,207.1 187.6,207.4 187.4,207.8 C187.3,208.2 187.3,208.6 187.5,208.9 L188.1,212 L110.5,251.3 C110.3,251.1 110.1,251 109.9,250.9 C109.5,250.8 109.1,250.8 108.7,251 L107.7,251.5 L97.1,225.5 L99.8,221.6 L114.3,214.7 C114.6,214.7 114.9,214.7 115.2,214.6 L119.4,212.6 C119.7,212.5 120,212.2 120.1,211.9 L122.8,206.1 L156.5,190.1 L156.6,190.2 C157,190.9 157.8,191.2 158.5,190.8 L163.2,188.6 C163.5,188.4 163.8,188.2 163.9,187.8 L164.5,186.2 L174.3,181.5 C174.7,181.3 175,181 175.1,180.6 L175.9,178 L239.5,147.9 L241.5,148.2 L241.6,148.2 L243.3,148.5 L244.8,150.3 C245,150.6 245.3,150.8 245.7,150.8 L247.3,151.1 C247.7,151.2 248.2,151.1 248.5,150.8 C248.8,150.5 249,150.1 249,149.6 L248.9,146 L250.2,145.4 L251.2,146.6 L251.3,150.6 C251.3,151.3 251.9,151.9 252.6,152 L268.3,154.8 C268.6,154.9 268.9,154.8 269.2,154.7 L281.6,148.6 C282,148.4 282.3,148 282.4,147.6 L282.9,145.6 C283,145.4 282.9,145.1 282.9,144.9 L283.1,141.4 L326,120.6 C326.4,120.4 326.7,120 326.8,119.5 C326.9,119.1 326.7,118.6 326.5,118.3 L326.8,116.4 C326.9,115.9 326.6,115.3 326.2,115 C325.8,114.7 325.2,114.6 324.7,114.9 L279.7,136.6 L276.8,136.1 L275.3,134.4 C275.1,134.1 274.8,134 274.4,133.9 L273.7,133.8 C273.3,133.7 272.8,133.8 272.5,134.1 C272.2,134.4 272,134.8 272,135.2 L271.9,138.1 L270.7,138.7 L269.8,137.6 L269.9,134.4 C269.9,133.7 269.4,133 268.7,132.9 L262.6,131.9 L262.5,131.7 C262.3,131.4 262,131.3 261.6,131.2 L254.6,130 L242,114.9 L241.8,110.9 L242.2,109.5 C242.3,109 242.2,108.5 241.9,108.1 L237.9,103.4 C237.7,103.1 237.4,103 237,102.9 L231.1,102 L219.2,87.9 C218.8,87.4 218.1,87.2 217.5,87.5 C216.9,87.7 216.5,88.4 216.6,89 L216.7,90.5 L215,91.2 C214.6,91.4 214.2,91.8 214.1,92.2 C214,92.7 214.1,93.1 214.4,93.5 L221.8,102.5 L222.1,106.4 L221.7,107.4 C221.5,107.9 221.6,108.5 221.9,108.9 L224.1,111.7 C224.3,112 224.6,112.2 225,112.2 L231.3,113.3 L245.4,130.3 L245.5,134.3 L244.9,137.2 L242.3,138.4 C241.9,138.6 241.6,138.9 241.5,139.4 L241,141.1 L224.3,149 L223.6,148 C223.2,147.5 222.5,147.3 221.9,147.5 C221.3,147.7 220.9,148.4 221,149 L221.1,150 L220.9,150.7 L172.7,173.4 L166.5,172.3 L166.4,172.3 L163.2,171.7 C162.9,171.6 162.6,171.7 162.3,171.8 L156.1,174.7 C155.8,174.9 155.5,175.1 155.4,175.4 L153.6,179.5 L153.6,179.6 L150.8,185.9 L150.8,186 L149.8,188.1 L91.6,215.6 C90.9,215.9 90.6,216.8 90.9,217.5 L94.1,225.2 C94.1,225.5 94.1,225.7 94.2,226 L103.9,249.8 L104.9,252 L99.3,253.5 C98.9,253.6 98.5,253.9 98.4,254.3 L96.3,258.5 L60,276.7 C59.4,277 59,277.8 59.3,278.5 L60.2,281.3 L43.4,289.9 L41.6,287.5 C41.2,286.9 40.4,286.7 39.7,287.1 L28.4,292.8 L26.2,290.1 L24.8,284.7 C24.7,284.3 24.4,283.9 24,283.7 C23.6,283.5 23.1,283.5 22.7,283.7 L18.5,285.8 L16.2,283 L11.2,261.9 L17.2,259 C17.8,258.7 18.2,258 18,257.3 L17.1,253.8 C17,253.4 16.7,253 16.3,252.8 C15.9,252.6 15.4,252.6 15,252.8 L11,254.7 L8.7,251.7 L4.2,232.8 L9.8,230.2 C10.5,229.9 10.8,229.2 10.6,228.5 L7,214.3 L30.7,203.8 C31.4,203.5 31.7,202.7 31.5,202 L30.1,197.2 L43.1,191.5 L44.9,194.7 L45.2,195.6 C45.3,196 45.6,196.3 46,196.5 C46.4,196.7 46.8,196.7 47.2,196.5 L70.5,186.2 L72,189.4 C72.3,190.1 73.2,190.4 73.9,190.1 L98.2,179.2 C98.6,179 98.8,178.7 99,178.4 C99.1,178 99.1,177.6 99,177.3 L95.7,170 L94.4,166.8 L124.9,153.5 L132.3,167.3 C132.7,168 133.5,168.3 134.2,168 L148.8,161.4 L149,161.7 C149.4,162.3 150.1,162.5 150.7,162.3 L154.1,161.2 C154.5,161.1 154.9,160.7 155,160.3 C155.2,159.9 155.1,159.4 154.9,159 L140.7,134.9 L139.8,131.7 L183,113.3 L195.9,131.3 C196.3,131.9 197.1,132.1 197.7,131.8 L205.2,128.5 L208,132.2 L208.4,135.5 C208.5,136 208.7,136.4 209.1,136.6 C209.5,136.8 210,136.9 210.4,136.7 L213.8,135.2 L214,135.5 C214.2,135.8 214.5,136 214.9,136.1 L216,136.3 C216.3,136.4 216.6,136.3 216.9,136.2 L218.6,135.4 C219,135.2 219.3,134.9 219.4,134.4 C219.5,134 219.4,133.5 219.1,133.1 L193.1,98.8 L192.6,95.7 L193.1,95.5 C193.7,95.2 194.1,94.6 194,93.9 L193.9,92.9 C193.8,92.4 193.6,92 193.2,91.8 C192.8,91.6 192.3,91.5 191.9,91.7 L188.3,93.2 L187.8,92.5 C187.4,92 186.7,91.8 186.1,92 L177.1,95.7 L124.1,117.4 L118.7,107.9 C118.3,107.3 117.5,107 116.9,107.3 L111.8,109.4 C111.1,109.7 110.7,110.5 110.9,111.2 L111.7,113.8 L109.5,114.7 L101.9,100.7 C101.7,100.3 101.3,100 100.9,100 L77,95.1 L75.8,92 L77,90.5 L78.7,89.7 L82.4,90.3 C82.7,90.3 82.9,90.3 83.2,90.2 L87.6,88.6 L102.6,91 C103,91.5 103.7,91.7 104.3,91.4 L104.4,91.3 L106.1,91.6 C106.3,91.9 106.7,92.1 107,92.1 L108.3,92.3 C108.5,92.3 108.8,92.3 109,92.2 L109.6,92 L114.3,92.7 C114.5,93.1 114.9,93.5 115.4,93.5 L115.7,93.6 C116.2,93.7 116.8,93.5 117.1,93.1 L121.7,93.8 C121.9,94.2 122.3,94.5 122.7,94.6 L123.2,94.7 L123.9,96 C124.1,96.4 124.6,96.7 125,96.7 L125.8,96.8 L126.1,97.3 C126.5,97.9 127.2,98.2 127.9,97.9 L131.9,96.3 C132.2,96.2 132.5,95.9 132.7,95.6 L135.6,94.4 L136.2,94.4 C136.7,94.4 137.1,94.2 137.4,93.8 L137.5,93.6 L140.8,92.3 L141.2,92.3 C141.7,92.4 142.2,92.1 142.5,91.7 L142.7,91.5 L146,90.2 L146.5,90.2 C147,90.2 147.5,90 147.8,89.6 L147.9,89.4 L151.4,88 L151.7,88 C151.8,88 151.8,88.1 151.9,88.1 C152.5,88.3 153.1,88 153.5,87.5 L153.8,87 L154.6,86.7 L155.1,86.7 C155.3,86.7 155.6,86.7 155.8,86.6 L157.1,86 L157.2,86 L157.3,86 L157.4,86 L160.2,84.9 C160.5,84.8 160.8,84.5 160.9,84.2 L162.1,82 L166.3,80.3 L177.5,82 L177.6,82 L194.7,84.6 L194.8,84.6 L208.8,86.7 L211,89.4 C211.4,89.9 212.1,90.1 212.7,89.8 C213.3,89.5 213.7,88.9 213.6,88.3 L213.4,86.7 L215.2,86 L215.8,86.7 C216.2,87.2 216.9,87.4 217.5,87.1 C218.1,86.9 218.5,86.2 218.4,85.6 L218.2,83.4 L220.2,78.7 C220.2,78.7 220.2,78.7 220.2,78.6 L221,76.7 C221,76.7 221,76.6 221.1,76.5 L223.2,71.6 L223.2,71.5 L227.8,60.6 L227.8,60.5 L229.8,55.8 L234.4,54 C234.8,53.9 235.1,53.6 235.2,53.2 L236.7,49.6 L267.1,37.6 L273.4,38.4 C273.6,38.4 273.9,38.4 274.1,38.3 L277.8,36.8 C278.1,36.9 278.5,36.9 278.8,36.8 L279.7,36.5 C280.1,36.3 280.4,36 280.6,35.6 L281.3,33.5 C281.5,32.9 281.3,32.3 280.9,31.9 L277.2,28.7 L277.2,28.2 C277.2,27.7 277,27.2 276.6,26.9 C276.2,26.6 275.7,26.6 275.2,26.7 L270.4,28.6 L268.5,28.4 L262.4,23 L262.4,19.4 L263.7,15.9 L296.1,3.8 L333.9,32.8 L333.5,35.8 L314.9,43.6 L304.8,35.2 C304.4,34.9 303.8,34.8 303.3,35 L302,35.5 C301.5,35.7 301.1,36.2 301.1,36.8 L300.9,39.6 L276.5,50 C276,50.2 275.6,50.7 275.6,51.3 L275.6,51.8 L273.9,52.5 C273.4,52.7 273,53.2 273,53.8 L273,54.1 L262.5,58.4 L261.9,57.8 C261.5,57.4 260.8,57.3 260.3,57.5 L247.4,62.8 C247,62.6 246.6,62.6 246.1,62.7 L244.8,63.2 C244.3,63.4 244,63.8 243.9,64.3 C243.8,64.8 243.9,65.3 244.3,65.6 L249.3,70.8 L249.4,73.9 L248.6,74.2 C248.2,74.4 247.8,74.8 247.7,75.3 C247.6,75.8 247.7,76.3 248.1,76.6 L262.7,92.1 C263.1,92.6 263.8,92.7 264.4,92.4 L268.7,90.5 L272.7,94.6 L272.6,97.8 L264.7,101.3 C264.3,101.5 263.9,101.9 263.9,102.4 C263.8,102.9 263.9,103.4 264.3,103.7 L266.6,106.2 L266.5,110.2 C266.5,110.6 266.6,110.9 266.9,111.2 L270.9,115.6 C271.3,116.1 272,116.2 272.6,115.9 L277.1,113.9 C277.5,113.7 277.8,113.3 277.9,112.8 C278,112.4 277.9,112 277.7,111.7 L277.8,108.7 C277.8,108.3 277.7,107.9 277.4,107.6 L276.7,106.9 L276.8,103.7 L294.9,95.5 L301.2,101.7 C301.6,102.1 302.3,102.2 302.9,102 L306.9,100.2 L309.6,102.8 C310,103.2 310.7,103.3 311.3,103.1 L312.4,102.6 C312.8,102.4 313.2,102 313.2,101.5 C313.3,101 313.1,100.5 312.8,100.2 L286.3,74.6 L286.4,71.5 L324.4,55.3 L355.8,81.5 C356.2,81.9 356.9,81.9 357.4,81.7 L362.4,79.4 C362.9,79.2 363.2,78.7 363.2,78.2 C363.3,77.7 363.1,77.2 362.7,76.9 L359,73.9 L359.6,70.8 L367.7,67.1 C368.2,66.9 368.5,66.4 368.6,65.9 C368.7,65.4 368.5,64.9 368,64.6 L351,51.2 L351.5,48.2 L360.4,44.4 L363.9,47 C364.3,47.3 364.9,47.4 365.4,47.2 L403,30.8 L474.8,78.6 L473.2,81.9 L473.2,81.9 Z M393.7,94.7 L393.6,96.9 L389,93.2 C388.8,93 388.5,92.9 388.3,92.9 L378.9,91.6 C378.6,91.6 378.3,91.6 378,91.7 L374.5,93.4 L375.6,88.8 L375.6,88.6 L375.7,87.7 L385.2,83.2 L386.6,83.3 L390,85.9 L389.9,87 C389.8,87.8 390.4,88.5 391.2,88.6 L393.7,88.9 L395,89.9 L393.8,94.4 C393.8,94.5 393.7,94.6 393.7,94.7 L393.7,94.7 L393.7,94.7 Z M338.6,107.4 L338.6,107.4 L340.4,106.4 C340.6,106.6 340.9,106.7 341.1,106.7 L346,107.4 C346.3,107.4 346.6,107.4 346.9,107.3 L352.8,104.4 L352.3,107 L344.1,111 L340.5,110.4 C340.2,110.4 339.9,110.4 339.6,110.5 L337.3,111.6 L337.6,111 L338.6,107.4 L338.6,107.4 Z M98.3,218.9 C98.1,219 97.9,219.2 97.7,219.4 L95.9,222 L94.1,217.5 L120,205.3 L117.9,209.9 L115,211.3 C114.7,211.3 114.4,211.3 114.1,211.4 L98.3,218.9 L98.3,218.9 Z M152.8,188.4 L153.4,187.1 L153.4,187 L156.2,180.7 L156.2,180.6 L157.8,176.9 L163.1,174.5 L165.7,175 L165.8,175 L172.5,176.2 C172.8,176.3 173.1,176.2 173.4,176.1 L173.5,176.1 C173.5,176.2 173.4,176.3 173.4,176.3 L172.6,178.9 L162.8,183.5 C162.5,183.7 162.2,183.9 162.1,184.3 L161.5,185.9 L158.6,187.3 L158.5,187.2 C158.1,186.5 157.3,186.3 156.6,186.6 L152.8,188.4 L152.8,188.4 Z M244.3,140.8 L247,139.6 C247.4,139.4 247.7,139 247.8,138.6 L248.6,134.8 L248.6,134.4 L248.5,129.7 C248.5,129.4 248.4,129.1 248.2,128.8 L233.3,111 C233.1,110.7 232.8,110.5 232.4,110.5 L226.1,109.4 L224.8,107.8 L225,107.3 C225.1,107.1 225.1,106.8 225.1,106.6 L224.7,101.9 C224.7,101.6 224.6,101.3 224.4,101.1 L217.9,93.3 L218.8,92.9 C218.9,92.8 219.1,92.8 219.2,92.7 L229.1,104.5 C229.3,104.8 229.6,105 230,105 L235.9,105.9 L239,109.5 L238.7,110.4 C238.7,110.6 238.6,110.7 238.6,110.9 L238.8,115.6 C238.8,115.9 238.9,116.2 239.1,116.5 L252.4,132.4 C252.6,132.7 252.9,132.8 253.3,132.9 L260.3,134.1 L260.4,134.3 C260.6,134.6 260.9,134.7 261.3,134.8 L266.7,135.7 L266.7,138.2 C266.7,138.6 266.8,138.9 267.1,139.2 L269.1,141.6 C269.5,142.1 270.3,142.3 270.9,142 L274,140.5 C274.5,140.3 274.8,139.8 274.8,139.2 L274.8,138.5 C275,138.8 275.3,138.9 275.7,139 L279.6,139.7 C279.9,139.8 280.2,139.7 280.5,139.6 L280.9,139.4 C280.5,139.7 280.3,140.1 280.3,140.5 L280.1,145.2 L280.1,145.4 L279.9,146.3 L268.5,151.9 L254.4,149.4 L254.3,146.1 C254.3,145.8 254.2,145.5 254,145.2 L252,142.7 C251.8,142.5 251.5,142.3 251.2,142.2 C250.9,142.1 250.5,142.1 250.2,142.3 L247,143.8 C246.5,144.1 246.1,144.6 246.2,145.2 L246.3,147.2 L245.6,146.3 C245.4,146 245.1,145.8 244.7,145.8 L242.4,145.4 L242.3,145.4 L240.3,145.1 L243.1,143.8 C243.5,143.6 243.8,143.3 243.9,142.8 L244.3,140.8 L244.3,140.8 Z M264.1,32.3 L264.1,28.3 L267.4,31.2 C267.6,31.4 267.9,31.5 268.2,31.6 L270.9,31.9 C271.1,31.9 271.4,31.9 271.6,31.8 L275,30.5 C275.1,30.6 275.2,30.7 275.2,30.8 L278.7,33.8 L278.6,34 C278.4,34 278.2,34 278,34.1 L273.9,35.7 L267.6,34.9 C267.4,34.9 267.1,34.9 266.9,35 L263.9,36.2 L263.9,32.9 L263.9,32.8 L263.9,32.7 C264.1,32.6 264.1,32.5 264.1,32.3 L264.1,32.3 L264.1,32.3 Z M264.1,32.3" class="outline"/>
        </g>
        <g class="label">
            <path d="M106,30.8 C105.7,30.4 105.4,30.1 105,29.8 C106.4,29.3 107.4,28.3 107.4,26.8 C107.4,24.9 106.1,23.6 103.2,23.6 C102.1,23.6 101.3,23.7 100.8,23.9 C100.4,24 100.3,24.3 100.3,24.7 L100.3,34.4 C100.3,34.8 100.6,35 100.9,35 C101.3,35 101.5,34.8 101.5,34.4 L101.5,30.2 L102.7,30.2 C103.9,30.2 104.3,30.7 104.9,31.6 C105.3,32.2 105.7,33.2 106.2,34.6 C106.3,34.9 106.5,35 106.8,35 C107.1,35 107.4,34.8 107.4,34.4 C107.4,34.3 107.4,34.1 107.3,34 C107,32.8 106.5,31.6 106,30.8 L106,30.8 L106,30.8 Z M103,29 L101.6,29 L101.6,25 C102,24.9 102.5,24.9 103.2,24.9 C105.5,24.9 106.2,25.8 106.2,27 C106.1,28.5 104.5,29 103,29 L103,29 L103,29 Z M58.4,23.7 C58.1,23.7 57.9,24 57.8,24.3 C57.4,27.4 56.8,30.4 56,33.5 L56,33.5 C55.1,30.7 54.4,27.3 53.7,25 C53.4,24 53.1,23.7 52.6,23.7 C52.2,23.7 51.8,24 51.6,24.9 C50.9,27.2 50,30.9 49.2,33.5 L49.2,33.5 C48.4,30.4 48,27.4 47.6,24.3 C47.5,23.9 47.3,23.7 46.9,23.7 C46.5,23.7 46.3,24 46.3,24.3 L46.3,24.7 C46.7,27.8 47.3,31 48,33.7 C48.2,34.7 48.6,35 49.1,35 C49.6,35 49.9,34.7 50.2,33.9 C51.1,31.4 51.7,28.7 52.6,25.5 L52.6,25.5 C53.6,28.7 54.1,31.4 54.9,33.9 C55.2,34.8 55.5,35 56,35 C56.5,35 56.8,34.7 57,33.9 C57.8,30.9 58.4,27.8 58.9,24.6 L58.9,24.2 C59,23.9 58.8,23.7 58.4,23.7 L58.4,23.7 L58.4,23.7 Z M40.4,23.6 C37.5,23.6 35.7,25.9 35.7,29.5 C35.7,32.9 37.5,35 40.4,35 C43.3,35 45.1,32.6 45.1,29 C45.1,25.7 43.2,23.6 40.4,23.6 L40.4,23.6 L40.4,23.6 Z M40.4,33.9 C38.3,33.9 37,32.2 37,29.6 C37,26.6 38.2,24.8 40.4,24.8 C42.6,24.8 43.8,26.5 43.8,29 C43.8,32 42.5,33.9 40.4,33.9 L40.4,33.9 L40.4,33.9 Z M112.6,28.6 C111.2,28.1 110.4,27.7 110.4,26.5 C110.4,25.4 111.3,24.8 112.4,24.8 C113.1,24.8 113.6,24.9 114.1,25.1 C114.3,25.1 114.4,25.2 114.6,25.2 C114.9,25.2 115.2,25 115.2,24.6 C115.2,24.4 115.1,24.2 114.7,24 C114.2,23.8 113.3,23.6 112.6,23.6 C110.4,23.6 109.1,24.9 109.1,26.6 C109.1,28.2 110.2,29 111.8,29.6 C113.9,30.4 114.5,31 114.5,32 C114.5,33.1 113.6,33.9 112.2,33.9 C111.3,33.9 110.5,33.6 110,33.2 C109.7,33 109.6,32.9 109.4,32.9 C109.1,32.9 108.8,33.1 108.8,33.4 C108.8,33.7 108.9,33.9 109.2,34 C109.9,34.5 111,35 112.2,35 C114.4,35 115.8,33.7 115.8,31.9 C115.7,30.3 114.5,29.3 112.6,28.6 L112.6,28.6 L112.6,28.6 Z M29.1,23.6 C28.5,23.6 27.5,23.6 26.9,23.8 C26.5,23.9 26.3,24.2 26.3,24.6 L26.3,34.1 C26.3,34.5 26.4,34.8 27,34.9 C27.5,35 28.2,35.1 29.2,35.1 C32.7,35.1 34.3,32.6 34.3,29.4 C34.3,26 32.8,23.6 29.1,23.6 L29.1,23.6 L29.1,23.6 Z M29.3,33.9 C28.6,33.9 28.1,33.9 27.6,33.8 L27.6,24.9 C28.1,24.8 28.7,24.8 29.2,24.8 C32.1,24.8 33.2,26.7 33.2,29.2 C33.1,32 32,33.9 29.3,33.9 L29.3,33.9 L29.3,33.9 Z M86.5,24.3 C86.5,24 86.3,23.7 85.9,23.7 L79,23.7 C78.6,23.7 78.4,24 78.4,24.3 C78.4,24.6 78.6,24.9 79,24.9 L81.8,24.9 L81.8,34.3 C81.8,34.7 82.1,34.9 82.4,34.9 C82.7,34.9 83,34.7 83,34.3 L83,24.9 L85.9,24.9 C86.3,24.9 86.5,24.6 86.5,24.3 L86.5,24.3 L86.5,24.3 Z M92.1,25.1 C91.5,23.9 91,23.5 90.4,23.5 C89.8,23.5 89.3,23.9 88.7,25.1 C87.8,26.9 87.1,29.2 85.9,33.8 C85.8,34 85.8,34.2 85.8,34.3 C85.8,34.7 86.1,34.9 86.4,34.9 C86.7,34.9 86.9,34.7 87,34.4 C87.3,33 87.6,31.8 87.9,30.7 L92.8,30.7 C93.1,31.8 93.4,33 93.7,34.4 C93.8,34.7 94,34.9 94.3,34.9 C94.7,34.9 94.9,34.7 94.9,34.3 C94.9,34.2 94.9,34 94.8,33.8 C93.7,29.2 93,27 92.1,25.1 L92.1,25.1 L92.1,25.1 Z M88.3,29.7 C89,27.3 89.7,25.7 90.2,24.9 C90.2,24.8 90.3,24.8 90.4,24.8 C90.5,24.8 90.6,24.9 90.6,24.9 C91.1,25.7 91.8,27.2 92.5,29.7 L88.3,29.7 L88.3,29.7 Z M68.7,23.7 C68.3,23.7 68.1,24 68.1,24.4 L68.1,33 L62.5,24.3 C62.3,24 62,23.8 61.7,23.8 C61.2,23.8 60.9,24.1 60.9,24.7 L60.9,34.5 C60.9,34.9 61.2,35.1 61.5,35.1 C61.9,35.1 62.1,34.9 62.1,34.5 L62.1,25.8 L67.6,34.6 C67.8,34.9 68.1,35.1 68.4,35.1 C68.9,35.1 69.2,34.7 69.2,34.3 L69.2,24.5 C69.2,23.9 69,23.7 68.7,23.7 L68.7,23.7 L68.7,23.7 Z M97.3,23.7 C96.9,23.7 96.7,24 96.7,24.4 L96.7,34.4 C96.7,34.8 97,35 97.3,35 C97.7,35 97.9,34.8 97.9,34.4 L97.9,24.4 C97.9,23.9 97.7,23.7 97.3,23.7 L97.3,23.7 L97.3,23.7 Z M74.8,28.6 C73.4,28.1 72.6,27.7 72.6,26.5 C72.6,25.4 73.5,24.8 74.6,24.8 C75.3,24.8 75.8,24.9 76.3,25.1 C76.5,25.1 76.6,25.2 76.8,25.2 C77.1,25.2 77.4,25 77.4,24.6 C77.4,24.4 77.3,24.2 76.9,24 C76.4,23.8 75.5,23.6 74.8,23.6 C72.6,23.6 71.3,24.9 71.3,26.6 C71.3,28.2 72.4,29 74,29.6 C76.1,30.4 76.7,31 76.7,32 C76.7,33.1 75.8,33.9 74.4,33.9 C73.5,33.9 72.7,33.6 72.2,33.2 C71.9,33 71.8,32.9 71.6,32.9 C71.3,32.9 71,33.1 71,33.4 C71,33.7 71.1,33.9 71.4,34 C72.1,34.5 73.2,35 74.4,35 C76.6,35 78,33.7 78,31.9 C77.9,30.3 76.6,29.3 74.8,28.6 L74.8,28.6 L74.8,28.6 Z M74.8,28.6" class="Shape"/>
        </g>
        <g class="background">
            <path d="M411,82.1 L383.4,67.3 L343.1,90.1 L294.1,109.6 L263.5,123.7 L228.4,89.6 L235.5,67.3 L255,54.9 L281.8,42 L291.2,30.8 L281,20.8 L276.8,18.4 L240.7,33.8 L212.8,49.9 L204.1,69.8 L201.9,67.2 L147.6,66.1 L86.4,70.2 L77.2,78.3 L75.4,85.5 L78.1,91.5 L119.1,99.1 L149.9,99.2 L186.6,88.9 L202.9,87.6 L206.6,88.9 L203.8,89.9 L244.3,132.5 L230.1,139.3 L148,161.2 L122.1,181.2 L77.1,200.1 L64.2,209.9 L91.7,252.4 L96.1,256.2 L114,250.6 L163.7,214.4 L216.8,190.2 L284.4,168.7 L284.4,168.6 L286.5,170.9 L373.2,113.3 L405.9,108 L411,82.1 L411,82.1 Z M411,82.1" class="walkway"/>
            <path d="M254.8,139.8 L249.6,133.2 L171.9,169.9 L161.8,168 L155.3,171.1 L149.3,184.3 L83.5,215.6 L99.6,255 L106.8,253.4 L95.1,225.4 L250.6,150.6 L254.8,139.8 L254.8,139.8 Z M254.8,139.8" class="walkwayred" fill="#EE3124"/>
            <path d="M417.3,102.1 L386,76.6 L274.6,130.3 L262,128.2 L249.6,133.2 L254.8,139.8 L250.6,150.6 L269.2,153.5 L388.1,94.3 L406.8,109.5 L417.3,102.1 L417.3,102.1 Z M417.3,102.1" class="walkwaygreen" fill="#00853F"/>
            <path d="M214,89 L198.2,70.9 L167,71.3 L159.8,70.1 L154.8,72.3 L151.8,77.2 L127.5,86.5 L92,80.2 L74.5,82.3 L77,90.5 L127.9,97.9 L168.3,81.5 L206,88.5 L208,92.1 L214,89 L214,89 Z M214,89" class="walkwayyellow" fill="#FFCC32"/>
            <path d="M259.7,25.7 L258.1,34.9 L232.5,44.8 L221,45.9 L214.6,60.3 L198.2,70.9 L214,89 L220.2,86 L230.7,57.5 L280.7,37.5 L283.2,27.8 L273.6,19.8 L259.7,25.7 L259.7,25.7 Z M259.7,25.7" class="walkwayblue" fill="#00A0DA"/>
            <path d="M72.4,83.2 L73.2,85.3 L73.9,86.7 L75.9,87 L78.3,86.1 L79.3,86 L80,88 L82.5,88.4 L83.6,86.8 L83.2,85.8 L93.5,85 L102.9,86.5 L103.4,87.2 L103.5,87.4 L103.6,87.4 L103.7,87.6 L103.8,87.5 L114.7,89.2 L128.7,91.4 L128.8,91.4 L130.5,90.7 L130.8,90.6 L132.3,90 L134.4,90.2 L136.9,89.2 L137.8,87.8 L142.2,86.1 L144,86.4 L147.6,85 L148.2,83.8 L153.1,81.9 L156.1,76.9 L160.9,75 L167.9,75.8 L167.9,76 L169.4,78.1 L169.5,78.6 L169.8,78.6 L169.8,78.5 L169.9,78.6 L173.1,79.1 L180.2,80.2 L180.2,80 L180.3,80.2 L180.6,80.2 L189.3,81.5 L193.9,79.6 L195,77.3 L209,71.6 L209.1,71.6 L212.7,71.8 L216.9,70.1 L217.8,68.1 L222.1,58.3 L221.8,53.7 L220.8,52.6 L221.7,50.6 L226.8,48.6 L232.9,49.5 L233.3,49.5 L233.3,49.4 L241.7,46.1 L251,42.5 L262.3,38.1 L263,36.3 L263,32.7 L263.1,32.3 L263.1,27.7 L258.4,23.5 L256.7,21.9 L230.8,19 L226.4,20.6 L226.7,25.1 L232,30.3 L231,30.7 L229.8,29.5 L221.2,32.7 L218.9,30.3 L209.9,33.6 L201,36.9 L201.5,41.5 L203.9,44.1 L202.3,44.7 L201,43.2 L200,43.6 L200.1,44.2 L199.7,44.3 L199.3,43.8 L168.5,55.4 L169.3,60 L172.1,63.6 L171.8,63.7 L168.3,59.2 L166,60.1 L159.9,52.1 L150.1,55.7 L145.8,49.9 L140.7,51.8 L138.7,54.7 L132.1,57.1 L130.1,56.8 L129.3,53.4 L126.4,53 L123.2,57.6 L118.1,56.8 L117.9,56.8 L108.5,55.5 L108.7,55.2 L107.4,50.7 L104,50.3 L102,53 L90.1,52 L84.7,59.1 L80.8,58.6 L79.2,60.7 L80.8,65.2 L82.8,65.5 L74.5,76.7 L67.8,75.7 L66.1,78 L67.9,82.6 L72.4,83.2 L72.4,83.2 Z M116.2,80 L113.4,84.4 L106.5,83.3 L108.1,80.9 L112.7,79.2 L116.5,79.7 L116.2,80 L116.2,80 Z M127.5,86.5 L117.6,85 L120.6,80.3 L124.7,80.9 L125,82 L127.8,86.4 L127.5,86.5 L127.5,86.5 Z M212,67.1 L208.5,66.9 L205.5,63.4 L208.1,57.6 L215.3,65.8 L212,67.1 L212,67.1 Z M217,63.2 L210.4,55.8 L212.2,55.1 L218.8,55.6 L219.9,56.8 L217,63.2 L217,63.2 Z M241.2,41.4 L234.6,34.9 L235.6,34.5 L236.1,35 L240.5,33.3 L246.7,39.3 L241.2,41.4 L241.2,41.4 Z M251.1,26.1 L250.1,26.5 L249.5,25.9 L251.1,26.1 L251.1,26.1 Z M250.2,31.4 L257.9,28.3 L261.3,31.4 L261.3,33.6 L250.4,37.9 L244.2,32 L249,30.2 L250.2,31.4 L250.2,31.4 Z M229.8,24.1 L230.6,23.8 L247.8,25.8 L240.5,28.6 L240.3,28.7 L236.1,30.3 L235.6,29.8 L229.8,24.1 L229.8,24.1 Z M229.5,34.4 L237.8,42.7 L232.5,44.8 L224.3,36.4 L229.5,34.4 L229.5,34.4 Z M218.7,35.3 L220.9,37.5 L227.3,44.1 L226.2,43.9 L221,45.9 L213,37.4 L218.7,35.3 L218.7,35.3 Z M209.8,38.6 L219.4,48.9 L218.7,50.3 L218.4,50.7 L211.7,50.2 L207.9,51.7 L205.1,48.6 L207,47.9 L206.5,43.3 L204.1,40.7 L209.8,38.6 L209.8,38.6 Z M175.4,71.5 L176.4,69.6 L175.6,65 L171.4,59.5 L199.3,48.9 L199.7,49.4 L200.9,48.9 L200.8,48.3 L200.9,48.3 L202.1,49.6 L206.5,54.6 L203.4,61.4 L204,66 L205.7,67.9 L194,72.6 L192.9,74.9 L188.5,76.7 L179.5,75.4 L176.9,72.1 L174.2,71.7 L169.3,73.6 L170.8,70.8 L175.4,71.5 L175.4,71.5 Z M118.7,62.1 L124,62.9 L126.9,58.7 L127.6,61.5 L132.8,62.3 L139.6,59.8 L141.5,56.9 L146.2,55.2 L150.5,61.1 L160.2,57.4 L166.3,65.4 L168.6,64.5 L169.8,66.1 L167,71.3 L159.9,70.3 L154.8,72.3 L151.8,77.2 L147.1,79.1 L146.2,77.7 L140,80.1 L140.4,81.7 L136.7,83.2 L135.8,81.8 L130,83.9 L130.5,85.6 L129.6,86 L126.4,80.9 L133.5,69.8 L132,65 L118.1,63 L118.7,62.1 L118.7,62.1 Z M76.3,81.5 L87.7,66 L86.8,63.4 L91.7,56.8 L103,58.3 L103.9,57.1 L104.8,60.2 L114.5,61.5 L113.8,62.6 L115.1,67.2 L129,69.2 L124.4,76.3 L118,75.4 L111.2,74.4 L106.4,76.2 L102.2,82.5 L101.7,81.7 L92,80.2 L76.6,81.5 L74.5,82.3 L74.1,81.2 L76.3,81.5 L76.3,81.5 Z M476.4,78.1 L402.9,29.2 L364.6,45.9 L360.5,42.8 L350,47.2 L349.2,51.9 L366.9,65.9 L358.1,69.9 L357.2,74.7 L361.5,78.3 L356.8,80.5 L356.5,80.6 L352.4,77.2 L324.4,53.9 L284.7,70.9 L284.5,75.6 L311.4,101.7 L310.3,102.2 L306.9,98.9 L302,101.2 L295,94.2 L277.4,102.1 L277.1,102.2 L275.1,103.1 L275,107.8 L276.1,109 L276,112.6 L276.3,112.9 L274.4,113.8 L273,114.4 L271.9,114.9 L270.3,113.1 L267.9,110.5 L268,105.9 L266.8,104.6 L265.3,103 L274,99.1 L274.1,94.4 L269,89.1 L263.7,91.4 L257.4,84.7 L254.5,81.6 L250.1,76.9 L249.2,75.9 L250.9,75.2 L250.8,70.5 L247.6,67.2 L245.4,64.9 L246.7,64.4 L247.1,64.8 L251.8,62.9 L256.4,61 L260.9,59.2 L262.2,60.5 L267.1,58.5 L271.1,56.8 L274.4,55.4 L274.4,54.2 L277,53.1 L277,51.6 L278,51 L286.4,47.6 L302.9,40.9 L303.2,37.2 L304.5,36.7 L315.2,45.7 L335.4,37.3 L336,32.7 L299.5,4.7 L296.9,2.7 L288.6,5.8 L282.7,8 L282.5,8.1 L268.1,13.5 L267.9,13.6 L263.2,15.4 L261.5,19.7 L261.5,24.2 L262.2,24.8 L262.3,24.9 L268.4,30.3 L271.1,30.6 L273.3,29.7 L273.3,33.1 L274.7,34.4 L277.5,33.3 L277.5,30.9 L280.4,33.5 L279.7,35.6 L278.8,35.9 L278.5,35.6 L274,37.4 L269.9,36.9 L267.3,36.6 L265.1,37.4 L264.9,37.5 L258.6,40 L258.4,40.1 L254.4,41.7 L254.2,41.8 L249.8,43.5 L249.6,43.6 L245.2,45.3 L244.9,45.4 L240.3,47.2 L236.1,48.8 L236,48.7 L235.9,48.9 L235.8,48.9 L235.8,49 L234.1,53 L228.9,55.1 L226.6,60.4 L225.1,64 L223.9,66.8 L221.9,71.4 L219.8,76.4 L218.9,78.3 L216.7,83.4 L216.9,86 L215.6,84.5 L211.8,86.1 L212.1,88.8 L210.5,86.8 L209.6,85.7 L200.6,84.4 L195,83.6 L181.8,81.6 L181.5,81.6 L177.8,81 L173.7,80.4 L173.6,80.4 L169.7,79.8 L169.4,79.8 L166.1,79.3 L161,81.3 L159.5,83.9 L156.7,85 L156.5,85.2 L155.2,85.8 L154.3,85.7 L152.3,86.5 L151.9,87 L151.1,86.9 L146.9,88.6 L146.5,89.1 L145.7,89 L141.7,90.6 L141.3,91.2 L140.5,91.1 L136.5,92.7 L136.1,93.2 L135.2,93.2 L131.1,94.8 L131.2,95.2 L127.2,96.8 L126.5,95.6 L125,95.4 L123.9,93.6 L122.7,93.4 L122.5,92.8 L116,91.8 L115.6,92.5 L115.3,92.4 L115.1,91.7 L109.1,90.8 L108.2,91.1 L106.9,90.9 L106.6,90.5 L104,90 L103.5,90.2 L103.2,89.8 L87.2,87.2 L82.5,89 L81.9,88.9 L78.3,88.3 L76,89.3 L74.1,91.8 L75.8,96.4 L100.5,101.4 L102.2,104.6 L102.3,104.8 L103.1,106.3 L103.2,106.5 L108.7,116.6 L113.4,114.7 L112.2,110.8 L117.3,108.7 L123.3,119.3 L166,101.8 L166.1,101.7 L166.2,101.6 L166.9,101.3 L172.4,99 L177.4,96.9 L186.4,93.2 L187.6,94.8 L192.3,92.9 L192.4,93.9 L190.9,94.5 L191.6,99.2 L197.4,106.9 L197.5,107.1 L199.3,109.5 L202.1,113.2 L202.3,113.4 L205.5,117.7 L205.7,117.9 L209.4,122.8 L214.4,129.4 L214.6,129.6 L217.9,134 L216.2,134.8 L215.1,134.6 L214.2,133.4 L209.7,135.4 L209.3,131.7 L205.6,126.7 L197.1,130.5 L193.3,125.2 L183.5,111.5 L138.1,130.8 L139.4,135.4 L156,163.9 L152.8,165.4 L149.4,159.5 L144.9,161.5 L144.6,161.7 L137.7,164.8 L133.7,166.6 L129.8,159.3 L125.7,151.6 L104.1,161 L103.8,161.2 L92.7,166.1 L94.5,170.7 L97.8,178 L86.4,183.1 L86,183.3 L79.8,186.1 L79.4,186.3 L73.5,189 L71.4,184.5 L46.8,195.4 L46.4,194.4 L43.9,189.9 L28.4,196.7 L30.2,202.7 L5.4,213.7 L9.3,229.1 L2.5,232.2 L7.3,252.6 L10.5,256.8 L15.5,254.4 L16.4,257.9 L9.4,261 L14.8,283.6 L18.1,287.6 L23.4,285 L24.8,290.7 L28,294.6 L40.3,288.4 L42.9,291.8 L62,282.1 L60.7,278.1 L97.3,259.6 L99.6,255 L85.8,220 L92.2,216.9 L99,213.7 L111.3,207.9 L123,202.4 L141.6,193.6 L145.9,191.6 L148.2,190.5 L150.9,189.2 L152.1,186.6 L155,180.2 L156.9,176 L163.1,173.1 L166.3,173.7 L166.6,173.8 L172.3,174.9 L173,175 L179.7,171.8 L194.6,164.8 L206.7,159.1 L219.2,153.2 L222.2,151.8 L222.6,150.2 L222.5,149 L224,151 L229.3,148.5 L235,145.8 L242.4,142.3 L243,139.9 L246.3,138.4 L247.1,134.6 L247,129.9 L245.1,127.6 L240,121.5 L235.1,115.5 L232.3,112.1 L225.4,110.9 L223.2,108.1 L223.8,106.7 L223.4,102 L221.9,100.2 L219,96.7 L217,94.2 L215.7,92.6 L218.4,91.5 L218.2,88.9 L222.1,93.6 L226.1,98.3 L226.3,98.5 L228.9,101.6 L229.1,101.8 L230.5,103.5 L236.9,104.5 L239.1,107.1 L240.9,109.2 L240.4,110.9 L240.6,115.6 L243.8,119.4 L247.3,123.5 L250.2,127 L250.4,127.2 L252.8,130.1 L253,130.3 L253.9,131.4 L261.4,132.7 L261.9,133.3 L263.3,133.5 L268.6,134.4 L268.5,138.2 L270.5,140.6 L273.6,139.1 L273.7,135.3 L274.4,135.4 L276.3,137.5 L280.2,138.2 L286.7,135 L288.1,136.4 L291.3,134.9 L291.3,132.8 L291.4,132.8 L296.4,130.4 L301.7,127.9 L306.7,125.5 L316.5,120.8 L321.5,118.4 L325.7,116.4 L325.3,119.1 L325.8,119.5 L307.8,128.2 L297.6,133.2 L294.4,134.7 L294.1,134.8 L282.1,140.6 L281.9,145.3 L282,145.4 L282,145.6 L281.6,147.4 L276.9,149.7 L276.5,149.9 L269.2,153.5 L253.4,150.7 L253.3,146.2 L251.3,143.7 L248.1,145.2 L248.2,149.8 L246.6,149.5 L244.8,147.3 L243,147 L242.5,146.9 L240,146.5 L235.8,148.5 L235.5,148.6 L231.2,150.6 L230.9,150.7 L219.8,156 L208.3,161.4 L208,161.6 L199.2,165.8 L198.9,166 L192.5,169 L192.2,169.2 L186.8,171.8 L181.7,174.2 L181.4,174.4 L175.4,177.2 L174,180 L169.2,182.3 L168.8,182.5 L163.6,185 L162.7,187.1 L158,189.3 L157.2,187.9 L152.5,190.1 L152.1,190.3 L138.7,196.6 L138.3,196.8 L121.9,204.6 L121.8,204.4 L121.6,204.8 L121.5,204.8 L121.5,204.9 L118.6,211 L114.4,213 L114.3,212.8 L106.4,216.6 L106,216.8 L98.6,220.3 L95.1,225.4 L104.8,249.2 L106.8,253.4 L109.2,252.2 L109.6,253.2 L119.5,248.2 L128,243.9 L137.1,239.3 L154.4,230.6 L168.5,223.4 L173.3,221 L185.9,214.6 L189.4,212.8 L188.5,208.3 L189,208 L197.4,203.8 L203.3,200.8 L203.7,200.6 L206.7,205.3 L218.8,199.2 L227.8,194.6 L238.5,210.2 L253.6,202.3 L253.5,197.7 L248.3,190.6 L251.1,189.2 L256.7,196.6 L264.3,206.9 L264.3,211.1 L273,223 L277.3,223.9 L279.9,222.4 L280.8,218.5 L288.6,220.1 L288.3,224.1 L289.5,225.7 L293.1,226.5 L330.9,205.3 L331.8,200.7 L332.1,198.4 L330.7,196.8 L331.1,193.7 L332.3,193 L333.1,188.4 L333.4,186.2 L328.5,180.8 L328.7,179.8 L324.1,174.7 L320.7,176.5 L307.8,162.1 L311.9,160 L315.3,158.3 L316.5,159.6 L318,158.8 L322.1,156.7 L330.4,165.6 L333.5,164 L334,161.2 L335.7,162.9 L341.2,160 L349.9,169 L364.9,160.9 L376.1,154.9 L377.4,150.1 L366.4,139.8 L381.9,131.7 L395.6,144 L405.4,138.7 L407,133.9 L391.2,120 L395.9,117.6 L396.4,115.8 L397.7,116.9 L397.1,118.9 L401.9,122.9 L405.3,121.1 L406.8,116.3 L406.8,109.5 L396.6,101.2 L388.1,94.3 L378.7,93 L375.4,94.6 L375.1,94.7 L366.5,98.9 L366.2,99 L354.4,104.7 L353.7,108.1 L344.4,112.6 L342.1,112.3 L340.3,112 L335.5,114.3 L335.2,114.4 L330.7,116.6 L331.1,114 L330.6,113.5 L330.7,113.4 L336.1,110.8 L336.9,107.1 L337,106.2 L340.4,104.6 L341.1,105.2 L346,105.9 L350.1,103.9 L359.1,99.5 L364,97.2 L368.2,95.2 L372.7,93 L373.8,88.2 L373.9,86.5 L384.5,81.4 L386.7,81.6 L391,85 L390.9,86.9 L393.8,87.2 L396.6,89.4 L396,89.7 L394.7,94.5 L394.6,97.2 L396.7,98.9 L396.9,99.1 L401.2,102.6 L411.3,110.8 L415.4,111.3 L421.1,112.4 L432,106.7 L433,104 L442.8,98.9 L454.6,101 L456.6,96.1 L455.8,92.1 L473.7,82.8 L476.4,78.1 L476.4,78.1 Z M97,250.7 L94.8,255 L57.4,273.8 L58.7,277.9 L41.7,286.5 L39.1,283 L27.1,289 L25.7,283.3 L22.5,279.3 L17.3,281.9 L13.2,265.1 L20.2,261.8 L17.8,252.6 L14.7,248.4 L9.7,250.7 L6.2,236.2 L12.9,233.1 L9,217.8 L33.5,206.8 L31.7,200.8 L45.4,194.8 L45.8,195.9 L48.3,200.3 L73.1,189.2 L83.5,215.6 L97,250.7 L97,250.7 Z M83.8,215 L75.3,193.5 L81.3,190.8 L90,212 L83.8,215 L83.8,215 Z M90.6,211.8 L81.9,190.6 L88,187.9 L96.9,208.9 L90.6,211.8 L90.6,211.8 Z M97.3,208.7 L88.4,187.7 L99.9,182.5 L109.2,203.1 L97.3,208.7 L97.3,208.7 Z M109.7,202.9 L95,170.5 L105.5,165.9 L120.7,197.7 L109.7,202.9 L109.7,202.9 Z M201.5,89.2 L203.5,89.5 L198.8,91.5 L201.5,89.2 L201.5,89.2 Z M195.8,88.4 L196,88.4 L195.6,88.7 L195.8,88.4 L195.8,88.4 Z M121.3,98.6 L123.8,97.6 L124,98 L125.2,98.2 L126.3,100.1 L127.8,100.3 L129.7,103.4 L123.4,105.9 L122.6,104.5 L121.2,105.1 L119.4,102.1 L119,102.3 L121.3,98.6 L121.3,98.6 Z M110,95.7 L110.8,95.4 L111.9,95.6 L110.3,98.2 L107.5,99.3 L110,95.7 L110,95.7 Z M99.1,96.5 L84.4,93.6 L89,91.9 L101,93.9 L99.1,96.5 L99.1,96.5 Z M102.7,99 L102.1,99.2 L105.1,94.8 L105.6,94.6 L105.8,94.6 L102.7,99 L102.7,99 Z M115.7,100.2 L114.2,100.8 L115.2,104.1 L109.6,106.3 L110.8,110.2 L107.4,111.6 L104.3,106 L111.9,103 L114.9,98 L115.4,98.1 L116.1,97 L117.3,97.2 L117.7,96.5 L117.8,96.5 L115.7,100.2 L115.7,100.2 Z M122.3,114.4 L118.6,107.9 L120.6,107.1 L122.4,110.1 L123.8,109.5 L124.6,110.9 L132.7,107.6 L131.4,103 L130.2,101 L133,99.9 L134.7,102.6 L155.3,94.3 L154.6,90.9 L155.7,90.5 L156.6,90.6 L158,90 L163.5,97.9 L122.3,114.4 L122.3,114.4 Z M164,91.4 L164.9,96 L166.1,96.2 L166,96.6 L165.4,96.9 L161.4,91.2 L162.7,90.7 L161.9,86.8 L162.4,85.9 L167.2,84 L167.5,84 L164,91.4 L164,91.4 Z M167.4,91.6 L170.7,84.5 L171.6,84.6 L168.3,91.7 L168.6,91.8 L167.4,91.6 L167.4,91.6 Z M171.6,94.3 L170.2,94.9 L172.8,89.2 L174.7,85.1 L175.8,85.3 L171.6,94.3 L171.6,94.3 Z M176.6,92.3 L175.6,92.7 L178.7,85.7 L179.6,85.8 L176.6,92.3 L176.6,92.3 Z M187.3,90 L186.1,88.4 L180.7,90.6 L182,87.7 L182.7,86.3 L192.6,87.8 L187.3,90 L187.3,90 Z M197.3,102.2 L194.5,98.5 L194.8,98.4 L211,91.6 L214,95.2 L197.3,102.2 L197.3,102.2 Z M161.8,168 L155.2,171 L153.4,175 L152.5,174.9 L147.3,165.7 L150.4,164.3 L153.8,170.2 L162.7,166.1 L164,168.4 L161.8,168 L161.8,168 Z M171.1,169.8 L166.1,168.9 L166,168 L164.5,165.4 L168.2,163.7 L171.5,169.2 L171.1,169.8 L171.1,169.8 Z M173,169.4 L172.6,167.5 L169.8,163 L173.2,161.4 L177,167.5 L173,169.4 L173,169.4 Z M178.9,166.6 L171.8,155.4 L169.5,156.5 L167.5,156.2 L156.4,161.3 L141,135 L184.2,116.5 L191.1,126.2 L175.7,133 L176.6,137.7 L191.9,160.8 L178.9,166.6 L178.9,166.6 Z M193.9,159.6 L178.7,136.8 L193.8,130.1 L197.6,135.4 L206.1,131.6 L206.7,132.5 L206.1,132.8 L205.6,132.2 L193.7,137.6 L194.4,142.3 L203.4,155.3 L193.9,159.6 L193.9,159.6 Z M205.8,154.1 L196.9,141.4 L206,137.3 L206.4,140.5 L207.3,141.8 L208.9,141.1 L212.4,146 L213.4,145.5 L216.2,149.4 L205.8,154.1 L205.8,154.1 Z M218.8,148 L213.1,140.3 L212,140.8 L211.3,139.9 L214.6,138.4 L215.4,139.5 L216.6,139.8 L216.8,140.1 L217,141.7 L221,147.1 L218.8,148 L218.8,148 Z M223.6,145.8 L221.8,143.4 L218.5,139 L221.2,137.8 L225.8,143.8 L226.4,144.6 L223.6,145.8 L223.6,145.8 Z M229,143.3 L223.8,136.5 L226.8,135.1 L232,141.8 L229,143.3 L229,143.3 Z M234.8,140.6 L229.6,133.9 L232.1,132.8 L236.9,138.9 L238.2,139.1 L234.8,140.6 L234.8,140.6 Z M244.9,132.3 L245.8,133.4 L242.6,134.9 L236.8,133.9 L234.9,131.5 L235,131.4 L243.6,132.9 L244.9,132.3 L244.9,132.3 Z M239.9,126.1 L241,127.5 L238,127 L239.9,126.1 L239.9,126.1 Z M235.2,120.4 L236.9,122.4 L219,130.5 L217.4,128.4 L235.2,120.4 L235.2,120.4 Z M225.6,115.7 L231.8,116.8 L214.3,124.6 L212.1,121.7 L225.6,115.7 L225.6,115.7 Z M222.5,111.9 L209.2,117.7 L208.4,116.7 L221.7,110.9 L222.5,111.9 L222.5,111.9 Z M221.6,105.1 L221.2,106 L205.4,112.9 L205,112.4 L221.6,105.1 L221.6,105.1 Z M108.4,248.3 L108,247.3 L105.7,248.5 L98,229.7 L101.3,224.9 L108.4,221.5 L108.4,221.4 L118,243.5 L108.4,248.3 L108.4,248.3 Z M118.4,243.2 L108.8,221.2 L116.2,217.6 L126,239.3 L118.4,243.2 L118.4,243.2 Z M126.6,239.1 L116.8,217.6 L120.9,215.6 L123.6,209.7 L135.4,234.6 L126.6,239.1 L126.6,239.1 Z M136.2,234.3 L124.3,209.2 L140.1,201.6 L152.6,226 L136.2,234.3 L136.2,234.3 Z M279,108.9 L280.7,110.7 L279.8,111.1 L279,110.2 L279,108.9 L279,108.9 Z M275.5,121.9 L275.7,122.1 L275.5,122.2 L275.5,121.9 L275.5,121.9 Z M286.6,42.7 L280.7,37.5 L281.7,34.4 L284.6,34.7 L286.5,34 L293.4,40 L286.6,42.7 L286.6,42.7 Z M271.1,25.7 L268.6,25.4 L266.2,23.2 L271.7,21.1 L275.2,24.1 L271.1,25.7 L271.1,25.7 Z M279.1,27.3 L279.2,22.8 L271.8,16.5 L282.4,12.5 L285,14.6 L299.2,9.2 L331.3,34.2 L315.7,40.6 L304.9,31.7 L300.2,33.6 L294.7,35.8 L286.9,29.2 L286.8,29.1 L284.8,29.9 L281.9,29.6 L279.1,27.3 L279.1,27.3 Z M274.1,42.1 L278.4,40.4 L278.5,40.5 L282.7,44.3 L278,46.2 L273.4,42 L274.1,42.1 L274.1,42.1 Z M265.2,42.2 L273.2,49.6 L273.2,50.8 L271.3,51.6 L262.5,43.3 L265.2,42.2 L265.2,42.2 Z M258.7,44.8 L267.5,53.2 L266.9,53.4 L258.1,45 L258.7,44.8 L258.7,44.8 Z M254.5,46.4 L263.2,54.8 L262.1,55.2 L261,54.1 L253.5,46.8 L254.5,46.4 L254.5,46.4 Z M249.9,48.3 L257.2,55.5 L256,56 L248.7,48.8 L249.9,48.3 L249.9,48.3 Z M245.3,50.1 L252.6,57.4 L251.5,57.8 L244.2,50.5 L245.3,50.1 L245.3,50.1 Z M240.8,51.9 L248,59.2 L246.9,59.6 L246.7,59.3 L239.8,52.2 L240.8,51.9 L240.8,51.9 Z M243.5,68.6 L237.9,70.9 L237.9,70.6 L243.4,68.4 L243.5,68.6 L243.5,68.6 Z M236.5,53.8 L243.1,60.7 L241.8,61.2 L240.5,59.8 L240,59.3 L239.1,59.7 L239,57.7 L236.1,54.7 L236.5,53.8 L236.5,53.8 Z M234.7,57.8 L235.5,58.6 L230.2,59.7 L229.8,59.8 L234.7,57.8 L234.7,57.8 Z M224.8,71.4 L225.9,71.6 L225.4,71.8 L224.6,71.7 L224.8,71.4 L224.8,71.4 Z M222.8,76.2 L224.4,76.4 L223.5,76.8 L222.6,76.7 L222.8,76.2 L222.8,76.2 Z M221.7,88.5 L220.8,87.4 L228,84.4 L245.7,77 L246.6,78 L223.2,87.9 L221.7,88.5 L221.7,88.5 Z M225.9,93.5 L224.9,92.3 L250,81.6 L251.1,82.7 L225.9,93.5 L225.9,93.5 Z M238.8,102 L236.6,99.5 L234.6,99.2 L257.2,89.4 L260.2,92.6 L238.8,102 L238.8,102 Z M243.7,114.4 L242.3,112.7 L243.7,112.1 L243.5,107.4 L242,105.6 L268.8,93.8 L270.4,95.5 L261.7,99.4 L261.7,104.1 L263.2,105.7 L243.7,114.4 L243.7,114.4 Z M247.1,118.4 L246.9,118.1 L264.4,110.2 L264.4,110.6 L247.1,118.4 L247.1,118.4 Z M250.2,122.1 L266.8,114.4 L266.9,114.5 L250.2,122.1 L250.2,122.1 Z M262.9,128.4 L262,128.2 L261.5,127.6 L259.2,127.2 L265.1,124.5 L262.9,128.4 L262.9,128.4 Z M269.4,129.5 L265.6,128.9 L266.1,128 L270.4,126 L269.4,129.5 L269.4,129.5 Z M270,121.2 L270.1,118 L272.1,120.2 L270,121.2 L270,121.2 Z M280.1,133.1 L276.4,132.5 L274.5,130.4 L270.9,129.8 L271,129.3 L279.1,125.5 L279.3,120.8 L276.5,117.7 L277.1,117.4 L288.1,129.3 L280.1,133.1 L280.1,133.1 Z M291.6,127.6 L280.6,115.7 L282,115.1 L293.1,126.9 L291.6,127.6 L291.6,127.6 Z M296.6,125.2 L285.5,113.4 L287.1,112.7 L298.3,124.4 L296.6,125.2 L296.6,125.2 Z M301.9,122.6 L290.7,111 L292,110.4 L303.2,122 L301.9,122.6 L301.9,122.6 Z M307,120.2 L292.4,105.3 L284.3,109 L280.8,105.3 L294.7,99 L313,117.3 L307,120.2 L307,120.2 Z M316.9,115.5 L305.5,104.2 L306.6,103.7 L309.7,106.8 L318,114.9 L316.9,115.5 L316.9,115.5 Z M321.9,113.1 L316.5,107.9 L317.6,107.4 L323,112.6 L321.9,113.1 L321.9,113.1 Z M318.8,102.7 L321.8,101.3 L330.1,109.2 L327,110.7 L318.8,102.7 L318.8,102.7 Z M293.7,139.6 L299,145.4 L286.4,143.1 L293.7,139.6 L293.7,139.6 Z M298.7,153.4 L298.8,153.6 L281.7,150.4 L298.7,153.4 L298.7,153.4 Z M239.9,151.2 L242.5,151.6 L245.5,155.5 L244.1,159.5 L238.2,151.9 L239.9,151.2 L239.9,151.2 Z M235.6,153.3 L241.6,161.1 L239.7,162 L233.8,154.2 L235.6,153.3 L235.6,153.3 Z M231,155.5 L236.9,163.4 L228.3,167.6 L222.5,159.6 L231,155.5 L231,155.5 Z M192.7,173.7 L200.2,185.4 L196.7,187.1 L189.2,175.4 L192.7,173.7 L192.7,173.7 Z M168,218.3 L160.4,202.9 L158.3,192.9 L158.9,194 L171.5,216.6 L168,218.3 L168,218.3 Z M172.9,215.9 L160.4,193.6 L164.2,191.8 L165,189.7 L170,187.3 L183.6,210.5 L172.9,215.9 L172.9,215.9 Z M185.3,209.6 L171.7,186.4 L175.1,184.8 L176,186.4 L186.4,203.9 L186.1,204 L187,208.5 L187.1,208.7 L185.3,209.6 L185.3,209.6 Z M188.2,203 L175.9,182.6 L176.2,181.5 L181.9,178.8 L194.8,199.7 L188.2,203 L188.2,203 Z M196.8,198.8 L183.8,178 L187.3,176.3 L200.4,197 L196.8,198.8 L196.8,198.8 Z M206.1,200.2 L203.1,195.5 L202.3,195.9 L199.2,191.1 L203,189.2 L202.3,184.6 L194.6,172.7 L199.2,170.5 L215.7,195.3 L206.1,200.2 L206.1,200.2 Z M218,194.2 L201.5,169.5 L208.4,166.2 L225.2,190.6 L218,194.2 L218,194.2 Z M250.6,198.7 L238.3,205.1 L210.6,165.1 L220,160.6 L228.5,172.5 L244.3,164.7 L244.4,164.9 L247,157 L247,156.9 L246.9,154.9 L247.9,154.4 L250.9,154.9 L244.5,173.3 L244.7,177.9 L246.1,179.8 L241.7,182 L241.9,186.6 L250.6,198.7 L250.6,198.7 Z M319.8,181.4 L323.1,179.6 L326.6,183.5 L326.4,184.5 L330.9,189.6 L330.2,193.4 L329.1,201.3 L329.2,201.4 L293.1,221.5 L289.8,220.8 L289.2,220.1 L289.2,219.9 L289.6,215.4 L280.4,213.5 L279.5,217.6 L277.1,218.9 L273.1,218.1 L266.8,209.6 L266.9,205.4 L257,191.7 L251.2,184 L245.7,186.7 L245,185.7 L249.4,183.5 L249.3,178.9 L246.4,175 L252.8,156.4 L253.2,155.4 L268.9,158.2 L276.6,154.4 L303.6,159.4 L304.3,160.2 L304,163.3 L319.8,181.4 L319.8,181.4 Z M306.8,157.5 L300.8,150.9 L303,151.3 L303.4,150.1 L308.7,151.1 L312.1,154.8 L306.8,157.5 L306.8,157.5 Z M318.2,153.6 L307.1,141.8 L306.2,142.2 L300.6,136.2 L302.1,135.5 L318.8,153.3 L318.2,153.6 L318.2,153.6 Z M323.5,152.2 L322.9,151.6 L305.9,133.7 L307.3,133 L323.8,150.3 L323.5,152.2 L323.5,152.2 Z M395,106.2 L404.9,114.4 L404.9,117 L403.3,117.8 L400.2,115.2 L400.8,113.2 L393.3,107 L395,106.2 L395,106.2 Z M386.7,99.3 L391.6,103.4 L389.9,104.2 L389,103.5 L387.1,104.4 L379.8,98.3 L386.7,99.3 L386.7,99.3 Z M374.2,99.7 L392.3,114.9 L387.9,117.1 L369.9,101.7 L374.2,99.7 L374.2,99.7 Z M353.4,113 L354.1,109.6 L365.4,104 L402,135.7 L397,138.4 L383.1,126.2 L363.8,136.2 L344,117.6 L353.4,113 L353.4,113 Z M339.7,117.1 L340.4,117.2 L340.2,118.6 L339,117.5 L339.7,117.1 L339.7,117.1 Z M334.9,119.5 L360.5,144 L362.4,144.4 L364,143.5 L372.6,151.7 L365.9,155.3 L330.9,121.3 L334.9,119.5 L334.9,119.5 Z M346,142.1 L361.8,157.6 L350.8,163.5 L342,154.5 L336.4,157.4 L326.9,147.6 L311,131.1 L326.9,123.3 L346,142.1 L346,142.1 Z M342.4,100.3 L341.6,99.5 L336.9,101.7 L336.2,106.1 L332.2,108 L332.6,105.4 L322.6,96.1 L315.5,99.4 L288.7,73.8 L324,58.6 L348.1,79 L346.4,79.8 L339.8,82.8 L339,87.6 L338.3,93.1 L347.1,101 L342.4,100.3 L342.4,100.3 Z M351.4,99 L339.3,88.3 L339.4,87.7 L345.1,85 L347.6,87.2 L347.3,89.1 L352.3,93.4 L356,96.6 L351.4,99 L351.4,99 Z M360.6,94.6 L350,85.6 L350.1,85.1 L361,94.4 L360.6,94.6 L360.6,94.6 Z M403.2,97.6 L402.3,96.9 L402.8,96.6 L403.7,97.3 L403.2,97.6 L403.2,97.6 Z M413.6,105.9 L406.6,100.4 L407.1,100.1 L414.6,106 L413.6,105.9 L413.6,105.9 Z M417.8,106.5 L417.8,106 L418.7,106.7 L417.8,106.5 L417.8,106.5 Z M455.4,88.6 L453.5,93.5 L453.9,95.5 L445.1,94 L424.4,104.7 L403.9,88.8 L395.7,82.4 L392.9,82.1 L393,80.3 L354,50 L359.5,47.6 L363.6,50.7 L401.6,34 L470.6,80.7 L455.4,88.6 L455.4,88.6 Z M455.4,88.6" class="wall"/>
        </g>
        <g class="ceilings">
            <path class="unit" d="M291.2,7.7 L299.3,4.6 L296.8,2.7 L288.7,5.7 L290.5,7.1 L291.2,7.7 L291.2,7.7 Z M291.2,7.7" id="1001"/>
            <path class="unit" d="M290,8.1 L289.3,7.6 L290.3,7.2 L288.5,5.8 L282.8,7.9 L285.3,9.9 L290,8.1 L290,8.1 Z M290,8.1" id="1002"/>
            <path class="unit" d="M271.6,16.5 L268,13.5 L263.4,15.2 L261.8,19.4 L262.4,20 L271.6,16.5 L271.6,16.5 Z M271.6,16.5" id="1003"/>
            <path class="unit" d="M271.8,16.7 L262.6,20.1 L268.6,25.5 L271.1,25.7 L278.9,22.8 L271.8,16.7 L271.8,16.7 Z M271.8,16.7" id="1004"/>
            <path class="unit" d="M262.4,27.8 L257.8,23.7 L256,22.1 L230.4,19.3 L226.4,20.7 L245.4,39.8 L261.6,33.5 L262.2,31.8 L261.3,30.9 L262.4,27.8 L262.4,27.8 Z M262.4,27.8" id="1005"/>
            <path class="unit" d="M241,41.5 L229.3,29.9 L220.9,33 L232.5,44.8 L241,41.5 L241,41.5 Z M241,41.5" id="1008"/>
            <path class="unit" d="M233.2,30.7 L232.6,30.2 L230.7,30.9 L241.2,41.4 L245.2,39.8 L235.4,29.9 L233.2,30.7 L233.2,30.7 Z M233.2,30.7" id="1007"/>
            <path class="unit" d="M226.2,44 L232.1,44.8 L218.4,30.7 L209.6,34 L221,46 L226.2,44 L226.2,44 Z M226.2,44" id="1009"/>
            <path class="unit" d="M300.1,33.9 L294.6,36.1 L294.5,36 L286.7,29.4 L284.8,30.1 L281.9,29.8 L280,35.6 L279,36 L286.6,42.7 L302.8,36.2 L300.1,33.9 L300.1,33.9 Z M300.1,33.9" id="1010"/>
            <path class="unit" d="M276.7,23.8 L277.8,24.8 L276.7,25.2 L281.9,29.6 L284.7,30 L286.8,29.2 L294.7,35.9 L300.1,33.7 L304.8,31.8 L315.7,40.7 L335.6,32.5 L299.5,4.7 L285.2,10.1 L282.6,8 L268.2,13.4 L279.3,22.8 L276.7,23.8 L276.7,23.8 Z M276.7,23.8" id="1011"/>
            <path class="unit" d="M274.2,37.5 L270,37 L269.5,38.5 L278,46.2 L286.4,42.8 L278.5,35.8 L274.2,37.5 L274.2,37.5 Z M274.2,37.5" id="1012"/>
            <path class="unit" d="M202,45.1 L208,51.7 L211.8,50.3 L218.5,50.8 L218.8,50.4 L220.8,46.1 L209.4,34 L201,37.2 L206.6,43.3 L202,45.1 L202,45.1 Z M202,45.1" id="1013"/>
            <path class="unit" d="M267.5,36.7 L265.5,37.5 L275.9,47 L277.7,46.3 L269.2,38.5 L269.7,37 L267.5,36.7 L267.5,36.7 Z M267.5,36.7" id="1014"/>
            <path class="unit" d="M271.2,51.6 L274.1,50.5 L273.2,49.6 L276.7,48.2 L265.2,37.6 L259,40.1 L271.2,51.6 L271.2,51.6 Z M271.2,51.6" id="1015"/>
            <path class="unit" d="M254.7,41.7 L266.9,53.4 L271,51.7 L258.7,40.2 L254.7,41.7 L254.7,41.7 Z M254.7,41.7" id="1016"/>
            <path class="unit" d="M250.1,43.6 L261,54.2 L262.2,55.3 L266.6,53.5 L254.5,41.8 L250.1,43.6 L250.1,43.6 Z M250.1,43.6" id="1017"/>
            <path class="unit" d="M245.4,45.4 L256.1,56 L260.6,54.1 L249.8,43.7 L245.4,45.4 L245.4,45.4 Z M245.4,45.4" id="1018"/>
            <path class="unit" d="M240.9,47.2 L251.5,57.8 L255.9,56.1 L245.2,45.5 L240.9,47.2 L240.9,47.2 Z M240.9,47.2" id="1019"/>
            <path class="unit" d="M229.4,55.2 L227.2,60.3 L230.1,59.7 L236.4,58.4 L236.8,58.3 L232.5,54 L229.4,55.2 L229.4,55.2 Z M229.4,55.2" id="1020"/>
            <path class="unit" d="M240.6,47.3 L236.3,49.1 L234.7,53.1 L239,57.6 L237.3,58.3 L238.7,59.8 L240,59.2 L240.6,59.8 L241.9,61.1 L246.3,59.4 L246.7,59.8 L251.2,57.9 L240.6,47.3 L240.6,47.3 Z M240.6,47.3" id="1021"/>
            <path class="unit" d="M211.8,50.5 L208.1,51.9 L207.7,52.7 L217.1,63.1 L221.2,53.9 L218.5,51 L211.8,50.5 L211.8,50.5 Z M211.8,50.5" id="1023"/>
            <path class="unit" d="M203.8,61.3 L208.5,66.8 L212,67.1 L216,65.5 L216.9,63.4 L207.6,53 L203.8,61.3 L203.8,61.3 Z M203.8,61.3" id="1024"/>
            <path class="unit" d="M225.7,63.9 L229.1,64.4 L240.3,59.9 L239.9,59.5 L238.6,60 L237.1,58.4 L236.5,58.6 L230.2,59.9 L227.1,60.5 L225.7,63.9 L225.7,63.9 Z M225.7,63.9" id="1025"/>
            <path class="unit" d="M224.5,66.6 L227.4,67 L241.6,61.2 L240.4,60 L229.1,64.6 L225.6,64.1 L224.5,66.6 L224.5,66.6 Z M224.5,66.6" id="1026"/>
            <path class="unit" d="M222.5,71.4 L225.4,71.8 L237.3,67 L236.6,66.2 L243,63.6 L242.4,62.9 L242.9,62.6 L241.8,61.4 L227.5,67.2 L224.5,66.8 L222.5,71.4 L222.5,71.4 Z M222.5,71.4" id="1027"/>
            <path class="unit" d="M174.2,71.8 L169.3,73.8 L172.2,74.2 L179.1,75.2 L176.7,72.2 L174.2,71.8 L174.2,71.8 Z M174.2,71.8" id="1028"/>
            <path class="unit" d="M71.8,80.7 L72.5,82 L74.3,82.3 L76.6,81.5 L92,80.2 L101.6,81.7 L102.2,82.5 L106.4,76.2 L111.3,74.4 L118,75.3 L124.4,76.2 L131.6,65.1 L113.8,62.6 L117.2,57.5 L103.4,55.7 L106.5,51.4 L103.6,51.1 L101.6,53.8 L90.2,52.3 L84.9,59.4 L81,58.9 L79.7,60.6 L86.1,61.5 L74.7,76.9 L67.9,75.9 L66.5,77.8 L73.3,78.8 L71.8,80.7 L71.8,80.7 Z M71.8,80.7" id="1029"/>
            <path class="unit" d="M174.6,66.9 L170,66.2 L167.2,71.2 L169,73.7 L174.2,71.6 L176.9,72 L179.5,75.3 L188.4,76.6 L192.9,74.8 L194,72.6 L208.2,66.9 L203.5,61.4 L207.4,52.7 L207.8,51.9 L200.4,43.7 L200,43.9 L200.4,44.3 L199.2,44.8 L198.7,44.3 L168.4,55.8 L175.6,64.9 L174.6,66.9 L174.6,66.9 Z M174.6,66.9" id="1030"/>
            <path class="unit" d="M106.6,76.3 L102.4,82.6 L113.4,84.4 L116.2,80 L119,75.7 L111.2,74.6 L106.6,76.3 L106.6,76.3 Z M106.6,76.3" id="1031"/>
            <path class="unit" d="M220.3,76.4 L223.5,76.8 L247.2,67.1 L244.5,64.3 L243.9,64.5 L243.2,63.7 L237,66.3 L237.7,67 L225.5,72 L222.4,71.6 L220.3,76.4 L220.3,76.4 Z M220.3,76.4" id="1032"/>
            <path class="unit" d="M132,65.1 L124,77.4 L129.3,85.8 L130.8,85.2 L129.8,83.7 L135.6,81.6 L136.5,83 L140.8,81.3 L139.8,79.9 L146.1,77.5 L147,78.9 L151.7,77 L154.7,72.1 L159.8,70.1 L166.9,71.1 L169.8,65.9 L174.4,66.6 L175.3,65 L174,63.3 L171.2,64.3 L167.7,59.8 L165.4,60.7 L159.3,52.8 L149.5,56.4 L145.2,50.6 L140.5,52.3 L138.5,55.2 L131.7,57.8 L126.5,57 L128.5,54 L126.1,53.7 L122.8,58.4 L117.5,57.6 L114.2,62.5 L132,65.1 L132,65.1 Z M132,65.1" id="1033"/>
            <path class="unit" d="M135.4,81.9 L130.2,83.8 L131.1,85.2 L133.1,85.4 L135.4,84.5 L136.1,83.4 L136.2,83.1 L135.4,81.9 L135.4,81.9 Z M135.4,81.9" id="1034"/>
            <path class="unit" d="M124.3,76.4 L119.2,75.7 L113.7,84.4 L127.5,86.5 L129,85.9 L123.7,77.4 L124.3,76.4 L124.3,76.4 Z M124.3,76.4" id="1035"/>
            <path class="unit" d="M227.7,79.8 L217.8,83.9 L221.7,88.5 L249.7,76.8 L245.6,72.4 L227.7,79.8 L227.7,79.8 Z M227.7,79.8" id="1036"/>
            <path class="unit" d="M219.5,78.3 L227.7,79.6 L250.2,70.2 L247.4,67.2 L223.5,77.1 L220.3,76.6 L219.5,78.3 L219.5,78.3 Z M219.5,78.3" id="1037"/>
            <path class="unit" d="M157.1,85.1 L158.6,87.1 L161.4,86 L159.9,84 L157.1,85.1 L157.1,85.1 Z M157.1,85.1" id="1038"/>
            <path class="unit" d="M217.3,83.4 L217.6,83.7 L227.3,79.7 L219.4,78.5 L217.3,83.4 L217.3,83.4 Z M217.3,83.4" id="1039"/>
            <path class="unit" d="M153.8,89.5 L152.1,87.1 L151.4,87 L147.3,88.6 L147,89.1 L148.7,91.6 L153.8,89.5 L153.8,89.5 Z M153.8,89.5" id="1040"/>
            <path class="unit" d="M145.9,89.2 L142.2,90.7 L141.7,91.2 L143.4,93.7 L148.4,91.7 L146.7,89.2 L145.9,89.2 L145.9,89.2 Z M145.9,89.2" id="1041"/>
            <path class="unit" d="M212.6,86.1 L214.2,88 L217.4,86.7 L215.8,84.7 L212.6,86.1 L212.6,86.1 Z M212.6,86.1" id="1042"/>
            <path class="unit" d="M194.8,84.5 L193.2,87.9 L192.6,88.1 L193.8,89.6 L195.2,89 L200.6,84.5 L195.2,83.7 L194.8,84.5 L194.8,84.5 Z M194.8,84.5" id="1043"/>
            <path class="unit" d="M82.6,89 L78.4,88.4 L76.3,89.4 L74.6,91.6 L99.1,96.5 L103.4,90.2 L103.1,89.8 L87.3,87.2 L82.6,89 L82.6,89 Z M82.6,89" id="1044"/>
            <path class="unit" d="M169.9,79.9 L164.4,91.3 L168.3,91.8 L173.5,80.4 L169.9,79.9 L169.9,79.9 Z M169.9,79.9" id="1045"/>
            <path class="unit" d="M171.9,84.6 L168.5,92 L166.5,96.4 L171.6,94.3 L177.7,81.1 L173.8,80.5 L171.9,84.6 L171.9,84.6 Z M171.9,84.6" id="1046"/>
            <path class="unit" d="M181.3,83.1 L177,92.1 L186.1,88.4 L187.3,90 L192.9,87.7 L194.9,83.6 L182,81.7 L181.3,83.1 L181.3,83.1 Z M181.3,83.1" id="1047"/>
            <path class="unit" d="M136.6,93.2 L138.2,95.7 L143.1,93.8 L141.5,91.3 L140.7,91.2 L136.9,92.7 L136.6,93.2 L136.6,93.2 Z M136.6,93.2" id="1048"/>
            <path class="unit" d="M172,94.2 L176.6,92.3 L181.7,81.7 L177.9,81.1 L172,94.2 L172,94.2 Z M172,94.2" id="1049"/>
            <path class="unit" d="M106.9,90.9 L106.6,90.5 L104.1,90.1 L103.7,90.2 L99.4,96.6 L101.1,99.8 L102.7,99.1 L108.2,91.1 L106.9,90.9 L106.9,90.9 Z M106.9,90.9" id="1050"/>
            <path class="unit" d="M135.5,93.3 L131.8,94.8 L131.9,94.9 L133.5,97.6 L137.9,95.9 L136.3,93.3 L135.5,93.3 L135.5,93.3 Z M135.5,93.3" id="1051"/>
            <path class="unit" d="M195.4,89.2 L194,89.8 L194.7,90.7 L192.7,91.5 L194.2,93.4 L210.3,86.7 L209.6,85.8 L201,84.5 L195.4,89.2 L195.4,89.2 Z M195.4,89.2" id="1052"/>
            <path class="unit" d="M161.5,81.3 L160.1,83.7 L161.8,86.1 L158.7,87.3 L165.4,96.9 L166,96.6 L168.2,92 L164,91.4 L169.6,79.8 L166.4,79.3 L161.5,81.3 L161.5,81.3 Z M161.5,81.3" id="1053"/>
            <path class="unit" d="M110.3,98.2 L113.5,93.1 L114,93.2 L115,91.7 L109.4,90.8 L108.6,91.1 L103,99.3 L101.2,100 L102,101.5 L110.3,98.2 L110.3,98.2 Z M110.3,98.2" id="1054"/>
            <path class="unit" d="M221.9,88.7 L225.9,93.5 L254.1,81.4 L249.9,76.9 L221.9,88.7 L221.9,88.7 Z M221.9,88.7" id="1055"/>
            <path class="unit" d="M226.1,93.6 L228.7,96.7 L257.1,84.5 L254.3,81.6 L226.1,93.6 L226.1,93.6 Z M226.1,93.6" id="1056"/>
            <path class="unit" d="M125,95.5 L123.9,93.7 L122.7,93.5 L122.4,93 L119.9,94 L115.9,100.4 L114.6,100.9 L116,103.4 L119.4,102.1 L121.2,105.1 L122.6,104.6 L123.4,105.9 L130.9,102.9 L126.6,95.7 L125,95.5 L125,95.5 Z M125,95.5" id="1057"/>
            <path class="unit" d="M194.1,93.7 L191.6,94.7 L197.3,102.2 L216.4,94.1 L210.5,86.9 L194.1,93.7 L194.1,93.7 Z M194.1,93.7" id="1058"/>
            <path class="unit" d="M218.5,96.6 L216.6,94.3 L197.4,102.4 L199.2,104.8 L218.5,96.6 L218.5,96.6 Z M218.5,96.6" id="1059"/>
            <path class="unit" d="M228.8,96.9 L230.2,98.5 L236.7,99.5 L238.8,102 L263.4,91.2 L257.2,84.7 L228.8,96.9 L228.8,96.9 Z M228.8,96.9" id="1060"/>
            <path class="unit" d="M221.4,100.1 L218.6,96.8 L199.4,105 L202,108.4 L221.4,100.1 L221.4,100.1 Z M221.4,100.1" id="1061"/>
            <path class="unit" d="M131.4,103 L123.2,106.2 L122.4,104.9 L121,105.5 L119.2,102.4 L115.8,103.8 L114.2,100.8 L115.7,100.2 L119.7,93.9 L122.3,92.8 L116.5,91.9 L116.1,92.6 L114.9,92.4 L114.2,93.4 L113.7,93.4 L110.6,98.3 L102.1,101.7 L107.5,111.6 L111.6,109.9 L109.6,106.4 L116.2,103.8 L122.3,114.4 L165.1,97 L156.8,85.2 L155.5,85.8 L154.6,85.7 L152.8,86.5 L152.4,87 L154.2,89.6 L133.4,97.9 L131.7,95.2 L127.6,96.8 L131.4,103 L131.4,103 Z M131.4,103" id="1062"/>
            <path class="unit" d="M221.2,106 L222.9,102 L221.5,100.3 L202.2,108.6 L205.4,112.9 L221.2,106 L221.2,106 Z M221.2,106" id="1063"/>
            <path class="unit" d="M225,110.8 L221.3,106.2 L205.6,113.1 L209.2,117.7 L225,110.8 L225,110.8 Z M225,110.8" id="1064"/>
            <path class="unit" d="M268.8,89.1 L239,102.2 L243.5,107.4 L241.2,108.4 L240.5,110.7 L243.7,114.4 L266.2,104.3 L261.7,99.4 L273.6,94.1 L268.8,89.1 L268.8,89.1 Z M268.8,89.1" id="1065"/>
            <path class="unit" d="M266.7,109.5 L264.4,107 L267.4,105.6 L266.4,104.5 L243.9,114.7 L247.1,118.4 L266.7,109.5 L266.7,109.5 Z M266.7,109.5" id="1066"/>
            <path class="unit" d="M234.7,115.5 L232,112.1 L225.2,111 L209.3,118 L214.4,124.5 L234.7,115.5 L234.7,115.5 Z M234.7,115.5" id="1067"/>
            <path class="unit" d="M269.6,117.5 L267.1,114.7 L250.4,122.3 L252.8,125.2 L269.6,117.5 L269.6,117.5 Z M269.6,117.5" id="1068"/>
            <path class="unit" d="M269.9,113.1 L266.8,109.7 L247.2,118.6 L250.2,122.1 L269.9,113.1 L269.9,113.1 Z M269.9,113.1" id="1069"/>
            <path class="unit" d="M226.8,127.3 L228.4,129.3 L234.7,126.4 L243.3,127.9 L244.6,127.3 L239.7,121.4 L226.8,127.3 L226.8,127.3 Z M226.8,127.3" id="1070"/>
            <path class="unit" d="M239.5,121.2 L234.9,115.7 L214.5,124.8 L218.9,130.5 L239.5,121.2 L239.5,121.2 Z M239.5,121.2" id="1071"/>
            <path class="unit" d="M262,128.2 L262.9,128.4 L265.9,123.1 L275.1,118.8 L270.1,113.3 L267.3,114.6 L270,117.5 L253,125.4 L253.9,126.4 L261.5,127.6 L262,128.2 L262,128.2 Z M262,128.2" id="1072"/>
            <path class="unit" d="M270.9,124.3 L272.7,123.5 L278.9,120.6 L273.2,114.4 L272.1,115 L275.6,118.9 L266.2,123.3 L263.2,128.4 L269.4,129.5 L270.9,124.3 L270.9,124.3 Z M270.9,124.3" id="1073"/>
            <path class="unit" d="M245.8,133.3 L246.6,129.8 L244.7,127.6 L243.4,128.2 L234.7,126.7 L232.1,127.9 L236.8,133.9 L242.6,134.8 L245.8,133.3 L245.8,133.3 Z M245.8,133.3" id="1074"/>
            <path class="unit" d="M276.4,132.4 L280.1,133.1 L291.3,127.7 L277.2,112.6 L273.5,114.3 L279.3,120.7 L271.2,124.5 L269.8,129.5 L274.6,130.3 L276.4,132.4 L276.4,132.4 Z M276.4,132.4" id="1075"/>
            <path class="unit" d="M241.9,137.3 L242.5,135.1 L236.6,134.1 L231.8,128 L228.3,129.6 L226.8,130.3 L234.8,140.6 L241.9,137.3 L241.9,137.3 Z M241.9,137.3" id="1076"/>
            <path class="unit" d="M234.5,140.7 L226.5,130.4 L221.1,132.9 L229,143.3 L234.5,140.7 L234.5,140.7 Z M234.5,140.7" id="1077"/>
            <path class="unit" d="M228.7,143.4 L220.8,133 L216.6,135 L217.8,136.7 L217.1,137 L221.8,143.3 L223.6,145.8 L228.7,143.4 L228.7,143.4 Z M228.7,143.4" id="1078"/>
            <path class="unit" d="M221.4,146.8 L221.7,145.5 L221,144.5 L221.4,143.4 L216.6,136.9 L217.4,136.6 L216.2,135 L215,134.8 L214.1,133.7 L208.7,136.1 L212.1,140.8 L213.1,140.3 L218.8,148 L221.4,146.8 L221.4,146.8 Z M221.4,146.8" id="1079"/>
            <path class="unit" d="M218.5,148.2 L213,140.7 L211.9,141.1 L208.4,136.3 L206.8,137 L205.9,135.7 L207.4,135 L205.6,132.5 L194.3,137.6 L205.8,154.1 L218.5,148.2 L218.5,148.2 Z M218.5,148.2" id="1080"/>
            <path class="unit" d="M193.8,137.5 L205.7,132.1 L206.2,132.8 L208.9,131.5 L205.6,127 L197,130.8 L193.2,125.5 L176.1,133 L193.9,159.6 L205.5,154.2 L193.8,137.5 L193.8,137.5 Z M193.8,137.5" id="1081"/>
            <path class="unit" d="M193.6,159.8 L175.7,132.9 L193,125.3 L183.4,111.8 L138.5,130.8 L156.4,161.2 L167.5,156.1 L169.5,156.5 L171.8,155.4 L172.6,156.7 L167.4,159 L172.6,167.5 L171.5,169.9 L171.9,169.9 L193.6,159.8 L193.6,159.8 Z M193.6,159.8" id="1082"/>
            <path class="unit" d="M171.1,169.8 L172.2,167.5 L167.1,159.1 L162,161.5 L166,168 L165.6,168.8 L171.1,169.8 L171.1,169.8 Z M171.1,169.8" id="1084"/>
            <path class="unit" d="M155.3,171.1 L161.8,168 L165.2,168.7 L165.5,168.1 L161.7,161.6 L152.6,165.7 L149.2,159.8 L145,161.7 L152.5,175 L153.5,175.1 L155.3,171.1 L155.3,171.1 Z M155.3,171.1" id="1085"/>
            <path class="unit" d="M152.2,175.3 L144.7,161.8 L137.7,165 L141.7,172.4 L140,173.1 L144.9,182.1 L147.2,181 L147.6,180.8 L150.6,181.5 L153.3,175.4 L152.2,175.3 Z M152.2,175.3" id="1086"/>
            <path class="unit" d="M139.8,172.9 L139.8,172.9 L140.8,172.5 L141.1,172.3 L141.3,172.3 L137.4,165.1 L137.2,165.2 L133.8,166.7 L144.4,186.6 L146.4,185.7 L139.5,173 L139.8,172.9 Z M139.8,172.9" id="1087"/>
            <path class="unit" d="M144.1,186.8 L129.4,159.3 L125.5,161 L140,188.6 L144.1,186.8 L144.1,186.8 Z M144.1,186.8" id="1088"/>
            <path class="unit" d="M135.5,190.8 L120.8,162.7 L129.3,159.1 L125.4,151.9 L104.2,161.1 L121.6,197.3 L135.5,190.8 L135.5,190.8 Z M135.5,190.8" id="1089"/>
            <path class="unit" d="M121.2,197.5 L103.8,161.3 L93,166 L109.7,202.9 L121.2,197.5 L121.2,197.5 Z M121.2,197.5" id="1090"/>
            <path class="unit" d="M96.9,208.9 L86,183.3 L79.8,186.1 L90.4,211.9 L96.9,208.9 L96.9,208.9 Z M96.9,208.9" id="1091"/>
            <path class="unit" d="M86.4,183.2 L97.3,208.7 L103.5,205.8 L92.1,180.6 L86.4,183.2 L86.4,183.2 Z M86.4,183.2" id="1092"/>
            <path class="unit" d="M90,212.1 L79.5,186.3 L73.2,189.1 L83.5,215.2 L90,212.1 L90,212.1 Z M90,212.1" id="1093"/>
            <path class="unit" d="M45.6,195.9 L43.6,190 L28.9,196.4 L30.7,202.5 L5.9,213.5 L9.7,228.9 L3,232 L7.7,251.7 L14.7,248.5 L17,257.7 L9.9,261.1 L15.1,283 L22.4,279.4 L25.1,290 L39.1,283 L40.2,287.2 L58.7,277.9 L57.4,273.8 L94.8,255 L97,250.7 L71,184.6 L45.6,195.9 L45.6,195.9 Z M45.6,195.9" id="1094"/>
            <path class="unit" d="M289.7,7.6 L290.2,8 L291,7.7 L290.4,7.3 L289.7,7.6 L289.7,7.6 Z M289.7,7.6" id="1095"/>
            <path class="unit" d="M140.2,80 L141.1,81.3 L142.7,81.5 L146.2,80.2 L146.7,79 L145.9,77.8 L140.2,80 L140.2,80 Z M140.2,80" id="1096"/>
            <path class="unit" d="M330.8,114 L329.4,112.6 L326.2,114.1 L327.6,115.5 L330.8,114 L330.8,114 Z M330.8,114" id="1097"/>
            <path class="unit" d="M270.5,135.3 L273,134.1 L271.4,132.2 L268.9,133.4 L270.5,135.3 L270.5,135.3 Z M270.5,135.3" id="1098"/>
            <path class="unit" d="M249.8,147.1 L252.4,145.9 L250.7,143.8 L248.2,145.1 L249.8,147.1 L249.8,147.1 Z M249.8,147.1" id="1099"/>
            <path class="unit" d="M149.3,184.3 L150.4,181.8 L147.6,181.2 L145,182.4 L146.7,185.5 L149.3,184.3 L149.3,184.3 Z M149.3,184.3" id="1100"/>
            <path class="unit" d="M386,76.6 L388.1,76.8 L371.6,64 L365.9,66.6 L380.8,79.1 L386,76.6 L386,76.6 Z M386,76.6" id="1101"/>
            <path class="unit" d="M349.4,78.7 L365.5,92.3 L369.1,90.5 L357.2,80.5 L356.6,80.8 L352.5,77.3 L349.4,78.7 L349.4,78.7 Z M349.4,78.7" id="1102"/>
            <path class="unit" d="M365.2,92.4 L349.2,78.9 L346.3,80.2 L350.3,83.7 L348.7,84.5 L360.6,94.6 L365.2,92.4 L365.2,92.4 Z M365.2,92.4" id="1103"/>
            <path class="unit" d="M295,94.3 L277.7,102.1 L284.3,109 L292.4,105.3 L307,120.2 L316.6,115.6 L295,94.3 L295,94.3 Z M295,94.3" id="1104"/>
            <path class="unit" d="M349.9,83.6 L346,80.3 L340,83 L339.4,88.3 L351.4,99 L360.3,94.7 L348.2,84.4 L349.9,83.6 L349.9,83.6 Z M349.9,83.6" id="1105"/>
            <path class="unit" d="M404.2,91.8 L399.1,94.4 L403.2,97.6 L408.3,95.1 L404.2,91.8 L404.2,91.8 Z M404.2,91.8" id="1106"/>
            <path class="unit" d="M275.7,103 L279.1,106.6 L276.7,107.8 L279.8,111.1 L284,109.2 L277.4,102.2 L275.7,103 L275.7,103 Z M275.7,103" id="1107"/>
            <path class="unit" d="M339.7,82.9 L352.3,77.1 L324.5,53.9 L285.3,70.7 L327.1,110.6 L336.8,106 L337.6,102.4 L336.9,101.8 L341.6,99.6 L342.4,100.4 L347.1,101 L351.2,99.1 L339,88.4 L339.7,82.9 L339.7,82.9 Z M339.7,82.9" id="1108"/>
            <path class="unit" d="M378.8,93.2 L375.6,94.8 L387.2,104.5 L389.1,103.5 L390,104.2 L396.1,101.2 L388,94.5 L378.8,93.2 L378.8,93.2 Z M378.8,93.2" id="1109"/>
            <path class="unit" d="M475.9,78 L402.9,29.4 L364.6,46.1 L360.4,43 L350.4,47.3 L393.1,80.3 L393,82.1 L395.7,82.4 L403.9,88.8 L424.4,104.6 L445.1,94 L456.8,95.9 L455.4,88.6 L475.9,78 L475.9,78 Z M475.9,78" id="1111"/>
            <path class="unit" d="M326.8,110.7 L318.2,102.5 L316.6,103.3 L313.9,100.6 L310.7,102.1 L321.9,113.1 L326.8,110.7 L326.8,110.7 Z M326.8,110.7" id="1112"/>
            <path class="unit" d="M408.6,95.3 L403.4,97.8 L413.6,105.9 L417.5,106.4 L417.3,102.1 L408.6,95.3 L408.6,95.3 Z M408.6,95.3" id="1113"/>
            <path class="unit" d="M424.4,105 L403.9,89.1 L400.7,90.7 L398.8,89.2 L396.9,90.1 L396.8,92.6 L398.8,94.2 L404.2,91.5 L417.7,102 L417.8,106.5 L423.2,107.5 L434,101.9 L433.9,100.1 L424.4,105 L424.4,105 Z M424.4,105" id="1114"/>
            <path class="unit" d="M321.7,113.2 L307,99 L302.3,101.1 L316.9,115.5 L321.7,113.2 L321.7,113.2 Z M321.7,113.2" id="1115"/>
            <path class="unit" d="M306.7,120.3 L292.3,105.6 L287.6,107.8 L301.9,122.6 L306.7,120.3 L306.7,120.3 Z M306.7,120.3" id="1116"/>
            <path class="unit" d="M366.7,99.1 L387.9,117.2 L396.7,112.7 L375.3,94.9 L366.7,99.1 L366.7,99.1 Z M366.7,99.1" id="1117"/>
            <path class="unit" d="M284.5,109.2 L282.5,110.2 L296.6,125.2 L301.6,122.8 L287.4,107.9 L284.5,109.2 L284.5,109.2 Z M284.5,109.2" id="1118"/>
            <path class="unit" d="M390.2,104.4 L400.8,113.2 L399,114.1 L403.4,117.7 L406.5,116.1 L406.5,109.5 L396.4,101.4 L390.2,104.4 L390.2,104.4 Z M390.2,104.4" id="1119"/>
            <path class="unit" d="M279.7,111.4 L277.5,112.4 L291.6,127.6 L296.3,125.3 L282.2,110.3 L279.7,111.4 L279.7,111.4 Z M279.7,111.4" id="1120"/>
            <path class="unit" d="M340.8,115 L342.1,112.5 L340.5,112.3 L335.9,114.6 L361.7,139 L363.4,139.4 L364.9,138.6 L362.8,136.6 L363.5,136.2 L340.8,115 L340.8,115 Z M340.8,115" id="1121"/>
            <path class="unit" d="M354.7,104.9 L354.4,108.2 L344.6,112.9 L342.4,112.6 L341.2,115 L363.8,136.1 L383.1,126.1 L397,138.4 L406.4,133.4 L366.5,99.2 L354.7,104.9 L354.7,104.9 Z M354.7,104.9" id="1122"/>
            <path class="unit" d="M282.9,141.2 L282.7,142.5 L303.2,146.2 L303.5,145.1 L294.1,134.9 L282.3,140.5 L282.9,141.2 L282.9,141.2 Z M282.9,141.2" id="1123"/>
            <path class="unit" d="M300.5,151 L299.2,148.7 L282,145.7 L281.5,147.4 L277,149.6 L303.6,154.4 L300.5,151 L300.5,151 Z M300.5,151" id="1124"/>
            <path class="unit" d="M322.4,151.5 L302.7,130.7 L297.8,133 L306.3,142.1 L307.2,141.7 L318.2,153.6 L322.4,151.5 L322.4,151.5 Z M322.4,151.5" id="1125"/>
            <path class="unit" d="M317,154.2 L318,153.7 L307.1,142.1 L306.2,142.5 L297.5,133.2 L294.4,134.7 L303.8,145 L309.4,146 L316,153.1 L317,154.2 L317,154.2 Z M317,154.2" id="1126"/>
            <path class="unit" d="M246.6,152.4 L242.3,147 L239.7,146.5 L235.6,148.4 L244.2,159.6 L246.6,152.4 L246.6,152.4 Z M246.6,152.4" id="1127"/>
            <path class="unit" d="M244,159.9 L235.3,148.6 L231,150.6 L239.7,162 L244,159.9 L244,159.9 Z M244,159.9" id="1128"/>
            <path class="unit" d="M239.3,162.2 L230.7,150.8 L219.9,155.9 L228.3,167.5 L239.3,162.2 L239.3,162.2 Z M239.3,162.2" id="1129"/>
            <path class="unit" d="M312.1,154.8 L315.5,153 L309.2,146.2 L303.9,145.3 L303.5,146.5 L282.6,142.8 L282,145.4 L299.4,148.4 L300.8,150.9 L306.8,157.4 L312.1,154.8 L312.1,154.8 Z M312.1,154.8" id="1130"/>
            <path class="unit" d="M363.5,139.7 L361.6,139.2 L335.6,114.7 L327.9,118.5 L366,155.4 L376.7,149.6 L365.2,138.8 L363.5,139.7 L363.5,139.7 Z M363.5,139.7" id="1131"/>
            <path class="unit" d="M307.8,128.2 L303,130.5 L322.9,151.6 L331.1,160.2 L333.6,158.8 L324,148.8 L326.4,147.5 L307.8,128.2 L307.8,128.2 Z M307.8,128.2" id="1132"/>
            <path class="unit" d="M308,128.1 L326.9,147.6 L336.4,157.4 L342,154.5 L350.8,163.5 L365.7,155.5 L327.6,118.6 L308,128.1 L308,128.1 Z M308,128.1" id="1133"/>
            <path class="unit" d="M201.9,184.5 L191.9,169.1 L186.8,171.5 L196.7,187.1 L201.9,184.5 L201.9,184.5 Z M201.9,184.5" id="1134"/>
            <path class="unit" d="M199,165.8 L218,194.2 L227.2,189.6 L207.8,161.6 L199,165.8 L199,165.8 Z M199,165.8" id="1135"/>
            <path class="unit" d="M187.8,203.2 L174.1,180.3 L169.4,182.5 L185.3,209.6 L188.5,208 L186.2,204.1 L187.8,203.2 L187.8,203.2 Z M187.8,203.2" id="1136"/>
            <path class="unit" d="M175.3,177 L174.4,180 L188.2,203 L192.7,200.8 L177.5,175.9 L175.3,177 L175.3,177 Z M175.3,177" id="1137"/>
            <path class="unit" d="M181.4,174.1 L196.8,198.8 L202,196.1 L186.5,171.7 L181.4,174.1 L181.4,174.1 Z M181.4,174.1" id="1138"/>
            <path class="unit" d="M192.2,169 L202.5,184.6 L196.9,187.4 L202.4,195.9 L203.2,195.6 L206.1,200.2 L217.7,194.4 L198.6,165.9 L192.2,169 L192.2,169 Z M192.2,169" id="1139"/>
            <path class="unit" d="M248.6,178.9 L244.6,173.5 L252.6,150.7 L247.9,149.9 L245.8,150.9 L247,152.4 L244.3,160.3 L244.2,160.1 L228.2,167.9 L219.6,156 L208.1,161.5 L238.4,205.1 L253,197.5 L241.8,182.3 L248.6,178.9 L248.6,178.9 Z M248.6,178.9" id="1140"/>
            <path class="unit" d="M164,185.1 L163.1,187.2 L158.2,189.5 L172.9,215.9 L184.9,209.8 L169,182.7 L164,185.1 L164,185.1 Z M164,185.1" id="1141"/>
            <path class="unit" d="M152.8,190.4 L168,218.3 L172.6,216.1 L157.1,188.4 L152.8,190.4 L152.8,190.4 Z M152.8,190.4" id="1142"/>
            <path class="unit" d="M143.5,194.9 L157.9,223.4 L161.7,221.6 L147.3,193.1 L143.5,194.9 Z M143.5,194.9" id="1143"/>
            <path class="unit" d="M122.3,204.9 L136.2,234.3 L153.3,225.7 L138.7,197.1 L122.3,204.9 L122.3,204.9 Z M122.3,204.9" id="1144"/>
            <path class="unit" d="M330.1,196.6 L331.2,188.7 L332.6,187.9 L332.9,186 L327.3,179.8 L328,179.4 L323.9,174.9 L320.5,176.7 L304.3,158.7 L306.5,157.6 L303.9,154.8 L276.6,149.8 L268.8,153.6 L253,150.8 L252.6,151.8 L245,173.5 L249.2,179 L242.4,182.4 L245.6,186.8 L251.1,184.1 L257,191.7 L267.2,205.4 L264.9,206.6 L273.4,218.1 L277.4,218.9 L279.7,217.6 L280.7,213.5 L289.9,215.4 L289,219.5 L290,220.8 L293.3,221.5 L331.2,200.3 L331.5,198.3 L330.1,196.6 L330.1,196.6 Z M330.1,196.6" id="1145"/>
            <path class="unit" d="M119.2,211.2 L114.9,213.3 L126.6,239.1 L135.8,234.5 L122,205.3 L119.2,211.2 L119.2,211.2 Z M119.2,211.2" id="1146"/>
            <path class="unit" d="M106.9,216.9 L118.4,243.2 L126.2,239.3 L114.4,213.3 L106.9,216.9 L106.9,216.9 Z M106.9,216.9" id="1147"/>
            <path class="unit" d="M99.2,220.5 L95.9,225.3 L105.4,248.6 L107.9,247.3 L108.4,248.3 L118,243.4 L106.5,217 L99.2,220.5 L99.2,220.5 Z M99.2,220.5" id="1148"/>
            <path class="unit" d="M247.4,149.8 L245.7,150.6 L242.8,147.1 L244.2,147.3 L246,149.5 L247.4,149.8 L247.4,149.8 Z M247.4,149.8" id="1149"/>
            <path class="unit" d="M238.6,57.5 L234.4,53.2 L232.7,53.9 L237,58.2 L238.6,57.5 L238.6,57.5 Z M238.6,57.5" id="1150"/>
            <path class="unit" d="M380.6,79.2 L365.7,66.7 L359,69.8 L374.2,82.5 L374.2,82.2 L380.6,79.2 L380.6,79.2 Z M380.6,79.2" id="1151"/>
            <path class="unit" d="M357.4,80.4 L369.4,90.4 L373.8,88.3 L374.2,82.8 L366.4,76.2 L357.4,80.4 L357.4,80.4 Z M357.4,80.4" id="1152"/>
            <path class="unit" d="M135.6,190.7 L139.7,188.8 L125.2,161.1 L121.1,162.8 L135.6,190.7 L135.6,190.7 Z M135.6,190.7" id="1153"/>
            <path class="unit" d="M161.9,221.4 L167.7,218.5 L152.4,190.6 L147.6,193 L161.9,221.4 Z M161.9,221.4" id="1154"/>
            <path class="unit" d="M196.4,198.9 L181.1,174.2 L177.7,175.8 L192.9,200.7 L196.4,198.9 L196.4,198.9 Z M196.4,198.9" id="1155"/>
            <path class="unit" d="M109.4,203 L98,178 L92.3,180.5 L103.7,205.7 L109.4,203 L109.4,203 Z M109.4,203" id="1156"/>
            <path class="unit" d="M277.4,28.6 L275.9,27.2 L273.3,28.1 L274.9,29.6 L277.4,28.6 L277.4,28.6 Z M277.4,28.6" id="1157"/>
            <path class="unit" d="M82.2,82.9 L79.7,82.5 L78.6,84.2 L81.1,84.6 L82.2,82.9 L82.2,82.9 Z M82.2,82.9" id="1158"/>
            <path class="unit" d="M143.3,195 L139,197 L153.7,225.5 L157.7,223.5 L143.3,195 Z M143.3,195" id="1159"/>
            <path class="unit" d="M291.3,130.7 L289.9,129.3 L286.7,130.8 L288.1,132.2 L291.3,130.7 L291.3,130.7 Z M291.3,130.7" id="1160"/>
        </g>
    </g>
</svg>