<?xml version="1.0" encoding="utf-8"?>
<!DOCTYPE svg PUBLIC "-//W3C//DTD SVG 1.1//EN" "http://www.w3.org/Graphics/SVG/1.1/DTD/svg11.dtd">
<svg version="1.1" xmlns="http://www.w3.org/2000/svg" xmlns:xlink="http://www.w3.org/1999/xlink" xml:space="preserve">
    <g class="level" id="level1">
        <g class="outline">
            <path d="M473.4,133 C473.4,132.9 473.4,132.9 473.4,133 C473.5,132.5 473.4,132 473.1,131.6 L425.7,75.1 C425.3,74.6 424.6,74.4 423.9,74.7 L363.3,101.7 C362.9,101.9 362.6,102.2 362.5,102.6 C362.3,102.9 362.2,103.2 362.2,103.5 L362.3,107.4 C362.3,107.7 362.4,108.1 362.7,108.3 L368.6,115.3 L365.3,116.8 L364.3,115.6 C363.9,115.1 363.2,114.9 362.5,115.2 L360.6,116.1 C360.3,116.2 360.1,116.4 359.9,116.7 L357.1,113.3 C357.1,113.3 357.1,113.2 357,113.2 C357,113.2 357,113.1 356.9,113.1 L354.8,110.5 L354.7,110.4 C354.7,110.4 354.7,110.3 354.6,110.3 L352.7,108.1 C352.7,108.1 352.7,108 352.6,108 C352.6,108 352.6,107.9 352.5,107.9 L350.9,106 L350.8,105.9 C350.8,105.9 350.8,105.8 350.7,105.8 L346.6,100.9 C346.6,100.9 346.6,100.8 346.5,100.8 C346.5,100.8 346.5,100.7 346.4,100.7 L344.8,98.8 L344.7,98.7 C344.7,98.7 344.7,98.6 344.6,98.6 L343,96.7 C343,96.7 343,96.6 342.9,96.6 C342.9,96.6 342.9,96.5 342.8,96.5 L339.2,92.2 C339.2,92.2 339.2,92.1 339.1,92.1 C339.1,92.1 339.1,92 339,92 L336.3,88.8 L336.2,88.7 C336.2,88.7 336.2,88.6 336.1,88.6 L334.2,86.4 C334.2,86.4 334.2,86.3 334.1,86.3 C334.1,86.3 334.1,86.2 334,86.2 L331.9,83.7 C331.9,83.7 331.9,83.6 331.8,83.6 C331.8,83.6 331.8,83.5 331.7,83.5 L329.6,80.9 C329.6,80.9 329.6,80.8 329.5,80.8 C329.5,80.8 329.5,80.7 329.4,80.7 L327.3,78.2 L327.2,78.1 C327.2,78.1 327.2,78 327.1,78 L325,75.4 C325,75.4 325,75.3 324.9,75.3 C324.9,75.3 324.9,75.2 324.8,75.2 L322.9,73 C322.9,73 322.9,72.9 322.8,72.9 C322.8,72.9 322.8,72.8 322.7,72.8 L322.3,72.4 L335.1,66.7 L338.7,70.9 C339.1,71.4 339.8,71.6 340.5,71.3 L345.3,69.2 C345.9,69 346.2,68.4 346.2,67.8 L346.1,64.1 C346.1,64.1 346.1,64.1 346.1,64 C346.2,63.5 346.1,63.1 345.8,62.7 L345.4,62.2 L362.1,54.8 L365.7,59 C366.1,59.5 366.8,59.7 367.5,59.4 L373.2,56.8 C373.8,56.6 374.1,56 374.1,55.4 L374,51.7 C374,51.7 374,51.7 374,51.6 C374.1,51.1 374,50.7 373.7,50.3 L373.3,49.8 L387.1,43.7 L389.5,46.6 C389.9,47.1 390.6,47.3 391.3,47 L401.8,42.3 C402.4,42.1 402.7,41.5 402.7,40.9 L402.6,37.2 C402.6,37.2 402.6,37.2 402.6,37.1 C402.7,36.6 402.6,36.2 402.3,35.8 L373.8,1.5 C373.4,1 372.7,0.8 372,1.1 L361,6 C360.6,6.2 360.3,6.6 360.1,7 L360.1,7.2 C360.1,7.4 360,7.5 360,7.7 L360.1,11 L342.4,19 L340.3,16.5 C339.9,16 339.2,15.8 338.5,16.1 L334.2,18 C333.8,18.2 333.5,18.6 333.3,19 L333.3,19.2 C333.2,19.4 333.2,19.5 333.2,19.7 L333.3,23 L319.2,29.3 L318,29 L317.6,28.5 C317.6,28.5 317.6,28.4 317.5,28.4 C317.5,28.4 317.5,28.3 317.4,28.3 L315.5,26 C315.1,25.5 314.4,25.3 313.7,25.6 L309.9,27.3 L309.2,26.5 C308.8,26 308.1,25.8 307.4,26.1 L297.5,30.5 L297.4,30.5 L293.8,31.1 L287.9,31.7 C287.5,31.5 287,31.4 286.5,31.6 L283.7,32.8 C283.7,32.8 283.6,32.8 283.6,32.9 L283.5,32.9 L276.5,36 L275,34.2 C275,34.2 275,34.1 274.9,34.1 C274.9,34.1 274.9,34 274.8,34 L271.5,30 C271.5,30 271.5,29.9 271.4,29.9 C271.4,29.9 271.4,29.8 271.3,29.8 L270.7,29.1 L298.3,11.6 C298.7,11.3 299,10.8 299,10.3 L298.9,6.6 C298.9,6.5 298.9,6.4 299,6.3 C299,5.8 298.8,5.3 298.4,5 L294.6,2 C294.2,1.7 293.7,1.6 293.3,1.7 C292.1,2 281.1,5.2 272.1,9.2 C271.2,9.6 270.3,10 269.4,10.5 C262,14.2 255.7,18.7 253.2,20.7 L251.6,18.7 C251.2,18.2 250.5,18 249.8,18.3 L247.9,19.2 C247.5,19.4 247.2,19.8 247,20.2 L247,20.4 C247,20.6 246.9,20.7 246.9,20.9 L247,24.8 L247,25 C244.4,26.8 241.3,29.1 239.7,30.9 C237.2,33.8 233.4,39 233,39.6 C232.8,39.8 232.8,40.1 232.7,40.3 C232.6,40.5 232.6,40.6 232.6,40.8 L232.7,44.7 C232.7,45.1 232.9,45.5 233.2,45.8 L235.4,47.6 C235.9,48 236.6,48.1 237.1,47.7 L250.2,39.6 C250.6,39.8 251.2,40 251.9,40.2 L252.2,40.3 L251.8,47.1 C251.4,47.2 251.1,47.4 250.7,47.5 C249.4,48.1 248.1,48.9 247.1,50 C245.7,51.3 244.8,52.9 244.4,54.5 L242.7,54.2 L242.5,54.2 L242.3,54.2 L232.5,52.5 L232.3,52.5 L232.1,52.5 L223.2,50.9 C222.9,50.8 222.6,50.9 222.3,51 L221,52 C221,52 220.9,52 220.9,52.1 L220.8,52.1 L217.6,53.5 C217.2,53.7 216.9,54.1 216.7,54.5 L216.7,54.7 C216.6,54.9 216.6,55 216.6,55.2 L216.7,59.1 C216.7,59.4 216.8,59.8 217.1,60 L222.4,66.3 L222.3,66.3 L213.9,70 L211.8,67.5 C211.4,67 210.7,66.8 210,67.1 L205.8,69 C205.8,69 205.7,69 205.7,69.1 L205.6,69.1 L189,76.5 C189,76.5 188.9,76.5 188.9,76.6 L188.8,76.6 L186.5,77.6 C186.1,77.8 185.8,78.2 185.6,78.6 L185.6,78.8 C185.6,79 185.5,79.1 185.5,79.3 L185.6,83.2 C185.6,83.5 185.7,83.9 186,84.1 L188.2,86.7 L154.4,101.7 C154,101.9 153.8,102.2 153.6,102.5 C153.5,102.6 153.4,102.8 153.4,102.9 L147.6,96 C147.2,95.5 146.5,95.3 145.8,95.6 L134.8,100.5 L129.5,94.2 C129.1,93.7 128.4,93.5 127.7,93.8 L122.7,96 C122.5,96.1 122.3,96.3 122.1,96.5 C121.9,96.7 121.8,96.9 121.7,97.1 L121,99.1 L119.3,99.8 C119.3,99.8 119.2,99.8 119.2,99.9 L119.1,99.9 L112.5,102.8 C112.1,103 111.8,103.4 111.6,103.8 L111.6,104 C111.5,104.2 111.5,104.3 111.5,104.5 L111.5,105.2 L111,105.1 L111.1,104.7 C111.2,104.5 111.2,104.3 111.2,104.2 L111.1,100.5 C111.2,100.1 111.2,99.7 110.9,99.3 C110.7,98.9 110.3,98.7 109.9,98.6 L106.8,98.1 C106.1,98 105.4,98.4 105.1,99.1 L103.4,104 L85.5,101 L85.4,97.4 C85.5,97 85.5,96.6 85.2,96.2 C85,95.8 84.6,95.6 84.2,95.5 L80.4,94.9 C79.7,94.8 79,95.2 78.7,95.9 L77.4,99.7 L67.9,98.1 C67.2,98 66.5,98.4 66.2,99.1 L64.5,104 L60.4,103.3 C59.7,103.2 59,103.6 58.7,104.3 L57.9,106.5 C57.9,106.6 57.8,106.7 57.8,106.8 C57.7,107 57.7,107.1 57.7,107.3 L57.8,111.2 C57.8,111.9 58.3,112.5 59.1,112.6 L61.3,113 L57.3,124.5 L53.2,123.8 C52.5,123.7 51.8,124.1 51.5,124.8 L50.5,127.6 C50.5,127.7 50.4,127.8 50.4,127.9 C50.3,128.1 50.3,128.2 50.3,128.4 L50.4,132.3 C50.4,133 50.9,133.6 51.7,133.7 L54.6,134.2 L54.7,136.5 C54.7,136.8 54.8,137.2 55.1,137.4 L55.5,137.9 L53.3,138.9 C53.2,138.9 53.2,139 53.1,139 C53,139 53,139 52.9,139.1 L48.3,141.2 C47.9,141.4 47.6,141.8 47.4,142.2 L47.4,142.4 C47.4,142.6 47.3,142.7 47.3,142.9 L47.4,144.9 L1.5,165.6 C1.1,165.8 0.8,166.2 0.6,166.6 L0.6,166.8 C0.5,167 0.5,167.1 0.5,167.3 L0.6,171.2 C0.6,171.5 0.7,171.9 1,172.1 L24.7,200.3 C25.1,200.8 25.8,201 26.5,200.7 L98.7,168.6 L101.1,171.5 C101.5,172 102.2,172.2 102.9,171.9 L113.8,167 L116.2,169.9 C116.6,170.4 117.3,170.6 118,170.3 L125.7,166.9 C126.2,166.7 126.5,166.2 126.6,165.7 L131.9,172.1 L131,172.5 C130.6,172.7 130.3,173.1 130.1,173.5 L130.1,173.7 C130.1,173.9 130,174 130,174.2 L130.1,178.1 C130.1,178.4 130.2,178.8 130.5,179 L133.6,182.7 C134,183.2 134.7,183.4 135.4,183.1 L139.6,181.2 L140,181.6 L139.1,182 C138.8,182.1 138.5,182.4 138.4,182.7 C138.2,183 138.1,183.3 138.1,183.6 L138.2,187.5 C138.2,187.8 138.3,188.2 138.6,188.4 L141.7,192.1 L141.8,194.8 C141.8,195.1 141.9,195.5 142.2,195.7 L145.9,200.1 C146.3,200.6 147,200.8 147.7,200.5 L149.1,199.9 L149.4,200.2 L148.6,200.6 C148.2,200.8 147.9,201.1 147.8,201.5 C147.6,201.8 147.5,202.1 147.5,202.4 L147.6,206.3 C147.6,206.6 147.7,207 148,207.2 L148.2,207.4 L147.4,207.8 C147.4,207.8 147.3,207.8 147.3,207.9 L147.2,207.9 L143.1,209.7 C143.1,209.7 143,209.7 143,209.8 L142.9,209.8 L141.7,210.4 L135.9,203.4 C135.5,202.9 134.8,202.7 134.1,203 L116,211 C116,211 115.9,211 115.9,211.1 L115.8,211.1 L107.4,214.8 L103.9,210.7 C103.5,210.2 102.8,210 102.1,210.3 L94,213.9 L74.4,190.5 C74,190 73.3,189.8 72.6,190.1 L9,218.4 C8.6,218.6 8.3,219 8.1,219.4 L8.1,219.6 C8.1,219.8 8,219.9 8,220.1 L8.1,224 C8.1,224.3 8.2,224.7 8.5,224.9 L33.1,254.1 C33.5,254.6 34.2,254.8 34.9,254.5 L44.5,250.2 L44.5,250.7 C44.5,251 44.6,251.4 44.9,251.6 L49.3,256.9 L48.8,257.1 C48.4,257.3 48.1,257.7 47.9,258.1 L47.9,258.3 C47.8,258.5 47.8,258.6 47.8,258.8 L47.9,262.7 C47.9,263 48,263.4 48.3,263.6 L58.6,275.8 C59,276.3 59.7,276.5 60.4,276.2 L62.2,275.4 L62.2,275.8 L62.3,279.7 C62.3,280 62.4,280.4 62.7,280.6 L73,292.8 C73.4,293.3 74.1,293.5 74.8,293.2 L78.5,291.5 L82.3,296.1 C82.6,296.4 83,296.6 83.4,296.6 C83.6,296.6 83.8,296.6 84,296.5 L91.1,293.3 L91.8,294.1 C92.2,294.6 92.9,294.8 93.6,294.5 L106,289 C106.6,288.8 106.9,288.2 106.9,287.6 L106.8,285.8 L194.2,246.9 C194.8,246.7 195.1,246.1 195.1,245.5 L195,243.3 L204.1,239.3 L207.1,242.9 C207.5,243.4 208.2,243.6 208.9,243.3 L226,235.7 L234.1,245.4 C234.6,245.9 235.3,246.1 236,245.8 L245.9,240.5 L251.5,238 L254.7,241.8 L254.8,244.5 C254.8,244.8 254.9,245.2 255.2,245.4 L261.8,253.2 C262,253.5 262.3,253.7 262.7,253.7 L265,254.1 C265.3,254.1 265.6,254.1 265.9,254 L266.9,253.5 L273.6,254.6 L274.1,255.2 C274.4,255.5 274.7,255.7 275.1,255.7 L278.6,256 C278.9,256 279.1,256 279.3,255.9 L287.4,252.3 C287.8,252.1 288.1,251.8 288.2,251.4 L288.8,249.8 L299.8,244.9 L302.4,245.3 C302.7,245.3 303,245.3 303.3,245.2 L311,241.8 C311.4,241.6 311.7,241.3 311.8,240.9 L312.6,238.7 C312.7,238.5 312.7,238.3 312.7,238.2 L312.6,235.1 L314.1,232.1 C314.1,232 314.2,232 314.2,231.9 L314.8,230.2 C314.9,230 314.9,229.8 314.9,229.7 L314.8,226 C314.9,225.5 314.8,225 314.5,224.6 L307.9,216.8 C307.5,216.3 306.8,216.1 306.1,216.4 L305.2,216.8 L299.5,210 L309,205.8 L314.3,212.1 C314.7,212.6 315.4,212.8 316.1,212.5 L325.6,208.3 L330.6,214.2 C331,214.7 331.7,214.9 332.4,214.6 L357.3,203.5 C357.9,203.3 358.2,202.7 358.2,202.1 L358.1,198.2 C358.1,198.1 358.1,197.9 358,197.8 C358,197.5 357.8,197.3 357.7,197.1 L355.8,194.8 C355.8,194.8 355.8,194.7 355.7,194.7 C355.7,194.7 355.7,194.6 355.6,194.6 L352.7,191.1 L367.6,184.5 L375.7,194.2 C376.1,194.7 376.8,194.9 377.5,194.6 L387.5,190.1 C388.1,189.9 388.4,189.3 388.4,188.7 L388.3,185 C388.3,185 388.3,185 388.3,184.9 C388.4,184.4 388.3,184 388,183.6 L384.4,179.3 L392,175.9 C392.4,175.7 392.7,175.4 392.8,175 L395.3,167.8 C395.4,167.6 395.4,167.4 395.4,167.3 L395.3,163.5 C395.3,163.1 395.2,162.7 395,162.4 L397.9,161.1 L400.6,164.3 C400.8,164.6 401.1,164.8 401.5,164.8 L409.1,166.1 C409.4,166.1 409.7,166.1 410,166 L473.6,137.7 C474.2,137.5 474.5,136.9 474.5,136.3 L473.4,133 L473.4,133 Z M269.3,160.9 L269.3,160.9 L269.3,161 L269.3,161.2 C269.2,161.4 269.2,161.5 269.2,161.7 L269.3,164.6 L266,166.1 L265.7,165.7 C265.7,165.7 265.7,165.6 265.6,165.6 C265.6,165.6 265.6,165.5 265.5,165.5 L264.4,164.2 L264.4,163.9 L264.3,160.2 C264.3,160.2 264.3,160.2 264.3,160.1 C264.4,159.6 264.3,159.2 264,158.8 L262.1,156.6 L270.2,153 C270.8,152.8 271.1,152.2 271.1,151.6 L271,147.7 L271,147.5 C271,147.1 270.9,146.7 270.7,146.4 L266.5,141.4 C266.1,140.9 265.4,140.7 264.7,141 L260,143.1 L255.1,137.2 C255.1,137.2 255.1,137.1 255,137.1 C255,137.1 255,137 254.9,137 L247,127.6 C247,127.6 247,127.5 246.9,127.5 C246.9,127.5 246.9,127.4 246.8,127.4 L246.1,126.6 L247.5,126 C248.1,125.8 248.4,125.2 248.4,124.6 L248.3,120.7 C248.4,120.3 248.3,119.8 248,119.5 L245.8,116.9 C246,116.9 246.2,116.8 246.3,116.8 L265.4,108.3 L299.8,149.2 C299.6,149.2 299.3,149.2 299.1,149.3 L294.9,151.2 L291.3,147 C290.9,146.5 290.2,146.3 289.5,146.6 L273,153.9 C273,153.9 272.9,153.9 272.9,154 L272.8,154 L270.1,155.2 C269.7,155.4 269.4,155.8 269.2,156.2 L269.2,156.4 C269.1,156.6 269.1,156.7 269.1,156.9 L269.3,160.9 L269.3,160.9 Z M199.4,179.3 L195.8,180.9 L181.7,164.1 C181.3,163.6 180.6,163.4 179.9,163.7 L178.4,164.4 L177.5,163.4 L178.6,162.9 C179.2,162.7 179.5,162.1 179.5,161.5 L179.4,157.6 L179.4,157.4 C179.4,157 179.3,156.6 179.1,156.3 L176.4,153.1 L180.6,153.8 C180.9,153.8 181.2,153.8 181.5,153.7 L184.8,152.2 L211.4,183.8 L206.6,185.9 L205.7,184.8 C205.7,184.8 205.7,184.7 205.6,184.7 C205.6,184.7 205.6,184.6 205.5,184.6 L201.3,179.6 C200.8,179.2 200,179.1 199.4,179.3 L199.4,179.3 Z M199.4,179.3"
                class="outline"/>
        </g>
        <g class="label">
            <path d="M46.7,15.2 C45.3,14.7 44.5,14.3 44.5,13.1 C44.5,12 45.4,11.4 46.5,11.4 C47.2,11.4 47.7,11.5 48.2,11.7 C48.4,11.7 48.5,11.8 48.7,11.8 C49,11.8 49.3,11.6 49.3,11.2 C49.3,11 49.2,10.8 48.8,10.6 C48.3,10.4 47.4,10.2 46.7,10.2 C44.5,10.2 43.2,11.5 43.2,13.2 C43.2,14.8 44.3,15.6 45.9,16.2 C48,17 48.6,17.6 48.6,18.6 C48.6,19.7 47.7,20.5 46.3,20.5 C45.4,20.5 44.6,20.2 44.1,19.8 C43.8,19.6 43.7,19.5 43.5,19.5 C43.2,19.5 42.9,19.7 42.9,20 C42.9,20.3 43,20.5 43.3,20.6 C44,21.1 45.1,21.6 46.3,21.6 C48.5,21.6 49.9,20.3 49.9,18.5 C49.8,16.9 48.6,15.9 46.7,15.2 L46.7,15.2 L46.7,15.2 Z M37.4,10.2 C36.4,10.2 35.6,10.3 35.1,10.5 C34.7,10.6 34.6,10.9 34.6,11.3 L34.6,21 C34.6,21.4 34.9,21.6 35.2,21.6 C35.5,21.6 35.8,21.4 35.8,21 L35.8,17.4 L37.3,17.4 C40.2,17.4 41.7,16 41.7,13.7 C41.8,11.8 40.4,10.2 37.4,10.2 L37.4,10.2 L37.4,10.2 Z M37.3,16.2 L35.9,16.2 L35.9,11.5 C36.3,11.4 36.9,11.4 37.4,11.4 C39.7,11.4 40.5,12.5 40.5,13.8 C40.5,15.1 39.8,16.2 37.3,16.2 L37.3,16.2 L37.3,16.2 Z M31.8,10.4 C31.4,10.4 31.2,10.7 31.2,11.1 L31.2,19.9 C30.4,20.4 29.2,20.7 28.5,20.7 C26.6,20.7 25.5,19.8 25.5,17.7 L25.5,11 C25.5,10.6 25.2,10.3 24.9,10.3 C24.5,10.3 24.3,10.6 24.3,11 L24.3,17.8 C24.3,20.1 25.8,21.7 28.3,21.7 C30.1,21.7 31.1,21.2 32.1,20.7 C32.5,20.5 32.5,20.2 32.5,19.8 L32.5,11 C32.4,10.6 32.1,10.4 31.8,10.4 L31.8,10.4 L31.8,10.4 Z M64,11.9 C63.4,10.7 62.9,10.3 62.3,10.3 C61.7,10.3 61.2,10.7 60.6,11.9 C59.7,13.7 59,16 57.8,20.6 C57.7,20.8 57.7,21 57.7,21.1 C57.7,21.5 58,21.7 58.3,21.7 C58.6,21.7 58.8,21.5 58.9,21.2 C59.2,19.8 59.5,18.6 59.8,17.5 L64.7,17.5 C65,18.6 65.3,19.8 65.6,21.2 C65.7,21.5 65.9,21.7 66.2,21.7 C66.6,21.7 66.8,21.5 66.8,21.1 C66.8,21 66.8,20.8 66.7,20.6 C65.7,15.9 64.9,13.6 64,11.9 L64,11.9 L64,11.9 Z M60.2,16.3 C60.9,13.9 61.6,12.3 62.1,11.5 C62.1,11.4 62.2,11.4 62.3,11.4 C62.4,11.4 62.5,11.5 62.5,11.5 C63,12.3 63.7,13.8 64.4,16.3 L60.2,16.3 L60.2,16.3 Z M58.4,11 C58.4,10.7 58.2,10.4 57.8,10.4 L50.9,10.4 C50.5,10.4 50.3,10.7 50.3,11 C50.3,11.3 50.5,11.6 50.9,11.6 L53.7,11.6 L53.7,21 C53.7,21.4 54,21.6 54.3,21.6 C54.6,21.6 54.9,21.4 54.9,21 L54.9,11.6 L57.8,11.6 C58.2,11.6 58.4,11.4 58.4,11 L58.4,11 L58.4,11 Z M77.9,17.4 C77.6,17 77.3,16.7 76.9,16.4 C78.3,15.9 79.3,14.9 79.3,13.4 C79.3,11.5 78,10.2 75.1,10.2 C74,10.2 73.2,10.3 72.7,10.5 C72.3,10.6 72.2,10.9 72.2,11.3 L72.2,21 C72.2,21.4 72.5,21.6 72.8,21.6 C73.2,21.6 73.4,21.4 73.4,21 L73.4,16.8 L74.6,16.8 C75.8,16.8 76.2,17.3 76.8,18.2 C77.2,18.8 77.6,19.8 78.1,21.2 C78.2,21.5 78.4,21.6 78.7,21.6 C79,21.6 79.3,21.4 79.3,21 C79.3,20.9 79.3,20.7 79.2,20.6 C78.9,19.4 78.4,18.2 77.9,17.4 L77.9,17.4 L77.9,17.4 Z M74.9,15.6 L73.5,15.6 L73.5,11.6 C73.9,11.5 74.4,11.5 75.1,11.5 C77.4,11.5 78.1,12.4 78.1,13.6 C78,15.2 76.5,15.6 74.9,15.6 L74.9,15.6 L74.9,15.6 Z M84.5,15.2 C83.1,14.7 82.3,14.3 82.3,13.1 C82.3,12 83.2,11.4 84.3,11.4 C85,11.4 85.5,11.5 86,11.7 C86.2,11.7 86.3,11.8 86.5,11.8 C86.8,11.8 87.1,11.6 87.1,11.2 C87.1,11 87,10.8 86.6,10.6 C86.1,10.4 85.2,10.2 84.5,10.2 C82.3,10.2 81,11.5 81,13.2 C81,14.8 82.1,15.6 83.7,16.2 C85.8,17 86.4,17.6 86.4,18.6 C86.4,19.7 85.5,20.5 84.1,20.5 C83.2,20.5 82.4,20.2 81.9,19.8 C81.6,19.6 81.5,19.5 81.3,19.5 C81,19.5 80.7,19.7 80.7,20 C80.7,20.3 80.8,20.5 81.1,20.6 C81.8,21.1 82.9,21.6 84.1,21.6 C86.3,21.6 87.7,20.3 87.7,18.5 C87.6,16.9 86.4,15.9 84.5,15.2 L84.5,15.2 L84.5,15.2 Z M69.2,10.4 C68.8,10.4 68.6,10.7 68.6,11.1 L68.6,21.1 C68.6,21.5 68.9,21.7 69.2,21.7 C69.5,21.7 69.8,21.5 69.8,21.1 L69.8,11 C69.8,10.6 69.6,10.4 69.2,10.4 L69.2,10.4 L69.2,10.4 Z M69.2,10.4"
                class="Shape"/>
        </g>
        <g class="background">
            <path d="M313.5,76.5 L309.3,71.8 L268.3,90 L267,97.2 L268,96.7 L276.5,103.7 L321,156.5 L362.5,136.5 L313.5,76.5 Z M313.5,76.5"
                class="walkway"/>
            <path d="M261.1,172.3 L236.8,135.4 L236.7,124.6 L189.9,145.4 L221.7,185.6 L217.9,186.4 L217.9,192.7 L262.3,173 L261.1,172.3 Z M261.1,172.3"
                class="walkway"/>
            <path d="M210.1,137.1 L236.8,125.1 L236.7,107.9 L247.2,105.6 L267.3,97.1 L268.5,90.4 L309.6,72.2 L282,40.5 L275.8,40.9 L264.4,27.3 L269.9,19.7 L260.4,17.8 L247,28.4 L247.2,32.5 L254.6,33.4 L253.8,48.3 C253.2,48.4 252.5,48.6 251.9,48.9 C250.8,49.4 249.7,50.1 248.7,51.1 C247,52.8 246.3,54.6 246.2,56.3 L254.1,67.3 L226.8,79.4 L207.8,86.5 L204.1,108.7 L191,113.8 L210.1,137.1 L210.1,137.1 Z M210.1,137.1"
                class="walkwayblue"/>
            <path d="M245.7,179.8 L170.9,212.9 L163.2,207.5 L156.8,211.6 L154.5,218.3 L116.7,235.1 L100.2,216.3 L73.2,227.9 L69,221.3 L57.6,227.3 L62.2,232.8 L58.3,234.5 L63.2,240.3 L88.4,230.4 L99.7,246.6 L110.8,262.5 L170.6,235.9 L223.7,209.9 L242.8,212.7 L250.3,190.5 L251.5,186.8 L245.7,179.8 Z M245.7,179.8"
                class="walkwayred"/>
            <path d="M388.5,123.5 L275,179 L261.8,172.7 L245.7,179.8 L251.5,186.8 L251.2,187.9 L250.3,190.5 L242.8,212.7 L250.6,213.8 L267.6,206.1 L331.2,177.5 L407.4,145.4 L388.5,123.5 Z M388.5,123.5"
                class="walkwaygreen"/>
            <path d="M194.3,191.3 L167.5,157.9 L170.8,143.8 L188.6,143.8 L190.3,146 L210.1,137.1 L190.8,114 L179.2,118.5 L110.8,115.3 L102.1,140.2 L110.7,148.1 L93.3,156.3 L100.4,164.8 L126.1,153.9 L150.4,180.5 L163.2,207.5 L171.5,214 L219,192.5 L217.9,186.4 L194.3,191.3 Z M194.3,191.3"
                class="walkwayyellow"/>
            <path d="M277,69 L277,69 L277.1,69.1 L277,69 L277,69 Z M471.9,132.9 L424.5,76.4 L363.8,103.4 L363.9,107.3 L371.2,116 L364.9,118.8 L363.2,116.8 L361.3,117.7 L361.4,120.9 L320.7,72.4 L336.6,65.3 L340.9,70.4 L345.7,68.3 L345.6,64.4 L343.7,62.2 L363.4,53.4 L367.7,58.5 L373.4,55.9 L373.3,52 L371.4,49.8 L388.3,42.3 L391.4,46 L401.9,41.3 L401.8,37.4 L372.5,2.8 L361.5,7.7 L361.6,11.6 L362.1,12.1 L341.9,21.1 L339,17.7 L334.7,19.6 L334.8,23.5 L335.3,24 L319.4,31.1 L317.1,30.7 L314.2,27.3 L309.4,29.4 L308,27.7 L298,32.2 L287.1,33.3 L276.1,38.2 L268.5,29.1 L297.8,10.5 L297.7,6.6 L293.9,3.6 C293.3,3.8 282.1,6.9 272.9,11 L270.2,12.2 C260.9,16.8 253.5,22.8 253.1,23.1 L250.5,20 L248.6,20.9 L248.7,24.8 L249.4,25.6 C246.9,27.2 242.8,30.1 241,32.2 C238.4,35.1 234.6,40.5 234.4,40.8 L234.5,44.7 L236.7,46.5 L250.6,38 C250.6,38 251.4,38.6 252.7,38.9 C254,39.3 255.2,39.6 255.3,39.6 L255.8,37 L255.7,33.1 C255.6,33.1 254.3,32.8 253.1,32.4 C252.6,32.2 252.3,32 252.3,31.8 L252.3,31.4 L249.6,32.6 C251.2,30.8 255.3,28.8 257.8,27.7 C259,27.2 259.8,26.9 259.8,26.9 L259.7,23 L259.8,26.9 L261.5,27.3 C261.5,27.3 261.4,27.3 261.4,27.4 C260.3,28.2 260.1,31.8 260.2,34.5 L260.2,34.4 L260.3,38.3 C260.3,39.5 260.4,40.6 260.5,41.1 C260.7,42.7 262.2,45.5 265.3,46 C266.1,46.1 267,46.1 267.9,46.1 L265.9,47 L262.7,55 L262.8,58.9 L263.8,60.1 L257.9,62.7 L254.2,58.3 L223.4,52.9 L218.1,55.2 L218.2,59.1 L224.9,67.1 L213.3,72.3 L210.4,68.9 L187,79.3 L187.1,83.2 L191.8,88.9 L191.7,89 L190.6,87.6 L154.7,103.6 L154.8,107.5 L155.3,108.1 L155.2,108.2 L146.3,97.7 L134.3,103 L128.3,95.9 L123,98.2 L122,101 L112.9,105 L113,107.7 L108.8,107.2 L109.6,104.8 L109.5,100.9 L106.4,100.4 L104.3,106.5 L83.5,103 L84,101.7 L83.9,97.8 L80.1,97.2 L78.4,102.2 L67.7,100.4 L65.6,106.5 L60.3,105.6 L59.5,107.8 L59.6,111.7 L63.6,112.4 L58.5,127 L53.2,126.1 L52.2,128.9 L52.3,132.8 L56.4,133.5 L56.5,137 L57.7,138.5 L57.3,139.7 L49.2,143.3 L49.3,146.5 L2,167.3 L2.1,171.2 L25.8,199.4 L98.5,167 L99,166.8 L102.1,170.5 L114.1,165.2 L117.2,168.9 L124.9,165.5 L124.8,161.8 L125,161.7 L134.3,172.8 L131.3,174.1 L131.4,178 L134.5,181.7 L139.8,179.4 L142.3,182.3 L139.3,183.6 L139.4,187.5 L142.8,191.6 L142.9,194.9 L146.6,199.3 L149,198.2 L151.5,201.1 L148.5,202.4 L148.6,206.3 L150.2,208.2 L140.5,212.5 L133.9,204.7 L106.2,217.1 L102,212 L92.9,216 L72.6,191.9 L9,220.3 L9.1,224.2 L33.7,253.4 L45.4,248.2 L45.5,251 L51.4,258 L48.9,259.1 L49,263 L59.3,275.2 L63.6,273.3 L65.2,275.2 L63.2,276.1 L63.3,280 L73.6,292.2 L78.4,290.1 L83,295.5 L91.1,291.9 L92.5,293.6 L104.9,288.1 L104.8,285.3 L193.1,246 L193,242.8 L204,237.9 L207.7,242.3 L225.9,234.2 L234.8,244.7 L244.7,239.3 L251.4,236.3 L255.7,241.4 L255.8,244.7 L262.4,252.5 L264.7,252.9 L266.1,252.3 L273.7,253.6 L274.6,254.6 L278.1,254.9 L286.2,251.3 L287,249.1 L299,243.8 L302.1,244.3 L309.8,240.9 L310.6,238.7 L310.5,235.3 L312.2,232 L312.8,230.3 L312.7,226.4 L306.1,218.6 L304.2,219.5 L296.3,210.1 L308.9,204.5 L314.9,211.6 L325.4,206.9 L331.1,213.7 L356,202.6 L355.9,198.7 L349.4,191 L367.2,183.1 L376.1,193.6 L386.1,189.1 L386,185.2 L381,179.2 L390.7,174.9 L393.2,167.7 L393.1,163.8 L391.8,162.2 L397.7,159.6 L401.1,163.7 L408.7,165 L472.3,136.7 L471.9,132.9 L471.9,132.9 Z M56.1,242.3 L56.1,241.1 L56.2,241.1 L56.1,239.3 L62.2,236.6 L62.1,233.8 L64.3,232.8 L66.9,235.9 L69.8,234.6 L70.8,235.8 L56.1,242.3 L56.1,242.3 Z M104.6,239.9 L104.7,241.9 L92.7,227.6 L92.8,227.5 L97.4,232.9 L98.8,232.3 L105,239.7 L104.6,239.9 L104.6,239.9 Z M333.1,114.7 C333.1,114.7 333.1,114.8 333.2,114.8 C333.1,114.8 333.1,114.7 333.1,114.7 L333.1,114.7 L333.1,114.7 Z M273.3,44.8 L278.2,50.6 L280.3,49.7 L280.4,52.5 L301.1,77.2 L298.6,78.3 L284,60.9 L283.3,61.2 L283.2,57.5 L272.7,45 C273,44.9 273.2,44.8 273.3,44.8 L273.3,44.8 Z M177.9,157.7 L174,153 L174.7,151.3 L180.8,152.3 L185.1,150.4 L213.8,184.6 L206,188.1 L200,181 L195.2,183.1 L180.4,165.4 L178,166.5 L175,162.9 L178,161.6 L177.9,157.7 L177.9,157.7 Z M395.6,147.7 L392.2,143.6 L389.8,144.7 L389.1,147.8 L381.9,151 L380.6,150.8 L381.2,150.5 L373.7,149.6 L374,149.9 L373.8,149.9 L368.1,152.4 L368.1,152 L356.5,157.2 L356.7,157.5 L354.3,158.6 L354.3,158.2 L350.8,159.8 L351,160.1 L348,161.4 L346.1,164.6 L342.8,166.1 L342.9,165.7 L336.4,168.6 L332.6,168 L330.7,168.8 L330.9,169.1 L324.6,171.9 L324.6,171.6 L321.1,173.2 L321.3,173.4 L318.9,174.5 L318.9,174.2 L291.6,186.5 L291.7,186.6 L289.8,187.5 L289.8,187.4 L279.3,192.1 L279.4,192.2 L269.2,196.7 L268.8,197.8 L268.8,199.2 L259.1,203.5 L258.2,202.5 L237.6,199.1 L237.2,199.3 L212.6,210.3 L211.4,210.8 L209.1,211.8 L206.9,212.8 L182.7,223.6 L181.1,224.3 L180.4,225.5 L180.2,225.6 L171.6,229.4 L170.2,230 L165.8,231.9 L165,233 L137.6,245.3 L137.1,246.4 L136.5,247.6 L126.3,252.2 L119.2,255.3 L116.9,256.3 L109.1,247 L109.5,246.8 L109.5,244.8 L110.9,246.5 L115.8,247 L115.7,247.1 L124.6,243.2 L134.2,238.9 L141.7,235.6 C141.7,235.6 141.7,235.6 141.6,235.6 L150.5,231.7 C150.5,231.7 150.5,231.7 150.4,231.8 L158,228.4 L157.9,228.4 L159.6,227.7 L161.9,221.1 L161.8,219.3 L165.5,217.7 L169.8,218.8 C169.7,218.8 169.7,218.9 169.6,219 L172.4,219.8 L176.8,217.9 L179.1,216.9 L187.1,213.5 L187.5,211.6 L187.5,211.5 L187.6,211.2 L187.7,211.2 L187.8,210.8 L187.7,206.9 L175.7,192.6 L173.8,193.5 L168,192 L154,175.4 C154.1,175.3 154.1,175.1 154.1,175 L154,171.1 C154,170.8 153.9,170.4 153.5,169.9 C152.9,169.2 151.1,165.5 148.8,161.2 C145.7,155.1 144.3,150 144.1,149.3 C143.8,148.4 143.3,146.1 143.1,144.9 L143.1,144.1 L143.1,144.2 C143.2,144 143,143.8 142.8,143.6 L143,143.5 C142.3,142.7 141.4,142.5 140.9,142.7 C139.6,143 135.2,145 131.2,146.9 L131.3,147.2 C130.5,147.6 129.8,147.9 129.2,148.1 L129.2,147.8 C127,148.9 125.1,149.8 124.3,150.2 L124.4,150.2 L122.1,151.8 L122,148.9 C119.7,148.8 116.6,147.9 113.8,146.2 C111.6,144.9 110,143.4 109,142 L113.9,128 L117.1,128.3 L116.7,129.9 L116.8,133.8 L117.5,134.6 C116.3,135.6 115.6,136.6 115.6,137.5 L115.6,137.5 L115.7,141.4 C115.7,141.7 115.8,142.1 116.1,142.3 C116.6,142.9 117.7,143.2 118.9,143.3 L119,143.3 L119.2,143.3 C120,143.3 120.9,143.2 121.8,143 L121.8,143 C122.7,142.8 123.6,142.5 124.5,142.1 C126.7,141.1 128.3,139.7 128.7,138.4 L128.7,138.4 C128.8,138.2 128.8,137.9 128.8,137.7 L128.7,133.8 C128.7,133.4 128.6,133.1 128.3,132.8 C127.7,132.1 126.6,131.8 125.1,131.8 L127.4,130.8 L128,131.5 L133.3,129.2 L133.9,129.9 L138.7,127.8 L139.3,128.5 L144.1,126.4 L144.7,127.1 L145,127 L149.2,125.1 L163.2,127.5 L180.6,130.2 L178.4,136.9 L162.8,134.2 L162.8,134.5 C162.1,134.6 161.3,134.7 160.5,135.1 C159.1,135.7 157.8,136.9 157.2,138.6 C156.6,140.4 156,145.1 156.2,150 L156.2,149.7 L156.3,153.6 C156.4,156.2 156.7,158.8 157.3,161.2 C159,167.9 165.6,176.5 165.9,177 L165.8,173.1 L165.9,177 L168.6,175.8 L168.7,179.5 L192.7,208.1 L194.7,208.4 L197,208.8 L237.9,190.7 L239.6,185.9 L239.6,184.4 L239.6,183.3 L239.6,183.4 L239.6,181.5 L231,171.4 L229.9,170.6 L229.9,170.9 L227.4,169 L227,168.5 L227.2,168.5 L225.2,166 L221.4,165.4 L220.3,164.1 L220.3,164.2 L221.5,165.6 L221.3,165.6 L218.1,161.7 L218.1,161.6 L218,157.7 L202.6,139.3 L185.8,136.5 L184.2,137.2 L185.7,133 L185.6,129.3 L187.3,128.6 L187.4,127.2 L202.7,120.4 L204.2,120.7 L209,118.6 L213.4,103.5 L213.3,99.6 L212.5,98.6 L214.1,94.8 L215.7,94.1 L223,90.8 L227.3,91.3 L231.2,89.6 L235,87.9 L237.4,86.8 L258.9,77.2 L261.9,75.9 L263.5,72.4 L273,68.2 L273.9,68.4 L275.8,65.1 L281.2,62.7 L280.1,65.8 L280.2,69.7 L283.7,73.9 L281,80 L281.1,83.9 L289.4,93.8 L293.2,92.1 L293.7,92.2 L292.3,92.8 L292.4,96.7 L298.1,103.5 L301.9,101.8 L301.8,97.9 L297.4,92.6 L300.5,93 L302.5,95.4 L302.6,96.3 L305.4,98.8 L306.7,100.4 L305.1,101.1 L305.2,105 L313.5,114.9 L316.9,114.3 L317.5,112.6 L317.6,113.5 C317.7,113.5 320,113.8 322.5,114.4 L318,116.4 L309.5,114.1 L301.2,104.2 L297.9,105.7 L293.8,100.8 L293.7,99.2 L289.7,94.4 L288.7,94.8 L287.3,93.1 L286.3,93.5 L284.9,91.8 L283.9,92.2 L281.6,89.4 L281.6,88.6 L276.2,82.1 L275.7,82 L276.2,81.8 L268.3,80.7 L267.1,81.2 L267.2,81.3 L261.9,83.7 L261.9,83.5 L240.3,93.1 L240.4,93.3 L238,94.4 L238,94.2 L234.1,95.9 L234.3,96.1 L232.3,97 L231.1,100.3 L228.9,101.3 L229,101 L227.3,101.8 L226.6,103.7 L220.8,120.4 L219.2,121.1 L219.3,120.7 L218.5,121.1 L217.8,123.4 L215.4,131 L214.5,134 L214.5,134.4 L214.6,137.9 L215.8,139.2 L216.1,139.5 L221.2,145.4 L213.4,148.9 L213.5,152.9 L217.6,157.8 L220.9,156.3 L220.9,156.4 L225.7,154.3 L225.7,152.2 L225.7,150.9 L227.6,153.2 L229.2,155.1 L231.5,155.7 L235.2,160.1 L235.2,160 L239,164.5 L239.1,166.1 L254.2,184.1 L271.6,187 L324.4,163.6 L325.8,160.6 L328.7,159.3 L328.6,159.5 L328.8,159.4 L331.3,156.3 L331.8,153.7 L333.2,153.1 L333.5,153 L335.7,152.3 L335.6,150.5 L335.5,148.2 L323.6,129.3 C324.9,128.6 326.5,127.5 327.7,126.2 C328.4,125.4 328.6,124.6 328.6,123.8 L328.5,119.9 C328.5,119.9 328.5,119.9 328.5,120 C328.5,118.7 327.7,117.7 327.6,117.6 L326.1,117.3 L325.4,115.7 L324.2,114.7 C327.7,115.9 328.7,117.1 328.8,117.2 L329.9,116.2 L333.1,118.5 C333.1,118.6 333.6,119.6 333.9,120.9 C333.8,121.2 333.8,121.5 333.7,121.7 C333.1,123.4 331.4,125 331.3,125.1 L328.5,127.3 L328.6,131.2 L332.9,136.3 L340,148.8 L339.9,148.8 L341.3,151 L345,151.5 L345,151.4 L347.4,151.7 L347.2,151.8 L349.1,152 L366.6,144.2 L369,138.5 L373.8,136.4 L374.3,136.5 L378.4,137 L385,134.1 L385,134.2 L386.4,133.6 L389.7,137.5 L389.8,139.1 L391.3,139.4 L397.5,146.8 L395.6,147.7 L395.6,147.7 Z M270.8,160.9 L271.3,161.5 L270.7,161.8 L270.8,165.7 L271,165.9 L265.6,168.3 L262.3,164.3 L262.9,164 L262.8,160.1 L259.5,156.2 L269.7,151.7 L269.6,147.8 L265.3,142.7 L259.6,145.3 L243.7,126.4 L247.2,124.9 L247.1,121 L242.6,115.7 L245.1,114.6 L246,115.6 L266.1,106.7 L306.8,155.2 L304.3,156.3 L300,151.2 L294.7,153.5 L290.4,148.4 L270.8,157.1 L270.8,160.9 L270.8,160.9 Z M211.2,126.8 C210,125.4 206.3,125.5 202.8,127 C200,128.3 198.3,130.1 198.4,131.5 L198.5,135.5 C198.5,135.8 198.6,136.2 198.9,136.4 C200.1,137.8 203.8,137.7 207.3,136.2 C210.1,134.9 211.8,133.1 211.7,131.7 C211.7,131.7 211.6,127.7 211.6,127.6 C211.5,127.4 211.4,127.1 211.2,126.8 L211.2,126.8 Z M244.3,185.5 L241.5,194 L241.5,198.2 L246.6,199 L247.1,199 C247.4,199 247.8,199 248.2,198.9 L248.2,198.9 C249.3,198.6 250.1,197.9 250.2,197.1 L250.2,192.9 C250.2,192.2 249.7,191.6 248.9,191.3 L249,190.9 C250.2,191.1 253.1,191.4 254.3,191.2 C255.1,191 255.9,189.8 255.9,189.8 L255.9,189.7 L255.9,185.6 L255.9,185.5 L247.5,184.1 L244.3,185.5 L244.3,185.5 Z M244.3,185.5"
                class="wall"/>
        </g>
        <g class="ceilings">
            <path class="unit" d="M179.5,168 L187.4,177.4 L174.6,183.1 L168.1,175.3 L171.4,173.8 L170.1,172.2 L179.5,168 Z M179.5,168" id="2001"/>
            <path class="unit" d="M287.2,32 L287.8,32.7 L297.7,31 L295.8,33.7 L294,34.5 L293.8,34.6 L293.9,34.8 L296.1,37.3 L290.1,40 L284.4,33.3 L287.2,32 Z M287.2,32"
                id="2002"/>
            <path class="unit" d="M372.6,2.5 L401.7,37.2 L391.2,41.9 L388.1,38.1 L368.9,46.6 L373.2,51.7 L367.5,54.3 L363.2,49.2 L341.2,59 L345.5,64.1 L340.7,66.2 L336.4,61.1 L318.3,69.2 L303.3,75.7 L280.3,48.3 L282.2,47.4 L280.5,45.5 L290,41.3 L290.2,41.2 L296.2,38.5 L316.4,29.5 L317.2,30.4 L319.5,30.8 L337.7,22.7 L334.8,19.3 L339.1,17.4 L342,20.8 L364.5,10.8 L361.6,7.4 L372.6,2.5 Z M372.6,2.5"
                id="2003"/>
            <path class="unit" d="M247.6,183.9 L244.3,185.5 L241.5,194 L246.6,194.8 L247.1,194.8 C247.4,194.8 247.8,194.8 248.2,194.7 L248.2,194.7 C249.3,194.4 250.2,193.7 250.2,192.8 C250.2,191.8 249.1,191 247.6,190.8 L249,186.6 C250.2,186.8 253.1,187.1 254.3,186.9 C255.1,186.7 255.9,185.5 255.9,185.5 L255.9,185.4 L247.6,183.9 L247.6,183.9 Z M247.6,183.9"
                id="2004"/>
            <path class="unit" d="M187.5,177.5 L188,178 L188.1,178.2 L188.3,178.1 L189,177.8 L193.2,182.7 L192,183.3 L191.7,183.4 L191.9,183.5 L194.9,187.2 L194,189.8 L184,194.3 L174.7,183.2 L187.5,177.5 Z M187.5,177.5"
                id="2007"/>
            <path class="unit" d="M175.6,192.1 L181.5,199.1 L179.7,199.9 L173.8,192.9 L175.6,192.1 Z M175.6,192.1" id="2008"/>
            <path class="unit" d="M350.7,159.9 L366.7,179 L346.9,187.8 L342.7,182.7 L342.6,182.6 L330.9,168.7 L332.7,167.9 L336.5,168.5 L346.1,164.3 L348,161.1 L350.7,159.9 Z M350.7,159.9"
                id="2009"/>
            <path class="unit" d="M330.7,168.8 L342.3,182.7 L339.2,184.1 L327.6,170.2 L330.7,168.8 Z M330.7,168.8" id="2010"/>
            <path class="unit" d="M270.5,31.2 L273.8,35.2 L262,40.4 C261,39.4 260.4,38 260.3,37.1 C260.3,36.8 260.2,36.3 260.2,35.8 L270.5,31.2 L270.5,31.2 Z M270.5,31.2"
                id="2011"/>
            <path class="unit" d="M119.9,132.8 C123.3,131.3 127.1,131.2 128.3,132.6 C129.5,134 127.7,136.4 124.2,137.9 C120.8,139.4 117,139.5 115.8,138.1 C114.6,136.7 116.4,134.3 119.9,132.8 L119.9,132.8 Z M119.9,132.8"
                id="2012"/>
            <path class="unit" d="M250.6,19.9 L253.2,23 C253.6,22.7 261,16.7 270.3,12.1 C271.1,11.7 272,11.3 273,10.9 C282.1,6.8 293.4,3.7 294,3.5 L297.8,6.5 L268.2,25.3 L267.7,27.9 L270.4,31.2 L260.2,35.7 C260,33 260,28.4 261.3,27.4 C262.9,26.2 265.4,24.7 265.5,24.6 L259.6,23 C259.6,23 258.8,23.3 257.6,23.8 C254.7,25.1 249.5,27.7 248.8,29.6 C247.8,32.4 249.3,32.6 249.4,32.6 L252.3,31.3 C252.3,31.3 252,31.9 253.2,32.3 C254.4,32.7 255.7,33 255.8,33 L255.3,35.6 C255.2,35.6 254,35.2 252.7,34.9 C251.4,34.5 250.6,34 250.6,34 L236.7,42.5 L234.5,40.7 C234.7,40.4 238.6,35.1 241.1,32.1 C243.8,29 251.2,24.4 251.5,24.2 L248.6,20.8 L250.6,19.9 L250.6,19.9 Z M250.6,19.9"
                id="2013"/>
            <path class="unit" d="M274,35.3 L276.2,37.9 L284.2,34.3 L289.8,41 L278,46.4 L273.2,40.7 C273,40.8 268.5,42.6 265.1,42 C263.9,41.8 263,41.3 262.2,40.6 L274,35.3 L274,35.3 Z M274,35.3"
                id="2014"/>
            <path class="unit" d="M272.1,44 L283.2,57.2 L275.1,60.9 L273,64.6 L271.4,64.4 L266.8,66.4 L261.9,60.7 L266.1,58.8 L262.7,54.7 L265.8,46.8 L272.1,44 Z M272.1,44"
                id="2015"/>
            <path class="unit" d="M242.9,56 L254.3,58 L258,62.4 L261.7,60.8 L266.5,66.5 L262.8,68.2 L261.2,71.7 L257.5,73.4 L242.9,56 Z M242.9,56"
                id="2016"/>
            <path class="unit" d="M232.7,54.2 L242.5,55.9 L257.2,73.5 L251.2,76.2 L232.7,54.2 Z M232.7,54.2" id="2017"/>
            <path class="unit" d="M284,60.6 L293.4,71.8 L282,76.8 L284.1,70.9 L279.5,65.4 L280.7,62.1 L284,60.6 Z M284,60.6" id="2018"/>
            <path class="unit" d="M223.4,52.6 L232.3,54.1 L250.9,76.3 L246.5,78.3 L240.3,70.9 L240,70.6 L239.6,70.4 L234.5,68.8 L234.2,68.7 L233.9,68.8 L232,69.6 L230.4,67.8 L232.6,66.8 L232.8,66.7 L232.7,66.5 L221.6,53.4 L223.4,52.6 Z M223.4,52.6"
                id="2019"/>
            <path class="unit" d="M234.2,68.9 L239.8,70.8 L246.2,78.4 L241.2,80.6 L232.1,69.8 L234.2,68.9 Z M234.2,68.9" id="2020"/>
            <path class="unit" d="M221.4,53.5 L232.4,66.7 L230.3,67.6 L230,67.7 L230.2,67.9 L231.8,69.8 L231.9,69.9 L241,80.7 L236,83 L223.1,67.7 L227.3,65.8 L218.1,54.9 L221.4,53.5 Z M221.4,53.5"
                id="2021"/>
            <path class="unit" d="M210.6,68.6 L213.4,72 L222.9,67.8 L235.7,83.1 L224.8,87.9 L220.7,87.5 L206.4,70.4 L210.6,68.6 Z M210.6,68.6" id="2022"/>
            <path class="unit" d="M293.5,71.9 L298.6,78 L298.7,77.9 L298.8,78 L318.3,69.4 L319.9,71.2 L286.4,86.1 L281,79.7 L281.9,77.1 L293.5,71.9 Z M293.5,71.9"
                id="2023"/>
            <path class="unit" d="M322.6,74.4 L324.4,76.6 L301.4,86.9 L300.8,87.1 L300.5,87.5 L299.4,88.7 L295.4,88.2 L298.8,85 L322.6,74.4 Z M322.6,74.4"
                id="2025"/>
            <path class="unit" d="M320,71.4 L322.4,74.2 L299.3,84.5 L298.7,84.8 L298.2,85.3 L295.1,88.1 L293.1,87.9 L289.3,89.6 L286.5,86.3 L320,71.4 Z M320,71.4"
                id="2026"/>
            <path class="unit" d="M268.3,80.8 L276.2,81.8 L281.6,88.2 L276.5,90.5 L268.3,80.8 Z M268.3,80.8" id="2027"/>
            <path class="unit" d="M324.6,76.8 L326.7,79.3 L301.8,90.4 L300.5,88.8 L299.7,88.7 L301,87.3 L324.6,76.8 Z M324.6,76.8" id="2028"/>
            <path class="unit" d="M268,80.8 L276.2,90.6 L267.8,94.3 L259.6,84.6 L268,80.8 Z M268,80.8" id="2029"/>
            <path class="unit" d="M326.9,79.5 L329,82.1 L303.7,93.4 L302.6,92.1 L302.5,91.2 L302,90.6 L326.9,79.5 Z M326.9,79.5" id="2030"/>
            <path class="unit" d="M206.1,70.5 L220.4,87.5 L213.3,90.7 L210.8,97 L210.9,97.1 L203.8,95.7 L203.6,94.6 L189.6,77.9 L206.1,70.5 Z M206.1,70.5"
                id="2031"/>
            <path class="unit" d="M329.1,82.2 L331.3,84.8 L306.4,95.9 L305.3,94.6 L304.9,94.8 L303.8,93.5 L329.1,82.2 Z M329.1,82.2" id="2032"/>
            <path class="unit" d="M259.4,84.7 L267.6,94.5 L263.1,96.5 L262.8,96.6 L259.2,98.2 L251,88.4 L259.4,84.7 Z M259.4,84.7" id="2033"/>
            <path class="unit" d="M281.3,88.6 L283.7,91.5 L265.6,99.5 L263.2,96.6 L267.7,94.6 L268,94.5 L276.4,90.8 L276.6,90.7 L281.3,88.6 Z M281.3,88.6"
                id="2034"/>
            <path class="unit" d="M331.4,85 L333.6,87.5 L308.7,98.6 L306.6,96 L331.4,85 Z M331.4,85" id="2036"/>
            <path class="unit" d="M294.8,91.4 L297.3,92.1 L301.9,97.5 L298.1,99.2 L292.4,92.4 L294.8,91.4 Z M294.8,91.4" id="2037"/>
            <path class="unit" d="M283.8,91.7 L284,91.9 L285,91.5 L286.4,93.1 L267.3,101.6 L265.8,99.7 L283.8,91.7 Z M283.8,91.7" id="2038"/>
            <path class="unit" d="M287.5,92.9 L288.7,94.4 L268.8,103.3 L267.5,101.7 L287.5,92.9 Z M287.5,92.9" id="2039"/>
            <path class="unit" d="M333.7,87.7 L335.6,89.9 L306.9,102.7 L305.2,100.7 L309.1,99 L308.8,98.8 L333.7,87.7 Z M333.7,87.7" id="2040"/>
            <path class="unit" d="M233.1,96.4 L239.6,104.1 L235,106.1 L230.3,100.5 L231.1,100.1 L232.2,96.8 L233.1,96.4 Z M233.1,96.4" id="2041"/>
            <path class="unit" d="M238.3,94 L246.8,104.2 L242.8,106 L240.9,103.8 L240.8,103.6 L240.5,103.7 L239.8,104 L233.3,96.3 L238.3,94 Z M238.3,94"
                id="2042"/>
            <path class="unit" d="M289.8,94.1 L291.4,96 L270.5,105.3 L268.9,103.4 L289.8,94.1 Z M289.8,94.1" id="2043"/>
            <path class="unit" d="M335.7,90.1 L338.4,93.3 L309.7,106.1 L307,102.8 L335.7,90.1 Z M335.7,90.1" id="2044"/>
            <path class="unit" d="M230,100.6 L234.8,106.3 L228.3,109.2 L224.9,108.6 L227.3,101.8 L230,100.6 Z M230,100.6" id="2045"/>
            <path class="unit" d="M250.8,88.5 L259,98.3 L259.1,98.5 L259.4,98.3 L263,96.7 L265.4,99.6 L265.5,99.8 L267.1,101.7 L267.2,101.9 L268.5,103.4 L268.7,103.6 L270.2,105.4 L268.9,106 L265.9,102.4 L251.2,108.9 L248.9,106.3 L248.8,106.1 L247.2,104.2 L247.1,104.1 L238.6,93.9 L250.8,88.5 Z M250.8,88.5"
                id="2046"/>
            <path class="unit" d="M291.6,96.2 L293.7,98.7 L271.2,108.7 L269.1,106.2 L270.4,105.6 L270.6,105.5 L291.6,96.2 Z M291.6,96.2" id="2047"/>
            <path class="unit" d="M292.8,99.3 L294.2,100.8 L272.6,110.4 L271.3,108.9 L292.8,99.3 Z M292.8,99.3" id="2048"/>
            <path class="unit" d="M224.8,108.8 L227.9,109.3 L228.3,109.4 L228.7,109.2 L234.9,106.4 L235.2,106.3 L239.7,104.3 L240,104.2 L240.7,103.9 L242.5,106.1 L226.4,113.2 L223.4,112.7 L224.8,108.8 Z M224.8,108.8"
                id="2049"/>
            <path class="unit" d="M338.6,93.5 L342.2,97.8 L321.1,107.2 L320.8,107.3 L320.7,107.6 L320.2,109.7 C318.8,109.4 317.7,109.3 317.7,109.3 L317.6,108.4 L317.1,108.6 L317,110 L313.6,110.6 L310,106.3 L338.6,93.5 L338.6,93.5 Z M338.6,93.5"
                id="2050"/>
            <path class="unit" d="M342.3,97.9 L343.9,99.8 L325.1,108.2 L324.8,108.3 L324.7,108.6 L324,110.6 C322.8,110.2 321.6,109.9 320.5,109.7 L321,107.4 L342.3,97.9 L342.3,97.9 Z M342.3,97.9"
                id="2051"/>
            <path class="unit" d="M294.3,101 L295.9,102.9 L274.4,112.5 L272.8,110.6 L294.3,101 Z M294.3,101" id="2052"/>
            <path class="unit" d="M223.4,112.9 L226.1,113.4 L226.5,113.5 L226.8,113.3 L242.7,106.3 L242.9,106.1 L247,104.3 L248.6,106.2 L225.8,116.3 L222.4,115.8 L223.4,112.9 Z M223.4,112.9"
                id="2053"/>
            <path class="unit" d="M296,103.1 L297.8,105.2 L276.3,114.8 L274.5,112.6 L296,103.1 Z M296,103.1" id="2054"/>
            <path class="unit" d="M345.7,102 L349.8,106.9 L333,114.4 L329.9,112.2 L328.7,113.2 C328.7,113.2 328.2,112.6 326.9,111.9 L327.5,110.1 L345.7,102 L345.7,102 Z M345.7,102"
                id="2055"/>
            <path class="unit" d="M222.3,116 L225.4,116.5 L225.8,116.6 L226.1,116.4 L248.7,106.4 L250.9,109 L245.8,111.3 L245,110.4 L245.1,110.3 L245,110.1 L225.5,118.9 L221.6,118.1 L222.3,116 Z M222.3,116"
                id="2056"/>
            <path class="unit" d="M350,107.1 L351.6,109 L336.3,115.8 L333.8,116 C333.6,115.3 333.4,114.8 333.3,114.6 L350,107.1 L350,107.1 Z M350,107.1"
                id="2058"/>
            <path class="unit" d="M301.3,103.9 L303.8,106.8 L278.9,117.9 L276.5,115 L301.3,103.9 Z M301.3,103.9" id="2059"/>
            <path class="unit" d="M128.4,95.3 L149.5,120.5 L144.5,122.8 L123.3,97.6 L128.4,95.3 Z M128.4,95.3" id="2060"/>
            <path class="unit" d="M146.5,97.1 L155.3,107.7 L157.6,106.6 L163.4,113.6 L163.6,113.8 L164,113.9 L165.8,114.1 L165.1,116.2 L164.5,116.1 L164.4,116.1 L164.3,116.2 L161.6,123 L157.1,122.3 L157.5,121.2 L155.9,120.9 L155.7,121.5 L149.8,120.5 L134.6,102.4 L146.5,97.1 Z M146.5,97.1"
                id="2061"/>
            <path class="unit" d="M123.2,97.8 L143.7,122.2 L139.1,124.2 L120,101.4 L122.3,100.4 L123.2,97.8 Z M123.2,97.8" id="2062"/>
            <path class="unit" d="M189.4,78 L203.4,94.6 L203.5,95.7 L203.5,95.9 L203.8,96 L211.1,97.4 L212.8,99.4 L208.3,114.4 L203.5,116.6 L202,116.3 L186.8,123.1 L181.3,116.5 L181.1,116.2 L180.7,116.2 L163.8,113.6 L155,103.1 L190.7,87.2 L191.9,88.6 L194.2,87.5 L187.1,79 L189.4,78 Z M189.4,78"
                id="2063"/>
            <path class="unit" d="M333.8,116.1 L335.7,116 L336.3,116 L336.8,115.8 L351.6,109.2 L353.5,111.4 L337.7,118.4 L334.2,118.6 C334.2,117.7 334,116.8 333.8,116.1 L333.8,116.1 Z M333.8,116.1"
                id="2064"/>
            <path class="unit" d="M119.8,101.5 L138.3,123.6 L133.7,125.7 L133.1,125 L132.7,125.2 L119.1,108.9 L119.4,107.9 L119.4,107.8 L119.5,107.7 L119.3,107.7 L119.2,107.7 L115.5,107.2 L113.2,104.4 L119.8,101.5 Z M119.8,101.5"
                id="2065"/>
            <path class="unit" d="M303.9,107 L306.7,110.2 L281.8,121.3 L279.1,118.1 L303.9,107 Z M303.9,107" id="2066"/>
            <path class="unit" d="M119,109.2 L132.5,125.3 L127.9,127.3 L117.1,114.4 L119,109.2 Z M119,109.2" id="2067"/>
            <path class="unit" d="M221.5,118.3 L225.2,119 L225.5,119.1 L225.9,118.9 L240.2,112.5 L244.1,117.1 L226.5,124.9 L222.7,120.4 L222.5,120.2 L222.1,120.1 L220.9,119.9 L221.5,118.3 Z M221.5,118.3"
                id="2068"/>
            <path class="unit" d="M166.1,114.2 L180.9,116.4 L186.7,123.3 L186.6,124.6 L182.3,126.5 L161.8,123.1 L164.5,116.3 L165,116.4 L165.3,116.4 L165.4,116.2 L166.1,114.2 Z M166.1,114.2"
                id="2069"/>
            <path class="unit" d="M334.3,118.8 L337.3,118.6 L337.9,118.6 L338.4,118.4 L353.7,111.6 L355.8,114.2 L337,122.6 L333.6,122.4 L333.9,121.8 C334.2,120.7 334.3,119.7 334.3,118.8 L334.3,118.8 Z M334.3,118.8"
                id="2070"/>
            <path class="unit" d="M306.8,110.4 L309.2,113.3 L284.3,124.4 L281.9,121.5 L306.8,110.4 Z M306.8,110.4" id="2071"/>
            <path class="unit" d="M117,114.7 L127.1,126.7 L117.7,130.9 L116.5,129.6 L118,124.3 L113.8,123.9 L117,114.7 Z M117,114.7" id="2072"/>
            <path class="unit" d="M220.7,120.1 L222.3,120.4 L226.2,125 L219,128.2 L216.4,127.9 L218.5,121.1 L220.7,120.1 Z M220.7,120.1" id="2073"/>
            <path class="unit" d="M180.7,128.3 L185,129 L182.9,135.1 L178.8,134.4 L180.7,128.3 Z M180.7,128.3" id="2075"/>
            <path class="unit" d="M333.6,122.4 L336.7,122.6 L337.2,122.6 L337.6,122.4 L356.1,114.2 L360.8,119.8 L352.8,123.4 L352.6,123.5 L337.5,130.2 L335.3,127.6 L335,127.2 L334.5,127 L331.1,125.5 L331.7,125 C331.6,124.9 332.8,123.8 333.6,122.4 L333.6,122.4 Z M333.6,122.4"
                id="2076"/>
            <path class="unit" d="M216.3,128.1 L219.1,128.4 L244.2,117.3 L246.9,120.5 L215.4,134.6 L214.6,133.6 L216.3,128.1 Z M216.3,128.1" id="2077"/>
            <path class="unit" d="M202.8,127.1 C206.2,125.6 210,125.5 211.2,126.9 C212.4,128.3 210.6,130.7 207.1,132.2 C203.7,133.7 199.9,133.8 198.7,132.4 C197.5,131 199.4,128.6 202.8,127.1 L202.8,127.1 Z M202.8,127.1"
                id="2078"/>
            <path class="unit" d="M241.3,123.3 L245.7,128.5 L219.9,140 L215.5,134.8 L241.3,123.3 Z M241.3,123.3" id="2079"/>
            <path class="unit" d="M386.4,129.5 L378.4,133.1 L373.8,132.3 L369,134.5 L366.7,140.1 L352.8,123.6 L360.8,120 L361.3,120.6 L363.3,119.7 L361.3,117.4 L363.2,116.5 L364.9,118.5 L373.5,114.7 L386.4,129.5 Z M386.4,129.5"
                id="2082"/>
            <path class="unit" d="M178.1,136.6 C180.1,136.9 181.7,137.2 182.5,137.3 L181.2,141.8 L181.2,141.9 L181.3,141.9 L181.9,142 L179.5,147.9 L174.6,147.1 L178.1,136.6 L178.1,136.6 Z M178.1,136.6"
                id="2083"/>
            <path class="unit" d="M160.1,134.8 C161.4,134.2 162.8,134.1 163.8,134.3 C164.9,134.5 169.3,135.2 173.7,135.9 L169.8,149.1 L155.7,146.6 C155.8,143 156.2,139.8 156.7,138.4 C157.4,136.6 158.7,135.4 160.1,134.8 L160.1,134.8 Z M160.1,134.8"
                id="2084"/>
            <path class="unit" d="M67.9,99.8 L78.6,101.6 L80.3,96.6 L84.1,97.2 L82.4,102.2 L104.6,105.9 L106.7,99.8 L109.8,100.3 L107.7,106.4 L115.8,107.5 L119.2,107.9 L118.9,108.7 L118.8,109 L117,114.3 L116.9,114.6 L108.4,140.2 C108.6,141.8 110.3,143.9 113.1,145.7 L99.7,151.7 L96.5,147.9 L96.3,147.7 L95.9,147.6 L54.3,140.7 L57.5,139.3 L58.9,135.4 L56.6,132.7 L57.8,129.4 L52.5,128.5 L53.5,125.7 L58.8,126.6 L65.2,108.3 L59.9,107.4 L60.7,105.2 L66,106.1 L67.9,99.8 L67.9,99.8 Z M67.9,99.8"
                id="2085"/>
            <path class="unit" d="M173.9,135.9 C175.3,136.1 176.6,136.3 177.8,136.6 L173.8,149.1 L173.5,149.8 L170.1,149.2 L173.9,135.9 L173.9,135.9 Z M173.9,135.9"
                id="2086"/>
            <path class="unit" d="M352.6,123.7 L366.5,140.2 L349.4,147.9 L341.3,146.8 L333.1,132.4 L337.3,130.5 L337.5,130.4 L352.6,123.7 Z M352.6,123.7"
                id="2087"/>
            <path class="unit" d="M113.3,145.6 C113.4,145.7 113.6,145.8 113.7,145.9 C116.5,147.6 119.6,148.5 121.9,148.6 L122,148.6 L117.1,152.2 L104.8,157.7 L99.7,151.7 L113.3,145.6 L113.3,145.6 Z M113.3,145.6"
                id="2089"/>
            <path class="unit" d="M309.4,113.5 L309.6,113.8 L318.1,116.1 L323.4,113.8 L325.6,115.6 L326.3,117.2 L327.8,117.5 C327.9,117.6 329.8,119.9 327.8,122.2 C325.8,124.5 322.2,126.1 322,126.2 L333.4,144.4 L326.7,147.4 L326,146.6 L325.9,146.4 L325.7,146.5 L309.1,153.9 L284.7,124.8 L309.4,113.5 L309.4,113.5 Z M309.4,113.5"
                id="2090"/>
            <path class="unit" d="M182.8,137.4 L182.9,137.4 L185.3,136.4 L202.1,139.1 L212,151 L195.3,158.4 L185.1,146.3 L180.8,148.2 L179.8,148 L182.2,142.1 L182.3,142 L182.3,141.9 L182.2,141.9 L182,141.8 L181.5,141.8 L182.8,137.4 Z M182.8,137.4"
                id="2091"/>
            <path class="unit" d="M124.6,149.4 L127.8,148.5 C128.4,148.2 139.8,143.2 140.2,143 C141.6,142.4 143.3,143.5 143.1,144.1 C143,144.5 143.8,148 144.1,149.2 C144.2,149.6 144.7,151.2 145.5,153.6 L128,161.4 L124.9,157.7 L122.5,158.8 L124.8,161.5 L119.7,163.8 L113.4,156.3 L118.5,154 L124.3,150 L124.6,149.4 L124.6,149.4 Z M124.6,149.4"
                id="2093"/>
            <path class="unit" d="M253.9,138.2 L259.5,144.9 L265.3,142.3 L269.5,147.4 L239.3,160.8 L232.8,153 L230.5,152.7 L228,149.7 L253.9,138.2 Z M253.9,138.2"
                id="2094"/>
            <path class="unit" d="M212.2,151.1 L216,155.7 L199.3,163.2 L195.4,158.6 L212.2,151.1 Z M212.2,151.1" id="2095"/>
            <path class="unit" d="M113.2,156.3 L119.5,163.8 L117.2,164.8 L114.1,161.1 L102.1,166.4 L99,162.6 L113.2,156.3 Z M113.2,156.3" id="2096"/>
            <path class="unit" d="M156.4,155.8 L171.8,154.2 L174.4,153.1 L178,157.4 L172.9,159.7 L172.7,159.8 L160.4,165.3 C158.9,162.7 157.5,159.8 156.8,157.2 C156.6,156.6 156.5,156.2 156.4,155.8 L156.4,155.8 Z M156.4,155.8"
                id="2097"/>
            <path class="unit" d="M389,147.5 L396.2,156 L389.2,159.1 L382.1,150.6 L389,147.5 Z M389,147.5" id="2098"/>
            <path class="unit" d="M424.5,76.1 L471.9,132.6 L411.8,159.3 L400,145.3 L391.4,135.2 L389.9,135 L390.2,133.9 L386.6,129.5 L363.9,103.1 L424.5,76.1 Z M424.5,76.1"
                id="2100"/>
            <path class="unit" d="M216.2,155.9 L217.5,157.5 L216.6,160.3 L216.8,160.5 L202.4,166.9 L199.4,163.4 L216.2,155.9 Z M216.2,155.9" id="2101"/>
            <path class="unit" d="M145.6,153.7 C146.4,155.7 147.4,158.3 148.8,161 L149.7,162.8 L134.8,169.4 L128.1,161.4 L145.6,153.7 L145.6,153.7 Z M145.6,153.7"
                id="2102"/>
            <path class="unit" d="M392.2,143.3 L395.7,147.4 L399.8,145.5 L411.5,159.5 L408.3,160.9 L400.7,159.6 L397.3,155.5 L396.4,155.9 L389.2,147.3 L389.8,144.3 L392.2,143.3 Z M392.2,143.3"
                id="2103"/>
            <path class="unit" d="M325.7,146.4 L326.4,147.2 L326.5,147.4 L326.8,147.3 L333.4,144.4 L335.7,147.9 L331.8,149.6 L331.3,152.2 L329.1,155 L325.8,156.5 L324.3,159.5 L312,165 L304.4,155.9 L325.7,146.4 Z M325.7,146.4"
                id="2104"/>
            <path class="unit" d="M299.8,150.8 L304,155.8 L304.1,156 L311.8,165.1 L306.8,167.3 L294.8,153 L299.8,150.8 Z M299.8,150.8" id="2106"/>
            <path class="unit" d="M216.9,160.7 L220.2,164.6 L205.9,171 L202.6,167.1 L216.9,160.7 Z M216.9,160.7" id="2107"/>
            <path class="unit" d="M172.7,159.9 L179.4,167.9 L170,172.1 L169.2,171.2 L165.4,172.9 C165.3,172.7 162.8,169.6 160.4,165.4 L172.7,159.9 L172.7,159.9 Z M172.7,159.9"
                id="2108"/>
            <path class="unit" d="M257.2,153.1 L262.8,159.8 L260.1,161 L260,160.9 L259.8,161 L261.8,163.4 L246.1,170.4 L239,162 L239.4,161 L257.2,153.1 Z M257.2,153.1"
                id="2109"/>
            <path class="unit" d="M261.9,163.6 L264.3,166.5 L248.6,173.4 L246.2,170.6 L261.9,163.6 Z M261.9,163.6" id="2111"/>
            <path class="unit" d="M220.4,164.8 L220.9,165.4 L224.7,166 L226.9,168.7 L210.1,176.1 L206,171.2 L220.4,164.8 Z M220.4,164.8" id="2112"/>
            <path class="unit" d="M290.2,148 L306.5,167.4 L290,174.8 L273.7,155.4 L290.2,148 Z M290.2,148" id="2113"/>
            <path class="unit" d="M264.5,166.6 L267.5,170.2 L251.8,177.2 L248.8,173.6 L264.5,166.6 Z M264.5,166.6" id="2114"/>
            <path class="unit" d="M149.9,163 C151.6,166.4 153.1,169.1 153.5,169.7 C154.6,171.1 153.7,171.5 153.5,172 C153.3,172.6 152.4,173 152.3,173 L155.1,176.3 L144.6,181 L139.8,175.3 L134.5,177.6 L131.4,173.9 L136.7,171.6 L135.1,169.6 L149.9,163 L149.9,163 Z M149.9,163"
                id="2115"/>
            <path class="unit" d="M227.1,168.8 L230.5,171.4 L233,174.3 L215.3,182.2 L210.3,176.3 L227.1,168.8 Z M227.1,168.8" id="2116"/>
            <path class="unit" d="M273.5,155.5 L289.8,174.9 L276.6,180.7 L267.8,170.3 L267.7,170.1 L265.8,167.8 L273.3,164.5 L270.7,161.4 L273.6,160.1 L270.8,156.7 L273.5,155.5 Z M273.5,155.5"
                id="2118"/>
            <path class="unit" d="M267.6,170.4 L276.4,180.8 L271.7,182.9 L254.1,180 L251.9,177.4 L267.6,170.4 Z M267.6,170.4" id="2119"/>
            <path class="unit" d="M233.1,174.5 L237.3,179.5 L233.5,181.1 L228.5,180.3 L228.1,180.2 L227.8,180.4 L223,182.6 L222.7,182.7 L217.7,184.9 L216.3,183.2 L216.1,183.3 L215.4,182.4 L233.1,174.5 Z M233.1,174.5"
                id="2120"/>
            <path class="unit" d="M155.3,176.5 L160.5,182.8 L144.8,189.8 L139.5,183.5 L155.3,176.5 Z M155.3,176.5" id="2122"/>
            <path class="unit" d="M54,140.6 L96,147.6 L99.4,151.6 L99.5,151.8 L104.6,157.8 L97.5,160.9 L99,162.6 L25.8,195.2 L2.1,167 L51.3,145.1 L49.3,142.7 L54,140.6 Z M54,140.6"
                id="2123"/>
            <path class="unit" d="M228.2,180.5 L233.1,181.3 L233.5,181.3 L233.9,181.2 L237.4,179.6 L239,181.6 L237.3,186.6 L229.3,190.1 L223.1,182.7 L228.2,180.5 Z M228.2,180.5"
                id="2124"/>
            <path class="unit" d="M222.8,182.8 L229.1,190.2 L224,192.5 L217.8,185.1 L222.8,182.8 Z M222.8,182.8" id="2126"/>
            <path class="unit" d="M160.7,182.9 L164.2,187.2 L146.6,195.1 L143,190.8 L160.7,182.9 Z M160.7,182.9" id="2127"/>
            <path class="unit" d="M216.1,183.4 L217.5,185 L217.6,185.2 L223.8,192.6 L220.7,194 L213,184.8 L216.1,183.4 Z M216.1,183.4" id="2128"/>
            <path class="unit" d="M373.9,149.6 L381.8,150.6 L392.8,163.7 L390.3,170.8 L378.4,176.1 L385.8,184.9 L375.7,189.4 L366.9,178.9 L350.9,159.8 L373.9,149.6 Z M373.9,149.6"
                id="2129"/>
            <path class="unit" d="M164.4,187.4 L167.1,190.6 L151.8,197.4 L149.1,194.2 L164.4,187.4 Z M164.4,187.4" id="2130"/>
            <path class="unit" d="M212.7,184.9 L220.5,194.1 L214,196.9 L206.3,187.8 L212.7,184.9 Z M212.7,184.9" id="2131"/>
            <path class="unit" d="M204.4,185.9 L213.8,197 L208.7,199.3 L199.4,188.1 L204.4,185.9 Z M204.4,185.9" id="2132"/>
            <path class="unit" d="M327.3,170.3 L339,184.2 L339.1,184.3 L339.4,184.2 L342.5,182.8 L353.5,195.9 L348,198.4 L325.2,171.3 L327.3,170.3 Z M327.3,170.3"
                id="2133"/>
            <path class="unit" d="M180.5,165.1 L195.4,182.8 L200,180.7 L204.3,185.7 L199.2,188 L199,188.1 L199.1,188.2 L208.5,199.4 L199.5,203.4 L197.2,203 L194.4,204.3 L192.1,203.9 L184.1,194.5 L194.1,190 L194.3,189.7 L195.1,187.4 L195.2,187.1 L195,186.9 L192.1,183.4 L193.3,182.9 L193.6,182.8 L193.4,182.6 L189.3,177.7 L189.1,177.5 L188.9,177.6 L188.2,177.9 L187.8,177.4 L187.6,177.3 L179.8,167.9 L179.6,167.7 L178.3,166.1 L180.5,165.1 Z M180.5,165.1"
                id="2134"/>
            <path class="unit" d="M295.3,184.6 L308.4,200.2 L303.4,202.5 L290.3,186.8 L295.3,184.6 Z M295.3,184.6" id="2135"/>
            <path class="unit" d="M290,186.9 L303.2,202.6 L294.8,206.3 L281.7,190.6 L290,186.9 Z M290,186.9" id="2138"/>
            <path class="unit" d="M300.1,182.4 L319.2,205.2 L314.7,207.3 L295.5,184.5 L300.1,182.4 Z M300.1,182.4" id="2139"/>
            <path class="unit" d="M167.2,190.8 L168,191.7 L173.5,192.9 L179.5,200 L179.6,200.2 L179.9,200.1 L181.6,199.3 L187.6,206.4 L186.6,209.1 L178.1,212.9 L167,199.7 L166.9,199.6 L166.7,199.7 L161.6,201.9 L161.4,202 L157.3,203.8 L153.9,199.7 L153.8,199.8 L151.9,197.6 L167.2,190.8 Z M167.2,190.8"
                id="2140"/>
            <path class="unit" d="M325,171.4 L347.7,198.5 L347.9,198.7 L348.1,198.6 L353.6,196.1 L355.5,198.4 L330.8,209.4 L325.1,202.6 L319.4,205.1 L300.3,182.3 L325,171.4 Z M325,171.4"
                id="2141"/>
            <path class="unit" d="M153.8,199.9 L157.1,203.9 L157.3,204.1 L165.2,213.5 L160.6,215.6 L158.4,212.9 L158.3,212.8 L158,212.9 L157.8,213 L148.7,202.2 L153.8,199.9 Z M153.8,199.9"
                id="2142"/>
            <path class="unit" d="M161.6,202.2 L172.5,215.3 L165.5,213.5 L157.5,204 L161.6,202.2 Z M161.6,202.2" id="2143"/>
            <path class="unit" d="M166.8,199.8 L177.9,213 L172.9,215.3 L161.8,202.1 L166.8,199.8 Z M166.8,199.8" id="2144"/>
            <path class="unit" d="M281.4,190.7 L294.6,206.4 L293.7,206.8 L295.1,208.4 L286.6,212.2 L286.2,211.7 L286,211.5 L272.1,194.9 L281.4,190.7 Z M281.4,190.7"
                id="2145"/>
            <path class="unit" d="M223.1,205 L228.2,211.1 L220.7,214.4 L215.7,208.3 L223.1,205 Z M223.1,205" id="2146"/>
            <path class="unit" d="M271.9,195 L285.8,211.6 L282.2,213.2 L268.8,197.2 L269.1,196.2 L271.9,195 Z M271.9,195" id="2147"/>
            <path class="unit" d="M152.5,207 L157.5,213.1 L157.7,213.2 L157.9,213.1 L158.2,213 L161.6,217.1 L159.4,223.5 L147.5,209.3 L152.5,207 Z M152.5,207"
                id="2149"/>
            <path class="unit" d="M147.2,209.4 L159.2,223.7 L155.1,225.5 L143.2,211.2 L147.2,209.4 Z M147.2,209.4" id="2150"/>
            <path class="unit" d="M142.9,211.3 L154.9,225.6 L148.9,228.2 L137,214 L140.8,212.3 L142.9,211.3 Z M142.9,211.3" id="2152"/>
            <path class="unit" d="M201.6,214.6 L207.8,222 L198,226.4 L197.7,226.5 L197.9,226.7 L199.2,228.2 L195.6,229.8 L187.9,220.7 L201.6,214.6 Z M201.6,214.6"
                id="2153"/>
            <path class="unit" d="M134.1,204.5 L140.6,212.2 L136.9,213.9 L136.6,214 L136.8,214.1 L148.7,228.4 L134.6,234.6 L116,212.5 L134.1,204.5 Z M134.1,204.5"
                id="2154"/>
            <path class="unit" d="M187.7,220.8 L195.3,229.9 L195.5,230.1 L195.7,230 L199.3,228.4 L203.7,233.6 L193,238.4 L181.8,225.1 L181.6,224.9 L181.2,224.8 L180.5,224.7 L181.1,223.7 L187.7,220.8 Z M187.7,220.8"
                id="2156"/>
            <path class="unit" d="M180.4,224.9 L181.4,225 L192.7,238.5 L188.7,240.3 L177,226.5 L180.3,225 L180.4,224.9 Z M180.4,224.9" id="2157"/>
            <path class="unit" d="M237.6,198.6 L247.7,200.3 L240.3,220.5 L240.2,220.8 L240.4,221 L245.3,226.8 L239.8,229.3 L239.6,229.4 L239.7,229.5 L245.1,235.9 L234.7,240.5 L225.8,230 L207.8,238 L204.1,233.7 L204,233.5 L199.5,228.3 L199.4,228.1 L198.1,226.6 L207.9,222.2 L208.2,222.1 L208,221.9 L201.8,214.5 L215.4,208.4 L220.5,214.5 L220.7,214.6 L220.9,214.5 L228.3,211.2 L228.5,211.1 L228.4,211 L223.3,204.9 L237.6,198.6 Z M237.6,198.6"
                id="2158"/>
            <path class="unit" d="M176.8,226.6 L188.4,240.4 L188.6,240.6 L188.8,240.5 L191.1,239.5 L193,241.8 L179.7,247.7 L166,231.4 L176.8,226.6 Z M176.8,226.6"
                id="2159"/>
            <path class="unit" d="M165.8,231.5 L179.5,247.8 L174.5,250.1 L161.3,234.4 L165,232.7 L165.8,231.5 Z M165.8,231.5" id="2160"/>
            <path class="unit" d="M248,200.3 L258.2,202 L259,203 L269.4,198.4 L281.9,213.3 L282.1,213.5 L282.3,213.4 L285.9,211.8 L286.3,212.3 L286.5,212.4 L286.7,212.3 L295.2,208.6 L304,219 L305.9,218.2 L312.5,226 L311.9,227.6 L310.9,228.1 L309.2,233 L310.3,234.4 L309.6,236.6 L301.9,240 L298.9,239.5 L286.9,244.8 L286.1,247.1 L278,250.7 L274.5,250.4 L273.6,249.4 L266,248.1 L264.5,248.7 L262.2,248.3 L255.7,240.5 L257.6,239.7 L251.3,232.2 L244.7,235.1 L240,229.4 L245.5,227 L245.7,226.9 L245.6,226.7 L240.5,220.7 L248,200.3 Z M248,200.3"
                id="2161"/>
            <path class="unit" d="M161.1,234.5 L174.2,250.2 L164.9,254.3 L151.8,238.7 L161.1,234.5 Z M161.1,234.5" id="2162"/>
            <path class="unit" d="M245.9,128.7 L253.7,138 L227.9,149.5 L220.1,140.2 L245.9,128.7 Z M245.9,128.7" id="2164"/>
            <path class="unit" d="M221.7,145.3 L225.8,150.1 L217.6,153.7 L213.6,148.9 L221.7,145.3 Z M221.7,145.3" id="2165"/>
            <path class="unit" d="M155.7,146.8 L173.4,150 L172.8,151.3 L174.2,152.9 L171.7,154 L156.4,155.6 C155.8,152.8 155.6,149.6 155.7,146.8 L155.7,146.8 Z M155.7,146.8"
                id="2166"/>
            <path class="unit" d="M151.5,238.8 L164.7,254.4 L149.1,261.3 L136.8,246.7 L137.8,244.9 L151.5,238.8 Z M151.5,238.8" id="2167"/>
            <path class="unit" d="M102.1,211.8 L106.3,216.8 L115.8,212.6 L134.3,234.7 L115.8,243 L110.7,242.4 L98.8,228.2 L97.3,228.8 L92.7,223.4 L71.7,232.7 L69.7,230.3 L66.8,231.6 L65.7,230.3 L64.5,228.9 L64.3,228.6 L102.1,211.8 Z M102.1,211.8"
                id="2168"/>
            <path class="unit" d="M72.7,191.6 L92.9,215.7 L60.4,230.2 L62.1,232.3 L55,235.5 L56.1,236.9 L54.7,237.5 L56.1,239.2 L33.6,249.2 L9.1,220 L72.7,191.6 Z M72.7,191.6"
                id="2169"/>
            <path class="unit" d="M136.7,247 L148.9,261.4 L129.1,270.3 L117.1,256 L136.5,247.3 L136.7,247 Z M136.7,247" id="2171"/>
            <path class="unit" d="M91.7,226.1 L128.8,270.4 L103.1,281.8 L104.8,283.9 L92.3,289.4 L90.9,287.7 L82.8,291.3 L78.2,285.9 L73.4,288 L63.2,275.8 L67.5,273.9 L63.5,269.1 L59.2,271 L48.9,258.8 L53.7,256.6 L45.4,246.8 L91.7,226.1 Z M91.7,226.1"
                id="2172"/>
            <path class="unit" d="M298.1,31.9 L308.1,27.5 L309.6,29.2 L314.3,27 L316.3,29.3 L296.3,38.2 L294.2,35.7 L295.6,35 L296.1,34.8 L296.3,34.5 L298.1,31.9 Z M298.1,31.9"
                id="2173"/>
            <path class="unit" d="M330.7,125.6 L334.7,127.4 L337.1,130.3 L333,132.2 L328.7,127.2 L330.7,125.6 Z M330.7,125.6" id="2176"/>
            <path class="unit" d="M344,99.9 L345.6,101.8 L327.7,109.8 L327.4,110 L327.3,110.3 L326.8,111.8 C326.1,111.5 325.3,111.1 324.2,110.7 L325,108.5 L344,99.9 L344,99.9 Z M344,99.9"
                id="2177"/>
            <path class="unit" d="M107,238.8 L109.4,241.7 L107,242.7 L104.6,239.9 L107,238.8 Z M107,238.8" id="2170"/>
        </g>
    </g>
</svg>