<?xml version="1.0" encoding="utf-8"?>
<!DOCTYPE svg PUBLIC "-//W3C//DTD SVG 1.1//EN" "http://www.w3.org/Graphics/SVG/1.1/DTD/svg11.dtd">
<svg version="1.1" xmlns="http://www.w3.org/2000/svg" xmlns:xlink="http://www.w3.org/1999/xlink" xml:space="preserve">
<g class="level" id="level2">
            <g class="road">
                <path d="M148.4,104.2 L148.3,104.2 L148.4,104.2 L148.5,104.2 L148.4,104.2 L148.4,104.2 Z M196.1,80.8 L171.3,93.3 L176.9,100.8 L182.4,98.5 L183.3,99.7 L187.2,97.6 L186.1,96.5 L197.4,90.9 L198.5,92.1 L202.3,90.1 L201.3,89 L203.2,87.9 L196.1,80.8 L196.1,80.8 Z M114.2,185.7 L91.5,165.2 L88.8,162.1 C88.5,162.4 86.8,164 84.3,166.5 C81.8,169 78.4,172.3 74.8,176.1 C71.1,179.9 67.2,184.1 63.7,188.1 C60.1,192.2 57,196.2 55,199.4 C53,202.7 51,206.7 49.2,211.1 C47.3,215.5 45.6,220.3 44.1,224.7 C42.6,229.2 41.3,233.4 40.3,236.6 C39.3,239.9 38.7,242 38.6,242.4 C38.5,242.8 37.9,244.8 37.1,247.9 C36.3,251 35.2,255.2 34.2,259.6 L73.8,239.2 L111.5,194.9 L109,192.7 L114.8,186.3 L114.2,185.7 L114.2,185.7 Z M131.2,113.1 C129.5,114.7 127.2,116.9 124.5,119.4 C121.8,121.9 118.8,124.9 115.7,127.9 C112.6,130.9 109.4,134.1 106.5,137.1 C103.7,139.9 102.4,142.8 102,145.7 C101.6,148.6 102.2,151.6 103.4,154.4 C104.6,157.3 106.4,160 108.4,162.5 C110.4,165.1 112.6,167.4 114.4,169.3 C114.5,169.4 114.6,169.6 114.8,169.7 C114.9,169.8 115,169.9 115.1,170.1 C115.2,170.2 115.3,170.3 115.4,170.5 L115.7,170.8 C117.4,172.6 119.5,173.1 121.7,172.9 C123.9,172.7 126.1,171.7 128.2,170.5 C130.2,169.3 132,167.8 133.4,166.6 C134.7,165.4 135.6,164.5 135.8,164.3 C136.1,164 137.6,162.5 139.8,160.2 C142,157.9 145,154.8 148.3,151.4 C151.6,148 155.1,144.2 158.5,140.4 C161.9,136.7 165.1,133 167.8,129.7 C169.9,127.2 170.7,124.7 170.7,122.4 C170.7,120.1 169.9,118 168.7,116.1 C167.5,114.2 165.9,112.5 164.3,111.1 C162.7,109.7 161.1,108.6 159.8,107.7 C159.4,107.4 159,107.2 158.7,107 C158.4,106.8 158.1,106.6 157.9,106.5 C157.7,106.4 157.5,106.3 157.4,106.2 C157.3,106.1 157.2,106.1 157.2,106.1 C157.2,106.1 157,106 156.7,105.9 C156.4,105.8 155.9,105.6 155.2,105.4 C154.5,105.2 153.7,105 152.7,104.9 C151.7,104.7 150.5,104.6 149.1,104.5 C147.2,104.4 145.3,104.7 143.6,105.2 C142.3,105.6 141.1,106.1 140,106.7 C139.6,106.9 139.3,107.1 138.9,107.3 C139.2,107.1 139.5,107 139.9,106.8 C139.6,107 139.3,107.1 138.9,107.3 C138.2,107.7 137.5,108.1 136.9,108.5 L136.9,108.5 C137.1,108.4 137.3,108.2 137.5,108.1 C137.3,108.2 137.1,108.4 136.9,108.5 C136.9,108.5 137,108.5 137,108.4 C137,108.4 136.9,108.4 136.9,108.5 L136.9,108.5 C136.8,108.5 136.8,108.6 136.7,108.6 C136.6,108.7 136.4,108.8 136.3,108.9 L136.3,108.9 C136.3,108.9 136.2,108.9 136.2,109 L136.2,109 C136,109.1 135.9,109.2 135.7,109.4 C135.7,109.4 135.6,109.4 135.6,109.5 C135.6,109.5 135.6,109.5 135.5,109.5 L135.5,109.5 C135.3,109.6 135.1,109.8 135,109.9 C134.8,110 134.7,110.1 134.6,110.2 L134.6,110.2 C134.5,110.3 134.4,110.3 134.4,110.4 L134.4,110.4 L134.3,110.5 L134.4,110.4 L134.4,110.4 C134.3,110.4 134.3,110.5 134.3,110.5 C134,110.5 132.9,111.5 131.2,113.1 L131.2,113.1 Z M234.1,62.7 L211.1,73.7 L218.5,80.1 L222.2,78.6 L223.4,79.7 L227.4,77.7 L226.2,76.7 L242.1,69.4 L234.1,62.7 L234.1,62.7 Z M232.4,57.8 C232.4,57.8 232.4,57.9 232.4,57.8 L232.4,57.8 L232.4,57.8 Z M199.3,23.1 C199.7,22.8 200.2,22.5 200.6,22.3 C201,22.1 201.5,21.9 202,21.8 C202.5,21.7 203,21.6 203.4,21.6 C203.9,21.6 204.3,21.5 204.7,21.6 C204.4,21.5 204.2,21.3 203.9,21.2 C203.6,21.1 203.4,20.9 203.1,20.8 C202.8,20.7 202.6,20.5 202.3,20.4 C202,20.3 201.8,20.1 201.5,20 L162.6,50.9 L182.6,59.6 L188.5,54.7 L190.8,55.6 L188.5,57.5 L203.1,63.6 L208.3,62 L212.8,58 L226,46.4 L220,44.4 L224.7,40.3 L226.8,38.5 L225.5,34.5 L216.1,31.6 L212.9,34.3 L199.6,30.1 L202.9,27.4 L201.8,27.1 L201.8,27.1 C201.8,27.1 201.8,27.1 201.7,27.1 C201.7,27.1 201.7,27.1 201.6,27.1 C201.4,27 200.9,26.9 200.4,26.7 C199.9,26.5 199.4,26.2 198.9,25.9 C198.5,25.6 198.2,25.2 198.1,24.7 C198.3,24.1 198.6,23.6 199.3,23.1 L199.3,23.1 Z M98.7,123.6 L98.1,124.5 C98.1,124.5 98.1,124.6 98,124.6 C98.3,124.2 98.5,123.9 98.7,123.6 L98.7,123.6 Z M224.3,31.2 C226.2,32.1 228,33 229.7,33.8 C228,33 226.2,32.1 224.3,31.2 L224.3,31.2 Z M232.2,35 C231.4,34.6 230.6,34.3 229.8,33.9 C229.7,33.9 229.6,33.8 229.6,33.8 C229.7,33.8 229.8,33.9 229.8,33.9 C230.6,34.3 231.4,34.6 232.2,35 L232.2,35 Z M107.6,102.2 L113.6,104.5 C113.6,104.5 113.7,104.3 113.9,104.1 C114.1,103.8 114.4,103.5 114.9,102.9 C115.3,102.4 115.9,101.7 116.6,100.9 C117.3,100.1 118.1,99.1 119.1,98 C121.7,95.6 123.7,93.8 125.4,92.2 C127.2,90.6 128.8,89.3 130.4,88 C132.1,86.7 133.9,85.4 136.1,83.9 C138.3,82.4 141,80.7 144.3,78.6 C147.6,76.5 151.2,74.5 154.7,72.8 C158.2,71.1 161.6,69.6 164.7,68.4 C167.8,67.2 170.4,66.2 172.4,65.5 C174.4,64.8 175.6,64.4 175.9,64.4 C175.9,64.4 175.8,64.3 175.8,64.2 C175.7,64.1 175.7,63.9 175.7,63.6 C175.7,63.4 175.8,63.1 175.9,62.7 C176.1,62.4 176.3,62 176.8,61.7 C177.2,61.3 177.7,61.1 178.2,60.9 C178.7,60.7 179.1,60.6 179.6,60.6 L180.7,60.6 L181.2,60.6 L161.3,51.9 L160.6,52.4 C160.5,52.5 160,52.8 159.2,53.3 C158.4,53.8 157.5,54.4 156.4,55.1 C155.3,55.7 154.2,56.4 153.2,56.9 C152.2,57.4 151.3,57.8 150.6,57.9 C150,58 149.4,58.2 148.9,58.4 C148.4,58.6 147.9,58.9 147.5,59.2 C147.1,59.5 146.8,59.8 146.5,60 L146.1,60.4 C146.1,60.4 146,60.5 145.9,60.5 L145.8,60.6 C145.5,60.8 144.9,61.3 144.2,61.8 C144.1,61.9 144,62 143.9,62 C143,62.7 141.9,63.5 140.7,64.5 C140.5,64.7 140.3,64.8 140.1,65 C138.5,66.3 136.6,67.7 134.8,69.1 C134.6,69.2 134.5,69.4 134.3,69.5 C132.8,70.7 131.3,71.8 130,72.9 C129.8,73 129.7,73.1 129.5,73.3 C129.3,73.5 129.1,73.6 128.9,73.8 C128.3,74.2 127.8,74.7 127.3,75 C126.6,75.5 126,75.9 125.5,76.2 C124.4,76.9 123.6,77.4 122.9,77.7 C122.2,78.1 121.6,78.3 121,78.5 C120.4,78.7 119.9,78.9 119.2,79.1 C118.5,79.4 118,79.6 117.5,79.8 C117,80 116.6,80.3 116.3,80.5 C116,80.7 115.7,80.9 115.5,81 C115.3,81.1 115.2,81.2 115.2,81.2 L98.4,94.2 L107.8,101.4 L107.6,102.2 L107.6,102.2 Z M211.4,24.8 C213.6,25.9 215.9,27 218,28.1 C215.9,27.1 213.7,26 211.4,24.8 L211.4,24.8 Z M91.3,132.7 C90.1,133.9 89,134.9 88,135.8 C89,134.9 90.1,133.9 91.3,132.7 L91.3,132.7 Z M82.7,140.5 C82.7,140.5 83,140.2 83.5,139.9 C83.9,139.5 84.6,139 85.3,138.3 C86.1,137.6 87,136.8 88,135.9 C89,135 90.1,133.9 91.3,132.8 C92.5,131.6 93.7,130.3 94.8,128.8 C96,127.4 97.1,125.9 98,124.6 C98,124.6 98,124.5 98.1,124.5 C98.6,123.7 99.1,123.1 99.6,122.4 C99.6,122.5 99.5,122.5 99.5,122.6 C99.5,122.5 99.6,122.5 99.6,122.4 C99.6,122.3 99.7,122.3 99.7,122.3 C99.7,122.3 99.7,122.3 99.7,122.2 L99.7,122.2 C99.8,122.1 99.9,121.9 100,121.8 L100,121.8 C100.1,121.7 100.1,121.6 100.2,121.5 C100.3,121.4 100.3,121.3 100.4,121.2 C100.4,121.3 100.3,121.4 100.2,121.4 C100.3,121.3 100.3,121.2 100.4,121.2 C101,120.3 101.4,119.8 101.4,119.6 L112.3,105.8 L95.8,96.2 L64.8,116.4 L65.8,117.5 L63.1,119.6 L82.7,140.5 L82.7,140.5 Z M19,152 L18.6,152.4 C18.5,152.6 18.3,152.8 18.2,153 C18.1,153.2 18.1,153.4 18.2,153.6 C18.3,153.8 18.4,155.1 18.4,156.8 L18.4,163.3 C18.4,165.7 18.4,168.2 18.3,170.2 C18.3,172.2 18.3,173.6 18.2,173.9 C18.2,174.1 18.2,174.9 18.3,176.2 C18.4,177.5 18.4,179.2 18.6,181 C18.7,182.8 18.9,184.7 19.2,186.3 C19.4,187.9 19.7,189.3 20.1,190 C20.1,190.1 20.2,190.1 20.2,190.1 L20.3,190.2 L20.4,190.3 L20.5,190.4 C20.9,190.7 21.8,190.7 22.8,190.6 C23.4,190.5 24.1,190.3 24.8,190.1 L24.7,190.1 L24.8,190.1 C25.1,190 25.5,189.9 25.8,189.8 C25.9,189.8 26.1,189.7 26.2,189.7 C26.4,189.6 26.5,189.6 26.7,189.5 C26.8,189.4 27,189.4 27.1,189.3 L27.1,189.3 C27.2,189.3 27.3,189.2 27.3,189.2 C27.4,189.2 27.4,189.1 27.5,189.1 C27.8,189 28.2,188.8 28.5,188.6 C28.6,188.5 28.7,188.5 28.9,188.4 C29.4,188.2 29.8,187.9 30.3,187.7 C30.3,187.7 30.4,187.7 30.4,187.6 C30.4,187.6 30.3,187.6 30.3,187.7 C30.3,187.7 30.4,187.7 30.4,187.6 C30.8,187.4 31.1,187.2 31.5,187 C31.6,187 31.6,186.9 31.7,186.9 C31.8,186.8 32,186.7 32.1,186.6 C32.4,186.4 32.8,186.2 33.1,185.9 C33.2,185.8 33.3,185.8 33.4,185.7 C33.5,185.6 33.6,185.6 33.6,185.5 C33.9,185.3 34.3,185 34.6,184.8 C34.7,184.7 34.9,184.6 35,184.5 C35.5,184.1 35.9,183.8 36.4,183.4 C38,182.1 41.7,178.7 46.3,174.5 C46.8,174.1 47.2,173.6 47.7,173.2 L48,172.9 C52.1,169.1 56.8,164.8 61.2,160.6 C66.2,155.9 71,151.4 74.6,148.1 C75.9,146.9 77,145.9 77.9,145 C78.3,144.6 78.6,144.3 79,144 L79,144 C79.3,143.7 79.6,143.4 79.9,143.2 C80.5,142.6 80.9,142.3 81.1,142.1 L61.7,121.1 L58.8,123.3 L57.7,122.1 L19.1,151.7 C19.2,151.8 19.1,151.9 19,152 L19,152 Z M88,135.9 C87,136.8 86.1,137.6 85.3,138.3 C86.1,137.6 87,136.8 88,135.9 L88,135.9 Z M13.4,114.5 C13.5,116.8 13.7,119.8 13.9,123.1 C14.1,126.5 14.3,130.1 14.5,133.3 C14.7,136.6 14.9,139.4 15.1,141.1 C15.1,141.3 15.2,141.5 15.2,141.7 C15.2,141.9 15.3,142.1 15.3,142.2 C15.3,142.3 15.4,142.5 15.5,142.7 C15.6,142.9 15.6,143 15.7,143.1 C16.2,143.9 17,144.3 17.8,144.4 C18.6,144.5 19.6,144.3 20.4,143.9 C21.3,143.6 22.1,143.1 22.7,142.8 C23.3,142.4 23.7,142.1 23.8,142.1 L55.9,117.8 L33.9,93.6 C33.8,93.7 33.1,94.2 32,94.9 C30.9,95.6 29.5,96.6 27.9,97.8 C26.3,98.9 24.5,100.1 22.9,101.3 C21.2,102.5 19.6,103.6 18.2,104.5 C16.9,105.4 15.9,106.2 15.2,107 C14.5,107.7 14,108.4 13.8,108.9 C13.5,109.4 13.4,109.8 13.4,110.1 L13.4,110.6 C13.2,110.8 13.3,112.3 13.4,114.5 L13.4,114.5 Z M94.8,128.8 C93.6,130.2 92.4,131.6 91.3,132.8 C92.4,131.6 93.6,130.2 94.8,128.8 L94.8,128.8 Z M98,124.6 C97,125.9 95.9,127.4 94.8,128.8 C96,127.3 97.1,125.9 98,124.6 L98,124.6 Z M130.5,203.8 L130.5,203.5 L130.5,203.5 L130.5,203.8 L130.5,203.8 Z M167.4,103.5 C166.7,103.1 166,102.7 165.1,102.3 C165.9,102.8 166.7,103.2 167.4,103.5 L167.4,103.5 Z M130.4,189.7 L130.4,190 C130.4,189.2 130.4,188.4 130.5,187.6 C130.4,188.3 130.4,189 130.4,189.7 L130.4,189.7 Z M160.9,97.8 C160.9,96.9 161,96.1 161.1,95.3 C160.9,96.1 160.9,96.9 160.9,97.8 L160.9,97.8 Z M161.3,100.4 C161.1,99.5 160.9,98.6 160.9,97.8 C160.9,98.6 161,99.5 161.3,100.4 L161.3,100.4 Z M169.2,104.6 C168.6,104.3 168,103.9 167.3,103.6 C168.1,103.9 168.7,104.3 169.2,104.6 L169.2,104.6 Z M170.7,105.5 C170.3,105.2 169.8,104.9 169.2,104.6 C169.8,104.9 170.3,105.2 170.7,105.5 L170.7,105.5 Z M175.2,6.5 C174.1,5.9 173,5.4 172.1,4.9 C173.1,5.4 174.1,6 175.2,6.5 L175.2,6.5 Z M169.8,3.8 C168.8,3.3 168.2,3 167.9,2.8 C168.2,2.9 168.9,3.3 169.8,3.8 L169.8,3.8 Z M275.7,51.2 C273.7,50.3 271,49 267.6,47.5 C264.3,46 260.5,44.2 256.4,42.2 C252.4,40.3 248.1,38.2 243.7,36 L243.7,36 C243.6,36 243.6,35.9 243.5,35.9 C243.4,35.9 243.4,35.8 243.3,35.8 C243.2,35.8 243.2,35.8 243.2,35.7 C243.2,35.7 242.9,35.6 242.5,35.4 C241.9,35.2 241.4,34.9 240.8,34.7 C240,34.4 239.3,34 238.5,33.7 C237.7,33.4 237,33 236.2,32.6 C235.4,32.2 234.7,31.9 233.9,31.5 C228.3,28.9 220.9,25.4 213.2,21.7 C206,18.2 198.6,14.6 192.2,11.4 C186.1,8.4 180.8,5.8 177.1,3.9 C173.5,2.1 171.3,1 171.2,1 L167.8,2.7 C167.8,2.7 168.6,3.1 169.8,3.8 C171.1,4.5 172.9,5.4 175.2,6.6 C177.5,7.8 180.3,9.2 183.4,10.8 C186.6,12.4 190.2,14.2 193.9,16.1 L193.9,16.1 C193.8,16.1 193.7,16 193.6,16 C193.5,16 193.4,15.9 193.4,15.9 C193.3,15.9 193.3,15.9 193.2,15.8 L193.1,15.8 L158.3,6.2 L149.4,12.4 L162.6,16.5 L161.6,17.2 L187.2,25.2 L190.6,22.6 L192.6,23.2 L194.3,21.9 L191.1,21 C191.1,21 191.3,20.9 191.5,20.7 C191.7,20.5 192.1,20.3 192.4,20 L193.6,19.1 C194,18.8 194.5,18.4 194.9,18.1 L195.3,17.7 C195.4,17.6 195.4,17.4 195.4,17.3 C195.4,17.2 195.3,17.1 195.2,16.9 C195.1,16.8 195,16.7 194.8,16.6 C195.3,16.9 195.9,17.1 196.4,17.4 C196.9,17.7 197.5,18 198.1,18.2 C198.7,18.5 199.2,18.8 199.8,19 C200.4,19.3 200.9,19.6 201.5,19.9 C201.8,20 202,20.2 202.3,20.3 C202.6,20.4 202.8,20.6 203.1,20.7 C203.4,20.8 203.6,21 203.9,21.1 C204.2,21.2 204.4,21.4 204.7,21.5 C206.9,22.6 209.2,23.7 211.4,24.8 C213.6,25.9 215.9,27 218,28.1 C220.2,29.2 222.3,30.2 224.3,31.2 C226.3,32.2 228.2,33.1 229.9,33.9 C230.7,34.3 231.5,34.7 232.3,35 C233.1,35.4 233.9,35.7 234.7,36.1 C235.5,36.5 236.3,36.8 237.1,37.2 C237.8,37.5 238.5,37.8 239.2,38.2 L239.5,38.4 L239.6,38.5 C239.7,38.6 239.8,38.6 239.8,38.7 L239.7,38.6 L239.9,38.8 L239.9,38.8 L240.2,39.1 C240.3,39.2 240.4,39.4 240.5,39.6 C240.8,40.3 240.9,41.3 240.4,42.6 C240,43.6 239.3,44.9 238.2,46.3 C238.1,46.4 238.1,46.5 238,46.6 C237.6,47 237.2,47.5 236.8,48 C234.7,50.3 231.5,53 226.8,56.4 C225.8,57.1 224.8,57.8 223.8,58.4 C224.8,57.7 225.8,57 226.8,56.4 C225.8,57.1 224.8,57.8 223.8,58.4 C223.6,58.5 223.4,58.7 223.1,58.8 C221,60.1 218.9,61.5 216.7,62.7 C216.5,62.8 216.2,63 216,63.1 L216,63.1 C213.2,64.7 210.4,66.2 207.5,67.7 C207.4,67.7 207.4,67.7 207.3,67.8 C207.4,67.8 207.4,67.7 207.5,67.7 C207.4,67.7 207.4,67.8 207.3,67.8 C205.6,68.7 203.8,69.5 202.1,70.4 C201.7,70.6 201.3,70.8 200.8,71 C200.1,71.3 199.4,71.7 198.7,72 C198.5,72.1 198.4,72.1 198.2,72.2 C197.4,72.6 196.7,72.9 195.9,73.3 L195.3,73.6 C194.6,73.9 193.9,74.2 193.1,74.6 L192.5,74.9 C191.8,75.2 191,75.5 190.3,75.8 C190,75.9 189.8,76 189.5,76.1 C189.1,76.3 188.7,76.4 188.4,76.6 L187.8,76.9 L187.2,77.2 L187.2,77.2 C186.8,77.4 186.5,77.5 186.1,77.6 C185.7,77.8 185.3,77.9 184.9,78.1 C184.5,78.2 184.2,78.4 183.9,78.5 C183.5,78.7 183.1,78.8 182.7,79 C182.3,79.1 182,79.3 181.6,79.4 C181.2,79.5 180.9,79.7 180.5,79.8 C180.1,79.9 179.8,80.1 179.5,80.2 C179.2,80.3 178.8,80.5 178.5,80.6 C178.2,80.7 177.8,80.9 177.5,81 C177.2,81.1 176.8,81.3 176.5,81.4 L175.6,81.7 C175.3,81.8 174.9,81.9 174.6,82.1 C174.3,82.2 174.1,82.3 173.8,82.4 C173.5,82.5 173.1,82.6 172.8,82.8 C172.6,82.9 172.3,83 172.1,83 C171.9,83.1 171.8,83.1 171.6,83.2 C171.4,83.3 171.3,83.3 171.1,83.4 L171.1,83.4 C171,83.4 170.9,83.5 170.8,83.5 C170.7,83.5 170.7,83.5 170.6,83.6 L170.6,83.6 L170.5,83.6 L169.6,83.9 C169.4,84 169.3,84 169.1,84.1 C168.8,84.2 168.5,84.3 168.3,84.4 C168.1,84.5 168,84.5 167.8,84.6 C167.6,84.7 167.4,84.8 167.1,84.8 C166.9,84.9 166.8,84.9 166.6,85 C166.4,85.1 166.3,85.1 166.1,85.2 C165.9,85.3 165.8,85.3 165.7,85.4 C165.6,85.4 165.4,85.5 165.3,85.5 C165.2,85.5 165,85.6 164.9,85.6 C164.8,85.6 164.7,85.7 164.6,85.7 C164.5,85.7 164.4,85.8 164.3,85.8 C164.5,85.7 164.7,85.7 164.9,85.6 L165,85.6 C165.2,85.5 165.5,85.4 165.7,85.4 C165.8,85.4 165.8,85.4 165.9,85.3 C166.1,85.2 166.4,85.1 166.7,85 C166.8,85 166.9,84.9 167,84.9 C167.3,84.8 167.5,84.7 167.8,84.6 C167.9,84.6 168.1,84.5 168.2,84.5 C168.4,84.4 168.6,84.4 168.7,84.3 C165.7,85.3 163.9,86 163.6,86 C163.2,86.1 161.6,86.6 159,87.7 C156.3,88.8 152.6,90.5 148,93 C143.4,95.5 137.8,98.9 131.5,103.4 C125.1,107.9 117.7,113.7 109.5,120.9 C109.2,121.2 108.9,121.4 108.6,121.7 C108.3,122 108,122.2 107.7,122.5 C107.4,122.8 107.1,123.1 106.8,123.3 C106.5,123.6 106.2,123.9 105.9,124.1 C107,122.5 108.2,120.7 109.4,119 C110.7,117.3 112,115.5 113.4,113.6 C114.8,111.8 116.3,110 117.9,108.2 C119.5,106.4 121.1,104.6 122.8,102.9 C127.1,98.5 131.4,94.7 135.7,91.3 C139.9,88 144.2,85.1 148.3,82.5 C152.4,80 156.3,77.8 160,76 C163.7,74.2 167.2,72.6 170.3,71.3 C173.1,70.2 175.6,69.4 177.8,69 C180,68.6 182,68.4 183.6,68.4 C185.3,68.4 186.7,68.6 187.8,68.9 C189,69.2 189.8,69.5 190.5,69.8 C190.7,69.9 190.8,69.9 190.9,70 C191,70.1 191.1,70.1 191.2,70.2 C191.3,70.3 191.4,70.3 191.4,70.3 C191.5,70.3 191.5,70.4 191.5,70.4 L193.8,69 L196.1,67.6 C196.1,67.6 196,67.5 195.9,67.5 C195.8,67.4 195.7,67.4 195.5,67.3 C195.3,67.2 195.2,67.1 194.9,67 C194.7,66.9 194.4,66.8 194.1,66.6 C193.8,66.5 193.4,66.3 193,66.2 C192.6,66.1 192.2,65.9 191.7,65.8 C191.2,65.7 190.7,65.5 190.2,65.4 C189.6,65.3 189.1,65.2 188.4,65.1 C187.3,64.9 186.1,64.8 184.7,64.8 C183.3,64.8 181.7,64.8 180,65 L180,65 C178.7,65.2 177.3,65.4 175.9,65.7 C175.8,65.7 175.6,65.8 175.5,65.8 L175.4,65.8 L175.4,65.8 C175.3,65.8 175.2,65.9 175.1,65.9 C174.9,66 174.7,66 174.4,66.1 L174.4,66.1 C174.3,66.1 174.1,66.2 173.9,66.2 C173.5,66.3 173.2,66.4 172.8,66.5 L172.7,66.5 C172.2,66.6 171.7,66.8 171.2,67 L171.2,67 C170.8,67.1 170.3,67.3 169.9,67.5 C169.8,67.5 169.7,67.6 169.6,67.6 L169.6,67.6 C169.5,67.6 169.5,67.6 169.4,67.7 L167.9,68.3 C168.4,68.1 168.9,67.9 169.4,67.7 L167.9,68.3 C164.6,69.6 161,71.2 157.2,73.1 C153.3,75 149.2,77.2 145,79.8 C140.7,82.4 136.3,85.4 131.9,88.8 C127.4,92.3 122.9,96.2 118.4,100.7 C114.7,104.4 111.4,108.2 108.4,111.9 C105.4,115.7 102.7,119.4 100.4,122.7 C98.1,126.1 96.2,129.2 94.8,131.6 C93.4,134.1 92.4,135.8 92,136.6 C92,136.7 91.9,136.7 91.9,136.8 C91.9,136.8 91.9,136.9 91.8,136.9 C91.8,136.9 91.8,137 91.7,137 C91.7,137 91.7,137 91.7,137.1 L91.7,137.1 C91.7,137.1 91.7,137.1 91.7,137 C91.7,137 91.7,136.9 91.8,136.9 C91.8,136.9 91.8,136.8 91.9,136.8 C91.9,136.8 92,136.7 92,136.6 L86,142.3 C84,144.2 82.1,146.1 80.2,148 C78.3,149.9 76.4,151.7 74.6,153.6 L69.2,159 L69.1,159.1 L69.1,159.1 C65.4,162.9 61.9,166.4 58.8,169.7 C55.6,173 52.8,175.9 50.5,178.5 C48.1,181 46.2,183.1 44.8,184.7 C43.4,186.2 42.5,187.2 42.2,187.5 L41.1,188.6 C40.9,188.7 40.8,188.9 40.6,189.1 C40.2,189.4 39.8,189.8 39.4,190.3 L38.7,191 C37.5,192.1 36,193.5 34.3,195.1 C33,196.2 31.7,197.5 30.2,198.8 C29.7,199.2 29.3,199.6 28.8,200 C27.4,201.2 25.9,202.5 24.3,203.9 C23.3,204.8 22.2,205.6 21.1,206.5 C21,206.6 20.9,206.7 20.8,206.7 C19.8,207.5 18.7,208.4 17.6,209.3 C17.5,209.4 17.4,209.4 17.3,209.5 C12.4,213.3 6.9,217.4 1.1,221.3 L2.2,228.2 C3.3,227.4 4.5,226.7 5.6,225.9 C6.7,225.1 7.8,224.4 8.9,223.6 C10,222.8 11,222.1 12.1,221.3 C13.1,220.5 14.1,219.8 15.1,219 L15.1,219 L15.1,219.2 C15.2,219.4 15.2,219.6 15.3,219.8 L15.3,220 C15.4,220.2 15.4,220.5 15.5,220.7 C15.6,221.1 15.7,221.6 15.7,222.2 C15.7,222.5 15.8,222.7 15.8,223 L15.8,223.3 L15.8,223.6 C15.8,223.9 15.8,224.2 15.9,224.5 L15.9,225.1 L15.9,226.1 L15.9,226.8 L15.9,227.9 L15.9,228.7 C15.9,229.1 15.9,229.4 15.8,229.8 L15.8,229.9 L15.8,229.9 C15.6,232.7 15.1,236 14.3,240 C14.3,240.1 14.3,240.2 14.2,240.3 C14.2,240.2 14.2,240.1 14.3,240 C14.1,240.9 13.9,241.8 13.7,242.8 C13.7,242.9 13.7,243 13.6,243 C13.5,243.5 13.4,244 13.2,244.5 L12.9,245.7 C12.8,246.1 12.7,246.6 12.6,247 C12.5,247.3 12.5,247.5 12.4,247.8 C12.2,248.4 12.1,249 11.9,249.6 C11.9,249.7 11.8,249.8 11.8,250 C11.6,250.7 11.4,251.4 11.2,252.1 C11.1,252.3 11.1,252.5 11,252.7 C10.8,253.5 10.5,254.3 10.3,255.1 C10.6,254.3 10.8,253.5 11,252.7 C10.8,253.5 10.5,254.3 10.3,255.1 L17.9,254.9 C19.9,248.3 21.2,242.8 22.1,238 C23,233.4 23.4,229.5 23.6,226.3 C23.8,223.1 23.6,220.5 23.4,218.5 C23.1,216.4 22.7,214.8 22.3,213.6 C26,210.6 29.3,207.8 32.3,205.2 C35.2,202.6 37.7,200.3 39.8,198.4 C41.9,196.5 43.5,194.9 44.6,193.7 C45.7,192.6 46.4,191.9 46.5,191.7 L46.7,191.5 C46.7,191.5 46.8,191.4 47,191.1 C47.2,190.9 47.5,190.6 47.8,190.2 C48.2,189.8 48.6,189.3 49.1,188.7 C49.6,188.1 50.2,187.5 50.9,186.7 C47.6,192.7 44.6,198.9 41.7,205 C38.8,211.3 36.1,217.4 33.8,222.9 C31.4,228.6 29.5,233.5 28,237.3 C26.5,241.1 25.6,243.6 25.4,244.3 L32.7,245 C32.8,244.8 34.2,240.5 36.8,233.8 C39.3,227.3 42.7,218.7 46.7,209.6 C50.5,200.9 54.9,191.8 59.5,183.5 C64,175.5 68.7,168.3 73.7,162.6 C74.5,161.8 75.3,161 76,160.2 C76.8,159.4 77.6,158.6 78.4,157.7 C79.2,156.9 80,156 80.9,155.2 L83.4,152.7 L83.4,152.7 L111.6,179.1 C111.6,179.1 111.7,179.1 111.7,179.2 C111.8,179.3 111.9,179.4 112.1,179.5 C112.3,179.6 112.4,179.8 112.6,180 C112.8,180.2 113,180.4 113.2,180.7 C113.5,181.1 113.9,181.5 114.2,182 C114.5,182.5 114.9,183 115.2,183.6 C115.5,184.2 115.8,184.8 115.9,185.5 C116.1,186.2 116.2,187 116.3,187.8 L116.3,189 L116.3,189 C116.3,189.3 116.2,189.7 116.2,190 C116.2,190.1 116.2,190.3 116.1,190.4 C116,190.7 115.9,191 115.8,191.4 C115.8,191.5 115.8,191.6 115.7,191.6 C115.6,192 115.4,192.4 115.2,192.8 C115.2,192.9 115.1,193 115.1,193.1 C115,193.4 114.8,193.8 114.6,194.1 C114.5,194.2 114.4,194.4 114.4,194.5 C114.2,194.8 114.1,195.1 113.9,195.4 C113.8,195.6 113.7,195.7 113.6,195.9 C113.4,196.1 113.3,196.4 113.1,196.6 L112.9,196.8 C112.8,196.9 112.7,197.1 112.6,197.2 C112.5,197.3 112.4,197.5 112.3,197.6 C112.1,197.9 111.8,198.2 111.6,198.5 C108.2,202.6 104,207.9 99.7,213.6 C95.2,219.5 90.5,225.9 86.1,231.9 C81.6,238.1 77.4,243.9 74.3,248.3 C71.1,252.8 69,255.8 68.7,256.2 L74.7,262.2 C74.8,262.1 76.8,259.2 79.9,254.7 C80.3,254.1 80.7,253.6 81.1,253 C81.9,251.8 82.8,250.5 83.8,249.2 C86.2,245.8 88.9,242 91.7,238 C92,237.6 92.2,237.2 92.5,236.9 C96.2,231.7 100,226.4 103.7,221.3 C104.2,220.6 104.8,219.8 105.3,219.1 C105.4,219 105.5,218.9 105.6,218.7 C108.3,215.1 110.9,211.7 113.2,208.6 C113.2,208.5 113.3,208.5 113.3,208.4 C114.2,207.2 115.1,206.1 115.9,205.1 L115.9,205.1 C116.2,204.8 116.4,204.4 116.7,204.1 L116.7,204.1 C116.9,203.9 117,203.7 117.2,203.5 C117.7,202.9 118.1,202.3 118.6,201.7 C118.7,201.6 118.7,201.5 118.8,201.4 C119,201.1 119.2,200.8 119.4,200.5 C119.6,200.2 119.8,200 119.9,199.7 C119.9,199.6 120,199.6 120,199.5 C120,199.4 120.1,199.4 120.1,199.3 C120.2,199.1 120.3,199 120.4,198.8 C120.6,198.4 120.9,198 121.1,197.6 C121.1,197.5 121.2,197.5 121.2,197.4 C121.5,196.8 121.8,196.3 122,195.8 C122,195.8 122,195.7 122.1,195.7 L122.1,195.7 C122.3,195.3 122.4,194.9 122.6,194.5 C122.7,194.3 122.7,194.2 122.8,194 C122.8,193.9 122.9,193.8 122.9,193.7 C123.1,193.2 123.2,192.6 123.4,192.1 L123.4,192.1 C123.4,192 123.4,191.9 123.5,191.8 C123.6,191.3 123.8,190.7 123.8,190.2 L123.8,190.2 C123.8,190.2 123.8,190.2 123.8,190.1 L123.8,190.1 C123.9,189.6 123.9,189 124,188.5 L124,188.5 L124,188.3 L124,188.1 L124,188 L124,187.8 L124,187.2 L124,187.1 L124,187 L124,186.6 L124,186 C123.9,184.7 123.7,183.5 123.4,182.4 C123.1,181.3 122.7,180.3 122.2,179.4 C121.7,178.5 121.2,177.7 120.7,177 C120.2,176.3 119.6,175.7 119.1,175.1 L118.3,174.3 C118.1,174.1 117.8,173.9 117.6,173.7 C117.4,173.5 117.2,173.4 117,173.2 C116.8,173.1 116.7,173 116.6,172.9 L88.4,147.6 C90.4,145.6 92.4,143.6 94.5,141.6 C96.6,139.6 98.7,137.6 100.8,135.6 C102.9,133.6 105,131.6 107.2,129.6 C109.3,127.6 111.5,125.7 113.7,123.7 C116.4,121.3 119,119.1 121.4,117 C123.9,114.9 126.2,113.1 128.5,111.3 C130.8,109.6 132.9,108 135,106.5 C137.1,105 139,103.7 140.9,102.4 L140.9,102.4 C141.6,102.3 142.6,102.2 143.8,102.2 C145.1,102.1 146.6,102.1 148.2,102.3 C149.8,102.4 151.6,102.6 153.3,103 C155.1,103.4 156.8,104 158.5,104.9 C159.5,105.4 160.4,105.9 161.2,106.3 C162,106.7 162.7,107.1 163.4,107.5 C164.1,107.9 164.6,108.2 165.1,108.5 C165.6,108.8 166,109.1 166.4,109.3 C166.8,109.5 167.1,109.7 167.3,109.9 C167.5,110.1 167.7,110.2 167.9,110.3 C169.1,111.7 170.7,113.5 171.6,114.9 C172.5,116.3 173.2,117.8 173.7,119.4 C174.1,121 174.2,122.7 173.9,124.7 C173.6,126.7 172.8,128.9 171.4,131.4 C169.3,135.3 166.5,139.2 163.5,142.8 C160.4,146.5 157.1,150 154,153 C150.9,156 148,158.6 145.9,160.3 C143.8,162.1 142.4,163.1 142.4,163.2 C142.3,163.3 141.5,163.9 140.5,164.9 C139.4,165.9 138,167.5 136.7,169.4 C135.3,171.4 133.9,173.9 132.8,176.8 C131.7,179.8 130.9,183.3 130.7,187.3 C130.7,188.2 130.6,189 130.6,189.8 L130.6,189.8 L130.6,190.6 L130.6,191.5 L130.6,192.2 L130.6,193 L130.6,193.4 L130.6,194.5 L130.6,195 L130.6,195 L130.6,195.1 L130.6,197 C130.6,197 130.6,197 130.6,197.1 L130.6,197.4 L130.6,198.5 L130.6,198.3 L130.6,198.5 L130.6,198.9 L130.6,199.4 L130.6,199.4 L130.6,200 L130.6,200 L130.6,200.5 L130.6,200.5 L130.6,200.7 L130.6,200.9 C130.6,200.9 130.6,200.9 130.6,201 L130.6,201.3 L130.6,201.5 L130.6,201.8 L130.6,202.5 L130.6,202.8 L130.6,203.1 L130.6,203.1 C130.6,203.5 130.6,203.8 130.7,204.2 L130.7,204.2 L130.7,204.4 L130.7,204.2 C130.7,204.6 130.8,205.1 130.8,205.4 L130.8,205.7 L130.8,206.1 L130.8,206.4 L130.8,206.8 L130.8,207 L130.8,207 L130.8,207.2 L130.8,207.2 L130.8,207.6 L130.8,207.5 L130.8,207.5 C130.8,207.5 130.8,207.5 130.8,207.6 L130.8,207.6 L130.8,207.8 L130.8,207.8 L130.8,208 C130.8,208.2 130.8,208.3 130.9,208.4 L130.9,208.5 L130.9,208.5 C130.9,208.5 130.9,208.5 130.9,208.6 C130.9,208.7 130.9,208.9 131,209 C131,209 131,209 131,209.1 C131,209.1 131,209.1 131,209.2 L131,209.2 L131,209.3 C131,209.3 131,209.3 131,209.4 L131,209.6 L131,209.7 L131,209.8 L131,209.9 L131,209.9 C131,209.9 131,209.9 131,210 L131,210.1 C131,210.1 131,210.1 131,210.2 L131,210.2 L131,210.3 L131,210.2 L131,210.2 L131,210.3 L139.2,207.8 C139.2,207.8 139.1,207.3 139,206.5 C138.9,205.6 138.7,204.3 138.5,202.5 C138.3,200.7 138.2,198.6 138.1,195.9 C138,193.3 138,190.3 138,186.8 C138.1,183.8 138.6,181.2 139.4,178.9 C140.2,176.7 141.2,174.8 142.2,173.3 C143.2,171.8 144.2,170.6 145,169.9 C145.8,169.1 146.3,168.7 146.4,168.6 C146.6,168.4 148.2,167.2 150.5,165.2 C152.8,163.2 155.9,160.5 159.2,157.2 C162.5,153.9 166,150.2 169.3,146.1 C172.5,142.1 175.4,137.9 177.6,133.6 C179.3,130.3 180.2,127.3 180.6,124.7 C180.9,122.1 180.7,119.9 180.1,117.8 C179.5,115.8 178.5,114 177.4,112.3 C176.4,110.8 174.9,109 173.6,107.6 L173.6,107.6 L173.3,107.3 C173.2,107.2 173,107 172.7,106.8 C172.5,106.6 172.2,106.4 171.8,106.2 C171.4,106 171,105.7 170.5,105.4 C170.1,105.1 169.6,104.8 169,104.5 C168.4,104.2 167.8,103.8 167.1,103.5 C166.4,103.1 165.7,102.7 164.8,102.3 C164,101.9 163.1,101.4 162.1,100.9 C162,100.9 161.9,100.8 161.8,100.8 C161.7,100.8 161.6,100.7 161.5,100.7 C161.4,100.7 161.3,100.6 161.2,100.6 C161.1,100.6 161,100.5 160.9,100.5 C159.8,100 158.7,99.6 157.6,99.3 C156.5,99 155.4,98.7 154.3,98.5 C153.2,98.3 152.2,98.1 151.1,98 C150.1,97.9 149.1,97.8 148.1,97.8 L144.7,97.8 C143.7,97.8 142.8,97.9 142,98 C141.2,98.1 140.6,98.1 140.1,98.2 C139.6,98.3 139.4,98.3 139.3,98.3 L139.4,102.8 L139.3,98.3 C139.4,98.3 139.7,98.2 140.1,98.2 C140.6,98.1 141.2,98.1 142,98 C142.8,97.9 143.7,97.9 144.7,97.8 L148.1,97.8 C149.8,96.8 151.3,96 152.8,95.2 C154.2,94.4 155.6,93.8 156.8,93.2 C158,92.6 159.1,92.1 160,91.7 C160.9,91.3 161.8,91 162.4,90.7 C162.8,90 163.2,89.4 163.7,88.8 C164.1,88.2 164.6,87.6 165.1,87.1 C165.6,86.6 166,86.1 166.5,85.7 C167,85.3 167.4,84.9 167.9,84.6 L167.9,84.6 C167.5,84.9 167,85.3 166.6,85.7 C166.1,86.1 165.7,86.6 165.2,87.1 C164.7,87.6 164.3,88.2 163.8,88.8 C163.4,89.4 162.9,90 162.5,90.7 C162.1,91.4 161.7,92.1 161.4,92.9 C161.1,93.7 160.9,94.5 160.7,95.3 C160.5,96.1 160.5,97 160.5,97.8 C160.5,98.7 160.6,99.6 160.9,100.4 C161,100.4 161.1,100.5 161.2,100.5 C161.3,100.5 161.4,100.6 161.5,100.6 C161.6,100.6 161.7,100.7 161.8,100.7 C161.9,100.7 162,100.8 162.1,100.8 C163.1,101.3 164,101.8 164.8,102.2 C165.6,102.6 166.4,103 167.1,103.4 C167.8,103.8 168.4,104.1 169,104.4 C169.6,104.7 170.1,105 170.5,105.3 C171,105.6 171.4,105.9 171.8,106.1 C172.2,106.3 172.5,106.6 172.7,106.7 C172.9,106.9 173.1,107 173.3,107.2 C173.4,107.3 173.6,107.4 173.6,107.5 L173.4,107.3 L173.2,107.1 L173,106.9 L172.8,106.7 C172.4,106.2 172,105.8 171.6,105.3 C171.2,104.8 170.8,104.3 170.4,103.9 L169.2,102.4 C168.8,101.9 168.5,101.4 168.1,100.9 C167,99.3 166.6,97.7 166.7,96.3 C166.7,94.8 167.1,93.5 167.7,92.3 C168.3,91.1 169.1,90 169.8,89.2 C170.5,88.4 171.2,87.7 171.6,87.3 L171.6,87.3 C174.8,86.2 178.9,84.6 183.6,82.8 C188.3,80.9 193.6,78.7 199.1,76.2 C204.6,73.7 210.2,70.9 215.7,68 C221.1,65 226.3,61.9 230.9,58.6 C231.4,58.2 231.9,57.8 232.4,57.5 C232.3,57.5 232.3,57.6 232.2,57.6 C232.3,57.6 232.3,57.5 232.4,57.5 C232.7,57.3 232.9,57.1 233.2,56.9 C233.5,56.7 233.8,56.5 234,56.3 C234.2,56.1 234.5,55.9 234.7,55.7 C235,55.5 235.2,55.3 235.5,55.1 C235.7,54.9 235.9,54.7 236.2,54.5 C236.5,54.3 236.7,54.1 237,53.9 C237.1,53.8 237.2,53.8 237.3,53.7 C237.4,53.6 237.5,53.5 237.7,53.4 C237.8,53.3 238,53.2 238.1,53 L238.4,52.7 C238.6,52.5 238.8,52.3 239,52.2 L239.6,51.6 C239.8,51.4 240,51.3 240.1,51.1 L240.7,50.5 L241.2,50 C241.4,49.8 241.6,49.6 241.7,49.4 L242,49.1 L242.2,48.9 L242.4,48.7 L242.7,48.4 C242.7,48.3 242.8,48.3 242.8,48.2 L242.9,48.1 C242.9,48 243,48 243,47.9 C243.1,47.7 243.3,47.5 243.4,47.4 L243.4,47.4 C243.5,47.3 243.6,47.2 243.6,47.1 L243.7,47 C243.8,46.8 243.9,46.7 244.1,46.5 C244.2,46.4 244.3,46.3 244.3,46.2 C244.3,46.2 244.3,46.1 244.4,46.1 L244.5,46 L244.4,46.1 C244.5,45.9 244.6,45.8 244.7,45.6 L244.7,45.6 C244.7,45.6 244.7,45.6 244.7,45.5 C244.8,45.4 244.8,45.3 244.9,45.2 L244.9,45.2 C245,45 245.1,44.9 245.2,44.7 C245.3,44.6 245.4,44.4 245.4,44.3 C245.3,44.4 245.3,44.6 245.2,44.7 C245.4,44.4 245.5,44 245.7,43.7 C245.6,43.8 245.6,44 245.5,44.2 C245.6,44 245.6,43.9 245.7,43.7 C245.7,43.6 245.8,43.5 245.8,43.3 C245.9,43.1 245.9,42.9 246,42.7 C246,42.6 246.1,42.5 246.1,42.4 L246.1,42.4 C246.2,42.1 246.2,41.9 246.3,41.6 L246.3,41.6 C250,43.4 253.5,45.2 256.7,46.8 C260.1,48.5 263.3,50 265.9,51.3 C268.6,52.6 270.8,53.7 272.4,54.4 C274,55.1 274.9,55.6 275,55.6 L278.7,52.7 C278.9,52.6 277.7,52.1 275.7,51.2 L275.7,51.2 Z M162.9,90.7 C163.3,90 163.7,89.4 164.2,88.8 C163.7,89.4 163.2,90 162.9,90.7 L162.9,90.7 Z M175.2,6.5 C177.5,7.7 180.3,9.1 183.4,10.7 C180.4,9.2 177.6,7.7 175.2,6.5 L175.2,6.5 Z M166.9,85.6 C166.4,86 166,86.5 165.5,87 C166,86.6 166.4,86.1 166.9,85.6 L166.9,85.6 Z M164.1,88.8 C164.5,88.2 165,87.6 165.5,87.1 C165,87.6 164.6,88.2 164.1,88.8 L164.1,88.8 Z M165.1,102.3 C164.3,101.9 163.4,101.4 162.4,100.9 C163.4,101.4 164.3,101.9 165.1,102.3 L165.1,102.3 Z M123.2,192.1 L123.2,191.9 L123.2,191.9 C123.2,192 123.2,192.1 123.1,192.2 C123.2,192.2 123.2,192.2 123.2,192.1 L123.2,192.1 Z M184.9,64.8 C186.3,64.8 187.5,64.9 188.6,65.1 C187.6,65 186.3,64.8 184.9,64.8 L184.9,64.8 Z M178.9,65.2 C179.3,65.1 179.8,65.1 180.2,65 L180.2,65 C179.8,65.1 179.4,65.2 178.9,65.2 L178.9,65.2 Z M123.3,192 C123.3,191.9 123.3,191.9 123.3,192 L123.3,192 L123.3,192 Z M184.9,64.8 C183.5,64.8 181.9,64.8 180.2,65 C182,64.9 183.5,64.8 184.9,64.8 L184.9,64.8 Z M163.9,85.8 C164,85.8 164.1,85.7 164.1,85.7 C163.9,85.8 163.8,85.8 163.7,85.8 L163.9,85.8 L163.9,85.8 Z M190.4,65.5 C191,65.6 191.5,65.8 191.9,65.9 C191.5,65.7 191,65.6 190.4,65.5 L190.4,65.5 Z M188.6,65.1 C189.2,65.2 189.8,65.3 190.4,65.4 C189.9,65.3 189.3,65.2 188.6,65.1 L188.6,65.1 Z M163.8,85.8 C163.7,85.8 163.6,85.9 163.6,85.9 C163.6,85.9 163.7,85.9 163.8,85.8 L163.8,85.8 Z M163.8,85.8" class="road" fill="#CCCCCC"/>
            </g>
            <g class="outline">
                <path d="M29.3,180.1 C29.1,180.1 28.9,180 28.8,179.9 L26.6,178 L26.4,177.8 L20.2,167.1 C20,166.8 20.1,166.3 20.4,166.1 L42.7,148.2 C43,147.9 43.5,148 43.8,148.3 L45.6,150.4 L53.2,161 C53.4,161.3 53.4,161.8 53.1,162.1 L40,173 C39.7,173.3 39.2,173.2 38.9,173 L38.6,172.7 L29.8,180 C29.7,180 29.5,180.1 29.3,180.1 L29.3,180.1 Z M27.8,176.9 L29.3,178.2 L38.1,170.9 C38.4,170.6 38.9,170.7 39.2,170.9 L39.5,171.2 L51.5,161.2 L44.4,151.3 L43.1,149.9 L21.9,166.9 L27.8,176.9 L27.8,176.9 Z M122.4,173.2 L122.4,173.2 C122.2,173.2 122,173.1 121.8,172.9 L109.6,160 C109.6,160 109.5,159.9 109.5,159.8 L108.3,157.7 C108.1,157.4 108.2,157 108.5,156.7 L145.5,123 L134.7,114.6 C134.6,114.5 134.5,114.4 134.4,114.2 L133.6,111.8 C133.5,111.5 133.6,111.2 133.8,110.9 L142.4,103.4 C142.7,103.2 143.1,103.1 143.4,103.4 L147,106 L147.6,105.4 C147.9,105.2 148.3,105.1 148.6,105.3 L151.1,107.1 C151.3,107.2 151.4,107.4 151.4,107.6 L151.9,109.5 L154.7,111.5 C154.9,111.6 155,111.8 155,112 L155.5,114.4 C155.6,114.7 155.5,115 155.3,115.2 L151.2,118.9 L164.3,128.9 C164.5,129 164.6,129.2 164.6,129.4 L165.1,131.8 C165.2,132.1 165.1,132.3 164.9,132.5 L123,173 C122.8,173.2 122.6,173.2 122.4,173.2 L122.4,173.2 Z M110.8,159 L122.4,171.2 L163.5,131.8 L163.2,130.1 L150.6,120.5 L110.1,157.5 L110.8,159 L110.8,159 Z M135.9,113.5 L146.2,121.6 L154,114.5 L153.6,112.8 L150.8,110.8 C150.6,110.7 150.5,110.5 150.5,110.3 L150,108.4 L148.3,107.2 L147.7,107.8 C147.4,108.1 147,108.1 146.7,107.8 L143.1,105.2 L135.4,111.9 L135.9,113.5 L135.9,113.5 Z M19.3,138.2 C19.1,138.2 18.9,138.1 18.7,138 L16.7,136 C16.6,135.9 16.5,135.7 16.5,135.5 L15.3,124.2 C15.3,123.9 15.4,123.5 15.8,123.4 L15.9,123.4 L30.6,116.5 C30.9,116.3 31.3,116.4 31.6,116.7 L33.3,118.8 C33.4,118.9 33.4,119 33.5,119.2 L33.9,121.4 L34.4,122 C34.5,122.1 34.6,122.2 34.6,122.4 L35.1,125.5 C35.2,125.8 35,126.1 34.7,126.3 L35.4,130.3 C35.5,130.7 35.3,131 35,131.2 L33,132.2 L33,132.4 C33.1,132.8 32.9,133.1 32.6,133.3 L32.5,133.3 L22.5,138.1 C22.2,138.3 21.8,138.2 21.6,137.9 L21.3,137.6 L19.7,138.4 C19.6,138.2 19.5,138.2 19.3,138.2 L19.3,138.2 Z M18.1,135 L19.5,136.4 L21.1,135.6 C21.4,135.5 21.8,135.5 22,135.8 L22.3,136.1 L31.3,131.8 L31.3,131.6 C31.2,131.2 31.4,130.9 31.8,130.7 L33.8,129.8 L33.1,125.8 C33,125.5 33.2,125.2 33.5,125 L33.1,122.8 L32.6,122.2 C32.5,122.1 32.4,122 32.4,121.8 L32,119.6 L30.8,118.1 L17,124.6 L18.1,135 L18.1,135 Z M54.6,117.4 C54.4,117.4 54.2,117.3 54,117.1 L34.7,95.6 L33.1,93.4 C33,93.2 32.9,93 33,92.8 C33,92.6 33.2,92.4 33.3,92.3 L36.7,89.9 L35.9,89 L35.8,88.9 L34.3,86.7 C34,86.3 34.1,85.8 34.5,85.6 L40.5,81.5 C40.8,81.3 41.3,81.3 41.5,81.6 L44.5,84.6 L62.2,72.1 C62.5,71.9 62.9,71.9 63.2,72.1 L66.4,74.8 L74.7,68.9 L74.2,68.5 C74.1,68.4 74,68.3 74,68.2 L72.9,65.9 C72.7,65.5 72.8,65.1 73.2,64.9 L119.8,32.2 C120,32 120.4,32 120.6,32.1 L127.5,35.4 L144.6,23.1 L144.3,21.5 C144.2,21.2 144.4,20.9 144.6,20.7 L150.5,16.5 C150.7,16.3 151,16.3 151.3,16.4 L153,17.1 L159.9,12.2 C160.1,12 160.4,12 160.6,12.1 L187.8,21.7 C188.1,21.8 188.3,22.1 188.3,22.4 L188.4,25 C188.4,25.3 188.3,25.5 188.1,25.7 L154,52.1 C153.8,52.3 153.4,52.3 153.1,52.2 L150.8,51 L122.7,72.7 C122.4,72.9 122.1,72.9 121.8,72.7 L119.9,71.5 L88.1,95.9 C87.8,96.1 87.4,96.1 87.1,95.9 L85.4,94.5 L79.9,98.7 L80.8,100.4 C81,100.7 80.9,101.2 80.6,101.4 L64.8,113.5 C64.5,113.7 64,113.7 63.7,113.4 L62.2,111.9 L55,117.3 C54.9,117.4 54.8,117.4 54.6,117.4 L54.6,117.4 Z M34.9,93.1 L36,94.6 L54.8,115.5 L61.9,110.1 C62.2,109.9 62.7,109.9 63,110.2 L64.5,111.7 L79.2,100.4 L78.3,98.7 C78.1,98.3 78.2,97.9 78.5,97.7 L85.1,92.7 C85.4,92.5 85.8,92.5 86.1,92.7 L87.8,94.1 L119.4,69.9 C119.7,69.7 120,69.7 120.3,69.9 L122.2,71.1 L150.3,49.4 C150.5,49.2 150.9,49.2 151.2,49.3 L153.5,50.5 L186.8,24.5 L186.7,22.9 L160.4,13.7 L153.5,18.6 C153.3,18.8 153,18.8 152.7,18.7 L151,18 L145.9,21.7 L146.2,23.3 C146.3,23.6 146.1,23.9 145.9,24.1 L127.9,37 C127.7,37.2 127.3,37.2 127.1,37.1 L120.2,33.8 L74.5,65.8 L75.2,67.3 L76.4,68.2 C76.6,68.4 76.7,68.6 76.7,68.9 C76.7,69.2 76.6,69.4 76.4,69.5 L66.7,76.4 C66.4,76.6 66,76.6 65.7,76.4 L62.5,73.7 L44.8,86.2 C44.5,86.4 44,86.4 43.8,86.1 L40.8,83.1 L36,86.4 L37,87.8 L38.4,89.3 C38.6,89.5 38.6,89.7 38.6,89.9 C38.6,90.1 38.5,90.3 38.3,90.5 L34.9,93.1 L34.9,93.1 Z M212.1,59.8 C212,59.8 211.9,59.8 211.8,59.7 L192.5,51.3 C192.2,51.2 192,50.9 192,50.6 L191.9,47.9 C191.9,47.7 192,47.4 192.2,47.3 L193,46.6 L190.4,45.5 L189.1,46.6 C188.9,46.8 188.5,46.8 188.3,46.7 L184.8,45.2 C184.5,45.1 184.3,44.8 184.3,44.5 L184.2,42.8 L180.4,41.2 C180.1,41.1 179.9,40.8 179.9,40.5 L179.7,37.9 C179.7,37.6 179.8,37.4 180,37.2 L195.9,24.5 C196.1,24.3 196.4,24.3 196.7,24.4 L212.1,29.9 C212.4,30 212.7,30.3 212.6,30.7 L212.5,33.4 C212.5,33.6 212.4,33.8 212.2,34 L208.8,36.9 L226.1,43.4 C226.4,43.5 226.7,43.9 226.6,44.2 L226.4,47 C226.4,47.2 226.3,47.4 226.1,47.5 L212.6,59.6 C212.5,59.7 212.3,59.8 212.1,59.8 L212.1,59.8 Z M193.6,50 L211.9,58 L224.8,46.5 L225,44.6 L207,37.8 C206.7,37.7 206.5,37.5 206.5,37.2 C206.5,36.9 206.6,36.6 206.8,36.4 L211,32.9 L211.1,31.1 L196.6,26 L181.4,38.2 L181.5,39.9 L185.3,41.5 C185.6,41.6 185.8,41.9 185.8,42.2 L185.9,43.9 L188.5,45 L189.8,43.9 C190,43.7 190.4,43.7 190.6,43.8 L194.9,45.6 C195.2,45.7 195.3,45.9 195.4,46.2 C195.4,46.5 195.3,46.8 195.1,46.9 L193.6,48.2 L193.6,50 L193.6,50 Z M193.6,50" class="outline"/>
            </g>
            <g class="label">
                <path d="M84.9,11.6 C84.1,9.9 83.5,8.8 82.7,7.9 C82.2,7.4 81.9,7.1 81.5,6.9 C81.8,6.5 82.3,6 83,5 L84.8,2.3 C84.9,2.2 84.9,2 84.9,1.9 C84.9,1.6 84.6,1.3 84.3,1.3 C84.1,1.3 83.9,1.4 83.7,1.7 L81.8,4.5 C80.9,5.8 80.2,6.3 79.2,6.3 L78.8,6.3 L78.8,2 C78.8,1.6 78.5,1.4 78.2,1.4 C77.8,1.4 77.6,1.7 77.6,2 L77.6,12.1 C77.6,12.5 77.9,12.7 78.2,12.7 C78.5,12.7 78.8,12.4 78.8,12.1 L78.8,7.6 L79.6,7.6 C80.6,7.6 81.1,8 81.7,8.6 C82.3,9.2 82.9,10.3 83.9,12.3 C84,12.6 84.2,12.7 84.5,12.7 C84.8,12.7 85.1,12.4 85.1,12 C85,11.9 85,11.7 84.9,11.6 L84.9,11.6 Z M25.4,2 C25.4,1.7 25.2,1.4 24.8,1.4 L18,1.4 C17.6,1.4 17.4,1.7 17.4,2 C17.4,2.3 17.6,2.6 18,2.6 L20.8,2.6 L20.8,12 C20.8,12.4 21.1,12.6 21.4,12.6 C21.7,12.6 22,12.4 22,12 L22,2.6 L24.9,2.6 C25.2,2.6 25.4,2.3 25.4,2 L25.4,2 Z M16.1,11.4 L11.3,11.4 L11.3,7.5 L15.2,7.5 C15.6,7.5 15.8,7.2 15.8,6.9 C15.8,6.6 15.6,6.3 15.2,6.3 L11.3,6.3 L11.3,2.6 L16,2.6 C16.4,2.6 16.6,2.3 16.6,2 C16.6,1.7 16.4,1.4 16,1.4 L11.2,1.4 C10.5,1.4 10.1,1.8 10.1,2.4 L10.1,11.7 C10.1,12.3 10.5,12.7 11.2,12.7 L16.1,12.7 C16.5,12.7 16.7,12.4 16.7,12.1 C16.7,11.7 16.5,11.4 16.1,11.4 L16.1,11.4 Z M6.7,8.5 C6.4,8.1 6.1,7.8 5.7,7.5 C7.2,7 8.1,6 8.1,4.5 C8.1,2.6 6.8,1.3 3.9,1.3 C2.8,1.3 2,1.4 1.5,1.6 C1.1,1.7 1,1.9 1,2.3 L1,12 C1,12.4 1.3,12.6 1.6,12.6 C2,12.6 2.2,12.4 2.2,12 L2.2,7.8 L3.4,7.8 C4.6,7.8 5,8.3 5.6,9.2 C6,9.8 6.4,10.8 6.9,12.2 C7,12.5 7.2,12.6 7.5,12.6 C7.8,12.6 8.1,12.4 8.1,12 C8.1,11.9 8.1,11.7 8,11.6 C7.7,10.5 7.2,9.3 6.7,8.5 L6.7,8.5 Z M3.7,6.6 L2.2,6.6 L2.2,2.6 C2.6,2.5 3.1,2.5 3.8,2.5 C6.1,2.5 6.8,3.4 6.8,4.6 C6.8,6.2 5.3,6.7 3.7,6.6 L3.7,6.6 Z M36.2,1.3 C35.8,1.3 35.6,1.6 35.6,2 L35.6,12 C35.6,12.4 35.9,12.6 36.2,12.6 C36.6,12.6 36.8,12.4 36.8,12 L36.8,2 C36.8,1.6 36.6,1.3 36.2,1.3 L36.2,1.3 Z M74.1,8.5 C73.8,8.1 73.5,7.8 73.1,7.5 C74.5,7 75.5,6 75.5,4.5 C75.5,2.6 74.2,1.3 71.3,1.3 C70.2,1.3 69.4,1.4 68.9,1.6 C68.5,1.7 68.4,2 68.4,2.4 L68.4,12 C68.4,12.4 68.7,12.6 69,12.6 C69.4,12.6 69.6,12.4 69.6,12 L69.6,7.8 L70.8,7.8 C72,7.8 72.4,8.3 73,9.2 C73.4,9.8 73.8,10.8 74.3,12.2 C74.4,12.5 74.6,12.6 74.9,12.6 C75.2,12.6 75.5,12.4 75.5,12 C75.5,11.9 75.5,11.7 75.4,11.6 C75.1,10.5 74.6,9.3 74.1,8.5 L74.1,8.5 Z M71,6.6 L69.6,6.6 L69.6,2.6 C70,2.5 70.5,2.5 71.2,2.5 C73.5,2.5 74.2,3.4 74.2,4.6 C74.2,6.2 72.6,6.7 71,6.6 L71,6.6 Z M53.1,1.3 C52.1,1.3 51.3,1.4 50.8,1.6 C50.4,1.7 50.3,2 50.3,2.4 L50.3,12 C50.3,12.4 50.6,12.6 50.9,12.6 C51.3,12.6 51.5,12.4 51.5,12 L51.5,8.4 L53,8.4 C55.9,8.4 57.4,7 57.4,4.7 C57.4,2.8 56.1,1.3 53.1,1.3 L53.1,1.3 Z M53,7.3 L51.6,7.3 L51.6,2.6 C52,2.5 52.6,2.5 53.1,2.5 C55.4,2.5 56.2,3.6 56.2,4.9 C56.2,6.1 55.4,7.3 53,7.3 L53,7.3 Z M63.8,2.8 C63.2,1.6 62.7,1.2 62.1,1.2 C61.5,1.2 61,1.6 60.4,2.8 C59.5,4.6 58.8,6.9 57.6,11.5 C57.5,11.7 57.5,11.9 57.5,12 C57.5,12.4 57.8,12.6 58.1,12.6 C58.4,12.6 58.6,12.4 58.7,12.1 C59,10.7 59.3,9.5 59.6,8.4 L64.5,8.4 C64.8,9.5 65.1,10.7 65.4,12.1 C65.5,12.4 65.7,12.6 66,12.6 C66.4,12.6 66.6,12.4 66.6,12 C66.6,11.9 66.6,11.7 66.5,11.5 C65.4,6.9 64.7,4.6 63.8,2.8 L63.8,2.8 Z M60,7.4 C60.7,5 61.4,3.4 61.9,2.6 C61.9,2.5 62,2.5 62.1,2.5 C62.2,2.5 62.3,2.6 62.3,2.6 C62.8,3.4 63.5,4.9 64.2,7.4 L60,7.4 L60,7.4 Z M44.7,11.4 L40.4,11.4 L40.4,2 C40.4,1.6 40.1,1.3 39.8,1.3 C39.4,1.3 39.2,1.6 39.2,2 L39.2,11.6 C39.2,12.2 39.6,12.6 40.3,12.6 L44.8,12.6 C45.2,12.6 45.5,12.3 45.5,12 C45.4,11.7 45.1,11.4 44.7,11.4 L44.7,11.4 Z M31,2.8 C30.4,1.6 29.9,1.2 29.3,1.2 C28.7,1.2 28.2,1.6 27.6,2.8 C26.7,4.6 26,6.9 24.8,11.5 C24.7,11.7 24.7,11.9 24.7,12 C24.7,12.4 25,12.6 25.3,12.6 C25.6,12.6 25.8,12.4 25.9,12.1 C26.2,10.7 26.5,9.5 26.8,8.4 L31.7,8.4 C32,9.5 32.3,10.7 32.6,12.1 C32.7,12.4 32.9,12.6 33.2,12.6 C33.6,12.6 33.8,12.4 33.8,12 C33.8,11.9 33.8,11.7 33.7,11.5 C32.7,6.9 31.9,4.6 31,2.8 L31,2.8 Z M27.2,7.4 C27.9,5 28.6,3.4 29.1,2.6 C29.1,2.5 29.2,2.5 29.3,2.5 C29.4,2.5 29.5,2.6 29.5,2.6 C30,3.4 30.7,4.9 31.4,7.4 L27.2,7.4 L27.2,7.4 Z M27.2,7.4" class="Shape"/>
            </g>
            <g class="background">
                <path d="M207.3,37.1 L211.8,33.3 L211.9,30.6 L211.6,30.8 L211.9,30.6 L196.5,25.2 L180.6,37.9 L180.8,38 L180.6,37.9 L180.8,40.5 L185,42.3 L185.1,44.5 L188.6,46 L190.3,44.6 L194.6,46.4 L192.8,47.9 L193,48 L192.7,47.9 L192.8,50.6 L212.1,59 L225.6,46.9 L225.8,44.1 L207.3,37.1 L207.3,37.1 Z M180.8,37.8 L196.4,25.2 L211.5,30.6 L196.4,25.2 L180.8,37.8 L180.8,37.8 Z M186.7,40.4 L186.7,40.4 L182.9,38.8 L186.7,40.4 L186.7,40.4 Z M188.5,43.3 L190.2,41.9 L188.5,43.3 L188.5,43.3 Z M190.2,41.7 L188.5,43.1 L187.2,42.5 L187.1,40.3 L186.9,40.5 L187.1,40.3 L183.2,38.7 L196.6,27.9 L209.4,32.5 L195.6,44 L190.2,41.7 L190.2,41.7 Z M191.6,42.5 L195.6,44.2 L209.4,32.7 L195.6,44.2 L191.6,42.5 L191.6,42.5 Z M193,47.9 L193,47.9 L194.7,46.4 L193,47.9 L193,47.9 Z M212.2,56.2 L195.1,48.9 L212.2,56.2 L212.2,56.2 Z M212.2,56.1 L195.2,48.8 L206.2,39.5 L223.3,46.1 L212.2,56.1 L212.2,56.1 Z M134.4,111.6 L135.2,114 L146.2,122.6 L154.8,114.7 L154.3,112.3 L151.3,110.1 L150.8,107.9 L148.3,106.1 L147.2,107.1 L143.1,104.1 L134.4,111.6 L134.4,111.6 Z M149.4,109.2 L149.9,111.4 L152.7,113.5 L145.5,120 L136.5,113 L143.6,106.8 L147.7,109.8 L148.8,108.8 L149.4,109.2 L149.4,109.2 Z M148.2,106.4 L148.2,106.4 L147.1,107.4 L148.2,106.4 L148.2,106.4 Z M143,104.4 L145.4,106.1 L143,104.4 L134.7,111.6 L143,104.4 L143,104.4 Z M119.8,70.6 L122.2,72.2 L132,64.6 L141.5,57.2 L150.6,50.1 L153.4,51.5 L187.6,25 L187.5,22.4 L160.3,12.8 L153,18 L150.9,17.2 L145,21.4 L145.4,23.5 L127.5,36.4 L120.2,32.8 L111.3,39 L102.4,45.2 L102.3,45.3 L93.1,51.7 L83.7,58.3 L83.6,58.4 L73.6,65.4 L74.7,67.7 L76.1,68.8 L66.4,75.7 L62.7,72.6 L44.4,85.5 L40.9,82 L34.9,86.1 L36.4,88.3 L37.9,89.9 L33.7,92.8 L35.2,95 L54.5,116.6 L62.2,110.7 L64.2,112.8 L80,100.7 L78.8,98.4 L85.4,93.4 L87.6,95.3 L99.1,86.5 L109.7,78.4 L119.8,70.6 L119.8,70.6 Z M147.7,24.6 L147.3,22.5 L151.2,19.7 L153.3,20.5 L160.5,15.3 L184.9,24.1 L153,48.8 L150.3,47.5 L129.8,37.5 L147.7,24.6 L147.7,24.6 Z M120.8,35.3 L148.3,49 L140.9,54.7 L113.8,40.3 L120.8,35.3 L120.8,35.3 Z M112.1,41.4 L139.1,56 L131.3,62 L104.7,46.6 L112.1,41.4 L112.1,41.4 Z M103.2,47.7 L129.7,63.2 L121.5,69.5 L119.2,68 L95.5,53.1 L103.2,47.7 L103.2,47.7 Z M62.6,72.8 L66.5,76.1 L62.6,72.8 L62.6,72.8 Z M35.1,86.2 L40.8,82.3 L44.3,85.8 L40.8,82.3 L35.1,86.2 L35.1,86.2 Z M33.9,92.8 L33.9,92.8 L37.9,90 L33.9,92.8 L33.9,92.8 Z M53.1,114.4 L53.1,114.4 L60.9,108.5 L53.1,114.4 L53.1,114.4 Z M62.9,110.3 L60.9,108.3 L53.1,114.2 L35.7,94.8 L39.9,91.8 L38.4,89.6 L38.2,89.7 L38.4,89.6 L36.9,88 L42.2,84.3 L45.7,87.8 L63.8,75 L83.4,91.6 L76.7,96.6 L77.2,97 L76.7,96.6 L77.9,98.9 L62.9,110.3 L62.9,110.3 Z M77,96.6 L83.5,91.7 L77,96.6 L77,96.6 Z M84.2,91 L84.2,91 L68.3,77.6 L84.2,91 L84.2,91 Z M86.5,92.7 L84.4,90.9 L84.3,91 L84.4,90.9 L68.4,77.4 L78.2,70.4 L96.9,84.8 L86.5,92.7 L86.5,92.7 Z M98,84 L77.1,68.1 L75.8,67.1 L84.6,60.9 L107.4,76.9 L98,84 L98,84 Z M85.9,60 L94.1,54.2 L117.5,69.2 L108.8,75.8 L85.9,60 L85.9,60 Z M22.1,137.1 L32.1,132.3 L32.2,132.3 L32.1,131.5 L34.6,130.3 L33.8,125.7 L34.3,125.5 L33.8,122.4 L33.2,121.7 L32.8,119.3 L31.1,117.2 L31.2,117.7 L31.1,117.2 L16.2,124 L16.1,124 L17.3,135.3 L19.3,137.3 L21.4,136.3 L22.1,137.1 L22.1,137.1 Z M32.9,128.1 L32.9,128.1 L32.1,123.5 L32.3,123.4 L32.1,123.5 L32.9,128.1 L32.9,128.1 Z M32.3,121.7 L32.6,123.3 L32.3,121.7 L32.3,121.7 Z M31.5,120 L31.6,120.5 L31.5,120 L31.5,120 Z M17.5,135.1 L16.3,124.1 L17.5,135.1 L17.5,135.1 Z M20.3,134.3 L20.3,134.3 L20.2,133.8 L19.2,134.3 L18.3,126.1 L31.3,120 L31.4,120.7 L32,121.4 L32.3,123.2 L31.8,123.4 L32.6,128 L30,129.2 L30.1,130 L20.8,134.4 L20.1,133.7 L20.3,134.3 L20.3,134.3 Z M150.5,119.6 L137.2,131.7 L123.4,144.3 L109,157.4 L110.2,159.5 L122.4,172.4 L137.2,158.2 L151.1,144.8 L164.3,132.1 L163.8,129.7 L150.5,119.6 L150.5,119.6 Z M109.3,157.4 L109.3,157.4 L123.5,144.4 L109.3,157.4 L109.3,157.4 Z M121.4,170 L111,159.1 L124.6,146.6 L135.3,156.7 L121.4,170 L121.4,170 Z M129.6,162.5 L135.5,156.9 L129.6,162.5 L129.6,162.5 Z M136.1,156.2 L136.1,156.2 L136.3,156 L136.1,156.2 L136.1,156.2 Z M136.2,155.9 L125.5,145.8 L138.2,134.1 L149.2,143.5 L136.2,155.9 L136.2,155.9 Z M150.3,142.4 L139.3,133.1 L151.1,122.2 L162.4,130.9 L150.3,142.4 L150.3,142.4 Z M43.3,148.8 L21,166.7 L27.2,177.4 L29.4,179.3 L38.7,171.6 L39.5,172.4 L52.7,161.4 L45.2,150.9 L43.3,148.8 L43.3,148.8 Z M37.7,169.9 L36.9,169.1 L28,176.5 L23.4,168.6 L44.8,151.3 L50.5,159.3 L37.7,169.9 L37.7,169.9 Z M37.7,169.9" class="wall"/>
            </g>
            <g class="ceilings">
                <path class="unit" d="M30.8,117.3 L31.4,120.7 L31.9,120.5 L32.4,123.3 L31.9,123.5 L32.7,128.1 L30.1,129.3 L30.2,130.1 L20.3,134.8 L20.2,133.9 L17.5,135.1 L16.4,124.1 L30.8,117.3 Z M30.8,117.3" id="3001"/>
                <path class="unit" d="M187.2,22.4 L153,48.8 L150.3,47.5 L127.5,36.4 L147.3,22.2 L145.2,21.4 L150.9,17.3 L153,18.1 L160.2,12.9 L187.2,22.4 Z M187.2,22.4" id="3002"/>
                <path class="unit" d="M150.1,47.6 L140.9,54.6 L111.4,39 L120.1,32.9 L150.1,47.6 Z M150.1,47.6" id="3003"/>
                <path class="unit" d="M140.8,54.7 L131.3,62 L102.4,45.3 L111.3,39.1 L140.8,54.7 Z M140.8,54.7" id="3004"/>
                <path class="unit" d="M131.1,62.1 L121.5,69.5 L119.1,68.1 L93.3,51.8 L102.3,45.4 L131.1,62.1 Z M131.1,62.1" id="3005"/>
                <path class="unit" d="M118.9,68.1 L108.8,75.8 L83.7,58.5 L93.2,51.8 L118.9,68.1 Z M118.9,68.1" id="3006"/>
                <path class="unit" d="M108.7,75.9 L98,84 L77.1,68.1 L73.7,65.5 L83.6,58.6 L108.7,75.9 Z M108.7,75.9" id="3007"/>
                <path class="unit" d="M97.9,84.1 L86.5,92.7 L84.4,90.9 L66.4,75.8 L77.1,68.2 L97.9,84.1 Z M97.9,84.1" id="3008"/>
                <path class="unit" d="M84.2,91 L76.7,96.6 L78.7,98.4 L62.9,110.3 L61,108.3 L53.1,114.2 L33.9,92.8 L38.4,89.7 L35.1,86.2 L40.8,82.2 L44.3,85.7 L62.6,72.8 L84.2,91 Z M84.2,91" id="3009"/>
                <path class="unit" d="M211.6,30.6 L195.6,44 L190.2,41.7 L188.5,43.2 L185.2,41.8 L187,40.4 L180.8,37.8 L196.4,25.3 L211.6,30.6 Z M211.6,30.6" id="3010"/>
                <path class="unit" d="M50.5,159.4 L37.5,170.1 L36.9,169.1 L27.3,177.1 L21.2,166.7 L43.2,149.1 L50.5,159.4 Z M50.5,159.4" id="3011"/>
                <path class="unit" d="M225.6,44.1 L212.2,56.1 L193,47.9 L206.2,36.8 L225.6,44.1 Z M225.6,44.1" id="3012"/>
                <path class="unit" d="M150.5,108 L149.3,109 L154,112.4 L145.6,120 L134.7,111.6 L143,104.4 L147.1,107.4 L148.2,106.4 L150.5,108 Z M150.5,108" id="3013"/>
                <path class="unit" d="M163.6,129.7 L150.3,142.4 L137.6,131.6 L150.5,119.8 L163.6,129.7 Z M163.6,129.7" id="3014"/>
                <path class="unit" d="M150.2,142.5 L136.2,155.9 L123.8,144.2 L137.4,131.8 L150.2,142.5 Z M150.2,142.5" id="3015"/>
                <path class="unit" d="M136.1,156 L121.4,170 L109.3,157.4 L123.6,144.4 L136.1,156 Z M136.1,156" id="3016"/>
        </g>
    </g>
</svg>