<?xml version="1.0" encoding="utf-8"?>
<!DOCTYPE svg PUBLIC "-//W3C//DTD SVG 1.1//EN" "http://www.w3.org/Graphics/SVG/1.1/DTD/svg11.dtd">
<svg version="1.1" xmlns="http://www.w3.org/2000/svg" xmlns:xlink="http://www.w3.org/1999/xlink" xml:space="preserve">
<g class="level" id="level1">
            <g class="outline">
                <path d="M327.4,4.4 L288.6,32 L288.6,37.2 L312.1,43.1 L297.6,53.5 L297.6,54.2 L295.3,53.6 L295.3,49.6 L284.7,47 L284.5,47.1 L279.3,45.8 L279.3,44.7 L276,44 L276,43.6 L270.3,42.1 L267.2,44.3 L267.2,41.3 L256.5,38.6 L252.9,41.1 L250.5,40.5 L250,40.9 L214.8,32.1 L211.4,34.5 L211.4,31.2 L203.8,29.3 L204.2,28.9 L204.1,25.6 L205.7,24 L196.7,21.7 L191.9,26.2 L180.5,23.4 L180.5,22.6 L174,21 L174,20.6 L173.1,20.4 L190.2,8.2 L190.2,3 L182,1 L174.5,6.4 L174.5,9.2 L173.1,10.2 L168.5,10.8 L160.5,16.5 L160.5,16 L143,11.6 L142,9.8 L137.8,10.1 L137.2,10.2 L136.6,10.8 L136.5,11 C136.4,11.1 136.4,11.2 136.3,11.4 L132.5,11.4 L132.2,11.6 C131.1,12.2 130,12.9 129,13.6 C126.8,15.3 125.7,16.8 125.7,18.3 L125.7,18.9 L125.8,19.4 L126,20 L126.1,20.3 L126.5,20.9 L126.6,21 L126.8,21.3 L127.2,21.6 L127.3,21.7 L128.2,22.2 L130.3,23 L132,21.6 L132.8,21.7 L135,21.8 L135.9,21.7 L143.8,28.4 C143.4,28.7 143.1,29 142.9,29.3 L142.8,29.4 L142.8,29.5 L118.7,32 L114.5,35 L114.4,40.2 L123.4,42.4 L125.4,41 L135.5,43.5 L135.5,44.6 L130.3,43.3 L125.6,46.7 L120.6,45.4 L107.8,54.5 L107.8,59.7 L108.4,59.9 L89.2,73.7 L89.1,78.9 L90.1,79.2 L88.1,80.6 L80,77.7 L78.2,79.1 L78.1,79.1 L75.1,81.3 L73.2,81.6 L65.4,87.2 L65.4,89.4 L62,83.7 L50,84.9 L47.7,81.3 L41.4,82 L41.4,85.7 L22.3,87.9 L20.1,84.5 L13.4,85.3 L13.4,88.7 L4,89.7 L4,93.6 L1.3,93.9 L1.2,98.9 L3.1,101.7 L8.3,101.1 L11.8,106.4 L9.6,106.6 L9.6,111.7 L11.4,114.5 L16.7,113.9 L17.9,115.8 L20.9,116.5 L20.9,121 L67.2,116.2 L79.6,119.3 L79.6,121.8 L84,122.9 L91.2,117.7 L96.8,119.1 L102.3,115.1 L135.7,123.4 L150.3,127 L152,126.9 L152,129.8 L163.6,132.7 L158.1,136.6 L158.1,137.6 L147.9,135 L144.9,137.2 L143.4,136.8 L129.7,146.6 L129.7,151.8 L131.8,152.3 L130.2,153.4 L130.2,156 L120.1,153.5 L105.3,164.1 L102.4,163.4 L100.2,164.9 L95.9,163.8 L92.4,166.3 L92.4,169 L94.1,169.4 L94.1,171.8 L94.4,171.9 L89.5,175.4 L89.4,180.6 L101.8,183.7 L101.8,186.4 L122.3,191.5 L122.9,191.1 C123.6,190.6 124.4,190 125.1,189.5 L127.9,190.2 L127.9,192.9 L148.4,198 L151.2,196 L159.6,198.1 L164.9,194.3 L168.2,195.1 L177,188.8 L177,185.6 L192.9,174.3 L192.9,171.2 L193.7,171.4 L221,151.9 L221,147 L220.1,146.8 L220.1,141.6 L219.1,141.3 L220.5,140.3 L226.1,141.7 L227.6,140.7 L239.3,143.6 L251.7,134.8 L267.9,138.8 L274.5,134.1 L274.5,133.5 L277,131.7 L285.1,133.7 L285.1,135 L298.2,138.3 L302.4,137.9 L303.7,137 L310,136.3 L311.4,136.6 L315,136.2 L321.5,131.5 L321.5,130 L327.5,125.7 L330,125.4 L335.9,121.2 L335.9,116.8 L334.7,114.9 L333,114.5 L332.3,113.3 L332.3,111.6 L331.1,109.7 L325.5,108.3 L325.5,107.9 L318,106 L316.4,107.1 L292.3,101.1 L292.3,101 L295.3,98.9 L298,97 L321.6,102.9 L324.9,100.5 L335.6,103.2 L352.8,90.9 L352.8,85.7 L346.7,84.2 L343.1,86.7 L338.8,85.6 L349.2,78.2 L349.3,73 L347.2,72.5 L352.6,68.7 L362.1,71.1 L365.2,68.8 L365.2,64.4 L362.9,60.7 L365.7,61.4 L374,60.5 L375.9,59.1 L414.7,31.4 L414.8,26.2 L327.4,4.4 L327.4,4.4 Z M200.7,110.1 L197.9,109.4 L192.9,113 L192.9,111.8 L164.3,104.7 L155.5,111 L155.5,108.7 L155.4,108.7 L155.4,108.5 L121.3,100 L123.1,98.7 L129.3,97.6 L129.8,98.4 L130.9,97.4 L132,97.4 L132,96.6 L134.9,94.5 L137.5,94.2 L137.5,98.2 L146.3,97.3 L146.3,95.8 L150.1,95.6 L151.2,95.9 L151.2,96.3 L172.2,101.5 L173.8,100.3 L178.5,101.5 L178.7,101.6 L183.8,102.9 L185.1,104.8 L192.9,106.7 L195.1,107.4 L195.1,107 L202.6,108.6 L200.7,110.1 L200.7,110.1 Z M274.3,72.9 L270.9,75.3 L252,70.6 L238.1,80.5 L238.1,85.7 L246.3,87.8 L246,88 L245.9,88.1 L245.1,88.7 L228.4,84.5 L234.2,80.4 L234.2,75.2 L223.7,72.6 L214,79.5 L208.6,78.2 L207.9,78.7 L205.1,78 L205.2,77.9 L205.2,72.7 L186.6,68 L185.7,68.7 L180.8,67.5 L180.8,65.5 L183.9,66.3 L204,52 L204,49.3 L212.6,51.5 L235.3,57.2 L277.7,67.6 L277.7,67.7 L280.7,68.4 L274.3,72.9 L274.3,72.9 Z M274.3,72.9" class="outline"/>
            </g>
            <g class="label">
                <path d="M24.8,27.6 C23.4,27.1 22.6,26.7 22.6,25.5 C22.6,24.4 23.5,23.8 24.6,23.8 C25.3,23.8 25.8,23.9 26.3,24.1 C26.5,24.1 26.6,24.2 26.8,24.2 C27.1,24.2 27.4,24 27.4,23.6 C27.4,23.4 27.3,23.2 26.9,23 C26.4,22.8 25.5,22.6 24.8,22.6 C22.6,22.6 21.3,23.9 21.3,25.6 C21.3,27.2 22.4,28 24,28.6 C26.1,29.4 26.7,30 26.7,31 C26.7,32.1 25.8,32.9 24.4,32.9 C23.5,32.9 22.7,32.6 22.2,32.2 C21.9,32 21.8,31.9 21.6,31.9 C21.3,31.9 21,32.1 21,32.4 C21,32.7 21.1,32.9 21.4,33 C22.1,33.5 23.2,34 24.4,34 C26.6,34 28,32.7 28,30.9 C27.9,29.3 26.7,28.4 24.8,27.6 L24.8,27.6 L24.8,27.6 Z M15.6,22.7 C14.6,22.7 13.8,22.8 13.3,23 C12.9,23.1 12.8,23.4 12.8,23.8 L12.8,33.5 C12.8,33.9 13.1,34.1 13.4,34.1 C13.7,34.1 14,33.9 14,33.5 L14,29.9 L15.5,29.9 C18.4,29.9 19.9,28.5 19.9,26.2 C19.9,24.2 18.6,22.7 15.6,22.7 L15.6,22.7 L15.6,22.7 Z M15.4,28.7 L14,28.7 L14,24 C14.4,23.9 15,23.9 15.5,23.9 C17.8,23.9 18.6,25 18.6,26.3 C18.6,27.5 17.9,28.7 15.4,28.7 L15.4,28.7 L15.4,28.7 Z M9.9,22.7 C9.5,22.7 9.3,23 9.3,23.4 L9.3,32.2 C8.5,32.7 7.3,33 6.6,33 C4.7,33 3.6,32.1 3.6,30 L3.6,23.5 C3.6,23.1 3.3,22.8 3,22.8 C2.7,22.8 2.3,23 2.3,23.4 L2.3,30.2 C2.3,32.5 3.8,34.1 6.3,34.1 C8.1,34.1 9.1,33.6 10.1,33.1 C10.5,32.9 10.5,32.6 10.5,32.2 L10.5,23.3 C10.5,23 10.2,22.7 9.9,22.7 L9.9,22.7 L9.9,22.7 Z M42.2,24.2 C41.6,23 41.1,22.6 40.5,22.6 C39.9,22.6 39.4,23 38.8,24.2 C37.9,26 37.2,28.3 36,32.9 L36,33.4 C36,33.8 36.3,34 36.6,34 C36.9,34 37.1,33.8 37.2,33.5 C37.5,32.1 37.8,30.9 38.1,29.8 L43,29.8 C43.3,30.9 43.6,32.1 43.9,33.5 C44,33.8 44.2,34 44.5,34 C44.9,34 45.1,33.8 45.1,33.4 C45.1,33.3 45.1,33.1 45,32.9 C43.8,28.3 43.1,26 42.2,24.2 L42.2,24.2 L42.2,24.2 Z M38.4,28.8 C39.1,26.4 39.8,24.8 40.3,24 C40.3,23.9 40.4,23.9 40.5,23.9 C40.6,23.9 40.7,24 40.7,24 C41.2,24.8 41.9,26.3 42.6,28.8 L38.4,28.8 L38.4,28.8 Z M36.6,23.4 C36.6,23.1 36.4,22.8 36,22.8 L29.1,22.8 C28.7,22.8 28.5,23.1 28.5,23.4 C28.5,23.7 28.7,24 29.1,24 L31.9,24 L31.9,33.4 C31.9,33.8 32.2,34 32.5,34 C32.8,34 33.1,33.8 33.1,33.4 L33.1,24 L36,24 C36.4,24 36.6,23.7 36.6,23.4 L36.6,23.4 L36.6,23.4 Z M56,29.9 C55.7,29.5 55.4,29.2 55,28.9 C56.4,28.4 57.4,27.4 57.4,25.9 C57.4,24 56.1,22.7 53.2,22.7 C52.1,22.7 51.3,22.8 50.8,23 C50.4,23.1 50.3,23.4 50.3,23.8 L50.3,33.5 C50.3,33.9 50.6,34.1 50.9,34.1 C51.3,34.1 51.5,33.9 51.5,33.5 L51.5,29.3 L52.7,29.3 C53.9,29.3 54.3,29.8 54.9,30.7 C55.3,31.3 55.7,32.3 56.2,33.7 C56.3,34 56.5,34.1 56.8,34.1 C57.1,34.1 57.4,33.9 57.4,33.5 C57.4,33.4 57.4,33.2 57.3,33.1 C57,31.8 56.5,30.6 56,29.9 L56,29.9 L56,29.9 Z M53,28 L51.6,28 L51.6,24 C52,23.9 52.5,23.9 53.2,23.9 C55.5,23.9 56.2,24.8 56.2,26 C56.1,27.6 54.6,28.1 53,28 L53,28 L53,28 Z M62.6,27.6 C61.2,27.1 60.4,26.7 60.4,25.5 C60.4,24.4 61.3,23.8 62.4,23.8 C63.1,23.8 63.6,23.9 64.1,24.1 C64.3,24.1 64.4,24.2 64.6,24.2 C64.9,24.2 65.2,24 65.2,23.6 C65.2,23.4 65.1,23.2 64.7,23 C64.2,22.8 63.3,22.6 62.6,22.6 C60.4,22.6 59.1,23.9 59.1,25.6 C59.1,27.2 60.2,28 61.8,28.6 C63.9,29.4 64.5,30 64.5,31 C64.5,32.1 63.6,32.9 62.2,32.9 C61.3,32.9 60.5,32.6 60,32.2 C59.7,32 59.6,31.9 59.4,31.9 C59.1,31.9 58.8,32.1 58.8,32.4 C58.8,32.7 58.9,32.9 59.2,33 C59.9,33.5 61,34 62.2,34 C64.4,34 65.8,32.7 65.8,30.9 C65.7,29.3 64.5,28.4 62.6,27.6 L62.6,27.6 L62.6,27.6 Z M47.4,22.7 C47,22.7 46.8,23 46.8,23.4 L46.8,33.4 C46.8,33.8 47.1,34 47.4,34 C47.8,34 48,33.8 48,33.4 L48,23.4 C48,23 47.7,22.7 47.4,22.7 L47.4,22.7 L47.4,22.7 Z M47.4,22.7" class="Shape"/>
            </g>
            <g class="background">
                <path d="M329.3,44.6 L324.4,48.1 L319.6,48.6 L316.4,50.9 L316.4,51.5 L318.5,54.7 L308,62.2 L295.6,63.6 L274.8,58.4 L277.2,56.6 L277.2,56 L274.1,55.2 L274.3,54.9 L274.4,54.8 L274.8,53.9 L274.8,53.7 L274.9,53.4 L275,53 L275,52.1 C275,51.6 274.9,51.2 274.6,50.8 C274.1,50.1 273,49.3 271.2,48.4 C269.8,47.7 268.9,47.3 268.6,47.2 L263.9,46.5 L263.3,47.2 L256.5,46.7 L252.9,47 L250.5,47.3 L249.7,46.8 L248.9,47.1 L248.9,47.7 L249.6,48.1 L247.7,48.8 L241.6,47.3 L241,47.9 L233.3,46 L234.8,44.9 L234.8,44.3 L223.5,42 L222.4,41.5 L218.8,40.6 L211.6,41.3 L209,43.1 L194.4,39.4 L191,34.1 L182.3,31.9 L181.4,30.6 L183.2,29.3 L188.3,30.5 L191.6,28.2 L191.6,27.6 L176.5,23.8 L176.1,23 L174,23.1 L172.2,22.6 L172.8,22.2 L172.8,21.6 L169.2,20.7 L167.5,21.9 L158.9,19.7 C156.9,20.8 155.1,21.4 153.3,21.6 L150.4,21.9 L147.7,21.6 L146.3,21.2 C145.1,20.8 143.6,19.9 141.9,18.7 L139.2,16.6 L138.5,16 L137.9,15.2 L138,15 L139.4,13.2 L139.4,12.6 L133.2,12.6 C132.3,13.1 131.3,13.7 130.2,14.5 C128.5,15.8 127.6,17 127.6,17.9 L127.6,18.5 L127.6,18.8 L127.7,19.1 L127.8,19.2 L128,19.5 L128.2,19.7 L128.3,19.8 L128.6,20 L128.7,20.1 L129.2,20.4 L129.5,20.5 L129.6,20.5 L130.3,20.8 L131.9,19.6 L132.5,19.7 L133.3,19.8 L135.2,19.9 L136.6,19.8 L146.6,28.2 C145.5,28.8 144.7,29.4 144.3,29.9 C144,30.3 143.8,30.8 143.8,31.2 L143.8,32 C143.8,32.8 144.2,33.4 144.9,34.1 L145.2,34.1 L145.3,34.1 L152.2,33.4 L160,35.3 L164.9,31.8 L164.9,31.2 L158.6,29.7 L156,25.2 L159.7,22.6 L178,27 L173.8,30 L173.8,30.6 L175.3,33 L173.5,33.2 L168.2,37 L168.2,37.6 L169.4,39.4 L147,55.4 L141.2,56.2 L137.6,58.8 L137.6,59.4 L140.4,63.9 L144.1,64.8 L150.4,73.6 L148.8,74.7 L145.9,74 L140.6,77.8 L140.6,78.4 L140.5,78.5 L140.6,78.5 L141,78.9 L138,81.1 L109.9,84.1 L109.5,83.6 L108.5,84.1 L100.9,85 L97.5,87.5 L96.4,87.2 L93,89.6 L91.7,89.3 L88.3,91.7 L87.1,91.4 L83.7,93.8 L82.7,93.5 L75.7,98.5 L72.8,97.8 L70.7,94.2 L66,94.8 L66,95.5 L72.9,106.4 L73,106.4 L73.2,106.5 L73.4,106.6 L73.5,106.7 L74.3,107 L74.5,107 L75.1,107.2 L75.3,107.3 L77.9,108 L78,108 L78.1,108 L79.3,108.2 L79.4,108.2 L79.5,108.2 L80.6,108.4 L80.8,108.4 L82,108.6 L82.2,108.6 L83.1,108.7 L83.3,108.7 L83.8,108.7 L85.9,108.8 L86.5,108.8 L87.6,108.8 L87.8,108.8 L89.6,108.8 L89.8,108.8 L90.9,108.8 L91.4,108.8 L91.6,108.8 L93.1,108.7 L93.2,108.7 L93.3,108.7 L93.5,108.7 L93.7,108.7 L94.1,108.6 L92.4,110.9 L81.3,118.8 L81.3,119.5 L84.1,120.2 L95,112.4 L97.8,108.4 L99.2,107.7 L101.8,105.8 L118.9,109.8 L118.5,110.1 L118.5,110.8 L126.6,112.8 L127.3,112.3 L145.3,116.7 L147.4,117 L150.2,117.7 L149.1,118.9 L168.2,123.7 L174.4,123.1 L175.7,122.1 L197.8,127.6 L198.8,129 L190.2,135.2 L181.5,135.7 L178.5,137.8 L178.5,138.5 L180.4,139 L183.1,143.1 L155.7,162.6 L150.8,163.1 L128.1,157.5 L127.1,158.2 L118.9,156.2 L105.7,165.6 L102.2,164.7 L100,166.2 L95.6,165.1 L93.3,166.7 L93.3,167.3 L96.9,168.2 L95.1,169.5 L95.1,170.1 L101.3,171.6 L120.1,158.1 L166.4,169.6 L178.8,160.8 L178.8,160.2 L178.5,159.2 L195.8,146.9 L195.8,146.2 L195.7,145.8 L204.8,139.3 L204.8,139 L204.7,138.8 L240.5,113.3 L262.9,111 L264.1,111.3 L267.7,108.7 L266.1,108.4 L268.8,106.5 L268.8,105.9 L267.3,105.5 L267.1,105.3 L306.1,77.5 L310.2,76.8 L316.2,72.5 L316.2,71.9 L315.8,70.6 L332,59 L340.3,58.1 L345.1,54.7 L345.1,54.1 L343.9,52.7 L344.7,52.1 L350.6,53.6 L353.6,51.5 L353.6,50.9 L329.3,44.6 L329.3,44.6 Z M207,123.1 L204.8,123.3 L203.1,124.5 L200.6,124.8 L159,114.5 L160.4,112.9 L158.2,112.3 L154.6,113 L149.2,111.6 L144.3,112.1 L140.4,111.1 L139.9,109.8 L140.7,109.2 L140.7,108.5 L139.1,108 L139.1,107.6 L137.4,107.2 L136,108.2 L133.3,108.1 C132.7,107.9 132.3,107.8 132.1,107.6 L122.8,105.2 L115.5,105 L107.2,102.9 L106.7,102.3 L117.1,94.9 L117.1,94.2 L115.3,93.7 L114.2,92.6 L115.7,91.5 L123.4,90.9 L124.8,90.5 L148.4,88 L150,86.9 L167.5,85 L164.3,88.9 L164.4,88.9 L194.8,96.5 L196.3,98.5 L204.9,100.6 L210,100.1 L214.3,101.2 L220.1,102.2 L230.6,104.8 L230.2,105.1 L230.6,105.8 L207,123.1 L207,123.1 Z M293.7,70.2 L291.6,71.7 L291.6,72.3 L292.6,73.7 L260,97 L241.1,98.9 L237.9,98.1 L221.4,94 L220.7,93.1 L208.2,90 L205.5,90.2 L172.9,82.1 L172.6,81.7 L173.4,80.7 L168,79.4 L165,75.1 L166,74.4 L166,73.8 L159.1,62.8 L161.2,61.4 L161.2,60.8 L160.2,59.2 L182.5,43.3 L191.2,42.3 L205.5,45.9 L206,45.5 L208.8,46.2 L209.3,45.8 L212,46.5 L212.4,46.2 L219.1,47.9 L219.1,48.2 L227.3,50.2 L229.3,48.8 L238,51 L238.6,50.4 L245.7,52.2 L255.5,51.6 L258.7,49.3 L259.1,49.3 L259.3,49.3 L259.4,49.3 L261.5,49.8 L263.7,50.6 L265.3,50.4 L265.4,50.4 L265.5,50.5 L265.6,50.6 L265.7,50.6 L265.8,50.7 L265.9,50.8 L266,50.8 L266.4,51 L266.5,51.1 L266.8,51.2 L267.3,51.5 L267.4,51.6 L267.6,51.8 L267.7,51.9 L267.8,52 L267.9,52.1 L268,52.2 L268.1,52.4 L268.2,52.6 L268.3,52.8 C268.1,54 267,55.2 265.1,56.5 L265.1,57 L265.9,58.4 L264.7,59.2 L264.7,59.8 L292,66.5 L293.6,68.6 L293.7,70.2 L293.7,70.2 Z M293.7,70.2" class="walkway"/>
                <path d="M413.2,30.6 L375.7,57.3 L374.5,57 L374.5,58.2 L373.6,58.9 L366,59.7 L359.5,58.1 L357.6,59.5 L361.1,60.4 L363.8,64.8 L363.8,68 L361.9,69.4 L351.3,66.8 L351.3,67.9 L344.4,72.8 L322.3,67 L322.3,63.8 L332.9,56.2 L341.1,55.3 L344.3,53 L344.3,50.1 L345.1,49.5 L340.7,48.4 L337.9,48.9 L337.1,47.6 L330.1,45.8 L326.8,48.1 L326.3,48 L326.3,48.5 L325.2,49.3 L320.5,49.8 L318.7,51.1 L319.7,52.6 L319.7,55.8 L308.8,63.6 L307.2,63.8 L307.4,64.1 L307.4,67.3 L306,68.3 L297.1,69.4 L295.6,67.1 L295.6,64.9 L293,64.3 L294.9,66.4 L294.9,69.6 L294.5,71.8 L293.9,72.3 L293.9,75.1 L286.7,80.2 L286.1,80 L286.1,80.5 L260.7,98.6 L254.3,99.3 L254.2,99.3 L243.2,100.4 L243.2,103.1 L243.2,103.2 L243.2,103.3 L243.1,103.4 L243.1,103.5 L243,103.6 L243.1,103.9 L243.1,107.1 L243.1,107.2 L243.1,107.3 L243.1,107.4 L243,107.5 L242.9,107.6 L242.8,107.7 L242.7,107.8 L242.5,107.9 L242.2,108 L242,108.1 L241.7,108.2 L241.6,108.2 L241.5,108.2 L237.3,108.7 L234.9,104.9 L234.9,101.7 L236.5,100.5 L239.7,100.2 L214.7,94 L214,93.2 L201.9,90.2 L200,90.3 L200,90.4 L199.9,90.4 L199.6,90.4 L199.6,90 L170.8,82.8 L170.6,82.6 L170.6,84.1 L168,86.3 L164.4,85.4 L164.4,83.1 L167.8,84 L170.1,82 L168.4,79.6 L168.4,76.4 L171.4,76 L181.3,69 L186.7,70.3 L187.6,69.6 L204.3,73.8 L204.3,77 L201.4,79.1 L204.2,79.8 L204.9,79.3 L208.9,80.3 L209.6,79.8 L215,81.1 L224.7,74.2 L233.2,76.3 L233.2,79.5 L225.3,85.1 L246,90.2 L247.4,89.2 L247.6,89 L250.7,86.8 L240.4,84.2 L240.4,81 L253,72.1 L271.8,76.8 L275.2,74.4 L275.8,74.6 L275.8,74 L285.2,67.3 L280,66.1 L237,55.7 L237,54.3 L235.5,55.3 L213.8,49.9 L213.8,49 L212.8,49.7 L196.7,45.7 L196,46.2 L203,48 L203,51.2 L184.1,64.6 L171.4,61.4 L169.9,62.4 L179.7,64.8 L179.7,68 L166.6,77.3 L165.3,75.3 L165.3,72.7 L159.2,63 L159.2,59.8 L160.3,59 L160.3,56.3 L183.1,40.1 L191.9,39.2 L194.7,39.9 L191.5,34.8 L182.8,32.6 L181.6,30.8 L181.6,27.6 L183.8,26 L210.2,32.6 L210.2,35.8 L201.9,41.7 L206.2,42.8 L206.9,42.3 L207,42.3 L207,40 C209.8,38 212.7,36 215.5,33.9 L250.6,42.7 L251.1,42.3 L253.5,42.9 L257.1,40.4 L265.9,42.6 L265.9,45.8 L264.3,48 L264.5,48.1 L264.6,48.2 L266.2,48 L266.4,48.1 C268.5,49 269.5,49.8 269.5,50.7 L269.5,54 L269.5,54.2 L269.5,54.3 L269.5,54.4 L269.4,54.7 L269.4,54.8 L269.2,55.2 L269.2,55 L268.8,55.5 L268.2,56.2 L267.8,56.6 L267.5,56.8 L267.5,57.7 L274.7,59.5 L274.7,56.5 L274.4,56.4 L274.4,53.2 L274.4,53.1 L275,52.2 L275.1,51.9 L274.3,51.1 L274.1,50.9 L273.9,50.8 L273.9,50.1 L273.2,50.3 L273.1,50.2 L271.1,49.1 L271,49.1 L270.2,48.7 L270.1,48.7 L269.8,48.6 L269.3,48.4 L269.1,48.3 L269.1,45.1 L271.2,43.6 L274.9,44.5 L274.9,44.9 L278,46 L278,47.1 L284.4,48.7 L284.4,49.4 L285.3,48.7 L293.9,50.9 L293.9,54.1 L293.1,54.7 L299.3,56.3 L299.3,54.4 L315.4,42.9 L315.9,43 L315.9,42.5 L290.4,36 L290.4,32.8 L327.9,6.1 L413.3,27.4 L413.2,30.6 M347.9,77.2 L335.5,86.1 L314.2,80.8 L314,80.9 L319.8,82.4 L319.8,85.3 L329.9,87.8 L332.9,85.6 L343.5,88.2 L347.1,85.7 L351.3,86.7 L351.3,89.9 L335.4,101.3 L324.8,98.7 L321.5,101.1 L298,95.2 L295.3,97.1 L294.8,97 L294.8,97.5 L291,100 L291,102.1 L317,108.6 L318.6,107.5 L324.2,108.9 L324.2,109.3 L330.3,110.8 L330.9,111.8 L330.9,113.5 L332.2,115.6 L333.9,116 L334.5,117 L334.5,120.2 L329.6,123.7 L327.1,124 L320.2,129 L320.2,130.5 L314.7,134.4 L311.8,134.7 L310.4,134.4 L303.4,135.2 L302.1,136.1 L298.6,136.5 L286.9,133.6 L286.9,132.3 L277,129.8 L273.2,132.5 L273.2,133.1 L267.8,136.9 L250.6,132.6 L250.6,133.6 L239.3,141.7 L227.6,138.8 L226.1,139.8 L220.5,138.4 L215.8,141.8 L218.9,142.6 L218.9,145.8 L216.7,147.3 L219.7,148.1 L219.7,151.3 L193.7,169.9 L191.6,169.4 L190.4,170.3 L191.7,170.6 L191.7,173.8 L175.9,185.1 L175.9,188.3 L168.4,193.7 L165.1,192.9 L159.8,196.7 L151.4,194.6 L148.6,196.6 L130,192 L130,189.3 L125.3,188.1 L122.5,190.1 L103.9,185.5 L103.9,182.8 L91.6,179.7 L91.6,176.5 L121,155.6 L132.9,158.5 L132.9,157.9 L132.4,157.8 L132.4,154.6 L136.1,152 L131.9,151 L131.9,147.8 C136,144.9 140.2,141.9 144.3,138.9 L145.8,139.3 L148.8,137.1 L159.9,139.9 L160.3,139.7 L160.3,137.8 L167.9,132.4 L154.2,129 L154.2,125.8 L154.4,125.7 L151.1,125.9 L136.8,122.3 L136.8,121.6 L136,122.1 L103.3,113.9 L103.3,113 L97.2,117.4 L91.3,115.9 L91.3,113.8 L84.4,118.7 L68,114.6 L23.2,119.2 L23.2,116 L23.9,115.5 L23.8,115.3 L19.7,114.3 L18.3,112.1 L13,112.7 L11.9,111.1 L11.9,107.9 L15.3,107.5 L9.9,99.3 L4.7,99.9 L3.6,98.3 L3.6,95.1 L6.8,94.8 L6.3,94.2 L6.3,91 L15.8,89.9 L15.7,89.7 L15.7,86.5 L20.1,86 L22.3,89.3 L44.1,87 L43.8,86.5 L43.8,83.3 L47.7,82.9 L50,86.5 L62,85.3 L74.4,105 L78.2,106.3 L83.5,107.2 L83.6,107.2 C86.3,107.5 89.2,107.5 92.2,107.3 L94.3,107.1 L94.3,110.3 L93.6,111.3 L94.4,110.7 L96.9,107.7 L96.9,107.1 L98.2,106.4 L100.7,104.6 L105.1,105.7 L104.6,105.1 L104.6,101.9 L111.9,96.7 L111.5,96.3 L111.5,93.1 L113.3,91.8 L120.5,91 L121.4,92.1 L121.4,90.9 L133.8,89.6 L134,90.2 L134,93.4 L130.5,95.9 L130.5,96 L130.4,96 L130.2,96.2 L130.1,96.1 L123.3,97.3 L122.6,96.3 L122.6,97.4 L117.6,101 L153.7,110 L153.7,110.6 L153.8,110.6 L153.8,113.8 L152.5,114.7 L148.9,115.4 L143.8,114.1 L139.7,114.6 L140.6,114.8 L140.6,116.1 L142.2,114.9 L159.6,119.3 L159.6,121.7 L162.1,119.9 L168.3,121.5 L174.2,120.9 L175,120.3 L156.3,115.6 L156.3,112.4 L156.8,112.5 L156.8,112 L164.5,106.5 L176.1,109.4 L176.1,109.7 L176.6,109.4 L191.1,113 L191.1,115.1 L193.2,115.6 L193.3,115.5 L193.3,114.3 L198,111 L201.5,111.9 L201.5,111.2 L204.8,108.9 L208.8,109.9 L208.8,111.5 L210.6,110.2 L210.6,108.1 L210,108.6 L193.5,105 L193.3,104.9 L186.1,103.1 L185.2,101.8 L185.2,101.3 L179.3,99.8 L179,99.7 L173.5,98.3 L171.9,99.5 L152.9,94.8 L152.9,94.4 L150.4,93.8 L144.9,94 L144.9,95.6 L139.2,96.2 L139.2,93 L139.5,92.8 L138.9,91.7 L138.9,88.5 L141.9,88.2 L143.1,90.2 L143.1,88.2 L144.7,87.1 L144.8,87.1 L163.1,85.2 L190.8,92.1 L192.1,93.9 L199.6,95.8 L204.1,95.3 L208.2,96.3 L208.2,99.5 L207.6,99.9 L209,100.3 L213.3,97.2 L228.5,101 L230.5,104.2 L230.5,107.4 L206.8,124.3 L204.5,124.5 L202.8,125.7 L200.2,126 L198.3,125.5 L199.1,126.8 L199.1,130 L190.6,136.1 L190.6,136.4 L190,136.4 L181.6,136.8 L181.2,137.1 L183.4,140.6 L183.5,140.6 L183.5,140.7 L183.5,140.8 L183.5,144 L183.3,143.9 L156.1,163.3 L154.3,163.5 L166.5,166.5 L178.1,158.3 L178.1,156.5 L192,146.6 L192.2,146.4 L195.1,144.4 L195.1,143.3 L196.7,142.2 L198.4,142.6 L198.4,141 L203.8,137.1 L203.8,136.2 L222.1,123.2 L223.1,123.5 L223.1,122.5 L229.1,118.2 L229.5,118.3 L229.5,117.9 L239.3,110.9 L261.5,108.6 L262.6,108.9 L267.2,105.6 L267.2,103.2 L283.6,91.5 L284.1,91.6 L284.1,91 L286.8,89.1 L287,89 L302.5,78 L303.9,78.3 L303.9,77 L306.9,74.9 L310.9,74.3 L316.3,70.4 L316.3,68.1 L318.3,66.7 L347.9,74.1 L347.9,77.2 M174.4,11.7 L176.7,10 L176.7,7.3 L183,2.8 L189.3,4.4 L189.3,7.6 L169.8,21.5 L169.7,21.6 L179.5,24.1 L179.5,27.3 L176,29.8 L176.5,30.7 L176.5,33.9 L174.2,34.1 L170.4,36.9 L170.5,37 L170.5,40.2 L154.6,51.5 L151.7,50.7 L151.7,53.6 L147.8,56.4 L141.9,57.2 L139.7,58.8 L140.5,60.1 L141.1,61 L144.8,61.9 L151.5,71.2 L151.5,74.4 L149.4,75.9 L145.5,76.5 L137.1,82.5 L137.1,83.8 L134,86.1 L107.9,88.8 L107,87.5 L107,88.8 L100.1,89.5 L96.9,91.8 L95.9,91.6 L92.8,93.8 L91.6,93.5 L88.5,95.7 L87.4,95.5 L84.6,97.4 L87.6,97.6 C88.9,97.9 89.5,98.5 89.5,99.3 L89.5,99.5 L89.5,99.6 L89.5,99.5 L89.5,102.5 L89.5,102.6 L89.5,102.7 L89.5,102.8 L89.4,103 L89.2,103.3 L89.1,103.5 L89,103.6 L88.8,103.8 L88.7,103.9 L88.4,104.2 L88.1,104.5 L86.7,105.3 L85.2,105.8 L85,105.8 L84.5,106 L83.2,106.2 L82.3,106.3 L81.7,106.3 L81.2,106.2 L80.5,106.1 L80.3,106 L80.2,106 L79.8,105.8 L79.7,105.8 L79.2,105.5 L79,105.3 L78.7,105 L78.6,104.8 L78.5,104.5 L78.5,104.4 L78.5,101 L78.5,101.1 L78.5,100.9 L77.1,101.8 L74.3,101.1 L68,91.1 L68,87.9 L74.8,83 L76.7,82.7 L79.3,80.8 L88.3,83.1 L94.5,78.7 L104.3,81.2 L105.2,82.6 L105.2,81.3 L105.3,81.2 L91.6,77.8 L91.6,74.6 L112.9,59.4 L110.2,58.7 L110.2,55.5 L120.1,48.5 L120.3,48.3 L121.7,47.3 L126.7,48.5 L131.4,45.1 L139.8,47.2 L139.8,44.4 L137.8,43.9 L137.8,42.3 L125.9,39.3 L123.9,40.7 L116.8,39 L116.8,35.8 L120,33.5 L152.8,30 L160.5,31.9 L161.9,30.9 L159,30.2 L156.2,25.2 L156.2,22 L156.7,21.7 L154.5,22.3 L154.4,22.3 L152.6,22.6 L151.9,22.7 L151.7,22.7 L151.5,22.7 L150,22.7 L149.7,22.7 L149.6,22.7 L148.8,22.6 L148.7,22.6 L148.4,22.5 L148.1,22.4 L147.5,22.2 L147.3,22.1 L146.8,21.9 L146.2,21.6 L146.1,21.6 L146,21.5 L145.9,21.5 L145.1,21.1 L142.7,19.7 L142.6,19.6 L142.5,19.5 L142.4,19.5 L139.9,17.6 L138.6,16.4 C138.3,16.1 138.1,15.7 138.1,15.5 L138.1,12.4 C138.1,12.2 138.2,12 138.3,11.8 L138.3,11.8 L141.6,11.6 L142.7,13.1 L159.5,17.3 L159.5,19.6 L160.1,19.2 L161.8,19.6 L161.8,18 L169.7,12.4 L174.4,11.7 M83.8,97.2 L83.3,97.1 L82.8,97.4 L83.8,97.2 M203.4,28.1 L199.9,31.4 L194.4,29.3 L194.3,26.7 L203.2,24.6 L203.4,28.1" class="wall"/>
            </g>
            <g class="ceilings">
                <path class="unit" d="M275.7,103.3 L279.3,100.8 M269.5,101.7 L274,98.5" id="2001"/>
                <path class="unit" d="M165.2,85.9 L181,89.8 L172.1,96.2 L156.3,92.3 L165.2,85.9 L165.2,85.9 Z M165.2,85.9" id="2002"/>
                <path class="unit" d="M186.8,91.3 L179.5,96.5 L174,95.1 L181.3,89.9 L186.8,91.3 L186.8,91.3 Z M186.8,91.3" id="2003"/>
                <path class="unit" d="M190.7,92.3 L192,94 L186.2,98.2 L179.8,96.6 L187.1,91.4 L190.7,92.3 L190.7,92.3 Z M190.7,92.3" id="2004"/>
                <path class="unit" d="M196.1,95 L188.7,100.3 L186.8,99.8 L185.9,98.6 L192.3,94 L196.1,95 L196.1,95 Z M196.1,95" id="2005"/>
                <path class="unit" d="M199.6,95.9 L200.2,96.9 L193.7,101.6 L189,100.4 L196.4,95.1 L199.6,95.9 L199.6,95.9 Z M199.6,95.9" id="2006"/>
                <path class="unit" d="M208,96.4 L199.2,102.7 L194,101.6 L200.6,96.9 L200,95.9 L204.3,95.5 L208,96.4 L208,96.4 Z M208,96.4" id="2007"/>
                <path class="unit" d="M225.2,100.3 L222.9,101.9 L217.5,102.5 L216.1,103.5 L213.7,102.9 L219.4,98.9 L225.2,100.3 L225.2,100.3 Z M225.2,100.3" id="2008"/>
                <path class="unit" d="M219.1,98.8 L210.2,105.1 L199.5,102.8 L204.3,99.3 L209.3,100.5 L213.6,97.4 L219.1,98.8 L219.1,98.8 Z M219.1,98.8" id="2009"/>
                <path class="unit" d="M171.6,75.9 L181.4,68.9 L186.5,70.2 L173,79.9 L171,79.4 L168.8,76.3 L171.6,75.9 L171.6,75.9 Z M171.6,75.9" id="2010"/>
                <path class="unit" d="M195.3,71.5 L180.8,81.8 L173.2,79.9 L187.7,69.6 L195.3,71.5 L195.3,71.5 Z M195.3,71.5" id="2011"/>
                <path class="unit" d="M195.6,71.6 L203.9,73.7 L189.4,84 L181.1,81.9 L195.6,71.6 L195.6,71.6 Z M195.6,71.6" id="2012"/>
                <path class="unit" d="M198,78.2 L202.9,79.4 L194.7,85.3 L189.7,84.1 L198,78.2 L198,78.2 Z M198,78.2" id="2013"/>
                <path class="unit" d="M195,85.4 L203.2,79.5 L204.3,79.8 L205,79.3 L208.7,80.2 L199.7,86.6 L195,85.4 L195,85.4 Z M195,85.4" id="2014"/>
                <path class="unit" d="M214.8,81 L205.8,87.4 L201.9,86.4 L200.2,86.5 L209.8,79.7 L214.8,81 L214.8,81 Z M214.8,81" id="2015"/>
                <path class="unit" d="M224.8,74.2 L232.7,76.2 L214,89.5 L206.1,87.5 L224.8,74.2 L224.8,74.2 Z M224.8,74.2" id="2016"/>
                <path class="unit" d="M221.9,84.2 L235.5,87.6 L227.3,93.4 L214.9,90.3 L214.3,89.6 L221.9,84.2 L221.9,84.2 Z M221.9,84.2" id="2017"/>
                <path class="unit" d="M240.5,88.8 L232.3,94.6 L227.6,93.4 C230.3,91.5 233.1,89.5 235.8,87.6 L240.5,88.8 L240.5,88.8 Z M240.5,88.8" id="2018"/>
                <path class="unit" d="M245.8,90.2 L237.6,96 L232.6,94.8 L240.8,89 L245.8,90.2 L245.8,90.2 Z M245.8,90.2" id="2019"/>
                <path class="unit" d="M140.6,14.2 L139,12.8 C138.7,12.4 138.7,12.1 138.9,11.7 L141.7,11.5 L142.7,12.9 L146.1,13.8 L142.8,16.1 L140.6,14.2 L140.6,14.2 Z M140.6,14.2" id="2020"/>
                <path class="unit" d="M146.5,13.8 L153.5,15.6 L148.8,18.9 L148.5,18.8 L146.7,18.1 C145.6,17.7 144.4,17 143.2,16.2 L146.5,13.8 L146.5,13.8 Z M146.5,13.8" id="2021"/>
                <path class="unit" d="M159.4,17 C158.3,17.6 157.1,18.1 155.7,18.5 C153.3,19.2 151.2,19.3 149.2,19 L153.9,15.7 L159.4,17 L159.4,17 Z M159.4,17" id="2022"/>
                <path class="unit" d="M189.1,4.2 L179.6,10.9 L179.8,11 L176.7,10.2 L176.9,10.2 L178.6,9 L177.4,7.1 L183.5,2.8 L189.1,4.2 L189.1,4.2 Z M189.1,4.2" id="2023"/>
                <path class="unit" d="M176.7,10.3 L179.5,11 L175.7,13.7 L170,12.3 L170.2,12.2 L174.8,11.6 L176.7,10.3 L176.7,10.3 Z M176.7,10.3" id="2024"/>
                <path class="unit" d="M175.6,13.9 L169.9,17.9 L164.2,16.5 L169.9,12.5 L175.6,13.9 L175.6,13.9 Z M175.6,13.9" id="2025"/>
                <path class="unit" d="M169.8,18 L168.3,19.1 L162.6,17.7 L164.1,16.6 L169.8,18 L169.8,18 Z M169.8,18" id="2026"/>
                <path class="unit" d="M162.9,30.4 L171.3,32.5 L168.9,34.2 L170.3,36.5 L168.1,38 L144.1,32 L128.7,33.6 L123.7,37.2 L117.3,35.6 L120.3,33.5 L152.8,30 L160.7,32 L162.9,30.4 L162.9,30.4 Z M162.9,30.4" id="2027"/>
                <path class="unit" d="M160.6,19.1 L179.4,23.8 L174.6,27.3 L176.5,30.2 L174.4,30.4 L171.6,32.4 L163.2,30.3 L166,28.3 L159.7,26.7 L156.9,21.8 L160.6,19.1 L160.6,19.1 Z M160.6,19.1" id="2028"/>
                <path class="unit" d="M164.2,40.9 L137.6,34.3 L129.3,35.1 L127.7,36.3 L126.3,36 L129.2,33.9 L144.3,32.3 L168.1,38.2 L164.2,40.9 L164.2,40.9 Z M164.2,40.9" id="2029"/>
                <path class="unit" d="M161.2,43 L149.1,40 L144.4,40.4 L142.2,39.9 L140.6,41 L138.4,40.5 L140,39.3 L127.9,36.3 L129.5,35.2 L137.5,34.5 L164,41 L161.2,43 L161.2,43 Z M161.2,43" id="2030"/>
                <path class="unit" d="M157.9,45.3 L140.8,41 L142.3,40 L144.2,40.5 L148.9,40.1 L160.9,43.1 L157.9,45.3 L157.9,45.3 Z M157.9,45.3" id="2031"/>
                <path class="unit" d="M154.7,47.7 L140.3,44.1 L143.3,41.9 L157.7,45.5 L154.7,47.7 L154.7,47.7 Z M154.7,47.7" id="2032"/>
                <path class="unit" d="M151.4,50 L147.7,52.6 L142,53.4 L120.6,48.1 L121.8,47.2 L126.8,48.4 L131.5,45.1 L151.4,50 L151.4,50 Z M151.4,50" id="2033"/>
                <path class="unit" d="M131.8,60.4 L110.7,55.1 L120.4,48.2 L141.7,53.5 L138.1,56.1 L140.2,59.5 L131.8,60.4 L131.8,60.4 Z M131.8,60.4" id="2034"/>
                <path class="unit" d="M140.4,59.6 L140.9,60.5 L132.6,61.3 L132.1,60.5 L140.4,59.6 L140.4,59.6 Z M140.4,59.6" id="2035"/>
                <path class="unit" d="M144.6,61.5 L151.1,70.7 L150.6,71.1 L136.3,67.5 L132.6,61.4 L141,60.6 L144.6,61.5 L144.6,61.5 Z M144.6,61.5" id="2036"/>
                <path class="unit" d="M134.7,65.5 L136.1,67.7 L150.5,71.3 L149.3,72.2 L145.5,72.8 L135.3,70.3 L132.3,65.9 L134.7,65.5 L134.7,65.5 Z M134.7,65.5" id="2037"/>
                <path class="unit" d="M195.3,28.8 L191.8,31.3 L183.3,29.2 L182.2,27.5 L184.2,26.1 L195.3,28.8 L195.3,28.8 Z M195.3,28.8" id="2038"/>
                <path class="unit" d="M195.6,28.9 L210.1,32.5 L202,38.3 L195.5,36.7 L192.2,31.4 L195.6,28.9 L195.6,28.9 Z M195.6,28.9" id="2039"/>
                <path class="unit" d="M231.3,37.7 L228,40 L224.7,39.2 L227.9,36.9 L231.3,37.7 L231.3,37.7 Z M231.3,37.7" id="2040"/>
                <path class="unit" d="M223.4,35.8 L220.5,37.9 L219.9,37.7 L217.1,38 L216.4,36.8 L219.3,34.7 L223.4,35.8 L223.4,35.8 Z M223.4,35.8" id="2041"/>
                <path class="unit" d="M223.7,35.8 L226.3,36.4 L223.4,38.5 L220.8,37.9 L223.7,35.8 L223.7,35.8 Z M223.7,35.8" id="2042"/>
                <path class="unit" d="M227.6,36.9 L224.4,39.2 L223.5,38.8 L226.5,36.7 L227.6,36.9 L227.6,36.9 Z M227.6,36.9" id="2043"/>
                <path class="unit" d="M219,34.7 L216,36.8 L216.7,38 L212.3,38.5 L209.8,40.3 L207.6,39.8 L215.8,34 L219,34.7 L219,34.7 Z M219,34.7" id="2044"/>
                <path class="unit" d="M234.5,38.6 L231.6,40.6 L228.7,39.9 L231.5,37.9 L234.5,38.6 L234.5,38.6 Z M234.5,38.6" id="2045"/>
                <path class="unit" d="M238.4,39.5 L235.5,41.5 L231.8,40.6 L234.7,38.6 L238.4,39.5 L238.4,39.5 Z M238.4,39.5" id="2046"/>
                <path class="unit" d="M242.1,40.4 L237,44 L233.6,43.2 L238.7,39.6 L242.1,40.4 L242.1,40.4 Z M242.1,40.4" id="2047"/>
                <path class="unit" d="M246.2,41.5 L241.2,45.1 L237.4,44.2 L242.5,40.6 L246.2,41.5 L246.2,41.5 Z M246.2,41.5" id="2048"/>
                <path class="unit" d="M250.2,42.5 L245.2,46.1 L241.5,45.2 L246.5,41.6 L250.2,42.5 L250.2,42.5 Z M250.2,42.5" id="2049"/>
                <path class="unit" d="M219.9,40.3 L227.3,42.2 L225,43.9 L215.2,41.5 L216.7,40.4 L219.9,40.3 L219.9,40.3 Z M219.9,40.3" id="2050"/>
                <path class="unit" d="M167.7,60.6 L166.5,61.4 L161.2,61.9 L159.8,59.8 L161,58.9 L167.7,60.6 L167.7,60.6 Z M167.7,60.6" id="2051"/>
                <path class="unit" d="M169.3,62.2 L168.2,63 L162.3,63.6 L161.4,62 L161.6,62 L166.8,61.6 L169.3,62.2 L169.3,62.2 Z M169.3,62.2" id="2052"/>
                <path class="unit" d="M174.4,63.5 L177.1,64.2 L176.4,64.7 L173.7,64 L174.4,63.5 L174.4,63.5 Z M174.4,63.5" id="2053"/>
                <path class="unit" d="M167.9,63.1 L165,65.2 L163.4,65.4 L162.4,63.7 L167.9,63.1 L167.9,63.1 Z M167.9,63.1" id="2054"/>
                <path class="unit" d="M165.2,65.3 L169.5,62.2 L174.1,63.3 L169.2,66.8 L164.5,67.1 L163.4,65.4 L165.2,65.3 L165.2,65.3 Z M165.2,65.3" id="2055"/>
                <path class="unit" d="M169,67.1 L166.4,69 L165.7,69.1 L164.7,67.5 L169,67.1 L169,67.1 Z M169,67.1" id="2056"/>
                <path class="unit" d="M173.6,64.1 L176.6,64.8 L177.5,64.2 L179.6,64.7 L170.6,71.1 L169.6,70.9 L167.1,71.1 L165.9,69.1 L166.8,69 L173.6,64.1 L173.6,64.1 Z M173.6,64.1" id="2057"/>
                <path class="unit" d="M170.3,71.2 L167,73.6 L165.9,72 L167,71.2 L169.4,71 L170.3,71.2 L170.3,71.2 Z M170.3,71.2" id="2058"/>
                <path class="unit" d="M201.4,41.5 L199.5,42.8 L196.8,42.1 L195.6,42.9 L186.1,40.5 L185.4,39.8 L192.1,39.1 L201.4,41.5 L201.4,41.5 Z M201.4,41.5" id="2059"/>
                <path class="unit" d="M187,46.7 L180.8,51.1 L171.3,48.8 L177.5,44.4 L187,46.7 L187,46.7 Z M187,46.7" id="2060"/>
                <path class="unit" d="M206.3,42.7 L204.5,44 L199.8,42.8 L201.6,41.5 L206.3,42.7 L206.3,42.7 Z M206.3,42.7" id="2061"/>
                <path class="unit" d="M209.7,42.9 L207.2,44.7 L204.8,44.1 L207.3,42.3 L209.7,42.9 L209.7,42.9 Z M209.7,42.9" id="2062"/>
                <path class="unit" d="M212.9,43.3 L210,45.4 L207.5,44.8 L210.4,42.7 L212.9,43.3 L212.9,43.3 Z M212.9,43.3" id="2063"/>
                <path class="unit" d="M216.3,43.7 L213,46.1 L210.3,45.4 L213.6,43 L216.3,43.7 L216.3,43.7 Z M216.3,43.7" id="2064"/>
                <path class="unit" d="M185.1,39.9 L185.9,40.7 L193,42.5 L187.1,46.7 L177.6,44.4 L183.5,40.2 L185.1,39.9 L185.1,39.9 Z M185.1,39.9" id="2065"/>
                <path class="unit" d="M171.4,58 L168.4,60.1 L161.7,58.4 L162.1,58.1 L160.9,56.2 L161.8,55.6 L171.4,58 L171.4,58 Z M171.4,58" id="2066"/>
                <path class="unit" d="M192.7,45.3 L202.7,47.8 L187.4,58.8 L165.2,53.3 L171.1,49.1 L183.3,52.1 L192.7,45.3 L192.7,45.3 Z M192.7,45.3" id="2067"/>
                <path class="unit" d="M184.2,61 L162,55.4 L165,53.3 L187.2,58.8 L184.2,61 L184.2,61 Z M184.2,61" id="2068"/>
                <path class="unit" d="M220.3,44.7 L217,47.1 L214.5,46.5 L217.8,44.1 L220.3,44.7 L220.3,44.7 Z M220.3,44.7" id="2069"/>
                <path class="unit" d="M222.8,45.7 L219.8,47.8 L217.3,47.2 L220.2,45.1 L222.8,45.7 L222.8,45.7 Z M222.8,45.7" id="2070"/>
                <path class="unit" d="M225.5,46.4 L222.5,48.5 L220.1,47.9 L223.1,45.8 L225.5,46.4 L225.5,46.4 Z M225.5,46.4" id="2071"/>
                <path class="unit" d="M225.7,46.5 L228.1,47.1 L225.2,49.2 L222.8,48.6 L225.7,46.5 L225.7,46.5 Z M225.7,46.5" id="2072"/>
                <path class="unit" d="M234.2,46.5 L229.1,50.1 L225.4,49.2 L230.5,45.6 L234.2,46.5 L234.2,46.5 Z M234.2,46.5" id="2073"/>
                <path class="unit" d="M237.5,47.4 L232.4,51 L229.4,50.3 L234.5,46.7 L237.5,47.4 L237.5,47.4 Z M237.5,47.4" id="2074"/>
                <path class="unit" d="M240.7,48.2 L235.6,51.8 L232.7,51.1 L237.8,47.5 L240.7,48.2 L240.7,48.2 Z M240.7,48.2" id="2075"/>
                <path class="unit" d="M109.4,78.4 L92.2,74.1 L113.6,58.8 L130.2,62.9 L135.1,70.1 L145.4,72.7 L136.3,79.1 L126,76.7 L109.4,78.4 L109.4,78.4 Z M109.4,78.4" id="2076"/>
                <path class="unit" d="M125.9,76.9 L136.1,79.4 L136.8,80.2 L133.8,82.3 L113.6,84.4 L111,80.4 L112.5,80.2 L111.3,78.3 L125.9,76.9 L125.9,76.9 Z M125.9,76.9" id="2077"/>
                <path class="unit" d="M110.7,80.4 L113.3,84.4 L108.2,84.9 L105.6,80.8 L107,79.8 L110.7,80.4 L110.7,80.4 Z M110.7,80.4" id="2078"/>
                <path class="unit" d="M89.6,82.1 L99.9,85.8 L106.6,85.2 L104,80.9 L94.5,78.6 L89.6,82.1" id="2079"/>
                <path class="unit" d="M90.9,89.5 L92,89.9 L95.2,87.6 L77.7,81.3 L76.2,82.4 L74.5,82.6 L73.5,83.3 L90.9,89.5 L90.9,89.5 Z M90.9,89.5" id="2080"/>
                <path class="unit" d="M82.4,93.6 L82.7,93.4 L83.7,93.7 L86.6,91.6 L70.2,85.8 L67.8,87.5 L68.4,88.5 L82.4,93.6 L82.4,93.6 Z M82.4,93.6" id="2081"/>
                <path class="unit" d="M74,97.4 L68.4,88.6 L82.4,93.7 L76.4,98 L74,97.4 L74,97.4 Z M74,97.4" id="2082"/>
                <path class="unit" d="M87.6,97.2 C88.7,97.5 89.3,98 89.3,98.6 C89.4,99.3 88.9,99.9 88,100.6 C87,101.3 85.8,101.8 84.4,102.1 C82.9,102.4 81.7,102.4 80.6,102.1 C79.5,101.8 78.9,101.4 78.9,100.7 C78.8,100 79.3,99.3 80.2,98.6 C81.2,97.9 82.4,97.4 83.8,97.1 C85.2,97 86.5,97 87.6,97.2 L87.6,97.2 L87.6,97.2 Z M87.6,97.2" id="2083"/>
                <path class="unit" d="M94,106.9 L92.1,109.6 L84.4,115.1 L75.5,112.9 L83.8,107 C86.8,107.2 89.7,107.2 92.5,107 L94,106.9 L94,106.9 Z M94,106.9" id="2084"/>
                <path class="unit" d="M22.3,89.5 L46.5,86.7 L44.3,83.2 L47.6,82.9 L49.8,86.5 L61.8,85.3 L74.2,104.9 L76.3,105.7 C76.9,105.9 77.5,106.1 78.2,106.2 C79.6,106.6 81.4,106.9 83.5,107.1 L75.3,113 L68.2,111.2 L24.1,115.8 L25.8,114.6 L24.2,112.1 L20.1,111.1 L18.6,108.8 L13.2,109.4 L12.3,108.1 L17.6,107.5 L10.4,95.8 L5.2,96.4 L4.3,95.1 L9.5,94.5 L7.1,90.9 L18.5,89.7 L16.5,86.5 L20.2,86.1 L22.3,89.5 L22.3,89.5 Z M22.3,89.5" id="2085"/>
                <path class="unit" d="M105.8,107.7 L98.9,106 L101.2,104.4 L108.1,106.1 L105.8,107.7 L105.8,107.7 Z M105.8,107.7" id="2086"/>
                <path class="unit" d="M98.6,106.1 L105.5,107.8 L97.1,113.8 L91.8,112.5 L94.8,110.3 L97.7,106.9 L97.5,106.7 L98.6,106.1 L98.6,106.1 Z M98.6,106.1" id="2087"/>
                <path class="unit" d="M113.5,106.9 L113.5,107.3 L117.1,108.2 L111.5,112.2 L103.9,110.3 L109.2,106.5 L110.5,106.8 L113.5,106.9 L113.5,106.9 Z M113.5,106.9" id="2088"/>
                <path class="unit" d="M126,110.7 L120.8,114.4 L111.8,112.1 L116.3,108.9 L123.7,110.8 L124.3,110.3 L126,110.7 L126,110.7 Z M126,110.7" id="2089"/>
                <path class="unit" d="M129.6,111.2 C130.1,111.3 130.3,111.5 130.3,111.7 L130.3,111.8 L135.8,113.1 L130.6,116.8 L121.1,114.5 L126.3,110.8 L128.1,111.2 L128.2,111.2 L129.6,111.2 L129.6,111.2 Z M129.6,111.2" id="2090"/>
                <path class="unit" d="M140.5,114.3 L137.5,116.5 L138.1,116.7 L136,118.2 L130.9,116.9 L136,113.2 L140.5,114.3 L140.5,114.3 Z M140.5,114.3" id="2091"/>
                <path class="unit" d="M155.4,121.8 L151.2,122 L137.3,118.5 L142.7,114.6 L159.5,118.8 L155.4,121.8 L155.4,121.8 Z M155.4,121.8" id="2092"/>
                <path class="unit" d="M133.8,89.4 L134,89.8 L130.7,92.1 L129.3,89.8 L133.8,89.4 L133.8,89.4 Z M133.8,89.4" id="2093"/>
                <path class="unit" d="M130.4,92.3 L127.1,92.9 L125.4,90.3 L128.9,89.9 L130.4,92.3 L130.4,92.3 Z M130.4,92.3" id="2094"/>
                <path class="unit" d="M125.1,90.3 L126.8,92.9 L124,93.4 L122.1,90.6 L125.1,90.3 L125.1,90.3 Z M125.1,90.3" id="2095"/>
                <path class="unit" d="M120.6,90.8 L122.7,93.6 L119.9,95.6 L113.5,94 L112.3,92.7 L113.9,91.5 L120.6,90.8 L120.6,90.8 Z M120.6,90.8" id="2096"/>
                <path class="unit" d="M119.7,95.8 L115.5,98.8 L110.8,97.6 L115,94.6 L119.7,95.8 L119.7,95.8 Z M119.7,95.8" id="2097"/>
                <path class="unit" d="M155.2,87.2 L150.6,90.5 L145.3,90.7 L143.8,88.3 L145.2,87.3 L154.7,86.3 L155.2,87.2 L155.2,87.2 Z M155.2,87.2" id="2098"/>
                <path class="unit" d="M163.2,85.4 L164.9,85.8 L159.1,89.9 L156.4,89.2 L153.7,91.1 L150.9,90.4 L155.5,87.1 L154.9,86.1 L163.2,85.4 M167.7,83.8 L164.3,82.9 L167.1,80.7 L170.5,81.6 L167.7,83.8" id="2099"/>
                <path class="unit" d="M159,90.1 L156,92.2 L153.6,91.6 L156.6,89.5 L159,90.1 L159,90.1 Z M159,90.1" id="2100"/>
                <path class="unit" d="M142,88.5 L143.8,91.6 L144.7,92.4 L140.3,92.9 L141.6,92 L139.7,88.8 L142,88.5 L142,88.5 Z M142,88.5" id="2101"/>
                <path class="unit" d="M112.9,98.3 L111.8,99.1 L115.5,100 L114.8,100.5 L111.8,99.7 L111.7,100 L108.5,99.2 L110.6,97.7 L112.9,98.3 L112.9,98.3 Z M112.9,98.3" id="2102"/>
                <path class="unit" d="M114.6,100.5 L110.4,103.5 L105.8,102.3 L105.2,101.4 L108.3,99.2 L111.9,100.1 L112,99.8 L114.6,100.5 L114.6,100.5 Z M114.6,100.5" id="2103"/>
                <path class="unit" d="M115.8,100 L118.6,100.7 L113.6,104.3 L110.8,103.6 L115.8,100 L115.8,100 Z M115.8,100" id="2104"/>
                <path class="unit" d="M123.7,102 L120.1,104.6 L113.8,104.4 L118.8,100.9 L123.7,102 L123.7,102 Z M123.7,102" id="2105"/>
                <path class="unit" d="M124,102.1 L128.8,103.3 L125.2,105.8 L120.4,104.6 L124,102.1 L124,102.1 Z M124,102.1" id="2106"/>
                <path class="unit" d="M129,106.7 L125.7,105.9 L129.3,103.4 L139,105.8 L136.7,107.4 L135.2,107 L135.6,106.7 L133.7,106.2 L132.3,107.2 L129.9,107.1 L129.2,106.8 L129,106.7 L129,106.7 Z M129,106.7" id="2107"/>
                <path class="unit" d="M139.2,105.9 L148.6,108.2 L145.3,110.5 L144.3,110.3 L140,110.8 L136.4,109.9 L135.9,108.3 L139.2,105.9 L139.2,105.9 Z M139.2,105.9" id="2108"/>
                <path class="unit" d="M152.7,110.8 L149.4,111.5 L145.6,110.6 L148.8,108.3 L153.7,109.5 L153.2,110 L153.7,110.1 L152.7,110.8 L152.7,110.8 Z M152.7,110.8" id="2109"/>
                <path class="unit" d="M243,99.8 C242.9,100.1 242.5,100.3 241.7,100.5 L240.1,100.8 L239.1,100.9 L239,100.9 L240.2,102.9 L240.9,102.9 L242,103 C242.3,103.1 242.6,103.2 242.8,103.5 C243.1,104 242.7,104.4 241.4,104.6 L237.6,105 L235.3,101.4 L236.8,100.3 L243.2,99.6 L243,99.8 L243,99.8 Z M243,99.8" id="2110"/>
                <path class="unit" d="M231.8,118.8 L229.3,120.5 L227,120 L229.5,118.2 L231.8,118.8 L231.8,118.8 Z M231.8,118.8" id="2111"/>
                <path class="unit" d="M235.7,113.7 L239.8,110.8 L241.3,110.6 L244.5,115.6 M235.7,113.7 L244.4,115.6" id="2112"/>
                <path class="unit" d="M217.5,126.8 L228.2,129.5 L224,132.5 L213.3,129.8 L217.5,126.8 L217.5,126.8 Z M217.5,126.8" id="2113"/>
                <path class="unit" d="M223.8,132.6 L222,133.9 L227.6,135.3 L226.3,136.2 L220.7,134.8 L219.5,135.7 L208.8,133 L213.1,129.9 L223.8,132.6 L223.8,132.6 Z M223.8,132.6" id="2114"/>
                <path class="unit" d="M207.6,135.8 L206,137 L204.7,136.7 L204.4,136.2 L205.5,135.4 L207.6,135.8 L207.6,135.8 Z M207.6,135.8" id="2115"/>
                <path class="unit" d="M222.4,123.2 L250.4,130.2 L239.4,138 L222.5,133.8 L228.7,129.4 L217.7,126.7 L222.4,123.2 L222.4,123.2 Z M222.4,123.2" id="2116"/>
                <path class="unit" d="M219.3,135.8 L214.6,139.1 L206.3,137 L208.1,135.8 L205.6,135.2 L208.5,133.2 L219.3,135.8 L219.3,135.8 Z M219.3,135.8" id="2117"/>
                <path class="unit" d="M211.4,139 L209.7,140.2 L202.4,138.4 L204.1,137.2 L211.4,139 L211.4,139 Z M211.4,139" id="2118"/>
                <path class="unit" d="M218.7,142.4 L215.3,144.9 L203.3,141.9 L204.5,141.1 L200.3,140.1 L202.4,138.6 L215,141.7 L215.2,141.5 L218.7,142.4 L218.7,142.4 Z M218.7,142.4" id="2119"/>
                <path class="unit" d="M216.7,149.8 L195.3,144.5 L195.9,144.1 L195.6,143.2 L197,142.2 L219.5,147.8 L216.7,149.8 L216.7,149.8 Z M216.7,149.8" id="2120"/>
                <path class="unit" d="M214.1,151.7 L192.7,146.4 L195.2,144.6 L216.6,149.9 L214.1,151.7 L214.1,151.7 Z M214.1,151.7" id="2121"/>
                <path class="unit" d="M192.5,146.5 L213.9,151.8 L208.8,155.4 L187.4,150.1 L192.5,146.5 L192.5,146.5 Z M192.5,146.5" id="2122"/>
                <path class="unit" d="M180,155.5 L187.3,150.3 L208.7,155.6 L201.4,160.8 L180,155.5 L180,155.5 Z M180,155.5" id="2123"/>
                <path class="unit" d="M201.1,160.9 L195.3,165 L175.8,160.1 L179.2,157.7 L178.7,156.3 L179.7,155.6 L201.1,160.9 L201.1,160.9 Z M201.1,160.9" id="2124"/>
                <path class="unit" d="M190,166.8 L172.7,162.4 L175.7,160.3 L195.2,165.2 L193.9,166.1 L191.7,165.6 L190,166.8 L190,166.8 Z M190,166.8" id="2125"/>
                <path class="unit" d="M186.9,169.1 L191.5,170.3 L189.1,172 L167.2,166.6 L169.6,164.9" id="2126"/>
                <path class="unit" d="M169.6,164.7 L172.6,162.6 L190,166.9 L187,169 M169.6,164.7 L186.9,169" id="2127"/>
                <path class="unit" d="M159.9,192.8 L151.5,190.7 L148.7,192.7 L130.7,188.2 L133.5,186.2 L125.4,184.2 L122.6,186.2 L104.6,181.7 L107.4,179.7 L92.3,175.9 L121.3,155.2 L188.8,172 L172.2,183.8 L175.5,184.6 L168.3,189.7 L165,188.9 L159.9,192.8 L159.9,192.8 Z M159.9,192.8" id="2129"/>
                <path class="unit" d="M158.5,140.5 L176.9,145.1 L168.2,151.3 L137.6,143.7 L144.6,138.7 L146.1,139 L149.1,136.8 L159.9,139.5 L158.5,140.5 L158.5,140.5 Z M158.5,140.5" id="2130"/>
                <path class="unit" d="M167.8,151.3 L137.4,143.7 L132.6,147.2 L139.9,149.2 L133.1,154.1 L135.4,154.6 L133.6,155.9 L151.6,160.4 L156.3,159.9 L167.8,151.3 L167.8,151.3 Z M167.8,151.3" id="2131"/>
                <path class="unit" d="M167.1,120.7 L159.3,126.3 L154.9,125.2 L162.7,119.6 L167.1,120.7 L167.1,120.7 Z M167.1,120.7" id="2133"/>
                <path class="unit" d="M178.2,121.2 L175,120.4 L176.1,119.6 L179.3,120.4 L178.2,121.2 L178.2,121.2 Z M178.2,121.2" id="2134"/>
                <path class="unit" d="M186.7,122.2 L185.6,123 L178.5,121.2 L179.6,120.4 L186.7,122.2 L186.7,122.2 Z M186.7,122.2" id="2135"/>
                <path class="unit" d="M185.5,123.1 L181.1,126.2" id="2136"/>
                <path class="unit" d="M181,126.3 L175.3,130.3 L159.5,126.4 L167.3,120.8 L168.6,121.1 L174.6,120.5 L185.3,123.1" id="2137"/>
                <path class="unit" d="M185.5,123.1 L185.7,123.2 L187,122.3 L197.8,125 L198.9,126.8 L192.5,131.3 L183.1,129 L185.4,127.4 L181.1,126.3" id="2138"/>
                <path class="unit" d="M192.3,131.4 L190.1,133 L180.7,130.6 L182.9,129 L192.3,131.4 L192.3,131.4 Z M192.3,131.4" id="2139"/>
                <path class="unit" d="M189.6,133 L181.8,133.4 L178.1,132.5 L180.5,130.8 L189.6,133 L189.6,133 Z M189.6,133" id="2140"/>
                <path class="unit" d="M170.1,130.7 L181.5,133.5 L178.8,135.5 L174.7,134.5 L174.3,134.8 L167,133 L170.1,130.7 L170.1,130.7 Z M170.1,130.7" id="2141"/>
                <path class="unit" d="M174.8,134.6 L180.6,136 L183.3,140.2 L178.5,139 L175.9,140.9 L160.9,137.2 L166.8,133 L174.4,134.9 L174.8,134.6 L174.8,134.6 Z M174.8,134.6" id="2142"/>
                <path class="unit" d="M183.3,140.5 L180.9,142.2 L176.2,141 L178.6,139.3 L183.3,140.5 L183.3,140.5 Z M183.3,140.5" id="2143"/>
                <path class="unit" d="M162.6,137.8 L180.7,142.3 L177.1,144.9 L159,140.4 C160.2,139.6 161.4,138.7 162.6,137.8 L162.6,137.8 L162.6,137.8 Z M162.6,137.8" id="2144"/>
                <path class="unit" d="M156.8,111.9 L164.9,106.1 L177.1,109.1 L169,115 L156.8,111.9 L156.8,111.9 Z M156.8,111.9" id="2145"/>
                <path class="unit" d="M181.3,110.5 L173.6,116 L169.2,114.9 L176.9,109.4 L181.3,110.5 L181.3,110.5 Z M181.3,110.5" id="2146"/>
                <path class="unit" d="M186.6,111.8 L178.9,117.3 L173.8,116.1 L181.5,110.6 L186.6,111.8 L186.6,111.8 Z M186.6,111.8" id="2147"/>
                <path class="unit" d="M191,112.9 L183.3,118.4 L179.2,117.4 L186.9,111.9 L191,112.9 L191,112.9 Z M191,112.9" id="2148"/>
                <path class="unit" d="M230.4,104.2 L225.7,107.5 L214.7,104.8 L217.8,102.6 L223.2,102.1 L225.5,100.4 L228.5,101.1 L230.4,104.2 L230.4,104.2 Z M230.4,104.2" id="2149"/>
                <path class="unit" d="M211.4,107.1 L214.5,104.9 L225.5,107.6 L222.5,109.8 L211.4,107.1 L211.4,107.1 Z M211.4,107.1" id="2150"/>
                <path class="unit" d="M208.7,109.8 L205.7,111.9 L202.4,111.1 L205.4,109 L208.7,109.8 L208.7,109.8 Z M208.7,109.8" id="2151"/>
                <path class="unit" d="M222.3,110 L219.2,112.2 L211.2,110.2 L214.3,108 L222.3,110 L222.3,110 Z M222.3,110" id="2152"/>
                <path class="unit" d="M219,112.3 L216,114.4 L208,112.4 L211,110.3 L219,112.3 L219,112.3 Z M219,112.3" id="2153"/>
                <path class="unit" d="M215.8,114.6 L212.9,116.6 L196.4,112.5 L198.4,111.1 L206.9,113.2 L207.8,112.6 L215.8,114.6 L215.8,114.6 Z M215.8,114.6" id="2154"/>
                <path class="unit" d="M209.8,118.8 L194.6,115 L195.3,114.5 L194.2,114.1 L196.3,112.5 L212.8,116.6 L209.8,118.8 L209.8,118.8 Z M209.8,118.8" id="2155"/>
                <path class="unit" d="M196.2,115.6 L190,120 L184.8,118.7 L190.3,114.8 L193.8,115.7 L194.5,115.2 L196.2,115.6 L196.2,115.6 Z M196.2,115.6" id="2156"/>
                <path class="unit" d="M202.8,122.4 L200.4,122.6 L190.2,120.1 L196.4,115.7 L209.6,119 L206.8,121 L204.5,121.2 L202.8,122.4 L202.8,122.4 Z M202.8,122.4" id="2157"/>
                <path class="unit" d="M262.2,41.6 L260.5,44.7 L257.9,44.6 L257.9,42.7 L260.2,41.1 L262.2,41.6 L262.2,41.6 Z M262.2,41.6" id="2158"/>
                <path class="unit" d="M263.9,45 L260.8,44.7 L262.5,41.6 L265.8,42.4 L263.9,45 L263.9,45 Z M263.9,45" id="2159"/>
                <path class="unit" d="M249.4,45.2 L249.4,45.2 L250.6,46 L248.3,46.9 L245.6,46.2 L247.7,44.7 L249.4,45.2 L249.4,45.2 Z M249.4,45.2" id="2160"/>
                <path class="unit" d="M271.4,43.8 L274.3,44.6 L271.3,45.8 L269.6,45.1 L271.4,43.8 L271.4,43.8 Z M271.4,43.8" id="2161"/>
                <path class="unit" d="M274,44.9 L277.6,45.8 L273.4,46.9 L271.6,45.9 L274,44.9 L274,44.9 Z M274,44.9" id="2162"/>
                <path class="unit" d="M281.2,47.8 L279.9,48.7 L275.7,48.9 C275.5,48.5 275.2,48.1 274.7,47.7 L274.5,47.6 L277.8,46.9 L281.2,47.8 L281.2,47.8 Z M281.2,47.8" id="2163"/>
                <path class="unit" d="M284.1,48.5 L280.9,50.8 L275.8,50.8 C275.9,50.2 275.9,49.6 275.7,49.2 L280.1,49 L281.5,48 L284.1,48.5 L284.1,48.5 Z M284.1,48.5" id="2164"/>
                <path class="unit" d="M280.8,50.9 L278.9,52.2 L275.4,52 L275.7,51.1 L275.8,50.8 L280.8,50.9 L280.8,50.9 Z M280.8,50.9" id="2165"/>
                <path class="unit" d="M279.8,52.6 L278,53.8 L274.8,53 L275.3,52.1 L278.9,52.3 L279.8,52.6 L279.8,52.6 Z M279.8,52.6" id="2166"/>
                <path class="unit" d="M327,44.7 L316.7,42.1 L319.8,39.9 L330.1,42.5 L327,44.7 L327,44.7 Z M327,44.7" id="2167"/>
                <path class="unit" d="M375.9,53.8 L341,45.1 L338.4,45.6 L337.7,44.3 L291.1,32.7 L328.2,6.2 L413,27.3 L375.9,53.8 L375.9,53.8 Z M375.9,53.8" id="2168"/>
                <path class="unit" d="M325.3,46 L320.6,46.5 L317.3,48.9 L318.3,50.5 L308.5,48.1 L315.8,42.9 L326.1,45.5 L325.3,46 L325.3,46 Z M325.3,46" id="2169"/>
                <path class="unit" d="M318.4,50.6 L319.6,52.5 L318.6,53.2 L318.8,53.3 L305.6,50 L305.8,50 L308.4,48.1 L318.4,50.6 L318.4,50.6 Z M318.4,50.6" id="2170"/>
                <path class="unit" d="M318.6,53.3 L310.8,58.8 L304,57.1 L305.8,55.5 L300,54 L305.6,50 L318.6,53.3 L318.6,53.3 Z M318.6,53.3" id="2171"/>
                <path class="unit" d="M293.7,50.7 L289.6,53.7 L310.6,58.9 L308.9,60.1 L296.6,61.5 L275.2,56.1 L285.7,48.6 L293.7,50.7 L293.7,50.7 Z M293.7,50.7" id="2172"/>
                <path class="unit" d="M297,63 L304.3,62.2 L306.5,62.7 L307.2,63.9 L305.9,64.8 L297.5,65.8 L296.1,63.7 L297,63 L297,63 Z M297,63" id="2173"/>
                <path class="unit" d="M354.8,53.3 L353.8,54 L346.2,52.1 L346.5,51.9 L345,50.1 L346.1,49.3 L352,50.8 L353.5,49.7 L374.3,54.9 L373.6,55.4 L366.3,56.2 L354.8,53.3 L354.8,53.3 Z M354.8,53.3" id="2174"/>
                <path class="unit" d="M359.5,54.7 L354.1,58.5 L361,60.2 L363.7,64.5 L362.1,65.7 L349.8,62.6 L350.9,61.8 L345.3,60.4 L349.8,57.2 L341.9,55.2 L346.1,52.2 L354,54.2 L355,53.5 L359.5,54.7 L359.5,54.7 Z M359.5,54.7" id="2175"/>
                <path class="unit" d="M349.2,57.3 L344.8,60.5 L348,61.3 L345.6,63 L351.1,64.4 L344.6,69.1 L323,63.6 L333.4,56.2 L341.5,55.3 L349.2,57.3 L349.2,57.3 Z M349.2,57.3" id="2176"/>
                <path class="unit" d="M314.1,77.3 L312.2,78.6 L304.6,76.7 L306.4,75.4 L314.1,77.3 L314.1,77.3 Z M314.1,77.3" id="2177"/>
                <path class="unit" d="M344.3,76.4 L335.6,82.5 L306.6,75.3 L307.3,74.8 L311.3,74.2 C313.4,72.7 315.4,71.3 317.5,69.8 L317.5,69.8 M344.3,76.4 L317.6,69.8" id="2178"/>
                <path class="unit" d="M319.6,82.2 L318.3,83.1 L312,81.5 L304.4,86.9 L293.9,84.3 L302.8,77.9 L319.6,82.2 L319.6,82.2 Z M319.6,82.2" id="2179"/>
                <path class="unit" d="M293.7,84.5 L307,87.8 L313.1,83.4 L330.3,87.7 L333.3,85.5 L343.9,88.1 L347.5,85.5 L351.1,86.4 L335.5,97.5 L324.9,94.9 L321.6,97.3 L287.6,88.8 L293.7,84.5 L293.7,84.5 Z M293.7,84.5" id="2180"/>
                <path class="unit" d="M297.8,91.7 L295.3,93.5 L284.8,90.9 L287.3,89.1 L297.8,91.7 L297.8,91.7 Z M297.8,91.7" id="2181"/>
                <path class="unit" d="M280.9,93.7 L283.9,91.5 L294.4,94.1 L291.4,96.3 L280.9,93.7 L280.9,93.7 Z M280.9,93.7" id="2182"/>
                <path class="unit" d="M291.2,96.4 L288.2,98.5 L277.7,95.9 L280.6,93.8 L291.2,96.4 L291.2,96.4 Z M291.2,96.4" id="2183"/>
                <path class="unit" d="M287.8,102.9 L273.1,99.2 L277.6,96 L290.7,99.3 L287.8,101.3 L296.1,103.4 L295.5,103.8 L288.7,102.1 L287.8,102.9 L287.8,102.9 Z M287.8,102.9" id="2184"/>
                <path class="unit" d="M241.6,110.6 L261.7,108.5 L263,108.8 L269.8,103.9 L268.2,103.5 L267.8,103 L269.5,101.8 L291.3,107.2 L296.5,103.5 L317.3,108.7 L318.9,107.6 L323.9,108.8 L323.5,109.1 L330.2,110.8 L330.7,111.7 L329.9,112.2 L332,115.6 L333.7,116 L334.2,116.9 L329.4,120.3 L326.9,120.6 L319.2,126.1 L319.8,127.1 L314.4,130.9 L311.8,131.2 L310.4,130.8 L303.1,131.6 L301.9,132.5 L298.6,132.8 L287.4,130 L288.8,129 L246.5,118.4 L241.6,110.6 L241.6,110.6 Z M241.6,110.6" id="2185"/>
                <path class="unit" d="M292.9,64.1 L294.7,66.1 L294.3,68.2 L292.4,69.6 L285.8,67.9 L287,67 L286,66.8 L289,64.7 L286.4,64.1 L288.1,62.9 L292.9,64.1 L292.9,64.1 Z M292.9,64.1" id="2186"/>
                <path class="unit" d="M293.6,71.5 L292.2,72.5 L282.7,70.1 L283.5,69.6 L282.5,69.3 L285.8,66.9 L286.5,67.1 L285.3,68 L292.3,69.7 L293.6,71.5 L293.6,71.5 Z M293.6,71.5" id="2187"/>
                <path class="unit" d="M292.1,72.6 L289.7,74.3 L279.2,71.7 L280.8,70.6 L281.8,70.9 L282.7,70.3 L292.1,72.6 L292.1,72.6 Z M292.1,72.6" id="2188"/>
                <path class="unit" d="M283,69.7 L281.6,70.7 L280.9,70.5 L282.3,69.5 L283,69.7 L283,69.7 Z M283,69.7" id="2189"/>
                <path class="unit" d="M289.5,74.5 L286.7,76.5 L276.2,73.9 L279,71.9 L289.5,74.5 L289.5,74.5 Z M289.5,74.5" id="2190"/>
                <path class="unit" d="M275.3,74.5 L285.8,77.1 L282.6,79.4 L272,76.8 L275.3,74.5 L275.3,74.5 Z M275.3,74.5" id="2191"/>
                <path class="unit" d="M255,83.6 L247.4,81.7 L248.3,81 L242.6,79.6 L253,72.1 L282.4,79.4 L274.6,84.9 L258.5,80.9 L255,83.6 L255,83.6 Z M255,83.6" id="2192"/>
                <path class="unit" d="M247.8,81.2 L246.2,82.3 L240.8,81 L242.4,79.8 L247.8,81.2 L247.8,81.2 Z M247.8,81.2" id="2193"/>
                <path class="unit" d="M274.4,85.2 L270.1,88.2 L246.4,82.3 L247.1,81.8 L255,83.8 L258.6,81.2 L274.4,85.2 L274.4,85.2 Z M274.4,85.2" id="2194"/>
                <path class="unit" d="M270,88.4 L267.2,90.4 L251.4,86.5 L254.2,84.5 L270,88.4 L270,88.4 Z M270,88.4" id="2195"/>
                <path class="unit" d="M267,90.6 L260.6,95.1 L254.5,95.7 L251.7,91.2 L253,90.2 L247.9,88.9 L251.2,86.5 L267,90.6 L267,90.6 Z M267,90.6" id="2196"/>
                <path class="unit" d="M251.3,91.2 L254.2,95.7 L241.9,97 L238,96 L247.7,89 L252.5,90.2 L251.3,91.2 L251.3,91.2 Z M251.3,91.2" id="2197"/>
                <path class="unit" d="M246.5,49.6 L247.1,51.9 L244.3,53.9 L237.6,52.2 L242.7,48.6 L246.5,49.6 L246.5,49.6 Z M246.5,49.6" id="2198"/>
                <path class="unit" d="M252.5,52.7 L249.1,55.1 L244.6,54 L247.5,52 L246.9,49.7 L251.6,49.4 L252.5,52.7 L252.5,52.7 Z M252.5,52.7" id="2199"/>
                <path class="unit" d="M256.3,49.1 L257.7,53 L253.3,56.1 L249.4,55.1 C250.6,54.3 251.7,53.5 252.8,52.6 L251.8,49.2 L256.3,49.1 L256.3,49.1 Z M256.3,49.1" id="2200"/>
                <path class="unit" d="M262,47.2 L262.6,47.3 L264.7,48.1 L266.3,47.9 C268.3,48.8 269.3,49.6 269.3,50.4 C269.3,51 268.9,51.7 268.3,52.5 L267.6,53.2 L267.2,53.5 L263.9,53.9 L258.8,57.6 L253.7,56.3 L258.1,53.1 L256.7,49.1 L259.9,46.8 L262,47.2 L262,47.2 Z M262,47.2" id="2201"/>
                <path class="unit" d="M266.9,53.6 L266,54.3 L267.2,56.2 L265.7,57.3 L266.2,57.4 L264.2,58.9 L259.2,57.6 L264.2,54 L266.9,53.6 L266.9,53.6 Z M266.9,53.6" id="2202"/>
                <path class="unit" d="M271.4,58.8 L269.5,60.2 L264.4,59 L266.4,57.6 L271.4,58.8 L271.4,58.8 Z M271.4,58.8" id="2203"/>
                <path class="unit" d="M271.7,58.8 L276.8,60.1 L274.9,61.4 L269.7,60.2 L271.7,58.8 L271.7,58.8 Z M271.7,58.8" id="2204"/>
                <path class="unit" d="M282,61.4 L280.2,62.7 L275.3,61.5 L277.2,60.2 L282,61.4 L282,61.4 Z M282,61.4" id="2205"/>
                <path class="unit" d="M280.5,62.7 L282.3,61.4 L286.9,62.5 L285.2,63.7 L280.5,62.7 L280.5,62.7 Z M280.5,62.7" id="2206"/>
                <path class="unit" d="M198,23.6 L203.3,24.9 L199.6,28.1 L194.2,27 L198,23.6 L198,23.6 Z M198,23.6" id="2207"/>
                <path class="unit" d="M88.9,81.9 L99.2,85.6 L88.9,81.9 L80.6,78.9 L77.6,81.2 L96,87.7 L99.2,85.5" id="2208"/>
                <path class="unit" d="M244.4,115.7 L246.3,118.6 L276.9,126.2 L272.3,129.5 L272.9,129.7 L267.9,133.3 L223.8,122.3 L226.8,120.1 L232.3,121.5 L235.7,119.1 L230.2,117.7 L235.7,113.8 L244.4,115.7 L244.4,115.7 Z M244.4,115.7" id="2209"/>
                <path class="unit" d="M316.9,68 L318.7,66.7 L347.7,73.9 L344.3,76.4 L317.6,69.8 L316.9,68" id="2210"/>
                <path class="unit" d="M247.6,44.7 L250.6,42.6 L251.1,42.7 L251.6,42.3 L254,42.9 L255.2,42.1 L257.5,40.4 L259.8,41 L257.5,42.7 L257.5,44.6 L251.2,45.3 L250.4,44.8 L249.4,45.2 L247.6,44.7 L247.6,44.7 Z M247.6,44.7" id="2211"/>
                <path class="unit" d="M87.8,91.9 L90.9,89.7 L73.5,83.5 L70.3,85.8 L87.8,91.9 L87.8,91.9 Z M87.8,91.9" id="2212"/>
        </g>
    </g>
</svg>