<?xml version="1.0" encoding="utf-8"?>
<!DOCTYPE svg PUBLIC "-//W3C//DTD SVG 1.1//EN" "http://www.w3.org/Graphics/SVG/1.1/DTD/svg11.dtd">
<svg version="1.1" xmlns="http://www.w3.org/2000/svg" xmlns:xlink="http://www.w3.org/1999/xlink" xml:space="preserve">
<g class="level" id="level1">
            <g class="shadow">
                <path d="M324.084,140.042 L326.811,138.679 L326.874,138.7 L410.252,96.969 L412.027,85.193 L219.64,30.035 L218.756,30.478 C169.747,55.009 119.958,79.922 70.771,104.523 L69.596,105.111 L69.221,107.572 L66.347,106.744 L65.459,107.189 C57.545,111.16 49.513,115.179 41.585,119.136 L40.409,119.723 L38.603,131.522 L117.251,154.053 L108.805,158.284 L107.029,170.058 L161.115,185.579 L174.267,178.99 L172.785,188.839 L227.716,204.57 L249.144,193.859 L247.911,202.056 L291.847,214.664 L261.493,229.849 L259.684,241.648 L345.795,266.331 L388.141,245.135 L388.141,245.073 L399.017,239.625 L400.062,232.799 L389.836,229.873 L404.366,222.601 L405.329,216.34 L381.24,201.528 L375.969,200.018 L389.73,193.137 L391.536,181.341 L312.678,158.731 L305.578,162.293 L306.014,159.321 L302.933,158.434 L303.272,156.168 L296.082,154.112 L324.062,140.104 L324.084,140.042 L324.084,140.042 Z M291.104,175.695 L287.883,174.766 L291.522,172.946 L291.104,175.695 L291.104,175.695 Z M291.104,175.695" class="shadow"/>
            </g>
            <g class="outline">
                <path d="M324.084,110.042 L326.811,108.679 L326.874,108.7 L410.252,66.969 L412.027,55.193 L219.641,0.035 L218.757,0.478 C169.748,25.01 119.959,49.922 70.772,74.523 L69.597,75.111 L69.222,77.572 L66.348,76.744 L65.46,77.189 C57.546,81.16 49.514,85.178 41.586,89.136 L40.41,89.723 L38.604,101.522 L117.252,124.054 L108.806,128.284 L107.03,140.058 L161.116,155.581 L174.268,148.991 L172.786,158.841 L227.717,174.572 L249.145,163.86 L247.912,172.058 L291.848,184.667 L261.494,199.852 L259.685,211.65 L345.796,236.335 L388.142,215.138 L388.142,215.076 L399.02,209.626 L400.064,202.8 L389.839,199.875 L404.367,192.603 L405.33,186.342 L399.869,183.312 L399.786,175.166 L386.827,171.937 L383.214,173.356 L381.138,171.546 L375.972,170.021 L389.733,163.14 L391.539,151.343 L312.681,128.734 L305.581,132.296 L306.018,129.325 L302.936,128.438 L303.275,126.172 L296.085,124.116 L324.065,110.108 L324.084,110.042 L324.084,110.042 Z M291.104,145.695 L287.883,144.766 L291.522,142.946 L291.104,145.695 L291.104,145.695 Z M291.104,145.695" class="outline"/>
            </g>
            <g class="label">
                <path d="M22.399,20.85 C21.391,20.85 20.638,20.962 20.126,21.122 C19.726,21.25 19.614,21.49 19.614,21.89 L19.614,31.59 C19.614,31.99 19.87,32.23 20.222,32.23 C20.574,32.23 20.846,31.99 20.846,31.59 L20.846,27.972 C21.374,28.004 21.679,28.02 22.319,28.02 C25.2,28.02 26.721,26.627 26.721,24.354 C26.721,22.338 25.393,20.85 22.399,20.85 L22.399,20.85 Z M22.255,26.853 C21.663,26.853 21.375,26.853 20.846,26.821 L20.846,22.147 C21.294,22.083 21.839,22.019 22.367,22.019 C24.64,22.019 25.456,23.107 25.456,24.388 C25.457,25.7 24.752,26.853 22.255,26.853 L22.255,26.853 Z M103.279,20.85 C102.671,20.85 101.71,20.898 101.07,21.058 C100.654,21.17 100.494,21.458 100.494,21.842 L100.494,31.318 C100.494,31.702 100.638,32.022 101.198,32.118 C101.71,32.214 102.351,32.294 103.439,32.294 C106.976,32.294 108.513,29.749 108.513,26.58 C108.513,23.267 106.96,20.85 103.279,20.85 L103.279,20.85 Z M103.471,31.11 C102.815,31.11 102.239,31.094 101.726,31.014 L101.726,22.13 C102.19,22.066 102.814,22.034 103.295,22.034 C106.16,22.034 107.265,23.907 107.265,26.468 C107.265,29.253 106.144,31.11 103.471,31.11 L103.471,31.11 Z M7.874,20.914 C7.506,20.914 7.25,21.17 7.25,21.57 L7.25,30.325 C6.417,30.869 5.233,31.094 4.513,31.094 C2.656,31.094 1.52,30.181 1.52,28.116 L1.52,21.57 C1.52,21.17 1.264,20.914 0.912,20.914 C0.56,20.914 0.288,21.17 0.288,21.57 L0.288,28.357 C0.288,30.694 1.745,32.295 4.273,32.295 C6.082,32.295 7.122,31.815 8.051,31.287 C8.403,31.079 8.483,30.807 8.483,30.423 L8.483,21.571 C8.482,21.17 8.226,20.914 7.874,20.914 L7.874,20.914 Z M72.848,20.85 C69.967,20.85 68.142,23.187 68.142,26.788 C68.142,30.182 69.934,32.294 72.8,32.294 C75.681,32.294 77.506,29.941 77.506,26.34 C77.505,22.947 75.697,20.85 72.848,20.85 L72.848,20.85 Z M72.832,31.11 C70.687,31.11 69.438,29.365 69.438,26.853 C69.438,23.892 70.67,22.035 72.815,22.035 C75.008,22.035 76.209,23.78 76.209,26.277 C76.209,29.237 74.976,31.11 72.832,31.11 L72.832,31.11 Z M13.568,20.85 C12.56,20.85 11.807,20.962 11.295,21.122 C10.895,21.25 10.783,21.49 10.783,21.89 L10.783,31.59 C10.783,31.99 11.039,32.23 11.391,32.23 C11.743,32.23 12.015,31.99 12.015,31.59 L12.015,27.972 C12.543,28.004 12.848,28.02 13.488,28.02 C16.369,28.02 17.89,26.627 17.89,24.354 C17.89,22.338 16.561,20.85 13.568,20.85 L13.568,20.85 Z M13.424,26.853 C12.832,26.853 12.544,26.853 12.015,26.821 L12.015,22.147 C12.463,22.083 13.008,22.019 13.536,22.019 C15.809,22.019 16.625,23.107 16.625,24.388 C16.625,25.7 15.921,26.853 13.424,26.853 L13.424,26.853 Z M34.448,30.95 L29.677,30.95 L29.677,27.092 L33.551,27.092 C33.935,27.092 34.143,26.772 34.143,26.5 C34.143,26.212 33.935,25.924 33.551,25.924 L29.677,25.924 L29.677,22.195 L34.287,22.195 C34.703,22.195 34.927,21.923 34.927,21.619 C34.927,21.283 34.703,20.979 34.287,20.979 L29.501,20.979 C28.813,20.979 28.444,21.347 28.444,21.939 L28.444,31.207 C28.444,31.799 28.812,32.167 29.501,32.167 L34.447,32.167 C34.831,32.167 35.055,31.831 35.055,31.559 C35.057,31.222 34.833,30.95 34.448,30.95 L34.448,30.95 Z M65.216,28.053 C64.928,27.637 64.608,27.317 64.239,27.077 C65.664,26.58 66.592,25.588 66.592,24.068 C66.592,22.131 65.28,20.851 62.383,20.851 C61.279,20.851 60.526,20.963 60.014,21.123 C59.614,21.251 59.502,21.491 59.502,21.891 L59.502,31.591 C59.502,31.991 59.774,32.231 60.127,32.231 C60.479,32.231 60.751,31.991 60.751,31.591 L60.751,27.413 L62,27.413 C63.168,27.413 63.633,27.893 64.209,28.822 C64.609,29.462 65.025,30.39 65.521,31.783 C65.617,32.039 65.793,32.231 66.129,32.231 C66.465,32.231 66.754,31.991 66.754,31.607 C66.754,31.495 66.722,31.335 66.658,31.175 C66.224,30.021 65.712,28.821 65.216,28.053 L65.216,28.053 Z M62.19,26.196 L60.75,26.196 L60.75,22.162 C61.198,22.098 61.63,22.034 62.319,22.034 C64.608,22.034 65.328,22.93 65.328,24.115 C65.328,25.764 63.775,26.244 62.19,26.196 L62.19,26.196 Z M86.88,20.914 C86.512,20.914 86.256,21.17 86.256,21.57 L86.256,30.325 C85.423,30.869 84.239,31.094 83.519,31.094 C81.662,31.094 80.526,30.181 80.526,28.116 L80.526,21.57 C80.526,21.17 80.27,20.914 79.918,20.914 C79.566,20.914 79.294,21.17 79.294,21.57 L79.294,28.357 C79.294,30.694 80.751,32.295 83.279,32.295 C85.088,32.295 86.128,31.815 87.057,31.287 C87.409,31.079 87.489,30.807 87.489,30.423 L87.489,21.571 C87.489,21.17 87.232,20.914 86.88,20.914 L86.88,20.914 Z M97.585,20.914 C97.232,20.914 97.024,21.17 97.024,21.57 L97.024,30.133 L96.992,30.133 L91.422,21.393 C91.214,21.057 90.942,20.913 90.589,20.913 C90.109,20.913 89.789,21.249 89.789,21.825 L89.789,31.589 C89.789,31.989 90.045,32.229 90.381,32.229 C90.733,32.229 90.973,31.989 90.973,31.589 L90.973,22.929 L91.005,22.929 L96.511,31.685 C96.719,32.005 96.975,32.229 97.344,32.229 C97.872,32.229 98.16,31.813 98.16,31.381 L98.16,21.569 C98.161,21.17 97.937,20.914 97.585,20.914 L97.585,20.914 Z M42.496,28.053 C42.208,27.637 41.888,27.317 41.519,27.077 C42.944,26.58 43.872,25.588 43.872,24.068 C43.872,22.131 42.56,20.851 39.663,20.851 C38.559,20.851 37.806,20.963 37.294,21.123 C36.894,21.251 36.782,21.491 36.782,21.891 L36.782,31.591 C36.782,31.991 37.054,32.231 37.407,32.231 C37.759,32.231 38.031,31.991 38.031,31.591 L38.031,27.413 L39.28,27.413 C40.448,27.413 40.913,27.893 41.489,28.822 C41.889,29.462 42.305,30.39 42.801,31.783 C42.897,32.039 43.073,32.231 43.409,32.231 C43.745,32.231 44.034,31.991 44.034,31.607 C44.034,31.495 44.002,31.335 43.938,31.175 C43.504,30.021 42.992,28.821 42.496,28.053 L42.496,28.053 Z M39.471,26.196 L38.031,26.196 L38.031,22.162 C38.479,22.098 38.911,22.034 39.6,22.034 C41.889,22.034 42.609,22.93 42.609,24.115 C42.608,25.764 41.056,26.244 39.471,26.196 L39.471,26.196 Z M56.545,25.94 L53.552,25.94 C53.152,25.94 52.927,26.244 52.927,26.516 C52.927,26.836 53.135,27.077 53.552,27.077 L56.033,27.077 L56.033,30.726 C55.473,30.95 54.784,31.11 53.856,31.11 C51.631,31.11 50.207,29.589 50.207,26.709 C50.207,23.556 51.664,22.067 53.904,22.067 C54.688,22.067 55.28,22.211 56.001,22.467 C56.209,22.547 56.401,22.627 56.562,22.627 C56.866,22.627 57.122,22.403 57.122,22.051 C57.122,21.795 56.978,21.619 56.738,21.491 C56.098,21.155 55.121,20.851 54.001,20.851 C51.152,20.851 48.943,22.804 48.943,26.773 C48.943,30.31 50.912,32.295 53.857,32.295 C55.201,32.295 56.034,31.991 56.706,31.687 C57.026,31.543 57.234,31.334 57.234,30.935 L57.234,26.629 C57.233,26.196 56.961,25.94 56.545,25.94 L56.545,25.94 Z M56.545,25.94" class="Shape"/>
            </g>
            <g class="background">
                <path d="M403.284,187.724 L398.087,184.824 L398.087,176.791 L386.788,174.088 L383.143,175.475 L380.927,173.978 L268.24,141.661 L258.193,139.123 L227.082,130.198 L195.991,116.851 C190.211,114.313 186.868,112.811 185.967,112.346 L182.984,110.676 L183.619,110.424 L183.724,110.382 L185.65,110.001 L187.49,109.853 L189.774,109.853 L191.825,109.959 L191.951,109.959 L194.997,110.275 L195.081,110.275 L195.969,110.403 L200.855,107.949 L299.859,136.354 L303.411,134.576 L303.898,131.257 L203.245,102.408 L212.212,97.903 L248.78,87.179 L322.658,108.372 L327.756,105.834 L328.241,102.514 L259.1,82.696 L268.914,77.789 L283.548,65.013 L284.056,61.692 L254.424,53.19 L172.997,93.967 L157.261,95.384 L144.551,102.384 L73,81.868 L67.312,84.702 L66.804,88.023 L145.334,110.546 L152.208,118.076 L250.111,146.142 L254.34,154.836 L355,183.704 L365.298,191.846 L349.67,199.673 L349.162,202.993 L386.278,213.631 L397.424,208.049 L397.932,204.729 L383.593,200.626 L402.778,191.024 L403.284,187.724 L403.284,187.724 Z M403.284,187.724" class="walkway"/>
                <path d="M366.886,193.71 L368.157,185.418 L355.32,175.29 L272.708,151.582 L252,161.945 L250.751,170.236 L298.804,184.025 L263.801,201.536 L262.532,209.83 L345.547,233.624 L385.606,213.571 L386.874,205.3 L359.465,197.433 L366.886,193.71 L366.886,193.71 Z M375.24,167.548 L387.421,161.456 L388.692,153.165 L312.932,131.444 L294.426,140.729 L293.155,148.999 L343.893,163.55 L350.24,160.378 L375.24,167.548 L375.24,167.548 Z M377.373,177.67 L377.373,189.355 L388.952,192.33 L398.087,188.718 L398.087,176.79 L386.788,174.087 L377.373,177.67 L377.373,177.67 Z M219.893,2.746 C170.57,27.436 121.244,52.117 71.905,76.793 L71.293,80.811 L66.598,79.457 C58.646,83.448 50.686,87.431 42.72,91.407 L41.451,99.698 L124.21,123.405 L111.119,129.962 L109.871,138.232 L160.864,152.867 L181.253,142.652 L186.181,144.069 L176.875,148.721 L175.627,157.012 L227.465,171.861 L258.725,156.231 L259.996,147.94 L254.749,146.438 L251.382,141.299 L256.441,142.505 L269.449,142.188 L280.829,145.466 L299.165,136.288 L300.435,127.997 L289.121,124.761 L321.987,108.305 L322.539,104.753 L326.685,105.959 L407.943,65.288 L409.19,57.018 L219.893,2.746 L219.893,2.746 Z M268.518,69.306 L254.136,76.498 L253.586,80.051 L248.637,78.634 L211.816,89.42 L198.237,96.232 L197.518,100.948 L195.677,101.858 L189.755,101.372 C186.371,101.274 183.967,101.548 182.543,102.197 C181.358,102.747 180.745,103.311 180.703,103.889 L180.703,103.827 L179.434,112.118 L179.476,112.499 L179.666,112.879 L179.772,113.026 L179.983,113.259 L180.426,113.639 L181.21,114.167 L184.233,115.796 L184.254,115.817 L203.481,124.256 L152.572,109.662 L147.031,103.592 L151.938,100.884 L151.155,106.13 L171.84,112.051 C174.265,110.853 176.684,109.647 179.095,108.434 L180.341,100.164 L170.76,97.393 L171.479,97.33 L171.669,97.246 L171.691,97.267 L252.864,56.637 L275.579,63.151 L268.518,69.306 L268.518,69.306 Z M268.518,69.306" class="wall"/>
            </g>
            <g class="ceilings">
                <path class="unit" d="M283.025,56.806 L278.648,60.634 L304.854,68.143 L311.305,64.906 L283.025,56.806 Z M283.025,56.806" id="2001"/>
                <path class="unit" d="M261.2,73.112 L254.495,76.476 L326.743,97.203 L333.449,93.839 L261.2,73.112 Z M261.2,73.112" id="2002"/>
                <path class="unit" d="M211.096,89.926 L198.595,96.188 L281.354,119.917 L293.855,113.657 L211.096,89.926 Z M211.096,89.926" id="2003"/>
                <path class="unit" d="M230.151,84.216 L221.014,86.881 L301.321,109.914 L308.067,106.55 L230.151,84.216 Z M230.151,84.216" id="2004"/>
                <path class="unit" d="M220.484,87.05 L211.75,89.609 L211.476,89.735 L294.236,113.465 C296.479,112.353 298.715,111.232 300.942,110.104 L220.484,87.05 L220.484,87.05 Z M220.484,87.05" id="2005"/>
                <path class="unit" d="M312.53,131.783 L294.764,140.688 L318.94,147.625 L336.704,138.719 L312.53,131.783 Z M312.53,131.783" id="2006"/>
                <path class="unit" d="M268.308,69.56 L261.581,72.922 L333.83,93.649 L340.554,90.287 L268.308,69.56 Z M268.308,69.56" id="2007"/>
                <path class="unit" d="M312.086,65.139 L305.233,68.565 L278.373,60.845 L268.645,69.348 L340.936,90.096 L362.126,79.478 L312.086,65.139 Z M312.086,65.139" id="2008"/>
                <path class="unit" d="M337.551,138.973 L319.765,147.857 L343.938,154.794 L361.726,145.889 L337.551,138.973 Z M337.551,138.973" id="2009"/>
                <path class="unit" d="M362.551,146.123 L351.108,151.854 L375.282,158.79 L386.727,153.06 L362.551,146.123 Z M362.551,146.123" id="2010"/>
                <path class="unit" d="M303.458,181.845 L264.14,201.514 L345.588,224.863 L384.884,205.193 L303.458,181.845 Z M303.458,181.845" id="2011"/>
                <path class="unit" d="M287.51,156.296 L267.587,166.278 L281.905,170.382 L301.827,160.421 L287.51,156.296 Z M287.51,156.296" id="2012"/>
                <path class="unit" d="M272.282,151.938 L252.358,161.921 L266.74,166.046 L286.686,156.062 L272.282,151.938 Z M272.282,151.938" id="2013"/>
                <path class="unit" d="M219.513,3.106 L174.78,25.483 L362.508,79.309 L407.239,56.912 L219.513,3.106 Z M219.513,3.106" id="2014"/>
                <path class="unit" d="M174.399,25.674 L161.604,32.081 L239.732,54.479 L252.549,48.07 L174.399,25.674 Z M174.399,25.674" id="2015"/>
                <path class="unit" d="M161.223,32.272 L148.11,38.829 L226.26,61.227 L239.373,54.649 L161.223,32.272 Z M161.223,32.272" id="2016"/>
                <path class="unit" d="M147.751,39.019 L133.855,45.956 L211.983,68.354 L225.879,61.417 L147.751,39.019 Z M147.751,39.019" id="2017"/>
                <path class="unit" d="M114.459,55.664 L107.734,59.027 L185.883,81.424 L192.587,78.062 L114.459,55.664 Z M114.459,55.664" id="2018"/>
                <path class="unit" d="M159.255,94.58 L152.784,97.816 L171.881,103.294 C174.054,102.222 176.217,101.145 178.375,100.058 L159.255,94.58 L159.255,94.58 Z M159.255,94.58" id="2019"/>
                <path class="unit" d="M200.246,99.74 L195.424,102.151 L195.147,102.109 L190.093,101.623 C186.483,101.44 183.96,101.686 182.521,102.363 C180.928,103.095 180.42,103.858 181,104.647 C181.338,105.112 182.423,105.832 184.256,106.805 L184.996,107.185 C185.631,107.538 188.817,108.969 194.557,111.479 L211.56,102.977 L200.246,99.74 L200.246,99.74 Z M200.246,99.74" id="2020"/>
                <path class="unit" d="M100.396,62.685 L93.627,66.09 L171.777,88.488 L178.545,85.104 L100.396,62.685 Z M100.396,62.685" id="2021"/>
                <path class="unit" d="M107.354,59.216 L100.776,62.496 L178.925,84.915 L185.482,81.614 L107.354,59.216 Z M107.354,59.216" id="2022"/>
                <path class="unit" d="M86.163,69.813 L79.458,73.175 L149.78,93.333 L155.597,90.117 L156.654,90.032 L86.163,69.813 Z M86.163,69.813" id="2023"/>
                <path class="unit" d="M79.077,73.366 L72.267,76.771 L143.034,97.054 L149.421,93.543 L79.077,73.366 Z M79.077,73.366" id="2024"/>
                <path class="unit" d="M144.684,113.318 L168.963,120.299 L175.901,116.808 L151.6,109.851 L144.684,113.318" id="2025"/>
                <path class="unit" d="M144.176,102.151 L66.217,79.796 L43.08,91.386 L134.743,117.676 L150.922,109.576 L144.176,102.151 Z M144.176,102.151" id="2026"/>
                <path class="unit" d="M176.684,117.042 L169.366,120.7 L144.282,113.51 L111.479,129.942 L160.906,144.113 L201.027,124.021 L176.684,117.042 Z M176.684,117.042" id="2027"/>
                <path class="unit" d="M201.81,124.253 L182.098,134.13 L196.734,138.318 L216.467,128.44 L201.81,124.253 Z M201.81,124.253" id="2028"/>
                <path class="unit" d="M93.248,66.259 L86.542,69.624 L157.459,89.969 L171.396,88.678 L93.248,66.259 Z M93.248,66.259" id="2029"/>
                <path class="unit" d="M133.474,46.146 L122.033,51.856 L200.181,74.275 C204.003,72.373 207.816,70.462 211.624,68.545 L133.474,46.146 L133.474,46.146 Z M133.474,46.146" id="2030"/>
                <path class="unit" d="M212.384,103.209 L195.253,111.775 L205.511,116.217 L224.546,106.698 L212.384,103.209 Z M212.384,103.209" id="2031"/>
                <path class="unit" d="M238.654,110.738 L217.461,121.355 L226.07,125.036 L227.93,125.564 L250.667,114.187 L238.654,110.738 Z M238.654,110.738" id="2032"/>
                <path class="unit" d="M217.25,128.673 L197.538,138.55 L212.195,142.759 L231.927,132.881 L217.25,128.673 Z M217.25,128.673" id="2033"/>
                <path class="unit" d="M254.841,146.461 L248.911,137.747 L220.277,153.772 L186.211,144.219 L177.255,148.703 L227.529,163.106 L258.877,147.857 L254.841,146.461 Z M254.841,146.461" id="2034"/>
                <path class="unit" d="M225.33,106.931 L206.167,116.512 L216.784,121.082 L237.871,110.527 L225.33,106.931 Z M225.33,106.931" id="2035"/>
                <path class="unit" d="M251.449,114.419 L228.713,125.797 L241.043,129.329 L263.801,117.951 L251.449,114.419 Z M251.449,114.419" id="2036"/>
                <path class="unit" d="M232.777,132.881 L212.091,143.162 L196.652,138.741 L186.686,143.787 L220.357,153.135 L248.304,137.591 L232.777,132.881 Z M232.777,132.881" id="2037"/>
                <path class="unit" d="M121.652,52.068 L114.841,55.473 L192.991,77.871 L199.801,74.466 L121.652,52.068 Z M121.652,52.068" id="2038"/>
                <path class="unit" d="M239.309,81.53 L230.68,84.068 L248.128,89.081 L248.15,89.081 L255.17,86.522 L239.309,81.53 Z M239.309,81.53" id="2039"/>
                <path class="unit" d="M258.026,121.427 L241.827,129.562 L256.863,133.877 L269.594,133.409 L279.26,127.651 L258.026,121.427 Z M258.026,121.427" id="2040"/>
                <path class="unit" d="M264.561,118.184 L258.343,121.292 L279.845,127.641 L269.892,133.539 L280.89,136.71 L299.312,127.85 L264.561,118.184 Z M264.561,118.184" id="2041"/>
                <path class="unit" d="M353.878,175.331 L348.231,173.724 L328.479,183.602 L328.287,183.686 L354.451,191.194 L366.379,185.229 L353.878,175.331 Z M353.878,175.331" id="2042"/>
                <path class="unit" d="M324.521,167.019 L324.312,166.956 L304.388,176.939 L304.769,177.044 L327.632,183.368 L347.491,173.427 L324.521,167.019 Z M324.521,167.019" id="2043"/>
                <path class="unit" d="M302.632,160.632 L282.688,170.614 L303.901,176.79 L323.72,166.786 L302.632,160.632 Z M302.632,160.632" id="2044"/>
                <path class="unit" d="M248.107,78.949 L239.309,81.53 L255.17,86.522 L248.15,89.081 L308.449,106.361 L321.286,99.93 L248.107,78.949 Z M248.107,78.949" id="2045"/>
                <path class="unit" d="M387.054,174.087 L377.373,177.67 L377.373,183.209 L389.43,186.38 L398.354,183.368 L398.354,176.79 L387.054,174.087 Z M387.054,174.087" id="2046"/>
        </g>
    </g>
</svg>