<?xml version="1.0" encoding="utf-8"?>
<!DOCTYPE svg PUBLIC "-//W3C//DTD SVG 1.1//EN" "http://www.w3.org/Graphics/SVG/1.1/DTD/svg11.dtd">
<svg version="1.1" xmlns="http://www.w3.org/2000/svg" xmlns:xlink="http://www.w3.org/1999/xlink" xml:space="preserve">
<g class="level" id="level2">
            <g class="outline">
                    <path d="M88.8,49.2 L86.8,41 L16.9,28.6 L1.2,75.5 L3.2,83.7 L35,89.3 L39.9,87.6 L47.6,64.6 L58.5,66.5 L59.1,64.6 L64.2,65.5 L65.5,61.6 L83.5,64.8 L88.8,49.2 L88.8,49.2 Z M247.1,68.4 L236.7,64.2 L223.4,61.8 L222.1,65.6 L191.3,60.2 L188.9,67.4 L107.7,53.1 L97.9,58.6 L94.3,69.4 L94.2,69.7 C94.2,69.7 94,71.8 90.6,73.9 C87.6,75.8 83.5,75.2 82.3,75 L80.8,74.9 L74.9,92.7 L76.6,100.3 L84.5,101.8 L83.5,104.8 L85.4,112.5 L220,136.3 L221.1,136.5 L228.8,121.5 L231.5,113.5 L236.2,114.3 L236.4,114.3 L236.4,113.7 L249,76 L247.1,68.4 L247.1,68.4 Z M247.1,68.4" class="outline"/>
                </g>
                <g class="label">
                    <path d="M14.9,10.6 L10.1,10.6 L10.1,6.7 L14,6.7 C14.4,6.7 14.6,6.4 14.6,6.1 C14.6,5.8 14.4,5.5 14,5.5 L10.1,5.5 L10.1,1.8 L14.7,1.8 C15.1,1.8 15.3,1.5 15.3,1.2 C15.3,0.9 15.1,0.6 14.7,0.6 L9.9,0.6 C9.2,0.6 8.8,1 8.8,1.6 L8.8,10.9 C8.8,11.5 9.2,11.9 9.9,11.9 L14.8,11.9 C15.2,11.9 15.4,11.6 15.4,11.3 C15.5,10.9 15.2,10.6 14.9,10.6 L14.9,10.6 L14.9,10.6 Z M6.8,10.6 L2.5,10.6 L2.5,1.2 C2.5,0.8 2.2,0.5 1.9,0.5 C1.5,0.5 1.3,0.8 1.3,1.2 L1.3,10.8 C1.3,11.4 1.7,11.8 2.4,11.8 L6.9,11.8 C7.3,11.8 7.6,11.5 7.6,11.2 C7.4,10.9 7.2,10.6 6.8,10.6 L6.8,10.6 L6.8,10.6 Z M24.6,0.5 C24.3,0.5 24.1,0.7 24,1 C22.7,6.9 21.6,9.5 20.9,10.6 C20.2,9.5 19.1,6.9 17.8,1 C17.7,0.7 17.5,0.5 17.2,0.5 C16.8,0.5 16.6,0.7 16.6,1.1 C16.6,1.2 16.6,1.4 16.7,1.6 C17.8,6.1 18.5,8.4 19.4,10.2 C20,11.4 20.4,11.8 20.9,11.8 C21.5,11.8 21.8,11.4 22.4,10.2 C23.3,8.4 24,6.1 25.1,1.6 C25.1,1.4 25.2,1.2 25.2,1.1 C25.2,0.8 25,0.5 24.6,0.5 L24.6,0.5 L24.6,0.5 Z M50.1,5.3 L50.1,5.3 C51.5,4.1 52.2,2.6 52.2,1.5 C52.2,1.1 51.9,0.7 51.3,0.7 L46.8,0.7 C46.4,0.7 46.2,1 46.2,1.3 C46.2,1.7 46.4,1.9 46.8,1.9 L51,1.9 C50.7,3.3 49.6,4.5 48.7,5 C48.4,5.1 48.1,5.3 48.1,5.7 C48.1,6.1 48.4,6.3 48.8,6.3 C50.5,6.3 51.4,7.3 51.4,8.6 C51.4,10 50.4,10.9 48.8,10.9 C47.8,10.9 47.2,10.6 46.7,10.2 C46.5,10.1 46.3,10 46.2,10 C45.9,10 45.6,10.2 45.6,10.6 C45.6,10.9 45.8,11 45.9,11.1 C46.4,11.5 47.3,12 48.8,12 C51.1,12 52.6,10.6 52.6,8.5 C52.7,6.9 51.7,5.6 50.1,5.3 L50.1,5.3 L50.1,5.3 Z M40.8,10.6 L36.5,10.6 L36.5,1.2 C36.5,0.8 36.2,0.5 35.9,0.5 C35.5,0.5 35.3,0.8 35.3,1.2 L35.3,10.8 C35.3,11.4 35.7,11.8 36.4,11.8 L40.9,11.8 C41.3,11.8 41.6,11.5 41.6,11.2 C41.5,10.9 41.2,10.6 40.8,10.6 L40.8,10.6 L40.8,10.6 Z M32.9,10.6 L28.1,10.6 L28.1,6.7 L32,6.7 C32.4,6.7 32.6,6.4 32.6,6.1 C32.6,5.8 32.4,5.5 32,5.5 L28.1,5.5 L28.1,1.8 L32.7,1.8 C33.1,1.8 33.3,1.5 33.3,1.2 C33.3,0.9 33.1,0.6 32.7,0.6 L28,0.6 C27.3,0.6 26.9,1 26.9,1.6 L26.9,10.9 C26.9,11.5 27.3,11.9 28,11.9 L32.9,11.9 C33.3,11.9 33.5,11.6 33.5,11.3 C33.6,10.9 33.3,10.6 32.9,10.6 L32.9,10.6 L32.9,10.6 Z M32.9,10.6" class="Shape"/>
                </g>
                <g class="background">
                    <path d="M85.8,42 L17.8,30 L2.6,75.6 L4.4,82.7 L35,88.1 L39,86.8 L46.9,63.3 L57.8,65.2 L58.4,63.3 L63.5,64.2 L64.8,60.3 L82.8,63.5 L87.6,49.2 L85.8,42 L85.8,42 Z M85.8,42" class="wall"/>
                    <path d="M246.1,69.3 L236.3,65.4 L224.3,63.3 L223,67.1 L192.2,61.7 L189.8,68.9 L108,54.5 L99,59.5 L95.5,69.8 C95.5,69.9 95.3,72.5 91.3,75 C87.9,77.1 83.5,76.5 82.2,76.3 C82,76.3 81.8,76.2 81.8,76.2 L76.3,92.8 L78,99.4 L86.2,100.8 L84.9,104.8 L86.6,111.4 L220.6,135 L227.8,121 L230.8,111.9 L235.5,112.7 L247.9,75.8 L246.1,69.3 L246.1,69.3 Z M246.1,69.3" class="wall"/>
                </g>
                <g class="ceilings">
                    <path class="unit" d="M44.1,59 L37.2,79.7 L33.2,81 L2.6,75.6 L10.1,53 L44.1,59 L44.1,59 Z M44.1,59" id="3001"/>
                    <path class="unit" d="M85.8,42 L81,56.4 L63,53.2 L61.7,57.1 L56.6,56.2 L56,58.1 L45.1,56.2 L44.5,57.8 L10.5,51.8 L17.8,30 L85.8,42 L85.8,42 Z M85.8,42" id="3002"/>
                    <path class="unit" d="M189.1,68.9 L171.9,120.3 L84.9,105 L88.2,95 L76.4,92.9 L82,76.4 C82,76.4 82.1,76.4 82.4,76.5 C83.7,76.7 88.2,77.3 91.5,75.2 C95.4,72.7 95.7,70.2 95.7,70 L99.2,59.7 L108.2,54.7 L189.1,68.9 L189.1,68.9 Z M189.1,68.9" id="3003"/>
                    <path class="unit" d="M236.4,65.6 L246.3,69.5 L233.9,106.4 L229.2,105.6 L226.2,114.7 L219,128.7 L172.6,120.5 L189.8,69.1 L192.3,61.8 L223.2,67.3 L224.4,63.5 L236.4,65.6 Z M236.4,65.6" id="3004"/>
        </g>
    </g>
</svg>