<?xml version="1.0" encoding="utf-8"?>
<!DOCTYPE svg PUBLIC "-//W3C//DTD SVG 1.1//EN" "http://www.w3.org/Graphics/SVG/1.1/DTD/svg11.dtd">
<svg version="1.1" id="apple" class="retailer" xmlns="http://www.w3.org/2000/svg" xmlns:xlink="http://www.w3.org/1999/xlink" xml:space="preserve">
  <g>
  	<path d="M12.276,7.668c0.504,0,1.329-0.196,2.472-0.589c1.144-0.392,2.136-0.588,2.977-0.588c1.379,0,2.606,0.37,3.683,1.11
  		c0.605,0.426,1.205,1.003,1.799,1.732c-0.897,0.763-1.553,1.441-1.967,2.035c-0.751,1.076-1.127,2.265-1.127,3.565
  		c0,1.424,0.398,2.708,1.194,3.851c0.796,1.143,1.704,1.866,2.725,2.169c-0.426,1.379-1.133,2.82-2.119,4.322
  		c-1.491,2.253-2.971,3.38-4.439,3.38c-0.583,0-1.387-0.185-2.413-0.555c-1.026-0.37-1.892-0.555-2.598-0.555
  		c-0.706,0-1.528,0.193-2.463,0.58c-0.937,0.387-1.696,0.58-2.279,0.58c-1.76,0-3.487-1.491-5.18-4.473
  		C0.846,21.284,0,18.392,0,15.555c0-2.634,0.647-4.781,1.942-6.441c1.295-1.659,2.929-2.489,4.902-2.489
  		c0.841,0,1.858,0.174,3.052,0.521C11.09,7.495,11.883,7.668,12.276,7.668z M17.54,0.723c0,0.717-0.168,1.502-0.504,2.354
  		c-0.336,0.853-0.869,1.643-1.598,2.371c-0.628,0.617-1.25,1.032-1.867,1.245c-0.393,0.124-0.987,0.219-1.783,0.286
  		c0.022-1.704,0.468-3.178,1.337-4.423S15.432,0.46,17.438,0c0.045,0.146,0.073,0.275,0.084,0.387
  		C17.534,0.499,17.54,0.611,17.54,0.723z"/>
  </g>
</svg>
