<?xml version="1.0" encoding="utf-8"?>
<!DOCTYPE svg PUBLIC "-//W3C//DTD SVG 1.1//EN" "http://www.w3.org/Graphics/SVG/1.1/DTD/svg11.dtd">
<svg version="1.1" id="argos" class="retailer" xmlns="http://www.w3.org/2000/svg" xmlns:xlink="http://www.w3.org/1999/xlink"
xml:space="preserve">
<g>
<path d="M52.95,6.35Q53.3 6.8 52.7 7.1L51.6 7.65L50.95 7.65L50.5 7.3Q49.55 6.45 48.85 6.45L48 6.7Q47.6 6.95 47.65 7.3Q47.65 7.85 48.45 8.2L50.15 8.7Q52.4 9.55 52.4 11.3Q52.35 13.15 50.9 14.2Q49.55 15.2 47.3 15.25Q45.4 15.35 44.15 14.45Q43.35 13.9 43.1 13.25Q42.8 12.65 43.15 12.35Q43.25 12.25 44.45 11.65L44.85 11.6L45.35 11.95L46.45 12.8L47.25 13L48.2 12.75Q48.9 12.45 48.9 11.95Q48.9 11.25 47.8 10.85L45.9 10.3L44.6 9.45Q44.15 8.95 44.1 8.05Q44.05 6.85 45.15 5.75Q46.4 4.5 48.55 4.4Q50.45 4.35 51.65 5.05L52.95 6.35M42.9,10.6Q41.25 15.4 36.35 15.15Q34.4 15.05 33.2 13.75Q31.6 12.05 32.75 8.75Q33.7 6.2 35.75 5.1Q37.45 4.1 39.55 4.25Q41.6 4.4 42.65 5.95Q43.9 7.75 42.9 10.6M51.45,18.55Q51.8 18.45 51.95 18.7Q52.2 19.1 51.55 19.55Q48.65 21.55 44.2 23.4Q35.35 27.1 25.95 27Q16.05 26.95 7.4 23.35Q3.05 21.55 0.7 19.75Q-0.2 19.2 0.1 18.9Q0.35 18.55 0.8 18.7L1.4 18.95Q4.45 20.4 9.05 21.75Q18.25 24.4 27.2 24.15Q35.45 23.9 43.6 21.45Q47.75 20.2 50.75 18.85L51.45 18.55M32.65,5.35L31.4 10.6L30.85 12.85L30.05 15.55Q29.05 18.15 27.35 19.1L26.25 19.65L24.85 19.9L22.9 19.75Q21.25 19.35 20.3 18.15L20.2 17.6L20.4 17.2L21.05 16.85L21.6 16.55Q22.3 16.3 22.65 16.55Q23.7 17.3 24.65 17.2Q26.85 16.85 27.55 14.05L26.9 14.6Q26 15.15 24.75 15.1Q23.1 15.1 22.2 14.15Q21.3 13.15 21.4 11.5Q21.55 9.25 22.85 7.05L24.15 5.45Q25.5 4.3 26.95 4.3Q28.45 4.3 29.25 5L29.75 5.7L29.9 5.1Q30.1 4.5 30.4 4.5L32 4.5L32.4 4.6Q32.8 4.85 32.65 5.35M38.9,6.55Q36.85 6.55 35.9 9.1Q34.65 12.75 36.75 12.85Q39.15 12.85 39.9 10.1Q40.35 8.4 40.25 7.65Q40.15 6.65 38.9 6.55M23.3,4.95L21.95 6.65L21.25 7.2L19.8 7.35Q18.5 7.9 18.2 9.55L17.2 14.4Q17.15 15.05 16.7 15.05L14.65 15.05Q14 15.1 14.1 14.55L15.95 5.1L16.05 4.8L16.6 4.4L18.45 4.4L18.65 4.5L18.75 4.8L18.6 5.65L19.35 5.05Q20.25 4.5 21.15 4.4L23.15 4.4L23.4 4.5Q23.6 4.65 23.3 4.95M24.55,9.4L24.3 10.95Q24.25 12.55 25.45 12.7Q27.2 12.9 28.2 10.4Q29.55 6.85 27.55 6.6Q26.15 6.45 25.25 7.9L24.55 9.4M12.8,0.5L13.45 14.3Q13.45 15.05 12.85 15.05L10.8 15.05Q10.25 15.15 10.25 14.6L10.15 11.9L4.85 11.9L3.3 14.8L2.85 15.05L0.4 15.05Q0 15.05 0.2 14.6Q0.9 12.95 3.35 8.8L8.1 1.2Q9 0 10.05 0L12 0Q12.75 0 12.8 0.5M9.95,3.35Q8.45 5.2 6.2 9.35L10.1 9.35L9.95 3.35" />
</g>
</svg>
