<?xml version="1.0" encoding="utf-8"?>
<!DOCTYPE svg PUBLIC "-//W3C//DTD SVG 1.1//EN" "http://www.w3.org/Graphics/SVG/1.1/DTD/svg11.dtd">
<svg version="1.1" id="bhs" class="retailer" xmlns="http://www.w3.org/2000/svg" xmlns:xlink="http://www.w3.org/1999/xlink" xml:space="preserve">
  <g>
    <path d="M37.7,12.2Q38.15 12.6 37.55 13.25L36.25 13.85Q35.7 14.1 35.65 14.4Q35.6 14.7 36.25 15.45L37.1 16.4Q37.55 17.1 37.35 17.6Q36.95 18.45 34.75 19.1L32.2 19.15Q31.85 19 31.7 18.45Q31.8 17.9 32.95 17.65L33.5 17.65Q33.9 17.7 33.9 18.05L34.6 18L35.1 17.6Q35.2 17.15 33.9 15.45Q33.4 15.1 33.1 15.3Q26.05 18.8 21.25 18.85Q18.2 18.9 15.3 16.15L12.8 13.1Q12.55 12.85 11.95 13.6Q11.15 14.5 10.4 16.45L10.2 17.8Q9.95 18.45 9.5 18.4Q8.85 18.4 8.85 17.45Q9.5 9.9 10.6 5.9Q10.35 5.75 8.6 7.95Q9.05 8.55 9.05 9.75Q9.05 11.5 8 13.3Q5.6 17.3 2.85 18.65L1.5 18.6Q0.95 18.3 0.85 17.7L0.4 17.95Q0 18 0 17.35Q-0.05 7.3 0.95 3.15Q1.45 1.8 2.4 1.65L2.9 1.65Q3.2 1.8 3.15 2.1Q4.55 0 6.25 0Q7.4 0 7.85 0.55Q8.25 1.05 8.25 2.4Q7.8 4.25 5.5 6.85L6.75 6.9L7.75 7.1L10.65 3.8L11.45 2.45Q12 1.6 12.55 1.7Q13.15 1.8 13 2.9L11.2 12.5Q12.15 11.05 13.15 11.1Q13.7 11.15 14.05 11.5L15.05 12.75L17.4 15.5Q19.4 17.35 21.35 17.4Q25.1 17.6 31.7 14.65L36.7 12.15L37.7 12.2M5.3,1.6Q4.15 2.15 3.2 4.15Q2.5 5.65 2.35 7.95Q5.45 6.2 6.4 2.2Q6.5 1.65 6.1 1.5L5.3 1.6M1.95,9.3L1.3 16.5Q2.25 14.55 4.15 11.85L6.25 9.15Q6.85 8.7 5.85 8.5L2.9 8.85L1.95 9.3M7.1,9.85Q5.4 11.75 2.5 16.95L2.55 17.4L2.85 17.4L3.65 16.85L5.65 14.65Q6.8 13.1 7.05 11.35L7.1 9.85" />
  </g>
</svg>
