<?xml version="1.0" encoding="utf-8"?>
<!DOCTYPE svg PUBLIC "-//W3C//DTD SVG 1.1//EN" "http://www.w3.org/Graphics/SVG/1.1/DTD/svg11.dtd">
<svg version="1.1" id="boots" class="retailer" xmlns="http://www.w3.org/2000/svg" xmlns:xlink="http://www.w3.org/1999/xlink"
xml:space="preserve">
<g>
<path d="M44.75,6.55L43.35 6.55L42.9 7.45L26.2 7.5L26.7 8.65L26.95 9.9L26.8 11.15L41.9 9.45L41.1 11L40.4 10.9L38.95 10.85L37.7 11Q37.1 11.1 36.6 11.3L35.85 11.1L34.35 11.15L33.75 11.25L32.6 11.75Q32.25 11.9 31.9 12.15L31.25 12.65L31.15 12.25L30.95 11.95L30.65 11.75L30.3 11.6L29.85 11.6L29.4 11.65Q28.75 11.75 28.05 12.2L27.65 12.5L27 12.3Q26.3 12.15 25.6 12.3L26.05 11.25L26.15 10.6L26.15 9.55L25.85 8.45L25.2 7.5Q25.55 7.15 26 6.9L26.05 6.75L25.9 6.7L24.45 7.05L22.75 6.7L21 6.7L19.25 6.95L17.25 7.75Q16.3 8.25 15.45 8.95L14 10.3L13.35 11.25L13 12.1L12.85 12.95L12.85 13.6L13.05 14.15L13.45 14.65L14.05 15L14.8 15.1L15.5 14.9L16.05 14.5L16.45 13.9L16.05 13.8L15.7 13.55L15.5 13.15L15.4 12.65L15.5 11.7Q15.6 11.15 15.85 10.75L16.5 9.9L17.25 9.2L18.05 8.65Q18.45 8.35 18.95 8.15L20.1 7.7L21.3 7.55L22.55 7.7L23.15 8L22.45 8.45L21.95 8.85L21.4 9.45L20.3 10.7L19.25 12.25L18.35 13.95L18.05 14L17.45 14.25L17.2 14.5L17.05 14.8Q16.85 15.3 17.15 15.75L17.35 16L15.7 20.05L15.3 19.8L14.8 19.65L14.25 19.6L13.5 19.75L12.8 20.15L12.2 20.8L11.8 21.55L11.55 22.55L11.65 24.05L11.95 25L12.45 25.7L12.05 26.2L11.5 26.6L10.85 26.75L10.15 26.75L10.45 26.6L10.9 26.1L10.95 25.35L10.65 24.9L10.15 24.55L9.5 24.5L8.85 24.6Q8.45 24.75 8.2 25.15Q8 25.4 7.95 25.7L8.05 26.45L8.4 27L9.15 27.4L9.75 27.6L10.45 27.7L11.55 27.6L12.7 27.2L13.7 26.5L14.75 26.95L15.55 27.1L17.3 27.1L19.2 26.6L20.8 25.65L21.8 24.7L22.55 23.65L23.15 22.25L23.5 20Q23.5 18.75 23.1 17.55Q22.75 16.4 21.95 15.35L22.6 15.1L23.15 14.8L23.7 14.4L25.15 13.05L26.25 13.1L26.75 13.35L25.7 14.9L24.9 16.55L24.35 18.15L24.1 19.15L24.15 20.85L24.35 21.4L24.75 21.85L25.2 22.1L25.8 22.2L27 21.9L27.6 21.5L28.3 20.95L28.95 20.3L29.55 19.5L30.15 18.55L30.65 17.55L31.3 15.45L31.4 13.4L32.1 12.9L32.8 12.5L33.55 12.2L34.4 12.05L35.1 12.1L34.85 12.35L34.4 12.7L33.55 13.55L32.7 14.6L31.95 15.9L31.55 17.1L31.4 17.8L31.4 18.9L31.5 19.3L31.95 20L32.4 20.3L32.95 20.45L33.5 20.4L34.2 20.2L34.9 19.85L35.6 19.3L36.6 18.2L37.4 16.85L37.8 15.5L37.9 14.75L37.8 13.55L37.65 12.85L37.4 12.1L38.05 11.85Q38.7 11.6 39.2 11.5L40.1 11.5L40.85 11.6L40.65 12.25L39.65 14.5L38.9 16.25L38.55 17.2L38.6 18L39.05 18.8L39.5 19L39.95 19.05L40.55 19L41.1 18.8L42.2 18.05L42.8 17.55L43.3 17L43.95 17.5L44.7 17.75L45.5 17.75L45.25 18.15L44.9 18.5L44.5 18.85L44.05 19.15L43.55 19.35L43.05 19.5L35.15 21.2L29.3 22.5L26.2 23.2L25.75 23.45L25.3 23.8L24.6 24.5L24.1 25.5L23.9 26.6L24 27.7L24.65 27.3L25.35 26.95L26.1 26.7L42.5 21.85L43.4 21.5L44.2 21.05L45 20.45L45.75 19.6L46.35 18.6L46.75 17.5L47.6 17.1L48.3 16.5L48.8 15.75L49 14.8L49 13.85L48.75 12.95L48.5 12.35L48.25 11.25L48.7 10.55L48.95 10.25L49.05 10.05L49.1 9.9L48.85 9.45L48.65 9.4L48.4 9.4L48 9.65L47.8 9.95L47.55 10.7L45.45 13.05L45.1 13L44.65 12.95L44.2 13.05Q43.85 13.1 43.6 13.25L43.05 13.65L42.7 14.2L42.55 14.9Q42.5 15.7 42.7 16.2L42.5 16.5L42.25 16.8L42 17.15L41.65 17.45L40.95 17.8L40.3 17.6L40.2 17.5L40.1 17.2L40.65 15.8L43.5 9.35L48 8.7L48.95 7.45L44.4 7.4L44.75 6.55M52.65,8.05L54.05 9.55L55.15 11.2L56.15 13.15L56.85 15.7Q57.05 17.1 56.85 18.5L56.15 21.1L55.2 23L54.05 24.65L52.65 26.15L50.95 27.65L49 29L46.9 30.2L44.25 31.35L41.4 32.4L38 33.25L32.75 34.05L27 34.2L21.7 33.75L18.3 33.15L15.45 32.35L12.8 31.4Q11.6 30.95 10.7 30.5L8.8 29.5L7 28.35L5.6 27.3L4.25 26.1L2.95 24.65L1.8 23.05L0.8 21.1L0.1 18.55Q-0.1 17.15 0.1 15.7Q0.3 14.45 0.8 13.15L1.75 11.25L2.9 9.6L4.3 8.05L6.05 6.6L7.95 5.25L9.95 4.1L12.7 2.85L15.55 1.85L18.55 1.05L21.8 0.45L25.15 0.1L28.65 0L32.85 0.2L37.15 0.8L41.2 1.8L44.35 2.9L47 4.1L49.1 5.3L50.95 6.6L52.65 8.05M47.75,12.7L47.85 13.6L47.85 14.35L47.6 15.05L47.2 15.65L47.1 14.75L46.95 14.35L46.2 13.3L47.65 11.75L47.75 12.7M46.1,14.55L46.35 15.1L46.4 15.75L46.3 16.3L46 16.6L45.7 16.85L45.3 17L44.9 17L44.45 16.9L44.1 16.65L43.85 16.3L45.7 14.1L46.1 14.55M22.5,9.9L23.15 9.2L23.85 8.65L24.3 9.45Q24.65 10.35 24.25 11.35L23.75 12.3L23.15 13.2L22.35 13.95L21.3 14.65L21.05 14.4L20.75 14.2L20.4 14.05L20.7 13.3L21 12.5L21.45 11.55L21.95 10.65L22.5 9.9M30.35,13.2L30.05 14.5L29.6 15.95L28.75 17.8L28.05 19L27.4 19.85L26.95 20.4L26.5 20.75L26.05 21L25.8 21.1L25.45 20.9L25.3 20.75L25.3 20.5L25.35 20L25.45 19.55L25.7 18.85L26.3 17.25L27.1 15.65L27.85 14.5L28.55 13.65L28.9 13.25L29.55 12.75L29.75 12.65L30.1 12.75L30.25 12.85L30.35 13.2M33,16.8L33.4 15.85L34.15 14.7L35.1 13.6L36.2 12.65L36.55 13.05L36.65 13.45L36.6 14.5L36.45 15.15L36.05 16.2L35.55 17.25L35.1 18.05L34.55 18.7L33.95 19.2L33.6 19.4L33.25 19.4L32.95 19.3L32.75 19.1L32.6 18.85L32.6 18.45L32.7 17.65L33 16.8M44.2,13.65L44.85 13.7L43.25 15.5L43.2 15L43.3 14.5L43.55 14.1L43.9 13.8L44.2 13.65M17.9,14.6L17.6 15.3L17.5 15.2Q17.25 14.85 17.6 14.6L17.75 14.55L17.9 14.6M19.4,16.25L20.6 15.85L21.1 16.8L21.4 17.85L21.5 19.15L21.3 21.2Q21 22.35 20.35 23.3L18.85 24.85L17.45 25.65L16.05 25.95L14.6 25.75L15.55 24.55L16.4 23.25L17.2 21.8L18.05 19.9L18.75 18.05L19.4 16.25M19.8,15.4L20.05 14.8L20.3 15.15L20.15 15.25L19.8 15.4M13,22.45L13.4 21.75L13.55 22.15L13.8 22.5L14.15 22.7L14.6 22.75L14.2 23.5L13.75 24.2L13.25 24.85L12.95 24.1Q12.7 23.25 13 22.45" />
</g>
</svg>
