<?xml version="1.0" encoding="utf-8"?>
<!DOCTYPE svg PUBLIC "-//W3C//DTD SVG 1.1//EN" "http://www.w3.org/Graphics/SVG/1.1/DTD/svg11.dtd">
<svg version="1.1" id="burgerking" class="retailer" xmlns="http://www.w3.org/2000/svg" xml:space="preserve">
<g>
	<path fill-rule="evenodd" clip-rule="evenodd" d="M55.017,40.82c-4.32,9.706-12.611,16.461-23.477,16.615
		c-7.912,0.111-14.896-2.6-19.938-7.325l-3.049,1.304l0.004-4.723c-3.322-4.483-5.249-10.152-5.249-16.593
		c0-16.497,12.633-29.5,30.256-29.5c2.877,0,5.475,0.448,7.438,0.893C37.979,0.523,34.979,0,31.638,0
		C12.728,0,0.001,15.336,0,31.148C0,48.383,13.52,62.82,31.264,62.82c16.948,0,26.094-11.949,29.018-19.138L55.017,40.82
		L55.017,40.82z"/>
	<path fill-rule="evenodd" clip-rule="evenodd" d="M50.629,37.414c2.488-0.284,4.207-1.283,5.153-2.21
		c0.86-0.846,1.061-2.009,1.062-2.875c0.035-1.269,0-5.281,0-5.281l-6.58,1.425c0,0,0,0.495-0.003,1.538
		c0.012,1.016,0.503,1.569,1.567,1.375c0.335-0.055,0.85-0.219,0.85-0.219l0.009,1.255c-0.005-0.034,0.098,0.702-1.562,1.03
		c-2.171,0.341-3.156-0.994-3.183-3.353c0.043-2.532,1.473-3.991,3.207-4.389c1.951-0.446,3.059,0.018,3.708,0.116
		c2.179,0.327,2.796-2.94,0.814-3.708c-1.467-0.59-3.368-0.697-5.181-0.336c-2.421,0.484-7.183,2.509-7.194,9.094
		C43.309,36.105,47.166,37.808,50.629,37.414L50.629,37.414z M47.122,21.522l0.004-10.142c0,0,2.963-0.523,3.727-0.623
		c2.122-0.27,3.547,0.909,3.518,2.582c-0.012,1.469-0.936,2.357-1.721,2.889c0,0,1.442,1.626,1.829,2.057
		c0.521,0.579,0.496,1.571-0.271,2.057c-0.758,0.477-1.505,0.226-1.939-0.252l-2.386-2.796c0,0,0.01,1.718,0.007,2.47
		c-0.008,0.746-0.438,1.293-1.214,1.453L47.122,21.522L47.122,21.522z M49.88,15.729c0.002-0.001,1.646-0.627,1.627-1.944
		c-0.017-1.114-1.114-0.911-1.631-0.796L49.88,15.729L49.88,15.729z M45.493,21.83c0.621-0.136,1.008-0.573,1.008-1.33
		c0-0.686,0.003-1.206,0.003-1.206l-3.373,0.738l0.007-1.986c0,0,1.653-0.35,2.112-0.449c0.577-0.125,0.879-0.441,0.879-1.1
		c0-0.616-0.004-1.148-0.004-1.148l-2.988,0.634v-1.573c0,0,1.553-0.323,2.39-0.5c0.652-0.135,0.868-0.583,0.868-1.197
		c0-0.4,0.007-1.193,0.007-1.193c-1.491,0.262-4.325,0.832-6.092,1.233l-0.023,10.272C40.286,23.024,43.645,22.231,45.493,21.83
		L45.493,21.83z M29.236,43.02c0,0,2.019-0.695,2.194-0.756c1.624-0.559,2.215-1.524,2.207-3.195
		c-0.021-1.812-0.024-5.348-0.024-5.348l4.696,5.408c0.763,0.788,1.721,0.855,2.593,0.598c0.906-0.265,1.659-1.091,1.682-2.258
		c0.008-3.907-0.004-13.442-0.004-13.442s-1.211,0.257-2.219,0.542c-1.159,0.33-2.05,1.069-2.05,3.02
		c0,0.69-0.003,4.651-0.003,4.651s-2.642-3.311-4.371-5.041c-0.924-0.923-2.453-0.371-2.453-0.371l-2.252,0.68L29.236,43.02
		L29.236,43.02z M27.814,27.859c0,0-1.414,0.415-2.564,0.829c-1.496,0.541-2.356,1.405-2.356,3.667
		c0,2.076-0.005,12.889-0.005,12.889s1.31-0.447,2.531-0.907c1.734-0.653,2.389-1.548,2.389-3.369
		C27.81,39.402,27.814,27.859,27.814,27.859L27.814,27.859z M20.797,30.923c-1.299-0.587-2.412,0.07-2.886,0.798l-3.989,6.783
		l-0.007-5.471l-4.702,1.95l-0.015,15.47l3.312-1.39c0,0,0.651-0.186,1.043-0.803c0.361-0.566,0.347-1.521,0.347-1.521l0.005-4.903
		l3.702,3.928c0.813,0.845,2.307,1.274,3.625,0.213c1.193-0.963,1.008-2.603,0.343-3.338l-3.374-3.396c0,0,2.969-4.678,3.455-5.461
		C22.3,32.746,21.976,31.459,20.797,30.923L20.797,30.923z M14.49,28.443c0.037,2.164-1.521,3.314-3.552,4.157L6.78,34.366
		L6.77,23.099c0,0,2.622-1.07,3.476-1.378c2.43-0.884,3.858,0.18,3.858,1.803c0,1.086-0.463,2.004-1.47,2.815
		C13.625,26.504,14.471,27.318,14.49,28.443L14.49,28.443z M9.642,26.357c0.203-0.079,0.354-0.146,0.524-0.23
		c0.62-0.304,1.062-0.86,1.068-1.589c0.006-0.825-0.675-1.04-1.592-0.564V26.357l1.842,2.477c-0.012-0.853-0.675-1.316-1.82-0.742
		l-0.003,2.741c0,0,0.371-0.164,0.644-0.291c0.669-0.311,1.194-0.87,1.18-1.708L9.642,26.357L9.642,26.357z M22.384,18.936
		c0-0.948-0.653-1.202-1.442-0.975c-0.639,0.182-1.383,0.474-1.383,0.474l-0.004,7.004c-0.007,0.696-0.115,1.569-0.975,1.786
		c-0.659,0.166-0.971-0.275-0.973-0.968l-0.009-5.733c0-0.955-0.663-1.239-1.449-0.98c-0.887,0.296-1.417,0.508-1.417,0.508
		s0.008,4.962-0.002,6.944c-0.012,2.325,1.592,3.485,4.035,2.764c2.155-0.638,3.595-1.845,3.622-4.941L22.384,18.936L22.384,18.936z
		 M26.007,22.997c0,0-0.006,1.97-0.008,2.763c-0.008,0.743-0.517,1.282-1.16,1.528c0,0.022,0-0.024,0,0
		c-0.537,0.185-1.68,0.576-1.68,0.576l0.004-10.574c0,0,2.359-0.821,3.748-1.145c2.156-0.501,3.69,0.479,3.662,2.222
		c-0.015,1.657-0.939,2.665-1.771,3.353l1.828,1.753c0.562,0.545,0.6,1.527-0.031,2.12c-0.375,0.351-1.376,0.716-2.159-0.078
		L26.007,22.997L26.007,22.997z M26.002,21.414c0.003,0,1.669-0.861,1.65-2.229c-0.016-1.166-1.09-0.91-1.649-0.705L26.002,21.414
		L26.002,21.414z M39.619,17.264l-4.199,0.955c0,0-0.004,0.443-0.005,1.169c0.005,0.541,0.388,0.895,0.934,0.78
		c0.347-0.071,0.624-0.134,0.624-0.134l0.006,1.164c0.005,0.463-0.688,0.765-1.407,0.749c-1.008-0.025-1.566-0.809-1.58-2.3
		c0.03-1.958,0.952-3.107,2.207-3.43c0.628-0.16,1.198-0.08,1.64-0.024c1.085,0.176,1.706-0.347,1.729-1.241
		c0.023-0.959-0.828-1.55-2.651-1.487c-3.954,0.137-5.976,2.978-5.976,6.369c0,3.473,2.269,5.007,5.037,4.507
		c1.564-0.318,2.343-0.825,2.883-1.297c0.538-0.475,0.76-1.182,0.762-1.785L39.619,17.264L39.619,17.264z"/>
	<path d="M52.177,38.654c-0.201-0.207-0.484-0.21-0.877-0.118c-8.752,2.057-23.312,6.503-31.708,10.098
		c-0.361,0.155-0.525,0.214-0.638,0.473c-0.174,0.405,0.225,0.806,0.225,0.806c1.712,2.147,9.312,4.873,17.562,2.876
		c12.6-3.049,15.262-11.958,15.562-13.218C52.365,39.315,52.415,38.901,52.177,38.654z M49.314,42.197
		c-1.993,4.219-5.595,7.033-9.345,8.507c4.224-2.399,6.62-5.918,7.787-8.918C48.227,40.354,49.89,40.977,49.314,42.197z"/>
	<path d="M46.621,8.138c0,0-2.334-3.967-10.589-4.849c-4.42-0.473-10.438,0.423-14.657,2.696c-7.642,4.12-8.786,10.901-8.786,10.901
		c-0.044,0.166-0.116,0.675,0.056,0.89c0.175,0.219,0.43,0.215,0.745,0.11c2.699-0.911,10.737-3.578,15.811-4.924
		c7.22-1.915,13.151-3.081,16.958-3.729c0.269-0.046,0.512-0.134,0.613-0.382C46.919,8.492,46.621,8.138,46.621,8.138z
		 M16.263,14.948c-0.102,0.868-1.188,0.75-1.121-0.069c0.172-2.059,3.299-6.924,7.931-8.972
		C20.232,7.646,17.24,11.188,16.263,14.948z M38.423,9.399c0.977-0.292,1.708-1.036,1.699-1.882
		c-0.017-1.334-3.001-3.25-7.975-3.582C37.029,3.544,42.36,5.71,42.316,7.578C42.291,8.694,40.92,8.787,38.423,9.399z"/>
	<path fill-rule="evenodd" clip-rule="evenodd" d="M54.875,37.317v0.439h1.028v2.122h0.699v-2.122h0.99v-0.439H54.875L54.875,37.317
		z M59.96,39.878l0.606-2.073v2.073h0.697v-2.561h-1.019l-0.634,1.966l-0.633-1.966h-1.02v2.561h0.698v-2.073l0.605,2.073H59.96
		L59.96,39.878z"/>
</g>
</svg>
