<?xml version="1.0" encoding="utf-8"?>
<!DOCTYPE svg PUBLIC "-//W3C//DTD SVG 1.1//EN" "http://www.w3.org/Graphics/SVG/1.1/DTD/svg11.dtd">
<svg version="1.1" id="cafegiardino" class="retailer" xmlns="http://www.w3.org/2000/svg" xml:space="preserve">
<g>
	<path d="M23.8,1.3l0.3,0.2L24.2,1.65l0.1,0.15l0.25,1.4L24.3,4.7L24.1,5L24,5.1l-0.1,0.1
		c-0.135,0.066-0.217,0.116-0.25,0.149L23.4,5.45H22.85l-0.5-0.05L21.95,5.2L21.9,5.1L21.8,5l-0.05-0.1l-0.1-0.1l-0.2-0.7L21.4,3.45
		v-0.7l0.3-1.05l0.2-0.25L22.1,1.3L22.4,1.15L22.8,1.1h0.55l0.25,0.1L23.8,1.3 M23.05,2.3H22.9L22.85,2.35l-0.1,0.1l-0.05,0.1V2.6
		l-0.05,0.6v0.65l0.05,0.2L22.85,4.2H23l0.1-0.1L23.2,4l0.05-0.6V2.75L23.05,2.3 M21.05,2.15L21,3.6v1.45v0.2l-0.1,0.1L20.7,5.4
		l-0.2-0.05L20.15,5.4L19.8,5.35l-0.05-0.1v-0.2V4.9V4.75V3.8l0.05-0.95l-0.05-0.2L19.6,2.5l-0.25,0.2v0.4L19.3,3.85v0.8v0.4
		l-0.05,0.3L19,5.4h-0.3H18.35L18.1,5.35L18.05,5.1V4.85v-0.8v-0.8l0.05-0.5V2.2V1.7c-0.033-0.233-0.016-0.383,0.051-0.45
		l0.101-0.05H18.4H18.8h0.4l0.1,0.1l0.05,0.1l0.15-0.1l0.1-0.05L19.7,1.2l0.25-0.05L20.6,1.3l0.352,0.5L21.05,2.15 M21.45,7.55
		l-0.101-0.1l-0.101-0.101l-0.101-0.1V7.1L21.3,7.15l0.05,0.1l0.102,0.1H21.6L21.8,7V6.75v-0.3h-0.05V6.5L21.7,6.55h-0.05L21.6,6.65
		L21.55,6.7L21.4,6.8l-0.2,0.05v-0.2l0.05-0.2l0.1-0.15l0.101-0.15l0.05-0.1L21.6,6l0.051-0.1l0.101-0.051L21.852,5.9V6L21.9,6.1
		v0.1l0.05,0.25L22,6.7v0.35l-0.05,0.2l-0.25,0.3H21.45 M24.95,6.8L24.85,6.85l-0.1-0.15l0.1-0.101h0.102L24.95,6.8 M16.75,0
		l0.4,0.05L17.5,0.1l0.05,0.15l0.05,0.2l-0.05,0.4l-0.25,0.1H17h-0.3L16.4,0.9L16.3,0.6l0.05-0.45L16.5,0H16.75 M5.8,0l0.45,0.05
		l0.35,0.1l0.05,0.3L6.6,0.8L6.55,0.9l-0.1,0.05h-0.5L5.45,0.9l-0.1-0.3L5.4,0.15L5.55,0H5.8 M0,1.05h0.2L0.4,1.1v0.35L0.45,1.5H0.5
		l0.05-0.05V1.3V1.1h0.2h0.2v0.15v0.1L1.1,1.5V1.3V1.05h0.2L1.5,1.1v0.45v0.4H0V1.05 M0,2.1h0.2l0.2,0.05V2.5l0.05,0.05H0.5
		L0.55,2.5V2.15h0.2l0.2,0.05v0.2v0.15h0.3L1.5,2.6v0.2v0.25H0V2.1 M0,3.7c0.067-0.034,0.183-0.083,0.35-0.15l0.4-0.15l0.4-0.15
		L1.5,3.1v0.5L1.25,3.7v0.45L1.4,4.2l0.1,0.05V4.5v0.2L0.75,4.45L0,4.15V3.7 M0,4.8l0.05-0.05H0.6l-0.1,0.1L0.4,5l0.1,0.35L0.6,5.4
		l0.1,0.05h0.25L1.1,5.1L1.05,4.9l-0.1-0.1V4.75h0.5L1.5,4.9l0.05,0.15L1.5,5.45l-0.4,0.4l-0.4,0.1l-0.35-0.1L0.1,5.6L0,5.4V4.8
		 M20.35,5.9L20.4,6l0.05,0.2l0.1,0.55l-0.2,0.65l-0.1,0.05h-0.2h-0.1l-0.2-0.15l-0.1-0.1L19.6,7.1L19.55,7l0.101-0.1l0.051,0.05
		l0.05,0.1l0.149,0.2l0.301,0.05h0.05l0.05-0.85L20.15,6.7l-0.2,0.2C19.85,6.867,19.8,6.767,19.8,6.6V6.2l0.05-0.1H20v0.25V6.7
		l0.2-0.6L20.15,6L20.1,5.9l0.15-0.1L20.35,5.9 M22.5,6.1l-0.1,0.1L22.35,6.15l-0.1,0.3l0.2,0.2l0.2-0.2l-0.15-0.3V6.1 M22.35,5.95
		h0.25l0.25,0.3V6.4L22.8,6.55L22.7,6.7h-0.05v0.05l-0.15,0.1h-0.15c-0.199-0.1-0.283-0.266-0.25-0.5l0.102-0.3L22.25,6h0.05
		L22.35,5.95 M23.4,5.95l0.25,0.35L23.55,6.65l-0.3,0.199H23.2H23.1l-0.25-0.3c0-0.333,0.084-0.533,0.25-0.6L23.4,5.95 M23.1,6.15
		l-0.05,0.3l0.2,0.2l0.2-0.4L23.4,6.2L23.3,6.15V6.1l-0.1,0.05H23.1 M24.45,5.4v0.65l0.05,0.6l0.05,0.05l0.05,0.05L24.55,6.8
		L24.5,6.85L24.35,6.7L24.3,6.4l-0.25,0.3l-0.3,0.149H23.7V6.6l0.05-0.2l0.1-0.15L24,6.1L24.1,6l0.15-0.05v-0.5l0.1-0.05H24.45
		 M23.95,6.4L23.9,6.55l-0.051,0.1l0.2-0.2l0.15-0.3L24,6.3L23.95,6.4 M21.55,6.35L21.4,6.55l0.1-0.05l0.05-0.05L21.65,6.3
		l0.05-0.15L21.6,6.2L21.55,6.35 M17.6,1.5l-0.05,0.25V3.1v1.4v0.45l-0.05,0.4L17.25,5.4h-0.3H16.6l-0.25-0.05l-0.1-0.3l0.05-0.4
		v-0.7v-0.8v-0.7V1.8V1.45l0.101-0.2h0.649h0.3l0.2,0.05L17.6,1.5 M15.8,0.4v0.4v0.45v0.4V2.5v0.85V4.4v0.25V4.9v0.25l-0.05,0.2
		L15.5,5.4l-0.3-0.05L15,5.4h-0.25L14.7,5.35l-0.05-0.1L14.5,5.3l-0.05,0.05L14.3,5.4l-0.1,0.05l-1-0.25l-0.05-0.1L13.05,5
		l-0.2-0.45l-0.15-0.5v-0.6V2.8l0.05-0.35L12.8,2.1l0.25-0.45l0.4-0.35l0.2-0.1l0.199-0.05L14.2,1.2l0.3,0.05l0.1-0.2v-0.3
		l-0.05-0.5L14.6,0.1l0.1-0.05h0.05h1L15.8,0.4 M15.8,6.1V5.65l0.101-0.1L16,5.6v0.2V6l0.1-0.05h0.2L16.2,6.1L16,6.15l-0.05,0.3
		l0.1,0.25l0.101-0.1l0.05-0.1l0.1,0.1l-0.05,0.1L16.2,6.75L16.1,6.85H15.95l-0.15-0.2V6.3l-0.1,0.05H15.6l-0.05-0.1L15.6,6.2
		L15.7,6.15h0.05L15.8,6.1 M15.25,5.85l0.1-0.05l0.05,0.15v0.2l0.1,0.45v0.05l0.05,0.05l0.05,0.05l-0.05,0.1L15.4,6.8l-0.05-0.05
		l-0.05-0.1V6.5l-0.05-0.1l-0.2,0.25l-0.2,0.199l-0.1-0.05H14.7l-0.15,0.05L14.3,6.4l-0.15,0.25L14,6.85h-0.05L13.9,6.8V6.45
		l0.05-0.4L14,6h0.1v0.2v0.15l0.15-0.25l0.1-0.149h0.15V6v0.1v0.35l0.05,0.25l0.101-0.05h0.05l0.1-0.301L15,6.1l0.1-0.05l0.101-0.1
		v-0.1H15.25 M16.65,6.05L16.6,6.65l0.15-0.15l0.1-0.2V6.15V6l0.102-0.05h0.1V6.5l0.051,0.1l0.049,0.05L17.2,6.7L17.1,6.8H17
		l-0.05-0.1L16.9,6.55l-0.15,0.2l-0.25,0.1l-0.1-0.3V6.1L16.5,6L16.65,6.05 M17.4,6.05L17.55,6.3l0.05-0.1l0.051-0.1l0.25-0.2H18
		l0.05,0.05V6v0.05V6.1L18,6.15L17.95,6.1H17.9l-0.15,0.2L17.7,6.6v0.1v0.05l-0.05,0.1H17.6L17.5,6.7l-0.1-0.2L17.35,6.3l-0.1-0.2
		L17.4,6.05 M18.3,6.15l0.101-0.1l0.1-0.1v-0.1l0.1-0.05L18.7,5.85l0.05,0.4L18.8,6.6L18.9,6.7v0.1l-0.15,0.05l-0.05-0.1L18.6,6.55
		V6.4L18.45,6.6L18.3,6.75l-0.2,0.1L18.05,6.8V6.55l0.101-0.2L18.2,6.3V6.25l0.05-0.05V6.15H18.3 M18.95,5.75L19,5.55l0.1-0.05H19.2
		v0.2l-0.05,0.2v0.4l0.05,0.35l0.05,0.05l0.1,0.1L19.15,6.85C19.05,6.783,19,6.65,19,6.45L18.95,5.9V5.75 M19.4,5.55l0.05-0.05h0.1
		v0.25c-0.032,0.4-0.017,0.7,0.05,0.9L19.65,6.7l0.1,0.05l-0.1,0.1L19.55,6.8l-0.1-0.05l-0.05-0.1l-0.051-0.4v-0.6L19.4,5.55
		 M14.15,2.5L14,2.85l-0.05,0.5L14,3.85l0.25,0.3l0.25-0.3l0.1-0.5l-0.05-0.5l-0.2-0.35h-0.1H14.15 M11.95,1.3l0.15-0.1h0.1
		l0.1-0.05l0.1,0.05l0.05,0.05l0.05,0.5v0.5l-0.05,0.3l-0.1,0.2H12.2h-0.15c-0.066,0-0.117,0.033-0.15,0.1L11.75,3L11.7,3.25v0.9V5
		v0.2l-0.05,0.15L11.4,5.4h-0.35h-0.3l-0.3-0.051V5V4.15v-0.8v-0.4V2.5V2V1.45l0.05-0.1V1.3c0.033-0.066,0.1-0.1,0.2-0.1h0.25h0.35
		h0.35l0.1,0.1l0.05,0.15l0.05-0.05L11.95,1.3 M15.05,6.35l-0.15,0.2l0.199-0.2l0.101-0.2L15.1,6.2L15.05,6.35 M18.5,6.25v-0.1
		l-0.15,0.2l-0.1,0.2l0.15-0.2L18.5,6.25 M8,1.25L8.25,1.2H8.3c0.767-0.034,1.284,0.133,1.55,0.5l0.1,0.2V3v1.15v0.4V4.9v0.25
		L9.9,5.35L9.45,5.4h-0.5l-0.1-0.05L8.8,5.25l-0.15,0.1l-0.2,0.1h-0.3H7.8l-0.25-0.1L7.35,5.2l-0.1-0.1L7.15,5l-0.1-0.25l-0.1-0.3
		v-0.4L7,3.7l0.05-0.3L7.2,3.15L7.35,3c0.3-0.133,0.533-0.217,0.7-0.25h0.4H8.6L8.75,2.7V2.5L8.7,2.35L8.4,2.3H8.1L7.7,2.4L7.35,2.5
		l-0.1-0.2L7.2,1.9l0.05-0.4L7.4,1.35L7.7,1.3L8,1.25 M6.6,1.3l0.05,0.2v0.3L6.6,3.35V5v0.2L6.55,5.35L6.3,5.4H6H5.65L5.4,5.35
		l-0.05-0.2L5.3,4.9l0.05-0.8V3.25V1.7V1.4l0.1-0.15H6.1h0.25L6.6,1.3 M8.4,3.65l-0.15,0.2L8.2,4.15c0,0.233,0.1,0.35,0.3,0.35
		l0.2-0.1l0.1-0.2L8.65,3.7l-0.1-0.05H8.4 M4.45,1.2L4.8,1.25L4.85,1.5v0.2v0.4v0.45v0.4L4.8,3.3l0.05,1.6l-0.1,0.45L4.3,5.85
		l-1.5,0.2L2.35,6l-0.2-0.05L2,5.8V5.3c0-0.2,0.05-0.316,0.15-0.35H2.4l0.2,0.1H3h0.35L3.45,5L3.6,4.95l0.05-0.1v-0.2L3.45,4.7
		l-0.2,0.05h-0.1h-0.5L2.25,4.6L1.9,4.1L1.8,3.6L1.7,3.1c0-0.733,0.183-1.267,0.55-1.6L2.5,1.3l0.4-0.1h0.2h0.15L3.6,1.4l0.05-0.1
		L3.7,1.2l0.35,0.05L4.45,1.2 M3,2.9l0.2,0.65L3.25,3.6L3.5,3.5l0.1-0.2V2.7L3.35,2.4C3.15,2.433,3.033,2.6,3,2.9 M0.9,4V3.8
		L0.6,3.95h0.15L0.9,4"/>
</g>
</svg>
