<?xml version="1.0" encoding="utf-8"?>
<!DOCTYPE svg PUBLIC "-//W3C//DTD SVG 1.1//EN" "http://www.w3.org/Graphics/SVG/1.1/DTD/svg11.dtd">
<svg version="1.1" id="carphone_warehouse" class="retailer" xmlns="http://www.w3.org/2000/svg" xmlns:xlink="http://www.w3.org/1999/xlink"
xml:space="preserve">
<g>
<path d="M34.5,8.7L34.25 9.65L34.25 9.85Q34.25 10.15 34.4 10.15L34.55 10.15L34.75 9.75L35 8.8L35.8 9.05L35.3 11.05L34.45 10.8L34.5 10.65L33.8 10.75L33.35 10.35L33.35 10L33.7 8.5L34.5 8.7M32,9.15L32.05 9.4L32.2 9.6L32.5 9.55L32.6 9.3L32.6 9.05L32.4 8.85L32.15 8.9L32 9.15M32.55,8.15L33.3 8.65L33.4 9.5L32.9 10.15L32.05 10.3Q31.6 10.2 31.35 9.8Q31.1 9.4 31.2 8.95Q31.3 8.5 31.75 8.3L32.55 8.15M31.25,8.5L30.9 9.95L30.1 9.75L30.35 8.8Q30.5 8.4 30.25 8.35L30.1 8.35L29.9 8.65L29.65 9.6L28.85 9.4L29.5 6.8L30.3 7L30.1 7.85Q30.15 7.65 30.5 7.7L30.85 7.75L31.3 8.15L31.25 8.5M36.8,9.2L37.2 9.4L37.25 10L36.95 9.9L36.8 9.8L36.65 9.8L36.65 9.85L36.75 10.05L37.1 10.6L37.1 10.8Q37 11.25 36.5 11.25L36.05 11.25L35.6 11.1L35.5 11.05L35.55 10.3L36.1 10.65L36.2 10.6L36.2 10.45L36.15 10.45L35.7 9.85L35.7 9.6Q35.85 9.15 36.35 9.15L36.8 9.2M37.5,9.95Q37.9 9.5 38.5 9.65L39.05 9.85Q39.5 10.2 39.35 10.8L38.05 10.9L38.05 10.95L38.4 11.15L38.7 11.25L39.25 11.1L38.9 11.8L38.15 11.85L37.55 11.55Q37.1 11.15 37.25 10.45L37.5 9.95M38.1,10.3L38.05 10.45L38.35 10.45Q38.6 10.25 38.3 10.2Q38.15 10.15 38.1 10.3M24,6.1L24.65 6.2L25.1 6.4Q25.55 6.65 25.45 7L25.1 8.5L24.35 8.3L24.35 8.15L23.75 8.25L23.4 8.1Q23.1 7.85 23.2 7.45L23.4 7.1L24.55 7.05Q24.75 6.8 24.35 6.7L23.6 6.75L23.9 6.1L24 6.1M22.3,5.4L22.35 6.7L23.05 5.6L24 5.85L22.55 7.85L21.75 7.65L21.65 6.4L20.9 7.45L20.1 7.25L19.75 4.8L20.7 5L20.75 6.3L21.45 5.2L22.3 5.4M24.1,7.45L24 7.6L24.2 7.8L24.5 7.45L24.1 7.45M28.75,7.3Q29.2 7.65 29.05 8.25L27.75 8.35L27.75 8.4L28.1 8.6L28.4 8.7L28.95 8.55L28.6 9.25L27.85 9.25L27.25 9Q26.8 8.6 26.95 7.9L27.2 7.4Q27.55 6.95 28.2 7.1L28.75 7.3M28,7.65Q27.85 7.6 27.8 7.75L27.75 7.9L28.05 7.9Q28.3 7.7 28 7.65M27.2,6.85L27.05 7.6L26.4 7.55L26.25 7.75L26 8.7L25.2 8.5L25.7 6.55L26.5 6.75L26.45 6.95Q26.5 6.75 26.85 6.8L27.2 6.85M38.75,12.95L0 3.35L0.1 3.05L38.85 12.65L38.75 12.95M15.85,4.35Q15.9 4.15 16.2 4.15L16.55 4.2L17.05 4.65L17 4.95L16.65 6.4L15.85 6.2L16.1 5.25Q16.25 4.85 16 4.8L15.85 4.8L15.65 5.15L15.4 6.1L14.6 5.9L15.1 3.85L15.9 4.05L15.85 4.35M17.25,4.95Q17.6 4.45 18.2 4.6L18.75 4.85Q19.2 5.2 19.05 5.8L17.75 5.9L17.75 6L18.15 6.2L18.4 6.2L18.95 6.1L18.55 6.8L17.85 6.8Q17.55 6.75 17.25 6.5Q16.8 6.1 16.95 5.4L17.25 4.95M17.8,5.4L18.05 5.4Q18.35 5.25 18 5.2Q17.85 5.15 17.85 5.3L17.8 5.4M11.6,2.4L11.4 3.25L11.8 3.1L12.15 3.1L12.6 3.55L12.6 3.85L12.25 5.3L11.4 5.1L11.65 4.15Q11.8 3.75 11.55 3.7L11.45 3.7Q11.25 3.8 11.2 4.05L10.95 5L10.15 4.8L10.8 2.2L11.6 2.4M10.3,3.75Q10.15 4.45 9.65 4.6L9.2 4.65L8.85 4.45L8.8 4.35L8.65 4.95L7.8 4.75L8.4 2.3L9.25 2.5L9.2 2.7Q9.25 2.5 9.5 2.5L9.7 2.5Q10.25 2.65 10.35 3.25L10.3 3.75M12.55,4.35L13.05 3.65L13.9 3.55L14.6 4.05L14.75 4.9L14.2 5.55L13.4 5.7Q12.95 5.6 12.65 5.15Q12.45 4.75 12.55 4.35M13.5,4.3L13.35 4.55L13.4 4.85L13.55 5L13.8 4.95L13.95 4.7L13.9 4.4L13.75 4.25L13.5 4.3M8.3,2.15L8.15 2.9L7.55 2.95L7.45 3.1L7.2 4.05L6.4 3.85L6.9 1.9L7.7 2.1L7.65 2.3Q7.7 2.1 8 2.15L8.3 2.15M5.3,2.8L5.2 2.95L5.35 3.1Q5.65 3.2 5.65 2.75L5.3 2.8M6.25,1.7Q6.7 1.95 6.6 2.35L6.25 3.8L5.5 3.65L5.5 3.5L4.95 3.6L4.6 3.4Q4.3 3.2 4.4 2.8L4.55 2.5L5.75 2.35L5.8 2.25L5.5 2.05L4.75 2.1L5.05 1.45L5.2 1.45L5.8 1.55L6.25 1.7M8.95,3.7L9 3.75L9.1 3.8L9.5 3.55L9.55 3.4L9.25 3.15L9.1 3.15L9.05 3.2L8.95 3.7M4.55,1L4.4 1.85L4.1 1.55L3.85 1.5L3.3 1.55L3.2 1.8Q3.1 2.15 3.45 2.35L3.7 2.45L4.4 2.45L3.95 3.25L3.6 3.25L3.4 3.2Q2.55 3 2.3 2.25L2.3 1.5Q2.5 0.75 3.2 0.65L3.95 0.7L4.55 1M1.3,1.3L1.2 1.65L1.65 1.8L1.6 2.1L0.4 1.8L0.45 1.5L0.9 1.6L1 1.25L0.55 1.15L0.65 0.8L1.85 1.1L1.75 1.45L1.3 1.3M1.7,0.55L1.8 0.2L2.05 0.3L1.9 0.95L0.7 0.65L0.85 0L1.1 0.05L1 0.4L1.2 0.45L1.3 0.1L1.55 0.15L1.45 0.5L1.7 0.55M0.45,2.8L0.15 2.75L0.35 1.85L0.65 1.9L0.6 2.2L1.5 2.45L1.45 2.75L0.55 2.5L0.45 2.8" />
</g>
</svg>
