<?xml version="1.0" encoding="utf-8"?>
<!-- Generator: Adobe Illustrator 16.0.0, SVG Export Plug-In . SVG Version: 6.00 Build 0)  -->
<!DOCTYPE svg PUBLIC "-//W3C//DTD SVG 1.1//EN" "http://www.w3.org/Graphics/SVG/1.1/DTD/svg11.dtd">
<svg version="1.1" id="Layer_1" xmlns:sketch="http://www.bohemiancoding.com/sketch/ns"
	 xmlns="http://www.w3.org/2000/svg" xmlns:xlink="http://www.w3.org/1999/xlink" x="0px" y="0px" width="137px" height="16px"
	 viewBox="0 0 137 16" enable-background="new 0 0 137 16" xml:space="preserve">
<title>clockhouse</title>
<g id="Page_1">
	<g id="Layer_1_1_">
		<path d="M0,11.057c0,2.639,1.169,4.012,3.42,4.012c2.171,0,3.44-1.392,3.44-3.95V9.602H4.567v1.965
			c0,1.004-0.391,1.518-1.147,1.518c-0.759,0-1.146-0.514-1.146-1.518V3.501c0-1.003,0.387-1.495,1.146-1.495
			c0.757,0,1.147,0.491,1.147,1.495v1.597H6.86V3.705C6.86,1.37,5.529,0,3.502,0C1.292,0,0,1.391,0,3.645V11.057L0,11.057z"/>
		<path d="M130.288,14.762h5.815v-2.171h-3.584v-4.32h2.58V6.183h-2.58V2.395h3.584V0.307h-5.815V14.762z"/>
		<path d="M115.438,11.096c0.102,2.54,1.516,3.995,3.687,3.995c1.985,0,3.46-1.476,3.46-3.604c0-2.006-0.963-3.089-2.498-4.584
			c-1.271-1.229-2.232-2.109-2.232-3.419c0-0.819,0.492-1.331,1.188-1.331c0.819,0,1.146,0.551,1.229,1.802l2.17-0.307
			c-0.164-2.253-1.494-3.583-3.338-3.583c-1.886,0-3.461,1.535-3.461,3.623c0,1.905,1.146,3.093,2.765,4.71
			c1.188,1.186,2.007,1.923,2.007,3.13c0,0.842-0.553,1.394-1.372,1.394c-0.94,0-1.392-0.696-1.474-2.147L115.438,11.096
			L115.438,11.096z"/>
		<path d="M100.966,0.307v10.75c0,2.642,1.229,4.014,3.44,4.014c2.172,0,3.42-1.393,3.42-3.951V0.307h-2.271v11.2
			c0,0.879-0.451,1.37-1.125,1.37c-0.678,0-1.188-0.491-1.188-1.37v-11.2H100.966L100.966,0.307L100.966,0.307z"/>
		<path d="M71.273,0.307v14.455h2.211V8.291h2.232v6.471h2.232V0.307h-2.232v5.896h-2.232V0.307H71.273z"/>
		<path d="M56.741,14.762h2.231V9.131l0.818-1.638l1.884,7.271h2.314l-2.764-9.521l2.478-4.935H61.49l-2.211,5.16
			c-0.083,0.183-0.184,0.51-0.308,0.941V0.307H56.74L56.741,14.762L56.741,14.762L56.741,14.762z"/>
		<path d="M41.839,11.057c0,2.639,1.168,4.012,3.419,4.012c2.171,0,3.441-1.392,3.441-3.95V9.602h-2.293v1.965
			c0,1.004-0.39,1.518-1.148,1.518c-0.757,0-1.146-0.514-1.146-1.518V3.501c0-1.003,0.39-1.495,1.146-1.495
			c0.759,0,1.148,0.491,1.148,1.495v1.597H48.7V3.705C48.7,1.37,47.369,0,45.341,0c-2.212,0-3.502,1.391-3.502,3.645V11.057
			L41.839,11.057z"/>
		<path d="M14.814,14.762h5.672v-2.088h-3.46V0.307h-2.212V14.762z"/>
		<path d="M30.589,0c-2.21,0-3.502,1.391-3.502,3.645v7.412c0,2.642,1.208,4.014,3.42,4.014c2.172,0,3.44-1.393,3.44-3.951V3.705
			C33.948,1.37,32.617,0,30.589,0z M31.655,11.566c0,1.004-0.39,1.517-1.147,1.517c-0.757,0-1.146-0.513-1.146-1.517V3.501
			c0-1.003,0.388-1.495,1.146-1.495c0.758,0,1.147,0.491,1.147,1.495V11.566z"/>
		<path d="M89.613,0c-2.211,0-3.502,1.391-3.502,3.645v7.412c0,2.642,1.209,4.014,3.422,4.014c2.169,0,3.439-1.393,3.439-3.951
			V3.705C92.973,1.37,91.641,0,89.613,0z M90.68,11.566c0,1.004-0.392,1.517-1.146,1.517c-0.758,0-1.148-0.513-1.148-1.517V3.501
			c0-1.003,0.393-1.495,1.148-1.495s1.146,0.491,1.146,1.495V11.566z"/>
	</g>
</g>
</svg>
