<?xml version="1.0" encoding="utf-8"?>
<!DOCTYPE svg PUBLIC "-//W3C//DTD SVG 1.1//EN" "http://www.w3.org/Graphics/SVG/1.1/DTD/svg11.dtd">
<svg version="1.1" id="costa" class="retailer" xmlns="http://www.w3.org/2000/svg" xmlns:xlink="http://www.w3.org/1999/xlink" xml:space="preserve">
<g>
	<path d="M24.2,4.55l0.75,5.3L23.2,9.5l-0.05-0.85l-1.4-0.301L21.4,9.15l-1.7-0.4l2.55-4.6L24.2,4.55 M23.05,7.4
		l-0.1-1.65l-0.7,1.45L23.05,7.4 M20.15,3.7L19.9,5L18.8,4.8l-0.75,3.65L16.45,8.1L17.2,4.45L16.1,4.2l0.25-1.3L20.15,3.7
		 M10.8,4.35c-0.167,0.733-0.566,1.3-1.2,1.7l-2.15,0.3C6.75,6.184,6.167,5.8,5.7,5.2c-0.434-0.633-0.567-1.3-0.4-2
		c0.133-0.733,0.5-1.284,1.1-1.65c0.667-0.4,1.4-0.517,2.2-0.35c0.7,0.133,1.267,0.517,1.7,1.15C10.767,2.95,10.933,3.617,10.8,4.35
		 M14.15,5.05L14.4,5.65L14.55,6.8C14.45,7.267,14.15,7.666,13.65,8l-0.5,0.25l-0.2,0.05L11.3,7.55c0.633-0.233,1.017-0.566,1.15-1
		V5.65L12.05,4.8c-0.133-0.4-0.167-0.75-0.1-1.05c0.1-0.467,0.35-0.85,0.75-1.15l0.6-0.35l2,0.4c-1.066,0.4-1.517,1.05-1.35,1.95
		L14.15,5.05 M7,4.4c0.2,0.267,0.467,0.434,0.8,0.5l0.9-0.15c0.3-0.167,0.483-0.4,0.55-0.7C9.317,3.717,9.233,3.4,9,3.1
		C8.833,2.867,8.6,2.717,8.3,2.65l-1,0.1c-0.233,0.2-0.383,0.467-0.45,0.8C6.783,3.85,6.833,4.133,7,4.4 M4.7,0.8l0.4,0.45L3.8,2.1
		L3.65,1.9l-0.5-0.3L2.1,1.7C1.833,1.867,1.667,2.1,1.6,2.4C1.533,2.733,1.583,3.05,1.75,3.35l0.9,0.5l0.65-0.1l0.2-0.1L4.4,4.9
		L3.95,5.2l-1.3,0.15C2.017,5.283,1.467,5.067,1,4.7L0.15,3.45c-0.167-0.434-0.2-0.883-0.1-1.35c0.1-0.5,0.3-0.917,0.6-1.25
		c0.367-0.333,0.8-0.567,1.3-0.7c0.533-0.167,1.066-0.167,1.6,0C3.95,0.283,4.333,0.5,4.7,0.8"/>
</g>
</svg>