<?xml version="1.0" encoding="utf-8"?>
<!DOCTYPE svg PUBLIC "-//W3C//DTD SVG 1.1//EN" "http://www.w3.org/Graphics/SVG/1.1/DTD/svg11.dtd">
<svg version="1.1" id="currys" class="retailer" xmlns="http://www.w3.org/2000/svg" xmlns:xlink="http://www.w3.org/1999/xlink" xml:space="preserve">
  <g>
  	<path d="M41.75,12.15l0.5,0.05l0.6,0.1l1.351,0.4l0.6,0.3l0.351,0.25l0.3,0.25l0.2,0.35l0.3,0.5L46.1,14.95
  		l-0.05,0.6l-2.6-0.7V14.45l-0.3-0.5l-0.851-0.3H41.9l-0.25,0.1c-0.2,0.1-0.268,0.267-0.2,0.5v0.1L41.6,14.45l0.4,0.3l2.35,0.8
  		L45.45,16.4L45.6,16.6l0.15,0.301c0.166,0.366,0.166,0.717,0,1.05l-0.4,0.7L45.1,18.9L44.8,19.1l-1.1,0.4h-1.3l-1-0.15l-0.551-0.1
  		L40.1,19L39.7,18.8l-0.65-0.45l-0.55-0.6L38.1,17c-0.133-0.367-0.184-0.733-0.149-1.1L40.5,16.6l0.15,0.4l0.199,0.4
  		c0.167,0.133,0.434,0.266,0.801,0.399L42.2,17.9h0.2l0.25-0.101L42.9,17.4l-0.051-0.15l-0.35-0.3l-1.55-0.55
  		c-0.3-0.134-0.55-0.268-0.75-0.4l-0.3-0.2l-0.45-0.35L39.05,15L38.9,14.7L38.8,14.4c-0.1-0.301-0.083-0.617,0.05-0.95l0.301-0.5
  		l0.199-0.2l0.601-0.35l0.6-0.2L41.75,12.15 M39.3,11.45l-4.7,6l-0.55,0.5l-0.75,0.3l-0.8-0.05l-2.8-0.75l0.45-1.851L31.1,15.9
  		l0.4-0.101l0.15-0.1l0.1-0.2v-0.2l-0.5-5.95l2.75,0.7l0.1,4.05l2.5-3.35L39.3,11.45 M25.05,7.55L24.4,9.85L24.1,9.7L23.45,9.55
  		L23.2,9.5l-0.75,0.2l-0.2,0.1l-0.2,0.2l-0.15,0.35L21,13.7l-2.5-0.65l1.75-6.65l2.5,0.65l-0.15,0.6l0.55-0.15l0.6-0.15h0.6
  		L25.05,7.55 M29.85,8.85l0.7,0.2L29.9,11.3L29.6,11.2L28.95,11H28.7l-0.75,0.15l-0.25,0.1l-0.15,0.25L27.4,11.8l-0.9,3.351L24,14.5
  		l1.75-6.65l2.5,0.7l-0.15,0.6l0.551-0.2l0.6-0.1H29.85 M18.9,6l-1.75,6.65L14.6,12l0.15-0.65l-0.3,0.101l-1.1,0.25l-0.65-0.05
  		l-0.4-0.15c-0.466-0.2-0.833-0.434-1.1-0.7l-0.3-0.4L10.7,10l-0.1-0.9l0.05-0.35l1.2-4.6l2.5,0.65l-0.8,3.15l-0.2,0.85v0.3l0.1,0.2
  		l0.2,0.35l0.2,0.1l0.3,0.15l0.7-0.15l0.3-0.15l0.15-0.15l0.1-0.35l1-3.75L18.9,6 M10.5,5.1L7.75,4.35V4l-0.2-0.65L7.3,3L6.4,2.35
  		l-1.05-0.2l-0.6,0.1C4.483,2.35,4.233,2.5,4,2.7l-0.7,1C3.033,4.333,2.967,5.017,3.1,5.75L3.2,6.1l0.2,0.35L3.55,6.7L4.9,7.45
  		L5.75,7.5l0.6-0.25L6.7,7l0.25-0.3l2.9,0.8L9.55,8l-0.4,0.45l-0.4,0.4L8.35,9.1L7.2,9.55l-0.75,0.1L5.4,9.7
  		C4.333,9.6,3.3,9.317,2.3,8.85l-1.25-1.1C0.65,7.317,0.367,6.833,0.2,6.3C0.033,5.8-0.033,5.25,0,4.65L0.2,3.5l0.5-1.15L1.1,1.8
  		l0.45-0.5L2.1,0.85l0.6-0.3C2.933,0.417,3.15,0.333,3.35,0.3L4.1,0.1l2.45,0.1L7.3,0.45l1.15,0.5l0.7,0.5l0.6,0.65l0.45,0.65
  		l0.3,0.85C10.633,4.1,10.633,4.6,10.5,5.1"/>
  </g>
</svg>
