<?xml version="1.0" encoding="utf-8"?>
<!DOCTYPE svg PUBLIC "-//W3C//DTD SVG 1.1//EN" "http://www.w3.org/Graphics/SVG/1.1/DTD/svg11.dtd">
<svg version="1.1" id="debenhams" class="retailer" xmlns="http://www.w3.org/2000/svg" xml:space="preserve">
  <g>
  	<path d="M41.1,11.4l0.65,3.899l0.15,0.5l-0.051,0.05l-0.8-0.199l0.05-0.2L41.15,15.1l-0.101-0.3l-0.149-1
  		l-0.051-0.05L39,13.25l-0.1,0.1L38.05,14.4L37.9,14.8v0.05l-0.65-0.199V14.6l0.7-0.699l2.2-2.7l0.25-0.55L41,10.8L41.1,11.4
  		 M46.6,12.25h0.051L47.3,16.2h0.05l2.45-3.15l0.7,0.2v0.05l-0.2,0.65l-0.55,3.45l0.05,0.5h-0.1L49,17.7l0.15-0.2l0.55-3.6V13.85
  		L47.2,17l-0.25,0.25L46.9,17.1L46.2,12.9l-0.05-0.051V12.9l-0.95,2.6l-0.3,1.1H44.85L44.3,16.45l0.15-0.2l0.2-0.4l1.199-3.25
  		l0.051-0.55L46.6,12.25 M40.85,13.35l-0.3-1.899l-1.2,1.399l-0.1,0.101l1.6,0.45V13.35 M55.95,15.35l-0.2-0.149
  		c-0.166-0.2-0.383-0.351-0.65-0.45h-0.75c-0.232,0.1-0.366,0.283-0.399,0.55l0.2,0.601L54.6,16.35L55.2,17.15l0.25,1
  		c-0.067,0.266-0.2,0.467-0.4,0.6l-0.649,0.3l-1.051-0.1c-0.366-0.101-0.699-0.267-1-0.5l0.15-0.55l0.25,0.3l0.8,0.45h0.9l0.45-0.7
  		c0.033-0.233-0.117-0.534-0.45-0.9L53.85,16.4L53.4,15.5l0.1-0.5c0.1-0.233,0.233-0.383,0.4-0.45L55,14.4l1.1,0.5L55.95,15.35
  		 M33,8.65L32.7,9.5l-0.2,0.9l2.4,0.7V11l0.25-0.9l0.1-0.85h0.05l0.65,0.2H36l-0.3,0.7L34.85,13.4l-0.05,0.55h-0.05l-0.7-0.2
  		l0.2-0.25l0.25-1l0.3-1.05V11.4l-2.35-0.65L32.35,10.8L31.9,12.65l-0.101,0.5L31.15,13l-0.101-0.1l0.4-0.801L31.7,11.2l0.6-2.25
  		L32.25,8.4l0.15,0.05l0.649,0.2H33 M21.9,5.7l-0.1,0.4l-0.85-0.4L20.1,5.55L20,5.5l-0.35,1.45L19.7,7l1.7,0.5l-0.15,0.4L21,7.75
  		l-1.4-0.4h-0.05L19,9.3l0.05,0.05L20,9.65l0.9,0.2h0.3L21,10.3l-2.75-0.8h0.05l0.25-0.65L19.4,5.7L19.45,5l0.05-0.05l2.4,0.7V5.7
  		 M25,6.5l0.6,0.1v0.05l0.75,1.45l1.05,2l0.4,0.75l0.8-2.75V7.45h0.05L29.3,7.6l-0.1,0.1c-0.134,0.167-0.217,0.367-0.25,0.6
  		L27.9,12.15l-0.05,0.1l-0.2-0.4l-1.55-3l-0.75-1.5l-0.1,0.2L24.5,10.7l-0.05,0.5l-0.65-0.15l0.3-0.65l0.85-3.25V6.5H25 M15.45,5
  		L15.4,4.55c-0.167-0.333-0.55-0.533-1.15-0.6H14.2L13.75,5.5l0.6,0.15h0.6L15.3,5.4L15.45,5 M15.9,5.35
  		c-0.133,0.333-0.383,0.533-0.75,0.6l0.4,0.45l0.2,0.65l-0.35,0.9c-0.2,0.267-0.45,0.417-0.75,0.45l-1.2-0.15l-1.1-0.3V7.9l0.3-0.45
  		l0.9-3.1l0.05-0.7V3.4l0.05,0.05l1.1,0.25c0.467,0.1,0.783,0.267,0.95,0.5C16,4.533,16.066,4.917,15.9,5.35 M10.25,2.6L10.15,3
  		l-0.1-0.1L9.9,2.8L8.45,2.4h-0.1L8,3.85h0.05l1.7,0.5L9.7,4.4L9.6,4.75l-0.2-0.1l-1.45-0.4H7.9L7.35,6.2L7.4,6.25l1.1,0.3l1.1,0.2
  		l-0.05,0.1L9.3,7.15H9.25l-2.6-0.7l-0.1-0.1L6.8,6.2L7,5.55L7.15,4.9L7.8,2.55L7.85,1.9V1.85l2.4,0.65V2.6 M13.65,5.85l-0.5,1.9
  		L14.45,8l0.35-0.25l0.3-0.4l0.05-0.5c-0.066-0.5-0.517-0.833-1.35-1h-0.05H13.65 M4.5,1.75C4.733,2.183,4.8,2.633,4.7,3.1
  		c0,0.467-0.167,0.9-0.5,1.3C3.867,4.733,3.467,4.967,3,5.1L1.55,5.05L0.2,4.65L0.1,4.6L0,4.55l0.4-0.8l0.85-3.1v-0.6V0L2.4,0.3
  		l1.15,0.4C3.95,0.933,4.267,1.283,4.5,1.75 M4.1,2.1C3.867,1.367,3.217,0.9,2.15,0.7L1.8,0.65l-1,3.7L0.85,4.4l1.2,0.35l1.05-0.2
  		l0.75-0.7L4.2,3L4.1,2.1"/>
  </g>
</svg>
