<?xml version="1.0" encoding="utf-8"?>
<!DOCTYPE svg PUBLIC "-//W3C//DTD SVG 1.1//EN" "http://www.w3.org/Graphics/SVG/1.1/DTD/svg11.dtd">
<svg version="1.1" id="eds_diner" class="retailer" xmlns="http://www.w3.org/2000/svg" xmlns:xlink="http://www.w3.org/1999/xlink" xml:space="preserve">
<g>
	<path d="M11.9,1.45L11.75,1.4h-0.3L10.85,1.6L10.7,1.8L10.6,2.05l0.051,0.4L10.85,2.8L10.9,2.85L11.1,3l0.15,0.15
		l0.1,0.05l0.102,0.15l-0.102,0.1H11.2L11.05,3.4L10.9,3.35L10.8,3.25L10.7,3.2L10.6,3.35L10.45,3.6L10.35,3.8L10.3,3.85V3.9
		l0.15,0.15l0.1,0.05L10.9,4.25l0.5,0.05L11.8,4.15l0.25-0.2l0.101-0.1l0.101-0.3L12.3,3.2L12,2.7l-0.45-0.3l-0.1-0.05L11.4,2.2
		h0.05V2.15l0.2,0.05L11.8,2.3l0.05,0.05L11.95,2.4L12,2.45l0.2-0.3l0.149-0.3L12.4,1.8V1.75L12.3,1.65l-0.149-0.1L12,1.5L11.9,1.45
		 M10.4,0.6l0.05,0.35l-0.2,0.35L10.1,1.45l-0.35,0.2H9.6L9.55,1.6V1.55l0.101-0.1V1.4L9.6,1.35L9.45,1.2L9.4,1l0.05-0.2L9.5,0.65
		L9.65,0.5L9.85,0.4L9.95,0.35l0.3,0.05L10.4,0.6 M10.3,0.55l-0.05-0.1L10.1,0.4H9.95c-0.134,0.033-0.233,0.1-0.3,0.2
		C9.583,0.7,9.566,0.817,9.6,0.95l0.051,0.1L9.7,1.1l0.1,0.05l0.05,0.1L9.8,1.3L9.75,1.4h0.1H9.95L10.1,1.35l0.15-0.15l0.05-0.05
		l0.101-0.4l-0.051-0.1L10.3,0.55 M10.15,1.1H10.05L10,1.05H9.95L9.9,1L9.8,0.8l0.15-0.2l0.25,0.1V1L10.15,1.1 M10.85,2.2v0.25
		l0.2,0.25l0.2,0.15l0.2,0.1l0.1,0.15l0.101,0.1l0.051,0.2L11.65,3.55l-0.101,0.1L11.4,3.75L11.05,3.7l-0.3-0.15l-0.1,0.15L10.6,3.8
		L10.7,3.9l0.149,0.05l0.25,0.1h0.351l0.25-0.1l0.05-0.05l0.2-0.15l0.1-0.3L12,3.15l-0.25-0.3l-0.35-0.2l-0.15-0.1l-0.1-0.15V2.25
		V2.1L11.3,2l0.15-0.05h0.25l0.2,0.1l0.05-0.1L12,1.9V1.8h-0.05l-0.2-0.1L11.3,1.65l-0.25,0.1L10.9,1.95L10.85,2.2 M11.25,2.3
		l0.15,0.2l0.25,0.15l0.148,0.1c0.233,0.2,0.333,0.433,0.301,0.7L12,3.75l-0.2,0.2L11.4,4.1l-0.5-0.05L10.75,4L10.6,3.9l-0.05-0.05
		V3.8l0.05-0.05l0.051-0.1l0.051-0.1V3.5l0.05-0.05h0.101L10.9,3.5l0.148,0.1l0.25,0.05l0.2-0.05L11.6,3.5V3.4l-0.101-0.25L11.4,3
		l-0.2-0.1L11.1,2.8L10.95,2.65l-0.101-0.1L10.8,2.4V2.05l0.15-0.3l0.2-0.15l0.3-0.05l0.3,0.05L12,1.7l0.1,0.05L12.15,1.8L12.1,1.9
		L12,2.1v0.05h-0.05H11.9L11.85,2.1L11.7,2.05L11.5,2l-0.15,0.05l-0.1,0.1V2.3 M10.65,1.75l0.25-0.2l0.55-0.2L12.35,1.6l0.102,0.1
		L12.4,1.85L12.2,2.2L12.1,2.4L12,2.55L11.95,2.6L12,2.65h0.05l0.2,0.25l0.1,0.35L12.3,3.7l-0.25,0.4L11.7,4.45l-0.55,0.2L10.85,4.6
		l-0.3-0.1L10.5,4.45L10.4,4.4L10.35,4.45L10.3,4.5H10.15L10.1,4.35L10.15,4.3V4.25L10.1,4.2L10,4.1h0.05V4.05L10.2,3.8l0.1-0.25
		l0.05-0.1L10.4,3.4l0.1-0.1l0.05-0.1l0.101-0.05v-0.1L10.55,3L10.5,2.85l-0.15-0.5L10.45,2L10.65,1.75 M11.2,4.95v0.1L11.15,5.2
		h0.05l0.05-0.05L11.5,4.9l0.1-0.05l0.15-0.05l0.15-0.05L12,4.8L11.9,5L11.85,5.15l-0.1,0.05v0.1L11.7,5.4v0.1h0.149l0.101-0.05
		l0.1-0.15l0.15-0.15V5.1h0.05l0.1-0.1c0.066-0.133,0.185-0.233,0.352-0.3l0.25-0.1L13.1,4.65L13.2,4.7v0.1v0.1L13.1,5L13,5.05
		L12.95,5.1H12.9L12.6,5.2v0.15L12.7,5.4l0.35-0.05L13.15,5.3l0.1-0.15L13.5,4.8l0.05-0.05l0.05-0.1l-0.1-0.1v-0.2l0.05-0.15h0.15
		l0.1,0.1v0.15l-0.05,0.1V4.6L14,4.65h0.2v0.1L14.15,4.8l-0.2,0.45l-0.05,0.2l0.05,0.2L14,5.7l0.1,0.05H14.2L14.35,5.8l0.15,0.05
		L14.55,6L14.4,6.05L14.25,6L14.1,5.95L14,5.9h-0.05H13.85H13.7L13.05,6L11.4,6.35L11,6.45l-0.4,0.1L10.45,6.6l-0.2,0.051L9.85,6.8
		L9.1,7.05L8.4,7.3L7.7,7.6L7.5,7.65L7.4,7.7L7.3,7.75L7,7.9H6.9L6.8,7.95L5.3,8.7L5.1,8.75l-0.55,0.3L4,9.35L3.85,9.45l-0.95,0.6
		l-0.3,0.2L2.55,10.3h-0.1l0.05-0.05V10.2L2.45,10V9.8L2.5,9.75l0.05-0.1l0.3-0.15L3.4,9.2l0.55-0.3L4.1,8.85l0.2-0.1L4.6,8.6
		L4.95,8.45l0.4-0.2l0.4-0.2L6,7.95L6.25,7.85C6.35,7.816,6.467,7.768,6.6,7.7l0.35-0.15l0.35-0.1C7.5,7.35,7.617,7.3,7.65,7.3
		L8.7,6.95L9.4,6.7L9.6,6.65L9.8,6.6L10,6.55l0.15-0.1L10.55,6.35l0.351-0.1l0.399-0.1l1.2-0.25l0.4-0.05L13.1,5.8h0.25l0.2-0.05
		h0.101h0.101v-0.1L13.7,5.6l-0.05-0.2V5.2l0.1-0.25l0.1-0.1L13.95,4.8L13.9,4.75H13.8h-0.1L13.65,4.8L13.6,4.9L13.4,5.2l-0.15,0.15
		l-0.15,0.1L12.85,5.6H12.5l-0.25-0.3l-0.1,0.1l-0.4,0.3l-0.3,0.05l-0.15-0.2l0.05-0.15l0.102-0.1l0.1-0.1l0.051-0.1l-0.101-0.05
		L11.45,5.1L11.35,5.2l-0.1,0.1l-0.1,0.05L11.1,5.5L10.9,5.75L10.85,5.9L10.8,5.85h-0.1L10.65,5.8L10.6,5.75L10.65,5.7l0.05-0.1
		l0.1-0.15l0.05-0.05V5.3L10.9,5.25v-0.1H10.85V5.2l-0.1,0.05L10.4,5.7L10.1,5.95L9.9,6L9.75,5.95L9.7,5.8l0.05-0.15L9.8,5.5
		L9.9,5.35L9.95,5.3V5.25H9.85L9.75,5.3l-0.1,0.05H9.5L9.45,5.4L9.4,5.5L9.35,5.6l-0.1,0.15l-0.1,0.1L8.85,6.2L8.8,6.3L8.75,6.35
		L8.4,6.65L8,6.95l-0.2,0.1L7.55,7.15H7.3L7.15,7.05l0.1-0.399L7.5,6.4L7.6,6.3l0.1-0.1H7.65L7.6,6.1V6.05L7.85,5.6l0.1-0.15L8,5.35
		l0.05-0.1v-0.1H8.1L8.2,5.1h0.1L8.4,5.15V5.2L8.35,5.25l-0.1,0.2L8.15,5.6L8.05,5.8l-0.1,0.15v0.1l0.1-0.1H8.15L8.2,5.9l0.3-0.2
		l0.25-0.15L9,5.45h0.05L9.1,5.4L9.2,5.25l0.1-0.2l0.05-0.2L9.4,4.6L9.35,4.45L9.2,4.35H9L8.85,4.4H8.8v0.05L8.75,4.5L8.7,4.55
		L8.6,4.6H8.5L8.4,4.7L8.3,4.8L8.2,4.9L8,5.1L7.8,5.35L7.75,5.4L7.7,5.45L7.65,5.4L7.6,5.3V5.25L7.65,5.2l0.4-0.4l0.2-0.2h-0.1H8.05
		h-0.1h-0.1H7.8V4.55L7.7,4.6H7.1L6.65,4.45L6.3,4.2L6.25,4.1l-0.1-0.05l-0.2-0.4l-0.1-0.5l0.1-0.65l0.3-0.45
		c0.267-0.3,0.583-0.5,0.95-0.6L7.45,1.4H7.7l0.05-0.1V1.15V0.6V0.45v-0.1V0.3L7.8,0.25L8,0.1l0.05-0.05L8.1,0H8.95v0.15v0.1v2V4.2
		l0.1-0.05H9.1H9.45l0.2,0.15l0.1,0.2v0.25L9.7,4.95L9.6,5.15H9.7h0.05L9.9,5.1L10.1,5.05H10.2l0.1,0.05v0.1l-0.05,0.05l-0.2,0.3
		V5.6v0.1h0.101l0.101-0.05L10.3,5.6l0.05-0.05l0.051-0.1l0.101-0.1l0.05-0.05l0.051-0.05l0.101-0.1l0.1-0.1L10.85,5L10.9,4.95
		L11.05,4.9h0.101L11.2,4.95 M12.6,5.05H12.7L12.8,5L13,4.9l0.05-0.1l-0.1-0.05l-0.2,0.15l-0.1,0.05L12.6,5.05 M9.95,0.7L9.85,0.75
		V0.9L9.9,0.95L9.95,1h0.1h0.05l0.051-0.1L10.1,0.75L9.95,0.7 M8.9,0.1H8.1L8.05,0.15v0.1v1.2v0.1L7.9,1.5L7.7,1.45L7.3,1.5
		C7.033,1.533,6.817,1.617,6.65,1.75L6.6,1.85L6.5,1.9L6.45,1.95V2l-0.1,0.1L6.1,2.8l0.05,0.3L6.2,3.4l0.4,0.55l0.1,0.1L6.75,4.1
		L7.1,4.25L7.5,4.3l0.45-0.05H8L8.05,4.2L8.1,4.25H8.15H8.3h0.15h0.2H8.8h0.05L8.9,4.2V4.1V3.95V1.1V0.6V0.1 M8.3,0.35v0.1v0.1v1.1
		V1.9L8.25,2H8.2L8.15,1.95L8.05,1.9l-0.4-0.15H7.2L6.85,1.9L6.6,2.15l-0.15,0.2l-0.1,0.4L6.4,3.2l0.1,0.25L6.6,3.6l0.15,0.15L7.1,4
		l0.45,0.1L8.15,3.85L8.2,3.8h0.1V4l0.15,0.05H8.5L8.35,4.1l-0.1-0.05v-0.1H8.2L8.1,4L7.8,4.1L7.4,4.15L7.2,4.1L6.9,3.95l-0.35-0.3
		L6.35,3.3L6.3,2.9l0.05-0.4l0.5-0.65L7.2,1.7l0.4-0.05L8,1.75L8.1,1.8l0.15,0.05v-0.7v-0.7v-0.1v-0.1H8.7L8.75,0.5v0.2v1.7
		L8.7,4.05L8.6,4.1L8.5,4.05L8.6,4V0.35H8.45H8.3 M7.6,2.65l-0.15-0.1h-0.2L7.1,2.6L7.05,2.75L7,2.95l0.05,0.2l0.1,0.1l0.2,0.15H7.6
		l0.15-0.05l0.05-0.1V3L7.75,2.75L7.65,2.7L7.6,2.65 M8,2.65L8.1,2.9L8,3.15l-0.15,0.2L7.6,3.45L7.25,3.4l-0.2-0.2l-0.1-0.25L7,2.7
		l0.05-0.15l0.2-0.15l0.2-0.1l0.3,0.1l0.2,0.15L8,2.6V2.65 M8.05,2.35L7.9,2.25l-0.4-0.1l-0.35,0.1L6.9,2.45l-0.1,0.2V3.1L7,3.45
		l0.4,0.2l0.5-0.1L7.95,3.5H8V3.45l0.1-0.1L8.2,3.25L8.25,2.9L8.2,2.55L8.05,2.35 M8.3,3L8.2,3.3L7.8,3.7L7.25,3.75L6.9,3.55
		l-0.2-0.4L6.65,2.8l0.1-0.3l0.1-0.05V2.4L6.9,2.35L7,2.25C7.133,2.15,7.283,2.1,7.45,2.1c0.3-0.033,0.533,0.066,0.7,0.3L8.3,2.65V3
		 M5.1,0.65v0.5L5.15,1.3L5.1,1.4v0.05L5.05,1.5l-0.2,0.15V1.7L4.8,1.75H4.7H4.55h-0.2h-0.2h-0.1h-0.1l0.1,0.05H4.2h0.65H5v0.35v0.4
		v0.1V2.8L4.95,2.85H4.9l-0.15,0.2L4.7,3.1H4.15h-0.1l-0.1,0.05v0.1L4.4,3.3h0.45H5h0.15v0.1v0.1V4v0.15v0.1l-0.1,0.1L4.8,4.6H4.75
		h-0.1h-1.9H2.6H2.5V2.8V1V0.85v-0.1l0.05-0.1l0.1-0.05L2.7,0.55L2.75,0.5V0.45L2.8,0.4h0.15H3.1h1l1,0.05v0.1V0.65 M5.1,3.35H4.65
		H4.2H4.05L3.9,3.3V3.1V2.9V2.8L4,2.75h0.15h0.4h0.4v-0.2V2.3V2.1V1.85h-0.4h-0.4h-0.1H3.9v-0.1V1.6V1.5V1.4h0.15H4.8h0.15h0.1V0.5
		h-2.2L2.8,0.6v0.1v1.8l0.05,1.75H5.1V3.35 M5.55,5.65l0.1,0.05L5.6,5.85l-0.15,0.2L5.35,6.3L5.3,6.45h0.1h0.05l0.1-0.101L5.6,6.249
		L5.65,6.2L5.7,6.15L5.75,6.05l0.1-0.15l0.1-0.15L6,5.65L6.05,5.6l0.2-0.1h0.1L6.4,5.45L6.45,5.5l-0.1,0.1l-0.3,0.5V6.2L6,6.3
		l0.05-0.05H6.1L6.35,6.1L6.6,6h0.1l0.05,0.05L6.8,6.2L6.65,6.25L6.5,6.3L6.05,6.45L5.95,6.5L5.9,6.55L5.85,6.6V6.65L5.6,7.15
		L5.35,7.55L5.2,7.75L5,7.85L4.8,7.8L4.75,7.75v-0.1V7.6l0.1-0.35L5.5,6.6l0.1-0.05L5.65,6.5L5.7,6.45V6.4H5.65v0.05L5.45,6.6
		L5.25,6.7l-0.2-0.05L5,6.45L5.05,6.3L5.25,6L5.3,5.95l0.05-0.1H5.3L5.25,5.9L4.8,6.1L4.7,6.15L4.65,6.2v0.1V6.4L4.6,6.7L4.45,6.9
		L4.3,7H4.1L4.05,6.9V6.7l0.1-0.15L4.25,6.4L4.35,6.3L4.4,6.25V6.2L4.45,6.1V6.05L4.5,6H4.45L4.4,6.05L3.95,6.6L3.85,6.65L3.8,6.75
		L3.7,6.9L3.55,7.1L3.4,7.2H3.25L3.1,7.15V7.1V7L3.05,7.05L3,7.1L2.85,7.3L2.6,7.4L2.4,7.35L2.35,7.3L2.3,7.25L2.25,7.3v0.05
		L1.9,7.8L1.8,7.9L1.7,7.95L1.65,8L0.9,8.35H0.55L0.3,8.25l-0.15-0.2L0,7.8l0.05-0.35l0.2-0.3l0.25-0.2h0.05L0.6,6.9L0.55,6.85
		L0.45,6.8L0.3,6.65L0.25,6.5V6.25l0.3-0.5l0.05-0.1L0.7,5.6l0.05-0.05l0.1-0.05l0.3-0.2l0.1-0.05H1.3l0.25-0.1L2.5,5l0.35,0.1v0.1
		L2.8,5.25L2.7,5.3L2.65,5.4L2.6,5.45l-0.05,0.1L2.5,5.65l-0.05,0.1V5.8h-0.1L2.2,5.85H2.05L2.1,5.7l0.35-0.35l0.1-0.1l0.1-0.05
		V5.15L2.5,5.1L2.35,5.15L2,5.2L1.9,5.25L1.8,5.3L1.55,5.35l-0.1,0.1L1.3,5.5L1.05,5.65l-0.3,0.3l-0.1,0.2
		C0.583,6.283,0.567,6.4,0.6,6.5l0.25,0.2L1,6.75L1.05,6.7h0.1L1.3,6.65h0.2l0.1,0.1L1.4,6.9H1.2H1.05L0.9,7L0.75,7.05L0.7,7.1
		L0.6,7.2L0.4,7.5l0.05,0.4l0.2,0.148L0.95,8.1L1.4,7.95l0.3-0.2L2.15,7.2l0.1-0.15L2.35,6.9L2.4,6.8V6.65h0.1L2.8,6.3l0.45-0.2H3.4
		L3.35,6.2v0.05L3.3,6.3L3.25,6.4h-0.1L2.95,6.55L2.7,6.75l-0.15,0.2v0.2L2.7,7.2L2.85,7.1L2.9,7L3,6.9l0.15-0.2L3.3,6.45L3.35,6.35
		l0.1-0.1L3.6,6.2h0.1h0.05v0.05L3.7,6.3L3.65,6.4L3.6,6.45l-0.05,0.1L3.5,6.6L3.45,6.7l-0.1,0.1V6.9L3.4,7l0.1-0.05L3.6,6.85
		L3.7,6.7L3.8,6.6L3.9,6.45L4,6.35L4.1,6.2L4.2,6.1L4.3,5.95L4.35,5.9l0.1-0.05l0.2-0.15l0.1-0.05l0.1,0.05v0.1L4.8,5.85L4.7,6h0.05
		H4.8c0.1-0.1,0.184-0.15,0.25-0.15l0.15-0.1l0.2-0.1H5.55 M8.6,5.8L8.5,5.9H8.45L8.35,5.95l-0.1,0.1L8.05,6.15L8,6.2L7.95,6.25
		L7.85,6.3L7.8,6.4L7.7,6.45L7.6,6.5L7.45,6.65L7.35,6.85L7.3,6.95l0.1,0.1L7.5,7l0.1-0.05L7.9,6.8l0.35-0.35l0.35-0.4L8.8,5.8
		L8.9,5.75v-0.1l-0.15,0.1L8.6,5.8 M4.75,0.65l0.1,0.05v0.5H4.7H4.6H3.7v0.1v0.1v0.3v0.35h0.15h0.1h0.4h0.4v0.1V2.3v0.25L4.65,2.6
		L4.5,2.55L3.7,2.6v0.1v0.15v0.2V3.3v0.25h0.5h0.55h0.1l0.05,0.1V3.8v0.15l-0.05,0.1H4.8H4.65h-0.8h-0.8v-0.1v-0.1v-3v-0.1v-0.1h0.1
		H3.3h1.35H4.75 M3.95,1.15h0.4h0.4v-0.2V0.8H3.1v0.1V1v1.5V4h1.65V3.7L4.3,3.65H3.85H3.7H3.55v-0.1V3.4V2.9V2.75v-0.1L3.6,2.6h0.05
		V2.55L3.7,2.5h0.1h0.15h0.3H4.6V2.35V2.2H4.2H3.8H3.7L3.55,2.15v-0.1v-0.1V1.4V1.25L3.6,1.2l0.1-0.05h0.1H3.95 M4.35,6.6V6.5
		l-0.1,0.1L4.2,6.7v0.1l0.05-0.05L4.3,6.7L4.35,6.6 M5,7.3L4.95,7.35V7.4L4.9,7.45l-0.05,0.1V7.65l0.1,0.05h0.1L5.15,7.6l0.1-0.1
		L5.3,7.4V7.35l0.1-0.1v-0.1L5.45,7.05L5.5,6.9V6.8L5.45,6.85L5.35,6.9l-0.2,0.25L5.05,7.2L5,7.3"/>
</g>
</svg>
