<?xml version="1.0" encoding="utf-8"?>
<!-- Generator: Adobe Illustrator 16.0.4, SVG Export Plug-In . SVG Version: 6.00 Build 0)  -->
<!DOCTYPE svg PUBLIC "-//W3C//DTD SVG 1.1//EN" "http://www.w3.org/Graphics/SVG/1.1/DTD/svg11.dtd">
<svg version="1.1" id="Layer_1" xmlns="http://www.w3.org/2000/svg" xmlns:xlink="http://www.w3.org/1999/xlink" x="0px" y="0px"
	 width="960px" height="560px" viewBox="0 0 960 560" enable-background="new 0 0 960 560" xml:space="preserve">
<path fill-rule="evenodd" clip-rule="evenodd" d="M520.203,235.213h3.857c3.75-0.107,5.357,3.322,5.357,6v40.183
	c0.107,2.893-1.607,5.57-4.929,5.57h-4.286V235.213L520.203,235.213z M524.167,233.713h-15.43v1.5h4.072v90.33h-4.072v1.607h17.358
	v-1.607h-5.893v-36.754h5.143c7.286,0,11.466-3.857,11.466-9.108v-36.11C536.812,238.321,533.275,233.713,524.167,233.713
	L524.167,233.713z"/>
<path fill-rule="evenodd" clip-rule="evenodd" d="M442.518,234.892c0,1.5-0.857,1.393-1.5,0.857c-2.572-1.714-5.572-3-8.358-3
	c-4.5,0-10.823,2.25-10.93,11.68v69.22c0.107,12.107,5.894,14.357,11.572,14.357c4.5,0.107,6.644-2.25,8.358-3.107
	c0.964-0.32,2.036,0.537,2.036,2.357h1.821v-44.039h3.75v-1.5h-15.645v1.5h4.5v37.824c0,3.107-2.036,5.465-4.714,5.465
	c-2.572,0-4.5-2.463-4.5-5.465v-79.398c0-2.143,0.429-7.179,3.75-7.179c6.429,0,9.858,18.858,9.858,28.609h1.821v-29.467h-1.821
	V234.892L442.518,234.892z"/>
<path fill-rule="evenodd" clip-rule="evenodd" d="M470.913,287.074l4.5-40.396l4.607,40.396H470.913L470.913,287.074z
	 M480.235,288.682l4.179,36.861h-4.071v1.607h15.43v-1.607H491.7l-10.286-91.937h-6.536l-9.644,86.792
	c-0.536,3.107-0.75,5.037-5.25,5.145v1.607h11.572v-1.607c-3.321,0-4.822-2.145-4.5-4.287l3.643-32.574H480.235L480.235,288.682z"/>
</svg>
