<?xml version="1.0" encoding="utf-8"?>
<!DOCTYPE svg PUBLIC "-//W3C//DTD SVG 1.1//EN" "http://www.w3.org/Graphics/SVG/1.1/DTD/svg11.dtd">
<svg version="1.1" id="gbk" class="retailer" xmlns="http://www.w3.org/2000/svg" xmlns:xlink="http://www.w3.org/1999/xlink"
xml:space="preserve">
<g>
<path d="M15.4,1.95L15.4 2.05L14.25 6.3L14.25 6.45L14.3 6.45L14.3 6.55L14.35 6.55L14.6 6.65L14.7 6.65L14.7 6.6L14.8 6.6L14.8 6.65L14.85 6.65L14.85 6.6L14.9 6.6L14.9 6.55L14.95 6.55L14.95 6.5L15 6.5L15.05 6.45L15.05 6.35L15.15 6.35L15.15 6.25L15.15 6.2L15.2 6.2L15.2 6.15L15.25 6.15L15.25 6.05L15.25 6L15.3 6L15.35 5.95L15.35 5.85L15.4 5.9L15.4 5.85L15.45 5.8L15.45 5.7L15.5 5.7L15.55 5.65L15.55 5.5L15.6 5.5L15.65 5.45L15.65 5.3L15.7 5.3L15.75 5.25L15.75 5.15L15.85 5.15L15.85 4.95L15.95 4.95L15.95 4.8L16 4.75L16.05 4.75L16.05 4.6L16.1 4.6L16.15 4.55L16.15 4.5L16.2 4.5L16.2 4.45L16.35 4.45L16.35 4.4L17.5 4.7L17.5 4.85L17.55 4.85L17.55 4.95L17.5 5L17.5 5.05L17.45 5.05L17.45 5.15L17.4 5.15L17.4 5.2L17.35 5.2L17.35 5.3L17.3 5.35L17.25 5.35L17.25 5.45L17.2 5.5L17.15 5.5L17.15 5.65L17.1 5.7L17.05 5.7L17.05 5.85L16.95 5.85L16.95 6L16.85 6L16.85 6.15L16.8 6.15L16.8 6.2L16.75 6.2L16.75 6.35L16.65 6.35L16.65 6.5L16.6 6.45L16.6 6.5L16.55 6.55L16.55 6.65L16.5 6.65L16.5 6.7L16.45 6.7L16.45 6.85L16.4 6.85L16.35 6.9L16.35 7L16.3 7L16.25 7.05L16.2 7.05L16.2 7.15L16.15 7.15L16.15 7.2L16.1 7.2L16.1 7.25L16.05 7.25L16.05 7.35L16 7.4L16 7.45L16.1 7.45L16.1 7.5L16.15 7.55L16.25 7.55L16.25 7.6L16.3 7.6L16.35 7.65L16.3 7.7L16.35 7.7L16.35 7.75L16.45 7.75L16.45 7.85L16.5 7.85L16.5 8L16.55 8L16.55 8.05L16.6 8.05L16.6 8.1L16.55 8.1L16.55 8.2L16.6 8.2L16.6 8.45L16.05 10.45L16.05 10.5L16.1 10.5L16.1 10.55L16.05 10.55L16.05 10.6L16.1 10.6L16.1 10.7L16.15 10.7L16.15 10.75L16.25 10.75L16.25 10.8L16.3 10.85L16.4 10.85L16.4 10.95L16.45 10.95L16.45 11.05L16.25 11.7L16.25 11.75L16.05 11.75L15.15 11.5L15.1 11.5L15.05 11.45L15.05 11.4L14.95 11.4L14.9 11.35L14.85 11.35L14.85 11.3L14.75 11.3L14.75 11.25L14.7 11.2L14.7 11.15L14.65 11.15L14.65 11.1L14.6 11.1L14.55 11.05L14.55 11L14.5 11L14.5 10.85L14.45 10.85L14.45 10.75L14.4 10.75L14.4 10.7L14.45 10.7L14.45 10.65L14.4 10.65L14.4 10.55L14.35 10.55L14.4 10.5L14.4 10.4L14.35 10.4L14.4 10.35L14.4 10.15L14.45 10.05L14.4 10.05L14.4 9.95L14.45 9.9L14.5 9.75L14.85 8.35L14.9 8.2L14.85 8.2L14.85 8.05L14.9 8.05L14.9 8L14.85 8L14.85 7.95L14.8 7.9L14.8 7.8L14.75 7.8L14.75 7.75L14.7 7.75L14.7 7.7L14.65 7.7L14.65 7.65L14.55 7.65L14.5 7.6L14.5 7.55L14.35 7.55L14.15 7.5L14.1 7.45L14.1 7.5L14 7.5L14 7.55L13.95 7.55L13.95 7.6L13.9 7.65L13.9 7.6L13.05 10.8L13 10.8L13 10.9L12.9 10.9L12.85 10.85L11.55 10.5L11.4 10.5L11.4 10.4L11.35 10.4L11.35 10.35L13.7 1.6L13.7 1.55L13.85 1.55L13.85 1.5L13.9 1.5L15.3 1.9L15.35 1.9L15.35 1.95L15.4 1.95M10.3,2.75L10.75 2.85L10.8 2.9L10.95 2.9L10.95 2.95L11 2.95L11 3L11.1 3L11.1 3.05L11.15 3.1L11.2 3.1L11.2 3.15L11.3 3.15L11.3 3.25L11.35 3.25L11.35 3.3L11.45 3.3L11.4 3.35L11.45 3.35L11.45 3.45L11.5 3.45L11.5 3.5L11.55 3.5L11.55 3.55L11.6 3.55L11.55 3.6L11.55 3.65L11.6 3.65L11.6 3.75L11.65 3.75L11.65 3.8L11.6 3.8L11.6 3.85L11.65 3.85L11.65 3.95L11.7 3.95L11.7 4L11.65 4L11.65 4.05L11.7 4.1L11.7 4.2L11.65 4.25L11.7 4.25L11.7 4.7L11.65 4.8L11.65 4.95L11.6 5.05L11.65 5.05L11.65 5.15L11.55 5.45L11.55 5.55L11.5 5.65L11.55 5.65L11.05 7.45L11 7.75L10.95 7.75L10.9 7.85L10.9 8L10.85 8L10.85 8.1L10.8 8.2L10.8 8.35L10.75 8.35L10.7 8.5L10.65 8.6L10.65 8.7L10.6 8.7L10.55 8.7L10.55 8.85L10.5 8.9L10.5 8.95L10.45 8.95L10.45 9.05L10.4 9.05L10.35 9.05L10.35 9.2L10.3 9.15L10.3 9.2L10.25 9.2L10.25 9.25L10.2 9.25L10.2 9.35L10.15 9.35L10.1 9.4L10.05 9.4L10.05 9.45L10 9.45L10 9.5L9.9 9.5L9.9 9.55L9.85 9.55L9.85 9.6L9.75 9.6L9.75 9.65L9.65 9.65L9.65 9.7L9.6 9.7L9.6 9.75L9.45 9.75L9.45 9.8L9.35 9.8L9.35 9.75L9.3 9.75L9.3 9.8L9.2 9.8L9.2 9.85L9.15 9.85L9.15 9.8L9.05 9.8L9.05 9.85L9 9.85L8.95 9.8L8.85 9.8L8.8 9.85L8.75 9.85L8.55 9.75L8.1 9.65L8 9.65L7.95 9.6L7.85 9.6L7.9 9.55L7.85 9.55L7.8 9.5L7.7 9.5L7.7 9.45L7.65 9.45L7.65 9.4L7.55 9.4L7.55 9.35L7.5 9.35L7.45 9.3L7.3 9.3L7.3 9.25L7.25 9.25L7.25 9.3L7.2 9.3L7.2 9.35L7.1 9.35L7.05 9.3L6 9.05L5.95 9L5.85 9L5.85 8.9L5.8 8.9L5.8 8.85L8.15 0.15L8.15 0.1L8.25 0.1L8.25 0.05L8.3 0.05L8.3 0L8.35 0L9.75 0.4L9.8 0.4L9.8 0.45L9.85 0.45L9.9 0.5L9.9 0.55L9.85 0.55L9.85 0.6L9.3 2.6L9.35 2.6L9.35 2.7L9.45 2.7L9.5 2.75L9.5 2.7L9.85 2.7L9.85 2.65L9.9 2.7L10.05 2.7L10.05 2.65L10.1 2.7L10.2 2.7L10.3 2.75M6.35,1.9L4.5 8.7L4.5 8.8L4.45 8.9L4.45 8.95L4.4 8.95L4.4 9L4.35 9.05L4.35 9.1L4.3 9.1L4.3 9.15L4.25 9.2L4.25 9.3L4.2 9.3L4.2 9.35L4.15 9.4L4.1 9.4L4.1 9.5L3.95 9.5L3.95 9.6L3.9 9.6L3.9 9.65L3.85 9.65L3.85 9.7L3.8 9.7L3.8 9.75L3.75 9.7L3.75 9.75L3.7 9.75L3.7 9.8L3.65 9.8L3.65 9.85L3.45 9.85L3.45 9.9L3.4 9.9L3.4 9.95L3.35 9.95L3.35 9.9L3.3 9.9L3.3 9.95L3.2 9.95L3.2 10L3.15 10L3.15 10.05L3.1 10L3 10L3 10.05L2.9 10.05L2.9 10L2.85 10L2.85 10.05L2.55 10.05L2.55 10.1L2.5 10.05L2.35 10.05L2.35 10.1L2.3 10.05L2.1 10.05L2.05 10L1.9 10L1.9 10.05L1.7 9.95L1.25 9.85L1.25 9.8L1.15 9.75L1 9.75L0.9 9.7L0.9 9.65L0.85 9.6L0.65 9.6L0.65 9.55L0.6 9.5L0.5 9.5L0.45 9.45L0.4 9.45L0.4 9.4L0.3 9.4L0.3 9.35L0.25 9.3L0.15 9.3L0.15 9.2L0.05 9.2L0.05 9.15L0 9.15L0 9.1L0.05 8.95L0.05 8.9L0.1 8.85L0.1 8.8L0.15 8.8L0.15 8.7L0.2 8.7L0.2 8.55L0.25 8.55L0.25 8.5L0.3 8.45L0.3 8.35L0.35 8.35L0.4 8.3L0.4 8.35L0.45 8.35L0.45 8.3L0.55 8.3L0.6 8.35L0.65 8.35L0.65 8.4L0.75 8.4L0.8 8.45L0.75 8.5L0.9 8.5L0.9 8.55L0.95 8.55L0.95 8.6L1.05 8.6L1.15 8.65L1.25 8.65L1.25 8.7L1.3 8.75L1.4 8.75L1.5 8.8L1.9 8.9L1.95 8.9L2.05 8.95L2.05 8.9L2.3 8.9L2.35 8.85L2.5 8.85L2.5 8.8L2.55 8.8L2.55 8.75L2.6 8.75L2.65 8.7L2.7 8.75L2.7 8.65L2.75 8.65L2.75 8.6L2.8 8.6L2.8 8.5L2.85 8.5L2.85 8.45L2.9 8.4L2.9 8.3L2.95 8.3L2.95 8.25L3 8.15L3.05 8L3.05 7.9L3 7.9L3 7.85L3.05 7.85L3.05 7.8L2.95 7.8L2.95 7.85L2.9 7.8L2.8 7.8L2.8 7.85L2.35 7.85L2.35 7.9L2.3 7.85L2.15 7.85L2.05 7.8L1.8 7.75L1.5 7.65L1.45 7.65L1.45 7.6L1.4 7.6L1.35 7.55L1.25 7.55L1.25 7.5L1.2 7.5L1.2 7.45L1.15 7.45L1.15 7.4L1.05 7.4L1.05 7.35L1 7.35L1 7.25L0.95 7.25L0.95 7.2L0.9 7.2L0.85 7.15L0.85 7.1L0.8 7.1L0.8 7L0.75 7L0.75 6.85L0.7 6.85L0.75 6.8L0.7 6.8L0.7 6.7L0.65 6.7L0.65 6.5L0.6 6.5L0.6 6.4L0.65 6.4L0.65 6.35L0.6 6.35L0.6 6.25L0.65 6.2L0.6 6.2L0.6 6.05L0.55 6L0.6 5.95L0.6 5.8L0.65 5.75L0.6 5.75L0.6 5.65L0.65 5.6L0.65 5.5L0.6 5.5L0.6 5.45L0.65 5.35L0.7 5.2L0.7 5.1L0.75 5L0.7 5L0.75 4.85L0.75 4.75L0.8 4.7L0.8 4.65L1.15 3.3L1.15 3.25L1.2 3.2L1.2 3.1L1.25 2.95L1.3 2.95L1.3 2.85L1.35 2.75L1.4 2.6L1.4 2.5L1.45 2.45L1.5 2.45L1.5 2.3L1.55 2.25L1.55 2.2L1.6 2.2L1.6 2.1L1.65 2.05L1.65 1.95L1.7 2L1.7 1.95L1.75 1.95L1.75 1.85L1.8 1.85L1.8 1.75L1.85 1.75L1.85 1.7L1.9 1.7L1.9 1.6L1.95 1.6L2 1.55L2.05 1.55L2.05 1.45L2.15 1.45L2.15 1.35L2.2 1.35L2.2 1.25L2.35 1.25L2.35 1.2L2.4 1.2L2.4 1.15L2.45 1.15L2.45 1.1L2.5 1.1L2.55 1.15L2.55 1.1L2.6 1.1L2.6 1.05L2.65 1.05L2.65 1L2.7 1L2.75 0.95L2.75 1L2.8 1L2.8 0.95L2.9 0.95L2.9 0.9L2.95 0.9L2.95 0.95L3 0.95L3 0.9L3.35 0.9L3.35 0.85L3.4 0.9L3.5 0.9L4 1.05L4.1 1.05L4.15 1.1L4.2 1.1L4.2 1.15L4.25 1.15L4.3 1.2L4.4 1.2L4.4 1.25L4.45 1.3L4.45 1.35L4.6 1.35L4.65 1.4L4.65 1.35L4.85 1.35L4.85 1.3L6.3 1.7L6.3 1.85L6.35 1.85L6.35 1.9M9.75,3.8L9.65 3.8L9.65 3.75L9.6 3.75L9.4 3.7L9.35 3.65L9.35 3.7L9.25 3.7L9.2 3.65L9.15 3.65L9.15 3.7L9.05 3.7L9.05 3.8L9 3.8L7.8 8.2L7.8 8.3L7.85 8.3L7.85 8.35L7.8 8.35L7.8 8.4L7.85 8.4L7.85 8.45L7.9 8.45L7.9 8.5L7.95 8.55L8.05 8.55L8.05 8.6L8.1 8.65L8.3 8.7L8.35 8.7L8.35 8.65L8.45 8.65L8.45 8.7L8.5 8.7L8.5 8.65L8.55 8.65L8.55 8.6L8.6 8.6L8.6 8.55L8.75 8.55L8.75 8.45L8.8 8.4L8.85 8.4L8.85 8.25L8.9 8.15L8.9 8.1L8.95 8.1L9 8L9 7.9L9.1 7.65L9.1 7.5L9.3 6.9L9.35 6.9L9.7 5.45L9.65 5.45L9.8 5.05L9.8 4.95L9.85 4.8L9.9 4.7L9.9 4.6L9.85 4.6L9.9 4.5L9.9 4.35L9.95 4.3L9.95 4.2L9.9 4.2L9.9 4.15L9.95 4.15L9.95 4.1L9.9 4.1L9.9 3.95L9.85 3.95L9.85 3.9L9.8 3.9L9.8 3.85L9.75 3.85L9.75 3.8M3.5,2.3L3.45 2.3L3.45 2.4L3.35 2.4L3.35 2.55L3.3 2.55L3.25 2.6L3.25 2.7L3.2 2.8L3.2 2.9L3.15 2.95L3.1 2.95L3.1 3.1L2.95 3.5L2.45 5.35L2.4 5.65L2.35 5.8L2.3 5.9L2.35 5.9L2.35 6L2.3 6.1L2.3 6.2L2.25 6.3L2.25 6.35L2.3 6.35L2.3 6.45L2.25 6.45L2.25 6.55L2.3 6.55L2.3 6.65L2.35 6.65L2.3 6.7L2.35 6.7L2.35 6.75L2.4 6.8L2.4 6.85L2.5 6.85L2.5 6.9L2.55 6.9L2.6 6.95L2.7 6.95L2.85 7L2.9 7L2.9 6.95L2.95 7L3 7L3 6.95L3.1 6.95L3.1 6.9L3.15 6.95L3.2 6.9L3.2 6.85L3.25 6.6L4.35 2.65L4.35 2.45L4.4 2.45L4.35 2.4L4.35 2.35L4.25 2.35L4.25 2.3L4.2 2.3L4.15 2.25L4 2.25L4 2.2L3.95 2.15L3.95 2.2L3.85 2.2L3.8 2.15L3.7 2.15L3.7 2.2L3.65 2.2L3.65 2.25L3.6 2.2L3.55 2.2L3.55 2.25L3.5 2.25L3.5 2.3" />
</g>
</svg>
