<?xml version="1.0" encoding="utf-8"?>
<!DOCTYPE svg PUBLIC "-//W3C//DTD SVG 1.1//EN" "http://www.w3.org/Graphics/SVG/1.1/DTD/svg11.dtd">
<svg version="1.1" id="handm" class="retailer" xmlns="http://www.w3.org/2000/svg" xml:space="preserve">
  <g>
    <path d="M34.3,0.1c0.2,0.133,0.217,0.55,0.05,1.25c-0.666,2.8-2.1,9.783-4.3,20.95c-0.033,0.267-0.183,0.4-0.45,0.4
	l-0.5-0.3L27.95,21.35c-0.366-0.266-0.534-0.533-0.5-0.8l1.399-8.05l1.4-6.9l-3.5,7.8L24.1,20.1l-0.55,0.551
	c-0.2,0-0.384-0.134-0.55-0.4l-0.8-1L21.6,18.2c-0.166-1.134-0.133-3.017,0.101-5.65l0.35-3.2l0.2-2.9
	c-0.566,1.667-1.35,4.117-2.35,7.35l-2.101,7l-0.4,0.75l-0.55,0.2c-0.2-0.033-0.333-0.15-0.4-0.35c-0.1-0.2-0.1-0.45,0-0.75
	c0.7-2.7,1.7-6.101,3-10.2c1.267-3.934,2.25-6.817,2.95-8.65c0.133-0.333,0.383-0.583,0.75-0.75l1.1-0.4
	c0.6-0.3,1.066-0.433,1.4-0.4c0.3,0.033,0.449,0.2,0.449,0.5L26.05,2.1l-0.1,1.3l-0.8,6c-0.334,2.3-0.5,4.317-0.5,6.05L27.55,8.4
	l3.05-6.45C30.9,1.35,31.2,0.967,31.5,0.8l0.85-0.3C33.383,0.033,34.033-0.1,34.3,0.1 M16.4,1.2l-1.25,3.25l-1.6,4l1.1-0.1l1,0.2
	L15.6,9.3l-0.45,0.4l-1,1.15l-1,0.85L12.2,12L8.55,22.3L8.1,22.7c-0.167,0-0.3-0.067-0.4-0.2l-0.75-0.8l-0.7-0.65l-0.1-0.25v-0.3
	l0.9-3l1.65-4.75L4.45,13.7l-2.6,7.1l-0.5,0.75l-0.55,0.2L0.4,21.4L0.45,20.6C1.217,18.4,2.033,16.166,2.9,13.9
	c-0.4-0.033-0.75-0.2-1.05-0.5L1.1,12.6L0.7,12.4l-0.45-0.25l-0.2-0.65c0.067-0.133,0.317-0.267,0.75-0.4l3.5-0.9l3.55-8.95
	C7.983,0.917,8.167,0.667,8.4,0.5C8.6,0.333,8.8,0.25,9,0.25c0.2,0.033,0.333,0.133,0.4,0.3l-0.1,0.8L5.95,9.8l4.2-0.85l3.2-7.8
	l0.2-0.3l0.35-0.2l1.3-0.4L16.3,0C16.667,0.067,16.7,0.467,16.4,1.2 M15.25,14.75l-0.8,1.1l0.3,0.95l0.3-0.25l0.75-0.1
	c0.2,0.2,0.15,0.517-0.15,0.95L15.2,18.05l0.2,0.55c0.167,0.367,0.117,0.601-0.15,0.7l-0.35-0.05l-0.3-0.3l-0.05-0.2
	c-0.6,0.533-1.167,0.717-1.7,0.55s-0.833-0.55-0.9-1.149c-0.1-0.601,0.1-1.184,0.6-1.75l0.9-1l-0.2-0.551l-0.1-0.75
	c0-0.266,0.1-0.516,0.3-0.75l0.8-0.449c0.3-0.033,0.567,0.033,0.8,0.199l0.45,0.65L15.25,14.75 M14.4,14.4l0.15-0.4l-0.2-0.2
	c-0.1-0.033-0.184,0.017-0.25,0.15c-0.1,0.134-0.117,0.316-0.05,0.55l0.1,0.2L14.4,14.4 M13.75,17.7l0.35-0.25l-0.3-0.8L13.55,17
	c-0.233,0.3-0.316,0.533-0.25,0.7C13.367,17.834,13.517,17.834,13.75,17.7"/>
  </g>
</svg>
