<?xml version="1.0" encoding="utf-8"?>
<!DOCTYPE svg PUBLIC "-//W3C//DTD SVG 1.1//EN" "http://www.w3.org/Graphics/SVG/1.1/DTD/svg11.dtd">
<svg version="1.1" id="hmv" class="retailer" xmlns="http://www.w3.org/2000/svg" xmlns:xlink="http://www.w3.org/1999/xlink" xml:space="preserve">
<g>
	<path d="M20.8,5.2l0.05,0.35l0.601,8.101v0.1l0.1,0.05L21.1,5.3L21.25,5h0.3l0.4,0.2L22,4.9l-0.1-0.35l0.399,0.3
		l0.15,0.5l0.399,6.1L23,11.6l-0.05,0.15l-0.3,0.1c0.1,0.2,0.316,0.283,0.649,0.25l0.4-0.35l3.3-5.3l0.45-0.05l0.35,0.25
		c0.067-0.267,0.017-0.5-0.149-0.7L28.05,6.3l0.15,0.45L28.1,7.1l-4.6,7.55c-0.334,0.333-0.733,0.449-1.2,0.35l-0.95-0.65
		l-0.199-0.6l-0.601-8.7C20.684,5.05,20.767,5.1,20.8,5.2 M23.25,11.4l3.25-5.2l-0.1,0.3l-2.95,4.8L23.25,11.4 M19.35,4.75
		l0.101-0.3L19.35,4.2l-0.3-0.35L19.6,4.3L20,5.05L19.95,5.6l-1.9,7.75L17.7,13.7l-0.4,0.1c-0.333,0.034-0.634-0.1-0.899-0.399
		l-0.2-0.551l1.2-5L17.25,7.7l-1.75,2.5l-1.65,2.45c-0.4,0.266-0.783,0.266-1.15,0c-0.333-0.2-0.5-0.467-0.5-0.801L11.55,6.3
		l-0.2,0.1l-1.3,5c-0.2,0.3-0.466,0.449-0.8,0.449c-0.3,0.033-0.567-0.083-0.8-0.35c-0.2-0.267-0.25-0.617-0.15-1.05L8.6,9.3
		l1.6-6.35l0.1-0.2l0.1,0.4l-1.85,7.5l0.05,0.1l0.15-0.05l1.9-7.6c0.267-0.4,0.6-0.583,1-0.55c0.233,0,0.55,0.133,0.95,0.4L12.2,2.1
		l0.9,0.85l0.45,2.9l0.4,2.9H14L13.7,9c-0.133,0.033-0.117,0.1,0.05,0.2l0.5,0.05l0.4-0.3L17.6,4.5c0.367-0.233,0.7-0.317,1-0.25
		l0.4,0.2L19.35,4.75 M14.25,8.6l3.1-4.55L15.9,6.3l-1.55,2.25L14.25,8.6 M12.55,11.65L12.6,11.6l-0.7-5.35l-0.05-0.1l-0.05,0.1
		l0.65,5.3L12.55,11.65 M17.7,8L16.6,12.6l0.15,0.051l1.1-4.601L17.7,8 M8.35,1.9l0.3-0.1c0.2,0.034,0.367,0.167,0.5,0.4V1.8
		l-0.1-0.4l0.4,0.35l0.15,0.5L7.45,10.8c-0.2,0.3-0.5,0.434-0.9,0.4c-0.367,0-0.617-0.184-0.75-0.55l-0.15-0.4l0.7-2.9L6.2,7.05
		l-3.3-0.8L2.65,6.4l-0.8,2.95L1.1,9.85C0.667,9.883,0.35,9.733,0.15,9.4L0,8.9l2.1-8.45L2.25,0.8L0.35,8.65L0.45,8.8l0.1-0.1
		l2-8.05l0.4-0.2c0.167,0,0.3,0.05,0.4,0.15l0.2,0.25L3.45,0L3.8,0.4l0.15,0.45L3.15,4.3L3.3,4.55L6.05,5.2L4.5,4.85L3,4.8L3.15,5
		L6.7,5.85L7.3,5.4l0.85-3.35L8.35,1.9 M7.8,2l0.05,0.15l-0.7,3L6.85,5.3l0.9-3.5L7.8,2 M6.7,7.6H6.65L6,10.05l0.05,0.101L6.4,8.85
		L6.7,7.6"/>
</g>
</svg>
