<?xml version="1.0" encoding="utf-8"?>
<!DOCTYPE svg PUBLIC "-//W3C//DTD SVG 1.1//EN" "http://www.w3.org/Graphics/SVG/1.1/DTD/svg11.dtd">
<svg version="1.1" id="house_of_fraser" class="retailer" xmlns="http://www.w3.org/2000/svg" xmlns:xlink="http://www.w3.org/1999/xlink"
xml:space="preserve">
<g>
<path d="M65.95,2.8L66.7 2.8Q67.9 2.8 67.9 1.85Q67.9 0.85 66.7 0.85L65.95 0.85L65.95 2.8M66.9,3.5L65.95 3.5L65.95 5.65L65.15 5.65L65.15 0.15L66.55 0.15Q68.7 0.15 68.7 1.85Q68.7 2.85 67.7 3.35L68.95 5.65L67.95 5.65L66.9 3.5M64.05,0.9L61.9 0.9L61.9 2.5L63.55 2.5L63.55 3.25L61.9 3.25L61.9 4.9L64.05 4.9L64.05 5.65L61.1 5.65L61.1 0.15L64.05 0.15L64.05 0.9M58.3,0.7Q57.8 0.7 57.45 1Q57.2 1.2 57.2 1.55Q57.2 2.1 58.65 2.55Q60.05 3 60.05 4.1Q60.05 4.8 59.55 5.25Q59 5.75 58.15 5.75L56.8 5.5L56.25 5.2L56.5 4.45L57 4.75L58.2 5.05Q59.25 5.05 59.25 4.2Q59.25 3.6 57.85 3.1Q56.4 2.6 56.4 1.65Q56.4 0.8 57.05 0.35Q57.55 0 58.25 0Q59.25 0 59.9 0.35L59.7 1.1Q59.1 0.7 58.3 0.7M50.75,5.65L52.9 0.1L53.8 0.1L55.85 5.65L54.95 5.65L54.45 4.4L52.15 4.4L51.65 5.65L50.75 5.65M53.3,1L52.35 3.7L54.2 3.7L53.3 1M47.1,2.8L47.85 2.8Q49.05 2.8 49.05 1.85Q49.05 0.85 47.9 0.85L47.1 0.85L47.1 2.8M47.7,0.1Q49.85 0.1 49.85 1.85Q49.85 2.85 48.85 3.35L50.1 5.65L49.15 5.65L48.1 3.5L47.1 3.5L47.1 5.65L46.3 5.65L46.3 0.1L47.7 0.1M45.2,0.85L42.85 0.85L42.85 2.5L44.7 2.5L44.7 3.25L42.85 3.25L42.85 5.65L42.05 5.65L42.05 0.1L45.2 0.1L45.2 0.85M38.6,0.85L36.25 0.85L36.25 2.5L38.1 2.5L38.1 3.25L36.25 3.2L36.25 5.65L35.45 5.65L35.45 0.1L38.6 0.1L38.6 0.85M32.85,4.45Q33.5 3.85 33.5 2.9Q33.5 1.9 32.85 1.3Q32.25 0.75 31.4 0.75Q30.55 0.75 29.95 1.3Q29.35 1.9 29.35 2.9Q29.35 3.85 30 4.45Q30.6 5 31.4 5Q32.25 5 32.85 4.45M33.55,0.9Q34.35 1.75 34.35 2.9Q34.35 4.05 33.6 4.85Q32.75 5.75 31.4 5.75Q30.1 5.75 29.25 4.85Q28.45 4.05 28.45 2.9Q28.45 1.75 29.25 0.9Q30.1 0 31.4 0Q32.75 0 33.55 0.9M24.8,2.5L24.8 3.25L23.1 3.25L23.1 4.9L25.3 4.9L25.3 5.65L22.35 5.65L22.35 0.1L25.3 0.1L25.3 0.85L23.1 0.85L23.1 2.5L24.8 2.5M20.9,1.1Q20.3 0.7 19.5 0.7Q19 0.7 18.7 1Q18.4 1.2 18.4 1.55Q18.4 2.1 19.85 2.55Q21.25 3 21.25 4.1Q21.25 4.8 20.75 5.25Q20.2 5.75 19.35 5.75L18.05 5.5L17.45 5.2L17.7 4.45L18.2 4.75L19.4 5.05Q20.4 5.05 20.4 4.2Q20.4 3.6 19 3.1Q17.6 2.6 17.6 1.65Q17.6 0.8 18.25 0.35Q18.75 0 19.45 0Q20.45 0 21.05 0.35L20.9 1.1M16.45,0.1L16.45 3.4Q16.45 4.4 15.95 5.05Q15.35 5.75 14.25 5.75Q13.2 5.75 12.6 5.05Q12.05 4.4 12.05 3.4L12.05 0.1L12.85 0.1L12.85 3.35Q12.85 4.2 13.3 4.6Q13.65 5 14.3 5Q15.65 5 15.65 3.35L15.65 0.1L16.45 0.1M11.1,2.9Q11.1 4.05 10.35 4.85Q9.5 5.75 8.2 5.75Q6.85 5.75 6.05 4.85Q5.25 4.05 5.25 2.9Q5.25 1.75 6.05 0.9Q6.85 0 8.2 0Q9.55 0 10.35 0.9Q11.1 1.7 11.1 2.9M8.2,0.75Q7.35 0.75 6.75 1.3Q6.1 1.9 6.1 2.9Q6.1 3.85 6.8 4.45Q7.4 5 8.2 5Q9 5 9.6 4.45Q10.3 3.85 10.3 2.9Q10.3 1.9 9.65 1.3Q9.05 0.75 8.2 0.75M3.55,0.1L4.35 0.1L4.35 5.65L3.55 5.65L3.55 3.2L0.8 3.2L0.8 5.65L0 5.65L0 0.1L0.8 0.1L0.8 2.45L3.55 2.45L3.55 0.1" />
</g>
</svg>
