<?xml version="1.0" encoding="utf-8"?>
<!DOCTYPE svg PUBLIC "-//W3C//DTD SVG 1.1//EN" "http://www.w3.org/Graphics/SVG/1.1/DTD/svg11.dtd">
<svg version="1.1" id="hsamuel" class="retailer" xmlns="http://www.w3.org/2000/svg" xmlns:xlink="http://www.w3.org/1999/xlink" xml:space="preserve">
<g>
	<path d="M31.6,4.6h0.051L31.4,5.2H29.55V5.15l0.2-0.65V2.75l-0.2-0.65H30.4l-0.2,0.3v0.35v2.1h0.6
		C31.066,4.883,31.334,4.8,31.6,4.6 M26,2.1h1.45l0.2-0.05h0.05V2.6h-0.05l-0.5-0.15H26.7v0.9h0.5l0.2-0.05v0.5L27,3.7h-0.3v1.1
		l0.55,0.05c0.334,0.033,0.6-0.05,0.8-0.25h0.05L27.9,5.2H26V5.15l0.2-0.25V4.5V2.75V2.4L26,2.1 M23.6,2.4L23.45,2.1h0.85l-0.2,0.3
		v0.35V4.5v0.4l0.2,0.25V5.2H23.65V4.9c-0.167,0.233-0.467,0.35-0.9,0.35l-0.8-0.3l-0.2-0.45V4V2.75L21.7,2.4l-0.2-0.3h0.85
		c-0.133,0.066-0.199,0.283-0.199,0.65V4c0,0.6,0.25,0.9,0.75,0.9l0.649-0.3l0.101-0.2V2.75L23.6,2.4 M20.35,5.2H19.45V5.15
		l0.149-0.1l0.051-0.2l-0.25-2.3l-1.051,2.7L18,4.65l-0.85-2.1L16.85,4.6v0.35L17,5.15V5.2h-0.7V5.15l0.15-0.25l0.1-0.4l0.25-1.95
		L16.65,2.1h0.8l0.05,0.2l0.85,2.1l0.75-2l0.051-0.3h0.8C19.85,2.133,19.8,2.233,19.8,2.4l0.3,2.3l0.051,0.25l0.199,0.2V5.2
		 M15.2,5.2h-0.95V5.15L14.4,5l-0.1-0.3l-0.2-0.65h-1.15L12.7,4.7L12.65,5l0.15,0.15V5.2h-0.85V5.15l0.3-0.25l0.15-0.4l0.75-1.95
		l0.1-0.25L13.1,2.1h0.7l0.95,2.4l0.15,0.4l0.3,0.25V5.2 M10.7,2.65l-0.75-0.3L9.6,2.45L9.4,2.8c0,0.2,0.267,0.417,0.8,0.65
		c0.5,0.233,0.75,0.517,0.75,0.85L10.6,4.95l-0.85,0.3l-0.8-0.1L8.8,4.55c0.3,0.233,0.633,0.35,1,0.35l0.4-0.1l0.25-0.35
		c0-0.233-0.267-0.467-0.8-0.7C9.15,3.483,8.9,3.183,8.9,2.85c0-0.267,0.117-0.483,0.35-0.65l0.8-0.15L10.7,2.1V2.65 M13.95,3.7
		l-0.4-1.2l-0.5,1.2H13.95 M5.9,2.75V4.5v0.4l0.2,0.25V5.2H5.25V5.15L5.4,4.9V4.5V3.7H3.8v0.8v0.4L4,5.15V5.2H3.15V5.15L3.3,4.9
		l0.05-0.4V2.4l-0.2-0.3H4L3.8,2.4v0.35v0.6h1.6v-0.6V2.4L5.25,2.1H6.1L5.9,2.4V2.75 M7.55,4.65l0.2,0.1l0.05,0.2l-0.05,0.2
		l-0.2,0.1l-0.2-0.1l-0.1-0.2l0.1-0.2L7.55,4.65"/>
  <path d="M17.15,7.525c-4.72,0-8.801-0.371-12.127-1.103C1.56,5.702-0.125,4.812-0.125,3.7
  	c0-1.112,1.685-2.002,5.149-2.723C8.35,0.246,12.43-0.125,17.15-0.125c4.72,0,8.816,0.371,12.176,1.103
  	c3.464,0.72,5.148,1.61,5.148,2.722c0,1.111-1.685,2.002-5.149,2.722C26,7.154,21.903,7.525,17.15,7.525z M17.15,0.125
  	c-4.703,0-8.765,0.369-12.074,1.097C1.791,1.905,0.125,2.739,0.125,3.7c0,0.961,1.666,1.794,4.95,2.477
  	c3.311,0.729,7.373,1.098,12.075,1.098c4.735,0,8.813-0.369,12.122-1.097c3.287-0.683,4.952-1.517,4.952-2.478
  	c0-0.961-1.665-1.795-4.95-2.478C25.932,0.494,21.853,0.125,17.15,0.125z"/>
</g>
</svg>
