<?xml version="1.0" encoding="utf-8"?>
<!DOCTYPE svg PUBLIC "-//W3C//DTD SVG 1.1//EN" "http://www.w3.org/Graphics/SVG/1.1/DTD/svg11.dtd">
<svg version="1.1" id="jd" class="retailer" xmlns="http://www.w3.org/2000/svg" xmlns:xlink="http://www.w3.org/1999/xlink" xml:space="preserve">
<g>
	<path d="M29.733,13.448c0.139,1.418,0.066,2.837-0.218,4.258c-0.262,1.302-0.69,2.557-1.287,3.766
		c-0.693,1.41-1.595,2.683-2.704,3.819c-1.122,1.154-2.393,2.097-3.811,2.83c-1.475,0.763-3.03,1.26-4.668,1.491
		c-1.736,0.242-3.497,0.176-5.283-0.2c-1.602-0.34-3.071-0.898-4.409-1.676c-1.324-0.77-2.5-1.743-3.531-2.921
		c-1.279-1.46-2.232-3.014-2.859-4.66c-0.757-1.986-1.059-4.139-0.902-6.457C0.209,11.5,0.838,9.426,1.947,7.476
		c0.995-1.75,2.261-3.214,3.799-4.392c1.008-0.772,2.183-1.422,3.523-1.952c1.49-0.588,2.991-0.94,4.5-1.057
		c2.957-0.231,5.652,0.302,8.086,1.601c2.057,1.098,3.791,2.653,5.203,4.668c0.654,0.93,1.211,1.961,1.667,3.092
		C29.267,10.779,29.603,12.116,29.733,13.448 M15.608,8.183c-0.115,0.036-0.17,0.12-0.167,0.25
		c-0.708,4.502-1.432,8.876-2.173,13.123c0.632-0.034,1.562-0.029,2.787,0.012c1.135,0.042,1.988,0.038,2.562-0.012
		c0.964-0.084,1.909-0.382,2.837-0.895c0.875-0.482,1.601-1.075,2.178-1.78c0.934-1.143,1.52-2.531,1.76-4.167
		c0.253-1.747,0.001-3.2-0.757-4.359c-0.699-1.075-1.874-1.752-3.523-2.031c-0.685-0.117-1.532-0.181-2.54-0.192
		C17.955,8.124,16.968,8.141,15.608,8.183 M18.199,11.108c1.095-0.022,1.98,0.126,2.657,0.447c0.753,0.354,1.204,0.901,1.354,1.643
		c0.142,0.705,0.111,1.408-0.092,2.11c-0.201,0.69-0.545,1.301-1.032,1.83c-0.505,0.549-1.106,0.947-1.806,1.195
		c-0.755,0.271-1.562,0.342-2.42,0.214c0.14-0.97,0.33-2.174,0.573-3.611l0.598-3.577C18.029,11.228,18.085,11.144,18.199,11.108
		 M11.044,11.801c-0.287,1.287-0.619,2.364-0.995,3.23c-0.978,2.268-2.44,3.523-4.388,3.765c-0.167,0.944-0.306,2.004-0.417,3.177
		c1.655-0.039,3.099-0.541,4.333-1.505c0.995-0.774,1.862-1.861,2.604-3.26c1.223-2.304,2.115-5.313,2.675-9.026H11.68v0.25
		C11.404,10.024,11.192,11.147,11.044,11.801"/>
</g>
</svg>
