<?xml version="1.0" encoding="utf-8"?>
<!-- Generator: Adobe Illustrator 16.0.0, SVG Export Plug-In . SVG Version: 6.00 Build 0)  -->
<!DOCTYPE svg PUBLIC "-//W3C//DTD SVG 1.1//EN" "http://www.w3.org/Graphics/SVG/1.1/DTD/svg11.dtd">
<svg version="1.1" id="Layer_1" xmlns:sketch="http://www.bohemiancoding.com/sketch/ns"
	 xmlns="http://www.w3.org/2000/svg" xmlns:xlink="http://www.w3.org/1999/xlink" x="0px" y="0px" width="176px" height="42px"
	 viewBox="0 0 176 42" enable-background="new 0 0 176 42" xml:space="preserve">
<path fill="#1D1D1B" d="M6.094,0c0,0,0,22.79,0,30.387c0,4.57-0.393,6.705-4.701,6.705H0l4.354,4.09
	c4.482-0.914,6.135-4.744,6.135-9.574V4.369L6.094,0z"/>
<path d="M24.3,11.417c-5.83,0-10.313,4.351-10.313,9.965c0,1.979,0.467,3.779,1.31,5.304c1.714,3.099,4.977,5.055,9.003,5.055
	c6.268,0,10.576-4.18,10.576-10.357C34.876,15.594,30.437,11.417,24.3,11.417z M24.258,28.039c-3.613,0-6.093-2.654-6.093-6.658
	c0-3.612,2.567-6.267,6.093-6.267c3.741,0,6.44,2.655,6.44,6.312C30.698,25.516,28.218,28.039,24.258,28.039z"/>
<path d="M48.142,11.327c-2.089,0-4.221,1.045-5.658,2.788V2.406h-4.09v28.938h4.09V17.378c1.74-2.002,3.046-2.742,4.656-2.742
	c2.219,0,3.613,1.784,3.613,4.57l0.001,12.14h4.091V19.335C54.845,13.983,52.015,11.327,48.142,11.327z"/>
<path d="M69.327,11.417c-2.091,0-4.222,1.044-5.659,2.785v-2.455h-4.09v19.601h4.09V17.422c1.741-1.959,3.046-2.699,4.656-2.699
	c2.22,0,3.613,1.74,3.613,4.569l0.001,12.056h4.089V19.336C76.027,13.984,73.068,11.417,69.327,11.417z"/>
<path d="M100.93,27.299h-8.816V4.022c0,0-1.317-1.347-1.758-1.796C89.811,1.669,88.176,0,88.176,0v31.346h16.581L100.93,27.299z"/>
<path d="M113.13,27.823c-3.567,0-5.7-1.871-6.312-5.285c0,0,3.102,0,4.135,0c2.35,0,9.398,0,9.398,0
	c0-7.553-3.311-11.122-8.484-11.122c-5.396,0-9.141,4.003-9.141,9.922c0,5.396,3.396,10.4,9.485,10.4
	c3.269,0.001,5.392-0.73,7.771-2.415c-0.65-0.564-2.545-2.459-2.545-2.459C115.96,27.518,114.568,27.823,113.13,27.823z
	 M111.956,14.984c2.567,0,4.178,1.741,4.353,4.201c0,0-3.596,0-4.793,0c-1.151,0-4.605,0-4.605,0
	C107.475,16.594,109.171,14.984,111.956,14.984z"/>
<path d="M148.256,11.717l-5.012,11.744l-4.846-11.732c0,0-1.178,0-1.57,0c-0.369,0-1.475,0-1.475,0l-4.824,11.732l-5.038-11.732
	h-4.363l8.781,20.01h1.22l5.747-13.965l5.792,13.965h1.219l8.711-20.022H148.256z"/>
<path d="M156.898,2.225c-1.262,0-2.309,1.088-2.309,2.394c0,1.349,1.045,2.438,2.309,2.438s2.309-1.089,2.309-2.438
	C159.207,3.312,158.162,2.225,156.898,2.225z"/>
<path d="M154.939,11.72v19.625h4.096c0,0,0-8.826,0-11.768c0-1.965,0-7.858,0-7.858H154.939z"/>
<path d="M171.486,20.394c-3.506-1.987-4.656-2.758-4.7-3.754c-0.045-0.992,0.667-1.664,2.188-1.664c1.389,0,3.553,0.619,5.856,2.185
	V13.07c-2.088-1.132-3.917-1.653-5.743-1.653c-4.068,0-6.439,2.002-6.439,5.353c0,2.697,2.307,4.395,4.524,5.701
	c1.134,0.694,2.265,1.262,3.093,1.87c0.822,0.566,1.348,1.289,1.319,1.961c-0.051,1.279-1.153,1.832-2.58,1.832
	c-1.479,0-3.833-0.791-6.485-2.661v4.438c2.564,1.349,4.394,1.828,6.791,1.83c3.695,0,6.438-2.308,6.438-5.787
	C175.75,23.907,174.787,22.264,171.486,20.394z"/>
</svg>
