<?xml version="1.0" encoding="utf-8"?>
<!DOCTYPE svg PUBLIC "-//W3C//DTD SVG 1.1//EN" "http://www.w3.org/Graphics/SVG/1.1/DTD/svg11.dtd">
<svg version="1.1" id="kfc" class="retailer" xmlns="http://www.w3.org/2000/svg" xml:space="preserve">
<g>
	<path d="M11.8,0.95L11.7,0.9h-0.05L11.6,0.85l-0.25-0.3H11.3l-0.149-0.2l-0.2-0.15H10.85L10.6,0.1l-0.25,0.05H9.95
		L9.85,0.2h-0.1c-0.2,0.033-0.3,0.15-0.3,0.35L9.3,0.7L9.2,1.15v0.2L9.15,1.4v0.15L9.3,1.75V2L9.4,2.25L9.45,2.4l0.1,0.1L9.7,2.85
		L9.95,3.1L10,3.3H9.9L9.85,3.55h-2L8.8,0h5.15v3.55H11V3.4l-0.15-0.05l0.4-0.3l0.3-0.3L11.6,2.5V2.45L11.7,2.4l0.1-0.25l-0.05-0.1
		l0.05-0.1L11.9,1.6L11.8,1.4V1.15V0.95 M7.05,0L6.1,3.55H5.2L6.15,0H7.05 M6.5,3.55L7.45,0H8.5L7.55,3.55H6.5 M6.35,4.35H5.6L5.4,5
		h0.85L6.1,5.6C6.067,5.5,5.967,5.45,5.8,5.45H5.3l-0.25,0.8V6.5L5.2,6.7H3.85l0.2-0.4l0.6-2.05L4.6,4.05L4.5,3.9h2.35l-0.2,0.65
		L6.35,4.35 M9.25,4.55L8.15,4.4c-0.467,0.133-0.734,0.482-0.8,1.05C7.283,6.017,7.55,6.3,8.15,6.3L9.3,6.05L8.9,6.7L8.05,6.8
		L7.1,6.65c-0.7-0.268-0.95-0.734-0.75-1.4C6.517,4.65,6.983,4.233,7.75,4L9.4,3.95L9.25,4.55 M4.05,0L3.1,3.55H2.55l1-3.55H4.05
		 M1.25,0L0.3,3.5H0L0.95,0H1.25 M2.25,4.25L2,5.15L3.1,4.3l0.1-0.2L3.05,3.9h1.3l-1.5,1.15L3.6,6.4l0.25,0.3H3
		C2.7,6.7,2.483,6.6,2.35,6.4l-0.4-0.95L1.7,6.25V6.5l0.15,0.2H0.4l0.2-0.15L0.7,6.3l0.55-2.05v-0.2L1.15,3.9H2.6L2.4,4.05
		L2.25,4.25 M1.35,3.5L2.3,0h0.35L1.7,3.5H1.35 M3.9,3.55L4.85,0H5.6l-1,3.55H3.9"/>
	<path d="M11.5,1.05l-0.05-0.1l-0.101-0.2l-0.1-0.05H11.2l-0.05-0.05L11,0.45L10.9,0.4L10.8,0.35L10.45,0.3H10.35
		h-0.1h-0.1H10.05L9.9,0.35L9.65,0.4L9.6,0.5L9.65,0.65v0.1L9.55,0.8h-0.1C9.383,0.933,9.367,1.117,9.4,1.35V1.4L9.35,1.5v0.1H9.45
		L9.5,1.5L9.6,1l0.15-0.2V0.55V0.5l0.1,0.05L9.9,0.6v0.1L10,0.8l0.2-0.05L10.1,0.7l-0.05-0.1l0.05-0.05l0.101,0.1V0.6V0.5h0.05
		l0.1,0.1L10.4,0.55V0.5h0.05l0.2,0.05l0.25,0.1V0.7L10.6,0.65L10.4,0.75l-0.15,0.1L10.1,0.9H9.95L9.85,1L9.8,1.2v0.15l0.25,0.05
		l0.05,0.05h-0.05h-0.2V1.5h0.25l0.15,0.05L10.3,1.6H10.4L10.6,1.5l0.5-0.05L11.15,1.5H11.3l-0.05-0.1V1.3V1.15L11.2,1l-0.05-0.15
		V0.8h0.1l0.1,0.05V0.9v0.05V1v0.05l0.2,0.15v0.1v0.05L11.6,1.3l0.051-0.15L11.6,1.1L11.5,1.05 M11.6,0.95h0.051h0.05l0.05,0.3
		l-0.05,0.1l0.05,0.1V1.9L11.7,2v0.15L11.65,2.3L11.6,2.4l-0.1,0.05l-0.05,0.3L11.25,3l-0.5,0.35v0.1h0.15l0.05,0.1L10.85,3.7h-0.3
		v0.05l-0.05,0.2v0.1l0.05,0.15L10.5,4.3h-0.1H10.35V4.05v-0.2V3.8L10.3,3.85L10.15,4.1v0.2H10.1C10,4.267,9.983,4.166,10.05,4
		l0.101-0.3V3.65H10l-0.1-0.1V3.5L10,3.35h0.1L10,3.1L9.95,3l-0.2-0.25L9.6,2.45l-0.1-0.1V2.2L9.35,1.95v-0.2V1.7L9.2,1.45L9.3,1.3
		L9.4,0.7l0.05-0.05l0.1-0.05c0-0.233,0.083-0.35,0.25-0.35L10,0.2h0.35h0.301L10.8,0.25L10.9,0.3c0.133,0,0.232,0.05,0.3,0.15V0.5
		l0.05,0.1l0.05,0.05l0.2,0.25L11.6,0.95 M10.6,1.4l0.25-0.05H10.8h-0.1L10.6,1.4 M11.1,1.9L10.8,2
		c-0.134,0.033-0.233-0.05-0.3-0.25L10.45,1.7H10.35L10.3,1.75L10.25,1.9l-0.2,0.15H10l0.2-0.15V1.8L10,1.75l-0.05,0.1L10,1.95H9.9
		L9.8,1.8H9.75L10,2.05l-0.25-0.1L9.7,1.9v0.05l0.05,0.2l0.2,0.1l0.2-0.15h0.05v0.05h0.05l0.05-0.1V2.1l0.05,0.05h0.2h0.05H10.7V2.2
		l-0.15,0.05l-0.2,0.05L10.15,2.25H10.1L10,2.3L9.9,2.4l0.05,0.05l0.1,0.05h0.101L10.3,2.4H10.4h0.1l0.15,0.1h0.199V2.45L10.9,2.4
		l0.149-0.05L11,2.3l-0.25-0.15h0.05h0.15L11.1,2.3v0.15L11.05,2.5v0.1L11,2.55L10.8,2.6h-0.1l-0.05-0.05L10.5,2.6h-0.15L10.3,2.55
		L10.25,2.6l0.1,0.05h0.101l0.1-0.05h0.05v0.05L10.55,2.7h-0.1l-0.2,0.05h-0.1L10.1,2.85v0.1h0.051l0.1-0.1h0.05l-0.05,0.2l0.15,0.3
		h0.05L10.6,3.2V2.85V2.8l0.051,0.1l0.1,0.1v0.05h0.1L11,2.75l0.05,0.05v0.15h0.05l0.15-0.15l0.2-0.4l0.05-0.15h0.1v-0.1V2
		l0.051-0.2H11.6l-0.05,0.05v0.1l-0.05,0.2V2.2l-0.05-0.05v-0.1v-0.1V1.9V1.75l0.1-0.05h0.101v0.1l0.05-0.15l-0.05-0.1
		c-0.066-0.033-0.117-0.017-0.15,0.05l-0.1,0.15L11.35,1.7V1.65L11.3,1.6h-0.1l-0.05,0.05L11.1,1.9 M11.1,1.6L11,1.55h-0.15V1.6
		L11,1.65V1.7h-0.15h-0.1H10.7v0.1l0.2,0.05L10.75,1.9l-0.1-0.05V1.9l0.05,0.05h0.149l0.2-0.25l0.05-0.05V1.6 M10.75,1.6l0.05-0.05
		h-0.1L10.65,1.6H10.75 M10.15,1.6H9.9l0.05,0.1l0.2-0.05V1.6 M10.4,2.5V2.45H10.35L10.4,2.5 M10.75,4.05h0.05L10.75,4V4.05
		 M10.7,4.05V3.9l-0.05,0.05V3.9l0.1-0.05L10.7,3.9h0.05v0.05h0.05v0.1h0.05v-0.1V3.9L10.9,3.95l-0.051,0.1l-0.1,0.05l-0.1-0.05
		v-0.1L10.7,4.05 M9.2,6.45v0.1V6.6L9.3,6.65L9.4,6.6l0.05-0.05L9.4,6.45L9.3,6.4H9.4L9.45,6.55L9.4,6.65L9.3,6.7L9.2,6.65
		L9.15,6.55L9.2,6.4h0.1L9.2,6.45 M9.4,6.6H9.35L9.3,6.55V6.6H9.25V6.45H9.3L9.4,6.5L9.35,6.55L9.4,6.6 M9.3,6.5h0.05L9.3,6.45V6.5"
		/>
</g>
</svg>
