<?xml version="1.0" encoding="utf-8"?>
<!DOCTYPE svg PUBLIC "-//W3C//DTD SVG 1.1//EN" "http://www.w3.org/Graphics/SVG/1.1/DTD/svg11.dtd">
<svg version="1.1" id="marks_and_spencer" class="retailer" xmlns="http://www.w3.org/2000/svg" xmlns:xlink="http://www.w3.org/1999/xlink" xml:space="preserve">
  <g>
    <path d="M58.45,6L58.45 6.15L57.55 6.15L57.55 6Q57.4 0.9 51.5 0.9Q49.55 0.9 48.1 1.55Q45.7 2.6 45.7 5.1Q45.7 7.1 47.4 8.15Q48.4 8.75 51.25 9.4L52.9 9.8Q56.05 10.55 57.1 11.3Q58.85 12.5 58.85 15.1Q58.85 17.7 56.65 19.15Q54.75 20.4 51.9 20.4L48.45 19.9Q46.9 19.4 45.95 18.4Q44.2 16.6 44.25 13.45L44.25 12.8L45.15 12.8L45.1 13.45Q45.1 16.45 46.8 18Q48.5 19.55 51.9 19.55Q54.4 19.55 56.05 18.45Q57.95 17.25 57.95 15.05Q57.95 12.9 56.2 11.8Q55.15 11.2 52.45 10.55L50.9 10.2Q47.9 9.55 46.75 8.8Q44.8 7.6 44.8 5.1Q44.8 2.05 47.55 0.8Q49.25 0 51.5 0Q54.85 0 56.6 1.5Q58.35 3 58.45 6M40.8,12.8L41.65 12.8L41.65 13L41.4 14.8L40.9 16.2L43.85 19.95L42.7 19.95L40.45 17.05Q39.6 18.5 38.4 19.35Q36.85 20.4 34.8 20.4Q32.6 20.4 30.95 19.1Q29.15 17.7 29.15 15.5Q29.15 13.4 30.85 11.7Q31.85 10.65 34.25 9.15L33.55 8.3L32.15 6.35Q31.45 5.15 31.45 4.2Q31.45 2.4 32.8 1.35Q33.95 0.45 35.55 0.45Q37.35 0.45 38.5 1.5Q39.65 2.55 39.65 4.2Q39.65 5.7 38.5 7L36.1 8.95L35.5 9.4L40.25 15.4L40.8 12.95L40.8 12.8M35.6,1.35Q34.15 1.35 33.25 2.15Q32.35 2.9 32.35 4.15Q32.35 4.95 32.95 5.95L35 8.7L35.2 8.55Q36.85 7.45 37.55 6.75Q38.75 5.5 38.75 4.2Q38.75 2.9 37.75 2.05Q36.85 1.35 35.6 1.35M31.5,12.25Q30.05 13.7 30.05 15.5Q30.05 17.35 31.55 18.5Q32.9 19.55 34.8 19.55Q36.7 19.55 38.1 18.45Q39.15 17.65 39.85 16.25L34.75 9.9L34.45 10.1Q32.3 11.4 31.5 12.25M26.55,0.45L26.55 19.95L25.65 19.95L25.65 2L18.75 17.65L17.75 19.95L16.95 19.95L16.9 19.85L9.05 2L9.05 19.95L8.2 19.95L8.2 0.45L9.35 0.45L9.4 0.55L17.35 18.75L25.4 0.45L26.55 0.45M5.8,5.15L0.1 5.15L0.1 2.75Q0.1 0.95 1.7 0.9L1.75 0.9Q2.6 0.9 3 1.55L3.6 1.1L4.5 1L5.1 0.95L5.4 0.9L5.8 0.65L5.8 1.45L5.65 1.55L4.45 1.65L3.65 1.85Q3.35 2.05 3.35 2.75L3.35 4.45L5.8 4.45L5.8 5.15M0.75,2.7L0.75 4.45L2.7 4.45L2.7 2.8L2.4 1.8Q2.15 1.55 1.7 1.55Q1.2 1.55 1 1.85Q0.75 2.1 0.75 2.7M3.6,5.65Q4.75 5.65 5.35 6.2Q5.95 6.75 5.95 7.8Q5.95 8.8 5.35 9.4Q4.75 9.95 3.6 9.95L0.1 9.95L0.1 9.3L3.6 9.3Q4.45 9.3 4.85 8.9Q5.25 8.55 5.25 7.8Q5.25 7 4.85 6.65Q4.45 6.3 3.6 6.3L0.1 6.3L0.1 5.65L3.6 5.65M5,11.1Q5.95 11.85 5.95 13.15Q5.95 14.4 5 15.15Q4.15 15.75 2.95 15.75Q1.75 15.75 0.9 15.15Q0 14.4 0 13.15Q0 11.85 0.9 11.1Q1.75 10.5 2.95 10.5Q4.15 10.5 5 11.1M2.95,11.15Q1.9 11.15 1.3 11.7Q0.65 12.25 0.65 13.15Q0.65 14.05 1.3 14.55Q1.9 15.1 2.95 15.1Q4 15.1 4.65 14.55Q5.25 14.05 5.25 13.15Q5.25 12.25 4.65 11.7Q4 11.15 2.95 11.15M5.8,18.4L3.45 18.4L0.1 20.75L0.1 19.95L2.75 18.1L0.1 16.2L0.15 15.45L3.45 17.75L5.8 17.75L5.8 18.4" />
  </g>
</svg>
