<?xml version="1.0" encoding="utf-8"?>
<!DOCTYPE svg PUBLIC "-//W3C//DTD SVG 1.1//EN" "http://www.w3.org/Graphics/SVG/1.1/DTD/svg11.dtd">
<svg version="1.1" id="mcdonalds" class="retailer" xmlns="http://www.w3.org/2000/svg" xmlns:xlink="http://www.w3.org/1999/xlink" xml:space="preserve">
  <g>
    <path d="M21.6,19.9Q21.3 11.95 19.95 6.45Q19.35 3.95 18.65 2.6Q17.95 1.2 17.25 1.2Q16.6 1.2 16 2.45Q15.35 3.7 14.85 6Q13.75 11.05 13.6 18.65L10.9 18.65Q10.8 11.05 9.65 6Q9.15 3.7 8.55 2.45Q7.9 1.2 7.25 1.2Q6.6 1.2 5.9 2.6Q5.2 3.95 4.55 6.45Q3.2 11.75 2.6 19.9L0 19.9Q0.9 11.3 3 5.6Q4 2.9 5.1 1.45Q6.2 0 7.25 0Q8.7 0 10 2.55Q11.3 5 12.25 9.45Q13.25 5 14.5 2.55Q15.85 0 17.25 0Q18.35 0 19.45 1.45Q20.55 2.95 21.55 5.6L23.2 11.9Q23.9 15.65 24.2 19.9L21.6 19.9" />
  </g>
</svg>