<?xml version="1.0" encoding="utf-8"?>
<!DOCTYPE svg PUBLIC "-//W3C//DTD SVG 1.1//EN" "http://www.w3.org/Graphics/SVG/1.1/DTD/svg11.dtd">
<svg version="1.1" id="nandos" class="retailer" xmlns="http://www.w3.org/2000/svg" xmlns:xlink="http://www.w3.org/1999/xlink"
xml:space="preserve">
<g>
<path d="M26.2,6.1L26.65 6.2L26.85 6.35L26.85 6.65L26.85 7.05L26.7 7.4L26.3 7.95L26.05 8.1L25.9 8.15L25.75 8.1Q25.7 8 25.8 7.85L26 7.65L25.95 7.3L25.85 7.25L25.75 7.2L25.6 7.05L25.5 6.75L25.55 6.4L25.7 6.2L25.85 6.1L26.2 6.1M21.35,4.95L21.35 5.1L21.25 5.25L21.1 5.35L20.95 5.6L20.8 5.85L20.6 6.45L20.45 6.75L20.35 7.1L20.15 7.55L19.95 7.85L19.85 8.1L19.85 8.3L19.75 8.45L19.65 8.55L19.6 8.75L19.55 8.95L19.55 9.15L19.8 9.1L20 9.15L20 9.25L19.9 9.4L19.75 9.6L19.2 9.95L18.9 10.05L18.4 9.9L18.2 9.7L18.1 9.55L18.05 9.45L17.9 9.5L17.8 9.5L17.6 9.5L17.45 9.55L17.1 9.6L16.7 9.55L16.2 9.4L15.8 9.15L15.8 9.1L15.5 8.5L15.5 8.15L15.7 7.2L15.75 7.2L15.8 7.1L15.9 7L16 6.9L16.05 6.8L16.3 6.6L16.5 6.45L16.75 6.35L17.05 6.3L17.4 6.25L17.7 6.25L18.05 6.25L18.4 6.35L18.7 6.45L18.8 6.55L19 6.6L19.15 6.5L19.25 6.3L19.4 6.15L19.5 6L19.8 5.7L19.9 5.6L20.05 5.45L20.2 5.35L20.35 5.2Q20.45 5.15 20.7 5L20.8 4.95L20.85 4.9L21 4.85L21.05 4.75L21.1 4.8L21.35 4.95M22.85,7.45L23.25 7.6L23.9 7.75L24.6 8.35L24.85 8.75L24.95 8.85L24.95 9L25.05 9.35L24.9 9.75L24.75 10.1L24.6 10.35L24.35 10.55L24.2 10.65L23.95 10.75L23.65 10.95L23.2 11L23.1 11.05L22.95 11.05L22.85 11.05L22.75 11.05L22.05 10.85L21.45 10.7L21.15 10.55L21.15 10.45L21 10.35L20.9 10.25L20.6 9.85L20.5 9.35L20.55 9.1L20.6 8.95L20.65 8.7L20.75 8.55L21.15 8.1L21.6 7.75L21.85 7.65L22.1 7.6L22.65 7.45L22.8 7.45L22.85 7.45M23.7,8.45L23.6 8.3L23.45 8.1L23.3 8.05L23.15 8L22.6 8.25L22.3 8.55L22.1 9.05L22 9.6L22.15 9.95L22.2 10.15L22.3 10.3L22.7 10.45L23.1 10.25L23.35 9.95L23.45 9.9L23.45 9.8L23.7 8.95L23.7 8.7L23.7 8.45M25.3,10.9L25.4 10.7L25.8 10.55L26.05 10.5L26.35 10.5L26.5 10.6L26.6 10.75L26.55 10.85L26.45 10.85L26.4 10.9L26.3 10.95Q26.25 10.95 26.15 11.05L26.15 11.25L26.25 11.45L26.55 11.65L27.05 11.45L27.15 11.35L27.2 11.25L27.1 10.75L26.95 10.35L26.6 9.95L26.45 9.7L26.35 9.45L26.4 9.05L26.95 8.55L27.4 8.45L27.75 8.45L28.05 8.5L28.25 8.55L28.45 8.6L28.7 8.8L28.9 8.8L29.1 8.75L29.15 8.75L29.2 8.8L29.25 8.95L29.2 9.15L29.05 9.45L28.95 9.55L28.8 9.55L28.7 9.6L28.6 9.55L28.55 9.45L28.45 9.3L28.3 9.2L28.1 9.1L27.75 9.2L27.8 9.4L27.95 9.6L28.05 9.8L28.2 9.95L28.45 10.3L28.7 10.7L28.65 11.05L28.6 11.35L28.6 11.4L28.35 11.7L28.15 11.9L27.95 12L27.8 12.1L27.45 12.15L27.1 12.2L26.9 12.15L26.75 12.1L26.2 12.1L26.05 12.1L25.75 11.95Q25.55 11.8 25.4 11.75L25.35 11.65L25.2 11.5L25.15 11.25L25.2 11L25.3 10.9M15.25,6L15.3 6.1L15.3 6.25L15.3 6.35L15.3 6.45L15.35 6.9L15.4 6.95L15.35 7.15L15.25 7.3L14.9 7.75Q14.85 7.75 14.75 7.85L14.6 8.05L14.45 8.1L14.25 8.15Q14.15 8.15 14 8.3L13.8 8.45L13.35 8.55L13.1 8.6L12.9 8.6L12.9 8.5L12.95 8.35L13.05 8.25L13.15 8.15L13.25 7.95L13.3 7.8L13.5 7.55L13.65 7.3L13.7 7.05L14.15 6.1L14.15 6.05L14.15 5.95L14.05 5.7L14 5.55L13.9 5.5Q13.85 5.4 13.8 5.45L13.65 5.55L13.5 5.65L13.3 5.8L13.1 5.9L12.85 6.55L12.55 7.2L12.4 7.5L12.25 7.55L12.15 7.7L12.3 7.9L12.45 8.1L12.4 8.15L12.2 8.2L11.55 8.05L11.5 8.1L11.45 8.1L11.15 8L10.9 8L10.8 7.9L10.65 7.85L10.55 7.75L10.55 7.65L10.6 7.55L10.8 7.55L10.9 7.45L11 7.5L11.05 7.45L11.2 7.05L11.2 6.8L11.25 6.7L11.35 6.65L11.45 6.3L11.55 6.1L11.65 5.8L11.8 5.55L11.85 5.45L11.85 5.3L11.7 5.25L11.5 5.2L11.3 5.05L11.4 4.9L11.55 4.85L11.75 4.8L11.85 4.7L12.2 4.7L12.5 4.7L12.9 4.95L13.05 5.1L13.1 5.2L13.35 5.15L13.55 5.05L13.85 5.05L14.25 5.05L14.4 5.05L14.5 5.15L14.7 5.2L14.9 5.4L15.05 5.55L15.25 5.85L15.25 6M10.6,4.25L10.65 4.45L10.75 4.7L10.8 4.9L10.8 5.15L10.6 5.45L10.45 5.65L10.25 6.15L10.1 6.45L10 6.6L10 6.75L10.1 6.7L10.15 6.7L10.35 6.7L10.45 6.95L10.25 7.2L10 7.35L9.25 7.45L9.05 7.4L8.9 7.3L8.85 7.2L8.75 7.05L8.7 6.95L8.55 6.95L8.4 7L8.2 7L8 7L7.45 7.1L6.85 6.8L6.65 6.75L6.5 6.6L6.3 6.45L6.1 6.2L5.95 5.95L5.9 5.55L6.05 5L6.2 4.7L6.35 4.55L6.7 4.2L7.05 3.9L7.5 3.75L7.9 3.65L8.3 3.65L8.65 3.65L9 3.75L9.3 3.85L9.65 4L9.75 4.1L9.9 4.2L10.05 4.2L10.25 4.1L10.3 4.1L10.4 4.1L10.45 4.15L10.6 4.25M17.9,6.85L17.3 7.25L17.05 7.7L16.9 8.25L16.95 8.5L16.95 8.7L17 8.9L17.25 9L17.45 9.05L17.6 9.05L18.05 8.8L18.15 8.25L18.2 7.95L18.45 7.5L18.55 7.3L18.6 7.05L18.45 6.9L18.3 6.85L18.2 6.8L18.15 6.85L17.9 6.85M7.25,1.4L6.95 1.6L6.6 1.6L6.5 1.95L6.35 2.3L6.35 2.5L6.25 2.6L6.2 2.65L6.1 2.8L5.85 3.3L5.7 3.75L5.6 4.1L5.2 4.7L5.1 5.05L5.05 5.35L4.75 5.9L4.6 6.1L4.45 6.25L4.15 6.05L4 5.85L3.9 5.65L3.8 5.5L3.8 5.4L3.75 5.05L3.65 4.65L3.5 4L3.4 3.75L3.3 3.55L3.15 3.1L3.15 2.9L3.1 2.6L3.05 2.35L3.05 2.25L2.9 2.15L2.85 2.2L2.8 2.35L2.65 2.5L2.6 2.65L2.6 2.75L2.35 3.15L2.35 3.3L2.3 3.4L2.2 3.55L2.15 3.65L2 4L1.9 4.2L1.8 4.4L1.75 4.75L1.9 5.1L1.95 5.25L1.95 5.4L1.65 5.45L1.3 5.35L1.1 5.25L0.85 5.2L0.45 5.1L0.4 5.15L0.3 5.1L0.1 5.05L0 4.95L0.1 4.85L0.2 4.75L0.45 4.75L0.65 4.65L0.8 4.55L0.9 4.4L1 4.3L1.25 3.75L1.35 3.55L1.4 3.3L1.65 2.8L1.75 2.6L2 2.15L2.2 1.65L2.35 1.5L2.45 1.25L2.6 0.7L2.55 0.5L2.35 0.35L2.25 0.2L2.2 0.05L2.35 0L2.5 0L2.9 0L3.45 0.25L3.85 0.45L4.15 0.65L4.25 0.9L4.25 1.25L4.3 1.45L4.45 1.6L4.55 2.05L4.6 2.45L4.7 2.7L4.75 3.05L4.8 3.15L4.8 3.2L4.85 3.3L4.95 3.35L5 3.25L5.05 3.1L5.3 2.65L5.35 2.45L5.45 2.25L5.55 2L5.6 1.85L5.8 1.35L5.7 1.25L5.6 1.2L5.55 1.05L5.55 0.95L5.65 0.8L5.85 0.8L6.1 0.8L6.35 0.9L6.7 1.05L6.95 1.05L7.25 1.4M7.5,6.15L7.9 6.4L8.1 6.4L8.25 6.45L8.65 6.3L8.85 6.05L8.95 5.95L9.05 5.8L9.2 5.45L9.35 5.05L9.45 4.95L9.55 4.8L9.45 4.65L9.4 4.6L9.2 4.45L8.95 4.25L8.9 4.3L8.85 4.3L8.5 4.3L8.3 4.35L7.85 4.65L7.75 4.85L7.55 5.15L7.5 5.35L7.45 5.55L7.5 6.15" />
</g>
</svg>
