<?xml version="1.0" encoding="utf-8"?>
<!-- Generator: Adobe Illustrator 16.0.4, SVG Export Plug-In . SVG Version: 6.00 Build 0)  -->
<!DOCTYPE svg PUBLIC "-//W3C//DTD SVG 1.1//EN" "http://www.w3.org/Graphics/SVG/1.1/DTD/svg11.dtd">
<svg version="1.1" id="Layer_1" xmlns="http://www.w3.org/2000/svg" xmlns:xlink="http://www.w3.org/1999/xlink" x="0px" y="0px"
	 width="497.707px" height="78.059px" viewBox="0 0 497.707 78.059" enable-background="new 0 0 497.707 78.059"
	 xml:space="preserve">
<g>
	<path fill="#1D1D1B" d="M258.797,0c-1.657,0.577-8.353,2.897-11.376,3.994c0,0-0.005,11.886-0.005,15.194c-1.259,0-6.101,0-8.39,0
		c0,1.156,0,9.014,0,10.013c2.044,0,6.268,0,8.39,0c0,1.479,0,17.476,0,33.934c0,11.59,7.388,14.865,13.603,14.865
		c5.196,0,8.383-0.445,11.995-1.336c0-1.276,0-7.72,0-9.937c-1.454,0.465-3.567,0.886-6.071,0.891
		c-4.479-0.005-8.101-0.871-8.101-7.284c0-1.939,0-28.3,0-31.133c0.999,0,11.639,0,14.182,0c0-1.247,0-9.07,0-10.013
		c-1.554,0-12.213,0-14.212,0C258.812,18,258.783,3.375,258.797,0z"/>
	<path fill="#1D1D1B" d="M340.184,50.417c-0.653,3.038-1.039,5.166-1.157,6.155c-0.164-0.989-0.654-3.182-1.356-6.186
		c-3.404-13.38-12.04-47.235-12.728-50.187c-2.533,0-8.362-0.003-11.465,0c-0.461,2.065-9.12,36.633-12.535,50.191
		c-0.797,3.103-1.301,5.914-1.365,6.181c-0.06-0.277-0.574-3.078-1.188-6.166c-2.633-13.182-9.264-46.317-10.056-50.278
		c-2.395,0.037-10.733,0.072-11.976,0.072c0,0,14.4,68.848,16.023,76.542c2.678,0,9.185,0,11.856,0
		c0.584-2.059,9.872-38.199,13.36-51.795c0.723-2.86,1.188-5.159,1.297-5.542c0.089,0.416,0.574,2.702,1.287,5.47
		c3.345,12.923,12.004,46.538,13.242,51.867c1.875,0,8.912,0,11.975,0c0.713-3.662,14.652-72.556,15.375-76.542
		c-1.836,0-8.418-0.06-11.337-0.072C349.17,1.767,342.767,36.843,340.184,50.417z"/>
	<path fill="#1D1D1B" d="M211.315,17.968c-6.408,0-12.742,1.037-17.347,3.016c0,1.113,0,8.947,0,10.184
		c3.115-1.472,10.562-2.961,15.417-2.961c12.765,0,12.836,5.599,12.836,11.725c-1.628,0-6.248,0-13.091,0
		c-14.865,0-22.854,9.07-22.854,18.819c0,13.475,11.087,19.249,20.066,19.249c8.125,0,12.727-3.83,15.976-6.933
		c-0.025,1.707-0.013,3.023-0.022,5.676c1.057,0,9.706,0,11.314,0c0-3.038,0-21.199,0-39.233
		C233.61,19.492,217.58,17.968,211.315,17.968z M222.236,60.561c-2.751,3.454-7.769,7.274-14.351,7.274
		c-6.569,0-10.058-4.103-10.058-9.085c0-4.964,3.729-8.897,12.052-8.897c2.857,0,10.728,0,12.356,0
		C222.236,51.96,222.236,59.304,222.236,60.561z"/>
	<path fill="#1D1D1B" d="M166.643,0.201c0,1.591,0,53.215,0,52.671c0,0.728-0.06,2.751,0.086,4.651
		c-0.935-1.881-2.034-3.572-2.338-4.137c-0.972-1.732-31.044-50.034-32.843-53.186c-1.939,0-9.065,0-11.473,0
		c-0.002,1.907,0.002,75.721,0.002,76.542c1.153,0,10.271,0,11.159,0c0-1.673,0-51.432,0-52.538c0-1.108,0.02-3.174-0.116-4.5
		c0.552,1.178,1.596,2.912,2.338,4.14c0.745,1.239,31.324,49.82,33.11,52.898c1.813,0,9.145,0.029,11.188,0
		c0-2.286,0.055-74.14,0-76.542C176.451,0.201,168.917,0.198,166.643,0.201z"/>
	<path fill="#1D1D1B" d="M388.505,18.133c-8.769,0-25.984,5.728-25.984,30.077c0,24.881,17.469,29.789,26.9,29.789
		c9.441,0,13.746-1.905,18.176-3.998c0-1.816,0-7.552,0-10.422c-2.747,1.697-8.854,4.301-16.409,4.301
		c-13.297,0-16.682-9.13-16.682-15.633c2.741,0,33.343,0,37.905,0C414.535,37.542,408.512,18.133,388.505,18.133z M374.506,42.628
		c0-6.381,4.424-14.464,13.421-14.464c9.738,0,12.935,8.91,12.935,14.464C395.25,42.628,376.857,42.628,374.506,42.628z"/>
	<path fill="#1D1D1B" d="M497.703,29.201c0-1.247,0.01-9.642,0-10.013c-1.544,0-12.9,0-14.222,0c0-1.188-0.02-15.813-0.01-19.188
		c-1.647,0.577-8.358,2.897-11.382,3.994c0,0-0.01,11.886-0.01,15.194c-1.207,0-6.066,0-8.373,0c0,1.156-0.004,9.256,0,10.013
		c2.059,0,6.275,0,8.373,0c0,1.479,0,17.476,0,33.934c0,11.59,7.393,14.865,13.638,14.865c5.177,0,8.363-0.445,11.985-1.336
		c0-1.276,0-7.72,0-9.937c-1.465,0.465-3.598,0.886-6.062,0.891c-4.488-0.005-8.11-0.871-8.11-7.284c0-1.939,0-28.3,0-31.133
		C484.515,29.201,495.169,29.201,497.703,29.201z"/>
	<path fill="#1D1D1B" d="M447.437,44.365c-1.871-0.807-4.088-1.767-7.373-3.229c-3.321-1.475-8.329-3.377-8.329-7.544
		c0-3.753,3.746-5.599,9.071-5.599c5.324,0,10.154,1.208,15.607,3.909c0-0.94,0-8.769,0-10.649c-2.42-1.21-9.076-3.073-16.068-3.073
		c-15.404,0-20.373,9.575-20.373,15.892c0,9.842,7.022,13.42,10.991,15.251c4.558,2.063,6.903,3.038,10.303,4.537
		c5.058,2.223,7.778,3.454,7.778,7.571c0,3.652-3.004,6.661-10.184,6.661c-6.923,0-14.063-2.727-17.963-4.801
		c0,1.792,0,7.868,0,10.848c4.845,2.311,11.881,3.919,18.314,3.919c14.538,0,21.604-8.986,21.604-16.979
		C460.817,52.792,456.922,48.448,447.437,44.365z"/>
</g>
<g>
	<path fill="#1D1D1B" d="M19.12,22.538l21.511-0.025c1.89,0,3.58,1.057,4.453,2.573l0.094,0.148l10.706,18.423
		c0.131,0.203,0.349,0.352,0.606,0.352c0.26,0,0.492-0.124,0.628-0.332l11.49-19.89c0.46-0.839,0.49-1.871-0.015-2.754L57.448,1.757
		c-0.522-0.916-1.521-1.529-2.677-1.529h-1.012h-0.002h-21.34c-1.014,0-1.944,0.535-2.39,1.354L18.524,21.459
		c-0.119,0.215-0.119,0.49,0.013,0.708C18.66,22.379,18.878,22.515,19.12,22.538z M55.407,1.873c0-0.558-0.272-1.049-0.697-1.347
		C55.134,0.823,55.407,1.313,55.407,1.873z M54.407,0.356c-0.006-0.002-0.012-0.003-0.018-0.005
		C54.395,0.353,54.401,0.354,54.407,0.356z M54.689,0.509c-0.041-0.028-0.087-0.047-0.131-0.071
		C54.602,0.461,54.648,0.481,54.689,0.509z"/>
	<path fill="#1D1D1B" d="M26.783,56.924c-0.928-1.589-0.836-3.567,0.008-5.132l0.094-0.158l10.619-18.438
		c0.117-0.215,0.124-0.478-0.012-0.7c-0.131-0.206-0.356-0.364-0.599-0.371H13.887c-0.898,0.015-1.811,0.5-2.318,1.351L0.405,52.802
		c-0.524,0.9-0.557,2.098,0.002,3.107L0.9,56.699c0.006,0.011,0.009,0.021,0.015,0.032l10.716,18.478
		c0.5,0.911,1.42,1.455,2.306,1.455l22.965-0.005c0.25-0.01,0.495-0.153,0.628-0.391c0.134-0.228,0.139-0.495,0.03-0.708
		L26.783,56.924z"/>
	<path fill="#1D1D1B" d="M87.087,52.97L75.636,33.093c-0.131-0.203-0.369-0.332-0.628-0.332c-0.265,0-0.493,0.111-0.616,0.312
		L63.629,51.704c-0.94,1.657-2.699,2.544-4.454,2.559h-0.193H37.704c-0.252,0.01-0.49,0.168-0.624,0.405
		c-0.131,0.223-0.136,0.48-0.037,0.708l11.495,19.893c0.498,0.831,1.4,1.405,2.43,1.405l22.273-0.02
		c1.062-0.01,2.105-0.589,2.669-1.604l0.508-0.803c0.002-0.003,0.005-0.006,0.007-0.009l10.64-18.487
		C87.58,54.841,87.564,53.762,87.087,52.97z"/>
</g>
</svg>
