<?xml version="1.0" encoding="utf-8"?>
<!DOCTYPE svg PUBLIC "-//W3C//DTD SVG 1.1//EN" "http://www.w3.org/Graphics/SVG/1.1/DTD/svg11.dtd">
<svg version="1.1" id="newlook" class="retailer" xmlns="http://www.w3.org/2000/svg" xml:space="preserve">
  <g>
    <path d="M69.2,4.95L68.55 5.2L67.95 4.95Q67.7 4.7 67.7 4.35Q67.7 4 67.95 3.75Q68.2 3.5 68.55 3.5Q68.9 3.5 69.2 3.75L69.45 4.35L69.2 4.95M73.5,7.7L68.6 8.3L63.6 7.7Q61.25 7.15 59.4 6.05Q57.55 5 56.5 3.6Q55.35 2.1 55.25 0.45L55.35 0.15L55.6 0L55.9 0.1L56.05 0.4Q56.15 1.8 57.15 3.1Q58.15 4.35 59.85 5.35Q61.55 6.35 63.75 6.9L68.6 7.45L73.3 6.9Q75.5 6.4 77.2 5.4Q78.9 4.45 79.9 3.2Q80.9 1.95 81.1 0.6Q81.1 0.4 81.25 0.3Q81.35 0.2 81.55 0.2L81.8 0.35L81.9 0.65Q81.7 2.3 80.55 3.75Q79.45 5.1 77.6 6.1Q75.8 7.15 73.5 7.7M52.85,3.3L53.15 4.3L53.15 4.65L29.8 4.65L29.85 4.85L30.45 5.45Q31.3 6.05 32.85 6.55L36.5 7.35L41 7.65L47.95 7L50.65 6.25Q51.8 5.85 52.35 5.35L52.65 5.3L52.95 5.45L53.05 5.75L52.9 6Q51.5 7.15 48.15 7.8L41 8.45L35.1 7.95Q32.45 7.45 30.8 6.6Q29.65 6 29.2 5.3Q28.85 4.8 28.85 4.3Q28.85 3.8 29.2 3.3L29.95 2.5Q30.9 1.8 32.6 1.25Q36.1 0.15 41 0.15L46.95 0.65Q49.6 1.1 51.25 2Q52.4 2.6 52.85 3.3M49.2,2.05L45.55 1.25L41 0.95L35.25 1.45Q32.7 1.95 31.2 2.7Q30.25 3.2 29.85 3.75L29.85 3.8L52.2 3.8L52.15 3.75L51.55 3.15Q50.75 2.55 49.2 2.05M45.7,13.3L43.45 12.9L41.15 13.3Q40.2 13.7 40.2 14.25Q40.2 14.85 41.15 15.25L43.45 15.65L45.7 15.25Q46.65 14.85 46.65 14.25Q46.65 13.7 45.7 13.3M47.35,14.25Q47.35 15.1 46.2 15.65L43.45 16.2Q41.8 16.2 40.65 15.65Q39.5 15.1 39.5 14.25Q39.5 13.45 40.65 12.9Q41.8 12.35 43.45 12.35Q45.05 12.35 46.2 12.9Q47.35 13.45 47.35 14.25M48.35,11.2L48.6 11.1L48.85 11.2L48.95 11.45L48.95 14.45L52.7 12.3L52.9 12.25L53.1 12.4L53.1 12.6L53 12.75L50.8 14.05L53.05 15.6L53.15 15.75L53.1 16L52.95 16.1L52.7 16.05L50.25 14.35L48.95 15.1L48.95 15.8L48.85 16.05L48.6 16.15L48.35 16.05L48.25 15.8L48.25 11.45L48.35 11.2M37.85,12.9Q38.95 13.45 38.95 14.25Q38.95 15.1 37.85 15.65Q36.7 16.2 35.05 16.2Q33.45 16.2 32.3 15.65Q31.15 15.1 31.15 14.25Q31.15 13.45 32.3 12.9Q33.45 12.35 35.05 12.35Q36.7 12.35 37.85 12.9M38.25,14.25Q38.25 13.7 37.35 13.3L35.05 12.9L32.8 13.3Q31.85 13.7 31.85 14.25Q31.85 14.85 32.8 15.25Q33.75 15.65 35.05 15.65L37.35 15.25Q38.25 14.85 38.25 14.25M28.9,11.2L29.15 11.1L29.4 11.2L29.5 11.45L29.5 15.8L29.4 16.05L29.15 16.15L28.9 16.05L28.8 15.8L28.8 11.45L28.9 11.2M13.3,1L8.55 1.6Q6.35 2.15 4.6 3.15Q2.9 4.15 1.95 5.45Q0.95 6.75 0.8 8.15L0.7 8.4L0.4 8.5L0.35 8.5L0.1 8.4L0 8.05Q0.15 6.4 1.3 4.95Q2.35 3.5 4.2 2.45Q6 1.35 8.3 0.8L13.3 0.2L18.25 0.8Q20.55 1.35 22.35 2.4Q24.15 3.45 25.25 4.85Q26.4 6.3 26.6 7.95L26.5 8.25L26.25 8.4L25.95 8.3L25.8 8Q25.65 6.65 24.6 5.35Q23.6 4.1 21.95 3.1Q20.2 2.1 18.05 1.6L13.3 1" />
  </g>
</svg>
