<?xml version="1.0" encoding="UTF-8" standalone="no"?>
<svg width="38px" height="20px" viewBox="0 0 38 20" version="1.1" xmlns="http://www.w3.org/2000/svg" xmlns:xlink="http://www.w3.org/1999/xlink">
    <title>next</title>
    <g id="Page 1" fill="#D8D8D8" fill-rule="evenodd">
        <g id="next" fill="#000000">
            <path d="M0,0 L0,19.2000008 L37.9500008,19.2000008 L37.9500008,0 L0,0 Z M0,0" class="black"/>
            <path d="M15.45,17.15 L14.7,17.15 L14.7,12.35 L14.65,12.35 L14.65,12.1 L14.6,12.1 L14.6,11.9 L14.55,11.9 L14.55,11.8 L14.5,11.8 L14.5,11.65 L14.45,11.65 L14.45,11.55 L14.4,11.55 L14.4,11.5 L14.35,11.5 L14.35,11.4 L14.3,11.4 L14.3,11.35 L14.25,11.35 L14.25,11.3 L14.2,11.3 L14.2,11.25 L14.15,11.25 L14.15,11.2 L14.05,11.2 L14.05,11.15 L14,11.15 L14,11.1 L13.95,11.1 L13.95,11.05 L13.85,11.05 L13.85,11 L13.75,11 L13.75,10.95 L13.65,10.95 L13.65,10.9 L13.5,10.9 L13.5,10.85 L13.3,10.85 L13.3,10.8 L13.05,10.8 L13.05,10.75 L12.9,10.75 L12.85,10.75 L12.25,10.75 L12.25,10.8 L11.95,10.8 L11.95,10.85 L11.75,10.85 L11.75,10.9 L11.6,10.9 L11.6,10.95 L11.45,10.95 L11.45,11 L11.35,11 L11.35,11.05 L11.25,11.05 L11.25,11.1 L11.15,11.1 L11.15,11.151 L11.05,11.151 L11.05,11.201 L10.95,11.201 L10.95,11.251 L10.9,11.251 L10.9,11.301 L10.85,11.301 L10.85,11.351 L10.75,11.351 L10.75,11.452 L10.7,11.452 L10.65,11.452 L10.65,11.502 L10.6,11.502 L10.6,11.602 L10.55,11.602 L10.55,11.653 L10.5,11.653 L10.5,11.703 L10.45,11.703 L10.45,11.753 L10.4,11.753 L10.4,11.853 L10.35,11.853 L10.35,11.9 L10.3,11.9 L10.3,11.95 L10.3,12.05 L10.25,12.05 L10.25,12.151 L10.2,12.151 L10.2,12.3 L10.15,12.3 L10.15,12.55 L10.1,12.55 L10.1,12.7 L10.05,12.7 L10.05,17.15 L9.3,17.15 L9.3,10.4 L10.05,10.4 L10.05,11.15 L10.1,11.15 L10.1,11.1 L10.15,11.1 L10.15,11.05 L10.2,11.05 L10.2,11 L10.25,11 L10.25,10.95 L10.3,10.95 L10.3,10.9 L10.35,10.9 L10.35,10.85 L10.4,10.85 L10.4,10.8 L10.45,10.8 L10.45,10.75 L10.55,10.75 L10.55,10.7 L10.6,10.7 L10.6,10.65 L10.65,10.65 L10.65,10.6 L10.75,10.6 L10.75,10.55 L10.8,10.55 L10.8,10.5 L10.9,10.5 L10.9,10.45 L11,10.45 L11,10.4 L11.05,10.4 L11.05,10.35 L11.25,10.35 L11.25,10.3 L11.35,10.3 L11.35,10.25 L11.45,10.25 L11.45,10.2 L11.7,10.2 L11.7,10.15 L11.85,10.15 L11.85,10.1 L12.15,10.1 L12.15,10.05 L13.15,10.05 L13.15,10.1 L13.5,10.1 L13.5,10.15 L13.6,10.15 L13.6,10.2 L13.85,10.2 L13.85,10.25 L14,10.25 L14,10.3 L14.1,10.3 L14.1,10.35 L14.25,10.35 L14.25,10.4 L14.3,10.4 L14.3,10.45 L14.4,10.45 L14.4,10.5 L14.5,10.5 L14.5,10.6 L14.6,10.6 L14.6,10.651 L14.65,10.651 L14.65,10.701 L14.75,10.701 L14.75,10.751 L14.8,10.751 L14.8,10.801 L14.85,10.801 L14.85,10.9 L14.9,10.9 L14.9,10.95 L14.95,10.95 L14.95,11 L15,11 L15,11.05 L15.05,11.05 L15.05,11.151 L15.1,11.151 L15.1,11.201 L15.15,11.201 L15.15,11.301 L15.2,11.301 L15.2,11.451 L15.25,11.451 L15.25,11.551 L15.3,11.551 L15.3,11.751 L15.35,11.751 L15.35,11.901 L15.4,11.901 L15.4,12.151 L15.45,12.151 L15.45,17.15 Z M15.45,17.15" class="white" fill="#FFFFFF"/>
            <path d="M23.4,14 L17.3,14 L17.3,14.3 L17.35,14.3 L17.35,14.5 L17.4,14.5 L17.4,14.7 L17.4,14.75 L17.45,14.75 L17.45,14.9 L17.5,14.9 L17.5,15 L17.55,15 L17.55,15.15 L17.6,15.15 L17.6,15.2 L17.651,15.2 L17.651,15.3 L17.702,15.3 L17.702,15.4 L17.752,15.4 L17.752,15.5 L17.802,15.5 L17.802,15.55 L17.853,15.55 L17.853,15.651 L17.954,15.651 L17.954,15.753 L18,15.753 L18,15.803 L18.05,15.803 L18.05,15.855 L18.1,15.855 L18.1,15.9 L18.151,15.9 L18.151,15.95 L18.202,15.95 L18.202,16 L18.252,16 L18.252,16.05 L18.353,16.05 L18.353,16.1 L18.4,16.1 L18.4,16.151 L18.45,16.151 L18.45,16.203 L18.55,16.203 L18.55,16.253 L18.651,16.253 L18.651,16.303 L18.702,16.303 L18.702,16.355 L18.85,16.355 L18.85,16.4 L18.952,16.4 L18.952,16.45 L19.1,16.45 L19.1,16.5 L19.3,16.5 L19.3,16.55 L19.55,16.55 L19.55,16.6 L20.45,16.6 L20.45,16.55 L20.7,16.55 L20.7,16.5 L20.9,16.5 L20.9,16.45 L21.047,16.45 L21.047,16.4 L21.15,16.4 L21.15,16.35 L21.3,16.35 L21.3,16.3 L21.4,16.3 L21.4,16.25 L21.45,16.25 L21.45,16.2 L21.6,16.2 L21.6,16.15 L21.651,16.15 L21.651,16.1 L21.703,16.1 L21.703,16.05 L21.753,16.05 L21.753,16 L21.803,16 L21.803,15.95 L21.855,15.95 L21.855,15.9 L21.956,15.9 L21.956,15.85 L22,15.85 L22,15.75 L22.05,15.75 L22.1,15.75 L22.1,15.65 L22.151,15.65 L22.151,15.6 L22.203,15.6 L22.203,15.5 L22.253,15.5 L22.253,15.45 L22.303,15.45 L22.303,15.35 L22.355,15.35 L22.355,15.3 L22.4,15.3 L22.4,15.2 L22.4,15.15 L22.45,15.15 L22.45,15.05 L22.5,15.05 L23.25,15.05 L23.25,15.2 L23.2,15.2 L23.2,15.3 L23.15,15.3 L23.15,15.45 L23.1,15.45 L23.1,15.55 L23.05,15.55 L23.05,15.651 L23,15.651 L23,15.703 L22.95,15.703 L22.95,15.803 L22.9,15.803 L22.9,15.855 L22.85,15.855 L22.85,15.956 L22.8,15.956 L22.8,16 L22.75,16 L22.75,16.05 L22.7,16.05 L22.7,16.151 L22.65,16.151 L22.65,16.203 L22.55,16.203 L22.55,16.253 L22.55,16.303 L22.5,16.303 L22.5,16.355 L22.4,16.355 L22.4,16.4 L22.4,16.45 L22.3,16.45 L22.3,16.5 L22.25,16.5 L22.25,16.55 L22.2,16.55 L22.2,16.6 L22.15,16.6 L22.15,16.651 L22.05,16.651 L22.05,16.703 L22,16.703 L22,16.753 L21.9,16.753 L21.9,16.803 L21.85,16.803 L21.85,16.855 L21.75,16.855 L21.75,16.9 L21.65,16.9 L21.65,16.95 L21.55,16.95 L21.55,17 L21.45,17 L21.45,17.05 L21.3,17.05 L21.3,17.1 L21.15,17.1 L21.15,17.151 L20.9,17.151 L20.9,17.203 L20.75,17.203 L20.75,17.253 L20.45,17.253 L20.45,17.303 L19.45,17.303 L19.45,17.253 L19.15,17.253 L19.15,17.2 L19.05,17.2 L19.05,17.15 L18.8,17.15 L18.8,17.1 L18.65,17.1 L18.65,17.05 L18.5,17.05 L18.5,17 L18.4,17 L18.4,16.95 L18.35,16.95 L18.35,16.9 L18.2,16.9 L18.2,16.85 L18.1,16.85 L18.1,16.8 L18.1,16.75 L17.95,16.75 L17.95,16.7 L17.9,16.7 L17.9,16.65 L17.85,16.65 L17.85,16.6 L17.75,16.6 L17.75,16.55 L17.7,16.55 L17.7,16.5 L17.65,16.5 L17.65,16.45 L17.6,16.45 L17.6,16.4 L17.55,16.4 L17.55,16.35 L17.5,16.35 L17.5,16.3 L17.45,16.3 L17.45,16.25 L17.4,16.25 L17.4,16.2 L17.35,16.2 L17.35,16.15 L17.3,16.15 L17.3,16.05 L17.25,16.05 L17.25,16 L17.2,16 L17.2,15.95 L17.15,15.95 L17.15,15.9 L17.1,15.9 L17.1,15.85 L17.1,15.8 L17.05,15.8 L17.05,15.75 L17,15.75 L17,15.6 L16.95,15.6 L16.95,15.55 L16.9,15.55 L16.9,15.45 L16.85,15.45 L16.85,15.3 L16.8,15.3 L16.8,15.2 L16.75,15.2 L16.75,15.1 L16.7,15.1 L16.7,14.9 L16.65,14.9 L16.65,14.75 L16.6,14.75 L16.6,14.5 L16.55,14.5 L16.55,14.05 L16.5,14.05 L16.5,13.3 L16.55,13.3 L16.55,12.95 L16.55,12.9 L16.55,12.85 L16.6,12.85 L16.6,12.65 L16.651,12.65 L16.651,12.45 L16.702,12.45 L16.702,12.25 L16.752,12.25 L16.752,12.2 L16.802,12.2 L16.802,12.05 L16.853,12.05 L16.853,11.9 L16.9,11.9 L16.9,11.85 L16.95,11.85 L16.95,11.75 L17,11.75 L17,11.65 L17.05,11.65 L17.05,11.55 L17.1,11.55 L17.1,11.5 L17.151,11.5 L17.151,11.45 L17.202,11.45 L17.202,11.35 L17.252,11.35 L17.252,11.25 L17.302,11.25 L17.302,11.2 L17.353,11.2 L17.353,11.15 L17.4,11.15 L17.4,11.1 L17.45,11.1 L17.45,11.05 L17.5,11.05 L17.5,11 L17.55,11 L17.55,10.95 L17.6,10.95 L17.6,10.9 L17.651,10.9 L17.651,10.85 L17.702,10.85 L17.702,10.8 L17.752,10.8 L17.752,10.75 L17.802,10.75 L17.853,10.75 L17.853,10.7 L17.9,10.7 L17.9,10.65 L18,10.65 L18,10.6 L18.1,10.6 L18.1,10.55 L18.1,10.5 L18.25,10.5 L18.25,10.45 L18.35,10.45 L18.35,10.4 L18.4,10.4 L18.4,10.35 L18.548,10.35 L18.548,10.3 L18.698,10.3 L18.698,10.25 L18.798,10.25 L18.798,10.2 L19.048,10.2 L19.048,10.15 L19.198,10.15 L19.198,10.1 L19.498,10.1 L19.498,10.05 L20.397,10.05 L20.397,10.1 L20.698,10.1 L20.698,10.15 L20.846,10.15 L20.846,10.2 L21.045,10.2 L21.045,10.25 L21.195,10.25 L21.195,10.3 L21.295,10.3 L21.295,10.35 L21.445,10.35 L21.445,10.4 L21.545,10.4 L21.545,10.45 L21.647,10.45 L21.647,10.5 L21.748,10.5 L21.748,10.55 L21.798,10.55 L21.798,10.6 L21.9,10.6 L21.9,10.651 L22,10.651 L22,10.701 L22.05,10.701 L22.05,10.751 L22.151,10.751 L22.151,10.801 L22.203,10.801 L22.203,10.851 L22.253,10.851 L22.253,10.9 L22.303,10.9 L22.303,10.95 L22.355,10.95 L22.355,11 L22.4,11 L22.4,11.05 L22.45,11.05 L22.45,11.1 L22.5,11.1 L22.5,11.151 L22.55,11.151 L22.55,11.201 L22.6,11.201 L22.6,11.251 L22.651,11.251 L22.651,11.301 L22.703,11.301 L22.703,11.4 L22.753,11.4 L22.753,11.45 L22.803,11.45 L22.803,11.55 L22.855,11.55 L22.855,11.6 L22.9,11.6 L22.9,11.7 L22.95,11.7 L22.95,11.8 L23,11.8 L23,11.9 L23.05,11.9 L23.05,11.95 L23.1,11.95 L23.1,12.1 L23.151,12.1 L23.151,12.25 L23.203,12.25 L23.203,12.35 L23.253,12.35 L23.253,12.55 L23.303,12.55 L23.303,12.8 L23.355,12.8 L23.355,13.05 L23.4,13.05 L23.4,14 Z M23.4,14" class="white" fill="#FFFFFF"/>
            <path d="M30.502,17.15 L30.5,17.15 L29.5,17.15 L29.5,17.1 L29.5,17.05 L29.45,17.05 L29.45,17 L29.4,17 L29.4,16.95 L29.35,16.95 L29.35,16.9 L29.3,16.9 L29.3,16.85 L29.25,16.85 L29.25,16.75 L29.2,16.75 L29.2,16.7 L29.15,16.7 L29.15,16.65 L29.1,16.65 L29.1,16.6 L29.05,16.6 L29.05,16.55 L29,16.55 L29,16.5 L28.95,16.5 L28.95,16.4 L28.9,16.4 L28.9,16.35 L28.85,16.35 L28.85,16.3 L28.8,16.3 L28.8,16.25 L28.75,16.25 L28.75,16.2 L28.7,16.2 L28.7,16.15 L28.65,16.15 L28.65,16.1 L28.65,16.05 L28.6,16.05 L28.6,16 L28.55,16 L28.55,15.95 L28.5,15.95 L28.5,15.9 L28.45,15.9 L28.45,15.85 L28.4,15.85 L28.4,15.8 L28.4,15.75 L28.35,15.75 L28.35,15.7 L28.3,15.7 L28.3,15.65 L28.25,15.65 L28.25,15.55 L28.15,15.55 L28.15,15.45 L28.1,15.45 L28.1,15.4 L28.05,15.4 L28.05,15.35 L28,15.35 L28,15.25 L27.95,15.25 L27.95,15.2 L27.9,15.2 L27.9,15.15 L27.85,15.15 L27.85,15.1 L27.8,15.1 L27.8,15.05 L27.75,15.05 L27.75,15 L27.7,15 L27.7,14.95 L27.65,14.95 L27.65,14.85 L27.6,14.85 L27.6,14.8 L27.55,14.8 L27.55,14.75 L27.5,14.75 L27.5,14.7 L27.45,14.7 L27.45,14.65 L27.4,14.65 L27.4,14.55 L27.35,14.55 L27.35,14.5 L27.3,14.5 L27.3,14.45 L27.25,14.45 L27.25,14.4 L27.2,14.4 L27.2,14.35 L27.15,14.35 L27.15,14.25 L27.05,14.25 L27.05,14.2 L27,14.2 L27,14.25 L26.95,14.25 L26.95,14.35 L26.9,14.35 L26.9,14.4 L26.85,14.4 L26.85,14.45 L26.8,14.45 L26.8,14.5 L26.75,14.5 L26.75,14.55 L26.7,14.55 L26.7,14.651 L26.6,14.651 L26.6,14.751 L26.55,14.751 L26.55,14.801 L26.5,14.801 L26.5,14.851 L26.45,14.851 L26.45,14.952 L26.4,14.952 L26.4,15 L26.35,15 L26.35,15.05 L26.3,15.05 L26.3,15.1 L26.25,15.1 L26.25,15.151 L26.2,15.151 L26.2,15.201 L26.15,15.201 L26.15,15.251 L26.1,15.251 L26.1,15.351 L26.05,15.351 L26.05,15.4 L26,15.4 L26,15.45 L25.95,15.45 L25.95,15.5 L25.9,15.5 L25.9,15.55 L25.85,15.55 L25.85,15.651 L25.8,15.651 L25.8,15.703 L25.75,15.703 L25.75,15.753 L25.7,15.753 L25.7,15.803 L25.65,15.803 L25.65,15.904 L25.6,15.904 L25.55,15.904 L25.55,16 L25.5,16 L25.5,16.05 L25.45,16.05 L25.45,16.1 L25.4,16.1 L25.4,16.2 L25.35,16.2 L25.35,16.25 L25.3,16.25 L25.3,16.3 L25.25,16.3 L25.25,16.35 L25.2,16.35 L25.2,16.4 L25.15,16.4 L25.15,16.45 L25.1,16.45 L25.1,16.5 L25.05,16.5 L25.05,16.55 L25.05,16.6 L25,16.6 L25,16.651 L24.95,16.651 L24.95,16.703 L24.9,16.703 L24.9,16.753 L24.85,16.753 L24.85,16.803 L24.8,16.803 L24.8,16.904 L24.75,16.904 L24.75,16.954 L24.7,16.954 L24.7,17 L24.65,17 L24.65,17.05 L24.6,17.05 L24.6,17.1 L24.55,17.1 L24.55,17.151 L23.6,17.151 L23.6,17.1 L23.651,17.1 L23.651,17.05 L23.703,17.05 L23.703,17 L23.753,17 L23.753,16.95 L23.803,16.95 L23.803,16.9 L23.855,16.9 L23.855,16.85 L23.9,16.85 L23.9,16.75 L23.95,16.75 L23.95,16.7 L24,16.7 L24,16.65 L24.05,16.65 L24.05,16.6 L24.1,16.6 L24.1,16.5 L24.151,16.5 L24.151,16.45 L24.203,16.45 L24.203,16.4 L24.253,16.4 L24.253,16.35 L24.303,16.35 L24.303,16.3 L24.355,16.3 L24.355,16.25 L24.355,16.2 L24.4,16.2 L24.4,16.15 L24.45,16.15 L24.45,16.1 L24.5,16.1 L24.5,16.05 L24.55,16.05 L24.55,16 L24.6,16 L24.6,15.95 L24.651,15.95 L24.651,15.85 L24.703,15.85 L24.703,15.8 L24.753,15.8 L24.753,15.75 L24.803,15.75 L24.803,15.7 L24.855,15.7 L24.855,15.65 L24.9,15.65 L24.9,15.6 L24.95,15.6 L24.95,15.5 L25.05,15.5 L25.05,15.4 L25.1,15.4 L25.1,15.35 L25.151,15.35 L25.151,15.3 L25.203,15.3 L25.203,15.2 L25.303,15.2 L25.303,15.1 L25.355,15.1 L25.355,15.05 L25.4,15.05 L25.4,15 L25.45,15 L25.45,14.95 L25.5,14.95 L25.5,14.85 L25.55,14.85 L25.55,14.8 L25.6,14.8 L25.6,14.75 L25.651,14.75 L25.651,14.7 L25.703,14.7 L25.703,14.65 L25.753,14.65 L25.753,14.55 L25.803,14.55 L25.803,14.5 L25.855,14.5 L25.855,14.45 L25.9,14.45 L25.9,14.4 L25.95,14.4 L25.95,14.35 L26,14.35 L26,14.3 L26.05,14.3 L26.05,14.25 L26.1,14.25 L26.1,14.15 L26.151,14.15 L26.151,14.1 L26.203,14.1 L26.203,14.05 L26.253,14.05 L26.253,14 L26.303,14 L26.303,13.95 L26.355,13.95 L26.355,13.9 L26.4,13.9 L26.4,13.85 L26.45,13.85 L26.45,13.75 L26.5,13.75 L26.5,13.7 L26.55,13.7 L26.55,13.65 L26.6,13.65 L26.6,13.6 L26.55,13.6 L26.55,13.55 L26.5,13.55 L26.5,13.5 L26.45,13.5 L26.45,13.4 L26.35,13.4 L26.35,13.35 L26.3,13.35 L26.3,13.3 L26.3,13.25 L26.25,13.25 L26.25,13.2 L26.2,13.2 L26.2,13.15 L26.15,13.15 L26.15,13.1 L26.1,13.1 L26.1,13 L26,13 L26,12.9 L25.95,12.9 L25.95,12.85 L25.9,12.85 L25.9,12.8 L25.85,12.8 L25.85,12.7 L25.8,12.7 L25.75,12.7 L25.75,12.65 L25.75,12.6 L25.7,12.6 L25.7,12.55 L25.65,12.55 L25.65,12.5 L25.6,12.5 L25.6,12.45 L25.55,12.45 L25.55,12.35 L25.5,12.35 L25.5,12.3 L25.45,12.3 L25.45,12.25 L25.4,12.25 L25.4,12.2 L25.35,12.2 L25.35,12.15 L25.3,12.15 L25.3,12.05 L25.2,12.05 L25.2,11.95 L25.15,11.95 L25.15,11.9 L25.1,11.9 L25.1,11.85 L25.05,11.85 L25.05,11.75 L24.95,11.75 L24.95,11.65 L24.9,11.65 L24.9,11.6 L24.85,11.6 L24.85,11.55 L24.8,11.55 L24.8,11.45 L24.75,11.45 L24.75,11.4 L24.7,11.4 L24.7,11.35 L24.65,11.35 L24.65,11.3 L24.6,11.3 L24.6,11.25 L24.55,11.25 L24.55,11.2 L24.5,11.2 L24.5,11.1 L24.45,11.1 L24.45,11.05 L24.4,11.05 L24.4,11 L24.35,11 L24.35,10.95 L24.3,10.95 L24.3,10.9 L24.25,10.9 L24.25,10.8 L24.2,10.8 L24.2,10.75 L24.15,10.75 L24.15,10.7 L24.1,10.7 L24.1,10.65 L24.05,10.65 L24.05,10.6 L24,10.6 L24,10.5 L23.95,10.5 L23.95,10.45 L23.9,10.45 L23.9,10.4 L23.85,10.4 L23.85,10.35 L23.8,10.35 L23.8,10.3 L23.75,10.3 L23.75,10.25 L23.7,10.25 L23.7,10.2 L24.7,10.2 L24.7,10.25 L24.75,10.25 L24.75,10.3 L24.8,10.3 L24.8,10.35 L24.85,10.35 L24.85,10.4 L24.9,10.4 L24.9,10.45 L24.9,10.5 L25,10.5 L25,10.6 L25.05,10.6 L25.05,10.651 L25.1,10.651 L25.1,10.701 L25.151,10.701 L25.151,10.751 L25.203,10.751 L25.203,10.851 L25.253,10.851 L25.253,10.9 L25.303,10.9 L25.303,10.95 L25.355,10.95 L25.355,11 L25.4,11 L25.4,11.05 L25.45,11.05 L25.45,11.151 L25.5,11.151 L25.5,11.201 L25.55,11.201 L25.55,11.251 L25.6,11.251 L25.6,11.301 L25.651,11.301 L25.651,11.351 L25.703,11.351 L25.703,11.452 L25.753,11.452 L25.753,11.502 L25.803,11.502 L25.803,11.552 L25.855,11.552 L25.855,11.602 L25.9,11.602 L25.9,11.7 L25.95,11.7 L25.95,11.75 L26,11.75 L26,11.8 L26.05,11.8 L26.05,11.85 L26.1,11.85 L26.1,11.9 L26.151,11.9 L26.151,11.95 L26.151,12 L26.203,12 L26.203,12.05 L26.253,12.05 L26.253,12.1 L26.303,12.1 L26.303,12.151 L26.355,12.151 L26.355,12.201 L26.4,12.201 L26.4,12.251 L26.45,12.251 L26.45,12.301 L26.5,12.301 L26.5,12.4 L26.55,12.4 L26.55,12.45 L26.6,12.45 L26.6,12.5 L26.651,12.5 L26.651,12.55 L26.703,12.55 L26.703,12.6 L26.753,12.6 L26.753,12.7 L26.803,12.7 L26.855,12.7 L26.855,12.8 L26.9,12.8 L26.9,12.85 L26.95,12.85 L26.95,12.9 L27,12.9 L27,13 L27.05,13 L27.05,13.05 L27.151,13.05 L27.151,13 L27.203,13 L27.203,12.9 L27.253,12.9 L27.253,12.85 L27.303,12.85 L27.303,12.8 L27.355,12.8 L27.355,12.7 L27.4,12.7 L27.45,12.7 L27.45,12.6 L27.5,12.6 L27.5,12.55 L27.55,12.55 L27.55,12.5 L27.6,12.5 L27.6,12.45 L27.651,12.45 L27.651,12.35 L27.703,12.35 L27.703,12.3 L27.753,12.3 L27.753,12.25 L27.803,12.25 L27.803,12.2 L27.855,12.2 L27.855,12.15 L27.9,12.15 L27.9,12.1 L27.95,12.1 L27.95,12 L28,12 L28,11.95 L28.05,11.95 L28.05,11.9 L28.1,11.9 L28.1,11.85 L28.151,11.85 L28.151,11.75 L28.253,11.75 L28.253,11.65 L28.303,11.65 L28.303,11.6 L28.355,11.6 L28.355,11.55 L28.4,11.55 L28.4,11.45 L28.45,11.45 L28.45,11.4 L28.5,11.4 L28.5,11.35 L28.55,11.35 L28.55,11.3 L28.6,11.3 L28.6,11.2 L28.651,11.2 L28.651,11.15 L28.703,11.15 L28.703,11.1 L28.753,11.1 L28.753,11.05 L28.803,11.05 L28.803,11 L28.803,10.95 L28.855,10.95 L28.855,10.9 L28.9,10.9 L28.9,10.85 L28.95,10.85 L28.95,10.8 L29,10.8 L29,10.75 L29.05,10.75 L29.05,10.7 L29.1,10.7 L29.1,10.6 L29.151,10.6 L29.151,10.55 L29.203,10.55 L29.203,10.5 L29.253,10.5 L29.253,10.4 L29.355,10.4 L29.355,10.3 L29.4,10.3 L29.4,10.25 L29.45,10.25 L29.45,10.2 L30.349,10.2 L30.349,10.3 L30.3,10.3 L30.3,10.35 L30.25,10.35 L30.25,10.4 L30.2,10.4 L30.2,10.5 L30.1,10.5 L30.1,10.6 L30.05,10.6 L30.05,10.651 L30,10.651 L30,10.701 L29.95,10.701 L29.95,10.751 L29.9,10.751 L29.9,10.851 L29.85,10.851 L29.85,10.9 L29.8,10.9 L29.8,10.95 L29.75,10.95 L29.75,11.05 L29.65,11.05 L29.65,11.151 L29.6,11.151 L29.6,11.201 L29.55,11.201 L29.55,11.251 L29.5,11.251 L29.5,11.301 L29.45,11.301 L29.45,11.351 L29.4,11.351 L29.4,11.452 L29.35,11.452 L29.35,11.502 L29.3,11.502 L29.3,11.552 L29.25,11.552 L29.25,11.602 L29.2,11.602 L29.2,11.7 L29.15,11.7 L29.15,11.75 L29.1,11.75 L29.1,11.8 L29.05,11.8 L29.05,11.85 L29,11.85 L29,11.9 L28.95,11.9 L28.95,11.95 L28.9,11.95 L28.9,12 L28.85,12 L28.85,12.1 L28.8,12.1 L28.8,12.151 L28.75,12.151 L28.75,12.201 L28.7,12.201 L28.7,12.251 L28.65,12.251 L28.65,12.351 L28.6,12.351 L28.6,12.4 L28.55,12.4 L28.55,12.45 L28.5,12.45 L28.5,12.5 L28.45,12.5 L28.45,12.55 L28.4,12.55 L28.4,12.651 L28.35,12.651 L28.35,12.701 L28.3,12.701 L28.3,12.751 L28.25,12.751 L28.25,12.851 L28.15,12.851 L28.15,12.952 L28.1,12.952 L28.1,13 L28.05,13 L28.05,13.05 L28,13.05 L28,13.1 L27.95,13.1 L27.95,13.2 L27.9,13.2 L27.9,13.25 L27.85,13.25 L27.85,13.3 L27.8,13.3 L27.8,13.35 L27.75,13.35 L27.75,13.4 L27.7,13.4 L27.7,13.45 L27.65,13.45 L27.65,13.55 L27.6,13.55 L27.6,13.6 L27.55,13.6 L27.55,13.651 L27.6,13.651 L27.6,13.701 L27.651,13.701 L27.651,13.751 L27.703,13.751 L27.703,13.851 L27.753,13.851 L27.753,13.9 L27.803,13.9 L27.803,13.95 L27.855,13.95 L27.855,14 L27.9,14 L27.9,14.05 L27.95,14.05 L27.95,14.1 L28,14.1 L28,14.151 L28.05,14.151 L28.05,14.251 L28.1,14.251 L28.1,14.301 L28.151,14.301 L28.151,14.351 L28.203,14.351 L28.203,14.4 L28.253,14.4 L28.253,14.45 L28.303,14.45 L28.303,14.5 L28.355,14.5 L28.355,14.6 L28.4,14.6 L28.4,14.651 L28.45,14.651 L28.45,14.701 L28.5,14.701 L28.5,14.751 L28.55,14.751 L28.55,14.801 L28.6,14.801 L28.6,14.9 L28.651,14.9 L28.651,14.95 L28.703,14.95 L28.703,15 L28.753,15 L28.753,15.05 L28.803,15.05 L28.803,15.1 L28.803,15.151 L28.855,15.151 L28.855,15.201 L28.9,15.201 L28.9,15.251 L28.95,15.251 L28.95,15.301 L29,15.301 L29,15.351 L29.05,15.351 L29.05,15.4 L29.1,15.4 L29.1,15.5 L29.151,15.5 L29.151,15.55 L29.203,15.55 L29.203,15.6 L29.253,15.6 L29.253,15.651 L29.303,15.651 L29.303,15.703 L29.355,15.703 L29.355,15.803 L29.4,15.803 L29.4,15.855 L29.45,15.855 L29.45,15.9 L29.5,15.9 L29.5,15.95 L29.55,15.95 L29.55,16 L29.6,16 L29.6,16.05 L29.651,16.05 L29.651,16.151 L29.703,16.151 L29.703,16.203 L29.753,16.203 L29.753,16.253 L29.803,16.253 L29.803,16.303 L29.855,16.303 L29.855,16.355 L29.9,16.355 L29.9,16.4 L29.95,16.4 L29.95,16.5 L30,16.5 L30,16.55 L30.05,16.55 L30.05,16.6 L30.1,16.6 L30.1,16.651 L30.151,16.651 L30.151,16.703 L30.203,16.703 L30.203,16.803 L30.253,16.803 L30.253,16.855 L30.303,16.855 L30.303,16.9 L30.355,16.9 L30.355,16.95 L30.355,17 L30.456,17 L30.456,17.05 L30.506,17.05 L30.506,17.151 L30.502,17.151 L30.502,17.15 Z M30.502,17.15" class="white" fill="#FFFFFF"/>
            <path d="M36.1,16.7 L36.05,16.7 L36.05,16.75 L35.9,16.75 L35.9,16.8 L35.85,16.8 L35.85,16.85 L35.8,16.85 L35.8,16.9 L35.7,16.9 L35.7,16.95 L35.6,16.95 L35.6,17 L35.5,17 L35.5,17.05 L35.35,17.05 L35.35,17.1 L35.2,17.1 L35.2,17.151 L34.95,17.151 L34.95,17.203 L34.8,17.203 L34.8,17.253 L34.55,17.253 L34.55,17.303 L33.5,17.303 L33.5,17.253 L33.2,17.253 L33.2,17.2 L33.05,17.2 L33.05,17.15 L32.85,17.15 L32.85,17.1 L32.7,17.1 L32.7,17.05 L32.55,17.05 L32.55,17 L32.45,17 L32.45,16.95 L32.4,16.95 L32.4,16.9 L32.3,16.9 L32.3,16.85 L32.2,16.85 L32.2,16.8 L32.15,16.8 L32.15,16.75 L32.1,16.75 L32.1,16.7 L32,16.7 L32,16.65 L32,16.6 L31.95,16.6 L31.9,16.6 L31.9,16.55 L31.85,16.55 L31.85,16.5 L31.8,16.5 L31.8,16.4 L31.75,16.4 L31.75,16.35 L31.7,16.35 L31.7,16.3 L31.65,16.3 L31.65,16.2 L31.6,16.2 L31.6,16.1 L31.55,16.1 L31.55,16 L31.5,16 L31.5,15.95 L31.45,15.95 L31.45,15.8 L31.4,15.8 L31.4,15.65 L31.35,15.65 L31.35,15.5 L31.3,15.5 L31.3,15.1 L31.25,15.1 L31.25,9.55 L32,9.55 L32,10.2 L35.9,10.2 L35.9,10.9 L32,10.9 L32,15.049 L32.05,15.049 L32.05,15.299 L32.1,15.299 L32.1,15.449 L32.151,15.449 L32.151,15.599 L32.203,15.599 L32.203,15.7 L32.253,15.7 L32.253,15.75 L32.303,15.75 L32.303,15.85 L32.355,15.85 L32.355,15.9 L32.4,15.9 L32.4,16 L32.45,16 L32.45,16.05 L32.5,16.05 L32.5,16.1 L32.55,16.1 L32.55,16.151 L32.6,16.151 L32.6,16.203 L32.7,16.203 L32.7,16.253 L32.75,16.253 L32.75,16.303 L32.8,16.303 L32.8,16.355 L32.95,16.355 L32.95,16.4 L33.05,16.4 L33.05,16.45 L33.151,16.45 L33.151,16.5 L33.35,16.5 L33.35,16.55 L33.6,16.55 L33.6,16.6 L34.453,16.6 L34.453,16.55 L34.703,16.55 L34.703,16.5 L34.9,16.5 L34.9,16.45 L35.048,16.45 L35.048,16.4 L35.15,16.4 L35.15,16.35 L35.3,16.35 L35.3,16.3 L35.4,16.3 L35.4,16.25 L35.5,16.25 L35.5,16.2 L35.6,16.2 L35.6,16.15 L35.651,16.15 L35.651,16.1 L35.703,16.1 L35.703,16.151 L35.753,16.151 L35.753,16.203 L35.753,16.253 L35.803,16.253 L35.803,16.303 L35.855,16.303 L35.855,16.355 L35.9,16.355 L35.9,16.4 L35.95,16.4 L35.95,16.45 L36,16.45 L36,16.5 L36.05,16.5 L36.05,16.6 L36.1,16.6 L36.1,16.7 Z M36.1,16.7" class="white" fill="#FFFFFF"/>
            <path d="M22.55,12.95 L22.55,12.9 L22.55,12.7 L22.5,12.7 L22.5,12.55 L22.45,12.55 L22.45,12.4 L22.4,12.4 L22.4,12.3 L22.35,12.3 L22.35,12.15 L22.3,12.15 L22.3,12.1 L22.25,12.1 L22.25,12 L22.2,12 L22.2,11.9 L22.15,11.9 L22.15,11.85 L22.1,11.85 L22.1,11.75 L22.05,11.75 L22.05,11.7 L22,11.7 L22,11.65 L21.95,11.65 L21.95,11.6 L21.9,11.6 L21.9,11.55 L21.85,11.55 L21.85,11.5 L21.8,11.5 L21.8,11.45 L21.75,11.45 L21.75,11.4 L21.7,11.4 L21.7,11.35 L21.65,11.35 L21.65,11.3 L21.6,11.3 L21.6,11.25 L21.5,11.25 L21.5,11.2 L21.4,11.2 L21.4,11.15 L21.35,11.15 L21.35,11.1 L21.25,11.1 L21.25,11.05 L21.15,11.05 L21.15,11 L21.05,11 L21.05,10.95 L20.9,10.95 L20.9,10.9 L20.75,10.9 L20.75,10.85 L20.6,10.85 L20.6,10.8 L20.3,10.8 L20.3,10.75 L19.6,10.75 L19.6,10.8 L19.3,10.8 L19.3,10.85 L19.15,10.85 L19.15,10.9 L19,10.9 L19,10.95 L18.85,10.95 L18.85,11 L18.75,11 L18.75,11.05 L18.65,11.05 L18.65,11.1 L18.55,11.1 L18.55,11.15 L18.5,11.15 L18.5,11.2 L18.4,11.2 L18.4,11.25 L18.35,11.25 L18.35,11.3 L18.3,11.3 L18.25,11.3 L18.25,11.4 L18.15,11.4 L18.15,11.45 L18.1,11.45 L18.1,11.5 L18.05,11.5 L18.05,11.55 L18,11.55 L18,11.6 L17.95,11.6 L17.95,11.7 L17.9,11.7 L17.9,11.75 L17.85,11.75 L17.85,11.8 L17.8,11.8 L17.8,11.9 L17.75,11.9 L17.75,11.95 L17.7,11.95 L17.7,12.05 L17.65,12.05 L17.65,12.15 L17.6,12.15 L17.6,12.25 L17.55,12.25 L17.55,12.4 L17.5,12.4 L17.5,12.5 L17.45,12.5 L17.45,12.6 L17.4,12.6 L17.4,12.85 L17.35,12.85 L17.35,13.1 L17.3,13.1 L17.3,13.3 L22.6,13.3 L22.6,13 L22.55,13 L22.55,12.95 Z M22.55,12.95" class="black"/>
        </g>
    </g>
</svg>
