<?xml version="1.0" encoding="utf-8"?>
<!DOCTYPE svg PUBLIC "-//W3C//DTD SVG 1.1//EN" "http://www.w3.org/Graphics/SVG/1.1/DTD/svg11.dtd">
<svg version="1.1" id="pizza_express" class="retailer" xmlns="http://www.w3.org/2000/svg" xmlns:xlink="http://www.w3.org/1999/xlink" xml:space="preserve">
  <g>
    <path fill-rule="evenodd" clip-rule="evenodd" fill="#231F20" d="M35.496,11.215c-2.192-0.715-4.014-0.113-4.499,1.735
	c0.772-0.203,1.581-0.5,2.395-0.806C34.146,11.862,34.872,11.56,35.496,11.215 M40.461,2.015c-21.176,0-38.447,17.271-38.447,38.447
	s17.271,38.447,38.447,38.447c21.176,0,38.447-17.271,38.447-38.447S61.637,2.015,40.461,2.015z M40.461,0
	C18.176,0,0,18.176,0,40.461c0,22.285,18.176,40.462,40.461,40.462c22.285,0,40.462-18.177,40.462-40.462
	C80.923,18.176,62.747,0,40.461,0z M32.744,67.917c-1.271-0.033-2.308,0.462-2.308,1.102c0,0.639,1.037,1.188,2.308,1.221
	s2.308-0.463,2.308-1.102C35.052,68.498,34.015,67.95,32.744,67.917z M30.387,67.436c-0.999,0.332-1.65,0.893-1.65,1.541
	c0,1.078,1.801,2.003,4.007,2.059c1.917,0.049,3.526-0.575,3.916-1.445c0.719,0.745,1.013,1.593,1.016,2.397
	c0.026,6.126-11.539,2.175-19.171-3.976c-5.416-4.363-7.994-8.532-1.538-10.457c-3.849,1.834-2.547,6.555,2.627,4.521
	c-3.607,0.327-4.043-3.451-0.935-4.488c2.661-0.888,4.774,1.465,6.872,3.072c1.595,1.222,3.45,1.853,5.392,2.124
	c-3.536,1.984-6.958,3.632-8.672,1.938c-1.088-1.074,0.681-2.085,2.627-2.7c-3.051-0.033-5.7,0.535-5.61,2.56
	c0.209,4.682,8.635,1.391,13.562-1.525c3.522,0.545,5.41,1.905,3.704,5.065c-6.1-2.508-11.95-1.988-11.928,1.361
	c0.013,1.982,4.157,3.177,5.828,1.96C26.094,71.23,24.974,67.177,30.387,67.436z M15.29,28.221
	c-4.148,2.426-7.08,5.908-9.177,10.113C6.706,31.213,9.159,26.921,15.29,28.221z M24.36,20.26c0.31-0.678-0.258-1.544-0.465-2.321
	c-0.573-2.136,3.616-0.591,4.644-0.233c1.146,0.4,2.279,0.879,3.402,1.429c-1.736,0.353-3.332,0.797-4.923,1.617
	c-2.149,1.108-4.831,2.611-7.155,1.943c-2.403-0.689-2.334-2.638-0.738-3.96c0.257-0.212,0.553-0.354,0.885-0.692
	c-0.389,0.184-0.791,0.162-1.191,0.21c-0.765,0.094-1.523,0.292-2.179,0.876c-1.783,1.946-0.139,3.102,2.295,3.908
	c-3.612,0.319-6.776-0.919-5.275-3.81c2.193-4.226,7.826-8.904,13.725-11.136c5.231-1.979,9.646-1.943,10.013,0.292
	c0.134,0.821-0.18,1.48-0.768,2.034c-2.632-0.731-7.096-0.389-7.929,2.756c-0.404-0.059-0.781-0.19-1.121-0.412
	c-0.662-0.433-1.103-1.397-0.117-1.818c1.124-0.479,3.196-0.888,3.488-2.412c-2.214,1.709-6.715,0.378-7.083,2.93
	c-0.261,1.81,1.498,2.719,4.885,2.54c1.334,3.126,4.879,1.603,7.229,2.491c1.163,0.439,1.095,1.719-0.488,2.002
	c-0.55,0.098-1.083,0.189-1.602,0.279c-2.938-1.867-6.02-2.94-9.289-3.475c-2.455-0.402-3.553,0.646-3.311,2.146
	C21.52,18.854,23.589,18.917,24.36,20.26z M45.768,11.215c2.192-0.715,4.014-0.113,4.498,1.735c-0.771-0.203-1.581-0.5-2.395-0.806
	C47.119,11.862,46.392,11.56,45.768,11.215z M48.52,67.917c1.271-0.033,2.309,0.462,2.309,1.102c0,0.639-1.038,1.188-2.309,1.221
	c-1.271,0.033-2.309-0.463-2.309-1.102C46.211,68.498,47.249,67.95,48.52,67.917z M50.877,67.436
	c0.999,0.332,1.649,0.893,1.649,1.541c0,1.078-1.8,2.003-4.007,2.059c-1.917,0.049-3.526-0.575-3.916-1.445
	c-0.72,0.745-1.014,1.593-1.016,2.397c-0.026,6.126,11.538,2.175,19.171-3.976c5.415-4.363,7.993-8.532,1.537-10.457
	c3.849,1.834,2.547,6.555-2.627,4.521c3.608,0.327,4.043-3.451,0.936-4.488c-2.661-0.888-4.773,1.465-6.872,3.072
	c-1.596,1.222-3.449,1.853-5.392,2.124c3.536,1.984,6.957,3.632,8.673,1.938c1.087-1.074-0.681-2.085-2.628-2.7
	c3.052-0.033,5.7,0.535,5.609,2.56c-0.208,4.682-8.634,1.391-13.561-1.525c-3.522,0.545-5.41,1.905-3.704,5.065
	c6.101-2.508,11.95-1.988,11.928,1.361c-0.014,1.982-4.157,3.177-5.827,1.96C55.169,71.23,56.29,67.177,50.877,67.436z
	 M65.974,28.221c4.148,2.426,7.079,5.908,9.178,10.113C74.558,31.213,72.105,26.921,65.974,28.221z M48.131,19.745
	c-0.651,0.349-1.3,0.721-1.948,1.114c-0.665,0.403-1.438,0.942-1.211,1.513c4.025-1.398,10.361,0.448,18.675,4.582
	c7.303-3.705,11.614,0.776,12.967,12.071c0.048,6.813-0.817,11.788-2.68,14.73c-1.969,3.108-4.962,3.285-8.429,1.944
	c-3.165-1.225-6.426-1.574-9.424-0.346c-1.918,0.785-3.433,2.892-5.285,2.916c-4.375,0.06-5.364,1.166-2.279,3.567
	c4.154-0.322,6.016-2.204,8.084-3.804c3.612-2.795,8.763-2.327,11.706,0.459c4.164,3.941-2.379,10.301-12.312,15.448
	c-6.313,2.917-11.606,4.2-14.178,1.427c-1.46-1.575-0.602-3.896,1.557-6.483c-3.436-3.31-0.939-6.111,3.328-6.657
	c-2.217-1.755-3.167-3.571-0.864-4.582c1.656-0.728,4.471-0.002,5.745-0.956c2.279-1.705,4.441-3.467,9.619-2.837
	c-1.282-1.304-3.363-1.641-5.423-1.653c-1.946-0.013-4.031-0.164-4.586-1.438c-0.635-1.456,1.11-1.92,4.523-1.902
	c4.551,0.024,11.888,4.637,13.42,2.735c0.843-1.047,0.222-1.879-0.772-2.465c-0.359-0.213-0.822-0.365-1.173-0.702
	c0.458,0.094,0.997,0.164,1.445,0.211c2.159,0.227,3.39,1.363,3,3.043c-0.495,2.125-2.699,2.206-6.045,0.994
	c-2.243-0.813-4.519-1.793-6.872-2.551c-2.312-0.744-4.331-0.654-4.249,0.346c0.116,1.407,4.392,0.427,6.497,1.876
	c3.657,2.517,7.731,3.712,10.157,2.619c1.969-0.886,2.962-3.407,3.448-6.256c1.497-8.77-0.926-14.462-9.63-19.668
	c-1.265,1.029-1.885,2.368-0.431,2.755c2.103,0.559,3.245,1.483,3.359,2.471c0.184,1.602-1.227,1.604-2.359,1.799
	c-0.689,0.119-1.321,0.719-1.391,1.825c-0.762-1.113-0.837-1.752-0.39-2.156c1.069-0.965,3.419-1.362,0.875-2.598
	c-0.92-0.447-2.085-0.747-2.603-1.426c-1.154-1.516-0.833-2.872,0.475-3.893c-4.229-1.94-8.259-3.644-11.64-4.288
	c-0.541-0.103-6.47-0.634-4.71,1.031c0.387,0.366,0.819,0.771,1.028,1.253c-1.71-0.782-3.201-0.673-3.902-2.057
	c-0.413-0.815,0.032-1.921,1.977-3.461c0.354-0.281,0.711-0.548,1.069-0.804c-0.925-0.117-1.866-0.229-2.806-0.382
	c-2.191-0.358-2.687-3.499,1.073-3.602c3.426-0.094,5.459-0.16,5.861-1.532c-2.515-0.393-4.724-1.02-6.347-1.886
	c-0.702,0.681-0.503,1.679,0.618,2.262c0.239,0.125,0.521,0.163,0.845,0.415c-0.302-0.073-0.597-0.004-0.878,0.021
	c-1.282,0.11-2.294-0.35-2.435-1.322c-0.128-0.888,0.175-1.594,0.685-2.118c-1.021-0.786-1.629-1.722-1.683-2.811
	c-0.147-2.926,2.823-4.231,6.129-3.678c10.009,1.675,18.14,7.443,22.335,14.597c1.588,2.708-0.493,4.794-5.632,4.635
	c-3.905-0.121-7.189-0.554-11.454-2.988C51.322,20.367,49.782,20.003,48.131,19.745z M56.905,20.26
	c-0.311-0.678,0.257-1.544,0.465-2.321c0.572-2.136-3.616-0.591-4.644-0.233c-1.147,0.4-2.28,0.879-3.404,1.429
	c1.736,0.353,3.333,0.797,4.925,1.617c2.148,1.108,4.83,2.611,7.155,1.943c2.402-0.689,2.334-2.638,0.737-3.96
	c-0.256-0.212-0.553-0.354-0.884-0.692c0.389,0.184,0.791,0.162,1.19,0.21c0.765,0.094,1.523,0.292,2.18,0.876
	c1.783,1.946,0.139,3.102-2.296,3.908c3.612,0.319,6.776-0.919,5.275-3.81c-2.193-4.226-7.826-8.904-13.726-11.136
	c-5.23-1.979-9.646-1.943-10.013,0.292c-0.135,0.821,0.18,1.48,0.768,2.034c2.633-0.731,7.097-0.389,7.929,2.756
	c0.405-0.059,0.781-0.19,1.121-0.412c0.662-0.433,1.104-1.397,0.117-1.818c-1.123-0.479-3.195-0.888-3.487-2.412
	c2.215,1.709,6.714,0.378,7.083,2.93c0.261,1.81-1.498,2.719-4.885,2.54c-1.336,3.126-4.88,1.603-7.229,2.491
	c-1.162,0.439-1.096,1.719,0.488,2.002c0.551,0.098,1.083,0.189,1.601,0.279c2.939-1.867,6.021-2.94,9.29-3.475
	c2.455-0.402,3.553,0.646,3.311,2.146C59.744,18.854,57.674,18.917,56.905,20.26z M33.819,38.781c1.326,0,2.421,1.096,2.421,2.422
	c0,1.331-1.533,2.434-2.524,2.421c-0.836-0.011-1.548-0.05-2.373-0.51c0.423,0.103,0.847,0.112,1.27,0.086
	c1.099-0.069,1.773-0.934,1.773-1.913c0-1.033-0.797-1.878-1.773-1.878H30.75v6.796c0,0.398,0.295,0.406,0.328,0.406
	c0.197,0,0.358,0.161,0.358,0.357v0.358c-0.915,0-1.828,0-2.742,0v-0.358c0-0.196,0.161-0.357,0.357-0.357
	c0.028,0,0.328-0.008,0.328-0.406v-6.303c0-0.398-0.299-0.406-0.328-0.406c-0.197,0-0.357-0.161-0.357-0.357v-0.358
	C30.402,38.781,32.11,38.781,33.819,38.781z M46.256,46.782c-0.482,0.55-0.872,0.711-1.827,0.711
	c-0.822-0.001-1.982-0.822-2.842-2.119c-0.894-1.347-1.854-2.395-2.013-3.053c0.725,0.586,1.388,0.713,2.018,0.652
	c0.956-0.092,1.322-0.836,1.322-1.686c0-1.033-0.798-1.878-1.773-1.878h-1.863v6.796c0,0.398,0.295,0.406,0.328,0.406
	c0.197,0,0.358,0.161,0.358,0.357v0.358c-0.914,0-1.829,0-2.742,0v-0.358c0-0.196,0.161-0.357,0.357-0.357
	c0.028,0,0.328-0.008,0.328-0.406v-6.303c0-0.398-0.3-0.406-0.328-0.406c-0.197,0-0.357-0.161-0.357-0.357v-0.358
	c1.708,0,3.416,0,5.125,0c1.326,0,2.421,1.096,2.421,2.422c0,1.331-1.277,2.421-2.421,2.421h-0.37
	C43.268,45.102,44.327,47.247,46.256,46.782z M12.557,42.71h2.003c0.416,0,0.898-0.188,1.128-0.531
	c-0.054,0.711-0.434,1.159-1.128,1.159h-2.003v3.246h2.948c1.26,0,1.77-1.025,0.97-1.89c1.119,0.193,1.457,1.015,1.458,1.626
	c0.001,1.006-0.937,1.006-2.248,1.006h-3.128v0.001H10.5v-0.358c0-0.196,0.161-0.357,0.358-0.357c0.028,0,0.328-0.008,0.328-0.406
	v-6.303c0-0.398-0.3-0.406-0.328-0.406c-0.197,0-0.358-0.161-0.358-0.357v-0.358c1.625,0,3.25,0,4.874,0
	c1.311,0,2.249,0,2.248,1.006c0,0.612-0.339,1.432-1.457,1.625c0.799-0.864,0.289-2.003-0.971-2.003h-2.637V42.71z M48.995,42.71
	h2.004c0.416,0,0.898-0.188,1.128-0.531c-0.055,0.711-0.435,1.159-1.128,1.159h-2.004v3.246h2.948c1.26,0,1.77-1.025,0.971-1.89
	c1.118,0.193,1.456,1.015,1.457,1.626c0,1.006-0.937,1.006-2.248,1.006c-1.729,0-3.456,0.001-5.185,0.001v-0.358
	c0-0.196,0.161-0.357,0.357-0.357c0.028,0,0.328-0.008,0.328-0.406v-6.303c0-0.398-0.3-0.406-0.328-0.406
	c-0.196,0-0.357-0.161-0.357-0.357v-0.358c1.625,0,3.249,0,4.874,0c1.312,0,2.248,0,2.248,1.006
	c-0.001,0.612-0.339,1.432-1.458,1.625c0.8-0.864,0.29-2.003-0.97-2.003h-2.638V42.71z M39.792,37.378c1.312,0,2.248,0,2.248-1.006
	c-0.001-0.611-0.339-1.432-1.457-1.625c0.799,0.864,0.289,1.889-0.971,1.889h-2.733c-0.394,0-0.469-0.346-0.262-0.608l5.167-6.523
	c0.353-0.444,0.13-0.671-0.308-0.671h-4.822c-1.311,0-2.249,0-2.248,1.005c0,0.611,0.339,1.432,1.457,1.626
	c-0.799-0.864-0.289-2.004,0.971-2.004h2.431c0.345,0,0.45,0.246,0.24,0.511l-5.226,6.602c-0.386,0.487-0.171,0.806,0.203,0.806
	H39.792z M48.731,37.378c1.311,0,2.248,0,2.248-1.006c0-0.611-0.339-1.432-1.457-1.625c0.8,0.864,0.289,1.889-0.971,1.889h-2.733
	c-0.394,0-0.469-0.346-0.262-0.608l5.168-6.523c0.351-0.444,0.13-0.671-0.309-0.671h-4.822c-1.311,0-2.248,0-2.248,1.005
	c0.001,0.611,0.339,1.432,1.458,1.626c-0.8-0.864-0.289-2.004,0.97-2.004h2.433c0.345,0,0.45,0.246,0.239,0.511l-5.225,6.602
	c-0.386,0.487-0.171,0.806,0.203,0.806H48.731z M19.119,47.327h0.298l0,0.001h1.015v-0.001h1.442v-0.357
	c0-0.197-0.161-0.358-0.358-0.358c-0.145,0-0.473-0.007-0.222-0.388l1.83-2.342l1.613,2.324h0c0.273,0.397,0.078,0.405-0.069,0.405
	c-0.196,0-0.357,0.161-0.357,0.358v0.357c0.96,0,1.919,0.001,2.88,0.001l-0.001-0.001h0.165v-0.357c0-0.197-0.161-0.358-0.358-0.358
	c-0.023,0-0.258-0.005-0.457-0.22l-2.531-3.644l2.223-2.845h0.006c0.006-0.01,0.011-0.02,0.017-0.03
	c0.196-0.251,0.48-0.376,0.801-0.376c0.196,0,0.357-0.161,0.357-0.357v-0.358c-0.918,0-1.837,0-2.755,0v0.358
	c0,0.197,0.161,0.357,0.358,0.357c0.139,0,0.447,0.007,0.25,0.344l-1.734,2.219l-1.498-2.157h0.003
	c-0.273-0.398-0.078-0.406,0.069-0.406c0.197,0,0.358-0.161,0.358-0.357v-0.358c-1.015,0-2.03,0-3.044,0v0.358
	c0,0.197,0.161,0.357,0.358,0.357c0.022,0,0.25,0.005,0.446,0.208l2.423,3.489l-2.486,3.183c-0.256,0.229-0.66,0.234-0.684,0.234
	c-0.197,0-0.357,0.161-0.357,0.358V47.327z M59.098,38.544c-1.722,0-3.426,0.954-3.426,2.181c0,1.5,2.056,2.218,3.192,2.668
	c1.081,0.429,2.318,0.937,2.327,1.727c0.012,1.02-1.044,1.46-2.174,1.46s-2.116-0.512-2.116-1.315c0-0.312,0.125-0.898,0.299-1.136
	c-0.45-0.072-0.722,0.386-1.02,0.627c-0.569,0.459-0.983,0.647-0.521,1.431c0.506,0.854,1.69,1.267,3.496,1.267
	s3.692-1.041,3.692-2.489c0-1.878-2.477-2.339-3.854-2.888c-0.871-0.347-1.719-0.803-1.719-1.444c0-0.719,0.878-1.305,1.954-1.305
	s2.016,0.513,2.016,1.231c0,0.279-0.119,0.804-0.284,1.016c0.429,0.065,0.687-0.345,0.972-0.561c0.542-0.411,0.937-0.58,0.495-1.28
	C61.946,38.969,60.819,38.544,59.098,38.544z M67.485,38.544c-1.721,0-3.426,0.954-3.426,2.181c0,1.5,2.057,2.218,3.192,2.668
	c1.081,0.429,2.317,0.937,2.327,1.727c0.012,1.02-1.045,1.46-2.175,1.46c-1.129,0-2.115-0.512-2.115-1.315
	c0-0.312,0.126-0.898,0.299-1.136c-0.45-0.072-0.721,0.386-1.02,0.627c-0.569,0.459-0.983,0.647-0.52,1.431
	c0.505,0.854,1.688,1.267,3.495,1.267s3.692-1.041,3.692-2.489c0-1.878-2.477-2.339-3.854-2.888
	c-0.871-0.347-1.719-0.803-1.719-1.444c0-0.719,0.878-1.305,1.954-1.305c1.077,0,2.016,0.513,2.016,1.231
	c0,0.279-0.119,0.804-0.283,1.016c0.428,0.065,0.687-0.345,0.971-0.561c0.542-0.411,0.937-0.58,0.495-1.28
	C70.333,38.969,69.206,38.544,67.485,38.544z M32.814,28.833v0.357c0,0.196-0.161,0.358-0.357,0.358
	c-0.032,0-0.328,0.007-0.328,0.406v6.303c0,0.398,0.295,0.406,0.328,0.406c0.197,0,0.357,0.161,0.357,0.358v0.358
	c-0.914,0-1.828,0-2.742,0v-0.358c0-0.197,0.161-0.358,0.358-0.358c0.028,0,0.328-0.008,0.328-0.406v-6.303
	c0-0.398-0.3-0.406-0.328-0.406c-0.197,0-0.358-0.162-0.358-0.358v-0.357C30.986,28.833,31.9,28.833,32.814,28.833z M56.594,31.708
	c-1.059,0.557-1.825,1.75-2.401,3.54c-0.196,0.606-0.771,0.488-0.84,0c-0.35-2.491,0.375-4.293,2.502-5.281L56.594,31.708z
	 M55.006,29.575c-1.69,0.906-3.071,2.518-3.261,4.101c-0.13,1.083,0.096,2.198,0.737,3.301c0.349,0.599,1.437,0.656,1.626,0
	c0.608-2.108,1.799-3.586,2.959-4.154l1.475,3.47c0.123,0.362-0.483,0.37-0.626,0.37c-0.197,0-0.357,0.161-0.357,0.358v0.358
	c1.055,0,2.109,0,3.164,0v-0.358c0-0.197-0.161-0.358-0.357-0.358c-0.028,0-0.613-0.008-0.824-0.403l-1.568-3.691
	c0.782-0.047,1.468,0.405,1.833,1.456c1.115-1.817,0.253-2.812-1.927-2.668c-0.137,0.009-0.271,0.025-0.4,0.049l-0.646-1.522
	c-0.118-0.328,0.109-0.334,0.248-0.334c0.196,0,0.358-0.162,0.358-0.358v-0.357c-1.056,0-2.11,0-3.165,0v0.357
	c0,0.196,0.161,0.358,0.358,0.358C54.643,29.548,54.803,29.549,55.006,29.575z M27.086,28.833c1.326,0,2.421,1.095,2.421,2.421
	c0,1.331-1.533,2.434-2.524,2.422c-0.837-0.011-1.547-0.05-2.373-0.51c0.423,0.103,0.847,0.112,1.271,0.085
	c1.099-0.069,1.772-0.934,1.772-1.913c0-1.033-0.798-1.879-1.772-1.879h-1.864v6.797c0,0.398,0.296,0.406,0.328,0.406
	c0.197,0,0.358,0.161,0.358,0.358v0.358c-0.914,0-1.829,0-2.742,0v-0.358c0-0.197,0.161-0.358,0.357-0.358
	c0.028,0,0.328-0.007,0.328-0.406v-6.303c0-0.398-0.299-0.406-0.328-0.406c-0.197,0-0.357-0.162-0.357-0.358v-0.357
	C23.669,28.833,25.377,28.833,27.086,28.833z M30.834,13.978c0.402,1.373,2.435,1.438,5.861,1.532
	c3.759,0.103,3.265,3.244,1.073,3.602c-0.938,0.153-1.882,0.266-2.806,0.382c0.359,0.255,0.715,0.523,1.07,0.804
	c1.944,1.54,2.39,2.646,1.977,3.461c-0.701,1.383-2.192,1.275-3.902,2.057c0.209-0.482,0.642-0.888,1.028-1.253
	c1.76-1.666-4.169-1.134-4.71-1.031c-3.381,0.645-7.41,2.348-11.64,4.288c1.308,1.021,1.629,2.376,0.475,3.893
	c-0.517,0.679-1.683,0.979-2.603,1.426c-2.544,1.236-0.194,1.633,0.875,2.598c0.447,0.403,0.373,1.042-0.39,2.156
	c-0.069-1.106-0.701-1.706-1.389-1.825c-1.133-0.196-2.544-0.197-2.361-1.799c0.114-0.987,1.257-1.912,3.36-2.471
	c1.454-0.387,0.833-1.727-0.431-2.755c-8.704,5.206-11.127,10.898-9.63,19.668c0.486,2.849,1.48,5.37,3.449,6.256
	c2.425,1.093,6.5-0.103,10.157-2.619c2.106-1.449,6.381-0.469,6.497-1.876c0.082-1-1.937-1.09-4.248-0.346
	c-2.354,0.758-4.629,1.737-6.873,2.551c-3.346,1.212-5.55,1.131-6.044-0.994c-0.391-1.68,0.84-2.816,3-3.043
	c0.448-0.047,0.987-0.117,1.446-0.211c-0.351,0.337-0.814,0.489-1.174,0.702c-0.994,0.586-1.615,1.418-0.771,2.465
	c1.532,1.901,8.868-2.711,13.42-2.735c3.412-0.018,5.157,0.446,4.523,1.902c-0.555,1.274-2.64,1.426-4.586,1.438
	c-2.06,0.013-4.141,0.35-5.422,1.653c5.177-0.63,7.339,1.132,9.619,2.837c1.274,0.954,4.087,0.229,5.745,0.956
	c2.302,1.011,1.351,2.827-0.865,4.582c4.267,0.546,6.763,3.348,3.328,6.657c2.159,2.587,3.016,4.908,1.556,6.483
	c-2.57,2.773-7.864,1.49-14.178-1.427c-9.933-5.147-16.477-11.507-12.312-15.448c2.944-2.786,8.094-3.254,11.707-0.459
	c2.067,1.6,3.929,3.481,8.083,3.804c3.084-2.401,2.096-3.508-2.28-3.567c-1.853-0.024-3.367-2.131-5.285-2.916
	c-2.998-1.229-6.258-0.879-9.423,0.346c-3.467,1.341-6.46,1.164-8.429-1.944c-1.862-2.942-2.728-7.917-2.68-14.73
	c1.353-11.295,5.664-15.776,12.968-12.071c8.313-4.133,14.648-5.98,18.674-4.582c0.227-0.571-0.546-1.11-1.21-1.513
	c-0.648-0.393-1.298-0.765-1.949-1.114c-1.65,0.258-3.19,0.622-4.481,1.358c-4.265,2.434-7.548,2.867-11.454,2.988
	c-5.139,0.16-7.22-1.927-5.631-4.635C15.76,12.303,23.891,6.535,33.899,4.86c3.306-0.553,6.276,0.752,6.129,3.678
	c-0.054,1.089-0.662,2.025-1.683,2.811c0.51,0.524,0.813,1.229,0.685,2.118c-0.141,0.972-1.152,1.433-2.435,1.322
	c-0.281-0.024-0.576-0.093-0.878-0.021c0.324-0.252,0.606-0.29,0.846-0.415c1.12-0.583,1.319-1.581,0.617-2.262
	C35.557,12.958,33.348,13.585,30.834,13.978z"/>
	</g>
</svg>
