<?xml version="1.0" encoding="utf-8"?>
<!-- Generator: Adobe Illustrator 16.0.4, SVG Export Plug-In . SVG Version: 6.00 Build 0)  -->
<!DOCTYPE svg PUBLIC "-//W3C//DTD SVG 1.1//EN" "http://www.w3.org/Graphics/SVG/1.1/DTD/svg11.dtd">
<svg version="1.1" id="Layer_1" xmlns="http://www.w3.org/2000/svg" xmlns:xlink="http://www.w3.org/1999/xlink" x="0px" y="0px"
	 width="249.348px" height="45px" viewBox="355.092 257.602 249.348 45" enable-background="new 355.092 257.602 249.348 45"
	 xml:space="preserve">
<path d="M355.092,302.602h4v-10.399c0.833,0.366,1.608,0.625,2.325,0.774c0.716,0.15,1.691,0.226,2.925,0.226
	c1.733,0,3.308-0.316,4.725-0.949s2.625-1.532,3.625-2.7c1-1.167,1.775-2.592,2.325-4.275c0.55-1.683,0.825-3.574,0.825-5.674
	c0-4.466-0.817-7.683-2.45-9.65c-1.633-1.966-4.117-2.95-7.45-2.95c-1.567,0-2.958,0.309-4.175,0.925
	c-1.217,0.617-2.208,1.508-2.975,2.675h-0.2l-0.75-3h-2.75V302.602z M368.217,271.151c0.816,0.434,1.483,1.042,2,1.825
	c0.517,0.784,0.892,1.733,1.125,2.85c0.233,1.117,0.35,2.358,0.35,3.725c0,3.333-0.675,5.858-2.025,7.575
	c-1.35,1.718-3.175,2.574-5.475,2.574c-1.267,0-2.284-0.125-3.05-0.375c-0.767-0.25-1.45-0.606-2.05-1.074v-12.4
	c0.4-1.8,1.091-3.142,2.075-4.025c0.982-0.883,2.325-1.325,4.025-1.325C366.392,270.501,367.4,270.719,368.217,271.151z"/>
<path d="M381.392,285.477c0.433,1.617,1.1,3,2,4.15c0.9,1.148,2.042,2.033,3.425,2.648c1.383,0.617,3.008,0.926,4.875,0.926
	c3.533,0,6.242-1.125,8.125-3.375c1.883-2.25,2.825-5.491,2.825-9.725c0-1.966-0.217-3.758-0.65-5.375c-0.434-1.616-1.1-3-2-4.15
	c-0.9-1.15-2.042-2.033-3.425-2.65c-1.383-0.617-3.008-0.925-4.875-0.925c-3.534,0-6.242,1.125-8.125,3.375
	c-1.883,2.25-2.825,5.492-2.825,9.725C380.742,282.068,380.958,283.859,381.392,285.477z M391.691,270.501
	c1.233,0,2.283,0.259,3.15,0.775c0.867,0.518,1.566,1.209,2.1,2.075c0.533,0.867,0.925,1.884,1.175,3.05
	c0.25,1.167,0.375,2.4,0.375,3.7c0,6.434-2.268,9.633-6.8,9.6c-1.233,0-2.284-0.266-3.15-0.801c-0.867-0.531-1.567-1.231-2.1-2.1
	c-0.534-0.865-0.925-1.883-1.175-3.05s-0.375-2.383-0.375-3.65C384.892,273.669,387.158,270.469,391.691,270.501L391.691,270.501z"
	/>
<path d="M408.542,267.602v15.1c0,2.067,0.175,3.774,0.525,5.125s0.866,2.426,1.55,3.226c0.683,0.801,1.533,1.358,2.55,1.676
	c1.016,0.315,2.191,0.475,3.525,0.475c2,0,3.65-0.434,4.95-1.301c1.301-0.865,2.333-1.949,3.101-3.25h0.25l1,3.951h2.75
	c-0.2-0.967-0.342-2.092-0.425-3.375s-0.125-2.525-0.125-3.726v-17.9h-4v16.7c-0.268,0.733-0.609,1.426-1.025,2.075
	c-0.417,0.649-0.9,1.226-1.45,1.726s-1.175,0.893-1.875,1.174c-0.7,0.285-1.5,0.426-2.4,0.426c-0.967,0-1.767-0.166-2.4-0.5
	c-0.634-0.332-1.134-0.824-1.5-1.475c-0.367-0.65-0.625-1.467-0.775-2.451c-0.15-0.981-0.225-2.125-0.225-3.424v-14.25
	L408.542,267.602L408.542,267.602z"/>
<path d="M455.94,292.602v-15.1c0-2.066-0.176-3.775-0.525-5.125s-0.867-2.425-1.55-3.225c-0.685-0.8-1.542-1.357-2.575-1.675
	c-1.034-0.316-2.233-0.475-3.6-0.475c-1.867,0-3.476,0.342-4.825,1.025c-1.351,0.684-2.425,1.559-3.226,2.625h-0.199l-0.75-3.05
	h-2.801v25h4v-17.1c0.467-1.433,1.275-2.625,2.426-3.575c1.149-0.95,2.607-1.425,4.375-1.425c2,0,3.375,0.659,4.125,1.975
	c0.75,1.317,1.125,3.275,1.125,5.875v14.25H455.94z"/>
<path d="M482.44,257.602h-4v10.4c-0.833-0.3-1.608-0.516-2.325-0.65c-0.717-0.133-1.692-0.2-2.925-0.2
	c-3.534,0-6.31,1.109-8.325,3.325c-2.019,2.217-3.025,5.458-3.025,9.725c0,4.467,0.809,7.75,2.425,9.85
	c1.616,2.101,4.091,3.149,7.425,3.149c1.7,0,3.184-0.383,4.45-1.149s2.232-1.733,2.9-2.899h0.2l1,3.55h2.7
	c-0.269-1.332-0.417-2.691-0.45-4.074s-0.05-2.926-0.05-4.625V257.602z M469.366,288.977c-0.817-0.481-1.476-1.142-1.976-1.975
	s-0.858-1.833-1.074-3c-0.218-1.167-0.325-2.434-0.325-3.8c0-3.333,0.649-5.758,1.95-7.275c1.3-1.517,3.1-2.275,5.399-2.275
	c1.268,0,2.283,0.1,3.05,0.3c0.767,0.2,1.45,0.534,2.051,1v12.399c-0.367,1.801-1.051,3.144-2.051,4.025s-2.35,1.324-4.05,1.324
	C471.173,289.701,470.182,289.46,469.366,288.977z"/>
<path d="M503.44,267.602l-5.352,14.45l-1.199,4.95h-0.051l-0.85-4.852l-4.95-14.549h-4.35l8.699,25.549h1.949l6.301-16.449l1-4.15
	h0.149l0.95,4.1l6.55,16.5h1.95l8.399-25.549h-3.801l-4.449,14.5l-0.95,4.899h-0.101l-1.25-4.801l-5.75-14.6h-2.896V267.602z"/>
<path d="M525.59,285.477c0.435,1.617,1.102,3,2,4.15c0.9,1.148,2.042,2.033,3.425,2.648c1.385,0.617,3.01,0.926,4.875,0.926
	c3.533,0,6.242-1.125,8.125-3.375c1.885-2.25,2.825-5.491,2.825-9.725c0-1.966-0.217-3.758-0.648-5.375c-0.435-1.616-1.102-3-2-4.15
	c-0.9-1.15-2.042-2.033-3.427-2.65c-1.383-0.617-3.008-0.925-4.875-0.925c-3.532,0-6.24,1.125-8.125,3.375
	c-1.883,2.25-2.823,5.492-2.823,9.725C524.94,282.068,525.156,283.859,525.59,285.477z M535.89,270.501
	c1.233,0,2.283,0.259,3.15,0.775c0.866,0.518,1.566,1.209,2.1,2.075c0.533,0.867,0.927,1.884,1.177,3.05
	c0.25,1.167,0.375,2.4,0.375,3.7c0,6.434-2.269,9.633-6.802,9.6c-1.232,0-2.282-0.266-3.148-0.801
	c-0.867-0.531-1.567-1.231-2.102-2.1c-0.532-0.865-0.925-1.883-1.175-3.05s-0.375-2.383-0.375-3.65
	C529.09,273.669,531.356,270.469,535.89,270.501L535.89,270.501z"/>
<path d="M565.79,267.602c-1.2-0.333-2.284-0.5-3.25-0.5c-1.367,0-2.492,0.309-3.375,0.925c-0.884,0.617-1.644,1.492-2.275,2.625
	h-0.2l-0.75-3.05h-2.8v25h4v-17.5c0.2-1.2,0.718-2.191,1.55-2.975c0.834-0.783,1.968-1.175,3.4-1.175c0.9,0,1.85,0.167,2.85,0.5
	L565.79,267.602z"/>
<path d="M574.59,257.602h-4v30c0,2.033,0.482,3.476,1.45,4.325c0.966,0.851,2.199,1.274,3.699,1.274c0.7,0,1.524-0.083,2.476-0.25
	s1.691-0.383,2.226-0.649l-0.45-3.149c-0.633,0.232-1.199,0.384-1.699,0.449c-0.5,0.067-0.968,0.101-1.4,0.101
	c-0.732,0-1.3-0.25-1.699-0.75s-0.601-1.332-0.601-2.5L574.59,257.602L574.59,257.602z"/>
<path d="M603.939,257.602h-4v10.4c-0.834-0.3-1.608-0.516-2.325-0.65c-0.717-0.133-1.692-0.2-2.925-0.2
	c-3.533,0-6.31,1.109-8.325,3.325c-2.018,2.217-3.025,5.458-3.025,9.725c0,4.467,0.81,7.75,2.426,9.85
	c1.616,2.101,4.092,3.149,7.426,3.149c1.699,0,3.183-0.383,4.449-1.149c1.268-0.767,2.232-1.733,2.899-2.899h0.2l1,3.55h2.7
	c-0.269-1.332-0.417-2.691-0.45-4.074s-0.05-2.926-0.05-4.625V257.602z M590.864,288.977c-0.817-0.481-1.476-1.142-1.976-1.975
	s-0.857-1.833-1.074-3c-0.218-1.167-0.325-2.434-0.325-3.8c0-3.333,0.649-5.758,1.95-7.275c1.3-1.517,3.1-2.275,5.398-2.275
	c1.268,0,2.283,0.1,3.051,0.3c0.768,0.2,1.449,0.534,2.051,1v12.399c-0.367,1.801-1.051,3.144-2.051,4.025s-2.351,1.324-4.051,1.324
	C592.672,289.701,591.681,289.46,590.864,288.977z"/>
</svg>
