<?xml version="1.0" encoding="utf-8"?>
<!-- Generator: Adobe Illustrator 16.0.0, SVG Export Plug-In . SVG Version: 6.00 Build 0)  -->
<!DOCTYPE svg PUBLIC "-//W3C//DTD SVG 1.1//EN" "http://www.w3.org/Graphics/SVG/1.1/DTD/svg11.dtd">
<svg version="1.1" id="Layer_1" xmlns:sketch="http://www.bohemiancoding.com/sketch/ns"
	 xmlns="http://www.w3.org/2000/svg" xmlns:xlink="http://www.w3.org/1999/xlink" x="0px" y="0px" width="132px" height="18px"
	 viewBox="0 0 132 18" enable-background="new 0 0 132 18" xml:space="preserve">
<title>primark</title>
<g id="Page_1">
	<g id="primark">
		<path d="M12.182,2.181c-0.379-0.715-0.902-1.238-1.568-1.568c-0.421-0.207-0.976-0.359-1.662-0.461
			c-0.687-0.1-1.613-0.149-2.779-0.148H0v17.229h1.513v-0.004V9.566H5.32c1.104,0,2.038-0.049,2.803-0.148
			c0.765-0.1,1.4-0.253,1.906-0.46c0.957-0.4,1.654-0.973,2.089-1.717c0.436-0.745,0.65-1.604,0.644-2.577
			C12.755,3.724,12.562,2.895,12.182,2.181z M10.694,6.494C10.407,7.009,9.981,7.392,9.419,7.64
			c-0.482,0.203-1.08,0.344-1.794,0.424C6.912,8.142,6.118,8.179,5.246,8.176H1.513V1.392h4.148c1.131-0.013,2.036,0.02,2.715,0.098
			c0.679,0.077,1.23,0.282,1.653,0.61c0.345,0.26,0.613,0.605,0.805,1.039c0.192,0.435,0.29,0.934,0.293,1.498
			C11.126,5.362,10.981,5.981,10.694,6.494z"/>
		<path d="M27.606,9.495c1.593-0.179,2.803-0.675,3.629-1.488c0.828-0.813,1.246-1.896,1.25-3.245
			c-0.014-1.046-0.245-1.932-0.696-2.656c-0.451-0.727-1.031-1.239-1.742-1.541c-0.597-0.248-1.263-0.405-1.998-0.474
			c-0.733-0.067-1.541-0.097-2.418-0.089h-5.295V17.23h1.537V9.665h4.124l5.148,7.563h1.902L27.606,9.495z M25.873,8.275H21.87
			l0.001-0.003v-6.88h4.002c0.828-0.01,1.545,0.022,2.154,0.099c0.606,0.075,1.117,0.254,1.531,0.536
			c0.438,0.299,0.764,0.679,0.977,1.142c0.212,0.462,0.318,0.978,0.316,1.543c0.002,0.569-0.08,1.063-0.244,1.481
			s-0.416,0.779-0.756,1.08c-0.394,0.352-0.926,0.606-1.596,0.767S26.79,8.277,25.873,8.275z"/>
		<path d="M42.959,17.229V0.001h-1.537V17.23h1.537V17.229z"/>
		<path d="M68.02,17.229V0.001h-2.292c-1.332,3.607-2.343,6.343-3.027,8.203c-0.688,1.86-1.196,3.257-1.532,4.188
			c-0.336,0.936-0.646,1.812-0.931,2.641c-0.307-0.885-0.637-1.807-0.985-2.764c-0.351-0.959-0.877-2.358-1.583-4.201
			c-0.705-1.842-1.744-4.531-3.117-8.067H52.33V17.23h1.488c0-3.91-0.002-6.896-0.004-8.963C53.811,6.2,53.803,4.695,53.79,3.753
			s-0.037-1.68-0.067-2.213c0.252,0.771,0.557,1.646,0.911,2.625s0.911,2.458,1.666,4.438c0.755,1.979,1.854,4.854,3.304,8.627
			h1.195c1.148-3.039,2.087-5.522,2.812-7.459c0.727-1.934,1.32-3.535,1.783-4.8c0.463-1.266,0.875-2.419,1.234-3.455
			c-0.022,0.574-0.043,1.316-0.06,2.225c-0.014,0.908-0.022,2.385-0.028,4.432c-0.006,2.046-0.009,5.066-0.009,9.058h1.486v-0.002
			H68.02L68.02,17.229z"/>
		<path d="M83.076,0.001h-1.61l-6.71,17.229h1.708l1.83-5.026h7.784l1.806,5.026h1.708v-0.002L83.076,0.001z M78.807,10.859
			c0.754-1.998,1.353-3.576,1.785-4.737c0.438-1.161,0.775-2.069,1.016-2.727c0.242-0.655,0.447-1.227,0.615-1.711
			c0.17,0.5,0.371,1.073,0.607,1.724c0.236,0.649,0.568,1.55,0.997,2.704c0.43,1.152,1.017,2.736,1.763,4.748H78.807z"/>
		<path d="M104.002,9.495c1.592-0.179,2.803-0.675,3.63-1.488c0.829-0.813,1.246-1.896,1.251-3.245
			c-0.015-1.046-0.248-1.932-0.697-2.656c-0.451-0.727-1.033-1.239-1.742-1.541c-0.598-0.248-1.264-0.405-1.998-0.474
			c-0.732-0.067-1.541-0.097-2.42-0.089H96.73V17.23h1.537V9.665h4.123l5.147,7.563h1.905L104.002,9.495z M102.27,8.275h-4.002
			V8.272v-6.88h4.002c0.828-0.01,1.547,0.022,2.153,0.099c0.608,0.075,1.119,0.254,1.531,0.536c0.438,0.299,0.764,0.679,0.978,1.142
			c0.213,0.462,0.317,0.978,0.316,1.543c0.001,0.569-0.081,1.063-0.244,1.481c-0.164,0.418-0.416,0.779-0.757,1.08
			c-0.394,0.352-0.925,0.606-1.595,0.767C103.98,8.199,103.188,8.277,102.27,8.275z"/>
		<path d="M131.377,17.229l-7.102-10.541L130.62,0h-1.952l-9.175,9.834V0.001h-1.537V17.23h1.537v-5.467l3.733-3.979l6.317,9.441
			h1.831L131.377,17.229L131.377,17.229z"/>
	</g>
</g>
</svg>
