<?xml version="1.0" encoding="utf-8"?>
<!DOCTYPE svg PUBLIC "-//W3C//DTD SVG 1.1//EN" "http://www.w3.org/Graphics/SVG/1.1/DTD/svg11.dtd">
<svg version="1.1" id="river_island" class="retailer" xmlns="http://www.w3.org/2000/svg" xmlns:xlink="http://www.w3.org/1999/xlink"
xml:space="preserve">
<g>
<path d="M67.1,3.9Q67.1 2.75 66.4 1.9Q65.6 1 64.25 1L63.55 1.1L63.55 5.8L63.75 6.45L64.55 6.6Q65.8 6.6 66.5 5.75Q67.1 5 67.1 3.9M67.5,5.55Q67 6.25 66.2 6.55L64.2 6.85L61.9 6.85L61.9 6.65L62.5 6.55L62.75 5.85L62.75 1.65Q62.75 1.2 62.45 1.1L61.9 0.95L61.9 0.75L64.8 0.75Q66.15 0.75 67.1 1.65Q68.05 2.55 68.05 3.8Q68.05 4.8 67.5 5.55M60.65,0.95L60.05 1.15Q59.8 1.4 59.8 2.2L59.8 6.85L59.6 6.85L55.1 1.85L55.1 4.95L55.3 6.3Q55.5 6.65 56.15 6.65L56.15 6.85L53.9 6.85L53.9 6.65L54.65 6.4L54.8 5.35L54.8 1.75Q54.8 0.95 53.75 0.95L53.75 0.75L54.5 0.8L55.25 0.8L59.5 5.55L59.5 2.2L59.25 1.2Q59.05 1 58.45 0.95L58.45 0.75L60.65 0.75L60.65 0.95M50.95,4.6L48.9 4.6L48.85 4.8L48.6 5.55L48.45 6.3Q48.45 6.65 48.85 6.65L49.25 6.65L49.25 6.85L47.15 6.85L47.15 6.65L47.75 6.45L48.25 5.55L49.6 1.8L49.7 0.9L50.2 0.5L50.35 0.5L52.1 5.4L52.5 6.4L53 6.65L53.2 6.65L53.2 6.85L50.9 6.85L50.9 6.65L51.2 6.65Q51.55 6.65 51.55 6.35L51.5 6.1L50.95 4.6M49.9,1.6L49 4.25L50.85 4.25L49.95 1.6L49.9 1.6M46.8,5.55L46.5 6.85L41.85 6.85L41.85 6.65L42.45 6.55L42.7 5.95L42.7 1.8L42.45 1.1L41.9 0.95L41.9 0.75L44.25 0.75L44.25 0.95L43.7 1.05L43.5 1.65L43.5 5.7L43.75 6.35L44.65 6.55L46.1 6.35L46.65 5.5L46.8 5.55M38.15,1.2Q37.85 1.5 37.85 1.95L38.25 2.85L39.1 3.35L40.2 4.1Q40.6 4.5 40.6 5.2Q40.6 6 40 6.5L38.5 6.95L37.1 6.65L36.95 5.4L37.1 5.4Q37.55 6.7 38.6 6.7Q39.15 6.7 39.5 6.35L39.85 5.55Q39.85 5 39.45 4.65L38.6 4.1L37.7 3.5Q37.15 3 37.15 2.25Q37.15 1.45 37.75 1.05Q38.3 0.65 39.1 0.65L40.15 0.75L40.25 1.8L40.1 1.8Q39.85 0.9 38.95 0.9Q38.45 0.9 38.15 1.2M35.55,0.25L34.95 0.35L34.75 0.85L34.75 5.9Q34.75 6.35 35 6.55L35.55 6.65L35.55 6.85L33 6.85L33 6.65L33.6 6.55L33.85 6.05L33.85 1.25Q33.85 0.55 33.65 0.4L33 0.25L33 0L35.55 0L35.55 0.25M27.45,2.3Q27.45 3 27 3.4L26.25 3.8L27.95 6.2Q28.4 6.65 28.95 6.65L28.95 6.85L27.45 6.85L26.65 5.9L25.4 4L24.55 4L24.55 5.6Q24.55 6.35 24.75 6.5L25.45 6.65L25.45 6.85L23 6.85L23 6.65L23.6 6.5L23.8 5.65L23.8 2L23.65 1.2Q23.5 1 23 0.95L23 0.75L25.25 0.75Q26.25 0.75 26.8 1.1Q27.45 1.55 27.45 2.3M26.6,2.35Q26.6 1.8 26.2 1.4Q25.8 1 25.15 1L24.55 1.1L24.55 3.65L25.1 3.75Q25.9 3.75 26.3 3.2L26.6 2.35M21.3,2Q21.2 1.05 20 1.05L18.8 1.05L18.8 3.55L20.15 3.55Q20.5 3.55 20.65 3.3L20.75 2.8L20.95 2.8L20.95 4.65L20.75 4.65L20.65 4.1Q20.5 3.85 20 3.85L18.8 3.85L18.8 5.8Q18.8 6.25 19.1 6.45L19.8 6.6L21.3 6.45L21.75 6.1L22 5.6L22.15 5.6L21.85 6.85L17.2 6.85L17.2 6.65L17.8 6.5L18 5.85L18 1.65Q18 1.2 17.8 1.1L17.2 0.95L17.2 0.75L21.4 0.75L21.45 2L21.3 2M15.8,1.65L13.8 6.85L13.4 6.85L11.55 1.85L11.05 1.1L10.55 0.95L10.55 0.75L12.75 0.75L12.75 0.95L12.35 1L12.2 1.2L12.3 1.65L13.85 5.75L15.35 1.85L15.45 1.35Q15.45 0.95 14.75 0.95L14.75 0.75L16.55 0.75L16.55 0.95Q16.35 0.95 16.2 1.1L15.8 1.65M9,1.55L9 6L9.2 6.55L9.75 6.65L9.75 6.85L7.45 6.85L7.45 6.65L8 6.55L8.2 6.15L8.2 1.85L8.05 1.1L7.45 0.95L7.45 0.75L9.75 0.75L9.75 0.95L9.2 1.05L9 1.55M4.95,1.7Q4.95 2.5 4.45 2.95L3.6 3.4Q4.7 5.25 5.55 6.1Q6.05 6.65 6.65 6.65L6.65 6.85L5 6.85L4.1 5.75L2.7 3.6L1.75 3.6L1.75 5.5Q1.75 6.3 2 6.5L2.75 6.65L2.75 6.85L0 6.85L0 6.65L0.65 6.5Q0.85 6.3 0.85 5.5L0.85 1.4L0.7 0.5Q0.55 0.25 0 0.25L0 0L2.5 0Q3.7 0 4.25 0.4Q4.95 0.9 4.95 1.7M4.05,1.75Q4.05 1.15 3.6 0.75Q3.15 0.3 2.45 0.3L1.75 0.35L1.75 3.25L2.35 3.35Q3.2 3.35 3.7 2.75L4.05 1.75" />
</g>
</svg>
