<?xml version="1.0" encoding="utf-8"?>
<!-- Generator: Adobe Illustrator 16.0.0, SVG Export Plug-In . SVG Version: 6.00 Build 0)  -->
<!DOCTYPE svg PUBLIC "-//W3C//DTD SVG 1.1//EN" "http://www.w3.org/Graphics/SVG/1.1/DTD/svg11.dtd">
<svg version="1.1" id="Layer_1" xmlns:sketch="http://www.bohemiancoding.com/sketch/ns"
	 xmlns="http://www.w3.org/2000/svg" xmlns:xlink="http://www.w3.org/1999/xlink" x="0px" y="0px" width="177px" height="29px"
	 viewBox="0 0 177 29" enable-background="new 0 0 177 29" xml:space="preserve">
<path d="M4.31,7.352c0-1.57,0.749-2.551,2.061-2.551c0.936,0,1.873,0.589,2.061,2.747l3.934-0.39
	c-0.374-3.728-2.248-6.279-5.621-6.279c-4.122,0-6.37,2.354-6.37,6.475c0,7.455,8.244,8.828,8.244,13.93
	c0,1.375-0.936,2.354-2.248,2.354s-2.436-1.373-2.436-3.925l-3.936,0.588c0.188,3.729,2.248,7.064,6.184,7.064
	c3.748,0,6.371-2.358,6.371-6.479C12.554,13.827,4.31,11.668,4.31,7.352z"/>
<path d="M18.174,23.246v-7.655h5.247v-3.726h-5.247V5.194h6.745V1.27c0,0-3.251,0-4.335,0c-1.633,0-6.531,0-6.531,0v25.703h11.428
	v-3.727H18.174z"/>
<path d="M30.915,23.246c0,0,0-13.06,0-17.413c0-1.141,0-4.563,0-4.563h-4.122v25.703h10.493v-3.727H30.915z"/>
<path d="M49.652,5.194V1.27H38.223c0,0,0,6.672,0,8.896c0,4.202,0,16.807,0,16.807h4.122V15.591h5.433v-3.726h-5.433V5.194H49.652z"
	/>
<path d="M60.893,15.398c1.499-0.784,2.998-2.354,2.998-6.476c0-5.494-2.437-7.652-6.933-7.652H51.15v25.704h4.122V16.576
	c0.75,0,1.687-0.197,2.061-0.197l2.998,10.596h4.122L60.893,15.398z M56.771,12.846h-1.499V4.998h1.499
	c2.249,0,2.998,0.785,2.998,3.924C59.769,11.865,59.019,12.846,56.771,12.846z"/>
<path d="M66.515,1.27v25.703h4.122c0,0,0-8.979,0-11.971c0-3.433,0-13.732,0-13.732H66.515z"/>
<path d="M79.63,1.27h-5.996v25.703h5.996c4.311,0,6.371-2.354,6.371-7.652V9.118C86,3.82,83.939,1.27,79.63,1.27z M82.066,19.714
	c0,2.746-0.75,3.729-2.998,3.729h-1.499V4.998h1.499c2.249,0,2.998,0.785,2.998,3.532V19.714z"/>
<path d="M94.055,14.022v3.533h2.623v2.354c0,2.55-0.562,3.729-2.248,3.729c-1.5,0-1.873-1.18-1.873-2.748V7.548
	c0-2.158,0.748-2.747,1.687-2.747c1.688,0,2.438,0.981,2.438,4.905h3.936V7.94c0-3.727-2.062-7.063-6.184-7.063
	c-4.123,0-5.997,2.943-5.997,6.671v13.339c0,3.926,2.249,6.479,5.434,6.479c1.873,0,2.997-0.592,4.122-2.158l0.749,1.768h2.062
	V14.022H94.055z"/>
<path d="M107.359,23.246v-7.655h5.246v-3.726h-5.246V5.194h6.746V1.27h-10.867c0,0,0,11.424,0,15.232c0,2.617,0,10.471,0,10.471
	h11.429v-3.727H107.359z"/>
<path d="M119.537,7.352c0-1.57,0.75-2.551,2.062-2.551c0.937,0,1.873,0.589,2.061,2.747l3.936-0.39
	c-0.375-3.728-2.25-6.279-5.621-6.279c-4.123,0-6.371,2.354-6.371,6.475c0,7.455,8.244,8.828,8.244,13.93
	c0,1.375-0.937,2.354-2.248,2.354c-1.312,0-2.438-1.373-2.438-3.925l-3.936,0.588c0.188,3.729,2.248,7.064,6.184,7.064
	c3.748,0,6.371-2.358,6.371-6.479C127.781,13.827,119.537,11.668,119.537,7.352z"/>
<path d="M161.626,10.583V7.94c0-3.854-2.122-7.744-6.862-7.744c-4.172,0-6.865,2.886-6.865,7.352v13.341
	c0,4.281,2.76,7.158,6.865,7.158s6.863-2.877,6.862-7.156v-3.82h-5.483v3.82c0,1.906-0.682,2.066-1.379,2.066
	c-0.729,0-1.383-0.173-1.383-2.264V7.548c0-1.907,0.684-2.066,1.383-2.066c0.863,0,1.379,0.919,1.379,2.458v2.643H161.626z"/>
<path fill="#FFFFFF" d="M160.266,9.222V7.94c0-2.944-1.44-6.382-5.502-6.382c-4.059,0-5.505,3.094-5.505,5.99v13.341
	c0,2.803,1.446,5.797,5.505,5.797c4.057,0,5.502-2.994,5.502-5.797V18.43h-2.762v2.459c0,2.275-0.922,3.43-2.74,3.43
	c-2.744,0-2.744-2.729-2.744-3.625V7.548c0-2.833,1.492-3.428,2.744-3.428c1.264,0,2.74,1,2.74,3.82v1.282H160.266z"/>
<g>
	<path d="M170.127,0.001c-2.961,0-6.488,1.344-6.488,7.744v5.69c0,5.14,2.182,7.745,6.488,7.745c4.182,0,6.301-2.604,6.303-7.745
		v-5.69C176.43,1.345,173.002,0.001,170.127,0.001z M171.508,14.218c0,2.458-1.004,2.458-1.382,2.458c-0.377,0-1.38,0-1.38-2.458
		V7.156c0-2.458,0.83-2.458,1.38-2.458s1.382,0,1.382,2.458V14.218z"/>
	<path fill="#FFFFFF" d="M170.127,1.363c-3.45,0-5.128,2.087-5.128,6.382v5.69c0,4.415,1.582,6.383,5.128,6.383
		c3.37,0,4.939-2.027,4.939-6.383v-5.69C175.066,3.451,173.451,1.363,170.127,1.363z M172.869,14.217
		c0,3.324-1.719,3.821-2.743,3.821c-1.022,0-2.741-0.496-2.741-3.82V7.156c0-0.945,0-3.82,2.741-3.82
		c2.743,0,2.743,2.875,2.743,3.82V14.217z"/>
</g>
<path d="M143.801,22.035c0.866-2.001,1.721-4.074,2.08-6.337l0.094-0.595l-4.721-1.372l-0.095,0.797
	c-0.13,1.086-0.459,2.202-0.835,3.308c-0.704-1.058-1.446-2.305-2.014-3.682l0.069-0.081c1.851-2.115,3.946-4.512,3.946-7.901
	c0-3.576-2.23-5.979-5.553-5.979c-3.711,0-5.928,2.529-5.928,6.764c0,2.318,1.019,4.961,1.76,6.891l0.017,0.041
	c-1.938,2.37-3.087,5.108-3.087,7.391c0,4.109,2.547,6.765,6.488,6.765c1.959,0,3.363-0.498,4.688-1.694
	c1.285,1.14,2.763,1.694,4.494,1.694h0.683v-5.131l-0.509-0.134C144.863,22.646,144.334,22.396,143.801,22.035z M136.402,22.955
	c-0.887,0-1.756-1.023-1.756-2.066c0-0.728,0.115-1.26,0.371-1.824c0.678,1.338,1.545,2.568,2.352,3.689
	C137.134,22.907,136.882,22.955,136.402,22.955z M136.229,9.553c-0.357-1.135-0.646-2.357-0.646-3.574
	c0-0.853,0.175-1.87,1.006-1.87c0.543,0,0.818,0.695,0.82,2.066C137.409,7.429,136.863,8.544,136.229,9.553z"/>
<path fill="#FFFFFF" d="M142.539,22.8l-0.414-0.325l0.21-0.48c0.825-1.898,1.677-3.854,2.095-5.919l-2.041-0.593
	c-0.261,1.383-0.748,2.744-1.225,4.067l-0.438,1.224l-0.759-1.057c-0.993-1.39-2.243-3.265-3.079-5.451l-0.146-0.382l0.613-0.704
	c1.773-2.029,3.608-4.128,3.608-7.005c0.001-2.805-1.644-4.616-4.19-4.616c-3.971,0-4.563,3.383-4.563,5.401
	c0,2.065,0.965,4.572,1.669,6.401l0.307,0.797l-0.267,0.308c-1.894,2.201-3.021,4.749-3.021,6.817c0,3.333,1.965,5.402,5.129,5.402
	c1.834,0,2.972-0.477,4.19-1.754l0.492-0.516l0.492,0.516c0.961,1.006,2.053,1.569,3.323,1.717v-2.707
	C143.861,23.695,143.193,23.314,142.539,22.8z M136.589,2.747c0.994,0,2.181,0.595,2.181,3.428c0,2.103-1.152,3.787-2.078,5.142
	l-0.856,1.252l-0.45-1.258c-0.603-1.69-1.162-3.506-1.162-5.332C134.223,2.98,136.034,2.747,136.589,2.747z M138.77,23.322
	c-0.721,0.754-1.295,0.996-2.367,0.996c-1.633,0-3.117-1.635-3.117-3.43c0-1.5,0.396-2.389,1.23-3.699l0.727-1.144l0.482,1.267
	c0.672,1.756,1.852,3.396,2.892,4.846l0.542,0.756L138.77,23.322z"/>
</svg>
