<?xml version="1.0" encoding="utf-8"?>
<!-- Generator: Adobe Illustrator 16.0.4, SVG Export Plug-In . SVG Version: 6.00 Build 0)  -->
<!DOCTYPE svg PUBLIC "-//W3C//DTD SVG 1.1//EN" "http://www.w3.org/Graphics/SVG/1.1/DTD/svg11.dtd">
<svg version="1.1" id="Layer_1" xmlns:sketch="http://www.bohemiancoding.com/sketch/ns"
	 xmlns="http://www.w3.org/2000/svg" xmlns:xlink="http://www.w3.org/1999/xlink" x="0px" y="0px" width="177px" height="29px"
	 viewBox="0 0 177 29" enable-background="new 0 0 177 29" xml:space="preserve">
<path d="M4.31,7.352c0-1.57,0.749-2.551,2.061-2.551c0.936,0,1.873,0.589,2.061,2.747l3.934-0.39
	c-0.374-3.728-2.248-6.279-5.621-6.279c-4.122,0-6.37,2.354-6.37,6.475c0,7.455,8.244,8.828,8.244,13.93
	c0,1.375-0.936,2.354-2.248,2.354s-2.436-1.373-2.436-3.924l-3.936,0.588c0.188,3.729,2.248,7.064,6.184,7.064
	c3.748,0,6.371-2.358,6.371-6.479C12.554,13.827,4.31,11.668,4.31,7.352z"/>
<path d="M18.174,23.246v-7.655h5.247v-3.726h-5.247V5.194h6.745V1.27c0,0-3.251,0-4.335,0c-1.633,0-6.531,0-6.531,0v25.703h11.428
	v-3.727H18.174z"/>
<path d="M30.915,23.246c0,0,0-13.06,0-17.413c0-1.141,0-4.563,0-4.563h-4.122v25.703h10.493v-3.727H30.915z"/>
<path d="M49.652,5.194V1.27H38.223c0,0,0,6.672,0,8.896c0,4.202,0,16.806,0,16.806h4.122V15.591h5.433v-3.726h-5.433V5.194H49.652z"
	/>
<path d="M60.893,15.398c1.499-0.784,2.998-2.354,2.998-6.475c0-5.494-2.437-7.652-6.933-7.652H51.15v25.703h4.122V16.576
	c0.75,0,1.687-0.197,2.061-0.197l2.998,10.596h4.122L60.893,15.398z"/>
<path fill="#FFFFFF" d="M56.771,4.998h-1.499v7.848h1.499c2.248,0,2.998-0.981,2.998-3.924C59.769,5.783,59.02,4.998,56.771,4.998z"
	/>
<path d="M66.515,1.27v25.703h4.122c0,0,0-8.979,0-11.971c0-3.433,0-13.732,0-13.732H66.515z"/>
<path d="M79.63,1.27h-5.996v25.703h5.996c4.311,0,6.371-2.354,6.371-7.652V9.118C86,3.82,83.939,1.27,79.63,1.27z"/>
<path fill="#FFFFFF" d="M79.068,4.998h-1.499v18.445h1.499c2.248,0,2.998-0.983,2.998-3.729V8.53
	C82.066,5.783,81.317,4.998,79.068,4.998z"/>
<path d="M94.055,14.022v3.533h2.623v2.354c0,2.55-0.562,3.729-2.248,3.729c-1.5,0-1.873-1.179-1.873-2.748V7.548
	c0-2.158,0.748-2.747,1.686-2.747c1.688,0,2.438,0.981,2.438,4.905h3.936V7.94c0-3.727-2.062-7.063-6.184-7.063
	c-4.123,0-5.996,2.943-5.996,6.671v13.339c0,3.926,2.248,6.478,5.434,6.478c1.873,0,2.997-0.591,4.122-2.158l0.749,1.767h2.062
	V14.022H94.055z"/>
<path d="M107.359,23.246v-7.655h5.246v-3.726h-5.246V5.194h6.746V1.27h-10.867c0,0,0,11.424,0,15.232c0,2.617,0,10.471,0,10.471
	h11.429v-3.727H107.359z"/>
<path d="M119.537,7.352c0-1.57,0.75-2.551,2.062-2.551c0.937,0,1.873,0.589,2.061,2.747l3.936-0.39
	c-0.375-3.728-2.25-6.279-5.621-6.279c-4.123,0-6.371,2.354-6.371,6.475c0,7.455,8.244,8.828,8.244,13.93
	c0,1.375-0.937,2.354-2.248,2.354c-1.313,0-2.438-1.373-2.438-3.924l-3.936,0.588c0.188,3.729,2.248,7.064,6.184,7.064
	c3.748,0,6.371-2.358,6.371-6.479C127.781,13.827,119.537,11.668,119.537,7.352z"/>
<path d="M143.801,22.035c0.866-2.001,1.721-4.074,2.08-6.337l0.094-0.595l-4.721-1.371l-0.095,0.797
	c-0.13,1.086-0.459,2.202-0.835,3.308c-0.704-1.057-1.446-2.305-2.014-3.682l0.07-0.081c1.85-2.115,3.946-4.512,3.946-7.901
	c0-3.576-2.231-5.979-5.552-5.979c-3.711,0-5.928,2.529-5.928,6.764c0,2.318,1.018,4.961,1.76,6.891l0.016,0.041
	c-1.939,2.37-3.087,5.108-3.087,7.391c0,4.11,2.547,6.765,6.489,6.765c1.959,0,3.363-0.498,4.688-1.695
	c1.285,1.14,2.762,1.695,4.494,1.695h0.682v-5.131l-0.508-0.134C144.863,22.646,144.334,22.396,143.801,22.035z"/>
<path fill="#FFFFFF" d="M142.539,22.8l-0.414-0.325l0.21-0.481c0.825-1.898,1.677-3.854,2.095-5.919l-2.041-0.592
	c-0.261,1.382-0.748,2.744-1.225,4.067l-0.438,1.224l-0.758-1.057c-0.994-1.39-2.244-3.265-3.08-5.452l-0.146-0.381l0.614-0.705
	c1.773-2.029,3.608-4.127,3.608-7.004c0.001-2.805-1.644-4.617-4.19-4.617c-3.971,0-4.564,3.384-4.564,5.402
	c0,2.065,0.965,4.572,1.669,6.402l0.306,0.796l-0.266,0.308c-1.893,2.201-3.021,4.749-3.021,6.817c0,3.333,1.965,5.402,5.129,5.402
	c1.834,0,2.972-0.476,4.191-1.754l0.492-0.515l0.492,0.515c0.961,1.006,2.053,1.57,3.324,1.717v-2.707
	C143.861,23.695,143.193,23.314,142.539,22.8z"/>
<path fill="#1D1D1B" d="M136.589,2.747c-0.555,0-2.366,0.233-2.366,3.232c0,1.825,0.559,3.641,1.162,5.331l0.45,1.258l0.856-1.252
	c0.926-1.354,2.078-3.038,2.078-5.141C138.77,3.342,137.583,2.747,136.589,2.747z"/>
<path fill="#FFFFFF" d="M136.589,4.109c-0.831,0-1.006,1.017-1.006,1.87c0,1.217,0.288,2.439,0.646,3.574
	c0.635-1.009,1.18-2.124,1.18-3.378C137.407,4.804,137.132,4.109,136.589,4.109z"/>
<path d="M138.616,22.158c-1.04-1.449-2.22-3.09-2.892-4.846l-0.482-1.266l-0.727,1.143c-0.834,1.311-1.23,2.199-1.23,3.699
	c0,1.795,1.484,3.43,3.117,3.43c1.072,0,1.647-0.242,2.367-0.996l0.389-0.408L138.616,22.158z"/>
<path fill="#FFFFFF" d="M135.018,19.064c-0.256,0.565-0.371,1.097-0.371,1.824c0,1.043,0.869,2.067,1.756,2.067
	c0.479,0,0.731-0.048,0.966-0.201C136.562,21.633,135.695,20.402,135.018,19.064z"/>
<path d="M161.626,10.583V7.94c0-3.854-2.122-7.744-6.862-7.744c-4.172,0-6.865,2.886-6.865,7.352v13.341
	c0,4.281,2.759,7.158,6.865,7.158c4.105,0,6.863-2.877,6.862-7.156v-3.82h-5.483v3.82c0,1.906-0.682,2.066-1.379,2.066
	c-0.729,0-1.383-0.173-1.383-2.264V7.548c0-1.907,0.684-2.066,1.383-2.066c0.863,0,1.379,0.919,1.379,2.458v2.643H161.626z"/>
<path fill="#FFFFFF" d="M160.266,9.222V7.94c0-2.944-1.441-6.382-5.502-6.382c-4.059,0-5.505,3.094-5.505,5.99v13.341
	c0,2.803,1.446,5.797,5.505,5.797c4.057,0,5.502-2.994,5.502-5.797V18.43h-2.762v2.459c0,2.275-0.922,3.43-2.74,3.43
	c-2.744,0-2.744-2.729-2.744-3.625V7.548c0-2.833,1.492-3.428,2.744-3.428c1.264,0,2.74,1,2.74,3.82v1.282H160.266z"/>
<path d="M170.127,0.001c-2.961,0-6.488,1.344-6.488,7.744v5.69c0,5.14,2.182,7.745,6.488,7.745c4.182,0,6.301-2.604,6.303-7.745
	v-5.69C176.43,1.345,173.002,0.001,170.127,0.001z"/>
<path fill="#FFFFFF" d="M170.127,1.363c-3.45,0-5.128,2.087-5.128,6.382v5.69c0,4.415,1.582,6.383,5.128,6.383
	c3.37,0,4.939-2.027,4.939-6.383v-5.69C175.066,3.451,173.451,1.363,170.127,1.363z"/>
<path d="M170.126,3.336c-2.741,0-2.741,2.875-2.741,3.82v7.062c0,3.324,1.719,3.82,2.741,3.82c1.024,0,2.743-0.497,2.743-3.821
	V7.156C172.869,6.211,172.869,3.336,170.126,3.336z"/>
<path fill="#FFFFFF" d="M170.126,4.698c-0.55,0-1.38,0-1.38,2.458v7.062c0,2.458,1.003,2.458,1.38,2.458
	c0.378,0,1.382,0,1.382-2.458V7.156C171.508,4.698,170.676,4.698,170.126,4.698z"/>
</svg>
