<?xml version="1.0" encoding="utf-8"?>
<!DOCTYPE svg PUBLIC "-//W3C//DTD SVG 1.1//EN" "http://www.w3.org/Graphics/SVG/1.1/DTD/svg11.dtd">
<svg version="1.1" id="starbucks" class="retailer" xmlns="http://www.w3.org/2000/svg" xmlns:xlink="http://www.w3.org/1999/xlink" xml:space="preserve">
<g>
	<path d="M13.613,13.992l0.033,0.203c0.439,0.292,0.574,0.788,1.182,0.743c0.539,0.032,0.942-0.473,1.211-0.877
		C15.309,13.96,14.422,14.116,13.613,13.992z"/>
	<path d="M29.653,15.509c-1.74,0.687-2.886-1.055-4.549-1.044c-0.215-0.247-0.271-0.549-0.371-0.842
		c1.875-0.605,3.111,2.099,4.954,0.707c-0.146-2.281-0.63-4.424-1.685-6.333c-1.103-2.18-3.134-4.326-5.257-5.628
		c-2.188-1.548-5.127-2.311-8.037-2.287c-2.41,0.021-4.8,0.581-6.724,1.68C3.234,4.176,0.372,9.084,0,14.16l0.134,0.27
		c1.786,0.956,2.943-1.146,4.685-0.909c0.392,0.18-0.08,0.482-0.067,0.74c-0.136,0.337-0.609,0.18-0.912,0.27
		c-1.191,0.517-2.415,1.517-3.808,0.977c0,0,0.01,0.104,0.021,0.253H0.051c0.029,0.383,0.083,1.062,0.083,1.062
		c1.562,0.496,2.572-1.135,4.043-0.943c-0.035,0.326-0.056,0.674-0.235,0.909c-1.348,0.069-2.191,1.338-3.607,1.248l0.27,1.078
		c1.224,0.124,2.011-1.135,3.236-1.011l-0.033,0.807c-1.078,0.102-1.774,1.112-2.864,1.18c0.146,2.494,1.873-0.383,2.963,0.102
		c0.045,0.271,0.204,0.528,0.102,0.811c-0.876-0.012-1.426,0.753-2.19,1.011c0.135,0.315,0.225,0.763,0.572,0.874
		c0.652-0.269,1.18-0.839,1.955-0.807c-0.09-0.293-0.168-0.686-0.134-0.943c0.977,0.256,1.54-0.509,2.225-0.945
		c0.156-1.383,1.121-2.438,1.717-3.639c0.063-0.265,0.085-0.528,0.081-0.792c-0.03-1.46-0.91-2.874-0.214-4.398
		c0.214-0.595,0.584-1.379,1.214-1.549c-1.157,1.382-0.943,3.493-0.337,5.055c0.123,0.317,0.167,0.612,0.155,0.892
		c-0.052,1.232-1.198,2.172-1.639,3.286c-0.549,1.114-0.046,2.383,0.572,3.304c-0.887,0.685-1.707,1.561-2.864,1.583
		c-0.325-0.158-0.337-0.605-0.506-0.91c-0.685-0.135-1.233,0.337-1.784,0.675l0.639,0.807c0.472-0.224,1.013-0.705,1.551-0.367
		c0.797,0.943-0.777,0.467-0.979,1.043c0.224,0.303,0.495,0.526,0.776,0.774c0.325-0.102,0.584-0.36,0.978-0.306
		c0.157,0.191,0.336,0.383,0.404,0.608l-0.607,0.372c0.438,0.449,0.989,0.876,1.516,1.079c0.315-1.057,1.157-1.876,1.551-2.898
		c0.078-0.393,0.1-0.866,0.201-1.214c1.134,1.763-1.246,2.81-1.246,4.482c0.247,0.224,0.55,0.346,0.842,0.47
		c-0.045-1.313,1.056-2.155,1.516-3.267c0.843-1.765-1.1-2.865-1.719-4.28C7.67,19.723,8.491,18.52,9.3,17.565
		c0.563-0.607,0.709-1.203,0.66-1.803c-0.112-1.355-1.23-2.716-0.761-4.229c0.27-0.944,0.673-2.068,1.65-2.46
		c-0.708,0.819-1.079,1.774-1.145,2.864c-0.197,1.48,0.99,2.51,1.057,3.826c0.013,0.264-0.019,0.536-0.113,0.827
		c-0.55,1.189-1.796,2.086-1.786,3.503c-0.146,1.862,2.292,2.571,2.021,4.484c-0.022,1.661-1.931,2.58-1.516,4.377l1.046,0.34
		c-0.595-2.022,1.505-3.147,1.516-4.956c0.101-1.527-1.539-2.324-1.955-3.64c-0.437-1.303,0.517-2.346,1.247-3.336
		c0.359-0.559,0.443-1.086,0.386-1.6c-0.146-1.273-1.175-2.466-1.126-3.858c-0.023-1.28,0.538-2.539,1.65-3.134
		c-0.335,0.482-0.718,0.942-0.909,1.481c-0.697,1.888,0.473,3.506,1.045,5.124c0.044,0.133,0.075,0.261,0.092,0.387
		c0.215,1.5-1.32,2.455-1.611,3.824c-0.393,1.662,1.395,2.425,1.787,3.808c0.843,2.256-1.886,3.571-1.246,5.828
		c-0.011,0.665,0.764,0.406,1.179,0.541c-1.011-1.864,0.619-3.403,1.112-5.02c0.551-1.73-1.098-2.708-1.783-4.046
		c-0.72-1.504,0.919-2.436,1.278-3.704c0.302-0.866,1.079-0.066,1.585-0.169c0.686,0.124,1.28-0.551,1.854-0.066
		c0.28,1.145,1.605,1.852,1.615,3.098c-0.045,1.932-2.84,2.942-1.952,5.055c0.729,1.472,1.976,3.157,1.146,4.853l1.043-0.236
		c0.696-1.74-0.594-3.077-1.212-4.482c-0.562-1.606,0.844-2.808,1.686-4.042c0.798-1.494-0.482-2.72-1.212-3.876
		c-0.252-0.477-0.304-0.928-0.243-1.364c0.129-0.925,0.763-1.784,1.05-2.646c0.618-1.471,0.27-3.301-0.876-4.413l0.034-0.035
		c0.572,0.337,1.089,0.932,1.349,1.516c0.982,1.977-0.423,3.728-0.771,5.578l-0.037,0.219c-0.033,1.304,1.034,1.922,1.551,2.967
		c0.864,1.684-0.662,2.874-1.516,4.143c-1.383,2.371,1.92,3.764,1.246,6.132l1.01-0.335c0.259-1.271-0.697-2.302-1.315-3.335
		c-0.853-1.729,0.676-3.067,1.552-4.381c0.774-1.641-0.572-3.022-1.348-4.281c-0.248-0.361-0.327-0.744-0.306-1.128h0.002
		c0.041-0.736,0.446-1.481,0.741-2.107c0.585-1.573,0.179-3.481-0.843-4.65c0.687,0.282,1.189,1.046,1.415,1.719
		c0.81,1.673-0.18,3.347-0.505,4.92l-0.003,0.118c-0.013,1.508,1.417,2.342,1.821,3.688c0.394,1.393-0.718,2.36-1.38,3.373
		c-1.988,2.065,1.111,3.616,1.077,5.659c0.293-0.124,0.674-0.181,0.843-0.474c-0.146-1.132-1.111-1.931-1.517-2.964
		c-0.021-0.494-0.135-1.102,0.204-1.482l0.066,0.067c-0.123,1.648,1.315,2.649,1.752,4.076c0.506-0.305,1.033-0.594,1.448-1.043
		c-0.156-0.156-0.391-0.28-0.604-0.37c-0.115-0.248,0.212-0.483,0.369-0.709l0.941,0.337c0.28-0.258,0.586-0.47,0.743-0.807
		c-0.338-0.238-0.709-0.409-1.112-0.474c-0.014-0.259,0.132-0.46,0.302-0.641c0.574-0.021,1.023,0.248,1.484,0.472
		c0.246-0.224,0.519-0.515,0.606-0.84l-1.214-0.607c-0.831-0.526-0.606,0.618-1.011,0.876c-1.135-0.047-1.942-0.844-2.798-1.551
		c0.102-0.517,0.507-0.909,0.643-1.415c0.494-1.651-0.82-2.896-1.551-4.213c-0.184-0.321-0.251-0.641-0.249-0.959
		c0.006-0.894,0.553-1.786,0.585-2.714c0.281-1.202-0.281-2.357-0.742-3.335c0.315,0.191,0.654,0.448,0.845,0.773
		c0.629,1.235,0.809,2.956,0.235,4.281c-0.142,0.355-0.188,0.686-0.171,0.995c0.093,1.551,1.836,2.639,1.856,4.295
		c0.673,0.507,1.281,1.351,2.189,1.08c0.067,0.325-0.113,0.671-0.103,0.976c0.81-0.045,1.35,0.563,2.057,0.776
		c0.169-0.292,0.461-0.585,0.439-0.912c-0.797-0.236-1.37-1.021-2.258-1.043l0.167-0.774c0.933-0.022,1.618,0.764,2.494,0.978
		c0.304-0.226,0.404-0.641,0.505-1.011c-1.077-0.169-1.853-1.079-2.93-1.248c0.021-0.269-0.058-0.583,0.066-0.809
		c1.021,0,1.695,0.821,2.629,1.047c0.897,0.425,0.604-0.643,0.807-1.047c-1.427,0.057-2.29-1.267-3.671-1.313l-0.169-0.845
		c1.493-0.246,2.505,1.383,4.044,0.946c0.148-0.389,0.111-0.716,0.101-1.097L29.653,15.509z M7.412,10.353
		c-0.572,0.561-1.27,1.247-1.685,1.955c-1.404-0.281-2.527,0.54-3.706,1.011c-0.45,0.089-1.044,0.134-1.415-0.168
		c1.112-1.832,2.682-3.517,2.29-5.931c0.046-0.08,0.105-0.105,0.168-0.101c0.105,0.007,0.221,0.094,0.305,0.136
		C4.235,7.928,4.65,8.859,4.751,9.882C5.84,9.466,7.322,8.747,8.49,9.511C8.242,9.859,7.762,10.051,7.412,10.353z M12.266,10.692
		c0.099-0.023,0.201-0.038,0.302-0.042c0.438-0.016,0.869,0.148,1.078,0.478v0.136c-0.381-0.034-0.999-0.417-1.348,0.066
		c-0.224,0.101-0.258-0.159-0.235-0.304C12.018,10.859,12.119,10.725,12.266,10.692z M17.656,10.152
		c-0.663-0.203-1.415-0.09-2.056,0.169c-0.573,0.427-0.483,1.303-0.337,1.92l0.171,0.136c0.28-0.068,0.291-0.428,0.537-0.508
		c0.417,0.102,0.989,0.249,1.383,0c0.348,0.012,0.335,0.495,0.369,0.743c-0.247,1.303-0.796,2.718-2.122,3.335
		c-0.551,0.269-1.26,0.088-1.788-0.102c-1.303-0.775-2.032-2.312-1.886-3.705c0.102-0.213,0.258-0.384,0.505-0.238
		c0.526,0.359,1.1-0.279,1.583,0.169c0.583-0.258,0.236-0.977,0.236-1.516c-0.472-0.607-1.28-0.519-1.987-0.473
		C11.95,9.891,12.29,9.59,12.367,9.376c0.537-0.758,1.417-0.994,2.338-1.013c0.061-0.001,0.123-0.001,0.184,0
		c0.329,0.003,0.661,0.03,0.98,0.069c0.652,0.168,1.371,0.45,1.686,1.146C17.589,9.771,17.78,9.939,17.656,10.152z M17.656,10.96
		c-0.01,0.136,0.024,0.293-0.134,0.371c-0.427-0.168-1.021-0.404-1.449-0.066c-0.248-0.528,0.438-0.416,0.674-0.572
		c0.043-0.002,0.087-0.004,0.132-0.005C17.191,10.681,17.52,10.705,17.656,10.96z M20.455,9.04
		c-1.136-0.426-2.303-0.943-3.571-1.145c-2.707-0.462-5.314,0.132-7.551,1.211c-0.19-1.135-0.741-2.122-1.415-3.064
		c0.404-0.135,0.898,0.087,1.315,0.201c0.348,0.1,0.64,0.337,1.011,0.406c0.066-0.674-0.327-1.339-0.607-1.957
		c0.191-0.146,0.495-0.035,0.708,0.035c0.887,0.336,1.684,0.863,2.493,1.348c0.415-0.484,0.572-1.18,0.741-1.82l-1.38-1.247V2.874
		l1.819-0.102c0.303-0.572,0.507-1.178,0.811-1.751c0.371,0.505,0.493,1.167,0.808,1.717l1.82,0.102l-0.034,0.168l-1.349,1.281
		c0.235,0.574,0.472,1.148,0.709,1.719c1.021-0.594,2-1.337,3.235-1.417c-0.112,0.652-0.606,1.339-0.541,1.989
		c0.765-0.213,1.461-0.686,2.293-0.642C21.251,6.894,20.498,7.85,20.455,9.04z M24.025,12.342c-0.695-1.077-1.627-2.089-2.762-2.695
		c0.066-0.371,0.584-0.394,0.943-0.439c1-0.1,1.876,0.313,2.696,0.741c0.156-0.37,0.223-0.787,0.334-1.179
		c0.271-0.663,0.802-1.338,1.486-1.618c0.146,0.022,0.247,0.18,0.201,0.337c-0.438,2.291,1.135,3.909,2.189,5.661
		c-1.212,0.809-2.36-0.438-3.505-0.741C25.104,12.331,24.51,12.264,24.025,12.342z"/>
	<path d="M13.479,6.276c-0.167,0.113,0.012,0.248,0.101,0.338c0.799-0.013,1.687-0.125,2.529-0.035l0.168-0.168
		c-0.429-0.416-0.988-0.808-1.517-1.112L13.479,6.276z"/>
	<path d="M14.761,13.027c-0.24,0.002-0.466-0.206-0.701,0.065c-0.04,0.055-0.061,0.109,0.009,0.142
		c0.318,0.075,0.396,0.188,0.648,0.22c0.267-0.005,0.229-0.059,0.695-0.22c0.03-0.011,0.072-0.078,0.02-0.13
		C15.144,12.816,14.943,13.022,14.761,13.027z"/>
</g>
</svg>
