<?xml version="1.0" encoding="UTF-8" standalone="no"?>
<svg width="89px" height="25px" viewBox="0 0 89 25" version="1.1" xmlns="http://www.w3.org/2000/svg" xmlns:xlink="http://www.w3.org/1999/xlink">
    <title>superdry</title>
    <g id="Page 1" fill="#D8D8D8" fill-rule="evenodd">
        <g id="superdry" fill="#000000">
            <path d="M39.832,6.385 L39.854,6.386 C40.041,6.394 40.236,6.394 40.424,6.394 L40.504,6.394 L40.465,6.324 C40.034,5.545 39.794,4.845 39.731,4.182 C39.609,3.16 39.869,2.042 40.464,1.035 L40.506,0.964 L40.424,0.964 C40.369,0.964 40.313,0.961 40.257,0.959 C40.2,0.956 40.143,0.953 40.086,0.953 C39.989,0.953 39.91,0.961 39.838,0.979 L39.822,0.983 L39.812,0.996 C39.117,1.907 38.765,2.926 38.819,3.866 C38.866,4.685 39.202,5.527 39.818,6.367 L39.832,6.385 L39.832,6.385 Z M39.832,6.385" class="black"/>
            <path d="M61.622,1.273 C61.693,1.413 61.768,1.558 61.835,1.704 C62.328,2.8 62.39,4.075 62.005,5.202 C61.907,5.511 61.762,5.806 61.621,6.09 C61.582,6.169 61.543,6.247 61.506,6.325 L61.474,6.392 L62.161,6.392 L62.175,6.372 C62.818,5.46 63.158,4.569 63.187,3.723 C63.187,2.848 62.849,1.924 62.181,0.975 L62.167,0.955 L62.143,0.955 C61.935,0.955 61.739,0.955 61.54,0.962 L61.468,0.964 L61.5,1.029 C61.539,1.113 61.58,1.193 61.622,1.273 L61.622,1.273 Z M61.622,1.273" class="black"/>
            <path d="M45.977,5.359 C46.081,5.421 46.186,5.483 46.29,5.547 L46.335,5.575 L46.357,5.526 C46.449,5.32 46.544,5.114 46.639,4.908 C46.953,4.229 47.279,3.526 47.48,2.79 C47.578,2.778 47.676,2.768 47.775,2.757 C48.047,2.727 48.33,2.696 48.6,2.649 L48.639,2.642 L48.639,2.602 C48.639,2.491 48.634,2.379 48.629,2.268 C48.624,2.158 48.619,2.049 48.619,1.941 L48.619,1.885 L48.563,1.896 C48.253,1.957 47.973,2.003 47.707,2.039 C47.76,1.785 47.824,1.537 47.893,1.276 L47.926,1.148 L47.87,1.144 C47.741,1.134 47.614,1.121 47.487,1.107 C47.36,1.093 47.234,1.08 47.105,1.07 L47.054,1.066 L47.054,1.117 C47.054,1.328 47.004,1.538 46.955,1.742 C46.929,1.85 46.902,1.963 46.883,2.075 C46.75,2.079 46.61,2.081 46.452,2.081 C46.243,2.081 46.034,2.078 45.828,2.074 L45.78,2.073 L45.78,2.809 L45.827,2.809 C45.931,2.809 46.033,2.81 46.135,2.81 C46.321,2.812 46.503,2.812 46.689,2.81 C46.471,3.542 46.118,4.285 45.609,5.08 L45.583,5.12 L45.623,5.145 C45.74,5.219 45.858,5.289 45.977,5.359 L45.977,5.359 Z M45.977,5.359" class="black"/>
            <path d="M51.642,2.925 L51.643,2.967 L51.684,2.971 C51.827,2.985 51.974,2.992 52.133,2.992 C52.482,2.992 52.834,2.958 53.175,2.925 C53.459,2.898 53.753,2.869 54.044,2.861 C54.201,3.199 54.399,3.51 54.607,3.822 C54.441,3.808 54.27,3.783 54.104,3.759 C53.848,3.721 53.583,3.682 53.325,3.682 C53.018,3.682 52.758,3.739 52.53,3.853 C52.23,3.973 51.976,4.222 51.771,4.6 C51.572,5.144 51.808,5.774 52.295,6.005 C52.584,6.15 52.897,6.283 53.233,6.283 C53.255,6.283 53.279,6.283 53.297,6.281 C53.472,6.289 53.629,6.294 53.779,6.294 C54.393,6.294 54.889,6.224 55.346,6.071 C55.368,6.06 55.398,6.052 55.427,6.045 C55.495,6.028 55.572,6.008 55.62,5.937 L55.63,5.924 L55.629,5.907 C55.62,5.747 55.593,5.59 55.567,5.436 C55.553,5.356 55.54,5.277 55.529,5.196 L55.519,5.13 L55.464,5.16 C55.136,5.329 54.764,5.39 54.403,5.449 C54.305,5.465 54.208,5.481 54.114,5.499 C53.781,5.543 53.427,5.532 53.087,5.468 C52.861,5.413 52.558,5.31 52.516,5.041 C52.498,4.783 52.715,4.589 52.92,4.495 C53.135,4.419 53.374,4.382 53.649,4.382 C53.877,4.382 54.102,4.407 54.297,4.431 C54.605,4.438 54.892,4.546 55.106,4.737 L55.129,4.758 L55.157,4.744 C55.259,4.695 55.36,4.65 55.462,4.605 C55.574,4.555 55.691,4.503 55.804,4.447 L55.854,4.422 L55.822,4.377 C55.463,3.884 55.136,3.346 54.826,2.733 C55.151,2.691 55.477,2.623 55.794,2.558 C55.885,2.539 55.975,2.52 56.065,2.502 L56.109,2.493 L56.103,2.449 C56.081,2.294 56.059,2.139 56.038,1.984 L55.995,1.68 L55.941,1.698 C55.482,1.851 55.02,1.968 54.568,2.043 L54.545,2.032 C54.479,1.885 54.427,1.726 54.377,1.574 C54.33,1.432 54.281,1.285 54.222,1.144 L54.208,1.111 L54.172,1.116 C54.093,1.127 54.013,1.137 53.934,1.148 C53.779,1.169 53.618,1.19 53.458,1.216 L53.405,1.225 L53.421,1.276 C53.479,1.461 53.546,1.642 53.611,1.817 C53.652,1.925 53.692,2.034 53.73,2.143 C53.142,2.189 52.564,2.213 52.01,2.213 C51.885,2.213 51.761,2.212 51.636,2.21 L51.583,2.209 L51.601,2.39 C51.62,2.572 51.637,2.745 51.642,2.925 L51.642,2.925 Z M51.642,2.925" class="black"/>
            <path d="M41.678,5.981 C42.044,6.269 42.503,6.275 42.946,6.281 L43.009,6.282 L43.011,6.282 C43.773,6.214 44.428,5.836 44.762,5.27 C44.949,4.983 45.063,4.657 45.174,4.342 C45.212,4.236 45.249,4.131 45.289,4.026 L45.303,3.991 L45.272,3.97 C45.079,3.844 44.886,3.711 44.693,3.579 L44.522,3.462 L44.508,3.531 C44.389,4.104 44.185,4.816 43.671,5.237 C43.425,5.387 43.113,5.461 42.718,5.461 C42.627,5.461 42.531,5.457 42.428,5.449 C42.27,5.365 42.078,5.26 42.03,5.072 C41.937,4.775 41.938,4.461 41.939,4.157 L41.939,4.06 C41.955,3.847 41.954,3.631 41.953,3.422 C41.952,3.197 41.951,2.964 41.972,2.739 C41.987,2.552 41.993,2.364 41.998,2.18 C42.006,1.887 42.015,1.584 42.063,1.29 L42.072,1.235 L41.165,1.235 L41.164,1.281 C41.157,1.645 41.148,2.009 41.139,2.372 C41.12,3.12 41.1,3.893 41.105,4.658 C41.133,5.295 41.326,5.741 41.678,5.981 L41.678,5.981 Z M41.678,5.981" class="black"/>
            <path d="M57.878,5.903 C58.002,5.979 58.15,6.02 58.295,6.02 C58.468,6.02 58.621,5.959 58.729,5.849 C59.143,5.412 59.341,4.84 59.467,4.39 L59.475,4.363 L59.368,4.26 C59.213,4.11 59.052,3.954 58.884,3.814 L58.829,3.769 L58.808,3.836 C58.775,3.944 58.746,4.058 58.719,4.167 C58.639,4.488 58.557,4.819 58.335,5.068 C58.311,5.083 58.287,5.09 58.266,5.09 C58.17,5.09 58.093,4.932 58.047,4.838 L58.04,4.824 C57.823,4.24 57.764,3.6 57.733,2.995 C57.716,2.776 57.728,2.553 57.74,2.337 C57.751,2.121 57.763,1.897 57.747,1.674 L57.744,1.631 L56.887,1.631 L56.887,1.677 C56.879,2.73 56.9,3.846 57.225,4.907 C57.346,5.261 57.498,5.702 57.878,5.903 L57.878,5.903 Z M57.878,5.903" class="black"/>
            <path d="M34.683,2.386 L34.68,2.617 L34.728,2.616 C35.031,2.611 35.333,2.61 35.635,2.61 L36.564,2.611 C36.76,2.611 36.956,2.611 37.151,2.609 L37.197,2.609 L37.197,2.563 C37.197,2.419 37.198,2.276 37.199,2.132 C37.2,1.848 37.202,1.555 37.197,1.268 L37.196,1.222 L34.656,1.222 L34.66,1.273 C34.695,1.646 34.689,2.006 34.683,2.386 L34.683,2.386 Z M34.683,2.386" class="black"/>
            <path d="M35.335,2.08 L35.335,1.797 L35.356,1.797 C35.76,1.792 36.18,1.787 36.522,1.797 L36.522,2.074 C36.125,2.079 35.74,2.08 35.335,2.08 L35.335,2.08 Z M35.335,2.08" class="white" fill="#FFFFFF"/>
            <path d="M50.248,3.097 C50.352,3.153 50.455,3.209 50.558,3.264 L50.6,3.287 L50.622,3.245 C50.666,3.161 50.711,3.077 50.756,2.992 C50.813,2.885 50.87,2.777 50.925,2.671 L50.945,2.633 L50.908,2.61 C50.463,2.324 49.951,2.08 49.249,1.819 L49.212,1.805 L49.192,1.838 C49.146,1.914 49.098,1.99 49.051,2.067 C48.983,2.176 48.914,2.287 48.849,2.399 L48.819,2.451 L48.876,2.468 C49.36,2.612 49.812,2.859 50.248,3.097 L50.248,3.097 Z M50.248,3.097" class="black"/>
            <path d="M59.466,2.594 C59.559,2.729 59.654,2.868 59.737,3.014 C60.153,3.764 60.386,4.581 60.412,5.376 L60.414,5.443 L60.577,5.377 C60.756,5.304 60.925,5.235 61.101,5.175 L61.136,5.163 L61.133,5.126 C61.048,4.111 60.672,3.074 60.012,2.035 C60.003,2.026 59.993,2.013 59.984,2 C59.949,1.952 59.906,1.892 59.838,1.892 C59.814,1.892 59.789,1.9 59.772,1.912 C59.67,1.961 59.575,2.012 59.478,2.062 C59.405,2.101 59.331,2.139 59.256,2.176 L59.21,2.198 L59.236,2.241 C59.308,2.364 59.389,2.481 59.466,2.594 L59.466,2.594 Z M59.466,2.594" class="black"/>
            <path d="M32.592,3.904 C32.707,3.96 32.825,4.017 32.95,4.06 L32.999,4.077 L33.011,4.026 C33.143,3.472 33.197,2.899 33.171,2.323 L33.169,2.281 L33.128,2.278 C32.999,2.268 32.875,2.252 32.744,2.236 L32.609,2.219 L32.608,2.271 C32.596,2.758 32.566,3.279 32.432,3.784 L32.422,3.822 L32.458,3.839 C32.501,3.86 32.547,3.882 32.592,3.904 L32.592,3.904 Z M32.592,3.904" class="black"/>
            <path d="M20.835,6.412 L20.886,6.465 L20.912,6.397 C20.957,6.282 21.005,6.168 21.054,6.055 C21.119,5.903 21.186,5.745 21.245,5.582 C21.504,4.728 21.549,3.844 21.556,3.012 C21.805,3.007 22.057,3.008 22.308,3.012 C22.313,3.309 22.305,3.585 22.282,3.855 L22.278,3.906 L24.728,3.906 L24.727,3.858 C24.724,3.71 24.724,3.562 24.724,3.413 C24.724,3.279 24.724,3.144 24.722,3.008 C24.763,3.008 24.805,3.009 24.846,3.009 L25.192,3.008 C25.359,3.008 25.554,3.01 25.747,3.029 L25.798,3.033 L25.798,2.373 L25.747,2.377 C25.56,2.394 25.372,2.396 25.212,2.396 L24.861,2.395 L24.72,2.395 L24.72,2.082 L25.777,2.082 L25.777,1.438 L25.726,1.44 C25.124,1.463 24.478,1.463 23.663,1.441 C23.663,1.382 23.665,1.324 23.666,1.267 C23.667,1.196 23.669,1.126 23.669,1.058 L23.669,1.011 L22.902,1.011 L22.902,1.058 C22.902,1.183 22.902,1.311 22.907,1.437 C22.664,1.452 22.404,1.459 22.071,1.459 C21.908,1.459 21.746,1.458 21.584,1.456 C21.352,1.455 21.121,1.453 20.889,1.454 L20.841,1.454 L20.843,1.502 C20.882,2.385 20.853,3.311 20.758,4.253 C20.749,4.317 20.741,4.382 20.733,4.447 C20.673,4.92 20.612,5.409 20.361,5.82 L20.344,5.847 L20.364,5.873 C20.516,6.074 20.68,6.251 20.835,6.412 L20.835,6.412 Z M20.835,6.412" class="black"/>
            <path d="M21.589,2.391 L21.589,2.087 C21.828,2.082 22.068,2.082 22.307,2.087 L22.307,2.392 C22.068,2.397 21.827,2.397 21.589,2.391 L21.589,2.391 Z M21.589,2.391" class="white" fill="#FFFFFF"/>
            <path d="M24.025,3.316 C23.852,3.319 23.677,3.321 23.503,3.321 C23.306,3.321 23.14,3.318 22.983,3.311 C22.987,3.209 22.988,3.106 22.988,3.006 C23.098,3.006 23.207,3.007 23.317,3.007 C23.548,3.008 23.781,3.008 24.013,3.006 C24.014,3.028 24.015,3.049 24.017,3.071 C24.021,3.153 24.027,3.236 24.025,3.316 L24.025,3.316 Z M24.025,3.316" class="white" fill="#FFFFFF"/>
            <path d="M22.983,2.387 C22.985,2.331 22.987,2.275 22.988,2.219 C22.989,2.174 22.99,2.128 22.991,2.082 C23.333,2.089 23.673,2.088 24.013,2.082 C24.024,2.198 24.027,2.299 24.024,2.391 C23.847,2.394 23.669,2.397 23.491,2.397 C23.303,2.397 23.136,2.394 22.983,2.387 L22.983,2.387 Z M22.983,2.387" class="white" fill="#FFFFFF"/>
            <path d="M12.583,11.425 C11.625,10.702 10.457,10.392 9.327,10.092 C9.17,10.05 9.012,10.008 8.857,9.965 C8.362,9.827 7.852,9.708 7.359,9.592 C6.981,9.503 6.591,9.411 6.208,9.312 C6.148,9.295 6.088,9.279 6.028,9.262 C5.715,9.177 5.39,9.089 5.111,8.913 C4.888,8.784 4.607,8.56 4.531,8.23 C4.396,7.681 4.43,6.93 4.936,6.465 C5.279,6.101 5.794,5.9 6.554,5.831 C6.765,5.824 6.972,5.817 7.182,5.817 C7.623,5.817 8.2,5.844 8.743,6.053 C9.246,6.222 9.692,6.602 9.965,7.095 C10.141,7.407 10.205,7.774 10.256,8.123 L10.262,8.164 L10.303,8.164 C10.693,8.159 11.083,8.158 11.473,8.158 L12.679,8.159 C12.933,8.159 13.186,8.159 13.44,8.157 L13.49,8.157 L13.487,8.107 C13.425,7.226 13.259,6.508 12.981,5.913 C12.626,5.1 11.967,4.381 11.127,3.892 C10.193,3.316 9.017,3.036 7.53,3.036 C7.468,3.036 7.406,3.036 7.346,3.037 C7.274,3.036 7.202,3.036 7.131,3.036 C6.097,3.036 5.138,3.179 4.278,3.463 C3.196,3.882 2.409,4.466 1.938,5.197 C1.314,6.12 1.07,7.382 1.251,8.749 C1.394,9.808 1.905,10.748 2.656,11.33 C3.24,11.752 3.859,12.05 4.491,12.214 C5.036,12.405 5.609,12.529 6.161,12.649 C6.414,12.704 6.676,12.761 6.931,12.823 C7.155,12.879 7.38,12.931 7.605,12.983 C8.162,13.111 8.737,13.244 9.285,13.443 C9.927,13.658 10.344,13.958 10.558,14.355 C10.918,15.126 10.679,16.117 10.027,16.562 C9.522,16.901 8.866,17.073 8.078,17.073 C8.011,17.073 7.943,17.071 7.873,17.069 C7.814,17.071 7.755,17.072 7.696,17.072 C6.662,17.072 5.791,16.811 5.176,16.32 C4.704,15.928 4.386,15.295 4.281,14.534 L4.276,14.494 L4.235,14.494 C3.876,14.492 3.518,14.491 3.159,14.491 C2.441,14.491 1.722,14.494 1,14.494 L0.949,14.494 L0.953,14.545 C0.997,15.063 1.061,15.615 1.226,16.146 C1.522,17.223 2.229,18.196 3.166,18.814 C4.147,19.462 5.372,19.84 6.808,19.938 C7.086,19.95 7.341,19.957 7.586,19.957 C8.68,19.957 9.603,19.831 10.409,19.573 C11.514,19.219 12.366,18.677 12.94,17.961 C13.772,16.965 14.151,15.502 13.981,13.949 C13.864,12.921 13.354,12.002 12.583,11.425 L12.583,11.425 Z M12.583,11.425" class="black"/>
            <path d="M14.595,5.089 L14.636,5.023 C14.811,4.738 14.953,4.446 15.061,4.153 C15.06,4.416 15.061,4.678 15.062,4.935 C15.064,5.414 15.066,5.909 15.051,6.397 L15.05,6.447 L15.1,6.445 C15.285,6.438 15.478,6.438 15.666,6.438 L15.715,6.438 L15.713,6.389 C15.675,5.488 15.686,4.571 15.703,3.702 C15.732,3.756 15.759,3.813 15.786,3.871 C15.816,3.935 15.847,3.999 15.881,4.061 L15.922,4.135 L15.963,4.061 C16.005,3.986 16.042,3.91 16.078,3.835 C16.082,4.059 16.081,4.283 16.08,4.501 C16.08,4.602 16.079,4.703 16.079,4.805 L16.079,4.852 L16.126,4.852 C16.347,4.852 16.568,4.855 16.791,4.856 C16.992,4.856 17.155,4.853 17.304,4.845 L17.349,4.843 L17.348,4.798 C17.341,4.406 17.342,4.007 17.343,3.622 C17.343,3.351 17.344,3.082 17.343,2.813 C17.417,2.813 17.493,2.812 17.572,2.808 C17.57,3.075 17.553,3.344 17.537,3.604 C17.524,3.817 17.511,4.037 17.505,4.253 C17.502,4.296 17.5,4.339 17.498,4.384 C17.49,4.584 17.48,4.79 17.337,4.93 C17.28,4.948 17.218,4.956 17.143,4.956 C17.078,4.956 17.009,4.95 16.943,4.943 C16.885,4.938 16.827,4.932 16.77,4.93 L16.712,4.93 L16.722,4.987 C16.763,5.222 16.805,5.399 16.855,5.56 L16.865,5.591 C16.676,5.59 16.486,5.59 16.296,5.589 L15.816,5.586 L15.816,5.633 C15.816,5.831 15.816,6.023 15.815,6.223 L15.815,6.281 L15.872,6.269 C16.041,6.232 16.211,6.227 16.355,6.227 C16.471,6.227 16.585,6.231 16.702,6.231 L17.206,6.231 L17.212,6.231 C17.625,6.231 18.037,6.229 18.451,6.229 C18.963,6.229 19.354,6.233 19.718,6.243 L19.766,6.244 L19.766,5.579 L19.718,5.58 C19.19,5.591 18.635,5.596 17.973,5.596 C17.625,5.596 17.277,5.594 16.928,5.592 C17.006,5.587 17.084,5.583 17.161,5.58 C17.336,5.573 17.517,5.565 17.694,5.533 L17.714,5.524 C17.881,5.397 17.96,5.212 18.01,5.025 L18.038,5.071 C18.12,5.206 18.205,5.345 18.294,5.481 L18.322,5.524 L18.363,5.491 C18.521,5.362 18.65,5.204 18.774,5.051 C18.813,5.003 18.853,4.954 18.893,4.906 C19.048,5.093 19.236,5.302 19.465,5.49 L19.507,5.525 L19.643,5.297 C19.703,5.195 19.763,5.094 19.826,4.99 L19.846,4.957 L19.817,4.931 C19.613,4.746 19.4,4.555 19.232,4.32 C19.416,3.89 19.548,3.406 19.661,2.756 L19.663,2.745 L19.659,2.734 C19.632,2.648 19.577,2.578 19.525,2.51 C19.495,2.47 19.466,2.433 19.443,2.394 L19.429,2.37 L19.21,2.374 C19.07,2.377 18.929,2.38 18.788,2.38 C18.6,2.38 18.444,2.375 18.297,2.364 L18.249,2.361 L18.247,2.409 C18.241,2.568 18.245,2.748 18.26,2.962 L18.263,3.012 L18.313,3.005 C18.376,2.995 18.438,3.005 18.503,3.032 C18.483,3.084 18.425,3.115 18.337,3.156 C18.285,3.18 18.231,3.205 18.189,3.241 L18.178,3.251 C18.18,3.204 18.183,3.155 18.185,3.108 C18.197,2.83 18.209,2.543 18.227,2.26 L18.23,2.21 L17.694,2.21 C17.73,2.119 17.772,2.032 17.815,1.941 L17.84,1.888 C17.993,1.888 18.147,1.886 18.3,1.885 C18.462,1.883 18.625,1.882 18.787,1.882 C19.139,1.882 19.409,1.89 19.662,1.909 L19.71,1.912 L19.712,1.863 C19.719,1.671 19.719,1.476 19.719,1.287 L19.719,1.24 L19.673,1.24 C19.315,1.235 18.956,1.233 18.597,1.233 C18.111,1.233 17.625,1.236 17.138,1.236 C16.685,1.236 16.317,1.234 15.982,1.228 L15.934,1.227 L15.934,1.89 L15.982,1.889 C16.214,1.883 16.447,1.883 16.679,1.884 L17.116,1.884 C17.068,1.99 17.015,2.095 16.965,2.197 C16.908,2.312 16.849,2.43 16.796,2.55 C16.575,2.557 16.35,2.561 16.128,2.556 L16.08,2.554 L16.08,2.602 C16.08,2.679 16.08,2.756 16.081,2.832 C16.082,3.007 16.083,3.187 16.078,3.368 C15.906,3.159 15.799,2.91 15.717,2.68 L16.021,2.68 L16.021,2.635 C16.021,2.457 16.021,2.274 16.028,2.089 L16.03,2.04 L15.981,2.04 C15.925,2.04 15.869,2.041 15.812,2.043 C15.771,2.044 15.731,2.045 15.691,2.045 C15.691,1.985 15.691,1.925 15.69,1.865 C15.688,1.589 15.686,1.327 15.711,1.061 L15.716,1.01 L14.998,1.01 L15.003,1.062 C15.029,1.314 15.026,1.578 15.024,1.832 C15.024,1.893 15.023,1.954 15.023,2.014 L14.417,2.014 L14.417,2.742 L14.47,2.735 C14.607,2.716 14.787,2.694 14.969,2.694 L14.981,2.694 C14.921,2.978 14.835,3.266 14.712,3.592 C14.636,3.756 14.544,3.92 14.455,4.077 C14.39,4.193 14.324,4.31 14.264,4.429 L14.253,4.449 L14.262,4.47 C14.357,4.681 14.469,4.877 14.555,5.023 L14.595,5.089 L14.595,5.089 Z M14.595,5.089" class="black"/>
            <path d="M16.615,3.501 C16.616,3.381 16.616,3.261 16.616,3.141 C16.679,3.144 16.744,3.144 16.806,3.141 L16.806,4.272 L16.615,4.272 C16.613,4.015 16.614,3.758 16.615,3.501 L16.615,3.501 Z M16.615,3.501" class="white" fill="#FFFFFF"/>
            <path d="M18.643,3.006 C18.759,3.007 18.876,3.009 18.994,3.011 C18.978,3.085 18.968,3.161 18.957,3.236 C18.938,3.378 18.919,3.514 18.866,3.638 C18.806,3.483 18.752,3.323 18.699,3.167 C18.68,3.114 18.662,3.06 18.643,3.006 L18.643,3.006 Z M18.643,3.006" class="white" fill="#FFFFFF"/>
            <path d="M18.369,3.894 C18.435,4.054 18.498,4.205 18.534,4.362 C18.421,4.533 18.247,4.772 18.03,4.951 C18.048,4.869 18.063,4.788 18.075,4.712 C18.133,4.24 18.157,3.761 18.177,3.291 C18.207,3.502 18.289,3.702 18.369,3.894 L18.369,3.894 Z M18.369,3.894" class="white" fill="#FFFFFF"/>
            <path d="M37.978,5.664 L37.773,5.572 C37.355,5.384 36.923,5.194 36.618,4.86 C36.788,4.858 36.958,4.858 37.128,4.858 L37.131,4.858 C37.336,4.858 37.541,4.858 37.746,4.855 L37.792,4.854 L37.792,4.245 L37.746,4.245 C37.576,4.243 37.407,4.243 37.237,4.243 C36.915,4.243 36.593,4.246 36.272,4.245 C36.278,4.166 36.28,4.09 36.28,4.016 C36.503,4.015 36.726,4.018 36.95,4.018 C37.24,4.018 37.462,4.015 37.668,4.009 L37.713,4.008 L37.713,2.72 L37.666,2.72 C37.124,2.726 36.584,2.726 36.042,2.72 L35.995,2.72 L35.995,2.767 C35.995,2.895 35.995,3.022 35.994,3.149 C35.993,3.387 35.992,3.623 35.995,3.859 C35.941,3.862 35.888,3.863 35.837,3.866 C35.829,3.602 35.83,3.334 35.832,3.074 C35.832,2.972 35.833,2.869 35.833,2.767 L35.833,2.722 L35.787,2.722 C35.624,2.719 35.464,2.722 35.304,2.726 C35.184,2.728 35.064,2.731 34.945,2.731 C34.732,2.731 34.563,2.723 34.406,2.704 C34.448,2.629 34.5,2.559 34.56,2.48 L34.583,2.45 L34.559,2.421 C34.523,2.378 34.488,2.334 34.453,2.291 C34.382,2.203 34.308,2.111 34.226,2.029 L34.175,1.978 L34.149,2.046 C34.095,2.186 34.018,2.312 33.921,2.416 L33.919,2.305 C33.912,1.936 33.904,1.555 33.942,1.182 L33.947,1.132 L33.897,1.131 C33.686,1.124 33.483,1.124 33.269,1.124 L33.219,1.124 L33.222,1.174 C33.257,1.719 33.242,2.277 33.227,2.816 C33.223,2.99 33.218,3.163 33.215,3.335 L33.209,3.455 C33.186,3.905 33.163,4.371 33.012,4.81 C32.913,5.158 32.7,5.467 32.494,5.765 L32.404,5.896 L32.428,5.924 C32.521,6.029 32.614,6.13 32.708,6.232 C32.755,6.283 32.803,6.334 32.851,6.387 L32.888,6.427 L32.923,6.385 C33.25,5.981 33.49,5.515 33.62,5.033 C33.764,5.232 33.932,5.417 34.111,5.572 L34.153,5.608 L34.182,5.562 C34.249,5.453 34.317,5.339 34.385,5.225 L34.497,5.036 L34.47,5.006 C34.448,4.981 34.425,4.954 34.401,4.926 C34.388,4.91 34.375,4.894 34.36,4.878 C34.5,4.857 34.637,4.853 34.746,4.853 C34.811,4.853 34.877,4.854 34.942,4.855 C35.038,4.857 35.135,4.859 35.231,4.857 C34.92,5.223 34.482,5.524 33.929,5.752 L33.89,5.769 L33.904,5.811 C33.953,5.956 34.038,6.082 34.121,6.203 C34.141,6.232 34.161,6.262 34.18,6.291 L34.204,6.328 L34.243,6.306 C34.318,6.262 34.394,6.219 34.469,6.176 C34.663,6.066 34.864,5.951 35.055,5.819 C35.242,5.662 35.415,5.487 35.576,5.318 C35.586,5.695 35.585,6.065 35.573,6.443 L35.572,6.491 L36.269,6.491 L36.268,6.443 C36.261,6.2 36.262,5.949 36.263,5.707 C36.263,5.568 36.264,5.428 36.263,5.289 C36.666,5.729 37.166,6.052 37.565,6.288 L37.606,6.312 L37.63,6.27 C37.688,6.167 37.749,6.063 37.809,5.958 C37.857,5.875 37.906,5.791 37.953,5.709 L37.978,5.664 L37.978,5.664 Z M37.978,5.664" class="black"/>
            <path d="M34.794,3.532 C34.794,3.48 34.796,3.428 34.797,3.377 C34.798,3.324 34.8,3.272 34.8,3.218 C34.953,3.222 35.108,3.223 35.266,3.218 C35.262,3.323 35.262,3.427 35.266,3.532 L34.794,3.532 L34.794,3.532 Z M34.794,3.532" class="white" fill="#FFFFFF"/>
            <path d="M35.578,4.048 C35.577,4.117 35.573,4.183 35.568,4.244 C35.479,4.242 35.389,4.241 35.3,4.241 C35.104,4.241 34.907,4.244 34.712,4.244 C34.504,4.244 34.345,4.24 34.195,4.232 L34.146,4.229 L34.146,4.279 C34.146,4.41 34.146,4.546 34.143,4.68 C34.019,4.543 33.914,4.395 33.832,4.24 C33.832,3.873 33.861,3.524 33.89,3.229 C33.95,3.129 34.037,3.053 34.13,2.972 C34.155,2.951 34.18,2.929 34.205,2.906 C34.213,3.126 34.212,3.347 34.212,3.562 C34.212,3.708 34.212,3.855 34.213,4.002 L34.213,4.048 L35.578,4.048 L35.578,4.048 Z M35.578,4.048" class="white" fill="#FFFFFF"/>
            <path d="M36.552,3.237 C36.642,3.224 36.744,3.218 36.868,3.218 C36.941,3.218 37.014,3.22 37.087,3.222 C37.109,3.281 37.106,3.349 37.102,3.422 C37.1,3.457 37.098,3.492 37.099,3.527 C36.914,3.532 36.736,3.532 36.553,3.527 C36.556,3.43 36.556,3.333 36.552,3.237 L36.552,3.237 Z M36.552,3.237" class="white" fill="#FFFFFF"/>
            <path d="M26.838,2.214 C27.051,2.215 27.265,2.216 27.478,2.214 L27.478,2.484 C27.211,2.489 26.953,2.489 26.68,2.489 L26.632,2.489 L26.633,2.537 C26.654,3.22 26.654,3.912 26.633,4.595 L26.632,4.643 L27.476,4.643 C27.473,4.755 27.473,4.863 27.476,4.971 C27.429,4.97 27.381,4.97 27.333,4.97 L27.023,4.971 C26.876,4.971 26.703,4.969 26.532,4.951 L26.482,4.946 L26.481,4.996 C26.48,5.048 26.477,5.1 26.475,5.152 C26.469,5.291 26.463,5.434 26.468,5.58 L26.47,5.633 L26.522,5.625 C26.791,5.583 27.062,5.579 27.317,5.579 L27.477,5.579 L27.477,5.78 C27.478,5.994 27.479,6.197 27.446,6.403 L27.438,6.457 L28.183,6.457 L28.165,6.396 C28.098,6.173 28.102,5.935 28.105,5.705 C28.106,5.664 28.106,5.624 28.107,5.584 L28.153,5.583 C28.243,5.581 28.333,5.58 28.423,5.58 C28.581,5.58 28.789,5.585 28.996,5.624 L29.052,5.635 L29.052,4.954 L29.002,4.957 C28.856,4.967 28.709,4.969 28.572,4.969 L28.341,4.969 C28.279,4.969 28.217,4.969 28.155,4.97 C28.157,4.893 28.156,4.818 28.155,4.744 C28.155,4.715 28.154,4.685 28.154,4.655 C28.396,4.66 28.636,4.655 28.872,4.661 L28.92,4.662 L28.92,3.095 C28.949,3.122 28.978,3.15 29.007,3.177 C29.047,3.215 29.086,3.252 29.126,3.288 L29.153,3.313 L29.184,3.292 C29.213,3.272 29.241,3.251 29.269,3.23 C29.272,3.228 29.275,3.225 29.278,3.223 C29.275,3.318 29.275,3.412 29.275,3.504 L29.275,3.556 L29.326,3.551 C29.534,3.531 29.74,3.529 29.895,3.529 C29.987,3.529 30.078,3.53 30.169,3.531 C30.282,3.532 30.397,3.532 30.506,3.533 C30.374,3.699 30.22,3.851 30.07,3.999 C29.803,4.263 29.528,4.536 29.365,4.891 L29.345,4.933 C29.192,5.257 29.018,5.625 29.17,5.994 C29.365,6.282 29.722,6.306 30.071,6.306 L30.194,6.306 C30.306,6.3 30.421,6.305 30.536,6.308 C30.612,6.31 30.689,6.313 30.765,6.313 C30.99,6.313 31.25,6.293 31.491,6.143 C31.765,5.905 31.808,5.522 31.846,5.185 C31.851,5.139 31.856,5.094 31.862,5.05 L31.865,5.027 L31.849,5.01 C31.746,4.909 31.603,4.866 31.464,4.824 C31.384,4.8 31.301,4.775 31.229,4.739 L31.158,4.703 L31.164,4.834 C31.177,5.096 31.19,5.366 31.045,5.563 C30.887,5.646 30.702,5.65 30.485,5.645 C30.429,5.644 30.37,5.644 30.317,5.645 L30.28,5.645 C30.095,5.645 29.923,5.633 29.847,5.498 C29.857,5.471 29.866,5.443 29.875,5.415 C29.905,5.323 29.933,5.235 29.988,5.157 C30.471,4.438 31.098,3.824 31.591,3.369 L31.624,3.338 L31.595,3.304 C31.551,3.252 31.509,3.199 31.467,3.145 C31.403,3.062 31.336,2.978 31.262,2.9 L31.252,2.892 C31.175,2.848 31.099,2.853 31.027,2.854 C30.992,2.854 30.964,2.856 30.917,2.852 C30.772,2.856 30.627,2.857 30.482,2.857 L30.043,2.856 C29.904,2.856 29.743,2.856 29.576,2.861 C29.668,2.734 29.757,2.591 29.858,2.411 C29.952,2.411 30.046,2.412 30.139,2.412 L30.785,2.411 C31.08,2.411 31.429,2.413 31.775,2.431 L31.824,2.433 L31.824,1.734 L31.775,1.736 C31.537,1.747 31.298,1.749 31.095,1.749 L30.674,1.748 C30.519,1.748 30.339,1.749 30.152,1.755 C30.186,1.64 30.217,1.526 30.249,1.413 C30.27,1.337 30.29,1.263 30.311,1.188 L30.326,1.137 L30.274,1.129 C30.175,1.114 30.075,1.1 29.975,1.086 C29.861,1.07 29.746,1.054 29.634,1.036 L29.589,1.03 L29.579,1.072 C29.422,1.704 29.207,2.199 28.925,2.582 C28.925,2.581 28.924,2.58 28.924,2.579 C28.913,2.556 28.902,2.533 28.892,2.517 L28.879,2.497 L28.856,2.495 C28.747,2.487 28.638,2.486 28.555,2.486 L28.305,2.487 C28.246,2.487 28.187,2.487 28.129,2.485 C28.129,2.44 28.13,2.394 28.132,2.349 C28.133,2.304 28.134,2.26 28.135,2.216 C28.194,2.217 28.253,2.218 28.312,2.218 C28.437,2.218 28.563,2.216 28.69,2.215 C28.832,2.215 28.94,2.219 29.041,2.227 L29.092,2.231 L29.092,2.18 C29.092,2.108 29.094,2.035 29.096,1.962 C29.099,1.855 29.102,1.744 29.098,1.637 L29.097,1.589 L29.049,1.592 C28.903,1.601 28.75,1.605 28.566,1.605 C28.42,1.605 28.274,1.603 28.128,1.6 C28.129,1.413 28.138,1.246 28.153,1.088 L28.158,1.036 L27.429,1.036 L27.439,1.091 C27.47,1.26 27.477,1.433 27.478,1.584 C27.319,1.586 27.161,1.588 27.001,1.587 C26.799,1.587 26.644,1.582 26.499,1.571 L26.449,1.567 L26.449,2.213 L26.496,2.213 C26.61,2.213 26.724,2.214 26.838,2.214 L26.838,2.214 Z M26.838,2.214" class="black"/>
            <path d="M27.306,3.277 L27.306,3.064 C27.438,3.06 27.58,3.057 27.758,3.057 C27.932,3.057 28.106,3.059 28.282,3.059 L28.282,3.276 L28.277,3.276 C27.941,3.281 27.59,3.286 27.306,3.277 L27.306,3.277 Z M27.306,3.277" class="white" fill="#FFFFFF"/>
            <path d="M28.282,3.843 L28.282,4.062 L27.816,4.063 C27.675,4.063 27.494,4.062 27.306,4.056 L27.306,3.842 C27.591,3.834 27.941,3.838 28.275,3.842 L28.282,3.843 L28.282,3.843 Z M28.282,3.843" class="white" fill="#FFFFFF"/>
            <path d="M25.709,5.726 C25.115,5.726 24.605,5.648 24.154,5.488 C24.227,5.42 24.31,5.363 24.398,5.302 C24.468,5.253 24.541,5.203 24.607,5.147 C24.746,5.035 24.859,4.896 24.97,4.762 C25.031,4.688 25.094,4.611 25.16,4.541 L25.19,4.509 L25.16,4.477 C25.109,4.423 25.059,4.366 25.01,4.31 C24.964,4.257 24.917,4.205 24.869,4.154 L24.853,4.137 L24.83,4.139 C24.662,4.156 24.49,4.158 24.345,4.158 L24.024,4.157 C23.966,4.157 23.908,4.157 23.852,4.158 C23.596,4.154 23.339,4.156 23.081,4.159 C22.924,4.161 22.768,4.163 22.611,4.163 C22.261,4.163 21.992,4.153 21.741,4.132 L21.69,4.128 L21.69,4.741 L22.111,4.741 C22.353,5.036 22.568,5.282 22.812,5.506 C22.326,5.701 21.796,5.746 21.293,5.765 L21.23,5.767 L21.252,5.828 C21.31,5.984 21.364,6.147 21.416,6.304 L21.47,6.465 L21.509,6.459 C22.07,6.372 22.797,6.23 23.462,5.897 C23.976,6.172 24.554,6.28 25.113,6.383 C25.256,6.409 25.398,6.436 25.539,6.465 L25.578,6.473 L25.592,6.435 C25.669,6.229 25.751,6.008 25.823,5.787 L25.844,5.725 L25.709,5.726 L25.709,5.726 Z M25.709,5.726" class="black"/>
            <path d="M23.517,5.201 C23.305,5.064 23.086,4.923 22.937,4.722 C23.064,4.722 23.19,4.723 23.316,4.723 C23.585,4.725 23.851,4.726 24.118,4.723 L24.103,4.737 C23.921,4.902 23.732,5.072 23.517,5.201 L23.517,5.201 Z M23.517,5.201" class="white" fill="#FFFFFF"/>
            <path d="M50.553,6.055 L50.582,5.999 C50.702,5.771 50.808,5.552 50.894,5.348 L50.908,5.317 L50.883,5.295 C50.625,5.069 50.346,4.837 50.023,4.686 C49.977,4.65 49.921,4.624 49.867,4.598 C49.739,4.538 49.66,4.496 49.664,4.384 C49.661,4.296 49.657,4.208 49.652,4.119 C49.635,3.785 49.618,3.439 49.695,3.109 L49.711,3.042 L49.643,3.052 C49.576,3.063 49.479,3.06 49.384,3.053 C49.333,3.05 49.281,3.047 49.231,3.047 C49.112,3.047 49.025,3.064 48.949,3.102 L48.928,3.112 L48.924,3.135 C48.87,3.413 48.876,3.695 48.882,3.967 C48.884,4.086 48.887,4.208 48.884,4.328 L48.796,4.321 C48.649,4.31 48.496,4.298 48.344,4.298 C48.104,4.298 47.751,4.324 47.464,4.55 C47.211,4.728 47.069,5.057 47.097,5.408 C47.123,5.754 47.303,6.041 47.574,6.174 C47.801,6.306 48.068,6.373 48.367,6.373 C48.608,6.373 48.863,6.33 49.129,6.243 C49.553,6.054 49.652,5.583 49.674,5.324 C49.999,5.526 50.278,5.783 50.51,6.011 L50.553,6.055 L50.553,6.055 Z M50.553,6.055" class="black"/>
            <path d="M47.854,5.288 C47.882,5.142 47.992,5.016 48.115,4.985 C48.198,4.965 48.284,4.956 48.379,4.956 C48.561,4.956 48.743,4.993 48.901,5.031 C48.93,5.235 48.887,5.551 48.645,5.626 C48.589,5.626 48.532,5.629 48.473,5.633 C48.413,5.637 48.352,5.64 48.291,5.64 C48.143,5.64 48.037,5.618 47.953,5.569 C47.867,5.508 47.831,5.406 47.854,5.288 L47.854,5.288 Z M47.854,5.288" class="white" fill="#FFFFFF"/>
            <path d="M56.649,10.606 L56.65,10.561 C56.672,9.832 56.667,9.088 56.661,8.368 C56.659,8.037 56.656,7.707 56.656,7.376 L56.656,7.332 L56.613,7.329 C56.42,7.314 56.248,7.307 56.09,7.307 C55.704,7.307 55.373,7.352 55.079,7.443 C54.176,7.681 53.532,8.388 53.151,8.939 C53.076,9.042 53.011,9.152 52.95,9.259 C52.905,9.338 52.859,9.419 52.807,9.496 C52.792,9.128 52.795,8.755 52.798,8.393 C52.801,8.16 52.803,7.926 52.8,7.692 L52.8,7.647 L52.754,7.647 C52.347,7.642 51.913,7.639 51.351,7.639 C50.847,7.639 50.345,7.641 49.841,7.641 L49.794,7.641 L49.794,7.688 C49.794,8.995 49.793,10.302 49.792,11.61 C49.791,14.181 49.789,16.839 49.794,19.455 L49.794,19.502 L53.018,19.502 L53.018,13.038 C53.026,12.175 53.364,11.421 53.922,11.023 C54.503,10.635 55.205,10.603 55.818,10.603 C55.936,10.603 56.053,10.604 56.171,10.606 C56.286,10.607 56.402,10.609 56.516,10.609 L56.649,10.606 L56.649,10.606 Z M56.649,10.606" class="black"/>
            <path d="M75.336,7.333 L75.294,7.329 C75.133,7.313 74.972,7.305 74.815,7.305 C74.206,7.305 73.336,7.429 72.657,8.019 C72.162,8.407 71.817,8.92 71.467,9.503 C71.467,9.34 71.468,9.177 71.469,9.013 C71.47,8.577 71.472,8.127 71.467,7.686 L71.467,7.64 L71.42,7.64 C71.01,7.642 70.601,7.641 70.191,7.641 C69.629,7.64 69.069,7.638 68.507,7.646 L68.461,7.646 L68.461,7.692 C68.466,10.302 68.464,12.959 68.463,15.528 C68.462,16.834 68.461,18.14 68.461,19.445 L68.461,19.491 L68.507,19.492 C69.028,19.498 69.554,19.502 70.073,19.502 C70.592,19.502 71.119,19.498 71.638,19.492 L71.684,19.491 L71.684,13.363 C71.676,12.8 71.738,12.358 71.879,11.975 C72.001,11.661 72.295,11.097 72.884,10.852 C73.394,10.63 73.957,10.6 74.49,10.6 C74.605,10.6 74.721,10.601 74.837,10.603 C74.953,10.605 75.066,10.606 75.181,10.606 L75.327,10.605 L75.328,10.559 C75.339,9.761 75.337,8.953 75.336,8.172 C75.335,7.906 75.335,7.641 75.335,7.375 L75.336,7.333 L75.336,7.333 Z M75.336,7.333" class="black"/>
            <path d="M23.478,7.637 C22.867,7.637 22.398,7.639 21.957,7.645 L21.911,7.645 L21.911,7.691 C21.915,9.245 21.913,10.799 21.912,12.353 C21.911,13.13 21.911,13.907 21.911,14.683 C21.903,15.379 21.74,15.901 21.412,16.28 C21.023,16.799 20.334,17.108 19.569,17.108 C19.545,17.108 19.52,17.108 19.494,17.107 L19.467,17.107 C19.194,17.107 18.52,17.053 18.165,16.551 C17.85,16.121 17.798,15.578 17.771,15.015 L17.771,7.64 L14.535,7.64 L14.535,15.942 C14.559,17.129 14.854,18.055 15.41,18.698 C15.96,19.362 16.748,19.634 17.311,19.744 C17.613,19.811 17.919,19.817 18.183,19.817 L18.483,19.816 C18.534,19.816 18.585,19.816 18.635,19.817 L18.636,19.817 C19.83,19.817 21.006,19.296 21.781,18.421 L21.814,18.385 C21.865,18.329 21.918,18.272 21.973,18.22 C21.98,18.523 21.979,18.829 21.978,19.127 L21.978,19.491 L22.024,19.492 C22.613,19.499 23.195,19.5 23.635,19.5 L25.169,19.499 L25.169,7.639 L25.122,7.639 C24.573,7.639 24.024,7.637 23.478,7.637 L23.478,7.637 Z M23.478,7.637" class="black"/>
            <path d="M87.251,7.64 L87.186,7.64 C86.618,7.64 86.049,7.638 85.481,7.638 C84.846,7.638 84.357,7.64 83.897,7.646 L83.862,7.646 L83.853,7.68 C83.389,9.358 82.899,11.059 82.425,12.704 C82.249,13.316 82.072,13.929 81.898,14.54 C81.837,14.732 81.785,14.931 81.734,15.122 C81.656,15.413 81.576,15.712 81.469,15.999 C81.1,14.733 80.728,13.469 80.356,12.204 C79.919,10.721 79.468,9.187 79.03,7.674 L79.02,7.64 L75.473,7.64 L75.495,7.702 C76.241,9.82 76.992,11.936 77.743,14.052 C78.405,15.919 79.067,17.786 79.725,19.649 C79.893,20.281 79.674,21.123 79.016,21.437 C78.689,21.607 78.336,21.63 78.034,21.63 C77.905,21.63 77.776,21.625 77.647,21.62 C77.519,21.615 77.392,21.61 77.267,21.61 L77.233,21.61 L77.222,21.642 C77.216,21.661 77.209,21.687 77.201,21.714 C77.192,21.745 77.183,21.778 77.177,21.799 L77.174,21.815 C77.174,22.08 77.175,22.343 77.176,22.606 C77.177,23.123 77.179,23.657 77.174,24.185 L77.174,24.23 L77.219,24.232 C77.41,24.239 77.606,24.255 77.794,24.272 C78.038,24.293 78.29,24.316 78.539,24.316 C78.71,24.316 78.864,24.305 79.009,24.285 C79.139,24.271 79.269,24.262 79.399,24.252 C79.634,24.234 79.878,24.216 80.119,24.172 C80.704,24.017 81.215,23.692 81.557,23.258 C82.024,22.644 82.293,21.93 82.475,21.377 C82.934,20.059 83.393,18.739 83.852,17.421 C84.961,14.236 86.108,10.943 87.229,7.702 L87.251,7.64 L87.251,7.64 Z M87.251,7.64" class="black"/>
            <path d="M46.792,8.176 C45.781,7.422 44.531,7.245 43.662,7.229 C43.574,7.226 43.486,7.225 43.397,7.225 C42.091,7.225 40.958,7.552 40.12,8.168 C39.258,8.771 38.591,9.685 38.241,10.74 C37.775,12.111 37.68,13.669 37.968,15.247 C38.19,16.439 38.687,17.486 39.405,18.273 C40.14,19.09 41.193,19.644 42.37,19.833 C42.627,19.877 42.907,19.896 43.275,19.896 C43.421,19.896 43.567,19.893 43.713,19.89 L43.925,19.886 C45.226,19.793 46.406,19.338 47.247,18.607 C48.044,17.917 48.631,16.956 48.9,15.903 L48.915,15.844 L45.695,15.844 L45.682,15.87 C45.52,16.201 45.346,16.451 45.15,16.635 C44.804,16.965 44.278,17.147 43.668,17.147 C43.621,17.147 43.574,17.146 43.522,17.144 C42.865,17.186 42.222,16.92 41.824,16.454 C41.322,15.885 41.202,15.089 41.158,14.445 L46.201,14.444 C47.135,14.444 48.067,14.445 49,14.447 L49.046,14.447 L49.047,14.401 C49.077,13.187 49.042,11.772 48.549,10.482 C48.213,9.566 47.588,8.747 46.792,8.176 L46.792,8.176 Z M46.792,8.176" class="black"/>
            <path d="M43.323,9.955 C43.369,9.955 43.415,9.956 43.464,9.959 L43.523,9.959 C44.239,9.959 44.843,10.21 45.183,10.649 C45.504,11.036 45.68,11.568 45.718,12.276 C45.081,12.281 44.403,12.283 43.526,12.283 C42.738,12.283 41.951,12.281 41.163,12.281 C41.233,11.527 41.461,10.947 41.84,10.557 C42.175,10.175 42.716,9.955 43.323,9.955 L43.323,9.955 Z M43.323,9.955" class="white" fill="#FFFFFF"/>
            <path d="M35.898,8.918 C35.162,7.997 34.065,7.386 32.961,7.282 C32.755,7.265 32.557,7.257 32.371,7.257 C31.498,7.257 30.807,7.436 30.259,7.803 C29.726,8.122 29.316,8.596 28.915,9.104 C28.912,8.804 28.913,8.499 28.915,8.202 C28.916,8.03 28.917,7.857 28.917,7.686 L28.917,7.639 L25.839,7.639 L25.839,7.686 C25.839,9.11 25.839,10.535 25.838,11.959 C25.837,15.963 25.836,20.103 25.845,24.172 L25.845,24.219 L28.989,24.219 L28.989,24.172 C29.001,22.936 28.999,21.677 28.996,20.459 C28.995,19.688 28.993,18.915 28.995,18.145 C29.19,18.437 29.412,18.697 29.655,18.916 C30.311,19.549 31.257,19.897 32.318,19.897 C32.38,19.897 32.441,19.895 32.499,19.893 C32.526,19.894 32.553,19.894 32.579,19.894 L32.579,19.894 C33.27,19.894 33.994,19.675 34.73,19.245 C35.764,18.605 36.562,17.464 36.975,16.03 C37.368,14.62 37.42,13.117 37.128,11.683 C36.871,10.514 36.468,9.61 35.898,8.918 L35.898,8.918 Z M35.898,8.918" class="black"/>
            <path d="M31.396,17.085 C30.681,17.085 29.962,16.683 29.564,16.06 C29.018,15.196 28.974,14.131 28.997,13.301 C29.031,12.565 29.14,11.622 29.68,10.865 C29.997,10.456 30.461,10.171 30.951,10.084 C31.149,10.054 31.344,10.038 31.531,10.038 C32.089,10.038 32.56,10.173 32.931,10.439 C33.474,10.835 33.833,11.515 33.995,12.462 C34.194,13.702 34.085,14.842 33.681,15.763 C33.337,16.543 32.509,17.088 31.668,17.088 C31.617,17.088 31.566,17.086 31.516,17.082 L31.513,17.082 L31.51,17.082 C31.471,17.084 31.434,17.085 31.396,17.085 L31.396,17.085 Z M31.396,17.085" class="white" fill="#FFFFFF"/>
            <path d="M67.874,3.5 L67.874,3.453 L67.827,3.453 C67.488,3.453 67.148,3.452 66.809,3.452 C66.13,3.45 65.452,3.449 64.775,3.453 L64.728,3.453 L64.728,3.5 C64.723,4.746 64.725,6.012 64.726,7.237 C64.727,7.816 64.728,8.395 64.728,8.973 C64.692,8.93 64.657,8.887 64.621,8.844 C64.583,8.798 64.546,8.751 64.508,8.707 C63.88,7.923 62.956,7.409 61.974,7.296 C61.712,7.272 61.475,7.26 61.249,7.26 C60.717,7.26 60.26,7.326 59.852,7.463 C59.461,7.577 59.121,7.78 58.775,7.998 C57.893,8.603 57.218,9.584 56.769,10.916 C56.38,12.218 56.271,13.576 56.452,14.842 C56.555,15.648 56.741,16.337 57.022,16.949 C57.547,18.174 58.415,19.083 59.46,19.507 C59.983,19.77 60.598,19.903 61.288,19.903 C61.521,19.903 61.767,19.887 62.017,19.857 C62.921,19.73 63.777,19.252 64.361,18.548 C64.45,18.459 64.524,18.356 64.595,18.256 C64.655,18.171 64.712,18.091 64.778,18.019 C64.78,18.24 64.78,18.46 64.78,18.68 C64.78,18.938 64.78,19.196 64.783,19.454 L64.784,19.5 L67.875,19.5 L67.875,19.453 C67.88,15.91 67.878,12.304 67.877,8.816 C67.875,7.044 67.874,5.271 67.874,3.5 L67.874,3.5 Z M67.874,3.5" class="black"/>
            <path d="M64.625,14.743 C64.479,15.539 64.224,16.096 63.824,16.495 C63.438,16.894 62.886,17.123 62.308,17.123 C62.278,17.123 62.247,17.122 62.212,17.121 C61.508,17.154 60.83,16.862 60.42,16.352 C59.736,15.557 59.637,14.416 59.62,13.627 C59.595,12.406 59.857,11.462 60.402,10.819 C60.756,10.402 61.224,10.138 61.718,10.075 C61.853,10.058 61.989,10.049 62.123,10.049 C62.757,10.049 63.324,10.246 63.721,10.605 C64.272,11.11 64.505,11.778 64.604,12.25 C64.767,13.023 64.773,13.862 64.625,14.743 L64.625,14.743 Z M64.625,14.743" class="white" fill="#FFFFFF"/>
            <path d="M88.481,16.97 L85.8,16.97 L85.799,17.016 C85.786,17.878 85.786,18.754 85.799,19.62 L85.8,19.666 L88.481,19.666 L88.482,19.62 C88.496,18.755 88.496,17.879 88.482,17.016 L88.481,16.97 L88.481,16.97 Z M88.481,16.97" class="black"/>
        </g>
    </g>
</svg>