<?xml version="1.0" encoding="utf-8"?>
<!-- Generator: Adobe Illustrator 16.0.0, SVG Export Plug-In . SVG Version: 6.00 Build 0)  -->
<!DOCTYPE svg PUBLIC "-//W3C//DTD SVG 1.1//EN" "http://www.w3.org/Graphics/SVG/1.1/DTD/svg11.dtd">
<svg version="1.1" id="Layer_1" xmlns="http://www.w3.org/2000/svg" xmlns:xlink="http://www.w3.org/1999/xlink" x="0px" y="0px"
	 width="89px" height="25px" viewBox="0 0 89 25" enable-background="new 0 0 89 25" xml:space="preserve">
<title>superdry</title>
<g id="Page_1">
	<g id="superdry">
		<path d="M39.832,6.385l0.022,0.001c0.187,0.008,0.382,0.008,0.57,0.008h0.08l-0.039-0.07c-0.431-0.779-0.671-1.479-0.734-2.142
			c-0.122-1.022,0.138-2.14,0.733-3.147l0.042-0.071h-0.082c-0.055,0-0.111-0.003-0.167-0.005c-0.057-0.003-0.114-0.006-0.171-0.006
			c-0.097,0-0.176,0.008-0.248,0.026l-0.016,0.004l-0.01,0.013c-0.695,0.911-1.047,1.93-0.993,2.87
			c0.047,0.819,0.383,1.661,0.999,2.501L39.832,6.385L39.832,6.385z"/>
		<path d="M61.622,1.273c0.071,0.14,0.146,0.285,0.213,0.431c0.493,1.096,0.556,2.371,0.17,3.498
			c-0.098,0.309-0.243,0.604-0.384,0.888c-0.039,0.079-0.078,0.157-0.115,0.235l-0.031,0.067h0.687l0.014-0.02
			c0.644-0.912,0.983-1.803,1.013-2.649c0-0.875-0.338-1.799-1.006-2.748l-0.015-0.02h-0.024c-0.207,0-0.404,0-0.603,0.007
			l-0.072,0.002L61.5,1.029C61.539,1.113,61.58,1.193,61.622,1.273L61.622,1.273z"/>
		<path d="M45.977,5.359c0.104,0.062,0.209,0.124,0.313,0.188l0.045,0.028l0.022-0.049c0.092-0.206,0.187-0.412,0.281-0.618
			c0.314-0.679,0.641-1.382,0.842-2.118c0.098-0.012,0.195-0.022,0.295-0.033c0.271-0.03,0.555-0.061,0.824-0.108l0.039-0.007v-0.04
			c0-0.111-0.005-0.223-0.01-0.334c-0.005-0.11-0.01-0.219-0.01-0.327V1.885l-0.057,0.011c-0.31,0.061-0.59,0.107-0.855,0.143
			c0.053-0.254,0.117-0.502,0.186-0.763l0.033-0.128L47.87,1.144c-0.129-0.01-0.257-0.023-0.384-0.037S47.234,1.08,47.105,1.07
			l-0.051-0.004v0.051c0,0.211-0.051,0.421-0.1,0.625c-0.025,0.108-0.053,0.221-0.072,0.333c-0.133,0.004-0.273,0.006-0.431,0.006
			c-0.209,0-0.418-0.003-0.624-0.007l-0.049-0.001v0.736h0.048c0.104,0,0.206,0.001,0.308,0.001c0.186,0.002,0.368,0.002,0.555,0
			c-0.219,0.732-0.571,1.475-1.08,2.27l-0.026,0.04l0.04,0.025C45.74,5.219,45.857,5.289,45.977,5.359L45.977,5.359z"/>
		<path d="M51.643,2.925v0.042l0.041,0.004c0.144,0.014,0.291,0.021,0.449,0.021c0.35,0,0.701-0.034,1.042-0.067
			c0.284-0.027,0.578-0.056,0.869-0.064c0.157,0.338,0.354,0.649,0.563,0.961c-0.166-0.014-0.338-0.039-0.504-0.063
			c-0.256-0.038-0.521-0.077-0.778-0.077c-0.308,0-0.567,0.057-0.796,0.171c-0.299,0.12-0.553,0.369-0.758,0.747
			c-0.199,0.544,0.037,1.174,0.523,1.405c0.289,0.145,0.602,0.278,0.938,0.278c0.022,0,0.047,0,0.064-0.002
			c0.176,0.008,0.332,0.013,0.482,0.013c0.613,0,1.109-0.07,1.566-0.223c0.022-0.011,0.053-0.019,0.081-0.026
			c0.068-0.017,0.146-0.037,0.193-0.108l0.01-0.013l-0.001-0.017c-0.009-0.16-0.036-0.317-0.062-0.471
			c-0.014-0.08-0.026-0.159-0.037-0.24L55.52,5.13l-0.056,0.03c-0.327,0.169-0.7,0.23-1.062,0.289
			c-0.098,0.016-0.194,0.032-0.289,0.05c-0.332,0.044-0.687,0.033-1.026-0.031c-0.226-0.055-0.528-0.158-0.571-0.427
			c-0.018-0.258,0.199-0.452,0.404-0.546c0.215-0.076,0.454-0.113,0.729-0.113c0.229,0,0.453,0.025,0.648,0.049
			c0.309,0.007,0.596,0.115,0.809,0.306l0.023,0.021l0.028-0.014c0.102-0.049,0.202-0.094,0.305-0.139
			c0.112-0.05,0.229-0.102,0.343-0.158l0.049-0.025l-0.031-0.045c-0.359-0.493-0.686-1.031-0.996-1.644
			c0.324-0.042,0.65-0.11,0.968-0.175c0.091-0.019,0.181-0.038,0.271-0.056l0.045-0.009l-0.006-0.044
			c-0.022-0.155-0.045-0.31-0.065-0.465L55.995,1.68l-0.054,0.018c-0.459,0.153-0.922,0.27-1.373,0.345l-0.023-0.011
			c-0.066-0.147-0.118-0.306-0.168-0.458c-0.047-0.142-0.096-0.289-0.154-0.43l-0.015-0.033l-0.036,0.005
			c-0.079,0.011-0.158,0.021-0.238,0.032c-0.154,0.021-0.315,0.042-0.476,0.068l-0.054,0.009l0.017,0.051
			c0.058,0.185,0.125,0.366,0.19,0.541c0.041,0.108,0.08,0.217,0.119,0.326c-0.588,0.046-1.166,0.07-1.721,0.07
			c-0.125,0-0.248-0.001-0.373-0.003l-0.054-0.001l0.019,0.181C51.62,2.572,51.637,2.745,51.643,2.925L51.643,2.925z"/>
		<path d="M41.678,5.981c0.366,0.288,0.825,0.294,1.268,0.3l0.063,0.001h0.002c0.762-0.068,1.417-0.446,1.751-1.012
			c0.187-0.287,0.3-0.613,0.412-0.928c0.038-0.106,0.075-0.211,0.115-0.316l0.014-0.035L45.271,3.97
			c-0.192-0.126-0.385-0.259-0.579-0.391l-0.171-0.117l-0.014,0.069c-0.119,0.573-0.323,1.285-0.837,1.706
			c-0.246,0.15-0.558,0.224-0.953,0.224c-0.091,0-0.187-0.004-0.29-0.012c-0.158-0.084-0.35-0.189-0.398-0.377
			c-0.093-0.297-0.092-0.611-0.091-0.915V4.06c0.016-0.213,0.015-0.429,0.014-0.638c-0.001-0.225-0.002-0.458,0.019-0.683
			c0.015-0.188,0.021-0.375,0.026-0.559c0.008-0.293,0.017-0.596,0.065-0.89l0.009-0.055h-0.907l-0.001,0.046
			c-0.007,0.364-0.016,0.728-0.025,1.091C41.12,3.12,41.1,3.893,41.105,4.658C41.133,5.295,41.326,5.741,41.678,5.981L41.678,5.981z
			"/>
		<path d="M57.878,5.903c0.124,0.076,0.272,0.117,0.417,0.117c0.173,0,0.326-0.061,0.434-0.171c0.414-0.437,0.612-1.009,0.738-1.459
			l0.008-0.027L59.368,4.26c-0.155-0.15-0.316-0.306-0.484-0.446l-0.055-0.045l-0.021,0.067c-0.033,0.108-0.062,0.222-0.09,0.331
			c-0.08,0.321-0.162,0.652-0.384,0.901c-0.024,0.015-0.048,0.022-0.069,0.022c-0.096,0-0.173-0.158-0.219-0.252L58.04,4.824
			C57.823,4.24,57.764,3.6,57.732,2.995c-0.017-0.219-0.004-0.442,0.008-0.658c0.011-0.216,0.023-0.44,0.007-0.663l-0.003-0.043
			h-0.857v0.046c-0.008,1.053,0.014,2.169,0.338,3.23C57.346,5.261,57.498,5.702,57.878,5.903L57.878,5.903z"/>
		<path d="M37.197,1.268l-0.001-0.046h-2.54l0.004,0.051c0.035,0.373,0.029,0.733,0.023,1.113L34.68,2.617l0.048-0.001
			c0.303-0.005,0.605-0.006,0.907-0.006l0.929,0.001c0.196,0,0.392,0,0.587-0.002h0.046V2.563c0-0.144,0.001-0.287,0.002-0.431
			C37.2,1.848,37.202,1.555,37.197,1.268z M36.522,2.074C36.125,2.079,35.74,2.08,35.335,2.08V1.797h0.021
			c0.404-0.005,0.824-0.01,1.166,0V2.074z"/>
		<path d="M50.248,3.097c0.104,0.056,0.207,0.112,0.311,0.167L50.6,3.287l0.022-0.042c0.044-0.084,0.089-0.168,0.134-0.253
			c0.057-0.107,0.114-0.215,0.169-0.321l0.021-0.038L50.908,2.61c-0.445-0.286-0.957-0.53-1.659-0.791l-0.037-0.014l-0.021,0.033
			c-0.045,0.076-0.094,0.152-0.141,0.229c-0.068,0.109-0.137,0.22-0.201,0.332l-0.031,0.052l0.058,0.017
			C49.359,2.612,49.812,2.859,50.248,3.097L50.248,3.097z"/>
		<path d="M59.466,2.594c0.093,0.135,0.188,0.274,0.271,0.42c0.416,0.75,0.65,1.567,0.676,2.362l0.002,0.067l0.163-0.066
			c0.179-0.073,0.348-0.142,0.524-0.202l0.035-0.012l-0.004-0.037c-0.085-1.015-0.461-2.052-1.121-3.091
			C60.003,2.026,59.993,2.013,59.984,2c-0.035-0.048-0.078-0.108-0.146-0.108c-0.023,0-0.049,0.008-0.066,0.02
			c-0.102,0.049-0.196,0.1-0.293,0.15c-0.074,0.039-0.147,0.077-0.223,0.114L59.21,2.198l0.026,0.043
			C59.309,2.364,59.389,2.481,59.466,2.594L59.466,2.594z"/>
		<path d="M32.592,3.904c0.115,0.056,0.233,0.113,0.358,0.156l0.049,0.017l0.012-0.051c0.132-0.554,0.186-1.127,0.16-1.703
			l-0.002-0.042l-0.041-0.003c-0.129-0.01-0.253-0.026-0.384-0.042l-0.135-0.017l-0.001,0.052c-0.012,0.487-0.042,1.008-0.176,1.513
			l-0.01,0.038l0.036,0.017C32.501,3.86,32.547,3.882,32.592,3.904L32.592,3.904z"/>
		<path d="M25.747,2.377c-0.187,0.017-0.375,0.019-0.535,0.019l-0.351-0.001H24.72V2.082h1.057V1.438L25.726,1.44
			c-0.602,0.023-1.248,0.023-2.063,0.001c0-0.059,0.002-0.117,0.003-0.174c0.001-0.071,0.003-0.141,0.003-0.209V1.011h-0.767v0.047
			c0,0.125,0,0.253,0.005,0.379c-0.243,0.015-0.503,0.022-0.836,0.022c-0.163,0-0.325-0.001-0.487-0.003
			c-0.232-0.001-0.463-0.003-0.695-0.002h-0.048l0.002,0.048c0.039,0.883,0.01,1.809-0.085,2.751
			c-0.009,0.064-0.017,0.129-0.025,0.194c-0.06,0.473-0.121,0.962-0.372,1.373l-0.017,0.027l0.021,0.026
			c0.152,0.201,0.316,0.378,0.471,0.539l0.051,0.053l0.026-0.068c0.045-0.115,0.093-0.229,0.142-0.342
			c0.065-0.152,0.132-0.31,0.191-0.473c0.259-0.854,0.304-1.738,0.311-2.57c0.249-0.005,0.501-0.004,0.752,0
			c0.005,0.297-0.003,0.573-0.026,0.843l-0.004,0.051h2.45l-0.001-0.048c-0.003-0.148-0.003-0.296-0.003-0.445
			c0-0.134,0-0.269-0.002-0.405c0.041,0,0.083,0.001,0.124,0.001l0.346-0.001c0.167,0,0.362,0.002,0.555,0.021l0.051,0.004v-0.66
			L25.747,2.377z M22.307,2.392c-0.239,0.005-0.48,0.005-0.718-0.001V2.087c0.239-0.005,0.479-0.005,0.718,0V2.392z M22.988,2.219
			c0.001-0.045,0.002-0.091,0.003-0.137c0.342,0.007,0.682,0.006,1.022,0c0.011,0.116,0.014,0.217,0.011,0.309
			c-0.177,0.003-0.355,0.006-0.533,0.006c-0.188,0-0.355-0.003-0.508-0.01C22.985,2.331,22.987,2.275,22.988,2.219z M23.503,3.321
			c-0.197,0-0.363-0.003-0.52-0.01c0.004-0.102,0.005-0.205,0.005-0.305c0.11,0,0.219,0.001,0.329,0.001
			c0.231,0.001,0.464,0.001,0.696-0.001c0.001,0.022,0.002,0.043,0.004,0.065c0.004,0.082,0.01,0.165,0.008,0.245
			C23.852,3.319,23.677,3.321,23.503,3.321z"/>
		<path d="M12.583,11.425c-0.958-0.723-2.126-1.033-3.256-1.333c-0.157-0.042-0.315-0.084-0.47-0.127
			C8.362,9.827,7.852,9.708,7.359,9.592c-0.378-0.089-0.768-0.181-1.151-0.28c-0.06-0.017-0.12-0.033-0.18-0.05
			C5.715,9.177,5.39,9.089,5.111,8.913C4.888,8.784,4.607,8.56,4.531,8.23C4.396,7.681,4.43,6.93,4.936,6.465
			C5.279,6.101,5.794,5.9,6.554,5.831c0.211-0.007,0.418-0.014,0.628-0.014c0.441,0,1.018,0.027,1.561,0.236
			c0.503,0.169,0.949,0.549,1.222,1.042c0.176,0.312,0.24,0.679,0.291,1.028l0.006,0.041h0.041c0.39-0.005,0.78-0.006,1.17-0.006
			l1.206,0.001c0.254,0,0.507,0,0.761-0.002h0.05l-0.003-0.05c-0.062-0.881-0.228-1.599-0.506-2.194
			c-0.355-0.813-1.014-1.532-1.854-2.021c-0.934-0.576-2.11-0.856-3.597-0.856c-0.062,0-0.124,0-0.184,0.001
			C7.274,3.036,7.202,3.036,7.131,3.036c-1.034,0-1.993,0.143-2.853,0.427c-1.082,0.419-1.869,1.003-2.34,1.734
			C1.314,6.12,1.07,7.382,1.251,8.749c0.143,1.059,0.654,1.999,1.405,2.581c0.584,0.422,1.203,0.72,1.835,0.884
			c0.545,0.191,1.118,0.315,1.67,0.435c0.253,0.055,0.515,0.112,0.77,0.174c0.224,0.056,0.449,0.108,0.674,0.16
			c0.557,0.128,1.132,0.261,1.68,0.46c0.642,0.215,1.059,0.515,1.273,0.912c0.36,0.771,0.121,1.762-0.531,2.207
			c-0.505,0.338-1.161,0.511-1.949,0.511c-0.067,0-0.135-0.003-0.205-0.005c-0.059,0.002-0.118,0.004-0.177,0.004
			c-1.034,0-1.905-0.262-2.52-0.752c-0.472-0.393-0.79-1.025-0.895-1.786l-0.005-0.04H4.235c-0.359-0.002-0.717-0.003-1.076-0.003
			c-0.718,0-1.437,0.003-2.159,0.003H0.949l0.004,0.051c0.044,0.518,0.108,1.07,0.273,1.602c0.296,1.076,1.003,2.049,1.94,2.668
			c0.981,0.647,2.206,1.025,3.642,1.123c0.278,0.013,0.533,0.02,0.778,0.02c1.094,0,2.017-0.126,2.823-0.384
			c1.105-0.354,1.957-0.896,2.531-1.612c0.832-0.996,1.211-2.459,1.041-4.012C13.864,12.921,13.354,12.002,12.583,11.425
			L12.583,11.425z"/>
		<path d="M17.694,5.533l0.02-0.009c0.167-0.127,0.246-0.312,0.296-0.499l0.028,0.046c0.082,0.135,0.167,0.274,0.256,0.41
			l0.028,0.043l0.041-0.033c0.158-0.129,0.287-0.287,0.411-0.44c0.039-0.048,0.079-0.097,0.119-0.145
			c0.155,0.187,0.343,0.396,0.572,0.584l0.042,0.035l0.136-0.228c0.06-0.102,0.12-0.203,0.183-0.307l0.02-0.033l-0.029-0.026
			C19.613,4.746,19.4,4.555,19.232,4.32c0.184-0.43,0.316-0.914,0.429-1.564l0.002-0.011l-0.004-0.011
			c-0.027-0.086-0.082-0.156-0.134-0.224c-0.03-0.04-0.059-0.077-0.082-0.116L19.429,2.37L19.21,2.374
			c-0.14,0.003-0.281,0.006-0.422,0.006c-0.188,0-0.344-0.005-0.491-0.016l-0.048-0.003l-0.002,0.048
			c-0.006,0.159-0.002,0.339,0.013,0.553l0.003,0.05l0.05-0.007c0.063-0.01,0.125,0,0.19,0.027c-0.02,0.052-0.078,0.083-0.166,0.124
			c-0.052,0.024-0.106,0.049-0.148,0.085l-0.011,0.01c0.002-0.047,0.005-0.096,0.007-0.143c0.012-0.278,0.024-0.565,0.042-0.848
			l0.003-0.05h-0.536c0.036-0.091,0.078-0.178,0.121-0.269l0.025-0.053c0.153,0,0.307-0.002,0.46-0.003
			c0.162-0.002,0.325-0.003,0.487-0.003c0.352,0,0.622,0.008,0.875,0.027l0.048,0.003l0.002-0.049
			c0.007-0.192,0.007-0.387,0.007-0.576V1.24h-0.046c-0.358-0.005-0.717-0.007-1.076-0.007c-0.486,0-0.972,0.003-1.459,0.003
			c-0.453,0-0.821-0.002-1.156-0.008l-0.048-0.001V1.89l0.048-0.001c0.232-0.006,0.465-0.006,0.697-0.005h0.437
			c-0.048,0.106-0.101,0.211-0.151,0.313c-0.057,0.115-0.116,0.233-0.169,0.353c-0.221,0.007-0.446,0.011-0.668,0.006L16.08,2.554
			v0.048c0,0.077,0,0.154,0.001,0.23c0.001,0.175,0.002,0.355-0.003,0.536c-0.172-0.209-0.279-0.458-0.361-0.688h0.304V2.635
			c0-0.178,0-0.361,0.007-0.546L16.03,2.04h-0.049c-0.056,0-0.112,0.001-0.169,0.003c-0.041,0.001-0.081,0.002-0.121,0.002
			c0-0.06,0-0.12-0.001-0.18c-0.002-0.276-0.004-0.538,0.021-0.804l0.005-0.051h-0.718l0.005,0.052
			c0.026,0.252,0.023,0.516,0.021,0.77c0,0.061-0.001,0.122-0.001,0.182h-0.606v0.728l0.053-0.007
			c0.137-0.019,0.317-0.041,0.499-0.041h0.012c-0.06,0.284-0.146,0.572-0.269,0.898c-0.076,0.164-0.168,0.328-0.257,0.485
			c-0.065,0.116-0.131,0.233-0.191,0.352l-0.011,0.02l0.009,0.021c0.095,0.211,0.207,0.407,0.293,0.553l0.04,0.066l0.041-0.066
			c0.175-0.285,0.317-0.577,0.425-0.87c-0.001,0.263,0,0.525,0.001,0.782c0.002,0.479,0.004,0.974-0.011,1.462l-0.001,0.05
			l0.05-0.002c0.185-0.007,0.378-0.007,0.566-0.007h0.049l-0.002-0.049c-0.038-0.901-0.027-1.818-0.01-2.687
			c0.029,0.054,0.056,0.111,0.083,0.169c0.03,0.064,0.061,0.128,0.095,0.19l0.041,0.074l0.041-0.074
			c0.042-0.075,0.079-0.151,0.115-0.226c0.004,0.224,0.003,0.448,0.002,0.666c0,0.101-0.001,0.202-0.001,0.304v0.047h0.047
			c0.221,0,0.442,0.003,0.665,0.004c0.201,0,0.364-0.003,0.513-0.011l0.045-0.002l-0.001-0.045
			c-0.007-0.392-0.006-0.791-0.005-1.176c0-0.271,0.001-0.54,0-0.809c0.074,0,0.15-0.001,0.229-0.005
			c-0.002,0.267-0.019,0.536-0.035,0.796c-0.013,0.213-0.026,0.433-0.032,0.649c-0.003,0.043-0.005,0.086-0.007,0.131
			c-0.008,0.2-0.018,0.406-0.161,0.546c-0.057,0.018-0.119,0.026-0.194,0.026c-0.065,0-0.134-0.006-0.2-0.013
			c-0.058-0.005-0.116-0.011-0.173-0.013h-0.058l0.01,0.057c0.041,0.235,0.083,0.412,0.133,0.573l0.01,0.031
			c-0.189-0.001-0.379-0.001-0.569-0.002l-0.48-0.003v0.047c0,0.198,0,0.39-0.001,0.59v0.058l0.057-0.012
			c0.169-0.037,0.339-0.042,0.483-0.042c0.116,0,0.23,0.004,0.347,0.004h0.504h0.006c0.413,0,0.825-0.002,1.239-0.002
			c0.512,0,0.903,0.004,1.267,0.014l0.048,0.001V5.579L19.718,5.58c-0.528,0.011-1.083,0.016-1.745,0.016
			c-0.348,0-0.696-0.002-1.045-0.004c0.078-0.005,0.156-0.009,0.233-0.012C17.336,5.573,17.517,5.565,17.694,5.533z M18.994,3.011
			c-0.016,0.074-0.026,0.15-0.037,0.225c-0.019,0.142-0.038,0.278-0.091,0.402c-0.06-0.155-0.114-0.315-0.167-0.471
			c-0.019-0.053-0.037-0.107-0.056-0.161C18.759,3.007,18.876,3.009,18.994,3.011z M18.075,4.712
			c0.058-0.472,0.082-0.951,0.102-1.421c0.03,0.211,0.112,0.411,0.192,0.603c0.066,0.16,0.129,0.311,0.165,0.468
			c-0.113,0.171-0.287,0.41-0.504,0.589C18.048,4.869,18.063,4.788,18.075,4.712z M16.806,4.272h-0.191
			c-0.002-0.257-0.001-0.514,0-0.771c0.001-0.12,0.001-0.24,0.001-0.36c0.063,0.003,0.128,0.003,0.19,0V4.272z"/>
		<path d="M37.773,5.572c-0.418-0.188-0.85-0.378-1.155-0.712c0.17-0.002,0.34-0.002,0.51-0.002h0.003c0.205,0,0.41,0,0.615-0.003
			l0.046-0.001V4.245h-0.046c-0.17-0.002-0.339-0.002-0.509-0.002c-0.322,0-0.644,0.003-0.965,0.002
			c0.006-0.079,0.008-0.155,0.008-0.229c0.223-0.001,0.446,0.002,0.67,0.002c0.29,0,0.512-0.003,0.718-0.009l0.045-0.001V2.72
			h-0.047c-0.542,0.006-1.082,0.006-1.624,0h-0.047v0.047c0,0.128,0,0.255-0.001,0.382c-0.001,0.238-0.002,0.474,0.001,0.71
			c-0.054,0.003-0.107,0.004-0.158,0.007c-0.008-0.264-0.007-0.532-0.005-0.792c0-0.102,0.001-0.205,0.001-0.307V2.722h-0.046
			c-0.163-0.003-0.323,0-0.483,0.004c-0.12,0.002-0.24,0.005-0.359,0.005c-0.213,0-0.382-0.008-0.539-0.027
			C34.448,2.629,34.5,2.559,34.56,2.48l0.023-0.03l-0.024-0.029c-0.036-0.043-0.071-0.087-0.106-0.13
			c-0.071-0.088-0.145-0.18-0.227-0.262l-0.051-0.051l-0.026,0.068c-0.054,0.14-0.131,0.266-0.228,0.37l-0.002-0.111
			c-0.007-0.369-0.015-0.75,0.023-1.123l0.005-0.05l-0.05-0.001c-0.211-0.007-0.414-0.007-0.628-0.007h-0.05l0.003,0.05
			c0.035,0.545,0.02,1.103,0.005,1.642c-0.004,0.174-0.009,0.347-0.012,0.519l-0.006,0.12c-0.023,0.45-0.046,0.916-0.197,1.355
			c-0.099,0.348-0.312,0.657-0.518,0.955l-0.09,0.131l0.024,0.028c0.093,0.105,0.186,0.206,0.28,0.308
			c0.047,0.051,0.095,0.102,0.143,0.155l0.037,0.04l0.035-0.042c0.327-0.404,0.567-0.87,0.697-1.352
			c0.144,0.199,0.312,0.384,0.491,0.539l0.042,0.036l0.029-0.046c0.067-0.109,0.135-0.223,0.203-0.337l0.112-0.189l-0.027-0.03
			c-0.022-0.025-0.045-0.052-0.069-0.08c-0.013-0.016-0.026-0.032-0.041-0.048c0.14-0.021,0.277-0.025,0.386-0.025
			c0.065,0,0.131,0.001,0.196,0.002c0.096,0.002,0.193,0.004,0.289,0.002c-0.311,0.366-0.749,0.667-1.302,0.895L33.89,5.769
			l0.014,0.042c0.049,0.145,0.134,0.271,0.217,0.392c0.02,0.029,0.04,0.059,0.059,0.088l0.024,0.037l0.039-0.022
			c0.075-0.044,0.151-0.087,0.226-0.13c0.194-0.11,0.396-0.225,0.586-0.357c0.187-0.157,0.36-0.332,0.521-0.501
			c0.01,0.377,0.009,0.747-0.003,1.125l-0.001,0.048h0.697l-0.001-0.048c-0.007-0.243-0.006-0.494-0.005-0.736
			c0-0.139,0.001-0.279,0-0.418c0.403,0.44,0.903,0.763,1.302,0.999l0.041,0.024L37.63,6.27c0.058-0.103,0.119-0.207,0.179-0.312
			c0.048-0.083,0.097-0.167,0.144-0.249l0.025-0.045L37.773,5.572z M36.868,3.218c0.073,0,0.146,0.002,0.219,0.004
			c0.022,0.059,0.019,0.127,0.015,0.2c-0.002,0.035-0.004,0.07-0.003,0.105c-0.185,0.005-0.363,0.005-0.546,0
			c0.003-0.097,0.003-0.194-0.001-0.29C36.642,3.224,36.744,3.218,36.868,3.218z M34.797,3.377C34.798,3.324,34.8,3.272,34.8,3.218
			c0.153,0.004,0.308,0.005,0.466,0c-0.004,0.105-0.004,0.209,0,0.314h-0.472C34.794,3.48,34.796,3.428,34.797,3.377z M35.568,4.244
			c-0.089-0.002-0.179-0.003-0.268-0.003c-0.196,0-0.393,0.003-0.588,0.003c-0.208,0-0.367-0.004-0.517-0.012l-0.049-0.003v0.05
			c0,0.131,0,0.267-0.003,0.401c-0.124-0.137-0.229-0.285-0.311-0.44c0-0.367,0.029-0.716,0.058-1.011
			c0.06-0.1,0.147-0.176,0.24-0.257c0.025-0.021,0.05-0.043,0.075-0.066c0.008,0.22,0.007,0.441,0.007,0.656
			c0,0.146,0,0.293,0.001,0.44v0.046h1.365C35.577,4.117,35.573,4.183,35.568,4.244z"/>
		<path d="M31.849,5.01c-0.103-0.101-0.246-0.144-0.385-0.186c-0.08-0.024-0.163-0.049-0.235-0.085l-0.071-0.036l0.006,0.131
			c0.013,0.262,0.026,0.532-0.119,0.729c-0.158,0.083-0.343,0.087-0.56,0.082c-0.056-0.001-0.115-0.001-0.168,0H30.28
			c-0.185,0-0.357-0.012-0.433-0.147c0.01-0.027,0.019-0.055,0.028-0.083c0.03-0.092,0.058-0.18,0.113-0.258
			c0.483-0.719,1.11-1.333,1.603-1.788l0.033-0.031l-0.029-0.034c-0.044-0.052-0.086-0.105-0.128-0.159
			c-0.064-0.083-0.131-0.167-0.205-0.245l-0.01-0.008c-0.077-0.044-0.153-0.039-0.225-0.038c-0.035,0-0.063,0.002-0.11-0.002
			c-0.145,0.004-0.29,0.005-0.435,0.005l-0.439-0.001c-0.139,0-0.3,0-0.467,0.005c0.092-0.127,0.181-0.27,0.282-0.45
			c0.094,0,0.188,0.001,0.281,0.001l0.646-0.001c0.295,0,0.644,0.002,0.99,0.02l0.049,0.002V1.734l-0.049,0.002
			c-0.238,0.011-0.477,0.013-0.68,0.013l-0.421-0.001c-0.155,0-0.335,0.001-0.522,0.007c0.034-0.115,0.065-0.229,0.097-0.342
			c0.021-0.076,0.041-0.15,0.062-0.225l0.015-0.051l-0.052-0.008c-0.099-0.015-0.199-0.029-0.299-0.043
			c-0.114-0.016-0.229-0.032-0.341-0.05L29.589,1.03l-0.01,0.042c-0.157,0.632-0.372,1.127-0.654,1.51
			c0-0.001-0.001-0.002-0.001-0.003c-0.011-0.023-0.022-0.046-0.032-0.062l-0.013-0.02l-0.023-0.002
			c-0.109-0.008-0.218-0.009-0.301-0.009l-0.25,0.001c-0.059,0-0.118,0-0.176-0.002c0-0.045,0.001-0.091,0.003-0.136
			c0.001-0.045,0.002-0.089,0.003-0.133c0.059,0.001,0.118,0.002,0.177,0.002c0.125,0,0.251-0.002,0.378-0.003
			c0.142,0,0.25,0.004,0.351,0.012l0.051,0.004V2.18c0-0.072,0.002-0.145,0.004-0.218c0.003-0.107,0.006-0.218,0.002-0.325
			l-0.001-0.048l-0.048,0.003c-0.146,0.009-0.299,0.013-0.483,0.013c-0.146,0-0.292-0.002-0.438-0.005
			c0.001-0.187,0.01-0.354,0.025-0.512l0.005-0.052h-0.729l0.01,0.055c0.031,0.169,0.038,0.342,0.039,0.493
			c-0.159,0.002-0.317,0.004-0.477,0.003c-0.202,0-0.357-0.005-0.502-0.016l-0.05-0.004v0.646h0.047
			c0.114,0,0.228,0.001,0.342,0.001c0.213,0.001,0.427,0.002,0.64,0v0.27c-0.267,0.005-0.525,0.005-0.798,0.005h-0.048l0.001,0.048
			c0.021,0.683,0.021,1.375,0,2.058l-0.001,0.048h0.844c-0.003,0.112-0.003,0.22,0,0.328C27.429,4.97,27.381,4.97,27.333,4.97
			l-0.31,0.001c-0.147,0-0.32-0.002-0.491-0.02l-0.05-0.005l-0.001,0.05C26.48,5.048,26.477,5.1,26.475,5.152
			c-0.006,0.139-0.012,0.282-0.007,0.428l0.002,0.053l0.052-0.008c0.269-0.042,0.54-0.046,0.795-0.046h0.16V5.78
			c0.001,0.214,0.002,0.417-0.031,0.623l-0.008,0.054h0.745l-0.018-0.061c-0.067-0.223-0.063-0.461-0.06-0.691
			c0.001-0.041,0.001-0.081,0.002-0.121l0.046-0.001c0.09-0.002,0.18-0.003,0.27-0.003c0.158,0,0.366,0.005,0.573,0.044l0.056,0.011
			V4.954l-0.05,0.003c-0.146,0.01-0.293,0.012-0.43,0.012h-0.231c-0.062,0-0.124,0-0.186,0.001c0.002-0.077,0.001-0.152,0-0.226
			c0-0.029-0.001-0.059-0.001-0.089c0.242,0.005,0.482,0,0.718,0.006l0.048,0.001V3.095c0.029,0.027,0.058,0.055,0.087,0.082
			c0.04,0.038,0.079,0.075,0.119,0.111l0.027,0.025l0.031-0.021c0.029-0.02,0.057-0.041,0.085-0.062
			c0.003-0.002,0.006-0.005,0.009-0.007c-0.003,0.095-0.003,0.189-0.003,0.281v0.052l0.051-0.005
			c0.208-0.02,0.414-0.022,0.569-0.022c0.092,0,0.183,0.001,0.274,0.002c0.113,0.001,0.228,0.001,0.337,0.002
			c-0.132,0.166-0.286,0.318-0.436,0.466c-0.267,0.264-0.542,0.537-0.705,0.892l-0.02,0.042c-0.153,0.324-0.327,0.692-0.175,1.061
			c0.195,0.288,0.552,0.312,0.901,0.312h0.123c0.112-0.006,0.227-0.001,0.342,0.002c0.076,0.002,0.153,0.005,0.229,0.005
			c0.225,0,0.485-0.02,0.726-0.17c0.274-0.238,0.317-0.621,0.355-0.958c0.005-0.046,0.01-0.091,0.016-0.135l0.003-0.023L31.849,5.01
			z M28.282,4.062l-0.466,0.001c-0.141,0-0.322-0.001-0.51-0.007V3.842c0.285-0.008,0.635-0.004,0.969,0l0.007,0.001V4.062z
			 M28.282,3.276h-0.005c-0.336,0.005-0.687,0.01-0.971,0.001V3.064c0.132-0.004,0.274-0.007,0.452-0.007
			c0.174,0,0.348,0.002,0.524,0.002V3.276z"/>
		<path d="M25.709,5.726c-0.594,0-1.104-0.078-1.555-0.238c0.073-0.068,0.156-0.125,0.244-0.186c0.07-0.049,0.143-0.099,0.209-0.155
			c0.139-0.112,0.252-0.251,0.363-0.385c0.061-0.074,0.124-0.151,0.19-0.221l0.03-0.032l-0.03-0.032
			c-0.051-0.054-0.101-0.111-0.15-0.167c-0.046-0.053-0.093-0.105-0.141-0.156l-0.016-0.017L24.83,4.139
			c-0.168,0.017-0.34,0.019-0.485,0.019l-0.321-0.001c-0.058,0-0.116,0-0.172,0.001c-0.256-0.004-0.513-0.002-0.771,0.001
			c-0.157,0.002-0.313,0.004-0.47,0.004c-0.35,0-0.619-0.01-0.87-0.031L21.69,4.128v0.613h0.421
			c0.242,0.295,0.457,0.541,0.701,0.765c-0.486,0.195-1.016,0.24-1.519,0.259L21.23,5.767l0.022,0.061
			c0.058,0.156,0.112,0.319,0.164,0.476l0.054,0.161l0.039-0.006c0.561-0.087,1.288-0.229,1.953-0.562
			c0.514,0.275,1.092,0.383,1.651,0.486c0.143,0.026,0.285,0.053,0.426,0.082l0.039,0.008l0.014-0.038
			c0.077-0.206,0.159-0.427,0.231-0.648l0.021-0.062L25.709,5.726z M24.103,4.737c-0.182,0.165-0.371,0.335-0.586,0.464
			c-0.212-0.137-0.431-0.278-0.58-0.479c0.127,0,0.253,0.001,0.379,0.001c0.269,0.002,0.535,0.003,0.802,0L24.103,4.737z"/>
		<path d="M50.883,5.295c-0.258-0.226-0.537-0.458-0.859-0.609c-0.047-0.036-0.103-0.062-0.156-0.088
			c-0.129-0.06-0.207-0.102-0.203-0.214c-0.003-0.088-0.007-0.176-0.012-0.265c-0.018-0.334-0.034-0.68,0.043-1.01l0.016-0.067
			l-0.068,0.01c-0.066,0.011-0.164,0.008-0.259,0.001c-0.051-0.003-0.103-0.006-0.153-0.006c-0.119,0-0.205,0.017-0.281,0.055
			l-0.021,0.01l-0.004,0.023c-0.054,0.278-0.048,0.56-0.042,0.832c0.002,0.119,0.005,0.241,0.002,0.361l-0.088-0.007
			c-0.147-0.011-0.3-0.023-0.452-0.023c-0.24,0-0.593,0.026-0.88,0.252c-0.253,0.178-0.396,0.507-0.366,0.858
			c0.025,0.346,0.205,0.633,0.477,0.766c0.227,0.132,0.494,0.199,0.793,0.199c0.24,0,0.496-0.043,0.762-0.13
			c0.424-0.189,0.523-0.66,0.545-0.919c0.325,0.202,0.604,0.459,0.836,0.687l0.043,0.044l0.029-0.056
			c0.12-0.228,0.227-0.447,0.312-0.651l0.014-0.031L50.883,5.295z M48.645,5.626c-0.056,0-0.112,0.003-0.172,0.007
			c-0.06,0.004-0.121,0.007-0.182,0.007c-0.148,0-0.254-0.022-0.338-0.071c-0.086-0.061-0.122-0.163-0.1-0.281
			c0.028-0.146,0.139-0.272,0.262-0.303c0.083-0.02,0.169-0.029,0.264-0.029c0.182,0,0.364,0.037,0.521,0.075
			C48.93,5.235,48.887,5.551,48.645,5.626z"/>
		<path d="M56.648,10.606l0.002-0.045c0.021-0.729,0.017-1.473,0.011-2.193c-0.002-0.331-0.005-0.661-0.005-0.992V7.332
			l-0.043-0.003c-0.193-0.015-0.365-0.022-0.523-0.022c-0.386,0-0.717,0.045-1.011,0.136c-0.903,0.238-1.547,0.945-1.929,1.496
			c-0.074,0.103-0.139,0.213-0.2,0.32c-0.046,0.079-0.091,0.16-0.144,0.237c-0.015-0.368-0.012-0.741-0.009-1.103
			c0.003-0.233,0.005-0.467,0.002-0.701V7.647h-0.046c-0.406-0.005-0.841-0.008-1.402-0.008c-0.504,0-1.006,0.002-1.511,0.002
			h-0.047v0.047c0,1.307-0.001,2.614-0.002,3.922c-0.001,2.572-0.003,5.229,0.002,7.845v0.047h3.224v-6.464
			c0.008-0.863,0.346-1.617,0.904-2.015c0.581-0.388,1.283-0.42,1.896-0.42c0.117,0,0.234,0.001,0.353,0.003
			c0.115,0.001,0.231,0.003,0.345,0.003L56.648,10.606L56.648,10.606z"/>
		<path d="M75.336,7.333l-0.042-0.004c-0.161-0.016-0.321-0.024-0.479-0.024c-0.608,0-1.479,0.124-2.157,0.714
			c-0.495,0.388-0.841,0.901-1.19,1.484c0-0.163,0.001-0.326,0.002-0.49c0.002-0.436,0.004-0.886-0.002-1.327V7.64H71.42
			c-0.41,0.002-0.818,0.001-1.229,0.001c-0.562-0.001-1.123-0.003-1.685,0.005h-0.046v0.046c0.005,2.61,0.003,5.267,0.002,7.835
			c-0.001,1.307-0.002,2.613-0.002,3.918v0.046l0.046,0.001c0.521,0.006,1.048,0.01,1.566,0.01s1.046-0.004,1.565-0.01l0.045-0.001
			v-6.128c-0.008-0.563,0.055-1.005,0.195-1.388c0.122-0.314,0.416-0.878,1.005-1.123c0.511-0.222,1.073-0.252,1.606-0.252
			c0.115,0,0.23,0.001,0.347,0.003s0.229,0.003,0.345,0.003l0.146-0.001l0.001-0.046c0.011-0.798,0.009-1.606,0.008-2.387
			c-0.001-0.266-0.001-0.531-0.001-0.797L75.336,7.333L75.336,7.333z"/>
		<path d="M23.478,7.637c-0.611,0-1.08,0.002-1.521,0.008h-0.046v0.046c0.004,1.554,0.002,3.108,0.001,4.662
			c-0.001,0.777-0.001,1.554-0.001,2.331c-0.008,0.695-0.171,1.217-0.499,1.596c-0.389,0.52-1.078,0.828-1.843,0.828
			c-0.024,0-0.049,0-0.075,0h-0.027c-0.273,0-0.947-0.055-1.302-0.557c-0.315-0.43-0.367-0.973-0.394-1.535V7.64h-3.236v8.301
			c0.024,1.188,0.319,2.113,0.875,2.757c0.55,0.663,1.338,0.936,1.901,1.046c0.302,0.066,0.608,0.072,0.872,0.072h0.3
			c0.051,0,0.102,0,0.152,0h0.001c1.194,0,2.37-0.521,3.146-1.396l0.033-0.036c0.051-0.056,0.104-0.113,0.159-0.164
			c0.007,0.303,0.006,0.608,0.005,0.906v0.364l0.046,0.001c0.589,0.007,1.171,0.008,1.611,0.008l1.534-0.001V7.639h-0.047
			C24.573,7.639,24.024,7.637,23.478,7.637L23.478,7.637z"/>
		<path d="M87.251,7.64h-0.065c-0.567,0-1.137-0.002-1.705-0.002c-0.635,0-1.123,0.002-1.584,0.008h-0.035L83.854,7.68
			c-0.465,1.678-0.955,3.379-1.429,5.024c-0.176,0.612-0.353,1.226-0.526,1.836c-0.062,0.192-0.113,0.392-0.164,0.582
			c-0.078,0.291-0.158,0.59-0.266,0.877c-0.369-1.267-0.74-2.53-1.113-3.795c-0.437-1.483-0.888-3.017-1.326-4.53L79.02,7.64h-3.547
			l0.022,0.062c0.746,2.118,1.497,4.234,2.248,6.35c0.661,1.867,1.323,3.734,1.981,5.597c0.168,0.633-0.051,1.475-0.709,1.789
			c-0.326,0.17-0.68,0.192-0.981,0.192c-0.13,0-0.259-0.005-0.388-0.01c-0.127-0.005-0.254-0.011-0.379-0.011h-0.035l-0.01,0.033
			c-0.007,0.019-0.014,0.045-0.021,0.071c-0.01,0.031-0.018,0.063-0.024,0.085l-0.003,0.016c0,0.266,0.001,0.528,0.002,0.791
			c0.001,0.518,0.004,1.052-0.002,1.58v0.045l0.045,0.002c0.191,0.007,0.387,0.022,0.575,0.039c0.244,0.021,0.496,0.045,0.745,0.045
			c0.171,0,0.324-0.012,0.47-0.031c0.13-0.014,0.261-0.023,0.39-0.033c0.235-0.018,0.479-0.036,0.721-0.08
			c0.585-0.154,1.096-0.48,1.438-0.914c0.467-0.613,0.736-1.328,0.918-1.881c0.459-1.318,0.918-2.638,1.377-3.956
			c1.109-3.185,2.256-6.478,3.377-9.719L87.251,7.64L87.251,7.64z"/>
		<path d="M48.549,10.482c-0.336-0.916-0.961-1.735-1.757-2.306c-1.011-0.754-2.261-0.931-3.13-0.947
			c-0.088-0.003-0.176-0.004-0.265-0.004c-1.306,0-2.439,0.327-3.277,0.943c-0.862,0.603-1.529,1.517-1.879,2.572
			c-0.466,1.371-0.561,2.929-0.273,4.507c0.222,1.192,0.719,2.239,1.437,3.026c0.735,0.816,1.788,1.371,2.965,1.56
			c0.257,0.044,0.537,0.063,0.905,0.063c0.146,0,0.292-0.004,0.438-0.006l0.212-0.005c1.302-0.093,2.481-0.548,3.322-1.278
			c0.797-0.69,1.384-1.651,1.653-2.705l0.015-0.059h-3.22l-0.014,0.026c-0.162,0.331-0.336,0.581-0.531,0.765
			c-0.346,0.33-0.873,0.512-1.482,0.512c-0.047,0-0.094,0-0.146-0.002c-0.657,0.041-1.3-0.225-1.698-0.69
			c-0.502-0.569-0.622-1.365-0.666-2.009l5.043-0.002c0.934,0,1.865,0.002,2.799,0.004h0.046l0.001-0.047
			C49.077,13.188,49.042,11.772,48.549,10.482z M43.526,12.283c-0.788,0-1.575-0.002-2.363-0.002
			c0.07-0.754,0.298-1.334,0.677-1.724c0.335-0.382,0.876-0.602,1.483-0.602c0.046,0,0.092,0.001,0.141,0.004h0.059
			c0.716,0,1.32,0.251,1.661,0.69c0.32,0.387,0.496,0.919,0.534,1.627C45.081,12.281,44.403,12.283,43.526,12.283z"/>
		<path d="M37.128,11.683c-0.257-1.169-0.66-2.073-1.23-2.765c-0.736-0.921-1.833-1.532-2.937-1.636
			c-0.206-0.017-0.404-0.025-0.59-0.025c-0.873,0-1.564,0.179-2.112,0.546c-0.533,0.319-0.943,0.793-1.344,1.301
			c-0.003-0.3-0.002-0.605,0-0.902c0.001-0.172,0.002-0.345,0.002-0.516V7.639h-3.078v0.047c0,1.424,0,2.849-0.001,4.273
			c-0.001,4.004-0.002,8.145,0.007,12.213v0.047h3.144v-0.047c0.012-1.236,0.01-2.495,0.007-3.713
			c-0.001-0.771-0.003-1.544-0.001-2.314c0.195,0.293,0.417,0.553,0.66,0.771c0.656,0.633,1.602,0.98,2.663,0.98
			c0.062,0,0.123-0.002,0.181-0.004c0.027,0.002,0.054,0.002,0.08,0.002c0.691,0,1.415-0.22,2.151-0.649
			c1.034-0.64,1.832-1.781,2.245-3.216C37.368,14.62,37.42,13.117,37.128,11.683z M33.681,15.764
			c-0.344,0.779-1.172,1.324-2.013,1.324c-0.051,0-0.102-0.002-0.152-0.006h-0.003H31.51c-0.039,0.002-0.076,0.003-0.114,0.003
			c-0.715,0-1.434-0.401-1.832-1.024c-0.546-0.865-0.59-1.93-0.567-2.76c0.034-0.736,0.143-1.679,0.683-2.436
			c0.317-0.409,0.781-0.694,1.271-0.781c0.198-0.03,0.393-0.046,0.58-0.046c0.558,0,1.029,0.135,1.4,0.401
			c0.543,0.396,0.902,1.076,1.064,2.023C34.194,13.702,34.085,14.842,33.681,15.764z"/>
		<path d="M67.877,8.816c-0.002-1.772-0.003-3.545-0.003-5.316V3.453h-0.047c-0.339,0-0.679-0.001-1.019-0.001
			c-0.679-0.002-1.356-0.003-2.033,0.001h-0.047V3.5c-0.006,1.246-0.004,2.512-0.002,3.737c0,0.579,0.002,1.158,0.002,1.736
			c-0.037-0.043-0.071-0.086-0.107-0.129c-0.038-0.046-0.075-0.093-0.113-0.137c-0.628-0.784-1.552-1.298-2.533-1.411
			c-0.263-0.024-0.5-0.036-0.726-0.036c-0.532,0-0.989,0.066-1.397,0.203c-0.391,0.114-0.73,0.317-1.076,0.535
			c-0.883,0.605-1.558,1.586-2.006,2.918c-0.39,1.302-0.498,2.66-0.317,3.926c0.103,0.807,0.289,1.495,0.569,2.107
			c0.525,1.225,1.394,2.134,2.438,2.558c0.522,0.263,1.138,0.396,1.828,0.396c0.233,0,0.479-0.016,0.729-0.045
			c0.903-0.127,1.76-0.605,2.344-1.31c0.089-0.089,0.162-0.192,0.234-0.292c0.059-0.085,0.116-0.165,0.182-0.236
			c0.002,0.221,0.002,0.44,0.002,0.66c0,0.258,0,0.516,0.004,0.774l0.001,0.046h3.091v-0.047
			C67.88,15.91,67.878,12.304,67.877,8.816z M64.625,14.743c-0.146,0.796-0.4,1.353-0.801,1.752
			c-0.387,0.399-0.938,0.628-1.516,0.628c-0.031,0-0.062-0.001-0.097-0.002c-0.704,0.033-1.382-0.26-1.792-0.77
			c-0.684-0.795-0.783-1.936-0.8-2.725c-0.024-1.221,0.237-2.165,0.782-2.808c0.354-0.417,0.822-0.681,1.315-0.744
			c0.136-0.017,0.271-0.026,0.405-0.026c0.634,0,1.201,0.197,1.598,0.556c0.551,0.505,0.784,1.173,0.883,1.645
			C64.768,13.023,64.773,13.861,64.625,14.743z"/>
		<path d="M88.48,16.971H85.8l-0.001,0.045c-0.013,0.862-0.013,1.738,0,2.604l0.001,0.046h2.681l0.002-0.046
			c0.014-0.865,0.014-1.741,0-2.604L88.48,16.971L88.48,16.971z"/>
	</g>
</g>
</svg>
