<?xml version="1.0" encoding="utf-8"?>
<!DOCTYPE svg PUBLIC "-//W3C//DTD SVG 1.1//EN" "http://www.w3.org/Graphics/SVG/1.1/DTD/svg11.dtd">
<svg version="1.1" id="tacobell" class="retailer" xmlns="http://www.w3.org/2000/svg" xmlns:xlink="http://www.w3.org/1999/xlink" xml:space="preserve">
<g>
	<polyline points="13.687,70.289 0.5,70.289 1.654,72.439 4.452,72.439 4.452,78.641 9.56,78.641 9.56,72.44 12.559,72.44 
		13.687,70.289 	"/>
	<path d="M18.513,72.201l1.041,2.524h-2.277L18.513,72.201 M10.778,78.641h4.903l0.828-1.802h3.879l0.855,1.803h4.984l-4.523-8.354
		h-6.397L10.778,78.641z"/>
	<path d="M37.203,78.326v-2.293c0,0-2.312,0.51-3.878,0.416c-1.583-0.094-2.759-0.656-2.765-1.979
		c-0.008-1.755,1.599-2.07,2.766-2.117c2.6-0.106,2.874,0.108,3.059,0.162l1.115-2.065c-0.086-0.011-0.227-0.031-0.408-0.058
		c-0.756-0.11-2.243-0.315-3.767-0.313c-1.924,0.004-4.444,0.246-6.136,1.237c-1.294,0.761-1.791,1.63-1.818,3.155
		c-0.033,1.863,1.221,2.916,1.822,3.234c1.672,0.889,4.031,1.094,6.131,1.021C36.402,78.621,37.203,78.326,37.203,78.326"/>
	<path d="M44.792,76.783c-1.215,0-1.926-0.82-1.926-2.32c0-1.668,0.645-2.319,1.926-2.319c1.164,0,1.924,0.603,1.924,2.319
		C46.716,75.693,46.444,76.783,44.792,76.783 M44.794,78.708c4.802,0,7.222-1.596,7.222-4.289c0-2.734-2.767-4.289-7.222-4.289
		c-4.314,0-7.224,1.555-7.224,4.289C37.572,77.908,41.151,78.708,44.794,78.708z"/>
	<path d="M51.812,86.365c-0.562,0-1.018-0.455-1.018-1.017s0.455-1.017,1.018-1.017c0.561,0,1.016,0.455,1.016,1.017
		S52.373,86.365,51.812,86.365 M51.812,86.587c0.686,0,1.238-0.555,1.238-1.239s-0.555-1.239-1.238-1.239
		c-0.686,0-1.239,0.555-1.239,1.239S51.126,86.587,51.812,86.587z"/>
	<path d="M51.556,85.272v-0.438h0.292c0.147,0,0.308,0.033,0.308,0.209c0,0.217-0.162,0.229-0.344,0.229L51.556,85.272
		 M51.556,85.455h0.246l0.373,0.611h0.238l-0.4-0.622c0.207-0.024,0.365-0.136,0.365-0.389c0-0.279-0.164-0.402-0.498-0.402h-0.539
		v1.413h0.215V85.455z"/>
	<path d="M9.23,87.606v-1.733h2.088c0.689,0.019,1.034,0.379,1.048,0.85c0.028,0.938-1.145,0.884-1.498,0.885L9.23,87.606
		 M11.424,82.735c0.577,0.013,0.752,0.2,0.797,0.692c0.071,0.797-0.887,0.796-1.78,0.792c-0.584-0.002-1.193,0-1.193,0v-1.484
		H11.424z M16.966,86.89c0.021-1.547-1.68-1.854-1.68-1.854s1.407-0.293,1.448-1.942c0.034-1.324-1.616-2.062-2.814-2.076H4.28v8.36
		h8.981C15.026,89.382,16.939,88.987,16.966,86.89z"/>
	<path d="M40.158,89.373l1.184-2.213h-6.244v-6.142h-5.106v6.843c-0.002,0.893,0.701,1.512,1.499,1.512H40.158"/>
	<polyline points="17.77,89.371 29.232,89.371 29.232,87.259 22.835,87.266 22.835,86.166 28.164,86.166 28.164,84.141 
		22.854,84.141 22.854,83.171 28.346,83.171 29.5,81.018 17.77,81.018 17.77,89.371 	"/>
	<path d="M51.925,89.373l1.183-2.213h-6.244v-6.143h-5.104v6.843c-0.002,0.894,0.699,1.513,1.498,1.513H51.925"/>
	<path d="M28.757,66.272h17.892V54.217C41.194,59.546,35.746,63.217,28.757,66.272"/>
	<path d="M4.233,48.47v17.803h4.09c0.296-2.492,0.963-3.107,2.829-6.354c1.652-2.875,0.586-5.603,0.106-9.522
		c-0.963-7.866,2.808-12.069,3.992-13.035c-0.406-1.965,0.229-3.817,1.721-5.302c-2.631,0.743-7.232,3.206-10.445,8.629
		C6.1,41.407,4.233,44.725,4.233,48.47"/>
	<path d="M24.164,33.189c0.473-0.044,0.918-0.097,1.344-0.14c0.365-0.037,0.719-0.066,1.065-0.077
		c2.354-0.075,5.396,0.982,7.662,2.94c0.739,0.637,7.244,7.242,7.494,7.41c1.278,0.86,3.522,1.414,4.419,1.307
		c-0.057-1.594-2.416-5.273-3.109-6.14c-4.231-5.292-10.402-7.613-15.521-7.989c-2.175-0.161-4.657-0.116-6.938,0.562
		C23.031,31.654,24.065,33.125,24.164,33.189"/>
	<path d="M17.653,32.157l-0.019,0.011c-1.715,1.209-2.426,3.292-1.865,5.293c-3.393,3.125-4.166,7.191-3.561,11.843
		c0.226,1.499,0.943,5.623,1.085,6.926c0.094,0.872,0.074,1.534-0.028,2.082c0.53-0.82,2.05-3.109,3.027-3.854
		c-0.229-1.445-0.994-5.666-1.33-7.537c-0.988-5.523,0.121-8.329,3.466-10.771c1.648-1.202,3.336-1.787,4.482-2.243
		c-2.293,0.105-5.746,2.371-5.76,2.379C16.447,34.904,16.638,33.33,17.653,32.157"/>
	<path d="M22.423,51.744c-2.291,1.355-7.55,5.125-9.715,8.039c-0.281,0.377-1.611,2.782-1.783,3.225
		c-0.297,0.761-0.586,1.854-0.277,2.72c0.54,1.512,2.891,1.97,4.306,2.013c2.909,0.088,7.999-1.251,10.793-2.215
		c5.301-1.829,11.685-5.004,16.215-8.176c1.937-1.354,9.138-6.609,7.541-10.03c-0.465-0.995-1.486-1.362-2.58-1.585
		c-0.688-0.14-1.809-0.275-2.254-0.273c-1.655,0.004-6.816,1.478-8.461,2.07c-1.932,0.698-7.174,2.864-8.748,4.357
		c1.096-0.498,4.992-2.057,6.438-2.564c2.837-0.998,7.131-1.596,8.865-1.027c4.648,1.524,0.615,5.6-0.264,6.492
		c-2.611,2.655-7.604,5.655-11.188,7.262c-1.789,0.804-10.798,4.562-14.719,2.586c-1.217-0.614-1.529-1.764-1.002-3.277
		c1.48-4.26,8.025-8.795,11.722-10.863c4.842-2.709,9.155-3.992,12.942-5.052C36.224,45.162,27.016,49.025,22.423,51.744"/>
	<path d="M43.248,50.24c-1.466-2.402-9.895,0.284-14.423,2.398c-2.356,1.1-13.312,6.945-11.927,10.329
		c0.768,1.876,6.852,1.53,15.998-3.056C38.348,57.179,44.648,52.533,43.248,50.24z M26.096,60.85
		c-1.962,0.798-4.052,1.146-5.921-0.224c-0.246-0.183-0.461-0.353-0.659-0.521c-0.085-0.069-0.167-0.14-0.248-0.21
		c-0.039-0.034-0.078-0.068-0.117-0.102l-0.06-0.051l-0.058-0.053l0.788-0.67c0.021,0.021,0.99,0.818,1.68,1.105
		c1.379,0.569,2.639,0.436,4.172-0.178c-1.479,0.204-3.398-0.423-3.545-2.498c1.051-0.971,4.808-2.505,6.711-3.035
		C29.855,56.39,29.186,59.593,26.096,60.85z"/>
</g>
</svg>
