<?xml version="1.0" encoding="utf-8"?>
<!-- Generator: Adobe Illustrator 16.0.4, SVG Export Plug-In . SVG Version: 6.00 Build 0)  -->
<!DOCTYPE svg PUBLIC "-//W3C//DTD SVG 1.1//EN" "http://www.w3.org/Graphics/SVG/1.1/DTD/svg11.dtd">
<svg version="1.1" id="Layer_1" xmlns="http://www.w3.org/2000/svg" xmlns:xlink="http://www.w3.org/1999/xlink" x="0px" y="0px"
	 width="175.748px" height="50.553px" viewBox="0 0 175.748 50.553" enable-background="new 0 0 175.748 50.553"
	 xml:space="preserve">
<path fill-rule="evenodd" clip-rule="evenodd" d="M13.483,41.793H34.88c0.25,0,0.25,0.127,0,0.252
	c-2.377,1.125-5.881,4.629-5.881,4.629c-2.377,2.377-4.254,3.879-8.384,3.879H0.094c-0.125,0-0.125-0.25,0-0.25
	c2.252-1.252,5.631-4.756,5.631-4.756C7.101,43.922,9.979,41.793,13.483,41.793L13.483,41.793z"/>
<path fill-rule="evenodd" clip-rule="evenodd" d="M154.131,41.793h21.522c0.125,0,0.125,0.127,0,0.252
	c-2.503,1.125-5.881,4.629-5.881,4.629c-2.503,2.377-4.38,3.879-8.385,3.879h-20.521c-0.125,0-0.125-0.25,0-0.25
	c2.252-1.252,5.631-4.756,5.631-4.756C147.875,43.922,150.627,41.793,154.131,41.793L154.131,41.793z"/>
<path fill-rule="evenodd" clip-rule="evenodd" d="M48.645,41.793h21.398c0.25,0,0.25,0.127,0,0.252
	c-2.377,1.125-5.881,4.629-5.881,4.629c-2.377,2.377-4.254,3.879-8.384,3.879H35.381c-0.25,0-0.25-0.25-0.125-0.25
	c2.252-1.252,5.631-4.756,5.631-4.756C42.263,43.922,45.141,41.793,48.645,41.793L48.645,41.793z"/>
<path fill-rule="evenodd" clip-rule="evenodd" d="M83.807,41.793h21.398c0.25,0,0.25,0.127,0,0.252
	c-2.378,1.125-5.882,4.629-5.882,4.629c-2.377,2.377-4.254,3.879-8.258,3.879H70.543c-0.125,0-0.125-0.25-0.125-0.25
	c2.377-1.252,5.631-4.756,5.631-4.756C77.425,43.922,80.303,41.793,83.807,41.793L83.807,41.793z"/>
<path fill-rule="evenodd" clip-rule="evenodd" d="M118.969,41.793h21.522c0.125,0,0.125,0.127-0.125,0.252
	c-2.378,1.125-5.882,4.629-5.882,4.629c-2.377,2.377-4.254,3.879-8.259,3.879h-20.521c-0.125,0-0.125-0.25,0-0.25
	c2.253-1.252,5.631-4.756,5.631-4.756C112.587,43.922,115.465,41.793,118.969,41.793L118.969,41.793z"/>
<path fill-rule="evenodd" clip-rule="evenodd" d="M124.85,0c-13.515,0-22.523,7.007-22.523,17.644
	c0,9.761,8.259,16.267,20.521,16.267c4.004,0,7.508-0.5,11.637-1.627V24.15c-2.878,3.254-6.382,4.504-10.136,4.504
	c-7.257,0-12.263-4.754-12.263-11.762c0-6.882,5.131-11.887,12.388-11.887c3.88,0,7.008,1.501,9.511,4.129V0.875
	C131.357,0.375,128.103,0,124.85,0L124.85,0z"/>
<path fill-rule="evenodd" clip-rule="evenodd" d="M23.994,5.756c5.005,0,11.012,1.001,13.515,3.128V1.126H1.971v7.758
	C4.473,6.757,9.854,5.881,15.61,5.881v21.273c0,3.127-0.25,4.004-1.501,5.631h11.387c-1.251-1.627-1.502-2.504-1.502-5.631V5.756
	L23.994,5.756z"/>
<path fill-rule="evenodd" clip-rule="evenodd" d="M60.282,13.389c-2.002,0.75-5.756,0.875-7.633,0.875h-3.003V5.881h4.004
	c3.629,0,9.76,0.75,12.138,2.878V1.126H39.886c1.251,1.501,1.501,2.502,1.501,5.506v20.522c0,3.127-0.25,4.004-1.376,5.631H67.54
	v-7.759c-3.754,2.878-11.012,2.878-13.89,2.878h-4.004V19.02h2.878c2.002,0,5.631,0.25,7.758,1.001V13.389L60.282,13.389z"/>
<path fill-rule="evenodd" clip-rule="evenodd" d="M98.698,2.127C94.568,0.75,89.187,0,85.058,0C77.55,0,70.292,2.377,70.292,10.386
	c0,13.765,22.523,6.507,22.523,15.017c0,2.752-4.004,3.879-7.257,3.879c-5.756,0-9.76-1.002-14.766-4.255v7.007
	c3.754,1.252,8.885,2.002,14.39,2.002c7.758,0,15.017-2.252,15.017-10.385C100.2,9.134,77.8,15.641,77.8,8.634
	c0-2.878,3.629-3.879,6.757-3.879c5.255,0,11.011,1.626,14.14,4.755V2.127L98.698,2.127z"/>
<path fill-rule="evenodd" clip-rule="evenodd" d="M156.508,0.5c-12.138,0-20.771,7.007-20.771,16.893
	c0,9.761,7.758,16.142,19.146,16.142c12.262,0,20.771-6.758,20.771-16.768C175.654,7.007,167.895,0.5,156.508,0.5L156.508,0.5z
	 M155.632,28.779c-6.507,0-10.636-5.255-10.636-11.761c0-6.507,4.129-11.763,10.636-11.763c6.382,0,10.637,5.255,10.637,11.763
	C166.269,23.524,162.014,28.779,155.632,28.779L155.632,28.779z"/>
</svg>
