<?xml version="1.0" encoding="utf-8"?>
<!DOCTYPE svg PUBLIC "-//W3C//DTD SVG 1.1//EN" "http://www.w3.org/Graphics/SVG/1.1/DTD/svg11.dtd">
<svg version="1.1" id="the_italian_kitchen" class="retailer" xmlns="http://www.w3.org/2000/svg" xmlns:xlink="http://www.w3.org/1999/xlink" xml:space="preserve">
<g>
	<path d="M19.65,2.65v3.3h-0.9l-0.8-1.25L17.3,3.55h-0.05l0.05,1.4v1h-0.8v-3.3h1l0.8,1.2L18.95,5L18.9,3.6V2.65
		H19.65 M14.85,2.65L16,5.95h-0.9L14.8,5.1h-1.1l-0.25,0.85h-0.9l1.15-3.3H14.85 M12.05,2.65v3.3H11.2v-3.3H12.05 M10.7,5.95H8.35
		v-3.3H9.2v2.7h1.5V5.95 M14.65,4.55l-0.2-0.7l-0.2-0.65l-0.2,0.65l-0.2,0.7H14.65 M14.9,9.05H16.3V9.6h-2.2v-3h2.15V7.15H14.9v0.6
		h1.25V8.3H14.9V9.05 M11.35,6.6v1.15h1.301V6.6h0.75v3h-0.75V8.35H11.35V9.6H10.6v-3H11.35 M18.95,6.6h0.75v3H18.85L18.15,8.45
		L17.55,7.35H17.5L17.55,8.7V9.6h-0.7v-3h0.9l0.7,1.101l0.55,1h0.05l-0.1-1.25V6.6 M6.5,1.3H5.55v0.55H6.6v0.4H4.95V0h1.6v0.4h-1
		v0.5H6.5V1.3 M6.65,2.65l1.15,3.3H6.9L6.6,5.1H5.5L5.25,5.95h-0.9l1.15-3.3H6.65 M6.5,4.55l-0.25-0.7L6.05,3.2l-0.2,0.65l-0.2,0.7
		H6.5 M3.85,0h0.6v2.25h-0.6V1.3H2.9v0.95H2.3V0h0.6v0.85h0.95V0 M2,0.4H1.3v1.85H0.7V0.4H0V0h2V0.4 M1.2,2.65v3.3H0.35v-3.3H1.2
		 M3.55,3.3v2.65H2.7V3.3H1.65V2.65H4.6V3.3H3.55 M4.65,6.6h2.6V7.15h-0.9V9.6h-0.8V7.15h-0.9V6.6 M4.2,6.6v3H3.45v-3H4.2 M1.05,8.6
		v1H0.3v-3h0.75V7.9H1.1L1.3,7.6l0.8-1h0.95L1.9,7.85L3.1,9.6H2.2L1.35,8.3L1.05,8.6 M10.1,6.7L9.95,7.2L9.3,7.1L8.5,7.35
		C8.3,7.517,8.2,7.767,8.2,8.1c0,0.301,0.1,0.533,0.3,0.7l0.8,0.25L9.95,9l0.1,0.5L9.2,9.65c-0.6,0-1.05-0.15-1.35-0.45
		C7.55,8.934,7.4,8.584,7.4,8.15c0-0.5,0.184-0.9,0.55-1.2c0.333-0.267,0.767-0.4,1.3-0.4L10.1,6.7"/>
</g>
</svg>
