<?xml version="1.0" encoding="utf-8"?>
<!DOCTYPE svg PUBLIC "-//W3C//DTD SVG 1.1//EN" "http://www.w3.org/Graphics/SVG/1.1/DTD/svg11.dtd">
<svg version="1.1" id="tm_lewin" class="retailer" xmlns="http://www.w3.org/2000/svg" xmlns:xlink="http://www.w3.org/1999/xlink"
xml:space="preserve">
<g transform="matrix(1, 0, 0, 1, 0, -1.3)">
<path d="M21.1,6Q21.05 6.45 20.6 6.35L20.05 6L20.1 5.75L20.25 5.55L20.6 5.45L21 5.65L21.1 6M24.1,7.5Q24.45 7.7 24.45 8.2L24.25 9.25L24.15 9.6L24.15 9.95L24.3 10.05L24.5 10.1L24.45 10.3L22.85 9.9L22.9 9.8Q23.1 9.85 23.15 9.7L23.3 9.3L23.35 8.85L23.45 8.35L23.5 7.95L23.35 7.65L23 7.65L22.65 7.9L22.6 8.1L22.45 8.75L22.35 9.25L22.35 9.6L22.5 9.7L22.6 9.75L22.55 9.9L21 9.55L21 9.4L21.3 9.4L21.45 9.2L21.5 8.85L21.7 7.75L21.8 7.5L21.75 7.25L21.65 7.15L21.45 7.1L21.5 7.05L21.45 6.95L22.1 7.05L22.75 7.2L22.7 7.55L23.35 7.3L24.1 7.5M20.45,9L20.5 9.3L20.65 9.3L20.8 9.35L20.75 9.55L19.05 9.2L19.1 9L19.45 9.05L19.55 8.85L19.6 8.55L19.8 7.45L19.85 7.15L19.85 6.95L19.55 6.7L19.55 6.6L19.6 6.55L20.85 6.8L20.5 8.6L20.45 9M24.35,10.85L19.5 11.15L18.8 11.05L16.3 10.35L14.05 9.4L12.9 9L11.7 8.65L10.45 8.5L9.3 8.6L9.3 8.5L9.4 8.45L9.5 8.4L9.65 8.35L9.95 7.9L10.5 5.1L10.6 4.6L10.65 4.1L10.5 3.95L10.25 3.9L10.25 3.75L12.15 4.1L12.15 4.25L11.8 4.25Q11.65 4.25 11.65 4.4L11.5 4.85L11.4 5.3L11 7.2L10.9 7.7Q10.85 8 10.95 8.1Q11 8.25 11.3 8.25L11.8 8.3L14.5 8.9L16.1 9.5L17.65 10.1Q19.55 10.75 21.2 10.95L24.35 10.7L24.35 10.85M16.55,5.95L18.1 6.25L18.1 6.4L17.85 6.4L17.65 6.5L17.65 6.65L17.65 6.85L17.85 7.85L18.45 7L18.6 6.85L18.6 6.65L18.35 6.45L18.35 6.3L19.3 6.5L19.3 6.65Q19.05 6.65 18.85 6.9L18.55 7.35L17.4 8.95L17.25 8.9L16.9 7L15.8 8.6L15.65 8.6L15.15 6.55L15.05 6.1L14.7 5.75L14.7 5.6L16.3 5.9L16.3 6.05L15.95 6.1L16 6.45L16.2 7.55L16.85 6.7L16.75 6.35L16.55 6.1L16.55 5.95M14.3,5.9Q14.55 6.25 14.4 6.85L12.65 6.5L12.75 7.25L13.2 7.7L13.75 7.7L14.15 7.45L14.35 7.55L13.55 8L12.6 7.95L11.85 7.3Q11.55 6.85 11.75 6.25Q11.9 5.65 12.35 5.4L13.55 5.3Q14.05 5.45 14.3 5.9M12.95,5.7L12.7 6.25L13.65 6.45L13.7 5.8L13.3 5.5Q13.05 5.45 12.95 5.7M7.85,1.9L6.1 1.8L4.5 2L2.9 2.15L2.35 4.75L2.25 5.2Q2.2 5.5 2.3 5.6L2.5 5.7L2.7 5.75L2.65 5.95L0.75 5.6L0.8 5.4L1 5.45L1.2 5.4L1.35 5.1L1.45 4.7L1.95 2.2L0 1.85L0 1.7L1.9 1.7L3.6 1.45L5.3 1.3L7.25 1.35L7.75 1.45Q8.85 1.75 9.6 2.3L9.6 2.45Q8.95 2.05 7.85 1.9M7.1,4.35L7.85 3.25L9.35 3.55L9.35 3.7L9.1 3.65L8.85 3.7L8.75 4L8.65 4.4L8.35 6L8.25 6.5L8.3 6.85L8.7 6.95L8.65 7.15L6.75 6.8L6.8 6.6L7.05 6.6L7.2 6.55L7.35 6.3L7.4 5.95L7.85 3.9L6 6.6L5.65 6.55L5 3.25L4.6 5.35L4.5 5.8L4.6 6.15L4.95 6.2L4.9 6.4L3.55 6.15L3.6 5.95L4.1 5.95L4.2 5.6L4.25 5.2L4.55 3.6L4.65 3.2L4.65 2.9L4.5 2.75L4.25 2.7L4.25 2.6L4.3 2.55L5.85 2.85L6.4 5.4L7.1 4.35M9.15,5.75L9.15 5.4Q9.25 5.25 9.45 5.25L9.65 5.3L9.75 5.5Q9.75 5.75 9.55 5.8L9.15 5.75M3.7,4.2L3.7 4.55L3.45 4.65L3.25 4.65L3.15 4.25Q3.25 4.05 3.45 4.05Q3.65 4.1 3.7 4.2" />
</g>
</svg>
