<?xml version="1.0" encoding="utf-8"?>
<!DOCTYPE svg PUBLIC "-//W3C//DTD SVG 1.1//EN" "http://www.w3.org/Graphics/SVG/1.1/DTD/svg11.dtd">
<svg version="1.1" id="topshop_topman" class="retailer" xmlns="http://www.w3.org/2000/svg" xmlns:xlink="http://www.w3.org/1999/xlink" xml:space="preserve">
  <g>
    <path d="M106.45,1.85L104.15 1.5L103.6 1.5L103.6 6.05L104.55 6.05Q107.45 6.05 107.45 3.75Q107.45 2.35 106.45 1.85M108.9,3.8Q108.9 5.5 107.65 6.5Q106.65 7.4 104.65 7.4L103.6 7.4L103.6 12.95L102.2 12.95L102.2 0.2L104.25 0.2L105.95 0.3Q106.85 0.45 107.45 0.9Q108.15 1.35 108.55 2.15Q108.9 2.9 108.9 3.8M100.25,6.6Q100.25 9.35 98.3 11.25Q96.35 13.15 93.6 13.15Q90.85 13.15 88.9 11.25Q86.95 9.35 86.95 6.6Q86.95 3.9 88.9 1.95Q90.85 0 93.6 0Q96.35 0 98.3 1.95Q100.25 3.9 100.25 6.6M97.3,2.9Q95.8 1.3 93.6 1.3Q91.4 1.3 89.9 2.9Q88.35 4.4 88.35 6.6Q88.35 8.75 89.9 10.3Q91.45 11.85 93.6 11.85Q95.75 11.85 97.3 10.3Q98.85 8.75 98.85 6.6Q98.85 4.4 97.3 2.9M83.55,0.2L84.95 0.2L84.95 12.95L83.55 12.95L83.55 6.7L77 6.7L77 12.95L75.6 12.95L75.6 0.2L77 0.2L77 5.4L83.55 5.4L83.55 0.2M71.9,2.7L71.05 1.7Q70.5 1.3 69.7 1.3Q68.85 1.3 68.2 1.85Q67.55 2.45 67.55 3.3Q67.55 4 68.25 4.55L69.6 5.3L70.45 5.65Q71.95 6.3 72.6 6.95Q73.5 7.85 73.5 9.25Q73.5 10.9 72.35 12.05Q71.15 13.15 69.5 13.15Q67.95 13.15 66.85 12.25Q65.8 11.35 65.5 9.9L66.9 9.5Q67.05 10.5 67.75 11.15Q68.45 11.85 69.45 11.85Q70.5 11.85 71.25 11.15Q72.05 10.4 72.05 9.35Q72.05 8.4 71.35 7.75Q70.9 7.4 69.7 6.85L68.95 6.5L67 5.3Q66.15 4.5 66.15 3.25Q66.15 1.8 67.25 0.9Q68.25 0 69.75 0Q70.8 0 71.65 0.5Q72.55 1.05 73.05 2L71.9 2.7M62.9,0.9L64 2.15Q64.35 2.9 64.35 3.8Q64.35 5.5 63.15 6.5Q62.1 7.4 60.1 7.4L59.05 7.4L59.05 12.95L57.65 12.95L57.65 0.2L59.75 0.2L61.4 0.3Q62.3 0.45 62.9 0.9M61.9,1.85L59.6 1.5L59.05 1.5L59.05 6.05L60 6.05Q62.95 6.05 62.95 3.75Q62.95 2.35 61.9 1.85M54.25,6.6Q54.25 4.4 52.75 2.9Q51.25 1.3 49.05 1.3Q46.85 1.3 45.35 2.9Q43.8 4.4 43.8 6.6Q43.8 8.75 45.35 10.3Q46.9 11.85 49.05 11.85Q51.2 11.85 52.75 10.3Q54.25 8.75 54.25 6.6M55.7,6.6Q55.7 9.35 53.75 11.25Q51.8 13.15 49.05 13.15Q46.3 13.15 44.35 11.25Q42.4 9.35 42.4 6.6Q42.4 3.9 44.35 1.95Q46.3 0 49.05 0Q51.8 0 53.75 1.95Q55.7 3.9 55.7 6.6M41.65,1.5L38.55 1.5L38.55 12.95L37.15 12.95L37.15 1.5L34.05 1.5L34.05 0.2L41.65 0.2L41.65 1.5M42.05,35.35L38 44.4L33.95 35.35L33.9 35.35L32.3 43.9L30.85 43.9L33.4 30.55L38 41.15L42.6 30.55L45.15 43.9L43.7 43.9L42.1 35.35L42.05 35.35M47.15,43.9L45.6 43.9L51.4 30.7L57.1 43.9L55.5 43.9L54.05 40.3L48.65 40.3L47.15 43.9M58.55,43.9L58.55 30.75L68.4 41.05L68.4 31.3L69.8 31.3L69.8 44.45L59.95 34.2L59.95 43.9L58.55 43.9M51.4,33.95L49.2 39L53.5 39L51.4 33.95M14.9,31.1Q17.6 31.1 19.5 33Q21.45 34.9 21.45 37.6Q21.45 40.3 19.5 42.2Q17.6 44.1 14.9 44.1Q12.2 44.1 10.25 42.2Q8.3 40.3 8.3 37.6Q8.3 34.9 10.25 33Q12.2 31.1 14.9 31.1M14.9,32.4Q12.7 32.4 11.2 33.95Q9.7 35.45 9.7 37.6Q9.7 39.7 11.25 41.25Q12.75 42.8 14.9 42.8Q17 42.8 18.55 41.25Q20.05 39.7 20.05 37.6Q20.05 35.45 18.55 33.95Q17.05 32.4 14.9 32.4M7.5,31.3L7.5 32.6L4.45 32.6L4.45 43.9L3.05 43.9L3.05 32.6L0 32.6L0 31.3L7.5 31.3M24.75,32.6L24.75 37.05L25.7 37.05Q28.6 37.05 28.6 34.8Q28.6 33.4 27.55 32.95L25.3 32.6L24.75 32.6M28.6,31.95L29.65 33.2Q30 33.95 30 34.8L29.7 36.3L28.8 37.5Q27.8 38.35 25.8 38.35L24.75 38.35L24.75 43.9L23.4 43.9L23.4 31.3L25.45 31.3L27.1 31.4Q27.95 31.5 28.6 31.95" />
  </g>
</svg>
