<?xml version="1.0" encoding="utf-8"?>
<!-- Generator: Adobe Illustrator 16.0.4, SVG Export Plug-In . SVG Version: 6.00 Build 0)  -->
<!DOCTYPE svg PUBLIC "-//W3C//DTD SVG 1.1//EN" "http://www.w3.org/Graphics/SVG/1.1/DTD/svg11.dtd">
<svg version="1.1" id="Layer_1" xmlns="http://www.w3.org/2000/svg" xmlns:xlink="http://www.w3.org/1999/xlink" x="0px" y="0px"
	 width="207.032px" height="58.423px" viewBox="377.969 251.867 207.032 58.423"
	 enable-background="new 377.969 251.867 207.032 58.423" xml:space="preserve">
<path d="M585,291c0,2.666,0,5.334,0,8c-1.996,6.174-5.744,10.488-12.627,10.609c-14.146,0.248-28.315,0.737-42.433,0.135
	c-8.255-0.354-11.857-4.207-12.31-12.745C516.97,284.48,517.46,271.9,517.46,259c-16.812,0-34.109-0.014-51.408,0.006
	c-6.855,0.008-9.02,1.985-9.053,8.123c-0.042,7.831,1.703,9.819,8.928,9.854c10.991,0.054,21.99-0.206,32.974,0.11
	c5.486,0.158,10.802,1.248,13.808,7.062c6.215,12.022-0.446,24.772-13.813,26.099c-1.311,0.13-87.107-0.119-104.77-0.284
	c-11.275-0.105-16.099-5.149-16.142-16.276c-0.036-9.332,0.01-18.663,0.017-27.995c0.003-4.451,0-8.901,0-13.421
	c2.972,0,5.375,0,8.197,0c0,3.258,0.383,32.159,0.582,43.642c0.069,4.023,2.186,6.279,6.145,6.342
	c12.298,0.195,24.606,0.513,36.896,0.194c5.098-0.132,7.036-3.149,7.133-8.896c0.112-6.664,0.028-34.208,0.028-41.192
	c3.053,0,5.44,0,7.632,0c0,16.985,0,33.583,0,50.633c1.713,0,3.684,0,5.654,0c15.165-0.005,30.329,0.042,45.493-0.049
	c4.044-0.025,8.331-0.336,9.95-4.993c2.896-8.329-1.21-13.885-10.123-13.925c-10.494-0.048-20.99,0.104-31.483-0.029
	c-12.96-0.162-17.4-8.141-15.487-20.558c1.124-7.292,5.596-10.871,13.013-11.404c3.652-0.262,74.312,0.015,105.97-0.173
	c8.625-0.051,14.851,2.329,17.402,11.131c0,2.667,0,5.333,0,8c-2.627,0-5.252,0-7.907,0c-0.273-2.099-0.565-3.729-0.688-5.371
	c-0.333-4.492-3.072-6.522-7.205-6.568c-11.808-0.131-23.619-0.211-35.422,0.02c-4.211,0.083-7.881,1.644-7.873,6.985
	c0.012,9.448-0.156,18.897-0.021,28.343c0.096,6.555,2.205,8.526,8.765,8.574c10.145,0.071,20.295,0.191,30.434-0.039
	c7.682-0.176,11.789-0.351,11.918-11.121c0.003-0.25,0.372-0.494,0.637-0.822C580.051,291,582.525,291,585,291z"/>
</svg>
