<?xml version="1.0" encoding="utf-8"?>
<!-- Generator: Adobe Illustrator 16.0.4, SVG Export Plug-In . SVG Version: 6.00 Build 0)  -->
<!DOCTYPE svg PUBLIC "-//W3C//DTD SVG 1.1//EN" "http://www.w3.org/Graphics/SVG/1.1/DTD/svg11.dtd">
<svg version="1.1" id="Layer_4" xmlns="http://www.w3.org/2000/svg" xmlns:xlink="http://www.w3.org/1999/xlink" x="0px" y="0px"
	 width="208.815px" height="32.405px" viewBox="375.864 280.229 208.815 32.405"
	 enable-background="new 375.864 280.229 208.815 32.405" xml:space="preserve">
<path d="M482.229,287.535c1.213,0.609,2.136,1.398,2.771,2.367c0.611,0.923,1.019,2,1.223,3.229
	c0.184,0.844,0.271,2.188,0.271,4.033H473.18c0.059,1.861,0.492,3.354,1.308,4.479c0.812,1.127,2.072,1.688,3.779,1.688
	c1.596,0,2.866-0.532,3.815-1.597c0.531-0.617,0.908-1.333,1.129-2.146h3.025c-0.08,0.673-0.347,1.422-0.795,2.248
	c-0.45,0.826-0.952,1.501-1.508,2.025c-0.928,0.911-2.073,1.523-3.441,1.846c-0.734,0.182-1.565,0.273-2.493,0.273
	c-2.264,0-4.185-0.83-5.757-2.486c-1.574-1.658-2.361-3.979-2.361-6.965c0-2.939,0.793-5.326,2.378-7.16
	c1.586-1.834,3.657-2.752,6.217-2.752C479.766,286.621,481.017,286.926,482.229,287.535z M483.33,294.723
	c-0.124-1.334-0.412-2.396-0.864-3.197c-0.836-1.479-2.229-2.221-4.186-2.221c-1.401,0-2.576,0.51-3.525,1.529
	c-0.948,1.02-1.451,2.314-1.508,3.889H483.33L483.33,294.723z"/>
<path d="M487.735,287.031h3.979l12.479,18.303h-3.934L487.735,287.031z"/>
<path d="M486,306c0,0,4.999-9.818,11.334-16.667c6.166-6.666,11.333-8.833,11.333-8.833s-7.458,7.372-10.333,11.167
	c-4.167,5.5-7,14.333-7,14.333H486z"/>
<path d="M505.812,287.117h3.008v2.426c0.614-0.831,1.29-1.475,2.021-1.932c1.039-0.685,2.263-1.024,3.667-1.024
	c2.079,0,3.844,0.794,5.294,2.384c1.451,1.59,2.177,3.859,2.177,6.812c0,3.986-1.047,6.836-3.141,8.545
	c-1.326,1.082-2.871,1.623-4.632,1.623c-1.384,0-2.545-0.302-3.483-0.905c-0.549-0.342-1.16-0.929-1.835-1.761v9.349h-3.075V287.117
	L505.812,287.117z M517.386,301.463c0.954-1.201,1.434-2.998,1.434-5.391c0-1.459-0.212-2.713-0.637-3.76
	c-0.8-2.02-2.264-3.025-4.39-3.025c-2.138,0-3.602,1.064-4.39,3.195c-0.423,1.141-0.637,2.586-0.637,4.342
	c0,1.412,0.214,2.614,0.637,3.604c0.8,1.894,2.263,2.837,4.39,2.837C515.233,303.267,516.431,302.666,517.386,301.463z"/>
<path d="M524.709,287.031h2.922v3.162c0.239-0.615,0.826-1.365,1.76-2.248c0.937-0.883,2.013-1.324,3.23-1.324
	c0.057,0,0.154,0.006,0.291,0.018s0.369,0.033,0.7,0.068v3.246c-0.185-0.033-0.353-0.057-0.504-0.068
	c-0.154-0.011-0.322-0.017-0.507-0.017c-1.549,0-2.738,0.499-3.569,1.495c-0.832,0.998-1.247,2.145-1.247,3.443v10.525h-3.076
	V287.031z"/>
<path d="M546.675,287.535c1.211,0.609,2.134,1.398,2.771,2.367c0.609,0.923,1.019,2,1.223,3.229
	c0.182,0.844,0.271,2.188,0.271,4.033h-13.312c0.057,1.861,0.492,3.354,1.306,4.479c0.814,1.127,2.074,1.688,3.781,1.688
	c1.594,0,2.866-0.532,3.815-1.597c0.529-0.617,0.906-1.333,1.129-2.146h3.023c-0.08,0.673-0.345,1.422-0.795,2.248
	c-0.448,0.826-0.95,1.501-1.506,2.025c-0.928,0.911-2.075,1.523-3.441,1.846c-0.734,0.182-1.565,0.273-2.493,0.273
	c-2.265,0-4.186-0.83-5.757-2.486c-1.574-1.658-2.361-3.979-2.361-6.965c0-2.939,0.793-5.326,2.378-7.16
	c1.586-1.834,3.657-2.752,6.217-2.752C544.212,286.621,545.463,286.926,546.675,287.535z M547.776,294.723
	c-0.124-1.334-0.412-2.396-0.864-3.197c-0.836-1.479-2.231-2.221-4.188-2.221c-1.399,0-2.574,0.51-3.523,1.529
	c-0.948,1.02-1.451,2.314-1.508,3.889H547.776L547.776,294.723z"/>
<path d="M555.752,299.592c0.094,1.025,0.354,1.812,0.785,2.359c0.791,0.99,2.163,1.486,4.116,1.486c1.163,0,2.187-0.248,3.068-0.744
	c0.886-0.494,1.325-1.263,1.325-2.3c0-0.784-0.353-1.384-1.059-1.794c-0.452-0.251-1.346-0.541-2.676-0.872l-2.482-0.614
	c-1.587-0.387-2.756-0.819-3.509-1.299c-1.343-0.83-2.017-1.981-2.017-3.451c0-1.731,0.634-3.133,1.896-4.204
	s2.964-1.606,5.101-1.606c2.794,0,4.811,0.809,6.044,2.428c0.773,1.024,1.149,2.131,1.127,3.314h-2.904
	c-0.06-0.691-0.311-1.32-0.752-1.887c-0.725-0.805-1.979-1.207-3.763-1.207c-1.188,0-2.091,0.222-2.702,0.664
	c-0.611,0.443-0.92,1.027-0.92,1.754c0,0.795,0.402,1.432,1.207,1.908c0.467,0.283,1.149,0.533,2.057,0.75l2.07,0.496
	c2.253,0.535,3.763,1.054,4.527,1.555c1.196,0.786,1.795,2.021,1.795,3.709c0,1.629-0.626,3.036-1.878,4.221
	c-1.252,1.187-3.157,1.777-5.719,1.777c-2.757,0-4.709-0.618-5.856-1.854c-1.146-1.234-1.762-2.766-1.843-4.59L555.752,299.592
	L555.752,299.592z"/>
<path d="M572.342,299.592c0.094,1.025,0.354,1.812,0.785,2.359c0.791,0.99,2.163,1.486,4.116,1.486c1.163,0,2.187-0.248,3.068-0.744
	c0.886-0.494,1.325-1.263,1.325-2.3c0-0.784-0.353-1.384-1.059-1.794c-0.452-0.251-1.344-0.541-2.675-0.872l-2.483-0.614
	c-1.587-0.387-2.756-0.819-3.509-1.299c-1.343-0.83-2.015-1.981-2.015-3.451c0-1.731,0.632-3.133,1.896-4.204
	s2.964-1.606,5.102-1.606c2.794,0,4.81,0.809,6.044,2.428c0.772,1.024,1.148,2.131,1.128,3.314h-2.906
	c-0.059-0.691-0.311-1.32-0.752-1.887c-0.725-0.805-1.979-1.207-3.761-1.207c-1.19,0-2.093,0.222-2.703,0.664
	c-0.612,0.443-0.919,1.027-0.919,1.754c0,0.795,0.4,1.432,1.206,1.908c0.466,0.283,1.148,0.533,2.056,0.75l2.072,0.496
	c2.252,0.535,3.761,1.054,4.525,1.555c1.196,0.786,1.795,2.021,1.795,3.709c0,1.629-0.626,3.036-1.878,4.221
	c-1.252,1.187-3.157,1.777-5.719,1.777c-2.757,0-4.709-0.618-5.856-1.854c-1.146-1.234-1.762-2.766-1.843-4.59L572.342,299.592
	L572.342,299.592z"/>
<path d="M379.436,287.029l4.888,14.901l5.093-14.901h3.366l-6.89,18.305h-3.278l-6.751-18.305H379.436L379.436,287.029z"/>
<path d="M394.513,280.229h3.127v3.486h-3.127V280.229z M394.513,287.115h3.127v18.219h-3.127V287.115z"/>
<path d="M403.208,299.592c0.093,1.025,0.354,1.812,0.785,2.357c0.791,0.992,2.163,1.485,4.117,1.485c1.163,0,2.186-0.245,3.07-0.741
	c0.884-0.496,1.326-1.264,1.326-2.301c0-0.784-0.354-1.385-1.06-1.795c-0.452-0.25-1.343-0.541-2.674-0.871l-2.484-0.613
	c-1.586-0.387-2.756-0.82-3.508-1.299c-1.343-0.832-2.015-1.982-2.015-3.453c0-1.73,0.632-3.133,1.896-4.203
	c1.264-1.07,2.964-1.606,5.101-1.606c2.794,0,4.809,0.81,6.044,2.427c0.774,1.025,1.149,2.131,1.126,3.315h-2.905
	c-0.059-0.69-0.309-1.319-0.752-1.887c-0.723-0.804-1.977-1.206-3.761-1.206c-1.189,0-2.09,0.221-2.703,0.664
	c-0.612,0.441-0.918,1.027-0.918,1.754c0,0.794,0.402,1.43,1.207,1.906c0.464,0.285,1.149,0.535,2.055,0.75l2.072,0.496
	c2.252,0.535,3.761,1.055,4.527,1.556c1.196,0.786,1.794,2.021,1.794,3.708c0,1.63-0.626,3.037-1.877,4.222
	c-1.251,1.187-3.158,1.777-5.718,1.777c-2.757,0-4.709-0.618-5.857-1.854c-1.148-1.234-1.762-2.766-1.843-4.588H403.208z"/>
<path d="M417.969,280.229h3.127v3.486h-3.127V280.229z M417.969,287.115h3.127v18.219h-3.127V287.115z"/>
<path d="M438.096,288.857c1.618,1.568,2.429,3.881,2.429,6.932c0,2.949-0.715,5.385-2.14,7.309
	c-1.426,1.926-3.637,2.887-6.635,2.887c-2.5,0-4.486-0.852-5.957-2.555c-1.471-1.701-2.206-3.984-2.206-6.854
	c0-3.073,0.775-5.521,2.325-7.344c1.55-1.819,3.632-2.73,6.245-2.73C434.499,286.5,436.478,287.286,438.096,288.857z
	 M436.186,301.021c0.75-1.544,1.124-3.26,1.124-5.146c0-1.707-0.271-3.096-0.811-4.165c-0.856-1.685-2.332-2.526-4.428-2.526
	c-1.859,0-3.21,0.717-4.058,2.15c-0.845,1.436-1.267,3.164-1.267,5.189c0,1.944,0.422,3.565,1.267,4.863
	c0.847,1.297,2.188,1.945,4.022,1.945C434.054,303.334,435.438,302.562,436.186,301.021z"/>
<path d="M443.39,287.029h2.924v2.599c0.864-1.071,1.781-1.84,2.751-2.308c0.968-0.467,2.045-0.7,3.229-0.7
	c2.598,0,4.352,0.905,5.264,2.718c0.501,0.99,0.752,2.409,0.752,4.255v11.741h-3.127v-11.536c0-1.116-0.166-2.017-0.496-2.7
	c-0.547-1.139-1.536-1.709-2.974-1.709c-0.729,0-1.328,0.074-1.794,0.223c-0.843,0.25-1.584,0.752-2.222,1.504
	c-0.515,0.604-0.848,1.229-1,1.871c-0.153,0.646-0.23,1.563-0.23,2.762v9.588h-3.076V287.029L443.39,287.029z"/>
</svg>
