<?xml version="1.0" encoding="utf-8"?>
<!DOCTYPE svg PUBLIC "-//W3C//DTD SVG 1.1//EN" "http://www.w3.org/Graphics/SVG/1.1/DTD/svg11.dtd">
<svg version="1.1" id="vue" class="retailer" xmlns="http://www.w3.org/2000/svg" xmlns:xlink="http://www.w3.org/1999/xlink"
xml:space="preserve">
<g>
<path d="M41.4,4.5Q40.1 4.5 39.25 5.45Q38.4 6.3 38.4 7.55L38.4 8.05L44.3 8.05L44.3 7.55Q44.3 6.3 43.45 5.45Q42.6 4.5 41.4 4.5M46.3,2.2Q48.45 4.35 48.45 7.5L48.45 10.2Q48.45 11.15 47.85 11.75Q47.15 12.4 46.3 12.4L38.4 12.4L38.4 14.2Q38.4 14.85 38.85 15.4Q39.35 15.9 40.05 15.9L46.3 15.9Q47.25 15.9 47.85 16.5Q48.45 17.15 48.45 18.1Q48.45 19.05 47.85 19.7Q47.25 20.3 46.3 20.3L39.6 20.3Q37.3 20.3 35.7 18.6Q34.1 17 34.1 14.6L34.1 7.5Q34.1 4.35 36.2 2.2Q38.35 0 41.3 0Q44.3 0 46.3 2.2M32.45,2.2L32.45 14.6Q32.45 17 30.85 18.6Q29.25 20.3 26.95 20.3L23.2 20.3Q20.9 20.3 19.3 18.6Q17.7 17 17.7 14.6L17.7 2.2Q17.7 1.35 18.35 0.7Q19.05 0 19.9 0Q20.75 0 21.35 0.7Q22 1.35 22 2.2L22 14.2Q22 14.85 22.45 15.4Q22.95 15.9 23.65 15.9L26.5 15.9Q27.2 15.9 27.7 15.4L28.15 14.2L28.15 2.2Q28.15 1.35 28.8 0.7Q29.5 0 30.35 0Q31.2 0 31.8 0.7Q32.45 1.35 32.45 2.2M16,3.15L10.15 18.95L9.8 19.55L9.7 19.55L9.65 19.7L9.45 19.8L9.45 19.9L8.95 20.15L8.85 20.25L8.6 20.25L8.5 20.3L7.65 20.3L7.6 20.25L7.4 20.25L7.35 20.15L7 19.95L6.9 19.95L6.65 19.7L6.55 19.7L6.4 19.4L6.3 19.4L0.2 3.15Q-0.15 2.3 0.2 1.45Q0.55 0.6 1.4 0.15Q2.25 -0.15 3 0.15Q3.85 0.6 4.2 1.45L8.1 11.8L12.1 1.45Q12.45 0.6 13.3 0.15Q14.05 -0.15 14.9 0.15Q15.65 0.6 16 1.45Q16.35 2.3 16 3.15" />
</g>
</svg>
