<?xml version="1.0" encoding="utf-8"?>
<!DOCTYPE svg PUBLIC "-//W3C//DTD SVG 1.1//EN" "http://www.w3.org/Graphics/SVG/1.1/DTD/svg11.dtd">
<svg version="1.1" id="wagamama" class="retailer" xmlns="http://www.w3.org/2000/svg" xmlns:xlink="http://www.w3.org/1999/xlink"
xml:space="preserve">
<g>
<path d="M33.65,9Q33.95 9.25 33.9 9.6Q34.45 9.05 35.3 9.25L36.1 9.85L36.2 10.6L35.1 14.6L33.95 14.3L34.85 11L34.95 10.35L34.55 10L34 10.15Q33.8 10.3 33.7 10.75L32.8 14L31.65 13.7L32.6 10.3L32.7 9.75Q32.6 9.45 32.25 9.4Q31.9 9.3 31.7 9.55L31.45 10.15L30.55 13.4L29.4 13.1L30.75 8.15L31.9 8.45L31.75 9Q32.25 8.45 33.05 8.65L33.65 9M37.6,10.35L39.1 10.3Q40.15 10.55 40.4 11.15L40.4 12.2L39.6 15.1L39.5 15.85L38.4 15.55L38.45 15.05Q37.85 15.6 37.25 15.4Q36.55 15.25 36.35 14.8Q36.15 14.35 36.35 13.55Q36.55 12.8 37.2 12.55L38.5 12.25L39.1 12.05L39.3 11.55L39.15 11.3L38.85 11.2L38.3 11.25L38.05 11.7L36.95 11.4Q37.15 10.65 37.6 10.35M23.9,3.05L24.75 4.1L23.5 3.75L22.75 4.9L22.7 3.55L21.4 3.2L22.65 2.7L22.6 1.4L23.4 2.45L24.65 1.95L23.9 3.05M22.6,6Q22.9 6.25 22.85 6.65Q23.4 6.05 24.2 6.3Q24.8 6.45 25 6.9L25.1 7.65L24 11.65L22.85 11.35L23.75 8.05L23.85 7.4L23.45 7.05Q23.15 6.95 22.9 7.2L22.65 7.8L21.75 11.05L20.6 10.75L21.55 7.35L21.6 6.75Q21.55 6.5 21.15 6.45L20.6 6.55L20.35 7.2L19.45 10.45L18.35 10.15L19.7 5.2L20.8 5.5L20.65 6.05L20.7 6.05Q21.2 5.5 22 5.7L22.6 6M25.25,10.6Q25.45 9.8 26.05 9.5L27.4 9.25L28 9L28.2 8.55L28.1 8.3L27.75 8.2L27.2 8.2L26.9 8.75L25.85 8.45Q26.05 7.65 26.45 7.4L28 7.3Q29.05 7.6 29.3 8.2L29.25 9.2L28.45 12.15L28.35 12.8L27.25 12.55L27.35 12Q26.75 12.55 26.2 12.4Q25.5 12.2 25.25 11.75Q25 11.35 25.25 10.6M27.65,10.45L27.8 9.95L26.75 10.3Q26.5 10.45 26.4 10.85Q26.2 11.5 26.75 11.65Q27.15 11.75 27.4 11.3L27.65 10.45M38.95,12.9L37.85 13.3Q37.6 13.4 37.5 13.85Q37.3 14.45 37.85 14.6Q38.3 14.75 38.55 14.3L38.8 13.45L38.95 12.9M18.15,5.2L18.15 6.2L17.35 9.15L17.25 9.85L16.15 9.55L16.25 9.05Q15.65 9.6 15.1 9.4Q14.4 9.25 14.15 8.8Q13.9 8.35 14.15 7.6Q14.35 6.8 14.95 6.55L16.3 6.25L16.9 6.05L17.1 5.55L17 5.3L16.65 5.2L16.1 5.25Q15.9 5.35 15.8 5.75L14.75 5.45Q14.9 4.65 15.35 4.4L16.9 4.35Q17.95 4.6 18.15 5.2M11.1,3.15L12.05 3.05Q12.8 3.25 12.85 3.95L13 3.4L14.15 3.7L12.85 8.55L12.2 9.7L10.5 9.85Q9.15 9.5 9.4 8.4L10.5 8.7L10.6 8.9L10.95 9.1Q11.5 9.25 11.7 8.45L11.85 7.9L11.85 7.85L11.25 8.25L10.65 8.25Q9.5 7.95 9.85 6.25L10.35 4.45Q10.65 3.5 11.1 3.15M12.3,4.05Q11.95 3.95 11.75 4.2L11.5 4.8L11.05 6.5Q10.85 7.4 11.3 7.5Q11.85 7.65 12.1 6.75L12.5 5.3L12.65 4.6Q12.65 4.15 12.3 4.05M16.55,7.45L16.7 6.95L15.65 7.3Q15.4 7.45 15.3 7.85Q15.1 8.5 15.6 8.65Q16.05 8.8 16.3 8.3L16.55 7.45M7.95,2.9L7.35 2.9L7.1 3.45L6.05 3.15Q6.2 2.35 6.65 2.1L8.2 2Q9.25 2.3 9.45 2.9L9.45 3.9L8.65 6.85L8.55 7.5L7.45 7.25L7.55 6.7L7.5 6.7Q7 7.25 6.35 7.1Q5.65 6.9 5.45 6.45Q5.2 6.05 5.45 5.3Q5.65 4.5 6.25 4.2L7.6 3.95L8.2 3.7L8.4 3.25L8.3 3L7.95 2.9M6.6,5.55Q6.4 6.2 6.9 6.35Q7.35 6.45 7.6 5.95L7.85 5.15L8 4.65L6.9 5Q6.7 5.1 6.6 5.55M2.6,2.45L2.15 3.6L1.25 5.55L0 5.25L0.3 0L1.5 0.3L1.15 3.5L0.9 4.6L0.95 4.6L1.35 3.6L2.6 0.6L3.55 0.85L3.3 4.05L3.15 5.15L3.35 4.6L3.55 4.15L4.75 1.2L5.85 1.5L3.5 6.15L2.3 5.85L2.45 3.8L2.65 2.45L2.6 2.45" />
</g>
</svg>
