<?xml version="1.0" encoding="utf-8"?>
<!-- Generator: Adobe Illustrator 16.0.0, SVG Export Plug-In . SVG Version: 6.00 Build 0)  -->
<!DOCTYPE svg PUBLIC "-//W3C//DTD SVG 1.1//EN" "http://www.w3.org/Graphics/SVG/1.1/DTD/svg11.dtd">
<svg version="1.1" id="Layer_1" xmlns:sketch="http://www.bohemiancoding.com/sketch/ns"
	 xmlns="http://www.w3.org/2000/svg" xmlns:xlink="http://www.w3.org/1999/xlink" x="0px" y="0px" width="188px" height="82px"
	 viewBox="0 0 188 82" enable-background="new 0 0 188 82" xml:space="preserve">
<path d="M65.028,18.243C60.7,32.624,56.289,47.318,52.424,61.855l-15-43.606H34.33L18.866,60.465l-0.928,1.238
	C14.691,47.01,10.362,32.784,6.651,18.249H0c4.021,20.876,9.277,40.979,14.536,61.235h3.248l17.009-45.152l15.31,45.152h3.248
	c6.184-20.104,11.751-40.516,16.7-61.235C65.287,18.243,69.223,18.203,65.028,18.243z"/>
<path d="M156.029,18.249h-6.03c-1.235,20.104-0.617,41.288,0.312,61.235h5.565c0.437-11.262,0.724-22.866,0.726-34.482
	c0.002-2.668-0.014-5.337-0.045-8.002C156.482,30.713,156.312,24.445,156.029,18.249z"/>
<path d="M152.977,0.029c-1.352,0-3.615,1.067-3.615,4.807c0,0.543,0.096,1.065,0.258,1.553c0.631,1.893,2.281,3.257,3.357,3.257
	c1.354,0,3.578-2.158,3.578-4.81C156.555,1.307,154.331,0.03,152.977,0.029z"/>
<path d="M126.488,0l-0.055,0.001h-6.461L119.918,0c0,0-0.496,24.632-0.504,32.844c-0.004,3.663,0.193,14.65,0.193,14.65
	l0.521,31.863l0.001,0.055h6.013l0.556-26.533c0,0,0.413-15.027,0.418-20.037C127.122,24.63,126.488,0,126.488,0z"/>
<path d="M140.85,0l-0.055,0.001h-6.461L134.279,0c0,0-0.506,25.382-0.502,33.844c0.005,11.381,0.715,45.514,0.715,45.514
	l0.001,0.056h6.013l0.584-28.035c0,0,0.124-4.035,0.154-5.38c0.08-3.539,0.242-10.616,0.232-14.155C141.455,23.88,140.85,0,140.85,0
	z"/>
<path d="M172.229,36.507c-1.545-2.166-3.559-4.175-3.25-7.269c0.312-1.856,1.084-3.558,2.787-4.79
	c3.863-2.015,9.43-1.859,13.447-0.16v-5.253c-6.645-1.085-15.304-2.633-20.406,2.938c-10.824,14.69,10.203,23.66,14.381,35.107
	c1.701,10.357-8.662,17.164-15.002,22.42h7.89c5.879-3.559,12.215-9.743,14.383-16.391
	C189.855,50.581,178.723,44.704,172.229,36.507z"/>
<path d="M112.268,42.062C107.163,26.6,91.082,19.02,75.617,17.628l-0.307,4.95c10.515,1.392,23.192,6.187,26.907,16.083
	c-2.474-1.857-5.568-2.321-8.506-3.094c-8.042-1.546-15.775,1.084-21.031,6.341c-6.03,5.723-6.957,15.156-4.949,23.35
	c2.166,7.58,8.351,13.922,16.083,15.156c9.435,2.012,19.95-0.465,25.206-8.041C114.744,64.33,115.359,51.65,112.268,42.062z
	 M104.984,63.146c-0.489,2.525-1.319,4.904-2.459,6.908c-3.248,5.566-10.05,6.494-16.082,5.566
	c-4.793-0.773-8.043-4.641-10.052-8.66c-2.166-7.58-2.166-17.785,3.868-23.195c4.019-3.404,10.205-4.331,15.463-2.785
	c2.473,0.927,4.637,2.166,6.494,4.638C105.379,50.203,106.158,57.096,104.984,63.146z"/>
</svg>
