<?xml version="1.0" encoding="utf-8"?>
<!-- Generator: Adobe Illustrator 16.0.4, SVG Export Plug-In . SVG Version: 6.00 Build 0)  -->
<!DOCTYPE svg PUBLIC "-//W3C//DTD SVG 1.1//EN" "http://www.w3.org/Graphics/SVG/1.1/DTD/svg11.dtd">
<svg version="1.1" id="Layer_1" xmlns="http://www.w3.org/2000/svg" xmlns:xlink="http://www.w3.org/1999/xlink" x="0px" y="0px"
	 width="132.032px" height="109.89px" viewBox="0 0 132.032 109.89" enable-background="new 0 0 132.032 109.89"
	 xml:space="preserve">
<path d="M34.462,107.41h0.494c-0.081,1.545-0.837,2.317-2.269,2.317c-0.612,0-1.097-0.163-1.452-0.488
	c-0.356-0.325-0.588-0.808-0.696-1.45c-0.905,0.643-1.73,1.125-2.477,1.45c-0.748,0.325-1.416,0.488-2.004,0.488
	c-0.75,0-1.398-0.217-1.94-0.65c-0.543-0.434-0.815-1.008-0.815-1.722c0-0.93,0.455-1.742,1.365-2.438
	c0.909-0.696,2.165-1.374,3.768-2.033l2.104-0.854v-0.542c0-0.768-0.051-1.322-0.149-1.666c-0.099-0.345-0.357-0.651-0.774-0.922
	c-0.417-0.271-0.965-0.406-1.645-0.406c-1.358,0-2.115,0.452-2.269,1.354c-0.145,0.922-0.524,1.383-1.138,1.383
	c-0.552,0-0.828-0.263-0.828-0.786c0-0.515,0.367-1.068,1.099-1.659c0.731-0.593,1.87-0.889,3.415-0.889
	c1.146,0,2.036,0.182,2.668,0.542c0.633,0.361,1.051,0.772,1.254,1.233s0.306,1.165,0.306,2.114v4.484
	c0,1.049,0.055,1.722,0.162,2.02c0.109,0.298,0.345,0.447,0.707,0.447C33.945,108.738,34.316,108.296,34.462,107.41z
	 M30.539,102.667l-1.48,0.597c-2.337,0.948-3.507,2.141-3.507,3.577c0,0.569,0.15,1.028,0.448,1.376
	c0.301,0.348,0.689,0.521,1.17,0.521c0.425,0,0.919-0.14,1.48-0.42c0.562-0.28,1.192-0.7,1.889-1.261V102.667z"/>
<path d="M42.586,98.954h-3.348v6.708c0,1.03,0.046,1.723,0.136,2.079c0.091,0.357,0.283,0.645,0.576,0.861s0.607,0.325,0.941,0.325
	c0.65,0,1.215-0.371,1.694-1.111l0.434,0.258c-0.28,0.596-0.694,1.045-1.24,1.348c-0.546,0.304-1.1,0.454-1.659,0.454
	c-0.65,0-1.222-0.191-1.715-0.575c-0.493-0.385-0.8-0.834-0.921-1.349c-0.122-0.515-0.183-1.418-0.183-2.71v-6.288h-1.606v-0.616
	c0.739-0.019,1.402-0.33,1.987-0.935c0.586-0.605,0.96-1.455,1.122-2.547h0.434v3.475h3.348V98.954z"/>
<path d="M54.144,102.112h-7.751c-0.035,0.532-0.054,0.929-0.054,1.189c0,1.948,0.307,3.411,0.917,4.39
	c0.611,0.978,1.524,1.467,2.737,1.467c1.646,0,2.816-0.737,3.504-2.209h0.646c-0.289,0.922-0.863,1.642-1.722,2.162
	c-0.86,0.519-1.797,0.778-2.811,0.778c-0.939,0-1.828-0.236-2.666-0.712c-0.836-0.473-1.521-1.145-2.056-2.012
	c-0.533-0.867-0.801-1.92-0.801-3.157c0-1.752,0.517-3.209,1.547-4.37c1.032-1.16,2.32-1.741,3.867-1.741
	c1.457,0,2.583,0.444,3.38,1.332C53.679,100.118,54.099,101.079,54.144,102.112z M51.773,101.557c0.027-0.209,0.04-0.394,0.04-0.556
	c0-0.796-0.233-1.412-0.699-1.851c-0.467-0.438-1.04-0.656-1.719-0.656c-1.647,0-2.631,1.021-2.948,3.062H51.773z"/>
<path d="M59.808,100.729c0.308-0.804,0.807-1.477,1.498-2.019s1.366-0.813,2.025-0.813c0.596,0,1.066,0.186,1.409,0.556
	c0.344,0.37,0.515,0.75,0.515,1.139c0,0.262-0.087,0.487-0.264,0.677c-0.176,0.19-0.391,0.285-0.643,0.285
	c-0.453,0-0.796-0.334-1.03-1.003c-0.162-0.452-0.406-0.678-0.731-0.678c-0.389,0-0.854,0.265-1.396,0.792
	c-0.542,0.53-0.89,1.078-1.043,1.647c-0.154,0.569-0.231,1.351-0.231,2.344v1.979c0,1.184,0.017,1.93,0.048,2.236
	s0.162,0.542,0.39,0.704c0.228,0.163,0.632,0.244,1.214,0.244h0.382v0.623h-5.894v-0.623h0.283c0.542,0,0.929-0.075,1.159-0.223
	c0.23-0.15,0.368-0.36,0.413-0.631c0.046-0.271,0.068-1.048,0.068-2.331v-3.13c0-1.192-0.017-1.939-0.048-2.243
	c-0.031-0.303-0.16-0.537-0.386-0.705c-0.227-0.166-0.629-0.25-1.207-0.25h-0.283v-0.609c0.845-0.1,1.951-0.366,3.318-0.8
	C59.637,98.61,59.781,99.555,59.808,100.729z"/>
<path d="M66.719,109.795v-3.646h0.529c0.614,2.105,1.712,3.158,3.292,3.158c0.687,0,1.199-0.209,1.538-0.624
	s0.509-0.871,0.509-1.368c0-0.579-0.182-1.052-0.542-1.423c-0.371-0.371-1.089-0.817-2.155-1.342
	c-1.119-0.551-1.924-1.093-2.412-1.626c-0.488-0.524-0.731-1.171-0.731-1.938c0-0.731,0.263-1.431,0.786-2.093
	c0.523-0.665,1.261-0.997,2.209-0.997c0.967,0,1.857,0.27,2.489,1.055c0.136-0.135,0.221-0.342,0.438-0.865h0.501v3.429h-0.501
	c-0.181-0.822-0.531-1.529-1.05-2.121c-0.52-0.591-1.133-0.887-1.837-0.887c-0.542,0-0.979,0.167-1.313,0.501
	c-0.335,0.334-0.502,0.724-0.502,1.165c0,0.488,0.186,0.908,0.557,1.261c0.36,0.361,1.051,0.772,2.071,1.232
	c1.537,0.696,2.476,1.374,2.819,2.033c0.344,0.669,0.515,1.309,0.515,1.924c0,0.968-0.318,1.753-0.955,2.358
	c-0.637,0.604-1.438,0.907-2.405,0.907c-1.021,0-2.045-0.257-2.84-1.098c-0.244,0.271-0.326,0.496-0.479,1.003H66.719z"/>
<path d="M82.465,98.954h-3.347v6.708c0,1.03,0.045,1.723,0.136,2.079c0.09,0.357,0.281,0.645,0.575,0.861s0.607,0.325,0.942,0.325
	c0.65,0,1.215-0.371,1.693-1.111l0.434,0.258c-0.28,0.596-0.692,1.045-1.239,1.348c-0.548,0.304-1.101,0.454-1.661,0.454
	c-0.65,0-1.222-0.191-1.714-0.575c-0.491-0.385-0.799-0.834-0.921-1.349s-0.184-1.418-0.184-2.71v-6.288h-1.605v-0.616
	c0.739-0.019,1.401-0.33,1.988-0.935c0.586-0.605,0.96-1.455,1.122-2.547h0.434v3.475h3.347V98.954z"/>
<path d="M83.97,103.873c0-1.697,0.568-3.118,1.705-4.262c1.136-1.143,2.535-1.714,4.195-1.714c1.669,0,3.072,0.573,4.21,1.721
	c1.137,1.148,1.706,2.565,1.706,4.255c0,1.87-0.578,3.341-1.732,4.41c-1.155,1.072-2.55,1.606-4.184,1.606
	c-1.633,0-3.025-0.544-4.176-1.633S83.97,105.707,83.97,103.873z M86.219,103.941c0,1.97,0.32,3.349,0.961,4.14
	c0.643,0.79,1.541,1.186,2.698,1.186c1.183,0,2.089-0.396,2.716-1.186c0.628-0.791,0.942-2.17,0.942-4.14
	c0-1.951-0.312-3.342-0.936-4.174c-0.624-0.832-1.53-1.247-2.723-1.247c-1.185,0-2.089,0.413-2.718,1.241
	C86.531,100.587,86.219,101.981,86.219,103.941z"/>
<path d="M100.649,97.897h0.367c0.207,0.561,0.324,1.324,0.352,2.29c0.648-0.768,1.33-1.342,2.042-1.721
	c0.712-0.38,1.456-0.569,2.231-0.569c0.885,0,1.607,0.186,2.172,0.556c0.563,0.37,0.927,0.824,1.089,1.362
	c0.163,0.537,0.244,1.32,0.244,2.351v3.469c0,1.283,0.021,2.065,0.066,2.345c0.046,0.279,0.188,0.489,0.428,0.629
	c0.239,0.142,0.68,0.211,1.321,0.211v0.623h-5.664v-0.623h0.257c0.65,0,1.075-0.095,1.273-0.284c0.199-0.19,0.312-0.412,0.34-0.664
	c0.027-0.253,0.04-0.999,0.04-2.236v-3.577c0-0.877-0.042-1.502-0.129-1.877c-0.086-0.374-0.315-0.707-0.69-0.996
	c-0.376-0.288-0.852-0.434-1.431-0.434c-0.658,0-1.288,0.197-1.89,0.589c-0.602,0.395-1.167,0.983-1.7,1.77v4.525
	c0,1.283,0.025,2.065,0.074,2.345s0.195,0.489,0.434,0.629c0.238,0.142,0.685,0.211,1.335,0.211v0.623h-5.624v-0.623
	c0.623,0,1.057-0.062,1.301-0.189s0.396-0.319,0.454-0.578c0.059-0.257,0.088-1.064,0.088-2.422v-3.311
	c0-1.294-0.025-2.078-0.074-2.354c-0.049-0.276-0.194-0.483-0.434-0.625c-0.238-0.141-0.685-0.21-1.335-0.21v-0.623
	C98.585,98.402,99.606,98.198,100.649,97.897z"/>
<path d="M122.643,102.112h-7.751c-0.036,0.532-0.054,0.929-0.054,1.189c0,1.948,0.304,3.411,0.916,4.39
	c0.612,0.978,1.522,1.467,2.737,1.467c1.647,0,2.815-0.737,3.503-2.209h0.648c-0.29,0.922-0.865,1.642-1.724,2.162
	c-0.859,0.519-1.795,0.778-2.809,0.778c-0.941,0-1.83-0.236-2.666-0.712c-0.837-0.473-1.521-1.145-2.056-2.012
	c-0.533-0.867-0.801-1.92-0.801-3.157c0-1.752,0.516-3.209,1.547-4.37c1.03-1.16,2.32-1.741,3.867-1.741
	c1.455,0,2.582,0.444,3.379,1.332C122.176,100.118,122.597,101.079,122.643,102.112z M120.271,101.557
	c0.027-0.209,0.042-0.394,0.042-0.556c0-0.796-0.233-1.412-0.701-1.851c-0.466-0.438-1.038-0.656-1.718-0.656
	c-1.648,0-2.631,1.021-2.947,3.062H120.271z"/>
<path d="M124.823,109.795v-3.646h0.529c0.614,2.105,1.712,3.158,3.292,3.158c0.687,0,1.2-0.209,1.538-0.624
	c0.339-0.415,0.509-0.871,0.509-1.368c0-0.579-0.181-1.052-0.542-1.423c-0.371-0.371-1.089-0.817-2.155-1.342
	c-1.119-0.551-1.924-1.093-2.412-1.626c-0.487-0.524-0.731-1.171-0.731-1.938c0-0.731,0.263-1.431,0.786-2.093
	c0.524-0.665,1.261-0.997,2.21-0.997c0.966,0,1.891,0.219,2.521,1.005c0.136-0.136,0.188-0.292,0.405-0.815h0.5v3.429h-0.5
	c-0.182-0.822-0.532-1.529-1.051-2.121c-0.52-0.591-1.132-0.887-1.837-0.887c-0.542,0-0.979,0.167-1.313,0.501
	s-0.502,0.724-0.502,1.165c0,0.488,0.186,0.908,0.557,1.261c0.36,0.361,1.052,0.772,2.072,1.232
	c1.536,0.696,2.476,1.374,2.818,2.033c0.344,0.669,0.515,1.309,0.515,1.924c0,0.968-0.318,1.753-0.955,2.358
	c-0.637,0.604-1.438,0.907-2.405,0.907c-1.021,0-2.096-0.19-2.89-1.03c-0.244,0.271-0.276,0.429-0.43,0.936H124.823z"/>
<path d="M25.673,91.167h-4.909v0.61c1.248,0,1.871,0.583,1.871,1.751c0,0.398-0.183,1.242-0.544,2.535l-2.753,9.551L14.88,93.417
	c-0.162-0.616-0.169-1.234,0.567-1.506c0.086-0.031,1.068-0.187,1.068-0.153c0-0.002,0-0.609,0-0.609h-6.085v0.609
	c0.273,0.012,0.57,0.032,0.828,0.129c0.51,0.19,0.8,0.735,0.959,1.216c0.115,0.351,0.163,0.701,0.125,1.046l-3.726,11.466
	L5.4,95.134c-0.372-1.203-0.558-1.951-0.558-2.242c0-0.326,0.116-0.581,0.345-0.763c0.23-0.181,0.751-0.299,1.565-0.352v-0.61H0
	v0.61c0.644,0.026,1.105,0.14,1.382,0.337c0.278,0.2,0.503,0.51,0.674,0.932c0.173,0.42,0.452,1.268,0.841,2.542l4.355,14.007h0.635
	l4.789-14.832l5.479,14.832h0.595l3.96-13.547c0.54-1.83,0.987-2.985,1.341-3.469c0.354-0.481,0.895-0.749,1.621-0.802V91.167z"/>
<path d="M121.72,0.083H99.679v2.74c5.6,0,8.398,2.621,8.398,7.863c0,1.787-0.814,5.58-2.441,11.378L93.274,64.955L73.258,10.185
	c-0.728-2.764-0.76-5.542,2.549-6.756c0.389-0.143,4.8-0.84,4.8-0.688c0-0.01,0-2.74,0-2.74H53.284v2.74
	C54.51,2.791,55.842,2.884,57,3.316c2.29,0.854,3.594,3.305,4.307,5.462c0.519,1.57,0.731,3.142,0.559,4.691L45.142,64.955
	L30.696,17.895c-1.668-5.4-2.502-8.757-2.502-10.067c0-1.469,0.516-2.611,1.549-3.425c1.031-0.813,3.375-1.34,7.029-1.579v-2.74
	H6.45v2.74c2.891,0.119,4.959,0.626,6.207,1.52c1.247,0.895,2.258,2.285,3.029,4.173c0.771,1.887,2.029,5.693,3.771,11.416
	l19.557,62.894h2.851l21.505-66.6l24.603,66.6h2.669L108.421,22c2.424-8.219,4.432-13.409,6.022-15.574
	c1.59-2.163,4.015-3.365,7.276-3.603V0.083z"/>
</svg>
