<?xml version="1.0" encoding="utf-8"?>
<!DOCTYPE svg PUBLIC "-//W3C//DTD SVG 1.1//EN" "http://www.w3.org/Graphics/SVG/1.1/DTD/svg11.dtd">
<svg version="1.1" id="whsmith" class="retailer" xmlns="http://www.w3.org/2000/svg" xmlns:xlink="http://www.w3.org/1999/xlink" xml:space="preserve">
<g>
	<path d="M207.201,21.951c0.232,0.866,0.348,2.365,0.348,4.498l0.001,5.651l0.052,3.701l0.297,1.099
		c0.367,0.7,1.268,1.05,2.701,1.051l0.399-0.001l0.001,1.1l-10.501-0.001l0.001-1.099l0.498-0.001c1.236,0.001,2.034-0.2,2.4-0.6
		c0.401-0.433,0.602-1.299,0.601-2.6L204,26c-0.001-2.533-0.318-4.251-0.95-5.149c-0.635-0.934-1.85-1.401-3.651-1.401
		c-1.133,0-2.25,0.399-3.349,1.2c-1.067,0.799-1.95,1.883-2.651,3.25v8.2l0.051,3.7l0.301,1.101c0.366,0.699,1.266,1.049,2.7,1.049
		h0.149v1.1h-10.301l0.001-1.099h0.55c1.232-0.002,2.034-0.2,2.399-0.601c0.366-0.434,0.565-1.301,0.601-2.6V11.851
		c0-2.034-0.168-3.318-0.5-3.851c-0.367-0.568-1.201-0.851-2.5-0.85l-0.351-0.001v-1.1l0.25,0.001l4.5-0.601l1.649-0.5h0.5v17.149
		L193.5,22.1c1.934-2.766,4.35-4.15,7.249-4.15c2.134,0,3.801,0.55,5.001,1.65C206.482,20.267,206.966,21.05,207.201,21.951
		 M184.249,19.85H178.1v12.301c0,2.3,0.217,3.883,0.649,4.749c0.433,0.833,1.233,1.25,2.399,1.25c1.102,0,2.134-0.683,3.102-2.049
		l0.75,0.45c-0.5,1.033-1.216,1.834-2.15,2.401c-0.933,0.599-1.967,0.899-3.101,0.899c-0.933,0.001-1.815-0.233-2.649-0.7
		c-0.801-0.433-1.384-1.033-1.75-1.801c-0.334-0.634-0.551-1.3-0.65-1.999c-0.1-0.767-0.15-2.084-0.15-3.95l0.002-11.549h-2.902
		v-1.101c1.467-0.067,2.701-0.649,3.701-1.749c1-1.134,1.65-2.667,1.949-4.601l0.801,0.001v6.348h6.15L184.249,19.85 M167.15,7.601
		c-0.002,0.699-0.252,1.316-0.75,1.85c-0.502,0.533-1.084,0.8-1.75,0.8c-0.7,0-1.317-0.267-1.853-0.801
		c-0.499-0.533-0.748-1.15-0.749-1.849c0-0.734,0.25-1.35,0.751-1.851c0.5-0.532,1.115-0.8,1.849-0.8c0.666,0,1.25,0.267,1.75,0.801
		C166.9,6.25,167.15,6.867,167.15,7.601 M166.801,17.951V32.1l0.051,3.7l0.299,1.1c0.435,0.701,1.315,1.049,2.649,1.051l0.55-0.001
		l0.002,1.101H159.4V37.95l0.899,0.001c1.2,0,1.983-0.201,2.349-0.601c0.367-0.432,0.567-1.299,0.602-2.599l-0.001-8.801
		c0-2.566-0.149-4.133-0.449-4.699c-0.334-0.567-1.233-0.851-2.7-0.85H159.4v-1.149c2.799-0.234,5.082-0.668,6.85-1.3
		L166.801,17.951 M150.999,18.599c0.967,0.433,1.7,0.984,2.2,1.65c0.467,0.6,0.75,1.233,0.85,1.9
		c0.135,0.667,0.201,1.95,0.201,3.851v6.101l0.05,3.7c0.033,0.466,0.115,0.832,0.249,1.099c0.434,0.7,1.333,1.049,2.699,1.05
		l0.352,0.001v1.099H147.45v-1.1h0.2c1.233,0,2.05-0.2,2.449-0.601c0.368-0.433,0.551-1.3,0.551-2.599l-0.002-9.401
		c0-2.134-0.281-3.599-0.849-4.4c-0.6-0.833-1.683-1.249-3.25-1.249c-2.032,0-4.166,1.467-6.399,4.401v8l0.05,3.7l0.3,1.099
		c0.367,0.701,1.184,1.05,2.45,1.051h0.151L143.1,39.05h-9.799v-1.1h0.251c1.232-0.001,2.048-0.201,2.449-0.6
		c0.368-0.433,0.549-1.301,0.549-2.6l0.05-8.3c0.002-2.667-0.283-4.467-0.85-5.4c-0.6-0.933-1.751-1.401-3.451-1.401
		c-1,0-1.933,0.268-2.798,0.801c-0.836,0.532-1.901,1.5-3.202,2.899l-0.248,0.301l-0.001,8.449l0.05,3.7L126.4,36.9
		c0.399,0.699,1.25,1.051,2.55,1.05l0.25,0.001l-0.001,1.099l-9.948,0.002l-0.001-1.102l0.25,0.001c1.232-0.001,2.05-0.2,2.45-0.601
		c0.366-0.432,0.549-1.301,0.551-2.599L122.55,26l-0.051-3.701l-0.298-1.098c-0.367-0.634-1.268-0.951-2.701-0.951h-0.249
		l-0.001-1.201c2.168-0.199,4.117-0.566,5.85-1.1h0.252c0.465,1.133,0.7,2.418,0.698,3.849l0.001,0.401h0.1
		c2.135-2.833,4.617-4.25,7.451-4.249c3.467,0,5.601,1.516,6.4,4.549c1.467-1.733,2.783-2.917,3.951-3.55
		c1.165-0.667,2.533-1,4.099-1C149.084,17.95,150.068,18.167,150.999,18.599 M113.699,5.449l0.001,8.801l-1.099,0.001
		c-0.636-2.568-1.734-4.584-3.301-6.051c-1.566-1.433-3.417-2.149-5.55-2.15c-1.767-0.001-3.166,0.483-4.201,1.449
		c-1.065,0.934-1.599,2.2-1.6,3.8c0.001,1.867,1.001,3.484,3.001,4.851c1.031,0.766,2.699,1.633,4.999,2.6l6.151,3
		c1.133,0.7,2.017,1.482,2.648,2.349c1.232,1.633,1.85,3.684,1.852,6.152c-0.002,2.766-0.984,5.016-2.953,6.748
		c-1.965,1.768-4.498,2.651-7.599,2.651c-3.698,0.001-6.75-1.4-9.15-4.2c-0.533,0.7-0.949,1.784-1.25,3.249h-1.251v-10.8h1.251
		c0.701,3.468,1.866,6.067,3.501,7.802c1.798,1.832,3.966,2.749,6.5,2.749c2.133-0.001,3.898-0.617,5.3-1.85
		c1.399-1.267,2.1-2.833,2.101-4.7c-0.001-1.6-0.533-2.967-1.601-4.1c-1.066-1.167-2.8-2.25-5.2-3.25l-2.25-1
		c-2.132-0.9-3.784-1.734-4.95-2.501c-1.167-0.767-2.084-1.634-2.749-2.6c-1.068-1.534-1.602-3.285-1.601-5.25
		c-0.001-2.401,0.833-4.383,2.5-5.95c1.665-1.6,3.767-2.4,6.299-2.4c1.668,0.001,3.083,0.266,4.25,0.8
		c1.167,0.533,2.367,1.451,3.601,2.75c0.733-0.933,1.149-1.917,1.25-2.95H113.699 M89.15,6.6l-0.501-0.001L85.85,6.8
		c-0.466,0.133-0.834,0.433-1.101,0.9c-0.266,0.499-0.434,1.082-0.499,1.75l-0.102,4.4L84.15,30.3c-0.001,3.6,0.216,5.767,0.649,6.5
		c0.401,0.767,1.6,1.15,3.601,1.151l0.749-0.001l0.001,1.102L73.899,39.05l0.001-1.099h1.149c1.999-0.001,3.217-0.384,3.651-1.15
		c0.398-0.734,0.6-2.899,0.599-6.5V22.2H61.75l-0.001,8.1c0.002,3.6,0.218,5.768,0.651,6.5c0.398,0.767,1.6,1.15,3.6,1.15h0.9v1.101
		H51.751l-0.002-1.1h0.903c1.998,0.001,3.214-0.383,3.648-1.15c0.4-0.733,0.601-2.9,0.601-6.499L56.9,13.85l-0.099-4.4L56.35,7.699
		L55.301,6.85L53.05,6.599c-1.466,0.134-2.533,0.718-3.199,1.751c-0.635,1-1.401,3.065-2.3,6.2l-7.4,25.301l-1.099-0.002
		L28.9,12.152l-0.101-0.001l-8.95,27.7l-1.151-0.001L9.8,11.15c-0.501-1.699-1.051-2.867-1.65-3.5c-0.6-0.6-1.483-0.933-2.651-0.999
		L5.15,6.6V5.451h12.6V6.6l-0.3,0.05c-1.267,0.101-2.133,0.283-2.601,0.551c-0.433,0.299-0.65,0.783-0.65,1.449
		s0.151,1.416,0.451,2.249l6.551,21.499l0.101,0.001L30,5.448l1.35,0.002l9.849,26.95l0.101,0.001L47,12.45
		c0.266-0.901,0.4-1.766,0.4-2.601c0-2.167-1.166-3.249-3.501-3.25v-1.15h23L66.9,6.6h-0.65l-2.801,0.2
		c-0.465,0.134-0.832,0.434-1.099,0.9c-0.267,0.466-0.434,1.05-0.501,1.75l-0.099,4.4l0.001,6.651H79.3v-6.65L79.2,9.45
		c-0.066-0.7-0.233-1.284-0.5-1.75c-0.267-0.467-0.633-0.767-1.099-0.9l-2.8-0.2h-0.9V5.45h15.25L89.15,6.6"/>
</g>
</svg>
