<?xml version="1.0" encoding="utf-8"?>
<!DOCTYPE svg PUBLIC "-//W3C//DTD SVG 1.1//EN" "http://www.w3.org/Graphics/SVG/1.1/DTD/svg11.dtd">
<svg version="1.1" id="zara" class="retailer" xmlns="http://www.w3.org/2000/svg" xmlns:xlink="http://www.w3.org/1999/xlink" xml:space="preserve">
  <g>
    <path d="M45.35,9.3L43.95 12.25L44.2 12.7L45 12.9L45 13.3L41.95 13.3L41.95 12.9L42.95 12.7L43.4 12.25L49.05 0L55.25 12.25L55.85 12.7L57 12.9L57 13.3L50.7 13.3L50.7 12.9L51.75 12.7Q52.2 12.5 52.05 12.25L50.6 9.3L45.35 9.3M45.55,8.8L50.35 8.8L47.85 3.85L45.55 8.8M41.55,13.3L37.05 13.3L36.8 12.65L32.65 6.35L33.85 6.35Q35.15 6.35 36.05 5.5Q36.95 4.65 36.95 3.45Q36.95 2.2 36.05 1.3Q35.15 0.4 33.85 0.4L32.1 0.4L32.1 12.25L32.6 12.7L33.75 12.9L33.75 13.3L27.6 13.3L27.6 12.9L28.8 12.7L29.25 12.25L29.25 1.05Q29.25 0.8 28.75 0.65L27.6 0.5L27.6 0L35.7 0Q37.2 0 38.3 1Q39.4 2.05 39.4 3.5Q39.4 4.9 38.4 5.9Q37.4 6.9 35.95 7L40 12.25Q40.5 12.9 41.55 12.9L41.55 13.3M20.45,9.3L15.2 9.3L13.85 12.25Q13.75 12.5 14.1 12.7L14.85 12.9L14.85 13.3L11.85 13.3L11.85 12.9L12.8 12.65L13.25 12.25L18.95 0L25.15 12.25L25.7 12.7L26.85 12.9L26.85 13.3L20.55 13.3L20.55 12.9L21.6 12.7L21.95 12.25L20.45 9.3M15.45,8.8L20.25 8.8L17.7 3.85L15.45 8.8M11.6,11.15L11.6 13.3L0 13.3L8.05 0.5L2.55 0.5Q2.1 0.5 1.75 1Q1.4 1.45 1.4 2.1L0.85 2.1L0.85 0L11.55 0L3.55 12.8L9.95 12.8Q10.4 12.8 10.8 12.3L11.25 11.15L11.6 11.15" />
  </g>
</svg>
