<?xml version="1.0" encoding="utf-8"?>
<!DOCTYPE svg PUBLIC "-//W3C//DTD SVG 1.1//EN" "http://www.w3.org/Graphics/SVG/1.1/DTD/svg11.dtd">
<svg version="1.1" xmlns="http://www.w3.org/2000/svg" xmlns:xlink="http://www.w3.org/1999/xlink" xml:space="preserve">
<g class="level" id="level0">
        <g class="outline">
            <path d="M183.3,316.7 L183,316.7 L38.4,273.7 C38,273.6 37.7,273.2 37.6,272.8 C37.5,272.4 37.7,272 38,271.7 L58.7,254.8 L1.8,237.1 C1.4,237 1.1,236.6 1,236.2 C0.9,235.8 1.1,235.3 1.5,235.1 L103.5,163.4 L104,163.1 L302,18.2 C302.3,18 302.6,17.9 302.9,18 L318.7,21.8 L340.9,27.3 C341.4,27.4 341.8,27.9 341.8,28.4 L341.8,34.7 C341.8,35.1 341.6,35.4 341.3,35.6 L333.4,41.3 C333.1,41.5 332.8,41.6 332.5,41.5 L331,41.1 L331,42.5 C331,42.9 330.8,43.2 330.5,43.4 L327.8,45.3 L331.4,46.2 C331.9,46.3 332.3,46.8 332.3,47.3 L332.3,57 L351.4,57.8 L348.8,26.8 L348.8,26.7 L348.8,20.4 C348.8,20 349,19.6 349.4,19.4 C349.8,19.2 350.2,19.2 350.6,19.5 L403.2,57.6 C403.5,57.8 403.7,58.1 403.7,58.5 L403.7,58.5 C404,58.5 404.2,58.6 404.4,58.8 L414.3,67.6 C414.5,67.8 414.7,68.1 414.7,68.5 L414.7,74.8 C414.7,75 414.6,75.2 414.5,75.4 L401.5,95.9 C401.4,96.1 401.1,96.3 400.9,96.4 L400.9,96.8 C400.9,96.9 400.9,97 400.8,97.2 L394.5,116.4 C394.4,116.6 394.3,116.8 394.1,117 L371.2,133.3 C371.1,133.4 371,133.4 370.9,133.4 C370.9,133.8 370.7,134.1 370.4,134.3 L369.1,135.2 L420.4,158.9 C420.8,159.1 421.1,159.5 421.1,159.9 L421.1,166.3 C421.1,166.7 420.9,167 420.6,167.2 L401,181.2 L400.7,181.5 L391.3,188.2 C391,188.4 390.7,188.5 390.4,188.4 L353.9,179.3 L308,212 L332.2,218 C332.7,218.1 333.1,218.6 333.1,219.1 L333.1,225.4 C333.1,225.8 332.9,226.1 332.6,226.3 L328,229.6 C327.6,229.9 327,229.9 326.6,229.5 L326.3,229.5 L295.3,221.7 C295.1,221.6 294.9,221.5 294.8,221.4 C294.7,221.4 294.7,221.5 294.6,221.5 L294.6,221.5 C294.6,221.9 294.4,222.2 294.1,222.4 L292.6,223.5 L319.7,230.2 C320.2,230.3 320.6,230.8 320.6,231.3 L320.5,237.6 C320.5,238 320.3,238.4 319.9,238.6 L258.3,269.5 C258.2,269.6 258.1,269.6 257.9,269.6 L254.8,269.9 L184,316.5 C183.8,316.6 183.6,316.7 183.3,316.7 L183.3,316.7 L183.3,316.7 Z M183.3,316.7" class="outline"/>
        </g>
        <g class="label">
            <path d="M66.3,99.6 C69.2,99.6 71,97.2 71,93.6 C71,90.2 69.2,88.1 66.3,88.1 C63.4,88.1 61.6,90.4 61.6,94 C61.6,97.5 63.4,99.6 66.3,99.6 L66.3,99.6 L66.3,99.6 Z M66.3,89.4 C68.5,89.4 69.7,91.1 69.7,93.6 C69.7,96.6 68.5,98.4 66.3,98.4 C64.2,98.4 62.9,96.7 62.9,94.1 C62.9,91.2 64.1,89.4 66.3,89.4 L66.3,89.4 L66.3,89.4 Z M96.9,117.5 L92.6,117.5 L92.6,108.1 C92.6,107.7 92.3,107.4 92,107.4 C91.6,107.4 91.4,107.7 91.4,108.1 L91.4,117.7 C91.4,118.3 91.8,118.7 92.5,118.7 L97,118.7 C97.4,118.7 97.7,118.4 97.7,118.1 C97.6,117.8 97.3,117.5 96.9,117.5 L96.9,117.5 L96.9,117.5 Z M102.3,98.5 C101.9,97.3 101.4,96.1 100.9,95.4 C100.6,95 100.3,94.7 99.9,94.4 C101.3,93.9 102.3,92.9 102.3,91.4 C102.3,89.5 101,88.2 98.1,88.2 C97,88.2 96.2,88.3 95.7,88.5 C95.3,88.6 95.2,88.9 95.2,89.3 L95.2,99 C95.2,99.4 95.5,99.6 95.8,99.6 C96.2,99.6 96.4,99.4 96.4,99 L96.4,94.8 L97.6,94.8 C98.8,94.8 99.2,95.3 99.8,96.2 C100.2,96.8 100.6,97.8 101.1,99.2 C101.2,99.5 101.4,99.6 101.7,99.6 C102,99.6 102.3,99.4 102.3,99 C102.4,98.8 102.4,98.7 102.3,98.5 L102.3,98.5 L102.3,98.5 Z M97.8,93.5 L96.4,93.5 L96.4,89.5 C96.8,89.4 97.3,89.4 98,89.4 C100.3,89.4 101,90.3 101,91.5 C101,93.1 99.4,93.6 97.8,93.5 L97.8,93.5 L97.8,93.5 Z M61.3,98.9 C61.3,98.6 61.1,98.3 60.6,98.3 L56.3,98.3 L56.3,88.9 C56.3,88.5 56,88.2 55.7,88.2 C55.3,88.2 55.1,88.5 55.1,88.9 L55.1,98.5 C55.1,99.1 55.5,99.5 56.2,99.5 L60.7,99.5 C61,99.5 61.3,99.2 61.3,98.9 L61.3,98.9 L61.3,98.9 Z M87.9,99.5 L92.8,99.5 C93.2,99.5 93.4,99.2 93.4,98.9 C93.4,98.6 93.2,98.3 92.8,98.3 L88,98.3 L88,94.4 L91.9,94.4 C92.3,94.4 92.5,94.1 92.5,93.8 C92.5,93.5 92.3,93.2 91.9,93.2 L88,93.2 L88,89.5 L92.6,89.5 C93,89.5 93.2,89.2 93.2,88.9 C93.2,88.6 93,88.3 92.6,88.3 L87.8,88.3 C87.1,88.3 86.7,88.7 86.7,89.3 L86.7,98.6 C86.8,99.1 87.2,99.5 87.9,99.5 L87.9,99.5 L87.9,99.5 Z M84.9,88.8 C84.9,88.5 84.7,88.2 84.3,88.2 C84,88.2 83.8,88.5 83.7,88.8 C83.3,91.9 82.7,94.9 81.9,98 L81.9,98 C81,95.2 80.3,91.8 79.6,89.5 C79.3,88.5 79,88.2 78.5,88.2 C78.1,88.2 77.7,88.5 77.5,89.4 C76.8,91.7 75.9,95.4 75.1,98 L75.1,98 C74.3,94.9 73.9,91.9 73.5,88.8 C73.4,88.4 73.2,88.2 72.8,88.2 C72.4,88.2 72.2,88.5 72.2,88.8 L72.2,89.2 C72.6,92.3 73.2,95.5 73.9,98.2 C74.1,99.2 74.5,99.5 75,99.5 C75.5,99.5 75.8,99.2 76.1,98.4 C77,95.9 77.6,93.2 78.5,90 L78.5,90 C79.5,93.2 80,95.9 80.8,98.4 C81.1,99.3 81.4,99.5 81.9,99.5 C82.4,99.5 82.7,99.2 82.9,98.4 C83.7,95.4 84.3,92.3 84.8,89.1 C84.9,89 84.9,88.9 84.9,88.8 L84.9,88.8 L84.9,88.8 Z M89.3,117.5 L85,117.5 L85,108.1 C85,107.7 84.7,107.4 84.4,107.4 C84,107.4 83.8,107.7 83.8,108.1 L83.8,117.7 C83.8,118.3 84.2,118.7 84.9,118.7 L89.4,118.7 C89.8,118.7 90.1,118.4 90.1,118.1 C90,117.8 89.7,117.5 89.3,117.5 L89.3,117.5 L89.3,117.5 Z M70.6,108.7 C70.5,107.9 70.2,107.4 69.5,107.4 C68.9,107.4 68.6,107.8 68.4,108.2 C67.6,110.4 66.7,113.2 65.7,115.9 L65.7,115.9 C64.7,113.4 63.9,110.8 62.9,108.4 C62.7,107.8 62.4,107.4 61.8,107.4 C61.1,107.4 60.8,107.8 60.7,108.7 C60.3,111.6 60.2,114.8 60.2,118 C60.2,118.4 60.4,118.6 60.8,118.6 C61.2,118.6 61.4,118.4 61.4,117.9 C61.4,114.8 61.6,111.8 61.9,108.9 L61.9,108.9 C62.9,111.5 63.8,114.2 64.9,116.8 C65,117.1 65.3,117.4 65.7,117.4 C66.1,117.4 66.4,117.2 66.5,116.8 C67.5,114.3 68.4,111.6 69.3,108.9 L69.3,108.9 C69.7,111.9 69.9,114.9 70,117.9 C70,118.3 70.2,118.6 70.6,118.6 C71,118.6 71.2,118.3 71.2,117.9 L71.2,117.4 C71.3,114.6 71,111.5 70.6,108.7 L70.6,108.7 L70.6,108.7 Z M79.2,108.9 C78.6,107.7 78.1,107.3 77.5,107.3 C76.9,107.3 76.4,107.7 75.8,108.9 C74.9,110.7 74.2,113 73,117.6 C72.9,117.8 72.9,118 72.9,118.1 C72.9,118.5 73.2,118.7 73.5,118.7 C73.8,118.7 74,118.5 74.1,118.2 C74.4,116.8 74.7,115.6 75,114.5 L79.9,114.5 C80.2,115.6 80.5,116.8 80.8,118.2 C80.9,118.5 81.1,118.7 81.4,118.7 C81.8,118.7 82,118.5 82,118.1 C82,118 82,117.8 81.9,117.6 C80.8,113 80.1,110.7 79.2,108.9 L79.2,108.9 L79.2,108.9 Z M75.4,113.5 C76.1,111.1 76.8,109.5 77.3,108.7 C77.3,108.6 77.4,108.6 77.5,108.6 C77.6,108.6 77.7,108.7 77.7,108.7 C78.2,109.5 78.9,111 79.6,113.5 L75.4,113.5 L75.4,113.5 Z M75.4,113.5" class="Shape"/>
            <path d="M416.3,134.8 L414.8,137.1 C414.5,137.6 414.2,138.1 413.9,138.5 C413.7,138.1 413.4,137.6 413.1,137.2 L411.5,134.8 L410.2,134.8 L413.2,139.3 L413.2,142.6 L414.2,142.6 L414.2,139.3 L417.3,134.8 L416.3,134.8 L416.3,134.8 Z M411.8,129.5 L411.8,121.6 L410.8,121.6 L410.8,127.8 L406.7,121.6 L405.6,121.6 L405.6,129.5 L406.6,129.5 L406.6,123.3 L410.7,129.5 L411.8,129.5 L411.8,129.5 Z M415.4,126.2 C415,126.2 414.7,126.3 414.5,126.3 C414.2,126.4 414,126.5 413.8,126.6 C413.6,126.7 413.4,126.9 413.3,127.2 C413.2,127.4 413.1,127.7 413.1,128 C413.1,128.5 413.3,128.9 413.6,129.2 C413.9,129.5 414.4,129.7 415,129.7 C415.4,129.7 415.7,129.6 416.1,129.5 C416.4,129.4 416.8,129.2 417.1,128.9 C417.1,129.2 417.2,129.4 417.3,129.6 L418.3,129.6 C418.2,129.4 418.1,129.2 418.1,128.9 C418.1,128.7 418,128.1 418,127.2 L418,125.9 L418,125 C417.9,124.7 417.8,124.5 417.7,124.3 C417.6,124.1 417.3,124 417,123.9 C416.7,123.8 416.3,123.7 415.8,123.7 C415.3,123.7 414.9,123.8 414.5,123.9 C414.1,124 413.8,124.2 413.6,124.5 C413.4,124.7 413.3,125.1 413.2,125.5 L414.1,125.6 C414.2,125.2 414.4,124.9 414.6,124.8 C414.8,124.6 415.2,124.6 415.6,124.6 C416.1,124.6 416.5,124.7 416.7,124.9 C416.9,125.1 417,125.3 417,125.7 L417,126 C416.7,126 416.2,126.1 415.4,126.2 L415.4,126.2 L415.4,126.2 Z M417.1,127 C417.1,127.4 417,127.7 416.9,128 C416.8,128.3 416.5,128.5 416.3,128.7 C416,128.9 415.7,128.9 415.3,128.9 C414.9,128.9 414.6,128.8 414.4,128.6 C414.2,128.4 414.1,128.2 414.1,128 C414.1,127.8 414.1,127.7 414.2,127.5 C414.3,127.4 414.4,127.3 414.6,127.2 C414.8,127.1 415,127.1 415.4,127 C416.1,126.9 416.6,126.8 417,126.6 L417.1,127 L417.1,127 Z M426,126.4 C426,126 426.1,125.6 426.2,125.3 C426.3,125 426.5,124.8 426.7,124.7 C427,124.6 427.2,124.5 427.5,124.5 C427.9,124.5 428.2,124.6 428.4,124.8 C428.6,125 428.7,125.4 428.7,125.9 L428.7,129.5 L429.7,129.5 L429.7,125.9 C429.7,125.3 429.6,124.9 429.5,124.6 C429.4,124.3 429.1,124.1 428.8,123.9 C428.5,123.7 428.1,123.7 427.7,123.7 C427,123.7 426.4,124 426,124.5 L426,121.7 L425,121.7 L425,129.6 L426,129.6 L426,126.4 L426,126.4 Z M422.2,140.3 L422.2,139 L422.2,138.1 C422.1,137.8 422,137.6 421.9,137.4 C421.8,137.2 421.5,137.1 421.2,137 C420.9,136.9 420.5,136.8 420,136.8 C419.5,136.8 419.1,136.9 418.7,137 C418.3,137.1 418,137.3 417.8,137.6 C417.6,137.8 417.5,138.2 417.4,138.6 L418.3,138.7 C418.4,138.3 418.6,138 418.8,137.9 C419,137.7 419.4,137.7 419.8,137.7 C420.3,137.7 420.7,137.8 420.9,138 C421.1,138.2 421.2,138.4 421.2,138.8 L421.2,139.1 C420.8,139.2 420.3,139.3 419.5,139.4 C419.1,139.4 418.8,139.5 418.6,139.5 C418.3,139.6 418.1,139.7 417.9,139.8 C417.7,139.9 417.5,140.1 417.4,140.4 C417.3,140.6 417.2,140.9 417.2,141.2 C417.2,141.7 417.4,142.1 417.7,142.4 C418,142.7 418.5,142.9 419.1,142.9 C419.5,142.9 419.8,142.8 420.2,142.7 C420.5,142.6 420.9,142.4 421.2,142.1 C421.2,142.4 421.3,142.6 421.4,142.8 L422.4,142.8 C422.3,142.6 422.2,142.4 422.2,142.1 L422.2,140.3 L422.2,140.3 L422.2,140.3 Z M421.2,140.2 C421.2,140.6 421.1,140.9 421,141.2 C420.9,141.5 420.6,141.7 420.4,141.9 C420.1,142.1 419.8,142.1 419.4,142.1 C419,142.1 418.7,142 418.5,141.8 C418.3,141.6 418.2,141.4 418.2,141.2 C418.2,141 418.2,140.9 418.3,140.7 C418.4,140.6 418.5,140.5 418.7,140.4 C418.9,140.3 419.1,140.3 419.5,140.2 C420.2,140.1 420.7,140 421.1,139.8 L421.2,140.2 L421.2,140.2 Z M431.1,122.7 L431.6,122.7 C431.6,123 431.5,123.2 431.4,123.4 C431.3,123.6 431.2,123.7 431,123.8 L431.2,124.2 C431.5,124.1 431.8,123.8 431.9,123.5 C432,123.3 432.1,122.9 432.1,122.5 L432.1,121.6 L431.1,121.6 L431.1,122.7 L431.1,122.7 Z M437.6,127 C437.4,126.8 437.2,126.6 437,126.5 C436.7,126.4 436.3,126.2 435.6,126.1 C435.1,126 434.8,125.9 434.7,125.9 C434.5,125.8 434.4,125.7 434.3,125.6 C434.2,125.5 434.2,125.4 434.2,125.3 C434.2,125.1 434.3,124.9 434.5,124.8 C434.7,124.7 435,124.6 435.5,124.6 C435.9,124.6 436.2,124.7 436.4,124.8 C436.6,124.9 436.7,125.2 436.8,125.5 L437.7,125.4 C437.6,125 437.5,124.7 437.4,124.5 C437.2,124.3 437,124.1 436.7,124 C436.4,123.9 436,123.8 435.5,123.8 C435.2,123.8 434.9,123.8 434.7,123.9 C434.4,124 434.2,124.1 434.1,124.2 C433.9,124.3 433.7,124.5 433.6,124.7 C433.5,124.9 433.4,125.2 433.4,125.4 C433.4,125.7 433.5,125.9 433.6,126.2 C433.7,126.4 434,126.6 434.2,126.7 C434.5,126.8 435,127 435.7,127.2 C436.2,127.3 436.6,127.4 436.7,127.5 C436.9,127.6 437,127.8 437,128 C437,128.2 436.9,128.5 436.7,128.6 C436.5,128.8 436.2,128.9 435.7,128.9 C435.3,128.9 434.9,128.8 434.7,128.6 C434.5,128.4 434.3,128.1 434.3,127.7 L433.3,127.8 C433.4,128.4 433.7,128.9 434,129.2 C434.4,129.5 435,129.7 435.7,129.7 C436.1,129.7 436.5,129.6 436.9,129.5 C437.3,129.3 437.5,129.1 437.7,128.8 C437.9,128.5 438,128.2 438,127.9 C437.8,127.5 437.7,127.2 437.6,127 L437.6,127 L437.6,127 Z M431,137.7 C430.8,137.5 430.6,137.3 430.3,137.1 C430,137 429.7,136.9 429.4,136.9 C428.9,136.9 428.5,137 428.1,137.3 C427.7,137.5 427.4,137.9 427.2,138.4 C427,138.9 426.9,139.4 426.9,140 C426.9,140.6 427,141.1 427.2,141.6 C427.4,142 427.7,142.4 428.1,142.6 C428.5,142.8 428.9,143 429.4,143 C430.1,143 430.6,142.7 431,142.2 L431,142.9 L431.9,142.9 L431.9,135 L430.9,135 L431,137.7 L431,137.7 Z M430.6,141.5 C430.3,141.8 429.9,142 429.5,142 C429.1,142 428.7,141.8 428.4,141.5 C428.1,141.1 427.9,140.6 427.9,139.9 C427.9,139.1 428,138.6 428.3,138.2 C428.6,137.8 428.9,137.7 429.4,137.7 C429.8,137.7 430.2,137.9 430.5,138.2 C430.8,138.6 431,139.1 431,139.9 C431,140.6 430.9,141.2 430.6,141.5 L430.6,141.5 L430.6,141.5 Z M425.1,137.1 C424.9,137.2 424.7,137.5 424.5,137.9 L424.5,137 L423.6,137 L423.6,142.7 L424.6,142.7 L424.6,139.7 C424.6,139.3 424.7,138.9 424.8,138.6 C424.9,138.4 425,138.2 425.2,138.1 C425.4,138 425.6,137.9 425.8,137.9 C426,137.9 426.3,138 426.5,138.1 L426.8,137.2 C426.5,137 426.1,136.9 425.8,136.9 C425.5,136.9 425.3,136.9 425.1,137.1 L425.1,137.1 L425.1,137.1 Z M423.7,127 C423.5,126.8 423.3,126.6 423.1,126.5 C422.8,126.4 422.4,126.2 421.7,126.1 C421.2,126 420.9,125.9 420.8,125.9 C420.6,125.8 420.5,125.7 420.4,125.6 C420.3,125.5 420.3,125.4 420.3,125.3 C420.3,125.1 420.4,124.9 420.6,124.8 C420.8,124.7 421.1,124.6 421.6,124.6 C422,124.6 422.3,124.7 422.5,124.8 C422.7,125 422.8,125.2 422.9,125.5 L423.8,125.4 C423.7,125 423.6,124.7 423.5,124.5 C423.3,124.3 423.1,124.1 422.8,124 C422.5,123.9 422.1,123.8 421.6,123.8 C421.3,123.8 421,123.8 420.8,123.9 C420.5,124 420.3,124.1 420.2,124.2 C420,124.3 419.8,124.5 419.7,124.7 C419.6,124.9 419.5,125.2 419.5,125.4 C419.5,125.7 419.6,125.9 419.7,126.2 C419.8,126.4 420,126.6 420.3,126.7 C420.6,126.8 421.1,127 421.8,127.2 C422.3,127.3 422.7,127.4 422.8,127.5 C423,127.6 423.1,127.8 423.1,128 C423.1,128.2 423,128.5 422.8,128.6 C422.6,128.8 422.3,128.9 421.8,128.9 C421.4,128.9 421,128.8 420.8,128.6 C420.6,128.4 420.4,128.1 420.4,127.7 L419.4,127.8 C419.5,128.4 419.8,128.9 420.1,129.2 C420.4,129.5 421.1,129.7 421.8,129.7 C422.2,129.7 422.6,129.6 423,129.5 C423.4,129.3 423.6,129.1 423.8,128.8 C424,128.5 424.1,128.2 424.1,127.9 C423.9,127.5 423.8,127.2 423.7,127 L423.7,127 L423.7,127 Z M423.7,127" class="Shape"/>
            <path d="M374,9.9 L379.9,6.1 L375.8,11.3 L376.6,11.9 L381.4,5.7 L380.3,4.8 L375.5,8 C375,8.3 374.6,8.6 374.4,8.7 L374.8,7.5 L376.8,2 L375.6,1 L370.8,7.2 L371.6,7.8 L375.7,2.5 L373.4,9.2 L374,9.9 L374,9.9 Z M383.4,17.2 L385.2,14.8 C385.5,14.5 385.7,14.2 386,14 C386.2,13.9 386.4,13.8 386.6,13.8 C386.8,13.8 387,13.9 387.2,14 C387.4,14.1 387.5,14.3 387.6,14.6 L388.4,14.1 C388.3,13.7 388.1,13.4 387.8,13.2 C387.6,13.1 387.4,13 387.2,13 C387,13 386.6,13.1 386.2,13.3 L386.7,12.6 L386,12.1 L382.5,16.6 L383.4,17.2 L383.4,17.2 Z M395.9,24.8 C395.5,25.3 395.3,25.6 395.3,25.8 C395.3,26 395.3,26.2 395.4,26.4 C395.5,26.6 395.7,26.8 395.9,27 C396.1,27.1 396.3,27.3 396.5,27.4 L396.9,26.6 C396.7,26.5 396.6,26.4 396.5,26.4 C396.4,26.3 396.3,26.2 396.3,26.1 L396.3,25.9 C396.3,25.9 396.4,25.7 396.6,25.4 L398.7,22.8 L399.5,23.4 L400,22.8 L399.2,22.2 L400.4,20.6 L399.3,20.5 L398.4,21.6 L397.8,21.2 L397.3,21.8 L397.9,22.2 L395.9,24.8 L395.9,24.8 Z M380.3,9.6 L381,10.3 C381.3,10 381.6,9.9 381.9,9.9 C382.2,9.9 382.5,10.1 382.8,10.3 C383.2,10.6 383.4,10.9 383.5,11.2 C383.5,11.4 383.4,11.7 383.2,12 L383,12.2 C382.6,12.1 382.1,11.8 381.4,11.4 C381.1,11.2 380.8,11.1 380.6,11 C380.4,10.9 380.1,10.8 379.9,10.8 C379.7,10.8 379.4,10.8 379.2,10.9 C379,11 378.8,11.2 378.6,11.4 C378.3,11.8 378.2,12.2 378.3,12.6 C378.4,13 378.7,13.5 379.2,13.9 C379.5,14.1 379.8,14.3 380.2,14.4 C380.5,14.5 380.9,14.5 381.4,14.5 C381.3,14.7 381.2,15 381.1,15.2 L381.9,15.8 C381.9,15.6 382,15.3 382.1,15.1 C382.2,14.9 382.5,14.4 383.1,13.7 L383.9,12.7 C384.2,12.4 384.3,12.1 384.4,12 C384.5,11.8 384.6,11.5 384.6,11.3 C384.6,11.1 384.5,10.8 384.3,10.5 C384.1,10.2 383.9,9.9 383.5,9.6 C383.1,9.3 382.7,9.1 382.4,9 C382,8.9 381.7,8.9 381.4,8.9 C380.9,9.1 380.6,9.3 380.3,9.6 L380.3,9.6 L380.3,9.6 Z M382.3,13.1 C382,13.4 381.8,13.7 381.6,13.8 C381.3,13.9 381,14 380.7,13.9 C380.4,13.8 380.1,13.7 379.8,13.5 C379.5,13.3 379.3,13 379.3,12.8 C379.3,12.5 379.3,12.3 379.5,12.1 C379.6,12 379.7,11.9 379.9,11.8 C380.1,11.7 380.2,11.7 380.4,11.8 C380.6,11.8 380.8,12 381.2,12.2 C381.8,12.6 382.3,12.8 382.7,12.9 L382.3,13.1 L382.3,13.1 Z M386.3,19.5 L387.7,17.7 L388.6,17.6 L388.3,21.1 L389.2,21.8 L389.5,17.5 L392.5,17.2 L391.5,16.4 L388.3,16.8 L391.1,13.3 L390.3,12.7 L385.5,18.9 L386.3,19.5 L386.3,19.5 Z M391.4,19.9 C390.8,20.6 390.6,21.3 390.6,22.1 C390.7,22.8 391,23.4 391.7,23.9 C392.2,24.3 392.7,24.5 393.3,24.5 C393.8,24.5 394.3,24.3 394.8,24 L394.1,23.3 C393.7,23.5 393.4,23.6 393.1,23.6 C392.8,23.6 392.5,23.5 392.2,23.3 C391.8,23 391.6,22.6 391.6,22.2 C391.6,21.7 391.7,21.3 392.1,20.7 L395.5,23.3 C395.6,23.2 395.6,23.1 395.7,23.1 C396.3,22.4 396.5,21.6 396.5,20.9 C396.4,20.2 396.1,19.6 395.5,19.1 C394.9,18.6 394.2,18.4 393.5,18.5 C392.6,18.7 392,19.1 391.4,19.9 L391.4,19.9 L391.4,19.9 Z M393.7,19.4 C394.1,19.4 394.5,19.5 394.9,19.7 C395.3,20 395.5,20.4 395.5,20.9 C395.5,21.2 395.4,21.6 395.1,22 L392.6,20 C392.9,19.7 393.3,19.5 393.7,19.4 L393.7,19.4 L393.7,19.4 Z M406.9,31.8 C406.3,32.5 406.1,33.3 406.1,34 C406.1,34.7 406.4,35.3 407,35.7 C407.2,35.9 407.5,36 407.8,36.1 C408.1,36.2 408.4,36.1 408.6,36.1 L406.9,38.3 L407.7,38.9 L412.6,32.7 L411.9,32.2 L411.4,32.8 C411.4,32.1 411.2,31.5 410.6,31.1 C410.2,30.8 409.8,30.7 409.4,30.6 C409,30.6 408.5,30.6 408.1,30.9 C407.6,31 407.2,31.4 406.9,31.8 L406.9,31.8 L406.9,31.8 Z M410.2,31.6 C410.5,31.9 410.7,32.2 410.7,32.7 C410.7,33.2 410.5,33.7 410,34.3 C409.6,34.9 409.1,35.2 408.7,35.3 C408.3,35.4 407.9,35.3 407.5,35.1 C407.2,34.8 407,34.5 407,34 C407,33.5 407.2,33 407.7,32.4 C408.2,31.8 408.6,31.5 409.1,31.4 C409.4,31.3 409.8,31.4 410.2,31.6 L410.2,31.6 L410.2,31.6 Z M401.9,31.8 C402.3,32.1 402.8,32.4 403.3,32.5 C403.8,32.6 404.2,32.6 404.6,32.5 C405,32.4 405.4,32.1 405.6,31.8 C405.9,31.5 406,31.1 406,30.7 C406,30.3 405.9,29.9 405.7,29.4 C405.5,29.1 405.2,28.6 404.6,27.9 C404.1,27.2 403.8,26.8 403.7,26.5 C403.7,26.2 403.7,26 403.9,25.8 C404.1,25.5 404.4,25.4 404.8,25.4 C405.2,25.4 405.6,25.6 406.1,26 C406.6,26.4 406.9,26.8 406.9,27.1 C406.9,27.4 406.9,27.9 406.6,28.3 L407.4,28.9 C407.7,28.5 407.8,28.1 407.9,27.7 C407.9,27.3 407.8,26.8 407.6,26.4 C407.4,26 407,25.6 406.6,25.2 C406.2,24.9 405.7,24.6 405.3,24.5 C404.8,24.4 404.4,24.4 404,24.5 C403.6,24.6 403.3,24.9 403,25.2 C402.8,25.5 402.6,25.8 402.6,26.1 C402.6,26.4 402.6,26.8 402.8,27.2 C402.9,27.5 403.2,27.9 403.7,28.5 C404.2,29.1 404.5,29.5 404.6,29.7 C404.8,30 404.9,30.3 404.9,30.5 C404.9,30.7 404.8,30.9 404.7,31.1 C404.6,31.3 404.4,31.4 404.1,31.5 C403.9,31.6 403.6,31.6 403.3,31.5 C403,31.4 402.7,31.2 402.4,31 C402,30.7 401.8,30.4 401.6,30.1 C401.4,29.8 401.3,29.4 401.4,29.1 C401.4,28.8 401.5,28.5 401.7,28.1 L400.9,27.6 C400.6,28 400.4,28.5 400.4,29 C400.4,29.5 400.5,30 400.7,30.4 C401,30.9 401.4,31.4 401.9,31.8 L401.9,31.8 L401.9,31.8 Z M395.4,38.6 C395.7,38.3 395.8,38 395.9,37.9 C396,37.7 396.1,37.4 396.1,37.2 C396.1,37 396,36.7 395.8,36.4 C395.6,36.1 395.4,35.8 395,35.5 C394.6,35.2 394.2,35 393.9,34.9 C393.5,34.8 393.2,34.8 392.9,34.8 C392.6,34.9 392.3,35 392,35.3 L392.7,36 C393,35.7 393.3,35.6 393.6,35.6 C393.9,35.6 394.2,35.8 394.5,36 C394.9,36.3 395.1,36.6 395.2,36.9 C395.2,37.1 395.1,37.4 394.9,37.7 L394.7,37.9 C394.3,37.8 393.8,37.5 393.1,37.1 C392.8,36.9 392.5,36.8 392.3,36.7 C392.1,36.6 391.8,36.5 391.6,36.5 C391.4,36.5 391.1,36.5 390.9,36.6 C390.7,36.7 390.5,36.9 390.3,37.1 C390,37.5 389.9,37.9 390,38.3 C390.1,38.7 390.4,39.2 390.9,39.6 C391.2,39.8 391.5,40 391.9,40.1 C392.2,40.2 392.6,40.2 393.1,40.2 C393,40.4 392.9,40.7 392.8,40.9 L393.6,41.5 C393.6,41.3 393.7,41 393.8,40.8 C393.9,40.6 394.2,40.1 394.8,39.4 L395.4,38.6 L395.4,38.6 Z M393.9,39 C393.6,39.3 393.4,39.6 393.2,39.7 C392.9,39.8 392.6,39.9 392.3,39.8 C392,39.7 391.7,39.6 391.4,39.4 C391.1,39.2 390.9,38.9 390.9,38.7 C390.9,38.4 390.9,38.2 391.1,38 C391.2,37.9 391.3,37.8 391.5,37.7 C391.7,37.6 391.8,37.6 392,37.7 C392.2,37.7 392.4,37.9 392.8,38.1 C393.4,38.5 393.9,38.7 394.3,38.8 L393.9,39 L393.9,39 Z M420.9,41.8 C421.2,41.5 421.3,41.2 421.4,41.1 C421.5,40.9 421.6,40.6 421.6,40.4 C421.6,40.2 421.5,39.9 421.3,39.6 C421.1,39.3 420.9,39 420.5,38.7 C420.1,38.4 419.7,38.2 419.4,38.1 C419,38 418.7,38 418.4,38 C418.1,38.1 417.8,38.2 417.5,38.5 L418.2,39.2 C418.5,38.9 418.8,38.8 419.1,38.8 C419.4,38.8 419.7,39 420,39.2 C420.4,39.5 420.6,39.8 420.7,40.1 C420.7,40.3 420.6,40.6 420.4,40.9 L420.2,41.1 C419.8,41 419.3,40.7 418.6,40.3 C418.3,40.1 418,40 417.8,39.9 C417.6,39.8 417.3,39.7 417.1,39.7 C416.9,39.7 416.6,39.7 416.4,39.8 C416.2,39.9 416,40.1 415.8,40.3 C415.5,40.7 415.4,41.1 415.5,41.5 C415.6,41.9 415.9,42.4 416.4,42.8 C416.7,43 417,43.2 417.4,43.3 C417.7,43.4 418.1,43.4 418.6,43.4 C418.5,43.6 418.4,43.9 418.3,44.1 L419.1,44.7 C419.1,44.5 419.2,44.2 419.3,44 C419.4,43.8 419.7,43.3 420.3,42.6 L420.9,41.8 L420.9,41.8 Z M419.4,42.1 C419.1,42.4 418.9,42.7 418.7,42.8 C418.4,42.9 418.1,43 417.8,42.9 C417.5,42.8 417.2,42.7 416.9,42.5 C416.6,42.3 416.4,42 416.4,41.8 C416.4,41.5 416.4,41.3 416.6,41.1 C416.7,41 416.8,40.9 417,40.8 C417.2,40.7 417.3,40.7 417.5,40.8 C417.7,40.8 417.9,41 418.3,41.2 C418.9,41.6 419.4,41.8 419.8,41.9 L419.4,42.1 L419.4,42.1 Z M416.5,35.8 L414.6,38.2 C414.3,38.6 414,38.8 413.8,39 C413.6,39.1 413.3,39.2 413,39.1 C412.7,39.1 412.4,39 412.2,38.8 C412,38.6 411.8,38.4 411.8,38.2 C411.7,38 411.8,37.7 411.9,37.5 C412,37.3 412.2,37.1 412.5,36.7 L414.4,34.2 L413.6,33.6 L411.4,36.4 C411.1,36.7 411,37 410.9,37.1 C410.8,37.4 410.7,37.6 410.7,37.8 C410.7,38 410.8,38.3 410.9,38.6 C411,38.9 411.3,39.1 411.5,39.3 C412.1,39.8 412.8,39.9 413.5,39.7 L413,40.4 L413.7,40.9 L417.2,36.4 L416.5,35.8 L416.5,35.8 Z M424.4,43.1 C424.6,43.2 424.7,43.4 424.8,43.7 L425.6,43.2 C425.5,42.8 425.3,42.5 425,42.3 C424.8,42.2 424.6,42.1 424.4,42.1 C424.2,42.1 423.8,42.2 423.4,42.4 L423.9,41.7 L423.2,41.2 L419.7,45.7 L420.5,46.3 L422.3,43.9 C422.6,43.6 422.8,43.3 423.1,43.1 C423.3,43 423.5,42.9 423.7,42.9 C424,42.9 424.2,42.9 424.4,43.1 L424.4,43.1 L424.4,43.1 Z M428.1,44.7 C427.5,44.2 426.8,44 426.1,44.1 C425.4,44.2 424.7,44.6 424.1,45.4 C423.5,46.1 423.3,46.8 423.3,47.6 C423.4,48.3 423.7,48.9 424.4,49.4 C424.9,49.8 425.4,50 426,50 C426.5,50 427,49.8 427.5,49.5 L426.8,48.8 C426.4,49 426.1,49.1 425.8,49.1 C425.5,49.1 425.2,49 424.9,48.8 C424.5,48.5 424.3,48.1 424.3,47.7 C424.3,47.2 424.4,46.8 424.8,46.2 L428.2,48.8 C428.3,48.7 428.3,48.6 428.4,48.6 C429,47.9 429.2,47.1 429.2,46.4 C429.1,45.8 428.7,45.2 428.1,44.7 L428.1,44.7 L428.1,44.7 Z M427.9,47.6 L425.4,45.6 C425.7,45.2 426.1,45 426.5,45 C426.9,45 427.3,45.1 427.7,45.3 C428.1,45.6 428.3,46 428.3,46.5 C428.2,46.8 428.1,47.2 427.9,47.6 L427.9,47.6 L427.9,47.6 Z M408.9,46.5 C408.3,46 407.6,45.8 406.9,45.9 C406.2,46 405.5,46.4 404.9,47.2 C404.3,47.9 404.1,48.6 404.1,49.4 C404.2,50.1 404.5,50.7 405.2,51.2 C405.7,51.6 406.2,51.8 406.8,51.8 C407.3,51.8 407.8,51.6 408.3,51.3 L407.6,50.6 C407.2,50.8 406.9,50.9 406.6,50.9 C406.3,50.9 406,50.8 405.7,50.6 C405.3,50.3 405.1,49.9 405.1,49.5 C405.1,49 405.2,48.6 405.6,48 L409,50.6 C409.1,50.5 409.1,50.4 409.2,50.4 C409.8,49.7 410,48.9 410,48.2 C409.8,47.5 409.5,46.9 408.9,46.5 L408.9,46.5 L408.9,46.5 Z M408.7,49.3 L406.2,47.3 C406.5,46.9 406.9,46.7 407.3,46.7 C407.7,46.7 408.1,46.8 408.5,47 C408.9,47.3 409.1,47.7 409.1,48.2 C409,48.6 408.9,48.9 408.7,49.3 L408.7,49.3 L408.7,49.3 Z M400.7,41.8 C400.8,41.5 400.9,41.3 400.9,41.1 C400.9,40.9 400.8,40.6 400.7,40.3 C400.5,40 400.3,39.8 400.1,39.6 C399.5,39.1 398.8,39 398.1,39.2 L398.6,38.6 L397.9,38.1 L394.4,42.6 L395.2,43.2 L397.1,40.7 C397.6,40.1 398,39.8 398.4,39.8 C398.8,39.8 399.2,39.9 399.5,40.1 C399.7,40.3 399.8,40.4 399.9,40.7 C400,40.9 400,41.1 399.9,41.3 C399.8,41.5 399.7,41.8 399.4,42.1 L397.3,44.8 L398.1,45.4 L400.3,42.6 C400.4,42.2 400.6,41.9 400.7,41.8 L400.7,41.8 L400.7,41.8 Z M385.8,34.7 L385.8,34.5 C385.8,34.4 385.9,34.3 386.1,34 L388.2,31.4 L389,32 L389.5,31.4 L388.7,30.8 L389.9,29.2 L388.8,29.1 L387.9,30.2 L387.3,29.8 L386.8,30.4 L387.4,30.8 L385.4,33.4 C385,33.9 384.8,34.2 384.8,34.4 C384.8,34.6 384.8,34.8 384.9,35 C385,35.2 385.2,35.4 385.4,35.6 C385.6,35.7 385.8,35.9 386,36 L386.4,35.2 C386.2,35.1 386.1,35 386,35 C385.9,34.9 385.9,34.8 385.8,34.7 L385.8,34.7 L385.8,34.7 Z M385.7,30.1 C385.8,29.8 385.9,29.6 385.9,29.4 C385.9,29.2 385.8,28.9 385.7,28.6 C385.6,28.3 385.3,28.1 385.1,27.9 C384.5,27.4 383.8,27.3 383.1,27.5 L383.6,26.9 L382.9,26.4 L379.4,30.9 L380.2,31.5 L382.1,29 C382.6,28.4 383,28.1 383.4,28.1 C383.8,28.1 384.2,28.2 384.5,28.4 C384.7,28.6 384.8,28.7 384.9,29 C385,29.2 385,29.4 384.9,29.6 C384.8,29.8 384.7,30.1 384.4,30.4 L382.3,33.1 L383.1,33.7 L385.3,30.9 C385.5,30.5 385.7,30.3 385.7,30.1 L385.7,30.1 L385.7,30.1 Z M390.6,33.7 C390.8,33.7 391,33.8 391.2,33.9 C391.4,34 391.5,34.2 391.6,34.5 L392.4,34 C392.3,33.6 392.1,33.3 391.8,33.1 C391.6,33 391.4,32.9 391.2,32.9 C391,32.9 390.6,33 390.2,33.2 L390.7,32.5 L390,32 L386.5,36.5 L387.3,37.1 L389.1,34.7 C389.4,34.4 389.6,34.1 389.9,33.9 C390.2,33.8 390.4,33.7 390.6,33.7 L390.6,33.7 L390.6,33.7 Z M402.8,43.4 C403.3,43.3 403.7,43.4 404.1,43.7 C404.4,43.9 404.5,44.1 404.6,44.4 C404.7,44.7 404.6,45 404.4,45.4 L405.2,45.9 C405.5,45.4 405.5,44.9 405.4,44.4 C405.3,43.9 405,43.5 404.5,43.1 C404.1,42.8 403.7,42.6 403.2,42.5 C402.7,42.4 402.3,42.5 401.8,42.7 C401.4,42.9 400.9,43.3 400.6,43.8 C400,44.6 399.7,45.3 399.8,46 C399.9,46.7 400.2,47.3 400.8,47.8 C401.3,48.2 401.8,48.4 402.4,48.3 C403,48.3 403.5,48 404,47.6 L403.3,46.9 C402.9,47.2 402.6,47.4 402.3,47.4 C402,47.4 401.6,47.3 401.3,47.1 C400.9,46.8 400.7,46.4 400.7,46 C400.7,45.5 400.9,45 401.4,44.4 C401.9,43.8 402.4,43.5 402.8,43.4 L402.8,43.4 L402.8,43.4 Z M376.8,24.2 L380.2,26.9 L380.8,26.2 L377.4,23.5 L378.9,21.6 L382.6,24.5 L383.2,23.8 L378.7,20.3 L373.9,26.5 L378.5,30.1 L379.1,29.4 L375.3,26.4 L376.8,24.2 L376.8,24.2 Z M376.8,24.2" class="Shape"/>
            <path d="M38.5,150.5 C38.2,150.3 37.8,150.2 37.5,150.2 C37.3,150.2 37.1,150.3 36.9,150.4 C36.7,150.5 36.5,150.8 36.3,151.2 L36.3,150.3 L35.4,150.3 L35.4,156 L36.4,156 L36.4,153 C36.4,152.6 36.5,152.2 36.6,151.9 C36.7,151.7 36.8,151.5 37,151.4 C37.2,151.3 37.4,151.2 37.6,151.2 C37.8,151.2 38.1,151.3 38.3,151.4 L38.5,150.5 L38.5,150.5 Z M35.7,162.4 L36.7,162.4 L36.7,161.3 L35.7,161.3 L35.7,162.4 L35.7,162.4 Z M67.2,152.4 L70.9,152.4 L70.9,151.5 L67.2,151.5 L67.2,149.1 L71.5,149.1 L71.5,148.2 L66.2,148.2 L66.2,156.1 L67.2,156.1 L67.2,152.4 L67.2,152.4 Z M41.9,164.2 C41.5,163.7 40.9,163.4 40.2,163.4 C39.7,163.4 39.3,163.5 38.9,163.8 C38.5,164.1 38.2,164.4 38,164.9 C37.8,165.4 37.7,165.9 37.7,166.4 C37.7,167.2 37.9,167.9 38.3,168.4 C38.7,169 39.3,169.2 40.1,169.2 C40.7,169.2 41.3,169 41.7,168.5 C41.7,169.1 41.7,169.5 41.6,169.7 C41.5,170 41.3,170.3 41.1,170.5 C40.9,170.7 40.5,170.8 40.1,170.8 C39.7,170.8 39.4,170.7 39.1,170.5 C38.9,170.4 38.8,170.2 38.8,169.9 L37.9,169.8 C37.9,170.4 38.1,170.9 38.5,171.2 C38.9,171.5 39.5,171.7 40.1,171.7 C40.7,171.7 41.2,171.6 41.5,171.4 C41.9,171.2 42.2,170.9 42.4,170.5 C42.6,170.1 42.7,169.5 42.7,168.6 L42.7,163.7 L41.8,163.7 L41.8,164.2 L41.9,164.2 L41.9,164.2 Z M41.4,167.9 C41.1,168.2 40.7,168.4 40.3,168.4 C39.9,168.4 39.5,168.2 39.2,167.9 C38.9,167.6 38.8,167 38.8,166.3 C38.8,165.6 39,165.1 39.3,164.7 C39.6,164.4 40,164.2 40.4,164.2 C40.8,164.2 41.2,164.4 41.5,164.7 C41.8,165.1 42,165.6 42,166.3 C41.9,167 41.7,167.5 41.4,167.9 L41.4,167.9 L41.4,167.9 Z M59.2,156.1 C59.9,156.1 60.4,155.9 60.8,155.6 C61.2,155.3 61.5,154.8 61.7,154.2 L60.7,154.1 C60.6,154.5 60.4,154.8 60.1,155 C59.9,155.2 59.5,155.3 59.2,155.3 C58.7,155.3 58.3,155.1 58,154.8 C57.7,154.5 57.5,154 57.5,153.4 L61.8,153.4 L61.8,153.1 C61.8,152.2 61.6,151.4 61.1,150.9 C60.6,150.4 60,150.1 59.2,150.1 C58.4,150.1 57.8,150.4 57.3,150.9 C56.8,151.4 56.6,152.2 56.6,153.1 C56.6,154 56.8,154.7 57.3,155.3 C57.7,155.9 58.3,156.1 59.2,156.1 L59.2,156.1 L59.2,156.1 Z M58,151.4 C58.3,151.1 58.7,151 59.1,151 C59.6,151 60,151.2 60.3,151.6 C60.5,151.8 60.6,152.2 60.7,152.7 L57.5,152.7 C57.5,152.1 57.7,151.7 58,151.4 L58,151.4 L58,151.4 Z M34,155.2 C33.9,155.2 33.7,155.2 33.7,155.1 C33.6,155.1 33.6,155 33.5,154.9 C33.5,154.8 33.4,154.6 33.4,154.4 L33.4,151 L34.4,151 L34.4,150.2 L33.4,150.2 L33.4,148.2 L32.4,148.8 L32.4,150.2 L31.7,150.2 L31.7,151 L32.4,151 L32.4,154.3 C32.4,154.9 32.4,155.3 32.5,155.4 C32.6,155.6 32.7,155.7 32.9,155.8 C33.1,155.9 33.4,156 33.7,156 C33.9,156 34.2,156 34.4,155.9 L34.3,155 C34.2,155.2 34.1,155.2 34,155.2 L34,155.2 L34,155.2 Z M35.7,169.2 L36.7,169.2 L36.7,163.5 L35.7,163.5 L35.7,169.2 L35.7,169.2 Z M20,152.4 L24.4,152.4 L24.4,151.5 L20,151.5 L20,149.1 L24.7,149.1 L24.7,148.2 L19,148.2 L19,156.1 L24.9,156.1 L24.9,155.2 L20,155.2 L20,152.4 L20,152.4 Z M33,164.6 L28.9,164.6 L28.9,161.4 L27.9,161.4 L27.9,169.3 L28.9,169.3 L28.9,165.6 L33,165.6 L33,169.3 L34,169.3 L34,161.4 L33,161.4 L33,164.6 L33,164.6 Z M29.3,151.2 C29.5,151.3 29.6,151.5 29.7,151.7 C29.8,151.9 29.8,152.2 29.8,152.6 L29.8,156.1 L30.8,156.1 L30.8,152.6 C30.8,152.2 30.8,151.8 30.7,151.7 C30.6,151.4 30.5,151.2 30.4,151 C30.3,150.8 30,150.6 29.8,150.5 C29.5,150.4 29.2,150.3 28.9,150.3 C28.1,150.3 27.5,150.6 27.1,151.2 L27.1,150.4 L26.2,150.4 L26.2,156.1 L27.2,156.1 L27.2,153 C27.2,152.3 27.3,151.8 27.6,151.5 C27.9,151.2 28.3,151.1 28.7,151.1 C28.9,151 29.2,151.1 29.3,151.2 L29.3,151.2 L29.3,151.2 Z M55.1,155.6 C55.5,155.2 55.8,154.7 55.9,154.1 L54.9,154 C54.8,154.5 54.7,154.8 54.4,155.1 C54.1,155.3 53.8,155.4 53.4,155.4 C52.9,155.4 52.5,155.2 52.3,154.9 C52,154.6 51.9,154 51.9,153.2 C51.9,152.4 52.1,151.9 52.4,151.5 C52.7,151.1 53.1,151 53.6,151 C53.9,151 54.2,151.1 54.4,151.3 C54.6,151.5 54.8,151.8 54.9,152.2 L55.8,152.1 C55.7,151.5 55.4,151.1 55,150.8 C54.6,150.5 54.1,150.3 53.5,150.3 C53,150.3 52.6,150.4 52.1,150.6 C51.7,150.8 51.4,151.2 51.2,151.6 C51,152.1 50.9,152.6 50.9,153.2 C50.9,154.2 51.1,154.9 51.6,155.4 C52.1,155.9 52.7,156.2 53.5,156.2 C54.2,156.1 54.7,155.9 55.1,155.6 L55.1,155.6 L55.1,155.6 Z M81,154.8 C81.2,154.4 81.3,153.8 81.3,153.1 C81.3,152.2 81.1,151.5 80.6,151 C80.1,150.5 79.5,150.2 78.7,150.2 C78,150.2 77.4,150.4 76.9,150.8 C76.3,151.3 76,152.1 76,153.1 C76,154.1 76.2,154.8 76.7,155.3 C77.2,155.8 77.8,156.1 78.6,156.1 C79.1,156.1 79.6,156 80,155.8 C80.4,155.5 80.8,155.2 81,154.8 L81,154.8 L81,154.8 Z M78.6,155.3 C78.1,155.3 77.7,155.1 77.4,154.8 C77.1,154.4 76.9,153.9 76.9,153.2 C76.9,152.5 77.1,151.9 77.4,151.6 C77.7,151.3 78.1,151.1 78.6,151.1 C79.1,151.1 79.5,151.3 79.8,151.6 C80.1,151.9 80.3,152.5 80.3,153.2 C80.3,153.9 80.1,154.5 79.8,154.9 C79.5,155.2 79.1,155.3 78.6,155.3 L78.6,155.3 L78.6,155.3 Z M43.6,153.6 L43.6,152.3 L43.6,151.4 C43.5,151.1 43.4,150.9 43.3,150.7 C43.2,150.5 42.9,150.4 42.6,150.3 C42.3,150.2 41.9,150.1 41.4,150.1 C40.9,150.1 40.5,150.2 40.1,150.3 C39.7,150.4 39.4,150.6 39.2,150.9 C39,151.1 38.9,151.5 38.8,151.9 L39.7,152 C39.8,151.6 40,151.3 40.2,151.2 C40.4,151 40.8,151 41.2,151 C41.7,151 42.1,151.1 42.3,151.3 C42.5,151.5 42.6,151.7 42.6,152.1 L42.6,152.4 C42.2,152.5 41.7,152.6 40.9,152.7 C40.5,152.7 40.2,152.8 40,152.8 C39.7,152.9 39.5,153 39.3,153.1 C39.1,153.2 38.9,153.4 38.8,153.7 C38.7,153.9 38.6,154.2 38.6,154.5 C38.6,155 38.8,155.4 39.1,155.7 C39.4,156 39.9,156.2 40.5,156.2 C40.9,156.2 41.2,156.1 41.6,156 C41.9,155.9 42.3,155.7 42.6,155.4 C42.6,155.7 42.7,155.9 42.8,156.1 L43.8,156.1 C43.7,155.9 43.6,155.7 43.6,155.4 C43.7,155.1 43.6,154.5 43.6,153.6 L43.6,153.6 L43.6,153.6 Z M42.7,153.5 C42.7,153.9 42.6,154.2 42.5,154.5 C42.4,154.8 42.1,155 41.9,155.2 C41.6,155.4 41.3,155.4 40.9,155.4 C40.5,155.4 40.2,155.3 40,155.1 C39.8,154.9 39.7,154.7 39.7,154.5 C39.7,154.3 39.7,154.2 39.8,154 C39.9,153.9 40,153.8 40.2,153.7 C40.4,153.6 40.6,153.6 41,153.5 C41.7,153.4 42.2,153.3 42.6,153.1 L42.7,153.5 L42.7,153.5 Z M73.6,153 C73.6,152.6 73.7,152.2 73.8,151.9 C73.9,151.7 74,151.5 74.2,151.4 C74.4,151.3 74.6,151.2 74.8,151.2 C75,151.2 75.3,151.3 75.5,151.4 L75.8,150.5 C75.5,150.3 75.1,150.2 74.8,150.2 C74.6,150.2 74.4,150.3 74.2,150.4 C74,150.5 73.8,150.8 73.6,151.2 L73.6,150.3 L72.7,150.3 L72.7,156 L73.7,156 L73.6,153 L73.6,153 Z M69.8,163.4 C69,163.4 68.4,163.7 67.9,164.2 C67.4,164.7 67.2,165.5 67.2,166.4 C67.2,167.3 67.4,168 67.9,168.6 C68.4,169.1 69.1,169.4 69.9,169.4 C70.6,169.4 71.1,169.2 71.5,168.9 C71.9,168.6 72.2,168.1 72.4,167.5 L71.4,167.4 C71.3,167.8 71.1,168.1 70.8,168.3 C70.6,168.5 70.2,168.6 69.9,168.6 C69.4,168.6 69,168.4 68.7,168.1 C68.4,167.8 68.2,167.3 68.2,166.7 L72.5,166.7 L72.5,166.4 C72.5,165.5 72.3,164.7 71.8,164.2 C71.2,163.6 70.6,163.4 69.8,163.4 L69.8,163.4 L69.8,163.4 Z M68.2,165.8 C68.2,165.3 68.4,164.9 68.7,164.6 C69,164.3 69.4,164.2 69.8,164.2 C70.3,164.2 70.7,164.4 71,164.8 C71.2,165 71.3,165.4 71.4,165.9 L68.2,165.8 L68.2,165.8 Z M89.7,150.6 C89.4,150.3 89,150.1 88.4,150.1 C87.7,150.1 87.1,150.4 86.6,151.1 C86.5,150.8 86.3,150.5 86,150.4 C85.7,150.2 85.4,150.1 85,150.1 C84.6,150.1 84.3,150.2 84,150.4 C83.7,150.6 83.5,150.8 83.3,151.1 L83.3,150.3 L82.4,150.3 L82.4,156 L83.4,156 L83.4,153 C83.4,152.5 83.5,152.1 83.6,151.8 C83.7,151.5 83.9,151.3 84.1,151.2 C84.3,151.1 84.6,151 84.9,151 C85.3,151 85.5,151.1 85.7,151.3 C85.9,151.5 85.9,151.8 85.9,152.3 L85.9,156 L86.9,156 L86.9,152.7 C86.9,152.1 87,151.7 87.3,151.4 C87.6,151.1 87.9,151 88.3,151 C88.5,151 88.7,151.1 88.9,151.2 C89.1,151.3 89.2,151.4 89.2,151.6 C89.3,151.8 89.3,152 89.3,152.4 L89.3,156 L90.3,156 L90.3,152.1 C90.2,151.4 90,150.9 89.7,150.6 L89.7,150.6 L89.7,150.6 Z M81.4,168.4 C81.3,168.4 81.1,168.4 81.1,168.3 C81,168.3 81,168.2 80.9,168.1 C80.9,168 80.8,167.8 80.8,167.6 L80.8,164.3 L81.8,164.3 L81.8,163.5 L80.8,163.5 L80.8,161.5 L79.8,162.1 L79.8,163.5 L79.1,163.5 L79.1,164.3 L79.8,164.3 L79.8,167.6 C79.8,168.2 79.8,168.6 79.9,168.7 C80,168.9 80.1,169 80.3,169.1 C80.5,169.2 80.8,169.3 81.1,169.3 C81.3,169.3 81.6,169.3 81.8,169.2 L81.7,168.3 C81.6,168.4 81.5,168.4 81.4,168.4 L81.4,168.4 L81.4,168.4 Z M75.9,163.4 C75.1,163.4 74.5,163.7 74,164.2 C73.5,164.7 73.3,165.5 73.3,166.4 C73.3,167.3 73.5,168 74,168.6 C74.5,169.1 75.2,169.4 76,169.4 C76.7,169.4 77.2,169.2 77.6,168.9 C78,168.6 78.3,168.1 78.5,167.5 L77.5,167.4 C77.4,167.8 77.2,168.1 76.9,168.3 C76.7,168.5 76.3,168.6 76,168.6 C75.5,168.6 75.1,168.4 74.8,168.1 C74.5,167.8 74.3,167.3 74.3,166.7 L78.6,166.7 L78.6,166.4 C78.6,165.5 78.4,164.7 77.9,164.2 C77.3,163.6 76.7,163.4 75.9,163.4 L75.9,163.4 L75.9,163.4 Z M74.3,165.8 C74.3,165.3 74.5,164.9 74.8,164.6 C75.1,164.3 75.5,164.2 75.9,164.2 C76.4,164.2 76.8,164.4 77.1,164.8 C77.3,165 77.4,165.4 77.5,165.9 L74.3,165.8 L74.3,165.8 Z M49.4,150.8 C49.3,150.6 49,150.4 48.8,150.3 C48.5,150.2 48.2,150.1 47.9,150.1 C47.1,150.1 46.5,150.4 46.1,151 L46.1,150.2 L45.2,150.2 L45.2,155.9 L46.2,155.9 L46.2,152.8 C46.2,152.1 46.4,151.6 46.6,151.3 C46.8,151 47.3,150.9 47.7,150.9 C48,150.9 48.2,151 48.4,151.1 C48.6,151.2 48.7,151.4 48.8,151.6 C48.9,151.8 48.9,152.1 48.9,152.5 L48.9,156 L49.9,156 L49.9,152.5 C49.9,152.1 49.9,151.7 49.8,151.6 C49.7,151.3 49.6,151 49.4,150.8 L49.4,150.8 L49.4,150.8 Z M65.3,163.6 C65.1,163.7 64.9,164 64.7,164.4 L64.7,163.5 L63.8,163.5 L63.8,169.2 L64.8,169.2 L64.8,166.2 C64.8,165.8 64.9,165.4 65,165.1 C65.1,164.9 65.2,164.7 65.4,164.6 C65.6,164.5 65.8,164.4 66,164.4 C66.2,164.4 66.5,164.5 66.7,164.6 L67,163.7 C66.7,163.5 66.3,163.4 66,163.4 C65.7,163.4 65.4,163.4 65.3,163.6 L65.3,163.6 L65.3,163.6 Z M48,163.6 C47.7,163.4 47.3,163.4 46.9,163.4 C46.2,163.4 45.6,163.7 45.2,164.2 L45.2,161.4 L44.2,161.4 L44.2,169.3 L45.2,169.3 L45.2,166.2 C45.2,165.8 45.3,165.4 45.4,165.1 C45.5,164.8 45.7,164.6 45.9,164.5 C46.2,164.4 46.4,164.3 46.7,164.3 C47.1,164.3 47.4,164.4 47.6,164.6 C47.8,164.8 47.9,165.2 47.9,165.7 L47.9,169.3 L48.9,169.3 L48.9,165.7 C48.9,165.1 48.8,164.7 48.7,164.4 C48.5,164 48.3,163.8 48,163.6 L48,163.6 L48,163.6 Z M62.4,168.4 C62.3,168.4 62.1,168.4 62.1,168.3 C62,168.3 62,168.2 61.9,168.1 C61.9,168 61.8,167.8 61.8,167.6 L61.8,164.3 L62.8,164.3 L62.8,163.5 L61.8,163.5 L61.8,161.5 L60.8,162.1 L60.8,163.5 L60.1,163.5 L60.1,164.3 L60.8,164.3 L60.8,167.6 C60.8,168.2 60.8,168.6 60.9,168.7 C61,168.9 61.1,169 61.3,169.1 C61.5,169.2 61.8,169.3 62.1,169.3 C62.3,169.3 62.6,169.3 62.8,169.2 L62.7,168.3 C62.7,168.4 62.5,168.4 62.4,168.4 L62.4,168.4 L62.4,168.4 Z M58.1,165.1 C57.8,165 57.2,164.8 56.4,164.6 C55.6,164.4 55,164.2 54.8,164 C54.6,163.8 54.5,163.6 54.5,163.3 C54.5,163 54.6,162.7 54.9,162.5 C55.2,162.3 55.6,162.2 56.3,162.2 C56.9,162.2 57.4,162.3 57.7,162.6 C58,162.9 58.2,163.2 58.2,163.7 L59.2,163.6 C59.2,163.1 59.1,162.7 58.8,162.4 C58.6,162 58.2,161.8 57.8,161.6 C57.4,161.4 56.8,161.3 56.3,161.3 C55.8,161.3 55.3,161.4 54.9,161.6 C54.5,161.8 54.1,162 53.9,162.4 C53.7,162.7 53.6,163.1 53.6,163.5 C53.6,163.9 53.7,164.2 53.9,164.5 C54.1,164.8 54.4,165 54.7,165.2 C55,165.4 55.5,165.5 56.2,165.7 C56.9,165.9 57.4,166 57.6,166.1 C57.9,166.2 58.2,166.4 58.3,166.6 C58.4,166.8 58.5,167 58.5,167.2 C58.5,167.4 58.4,167.7 58.3,167.9 C58.2,168.1 57.9,168.3 57.6,168.4 C57.3,168.5 56.9,168.6 56.5,168.6 C56.1,168.6 55.6,168.5 55.3,168.4 C54.9,168.2 54.7,168 54.5,167.8 C54.3,167.5 54.2,167.2 54.2,166.8 L53.2,166.9 C53.2,167.4 53.4,167.9 53.6,168.3 C53.9,168.7 54.3,169 54.7,169.2 C55.2,169.4 55.8,169.5 56.5,169.5 C57.1,169.5 57.6,169.4 58,169.2 C58.4,169 58.8,168.7 59,168.3 C59.2,167.9 59.4,167.5 59.4,167.1 C59.4,166.7 59.3,166.3 59.1,166 C58.9,165.5 58.5,165.3 58.1,165.1 L58.1,165.1 L58.1,165.1 Z M58.1,165.1" class="Shape"/>
            <path d="M152.9,110.8 C152.6,110.6 152.3,110.6 152,110.6 C151.6,110.6 151.3,110.8 150.9,111 C150.3,111.4 150,111.9 149.9,112.6 L148.3,110.3 L147.5,110.8 L151.9,117.3 L152.7,116.8 L151,114.2 C150.7,113.8 150.6,113.5 150.5,113.2 C150.4,112.9 150.5,112.7 150.6,112.4 C150.7,112.1 150.9,111.9 151.1,111.8 C151.4,111.6 151.7,111.5 152,111.6 C152.3,111.7 152.6,111.9 152.9,112.3 L154.9,115.3 L155.7,114.8 L153.7,111.8 C153.5,111.2 153.2,110.9 152.9,110.8 L152.9,110.8 L152.9,110.8 Z M141.9,115.9 L141.3,115 L140.5,115.5 L141.1,116.4 L141.9,115.9 L141.9,115.9 Z M138.3,117 L140.1,119.7 L136.7,122 L134.9,119.3 L134,119.9 L138.4,126.4 L139.3,125.8 L137.2,122.7 L140.6,120.4 L142.7,123.5 L143.6,122.9 L139.2,116.4 L138.3,117 L138.3,117 Z M141.7,117.3 L144.9,122 L145.7,121.5 L142.5,116.8 L141.7,117.3 L141.7,117.3 Z M147.6,113.4 L146.9,113.9 L147.3,114.5 C146.6,114.3 146,114.4 145.5,114.8 C145.1,115.1 144.8,115.4 144.6,115.8 C144.4,116.2 144.4,116.7 144.5,117.2 C144.6,117.7 144.8,118.2 145.1,118.6 C145.5,119.3 146.1,119.7 146.8,119.9 C147.5,120.1 148.1,120 148.8,119.6 C149.3,119.2 149.6,118.7 149.7,118.1 C150.1,118.6 150.3,119 150.3,119.2 C150.4,119.5 150.4,119.8 150.3,120.1 C150.2,120.4 150,120.7 149.6,120.9 C149.3,121.1 148.9,121.2 148.6,121.2 C148.4,121.2 148.2,121.1 148,120.9 L147.1,121.3 C147.4,121.8 147.9,122.1 148.4,122.1 C148.9,122.1 149.5,121.9 150,121.6 C150.5,121.3 150.8,120.9 151,120.5 C151.2,120.1 151.3,119.7 151.2,119.3 C151.1,118.9 150.9,118.3 150.4,117.6 L147.6,113.4 L147.6,113.4 Z M148.9,117.8 C148.8,118.3 148.6,118.6 148.3,118.9 C147.9,119.1 147.5,119.2 147.1,119.1 C146.7,119 146.2,118.6 145.8,118 C145.4,117.4 145.2,116.9 145.3,116.5 C145.4,116 145.6,115.7 145.9,115.5 C146.3,115.3 146.7,115.2 147.1,115.3 C147.6,115.4 148,115.8 148.4,116.3 C148.8,116.8 149,117.3 148.9,117.8 L148.9,117.8 L148.9,117.8 Z M173.4,100.6 C173.5,101 173.5,101.4 173.4,101.7 C173.3,102 173.1,102.2 172.8,102.4 C172.4,102.7 172,102.8 171.5,102.7 C171.1,102.6 170.6,102.3 170.3,101.8 L173.8,99.4 C173.7,99.3 173.7,99.2 173.7,99.2 C173.2,98.4 172.6,97.9 171.9,97.8 C171.2,97.6 170.5,97.8 169.9,98.2 C169.2,98.6 168.9,99.2 168.8,99.9 C168.7,100.6 168.9,101.4 169.4,102.2 C169.9,103 170.5,103.4 171.2,103.6 C171.9,103.8 172.6,103.6 173.3,103.1 C173.8,102.7 174.2,102.3 174.4,101.8 C174.6,101.3 174.6,100.8 174.4,100.2 L173.4,100.6 L173.4,100.6 Z M169.7,99.8 C169.8,99.4 170,99.1 170.4,98.8 C170.8,98.5 171.2,98.5 171.7,98.6 C172,98.7 172.3,98.9 172.6,99.3 L170,101.1 C169.7,100.6 169.6,100.2 169.7,99.8 L169.7,99.8 L169.7,99.8 Z M178.5,97.2 C178.6,97.6 178.6,98 178.5,98.3 C178.4,98.6 178.2,98.8 177.9,99 C177.5,99.3 177.1,99.4 176.6,99.3 C176.2,99.2 175.7,98.9 175.4,98.4 L178.9,96 C178.8,95.9 178.8,95.8 178.8,95.8 C178.3,95 177.7,94.5 177,94.4 C176.3,94.2 175.6,94.4 175,94.8 C174.3,95.2 174,95.8 173.9,96.5 C173.8,97.2 174,98 174.5,98.8 C175,99.6 175.6,100 176.3,100.2 C177,100.4 177.7,100.2 178.4,99.7 C178.9,99.3 179.3,98.9 179.5,98.4 C179.7,97.9 179.7,97.4 179.5,96.8 L178.5,97.2 L178.5,97.2 Z M174.8,96.4 C174.9,96 175.1,95.7 175.5,95.4 C175.9,95.1 176.3,95.1 176.8,95.2 C177.1,95.3 177.4,95.5 177.7,95.9 L175.1,97.7 C174.8,97.2 174.7,96.8 174.8,96.4 L174.8,96.4 L174.8,96.4 Z M182.6,95.6 L182.3,95.9 C182.2,96 182.1,96 182,96 C181.9,96 181.8,96 181.8,95.9 C181.7,95.9 181.6,95.7 181.5,95.5 L179.6,92.7 L180.4,92.2 L180,91.6 L179.2,92.1 L178.1,90.4 L177.6,91.4 L178.4,92.6 L177.8,93 L178.2,93.6 L178.8,93.2 L180.6,95.9 C180.9,96.4 181.2,96.7 181.3,96.8 C181.5,96.9 181.7,97 181.9,96.9 C182.1,96.9 182.4,96.8 182.7,96.6 C182.9,96.5 183.1,96.3 183.3,96.1 L182.6,95.6 L182.6,95.6 Z M166.6,106.4 C166.5,106.5 166.4,106.5 166.3,106.5 C166.2,106.5 166.1,106.5 166.1,106.4 C166,106.4 165.9,106.2 165.8,106 L163.9,103.2 L164.7,102.7 L164.3,102.1 L163.5,102.6 L162.4,100.9 L161.9,101.9 L162.7,103.1 L162.1,103.5 L162.5,104.1 L163.1,103.7 L164.9,106.4 C165.2,106.9 165.5,107.2 165.6,107.3 C165.8,107.4 166,107.5 166.2,107.4 C166.4,107.4 166.7,107.3 167,107.1 C167.2,107 167.4,106.8 167.6,106.6 L167,106 C166.8,106.3 166.7,106.4 166.6,106.4 L166.6,106.4 L166.6,106.4 Z M162.4,106.2 C162,106.1 161.6,106 161.1,106.1 C160.8,106.2 160.2,106.3 159.4,106.7 C158.6,107 158,107.2 157.8,107.1 C157.5,107.1 157.3,106.9 157.2,106.7 C157,106.4 157,106.1 157.1,105.8 C157.2,105.4 157.5,105.1 158,104.7 C158.5,104.4 159,104.2 159.4,104.2 C159.8,104.2 160.2,104.4 160.5,104.8 L161.3,104.2 C161,103.8 160.7,103.6 160.3,103.4 C159.9,103.2 159.5,103.2 159,103.3 C158.5,103.4 158,103.6 157.6,103.9 C157.2,104.2 156.8,104.5 156.6,104.9 C156.3,105.3 156.2,105.7 156.2,106.1 C156.2,106.5 156.3,106.9 156.5,107.2 C156.7,107.5 157,107.7 157.3,107.9 C157.6,108 158,108.1 158.4,108 C158.7,108 159.2,107.8 159.9,107.6 C160.6,107.3 161.1,107.2 161.3,107.1 C161.6,107 161.9,107 162.1,107.1 C162.3,107.2 162.5,107.3 162.6,107.5 C162.7,107.7 162.8,107.9 162.8,108.2 C162.8,108.5 162.7,108.7 162.5,109 C162.3,109.3 162.1,109.5 161.7,109.7 C161.3,109.9 161,110.1 160.6,110.2 C160.2,110.3 159.9,110.2 159.6,110.1 C159.3,110 159,109.8 158.8,109.5 L158,110.1 C158.3,110.5 158.7,110.8 159.1,111 C159.6,111.2 160,111.2 160.6,111.1 C161.1,111 161.7,110.8 162.3,110.4 C162.8,110.1 163.1,109.7 163.4,109.3 C163.7,108.9 163.8,108.4 163.8,108 C163.8,107.6 163.7,107.2 163.4,106.8 C163.1,106.6 162.8,106.3 162.4,106.2 L162.4,106.2 L162.4,106.2 Z M166.8,102.3 C166.7,102.1 166.7,101.9 166.8,101.7 C166.9,101.5 167,101.3 167.2,101.2 C167.4,101.1 167.6,101 167.9,101 L167.7,100.1 C167.3,100.1 167,100.2 166.7,100.4 C166.5,100.5 166.4,100.7 166.3,100.9 C166.2,101.1 166.2,101.4 166.2,101.9 L165.7,101.2 L165,101.7 L168.2,106.4 L169,105.9 L167.3,103.4 C167.1,103 166.9,102.7 166.8,102.3 L166.8,102.3 L166.8,102.3 Z M166.8,102.3" class="Shape"/>
        </g>
        <g class="background">
            <path d="M369.2,120.7 L369.2,122.1 L369.1,122.9 L369.1,123 L368.8,123.9 L368.5,124.6 L367.9,125.7 L367.1,126.5 L367,126.6 L366.2,127.4 L366.1,127.4 L365.2,128.1 L365.1,128.2 L363.7,129.1 L363.6,129.2 L370.3,131.7 L370.3,132.9 L363.4,137.9 L353,132.8 L352.7,132.9 L344.7,133.9 L336.9,134 L264.3,185.7 L262.3,199.8 L249.6,208.9 L292.6,220.4 L288.5,224.4 L287.4,225.8 L282.3,229.4 L246.3,220.4 L246.3,219 L249.1,217 L139.2,189.4 L134.9,192.5 L134.5,192.6 L134.2,192.7 L134.1,192.7 L133.8,192.8 L133.7,192.8 L133.1,193 L133,193 L132.3,193.2 L132.2,193.2 L130.3,193.5 L130.1,193.5 L129.9,193.5 L129.1,193.5 L128.8,193.5 L124,193.4 L123.9,193.4 L122.8,193.3 L119,192.6 L117.8,193.4 L96,188 L96,186.8 C98.3,185.2 100.6,183.6 102.8,181.9 L97.7,181.1 L44,219.8 L43.8,224.2 L73.9,232.6 L85,235.5 L88.5,233 L107.4,235.7 L107.5,239.3 L130.2,242.2 L134.6,239.1 L196.1,254.3 L252.2,268.5 L183,314.8 L40.2,272.1 L61.9,254.1 L3.8,236 L86,177.5 L302.5,19.3 L319.4,23.3 L311.8,28.8 L316.9,30.2 L299.7,42.4 L316.9,46.9 L310.8,52 L292.2,47.7 L247.4,79.6 L287.5,89.6 L329.1,108.8 L341.7,108.1 C346.2,108.3 350.4,108.9 354.3,109.8 L355.1,110 C359.6,111.2 363.1,112.8 365.5,114.8 C367.9,116.7 369,118.8 368.9,120.9 L369.2,120.7 M239.2,85.2 L125.7,165.9 L157.4,173.8 L172.2,159.4 L203.3,141.8 L218.6,130.9 L211.2,128.8 L217.9,123.6 L225.5,126 L247.2,110.6 L252,111.8 L218.2,142.4 L274.5,156.5 L314.5,127.7 C311.6,125.7 310.1,123.5 310.2,121.2 L310.2,120 C310.2,117.8 311.6,115.8 314.2,113.9 C314.7,113.6 315.2,113.2 315.9,112.8 L278.7,95.5 L239.3,85.7 L239.2,85.2 M263.9,164.1 L206.9,149.9 L206.9,148.6 L213.1,144.1 L209.3,143.2 L164,175.5 L167.8,176.4 L167.8,177.6 L156.8,185.5 L200.7,196.4 L214.7,186.4 L243,179 L263.9,164.1" class="road" fill="#757473"/>
            <path d="M161.7,177 C161.2,177 160.8,176.8 160.5,176.4 C160,175.7 160.2,174.8 160.9,174.3 L206.6,141.8 C207.3,141.3 208.2,141.5 208.7,142.2 C209.2,142.9 209,143.8 208.3,144.3 L162.6,176.8 C162.3,176.9 162,177 161.7,177 L161.7,177 L161.7,177 Z M161.7,177" class="walkway"/>
            <path d="M43.5,225.8 L84.5,236 L107,240 L129.7,242.8 L191.4,257.5 L178.7,265.6 L169.9,263.6 L158,273.3 L153.5,272.4 L93.1,257.3 L90.3,259.1 L82,257.2 L87.3,252.7 L92.4,253.9 L103.9,245.3 L80.1,241.3 L37.7,230.4 L43.5,225.8" class="walkway"/>
            <path d="M174.4,164.1 L174.4,159.4 L179.3,160.6 L222.4,129.9 L222.4,127.3 L225.1,128 L248.7,111.1 L309.5,126.3 L308.7,126.8 L250.3,112.2 L250.3,118.5 L302.1,131.5 L300.4,132.7 L242,118.1 L242,124.4 L293.8,137.3 L292,138.6 L233.6,124 L233.6,130.3 L285.5,143.2 L280.8,146.5 L259.8,141.3 L254,145.5 L216.6,136.1 L216.6,142.4 L245.9,155 L240.5,158.8 L240.4,165.1 L251,167.7 L245.2,171.8 L214.6,164.2 L206.6,169.9 L178.9,163 L178.9,169.3 L219.3,179.4 L215.3,180.5 L201.3,190.5 L156.1,179.2 L156.1,185.5 L201.2,196.8 L215.2,186.8 L243.4,179.3 L265.6,163.4 L316,127.5 L316,121.1 L315.8,121.3 L315.8,121.1 L310.5,119.8 L310.5,119.3 L310.7,118.4 L311.3,117.3 L311.9,116.5 L312.4,116 L312.6,115.7 L313.5,114.9 L316,113.2 L317.5,112.4 L317.6,106 L314.5,107.8 L312.7,109.3 L312.1,110.1 L312,110.2 L311.4,111.1 L311,111.9 L311,112.1 L310.8,112.8 L310.8,113 L310.7,113.6 L310.7,119.8 L215.2,96 L215.2,102.4 L242.3,109.2 L241.7,109.6 L208.1,101.2 L207.9,101.4 L207.9,107.8 L208.1,107.6 L235.1,114.3 L233.4,115.6 L199.8,107.2 L199.8,113.6 L226.9,120.3 L225.4,121.4 L191.8,113 L191.8,119.4 L218.9,126.1 L210.8,131.9 L177.2,123.5 L177.2,129.8 L204.3,136.6 L198.9,140.4 L165.3,132 L165.3,137.8 L159.3,136.3 L159.3,142.6 L186.3,149.4 L179.8,154 L146.2,145.6 L146.2,151.9 L173.3,158.7 L159.9,168.2 L126.3,159.8 L126.3,166.1 L159.9,174.5 L174.4,164.1 L174.4,164.1 Z M360.9,138.8 L363.8,137.1 L363.8,130.8 L360.9,132.5 L360.9,138.8 L360.9,138.8 Z M329.9,42.6 L329.9,39.8 L332.8,40.5 L340.7,34.8 L340.7,28.5 L332.8,34.2 L310.1,28.5 L310.1,34.8 L326.2,38.8 L322,41.8 L299.3,36.1 L299.3,42.4 L321.9,48.1 L329.9,42.6 L329.9,42.6 Z M289.5,89.5 L289.5,90.6 L329.7,109.2 L334.6,108.6 L335.8,108.5 L336.5,108.5 L342.6,108.5 L348.5,109 L357.6,111 L360.4,112 L360.6,112.1 C361.1,112.3 361.7,112.6 362.3,112.9 L362.6,113.1 L365.8,115.1 L365.9,115.1 L367.1,116.1 L368.2,117.3 L368.3,117.5 L368.9,118.4 L369,118.6 L369.4,119.7 L369.5,119.9 L369.6,121 L369.6,114.6 L369.5,113.5 L369.5,113.3 L369.1,112.2 L369,112 L368.4,111.1 L368.3,110.9 L367.4,109.8 L366,108.6 L365.9,108.5 L364.6,107.6 L364.5,107.5 L397.5,97.1 L393.5,109.3 L370.6,125.6 L362.5,122.5 L362.5,128.8 L370.6,131.9 L393.5,115.6 L399.8,96.4 L399.8,94.9 L400.6,94.9 L413.6,74.4 L413.6,68.1 L400.6,88.6 L316.2,83.1 L284,75.1 L304.6,60.4 L304.6,59 L314.5,61.5 L331.1,62.3 L331.1,56 L314.5,55.2 L285.4,48 L285.4,54.4 L299.5,57.9 L298.7,58.5 L276.1,52.8 L276.1,58.1 L270.6,56.7 L270.6,62.3 L264.9,60.8 L264.9,67.2 L280.9,71.2 L276.4,74.4 L276.4,80.7 L280,78.1 L280,80.6 L289.8,83 L288.2,83.6 L276.4,80.7 L247.2,73.4 L247.1,79.8 L288.1,90 L289.5,89.5 L289.5,89.5 Z M402.6,64.7 L402.6,58.4 L350,20.3 L350,26.6 L353,63 L402.6,64.7 L402.6,64.7 Z M250.9,210.2 L246.8,213.1 L246.8,219.4 L250.9,216.5 L250.9,210.2 L250.9,210.2 Z M134.4,232.8 L130.1,235.9 L107.4,233.1 L107.3,239.4 L130,242.3 L134.3,239.2 L190.2,253.2 L190.6,253.3 L191,253.4 L252.5,268.7 L319.3,237.6 L319.4,231.3 L252.6,262.4 L134.4,232.8 L134.4,232.8 Z M166.3,287.9 L172.4,283.6 L172.4,281.7 L177.6,283 L177.6,276.7 L155.2,271.6 L155.3,277.5 L167.8,280.6 L158.4,287.3 L136.1,281.8 L136.1,288.1 L158.4,293.6 L163,290.3 L163,293.4 L183.9,298.6 L213.1,277.7 L213.2,271.3 L183.9,292.2 L166.3,287.9 L166.3,287.9 Z M90.2,217.9 L89.9,218.1 L89.9,224.4 L96.8,219.5 L125.2,226.6 L125.2,220.2 L106.2,215.3 L93.3,212.4 L66.6,205.6 L65.1,204.1 L65.1,210.4 L66.3,211.8 L90.2,217.9 L90.2,217.9 Z M400.1,174 L304.6,150.2 L304.5,156.6 L393.6,178.8 L390.8,180.8 L295.2,156.9 L295.2,163.3 L347.2,176.2 L340.1,181.3 L281.6,166.7 L281.5,173 L333.5,185.9 L331.7,187.3 L273,172.7 L273,179 L325,192 L323.4,193.1 L264.9,178.5 L264.9,184.9 L316.9,197.8 L294.2,214 L248.8,202.6 L248.8,208.9 L294.2,220.3 L295.6,219.3 L295.6,220.6 L327.4,228.5 L332,225.2 L332,218.9 L327.4,222.2 L300.8,215.6 L353.7,177.8 L390.7,187 L400.1,180.3 L400.1,180.2 L420,166 L420,159.6 L400.1,174 L400.1,174 Z M97.3,220.2 L85,229 L43.6,218.7 L43.6,225.1 L85,235.4 L97.3,226.7 L97.3,220.2 L97.3,220.2 Z M144.9,275.5 L87.1,261.1 L87,267.5 L144.8,281.9 L144.9,275.5 L144.9,275.5 Z M254.2,178.9 L261.1,180.6 L265.2,177.6 L265.2,171.6 L258.3,169.9 L254.1,173 L254.2,178.9 L254.2,178.9 Z M254.2,178.9" class="wall"/>
        </g>
        <g class="ceilings">
            <path class="unit" d="M319.6,44.8 L331.4,48 L331.4,56.7 L314.7,55.6 L285.4,48.5 L293.1,42.8 L314.7,48.2 L319.6,44.8 L319.6,44.8 Z M319.6,44.8" id="1001"/>
            <path class="unit" d="M350.3,20.8 L403,58.9 L353.5,57 L350.3,20.8 L350.3,20.8 Z M350.3,20.8" id="1002"/>
            <path class="unit" d="M282.1,49.1 L305.1,54.9 L298.4,59.2 L276.2,53.3 L282.1,49.1 L282.1,49.1 Z M282.1,49.1" id="1003"/>
            <path class="unit" d="M270.7,57.3 L276.1,53.4 L298.3,59.1 L293.2,62.7 L270.7,57.3 L270.7,57.3 Z M270.7,57.3" id="1004"/>
            <path class="unit" d="M287.5,66.8 L265,61.3 L270.6,57.4 L292.9,63 L287.5,66.8 L287.5,66.8 Z M287.5,66.8" id="1005"/>
            <path class="unit" d="M299.9,89.3 L289.5,84.8 L300.3,81 L314.8,84.7 L299.9,89.3 L299.9,89.3 Z M299.9,89.3" id="1006"/>
            <path class="unit" d="M276.1,74.9 L298.7,80.3 L288.3,84.3 L247.2,74 L265,61.4 L287.1,67.1 L276.1,74.9 L276.1,74.9 Z M276.1,74.9" id="1007"/>
            <path class="unit" d="M413.7,69 L400.5,89.4 L316.5,83.8 L280.8,74.9 L307.4,55.9 L314.5,57.7 L403.6,60.2 L413.7,69 L413.7,69 Z M413.7,69" id="1008"/>
            <path class="unit" d="M314.8,84.6 L328.7,85.8 L307.5,93.1 L299.8,89.3 L314.8,84.6 L314.8,84.6 Z M314.8,84.6" id="1009"/>
            <path class="unit" d="M316.1,107.6 C315.2,107.9 314.6,108.2 314.3,108.4 C311.6,110.3 310.5,112.5 310.9,115 C311.3,117.4 313,119.6 316,121.6 L215.6,96.6 L240.1,79.1 L279.4,88.9 L318,106.8 L316.1,107.6 L316.1,107.6 Z M316.1,107.6" id="1010"/>
            <path class="unit" d="M372.2,88.8 L329.8,103.4 L307.5,93 L328.7,85.8 L372.2,88.8 L372.2,88.8 Z M372.2,88.8" id="1011"/>
            <path class="unit" d="M355.1,104.3 C351.6,103.4 347.5,102.9 342.7,102.8 L329.8,103.4 L372.3,89 L399.5,90.7 L355.4,104.7 L355.1,104.3 L355.1,104.3 Z M355.1,104.3" id="1012"/>
            <path class="unit" d="M199.9,107.5 L233.1,115.9 L225.6,121.7 L191.8,113.3 L199.9,107.5 L199.9,107.5 Z M199.9,107.5" id="1013"/>
            <path class="unit" d="M241.3,109.9 L233.3,115.6 L200.1,107.3 L208.2,101.5 L241.3,109.9 L241.3,109.9 Z M241.3,109.9" id="1014"/>
            <path class="unit" d="M362.1,123.1 C363.4,122.5 364.5,121.8 365.5,121.1 C369.5,118.3 370.6,115.3 368.7,112.1 C366.8,109 362.5,106.5 355.8,104.7 L400.3,90.6 L393.5,110 L370.8,126.3 L362.1,123.1 L362.1,123.1 Z M362.1,123.1" id="1015"/>
            <path class="unit" d="M258.4,107.5 L316.4,121.8 L308.9,126.7 L251,112.3 L258.4,107.5 L258.4,107.5 Z M258.4,107.5" id="1016"/>
            <path class="unit" d="M250.8,112.5 L308.5,127 L300.6,132.7 L242.7,118.2 L250.8,112.5 L250.8,112.5 Z M250.8,112.5" id="1017"/>
            <path class="unit" d="M318.1,23.1 L340.9,28.9 L332.9,34.4 L310.2,28.7 L318.1,23.1 L318.1,23.1 Z M318.1,23.1" id="1018"/>
            <path class="unit" d="M299.2,36.9 L307.2,31.1 L329.4,36.9 L321.9,42.3 L299.2,36.9 L299.2,36.9 Z M299.2,36.9" id="1019"/>
            <path class="unit" d="M183.3,119.4 L189.2,115.2 L222.3,123.8 L216.7,127.9 L210.7,132 L177.3,123.7 L183.3,119.4 L216.7,127.9" id="1020"/>
            <path class="unit" d="M198.9,140.5 L165.7,132.2 L177.3,123.9 L210.4,132.3 L198.9,140.5 L198.9,140.5 Z M198.9,140.5" id="1021"/>
            <path class="unit" d="M165.4,132.3 L198.5,140.7 L192.8,144.8 L159.5,136.4 L165.4,132.3 L165.4,132.3 Z M165.4,132.3" id="1022"/>
            <path class="unit" d="M159.2,136.8 L192.3,145.2 L179.6,154.3 L146,146.3 L159.2,136.8 L159.2,136.8 Z M159.2,136.8" id="1023"/>
            <path class="unit" d="M242.7,118.2 L300.3,132.9 L292.3,138.6 L234.4,124.2 L242.7,118.2 L242.7,118.2 Z M242.7,118.2" id="1024"/>
            <path class="unit" d="M254.4,145.5 L217,136.5 L234.3,124.2 L292,138.8 L281.1,146.6 L260.2,141.4 L254.4,145.5 L254.4,145.5 Z M254.4,145.5" id="1025"/>
            <path class="unit" d="M260.3,141.6 L280.8,146.9 L275.4,150.8 L254.7,145.7 L260.3,141.6 L260.3,141.6 Z M260.3,141.6" id="1026"/>
            <path class="unit" d="M141,149.4 L174.8,158.1 L159.8,168.4 L125.9,160.3 L141,149.4 L141,149.4 Z M141,149.4" id="1027"/>
            <path class="unit" d="M262.2,160.5 L245.7,156.1 L249.7,153.2 L266.7,157.5 L262.2,160.5 L262.2,160.5 Z M262.2,160.5" id="1028"/>
            <path class="unit" d="M243.9,173.2 L232.3,176.3 L207.9,170.2 L215.5,164.8 L245.3,172.2 L243.9,173.2 L243.9,173.2 Z M243.9,173.2" id="1029"/>
            <path class="unit" d="M257.8,163.5 L241.6,159 L245.3,156.4 L262.1,160.6 L257.8,163.5 L257.8,163.5 Z M257.8,163.5" id="1030"/>
            <path class="unit" d="M241.4,159.3 L258,163.5 L245.7,172 L215.6,164.6 L207.7,170.3 L179.8,163.4 L208.3,143 L249.7,153.4 L241.4,159.3 L241.4,159.3 Z M241.4,159.3" id="1031"/>
            <path class="unit" d="M215.7,180.7 L201.8,190.6 L156.7,179.8 L179.5,163.5 L231.8,176.6 L215.7,180.7 L215.7,180.7 Z M215.7,180.7" id="1032"/>
            <path class="unit" d="M353.3,125.9 L364.3,131.1 L360.9,132.8 L420.3,160 L399.7,173.9 L304.6,150.3 L337.4,127 C343,127.3 348.3,126.9 353.3,125.9 L353.3,125.9 L353.3,125.9 Z M353.3,125.9" id="1033"/>
            <path class="unit" d="M390.5,180.8 L295.2,156.9 L304.7,150.1 L399.6,174 L390.5,180.8 L390.5,180.8 Z M390.5,180.8" id="1034"/>
            <path class="unit" d="M340.1,181.2 L281.9,166.7 L295.3,157.2 L353.3,171.8 L340.1,181.2 L340.1,181.2 Z M340.1,181.2" id="1035"/>
            <path class="unit" d="M331.6,187.3 L273.4,172.8 L281.7,167 L339.7,181.6 L331.6,187.3 L331.6,187.3 Z M331.6,187.3" id="1036"/>
            <path class="unit" d="M265.2,178.6 L273.4,172.8 L331.2,187.4 L323.4,193 L265.2,178.6 L265.2,178.6 Z M265.2,178.6" id="1037"/>
            <path class="unit" d="M294.7,214 L249,202.6 L263.1,192.6 L265.1,178.5 L323.4,193.1 L294.7,214 L294.7,214 Z M294.7,214" id="1038"/>
            <path class="unit" d="M295.4,214.2 L300.2,210.7 L332.3,218.7 L327.4,222.1 L295.4,214.2 L295.4,214.2 Z M295.4,214.2" id="1039"/>
            <path class="unit" d="M66.3,205.9 L97.4,213.7 L89.6,218.6 L98,220.3 L85.3,228.9 L44,218.8 L64.6,204.2 L66.3,205.9 L66.3,205.9 Z M66.3,205.9" id="1040"/>
            <path class="unit" d="M87.2,261.3 L144.9,275.6 L136.1,281.8 L158.7,287.3 L172.7,277.1 L92.8,257.1 L87.2,261.3 L87.2,261.3 Z M87.2,261.3" id="1041"/>
            <path class="unit" d="M170.9,260.1 L213.1,271.3 L183.8,292.4 L163.5,287.4 C168.2,284 172.9,280.5 177.6,277.1 L155.4,271.9 L170.9,260.1 L170.9,260.1 Z M170.9,260.1" id="1042"/>
            <path class="unit" d="M65.3,204.1 L98,180.8 L119.9,186.2 L120.9,185.5 C125,186.6 128.8,186.9 132.4,186.3 C134.2,186 135.6,185.7 136.6,185.2 L140.8,182.2 L251.7,210.2 L247.8,213 L319.9,231 L252.7,262.5 L135.4,233 L130.8,236 L107.7,233.1 L125.3,220.5 L66.6,205.5 L65.3,204.1 L65.3,204.1 Z M65.3,204.1" id="1043"/>
            <path class="unit" d="M212.9,98.2 L208.3,101.5 L241.7,109.7 L248.5,104.8 L219.2,97.4 L216.9,99.1 L212.9,98.2 L212.9,98.2 Z M212.9,98.2" id="1044"/>
            <path class="unit" d="M208.3,142.9 L216.9,136.5 L275.4,150.8 L266.6,157.5 L208.3,142.9 L208.3,142.9 Z M208.3,142.9" id="1045"/>
            <path class="unit" d="M219.2,97.4 L215.4,96.4 L212.9,98.1 L216.9,99 L219.2,97.4 L219.2,97.4 Z M219.2,97.4" id="1046"/>
            <path class="unit" d="M265.2,171.6 L261.1,174.7 L254.2,172.9 L258.4,169.9 L265.2,171.6 Z M265.2,171.6" id="1047"/>
        </g>
    </g>
</svg>