<?xml version="1.0" encoding="utf-8"?>
<!DOCTYPE svg PUBLIC "-//W3C//DTD SVG 1.1//EN" "http://www.w3.org/Graphics/SVG/1.1/DTD/svg11.dtd">
<svg version="1.1" xmlns="http://www.w3.org/2000/svg" xmlns:xlink="http://www.w3.org/1999/xlink" xml:space="preserve">
<g class="level" id="level1">
            <g class="outline">
                <path d="M205.7,257.5 L205.4,257.5 L89.5,228.3 L89.2,228.6 L85.7,231.1 L85.7,231.1 L85.4,231.3 C85.2,231.5 84.9,231.5 84.6,231.5 L61.4,228.9 C60.9,228.8 60.6,228.5 60.5,228.1 C40.7,227 22.1,223.2 5.1,216.6 C4.7,216.4 4.4,216 4.4,215.5 L4.6,210.6 L2,210.3 C1.4,210.2 1,209.7 1,209.1 L1.3,202.2 C1.3,201.9 1.5,201.5 1.8,201.3 L49.4,167 C49.7,166.8 50,166.7 50.3,166.8 L71.5,172.2 L72.2,171.4 C72.5,171.1 72.9,170.9 73.3,171 C77.2,172 80.8,172.3 84.1,172 C85.7,171.8 86.9,171.6 87.9,171.2 L92.4,168 C92.7,167.8 93,167.7 93.4,167.8 L102.4,170.3 L201.2,99.8 L168,91.5 C167.5,91.4 167.1,90.9 167.1,90.4 L167.3,84 C167.3,83.6 167.5,83.3 167.8,83.1 L192.2,65.5 C192.5,65.3 192.8,65.2 193.1,65.3 L214.9,70.8 L250.2,45.8 L225.6,39.3 C225.1,39.2 224.7,38.7 224.8,38.2 L224.9,31.8 C224.9,31.4 225.1,31.1 225.4,30.9 L248.5,14.2 C248.8,14 249.1,13.9 249.5,14 L255.2,15.6 L255.1,10.2 C255.1,9.8 255.3,9.5 255.6,9.3 L266.8,1.1 C267.1,0.9 267.5,0.8 267.8,0.9 L282,5.5 L288,6.2 L304.2,7 C304.4,7 304.6,7.1 304.8,7.2 L387.8,66.8 C388.1,67 388.3,67.3 388.3,67.7 L388.5,75.6 C388.5,76 388.3,76.3 388,76.5 L325.2,121.4 C324.9,121.6 324.4,121.7 324,121.5 L320,119.5 L318.5,120.4 L374.3,145.1 C374.7,145.3 375,145.7 375,146.1 L374.9,153 C374.9,153.4 374.7,153.7 374.4,153.9 L344.7,175.4 C344.4,175.6 344.1,175.7 343.8,175.6 L319.5,169.5 L300.1,183.4 L329.6,190.7 C330.1,190.8 330.5,191.3 330.5,191.8 L330.5,198.2 C330.5,198.6 330.2,199.1 329.8,199.2 L285.5,218.2 C285.3,218.3 285,218.3 284.8,218.3 L280.3,217.2 L273.8,221.3 L273.8,225.1 C273.8,225.5 273.5,225.9 273.1,226.1 L206.2,257.2 C206,257.4 205.8,257.5 205.7,257.5 L205.7,257.5 L205.7,257.5 Z M205.7,257.5" class="outline"/>
            </g>
            <g class="label">
                <path d="M21.5,138.2 C21.4,137.4 21.1,136.9 20.4,136.9 C19.8,136.9 19.5,137.3 19.3,137.7 C18.5,139.9 17.6,142.7 16.6,145.4 L16.6,145.4 C15.6,142.9 14.8,140.3 13.8,137.9 C13.6,137.3 13.3,136.9 12.7,136.9 C12,136.9 11.7,137.3 11.6,138.2 C11.2,141.1 11.1,144.3 11.1,147.5 C11.1,147.9 11.3,148.1 11.7,148.1 C12.1,148.1 12.3,147.9 12.3,147.4 C12.3,144.3 12.5,141.3 12.8,138.4 L12.8,138.4 C13.8,141 14.7,143.7 15.8,146.3 C15.9,146.6 16.2,146.9 16.6,146.9 C17,146.9 17.3,146.7 17.4,146.3 C18.4,143.8 19.3,141.1 20.2,138.4 L20.2,138.4 C20.6,141.4 20.8,144.4 20.9,147.4 C20.9,147.8 21.1,148.1 21.5,148.1 C21.9,148.1 22.1,147.8 22.1,147.4 L22.1,146.9 C22.2,144.1 21.9,141 21.5,138.2 L21.5,138.2 L21.5,138.2 Z M15.5,128.1 C15.9,127.9 15.9,127.6 15.9,127.2 L15.9,118.3 C15.9,117.9 15.6,117.6 15.3,117.6 C14.9,117.6 14.7,117.9 14.7,118.3 L14.7,127.1 C13.9,127.6 12.7,127.9 12,127.9 C10.1,127.9 9,127 9,124.9 L9,118.4 C9,118 8.7,117.7 8.4,117.7 C8,117.7 7.8,118 7.8,118.4 L7.8,125.2 C7.8,127.5 9.3,129.1 11.8,129.1 C13.5,129.1 14.6,128.6 15.5,128.1 L15.5,128.1 L15.5,128.1 Z M42.5,128.4 C42.5,128.1 42.3,127.8 41.9,127.8 L37.1,127.8 L37.1,123.9 L41,123.9 C41.4,123.9 41.6,123.6 41.6,123.3 C41.6,123 41.4,122.7 41,122.7 L37.1,122.7 L37.1,119 L41.7,119 C42.1,119 42.3,118.7 42.3,118.4 C42.3,118.1 42.1,117.8 41.7,117.8 L36.9,117.8 C36.2,117.8 35.8,118.2 35.8,118.8 L35.8,128.1 C35.8,128.7 36.2,129.1 36.9,129.1 L41.8,129.1 C42.3,129 42.5,128.6 42.5,128.4 L42.5,128.4 L42.5,128.4 Z M51.4,128 C51,126.8 50.5,125.6 50,124.9 C49.7,124.5 49.4,124.2 49,123.9 C50.4,123.4 51.4,122.4 51.4,120.9 C51.4,119 50.1,117.7 47.2,117.7 C46.1,117.7 45.3,117.8 44.8,118 C44.4,118.1 44.3,118.4 44.3,118.8 L44.3,128.5 C44.3,128.9 44.6,129.1 44.9,129.1 C45.3,129.1 45.5,128.9 45.5,128.5 L45.5,124.3 L46.7,124.3 C47.9,124.3 48.3,124.8 48.9,125.7 C49.3,126.3 49.7,127.3 50.2,128.7 C50.3,129 50.5,129.1 50.8,129.1 C51.1,129.1 51.4,128.9 51.4,128.5 C51.5,128.3 51.4,128.1 51.4,128 L51.4,128 L51.4,128 Z M46.9,123 L45.5,123 L45.5,119 C45.9,118.9 46.4,118.9 47.1,118.9 C49.4,118.9 50.1,119.8 50.1,121 C50.1,122.6 48.5,123.1 46.9,123 L46.9,123 L46.9,123 Z M18.8,129 C19.2,129 19.4,128.8 19.4,128.4 L19.4,124.8 L20.9,124.8 C23.8,124.8 25.3,123.4 25.3,121.1 C25.3,119.1 24,117.6 21,117.6 C20,117.6 19.2,117.7 18.7,117.9 C18.3,118 18.2,118.3 18.2,118.7 L18.2,128.4 C18.2,128.8 18.5,129 18.8,129 L18.8,129 L18.8,129 Z M19.5,119 C19.9,118.9 20.5,118.9 21,118.9 C23.3,118.9 24.1,120 24.1,121.3 C24.1,122.6 23.4,123.8 20.9,123.8 L19.5,123.8 L19.5,119 L19.5,119 L19.5,119 Z M29.8,117.7 C28.8,117.7 28,117.8 27.5,118 C27.1,118.1 27,118.4 27,118.8 L27,128.5 C27,128.9 27.3,129.1 27.6,129.1 C28,129.1 28.2,128.9 28.2,128.5 L28.2,124.9 L29.7,124.9 C32.6,124.9 34.1,123.5 34.1,121.2 C34.2,119.2 32.8,117.7 29.8,117.7 L29.8,117.7 L29.8,117.7 Z M29.7,123.7 L28.3,123.7 L28.3,119 C28.7,118.9 29.3,118.9 29.8,118.9 C32.1,118.9 32.9,120 32.9,121.3 C32.9,122.5 32.2,123.7 29.7,123.7 L29.7,123.7 L29.7,123.7 Z M30.1,138.4 C29.5,137.2 29,136.8 28.4,136.8 C27.8,136.8 27.3,137.2 26.7,138.4 C25.8,140.2 25.1,142.5 23.9,147.1 C23.8,147.3 23.8,147.5 23.8,147.6 C23.8,148 24.1,148.2 24.4,148.2 C24.7,148.2 24.9,148 25,147.7 C25.3,146.3 25.6,145.1 25.9,144 L30.8,144 C31.1,145.1 31.4,146.3 31.7,147.7 C31.8,148 32,148.2 32.3,148.2 C32.7,148.2 32.9,148 32.9,147.6 C32.9,147.5 32.9,147.3 32.8,147.1 C31.7,142.5 31,140.2 30.1,138.4 L30.1,138.4 L30.1,138.4 Z M26.3,142.9 C27,140.5 27.7,138.9 28.2,138.1 C28.2,138 28.3,138 28.4,138 C28.5,138 28.6,138.1 28.6,138.1 C29.1,138.9 29.8,140.4 30.5,142.9 L26.3,142.9 L26.3,142.9 Z M40.2,147 L35.9,147 L35.9,137.6 C35.9,137.2 35.6,136.9 35.3,136.9 C34.9,136.9 34.7,137.2 34.7,137.6 L34.7,147.2 C34.7,147.8 35.1,148.2 35.8,148.2 L40.3,148.2 C40.7,148.2 41,147.9 41,147.6 C40.9,147.3 40.6,147 40.2,147 L40.2,147 L40.2,147 Z M47.8,147 L43.5,147 L43.5,137.6 C43.5,137.2 43.2,136.9 42.9,136.9 C42.5,136.9 42.3,137.2 42.3,137.6 L42.3,147.2 C42.3,147.8 42.7,148.2 43.4,148.2 L47.9,148.2 C48.3,148.2 48.6,147.9 48.6,147.6 C48.5,147.3 48.2,147 47.8,147 L47.8,147 L47.8,147 Z M47.8,147" class="Shape"/>
                <path d="M327.7,261.8 C327.5,262.4 327.4,262.8 327.3,263.1 L326.9,261.9 L325,256.3 L323.4,256.3 L323.4,264.2 L324.4,264.2 L324.4,257.5 L326.7,264.2 L327.6,264.2 L329.9,257.6 L329.9,264.2 L330.9,264.2 L330.9,256.3 L329.5,256.3 L327.7,261.8 L327.7,261.8 Z M359.3,249.3 C359.3,249.9 359.3,250.3 359.4,250.4 C359.5,250.5 359.6,250.7 359.8,250.8 C360,250.9 360.3,251 360.6,251 C360.8,251 361.1,251 361.3,250.9 L361.2,250 L360.8,250 C360.7,250 360.5,250 360.5,249.9 C360.5,249.8 360.4,249.8 360.3,249.7 C360.2,249.6 360.2,249.4 360.2,249.2 L360.2,246 L361.2,246 L361.2,245.2 L360.2,245.2 L360.2,243.2 L359.2,243.8 L359.2,245.2 L358.5,245.2 L358.5,246 L359.2,246 L359.3,249.3 L359.3,249.3 Z M337.1,261.8 L337.1,260.5 L337.1,259.6 C337,259.3 336.9,259.1 336.8,258.9 C336.7,258.7 336.4,258.6 336.1,258.5 C335.8,258.4 335.4,258.3 334.9,258.3 C334.4,258.3 334,258.4 333.6,258.5 C333.2,258.6 332.9,258.8 332.7,259.1 C332.5,259.3 332.4,259.7 332.3,260.1 L333.2,260.2 C333.3,259.8 333.5,259.5 333.7,259.4 C333.9,259.2 334.3,259.2 334.7,259.2 C335.2,259.2 335.6,259.3 335.8,259.5 C336,259.7 336.1,259.9 336.1,260.3 L336.1,260.6 C335.7,260.7 335.2,260.8 334.4,260.9 C334,260.9 333.7,261 333.5,261 C333.2,261.1 333,261.2 332.8,261.3 C332.6,261.4 332.4,261.6 332.3,261.9 C332.2,262.1 332.1,262.4 332.1,262.7 C332.1,263.2 332.3,263.6 332.6,263.9 C332.9,264.2 333.4,264.4 334,264.4 C334.4,264.4 334.7,264.3 335.1,264.2 C335.4,264.1 335.8,263.9 336.1,263.6 C336.1,263.9 336.2,264.1 336.3,264.3 L337.3,264.3 C337.2,264.1 337.1,263.9 337.1,263.6 C337.2,263.3 337.1,262.7 337.1,261.8 L337.1,261.8 L337.1,261.8 Z M336.2,261.7 C336.2,262.1 336.1,262.4 336,262.7 C335.9,263 335.6,263.2 335.4,263.4 C335.1,263.6 334.8,263.6 334.4,263.6 C334,263.6 333.7,263.5 333.5,263.3 C333.3,263.1 333.2,262.9 333.2,262.7 C333.2,262.5 333.2,262.4 333.3,262.2 C333.4,262.1 333.5,262 333.7,261.9 C333.9,261.8 334.1,261.8 334.5,261.7 C335.2,261.6 335.7,261.5 336.1,261.3 L336.2,261.7 L336.2,261.7 Z M340.4,250.6 C340.9,250.9 341.6,251.1 342.5,251.1 C343.3,251.1 344,250.9 344.6,250.4 C345.2,250 345.6,249.3 345.8,248.4 L344.8,248.1 C344.7,248.8 344.4,249.3 344,249.6 C343.6,249.9 343.1,250.1 342.5,250.1 C342,250.1 341.6,250 341.2,249.7 C340.8,249.5 340.5,249.1 340.3,248.6 C340.1,248.1 340,247.5 340,246.8 C340,246.3 340.1,245.8 340.2,245.3 C340.4,244.8 340.7,244.4 341.1,244.1 C341.5,243.8 342,243.7 342.6,243.7 C343.1,243.7 343.6,243.8 343.9,244.1 C344.2,244.4 344.5,244.8 344.7,245.4 L345.7,245.2 C345.5,244.5 345.1,243.9 344.6,243.5 C344.1,243.1 343.4,242.9 342.6,242.9 C341.9,242.9 341.3,243.1 340.7,243.4 C340.1,243.7 339.7,244.2 339.4,244.8 C339.1,245.4 338.9,246.1 338.9,246.9 C338.9,247.7 339,248.4 339.3,249 C339.5,249.8 339.9,250.3 340.4,250.6 L340.4,250.6 L340.4,250.6 Z M368.2,251.1 C368.9,251.1 369.4,250.9 369.8,250.6 C370.2,250.3 370.5,249.8 370.7,249.2 L369.7,249.1 C369.6,249.5 369.4,249.8 369.1,250 C368.9,250.2 368.5,250.3 368.2,250.3 C367.7,250.3 367.3,250.1 367,249.8 C366.7,249.5 366.5,249 366.5,248.4 L370.8,248.4 L370.8,248.1 C370.8,247.2 370.6,246.4 370.1,245.9 C369.6,245.4 369,245.1 368.2,245.1 C367.4,245.1 366.8,245.4 366.3,245.9 C365.8,246.4 365.6,247.2 365.6,248.1 C365.6,249 365.8,249.7 366.3,250.3 C366.7,250.9 367.4,251.1 368.2,251.1 L368.2,251.1 L368.2,251.1 Z M367.1,246.4 C367.4,246.1 367.8,246 368.2,246 C368.7,246 369.1,246.2 369.4,246.6 C369.6,246.8 369.7,247.2 369.8,247.7 L366.6,247.7 C366.6,247.1 366.8,246.7 367.1,246.4 L367.1,246.4 L367.1,246.4 Z M349.3,251.1 C350,251.1 350.5,250.9 350.9,250.6 C351.3,250.3 351.6,249.8 351.8,249.2 L350.8,249.1 C350.7,249.5 350.5,249.8 350.2,250 C350,250.2 349.6,250.3 349.3,250.3 C348.8,250.3 348.4,250.1 348.1,249.8 C347.8,249.5 347.6,249 347.6,248.4 L351.9,248.4 L351.9,248.1 C351.9,247.2 351.7,246.4 351.2,245.9 C350.7,245.4 350.1,245.1 349.3,245.1 C348.5,245.1 347.9,245.4 347.4,245.9 C346.9,246.4 346.7,247.2 346.7,248.1 C346.7,249 346.9,249.7 347.4,250.3 C347.8,250.9 348.5,251.1 349.3,251.1 L349.3,251.1 L349.3,251.1 Z M348.1,246.4 C348.4,246.1 348.8,246 349.2,246 C349.7,246 350.1,246.2 350.4,246.6 C350.6,246.8 350.7,247.2 350.8,247.7 L347.6,247.7 C347.7,247.1 347.8,246.7 348.1,246.4 L348.1,246.4 L348.1,246.4 Z M386.6,263.3 L386.2,263.3 C386.1,263.3 385.9,263.3 385.9,263.2 C385.9,263.1 385.8,263.1 385.7,263 C385.7,262.9 385.6,262.7 385.6,262.5 L385.6,259.2 L386.6,259.2 L386.6,258.4 L385.6,258.4 L385.6,256.4 L384.6,257 L384.6,258.4 L384,258.4 L384,259.2 L384.7,259.2 L384.7,262.5 C384.7,263.1 384.7,263.5 384.8,263.6 C384.9,263.7 385,263.9 385.2,264 C385.4,264.1 385.7,264.2 386,264.2 C386.2,264.2 386.5,264.2 386.7,264.1 L386.6,263.3 L386.6,263.3 Z M369.1,258.4 C368.4,258.4 367.8,258.7 367.3,259.4 C367.2,259.1 367,258.8 366.7,258.7 C366.4,258.5 366.1,258.4 365.7,258.4 C365.3,258.4 365,258.5 364.7,258.7 C364.4,258.9 364.2,259.1 364,259.4 L364,258.6 L363.1,258.6 L363.1,264.3 L364.1,264.3 L364.1,261.3 C364.1,260.8 364.2,260.4 364.3,260.1 C364.4,259.8 364.6,259.6 364.8,259.5 C365,259.4 365.3,259.3 365.6,259.3 C366,259.3 366.2,259.4 366.4,259.6 C366.6,259.8 366.6,260.1 366.6,260.6 L366.6,264.3 L367.6,264.3 L367.6,261 C367.6,260.4 367.7,260 368,259.7 C368.3,259.4 368.6,259.3 369,259.3 C369.2,259.3 369.4,259.4 369.6,259.5 C369.8,259.6 369.9,259.7 369.9,259.9 C370,260.1 370,260.3 370,260.7 L370,264.3 L371,264.3 L371,260.4 C371,259.7 370.8,259.3 370.5,259 C370.1,258.5 369.6,258.4 369.1,258.4 L369.1,258.4 L369.1,258.4 Z M374.6,258.4 C373.8,258.4 373.2,258.7 372.7,259.2 C372.2,259.7 372,260.5 372,261.4 C372,262.3 372.2,263 372.7,263.6 C373.2,264.1 373.8,264.4 374.7,264.4 C375.4,264.4 375.9,264.2 376.3,263.9 C376.7,263.6 377,263.1 377.2,262.5 L376.2,262.4 C376.1,262.8 375.9,263.1 375.6,263.3 C375.4,263.5 375,263.6 374.7,263.6 C374.2,263.6 373.8,263.4 373.5,263.1 C373.2,262.8 373,262.3 373,261.7 L377.3,261.7 L377.3,261.4 C377.3,260.5 377.1,259.7 376.6,259.2 C376,258.6 375.4,258.4 374.6,258.4 L374.6,258.4 L374.6,258.4 Z M373,260.8 C373,260.3 373.2,259.9 373.5,259.6 C373.8,259.3 374.2,259.2 374.6,259.2 C375.1,259.2 375.5,259.4 375.8,259.8 C376,260 376.1,260.4 376.2,260.9 L373,260.8 L373,260.8 Z M382.7,259 C382.6,258.8 382.3,258.6 382.1,258.5 C381.8,258.4 381.5,258.3 381.2,258.3 C380.4,258.3 379.8,258.6 379.4,259.2 L379.4,258.4 L378.5,258.4 L378.5,264.1 L379.5,264.1 L379.5,261 C379.5,260.3 379.6,259.8 379.9,259.5 C380.2,259.2 380.6,259.1 381,259.1 C381.3,259.1 381.5,259.2 381.7,259.3 C381.9,259.4 382,259.6 382.1,259.8 C382.2,260 382.2,260.3 382.2,260.7 L382.2,264.2 L383.2,264.2 L383.2,260.7 C383.2,260.3 383.2,259.9 383.1,259.8 C382.9,259.5 382.8,259.2 382.7,259 L382.7,259 L382.7,259 Z M363.1,248 C363.1,247.6 363.2,247.2 363.3,246.9 C363.4,246.7 363.5,246.5 363.7,246.4 C363.9,246.3 364.1,246.2 364.3,246.2 C364.5,246.2 364.8,246.3 365,246.4 L365.3,245.5 C365,245.3 364.6,245.2 364.3,245.2 C364.1,245.2 363.9,245.3 363.7,245.4 C363.5,245.5 363.3,245.8 363.1,246.2 L363.1,245.3 L362.2,245.3 L362.2,251 L363.2,251 L363.2,248 L363.1,248 L363.1,248 Z M349.4,261.8 L349.4,260.5 L349.4,259.6 C349.3,259.3 349.2,259.1 349.1,258.9 C349,258.7 348.7,258.6 348.4,258.5 C348.1,258.4 347.7,258.3 347.2,258.3 C346.7,258.3 346.3,258.4 345.9,258.5 C345.5,258.6 345.2,258.8 345,259.1 C344.8,259.3 344.7,259.7 344.6,260.1 L345.5,260.2 C345.6,259.8 345.8,259.5 346,259.4 C346.2,259.2 346.6,259.2 347,259.2 C347.5,259.2 347.9,259.3 348.1,259.5 C348.3,259.7 348.4,259.9 348.4,260.3 L348.4,260.6 C348,260.7 347.5,260.8 346.7,260.9 C346.3,260.9 346,261 345.8,261 C345.5,261.1 345.3,261.2 345.1,261.3 C344.9,261.4 344.7,261.6 344.6,261.9 C344.5,262.1 344.4,262.4 344.4,262.7 C344.4,263.2 344.6,263.6 344.9,263.9 C345.2,264.2 345.7,264.4 346.3,264.4 C346.7,264.4 347,264.3 347.4,264.2 C347.7,264.1 348.1,263.9 348.4,263.6 C348.4,263.9 348.5,264.1 348.6,264.3 L349.6,264.3 C349.5,264.1 349.4,263.9 349.4,263.6 L349.4,261.8 L349.4,261.8 L349.4,261.8 Z M348.4,261.7 C348.4,262.1 348.3,262.4 348.2,262.7 C348.1,263 347.8,263.2 347.6,263.4 C347.3,263.6 347,263.6 346.6,263.6 C346.2,263.6 345.9,263.5 345.7,263.3 C345.5,263.1 345.4,262.9 345.4,262.7 C345.4,262.5 345.4,262.4 345.5,262.2 C345.6,262.1 345.7,262 345.9,261.9 C346.1,261.8 346.3,261.8 346.7,261.7 C347.4,261.6 347.9,261.5 348.3,261.3 L348.4,261.7 L348.4,261.7 Z M354.6,259.2 C354.2,258.7 353.6,258.4 352.9,258.4 C352.4,258.4 352,258.5 351.6,258.8 C351.2,259.1 350.9,259.4 350.7,259.9 C350.5,260.4 350.4,260.9 350.4,261.4 C350.4,262.2 350.6,262.9 351,263.4 C351.4,264 352,264.2 352.8,264.2 C353.4,264.2 354,264 354.4,263.5 C354.4,264.1 354.4,264.5 354.3,264.7 C354.2,265 354,265.3 353.8,265.5 C353.6,265.7 353.2,265.8 352.8,265.8 C352.4,265.8 352.1,265.7 351.8,265.5 C351.6,265.4 351.5,265.2 351.5,264.9 L350.6,264.8 C350.6,265.4 350.8,265.9 351.2,266.2 C351.6,266.5 352.2,266.7 352.8,266.7 C353.4,266.7 353.9,266.6 354.2,266.4 C354.6,266.2 354.9,265.9 355.1,265.5 C355.3,265.1 355.4,264.5 355.4,263.6 L355.4,258.7 L354.5,258.7 L354.5,259.2 L354.6,259.2 L354.6,259.2 Z M354.2,262.9 C353.9,263.2 353.5,263.4 353.1,263.4 C352.7,263.4 352.3,263.2 352,262.9 C351.7,262.6 351.6,262 351.6,261.3 C351.6,260.6 351.7,260.1 352.1,259.7 C352.4,259.3 352.8,259.2 353.2,259.2 C353.6,259.2 354,259.4 354.3,259.7 C354.6,260.1 354.8,260.6 354.8,261.3 C354.6,262 354.5,262.5 354.2,262.9 L354.2,262.9 L354.2,262.9 Z M342.9,259 C342.8,258.8 342.5,258.6 342.3,258.5 C342,258.4 341.7,258.3 341.4,258.3 C340.6,258.3 340,258.6 339.6,259.2 L339.6,258.4 L338.7,258.4 L338.7,264.1 L339.7,264.1 L339.7,261 C339.7,260.3 339.9,259.8 340.1,259.5 C340.4,259.2 340.8,259.1 341.2,259.1 C341.5,259.1 341.7,259.2 341.9,259.3 C342.1,259.4 342.2,259.6 342.3,259.8 C342.4,260 342.4,260.3 342.4,260.7 L342.4,264.2 L343.4,264.2 L343.4,260.7 C343.4,260.3 343.4,259.9 343.3,259.8 C343.2,259.5 343.1,259.2 342.9,259 L342.9,259 L342.9,259 Z M356.7,251 L357.7,251 L357.7,247.5 C357.7,247.1 357.7,246.7 357.6,246.6 C357.5,246.3 357.4,246.1 357.3,245.9 C357.2,245.7 356.9,245.5 356.7,245.4 C356.4,245.3 356.1,245.2 355.8,245.2 C355,245.2 354.4,245.5 354,246.1 L354,245.3 L353,245.3 L353,251 L354,251 L354,247.9 C354,247.2 354.2,246.7 354.4,246.4 C354.7,246.1 355.1,246 355.5,246 C355.8,246 356,246.1 356.2,246.2 C356.4,246.3 356.5,246.5 356.6,246.7 C356.7,246.9 356.7,247.2 356.7,247.6 L356.7,251 L356.7,251 Z M359.3,258.4 C358.5,258.4 357.9,258.7 357.4,259.2 C356.9,259.7 356.7,260.5 356.7,261.4 C356.7,262.3 356.9,263 357.4,263.6 C357.9,264.1 358.5,264.4 359.4,264.4 C360.1,264.4 360.6,264.2 361,263.9 C361.4,263.6 361.7,263.1 361.9,262.5 L360.9,262.4 C360.8,262.8 360.6,263.1 360.3,263.3 C360.1,263.5 359.7,263.6 359.4,263.6 C358.9,263.6 358.5,263.4 358.2,263.1 C357.9,262.8 357.7,262.3 357.7,261.7 L362,261.7 L362,261.4 C362,260.5 361.8,259.7 361.3,259.2 C360.7,258.6 360.1,258.4 359.3,258.4 L359.3,258.4 L359.3,258.4 Z M357.7,260.8 C357.7,260.3 357.9,259.9 358.2,259.6 C358.5,259.3 358.9,259.2 359.3,259.2 C359.8,259.2 360.2,259.4 360.5,259.8 C360.7,260 360.8,260.4 360.9,260.9 L357.7,260.8 L357.7,260.8 Z M357.7,260.8" class="Shape"/>
                <path d="M325.3,210.9 L342.8,215 L339.6,218.2 L360.6,233.9 L355.6,234.4 L356.1,239.4 L335.5,222.5 L333.3,226.4 L325.3,210.9 L325.3,210.9 Z M325.3,210.9" class="Shape"/>
            </g>
            <g class="background">
                <path d="M323,103.1 L323,104.6 L322.9,105.3 L322.9,105.4 L322.6,106.3 L322.3,107.1 L322.3,107.2 L321,108.8 L320.1,109.7 L318.3,111 L317.5,111.5 L317.5,111.6 L324.2,114.1 L324.2,115.4 L317.3,120.3 L306.9,115.3 L303.5,115.9 L298.3,116.4 L295.6,116.5 L291,116.5 L212,172.8 L215,182 L215,183.3 L204.1,191.1 L285.5,211.4 L285.5,212.6 L273.1,220.5 L200.8,202.5 L200.8,201.2 L203.6,199.2 L148.4,185.3 L148.4,184 L167.8,170.2 L190.6,166.5 L269,110.7 C266,108.6 264.4,106.4 264.4,104.1 L264.4,102.8 C264.4,100.7 265.7,98.6 268.4,96.7 C270.6,95.1 273.4,93.9 277,92.9 C280.4,91.9 284.2,91.3 288.3,91 L281.8,8.5 L281.8,6.9 L303.8,8.9 L309.4,92.5 C315.5,94.2 319.7,96.4 321.8,99.3 C322.6,100.5 323,101.8 323,103.1" class="walkway"/>
                <path d="M281.7,23.5 L281.7,17.8 L282.1,17.8 L281.6,9 L281.2,9.2 L281.2,9.1 L281.6,8.9 L281.6,7.1 L268.3,2.9 L264.7,5.4 L264.2,5.3 L264.2,5.7 L257.2,11 L256.5,10.8 L256.5,17.2 L277.4,23.6 L281.7,23.5 L281.7,23.5 Z M281.7,23.5" class="wall"/>
                <path d="M303.6,8.8 L303.1,8.5 L303.1,14.8 L308.8,98.4 L314.8,100.5 L317.8,102.2 L318.1,102.3 L320.2,104.1 L321.2,105.2 L321.9,106.2 C321.2,107.1 320.4,107.9 319.4,108.6 C318.5,109.2 317.4,109.8 316,110.5 L315.7,110.4 L315.6,116.8 L323.7,119.9 L386.7,75 L386.7,69.4 L387.3,69 L303.6,8.8 L303.6,8.8 Z M303.6,8.8" class="wall"/>
                <path d="M316.9,118.9 L317.5,118.6 L306.6,113.4 C300.5,114.6 295,115.1 290,114.9 L211.4,171.3 L211.4,171.2 L211.4,171.3 L211.2,171.4 L211.4,171.9 L211.4,177.4 L213.1,182.8 L202.5,190.1 L202.4,190.1 L202.4,190.2 L201.9,190.5 L202.4,190.6 L202.4,196.4 L285.2,217 L329.2,198.1 L329.2,191.8 L328.7,192 L296.9,184.3 L319.2,168.4 L343.9,174.6 L373,153.7 L373.1,147.6 L373.4,147.4 L317.1,122.1 L316.9,118.9 L316.9,118.9 Z M316.9,118.9" class="wall"/>
                <path d="M284.7,50.9 L248,49.4 L248,49.7 L238.3,56.6 L285.6,58.5 L285.1,51 L284.7,50.9 L284.7,50.9 Z M284.7,50.9" class="wall"/>
                <path d="M237.8,57 L237.4,57 L237.4,57.3 L229,63.4 L286.4,65.6 L285.7,58.9 L238.2,56.8 L237.8,57 L237.8,57 Z M237.8,57" class="wall"/>
                <path d="M272.5,218.7 L272.3,218.8 L204.2,202.1 L204.2,198.2 L204.4,198 L204.2,197.9 L204.2,197.7 L204,197.9 L154.1,185.3 L167.1,176 L189.9,172.3 L269.1,115.8 L269.2,110 L269.4,109.9 C269.3,109.9 269.3,109.8 269.2,109.8 L269.2,109.5 L269,109.7 C267,108.4 265.6,107.1 264.7,105.7 L265,105.2 L265.3,104.9 L265.7,104.4 L266,104.1 L267.8,102.6 L269.6,101.4 C270.4,101 271.1,100.7 271.7,100.4 L272.5,100.1 L276.7,98.7 L278.5,98.2 L287.7,96.8 L287.7,96.7 L287.8,96.7 L287.9,90.4 L287.3,90.2 L287.3,89.7 L288.5,90 L286.4,65.8 L229,63.4 L228.3,63.9 L228,63.9 L228,64.1 L221.6,68.7 L220.7,69.3 L220.3,69.3 L220.3,69.6 L217.3,71.7 L220.3,72.4 L220.3,73.5 L216,72.4 L216,72.7 L193.2,67 L169.8,83.9 L212.2,94.7 L211.2,95.4 L211.2,95 L168.7,84.4 L168.7,90.7 L204.9,99.7 L103.2,172.4 L93.6,170.1 L89.5,173.4 C88.4,173.8 87,174.1 85.2,174.3 C81.6,174.7 77.7,174.4 73.7,173.5 L72.6,174.5 L50.9,168.8 L3.9,202.8 L3.3,202.6 L3.3,208.9 L6.5,209.7 L6.5,214.9 L10.8,216.9 L11.1,217.1 L11.3,217.1 L15.8,218.7 L19.9,219.8 L20.1,219.9 L25.3,221.1 L30.7,222.1 L30.8,222.2 L36.9,223.1 L37,223.1 L37.2,223.1 L40.5,223.6 L40.7,223.6 L43.9,224 L44,224 L44.2,224 L49.3,224.5 L49.7,224.5 L50.9,224.6 L51.1,224.6 L57.2,224.9 L60.6,222.5 L60.7,216.9 L61.6,216.3 L57.7,215.5 L57.7,212.1 L58.6,211.6 L57.7,211.4 L29.1,204.5 L31.8,202.6 L72.9,212.8 L61.6,220.5 L61.3,220.7 L61.6,220.7 L61.5,226.7 L84.1,229.5 L88.4,226.5 L144.1,240.4 L144.5,240.5 L206.1,255.9 L272.7,224.9 L272.8,219.2 L273.5,218.9 L272.8,218.7 L272.5,218.7 L272.5,218.7 Z M272.5,218.7" class="wall"/>
                <path d="M248.6,49.3 L285,50.8 L283,23.8 L276.8,24.1 L250.5,15.8 C242.8,21.3 235,26.9 227.3,32.4 L226.1,32.4 L226.1,38.7 L253.9,45.6 L248.6,49.3 L248.6,49.3 Z M248.6,49.3" class="wall"/>
            </g>
            <g class="ceilings">
                <path class="unit" d="M281.6,9 L282.1,17.8 L277.8,17.8 L257.2,10.9 L264.2,5.6 L279.8,9.7 L281.6,9 L281.6,9 Z M281.6,9" id="2001"/>
                <path class="unit" d="M303.6,8.8 L336.5,32.5 L305.7,31.4 L303.6,8.8 L303.6,8.8 Z M303.6,8.8" id="2002"/>
                <path class="unit" d="M250.5,15.7 L276.8,24 L283,23.7 L284,37 L240.8,35.7 L227.4,32.3 C235.1,26.8 242.8,21.2 250.5,15.7 L250.5,15.7 L250.5,15.7 Z M250.5,15.7" id="2003"/>
                <path class="unit" d="M346.8,40.1 L306.3,38.3 L305.9,31.8 L336.8,32.8 L346.8,40.1 L346.8,40.1 Z M346.8,40.1" id="2004"/>
                <path class="unit" d="M240.5,35.8 L284.1,37.3 L284.5,43.9 L257.3,43 L260.4,40.7 L240.5,35.8 L240.5,35.8 Z M240.5,35.8" id="2005"/>
                <path class="unit" d="M356.9,47.2 L306.8,45.2 L306.3,38.5 L347.1,40.2 L356.9,47.2 L356.9,47.2 Z M356.9,47.2" id="2006"/>
                <path class="unit" d="M257.5,43 L284.5,44 L285,50.8 L248.6,49.3 L257.5,43 L257.5,43 Z M257.5,43" id="2007"/>
                <path class="unit" d="M367.4,54.7 L307.3,52.5 L306.8,45.5 L357.1,47.3 L367.4,54.7 L367.4,54.7 Z M367.4,54.7" id="2008"/>
                <path class="unit" d="M248.4,49.5 L285.1,51 L285.6,58.5 L238.3,56.6 L248.4,49.5 L248.4,49.5 Z M248.4,49.5" id="2009"/>
                <path class="unit" d="M378.6,63 L307.8,60.5 L307.3,52.9 L367.6,54.9 L378.6,63 L378.6,63 Z M378.6,63" id="2010"/>
                <path class="unit" d="M238.2,56.7 L285.7,58.8 L286.4,65.5 L229,63.3 L238.2,56.7 L238.2,56.7 Z M238.2,56.7" id="2011"/>
                <path class="unit" d="M385.3,70.4 L308.2,67 L307.8,60.7 L378.9,63 L387.2,69 L385.3,70.4 L385.3,70.4 Z M385.3,70.4" id="2012"/>
                <path class="unit" d="M228.9,63.3 L286.3,65.7 L286.8,71.4 L221.5,68.7 L228.9,63.3 L228.9,63.3 Z M228.9,63.3" id="2013"/>
                <path class="unit" d="M287.3,79.1 L239.4,77.1 L217.2,71.6 L221.5,68.6 L286.8,71.6 L287.3,79.1 L287.3,79.1 Z M287.3,79.1" id="2014"/>
                <path class="unit" d="M365,84.3 L309.1,82.1 L308.2,67.3 L385.2,70.4 L365,84.3 L365,84.3 Z M365,84.3" id="2015"/>
                <path class="unit" d="M334.8,105.9 L322.6,105.3 C323.7,103.1 323.6,101 322.2,99 L342.8,100.1 L334.8,105.9 L334.8,105.9 Z M334.8,105.9" id="2016"/>
                <path class="unit" d="M319.4,108.7 C320.7,107.8 321.7,106.6 322.5,105.3 L334.4,106.1 L324.1,113.6 L316,110.6 C317.4,109.9 318.6,109.3 319.4,108.7 L319.4,108.7 L319.4,108.7 Z M319.4,108.7" id="2017"/>
                <path class="unit" d="M263.2,83.1 L240.8,77.6 L287.3,79.5 L287.6,84 L263.2,83.1 L263.2,83.1 Z M263.2,83.1" id="2018"/>
                <path class="unit" d="M287.8,84.3 L288.6,90 L263.5,83.4 L287.8,84.3 L287.8,84.3 Z M287.8,84.3" id="2019"/>
                <path class="unit" d="M343.2,99.8 L322.1,98.9 C319.9,96.1 315.8,93.8 309.8,92.2 L309.1,82.4 L364.5,84.6 L343.2,99.8 L343.2,99.8 Z M343.2,99.8" id="2020"/>
                <path class="unit" d="M263.8,103.2 C264.2,105.6 266.1,107.8 269.5,109.8 L261.9,114.7 L203.7,100.4 L212.2,94.6 L169.8,83.8 L193.2,67 L287.8,91 C283.5,91.4 279.6,92 276.2,92.9 C272.4,93.9 269.5,95.1 267.5,96.5 C264.6,98.4 263.4,100.7 263.8,103.2 L263.8,103.2 L263.8,103.2 Z M263.8,103.2" id="2021"/>
                <path class="unit" d="M174.8,121 L232.8,135.5 L218.3,145.8 L160.3,131.3 L174.8,121 L174.8,121 Z M174.8,121" id="2022"/>
                <path class="unit" d="M160.1,131.6 L218,146 L203.5,156.3 L145.6,141.8 L160.1,131.6 L160.1,131.6 Z M160.1,131.6" id="2023"/>
                <path class="unit" d="M138,147.5 L195.7,162 L189.9,166.2 L167.4,169.9 L122.6,158.5 L138,147.5 L138,147.5 Z M138,147.5" id="2024"/>
                <path class="unit" d="M261.6,115 L203.6,100.5 L197,105.2 L255,119.7 L261.6,115 Z M261.6,115" id="2025"/>
                <path class="unit" d="M189.9,110.3 L247.9,124.8 L240.7,129.9 L182.7,115.4 L189.9,110.3 L189.9,110.3 Z M189.9,110.3" id="2026"/>
                <path class="unit" d="M182.3,115.7 L240.4,130.1 L233.2,135.2 L175.1,120.8 L182.3,115.7 L182.3,115.7 Z M182.3,115.7" id="2027"/>
                <path class="unit" d="M247,201.6 L305.9,159.6 L317.8,162.6 L289.6,182.8 L328.8,192.3 L284.3,211 L247,201.6 L247,201.6 Z M247,201.6" id="2028"/>
                <path class="unit" d="M373.2,147.5 L313.5,120.7 L317.5,118.6 L306.6,113.4 C300.5,114.6 295,115.1 290,114.9 L248.2,144.7 L296.2,156.7 L288.7,162.1 L298.7,164.6 L306.2,159.2 L343.1,168.4 L356.1,159.1 L356.2,159 L373.2,147.5 L373.2,147.5 Z M373.2,147.5" id="2029"/>
                <path class="unit" d="M240.5,150.4 L298.6,164.9 L291.4,170.1 L233.4,155.5 L240.5,150.4 L240.5,150.4 Z M240.5,150.4" id="2030"/>
                <path class="unit" d="M288.7,162.1 L240.8,150.1 L248,145 L295.9,157 L288.7,162.1 L288.7,162.1 Z M288.7,162.1" id="2031"/>
                <path class="unit" d="M145.4,142.1 L203.2,156.6 L196,161.8 L138.2,147.3 L145.4,142.1 L145.4,142.1 Z M145.4,142.1" id="2032"/>
                <path class="unit" d="M233.1,155.8 L291,170.3 L283.8,175.4 L225.9,160.9 L233.1,155.8 L233.1,155.8 Z M233.1,155.8" id="2033"/>
                <path class="unit" d="M225.6,161.1 L283.5,175.7 L276.3,180.8 L218.4,166.2 L225.6,161.1 L225.6,161.1 Z M225.6,161.1" id="2034"/>
                <path class="unit" d="M122.2,158.7 L166.8,170 L147.8,183.6 L103.2,172.3 L122.2,158.7 L122.2,158.7 Z M122.2,158.7" id="2035"/>
                <path class="unit" d="M93.6,169.9 L204.6,198 L199.8,200.9 L273.3,218.9 L206,249.5 L88.3,220.3 L84,223.4 L61,220.8 L79.5,208.2 L19.8,193.5 L18.4,191.8 L50.7,168.6 L72.4,174.3 L73.5,173.3 C77.5,174.3 81.4,174.5 85,174.1 C86.8,173.9 88.3,173.6 89.3,173.2 L93.6,169.9 L93.6,169.9 Z M93.6,169.9" id="2036"/>
                <path class="unit" d="M22.4,203 L58.3,211.6 L53,214.6 L61.3,216.3 L57.3,218.8 L44.2,217.7 C35.4,216.7 27.7,215.4 21.2,213.7 C15.3,212.3 10.6,210.6 7,208.6 L12.9,204.3 L3.7,202.6 L18.3,191.8 L19.8,193.7 L31.4,196.6 L22.4,203 L22.4,203 Z M22.4,203" id="2037"/>
                <path class="unit" d="M218.1,166.3 L275.9,181.1 L247.3,201.5 L201.7,190.6 L214.6,181.7 L210.9,171.5 L218.1,166.3 L218.1,166.3 Z M218.1,166.3" id="2038"/>
                <path class="unit" d="M268.3,2.8 L281.6,7 L281.6,8.8 L279.8,9.6 L264.3,5.6 L268.3,2.8 L268.3,2.8 Z M268.3,2.8" id="2039"/>
                <path class="unit" d="M190.3,110 L248.3,124.4 L254.8,119.8 L196.8,105.4 L190.3,110 Z M190.3,110" id="2040"/>
        </g>
    </g>
</svg>