<?xml version="1.0" encoding="utf-8"?>
<!DOCTYPE svg PUBLIC "-//W3C//DTD SVG 1.1//EN" "http://www.w3.org/Graphics/SVG/1.1/DTD/svg11.dtd">
<svg version="1.1" xmlns="http://www.w3.org/2000/svg" xmlns:xlink="http://www.w3.org/1999/xlink" xml:space="preserve">
<g class="level" id="level0">
            <g class="outline">
                    <path d="M165.9,212.3 C165.7,212.3 165.5,212.3 165.3,212.2 L151.6,208.8 C150.6,208.6 149.9,207.8 149.7,206.8 C149.5,205.8 149.9,204.8 150.7,204.2 L166.8,192.7 L166.6,192.7 C165.6,192.5 164.9,191.7 164.7,190.7 C164.5,189.7 164.9,188.7 165.7,188.1 L173.7,182.4 C174.3,182 175.1,181.8 175.8,182 L179.4,182.9 C180,183.1 180.3,183 180.3,183 L228.1,148.9 L217.5,146.2 C216.4,145.9 215.6,144.9 215.6,143.7 L215.6,139.9 C215.6,139.1 216,138.3 216.7,137.8 L225.6,131.4 C226.2,131 227,130.8 227.7,131 L231,131.8 L231,128.8 C231,128 231.4,127.2 232.1,126.8 L234.5,125.1 L200.4,116.6 C200.7,117 200.8,117.5 200.8,118 L200.8,121.8 C200.8,122.6 200.4,123.4 199.7,123.9 L181.9,136.6 C181.3,137 180.5,137.2 179.8,137 L161.7,132.5 C161.5,132.4 161.3,132.4 161.1,132.3 L159.6,133.4 L159.6,134.3 C159.6,135.1 159.2,135.9 158.5,136.4 L147.4,144.3 L163.1,148.2 C164.2,148.5 165.1,149.5 165,150.7 L165,154.6 C165,155.4 164.6,156.2 163.9,156.7 L145.5,169.8 C145.3,169.9 145.2,170 145,170.1 L129,181.5 C128.4,181.9 127.6,182.1 126.9,181.9 L88.4,172.3 C91.2,173.4 93.1,174.8 94.3,176.6 C95,177.8 97,181.7 91.9,185.3 C89.2,187.2 85.5,188.4 80.6,188.9 C75.9,189.4 71.4,189.1 67.2,188 C62.6,186.9 59.5,185.1 58,182.6 C57.3,181.5 55.4,177.5 60.4,173.9 C63.1,172 66.8,170.8 71.7,170.3 C75,170 78.3,170 81.4,170.4 L73.5,168.4 C72.4,168.1 71.6,167.2 71.6,166.1 L70.7,166.7 C70.1,167.1 69.3,167.3 68.6,167.1 L12.7,153.1 C11.6,152.8 10.8,151.8 10.8,150.6 L10.8,146.8 C10.8,146 11.2,145.2 11.9,144.7 L66.4,105.8 C67,105.4 67.8,105.2 68.5,105.4 L88.4,110.4 L100.8,101.5 L98,100.7 C96.9,100.4 96.2,99.4 96.2,98.3 L96.2,94.4 C96.2,93.6 96.6,92.8 97.3,92.3 L98.9,91.1 L15.3,70.3 C14.3,70.1 13.6,69.3 13.4,68.3 C13.2,67.3 13.6,66.3 14.4,65.7 L22.4,60 C23,59.6 23.8,59.4 24.5,59.6 L28.2,60.5 C28.8,60.7 29,60.6 29,60.6 L41.9,51.4 L41.2,50.3 C40.7,49.6 40.7,48.6 41.1,47.8 C41.5,47 42.3,46.5 43.1,46.4 L58.4,44.8 C59.4,44.7 60.3,45.2 60.8,46 L62,48 C62.1,48.1 62.8,48.5 64.7,49 L78.7,52.5 C79.3,52.6 79.6,52.6 79.7,52.5 L94.6,41.9 C95.2,41.5 96,41.3 96.7,41.5 L110.5,44.9 C111.5,45.1 112.2,45.9 112.4,46.9 C112.5,47.5 112.4,48.1 112.2,48.6 L192.8,68.7 L194.2,68.7 L272.8,12.7 C273.4,12.3 274.2,12.1 274.9,12.3 L288.6,15.7 C289.6,15.9 290.3,16.7 290.5,17.7 C290.7,18.7 290.3,19.7 289.5,20.3 L288.1,21.3 L291.7,22.2 C338.1,33.8 360.9,47.1 361.5,62.9 C361.7,68.2 359.3,73.4 354.3,78.4 C351.9,80.8 349.1,82.9 346.1,84.7 L167.4,211.8 C166.9,212.1 166.4,212.3 165.9,212.3 L165.9,212.3 L165.9,212.3 Z M203.5,104.3 L238.1,112.9 C238.3,112.6 238.5,112.3 238.8,112.1 L260.1,96.8 C260.7,96.4 261.5,96.2 262.2,96.4 L290.7,103.5 C291,103.6 291.2,103.7 291.4,103.8 L294.9,101.3 L274,96.2 C272.9,95.9 272.1,94.9 272.1,93.7 L272.1,89.8 C272.1,89 272.5,88.2 273.2,87.7 L289.3,76.2 C289.9,75.8 290.7,75.6 291.4,75.8 L292.1,76 L292.1,75.4 C292.1,74.8 292.3,74.2 292.7,73.8 L285.9,72.1 C284.8,71.8 284,70.8 284,69.6 L284,65.7 C284,64.9 284.4,64.1 285.1,63.6 L288.1,61.5 L276.1,58.5 L237.6,86 C237,86.4 236.2,86.6 235.5,86.4 L230.2,85.1 C230.1,85.3 203.5,104.3 203.5,104.3 L203.5,104.3 L203.5,104.3 Z M203.5,104.3" class="outline"/>
                </g>
                <g class="label">
                    <path d="M37.4,0.8 C37.1,0.8 36.9,1.1 36.8,1.4 C36.4,4.5 35.8,7.5 35,10.6 L35,10.6 C34.1,7.8 33.4,4.4 32.7,2.1 C32.4,1.1 32.1,0.8 31.6,0.8 C31.2,0.8 30.8,1.1 30.6,2 C29.9,4.3 29,8 28.2,10.6 L28.2,10.6 C27.4,7.5 27,4.5 26.6,1.4 C26.5,1 26.3,0.8 25.9,0.8 C25.5,0.8 25.3,1.1 25.3,1.4 L25.3,1.8 C25.7,4.9 26.3,8.1 27,10.8 C27.2,11.8 27.6,12.1 28.1,12.1 C28.6,12.1 28.9,11.8 29.2,11 C30.1,8.5 30.7,5.7 31.6,2.6 L31.6,2.6 C32.6,5.8 33.1,8.5 33.9,11 C34.2,11.9 34.5,12.1 35,12.1 C35.5,12.1 35.8,11.8 36,11 C36.8,8 37.4,4.9 37.9,1.7 L37.9,1.3 C38,1.1 37.8,0.8 37.4,0.8 L37.4,0.8 L37.4,0.8 Z M45.9,10.9 L41.1,10.9 L41.1,7 L45,7 C45.4,7 45.6,6.7 45.6,6.4 C45.6,6.1 45.4,5.8 45,5.8 L41.1,5.8 L41.1,2.1 L45.7,2.1 C46.1,2.1 46.3,1.8 46.3,1.5 C46.3,1.2 46.1,0.9 45.7,0.9 L41,0.9 C40.3,0.9 39.9,1.3 39.9,1.9 L39.9,11.2 C39.9,11.8 40.3,12.2 41,12.2 L45.9,12.2 C46.3,12.2 46.5,11.9 46.5,11.6 C46.5,11.1 46.3,10.9 45.9,10.9 L45.9,10.9 L45.9,10.9 Z M19.4,0.8 C16.5,0.8 14.7,3.1 14.7,6.7 C14.7,10.1 16.5,12.2 19.4,12.2 C22.3,12.2 24.1,9.8 24.1,6.2 C24.1,2.9 22.3,0.8 19.4,0.8 L19.4,0.8 L19.4,0.8 Z M19.4,11 C17.3,11 16,9.3 16,6.8 C16,3.8 17.2,2 19.4,2 C21.6,2 22.8,3.7 22.8,6.2 C22.8,9.1 21.6,11 19.4,11 L19.4,11 L19.4,11 Z M13.7,10.9 L9.4,10.9 L9.4,1.5 C9.4,1.1 9.1,0.8 8.8,0.8 C8.4,0.8 8.2,1.1 8.2,1.5 L8.2,11.1 C8.2,11.7 8.6,12.1 9.3,12.1 L13.8,12.1 C14.2,12.1 14.5,11.8 14.5,11.5 C14.4,11.2 14.1,10.9 13.7,10.9 L13.7,10.9 L13.7,10.9 Z M79.8,2.3 C79.2,1.1 78.7,0.7 78.1,0.7 C77.5,0.7 77,1.1 76.4,2.3 C75.5,4.1 74.8,6.4 73.6,11 C73.5,11.2 73.5,11.4 73.5,11.5 C73.5,11.9 73.8,12.1 74.1,12.1 C74.4,12.1 74.6,11.9 74.7,11.6 C75,10.3 75.3,9 75.6,8 L80.5,8 C80.8,9.1 81.1,10.3 81.4,11.7 C81.5,12 81.7,12.2 82,12.2 C82.4,12.2 82.6,12 82.6,11.6 C82.6,11.5 82.6,11.3 82.5,11.1 C81.4,6.4 80.6,4.1 79.8,2.3 L79.8,2.3 L79.8,2.3 Z M76,6.8 C76.7,4.4 77.4,2.8 77.9,2 C77.9,1.9 78,1.9 78.1,1.9 C78.2,1.9 78.3,2 78.3,2 C78.8,2.8 79.5,4.3 80.2,6.8 L76,6.8 L76,6.8 Z M54,8 C53.7,7.6 53.4,7.3 53,7 C54.4,6.5 55.4,5.5 55.4,4 C55.4,2.1 54.1,0.8 51.2,0.8 C50.1,0.8 49.3,0.9 48.8,1.1 C48.4,1.2 48.3,1.5 48.3,1.9 L48.3,11.6 C48.3,12 48.6,12.2 48.9,12.2 C49.3,12.2 49.5,12 49.5,11.6 L49.5,7.3 L50.7,7.3 C51.9,7.3 52.3,7.8 52.9,8.7 C53.3,9.3 53.7,10.3 54.2,11.7 C54.3,12 54.5,12.1 54.8,12.1 C55.1,12.1 55.4,11.9 55.4,11.5 C55.4,11.4 55.4,11.2 55.3,11.1 C55,9.9 54.5,8.7 54,8 L54,8 L54,8 Z M50.9,6.1 L49.5,6.1 L49.5,2.1 C49.9,2 50.4,2 51.1,2 C53.4,2 54.1,2.9 54.1,4.1 C54.1,5.7 52.5,6.2 50.9,6.1 L50.9,6.1 L50.9,6.1 Z M89.9,10.9 L85.6,10.9 L85.6,1.5 C85.6,1.1 85.3,0.8 85,0.8 C84.6,0.8 84.4,1.1 84.4,1.5 L84.4,11.1 C84.4,11.7 84.8,12.1 85.5,12.1 L90,12.1 C90.4,12.1 90.7,11.8 90.7,11.5 C90.5,11.2 90.3,10.9 89.9,10.9 L89.9,10.9 L89.9,10.9 Z M97.5,10.9 L93.2,10.9 L93.2,1.5 C93.2,1.1 92.9,0.8 92.6,0.8 C92.2,0.8 92,1.1 92,1.5 L92,11.1 C92,11.7 92.4,12.1 93.1,12.1 L97.6,12.1 C98,12.1 98.3,11.8 98.3,11.5 C98.1,11.2 97.9,10.9 97.5,10.9 L97.5,10.9 L97.5,10.9 Z M71.2,2.1 C71.1,1.3 70.8,0.8 70.1,0.8 C69.5,0.8 69.2,1.2 69,1.6 C68.2,3.8 67.3,6.6 66.3,9.3 L66.3,9.3 C65.3,6.8 64.5,4.2 63.5,1.8 C63.3,1.2 63,0.8 62.4,0.8 C61.7,0.8 61.4,1.2 61.3,2.1 C60.9,5 60.8,8.2 60.8,11.4 C60.8,11.8 61,12 61.4,12 C61.8,12 62,11.8 62,11.3 C62,8.2 62.2,5.2 62.5,2.3 L62.5,2.3 C63.5,4.9 64.4,7.6 65.5,10.2 C65.6,10.5 65.9,10.8 66.3,10.8 C66.7,10.8 67,10.6 67.1,10.2 C68.1,7.7 69,5 69.9,2.3 L69.9,2.3 C70.3,5.3 70.5,8.3 70.6,11.3 C70.6,11.7 70.8,12 71.2,12 C71.6,12 71.8,11.7 71.8,11.3 L71.8,10.8 C71.9,7.9 71.6,4.9 71.2,2.1 L71.2,2.1 L71.2,2.1 Z M71.2,2.1" class="Shape"/>
                    <path d="M323.6,111.2 L322.8,110.2 C322.5,109.9 322.4,109.6 322.2,109.5 C322,109.3 321.8,109.2 321.6,109.1 C321.4,109 321.1,109.1 320.8,109.1 C320.5,109.1 320.1,109.4 319.7,109.7 C319.3,110 319,110.3 318.8,110.6 C318.6,110.9 318.5,111.3 318.4,111.6 C318.4,111.9 318.5,112.3 318.6,112.6 L319.4,112.1 C319.2,111.7 319.2,111.4 319.3,111.1 C319.4,110.8 319.6,110.6 320,110.3 C320.4,110 320.8,109.9 321.1,109.9 C321.3,109.9 321.6,110.1 321.8,110.4 C321.8,110.4 321.9,110.5 321.9,110.6 C321.7,110.9 321.3,111.4 320.7,111.9 L320.1,112.5 C319.9,112.7 319.8,112.9 319.7,113.2 C319.6,113.4 319.6,113.7 319.6,113.9 C319.6,114.2 319.7,114.4 319.9,114.6 C320.2,115 320.5,115.2 321,115.3 C321.5,115.3 321.9,115.2 322.4,114.8 C322.7,114.6 323,114.3 323.2,114 C323.4,113.7 323.5,113.3 323.7,112.9 C323.9,113.1 324.1,113.3 324.3,113.4 L325.1,112.8 C324.9,112.7 324.7,112.6 324.5,112.4 C324.3,112.2 324.1,111.9 323.6,111.2 L323.6,111.2 L323.6,111.2 Z M323,113.5 C322.9,113.8 322.6,114.1 322.3,114.3 C322,114.5 321.7,114.6 321.5,114.6 C321.2,114.6 321,114.5 320.9,114.3 C320.8,114.2 320.7,114 320.7,113.9 C320.7,113.7 320.7,113.6 320.8,113.4 C320.9,113.2 321.1,113 321.4,112.7 C321.9,112.2 322.3,111.8 322.5,111.5 L322.7,111.8 C322.9,112.1 323.1,112.4 323.1,112.7 C323.2,112.9 323.2,113.2 323,113.5 L323,113.5 L323,113.5 Z M319.6,116.1 L316.7,112.1 L316,112.6 L316.4,113.2 C315.7,113 315.1,113.1 314.6,113.5 C314.2,113.8 313.9,114.2 313.8,114.6 C313.6,115 313.6,115.5 313.7,116 C313.8,116.5 314,117 314.3,117.4 C314.8,118 315.3,118.5 316,118.7 C316.7,118.9 317.3,118.8 318,118.3 C318.5,117.9 318.8,117.4 318.8,116.8 C319.2,117.3 319.4,117.7 319.5,117.8 C319.6,118.1 319.6,118.4 319.5,118.7 C319.4,119 319.2,119.3 318.8,119.5 C318.5,119.7 318.1,119.9 317.8,119.9 C317.6,119.9 317.4,119.8 317.2,119.6 L316.4,120 C316.8,120.5 317.2,120.8 317.7,120.8 C318.2,120.8 318.8,120.6 319.3,120.2 C319.8,119.9 320.1,119.5 320.3,119.1 C320.5,118.7 320.6,118.3 320.5,117.9 C320.4,117.4 320.1,116.8 319.6,116.1 L319.6,116.1 L319.6,116.1 Z M317.6,117.5 C317.2,117.8 316.8,117.8 316.4,117.7 C316,117.6 315.5,117.2 315.1,116.6 C314.7,116 314.5,115.5 314.6,115.1 C314.7,114.7 314.8,114.3 315.2,114 C315.6,113.7 316,113.7 316.4,113.8 C316.9,113.9 317.3,114.2 317.7,114.8 C318.1,115.4 318.3,115.9 318.3,116.4 C318.1,116.9 317.9,117.3 317.6,117.5 L317.6,117.5 L317.6,117.5 Z M311.5,115.9 L312.6,119.1 L313,120.2 L312.1,119.5 L309.5,117.3 L308.7,117.9 L309.9,121.1 C310.2,121.8 310.3,122.2 310.4,122.2 L309.4,121.4 L306.7,119.3 L305.9,119.9 L310.7,123.5 L311.5,122.9 L309.9,118.7 L310.6,119.4 L313.3,121.6 L314.1,121 L312.2,115.3 L311.5,115.9 L311.5,115.9 Z M298.2,122.9 L301.8,127.9 L294.8,125.3 L293.9,125.9 L298.5,132.3 L299.3,131.7 L295.7,126.7 L302.7,129.3 L303.6,128.7 L299,122.3 L298.2,122.9 L298.2,122.9 Z M307,123.9 C307.1,124.3 307.1,124.7 307,125 C306.9,125.3 306.7,125.6 306.4,125.8 C306,126.1 305.6,126.2 305.1,126.1 C304.6,126 304.2,125.7 303.8,125.2 L307.2,122.7 C307.1,122.6 307.1,122.5 307.1,122.5 C306.5,121.7 305.9,121.3 305.2,121.2 C304.5,121.1 303.8,121.2 303.2,121.7 C302.6,122.2 302.2,122.8 302.1,123.5 C302,124.2 302.2,125 302.8,125.7 C303.3,126.5 304,126.9 304.7,127 C305.4,127.1 306.1,126.9 306.8,126.5 C307.3,126.1 307.7,125.7 307.8,125.1 C308,124.6 307.9,124.1 307.7,123.5 L307,123.9 L307,123.9 Z M303.2,123.3 C303.3,122.9 303.5,122.5 303.8,122.3 C304.2,122 304.6,121.9 305.1,122 C305.4,122.1 305.7,122.3 306,122.7 L303.4,124.6 C303.2,124.1 303.1,123.7 303.2,123.3 L303.2,123.3 L303.2,123.3 Z M342.9,99.1 C342.8,99.2 342.7,99.2 342.6,99.2 C342.5,99.2 342.4,99.2 342.4,99.1 C342.3,99.1 342.2,98.9 342,98.7 L340,96 L340.8,95.4 L340.4,94.8 L339.6,95.4 L338.4,93.8 L338,94.8 L338.8,95.9 L338.2,96.3 L338.6,96.9 L339.2,96.5 L341.1,99.2 C341.4,99.7 341.7,100 341.9,100.1 C342.1,100.2 342.3,100.2 342.5,100.2 C342.7,100.2 343,100.1 343.3,99.9 C343.5,99.8 343.7,99.6 343.8,99.4 L343.2,98.8 C343.1,99 343,99 342.9,99.1 L342.9,99.1 L342.9,99.1 Z M354.5,89.4 C354.6,89.8 354.6,90.2 354.5,90.5 C354.4,90.8 354.2,91.1 353.9,91.3 C353.5,91.6 353.1,91.7 352.6,91.6 C352.1,91.5 351.7,91.2 351.3,90.7 L354.7,88.2 C354.6,88.1 354.6,88 354.6,88 C354,87.2 353.4,86.8 352.7,86.7 C352,86.6 351.3,86.7 350.7,87.2 C350.1,87.7 349.7,88.3 349.6,89 C349.5,89.7 349.7,90.5 350.3,91.2 C350.8,92 351.5,92.4 352.2,92.5 C352.9,92.6 353.6,92.4 354.3,92 C354.8,91.6 355.2,91.2 355.3,90.6 C355.4,90 355.4,89.5 355.2,89 L354.5,89.4 L354.5,89.4 Z M350.7,88.8 C350.8,88.4 351,88 351.3,87.8 C351.7,87.5 352.1,87.4 352.6,87.5 C352.9,87.6 353.2,87.8 353.5,88.2 L351,90 C350.7,89.6 350.6,89.2 350.7,88.8 L350.7,88.8 L350.7,88.8 Z M327.1,110.6 C327,110.7 326.9,110.7 326.8,110.7 C326.7,110.7 326.6,110.7 326.6,110.6 C326.5,110.6 326.4,110.4 326.2,110.2 L324.2,107.5 L325,106.9 L324.6,106.3 L323.8,106.9 L322.6,105.3 L322.2,106.3 L323,107.4 L322.4,107.8 L322.8,108.4 L323.4,108 L325.3,110.7 C325.6,111.2 325.9,111.5 326.1,111.6 C326.3,111.7 326.5,111.7 326.7,111.7 C326.9,111.7 327.2,111.6 327.5,111.4 C327.7,111.3 327.9,111.1 328,110.9 L327.4,110.3 C327.3,110.5 327.1,110.5 327.1,110.6 L327.1,110.6 L327.1,110.6 Z M358.5,87.7 L358.2,88 C358.1,88.1 358,88.1 357.9,88.1 C357.8,88.1 357.7,88.1 357.7,88 C357.6,88 357.5,87.8 357.3,87.6 L355.3,84.9 L356.1,84.3 L355.7,83.7 L354.9,84.3 L353.7,82.7 L353.3,83.7 L354.1,84.8 L353.5,85.2 L353.9,85.8 L354.5,85.4 L356.4,88.1 C356.7,88.6 357,88.9 357.2,89 C357.4,89.1 357.6,89.1 357.8,89.1 C358,89.1 358.3,89 358.6,88.8 C358.8,88.7 359,88.5 359.1,88.3 L358.5,87.7 L358.5,87.7 Z M349.5,93 C349.6,93.4 349.6,93.8 349.5,94.1 C349.4,94.4 349.2,94.7 348.9,94.9 C348.5,95.2 348.1,95.3 347.6,95.2 C347.1,95.1 346.7,94.8 346.3,94.3 L349.7,91.8 C349.6,91.7 349.6,91.6 349.6,91.6 C349,90.8 348.4,90.4 347.7,90.3 C347,90.2 346.3,90.3 345.7,90.8 C345.1,91.3 344.7,91.9 344.6,92.6 C344.5,93.3 344.7,94.1 345.3,94.8 C345.8,95.6 346.5,96 347.2,96.1 C347.9,96.2 348.6,96 349.3,95.6 C349.8,95.2 350.2,94.8 350.3,94.2 C350.5,93.7 350.4,93.1 350.2,92.6 L349.5,93 L349.5,93 Z M345.7,92.4 C345.8,92 346,91.6 346.3,91.4 C346.7,91.1 347.1,91 347.6,91.1 C347.9,91.2 348.2,91.4 348.5,91.8 L345.9,93.7 C345.8,93.2 345.7,92.8 345.7,92.4 L345.7,92.4 L345.7,92.4 Z M330.7,106.7 C330.8,107.1 330.8,107.5 330.7,107.8 C330.6,108.1 330.4,108.4 330.1,108.6 C329.7,108.9 329.3,109 328.8,108.9 C328.3,108.8 327.9,108.5 327.5,108 L330.9,105.5 C330.8,105.4 330.8,105.3 330.8,105.3 C330.2,104.5 329.6,104.1 328.9,104 C328.2,103.9 327.5,104 326.9,104.5 C326.3,105 325.9,105.6 325.8,106.3 C325.7,107 325.9,107.8 326.5,108.5 C327,109.3 327.7,109.7 328.4,109.8 C329.1,109.9 329.8,109.7 330.5,109.3 C331,108.9 331.4,108.5 331.5,107.9 C331.7,107.4 331.6,106.9 331.4,106.3 L330.7,106.7 L330.7,106.7 Z M327,106 C327.1,105.6 327.3,105.2 327.6,105 C328,104.7 328.4,104.6 328.9,104.7 C329.2,104.8 329.5,105 329.8,105.4 L327.2,107.3 C327,106.9 326.9,106.5 327,106 L327,106 L327,106 Z M338.7,99 C338.3,98.9 337.9,98.9 337.4,98.9 C337.1,99 336.5,99.2 335.7,99.5 C334.9,99.8 334.4,100 334.1,100 C333.8,100 333.6,99.8 333.4,99.6 C333.2,99.3 333.2,99 333.3,98.7 C333.4,98.3 333.7,98 334.2,97.6 C334.7,97.2 335.1,97.1 335.5,97.1 C335.9,97.1 336.3,97.3 336.6,97.7 L337.4,97.1 C337.1,96.7 336.8,96.5 336.4,96.3 C336,96.1 335.6,96.1 335.1,96.2 C334.6,96.3 334.2,96.5 333.7,96.9 C333.3,97.2 332.9,97.6 332.7,98 C332.5,98.4 332.3,98.8 332.4,99.2 C332.4,99.6 332.5,100 332.8,100.3 C333,100.6 333.3,100.8 333.6,100.9 C333.9,101 334.3,101.1 334.7,101 C335,101 335.5,100.8 336.2,100.5 C336.9,100.2 337.3,100 337.6,100 C337.9,99.9 338.2,99.9 338.4,100 C338.6,100.1 338.8,100.2 339,100.4 C339.1,100.6 339.2,100.8 339.2,101.1 C339.2,101.4 339.1,101.6 338.9,101.9 C338.7,102.2 338.5,102.4 338.2,102.7 C337.8,103 337.5,103.1 337.1,103.2 C336.7,103.3 336.4,103.3 336.1,103.2 C335.8,103.1 335.5,102.9 335.3,102.6 L334.6,103.2 C334.9,103.6 335.3,103.9 335.8,104.1 C336.3,104.3 336.8,104.3 337.3,104.2 C337.8,104.1 338.4,103.8 338.9,103.4 C339.4,103.1 339.7,102.7 339.9,102.3 C340.1,101.9 340.3,101.4 340.2,101 C340.2,100.6 340,100.2 339.8,99.8 C339.4,99.4 339.1,99.2 338.7,99 L338.7,99 L338.7,99 Z M343,95 C342.9,94.8 342.9,94.6 343,94.4 C343.1,94.2 343.2,94 343.3,93.9 C343.5,93.8 343.7,93.7 344,93.7 L343.7,92.8 C343.3,92.8 343,92.9 342.7,93.1 C342.5,93.2 342.4,93.4 342.3,93.6 C342.2,93.8 342.2,94.2 342.3,94.6 L341.8,93.9 L341.1,94.4 L344.5,99 L345.3,98.4 L343.5,96 C343.3,95.7 343.1,95.3 343,95 L343,95 L343,95 Z M343,95" class="Shape"/>
                    <path d="M224.1,179.3 C224,179.1 224,178.9 224.1,178.7 C224.2,178.5 224.3,178.3 224.4,178.2 C224.6,178.1 224.8,178 225.1,178 L224.8,177.1 C224.4,177.1 224.1,177.2 223.8,177.4 C223.6,177.5 223.5,177.7 223.4,177.9 C223.3,178.1 223.3,178.5 223.4,178.9 L222.9,178.2 L222.2,178.7 L225.6,183.3 L226.4,182.7 L224.6,180.3 C224.4,180 224.2,179.6 224.1,179.3 L224.1,179.3 L224.1,179.3 Z M230.4,177.2 C230.6,177.6 230.7,178 230.6,178.4 C230.5,178.7 230.3,179 230,179.2 C229.6,179.5 229.2,179.6 228.8,179.5 C228.4,179.4 227.9,179 227.5,178.4 C227.1,177.8 226.9,177.3 226.9,176.8 C226.9,176.3 227.2,176 227.6,175.7 C227.9,175.5 228.1,175.4 228.4,175.5 C228.7,175.5 229,175.7 229.3,175.9 L230,175.2 C229.6,174.8 229.1,174.6 228.6,174.6 C228.1,174.6 227.6,174.7 227.1,175.1 C226.7,175.4 226.4,175.7 226.2,176.2 C226,176.6 226,177.1 226.1,177.6 C226.2,178.1 226.4,178.6 226.8,179.1 C227.4,179.9 228,180.3 228.7,180.5 C229.4,180.6 230,180.5 230.7,180 C231.2,179.6 231.5,179.2 231.6,178.6 C231.7,178 231.6,177.5 231.3,176.9 L230.4,177.2 L230.4,177.2 Z M215.6,182.3 C215.3,182.1 215,182 214.6,182.1 C214.3,182.1 213.9,182.2 213.6,182.4 C213.3,182.5 213,182.7 212.6,183 L210.2,184.7 L214.8,191.1 L215.6,190.5 L213.7,187.9 L215.3,186.7 C216.2,186 216.7,185.4 216.8,184.8 C216.9,184.2 216.7,183.6 216.3,183 C216.2,182.7 215.9,182.5 215.6,182.3 L215.6,182.3 L215.6,182.3 Z M215.8,184.8 C215.7,185.2 215.4,185.6 214.9,185.9 L213.3,187.1 L211.6,184.8 L213.2,183.6 C213.6,183.3 213.9,183.2 214,183.1 C214.3,183 214.5,183 214.8,183.1 C215.1,183.2 215.3,183.4 215.5,183.6 C215.8,184.1 215.9,184.5 215.8,184.8 L215.8,184.8 L215.8,184.8 Z M222.7,183.1 C222.8,183.5 222.8,183.9 222.7,184.2 C222.6,184.5 222.4,184.8 222.1,185 C221.7,185.3 221.3,185.4 220.8,185.3 C220.3,185.2 219.9,184.9 219.5,184.4 L222.9,181.9 C222.8,181.8 222.8,181.7 222.8,181.7 C222.2,180.9 221.6,180.5 220.9,180.4 C220.2,180.3 219.5,180.4 218.9,180.9 C218.3,181.4 217.9,182 217.8,182.7 C217.7,183.4 217.9,184.2 218.5,184.9 C219,185.7 219.7,186.1 220.4,186.2 C221.1,186.3 221.8,186.1 222.5,185.7 C223,185.3 223.4,184.9 223.5,184.3 C223.7,183.8 223.6,183.2 223.4,182.7 L222.7,183.1 L222.7,183.1 Z M219,182.4 C219.1,182 219.3,181.6 219.6,181.4 C220,181.1 220.4,181 220.9,181.1 C221.2,181.2 221.5,181.4 221.8,181.8 L219.2,183.7 C219,183.3 218.9,182.9 219,182.4 L219,182.4 L219,182.4 Z M235.1,176.5 L233.4,170.5 L232.6,171.1 L233.6,174.5 C233.7,174.9 233.9,175.4 234,175.8 C233.6,175.5 233.3,175.2 232.9,175 L230,173 L229.2,173.6 L234.3,177 C234.3,177.1 234.4,177.2 234.4,177.2 C234.5,177.6 234.6,177.8 234.6,178 C234.6,178.2 234.6,178.3 234.5,178.4 C234.4,178.5 234.3,178.7 234.1,178.8 C234,178.9 233.8,179 233.6,179.1 L234.2,179.8 L234.8,179.5 C235,179.3 235.2,179.1 235.3,178.9 C235.4,178.6 235.4,178.3 235.4,178 C235.4,177.6 235.3,177.1 235.1,176.5 L235.1,176.5 L235.1,176.5 Z M258.4,157.2 C258.5,157.6 258.5,158 258.4,158.3 C258.3,158.6 258.1,158.9 257.8,159.1 C257.4,159.4 257,159.5 256.5,159.4 C256,159.3 255.6,159 255.2,158.5 L258.6,156 C258.5,155.9 258.5,155.8 258.5,155.8 C257.9,155 257.3,154.6 256.6,154.5 C255.9,154.4 255.2,154.5 254.6,155 C254,155.5 253.6,156.1 253.5,156.8 C253.4,157.5 253.6,158.3 254.2,159 C254.7,159.8 255.4,160.2 256.1,160.3 C256.8,160.4 257.5,160.2 258.2,159.8 C258.7,159.4 259.1,159 259.2,158.4 C259.4,157.9 259.3,157.4 259.1,156.8 L258.4,157.2 L258.4,157.2 Z M254.6,156.6 C254.7,156.2 254.9,155.8 255.2,155.6 C255.6,155.3 256,155.2 256.5,155.3 C256.8,155.4 257.1,155.6 257.4,156 L254.8,157.9 C254.6,157.4 254.5,157 254.6,156.6 L254.6,156.6 L254.6,156.6 Z M262.4,155.5 L262.1,155.8 C262,155.9 261.9,155.9 261.8,155.9 C261.7,155.9 261.6,155.9 261.6,155.8 C261.5,155.8 261.4,155.6 261.2,155.4 L259.2,152.7 L260,152.1 L259.6,151.5 L258.8,152.1 L257.6,150.5 L257.2,151.5 L258,152.6 L257.4,153 L257.8,153.6 L258.4,153.2 L260.3,155.9 C260.6,156.4 260.9,156.7 261.1,156.8 C261.3,156.9 261.5,156.9 261.7,156.9 C261.9,156.9 262.2,156.8 262.5,156.6 C262.7,156.5 262.9,156.3 263,156.1 L262.4,155.5 L262.4,155.5 Z M242.6,166.8 C242.2,166.7 241.8,166.6 241.3,166.7 C241,166.8 240.4,167 239.6,167.3 C238.8,167.6 238.3,167.8 238,167.8 C237.7,167.8 237.5,167.6 237.3,167.4 C237.1,167.1 237.1,166.8 237.2,166.5 C237.3,166.1 237.6,165.8 238.1,165.4 C238.6,165 239,164.9 239.4,164.9 C239.8,164.9 240.2,165.1 240.5,165.5 L241.3,164.9 C241,164.5 240.7,164.3 240.3,164.1 C239.9,163.9 239.5,163.9 239,164 C238.5,164.1 238.1,164.3 237.6,164.7 C237.2,165 236.8,165.4 236.6,165.8 C236.4,166.2 236.2,166.6 236.3,167 C236.3,167.4 236.4,167.8 236.7,168.1 C236.9,168.4 237.2,168.6 237.5,168.7 C237.8,168.8 238.2,168.9 238.6,168.8 C238.9,168.8 239.4,168.6 240.1,168.3 C240.8,168 241.2,167.8 241.5,167.8 C241.8,167.7 242.1,167.7 242.3,167.8 C242.5,167.9 242.7,168 242.9,168.2 C243,168.4 243.1,168.6 243.1,168.9 C243.1,169.2 243,169.4 242.8,169.7 C242.6,170 242.4,170.2 242.1,170.5 C241.7,170.8 241.4,170.9 241,171 C240.6,171.1 240.3,171.1 240,171 C239.7,170.9 239.4,170.7 239.2,170.4 L238.5,171 C238.8,171.4 239.2,171.7 239.7,171.9 C240.2,172.1 240.7,172.1 241.2,172 C241.7,171.9 242.3,171.6 242.8,171.2 C243.3,170.9 243.6,170.5 243.8,170.1 C244,169.7 244.2,169.2 244.1,168.8 C244.1,168.4 243.9,168 243.7,167.6 C243.3,167.2 243,166.9 242.6,166.8 L242.6,166.8 L242.6,166.8 Z M253.4,160.8 C253.5,161.2 253.5,161.6 253.4,161.9 C253.3,162.2 253.1,162.5 252.8,162.7 C252.4,163 252,163.1 251.5,163 C251,162.9 250.6,162.6 250.2,162.1 L253.6,159.6 C253.5,159.5 253.5,159.4 253.5,159.4 C252.9,158.6 252.3,158.2 251.6,158.1 C250.9,158 250.2,158.1 249.6,158.6 C249,159.1 248.6,159.7 248.5,160.4 C248.4,161.1 248.6,161.9 249.2,162.6 C249.7,163.4 250.4,163.8 251.1,163.9 C251.8,164 252.5,163.8 253.2,163.4 C253.7,163 254.1,162.6 254.2,162 C254.4,161.5 254.3,161 254.1,160.4 L253.4,160.8 L253.4,160.8 Z M249.6,160.2 C249.7,159.8 249.9,159.4 250.2,159.2 C250.6,158.9 251,158.8 251.5,158.9 C251.8,159 252.1,159.2 252.4,159.6 L249.8,161.5 C249.7,161 249.6,160.6 249.6,160.2 L249.6,160.2 L249.6,160.2 Z M246.8,162.8 C246.7,162.6 246.7,162.4 246.8,162.2 C246.9,162 247,161.8 247.1,161.7 C247.3,161.6 247.5,161.5 247.8,161.5 L247.5,160.6 C247.1,160.6 246.8,160.7 246.5,160.9 C246.3,161 246.2,161.2 246.1,161.4 C246,161.6 246,162 246.1,162.4 L245.6,161.7 L244.9,162.2 L248.3,166.8 L249.1,166.2 L247.3,163.8 C247.1,163.4 247,163.1 246.8,162.8 L246.8,162.8 L246.8,162.8 Z M246.8,166.9 C246.7,167 246.6,167 246.5,167 C246.4,167 246.3,167 246.3,166.9 C246.2,166.9 246.1,166.7 245.9,166.5 L243.9,163.8 L244.7,163.2 L244.3,162.6 L243.5,163.2 L242.3,161.6 L241.9,162.6 L242.7,163.7 L242.1,164.1 L242.5,164.7 L243.1,164.3 L245,167 C245.3,167.5 245.6,167.8 245.8,167.9 C246,168 246.2,168 246.4,168 C246.6,168 246.9,167.9 247.2,167.7 C247.4,167.6 247.6,167.4 247.7,167.2 L247.1,166.6 L246.8,166.9 L246.8,166.9 L246.8,166.9 Z M246.8,166.9" class="Shape"/>
                    <path d="M221.2,43.8 C221.1,43.9 221,43.9 220.9,43.9 C220.8,43.9 220.7,43.9 220.7,43.8 C220.6,43.8 220.5,43.6 220.4,43.4 L218.5,40.7 L219.3,40.1 L218.9,39.5 L218.1,40.1 L217,38.5 L216.5,39.5 L217.3,40.7 L216.7,41.1 L217.1,41.7 L217.7,41.3 L219.6,44 C219.9,44.5 220.2,44.8 220.4,44.9 C220.6,45 220.8,45 221,45 C221.2,45 221.5,44.9 221.8,44.7 C222,44.6 222.2,44.4 222.3,44.2 L221.7,43.6 C221.4,43.6 221.2,43.7 221.2,43.8 L221.2,43.8 L221.2,43.8 Z M217.9,47.2 L216.3,41.2 L215.5,41.8 L216.4,45.2 C216.5,45.6 216.7,46.1 216.8,46.5 C216.4,46.2 216.1,45.9 215.7,45.7 L212.8,43.7 L211.9,44.3 L217,47.7 C217,47.8 217,47.9 217.1,47.9 C217.2,48.3 217.3,48.5 217.3,48.7 C217.3,48.9 217.3,49 217.2,49.1 C217.1,49.2 217,49.4 216.8,49.5 C216.7,49.6 216.5,49.7 216.3,49.7 L216.9,50.4 L217.5,50.1 C217.8,49.9 217.9,49.7 218,49.5 C218.1,49.3 218.1,48.9 218.1,48.6 C218.1,48.3 218,47.9 217.9,47.2 L217.9,47.2 L217.9,47.2 Z M205.3,52.5 C205.6,53.1 205.6,53.7 205.5,54.2 C205.4,54.7 205.1,55.1 204.6,55.5 C204.2,55.8 203.8,55.9 203.3,56 C202.8,56 202.4,55.9 201.9,55.6 C201.5,55.3 201,54.9 200.7,54.3 C200.4,53.9 200.2,53.4 200,52.9 C199.9,52.4 199.9,51.9 200,51.5 C200.2,51 200.5,50.6 201,50.3 C201.4,50 201.9,49.9 202.3,49.9 C202.7,49.9 203.2,50.1 203.7,50.5 L204.4,49.7 C203.8,49.2 203.2,49 202.5,49 C201.8,49 201.2,49.2 200.5,49.6 C199.9,50 199.5,50.5 199.2,51.1 C198.9,51.7 198.8,52.3 198.9,53 C199,53.7 199.3,54.4 199.7,55 C200.1,55.6 200.6,56.1 201.3,56.5 C201.9,56.9 202.5,57.1 203.2,57 C203.8,57 204.5,56.7 205.2,56.2 C205.9,55.7 206.3,55.1 206.5,54.5 C206.7,53.8 206.7,53 206.3,52.2 L205.3,52.5 L205.3,52.5 Z M204.2,47 L208.7,53.5 L209.5,52.9 L205,46.4 L204.2,47 L204.2,47 Z M213.1,47.5 L212.4,46.4 C212.2,46 212,45.8 211.8,45.7 C211.6,45.5 211.4,45.4 211.2,45.3 C211,45.2 210.7,45.3 210.4,45.3 C210.1,45.4 209.7,45.6 209.3,45.8 C208.9,46.1 208.6,46.4 208.4,46.7 C208.2,47 208,47.3 208,47.7 C208,48 208.1,48.4 208.2,48.7 L209,48.3 C208.9,47.9 208.8,47.6 208.9,47.3 C209,47 209.2,46.8 209.6,46.5 C210,46.2 210.4,46.1 210.7,46.1 C210.9,46.1 211.2,46.3 211.4,46.6 C211.4,46.6 211.5,46.7 211.5,46.8 C211.3,47.1 210.9,47.5 210.3,48.1 L209.7,48.7 C209.5,48.9 209.4,49.1 209.3,49.4 C209.2,49.6 209.2,49.9 209.2,50.1 C209.2,50.4 209.3,50.6 209.5,50.8 C209.8,51.2 210.1,51.4 210.6,51.5 C211.1,51.6 211.5,51.4 212,51 C212.3,50.8 212.6,50.5 212.8,50.2 C213,49.9 213.2,49.5 213.3,49.1 C213.5,49.3 213.7,49.5 213.9,49.6 L214.7,49 C214.5,48.9 214.3,48.8 214.1,48.6 C214,48.7 213.7,48.2 213.1,47.5 L213.1,47.5 L213.1,47.5 Z M212.6,49.7 C212.5,50 212.2,50.3 211.9,50.5 C211.6,50.7 211.3,50.8 211.1,50.8 C210.8,50.8 210.6,50.7 210.5,50.4 C210.4,50.3 210.4,50.1 210.3,49.9 C210.3,49.7 210.3,49.6 210.4,49.4 C210.5,49.2 210.7,49 211,48.8 C211.5,48.3 211.9,47.9 212.1,47.6 L212.3,47.9 C212.5,48.3 212.7,48.5 212.7,48.8 C212.8,49.1 212.7,49.4 212.6,49.7 L212.6,49.7 L212.6,49.7 Z M238,28.9 C237.6,28.8 237.2,28.7 236.7,28.8 C236.4,28.9 235.8,29.1 235,29.4 C234.2,29.7 233.7,29.9 233.4,29.8 C233.1,29.8 232.9,29.6 232.7,29.4 C232.5,29.1 232.5,28.8 232.6,28.5 C232.7,28.1 233,27.8 233.5,27.4 C234,27.1 234.4,26.9 234.8,26.9 C235.2,26.9 235.6,27.1 235.9,27.5 L236.7,26.9 C236.4,26.5 236.1,26.3 235.7,26.1 C235.3,25.9 234.9,25.9 234.4,26 C233.9,26.1 233.5,26.3 233,26.7 C232.6,27 232.2,27.4 232,27.7 C231.7,28.1 231.6,28.5 231.6,28.9 C231.6,29.3 231.7,29.7 232,30 C232.2,30.3 232.5,30.5 232.8,30.6 C233.1,30.7 233.5,30.8 233.9,30.7 C234.2,30.7 234.7,30.5 235.4,30.2 C236.1,29.9 236.5,29.8 236.8,29.7 C237.1,29.6 237.4,29.6 237.6,29.7 C237.8,29.8 238,29.9 238.1,30.1 C238.2,30.3 238.3,30.5 238.3,30.8 C238.3,31.1 238.2,31.3 238,31.6 C237.8,31.9 237.6,32.1 237.2,32.3 C236.8,32.6 236.5,32.7 236.1,32.8 C235.7,32.9 235.4,32.9 235.1,32.8 C234.8,32.7 234.5,32.5 234.3,32.2 L233.5,32.8 C233.8,33.2 234.2,33.5 234.7,33.7 C235.2,33.9 235.7,33.9 236.2,33.8 C236.7,33.7 237.3,33.4 237.8,33 C238.3,32.7 238.6,32.3 238.9,31.9 C239.2,31.5 239.3,31 239.3,30.6 C239.3,30.2 239.2,29.8 238.9,29.4 C238.7,29.3 238.4,29 238,28.9 L238,28.9 L238,28.9 Z M254,19.6 C254.1,20 254.1,20.4 254,20.7 C253.9,21 253.7,21.2 253.4,21.4 C253,21.7 252.6,21.8 252.1,21.7 C251.6,21.6 251.2,21.3 250.8,20.8 L254.3,18.4 C254.2,18.3 254.2,18.2 254.2,18.2 C253.7,17.4 253,17 252.3,16.8 C251.6,16.7 250.9,16.8 250.3,17.2 C249.7,17.7 249.3,18.2 249.2,19 C249.1,19.7 249.3,20.5 249.9,21.3 C250.4,22.1 251,22.5 251.7,22.6 C252.4,22.7 253.1,22.6 253.8,22.1 C254.3,21.7 254.7,21.3 254.9,20.8 C255.1,20.3 255,19.8 254.8,19.2 L254,19.6 L254,19.6 Z M250.2,18.9 C250.3,18.5 250.5,18.1 250.9,17.9 C251.3,17.6 251.7,17.5 252.2,17.7 C252.5,17.8 252.8,18 253.1,18.4 L250.5,20.2 C250.2,19.7 250.1,19.3 250.2,18.9 L250.2,18.9 L250.2,18.9 Z M223.3,37.1 C222.6,37 221.9,37.1 221.3,37.6 C220.7,38 220.4,38.5 220.2,39.1 C220,39.9 220.2,40.7 220.8,41.5 C221.4,42.3 222,42.8 222.7,42.9 C223.4,43 224.1,42.9 224.7,42.4 C225.1,42.1 225.4,41.8 225.6,41.3 C225.8,40.9 225.9,40.4 225.8,39.9 C225.7,39.4 225.5,38.9 225.1,38.3 C224.6,37.7 224,37.2 223.3,37.1 L223.3,37.1 L223.3,37.1 Z M224.3,41.8 C223.9,42.1 223.5,42.2 223,42 C222.5,41.9 222.1,41.5 221.7,40.9 C221.3,40.3 221.1,39.8 221.2,39.3 C221.3,38.8 221.5,38.4 221.9,38.2 C222.3,37.9 222.7,37.8 223.2,38 C223.7,38.1 224.1,38.5 224.5,39 C224.9,39.6 225.1,40.2 225.1,40.6 C224.9,41.1 224.7,41.5 224.3,41.8 L224.3,41.8 L224.3,41.8 Z M258.1,17.9 L257.8,18.2 C257.7,18.3 257.6,18.3 257.5,18.3 C257.4,18.3 257.3,18.3 257.3,18.2 C257.2,18.2 257.1,18 257,17.8 L255.1,15.1 L255.9,14.5 L255.5,13.9 L254.7,14.5 L253.6,12.9 L253.1,13.9 L253.9,15.1 L253.3,15.5 L253.7,16.1 L254.3,15.7 L256.2,18.4 C256.5,18.9 256.8,19.2 257,19.3 C257.2,19.4 257.4,19.4 257.6,19.4 C257.8,19.4 258.1,19.3 258.4,19.1 C258.6,19 258.8,18.8 258.9,18.6 L258.1,17.9 L258.1,17.9 Z M248.9,23.1 C249,23.5 249,23.9 248.9,24.2 C248.8,24.5 248.6,24.7 248.3,24.9 C247.9,25.2 247.5,25.3 247,25.2 C246.5,25.1 246.1,24.8 245.7,24.3 L249.2,21.9 C249.1,21.8 249.1,21.7 249.1,21.7 C248.6,20.9 247.9,20.5 247.2,20.3 C246.5,20.2 245.8,20.3 245.2,20.7 C244.6,21.2 244.2,21.7 244.1,22.5 C244,23.2 244.2,24 244.8,24.8 C245.3,25.6 245.9,26 246.6,26.2 C247.3,26.3 248,26.2 248.7,25.7 C249.2,25.3 249.6,24.9 249.8,24.4 C250,23.9 249.9,23.4 249.7,22.8 L248.9,23.1 L248.9,23.1 Z M245.2,22.4 C245.3,22 245.5,21.6 245.9,21.4 C246.3,21.1 246.7,21 247.2,21.2 C247.5,21.3 247.8,21.5 248.1,21.9 L245.5,23.7 C245.2,23.2 245.1,22.8 245.2,22.4 L245.2,22.4 L245.2,22.4 Z M229,33.9 C228.8,33.7 228.6,33.6 228.3,33.5 C228.1,33.4 227.8,33.4 227.5,33.5 C227.2,33.6 226.9,33.7 226.6,33.9 C226,34.4 225.6,35 225.7,35.7 L225.2,35 L224.5,35.5 L227.8,40.2 L228.6,39.6 L226.8,37 C226.4,36.4 226.2,35.9 226.3,35.5 C226.4,35.1 226.6,34.8 226.9,34.6 C227.1,34.5 227.3,34.4 227.6,34.4 C227.8,34.4 228,34.4 228.2,34.6 C228.4,34.7 228.6,34.9 228.8,35.3 L230.8,38.1 L231.6,37.5 L229.6,34.6 C229.3,34.3 229.1,34 229,33.9 L229,33.9 L229,33.9 Z M242.4,24.9 C242.3,24.7 242.3,24.5 242.4,24.3 C242.5,24.1 242.6,23.9 242.8,23.8 C243,23.7 243.2,23.6 243.5,23.6 L243.3,22.7 C242.9,22.7 242.6,22.8 242.3,23 C242.1,23.1 242,23.3 241.9,23.5 C241.8,23.7 241.8,24 241.9,24.5 L241.4,23.8 L240.7,24.3 L244,29 L244.8,28.4 L243.1,26 C242.6,25.6 242.5,25.3 242.4,24.9 L242.4,24.9 L242.4,24.9 Z M242.2,29 C242.1,29.1 242,29.1 241.9,29.1 C241.8,29.1 241.7,29.1 241.7,29 C241.6,29 241.5,28.8 241.4,28.6 L239.5,25.9 L240.3,25.3 L239.9,24.7 L239.1,25.3 L238,23.7 L237.5,24.7 L238.3,25.9 L237.7,26.3 L238.1,26.9 L238.7,26.5 L240.6,29.2 C240.9,29.7 241.2,30 241.4,30.1 C241.6,30.2 241.8,30.2 242,30.2 C242.2,30.2 242.5,30.1 242.8,29.9 C243,29.8 243.2,29.6 243.3,29.4 L242.7,28.8 C242.4,28.9 242.3,29 242.2,29 L242.2,29 L242.2,29 Z M242.2,29" class="Shape"/>
                    <path d="M138.5,46.1 C138.7,46 139,46 139.5,46.1 C139.9,46.2 140.1,46.3 140.3,46.5 C140.5,46.7 140.5,47 140.5,47.3 L141.4,47.4 C141.4,47 141.4,46.7 141.3,46.5 C141.2,46.3 141,46 140.7,45.8 C140.4,45.6 140,45.4 139.6,45.3 C139.3,45.2 139,45.2 138.8,45.2 C138.5,45.2 138.3,45.3 138.1,45.3 C137.9,45.4 137.7,45.5 137.5,45.7 C137.3,45.9 137.2,46.1 137.2,46.3 C137.1,46.6 137.1,46.8 137.2,47.1 C137.3,47.4 137.4,47.6 137.7,47.8 C137.9,48 138.4,48.3 139,48.6 C139.5,48.8 139.8,49 139.9,49.1 C140.1,49.3 140.1,49.5 140.1,49.7 C140,49.9 139.9,50.1 139.6,50.2 C139.3,50.3 139,50.3 138.6,50.2 C138.2,50.1 137.9,49.9 137.7,49.7 C137.5,49.5 137.4,49.1 137.5,48.7 L136.5,48.6 C136.5,49.2 136.6,49.7 136.9,50.1 C137.2,50.5 137.7,50.8 138.4,50.9 C138.8,51 139.2,51 139.6,50.9 C140,50.8 140.3,50.7 140.5,50.4 C140.7,50.2 140.9,49.9 141,49.6 C141.1,49.3 141.1,49 141,48.7 C140.9,48.4 140.7,48.2 140.5,48.1 C140.3,47.9 139.8,47.7 139.2,47.3 C138.8,47.1 138.5,46.9 138.4,46.9 L138.1,46.6 C138,46.5 138,46.4 138.1,46.2 C138.2,46.3 138.3,46.2 138.5,46.1 L138.5,46.1 L138.5,46.1 Z M135.9,42.3 L134.1,50 L135,50.2 L136.8,42.5 L135.9,42.3 L135.9,42.3 Z M131.7,43.5 C130.9,43.3 130.2,43.4 129.6,43.8 C129,44.2 128.6,44.9 128.4,45.8 C128.2,46.7 128.3,47.5 128.6,48.1 C129,48.7 129.5,49.1 130.4,49.3 C131,49.4 131.6,49.4 132.1,49.2 C132.6,49 133,48.6 133.3,48.1 L132.4,47.8 C132.2,48.2 131.9,48.4 131.6,48.5 C131.3,48.6 131,48.6 130.7,48.6 C130.2,48.5 129.9,48.2 129.6,47.8 C129.4,47.4 129.3,46.9 129.4,46.3 L133.5,47.3 C133.5,47.2 133.5,47.1 133.6,47.1 C133.8,46.2 133.7,45.4 133.4,44.8 C133,44 132.5,43.6 131.7,43.5 L131.7,43.5 L131.7,43.5 Z M132.7,46.2 L129.6,45.5 C129.7,45 130,44.7 130.4,44.5 C130.8,44.3 131.2,44.2 131.6,44.3 C132.1,44.4 132.4,44.7 132.6,45.1 C132.8,45.3 132.8,45.7 132.7,46.2 L132.7,46.2 L132.7,46.2 Z M126,46.4 L123.4,39.4 L122.4,39.2 L120.6,46.9 L121.6,47.1 L123,41.1 L125.6,48.1 L126.6,48.3 L128.4,40.6 L127.4,40.4 L126,46.4 L126,46.4 Z M184.6,56.6 L185.5,56.8 L185.7,56.1 L184.8,55.9 L185.2,54 L184.1,54.3 L183.8,55.7 L183.1,55.5 L182.9,56.2 L183.6,56.4 L182.9,59.6 C182.8,60.2 182.7,60.5 182.8,60.7 C182.8,60.9 182.9,61.1 183.1,61.2 C183.3,61.4 183.5,61.5 183.9,61.5 C184.1,61.5 184.4,61.6 184.6,61.6 L184.7,60.7 C184.5,60.7 184.4,60.7 184.3,60.6 C184.2,60.6 184.1,60.5 184,60.5 C183.9,60.5 183.9,60.4 183.9,60.3 C183.9,60.2 183.9,60 184,59.8 L184.6,56.6 L184.6,56.6 Z M180,54.6 C179.2,54.4 178.5,54.5 177.9,54.9 C177.3,55.3 176.9,56 176.7,56.9 C176.5,57.8 176.6,58.6 176.9,59.2 C177.3,59.8 177.8,60.2 178.7,60.4 C179.3,60.5 179.9,60.5 180.4,60.3 C180.9,60.1 181.3,59.7 181.6,59.2 L180.7,58.9 C180.5,59.3 180.2,59.5 179.9,59.6 C179.6,59.7 179.3,59.7 179,59.7 C178.5,59.6 178.2,59.3 178,58.9 C177.8,58.5 177.7,58 177.8,57.4 L181.9,58.4 C181.9,58.3 182,58.2 182,58.1 C182.2,57.2 182.1,56.4 181.8,55.8 C181.3,55.2 180.7,54.8 180,54.6 L180,54.6 L180,54.6 Z M181,57.3 L177.9,56.6 C178,56.1 178.3,55.8 178.7,55.6 C179.1,55.4 179.5,55.3 179.9,55.4 C180.4,55.5 180.7,55.8 180.9,56.2 C181,56.5 181.1,56.9 181,57.3 L181,57.3 L181,57.3 Z M170.2,52.3 C170,52.2 169.8,52.3 169.6,52.3 C169.4,52.4 169.1,52.6 168.8,52.9 L169,52.1 L168.2,51.9 L166.9,57.5 L167.8,57.7 L168.5,54.8 C168.6,54.4 168.7,54 168.9,53.7 C169,53.5 169.2,53.4 169.4,53.3 C169.6,53.2 169.8,53.2 170,53.2 C170.2,53.3 170.4,53.4 170.6,53.6 L171.1,52.8 C170.9,52.6 170.6,52.4 170.2,52.3 L170.2,52.3 L170.2,52.3 Z M174,53.2 C173.2,53 172.5,53.1 171.9,53.5 C171.3,53.9 170.9,54.6 170.7,55.5 C170.5,56.4 170.6,57.2 170.9,57.8 C171.3,58.4 171.8,58.8 172.7,59 C173.3,59.1 173.9,59.1 174.4,58.9 C174.9,58.7 175.3,58.3 175.6,57.8 L174.7,57.5 C174.5,57.9 174.2,58.1 173.9,58.2 C173.6,58.3 173.3,58.3 173,58.3 C172.5,58.2 172.2,57.9 172,57.5 C171.8,57.1 171.7,56.6 171.8,56 L175.9,57 C175.9,56.9 176,56.8 176,56.7 C176.2,55.8 176.1,55 175.8,54.4 C175.3,53.8 174.8,53.4 174,53.2 L174,53.2 L174,53.2 Z M175,56 L171.9,55.3 C172,54.8 172.3,54.5 172.7,54.3 C173.1,54.1 173.5,54 173.9,54.1 C174.4,54.2 174.7,54.5 174.9,54.9 C175.1,55.1 175.1,55.5 175,56 L175,56 L175,56 Z M165.4,56.3 C165.3,56.2 165.3,56.2 165.3,56.1 C165.3,56 165.3,55.8 165.4,55.6 L166.2,52.4 L167.1,52.6 L167.3,51.9 L166.4,51.7 L166.8,49.8 L165.7,50.1 L165.4,51.5 L164.7,51.3 L164.5,52 L165.2,52.2 L164.5,55.4 C164.4,56 164.3,56.3 164.4,56.5 C164.4,56.7 164.5,56.9 164.7,57 C164.9,57.2 165.1,57.3 165.5,57.3 C165.7,57.3 166,57.4 166.2,57.4 L166.3,56.5 C166.1,56.5 166,56.5 165.9,56.4 C165.6,56.4 165.5,56.4 165.4,56.3 L165.4,56.3 L165.4,56.3 Z M152.6,48.5 C152.3,48.3 152.1,48.2 151.7,48.1 C150.9,47.9 150.3,48.1 149.7,48.6 L149.9,47.8 L149.1,47.6 L147.8,53.2 L148.7,53.4 L149.4,50.4 C149.6,49.7 149.8,49.2 150.2,49.1 C150.6,48.9 150.9,48.9 151.3,49 C151.6,49.1 151.8,49.2 151.9,49.3 C152.1,49.5 152.2,49.6 152.2,49.8 C152.2,50 152.2,50.3 152.1,50.7 L151.3,54.1 L152.2,54.3 L153,50.9 C153.1,50.5 153.2,50.2 153.2,50 C153.2,49.7 153.2,49.5 153.1,49.2 C153.1,48.9 152.9,48.7 152.6,48.5 L152.6,48.5 L152.6,48.5 Z M162.8,48.7 C162.4,48.4 161.9,48.2 161.4,48.1 C160.9,48 160.4,48 159.9,48 C159.4,48.1 159.1,48.3 158.8,48.5 C158.5,48.8 158.3,49.1 158.2,49.5 C158.1,49.9 158.1,50.2 158.2,50.5 C158.3,50.8 158.5,51.1 158.9,51.4 C159.1,51.6 159.6,51.9 160.3,52.2 C161,52.5 161.4,52.8 161.6,52.9 C161.9,53.1 162.1,53.3 162.2,53.5 C162.3,53.7 162.3,53.9 162.3,54.2 C162.2,54.4 162.1,54.6 161.9,54.8 C161.7,55 161.5,55.1 161.1,55.1 C160.8,55.1 160.4,55.1 160,55 C159.6,54.9 159.2,54.7 158.9,54.5 C158.6,54.3 158.4,54 158.3,53.7 C158.2,53.4 158.2,53.1 158.2,52.7 L157.2,52.6 C157.1,53.1 157.1,53.6 157.3,54.1 C157.5,54.6 157.8,55 158.2,55.3 C158.6,55.6 159.2,55.8 159.9,56 C160.4,56.1 161,56.1 161.4,56 C161.9,55.9 162.3,55.7 162.6,55.4 C162.9,55.1 163.1,54.7 163.2,54.3 C163.3,53.9 163.3,53.5 163.1,53.1 C163,52.7 162.7,52.4 162.3,52.1 C162,51.9 161.5,51.6 160.7,51.2 C159.9,50.8 159.4,50.5 159.3,50.3 C159.1,50.1 159.1,49.8 159.2,49.6 C159.3,49.3 159.5,49 159.8,48.9 C160.1,48.7 160.6,48.7 161.2,48.9 C161.8,49 162.2,49.3 162.5,49.6 C162.8,49.9 162.8,50.3 162.8,50.8 L163.8,51 C163.9,50.5 163.9,50.1 163.7,49.7 C163.4,49.3 163.2,49 162.8,48.7 L162.8,48.7 L162.8,48.7 Z M145.4,46.6 C144.7,46.4 144.1,46.5 143.5,46.8 C142.8,47.2 142.4,47.9 142.1,48.9 C141.9,49.8 142,50.6 142.3,51.2 C142.7,51.8 143.2,52.2 144,52.4 C144.5,52.5 145,52.5 145.4,52.4 C145.9,52.3 146.2,52 146.6,51.7 C146.9,51.3 147.1,50.8 147.3,50.1 C147.5,49.2 147.4,48.5 147.1,47.9 C146.8,47.2 146.2,46.8 145.4,46.6 L145.4,46.6 L145.4,46.6 Z M146.4,49.9 C146.2,50.6 146,51.1 145.6,51.4 C145.2,51.7 144.8,51.8 144.3,51.7 C143.8,51.6 143.5,51.3 143.2,50.9 C143,50.5 142.9,49.9 143.1,49.2 C143.3,48.5 143.5,48 143.9,47.7 C144.3,47.4 144.7,47.3 145.2,47.4 C145.7,47.5 146,47.8 146.2,48.2 C146.5,48.6 146.6,49.2 146.4,49.9 L146.4,49.9 L146.4,49.9 Z M146.4,49.9" class="Shape"/>
                    <path d="M4.2,49.7 C4.6,50.3 5.2,50.8 5.8,51.1 C6.4,51.4 7.1,51.5 7.8,51.5 C8.5,51.4 9.2,51.1 9.8,50.7 C10.3,50.4 10.7,50 11,49.5 C11.3,49 11.6,48.5 11.8,47.8 L10.1,45.4 L7.4,47.3 L7.9,48.1 L9.8,46.8 L10.6,48 C10.5,48.3 10.4,48.6 10.1,49 C9.8,49.4 9.5,49.7 9.2,50 C8.8,50.3 8.3,50.5 7.8,50.6 C7.3,50.7 6.8,50.6 6.3,50.3 C5.9,50 5.5,49.6 5.1,49 C4.8,48.5 4.6,48 4.4,47.5 C4.3,47.2 4.3,46.9 4.4,46.6 C4.4,46.3 4.6,46 4.8,45.6 C5,45.3 5.3,45 5.7,44.7 C6,44.5 6.4,44.3 6.7,44.2 C7,44.1 7.4,44.1 7.6,44.2 C7.9,44.3 8.2,44.5 8.5,44.7 L9.1,43.9 C8.7,43.5 8.3,43.3 7.9,43.2 C7.5,43.1 7.1,43.1 6.6,43.2 C6.1,43.3 5.6,43.5 5.2,43.9 C4.6,44.3 4.1,44.9 3.8,45.5 C3.5,46.1 3.4,46.8 3.5,47.5 C3.6,48.2 3.8,49 4.2,49.7 L4.2,49.7 L4.2,49.7 Z M14.4,47.3 L12.7,44.9 C12.5,44.6 12.3,44.2 12.2,43.9 C12.1,43.7 12.1,43.5 12.2,43.3 C12.3,43.1 12.4,42.9 12.6,42.8 C12.8,42.7 13,42.6 13.3,42.6 L13.1,41.7 C12.7,41.7 12.4,41.8 12.1,42 C11.9,42.1 11.8,42.3 11.7,42.5 C11.6,42.7 11.6,43 11.7,43.5 L11,42.7 L10.3,43.2 L13.6,47.9 L14.4,47.3 L14.4,47.3 Z M6.4,59.4 L8,65 C8.2,65.6 8.3,66 8.4,66.3 C8.2,66.1 7.9,65.9 7.4,65.6 L2.6,62 L1.3,62.9 L5.8,69.4 L6.6,68.8 L2.8,63.3 L8.5,67.5 L9.3,67 L7.4,60.3 L11.2,65.7 L12,65.1 L7.5,58.6 L6.4,59.4 L6.4,59.4 Z M25.3,34.5 C25.5,34.7 25.7,34.9 25.9,35 C26.1,35.1 26.4,35.1 26.7,35.1 C27,35.1 27.5,34.9 28.2,34.6 C28.7,34.4 29,34.3 29.2,34.3 C29.4,34.3 29.6,34.4 29.7,34.6 C29.8,34.8 29.9,35 29.8,35.3 C29.7,35.6 29.5,35.8 29.1,36.1 C28.7,36.4 28.4,36.5 28.1,36.4 C27.8,36.4 27.5,36.2 27.2,35.9 L26.5,36.6 C26.9,37 27.4,37.3 27.9,37.3 C28.4,37.3 28.9,37.1 29.6,36.7 C30,36.4 30.2,36.2 30.5,35.8 C30.7,35.5 30.8,35.1 30.8,34.8 C30.8,34.5 30.7,34.2 30.5,33.9 C30.3,33.6 30.1,33.4 29.8,33.4 C29.5,33.3 29.3,33.3 29,33.4 C28.7,33.5 28.2,33.6 27.6,33.9 C27.1,34.1 26.9,34.2 26.8,34.2 L26.3,34.2 C26.2,34.2 26.1,34.1 26,34 C25.9,33.8 25.9,33.6 25.9,33.4 C26,33.2 26.2,32.9 26.6,32.7 C26.9,32.5 27.2,32.4 27.5,32.4 C27.8,32.4 28,32.5 28.2,32.7 L28.9,32.1 C28.6,31.8 28.4,31.7 28.1,31.6 C27.8,31.5 27.5,31.5 27.2,31.6 C26.8,31.7 26.5,31.9 26.1,32.1 L25.5,32.7 C25.3,32.9 25.2,33.1 25.2,33.3 C25.1,33.5 25.1,33.8 25.1,34 C25.1,34.1 25.2,34.3 25.3,34.5 L25.3,34.5 L25.3,34.5 Z M23,41.6 C23.1,42 23.2,42.2 23.2,42.4 C23.2,42.6 23.2,42.7 23.1,42.8 C23,42.9 22.9,43.1 22.7,43.2 C22.6,43.3 22.4,43.4 22.2,43.4 L22.8,44.1 L23.4,43.8 C23.7,43.6 23.8,43.4 23.9,43.2 C24,43 24,42.6 24,42.3 C24,42 23.9,41.6 23.7,40.9 L22.2,34.9 L21.4,35.5 L22.3,38.9 C22.4,39.3 22.6,39.8 22.7,40.2 C22.3,39.9 22,39.6 21.6,39.4 L18.7,37.4 L17.8,38 L22.9,41.4 C22.9,41.4 23,41.5 23,41.6 L23,41.6 L23,41.6 Z M16.5,45 C17.2,45.1 17.9,45 18.6,44.5 C19.1,44.1 19.5,43.7 19.7,43.2 C19.9,42.7 19.8,42.2 19.6,41.6 L18.7,42 C18.8,42.4 18.8,42.8 18.7,43.1 C18.6,43.4 18.4,43.6 18.1,43.8 C17.7,44.1 17.3,44.2 16.8,44.1 C16.3,44 15.9,43.7 15.5,43.2 L19,40.8 C18.9,40.7 18.9,40.6 18.9,40.6 C18.4,39.8 17.7,39.4 17,39.2 C16.3,39.1 15.6,39.2 15,39.6 C14.4,40.1 14,40.6 13.9,41.4 C13.8,42.1 14,42.9 14.6,43.7 C15.2,44.4 15.9,44.9 16.5,45 L16.5,45 L16.5,45 Z M15,41.3 C15.1,40.9 15.3,40.5 15.7,40.3 C16.1,40 16.5,39.9 17,40.1 C17.3,40.2 17.6,40.4 17.9,40.8 L15.3,42.6 C15,42.1 14.9,41.7 15,41.3 L15,41.3 L15,41.3 Z M22.5,33.2 C22.7,33.4 22.8,33.7 22.8,33.9 C22.8,34.1 22.8,34.3 22.7,34.5 L23.1,34.7 C23.3,34.4 23.4,34.1 23.3,33.7 C23.3,33.5 23.1,33.1 22.8,32.8 L22.3,32 L21.4,32.6 L22,33.5 L22.5,33.2 L22.5,33.2 Z M42,38.6 C41.8,38.4 41.6,38.3 41.3,38.2 C41.1,38.1 40.8,38.1 40.5,38.2 C40.2,38.3 39.9,38.4 39.6,38.6 C39,39.1 38.6,39.7 38.7,40.4 L38.2,39.7 L37.5,40.2 L40.8,44.9 L41.6,44.3 L39.8,41.7 C39.4,41.1 39.2,40.6 39.3,40.2 C39.4,39.8 39.6,39.5 39.9,39.3 C40.1,39.2 40.3,39.1 40.6,39.1 C40.8,39.1 41,39.1 41.2,39.3 C41.4,39.4 41.6,39.6 41.8,40 L43.8,42.8 L44.6,42.2 L42.6,39.3 C42.4,39 42.2,38.7 42,38.6 L42,38.6 L42,38.6 Z M38,44.6 C38.1,45 38.1,45.4 38,45.7 C37.9,46 37.7,46.2 37.4,46.5 C37,46.8 36.6,46.9 36.1,46.8 C35.6,46.7 35.2,46.4 34.8,45.9 L38.3,43.5 C38.2,43.4 38.2,43.3 38.2,43.3 C37.7,42.5 37,42.1 36.3,41.9 C35.6,41.8 34.9,41.9 34.3,42.3 C33.7,42.8 33.3,43.3 33.2,44.1 C33.1,44.8 33.3,45.6 33.9,46.4 C34.4,47.2 35,47.6 35.7,47.8 C36.4,47.9 37.1,47.8 37.8,47.3 C38.3,46.9 38.7,46.5 38.9,46 C39.1,45.5 39,45 38.8,44.4 L38,44.6 L38,44.6 Z M34.2,43.9 C34.3,43.5 34.5,43.1 34.9,42.9 C35.3,42.6 35.7,42.5 36.2,42.7 C36.5,42.8 36.8,43 37.1,43.4 L34.5,45.2 C34.2,44.8 34.1,44.3 34.2,43.9 L34.2,43.9 L34.2,43.9 Z M13.9,57.6 C13.2,57.5 12.5,57.6 11.9,58.1 C11.3,58.5 11,59 10.8,59.6 C10.6,60.4 10.8,61.2 11.4,62 C12,62.8 12.6,63.3 13.3,63.4 C14,63.5 14.7,63.4 15.3,62.9 C15.7,62.6 16,62.3 16.2,61.8 C16.4,61.4 16.5,60.9 16.4,60.4 C16.3,59.9 16.1,59.4 15.7,58.8 C15.2,58.2 14.6,57.7 13.9,57.6 L13.9,57.6 L13.9,57.6 Z M14.8,62.3 C14.4,62.6 14,62.7 13.5,62.5 C13,62.4 12.6,62 12.2,61.4 C11.8,60.8 11.6,60.3 11.7,59.8 C11.8,59.3 12,58.9 12.4,58.7 C12.8,58.4 13.2,58.3 13.7,58.5 C14.2,58.6 14.6,59 15,59.5 C15.4,60.1 15.6,60.7 15.6,61.1 C15.4,61.6 15.2,62 14.8,62.3 L14.8,62.3 L14.8,62.3 Z M47.1,39.5 L46.8,39.8 C46.7,39.9 46.6,39.9 46.5,39.9 C46.4,39.9 46.3,39.9 46.3,39.8 C46.2,39.8 46.1,39.6 46,39.4 L44,36.7 L44.8,36.1 L44.4,35.5 L43.5,36 L42.4,34.4 L41.9,35.4 L42.7,36.6 L42.2,37 L42.6,37.6 L43.2,37.2 L45.1,39.9 C45.4,40.4 45.7,40.7 45.9,40.8 C46.1,40.9 46.3,40.9 46.5,40.9 C46.7,40.9 47,40.8 47.3,40.6 C47.5,40.5 47.7,40.3 47.8,40.1 L47.1,39.5 L47.1,39.5 Z M19.5,54.4 C19.3,54.2 19.1,54.1 18.8,54 C18.6,53.9 18.3,53.9 18,54 C17.7,54.1 17.4,54.2 17.1,54.4 C16.5,54.9 16.1,55.5 16.2,56.2 L15.7,55.5 L15,56 L18.3,60.7 L19.1,60.1 L17.3,57.5 C16.9,56.9 16.7,56.4 16.8,56 C16.9,55.6 17.1,55.3 17.4,55.1 C17.6,55 17.8,54.9 18.1,54.9 C18.3,54.9 18.5,54.9 18.7,55.1 C18.9,55.2 19.1,55.4 19.3,55.8 L21.3,58.6 L22.1,58 L20.1,55.1 C19.8,54.8 19.6,54.5 19.5,54.4 L19.5,54.4 L19.5,54.4 Z M31.2,45.1 C30.8,45 30.3,45.1 29.9,45.5 C29.3,45.9 29,46.5 29,47.3 C28.7,47.1 28.4,47 28.1,47 C27.8,47 27.4,47.1 27.1,47.4 C26.8,47.6 26.6,47.9 26.4,48.2 C26.3,48.5 26.2,48.8 26.2,49.2 L25.7,48.5 L25.1,49 L28.4,53.7 L29.2,53.1 L27.5,50.7 C27.2,50.3 27,49.9 26.9,49.6 C26.8,49.3 26.8,49 27,48.8 C27.1,48.6 27.3,48.3 27.5,48.2 C27.8,48 28.1,47.9 28.3,48 C28.6,48.1 28.8,48.3 29,48.7 L31.1,51.7 L31.9,51.1 L30,48.4 C29.7,47.9 29.5,47.5 29.6,47.1 C29.7,46.7 29.9,46.4 30.2,46.2 C30.4,46.1 30.6,46 30.8,46 C31,46 31.2,46 31.3,46.1 L31.9,46.7 L34,49.6 L34.8,49 L32.4,46 C32,45.5 31.6,45.2 31.2,45.1 L31.2,45.1 L31.2,45.1 Z M23,50.4 L24.8,52.9 C25.1,53.3 25.2,53.6 25.3,53.9 C25.4,54.2 25.3,54.4 25.2,54.7 C25.1,55 24.9,55.2 24.7,55.4 C24.5,55.6 24.2,55.6 24,55.6 C23.8,55.6 23.5,55.5 23.3,55.3 C23.2,55.2 23,54.9 22.7,54.5 L20.9,51.9 L20,52.5 L22,55.4 C22.2,55.7 22.4,56 22.6,56.1 C22.8,56.3 23,56.4 23.3,56.5 C23.5,56.6 23.8,56.6 24.1,56.5 C24.4,56.4 24.7,56.3 25,56.1 C25.6,55.7 25.9,55.1 25.9,54.3 L26.4,55 L27.1,54.5 L23.8,49.8 L23,50.4 L23,50.4 Z M23,50.4" class="Shape"/>
                    <path d="M42.8,91.8 C42.4,91.5 42,91.3 41.4,91.1 C40.9,91 40.4,90.9 39.9,91 C39.4,91.1 39,91.2 38.7,91.5 C38.4,91.8 38.2,92.1 38.1,92.5 C38,92.8 38,93.2 38.1,93.5 C38.2,93.8 38.4,94.1 38.7,94.4 C38.9,94.6 39.4,94.9 40,95.3 C40.6,95.7 41.1,95.9 41.2,96.1 C41.5,96.3 41.7,96.5 41.8,96.7 C41.9,96.9 41.9,97.1 41.8,97.4 C41.7,97.6 41.6,97.8 41.4,98 C41.2,98.2 40.9,98.3 40.6,98.3 C40.3,98.3 39.9,98.3 39.5,98.2 C39.1,98.1 38.7,97.9 38.4,97.6 C38.1,97.4 37.9,97.1 37.8,96.8 C37.7,96.5 37.7,96.2 37.8,95.8 L36.8,95.6 C36.7,96.1 36.7,96.6 36.8,97.1 C36.9,97.6 37.2,98 37.6,98.3 C38,98.6 38.6,98.9 39.2,99.1 C39.7,99.3 40.3,99.3 40.7,99.2 C41.2,99.1 41.6,98.9 41.9,98.7 C42.2,98.4 42.5,98.1 42.6,97.7 C42.7,97.3 42.7,96.9 42.6,96.5 C42.5,96.1 42.2,95.8 41.8,95.4 C41.5,95.2 41,94.9 40.3,94.4 C39.5,94 39.1,93.7 38.9,93.4 C38.8,93.2 38.7,92.9 38.8,92.6 C38.9,92.3 39.1,92.1 39.4,91.9 C39.7,91.8 40.2,91.8 40.8,91.9 C41.4,92.1 41.8,92.3 42,92.6 C42.2,92.9 42.3,93.3 42.2,93.8 L43.2,94 C43.3,93.6 43.3,93.1 43.2,92.7 C43.4,92.5 43.1,92.1 42.8,91.8 L42.8,91.8 L42.8,91.8 Z M43.3,86.3 L45.5,78.7 L44.6,78.4 L42.4,86 L43.3,86.3 L43.3,86.3 Z M47.3,82.4 C47.6,82.3 47.9,82.3 48.3,82.4 C48.8,82.5 49.1,82.7 49.3,83 C49.4,83.2 49.4,83.5 49.3,83.9 C49.3,83.9 49.3,84 49.2,84.1 C48.8,84.1 48.2,84.1 47.4,83.9 C47.1,84 46.8,84 46.6,84 C46.3,84 46.1,84 45.8,84.1 C45.6,84.2 45.4,84.3 45.2,84.5 C45,84.7 44.9,84.9 44.8,85.2 C44.7,85.7 44.7,86.1 45,86.5 C45.2,86.9 45.7,87.2 46.3,87.3 C46.7,87.4 47,87.4 47.4,87.4 C47.8,87.4 48.1,87.3 48.6,87.1 L48.6,87.8 L49.6,88.1 C49.5,87.9 49.5,87.6 49.6,87.4 C49.6,87.2 49.8,86.6 50,85.7 L50.4,84.5 C50.5,84.1 50.6,83.8 50.6,83.6 C50.6,83.3 50.6,83.1 50.5,82.9 C50.4,82.7 50.2,82.5 50,82.3 C49.7,82.1 49.4,81.9 48.9,81.8 C48.4,81.7 48,81.6 47.6,81.6 C47.2,81.6 46.9,81.7 46.6,81.9 C46.3,82.1 46.1,82.4 45.9,82.7 L46.8,83.1 C46.8,82.7 47,82.5 47.3,82.4 L47.3,82.4 L47.3,82.4 Z M49,85.3 C48.9,85.7 48.7,86 48.6,86.2 C48.4,86.4 48.1,86.6 47.8,86.7 C47.5,86.8 47.1,86.8 46.8,86.7 C46.4,86.6 46.2,86.4 46,86.2 C45.8,86 45.8,85.7 45.9,85.5 C45.9,85.3 46,85.2 46.2,85.1 C46.3,85 46.5,84.9 46.7,84.9 L47.6,84.9 C48.3,85 48.8,85 49.2,85 L49,85.3 L49,85.3 Z M50.9,96.4 C50.6,96.1 50.3,95.9 50,95.8 C49.8,95.7 49.6,95.7 49.4,95.8 C49.2,95.9 48.9,96.1 48.6,96.4 L48.8,95.6 L48,95.4 L46.4,100.9 L47.3,101.2 L48.1,98.3 C48.2,97.9 48.4,97.6 48.6,97.3 C48.7,97.1 48.9,97 49.1,96.9 C49.3,96.8 49.5,96.8 49.7,96.9 C49.9,97 50.1,97.1 50.3,97.3 L50.9,96.4 L50.9,96.4 Z M39.6,85.1 C40,85.1 40.3,85.1 40.5,85 C40.8,84.9 41,84.7 41.3,84.5 C41.5,84.2 41.7,83.9 41.8,83.6 C41.9,83.2 41.9,82.7 41.8,82.3 C41.6,81.9 41.4,81.6 40.9,81.3 C41.3,81.2 41.6,81.1 41.9,80.8 C42.2,80.6 42.3,80.3 42.4,80 C42.5,79.7 42.5,79.3 42.4,78.9 C42.3,78.5 42.1,78.2 41.8,78 C41.5,77.7 41.1,77.5 40.5,77.4 L37.7,76.6 L35.4,84 L38.3,84.8 C38.8,85 39.2,85.1 39.6,85.1 L39.6,85.1 L39.6,85.1 Z M38.3,77.6 L39.8,78 C40.3,78.2 40.7,78.3 40.9,78.4 C41.1,78.5 41.2,78.7 41.3,78.9 C41.4,79.1 41.4,79.4 41.3,79.6 C41.2,79.9 41.1,80.1 40.9,80.2 C40.7,80.3 40.5,80.4 40.2,80.4 C40,80.4 39.7,80.3 39.2,80.2 L37.6,79.7 L38.3,77.6 L38.3,77.6 Z M37.4,80.8 L39.2,81.3 C39.7,81.4 40,81.6 40.3,81.7 C40.5,81.9 40.7,82.1 40.8,82.3 C40.9,82.5 40.9,82.8 40.8,83.1 L40.5,83.7 C40.3,83.9 40.2,84 40,84 C39.8,84.1 39.6,84.1 39.4,84 C39.3,84 39,83.9 38.7,83.8 L36.8,83.3 L37.4,80.8 L37.4,80.8 Z M45.9,95.6 L46.8,95.9 L47,95.2 L46.1,94.9 L46.6,93 L45.5,93.3 L45.1,94.7 L44.4,94.5 L44.2,95.2 L44.9,95.4 L44,98.6 C43.8,99.2 43.8,99.5 43.8,99.7 C43.8,99.9 43.9,100.1 44.1,100.2 C44.3,100.4 44.5,100.5 44.8,100.6 C45,100.7 45.2,100.7 45.5,100.7 L45.6,99.8 C45.4,99.8 45.3,99.7 45.2,99.7 C45.1,99.7 45,99.6 44.9,99.5 C44.8,99.4 44.8,99.4 44.8,99.3 C44.8,99.2 44.8,99 44.9,98.8 L45.9,95.6 L45.9,95.6 Z M53.8,96.9 C53,96.7 52.4,96.8 51.7,97.1 C51.1,97.5 50.6,98.1 50.4,99 C50.1,99.9 50.2,100.7 50.5,101.3 C50.8,101.9 51.4,102.4 52.2,102.6 C52.8,102.8 53.4,102.8 53.9,102.6 C54.4,102.4 54.8,102.1 55.1,101.5 L54.2,101.1 C53.9,101.5 53.7,101.7 53.4,101.8 C53.1,101.9 52.8,101.9 52.5,101.8 C52,101.7 51.7,101.4 51.5,101 C51.3,100.6 51.2,100.1 51.4,99.5 L55.5,100.7 C55.5,100.6 55.6,100.5 55.6,100.5 C55.9,99.6 55.8,98.8 55.5,98.2 C55,97.6 54.5,97.2 53.8,96.9 L53.8,96.9 L53.8,96.9 Z M54.6,99.7 L51.5,98.8 C51.7,98.3 51.9,98 52.3,97.8 C52.7,97.6 53.1,97.6 53.5,97.7 C54,97.8 54.3,98.1 54.5,98.6 C54.7,98.9 54.7,99.2 54.6,99.7 L54.6,99.7 L54.6,99.7 Z M69.6,88.6 L70.5,88.9 L70.7,88.2 L69.8,87.9 L70.3,86 L69.2,86.3 L68.8,87.7 L68.1,87.5 L67.9,88.2 L68.6,88.4 L67.7,91.6 C67.5,92.2 67.5,92.5 67.5,92.7 C67.5,92.9 67.6,93.1 67.8,93.2 C68,93.4 68.2,93.5 68.5,93.6 C68.7,93.7 68.9,93.7 69.2,93.7 L69.3,92.8 C69.1,92.8 69,92.7 68.9,92.7 C68.8,92.7 68.7,92.6 68.6,92.5 C68.5,92.4 68.5,92.4 68.5,92.3 C68.5,92.2 68.5,92 68.6,91.8 L69.6,88.6 L69.6,88.6 Z M72.7,88.8 L73.3,86.9 L72.2,87.2 L71.8,88.6 L71.1,88.4 L70.9,89 L71.6,89.2 L70.7,92.4 C70.5,93 70.5,93.3 70.5,93.5 C70.5,93.7 70.6,93.9 70.8,94 C71,94.2 71.2,94.3 71.5,94.4 C71.7,94.5 71.9,94.5 72.2,94.5 L72.3,93.6 C72.1,93.6 72,93.5 71.9,93.5 C71.8,93.5 71.7,93.4 71.6,93.3 C71.5,93.2 71.5,93.2 71.5,93.1 C71.5,93 71.5,92.8 71.6,92.6 L72.5,89.4 L73.4,89.7 L73.6,89 L72.7,88.8 L72.7,88.8 Z M64.9,98.2 L63.8,98.5 L63.4,99.9 L62.7,99.7 L62.5,100.4 L63.2,100.6 L62.3,103.8 C62.1,104.4 62.1,104.7 62.1,104.9 C62.1,105.1 62.2,105.3 62.4,105.4 C62.6,105.6 62.8,105.7 63.1,105.8 C63.3,105.9 63.5,105.9 63.8,105.9 L64,105 C63.8,105 63.7,104.9 63.6,104.9 C63.5,104.9 63.4,104.8 63.3,104.7 C63.2,104.6 63.2,104.6 63.2,104.5 C63.2,104.4 63.2,104.2 63.3,104 L64.2,100.8 L65.1,101.1 L65.3,100.4 L64.4,100.1 L64.9,98.2 L64.9,98.2 Z M65.1,86.4 C64.3,86.2 63.7,86.3 63,86.6 C62.4,87 61.9,87.6 61.7,88.5 C61.4,89.4 61.5,90.2 61.8,90.8 C62.1,91.4 62.7,91.9 63.5,92.1 C64.1,92.3 64.7,92.3 65.2,92.1 C65.7,91.9 66.1,91.6 66.4,91 L65.5,90.6 C65.2,91 65,91.2 64.7,91.3 C64.4,91.4 64.1,91.4 63.8,91.3 C63.3,91.2 63,90.9 62.8,90.5 C62.6,90.1 62.5,89.6 62.7,89 L66.8,90.2 C66.8,90.1 66.9,90 66.9,90 C67.2,89.1 67.1,88.3 66.8,87.7 C66.3,87.1 65.8,86.7 65.1,86.4 L65.1,86.4 L65.1,86.4 Z M65.9,89.2 L62.8,88.3 C63,87.8 63.2,87.5 63.6,87.3 C64,87.1 64.4,87.1 64.8,87.2 C65.3,87.3 65.6,87.6 65.8,88.1 C66,88.4 66,88.7 65.9,89.2 L65.9,89.2 L65.9,89.2 Z M54,88.3 C53.7,88.5 53.4,88.5 53,88.4 C52.5,88.3 52.2,88 52,87.6 C51.8,87.2 51.8,86.6 52,85.9 C52.2,85.2 52.5,84.7 52.9,84.4 C53.3,84.1 53.7,84.1 54.2,84.2 C54.5,84.3 54.7,84.5 54.9,84.7 C55.1,84.9 55.1,85.3 55.1,85.7 L56,85.8 C56.1,85.2 55.9,84.7 55.6,84.3 C55.3,83.9 54.9,83.6 54.3,83.4 C53.8,83.3 53.4,83.3 52.9,83.4 C52.4,83.5 52,83.8 51.7,84.1 C51.4,84.5 51.1,85 51,85.6 C50.7,86.5 50.8,87.3 51.1,87.9 C51.4,88.5 51.9,88.9 52.7,89.2 C53.3,89.4 53.9,89.3 54.4,89.1 C54.9,88.9 55.3,88.4 55.6,87.8 L54.7,87.4 C54.6,87.8 54.3,88.1 54,88.3 L54,88.3 L54,88.3 Z M57.5,88 L58.3,87.6 L59.3,90.9 L60.4,91.2 L59.1,87.1 L61.8,85.7 L60.6,85.4 L57.8,87 L59,82.7 L58.1,82.4 L55.9,90 L56.8,90.3 L57.5,88 L57.5,88 Z M59.7,98.6 C58.9,98.4 58.3,98.5 57.6,98.8 C57,99.2 56.5,99.8 56.3,100.7 C56,101.6 56.1,102.4 56.4,103 C56.7,103.6 57.3,104.1 58.1,104.3 C58.7,104.5 59.3,104.5 59.8,104.3 C60.3,104.1 60.7,103.8 61,103.2 L60.1,102.8 C59.8,103.2 59.6,103.4 59.3,103.5 C59,103.6 58.7,103.6 58.4,103.5 C57.9,103.4 57.6,103.1 57.4,102.7 C57.2,102.3 57.1,101.8 57.3,101.2 L61.4,102.4 C61.4,102.3 61.5,102.2 61.5,102.2 C61.8,101.3 61.7,100.5 61.4,99.9 C60.9,99.3 60.4,98.8 59.7,98.6 L59.7,98.6 L59.7,98.6 Z M60.5,101.4 L57.4,100.5 C57.6,100 57.8,99.7 58.2,99.5 C58.6,99.3 59,99.3 59.4,99.4 C59.9,99.5 60.2,99.8 60.4,100.3 C60.6,100.5 60.6,100.9 60.5,101.4 L60.5,101.4 L60.5,101.4 Z M60.5,101.4" class="Shape"/>
                </g>
                <g class="background">
                    <path d="M194.9,71 L274.1,14.5 L287.8,17.9 L282.9,21.4 C282.3,21.9 282.6,22.3 283.8,22.6 L291,24.3 C335.7,35.5 358.3,48.2 358.8,62.6 C359,67.2 356.8,71.7 352.3,76.1 C350,78.4 347.4,80.4 344.5,82.1 L165.9,209.7 L152.2,206.3 L171.7,192.4 C172.4,191.9 172.1,191.4 170.9,191.1 L167.3,190.2 L175.3,184.5 L178.9,185.4 C180.1,185.7 181.2,185.6 181.9,185.1 L260.7,128.9 L187.3,110.6 L162.9,128 L180.7,132.4 L179.2,133.4 L161.4,129 L157,132.2 L86.8,114.5 L116.7,93.2 L15.9,67.8 L23.9,62.1 L27.6,63 C28.8,63.3 29.8,63.2 30.6,62.7 L44.4,52.9 C44.9,52.5 45,52 44.8,51.4 L44.4,50.5 L43.3,49 L58.6,47.4 L59.9,49.5 C60.4,50.3 61.8,50.9 64.1,51.5 L78.1,55 C79.3,55.3 80.3,55.1 81,54.7 L96,44 L109.8,47.4 L107.5,49.1 C106.9,49.6 107.1,50 108.3,50.3 L192.4,71.3 L194.9,71 M199.8,80.7 L117.4,60.2 L90.1,78.5 L269.1,123 L331,78.8 C346.5,67.2 346.4,56.4 330.5,46.4 C321,40.4 305.3,34.7 283.3,29.2 L275,27.2 L222.9,64.2 L251.4,71.3 L236.4,82 L208,74.8 L199.8,80.7 M92.5,177.8 C93.7,179.6 93.1,181.4 90.8,183 C88.5,184.6 85.1,185.7 80.7,186.2 C76.3,186.7 72.1,186.4 68.2,185.4 C64.3,184.4 61.7,183 60.5,181.1 C59.3,179.3 59.9,177.5 62.2,175.9 C64.5,174.3 67.9,173.2 72.3,172.8 C76.7,172.3 80.9,172.6 84.8,173.6 C88.7,174.5 91.3,176 92.5,177.8" class="road"/>
                    <path d="M161.9,96.6 L144.7,92.1 L146,86.7 L149,84.6 L115.4,76.3 L112.5,78.4 L108.5,77.4 L115.2,72.6 L174.4,87 L181.2,83 L174,81 L181.1,75.9 L208.8,83.1 L212.2,80.6 L227.1,84.3 L197.7,105.3 L161.9,96.6 M270.4,39 L251.1,52.8 L242.3,50.6 L261.6,36.9 L270.4,39 M112.4,137 L140.4,143.9 L137.3,146.1 L109.4,139.1 L109.2,139.3 C111,140.1 112,141 112.3,142.1 C112.6,143.2 112.1,144.2 110.8,145.2 C109.5,146.1 107.6,146.8 105.2,147.2 L97.9,147.4 L74.8,163.9 L69.5,162.6 L92.5,146.2 C90.6,145.4 89.4,144.5 89,143.3 C88.6,142.2 89.1,141.1 90.4,140.1 C91.8,139.1 93.7,138.5 96.2,138.1 C98.7,137.7 101.2,137.7 103.8,138 L123.7,123.8 L128.9,125.1 L112.4,137" class="walkway"/>
                    <path d="M292.4,27.3 C310.1,32.1 323.1,37.2 331.4,42.5 C339.4,47.6 343.3,53 343.1,58.6 L343.1,58.2 L343.1,62.5 L343.1,62.8 L343,63.9 L342.5,66 L341.1,69 L339.7,71.1 L339.5,71.4 L337.3,74 L334.2,76.9 L334.1,77 L331.7,79 L329.2,78.4 L329.2,80.8 L323.7,84.8 L319.8,83.8 L319.8,87.6 L303.7,99.1 L275.3,92 L275.3,88.1 L291.4,76.6 L295.2,77.5 L295.2,73.7 L299.1,70.9 L287,67.9 L287,64 L294.5,58.6 L276,54 L247,74.7 L227.9,69.8 L217.4,77.3 L208.2,75 L208.2,71.1 L218.9,63.4 L219.1,63.3 L275.4,23.1 L292.4,27.3 L292.4,27.3 Z M290.5,107.8 L269.2,123 L240.8,115.9 L240.8,112.1 L262.1,96.9 L290.6,104 L290.5,107.8 L290.5,107.8 Z M181.3,72 L181.5,76.1 L178.8,78 L182,78.8 L182,82.7 L174.5,88 L166.9,86.1 L149.9,81.8 L149.9,83.3 L153.7,84.4 L153.7,88.4 L147.8,92.7 L107,82.5 L73,74.3 L73,70.2 L79,65.9 L99.7,71.1 L99.8,65.3 L106.8,60.3 L114.1,62.1 L121.2,57.1 L181.3,72 L181.3,72 Z M200.4,76.6 L203.3,74.5 L212.3,76.8 L212.2,80.7 L183.4,101.8 L167.4,97.8 L167.4,93.9 L194,75 L200.4,76.6 L200.4,76.6 Z M157.8,132 L142.2,143.2 L163.2,148.4 L163.2,152.3 L144.8,165.4 L128.3,177.2 L74.9,163.9 L74.9,160 L87.3,151.2 L87.5,151.1 L98.3,143.4 C100.8,143.7 103.3,143.6 105.7,143.2 C108.1,142.8 109.9,142.1 111.2,141.2 L111.8,140.7 C111.3,140.2 110.6,139.7 109.6,139.3 L109.6,135.5 L109.9,135.2 L112.7,135.9 L112.7,133 L129.4,121 L157.9,128.1 L157.9,132 L157.8,132 Z M163,124 L180.8,111.3 L198.9,115.8 L198.9,119.6 L181.1,132.3 L163,127.8 L163,124 L163,124 Z M234.2,126.7 L243.1,120.3 L261.2,124.8 L261.2,128.7 L252.3,135.1 L234.2,130.6 L234.2,126.7 L234.2,126.7 Z M218.8,137.8 L227.7,131.4 L245.7,135.9 L245.7,139.8 L236.8,146.2 L218.7,141.7 L218.8,137.8 L218.8,137.8 Z M14,144.8 L68.5,105.9 L124.4,119.8 L124.4,123.7 L118.7,127.8 L104.5,137.9 L104.3,137.9 L103.2,137.8 L96.9,138 L96.8,138 L93.8,138.7 L93.6,138.8 L92.7,139.1 L92.5,139.2 L91.9,139.5 L90.7,140.3 L90.5,140.5 C91.1,141.1 91.9,141.6 93,142.1 L93.1,142.1 L93.1,145.9 L69.8,162.6 L13.9,148.6 L14,144.8 L14,144.8 Z M126.5,95.1 L110.1,106.8 L101.2,104.5 L101.2,100.5 L104.9,97.8 L99.3,96.4 L99.3,92.5 L107.6,86.6 L126.4,91.3 L126.5,95.1 L126.5,95.1 Z M126.5,95.1" class="wall"/>
                </g>
                <g class="ceilings">
                    <path class="unit" d="M275.5,23.3 L284.1,25.4 L276.6,30.8 L268.1,28.7 L275.5,23.3 L275.5,23.3 Z M275.5,23.3" id="1001"/>
                    <path class="unit" d="M284.2,33 L278.7,36.9 L262.3,32.8 L267.9,28.8 L275.4,30.7 L284.2,33 L284.2,33 Z M284.2,33" id="1002"/>
                    <path class="unit" d="M275.4,30.7 L276.8,31" id="1003"/>
                    <path class="unit" d="M257.7,62.7 L230,55.8 L248,43 L275.6,49.9 L257.7,62.7 L257.7,62.7 Z M257.7,62.7" id="1004"/>
                    <path class="unit" d="M229.8,55.9 L257.4,62.8 L252.4,66.4 L224.8,59.5 L229.8,55.9 L229.8,55.9 Z M229.8,55.9" id="1008"/>
                    <path class="unit" d="M106.7,67 L99.8,65.3 L106.8,60.3 L113.6,62 L106.7,67 L106.7,67 Z M106.7,67" id="1009"/>
                    <path class="unit" d="M227.8,65.6 L222.6,69.3 L214.1,67.2 L219.3,63.5 L227.8,65.6 L227.8,65.6 Z M227.8,65.6" id="1010"/>
                    <path class="unit" d="M219.5,63.3 L224.6,59.6 L252.2,66.5 L247.1,70.2 L219.5,63.3 L219.5,63.3 Z M219.5,63.3" id="1011"/>
                    <path class="unit" d="M139.7,61.6 L139.7,61.6 L121.2,57 L116.2,60.6 L107.1,67.1 L119.2,70.1 L119.6,70.2 L119.5,70.2 L131.7,73.2 L131.9,73.2 L145.9,63.2 L139.7,61.6 Z M139.7,61.6" id="1012"/>
                    <path class="unit" d="M159.2,66.5 L153.7,65.1 L146.2,63.3 L132.1,73.3 L145.1,76.5 L152.5,78.4 L166.5,68.3 L159.2,66.5 Z M159.2,66.5" id="1013"/>
                    <path class="unit" d="M213.9,67.3 L222.4,69.4 L217.3,73.1 L208.8,71 L213.9,67.3 L213.9,67.3 Z M213.9,67.3" id="1014"/>
                    <path class="unit" d="M278.8,37.1 L292.2,27.5 C309.7,32.2 322.6,37.2 331.1,42.6 C338.8,47.5 342.7,52.7 342.8,58 C342.8,63.4 339,68.9 331.4,74.7 L287.6,63.8 L299.1,55.5 L248.2,42.8 L262.1,32.9 L278.8,37.1 L278.8,37.1 Z M278.8,37.1" id="1015"/>
                    <path class="unit" d="M211.8,76.8 L209.1,78.7 L200.8,76.7 L203.5,74.7 L211.8,76.8 L211.8,76.8 Z M211.8,76.8" id="1018"/>
                    <path class="unit" d="M112.7,74.3 L106.7,78.6 L73,70.2 L79,65.9 L112.7,74.3 L112.7,74.3 Z M112.7,74.3" id="1020"/>
                    <path class="unit" d="M300.8,69.8 L328.5,76.7 L323.4,80.3 L295.7,73.4 L300.8,69.8 L300.8,69.8 Z M300.8,69.8" id="1021"/>
                    <path class="unit" d="M175.4,70.6 L166.9,68.4 L152.9,78.5 L167.2,82 L181.3,72 L175.4,70.6 Z M175.4,70.6" id="1022"/>
                    <path class="unit" d="M124.1,74.3 L116.1,72.3 L107.2,78.6 L123.6,82.7 L132.5,76.4 L124.1,74.3 Z M124.1,74.3" id="1023"/>
                    <path class="unit" d="M174.5,77.2 L181.4,78.9 L174.4,83.9 L167.5,82.2 L174.5,77.2 L174.5,77.2 Z M174.5,77.2" id="1026"/>
                    <path class="unit" d="M149.2,80.5 L132.8,76.5 L123.9,82.8 L131.9,84.8 L140.3,86.9 L149.2,80.5 Z M149.2,80.5" id="1027"/>
                    <path class="unit" d="M291.4,76.6 L319,83.5 L313.9,87.2 L286.3,80.3 L291.4,76.6 L291.4,76.6 Z M291.4,76.6" id="1028"/>
                    <path class="unit" d="M153.6,84.5 L147.7,88.7 L140.8,87 L146.7,82.8 L153.6,84.5 L153.6,84.5 Z M153.6,84.5" id="1030"/>
                    <path class="unit" d="M313.7,87.3 L303.4,94.6 L275.8,87.7 L286.1,80.4 L313.7,87.3 L313.7,87.3 Z M313.7,87.3" id="1033"/>
                    <path class="unit" d="M107.9,86.7 L116.8,88.9 L109,94.5 L100.1,92.3 L107.9,86.7 L107.9,86.7 Z M107.9,86.7" id="1034"/>
                    <path class="unit" d="M126,91.2 L118.2,96.8 L109.4,94.6 L117.2,89 L126,91.2 L126,91.2 Z M126,91.2" id="1035"/>
                    <path class="unit" d="M168.2,93.8 L183.6,97.1 L201.9,83.9 L187.1,80.2 L168.2,93.8 Z M168.2,93.8" id="1036"/>
                    <path class="unit" d="M109.1,94.8 L118,97 L110.2,102.6 L101.3,100.4 L109.1,94.8 L109.1,94.8 Z M109.1,94.8" id="1037"/>
                    <path class="unit" d="M209,78.7 L194.1,75.2 L187.4,80.1 L202.1,83.8 L209,78.7 Z M209,78.7" id="1038"/>
                    <path class="unit" d="M290,104 L269.1,118.9 L241.4,112 L262.3,97.1 L290,104 L290,104 Z M290,104" id="1039"/>
                    <path class="unit" d="M198.4,115.9 L189.8,122 L172.5,117.7 L181,111.7 L198.4,115.9 L198.4,115.9 Z M198.4,115.9" id="1040"/>
                    <path class="unit" d="M123.9,119.9 L118.6,123.7 L109.5,121.4 L114.8,117.6 L123.9,119.9 L123.9,119.9 Z M123.9,119.9" id="1041"/>
                    <path class="unit" d="M113.1,127.6 L104,125.3 L109.3,121.5 L118.4,123.8 L113.1,127.6 L113.1,127.6 Z M113.1,127.6" id="1042"/>
                    <path class="unit" d="M181,128.2 L163.7,123.9 L172.3,117.8 L189.6,122.1 L181,128.2 L181,128.2 Z M181,128.2" id="1043"/>
                    <path class="unit" d="M133.2,127.5 L130.6,129.3 L121.5,127 L124,125.2 L133.2,127.5 L133.2,127.5 Z M133.2,127.5" id="1044"/>
                    <path class="unit" d="M252.2,130.9 L234.9,126.6 L243.5,120.5 L260.8,124.8 L252.2,130.9 L252.2,130.9 Z M252.2,130.9" id="1045"/>
                    <path class="unit" d="M130.5,129.4 L127.9,131.2 L118.8,128.9 L121.4,127.1 L130.5,129.4 L130.5,129.4 Z M130.5,129.4" id="1046"/>
                    <path class="unit" d="M103.4,125.4 L112.9,127.8 L107.6,131.6 L52.4,117.8 L68.8,106.1 L114.6,117.5 L103.4,125.4 L103.4,125.4 Z M103.4,125.4" id="1047"/>
                    <path class="unit" d="M133.8,127.4 L124.3,125 L129.6,121.2 L157.3,128.1 L146.5,135.8 L128.3,131.3 L133.8,127.4 L133.8,127.4 Z M133.8,127.4" id="1048"/>
                    <path class="unit" d="M118.6,129.2 L146.3,136.1 L143.7,137.9 L116,131 L118.6,129.2 L118.6,129.2 Z M118.6,129.2" id="1049"/>
                    <path class="unit" d="M143.5,138.1 L140.9,139.9 L113.2,133 L115.8,131.2 L143.5,138.1 L143.5,138.1 Z M143.5,138.1" id="1050"/>
                    <path class="unit" d="M245.2,135.9 L236.7,142 L219.4,137.7 L227.9,131.6 L245.2,135.9 L245.2,135.9 Z M245.2,135.9" id="1051"/>
                    <path class="unit" d="M91,143.4 L35.8,129.6 L52.1,118 L107.3,131.8 L104.4,133.9 C101.8,133.6 99.2,133.6 96.7,134 C94.2,134.4 92.3,135.1 90.9,136.1 C89.5,137.1 89,138.1 89.4,139.2 C89.8,140.3 90.9,141.3 92.8,142.1 L91,143.4 L91,143.4 Z M91,143.4" id="1052"/>
                    <path class="unit" d="M35.5,129.8 L90.7,143.6 L69.8,158.5 L14.6,144.7 L35.5,129.8 L35.5,129.8 Z M35.5,129.8" id="1053"/>
                    <path class="unit" d="M113,138.2 C112.7,137.1 111.7,136.2 109.9,135.3 L162.6,148.4 C156.6,152.7 150.7,157 144.7,161.2 L92,148.1 L98.5,143.5 L105.9,143.2 C108.3,142.8 110.2,142.1 111.5,141.2 C112.8,140.3 113.3,139.3 113,138.2 L113,138.2 L113,138.2 Z M113,138.2" id="1054"/>
                    <path class="unit" d="M105.4,163.5 L101.4,166.4 L75.4,159.9 L79.4,157 L105.4,163.5 L105.4,163.5 Z M105.4,163.5" id="1056"/>
                    <path class="unit" d="M105.8,163.6 L132.1,170.2 L128.1,173.1 L101.8,166.5 L105.8,163.6 L105.8,163.6 Z M105.8,163.6" id="1057"/>
                    <path class="unit" d="M140.5,164.2 L144.5,161.4 L91.8,148.3 L87.9,151.1 L83.5,154.2 L79.7,156.9 L132.4,170 L137.8,166.1 L140.3,164.4 L140.5,164.2 Z M140.5,164.2" id="1059"/>
                    <path class="unit" d="M61.7,113 L61.8,113.2 L61.7,113.3 L61.6,113.4 L61.4,113.3 L61.4,113.2 L61.4,113 L61.7,113 M60.2,112.7 L60.4,112.7 L60.5,112.7 L60.6,112.9 L60.5,113 L60.4,113.1 L60.2,113 L60.2,112.9 L60.2,112.7 M62.7,113.3 L62.9,113.3 L63,113.3 L63.1,113.5 L63,113.6 L62.9,113.7 L62.7,113.6 L62.7,113.5 L62.7,113.3 M65.2,113.9 L65.4,113.9 L65.5,113.9 L65.6,114.1 L65.5,114.2 L65.4,114.3 L65.2,114.2 L65.2,114.1 L65.2,113.9 M64,113.6 L64.2,113.6 L64.3,113.6 L64.4,113.8 L64.3,113.9 L64.2,114 L64,113.9 L64,113.8 L64,113.6 M65,115.5 L65.1,115.7 L65,115.8 L64.9,115.9 L64.7,115.8 L64.7,115.7 L64.7,115.5 L65,115.5 M65.7,114.9 L65.7,114.7 L65.9,114.7 L66,114.7 L66.1,114.9 L66,115 L65.9,115.1 L65.7,114.9 M66.5,114.2 L66.7,114.2 L66.8,114.2 L66.9,114.4 L66.8,114.5 L66.7,114.6 L66.5,114.5 L66.5,114.4 L66.5,114.2 M63.7,116.3 L63.9,116.3 L64,116.3 L64.1,116.5 L64,116.6 L63.9,116.7 L63.7,116.6 L63.7,116.5 L63.7,116.3 M61.9,117.8 L62,118 L61.9,118.1 L61.8,118.2 L61.6,118.1 L61.6,118 L61.6,117.8 L61.9,117.8 M62.7,117.1 L62.9,117.1 L63,117.1 L63.1,117.3 L63,117.4 L62.9,117.5 L62.7,117.4 L62.7,117.3 L62.7,117.1 M60.6,118.6 L60.8,118.6 L60.9,118.6 L61,118.8 L60.9,118.9 L60.8,119 L60.6,118.9 L60.6,118.8 L60.6,118.6 M59.9,119.4 L60,119.6 L59.9,119.7 L59.8,119.8 L59.6,119.7 L59.6,119.6 L59.6,119.4 L59.9,119.4" id="1060"/>
                    <path class="unit" d="M63,111.5 L63.2,111.5 L63.3,111.5 L63.4,111.7 L63.3,111.8 L63.2,111.9 L63,111.8 L63,111.7 L63,111.5 M61.7,111.3 L61.9,111.3 L62,111.3 L62.1,111.5 L62,111.6 L61.9,111.7 L61.7,111.6 L61.7,111.5 L61.7,111.3 M66,112.4 L66,112.4 L65.8,112.6 L65.6,112.5 L65.6,112.4 L65.6,112.2 L65.8,112.2 L65.9,112.2 L66,112.4 M66.8,112.7 L66.8,112.5 L67,112.5 L67.1,112.5 L67.2,112.7 L67.1,112.8 L67,112.9 L66.8,112.7 M64.3,111.9 L64.5,111.9 L64.6,111.9 L64.7,112.1 L64.6,112.2 L64.5,112.3 L64.3,112.2 L64.3,112.1 L64.3,111.9 M74.3,108.8 L74.3,108.6 L74.5,108.6 L74.6,108.6 L74.7,108.8 L74.6,108.9 L74.5,109 L74.3,108.8 M72.6,110.3 L72.6,110.3 L72.4,110.5 L72.2,110.4 L72.2,110.3 L72.2,110.1 L72.4,110.1 L72.5,110.1 L72.6,110.3 M73.3,109.4 L73.5,109.4 L73.6,109.4 L73.7,109.6 L73.6,109.7 L73.5,109.8 L73.3,109.7 L73.3,109.6 L73.3,109.4 M75.6,107.9 L75.7,108.1 L75.6,108.2 L75.5,108.3 L75.3,108.2 L75.3,108.1 L75.3,107.9 L75.6,107.9 M71.2,110.9 L71.4,110.9 L71.5,110.9 L71.6,111.1 L71.5,111.2 L71.4,111.3 L71.2,111.2 L71.2,111.1 L71.2,110.9 M70.4,111.6 L70.4,111.6 L70.6,111.8 L70.5,111.9 L70.4,112 L70.2,111.9 L70.2,111.8 L70.2,111.6 L70.4,111.6 M68.1,112.9 L68.3,112.9 L68.4,112.9 L68.5,113.1 L68.4,113.2 L68.3,113.3 L68.1,113.2 L68.1,113.1 L68.1,112.9 M69.5,112.5 L69.6,112.7 L69.5,112.8 L69.4,112.9 L69.2,112.8 L69.2,112.7 L69.2,112.5 L69.5,112.5" id="1061"/>
                    <path class="unit" d="M284.4,25.5 L276.9,30.9 L284.3,32.8 L291.7,27.4 L284.4,25.5 L284.4,25.5 Z M284.4,25.5" id="1063"/>
        </g>
    </g>
</svg>