<?xml version="1.0" encoding="utf-8"?>
<!DOCTYPE svg PUBLIC "-//W3C//DTD SVG 1.1//EN" "http://www.w3.org/Graphics/SVG/1.1/DTD/svg11.dtd">
<svg version="1.1" xmlns="http://www.w3.org/2000/svg" xmlns:xlink="http://www.w3.org/1999/xlink" xml:space="preserve">
<g class="level" id="level1">
            <g class="outline">
                    <path d="M159.7,177.2 C156.6,177.2 153.5,176.8 150.6,176.1 C146,175 142.9,173.2 141.4,170.7 C140.7,169.6 138.8,165.6 143.8,162 C146.2,160.4 149.3,159.2 153.4,158.6 C156.9,158.1 160.5,158 164,158.4 L112.7,145.6 C112.4,145.5 112.2,145.4 111.9,145.3 L109.9,146.8 C109.4,147.1 108.8,147.3 108.2,147.3 L103.6,147 L94.4,173.2 C94,174.4 92.6,175.2 91.4,174.8 L32.4,160 C31.3,159.7 30.5,158.7 30.5,157.5 L18,154.4 C17.3,154.2 16.7,153.8 16.4,153.1 C16.1,152.5 16,151.7 16.3,151 L31.6,110 C31.8,109.5 32.1,109.1 32.5,108.8 L52.5,94.3 L53.3,92.3 C53.5,91.8 53.8,91.4 54.2,91.1 L71.1,78.9 C71.7,78.5 72.5,78.3 73.2,78.5 L156.1,99.2 C157.3,99.5 158.1,100.5 158,101.7 L158,101.8 L160.8,102.5 L162.1,101.6 C162.7,101.2 163.5,101 164.2,101.2 L227.4,117 C228.5,117.3 229.3,118.3 229.3,119.5 L229.3,119.6 L230.3,119.8 L231.5,118.9 C232.1,118.5 232.9,118.3 233.6,118.5 L243.4,120.9 L246.2,118.9 C246.4,118.8 246.5,118.7 246.7,118.6 L245.1,118.5 C244.9,118.5 244.8,118.5 244.6,118.4 L201.6,107.7 C199.7,107.3 198.5,106.5 197.7,105.2 C196.8,103.8 196.8,101.6 198.9,100.2 L218.1,86.5 C219.2,85.7 220.6,85.3 222.4,85.1 L222.8,85.1 L226.6,85.3 C226.8,85.3 226.9,85.3 227.1,85.4 L270.1,96.1 C272,96.6 273.3,97.4 274,98.6 C274.1,98.7 274.1,98.8 274.2,98.9 L276.3,97.4 L210.4,81 C210.3,81 210.3,81 210.2,80.9 L209.9,80.8 L187.8,75.3 C187.7,75.3 187.7,75.3 187.6,75.2 L187.3,75.1 L167.6,70.2 C166.5,69.9 165.6,68.9 165.7,67.7 L165.7,63.9 C165.7,63.1 166.1,62.3 166.8,61.9 L169.7,59.8 L167.7,59.3 C166.7,59.1 166,58.3 165.8,57.3 C165.6,56.3 166,55.3 166.8,54.7 L183,43 C183.6,42.6 184.4,42.4 185.1,42.6 L209.6,48.7 C210.6,48.9 211.3,49.7 211.5,50.7 C211.6,51 211.6,51.4 211.5,51.7 L262,64.3 C263.1,64.6 264,65.6 263.9,66.8 L263.9,69 L274.9,71.8 C276.1,72.1 276.9,73.1 276.8,74.3 L278.3,74.7 L283.8,70.8 L284.4,70.5 L321.6,43.9 C321.7,43.9 321.7,43.8 321.8,43.8 L321.9,43.7 L325,41.5 C325.1,41.5 325.1,41.4 325.2,41.4 L325.3,41.3 L328.4,39.1 C328.5,39.1 328.5,39 328.6,39 L328.7,38.9 L332,36.5 C332.6,36.1 333.4,35.9 334.1,36.1 L335.2,36.4 L337.1,35.1 L337.1,34.2 C337.1,33.4 337.5,32.6 338.2,32.1 L364.2,13.6 C364.8,13.2 365.6,13 366.3,13.2 C395,20.4 413.6,26.8 422.9,32.7 C431.4,38.1 435.8,44.1 435.8,50.5 L435.8,50.7 L435.8,51.1 L435.7,55.6 L435.7,56 L435.5,57.3 C435.5,57.4 435.4,57.6 435.4,57.7 L434.6,60 C434.6,60.1 434.5,60.2 434.5,60.4 L433.5,62.4 C433.5,62.5 433.4,62.6 433.3,62.7 L431.7,65 L431.4,65.3 L429.4,67.6 L429.1,67.9 L423.2,73 C422.7,73.4 422,73.7 421.4,73.6 C421.3,74.2 420.9,74.7 420.4,75 L377.3,105.7 C376.7,106.1 375.9,106.3 375.2,106.1 L357.4,101.7 L316.5,131 C315.9,131.4 315.1,131.6 314.4,131.4 L314.2,131.4 C314.2,132.2 313.8,132.9 313.1,133.4 L305.8,138.6 C305.2,139 304.4,139.2 303.7,139 L294.9,136.8 L271.8,153.2 L274.6,157.7 C275.1,158.4 275.1,159.4 274.7,160.2 C274.3,161 273.6,161.5 272.7,161.6 L249.4,164.1 C248.4,164.2 247.5,163.8 247,163 L244.1,158.5 L224.4,172.6 C223.8,173 223,173.2 222.3,173 L177.4,161.8 C177.1,161.7 176.9,161.6 176.7,161.5 L175.5,162.4 C176.8,163.4 177.7,164.5 178.2,165.8 C178.8,167.4 179.3,170.5 175.3,173.4 C172.6,175.3 168.9,176.5 164,177 C162.5,177.2 161.1,177.2 159.7,177.2 L159.7,177.2 L159.7,177.2 Z M159.7,177.2" class="outline"/>
                </g>
                <g class="label">
                    <path d="M20.4,0.7 C19.4,0.7 18.6,0.8 18.1,1 C17.7,1.1 17.6,1.4 17.6,1.8 L17.6,11.5 C17.6,11.9 17.9,12.1 18.2,12.1 C18.6,12.1 18.8,11.9 18.8,11.5 L18.8,7.8 L20.3,7.8 C23.2,7.8 24.7,6.4 24.7,4.1 C24.7,2.2 23.4,0.7 20.4,0.7 L20.4,0.7 L20.4,0.7 Z M20.2,6.7 L18.8,6.7 L18.8,2 C19.2,1.9 19.8,1.9 20.3,1.9 C22.6,1.9 23.4,3 23.4,4.3 C23.4,5.5 22.7,6.7 20.2,6.7 L20.2,6.7 L20.2,6.7 Z M29.2,0.7 C28.2,0.7 27.4,0.8 26.9,1 C26.5,1.1 26.4,1.4 26.4,1.8 L26.4,11.5 C26.4,11.9 26.7,12.1 27,12.1 C27.3,12.1 27.6,11.9 27.6,11.5 L27.6,7.8 L29.1,7.8 C32,7.8 33.5,6.4 33.5,4.1 C33.5,2.2 32.2,0.7 29.2,0.7 L29.2,0.7 L29.2,0.7 Z M29.1,6.7 L27.7,6.7 L27.7,2 C28.1,1.9 28.7,1.9 29.2,1.9 C31.5,1.9 32.3,3 32.3,4.3 C32.3,5.5 31.6,6.7 29.1,6.7 L29.1,6.7 L29.1,6.7 Z M14.7,0.7 C14.3,0.7 14.1,1 14.1,1.4 L14.1,10.2 C13.3,10.7 12.1,11 11.4,11 C9.5,11 8.4,10.1 8.4,8 L8.4,1.4 C8.4,1 8.1,0.7 7.8,0.7 C7.4,0.7 7.1,1 7.1,1.4 L7.1,8.2 C7.1,10.5 8.6,12.1 11.1,12.1 C12.9,12.1 13.9,11.6 14.9,11.1 C15.3,10.9 15.3,10.6 15.3,10.2 L15.3,1.4 C15.3,1 15,0.7 14.7,0.7 L14.7,0.7 L14.7,0.7 Z M41.2,10.8 L36.4,10.8 L36.4,6.9 L40.3,6.9 C40.7,6.9 40.9,6.6 40.9,6.3 C40.9,6 40.7,5.7 40.3,5.7 L36.4,5.7 L36.4,2 L41,2 C41.4,2 41.6,1.7 41.6,1.4 C41.6,1.1 41.4,0.8 41,0.8 L36.2,0.8 C35.5,0.8 35.1,1.2 35.1,1.8 L35.1,11 C35.1,11.6 35.5,12 36.2,12 L41.1,12 C41.5,12 41.7,11.7 41.7,11.4 C41.9,11.1 41.6,10.8 41.2,10.8 L41.2,10.8 L41.2,10.8 Z M92.8,10.8 L88.5,10.8 L88.5,1.4 C88.5,1 88.2,0.7 87.9,0.7 C87.5,0.7 87.3,1 87.3,1.4 L87.3,11 C87.3,11.6 87.7,12 88.4,12 L92.9,12 C93.3,12 93.6,11.7 93.6,11.4 C93.5,11.1 93.2,10.8 92.8,10.8 L92.8,10.8 L92.8,10.8 Z M85.2,10.8 L80.9,10.8 L80.9,1.4 C80.9,1 80.6,0.7 80.3,0.7 C79.9,0.7 79.7,1 79.7,1.4 L79.7,11 C79.7,11.6 80.1,12 80.8,12 L85.3,12 C85.7,12 86,11.7 86,11.4 C85.9,11.1 85.6,10.8 85.2,10.8 L85.2,10.8 L85.2,10.8 Z M75.1,2.2 C74.5,1 74,0.6 73.4,0.6 C72.8,0.6 72.3,1 71.7,2.2 C70.8,4 70.1,6.3 69,10.9 C68.9,11.1 68.9,11.3 68.9,11.4 C68.9,11.8 69.2,12 69.5,12 C69.8,12 70,11.8 70.1,11.5 C70.4,10.1 70.7,8.9 71,7.8 L75.9,7.8 C76.2,8.9 76.5,10.1 76.8,11.5 C76.9,11.8 77.1,12 77.4,12 C77.8,12 78,11.8 78,11.4 C78,11.3 78,11.1 77.9,10.9 C76.7,6.3 76,4 75.1,2.2 L75.1,2.2 L75.1,2.2 Z M71.3,6.8 C72,4.4 72.7,2.8 73.2,2 C73.2,1.9 73.3,1.9 73.4,1.9 C73.5,1.9 73.6,2 73.6,2 C74.1,2.8 74.8,4.3 75.5,6.8 L71.3,6.8 L71.3,6.8 Z M49.3,7.9 C49,7.5 48.7,7.2 48.3,6.9 C49.7,6.4 50.7,5.4 50.7,3.9 C50.7,2 49.4,0.7 46.5,0.7 C45.4,0.7 44.6,0.8 44.1,1 C43.7,1.1 43.6,1.4 43.6,1.8 L43.6,11.5 C43.6,11.9 43.9,12.1 44.2,12.1 C44.6,12.1 44.8,11.9 44.8,11.5 L44.8,7.2 L46,7.2 C47.2,7.2 47.6,7.7 48.2,8.6 C48.6,9.2 49,10.2 49.5,11.6 C49.6,11.9 49.8,12 50.1,12 C50.4,12 50.7,11.8 50.7,11.4 C50.7,11.3 50.7,11.1 50.6,11 C50.3,9.9 49.8,8.7 49.3,7.9 L49.3,7.9 L49.3,7.9 Z M46.3,6 L44.9,6 L44.9,2 C45.3,1.9 45.8,1.9 46.5,1.9 C48.8,1.9 49.5,2.8 49.5,4 C49.4,5.6 47.9,6.1 46.3,6 L46.3,6 L46.3,6 Z M66.5,2 C66.4,1.2 66.1,0.7 65.4,0.7 C64.8,0.7 64.5,1.1 64.3,1.5 C63.5,3.7 62.6,6.5 61.6,9.2 L61.6,9.2 C60.6,6.7 59.8,4.1 58.8,1.7 C58.6,1.1 58.3,0.7 57.7,0.7 C57,0.7 56.7,1.1 56.6,2 C56.2,4.9 56.1,8.1 56.1,11.3 C56.1,11.7 56.3,11.9 56.7,11.9 C57.1,11.9 57.3,11.7 57.3,11.2 C57.3,8.1 57.5,5.1 57.8,2.2 L57.8,2.2 C58.8,4.8 59.7,7.5 60.8,10.1 C60.9,10.4 61.2,10.7 61.6,10.7 C62,10.7 62.3,10.5 62.4,10.1 C63.4,7.6 64.3,4.9 65.2,2.2 L65.2,2.2 C65.6,5.2 65.8,8.2 65.9,11.2 C65.9,11.6 66.1,11.9 66.5,11.9 C66.9,11.9 67.1,11.6 67.1,11.2 L67.1,10.7 C67.2,7.9 66.9,4.8 66.5,2 L66.5,2 L66.5,2 Z M66.5,2" class="Shape"/>
                    <path d="M412.6,97.8 L412,97 L408.2,100 L406.5,97.9 L409.9,95.2 L409.3,94.5 L405.9,97.2 L404.4,95.3 L408,92.4 L407.4,91.7 L403,95.3 L408,101.4 L412.6,97.8 L412.6,97.8 Z M426.8,85.4 C427.5,85.5 428.2,85.3 428.8,84.8 C429.2,84.5 429.5,84.1 429.7,83.7 C429.9,83.3 429.9,82.8 429.8,82.3 C429.7,81.8 429.4,81.3 429,80.7 C428.4,80 427.8,79.6 427.1,79.5 C426.4,79.4 425.7,79.6 425.1,80.1 C424.6,80.5 424.2,81.1 424.1,81.7 C424,82.5 424.2,83.3 424.9,84.1 C425.4,84.9 426.1,85.3 426.8,85.4 L426.8,85.4 L426.8,85.4 Z M425.5,80.8 C425.9,80.5 426.3,80.4 426.8,80.5 C427.3,80.6 427.7,80.9 428.2,81.4 C428.7,82 428.9,82.5 428.9,83 C428.9,83.5 428.7,83.9 428.3,84.2 C427.9,84.5 427.5,84.6 427,84.5 C426.5,84.4 426.1,84.1 425.6,83.5 C425.1,82.9 424.9,82.4 424.9,81.9 C424.9,81.5 425.1,81.1 425.5,80.8 L425.5,80.8 L425.5,80.8 Z M397.8,116.6 L401.7,121.4 L394.6,119.2 L393.8,119.9 L398.8,126 L399.6,125.4 L395.7,120.6 L402.8,122.8 L403.6,122.1 L398.6,116 L397.8,116.6 L397.8,116.6 Z M420.5,84 L421,84.6 L421.6,84.2 L423.7,86.8 C424.1,87.3 424.3,87.5 424.5,87.6 C424.7,87.7 424.9,87.7 425.1,87.7 C425.3,87.7 425.6,87.5 425.8,87.3 C426,87.2 426.1,87 426.3,86.8 L425.7,86.2 L425.4,86.5 C425.3,86.6 425.2,86.6 425.1,86.7 L424.9,86.7 C424.8,86.7 424.7,86.5 424.5,86.3 L422.4,83.7 L423.2,83.1 L422.7,82.5 L421.9,83.1 L420.6,81.6 L420.2,82.7 L421.1,83.8 L420.5,84 L420.5,84 Z M413.1,97.3 L414,96.6 L413.7,93.9 L414.2,94.1 L416.2,94.7 L417.1,94 L413.6,93 L413.4,89.7 L412.5,90.4 L412.6,92.1 C412.6,92.3 412.6,92.6 412.7,92.9 C412.5,92.8 412.3,92.7 412,92.7 L410.5,92.2 L409.6,93 L412.8,93.9 L413.1,97.3 L413.1,97.3 Z M417.9,93.5 L418.7,92.9 L415.1,88.5 L414.3,89.1 L417.9,93.5 L417.9,93.5 Z M414.4,87.6 L413.7,86.7 L412.9,87.3 L413.6,88.2 L414.4,87.6 L414.4,87.6 Z M415.8,87.8 L416.3,88.4 L416.9,88 L419,90.6 C419.4,91.1 419.6,91.3 419.8,91.4 C420,91.5 420.2,91.5 420.4,91.5 C420.6,91.5 420.9,91.3 421.1,91.1 C421.3,91 421.4,90.8 421.6,90.6 L421,90 L420.7,90.3 C420.6,90.4 420.5,90.4 420.4,90.5 L420.2,90.5 C420.1,90.5 420,90.3 419.8,90.1 L417.7,87.5 L418.5,86.9 L418,86.3 L417.2,86.9 L415.9,85.4 L415.5,86.5 L416.4,87.6 L415.8,87.8 L415.8,87.8 Z M406.7,117.2 C406.8,117.6 406.9,118 406.8,118.3 C406.7,118.6 406.5,118.9 406.3,119.1 C405.9,119.4 405.5,119.5 405.1,119.5 C404.6,119.4 404.2,119.2 403.8,118.7 L407.1,116 C407,115.9 407,115.8 406.9,115.8 C406.3,115.1 405.7,114.7 405,114.6 C404.3,114.5 403.6,114.7 403.1,115.2 C402.5,115.7 402.2,116.3 402.1,117 C402,117.7 402.3,118.5 402.9,119.2 C403.5,119.9 404.1,120.3 404.8,120.4 C405.5,120.5 406.2,120.3 406.8,119.7 C407.3,119.3 407.6,118.8 407.8,118.3 C407.9,117.8 407.9,117.2 407.6,116.7 L406.7,117.2 L406.7,117.2 Z M403.2,117.9 C402.9,117.5 402.8,117.1 402.8,116.7 C402.8,116.3 403,115.9 403.4,115.6 C403.8,115.3 404.2,115.2 404.7,115.3 C405,115.4 405.3,115.6 405.7,115.9 L403.2,117.9 L403.2,117.9 Z M429.5,98.7 C429.6,99.1 429.7,99.5 429.6,99.8 C429.5,100.1 429.3,100.4 429.1,100.6 C428.7,100.9 428.3,101 427.9,101 C427.4,100.9 427,100.7 426.6,100.2 L429.9,97.5 C429.8,97.4 429.8,97.3 429.7,97.3 C429.1,96.6 428.5,96.2 427.8,96.1 C427.1,96 426.4,96.2 425.9,96.7 C425.3,97.2 425,97.8 424.9,98.5 C424.8,99.2 425.1,100 425.7,100.7 C426.3,101.4 426.9,101.8 427.6,101.9 C428.3,102 429,101.8 429.6,101.2 C430.1,100.8 430.4,100.3 430.6,99.8 C430.7,99.3 430.7,98.7 430.4,98.2 L429.5,98.7 L429.5,98.7 Z M426,99.5 C425.7,99.1 425.6,98.7 425.6,98.3 C425.6,97.9 425.8,97.5 426.2,97.2 C426.6,96.9 427,96.8 427.5,96.9 C427.8,97 428.1,97.2 428.5,97.5 L426,99.5 L426,99.5 Z M447.5,84.1 C447.6,84.5 447.7,84.9 447.6,85.2 C447.5,85.5 447.3,85.8 447.1,86 C446.7,86.3 446.3,86.4 445.9,86.4 C445.4,86.3 445,86.1 444.6,85.6 L447.9,82.9 C447.8,82.8 447.8,82.7 447.7,82.7 C447.1,82 446.5,81.6 445.8,81.5 C445.1,81.4 444.4,81.6 443.9,82.1 C443.3,82.6 443,83.2 442.9,83.9 C442.8,84.6 443.1,85.4 443.7,86.1 C444.3,86.8 444.9,87.2 445.6,87.3 C446.3,87.4 447,87.2 447.6,86.6 C448.1,86.2 448.4,85.7 448.6,85.2 C448.7,84.7 448.7,84.1 448.4,83.6 L447.5,84.1 L447.5,84.1 Z M444.1,84.8 C443.8,84.4 443.7,84 443.7,83.6 C443.7,83.2 443.9,82.8 444.3,82.5 C444.7,82.2 445.1,82.1 445.6,82.2 C445.9,82.3 446.2,82.5 446.6,82.8 L444.1,84.8 L444.1,84.8 Z M441.1,86.4 C441,86.2 441,86 441,85.8 C441.1,85.6 441.2,85.4 441.3,85.3 C441.5,85.2 441.7,85.1 442,85 L441.7,84.1 C441.3,84.2 441,84.3 440.7,84.5 C440.5,84.6 440.4,84.8 440.3,85 C440.2,85.2 440.2,85.6 440.3,86 L439.8,85.3 L439.1,85.8 L442.7,90.2 L443.5,89.6 L441.6,87.3 C441.4,87 441.2,86.7 441.1,86.4 L441.1,86.4 L441.1,86.4 Z M452.3,80.2 C452.4,80.6 452.5,81 452.4,81.3 C452.3,81.6 452.1,81.9 451.9,82.1 C451.5,82.4 451.1,82.5 450.7,82.5 C450.3,82.5 449.8,82.2 449.4,81.7 L452.7,79 C452.6,78.9 452.6,78.8 452.5,78.8 C451.9,78.1 451.3,77.7 450.6,77.6 C449.9,77.5 449.3,77.7 448.7,78.2 C448.1,78.7 447.8,79.3 447.7,80 C447.6,80.7 447.9,81.5 448.5,82.2 C449.1,82.9 449.7,83.3 450.4,83.4 C451.1,83.5 451.8,83.3 452.4,82.7 C452.9,82.3 453.2,81.8 453.4,81.3 C453.5,80.8 453.5,80.2 453.2,79.7 L452.3,80.2 L452.3,80.2 Z M448.8,81 C448.5,80.6 448.4,80.2 448.4,79.8 C448.4,79.4 448.6,79 449,78.7 C449.4,78.4 449.8,78.3 450.3,78.4 C450.6,78.5 450.9,78.7 451.3,79 L448.8,81 L448.8,81 Z M410.8,108.9 L412.1,112.1 L412.5,113.2 L411.6,112.5 L408.9,110.5 L408.1,111.1 L409.5,114.3 C409.8,115 410,115.3 410,115.4 L409,114.7 L406.2,112.7 L405.4,113.3 L410.3,116.6 L411.1,116 L409.2,111.9 L410,112.5 L412.9,114.6 L413.7,114 L411.5,108.4 L410.8,108.9 L410.8,108.9 Z M441.2,90.5 C441.1,90.6 441,90.6 440.9,90.7 L440.7,90.7 C440.6,90.7 440.5,90.5 440.3,90.3 L438.2,87.7 L439,87.1 L438.5,86.5 L437.7,87.1 L436.4,85.6 L436,86.7 L436.9,87.8 L436.3,88.2 L436.8,88.8 L437.4,88.4 L439.5,91 C439.9,91.5 440.1,91.7 440.3,91.8 C440.5,91.9 440.7,91.9 440.9,91.9 C441.1,91.9 441.4,91.7 441.6,91.5 C441.8,91.4 441.9,91.2 442.1,91 L441.5,90.4 C441.4,90.3 441.3,90.4 441.2,90.5 L441.2,90.5 L441.2,90.5 Z M456.2,78.2 L455.9,78.5 C455.8,78.6 455.7,78.6 455.6,78.7 L455.4,78.7 C455.3,78.7 455.2,78.5 455,78.3 L452.9,75.7 L453.7,75.1 L453.2,74.5 L452.4,75.1 L451.1,73.6 L450.7,74.7 L451.6,75.8 L451,76.2 L451.5,76.8 L452.1,76.4 L454.2,78.9 C454.6,79.4 454.8,79.6 455,79.7 C455.2,79.8 455.4,79.8 455.6,79.8 C455.8,79.8 456.1,79.6 456.3,79.4 C456.5,79.3 456.6,79.1 456.8,78.9 L456.2,78.2 L456.2,78.2 Z M437.1,90.6 C436.7,90.5 436.3,90.5 435.8,90.6 C435.5,90.7 434.9,90.9 434.1,91.3 C433.3,91.7 432.8,91.9 432.5,91.9 C432.2,91.9 432,91.8 431.8,91.6 C431.6,91.3 431.5,91 431.6,90.7 C431.7,90.3 432,90 432.5,89.6 C433,89.2 433.4,89 433.8,89 C434.2,89 434.6,89.2 434.9,89.5 L435.6,88.8 C435.3,88.5 434.9,88.2 434.5,88.1 C434.1,88 433.6,88 433.2,88.1 C432.7,88.2 432.3,88.5 431.8,88.9 C431.4,89.2 431.1,89.6 430.8,90 C430.6,90.4 430.5,90.8 430.5,91.2 C430.5,91.6 430.7,92 430.9,92.3 C431.1,92.6 431.4,92.8 431.7,92.9 C432,93 432.4,93 432.8,92.9 C433.1,92.8 433.6,92.6 434.3,92.3 C435,92 435.4,91.8 435.6,91.7 C435.9,91.6 436.2,91.6 436.4,91.6 C436.6,91.7 436.8,91.8 437,92 C437.2,92.2 437.2,92.4 437.3,92.7 C437.3,93 437.2,93.2 437.1,93.5 C436.9,93.8 436.7,94.1 436.4,94.3 C436.1,94.6 435.7,94.8 435.3,94.9 C434.9,95 434.6,95 434.3,94.9 C434,94.8 433.7,94.6 433.4,94.4 L433,95 C433.3,95.4 433.8,95.7 434.2,95.8 C434.7,96 435.2,96 435.7,95.8 C436.2,95.7 436.7,95.4 437.3,94.9 C437.7,94.5 438.1,94.1 438.3,93.7 C438.5,93.3 438.6,92.8 438.6,92.4 C438.6,92 438.4,91.6 438.1,91.3 C437.7,90.9 437.4,90.7 437.1,90.6 L437.1,90.6 L437.1,90.6 Z M418.8,108.7 L415.7,104.9 L415,105.5 L415.4,106 C414.7,105.9 414.1,106 413.6,106.4 C413.2,106.7 412.9,107.1 412.8,107.5 C412.7,107.9 412.7,108.4 412.8,108.9 C412.9,109.4 413.2,109.8 413.5,110.3 C414,110.9 414.6,111.3 415.3,111.5 C416,111.7 416.6,111.5 417.2,111 C417.7,110.6 417.9,110.1 418,109.4 C418.4,109.9 418.6,110.2 418.7,110.4 C418.8,110.7 418.9,111 418.8,111.3 C418.7,111.6 418.5,111.9 418.2,112.2 C417.9,112.5 417.6,112.6 417.3,112.6 C417.1,112.6 416.9,112.5 416.6,112.3 L415.8,112.8 C416.2,113.3 416.6,113.5 417.1,113.5 C417.6,113.5 418.1,113.2 418.7,112.8 C419.1,112.4 419.5,112.1 419.6,111.6 C419.8,111.2 419.8,110.8 419.7,110.4 C419.7,109.9 419.4,109.3 418.8,108.7 L418.8,108.7 L418.8,108.7 Z M416.9,110.2 C416.6,110.5 416.2,110.6 415.7,110.5 C415.3,110.4 414.8,110.1 414.3,109.5 C413.9,109 413.7,108.5 413.7,108 C413.7,107.5 413.9,107.2 414.2,106.9 C414.5,106.6 414.9,106.5 415.4,106.6 C415.9,106.7 416.3,107 416.8,107.5 C417.3,108.1 417.5,108.6 417.5,109 C417.4,109.5 417.2,109.9 416.9,110.2 L416.9,110.2 L416.9,110.2 Z M422.5,103.6 L421.7,102.6 C421.4,102.3 421.2,102 421.1,101.9 C420.9,101.7 420.7,101.6 420.5,101.6 C420.3,101.6 420,101.6 419.7,101.7 C419.4,101.8 419,102 418.7,102.3 C418.3,102.6 418,102.9 417.8,103.3 C417.6,103.6 417.5,104 417.5,104.3 C417.5,104.6 417.6,105 417.8,105.3 L418.6,104.8 C418.4,104.4 418.4,104.1 418.4,103.8 C418.5,103.5 418.7,103.3 419,103 C419.4,102.7 419.7,102.5 420.1,102.6 C420.3,102.6 420.6,102.8 420.8,103.1 L421,103.3 C420.8,103.6 420.4,104.1 419.9,104.6 C419.6,104.9 419.4,105.1 419.3,105.3 C419.1,105.5 419,105.7 419,106 C419,106.3 418.9,106.5 419,106.7 C419,107 419.2,107.2 419.3,107.4 C419.6,107.8 420,108 420.4,108 C420.8,108 421.3,107.8 421.8,107.4 C422.1,107.2 422.3,106.9 422.5,106.6 C422.7,106.3 422.8,105.9 422.9,105.4 C423.1,105.6 423.3,105.7 423.5,105.8 L424.3,105.2 C424.1,105.1 423.9,105 423.7,104.8 C423.5,104.7 423.1,104.3 422.5,103.6 L422.5,103.6 L422.5,103.6 Z M422.1,105.9 C422,106.2 421.8,106.5 421.5,106.7 C421.2,106.9 420.9,107 420.7,107 C420.4,107 420.2,106.9 420.1,106.7 C420,106.6 419.9,106.4 419.9,106.3 C419.9,106.1 419.9,106 420,105.8 C420.1,105.6 420.3,105.4 420.5,105.1 C421,104.6 421.3,104.2 421.5,103.8 L421.7,104.1 C422,104.4 422.1,104.7 422.2,104.9 C422.3,105.3 422.2,105.6 422.1,105.9 L422.1,105.9 L422.1,105.9 Z M426,102.8 C425.9,102.9 425.8,102.9 425.7,103 L425.5,103 C425.4,103 425.3,102.8 425.1,102.6 L423,100 L423.8,99.4 L423.3,98.8 L422.5,99.4 L421.2,97.9 L420.8,99 L421.7,100.1 L421.1,100.5 L421.6,101.1 L422.2,100.7 L424.3,103.3 C424.7,103.8 424.9,104 425.1,104.1 C425.3,104.2 425.5,104.2 425.7,104.2 C425.9,104.2 426.2,104 426.4,103.8 C426.6,103.7 426.7,103.5 426.9,103.3 L426.3,102.7 C426.2,102.6 426.1,102.7 426,102.8 L426,102.8 L426,102.8 Z M426,102.8" class="Shape"/>
                    <path d="M300.4,44.2 C300.6,44.8 300.7,45.4 300.5,45.9 C300.3,46.4 300,46.8 299.5,47.1 C299.1,47.4 298.7,47.5 298.2,47.5 C297.7,47.5 297.3,47.4 296.8,47.1 C296.4,46.8 296,46.3 295.6,45.8 C295.3,45.4 295.1,44.9 295,44.4 C294.9,43.9 294.9,43.4 295.1,43 C295.3,42.5 295.6,42.1 296.1,41.8 C296.5,41.5 297,41.4 297.4,41.4 C297.8,41.4 298.3,41.6 298.7,42 L299.4,41.2 C298.8,40.7 298.2,40.4 297.5,40.4 C296.8,40.4 296.2,40.5 295.5,41 C294.9,41.4 294.5,41.9 294.2,42.4 C293.9,43 293.8,43.6 293.8,44.3 C293.9,45 294.1,45.7 294.6,46.4 C295,47 295.5,47.5 296.1,47.9 C296.7,48.3 297.3,48.5 297.9,48.5 C298.5,48.5 299.2,48.3 299.9,47.8 C300.6,47.4 301,46.8 301.3,46.1 C301.5,45.4 301.5,44.7 301.2,43.8 L300.4,44.2 L300.4,44.2 Z M299.4,38.7 L303.7,45.3 L304.5,44.8 L300.2,38.2 L299.4,38.7 L299.4,38.7 Z M308.4,39.5 L307.7,38.4 C307.5,38 307.3,37.8 307.2,37.7 C307,37.5 306.8,37.4 306.6,37.3 C306.4,37.2 306.1,37.2 305.8,37.3 C305.5,37.4 305.1,37.5 304.7,37.8 C304.3,38.1 304,38.4 303.7,38.7 C303.5,39 303.3,39.3 303.3,39.6 C303.3,39.9 303.3,40.3 303.5,40.7 L304.4,40.3 C304.3,39.9 304.2,39.6 304.3,39.3 C304.4,39 304.6,38.8 305,38.6 C305.4,38.3 305.8,38.2 306.1,38.3 C306.3,38.3 306.6,38.5 306.8,38.8 C306.8,38.8 306.9,38.9 306.9,39 C306.7,39.3 306.2,39.7 305.6,40.2 C305.3,40.4 305.1,40.6 305,40.8 C304.8,41 304.7,41.2 304.6,41.4 C304.5,41.6 304.5,41.9 304.5,42.1 C304.5,42.4 304.6,42.6 304.8,42.8 C305.1,43.2 305.4,43.4 305.9,43.5 C306.3,43.6 306.8,43.4 307.4,43.1 C307.7,42.9 308,42.6 308.2,42.4 C308.4,42.1 308.6,41.7 308.7,41.3 L309.2,41.8 L310,41.2 C309.8,41.1 309.6,40.9 309.4,40.8 C309.2,40.7 308.8,40.2 308.4,39.5 L308.4,39.5 L308.4,39.5 Z M307.7,41.7 C307.5,42 307.3,42.2 307,42.4 C306.7,42.6 306.4,42.7 306.1,42.6 C305.8,42.6 305.6,42.4 305.5,42.2 C305.4,42.1 305.4,41.9 305.4,41.7 C305.4,41.5 305.4,41.4 305.5,41.2 C305.6,41 305.8,40.8 306.1,40.6 C306.6,40.1 307,39.7 307.2,39.4 L307.4,39.7 C307.6,40.1 307.8,40.4 307.8,40.6 C307.9,41.1 307.9,41.4 307.7,41.7 L307.7,41.7 L307.7,41.7 Z M315.6,15.1 L316,15.7 L316.6,15.3 L318.4,18.1 C318.7,18.6 319,18.9 319.1,19 C319.3,19.1 319.5,19.2 319.7,19.1 C319.9,19.1 320.2,19 320.5,18.8 C320.7,18.7 320.9,18.5 321.1,18.3 L320.5,17.7 L320.2,18 C320.1,18.1 320,18.1 319.9,18.1 C319.8,18.1 319.7,18.1 319.7,18 C319.6,18 319.5,17.8 319.4,17.6 L317.6,14.8 L318.4,14.3 L318,13.7 L317.2,14.2 L316.1,12.5 L315.6,13.5 L316.4,14.7 L315.6,15.1 L315.6,15.1 Z M320.7,11.8 L321.1,12.4 L321.7,12 L323.5,14.8 C323.8,15.3 324.1,15.6 324.2,15.7 C324.4,15.8 324.6,15.9 324.8,15.8 C325,15.8 325.3,15.7 325.6,15.5 C325.8,15.4 326,15.2 326.2,15 L325.6,14.4 L325.3,14.7 C325.2,14.8 325.1,14.8 325,14.8 C324.9,14.8 324.8,14.8 324.8,14.7 C324.7,14.7 324.6,14.5 324.5,14.3 L322.7,11.5 L323.5,11 L323.1,10.4 L322.3,10.9 L321,9.2 L320.5,10.2 L321.3,11.4 L320.7,11.8 L320.7,11.8 Z M317.1,20.9 L317.9,20.4 L314.8,15.6 L314,16.1 L317.1,20.9 L317.1,20.9 Z M314.2,14.7 L313.6,13.8 L312.8,14.3 L313.4,15.2 L314.2,14.7 L314.2,14.7 Z M311.9,24.3 L312.9,23.7 L312.9,21 L313.4,21.2 L315.3,22 L316.3,21.4 L313,20 L313.2,16.7 L312.2,17.3 L312.1,19 L312.1,19.8 C311.9,19.7 311.7,19.6 311.4,19.5 L309.9,18.9 L308.9,19.6 L312,20.8 L311.9,24.3 L311.9,24.3 Z M311.3,24.6 L310.8,23.8 L306.7,26.4 L305.2,24.2 L308.9,21.8 L308.4,21 L304.7,23.4 L303.4,21.4 L307.3,18.9 L306.8,18.1 L302,21.2 L306.3,27.8 L311.3,24.6 L311.3,24.6 Z M329.8,12.4 C330,12 330.1,11.5 330.1,11.1 C330.1,10.6 329.8,10.1 329.4,9.5 C328.9,8.7 328.3,8.3 327.6,8.1 C326.9,7.9 326.2,8.1 325.6,8.5 C325,8.9 324.6,9.4 324.4,10 C324.2,10.7 324.4,11.6 324.9,12.4 C325.4,13.2 326,13.7 326.7,13.9 C327.4,14.1 328.1,13.9 328.7,13.5 C329.2,13.2 329.5,12.8 329.8,12.4 L329.8,12.4 L329.8,12.4 Z M328.4,12.8 C328,13.1 327.6,13.1 327.1,13 C326.6,12.9 326.2,12.5 325.8,11.9 C325.4,11.3 325.2,10.7 325.3,10.3 C325.4,9.8 325.6,9.5 326,9.2 C326.4,8.9 326.8,8.9 327.3,9 C327.8,9.1 328.2,9.5 328.6,10.1 C329,10.7 329.2,11.3 329.1,11.8 C329,12.2 328.8,12.5 328.4,12.8 L328.4,12.8 L328.4,12.8 Z M311.7,33.3 L310.9,33.8 L311.7,37.3 C311.8,37.7 311.9,38.2 312.1,38.6 C311.7,38.3 311.4,38 311,37.7 L308.2,35.6 L307.3,36.2 L312.2,39.8 C312.2,39.9 312.2,40 312.3,40 C312.4,40.4 312.4,40.7 312.4,40.8 C312.4,41 312.4,41.1 312.3,41.2 C312.2,41.3 312.1,41.5 311.9,41.6 C311.8,41.7 311.6,41.8 311.4,41.8 L312,42.5 C312.2,42.4 312.4,42.4 312.6,42.3 C312.9,42.1 313,41.9 313.1,41.7 C313.2,41.5 313.2,41.2 313.2,40.8 C313.2,40.5 313.1,40.1 313,39.4 L311.7,33.3 L311.7,33.3 Z M338.3,17.9 C338.2,17.7 338.2,17.5 338.3,17.3 C338.4,17.1 338.5,16.9 338.7,16.8 C338.9,16.7 339.1,16.6 339.4,16.6 L339.2,15.7 C338.8,15.7 338.5,15.8 338.2,16 C338,16.1 337.9,16.3 337.8,16.5 C337.7,16.7 337.7,17 337.7,17.5 L337.2,16.8 L336.5,17.3 L339.6,22.1 L340.4,21.6 L338.8,19.1 C338.6,18.6 338.4,18.3 338.3,17.9 L338.3,17.9 L338.3,17.9 Z M338,22.1 C337.9,22.2 337.8,22.2 337.7,22.2 C337.6,22.2 337.5,22.2 337.5,22.1 C337.4,22.1 337.3,21.9 337.2,21.7 L335.4,18.9 L336.2,18.4 L335.8,17.8 L335,18.3 L333.9,16.6 L333.4,17.6 L334.2,18.8 L333.6,19.2 L334,19.8 L334.6,19.4 L336.4,22.2 C336.7,22.7 337,23 337.1,23.1 C337.3,23.2 337.5,23.3 337.7,23.2 C337.9,23.2 338.2,23.1 338.5,22.9 C338.7,22.8 338.9,22.6 339.1,22.4 L338.5,21.8 C338.2,21.9 338.1,22 338,22.1 L338,22.1 L338,22.1 Z M354.3,11.5 L354,11.8 C353.9,11.9 353.8,11.9 353.7,11.9 C353.6,11.9 353.5,11.9 353.5,11.8 C353.4,11.8 353.3,11.6 353.2,11.4 L351.4,8.6 L352,8 L351.6,7.4 L350.8,7.9 L349.7,6.2 L349.2,7.2 L350,8.4 L349.4,8.8 L349.8,9.4 L350.4,9 L352.2,11.8 C352.5,12.3 352.8,12.6 352.9,12.7 C353.1,12.8 353.3,12.9 353.5,12.8 C353.7,12.8 354,12.7 354.3,12.5 C354.5,12.4 354.7,12.2 354.9,12 L354.3,11.5 L354.3,11.5 Z M350.1,13 C350.2,13.4 350.2,13.8 350.1,14.1 C350,14.4 349.8,14.6 349.5,14.8 C349.1,15.1 348.7,15.1 348.2,15 C347.8,14.9 347.3,14.6 347,14.1 L350.6,11.8 C350.5,11.7 350.5,11.6 350.5,11.6 C350,10.8 349.4,10.3 348.7,10.2 C348,10 347.3,10.1 346.7,10.6 C346,11 345.6,11.6 345.5,12.3 C345.4,13 345.6,13.8 346.1,14.6 C346.6,15.4 347.2,15.8 347.9,16 C348.6,16.2 349.3,16 350,15.6 C350.6,15.2 350.9,14.8 351.1,14.3 C351.3,13.8 351.3,13.3 351.1,12.7 L350.1,13 L350.1,13 Z M346.4,12.2 C346.5,11.8 346.7,11.5 347.1,11.2 C347.5,10.9 347.9,10.9 348.4,11 C348.7,11.1 349,11.3 349.3,11.7 L346.6,13.4 C346.4,13 346.3,12.6 346.4,12.2 L346.4,12.2 L346.4,12.2 Z M345,16.3 C345.1,16.7 345.1,17.1 345,17.4 C344.9,17.7 344.7,17.9 344.4,18.1 C344,18.4 343.6,18.4 343.1,18.3 C342.7,18.2 342.2,17.9 341.9,17.4 L345.5,15.1 C345.4,15 345.4,14.9 345.4,14.9 C344.9,14.1 344.3,13.6 343.6,13.5 C342.9,13.3 342.2,13.4 341.6,13.9 C340.9,14.3 340.5,14.9 340.4,15.6 C340.3,16.3 340.5,17.1 341,17.9 C341.5,18.7 342.1,19.1 342.8,19.3 C343.5,19.5 344.2,19.3 344.9,18.9 C345.5,18.5 345.8,18.1 346,17.6 C346.2,17.1 346.2,16.6 346,16 L345,16.3 L345,16.3 Z M341.2,15.5 C341.3,15.1 341.5,14.8 341.9,14.5 C342.3,14.2 342.7,14.2 343.2,14.3 C343.5,14.4 343.8,14.6 344.1,15 L341.4,16.7 C341.2,16.3 341.1,15.9 341.2,15.5 L341.2,15.5 L341.2,15.5 Z M316.5,36 C316.4,36.1 316.3,36.1 316.2,36.1 C316.1,36.1 316,36.1 316,36 C315.9,36 315.8,35.8 315.7,35.6 L313.9,32.8 L314.7,32.3 L314.3,31.7 L313.5,32.2 L312.4,30.5 L311.9,31.5 L312.7,32.7 L312.1,33.1 L312.5,33.7 L313.1,33.3 L314.9,36.1 C315.2,36.6 315.5,36.9 315.6,37 C315.8,37.1 316,37.2 316.2,37.1 C316.4,37.1 316.7,37 317,36.8 C317.2,36.7 317.4,36.5 317.6,36.3 L317,35.7 C316.7,35.9 316.6,36 316.5,36 L316.5,36 L316.5,36 Z M318.9,29.4 C318.2,29.2 317.5,29.4 316.9,29.8 C316.3,30.2 315.9,30.7 315.7,31.3 C315.5,32 315.7,32.9 316.2,33.7 C316.7,34.5 317.3,35 318,35.2 C318.7,35.4 319.4,35.2 320,34.8 C320.4,34.5 320.7,34.2 321,33.8 C321.3,33.4 321.3,32.9 321.3,32.5 C321.3,32 321,31.5 320.6,30.9 C320.2,30.1 319.6,29.6 318.9,29.4 L318.9,29.4 L318.9,29.4 Z M320.4,33.1 C320.3,33.6 320.1,34 319.7,34.2 C319.3,34.5 318.9,34.5 318.4,34.4 C317.9,34.3 317.5,33.9 317.1,33.3 C316.7,32.7 316.5,32.1 316.6,31.7 C316.7,31.3 316.9,30.9 317.3,30.6 C317.7,30.3 318.1,30.3 318.6,30.4 C319.1,30.5 319.5,30.9 319.9,31.5 C320.3,32 320.4,32.6 320.4,33.1 L320.4,33.1 L320.4,33.1 Z M333.9,21.8 C333.5,21.6 333.1,21.6 332.6,21.7 C332.3,21.8 331.7,21.9 330.9,22.2 C330.1,22.5 329.5,22.6 329.3,22.6 C329,22.6 328.8,22.4 328.7,22.2 C328.5,21.9 328.5,21.6 328.6,21.3 C328.7,20.9 329,20.6 329.6,20.3 C330.1,20 330.6,19.8 331,19.9 C331.4,20 331.8,20.2 332.1,20.5 L332.9,19.9 C332.6,19.5 332.3,19.2 331.9,19.1 C331.5,18.9 331.1,18.9 330.6,19 C330.1,19.1 329.6,19.3 329.2,19.6 C328.8,19.9 328.4,20.2 328.1,20.6 C327.8,21 327.7,21.4 327.7,21.8 C327.7,22.2 327.8,22.6 328,22.9 C328.2,23.2 328.5,23.4 328.8,23.6 C329.1,23.7 329.5,23.8 329.9,23.8 C330.2,23.8 330.7,23.6 331.4,23.4 C332.1,23.2 332.6,23 332.8,23 C333.1,22.9 333.4,22.9 333.6,23 C333.8,23.1 334,23.2 334.1,23.4 C334.2,23.6 334.3,23.8 334.3,24.1 C334.3,24.4 334.2,24.6 334,24.9 C333.8,25.2 333.5,25.4 333.2,25.6 C332.8,25.8 332.4,26 332.1,26.1 C331.7,26.2 331.4,26.1 331.1,26 C330.8,25.9 330.6,25.7 330.3,25.4 L329.5,26 C329.8,26.4 330.2,26.8 330.6,27 C331.1,27.2 331.5,27.3 332.1,27.2 C332.6,27.1 333.2,26.9 333.8,26.5 C334.3,26.2 334.6,25.8 334.9,25.4 C335.2,25 335.3,24.6 335.3,24.1 C335.3,23.7 335.2,23.3 335,22.9 C334.5,22.2 334.2,21.9 333.9,21.8 L333.9,21.8 L333.9,21.8 Z M324.6,26.4 C324.4,26.2 324.2,26.1 324,26 C323.8,25.9 323.5,25.9 323.2,25.9 C322.9,26 322.6,26.1 322.3,26.3 C321.6,26.7 321.3,27.3 321.3,28.1 L320.9,27.4 L320.2,27.9 L323.3,32.7 L324.1,32.2 L322.4,29.6 C322,29 321.9,28.5 322,28.1 C322.1,27.7 322.3,27.4 322.7,27.2 C322.9,27.1 323.1,27 323.4,27 C323.6,27 323.8,27.1 324,27.2 C324.2,27.3 324.4,27.5 324.6,27.9 L326.5,30.8 L327.3,30.3 L325.4,27.4 C325,26.8 324.8,26.6 324.6,26.4 L324.6,26.4 L324.6,26.4 Z M324.6,26.4" class="Shape"/>
                    <path d="M237.9,34.6 L233.2,33.3 L233.9,30.7 L238.1,31.8 L238.3,30.9 L234.1,29.8 L234.7,27.5 L239.2,28.7 L239.4,27.8 L233.9,26.3 L231.9,33.9 L237.6,35.4 L237.9,34.6 L237.9,34.6 Z M224.6,43.2 L224.9,42 C225,41.6 225.1,41.3 225.1,41.1 C225.1,40.8 225.1,40.6 225,40.4 C224.9,40.2 224.7,40 224.5,39.8 C224.2,39.6 223.9,39.5 223.4,39.3 C222.9,39.2 222.5,39.1 222.1,39.2 C221.7,39.2 221.4,39.3 221.1,39.5 C220.8,39.7 220.6,40 220.4,40.3 L221.3,40.7 C221.5,40.3 221.7,40.1 222,40 C222.2,39.9 222.6,39.9 223,40 C223.5,40.1 223.8,40.3 224,40.6 C224.1,40.8 224.2,41.1 224,41.5 C224,41.5 224,41.6 223.9,41.7 C223.5,41.7 222.9,41.7 222.1,41.6 C221.7,41.5 221.4,41.5 221.2,41.5 C220.9,41.5 220.7,41.5 220.4,41.6 C220.2,41.7 220,41.8 219.8,42 C219.6,42.2 219.5,42.4 219.4,42.7 C219.3,43.2 219.3,43.6 219.6,44 C219.9,44.4 220.3,44.7 220.9,44.8 C221.3,44.9 221.6,44.9 222,44.9 C222.4,44.9 222.7,44.7 223.2,44.5 L223.2,45.2 L224.2,45.5 C224.1,45.3 224.1,45 224.1,44.8 C224.2,44.6 224.4,44.1 224.6,43.2 L224.6,43.2 L224.6,43.2 Z M223.7,42.8 C223.6,43.2 223.5,43.5 223.3,43.7 C223.1,43.9 222.8,44.1 222.5,44.2 C222.2,44.3 221.8,44.3 221.5,44.2 C221.1,44.1 220.9,43.9 220.7,43.7 C220.6,43.5 220.5,43.2 220.6,43 C220.6,42.8 220.7,42.7 220.8,42.6 C220.9,42.5 221.1,42.4 221.2,42.4 L222.1,42.4 C222.8,42.5 223.3,42.5 223.7,42.5 L223.7,42.8 L223.7,42.8 Z M230.5,41.4 L228.5,44.3 C228.2,44.7 228,45.1 227.8,45.5 C227.8,45 227.8,44.6 227.7,44.1 L227.4,40.6 L226.4,40.3 L227,46.4 C226.9,46.5 226.9,46.6 226.9,46.6 C226.7,46.9 226.5,47.1 226.4,47.2 C226.3,47.3 226.2,47.4 226,47.4 L225.5,47.4 C225.3,47.4 225.2,47.3 225,47.2 L224.9,48.1 L225.5,48.4 C225.8,48.5 226.1,48.5 226.3,48.4 C226.6,48.3 226.8,48.1 227.1,47.9 C227.3,47.7 227.6,47.3 228,46.8 L231.6,41.8 L230.5,41.4 L230.5,41.4 Z M237.4,43.1 C236.7,42.9 236.1,43 235.5,43.2 C234.8,43.5 234.3,44.2 234,45.2 C233.8,46.1 233.8,46.9 234.1,47.5 C234.4,48.1 235,48.5 235.8,48.7 C236.3,48.8 236.8,48.8 237.2,48.7 C237.7,48.6 238.1,48.4 238.4,48 C238.7,47.6 239,47.1 239.2,46.4 C239.4,45.5 239.4,44.8 239,44.1 C238.7,43.7 238.2,43.3 237.4,43.1 L237.4,43.1 L237.4,43.1 Z M238.3,46.4 C238.1,47.1 237.8,47.6 237.4,47.9 C237,48.2 236.6,48.2 236.1,48.1 C235.6,48 235.3,47.7 235.1,47.3 C234.9,46.9 234.9,46.3 235.1,45.6 C235.3,44.9 235.6,44.4 236,44.1 C236.4,43.8 236.8,43.8 237.3,43.9 C237.8,44 238.1,44.3 238.3,44.7 C238.5,45.1 238.5,45.7 238.3,46.4 L238.3,46.4 L238.3,46.4 Z M233.1,42.8 L234,43.1 L234.2,42.4 L233.3,42.1 L233.8,40.2 L232.7,40.5 L232.3,41.9 L231.6,41.7 L231.4,42.4 L232.1,42.6 L231.3,45.8 C231.1,46.4 231.1,46.7 231.1,46.9 C231.1,47.1 231.2,47.3 231.4,47.4 C231.6,47.6 231.8,47.7 232.1,47.8 C232.3,47.9 232.5,47.9 232.8,47.9 L233,47 C232.8,47 232.7,47 232.6,46.9 C232.5,46.9 232.4,46.8 232.3,46.7 C232.2,46.6 232.2,46.6 232.2,46.5 C232.2,46.4 232.2,46.2 232.3,46 L233.1,42.8 L233.1,42.8 Z M219.2,36.1 L217.2,43.7 L218.1,44 L220.1,36.4 L219.2,36.1 L219.2,36.1 Z M214.6,41.7 C214.1,41.9 213.6,42 213,41.8 C212.5,41.7 212.1,41.4 211.8,41.1 C211.5,40.8 211.3,40.3 211.2,39.8 C211.1,39.3 211.2,38.7 211.4,38 C211.5,37.5 211.7,37 212,36.6 C212.3,36.2 212.7,35.9 213.1,35.7 C213.6,35.5 214.1,35.5 214.7,35.7 C215.2,35.8 215.6,36.1 215.9,36.4 C216.2,36.7 216.3,37.2 216.3,37.8 L217.4,37.8 C217.4,37 217.2,36.4 216.8,35.9 C216.4,35.4 215.8,35 215,34.8 C214.3,34.6 213.7,34.6 213,34.8 C212.4,35 211.8,35.3 211.3,35.8 C210.8,36.3 210.5,37 210.3,37.8 C210.1,38.5 210.1,39.2 210.2,39.9 C210.3,40.6 210.6,41.2 211,41.7 C211.4,42.2 212,42.5 212.9,42.7 C213.7,42.9 214.4,42.9 215.1,42.6 C215.8,42.3 216.3,41.8 216.7,41 L215.8,40.5 C215.4,41.1 215,41.5 214.6,41.7 L214.6,41.7 L214.6,41.7 Z M253.2,39.6 C253.4,39.8 253.6,39.9 253.9,40 C254.1,40.1 254.3,40.1 254.6,40.1 L254.7,39.2 C254.5,39.2 254.4,39.2 254.3,39.1 C254.2,39.1 254.1,39 254,38.9 C253.9,38.8 253.9,38.8 253.9,38.7 C253.9,38.6 253.9,38.4 254,38.2 L254.9,35 L255.8,35.3 L256,34.6 L255.1,34.3 L255.6,32.4 L254.5,32.7 L254.1,34.1 L253.4,33.9 L253.2,34.6 L253.9,34.8 L253.1,38 C253,38.6 252.9,38.9 252.9,39.1 C252.9,39.2 253,39.4 253.2,39.6 L253.2,39.6 L253.2,39.6 Z M238.3,35.7 L239.4,36 L241.4,34.2 L241.6,34.7 L242.3,36.7 L243.4,37 L242.1,33.5 L244.7,31.4 L243.6,31.1 L242.3,32.2 C242.1,32.3 241.9,32.5 241.7,32.7 C241.6,32.5 241.6,32.3 241.5,32 L241,30.5 L239.8,30.2 L241,33.3 L238.3,35.7 L238.3,35.7 Z M276.4,53.7 L276.9,51.8 L275.8,52.1 L275.4,53.5 L274.7,53.3 L274.5,54 L275.2,54.2 L274.4,57.4 C274.3,58 274.2,58.3 274.2,58.5 C274.2,58.7 274.3,58.9 274.5,59 C274.7,59.2 274.9,59.3 275.2,59.4 C275.4,59.5 275.6,59.5 275.9,59.5 L276,58.6 C275.8,58.6 275.7,58.6 275.6,58.5 C275.5,58.5 275.4,58.4 275.3,58.3 C275.2,58.2 275.2,58.2 275.2,58.1 C275.2,58 275.2,57.8 275.3,57.6 L276.2,54.4 L277.1,54.7 L277.3,54 L276.4,53.7 L276.4,53.7 Z M257.9,49.5 L258.8,49.8 L259,49.1 L258.1,48.8 L258.6,46.9 L257.5,47.2 L257.1,48.6 L256.4,48.4 L256.2,49.1 L256.9,49.3 L256.1,52.5 C255.9,53.1 255.9,53.4 255.9,53.6 C255.9,53.8 256,54 256.2,54.1 C256.4,54.3 256.6,54.4 256.9,54.5 C257.1,54.6 257.3,54.6 257.6,54.6 L257.7,53.7 C257.5,53.7 257.4,53.7 257.3,53.6 C257.2,53.6 257.1,53.5 257,53.4 C256.9,53.3 256.9,53.3 256.9,53.2 C256.9,53.1 256.9,52.9 257,52.7 L257.9,49.5 L257.9,49.5 Z M257.6,41 C258.1,41.1 258.6,41.1 259,41 C259.5,40.9 259.9,40.7 260.2,40.3 C260.5,40 260.8,39.4 261,38.7 C261.2,37.8 261.2,37.1 260.8,36.5 C260.5,35.9 259.9,35.5 259.1,35.3 C258.4,35.1 257.8,35.2 257.2,35.4 C256.5,35.7 256,36.4 255.7,37.4 C255.5,38.3 255.5,39.1 255.8,39.7 C256.3,40.4 256.8,40.8 257.6,41 L257.6,41 L257.6,41 Z M256.8,37.7 C257,37 257.3,36.5 257.7,36.2 C258.1,35.9 258.5,35.9 259,36 C259.5,36.1 259.8,36.4 260,36.8 C260.2,37.2 260.2,37.8 260,38.5 C259.8,39.2 259.5,39.7 259.1,40 C258.7,40.3 258.3,40.3 257.8,40.2 C257.3,40.1 257,39.8 256.8,39.4 C256.6,39 256.6,38.4 256.8,37.7 L256.8,37.7 L256.8,37.7 Z M244.6,45.2 C244.4,45 244.1,44.9 243.7,44.8 C242.9,44.6 242.3,44.7 241.7,45.2 L241.9,44.4 L241.1,44.2 L239.6,49.7 L240.5,49.9 L241.3,46.9 C241.5,46.2 241.8,45.8 242.1,45.6 C242.5,45.4 242.8,45.4 243.2,45.5 C243.4,45.6 243.7,45.7 243.8,45.8 C244,46 244,46.1 244.1,46.4 C244.1,46.6 244.1,46.9 244,47.3 L243.1,50.7 L244,51 L244.9,47.6 C245,47.2 245.1,46.9 245.1,46.7 C245.1,46.4 245.1,46.2 245,45.9 C245,45.6 244.8,45.4 244.6,45.2 L244.6,45.2 L244.6,45.2 Z M265.8,50.7 C265,50.5 264.4,50.6 263.7,51 C263.1,51.4 262.7,52 262.4,53 C262.2,53.9 262.2,54.7 262.5,55.3 C262.8,55.9 263.4,56.3 264.2,56.6 C264.8,56.8 265.4,56.8 265.9,56.6 C266.4,56.4 266.8,56 267.1,55.5 L266.2,55.1 C266,55.5 265.7,55.7 265.4,55.8 C265.1,55.9 264.8,55.9 264.5,55.8 C264,55.7 263.7,55.4 263.5,55 C263.3,54.6 263.2,54.1 263.4,53.5 L267.5,54.6 C267.5,54.5 267.6,54.4 267.6,54.4 C267.8,53.5 267.8,52.7 267.5,52.1 C267.1,51.3 266.5,50.9 265.8,50.7 L265.8,50.7 L265.8,50.7 Z M266.7,53.4 L263.6,52.6 C263.8,52.1 264,51.8 264.4,51.6 C264.8,51.4 265.2,51.3 265.6,51.5 C266.1,51.6 266.4,51.9 266.6,52.3 C266.8,52.6 266.8,53 266.7,53.4 L266.7,53.4 L266.7,53.4 Z M271.7,52.3 C270.9,52.1 270.3,52.2 269.6,52.6 C269,53 268.6,53.6 268.3,54.6 C268.1,55.5 268.1,56.3 268.4,56.9 C268.7,57.5 269.3,57.9 270.1,58.2 C270.7,58.4 271.3,58.4 271.8,58.2 C272.3,58 272.7,57.6 273,57.1 L272.1,56.7 C271.9,57.1 271.6,57.3 271.3,57.4 C271,57.5 270.7,57.5 270.4,57.4 C269.9,57.3 269.6,57 269.4,56.6 C269.2,56.2 269.1,55.7 269.3,55.1 L273.4,56.2 C273.4,56.1 273.5,56 273.5,56 C273.7,55.1 273.7,54.3 273.4,53.7 C273,52.9 272.5,52.5 271.7,52.3 L271.7,52.3 L271.7,52.3 Z M272.6,55 L269.5,54.2 C269.7,53.7 269.9,53.4 270.3,53.2 C270.7,53 271.1,52.9 271.5,53.1 C272,53.2 272.3,53.5 272.5,53.9 C272.7,54.2 272.7,54.6 272.6,55 L272.6,55 L272.6,55 Z M262.9,50.2 C262.6,49.9 262.3,49.7 262,49.6 C261.8,49.5 261.6,49.6 261.4,49.6 C261.2,49.7 260.9,49.9 260.6,50.2 L260.8,49.4 L260,49.2 L258.5,54.7 L259.4,54.9 L260.2,52 C260.3,51.6 260.5,51.3 260.6,51 C260.7,50.8 260.9,50.7 261.1,50.6 C261.3,50.5 261.5,50.5 261.7,50.6 C261.9,50.7 262.1,50.8 262.3,51 L262.9,50.2 L262.9,50.2 Z M244.2,37.3 L245.1,37.5 L246.6,32 L245.7,31.8 L244.2,37.3 L244.2,37.3 Z M254.7,45.7 C254.3,45.4 253.8,45.2 253.3,45 C252.8,44.9 252.3,44.8 251.8,44.9 C251.3,45 250.9,45.1 250.6,45.4 C250.3,45.7 250.1,46 250,46.4 C249.9,46.7 249.9,47.1 250,47.4 C250.1,47.7 250.3,48 250.6,48.3 C250.8,48.5 251.3,48.8 251.9,49.2 C252.6,49.6 253,49.8 253.2,49.9 C253.5,50.1 253.7,50.3 253.8,50.5 C253.9,50.7 253.9,50.9 253.8,51.2 C253.7,51.4 253.6,51.6 253.4,51.8 C253.2,52 252.9,52.1 252.6,52.1 C252.3,52.1 251.9,52.1 251.5,52 C251.1,51.9 250.7,51.7 250.4,51.5 C250.1,51.3 249.9,51 249.8,50.7 C249.7,50.4 249.7,50.1 249.7,49.7 L248.7,49.5 C248.6,50 248.6,50.5 248.8,51 C249,51.5 249.2,51.9 249.7,52.2 C250.2,52.5 250.7,52.8 251.4,53 C251.9,53.1 252.5,53.2 252.9,53.1 C253.4,53 253.8,52.8 254.1,52.5 C254.4,52.2 254.6,51.9 254.8,51.4 C254.9,51 254.9,50.6 254.8,50.2 C254.7,49.8 254.4,49.5 254,49.2 C253.7,49 253.2,48.7 252.4,48.3 C251.6,47.9 251.2,47.6 251,47.4 C250.8,47.2 250.8,46.9 250.9,46.6 C251,46.3 251.2,46.1 251.5,45.9 C251.8,45.8 252.3,45.8 252.9,45.9 C253.5,46.1 253.9,46.3 254.1,46.6 C254.3,46.9 254.4,47.3 254.3,47.8 L255.3,48 C255.4,47.5 255.4,47.1 255.2,46.7 C255.3,46.4 255.1,46 254.7,45.7 L254.7,45.7 L254.7,45.7 Z M246.2,29.7 L245.9,30.8 L246.8,31 L247.1,29.9 L246.2,29.7 L246.2,29.7 Z M248.4,37.5 C248.3,37.5 248.2,37.4 248.1,37.3 C248,37.2 248,37.2 248,37.1 C248,37 248,36.8 248.1,36.6 L249,33.4 L249.9,33.7 L250.1,33 L249.2,32.7 L249.7,30.8 L248.6,31.1 L248.2,32.5 L247.5,32.3 L247.3,33 L248,33.2 L247.2,36.4 C247.1,37 247,37.3 247,37.5 C247,37.7 247.1,37.9 247.3,38 C247.5,38.2 247.7,38.3 248,38.4 C248.2,38.5 248.4,38.5 248.7,38.5 L248.8,37.6 C248.6,37.6 248.5,37.6 248.4,37.5 L248.4,37.5 L248.4,37.5 Z M248.4,37.5" class="Shape"/>
                    <path d="M14,120.1 L16.9,121.2 C17.4,121.4 17.7,121.6 17.9,121.7 C18.1,121.8 18.2,122.1 18.3,122.4 C18.3,122.7 18.3,123 18.2,123.2 C18.1,123.5 17.9,123.7 17.7,123.8 C17.5,123.9 17.3,124 17,123.9 C16.8,123.9 16.5,123.8 16,123.6 L13,122.5 L12.7,123.4 L16,124.7 C16.4,124.8 16.7,124.9 16.9,125 L17.7,125 C17.9,124.9 18.2,124.8 18.4,124.6 C18.6,124.4 18.8,124.1 18.9,123.8 C19.2,123.1 19.1,122.4 18.6,121.8 L19.4,122.1 L19.7,121.3 L14.4,119.3 L14,120.1 L14,120.1 Z M17.8,111.1 C17.4,111.3 17.1,111.6 16.9,112.2 C16.6,112.9 16.7,113.5 17.2,114.2 C16.9,114.2 16.6,114.3 16.3,114.5 C16,114.7 15.8,115 15.7,115.4 C15.6,115.8 15.5,116.1 15.6,116.4 C15.7,116.7 15.8,117 16,117.3 L15.3,117 L15,117.8 L20.3,119.8 L20.6,118.9 L17.8,117.8 C17.3,117.6 17,117.4 16.7,117.2 C16.5,117 16.3,116.8 16.3,116.5 C16.2,116.2 16.3,116 16.4,115.7 C16.5,115.4 16.7,115.2 17,115.1 C17.3,115 17.6,115.1 18,115.2 L21.5,116.5 L21.8,115.6 L18.7,114.4 C18.2,114.2 17.8,113.9 17.6,113.6 C17.4,113.3 17.4,112.9 17.6,112.5 C17.7,112.3 17.8,112.1 18,112 C18.2,111.9 18.3,111.8 18.5,111.8 C18.7,111.8 19,111.9 19.3,112 L22.7,113.3 L23,112.4 L19.3,111 C18.7,110.9 18.2,110.9 17.8,111.1 L17.8,111.1 L17.8,111.1 Z M12.8,125.3 C12.5,125.3 12.2,125.4 11.9,125.7 C11.6,125.9 11.4,126.2 11.3,126.6 C11.1,127.2 11.1,127.9 11.4,128.5 L8.8,127.5 L8.5,128.4 L15.9,131.2 L16.2,130.3 L13.3,129.2 C12.9,129 12.6,128.9 12.4,128.7 C12.2,128.5 12.1,128.3 12,128 C12,127.7 12,127.4 12.1,127.2 C12.2,126.8 12.4,126.6 12.7,126.5 C13,126.4 13.3,126.4 13.8,126.6 L17.2,127.9 L17.5,127 L14.1,125.7 C13.6,125.4 13.1,125.3 12.8,125.3 L12.8,125.3 L12.8,125.3 Z M22.5,105.6 C22.1,105.5 21.7,105.4 21.4,105.3 C21,105.3 20.7,105.3 20.4,105.4 C20.1,105.5 19.8,105.7 19.6,105.9 C19.4,106.1 19.2,106.4 19,106.8 C18.8,107.4 18.8,108 19.2,108.5 L16.6,107.5 L16.3,108.4 L23.7,111.2 L24,110.4 L23.3,110.1 C24,109.9 24.4,109.6 24.7,108.9 C24.9,108.3 24.9,107.6 24.6,107 C24,106.4 23.4,105.9 22.5,105.6 L22.5,105.6 L22.5,105.6 Z M23.7,108.8 C23.5,109.3 23.1,109.6 22.6,109.7 C22.2,109.8 21.8,109.7 21.1,109.4 C20.5,109.2 20,108.8 19.8,108.4 C19.6,108 19.5,107.6 19.7,107.2 C19.8,106.8 20.1,106.5 20.6,106.4 C21,106.3 21.6,106.3 22.3,106.6 C23,106.9 23.4,107.2 23.7,107.6 C23.8,108 23.8,108.4 23.7,108.8 L23.7,108.8 L23.7,108.8 Z M47.1,47.3 C47.1,47.5 47,47.6 47,47.7 C46.9,47.8 46.9,47.9 46.8,48 C46.7,48.1 46.7,48.1 46.6,48.1 C46.5,48.1 46.3,48.1 46.1,48 L43,46.8 L43.3,45.9 L42.6,45.6 L42.3,46.5 L40.4,45.8 L40.6,46.9 L41.9,47.4 L41.6,48 L42.3,48.3 L42.6,47.6 L45.7,48.8 C46.2,49 46.6,49.1 46.8,49.1 C47,49.1 47.2,49 47.4,48.9 C47.6,48.8 47.7,48.5 47.8,48.2 C47.9,48 47.9,47.8 48,47.5 L47.1,47.3 L47.1,47.3 Z M2.9,142.8 L8.7,145 L1.4,146.6 L1,147.6 L8.4,150.4 L8.8,149.5 L3,147.4 L10.3,145.8 L10.7,144.8 L3.3,142 L2.9,142.8 L2.9,142.8 Z M11.7,138.4 C11.4,138 10.9,137.7 10.2,137.5 C9.4,137.2 8.6,137.2 7.9,137.4 C7.2,137.6 6.8,138.2 6.5,138.9 C6.2,139.6 6.2,140.2 6.4,140.8 C6.7,141.5 7.3,142.1 8.3,142.5 C9.2,142.8 10,142.9 10.6,142.6 C11.3,142.3 11.7,141.8 12,141.1 C12.2,140.6 12.2,140.2 12.2,139.7 C12.2,139.2 12,138.8 11.7,138.4 L11.7,138.4 L11.7,138.4 Z M11.4,140.8 C11.2,141.3 10.9,141.6 10.5,141.7 C10,141.9 9.5,141.8 8.8,141.6 C8.1,141.3 7.7,141 7.4,140.6 C7.2,140.2 7.2,139.7 7.3,139.3 C7.5,138.9 7.8,138.5 8.2,138.4 C8.7,138.2 9.2,138.3 9.9,138.5 C10.6,138.8 11.1,139.1 11.3,139.5 C11.5,139.9 11.6,140.4 11.4,140.8 L11.4,140.8 L11.4,140.8 Z M9.9,135 C9.7,134.9 9.6,134.7 9.5,134.5 C9.4,134.3 9.4,134.1 9.5,133.9 C9.6,133.7 9.7,133.5 9.9,133.3 L9.2,132.7 C8.9,132.9 8.7,133.2 8.6,133.5 C8.5,133.7 8.5,133.9 8.6,134.1 C8.7,134.3 8.8,134.6 9.1,135 L8.3,134.7 L8,135.5 L13.3,137.5 L13.6,136.6 L10.8,135.5 C10.5,135.4 10.2,135.2 9.9,135 L9.9,135 L9.9,135 Z M14.5,132.2 C14.4,132.3 14.4,132.4 14.3,132.5 C14.2,132.6 14.2,132.6 14.1,132.6 C14,132.6 13.8,132.6 13.6,132.5 L10.5,131.3 L10.9,130.4 L10.2,130.1 L9.8,131 L7.9,130.3 L8.1,131.4 L9.4,131.9 L9.1,132.6 L9.8,132.9 L10.1,132.2 L13.2,133.4 C13.7,133.6 14.1,133.7 14.3,133.7 C14.5,133.7 14.7,133.6 14.9,133.5 C15.1,133.4 15.2,133.1 15.3,132.8 C15.4,132.6 15.4,132.4 15.5,132.1 L14.7,131.9 C14.6,132 14.6,132.1 14.5,132.2 L14.5,132.2 L14.5,132.2 Z M31.1,89.5 C30.9,89.5 30.3,89.3 29.5,88.9 L28.3,88.4 C27.9,88.2 27.6,88.2 27.4,88.1 L26.7,88.1 C26.5,88.2 26.3,88.3 26.1,88.6 C25.9,88.8 25.7,89.2 25.5,89.6 C25.3,90.1 25.2,90.5 25.2,90.9 C25.2,91.3 25.3,91.6 25.4,91.9 C25.6,92.2 25.8,92.4 26.2,92.6 L26.7,91.8 C26.4,91.6 26.2,91.3 26.1,91 C26,90.7 26.1,90.4 26.2,90 C26.4,89.5 26.6,89.2 26.9,89.1 C27.1,89 27.4,89 27.8,89.1 C27.8,89.1 27.9,89.1 28,89.2 C28,89.6 27.9,90.2 27.7,90.9 C27.6,91.3 27.5,91.6 27.5,91.8 L27.5,92.6 C27.6,92.8 27.7,93.1 27.8,93.3 C28,93.5 28.2,93.7 28.4,93.8 C28.8,94 29.3,94 29.7,93.7 C30.1,93.5 30.4,93.1 30.6,92.5 C30.7,92.1 30.8,91.8 30.8,91.4 C30.8,91 30.7,90.6 30.6,90.2 C30.9,90.3 31.1,90.3 31.3,90.3 L31.7,89.4 C31.5,89.6 31.3,89.5 31.1,89.5 L31.1,89.5 L31.1,89.5 Z M30.1,92.2 C30,92.6 29.8,92.8 29.6,92.9 C29.4,93 29.1,93 28.9,92.9 C28.7,92.8 28.6,92.7 28.5,92.6 C28.4,92.5 28.4,92.3 28.3,92.1 C28.3,91.9 28.3,91.6 28.4,91.2 C28.6,90.5 28.6,90 28.6,89.6 L28.9,89.7 C29.3,89.9 29.6,90 29.7,90.2 C29.9,90.4 30,90.7 30.1,91 C30.3,91.5 30.2,91.8 30.1,92.2 L30.1,92.2 L30.1,92.2 Z M45.1,50.1 L44.6,51 C44.9,51.3 45.1,51.6 45.2,51.9 C45.3,52.2 45.3,52.5 45.1,52.8 C44.9,53.2 44.6,53.6 44.2,53.7 C43.8,53.8 43.3,53.9 42.7,53.7 L44.2,49.7 C44.1,49.7 44,49.6 44,49.6 C43.1,49.3 42.4,49.2 41.7,49.5 C41,49.8 40.6,50.3 40.3,51 C40,51.7 40,52.4 40.4,53.1 C40.7,53.8 41.3,54.3 42.2,54.6 C43.1,54.9 43.8,55 44.5,54.7 C45.2,54.4 45.6,53.9 45.9,53.1 C46.1,52.5 46.2,51.9 46,51.4 C45.9,50.9 45.6,50.5 45.1,50.1 L45.1,50.1 L45.1,50.1 Z M42,53.4 C41.5,53.2 41.2,52.9 41.1,52.5 C40.9,52.1 40.9,51.7 41.1,51.3 C41.3,50.8 41.6,50.5 42.1,50.4 C42.4,50.3 42.8,50.3 43.2,50.4 L42,53.4 L42,53.4 Z M42.9,55.8 L42.4,56.7 C42.7,57 42.9,57.3 43,57.6 C43.1,57.9 43.1,58.2 42.9,58.5 C42.7,58.9 42.4,59.3 42,59.4 C41.6,59.6 41.1,59.6 40.5,59.4 L42,55.4 C41.9,55.4 41.8,55.3 41.8,55.3 C41,55 40.2,55 39.5,55.3 C38.8,55.6 38.4,56.1 38.1,56.8 C37.8,57.5 37.8,58.2 38.2,58.9 C38.5,59.6 39.1,60 40,60.4 C40.9,60.7 41.6,60.8 42.3,60.5 C43,60.2 43.4,59.7 43.7,58.9 C43.9,58.3 44,57.7 43.8,57.2 C43.7,56.6 43.4,56.2 42.9,55.8 L42.9,55.8 L42.9,55.8 Z M39.8,59.1 C39.3,58.9 39,58.6 38.9,58.2 C38.7,57.8 38.7,57.4 38.9,57 C39.1,56.5 39.4,56.2 39.8,56.1 C40.1,56 40.5,56 40.9,56.1 L39.8,59.1 L39.8,59.1 Z M28.4,76.5 L31,77.5 C30.7,77.6 30.5,77.7 30.2,77.9 C30,78.1 29.8,78.4 29.7,78.7 C29.5,79.1 29.5,79.6 29.6,80 C29.7,80.4 29.9,80.8 30.3,81.2 C30.7,81.5 31.1,81.8 31.6,82 C32.1,82.2 32.7,82.3 33.2,82.3 C33.7,82.3 34.1,82.1 34.5,81.8 C34.9,81.5 35.1,81.2 35.3,80.8 C35.6,80.1 35.5,79.5 35.1,79 L35.8,79.3 L36.1,78.5 L28.7,75.7 L28.4,76.5 L28.4,76.5 Z M33.2,78.2 C33.9,78.5 34.3,78.8 34.5,79.2 C34.7,79.6 34.7,80 34.6,80.4 C34.4,80.8 34.2,81.1 33.7,81.2 C33.3,81.4 32.7,81.3 32,81 C31.3,80.7 30.8,80.4 30.6,80 C30.4,79.6 30.3,79.2 30.5,78.8 C30.7,78.4 31,78.1 31.4,78 C31.8,77.9 32.4,78 33.2,78.2 L33.2,78.2 L33.2,78.2 Z M37.8,67.7 C37.4,67.5 37,67.5 36.6,67.6 C36.2,67.7 35.8,67.9 35.5,68.3 C35.3,68.5 34.9,69 34.4,69.7 C33.9,70.4 33.6,70.8 33.3,71 C33.1,71.1 32.8,71.1 32.5,71 C32.2,70.9 32,70.6 31.9,70.3 C31.8,69.9 31.8,69.5 32.1,68.9 C32.3,68.3 32.6,68 32.9,67.8 C33.2,67.6 33.7,67.6 34.1,67.7 L34.4,66.7 C34,66.6 33.5,66.5 33.1,66.6 C32.7,66.7 32.3,66.9 32,67.3 C31.7,67.6 31.4,68.1 31.2,68.6 C31,69.1 30.9,69.6 30.9,70 C30.9,70.5 31,70.9 31.3,71.2 C31.5,71.5 31.8,71.8 32.2,71.9 C32.5,72 32.9,72.1 33.2,72 C33.5,71.9 33.9,71.8 34.2,71.5 C34.4,71.3 34.8,70.9 35.2,70.3 C35.6,69.7 35.9,69.3 36.1,69.1 C36.3,68.8 36.6,68.7 36.8,68.6 C37,68.5 37.3,68.5 37.5,68.6 C37.7,68.7 37.9,68.8 38,69 C38.1,69.2 38.2,69.5 38.2,69.8 C38.2,70.1 38.1,70.5 38,70.8 C37.8,71.2 37.6,71.6 37.3,71.8 C37,72.1 36.7,72.3 36.4,72.3 C36.1,72.4 35.8,72.4 35.4,72.3 L35.1,73.2 C35.6,73.4 36.1,73.4 36.6,73.3 C37.1,73.2 37.5,73 37.9,72.6 C38.3,72.2 38.6,71.7 38.8,71 C39,70.5 39.1,70 39.1,69.5 C39.1,69 38.9,68.6 38.7,68.2 C38.5,68.1 38.2,67.8 37.8,67.7 L37.8,67.7 L37.8,67.7 Z M40.2,65.4 C40.1,65.5 40.1,65.6 40,65.7 C39.9,65.8 39.9,65.8 39.8,65.8 C39.7,65.8 39.5,65.8 39.3,65.7 L36.2,64.5 L36.5,63.6 L35.8,63.3 L35.5,64.2 L33.6,63.5 L33.8,64.6 L35.1,65.1 L34.8,65.8 L35.5,66.1 L35.8,65.4 L38.9,66.6 C39.4,66.8 39.8,66.9 40,66.9 C40.2,66.9 40.4,66.8 40.6,66.7 C40.8,66.6 40.9,66.3 41,66 C41.1,65.8 41.1,65.6 41.2,65.3 L40.3,65 C40.2,65.2 40.2,65.3 40.2,65.4 L40.2,65.4 L40.2,65.4 Z M29.7,82.5 L28.9,82.5 C28.7,82.6 28.4,82.7 28.2,82.9 C28,83.1 27.8,83.4 27.7,83.7 C27.4,84.4 27.5,85.1 27.9,85.7 L27.1,85.4 L26.8,86.2 L32.1,88.2 L32.4,87.3 L29.5,86.2 C28.8,85.9 28.4,85.6 28.3,85.2 C28.2,84.8 28.2,84.4 28.3,84.1 C28.4,83.9 28.5,83.7 28.7,83.5 C28.9,83.4 29.1,83.3 29.3,83.3 C29.5,83.3 29.8,83.4 30.2,83.5 L33.4,84.7 L33.7,83.8 L30.4,82.5 C30.2,82.7 29.9,82.6 29.7,82.5 L29.7,82.5 L29.7,82.5 Z M25.8,100.3 L25.3,101.2 C25.6,101.5 25.8,101.8 25.9,102.1 C26,102.4 26,102.7 25.8,103 C25.6,103.4 25.3,103.8 24.9,103.9 C24.5,104.1 24,104.1 23.4,103.9 L24.9,99.9 C24.8,99.9 24.7,99.8 24.7,99.8 C23.8,99.5 23.1,99.4 22.4,99.7 C21.7,100 21.3,100.5 21,101.2 C20.7,101.9 20.7,102.6 21.1,103.3 C21.4,104 22,104.5 22.9,104.8 C23.8,105.1 24.5,105.2 25.2,104.9 C25.9,104.6 26.3,104.1 26.6,103.3 C26.8,102.7 26.9,102.1 26.7,101.6 C26.6,101.1 26.3,100.7 25.8,100.3 L25.8,100.3 L25.8,100.3 Z M22.7,103.6 C22.2,103.4 21.9,103.1 21.8,102.7 C21.6,102.3 21.6,101.9 21.8,101.5 C22,101 22.3,100.7 22.8,100.6 C23.1,100.5 23.5,100.5 23.9,100.6 L22.7,103.6 L22.7,103.6 Z M38,61.9 C37.8,61.8 37.7,61.6 37.6,61.4 C37.5,61.2 37.5,61 37.6,60.8 C37.7,60.6 37.8,60.4 38,60.2 L37.3,59.6 C37,59.8 36.8,60.1 36.7,60.4 C36.6,60.6 36.6,60.8 36.7,61 C36.8,61.2 36.9,61.5 37.2,61.9 L36.4,61.6 L36.1,62.4 L41.4,64.4 L41.7,63.5 L39,62.5 C38.6,62.3 38.3,62.1 38,61.9 L38,61.9 L38,61.9 Z M24.4,97.3 C24.2,97.2 24.1,97 24,96.8 C23.9,96.6 24,96.4 24,96.2 C24.1,96 24.2,95.8 24.4,95.6 L23.8,95 C23.5,95.2 23.3,95.5 23.2,95.8 C23.1,96 23.1,96.2 23.2,96.4 C23.3,96.6 23.4,96.9 23.7,97.3 L22.8,97 L22.5,97.8 L27.8,99.8 L28.1,98.9 L25.3,97.8 C25,97.7 24.7,97.5 24.4,97.3 L24.4,97.3 L24.4,97.3 Z M21.8,93.6 L29.2,96.4 L29.5,95.5 L22.1,92.7 L21.8,93.6 L21.8,93.6 Z M21.8,93.6" class="Shape"/>
                </g>
                <g class="background">
                    <path d="M33.3,155.2 L18.6,151.5 L33.9,110.5 L55.8,94.6 L40,137.3 L91.6,140.7 L93.1,143.5 L38.9,140 L33.3,155.2 M143.5,169.1 C142.3,167.3 142.9,165.5 145.2,163.9 C147.5,162.3 150.9,161.2 155.3,160.7 C159.7,160.2 163.9,160.5 167.8,161.5 C171.7,162.5 174.3,163.9 175.5,165.8 C176.7,167.6 176.1,169.4 173.8,171 C171.5,172.6 168.1,173.7 163.7,174.2 C159.3,174.7 155.1,174.4 151.2,173.4 C147.3,172.4 144.7,171 143.5,169.1" class="road"/>
                    <path d="M271.7,99.9 C272.1,100.5 271.9,101 271.2,101.5 L263.1,107.3 L243.1,102.3 L245,100.9 L241.8,100.1 L250.6,93.9 L245.3,92.6 C242.4,94.7 239.5,96.8 236.6,98.9 L233.4,98.1 L231.5,99.4 L211.5,94.4 L208.4,96.6 L228.4,101.6 L226.5,103 L229.7,103.8 L220.9,110.1 L202,105.4 C200.8,105.1 200,104.7 199.7,104.1 C199.3,103.5 199.5,103 200.2,102.5 L219.5,88.7 C220.2,88.2 221.2,87.9 222.6,87.8 L226.4,88 L269.4,98.7 C270.6,98.9 271.4,99.3 271.7,99.9 M238.1,105.8 L240,104.5 L260,109.5 L251.9,115.3 C251.2,115.8 250.2,116.1 248.8,116.2 L245,116 L226.2,111.3 L235,105 L238.1,105.8" class="walkway"/>
                    <path d="M250.5,93.9 L241.7,100.1 L244.9,100.9 L243,102.3 L263,107.3 L260,109.5 L239.9,104.5 L238,105.8 L234.8,105 L226,111.3 L220.7,110 L229.5,103.7 L226.3,102.9 L228.2,101.5 L208.2,96.5 L211.3,94.3 L231.3,99.3 L233.2,98 L236.4,98.8 C239.3,96.7 242.2,94.6 245.1,92.5 L250.5,93.9" class="walkway"/>
                    <path d="M377.6,57.7 L421.6,68.6 L418.8,70.6 L374.9,59.7 L290,120.3 L295.8,121.7 L299.2,119.2 L304.9,120.6 L301.4,123.1 L314.9,126.5 L311.4,129 L286.3,122.7 L252.4,147 L267.5,150.8 L272.6,158.8 L249.3,161.3 L243.9,153.1 L236.9,151.4 L245.6,145.2 L201.8,134.3 L197.5,137.4 L203.6,138.9 L170.6,162.4 L167.8,161.5 L164.6,160.9 L193.3,140.5 L134.7,125.9 L108.4,144.6 L92.8,143.6 L91.4,141 L101.4,141.7 L123,126.3 L118.3,125.1 L41.5,133.2 L42.6,129.8 L131,120.6 L154.8,103.6 L163.2,105.7 L139.8,122.4 L175.5,131.3 L184.2,125.1 L211.4,131.9 L226.1,121.4 L232.6,123 L217.9,133.5 L250.9,141.7 L269.5,128.5 L247.4,123 L250.3,121 L272.4,126.5 L317.7,94.2 L273.7,83.3 L269.1,86.6 L244.7,80.5 L249.3,77.2 L210.1,67.4 L205.5,70.7 L184.8,65.5 L189.5,62.1 L168.2,56.8 L184.6,45.1 L209.1,51.2 L195.8,60.7 L269.8,79.1 L274,76.1 L280.9,77.8 L276.7,80.8 L320.9,91.8 L377.6,51.4 L333.9,40.5 L340.3,35.9 L390.7,48.5 L377.6,57.7" class="walkway"/>
                    <path d="M433.4,50.6 L433.4,54 L433.4,54.4 L433.4,54.7 L433.1,56.6 L432.3,58.9 L431.3,60.9 L429.7,63.2 L427.7,65.6 L421.8,70.7 L419.2,70.1 L419.2,72.7 L376.1,103.4 L357.2,98.7 L315.1,128.7 L311.8,127.9 L311.8,131.1 L304.5,136.3 L294.5,133.8 L267.7,152.9 L252.2,149 L252.2,145.2 L263.7,136.9 L263.9,136.8 L267.5,134.2 L267.7,134.1 L282.5,123.5 L282.7,123.4 L286.2,120.8 L289.5,121.6 L289.5,118.4 L307.1,105.8 L307.3,105.7 L331.8,88.2 L331.8,88.3 L331.9,88.3 L366,63.9 L366.2,63.8 L374.8,57.7 L377.3,58.3 L377.3,55.8 L386.5,49.2 L350.7,40.3 L350.7,41.3 L349.6,42.1 L377.9,49.2 L377.9,53.1 L321,93.7 L318.1,93 L318.1,95.9 L308.7,102.6 L210.9,78.2 L210.5,78.1 L188.3,72.6 L187.9,72.5 L168.1,67.6 L168.1,63.8 L189.4,48.6 L201,51.5 L201.1,56 L189.8,64 L189.1,64.5 L205.5,68.6 L209.1,66 L195.6,62.6 L195.6,58.7 L204.4,52.4 L261.5,66.6 L261.5,70.4 L261.2,70.7 L274.5,74 L274.5,77.8 L270.1,81 L265.9,80 L265.9,81.5 L264.2,82.9 L269.2,84.2 L273.9,80.9 L276.8,81.7 L276.8,78.8 L285.6,72.5 L285.7,72.5 L323.4,45.6 L323.6,45.5 L326.8,43.2 L327,43.1 L330.2,40.8 L330.4,40.7 L333.8,38.3 L339.6,39.7 L339.6,38.3 L340.2,37.8 L340,37.7 L340,33.8 L366.2,15.2 L375.1,17.4 C396.9,22.9 412.5,28.6 421.9,34.6 C429.8,39.6 433.7,45 433.4,50.6 M249,79.2 L254.8,80.6 L254.8,79.1 L261.4,80.9 L263.5,79.3 L249.6,75.8 L249.6,78.7 L249,79.2 M250.1,118.8 L278.5,98.5 L301,104.1 L301,108 L272.6,128.2 L270,127.6 L270,130.2 L258.4,138.5 L258.3,138.5 L251.1,143.7 L217.8,135.4 L217.8,131.5 L232.8,120.8 L243.7,123.5 L247.5,120.8 L250.1,121.5 L250.1,118.8 M299.3,121.4 L296.6,123.3 L301.2,124.5 L301.2,121.9 L299.3,121.4 M246,147 L241.3,150.4 L244.3,151.1 L244.3,155 L223,170.2 L178,159 L178,155.1 L199.3,139.9 L199.4,139.8 L197.2,139.3 L197.2,135.4 L201.8,132.1 L245.9,143.1 L246,147 M123.2,128 L101.4,143.5 L101.1,143.5 L101.1,145.8 L92,172 L33,157.2 L33,153.3 L38.7,137.8 L39.5,137.8 L39.5,135.4 L41.2,130.8 L41.3,130.8 L42.2,130.7 L42.2,127.6 L45.2,119.3 L45.4,119.3 L55.4,92.8 L72.3,80.6 L155.2,101.3 L155.2,105.2 L131.1,122.4 L120.3,123.6 L123.2,124.3 L123.2,128 M139.6,120.2 L139.6,120.2 L163.3,103.3 L226.5,119.1 L226.5,123 L211.4,133.7 L191.7,128.8 L184.3,126.9 L175.7,133 L175.6,133 L175.2,132.9 L174.9,132.9 L139.5,124.1 L139.6,120.2 M193.5,142.3 L172,157.6 L113.2,142.9 L113.2,139 L134.6,123.7 L193.4,138.4 L193.5,142.3" class="wall"/>
                </g>
                <g class="ceilings">
                    <path class="unit" d="M354.9,64.9 L311.4,54 L307.5,56.8 L350.8,67.8 L354.9,64.9 Z M354.9,64.9" id="2000"/>
                    <path class="unit" d="M326.9,43 L370.4,53.8 L367.2,56.1 L323.7,45.2 L326.9,43 L326.9,43 Z M326.9,43" id="2001"/>
                    <path class="unit" d="M232.6,59.2 L204.4,52.2 L196.1,58.1 L224.3,65.2 L232.6,59.2 Z M232.6,59.2" id="2002"/>
                    <path class="unit" d="M184.4,63 L201,51.3 L189.5,48.4 L168.6,63.2 L190.8,68.8 L195.1,65.7 L184.4,63 Z M184.4,63" id="2004"/>
                    <path class="unit" d="M229.7,69.9 L239.1,72.2 L230.2,78.6 L220.8,76.2 L229.7,69.9 L229.7,69.9 Z M229.7,69.9" id="2006"/>
                    <path class="unit" d="M294,74.5 L285.6,80.4 L277.1,78.3 L285.5,72.3 L294,74.5 L294,74.5 Z M294,74.5" id="2007"/>
                    <path class="unit" d="M294.2,66.3 L337.7,77.1 L329.3,83.1 L285.8,72.2 L294.2,66.3 L294.2,66.3 Z M294.2,66.3" id="2008"/>
                    <path class="unit" d="M248.9,74.6 L240,81 L230.6,78.7 L239.5,72.3 L248.9,74.6 L248.9,74.6 Z M248.9,74.6" id="2009"/>
                    <path class="unit" d="M280.7,82.5 L271.7,88.9 L264.8,87.2 L273.7,80.8 L280.7,82.5 L280.7,82.5 Z M280.7,82.5" id="2010"/>
                    <path class="unit" d="M271.4,103.5 L293.2,108.9 L289.9,111.3 L268.2,105.8 L271.4,103.5 L271.4,103.5 Z M271.4,103.5" id="2011"/>
                    <path class="unit" d="M118.1,111.5 L45.8,119 L55.8,92.5 L72.5,80.5 L154.6,101 L139.8,111.6 L130.9,117.9 L122.9,118.7 L118.1,111.5 L118.1,111.5 Z M118.1,111.5" id="2013"/>
                    <path class="unit" d="M76.6,115.9 L81.2,123.1 L73.4,123.9 L68.8,116.7 L76.6,115.9 L76.6,115.9 Z M76.6,115.9" id="2014"/>
                    <path class="unit" d="M183.8,122.7 L175.4,128.7 L165.6,126.2 L174,120.2 L183.8,122.7 L183.8,122.7 Z M183.8,122.7" id="2015"/>
                    <path class="unit" d="M191.8,124.5 L206.4,114.1 L212.6,115.6 L198,126 L191.8,124.5 L191.8,124.5 Z M191.8,124.5" id="2016"/>
                    <path class="unit" d="M219.2,117.2 L204.6,127.6 L198.3,126 L213,115.6 L219.2,117.2 L219.2,117.2 Z M219.2,117.2" id="2017"/>
                    <path class="unit" d="M52.1,118.6 L56.6,125.8 L42.7,127.2 L45.5,119.2 L52.1,118.6 L52.1,118.6 Z M52.1,118.6" id="2018"/>
                    <path class="unit" d="M261.6,131.4 L258,134 L251.7,132.4 L255.3,129.8 L261.6,131.4 L261.6,131.4 Z M261.6,131.4" id="2019"/>
                    <path class="unit" d="M245.5,123.8 L230.9,134.2 L224.7,132.7 L239.4,122.3 L245.5,123.8 L245.5,123.8 Z M245.5,123.8" id="2020"/>
                    <path class="unit" d="M252.1,125.4 L237.5,135.8 L231.3,134.2 L245.9,123.8 L252.1,125.4 L252.1,125.4 Z M252.1,125.4" id="2021"/>
                    <path class="unit" d="M58.8,129 L58.8,129 L57.8,129.1 L57.7,129.1 L55.4,129.3 L59.8,136.3 L59.9,136.4 L65.9,136.8 L60.8,128.8 L58.8,129 Z M58.8,129" id="2022"/>
                    <path class="unit" d="M90.7,138.5 L83.1,126.5 L77.6,127 L84.5,138 L90.7,138.5 Z M90.7,138.5" id="2023"/>
                    <path class="unit" d="M122.6,123.9 L109.9,132.8 L83.9,126.3 L117.8,122.6 L122.6,123.9 L122.6,123.9 Z M122.6,123.9" id="2024"/>
                    <path class="unit" d="M213.9,135.1 L205.4,141.1 L199.6,139.7 L208.1,133.7 L213.9,135.1 L213.9,135.1 Z M213.9,135.1" id="2025"/>
                    <path class="unit" d="M232.8,139.8 L224.3,145.9 L218.4,144.4 L226.9,138.4 L232.8,139.8 L232.8,139.8 Z M232.8,139.8" id="2026"/>
                    <path class="unit" d="M350,37.3 L346.8,39.6 L339.9,37.9 L343.1,35.6 L350,37.3 L350,37.3 Z M350,37.3" id="2027"/>
                    <path class="unit" d="M333.7,38.1 L377.2,48.9 L374,51.2 L330.5,40.3 L333.7,38.1 L333.7,38.1 Z M333.7,38.1" id="2028"/>
                    <path class="unit" d="M330.3,40.5 L373.8,51.3 L370.6,53.6 L327.1,42.7 L330.3,40.5 L330.3,40.5 Z M330.3,40.5" id="2029"/>
                    <path class="unit" d="M323.5,45.4 L367,56.2 L363.7,58.5 L320.2,47.6 C321.3,46.9 322.4,46.2 323.5,45.4 L323.5,45.4 L323.5,45.4 Z M323.5,45.4" id="2030"/>
                    <path class="unit" d="M355.1,64.7 L311.6,53.8 L320,47.8 L363.5,58.6 L355.1,64.7 L355.1,64.7 Z M355.1,64.7" id="2031"/>
                    <path class="unit" d="M432.8,49.6 C432.8,55 429,60.5 421.4,66.3 L377.8,55.4 L391,46 L340.3,33.3 L366.1,15 L374.6,17.1 C396.3,22.5 411.8,28.2 421.2,34.2 C428.9,39.1 432.8,44.3 432.8,49.6 L432.8,49.6 L432.8,49.6 Z M432.8,49.6" id="2032"/>
                    <path class="unit" d="M253.7,64.5 L232.9,59.3 L224.6,65.3 L245.3,70.4 L253.7,64.5 Z M253.7,64.5" id="2033"/>
                    <path class="unit" d="M191.1,68.8 L200.9,71.3 L205.2,68.2 L195.4,65.7 L191.1,68.8 Z M191.1,68.8" id="2036"/>
                    <path class="unit" d="M260.7,66.2 L256.6,69.1 L256.5,69.1 L252.2,72.1 L245.6,70.5 L253.9,64.5 L260.7,66.2 L260.7,66.2 Z M260.7,66.2" id="2037"/>
                    <path class="unit" d="M410.1,74.4 L366.6,63.5 L375,57.5 L418.5,68.4 L410.1,74.4 L410.1,74.4 Z M410.1,74.4" id="2038"/>
                    <path class="unit" d="M229.3,69.7 L219.6,67.3 L210.2,65 L205.7,68.1 L205.8,68.1 L201.3,71.3 L210.6,73.7 L220.4,76.1 L229.3,69.7 Z M229.3,69.7" id="2039"/>
                    <path class="unit" d="M342,74 L298.6,63.2 L294.3,66.2 L337.9,77 L342,74 L342,74 Z M342,74" id="2040"/>
                    <path class="unit" d="M256.6,69.4 L273.6,73.7 L269.6,76.6 L252.6,72.4 L256.6,69.4 L256.6,69.4 Z M256.6,69.4" id="2041"/>
                    <path class="unit" d="M401.5,80.5 L358,69.6 L366.4,63.7 L409.9,74.5 L401.5,80.5 L401.5,80.5 Z M401.5,80.5" id="2042"/>
                    <path class="unit" d="M302.7,76.7 L294.3,82.7 L285.9,80.6 L294.3,74.6 L302.7,76.7 L302.7,76.7 Z M302.7,76.7" id="2043"/>
                    <path class="unit" d="M251.4,79.7 L247.1,82.8 L240.3,81.1 L244.6,78 L251.4,79.7 L251.4,79.7 Z M251.4,79.7" id="2044"/>
                    <path class="unit" d="M303.1,76.8 L311.5,78.9 L303.1,84.9 L294.7,82.8 L303.1,76.8 L303.1,76.8 Z M303.1,76.8" id="2045"/>
                    <path class="unit" d="M268.7,84 L262,82.3 L261.6,82.2 L251.8,79.8 L247.5,82.9 L258.2,85.5 L264.4,87.1 L268.7,84 Z M268.7,84" id="2046"/>
                    <path class="unit" d="M393,86.6 L349.5,75.7 L357.8,69.7 L401.3,80.6 L393,86.6 L393,86.6 Z M393,86.6" id="2048"/>
                    <path class="unit" d="M320.2,81.1 L311.9,87 L303.6,85 L312,79 L320.2,81.1 L320.2,81.1 Z M320.2,81.1" id="2049"/>
                    <path class="unit" d="M329.1,83.3 L320.7,89.2 L312.3,87.1 L320.6,81.1 L329.1,83.3 L329.1,83.3 Z M329.1,83.3" id="2050"/>
                    <path class="unit" d="M288,84.4 L279.1,90.8 L272.1,89.1 L281,82.7 L288,84.4 L288,84.4 Z M288,84.4" id="2051"/>
                    <path class="unit" d="M343.9,79.7 L387.5,90.5 L390.1,88.7 L346.6,77.8 L343.9,79.7 L343.9,79.7 Z M343.9,79.7" id="2052"/>
                    <path class="unit" d="M295.4,86.2 L286.5,92.6 L279.5,90.9 L288.4,84.5 L295.4,86.2 L295.4,86.2 Z M295.4,86.2" id="2053"/>
                    <path class="unit" d="M302.7,88 L293.8,94.3 L286.8,92.6 L295.7,86.2 L302.7,88 L302.7,88 Z M302.7,88" id="2054"/>
                    <path class="unit" d="M294.1,94.5 L303.1,88.1 L310,89.8 L301.1,96.2 L294.1,94.5 L294.1,94.5 Z M294.1,94.5" id="2055"/>
                    <path class="unit" d="M317.3,91.7 L308.4,98.1 L301.5,96.4 L310.4,90 L317.3,91.7 L317.3,91.7 Z M317.3,91.7" id="2056"/>
                    <path class="unit" d="M332.3,88 L375.8,98.9 L381.7,94.7 L338.2,83.8 L332.3,88 L332.3,88 Z M332.3,88" id="2057"/>
                    <path class="unit" d="M344.8,91.4 L340.8,94.2 L328.1,90.9 L331.9,88.2 L315.5,99.9 L340.2,106.1 L356.6,94.4 L344.8,91.4 L344.8,91.4 Z M344.8,91.4" id="2058"/>
                    <path class="unit" d="M300.2,103.8 L296.9,106.2 L275.1,100.7 L278.4,98.4 L300.2,103.8 L300.2,103.8 Z M300.2,103.8" id="2059"/>
                    <path class="unit" d="M296.7,106.4 L293.4,108.8 L271.6,103.3 L274.9,101 L296.7,106.4 L296.7,106.4 Z M296.7,106.4" id="2060"/>
                    <path class="unit" d="M340,106.2 L332.4,111.6 L307.7,105.5 L315.3,100.1 L340,106.2 L340,106.2 Z M340,106.2" id="2061"/>
                    <path class="unit" d="M267.9,106 L289.6,111.4 L282.8,116.3 L261,110.8 L264.3,108.5 L267.9,106 L267.9,106 Z M267.9,106" id="2063"/>
                    <path class="unit" d="M260.9,111 L282.7,116.4 L279.4,118.8 L257.6,113.3 L260.9,111 L260.9,111 Z M260.9,111" id="2064"/>
                    <path class="unit" d="M298.7,117.1 L295.5,119.4 L290,118 L293.2,115.7 L298.7,117.1 L298.7,117.1 Z M298.7,117.1" id="2065"/>
                    <path class="unit" d="M117.8,111.6 L122.4,118.8 L114.6,119.7 L110,112.5 L117.8,111.6 L117.8,111.6 Z M117.8,111.6" id="2066"/>
                    <path class="unit" d="M257.4,113.5 L279.1,118.9 L275.8,121.3 L254,115.8 L257.4,113.5 L257.4,113.5 Z M257.4,113.5" id="2067"/>
                    <path class="unit" d="M332.1,111.8 L318.2,121.7 L293.5,115.5 L307.4,105.6 L332.1,111.8 L332.1,111.8 Z M332.1,111.8" id="2068"/>
                    <path class="unit" d="M109.5,112.5 L114.1,119.7 L106.3,120.5 L101.7,113.3 L109.5,112.5 L109.5,112.5 Z M109.5,112.5" id="2069"/>
                    <path class="unit" d="M105.9,120.6 L98.1,121.4 L93.5,114.2 L101.3,113.4 L105.9,120.6 L105.9,120.6 Z M105.9,120.6" id="2070"/>
                    <path class="unit" d="M93.1,114.2 L97.7,121.4 L89.9,122.2 L85.3,115 L93.1,114.2 L93.1,114.2 Z M93.1,114.2" id="2071"/>
                    <path class="unit" d="M253.8,116 L275.6,121.4 L272.3,123.8 L250.5,118.3 L253.8,116 L253.8,116 Z M253.8,116" id="2072"/>
                    <path class="unit" d="M304.9,118.6 L318,121.9 L314.8,124.2 L301.7,121 L304.9,118.6 L304.9,118.6 Z M304.9,118.6" id="2073"/>
                    <path class="unit" d="M84.9,115.1 L89.5,122.3 L81.7,123.1 L77.1,115.9 L84.9,115.1 L84.9,115.1 Z M84.9,115.1" id="2074"/>
                    <path class="unit" d="M163.3,103.3 L205.9,114 L191.3,124.5 L163.6,117.6 L155,123.8 L139.9,120.1 L163.3,103.3 L163.3,103.3 Z M163.3,103.3" id="2075"/>
                    <path class="unit" d="M60.8,117.6 L68.5,116.8 L73,124 L65.3,124.8 L60.8,117.6 L60.8,117.6 Z M60.8,117.6" id="2076"/>
                    <path class="unit" d="M163.8,117.7 L173.6,120.2 L165.2,126.2 L155.4,123.8 L163.8,117.7 L163.8,117.7 Z M163.8,117.7" id="2077"/>
                    <path class="unit" d="M60.3,117.7 L64.9,124.9 L57.1,125.7 L52.5,118.5 L60.3,117.7 L60.3,117.7 Z M60.3,117.7" id="2078"/>
                    <path class="unit" d="M243.8,123.1 L247.4,120.5 L269.2,125.9 L265.6,128.5 L243.8,123.1 L243.8,123.1 Z M243.8,123.1" id="2079"/>
                    <path class="unit" d="M286.4,120.7 L311.1,126.8 L307.8,129.2 L283.1,123.1 L286.4,120.7 L286.4,120.7 Z M286.4,120.7" id="2080"/>
                    <path class="unit" d="M225.8,118.8 L211.1,129.2 L204.9,127.7 L219.6,117.3 L225.8,118.8 L225.8,118.8 Z M225.8,118.8" id="2081"/>
                    <path class="unit" d="M265.4,128.7 L261.8,131.3 L255.5,129.7 L259.1,127.1 L265.4,128.7 L265.4,128.7 Z M265.4,128.7" id="2082"/>
                    <path class="unit" d="M282.8,123.2 L307.5,129.4 L304.2,131.8 L279.5,125.6 L282.8,123.2 L282.8,123.2 Z M282.8,123.2" id="2083"/>
                    <path class="unit" d="M294,129.4 L290.4,132 L275.7,128.3 L279.3,125.7 L294,129.4 L294,129.4 Z M294,129.4" id="2084"/>
                    <path class="unit" d="M232.7,120.6 L238.9,122.1 L224.2,132.5 L218,131 L232.7,120.6 L232.7,120.6 Z M232.7,120.6" id="2085"/>
                    <path class="unit" d="M290.2,132.1 L286.6,134.7 L271.9,131 L275.5,128.4 L290.2,132.1 L290.2,132.1 Z M290.2,132.1" id="2086"/>
                    <path class="unit" d="M131.3,132.3 L127.7,134.9 L121.4,133.3 L125,130.7 L131.3,132.3 L131.3,132.3 Z M131.3,132.3" id="2087"/>
                    <path class="unit" d="M201.9,132.1 L207.7,133.5 L203.5,136.4 L197.7,135 L201.9,132.1 L201.9,132.1 Z M201.9,132.1" id="2088"/>
                    <path class="unit" d="M271.6,131.2 L286.3,134.9 L282.7,137.5 L268,133.8 L271.6,131.2 L271.6,131.2 Z M271.6,131.2" id="2089"/>
                    <path class="unit" d="M53,135.9 L39.9,135 L40.6,133.2 L50.8,132.5 L53,135.9 L53,135.9 Z M53,135.9" id="2090"/>
                    <path class="unit" d="M258.7,127.1 L244,137.5 L237.8,136 L252.5,125.6 L258.7,127.1 L258.7,127.1 Z M258.7,127.1" id="2091"/>
                    <path class="unit" d="M41.5,130.8 L40.6,133 L50.9,132.2 L53.2,135.9 L59.5,136.3 L55.1,129.4 L41.5,130.8 Z M41.5,130.8" id="2092"/>
                    <path class="unit" d="M127.4,134.9 L123.8,137.5 L117.5,135.9 L121.1,133.3 L127.4,134.9 L127.4,134.9 Z M127.4,134.9" id="2093"/>
                    <path class="unit" d="M77.4,127.1 L71.9,127.6 L78.2,137.6 L84.3,138 L77.4,127.1 Z M77.4,127.1" id="2094"/>
                    <path class="unit" d="M257.7,134.1 L250.7,139.1 L244.5,137.5 L251.5,132.5 L257.7,134.1 L257.7,134.1 Z M257.7,134.1" id="2095"/>
                    <path class="unit" d="M279,140.1 L264.3,136.4 L267.9,133.8 L282.6,137.5 L279,140.1 L279,140.1 Z M279,140.1" id="2096"/>
                    <path class="unit" d="M90.9,138.5 L101.1,139.2 L83.3,126.5 L90.9,138.5 L90.9,138.5 Z M90.9,138.5" id="2097"/>
                    <path class="unit" d="M113.7,138.7 L117.3,136.1 L123.6,137.6 L120,140.2 L113.7,138.7 L113.7,138.7 Z M113.7,138.7" id="2098"/>
                    <path class="unit" d="M205.8,141.2 L214.3,135.1 L220.2,136.6 L211.7,142.6 L205.8,141.2 L205.8,141.2 Z M205.8,141.2" id="2099"/>
                    <path class="unit" d="M226.5,138.2 L218,144.3 L212.1,142.8 L220.6,136.7 L226.5,138.2 L226.5,138.2 Z M226.5,138.2" id="2100"/>
                    <path class="unit" d="M233.2,139.9 L239.1,141.4 L230.6,147.5 L224.7,146 L233.2,139.9 L233.2,139.9 Z M233.2,139.9" id="2101"/>
                    <path class="unit" d="M276.6,141.9 L261.8,138.2 L257.7,141.1 L272.4,144.8 L276.6,141.9 Z M276.6,141.9" id="2102"/>
                    <path class="unit" d="M245.3,142.9 L236.8,149 L231,147.6 L239.5,141.5 L245.3,142.9 L245.3,142.9 Z M245.3,142.9" id="2103"/>
                    <path class="unit" d="M125.1,130.5 L134.7,123.7 L192.8,138.2 L171.8,153.2 L120.4,140.4 L131.8,132.3 L125.1,130.5 L125.1,130.5 Z M125.1,130.5" id="2104"/>
                    <path class="unit" d="M199.3,139.8 L243.5,150.8 L222.6,165.7 L178.4,154.7 L199.3,139.8 L199.3,139.8 Z M199.3,139.8" id="2105"/>
                    <path class="unit" d="M39,137.7 L100.6,141.9 L91.6,167.6 L33.4,153 L39,137.7 L39,137.7 Z M39,137.7" id="2106"/>
                    <path class="unit" d="M349.2,75.9 L346.7,77.7 L390.2,88.6 L392.8,86.8 L349.2,75.9 L349.2,75.9 Z M349.2,75.9" id="2107"/>
                    <path class="unit" d="M342.1,73.8 L346.3,70.9 L302.8,60.1 L298.8,63 L342.1,73.8 L342.1,73.8 Z M342.1,73.8" id="2108"/>
                    <path class="unit" d="M265.7,77.9 L261.4,80.9 L254.8,79.2 L259.2,76.1 L265.7,77.9 L265.7,77.9 Z M265.7,77.9" id="2109"/>
                    <path class="unit" d="M387.3,90.6 L343.8,79.8 L340.9,81.8 L363.8,87.5 L361.2,89.3 L381.9,94.5 L387.3,90.6 L387.3,90.6 Z M387.3,90.6" id="2010"/>
                    <path class="unit" d="M278.7,140.3 L264,136.6 L261.9,138.1 L276.6,141.8 L278.7,140.3 L278.7,140.3 Z M278.7,140.3" id="2111"/>
                    <path class="unit" d="M340.7,94 L344.5,91.3 L344.7,91.4 L331.9,88.2 L328.2,90.9 L340.7,94 L340.7,94 Z M340.7,94" id="2112"/>
                    <path class="unit" d="M83.8,126.6 L101.5,139.1 L109.7,133 L83.8,126.6 L83.8,126.6 Z M83.8,126.6" id="2113"/>
                    <path class="unit" d="M340.9,81.9 L340.9,81.9 L338.4,83.7 L361.2,89.4 L363.7,87.6 L340.9,81.9 L340.9,81.9 Z M340.9,81.9" id="2114"/>
                    <path class="unit" d="M252.7,144.7 L267.4,148.4 L272.2,145 L257.5,141.2 L252.7,144.7 Z M252.7,144.7" id="2115"/>
                    <path class="unit" d="M303.1,59.9 L346.6,70.8 L350.6,67.9 L307.3,56.9 L303.1,59.9 Z M303.1,59.9" id="2116"/>
                    <path class="unit" d="M61.1,128.7 L66.1,136.8 L72.1,137.2 L66.4,128.2 L61.1,128.7 Z M61.1,128.7" id="2117"/>
                    <path class="unit" d="M66.7,128.2 L72.3,137.2 L78,137.6 L71.7,127.6 L66.7,128.2 Z M66.7,128.2" id="2118"/>
        </g>
    </g>
</svg>