<?xml version="1.0" encoding="utf-8"?>
<!DOCTYPE svg PUBLIC "-//W3C//DTD SVG 1.1//EN" "http://www.w3.org/Graphics/SVG/1.1/DTD/svg11.dtd">
<svg version="1.1" xmlns="http://www.w3.org/2000/svg" xmlns:xlink="http://www.w3.org/1999/xlink" xml:space="preserve">
<g class="level" id="level1">
            <g class="outline">
                <path d="M158.666,177.229 C155.546,177.229 152.493,176.858 149.593,176.127 C144.953,174.992 141.925,173.235 140.349,170.761 C139.632,169.625 137.703,165.667 142.722,162.071 C145.078,160.422 148.202,159.319 152.296,158.683 C155.846,158.158 159.395,158.097 162.931,158.504 L111.64,145.711 C111.368,145.644 111.115,145.532 110.888,145.388 L108.844,146.846 C108.365,147.188 107.78,147.361 107.193,147.316 L102.615,147.016 L93.456,173.171 C93.018,174.42 91.702,175.127 90.421,174.806 L31.417,159.98 C30.273,159.693 29.477,158.662 29.484,157.487 L16.938,154.36 C16.231,154.183 15.634,153.714 15.294,153.07 C14.955,152.426 14.906,151.667 15.16,150.987 L30.454,109.961 C30.63,109.491 30.939,109.084 31.344,108.788 L51.3,94.244 L52.053,92.235 C52.229,91.763 52.541,91.356 52.949,91.061 L69.863,78.834 C70.473,78.392 71.246,78.244 71.979,78.425 L154.881,99.087 C156.038,99.376 156.842,100.425 156.819,101.617 L156.816,101.747 L159.572,102.426 L160.832,101.53 C161.44,101.097 162.21,100.952 162.934,101.133 L226.111,116.938 C227.249,117.223 228.046,118.246 228.046,119.417 L228.046,119.513 L229.004,119.755 L230.209,118.881 C230.822,118.437 231.598,118.285 232.33,118.472 L242.086,120.91 L244.913,118.876 C245.065,118.766 245.226,118.676 245.392,118.603 L243.837,118.517 C243.676,118.509 243.517,118.485 243.358,118.446 L200.369,107.71 C198.505,107.266 197.221,106.46 196.475,105.257 C195.58,103.88 195.568,101.684 197.722,100.22 L216.929,86.494 C218.053,85.729 219.453,85.283 221.26,85.094 C221.396,85.08 221.53,85.076 221.667,85.084 L225.501,85.297 C225.662,85.306 225.822,85.33 225.98,85.369 L268.963,96.105 C270.877,96.593 272.147,97.394 272.859,98.555 C272.915,98.644 272.967,98.737 273.017,98.832 L275.142,97.314 L209.281,80.915 C209.217,80.899 209.154,80.88 209.091,80.86 L208.803,80.765 L186.704,75.294 C186.639,75.278 186.573,75.258 186.509,75.237 L186.22,75.141 L166.506,70.224 C165.357,69.937 164.555,68.899 164.568,67.715 L164.61,63.881 C164.62,63.067 165.016,62.307 165.677,61.832 L168.541,59.779 L166.509,59.277 C165.539,59.038 164.798,58.255 164.611,57.273 C164.424,56.293 164.825,55.291 165.64,54.713 L182.041,43.04 C182.649,42.608 183.416,42.462 184.139,42.642 L208.677,48.734 C209.643,48.974 210.382,49.753 210.571,50.73 C210.636,51.067 210.632,51.405 210.566,51.728 L261.078,64.327 C262.228,64.614 263.03,65.651 263.016,66.836 L262.993,68.99 L274.031,71.74 C275.182,72.027 275.982,73.067 275.968,74.251 L277.493,74.643 L282.999,70.695 C283.182,70.564 283.378,70.46 283.582,70.383 L320.746,43.813 C320.802,43.773 320.861,43.735 320.918,43.7 L321.041,43.627 L324.147,41.39 C324.206,41.348 324.265,41.309 324.326,41.271 L324.449,41.199 L327.555,38.962 C327.614,38.92 327.672,38.881 327.734,38.845 L327.861,38.769 L331.185,36.399 C331.803,35.96 332.581,35.816 333.31,36.007 L334.452,36.302 L336.333,34.953 L336.333,34.05 C336.333,33.222 336.735,32.446 337.409,31.967 L363.395,13.478 C364.004,13.045 364.773,12.9 365.497,13.081 C394.232,20.258 412.762,26.648 422.141,32.617 C430.675,38.067 434.999,44.051 434.999,50.408 C434.999,50.485 434.994,50.562 434.987,50.639 L434.952,51.017 L434.868,55.567 C434.867,55.692 434.855,55.817 434.834,55.941 L434.621,57.219 C434.6,57.35 434.567,57.481 434.525,57.607 L433.76,59.907 C433.72,60.029 433.669,60.147 433.612,60.261 L432.59,62.263 C432.541,62.354 432.49,62.443 432.433,62.528 L430.856,64.871 C430.771,64.996 430.677,65.113 430.573,65.221 L428.59,67.535 C428.506,67.633 428.415,67.723 428.319,67.808 L422.441,72.877 C421.927,73.319 421.27,73.541 420.607,73.492 C420.459,74.07 420.112,74.585 419.615,74.94 L376.545,105.656 C375.937,106.089 375.169,106.236 374.445,106.056 L356.674,101.653 L315.54,131 C314.937,131.43 314.176,131.577 313.458,131.404 L313.287,131.362 C313.255,132.152 312.86,132.883 312.217,133.342 L304.932,138.54 C304.325,138.975 303.557,139.119 302.833,138.941 L294.006,136.753 L270.94,153.203 L273.749,157.682 C274.219,158.427 274.268,159.364 273.884,160.155 C273.499,160.949 272.734,161.486 271.858,161.581 L248.513,164.093 C247.558,164.197 246.623,163.755 246.097,162.947 L243.186,158.48 L223.439,172.578 C222.831,173.016 222.062,173.16 221.335,172.98 L176.391,161.776 C176.135,161.713 175.894,161.611 175.678,161.478 L174.479,162.338 C175.807,163.327 176.714,164.473 177.222,165.788 C177.853,167.349 178.337,170.462 174.341,173.374 C171.631,175.314 167.926,176.499 163,177.003 C161.542,177.152 160.082,177.229 158.666,177.229 L158.666,177.229 L158.666,177.229 Z M158.666,177.229" class="outline"/>
            </g>
            <g class="label">
                <path d="M19.369,0.684 C18.361,0.684 17.608,0.796 17.096,0.956 C16.696,1.084 16.584,1.324 16.584,1.724 L16.584,11.424 C16.584,11.824 16.84,12.064 17.192,12.064 C17.544,12.064 17.816,11.824 17.816,11.424 L17.816,7.806 C18.344,7.838 18.649,7.854 19.289,7.854 C22.17,7.854 23.691,6.461 23.691,4.188 C23.691,2.172 22.362,0.684 19.369,0.684 L19.369,0.684 Z M19.225,6.686 C18.633,6.686 18.345,6.686 17.816,6.654 L17.816,1.98 C18.264,1.916 18.809,1.852 19.337,1.852 C21.61,1.852 22.426,2.94 22.426,4.221 C22.426,5.533 21.722,6.686 19.225,6.686 L19.225,6.686 Z M28.201,0.684 C27.193,0.684 26.44,0.796 25.928,0.956 C25.528,1.084 25.416,1.324 25.416,1.724 L25.416,11.424 C25.416,11.824 25.672,12.064 26.024,12.064 C26.376,12.064 26.648,11.824 26.648,11.424 L26.648,7.806 C27.176,7.838 27.481,7.854 28.121,7.854 C31.002,7.854 32.523,6.461 32.523,4.188 C32.523,2.172 31.194,0.684 28.201,0.684 L28.201,0.684 Z M28.057,6.686 C27.465,6.686 27.177,6.686 26.648,6.654 L26.648,1.98 C27.096,1.916 27.641,1.852 28.169,1.852 C30.442,1.852 31.258,2.94 31.258,4.221 C31.258,5.533 30.554,6.686 28.057,6.686 L28.057,6.686 Z M13.675,0.748 C13.307,0.748 13.051,1.004 13.051,1.404 L13.051,10.159 C12.218,10.703 11.034,10.928 10.314,10.928 C8.457,10.928 7.321,10.015 7.321,7.95 L7.321,1.404 C7.321,1.004 7.065,0.748 6.713,0.748 C6.361,0.748 6.089,1.004 6.089,1.404 L6.089,8.191 C6.089,10.528 7.546,12.129 10.074,12.129 C11.883,12.129 12.923,11.649 13.852,11.121 C14.204,10.913 14.284,10.641 14.284,10.257 L14.284,1.405 C14.284,1.003 14.027,0.748 13.675,0.748 L13.675,0.748 Z M40.25,10.784 L35.48,10.784 L35.48,6.926 L39.354,6.926 C39.738,6.926 39.946,6.606 39.946,6.334 C39.946,6.046 39.738,5.758 39.354,5.758 L35.48,5.758 L35.48,2.029 L40.09,2.029 C40.506,2.029 40.73,1.757 40.73,1.453 C40.73,1.117 40.506,0.813 40.09,0.813 L35.304,0.813 C34.616,0.813 34.247,1.181 34.247,1.773 L34.247,11.041 C34.247,11.633 34.615,12.001 35.304,12.001 L40.25,12.001 C40.634,12.001 40.858,11.665 40.858,11.393 C40.859,11.056 40.635,10.784 40.25,10.784 L40.25,10.784 Z M91.817,10.815 L87.511,10.815 L87.511,1.403 C87.511,1.003 87.255,0.747 86.903,0.747 C86.55,0.747 86.278,1.003 86.278,1.403 L86.278,11.039 C86.278,11.631 86.646,11.999 87.335,11.999 L91.816,11.999 C92.216,11.999 92.472,11.727 92.472,11.391 C92.474,11.087 92.234,10.815 91.817,10.815 L91.817,10.815 Z M84.201,10.815 L79.895,10.815 L79.895,1.403 C79.895,1.003 79.639,0.747 79.287,0.747 C78.934,0.747 78.662,1.003 78.662,1.403 L78.662,11.039 C78.662,11.631 79.03,11.999 79.719,11.999 L84.2,11.999 C84.6,11.999 84.856,11.727 84.856,11.391 C84.857,11.087 84.618,10.815 84.201,10.815 L84.201,10.815 Z M74.089,2.22 C73.465,0.971 72.969,0.603 72.408,0.603 C71.848,0.603 71.352,0.971 70.727,2.22 C69.831,4.029 69.143,6.302 67.974,10.928 C67.91,11.152 67.878,11.328 67.878,11.44 C67.878,11.824 68.134,12.064 68.486,12.064 C68.774,12.064 68.982,11.888 69.062,11.552 C69.366,10.176 69.67,8.943 69.975,7.886 L74.841,7.886 C75.129,8.943 75.433,10.175 75.754,11.552 C75.834,11.888 76.042,12.064 76.33,12.064 C76.682,12.064 76.938,11.824 76.938,11.44 C76.938,11.328 76.89,11.152 76.842,10.928 C75.706,6.302 74.986,4.029 74.089,2.22 L74.089,2.22 Z M70.296,6.766 C71.032,4.317 71.689,2.796 72.201,1.996 C72.249,1.932 72.297,1.868 72.409,1.868 C72.521,1.868 72.569,1.932 72.617,1.996 C73.129,2.796 73.769,4.317 74.506,6.766 L70.296,6.766 L70.296,6.766 Z M48.298,7.886 C48.01,7.47 47.69,7.15 47.322,6.91 C48.747,6.413 49.675,5.421 49.675,3.901 C49.675,1.964 48.363,0.684 45.466,0.684 C44.362,0.684 43.609,0.796 43.097,0.956 C42.697,1.084 42.585,1.324 42.585,1.724 L42.585,11.424 C42.585,11.824 42.857,12.064 43.21,12.064 C43.562,12.064 43.834,11.824 43.834,11.424 L43.834,7.246 L45.083,7.246 C46.251,7.246 46.716,7.726 47.292,8.655 C47.692,9.295 48.108,10.223 48.604,11.616 C48.7,11.872 48.876,12.064 49.212,12.064 C49.548,12.064 49.837,11.824 49.837,11.44 C49.837,11.328 49.805,11.168 49.741,11.008 C49.307,9.855 48.794,8.655 48.298,7.886 L48.298,7.886 Z M45.273,6.03 L43.833,6.03 L43.833,1.996 C44.281,1.932 44.713,1.868 45.402,1.868 C47.691,1.868 48.411,2.764 48.411,3.949 C48.41,5.598 46.858,6.078 45.273,6.03 L45.273,6.03 Z M65.531,2.044 C65.419,1.211 65.131,0.748 64.475,0.748 C63.85,0.748 63.579,1.116 63.402,1.58 C62.586,3.789 61.69,6.622 60.713,9.247 L60.697,9.247 C59.689,6.766 58.905,4.157 57.88,1.724 C57.656,1.116 57.384,0.748 56.759,0.748 C56.103,0.748 55.799,1.196 55.703,2.077 C55.35,5.006 55.159,8.175 55.175,11.425 C55.159,11.809 55.399,12.065 55.751,12.065 C56.103,12.065 56.375,11.841 56.375,11.409 C56.359,8.336 56.551,5.359 56.888,2.366 L56.904,2.366 C57.881,4.991 58.825,7.632 59.865,10.257 C59.993,10.593 60.265,10.833 60.681,10.833 C61.081,10.833 61.385,10.593 61.513,10.257 C62.537,7.712 63.418,5.007 64.346,2.366 L64.362,2.366 C64.779,5.391 64.938,8.368 65.018,11.345 C65.018,11.793 65.242,12.065 65.659,12.065 C66.011,12.065 66.235,11.777 66.235,11.393 C66.235,11.265 66.219,11.025 66.219,10.913 C66.188,7.87 65.932,4.813 65.531,2.044 L65.531,2.044 Z M65.531,2.044" class="Shape"/>
                <path d="M411.562,97.75 L410.978,97.028 L407.22,100.07 L405.534,97.987 L408.919,95.246 L408.337,94.528 L404.952,97.269 L403.434,95.395 L407.049,92.468 L406.464,91.746 L402.039,95.329 L406.994,101.448 L411.562,97.75 L411.562,97.75 Z M425.774,85.418 C426.479,85.506 427.142,85.298 427.763,84.796 C428.15,84.483 428.434,84.103 428.614,83.658 C428.796,83.212 428.839,82.757 428.745,82.291 C428.651,81.825 428.372,81.308 427.911,80.737 C427.341,80.033 426.702,79.637 425.991,79.551 C425.28,79.465 424.621,79.668 424.012,80.162 C423.464,80.606 423.132,81.147 423.017,81.784 C422.88,82.548 423.144,83.342 423.809,84.162 C424.415,84.912 425.07,85.33 425.774,85.418 L425.774,85.418 Z M424.516,80.785 C424.886,80.485 425.31,80.375 425.788,80.456 C426.265,80.537 426.726,80.852 427.17,81.4 C427.641,81.982 427.867,82.514 427.851,82.998 C427.831,83.483 427.636,83.876 427.264,84.178 C426.888,84.482 426.462,84.594 425.986,84.511 C425.51,84.428 425.043,84.104 424.582,83.536 C424.123,82.968 423.902,82.444 423.923,81.962 C423.94,81.482 424.14,81.089 424.516,80.785 L424.516,80.785 Z M396.784,116.571 L400.674,121.376 L393.57,119.175 L392.74,119.847 L397.695,125.967 L398.47,125.338 L394.576,120.529 L401.684,122.735 L402.514,122.063 L397.559,115.943 L396.784,116.571 L396.784,116.571 Z M419.505,83.979 L419.978,84.563 L420.529,84.117 L422.595,86.668 C422.96,87.119 423.23,87.389 423.405,87.48 C423.58,87.571 423.777,87.599 423.998,87.563 C424.219,87.527 424.465,87.399 424.737,87.179 C424.904,87.044 425.075,86.868 425.251,86.652 L424.605,86.076 C424.484,86.206 424.382,86.305 424.298,86.372 C424.187,86.462 424.087,86.513 423.997,86.526 C423.908,86.539 423.825,86.524 423.75,86.484 C423.674,86.444 423.549,86.318 423.375,86.104 L421.276,83.512 L422.032,82.9 L421.558,82.316 L420.802,82.928 L419.548,81.379 L419.166,82.435 L420.055,83.533 L419.505,83.979 L419.505,83.979 Z M412.083,97.328 L412.994,96.591 L412.741,93.899 L413.285,94.074 L415.309,94.715 L416.233,93.968 L412.684,92.958 L412.526,89.63 L411.628,90.357 L411.73,92.01 C411.742,92.235 411.761,92.489 411.789,92.772 C411.601,92.702 411.365,92.62 411.077,92.526 L409.555,92.037 L408.616,92.798 L411.839,93.713 L412.083,97.328 L412.083,97.328 Z M416.862,93.458 L417.614,92.85 L414.024,88.417 L413.272,89.025 L416.862,93.458 L416.862,93.458 Z M413.358,87.594 L412.659,86.73 L411.907,87.338 L412.607,88.202 L413.358,87.594 L413.358,87.594 Z M414.755,87.825 L415.229,88.409 L415.78,87.963 L417.845,90.514 C418.21,90.965 418.48,91.236 418.656,91.326 C418.831,91.417 419.028,91.445 419.248,91.409 C419.469,91.373 419.716,91.245 419.988,91.024 C420.155,90.889 420.326,90.713 420.502,90.498 L419.856,89.922 C419.735,90.052 419.633,90.151 419.55,90.218 C419.439,90.308 419.338,90.359 419.248,90.372 C419.16,90.384 419.078,90.37 419.002,90.33 C418.926,90.29 418.801,90.164 418.627,89.95 L416.527,87.358 L417.283,86.746 L416.81,86.162 L416.054,86.774 L414.8,85.225 L414.417,86.28 L415.306,87.378 L414.755,87.825 L414.755,87.825 Z M405.659,117.152 C405.802,117.562 405.834,117.918 405.756,118.22 C405.679,118.522 405.503,118.785 405.228,119.009 C404.857,119.309 404.443,119.429 403.986,119.371 C403.529,119.312 403.09,119.051 402.668,118.586 L405.975,115.909 C405.905,115.818 405.852,115.749 405.816,115.705 C405.223,114.973 404.577,114.558 403.874,114.458 C403.172,114.358 402.524,114.549 401.931,115.03 C401.32,115.525 400.988,116.134 400.938,116.857 C400.887,117.579 401.164,118.315 401.767,119.06 C402.351,119.781 402.995,120.186 403.698,120.279 C404.402,120.37 405.077,120.154 405.726,119.628 C406.24,119.211 406.562,118.744 406.691,118.225 C406.818,117.707 406.76,117.17 406.515,116.619 L405.659,117.152 L405.659,117.152 Z M402.208,117.936 C401.921,117.528 401.8,117.115 401.849,116.693 C401.896,116.271 402.093,115.921 402.439,115.641 C402.82,115.333 403.247,115.226 403.72,115.322 C404.027,115.383 404.348,115.585 404.683,115.931 L402.208,117.936 L402.208,117.936 Z M428.47,98.681 C428.614,99.09 428.646,99.447 428.568,99.749 C428.49,100.051 428.314,100.314 428.039,100.537 C427.669,100.837 427.255,100.957 426.798,100.899 C426.342,100.84 425.901,100.579 425.48,100.114 L428.786,97.437 C428.716,97.346 428.663,97.277 428.628,97.233 C428.034,96.501 427.388,96.086 426.685,95.987 C425.984,95.887 425.335,96.077 424.742,96.558 C424.131,97.053 423.801,97.662 423.75,98.385 C423.699,99.107 423.975,99.843 424.578,100.588 C425.162,101.309 425.807,101.714 426.51,101.807 C427.213,101.898 427.889,101.682 428.537,101.156 C429.052,100.739 429.373,100.272 429.502,99.753 C429.631,99.235 429.572,98.699 429.327,98.147 L428.47,98.681 L428.47,98.681 Z M425.019,99.463 C424.732,99.056 424.612,98.642 424.66,98.22 C424.709,97.798 424.905,97.448 425.25,97.168 C425.631,96.86 426.059,96.753 426.533,96.849 C426.839,96.91 427.16,97.112 427.496,97.458 L425.019,99.463 L425.019,99.463 Z M446.522,84.062 C446.666,84.472 446.698,84.828 446.62,85.13 C446.542,85.432 446.366,85.695 446.091,85.919 C445.721,86.219 445.307,86.339 444.85,86.281 C444.394,86.223 443.954,85.962 443.533,85.497 L446.839,82.82 C446.769,82.729 446.716,82.661 446.681,82.616 C446.087,81.884 445.442,81.469 444.739,81.369 C444.038,81.269 443.388,81.46 442.796,81.94 C442.185,82.436 441.856,83.044 441.804,83.767 C441.753,84.49 442.03,85.225 442.632,85.971 C443.216,86.692 443.861,87.097 444.565,87.19 C445.267,87.281 445.944,87.065 446.591,86.539 C447.107,86.122 447.427,85.654 447.556,85.135 C447.685,84.617 447.626,84.081 447.381,83.529 L446.522,84.062 L446.522,84.062 Z M443.071,84.845 C442.784,84.437 442.665,84.024 442.712,83.602 C442.761,83.18 442.957,82.83 443.302,82.55 C443.683,82.241 444.112,82.135 444.585,82.231 C444.891,82.292 445.212,82.494 445.548,82.84 L443.071,84.845 L443.071,84.845 Z M440.077,86.351 C439.991,86.13 439.973,85.918 440.023,85.713 C440.075,85.509 440.181,85.339 440.345,85.207 C440.53,85.059 440.756,84.964 441.029,84.924 L440.722,84.017 C440.329,84.068 440.007,84.195 439.753,84.4 C439.577,84.543 439.458,84.722 439.394,84.942 C439.33,85.16 439.337,85.496 439.418,85.951 L438.874,85.279 L438.198,85.826 L441.788,90.259 L442.54,89.651 L440.66,87.33 C440.405,87.011 440.21,86.686 440.077,86.351 L440.077,86.351 Z M451.278,80.211 C451.421,80.621 451.452,80.977 451.375,81.279 C451.298,81.581 451.121,81.844 450.846,82.067 C450.476,82.367 450.063,82.488 449.606,82.429 C449.149,82.37 448.71,82.109 448.288,81.645 L451.594,78.968 C451.526,78.877 451.472,78.809 451.435,78.764 C450.843,78.032 450.197,77.617 449.494,77.517 C448.792,77.417 448.144,77.608 447.552,78.088 C446.941,78.583 446.61,79.192 446.558,79.915 C446.508,80.638 446.786,81.373 447.388,82.119 C447.972,82.84 448.616,83.245 449.319,83.338 C450.023,83.429 450.698,83.213 451.346,82.687 C451.862,82.27 452.183,81.803 452.311,81.284 C452.44,80.766 452.38,80.23 452.136,79.678 L451.278,80.211 L451.278,80.211 Z M447.827,80.995 C447.539,80.587 447.419,80.174 447.467,79.752 C447.515,79.33 447.712,78.981 448.058,78.701 C448.44,78.392 448.867,78.285 449.339,78.382 C449.647,78.443 449.966,78.645 450.302,78.991 L447.827,80.995 L447.827,80.995 Z M409.757,108.857 L411.073,112.035 L411.511,113.097 L410.605,112.429 L407.859,110.395 L407.086,111.021 L408.482,114.188 C408.796,114.864 408.966,115.231 408.994,115.288 L407.961,114.549 L405.184,112.562 L404.407,113.191 L409.353,116.526 L410.137,115.89 L408.274,111.752 L409.057,112.37 L411.912,114.453 L412.691,113.821 L410.488,108.266 L409.757,108.857 L409.757,108.857 Z M440.214,90.47 C440.102,90.56 440.001,90.612 439.912,90.624 C439.823,90.636 439.741,90.622 439.665,90.582 C439.589,90.542 439.464,90.415 439.29,90.201 L437.19,87.609 L437.946,86.997 L437.472,86.413 L436.716,87.025 L435.462,85.476 L435.08,86.532 L435.969,87.63 L435.417,88.076 L435.891,88.66 L436.443,88.214 L438.506,90.764 C438.871,91.215 439.141,91.486 439.318,91.576 C439.494,91.667 439.691,91.695 439.91,91.659 C440.131,91.624 440.378,91.495 440.65,91.275 C440.817,91.14 440.988,90.965 441.164,90.749 L440.518,90.173 C440.397,90.304 440.296,90.403 440.214,90.47 L440.214,90.47 Z M455.25,78.246 C455.129,78.376 455.027,78.474 454.944,78.542 C454.833,78.632 454.731,78.684 454.642,78.696 C454.552,78.708 454.47,78.694 454.394,78.654 C454.319,78.615 454.194,78.488 454.019,78.274 L451.919,75.682 L452.675,75.07 L452.202,74.486 L451.446,75.098 L450.192,73.549 L449.811,74.605 L450.7,75.703 L450.148,76.149 L450.622,76.733 L451.173,76.287 L453.238,78.837 C453.602,79.288 453.873,79.559 454.048,79.649 C454.224,79.74 454.421,79.769 454.641,79.732 C454.862,79.697 455.11,79.568 455.38,79.348 C455.548,79.213 455.718,79.038 455.894,78.822 L455.25,78.246 L455.25,78.246 Z M436.054,90.601 C435.68,90.487 435.249,90.492 434.76,90.616 C434.425,90.703 433.868,90.939 433.089,91.323 C432.311,91.707 431.786,91.891 431.515,91.876 C431.242,91.862 431.015,91.746 430.837,91.526 C430.632,91.273 430.569,90.965 430.648,90.605 C430.726,90.244 431.011,89.865 431.502,89.468 C431.972,89.087 432.407,88.899 432.808,88.901 C433.209,88.904 433.586,89.082 433.942,89.434 L434.671,88.747 C434.366,88.399 434.007,88.159 433.59,88.026 C433.174,87.893 432.734,87.894 432.269,88.028 C431.804,88.162 431.345,88.413 430.892,88.78 C430.48,89.114 430.162,89.486 429.937,89.898 C429.714,90.31 429.624,90.721 429.665,91.131 C429.707,91.541 429.853,91.902 430.103,92.21 C430.332,92.491 430.608,92.687 430.935,92.797 C431.262,92.908 431.634,92.922 432.05,92.838 C432.372,92.775 432.868,92.584 433.54,92.263 C434.211,91.943 434.655,91.748 434.871,91.68 C435.206,91.57 435.487,91.542 435.714,91.595 C435.943,91.648 436.133,91.771 436.288,91.963 C436.442,92.152 436.525,92.374 436.54,92.627 C436.554,92.88 436.478,93.149 436.317,93.433 C436.155,93.717 435.92,93.983 435.609,94.233 C435.261,94.514 434.9,94.708 434.523,94.812 C434.147,94.916 433.813,94.924 433.522,94.834 C433.231,94.745 432.944,94.563 432.66,94.286 L431.95,94.971 C432.293,95.371 432.701,95.647 433.178,95.799 C433.653,95.951 434.143,95.956 434.648,95.815 C435.153,95.673 435.682,95.377 436.237,94.929 C436.673,94.575 437.001,94.177 437.22,93.734 C437.44,93.292 437.527,92.851 437.481,92.412 C437.433,91.973 437.278,91.591 437.013,91.266 C436.747,90.937 436.427,90.715 436.054,90.601 L436.054,90.601 Z M417.839,108.657 L414.736,104.825 L414.044,105.387 L414.476,105.921 C413.794,105.773 413.192,105.911 412.669,106.335 C412.276,106.652 412.014,107.027 411.88,107.457 C411.747,107.887 411.749,108.344 411.886,108.825 C412.023,109.306 412.261,109.759 412.605,110.181 C413.103,110.796 413.697,111.188 414.386,111.357 C415.076,111.526 415.726,111.365 416.335,110.871 C416.825,110.475 417.077,109.95 417.093,109.297 C417.491,109.785 417.734,110.121 417.82,110.305 C417.955,110.61 417.985,110.909 417.909,111.201 C417.833,111.493 417.621,111.78 417.273,112.061 C416.949,112.323 416.638,112.459 416.339,112.472 C416.116,112.481 415.899,112.386 415.686,112.185 L414.867,112.668 C415.244,113.156 415.692,113.386 416.209,113.361 C416.729,113.335 417.252,113.108 417.78,112.68 C418.226,112.319 418.533,111.932 418.702,111.519 C418.872,111.105 418.91,110.698 418.817,110.295 C418.724,109.894 418.398,109.347 417.839,108.657 L417.839,108.657 Z M415.902,110.191 C415.555,110.472 415.157,110.573 414.71,110.493 C414.263,110.412 413.803,110.082 413.332,109.501 C412.899,108.967 412.689,108.469 412.704,108.008 C412.718,107.548 412.892,107.182 413.225,106.912 C413.565,106.637 413.967,106.539 414.43,106.62 C414.894,106.701 415.346,107.012 415.785,107.555 C416.245,108.123 416.465,108.634 416.447,109.089 C416.429,109.545 416.248,109.912 415.902,110.191 L415.902,110.191 Z M421.548,103.575 L420.736,102.573 C420.466,102.239 420.267,102.018 420.138,101.91 C419.926,101.74 419.71,101.632 419.49,101.588 C419.269,101.543 419.006,101.572 418.697,101.674 C418.388,101.777 418.045,101.982 417.666,102.288 C417.285,102.596 416.992,102.92 416.786,103.259 C416.582,103.598 416.482,103.925 416.485,104.243 C416.488,104.56 416.584,104.902 416.772,105.271 L417.587,104.776 C417.413,104.396 417.36,104.077 417.428,103.816 C417.496,103.556 417.707,103.283 418.061,102.997 C418.439,102.69 418.794,102.544 419.123,102.559 C419.367,102.569 419.611,102.727 419.859,103.033 C419.882,103.061 419.933,103.128 420.015,103.233 C419.808,103.566 419.431,104.013 418.884,104.577 C418.614,104.854 418.423,105.073 418.307,105.231 C418.152,105.449 418.038,105.677 417.966,105.915 C417.894,106.153 417.88,106.403 417.927,106.662 C417.974,106.921 418.085,107.16 418.261,107.376 C418.56,107.746 418.937,107.944 419.392,107.97 C419.847,107.996 420.317,107.812 420.804,107.418 C421.099,107.179 421.335,106.907 421.514,106.601 C421.693,106.295 421.826,105.911 421.911,105.45 C422.102,105.64 422.3,105.782 422.505,105.875 L423.29,105.24 C423.058,105.147 422.851,105.021 422.669,104.862 C422.487,104.701 422.112,104.273 421.548,103.575 L421.548,103.575 Z M421.125,105.868 C421.001,106.178 420.796,106.45 420.507,106.684 C420.214,106.92 419.939,107.033 419.679,107.022 C419.419,107.012 419.208,106.906 419.046,106.706 C418.94,106.575 418.878,106.428 418.86,106.265 C418.842,106.101 418.876,105.94 418.959,105.78 C419.042,105.621 419.221,105.393 419.493,105.1 C419.975,104.58 420.307,104.154 420.491,103.822 L420.714,104.097 C420.983,104.429 421.144,104.712 421.2,104.947 C421.273,105.252 421.247,105.56 421.125,105.868 L421.125,105.868 Z M425.007,102.784 C424.896,102.874 424.795,102.926 424.706,102.938 C424.616,102.95 424.534,102.936 424.458,102.896 C424.382,102.856 424.257,102.73 424.083,102.516 L421.984,99.924 L422.74,99.312 L422.266,98.728 L421.51,99.34 L420.256,97.791 L419.875,98.847 L420.764,99.945 L420.213,100.391 L420.686,100.975 L421.237,100.529 L423.303,103.079 C423.668,103.53 423.938,103.801 424.113,103.891 C424.288,103.982 424.486,104.01 424.706,103.974 C424.926,103.938 425.173,103.81 425.445,103.589 C425.612,103.454 425.783,103.279 425.958,103.063 L425.313,102.487 C425.192,102.618 425.091,102.716 425.007,102.784 L425.007,102.784 Z M425.007,102.784" class="Shape"/>
                <path d="M299.385,44.201 C299.625,44.835 299.668,45.403 299.512,45.906 C299.356,46.408 299.033,46.819 298.543,47.137 C298.141,47.398 297.7,47.537 297.221,47.554 C296.741,47.571 296.283,47.424 295.847,47.11 C295.411,46.798 295.01,46.36 294.647,45.799 C294.364,45.364 294.159,44.897 294.03,44.397 C293.903,43.897 293.93,43.415 294.112,42.951 C294.296,42.487 294.64,42.089 295.148,41.76 C295.589,41.473 296.027,41.345 296.46,41.375 C296.895,41.405 297.344,41.611 297.809,41.991 L298.538,41.229 C297.965,40.735 297.343,40.466 296.674,40.422 C296.006,40.379 295.341,40.571 294.68,41 C294.098,41.378 293.651,41.858 293.338,42.438 C293.026,43.019 292.904,43.651 292.973,44.334 C293.043,45.017 293.301,45.702 293.748,46.389 C294.157,47.02 294.656,47.535 295.246,47.933 C295.836,48.331 296.448,48.531 297.082,48.531 C297.717,48.531 298.391,48.3 299.102,47.838 C299.79,47.391 300.248,46.825 300.481,46.139 C300.711,45.453 300.686,44.692 300.403,43.855 L299.385,44.201 L299.385,44.201 Z M298.429,38.726 L302.717,45.33 L303.529,44.804 L299.241,38.2 L298.429,38.726 L298.429,38.726 Z M307.357,39.466 L306.654,38.385 C306.421,38.025 306.246,37.784 306.129,37.663 C305.936,37.472 305.733,37.342 305.519,37.275 C305.303,37.207 305.038,37.209 304.72,37.278 C304.403,37.347 304.039,37.515 303.631,37.78 C303.22,38.047 302.895,38.339 302.654,38.654 C302.416,38.969 302.281,39.285 302.252,39.601 C302.222,39.917 302.281,40.268 302.43,40.654 L303.293,40.247 C303.159,39.851 303.141,39.528 303.235,39.276 C303.33,39.025 303.567,38.775 303.949,38.527 C304.357,38.261 304.725,38.153 305.051,38.202 C305.293,38.237 305.52,38.42 305.735,38.751 C305.755,38.781 305.798,38.853 305.868,38.965 C305.63,39.274 305.207,39.68 304.603,40.183 C304.307,40.431 304.092,40.628 303.961,40.773 C303.783,40.974 303.648,41.189 303.551,41.418 C303.453,41.647 303.414,41.894 303.434,42.156 C303.454,42.419 303.539,42.668 303.692,42.902 C303.952,43.301 304.305,43.537 304.754,43.611 C305.203,43.684 305.691,43.551 306.217,43.209 C306.533,43.003 306.798,42.756 307.007,42.471 C307.217,42.185 307.389,41.817 307.524,41.367 C307.694,41.577 307.876,41.738 308.069,41.852 L308.917,41.302 C308.696,41.185 308.503,41.038 308.339,40.861 C308.174,40.685 307.847,40.22 307.357,39.466 L307.357,39.466 Z M306.697,41.704 C306.542,41.999 306.308,42.248 305.996,42.451 C305.682,42.656 305.395,42.739 305.138,42.701 C304.881,42.663 304.682,42.536 304.541,42.32 C304.449,42.179 304.404,42.026 304.403,41.862 C304.403,41.697 304.453,41.541 304.552,41.39 C304.652,41.24 304.852,41.033 305.154,40.769 C305.687,40.303 306.062,39.914 306.28,39.602 L306.472,39.899 C306.704,40.256 306.836,40.555 306.868,40.795 C306.909,41.106 306.852,41.41 306.697,41.704 L306.697,41.704 Z M314.558,15.099 L314.967,15.73 L315.562,15.344 L317.35,18.096 C317.665,18.583 317.905,18.88 318.071,18.989 C318.235,19.098 318.428,19.147 318.651,19.135 C318.874,19.122 319.132,19.021 319.426,18.83 C319.606,18.713 319.795,18.556 319.992,18.36 L319.41,17.719 C319.275,17.836 319.165,17.923 319.074,17.982 C318.955,18.06 318.848,18.101 318.76,18.104 C318.669,18.107 318.589,18.084 318.518,18.037 C318.446,17.99 318.335,17.851 318.185,17.62 L316.368,14.823 L317.184,14.293 L316.774,13.662 L315.96,14.192 L314.874,12.521 L314.384,13.531 L315.154,14.716 L314.558,15.099 L314.558,15.099 Z M319.684,11.771 L320.092,12.402 L320.688,12.016 L322.475,14.768 C322.791,15.255 323.031,15.553 323.196,15.661 C323.361,15.77 323.554,15.818 323.776,15.806 C323.999,15.794 324.258,15.692 324.551,15.501 C324.732,15.384 324.92,15.227 325.117,15.031 L324.535,14.391 C324.4,14.508 324.291,14.595 324.2,14.653 C324.08,14.731 323.974,14.772 323.885,14.775 C323.796,14.778 323.715,14.755 323.643,14.708 C323.572,14.661 323.46,14.522 323.31,14.291 L321.493,11.494 L322.309,10.964 L321.9,10.333 L321.085,10.863 L319.999,9.192 L319.509,10.201 L320.279,11.386 L319.684,11.771 L319.684,11.771 Z M316.064,20.921 L316.875,20.395 L313.77,15.611 L312.958,16.137 L316.064,20.921 L316.064,20.921 Z M313.192,14.724 L312.587,13.791 L311.775,14.317 L312.38,15.25 L313.192,14.724 L313.192,14.724 Z M310.906,24.271 L311.888,23.632 L311.919,20.929 L312.44,21.16 L314.387,22.009 L315.383,21.362 L311.959,19.987 L312.15,16.661 L311.181,17.29 L311.108,18.945 C311.097,19.17 311.089,19.424 311.086,19.708 C310.908,19.619 310.682,19.512 310.404,19.389 L308.943,18.744 L307.929,19.402 L311.036,20.65 L310.906,24.271 L310.906,24.271 Z M310.344,24.637 L309.838,23.858 L305.783,26.491 L304.324,24.243 L307.976,21.871 L307.473,21.096 L303.82,23.468 L302.508,21.446 L306.408,18.913 L305.902,18.134 L301.127,21.235 L305.416,27.839 L310.344,24.637 L310.344,24.637 Z M328.776,12.404 C329.002,11.979 329.092,11.531 329.048,11.059 C329.003,10.585 328.78,10.041 328.381,9.426 C327.888,8.667 327.293,8.206 326.595,8.047 C325.898,7.887 325.221,8.021 324.564,8.448 C323.972,8.832 323.585,9.336 323.404,9.956 C323.189,10.702 323.369,11.519 323.943,12.405 C324.468,13.213 325.076,13.697 325.767,13.859 C326.46,14.02 327.14,13.883 327.81,13.448 C328.229,13.176 328.55,12.829 328.776,12.404 L328.776,12.404 Z M327.378,12.781 C326.973,13.045 326.537,13.111 326.072,12.979 C325.607,12.847 325.176,12.475 324.777,11.863 C324.38,11.25 324.215,10.706 324.286,10.229 C324.355,9.752 324.594,9.382 325,9.119 C325.399,8.86 325.832,8.795 326.299,8.926 C326.766,9.056 327.192,9.417 327.575,10.009 C327.982,10.637 328.152,11.191 328.084,11.671 C328.016,12.151 327.779,12.52 327.378,12.781 L327.378,12.781 Z M310.732,33.323 L309.92,33.849 L310.708,37.302 C310.81,37.74 310.935,38.176 311.083,38.608 C310.729,38.287 310.374,37.993 310.017,37.725 L307.222,35.601 L306.349,36.168 L311.277,39.783 C311.3,39.891 311.319,39.973 311.334,40.027 C311.429,40.423 311.477,40.678 311.479,40.792 C311.479,40.945 311.446,41.087 311.376,41.217 C311.307,41.348 311.182,41.471 311.002,41.588 C310.87,41.674 310.699,41.75 310.49,41.817 L311.075,42.52 C311.31,42.461 311.506,42.381 311.662,42.28 C311.921,42.112 312.102,41.906 312.207,41.66 C312.313,41.414 312.352,41.111 312.322,40.75 C312.301,40.482 312.218,40.021 312.072,39.369 L310.732,33.323 L310.732,33.323 Z M337.328,17.947 C337.266,17.718 337.271,17.505 337.342,17.307 C337.414,17.109 337.539,16.952 337.716,16.837 C337.914,16.708 338.151,16.638 338.425,16.627 L338.215,15.693 C337.82,15.702 337.486,15.796 337.213,15.972 C337.024,16.096 336.885,16.262 336.797,16.472 C336.71,16.682 336.684,17.018 336.717,17.478 L336.246,16.753 L335.517,17.227 L338.623,22.011 L339.435,21.484 L337.809,18.98 C337.586,18.638 337.426,18.294 337.328,17.947 L337.328,17.947 Z M337.033,22.057 C336.914,22.135 336.808,22.176 336.719,22.179 C336.629,22.182 336.548,22.159 336.477,22.112 C336.406,22.065 336.294,21.925 336.145,21.694 L334.328,18.897 L335.143,18.367 L334.733,17.737 L333.919,18.267 L332.833,16.596 L332.343,17.606 L333.113,18.791 L332.518,19.177 L332.927,19.807 L333.523,19.421 L335.31,22.173 C335.626,22.659 335.866,22.957 336.031,23.066 C336.196,23.175 336.388,23.224 336.611,23.211 C336.834,23.199 337.093,23.097 337.386,22.906 C337.567,22.789 337.755,22.633 337.952,22.436 L337.37,21.796 C337.234,21.912 337.124,21.999 337.033,22.057 L337.033,22.057 Z M353.266,11.472 C353.131,11.589 353.02,11.676 352.93,11.734 C352.81,11.812 352.705,11.853 352.615,11.856 C352.526,11.859 352.445,11.836 352.374,11.79 C352.302,11.743 352.19,11.603 352.041,11.372 L350.224,8.575 L351.04,8.045 L350.63,7.415 L349.815,7.945 L348.73,6.274 L348.24,7.284 L349.01,8.469 L348.415,8.855 L348.824,9.485 L349.42,9.099 L351.207,11.851 C351.523,12.337 351.763,12.636 351.928,12.744 C352.092,12.853 352.285,12.902 352.508,12.889 C352.731,12.877 352.99,12.775 353.283,12.584 C353.464,12.467 353.652,12.311 353.849,12.115 L353.266,11.472 L353.266,11.472 Z M349.109,13.012 C349.209,13.434 349.203,13.792 349.094,14.084 C348.985,14.376 348.782,14.62 348.485,14.813 C348.086,15.073 347.662,15.149 347.213,15.043 C346.765,14.937 346.355,14.632 345.984,14.126 L349.55,11.809 C349.49,11.711 349.446,11.638 349.415,11.59 C348.901,10.8 348.301,10.319 347.612,10.148 C346.924,9.976 346.26,10.097 345.62,10.513 C344.96,10.942 344.567,11.513 344.441,12.226 C344.315,12.94 344.512,13.699 345.036,14.504 C345.541,15.282 346.14,15.753 346.829,15.918 C347.518,16.082 348.214,15.938 348.913,15.483 C349.469,15.122 349.837,14.691 350.019,14.188 C350.201,13.686 350.199,13.147 350.012,12.572 L349.109,13.012 L349.109,13.012 Z M345.367,12.156 C345.459,11.742 345.691,11.414 346.064,11.173 C346.474,10.906 346.912,10.844 347.373,10.989 C347.671,11.081 347.969,11.317 348.268,11.696 L345.596,13.431 C345.352,12.995 345.275,12.57 345.367,12.156 L345.367,12.156 Z M343.979,16.343 C344.079,16.765 344.074,17.123 343.965,17.416 C343.856,17.708 343.653,17.951 343.356,18.145 C342.956,18.404 342.532,18.481 342.084,18.375 C341.636,18.269 341.226,17.963 340.855,17.457 L344.422,15.14 C344.362,15.042 344.318,14.969 344.286,14.921 C343.772,14.131 343.173,13.65 342.483,13.478 C341.795,13.306 341.132,13.427 340.492,13.843 C339.832,14.272 339.438,14.843 339.313,15.557 C339.186,16.27 339.384,17.03 339.907,17.835 C340.413,18.613 341.011,19.084 341.7,19.249 C342.389,19.414 343.085,19.269 343.785,18.814 C344.341,18.453 344.709,18.022 344.891,17.519 C345.073,17.017 345.071,16.477 344.884,15.903 L343.979,16.343 L343.979,16.343 Z M340.237,15.487 C340.329,15.073 340.56,14.745 340.933,14.504 C341.344,14.237 341.781,14.175 342.242,14.32 C342.541,14.412 342.839,14.648 343.137,15.027 L340.465,16.762 C340.223,16.326 340.145,15.902 340.237,15.487 L340.237,15.487 Z M315.492,36.046 C315.371,36.124 315.266,36.165 315.176,36.168 C315.087,36.171 315.006,36.148 314.936,36.101 C314.864,36.054 314.752,35.914 314.602,35.683 L312.786,32.886 L313.602,32.357 L313.192,31.727 L312.376,32.256 L311.292,30.585 L310.802,31.595 L311.572,32.78 L310.976,33.166 L311.386,33.796 L311.981,33.41 L313.769,36.162 C314.084,36.648 314.324,36.947 314.49,37.055 C314.654,37.164 314.847,37.213 315.07,37.2 C315.293,37.188 315.551,37.086 315.845,36.895 C316.025,36.778 316.214,36.622 316.411,36.425 L315.828,35.785 C315.693,35.901 315.582,35.988 315.492,36.046 L315.492,36.046 Z M317.889,29.441 C317.192,29.281 316.514,29.415 315.856,29.841 C315.265,30.225 314.878,30.729 314.698,31.35 C314.482,32.096 314.662,32.912 315.237,33.798 C315.761,34.606 316.37,35.09 317.061,35.252 C317.752,35.414 318.434,35.277 319.104,34.842 C319.522,34.571 319.842,34.223 320.069,33.799 C320.296,33.375 320.385,32.926 320.341,32.454 C320.297,31.98 320.074,31.436 319.674,30.821 C319.182,30.061 318.586,29.601 317.889,29.441 L317.889,29.441 Z M319.377,33.063 C319.308,33.543 319.072,33.914 318.67,34.175 C318.265,34.439 317.829,34.505 317.364,34.373 C316.899,34.241 316.468,33.87 316.07,33.257 C315.672,32.645 315.508,32.1 315.578,31.623 C315.648,31.146 315.887,30.776 316.291,30.513 C316.691,30.254 317.125,30.189 317.592,30.32 C318.059,30.45 318.484,30.811 318.867,31.403 C319.275,32.03 319.445,32.583 319.377,33.063 L319.377,33.063 Z M332.883,21.752 C332.524,21.6 332.094,21.559 331.595,21.631 C331.252,21.683 330.674,21.859 329.86,22.159 C329.046,22.459 328.504,22.588 328.237,22.544 C327.966,22.502 327.753,22.363 327.598,22.126 C327.421,21.853 327.391,21.541 327.506,21.19 C327.621,20.839 327.945,20.492 328.473,20.149 C328.981,19.819 329.434,19.677 329.832,19.722 C330.23,19.767 330.586,19.983 330.903,20.37 L331.699,19.764 C331.433,19.386 331.099,19.109 330.699,18.934 C330.3,18.758 329.862,18.713 329.385,18.798 C328.909,18.883 328.426,19.085 327.937,19.402 C327.493,19.691 327.137,20.028 326.872,20.414 C326.606,20.8 326.474,21.199 326.472,21.612 C326.472,22.024 326.579,22.398 326.796,22.731 C326.992,23.035 327.247,23.258 327.562,23.402 C327.875,23.547 328.244,23.599 328.666,23.56 C328.993,23.531 329.508,23.393 330.209,23.144 C330.91,22.895 331.371,22.748 331.594,22.702 C331.938,22.628 332.221,22.629 332.442,22.705 C332.663,22.782 332.84,22.924 332.975,23.131 C333.107,23.336 333.167,23.565 333.155,23.818 C333.143,24.072 333.042,24.331 332.85,24.596 C332.659,24.861 332.397,25.102 332.063,25.319 C331.688,25.563 331.307,25.716 330.922,25.781 C330.537,25.846 330.204,25.819 329.924,25.699 C329.645,25.58 329.377,25.368 329.123,25.063 L328.346,25.67 C328.645,26.104 329.022,26.421 329.48,26.622 C329.936,26.823 330.424,26.879 330.94,26.791 C331.458,26.703 332.016,26.464 332.614,26.076 C333.085,25.77 333.452,25.409 333.718,24.991 C333.983,24.574 334.114,24.144 334.114,23.702 C334.113,23.26 333.999,22.864 333.77,22.513 C333.537,22.159 333.242,21.905 332.883,21.752 L332.883,21.752 Z M323.642,26.438 C323.444,26.238 323.231,26.093 323.001,26.003 C322.771,25.913 322.502,25.894 322.193,25.948 C321.883,26.001 321.585,26.121 321.297,26.308 C320.633,26.739 320.296,27.332 320.287,28.085 L319.846,27.405 L319.115,27.88 L322.221,32.664 L323.033,32.137 L321.337,29.524 C320.939,28.912 320.794,28.414 320.903,28.032 C321.01,27.65 321.237,27.347 321.583,27.123 C321.8,26.982 322.021,26.909 322.243,26.902 C322.468,26.895 322.664,26.954 322.834,27.076 C323.003,27.199 323.194,27.425 323.409,27.756 L325.3,30.666 L326.111,30.14 L324.201,27.199 C323.955,26.821 323.77,26.568 323.642,26.438 L323.642,26.438 Z M323.642,26.438" class="Shape"/>
                <path d="M236.854,34.608 L232.185,33.357 L232.879,30.768 L237.086,31.895 L237.325,31.003 L233.118,29.876 L233.743,27.546 L238.235,28.75 L238.476,27.853 L232.976,26.379 L230.938,33.984 L236.614,35.505 L236.854,34.608 L236.854,34.608 Z M223.594,43.209 L223.927,41.964 C224.038,41.549 224.1,41.258 224.112,41.09 C224.125,40.819 224.086,40.582 223.992,40.377 C223.898,40.172 223.72,39.975 223.456,39.785 C223.191,39.596 222.824,39.438 222.353,39.312 C221.879,39.185 221.445,39.138 221.05,39.17 C220.655,39.204 220.331,39.316 220.076,39.505 C219.822,39.694 219.6,39.974 219.413,40.342 L220.293,40.711 C220.498,40.347 220.726,40.116 220.977,40.019 C221.227,39.921 221.571,39.931 222.011,40.048 C222.482,40.174 222.808,40.375 222.99,40.65 C223.125,40.853 223.141,41.144 223.039,41.525 C223.03,41.56 223.006,41.64 222.969,41.768 C222.579,41.796 221.995,41.754 221.217,41.643 C220.836,41.588 220.546,41.561 220.35,41.56 C220.082,41.563 219.831,41.605 219.597,41.687 C219.362,41.769 219.152,41.905 218.971,42.094 C218.788,42.284 218.66,42.515 218.588,42.784 C218.465,43.243 218.526,43.665 218.772,44.048 C219.018,44.431 219.444,44.703 220.049,44.866 C220.415,44.964 220.775,44.995 221.127,44.96 C221.479,44.925 221.868,44.806 222.293,44.605 C222.251,44.873 222.252,45.115 222.298,45.335 L223.273,45.596 C223.212,45.354 223.193,45.113 223.215,44.872 C223.235,44.632 223.361,44.077 223.594,43.209 L223.594,43.209 Z M222.682,42.842 C222.572,43.254 222.437,43.552 222.281,43.736 C222.077,43.974 221.812,44.133 221.491,44.216 C221.168,44.298 220.827,44.291 220.468,44.195 C220.105,44.097 219.852,43.94 219.708,43.724 C219.563,43.507 219.525,43.274 219.591,43.025 C219.635,42.863 219.718,42.726 219.84,42.616 C219.962,42.507 220.112,42.438 220.29,42.412 C220.469,42.386 220.757,42.395 221.154,42.443 C221.858,42.528 222.399,42.547 222.775,42.5 L222.682,42.842 L222.682,42.842 Z M229.484,41.356 L227.445,44.252 C227.188,44.62 226.947,45.005 226.726,45.405 C226.728,44.927 226.708,44.467 226.668,44.021 L226.376,40.523 L225.37,40.253 L225.981,46.333 C225.917,46.424 225.868,46.492 225.837,46.539 C225.607,46.874 225.449,47.081 225.366,47.158 C225.252,47.262 225.124,47.331 224.982,47.366 C224.838,47.403 224.664,47.392 224.456,47.337 C224.305,47.296 224.134,47.221 223.944,47.11 L223.813,48.014 C224.014,48.15 224.205,48.243 224.384,48.29 C224.682,48.369 224.957,48.366 225.209,48.279 C225.463,48.194 225.714,48.019 225.962,47.756 C226.148,47.562 226.434,47.192 226.82,46.647 L230.418,41.605 L229.484,41.356 L229.484,41.356 Z M236.434,43.085 C235.753,42.902 235.12,42.951 234.537,43.232 C233.839,43.572 233.352,44.252 233.079,45.271 C232.829,46.203 232.876,46.978 233.22,47.6 C233.564,48.222 234.12,48.636 234.892,48.843 C235.373,48.972 235.847,48.978 236.313,48.863 C236.78,48.747 237.173,48.514 237.495,48.165 C237.817,47.815 238.072,47.286 238.263,46.577 C238.497,45.702 238.441,44.953 238.093,44.326 C237.744,43.701 237.191,43.288 236.434,43.085 L236.434,43.085 Z M237.29,46.367 C237.096,47.09 236.798,47.586 236.396,47.857 C235.993,48.127 235.56,48.2 235.097,48.076 C234.63,47.951 234.289,47.672 234.076,47.238 C233.863,46.804 233.85,46.234 234.039,45.529 C234.228,44.824 234.523,44.338 234.925,44.07 C235.325,43.803 235.76,43.732 236.227,43.857 C236.687,43.981 237.025,44.259 237.24,44.694 C237.456,45.128 237.472,45.686 237.29,46.367 L237.29,46.367 Z M232.117,42.84 L233.056,43.092 L233.251,42.365 L232.312,42.113 L232.828,40.189 L231.75,40.501 L231.384,41.865 L230.699,41.681 L230.504,42.408 L231.189,42.592 L230.339,45.762 C230.189,46.322 230.128,46.7 230.158,46.895 C230.187,47.09 230.281,47.266 230.438,47.423 C230.597,47.58 230.845,47.704 231.184,47.795 C231.391,47.851 231.634,47.886 231.912,47.901 L231.997,47.04 C231.821,47.019 231.682,46.994 231.578,46.967 C231.439,46.93 231.339,46.879 231.276,46.814 C231.214,46.75 231.177,46.674 231.165,46.589 C231.153,46.504 231.181,46.328 231.252,46.063 L232.117,42.84 L232.117,42.84 Z M218.171,36.078 L216.133,43.683 L217.068,43.934 L219.106,36.329 L218.171,36.078 L218.171,36.078 Z M213.56,41.688 C213.082,41.909 212.561,41.944 211.997,41.792 C211.534,41.668 211.136,41.434 210.802,41.088 C210.468,40.742 210.272,40.304 210.213,39.771 C210.153,39.239 210.21,38.648 210.384,38 C210.518,37.5 210.728,37.034 211.014,36.604 C211.3,36.175 211.676,35.873 212.143,35.698 C212.61,35.523 213.137,35.514 213.722,35.671 C214.231,35.808 214.618,36.047 214.886,36.389 C215.155,36.732 215.302,37.203 215.33,37.804 L216.384,37.836 C216.368,37.079 216.153,36.437 215.738,35.911 C215.323,35.385 214.735,35.019 213.974,34.815 C213.303,34.635 212.647,34.624 212.007,34.78 C211.367,34.937 210.816,35.268 210.355,35.778 C209.894,36.286 209.558,36.936 209.346,37.728 C209.151,38.455 209.103,39.17 209.201,39.875 C209.299,40.579 209.561,41.168 209.985,41.639 C210.409,42.111 211.031,42.456 211.85,42.676 C212.642,42.888 213.371,42.851 214.036,42.563 C214.7,42.276 215.249,41.748 215.682,40.977 L214.744,40.454 C214.431,41.057 214.037,41.468 213.56,41.688 L213.56,41.688 Z M252.165,39.578 C252.323,39.735 252.571,39.859 252.91,39.95 C253.118,40.006 253.36,40.041 253.638,40.056 L253.724,39.195 C253.547,39.174 253.409,39.15 253.304,39.122 C253.165,39.085 253.065,39.034 253.002,38.969 C252.94,38.905 252.903,38.829 252.891,38.744 C252.879,38.659 252.908,38.484 252.979,38.218 L253.842,34.996 L254.781,35.248 L254.975,34.521 L254.036,34.269 L254.552,32.344 L253.473,32.656 L253.108,34.02 L252.422,33.836 L252.228,34.563 L252.913,34.747 L252.064,37.917 C251.914,38.477 251.853,38.855 251.882,39.05 C251.914,39.245 252.007,39.421 252.165,39.578 L252.165,39.578 Z M237.262,35.68 L238.394,35.983 L240.423,34.198 L240.601,34.74 L241.273,36.755 L242.42,37.063 L241.151,33.598 L243.751,31.514 L242.635,31.215 L241.357,32.269 C241.183,32.411 240.988,32.576 240.775,32.763 C240.722,32.571 240.65,32.331 240.556,32.042 L240.057,30.524 L238.889,30.211 L240.042,33.357 L237.262,35.68 L237.262,35.68 Z M275.43,53.667 L275.946,51.742 L274.867,52.054 L274.502,53.418 L273.817,53.234 L273.622,53.961 L274.307,54.145 L273.458,57.315 C273.308,57.875 273.247,58.253 273.277,58.447 C273.307,58.643 273.4,58.819 273.558,58.976 C273.716,59.133 273.965,59.257 274.304,59.348 C274.511,59.404 274.753,59.439 275.032,59.454 L275.118,58.593 C274.942,58.572 274.803,58.547 274.699,58.52 C274.56,58.483 274.46,58.431 274.397,58.367 C274.334,58.303 274.297,58.227 274.286,58.142 C274.273,58.057 274.302,57.881 274.373,57.615 L275.236,54.393 L276.175,54.645 L276.37,53.918 L275.43,53.667 L275.43,53.667 Z M256.927,49.488 L257.866,49.74 L258.061,49.013 L257.122,48.761 L257.638,46.836 L256.56,47.148 L256.194,48.512 L255.509,48.328 L255.314,49.055 L255.999,49.239 L255.149,52.409 C254.999,52.97 254.938,53.347 254.968,53.542 C254.997,53.738 255.091,53.914 255.248,54.071 C255.407,54.228 255.655,54.352 255.994,54.443 C256.201,54.498 256.443,54.533 256.722,54.548 L256.808,53.688 C256.632,53.667 256.493,53.642 256.389,53.615 C256.25,53.577 256.15,53.526 256.087,53.462 C256.025,53.397 255.988,53.321 255.976,53.237 C255.963,53.152 255.992,52.976 256.063,52.71 L256.927,49.488 L256.927,49.488 Z M256.617,40.999 C257.098,41.128 257.572,41.135 258.038,41.019 C258.504,40.903 258.898,40.67 259.22,40.321 C259.542,39.971 259.797,39.442 259.988,38.733 C260.222,37.858 260.166,37.109 259.818,36.483 C259.47,35.858 258.918,35.444 258.16,35.241 C257.479,35.058 256.846,35.108 256.263,35.389 C255.565,35.728 255.078,36.408 254.805,37.428 C254.556,38.359 254.603,39.135 254.945,39.756 C255.288,40.378 255.845,40.793 256.617,40.999 L256.617,40.999 Z M255.765,37.685 C255.954,36.98 256.249,36.494 256.651,36.227 C257.052,35.959 257.486,35.889 257.953,36.014 C258.413,36.137 258.751,36.416 258.967,36.85 C259.182,37.284 259.198,37.841 259.016,38.523 C258.822,39.246 258.524,39.743 258.123,40.013 C257.72,40.283 257.287,40.356 256.823,40.232 C256.356,40.107 256.015,39.828 255.802,39.394 C255.589,38.96 255.576,38.391 255.765,37.685 L255.765,37.685 Z M243.568,45.188 C243.322,44.994 243.032,44.853 242.7,44.763 C241.936,44.559 241.27,44.704 240.704,45.202 L240.914,44.418 L240.072,44.192 L238.596,49.702 L239.53,49.952 L240.337,46.943 C240.525,46.238 240.8,45.797 241.156,45.622 C241.512,45.448 241.889,45.413 242.287,45.52 C242.536,45.586 242.738,45.701 242.892,45.863 C243.047,46.024 243.135,46.21 243.158,46.418 C243.179,46.625 243.14,46.92 243.037,47.3 L242.14,50.652 L243.074,50.903 L243.982,47.515 C244.097,47.082 244.162,46.775 244.173,46.593 C244.189,46.312 244.154,46.056 244.068,45.824 C243.981,45.595 243.814,45.383 243.568,45.188 L243.568,45.188 Z M264.807,50.688 C264.047,50.485 263.359,50.575 262.745,50.959 C262.131,51.343 261.698,51.999 261.45,52.925 C261.21,53.821 261.26,54.581 261.598,55.203 C261.938,55.826 262.51,56.245 263.316,56.462 C263.956,56.633 264.523,56.618 265.018,56.417 C265.513,56.216 265.912,55.855 266.215,55.331 L265.282,54.953 C265.035,55.309 264.765,55.545 264.475,55.66 C264.185,55.774 263.869,55.787 263.526,55.695 C263.066,55.571 262.725,55.307 262.504,54.904 C262.282,54.5 262.235,53.99 262.363,53.376 L266.472,54.478 C266.505,54.368 266.529,54.285 266.544,54.23 C266.788,53.32 266.744,52.552 266.41,51.925 C266.079,51.297 265.545,50.885 264.807,50.688 L264.807,50.688 Z M265.698,53.445 L262.621,52.621 C262.782,52.148 263.046,51.809 263.415,51.6 C263.785,51.391 264.184,51.344 264.613,51.459 C265.087,51.586 265.424,51.869 265.625,52.309 C265.756,52.592 265.781,52.971 265.698,53.445 L265.698,53.445 Z M270.716,52.271 C269.956,52.067 269.269,52.158 268.654,52.542 C268.04,52.927 267.607,53.582 267.359,54.509 C267.119,55.405 267.17,56.164 267.508,56.786 C267.847,57.409 268.42,57.829 269.226,58.045 C269.866,58.216 270.433,58.201 270.929,58.001 C271.424,57.799 271.823,57.438 272.126,56.915 L271.193,56.536 C270.945,56.892 270.676,57.128 270.386,57.243 C270.096,57.358 269.78,57.37 269.438,57.278 C268.977,57.155 268.636,56.891 268.415,56.487 C268.194,56.083 268.146,55.573 268.274,54.959 L272.383,56.06 C272.415,55.951 272.439,55.869 272.454,55.813 C272.698,54.904 272.654,54.135 272.321,53.508 C271.988,52.881 271.454,52.469 270.716,52.271 L270.716,52.271 Z M271.606,55.028 L268.53,54.204 C268.69,53.732 268.955,53.392 269.324,53.183 C269.694,52.974 270.093,52.927 270.521,53.042 C270.995,53.169 271.332,53.451 271.533,53.892 C271.665,54.175 271.689,54.554 271.606,55.028 L271.606,55.028 Z M261.91,50.233 C261.638,49.946 261.345,49.759 261.031,49.675 C260.812,49.616 260.596,49.625 260.381,49.701 C260.167,49.777 259.9,49.981 259.58,50.314 L259.804,49.479 L258.965,49.254 L257.489,54.764 L258.423,55.014 L259.195,52.129 C259.3,51.734 259.449,51.385 259.642,51.08 C259.77,50.882 259.932,50.742 260.127,50.662 C260.322,50.584 260.523,50.572 260.727,50.627 C260.956,50.688 261.165,50.816 261.358,51.012 L261.91,50.233 L261.91,50.233 Z M243.203,37.271 L244.137,37.521 L245.613,32.011 L244.679,31.761 L243.203,37.271 L243.203,37.271 Z M253.694,45.749 C253.312,45.453 252.84,45.228 252.276,45.078 C251.764,44.94 251.276,44.902 250.811,44.963 C250.347,45.025 249.961,45.192 249.653,45.467 C249.347,45.742 249.141,46.072 249.038,46.457 C248.944,46.806 248.949,47.145 249.051,47.475 C249.154,47.805 249.362,48.114 249.674,48.401 C249.915,48.625 250.362,48.915 251.014,49.269 C251.668,49.623 252.087,49.869 252.27,50.002 C252.555,50.209 252.743,50.419 252.834,50.635 C252.925,50.85 252.938,51.077 252.874,51.316 C252.811,51.551 252.681,51.75 252.484,51.909 C252.287,52.07 252.026,52.169 251.702,52.203 C251.377,52.239 251.023,52.205 250.64,52.102 C250.207,51.986 249.838,51.806 249.533,51.563 C249.228,51.321 249.025,51.055 248.926,50.766 C248.827,50.479 248.806,50.139 248.863,49.746 L247.891,49.574 C247.769,50.087 247.786,50.579 247.943,51.053 C248.099,51.527 248.383,51.926 248.795,52.251 C249.207,52.576 249.757,52.831 250.445,53.016 C250.987,53.162 251.503,53.193 251.99,53.11 C252.477,53.028 252.885,52.839 253.213,52.544 C253.541,52.247 253.758,51.897 253.867,51.492 C253.976,51.084 253.969,50.695 253.841,50.326 C253.713,49.956 253.456,49.61 253.069,49.288 C252.801,49.068 252.283,48.756 251.515,48.351 C250.747,47.947 250.289,47.63 250.143,47.402 C249.993,47.173 249.954,46.922 250.027,46.648 C250.111,46.334 250.323,46.102 250.661,45.954 C251,45.805 251.473,45.812 252.082,45.976 C252.667,46.132 253.076,46.372 253.309,46.699 C253.542,47.025 253.621,47.435 253.544,47.93 L254.528,48.116 C254.631,47.665 254.613,47.232 254.476,46.817 C254.336,46.402 254.076,46.047 253.694,45.749 L253.694,45.749 Z M245.241,29.666 L244.953,30.74 L245.887,30.99 L246.175,29.916 L245.241,29.666 L245.241,29.666 Z M247.402,37.541 C247.263,37.503 247.162,37.452 247.1,37.388 C247.038,37.323 247,37.247 246.988,37.163 C246.976,37.078 247.005,36.902 247.076,36.636 L247.939,33.414 L248.878,33.666 L249.072,32.939 L248.133,32.687 L248.649,30.762 L247.57,31.074 L247.205,32.438 L246.519,32.254 L246.325,32.981 L247.01,33.165 L246.161,36.335 C246.011,36.896 245.95,37.273 245.98,37.468 C246.009,37.664 246.103,37.84 246.261,37.997 C246.419,38.154 246.668,38.278 247.006,38.369 C247.214,38.424 247.456,38.459 247.734,38.474 L247.82,37.614 C247.645,37.593 247.506,37.568 247.402,37.541 L247.402,37.541 Z M247.402,37.541" class="Shape"/>
                <path d="M12.952,120.069 L15.805,121.164 C16.26,121.338 16.588,121.521 16.789,121.711 C16.99,121.901 17.114,122.142 17.162,122.432 C17.21,122.723 17.182,123.003 17.078,123.274 C16.974,123.545 16.818,123.745 16.613,123.878 C16.406,124.01 16.174,124.059 15.915,124.024 C15.737,123.998 15.412,123.895 14.941,123.713 L11.987,122.58 L11.64,123.482 L14.94,124.748 C15.324,124.896 15.612,124.984 15.803,125.017 C16.088,125.064 16.347,125.058 16.579,124.996 C16.811,124.934 17.041,124.79 17.267,124.563 C17.492,124.337 17.663,124.067 17.785,123.753 C18.058,123.041 17.973,122.362 17.531,121.717 L18.313,122.018 L18.623,121.21 L13.299,119.166 L12.952,120.069 L12.952,120.069 Z M16.766,111.085 C16.365,111.257 16.062,111.607 15.86,112.135 C15.6,112.811 15.701,113.478 16.161,114.138 C15.827,114.128 15.53,114.219 15.269,114.409 C15.008,114.598 14.802,114.889 14.651,115.284 C14.514,115.639 14.473,115.985 14.526,116.323 C14.578,116.662 14.702,116.965 14.899,117.232 L14.151,116.945 L13.841,117.753 L19.166,119.797 L19.513,118.895 L16.75,117.834 C16.265,117.648 15.913,117.456 15.692,117.261 C15.471,117.066 15.337,116.834 15.285,116.567 C15.235,116.3 15.258,116.04 15.355,115.785 C15.484,115.451 15.676,115.248 15.933,115.179 C16.19,115.11 16.519,115.151 16.92,115.305 L20.38,116.633 L20.727,115.731 L17.633,114.543 C17.084,114.333 16.734,114.055 16.579,113.713 C16.425,113.37 16.419,113.011 16.563,112.637 C16.642,112.43 16.76,112.268 16.917,112.151 C17.074,112.034 17.241,111.978 17.422,111.98 C17.604,111.983 17.874,112.053 18.235,112.192 L21.59,113.48 L21.934,112.582 L18.28,111.179 C17.672,110.944 17.167,110.914 16.766,111.085 L16.766,111.085 Z M11.807,125.315 C11.485,125.336 11.19,125.461 10.923,125.692 C10.655,125.923 10.446,126.236 10.295,126.63 C10.049,127.272 10.088,127.898 10.415,128.507 L7.777,127.494 L7.43,128.396 L14.781,131.218 L15.128,130.316 L12.215,129.198 C11.797,129.038 11.489,128.861 11.29,128.67 C11.091,128.478 10.968,128.238 10.92,127.95 C10.871,127.66 10.899,127.382 11.001,127.115 C11.138,126.758 11.347,126.52 11.628,126.404 C11.908,126.287 12.274,126.316 12.726,126.488 L16.101,127.784 L16.448,126.881 L13.073,125.586 C12.551,125.386 12.129,125.296 11.807,125.315 L11.807,125.315 Z M21.479,105.576 C21.094,105.429 20.713,105.343 20.333,105.321 C19.955,105.298 19.61,105.336 19.299,105.432 C18.987,105.529 18.709,105.699 18.465,105.94 C18.221,106.181 18.035,106.466 17.909,106.794 C17.681,107.386 17.734,107.964 18.066,108.529 L15.443,107.522 L15.097,108.424 L22.448,111.246 L22.769,110.408 L22.103,110.152 C22.765,109.996 23.216,109.604 23.457,108.976 C23.699,108.344 23.659,107.707 23.333,107.064 C23.01,106.422 22.391,105.926 21.479,105.576 L21.479,105.576 Z M22.688,108.766 C22.501,109.251 22.122,109.546 21.547,109.653 C21.197,109.717 20.702,109.628 20.064,109.382 C19.415,109.133 18.975,108.799 18.743,108.38 C18.511,107.962 18.47,107.554 18.622,107.16 C18.771,106.769 19.065,106.499 19.502,106.35 C19.939,106.201 20.505,106.261 21.2,106.528 C21.879,106.789 22.335,107.128 22.567,107.546 C22.798,107.965 22.839,108.372 22.688,108.766 L22.688,108.766 Z M46.067,47.305 C46.027,47.478 45.989,47.614 45.951,47.714 C45.899,47.848 45.838,47.943 45.766,47.998 C45.695,48.054 45.617,48.081 45.532,48.086 C45.446,48.089 45.274,48.043 45.016,47.944 L41.903,46.749 L42.252,45.841 L41.55,45.571 L41.201,46.479 L39.341,45.765 L39.537,46.869 L40.856,47.375 L40.602,48.037 L41.304,48.307 L41.558,47.645 L44.621,48.822 C45.163,49.03 45.532,49.129 45.729,49.12 C45.926,49.111 46.111,49.037 46.284,48.896 C46.457,48.755 46.606,48.521 46.732,48.194 C46.809,47.993 46.87,47.756 46.913,47.481 L46.067,47.305 L46.067,47.305 Z M1.889,142.833 L7.66,145.049 L0.406,146.695 L0.023,147.693 L7.375,150.515 L7.732,149.582 L1.957,147.364 L9.215,145.72 L9.598,144.723 L2.247,141.901 L1.889,142.833 L1.889,142.833 Z M10.729,138.429 C10.416,138.073 9.915,137.763 9.23,137.5 C8.384,137.175 7.632,137.152 6.974,137.433 C6.316,137.714 5.846,138.221 5.565,138.953 C5.313,139.611 5.295,140.246 5.514,140.855 C5.779,141.584 6.405,142.14 7.39,142.518 C8.289,142.863 9.066,142.898 9.72,142.622 C10.375,142.346 10.845,141.835 11.131,141.09 C11.31,140.625 11.365,140.154 11.299,139.678 C11.232,139.201 11.042,138.785 10.729,138.429 L10.729,138.429 Z M10.389,140.804 C10.216,141.255 9.903,141.565 9.45,141.732 C8.996,141.899 8.429,141.852 7.747,141.59 C7.064,141.328 6.612,140.984 6.389,140.557 C6.166,140.13 6.14,139.691 6.314,139.24 C6.485,138.795 6.796,138.488 7.252,138.319 C7.706,138.15 8.262,138.192 8.92,138.445 C9.619,138.714 10.082,139.061 10.309,139.49 C10.536,139.919 10.561,140.356 10.389,140.804 L10.389,140.804 Z M8.934,134.975 C8.748,134.827 8.627,134.652 8.569,134.449 C8.51,134.247 8.519,134.046 8.594,133.85 C8.679,133.629 8.828,133.433 9.044,133.263 L8.326,132.631 C8.011,132.871 7.795,133.143 7.679,133.446 C7.598,133.657 7.584,133.873 7.637,134.095 C7.691,134.316 7.866,134.603 8.163,134.956 L7.356,134.646 L7.044,135.458 L12.369,137.502 L12.716,136.599 L9.928,135.529 C9.548,135.382 9.215,135.199 8.934,134.975 L8.934,134.975 Z M13.52,132.201 C13.468,132.335 13.407,132.43 13.335,132.485 C13.264,132.54 13.186,132.568 13.1,132.572 C13.014,132.576 12.842,132.529 12.585,132.429 L9.471,131.234 L9.821,130.327 L9.118,130.057 L8.77,130.965 L6.909,130.251 L7.106,131.356 L8.425,131.862 L8.171,132.524 L8.873,132.794 L9.127,132.132 L12.19,133.309 C12.732,133.517 13.101,133.616 13.297,133.607 C13.494,133.598 13.68,133.524 13.853,133.383 C14.025,133.242 14.175,133.008 14.301,132.68 C14.378,132.48 14.438,132.242 14.482,131.968 L13.635,131.792 C13.596,131.965 13.558,132.101 13.52,132.201 L13.52,132.201 Z M30.062,89.502 C29.825,89.455 29.287,89.271 28.447,88.949 L27.244,88.487 C26.843,88.333 26.559,88.241 26.394,88.213 C26.125,88.171 25.885,88.186 25.671,88.258 C25.458,88.329 25.243,88.487 25.027,88.73 C24.811,88.973 24.616,89.321 24.44,89.776 C24.265,90.234 24.173,90.661 24.165,91.057 C24.157,91.453 24.234,91.787 24.396,92.06 C24.557,92.333 24.812,92.581 25.159,92.807 L25.618,91.971 C25.277,91.729 25.071,91.479 25,91.219 C24.93,90.96 24.976,90.618 25.139,90.194 C25.314,89.739 25.547,89.435 25.839,89.284 C26.055,89.171 26.347,89.185 26.714,89.326 C26.747,89.339 26.825,89.371 26.948,89.422 C26.936,89.812 26.833,90.389 26.64,91.151 C26.546,91.525 26.489,91.811 26.467,92.005 C26.443,92.272 26.457,92.526 26.514,92.768 C26.571,93.01 26.684,93.233 26.854,93.434 C27.025,93.635 27.24,93.787 27.5,93.886 C27.944,94.057 28.37,94.04 28.777,93.835 C29.182,93.63 29.498,93.236 29.722,92.65 C29.859,92.296 29.927,91.942 29.929,91.588 C29.931,91.234 29.853,90.835 29.699,90.391 C29.959,90.461 30.201,90.485 30.425,90.463 L30.787,89.52 C30.541,89.555 30.299,89.549 30.062,89.502 L30.062,89.502 Z M29.101,92.163 C28.966,92.514 28.784,92.749 28.554,92.871 C28.324,92.991 28.087,93.006 27.847,92.913 C27.69,92.852 27.563,92.756 27.466,92.623 C27.369,92.489 27.318,92.333 27.309,92.154 C27.301,91.974 27.342,91.689 27.431,91.298 C27.589,90.607 27.664,90.071 27.657,89.692 L27.988,89.819 C28.385,89.971 28.668,90.135 28.835,90.311 C29.05,90.539 29.182,90.819 29.23,91.146 C29.277,91.477 29.234,91.815 29.101,92.163 L29.101,92.163 Z M44.084,50.105 L43.61,50.993 C43.938,51.276 44.144,51.569 44.228,51.87 C44.312,52.17 44.29,52.485 44.164,52.816 C43.994,53.261 43.695,53.573 43.27,53.751 C42.845,53.929 42.333,53.922 41.736,53.731 L43.26,49.759 C43.154,49.715 43.074,49.682 43.021,49.662 C42.142,49.325 41.374,49.288 40.716,49.554 C40.058,49.819 39.592,50.307 39.318,51.02 C39.037,51.755 39.054,52.448 39.372,53.099 C39.689,53.75 40.297,54.249 41.192,54.593 C42.058,54.925 42.818,54.954 43.473,54.683 C44.128,54.411 44.605,53.885 44.904,53.105 C45.141,52.487 45.186,51.922 45.038,51.408 C44.891,50.896 44.572,50.46 44.084,50.105 L44.084,50.105 Z M41.013,53.397 C40.561,53.188 40.249,52.889 40.08,52.5 C39.911,52.11 39.906,51.709 40.065,51.295 C40.241,50.837 40.557,50.531 41.015,50.377 C41.311,50.276 41.691,50.291 42.154,50.423 L41.013,53.397 L41.013,53.397 Z M41.891,55.816 L41.418,56.704 C41.746,56.988 41.952,57.28 42.036,57.58 C42.12,57.88 42.098,58.196 41.972,58.527 C41.801,58.972 41.503,59.284 41.078,59.462 C40.653,59.64 40.14,59.633 39.544,59.441 L41.068,55.47 C40.962,55.426 40.882,55.393 40.829,55.373 C39.95,55.036 39.182,54.999 38.523,55.265 C37.866,55.529 37.4,56.018 37.126,56.731 C36.844,57.466 36.862,58.159 37.18,58.81 C37.497,59.461 38.105,59.959 39,60.303 C39.865,60.636 40.626,60.665 41.281,60.394 C41.935,60.122 42.412,59.596 42.712,58.816 C42.949,58.198 42.994,57.632 42.846,57.118 C42.697,56.607 42.379,56.172 41.891,55.816 L41.891,55.816 Z M38.82,59.109 C38.368,58.9 38.056,58.601 37.887,58.212 C37.718,57.822 37.712,57.421 37.872,57.006 C38.048,56.549 38.364,56.242 38.822,56.089 C39.118,55.987 39.498,56.003 39.961,56.135 L38.82,59.109 L38.82,59.109 Z M27.36,76.479 L29.998,77.492 C29.72,77.565 29.465,77.701 29.234,77.901 C29.002,78.1 28.824,78.36 28.701,78.681 C28.533,79.119 28.497,79.559 28.592,80.002 C28.686,80.445 28.916,80.837 29.28,81.182 C29.645,81.525 30.093,81.798 30.625,82.002 C31.17,82.211 31.69,82.299 32.186,82.264 C32.68,82.23 33.113,82.079 33.483,81.813 C33.854,81.546 34.121,81.201 34.284,80.777 C34.535,80.121 34.462,79.523 34.063,78.983 L34.735,79.241 L35.056,78.404 L27.705,75.582 L27.36,76.479 L27.36,76.479 Z M32.158,78.234 C32.82,78.488 33.259,78.815 33.475,79.214 C33.692,79.614 33.725,80.01 33.574,80.405 C33.424,80.797 33.125,81.071 32.677,81.228 C32.229,81.387 31.664,81.335 30.982,81.073 C30.277,80.802 29.812,80.469 29.587,80.074 C29.363,79.679 29.328,79.281 29.483,78.88 C29.64,78.469 29.944,78.189 30.392,78.039 C30.84,77.89 31.429,77.955 32.158,78.234 L32.158,78.234 Z M36.783,67.698 C36.388,67.547 36.002,67.514 35.62,67.602 C35.24,67.69 34.869,67.91 34.508,68.262 C34.261,68.505 33.897,68.988 33.414,69.709 C32.932,70.431 32.569,70.854 32.327,70.975 C32.083,71.1 31.829,71.113 31.565,71.011 C31.26,70.894 31.052,70.659 30.94,70.308 C30.828,69.957 30.884,69.486 31.11,68.898 C31.327,68.333 31.609,67.951 31.959,67.753 C32.307,67.555 32.723,67.521 33.207,67.648 L33.494,66.689 C33.056,66.541 32.625,66.512 32.197,66.606 C31.771,66.698 31.389,66.919 31.054,67.268 C30.719,67.617 30.447,68.063 30.237,68.609 C30.048,69.104 29.959,69.586 29.97,70.054 C29.982,70.522 30.109,70.923 30.35,71.259 C30.592,71.592 30.899,71.832 31.27,71.974 C31.608,72.103 31.946,72.134 32.284,72.067 C32.623,72 32.952,71.826 33.27,71.545 C33.517,71.329 33.852,70.915 34.273,70.302 C34.695,69.689 34.982,69.298 35.134,69.13 C35.369,68.868 35.599,68.703 35.822,68.635 C36.046,68.567 36.273,68.578 36.504,68.666 C36.732,68.753 36.914,68.903 37.053,69.116 C37.193,69.328 37.263,69.598 37.264,69.925 C37.265,70.252 37.195,70.6 37.052,70.971 C36.892,71.388 36.674,71.737 36.401,72.016 C36.128,72.294 35.842,72.468 35.546,72.536 C35.249,72.604 34.909,72.589 34.525,72.493 L34.254,73.44 C34.75,73.615 35.242,73.65 35.731,73.544 C36.217,73.439 36.645,73.197 37.011,72.822 C37.377,72.447 37.689,71.926 37.944,71.261 C38.145,70.737 38.231,70.227 38.2,69.734 C38.169,69.241 38.022,68.816 37.762,68.459 C37.502,68.102 37.174,67.848 36.783,67.698 L36.783,67.698 Z M39.158,65.41 C39.106,65.544 39.045,65.639 38.973,65.694 C38.902,65.749 38.824,65.777 38.739,65.781 C38.653,65.785 38.481,65.738 38.223,65.638 L35.11,64.443 L35.459,63.535 L34.757,63.266 L34.408,64.174 L32.548,63.46 L32.744,64.565 L34.063,65.071 L33.809,65.733 L34.511,66.003 L34.765,65.341 L37.828,66.517 C38.37,66.725 38.739,66.825 38.936,66.816 C39.133,66.807 39.318,66.733 39.491,66.592 C39.664,66.45 39.813,66.216 39.939,65.889 C40.016,65.689 40.077,65.451 40.12,65.176 L39.274,65 C39.234,65.174 39.196,65.309 39.158,65.41 L39.158,65.41 Z M28.706,82.536 C28.428,82.491 28.17,82.499 27.931,82.56 C27.693,82.622 27.463,82.766 27.245,82.991 C27.026,83.216 26.855,83.489 26.732,83.809 C26.449,84.548 26.524,85.225 26.96,85.84 L26.203,85.549 L25.891,86.362 L31.216,88.406 L31.563,87.504 L28.655,86.388 C27.972,86.126 27.563,85.808 27.426,85.435 C27.289,85.062 27.294,84.684 27.442,84.299 C27.535,84.058 27.67,83.869 27.847,83.733 C28.024,83.596 28.217,83.528 28.426,83.526 C28.635,83.526 28.924,83.597 29.291,83.737 L32.53,84.981 L32.877,84.079 L29.603,82.822 C29.185,82.662 28.887,82.566 28.706,82.536 L28.706,82.536 Z M24.801,100.338 L24.327,101.226 C24.655,101.509 24.861,101.802 24.945,102.103 C25.029,102.403 25.008,102.719 24.881,103.05 C24.711,103.494 24.412,103.806 23.988,103.984 C23.562,104.161 23.05,104.155 22.453,103.964 L23.977,99.992 C23.872,99.948 23.792,99.916 23.738,99.895 C22.859,99.558 22.092,99.521 21.433,99.787 C20.775,100.051 20.309,100.54 20.036,101.253 C19.754,101.988 19.771,102.681 20.09,103.332 C20.406,103.983 21.014,104.482 21.909,104.826 C22.775,105.158 23.535,105.188 24.19,104.916 C24.845,104.644 25.322,104.119 25.621,103.339 C25.858,102.721 25.903,102.155 25.756,101.641 C25.607,101.129 25.289,100.694 24.801,100.338 L24.801,100.338 Z M21.73,103.63 C21.277,103.421 20.965,103.123 20.796,102.734 C20.627,102.345 20.622,101.943 20.781,101.528 C20.957,101.07 21.274,100.764 21.731,100.61 C22.027,100.509 22.407,100.524 22.87,100.656 L21.73,103.63 L21.73,103.63 Z M36.98,61.91 C36.794,61.762 36.673,61.587 36.615,61.384 C36.556,61.182 36.565,60.981 36.641,60.785 C36.726,60.564 36.875,60.368 37.09,60.198 L36.372,59.566 C36.058,59.806 35.841,60.078 35.725,60.381 C35.644,60.592 35.63,60.808 35.683,61.03 C35.737,61.251 35.912,61.538 36.21,61.891 L35.402,61.581 L35.09,62.393 L40.415,64.437 L40.762,63.534 L37.974,62.464 C37.595,62.318 37.263,62.134 36.98,61.91 L36.98,61.91 Z M23.395,97.303 C23.209,97.155 23.088,96.979 23.03,96.777 C22.972,96.575 22.981,96.375 23.056,96.177 C23.141,95.956 23.29,95.761 23.505,95.59 L22.787,94.958 C22.473,95.199 22.256,95.47 22.14,95.773 C22.059,95.984 22.045,96.2 22.098,96.422 C22.152,96.643 22.327,96.93 22.625,97.283 L21.817,96.973 L21.505,97.785 L26.83,99.829 L27.177,98.927 L24.389,97.857 C24.009,97.71 23.677,97.526 23.395,97.303 L23.395,97.303 Z M20.789,93.598 L28.141,96.42 L28.487,95.517 L21.136,92.695 L20.789,93.598 L20.789,93.598 Z M20.789,93.598" class="Shape"/>
            </g>
            <g class="background">
                <path d="M32.296,155.246 L17.556,151.583 L32.85,110.557 L54.704,94.667 L38.898,137.396 L90.489,140.761 L92.022,143.532 L37.918,139.995 L32.296,155.246 M142.506,169.092 C141.341,167.245 141.91,165.498 144.21,163.852 C146.511,162.206 149.876,161.154 154.307,160.699 C158.709,160.245 162.885,160.514 166.832,161.509 C170.779,162.504 173.35,163.923 174.543,165.77 C175.708,167.616 175.14,169.364 172.839,171.01 C170.538,172.656 167.173,173.708 162.742,174.162 C158.34,174.616 154.166,174.347 150.218,173.352 C146.269,172.386 143.698,170.966 142.506,169.092" class="road" fill="#E7E8E9"/>
                <path d="M270.692,99.907 C271.063,100.475 270.892,101 270.181,101.484 L262.087,107.278 L242.064,102.291 L243.939,100.928 L240.702,100.118 L249.478,93.898 L244.195,92.579 C241.298,94.682 238.387,96.768 235.462,98.842 L232.224,98.032 L230.349,99.353 L210.369,94.369 L207.302,96.541 L227.324,101.525 L225.449,102.889 L228.644,103.699 L219.869,109.961 L200.996,105.232 C199.803,104.948 199.023,104.508 198.653,103.912 C198.284,103.344 198.454,102.818 199.164,102.335 L218.42,88.575 C219.129,88.092 220.167,87.779 221.53,87.637 L225.364,87.85 L268.348,98.586 C269.571,98.898 270.353,99.338 270.692,99.907 M237.124,105.786 L238.999,104.466 L259.021,109.45 L250.927,115.243 C250.217,115.726 249.195,116.038 247.858,116.18 L243.982,115.967 L225.152,111.238 L233.928,104.976 L237.124,105.786" class="walkway" fill="#97999B"/>
                <path d="M249.478,93.9 L240.702,100.119 L243.939,100.929 L242.064,102.292 L262.087,107.277 L259.062,109.451 L238.997,104.467 L237.122,105.788 L233.927,104.978 L225.151,111.24 L219.869,109.962 L228.644,103.7 L225.449,102.889 L227.324,101.525 L207.302,96.541 L210.369,94.369 L230.349,99.353 L232.224,98.032 L235.462,98.842 C238.387,96.768 241.298,94.682 244.195,92.579 L249.478,93.9" class="walkway" fill="#A1A1A1"/>
                <path d="M376.601,57.689 L420.565,68.637 L417.753,70.639 L373.874,59.69 L288.927,120.312 L294.678,121.761 L298.128,119.29 L303.795,120.696 L300.344,123.165 L313.889,126.531 L310.397,129.045 L285.346,122.78 L251.436,146.977 L266.517,150.727 L271.585,158.734 L248.241,161.248 L242.873,153.067 L235.844,151.319 L244.577,145.099 L200.825,134.194 L196.479,137.304 L202.571,138.836 L169.598,162.353 L166.829,161.501 L163.591,160.861 L192.261,140.413 L133.642,125.801 L107.359,144.467 L91.724,143.445 L90.276,140.803 L100.245,141.485 L121.887,126.064 L117.201,124.871 L40.39,132.923 L41.498,129.558 L129.938,120.313 L153.752,103.315 L162.187,105.402 L138.756,122.102 L174.456,131.006 L183.147,124.828 L210.369,131.602 L225.066,121.122 L231.585,122.739 L216.844,133.263 L249.861,141.443 L268.435,128.194 L246.367,122.698 L249.264,120.653 L271.374,126.149 L316.657,93.857 L272.692,82.908 L268.048,86.231 L243.679,80.139 L248.322,76.816 L209.129,67.061 L204.487,70.384 L183.739,65.186 L188.468,61.821 L167.125,56.496 L183.526,44.823 L208.064,50.915 L194.776,60.415 L268.774,78.861 L272.992,75.836 L279.936,77.583 L275.718,80.608 L319.897,91.6 L376.557,51.171 L332.89,40.265 L339.281,35.706 L389.72,48.316 L376.601,57.689" class="walkway"/>
                <path d="M432.408,50.575 L432.408,53.983 L432.363,54.366 L432.363,54.622 L432.107,56.497 L431.342,58.797 L430.32,60.799 L428.742,63.142 L428.699,63.184 L426.657,65.57 L420.777,70.639 L418.137,70 L418.137,72.556 L375.067,103.272 L356.154,98.586 L314.062,128.62 L310.782,127.81 L310.737,130.962 L303.453,136.159 L293.483,133.689 L266.689,152.816 L251.225,148.939 L251.267,145.105 L262.812,136.84 L263.025,136.714 L266.604,134.114 L266.817,133.987 L281.602,123.424 L281.815,123.297 L285.348,120.741 L288.63,121.551 L288.63,118.399 L306.265,105.832 L306.436,105.746 L330.932,88.234 L330.932,88.319 L331.019,88.277 L365.1,63.909 L365.313,63.781 L373.918,57.646 L376.389,58.285 L376.389,55.814 L385.549,49.253 L349.764,40.349 L349.719,41.371 L348.612,42.138 L376.941,49.21 L376.899,53.086 L320.026,93.685 L317.087,92.961 L317.044,95.815 L307.672,102.503 L209.902,78.135 L209.519,78.007 L187.324,72.511 L186.941,72.384 L167.131,67.442 L167.174,63.608 L176.589,56.877 L188.816,59.901 L188.816,63.778 L188.134,64.247 L204.493,68.337 L208.114,65.781 L194.567,62.415 L194.609,58.539 L203.385,52.277 L260.47,66.506 L260.428,70.34 L260.088,70.596 L273.422,73.919 L273.379,77.753 L268.948,80.948 L264.773,79.926 L264.773,81.417 L263.069,82.866 L268.055,84.186 L272.741,80.863 L275.681,81.63 L275.681,78.733 L284.498,72.47 L284.586,72.513 L322.245,45.589 L322.458,45.461 L325.653,43.16 L325.866,43.033 L329.06,40.732 L329.274,40.604 L332.681,38.176 L338.476,39.625 L338.476,38.176 L339.112,37.708 L338.899,37.623 L338.899,33.747 L365.055,15.13 L373.959,17.302 C395.714,22.755 411.322,28.478 420.777,34.47 C428.787,39.583 432.664,44.951 432.408,50.575 M247.987,79.203 L253.823,80.651 L253.823,79.118 L260.469,80.95 L262.556,79.331 L248.626,75.88 L248.626,78.734 L247.987,79.203 M249.094,118.78 L277.467,98.5 L299.961,104.125 L299.918,108.001 L271.545,128.236 L268.904,127.597 L268.861,130.153 L257.273,138.419 L257.187,138.419 L249.945,143.573 L216.631,135.265 L216.673,131.389 L231.71,120.653 L242.616,123.378 L246.407,120.653 L249.05,121.335 L249.094,118.78 M298.299,121.378 L295.572,123.295 L300.216,124.445 L300.258,121.846 L298.299,121.378 M244.962,147.023 L240.276,150.389 L243.3,151.113 L243.258,154.99 L221.957,170.201 L177.013,158.998 L177.013,155.12 L198.314,139.911 L198.399,139.824 L196.227,139.313 L196.269,135.436 L200.87,132.155 L245.005,143.145 L244.962,147.023 M122.228,128.023 L100.458,143.531 L100.203,143.531 L100.203,145.874 L91.044,172.031 L32.041,157.206 L32.083,153.329 L37.791,137.822 L38.558,137.864 L38.558,135.478 L40.262,130.92 L40.39,130.92 L41.285,130.833 L41.327,127.725 L44.309,119.418 L44.479,119.375 L54.448,92.834 L71.361,80.607 L154.263,101.269 L154.221,105.146 L130.151,122.313 L119.373,123.464 L122.27,124.19 L122.228,128.023 M138.586,120.228 L138.671,120.143 L162.315,103.315 L225.493,119.12 L225.493,122.997 L210.412,133.735 L190.73,128.836 L190.688,128.836 L183.275,126.961 L174.712,133.096 L174.627,133.096 L174.201,132.968 L173.945,132.926 L138.544,124.106 L138.586,120.228 M192.477,142.295 L171.048,157.589 L112.258,142.935 L112.301,139.058 L133.686,123.764 L192.519,138.419 L192.477,142.295" class="wall"/>
            </g>
            <g class="ceilings">
                <path class="unit" d="M325.883,42.97 L369.422,53.791 L366.227,56.091 L322.689,45.228 L325.883,42.97 L325.883,42.97 Z M325.883,42.97" id="2001"/>
                <path class="unit" d="M224.663,57.497 L216.312,63.461 L195.055,58.136 L203.405,52.172 L224.663,57.497 L224.663,57.497 Z M224.663,57.497" id="2002"/>
                <path class="unit" d="M231.606,59.201 L223.256,65.165 L216.653,63.546 L225.046,57.582 L231.606,59.201 L231.606,59.201 Z M231.606,59.201" id="2003"/>
                <path class="unit" d="M188.11,59.67 L183.381,62.993 L191.347,64.995 L187.044,68.062 L167.618,63.205 L176.607,56.772 L188.11,59.67 L188.11,59.67 Z M188.11,59.67" id="2004"/>
                <path class="unit" d="M345.607,70.789 L302.067,59.926 L310.374,54.004 L353.914,64.867 L345.607,70.789 L345.607,70.789 Z M345.607,70.789" id="2000"/>
                <path class="unit" d="M218.57,67.295 L209.624,73.685 L200.251,71.342 L204.767,68.147 L204.724,68.105 L209.155,64.953 L218.57,67.295 L218.57,67.295 Z M218.57,67.295" id="2005"/>
                <path class="unit" d="M228.709,69.852 L238.124,72.195 L229.178,78.585 L219.763,76.199 L228.709,69.852 L228.709,69.852 Z M228.709,69.852" id="2006"/>
                <path class="unit" d="M292.952,74.538 L284.602,80.459 L276.123,78.372 L284.475,72.408 L292.952,74.538 L292.952,74.538 Z M292.952,74.538" id="2007"/>
                <path class="unit" d="M293.165,66.316 L336.706,77.136 L328.27,83.143 L284.774,72.279 L293.165,66.316 L293.165,66.316 Z M293.165,66.316" id="2008"/>
                <path class="unit" d="M247.923,74.623 L238.977,81.013 L229.562,78.67 L238.508,72.279 L247.923,74.623 L247.923,74.623 Z M247.923,74.623" id="2009"/>
                <path class="unit" d="M279.703,82.547 L270.715,88.937 L263.771,87.19 L272.717,80.8 L279.703,82.547 L279.703,82.547 Z M279.703,82.547" id="2010"/>
                <path class="unit" d="M270.415,103.464 L292.186,108.875 L288.863,111.262 L267.136,105.809 L270.415,103.464 L270.415,103.464 Z M270.415,103.464" id="2011"/>
                <path class="unit" d="M153.476,101.036 L138.864,111.473 L132.857,109.982 L147.469,99.544 L153.476,101.036 L153.476,101.036 Z M153.476,101.036" id="2012"/>
                <path class="unit" d="M117.094,111.516 L44.757,119.014 L54.726,92.559 L71.383,80.545 L147.128,99.418 L132.26,110.025 L138.65,111.645 L129.746,117.992 L121.78,118.8 L117.094,111.516 L117.094,111.516 Z M117.094,111.516" id="2013"/>
                <path class="unit" d="M75.643,115.946 L80.245,123.188 L72.406,123.998 L67.847,116.798 L75.643,115.946 L75.643,115.946 Z M75.643,115.946" id="2014"/>
                <path class="unit" d="M182.785,122.677 L174.435,128.685 L164.637,126.215 L173.03,120.251 L182.785,122.677 L182.785,122.677 Z M182.785,122.677" id="2015"/>
                <path class="unit" d="M190.751,124.467 L205.363,114.029 L211.583,115.563 L196.973,126 L190.751,124.467 L190.751,124.467 Z M190.751,124.467" id="2016"/>
                <path class="unit" d="M218.187,117.225 L203.576,127.663 L197.313,126.086 L211.967,115.648 L218.187,117.225 L218.187,117.225 Z M218.187,117.225" id="2017"/>
                <path class="unit" d="M51.147,118.587 L55.663,125.745 L41.775,127.193 L44.544,119.224 L51.147,118.587 L51.147,118.587 Z M51.147,118.587" id="2018"/>
                <path class="unit" d="M260.575,131.41 L256.997,134.01 L250.693,132.433 L254.272,129.877 L260.575,131.41 L260.575,131.41 Z M260.575,131.41" id="2019"/>
                <path class="unit" d="M244.515,123.785 L229.902,134.223 L223.683,132.689 L238.338,122.251 L244.515,123.785 L244.515,123.785 Z M244.515,123.785" id="2020"/>
                <path class="unit" d="M251.118,125.446 L236.506,135.884 L230.286,134.308 L244.899,123.87 L251.118,125.446 L251.118,125.446 Z M251.118,125.446" id="2021"/>
                <path class="unit" d="M66.015,128.088 L71.766,137.205 L63.288,136.65 L58.176,128.897 L66.015,128.088 L66.015,128.088 Z M66.015,128.088" id="2022"/>
                <path class="unit" d="M82.118,126.469 L89.829,138.483 L81.224,137.888 L74.493,127.281 L82.118,126.469 L82.118,126.469 Z M82.118,126.469" id="2023"/>
                <path class="unit" d="M121.567,123.912 L108.871,132.858 L82.884,126.383 L116.795,122.719 L121.567,123.912 L121.567,123.912 Z M121.567,123.912" id="2024"/>
                <path class="unit" d="M212.862,135.074 L204.384,141.124 L198.548,139.675 L207.026,133.626 L212.862,135.074 L212.862,135.074 Z M212.862,135.074" id="2025"/>
                <path class="unit" d="M231.777,139.803 L223.299,145.853 L217.377,144.362 L225.855,138.313 L231.777,139.803 L231.777,139.803 Z M231.777,139.803" id="2026"/>
                <path class="unit" d="M349.016,37.262 L345.864,39.52 L338.92,37.773 L342.115,35.515 L349.016,37.262 L349.016,37.262 Z M349.016,37.262" id="2027"/>
                <path class="unit" d="M332.657,38.114 L376.195,48.934 L373,51.235 L329.504,40.372 L332.657,38.114 L332.657,38.114 Z M332.657,38.114" id="2028"/>
                <path class="unit" d="M329.291,40.542 L372.787,51.362 L369.635,53.663 L326.096,42.8 L329.291,40.542 L329.291,40.542 Z M329.291,40.542" id="2029"/>
                <path class="unit" d="M322.475,45.356 L366.014,56.219 L362.734,58.562 L319.195,47.698 C320.303,46.932 321.396,46.151 322.475,45.356 L322.475,45.356 L322.475,45.356 Z M322.475,45.356" id="2030"/>
                <path class="unit" d="M354.127,64.697 L310.588,53.834 L318.982,47.87 L362.521,58.691 L354.127,64.697 L354.127,64.697 Z M354.127,64.697" id="2031"/>
                <path class="unit" d="M431.832,49.616 C431.86,54.983 428.055,60.535 420.417,66.273 L376.836,55.41 L390,46.037 L339.347,33.385 L365.078,15.024 L373.599,17.112 C395.269,22.536 410.819,28.244 420.247,34.237 C427.941,39.149 431.804,44.276 431.832,49.616 L431.832,49.616 L431.832,49.616 Z M431.832,49.616" id="2032"/>
                <path class="unit" d="M231.947,59.329 L238.635,60.991 L230.285,66.955 L223.597,65.293 L231.947,59.329 L231.947,59.329 Z M231.947,59.329" id="2033"/>
                <path class="unit" d="M245.665,62.737 L237.315,68.701 L230.627,67.039 L238.977,61.075 L245.665,62.737 L245.665,62.737 Z M245.665,62.737" id="2034"/>
                <path class="unit" d="M252.694,64.483 L244.344,70.447 L237.656,68.786 L246.006,62.822 L252.694,64.483 L252.694,64.483 Z M252.694,64.483" id="2035"/>
                <path class="unit" d="M191.731,65.08 L204.213,68.19 L199.909,71.257 L187.428,68.147 L191.731,65.08 L191.731,65.08 Z M191.731,65.08" id="2036"/>
                <path class="unit" d="M259.723,66.23 L255.591,69.169 L255.505,69.169 L251.245,72.151 L244.686,70.532 L253.036,64.568 L259.723,66.23 L259.723,66.23 Z M259.723,66.23" id="2037"/>
                <path class="unit" d="M409.083,74.41 L365.543,63.547 L373.893,57.583 L417.434,68.446 L409.083,74.41 L409.083,74.41 Z M409.083,74.41" id="2038"/>
                <path class="unit" d="M228.326,69.724 L219.38,76.114 L210.007,73.771 L218.953,67.381 L228.326,69.724 L228.326,69.724 Z M228.326,69.724" id="2039"/>
                <path class="unit" d="M341,73.953 L297.638,63.104 L293.377,66.145 L336.918,77.009 L341,73.953 Z M341,73.953" id="2040"/>
                <path class="unit" d="M255.633,69.383 L272.674,73.643 L268.669,76.497 L251.629,72.28 L255.633,69.383 L255.633,69.383 Z M255.633,69.383" id="2041"/>
                <path class="unit" d="M400.521,80.502 L356.983,69.639 L365.333,63.717 L408.873,74.538 L400.521,80.502 L400.521,80.502 Z M400.521,80.502" id="2042"/>
                <path class="unit" d="M301.728,76.71 L293.376,82.674 L284.943,80.587 L293.336,74.623 L301.728,76.71 L301.728,76.71 Z M301.728,76.71" id="2043"/>
                <path class="unit" d="M250.437,79.735 L246.133,82.802 L239.317,81.098 L243.621,78.031 L250.437,79.735 L250.437,79.735 Z M250.437,79.735" id="2044"/>
                <path class="unit" d="M302.111,76.795 L310.547,78.883 L302.197,84.847 L293.761,82.759 L302.111,76.795 L302.111,76.795 Z M302.111,76.795" id="2045"/>
                <path class="unit" d="M260.617,82.249 L256.271,85.316 L246.517,82.888 L250.819,79.821 L260.617,82.249 L260.617,82.249 Z M260.617,82.249" id="2046"/>
                <path class="unit" d="M267.689,84.038 L263.385,87.105 L256.656,85.401 L260.958,82.334 L267.689,84.038 L267.689,84.038 Z M267.689,84.038" id="2047"/>
                <path class="unit" d="M391.958,86.636 L348.42,75.773 L356.77,69.809 L400.308,80.673 L391.958,86.636 L391.958,86.636 Z M391.958,86.636" id="2048"/>
                <path class="unit" d="M319.152,81.098 L310.844,87.02 L302.536,84.975 L310.888,79.011 L319.152,81.098 L319.152,81.098 Z M319.152,81.098" id="2049"/>
                <path class="unit" d="M328.098,83.313 L319.748,89.235 L311.314,87.147 L319.622,81.183 L328.098,83.313 L328.098,83.313 Z M328.098,83.313" id="2050"/>
                <path class="unit" d="M287.03,84.378 L278.084,90.768 L271.098,89.022 L280.044,82.631 L287.03,84.378 L287.03,84.378 Z M287.03,84.378" id="2051"/>
                <path class="unit" d="M342.906,79.74 L386.483,90.535 L389.094,88.688 L345.547,77.812 L342.906,79.74 Z M342.906,79.74" id="2052"/>
                <path class="unit" d="M294.358,86.21 L285.412,92.6 L278.425,90.853 L287.371,84.463 L294.358,86.21 L294.358,86.21 Z M294.358,86.21" id="2053"/>
                <path class="unit" d="M301.686,88.042 L292.74,94.389 L285.755,92.685 L294.701,86.294 L301.686,88.042 L301.686,88.042 Z M301.686,88.042" id="2054"/>
                <path class="unit" d="M293.08,94.518 L302.069,88.128 L309.013,89.832 L300.067,96.222 L293.08,94.518 L293.08,94.518 Z M293.08,94.518" id="2055"/>
                <path class="unit" d="M316.34,91.664 L307.395,98.054 L300.452,96.35 L309.398,89.96 L316.34,91.664 L316.34,91.664 Z M316.34,91.664" id="2056"/>
                <path class="unit" d="M331.251,88 L374.791,98.863 L380.645,94.682 L337.128,83.825 L331.251,88 Z M331.251,88" id="2057"/>
                <path class="unit" d="M343.753,91.382 L339.797,94.221 L327.062,90.916 L330.909,88.171 L314.552,99.843 L339.26,106.02 L355.618,94.348 L343.753,91.382 Z M343.753,91.382" id="2058"/>
                <path class="unit" d="M299.215,103.848 L295.933,106.233 L274.163,100.781 L277.486,98.438 L299.215,103.848 L299.215,103.848 Z M299.215,103.848" id="2059"/>
                <path class="unit" d="M295.721,106.361 L292.401,108.746 L270.63,103.293 L273.952,100.95 L295.721,106.361 L295.721,106.361 Z M295.721,106.361" id="2060"/>
                <path class="unit" d="M338.962,106.19 L331.381,111.6 L306.714,105.467 L314.297,100.055 L338.962,106.19 L338.962,106.19 Z M338.962,106.19" id="2061"/>
                <path class="unit" d="M266.923,105.978 L288.65,111.388 L285.37,113.774 L263.599,108.322 L266.923,105.978 L266.923,105.978 Z M266.923,105.978" id="2062"/>
                <path class="unit" d="M263.386,108.491 L285.157,113.901 L281.834,116.286 L260.065,110.835 L263.386,108.491 L263.386,108.491 Z M263.386,108.491" id="2063"/>
                <path class="unit" d="M259.851,111.005 L281.62,116.415 L278.299,118.8 L256.528,113.347 L259.851,111.005 L259.851,111.005 Z M259.851,111.005" id="2064"/>
                <path class="unit" d="M297.724,117.139 L294.572,119.397 L289.076,118.034 L292.271,115.776 L297.724,117.139 L297.724,117.139 Z M297.724,117.139" id="2065"/>
                <path class="unit" d="M116.753,111.644 L121.355,118.843 L113.516,119.695 L108.957,112.496 L116.753,111.644 L116.753,111.644 Z M116.753,111.644" id="2066"/>
                <path class="unit" d="M256.356,113.518 L278.084,118.931 L274.803,121.316 L253.033,115.865 L256.356,113.518 L256.356,113.518 Z M256.356,113.518" id="2067"/>
                <path class="unit" d="M331.123,111.813 L317.19,121.74 L292.524,115.563 L306.414,105.637 L331.123,111.813 L331.123,111.813 Z M331.123,111.813" id="2068"/>
                <path class="unit" d="M108.531,112.538 L113.089,119.78 L105.293,120.59 L100.734,113.347 L108.531,112.538 L108.531,112.538 Z M108.531,112.538" id="2069"/>
                <path class="unit" d="M104.868,120.632 L97.072,121.442 L92.513,114.199 L100.309,113.389 L104.868,120.632 L104.868,120.632 Z M104.868,120.632" id="2070"/>
                <path class="unit" d="M92.087,114.242 L96.646,121.484 L88.85,122.294 L84.292,115.052 L92.087,114.242 L92.087,114.242 Z M92.087,114.242" id="2071"/>
                <path class="unit" d="M252.822,116.031 L274.591,121.442 L271.269,123.829 L249.499,118.376 L252.822,116.031 L252.822,116.031 Z M252.822,116.031" id="2072"/>
                <path class="unit" d="M303.857,118.63 L316.936,121.912 L313.784,124.168 L300.706,120.931 L303.857,118.63 L303.857,118.63 Z M303.857,118.63" id="2073"/>
                <path class="unit" d="M83.865,115.094 L88.466,122.336 L80.627,123.146 L76.069,115.904 L83.865,115.094 L83.865,115.094 Z M83.865,115.094" id="2074"/>
                <path class="unit" d="M162.336,103.251 L204.938,113.901 L190.369,124.38 L162.678,117.438 L154.073,123.615 L138.992,119.866 L162.336,103.251 L162.336,103.251 Z M162.336,103.251" id="2075"/>
                <path class="unit" d="M59.752,117.608 L67.463,116.841 L72.021,124.041 L64.311,124.851 L59.752,117.608 L59.752,117.608 Z M59.752,117.608" id="2076"/>
                <path class="unit" d="M162.848,117.693 L172.604,120.164 L164.254,126.128 L154.456,123.698 L162.848,117.693 L162.848,117.693 Z M162.848,117.693" id="2077"/>
                <path class="unit" d="M59.327,117.693 L63.928,124.936 L56.09,125.703 L51.532,118.503 L59.327,117.693 L59.327,117.693 Z M59.327,117.693" id="2078"/>
                <path class="unit" d="M242.811,123.146 L246.39,120.59 L268.159,126 L264.581,128.557 L242.811,123.146 L242.811,123.146 Z M242.811,123.146" id="2079"/>
                <path class="unit" d="M285.369,120.675 L310.035,126.81 L306.713,129.196 L282.046,123.061 L285.369,120.675 L285.369,120.675 Z M285.369,120.675" id="2080"/>
                <path class="unit" d="M224.79,118.843 L210.135,129.281 L203.915,127.748 L218.57,117.31 L224.79,118.843 L224.79,118.843 Z M224.79,118.843" id="2081"/>
                <path class="unit" d="M264.366,128.727 L260.788,131.284 L254.485,129.707 L258.062,127.151 L264.366,128.727 L264.366,128.727 Z M264.366,128.727" id="2082"/>
                <path class="unit" d="M281.833,123.188 L306.5,129.366 L303.177,131.751 L278.468,125.574 L281.833,123.188 L281.833,123.188 Z M281.833,123.188" id="2083"/>
                <path class="unit" d="M292.994,129.408 L289.373,131.964 L274.675,128.301 L278.253,125.745 L292.994,129.408 L292.994,129.408 Z M292.994,129.408" id="2084"/>
                <path class="unit" d="M231.734,120.59 L237.953,122.123 L223.299,132.56 L217.079,131.027 L231.734,120.59 L231.734,120.59 Z M231.734,120.59" id="2085"/>
                <path class="unit" d="M289.16,132.135 L285.582,134.692 L270.841,131.028 L274.462,128.472 L289.16,132.135 L289.16,132.135 Z M289.16,132.135" id="2086"/>
                <path class="unit" d="M130.258,132.263 L126.637,134.819 L120.332,133.243 L123.953,130.687 L130.258,132.263 L130.258,132.263 Z M130.258,132.263" id="2087"/>
                <path class="unit" d="M200.891,132.093 L206.685,133.54 L202.511,136.478 L196.716,135.031 L200.891,132.093 L200.891,132.093 Z M200.891,132.093" id="2088"/>
                <path class="unit" d="M270.628,131.197 L285.369,134.861 L281.748,137.418 L267.051,133.753 L270.628,131.197 L270.628,131.197 Z M270.628,131.197" id="2089"/>
                <path class="unit" d="M49.571,132.433 L51.914,135.884 L38.921,134.989 L39.645,133.157 L49.571,132.433 L49.571,132.433 Z M49.571,132.433" id="2090"/>
                <path class="unit" d="M257.721,127.065 L243.066,137.503 L236.846,135.969 L251.501,125.531 L257.721,127.065 L257.721,127.065 Z M257.721,127.065" id="2091"/>
                <path class="unit" d="M57.75,128.982 L62.734,136.608 L52.382,135.926 L49.869,132.217 L39.644,132.985 L40.496,130.767 L57.75,128.982 L57.75,128.982 Z M57.75,128.982" id="2092"/>
                <path class="unit" d="M126.424,134.946 L122.845,137.545 L116.54,135.969 L120.119,133.413 L126.424,134.946 L126.424,134.946 Z M126.424,134.946" id="2093"/>
                <path class="unit" d="M74.067,127.32 L80.755,137.843 L72.235,137.248 L66.399,128.044 L74.067,127.32 M83.056,126.853 L99.756,138.952" id="2094"/>
                <path class="unit" d="M256.698,134.137 L249.669,139.164 L243.449,137.587 L250.478,132.602 L256.698,134.137 L256.698,134.137 Z M256.698,134.137" id="2095"/>
                <path class="unit" d="M277.957,140.144 L263.217,136.48 L266.838,133.924 L281.535,137.587 L277.957,140.144 L277.957,140.144 Z M277.957,140.144" id="2096"/>
                <path class="unit" d="M90.256,138.482 L100.139,139.164 L82.692,126.652 L90.256,138.482 Z M90.256,138.482" id="2097"/>
                <path class="unit" d="M112.706,138.695 L116.327,136.139 L122.589,137.672 L119.011,140.271 L112.706,138.695 L112.706,138.695 Z M112.706,138.695" id="2098"/>
                <path class="unit" d="M204.768,141.209 L213.246,135.159 L219.168,136.65 L210.69,142.699 L204.768,141.209 L204.768,141.209 Z M204.768,141.209" id="2099"/>
                <path class="unit" d="M225.471,138.227 L216.994,144.279 L211.073,142.788 L219.551,136.736 L225.471,138.227 L225.471,138.227 Z M225.471,138.227" id="2100"/>
                <path class="unit" d="M232.16,139.888 L238.082,141.379 L229.604,147.429 L223.683,145.938 L232.16,139.888 L232.16,139.888 Z M232.16,139.888" id="2101"/>
                <path class="unit" d="M275.564,141.863 L260.831,138.166 L251.714,144.702 L266.412,148.366 L277.744,140.314 L275.564,141.863 Z M275.564,141.863" id="2102"/>
                <path class="unit" d="M244.259,142.912 L235.781,148.964 L229.944,147.516 L238.464,141.465 L244.259,142.912 L244.259,142.912 Z M244.259,142.912" id="2103"/>
                <path class="unit" d="M124.124,130.516 L133.709,123.7 L191.775,138.184 L170.773,153.137 L119.396,140.315 L130.813,132.178 L124.124,130.516 L124.124,130.516 Z M124.124,130.516" id="2104"/>
                <path class="unit" d="M198.334,139.846 L242.555,150.88 L221.68,165.747 L177.459,154.714 L198.334,139.846 L198.334,139.846 Z M198.334,139.846" id="2105"/>
                <path class="unit" d="M37.983,137.673 L99.585,141.848 L90.596,167.536 L32.402,152.925 L37.983,137.673 L37.983,137.673 Z M37.983,137.673" id="2106"/>
                <path class="unit" d="M348.206,75.943 L345.692,77.733 L389.188,88.596 L391.745,86.764 L348.206,75.943 Z M348.206,75.943" id="2107"/>
                <path class="unit" d="M341.146,73.813 L345.395,70.917 L301.855,60.096 L297.842,63.036 L341.146,73.813 Z M341.146,73.813" id="2108"/>
                <path class="unit" d="M264.733,77.903 L260.468,80.949 L253.821,79.298 L258.172,76.198 L264.733,77.903 L264.733,77.903 Z M264.733,77.903" id="2109"/>
                <path class="unit" d="M386.335,90.641 L342.796,79.82 L339.942,81.837 L362.804,87.546 L360.235,89.364 L380.906,94.521 L386.335,90.641 Z M386.335,90.641" id="2010"/>
                <path class="unit" d="M277.744,140.314 L263.004,136.608 L260.953,138.078 L275.697,141.769 L277.744,140.314 Z M277.744,140.314" id="2111"/>
                <path class="unit" d="M339.733,94.035 L343.532,91.326 L343.753,91.382 L330.909,88.171 L327.19,90.825 L339.733,94.035 Z M339.733,94.035" id="2112"/>
                <path class="unit" d="M82.771,126.554 L100.433,139.092 L108.659,133.029 L82.771,126.554 Z M82.771,126.554" id="2113"/>
                <path class="unit" d="M339.862,81.894 L339.942,81.837 L337.366,83.658 L360.12,89.335 L362.609,87.578 L339.862,81.894 Z M339.862,81.894" id="2114"/>
            </g>
    </g>
</svg>