<?xml version="1.0" encoding="utf-8"?>
<!DOCTYPE svg PUBLIC "-//W3C//DTD SVG 1.1//EN" "http://www.w3.org/Graphics/SVG/1.1/DTD/svg11.dtd">
<svg version="1.1" xmlns="http://www.w3.org/2000/svg" xmlns:xlink="http://www.w3.org/1999/xlink" xml:space="preserve">
<g class="level" id="level1">
        <g class="outline">
            <path d="M159.7,177.2 C156.6,177.2 153.5,176.8 150.6,176.1 C146,175 142.9,173.2 141.4,170.7 C140.7,169.6 138.8,165.6 143.8,162 C146.2,160.4 149.3,159.2 153.4,158.6 C156.9,158.1 160.5,158 164,158.4 L112.7,145.6 C112.4,145.5 112.2,145.4 111.9,145.3 L109.9,146.8 C109.4,147.1 108.8,147.3 108.2,147.3 L103.6,147 L94.4,173.2 C94,174.4 92.6,175.2 91.4,174.8 L32.4,160 C31.3,159.7 30.5,158.7 30.5,157.5 L18,154.4 C17.3,154.2 16.7,153.8 16.4,153.1 C16.1,152.5 16,151.7 16.3,151 L31.6,110 C31.8,109.5 32.1,109.1 32.5,108.8 L52.5,94.3 L53.3,92.3 C53.5,91.8 53.8,91.4 54.2,91.1 L71.1,78.9 C71.7,78.5 72.5,78.3 73.2,78.5 L156.1,99.2 C157.3,99.5 158.1,100.5 158,101.7 L158,101.8 L160.8,102.5 L162.1,101.6 C162.7,101.2 163.5,101 164.2,101.2 L227.4,117 C228.5,117.3 229.3,118.3 229.3,119.5 L229.3,119.6 L230.3,119.8 L231.5,118.9 C232.1,118.5 232.9,118.3 233.6,118.5 L243.4,120.9 L246.2,118.9 C246.4,118.8 246.5,118.7 246.7,118.6 L245.1,118.5 C244.9,118.5 244.8,118.5 244.6,118.4 L201.6,107.7 C199.7,107.3 198.5,106.5 197.7,105.2 C196.8,103.8 196.8,101.6 198.9,100.2 L218.1,86.5 C219.2,85.7 220.6,85.3 222.4,85.1 L222.8,85.1 L226.6,85.3 C226.8,85.3 226.9,85.3 227.1,85.4 L270.1,96.1 C272,96.6 273.3,97.4 274,98.6 C274.1,98.7 274.1,98.8 274.2,98.9 L276.3,97.4 L210.4,81 C210.3,81 210.3,81 210.2,80.9 L209.9,80.8 L187.8,75.3 C187.7,75.3 187.7,75.3 187.6,75.2 L187.3,75.1 L167.6,70.2 C166.5,69.9 165.6,68.9 165.7,67.7 L165.7,63.9 C165.7,63.1 166.1,62.3 166.8,61.9 L169.7,59.8 L167.7,59.3 C166.7,59.1 166,58.3 165.8,57.3 C165.6,56.3 166,55.3 166.8,54.7 L183,43 C183.6,42.6 184.4,42.4 185.1,42.6 L209.6,48.7 C210.6,48.9 211.3,49.7 211.5,50.7 C211.6,51 211.6,51.4 211.5,51.7 L262,64.3 C263.1,64.6 264,65.6 263.9,66.8 L263.9,69 L274.9,71.8 C276.1,72.1 276.9,73.1 276.8,74.3 L278.3,74.7 L283.8,70.8 L284.4,70.5 L321.6,43.9 C321.7,43.9 321.7,43.8 321.8,43.8 L321.9,43.7 L325,41.5 C325.1,41.5 325.1,41.4 325.2,41.4 L325.3,41.3 L328.4,39.1 C328.5,39.1 328.5,39 328.6,39 L328.7,38.9 L332,36.5 C332.6,36.1 333.4,35.9 334.1,36.1 L335.2,36.4 L337.1,35.1 L337.1,34.2 C337.1,33.4 337.5,32.6 338.2,32.1 L364.2,13.6 C364.8,13.2 365.6,13 366.3,13.2 C395,20.4 413.6,26.8 422.9,32.7 C431.4,38.1 435.8,44.1 435.8,50.5 L435.8,50.7 L435.8,51.1 L435.7,55.6 L435.7,56 L435.5,57.3 C435.5,57.4 435.4,57.6 435.4,57.7 L434.6,60 C434.6,60.1 434.5,60.2 434.5,60.4 L433.5,62.4 C433.5,62.5 433.4,62.6 433.3,62.7 L431.7,65 L431.4,65.3 L429.4,67.6 L429.1,67.9 L423.2,73 C422.7,73.4 422,73.7 421.4,73.6 C421.3,74.2 420.9,74.7 420.4,75 L377.3,105.7 C376.7,106.1 375.9,106.3 375.2,106.1 L357.4,101.7 L316.5,131 C315.9,131.4 315.1,131.6 314.4,131.4 L314.2,131.4 C314.2,132.2 313.8,132.9 313.1,133.4 L305.8,138.6 C305.2,139 304.4,139.2 303.7,139 L294.9,136.8 L271.8,153.2 L274.6,157.7 C275.1,158.4 275.1,159.4 274.7,160.2 C274.3,161 273.6,161.5 272.7,161.6 L249.4,164.1 C248.4,164.2 247.5,163.8 247,163 L244.1,158.5 L224.4,172.6 C223.8,173 223,173.2 222.3,173 L177.4,161.8 C177.1,161.7 176.9,161.6 176.7,161.5 L175.5,162.4 C176.8,163.4 177.7,164.5 178.2,165.8 C178.8,167.4 179.3,170.5 175.3,173.4 C172.6,175.3 168.9,176.5 164,177 C162.5,177.2 161.1,177.2 159.7,177.2 L159.7,177.2 L159.7,177.2 Z M159.7,177.2" class="outline"/>
        </g>
        <g class="label">
            <path d="M20.6,0.8 C19.6,0.8 18.8,0.9 18.3,1.1 C17.9,1.2 17.8,1.5 17.8,1.9 L17.8,11.6 C17.8,12 18.1,12.2 18.4,12.2 C18.8,12.2 19,12 19,11.6 L19,7.9 L20.5,7.9 C23.4,7.9 24.9,6.5 24.9,4.2 C24.9,2.3 23.6,0.8 20.6,0.8 L20.6,0.8 L20.6,0.8 Z M20.4,6.8 L19,6.8 L19,2.1 C19.5,2 20,2 20.6,2 C22.9,2 23.7,3.1 23.7,4.4 C23.6,5.7 22.9,6.8 20.4,6.8 L20.4,6.8 L20.4,6.8 Z M29.4,0.8 C28.4,0.8 27.6,0.9 27.1,1.1 C26.7,1.2 26.6,1.5 26.6,1.9 L26.6,11.6 C26.6,12 26.9,12.2 27.2,12.2 C27.5,12.2 27.8,12 27.8,11.6 L27.8,7.9 L29.3,7.9 C32.2,7.9 33.7,6.5 33.7,4.2 C33.7,2.3 32.4,0.8 29.4,0.8 L29.4,0.8 L29.4,0.8 Z M29.3,6.8 L27.9,6.8 L27.9,2.1 C28.3,2 28.9,2 29.4,2 C31.7,2 32.5,3.1 32.5,4.4 C32.5,5.7 31.8,6.8 29.3,6.8 L29.3,6.8 L29.3,6.8 Z M14.9,0.9 C14.5,0.9 14.3,1.2 14.3,1.6 L14.3,10.4 C13.5,10.9 12.3,11.2 11.6,11.2 C9.7,11.2 8.6,10.3 8.6,8.2 L8.6,1.5 C8.6,1.1 8.3,0.8 8,0.8 C7.7,0.8 7.3,1.1 7.3,1.5 L7.3,8.3 C7.3,10.6 8.8,12.2 11.3,12.2 C13.1,12.2 14.1,11.7 15.1,11.2 C15.5,11 15.5,10.7 15.5,10.3 L15.5,1.5 C15.5,1.1 15.2,0.9 14.9,0.9 L14.9,0.9 L14.9,0.9 Z M41.5,10.9 L36.7,10.9 L36.7,7.1 L40.6,7.1 C41,7.1 41.2,6.8 41.2,6.5 C41.2,6.2 41,5.9 40.6,5.9 L36.7,5.9 L36.7,2.2 L41.3,2.2 C41.7,2.2 41.9,1.9 41.9,1.6 C41.9,1.3 41.7,1 41.3,1 L36.5,1 C35.8,1 35.4,1.4 35.4,2 L35.4,11.3 C35.4,11.9 35.8,12.3 36.5,12.3 L41.4,12.3 C41.8,12.3 42,12 42,11.7 C42.1,11.2 41.9,10.9 41.5,10.9 L41.5,10.9 L41.5,10.9 Z M93,10.9 L88.7,10.9 L88.7,1.5 C88.7,1.1 88.4,0.8 88.1,0.8 C87.7,0.8 87.5,1.1 87.5,1.5 L87.5,11.1 C87.5,11.7 87.9,12.1 88.6,12.1 L93,12.1 C93.4,12.1 93.7,11.8 93.7,11.5 C93.7,11.2 93.5,10.9 93,10.9 L93,10.9 L93,10.9 Z M85.4,10.9 L81.1,10.9 L81.1,1.5 C81.1,1.1 80.8,0.8 80.5,0.8 C80.1,0.8 79.9,1.1 79.9,1.5 L79.9,11.1 C79.9,11.7 80.3,12.1 81,12.1 L85.5,12.1 C85.9,12.1 86.2,11.8 86.2,11.5 C86.1,11.2 85.8,10.9 85.4,10.9 L85.4,10.9 L85.4,10.9 Z M75.3,2.4 C74.7,1.2 74.2,0.8 73.6,0.8 C73,0.8 72.5,1.2 71.9,2.4 C71,4.2 70.3,6.5 69.1,11.1 C69,11.3 69,11.5 69,11.6 C69,12 69.3,12.2 69.6,12.2 C69.9,12.2 70.1,12 70.2,11.7 C70.5,10.3 70.8,9.1 71.1,8 L76,8 C76.3,9.1 76.6,10.3 76.9,11.7 C77,12 77.2,12.2 77.5,12.2 C77.9,12.2 78.1,12 78.1,11.6 C78.1,11.5 78.1,11.3 78,11.1 C76.9,6.4 76.2,4.2 75.3,2.4 L75.3,2.4 L75.3,2.4 Z M71.5,6.9 C72.2,4.5 72.9,2.9 73.4,2.1 C73.4,2 73.5,2 73.6,2 C73.7,2 73.8,2.1 73.8,2.1 C74.3,2.9 75,4.4 75.7,6.9 L71.5,6.9 L71.5,6.9 Z M49.5,8 C49.2,7.6 48.9,7.3 48.5,7 C49.9,6.5 50.9,5.5 50.9,4 C50.9,2.1 49.6,0.8 46.7,0.8 C45.6,0.8 44.8,0.9 44.3,1.1 C43.9,1.2 43.8,1.5 43.8,1.9 L43.8,11.6 C43.8,12 44.1,12.2 44.4,12.2 C44.8,12.2 45,12 45,11.6 L45,7.4 L46.2,7.4 C47.4,7.4 47.8,7.9 48.4,8.8 C48.8,9.4 49.2,10.4 49.7,11.8 C49.8,12.1 50,12.2 50.3,12.2 C50.6,12.2 50.9,12 50.9,11.6 C50.9,11.5 50.9,11.3 50.8,11.2 C50.5,10 50,8.8 49.5,8 L49.5,8 L49.5,8 Z M46.5,6.2 L45.1,6.2 L45.1,2.2 C45.5,2.1 45.9,2 46.6,2 C48.9,2 49.6,2.9 49.6,4.1 C49.6,5.7 48.1,6.2 46.5,6.2 L46.5,6.2 L46.5,6.2 Z M66.8,2.2 C66.7,1.4 66.4,0.9 65.7,0.9 C65.1,0.9 64.8,1.3 64.6,1.7 C63.8,3.9 62.9,6.7 61.9,9.4 L61.9,9.4 C60.9,6.9 60.1,4.3 59.1,1.9 C58.9,1.3 58.6,0.9 58,0.9 C57.3,0.9 57,1.3 56.9,2.2 C56.5,5.1 56.4,8.3 56.4,11.5 C56.4,11.9 56.6,12.1 57,12.1 C57.4,12.1 57.6,11.9 57.6,11.4 C57.6,8.3 57.8,5.3 58.1,2.4 L58.1,2.4 C59.1,5 60,7.7 61.1,10.3 C61.2,10.6 61.5,10.9 61.9,10.9 C62.3,10.9 62.6,10.7 62.7,10.3 C63.7,7.8 64.6,5.1 65.5,2.4 L65.5,2.4 C65.9,5.4 66.1,8.4 66.2,11.4 C66.2,11.8 66.4,12.1 66.8,12.1 C67.2,12.1 67.4,11.8 67.4,11.4 L67.4,10.9 C67.4,8 67.2,4.9 66.8,2.2 L66.8,2.2 L66.8,2.2 Z M66.8,2.2" class="Shape"/>
            <path d="M412.2,98 L411.6,97.3 L407.8,100.3 L406.1,98.2 L409.5,95.5 L408.9,94.8 L405.5,97.5 L404,95.6 L407.6,92.7 L407,92 L402.6,95.6 L407.6,101.7 L412.2,98 L412.2,98 Z M426.5,85.7 C427.2,85.8 427.9,85.6 428.5,85.1 C428.9,84.8 429.2,84.4 429.4,84 C429.6,83.6 429.6,83.1 429.5,82.6 C429.4,82.1 429.1,81.6 428.7,81 C428.1,80.3 427.5,79.9 426.8,79.8 C426.1,79.7 425.4,79.9 424.8,80.4 C424.3,80.8 423.9,81.4 423.8,82 C423.7,82.8 423.9,83.6 424.6,84.4 C425.1,85.2 425.8,85.6 426.5,85.7 L426.5,85.7 L426.5,85.7 Z M425.2,81 C425.6,80.7 426,80.6 426.5,80.7 C427,80.8 427.4,81.1 427.9,81.6 C428.4,82.2 428.6,82.7 428.6,83.2 C428.6,83.7 428.4,84.1 428,84.4 C427.6,84.7 427.2,84.8 426.7,84.7 C426.2,84.6 425.8,84.3 425.3,83.7 C424.8,83.1 424.6,82.6 424.6,82.1 C424.6,81.7 424.8,81.3 425.2,81 L425.2,81 L425.2,81 Z M397.5,116.8 L401.4,121.6 L394.3,119.4 L393.5,120.1 L398.5,126.2 L399.3,125.6 L395.4,120.8 L402.5,123 L403.3,122.3 L398.3,116.2 L397.5,116.8 L397.5,116.8 Z M420.2,84.2 L420.7,84.8 L421.3,84.4 L423.4,87 C423.8,87.5 424,87.7 424.2,87.8 C424.4,87.9 424.6,87.9 424.8,87.9 C425,87.9 425.3,87.7 425.5,87.5 C425.7,87.4 425.8,87.2 426,87 L425.4,86.4 L425.1,86.7 C425,86.8 424.9,86.8 424.8,86.9 L424.6,86.9 C424.5,86.9 424.4,86.7 424.2,86.5 L422.1,83.9 L422.9,83.3 L422.4,82.7 L421.6,83.3 L420.3,81.8 L419.9,82.9 L420.8,84 L420.2,84.2 L420.2,84.2 Z M412.8,97.6 L413.7,96.9 L413.4,94.2 L413.9,94.4 L415.9,95 L416.8,94.3 L413.3,93.3 L413.1,90 L412.2,90.7 L412.3,92.4 C412.3,92.6 412.3,92.9 412.4,93.2 C412.2,93.1 412,93 411.7,93 L410.2,92.5 L409.3,93.3 L412.5,94.2 L412.8,97.6 L412.8,97.6 Z M417.5,93.7 L418.3,93.1 L414.7,88.7 L413.9,89.3 L417.5,93.7 L417.5,93.7 Z M414,87.8 L413.3,86.9 L412.5,87.5 L413.2,88.4 L414,87.8 L414,87.8 Z M415.4,88.1 L415.9,88.7 L416.5,88.3 L418.6,90.9 C419,91.4 419.2,91.6 419.4,91.7 C419.6,91.8 419.8,91.8 420,91.8 C420.2,91.8 420.5,91.6 420.7,91.4 C420.9,91.3 421,91.1 421.2,90.9 L420.6,90.3 L420.3,90.6 C420.2,90.7 420.1,90.7 420,90.8 L419.8,90.8 L419.4,90.4 L417.3,87.8 L418,87 L417.5,86.4 L416.7,87 L415.4,85.5 L415,86.6 L415.9,87.7 L415.4,88.1 L415.4,88.1 Z M406.3,117.4 C406.4,117.8 406.5,118.2 406.4,118.5 C406.3,118.8 406.1,119.1 405.9,119.3 C405.5,119.6 405.1,119.7 404.7,119.7 C404.2,119.6 403.8,119.4 403.4,118.9 L406.7,116.2 C406.6,116.1 406.6,116 406.5,116 C405.9,115.3 405.3,114.9 404.6,114.8 C403.9,114.7 403.2,114.9 402.7,115.4 C402.1,115.9 401.8,116.5 401.7,117.2 C401.6,117.9 401.9,118.7 402.5,119.4 C403.1,120.1 403.7,120.5 404.4,120.6 C405.1,120.7 405.8,120.5 406.4,119.9 C406.9,119.5 407.2,119 407.4,118.5 C407.5,118 407.5,117.4 407.2,116.9 L406.3,117.4 L406.3,117.4 Z M402.9,118.2 C402.6,117.8 402.5,117.4 402.5,117 C402.5,116.6 402.7,116.2 403.1,115.9 C403.5,115.6 403.9,115.5 404.4,115.6 C404.7,115.7 405,115.9 405.4,116.2 L402.9,118.2 L402.9,118.2 Z M429.2,98.9 C429.3,99.3 429.4,99.7 429.3,100 C429.2,100.3 429,100.6 428.8,100.8 C428.4,101.1 428,101.2 427.6,101.2 C427.1,101.1 426.7,100.9 426.3,100.4 L429.6,97.7 C429.5,97.6 429.5,97.5 429.4,97.5 C428.8,96.8 428.2,96.4 427.5,96.3 C426.8,96.2 426.1,96.4 425.6,96.9 C425,97.4 424.7,98 424.6,98.7 C424.5,99.4 424.8,100.2 425.4,100.9 C426,101.6 426.6,102 427.3,102.1 C428,102.2 428.7,102 429.3,101.4 C429.8,101 430.1,100.5 430.3,100 C430.4,99.5 430.4,98.9 430.1,98.4 L429.2,98.9 L429.2,98.9 Z M425.7,99.7 C425.4,99.3 425.3,98.9 425.3,98.5 C425.3,98.1 425.5,97.7 425.9,97.4 C426.3,97.1 426.7,97 427.2,97.1 C427.5,97.2 427.8,97.4 428.2,97.7 L425.7,99.7 L425.7,99.7 Z M447.2,84.3 C447.3,84.7 447.4,85.1 447.3,85.4 C447.2,85.7 447,86 446.8,86.2 C446.4,86.5 446,86.6 445.6,86.6 C445.1,86.5 444.7,86.3 444.3,85.8 L447.6,83.1 C447.5,83 447.5,82.9 447.4,82.9 C446.8,82.2 446.2,81.8 445.5,81.7 C444.8,81.6 444.1,81.8 443.6,82.3 C443,82.8 442.7,83.4 442.6,84.1 C442.5,84.8 442.8,85.6 443.4,86.3 C444,87 444.6,87.4 445.3,87.5 C446,87.6 446.7,87.4 447.3,86.8 C447.8,86.4 448.1,85.9 448.3,85.4 C448.4,84.9 448.4,84.3 448.1,83.8 L447.2,84.3 L447.2,84.3 Z M443.8,85.1 C443.5,84.7 443.4,84.3 443.4,83.9 C443.4,83.5 443.6,83.1 444,82.8 C444.4,82.5 444.8,82.4 445.3,82.5 C445.6,82.6 445.9,82.8 446.3,83.1 L443.8,85.1 L443.8,85.1 Z M440.8,86.6 C440.7,86.4 440.7,86.2 440.7,86 C440.8,85.8 440.9,85.6 441,85.5 C441.2,85.4 441.4,85.3 441.7,85.2 L441.4,84.3 C441,84.4 440.7,84.5 440.4,84.7 C440.2,84.8 440.1,85 440,85.2 C439.9,85.4 439.9,85.8 440,86.2 L439.5,85.5 L438.8,86 L442.4,90.4 L443.2,89.8 L441.3,87.5 C441.1,87.3 440.9,86.9 440.8,86.6 L440.8,86.6 L440.8,86.6 Z M452,80.5 C452.1,80.9 452.2,81.3 452.1,81.6 C452,81.9 451.8,82.2 451.6,82.4 C451.2,82.7 450.8,82.8 450.4,82.8 C449.9,82.7 449.5,82.5 449.1,82 L452.4,79.3 C452.3,79.2 452.3,79.1 452.2,79.1 C451.6,78.4 451,78 450.3,77.9 C449.6,77.8 448.9,78 448.4,78.5 C447.8,79 447.5,79.6 447.4,80.3 C447.4,81 447.6,81.8 448.2,82.5 C448.8,83.2 449.4,83.6 450.1,83.7 C450.8,83.8 451.5,83.6 452.1,83 C452.6,82.6 452.9,82.1 453.1,81.6 C453.2,81.1 453.2,80.5 452.9,80 L452,80.5 L452,80.5 Z M448.5,81.2 C448.2,80.8 448.1,80.4 448.1,80 C448.1,79.6 448.3,79.2 448.7,78.9 C449.1,78.6 449.5,78.5 450,78.6 C450.3,78.7 450.6,78.9 451,79.2 L448.5,81.2 L448.5,81.2 Z M410.4,109.1 L411.7,112.3 L412.1,113.4 L411.2,112.7 L408.5,110.7 L407.7,111.3 L409.1,114.5 C409.4,115.2 409.6,115.5 409.6,115.6 L408.6,114.9 L405.8,112.9 L405,113.5 L409.9,116.8 L410.7,116.2 L409,112 L409.8,112.6 L412.7,114.7 L413.5,114.1 L411.3,108.5 L410.4,109.1 L410.4,109.1 Z M440.9,90.7 C440.8,90.8 440.7,90.8 440.6,90.9 C440.5,91 440.4,90.9 440.4,90.9 C440.3,90.9 440.2,90.7 440,90.5 L437.9,87.9 L438.7,87.3 L438.2,86.7 L437.4,87.3 L436.1,85.8 L435.7,86.9 L436.6,88 L436,88.4 L436.5,89 L437.1,88.6 L439.2,91.1 C439.6,91.6 439.8,91.8 440,91.9 C440.2,92 440.4,92 440.6,92 C440.8,92 441.1,91.8 441.3,91.6 C441.5,91.5 441.6,91.3 441.8,91.1 L441.2,90.5 C441.1,90.5 441,90.6 440.9,90.7 L440.9,90.7 L440.9,90.7 Z M455.9,78.5 L455.6,78.8 C455.5,78.9 455.4,78.9 455.3,79 L455.1,79 C455,79 454.9,78.8 454.7,78.6 L452.6,76 L453.4,75.4 L452.9,74.8 L452.1,75.4 L450.8,73.9 L450.4,75 L451.3,76.1 L450.7,76.5 L451.2,77.1 L451.8,76.7 L453.9,79.3 C454.3,79.8 454.5,80 454.7,80.1 C454.9,80.2 455.1,80.2 455.3,80.2 C455.5,80.2 455.8,80 456,79.8 C456.2,79.7 456.3,79.5 456.5,79.3 L455.9,78.5 L455.9,78.5 Z M436.7,90.8 C436.3,90.7 435.9,90.7 435.4,90.8 C435.1,90.9 434.5,91.1 433.7,91.5 C432.9,91.9 432.4,92.1 432.1,92.1 C431.8,92.1 431.6,92 431.4,91.8 C431.2,91.5 431.1,91.2 431.2,90.9 C431.3,90.5 431.6,90.2 432.1,89.8 C432.6,89.4 433,89.2 433.4,89.2 C433.8,89.2 434.2,89.4 434.5,89.7 L435.2,89 C434.9,88.7 434.5,88.4 434.1,88.3 C433.7,88.2 433.2,88.2 432.8,88.3 C432.3,88.4 431.9,88.7 431.4,89.1 C431,89.4 430.7,89.8 430.4,90.2 C430.2,90.6 430.1,91 430.1,91.4 C430.1,91.8 430.3,92.2 430.5,92.5 C430.7,92.8 431,93 431.3,93.1 C431.6,93.2 432,93.2 432.4,93.1 C432.7,93 433.2,92.8 433.9,92.5 C434.6,92.2 435,92 435.2,91.9 C435.5,91.8 435.8,91.8 436,91.8 C436.2,91.9 436.4,92 436.6,92.2 C436.8,92.4 436.8,92.6 436.9,92.9 C436.9,93.2 436.8,93.4 436.7,93.7 C436.5,94 436.3,94.2 436,94.5 C435.7,94.8 435.3,95 434.9,95.1 C434.5,95.2 434.2,95.2 433.9,95.1 C433.6,95 433.3,94.8 433,94.6 L432.3,95.3 C432.6,95.7 433.1,96 433.5,96.1 C434,96.3 434.5,96.3 435,96.1 C435.5,96 436,95.7 436.6,95.2 C437,94.8 437.4,94.4 437.6,94 C437.8,93.6 437.9,93.1 437.9,92.7 C437.9,92.3 437.7,91.9 437.4,91.6 C437.4,91.2 437.1,91 436.7,90.8 L436.7,90.8 L436.7,90.8 Z M418.5,108.9 L415.4,105.1 L414.7,105.7 L415.1,106.2 C414.4,106.1 413.8,106.2 413.3,106.6 C412.9,106.9 412.6,107.3 412.5,107.7 C412.4,108.1 412.4,108.6 412.5,109.1 C412.6,109.6 412.9,110 413.2,110.5 C413.7,111.1 414.3,111.5 415,111.7 C415.7,111.9 416.3,111.7 416.9,111.2 C417.4,110.8 417.6,110.3 417.7,109.6 C418.1,110.1 418.3,110.4 418.4,110.6 C418.5,110.9 418.6,111.2 418.5,111.5 C418.4,111.8 418.2,112.1 417.9,112.4 C417.6,112.7 417.3,112.8 417,112.8 C416.8,112.8 416.6,112.7 416.3,112.5 L415.5,113 C415.9,113.5 416.3,113.7 416.8,113.7 C417.3,113.7 417.8,113.4 418.4,113 C418.8,112.6 419.2,112.3 419.3,111.8 C419.5,111.4 419.5,111 419.4,110.6 C419.4,110.1 419.1,109.6 418.5,108.9 L418.5,108.9 L418.5,108.9 Z M416.6,110.4 C416.3,110.7 415.9,110.8 415.4,110.7 C415,110.6 414.5,110.3 414,109.7 C413.6,109.2 413.4,108.7 413.4,108.2 C413.4,107.7 413.6,107.4 413.9,107.1 C414.2,106.8 414.6,106.7 415.1,106.8 C415.6,106.9 416,107.2 416.5,107.7 C417,108.3 417.2,108.8 417.2,109.2 C417.1,109.8 416.9,110.2 416.6,110.4 L416.6,110.4 L416.6,110.4 Z M422.2,103.8 L421.4,102.8 C421.1,102.5 420.9,102.2 420.8,102.1 C420.6,101.9 420.4,101.8 420.2,101.8 C420,101.8 419.7,101.8 419.4,101.9 C419.1,102 418.7,102.2 418.4,102.5 C418,102.8 417.7,103.1 417.5,103.5 C417.3,103.8 417.2,104.2 417.2,104.5 C417.2,104.8 417.3,105.2 417.5,105.5 L418.3,105 C418.1,104.6 418.1,104.3 418.1,104 C418.2,103.7 418.4,103.5 418.7,103.2 C419.1,102.9 419.4,102.7 419.8,102.8 C420,102.8 420.3,103 420.5,103.3 L420.7,103.5 C420.5,103.8 420.1,104.3 419.6,104.8 C419.3,105.1 419.1,105.3 419,105.5 C418.8,105.7 418.7,105.9 418.7,106.2 C418.6,106.4 418.6,106.7 418.7,106.9 C418.7,107.2 418.9,107.4 419,107.6 C419.3,108 419.7,108.2 420.1,108.2 C420.6,108.2 421,108 421.5,107.6 C421.8,107.4 422,107.1 422.2,106.8 C422.4,106.5 422.5,106.1 422.6,105.6 C422.8,105.8 423,105.9 423.2,106 L424,105.4 C423.8,105.3 423.6,105.2 423.4,105 C423.2,104.9 422.8,104.5 422.2,103.8 L422.2,103.8 L422.2,103.8 Z M421.8,106.1 C421.7,106.4 421.5,106.7 421.2,106.9 C420.9,107.1 420.6,107.2 420.4,107.2 C420.1,107.2 419.9,107.1 419.8,106.9 C419.7,106.8 419.6,106.6 419.6,106.5 C419.6,106.3 419.6,106.2 419.7,106 C419.8,105.8 420,105.6 420.2,105.3 C420.7,104.8 421,104.4 421.2,104 L421.4,104.3 C421.7,104.6 421.8,104.9 421.9,105.2 C422,105.5 421.9,105.8 421.8,106.1 L421.8,106.1 L421.8,106.1 Z M425.7,103 C425.6,103.1 425.5,103.1 425.4,103.2 L425.2,103.2 C425.1,103.2 425,103 424.8,102.8 L422.7,100.2 L423.5,99.6 L423,99 L422.2,99.6 L420.9,98.1 L420.5,99.2 L421.4,100.3 L420.8,100.7 L421.3,101.3 L421.9,100.9 L424,103.4 C424.4,103.9 424.6,104.1 424.8,104.2 C425,104.3 425.2,104.3 425.4,104.3 C425.6,104.3 425.9,104.1 426.1,103.9 C426.3,103.8 426.4,103.6 426.6,103.4 L426,102.8 C425.9,102.9 425.8,103 425.7,103 L425.7,103 L425.7,103 Z M425.7,103" class="Shape"/>
            <path d="M300,43.8 C300.2,44.4 300.3,45 300.1,45.5 C299.9,46 299.6,46.4 299.1,46.7 C298.7,47 298.3,47.1 297.8,47.1 C297.3,47.1 296.9,47 296.4,46.7 C296,46.4 295.6,45.9 295.2,45.4 C294.9,45 294.7,44.5 294.6,44 C294.5,43.5 294.5,43 294.7,42.6 C294.9,42.1 295.2,41.7 295.7,41.4 C296.1,41.1 296.6,41 297,41 C297.4,41 297.9,41.2 298.3,41.6 L299,40.8 C298.4,40.3 297.8,40 297.1,40 C296.4,40 295.8,40.1 295.1,40.6 C294.5,41 294.1,41.5 293.8,42 C293.5,42.6 293.4,43.2 293.4,43.9 C293.5,44.6 293.7,45.3 294.2,46 C294.6,46.6 295.1,47.1 295.7,47.5 C296.3,47.9 296.9,48.1 297.5,48.1 C298.1,48.1 298.8,47.9 299.5,47.4 C300.2,47 300.6,46.4 300.9,45.7 C301.1,45 301.1,44.3 300.8,43.4 L300,43.8 L300,43.8 Z M299,38.3 L303.3,44.9 L304.1,44.4 L299.8,37.8 L299,38.3 L299,38.3 Z M308,39.1 L307.3,38 C307.1,37.6 306.9,37.4 306.8,37.3 C306.6,37.1 306.4,37 306.2,36.9 C306,36.8 305.7,36.8 305.4,36.9 C305.1,37 304.7,37.1 304.3,37.4 C303.9,37.7 303.6,38 303.3,38.3 C303.1,38.6 302.9,38.9 302.9,39.2 C302.9,39.5 302.9,39.9 303.1,40.3 L304,39.9 C303.9,39.5 303.8,39.2 303.9,38.9 C304,38.6 304.2,38.4 304.6,38.2 C305,37.9 305.4,37.8 305.7,37.9 C305.9,37.9 306.2,38.1 306.4,38.4 C306.4,38.4 306.5,38.5 306.5,38.6 C306.3,38.9 305.8,39.3 305.2,39.8 C304.9,40 304.7,40.2 304.6,40.4 C304.4,40.6 304.3,40.8 304.2,41 C304.1,41.2 304.1,41.5 304.1,41.7 C304.1,42 304.2,42.2 304.4,42.4 C304.7,42.8 305,43 305.5,43.1 C305.9,43.2 306.4,43 307,42.7 C307.3,42.5 307.6,42.2 307.8,42 C308,41.7 308.2,41.3 308.3,40.9 L308.8,41.4 L309.6,40.9 C309.4,40.8 309.2,40.6 309,40.5 C308.8,40.3 308.4,39.8 308,39.1 L308,39.1 L308,39.1 Z M307.3,41.3 C307.1,41.6 306.9,41.8 306.6,42 C306.3,42.2 306,42.3 305.7,42.2 C305.4,42.2 305.2,42 305.1,41.8 C305,41.7 305,41.5 305,41.3 C305,41.1 305.1,41 305.1,40.8 C305.2,40.7 305.4,40.4 305.7,40.2 C306.2,39.7 306.6,39.3 306.8,39 L307,39.3 C307.2,39.7 307.4,40 307.4,40.2 C307.5,40.7 307.5,41 307.3,41.3 L307.3,41.3 L307.3,41.3 Z M315.2,14.7 L315.6,15.3 L316.2,14.9 L318,17.7 C318.3,18.2 318.6,18.5 318.7,18.6 C318.9,18.7 319.1,18.8 319.3,18.7 C319.5,18.7 319.8,18.6 320.1,18.4 C320.3,18.3 320.5,18.1 320.7,17.9 L320.1,17.3 L319.8,17.6 C319.7,17.7 319.6,17.7 319.5,17.7 C319.4,17.7 319.3,17.7 319.3,17.6 C319.2,17.6 319.1,17.4 319,17.2 L317.2,14.4 L318,13.9 L317.6,13.3 L316.8,13.8 L315.7,12.1 L315.2,13.1 L316,14.3 L315.2,14.7 L315.2,14.7 Z M320.3,11.4 L320.7,12 L321.3,11.6 L323.1,14.4 C323.4,14.9 323.7,15.2 323.8,15.3 C324,15.4 324.2,15.5 324.4,15.4 C324.6,15.4 324.9,15.3 325.2,15.1 C325.4,15 325.6,14.8 325.8,14.6 L325.2,14 L324.9,14.3 C324.8,14.4 324.7,14.4 324.6,14.4 C324.5,14.4 324.4,14.4 324.4,14.3 C324.3,14.3 324.2,14.1 324.1,13.9 L322.3,11.1 L323.1,10.6 L322.7,10 L321.9,10.5 L320.8,8.8 L320.3,9.8 L321.1,11 L320.3,11.4 L320.3,11.4 Z M316.7,20.5 L317.5,20 L314.4,15.2 L313.6,15.7 L316.7,20.5 L316.7,20.5 Z M313.8,14.3 L313.2,13.4 L312.4,13.9 L313,14.8 L313.8,14.3 L313.8,14.3 Z M311.5,23.9 L312.5,23.3 L312.5,20.6 L313,20.8 L314.9,21.6 L315.9,21 L312.5,19.6 L312.7,16.3 L311.7,16.9 L311.6,18.6 L311.6,19.4 C311.4,19.3 311.2,19.2 310.9,19.1 L309.4,18.5 L308.4,19.2 L311.5,20.4 L311.5,23.9 L311.5,23.9 Z M310.9,24.2 L310.4,23.4 L306.3,26 L304.8,23.8 L308.5,21.4 L308,20.6 L304.3,23 L303,21 L306.9,18.5 L306.4,17.7 L301.6,20.8 L305.9,27.4 L310.9,24.2 L310.9,24.2 Z M329.4,12 C329.6,11.6 329.7,11.1 329.7,10.7 C329.7,10.2 329.4,9.7 329,9.1 C328.5,8.3 327.9,7.9 327.2,7.7 C326.5,7.5 325.8,7.7 325.2,8.1 C324.6,8.5 324.2,9 324,9.6 C323.8,10.3 324,11.2 324.5,12 C325,12.8 325.6,13.3 326.3,13.5 C327,13.7 327.7,13.5 328.3,13.1 C328.8,12.8 329.1,12.4 329.4,12 L329.4,12 L329.4,12 Z M328,12.4 C327.6,12.7 327.2,12.7 326.7,12.6 C326.2,12.5 325.8,12.1 325.4,11.5 C325,10.9 324.8,10.3 324.9,9.9 C325,9.4 325.2,9.1 325.6,8.8 C326,8.5 326.4,8.5 326.9,8.6 C327.4,8.7 327.8,9.1 328.2,9.7 C328.6,10.3 328.8,10.9 328.7,11.4 C328.6,11.7 328.4,12.1 328,12.4 L328,12.4 L328,12.4 Z M311.3,32.9 L310.5,33.4 L311.3,36.9 C311.4,37.3 311.5,37.8 311.7,38.2 C311.3,37.9 311,37.6 310.6,37.3 L307.8,35.2 L306.9,35.8 L311.8,39.4 C311.8,39.5 311.8,39.6 311.9,39.6 C312,40 312,40.3 312,40.4 C312,40.6 312,40.7 311.9,40.8 C311.8,40.9 311.7,41.1 311.5,41.2 C311.4,41.3 311.2,41.4 311,41.4 L311.6,42.1 C311.8,42 312,42 312.2,41.9 C312.5,41.7 312.6,41.5 312.7,41.3 C312.8,41.1 312.8,40.8 312.8,40.4 C312.8,40.1 312.7,39.7 312.6,39 L311.3,32.9 L311.3,32.9 Z M337.9,17.5 C337.8,17.3 337.8,17.1 337.9,16.9 C338,16.7 338.1,16.5 338.3,16.4 C338.5,16.3 338.7,16.2 339,16.2 L338.8,15.3 C338.4,15.3 338.1,15.4 337.8,15.6 C337.6,15.7 337.5,15.9 337.4,16.1 C337.3,16.3 337.3,16.6 337.3,17.1 L336.8,16.4 L336.1,16.9 L339.2,21.7 L340,21.2 L338.4,18.7 C338.2,18.2 338,17.9 337.9,17.5 L337.9,17.5 L337.9,17.5 Z M337.6,21.7 C337.5,21.8 337.4,21.8 337.3,21.8 C337.2,21.8 337.1,21.8 337.1,21.7 C337,21.7 336.9,21.5 336.8,21.3 L335,18.5 L335.8,18 L335.4,17.4 L334.6,17.9 L333.5,16.2 L333,17.2 L333.8,18.4 L333.2,18.8 L333.6,19.4 L334.2,19 L336,21.8 C336.3,22.3 336.6,22.6 336.7,22.7 C336.9,22.8 337.1,22.9 337.3,22.8 C337.5,22.8 337.8,22.7 338.1,22.5 C338.3,22.4 338.5,22.2 338.7,22 L338.1,21.4 C337.8,21.5 337.7,21.6 337.6,21.7 L337.6,21.7 L337.6,21.7 Z M353.9,11.1 L353.6,11.4 C353.5,11.5 353.4,11.5 353.3,11.5 C353.2,11.5 353.1,11.5 353.1,11.4 C353,11.4 352.9,11.2 352.8,11 L351,8.2 L351.8,7.7 L351.2,7 L350.4,7.5 L349.3,5.8 L348.8,6.8 L349.6,8 L349,8.5 L349.4,9.1 L350,8.7 L351.8,11.5 C352.1,12 352.4,12.3 352.5,12.4 C352.7,12.5 352.9,12.6 353.1,12.5 C353.3,12.5 353.6,12.4 353.9,12.2 C354.1,12.1 354.3,11.9 354.5,11.7 L353.9,11.1 L353.9,11.1 Z M349.7,12.6 C349.8,13 349.8,13.4 349.7,13.7 C349.6,14 349.4,14.2 349.1,14.4 C348.7,14.7 348.3,14.7 347.8,14.6 C347.4,14.5 346.9,14.2 346.6,13.7 L350.2,11.4 C350.1,11.3 350.1,11.2 350.1,11.2 C349.6,10.4 349,9.9 348.3,9.8 C347.6,9.6 346.9,9.7 346.3,10.2 C345.6,10.6 345.2,11.2 345.1,11.9 C345,12.6 345.2,13.4 345.7,14.2 C346.2,15 346.8,15.4 347.5,15.6 C348.2,15.8 348.9,15.6 349.6,15.2 C350.2,14.8 350.5,14.4 350.7,13.9 C350.9,13.4 350.9,12.9 350.7,12.3 L349.7,12.6 L349.7,12.6 Z M346,11.8 C346.1,11.4 346.3,11.1 346.7,10.8 C347.1,10.5 347.5,10.5 348,10.6 C348.3,10.7 348.6,10.9 348.9,11.3 L346.2,13 C346,12.6 345.9,12.2 346,11.8 L346,11.8 L346,11.8 Z M344.6,15.9 C344.7,16.3 344.7,16.7 344.6,17 C344.5,17.3 344.3,17.5 344,17.7 C343.6,18 343.2,18 342.7,17.9 C342.3,17.8 341.8,17.5 341.5,17 L345.1,14.7 C345,14.6 345,14.5 345,14.5 C344.5,13.7 343.9,13.2 343.2,13.1 C342.5,12.9 341.8,13 341.2,13.5 C340.5,13.9 340.1,14.5 340,15.2 C339.9,15.9 340.1,16.7 340.6,17.5 C341.1,18.3 341.7,18.7 342.4,18.9 C343.1,19.1 343.8,18.9 344.5,18.5 C345.1,18.1 345.4,17.7 345.6,17.2 C345.8,16.7 345.8,16.2 345.6,15.6 L344.6,15.9 L344.6,15.9 Z M340.8,15.1 C340.9,14.7 341.1,14.4 341.5,14.1 C341.9,13.8 342.3,13.8 342.8,13.9 C343.1,14 343.4,14.2 343.7,14.6 L341,16.3 C340.8,15.9 340.7,15.5 340.8,15.1 L340.8,15.1 L340.8,15.1 Z M316.1,35.6 C316,35.7 315.9,35.7 315.8,35.7 C315.7,35.7 315.6,35.7 315.6,35.6 C315.5,35.6 315.4,35.4 315.3,35.2 L313.5,32.4 L314.3,31.9 L313.9,31.3 L313.1,31.8 L312,30.1 L311.5,31.1 L312.3,32.3 L311.7,32.7 L312.1,33.3 L312.7,32.9 L314.5,35.7 C314.8,36.2 315.1,36.5 315.2,36.6 C315.4,36.7 315.6,36.8 315.8,36.7 C316,36.7 316.3,36.6 316.6,36.4 C316.8,36.3 317,36.1 317.2,35.9 L316.6,35.3 C316.3,35.5 316.2,35.6 316.1,35.6 L316.1,35.6 L316.1,35.6 Z M318.5,29 C317.8,28.8 317.1,29 316.5,29.4 C315.9,29.8 315.5,30.3 315.3,30.9 C315.1,31.6 315.3,32.5 315.8,33.3 C316.3,34.1 316.9,34.6 317.6,34.8 C318.3,35 319,34.8 319.6,34.4 C320,34.1 320.3,33.8 320.6,33.4 C320.8,33 320.9,32.5 320.9,32.1 C320.9,31.6 320.6,31.1 320.2,30.5 C319.8,29.7 319.2,29.2 318.5,29 L318.5,29 L318.5,29 Z M320,32.7 C319.9,33.2 319.7,33.6 319.3,33.8 C318.9,34.1 318.5,34.1 318,34 C317.5,33.9 317.1,33.5 316.7,32.9 C316.3,32.3 316.1,31.7 316.2,31.3 C316.3,30.8 316.5,30.5 316.9,30.2 C317.3,29.9 317.7,29.9 318.2,30 C318.7,30.1 319.1,30.5 319.5,31.1 C319.9,31.6 320,32.2 320,32.7 L320,32.7 L320,32.7 Z M333.5,21.3 C333.1,21.1 332.7,21.1 332.2,21.2 C331.9,21.3 331.3,21.4 330.5,21.7 C329.7,22 329.1,22.1 328.9,22.1 C328.6,22.1 328.4,21.9 328.3,21.7 C328.1,21.4 328.1,21.1 328.2,20.8 C328.3,20.4 328.6,20.1 329.2,19.8 C329.7,19.5 330.2,19.3 330.6,19.4 C331,19.4 331.4,19.7 331.7,20 L332.5,19.4 C332.2,19 331.9,18.7 331.5,18.6 C331.1,18.4 330.7,18.4 330.2,18.5 C329.7,18.6 329.2,18.8 328.8,19.1 C328.4,19.4 328,19.7 327.7,20.1 C327.4,20.5 327.3,20.9 327.3,21.3 C327.3,21.7 327.4,22.1 327.6,22.4 C327.8,22.7 328.1,22.9 328.4,23.1 C328.7,23.2 329.1,23.3 329.5,23.3 C329.8,23.3 330.3,23.1 331,22.9 C331.7,22.7 332.2,22.5 332.4,22.5 C332.7,22.4 333,22.4 333.2,22.5 C333.4,22.6 333.6,22.7 333.7,22.9 C333.8,23.1 333.9,23.3 333.9,23.6 C333.9,23.9 333.8,24.1 333.6,24.4 C333.4,24.7 333.1,24.9 332.8,25.1 C332.4,25.3 332,25.5 331.7,25.6 C331.3,25.7 331,25.6 330.7,25.5 C330.4,25.4 330.2,25.2 329.9,24.9 L329.1,25.5 C329.4,25.9 329.8,26.3 330.2,26.5 C330.7,26.7 331.1,26.8 331.7,26.7 C332.2,26.6 332.8,26.4 333.4,26 C333.9,25.7 334.2,25.3 334.5,24.9 C334.8,24.5 334.9,24.1 334.9,23.6 C334.9,23.2 334.8,22.8 334.6,22.4 C334.1,21.8 333.8,21.5 333.5,21.3 L333.5,21.3 L333.5,21.3 Z M324.2,26 C324,25.8 323.8,25.7 323.6,25.6 C323.4,25.5 323.1,25.5 322.8,25.5 C322.5,25.6 322.2,25.7 321.9,25.9 C321.2,26.3 320.9,26.9 320.9,27.7 L320.5,27 L319.8,27.5 L322.9,32.3 L323.7,31.8 L322,29.2 C321.6,28.6 321.5,28.1 321.6,27.7 C321.7,27.3 321.9,27 322.3,26.8 C322.5,26.7 322.7,26.6 323,26.6 C323.2,26.6 323.4,26.7 323.6,26.8 C323.8,26.9 324,27.1 324.2,27.5 L326.1,30.4 L326.9,29.9 L325,27 C324.6,26.4 324.4,26.2 324.2,26 L324.2,26 L324.2,26 Z M324.2,26" class="Shape"/>
            <path d="M238.1,34.7 L233.4,33.4 L234.1,30.8 L238.3,31.9 L238.5,31 L234.3,29.9 L234.9,27.6 L239.4,28.8 L239.6,27.9 L234.1,26.4 L232.1,34 L237.8,35.5 L238.1,34.7 L238.1,34.7 Z M224.8,43.3 L225.1,42.1 C225.2,41.7 225.3,41.4 225.3,41.2 C225.3,40.9 225.3,40.7 225.2,40.5 C225.1,40.3 224.9,40.1 224.7,39.9 C224.4,39.7 224.1,39.6 223.6,39.4 C223.1,39.3 222.7,39.2 222.3,39.3 C221.9,39.3 221.6,39.4 221.3,39.6 C221,39.8 220.8,40.1 220.6,40.4 L221.5,40.8 C221.7,40.4 221.9,40.2 222.2,40.1 C222.4,40 222.8,40 223.2,40.1 C223.7,40.2 224,40.4 224.2,40.7 C224.3,40.9 224.4,41.2 224.2,41.6 C224.2,41.6 224.2,41.7 224.1,41.8 C223.7,41.8 223.1,41.8 222.3,41.7 C221.9,41.6 221.6,41.6 221.4,41.6 C221.1,41.6 220.9,41.6 220.6,41.7 C220.4,41.8 220.2,41.9 220,42.1 C219.8,42.3 219.7,42.5 219.6,42.8 C219.5,43.3 219.5,43.7 219.8,44.1 C220.1,44.5 220.5,44.8 221.1,44.9 C221.5,45 221.8,45 222.2,45 C222.6,45 222.9,44.8 223.4,44.6 L223.4,45.3 L224.4,45.6 C224.3,45.4 224.3,45.1 224.3,44.9 C224.5,44.7 224.6,44.2 224.8,43.3 L224.8,43.3 L224.8,43.3 Z M223.9,42.9 C223.8,43.3 223.7,43.6 223.5,43.8 C223.3,44 223,44.2 222.7,44.3 C222.4,44.4 222,44.4 221.7,44.3 C221.3,44.2 221.1,44 220.9,43.8 C220.8,43.6 220.7,43.3 220.8,43.1 C220.8,42.9 220.9,42.8 221,42.7 C221.1,42.6 221.3,42.5 221.4,42.5 L222.3,42.5 C223,42.6 223.5,42.6 223.9,42.6 L223.9,42.9 L223.9,42.9 Z M230.7,41.4 L228.7,44.3 C228.4,44.7 228.2,45.1 228,45.5 C228,45 228,44.6 227.9,44.1 L227.6,40.6 L226.6,40.3 L227.2,46.4 C227.1,46.5 227.1,46.6 227.1,46.6 C226.9,46.9 226.7,47.1 226.6,47.2 C226.5,47.3 226.4,47.4 226.2,47.4 L225.7,47.4 C225.5,47.4 225.4,47.3 225.2,47.2 L225.1,48.1 L225.7,48.4 C226,48.5 226.3,48.5 226.5,48.4 C226.8,48.3 227,48.1 227.3,47.9 C227.5,47.7 227.8,47.3 228.2,46.8 L231.8,41.8 L230.7,41.4 L230.7,41.4 Z M237.7,43.2 C237,43 236.4,43.1 235.8,43.3 C235.1,43.6 234.6,44.3 234.3,45.3 C234.1,46.2 234.1,47 234.4,47.6 C234.7,48.2 235.3,48.6 236.1,48.8 C236.6,48.9 237.1,48.9 237.5,48.8 C238,48.7 238.4,48.5 238.7,48.1 C239,47.7 239.3,47.2 239.5,46.5 C239.7,45.6 239.7,44.9 239.3,44.2 C239,43.8 238.4,43.4 237.7,43.2 L237.7,43.2 L237.7,43.2 Z M238.5,46.5 C238.3,47.2 238,47.7 237.6,48 C237.2,48.3 236.8,48.3 236.3,48.2 C235.8,48.1 235.5,47.8 235.3,47.4 C235.1,47 235.1,46.4 235.3,45.7 C235.5,45 235.8,44.5 236.2,44.2 C236.6,43.9 237,43.9 237.5,44 C238,44.1 238.3,44.4 238.5,44.8 C238.7,45.2 238.7,45.8 238.5,46.5 L238.5,46.5 L238.5,46.5 Z M233.4,42.9 L234.3,43.2 L234.5,42.5 L233.6,42.2 L234.1,40.3 L233,40.6 L232.6,42 L231.9,41.8 L231.7,42.5 L232.4,42.7 L231.6,45.9 C231.4,46.5 231.4,46.8 231.4,47 C231.4,47.2 231.5,47.4 231.7,47.5 C231.9,47.7 232.1,47.8 232.4,47.9 C232.6,48 232.9,48 233.1,48 L233.2,47.1 C233,47.1 232.9,47.1 232.8,47 C232.7,47 232.6,46.9 232.5,46.8 C232.4,46.7 232.4,46.7 232.4,46.6 C232.4,46.5 232.4,46.3 232.5,46.1 L233.4,42.9 L233.4,42.9 Z M219.4,36.2 L217.4,43.8 L218.3,44.1 L220.3,36.5 L219.4,36.2 L219.4,36.2 Z M214.8,41.8 C214.3,42 213.8,42.1 213.2,41.9 C212.7,41.8 212.3,41.5 212,41.2 C211.7,40.9 211.5,40.4 211.4,39.9 C211.3,39.4 211.4,38.8 211.6,38.1 C211.7,37.6 211.9,37.1 212.2,36.7 C212.5,36.3 212.9,36 213.3,35.8 C213.8,35.6 214.3,35.6 214.9,35.8 C215.4,35.9 215.8,36.2 216.1,36.5 C216.4,36.8 216.5,37.3 216.5,37.9 L217.6,37.9 C217.6,37.1 217.4,36.5 217,36 C216.6,35.5 216,35.1 215.2,34.9 C214.5,34.7 213.9,34.7 213.2,34.9 C212.6,35.1 212,35.4 211.5,35.9 C211,36.4 210.7,37.1 210.5,37.9 C210.3,38.6 210.3,39.3 210.4,40 C210.5,40.7 210.8,41.3 211.2,41.8 C211.6,42.3 212.2,42.6 213.1,42.8 C213.9,43 214.6,43 215.3,42.7 C216,42.4 216.5,41.9 216.9,41.1 L216,40.6 C215.7,41.1 215.3,41.6 214.8,41.8 L214.8,41.8 L214.8,41.8 Z M253.4,39.7 C253.6,39.9 253.8,40 254.1,40.1 C254.3,40.2 254.5,40.2 254.8,40.2 L254.9,39.3 C254.7,39.3 254.6,39.3 254.5,39.2 C254.4,39.2 254.3,39.1 254.2,39 C254.1,38.9 254.1,38.9 254.1,38.8 C254.1,38.7 254.1,38.5 254.2,38.3 L255.1,35.1 L256,35.4 L256.2,34.7 L255.3,34.4 L255.8,32.5 L254.7,32.8 L254.3,34.2 L253.6,34 L253.4,34.7 L254.1,34.9 L253.3,38.1 C253.2,38.7 253.1,39 253.1,39.2 C253.2,39.3 253.2,39.5 253.4,39.7 L253.4,39.7 L253.4,39.7 Z M238.5,35.8 L239.6,36.1 L241.6,34.3 L241.8,34.8 L242.5,36.8 L243.6,37.1 L242.3,33.6 L244.9,31.5 L243.8,31.2 L242.5,32.3 C242.3,32.4 242.1,32.6 241.9,32.8 C241.8,32.6 241.8,32.4 241.7,32.1 L241.2,30.6 L240,30.3 L241.2,33.4 L238.5,35.8 L238.5,35.8 Z M276.7,53.8 L277.2,51.9 L276.1,52.2 L275.7,53.6 L275,53.4 L274.8,54.1 L275.5,54.3 L274.7,57.5 C274.6,58.1 274.5,58.4 274.5,58.6 C274.5,58.8 274.6,59 274.8,59.1 C275,59.3 275.2,59.4 275.5,59.5 C275.7,59.6 275.9,59.6 276.2,59.6 L276.3,58.7 C276.1,58.7 276,58.7 275.9,58.6 C275.8,58.6 275.7,58.5 275.6,58.4 C275.5,58.3 275.5,58.3 275.5,58.2 C275.5,58.1 275.5,57.9 275.6,57.7 L276.5,54.5 L277.4,54.8 L277.6,54.1 L276.7,53.8 L276.7,53.8 Z M258.2,49.6 L259.1,49.9 L259.3,49.2 L258.4,48.9 L258.9,47 L257.8,47.3 L257.4,48.7 L256.7,48.5 L256.5,49.2 L257.2,49.4 L256.3,52.6 C256.2,53.2 256.1,53.5 256.1,53.7 C256.1,53.9 256.2,54.1 256.4,54.2 C256.6,54.4 256.8,54.5 257.1,54.6 C257.3,54.7 257.5,54.7 257.8,54.7 L257.9,53.8 C257.7,53.8 257.6,53.8 257.5,53.7 C257.4,53.7 257.3,53.6 257.2,53.5 C257.1,53.4 257.1,53.4 257.1,53.3 C257.1,53.2 257.1,53 257.2,52.8 L258.2,49.6 L258.2,49.6 Z M257.9,41.1 C258.4,41.2 258.9,41.2 259.3,41.1 C259.8,41 260.2,40.8 260.5,40.4 C260.8,40.1 261.1,39.5 261.3,38.8 C261.5,37.9 261.5,37.2 261.1,36.6 C260.8,36 260.2,35.6 259.4,35.4 C258.7,35.2 258.1,35.3 257.5,35.5 C256.8,35.8 256.3,36.5 256,37.5 C255.8,38.4 255.8,39.2 256.1,39.8 C256.5,40.5 257.1,40.9 257.9,41.1 L257.9,41.1 L257.9,41.1 Z M257,37.8 C257.2,37.1 257.5,36.6 257.9,36.3 C258.3,36 258.7,36 259.2,36.1 C259.7,36.2 260,36.5 260.2,36.9 C260.4,37.3 260.4,37.9 260.2,38.6 C260,39.3 259.7,39.8 259.3,40.1 C258.9,40.4 258.5,40.4 258,40.3 C257.5,40.2 257.2,39.9 257,39.5 C256.8,39 256.8,38.5 257,37.8 L257,37.8 L257,37.8 Z M244.8,45.3 C244.6,45.1 244.3,45 243.9,44.9 C243.1,44.7 242.5,44.8 241.9,45.3 L242.1,44.5 L241.3,44.3 L239.8,49.8 L240.7,50 L241.5,47 C241.7,46.3 242,45.9 242.3,45.7 C242.7,45.5 243,45.5 243.4,45.6 C243.6,45.7 243.9,45.8 244,45.9 C244.2,46.1 244.2,46.2 244.3,46.5 C244.3,46.7 244.3,47 244.2,47.4 L243.3,50.8 L244.2,51.1 L245.1,47.7 C245.2,47.3 245.3,47 245.3,46.8 C245.3,46.5 245.3,46.3 245.2,46 C245.2,45.7 245.1,45.5 244.8,45.3 L244.8,45.3 L244.8,45.3 Z M266,50.8 C265.2,50.6 264.6,50.7 263.9,51.1 C263.3,51.5 262.9,52.1 262.6,53.1 C262.4,54 262.4,54.8 262.7,55.4 C263,56 263.6,56.4 264.4,56.7 C265,56.9 265.6,56.9 266.1,56.7 C266.6,56.5 267,56.1 267.3,55.6 L266.4,55.2 C266.2,55.6 265.9,55.8 265.6,55.9 C265.3,56 265,56 264.7,55.9 C264.2,55.8 263.9,55.5 263.7,55.1 C263.5,54.7 263.4,54.2 263.6,53.6 L267.7,54.7 C267.7,54.6 267.8,54.5 267.8,54.5 C268,53.6 268,52.8 267.7,52.2 C267.3,51.4 266.8,51 266,50.8 L266,50.8 L266,50.8 Z M266.9,53.5 L263.8,52.7 C264,52.2 264.2,51.9 264.6,51.7 C265,51.5 265.4,51.4 265.8,51.6 C266.3,51.7 266.6,52 266.8,52.4 C267,52.7 267,53.1 266.9,53.5 L266.9,53.5 L266.9,53.5 Z M272,52.4 C271.2,52.2 270.6,52.3 269.9,52.7 C269.3,53.1 268.9,53.7 268.6,54.7 C268.4,55.6 268.4,56.4 268.7,57 C269,57.6 269.6,58 270.4,58.3 C271,58.5 271.6,58.5 272.1,58.3 C272.6,58.1 273,57.7 273.3,57.2 L272.4,56.8 C272.2,57.2 271.9,57.4 271.6,57.5 C271.3,57.6 271,57.6 270.7,57.5 C270.2,57.4 269.9,57.1 269.7,56.7 C269.5,56.3 269.4,55.8 269.6,55.2 L273.7,56.3 C273.7,56.2 273.8,56.1 273.8,56.1 C274,55.2 274,54.4 273.7,53.8 C273.4,53.2 272.7,52.6 272,52.4 L272,52.4 L272,52.4 Z M272.8,55.1 L269.7,54.3 C269.9,53.8 270.1,53.5 270.5,53.3 C270.9,53.1 271.3,53 271.7,53.2 C272.2,53.3 272.5,53.6 272.7,54 C272.9,54.3 272.9,54.6 272.8,55.1 L272.8,55.1 L272.8,55.1 Z M263.1,50.3 C262.8,50 262.5,49.8 262.2,49.7 C262,49.6 261.8,49.7 261.6,49.7 C261.4,49.8 261.1,50 260.8,50.3 L261,49.5 L260.2,49.3 L258.7,54.8 L259.6,55 L260.4,52.1 C260.5,51.7 260.7,51.4 260.8,51.1 C260.9,50.9 261.1,50.8 261.3,50.7 C261.5,50.6 261.7,50.6 261.9,50.7 C262.1,50.8 262.3,50.9 262.5,51.1 L263.1,50.3 L263.1,50.3 Z M244.4,37.4 L245.3,37.6 L246.8,32.1 L245.9,31.8 L244.4,37.4 L244.4,37.4 Z M254.9,45.8 C254.5,45.5 254,45.3 253.5,45.1 C253,45 252.5,44.9 252,45 C251.5,45.1 251.1,45.2 250.8,45.5 C250.5,45.8 250.3,46.1 250.2,46.5 C250.1,46.8 250.1,47.2 250.2,47.5 C250.3,47.8 250.5,48.1 250.8,48.4 C251,48.6 251.5,48.9 252.1,49.3 C252.8,49.7 253.2,49.9 253.4,50 C253.7,50.2 253.9,50.4 254,50.6 C254.1,50.8 254.1,51 254,51.3 C253.9,51.5 253.8,51.7 253.6,51.9 C253.4,52.1 253.1,52.2 252.8,52.2 C252.5,52.2 252.1,52.2 251.7,52.1 C251.3,52 250.9,51.8 250.6,51.6 C250.3,51.4 250.1,51.1 250,50.8 C249.9,50.5 249.9,50.2 249.9,49.8 L248.9,49.6 C248.8,50.1 248.8,50.6 249,51.1 C249.2,51.6 249.4,52 249.9,52.3 C250.4,52.6 250.9,52.9 251.5,53.1 C252,53.2 252.6,53.3 253,53.2 C253.5,53.1 253.9,52.9 254.2,52.6 C254.5,52.3 254.7,52 254.9,51.5 C255,51.1 255,50.7 254.9,50.3 C254.8,49.9 254.5,49.6 254.1,49.3 C253.8,49.1 253.3,48.8 252.5,48.4 C251.7,48 251.3,47.7 251.1,47.5 C250.9,47.3 250.9,47 251,46.7 C251.1,46.4 251.3,46.2 251.6,46 C251.9,45.9 252.4,45.9 253,46 C253.6,46.2 254,46.4 254.2,46.7 C254.4,47 254.5,47.4 254.4,47.9 L255.4,48.1 C255.5,47.6 255.5,47.2 255.3,46.8 C255.6,46.5 255.3,46.1 254.9,45.8 L254.9,45.8 L254.9,45.8 Z M246.5,29.7 L246.2,30.8 L247.1,31 L247.4,29.9 L246.5,29.7 L246.5,29.7 Z M248.6,37.6 C248.5,37.6 248.4,37.5 248.3,37.4 C248.2,37.3 248.2,37.3 248.2,37.2 C248.2,37.1 248.2,36.9 248.3,36.7 L249.2,33.5 L250.1,33.8 L250.3,33.1 L249.4,32.8 L249.9,30.9 L248.8,31.2 L248.4,32.6 L247.7,32.4 L247.5,33.1 L248.2,33.3 L247.4,36.5 C247.3,37.1 247.2,37.4 247.2,37.6 C247.2,37.8 247.3,38 247.5,38.1 C247.7,38.3 247.9,38.4 248.2,38.5 C248.4,38.6 248.6,38.6 248.9,38.6 L249,37.7 C248.9,37.7 248.7,37.7 248.6,37.6 L248.6,37.6 L248.6,37.6 Z M248.6,37.6" class="Shape"/>
            <path d="M14,120 L16.9,121.1 C17.4,121.3 17.7,121.5 17.9,121.6 C18.1,121.8 18.2,122 18.3,122.3 C18.3,122.6 18.3,122.9 18.2,123.1 C18.1,123.4 17.9,123.6 17.7,123.7 C17.5,123.8 17.3,123.9 17,123.8 C16.8,123.8 16.5,123.7 16,123.5 L13,122.4 L12.7,123.3 L16,124.6 C16.4,124.7 16.7,124.8 16.9,124.9 L17.7,124.9 C17.9,124.8 18.2,124.7 18.4,124.5 C18.6,124.3 18.8,124 18.9,123.7 C19.2,123 19.1,122.3 18.6,121.7 L19.4,122 L19.7,121.2 L14.4,119.2 L14,120 L14,120 Z M17.8,111.1 C17.4,111.3 17.1,111.6 16.9,112.2 C16.6,112.9 16.7,113.5 17.2,114.2 C16.9,114.2 16.6,114.3 16.3,114.5 C16,114.7 15.8,115 15.7,115.4 C15.6,115.8 15.5,116.1 15.6,116.4 C15.7,116.7 15.8,117 16,117.3 L15.3,117 L15,117.8 L20.3,119.8 L20.6,118.9 L17.8,117.8 C17.3,117.6 17,117.4 16.7,117.2 C16.5,117 16.3,116.8 16.3,116.5 C16.2,116.2 16.3,116 16.4,115.7 C16.5,115.4 16.7,115.2 17,115.1 C17.3,115 17.6,115.1 18,115.2 L21.5,116.5 L21.8,115.6 L18.7,114.4 C18.2,114.2 17.8,113.9 17.6,113.6 C17.4,113.3 17.4,112.9 17.6,112.5 C17.7,112.3 17.8,112.1 18,112 C18.2,111.9 18.3,111.8 18.5,111.8 C18.7,111.8 19,111.9 19.3,112 L22.7,113.3 L23,112.4 L19.3,111 C18.7,110.9 18.2,110.9 17.8,111.1 L17.8,111.1 L17.8,111.1 Z M12.8,125.3 C12.5,125.3 12.2,125.4 11.9,125.7 C11.6,125.9 11.4,126.2 11.3,126.6 C11.1,127.2 11.1,127.9 11.4,128.5 L8.8,127.5 L8.5,128.4 L15.9,131.2 L16.2,130.3 L13.3,129.2 C12.9,129 12.6,128.9 12.4,128.7 C12.2,128.5 12.1,128.3 12,128 C12,127.7 12,127.4 12.1,127.2 C12.2,126.8 12.4,126.6 12.7,126.5 C13,126.4 13.3,126.4 13.8,126.6 L17.2,127.9 L17.5,127 L14.1,125.7 C13.6,125.4 13.2,125.3 12.8,125.3 L12.8,125.3 L12.8,125.3 Z M22.5,105.5 C22.1,105.4 21.7,105.3 21.4,105.2 C21,105.2 20.7,105.2 20.4,105.3 C20.1,105.4 19.8,105.6 19.6,105.8 C19.4,106 19.2,106.3 19,106.7 C18.8,107.3 18.8,107.9 19.2,108.4 L16.6,107.4 L16.3,108.3 L23.7,111.1 L24,110.3 L23.3,110 C24,109.8 24.4,109.5 24.7,108.8 C24.9,108.2 24.9,107.5 24.6,106.9 C24.1,106.4 23.4,105.9 22.5,105.5 L22.5,105.5 L22.5,105.5 Z M23.7,108.7 C23.5,109.2 23.1,109.5 22.6,109.6 C22.2,109.7 21.8,109.6 21.1,109.3 C20.5,109.1 20,108.7 19.8,108.3 C19.6,107.9 19.5,107.5 19.7,107.1 C19.8,106.7 20.1,106.4 20.6,106.3 C21,106.2 21.6,106.2 22.3,106.5 C23,106.8 23.4,107.1 23.7,107.5 C23.8,107.9 23.9,108.3 23.7,108.7 L23.7,108.7 L23.7,108.7 Z M47.1,47.3 C47.1,47.5 47,47.6 47,47.7 C46.9,47.8 46.9,47.9 46.8,48 C46.7,48.1 46.7,48.1 46.6,48.1 C46.5,48.1 46.3,48.1 46.1,48 L43,46.8 L43.3,45.9 L42.6,45.6 L42.3,46.5 L40.4,45.8 L40.6,46.9 L41.9,47.4 L41.6,48 L42.3,48.3 L42.6,47.6 L45.7,48.8 C46.2,49 46.6,49.1 46.8,49.1 C47,49.1 47.2,49 47.4,48.9 C47.6,48.8 47.7,48.5 47.8,48.2 C47.9,48 47.9,47.8 48,47.5 L47.1,47.3 L47.1,47.3 Z M2.9,142.8 L8.7,145 L1.4,146.6 L1,147.6 L8.4,150.4 L8.8,149.5 L3,147.3 L10.3,145.7 L10.7,144.7 L3.3,141.9 L2.9,142.8 L2.9,142.8 Z M11.8,138.4 C11.5,138 11,137.7 10.3,137.5 C9.5,137.2 8.7,137.2 8,137.4 C7.3,137.7 6.9,138.2 6.6,138.9 C6.3,139.6 6.3,140.2 6.5,140.8 C6.8,141.5 7.4,142.1 8.4,142.5 C9.3,142.8 10.1,142.9 10.7,142.6 C11.4,142.3 11.8,141.8 12.1,141.1 C12.3,140.6 12.3,140.2 12.3,139.7 C12.3,139.2 12.1,138.8 11.8,138.4 L11.8,138.4 L11.8,138.4 Z M11.4,140.8 C11.2,141.3 10.9,141.6 10.5,141.7 C10,141.9 9.5,141.8 8.8,141.6 C8.1,141.3 7.7,141 7.4,140.6 C7.1,140.2 7.2,139.7 7.3,139.3 C7.5,138.9 7.8,138.5 8.2,138.4 C8.7,138.2 9.2,138.3 9.9,138.5 C10.6,138.8 11.1,139.1 11.3,139.5 C11.5,139.9 11.6,140.3 11.4,140.8 L11.4,140.8 L11.4,140.8 Z M10,134.9 C9.8,134.8 9.7,134.6 9.6,134.4 C9.5,134.2 9.5,134 9.6,133.8 C9.7,133.6 9.8,133.4 10,133.2 L9.3,132.6 C9,132.8 8.8,133.1 8.7,133.4 C8.6,133.6 8.6,133.8 8.7,134 C8.8,134.2 8.9,134.5 9.2,134.9 L8.4,134.6 L8.1,135.4 L13.4,137.4 L13.7,136.5 L10.9,135.4 C10.6,135.3 10.3,135.2 10,134.9 L10,134.9 L10,134.9 Z M14.6,132.2 C14.5,132.3 14.5,132.4 14.4,132.5 C14.3,132.6 14.3,132.6 14.2,132.6 C14.1,132.6 13.9,132.6 13.7,132.5 L10.6,131.3 L11,130.4 L10.3,130.1 L10,131 L8,130.2 L8.2,131.3 L9.5,131.8 L9.2,132.5 L9.9,132.8 L10.2,132.1 L13.3,133.3 C13.8,133.5 14.2,133.6 14.4,133.6 C14.6,133.6 14.8,133.5 15,133.4 C15.2,133.3 15.3,133 15.4,132.7 C15.5,132.5 15.5,132.3 15.6,132 L14.8,131.8 C14.6,131.9 14.6,132.1 14.6,132.2 L14.6,132.2 L14.6,132.2 Z M31.1,89.5 C30.9,89.5 30.3,89.3 29.5,88.9 L28.3,88.4 C27.9,88.2 27.6,88.2 27.4,88.1 L26.7,88.1 C26.5,88.2 26.3,88.3 26.1,88.6 C25.9,88.8 25.7,89.2 25.5,89.6 C25.3,90.1 25.2,90.5 25.2,90.9 C25.2,91.3 25.3,91.6 25.4,91.9 C25.6,92.2 25.8,92.4 26.2,92.6 L26.7,91.8 C26.4,91.6 26.2,91.3 26.1,91 C26,90.7 26.1,90.4 26.2,90 C26.4,89.5 26.6,89.2 26.9,89.1 C27.1,89 27.4,89 27.8,89.1 C27.8,89.1 27.9,89.1 28,89.2 C28,89.6 27.9,90.2 27.7,90.9 C27.6,91.3 27.5,91.6 27.5,91.8 L27.5,92.6 C27.6,92.8 27.7,93.1 27.8,93.3 C28,93.5 28.2,93.7 28.4,93.8 C28.8,94 29.3,94 29.7,93.7 C30.1,93.5 30.4,93.1 30.6,92.5 C30.7,92.1 30.8,91.8 30.8,91.4 C30.8,91 30.7,90.6 30.6,90.2 C30.9,90.3 31.1,90.3 31.3,90.3 L31.7,89.4 C31.6,89.5 31.3,89.5 31.1,89.5 L31.1,89.5 L31.1,89.5 Z M30.1,92.1 C30,92.5 29.8,92.7 29.6,92.8 C29.4,92.9 29.1,92.9 28.9,92.8 C28.7,92.7 28.6,92.6 28.5,92.5 C28.4,92.4 28.4,92.2 28.3,92 C28.3,91.8 28.3,91.5 28.4,91.1 C28.6,90.4 28.6,89.9 28.6,89.5 L28.9,89.6 C29.3,89.8 29.6,89.9 29.7,90.1 C29.9,90.3 30,90.6 30.1,90.9 C30.3,91.4 30.3,91.8 30.1,92.1 L30.1,92.1 L30.1,92.1 Z M45.1,50.1 L44.7,51 C45,51.3 45.2,51.6 45.3,51.9 C45.4,52.2 45.4,52.5 45.2,52.8 C45,53.2 44.7,53.6 44.3,53.7 C43.9,53.9 43.4,53.9 42.8,53.7 L44.3,49.7 C44.2,49.7 44.1,49.6 44.1,49.6 C43.2,49.3 42.5,49.2 41.8,49.5 C41.1,49.8 40.7,50.3 40.4,51 C40.1,51.7 40.1,52.4 40.5,53.1 C40.8,53.8 41.4,54.2 42.3,54.6 C43.2,54.9 43.9,55 44.6,54.7 C45.3,54.4 45.7,53.9 46,53.1 C46.2,52.5 46.3,51.9 46.1,51.4 C45.9,50.9 45.6,50.4 45.1,50.1 L45.1,50.1 L45.1,50.1 Z M42.1,53.4 C41.6,53.2 41.3,52.9 41.2,52.5 C41,52.1 41,51.7 41.2,51.3 C41.4,50.8 41.7,50.5 42.1,50.4 C42.4,50.3 42.8,50.3 43.2,50.4 L42.1,53.4 L42.1,53.4 Z M42.9,55.8 L42.4,56.7 C42.7,57 42.9,57.3 43,57.6 C43.1,57.9 43.1,58.2 42.9,58.5 C42.7,58.9 42.4,59.3 42,59.4 C41.6,59.6 41.1,59.6 40.5,59.4 L42,55.4 C41.9,55.4 41.8,55.3 41.8,55.3 C41,55 40.2,55 39.6,55.2 C38.9,55.5 38.5,56 38.2,56.7 C37.9,57.4 37.9,58.1 38.3,58.8 C38.6,59.5 39.2,59.9 40.1,60.3 C41,60.6 41.7,60.7 42.4,60.4 C43.1,60.1 43.5,59.6 43.8,58.8 C44,58.2 44.1,57.6 43.9,57.1 C43.7,56.6 43.4,56.1 42.9,55.8 L42.9,55.8 L42.9,55.8 Z M39.9,59.1 C39.4,58.9 39.1,58.6 39,58.2 C38.8,57.8 38.8,57.4 39,57 C39.2,56.5 39.5,56.2 40,56.1 C40.3,56 40.7,56 41.1,56.1 L39.9,59.1 L39.9,59.1 Z M28.4,76.4 L31,77.4 C30.7,77.5 30.5,77.6 30.2,77.8 C30,78 29.8,78.3 29.7,78.6 C29.5,79 29.5,79.5 29.6,79.9 C29.7,80.3 29.9,80.7 30.3,81.1 C30.7,81.4 31.1,81.7 31.6,81.9 C32.1,82.1 32.7,82.2 33.2,82.2 C33.7,82.2 34.1,82 34.5,81.7 C34.9,81.4 35.1,81.1 35.3,80.7 C35.6,80 35.5,79.4 35.1,78.9 L35.8,79.2 L36.1,78.4 L28.7,75.6 L28.4,76.4 L28.4,76.4 Z M33.2,78.2 C33.9,78.5 34.3,78.8 34.5,79.2 C34.7,79.6 34.7,80 34.6,80.4 C34.4,80.8 34.2,81.1 33.7,81.2 C33.3,81.4 32.7,81.3 32,81 C31.3,80.7 30.8,80.4 30.6,80 C30.4,79.6 30.3,79.2 30.5,78.8 C30.7,78.4 31,78.1 31.4,78 C31.9,77.9 32.5,77.9 33.2,78.2 L33.2,78.2 L33.2,78.2 Z M37.8,67.7 C37.4,67.5 37,67.5 36.6,67.6 C36.2,67.7 35.8,67.9 35.5,68.3 C35.3,68.5 34.9,69 34.4,69.7 C33.9,70.4 33.6,70.8 33.3,71 C33.1,71.1 32.8,71.1 32.5,71 C32.2,70.9 32,70.6 31.9,70.3 C31.8,69.9 31.8,69.5 32.1,68.9 C32.3,68.3 32.6,68 32.9,67.8 C33.2,67.6 33.7,67.6 34.1,67.7 L34.4,66.7 C34,66.6 33.5,66.5 33.1,66.6 C32.7,66.7 32.3,66.9 32,67.3 C31.7,67.6 31.4,68.1 31.2,68.6 C31,69.1 30.9,69.6 30.9,70 C30.9,70.5 31,70.9 31.3,71.2 C31.5,71.5 31.8,71.8 32.2,71.9 C32.5,72 32.9,72.1 33.2,72 C33.5,71.9 33.9,71.8 34.2,71.5 C34.4,71.3 34.8,70.9 35.2,70.3 C35.6,69.7 35.9,69.3 36.1,69.1 C36.3,68.8 36.6,68.7 36.8,68.6 C37,68.5 37.3,68.5 37.5,68.6 C37.7,68.7 37.9,68.8 38,69.1 C38.1,69.3 38.2,69.6 38.2,69.9 C38.2,70.2 38.1,70.6 38,70.9 C37.8,71.3 37.6,71.7 37.3,71.9 C37,72.2 36.7,72.4 36.4,72.4 C36.1,72.5 35.8,72.5 35.4,72.4 L35.1,73.3 C35.6,73.5 36.1,73.5 36.6,73.4 C37.1,73.3 37.5,73.1 37.9,72.7 C38.3,72.3 38.6,71.8 38.8,71.1 C39,70.6 39.1,70.1 39.1,69.6 C39.1,69.1 38.9,68.7 38.7,68.3 C38.5,67.9 38.2,67.8 37.8,67.7 L37.8,67.7 L37.8,67.7 Z M40.2,65.4 C40.1,65.5 40.1,65.6 40,65.7 C39.9,65.8 39.9,65.8 39.8,65.8 C39.7,65.8 39.5,65.8 39.3,65.7 L36.2,64.5 L36.5,63.6 L35.8,63.3 L35.5,64.2 L33.6,63.5 L33.8,64.6 L35.1,65.1 L34.8,65.8 L35.5,66.1 L35.8,65.4 L38.9,66.6 C39.4,66.8 39.8,66.9 40,66.9 C40.2,66.9 40.4,66.8 40.6,66.7 C40.8,66.6 40.9,66.3 41,66 C41.1,65.8 41.1,65.6 41.2,65.3 L40.3,65 C40.3,65.1 40.2,65.3 40.2,65.4 L40.2,65.4 L40.2,65.4 Z M29.7,82.5 L28.9,82.5 C28.7,82.6 28.4,82.7 28.2,82.9 C28,83.1 27.8,83.4 27.7,83.7 C27.4,84.4 27.5,85.1 27.9,85.7 L27.1,85.4 L26.8,86.2 L32.1,88.2 L32.4,87.3 L29.5,86.2 C28.8,85.9 28.4,85.6 28.3,85.2 C28.2,84.8 28.2,84.4 28.3,84.1 C28.4,83.9 28.5,83.7 28.7,83.5 C28.9,83.4 29.1,83.3 29.3,83.3 C29.5,83.3 29.8,83.4 30.2,83.5 L33.4,84.7 L33.7,83.8 L30.4,82.5 C30.2,82.6 29.9,82.5 29.7,82.5 L29.7,82.5 L29.7,82.5 Z M25.8,100.3 L25.3,101.2 C25.6,101.5 25.8,101.8 25.9,102.1 C26,102.4 26,102.7 25.8,103 C25.6,103.4 25.3,103.8 24.9,103.9 C24.5,104.1 24,104.1 23.4,103.9 L24.9,99.9 C24.8,99.9 24.7,99.8 24.7,99.8 C23.8,99.5 23.1,99.4 22.4,99.7 C21.7,100 21.3,100.5 21,101.2 C20.7,101.9 20.7,102.6 21.1,103.3 C21.4,104 22,104.5 22.9,104.8 C23.8,105.1 24.5,105.2 25.2,104.9 C25.9,104.6 26.3,104.1 26.6,103.3 C26.8,102.7 26.9,102.1 26.7,101.6 C26.6,101.1 26.3,100.7 25.8,100.3 L25.8,100.3 L25.8,100.3 Z M22.8,103.6 C22.3,103.4 22,103.1 21.9,102.7 C21.7,102.3 21.7,101.9 21.9,101.5 C22.1,101 22.4,100.7 22.9,100.6 C23.2,100.5 23.6,100.5 24,100.6 L22.8,103.6 L22.8,103.6 Z M38,61.9 C37.8,61.8 37.7,61.6 37.6,61.4 C37.5,61.2 37.6,61 37.6,60.8 C37.7,60.6 37.8,60.4 38,60.2 L37.3,59.6 C37,59.8 36.8,60.1 36.7,60.4 C36.6,60.6 36.6,60.8 36.7,61 C36.8,61.2 36.9,61.5 37.2,61.9 L36.4,61.6 L36.1,62.4 L41.4,64.4 L41.7,63.5 L39,62.4 C38.6,62.3 38.3,62.1 38,61.9 L38,61.9 L38,61.9 Z M24.4,97.3 C24.2,97.2 24.1,97 24,96.8 C23.9,96.6 24,96.4 24,96.2 C24.1,96 24.2,95.8 24.4,95.6 L23.7,95 C23.4,95.2 23.2,95.5 23.1,95.8 C23,96 23,96.2 23.1,96.4 C23.2,96.6 23.3,96.9 23.6,97.3 L22.8,97 L22.5,97.8 L27.8,99.8 L28.1,98.9 L25.3,97.8 C25.1,97.7 24.7,97.5 24.4,97.3 L24.4,97.3 L24.4,97.3 Z M21.8,93.6 L29.2,96.4 L29.5,95.5 L22.1,92.7 L21.8,93.6 L21.8,93.6 Z M21.8,93.6" class="Shape"/>
        </g>
        <g class="background">
            <path d="M33.3,155.2 L18.6,151.5 L33.9,110.5 L55.8,94.6 L40,137.3 L91.6,140.7 L93.1,143.5 L38.9,140 L33.3,155.2 M143.5,169.1 C142.3,167.3 142.9,165.5 145.2,163.9 C147.5,162.3 150.9,161.2 155.3,160.7 C159.7,160.2 163.9,160.5 167.8,161.5 C171.7,162.5 174.3,163.9 175.5,165.8 C176.7,167.6 176.1,169.4 173.8,171 C171.5,172.6 168.1,173.7 163.7,174.2 C159.3,174.7 155.1,174.4 151.2,173.4 C147.3,172.4 144.7,171 143.5,169.1" class="road"/>
            <path d="M271.7,99.9 C272.1,100.5 271.9,101 271.2,101.5 L263.1,107.3 L243.1,102.3 L245,100.9 L241.8,100.1 L250.6,93.9 L245.3,92.6 C242.4,94.7 239.5,96.8 236.6,98.9 L233.4,98.1 L231.5,99.4 L211.5,94.4 L208.4,96.6 L228.4,101.6 L226.5,103 L229.7,103.8 L220.9,110.1 L202,105.4 C200.8,105.1 200,104.7 199.7,104.1 C199.3,103.5 199.5,103 200.2,102.5 L219.5,88.7 C220.2,88.2 221.2,87.9 222.6,87.8 L226.4,88 L269.4,98.7 C270.6,98.9 271.4,99.3 271.7,99.9 M238.1,105.8 L240,104.5 L260,109.5 L251.9,115.3 C251.2,115.8 250.2,116.1 248.8,116.2 L245,116 L226.2,111.3 L235,105 L238.1,105.8" class="walkway"/>
            <path d="M250.5,93.9 L241.7,100.1 L244.9,100.9 L243,102.3 L263,107.3 L260,109.5 L239.9,104.5 L238,105.8 L234.8,105 L226,111.3 L220.7,110 L229.5,103.7 L226.3,102.9 L228.2,101.5 L208.2,96.5 L211.3,94.3 L231.3,99.3 L233.2,98 L236.4,98.8 C239.3,96.7 242.2,94.6 245.1,92.5 L250.5,93.9" class="walkway"/>
            <path d="M377.6,57.7 L421.6,68.6 L418.8,70.6 L374.9,59.7 L290,120.3 L295.8,121.7 L299.2,119.2 L304.9,120.6 L301.4,123.1 L314.9,126.5 L311.4,129 L286.3,122.7 L252.4,147 L267.5,150.8 L272.6,158.8 L249.3,161.3 L243.9,153.1 L236.9,151.4 L245.6,145.2 L201.8,134.3 L197.5,137.4 L203.6,138.9 L170.6,162.4 L167.8,161.5 L164.6,160.9 L193.3,140.5 L134.7,125.9 L108.4,144.6 L92.8,143.6 L91.4,141 L101.4,141.7 L123,126.3 L118.3,125.1 L41.5,133.2 L42.6,129.8 L131,120.6 L154.8,103.6 L163.2,105.7 L139.8,122.4 L175.5,131.3 L184.2,125.1 L211.4,131.9 L226.1,121.4 L232.6,123 L217.9,133.5 L250.9,141.7 L269.5,128.5 L247.4,123 L250.3,121 L272.4,126.5 L317.7,94.2 L273.7,83.3 L269.1,86.6 L244.7,80.5 L249.3,77.2 L210.1,67.4 L205.5,70.7 L184.8,65.5 L189.5,62.1 L168.2,56.8 L184.6,45.1 L209.1,51.2 L195.8,60.7 L269.8,79.1 L274,76.1 L280.9,77.8 L276.7,80.8 L320.9,91.8 L377.6,51.4 L333.9,40.5 L340.3,35.9 L390.7,48.5 L377.6,57.7" class="walkway"/>
            <path d="M193.4,138.4 L167.1,131.8 L167.3,131.6 L167.3,131 L174.8,132.9 L175.1,132.9 L175.5,133 L175.6,133 L184.2,126.9 L191.6,128.8 L191.7,128.8 L189.7,130.3 L189.7,134.7 L194.7,135.9 L198.5,133.2 L198.5,130.4 L211.3,133.6 L226.4,122.9 L226.4,119 L163.2,103.2 L139.5,120.1 L139.4,124 L144.2,125.2 L144.2,126 L134.5,123.6 L125.7,129.9 L125.7,127.5 L123.1,126.9 L123.1,124.3 L120.2,123.6 L131,122.4 L155.1,105.2 L155.1,101.3 L72.3,80.6 L55.4,92.8 L45.4,119.3 L45.2,119.3 L42.2,127.6 L42.2,130.7 L41.3,130.8 L41.2,130.8 L39.5,135.4 L39.5,137.8 L38.7,137.8 L33,153.3 L33,157.2 L92,172 L101.1,145.8 L101.1,143.5 L101.4,143.5 L117,132.4 L117,133.4 L120,134.1 L113.2,138.9 L113.2,142.8 L172,157.5 L193.5,142.2 L193.4,138.4 L193.4,138.4 Z M158.6,129.7 L152.9,128.3 L153.1,128.2 L153.1,127.5 L158.6,128.9 L158.6,129.7 L158.6,129.7 Z M258.3,138.5 L258.4,138.5 L270,130.2 L270,127.6 L272.6,128.2 L301,108 L301,104.1 L278.5,98.5 L250.1,118.8 L250.1,121.5 L247.5,120.8 L243.7,123.5 L232.8,120.8 L217.8,131.5 L217.8,134.7 L217.4,135 L217.4,136 L201.8,132.1 L197.2,135.4 L197.2,139.3 L199.4,139.8 L199.3,139.9 L178,155.1 L178,159 L223,170.2 L244.3,155 L244.3,151.1 L241.3,150.4 L246,147 L245.9,143.1 L226,138.1 L226.2,137.9 L226.2,137.4 L251.1,143.6 L258.3,138.5 L258.3,138.5 Z M421.9,34.6 C412.5,28.6 396.9,22.9 375.1,17.4 L366.2,15.2 L340,33.8 L340,37.7 L340.2,37.8 L339.6,38.3 L339.6,39.7 L333.8,38.3 L330.4,40.7 L330.2,40.8 L327,43.1 L326.8,43.2 L323.6,45.5 L323.4,45.6 L285.7,72.5 L285.6,72.5 L276.8,78.8 L276.8,81.7 L273.9,80.9 L269.2,84.2 L264.2,82.9 L265.9,81.5 L265.9,80 L270.1,81 L274.5,77.8 L274.5,74 L261.2,70.7 L261.5,70.4 L261.5,66.6 L204.4,52.4 L201.1,54.8 L201,51.5 L189.4,48.6 L168.1,63.8 L168.1,67.6 L187.9,72.5 L188.3,72.6 L210.5,78.1 L210.9,78.2 L308.7,102.6 L311.2,100.8 L311.2,101.6 L312.6,101.9 L307.3,105.7 L307.1,105.8 L289.5,118.4 L289.5,121.6 L286.2,120.8 L282.7,123.4 L282.5,123.5 L267.7,134.1 L267.5,134.2 L263.9,136.8 L263.7,136.9 L252.2,145.2 L252.2,149 L267.7,152.9 L294.5,133.8 L304.5,136.3 L311.8,131.1 L311.8,127.9 L315.1,128.7 L357.2,98.7 L376.1,103.4 L419.2,72.7 L419.2,70.1 L421.8,70.7 L427.7,65.6 L429.7,63.2 L431.3,60.9 L432.3,58.9 L433.1,56.6 L433.4,54.7 L433.4,50.6 C433.7,45 429.8,39.6 421.9,34.6 L421.9,34.6 Z M205.5,68.6 L189.1,64.5 L189.8,64 L195.6,59.9 L195.6,62.6 L209.1,66 L205.5,68.6 L205.5,68.6 Z M261.4,80.9 L254.8,79.1 L254.8,80.6 L249,79.2 L249.6,78.7 L249.6,75.8 L263.5,79.3 L261.4,80.9 L261.4,80.9 Z M301.2,124.5 L296.6,123.3 L299.3,121.4 L301.2,121.9 L301.2,124.5 L301.2,124.5 Z M320.7,96.1 L320.7,95.2 L318.1,94.6 L318.1,93 L321,93.7 L324.2,91.4 L324.2,92.4 L325.5,92.7 L320.7,96.1 L320.7,96.1 Z M333.7,87 L333.7,86 L332.3,85.6 L339.2,80.6 L339.2,81.6 L340.6,81.9 L333.7,87 L333.7,87 Z M348.6,76.3 L348.6,75.4 L347.1,75 L358.7,66.7 L358.7,67.2 L360.6,67.7 L348.6,76.3 L348.6,76.3 Z M377.3,55.8 L377.3,58.3 L374.8,57.7 L368.2,62.4 L368.2,61 L367.2,60.8 L377.8,53.2 L377.8,49.3 L349.5,42.2 L350.6,41.4 L350.6,40.4 L386.4,49.3 L377.3,55.8 L377.3,55.8 Z M377.3,55.8" class="wall"/>
        </g>
        <g class="ceilings">
            <path class="unit" d="M354.9,64.9 L311.4,54 L307.5,56.8 L350.8,67.8 L354.9,64.9 L354.9,64.9 Z M354.9,64.9" id="2000"/>
            <path class="unit" d="M326.9,43 L370.4,53.8 L367.2,56.1 L323.7,45.2 L326.9,43 L326.9,43 Z M326.9,43" id="2001"/>
            <path class="unit" d="M232.6,59.2 L204.4,52.2 L196.1,58.1 L224.3,65.2 L232.6,59.2 L232.6,59.2 Z M232.6,59.2" id="2002"/>
            <path class="unit" d="M184.4,63 L201,51.3 L189.5,48.4 L168.6,63.2 L190.8,68.8 L195.1,65.7 L184.4,63 L184.4,63 Z M184.4,63" id="2004"/>
            <path class="unit" d="M230.9,70.1 L225.2,68.7 L216.3,75.1 L222.5,76.6 L230.2,78.6 L239.1,72.2 L230.9,70.1 L230.9,70.1 Z M230.9,70.1" id="2006"/>
            <path class="unit" d="M294,74.5 L285.6,80.4 L277.1,78.3 L285.5,72.3 L294,74.5 L294,74.5 Z M294,74.5" id="2007"/>
            <path class="unit" d="M294.2,66.3 L337.7,77.1 L329.3,83.1 L285.8,72.2 L294.2,66.3 L294.2,66.3 Z M294.2,66.3" id="2008"/>
            <path class="unit" d="M248.9,74.6 L240,81 L230.6,78.7 L239.5,72.3 L248.9,74.6 L248.9,74.6 Z M248.9,74.6" id="2009"/>
            <path class="unit" d="M280.7,82.5 L271.7,88.9 L264.8,87.2 L273.7,80.8 L280.7,82.5 L280.7,82.5 Z M280.7,82.5" id="2010"/>
            <path class="unit" d="M271.4,103.5 L293.2,108.9 L289.9,111.3 L268.2,105.8 L271.4,103.5 L271.4,103.5 Z M271.4,103.5" id="2011"/>
            <path class="unit" d="M118.1,111.5 L45.8,119 L55.8,92.5 L72.5,80.5 L154.6,101 L139.8,111.6 L130.9,117.9 L122.9,118.7 L118.1,111.5 L118.1,111.5 Z M118.1,111.5" id="2013"/>
            <path class="unit" d="M76.6,115.9 L81.2,123.1 L73.4,123.9 L68.8,116.7 L76.6,115.9 L76.6,115.9 Z M76.6,115.9" id="2014"/>
            <path class="unit" d="M183.8,122.7 L175.4,128.7 L165.6,126.2 L174,120.2 L183.8,122.7 L183.8,122.7 Z M183.8,122.7" id="2015"/>
            <path class="unit" d="M191.8,124.5 L206.4,114.1 L212.6,115.6 L198,126 L191.8,124.5 L191.8,124.5 Z M191.8,124.5" id="2016"/>
            <path class="unit" d="M219.2,117.2 L204.6,127.6 L198.3,126 L213,115.6 L219.2,117.2 L219.2,117.2 Z M219.2,117.2" id="2017"/>
            <path class="unit" d="M52.1,118.6 L56.6,125.8 L42.7,127.2 L45.5,119.2 L52.1,118.6 L52.1,118.6 Z M52.1,118.6" id="2018"/>
            <path class="unit" d="M261.6,131.4 L258,134 L251.7,132.4 L255.3,129.8 L261.6,131.4 L261.6,131.4 Z M261.6,131.4" id="2019"/>
            <path class="unit" d="M245.5,123.8 L230.9,134.2 L224.7,132.7 L239.4,122.3 L245.5,123.8 L245.5,123.8 Z M245.5,123.8" id="2020"/>
            <path class="unit" d="M252.1,125.4 L237.5,135.8 L231.3,134.2 L245.9,123.8 L252.1,125.4 L252.1,125.4 Z M252.1,125.4" id="2021"/>
            <path class="unit" d="M58.8,129 L58.8,129 L57.8,129.1 L57.7,129.1 L55.4,129.3 L59.8,136.3 L59.9,136.4 L65.9,136.8 L60.8,128.8 L58.8,129 L58.8,129 Z M58.8,129" id="2022"/>
            <path class="unit" d="M90.7,138.5 L83.1,126.5 L77.6,127 L84.5,138 L90.7,138.5 L90.7,138.5 Z M90.7,138.5" id="2023"/>
            <path class="unit" d="M122.6,123.9 L109.9,132.8 L83.9,126.3 L117.8,122.6 L122.6,123.9 L122.6,123.9 Z M122.6,123.9" id="2024"/>
            <path class="unit" d="M213.9,135.1 L205.4,141.1 L199.6,139.7 L208.1,133.7 L213.9,135.1 L213.9,135.1 Z M213.9,135.1" id="2025"/>
            <path class="unit" d="M232.8,139.8 L224.3,145.9 L218.4,144.4 L226.9,138.4 L232.8,139.8 L232.8,139.8 Z M232.8,139.8" id="2026"/>
            <path class="unit" d="M350,37.3 L346.8,39.6 L339.9,37.9 L343.1,35.6 L350,37.3 L350,37.3 Z M350,37.3" id="2027"/>
            <path class="unit" d="M333.7,38.1 L377.2,48.9 L374,51.2 L330.5,40.3 L333.7,38.1 L333.7,38.1 Z M333.7,38.1" id="2028"/>
            <path class="unit" d="M330.3,40.5 L373.8,51.3 L370.6,53.6 L327.1,42.7 L330.3,40.5 L330.3,40.5 Z M330.3,40.5" id="2029"/>
            <path class="unit" d="M323.5,45.4 L367,56.2 L363.7,58.5 L320.2,47.6 C321.3,46.9 322.4,46.2 323.5,45.4 L323.5,45.4 L323.5,45.4 Z M323.5,45.4" id="2030"/>
            <path class="unit" d="M355.1,64.7 L311.6,53.8 L320,47.8 L363.5,58.6 L355.1,64.7 L355.1,64.7 Z M355.1,64.7" id="2031"/>
            <path class="unit" d="M432.8,49.6 C432.8,55 429,60.5 421.4,66.3 L377.8,55.4 L391,46 L340.3,33.3 L366.1,15 L374.6,17.1 C396.3,22.5 411.8,28.2 421.2,34.2 C428.9,39.1 432.8,44.3 432.8,49.6 L432.8,49.6 L432.8,49.6 Z M432.8,49.6" id="2032"/>
            <path class="unit" d="M253.7,64.5 L232.9,59.3 L224.6,65.3 L245.3,70.4 L253.7,64.5 L253.7,64.5 Z M253.7,64.5" id="2033"/>
            <path class="unit" d="M191.1,68.8 L200.9,71.3 L205.2,68.2 L195.4,65.7 L191.1,68.8 L191.1,68.8 Z M191.1,68.8" id="2036"/>
            <path class="unit" d="M260.7,66.2 L252.2,72.1 L245.6,70.5 L253.9,64.5 L260.7,66.2 L260.7,66.2 Z M260.7,66.2" id="2037"/>
            <path class="unit" d="M410.1,74.4 L366.6,63.5 L375,57.5 L418.5,68.4 L410.1,74.4 L410.1,74.4 Z M410.1,74.4" id="2038"/>
            <path class="unit" d="M219.6,67.3 L219.6,67.3 L210.2,65 L205.7,68.1 L205.8,68.1 L201.3,71.3 L210.6,73.7 L216,75 L225,68.6 L219.6,67.3 L219.6,67.3 Z M219.6,67.3" id="2039"/>
            <path class="unit" d="M342,74 L298.6,63.2 L294.3,66.2 L337.9,77 L342,74 L342,74 Z M342,74" id="2040"/>
            <path class="unit" d="M273.7,73.6 L269.7,76.5 L255.1,72.9 L259.1,70 L273.7,73.6 L273.7,73.6 Z M273.7,73.6" id="2041"/>
            <path class="unit" d="M401.5,80.5 L358,69.6 L366.4,63.7 L409.9,74.5 L401.5,80.5 L401.5,80.5 Z M401.5,80.5" id="2042"/>
            <path class="unit" d="M302.7,76.7 L294.3,82.7 L285.9,80.6 L294.3,74.6 L302.7,76.7 L302.7,76.7 Z M302.7,76.7" id="2043"/>
            <path class="unit" d="M251.4,79.7 L247.1,82.8 L240.3,81.1 L244.6,78 L251.4,79.7 L251.4,79.7 Z M251.4,79.7" id="2044"/>
            <path class="unit" d="M303.1,76.8 L311.5,78.9 L303.1,84.9 L294.7,82.8 L303.1,76.8 L303.1,76.8 Z M303.1,76.8" id="2045"/>
            <path class="unit" d="M260.1,81.9 L251.8,79.8 L247.5,82.9 L255.8,85 L260.1,81.9 L260.1,81.9 Z M260.1,81.9" id="2046"/>
            <path class="unit" d="M393,86.6 L349.5,75.7 L357.8,69.7 L401.3,80.6 L393,86.6 L393,86.6 Z M393,86.6" id="2048"/>
            <path class="unit" d="M320.2,81.1 L311.9,87 L303.6,85 L312,79 L320.2,81.1 L320.2,81.1 Z M320.2,81.1" id="2049"/>
            <path class="unit" d="M329.1,83.3 L320.7,89.2 L312.3,87.1 L320.6,81.1 L329.1,83.3 L329.1,83.3 Z M329.1,83.3" id="2050"/>
            <path class="unit" d="M288,84.4 L279.1,90.8 L272.1,89.1 L281,82.7 L288,84.4 L288,84.4 Z M288,84.4" id="2051"/>
            <path class="unit" d="M343.9,79.7 L387.5,90.5 L390.1,88.7 L346.6,77.8 L343.9,79.7 L343.9,79.7 Z M343.9,79.7" id="2052"/>
            <path class="unit" d="M295.4,86.2 L286.5,92.6 L279.5,90.9 L288.4,84.5 L295.4,86.2 L295.4,86.2 Z M295.4,86.2" id="2053"/>
            <path class="unit" d="M302.7,88 L293.8,94.3 L286.8,92.6 L295.7,86.2 L302.7,88 L302.7,88 Z M302.7,88" id="2054"/>
            <path class="unit" d="M294.1,94.5 L303.1,88.1 L310,89.8 L301.1,96.2 L294.1,94.5 L294.1,94.5 Z M294.1,94.5" id="2055"/>
            <path class="unit" d="M317.3,91.7 L308.4,98.1 L301.5,96.4 L310.4,90 L317.3,91.7 L317.3,91.7 Z M317.3,91.7" id="2056"/>
            <path class="unit" d="M332.3,88 L375.8,98.9 L381.7,94.7 L338.2,83.8 L332.3,88 L332.3,88 Z M332.3,88" id="2057"/>
            <path class="unit" d="M344.8,91.4 L340.8,94.2 L328.1,90.9 L331.9,88.2 L315.5,99.9 L340.2,106.1 L356.6,94.4 L344.8,91.4 L344.8,91.4 Z M344.8,91.4" id="2058"/>
            <path class="unit" d="M300.2,103.8 L296.9,106.2 L275.1,100.7 L278.4,98.4 L300.2,103.8 L300.2,103.8 Z M300.2,103.8" id="2059"/>
            <path class="unit" d="M296.7,106.4 L293.4,108.8 L271.6,103.3 L274.9,101 L296.7,106.4 L296.7,106.4 Z M296.7,106.4" id="2060"/>
            <path class="unit" d="M340,106.2 L332.4,111.6 L307.7,105.5 L315.3,100.1 L340,106.2 L340,106.2 Z M340,106.2" id="2061"/>
            <path class="unit" d="M267.9,106 L289.6,111.4 L282.8,116.3 L261,110.8 L264.3,108.5 L267.9,106 L267.9,106 Z M267.9,106" id="2063"/>
            <path class="unit" d="M260.9,111 L282.7,116.4 L279.4,118.8 L257.6,113.3 L260.9,111 L260.9,111 Z M260.9,111" id="2064"/>
            <path class="unit" d="M298.7,117.1 L295.5,119.4 L290,118 L293.2,115.7 L298.7,117.1 L298.7,117.1 Z M298.7,117.1" id="2065"/>
            <path class="unit" d="M117.8,111.6 L122.4,118.8 L114.6,119.7 L110,112.5 L117.8,111.6 L117.8,111.6 Z M117.8,111.6" id="2066"/>
            <path class="unit" d="M257.4,113.5 L279.1,118.9 L275.8,121.3 L254,115.8 L257.4,113.5 L257.4,113.5 Z M257.4,113.5" id="2067"/>
            <path class="unit" d="M332.1,111.8 L318.2,121.7 L293.5,115.5 L307.4,105.6 L332.1,111.8 L332.1,111.8 Z M332.1,111.8" id="2068"/>
            <path class="unit" d="M109.5,112.5 L114.1,119.7 L106.3,120.5 L101.7,113.3 L109.5,112.5 L109.5,112.5 Z M109.5,112.5" id="2069"/>
            <path class="unit" d="M105.9,120.6 L98.1,121.4 L93.5,114.2 L101.3,113.4 L105.9,120.6 L105.9,120.6 Z M105.9,120.6" id="2070"/>
            <path class="unit" d="M93.1,114.2 L97.7,121.4 L89.9,122.2 L85.3,115 L93.1,114.2 L93.1,114.2 Z M93.1,114.2" id="2071"/>
            <path class="unit" d="M253.8,116 L275.6,121.4 L272.3,123.8 L250.5,118.3 L253.8,116 L253.8,116 Z M253.8,116" id="2072"/>
            <path class="unit" d="M304.9,118.6 L318,121.9 L314.8,124.2 L301.7,121 L304.9,118.6 L304.9,118.6 Z M304.9,118.6" id="2073"/>
            <path class="unit" d="M84.9,115.1 L89.5,122.3 L81.7,123.1 L77.1,115.9 L84.9,115.1 L84.9,115.1 Z M84.9,115.1" id="2074"/>
            <path class="unit" d="M163.3,103.3 L205.9,114 L191.3,124.5 L163.6,117.6 L155,123.8 L139.9,120.1 L163.3,103.3 L163.3,103.3 Z M163.3,103.3" id="2075"/>
            <path class="unit" d="M60.8,117.6 L68.5,116.8 L73,124 L65.3,124.8 L60.8,117.6 L60.8,117.6 Z M60.8,117.6" id="2076"/>
            <path class="unit" d="M163.8,117.7 L173.6,120.2 L165.2,126.2 L155.4,123.8 L163.8,117.7 L163.8,117.7 Z M163.8,117.7" id="2077"/>
            <path class="unit" d="M60.3,117.7 L64.9,124.9 L57.1,125.7 L52.5,118.5 L60.3,117.7 L60.3,117.7 Z M60.3,117.7" id="2078"/>
            <path class="unit" d="M243.8,123.1 L247.4,120.5 L269.2,125.9 L265.6,128.5 L243.8,123.1 L243.8,123.1 Z M243.8,123.1" id="2079"/>
            <path class="unit" d="M286.4,120.7 L311.1,126.8 L307.8,129.2 L283.1,123.1 L286.4,120.7 L286.4,120.7 Z M286.4,120.7" id="2080"/>
            <path class="unit" d="M225.8,118.8 L211.1,129.2 L204.9,127.7 L219.6,117.3 L225.8,118.8 L225.8,118.8 Z M225.8,118.8" id="2081"/>
            <path class="unit" d="M265.4,128.7 L261.8,131.3 L255.5,129.7 L259.1,127.1 L265.4,128.7 L265.4,128.7 Z M265.4,128.7" id="2082"/>
            <path class="unit" d="M282.8,123.2 L307.5,129.4 L304.2,131.8 L279.5,125.6 L282.8,123.2 L282.8,123.2 Z M282.8,123.2" id="2083"/>
            <path class="unit" d="M294,129.4 L290.4,132 L275.7,128.3 L279.3,125.7 L294,129.4 L294,129.4 Z M294,129.4" id="2084"/>
            <path class="unit" d="M232.7,120.6 L238.9,122.1 L224.2,132.5 L218,131 L232.7,120.6 L232.7,120.6 Z M232.7,120.6" id="2085"/>
            <path class="unit" d="M290.2,132.1 L286.6,134.7 L271.9,131 L275.5,128.4 L290.2,132.1 L290.2,132.1 Z M290.2,132.1" id="2086"/>
            <path class="unit" d="M131.3,132.3 L127.7,134.9 L121.4,133.3 L125,130.7 L131.3,132.3 L131.3,132.3 Z M131.3,132.3" id="2087"/>
            <path class="unit" d="M201.9,132.1 L207.7,133.5 L203.5,136.4 L197.7,135 L201.9,132.1 L201.9,132.1 Z M201.9,132.1" id="2088"/>
            <path class="unit" d="M271.6,131.2 L286.3,134.9 L282.7,137.5 L268,133.8 L271.6,131.2 L271.6,131.2 Z M271.6,131.2" id="2089"/>
            <path class="unit" d="M53,135.9 L39.9,135 L40.6,133.2 L50.8,132.5 L53,135.9 L53,135.9 Z M53,135.9" id="2090"/>
            <path class="unit" d="M258.7,127.1 L244,137.5 L237.8,136 L252.5,125.6 L258.7,127.1 L258.7,127.1 Z M258.7,127.1" id="2091"/>
            <path class="unit" d="M41.5,130.8 L40.6,133 L50.9,132.2 L53.2,135.9 L59.5,136.3 L55.1,129.4 L41.5,130.8 L41.5,130.8 Z M41.5,130.8" id="2092"/>
            <path class="unit" d="M127.4,134.9 L123.8,137.5 L117.5,135.9 L121.1,133.3 L127.4,134.9 L127.4,134.9 Z M127.4,134.9" id="2093"/>
            <path class="unit" d="M77.4,127.1 L71.9,127.6 L78.2,137.6 L84.3,138 L77.4,127.1 L77.4,127.1 Z M77.4,127.1" id="2094"/>
            <path class="unit" d="M257.7,134.1 L250.7,139.1 L244.5,137.5 L251.5,132.5 L257.7,134.1 L257.7,134.1 Z M257.7,134.1" id="2095"/>
            <path class="unit" d="M279,140.1 L264.3,136.4 L267.9,133.8 L282.6,137.5 L279,140.1 L279,140.1 Z M279,140.1" id="2096"/>
            <path class="unit" d="M90.9,138.5 L101.1,139.2 L83.3,126.5 L90.9,138.5 L90.9,138.5 Z M90.9,138.5" id="2097"/>
            <path class="unit" d="M113.7,138.7 L117.3,136.1 L123.6,137.6 L120,140.2 L113.7,138.7 L113.7,138.7 Z M113.7,138.7" id="2098"/>
            <path class="unit" d="M205.8,141.2 L214.3,135.1 L220.2,136.6 L211.7,142.6 L205.8,141.2 L205.8,141.2 Z M205.8,141.2" id="2099"/>
            <path class="unit" d="M226.5,138.2 L218,144.3 L212.1,142.8 L220.6,136.7 L226.5,138.2 L226.5,138.2 Z M226.5,138.2" id="2100"/>
            <path class="unit" d="M233.2,139.9 L239.1,141.4 L230.6,147.5 L224.7,146 L233.2,139.9 L233.2,139.9 Z M233.2,139.9" id="2101"/>
            <path class="unit" d="M276.6,141.9 L261.8,138.2 L257.7,141.1 L272.4,144.8 L276.6,141.9 L276.6,141.9 Z M276.6,141.9" id="2102"/>
            <path class="unit" d="M245.3,142.9 L236.8,149 L231,147.6 L239.5,141.5 L245.3,142.9 L245.3,142.9 Z M245.3,142.9" id="2103"/>
            <path class="unit" d="M125.1,130.5 L134.7,123.7 L192.8,138.2 L171.8,153.2 L120.4,140.4 L131.8,132.3 L125.1,130.5 L125.1,130.5 Z M125.1,130.5" id="2104"/>
            <path class="unit" d="M199.3,139.8 L243.5,150.8 L222.6,165.7 L178.4,154.7 L199.3,139.8 L199.3,139.8 Z M199.3,139.8" id="2105"/>
            <path class="unit" d="M39,137.7 L100.6,141.9 L91.6,167.6 L33.4,153 L39,137.7 L39,137.7 Z M39,137.7" id="2106"/>
            <path class="unit" d="M349.2,75.9 L346.7,77.7 L390.2,88.6 L392.8,86.8 L349.2,75.9 L349.2,75.9 Z M349.2,75.9" id="2107"/>
            <path class="unit" d="M342.1,73.8 L346.3,70.9 L302.8,60.1 L298.8,63 L342.1,73.8 L342.1,73.8 Z M342.1,73.8" id="2108"/>
            <path class="unit" d="M265.7,77.9 L261.4,80.9 L254.8,79.2 L259.2,76.1 L265.7,77.9 L265.7,77.9 Z M265.7,77.9" id="2109"/>
            <path class="unit" d="M387.3,90.6 L343.8,79.8 L340.9,81.8 L363.8,87.5 L361.2,89.3 L381.9,94.5 L387.3,90.6 L387.3,90.6 Z M387.3,90.6" id="2010"/>
            <path class="unit" d="M278.7,140.3 L264,136.6 L261.9,138.1 L276.6,141.8 L278.7,140.3 L278.7,140.3 Z M278.7,140.3" id="2111"/>
            <path class="unit" d="M340.7,94 L344.5,91.3 L344.7,91.4 L331.9,88.2 L328.2,90.9 L340.7,94 L340.7,94 Z M340.7,94" id="2112"/>
            <path class="unit" d="M83.8,126.6 L101.5,139.1 L109.7,133 L83.8,126.6 L83.8,126.6 Z M83.8,126.6" id="2113"/>
            <path class="unit" d="M340.9,81.9 L340.9,81.9 L338.4,83.7 L361.2,89.4 L363.7,87.6 L340.9,81.9 L340.9,81.9 Z M340.9,81.9" id="2114"/>
            <path class="unit" d="M252.7,144.7 L267.4,148.4 L272.2,145 L257.5,141.2 L252.7,144.7 L252.7,144.7 Z M252.7,144.7" id="2115"/>
            <path class="unit" d="M303.1,59.9 L346.6,70.8 L350.6,67.9 L307.3,56.9 L303.1,59.9 L303.1,59.9 Z M303.1,59.9" id="2116"/>
            <path class="unit" d="M61.1,128.7 L66.1,136.8 L72.1,137.2 L66.4,128.2 L61.1,128.7 L61.1,128.7 Z M61.1,128.7" id="2117"/>
            <path class="unit" d="M66.7,128.2 L72.3,137.2 L78,137.6 L71.7,127.6 L66.7,128.2 L66.7,128.2 Z M66.7,128.2" id="2118"/>
            <path class="unit" d="M363.8,64.1 L358.8,62.8 L363.1,59.7 L368.2,60.9 L363.8,64.1 Z M363.8,64.1" id="2119"/>
            <path class="unit" d="M344.2,78.6 L339.2,77.3 L343.5,74.2 L348.6,75.4 L344.2,78.6 Z M344.2,78.6" id="2120"/>
            <path class="unit" d="M329.2,89.2 L324.2,87.9 L328.5,84.8 L333.7,86.1 L329.2,89.2 Z M329.2,89.2" id="2121"/>
            <path class="unit" d="M316.2,98.4 L311.2,97.1 L315.6,94 L320.7,95.3 L316.2,98.4 Z M316.2,98.4" id="2122"/>
            <path class="unit" d="M222.5,136.2 L217.4,135 L221.1,132.3 L226.2,133.6 L222.5,136.2 Z M222.5,136.2" id="2123"/>
            <path class="unit" d="M163.7,129.9 L158.6,128.6 L162.3,126 L167.4,127.2 L163.7,129.9 Z M163.7,129.9" id="2124"/>
            <path class="unit" d="M122.1,130.2 L117,129 L120.7,126.3 L125.8,127.6 L122.1,130.2 Z M122.1,130.2" id="2125"/>
            <path class="unit" d="M195,131.6 L189.8,130.3 L193.5,127.6 L198.6,128.9 L195,131.6 Z M195,131.6" id="2126"/>
            <path class="unit" d="M113.2,122.9 L111.5,120.3 L116.8,119.7 L118.5,122.4 L113.2,122.9 Z M113.2,122.9" id="2127"/>
            <path class="unit" d="M79.8,126.5 L78.1,123.8 L83.3,123.2 L85.1,125.9 L79.8,126.5 Z M79.8,126.5" id="2128"/>
            <path class="unit" d="M268.7,84 L262,82.3 L261.6,82.2 L260.5,81.9 L256.3,85 L258.3,85.5 L264.5,87.1 L268.7,84 L268.7,84 Z M268.7,84" id="2129"/>
            <path class="unit" d="M149.4,126.4 L144.3,125.1 L147.9,122.4 L153.1,123.7 L149.4,126.4 Z M149.4,126.4" id="2130"/>
        </g>
    </g>
</svg>